<svg width="1810" height="566" viewBox="0 0 1810 566" fill="none" xmlns="http://www.w3.org/2000/svg">
<rect width="1810" height="566" fill="#21272A"/>
<rect x="79" y="249" width="160" height="68" rx="8" fill="#4D5358"/>
<rect x="79" y="249" width="160" height="68" rx="8" stroke="#BE95FF"/>
<path d="M109.32 291H100.68V289.66H104.16V278.38H100.68V277.04H109.32V278.38H105.84V289.66H109.32V291ZM114.552 291H112.952V280.68H114.552V282.36H114.632C115.072 281.34 115.872 280.44 117.572 280.44C119.732 280.44 121.152 281.88 121.152 284.38V291H119.552V284.66C119.552 282.78 118.692 281.86 117.112 281.86C115.832 281.86 114.552 282.48 114.552 283.84V291ZM124.884 295V280.68H126.484V282.36H126.564C127.224 281.1 128.304 280.44 129.744 280.44C132.264 280.44 133.784 282.46 133.784 285.84C133.784 289.22 132.264 291.24 129.744 291.24C128.304 291.24 127.224 290.58 126.564 289.32H126.484V295H124.884ZM129.124 289.82C130.984 289.82 132.064 288.58 132.064 286.72V284.96C132.064 283.1 130.984 281.86 129.124 281.86C127.704 281.86 126.484 282.6 126.484 283.98V287.7C126.484 289.08 127.704 289.82 129.124 289.82ZM143.417 291V289.32H143.337C142.897 290.34 142.097 291.24 140.397 291.24C138.237 291.24 136.817 289.8 136.817 287.3V280.68H138.417V287.02C138.417 288.9 139.277 289.82 140.857 289.82C142.137 289.82 143.417 289.2 143.417 287.84V280.68H145.017V291H143.417ZM157.489 291H153.469C151.909 291 151.189 290.02 151.189 288.64V282.04H147.749V280.68H150.309C150.989 280.68 151.249 280.44 151.249 279.74V277.04H152.789V280.68H157.489V282.04H152.789V289.64H157.489V291ZM174.433 291H172.753V277.04H177.833C180.413 277.04 181.813 278.54 181.813 281.06C181.813 283.58 180.413 285.08 177.833 285.08H174.433V291ZM174.433 278.5V283.62H177.793C179.193 283.62 180.033 282.88 180.033 281.58V280.54C180.033 279.24 179.193 278.5 177.793 278.5H174.433ZM184.845 291V277.04H188.745C192.145 277.04 193.825 279.44 193.825 284.02C193.825 288.6 192.145 291 188.745 291H184.845ZM186.525 289.54H188.665C190.885 289.54 192.045 287.9 192.045 285.1V282.94C192.045 280.14 190.885 278.5 188.665 278.5H186.525V289.54ZM205.338 291H196.738V277.04H205.338V278.5H198.418V283.2H205.098V284.66H198.418V289.54H205.338V291ZM213.05 291.24C210.89 291.24 209.35 290.44 208.27 289.22L209.35 288.28C210.33 289.32 211.45 289.9 213.09 289.9C214.69 289.9 215.83 289.34 215.83 288.12C215.83 287.04 214.95 286.76 214.01 286.62L212.39 286.38C210.93 286.16 208.85 285.76 208.85 283.52C208.85 281.46 210.61 280.44 213.01 280.44C214.87 280.44 216.23 281.06 217.21 282.1L216.17 283.08C215.69 282.5 214.77 281.78 212.95 281.78C211.33 281.78 210.43 282.36 210.43 283.42C210.43 284.5 211.33 284.78 212.25 284.92L213.87 285.16C215.35 285.38 217.41 285.78 217.41 288.02C217.41 290.06 215.69 291.24 213.05 291.24Z" fill="#F4F4F4"/>
<rect x="351" y="147" width="268" height="108" rx="8" fill="#4D5358"/>
<rect x="351" y="147" width="268" height="108" rx="8" stroke="#BE95FF"/>
<path d="M378.14 189H375.86L371.72 175.04H373.5L375.48 182.02L376.98 187.3H377.08L378.58 182.02L380.56 175.04H382.28L378.14 189ZM392.812 190.92V192.28H390.472C388.912 192.28 388.192 191.3 388.192 189.92V189.18C385.352 188.8 384.112 186.2 384.112 182.02C384.112 177.46 385.592 174.8 388.992 174.8C392.392 174.8 393.872 177.46 393.872 182.02C393.872 186.2 392.612 188.8 389.792 189.18V190.92H392.812ZM388.992 187.78C391.212 187.78 392.092 185.96 392.092 183.16V180.88C392.092 178.08 391.212 176.26 388.992 176.26C386.772 176.26 385.892 178.08 385.892 180.88V183.16C385.892 185.96 386.772 187.78 388.992 187.78ZM401.444 189.24C398.044 189.24 396.384 186.66 396.384 182.02C396.384 177.38 398.044 174.8 401.444 174.8C404.004 174.8 405.064 176.34 405.744 177.86L404.304 178.52C403.804 177.28 403.144 176.26 401.444 176.26C399.224 176.26 398.164 178.08 398.164 180.88V183.16C398.164 185.96 399.224 187.78 401.444 187.78C403.144 187.78 403.804 186.76 404.304 185.52L405.744 186.18C405.064 187.7 404.004 189.24 401.444 189.24Z" fill="#F4F4F4"/>
<rect x="351" y="339" width="268" height="96" rx="8" fill="#4D5358"/>
<rect x="351" y="339" width="268" height="96" rx="8" stroke="#BE95FF"/>
<path d="M381.7 381H373.4V367.04H375.08V379.54H381.7V381ZM388.992 381.24C386.092 381.24 384.312 379.12 384.312 375.84C384.312 372.56 386.092 370.44 388.992 370.44C391.892 370.44 393.672 372.56 393.672 375.84C393.672 379.12 391.892 381.24 388.992 381.24ZM388.992 379.86C390.772 379.86 391.972 378.8 391.972 376.58V375.1C391.972 372.88 390.772 371.82 388.992 371.82C387.212 371.82 386.012 372.88 386.012 375.1V376.58C386.012 378.8 387.212 379.86 388.992 379.86ZM401.104 381.24C398.944 381.24 397.404 380.44 396.324 379.22L397.404 378.28C398.384 379.32 399.504 379.9 401.144 379.9C402.744 379.9 403.884 379.34 403.884 378.12C403.884 377.04 403.004 376.76 402.064 376.62L400.444 376.38C398.984 376.16 396.904 375.76 396.904 373.52C396.904 371.46 398.664 370.44 401.064 370.44C402.924 370.44 404.284 371.06 405.264 372.1L404.224 373.08C403.744 372.5 402.824 371.78 401.004 371.78C399.384 371.78 398.484 372.36 398.484 373.42C398.484 374.5 399.384 374.78 400.304 374.92L401.924 375.16C403.404 375.38 405.464 375.78 405.464 378.02C405.464 380.06 403.744 381.24 401.104 381.24ZM413.097 381.24C410.937 381.24 409.397 380.44 408.317 379.22L409.397 378.28C410.377 379.32 411.497 379.9 413.137 379.9C414.737 379.9 415.877 379.34 415.877 378.12C415.877 377.04 414.997 376.76 414.057 376.62L412.437 376.38C410.977 376.16 408.897 375.76 408.897 373.52C408.897 371.46 410.657 370.44 413.057 370.44C414.917 370.44 416.277 371.06 417.257 372.1L416.217 373.08C415.737 372.5 414.817 371.78 412.997 371.78C411.377 371.78 410.477 372.36 410.477 373.42C410.477 374.5 411.377 374.78 412.297 374.92L413.917 375.16C415.397 375.38 417.457 375.78 417.457 378.02C417.457 380.06 415.737 381.24 413.097 381.24ZM432.621 381V379.64H436.101V372.04H432.421V370.68H436.101V368.56C436.101 367.18 436.821 366.2 438.381 366.2H441.841V367.56H437.701V370.68H441.841V372.04H437.701V379.64H441.381V381H432.621ZM451.393 381V379.32H451.313C450.873 380.34 450.073 381.24 448.373 381.24C446.213 381.24 444.793 379.8 444.793 377.3V370.68H446.393V377.02C446.393 378.9 447.253 379.82 448.833 379.82C450.113 379.82 451.393 379.2 451.393 377.84V370.68H452.993V381H451.393ZM458.505 381H456.905V370.68H458.505V372.36H458.585C459.025 371.34 459.825 370.44 461.525 370.44C463.685 370.44 465.105 371.88 465.105 374.38V381H463.505V374.66C463.505 372.78 462.645 371.86 461.065 371.86C459.785 371.86 458.505 372.48 458.505 373.84V381ZM473.298 381.24C470.338 381.24 468.618 379.1 468.618 375.84C468.618 372.56 470.358 370.44 473.278 370.44C475.278 370.44 476.518 371.42 477.098 372.82L475.818 373.5C475.438 372.44 474.558 371.82 473.278 371.82C471.398 371.82 470.338 373.14 470.338 374.96V376.72C470.338 378.54 471.378 379.86 473.318 379.86C474.698 379.86 475.598 379.18 476.118 378.06L477.258 378.84C476.658 380.22 475.358 381.24 473.298 381.24ZM489.45 381H485.43C483.87 381 483.15 380.02 483.15 378.64V372.04H479.71V370.68H482.27C482.95 370.68 483.21 370.44 483.21 369.74V367.04H484.75V370.68H489.45V372.04H484.75V379.64H489.45V381ZM497.562 368.4C496.642 368.4 496.302 367.96 496.302 367.38V367.06C496.302 366.48 496.642 366.04 497.562 366.04C498.482 366.04 498.822 366.48 498.822 367.06V367.38C498.822 367.96 498.482 368.4 497.562 368.4ZM493.042 381V379.64H496.762V372.04H493.042V370.68H498.362V379.64H501.842V381H493.042ZM508.914 381.24C506.014 381.24 504.234 379.12 504.234 375.84C504.234 372.56 506.014 370.44 508.914 370.44C511.814 370.44 513.594 372.56 513.594 375.84C513.594 379.12 511.814 381.24 508.914 381.24ZM508.914 379.86C510.694 379.86 511.894 378.8 511.894 376.58V375.1C511.894 372.88 510.694 371.82 508.914 371.82C507.134 371.82 505.934 372.88 505.934 375.1V376.58C505.934 378.8 507.134 379.86 508.914 379.86ZM518.466 381H516.866V370.68H518.466V372.36H518.546C518.986 371.34 519.786 370.44 521.486 370.44C523.646 370.44 525.066 371.88 525.066 374.38V381H523.466V374.66C523.466 372.78 522.606 371.86 521.026 371.86C519.746 371.86 518.466 372.48 518.466 373.84V381ZM533.018 381.24C530.858 381.24 529.318 380.44 528.238 379.22L529.318 378.28C530.298 379.32 531.418 379.9 533.058 379.9C534.658 379.9 535.798 379.34 535.798 378.12C535.798 377.04 534.918 376.76 533.978 376.62L532.358 376.38C530.898 376.16 528.818 375.76 528.818 373.52C528.818 371.46 530.578 370.44 532.978 370.44C534.838 370.44 536.198 371.06 537.178 372.1L536.138 373.08C535.658 372.5 534.738 371.78 532.918 371.78C531.298 371.78 530.398 372.36 530.398 373.42C530.398 374.5 531.298 374.78 532.218 374.92L533.838 375.16C535.318 375.38 537.378 375.78 537.378 378.02C537.378 380.06 535.658 381.24 533.018 381.24Z" fill="#F4F4F4"/>
<rect x="1093" y="249" width="172" height="68" rx="8" fill="#4D5358"/>
<rect x="1093" y="249" width="172" height="68" rx="8" stroke="#BE95FF"/>
<path d="M1119 291.24C1115.6 291.24 1114.12 288.58 1114.12 284.02C1114.12 279.46 1115.6 276.8 1119 276.8C1122.4 276.8 1123.88 279.46 1123.88 284.02C1123.88 288.58 1122.4 291.24 1119 291.24ZM1119 289.78C1121.22 289.78 1122.1 287.96 1122.1 285.16V282.88C1122.1 280.08 1121.22 278.26 1119 278.26C1116.78 278.26 1115.9 280.08 1115.9 282.88V285.16C1115.9 287.96 1116.78 289.78 1119 289.78ZM1126.89 295V280.68H1128.49V282.36H1128.57C1129.23 281.1 1130.31 280.44 1131.75 280.44C1134.27 280.44 1135.79 282.46 1135.79 285.84C1135.79 289.22 1134.27 291.24 1131.75 291.24C1130.31 291.24 1129.23 290.58 1128.57 289.32H1128.49V295H1126.89ZM1131.13 289.82C1132.99 289.82 1134.07 288.58 1134.07 286.72V284.96C1134.07 283.1 1132.99 281.86 1131.13 281.86C1129.71 281.86 1128.49 282.6 1128.49 283.98V287.7C1128.49 289.08 1129.71 289.82 1131.13 289.82ZM1147.5 291H1143.48C1141.92 291 1141.2 290.02 1141.2 288.64V282.04H1137.76V280.68H1140.32C1141 280.68 1141.26 280.44 1141.26 279.74V277.04H1142.8V280.68H1147.5V282.04H1142.8V289.64H1147.5V291ZM1155.62 278.4C1154.7 278.4 1154.36 277.96 1154.36 277.38V277.06C1154.36 276.48 1154.7 276.04 1155.62 276.04C1156.54 276.04 1156.88 276.48 1156.88 277.06V277.38C1156.88 277.96 1156.54 278.4 1155.62 278.4ZM1151.1 291V289.64H1154.82V282.04H1151.1V280.68H1156.42V289.64H1159.9V291H1151.1ZM1163.53 291H1162.05V280.68H1163.53V281.88H1163.61C1163.93 281.08 1164.45 280.44 1165.59 280.44C1166.77 280.44 1167.35 281.1 1167.47 282.06H1167.53C1167.91 281.12 1168.55 280.44 1169.77 280.44C1171.45 280.44 1171.89 281.66 1171.89 283.84V291H1170.41V284.1C1170.41 282.34 1170.11 281.76 1169.15 281.76C1168.31 281.76 1167.71 282.32 1167.71 283.42V291H1166.23V284.1C1166.23 282.34 1165.93 281.76 1164.99 281.76C1164.13 281.76 1163.53 282.32 1163.53 283.42V291ZM1183.96 291H1182.86C1181.62 291 1181.14 290.28 1181.02 289.32H1180.92C1180.48 290.5 1179.5 291.24 1177.82 291.24C1175.66 291.24 1174.28 290.04 1174.28 288.1C1174.28 286.2 1175.62 285.1 1178.72 285.1H1180.92V284.08C1180.92 282.58 1180.02 281.8 1178.46 281.8C1177.08 281.8 1176.24 282.38 1175.7 283.32L1174.62 282.52C1175.14 281.44 1176.46 280.44 1178.56 280.44C1180.98 280.44 1182.52 281.74 1182.52 283.92V289.6H1183.96V291ZM1178.1 289.9C1179.74 289.9 1180.92 289.06 1180.92 288V286.3H1178.72C1176.82 286.3 1175.96 286.86 1175.96 287.86V288.28C1175.96 289.34 1176.78 289.9 1178.1 289.9ZM1186.55 291V289.64H1190.15V277.56H1186.55V276.2H1191.75V289.64H1195.35V291H1186.55ZM1216.08 291H1213.8L1209.66 277.04H1211.44L1213.42 284.02L1214.92 289.3H1215.02L1216.52 284.02L1218.5 277.04H1220.22L1216.08 291ZM1230.75 292.92V294.28H1228.41C1226.85 294.28 1226.13 293.3 1226.13 291.92V291.18C1223.29 290.8 1222.05 288.2 1222.05 284.02C1222.05 279.46 1223.53 276.8 1226.93 276.8C1230.33 276.8 1231.81 279.46 1231.81 284.02C1231.81 288.2 1230.55 290.8 1227.73 291.18V292.92H1230.75ZM1226.93 289.78C1229.15 289.78 1230.03 287.96 1230.03 285.16V282.88C1230.03 280.08 1229.15 278.26 1226.93 278.26C1224.71 278.26 1223.83 280.08 1223.83 282.88V285.16C1223.83 287.96 1224.71 289.78 1226.93 289.78ZM1239.38 291.24C1235.98 291.24 1234.32 288.66 1234.32 284.02C1234.32 279.38 1235.98 276.8 1239.38 276.8C1241.94 276.8 1243 278.34 1243.68 279.86L1242.24 280.52C1241.74 279.28 1241.08 278.26 1239.38 278.26C1237.16 278.26 1236.1 280.08 1236.1 282.88V285.16C1236.1 287.96 1237.16 289.78 1239.38 289.78C1241.08 289.78 1241.74 288.76 1242.24 287.52L1243.68 288.18C1243 289.7 1241.94 291.24 1239.38 291.24Z" fill="#F4F4F4"/>
<rect x="1499" y="235" width="256" height="96" rx="8" fill="#4D5358"/>
<rect x="1499" y="235" width="256" height="96" rx="8" stroke="#BE95FF"/>
<path d="M1525 276.24C1521.6 276.24 1520.12 273.58 1520.12 269.02C1520.12 264.46 1521.6 261.8 1525 261.8C1528.4 261.8 1529.88 264.46 1529.88 269.02C1529.88 273.58 1528.4 276.24 1525 276.24ZM1525 274.78C1527.22 274.78 1528.1 272.96 1528.1 270.16V267.88C1528.1 265.08 1527.22 263.26 1525 263.26C1522.78 263.26 1521.9 265.08 1521.9 267.88V270.16C1521.9 272.96 1522.78 274.78 1525 274.78ZM1532.59 262.04H1534.27V270.42C1534.27 273.12 1534.37 274.78 1536.99 274.78C1539.61 274.78 1539.71 273.12 1539.71 270.42V262.04H1541.39V270.02C1541.39 274.16 1540.79 276.24 1536.99 276.24C1533.19 276.24 1532.59 274.16 1532.59 270.02V262.04ZM1554.48 263.5H1549.82V276H1548.14V263.5H1543.48V262.04H1554.48V263.5ZM1558.46 276H1556.78V262.04H1561.86C1564.44 262.04 1565.84 263.54 1565.84 266.06C1565.84 268.58 1564.44 270.08 1561.86 270.08H1558.46V276ZM1558.46 263.5V268.62H1561.82C1563.22 268.62 1564.06 267.88 1564.06 266.58V265.54C1564.06 264.24 1563.22 263.5 1561.82 263.5H1558.46ZM1568.57 262.04H1570.25V270.42C1570.25 273.12 1570.35 274.78 1572.97 274.78C1575.59 274.78 1575.69 273.12 1575.69 270.42V262.04H1577.37V270.02C1577.37 274.16 1576.77 276.24 1572.97 276.24C1569.17 276.24 1568.57 274.16 1568.57 270.02V262.04ZM1590.46 263.5H1585.8V276H1584.12V263.5H1579.46V262.04H1590.46V263.5ZM1596.95 276.18C1595.87 276.18 1595.47 275.66 1595.47 274.98V274.62C1595.47 273.94 1595.87 273.42 1596.95 273.42C1598.03 273.42 1598.43 273.94 1598.43 274.62V274.98C1598.43 275.66 1598.03 276.18 1596.95 276.18ZM1596.95 268.26C1595.87 268.26 1595.47 267.74 1595.47 267.06V266.7C1595.47 266.02 1595.87 265.5 1596.95 265.5C1598.03 265.5 1598.43 266.02 1598.43 266.7V267.06C1598.43 267.74 1598.03 268.26 1596.95 268.26ZM1524.96 302.24C1522.46 302.24 1520.94 301.22 1519.9 299.78L1521.12 298.78C1522.2 300.14 1523.34 300.8 1525.02 300.8C1527.04 300.8 1528.14 299.82 1528.14 298.14C1528.14 296.78 1527.44 296.06 1525.54 295.74L1523.98 295.48C1521.24 295.02 1520.38 293.44 1520.38 291.68C1520.38 289.12 1522.2 287.8 1525.04 287.8C1527.26 287.8 1528.78 288.6 1529.72 289.94L1528.54 290.96C1527.76 289.94 1526.76 289.24 1525.02 289.24C1523.14 289.24 1522.08 290.06 1522.08 291.64C1522.08 292.88 1522.72 293.68 1524.7 294.02L1526.2 294.28C1528.94 294.76 1529.84 296.28 1529.84 298.1C1529.84 300.68 1528.06 302.24 1524.96 302.24ZM1536.99 302.24C1534.09 302.24 1532.31 300.12 1532.31 296.84C1532.31 293.56 1534.09 291.44 1536.99 291.44C1539.89 291.44 1541.67 293.56 1541.67 296.84C1541.67 300.12 1539.89 302.24 1536.99 302.24ZM1536.99 300.86C1538.77 300.86 1539.97 299.8 1539.97 297.58V296.1C1539.97 293.88 1538.77 292.82 1536.99 292.82C1535.21 292.82 1534.01 293.88 1534.01 296.1V297.58C1534.01 299.8 1535.21 300.86 1536.99 300.86ZM1544.58 302V300.64H1548.18V288.56H1544.58V287.2H1549.78V300.64H1553.38V302H1544.58ZM1563.42 302V300.32H1563.34C1562.9 301.34 1562.1 302.24 1560.4 302.24C1558.24 302.24 1556.82 300.8 1556.82 298.3V291.68H1558.42V298.02C1558.42 299.9 1559.28 300.82 1560.86 300.82C1562.14 300.82 1563.42 300.2 1563.42 298.84V291.68H1565.02V302H1563.42ZM1577.49 302H1573.47C1571.91 302 1571.19 301.02 1571.19 299.64V293.04H1567.75V291.68H1570.31C1570.99 291.68 1571.25 291.44 1571.25 290.74V288.04H1572.79V291.68H1577.49V293.04H1572.79V300.64H1577.49V302ZM1585.6 289.4C1584.68 289.4 1584.34 288.96 1584.34 288.38V288.06C1584.34 287.48 1584.68 287.04 1585.6 287.04C1586.52 287.04 1586.86 287.48 1586.86 288.06V288.38C1586.86 288.96 1586.52 289.4 1585.6 289.4ZM1581.08 302V300.64H1584.8V293.04H1581.08V291.68H1586.4V300.64H1589.88V302H1581.08ZM1596.95 302.24C1594.05 302.24 1592.27 300.12 1592.27 296.84C1592.27 293.56 1594.05 291.44 1596.95 291.44C1599.85 291.44 1601.63 293.56 1601.63 296.84C1601.63 300.12 1599.85 302.24 1596.95 302.24ZM1596.95 300.86C1598.73 300.86 1599.93 299.8 1599.93 297.58V296.1C1599.93 293.88 1598.73 292.82 1596.95 292.82C1595.17 292.82 1593.97 293.88 1593.97 296.1V297.58C1593.97 299.8 1595.17 300.86 1596.95 300.86ZM1606.51 302H1604.91V291.68H1606.51V293.36H1606.59C1607.03 292.34 1607.83 291.44 1609.53 291.44C1611.69 291.44 1613.11 292.88 1613.11 295.38V302H1611.51V295.66C1611.51 293.78 1610.65 292.86 1609.07 292.86C1607.79 292.86 1606.51 293.48 1606.51 294.84V302ZM1628.59 302V300.64H1632.07V293.04H1628.39V291.68H1632.07V289.56C1632.07 288.18 1632.79 287.2 1634.35 287.2H1637.81V288.56H1633.67V291.68H1637.81V293.04H1633.67V300.64H1637.35V302H1628.59ZM1647.36 302V300.32H1647.28C1646.84 301.34 1646.04 302.24 1644.34 302.24C1642.18 302.24 1640.76 300.8 1640.76 298.3V291.68H1642.36V298.02C1642.36 299.9 1643.22 300.82 1644.8 300.82C1646.08 300.82 1647.36 300.2 1647.36 298.84V291.68H1648.96V302H1647.36ZM1654.47 302H1652.87V291.68H1654.47V293.36H1654.55C1654.99 292.34 1655.79 291.44 1657.49 291.44C1659.65 291.44 1661.07 292.88 1661.07 295.38V302H1659.47V295.66C1659.47 293.78 1658.61 292.86 1657.03 292.86C1655.75 292.86 1654.47 293.48 1654.47 294.84V302ZM1669.27 302.24C1666.31 302.24 1664.59 300.1 1664.59 296.84C1664.59 293.56 1666.33 291.44 1669.25 291.44C1671.25 291.44 1672.49 292.42 1673.07 293.82L1671.79 294.5C1671.41 293.44 1670.53 292.82 1669.25 292.82C1667.37 292.82 1666.31 294.14 1666.31 295.96V297.72C1666.31 299.54 1667.35 300.86 1669.29 300.86C1670.67 300.86 1671.57 300.18 1672.09 299.06L1673.23 299.84C1672.63 301.22 1671.33 302.24 1669.27 302.24ZM1685.42 302H1681.4C1679.84 302 1679.12 301.02 1679.12 299.64V293.04H1675.68V291.68H1678.24C1678.92 291.68 1679.18 291.44 1679.18 290.74V288.04H1680.72V291.68H1685.42V293.04H1680.72V300.64H1685.42V302ZM1693.53 289.4C1692.61 289.4 1692.27 288.96 1692.27 288.38V288.06C1692.27 287.48 1692.61 287.04 1693.53 287.04C1694.45 287.04 1694.79 287.48 1694.79 288.06V288.38C1694.79 288.96 1694.45 289.4 1693.53 289.4ZM1689.01 302V300.64H1692.73V293.04H1689.01V291.68H1694.33V300.64H1697.81V302H1689.01ZM1704.88 302.24C1701.98 302.24 1700.2 300.12 1700.2 296.84C1700.2 293.56 1701.98 291.44 1704.88 291.44C1707.78 291.44 1709.56 293.56 1709.56 296.84C1709.56 300.12 1707.78 302.24 1704.88 302.24ZM1704.88 300.86C1706.66 300.86 1707.86 299.8 1707.86 297.58V296.1C1707.86 293.88 1706.66 292.82 1704.88 292.82C1703.1 292.82 1701.9 293.88 1701.9 296.1V297.58C1701.9 299.8 1703.1 300.86 1704.88 300.86ZM1714.44 302H1712.84V291.68H1714.44V293.36H1714.52C1714.96 292.34 1715.76 291.44 1717.46 291.44C1719.62 291.44 1721.04 292.88 1721.04 295.38V302H1719.44V295.66C1719.44 293.78 1718.58 292.86 1717 292.86C1715.72 292.86 1714.44 293.48 1714.44 294.84V302ZM1728.99 302.24C1726.83 302.24 1725.29 301.44 1724.21 300.22L1725.29 299.28C1726.27 300.32 1727.39 300.9 1729.03 300.9C1730.63 300.9 1731.77 300.34 1731.77 299.12C1731.77 298.04 1730.89 297.76 1729.95 297.62L1728.33 297.38C1726.87 297.16 1724.79 296.76 1724.79 294.52C1724.79 292.46 1726.55 291.44 1728.95 291.44C1730.81 291.44 1732.17 292.06 1733.15 293.1L1732.11 294.08C1731.63 293.5 1730.71 292.78 1728.89 292.78C1727.27 292.78 1726.37 293.36 1726.37 294.42C1726.37 295.5 1727.27 295.78 1728.19 295.92L1729.81 296.16C1731.29 296.38 1733.35 296.78 1733.35 299.02C1733.35 301.06 1731.63 302.24 1728.99 302.24Z" fill="#F4F4F4"/>
<rect x="715" y="147" width="268" height="108" rx="8" fill="#4D5358"/>
<rect x="715" y="147" width="268" height="108" rx="8" stroke="#BE95FF"/>
<path d="M745.4 187H736.8V173.04H745.4V174.5H738.48V179.2H745.16V180.66H738.48V185.54H745.4V187ZM750.052 187H748.212L752.052 181.76L748.312 176.68H750.232L751.792 178.86L753.032 180.58H753.112L754.312 178.86L755.852 176.68H757.692L753.912 181.74L757.792 187H755.872L754.132 184.58L752.952 182.94H752.872L751.732 184.58L750.052 187ZM765.164 187.24C762.204 187.24 760.324 185.12 760.324 181.86C760.324 178.56 762.264 176.44 765.064 176.44C767.844 176.44 769.644 178.56 769.644 181.48V182.24H762.004V182.72C762.004 184.54 763.224 185.86 765.164 185.86C766.544 185.86 767.584 185.18 768.124 184.06L769.304 184.86C768.684 186.24 767.204 187.24 765.164 187.24ZM765.064 177.76C763.304 177.76 762.004 179.1 762.004 180.9V181.04H767.924V180.82C767.924 179 766.764 177.76 765.064 177.76ZM777.337 187.24C774.377 187.24 772.657 185.1 772.657 181.84C772.657 178.56 774.397 176.44 777.317 176.44C779.317 176.44 780.557 177.42 781.137 178.82L779.857 179.5C779.477 178.44 778.597 177.82 777.317 177.82C775.437 177.82 774.377 179.14 774.377 180.96V182.72C774.377 184.54 775.417 185.86 777.357 185.86C778.737 185.86 779.637 185.18 780.157 184.06L781.297 184.84C780.697 186.22 779.397 187.24 777.337 187.24ZM791.409 187V185.32H791.329C790.889 186.34 790.089 187.24 788.389 187.24C786.229 187.24 784.809 185.8 784.809 183.3V176.68H786.409V183.02C786.409 184.9 787.269 185.82 788.849 185.82C790.129 185.82 791.409 185.2 791.409 183.84V176.68H793.009V187H791.409ZM805.481 187H801.461C799.901 187 799.181 186.02 799.181 184.64V178.04H795.741V176.68H798.301C798.981 176.68 799.241 176.44 799.241 175.74V173.04H800.781V176.68H805.481V178.04H800.781V185.64H805.481V187ZM813.593 174.4C812.673 174.4 812.333 173.96 812.333 173.38V173.06C812.333 172.48 812.673 172.04 813.593 172.04C814.513 172.04 814.853 172.48 814.853 173.06V173.38C814.853 173.96 814.513 174.4 813.593 174.4ZM809.073 187V185.64H812.793V178.04H809.073V176.68H814.393V185.64H817.873V187H809.073ZM824.945 187.24C822.045 187.24 820.265 185.12 820.265 181.84C820.265 178.56 822.045 176.44 824.945 176.44C827.845 176.44 829.625 178.56 829.625 181.84C829.625 185.12 827.845 187.24 824.945 187.24ZM824.945 185.86C826.725 185.86 827.925 184.8 827.925 182.58V181.1C827.925 178.88 826.725 177.82 824.945 177.82C823.165 177.82 821.965 178.88 821.965 181.1V182.58C821.965 184.8 823.165 185.86 824.945 185.86ZM834.498 187H832.898V176.68H834.498V178.36H834.578C835.018 177.34 835.818 176.44 837.518 176.44C839.678 176.44 841.098 177.88 841.098 180.38V187H839.498V180.66C839.498 178.78 838.638 177.86 837.058 177.86C835.778 177.86 834.498 178.48 834.498 179.84V187ZM860.922 187.24C858.022 187.24 856.242 185.12 856.242 181.84C856.242 178.56 858.022 176.44 860.922 176.44C863.822 176.44 865.602 178.56 865.602 181.84C865.602 185.12 863.822 187.24 860.922 187.24ZM860.922 185.86C862.702 185.86 863.902 184.8 863.902 182.58V181.1C863.902 178.88 862.702 177.82 860.922 177.82C859.142 177.82 857.942 178.88 857.942 181.1V182.58C857.942 184.8 859.142 185.86 860.922 185.86ZM870.474 187H868.874V176.68H870.474V178.36H870.554C870.994 177.34 871.794 176.44 873.494 176.44C875.654 176.44 877.074 177.88 877.074 180.38V187H875.474V180.66C875.474 178.78 874.614 177.86 873.034 177.86C871.754 177.86 870.474 178.48 870.474 179.84V187ZM743.5 215V209.32H743.42C742.76 210.58 741.68 211.24 740.24 211.24C737.72 211.24 736.2 209.22 736.2 205.84C736.2 202.46 737.72 200.44 740.24 200.44C741.68 200.44 742.76 201.1 743.42 202.36H743.5V200.68H745.1V215H743.5ZM740.86 209.82C742.28 209.82 743.5 209.08 743.5 207.7V203.98C743.5 202.6 742.28 201.86 740.86 201.86C739 201.86 737.92 203.1 737.92 204.96V206.72C737.92 208.58 739 209.82 740.86 209.82ZM755.432 211V209.32H755.352C754.912 210.34 754.112 211.24 752.412 211.24C750.252 211.24 748.832 209.8 748.832 207.3V200.68H750.432V207.02C750.432 208.9 751.292 209.82 752.872 209.82C754.152 209.82 755.432 209.2 755.432 207.84V200.68H757.032V211H755.432ZM769.984 211H768.884C767.644 211 767.164 210.28 767.044 209.32H766.944C766.504 210.5 765.524 211.24 763.844 211.24C761.684 211.24 760.304 210.04 760.304 208.1C760.304 206.2 761.644 205.1 764.744 205.1H766.944V204.08C766.944 202.58 766.044 201.8 764.484 201.8C763.104 201.8 762.264 202.38 761.724 203.32L760.644 202.52C761.164 201.44 762.484 200.44 764.584 200.44C767.004 200.44 768.544 201.74 768.544 203.92V209.6H769.984V211ZM764.124 209.9C765.764 209.9 766.944 209.06 766.944 208V206.3H764.744C762.844 206.3 761.984 206.86 761.984 207.86V208.28C761.984 209.34 762.804 209.9 764.124 209.9ZM774.537 211H772.937V200.68H774.537V202.36H774.617C775.057 201.34 775.857 200.44 777.557 200.44C779.717 200.44 781.137 201.88 781.137 204.38V211H779.537V204.66C779.537 202.78 778.677 201.86 777.097 201.86C775.817 201.86 774.537 202.48 774.537 203.84V211ZM793.489 211H789.469C787.909 211 787.189 210.02 787.189 208.64V202.04H783.749V200.68H786.309C786.989 200.68 787.249 200.44 787.249 199.74V197.04H788.789V200.68H793.489V202.04H788.789V209.64H793.489V211ZM803.401 211V209.32H803.321C802.881 210.34 802.081 211.24 800.381 211.24C798.221 211.24 796.801 209.8 796.801 207.3V200.68H798.401V207.02C798.401 208.9 799.261 209.82 800.841 209.82C802.121 209.82 803.401 209.2 803.401 207.84V200.68H805.001V211H803.401ZM809.513 211H808.033V200.68H809.513V201.88H809.593C809.913 201.08 810.433 200.44 811.573 200.44C812.753 200.44 813.333 201.1 813.453 202.06H813.513C813.893 201.12 814.533 200.44 815.753 200.44C817.433 200.44 817.873 201.66 817.873 203.84V211H816.393V204.1C816.393 202.34 816.093 201.76 815.133 201.76C814.293 201.76 813.693 202.32 813.693 203.42V211H812.213V204.1C812.213 202.34 811.913 201.76 810.973 201.76C810.113 201.76 809.513 202.32 809.513 203.42V211ZM832.898 211V196.2H834.498V202.36H834.578C835.018 201.34 835.818 200.44 837.518 200.44C839.678 200.44 841.098 201.88 841.098 204.38V211H839.498V204.66C839.498 202.78 838.638 201.86 837.058 201.86C835.778 201.86 834.498 202.48 834.498 203.84V211H832.898ZM853.93 211H852.83C851.59 211 851.11 210.28 850.99 209.32H850.89C850.45 210.5 849.47 211.24 847.79 211.24C845.63 211.24 844.25 210.04 844.25 208.1C844.25 206.2 845.59 205.1 848.69 205.1H850.89V204.08C850.89 202.58 849.99 201.8 848.43 201.8C847.05 201.8 846.21 202.38 845.67 203.32L844.59 202.52C845.11 201.44 846.43 200.44 848.53 200.44C850.95 200.44 852.49 201.74 852.49 203.92V209.6H853.93V211ZM848.07 209.9C849.71 209.9 850.89 209.06 850.89 208V206.3H848.69C846.79 206.3 845.93 206.86 845.93 207.86V208.28C845.93 209.34 846.75 209.9 848.07 209.9ZM856.462 211V209.64H859.482V202.04H856.462V200.68H861.082V203.28H861.182C861.582 201.92 862.502 200.68 864.662 200.68H866.102V202.28H864.162C862.142 202.28 861.082 203.58 861.082 205.18V209.64H864.302V211H856.462ZM875.414 211V209.32H875.334C874.674 210.58 873.594 211.24 872.154 211.24C869.634 211.24 868.114 209.22 868.114 205.84C868.114 202.46 869.634 200.44 872.154 200.44C873.594 200.44 874.674 201.1 875.334 202.36H875.414V196.2H877.014V211H875.414ZM872.774 209.82C874.194 209.82 875.414 209.08 875.414 207.7V203.98C875.414 202.6 874.194 201.86 872.774 201.86C870.914 201.86 869.834 203.1 869.834 204.96V206.72C869.834 208.58 870.914 209.82 872.774 209.82ZM881.086 211L879.506 200.68H880.926L882.106 209.6H882.286L884.046 200.68H885.806L887.566 209.6H887.746L888.926 200.68H890.306L888.726 211H886.646L885.006 202.36H884.846L883.166 211H881.086ZM901.898 211H900.798C899.558 211 899.078 210.28 898.958 209.32H898.858C898.418 210.5 897.438 211.24 895.758 211.24C893.598 211.24 892.218 210.04 892.218 208.1C892.218 206.2 893.558 205.1 896.658 205.1H898.858V204.08C898.858 202.58 897.958 201.8 896.398 201.8C895.018 201.8 894.178 202.38 893.638 203.32L892.558 202.52C893.078 201.44 894.398 200.44 896.498 200.44C898.918 200.44 900.458 201.74 900.458 203.92V209.6H901.898V211ZM896.038 209.9C897.678 209.9 898.858 209.06 898.858 208V206.3H896.658C894.758 206.3 893.898 206.86 893.898 207.86V208.28C893.898 209.34 894.718 209.9 896.038 209.9ZM904.431 211V209.64H907.451V202.04H904.431V200.68H909.051V203.28H909.151C909.551 201.92 910.471 200.68 912.631 200.68H914.071V202.28H912.131C910.111 202.28 909.051 203.58 909.051 205.18V209.64H912.271V211H904.431ZM921.063 211.24C918.103 211.24 916.223 209.12 916.223 205.86C916.223 202.56 918.163 200.44 920.963 200.44C923.743 200.44 925.543 202.56 925.543 205.48V206.24H917.903V206.72C917.903 208.54 919.123 209.86 921.063 209.86C922.443 209.86 923.483 209.18 924.023 208.06L925.203 208.86C924.583 210.24 923.103 211.24 921.063 211.24ZM920.963 201.76C919.203 201.76 917.903 203.1 917.903 204.9V205.04H923.823V204.82C923.823 203 922.663 201.76 920.963 201.76Z" fill="white"/>
<path d="M737.088 232H736.08V223.624H741.36V224.5H737.088V227.32H741V228.196H737.088V232ZM747.579 232V230.992H747.531C747.267 231.604 746.787 232.144 745.767 232.144C744.471 232.144 743.619 231.28 743.619 229.78V225.808H744.579V229.612C744.579 230.74 745.095 231.292 746.043 231.292C746.811 231.292 747.579 230.92 747.579 230.104V225.808H748.539V232H747.579ZM752.167 232H751.207V225.808H752.167V226.816H752.215C752.479 226.204 752.959 225.664 753.979 225.664C755.275 225.664 756.127 226.528 756.127 228.028V232H755.167V228.196C755.167 227.068 754.651 226.516 753.703 226.516C752.935 226.516 752.167 226.888 752.167 227.704V232ZM761.362 232.144C759.586 232.144 758.554 230.86 758.554 228.904C758.554 226.936 759.598 225.664 761.35 225.664C762.55 225.664 763.294 226.252 763.642 227.092L762.874 227.5C762.646 226.864 762.118 226.492 761.35 226.492C760.222 226.492 759.586 227.284 759.586 228.376V229.432C759.586 230.524 760.21 231.316 761.374 231.316C762.202 231.316 762.742 230.908 763.054 230.236L763.738 230.704C763.378 231.532 762.598 232.144 761.362 232.144ZM771.373 232H768.961C768.025 232 767.593 231.412 767.593 230.584V226.624H765.529V225.808H767.065C767.473 225.808 767.629 225.664 767.629 225.244V223.624H768.553V225.808H771.373V226.624H768.553V231.184H771.373V232ZM776.561 224.44C776.009 224.44 775.805 224.176 775.805 223.828V223.636C775.805 223.288 776.009 223.024 776.561 223.024C777.113 223.024 777.317 223.288 777.317 223.636V223.828C777.317 224.176 777.113 224.44 776.561 224.44ZM773.849 232V231.184H776.081V226.624H773.849V225.808H777.041V231.184H779.129V232H773.849ZM783.692 232.144C781.952 232.144 780.884 230.872 780.884 228.904C780.884 226.936 781.952 225.664 783.692 225.664C785.432 225.664 786.5 226.936 786.5 228.904C786.5 230.872 785.432 232.144 783.692 232.144ZM783.692 231.316C784.76 231.316 785.48 230.68 785.48 229.348V228.46C785.48 227.128 784.76 226.492 783.692 226.492C782.624 226.492 781.904 227.128 781.904 228.46V229.348C781.904 230.68 782.624 231.316 783.692 231.316ZM789.743 232H788.783V225.808H789.743V226.816H789.791C790.055 226.204 790.535 225.664 791.555 225.664C792.851 225.664 793.703 226.528 793.703 228.028V232H792.743V228.196C792.743 227.068 792.227 226.516 791.279 226.516C790.511 226.516 789.743 226.888 789.743 227.704V232ZM806.346 232.144C804.57 232.144 803.442 230.872 803.442 228.916C803.442 226.936 804.606 225.664 806.286 225.664C807.954 225.664 809.034 226.936 809.034 228.688V229.144H804.45V229.432C804.45 230.524 805.182 231.316 806.346 231.316C807.174 231.316 807.798 230.908 808.122 230.236L808.83 230.716C808.458 231.544 807.57 232.144 806.346 232.144ZM806.286 226.456C805.23 226.456 804.45 227.26 804.45 228.34V228.424H808.002V228.292C808.002 227.2 807.306 226.456 806.286 226.456ZM814.365 232H813.141L810.921 225.808H811.893L812.781 228.4L813.741 231.196H813.789L814.749 228.4L815.637 225.808H816.585L814.365 232ZM824.268 232H823.608C822.864 232 822.576 231.568 822.504 230.992H822.444C822.18 231.7 821.592 232.144 820.584 232.144C819.288 232.144 818.46 231.424 818.46 230.26C818.46 229.12 819.264 228.46 821.124 228.46H822.444V227.848C822.444 226.948 821.904 226.48 820.968 226.48C820.14 226.48 819.636 226.828 819.312 227.392L818.664 226.912C818.976 226.264 819.768 225.664 821.028 225.664C822.48 225.664 823.404 226.444 823.404 227.752V231.16H824.268V232ZM820.752 231.34C821.736 231.34 822.444 230.836 822.444 230.2V229.18H821.124C819.984 229.18 819.468 229.516 819.468 230.116V230.368C819.468 231.004 819.96 231.34 820.752 231.34ZM826.144 232V231.184H828.304V223.936H826.144V223.12H829.264V231.184H831.424V232H826.144ZM837.763 232V230.992H837.715C837.451 231.604 836.971 232.144 835.951 232.144C834.655 232.144 833.803 231.28 833.803 229.78V225.808H834.763V229.612C834.763 230.74 835.279 231.292 836.227 231.292C836.995 231.292 837.763 230.92 837.763 230.104V225.808H838.723V232H837.763ZM846.814 232H846.154C845.41 232 845.122 231.568 845.05 230.992H844.99C844.726 231.7 844.138 232.144 843.13 232.144C841.834 232.144 841.006 231.424 841.006 230.26C841.006 229.12 841.81 228.46 843.67 228.46H844.99V227.848C844.99 226.948 844.45 226.48 843.514 226.48C842.686 226.48 842.182 226.828 841.858 227.392L841.21 226.912C841.522 226.264 842.314 225.664 843.574 225.664C845.026 225.664 845.95 226.444 845.95 227.752V231.16H846.814V232ZM843.298 231.34C844.282 231.34 844.99 230.836 844.99 230.2V229.18H843.67C842.53 229.18 842.014 229.516 842.014 230.116V230.368C842.014 231.004 842.506 231.34 843.298 231.34ZM854.042 232H851.63C850.694 232 850.262 231.412 850.262 230.584V226.624H848.198V225.808H849.734C850.142 225.808 850.298 225.664 850.298 225.244V223.624H851.222V225.808H854.042V226.624H851.222V231.184H854.042V232ZM859.229 224.44C858.677 224.44 858.473 224.176 858.473 223.828V223.636C858.473 223.288 858.677 223.024 859.229 223.024C859.781 223.024 859.985 223.288 859.985 223.636V223.828C859.985 224.176 859.781 224.44 859.229 224.44ZM856.517 232V231.184H858.749V226.624H856.517V225.808H859.709V231.184H861.797V232H856.517ZM866.36 232.144C864.62 232.144 863.552 230.872 863.552 228.904C863.552 226.936 864.62 225.664 866.36 225.664C868.1 225.664 869.168 226.936 869.168 228.904C869.168 230.872 868.1 232.144 866.36 232.144ZM866.36 231.316C867.428 231.316 868.148 230.68 868.148 229.348V228.46C868.148 227.128 867.428 226.492 866.36 226.492C865.292 226.492 864.572 227.128 864.572 228.46V229.348C864.572 230.68 865.292 231.316 866.36 231.316ZM872.412 232H871.452V225.808H872.412V226.816H872.46C872.724 226.204 873.204 225.664 874.224 225.664C875.52 225.664 876.372 226.528 876.372 228.028V232H875.412V228.196C875.412 227.068 874.896 226.516 873.948 226.516C873.18 226.516 872.412 226.888 872.412 227.704V232Z" fill="white"/>
<rect x="715" y="339" width="268" height="96" rx="8" fill="#4D5358"/>
<rect x="715" y="339" width="268" height="96" rx="8" stroke="#BE95FF"/>
<path d="M745.4 380H736.8V366.04H745.4V367.5H738.48V372.2H745.16V373.66H738.48V378.54H745.4V380ZM754.012 380H751.972L748.272 369.68H749.892L751.372 374L752.972 378.66H753.052L754.652 374L756.132 369.68H757.712L754.012 380ZM769.984 380H768.884C767.644 380 767.164 379.28 767.044 378.32H766.944C766.504 379.5 765.524 380.24 763.844 380.24C761.684 380.24 760.304 379.04 760.304 377.1C760.304 375.2 761.644 374.1 764.744 374.1H766.944V373.08C766.944 371.58 766.044 370.8 764.484 370.8C763.104 370.8 762.264 371.38 761.724 372.32L760.644 371.52C761.164 370.44 762.484 369.44 764.584 369.44C767.004 369.44 768.544 370.74 768.544 372.92V378.6H769.984V380ZM764.124 378.9C765.764 378.9 766.944 378.06 766.944 377V375.3H764.744C762.844 375.3 761.984 375.86 761.984 376.86V377.28C761.984 378.34 762.804 378.9 764.124 378.9ZM772.577 380V378.64H776.177V366.56H772.577V365.2H777.777V378.64H781.377V380H772.577ZM791.409 380V378.32H791.329C790.889 379.34 790.089 380.24 788.389 380.24C786.229 380.24 784.809 378.8 784.809 376.3V369.68H786.409V376.02C786.409 377.9 787.269 378.82 788.849 378.82C790.129 378.82 791.409 378.2 791.409 376.84V369.68H793.009V380H791.409ZM805.961 380H804.861C803.621 380 803.141 379.28 803.021 378.32H802.921C802.481 379.5 801.501 380.24 799.821 380.24C797.661 380.24 796.281 379.04 796.281 377.1C796.281 375.2 797.621 374.1 800.721 374.1H802.921V373.08C802.921 371.58 802.021 370.8 800.461 370.8C799.081 370.8 798.241 371.38 797.701 372.32L796.621 371.52C797.141 370.44 798.461 369.44 800.561 369.44C802.981 369.44 804.521 370.74 804.521 372.92V378.6H805.961V380ZM800.101 378.9C801.741 378.9 802.921 378.06 802.921 377V375.3H800.721C798.821 375.3 797.961 375.86 797.961 376.86V377.28C797.961 378.34 798.781 378.9 800.101 378.9ZM817.473 380H813.453C811.893 380 811.173 379.02 811.173 377.64V371.04H807.733V369.68H810.293C810.973 369.68 811.233 369.44 811.233 368.74V366.04H812.773V369.68H817.473V371.04H812.773V378.64H817.473V380ZM825.125 380.24C822.165 380.24 820.285 378.12 820.285 374.86C820.285 371.56 822.225 369.44 825.025 369.44C827.805 369.44 829.605 371.56 829.605 374.48V375.24H821.965V375.72C821.965 377.54 823.185 378.86 825.125 378.86C826.505 378.86 827.545 378.18 828.085 377.06L829.265 377.86C828.645 379.24 827.165 380.24 825.125 380.24ZM825.025 370.76C823.265 370.76 821.965 372.1 821.965 373.9V374.04H827.885V373.82C827.885 372 826.725 370.76 825.025 370.76ZM846.41 380H844.73V366.04H849.81C852.39 366.04 853.79 367.54 853.79 370.06C853.79 372.58 852.39 374.08 849.81 374.08H846.41V380ZM846.41 367.5V372.62H849.77C851.17 372.62 852.01 371.88 852.01 370.58V369.54C852.01 368.24 851.17 367.5 849.77 367.5H846.41ZM856.822 380V366.04H860.722C864.122 366.04 865.802 368.44 865.802 373.02C865.802 377.6 864.122 380 860.722 380H856.822ZM858.502 378.54H860.642C862.862 378.54 864.022 376.9 864.022 374.1V371.94C864.022 369.14 862.862 367.5 860.642 367.5H858.502V378.54ZM877.314 380H868.714V366.04H877.314V367.5H870.394V372.2H877.074V373.66H870.394V378.54H877.314V380ZM885.026 380.24C882.866 380.24 881.326 379.44 880.246 378.22L881.326 377.28C882.306 378.32 883.426 378.9 885.066 378.9C886.666 378.9 887.806 378.34 887.806 377.12C887.806 376.04 886.926 375.76 885.986 375.62L884.366 375.38C882.906 375.16 880.826 374.76 880.826 372.52C880.826 370.46 882.586 369.44 884.986 369.44C886.846 369.44 888.206 370.06 889.186 371.1L888.146 372.08C887.666 371.5 886.746 370.78 884.926 370.78C883.306 370.78 882.406 371.36 882.406 372.42C882.406 373.5 883.306 373.78 884.226 373.92L885.846 374.16C887.326 374.38 889.386 374.78 889.386 377.02C889.386 379.06 887.666 380.24 885.026 380.24ZM746 406H744.9C743.66 406 743.18 405.28 743.06 404.32H742.96C742.52 405.5 741.54 406.24 739.86 406.24C737.7 406.24 736.32 405.04 736.32 403.1C736.32 401.2 737.66 400.1 740.76 400.1H742.96V399.08C742.96 397.58 742.06 396.8 740.5 396.8C739.12 396.8 738.28 397.38 737.74 398.32L736.66 397.52C737.18 396.44 738.5 395.44 740.6 395.44C743.02 395.44 744.56 396.74 744.56 398.92V404.6H746V406ZM740.14 404.9C741.78 404.9 742.96 404.06 742.96 403V401.3H740.76C738.86 401.3 738 401.86 738 402.86V403.28C738 404.34 738.82 404.9 740.14 404.9ZM750.552 406H748.952V395.68H750.552V397.36H750.632C751.072 396.34 751.872 395.44 753.572 395.44C755.732 395.44 757.152 396.88 757.152 399.38V406H755.552V399.66C755.552 397.78 754.692 396.86 753.112 396.86C751.832 396.86 750.552 397.48 750.552 398.84V406ZM767.484 406V404.32H767.404C766.744 405.58 765.664 406.24 764.224 406.24C761.704 406.24 760.184 404.22 760.184 400.84C760.184 397.46 761.704 395.44 764.224 395.44C765.664 395.44 766.744 396.1 767.404 397.36H767.484V391.2H769.084V406H767.484ZM764.844 404.82C766.264 404.82 767.484 404.08 767.484 402.7V398.98C767.484 397.6 766.264 396.86 764.844 396.86C762.984 396.86 761.904 398.1 761.904 399.96V401.72C761.904 403.58 762.984 404.82 764.844 404.82ZM784.729 406V392.04H789.469C791.849 392.04 793.309 393.46 793.309 395.64C793.309 397.3 792.409 398.24 791.129 398.64V398.7C792.689 399.06 793.829 400.04 793.829 401.98C793.829 404.24 792.229 406 790.069 406H784.729ZM786.409 404.54H789.569C791.109 404.54 792.049 403.84 792.049 402.42V401.6C792.049 400.2 791.109 399.48 789.569 399.48H786.409V404.54ZM786.409 398.1H789.289C790.689 398.1 791.549 397.48 791.549 396.2V395.42C791.549 394.14 790.689 393.5 789.289 393.5H786.409V398.1ZM801.421 406.24C798.021 406.24 796.361 403.66 796.361 399.02C796.361 394.38 798.021 391.8 801.421 391.8C803.981 391.8 805.041 393.34 805.721 394.86L804.281 395.52C803.781 394.28 803.121 393.26 801.421 393.26C799.201 393.26 798.141 395.08 798.141 397.88V400.16C798.141 402.96 799.201 404.78 801.421 404.78C803.121 404.78 803.781 403.76 804.281 402.52L805.721 403.18C805.041 404.7 803.981 406.24 801.421 406.24ZM813.073 406.24C810.913 406.24 809.373 405.44 808.293 404.22L809.373 403.28C810.353 404.32 811.473 404.9 813.113 404.9C814.713 404.9 815.853 404.34 815.853 403.12C815.853 402.04 814.973 401.76 814.033 401.62L812.413 401.38C810.953 401.16 808.873 400.76 808.873 398.52C808.873 396.46 810.633 395.44 813.033 395.44C814.893 395.44 816.253 396.06 817.233 397.1L816.193 398.08C815.713 397.5 814.793 396.78 812.973 396.78C811.353 396.78 810.453 397.36 810.453 398.42C810.453 399.5 811.353 399.78 812.273 399.92L813.893 400.16C815.373 400.38 817.433 400.78 817.433 403.02C817.433 405.06 815.713 406.24 813.073 406.24Z" fill="#F4F4F4"/>
<path d="M311 283L306 280.113V285.887L311 283ZM247 283V283.5H306.5V283V282.5H247V283Z" fill="#F4F4F4"/>
<path d="M1085 283L1080 280.113V285.887L1085 283ZM1021 283V283.5H1080.5V283V282.5H1021V283Z" fill="#F4F4F4"/>
<path d="M1491 283L1486 280.113V285.887L1491 283ZM1273 283V283.5H1486.5V283V282.5H1273V283Z" fill="#F4F4F4"/>
<path d="M321 115.5H1009C1010.93 115.5 1012.5 117.067 1012.5 119V463C1012.5 464.933 1010.93 466.5 1009 466.5H321C319.067 466.5 317.5 464.933 317.5 463V119C317.5 117.067 319.067 115.5 321 115.5Z" stroke="#697077"/>
<path d="M707 192L702 189.113L702 194.887L707 192ZM627 192L627 192.5L702.5 192.5L702.5 192L702.5 191.5L627 191.5L627 192Z" fill="#F4F4F4"/>
<path d="M627 387L632 389.887L632 384.113L627 387ZM631.5 387L631.5 387.5L707 387.5L707 387L707 386.5L631.5 386.5L631.5 387Z" fill="#F4F4F4"/>
<path d="M848 331L850.887 326L845.113 326L848 331ZM848 263L847.5 263L847.5 326.5L848 326.5L848.5 326.5L848.5 263L848 263Z" fill="#F4F4F4"/>
<path d="M485 263L482.113 268L487.887 268L485 263ZM485 267.5L484.5 267.5L484.5 331L485 331L485.5 331L485.5 267.5L485 267.5Z" fill="#F4F4F4"/>
<rect x="612" y="99" width="106" height="32" fill="#21272A"/>
<path d="M628.24 121V116.136H623.184V121H621.376V109.832H623.184V114.536H628.24V109.832H630.048V121H628.24ZM636.27 117.576L637.934 112.68H639.614L636.11 122.648C635.71 123.768 635.214 124.2 633.918 124.2H632.91V122.776H634.318L634.798 121.368L631.774 112.68H633.518L635.182 117.576L635.662 119.384H635.742L636.27 117.576ZM641.209 121V109.16H642.953V114.056H643.033C643.385 113.064 644.265 112.488 645.369 112.488C647.465 112.488 648.681 114.104 648.681 116.84C648.681 119.576 647.465 121.192 645.369 121.192C644.265 121.192 643.385 120.6 643.033 119.624H642.953V121H641.209ZM644.841 119.688C646.041 119.688 646.841 118.84 646.841 117.56V116.12C646.841 114.84 646.041 113.992 644.841 113.992C643.785 113.992 642.953 114.568 642.953 115.416V118.264C642.953 119.112 643.785 119.688 644.841 119.688ZM652.581 121H650.837V112.68H652.581V114.28H652.661C652.901 113.432 653.621 112.68 654.949 112.68H655.413V114.36H654.725C653.349 114.36 652.581 114.824 652.581 115.688V121ZM658.002 111.192C657.282 111.192 656.962 110.808 656.962 110.28V110.008C656.962 109.48 657.282 109.096 658.002 109.096C658.722 109.096 659.026 109.48 659.026 110.008V110.28C659.026 110.808 658.722 111.192 658.002 111.192ZM657.122 121V112.68H658.866V121H657.122ZM666.749 121V119.624H666.669C666.317 120.6 665.437 121.192 664.333 121.192C662.237 121.192 661.021 119.576 661.021 116.84C661.021 114.104 662.237 112.488 664.333 112.488C665.437 112.488 666.317 113.064 666.669 114.056H666.749V109.16H668.493V121H666.749ZM664.861 119.688C665.917 119.688 666.749 119.112 666.749 118.264V115.416C666.749 114.568 665.917 113.992 664.861 113.992C663.661 113.992 662.861 114.84 662.861 116.12V117.56C662.861 118.84 663.661 119.688 664.861 119.688ZM681.567 121H675.215V109.832H677.023V119.4H681.567V121ZM686.558 121.192C684.238 121.192 682.734 119.496 682.734 116.84C682.734 114.184 684.238 112.488 686.558 112.488C688.878 112.488 690.382 114.184 690.382 116.84C690.382 119.496 688.878 121.192 686.558 121.192ZM686.558 119.752C687.742 119.752 688.542 119.016 688.542 117.544V116.136C688.542 114.664 687.742 113.928 686.558 113.928C685.374 113.928 684.574 114.664 684.574 116.136V117.544C684.574 119.016 685.374 119.752 686.558 119.752ZM695.749 121.192C693.429 121.192 691.925 119.496 691.925 116.84C691.925 114.184 693.429 112.488 695.749 112.488C698.069 112.488 699.573 114.184 699.573 116.84C699.573 119.496 698.069 121.192 695.749 121.192ZM695.749 119.752C696.933 119.752 697.733 119.016 697.733 117.544V116.136C697.733 114.664 696.933 113.928 695.749 113.928C694.565 113.928 693.765 114.664 693.765 116.136V117.544C693.765 119.016 694.565 119.752 695.749 119.752ZM701.676 124.2V112.68H703.42V114.056H703.5C703.852 113.064 704.732 112.488 705.836 112.488C707.932 112.488 709.148 114.104 709.148 116.84C709.148 119.576 707.932 121.192 705.836 121.192C704.732 121.192 703.852 120.6 703.5 119.624H703.42V124.2H701.676ZM705.308 119.688C706.508 119.688 707.308 118.84 707.308 117.56V116.12C707.308 114.84 706.508 113.992 705.308 113.992C704.252 113.992 703.42 114.568 703.42 115.416V118.264C703.42 119.112 704.252 119.688 705.308 119.688Z" fill="#F2F4F8"/>
<rect x="400" y="281" width="170" height="32" fill="#21272A"/>
<path d="M413.696 303.192C410.784 303.192 408.88 301.176 408.88 297.416C408.88 293.656 410.784 291.64 413.696 291.64C416.608 291.64 418.512 293.656 418.512 297.416C418.512 301.176 416.608 303.192 413.696 303.192ZM413.696 301.576C415.424 301.576 416.576 300.328 416.576 298.296V296.536C416.576 294.504 415.424 293.256 413.696 293.256C411.968 293.256 410.816 294.504 410.816 296.536V298.296C410.816 300.328 411.968 301.576 413.696 301.576ZM420.799 306.2V294.68H422.543V296.056H422.623C422.975 295.064 423.855 294.488 424.959 294.488C427.055 294.488 428.271 296.104 428.271 298.84C428.271 301.576 427.055 303.192 424.959 303.192C423.855 303.192 422.975 302.6 422.623 301.624H422.543V306.2H420.799ZM424.431 301.688C425.631 301.688 426.431 300.84 426.431 299.56V298.12C426.431 296.84 425.631 295.992 424.431 295.992C423.375 295.992 422.543 296.568 422.543 297.416V300.264C422.543 301.112 423.375 301.688 424.431 301.688ZM434.158 303H432.638C431.438 303 430.798 302.328 430.798 301.192V296.104H429.502V294.68H430.206C430.782 294.68 430.974 294.44 430.974 293.864V292.408H432.542V294.68H434.286V296.104H432.542V301.576H434.158V303ZM437.217 293.192C436.497 293.192 436.177 292.808 436.177 292.28V292.008C436.177 291.48 436.497 291.096 437.217 291.096C437.937 291.096 438.241 291.48 438.241 292.008V292.28C438.241 292.808 437.937 293.192 437.217 293.192ZM436.337 303V294.68H438.081V303H436.337ZM442.476 303H440.732V294.68H442.476V296.056H442.556C442.892 295.192 443.516 294.488 444.78 294.488C445.9 294.488 446.844 295.032 447.244 296.184H447.292C447.596 295.256 448.46 294.488 449.804 294.488C451.452 294.488 452.428 295.672 452.428 297.72V303H450.684V297.928C450.684 296.648 450.204 295.992 449.148 295.992C448.268 295.992 447.452 296.456 447.452 297.416V303H445.708V297.928C445.708 296.632 445.212 295.992 444.188 295.992C443.324 295.992 442.476 296.456 442.476 297.416V303ZM455.881 293.192C455.161 293.192 454.841 292.808 454.841 292.28V292.008C454.841 291.48 455.161 291.096 455.881 291.096C456.601 291.096 456.905 291.48 456.905 292.008V292.28C456.905 292.808 456.601 293.192 455.881 293.192ZM455.001 303V294.68H456.745V303H455.001ZM465.363 303H458.723V301.592L463.187 296.104H458.867V294.68H465.251V296.024L460.723 301.576H465.363V303ZM470.444 303.192C468.076 303.192 466.62 301.496 466.62 298.84C466.62 296.184 468.076 294.488 470.444 294.488C472.892 294.488 474.14 296.328 474.14 298.632V299.288H468.428V299.56C468.428 300.84 469.212 301.752 470.62 301.752C471.644 301.752 472.332 301.272 472.812 300.504L473.836 301.512C473.212 302.52 471.996 303.192 470.444 303.192ZM470.444 295.848C469.244 295.848 468.428 296.744 468.428 298.024V298.136H472.3V297.976C472.3 296.696 471.596 295.848 470.444 295.848ZM480.172 306.2V294.68H481.916V296.056H481.996C482.348 295.064 483.228 294.488 484.332 294.488C486.428 294.488 487.644 296.104 487.644 298.84C487.644 301.576 486.428 303.192 484.332 303.192C483.228 303.192 482.348 302.6 481.996 301.624H481.916V306.2H480.172ZM483.804 301.688C485.004 301.688 485.804 300.84 485.804 299.56V298.12C485.804 296.84 485.004 295.992 483.804 295.992C482.748 295.992 481.916 296.568 481.916 297.416V300.264C481.916 301.112 482.748 301.688 483.804 301.688ZM496.873 303H495.897C494.985 303 494.505 302.424 494.393 301.608H494.313C493.993 302.648 493.097 303.192 491.881 303.192C490.169 303.192 489.193 302.216 489.193 300.712C489.193 299.064 490.425 298.216 492.745 298.216H494.249V297.512C494.249 296.504 493.705 295.912 492.537 295.912C491.561 295.912 490.969 296.392 490.553 297.048L489.513 296.104C490.057 295.176 491.033 294.488 492.649 294.488C494.793 294.488 495.993 295.544 495.993 297.4V301.576H496.873V303ZM492.377 301.864C493.449 301.864 494.249 301.352 494.249 300.536V299.336H492.777C491.561 299.336 490.969 299.736 490.969 300.456V300.744C490.969 301.48 491.513 301.864 492.377 301.864ZM500.486 303H498.742V294.68H500.486V296.28H500.566C500.806 295.432 501.526 294.68 502.854 294.68H503.318V296.36H502.63C501.254 296.36 500.486 296.824 500.486 297.688V303ZM511.974 303H510.998C510.086 303 509.606 302.424 509.494 301.608H509.414C509.094 302.648 508.198 303.192 506.982 303.192C505.27 303.192 504.294 302.216 504.294 300.712C504.294 299.064 505.526 298.216 507.846 298.216H509.35V297.512C509.35 296.504 508.806 295.912 507.638 295.912C506.662 295.912 506.07 296.392 505.654 297.048L504.614 296.104C505.158 295.176 506.134 294.488 507.75 294.488C509.894 294.488 511.094 295.544 511.094 297.4V301.576H511.974V303ZM507.478 301.864C508.55 301.864 509.35 301.352 509.35 300.536V299.336H507.878C506.662 299.336 506.07 299.736 506.07 300.456V300.744C506.07 301.48 506.614 301.864 507.478 301.864ZM515.588 303H513.844V294.68H515.588V296.056H515.668C516.004 295.192 516.628 294.488 517.892 294.488C519.012 294.488 519.956 295.032 520.356 296.184H520.404C520.708 295.256 521.572 294.488 522.916 294.488C524.564 294.488 525.54 295.672 525.54 297.72V303H523.796V297.928C523.796 296.648 523.316 295.992 522.26 295.992C521.38 295.992 520.564 296.456 520.564 297.416V303H518.82V297.928C518.82 296.632 518.324 295.992 517.3 295.992C516.436 295.992 515.588 296.456 515.588 297.416V303ZM531.377 303.192C529.009 303.192 527.553 301.496 527.553 298.84C527.553 296.184 529.009 294.488 531.377 294.488C533.825 294.488 535.073 296.328 535.073 298.632V299.288H529.361V299.56C529.361 300.84 530.145 301.752 531.553 301.752C532.577 301.752 533.265 301.272 533.745 300.504L534.769 301.512C534.145 302.52 532.929 303.192 531.377 303.192ZM531.377 295.848C530.177 295.848 529.361 296.744 529.361 298.024V298.136H533.233V297.976C533.233 296.696 532.529 295.848 531.377 295.848ZM540.988 303H539.468C538.268 303 537.628 302.328 537.628 301.192V296.104H536.332V294.68H537.036C537.612 294.68 537.804 294.44 537.804 293.864V292.408H539.372V294.68H541.116V296.104H539.372V301.576H540.988V303ZM546.369 303.192C544.001 303.192 542.545 301.496 542.545 298.84C542.545 296.184 544.001 294.488 546.369 294.488C548.817 294.488 550.065 296.328 550.065 298.632V299.288H544.353V299.56C544.353 300.84 545.137 301.752 546.545 301.752C547.569 301.752 548.257 301.272 548.737 300.504L549.761 301.512C549.137 302.52 547.921 303.192 546.369 303.192ZM546.369 295.848C545.169 295.848 544.353 296.744 544.353 298.024V298.136H548.225V297.976C548.225 296.696 547.521 295.848 546.369 295.848ZM553.9 303H552.156V294.68H553.9V296.28H553.98C554.22 295.432 554.94 294.68 556.268 294.68H556.732V296.36H556.044C554.668 296.36 553.9 296.824 553.9 297.688V303ZM561.081 303.192C559.513 303.192 558.489 302.6 557.705 301.624L558.825 300.6C559.433 301.336 560.185 301.784 561.177 301.784C562.185 301.784 562.697 301.368 562.697 300.664C562.697 300.136 562.377 299.736 561.513 299.624L560.745 299.528C559.049 299.32 558.009 298.584 558.009 297.048C558.009 295.432 559.273 294.488 561.097 294.488C562.601 294.488 563.449 294.984 564.201 295.816L563.129 296.84C562.697 296.328 561.993 295.896 561.097 295.896C560.137 295.896 559.689 296.312 559.689 296.936C559.689 297.576 560.089 297.864 560.969 298.008L561.737 298.104C563.561 298.376 564.377 299.176 564.377 300.52C564.377 302.12 563.081 303.192 561.081 303.192Z" fill="#F2F4F8"/>
<rect x="1314" y="267" width="136" height="32" fill="#21272A"/>
<path d="M1323.25 292.2V280.68H1324.99V282.056H1325.07C1325.42 281.064 1326.3 280.488 1327.41 280.488C1329.5 280.488 1330.72 282.104 1330.72 284.84C1330.72 287.576 1329.5 289.192 1327.41 289.192C1326.3 289.192 1325.42 288.6 1325.07 287.624H1324.99V292.2H1323.25ZM1326.88 287.688C1328.08 287.688 1328.88 286.84 1328.88 285.56V284.12C1328.88 282.84 1328.08 281.992 1326.88 281.992C1325.82 281.992 1324.99 282.568 1324.99 283.416V286.264C1324.99 287.112 1325.82 287.688 1326.88 287.688ZM1336.14 289.192C1333.82 289.192 1332.32 287.496 1332.32 284.84C1332.32 282.184 1333.82 280.488 1336.14 280.488C1338.46 280.488 1339.96 282.184 1339.96 284.84C1339.96 287.496 1338.46 289.192 1336.14 289.192ZM1336.14 287.752C1337.32 287.752 1338.12 287.016 1338.12 285.544V284.136C1338.12 282.664 1337.32 281.928 1336.14 281.928C1334.96 281.928 1334.16 282.664 1334.16 284.136V285.544C1334.16 287.016 1334.96 287.752 1336.14 287.752ZM1344.71 289.192C1343.14 289.192 1342.12 288.6 1341.33 287.624L1342.45 286.6C1343.06 287.336 1343.81 287.784 1344.8 287.784C1345.81 287.784 1346.32 287.368 1346.32 286.664C1346.32 286.136 1346 285.736 1345.14 285.624L1344.37 285.528C1342.68 285.32 1341.64 284.584 1341.64 283.048C1341.64 281.432 1342.9 280.488 1344.72 280.488C1346.23 280.488 1347.08 280.984 1347.83 281.816L1346.76 282.84C1346.32 282.328 1345.62 281.896 1344.72 281.896C1343.76 281.896 1343.32 282.312 1343.32 282.936C1343.32 283.576 1343.72 283.864 1344.6 284.008L1345.36 284.104C1347.19 284.376 1348 285.176 1348 286.52C1348 288.12 1346.71 289.192 1344.71 289.192ZM1353.85 289H1352.33C1351.13 289 1350.49 288.328 1350.49 287.192V282.104H1349.19V280.68H1349.9C1350.47 280.68 1350.66 280.44 1350.66 279.864V278.408H1352.23V280.68H1353.98V282.104H1352.23V287.576H1353.85V289ZM1359.95 285.016H1355.52V283.24H1359.95V285.016ZM1362.36 292.2V280.68H1364.1V282.056H1364.18C1364.54 281.064 1365.42 280.488 1366.52 280.488C1368.62 280.488 1369.83 282.104 1369.83 284.84C1369.83 287.576 1368.62 289.192 1366.52 289.192C1365.42 289.192 1364.54 288.6 1364.18 287.624H1364.1V292.2H1362.36ZM1365.99 287.688C1367.19 287.688 1367.99 286.84 1367.99 285.56V284.12C1367.99 282.84 1367.19 281.992 1365.99 281.992C1364.94 281.992 1364.1 282.568 1364.1 283.416V286.264C1364.1 287.112 1364.94 287.688 1365.99 287.688ZM1373.73 289H1371.99V280.68H1373.73V282.28H1373.81C1374.05 281.432 1374.77 280.68 1376.1 280.68H1376.57V282.36H1375.88C1374.5 282.36 1373.73 282.824 1373.73 283.688V289ZM1381.46 289.192C1379.14 289.192 1377.64 287.496 1377.64 284.84C1377.64 282.184 1379.14 280.488 1381.46 280.488C1383.78 280.488 1385.28 282.184 1385.28 284.84C1385.28 287.496 1383.78 289.192 1381.46 289.192ZM1381.46 287.752C1382.64 287.752 1383.44 287.016 1383.44 285.544V284.136C1383.44 282.664 1382.64 281.928 1381.46 281.928C1380.28 281.928 1379.48 282.664 1379.48 284.136V285.544C1379.48 287.016 1380.28 287.752 1381.46 287.752ZM1390.6 289.192C1388.2 289.192 1386.83 287.496 1386.83 284.84C1386.83 282.184 1388.2 280.488 1390.6 280.488C1392.27 280.488 1393.32 281.304 1393.82 282.536L1392.38 283.208C1392.14 282.44 1391.55 281.944 1390.6 281.944C1389.32 281.944 1388.67 282.824 1388.67 284.104V285.592C1388.67 286.872 1389.32 287.752 1390.6 287.752C1391.61 287.752 1392.2 287.208 1392.56 286.376L1393.88 287.08C1393.34 288.44 1392.2 289.192 1390.6 289.192ZM1398.87 289.192C1396.51 289.192 1395.05 287.496 1395.05 284.84C1395.05 282.184 1396.51 280.488 1398.87 280.488C1401.32 280.488 1402.57 282.328 1402.57 284.632V285.288H1396.86V285.56C1396.86 286.84 1397.64 287.752 1399.05 287.752C1400.07 287.752 1400.76 287.272 1401.24 286.504L1402.27 287.512C1401.64 288.52 1400.43 289.192 1398.87 289.192ZM1398.87 281.848C1397.67 281.848 1396.86 282.744 1396.86 284.024V284.136H1400.73V283.976C1400.73 282.696 1400.03 281.848 1398.87 281.848ZM1407.3 289.192C1405.73 289.192 1404.71 288.6 1403.92 287.624L1405.04 286.6C1405.65 287.336 1406.4 287.784 1407.4 287.784C1408.4 287.784 1408.92 287.368 1408.92 286.664C1408.92 286.136 1408.6 285.736 1407.73 285.624L1406.96 285.528C1405.27 285.32 1404.23 284.584 1404.23 283.048C1404.23 281.432 1405.49 280.488 1407.32 280.488C1408.82 280.488 1409.67 280.984 1410.42 281.816L1409.35 282.84C1408.92 282.328 1408.21 281.896 1407.32 281.896C1406.36 281.896 1405.91 282.312 1405.91 282.936C1405.91 283.576 1406.31 283.864 1407.19 284.008L1407.96 284.104C1409.78 284.376 1410.6 285.176 1410.6 286.52C1410.6 288.12 1409.3 289.192 1407.3 289.192ZM1415.27 289.192C1413.71 289.192 1412.68 288.6 1411.9 287.624L1413.02 286.6C1413.63 287.336 1414.38 287.784 1415.37 287.784C1416.38 287.784 1416.89 287.368 1416.89 286.664C1416.89 286.136 1416.57 285.736 1415.71 285.624L1414.94 285.528C1413.24 285.32 1412.2 284.584 1412.2 283.048C1412.2 281.432 1413.47 280.488 1415.29 280.488C1416.79 280.488 1417.64 280.984 1418.39 281.816L1417.32 282.84C1416.89 282.328 1416.19 281.896 1415.29 281.896C1414.33 281.896 1413.88 282.312 1413.88 282.936C1413.88 283.576 1414.28 283.864 1415.16 284.008L1415.93 284.104C1417.75 284.376 1418.57 285.176 1418.57 286.52C1418.57 288.12 1417.27 289.192 1415.27 289.192ZM1421.58 279.192C1420.86 279.192 1420.54 278.808 1420.54 278.28V278.008C1420.54 277.48 1420.86 277.096 1421.58 277.096C1422.3 277.096 1422.6 277.48 1422.6 278.008V278.28C1422.6 278.808 1422.3 279.192 1421.58 279.192ZM1420.7 289V280.68H1422.44V289H1420.7ZM1426.84 289H1425.09V280.68H1426.84V282.056H1426.92C1427.27 281.16 1427.97 280.488 1429.25 280.488C1430.95 280.488 1431.96 281.672 1431.96 283.72V289H1430.21V283.944C1430.21 282.648 1429.72 281.992 1428.65 281.992C1427.73 281.992 1426.84 282.456 1426.84 283.432V289ZM1441.83 289.784C1441.83 291.512 1440.6 292.392 1437.61 292.392C1434.89 292.392 1433.83 291.656 1433.83 290.392C1433.83 289.48 1434.37 288.984 1435.25 288.792V288.616C1434.65 288.424 1434.31 287.96 1434.31 287.336C1434.31 286.472 1434.98 286.056 1435.78 285.864V285.8C1434.81 285.336 1434.26 284.456 1434.26 283.336C1434.26 281.64 1435.46 280.488 1437.57 280.488C1438.13 280.488 1438.65 280.568 1439.08 280.744V280.52C1439.08 279.784 1439.43 279.336 1440.17 279.336H1441.45V280.744H1439.75V281.08C1440.5 281.576 1440.92 282.376 1440.92 283.336C1440.92 285.016 1439.7 286.152 1437.59 286.152C1437.19 286.152 1436.81 286.104 1436.5 286.024C1436.09 286.168 1435.7 286.44 1435.7 286.856C1435.7 287.304 1436.13 287.48 1436.87 287.48H1438.92C1440.97 287.48 1441.83 288.344 1441.83 289.784ZM1440.2 289.976C1440.2 289.4 1439.81 289.032 1438.68 289.032H1435.86C1435.48 289.256 1435.29 289.592 1435.29 289.992C1435.29 290.664 1435.78 291.128 1437.08 291.128H1438.17C1439.53 291.128 1440.2 290.744 1440.2 289.976ZM1437.59 284.888C1438.61 284.888 1439.21 284.424 1439.21 283.48V283.16C1439.21 282.216 1438.61 281.752 1437.59 281.752C1436.57 281.752 1435.97 282.216 1435.97 283.16V283.48C1435.97 284.424 1436.57 284.888 1437.59 284.888Z" fill="#F2F4F8"/>
</svg>
