<?xml version='1.0' encoding='utf-8'?>
<svg xmlns="http://www.w3.org/2000/svg" xmlns:ns1="http://sodipodi.sourceforge.net/DTD/sodipodi-0.dtd" xmlns:ns2="http://www.inkscape.org/namespaces/inkscape" version="1.1" id="svg1" width="100%" height="auto" viewBox="-20.0 -20.0 447.22665 192.51117" ns1:docname="svg_fix_XXXXXX.svg">
  <rect id="path1" x="-20.0" y="-20.0" width="447.22665" height="192.51117" fill="white" /><ns1:namedview id="namedview1" pagecolor="#ffffff" bordercolor="#000000" borderopacity="0.25" ns2:showpageshadow="2" ns2:pageopacity="0.0" ns2:pagecheckerboard="0" ns2:deskcolor="#d1d1d1" />
  <defs id="defs1" />
  <g id="g1" transform="translate(-95.802332,-84.776434)">
    <path id="path2" d="M 26.92946,-22.67743 H 43.93752 V -5.66937 H 26.92946 Z" style="fill:#000000;fill-opacity:1;fill-rule:nonzero;stroke:#000000;stroke-width:0.3985;stroke-linecap:butt;stroke-linejoin:miter;stroke-miterlimit:10;stroke-dasharray:none;stroke-opacity:1" transform="matrix(3.3333333,0,0,-3.3333333,275.79333,161.032)" />
    <path id="path3" d="m 41.10277,-16.72449 c 0,3.13112 -2.53823,5.66934 -5.66936,5.66934 -3.13112,0 -5.66934,-2.53822 -5.66934,-5.66934" style="fill:none;stroke:#ffffff;stroke-width:0.79701;stroke-linecap:butt;stroke-linejoin:miter;stroke-miterlimit:10;stroke-dasharray:none;stroke-opacity:1" transform="matrix(3.3333333,0,0,-3.3333333,275.79333,161.032)" />
    <path id="path4" d="m 35.43349,-16.44118 5.66928,4.81891" style="fill:none;stroke:#ffffff;stroke-width:0.79701;stroke-linecap:butt;stroke-linejoin:miter;stroke-miterlimit:10;stroke-dasharray:none;stroke-opacity:1" transform="matrix(3.3333333,0,0,-3.3333333,275.79333,161.032)" />
    <path id="path5" d="m 36.28389,-16.44118 c 0,0.46967 -0.38074,0.85041 -0.8504,0.85041 -0.46967,0 -0.85039,-0.38074 -0.85039,-0.85041 0,-0.46966 0.38072,-0.8504 0.85039,-0.8504 0.46966,0 0.8504,0.38074 0.8504,0.8504 z" style="fill:#ffffff;fill-opacity:1;fill-rule:nonzero;stroke:none" transform="matrix(3.3333333,0,0,-3.3333333,275.79333,161.032)" />
    <g id="g5" aria-label="∣+⟩" transform="matrix(3.3333333,0,0,3.3333333,108.63,215.582)">
      <path id="path6" d="m 1.1949844,-6.0937406 v 7.8046875 h 0.5109375 v -7.8046875 z m 0,0" style="fill:#121619;fill-opacity:1;fill-rule:nonzero;stroke:none" />
      <path id="path7" d="m 5.5168594,-4.3406156 v 1.89375 H 3.6184219 v 0.5109375 h 1.8984375 v 1.89843748 h 0.50625 V -1.9359281 H 7.9215469 V -2.4468656 H 6.0231094 v -1.89375 z m 0,0" style="fill:#121619;fill-opacity:1;fill-rule:nonzero;stroke:none" />
      <path id="path8" d="m 9.8492813,1.8000094 1.4343747,-3.9890625 -1.4343747,-3.99375 -0.478125,0.1734375 1.4343747,3.8203125 -1.4343747,3.815625 z m 0,0" style="fill:#121619;fill-opacity:1;fill-rule:nonzero;stroke:none" />
    </g>
    <path id="path9" d="M -53.9973,14.17339 H 68.1707" style="fill:none;stroke:#121619;stroke-width:0.3985;stroke-linecap:butt;stroke-linejoin:miter;stroke-miterlimit:10;stroke-dasharray:none;stroke-opacity:1" transform="matrix(3.3333333,0,0,-3.3333333,275.79333,161.032)" />
    <path id="path10" d="M -32.73718,-14.17339 H 26.73021" style="fill:none;stroke:#121619;stroke-width:0.3985;stroke-linecap:butt;stroke-linejoin:miter;stroke-miterlimit:10;stroke-dasharray:none;stroke-opacity:1" transform="matrix(3.3333333,0,0,-3.3333333,275.79333,161.032)" />
    <path id="path11" d="M 44.13678,-13.323 H 53.9973" style="fill:none;stroke:#121619;stroke-width:0.3985;stroke-linecap:butt;stroke-linejoin:miter;stroke-miterlimit:10;stroke-dasharray:none;stroke-opacity:1" transform="matrix(3.3333333,0,0,-3.3333333,275.79333,161.032)" />
    <path id="path12" d="M 44.13678,-15.02379 H 53.9973" style="fill:none;stroke:#121619;stroke-width:0.3985;stroke-linecap:butt;stroke-linejoin:miter;stroke-miterlimit:10;stroke-dasharray:none;stroke-opacity:1" transform="matrix(3.3333333,0,0,-3.3333333,275.79333,161.032)" />
    <path id="path13" d="m -11.6827,-14.17339 c 0,1.37559 -1.1151,2.49069 -2.49069,2.49069 -1.37558,0 -2.49069,-1.1151 -2.49069,-2.49069 0,-1.37558 1.11511,-2.49069 2.49069,-2.49069 1.37559,0 2.49069,1.11511 2.49069,2.49069 z" style="fill:#78a9ff;fill-opacity:1;fill-rule:nonzero;stroke:none" transform="matrix(3.3333333,0,0,-3.3333333,275.79333,161.032)" />
    <path id="path14" d="M -22.67743,5.66936 H -5.66937 V 22.67742 H -22.67743 Z" style="fill:#78a9ff;fill-opacity:1;fill-rule:nonzero;stroke:#78a9ff;stroke-width:0.3985;stroke-linecap:butt;stroke-linejoin:miter;stroke-miterlimit:10;stroke-dasharray:none;stroke-opacity:1" transform="matrix(3.3333333,0,0,-3.3333333,275.79333,161.032)" />
    <path id="path15" d="m 2.508,-2.4838187 h 1.453125 c 1.1484375,0 2.34375,-0.796875 2.34375,-1.7390625 0,-0.675 -0.6375,-1.21875 -1.66875,-1.21875 H 1.9501875 c -0.140625,0 -0.24375,0 -0.24375,0.15 0,0.1125 0.103125,0.1125 0.2296875,0.1125 0.2625,0 0.4921875,0 0.4921875,0.1265625 0,0.032813 -0.00469,0.042187 -0.028125,0.1453125 l -1.06875,4.27968745 c -0.070312,0.2953125 -0.089063,0.365625 -0.65625,0.365625 -0.1828125,0 -0.2671875,0 -0.2671875,0.15 0,0.0328125 0.0234375,0.1125 0.1265625,0.1125 0.15,0 0.3421875,-0.0140625 0.4921875,-0.0234375 h 0.5109375 c 0.7640625,0 0.9703125,0.0234375 1.0265625,0.0234375 0.051563,0 0.159375,0 0.159375,-0.15 0,-0.1125 -0.103125,-0.1125 -0.2390625,-0.1125 -0.023437,0 -0.1640625,0 -0.3,-0.0140625 -0.16875,-0.01875 -0.1828125,-0.0421875 -0.1828125,-0.1125 0,-0.0421875 0.014063,-0.0890625 0.023437,-0.1265625 z m 0.5859375,-2.4 c 0.070312,-0.271875 0.079687,-0.2953125 0.403125,-0.2953125 H 4.373625 c 0.65625,0 1.1578125,0.1921875 1.1578125,0.7828125 0,0.103125 -0.042187,0.8109375 -0.4875,1.2515625 -0.1171875,0.1171875 -0.5015625,0.421875 -1.284375,0.421875 h -1.209375 z m 0,0" style="fill:#ffffff;fill-opacity:1;fill-rule:nonzero;stroke:none" aria-label="P" transform="matrix(3.3333333,0,0,3.3333333,217.64,122.86533)" />
    <path id="path16" d="M -14.17339,-14.17339 V 5.47011" style="fill:none;stroke:#78a9ff;stroke-width:0.79701;stroke-linecap:butt;stroke-linejoin:miter;stroke-miterlimit:10;stroke-dasharray:none;stroke-opacity:1" transform="matrix(3.3333333,0,0,-3.3333333,275.79333,161.032)" />
    <path id="path17" d="M -1.41733,-22.67743 H 15.59073 V -5.66937 H -1.41733 Z" style="fill:#78a9ff;fill-opacity:1;fill-rule:nonzero;stroke:#78a9ff;stroke-width:0.3985;stroke-linecap:butt;stroke-linejoin:miter;stroke-miterlimit:10;stroke-dasharray:none;stroke-opacity:1" transform="matrix(3.3333333,0,0,-3.3333333,275.79333,161.032)" />
    <path id="path18" d="m 6.3656875,-4.7952719 c 0.079688,-0.3140625 0.098438,-0.384375 0.65625,-0.384375 0.1828125,0 0.2765625,0 0.2765625,-0.15 0,-0.00937 -0.00937,-0.1125 -0.1359375,-0.1125 -0.15,0 -0.3421875,0.014062 -0.4921875,0.023437 H 6.1688125 c -0.7640625,0 -0.975,-0.023437 -1.03125,-0.023437 -0.028125,0 -0.159375,0 -0.159375,0.15 0,0.1125 0.1078125,0.1125 0.234375,0.1125 0.2625,0 0.4921875,0 0.4921875,0.1265625 0,0.032813 -0.00937,0.042188 -0.032812,0.1453125 L 5.193813,-2.9624594 H 2.62975 l 0.4640625,-1.85625 c 0.070312,-0.290625 0.084375,-0.3609375 0.665625,-0.3609375 0.159375,0 0.2578125,0 0.2578125,-0.15 0,-0.00937 -0.00937,-0.1125 -0.1359375,-0.1125 -0.15,0 -0.3421875,0.014062 -0.496875,0.023437 H 2.882875 c -0.7640625,0 -0.9703125,-0.023437 -1.0265625,-0.023437 -0.032813,0 -0.159375,0 -0.159375,0.15 0,0.1125 0.103125,0.1125 0.2296875,0.1125 0.2625,0 0.496875,0 0.496875,0.1265625 0,0.032813 -0.00938,0.042188 -0.032813,0.1453125 l -1.06875,4.27968753 c -0.070312,0.3 -0.089063,0.365625 -0.675,0.365625 -0.1546875,0 -0.2484375,0 -0.2484375,0.15 0,0.0328125 0.0234375,0.112499995 0.1265625,0.112499995 0.15,0 0.3421875,-0.014062495 0.496875,-0.023437495 h 0.50625 c 0.76875,0 0.975,0.023437495 1.03125,0.023437495 0.046875,0 0.159375,0 0.159375,-0.149999995 0,-0.1125 -0.103125,-0.1125 -0.2390625,-0.1125 -0.023437,0 -0.16875,0 -0.3046875,-0.0140625 -0.16875,-0.01875 -0.1828125,-0.0421875 -0.1828125,-0.1125 0,-0.0421875 0.014062,-0.0890625 0.023437,-0.1265625 l 0.54375,-2.18437503 H 5.1235 c -0.2296875,0.9375 -0.54375,2.18437503 -0.5484375,2.18437503 -0.075,0.24375 -0.215625,0.24375 -0.69375,0.253125 -0.098437,0 -0.2015625,0 -0.2015625,0.15 0,0.0328125 0.023437,0.112499995 0.13125,0.112499995 0.15,0 0.3421875,-0.014062495 0.4921875,-0.023437495 H 4.814125 c 0.7640625,0 0.9703125,0.023437495 1.0265625,0.023437495 0.046875,0 0.159375,0 0.159375,-0.149999995 0,-0.1125 -0.103125,-0.1125 -0.2390625,-0.1125 -0.023437,0 -0.16875,0 -0.3046875,-0.0140625 -0.1640625,-0.01875 -0.1828125,-0.0421875 -0.1828125,-0.1125 0,-0.0421875 0.01875,-0.0890625 0.023437,-0.1265625 z m 0,0" style="fill:#ffffff;fill-opacity:1;fill-rule:nonzero;stroke:none" aria-label="H" transform="matrix(3.3333333,0,0,3.3333333,286.79667,217.35533)" />
  </g>
</svg>