<?xml version='1.0' encoding='utf-8'?>
<svg xmlns="http://www.w3.org/2000/svg" xmlns:ns1="http://sodipodi.sourceforge.net/DTD/sodipodi-0.dtd" xmlns:ns2="http://www.inkscape.org/namespaces/inkscape" version="1.1" id="svg1" width="100%" height="auto" viewBox="-20.0 -20.0 421.99023 143.38258000000002" ns1:docname="svg_fix_XXXXXX.svg">
  <rect id="path1" x="-20.0" y="-20.0" width="421.99023" height="143.38258000000002" fill="white" /><ns1:namedview id="namedview1" pagecolor="#ffffff" bordercolor="#000000" borderopacity="0.25" ns2:showpageshadow="2" ns2:pageopacity="0.0" ns2:pagecheckerboard="0" ns2:deskcolor="#d1d1d1" />
  <defs id="defs1" />
  <g id="g1" transform="translate(-108.54589,-34.911067)">
    <path id="path2" d="M -18.40439,21.2601 H 18.40439" style="fill:none;stroke:#121619;stroke-width:0.3985;stroke-linecap:butt;stroke-linejoin:miter;stroke-miterlimit:10;stroke-dasharray:none;stroke-opacity:1" transform="matrix(2,0,0,-2,145.35467,82.412667)" />
    <path id="path3" d="M -18.40439,0 H 18.40439" style="fill:none;stroke:#121619;stroke-width:0.3985;stroke-linecap:butt;stroke-linejoin:miter;stroke-miterlimit:10;stroke-dasharray:none;stroke-opacity:1" transform="matrix(2,0,0,-2,145.35467,82.412667)" />
    <path id="path4" d="m 2.49069,21.2601 c 0,1.37558 -1.11511,2.4907 -2.49069,2.4907 -1.37558,0 -2.49069,-1.11512 -2.49069,-2.4907 0,-1.37558 1.11511,-2.49069 2.49069,-2.49069 1.37558,0 2.49069,1.11511 2.49069,2.49069 z" style="fill:#78a9ff;fill-opacity:1;fill-rule:nonzero;stroke:none" transform="matrix(2,0,0,-2,145.35467,82.412667)" />
    <path id="path5" d="M 6.48114,0 C 6.48114,3.57947 3.57947,6.48114 0,6.48114 -3.57947,6.48114 -6.48114,3.57947 -6.48114,0 c 0,-3.57947 2.90167,-6.48114 6.48114,-6.48114 3.57947,0 6.48114,2.90167 6.48114,6.48114 z" style="fill:#78a9ff;fill-opacity:1;fill-rule:nonzero;stroke:#78a9ff;stroke-width:0.3985;stroke-linecap:butt;stroke-linejoin:miter;stroke-miterlimit:10;stroke-dasharray:none;stroke-opacity:1" transform="matrix(2,0,0,-2,145.35467,82.412667)" />
    <path id="path6" d="m 4.7025104,-7.8205052 v 3.4140625 H 1.2884479 v 0.921875 h 3.4140625 v 3.41406249 h 0.921875 V -3.4845677 h 3.4140625 v -0.921875 H 5.6243854 v -3.4140625 z m 0,0" style="fill:#ffffff;fill-opacity:1;fill-rule:nonzero;stroke:none" aria-label="+" transform="matrix(2,0,0,2,135.02467,90.238667)" />
    <path id="path7" d="M 0,21.2601 V 6.68039" style="fill:none;stroke:#78a9ff;stroke-width:0.79701;stroke-linecap:butt;stroke-linejoin:miter;stroke-miterlimit:10;stroke-dasharray:none;stroke-opacity:1" transform="matrix(2,0,0,-2,145.35467,82.412667)" />
    <path id="path8" d="M -18.40439,21.2601 H 18.40439" style="fill:none;stroke:#121619;stroke-width:0.3985;stroke-linecap:butt;stroke-linejoin:miter;stroke-miterlimit:10;stroke-dasharray:none;stroke-opacity:1" transform="matrix(2,0,0,-2,299.54133,82.412667)" />
    <path id="path9" d="M -18.40439,0 H 18.40439" style="fill:none;stroke:#121619;stroke-width:0.3985;stroke-linecap:butt;stroke-linejoin:miter;stroke-miterlimit:10;stroke-dasharray:none;stroke-opacity:1" transform="matrix(2,0,0,-2,299.54133,82.412667)" />
    <path id="path10" d="M -18.40439,-21.2601 H 18.40439" style="fill:none;stroke:#121619;stroke-width:0.3985;stroke-linecap:butt;stroke-linejoin:miter;stroke-miterlimit:10;stroke-dasharray:none;stroke-opacity:1" transform="matrix(2,0,0,-2,299.54133,82.412667)" />
    <path id="path11" d="m 2.49069,21.2601 c 0,1.37558 -1.11511,2.4907 -2.49069,2.4907 -1.37558,0 -2.49069,-1.11512 -2.49069,-2.4907 0,-1.37558 1.11511,-2.49069 2.49069,-2.49069 1.37558,0 2.49069,1.11511 2.49069,2.49069 z" style="fill:#78a9ff;fill-opacity:1;fill-rule:nonzero;stroke:none" transform="matrix(2,0,0,-2,299.54133,82.412667)" />
    <path id="path12" d="M 2.49069,0 C 2.49069,1.37558 1.37558,2.49069 0,2.49069 -1.37558,2.49069 -2.49069,1.37558 -2.49069,0 c 0,-1.37558 1.11511,-2.49069 2.49069,-2.49069 1.37558,0 2.49069,1.11511 2.49069,2.49069 z" style="fill:#78a9ff;fill-opacity:1;fill-rule:nonzero;stroke:none" transform="matrix(2,0,0,-2,299.54133,82.412667)" />
    <path id="path13" d="m 6.48114,-21.2601 c 0,3.57948 -2.90167,6.48115 -6.48114,6.48115 -3.57947,0 -6.48114,-2.90167 -6.48114,-6.48115 0,-3.57947 2.90167,-6.48114 6.48114,-6.48114 3.57947,0 6.48114,2.90167 6.48114,6.48114 z" style="fill:#78a9ff;fill-opacity:1;fill-rule:nonzero;stroke:#78a9ff;stroke-width:0.3985;stroke-linecap:butt;stroke-linejoin:miter;stroke-miterlimit:10;stroke-dasharray:none;stroke-opacity:1" transform="matrix(2,0,0,-2,299.54133,82.412667)" />
    <path id="path14" d="m 4.7029271,-7.8207396 v 3.4140625 H 1.2888646 v 0.921875 h 3.4140625 v 3.41406252 h 0.921875 V -3.4848021 h 3.4140625 v -0.921875 H 5.6248021 v -3.4140625 z m 0,0" style="fill:#ffffff;fill-opacity:1;fill-rule:nonzero;stroke:none" aria-label="+" transform="matrix(2,0,0,2,289.21133,132.75867)" />
    <path id="path15" d="M 0,21.2601 V -14.5797" style="fill:none;stroke:#78a9ff;stroke-width:0.79701;stroke-linecap:butt;stroke-linejoin:miter;stroke-miterlimit:10;stroke-dasharray:none;stroke-opacity:1" transform="matrix(2,0,0,-2,299.54133,82.412667)" />
    <path id="path16" d="M -18.40439,21.2601 H 18.40439" style="fill:none;stroke:#121619;stroke-width:0.3985;stroke-linecap:butt;stroke-linejoin:miter;stroke-miterlimit:10;stroke-dasharray:none;stroke-opacity:1" transform="matrix(2,0,0,-2,453.72733,82.412667)" />
    <path id="path17" d="M -18.40439,0 H 18.40439" style="fill:none;stroke:#121619;stroke-width:0.3985;stroke-linecap:butt;stroke-linejoin:miter;stroke-miterlimit:10;stroke-dasharray:none;stroke-opacity:1" transform="matrix(2,0,0,-2,453.72733,82.412667)" />
    <path id="path18" d="M -18.40439,-21.2601 H 18.40439" style="fill:none;stroke:#121619;stroke-width:0.3985;stroke-linecap:butt;stroke-linejoin:miter;stroke-miterlimit:10;stroke-dasharray:none;stroke-opacity:1" transform="matrix(2,0,0,-2,453.72733,82.412667)" />
    <path id="path19" d="m 2.49069,21.2601 c 0,1.37558 -1.11511,2.4907 -2.49069,2.4907 -1.37558,0 -2.49069,-1.11512 -2.49069,-2.4907 0,-1.37558 1.11511,-2.49069 2.49069,-2.49069 1.37558,0 2.49069,1.11511 2.49069,2.49069 z" style="fill:#78a9ff;fill-opacity:1;fill-rule:nonzero;stroke:none" transform="matrix(2,0,0,-2,453.72733,82.412667)" />
    <path id="path20" d="m 1.0790052,-5.977099 2.6875,2.6875 -2.6875,2.69531254 0.546875,0.5234375 2.6796875,-2.67968754 2.6796875,2.67968754 0.546875,-0.5234375 -2.6875,-2.69531254 2.6875,-2.6875 -0.546875,-0.5390625 -2.6796875,2.6875 -2.6796875,-2.671875 z m 0,0" style="fill:#78a9ff;fill-opacity:1;fill-rule:nonzero;stroke:none" aria-label="×" transform="matrix(2,0,0,2,445.11933,88.934667)" />
    <path id="path21" d="m 1.0790052,-5.9773333 2.6875,2.6875 -2.6875,2.69531247 0.546875,0.5234375 2.6796875,-2.67968747 2.6796875,2.67968747 0.546875,-0.5234375 -2.6875,-2.69531247 2.6875,-2.6875 -0.546875,-0.5390625 -2.6796875,2.6875 -2.6796875,-2.671875 z m 0,0" style="fill:#78a9ff;fill-opacity:1;fill-rule:nonzero;stroke:none" aria-label="×" transform="matrix(2,0,0,2,445.11933,131.45467)" />
    <path id="path22" d="M 0,21.2601 V -21.2601" style="fill:none;stroke:#78a9ff;stroke-width:0.79701;stroke-linecap:butt;stroke-linejoin:miter;stroke-miterlimit:10;stroke-dasharray:none;stroke-opacity:1" transform="matrix(2,0,0,-2,453.72733,82.412667)" />
  </g>
</svg>