<?xml version='1.0' encoding='utf-8'?>
<svg xmlns="http://www.w3.org/2000/svg" xmlns:ns1="http://sodipodi.sourceforge.net/DTD/sodipodi-0.dtd" xmlns:ns2="http://www.inkscape.org/namespaces/inkscape" version="1.1" id="svg1" width="100%" height="auto" viewBox="-20.0 -20.0 494.76376 302.11395" ns1:docname="svg_fix_XXXXXX.svg">
  <rect id="path1" x="-20.0" y="-20.0" width="494.76376" height="302.11395" fill="white" /><ns1:namedview id="namedview1" pagecolor="#ffffff" bordercolor="#000000" borderopacity="0.25" ns2:showpageshadow="2" ns2:pageopacity="0.0" ns2:pagecheckerboard="0" ns2:deskcolor="#d1d1d1" />
  <defs id="defs1" />
  <g id="g1" transform="translate(-68.453118,-31.116498)">
    <path id="path2" d="M -138.89917,14.17339 H 82.20555" style="fill:none;stroke:#e7e8e8;stroke-width:0.79701;stroke-linecap:butt;stroke-linejoin:miter;stroke-miterlimit:10;stroke-dasharray:none;stroke-opacity:1" transform="matrix(1.6,0,0,-1.6,391.688,201.19733)" />
    <path id="path3" d="M -117.61821,82.20566 H 82.18471" style="fill:none;stroke:#121619;stroke-width:0.3985;stroke-linecap:butt;stroke-linejoin:miter;stroke-miterlimit:10;stroke-dasharray:none;stroke-opacity:1" transform="matrix(1.6,0,0,-1.6,391.688,201.19733)" />
    <path id="path4" d="M -117.61821,85.04034 H 82.18471" style="fill:none;stroke:#121619;stroke-width:0.3985;stroke-linecap:butt;stroke-linejoin:miter;stroke-miterlimit:10;stroke-dasharray:none;stroke-opacity:1" transform="matrix(1.6,0,0,-1.6,391.688,201.19733)" />
    <path id="path5" d="M -117.61821,87.87503 H 82.18471" style="fill:none;stroke:#121619;stroke-width:0.3985;stroke-linecap:butt;stroke-linejoin:miter;stroke-miterlimit:10;stroke-dasharray:none;stroke-opacity:1" transform="matrix(1.6,0,0,-1.6,391.688,201.19733)" />
    <path id="path6" d="M -117.61821,90.7097 H 82.18471" style="fill:none;stroke:#121619;stroke-width:0.3985;stroke-linecap:butt;stroke-linejoin:miter;stroke-miterlimit:10;stroke-dasharray:none;stroke-opacity:1" transform="matrix(1.6,0,0,-1.6,391.688,201.19733)" />
    <path id="path7" d="M -117.61821,93.54436 H 82.18471" style="fill:none;stroke:#121619;stroke-width:0.3985;stroke-linecap:butt;stroke-linejoin:miter;stroke-miterlimit:10;stroke-dasharray:none;stroke-opacity:1" transform="matrix(1.6,0,0,-1.6,391.688,201.19733)" />
    <path id="path8" d="M -117.61821,96.37904 H 82.18471" style="fill:none;stroke:#121619;stroke-width:0.3985;stroke-linecap:butt;stroke-linejoin:miter;stroke-miterlimit:10;stroke-dasharray:none;stroke-opacity:1" transform="matrix(1.6,0,0,-1.6,391.688,201.19733)" />
    <path id="path9" d="M -117.61821,99.21373 H 82.18471" style="fill:none;stroke:#121619;stroke-width:0.3985;stroke-linecap:butt;stroke-linejoin:miter;stroke-miterlimit:10;stroke-dasharray:none;stroke-opacity:1" transform="matrix(1.6,0,0,-1.6,391.688,201.19733)" />
    <path id="path10" d="m -43.93753,48.18958 h 17.00806 v 17.00806 h -17.00806 z" style="fill:#000000;fill-opacity:1;fill-rule:nonzero;stroke:#000000;stroke-width:0.3985;stroke-linecap:butt;stroke-linejoin:miter;stroke-miterlimit:10;stroke-dasharray:none;stroke-opacity:1" transform="matrix(1.6,0,0,-1.6,391.688,201.19733)" />
    <path id="path11" d="m -29.76422,54.1425 c 0,3.13114 -2.53822,5.66936 -5.66934,5.66936 -3.13114,0 -5.66936,-2.53822 -5.66936,-5.66936" style="fill:none;stroke:#ffffff;stroke-width:0.79701;stroke-linecap:butt;stroke-linejoin:miter;stroke-miterlimit:10;stroke-dasharray:none;stroke-opacity:1" transform="matrix(1.6,0,0,-1.6,391.688,201.19733)" />
    <path id="path12" d="m -35.43349,54.42583 5.66927,4.81891" style="fill:none;stroke:#ffffff;stroke-width:0.79701;stroke-linecap:butt;stroke-linejoin:miter;stroke-miterlimit:10;stroke-dasharray:none;stroke-opacity:1" transform="matrix(1.6,0,0,-1.6,391.688,201.19733)" />
    <path id="path13" d="m -34.5831,54.42583 c 0,0.46967 -0.38072,0.8504 -0.85039,0.8504 -0.46966,0 -0.8504,-0.38073 -0.8504,-0.8504 0,-0.46967 0.38074,-0.85041 0.8504,-0.85041 0.46967,0 0.85039,0.38074 0.85039,0.85041 z" style="fill:#ffffff;fill-opacity:1;fill-rule:nonzero;stroke:none" transform="matrix(1.6,0,0,-1.6,391.688,201.19733)" />
    <path id="path14" d="m -43.93753,19.84277 h 17.00806 v 17.00806 h -17.00806 z" style="fill:#000000;fill-opacity:1;fill-rule:nonzero;stroke:#000000;stroke-width:0.3985;stroke-linecap:butt;stroke-linejoin:miter;stroke-miterlimit:10;stroke-dasharray:none;stroke-opacity:1" transform="matrix(1.6,0,0,-1.6,391.688,201.19733)" />
    <path id="path15" d="m -29.76422,25.7957 c 0,3.13112 -2.53822,5.66934 -5.66934,5.66934 -3.13114,0 -5.66936,-2.53822 -5.66936,-5.66934" style="fill:none;stroke:#ffffff;stroke-width:0.79701;stroke-linecap:butt;stroke-linejoin:miter;stroke-miterlimit:10;stroke-dasharray:none;stroke-opacity:1" transform="matrix(1.6,0,0,-1.6,391.688,201.19733)" />
    <path id="path16" d="m -35.43349,26.07901 5.66927,4.81891" style="fill:none;stroke:#ffffff;stroke-width:0.79701;stroke-linecap:butt;stroke-linejoin:miter;stroke-miterlimit:10;stroke-dasharray:none;stroke-opacity:1" transform="matrix(1.6,0,0,-1.6,391.688,201.19733)" />
    <path id="path17" d="m -34.5831,26.07901 c 0,0.46967 -0.38072,0.8504 -0.85039,0.8504 -0.46966,0 -0.8504,-0.38073 -0.8504,-0.8504 0,-0.46967 0.38074,-0.85039 0.8504,-0.85039 0.46967,0 0.85039,0.38072 0.85039,0.85039 z" style="fill:#ffffff;fill-opacity:1;fill-rule:nonzero;stroke:none" transform="matrix(1.6,0,0,-1.6,391.688,201.19733)" />
    <path id="path18" d="m -117.61821,56.69362 h 73.48143" style="fill:none;stroke:#121619;stroke-width:0.3985;stroke-linecap:butt;stroke-linejoin:miter;stroke-miterlimit:10;stroke-dasharray:none;stroke-opacity:1" transform="matrix(1.6,0,0,-1.6,391.688,201.19733)" />
    <path id="path19" d="M -138.87834,-28.3468 H 82.18471" style="fill:none;stroke:#121619;stroke-width:0.3985;stroke-linecap:butt;stroke-linejoin:miter;stroke-miterlimit:10;stroke-dasharray:none;stroke-opacity:1" transform="matrix(1.6,0,0,-1.6,391.688,201.19733)" />
    <path id="path20" d="m -138.87834,28.3468 h 94.74156" style="fill:none;stroke:#121619;stroke-width:0.3985;stroke-linecap:butt;stroke-linejoin:miter;stroke-miterlimit:10;stroke-dasharray:none;stroke-opacity:1" transform="matrix(1.6,0,0,-1.6,391.688,201.19733)" />
    <path id="path21" d="M -8.50403,-36.85083 H 8.50403 v 17.00806 H -8.50403 Z" style="fill:#78a9ff;fill-opacity:1;fill-rule:nonzero;stroke:#78a9ff;stroke-width:0.3985;stroke-linecap:butt;stroke-linejoin:miter;stroke-miterlimit:10;stroke-dasharray:none;stroke-opacity:1" transform="matrix(1.6,0,0,-1.6,391.688,201.19733)" />
    <path id="path22" d="m 4.1613398,-3.0463607 c 0.3808594,-0.390625 1.5136719,-1.5527344 1.7089844,-1.6992187 0.3320313,-0.2539063 0.5273438,-0.4003907 1.1035156,-0.4296875 0.048828,-0.00977 0.1074219,-0.048828 0.1074219,-0.15625 0,-0.068359 -0.068359,-0.1074219 -0.1074219,-0.1074219 -0.078125,0 -0.1269531,0.019531 -0.7519531,0.019531 -0.5957031,0 -0.8105469,-0.019531 -0.8496094,-0.019531 -0.029297,0 -0.15625,0 -0.15625,0.1464844 0,0.00977 0,0.1074218 0.1171875,0.1171875 0.058594,0 0.2734375,0.019531 0.2734375,0.2050781 0,0.058594 -0.039063,0.1464844 -0.097656,0.2050781 l -0.029297,0.039063 c -0.019531,0.029297 -0.019531,0.039063 -0.097656,0.1171875 L 4.053918,-3.2709701 3.2336055,-4.9604232 c 0.1171875,-0.1855469 0.3515625,-0.2148437 0.4492187,-0.2148437 0.039063,0 0.1464844,-0.00977 0.1464844,-0.1464844 0,-0.068359 -0.048828,-0.1171875 -0.1269531,-0.1171875 -0.078125,0 -0.3808594,0.00977 -0.4589844,0.00977 -0.048828,0.00977 -0.3417969,0.00977 -0.5078125,0.00977 -0.7421875,0 -0.8398438,-0.019531 -0.9082031,-0.019531 -0.029297,0 -0.15625,0 -0.15625,0.1464844 0,0.1171875 0.097656,0.1171875 0.2246093,0.1171875 0.4003907,0 0.46875,0.078125 0.546875,0.2246093 l 1.0546875,2.2363282 -1.6308593,1.6601562 c -0.4785157,0.47851565 -0.8496094,0.76171877 -1.41601566,0.79101565 -0.0976563,0.009766 -0.1953125,0.009766 -0.1953125,0.15625 0,0.0390625 0.0390625,0.10742187292 0.1171875,0.10742187292 0.0585938,0 0.14648438,-0.0195312529 0.75195316,-0.0195312529 0.5761718,0 0.8203125,0.0195312529 0.8496093,0.0195312529 0.039063,0 0.1660157,0 0.1660157,-0.15625000292 0,-0.009766 -0.00977,-0.0976563 -0.1269532,-0.10742187 -0.15625,-0.009766 -0.2636718,-0.0585938 -0.2636718,-0.20507813 0,-0.12695312 0.087891,-0.234375 0.2148437,-0.3515625 0.1367188,-0.15625 0.546875,-0.56640622 0.8300781,-0.84960942 0.1855469,-0.1757812 0.6347657,-0.6445312 0.8203125,-0.8203125 l 0.9082032,1.90429692 c 0.048828,0.0878906 0.048828,0.0878906 0.048828,0.0976563 0,0.078125 -0.1757813,0.20507813 -0.4296875,0.22460938 -0.058594,0 -0.1660156,0.009766 -0.1660156,0.15625 0,0 0.00977,0.10742187292 0.1367187,0.10742187292 0.078125,0 0.3710938,-0.0195312529 0.4589844,-0.0195312529 h 0.5078125 c 0.7324219,0 0.8398437,0.0195312529 0.9179687,0.0195312529 0.029297,0 0.1464844,0 0.1464844,-0.15625000292 0,-0.10742187 -0.097656,-0.10742187 -0.2246094,-0.10742187 -0.4296875,0 -0.4785156,-0.0976563 -0.5273437,-0.21484375 z m 0,0" style="fill:#ffffff;fill-opacity:1;fill-rule:nonzero;stroke:none" aria-label="X" transform="matrix(1.6,0,0,1.6,385.6192,250.90933)" />
    <path id="path23" d="m 19.84277,-36.85083 h 17.00806 v 17.00806 H 19.84277 Z" style="fill:#78a9ff;fill-opacity:1;fill-rule:nonzero;stroke:#78a9ff;stroke-width:0.3985;stroke-linecap:butt;stroke-linejoin:miter;stroke-miterlimit:10;stroke-dasharray:none;stroke-opacity:1" transform="matrix(1.6,0,0,-1.6,391.688,201.19733)" />
    <path id="path24" d="m 5.9072031,-5.1362044 c 0.068359,-0.068359 0.1171875,-0.1269532 0.1171875,-0.2148438 0,-0.087891 -0.068359,-0.087891 -0.2148437,-0.087891 H 2.264625 c -0.2050781,0 -0.2148437,0 -0.2636719,0.15625 l -0.4492187,1.4160156 c -0.00977,0.039063 -0.019531,0.078125 -0.019531,0.1171875 0,0.019531 0,0.1171875 0.1171875,0.1171875 0.087891,0 0.1074219,-0.029297 0.1464844,-0.1953125 C 2.1865,-4.9115951 2.8017344,-5.1752669 3.7782969,-5.1752669 H 5.15525 l -4.55078125,4.87304685 c -0.0683594,0.0683594 -0.10742187,0.1171875 -0.10742187,0.21484375 0,0.0878906229 0.0683594,0.0878906229 0.21484375,0.0878906229 H 4.3935313 c 0.2050781,0 0.2148437,-0.009765623 0.2636718,-0.1562500029 L 5.2138438,-1.9037826 c 0.029297,-0.1074218 0.029297,-0.1171875 0.029297,-0.1269531 0,-0.00977 -0.00977,-0.1171875 -0.1171875,-0.1171875 -0.048828,0 -0.078125,0.029297 -0.078125,0.039063 -0.019531,0.00977 -0.039063,0.029297 -0.048828,0.048828 -0.00977,0.048828 -0.00977,0.058594 -0.078125,0.234375 -0.3515625,1.0742188 -0.8203125,1.5429688 -2.0800781,1.5429688 H 1.3857188 Z m 0,0" style="fill:#ffffff;fill-opacity:1;fill-rule:nonzero;stroke:none" aria-label="Z" transform="matrix(1.6,0,0,1.6,432.0016,250.90933)" />
    <g id="g24" aria-label="∣ϕ&#10;+&#10;⟩&#10;⎧&#10;⎪&#10;⎪&#10;⎪&#10;⎪&#10;⎪&#10;⎪&#10;⎪&#10;⎪&#10;⎪&#10;⎪&#10;⎪&#10;⎨&#10;⎪&#10;⎪&#10;⎪&#10;⎪&#10;⎪&#10;⎪&#10;⎪&#10;⎪&#10;⎪&#10;⎪&#10;⎪&#10;⎩" transform="matrix(1.6,0,0,1.6,123.008,206.27733)">
      <path id="path25" d="m 1.1912891,-6.0937435 v 7.8027344 h 0.5175781 v -7.8027344 z m 0,0" style="fill:#121619;fill-opacity:1;fill-rule:nonzero;stroke:none" />
      <path id="path26" d="m 6.5819141,-5.429681 c 0,-0.087891 -0.087891,-0.097656 -0.1269532,-0.097656 -0.1074218,0 -0.1074218,0.048828 -0.1464843,0.1757812 l -0.4492188,1.8261719 c -1.4160156,0.058594 -2.5488281,1.1230469 -2.5488281,2.1582031 0,0.79101564 0.6933594,1.41601564 1.640625,1.45507814 C 4.8826953,0.33203776 4.8241016,0.58594401 4.7655078,0.83985026 4.6678516,1.210944 4.5994922,1.5039128 4.5994922,1.5332096 c 0,0 0,0.087891 0.1171875,0.087891 0.1074219,0 0.1074219,-0.039063 0.15625,-0.1855469 L 5.2049609,0.09766276 c 1.40625,-0.078125 2.5390625,-1.11328126 2.5390625,-2.15820316 0,-0.9082031 -0.8007812,-1.4257812 -1.6308593,-1.4648437 z m -0.5273438,2.1191406 c 0.5957031,0.048828 1.1230469,0.3710938 1.1230469,1.1132813 0,0.7519531 -0.546875,1.92382811 -1.9140625,2.06054686 z M 4.9998828,-0.12694661 C 4.7459766,-0.14647786 3.8768359,-0.27343099 3.8768359,-1.2304622 c 0,-0.859375 0.6445313,-1.953125 1.9140625,-2.0703125 z m 0,0" style="fill:#121619;fill-opacity:1;fill-rule:nonzero;stroke:none" />
      <path id="path27" d="m 9.8973438,-7.4072201 v 1.4257813 H 8.4715625 v 0.3808594 h 1.4257813 v 1.4257812 h 0.3808592 v -1.4257812 h 1.425781 v -0.3808594 h -1.425781 v -1.4257813 z m 0,0" style="fill:#121619;fill-opacity:1;fill-rule:nonzero;stroke:none" />
      <path id="path28" d="m 13.947637,1.7968815 1.435547,-3.984375 -1.435547,-3.9941406 -0.478516,0.1757812 1.435547,3.8183594 -1.435547,3.8085938 z m 7.473144,-36.2573245 v -0.419922 c -0.986328,0 -1.884765,0.654297 -1.884765,1.601563 v 3.339844 h 0.507812 v -3.34961 c 0,-0.683593 0.654297,-1.171875 1.376953,-1.171875 z m -1.887207,3.937989 v 2.851562 h 0.507813 v -2.851562 z m 0.0024,2.34375 v 2.851562 h 0.507812 v -2.851562 z m -0.0024,2.341308 v 2.851563 h 0.507813 v -2.851563 z m 0.0024,2.34375 v 2.851563 h 0.507812 v -2.851563 z m -0.0024,2.34375 v 2.851563 h 0.507813 v -2.851563 z m 0.0024,2.34375 v 2.851563 h 0.507812 v -2.851563 z m -0.0024,2.34375 v 2.851563 h 0.507813 v -2.851563 z m 0.0024,2.341309 v 2.851562 h 0.507812 v -2.851562 z m -0.0024,2.34375 v 2.8515623 h 0.507813 v -2.8515623 z m 0.0024,2.3437498 v 2.8515625 h 0.507812 v -2.8515625 z m -0.0024,2.34375 v 2.8515625 h 0.507813 v -2.8515625 z m 0.510254,2.34375 h -0.507812 v 1.2597656 c 0,0.6347656 -0.605469,1.0742187 -1.289063,1.1035156 h -0.08789 v 0.4589844 c 0.722656,0 1.376953,0.4492187 1.376953,1.12304686 v 1.25 h 0.507812 v -1.25976562 c 0,-0.60546874 -0.361328,-1.07421874 -0.888672,-1.33789064 0.527344,-0.2636719 0.888672,-0.7519531 0.888672,-1.3476562 z m -0.510254,4.60937496 V 2.7148503 h 0.507813 v -2.85156254 z m 0.0024,2.34375004 v 2.8515625 h 0.507812 V 2.2070378 Z m -0.0024,2.34375 v 2.8515625 h 0.507813 V 4.5507878 Z m 0.0024,2.3413086 v 2.8515625 h 0.507812 V 6.8920964 Z m -0.0024,2.34375 v 2.8515626 h 0.507813 V 9.2358464 Z m 0.0024,2.3437496 v 2.851563 h 0.507812 v -2.851563 z m -0.0024,2.34375 v 2.851563 h 0.507813 v -2.851563 z m 0.0024,2.341309 v 2.851562 h 0.507812 v -2.851562 z m -0.0024,2.34375 v 2.851562 h 0.507813 v -2.851562 z m 0.0024,2.34375 v 2.851562 h 0.507812 v -2.851562 z m -0.0024,2.34375 v 2.851562 h 0.507813 v -2.851562 z m 1.887207,7.285156 v -0.429687 c -0.722656,0 -1.376953,-0.488282 -1.376953,-1.171875 v -3.339844 h -0.507812 v 3.339844 c 0,0.947265 0.898437,1.601562 1.884765,1.601562 z m 0,0" style="fill:#121619;fill-opacity:1;fill-rule:nonzero;stroke:none" />
    </g>
    <g id="g28" aria-label="α∣0⟩∣γ&#10;0&#10;⟩+β∣1⟩∣γ&#10;1&#10;⟩&#10;⎧&#10;⎪&#10;⎪&#10;⎪&#10;⎪&#10;⎪&#10;⎪&#10;⎪&#10;⎨&#10;⎪&#10;⎪&#10;⎪&#10;⎪&#10;⎪&#10;⎪&#10;⎪&#10;⎩" transform="matrix(1.6,0,0,1.6,67.8896,78.845333)">
      <path id="path29" d="M 4.0631406,-1.1142708 C 4.8053281,-1.9248177 5.069,-2.9697396 5.069,-3.0283333 c 0,-0.068359 -0.048828,-0.1074219 -0.1171875,-0.1074219 -0.1074219,0 -0.1171875,0.039063 -0.1660156,0.2050781 -0.2148438,0.8105469 -0.6933594,1.4355469 -0.7226563,1.4355469 -0.00977,0 -0.00977,-0.2050781 -0.00977,-0.3320313 -0.019531,-1.3964843 -0.9277344,-1.6894531 -1.4746094,-1.6894531 -1.1230468,0 -2.22656247,1.09375 -2.22656247,2.2167969 0,0.79101562 0.546875,1.37695312 1.39648437,1.37695312 0.5566406,0 1.1425781,-0.1953125 1.7773438,-0.6640625 0.1757812,0.625 0.6347656,0.6640625 0.78125,0.6640625 0.4492187,0 0.7128906,-0.40039063 0.7128906,-0.55664063 0,-0.0976563 -0.097656,-0.0976563 -0.1171875,-0.0976563 -0.087891,0 -0.1074219,0.0292969 -0.1269531,0.078125 -0.1269532,0.34179688 -0.4003907,0.3515625 -0.4394532,0.3515625 -0.1171875,0 -0.2441406,0 -0.2734375,-0.96679679 z m -0.5957031,0.26367184 c -0.5664062,0.5078125 -1.2402344,0.703125 -1.6992187,0.703125 -0.4101563,0 -0.77148442,-0.234375 -0.77148442,-0.86914064 0,-0.2832031 0.12695312,-1.1035156 0.49804692,-1.640625 0.3222656,-0.4394531 0.7519531,-0.6347656 1.0839843,-0.6347656 0.4296875,0 0.6835938,0.3125 0.78125,0.8007812 0.1269532,0.5371094 0.058594,1.171875 0.1074219,1.64062504 z m 0,0" style="fill:#121619;fill-opacity:1;fill-rule:nonzero;stroke:none" />
      <path id="path30" d="m 6.6315,-6.0947396 v 7.8027344 h 0.5175781 v -7.8027344 z m 0,0" style="fill:#121619;fill-opacity:1;fill-rule:nonzero;stroke:none" />
      <path id="path31" d="m 12.236969,-2.5400521 c 0,-0.859375 -0.08789,-1.3769531 -0.351563,-1.8847656 -0.351562,-0.703125 -0.996093,-0.8789063 -1.435547,-0.8789063 -1.005859,0 -1.3671871,0.7519532 -1.4843746,0.9765625 C 8.6822813,-3.7509896 8.66275,-2.959974 8.66275,-2.5400521 c 0,0.5273438 0.029297,1.328125 0.4101563,1.96289064 0.3710937,0.59570313 0.9570317,0.7421875 1.3769527,0.7421875 0.38086,0 1.074219,-0.1171875 1.464844,-0.90820312 0.302735,-0.57617192 0.322266,-1.27929692 0.322266,-1.79687502 z m -1.78711,2.48046877 c -0.273437,0 -0.8203121,-0.12695313 -0.9863277,-0.95703127 -0.087891,-0.4589844 -0.087891,-1.2109375 -0.087891,-1.6210937 0,-0.546875 0,-1.1132813 0.087891,-1.5429688 0.1660156,-0.8203125 0.7910157,-0.8984375 0.9863277,-0.8984375 0.273438,0 0.820313,0.1367188 0.986329,0.859375 0.08789,0.4394531 0.08789,1.0351563 0.08789,1.5820313 0,0.46875 0,1.1816406 -0.08789,1.6308593 -0.175782,0.83984379 -0.722657,0.94726567 -0.986329,0.94726567 z m 0,0" style="fill:#121619;fill-opacity:1;fill-rule:nonzero;stroke:none" />
      <path id="path32" d="m 13.78482,1.7958854 1.435547,-3.984375 -1.435547,-3.9941406 -0.478515,0.1757812 1.435547,3.8183594 -1.435547,3.8085938 z m 3.359375,-7.890625 v 7.8027344 h 0.517578 v -7.8027344 z m 0,0" style="fill:#121619;fill-opacity:1;fill-rule:nonzero;stroke:none" />
      <path id="path33" d="m 22.124664,-1.2802865 c -0.09766,-0.9863281 -0.498047,-1.6308593 -0.507812,-1.640625 -0.175782,-0.2636718 -0.46875,-0.5957031 -0.996094,-0.5957031 -1.035156,0 -1.621094,1.1523438 -1.621094,1.4355469 0,0.068359 0.05859,0.097656 0.117188,0.097656 0.07813,0 0.107421,-0.029297 0.126953,-0.087891 0.234375,-0.7226562 1.02539,-0.8203125 1.269531,-0.8203125 1.279297,0 1.376953,1.3867188 1.376953,2.05078127 0,0.43945312 -0.0293,0.51757812 -0.07813,0.69335937 -0.175781,0.56640625 -0.419922,1.45507816 -0.419922,1.67968746 0,0.019531 0.0098,0.1757813 0.136719,0.1757813 0.08789,0 0.15625,-0.1171875 0.224609,-0.3125 0.234375,-0.74218751 0.302735,-1.26953126 0.351563,-1.63085938 0.01953,-0.16601563 0.46875,-1.49414062 1.210937,-2.89062502 0.09766,-0.1757812 0.09766,-0.1855469 0.09766,-0.2148437 0,-0.00977 0,-0.097656 -0.117188,-0.097656 -0.03906,0 -0.06836,0.00977 -0.08789,0.039063 -0.03906,0.019531 -0.664062,1.1914063 -1.064453,2.2949219 z m 0,0" style="fill:#121619;fill-opacity:1;fill-rule:nonzero;stroke:none" />
      <path id="path34" d="m 26.506988,-0.46973958 c 0,-0.43945313 0,-2.07031252 -1.464843,-2.07031252 -1.464844,0 -1.464844,1.63085939 -1.464844,2.07031252 0,0.4296875 0,2.03124998 1.464844,2.03124998 1.464843,0 1.464843,-1.60156248 1.464843,-2.03124998 z M 25.042145,1.3661979 c -0.253907,0 -0.664063,-0.1171875 -0.800782,-0.61523436 -0.09766,-0.34179687 -0.09766,-0.92773437 -0.09766,-1.29882812 0,-0.40039063 0,-0.85937502 0.07813,-1.18164062 0.15625,-0.5371094 0.605469,-0.6152344 0.820313,-0.6152344 0.273437,0 0.664062,0.1269531 0.800781,0.5859375 0.08789,0.3125 0.08789,0.7519531 0.08789,1.21093752 0,0.38085937 0,0.98632812 -0.09766,1.31835937 -0.166012,0.51757811 -0.5957,0.59570311 -0.791012,0.59570311 z m 0,0" style="fill:#121619;fill-opacity:1;fill-rule:nonzero;stroke:none" />
      <path id="path35" d="m 28.577301,1.7958854 1.435547,-3.984375 -1.435547,-3.9941406 -0.478516,0.1757812 1.435547,3.8183594 -1.435547,3.8085938 z m 0,0" style="fill:#121619;fill-opacity:1;fill-rule:nonzero;stroke:none" />
      <path id="path36" d="m 35.134918,-4.3466927 v 1.8945312 h -1.904297 v 0.5175782 h 1.904297 v 1.89453122 H 35.64273 V -1.9345833 h 1.894532 V -2.4521615 H 35.64273 v -1.8945312 z m 0,0" style="fill:#121619;fill-opacity:1;fill-rule:nonzero;stroke:none" />
      <path id="path37" d="m 44.812652,-4.5322396 c 0,-0.7324219 -0.595703,-1.0839844 -1.259765,-1.0839844 -1.025391,0 -1.78711,1.1621094 -2.011719,2.0410157 l -1.259766,5.0292968 c -0.01953,0.048828 0.04883,0.087891 0.09766,0.087891 0.05859,0 0.126953,0 0.146484,-0.048828 l 0.537109,-2.13867183 c 0.185547,0.4296875 0.556641,0.71289062 1.132813,0.71289062 1.103515,0 2.304687,-0.78125 2.304687,-2.04101559 0,-0.5273438 -0.205078,-0.8789063 -0.595703,-1.2109375 0.03906,0 0.185547,-0.1074219 0.22461,-0.1367188 0.40039,-0.2734375 0.683593,-0.7324219 0.683593,-1.2109375 z m -1.572265,1.3476563 c -0.146485,0.029297 -0.292969,0.039063 -0.439453,0.039063 -0.08789,0 -0.175782,0 -0.263672,-0.029297 0.15625,-0.039063 0.3125,-0.039063 0.458984,-0.039063 0.08789,0 0.166016,0.00977 0.244141,0.029297 z m 1.064453,-1.5039063 c 0,0.4003906 -0.175781,0.8691406 -0.449219,1.1523438 -0.03906,0.039063 -0.214844,0.1855468 -0.253906,0.1953125 -0.22461,-0.039063 -0.400391,-0.097656 -0.634766,-0.097656 -0.205078,0 -0.71289,-0.00977 -0.71289,0.2929688 0,0.2441406 0.458984,0.2246093 0.615234,0.2246093 0.253906,0 0.478516,-0.019531 0.712891,-0.1074218 0.234375,0.1953125 0.361328,0.4492187 0.361328,0.8398437 0,0.4785156 -0.166016,0.9960938 -0.390625,1.31835939 -0.302735,0.41992188 -0.791016,0.71289063 -1.386719,0.71289063 -0.527344,0 -0.947266,-0.40039063 -0.947266,-0.95703122 0,-0.1074219 0.0098,-0.2050782 0.03906,-0.2929688 l 0.527344,-2.1191406 c 0.166015,-0.6933594 0.849609,-1.8652344 1.738281,-1.8652344 0.410156,0 0.78125,0.1953125 0.78125,0.703125 z m 0,0" style="fill:#121619;fill-opacity:1;fill-rule:nonzero;stroke:none" />
      <path id="path38" d="m 46.380035,-6.0947396 v 7.8027344 h 0.517578 v -7.8027344 z m 0,0" style="fill:#121619;fill-opacity:1;fill-rule:nonzero;stroke:none" />
      <path id="path39" d="m 50.58902,-5.0791146 c 0,-0.2148437 -0.0098,-0.2246094 -0.22461,-0.2246094 -0.332031,0.3222657 -0.751953,0.5175782 -1.513672,0.5175782 v 0.2636718 c 0.214844,0 0.644532,0 1.113282,-0.2246093 v 4.09179684 c 0,0.29296875 -0.0293,0.390625 -0.78125,0.390625 H 48.899566 V -9.8958333e-4 C 49.231598,-0.02052083 49.915191,-0.02052083 50.27652,-0.02052083 c 0.351562,0 1.044921,0 1.376953,0.0195312467 V -0.26466146 H 51.37027 c -0.751954,0 -0.78125,-0.0976563 -0.78125,-0.390625 z m 0,0" style="fill:#121619;fill-opacity:1;fill-rule:nonzero;stroke:none" />
      <path id="path40" d="m 53.535797,1.7958854 1.435547,-3.984375 -1.435547,-3.9941406 -0.478516,0.1757812 1.435547,3.8183594 -1.435547,3.8085938 z m 3.359375,-7.890625 v 7.8027344 h 0.517578 v -7.8027344 z m 0,0" style="fill:#121619;fill-opacity:1;fill-rule:nonzero;stroke:none" />
      <path id="path41" d="m 61.875641,-1.2802865 c -0.09766,-0.9863281 -0.498047,-1.6308593 -0.507813,-1.640625 -0.175781,-0.2636718 -0.46875,-0.5957031 -0.996094,-0.5957031 -1.035156,0 -1.621093,1.1523438 -1.621093,1.4355469 0,0.068359 0.05859,0.097656 0.117187,0.097656 0.07813,0 0.107422,-0.029297 0.126953,-0.087891 0.234375,-0.7226562 1.025391,-0.8203125 1.269532,-0.8203125 1.279296,0 1.376953,1.3867188 1.376953,2.05078127 0,0.43945312 -0.0293,0.51757812 -0.07813,0.69335937 -0.175782,0.56640625 -0.419922,1.45507816 -0.419922,1.67968746 0,0.019531 0.0098,0.1757813 0.136719,0.1757813 0.08789,0 0.15625,-0.1171875 0.224609,-0.3125 0.234375,-0.74218751 0.302734,-1.26953126 0.351562,-1.63085938 0.01953,-0.16601563 0.46875,-1.49414062 1.210938,-2.89062502 0.09766,-0.1757812 0.09766,-0.1855469 0.09766,-0.2148437 0,-0.00977 0,-0.097656 -0.117187,-0.097656 -0.03906,0 -0.06836,0.00977 -0.08789,0.039063 -0.03906,0.019531 -0.664062,1.1914063 -1.064453,2.2949219 z m 0,0" style="fill:#121619;fill-opacity:1;fill-rule:nonzero;stroke:none" />
      <path id="path42" d="m 65.115387,-2.3642708 c 0,-0.1757813 -0.0293,-0.1757813 -0.205078,-0.1757813 -0.390625,0.3808594 -1.00586,0.3808594 -1.220704,0.3808594 v 0.234375 c 0.15625,0 0.546875,0 0.908204,-0.1660156 v 3.01757809 c 0,0.19531251 0,0.27343751 -0.615235,0.27343751 h -0.253906 v 0.234375 c 0.322266,-0.019531 0.791016,-0.019531 1.123047,-0.019531 0.341797,0 0.800781,0 1.132812,0.019531 v -0.234375 h -0.253906 c -0.615234,0 -0.615234,-0.078125 -0.615234,-0.27343751 z m 0,0" style="fill:#121619;fill-opacity:1;fill-rule:nonzero;stroke:none" />
      <path id="path43" d="m 68.328277,1.7958854 1.435547,-3.984375 -1.435547,-3.9941406 -0.478515,0.1757812 1.435547,3.8183594 -1.435547,3.8085938 z m 8.798828,-26.8823244 v -0.419922 c -0.986328,0 -1.884765,0.654297 -1.884765,1.601563 v 3.339844 h 0.507812 v -3.34961 c 0,-0.683594 0.654297,-1.171875 1.376953,-1.171875 z m -1.884765,3.935547 v 2.851563 h 0.507812 v -2.851563 z m 0,2.34375 v 2.851563 h 0.507812 v -2.851563 z m 0,2.34375 v 2.851563 h 0.507812 v -2.851563 z m 0,2.34375 v 2.851563 h 0.507812 v -2.851563 z m 0,2.341309 v 2.8515622 h 0.507812 v -2.8515622 z m 0,2.3437497 v 2.8515625 h 0.507812 v -2.8515625 z m 0,2.34375 v 2.8515625 h 0.507812 v -2.8515625 z m 0.507812,2.34375 H 75.24234 v 1.2597656 c 0,0.6347656 -0.605469,1.0742187 -1.289063,1.1035156 h -0.08789 v 0.4589844 c 0.722656,0 1.376953,0.4492187 1.376953,1.12304687 v 1.25 h 0.507812 v -1.25976563 c 0,-0.60546874 -0.361328,-1.07421874 -0.888672,-1.33789064 0.527344,-0.2636719 0.888672,-0.7519531 0.888672,-1.3476562 z M 75.24234,-0.13526693 V 2.7162956 h 0.507812 v -2.85156253 z m 0,2.34130863 v 2.8515625 h 0.507812 V 2.2060417 Z m 0,2.34375 v 2.8515625 h 0.507812 V 4.5497917 Z m 0,2.34375 v 2.8515625 h 0.507812 V 6.8935417 Z m 0,2.34375 v 2.8515623 h 0.507812 V 9.2372917 Z m 0,2.3413083 v 2.851563 h 0.507812 V 11.5786 Z m 0,2.34375 v 2.851563 h 0.507812 V 13.92235 Z m 1.884765,7.285157 v -0.429688 c -0.722656,0 -1.376953,-0.488281 -1.376953,-1.171875 V 16.2661 H 75.24234 v 3.339844 c 0,0.947266 0.898437,1.601563 1.884765,1.601563 z m 0,0" style="fill:#121619;fill-opacity:1;fill-rule:nonzero;stroke:none" />
    </g>
    <path id="path44" d="M -26.87193,57.544 28.3468,0.85039" style="fill:none;stroke:#121619;stroke-width:0.3985;stroke-linecap:butt;stroke-linejoin:miter;stroke-miterlimit:10;stroke-dasharray:none;stroke-opacity:1" transform="matrix(1.6,0,0,-1.6,391.688,201.19733)" />
    <path id="path45" d="M -26.87193,55.84322 28.3468,-0.85039" style="fill:none;stroke:#121619;stroke-width:0.3985;stroke-linecap:butt;stroke-linejoin:miter;stroke-miterlimit:10;stroke-dasharray:none;stroke-opacity:1" transform="matrix(1.6,0,0,-1.6,391.688,201.19733)" />
    <path id="path46" d="M -26.87193,29.1972 0,0.85039" style="fill:none;stroke:#121619;stroke-width:0.3985;stroke-linecap:butt;stroke-linejoin:miter;stroke-miterlimit:10;stroke-dasharray:none;stroke-opacity:1" transform="matrix(1.6,0,0,-1.6,391.688,201.19733)" />
    <path id="path47" d="M -26.87193,27.4964 0,-0.85039" style="fill:none;stroke:#121619;stroke-width:0.3985;stroke-linecap:butt;stroke-linejoin:miter;stroke-miterlimit:10;stroke-dasharray:none;stroke-opacity:1" transform="matrix(1.6,0,0,-1.6,391.688,201.19733)" />
    <path id="path48" d="m -72.28433,48.18958 h 17.00806 v 17.00806 h -17.00806 z" style="fill:#78a9ff;fill-opacity:1;fill-rule:nonzero;stroke:#78a9ff;stroke-width:0.3985;stroke-linecap:butt;stroke-linejoin:miter;stroke-miterlimit:10;stroke-dasharray:none;stroke-opacity:1" transform="matrix(1.6,0,0,-1.6,391.688,201.19733)" />
    <path id="path49" d="m 6.366957,-4.7959115 c 0.078125,-0.3125 0.097656,-0.3808593 0.6542969,-0.3808593 0.1855469,0 0.2734375,0 0.2734375,-0.15625 0,-0.00977 0,-0.1074219 -0.1269531,-0.1074219 -0.15625,0 -0.3515625,0.00977 -0.4980469,0.019531 H 6.1716445 c -0.7714843,0 -0.9765625,-0.019531 -1.0351562,-0.019531 -0.029297,0 -0.15625,0 -0.15625,0.1464844 0,0.1171875 0.1074219,0.1171875 0.234375,0.1171875 0.2636719,0 0.4882812,0 0.4882812,0.1269531 0,0.029297 -0.00977,0.039063 -0.029297,0.1367187 L 5.195082,-2.9697396 H 2.6267227 l 0.46875,-1.8554687 c 0.068359,-0.2832032 0.087891,-0.3515625 0.6640625,-0.3515625 0.15625,0 0.2539062,0 0.2539062,-0.15625 0,-0.00977 -0.00977,-0.1074219 -0.1367187,-0.1074219 -0.1464844,0 -0.3417969,0.00977 -0.4882813,0.019531 H 2.8806289 c -0.7617187,0 -0.9667969,-0.019531 -1.0253906,-0.019531 -0.029297,0 -0.15625,0 -0.15625,0.1464844 0,0.1171875 0.097656,0.1171875 0.2246094,0.1171875 0.2636718,0 0.4980468,0 0.4980468,0.1269531 0,0.029297 -0.00977,0.039063 -0.029297,0.1367187 l -1.0742188,4.28710942 c -0.068359,0.30273437 -0.087891,0.36132812 -0.67382812,0.36132812 -0.14648437,0 -0.24414062,0 -0.24414062,0.15625 0,0.02929688 0.0195313,0.10742187667 0.12695312,0.10742187667 0.14648438,0 0.34179688,-0.0195312467 0.48828122,-0.0195312467 h 0.5175782 c 0.7617187,0 0.9667968,0.0195312467 1.0253906,0.0195312467 0.048828,0 0.15625,0 0.15625,-0.15624999667 0,-0.10742188 -0.097656,-0.10742188 -0.234375,-0.10742188 -0.029297,0 -0.1660156,0 -0.3027344,-0.0195313 -0.1660156,-0.009766 -0.1855469,-0.0390625 -0.1855469,-0.10742187 0,-0.0390625 0.019531,-0.0878906 0.019531,-0.12695313 l 0.546875,-2.18750004 h 2.5683594 c -0.234375,0.9472657 -0.546875,2.18750004 -0.5566407,2.18750004 -0.068359,0.24414063 -0.2148437,0.24414063 -0.6933593,0.25390625 -0.087891,0 -0.1953125,0 -0.1953125,0.15625 0,0.02929688 0.019531,0.10742187667 0.1269531,0.10742187667 0.15625,0 0.3417969,-0.0195312467 0.4980469,-0.0195312467 h 0.5078125 c 0.7617187,0 0.9667968,0.0195312467 1.0253906,0.0195312467 0.048828,0 0.15625,0 0.15625,-0.15624999667 0,-0.10742188 -0.097656,-0.10742188 -0.234375,-0.10742188 -0.019531,0 -0.1660156,0 -0.3027344,-0.0195313 -0.1660156,-0.009766 -0.1855469,-0.0390625 -0.1855469,-0.10742187 0,-0.0390625 0.019531,-0.0878906 0.029297,-0.12695313 z m 0,0" style="fill:#ffffff;fill-opacity:1;fill-rule:nonzero;stroke:none" aria-label="H" transform="matrix(1.6,0,0,1.6,283.5824,114.84533)" />
    <path id="path50" d="m -89.63641,56.69362 c 0,1.37558 -1.11512,2.49069 -2.49069,2.49069 -1.3756,0 -2.4907,-1.11511 -2.4907,-2.49069 0,-1.3756 1.1151,-2.49069 2.4907,-2.49069 1.37557,0 2.49069,1.11509 2.49069,2.49069 z" style="fill:#78a9ff;fill-opacity:1;fill-rule:nonzero;stroke:none" transform="matrix(1.6,0,0,-1.6,391.688,201.19733)" />
    <path id="path51" d="m -86.14944,28.3468 c 0,3.30141 -2.67626,5.97766 -5.97766,5.97766 -3.30143,0 -5.97767,-2.67625 -5.97767,-5.97766 0,-3.3014 2.67624,-5.97766 5.97767,-5.97766 3.3014,0 5.97766,2.67626 5.97766,5.97766 z" style="fill:#78a9ff;fill-opacity:1;fill-rule:nonzero;stroke:#78a9ff;stroke-width:0.3985;stroke-linecap:butt;stroke-linejoin:miter;stroke-miterlimit:10;stroke-dasharray:none;stroke-opacity:1" transform="matrix(1.6,0,0,-1.6,391.688,201.19733)" />
    <path id="path52" d="m 4.7062383,-7.8231224 v 3.4179688 H 1.2882695 v 0.9179687 h 3.4179688 v 3.41796875 H 5.624207 V -3.4871849 H 9.0324102 V -4.4051536 H 5.624207 v -3.4179688 z m 0,0" style="fill:#ffffff;fill-opacity:1;fill-rule:nonzero;stroke:none" aria-label="+" transform="matrix(1.6,0,0,1.6,236.0208,162.10293)" />
    <path id="path53" d="M -92.1271,56.69362 V 34.52371" style="fill:none;stroke:#78a9ff;stroke-width:0.79701;stroke-linecap:butt;stroke-linejoin:miter;stroke-miterlimit:10;stroke-dasharray:none;stroke-opacity:1" transform="matrix(1.6,0,0,-1.6,391.688,201.19733)" />
    <path id="path54" d="m 30.33936,0 c 0,1.10046 -0.89208,1.99255 -1.99256,1.99255 -1.10046,0 -1.99255,-0.89209 -1.99255,-1.99255 0,-1.10046 0.89209,-1.99255 1.99255,-1.99255 1.10048,0 1.99256,0.89209 1.99256,1.99255 z" style="fill:#121619;fill-opacity:1;fill-rule:nonzero;stroke:none" transform="matrix(1.6,0,0,-1.6,391.688,201.19733)" />
    <path id="path55" d="M 1.99255,0 C 1.99255,1.10046 1.10046,1.99255 0,1.99255 -1.10046,1.99255 -1.99255,1.10046 -1.99255,0 c 0,-1.10046 0.89209,-1.99255 1.99255,-1.99255 1.10046,0 1.99255,0.89209 1.99255,1.99255 z" style="fill:#121619;fill-opacity:1;fill-rule:nonzero;stroke:none" transform="matrix(1.6,0,0,-1.6,391.688,201.19733)" />
    <path id="path56" d="M -0.56693,0 V -19.64352" style="fill:none;stroke:#121619;stroke-width:0.3985;stroke-linecap:butt;stroke-linejoin:miter;stroke-miterlimit:10;stroke-dasharray:none;stroke-opacity:1" transform="matrix(1.6,0,0,-1.6,391.688,201.19733)" />
    <path id="path57" d="M 27.77988,0 V -19.64352" style="fill:none;stroke:#121619;stroke-width:0.3985;stroke-linecap:butt;stroke-linejoin:miter;stroke-miterlimit:10;stroke-dasharray:none;stroke-opacity:1" transform="matrix(1.6,0,0,-1.6,391.688,201.19733)" />
    <path id="path58" d="M 0.56693,0 V -19.64352" style="fill:none;stroke:#121619;stroke-width:0.3985;stroke-linecap:butt;stroke-linejoin:miter;stroke-miterlimit:10;stroke-dasharray:none;stroke-opacity:1" transform="matrix(1.6,0,0,-1.6,391.688,201.19733)" />
    <path id="path59" d="M 28.91373,0 V -19.64352" style="fill:none;stroke:#121619;stroke-width:0.3985;stroke-linecap:butt;stroke-linejoin:miter;stroke-miterlimit:10;stroke-dasharray:none;stroke-opacity:1" transform="matrix(1.6,0,0,-1.6,391.688,201.19733)" />
    <path id="path60" d="m 5.3913789,-0.00111068 -2.1875,-5.52734372 H 2.4323945 L 0.23512891,-0.00111068 H 0.88942578 L 1.5144258,-1.5831419 h 2.421875 l 0.625,1.58203122 z M 3.7409883,-2.0518919 h -2.03125 l 1.0253906,-2.8710938 z m 3.2397461,2.05078122 V -5.5284544 H 6.3166719 v 5.52734372 z m 2.0166015,0 V -3.5362669 H 8.3332734 v 3.53515622 z M 9.0656953,-4.4640013 V -5.2647826 H 8.2649141 v 0.8007813 z m 4.1259767,4.1796875 -0.04883,-0.5859375 c -0.400391,0.25390625 -0.830078,0.40039062 -1.31836,0.40039062 -0.742187,0 -1.171875,-0.59570312 -1.171875,-1.30859372 0,-0.6152344 0.322266,-1.328125 1.191407,-1.328125 0.537109,0 0.800781,0.1074218 1.201172,0.3613281 l 0.107421,-0.5664063 c -0.478515,-0.2441406 -0.683593,-0.3515625 -1.308593,-0.3515625 -1.191407,0 -1.884766,0.9667969 -1.884766,1.8945313 0,0.96679687 0.771484,1.84570312 1.855469,1.84570312 0.55664,0 1.035156,-0.16601562 1.376953,-0.36132812 z m 3.752441,-1.4648438 c 0,-0.3613281 -0.03906,-0.8984375 -0.351562,-1.3476562 -0.283203,-0.4101563 -0.761719,-0.5664063 -1.152344,-0.5664063 -0.976562,0 -1.71875,0.859375 -1.71875,1.8652344 0,1.02539065 0.791016,1.87500002 1.845703,1.87500002 0.458985,0 0.9375,-0.13671875 1.347656,-0.38085937 l -0.04883,-0.56640625 c -0.449218,0.32226562 -0.947265,0.41992187 -1.289062,0.41992187 -0.69336,0 -1.220703,-0.56640627 -1.25,-1.29882817 z M 16.455832,-2.2276732 H 14.38552 c 0.185546,-0.6347656 0.654296,-0.9082031 1.054687,-0.9082031 0.351563,0 0.869141,0.1660156 1.015625,0.9082031 z m 0,0" style="fill:#121619;fill-opacity:1;fill-rule:nonzero;stroke:none" aria-label="Alice" transform="matrix(1.6,0,0,1.6,491.3152,169.28693)" />
    <path id="path61" d="m 5.1663789,-1.4936224 c 0,-0.703125 -0.7421875,-1.2695312 -1.6308594,-1.3964844 0.8300782,-0.2050781 1.3867188,-0.6835937 1.3867188,-1.25 0,-0.7324218 -0.9179688,-1.3867187 -2.0898438,-1.3867187 H 0.80114453 V 5.1822917e-4 H 3.0667695 c 1.1816407,0 2.0996094,-0.70312499917 2.0996094,-1.49414062917 z m -0.9375,-2.6464844 c 0,0.5371094 -0.7226562,0.9960938 -1.6210937,0.9960938 H 1.543332 v -1.9140625 h 1.0546875 c 0.8886719,0 1.6308594,0.4101562 1.6308594,0.9179687 z m 0.2148438,2.6367188 c 0,0.58593748 -0.7421875,1.03515623 -1.6210938,1.03515623 H 1.543332 V -2.6166693 h 1.1425782 c 1.0058593,0 1.7578125,0.5175782 1.7578125,1.1132813 z m 5.1831054,-0.2441406 c 0,-1.0449219 -0.8398437,-1.9140625 -1.875,-1.9140625 -1.0351562,0 -1.875,0.8691406 -1.875,1.9140625 0,1.01562495 0.8496094,1.82617183 1.875,1.82617183 1.0351563,0 1.875,-0.81054688 1.875,-1.82617183 z m -0.6933593,-0.087891 c 0,0.90820315 -0.5664063,1.36718753 -1.1816407,1.36718753 -0.625,0 -1.1816406,-0.45898438 -1.1816406,-1.36718753 0,-0.8984375 0.5957031,-1.2988281 1.1816406,-1.2988281 0.5957032,0 1.1816407,0.4199219 1.1816407,1.2988281 z m 5.0244142,0.058594 c 0,-0.9667969 -0.556641,-1.8359375 -1.347656,-1.8359375 -0.507813,0 -0.986329,0.15625 -1.386719,0.4492187 V -5.5268255 H 10.54968 V 5.1822917e-4 h 0.693359 V -0.37057552 c 0.175781,0.14648437 0.556641,0.44921875 1.142578,0.44921875 0.869141,0 1.572266,-0.81054688 1.572266,-1.85546883 z m -0.69336,0 c 0,0.97656248 -0.664062,1.32812498 -1.220703,1.32812498 -0.292968,0 -0.576172,-0.13671875 -0.800781,-0.48828125 V -2.5092474 c 0,-0.1269531 0,-0.2246094 0.283203,-0.4101562 0.117188,-0.068359 0.332031,-0.1757813 0.605469,-0.1757813 0.537109,0 1.132812,0.3613281 1.132812,1.3183593 z m 0,0" style="fill:#121619;fill-opacity:1;fill-rule:nonzero;stroke:none" aria-label="Bob" transform="matrix(1.6,0,0,1.6,493.6752,196.47573)" />
    <path id="path62" d="M -106.30052,106.30052 V -42.5202" style="fill:none;stroke:#121619;stroke-width:0.3985;stroke-linecap:butt;stroke-linejoin:miter;stroke-miterlimit:10;stroke-dasharray:0.3985, 0.99628;stroke-dashoffset:0;stroke-opacity:1" transform="matrix(1.6,0,0,-1.6,391.688,201.19733)" />
    <g id="g62" aria-label="∣π&#10;0&#10;⟩" transform="matrix(1.6,0,0,1.6,209.3712,290.35733)">
      <path id="path63" d="M 1.1913398,-6.0949154 V 1.707819 H 1.708918 v -7.8027344 z m 0,0" style="fill:#121619;fill-opacity:1;fill-rule:nonzero;stroke:none" />
      <path id="path64" d="M 5.1659492,-2.9113216 H 6.083918 c -0.1757813,0.7226562 -0.3125,1.3183594 -0.3125,1.9042969 0,0.0585937 0,0.40039059 0.087891,0.68359371 0.097656,0.34179688 0.1855469,0.40039063 0.3222656,0.40039063 0.1757813,0 0.3613281,-0.14648438 0.3613281,-0.34179688 0,-0.0585938 -0.00977,-0.0683594 -0.039063,-0.14648437 C 6.3378242,-0.77264974 6.2108711,-1.1535091 6.2108711,-1.807806 c 0,-0.1855469 0,-0.5175781 0.1269531,-1.1035156 h 0.9570313 c 0.1269531,0 0.2148437,0 0.3027343,-0.058594 0.087891,-0.087891 0.1171875,-0.1953125 0.1171875,-0.2441406 0,-0.2246094 -0.2050781,-0.2246094 -0.3320312,-0.2246094 H 4.5018867 c -0.1660156,0 -0.46875,0 -0.859375,0.3808594 -0.2832031,0.2929688 -0.5078125,0.6542969 -0.5078125,0.7128906 0,0.068359 0.048828,0.097656 0.1171875,0.097656 0.078125,0 0.097656,-0.029297 0.1464844,-0.087891 0.390625,-0.5761719 0.859375,-0.5761719 1.0351562,-0.5761719 h 0.46875 c -0.234375,0.8496094 -0.6542968,1.8066406 -0.9472656,2.39257811 -0.058594,0.1171875 -0.1367187,0.28320313 -0.1367187,0.3515625 0,0.16601563 0.1367187,0.24414063 0.2636718,0.24414063 0.3027344,0 0.3808594,-0.30273438 0.546875,-0.95703125 z m 0,0" style="fill:#121619;fill-opacity:1;fill-rule:nonzero;stroke:none" />
      <path id="path65" d="m 11.054621,-0.46991536 c 0,-0.43945313 0,-2.07031254 -1.4648437,-2.07031254 -1.4648437,0 -1.4648437,1.63085941 -1.4648437,2.07031254 0,0.4296875 0,2.03124996 1.4648437,2.03124996 1.4648437,0 1.4648437,-1.60156246 1.4648437,-2.03124996 z M 9.5897773,1.3660221 c -0.2539062,0 -0.6640625,-0.1171875 -0.8007812,-0.61523434 -0.097656,-0.34179687 -0.097656,-0.92773437 -0.097656,-1.29882812 0,-0.40039063 0,-0.85937504 0.078125,-1.18164064 0.15625,-0.5371094 0.6054688,-0.6152344 0.8203125,-0.6152344 0.2734375,0 0.6640624,0.1269532 0.8007814,0.5859375 0.08789,0.3125 0.08789,0.7519532 0.08789,1.21093754 0,0.38085937 0,0.98632812 -0.09766,1.31835937 C 10.214777,1.2878971 9.7850898,1.3660221 9.5897773,1.3660221 Z m 0,0" style="fill:#121619;fill-opacity:1;fill-rule:nonzero;stroke:none" />
      <path id="path66" d="m 13.124934,1.7957096 1.435546,-3.984375 -1.435546,-3.9941406 -0.478516,0.1757813 1.435547,3.8183593 -1.435547,3.8085938 z m 0,0" style="fill:#121619;fill-opacity:1;fill-rule:nonzero;stroke:none" />
    </g>
    <path id="path67" d="M -77.95372,106.30052 V -42.5202" style="fill:none;stroke:#121619;stroke-width:0.3985;stroke-linecap:butt;stroke-linejoin:miter;stroke-miterlimit:10;stroke-dasharray:0.3985, 0.99628;stroke-dashoffset:0;stroke-opacity:1" transform="matrix(1.6,0,0,-1.6,391.688,201.19733)" />
    <g id="g67" aria-label="∣π&#10;1&#10;⟩" transform="matrix(1.6,0,0,1.6,254.7264,290.35733)">
      <path id="path68" d="M 1.1915078,-6.0949154 V 1.707819 h 0.5175781 v -7.8027344 z m 0,0" style="fill:#121619;fill-opacity:1;fill-rule:nonzero;stroke:none" />
      <path id="path69" d="m 5.1661172,-2.9113216 h 0.9179687 c -0.1757812,0.7226562 -0.3125,1.3183594 -0.3125,1.9042969 0,0.0585937 0,0.40039059 0.087891,0.68359371 0.097656,0.34179688 0.1855468,0.40039063 0.3222656,0.40039063 0.1757812,0 0.3613281,-0.14648438 0.3613281,-0.34179688 0,-0.0585938 -0.00977,-0.0683594 -0.039063,-0.14648437 C 6.3379922,-0.77264974 6.2110391,-1.1535091 6.2110391,-1.807806 c 0,-0.1855469 0,-0.5175781 0.1269531,-1.1035156 h 0.9570312 c 0.1269532,0 0.2148438,0 0.3027344,-0.058594 0.087891,-0.087891 0.1171875,-0.1953125 0.1171875,-0.2441406 0,-0.2246094 -0.2050781,-0.2246094 -0.3320312,-0.2246094 H 4.5020547 c -0.1660156,0 -0.46875,0 -0.859375,0.3808594 -0.2832031,0.2929688 -0.5078125,0.6542969 -0.5078125,0.7128906 0,0.068359 0.048828,0.097656 0.1171875,0.097656 0.078125,0 0.097656,-0.029297 0.1464844,-0.087891 0.390625,-0.5761719 0.859375,-0.5761719 1.0351562,-0.5761719 h 0.46875 c -0.234375,0.8496094 -0.6542969,1.8066406 -0.9472656,2.39257811 -0.058594,0.1171875 -0.1367188,0.28320313 -0.1367188,0.3515625 0,0.16601563 0.1367188,0.24414063 0.2636719,0.24414063 0.3027344,0 0.3808594,-0.30273438 0.546875,-0.95703125 z m 0,0" style="fill:#121619;fill-opacity:1;fill-rule:nonzero;stroke:none" />
      <path id="path70" d="m 9.9122109,-2.3644466 c 0,-0.1757813 -0.029297,-0.1757813 -0.2050781,-0.1757813 -0.390625,0.3808594 -1.0058594,0.3808594 -1.2207031,0.3808594 v 0.234375 c 0.15625,0 0.546875,0 0.9082031,-0.1660156 v 3.01757811 c 0,0.19531249 0,0.27343749 -0.6152344,0.27343749 H 8.5254922 v 0.234375 c 0.3222656,-0.019531 0.7910156,-0.019531 1.1230469,-0.019531 0.3417968,0 0.8007809,0 1.1328129,0.019531 v -0.234375 h -0.253907 c -0.6152341,0 -0.6152341,-0.078125 -0.6152341,-0.27343749 z m 0,0" style="fill:#121619;fill-opacity:1;fill-rule:nonzero;stroke:none" />
      <path id="path71" d="m 13.125102,1.7957096 1.435546,-3.984375 -1.435546,-3.9941406 -0.478516,0.1757813 1.435547,3.8183593 -1.435547,3.8085938 z m 0,0" style="fill:#121619;fill-opacity:1;fill-rule:nonzero;stroke:none" />
    </g>
    <path id="path72" d="M -49.6069,106.30052 V -42.5202" style="fill:none;stroke:#121619;stroke-width:0.3985;stroke-linecap:butt;stroke-linejoin:miter;stroke-miterlimit:10;stroke-dasharray:0.3985, 0.99628;stroke-dashoffset:0;stroke-opacity:1" transform="matrix(1.6,0,0,-1.6,391.688,201.19733)" />
    <g id="g72" aria-label="∣π&#10;2&#10;⟩" transform="matrix(1.6,0,0,1.6,300.0816,290.35733)">
      <path id="path73" d="M 1.1916758,-6.0949154 V 1.707819 h 0.5175781 v -7.8027344 z m 0,0" style="fill:#121619;fill-opacity:1;fill-rule:nonzero;stroke:none" />
      <path id="path74" d="m 5.1662852,-2.9113216 h 0.9179687 c -0.1757812,0.7226562 -0.3125,1.3183594 -0.3125,1.9042969 0,0.0585937 0,0.40039059 0.087891,0.68359371 0.097656,0.34179688 0.1855469,0.40039063 0.3222657,0.40039063 0.1757812,0 0.3613281,-0.14648438 0.3613281,-0.34179688 0,-0.0585938 -0.00977,-0.0683594 -0.039063,-0.14648437 C 6.3381602,-0.77264974 6.211207,-1.1535091 6.211207,-1.807806 c 0,-0.1855469 0,-0.5175781 0.1269532,-1.1035156 h 0.9570312 c 0.1269531,0 0.2148438,0 0.3027344,-0.058594 0.087891,-0.087891 0.1171875,-0.1953125 0.1171875,-0.2441406 0,-0.2246094 -0.2050781,-0.2246094 -0.3320313,-0.2246094 H 4.5022227 c -0.1660157,0 -0.46875,0 -0.859375,0.3808594 -0.2832032,0.2929688 -0.5078125,0.6542969 -0.5078125,0.7128906 0,0.068359 0.048828,0.097656 0.1171875,0.097656 0.078125,0 0.097656,-0.029297 0.1464843,-0.087891 0.390625,-0.5761719 0.859375,-0.5761719 1.0351563,-0.5761719 h 0.46875 c -0.234375,0.8496094 -0.6542969,1.8066406 -0.9472656,2.39257811 -0.058594,0.1171875 -0.1367188,0.28320313 -0.1367188,0.3515625 0,0.16601563 0.1367188,0.24414063 0.2636719,0.24414063 0.3027344,0 0.3808594,-0.30273438 0.546875,-0.95703125 z m 0,0" style="fill:#121619;fill-opacity:1;fill-rule:nonzero;stroke:none" />
      <path id="path75" d="m 10.976832,0.32110026 h -0.214844 c -0.01953,0.078125 -0.07813,0.47851563 -0.166015,0.53710938 -0.03906,0.0390625 -0.527344,0.0390625 -0.6054691,0.0390625 H 8.867457 l 0.7714844,-0.625 c 0.1953125,-0.15625 0.7324216,-0.53710938 0.9179686,-0.72265625 0.175781,-0.17578125 0.419922,-0.47851563 0.419922,-0.90820309 0,-0.7421875 -0.673828,-1.1816407 -1.4746093,-1.1816407 -0.7714844,0 -1.3085938,0.5078125 -1.3085938,1.0742188 0,0.3027344 0.2539063,0.3320312 0.3222656,0.3320312 0.1464844,0 0.3222657,-0.1074218 0.3222657,-0.3222656 0,-0.1269531 -0.078125,-0.3222656 -0.3417969,-0.3222656 0.1367187,-0.3027344 0.5078125,-0.5273438 0.9179687,-0.5273438 0.625,0 0.957031,0.46875 0.957031,0.9472657 0,0.42968746 -0.273437,0.85937496 -0.6933591,1.24023434 L 8.2619883,1.1804753 c -0.058594,0.058594 -0.068359,0.068359 -0.068359,0.2539062 h 2.5976557 z m 0,0" style="fill:#121619;fill-opacity:1;fill-rule:nonzero;stroke:none" />
      <path id="path76" d="m 13.12527,1.7957096 1.435546,-3.984375 -1.435546,-3.9941406 -0.478516,0.1757813 1.435547,3.8183593 -1.435547,3.8085938 z m 0,0" style="fill:#121619;fill-opacity:1;fill-rule:nonzero;stroke:none" />
    </g>
  </g>
</svg>