<?xml version="1.0" encoding="UTF-8"?><!DOCTYPE svg  PUBLIC '-//W3C//DTD SVG 1.1//EN'  'http://www.w3.org/Graphics/SVG/1.1/DTD/svg11.dtd'><svg width="220.14pt" height="125.65pt" version="1.1" viewBox="0 0 220.14 125.65" xmlns="http://www.w3.org/2000/svg" xmlns:xlink="http://www.w3.org/1999/xlink"><defs><style type="text/css">*{stroke-linejoin: round; stroke-linecap: butt}</style></defs><path d="m0 125.65h220.14v-125.65h-220.14z" fill="#ffffff"/><path d="m64.609 44.283h143.7" clip-path="url(#a4fcf00be00)" fill="none" stroke="#000000" stroke-linecap="square" stroke-width="2"/><path d="m73.88 95.273 4.6354-9.2708" clip-path="url(#a4fcf00be00)" fill="none" stroke="#778899" stroke-linecap="square" stroke-width="1.5"/><path d="m64.609 89.131h143.7" clip-path="url(#a4fcf00be00)" fill="none" stroke="#778899" stroke-linecap="square" stroke-width="2"/><path d="m64.609 92.144h143.7" clip-path="url(#a4fcf00be00)" fill="none" stroke="#778899" stroke-linecap="square" stroke-width="2"/><path d="m176.32 80.092h12.052l-6.026 8.6914z" clip-path="url(#a4fcf00be00)" fill="#778899"/><path d="m78.052 63.984h76.484q4.6354 0 4.6354-4.6354v-30.13q0-4.6354-4.6354-4.6354h-76.484q-4.6354 0-4.6354 4.6354v30.13q0 4.6354 4.6354 4.6354z" clip-path="url(#a4fcf00be00)" fill="none" stroke="#fa4d56" stroke-width="3"/><g clip-path="url(#a4fcf00be00)"><g transform="translate(74.344 38.6) scale(.13 -.13)"><defs><path id="DejaVuSans-46" transform="scale(.015625)" d="m628 4666h2681v-532h-2050v-1375h1850v-531h-1850v-2228h-631v4666z"/><path id="DejaVuSans-6f" transform="scale(.015625)" d="m1959 3097q-462 0-731-361t-269-989 267-989q268-361 733-361 460 0 728 362 269 363 269 988 0 622-269 986-268 364-728 364zm0 487q750 0 1178-488 429-487 429-1349 0-859-429-1349-428-489-1178-489-753 0-1180 489-426 490-426 1349 0 862 426 1349 427 488 1180 488z"/><path id="DejaVuSans-72" transform="scale(.015625)" d="m2631 2963q-97 56-211 82-114 27-251 27-488 0-749-317t-261-911v-1844h-578v3500h578v-544q182 319 472 473 291 155 707 155 59 0 131-8 72-7 159-23l3-590z"/></defs><use xlink:href="#DejaVuSans-20"/><use transform="translate(31.787)" xlink:href="#DejaVuSans-46"/><use transform="translate(85.682)" xlink:href="#DejaVuSans-6f"/><use transform="translate(146.86)" xlink:href="#DejaVuSans-72"/></g></g><g clip-path="url(#a4fcf00be00)"><g transform="translate(76.198 55.761) scale(.08 -.08)"><defs><path id="DejaVuSans-28" transform="scale(.015625)" d="m1984 4856q-418-718-622-1422-203-703-203-1425 0-721 205-1429t620-1424h-500q-468 735-701 1444t-233 1409q0 697 231 1403 232 707 703 1444h500z"/><path id="DejaVuSans-30" transform="scale(.015625)" d="m2034 4250q-487 0-733-480-245-479-245-1442 0-959 245-1439 246-480 733-480 491 0 736 480 246 480 246 1439 0 963-246 1442-245 480-736 480zm0 500q785 0 1199-621 414-620 414-1801 0-1178-414-1799-414-620-1199-620-784 0-1198 620-414 621-414 1799 0 1181 414 1801 414 621 1198 621z"/><path id="DejaVuSans-2c" transform="scale(.015625)" d="m750 794h659v-538l-512-1e3h-403l256 1e3v538z"/><path id="DejaVuSans-35" transform="scale(.015625)" d="m691 4666h2478v-532h-1900v-1143q137 47 274 70 138 23 276 23 781 0 1237-428 457-428 457-1159 0-753-469-1171-469-417-1322-417-294 0-599 50-304 50-629 150v635q281-153 581-228t634-75q541 0 856 284 316 284 316 772 0 487-316 771-315 285-856 285-253 0-505-56-251-56-513-175v2344z"/><path id="DejaVuSans-29" transform="scale(.015625)" d="m513 4856h500q468-737 701-1444 233-706 233-1403 0-700-233-1409t-701-1444h-500q415 716 620 1424t205 1429q0 722-205 1425-205 704-620 1422z"/></defs><use xlink:href="#DejaVuSans-72"/><use transform="translate(41.113)" xlink:href="#DejaVuSans-28"/><use transform="translate(80.127)" xlink:href="#DejaVuSans-30"/><use transform="translate(143.75)" xlink:href="#DejaVuSans-2c"/><use transform="translate(175.54)" xlink:href="#DejaVuSans-20"/><use transform="translate(207.32)" xlink:href="#DejaVuSans-35"/><use transform="translate(270.95)" xlink:href="#DejaVuSans-29"/></g></g><path d="m-1004.3 203.05q4.6354 0 4.6354-4.6354 0-34.765-4.6354-34.765-81.119 0-81.119 4.6354 0 34.765 4.6354 34.765" clip-path="url(#a4fcf00be00)" fill="none" stroke="#fa4d56" stroke-width="3"/><g clip-path="url(#a4fcf00be00)"><g transform="translate(-1084.5 177.66) scale(.13 -.13)"><use xlink:href="#DejaVuSans-20"/><use transform="translate(31.787)" xlink:href="#DejaVuSans-46"/><use transform="translate(85.682)" xlink:href="#DejaVuSans-6f"/><use transform="translate(146.86)" xlink:href="#DejaVuSans-72"/></g></g><g clip-path="url(#a4fcf00be00)"><g transform="translate(-1082.7 194.82) scale(.08 -.08)"><use xlink:href="#DejaVuSans-72"/><use transform="translate(41.113)" xlink:href="#DejaVuSans-28"/><use transform="translate(80.127)" xlink:href="#DejaVuSans-30"/><use transform="translate(143.75)" xlink:href="#DejaVuSans-2c"/><use transform="translate(175.54)" xlink:href="#DejaVuSans-20"/><use transform="translate(207.32)" xlink:href="#DejaVuSans-35"/><use transform="translate(270.95)" xlink:href="#DejaVuSans-29"/></g></g><path d="m59.974 21.106h-1158.8v139.06h1158.8z" clip-path="url(#a4fcf00be00)" fill="#ffffff" stroke="#ffffff" stroke-width="1.5"/><path d="m183.85 44.283v35.808" clip-path="url(#a4fcf00be00)" fill="none" stroke="#778899" stroke-linecap="square" stroke-width="2"/><path d="m180.84 44.283v35.808" clip-path="url(#a4fcf00be00)" fill="none" stroke="#778899" stroke-linecap="square" stroke-width="2"/><path d="m167.28 59.348h30.13v-30.13h-30.13z" clip-path="url(#a4fcf00be00)" fill="#a8a8a8" stroke="#a8a8a8" stroke-width="1.5"/><path d="m192.89 48.803c0-2.7958-1.1118-5.4799-3.0887-7.4568s-4.661-3.0887-7.4568-3.0887-5.4799 1.1118-7.4568 3.0887-3.0887 4.661-3.0887 7.4568" clip-path="url(#a4fcf00be00)" fill="none" stroke="#000000" stroke-width="2"/><path d="m182.35 48.803 10.546-10.546" clip-path="url(#a4fcf00be00)" fill="none" stroke="#000000" stroke-linecap="square" stroke-width="2"/><path d="m120.93 59.348h30.13v-30.13h-30.13z" clip-path="url(#a4fcf00be00)" fill="#002d9c" stroke="#002d9c" stroke-width="1.5"/><g clip-path="url(#a4fcf00be00)"><g transform="translate(34.538 48.734) scale(.1625 -.1625)"><defs><path id="DejaVuSans-Oblique-71" transform="scale(.015625)" d="m2669 525q-231-303-546-460-314-156-695-156-531 0-833 358-301 358-301 986 0 506 186 978t533 847q225 244 517 375t614 131q387 0 637-153t363-462l100 525h578l-934-4813h-579l360 1844zm-1778 813q0-463 193-705 194-242 560-242 544 0 928 520t384 1264q0 450-199 689-198 239-569 239-272 0-504-127-231-126-403-370-181-256-286-600-104-343-104-668z"/></defs><use transform="translate(0 .09375)" xlink:href="#DejaVuSans-Oblique-71"/><use transform="translate(63.477 .09375)" xlink:href="#DejaVuSans-35"/></g></g><g clip-path="url(#a4fcf00be00)"><g transform="translate(69.245 83.839) scale(.104 -.104)"><defs><path id="DejaVuSans-31" transform="scale(.015625)" d="m794 531h1031v3560l-1122-225v575l1116 225h631v-4135h1031v-531h-2687v531z"/></defs><use xlink:href="#DejaVuSans-31"/></g></g><g clip-path="url(#a4fcf00be00)"><g transform="translate(36.064 95.121) scale(.1625 -.1625)"><defs><path id="DejaVuSans-63" transform="scale(.015625)" d="m3122 3366v-538q-244 135-489 202t-495 67q-560 0-870-355-309-354-309-995t309-996q310-354 870-354 250 0 495 67t489 202v-532q-241-112-499-168-257-57-548-57-791 0-1257 497-465 497-465 1341 0 856 470 1346 471 491 1290 491 265 0 518-55 253-54 491-163z"/></defs><use xlink:href="#DejaVuSans-63"/><use transform="translate(54.98)" xlink:href="#DejaVuSans-35"/></g></g><g clip-path="url(#a4fcf00be00)"><g transform="translate(193.94 83.839) scale(.104 -.104)"><use xlink:href="#DejaVuSans-30"/></g></g><g clip-path="url(#a4fcf00be00)"><g transform="translate(131.54 47.87) scale(.13 -.13)" fill="#ffffff"><defs><path id="DejaVuSans-58" transform="scale(.015625)" d="m403 4666h678l1160-1735 1165 1735h678l-1500-2241 1600-2425h-678l-1312 1984-1322-1984h-681l1665 2491-1453 2175z"/></defs><use xlink:href="#DejaVuSans-58"/></g></g><defs><clipPath id="a4fcf00be00"><rect x="7.2" y="7.2" width="205.74" height="111.25"/></clipPath></defs></svg>