<?xml version='1.0' encoding='utf-8'?>
<svg xmlns="http://www.w3.org/2000/svg" xmlns:ns1="http://sodipodi.sourceforge.net/DTD/sodipodi-0.dtd" xmlns:ns2="http://www.inkscape.org/namespaces/inkscape" version="1.1" id="svg1" width="100%" height="auto" viewBox="-20.0 -20.0 505.0173 191.3629" ns1:docname="svg_fix_XXXXXX.svg">
  <rect id="path1" x="-20.0" y="-20.0" width="505.0173" height="191.3629" fill="white" /><ns1:namedview id="namedview1" pagecolor="#ffffff" bordercolor="#000000" borderopacity="0.25" ns2:showpageshadow="2" ns2:pageopacity="0.0" ns2:pagecheckerboard="0" ns2:deskcolor="#d1d1d1" />
  <defs id="defs1" />
  <g id="g1" transform="translate(-66.714843,-34.577696)">
    <path id="path2" d="m 204.09703,62.36298 h 17.00806 v 17.00806 h -17.00806 z" style="fill:#000000;fill-opacity:1;fill-rule:nonzero;stroke:#000000;stroke-width:0.3985;stroke-linecap:butt;stroke-linejoin:miter;stroke-miterlimit:10;stroke-dasharray:none;stroke-opacity:1" transform="matrix(1.4,0,0,-1.4,198.40313,145.97613)" />
    <path id="path3" d="m 218.27034,68.3159 c 0,3.13112 -2.53824,5.66936 -5.66936,5.66936 -3.13112,0 -5.66935,-2.53824 -5.66935,-5.66936" style="fill:none;stroke:#ffffff;stroke-width:0.79701;stroke-linecap:butt;stroke-linejoin:miter;stroke-miterlimit:10;stroke-dasharray:none;stroke-opacity:1" transform="matrix(1.4,0,0,-1.4,198.40313,145.97613)" />
    <path id="path4" d="m 212.60106,68.59923 5.66928,4.81891" style="fill:none;stroke:#ffffff;stroke-width:0.79701;stroke-linecap:butt;stroke-linejoin:miter;stroke-miterlimit:10;stroke-dasharray:none;stroke-opacity:1" transform="matrix(1.4,0,0,-1.4,198.40313,145.97613)" />
    <path id="path5" d="m 213.45146,68.59923 c 0,0.46967 -0.38074,0.85039 -0.8504,0.85039 -0.46966,0 -0.8504,-0.38072 -0.8504,-0.85039 0,-0.46967 0.38074,-0.8504 0.8504,-0.8504 0.46966,0 0.8504,0.38073 0.8504,0.8504 z" style="fill:#ffffff;fill-opacity:1;fill-rule:nonzero;stroke:none" transform="matrix(1.4,0,0,-1.4,198.40313,145.97613)" />
    <path id="path6" d="m 204.09703,34.01617 h 17.00806 v 17.00806 h -17.00806 z" style="fill:#000000;fill-opacity:1;fill-rule:nonzero;stroke:#000000;stroke-width:0.3985;stroke-linecap:butt;stroke-linejoin:miter;stroke-miterlimit:10;stroke-dasharray:none;stroke-opacity:1" transform="matrix(1.4,0,0,-1.4,198.40313,145.97613)" />
    <path id="path7" d="m 218.27034,39.9691 c 0,3.13112 -2.53824,5.66934 -5.66936,5.66934 -3.13112,0 -5.66935,-2.53822 -5.66935,-5.66934" style="fill:none;stroke:#ffffff;stroke-width:0.79701;stroke-linecap:butt;stroke-linejoin:miter;stroke-miterlimit:10;stroke-dasharray:none;stroke-opacity:1" transform="matrix(1.4,0,0,-1.4,198.40313,145.97613)" />
    <path id="path8" d="m 212.60106,40.25241 5.66928,4.81891" style="fill:none;stroke:#ffffff;stroke-width:0.79701;stroke-linecap:butt;stroke-linejoin:miter;stroke-miterlimit:10;stroke-dasharray:none;stroke-opacity:1" transform="matrix(1.4,0,0,-1.4,198.40313,145.97613)" />
    <path id="path9" d="m 213.45146,40.25241 c 0,0.46967 -0.38074,0.8504 -0.8504,0.8504 -0.46966,0 -0.8504,-0.38073 -0.8504,-0.8504 0,-0.46966 0.38074,-0.8504 0.8504,-0.8504 0.46966,0 0.8504,0.38074 0.8504,0.8504 z" style="fill:#ffffff;fill-opacity:1;fill-rule:nonzero;stroke:none" transform="matrix(1.4,0,0,-1.4,198.40313,145.97613)" />
    <g id="g9" aria-label="∣ψ⟩&#10;⎧&#10;⎪&#10;⎪&#10;⎪&#10;⎪&#10;⎪&#10;⎪&#10;⎪&#10;⎨&#10;⎪&#10;⎪&#10;⎪&#10;⎪&#10;⎪&#10;⎪&#10;⎪&#10;⎩" transform="matrix(1.4,0,0,1.4,65.043333,150.44073)">
      <path id="path10" d="m 1.193936,-6.0932693 v 7.8125 h 0.5133929 v -7.8125 z m 0,0" style="fill:#121619;fill-opacity:1;fill-rule:nonzero;stroke:none" />
      <path id="path11" d="m 6.9528646,-5.2673765 c 0.033482,-0.1116071 0.033482,-0.1227678 0.033482,-0.15625 0,-0.078125 -0.055804,-0.1116071 -0.1227678,-0.1116071 -0.1004465,0 -0.1116072,0.033482 -0.1450893,0.1674107 l -1.2946429,5.21205355 c -0.5691964,-0.0669643 -0.9598214,-0.3125 -0.9598214,-0.88169645 0,-0.1450893 0,-0.3571428 0.4241071,-1.4174107 0.078125,-0.2120536 0.089286,-0.2901786 0.089286,-0.3794643 0,-0.4352678 -0.3571429,-0.6808035 -0.7254465,-0.6808035 -0.78125,0 -1.1160714,1.1272321 -1.1160714,1.2165178 0,0.078125 0.055804,0.1116072 0.1227679,0.1116072 0.1004464,0 0.1116071,-0.055804 0.1339285,-0.1339286 0.2120536,-0.6919643 0.5580357,-0.9709822 0.8370536,-0.9709822 0.1227679,0 0.1897321,0.078125 0.1897321,0.2678572 0,0.1785714 -0.066964,0.3683036 -0.1339285,0.5357143 -0.4129465,1.0602678 -0.4129465,1.2276785 -0.4129465,1.3950893 0,0.75892853 0.6584822,1.10491067 1.484375,1.16071424 L 4.9997396,1.5183378 c 0,0.078125 0.055804,0.1116071 0.1116071,0.1116071 0.1116072,0 0.1116072,-0.033482 0.1674107,-0.2008928 0.033482,-0.1785714 0,-0.066964 0.3348215,-1.35044645 0.3236607,0 0.9375,0 1.71875,-0.73660714 0.3236607,-0.30133928 0.5022321,-0.62500001 0.5691964,-0.73660711 0.2566964,-0.5245536 0.3683036,-1.2165179 0.3683036,-1.5066965 0,-0.625 -0.3571429,-0.625 -0.390625,-0.625 -0.1897322,0 -0.4129465,0.2120536 -0.4129465,0.4241072 0,0.1227678 0.078125,0.1897321 0.1116072,0.2232143 0.078125,0.066964 0.3236607,0.2790178 0.3236607,0.6584821 0,0.6584822 -0.9040179,2.07589287 -2.2321429,2.07589287 z m 0,0" style="fill:#121619;fill-opacity:1;fill-rule:nonzero;stroke:none" />
      <path id="path12" d="M 9.9383557,1.7973557 11.366927,-2.1870193 9.9383557,-6.1825551 9.4584449,-6.0039836 10.887016,-2.1870193 9.4584449,1.6299449 Z M 19.617485,-25.083225 v -0.424107 c -0.982143,0 -1.886161,0.658482 -1.886161,1.595982 v 3.337054 h 0.513393 v -3.337054 c 0,-0.691964 0.647322,-1.171875 1.372768,-1.171875 z m -1.886161,3.931362 v 2.845982 h 0.513393 v -2.845982 z m 0,2.34375 v 2.845982 h 0.513393 v -2.845982 z m 0,2.34096 v 2.845982 h 0.513393 v -2.845982 z m 0,2.34375 v 2.845982 h 0.513393 v -2.845982 z m 0,2.34375 v 2.8459819 h 0.513393 v -2.8459819 z m 0,2.3437497 v 2.8459822 h 0.513393 v -2.8459822 z m 0,2.34375 v 2.8459822 h 0.513393 v -2.8459822 z m 0.513393,2.3409598 h -0.513393 v 1.2611608 c 0,0.6361607 -0.602678,1.0714285 -1.283482,1.1049107 h -0.08929 v 0.4575893 c 0.725446,0 1.372767,0.4464285 1.372767,1.11607139 v 1.25 h 0.513393 v -1.25 c 0,-0.60267859 -0.357143,-1.07142859 -0.881696,-1.33928569 0.524553,-0.2678572 0.881696,-0.7477679 0.881696,-1.3504465 z m -0.513393,4.61216523 V 2.7069539 h 0.513393 v -2.84598217 z m 0,2.34374997 v 2.8459822 h 0.513393 V 2.2047217 Z m 0,2.34375 v 2.8459822 h 0.513393 V 4.5484717 Z m 0,2.34375 v 2.8459822 h 0.513393 V 6.8922217 Z m 0,2.3409598 v 2.8459825 h 0.513393 V 9.2331815 Z m 0,2.3437505 v 2.845982 h 0.513393 v -2.845982 z m 0,2.34375 v 2.845982 h 0.513393 v -2.845982 z m 1.886161,7.287946 v -0.424107 c -0.725446,0 -1.372768,-0.491072 -1.372768,-1.171875 v -3.348214 h -0.513393 v 3.348214 c 0,0.9375 0.904018,1.595982 1.886161,1.595982 z m 0,0" style="fill:#121619;fill-opacity:1;fill-rule:nonzero;stroke:none" />
    </g>
    <g id="g12" aria-label="∣0⟩" transform="matrix(1.4,0,0,1.4,80.469933,49.831133)">
      <path id="path13" d="m 1.1933512,-6.0931086 v 7.8125 H 1.706744 v -7.8125 z m 0,0" style="fill:#121619;fill-opacity:1;fill-rule:nonzero;stroke:none" />
      <path id="path14" d="m 6.7960298,-2.5440015 c 0,-0.8482143 -0.089286,-1.3727678 -0.3459822,-1.875 -0.3571428,-0.703125 -1.0044643,-0.8816964 -1.4397321,-0.8816964 -1.0044643,0 -1.3727679,0.7477678 -1.484375,0.9709821 -0.2790179,0.5803572 -0.3013393,1.3727679 -0.3013393,1.7857143 0,0.5245536 0.022321,1.328125 0.4129464,1.97544644 0.3683036,0.58035714 0.9486607,0.73660714 1.3727679,0.73660714 0.3794643,0 1.0714285,-0.12276785 1.4732143,-0.90401785 0.2901785,-0.58035713 0.3125,-1.28348213 0.3125,-1.80803573 z m -1.7857143,2.4888393 c -0.2678572,0 -0.8147322,-0.12276786 -0.9821429,-0.9598214 -0.089286,-0.4575893 -0.089286,-1.2053572 -0.089286,-1.6183036 0,-0.5580357 0,-1.1160714 0.089286,-1.5513393 0.1674107,-0.8147321 0.78125,-0.8928571 0.9821429,-0.8928571 0.2678571,0 0.8258928,0.1339285 0.9821428,0.859375 0.1004465,0.4464285 0.1004465,1.0379464 0.1004465,1.5848214 0,0.46875 0,1.1830357 -0.1004465,1.6294643 -0.1674107,0.83705355 -0.7142857,0.9486607 -0.9821428,0.9486607 z m 0,0" style="fill:#121619;fill-opacity:1;fill-rule:nonzero;stroke:none" />
      <path id="path15" d="m 8.3529494,1.7975164 1.4285714,-3.984375 -1.4285714,-3.9955357 -0.4799107,0.1785714 1.4285714,3.8169643 -1.4285714,3.8169643 z m 0,0" style="fill:#121619;fill-opacity:1;fill-rule:nonzero;stroke:none" />
    </g>
    <g id="g15" aria-label="∣0⟩" transform="matrix(1.4,0,0,1.4,80.469933,89.516933)">
      <path id="path16" d="m 1.1933512,-6.0946845 v 7.8125 H 1.706744 v -7.8125 z m 0,0" style="fill:#121619;fill-opacity:1;fill-rule:nonzero;stroke:none" />
      <path id="path17" d="m 6.7960298,-2.5455774 c 0,-0.8482143 -0.089286,-1.3727678 -0.3459822,-1.875 -0.3571428,-0.703125 -1.0044643,-0.8816964 -1.4397321,-0.8816964 -1.0044643,0 -1.3727679,0.7477678 -1.484375,0.9709821 -0.2790179,0.5803572 -0.3013393,1.3727679 -0.3013393,1.7857143 0,0.5245536 0.022321,1.328125 0.4129464,1.97544645 0.3683036,0.58035714 0.9486607,0.73660714 1.3727679,0.73660714 0.3794643,0 1.0714285,-0.12276786 1.4732143,-0.90401786 0.2901785,-0.58035713 0.3125,-1.28348213 0.3125,-1.80803573 z m -1.7857143,2.4888393 c -0.2678572,0 -0.8147322,-0.12276785 -0.9821429,-0.9598214 -0.089286,-0.4575893 -0.089286,-1.2053572 -0.089286,-1.6183036 0,-0.5580357 0,-1.1160714 0.089286,-1.5513393 0.1674107,-0.8147321 0.78125,-0.8928571 0.9821429,-0.8928571 0.2678571,0 0.8258928,0.1339285 0.9821428,0.859375 0.1004465,0.4464285 0.1004465,1.0379464 0.1004465,1.5848214 0,0.46875 0,1.1830357 -0.1004465,1.6294643 -0.1674107,0.83705356 -0.7142857,0.9486607 -0.9821428,0.9486607 z m 0,0" style="fill:#121619;fill-opacity:1;fill-rule:nonzero;stroke:none" />
      <path id="path18" d="m 8.3529494,1.7959405 1.4285714,-3.984375 -1.4285714,-3.9955357 -0.4799107,0.1785714 1.4285714,3.8169643 -1.4285714,3.8169643 z m 0,0" style="fill:#121619;fill-opacity:1;fill-rule:nonzero;stroke:none" />
    </g>
    <path id="path19" d="M -68.0113,70.867 H 203.89778" style="fill:none;stroke:#121619;stroke-width:0.3985;stroke-linecap:butt;stroke-linejoin:miter;stroke-miterlimit:10;stroke-dasharray:none;stroke-opacity:1" transform="matrix(1.4,0,0,-1.4,198.40313,145.97613)" />
    <path id="path20" d="m 221.30434,71.7174 h 16.78782" style="fill:none;stroke:#121619;stroke-width:0.3985;stroke-linecap:butt;stroke-linejoin:miter;stroke-miterlimit:10;stroke-dasharray:none;stroke-opacity:1" transform="matrix(1.4,0,0,-1.4,198.40313,145.97613)" />
    <path id="path21" d="m 221.30434,70.01662 h 16.78782" style="fill:none;stroke:#121619;stroke-width:0.3985;stroke-linecap:butt;stroke-linejoin:miter;stroke-miterlimit:10;stroke-dasharray:none;stroke-opacity:1" transform="matrix(1.4,0,0,-1.4,198.40313,145.97613)" />
    <path id="path22" d="M -68.0113,42.5202 H 203.89778" style="fill:none;stroke:#121619;stroke-width:0.3985;stroke-linecap:butt;stroke-linejoin:miter;stroke-miterlimit:10;stroke-dasharray:none;stroke-opacity:1" transform="matrix(1.4,0,0,-1.4,198.40313,145.97613)" />
    <path id="path23" d="m 221.30434,43.3706 h 16.78782" style="fill:none;stroke:#121619;stroke-width:0.3985;stroke-linecap:butt;stroke-linejoin:miter;stroke-miterlimit:10;stroke-dasharray:none;stroke-opacity:1" transform="matrix(1.4,0,0,-1.4,198.40313,145.97613)" />
    <path id="path24" d="m 221.30434,41.6698 h 16.78782" style="fill:none;stroke:#121619;stroke-width:0.3985;stroke-linecap:butt;stroke-linejoin:miter;stroke-miterlimit:10;stroke-dasharray:none;stroke-opacity:1" transform="matrix(1.4,0,0,-1.4,198.40313,145.97613)" />
    <path id="path25" d="m -51.02423,62.36298 h 17.00806 v 17.00806 h -17.00806 z" style="fill:#78a9ff;fill-opacity:1;fill-rule:nonzero;stroke:#78a9ff;stroke-width:0.3985;stroke-linecap:butt;stroke-linejoin:miter;stroke-miterlimit:10;stroke-dasharray:none;stroke-opacity:1" transform="matrix(1.4,0,0,-1.4,198.40313,145.97613)" />
    <path id="path26" d="m 6.3602396,-4.7993318 c 0.089286,-0.3125 0.1004464,-0.3794643 0.6584821,-0.3794643 0.1785715,0 0.2790179,0 0.2790179,-0.15625 0,0 -0.011161,-0.1116072 -0.1339286,-0.1116072 -0.15625,0 -0.3459821,0.022322 -0.4910714,0.022322 H 6.1705074 c -0.7700892,0 -0.9709821,-0.022322 -1.0267857,-0.022322 -0.033482,0 -0.1674107,0 -0.1674107,0.15625 0,0.1116072 0.1116072,0.1116072 0.234375,0.1116072 0.2678572,0 0.4910714,0 0.4910714,0.1227678 0,0.033482 0,0.044643 -0.033482,0.1450893 l -0.46875,1.9419643 H 2.632561 l 0.4575893,-1.8526786 c 0.066964,-0.2901785 0.089286,-0.3571428 0.6696429,-0.3571428 0.15625,0 0.2566964,0 0.2566964,-0.15625 0,0 -0.011161,-0.1116072 -0.1339286,-0.1116072 -0.15625,0 -0.3459821,0.022322 -0.5022321,0.022322 H 2.8780967 c -0.7589285,0 -0.9709821,-0.022322 -1.0267857,-0.022322 -0.022321,0 -0.15625,0 -0.15625,0.15625 0,0.1116072 0.1004464,0.1116072 0.234375,0.1116072 0.2566964,0 0.4910714,0 0.4910714,0.1227678 0,0.033482 -0.011161,0.044643 -0.033482,0.1450893 l -1.0602679,4.2857143 c -0.078125,0.30133928 -0.089286,0.35714285 -0.68080353,0.35714285 -0.15625,0 -0.24553572,0 -0.24553572,0.15625 0,0.03348215 0.0223214,0.11160714762 0.12276786,0.11160714762 0.15625,0 0.34598214,-0.0111607176 0.49107139,-0.0223214276 h 0.5133929 c 0.7700893,0 0.9709821,0.0223214276 1.0267857,0.0223214276 0.044643,0 0.15625,0 0.15625,-0.15624999762 0,-0.11160715 -0.1004464,-0.11160715 -0.234375,-0.11160715 -0.022321,0 -0.1674107,0 -0.3013393,-0.0111607 -0.1674107,-0.0111607 -0.1785714,-0.0446429 -0.1785714,-0.11160714 0,-0.0446429 0.011161,-0.0892857 0.022321,-0.12276786 L 2.554436,-2.7011176 h 2.5669643 c -0.234375,0.9375 -0.5357143,2.18750004 -0.546875,2.18750004 -0.078125,0.24553571 -0.2120536,0.24553571 -0.6919643,0.24553571 -0.1004464,0 -0.2008928,0 -0.2008928,0.15625 0,0.03348215 0.022321,0.11160714762 0.1227678,0.11160714762 0.15625,0 0.3459822,-0.0111607176 0.5022322,-0.0223214276 h 0.5022321 c 0.7700893,0 0.9709821,0.0223214276 1.0267857,0.0223214276 0.055804,0 0.1674107,0 0.1674107,-0.15624999762 0,-0.11160715 -0.1116071,-0.11160715 -0.2455357,-0.11160715 -0.022321,0 -0.1674107,0 -0.3013393,-0.0111607 -0.1674107,-0.0111607 -0.1785714,-0.0446429 -0.1785714,-0.11160714 0,-0.0446429 0.011161,-0.0892857 0.022321,-0.12276786 z m 0,0" style="fill:#ffffff;fill-opacity:1;fill-rule:nonzero;stroke:none" aria-label="H" transform="matrix(1.4,0,0,1.4,133.57613,50.574533)" />
    <path id="path27" d="m -51.02423,34.01617 h 17.00806 v 17.00806 h -17.00806 z" style="fill:#78a9ff;fill-opacity:1;fill-rule:nonzero;stroke:#78a9ff;stroke-width:0.3985;stroke-linecap:butt;stroke-linejoin:miter;stroke-miterlimit:10;stroke-dasharray:none;stroke-opacity:1" transform="matrix(1.4,0,0,-1.4,198.40313,145.97613)" />
    <path id="path28" d="m 6.3602396,-4.7981176 c 0.089286,-0.3125 0.1004464,-0.3794642 0.6584821,-0.3794642 0.1785715,0 0.2790179,0 0.2790179,-0.15625 0,0 -0.011161,-0.1116072 -0.1339286,-0.1116072 -0.15625,0 -0.3459821,0.022321 -0.4910714,0.022321 H 6.1705074 c -0.7700892,0 -0.9709821,-0.022321 -1.0267857,-0.022321 -0.033482,0 -0.1674107,0 -0.1674107,0.15625 0,0.1116072 0.1116072,0.1116072 0.234375,0.1116072 0.2678572,0 0.4910714,0 0.4910714,0.1227678 0,0.033482 0,0.044643 -0.033482,0.1450893 l -0.46875,1.9419643 H 2.632561 L 3.0901503,-4.820439 c 0.066964,-0.2901786 0.089286,-0.3571428 0.6696429,-0.3571428 0.15625,0 0.2566964,0 0.2566964,-0.15625 0,0 -0.011161,-0.1116072 -0.1339286,-0.1116072 -0.15625,0 -0.3459821,0.022321 -0.5022321,0.022321 H 2.8780967 c -0.7589285,0 -0.9709821,-0.022321 -1.0267857,-0.022321 -0.022321,0 -0.15625,0 -0.15625,0.15625 0,0.1116072 0.1004464,0.1116072 0.234375,0.1116072 0.2566964,0 0.4910714,0 0.4910714,0.1227678 0,0.033482 -0.011161,0.044643 -0.033482,0.1450893 l -1.0602679,4.28571428 c -0.078125,0.30133929 -0.089286,0.35714286 -0.68080353,0.35714286 -0.15625,0 -0.24553572,0 -0.24553572,0.15625 0,0.03348214 0.0223214,0.11160714333 0.12276786,0.11160714333 0.15625,0 0.34598214,-0.0111607133 0.49107139,-0.0223214333 h 0.5133929 c 0.7700893,0 0.9709821,0.0223214333 1.0267857,0.0223214333 0.044643,0 0.15625,0 0.15625,-0.15625000333 0,-0.11160714 -0.1004464,-0.11160714 -0.234375,-0.11160714 -0.022321,0 -0.1674107,0 -0.3013393,-0.0111607 -0.1674107,-0.0111607 -0.1785714,-0.0446429 -0.1785714,-0.11160715 0,-0.0446429 0.011161,-0.0892857 0.022321,-0.12276785 L 2.554436,-2.6999033 h 2.5669643 c -0.234375,0.9375 -0.5357143,2.18750003 -0.546875,2.18750003 -0.078125,0.24553571 -0.2120536,0.24553571 -0.6919643,0.24553571 -0.1004464,0 -0.2008928,0 -0.2008928,0.15625 0,0.03348214 0.022321,0.11160714333 0.1227678,0.11160714333 0.15625,0 0.3459822,-0.0111607133 0.5022322,-0.0223214333 h 0.5022321 c 0.7700893,0 0.9709821,0.0223214333 1.0267857,0.0223214333 0.055804,0 0.1674107,0 0.1674107,-0.15625000333 0,-0.11160714 -0.1116071,-0.11160714 -0.2455357,-0.11160714 -0.022321,0 -0.1674107,0 -0.3013393,-0.0111607 -0.1674107,-0.0111607 -0.1785714,-0.0446429 -0.1785714,-0.11160715 0,-0.0446429 0.011161,-0.0892857 0.022321,-0.12276785 z m 0,0" style="fill:#ffffff;fill-opacity:1;fill-rule:nonzero;stroke:none" aria-label="H" transform="matrix(1.4,0,0,1.4,133.57613,90.260333)" />
    <path id="path29" d="M -19.84276,-28.3468 H 19.84276 V 28.34682 H -19.84276 Z" style="fill:#78a9ff;fill-opacity:1;fill-rule:nonzero;stroke:#78a9ff;stroke-width:0.3985;stroke-linecap:butt;stroke-linejoin:miter;stroke-miterlimit:10;stroke-dasharray:none;stroke-opacity:1" transform="matrix(1.4,0,0,-1.4,198.40313,145.97613)" />
    <path id="path30" d="m 5.3113155,-4.575372 c 0.1004464,-0.390625 0.2790178,-0.5803572 0.8482143,-0.6026786 0.078125,0 0.1450892,-0.044643 0.1450892,-0.15625 0,-0.044643 -0.044643,-0.1116071 -0.1227678,-0.1116071 -0.044643,0 -0.2120536,0.022321 -0.7924107,0.022321 -0.6361607,0 -0.7366072,-0.022321 -0.8035715,-0.022321 -0.1339285,0 -0.15625,0.089286 -0.15625,0.15625 0,0.1004464 0.1004465,0.1116071 0.1785715,0.1116071 0.4799107,0.011161 0.4799107,0.234375 0.4799107,0.3459821 0,0.044643 0,0.078125 -0.011161,0.1339286 -0.022322,0.055804 -0.6808036,2.7232143 -0.7142857,2.8236607 -0.2790179,1.1495536 -1.2834822,1.7745536 -2.0758929,1.7745536 -0.546875,0 -1.0491071,-0.32366071 -1.0491071,-1.0602679 0,-0.1339285 0.033482,-0.3459821 0.055803,-0.46875 L 2.097029,-4.8209077 c 0.066964,-0.2901786 0.089286,-0.3571429 0.6696428,-0.3571429 0.15625,0 0.2566964,0 0.2566964,-0.15625 0,0 -0.011161,-0.1116071 -0.1450892,-0.1116071 -0.1450893,0 -0.3348215,0.022321 -0.4910715,0.022321 H 1.8849762 c -0.7589286,0 -0.97098215,-0.022321 -1.02678572,-0.022321 -0.0334821,0 -0.15625,0 -0.15625,0.15625 0,0.1116071 0.10044642,0.1116071 0.234375,0.1116071 0.25669642,0 0.49107142,0 0.49107142,0.1227679 0,0.055804 -0.078125,0.3348214 -0.1227679,0.5022321 L 1.1260476,-3.8610863 0.71310119,-2.1646577 C 0.60149405,-1.7293899 0.5680119,-1.606622 0.5680119,-1.3945685 c 0,0.93750005 0.7366071,1.56250005 1.6852679,1.56250005 1.0825892,0 2.109375,-0.91517857 2.3549107,-1.94196425 z m 0,0" style="fill:#ffffff;fill-opacity:1;fill-rule:nonzero;stroke:none" aria-label="U" transform="matrix(1.4,0,0,1.4,193.79853,149.78833)" />
    <path id="path31" d="M 36.85085,-28.3468 H 76.53637 V 28.34682 H 36.85085 Z" style="fill:#78a9ff;fill-opacity:1;fill-rule:nonzero;stroke:#78a9ff;stroke-width:0.3985;stroke-linecap:butt;stroke-linejoin:miter;stroke-miterlimit:10;stroke-dasharray:none;stroke-opacity:1" transform="matrix(1.4,0,0,-1.4,198.40313,145.97613)" />
    <path id="path32" d="m 5.313744,-4.575372 c 0.1004465,-0.390625 0.2790179,-0.5803572 0.8482143,-0.6026786 0.078125,0 0.1450893,-0.044643 0.1450893,-0.15625 0,-0.044643 -0.044643,-0.1116071 -0.1227678,-0.1116071 -0.044643,0 -0.2120536,0.022321 -0.7924108,0.022321 -0.6361607,0 -0.7366071,-0.022321 -0.8035714,-0.022321 -0.1339286,0 -0.15625,0.089286 -0.15625,0.15625 0,0.1004464 0.1004464,0.1116071 0.1785714,0.1116071 0.4799108,0.011161 0.4799108,0.234375 0.4799108,0.3459821 0,0.044643 0,0.078125 -0.011161,0.1339286 -0.022321,0.055804 -0.6808035,2.7232143 -0.7142857,2.8236607 -0.2790178,1.1495536 -1.2834821,1.7745536 -2.0758928,1.7745536 -0.546875,0 -1.0491072,-0.32366071 -1.0491072,-1.0602679 0,-0.1339285 0.033482,-0.3459821 0.055804,-0.46875 l 0.8035714,-3.1919642 c 0.066964,-0.2901786 0.089286,-0.3571429 0.6696429,-0.3571429 0.15625,0 0.2566964,0 0.2566964,-0.15625 0,0 -0.011161,-0.1116071 -0.1450893,-0.1116071 -0.1450893,0 -0.3348214,0.022321 -0.4910714,0.022321 H 1.8874048 c -0.7589286,0 -0.97098218,-0.022321 -1.02678575,-0.022321 -0.0334822,0 -0.15625,0 -0.15625,0.15625 0,0.1116071 0.10044643,0.1116071 0.234375,0.1116071 0.25669645,0 0.49107145,0 0.49107145,0.1227679 0,0.055804 -0.078125,0.3348214 -0.1227679,0.5022321 l -0.1785714,0.6919643 -0.41294644,1.6964286 c -0.11160714,0.4352678 -0.14508928,0.5580357 -0.14508928,0.7700892 0,0.93750005 0.73660712,1.56250005 1.68526782,1.56250005 1.0825893,0 2.109375,-0.91517857 2.3549107,-1.94196425 z m 0,0" style="fill:#ffffff;fill-opacity:1;fill-rule:nonzero;stroke:none" aria-label="U" transform="matrix(1.4,0,0,1.4,273.17013,149.78833)" />
    <path id="path33" d="m 93.54446,-28.3468 h 39.68552 V 28.34682 H 93.54446 Z" style="fill:#78a9ff;fill-opacity:1;fill-rule:nonzero;stroke:#78a9ff;stroke-width:0.3985;stroke-linecap:butt;stroke-linejoin:miter;stroke-miterlimit:10;stroke-dasharray:none;stroke-opacity:1" transform="matrix(1.4,0,0,-1.4,198.40313,145.97613)" />
    <path id="path34" d="m 5.3115923,-4.575372 c 0.1004464,-0.390625 0.2790178,-0.5803572 0.8482142,-0.6026786 0.078125,0 0.1450893,-0.044643 0.1450893,-0.15625 0,-0.044643 -0.044643,-0.1116071 -0.1227678,-0.1116071 -0.044643,0 -0.2120536,0.022321 -0.7924107,0.022321 -0.6361608,0 -0.7366072,-0.022321 -0.8035715,-0.022321 -0.1339285,0 -0.15625,0.089286 -0.15625,0.15625 0,0.1004464 0.1004465,0.1116071 0.1785715,0.1116071 0.4799107,0.011161 0.4799107,0.234375 0.4799107,0.3459821 0,0.044643 0,0.078125 -0.011161,0.1339286 -0.022322,0.055804 -0.6808036,2.7232143 -0.7142858,2.8236607 -0.2790178,1.1495536 -1.2834821,1.7745536 -2.0758928,1.7745536 -0.546875,0 -1.0491072,-0.32366071 -1.0491072,-1.0602679 0,-0.1339285 0.033482,-0.3459821 0.055804,-0.46875 l 0.8035714,-3.1919642 c 0.066964,-0.2901786 0.089286,-0.3571429 0.6696429,-0.3571429 0.15625,0 0.2566964,0 0.2566964,-0.15625 0,0 -0.011161,-0.1116071 -0.1450893,-0.1116071 -0.1450892,0 -0.3348214,0.022321 -0.4910714,0.022321 H 1.885253 c -0.7589286,0 -0.97098217,-0.022321 -1.02678574,-0.022321 -0.0334821,0 -0.15625,0 -0.15625,0.15625 0,0.1116071 0.10044643,0.1116071 0.234375,0.1116071 0.25669644,0 0.49107144,0 0.49107144,0.1227679 0,0.055804 -0.078125,0.3348214 -0.1227679,0.5022321 l -0.1785714,0.6919643 -0.41294642,1.6964286 c -0.11160715,0.4352678 -0.14508929,0.5580357 -0.14508929,0.7700892 0,0.93750005 0.73660711,1.56250005 1.68526781,1.56250005 1.0825893,0 2.109375,-0.91517857 2.3549108,-1.94196425 z m 0,0" style="fill:#ffffff;fill-opacity:1;fill-rule:nonzero;stroke:none" aria-label="U" transform="matrix(1.4,0,0,1.4,352.54033,149.78833)" />
    <path id="path35" d="m 153.07277,34.01617 h 34.01616 v 45.35489 h -34.01616 z" style="fill:#78a9ff;fill-opacity:1;fill-rule:nonzero;stroke:#78a9ff;stroke-width:0.3985;stroke-linecap:butt;stroke-linejoin:miter;stroke-miterlimit:10;stroke-dasharray:none;stroke-opacity:1" transform="matrix(1.4,0,0,-1.4,198.40313,145.97613)" />
    <g id="g35" aria-label="QFT&#10;†&#10;4" transform="matrix(1.4,0,0,1.4,420.85193,71.378533)">
      <path id="path36" d="m 4.3858958,-0.06669792 c 0.7254465,-0.27901785 1.71875,-1.20535718 1.71875,-2.63392858 0,-1.6071428 -1.2723214,-2.9129464 -2.8125,-2.9129464 -1.5736607,0 -2.82366068,1.3169643 -2.82366068,2.9129464 0,1.6071429 1.27232138,2.86830358 2.82366068,2.86830358 0.2566965,0 0.5245536,-0.0446429 0.7700893,-0.11160714 0.1674107,0.81473214 0.3125,1.49553576 1.0491072,1.49553576 0.8370535,0 1.0379464,-1.02678576 1.0379464,-1.48437505 0,-0.066964281 0,-0.17857142 -0.1116072,-0.17857142 -0.089286,0 -0.1004464,0.08928571 -0.1116071,0.14508928 -0.044643,0.47991072 -0.4352679,0.68080357 -0.7477679,0.68080357 -0.3348214,0 -0.5357142,-0.18973214 -0.7924107,-0.78125 z M 2.6783065,-0.18946577 c -0.8482142,-0.32366072 -1.40625,-1.17187503 -1.40625,-2.51116073 0,-1.9196428 1.1272322,-2.6674107 2.0089286,-2.6674107 0.9151786,0 2.0200893,0.7700893 2.0200893,2.6674107 0,0.9933036 -0.3125,1.85267858 -1.0491071,2.3325893 -0.3125,-0.7366071 -0.6919643,-0.8370536 -0.9598215,-0.8370536 -0.4017857,0 -0.703125,0.31250003 -0.703125,0.6808036 0,0.14508928 0.055804,0.27901785 0.089286,0.33482143 z m 1.3169643,-0.0446429 c -0.2678571,0.12276786 -0.5022321,0.15625 -0.703125,0.15625 -0.4129464,0 -0.4799107,-0.34598214 -0.4799107,-0.44642857 0,-0.22321429 0.1785714,-0.45758929 0.4910714,-0.45758929 0.390625,0 0.5803572,0.29017857 0.6919643,0.74776786 z M 11.517592,-5.4238408 H 6.9305387 v 0.2678572 h 0.1785714 c 0.6138393,0 0.6361607,0.089286 0.6361607,0.3794643 v 4.12946424 c 0,0.30133929 -0.022321,0.37946429 -0.6361607,0.37946429 H 6.9305387 V 2.6636905e-4 C 7.6113423,-0.02205506 7.6336637,-0.02205506 8.1582173,-0.02205506 c 0.3794642,0 0.9598214,0 1.3169642,0.0223214291 V -0.26759077 H 9.2184851 c -0.7477678,0 -0.7477678,-0.11160715 -0.7477678,-0.390625 V -2.5778586 h 0.7477678 c 0.78125,0 0.8705359,0.2455357 0.8705359,0.9263393 h 0.245536 v -2.1205358 h -0.245536 c 0,0.6696429 -0.089286,0.9263393 -0.8705359,0.9263393 H 8.4707173 v -1.9866071 c 0,-0.2678572 0.022321,-0.3236607 0.3794642,-0.3236607 h 1.0602679 c 1.3058036,0 1.4508926,0.5022321 1.5959826,1.5513393 h 0.245535 z m 6.236049,0.033482 h -5.189732 l -0.15625,1.8080357 h 0.245536 c 0.111607,-1.3392857 0.301339,-1.5401786 1.517857,-1.5401786 0.145089,0 0.401786,0 0.457589,0.011161 0.15625,0.033482 0.167411,0.1116072 0.167411,0.3125 v 4.14062503 c 0,0.27901785 0,0.390625 -0.837053,0.390625 h -0.30134 V 2.6636905e-4 c 0.30134,-0.0223214291 1.160715,-0.0223214291 1.495536,-0.0223214291 0.345982,0 1.205357,0 1.506696,0.0223214291 V -0.26759077 h -0.301339 c -0.837053,0 -0.837053,-0.11160715 -0.837053,-0.390625 V -4.7988408 c 0,-0.1785714 0,-0.2790178 0.16741,-0.3125 0.07813,-0.011161 0.30134,-0.011161 0.45759,-0.011161 1.216517,0 1.40625,0.2008929 1.517857,1.5401786 h 0.245535 z m 0,0" style="fill:#ffffff;fill-opacity:1;fill-rule:nonzero;stroke:none" />
      <path id="path37" d="m 20.69449,-7.3323229 c 0,-0.055804 -0.02232,-0.234375 -0.245536,-0.234375 -0.08929,0 -0.234375,0.022321 -0.379464,0.078125 -0.15625,0.033482 -0.256697,0.055804 -0.357143,0.078125 0,-0.1116072 0,-0.2455357 0.06696,-0.6026786 0.03348,-0.1450893 0.07813,-0.4910714 0.07813,-0.6919643 0,-0.055803 0,-0.2678571 -0.223214,-0.2678571 -0.223215,0 -0.223215,0.2120536 -0.223215,0.2678571 0,0.1897322 0.04464,0.4910715 0.07813,0.6808036 0.06696,0.390625 0.06696,0.4799107 0.07813,0.6138393 -0.111607,-0.022321 -0.200892,-0.044643 -0.345982,-0.078125 -0.133928,-0.044643 -0.290178,-0.078125 -0.390625,-0.078125 -0.245535,0 -0.245535,0.2232143 -0.245535,0.2232143 0,0.044643 0.02232,0.2232143 0.245535,0.2232143 0.08929,0 0.234375,-0.022321 0.368304,-0.066964 0.15625,-0.044643 0.267857,-0.066964 0.368303,-0.078125 -0.01116,0.1004464 -0.02232,0.2008928 -0.06696,0.4129464 -0.08929,0.4129464 -0.08929,0.4575893 -0.08929,0.78125 0,0.7142857 0.04464,1.6852679 0.122768,2.4553571 0.01116,0.089286 0.01116,0.1339286 0.100447,0.1339286 0.04464,0 0.07813,0 0.100446,-0.078125 0.01116,-0.078125 0.122768,-1.328125 0.122768,-2.5111607 0,-0.3013393 0,-0.3683036 -0.07813,-0.7366071 -0.0558,-0.2678572 -0.0558,-0.3236608 -0.06696,-0.4575893 0.111607,0.011161 0.200893,0.033482 0.334821,0.078125 0.133929,0.033482 0.290179,0.066964 0.401786,0.066964 0.245536,0 0.245536,-0.2120536 0.245536,-0.2120536 z m 0,0" style="fill:#ffffff;fill-opacity:1;fill-rule:nonzero;stroke:none" />
      <path id="path38" d="M 21.598507,1.1749315 V 0.94055655 H 20.906543 V -1.7045327 c 0,-0.1339286 0,-0.1785715 -0.15625,-0.1785715 -0.100446,0 -0.122768,0.022322 -0.167411,0.089286 L 18.50699,0.94055655 V 1.1749315 h 1.852678 v 0.4799108 c 0,0.2008928 0,0.2678571 -0.502232,0.2678571 h -0.167411 v 0.234375 c 0.122768,-0.011161 0.680804,-0.022321 0.9375,-0.022321 0.267857,0 0.825893,0.011161 0.948661,0.022321 v -0.234375 h -0.167411 c -0.502232,0 -0.502232,-0.066964 -0.502232,-0.2678571 V 1.1749315 Z M 20.404311,-1.224622 v 2.16517855 h -1.640625 z m 0,0" style="fill:#ffffff;fill-opacity:1;fill-rule:nonzero;stroke:none" />
    </g>
    <path id="path39" d="M -68.0113,-22.67744 H -20.042" style="fill:none;stroke:#121619;stroke-width:0.3985;stroke-linecap:butt;stroke-linejoin:miter;stroke-miterlimit:10;stroke-dasharray:none;stroke-opacity:1" transform="matrix(1.4,0,0,-1.4,198.40313,145.97613)" />
    <path id="path40" d="M 20.042,-22.67744 H 36.6516" style="fill:none;stroke:#121619;stroke-width:0.3985;stroke-linecap:butt;stroke-linejoin:miter;stroke-miterlimit:10;stroke-dasharray:none;stroke-opacity:1" transform="matrix(1.4,0,0,-1.4,198.40313,145.97613)" />
    <path id="path41" d="M 76.73563,-22.67744 H 93.34521" style="fill:none;stroke:#121619;stroke-width:0.3985;stroke-linecap:butt;stroke-linejoin:miter;stroke-miterlimit:10;stroke-dasharray:none;stroke-opacity:1" transform="matrix(1.4,0,0,-1.4,198.40313,145.97613)" />
    <path id="path42" d="M 133.42924,-22.67744 H 238.09216" style="fill:none;stroke:#121619;stroke-width:0.3985;stroke-linecap:butt;stroke-linejoin:miter;stroke-miterlimit:10;stroke-dasharray:none;stroke-opacity:1" transform="matrix(1.4,0,0,-1.4,198.40313,145.97613)" />
    <path id="path43" d="M -68.0113,-18.42542 H -20.042" style="fill:none;stroke:#121619;stroke-width:0.3985;stroke-linecap:butt;stroke-linejoin:miter;stroke-miterlimit:10;stroke-dasharray:none;stroke-opacity:1" transform="matrix(1.4,0,0,-1.4,198.40313,145.97613)" />
    <path id="path44" d="M 20.042,-18.42542 H 36.6516" style="fill:none;stroke:#121619;stroke-width:0.3985;stroke-linecap:butt;stroke-linejoin:miter;stroke-miterlimit:10;stroke-dasharray:none;stroke-opacity:1" transform="matrix(1.4,0,0,-1.4,198.40313,145.97613)" />
    <path id="path45" d="M 76.73563,-18.42542 H 93.34521" style="fill:none;stroke:#121619;stroke-width:0.3985;stroke-linecap:butt;stroke-linejoin:miter;stroke-miterlimit:10;stroke-dasharray:none;stroke-opacity:1" transform="matrix(1.4,0,0,-1.4,198.40313,145.97613)" />
    <path id="path46" d="M 133.42924,-18.42542 H 238.09216" style="fill:none;stroke:#121619;stroke-width:0.3985;stroke-linecap:butt;stroke-linejoin:miter;stroke-miterlimit:10;stroke-dasharray:none;stroke-opacity:1" transform="matrix(1.4,0,0,-1.4,198.40313,145.97613)" />
    <path id="path47" d="M -68.0113,-14.17339 H -20.042" style="fill:none;stroke:#121619;stroke-width:0.3985;stroke-linecap:butt;stroke-linejoin:miter;stroke-miterlimit:10;stroke-dasharray:none;stroke-opacity:1" transform="matrix(1.4,0,0,-1.4,198.40313,145.97613)" />
    <path id="path48" d="M 20.042,-14.17339 H 36.6516" style="fill:none;stroke:#121619;stroke-width:0.3985;stroke-linecap:butt;stroke-linejoin:miter;stroke-miterlimit:10;stroke-dasharray:none;stroke-opacity:1" transform="matrix(1.4,0,0,-1.4,198.40313,145.97613)" />
    <path id="path49" d="M 76.73563,-14.17339 H 93.34521" style="fill:none;stroke:#121619;stroke-width:0.3985;stroke-linecap:butt;stroke-linejoin:miter;stroke-miterlimit:10;stroke-dasharray:none;stroke-opacity:1" transform="matrix(1.4,0,0,-1.4,198.40313,145.97613)" />
    <path id="path50" d="M 133.42924,-14.17339 H 238.09216" style="fill:none;stroke:#121619;stroke-width:0.3985;stroke-linecap:butt;stroke-linejoin:miter;stroke-miterlimit:10;stroke-dasharray:none;stroke-opacity:1" transform="matrix(1.4,0,0,-1.4,198.40313,145.97613)" />
    <path id="path51" d="M -68.0113,-9.92137 H -20.042" style="fill:none;stroke:#121619;stroke-width:0.3985;stroke-linecap:butt;stroke-linejoin:miter;stroke-miterlimit:10;stroke-dasharray:none;stroke-opacity:1" transform="matrix(1.4,0,0,-1.4,198.40313,145.97613)" />
    <path id="path52" d="M 20.042,-9.92137 H 36.6516" style="fill:none;stroke:#121619;stroke-width:0.3985;stroke-linecap:butt;stroke-linejoin:miter;stroke-miterlimit:10;stroke-dasharray:none;stroke-opacity:1" transform="matrix(1.4,0,0,-1.4,198.40313,145.97613)" />
    <path id="path53" d="M 76.73563,-9.92137 H 93.34521" style="fill:none;stroke:#121619;stroke-width:0.3985;stroke-linecap:butt;stroke-linejoin:miter;stroke-miterlimit:10;stroke-dasharray:none;stroke-opacity:1" transform="matrix(1.4,0,0,-1.4,198.40313,145.97613)" />
    <path id="path54" d="M 133.42924,-9.92137 H 238.09216" style="fill:none;stroke:#121619;stroke-width:0.3985;stroke-linecap:butt;stroke-linejoin:miter;stroke-miterlimit:10;stroke-dasharray:none;stroke-opacity:1" transform="matrix(1.4,0,0,-1.4,198.40313,145.97613)" />
    <path id="path55" d="M -68.0113,-5.66934 H -20.042" style="fill:none;stroke:#121619;stroke-width:0.3985;stroke-linecap:butt;stroke-linejoin:miter;stroke-miterlimit:10;stroke-dasharray:none;stroke-opacity:1" transform="matrix(1.4,0,0,-1.4,198.40313,145.97613)" />
    <path id="path56" d="M 20.042,-5.66934 H 36.6516" style="fill:none;stroke:#121619;stroke-width:0.3985;stroke-linecap:butt;stroke-linejoin:miter;stroke-miterlimit:10;stroke-dasharray:none;stroke-opacity:1" transform="matrix(1.4,0,0,-1.4,198.40313,145.97613)" />
    <path id="path57" d="M 76.73563,-5.66934 H 93.34521" style="fill:none;stroke:#121619;stroke-width:0.3985;stroke-linecap:butt;stroke-linejoin:miter;stroke-miterlimit:10;stroke-dasharray:none;stroke-opacity:1" transform="matrix(1.4,0,0,-1.4,198.40313,145.97613)" />
    <path id="path58" d="M 133.42924,-5.66934 H 238.09216" style="fill:none;stroke:#121619;stroke-width:0.3985;stroke-linecap:butt;stroke-linejoin:miter;stroke-miterlimit:10;stroke-dasharray:none;stroke-opacity:1" transform="matrix(1.4,0,0,-1.4,198.40313,145.97613)" />
    <path id="path59" d="M -68.0113,-1.41731 H -20.042" style="fill:none;stroke:#121619;stroke-width:0.3985;stroke-linecap:butt;stroke-linejoin:miter;stroke-miterlimit:10;stroke-dasharray:none;stroke-opacity:1" transform="matrix(1.4,0,0,-1.4,198.40313,145.97613)" />
    <path id="path60" d="M 20.042,-1.41731 H 36.6516" style="fill:none;stroke:#121619;stroke-width:0.3985;stroke-linecap:butt;stroke-linejoin:miter;stroke-miterlimit:10;stroke-dasharray:none;stroke-opacity:1" transform="matrix(1.4,0,0,-1.4,198.40313,145.97613)" />
    <path id="path61" d="M 76.73563,-1.41731 H 93.34521" style="fill:none;stroke:#121619;stroke-width:0.3985;stroke-linecap:butt;stroke-linejoin:miter;stroke-miterlimit:10;stroke-dasharray:none;stroke-opacity:1" transform="matrix(1.4,0,0,-1.4,198.40313,145.97613)" />
    <path id="path62" d="M 133.42924,-1.41731 H 238.09216" style="fill:none;stroke:#121619;stroke-width:0.3985;stroke-linecap:butt;stroke-linejoin:miter;stroke-miterlimit:10;stroke-dasharray:none;stroke-opacity:1" transform="matrix(1.4,0,0,-1.4,198.40313,145.97613)" />
    <path id="path63" d="M -68.0113,2.83466 H -20.042" style="fill:none;stroke:#121619;stroke-width:0.3985;stroke-linecap:butt;stroke-linejoin:miter;stroke-miterlimit:10;stroke-dasharray:none;stroke-opacity:1" transform="matrix(1.4,0,0,-1.4,198.40313,145.97613)" />
    <path id="path64" d="M 20.042,2.83466 H 36.6516" style="fill:none;stroke:#121619;stroke-width:0.3985;stroke-linecap:butt;stroke-linejoin:miter;stroke-miterlimit:10;stroke-dasharray:none;stroke-opacity:1" transform="matrix(1.4,0,0,-1.4,198.40313,145.97613)" />
    <path id="path65" d="M 76.73563,2.83466 H 93.34521" style="fill:none;stroke:#121619;stroke-width:0.3985;stroke-linecap:butt;stroke-linejoin:miter;stroke-miterlimit:10;stroke-dasharray:none;stroke-opacity:1" transform="matrix(1.4,0,0,-1.4,198.40313,145.97613)" />
    <path id="path66" d="M 133.42924,2.83466 H 238.09216" style="fill:none;stroke:#121619;stroke-width:0.3985;stroke-linecap:butt;stroke-linejoin:miter;stroke-miterlimit:10;stroke-dasharray:none;stroke-opacity:1" transform="matrix(1.4,0,0,-1.4,198.40313,145.97613)" />
    <path id="path67" d="M -68.0113,7.08669 H -20.042" style="fill:none;stroke:#121619;stroke-width:0.3985;stroke-linecap:butt;stroke-linejoin:miter;stroke-miterlimit:10;stroke-dasharray:none;stroke-opacity:1" transform="matrix(1.4,0,0,-1.4,198.40313,145.97613)" />
    <path id="path68" d="M 20.042,7.08669 H 36.6516" style="fill:none;stroke:#121619;stroke-width:0.3985;stroke-linecap:butt;stroke-linejoin:miter;stroke-miterlimit:10;stroke-dasharray:none;stroke-opacity:1" transform="matrix(1.4,0,0,-1.4,198.40313,145.97613)" />
    <path id="path69" d="M 76.73563,7.08669 H 93.34521" style="fill:none;stroke:#121619;stroke-width:0.3985;stroke-linecap:butt;stroke-linejoin:miter;stroke-miterlimit:10;stroke-dasharray:none;stroke-opacity:1" transform="matrix(1.4,0,0,-1.4,198.40313,145.97613)" />
    <path id="path70" d="M 133.42924,7.08669 H 238.09216" style="fill:none;stroke:#121619;stroke-width:0.3985;stroke-linecap:butt;stroke-linejoin:miter;stroke-miterlimit:10;stroke-dasharray:none;stroke-opacity:1" transform="matrix(1.4,0,0,-1.4,198.40313,145.97613)" />
    <path id="path71" d="M -68.0113,11.33871 H -20.042" style="fill:none;stroke:#121619;stroke-width:0.3985;stroke-linecap:butt;stroke-linejoin:miter;stroke-miterlimit:10;stroke-dasharray:none;stroke-opacity:1" transform="matrix(1.4,0,0,-1.4,198.40313,145.97613)" />
    <path id="path72" d="M 20.042,11.33871 H 36.6516" style="fill:none;stroke:#121619;stroke-width:0.3985;stroke-linecap:butt;stroke-linejoin:miter;stroke-miterlimit:10;stroke-dasharray:none;stroke-opacity:1" transform="matrix(1.4,0,0,-1.4,198.40313,145.97613)" />
    <path id="path73" d="M 76.73563,11.33871 H 93.34521" style="fill:none;stroke:#121619;stroke-width:0.3985;stroke-linecap:butt;stroke-linejoin:miter;stroke-miterlimit:10;stroke-dasharray:none;stroke-opacity:1" transform="matrix(1.4,0,0,-1.4,198.40313,145.97613)" />
    <path id="path74" d="M 133.42924,11.33871 H 238.09216" style="fill:none;stroke:#121619;stroke-width:0.3985;stroke-linecap:butt;stroke-linejoin:miter;stroke-miterlimit:10;stroke-dasharray:none;stroke-opacity:1" transform="matrix(1.4,0,0,-1.4,198.40313,145.97613)" />
    <path id="path75" d="M -68.0113,15.59073 H -20.042" style="fill:none;stroke:#121619;stroke-width:0.3985;stroke-linecap:butt;stroke-linejoin:miter;stroke-miterlimit:10;stroke-dasharray:none;stroke-opacity:1" transform="matrix(1.4,0,0,-1.4,198.40313,145.97613)" />
    <path id="path76" d="M 20.042,15.59073 H 36.6516" style="fill:none;stroke:#121619;stroke-width:0.3985;stroke-linecap:butt;stroke-linejoin:miter;stroke-miterlimit:10;stroke-dasharray:none;stroke-opacity:1" transform="matrix(1.4,0,0,-1.4,198.40313,145.97613)" />
    <path id="path77" d="M 76.73563,15.59073 H 93.34521" style="fill:none;stroke:#121619;stroke-width:0.3985;stroke-linecap:butt;stroke-linejoin:miter;stroke-miterlimit:10;stroke-dasharray:none;stroke-opacity:1" transform="matrix(1.4,0,0,-1.4,198.40313,145.97613)" />
    <path id="path78" d="M 133.42924,15.59073 H 238.09216" style="fill:none;stroke:#121619;stroke-width:0.3985;stroke-linecap:butt;stroke-linejoin:miter;stroke-miterlimit:10;stroke-dasharray:none;stroke-opacity:1" transform="matrix(1.4,0,0,-1.4,198.40313,145.97613)" />
    <path id="path79" d="M -68.0113,19.84276 H -20.042" style="fill:none;stroke:#121619;stroke-width:0.3985;stroke-linecap:butt;stroke-linejoin:miter;stroke-miterlimit:10;stroke-dasharray:none;stroke-opacity:1" transform="matrix(1.4,0,0,-1.4,198.40313,145.97613)" />
    <path id="path80" d="M 20.042,19.84276 H 36.6516" style="fill:none;stroke:#121619;stroke-width:0.3985;stroke-linecap:butt;stroke-linejoin:miter;stroke-miterlimit:10;stroke-dasharray:none;stroke-opacity:1" transform="matrix(1.4,0,0,-1.4,198.40313,145.97613)" />
    <path id="path81" d="M 76.73563,19.84276 H 93.34521" style="fill:none;stroke:#121619;stroke-width:0.3985;stroke-linecap:butt;stroke-linejoin:miter;stroke-miterlimit:10;stroke-dasharray:none;stroke-opacity:1" transform="matrix(1.4,0,0,-1.4,198.40313,145.97613)" />
    <path id="path82" d="M 133.42924,19.84276 H 238.09216" style="fill:none;stroke:#121619;stroke-width:0.3985;stroke-linecap:butt;stroke-linejoin:miter;stroke-miterlimit:10;stroke-dasharray:none;stroke-opacity:1" transform="matrix(1.4,0,0,-1.4,198.40313,145.97613)" />
    <path id="path83" d="m 2.49069,70.867 c 0,1.37558 -1.11511,2.4907 -2.49069,2.4907 -1.37558,0 -2.49069,-1.11512 -2.49069,-2.4907 0,-1.37558 1.11511,-2.49069 2.49069,-2.49069 1.37558,0 2.49069,1.11511 2.49069,2.49069 z" style="fill:#78a9ff;fill-opacity:1;fill-rule:nonzero;stroke:none" transform="matrix(1.4,0,0,-1.4,198.40313,145.97613)" />
    <path id="path84" d="m 59.18431,42.5202 c 0,1.37558 -1.11511,2.4907 -2.49069,2.4907 -1.3756,0 -2.49069,-1.11512 -2.49069,-2.4907 0,-1.37558 1.11509,-2.49069 2.49069,-2.49069 1.37558,0 2.49069,1.11511 2.49069,2.49069 z" style="fill:#78a9ff;fill-opacity:1;fill-rule:nonzero;stroke:none" transform="matrix(1.4,0,0,-1.4,198.40313,145.97613)" />
    <path id="path85" d="m 115.87793,42.5202 c 0,1.37558 -1.11511,2.4907 -2.49069,2.4907 -1.37558,0 -2.49069,-1.11512 -2.49069,-2.4907 0,-1.37558 1.11511,-2.49069 2.49069,-2.49069 1.37558,0 2.49069,1.11511 2.49069,2.49069 z" style="fill:#78a9ff;fill-opacity:1;fill-rule:nonzero;stroke:none" transform="matrix(1.4,0,0,-1.4,198.40313,145.97613)" />
    <path id="path86" d="M 0,70.867 V 28.54605" style="fill:none;stroke:#78a9ff;stroke-width:0.79701;stroke-linecap:butt;stroke-linejoin:miter;stroke-miterlimit:10;stroke-dasharray:none;stroke-opacity:1" transform="matrix(1.4,0,0,-1.4,198.40313,145.97613)" />
    <path id="path87" d="M 56.69362,42.5202 V 28.54605" style="fill:none;stroke:#78a9ff;stroke-width:0.79701;stroke-linecap:butt;stroke-linejoin:miter;stroke-miterlimit:10;stroke-dasharray:none;stroke-opacity:1" transform="matrix(1.4,0,0,-1.4,198.40313,145.97613)" />
    <path id="path88" d="M 113.38724,42.5202 V 28.54605" style="fill:none;stroke:#78a9ff;stroke-width:0.79701;stroke-linecap:butt;stroke-linejoin:miter;stroke-miterlimit:10;stroke-dasharray:none;stroke-opacity:1" transform="matrix(1.4,0,0,-1.4,198.40313,145.97613)" />
  </g>
</svg>