<?xml version="1.0" encoding="UTF-8"?><!DOCTYPE svg  PUBLIC '-//W3C//DTD SVG 1.1//EN'  'http://www.w3.org/Graphics/SVG/1.1/DTD/svg11.dtd'><svg width="520.65pt" height="103.4pt" version="1.1" viewBox="0 0 520.65 103.4" xmlns="http://www.w3.org/2000/svg" xmlns:xlink="http://www.w3.org/1999/xlink"><defs><style type="text/css">*{stroke-linejoin: round; stroke-linecap: butt}</style></defs><path d="m0 103.4h520.65v-103.4h-520.65z" fill="#ffffff"/><path d="m61.034 36.867h448.71" clip-path="url(#d62dc25a1bc)" fill="none" stroke="#000000" stroke-linecap="square" stroke-width="1.6"/><path d="m61.034 73.95h448.71" clip-path="url(#d62dc25a1bc)" fill="none" stroke="#000000" stroke-linecap="square" stroke-width="1.6"/><path d="m57.326 18.325h-927.08v111.25h927.08z" clip-path="url(#d62dc25a1bc)" fill="#ffffff" stroke="#ffffff" stroke-width="1.2"/><path d="m155.23 73.95v-37.083" clip-path="url(#d62dc25a1bc)" fill="none" stroke="#002d9c" stroke-linecap="square" stroke-width="1.6"/><path d="m340.64 73.95v-37.083" clip-path="url(#d62dc25a1bc)" fill="none" stroke="#002d9c" stroke-linecap="square" stroke-width="1.6"/><path d="m203.62 92.491h14.462v-24.104h-14.462z" clip-path="url(#d62dc25a1bc)" fill="#a8a8a8" opacity=".6"/><path d="m389.03 92.491h14.462v-24.104h-14.462z" clip-path="url(#d62dc25a1bc)" fill="#a8a8a8" opacity=".6"/><path d="m69.007 48.919h24.104v-24.104h-24.104z" clip-path="url(#d62dc25a1bc)" fill="#9f1853" stroke="#9f1853" stroke-width="1.2"/><path d="m69.007 86.002h24.104v-24.104h-24.104z" clip-path="url(#d62dc25a1bc)" fill="#9f1853" stroke="#9f1853" stroke-width="1.2"/><path d="m106.09 48.919h24.104v-24.104h-24.104z" clip-path="url(#d62dc25a1bc)" fill="#33b1ff" stroke="#33b1ff" stroke-width="1.2"/><path d="m106.09 86.002h24.104v-24.104h-24.104z" clip-path="url(#d62dc25a1bc)" fill="#33b1ff" stroke="#33b1ff" stroke-width="1.2"/><path d="m155.23 40.482c0.95887 0 1.8786-0.38096 2.5566-1.059 0.67802-0.67802 1.059-1.5978 1.059-2.5566 0-0.95887-0.38096-1.8786-1.059-2.5566-0.67802-0.67802-1.5978-1.059-2.5566-1.059-0.95887 0-1.8786 0.38096-2.5566 1.059-0.67802 0.67802-1.059 1.5978-1.059 2.5566 0 0.95887 0.38096 1.8786 1.059 2.5566 0.67802 0.67802 1.5978 1.059 2.5566 1.059z" clip-path="url(#d62dc25a1bc)" fill="#002d9c" stroke="#002d9c" stroke-width="1.2"/><path d="m155.23 82.386c2.2374 0 4.3834-0.88892 5.9655-2.471 1.5821-1.5821 2.471-3.7281 2.471-5.9655s-0.88892-4.3834-2.471-5.9655c-1.5821-1.5821-3.7281-2.471-5.9655-2.471s-4.3834 0.88892-5.9655 2.471c-1.5821 1.5821-2.471 3.7281-2.471 5.9655s0.88892 4.3834 2.471 5.9655c1.5821 1.5821 3.7281 2.471 5.9655 2.471z" clip-path="url(#d62dc25a1bc)" fill="#002d9c" stroke="#002d9c" stroke-width="1.6"/><path d="m198.8 48.919h24.104v-24.104h-24.104z" clip-path="url(#d62dc25a1bc)" fill="#9f1853" stroke="#9f1853" stroke-width="1.2"/><path d="m254.42 48.919h24.104v-24.104h-24.104z" clip-path="url(#d62dc25a1bc)" fill="#33b1ff" stroke="#33b1ff" stroke-width="1.2"/><path d="m254.42 86.002h24.104v-24.104h-24.104z" clip-path="url(#d62dc25a1bc)" fill="#9f1853" stroke="#9f1853" stroke-width="1.2"/><path d="m291.51 86.002h24.104v-24.104h-24.104z" clip-path="url(#d62dc25a1bc)" fill="#33b1ff" stroke="#33b1ff" stroke-width="1.2"/><path d="m340.64 40.482c0.95887 0 1.8786-0.38096 2.5566-1.059 0.67802-0.67802 1.059-1.5978 1.059-2.5566 0-0.95887-0.38096-1.8786-1.059-2.5566-0.67802-0.67802-1.5978-1.059-2.5566-1.059-0.95887 0-1.8786 0.38096-2.5566 1.059-0.67802 0.67802-1.059 1.5978-1.059 2.5566 0 0.95887 0.38096 1.8786 1.059 2.5566 0.67802 0.67802 1.5978 1.059 2.5566 1.059z" clip-path="url(#d62dc25a1bc)" fill="#002d9c" stroke="#002d9c" stroke-width="1.2"/><path d="m340.64 82.386c2.2374 0 4.3834-0.88892 5.9655-2.471 1.5821-1.5821 2.471-3.7281 2.471-5.9655s-0.88892-4.3834-2.471-5.9655c-1.5821-1.5821-3.7281-2.471-5.9655-2.471-2.2374 0-4.3834 0.88892-5.9655 2.471-1.5821 1.5821-2.471 3.7281-2.471 5.9655s0.88892 4.3834 2.471 5.9655c1.5821 1.5821 3.7281 2.471 5.9655 2.471z" clip-path="url(#d62dc25a1bc)" fill="#002d9c" stroke="#002d9c" stroke-width="1.6"/><path d="m384.21 48.919h24.104v-24.104h-24.104z" clip-path="url(#d62dc25a1bc)" fill="#9f1853" stroke="#9f1853" stroke-width="1.2"/><path d="m439.84 48.919h24.104v-24.104h-24.104z" clip-path="url(#d62dc25a1bc)" fill="#33b1ff" stroke="#33b1ff" stroke-width="1.2"/><path d="m439.84 86.002h24.104v-24.104h-24.104z" clip-path="url(#d62dc25a1bc)" fill="#9f1853" stroke="#9f1853" stroke-width="1.2"/><path d="m476.92 86.002h24.104v-24.104h-24.104z" clip-path="url(#d62dc25a1bc)" fill="#33b1ff" stroke="#33b1ff" stroke-width="1.2"/><path d="m155.23 78.771v-9.6416" clip-path="url(#d62dc25a1bc)" fill="none" stroke="#ffffff" stroke-linecap="square" stroke-width="1.6"/><path d="m150.4 73.95h9.6416" clip-path="url(#d62dc25a1bc)" fill="none" stroke="#ffffff" stroke-linecap="square" stroke-width="1.6"/><path d="m340.64 78.771v-9.6416" clip-path="url(#d62dc25a1bc)" fill="none" stroke="#ffffff" stroke-linecap="square" stroke-width="1.6"/><path d="m335.82 73.95h9.6416" clip-path="url(#d62dc25a1bc)" fill="none" stroke="#ffffff" stroke-linecap="square" stroke-width="1.6"/><g clip-path="url(#d62dc25a1bc)"><g transform="translate(30.737 40.427) scale(.13 -.13)"><defs><path id="DejaVuSans-Oblique-71" transform="scale(.015625)" d="m2669 525q-231-303-546-460-314-156-695-156-531 0-833 358-301 358-301 986 0 506 186 978t533 847q225 244 517 375t614 131q387 0 637-153t363-462l100 525h578l-934-4813h-579l360 1844zm-1778 813q0-463 193-705 194-242 560-242 544 0 928 520t384 1264q0 450-199 689-198 239-569 239-272 0-504-127-231-126-403-370-181-256-286-600-104-343-104-668z"/><path id="DejaVuSans-30" transform="scale(.015625)" d="m2034 4250q-487 0-733-480-245-479-245-1442 0-959 245-1439 246-480 733-480 491 0 736 480 246 480 246 1439 0 963-246 1442-245 480-736 480zm0 500q785 0 1199-621 414-620 414-1801 0-1178-414-1799-414-620-1199-620-784 0-1198 620-414 621-414 1799 0 1181 414 1801 414 621 1198 621z"/></defs><use transform="translate(0 .78125)" xlink:href="#DejaVuSans-Oblique-71"/><use transform="translate(63.477 .78125)" xlink:href="#DejaVuSans-30"/><use transform="translate(128.06 -15.625) scale(.7)" xlink:href="#DejaVuSans-30"/></g></g><g clip-path="url(#d62dc25a1bc)"><g transform="translate(30.737 77.511) scale(.13 -.13)"><defs><path id="DejaVuSans-31" transform="scale(.015625)" d="m794 531h1031v3560l-1122-225v575l1116 225h631v-4135h1031v-531h-2687v531z"/></defs><use transform="translate(0 .78125)" xlink:href="#DejaVuSans-Oblique-71"/><use transform="translate(63.477 .78125)" xlink:href="#DejaVuSans-30"/><use transform="translate(128.06 -15.625) scale(.7)" xlink:href="#DejaVuSans-31"/></g></g><g clip-path="url(#d62dc25a1bc)"><g transform="translate(75.97 45.864) scale(.064 -.064)" fill="#ffffff"><defs><path id="DejaVuSans-2e" transform="scale(.015625)" d="m684 794h660v-794h-660v794z"/><path id="DejaVuSans-34" transform="scale(.015625)" d="m2419 4116-1594-2491h1594v2491zm-166 550h794v-3041h666v-525h-666v-1100h-628v1100h-2106v609l1940 2957z"/></defs><use xlink:href="#DejaVuSans-30"/><use transform="translate(63.623)" xlink:href="#DejaVuSans-2e"/><use transform="translate(95.41)" xlink:href="#DejaVuSans-34"/></g></g><g clip-path="url(#d62dc25a1bc)"><g transform="translate(75.027 36.121) scale(.104 -.104)" fill="#ffffff"><defs><path id="DejaVuSans-52" transform="scale(.015625)" d="m2841 2188q203-69 395-294t386-619l641-1275h-679l-596 1197q-232 469-449 622t-592 153h-688v-1972h-631v4666h1425q800 0 1194-335 394-334 394-1009 0-441-205-732-205-290-595-402zm-1582 1959v-1656h794q456 0 689 211t233 620-233 617-689 208h-794z"/><path id="DejaVuSans-59" transform="scale(.015625)" d="m-13 4666h679l1293-1919 1285 1919h678l-1650-2444v-2222h-634v2222l-1651 2444z"/></defs><use transform="translate(0 .09375)" xlink:href="#DejaVuSans-52"/><use transform="translate(70.439 -16.312) scale(.7)" xlink:href="#DejaVuSans-59"/></g></g><g clip-path="url(#d62dc25a1bc)"><g transform="translate(75.97 82.947) scale(.064 -.064)" fill="#ffffff"><use xlink:href="#DejaVuSans-30"/><use transform="translate(63.623)" xlink:href="#DejaVuSans-2e"/><use transform="translate(95.41)" xlink:href="#DejaVuSans-34"/></g></g><g clip-path="url(#d62dc25a1bc)"><g transform="translate(75.027 73.204) scale(.104 -.104)" fill="#ffffff"><use transform="translate(0 .09375)" xlink:href="#DejaVuSans-52"/><use transform="translate(70.439 -16.312) scale(.7)" xlink:href="#DejaVuSans-59"/></g></g><g clip-path="url(#d62dc25a1bc)"><g transform="translate(113.05 45.864) scale(.064 -.064)"><use xlink:href="#DejaVuSans-30"/><use transform="translate(63.623)" xlink:href="#DejaVuSans-2e"/><use transform="translate(95.41)" xlink:href="#DejaVuSans-34"/></g></g><g clip-path="url(#d62dc25a1bc)"><g transform="translate(111.8 36.121) scale(.104 -.104)"><defs><path id="DejaVuSans-5a" transform="scale(.015625)" d="m359 4666h3666v-482l-2950-3653h3022v-531h-3809v481l2950 3653h-2879v532z"/></defs><use transform="translate(0 .09375)" xlink:href="#DejaVuSans-52"/><use transform="translate(70.439 -16.312) scale(.7)" xlink:href="#DejaVuSans-5a"/></g></g><g clip-path="url(#d62dc25a1bc)"><g transform="translate(113.05 82.947) scale(.064 -.064)"><use xlink:href="#DejaVuSans-30"/><use transform="translate(63.623)" xlink:href="#DejaVuSans-2e"/><use transform="translate(95.41)" xlink:href="#DejaVuSans-34"/></g></g><g clip-path="url(#d62dc25a1bc)"><g transform="translate(111.8 73.204) scale(.104 -.104)"><use transform="translate(0 .09375)" xlink:href="#DejaVuSans-52"/><use transform="translate(70.439 -16.312) scale(.7)" xlink:href="#DejaVuSans-5a"/></g></g><g clip-path="url(#d62dc25a1bc)"><g transform="translate(205.76 45.864) scale(.064 -.064)" fill="#ffffff"><use xlink:href="#DejaVuSans-30"/><use transform="translate(63.623)" xlink:href="#DejaVuSans-2e"/><use transform="translate(95.41)" xlink:href="#DejaVuSans-34"/></g></g><g clip-path="url(#d62dc25a1bc)"><g transform="translate(204.82 36.121) scale(.104 -.104)" fill="#ffffff"><use transform="translate(0 .09375)" xlink:href="#DejaVuSans-52"/><use transform="translate(70.439 -16.312) scale(.7)" xlink:href="#DejaVuSans-59"/></g></g><path d="m210.85 68.387v24.104" clip-path="url(#d62dc25a1bc)" fill="none" stroke="#000000" stroke-dasharray="2.96,1.28" stroke-width=".8"/><g clip-path="url(#d62dc25a1bc)"><g transform="translate(188.21 66.001) scale(.104 -.104)"><defs><path id="DejaVuSans-63" transform="scale(.015625)" d="m3122 3366v-538q-244 135-489 202t-495 67q-560 0-870-355-309-354-309-995t309-996q310-354 870-354 250 0 495 67t489 202v-532q-241-112-499-168-257-57-548-57-791 0-1257 497-465 497-465 1341 0 856 470 1346 471 491 1290 491 265 0 518-55 253-54 491-163z"/><path id="DejaVuSans-75" transform="scale(.015625)" d="m544 1381v2119h575v-2097q0-497 193-746 194-248 582-248 465 0 735 297 271 297 271 810v1984h575v-3500h-575v538q-209-319-486-474-276-155-642-155-603 0-916 375-312 375-312 1097zm1447 2203z"/><path id="DejaVuSans-74" transform="scale(.015625)" d="m1172 4494v-994h1184v-447h-1184v-1900q0-428 117-550t477-122h590v-481h-590q-666 0-919 248-253 249-253 905v1900h-422v447h422v994h578z"/><path id="DejaVuSans-5f" transform="scale(.015625)" d="m3263-1063v-446h-3326v446h3326z"/><path id="DejaVuSans-78" transform="scale(.015625)" d="m3513 3500-1266-1703 1331-1797h-678l-1019 1375-1018-1375h-679l1360 1831-1244 1669h678l928-1247 928 1247h679z"/></defs><use xlink:href="#DejaVuSans-63"/><use transform="translate(54.98)" xlink:href="#DejaVuSans-75"/><use transform="translate(118.36)" xlink:href="#DejaVuSans-74"/><use transform="translate(157.57)" xlink:href="#DejaVuSans-5f"/><use transform="translate(207.57)" xlink:href="#DejaVuSans-63"/><use transform="translate(262.55)" xlink:href="#DejaVuSans-78"/><use transform="translate(321.73)" xlink:href="#DejaVuSans-5f"/><use transform="translate(371.73)" xlink:href="#DejaVuSans-30"/></g></g><g clip-path="url(#d62dc25a1bc)"><g transform="translate(261.39 45.864) scale(.064 -.064)"><use xlink:href="#DejaVuSans-30"/><use transform="translate(63.623)" xlink:href="#DejaVuSans-2e"/><use transform="translate(95.41)" xlink:href="#DejaVuSans-34"/></g></g><g clip-path="url(#d62dc25a1bc)"><g transform="translate(260.13 36.121) scale(.104 -.104)"><use transform="translate(0 .09375)" xlink:href="#DejaVuSans-52"/><use transform="translate(70.439 -16.312) scale(.7)" xlink:href="#DejaVuSans-5a"/></g></g><g clip-path="url(#d62dc25a1bc)"><g transform="translate(261.39 82.947) scale(.064 -.064)" fill="#ffffff"><use xlink:href="#DejaVuSans-30"/><use transform="translate(63.623)" xlink:href="#DejaVuSans-2e"/><use transform="translate(95.41)" xlink:href="#DejaVuSans-34"/></g></g><g clip-path="url(#d62dc25a1bc)"><g transform="translate(260.44 73.204) scale(.104 -.104)" fill="#ffffff"><use transform="translate(0 .09375)" xlink:href="#DejaVuSans-52"/><use transform="translate(70.439 -16.312) scale(.7)" xlink:href="#DejaVuSans-59"/></g></g><g clip-path="url(#d62dc25a1bc)"><g transform="translate(298.47 82.947) scale(.064 -.064)"><use xlink:href="#DejaVuSans-30"/><use transform="translate(63.623)" xlink:href="#DejaVuSans-2e"/><use transform="translate(95.41)" xlink:href="#DejaVuSans-34"/></g></g><g clip-path="url(#d62dc25a1bc)"><g transform="translate(297.21 73.204) scale(.104 -.104)"><use transform="translate(0 .09375)" xlink:href="#DejaVuSans-52"/><use transform="translate(70.439 -16.312) scale(.7)" xlink:href="#DejaVuSans-5a"/></g></g><g clip-path="url(#d62dc25a1bc)"><g transform="translate(391.18 45.864) scale(.064 -.064)" fill="#ffffff"><use xlink:href="#DejaVuSans-30"/><use transform="translate(63.623)" xlink:href="#DejaVuSans-2e"/><use transform="translate(95.41)" xlink:href="#DejaVuSans-34"/></g></g><g clip-path="url(#d62dc25a1bc)"><g transform="translate(390.23 36.121) scale(.104 -.104)" fill="#ffffff"><use transform="translate(0 .09375)" xlink:href="#DejaVuSans-52"/><use transform="translate(70.439 -16.312) scale(.7)" xlink:href="#DejaVuSans-59"/></g></g><path d="m396.27 68.387v24.104" clip-path="url(#d62dc25a1bc)" fill="none" stroke="#000000" stroke-dasharray="2.96,1.28" stroke-width=".8"/><g clip-path="url(#d62dc25a1bc)"><g transform="translate(373.63 65.895) scale(.104 -.104)"><use xlink:href="#DejaVuSans-63"/><use transform="translate(54.98)" xlink:href="#DejaVuSans-75"/><use transform="translate(118.36)" xlink:href="#DejaVuSans-74"/><use transform="translate(157.57)" xlink:href="#DejaVuSans-5f"/><use transform="translate(207.57)" xlink:href="#DejaVuSans-63"/><use transform="translate(262.55)" xlink:href="#DejaVuSans-78"/><use transform="translate(321.73)" xlink:href="#DejaVuSans-5f"/><use transform="translate(371.73)" xlink:href="#DejaVuSans-31"/></g></g><g clip-path="url(#d62dc25a1bc)"><g transform="translate(446.8 45.864) scale(.064 -.064)"><use xlink:href="#DejaVuSans-30"/><use transform="translate(63.623)" xlink:href="#DejaVuSans-2e"/><use transform="translate(95.41)" xlink:href="#DejaVuSans-34"/></g></g><g clip-path="url(#d62dc25a1bc)"><g transform="translate(445.55 36.121) scale(.104 -.104)"><use transform="translate(0 .09375)" xlink:href="#DejaVuSans-52"/><use transform="translate(70.439 -16.312) scale(.7)" xlink:href="#DejaVuSans-5a"/></g></g><g clip-path="url(#d62dc25a1bc)"><g transform="translate(446.8 82.947) scale(.064 -.064)" fill="#ffffff"><use xlink:href="#DejaVuSans-30"/><use transform="translate(63.623)" xlink:href="#DejaVuSans-2e"/><use transform="translate(95.41)" xlink:href="#DejaVuSans-34"/></g></g><g clip-path="url(#d62dc25a1bc)"><g transform="translate(445.86 73.204) scale(.104 -.104)" fill="#ffffff"><use transform="translate(0 .09375)" xlink:href="#DejaVuSans-52"/><use transform="translate(70.439 -16.312) scale(.7)" xlink:href="#DejaVuSans-59"/></g></g><g clip-path="url(#d62dc25a1bc)"><g transform="translate(483.88 82.947) scale(.064 -.064)"><use xlink:href="#DejaVuSans-30"/><use transform="translate(63.623)" xlink:href="#DejaVuSans-2e"/><use transform="translate(95.41)" xlink:href="#DejaVuSans-34"/></g></g><g clip-path="url(#d62dc25a1bc)"><g transform="translate(482.63 73.204) scale(.104 -.104)"><use transform="translate(0 .09375)" xlink:href="#DejaVuSans-52"/><use transform="translate(70.439 -16.312) scale(.7)" xlink:href="#DejaVuSans-5a"/></g></g><defs><clipPath id="d62dc25a1bc"><rect x="7.2" y="7.2" width="506.25" height="89"/></clipPath></defs></svg>