<?xml version="1.0" encoding="UTF-8"?><!DOCTYPE svg  PUBLIC '-//W3C//DTD SVG 1.1//EN'  'http://www.w3.org/Graphics/SVG/1.1/DTD/svg11.dtd'><svg width="544.62pt" height="179.6pt" version="1.1" viewBox="0 0 544.62 179.6" xmlns="http://www.w3.org/2000/svg" xmlns:xlink="http://www.w3.org/1999/xlink"><defs><style type="text/css">*{stroke-linejoin: round; stroke-linecap: butt}</style></defs><path d="m0 179.6h544.62v-179.6h-544.62z" fill="#ffffff"/><path d="m64.609 51.882h468.18" clip-path="url(#298a4d7d295)" fill="none" stroke="#000000" stroke-linecap="square" stroke-width="2"/><path d="m64.609 98.236h468.18" clip-path="url(#298a4d7d295)" fill="none" stroke="#000000" stroke-linecap="square" stroke-width="2"/><path d="m64.609 144.59h468.18" clip-path="url(#298a4d7d295)" fill="none" stroke="#000000" stroke-linecap="square" stroke-width="2"/><g transform="translate(7.2 14.798) scale(.1 -.1)"><defs><path id="DejaVuSans-47" transform="scale(.015625)" d="m3809 666v1253h-1031v519h1656v-2004q-365-259-806-392-440-133-940-133-1094 0-1712 639-617 640-617 1780 0 1144 617 1783 618 639 1712 639 456 0 867-113 411-112 758-331v-672q-350 297-744 447t-828 150q-857 0-1287-478-429-478-429-1425 0-944 429-1422 430-478 1287-478 334 0 596 58 263 58 472 180z"/><path id="DejaVuSans-6c" transform="scale(.015625)" d="m603 4863h575v-4863h-575v4863z"/><path id="DejaVuSans-6f" transform="scale(.015625)" d="m1959 3097q-462 0-731-361t-269-989 267-989q268-361 733-361 460 0 728 362 269 363 269 988 0 622-269 986-268 364-728 364zm0 487q750 0 1178-488 429-487 429-1349 0-859-429-1349-428-489-1178-489-753 0-1180 489-426 490-426 1349 0 862 426 1349 427 488 1180 488z"/><path id="DejaVuSans-62" transform="scale(.015625)" d="m3116 1747q0 634-261 995t-717 361q-457 0-718-361t-261-995 261-995 718-361q456 0 717 361t261 995zm-1957 1222q182 312 458 463 277 152 661 152 638 0 1036-506 399-506 399-1331t-399-1332q-398-506-1036-506-384 0-661 152-276 152-458 464v-525h-578v4863h578v-1894z"/><path id="DejaVuSans-61" transform="scale(.015625)" d="m2194 1759q-697 0-966-159t-269-544q0-306 202-486 202-179 548-179 479 0 768 339t289 901v128h-572zm1147 238v-1997h-575v531q-197-318-491-470t-719-152q-537 0-855 302-317 302-317 808 0 590 395 890 396 300 1180 300h807v57q0 397-261 614t-733 217q-300 0-585-72-284-72-546-216v532q315 122 612 182 297 61 578 61 760 0 1135-394 375-393 375-1193z"/><path id="DejaVuSans-50" transform="scale(.015625)" d="m1259 4147v-1753h794q441 0 681 228 241 228 241 650 0 419-241 647-240 228-681 228h-794zm-631 519h1425q785 0 1186-355 402-355 402-1039 0-691-402-1044-401-353-1186-353h-794v-1875h-631v4666z"/><path id="DejaVuSans-68" transform="scale(.015625)" d="m3513 2113v-2113h-575v2094q0 497-194 743-194 247-581 247-466 0-735-297-269-296-269-809v-1978h-578v4863h578v-1907q207 316 486 472 280 156 646 156 603 0 912-373 310-373 310-1098z"/><path id="DejaVuSans-73" transform="scale(.015625)" d="m2834 3397v-544q-243 125-506 187-262 63-544 63-428 0-642-131t-214-394q0-200 153-314t616-217l197-44q612-131 870-370t258-667q0-488-386-773-386-284-1061-284-281 0-586 55t-642 164v594q319-166 628-249 309-82 613-82 406 0 624 139 219 139 219 392 0 234-158 359-157 125-692 241l-200 47q-534 112-772 345-237 233-237 639 0 494 350 762 350 269 994 269 318 0 599-47 282-46 519-140z"/><path id="DejaVuSans-65" transform="scale(.015625)" d="m3597 1894v-281h-2644q38-594 358-905t892-311q331 0 642 81t618 244v-544q-310-131-635-200t-659-69q-838 0-1327 487-489 488-489 1320 0 859 464 1363 464 505 1252 505 706 0 1117-455 411-454 411-1235zm-575 169q-6 471-264 752-258 282-683 282-481 0-770-272t-333-766l2050 4z"/><path id="DejaVuSans-3a" transform="scale(.015625)" d="m750 794h659v-794h-659v794zm0 2515h659v-793h-659v793z"/><path id="DejaVuSans-Oblique-3c0" transform="scale(.015625)" d="m584 3500h3354l-113-575h-441l-418-2150q-44-225 15-325 57-97 228-97 47 0 116 10 72 6 94 9l-81-416q-116-40-235-59-122-19-237-19-375 0-478 203-104 207 3 757l406 2087h-1291l-568-2925h-588l569 2925h-447l112 575z"/></defs><use transform="translate(0 .015625)" xlink:href="#DejaVuSans-47"/><use transform="translate(77.49 .015625)" xlink:href="#DejaVuSans-6c"/><use transform="translate(105.27 .015625)" xlink:href="#DejaVuSans-6f"/><use transform="translate(166.46 .015625)" xlink:href="#DejaVuSans-62"/><use transform="translate(229.93 .015625)" xlink:href="#DejaVuSans-61"/><use transform="translate(291.21 .015625)" xlink:href="#DejaVuSans-6c"/><use transform="translate(318.99 .015625)" xlink:href="#DejaVuSans-20"/><use transform="translate(350.78 .015625)" xlink:href="#DejaVuSans-50"/><use transform="translate(411.08 .015625)" xlink:href="#DejaVuSans-68"/><use transform="translate(474.46 .015625)" xlink:href="#DejaVuSans-61"/><use transform="translate(535.74 .015625)" xlink:href="#DejaVuSans-73"/><use transform="translate(587.84 .015625)" xlink:href="#DejaVuSans-65"/><use transform="translate(649.37 .015625)" xlink:href="#DejaVuSans-3a"/><use transform="translate(683.06 .015625)" xlink:href="#DejaVuSans-20"/><use transform="translate(714.84 .015625)" xlink:href="#DejaVuSans-Oblique-3c0"/></g><path d="m59.974 28.705h-1158.8v185.42h1158.8z" clip-path="url(#298a4d7d295)" fill="#ffffff" stroke="#ffffff" stroke-width="1.5"/><path d="m367.76 144.59v-92.708" clip-path="url(#298a4d7d295)" fill="none" stroke="#002d9c" stroke-linecap="square" stroke-width="2"/><path d="m74.575 66.947h30.13v-30.13h-30.13z" clip-path="url(#298a4d7d295)" fill="#fa4d56" stroke="#fa4d56" stroke-width="1.5"/><path d="m74.575 113.3h30.13v-30.13h-30.13z" clip-path="url(#298a4d7d295)" fill="#fa4d56" stroke="#fa4d56" stroke-width="1.5"/><path d="m74.575 159.65h30.13v-30.13h-30.13z" clip-path="url(#298a4d7d295)" fill="#fa4d56" stroke="#fa4d56" stroke-width="1.5"/><path d="m110.13 159.65h98.085v-122.84h-98.085z" clip-path="url(#298a4d7d295)" fill="#9f1853" stroke="#9f1853" stroke-width="1.5"/><path d="m213.64 66.947h30.13v-30.13h-30.13z" clip-path="url(#298a4d7d295)" fill="#fa4d56" stroke="#fa4d56" stroke-width="1.5"/><path d="m213.64 113.3h30.13v-30.13h-30.13z" clip-path="url(#298a4d7d295)" fill="#fa4d56" stroke="#fa4d56" stroke-width="1.5"/><path d="m213.64 159.65h30.13v-30.13h-30.13z" clip-path="url(#298a4d7d295)" fill="#fa4d56" stroke="#fa4d56" stroke-width="1.5"/><path d="m259.99 66.947h30.13v-30.13h-30.13z" clip-path="url(#298a4d7d295)" fill="#002d9c" stroke="#002d9c" stroke-width="1.5"/><path d="m259.99 113.3h30.13v-30.13h-30.13z" clip-path="url(#298a4d7d295)" fill="#002d9c" stroke="#002d9c" stroke-width="1.5"/><path d="m259.99 159.65h30.13v-30.13h-30.13z" clip-path="url(#298a4d7d295)" fill="#002d9c" stroke="#002d9c" stroke-width="1.5"/><path d="m306.35 159.65h30.13v-30.13h-30.13z" clip-path="url(#298a4d7d295)" fill="#fa4d56" stroke="#fa4d56" stroke-width="1.5"/><path d="m367.76 56.401c1.1986 0 2.3482-0.4762 3.1958-1.3237 0.84753-0.84753 1.3237-1.9972 1.3237-3.1958s-0.4762-2.3482-1.3237-3.1958c-0.84753-0.84753-1.9972-1.3237-3.1958-1.3237-1.1986 0-2.3482 0.4762-3.1958 1.3237-0.84753 0.84753-1.3237 1.9972-1.3237 3.1958s0.4762 2.3482 1.3237 3.1958c0.84753 0.84753 1.9972 1.3237 3.1958 1.3237z" clip-path="url(#298a4d7d295)" fill="#002d9c" stroke="#002d9c" stroke-width="1.5"/><path d="m367.76 102.76c1.1986 0 2.3482-0.4762 3.1958-1.3237s1.3237-1.9972 1.3237-3.1958c0-1.1986-0.4762-2.3482-1.3237-3.1958-0.84753-0.84753-1.9972-1.3237-3.1958-1.3237-1.1986 0-2.3482 0.4762-3.1958 1.3237-0.84753 0.84753-1.3237 1.9972-1.3237 3.1958 0 1.1986 0.4762 2.3482 1.3237 3.1958 0.84753 0.84753 1.9972 1.3237 3.1958 1.3237z" clip-path="url(#298a4d7d295)" fill="#002d9c" stroke="#002d9c" stroke-width="1.5"/><path d="m367.76 155.14c2.7967 0 5.4792-1.1111 7.4568-3.0887 1.9776-1.9776 3.0887-4.6601 3.0887-7.4568 0-2.7967-1.1111-5.4792-3.0887-7.4568-1.9776-1.9776-4.6601-3.0887-7.4568-3.0887-2.7967 0-5.4792 1.1111-7.4568 3.0887-1.9776 1.9776-3.0887 4.6601-3.0887 7.4568 0 2.7967 1.1111 5.4792 3.0887 7.4568 1.9776 1.9776 4.6601 3.0887 7.4568 3.0887z" clip-path="url(#298a4d7d295)" fill="#002d9c" stroke="#002d9c" stroke-width="2"/><path d="m399.05 159.65h30.13v-30.13h-30.13z" clip-path="url(#298a4d7d295)" fill="#fa4d56" stroke="#fa4d56" stroke-width="1.5"/><path d="m399.05 66.947h30.13v-30.13h-30.13z" clip-path="url(#298a4d7d295)" fill="#002d9c" stroke="#002d9c" stroke-width="1.5"/><path d="m399.05 113.3h30.13v-30.13h-30.13z" clip-path="url(#298a4d7d295)" fill="#002d9c" stroke="#002d9c" stroke-width="1.5"/><path d="m445.41 159.65h30.13v-30.13h-30.13z" clip-path="url(#298a4d7d295)" fill="#002d9c" stroke="#002d9c" stroke-width="1.5"/><path d="m445.41 66.947h30.13v-30.13h-30.13z" clip-path="url(#298a4d7d295)" fill="#fa4d56" stroke="#fa4d56" stroke-width="1.5"/><path d="m445.41 113.3h30.13v-30.13h-30.13z" clip-path="url(#298a4d7d295)" fill="#fa4d56" stroke="#fa4d56" stroke-width="1.5"/><path d="m491.76 159.65h30.13v-30.13h-30.13z" clip-path="url(#298a4d7d295)" fill="#fa4d56" stroke="#fa4d56" stroke-width="1.5"/><path d="m367.76 150.62v-12.052" clip-path="url(#298a4d7d295)" fill="none" stroke="#ffffff" stroke-linecap="square" stroke-width="2"/><path d="m361.74 144.59h12.052" clip-path="url(#298a4d7d295)" fill="none" stroke="#ffffff" stroke-linecap="square" stroke-width="2"/><g clip-path="url(#298a4d7d295)"><g transform="translate(37.301 56.333) scale(.1625 -.1625)"><defs><path id="DejaVuSans-Oblique-71" transform="scale(.015625)" d="m2669 525q-231-303-546-460-314-156-695-156-531 0-833 358-301 358-301 986 0 506 186 978t533 847q225 244 517 375t614 131q387 0 637-153t363-462l100 525h578l-934-4813h-579l360 1844zm-1778 813q0-463 193-705 194-242 560-242 544 0 928 520t384 1264q0 450-199 689-198 239-569 239-272 0-504-127-231-126-403-370-181-256-286-600-104-343-104-668z"/><path id="DejaVuSans-30" transform="scale(.015625)" d="m2034 4250q-487 0-733-480-245-479-245-1442 0-959 245-1439 246-480 733-480 491 0 736 480 246 480 246 1439 0 963-246 1442-245 480-736 480zm0 500q785 0 1199-621 414-620 414-1801 0-1178-414-1799-414-620-1199-620-784 0-1198 620-414 621-414 1799 0 1181 414 1801 414 621 1198 621z"/></defs><use xlink:href="#DejaVuSans-Oblique-71"/><use transform="translate(63.477 -16.406) scale(.7)" xlink:href="#DejaVuSans-30"/></g></g><g clip-path="url(#298a4d7d295)"><g transform="translate(37.301 102.69) scale(.1625 -.1625)"><defs><path id="DejaVuSans-31" transform="scale(.015625)" d="m794 531h1031v3560l-1122-225v575l1116 225h631v-4135h1031v-531h-2687v531z"/></defs><use xlink:href="#DejaVuSans-Oblique-71"/><use transform="translate(63.477 -16.406) scale(.7)" xlink:href="#DejaVuSans-31"/></g></g><g clip-path="url(#298a4d7d295)"><g transform="translate(37.301 149.04) scale(.1625 -.1625)"><defs><path id="DejaVuSans-32" transform="scale(.015625)" d="m1228 531h2203v-531h-2962v531q359 372 979 998 621 627 780 809 303 340 423 576 121 236 121 464 0 372-261 606-261 235-680 235-297 0-627-103-329-103-704-313v638q381 153 712 231 332 78 607 78 725 0 1156-363 431-362 431-968 0-288-108-546-107-257-392-607-78-91-497-524-418-433-1181-1211z"/></defs><use xlink:href="#DejaVuSans-Oblique-71"/><use transform="translate(63.477 -16.406) scale(.7)" xlink:href="#DejaVuSans-32"/></g></g><g clip-path="url(#298a4d7d295)"><g transform="translate(84.752 55.469) scale(.13 -.13)"><defs><path id="DejaVuSans-48" transform="scale(.015625)" d="m628 4666h631v-1913h2294v1913h631v-4666h-631v2222h-2294v-2222h-631v4666z"/></defs><use xlink:href="#DejaVuSans-48"/></g></g><g clip-path="url(#298a4d7d295)"><g transform="translate(84.752 101.82) scale(.13 -.13)"><use xlink:href="#DejaVuSans-48"/></g></g><g clip-path="url(#298a4d7d295)"><g transform="translate(84.752 148.18) scale(.13 -.13)"><use xlink:href="#DejaVuSans-48"/></g></g><g clip-path="url(#298a4d7d295)"><g transform="translate(113.37 55.469) scale(.13 -.13)" fill="#ffffff"><use xlink:href="#DejaVuSans-30"/></g></g><g clip-path="url(#298a4d7d295)"><g transform="translate(113.37 101.82) scale(.13 -.13)" fill="#ffffff"><use xlink:href="#DejaVuSans-31"/></g></g><g clip-path="url(#298a4d7d295)"><g transform="translate(113.37 148.18) scale(.13 -.13)" fill="#ffffff"><use xlink:href="#DejaVuSans-32"/></g></g><g clip-path="url(#298a4d7d295)"><g transform="translate(122.75 122.23) scale(.08 -.08)" fill="#ffffff"><defs><path id="DejaVuSans-2c" transform="scale(.015625)" d="m750 794h659v-538l-512-1e3h-403l256 1e3v538z"/><path id="DejaVuSans-2212" transform="scale(.015625)" d="m678 2272h4006v-531h-4006v531z"/></defs><use transform="translate(0 .09375)" xlink:href="#DejaVuSans-31"/><use transform="translate(63.623 .09375)" xlink:href="#DejaVuSans-2c"/><use transform="translate(95.41 .09375)" xlink:href="#DejaVuSans-20"/><use transform="translate(127.2 .09375)" xlink:href="#DejaVuSans-31"/><use transform="translate(190.82 .09375)" xlink:href="#DejaVuSans-2c"/><use transform="translate(222.61 .09375)" xlink:href="#DejaVuSans-20"/><use transform="translate(254.39 .09375)" xlink:href="#DejaVuSans-31"/><use transform="translate(318.02 .09375)" xlink:href="#DejaVuSans-2c"/><use transform="translate(349.8 .09375)" xlink:href="#DejaVuSans-20"/><use transform="translate(381.59 .09375)" xlink:href="#DejaVuSans-31"/><use transform="translate(445.21 .09375)" xlink:href="#DejaVuSans-2c"/><use transform="translate(477 .09375)" xlink:href="#DejaVuSans-20"/><use transform="translate(508.79 .09375)" xlink:href="#DejaVuSans-31"/><use transform="translate(572.41 .09375)" xlink:href="#DejaVuSans-2c"/><use transform="translate(604.2 .09375)" xlink:href="#DejaVuSans-20"/><use transform="translate(635.99 .09375)" xlink:href="#DejaVuSans-31"/><use transform="translate(699.61 .09375)" xlink:href="#DejaVuSans-2c"/><use transform="translate(731.4 .09375)" xlink:href="#DejaVuSans-20"/><use transform="translate(763.18 .09375)" xlink:href="#DejaVuSans-31"/><use transform="translate(826.81 .09375)" xlink:href="#DejaVuSans-2c"/><use transform="translate(858.59 .09375)" xlink:href="#DejaVuSans-20"/><use transform="translate(890.38 .09375)" xlink:href="#DejaVuSans-2212"/><use transform="translate(974.17 .09375)" xlink:href="#DejaVuSans-31"/></g></g><g clip-path="url(#298a4d7d295)"><g transform="translate(135.46 99.042) scale(.13 -.13)" fill="#ffffff"><defs><path id="DejaVuSans-44" transform="scale(.015625)" d="m1259 4147v-3628h763q966 0 1414 437 448 438 448 1382 0 937-448 1373t-1414 436h-763zm-631 519h1297q1356 0 1990-564 635-564 635-1764 0-1207-638-1773-637-565-1987-565h-1297v4666z"/><path id="DejaVuSans-69" transform="scale(.015625)" d="m603 3500h575v-3500h-575v3500zm0 1363h575v-729h-575v729z"/><path id="DejaVuSans-67" transform="scale(.015625)" d="m2906 1791q0 625-258 968-257 344-723 344-462 0-720-344-258-343-258-968 0-622 258-966t720-344q466 0 723 344 258 344 258 966zm575-1357q0-893-397-1329-396-436-1215-436-303 0-572 45t-522 139v559q253-137 500-202 247-66 503-66 566 0 847 295t281 892v285q-178-310-456-463t-666-153q-643 0-1037 490-394 491-394 1301 0 812 394 1302 394 491 1037 491 388 0 666-153t456-462v531h575v-3066z"/><path id="DejaVuSans-6e" transform="scale(.015625)" d="m3513 2113v-2113h-575v2094q0 497-194 743-194 247-581 247-466 0-735-297-269-296-269-809v-1978h-578v3500h578v-544q207 316 486 472 280 156 646 156 603 0 912-373 310-373 310-1098z"/></defs><use xlink:href="#DejaVuSans-44"/><use transform="translate(77.002)" xlink:href="#DejaVuSans-69"/><use transform="translate(104.79)" xlink:href="#DejaVuSans-61"/><use transform="translate(166.06)" xlink:href="#DejaVuSans-67"/><use transform="translate(229.54)" xlink:href="#DejaVuSans-6f"/><use transform="translate(290.72)" xlink:href="#DejaVuSans-6e"/><use transform="translate(354.1)" xlink:href="#DejaVuSans-61"/><use transform="translate(415.38)" xlink:href="#DejaVuSans-6c"/></g></g><g clip-path="url(#298a4d7d295)"><g transform="translate(223.81 55.469) scale(.13 -.13)"><use xlink:href="#DejaVuSans-48"/></g></g><g clip-path="url(#298a4d7d295)"><g transform="translate(223.81 101.82) scale(.13 -.13)"><use xlink:href="#DejaVuSans-48"/></g></g><g clip-path="url(#298a4d7d295)"><g transform="translate(223.81 148.18) scale(.13 -.13)"><use xlink:href="#DejaVuSans-48"/></g></g><g clip-path="url(#298a4d7d295)"><g transform="translate(270.6 55.469) scale(.13 -.13)" fill="#ffffff"><defs><path id="DejaVuSans-58" transform="scale(.015625)" d="m403 4666h678l1160-1735 1165 1735h678l-1500-2241 1600-2425h-678l-1312 1984-1322-1984h-681l1665 2491-1453 2175z"/></defs><use xlink:href="#DejaVuSans-58"/></g></g><g clip-path="url(#298a4d7d295)"><g transform="translate(270.6 101.82) scale(.13 -.13)" fill="#ffffff"><use xlink:href="#DejaVuSans-58"/></g></g><g clip-path="url(#298a4d7d295)"><g transform="translate(270.6 148.18) scale(.13 -.13)" fill="#ffffff"><use xlink:href="#DejaVuSans-58"/></g></g><g clip-path="url(#298a4d7d295)"><g transform="translate(316.52 148.18) scale(.13 -.13)"><use xlink:href="#DejaVuSans-48"/></g></g><g clip-path="url(#298a4d7d295)"><g transform="translate(409.23 148.18) scale(.13 -.13)"><use xlink:href="#DejaVuSans-48"/></g></g><g clip-path="url(#298a4d7d295)"><g transform="translate(409.67 55.469) scale(.13 -.13)" fill="#ffffff"><use xlink:href="#DejaVuSans-58"/></g></g><g clip-path="url(#298a4d7d295)"><g transform="translate(409.67 101.82) scale(.13 -.13)" fill="#ffffff"><use xlink:href="#DejaVuSans-58"/></g></g><g clip-path="url(#298a4d7d295)"><g transform="translate(456.02 148.18) scale(.13 -.13)" fill="#ffffff"><use xlink:href="#DejaVuSans-58"/></g></g><g clip-path="url(#298a4d7d295)"><g transform="translate(455.58 55.469) scale(.13 -.13)"><use xlink:href="#DejaVuSans-48"/></g></g><g clip-path="url(#298a4d7d295)"><g transform="translate(455.58 101.82) scale(.13 -.13)"><use xlink:href="#DejaVuSans-48"/></g></g><g clip-path="url(#298a4d7d295)"><g transform="translate(501.94 148.18) scale(.13 -.13)"><use xlink:href="#DejaVuSans-48"/></g></g><defs><clipPath id="298a4d7d295"><rect x="7.2" y="14.798" width="530.22" height="157.6"/></clipPath></defs></svg>