<svg xmlns="http://www.w3.org/2000/svg" class="" style="display: block; user-select: none;" viewBox="0 0 376.4 160" width="376.4" height="160"><defs xmlns="http://www.w3.org/1999/xhtml"><style type="text/css">&lt;!--/*--&gt;&lt;![CDATA[/*&gt;&lt;!--*/

  /* from https://fonts.googleapis.com/css2?family=IBM+Plex+Sans&amp;display=swap */
  @font-face {
    font-family: 'IBM Plex Sans';
    font-style: normal;
    font-weight: 400;
    font-display: swap;
    src: url(https://fonts.gstatic.com/s/ibmplexsans/v14/zYXgKVElMYYaJe8bpLHnCwDKhdHeFaxOedc.woff2) format('woff2');
  }
  
  /* from https://fonts.googleapis.com/css2?family=IBM+Plex+Mono&amp;display=swap */
  @font-face {
    font-family: 'IBM Plex Mono';
    font-style: normal;
    font-weight: 400;
    font-display: swap;
    src: url(https://fonts.gstatic.com/s/ibmplexmono/v12/-F63fjptAgt5VM-kVkqdyU8n1i8q131nj-o.woff2) format('woff2');
  }    

/*]]&gt;*/--&gt;</style></defs><rect x="0" y="0" width="376.4" height="160" style="fill: rgb(33, 39, 42);"/><g><g transform="translate(20, 0)"><g><g><text x="38.4" y="36" style="fill: rgb(135, 141, 150); font-family: IBM Plex Mono, monospace; font-weight: 400; text-anchor: end; font-size: 14px;" dy=".3em"><tspan>q[0]</tspan></text><text x="38.4" y="76" style="fill: rgb(135, 141, 150); font-family: IBM Plex Mono, monospace; font-weight: 400; text-anchor: end; font-size: 14px;" dy=".3em"><tspan>q[1]</tspan></text></g><g><text x="38.4" y="116" style="fill: rgb(135, 141, 150); font-family: IBM Plex Mono, monospace; font-weight: 400; text-anchor: end; font-size: 14px;" dy=".3em">c4</text></g></g></g><g><g><line x1="68.4" x2="356.4" y1="36" y2="36" style="fill: none; stroke: rgb(77, 83, 88); stroke-width: 1px; stroke-linecap: round;"/><line x1="68.4" x2="356.4" y1="76" y2="76" style="fill: none; stroke: rgb(77, 83, 88); stroke-width: 1px; stroke-linecap: round;"/></g><line x1="68.4" x2="356.4" y1="114" y2="114" style="fill: none; stroke: rgb(77, 83, 88); stroke-width: 1px; stroke-linecap: round;"/><line x1="68.4" x2="356.4" y1="118" y2="118" style="fill: none; stroke: rgb(77, 83, 88); stroke-width: 1px; stroke-linecap: round;"/></g><g><rect x="76.4" y="20" width="32" height="32" style="fill: rgb(250, 77, 86); stroke-width: 0px; stroke: transparent; paint-order: stroke;"/><text x="92.4" y="36" style="font-family: IBM Plex Sans, sans-serif; font-size: 16px; font-style: normal; fill: rgb(18, 22, 25); font-weight: 400; text-anchor: middle;" dy=".3em">H</text></g><line x1="132.4" y1="36" x2="132.4" y2="76" style="stroke-width: 1px; stroke: rgb(69, 137, 255);"/><circle r="4" cx="132.4" cy="36" style="fill: rgb(69, 137, 255);"/><g transform="translate(132.4, 76)"><g><circle cx="0" cy="0" r="16" style="fill: rgb(69, 137, 255); stroke-width: 0px; stroke: transparent; paint-order: stroke;"/><line x1="0" y1="-8" x2="0" y2="8" style="stroke-width: 1.25px; stroke: rgb(18, 22, 25);"/><line x1="8" y1="0" x2="-8" y2="0" style="stroke-width: 1.25px; stroke: rgb(18, 22, 25);"/></g></g><g transform="translate(156.4, 60)"><rect x="0" y="0" width="32" height="32" style="fill: rgb(255, 126, 182); stroke-width: 0px; stroke: transparent; paint-order: stroke;"/><path fill-rule="evenodd" clip-rule="evenodd" d="M12.4344 8H25.5V9.25H13.5656L12.0656 24.25H8.92123L8.42123 17.75H7V16.5H9.57877L10.0788 23H10.9344L12.4344 8Z" fill="#121619"/><text x="19" y="17" style="font-family: IBM Plex Sans, sans-serif; font-size: 16px; font-style: normal; fill: rgb(18, 22, 25); font-weight: 400; text-anchor: middle;" dy=".3em">X</text></g><g transform="translate(212.4, 0)"><line x1="0" y1="36" x2="0" y2="76" style="stroke-width: 1px; stroke: rgb(255, 126, 182);"/><circle r="4" style="fill: rgb(255, 126, 182);" cx="0" cy="36"/><circle r="4" style="fill: rgb(255, 126, 182);" cx="0" cy="76"/></g><g transform="translate(252.4, 36)"><g><circle cx="0" cy="0" r="16" style="fill: rgb(69, 137, 255); stroke-width: 0px; stroke: transparent; paint-order: stroke;"/><line x1="0" y1="-8" x2="0" y2="8" style="stroke-width: 1.25px; stroke: rgb(18, 22, 25);"/><line x1="8" y1="0" x2="-8" y2="0" style="stroke-width: 1.25px; stroke: rgb(18, 22, 25);"/></g></g><g transform="translate(252.4, 76)"><g><circle cx="0" cy="0" r="16" style="fill: rgb(69, 137, 255); stroke-width: 0px; stroke: transparent; paint-order: stroke;"/><line x1="0" y1="-8" x2="0" y2="8" style="stroke-width: 1.25px; stroke: rgb(18, 22, 25);"/><line x1="8" y1="0" x2="-8" y2="0" style="stroke-width: 1.25px; stroke: rgb(18, 22, 25);"/></g></g><line x1="292.4" y1="36" x2="292.4" y2="76" style="stroke-width: 1px; stroke: rgb(69, 137, 255);"/><circle r="4" cx="292.4" cy="36" style="fill: rgb(69, 137, 255);"/><g transform="translate(292.4, 76)"><g><circle cx="0" cy="0" r="16" style="fill: rgb(69, 137, 255); stroke-width: 0px; stroke: transparent; paint-order: stroke;"/><line x1="0" y1="-8" x2="0" y2="8" style="stroke-width: 1.25px; stroke: rgb(18, 22, 25);"/><line x1="8" y1="0" x2="-8" y2="0" style="stroke-width: 1.25px; stroke: rgb(18, 22, 25);"/></g></g><g><rect x="316.4" y="20" width="32" height="32" style="fill: rgb(250, 77, 86); stroke-width: 0px; stroke: transparent; paint-order: stroke;"/><text x="332.4" y="36" style="font-family: IBM Plex Sans, sans-serif; font-size: 16px; font-style: normal; fill: rgb(18, 22, 25); font-weight: 400; text-anchor: middle;" dy=".3em">H</text></g></g></svg>