<?xml version='1.0' encoding='utf-8'?>
<svg xmlns="http://www.w3.org/2000/svg" xmlns:ns1="http://sodipodi.sourceforge.net/DTD/sodipodi-0.dtd" xmlns:ns2="http://www.inkscape.org/namespaces/inkscape" version="1.1" id="svg1" width="100%" height="auto" viewBox="-20.0 -20.0 368.54687 125.011542" ns1:docname="svg_fix_XXXXXX.svg">
  <rect id="path1" x="-20.0" y="-20.0" width="368.54687" height="125.011542" fill="white" /><ns1:namedview id="namedview1" pagecolor="#ffffff" bordercolor="#000000" borderopacity="0.25" ns2:showpageshadow="2" ns2:pageopacity="0.0" ns2:pagecheckerboard="0" ns2:deskcolor="#d1d1d1" />
  <defs id="defs1" />
  <g id="g1" transform="translate(-134.21484,-37.003906)">
    <path id="path2" d="M -53.8379,21.2601 H 53.8379" style="fill:none;stroke:#121619;stroke-width:0.3985;stroke-linecap:butt;stroke-linejoin:miter;stroke-miterlimit:10;stroke-dasharray:none;stroke-opacity:1" transform="matrix(2.3333333,0,0,-2.3333333,282.67367,95.716333)" />
    <path id="path3" d="M -18.40439,0 H 28.3468 v -7.08669" style="fill:none;stroke:#121619;stroke-width:0.3985;stroke-linecap:butt;stroke-linejoin:miter;stroke-miterlimit:10;stroke-dasharray:none;stroke-opacity:1" transform="matrix(2.3333333,0,0,-2.3333333,282.67367,95.716333)" />
    <path id="path4" d="m 22.67746,-7.08669 h 11.3387" style="fill:none;stroke:#121619;stroke-width:0.3985;stroke-linecap:butt;stroke-linejoin:miter;stroke-miterlimit:10;stroke-dasharray:none;stroke-opacity:1" transform="matrix(2.3333333,0,0,-2.3333333,282.67367,95.716333)" />
    <path id="path5" d="m 24.66173,-9.07924 h 7.37016" style="fill:none;stroke:#121619;stroke-width:0.3985;stroke-linecap:butt;stroke-linejoin:miter;stroke-miterlimit:10;stroke-dasharray:none;stroke-opacity:1" transform="matrix(2.3333333,0,0,-2.3333333,282.67367,95.716333)" />
    <path id="path6" d="m 26.646,-11.0718 h 3.4016" style="fill:none;stroke:#121619;stroke-width:0.3985;stroke-linecap:butt;stroke-linejoin:miter;stroke-miterlimit:10;stroke-dasharray:none;stroke-opacity:1" transform="matrix(2.3333333,0,0,-2.3333333,282.67367,95.716333)" />
    <path id="path7" d="m 2.49069,21.2601 c 0,1.37558 -1.11511,2.4907 -2.49069,2.4907 -1.37558,0 -2.49069,-1.11512 -2.49069,-2.4907 0,-1.37558 1.11511,-2.49069 2.49069,-2.49069 1.37558,0 2.49069,1.11511 2.49069,2.49069 z" style="fill:#78a9ff;fill-opacity:1;fill-rule:nonzero;stroke:none" transform="matrix(2.3333333,0,0,-2.3333333,282.67367,95.716333)" />
    <path id="path8" d="M 5.97766,0 C 5.97766,3.3014 3.3014,5.97766 0,5.97766 -3.3014,5.97766 -5.97766,3.3014 -5.97766,0 c 0,-3.3014 2.67626,-5.97766 5.97766,-5.97766 3.3014,0 5.97766,2.67626 5.97766,5.97766 z" style="fill:#78a9ff;fill-opacity:1;fill-rule:nonzero;stroke:#78a9ff;stroke-width:0.3985;stroke-linecap:butt;stroke-linejoin:miter;stroke-miterlimit:10;stroke-dasharray:none;stroke-opacity:1" transform="matrix(2.3333333,0,0,-2.3333333,282.67367,95.716333)" />
    <path id="path9" d="m 4.7072009,-7.814308 v 3.4084821 H 1.2920223 v 0.9174107 h 3.4151786 v 3.41517859 H 5.6246116 V -3.4884152 H 9.0330937 V -4.4058259 H 5.6246116 V -7.814308 Z m 0,0" style="fill:#ffffff;fill-opacity:1;fill-rule:nonzero;stroke:none" aria-label="+" transform="matrix(2.3333333,0,0,2.3333333,270.622,104.84667)" />
    <path id="path10" d="M 0,21.2601 V 6.17691" style="fill:none;stroke:#78a9ff;stroke-width:0.79701;stroke-linecap:butt;stroke-linejoin:miter;stroke-miterlimit:10;stroke-dasharray:none;stroke-opacity:1" transform="matrix(2.3333333,0,0,-2.3333333,282.67367,95.716333)" />
    <path id="path11" d="m 0.29427232,1.2854375 c -0.0334821,0.1272321 -0.0334821,0.1674107 -0.0334821,0.1808036 0,0.2008928 0.16071428,0.2477678 0.25446428,0.2477678 0.0401786,0 0.22767858,-0.0067 0.328125,-0.2142857 0.0401786,-0.087054 0.2008928,-0.8236607 0.4888392,-1.91517856 0.09375,0.16741072 0.3482143,0.49553572 0.8370536,0.49553572 0.9709822,0 2.0491072,-1.07142857 2.0491072,-2.26339286 0,-0.9040179 -0.6026786,-1.3325893 -1.2120536,-1.3325893 -0.7366072,0 -1.6741072,0.6629464 -1.9620536,1.8080357 z M 2.1558795,-0.14090179 c -0.5491072,0 -0.7232143,-0.57589285 -0.7232143,-0.68973214 0,-0.0334821 0.2075893,-0.84374997 0.2276785,-0.89732147 0.3549108,-1.4129464 1.1116072,-1.5602678 1.3325893,-1.5602678 0.3883929,0 0.6026786,0.3415178 0.6026786,0.7767857 0,0.2879464 -0.1607143,1.0848214 -0.4017857,1.57366071 -0.2276786,0.44866072 -0.6428572,0.796875 -1.0379464,0.796875 z m 0,0" style="fill:#121619;fill-opacity:1;fill-rule:nonzero;stroke:none" aria-label="ρ" transform="matrix(2.3333333,0,0,2.3333333,133.60633,48.305333)" />
    <g id="g11" aria-label="∣0⟩" transform="matrix(2.3333333,0,0,2.3333333,201.868,100.831)">
      <path id="path12" d="M 1.1983125,-6.093308 V 1.7147277 H 1.7072411 V -6.093308 Z m 0,0" style="fill:#121619;fill-opacity:1;fill-rule:nonzero;stroke:none" />
      <path id="path13" d="m 6.7982009,-2.5442009 c 0,-0.8504464 -0.087054,-1.3660714 -0.3482143,-1.875 -0.3549107,-0.703125 -0.9977679,-0.8772321 -1.4397321,-0.8772321 -1.0044643,0 -1.3660715,0.75 -1.4799108,0.9709821 -0.2879464,0.5825893 -0.3013392,1.3727679 -0.3013392,1.78125 0,0.5290179 0.020089,1.3325893 0.4017857,1.96875001 0.3683035,0.58928571 0.9575893,0.74330357 1.3794643,0.74330357 0.3816964,0 1.0714285,-0.12053572 1.4665178,-0.91071429 C 6.7714152,-1.312058 6.7982009,-2.0218795 6.7982009,-2.5442009 Z m -1.7879464,2.49107144 c -0.2678572,0 -0.8169643,-0.12723215 -0.984375,-0.96428574 -0.087054,-0.4553571 -0.087054,-1.2053571 -0.087054,-1.6205357 0,-0.5491071 0,-1.1049107 0.087054,-1.546875 0.1674107,-0.8102678 0.7901785,-0.890625 0.984375,-0.890625 0.2745535,0 0.8236607,0.1339286 0.984375,0.8571429 0.09375,0.4419643 0.09375,1.0379464 0.09375,1.5803571 0,0.46875 0,1.1852679 -0.09375,1.6339286 -0.1674108,0.83705355 -0.7165179,0.95089284 -0.984375,0.95089284 z m 0,0" style="fill:#121619;fill-opacity:1;fill-rule:nonzero;stroke:none" />
      <path id="path14" d="M 8.34675,1.8017813 9.7797857,-2.1892902 8.34675,-6.1803616 7.8646071,-6.0062545 9.3043393,-2.1892902 7.8646071,1.6276741 Z m 0,0" style="fill:#121619;fill-opacity:1;fill-rule:nonzero;stroke:none" />
    </g>
    <g id="g14" aria-label="∆(ρ)" transform="matrix(2.3333333,0,0,2.3333333,421.62133,51.224333)">
      <path id="path15" d="m 3.7632902,-5.5319687 c -0.087054,-0.1607143 -0.1875,-0.1607143 -0.2410715,-0.1607143 -0.053571,0 -0.1540178,0 -0.2410714,0.1607143 l -2.81919641,5.33035709 c -0.0535714,0.0870536 -0.0535714,0.10714286 -0.0535714,0.12053572 0,0.08035714 0.0602679,0.08035714 0.1875,0.08035714 H 6.448558 c 0.1339286,0 0.1875,0 0.1875,-0.08035714 0,-0.01339286 0,-0.03348215 -0.053571,-0.12053572 z M 3.261058,-4.9092009 5.5311473,-0.63018304 H 0.99096875 Z m 0,0" style="fill:#121619;fill-opacity:1;fill-rule:nonzero;stroke:none" />
      <path id="path16" d="M 9.7950982,1.3519598 C 8.7437589,0.50820982 8.3151875,-0.83777232 8.3151875,-2.1904509 c 0,-1.359375 0.4285714,-2.7120536 1.4799107,-3.5491071 L 9.4401875,-6.0944687 c -1.1584821,0.9241071 -1.6272321,2.4107142 -1.6272321,3.9040178 0,1.48660715 0.46875,2.97991072 1.6272321,3.9040179 z m 0,0" style="fill:#121619;fill-opacity:1;fill-rule:nonzero;stroke:none" />
      <path id="path17" d="m 10.85146,1.2849955 c -0.03348,0.1272322 -0.03348,0.1674108 -0.03348,0.1808036 0,0.2008929 0.160714,0.2477679 0.254464,0.2477679 0.04018,0 0.227679,-0.0067 0.328125,-0.2142857 0.04018,-0.087054 0.200893,-0.82366076 0.488839,-1.91517862 0.09375,0.16741071 0.348215,0.49553571 0.837054,0.49553571 0.970982,0 2.049107,-1.07142857 2.049107,-2.26339289 0,-0.9040178 -0.602679,-1.3325892 -1.212054,-1.3325892 -0.736607,0 -1.674107,0.6629464 -1.962053,1.8080357 z m 1.861607,-1.42633925 c -0.549107,0 -0.723214,-0.57589286 -0.723214,-0.68973214 0,-0.0334821 0.207589,-0.84375001 0.227678,-0.89732141 0.354911,-1.4129464 1.111607,-1.5602679 1.33259,-1.5602679 0.388392,0 0.602678,0.3415179 0.602678,0.7767857 0,0.2879465 -0.160714,1.0848215 -0.401786,1.57366075 -0.227678,0.44866071 -0.642857,0.796875 -1.037946,0.796875 z m 0,0" style="fill:#121619;fill-opacity:1;fill-rule:nonzero;stroke:none" />
      <path id="path18" d="m 16.011058,1.713567 c 1.151786,-0.92410718 1.620536,-2.41741075 1.620536,-3.9040179 0,-1.4933036 -0.46875,-2.9799107 -1.620536,-3.9040178 l -0.361607,0.3549107 c 1.051339,0.84375 1.473214,2.1897321 1.473214,3.5491071 0,1.35267858 -0.428571,2.70535715 -1.479911,3.5424107 0.120536,0.1205357 0.247768,0.2410715 0.368304,0.3616072 z m 0,0" style="fill:#121619;fill-opacity:1;fill-rule:nonzero;stroke:none" />
    </g>
  </g>
</svg>