<?xml version='1.0' encoding='utf-8'?>
<svg xmlns="http://www.w3.org/2000/svg" xmlns:ns1="http://sodipodi.sourceforge.net/DTD/sodipodi-0.dtd" xmlns:ns2="http://www.inkscape.org/namespaces/inkscape" version="1.1" id="svg1" width="100%" height="auto" viewBox="-20.0 -20.0 524.35547 250.77008" ns1:docname="svg_fix_XXXXXX.svg">
  <rect id="path1" x="-20.0" y="-20.0" width="524.35547" height="250.77008" fill="white" /><ns1:namedview id="namedview1" pagecolor="#ffffff" bordercolor="#000000" borderopacity="0.25" ns2:showpageshadow="2" ns2:pageopacity="0.0" ns2:pagecheckerboard="0" ns2:deskcolor="#d1d1d1" />
  <defs id="defs1" />
  <g id="g1" transform="translate(-57.972657,-37.773438)">
    <path id="path2" d="m 5.352908,-2.1474479 c 0,-0.9244792 -0.6119792,-1.7317708 -1.6276042,-2.0833333 0.8463542,-0.4557292 1.3020834,-1.25 1.3020834,-2.0442709 0,-1.0286458 -0.9635417,-1.8098958 -2.1223959,-1.8098958 -0.9505208,0 -1.8098958,0.5338542 -2.25260415,1.3151042 l 0.41666665,0.6510416 c 0.2994792,-0.7682291 1.0286459,-1.2760416 1.8229167,-1.2760416 0.6119792,0 1.1848958,0.3385416 1.1848958,1.1197916 0,0.8072917 -0.546875,1.4583334 -1.1979166,1.6015625 -0.052083,0.013021 -0.8072917,0.078125 -0.9244792,0.078125 v 0.7291667 h 0.8463542 c 1.2239583,0 1.5234375,1.0416667 1.5234375,1.7057292 0,0.9635416 -0.5859375,1.69270828 -1.4453125,1.69270828 -0.7682292,0 -1.7057292,-0.37760416 -2.25260421,-1.23697918 l -0.13020834,0.703125 C 1.2643663,0.06609375 2.3190538,0.24838542 2.9049913,0.24838542 c 1.3932292,0 2.4479167,-1.1328125 2.4479167,-2.39583332 z M 11.117882,9.8958333e-4 V -0.80630208 H 8.9954861 c -0.15625,0 -0.2994792,0 -0.4427083,0 H 7.2767361 c 0.3125,-0.31250002 1.4192708,-1.41927082 2.2005208,-2.10937502 0.8854171,-0.78125 1.6406251,-1.5234375 1.6406251,-2.6171875 0,-1.328125 -0.924479,-2.5520833 -2.5000001,-2.5520833 -1.2890625,0 -1.953125,0.859375 -2.265625,1.9661458 0.3776042,0.4817709 0.3776042,0.5078125 0.4817709,0.6510417 0.2994791,-1.2890625 0.7421875,-1.875 1.6276041,-1.875 1.0286459,0 1.6927081,0.8072917 1.6927081,1.8359375 0,0.625 -0.2473956,1.3151042 -1.0416664,2.0963542 L 6.4434028,-0.75421875 V 9.8958333e-4 Z M 14.959028,-2.3036979 v -0.6901042 h -3.111979 v 0.6901042 z m 5.70638,2.30468748333 V -8.2932812 h -0.885417 v 3.4895833 c -0.546875,-0.4557292 -1.171875,-0.625 -1.679687,-0.625 -1.132813,0 -2.070313,1.2239583 -2.070313,2.7734375 0,1.5494792 0.885417,2.77343748 2.018229,2.77343748 0.442709,0 1.119792,-0.14322916 1.71875,-0.72916666 V 9.8958333e-4 Z M 19.76697,-1.4052604 c -0.286458,0.50781248 -0.716145,0.80729165 -1.236979,0.80729165 -0.729166,0 -1.588541,-0.55989585 -1.588541,-2.04427085 0,-1.5885416 1.015625,-2.0703125 1.705729,-2.0703125 0.46875,0 0.846354,0.2473959 1.119791,0.6380209 z M 23.438845,9.8958333e-4 V -5.3115104 H 22.553429 V 9.8958333e-4 Z M 23.50395,-6.7828646 v -1.0286458 h -1.028646 v 1.0286458 z M 32.696658,9.8958333e-4 V -3.5927604 c 0,-0.8333333 -0.221354,-1.8359375 -1.614583,-1.8359375 -1.015625,0 -1.575521,0.703125 -1.757813,0.9765625 -0.221354,-0.7552083 -0.872396,-0.9765625 -1.497396,-0.9765625 -0.976562,0 -1.497396,0.6380208 -1.692708,0.8854167 V -5.3635937 H 25.287804 V 9.8958333e-4 h 0.898437 V -2.9807812 c 0,-0.78125 0.3125,-1.7317709 1.184896,-1.7317709 1.106771,0 1.158854,0.7552084 1.158854,1.1979167 V 9.8958333e-4 H 29.44145 V -2.9807812 c 0,-0.78125 0.3125,-1.7317709 1.184895,-1.7317709 1.09375,0 1.158855,0.7552084 1.158855,1.1979167 V 9.8958333e-4 Z M 38.487674,-2.6943229 c 0,-0.5078125 -0.05208,-1.2369792 -0.429688,-1.875 -0.494792,-0.8203125 -1.328125,-0.9114583 -1.679687,-0.9114583 -1.289063,0 -2.369792,1.2369791 -2.369792,2.7864583 0,1.5885417 1.145833,2.81249998 2.539062,2.81249998 0.546875,0 1.210938,-0.15625 1.86198,-0.625 0,-0.0520833 -0.03906,-0.44270833 -0.03906,-0.44270833 0,0 -0.02604,-0.28645835 -0.02604,-0.32552085 -0.716145,0.59895835 -1.41927,0.67708335 -1.770833,0.67708335 -0.924479,0 -1.71875,-0.82031245 -1.731771,-2.09635415 z m -0.716146,-0.6380208 h -2.864584 c 0.208334,-0.8072917 0.76823,-1.4322917 1.471355,-1.4322917 0.377604,0 1.197916,0.1692708 1.393229,1.4322917 z M 43.884809,9.8958333e-4 V -3.5927604 c 0,-0.7291667 -0.15625,-1.8359375 -1.601562,-1.8359375 -0.664063,0 -1.23698,0.2994792 -1.692709,0.8723958 V -5.3635937 H 39.744184 V 9.8958333e-4 h 0.898438 V -2.9807812 c 0,-0.7291667 0.286458,-1.7317709 1.184895,-1.7317709 1.119792,0 1.145834,0.78125 1.145834,1.1979167 V 9.8958333e-4 Z M 49.024783,-1.5224479 c 0,-0.5989583 -0.364583,-0.9895833 -0.416667,-1.0416667 -0.442708,-0.4557291 -0.807291,-0.5338541 -1.523437,-0.6770833 -0.442709,-0.078125 -1.041667,-0.1953125 -1.041667,-0.7942708 0,-0.7421875 0.833333,-0.7421875 0.989583,-0.7421875 0.625,0 1.132813,0.1432291 1.653646,0.4427083 l 0.143229,-0.78125 c -0.755208,-0.3515625 -1.40625,-0.3645833 -1.679687,-0.3645833 -0.273438,0 -1.940104,0 -1.940104,1.5494791 0,0.5208334 0.286458,0.8854167 0.46875,1.0546875 0.429687,0.3645834 0.729166,0.4296875 1.432291,0.5729167 0.403646,0.078125 1.09375,0.2213542 1.09375,0.859375 0,0.82031248 -0.9375,0.82031248 -1.10677,0.82031248 -0.46875,0 -1.171875,-0.13020833 -1.809896,-0.59895828 l -0.143229,0.82031245 c 0.05208,0.0390625 0.872395,0.52083333 1.966145,0.52083333 1.54948,0 1.914063,-0.92447916 1.914063,-1.64062498 z M 51.127648,9.8958333e-4 V -5.3115104 H 50.242231 V 9.8958333e-4 Z M 51.192752,-6.7828646 v -1.0286458 h -1.028646 v 1.0286458 z m 6.341146,4.1536459 c 0,-1.6145834 -1.184896,-2.8515625 -2.552084,-2.8515625 -1.40625,0 -2.565104,1.2630208 -2.565104,2.8515625 0,1.5625 1.184896,2.74739578 2.552083,2.74739578 1.40625,0 2.565105,-1.21093748 2.565105,-2.74739578 z M 56.63546,-2.7464062 c 0,1.4713541 -0.859375,2.12239578 -1.653646,2.12239578 -0.859375,0 -1.666666,-0.71614578 -1.666666,-2.12239578 0,-1.4453125 0.898437,-2.0182292 1.653645,-2.0182292 0.820313,0 1.666667,0.6119792 1.666667,2.0182292 z M 62.976606,9.8958333e-4 V -3.5927604 c 0,-0.7291667 -0.15625,-1.8359375 -1.601563,-1.8359375 -0.664062,0 -1.236979,0.2994792 -1.692708,0.8723958 V -5.3635937 H 58.835981 V 9.8958333e-4 h 0.898437 V -2.9807812 c 0,-0.7291667 0.286459,-1.7317709 1.184896,-1.7317709 1.119792,0 1.145834,0.78125 1.145834,1.1979167 V 9.8958333e-4 Z m 5.729167,0 V -3.5016146 c 0,-1.1458333 -0.820313,-1.9791666 -1.940105,-1.9791666 -0.716145,0 -1.25,0.15625 -1.835937,0.4947916 l 0.07813,0.7942709 c 0.520833,-0.390625 1.067708,-0.5989584 1.757812,-0.5989584 0.559896,0 1.028646,0.4427084 1.028646,1.3151042 v 0.4947917 c -0.533854,0.013021 -1.25,0.052083 -1.966146,0.2864583 -0.807291,0.2864583 -1.26302,0.7291667 -1.26302,1.3151042 0,0.53385412 0.299479,1.49739578 1.315104,1.49739578 0.664062,0 1.497396,-0.1953125 1.940104,-0.55989583 V 9.8958333e-4 Z M 67.794314,-1.6005729 c 0,0.234375 0,0.5208333 -0.390625,0.76822915 -0.325521,0.1953125 -0.729166,0.234375 -0.911458,0.234375 -0.638021,0 -1.080729,-0.3515625 -1.080729,-0.78124995 0,-0.8203125 1.653646,-1.0026042 2.382812,-1.0026042 z M 71.342491,9.8958333e-4 V -8.2932812 H 70.457075 V 9.8958333e-4 Z M 81.218793,2.3186979 v -7.7473958 h -0.885416 v 0.7682292 c -0.3125,-0.3645834 -0.833334,-0.7682292 -1.5625,-0.7682292 -1.171875,0 -2.1875,1.1848958 -2.1875,2.7864583 0,1.5234375 0.885416,2.76041668 2.005208,2.76041668 0.924479,0 1.5625,-0.546875 1.731771,-0.72916666 V 2.3186979 Z m -0.885416,-3.984375 c 0,0.234375 0,0.2473959 -0.130209,0.4296875 -0.32552,0.48177085 -0.755208,0.63802085 -1.10677,0.63802085 -0.898438,0 -1.601563,-0.93749995 -1.601563,-2.04427085 0,-1.2239583 0.859375,-2.0442708 1.705729,-2.0442708 0.768229,0 1.132813,0.78125 1.132813,1.2630208 z M 87.234418,9.8958333e-4 V -5.3115104 H 86.32296 v 3.4244792 c 0,0.91145828 -0.625,1.35416662 -1.40625,1.35416662 -0.833333,0 -0.924479,-0.3125 -0.924479,-0.84635412 v -3.9322917 h -0.898438 v 3.984375 c 0,0.85937498 0.273438,1.44531248 1.25,1.44531248 0.338542,0 1.276042,-0.05208333 2.005209,-0.71614583 V 9.8958333e-4 Z m 5.725912,0 V -3.5016146 c 0,-1.1458333 -0.820313,-1.9791666 -1.940104,-1.9791666 -0.716146,0 -1.25,0.15625 -1.835938,0.4947916 l 0.07813,0.7942709 c 0.520834,-0.390625 1.067709,-0.5989584 1.757813,-0.5989584 0.559896,0 1.028646,0.4427084 1.028646,1.3151042 v 0.4947917 c -0.533855,0.013021 -1.25,0.052083 -1.966146,0.2864583 -0.807292,0.2864583 -1.263021,0.7291667 -1.263021,1.3151042 0,0.53385412 0.299479,1.49739578 1.315104,1.49739578 0.664063,0 1.497396,-0.1953125 1.940104,-0.55989583 V 9.8958333e-4 Z M 92.048872,-1.6005729 c 0,0.234375 0,0.5208333 -0.390625,0.76822915 -0.325521,0.1953125 -0.729167,0.234375 -0.911459,0.234375 -0.638021,0 -1.080729,-0.3515625 -1.080729,-0.78124995 0,-0.8203125 1.653646,-1.0026042 2.382813,-1.0026042 z M 98.842491,9.8958333e-4 V -3.5927604 c 0,-0.7291667 -0.15625,-1.8359375 -1.601562,-1.8359375 -0.664063,0 -1.236979,0.2994792 -1.692709,0.8723958 V -5.3635937 H 94.701866 V 9.8958333e-4 h 0.898438 V -2.9807812 c 0,-0.7291667 0.286458,-1.7317709 1.184896,-1.7317709 1.119791,0 1.145833,0.78125 1.145833,1.1979167 V 9.8958333e-4 Z M 103.66997,-0.35057292 103.48767,-1.0406771 c -0.41666,0.37760418 -0.85937,0.41666668 -1.0677,0.41666668 -0.53386,0 -0.59896,-0.55989578 -0.59896,-0.97656248 v -3.0078125 h 1.65364 v -0.703125 h -1.65364 v -1.5104167 h -0.82032 v 1.5104167 h -1.0026 v 0.703125 h 0.97656 v 3.2161458 c 0,0.69010418 0.15625,1.51041668 0.97657,1.51041668 0.80729,0 1.35416,-0.2734375 1.71875,-0.46875 z m 5.4069,0.35156250333 V -5.3115104 h -0.91146 v 3.4244792 c 0,0.91145828 -0.625,1.35416662 -1.40625,1.35416662 -0.83334,0 -0.92448,-0.3125 -0.92448,-0.84635412 v -3.9322917 h -0.89844 v 3.984375 c 0,0.85937498 0.27344,1.44531248 1.25,1.44531248 0.33854,0 1.27604,-0.05208333 2.00521,-0.71614583 V 9.8958333e-4 Z m 9.26757,0 V -3.5927604 c 0,-0.8333333 -0.22135,-1.8359375 -1.61458,-1.8359375 -1.01562,0 -1.57552,0.703125 -1.75781,0.9765625 -0.22136,-0.7552083 -0.8724,-0.9765625 -1.4974,-0.9765625 -0.97656,0 -1.49739,0.6380208 -1.69271,0.8854167 v -0.8203125 h -0.84635 V 9.8958333e-4 h 0.89844 V -2.9807812 c 0,-0.78125 0.3125,-1.7317709 1.18489,-1.7317709 1.10677,0 1.15886,0.7552084 1.15886,1.1979167 V 9.8958333e-4 h 0.91146 V -2.9807812 c 0,-0.78125 0.3125,-1.7317709 1.18489,-1.7317709 1.09375,0 1.15886,0.7552084 1.15886,1.1979167 V 9.8958333e-4 Z M 129.30799,-7.5120312 v -0.7552084 h -5.06511 V 9.8958333e-4 h 1.02865 V -3.7750521 h 3.54166 v -0.7161458 h -3.54166 v -3.0338542 h 1.53646 c 0.14323,0 0.28645,0.013021 0.42968,0.013021 z m 5.67382,4.8828125 c 0,-1.6145834 -1.18489,-2.8515625 -2.55208,-2.8515625 -1.40625,0 -2.5651,1.2630208 -2.5651,2.8515625 0,1.5625 1.18489,2.74739578 2.55208,2.74739578 1.40625,0 2.5651,-1.21093748 2.5651,-2.74739578 z m -0.89843,-0.1171875 c 0,1.4713541 -0.85938,2.12239578 -1.65365,2.12239578 -0.85937,0 -1.66667,-0.71614578 -1.66667,-2.12239578 0,-1.4453125 0.89844,-2.0182292 1.65365,-2.0182292 0.82031,0 1.66667,0.6119792 1.66667,2.0182292 z m 6.33789,2.74739578333 V -5.3115104 h -0.91146 v 3.4244792 c 0,0.91145828 -0.625,1.35416662 -1.40625,1.35416662 -0.83333,0 -0.92448,-0.3125 -0.92448,-0.84635412 v -3.9322917 h -0.89844 v 3.984375 c 0,0.85937498 0.27344,1.44531248 1.25,1.44531248 0.33854,0 1.27604,-0.05208333 2.00521,-0.71614583 V 9.8958333e-4 Z M 145.16085,-4.6214062 v -0.8072917 c -1.09375,0.013021 -1.71875,0.6510417 -2.04427,1.1197917 v -1.0546875 h -0.82031 V 9.8958333e-4 h 0.88541 V -2.6161979 c 0,-1.2109375 0.89844,-1.9921875 1.97917,-2.0052083 z M 147.1628,9.8958333e-4 V -5.3115104 h -0.88541 V 9.8958333e-4 Z M 147.22791,-6.7828646 v -1.0286458 h -1.02865 v 1.0286458 z m 5.73242,4.0885417 c 0,-0.5078125 -0.0521,-1.2369792 -0.42969,-1.875 -0.49479,-0.8203125 -1.32812,-0.9114583 -1.67969,-0.9114583 -1.28906,0 -2.36979,1.2369791 -2.36979,2.7864583 0,1.5885417 1.14584,2.81249998 2.53907,2.81249998 0.54687,0 1.21093,-0.15625 1.86197,-0.625 0,-0.0520833 -0.0391,-0.44270833 -0.0391,-0.44270833 0,0 -0.026,-0.28645835 -0.026,-0.32552085 -0.71615,0.59895835 -1.41927,0.67708335 -1.77083,0.67708335 -0.92448,0 -1.71875,-0.82031245 -1.73177,-2.09635415 z m -0.71615,-0.6380208 h -2.86458 c 0.20833,-0.8072917 0.76823,-1.4322917 1.47135,-1.4322917 0.37761,0 1.19792,0.1692708 1.39323,1.4322917 z m 4.84701,-1.2890625 v -0.8072917 c -1.09375,0.013021 -1.71875,0.6510417 -2.04427,1.1197917 v -1.0546875 h -0.82031 V 9.8958333e-4 h 0.88541 V -2.6161979 c 0,-1.2109375 0.89844,-1.9921875 1.97917,-2.0052083 z m 7.95898,4.27083328 -0.18229,-0.69010418 c -0.41666,0.37760418 -0.85937,0.41666668 -1.06771,0.41666668 -0.53385,0 -0.59895,-0.55989578 -0.59895,-0.97656248 v -3.0078125 h 1.65364 v -0.703125 h -1.65364 v -1.5104167 h -0.82032 v 1.5104167 h -1.0026 v 0.703125 h 0.97656 v 3.2161458 c 0,0.69010418 0.15625,1.51041668 0.97656,1.51041668 0.8073,0 1.35417,-0.2734375 1.71875,-0.46875 z m 4.14063,-4.27083328 v -0.8072917 c -1.09375,0.013021 -1.71875,0.6510417 -2.04427,1.1197917 v -1.0546875 h -0.82031 V 9.8958333e-4 h 0.88541 V -2.6161979 c 0,-1.2109375 0.89844,-1.9921875 1.97917,-2.0052083 z m 4.9707,4.62239578333 V -3.5016146 c 0,-1.1458333 -0.82031,-1.9791666 -1.9401,-1.9791666 -0.71615,0 -1.25,0.15625 -1.83594,0.4947916 l 0.0781,0.7942709 c 0.52083,-0.390625 1.0677,-0.5989584 1.75781,-0.5989584 0.55989,0 1.02864,0.4427084 1.02864,1.3151042 v 0.4947917 c -0.53385,0.013021 -1.25,0.052083 -1.96614,0.2864583 -0.80729,0.2864583 -1.26302,0.7291667 -1.26302,1.3151042 0,0.53385412 0.29948,1.49739578 1.3151,1.49739578 0.66406,0 1.4974,-0.1953125 1.94011,-0.55989583 V 9.8958333e-4 Z M 173.25004,-1.6005729 c 0,0.234375 0,0.5208333 -0.39062,0.76822915 -0.32552,0.1953125 -0.72917,0.234375 -0.91146,0.234375 -0.63802,0 -1.08073,-0.3515625 -1.08073,-0.78124995 0,-0.8203125 1.65365,-1.0026042 2.38281,-1.0026042 z m 6.79037,1.60156248333 V -3.5927604 c 0,-0.7291667 -0.15625,-1.8359375 -1.60156,-1.8359375 -0.66407,0 -1.23698,0.2994792 -1.69271,0.8723958 v -0.8072916 h -0.84636 V 9.8958333e-4 h 0.89844 V -2.9807812 c 0,-0.7291667 0.28646,-1.7317709 1.1849,-1.7317709 1.11979,0 1.14583,0.78125 1.14583,1.1979167 V 9.8958333e-4 Z M 185.18364,-1.5224479 c 0,-0.5989583 -0.36459,-0.9895833 -0.41667,-1.0416667 -0.44271,-0.4557291 -0.80729,-0.5338541 -1.52344,-0.6770833 -0.44271,-0.078125 -1.04166,-0.1953125 -1.04166,-0.7942708 0,-0.7421875 0.83333,-0.7421875 0.98958,-0.7421875 0.625,0 1.13281,0.1432291 1.65365,0.4427083 l 0.14322,-0.78125 c -0.7552,-0.3515625 -1.40625,-0.3645833 -1.67968,-0.3645833 -0.27344,0 -1.94011,0 -1.94011,1.5494791 0,0.5208334 0.28646,0.8854167 0.46875,1.0546875 0.42969,0.3645834 0.72917,0.4296875 1.43229,0.5729167 0.40365,0.078125 1.09375,0.2213542 1.09375,0.859375 0,0.82031248 -0.9375,0.82031248 -1.10677,0.82031248 -0.46875,0 -1.17187,-0.13020833 -1.80989,-0.59895828 l -0.14323,0.82031245 c 0.0521,0.0390625 0.87239,0.52083333 1.96614,0.52083333 1.54948,0 1.91407,-0.92447916 1.91407,-1.64062498 z m 4.32617,-5.9895833 v -0.78125 c -0.0781,-0.026042 -0.48177,-0.1171875 -0.91146,-0.1171875 -1.14583,0 -1.95312,0.8723958 -1.95312,2.03125 v 1.0677083 h -0.8724 v 0.703125 h 0.8724 V 9.8958333e-4 h 0.88541 V -4.6083854 h 1.27604 v -0.703125 h -1.30208 v -1.4322917 c 0,-0.8072916 0.67708,-0.9505208 1.08073,-0.9505208 0.41667,0 0.78125,0.1302083 0.92448,0.1822917 z m 5.00651,4.8828125 c 0,-1.6145834 -1.1849,-2.8515625 -2.55208,-2.8515625 -1.40625,0 -2.56511,1.2630208 -2.56511,2.8515625 0,1.5625 1.1849,2.74739578 2.55209,2.74739578 1.40625,0 2.5651,-1.21093748 2.5651,-2.74739578 z m -0.89844,-0.1171875 c 0,1.4713541 -0.85937,2.12239578 -1.65364,2.12239578 -0.85938,0 -1.66667,-0.71614578 -1.66667,-2.12239578 0,-1.4453125 0.89844,-2.0182292 1.65365,-2.0182292 0.82031,0 1.66666,0.6119792 1.66666,2.0182292 z m 4.76563,-1.875 v -0.8072917 c -1.09375,0.013021 -1.71875,0.6510417 -2.04427,1.1197917 v -1.0546875 h -0.82032 V 9.8958333e-4 h 0.88542 V -2.6161979 c 0,-1.2109375 0.89844,-1.9921875 1.97917,-2.0052083 z m 8.51237,4.62239578333 V -3.5927604 c 0,-0.8333333 -0.22136,-1.8359375 -1.61459,-1.8359375 -1.01562,0 -1.57552,0.703125 -1.75781,0.9765625 -0.22135,-0.7552083 -0.87239,-0.9765625 -1.49739,-0.9765625 -0.97657,0 -1.4974,0.6380208 -1.69271,0.8854167 v -0.8203125 h -0.84636 V 9.8958333e-4 h 0.89844 V -2.9807812 c 0,-0.78125 0.3125,-1.7317709 1.1849,-1.7317709 1.10677,0 1.15885,0.7552084 1.15885,1.1979167 V 9.8958333e-4 h 0.91146 V -2.9807812 c 0,-0.78125 0.3125,-1.7317709 1.18489,-1.7317709 1.09375,0 1.15886,0.7552084 1.15886,1.1979167 V 9.8958333e-4 Z m 0,0" style="fill:#121619;fill-opacity:1;fill-rule:nonzero;stroke:none" aria-label="32-dimensionalquantumFouriertransform" transform="matrix(1.2,0,0,1.2,175.98667,47.866)" />
    <path id="path3" d="M -167.22514,-56.69362 H 209.74535" style="fill:none;stroke:#121619;stroke-width:0.3985;stroke-linecap:butt;stroke-linejoin:miter;stroke-miterlimit:10;stroke-dasharray:none;stroke-opacity:1" transform="matrix(1.2,0,0,-1.2,275.15947,163.264)" />
    <path id="path4" d="M -167.22514,-28.3468 H 209.74535" style="fill:none;stroke:#121619;stroke-width:0.3985;stroke-linecap:butt;stroke-linejoin:miter;stroke-miterlimit:10;stroke-dasharray:none;stroke-opacity:1" transform="matrix(1.2,0,0,-1.2,275.15947,163.264)" />
    <path id="path5" d="M -167.22514,0 H 209.74535" style="fill:none;stroke:#121619;stroke-width:0.3985;stroke-linecap:butt;stroke-linejoin:miter;stroke-miterlimit:10;stroke-dasharray:none;stroke-opacity:1" transform="matrix(1.2,0,0,-1.2,275.15947,163.264)" />
    <path id="path6" d="M -167.22514,28.3468 H 209.74535" style="fill:none;stroke:#121619;stroke-width:0.3985;stroke-linecap:butt;stroke-linejoin:miter;stroke-miterlimit:10;stroke-dasharray:none;stroke-opacity:1" transform="matrix(1.2,0,0,-1.2,275.15947,163.264)" />
    <path id="path7" d="M -167.22514,56.69362 H 209.74535" style="fill:none;stroke:#121619;stroke-width:0.3985;stroke-linecap:butt;stroke-linejoin:miter;stroke-miterlimit:10;stroke-dasharray:none;stroke-opacity:1" transform="matrix(1.2,0,0,-1.2,275.15947,163.264)" />
    <path id="path8" d="m -147.40341,-70.86702 h 68.03235 V 42.52025 h -68.03235 z" style="fill:#78a9ff;fill-opacity:1;fill-rule:nonzero;stroke:#78a9ff;stroke-width:0.3985;stroke-linecap:butt;stroke-linejoin:miter;stroke-miterlimit:10;stroke-dasharray:none;stroke-opacity:1" transform="matrix(1.2,0,0,-1.2,275.15947,163.264)" />
    <g id="g8" aria-label="QFT&#10;16" transform="matrix(1.2,0,0,1.2,123.47587,182.4304)">
      <path id="path9" d="m 4.3886007,-0.06569792 c 0.7291667,-0.2734375 1.71875,-1.19791668 1.71875,-2.63020828 0,-1.6015625 -1.2760417,-2.9166667 -2.8125,-2.9166667 -1.5755208,0 -2.82552084,1.3151042 -2.82552084,2.9166667 0,1.6015625 1.27604164,2.86458328 2.82552084,2.86458328 0.2473958,0 0.5208333,-0.0390625 0.7682292,-0.1171875 0.1692708,0.8203125 0.3125,1.49739582 1.0546875,1.49739582 0.8333333,0 1.0286458,-1.02864582 1.0286458,-1.47135415 0,-0.078125 0,-0.1953125 -0.1041667,-0.1953125 -0.091146,0 -0.1041666,0.09114583 -0.1171875,0.14322917 -0.039063,0.49479166 -0.4296875,0.69010416 -0.7421875,0.69010416 -0.3385416,0 -0.546875,-0.1953125 -0.7942708,-0.78125 z M 2.6828715,-0.19590625 c -0.8463541,-0.32552083 -1.40625,-1.17187495 -1.40625,-2.49999995 0,-1.9270834 1.1197917,-2.6692709 2.0052084,-2.6692709 0.9244791,0 2.0182291,0.7682292 2.0182291,2.6692709 0,0.9895833 -0.3125,1.84895828 -1.0416666,2.33072912 -0.3125,-0.72916662 -0.6901042,-0.83333332 -0.9635417,-0.83333332 -0.4036458,0 -0.703125,0.29947915 -0.703125,0.67708332 0,0.14322916 0.052083,0.2734375 0.091146,0.32552083 z m 1.3151042,-0.0390625 c -0.2734375,0.1171875 -0.5078125,0.15625 -0.703125,0.15625 -0.4166667,0 -0.4817708,-0.33854167 -0.4817708,-0.44270833 0,-0.234375 0.1822916,-0.45572917 0.4817708,-0.45572917 0.390625,0 0.5859375,0.28645833 0.703125,0.7421875 z M 11.517507,-5.4172604 H 6.9341736 v 0.2604167 h 0.1692708 c 0.625,0 0.6380209,0.091146 0.6380209,0.3776041 v 4.12760418 c 0,0.29947917 -0.013021,0.390625 -0.6380209,0.390625 H 6.9341736 v 0.26041667 c 0.6770833,-0.02604167 0.6901042,-0.02604167 1.2239583,-0.02604167 0.3776042,0 0.9635417,0 1.3151042,0.02604167 V -0.26101042 H 9.2258403 c -0.7552084,0 -0.7552084,-0.1171875 -0.7552084,-0.390625 V -2.5787187 h 0.7421875 c 0.78125,0 0.8723956,0.2473958 0.8723956,0.9244791 h 0.247396 v -2.1223958 h -0.247396 c 0,0.6770833 -0.091146,0.9375 -0.8723956,0.9375 H 8.4706319 v -1.9921875 c 0,-0.2734375 0.013021,-0.3255208 0.3776042,-0.3255208 h 1.0677083 c 1.3020836,0 1.4453126,0.5078125 1.5885416,1.5494791 h 0.247396 z m 6.227213,0.026042 h -5.182291 l -0.15625,1.8098958 h 0.247396 c 0.117187,-1.3411458 0.299479,-1.5494792 1.523437,-1.5494792 0.143229,0 0.390625,0 0.455729,0.026042 0.15625,0.026042 0.15625,0.1041667 0.15625,0.3125 v 4.14062498 c 0,0.2734375 0,0.390625 -0.820312,0.390625 h -0.3125 v 0.26041667 c 0.299479,-0.02604167 1.158854,-0.02604167 1.497396,-0.02604167 0.351562,0 1.210937,0 1.497395,0.02604167 v -0.26041667 h -0.299479 c -0.820312,0 -0.820312,-0.1171875 -0.820312,-0.390625 V -4.7922604 c 0,-0.1822917 0,-0.2864583 0.15625,-0.3125 0.07813,-0.026042 0.3125,-0.026042 0.455729,-0.026042 1.223958,0 1.40625,0.2083334 1.523437,1.5494792 h 0.247396 z m 0,0" style="fill:#ffffff;fill-opacity:1;fill-rule:nonzero;stroke:none" />
      <path id="path10" d="m 20.374929,-1.9406979 c 0,-0.1822917 -0.02604,-0.1822917 -0.208334,-0.1822917 -0.390625,0.3776042 -1.002604,0.3776042 -1.210937,0.3776042 v 0.234375 c 0.143229,0 0.546875,0 0.898437,-0.1692708 v 3.0208333 c 0,0.1953125 0,0.2734375 -0.611979,0.2734375 H 18.9817 v 0.234375 c 0.338541,-0.026042 0.79427,-0.026042 1.132812,-0.026042 0.338542,0 0.807292,0 1.132813,0.026042 v -0.234375 h -0.260417 c -0.611979,0 -0.611979,-0.078125 -0.611979,-0.2734375 z m 2.480469,1.80989582 c 0,-0.29947917 0.01302,-0.79427084 0.221354,-1.15885412 0.260416,-0.4557292 0.664062,-0.6380209 1.015625,-0.6380209 0.143229,0 0.416666,0.026042 0.559896,0.1953125 -0.221355,0.026042 -0.260417,0.1822917 -0.260417,0.2864584 0,0.15625 0.117187,0.2864583 0.286458,0.2864583 0.182292,0 0.299479,-0.1171875 0.299479,-0.2994792 0,-0.3645833 -0.273437,-0.6640625 -0.885416,-0.6640625 -0.924479,0 -1.835938,0.8072917 -1.835938,2.07031252 0,1.45833338 0.677084,2.03124998 1.458334,2.03124998 0.234375,0 0.63802,-0.039063 1.002604,-0.390625 0.195312,-0.1953125 0.429687,-0.4296875 0.429687,-0.96354165 0,-0.1953125 -0.02604,-0.5859375 -0.390625,-0.92447917 -0.208333,-0.18229166 -0.46875,-0.40364583 -0.976562,-0.40364583 -0.416667,0 -0.729167,0.22135417 -0.924479,0.57291667 z m 0.859375,1.88802088 c -0.846355,0 -0.846355,-1.02864588 -0.846355,-1.26302088 0,-0.5078125 0.338542,-1.00260417 0.885417,-1.00260417 0.3125,0 0.481771,0.13020833 0.625,0.3125 0.169271,0.234375 0.169271,0.5078125 0.169271,0.8203125 0,0.41666665 -0.01302,0.62500005 -0.208333,0.85937505 -0.14323,0.1822916 -0.338542,0.2734375 -0.625,0.2734375 z m 0,0" style="fill:#ffffff;fill-opacity:1;fill-rule:nonzero;stroke:none" />
    </g>
    <path id="path11" d="M 52.44159,45.3549 H 75.11902 V 68.03233 H 52.44159 Z" style="fill:#78a9ff;fill-opacity:1;fill-rule:nonzero;stroke:#78a9ff;stroke-width:0.3985;stroke-linecap:butt;stroke-linejoin:miter;stroke-miterlimit:10;stroke-dasharray:none;stroke-opacity:1" transform="matrix(1.2,0,0,-1.2,275.15947,163.264)" />
    <path id="path12" d="m 6.3662517,-4.7916667 c 0.078125,-0.3125 0.091146,-0.390625 0.6510417,-0.390625 0.1822917,0 0.2864583,0 0.2864583,-0.1432291 0,-0.013021 -0.013021,-0.1171875 -0.1432291,-0.1171875 -0.1432292,0 -0.3385417,0.013021 -0.4947917,0.026042 H 6.1709392 c -0.7682291,0 -0.9765625,-0.026042 -1.0286458,-0.026042 -0.039063,0 -0.1692708,0 -0.1692708,0.15625 0,0.1041666 0.1041666,0.1041666 0.234375,0.1041666 0.2604166,0 0.4947916,0 0.4947916,0.1302084 0,0.026042 0,0.039063 -0.026042,0.1432291 L 5.1943767,-2.96875 H 2.6292726 l 0.4557291,-1.8489583 c 0.078125,-0.2864584 0.091146,-0.3645834 0.6770834,-0.3645834 0.15625,0 0.2473958,0 0.2473958,-0.1432291 0,-0.013021 0,-0.1171875 -0.1302083,-0.1171875 -0.15625,0 -0.3385417,0.013021 -0.4947917,0.026042 H 2.8896892 c -0.7682291,0 -0.9765625,-0.026042 -1.0286458,-0.026042 -0.039063,0 -0.1692708,0 -0.1692708,0.15625 0,0.1041666 0.1041666,0.1041666 0.234375,0.1041666 0.2604166,0 0.4947916,0 0.4947916,0.1302084 0,0.026042 -0.013021,0.039063 -0.026042,0.1432291 L 1.3271892,-0.625 c -0.078125,0.29947917 -0.091146,0.36458333 -0.6770833,0.36458333 -0.15625,0 -0.24739583,0 -0.24739583,0.14322917 C 0.40271007,-0.078125 0.4157309,0 0.51989757,0 c 0.15625,0 0.3515625,-0.01302083 0.49479163,-0.02604167 H 1.5355226 C 2.2907309,-0.02604167 2.4990642,0 2.5511476,0 c 0.052083,0 0.1692708,0 0.1692708,-0.15625 0,-0.10416667 -0.1041667,-0.10416667 -0.2473958,-0.10416667 -0.026042,0 -0.1692709,0 -0.2994792,-0.0130208 C 2.0042726,-0.29947917 1.9912517,-0.3125 1.9912517,-0.390625 c 0,-0.0390625 0.013021,-0.0911458 0.026042,-0.13020833 L 2.5511476,-2.6953125 h 2.578125 c -0.234375,0.9375 -0.546875,2.17447917 -0.5598959,2.17447917 -0.065104,0.24739583 -0.2083333,0.24739583 -0.6901041,0.26041666 -0.091146,0 -0.1953125,0 -0.1953125,0.14322917 C 3.6839601,-0.078125 3.7100017,0 3.8141684,0 3.9573976,0 4.1527101,-0.01302083 4.2959392,-0.02604167 H 4.8167726 C 5.5719809,-0.02604167 5.7803142,0 5.8454184,0 c 0.039063,0 0.15625,0 0.15625,-0.15625 0,-0.10416667 -0.1041667,-0.10416667 -0.2473958,-0.10416667 -0.013021,0 -0.15625,0 -0.2994792,-0.0130208 C 5.2855226,-0.29947917 5.2725017,-0.3125 5.2725017,-0.390625 c 0,-0.0390625 0.013021,-0.0911458 0.026042,-0.13020833 z m 0,0" style="fill:#ffffff;fill-opacity:1;fill-rule:nonzero;stroke:none" aria-label="H" transform="matrix(1.2,0,0,1.2,347.15347,98.5)" />
    <path id="path13" d="m -54.20293,56.69362 c 0,1.37558 -1.11509,2.49069 -2.49069,2.49069 -1.37558,0 -2.49069,-1.11511 -2.49069,-2.49069 0,-1.3756 1.11511,-2.49069 2.49069,-2.49069 1.3756,0 2.49069,1.11509 2.49069,2.49069 z" style="fill:#78a9ff;fill-opacity:1;fill-rule:nonzero;stroke:none" transform="matrix(1.2,0,0,-1.2,275.15947,163.264)" />
    <path id="path14" d="m -25.85611,56.69362 c 0,1.37558 -1.11511,2.49069 -2.49069,2.49069 -1.37558,0 -2.4907,-1.11511 -2.4907,-2.49069 0,-1.3756 1.11512,-2.49069 2.4907,-2.49069 1.37558,0 2.49069,1.11509 2.49069,2.49069 z" style="fill:#78a9ff;fill-opacity:1;fill-rule:nonzero;stroke:none" transform="matrix(1.2,0,0,-1.2,275.15947,163.264)" />
    <path id="path15" d="m 2.49069,56.69362 c 0,1.37558 -1.11511,2.49069 -2.49069,2.49069 -1.37558,0 -2.49069,-1.11511 -2.49069,-2.49069 0,-1.3756 1.11511,-2.49069 2.49069,-2.49069 1.37558,0 2.49069,1.11509 2.49069,2.49069 z" style="fill:#78a9ff;fill-opacity:1;fill-rule:nonzero;stroke:none" transform="matrix(1.2,0,0,-1.2,275.15947,163.264)" />
    <path id="path16" d="m 30.8375,56.69362 c 0,1.37558 -1.11512,2.49069 -2.4907,2.49069 -1.37558,0 -2.49069,-1.11511 -2.49069,-2.49069 0,-1.3756 1.11511,-2.49069 2.49069,-2.49069 1.37558,0 2.4907,1.11509 2.4907,2.49069 z" style="fill:#78a9ff;fill-opacity:1;fill-rule:nonzero;stroke:none" transform="matrix(1.2,0,0,-1.2,275.15947,163.264)" />
    <path id="path17" d="m -54.20293,28.3468 c 0,1.37558 -1.11509,2.4907 -2.49069,2.4907 -1.37558,0 -2.49069,-1.11512 -2.49069,-2.4907 0,-1.37558 1.11511,-2.49069 2.49069,-2.49069 1.3756,0 2.49069,1.11511 2.49069,2.49069 z" style="fill:#78a9ff;fill-opacity:1;fill-rule:nonzero;stroke:none" transform="matrix(1.2,0,0,-1.2,275.15947,163.264)" />
    <path id="path18" d="m -25.85611,0 c 0,1.37558 -1.11511,2.49069 -2.49069,2.49069 -1.37558,0 -2.4907,-1.11511 -2.4907,-2.49069 0,-1.37558 1.11512,-2.49069 2.4907,-2.49069 1.37558,0 2.49069,1.11511 2.49069,2.49069 z" style="fill:#78a9ff;fill-opacity:1;fill-rule:nonzero;stroke:none" transform="matrix(1.2,0,0,-1.2,275.15947,163.264)" />
    <path id="path19" d="m 2.49069,-28.3468 c 0,1.37558 -1.11511,2.49069 -2.49069,2.49069 -1.37558,0 -2.49069,-1.11511 -2.49069,-2.49069 0,-1.37558 1.11511,-2.4907 2.49069,-2.4907 1.37558,0 2.49069,1.11512 2.49069,2.4907 z" style="fill:#78a9ff;fill-opacity:1;fill-rule:nonzero;stroke:none" transform="matrix(1.2,0,0,-1.2,275.15947,163.264)" />
    <path id="path20" d="m 30.8375,-56.69362 c 0,1.3756 -1.11512,2.49069 -2.4907,2.49069 -1.37558,0 -2.49069,-1.11509 -2.49069,-2.49069 0,-1.37558 1.11511,-2.49069 2.49069,-2.49069 1.37558,0 2.4907,1.11511 2.4907,2.49069 z" style="fill:#78a9ff;fill-opacity:1;fill-rule:nonzero;stroke:none" transform="matrix(1.2,0,0,-1.2,275.15947,163.264)" />
    <path id="path21" d="M -56.69362,56.69362 V 28.3468" style="fill:none;stroke:#78a9ff;stroke-width:0.79701;stroke-linecap:butt;stroke-linejoin:miter;stroke-miterlimit:10;stroke-dasharray:none;stroke-opacity:1" transform="matrix(1.2,0,0,-1.2,275.15947,163.264)" />
    <path id="path22" d="M -28.3468,56.69362 V 0" style="fill:none;stroke:#78a9ff;stroke-width:0.79701;stroke-linecap:butt;stroke-linejoin:miter;stroke-miterlimit:10;stroke-dasharray:none;stroke-opacity:1" transform="matrix(1.2,0,0,-1.2,275.15947,163.264)" />
    <path id="path23" d="M 0,56.69362 V -28.3468" style="fill:none;stroke:#78a9ff;stroke-width:0.79701;stroke-linecap:butt;stroke-linejoin:miter;stroke-miterlimit:10;stroke-dasharray:none;stroke-opacity:1" transform="matrix(1.2,0,0,-1.2,275.15947,163.264)" />
    <path id="path24" d="M 28.3468,56.69362 V -56.69362" style="fill:none;stroke:#78a9ff;stroke-width:0.79701;stroke-linecap:butt;stroke-linejoin:miter;stroke-miterlimit:10;stroke-dasharray:none;stroke-opacity:1" transform="matrix(1.2,0,0,-1.2,275.15947,163.264)" />
    <path id="path25" d="m 2.0302153,-2.1471823 h 0.7421875 c -0.1302084,0.5208333 -0.2083334,0.9114583 -0.2083334,1.30208334 0,0.29947917 0.078125,0.91145834 0.3645834,0.91145834 0.15625,0 0.2864583,-0.14322917 0.2864583,-0.28645834 0,-0.0520833 -0.026042,-0.0911458 -0.039063,-0.13020833 -0.2213542,-0.390625 -0.2604167,-0.76822921 -0.2604167,-1.08072921 0,-0.091146 0,-0.3515625 0.078125,-0.7161458 h 0.7942709 c 0.078125,0 0.3255208,0 0.3255208,-0.2473958 0,-0.1822917 -0.1692708,-0.1822917 -0.2604167,-0.1822917 h -2.382812 c -0.1171875,0 -0.390625,0 -0.71614579,0.2994792 -0.18229167,0.1692708 -0.390625,0.4557291 -0.390625,0.5208333 0,0.078125 0.078125,0.078125 0.10416667,0.078125 0.0651042,0 0.078125,0 0.1171875,-0.065104 0.10416666,-0.1432291 0.33854166,-0.4036458 0.82031252,-0.4036458 h 0.390625 c -0.1953125,0.7421875 -0.6119792,1.54947918 -0.6901042,1.70572918 -0.052083,0.0911458 -0.13020832,0.234375 -0.13020832,0.29947916 0,0.13020834 0.10416662,0.20833334 0.22135412,0.20833334 0.2083334,0 0.2734375,-0.20833334 0.3385417,-0.40364584 0.1302083,-0.37760416 0.1302083,-0.390625 0.2083333,-0.71614584 z m 0,0" style="fill:#121619;fill-opacity:1;fill-rule:nonzero;stroke:none" aria-label="π" transform="matrix(1.2,0,0,1.2,204.39187,76.7524)" />
    <path id="path26" d="m 153.929,-58.978 h 7.306" style="fill:none;stroke:#121619;stroke-width:0.4463;stroke-linecap:butt;stroke-linejoin:miter;stroke-miterlimit:10;stroke-dasharray:none;stroke-opacity:1" transform="matrix(1.2,0,0,-1.2,18.028267,7.5796)" />
    <path id="path27" d="m 2.1477049,-3.7900625 c 0,-0.1822917 -0.026042,-0.1822917 -0.2083334,-0.1822917 C 1.5487465,-3.59475 0.93676736,-3.59475 0.72843403,-3.59475 v 0.234375 c 0.14322916,0 0.54687497,0 0.89843747,-0.1692708 v 3.0208333 c 0,0.1953125 0,0.2734375 -0.6119791,0.2734375 H 0.75447569 V -0.001 C 1.0930174,-0.02704167 1.5487465,-0.02704167 1.8872882,-0.02704167 c 0.3385417,0 0.8072917,0 1.1328125,0.02604167 V -0.235375 H 2.759684 c -0.6119791,0 -0.6119791,-0.078125 -0.6119791,-0.2734375 z m 2.4804687,1.8098958 c 0,-0.2994791 0.013021,-0.7942708 0.2213542,-1.1588541 0.2604166,-0.4557292 0.6640625,-0.6380209 1.015625,-0.6380209 0.1432291,0 0.4166666,0.026042 0.5598958,0.1953125 -0.2213542,0.026042 -0.2604167,0.1822917 -0.2604167,0.2864584 0,0.15625 0.1171875,0.2864583 0.2864584,0.2864583 0.1822916,0 0.2994791,-0.1171875 0.2994791,-0.2994792 0,-0.3645833 -0.2734375,-0.6640625 -0.8854166,-0.6640625 -0.9244792,0 -1.8359375,0.8072917 -1.8359375,2.0703125 0,1.45833337 0.6770833,2.03125003 1.4583333,2.03125003 0.234375,0 0.6380208,-0.0390625 1.0026042,-0.390625 0.1953125,-0.1953125 0.4296875,-0.4296875 0.4296875,-0.96354163 0,-0.1953125 -0.026042,-0.5859375 -0.390625,-0.9244792 -0.2083334,-0.1822917 -0.46875,-0.4036458 -0.9765625,-0.4036458 -0.4166667,0 -0.7291667,0.2213541 -0.9244792,0.5729166 z m 0.859375,1.88802087 c -0.8463542,0 -0.8463542,-1.02864587 -0.8463542,-1.26302087 0,-0.5078125 0.3385417,-1.0026041 0.8854167,-1.0026041 0.3125,0 0.4817708,0.1302083 0.625,0.3125 0.1692708,0.234375 0.1692708,0.5078125 0.1692708,0.8203125 0,0.41666663 -0.013021,0.62499997 -0.2083333,0.85937497 -0.1432292,0.18229166 -0.3385417,0.2734375 -0.625,0.2734375 z m 0,0" style="fill:#121619;fill-opacity:1;fill-rule:nonzero;stroke:none" aria-label="16" transform="matrix(1.2,0,0,1.2,202.74307,85.0012)" />
    <path id="path28" d="m 2.0305694,-2.1471823 h 0.7421875 c -0.1302083,0.5208333 -0.2083333,0.9114583 -0.2083333,1.30208334 0,0.29947917 0.078125,0.91145834 0.3645833,0.91145834 0.15625,0 0.2864584,-0.14322917 0.2864584,-0.28645834 0,-0.0520833 -0.026042,-0.0911458 -0.039063,-0.13020833 -0.2213542,-0.390625 -0.2604167,-0.76822921 -0.2604167,-1.08072921 0,-0.091146 0,-0.3515625 0.078125,-0.7161458 h 0.7942708 c 0.078125,0 0.3255209,0 0.3255209,-0.2473958 0,-0.1822917 -0.1692709,-0.1822917 -0.2604167,-0.1822917 h -2.382812 c -0.1171875,0 -0.390625,0 -0.71614582,0.2994792 -0.18229167,0.1692708 -0.390625,0.4557291 -0.390625,0.5208333 0,0.078125 0.078125,0.078125 0.10416666,0.078125 0.0651042,0 0.078125,0 0.1171875,-0.065104 0.10416667,-0.1432291 0.33854167,-0.4036458 0.82031246,-0.4036458 h 0.390625 c -0.1953125,0.7421875 -0.6119791,1.54947918 -0.6901041,1.70572918 -0.052083,0.0911458 -0.13020836,0.234375 -0.13020836,0.29947916 0,0.13020834 0.10416666,0.20833334 0.22135416,0.20833334 0.2083333,0 0.2734375,-0.20833334 0.3385417,-0.40364584 0.1302083,-0.37760416 0.1302083,-0.390625 0.2083333,-0.71614584 z m 0,0" style="fill:#121619;fill-opacity:1;fill-rule:nonzero;stroke:none" aria-label="π" transform="matrix(1.2,0,0,1.2,238.40707,76.7524)" />
    <path id="path29" d="m 153.929,-58.978 h 4.559" style="fill:none;stroke:#121619;stroke-width:0.4463;stroke-linecap:butt;stroke-linejoin:miter;stroke-miterlimit:10;stroke-dasharray:none;stroke-opacity:1" transform="matrix(1.2,0,0,-1.2,53.692267,7.5796)" />
    <path id="path30" d="m 2.3034809,-2.1624583 c 0.4427083,-0.1953125 0.7682292,-0.4817709 0.7682292,-0.9114584 0,-0.5859375 -0.625,-0.8984375 -1.25,-0.8984375 -0.6640625,0 -1.25000003,0.4036459 -1.25000003,1.0026042 0,0.3776042 0.234375,0.6640625 0.49479163,0.8072917 0.052083,0.039063 0.1953125,0.1171875 0.2604167,0.15625 -0.390625,0.1432291 -0.95052083,0.4817708 -0.95052083,1.08072913 0,0.703125 0.74218753,1.0546875 1.44531253,1.0546875 0.7942708,0 1.4453125,-0.48177083 1.4453125,-1.14583333 0,-0.4166667 -0.2473959,-0.6640625 -0.3385417,-0.7421875 C 2.8112934,-1.876 2.5118142,-2.0452708 2.3034809,-2.1624583 Z M 1.2227517,-2.7483958 c -0.013021,-0.013021 -0.3255208,-0.1692709 -0.3255208,-0.4557292 0,-0.3776042 0.4817708,-0.5729167 0.9244792,-0.5729167 0.4557291,0 0.9244791,0.2604167 0.9244791,0.703125 0,0.4557292 -0.4947916,0.703125 -0.6640625,0.7942709 z m 0.3385417,0.859375 c 0.065104,0.039063 0.703125,0.4036458 0.8723958,0.4817708 0.1171875,0.078125 0.4557292,0.2604167 0.4557292,0.59895833 0,0.46875 -0.5598958,0.71614584 -1.0677083,0.71614584 -0.546875,0 -1.06770836,-0.32552084 -1.06770836,-0.83333334 0,-0.50781253 0.48177086,-0.83333333 0.80729166,-0.96354163 z m 0,0" style="fill:#121619;fill-opacity:1;fill-rule:nonzero;stroke:none" aria-label="8" transform="matrix(1.2,0,0,1.2,238.95067,85.0012)" />
    <path id="path31" d="m 2.0299236,-2.1471823 h 0.7421875 c -0.1302083,0.5208333 -0.2083333,0.9114583 -0.2083333,1.30208334 0,0.29947917 0.078125,0.91145834 0.3645833,0.91145834 0.15625,0 0.2864583,-0.14322917 0.2864583,-0.28645834 0,-0.0520833 -0.026042,-0.0911458 -0.039063,-0.13020833 -0.2213541,-0.390625 -0.2604166,-0.76822921 -0.2604166,-1.08072921 0,-0.091146 0,-0.3515625 0.078125,-0.7161458 h 0.7942708 c 0.078125,0 0.3255208,0 0.3255208,-0.2473958 0,-0.1822917 -0.1692708,-0.1822917 -0.2604166,-0.1822917 h -2.382812 c -0.1171875,0 -0.390625,0 -0.71614586,0.2994792 -0.18229166,0.1692708 -0.390625,0.4557291 -0.390625,0.5208333 0,0.078125 0.078125,0.078125 0.10416667,0.078125 0.0651042,0 0.078125,0 0.1171875,-0.065104 0.10416667,-0.1432291 0.33854167,-0.4036458 0.82031249,-0.4036458 h 0.390625 c -0.1953125,0.7421875 -0.6119792,1.54947918 -0.6901042,1.70572918 -0.052083,0.0911458 -0.13020829,0.234375 -0.13020829,0.29947916 0,0.13020834 0.10416669,0.20833334 0.22135419,0.20833334 0.2083333,0 0.2734375,-0.20833334 0.3385416,-0.40364584 0.1302084,-0.37760416 0.1302084,-0.390625 0.2083334,-0.71614584 z m 0,0" style="fill:#121619;fill-opacity:1;fill-rule:nonzero;stroke:none" aria-label="π" transform="matrix(1.2,0,0,1.2,272.42347,76.7524)" />
    <path id="path32" d="m 153.929,-58.978 h 4.559" style="fill:none;stroke:#121619;stroke-width:0.4463;stroke-linecap:butt;stroke-linejoin:miter;stroke-miterlimit:10;stroke-dasharray:none;stroke-opacity:1" transform="matrix(1.2,0,0,-1.2,87.708667,7.5796)" />
    <path id="path33" d="m 3.3737986,-0.9775625 v -0.234375 h -0.703125 v -2.6432292 c 0,-0.1432291 0,-0.1822916 -0.1432292,-0.1822916 -0.1171875,0 -0.1171875,0.026042 -0.1822916,0.091146 l -2.07031252,2.734375 v 0.234375 H 2.1368194 v 0.46875 c 0,0.20833333 0,0.2734375 -0.5078125,0.2734375 H 1.4597361 V -0.001 c 0.1171875,0 0.6770833,-0.02604167 0.9505208,-0.02604167 0.2604167,0 0.8203125,0.02604167 0.9375,0.02604167 V -0.235375 H 3.1784861 c -0.5078125,0 -0.5078125,-0.0651042 -0.5078125,-0.2734375 v -0.46875 z M 2.1758819,-3.3864167 v 2.1744792 H 0.53525694 Z m 0,0" style="fill:#121619;fill-opacity:1;fill-rule:nonzero;stroke:none" aria-label="4" transform="matrix(1.2,0,0,1.2,272.96707,85.0012)" />
    <path id="path34" d="m 2.032533,-2.1471823 h 0.7421875 c -0.1302083,0.5208333 -0.2083333,0.9114583 -0.2083333,1.30208334 0,0.29947917 0.078125,0.91145834 0.3645833,0.91145834 0.15625,0 0.2864583,-0.14322917 0.2864583,-0.28645834 0,-0.0520833 -0.026042,-0.0911458 -0.039063,-0.13020833 -0.2213541,-0.390625 -0.2604166,-0.76822921 -0.2604166,-1.08072921 0,-0.091146 0,-0.3515625 0.078125,-0.7161458 H 3.790345 c 0.078125,0 0.3255208,0 0.3255208,-0.2473958 0,-0.1822917 -0.1692708,-0.1822917 -0.2604166,-0.1822917 h -2.382812 c -0.1171875,0 -0.390625,0 -0.71614588,0.2994792 -0.18229167,0.1692708 -0.390625,0.4557291 -0.390625,0.5208333 0,0.078125 0.078125,0.078125 0.10416667,0.078125 0.0651042,0 0.078125,0 0.1171875,-0.065104 0.10416666,-0.1432291 0.33854166,-0.4036458 0.82031251,-0.4036458 h 0.390625 c -0.1953125,0.7421875 -0.6119792,1.54947918 -0.6901042,1.70572918 -0.052083,0.0911458 -0.13020831,0.234375 -0.13020831,0.29947916 0,0.13020834 0.10416671,0.20833334 0.22135421,0.20833334 0.2083333,0 0.2734375,-0.20833334 0.3385416,-0.40364584 0.1302084,-0.37760416 0.1302084,-0.390625 0.2083334,-0.71614584 z m 0,0" style="fill:#121619;fill-opacity:1;fill-rule:nonzero;stroke:none" aria-label="π" transform="matrix(1.2,0,0,1.2,306.43987,76.7524)" />
    <path id="path35" d="m 153.929,-58.978 h 4.559" style="fill:none;stroke:#121619;stroke-width:0.4463;stroke-linecap:butt;stroke-linejoin:miter;stroke-miterlimit:10;stroke-dasharray:none;stroke-opacity:1" transform="matrix(1.2,0,0,-1.2,121.72507,7.5796)" />
    <path id="path36" d="M 3.2169028,-1.1207917 H 2.9955486 c -0.013021,0.091146 -0.078125,0.48177087 -0.15625,0.54687503 -0.052083,0.0390625 -0.5338542,0.0390625 -0.6119792,0.0390625 H 1.1075278 L 1.8757569,-1.1598542 c 0.1953125,-0.15625 0.7291667,-0.546875 0.9114584,-0.7291666 0.1822916,-0.1692709 0.4296875,-0.4817709 0.4296875,-0.8984375 0,-0.7552084 -0.6770834,-1.1848959 -1.4713542,-1.1848959 -0.78124999,0 -1.31510416,0.5078125 -1.31510416,1.0677084 0,0.2994791 0.26041667,0.3385416 0.32552084,0.3385416 0.14322916,0 0.32552082,-0.1041666 0.32552082,-0.3255208 0,-0.1302083 -0.078125,-0.3125 -0.35156249,-0.3125 0.14322917,-0.3125 0.50781249,-0.5338542 0.92447919,-0.5338542 0.625,0 0.9635416,0.4557292 0.9635416,0.9505209 0,0.4166666 -0.2864583,0.859375 -0.703125,1.2369791 L 0.49554861,-0.24839583 C 0.44346528,-0.1963125 0.43044444,-0.18329167 0.43044444,-0.001 H 3.0346111 Z m 0,0" style="fill:#121619;fill-opacity:1;fill-rule:nonzero;stroke:none" aria-label="2" transform="matrix(1.2,0,0,1.2,306.98347,85.0012)" />
    <path id="path37" d="m 3.3988038,-2.2901875 c 0,-0.8203125 -0.625,-1.3671875 -1.4192708,-1.3671875 -0.4947917,0 -0.8854167,0.1041667 -1.32812501,0.3385417 l 0.0520833,0.5859375 C 0.96390799,-2.9021667 1.354533,-3.1495625 1.979533,-3.1495625 c 0.3515625,0 0.7161458,0.2604167 0.7161458,0.859375 v 0.3255208 c -1.171875,0.039063 -2.33072915,0.2864584 -2.33072915,1.02864587 0,0.390625 0.26041667,1.015625 0.96354165,1.015625 0.3515625,0 0.9765625,-0.06510417 1.3932292,-0.37760417 v 0.29947917 h 0.6770833 z m -0.703125,1.1588542 c 0,0.15624997 0,0.3645833 -0.2734375,0.53385413 -0.2604166,0.14322917 -0.5598958,0.15625 -0.6510416,0.15625 -0.4427084,0 -0.78125005,-0.20833333 -0.78125005,-0.5078125 0,-0.50781253 1.35416665,-0.55989583 1.70572915,-0.57291663 z m 0,0" style="fill:#121619;fill-opacity:1;fill-rule:nonzero;stroke:none" aria-label="a" transform="matrix(1.2,0,0,1.2,62.753467,97.3576)" />
    <g id="g37" aria-label="x&#10;0" transform="matrix(1.2,0,0,1.2,57.971467,130.5124)">
      <path id="path38" d="m 2.214533,-1.8234844 1.5364583,-1.71875 H 3.0478663 L 1.9150538,-2.2271302 0.76922049,-3.5422344 H 0.05307465 L 1.6416163,-1.8234844 9.9131944e-4,-5.6770833e-4 H 0.70411632 L 1.9150538,-1.4979635 3.1780747,-5.6770833e-4 h 0.7161458 z m 0,0" style="fill:#121619;fill-opacity:1;fill-rule:nonzero;stroke:none" />
      <path id="path39" d="m 7.1819809,-0.4660625 c 0,-0.44270833 0,-2.0703125 -1.4583333,-2.0703125 -1.4583334,0 -1.4583334,1.62760417 -1.4583334,2.0703125 0,0.4296875 0,2.03125 1.4583334,2.03125 1.4583333,0 1.4583333,-1.6015625 1.4583333,-2.03125 z M 5.7236476,1.369875 c -0.2473959,0 -0.6510417,-0.1171875 -0.8072917,-0.61197917 -0.091146,-0.3515625 -0.091146,-0.9375 -0.091146,-1.30208333 0,-0.40364583 0,-0.859375 0.091146,-1.1848958 0.1432292,-0.546875 0.5989583,-0.625 0.8072917,-0.625 0.2734375,0 0.6640625,0.1432291 0.8072916,0.5859375 0.078125,0.3255208 0.091146,0.7552083 0.091146,1.2239583 0,0.37760417 0,0.9765625 -0.1041667,1.31510417 C 6.3486476,1.29175 5.9189601,1.369875 5.7236476,1.369875 Z m 0,0" style="fill:#121619;fill-opacity:1;fill-rule:nonzero;stroke:none" />
    </g>
    <g id="g39" aria-label="x&#10;1" transform="matrix(1.2,0,0,1.2,57.971467,164.5288)">
      <path id="path40" d="m 2.214533,-1.8241302 1.5364583,-1.71875 H 3.0478663 L 1.9150538,-2.227776 0.76922049,-3.5428802 H 0.05307465 l 1.58854165,1.71875 -1.64062498056,1.82291666 H 0.70411632 L 1.9150538,-1.4986094 3.1780747,-0.00121354 h 0.7161458 z m 0,0" style="fill:#121619;fill-opacity:1;fill-rule:nonzero;stroke:none" />
      <path id="path41" d="m 6.0491684,-2.3547292 c 0,-0.1822916 -0.026042,-0.1822916 -0.2083333,-0.1822916 -0.390625,0.3776041 -1.0026042,0.3776041 -1.2109375,0.3776041 v 0.234375 c 0.1432291,0 0.546875,0 0.8984375,-0.1692708 v 3.02083333 c 0,0.19531247 0,0.27343747 -0.6119792,0.27343747 H 4.6559392 v 0.234375 c 0.3385417,-0.026042 0.7942709,-0.026042 1.1328125,-0.026042 0.3385417,0 0.8072917,0 1.1328125,0.026042 V 1.1999583 H 6.6611476 c -0.6119792,0 -0.6119792,-0.078125 -0.6119792,-0.27343747 z m 0,0" style="fill:#121619;fill-opacity:1;fill-rule:nonzero;stroke:none" />
    </g>
    <g id="g41" aria-label="x&#10;2" transform="matrix(1.2,0,0,1.2,57.971467,198.5452)">
      <path id="path42" d="m 2.214533,-1.8215208 1.5364583,-1.71875 H 3.0478663 L 1.9150538,-2.2251667 0.76922049,-3.5402708 H 0.05307465 L 1.6416163,-1.8215208 9.9131944e-4,0.00139583 H 0.70411632 L 1.9150538,-1.496 3.1780747,0.00139583 h 0.7161458 z m 0,0" style="fill:#121619;fill-opacity:1;fill-rule:nonzero;stroke:none" />
      <path id="path43" d="M 7.1168767,0.31389583 H 6.8955226 c -0.013021,0.0911458 -0.078125,0.48177084 -0.15625,0.546875 -0.052083,0.0390625 -0.5338542,0.0390625 -0.6119792,0.0390625 H 5.0075017 l 0.7682292,-0.625 c 0.1953125,-0.15625 0.7291667,-0.546875 0.9114583,-0.72916666 0.1822917,-0.16927084 0.4296875,-0.48177084 0.4296875,-0.89843747 0,-0.7552084 -0.6770833,-1.1848959 -1.4713541,-1.1848959 -0.78125,0 -1.3151042,0.5078125 -1.3151042,1.0677084 0,0.2994791 0.2604167,0.3385416 0.3255208,0.3385416 0.1432292,0 0.3255209,-0.1041666 0.3255209,-0.3255208 0,-0.1302083 -0.078125,-0.3125 -0.3515625,-0.3125 0.1432291,-0.3125 0.5078125,-0.5338542 0.9244791,-0.5338542 0.625,0 0.9635417,0.4557292 0.9635417,0.9505209 0,0.41666663 -0.2864583,0.85937497 -0.703125,1.23697913 L 4.3955226,1.1862917 c -0.052083,0.052083 -0.065104,0.065104 -0.065104,0.2473958 h 2.6041667 z m 0,0" style="fill:#121619;fill-opacity:1;fill-rule:nonzero;stroke:none" />
    </g>
    <g id="g43" aria-label="x&#10;3" transform="matrix(1.2,0,0,1.2,57.971467,232.5604)">
      <path id="path44" d="m 2.214533,-1.8244219 1.5364583,-1.71875 H 3.0478663 L 1.9150538,-2.2280677 0.76922049,-3.5431719 H 0.05307465 l 1.58854165,1.71875 -1.64062498056,1.82291669 H 0.70411632 L 1.9150538,-1.498901 3.1780747,-0.00150521 h 0.7161458 z m 0,0" style="fill:#121619;fill-opacity:1;fill-rule:nonzero;stroke:none" />
      <path id="path45" d="m 5.6585434,-0.545125 c 0.5078125,0 0.8463542,0.33854167 0.8463542,0.95052083 0,0.65104167 -0.390625,0.93749997 -0.8333334,0.93749997 -0.15625,0 -0.7682291,-0.039063 -1.0416666,-0.37760413 C 4.8642726,0.93925 4.9554184,0.783 4.9554184,0.62675 c 0,-0.20833333 -0.1432292,-0.3515625 -0.3385417,-0.3515625 -0.15625,0 -0.3385416,0.10416667 -0.3385416,0.3515625 0,0.5989583 0.6510416,0.9375 1.4192708,0.9375 0.8854167,0 1.4713542,-0.57291667 1.4713542,-1.15885417 0,-0.44270833 -0.3385417,-0.8984375 -1.0416667,-1.08072916 0.46875,-0.15625 0.8463542,-0.53385417 0.8463542,-1.02864587 0,-0.4817708 -0.5598959,-0.8333333 -1.2760417,-0.8333333 -0.703125,0 -1.2239583,0.3255208 -1.2239583,0.8072917 0,0.2604166 0.1953125,0.3255208 0.3125,0.3255208 0.15625,0 0.3125,-0.1041667 0.3125,-0.3125 0,-0.1822917 -0.1302084,-0.2864583 -0.2864584,-0.3125 0.2734375,-0.3125 0.8203125,-0.3125 0.8723959,-0.3125 0.3125,0 0.6901041,0.1432292 0.6901041,0.6380208 0,0.3255209 -0.1822916,0.89843753 -0.78125,0.93750003 -0.1041666,0.0130208 -0.2734375,0.0130208 -0.3255208,0.0130208 -0.052083,0.0130208 -0.1302083,0.0130208 -0.1302083,0.10416666 0,0.10416667 0.078125,0.10416667 0.1692708,0.10416667 z m 0,0" style="fill:#121619;fill-opacity:1;fill-rule:nonzero;stroke:none" />
    </g>
    <g id="g45" aria-label="y&#10;0" transform="matrix(1.2,0,0,1.2,533.70787,96.4276)">
      <path id="path46" d="M 3.7753455,-3.5431823 H 3.1373247 C 2.486283,-2.0197448 2.0435747,-0.99109896 2.0045122,-0.50932812 1.9914913,-0.73068229 1.8482622,-1.1213073 1.705033,-1.4989115 1.5748247,-1.8244323 1.4446163,-2.1369323 1.3013872,-2.4494323 l -0.49479171,-1.09375 H 0.11649132 L 1.7701372,-0.00151562 C 1.6789913,0.23285938 1.5097205,0.59744271 1.470658,0.70160938 1.3013872,1.040151 1.1841997,1.1443177 0.97586632,1.1443177 c -0.0390625,0 -0.32552083,0 -0.67708333,-0.1432292 l 0.0520833,0.5598959 c 0.0651042,0.013021 0.36458333,0.065104 0.61197917,0.065104 0.32552084,0 0.61197924,-0.1171875 0.93750004,-0.88541662 z m 0,0" style="fill:#121619;fill-opacity:1;fill-rule:nonzero;stroke:none" />
      <path id="path47" d="m 7.1835486,-0.46701042 c 0,-0.44270833 0,-2.07031248 -1.4583333,-2.07031248 -1.4583334,0 -1.4583334,1.62760415 -1.4583334,2.07031248 0,0.4296875 0,2.03125002 1.4583334,2.03125002 1.4583333,0 1.4583333,-1.60156252 1.4583333,-2.03125002 z M 5.7252153,1.3689271 c -0.2473959,0 -0.6510417,-0.1171875 -0.8072917,-0.61197918 -0.091146,-0.3515625 -0.091146,-0.9375 -0.091146,-1.30208334 0,-0.40364583 0,-0.85937498 0.091146,-1.18489578 0.1432292,-0.546875 0.5989583,-0.625 0.8072917,-0.625 0.2734375,0 0.6640625,0.1432291 0.8072916,0.5859375 0.078125,0.3255208 0.091146,0.7552083 0.091146,1.22395828 0,0.37760417 0,0.9765625 -0.1041667,1.31510417 C 6.3502153,1.2908021 5.9205278,1.3689271 5.7252153,1.3689271 Z m 0,0" style="fill:#121619;fill-opacity:1;fill-rule:nonzero;stroke:none" />
    </g>
    <g id="g47" aria-label="y&#10;1" transform="matrix(1.2,0,0,1.2,533.70787,130.4428)">
      <path id="path48" d="M 3.7753455,-3.5428281 H 3.1373247 C 2.486283,-2.0193906 2.0435747,-0.99074479 2.0045122,-0.50897396 1.9914913,-0.73032812 1.8482622,-1.1209531 1.705033,-1.4985573 1.5748247,-1.8240781 1.4446163,-2.1365781 1.3013872,-2.4490781 l -0.49479171,-1.09375 H 0.11649132 L 1.7701372,-0.00116146 C 1.6789913,0.23321354 1.5097205,0.59779688 1.470658,0.70196354 1.3013872,1.0405052 1.1841997,1.1446719 0.97586632,1.1446719 c -0.0390625,0 -0.32552083,0 -0.67708333,-0.1432292 l 0.0520833,0.5598958 c 0.0651042,0.013021 0.36458333,0.065104 0.61197917,0.065104 0.32552084,0 0.61197924,-0.1171875 0.93750004,-0.88541666 z m 0,0" style="fill:#121619;fill-opacity:1;fill-rule:nonzero;stroke:none" />
      <path id="path49" d="m 6.0507361,-2.3546771 c 0,-0.1822916 -0.026042,-0.1822916 -0.2083333,-0.1822916 -0.390625,0.3776041 -1.0026042,0.3776041 -1.2109375,0.3776041 v 0.234375 c 0.1432291,0 0.546875,0 0.8984375,-0.1692708 v 3.02083332 c 0,0.19531248 0,0.27343748 -0.6119792,0.27343748 H 4.6575069 v 0.234375 c 0.3385417,-0.026042 0.7942709,-0.026042 1.1328125,-0.026042 0.3385417,0 0.8072917,0 1.1328125,0.026042 V 1.2000104 H 6.6627153 c -0.6119792,0 -0.6119792,-0.078125 -0.6119792,-0.27343748 z m 0,0" style="fill:#121619;fill-opacity:1;fill-rule:nonzero;stroke:none" />
    </g>
    <g id="g49" aria-label="y&#10;2" transform="matrix(1.2,0,0,1.2,533.70787,164.4592)">
      <path id="path50" d="M 3.7753455,-3.5402187 H 3.1373247 C 2.486283,-2.0167812 2.0435747,-0.98813542 2.0045122,-0.50636458 1.9914913,-0.72771875 1.8482622,-1.1183437 1.705033,-1.4959479 1.5748247,-1.8214687 1.4446163,-2.1339687 1.3013872,-2.4464687 l -0.49479171,-1.09375 H 0.11649132 L 1.7701372,0.00144792 C 1.6789913,0.23582292 1.5097205,0.60040625 1.470658,0.70457292 1.3013872,1.0431146 1.1841997,1.1472813 0.97586632,1.1472813 c -0.0390625,0 -0.32552083,0 -0.67708333,-0.1432292 l 0.0520833,0.5598958 c 0.0651042,0.013021 0.36458333,0.065104 0.61197917,0.065104 0.32552084,0 0.61197924,-0.1171875 0.93750004,-0.88541668 z m 0,0" style="fill:#121619;fill-opacity:1;fill-rule:nonzero;stroke:none" />
      <path id="path51" d="M 7.1184444,0.31394792 H 6.8970903 c -0.013021,0.0911458 -0.078125,0.48177083 -0.15625,0.546875 -0.052083,0.0390625 -0.5338542,0.0390625 -0.6119792,0.0390625 H 5.0090694 l 0.7682292,-0.625 c 0.1953125,-0.15625 0.7291667,-0.546875 0.9114583,-0.72916667 0.1822917,-0.16927083 0.4296875,-0.48177083 0.4296875,-0.89843745 0,-0.7552084 -0.6770833,-1.1848959 -1.4713541,-1.1848959 -0.78125,0 -1.3151042,0.5078125 -1.3151042,1.0677084 0,0.2994791 0.2604167,0.3385416 0.3255208,0.3385416 0.1432292,0 0.3255209,-0.1041666 0.3255209,-0.3255208 0,-0.1302083 -0.078125,-0.3125 -0.3515625,-0.3125 0.1432291,-0.3125 0.5078125,-0.5338542 0.9244791,-0.5338542 0.625,0 0.9635417,0.4557292 0.9635417,0.9505209 0,0.41666662 -0.2864583,0.85937495 -0.703125,1.23697912 L 4.3970903,1.1863438 c -0.052083,0.052083 -0.065104,0.065104 -0.065104,0.2473958 H 6.936153 Z m 0,0" style="fill:#121619;fill-opacity:1;fill-rule:nonzero;stroke:none" />
    </g>
    <g id="g51" aria-label="y&#10;3" transform="matrix(1.2,0,0,1.2,533.70787,198.4756)">
      <path id="path52" d="M 3.7753455,-3.5408646 H 3.1373247 C 2.486283,-2.0174271 2.0435747,-0.98878125 2.0045122,-0.50701042 1.9914913,-0.72836458 1.8482622,-1.1189896 1.705033,-1.4965937 1.5748247,-1.8221146 1.4446163,-2.1346146 1.3013872,-2.4471146 l -0.49479171,-1.09375 H 0.11649132 L 1.7701372,8.0208333e-4 C 1.6789913,0.23517708 1.5097205,0.59976042 1.470658,0.70392708 1.3013872,1.0424688 1.1841997,1.1466354 0.97586632,1.1466354 c -0.0390625,0 -0.32552083,0 -0.67708333,-0.1432291 l 0.0520833,0.5598958 c 0.0651042,0.013021 0.36458333,0.065104 0.61197917,0.065104 0.32552084,0 0.61197924,-0.1171875 0.93750004,-0.88541672 z m 0,0" style="fill:#121619;fill-opacity:1;fill-rule:nonzero;stroke:none" />
      <path id="path53" d="m 5.6601111,-0.54607292 c 0.5078125,0 0.8463542,0.33854167 0.8463542,0.95052084 0,0.65104168 -0.390625,0.93749998 -0.8333334,0.93749998 -0.15625,0 -0.7682291,-0.039063 -1.0416666,-0.37760415 0.234375,-0.0260417 0.3255208,-0.18229167 0.3255208,-0.33854167 0,-0.20833333 -0.1432292,-0.3515625 -0.3385417,-0.3515625 -0.15625,0 -0.3385416,0.10416667 -0.3385416,0.3515625 0,0.59895832 0.6510416,0.93750002 1.4192708,0.93750002 0.8854167,0 1.4713542,-0.57291668 1.4713542,-1.15885418 0,-0.44270834 -0.3385417,-0.8984375 -1.0416667,-1.08072917 0.46875,-0.15625 0.8463542,-0.53385415 0.8463542,-1.02864585 0,-0.4817708 -0.5598959,-0.8333333 -1.2760417,-0.8333333 -0.703125,0 -1.2239583,0.3255208 -1.2239583,0.8072917 0,0.2604166 0.1953125,0.3255208 0.3125,0.3255208 0.15625,0 0.3125,-0.1041667 0.3125,-0.3125 0,-0.1822917 -0.1302084,-0.2864583 -0.2864584,-0.3125 0.2734375,-0.3125 0.8203125,-0.3125 0.8723959,-0.3125 0.3125,0 0.6901041,0.1432292 0.6901041,0.6380208 0,0.3255209 -0.1822916,0.89843752 -0.78125,0.93750002 -0.1041666,0.0130208 -0.2734375,0.0130208 -0.3255208,0.0130208 -0.052083,0.0130208 -0.1302083,0.0130208 -0.1302083,0.10416667 0,0.10416666 0.078125,0.10416666 0.1692708,0.10416666 z m 0,0" style="fill:#121619;fill-opacity:1;fill-rule:nonzero;stroke:none" />
    </g>
    <path id="path54" d="M 1.3404497,-5.5338646 H 0.67638715 V -1.0416667e-5 H 1.3664913 V -0.37761458 c 0.1822917,0.15625 0.5598959,0.45572916 1.1458334,0.45572916 0.859375,0 1.5625,-0.80729166 1.5625,-1.84895828 0,-0.9765625 -0.546875,-1.8489584 -1.3411459,-1.8489584 -0.5078125,0 -0.9895833,0.15625 -1.3932291,0.4557292 z m 0.026042,3.0208334 c 0,-0.1302084 0,-0.2213542 0.2864584,-0.4036459 0.1171875,-0.065104 0.3255208,-0.1692708 0.5989583,-0.1692708 0.5338542,0 1.1328125,0.3515625 1.1328125,1.3151042 0,0.96354162 -0.6640625,1.32812495 -1.2239583,1.32812495 -0.2864584,0 -0.5729167,-0.14322917 -0.7942709,-0.49479167 z m 0,0" style="fill:#121619;fill-opacity:1;fill-rule:nonzero;stroke:none" aria-label="b" transform="matrix(1.2,0,0,1.2,533.70787,234.6172)" />
    <path id="path55" d="M 1.080158,-5.9764531 3.7624497,-3.2811406 1.080158,-0.59884896 1.627033,-0.07801562 4.2963038,-2.7472865 6.9785955,-0.07801562 7.5254705,-0.59884896 4.8431788,-3.2811406 7.5254705,-5.9764531 6.9785955,-6.5103073 4.2963038,-3.8280156 1.627033,-6.4972865 Z m 0,0" style="fill:#78a9ff;fill-opacity:1;fill-rule:nonzero;stroke:none" aria-label="×" transform="matrix(1.2,0,0,1.2,389.05147,99.1444)" />
    <path id="path56" d="M 1.080158,-5.9780365 3.7624497,-3.282724 1.080158,-0.60043229 1.627033,-0.07959896 4.2963038,-2.7488698 6.9785955,-0.07959896 7.5254705,-0.60043229 4.8431788,-3.282724 7.5254705,-5.9780365 6.9785955,-6.5118906 4.2963038,-3.829599 1.627033,-6.4988698 Z m 0,0" style="fill:#78a9ff;fill-opacity:1;fill-rule:nonzero;stroke:none" aria-label="×" transform="matrix(1.2,0,0,1.2,389.05147,235.2088)" />
    <path id="path57" d="M 99.21382,56.69362 V -56.69362" style="fill:none;stroke:#78a9ff;stroke-width:0.79701;stroke-linecap:butt;stroke-linejoin:miter;stroke-miterlimit:10;stroke-dasharray:none;stroke-opacity:1" transform="matrix(1.2,0,0,-1.2,275.15947,163.264)" />
    <path id="path58" d="m 1.0795122,-5.9764531 2.6822916,2.6953125 -2.6822916,2.68229164 0.546875,0.52083334 L 4.295658,-2.7472865 6.9779497,-0.07801562 7.5248247,-0.59884896 4.842533,-3.2811406 7.5248247,-5.9764531 6.9779497,-6.5103073 4.295658,-3.8280156 1.6263872,-6.4972865 Z m 0,0" style="fill:#78a9ff;fill-opacity:1;fill-rule:nonzero;stroke:none" aria-label="×" transform="matrix(1.2,0,0,1.2,423.06787,99.1444)" />
    <path id="path59" d="m 1.0795122,-5.977099 2.6822916,2.6953125 -2.6822916,2.68229171 0.546875,0.52083333 L 4.295658,-2.7479323 6.9779497,-0.07866146 7.5248247,-0.59949479 4.842533,-3.2817865 7.5248247,-5.977099 6.9779497,-6.5109531 4.295658,-3.8286615 1.6263872,-6.4979323 Z m 0,0" style="fill:#78a9ff;fill-opacity:1;fill-rule:nonzero;stroke:none" aria-label="×" transform="matrix(1.2,0,0,1.2,423.06787,133.1608)" />
    <path id="path60" d="M 127.56062,56.69362 V 28.3468" style="fill:none;stroke:#78a9ff;stroke-width:0.79701;stroke-linecap:butt;stroke-linejoin:miter;stroke-miterlimit:10;stroke-dasharray:none;stroke-opacity:1" transform="matrix(1.2,0,0,-1.2,275.15947,163.264)" />
    <path id="path61" d="m 1.0798663,-5.977099 2.6822917,2.6953125 -2.6822917,2.68229171 0.546875,0.52083333 2.6692709,-2.66927084 2.6822916,2.66927084 0.546875,-0.52083333 L 4.8428872,-3.2817865 7.5251788,-5.977099 6.9783038,-6.5109531 4.2960122,-3.8286615 1.6267413,-6.4979323 Z m 0,0" style="fill:#78a9ff;fill-opacity:1;fill-rule:nonzero;stroke:none" aria-label="×" transform="matrix(1.2,0,0,1.2,457.08307,133.1608)" />
    <path id="path62" d="m 1.0798663,-5.9777448 2.6822917,2.6953125 -2.6822917,2.68229168 0.546875,0.52083333 2.6692709,-2.66927081 2.6822916,2.66927081 0.546875,-0.52083333 L 4.8428872,-3.2824323 7.5251788,-5.9777448 6.9783038,-6.511599 4.2960122,-3.8293073 1.6267413,-6.4985781 Z m 0,0" style="fill:#78a9ff;fill-opacity:1;fill-rule:nonzero;stroke:none" aria-label="×" transform="matrix(1.2,0,0,1.2,457.08307,167.1772)" />
    <path id="path63" d="M 155.90744,28.3468 V 0" style="fill:none;stroke:#78a9ff;stroke-width:0.79701;stroke-linecap:butt;stroke-linejoin:miter;stroke-miterlimit:10;stroke-dasharray:none;stroke-opacity:1" transform="matrix(1.2,0,0,-1.2,275.15947,163.264)" />
    <path id="path64" d="m 1.0792205,-5.9777448 2.6822917,2.6953125 -2.6822917,2.68229168 0.546875,0.52083333 L 4.2953663,-2.7485781 6.977658,-0.07930729 7.524533,-0.60014062 4.8422413,-3.2824323 7.524533,-5.9777448 6.977658,-6.511599 4.2953663,-3.8293073 1.6260955,-6.4985781 Z m 0,0" style="fill:#78a9ff;fill-opacity:1;fill-rule:nonzero;stroke:none" aria-label="×" transform="matrix(1.2,0,0,1.2,491.09947,167.1772)" />
    <path id="path65" d="m 1.0792205,-5.9751354 2.6822917,2.6953125 -2.6822917,2.68229165 0.546875,0.52083333 L 4.2953663,-2.7459687 6.977658,-0.07669792 7.524533,-0.59753125 4.8422413,-3.2798229 7.524533,-5.9751354 6.977658,-6.5089896 4.2953663,-3.8266979 1.6260955,-6.4959687 Z m 0,0" style="fill:#78a9ff;fill-opacity:1;fill-rule:nonzero;stroke:none" aria-label="×" transform="matrix(1.2,0,0,1.2,491.09947,201.1936)" />
    <path id="path66" d="M 184.25424,0 V -28.3468" style="fill:none;stroke:#78a9ff;stroke-width:0.79701;stroke-linecap:butt;stroke-linejoin:miter;stroke-miterlimit:10;stroke-dasharray:none;stroke-opacity:1" transform="matrix(1.2,0,0,-1.2,275.15947,163.264)" />
  </g>
</svg>