<svg width="40" height="40" viewBox="0 0 40 40" fill="none" xmlns="http://www.w3.org/2000/svg">
<rect width="40" height="40" fill="white"/>
<g clip-path="url(#clip0_1612_12845)">
<path d="M1.99985 11.9694C2.00289 12.0847 2.04953 12.1945 2.13019 12.2762C2.21085 12.3578 2.31939 12.405 2.43343 12.4081C2.49005 12.408 2.54605 12.3961 2.59788 12.373C2.6497 12.3499 2.69623 12.3162 2.73454 12.274C3.3084 11.6993 4.04524 11.3201 4.84228 11.1894V10.312C4.15675 10.3519 3.49662 10.5886 2.93927 10.9944C2.9603 10.6646 3.05197 10.3433 3.20795 10.0529C3.36394 9.76254 3.58049 9.50995 3.84259 9.31268C3.91058 9.27299 3.9674 9.21625 4.00748 9.14796C4.04755 9.07966 4.06954 9.0021 4.07143 8.9227V7.70403C4.07143 7.01236 4.34303 6.34902 4.8264 5.85993C5.30977 5.37085 5.96533 5.09609 6.64892 5.09609H8.45556C9.09042 5.1101 9.71772 4.95458 10.2743 4.64519C10.4563 5.71518 10.9861 6.69305 11.7798 7.42375L13.4299 9.09331H12.0688C11.9538 9.09331 11.8435 9.13953 11.7622 9.2218C11.6809 9.30408 11.6353 9.41567 11.6353 9.53203V11.5306H9.65999C9.54499 11.5306 9.43468 11.5769 9.35337 11.6591C9.27206 11.7414 9.22641 11.853 9.22641 11.9694C9.22641 12.1765 9.2264 17.0512 11.7677 19.586L20.0663 27.9948V29.0306C20.0663 29.8839 19.7312 30.7022 19.1349 31.3056C18.5386 31.9089 17.7299 32.2479 16.8866 32.2479V33.1253C17.9589 33.1221 18.9864 32.6897 19.7446 31.9225C20.5029 31.1553 20.9302 30.1156 20.9334 29.0306V28.8722L25.0164 32.9913L25.6186 32.382L12.37 18.9767C10.5272 17.0999 10.1779 13.6267 10.1056 12.4081H12.0688C12.1838 12.4081 12.2942 12.3619 12.3755 12.2796C12.4568 12.1973 12.5024 12.0857 12.5024 11.9694V9.97075H14.4777C14.5948 9.96705 14.7099 9.93795 14.815 9.88543C15.8503 9.08068 17.1393 8.684 18.4421 8.76919C19.7449 8.85438 20.9726 9.41565 21.8969 10.3485L37.9399 26.5933C37.5553 26.8701 37.0871 27.0021 36.6164 26.9665C36.1457 26.9309 35.7022 26.7299 35.3625 26.3983L22.0054 12.8955L21.4032 13.5049L34.3146 26.5933C33.9323 26.8685 33.4675 27.0007 32.9995 26.9673C32.5315 26.934 32.0896 26.7372 31.7492 26.4105L20.8009 15.3451L20.1987 15.9544L30.7013 26.5933C30.319 26.8685 29.8542 27.0007 29.3862 26.9673C28.9183 26.934 28.4763 26.7372 28.1359 26.4105L19.5965 17.7824L18.9943 18.3917L27.088 26.5933C26.7058 26.8685 26.2409 27.0007 25.773 26.9673C25.305 26.934 24.863 26.7372 24.5227 26.4105L18.3921 20.2197L17.7899 20.829L23.812 26.9224L34.6519 37.8903C34.7309 37.9733 34.8391 38.0214 34.953 38.0244C35.0098 38.0259 35.0663 38.0147 35.1184 37.9915C35.1704 37.9683 35.2168 37.9338 35.2541 37.8903L35.3625 37.7928C35.8626 37.2867 36.1573 36.6094 36.1885 35.8944C36.2197 35.1794 35.9851 34.4785 35.5311 33.9297C35.9851 33.3809 36.2197 32.68 36.1885 31.9649C36.1573 31.2499 35.8626 30.5727 35.3625 30.0665L33.1945 27.8729C33.839 27.8586 34.4593 27.6222 34.953 27.2026C35.5029 27.6443 36.192 27.8702 36.8935 27.8388C37.5949 27.8075 38.2616 27.521 38.771 27.032L38.8673 26.9224C38.909 26.8836 38.9422 26.8364 38.9649 26.784C38.9876 26.7316 38.9993 26.6749 38.9993 26.6177C38.9993 26.5604 38.9876 26.5038 38.9649 26.4514C38.9422 26.3989 38.909 26.3518 38.8673 26.313L22.5112 9.75138C21.4771 8.71303 20.1176 8.07194 18.6667 7.93848C17.2157 7.80502 15.7642 8.18755 14.562 9.02019L12.37 6.81441C12.37 6.81441 10.6356 5.20578 11.2619 3.6337C11.3082 3.52704 11.3107 3.40613 11.269 3.29757C11.2272 3.18901 11.1445 3.1017 11.0391 3.05483C10.9337 3.00796 10.8142 3.00539 10.7069 3.04767C10.5996 3.08995 10.5133 3.17362 10.4669 3.28028C10.2538 3.61461 9.95251 3.88197 9.59706 4.0521C9.24162 4.22223 8.84621 4.28837 8.45556 4.24303H6.64892C5.73534 4.24303 4.85916 4.61024 4.21316 5.26388C3.56716 5.91751 3.20428 6.80403 3.20428 7.72841V8.71552C2.77517 9.13175 2.4441 9.64031 2.23561 10.2036C2.02712 10.7668 1.94655 11.3703 1.99985 11.9694ZM34.953 33.2716L29.5812 27.812C30.2166 27.7995 30.8287 27.5673 31.3156 27.1539L34.7482 30.6271C35.0937 30.9677 35.305 31.4238 35.3426 31.9103C35.3803 32.3969 35.2418 32.8807 34.953 33.2716ZM25.9679 27.812C26.6033 27.7995 27.2154 27.5673 27.7023 27.1539L34.6519 34.1734L34.7482 34.2831C35.0824 34.6231 35.2855 35.0728 35.3208 35.551C35.3562 36.0292 35.2214 36.5045 34.9409 36.891L25.9679 27.812Z" fill="#6F6F6F"/>
</g>
<defs>
<clipPath id="clip0_1612_12845">
<rect width="37" height="35" fill="white" transform="translate(2 3)"/>
</clipPath>
</defs>
</svg>
