<?xml version='1.0' encoding='utf-8'?>
<svg xmlns="http://www.w3.org/2000/svg" xmlns:ns1="http://sodipodi.sourceforge.net/DTD/sodipodi-0.dtd" xmlns:ns2="http://www.inkscape.org/namespaces/inkscape" version="1.1" id="svg1" width="100%" height="auto" viewBox="-20.0 -20.0 372.48245 274.93359" ns1:docname="svg_fix_XXXXXX.svg">
  <rect id="path1" x="-20.0" y="-20.0" width="372.48245" height="274.93359" fill="white" /><ns1:namedview id="namedview1" pagecolor="#ffffff" bordercolor="#000000" borderopacity="0.25" ns2:showpageshadow="2" ns2:pageopacity="0.0" ns2:pagecheckerboard="0" ns2:deskcolor="#d1d1d1" />
  <defs id="defs1" />
  <g id="g1" transform="translate(-135.98437,-34.960937)">
    <path id="path2" d="m 28.34789,-2.12587 v 4.25174 m 28.34788,-4.25174 v 4.25174 m 28.34789,-4.25174 v 4.25174 m 28.3479,-4.25174 v 4.25174" style="fill:none;stroke:#808080;stroke-width:0.19925;stroke-linecap:butt;stroke-linejoin:miter;stroke-miterlimit:10;stroke-dasharray:none;stroke-opacity:1" transform="matrix(1.6666667,0,0,-1.6666667,199.914,228.493)" />
    <path id="path3" d="m -2.12587,28.34789 h 4.25174 m -4.25174,28.34788 h 4.25174 m -4.25174,28.34789 h 4.25174 m -4.25174,28.3479 h 4.25174" style="fill:none;stroke:#808080;stroke-width:0.19925;stroke-linecap:butt;stroke-linejoin:miter;stroke-miterlimit:10;stroke-dasharray:none;stroke-opacity:1" transform="matrix(1.6666667,0,0,-1.6666667,199.914,228.493)" />
    <path id="path4" d="M 0,0 H 113.38026" style="fill:none;stroke:#121619;stroke-width:0.3985;stroke-linecap:butt;stroke-linejoin:miter;stroke-miterlimit:10;stroke-dasharray:none;stroke-opacity:1" transform="matrix(1.6666667,0,0,-1.6666667,199.914,228.493)" />
    <path id="path5" d="M 0,0 V 113.39153" style="fill:none;stroke:#121619;stroke-width:0.3985;stroke-linecap:butt;stroke-linejoin:miter;stroke-miterlimit:10;stroke-dasharray:none;stroke-opacity:1" transform="matrix(1.6666667,0,0,-1.6666667,199.914,228.493)" />
    <g id="g5" aria-label="0.25" transform="matrix(1.6666667,0,0,1.6666667,234.614,245.35633)">
      <path id="path6" d="m 3.8995688,-2.5411438 c 0,-0.853125 -0.09375,-1.36875 -0.3562501,-1.884375 -0.3468749,-0.703125 -0.9937499,-0.8718749 -1.4343749,-0.8718749 -1.0031251,0 -1.36875005,0.75 -1.48125005,0.9656249 -0.28125,0.5812501 -0.3,1.3781251 -0.3,1.790625 0,0.5250001 0.01875,1.3312501 0.403125,1.96875005 0.36562505,0.590625 0.95625005,0.740625 1.37812505,0.740625 0.384375,0 1.06875,-0.121875 1.471875,-0.909375 0.2906249,-0.57187495 0.31875,-1.28437505 0.31875,-1.80000005 z m -1.790625,2.48437505 c -0.271875,0 -0.8156251,-0.13125 -0.984375,-0.96562495 -0.084375,-0.4500001 -0.084375,-1.2000001 -0.084375,-1.6125001 0,-0.5531249 0,-1.1156249 0.084375,-1.546875 0.1687499,-0.8156249 0.7875,-0.890625 0.984375,-0.890625 0.271875,0 0.8249999,0.13125 0.984375,0.8531251 0.09375,0.440625 0.09375,1.040625 0.09375,1.5843749 0,0.46875 0,1.1812501 -0.09375,1.63125 -0.16875,0.83437505 -0.7218751,0.94687505 -0.984375,0.94687505 z m 0,0" style="fill:#121619;fill-opacity:1;fill-rule:nonzero;stroke:none" />
      <path id="path7" d="m 5.8566,-0.44114375 c 0,-0.271875 -0.225,-0.440625 -0.440625,-0.440625 -0.253125,0 -0.45,0.20625 -0.45,0.43125 0,0.271875 0.225,0.45 0.440625,0.45 0.253125,0 0.45,-0.20625 0.45,-0.440625 z m 0,0" style="fill:#121619;fill-opacity:1;fill-rule:nonzero;stroke:none" />
      <path id="path8" d="m 8.83785,-1.6223937 c 0.121875,-0.1218751 0.459375,-0.384375 0.590625,-0.4968751 0.4875,-0.4593749 0.95625,-0.890625 0.95625,-1.6218749 0,-0.946875 -0.796875,-1.55625 -1.790625,-1.55625 -0.95625,0 -1.584375,0.721875 -1.584375,1.4343749 0,0.384375 0.309375,0.4406251 0.421875,0.4406251 0.16875,0 0.4125,-0.1125001 0.4125,-0.421875 0,-0.4125 -0.39375,-0.4125 -0.4875,-0.4125 0.225,-0.5812501 0.759375,-0.7781251 1.153125,-0.7781251 0.740625,0 1.125,0.6281251 1.125,1.2937501 0,0.834375 -0.58125,1.4343749 -1.528125,2.4 l -1.003125,1.04062495 c -0.09375,0.084375 -0.09375,0.103125 -0.09375,0.3 h 3.15 l 0.225,-1.42500005 h -0.24375 c -0.01875,0.1593751 -0.08437,0.55312505 -0.178125,0.70312505 -0.05625,0.065625 -0.65625,0.065625 -0.7875,0.065625 H 7.759725 Z m 3.096094,-2.859375 c 0.103125,0.0375 0.421875,0.1124999 0.759375,0.1124999 0.99375,0 1.603125,-0.703125 1.603125,-0.8156249 0,-0.09375 -0.05625,-0.1125 -0.103125,-0.1125 -0.0094,0 -0.02813,0 -0.103125,0.0375 -0.309375,0.1218751 -0.675,0.2156251 -1.10625,0.2156251 -0.46875,0 -0.8625,-0.1218751 -1.10625,-0.2156251 -0.075,-0.0375 -0.09375,-0.0375 -0.103125,-0.0375 -0.103125,0 -0.103125,0.084375 -0.103125,0.2249999 v 2.334375 c 0,0.15 0,0.24375 0.13125,0.24375 0.05625,0 0.08437,-0.028125 0.121875,-0.09375 0.09375,-0.1218749 0.403125,-0.525 1.078125,-0.525 0.45,0 0.65625,0.3656251 0.73125,0.515625 0.140625,0.28125 0.15,0.65625 0.15,0.9656251 0,0.290625 -0.0094,0.72187495 -0.225,1.06874995 -0.159375,0.24375 -0.478125,0.4875 -0.9,0.4875 -0.515625,0 -1.021875,-0.328125 -1.209375,-0.84375 0.02812,0.009375 0.075,0.009375 0.08437,0.009375 0.225,0 0.39375,-0.14062505 0.39375,-0.39374995 0,-0.290625 -0.225,-0.3937501 -0.384375,-0.3937501 -0.15,0 -0.403125,0.075 -0.403125,0.421875 0,0.71250005 0.61875,1.44375005 1.5375,1.44375005 0.99375,0 1.8375,-0.778125 1.8375,-1.76249995 0,-0.928125 -0.665625,-1.7437501 -1.603125,-1.7437501 -0.403125,0 -0.778125,0.1218751 -1.078125,0.3937501 z m 0,0" style="fill:#121619;fill-opacity:1;fill-rule:nonzero;stroke:none" />
    </g>
    <g id="g8" aria-label="0.5" transform="matrix(1.6666667,0,0,1.6666667,285.389,245.35633)">
      <path id="path9" d="m 3.900975,-2.5411438 c 0,-0.853125 -0.09375,-1.36875 -0.35625,-1.884375 -0.346875,-0.703125 -0.99375,-0.8718749 -1.434375,-0.8718749 -1.003125,0 -1.36875,0.75 -1.48125,0.9656249 -0.28125,0.5812501 -0.3,1.3781251 -0.3,1.790625 0,0.5250001 0.01875,1.3312501 0.403125,1.96875005 0.365625,0.590625 0.95625,0.740625 1.378125,0.740625 0.384375,0 1.06875,-0.121875 1.471875,-0.909375 C 3.87285,-1.3130187 3.900975,-2.0255188 3.900975,-2.5411438 Z M 2.11035,-0.05676875 c -0.271875,0 -0.815625,-0.13125 -0.984375,-0.96562495 C 1.0416,-1.4723938 1.0416,-2.2223938 1.0416,-2.6348938 c 0,-0.5531249 0,-1.1156249 0.084375,-1.546875 0.16875,-0.8156249 0.7875,-0.890625 0.984375,-0.890625 0.271875,0 0.825,0.13125 0.984375,0.8531251 0.09375,0.440625 0.09375,1.040625 0.09375,1.5843749 0,0.46875 0,1.1812501 -0.09375,1.63125 -0.16875,0.83437505 -0.721875,0.94687505 -0.984375,0.94687505 z m 0,0" style="fill:#121619;fill-opacity:1;fill-rule:nonzero;stroke:none" />
      <path id="path10" d="m 5.8580063,-0.44114375 c 0,-0.271875 -0.225,-0.440625 -0.440625,-0.440625 -0.253125,0 -0.45,0.20625 -0.45,0.43125 0,0.271875 0.225,0.45 0.4406249,0.45 0.2531251,0 0.4500001,-0.20625 0.4500001,-0.440625 z m 0,0" style="fill:#121619;fill-opacity:1;fill-rule:nonzero;stroke:none" />
      <path id="path11" d="m 7.7025375,-4.4817687 c 0.103125,0.0375 0.421875,0.1124999 0.759375,0.1124999 0.99375,0 1.6031255,-0.703125 1.6031255,-0.8156249 0,-0.09375 -0.05625,-0.1125 -0.1031255,-0.1125 -0.00938,0 -0.028125,0 -0.103125,0.0375 -0.309375,0.1218751 -0.675,0.2156251 -1.10625,0.2156251 -0.46875,0 -0.8625,-0.1218751 -1.10625,-0.2156251 -0.075,-0.0375 -0.09375,-0.0375 -0.103125,-0.0375 -0.103125,0 -0.103125,0.084375 -0.103125,0.2249999 v 2.334375 c 0,0.15 0,0.24375 0.13125,0.24375 0.05625,0 0.084375,-0.028125 0.121875,-0.09375 0.09375,-0.1218749 0.403125,-0.525 1.078125,-0.525 0.45,0 0.65625,0.3656251 0.73125,0.515625 0.140625,0.28125 0.15,0.65625 0.15,0.9656251 0,0.290625 -0.00937,0.72187495 -0.225,1.06874995 -0.159375,0.24375 -0.478125,0.4875 -0.9,0.4875 -0.515625,0 -1.021875,-0.328125 -1.209375,-0.84375 0.028125,0.009375 0.075,0.009375 0.084375,0.009375 0.225,0 0.39375,-0.14062505 0.39375,-0.39374995 0,-0.290625 -0.225,-0.3937501 -0.384375,-0.3937501 -0.15,0 -0.403125,0.075 -0.403125,0.421875 0,0.71250005 0.61875,1.44375005 1.5375,1.44375005 0.99375,0 1.8375005,-0.778125 1.8375005,-1.76249995 0,-0.928125 -0.6656255,-1.7437501 -1.6031255,-1.7437501 -0.403125,0 -0.778125,0.1218751 -1.078125,0.3937501 z m 0,0" style="fill:#121619;fill-opacity:1;fill-rule:nonzero;stroke:none" />
    </g>
    <g id="g11" aria-label="0.75" transform="matrix(1.6666667,0,0,1.6666667,329.10733,245.35633)">
      <path id="path12" d="m 3.8988813,-2.5411438 c 0,-0.853125 -0.09375,-1.36875 -0.35625,-1.884375 -0.346875,-0.703125 -0.99375,-0.8718749 -1.434375,-0.8718749 -1.003125,0 -1.36875005,0.75 -1.48125005,0.9656249 -0.28125,0.5812501 -0.3,1.3781251 -0.3,1.790625 0,0.5250001 0.01875,1.3312501 0.403125,1.96875005 0.36562505,0.590625 0.95625005,0.740625 1.37812505,0.740625 0.384375,0 1.06875,-0.121875 1.471875,-0.909375 0.290625,-0.57187495 0.31875,-1.28437505 0.31875,-1.80000005 z m -1.790625,2.48437505 c -0.271875,0 -0.815625,-0.13125 -0.984375,-0.96562495 -0.084375,-0.4500001 -0.084375,-1.2000001 -0.084375,-1.6125001 0,-0.5531249 0,-1.1156249 0.084375,-1.546875 0.16875,-0.8156249 0.7875,-0.890625 0.984375,-0.890625 0.271875,0 0.825,0.13125 0.984375,0.8531251 0.09375,0.440625 0.09375,1.040625 0.09375,1.5843749 0,0.46875 0,1.1812501 -0.09375,1.63125 -0.16875,0.83437505 -0.721875,0.94687505 -0.984375,0.94687505 z m 0,0" style="fill:#121619;fill-opacity:1;fill-rule:nonzero;stroke:none" />
      <path id="path13" d="m 5.8559125,-0.44114375 c 0,-0.271875 -0.225,-0.440625 -0.440625,-0.440625 -0.253125,0 -0.45,0.20625 -0.45,0.43125 0,0.271875 0.225,0.45 0.440625,0.45 0.253125,0 0.45,-0.20625 0.45,-0.440625 z m 0,0" style="fill:#121619;fill-opacity:1;fill-rule:nonzero;stroke:none" />
      <path id="path14" d="m 10.618413,-4.8567687 c 0.075,-0.084375 0.075,-0.103125 0.075,-0.2718751 H 8.6684125 c -0.196875,0 -0.45,-0.00937 -0.646875,-0.028125 -0.4125,-0.028125 -0.421875,-0.1031251 -0.45,-0.234375 h -0.24375 l -0.271875,1.6875 h 0.253125 c 0.00938,-0.121875 0.103125,-0.6750001 0.20625,-0.73125 0.09375,-0.046875 0.69375,-0.046875 0.80625,-0.046875 h 1.6968755 l -0.8250005,1.10625 c -0.909375,1.2093749 -1.096875,2.46562495 -1.096875,3.09374995 0,0.084375 0,0.45 0.375,0.45 0.375,0 0.375,-0.35625 0.375,-0.459375 v -0.375 c 0,-1.15312495 0.1875,-2.09062495 0.58125,-2.60624995 z m 1.317187,0.375 c 0.103125,0.0375 0.421875,0.1124999 0.759375,0.1124999 0.99375,0 1.603125,-0.703125 1.603125,-0.8156249 0,-0.09375 -0.05625,-0.1125 -0.103125,-0.1125 -0.0094,0 -0.02812,0 -0.103125,0.0375 -0.309375,0.1218751 -0.675,0.2156251 -1.10625,0.2156251 -0.46875,0 -0.8625,-0.1218751 -1.10625,-0.2156251 -0.075,-0.0375 -0.09375,-0.0375 -0.103125,-0.0375 -0.103125,0 -0.103125,0.084375 -0.103125,0.2249999 v 2.334375 c 0,0.15 0,0.24375 0.13125,0.24375 0.05625,0 0.08438,-0.028125 0.121875,-0.09375 0.09375,-0.1218749 0.403125,-0.525 1.078125,-0.525 0.45,0 0.65625,0.3656251 0.73125,0.515625 0.140625,0.28125 0.15,0.65625 0.15,0.9656251 0,0.290625 -0.0094,0.72187495 -0.225,1.06874995 -0.159375,0.24375 -0.478125,0.4875 -0.9,0.4875 -0.515625,0 -1.021875,-0.328125 -1.209375,-0.84375 0.02812,0.009375 0.075,0.009375 0.08437,0.009375 0.225,0 0.39375,-0.14062505 0.39375,-0.39374995 0,-0.290625 -0.225,-0.3937501 -0.384375,-0.3937501 -0.15,0 -0.403125,0.075 -0.403125,0.421875 0,0.71250005 0.61875,1.44375005 1.5375,1.44375005 0.99375,0 1.8375,-0.778125 1.8375,-1.76249995 0,-0.928125 -0.665625,-1.7437501 -1.603125,-1.7437501 -0.403125,0 -0.778125,0.1218751 -1.078125,0.3937501 z m 0,0" style="fill:#121619;fill-opacity:1;fill-rule:nonzero;stroke:none" />
    </g>
    <path id="path15" d="m 2.5033813,-5.0723938 c 0,-0.2156249 -0.01875,-0.2249999 -0.234375,-0.2249999 -0.328125,0.3187499 -0.75,0.5062499 -1.50000005,0.5062499 v 0.2625001 c 0.215625,0 0.63750005,0 1.10625005,-0.2156251 v 4.08750005 c 0,0.3 -0.028125,0.39375 -0.7875,0.39375 H 0.81588125 v 0.2625 c 0.32812505,-0.028125 1.01250005,-0.028125 1.36875005,-0.028125 0.35625,0 1.05,0 1.378125,0.028125 v -0.2625 h -0.28125 c -0.759375,0 -0.778125,-0.09375 -0.778125,-0.39375 z m 0,0" style="fill:#121619;fill-opacity:1;fill-rule:nonzero;stroke:none" aria-label="1" transform="matrix(1.6666667,0,0,1.6666667,385.37067,245.35633)" />
    <g id="g15" aria-label="0.25" transform="matrix(1.6666667,0,0,1.6666667,166.519,185.52633)">
      <path id="path16" d="m 3.9003188,-2.5400187 c 0,-0.853125 -0.09375,-1.36875 -0.35625,-1.884375 -0.346875,-0.703125 -0.99375,-0.871875 -1.434375,-0.871875 -1.003125,0 -1.36875005,0.75 -1.48125005,0.965625 -0.28125,0.58125 -0.3,1.378125 -0.3,1.790625 0,0.525 0.01875,1.33125 0.403125,1.96874995 0.36562505,0.590625 0.95625005,0.740625 1.37812505,0.740625 0.384375,0 1.06875,-0.121875 1.471875,-0.909375 0.290625,-0.57187495 0.31875,-1.28437495 0.31875,-1.79999995 z m -1.790625,2.48437495 c -0.271875,0 -0.815625,-0.13125 -0.984375,-0.96562495 -0.084375,-0.45 -0.084375,-1.2 -0.084375,-1.6125 0,-0.553125 0,-1.115625 0.084375,-1.546875 0.16875,-0.815625 0.7875,-0.890625 0.984375,-0.890625 0.271875,0 0.825,0.13125 0.984375,0.853125 0.09375,0.440625 0.09375,1.040625 0.09375,1.584375 0,0.46875 0,1.18125 -0.09375,1.63125 -0.16875,0.83437495 -0.721875,0.94687495 -0.984375,0.94687495 z m 0,0" style="fill:#121619;fill-opacity:1;fill-rule:nonzero;stroke:none" />
      <path id="path17" d="m 5.85735,-0.44001875 c 0,-0.271875 -0.225,-0.440625 -0.440625,-0.440625 -0.253125,0 -0.45,0.20625 -0.45,0.43125 0,0.271875 0.225,0.45 0.440625,0.45 0.253125,0 0.45,-0.20625 0.45,-0.440625 z m 0,0" style="fill:#121619;fill-opacity:1;fill-rule:nonzero;stroke:none" />
      <path id="path18" d="m 8.8362563,-1.6212687 c 0.121875,-0.121875 0.459375,-0.384375 0.590625,-0.496875 0.4875,-0.459375 0.9562497,-0.890625 0.9562497,-1.621875 0,-0.946875 -0.7968747,-1.55625 -1.7906247,-1.55625 -0.95625,0 -1.584375,0.721875 -1.584375,1.434375 0,0.384375 0.309375,0.440625 0.421875,0.440625 0.16875,0 0.4125,-0.1125 0.4125,-0.421875 0,-0.4125 -0.39375,-0.4125 -0.4875,-0.4125 0.225,-0.58125 0.759375,-0.778125 1.153125,-0.778125 0.740625,0 1.125,0.628125 1.125,1.29375 0,0.834375 -0.58125,1.434375 -1.528125,2.4 l -1.003125,1.04062495 c -0.09375,0.084375 -0.09375,0.103125 -0.09375,0.3 h 3.1499997 l 0.225,-1.42499995 h -0.24375 c -0.01875,0.159375 -0.08437,0.55312495 -0.1781247,0.70312495 -0.05625,0.065625 -0.65625,0.065625 -0.7875,0.065625 h -1.415625 z m 3.0984377,-2.859375 c 0.103125,0.0375 0.421875,0.1125 0.759375,0.1125 0.99375,0 1.603125,-0.703125 1.603125,-0.815625 0,-0.09375 -0.05625,-0.1125 -0.103125,-0.1125 -0.0094,0 -0.02813,0 -0.103125,0.0375 -0.309375,0.121875 -0.675,0.215625 -1.10625,0.215625 -0.46875,0 -0.8625,-0.121875 -1.10625,-0.215625 -0.075,-0.0375 -0.09375,-0.0375 -0.103125,-0.0375 -0.103125,0 -0.103125,0.084375 -0.103125,0.225 v 2.334375 c 0,0.15 0,0.24375 0.13125,0.24375 0.05625,0 0.08437,-0.028125 0.121875,-0.09375 0.09375,-0.121875 0.403125,-0.525 1.078125,-0.525 0.45,0 0.65625,0.365625 0.73125,0.515625 0.140625,0.28125 0.15,0.65625 0.15,0.965625 0,0.290625 -0.0094,0.72187495 -0.225,1.06874995 -0.159375,0.24375 -0.478125,0.4875 -0.9,0.4875 -0.515625,0 -1.021875,-0.328125 -1.209375,-0.84375 0.02812,0.009375 0.075,0.009375 0.08437,0.009375 0.225,0 0.39375,-0.14062495 0.39375,-0.39374995 0,-0.290625 -0.225,-0.39375 -0.384375,-0.39375 -0.15,0 -0.403125,0.075 -0.403125,0.421875 0,0.71249995 0.61875,1.44374995 1.5375,1.44374995 0.99375,0 1.8375,-0.778125 1.8375,-1.76249995 0,-0.928125 -0.665625,-1.74375 -1.603125,-1.74375 -0.403125,0 -0.778125,0.121875 -1.078125,0.39375 z m 0,0" style="fill:#121619;fill-opacity:1;fill-rule:nonzero;stroke:none" />
    </g>
    <g id="g18" aria-label="0.5" transform="matrix(1.6666667,0,0,1.6666667,173.57733,138.27967)">
      <path id="path19" d="m 3.900475,-2.539675 c 0,-0.853125 -0.09375,-1.36875 -0.35625,-1.884375 -0.346875,-0.703125 -0.99375,-0.871875 -1.434375,-0.871875 -1.003125,0 -1.36875,0.75 -1.48125,0.965625 -0.28125,0.58125 -0.3,1.378125 -0.3,1.790625 0,0.525 0.01875,1.33125 0.403125,1.96875 C 1.09735,0.0197 1.687975,0.1697 2.10985,0.1697 c 0.384375,0 1.06875,-0.121875 1.471875,-0.909375 0.290625,-0.571875 0.31875,-1.284375 0.31875,-1.8 z M 2.10985,-0.0553 c -0.271875,0 -0.815625,-0.13125 -0.984375,-0.965625 -0.084375,-0.45 -0.084375,-1.2 -0.084375,-1.6125 0,-0.553125 0,-1.115625 0.084375,-1.546875 0.16875,-0.815625 0.7875,-0.890625 0.984375,-0.890625 0.271875,0 0.825,0.13125 0.984375,0.853125 0.09375,0.440625 0.09375,1.040625 0.09375,1.584375 0,0.46875 0,1.18125 -0.09375,1.63125 C 2.925475,-0.1678 2.37235,-0.0553 2.10985,-0.0553 Z m 0,0" style="fill:#121619;fill-opacity:1;fill-rule:nonzero;stroke:none" />
      <path id="path20" d="m 5.8575063,-0.439675 c 0,-0.271875 -0.225,-0.440625 -0.440625,-0.440625 -0.253125,0 -0.45,0.20625 -0.45,0.43125 0,0.271875 0.225,0.45 0.440625,0.45 0.253125,0 0.45,-0.20625 0.45,-0.440625 z m 0,0" style="fill:#121619;fill-opacity:1;fill-rule:nonzero;stroke:none" />
      <path id="path21" d="m 7.7020375,-4.4803 c 0.103125,0.0375 0.421875,0.1125 0.759375,0.1125 0.99375,0 1.6031255,-0.703125 1.6031255,-0.815625 0,-0.09375 -0.05625,-0.1125 -0.1031255,-0.1125 -0.00938,0 -0.028125,0 -0.103125,0.0375 -0.309375,0.121875 -0.675,0.215625 -1.10625,0.215625 -0.46875,0 -0.8625,-0.121875 -1.10625,-0.215625 -0.075,-0.0375 -0.09375,-0.0375 -0.103125,-0.0375 -0.103125,0 -0.103125,0.084375 -0.103125,0.225 v 2.334375 c 0,0.15 0,0.24375 0.13125,0.24375 0.05625,0 0.084375,-0.028125 0.121875,-0.09375 0.09375,-0.121875 0.403125,-0.525 1.078125,-0.525 0.45,0 0.65625,0.365625 0.73125,0.515625 0.140625,0.28125 0.15,0.65625 0.15,0.965625 0,0.290625 -0.00938,0.721875 -0.225,1.06875 -0.159375,0.24375 -0.478125,0.4875 -0.9,0.4875 -0.515625,0 -1.021875,-0.328125 -1.209375,-0.84375 0.028125,0.009375 0.075,0.009375 0.084375,0.009375 0.225,0 0.39375,-0.140625 0.39375,-0.39375 0,-0.290625 -0.225,-0.39375 -0.384375,-0.39375 -0.15,0 -0.403125,0.075 -0.403125,0.421875 0,0.7125 0.61875,1.44375 1.5375,1.44375 0.99375,0 1.8375005,-0.778125 1.8375005,-1.7625 0,-0.928125 -0.6656255,-1.74375 -1.6031255,-1.74375 -0.403125,0 -0.778125,0.121875 -1.078125,0.39375 z m 0,0" style="fill:#121619;fill-opacity:1;fill-rule:nonzero;stroke:none" />
    </g>
    <g id="g21" aria-label="0.75" transform="matrix(1.6666667,0,0,1.6666667,166.519,91.034667)">
      <path id="path22" d="m 3.9003188,-2.5403313 c 0,-0.853125 -0.09375,-1.36875 -0.35625,-1.884375 -0.346875,-0.703125 -0.99375,-0.871875 -1.434375,-0.871875 -1.003125,0 -1.36875005,0.75 -1.48125005,0.965625 -0.28125,0.58125 -0.3,1.378125 -0.3,1.790625 0,0.525 0.01875,1.33125 0.403125,1.96875005 0.36562505,0.590625 0.95625005,0.740625 1.37812505,0.740625 0.384375,0 1.06875,-0.121875 1.471875,-0.909375 0.290625,-0.57187505 0.31875,-1.28437505 0.31875,-1.80000005 z m -1.790625,2.48437505 c -0.271875,0 -0.815625,-0.13125 -0.984375,-0.96562505 -0.084375,-0.45 -0.084375,-1.2 -0.084375,-1.6125 0,-0.553125 0,-1.115625 0.084375,-1.546875 0.16875,-0.815625 0.7875,-0.890625 0.984375,-0.890625 0.271875,0 0.825,0.13125 0.984375,0.853125 0.09375,0.440625 0.09375,1.040625 0.09375,1.584375 0,0.46875 0,1.18125 -0.09375,1.63125 -0.16875,0.83437505 -0.721875,0.94687505 -0.984375,0.94687505 z m 0,0" style="fill:#121619;fill-opacity:1;fill-rule:nonzero;stroke:none" />
      <path id="path23" d="m 5.85735,-0.44033125 c 0,-0.271875 -0.225,-0.440625 -0.440625,-0.440625 -0.253125,0 -0.45,0.20625 -0.45,0.43125 0,0.271875 0.225,0.45 0.440625,0.45 0.253125,0 0.45,-0.20625 0.45,-0.440625 z m 0,0" style="fill:#121619;fill-opacity:1;fill-rule:nonzero;stroke:none" />
      <path id="path24" d="m 10.617506,-4.8559563 c 0.075,-0.084375 0.075,-0.103125 0.075,-0.271875 H 8.6675063 c -0.196875,0 -0.45,-0.00937 -0.646875,-0.028125 -0.4125,-0.028125 -0.421875,-0.103125 -0.45,-0.234375 h -0.24375 l -0.271875,1.6875 h 0.253125 c 0.00937,-0.121875 0.103125,-0.675 0.20625,-0.73125 0.09375,-0.046875 0.69375,-0.046875 0.80625,-0.046875 h 1.6968747 l -0.8249997,1.10625 c -0.909375,1.209375 -1.096875,2.46562505 -1.096875,3.09375005 0,0.084375 0,0.45 0.375,0.45 0.375,0 0.375,-0.35625 0.375,-0.459375 v -0.375 c 0,-1.15312505 0.1875,-2.09062505 0.58125,-2.60625005 z m 1.317188,0.375 c 0.103125,0.0375 0.421875,0.1125 0.759375,0.1125 0.99375,0 1.603125,-0.703125 1.603125,-0.815625 0,-0.09375 -0.05625,-0.1125 -0.103125,-0.1125 -0.0094,0 -0.02813,0 -0.103125,0.0375 -0.309375,0.121875 -0.675,0.215625 -1.10625,0.215625 -0.46875,0 -0.8625,-0.121875 -1.10625,-0.215625 -0.075,-0.0375 -0.09375,-0.0375 -0.103125,-0.0375 -0.103125,0 -0.103125,0.084375 -0.103125,0.225 v 2.334375 c 0,0.15 0,0.24375 0.13125,0.24375 0.05625,0 0.08437,-0.028125 0.121875,-0.09375 0.09375,-0.121875 0.403125,-0.525 1.078125,-0.525 0.45,0 0.65625,0.365625 0.73125,0.515625 0.140625,0.28125 0.15,0.65625 0.15,0.965625 0,0.290625 -0.0094,0.72187505 -0.225,1.06875005 -0.159375,0.24375 -0.478125,0.4875 -0.9,0.4875 -0.515625,0 -1.021875,-0.328125 -1.209375,-0.84375 0.02812,0.009375 0.075,0.009375 0.08437,0.009375 0.225,0 0.39375,-0.14062505 0.39375,-0.39375005 0,-0.290625 -0.225,-0.39375 -0.384375,-0.39375 -0.15,0 -0.403125,0.075 -0.403125,0.421875 0,0.71250005 0.61875,1.44375005 1.5375,1.44375005 0.99375,0 1.8375,-0.778125 1.8375,-1.76250005 0,-0.928125 -0.665625,-1.74375 -1.603125,-1.74375 -0.403125,0 -0.778125,0.121875 -1.078125,0.39375 z m 0,0" style="fill:#121619;fill-opacity:1;fill-rule:nonzero;stroke:none" />
    </g>
    <path id="path25" d="m 2.5035375,-5.0712375 c 0,-0.215625 -0.01875,-0.225 -0.234375,-0.225 -0.328125,0.31875 -0.75,0.50625 -1.5,0.50625 v 0.2625 c 0.215625,0 0.6375,0 1.10625,-0.215625 v 4.0875 c 0,0.3 -0.028125,0.39375 -0.7875,0.39375 h -0.271875 v 0.2625 c 0.328125,-0.028125 1.0125,-0.028125 1.36875,-0.028125 0.35625,0 1.05,0 1.378125,0.028125 v -0.2625 h -0.28125 c -0.759375,0 -0.778125,-0.09375 -0.778125,-0.39375 z m 0,0" style="fill:#121619;fill-opacity:1;fill-rule:nonzero;stroke:none" aria-label="1" transform="matrix(1.6666667,0,0,1.6666667,184.554,43.788)" />
    <path id="path26" d="M 56.69577,0 V 56.69577" style="fill:none;stroke:#121619;stroke-width:0.3985;stroke-linecap:butt;stroke-linejoin:miter;stroke-miterlimit:10;stroke-dasharray:0.3985, 0.99628;stroke-dashoffset:0;stroke-opacity:1" transform="matrix(1.6666667,0,0,-1.6666667,199.914,228.493)" />
    <path id="path27" d="M 0,0 1.14523,0.03445 2.2905,0.13692 3.43575,0.306 4.58101,0.54025 5.72626,0.8383 l 1.14526,0.36046 1.14525,0.42145 1.14526,0.48103 1.14525,0.53922 1.14527,0.59601 1.14525,0.65136 1.14526,0.70539 1.14524,0.75793 1.14527,0.80915 1.14525,0.85888 1.14526,0.90727 1.14525,0.95425 1.14527,0.99982 1.14523,1.04398 1.14526,1.08675 1.14525,1.12811 1.14526,1.16807 1.14525,1.20664 1.14526,1.24379 1.14525,1.27955 1.14527,1.31389 1.14525,1.34687 1.14526,1.3784 1.14525,1.40857 1.14526,1.4373 1.14525,1.46463 1.14526,1.4906 1.14525,1.51511 1.14526,1.53825 1.14525,1.56004 1.14527,1.58033 1.14523,1.5993 1.14526,1.61676 1.14527,1.63298 1.14525,1.64764 1.14526,1.66095 1.14525,1.67295 1.14526,1.68339 1.14525,1.6926 1.14526,1.70023 1.14525,1.70655 1.14527,1.71154 1.14524,1.71498 1.14527,1.71716 1.14525,1.71779 1.14526,1.7171 1.14525,1.71506 1.14526,1.71152 1.14525,1.7067 1.14526,1.70031 1.14524,1.69255 1.14526,1.68361 1.14525,1.67299 1.14526,1.66111 1.14525,1.64779 1.14527,1.63304 1.14524,1.61706 1.14527,1.59935 1.14525,1.58063 1.14526,1.56018 1.14525,1.53856 1.14526,1.51527 1.14525,1.4908 1.14526,1.46501 1.14525,1.43747 1.14527,1.40887 1.14524,1.37881 1.14527,1.34715 1.14523,1.31418 1.14526,1.27991 1.14527,1.24415 1.14525,1.20697 1.14526,1.16847 1.14525,1.12846 1.14526,1.08729 1.14525,1.04433 1.14526,1.00036 1.14525,0.9547 1.14527,0.90758 1.14525,0.85951 1.14526,0.80954 1.14524,0.75859 1.14527,0.70575 1.14525,0.6519 1.14526,0.59672 1.14525,0.53971 1.14525,0.4816 1.14525,0.42207 1.14526,0.36119 1.14525,0.29856 1.14526,0.2348 1.14525,0.16987 1.14527,0.10303 1.14524,0.0351" style="fill:none;stroke:#0f62fe;stroke-width:0.79701;stroke-linecap:butt;stroke-linejoin:miter;stroke-miterlimit:10;stroke-dasharray:none;stroke-opacity:1" transform="matrix(1.6666667,0,0,-1.6666667,199.914,228.493)" />
    <path id="path28" d="m 0,0 1.14523,1.14523 1.14527,1.14527 1.14525,1.14525 1.14526,1.14526 1.14525,1.14525 1.14526,1.14526 1.14525,1.14525 1.14526,1.14526 1.14525,1.14525 1.14527,1.14527 1.14525,1.14525 1.14526,1.14526 1.14524,1.14524 1.14527,1.14527 1.14525,1.14525 1.14526,1.14526 1.14525,1.14525 1.14527,1.14527 1.14523,1.14523 1.14526,1.14526 1.14525,1.14525 1.14526,1.14526 1.14525,1.14525 1.14526,1.14526 1.14525,1.14525 1.14527,1.14527 1.14525,1.14525 1.14526,1.14526 1.14525,1.14525 1.14526,1.14526 1.14525,1.14525 1.14526,1.14526 1.14525,1.14525 1.14526,1.14526 1.14525,1.14525 1.14527,1.14527 1.14523,1.14523 1.14526,1.14526 1.14527,1.14527 1.14525,1.14525 1.14526,1.14526 1.14525,1.14525 1.14526,1.14526 1.14525,1.14525 1.14526,1.14526 1.14525,1.14525 1.14527,1.14527 1.14524,1.14524 1.14527,1.14527 1.14525,1.14525 1.14526,1.14526 1.14525,1.14525 1.14526,1.14526 1.14525,1.14525 1.14526,1.14526 1.14524,1.14524 1.14526,1.14526 1.14525,1.14525 1.14526,1.14526 1.14525,1.14525 1.14527,1.14527 1.14524,1.14524 1.14527,1.14527 1.14525,1.14525 1.14526,1.14526 1.14525,1.14525 1.14526,1.14526 1.14525,1.14525 1.14526,1.14526 1.14525,1.14525 1.14527,1.14527 1.14524,1.14524 1.14527,1.14527 1.14523,1.14523 1.14526,1.14526 1.14527,1.14527 1.14525,1.14525 1.14526,1.14526 1.14525,1.14525 1.14526,1.14526 1.14525,1.14525 1.14526,1.14526 1.14525,1.14525 1.14527,1.14527 1.14525,1.14525 1.14526,1.14526 1.14524,1.14524 1.14527,1.14527 1.14525,1.14525 1.14526,1.14526 1.14525,1.14525 1.14525,1.14525 1.14525,1.14525 1.14526,1.14526 1.14525,1.14525 1.14526,1.14526 1.14525,1.14525 1.14527,1.14527 1.14524,1.14524" style="fill:none;stroke:#8a3ffc;stroke-width:0.79701;stroke-linecap:butt;stroke-linejoin:miter;stroke-miterlimit:10;stroke-dasharray:none;stroke-opacity:1" transform="matrix(1.6666667,0,0,-1.6666667,199.914,228.493)" />
    <path id="path29" d="M 0.41135,0.96466875 C 0.345725,1.2177937 0.33635,1.2834188 0.0176,1.2834188 c -0.1125,0 -0.20625,0 -0.20625,0.15 0,0.075 0.065625,0.1124999 0.103125,0.1124999 0.084375,0 0.1125,-0.028125 0.703125,-0.028125 0.58125,0 0.740625,0.028125 0.796875,0.028125 0.0375,0 0.15,0 0.15,-0.1499999 0,-0.1125 -0.103125,-0.1125 -0.20625,-0.1125 -0.375,0 -0.375,-0.046875 -0.375,-0.121875 0,-0.05625 0.140625,-0.61875005 0.375,-1.55625005 0.103125,0.1875 0.35625,0.478125 0.7875,0.478125 0.975,0 1.996875,-1.13437495 1.996875,-2.28750005 0,-0.796875 -0.50625,-1.3125 -1.14375,-1.3125 -0.478125,0 -0.8625,0.328125 -1.096875,0.5625 -0.16875,-0.5625 -0.703125,-0.5625 -0.778125,-0.5625 -0.290625,0 -0.4875,0.1875 -0.61875,0.4312501 -0.178125,0.35625 -0.2625,0.76875 -0.2625,0.7874999 0,0.075 0.046875,0.1031251 0.1125,0.1031251 0.103125,0 0.1125,-0.028125 0.16875,-0.234375 0.103125,-0.4125 0.24375,-0.8625 0.571875,-0.8625 0.20625,0 0.2625,0.178125 0.2625,0.375 0,0.075 -0.0375,0.271875 -0.05625,0.3374999 z M 1.883225,-2.4572062 c 0.0375,-0.13125 0.0375,-0.15 0.159375,-0.290625 0.3,-0.365625 0.6375,-0.54375 0.928125,-0.54375 0.403125,0 0.553125,0.39375 0.553125,0.75 0,0.2906249 -0.178125,1.14375 -0.4125,1.61249995 -0.215625,0.43125 -0.590625,0.7875 -0.965625,0.7875 -0.54375,0 -0.675,-0.628125 -0.675,-0.684375 0,-0.009375 0.01875,-0.103125 0.028125,-0.121875 z m 0,0" style="fill:#121619;fill-opacity:1;fill-rule:nonzero;stroke:none" aria-label="p" transform="matrix(1.6666667,0,0,1.6666667,290.84567,267.318)" />
    <path id="path30" d="m 3.5073625,-1.744275 c 0,-0.365625 -0.0375,-0.9 -0.346875,-1.359375 -0.290625,-0.403125 -0.76875,-0.553125 -1.1625,-0.553125 -0.965625,0 -1.715625,0.853125 -1.715625,1.865625 0,1.021875 0.796875,1.875 1.846875,1.875 0.459375,0 0.9375,-0.140625 1.35,-0.384375 L 3.4323625,-0.8724 c -0.45,0.31875 -0.95625,0.421875 -1.29375,0.421875 -0.69375,0 -1.21875,-0.5625 -1.246875,-1.29375 z m -0.4875,-0.478125 h -2.071875 c 0.1875,-0.6375 0.65625,-0.909375 1.05,-0.909375 0.35625,0 0.871875,0.16875 1.021875,0.909375 z m 3.5085937,-0.80625 v -0.590625 c -0.665625,0.00937 -1.1531249,0.3375 -1.471875,0.759375 V -3.59115 H 4.4378313 V -5.25e-4 H 5.1128312 V -1.6974 c 0,-0.8625 0.7125,-1.321875 1.415625,-1.33125 z m 2.8921875,0 v -0.590625 c -0.665625,0.00937 -1.153125,0.3375 -1.471875,0.759375 v -0.73125 h -0.61875 v 3.590625 h 0.675 V -1.6974 c 0,-0.8625 0.7125,-1.321875 1.415625,-1.33125 z m 4.1109373,1.284375 c 0,-1.05 -0.834375,-1.9125 -1.875,-1.9125 -1.03125,0 -1.8656248,0.8625 -1.8656248,1.9125 0,1.0125 0.8437498,1.828125 1.8656248,1.828125 1.040625,0 1.875,-0.815625 1.875,-1.828125 z m -0.69375,-0.09375 c 0,0.909375 -0.5625,1.36875 -1.18125,1.36875 -0.628125,0 -1.18125,-0.459375 -1.18125,-1.36875 0,-0.9 0.590625,-1.29375 1.18125,-1.29375 0.6,0 1.18125,0.4125 1.18125,1.29375 z m 3.478125,-1.190625 v -0.590625 c -0.665625,0.00937 -1.153125,0.3375 -1.471875,0.759375 v -0.73125 h -0.61875 v 3.590625 h 0.675 V -1.6974 c 0,-0.8625 0.7125,-1.321875 1.415625,-1.33125 z m 7.017188,1.246875 c 0,-0.95625 -0.525,-1.8375 -1.3125,-1.8375 -0.35625,0 -0.95625,0.103125 -1.415625,0.459375 v -0.375 h -0.675 v 5.08125 h 0.69375 v -1.921875 c 0.421875,0.384375 0.88125,0.459375 1.153125,0.459375 0.84375,0 1.55625,-0.80625 1.55625,-1.865625 z m -0.69375,0 c 0,0.796875 -0.590625,1.33125 -1.21875,1.33125 -0.121875,0 -0.31875,-0.009375 -0.525,-0.178125 -0.234375,-0.1875 -0.271875,-0.3 -0.271875,-0.459375 v -1.55625 c 0.1875,-0.225 0.496875,-0.421875 0.88125,-0.421875 0.6375,0 1.134375,0.590625 1.134375,1.284375 z m 3.527343,-1.246875 v -0.590625 c -0.665624,0.00937 -1.153125,0.3375 -1.471875,0.759375 v -0.73125 h -0.61875 v 3.590625 h 0.675001 V -1.6974 c 0,-0.8625 0.712499,-1.321875 1.415624,-1.33125 z m 4.110938,1.284375 c 0,-1.05 -0.834375,-1.9125 -1.875,-1.9125 -1.03125,0 -1.865625,0.8625 -1.865625,1.9125 0,1.0125 0.84375,1.828125 1.865625,1.828125 1.040625,0 1.875,-0.815625 1.875,-1.828125 z m -0.69375,-0.09375 c 0,0.909375 -0.5625,1.36875 -1.18125,1.36875 -0.628125,0 -1.18125,-0.459375 -1.18125,-1.36875 0,-0.9 0.590625,-1.29375 1.18125,-1.29375 0.6,0 1.18125,0.4125 1.18125,1.29375 z m 5.020312,0.05625 c 0,-0.95625 -0.54375,-1.8375 -1.340625,-1.8375 -0.50625,0 -0.993749,0.159375 -1.387499,0.459375 v -2.371875 h -0.675001 v 5.53125 h 0.693751 v -0.375 c 0.178124,0.15 0.5625,0.459375 1.143749,0.459375 0.8625,0 1.565625,-0.815625 1.565625,-1.865625 z m -0.693749,0 c 0,0.975 -0.65625,1.33125 -1.21875,1.33125 -0.290626,0 -0.571876,-0.13125 -0.796875,-0.4875 v -1.575 c 0,-0.121875 0,-0.225 0.28125,-0.403125 0.121875,-0.075 0.337499,-0.178125 0.609375,-0.178125 0.534374,0 1.125,0.35625 1.125,1.3125 z m 4.469531,1.78125 V -2.2974 c 0,-0.815625 -0.628125,-1.359375 -1.415625,-1.359375 -0.496875,0 -0.88125,0.103125 -1.33125,0.3375 l 0.04687,0.58125 c 0.2625,-0.16875 0.65625,-0.4125 1.284375,-0.4125 0.35625,0 0.721875,0.2625 0.721875,0.8625 v 0.31875 c -1.18125,0.0375 -2.34375,0.290625 -2.34375,1.03125 0,0.39375 0.271875,1.021875 0.965625,1.021875 0.346875,0 0.975,-0.075 1.396875,-0.384375 v 0.3 z M 37.686269,-1.1349 c 0,0.159375 0,0.365625 -0.28125,0.534375 -0.253125,0.15 -0.5625,0.15 -0.65625,0.15 -0.440625,0 -0.76875,-0.196875 -0.76875,-0.496875 0,-0.515625 1.340625,-0.5625 1.70625,-0.571875 z m 5.357812,-0.646875 c 0,-0.95625 -0.54375,-1.8375 -1.340625,-1.8375 -0.50625,0 -0.99375,0.159375 -1.3875,0.459375 v -2.371875 h -0.675 v 5.53125 h 0.69375 v -0.375 c 0.178125,0.15 0.5625,0.459375 1.14375,0.459375 0.8625,0 1.565625,-0.815625 1.565625,-1.865625 z m -0.69375,0 c 0,0.975 -0.65625,1.33125 -1.21875,1.33125 -0.290625,0 -0.571875,-0.13125 -0.796875,-0.4875 v -1.575 c 0,-0.121875 0,-0.225 0.28125,-0.403125 0.121875,-0.075 0.3375,-0.178125 0.609375,-0.178125 0.534375,0 1.125,0.35625 1.125,1.3125 z m 2.332032,1.78125 V -3.5349 h -0.675001 v 3.534375 z m 0.06562,-4.4625 v -0.80625 h -0.796874 v 0.80625 z m 1.950001,4.4625 v -5.53125 h -0.675001 v 5.53125 z m 2.017968,0 V -3.5349 h -0.675 v 3.534375 z m 0.06563,-4.4625 v -0.80625 h -0.796875 v 0.80625 z m 3.43125,4.246875 -0.140625,-0.50625 c -0.2625,0.1875 -0.534375,0.253125 -0.759375,0.253125 -0.3375,0 -0.421875,-0.328125 -0.421875,-0.69375 v -1.875 h 1.18125 V -3.5349 h -1.18125 v -1.0125 h -0.61875 v 1.0125 h -0.721875 v 0.496875 h 0.703125 V -1.0224 c 0,0.534375 0.13125,1.10625 0.703125,1.10625 0.58125,0 1.0125,-0.1875 1.25625,-0.3 z m 3.778125,-3.31875 h -0.646875 c -0.646875,1.51875 -1.0875,2.55 -1.125,3.028125 -0.0094,-0.215625 -0.159375,-0.61875 -0.3,-0.99375 -0.13125,-0.31875 -0.253125,-0.6375 -0.403125,-0.946875 l -0.496875,-1.0875 h -0.684375 l 1.65,3.534375 -0.309375,0.703125 c -0.159375,0.3375 -0.271875,0.440625 -0.4875,0.440625 -0.0375,0 -0.328125,0 -0.675,-0.140625 l 0.04687,0.5625 c 0.075,0.00938 0.375,0.05625 0.61875,0.05625 0.31875,0 0.6,-0.1125 0.9375,-0.88125 z m 0,0" style="fill:#121619;fill-opacity:1;fill-rule:nonzero;stroke:none" aria-label="errorprobability" transform="matrix(0,-1.6666667,1.6666667,0,145.204,180.75967)" />
    <path id="path31" d="M 96.57317,45.55516 H 161.1317 V 71.3298 H 96.57317 Z" style="fill:#ffffff;fill-opacity:1;fill-rule:nonzero;stroke:none" transform="matrix(1.6666667,0,0,-1.6666667,199.914,228.493)" />
    <path id="path32" d="m 0,0 h 8.50412 8.50414" style="fill:none;stroke:#0f62fe;stroke-width:0.79701;stroke-linecap:butt;stroke-linejoin:miter;stroke-miterlimit:10;stroke-dasharray:none;stroke-opacity:1" transform="matrix(1.6666667,0,0,-1.6666667,366.51567,123.91133)" />
    <g id="g32" aria-label="3p&#10;2&#10;−2p&#10;3" transform="matrix(1.6666667,0,0,1.6666667,402.53733,129.57967)">
      <path id="path33" d="m 2.0166625,-2.663425 c 0.628125,0 1.03125,0.459375 1.03125,1.303125 0,0.99375 -0.571875,1.284375 -0.99375,1.284375 -0.43125,0 -1.03125,-0.159375 -1.3125,-0.58125 0.290625,0 0.4875,-0.178125 0.4875,-0.440625 0,-0.2625 -0.1875,-0.440625 -0.440625,-0.440625 -0.215625,0 -0.440625,0.13125 -0.440625,0.45 0,0.759375 0.815625,1.25625 1.725,1.25625 1.059375,0 1.8,-0.73125 1.8,-1.528125 0,-0.665625 -0.525,-1.275 -1.340625,-1.44375 0.628125,-0.225 1.10625,-0.76875 1.10625,-1.40625 0,-0.6375 -0.721875,-1.0875 -1.546875,-1.0875 -0.853125,0 -1.5,0.459375 -1.5,1.06875 0,0.290625 0.196875,0.421875 0.403125,0.421875 0.253125,0 0.4125,-0.178125 0.4125,-0.4125 0,-0.290625 -0.2625,-0.403125 -0.43125,-0.4125 0.328125,-0.440625 0.946875,-0.459375 1.0875,-0.459375 0.20625,0 0.815625,0.065625 0.815625,0.88125 0,0.5625 -0.234375,0.890625 -0.346875,1.021875 -0.234375,0.24375 -0.421875,0.2625 -0.909375,0.290625 -0.15,0.00938 -0.215625,0.01875 -0.215625,0.121875 0,0.1125 0.075,0.1125 0.215625,0.1125 z m 0,0" style="fill:#121619;fill-opacity:1;fill-rule:nonzero;stroke:none" />
      <path id="path34" d="m 4.64635,0.9647 c -0.065625,0.253125 -0.075,0.31875 -0.39375,0.31875 -0.1125,0 -0.20625,0 -0.20625,0.15 0,0.075 0.065625,0.1125 0.103125,0.1125 0.084375,0 0.1125,-0.028125 0.703125,-0.028125 0.58125,0 0.740625,0.028125 0.796875,0.028125 0.0375,0 0.15,0 0.15,-0.15 0,-0.1125 -0.103125,-0.1125 -0.20625,-0.1125 -0.375,0 -0.375,-0.046875 -0.375,-0.121875 0,-0.05625 0.140625,-0.61875 0.375,-1.55625 0.103125,0.1875 0.35625,0.478125 0.7875,0.478125 0.975,0 1.996875,-1.134375 1.996875,-2.2875 0,-0.796875 -0.50625,-1.3125 -1.14375,-1.3125 -0.478125,0 -0.8625,0.328125 -1.096875,0.5625 -0.16875,-0.5625 -0.703125,-0.5625 -0.778125,-0.5625 -0.290625,0 -0.4875,0.1875 -0.61875,0.43125 -0.178125,0.35625 -0.2625,0.76875 -0.2625,0.7875 0,0.075 0.046875,0.103125 0.1125,0.103125 0.103125,0 0.1125,-0.028125 0.16875,-0.234375 0.103125,-0.4125 0.24375,-0.8625 0.571875,-0.8625 0.20625,0 0.2625,0.178125 0.2625,0.375 0,0.075 -0.0375,0.271875 -0.05625,0.3375 z m 1.471875,-3.421875 c 0.0375,-0.13125 0.0375,-0.15 0.159375,-0.290625 0.3,-0.365625 0.6375,-0.54375 0.928125,-0.54375 0.403125,0 0.553125,0.39375 0.553125,0.75 0,0.290625 -0.178125,1.14375 -0.4125,1.6125 -0.215625,0.43125 -0.590625,0.7875 -0.965625,0.7875 -0.54375,0 -0.675,-0.628125 -0.675,-0.684375 0,-0.009375 0.01875,-0.103125 0.028125,-0.121875 z m 0,0" style="fill:#121619;fill-opacity:1;fill-rule:nonzero;stroke:none" />
      <path id="path35" d="m 11.712756,-5.2603 h -0.215625 c -0.01875,0.084375 -0.075,0.478125 -0.16875,0.54375 -0.0375,0.0375 -0.525,0.0375 -0.609375,0.0375 H 9.6033813 l 0.7687497,-0.628125 c 0.196875,-0.159375 0.73125,-0.54375 0.91875,-0.721875 0.178125,-0.178125 0.421875,-0.4875 0.421875,-0.909375 0,-0.75 -0.675,-1.18125 -1.471875,-1.18125 -0.7781247,0 -1.3124997,0.50625 -1.3124997,1.06875 0,0.3 0.253125,0.3375 0.3187499,0.3375 0.1500001,0 0.328125,-0.103125 0.328125,-0.31875 0,-0.13125 -0.075,-0.328125 -0.3468749,-0.328125 0.140625,-0.3 0.50625,-0.525 0.9187497,-0.525 0.628125,0 0.965625,0.459375 0.965625,0.946875 0,0.421875 -0.28125,0.8625 -0.703125,1.246875 L 8.9940063,-4.3978 c -0.05625,0.065625 -0.065625,0.065625 -0.065625,0.253125 h 2.5968747 z m 0,0" style="fill:#121619;fill-opacity:1;fill-rule:nonzero;stroke:none" />
      <path id="path36" d="m 19.444787,-2.4478 h -4.303124 v 0.50625 h 4.303124 z m 0,0" style="fill:#121619;fill-opacity:1;fill-rule:nonzero;stroke:none" />
      <path id="path37" d="m 24.179162,-1.6228 c 0.121875,-0.121875 0.459376,-0.384375 0.590625,-0.496875 0.4875,-0.459375 0.95625,-0.890625 0.95625,-1.621875 0,-0.946875 -0.796875,-1.55625 -1.790624,-1.55625 -0.956251,0 -1.584376,0.721875 -1.584376,1.434375 0,0.384375 0.309375,0.440625 0.421875,0.440625 0.16875,0 0.412501,-0.1125 0.412501,-0.421875 0,-0.4125 -0.393751,-0.4125 -0.487501,-0.4125 0.225001,-0.58125 0.759375,-0.778125 1.153125,-0.778125 0.740626,0 1.125,0.628125 1.125,1.29375 0,0.834375 -0.58125,1.434375 -1.528125,2.4 l -1.003125,1.040625 c -0.09375,0.084375 -0.09375,0.103125 -0.09375,0.3 h 3.150001 l 0.224999,-1.425 h -0.243749 c -0.01875,0.159375 -0.08438,0.553125 -0.178126,0.703125 -0.05625,0.065625 -0.65625,0.065625 -0.787499,0.065625 h -1.415626 z m 0,0" style="fill:#121619;fill-opacity:1;fill-rule:nonzero;stroke:none" />
      <path id="path38" d="m 26.574475,0.9647 c -0.06563,0.253125 -0.075,0.31875 -0.39375,0.31875 -0.1125,0 -0.20625,0 -0.20625,0.15 0,0.075 0.06562,0.1125 0.103125,0.1125 0.08438,0 0.1125,-0.028125 0.703125,-0.028125 0.58125,0 0.740625,0.028125 0.796875,0.028125 0.0375,0 0.15,0 0.15,-0.15 0,-0.1125 -0.103125,-0.1125 -0.20625,-0.1125 -0.375,0 -0.375,-0.046875 -0.375,-0.121875 0,-0.05625 0.140625,-0.61875 0.375,-1.55625 0.103125,0.1875 0.35625,0.478125 0.7875,0.478125 0.975,0 1.996875,-1.134375 1.996875,-2.2875 0,-0.796875 -0.50625,-1.3125 -1.14375,-1.3125 -0.478125,0 -0.8625,0.328125 -1.096875,0.5625 -0.16875,-0.5625 -0.703125,-0.5625 -0.778125,-0.5625 -0.290625,0 -0.4875,0.1875 -0.61875,0.43125 -0.178125,0.35625 -0.2625,0.76875 -0.2625,0.7875 0,0.075 0.04687,0.103125 0.1125,0.103125 0.103125,0 0.1125,-0.028125 0.16875,-0.234375 0.103125,-0.4125 0.24375,-0.8625 0.571875,-0.8625 0.20625,0 0.2625,0.178125 0.2625,0.375 0,0.075 -0.0375,0.271875 -0.05625,0.3375 z m 1.471875,-3.421875 c 0.0375,-0.13125 0.0375,-0.15 0.159375,-0.290625 0.3,-0.365625 0.6375,-0.54375 0.928125,-0.54375 0.403125,0 0.553125,0.39375 0.553125,0.75 0,0.290625 -0.178125,1.14375 -0.4125,1.6125 -0.215625,0.43125 -0.590625,0.7875 -0.965625,0.7875 -0.54375,0 -0.675,-0.628125 -0.675,-0.684375 0,-0.009375 0.01875,-0.103125 0.02813,-0.121875 z m 0,0" style="fill:#121619;fill-opacity:1;fill-rule:nonzero;stroke:none" />
      <path id="path39" d="m 32.187756,-6.132175 c 0.50625,0 0.84375,0.346875 0.84375,0.95625 0,0.65625 -0.39375,0.9375 -0.834375,0.9375 -0.159375,0 -0.76875,-0.028125 -1.040625,-0.375 0.234375,-0.028125 0.328125,-0.1875 0.328125,-0.346875 0,-0.196875 -0.140625,-0.3375 -0.3375,-0.3375 -0.16875,0 -0.346875,0.103125 -0.346875,0.35625 0,0.590625 0.65625,0.91875 1.415625,0.91875 0.890625,0 1.48125,-0.5625 1.48125,-1.153125 0,-0.440625 -0.3375,-0.9 -1.05,-1.078125 0.478125,-0.159375 0.8625,-0.54375 0.8625,-1.03125 0,-0.478125 -0.5625,-0.834375 -1.284375,-0.834375 -0.703125,0 -1.228125,0.31875 -1.228125,0.80625 0,0.2625 0.196875,0.3375 0.309375,0.3375 0.159375,0 0.31875,-0.1125 0.31875,-0.31875 0,-0.1875 -0.13125,-0.290625 -0.290625,-0.31875 0.28125,-0.309375 0.825,-0.309375 0.88125,-0.309375 0.3,0 0.684375,0.140625 0.684375,0.6375 0,0.328125 -0.1875,0.9 -0.778125,0.9375 -0.1125,0.00938 -0.271875,0.01875 -0.328125,0.01875 -0.05625,0.00937 -0.121875,0.00937 -0.121875,0.103125 0,0.09375 0.06563,0.09375 0.16875,0.09375 z m 0,0" style="fill:#121619;fill-opacity:1;fill-rule:nonzero;stroke:none" />
    </g>
    <path id="path40" d="m 0,0 h 8.50412 8.50414" style="fill:none;stroke:#8a3ffc;stroke-width:0.79701;stroke-linecap:butt;stroke-linejoin:miter;stroke-miterlimit:10;stroke-dasharray:none;stroke-opacity:1" transform="matrix(1.6666667,0,0,-1.6666667,366.51567,142.06967)" />
    <path id="path41" d="m 0.4135375,0.96598125 c -0.065625,0.25312495 -0.075,0.31874995 -0.39375,0.31874995 -0.1125,0 -0.20625,0 -0.20625,0.15 0,0.075 0.065625,0.1125 0.103125,0.1125 0.084375,0 0.1125,-0.028125 0.703125,-0.028125 0.58125,0 0.740625,0.028125 0.796875,0.028125 0.0375,0 0.15,0 0.15,-0.15 0,-0.1125 -0.103125,-0.1125 -0.20625,-0.1125 -0.375,0 -0.375,-0.046875 -0.375,-0.121875 0,-0.05625 0.140625,-0.61874995 0.375,-1.55624995 0.103125,0.1875 0.35625,0.478125 0.7875,0.478125 0.975,0 1.996875,-1.13437505 1.996875,-2.28750005 0,-0.796875 -0.50625,-1.3125 -1.14375,-1.3125 -0.478125,0 -0.8625,0.328125 -1.096875,0.5625 -0.16875,-0.5625 -0.703125,-0.5625 -0.778125,-0.5625 -0.290625,0 -0.4875,0.1875 -0.61875,0.43125 -0.178125,0.35625 -0.2625,0.76875 -0.2625,0.7875 0,0.075 0.046875,0.103125 0.1125,0.103125 0.103125,0 0.1125,-0.028125 0.16875,-0.234375 0.103125,-0.4125 0.24375,-0.8625 0.571875,-0.8625 0.20625,0 0.2625,0.178125 0.2625,0.375 0,0.075 -0.0375,0.271875 -0.05625,0.3375 z m 1.471875,-3.42187505 c 0.0375,-0.13125 0.0375,-0.15 0.159375,-0.290625 0.3,-0.365625 0.6375,-0.54375 0.928125,-0.54375 0.403125,0 0.553125,0.39375 0.553125,0.75 0,0.290625 -0.178125,1.14375 -0.4125,1.61250005 -0.215625,0.43125 -0.590625,0.7875 -0.965625,0.7875 -0.54375,0 -0.675,-0.628125 -0.675,-0.684375 0,-0.009375 0.01875,-0.103125 0.028125,-0.121875 z m 0,0" style="fill:#121619;fill-opacity:1;fill-rule:nonzero;stroke:none" aria-label="p" transform="matrix(1.6666667,0,0,1.6666667,402.53733,143.933)" />
  </g>
</svg>