<?xml version='1.0' encoding='utf-8'?>
<svg xmlns="http://www.w3.org/2000/svg" xmlns:ns1="http://sodipodi.sourceforge.net/DTD/sodipodi-0.dtd" xmlns:ns2="http://www.inkscape.org/namespaces/inkscape" version="1.1" id="svg1" width="100%" height="auto" viewBox="-20.0 -20.0 396.6272 197.08482" ns1:docname="svg_fix_XXXXXX.svg">
  <rect id="path1" x="-20.0" y="-20.0" width="396.6272" height="197.08482" fill="white" /><ns1:namedview id="namedview1" pagecolor="#ffffff" bordercolor="#000000" borderopacity="0.25" ns2:showpageshadow="2" ns2:pageopacity="0.0" ns2:pagecheckerboard="0" ns2:deskcolor="#d1d1d1" />
  <defs id="defs1" />
  <g id="g1" transform="translate(-121.69848,-31.453898)">
    <path id="path2" d="m 59.52812,-28.3467 h 17.00806 v 17.00806 H 59.52812 Z" style="fill:#000000;fill-opacity:1;fill-rule:nonzero;stroke:#000000;stroke-width:0.3985;stroke-linecap:butt;stroke-linejoin:miter;stroke-miterlimit:10;stroke-dasharray:none;stroke-opacity:1" transform="matrix(1.6666667,0,0,-1.6666667,282.29533,107.891)" />
    <path id="path3" d="m 59.52812,-48.18938 h 17.00806 v 17.00806 H 59.52812 Z" style="fill:#000000;fill-opacity:1;fill-rule:nonzero;stroke:#000000;stroke-width:0.3985;stroke-linecap:butt;stroke-linejoin:miter;stroke-miterlimit:10;stroke-dasharray:none;stroke-opacity:1" transform="matrix(1.6666667,0,0,-1.6666667,282.29533,107.891)" />
    <path id="path4" d="m 73.70143,-22.39377 c 0,3.13112 -2.53822,5.66936 -5.66934,5.66936 -3.13113,0 -5.66936,-2.53824 -5.66936,-5.66936" style="fill:none;stroke:#ffffff;stroke-width:0.79701;stroke-linecap:butt;stroke-linejoin:miter;stroke-miterlimit:10;stroke-dasharray:none;stroke-opacity:1" transform="matrix(1.6666667,0,0,-1.6666667,282.29533,107.891)" />
    <path id="path5" d="m 68.03217,-22.11044 5.66926,4.81889" style="fill:none;stroke:#ffffff;stroke-width:0.79701;stroke-linecap:butt;stroke-linejoin:miter;stroke-miterlimit:10;stroke-dasharray:none;stroke-opacity:1" transform="matrix(1.6666667,0,0,-1.6666667,282.29533,107.891)" />
    <path id="path6" d="m 68.88255,-22.11044 c 0,0.46966 -0.38072,0.85038 -0.85038,0.85038 -0.46967,0 -0.85041,-0.38072 -0.85041,-0.85038 0,-0.46967 0.38074,-0.85041 0.85041,-0.85041 0.46966,0 0.85038,0.38074 0.85038,0.85041 z" style="fill:#ffffff;fill-opacity:1;fill-rule:nonzero;stroke:none" transform="matrix(1.6666667,0,0,-1.6666667,282.29533,107.891)" />
    <path id="path7" d="m 73.70143,-42.23645 c 0,3.13112 -2.53822,5.66934 -5.66934,5.66934 -3.13113,0 -5.66936,-2.53822 -5.66936,-5.66934" style="fill:none;stroke:#ffffff;stroke-width:0.79701;stroke-linecap:butt;stroke-linejoin:miter;stroke-miterlimit:10;stroke-dasharray:none;stroke-opacity:1" transform="matrix(1.6666667,0,0,-1.6666667,282.29533,107.891)" />
    <path id="path8" d="m 68.03217,-41.95314 5.66926,4.81891" style="fill:none;stroke:#ffffff;stroke-width:0.79701;stroke-linecap:butt;stroke-linejoin:miter;stroke-miterlimit:10;stroke-dasharray:none;stroke-opacity:1" transform="matrix(1.6666667,0,0,-1.6666667,282.29533,107.891)" />
    <path id="path9" d="m 68.88255,-41.95314 c 0,0.46967 -0.38072,0.8504 -0.85038,0.8504 -0.46967,0 -0.85041,-0.38073 -0.85041,-0.8504 0,-0.46966 0.38074,-0.85039 0.85041,-0.85039 0.46966,0 0.85038,0.38073 0.85038,0.85039 z" style="fill:#ffffff;fill-opacity:1;fill-rule:nonzero;stroke:none" transform="matrix(1.6666667,0,0,-1.6666667,282.29533,107.891)" />
    <g id="g9" aria-label="∣+⟩" transform="matrix(1.6666667,0,0,1.6666667,151.20367,144.61433)">
      <path id="path10" d="m 1.199675,-6.0943812 v 7.809375 h 0.50625 v -7.809375 z m 0,0" style="fill:#121619;fill-opacity:1;fill-rule:nonzero;stroke:none" />
      <path id="path11" d="m 5.5168625,-4.3412563 v 1.8937501 h -1.89375 v 0.50625 h 1.89375 v 1.90312495 h 0.50625 V -1.9412562 h 1.903125 v -0.50625 h -1.903125 v -1.8937501 z m 0,0" style="fill:#121619;fill-opacity:1;fill-rule:nonzero;stroke:none" />
      <path id="path12" d="m 9.8481125,1.7993688 1.4343755,-3.99375 -1.4343755,-3.99375 -0.478125,0.178125 1.4343745,3.815625 -1.4343745,3.815625 z m 0,0" style="fill:#121619;fill-opacity:1;fill-rule:nonzero;stroke:none" />
    </g>
    <g id="g12" aria-label="∣+⟩" transform="matrix(1.6666667,0,0,1.6666667,151.20367,177.686)">
      <path id="path13" d="m 1.199675,-6.09285 v 7.809375 h 0.50625 V -6.09285 Z m 0,0" style="fill:#121619;fill-opacity:1;fill-rule:nonzero;stroke:none" />
      <path id="path14" d="m 5.5168625,-4.339725 v 1.89375 h -1.89375 v 0.50625 h 1.89375 V -0.0366 h 0.50625 v -1.903125 h 1.903125 v -0.50625 h -1.903125 v -1.89375 z m 0,0" style="fill:#121619;fill-opacity:1;fill-rule:nonzero;stroke:none" />
      <path id="path15" d="M 9.8481125,1.8009 11.282488,-2.19285 9.8481125,-6.1866 9.3699875,-6.008475 10.804362,-2.19285 9.3699875,1.622775 Z m 0,0" style="fill:#121619;fill-opacity:1;fill-rule:nonzero;stroke:none" />
    </g>
    <path id="path16" d="M -96.35811,39.68535 H 117.61821" style="fill:none;stroke:#121619;stroke-width:0.3985;stroke-linecap:butt;stroke-linejoin:miter;stroke-miterlimit:10;stroke-dasharray:none;stroke-opacity:1" transform="matrix(1.6666667,0,0,-1.6666667,282.29533,107.891)" />
    <path id="path17" d="M -96.35811,19.84267 H 117.61821" style="fill:none;stroke:#121619;stroke-width:0.3985;stroke-linecap:butt;stroke-linejoin:miter;stroke-miterlimit:10;stroke-dasharray:none;stroke-opacity:1" transform="matrix(1.6666667,0,0,-1.6666667,282.29533,107.891)" />
    <path id="path18" d="M -96.35811,0 H 117.61821" style="fill:none;stroke:#121619;stroke-width:0.3985;stroke-linecap:butt;stroke-linejoin:miter;stroke-miterlimit:10;stroke-dasharray:none;stroke-opacity:1" transform="matrix(1.6666667,0,0,-1.6666667,282.29533,107.891)" />
    <path id="path19" d="M -60.92459,-19.84267 H 59.32887" style="fill:none;stroke:#121619;stroke-width:0.3985;stroke-linecap:butt;stroke-linejoin:miter;stroke-miterlimit:10;stroke-dasharray:none;stroke-opacity:1" transform="matrix(1.6666667,0,0,-1.6666667,282.29533,107.891)" />
    <path id="path20" d="M -60.92459,-39.68535 H 59.32887" style="fill:none;stroke:#121619;stroke-width:0.3985;stroke-linecap:butt;stroke-linejoin:miter;stroke-miterlimit:10;stroke-dasharray:none;stroke-opacity:1" transform="matrix(1.6666667,0,0,-1.6666667,282.29533,107.891)" />
    <path id="path21" d="M 76.73544,-18.99226 H 89.27141" style="fill:none;stroke:#121619;stroke-width:0.3985;stroke-linecap:butt;stroke-linejoin:miter;stroke-miterlimit:10;stroke-dasharray:none;stroke-opacity:1" transform="matrix(1.6666667,0,0,-1.6666667,282.29533,107.891)" />
    <path id="path22" d="M 76.73544,-20.69307 H 89.27141" style="fill:none;stroke:#121619;stroke-width:0.3985;stroke-linecap:butt;stroke-linejoin:miter;stroke-miterlimit:10;stroke-dasharray:none;stroke-opacity:1" transform="matrix(1.6666667,0,0,-1.6666667,282.29533,107.891)" />
    <path id="path23" d="M 76.73544,-38.83495 H 89.27141" style="fill:none;stroke:#121619;stroke-width:0.3985;stroke-linecap:butt;stroke-linejoin:miter;stroke-miterlimit:10;stroke-dasharray:none;stroke-opacity:1" transform="matrix(1.6666667,0,0,-1.6666667,282.29533,107.891)" />
    <path id="path24" d="M 76.73544,-40.53575 H 89.27141" style="fill:none;stroke:#121619;stroke-width:0.3985;stroke-linecap:butt;stroke-linejoin:miter;stroke-miterlimit:10;stroke-dasharray:none;stroke-opacity:1" transform="matrix(1.6666667,0,0,-1.6666667,282.29533,107.891)" />
    <path id="path25" d="m -42.86436,-19.84267 c 0,1.37558 -1.1151,2.4907 -2.4907,2.4907 -1.37558,0 -2.49069,-1.11512 -2.49069,-2.4907 0,-1.37558 1.11511,-2.49069 2.49069,-2.49069 1.3756,0 2.4907,1.11511 2.4907,2.49069 z" style="fill:#78a9ff;fill-opacity:1;fill-rule:nonzero;stroke:none" transform="matrix(1.6666667,0,0,-1.6666667,282.29533,107.891)" />
    <path id="path26" d="m -23.02124,-19.84267 c 0,1.37558 -1.11511,2.4907 -2.49069,2.4907 -1.37558,0 -2.49069,-1.11512 -2.49069,-2.4907 0,-1.37558 1.11511,-2.49069 2.49069,-2.49069 1.37558,0 2.49069,1.11511 2.49069,2.49069 z" style="fill:#78a9ff;fill-opacity:1;fill-rule:nonzero;stroke:none" transform="matrix(1.6666667,0,0,-1.6666667,282.29533,107.891)" />
    <path id="path27" d="m -3.17857,-39.68535 c 0,1.37558 -1.11512,2.49069 -2.4907,2.49069 -1.37558,0 -2.49069,-1.11511 -2.49069,-2.49069 0,-1.37558 1.11511,-2.49069 2.49069,-2.49069 1.37558,0 2.4907,1.11511 2.4907,2.49069 z" style="fill:#78a9ff;fill-opacity:1;fill-rule:nonzero;stroke:none" transform="matrix(1.6666667,0,0,-1.6666667,282.29533,107.891)" />
    <path id="path28" d="m 16.66408,-39.68535 c 0,1.37558 -1.11511,2.49069 -2.49069,2.49069 -1.37559,0 -2.49069,-1.11511 -2.49069,-2.49069 0,-1.37558 1.1151,-2.49069 2.49069,-2.49069 1.37558,0 2.49069,1.11511 2.49069,2.49069 z" style="fill:#78a9ff;fill-opacity:1;fill-rule:nonzero;stroke:none" transform="matrix(1.6666667,0,0,-1.6666667,282.29533,107.891)" />
    <path id="path29" d="m -39.3774,39.68535 c 0,3.30142 -2.67623,5.97766 -5.97766,5.97766 -3.3014,0 -5.97766,-2.67624 -5.97766,-5.97766 0,-3.30141 2.67626,-5.97766 5.97766,-5.97766 3.30143,0 5.97766,2.67625 5.97766,5.97766 z" style="fill:#78a9ff;fill-opacity:1;fill-rule:nonzero;stroke:#78a9ff;stroke-width:0.3985;stroke-linecap:butt;stroke-linejoin:miter;stroke-miterlimit:10;stroke-dasharray:none;stroke-opacity:1" transform="matrix(1.6666667,0,0,-1.6666667,282.29533,107.891)" />
    <path id="path30" d="m 4.7053,-7.8196312 v 3.4125 H 1.2928 v 0.91875 h 3.4125 v 3.41249995 H 5.62405 V -3.4883812 h 3.4125 v -0.91875 h -3.4125 v -3.4125 z m 0,0" style="fill:#ffffff;fill-opacity:1;fill-rule:nonzero;stroke:none" aria-label="+" transform="matrix(1.6666667,0,0,1.6666667,198.09533,48.271)" />
    <path id="path31" d="m -19.53427,19.84267 c 0,3.3014 -2.67626,5.97766 -5.97766,5.97766 -3.30142,0 -5.97767,-2.67626 -5.97767,-5.97766 0,-3.30143 2.67625,-5.97767 5.97767,-5.97767 3.3014,0 5.97766,2.67624 5.97766,5.97767 z" style="fill:#78a9ff;fill-opacity:1;fill-rule:nonzero;stroke:#78a9ff;stroke-width:0.3985;stroke-linecap:butt;stroke-linejoin:miter;stroke-miterlimit:10;stroke-dasharray:none;stroke-opacity:1" transform="matrix(1.6666667,0,0,-1.6666667,282.29533,107.891)" />
    <path id="path32" d="m 4.7068313,-7.8194437 v 3.4125 h -3.4125 v 0.91875 h 3.4125 v 3.41249995 h 0.91875 V -3.4881937 h 3.4125 v -0.91875 h -3.4125 v -3.4125 z m 0,0" style="fill:#ffffff;fill-opacity:1;fill-rule:nonzero;stroke:none" aria-label="+" transform="matrix(1.6666667,0,0,1.6666667,231.167,81.341)" />
    <path id="path33" d="m 0.30838,19.84267 c 0,3.3014 -2.67624,5.97766 -5.97765,5.97766 -3.3014,0 -5.97766,-2.67626 -5.97766,-5.97766 0,-3.30143 2.67626,-5.97767 5.97766,-5.97767 3.30141,0 5.97765,2.67624 5.97765,5.97767 z" style="fill:#78a9ff;fill-opacity:1;fill-rule:nonzero;stroke:#78a9ff;stroke-width:0.3985;stroke-linecap:butt;stroke-linejoin:miter;stroke-miterlimit:10;stroke-dasharray:none;stroke-opacity:1" transform="matrix(1.6666667,0,0,-1.6666667,282.29533,107.891)" />
    <path id="path34" d="m 4.7060187,-7.8194437 v 3.4125 H 1.2935188 v 0.91875 h 3.4124999 v 3.41249995 H 5.6247688 V -3.4881937 h 3.4125 v -0.91875 h -3.4125 v -3.4125 z m 0,0" style="fill:#ffffff;fill-opacity:1;fill-rule:nonzero;stroke:none" aria-label="+" transform="matrix(1.6666667,0,0,1.6666667,264.23867,81.341)" />
    <path id="path35" d="m 20.15105,0 c 0,3.3014 -2.67624,5.97766 -5.97766,5.97766 C 10.87198,5.97766 8.19572,3.3014 8.19572,0 c 0,-3.3014 2.67626,-5.97766 5.97767,-5.97766 3.30142,0 5.97766,2.67626 5.97766,5.97766 z" style="fill:#78a9ff;fill-opacity:1;fill-rule:nonzero;stroke:#78a9ff;stroke-width:0.3985;stroke-linecap:butt;stroke-linejoin:miter;stroke-miterlimit:10;stroke-dasharray:none;stroke-opacity:1" transform="matrix(1.6666667,0,0,-1.6666667,282.29533,107.891)" />
    <path id="path36" d="m 4.7052063,-7.8179125 v 3.4125 h -3.4125 v 0.91875 h 3.4125 v 3.4125 h 0.91875 v -3.4125 h 3.4125 v -0.91875 h -3.4125 v -3.4125 z m 0,0" style="fill:#ffffff;fill-opacity:1;fill-rule:nonzero;stroke:none" aria-label="+" transform="matrix(1.6666667,0,0,1.6666667,297.31033,114.41267)" />
    <path id="path37" d="M -45.35506,-19.84267 V 33.50844" style="fill:none;stroke:#78a9ff;stroke-width:0.79701;stroke-linecap:butt;stroke-linejoin:miter;stroke-miterlimit:10;stroke-dasharray:none;stroke-opacity:1" transform="matrix(1.6666667,0,0,-1.6666667,282.29533,107.891)" />
    <path id="path38" d="M -25.51193,-19.84267 V 13.66576" style="fill:none;stroke:#78a9ff;stroke-width:0.79701;stroke-linecap:butt;stroke-linejoin:miter;stroke-miterlimit:10;stroke-dasharray:none;stroke-opacity:1" transform="matrix(1.6666667,0,0,-1.6666667,282.29533,107.891)" />
    <path id="path39" d="M -5.66927,-39.68535 V 13.66576" style="fill:none;stroke:#78a9ff;stroke-width:0.79701;stroke-linecap:butt;stroke-linejoin:miter;stroke-miterlimit:10;stroke-dasharray:none;stroke-opacity:1" transform="matrix(1.6666667,0,0,-1.6666667,282.29533,107.891)" />
    <path id="path40" d="M 14.17339,-39.68535 V -6.17691" style="fill:none;stroke:#78a9ff;stroke-width:0.79701;stroke-linecap:butt;stroke-linejoin:miter;stroke-miterlimit:10;stroke-dasharray:none;stroke-opacity:1" transform="matrix(1.6666667,0,0,-1.6666667,282.29533,107.891)" />
    <path id="path41" d="m 31.18132,-48.18938 h 17.00806 v 17.00806 H 31.18132 Z" style="fill:#78a9ff;fill-opacity:1;fill-rule:nonzero;stroke:#78a9ff;stroke-width:0.3985;stroke-linecap:butt;stroke-linejoin:miter;stroke-miterlimit:10;stroke-dasharray:none;stroke-opacity:1" transform="matrix(1.6666667,0,0,-1.6666667,282.29533,107.891)" />
    <path id="path42" d="m 6.3657688,-4.8004125 c 0.084375,-0.309375 0.09375,-0.384375 0.65625,-0.384375 0.178125,0 0.28125,0 0.28125,-0.15 0,-0.00938 -0.00937,-0.1125 -0.140625,-0.1125 -0.15,0 -0.3375,0.01875 -0.496875,0.028125 h -0.496875 c -0.76875,0 -0.975,-0.028125 -1.03125,-0.028125 -0.028125,0 -0.159375,0 -0.159375,0.159375 0,0.103125 0.103125,0.103125 0.234375,0.103125 0.2625,0 0.496875,0 0.496875,0.13125 0,0.028125 -0.00937,0.0375 -0.0375,0.140625 l -0.478125,1.95 h -2.559375 l 0.459375,-1.85625 c 0.065625,-0.290625 0.084375,-0.365625 0.665625,-0.365625 0.159375,0 0.253125,0 0.253125,-0.15 0,-0.00938 0,-0.1125 -0.13125,-0.1125 -0.15,0 -0.346875,0.01875 -0.496875,0.028125 h -0.496875 c -0.76875,0 -0.975,-0.028125 -1.03125,-0.028125 -0.028125,0 -0.159375,0 -0.159375,0.159375 0,0.103125 0.103125,0.103125 0.234375,0.103125 0.2625,0 0.4875,0 0.4875,0.13125 0,0.028125 0,0.0375 -0.028125,0.140625 l -1.06875,4.284375 c -0.075,0.3 -0.084375,0.365625 -0.67500005,0.365625 -0.15,0 -0.24375,0 -0.24375,0.15 0,0.028125 0.01875,0.1125 0.121875,0.1125 0.15,0 0.346875,-0.01875 0.49687505,-0.028125 h 0.50625 c 0.76875,0 0.975,0.028125 1.03125,0.028125 0.046875,0 0.159375,0 0.159375,-0.15 0,-0.1125 -0.103125,-0.1125 -0.24375,-0.1125 -0.01875,0 -0.159375,0 -0.3,-0.01875 -0.16875,-0.009375 -0.178125,-0.0375 -0.178125,-0.1125 0,-0.0375 0.00938,-0.084375 0.01875,-0.121875 l 0.54375,-2.184375 h 2.56875 c -0.234375,0.9375 -0.54375,2.184375 -0.553125,2.184375 -0.075,0.24375 -0.215625,0.24375 -0.69375,0.253125 -0.09375,0 -0.196875,0 -0.196875,0.15 0,0.028125 0.01875,0.1125 0.121875,0.1125 0.15,0 0.346875,-0.01875 0.496875,-0.028125 h 0.50625 c 0.76875,0 0.975,0.028125 1.03125,0.028125 0.046875,0 0.159375,0 0.159375,-0.15 0,-0.1125 -0.103125,-0.1125 -0.234375,-0.1125 -0.028125,0 -0.16875,0 -0.309375,-0.01875 -0.16875,-0.009375 -0.178125,-0.0375 -0.178125,-0.1125 0,-0.0375 0.00937,-0.084375 0.01875,-0.121875 z m 0,0" style="fill:#ffffff;fill-opacity:1;fill-rule:nonzero;stroke:none" aria-label="H" transform="matrix(1.6666667,0,0,1.6666667,342.12867,178.571)" />
    <path id="path43" d="m 31.18132,-28.3467 h 17.00806 v 17.00806 H 31.18132 Z" style="fill:#78a9ff;fill-opacity:1;fill-rule:nonzero;stroke:#78a9ff;stroke-width:0.3985;stroke-linecap:butt;stroke-linejoin:miter;stroke-miterlimit:10;stroke-dasharray:none;stroke-opacity:1" transform="matrix(1.6666667,0,0,-1.6666667,282.29533,107.891)" />
    <path id="path44" d="m 6.3657688,-4.8006 c 0.084375,-0.309375 0.09375,-0.384375 0.65625,-0.384375 0.178125,0 0.28125,0 0.28125,-0.15 0,-0.00938 -0.00937,-0.1125 -0.140625,-0.1125 -0.15,0 -0.3375,0.01875 -0.496875,0.028125 h -0.496875 c -0.76875,0 -0.975,-0.028125 -1.03125,-0.028125 -0.028125,0 -0.159375,0 -0.159375,0.159375 0,0.103125 0.103125,0.103125 0.234375,0.103125 0.2625,0 0.496875,0 0.496875,0.13125 0,0.028125 -0.00937,0.0375 -0.0375,0.140625 l -0.478125,1.95 h -2.559375 l 0.459375,-1.85625 c 0.065625,-0.290625 0.084375,-0.365625 0.665625,-0.365625 0.159375,0 0.253125,0 0.253125,-0.15 0,-0.00938 0,-0.1125 -0.13125,-0.1125 -0.15,0 -0.346875,0.01875 -0.496875,0.028125 h -0.496875 c -0.76875,0 -0.975,-0.028125 -1.03125,-0.028125 -0.028125,0 -0.159375,0 -0.159375,0.159375 0,0.103125 0.103125,0.103125 0.234375,0.103125 0.2625,0 0.4875,0 0.4875,0.13125 0,0.028125 0,0.0375 -0.028125,0.140625 l -1.06875,4.284375 c -0.075,0.3 -0.084375,0.365625 -0.67500005,0.365625 -0.15,0 -0.24375,0 -0.24375,0.15 0,0.028125 0.01875,0.1125 0.121875,0.1125 0.15,0 0.346875,-0.01875 0.49687505,-0.028125 h 0.50625 c 0.76875,0 0.975,0.028125 1.03125,0.028125 0.046875,0 0.159375,0 0.159375,-0.15 0,-0.1125 -0.103125,-0.1125 -0.24375,-0.1125 -0.01875,0 -0.159375,0 -0.3,-0.01875 -0.16875,-0.009375 -0.178125,-0.0375 -0.178125,-0.1125 0,-0.0375 0.00938,-0.084375 0.01875,-0.121875 l 0.54375,-2.184375 h 2.56875 c -0.234375,0.9375 -0.54375,2.184375 -0.553125,2.184375 -0.075,0.24375 -0.215625,0.24375 -0.69375,0.253125 -0.09375,0 -0.196875,0 -0.196875,0.15 0,0.028125 0.01875,0.1125 0.121875,0.1125 0.15,0 0.346875,-0.01875 0.496875,-0.028125 h 0.50625 c 0.76875,0 0.975,0.028125 1.03125,0.028125 0.046875,0 0.159375,0 0.159375,-0.15 0,-0.1125 -0.103125,-0.1125 -0.234375,-0.1125 -0.028125,0 -0.16875,0 -0.309375,-0.01875 -0.16875,-0.009375 -0.178125,-0.0375 -0.178125,-0.1125 0,-0.0375 0.00937,-0.084375 0.01875,-0.121875 z m 0,0" style="fill:#ffffff;fill-opacity:1;fill-rule:nonzero;stroke:none" aria-label="H" transform="matrix(1.6666667,0,0,1.6666667,342.12867,145.501)" />
  </g>
</svg>