<?xml version="1.0" encoding="UTF-8"?><!DOCTYPE svg  PUBLIC '-//W3C//DTD SVG 1.1//EN'  'http://www.w3.org/Graphics/SVG/1.1/DTD/svg11.dtd'><svg width="856.3pt" height="424.32pt" version="1.1" viewBox="0 0 856.3 424.32" xmlns="http://www.w3.org/2000/svg" xmlns:xlink="http://www.w3.org/1999/xlink"><defs><style type="text/css">*{stroke-linejoin: round; stroke-linecap: butt}</style></defs><path d="m0 424.32h856.3v-424.32h-856.3z" fill="#ffffff"/><path d="m53.7 384.12h369.64v-361.8h-369.64z" fill="#ffffff"/><defs><path id="b1e70f39323" d="m0 0v3.5" stroke="#000000" stroke-width=".8"/></defs><use x="70.501754" y="384.115312" stroke="#000000" stroke-width=".8" xlink:href="#b1e70f39323"/><g transform="translate(67.321 398.71) scale(.1 -.1)"><defs><path id="DejaVuSans-13" transform="scale(.015625)" d="m2034 4250q-487 0-733-480-245-479-245-1442 0-959 245-1439 246-480 733-480 491 0 736 480 246 480 246 1439 0 963-246 1442-245 480-736 480zm0 500q785 0 1199-621 414-620 414-1801 0-1178-414-1799-414-620-1199-620-784 0-1198 620-414 621-414 1799 0 1181 414 1801 414 621 1198 621z"/></defs><use xlink:href="#DejaVuSans-13"/></g><use x="154.510526" y="384.115312" stroke="#000000" stroke-width=".8" xlink:href="#b1e70f39323"/><g transform="translate(151.33 398.71) scale(.1 -.1)"><defs><path id="DejaVuSans-14" transform="scale(.015625)" d="m794 531h1031v3560l-1122-225v575l1116 225h631v-4135h1031v-531h-2687v531z"/></defs><use xlink:href="#DejaVuSans-14"/></g><use x="238.519297" y="384.115312" stroke="#000000" stroke-width=".8" xlink:href="#b1e70f39323"/><g transform="translate(235.34 398.71) scale(.1 -.1)"><defs><path id="DejaVuSans-15" transform="scale(.015625)" d="m1228 531h2203v-531h-2962v531q359 372 979 998 621 627 780 809 303 340 423 576 121 236 121 464 0 372-261 606-261 235-680 235-297 0-627-103-329-103-704-313v638q381 153 712 231 332 78 607 78 725 0 1156-363 431-362 431-968 0-288-108-546-107-257-392-607-78-91-497-524-418-433-1181-1211z"/></defs><use xlink:href="#DejaVuSans-15"/></g><use x="322.528068" y="384.115312" stroke="#000000" stroke-width=".8" xlink:href="#b1e70f39323"/><g transform="translate(319.35 398.71) scale(.1 -.1)"><defs><path id="DejaVuSans-16" transform="scale(.015625)" d="m2597 2516q453-97 707-404 255-306 255-756 0-690-475-1069-475-378-1350-378-293 0-604 58t-642 174v609q262-153 574-231 313-78 654-78 593 0 904 234t311 681q0 413-289 645-289 233-804 233h-544v519h569q465 0 712 186t247 536q0 359-255 551-254 193-729 193-260 0-557-57-297-56-653-174v562q360 100 674 150t592 50q719 0 1137-327 419-326 419-882 0-388-222-655t-631-370z"/></defs><use xlink:href="#DejaVuSans-16"/></g><use x="406.536839" y="384.115312" stroke="#000000" stroke-width=".8" xlink:href="#b1e70f39323"/><g transform="translate(403.36 398.71) scale(.1 -.1)"><defs><path id="DejaVuSans-17" transform="scale(.015625)" d="m2419 4116-1594-2491h1594v2491zm-166 550h794v-3041h666v-525h-666v-1100h-628v1100h-2106v609l1940 2957z"/></defs><use xlink:href="#DejaVuSans-17"/></g><g transform="translate(194.64 414.23) scale(.12 -.12)"><defs><path id="DejaVuSans-2c" transform="scale(.015625)" d="m628 4666h631v-4666h-631v4666z"/><path id="DejaVuSans-57" transform="scale(.015625)" d="m1172 4494v-994h1184v-447h-1184v-1900q0-428 117-550t477-122h590v-481h-590q-666 0-919 248-253 249-253 905v1900h-422v447h422v994h578z"/><path id="DejaVuSans-48" transform="scale(.015625)" d="m3597 1894v-281h-2644q38-594 358-905t892-311q331 0 642 81t618 244v-544q-310-131-635-200t-659-69q-838 0-1327 487-489 488-489 1320 0 859 464 1363 464 505 1252 505 706 0 1117-455 411-454 411-1235zm-575 169q-6 471-264 752-258 282-683 282-481 0-770-272t-333-766l2050 4z"/><path id="DejaVuSans-55" transform="scale(.015625)" d="m2631 2963q-97 56-211 82-114 27-251 27-488 0-749-317t-261-911v-1844h-578v3500h578v-544q182 319 472 473 291 155 707 155 59 0 131-8 72-7 159-23l3-590z"/><path id="DejaVuSans-44" transform="scale(.015625)" d="m2194 1759q-697 0-966-159t-269-544q0-306 202-486 202-179 548-179 479 0 768 339t289 901v128h-572zm1147 238v-1997h-575v531q-197-318-491-470t-719-152q-537 0-855 302-317 302-317 808 0 590 395 890 396 300 1180 300h807v57q0 397-261 614t-733 217q-300 0-585-72-284-72-546-216v532q315 122 612 182 297 61 578 61 760 0 1135-394 375-393 375-1193z"/><path id="DejaVuSans-4c" transform="scale(.015625)" d="m603 3500h575v-3500h-575v3500zm0 1363h575v-729h-575v729z"/><path id="DejaVuSans-52" transform="scale(.015625)" d="m1959 3097q-462 0-731-361t-269-989 267-989q268-361 733-361 460 0 728 362 269 363 269 988 0 622-269 986-268 364-728 364zm0 487q750 0 1178-488 429-487 429-1349 0-859-429-1349-428-489-1178-489-753 0-1180 489-426 490-426 1349 0 862 426 1349 427 488 1180 488z"/><path id="DejaVuSans-51" transform="scale(.015625)" d="m3513 2113v-2113h-575v2094q0 497-194 743-194 247-581 247-466 0-735-297-269-296-269-809v-1978h-578v3500h578v-544q207 316 486 472 280 156 646 156 603 0 912-373 310-373 310-1098z"/><path id="DejaVuSans-47" transform="scale(.015625)" d="m2906 2969v1894h575v-4863h-575v525q-181-312-458-464-276-152-664-152-634 0-1033 506-398 507-398 1332t398 1331q399 506 1033 506 388 0 664-152 277-151 458-463zm-1959-1222q0-634 261-995t717-361 718 361q263 361 263 995t-263 995q-262 361-718 361t-717-361-261-995z"/><path id="DejaVuSans-5b" transform="scale(.015625)" d="m3513 3500-1266-1703 1331-1797h-678l-1019 1375-1018-1375h-679l1360 1831-1244 1669h678l928-1247 928 1247h679z"/></defs><use xlink:href="#DejaVuSans-2c"/><use transform="translate(29.5)" xlink:href="#DejaVuSans-57"/><use transform="translate(68.703)" xlink:href="#DejaVuSans-48"/><use transform="translate(130.23)" xlink:href="#DejaVuSans-55"/><use transform="translate(171.34)" xlink:href="#DejaVuSans-44"/><use transform="translate(232.62)" xlink:href="#DejaVuSans-57"/><use transform="translate(271.83)" xlink:href="#DejaVuSans-4c"/><use transform="translate(299.61)" xlink:href="#DejaVuSans-52"/><use transform="translate(360.8)" xlink:href="#DejaVuSans-51"/><use transform="translate(424.17)" xlink:href="#DejaVuSans-3"/><use transform="translate(455.95)" xlink:href="#DejaVuSans-2c"/><use transform="translate(485.45)" xlink:href="#DejaVuSans-51"/><use transform="translate(548.83)" xlink:href="#DejaVuSans-47"/><use transform="translate(612.31)" xlink:href="#DejaVuSans-48"/><use transform="translate(672.09)" xlink:href="#DejaVuSans-5b"/></g><defs><path id="efed65992e9" d="m0 0h-3.5" stroke="#000000" stroke-width=".8"/></defs><use x="53.7" y="384.115312" stroke="#000000" stroke-width=".8" xlink:href="#efed65992e9"/><g transform="translate(23.2 388.77) scale(.1 -.1)"><defs><path id="DejaVuSans-c9c" transform="scale(.015625)" d="m678 2272h4006v-531h-4006v531z"/></defs><use transform="translate(0 .66562)" xlink:href="#DejaVuSans-14"/><use transform="translate(63.623 .66562)" xlink:href="#DejaVuSans-13"/><use transform="translate(128.2 41.966) scale(.7)" xlink:href="#DejaVuSans-c9c"/><use transform="translate(186.86 41.966) scale(.7)" xlink:href="#DejaVuSans-17"/></g><use x="53.7" y="306.585667" stroke="#000000" stroke-width=".8" xlink:href="#efed65992e9"/><g transform="translate(23.2 311.29) scale(.1 -.1)"><use transform="translate(0 .74688)" xlink:href="#DejaVuSans-14"/><use transform="translate(63.623 .74688)" xlink:href="#DejaVuSans-13"/><use transform="translate(128.2 42.047) scale(.7)" xlink:href="#DejaVuSans-c9c"/><use transform="translate(186.86 42.047) scale(.7)" xlink:href="#DejaVuSans-16"/></g><use x="53.7" y="229.056021" stroke="#000000" stroke-width=".8" xlink:href="#efed65992e9"/><g transform="translate(23.2 233.76) scale(.1 -.1)"><use transform="translate(0 .74688)" xlink:href="#DejaVuSans-14"/><use transform="translate(63.623 .74688)" xlink:href="#DejaVuSans-13"/><use transform="translate(128.2 42.047) scale(.7)" xlink:href="#DejaVuSans-c9c"/><use transform="translate(186.86 42.047) scale(.7)" xlink:href="#DejaVuSans-15"/></g><use x="53.7" y="151.526376" stroke="#000000" stroke-width=".8" xlink:href="#efed65992e9"/><g transform="translate(23.2 156.18) scale(.1 -.1)"><use transform="translate(0 .66562)" xlink:href="#DejaVuSans-14"/><use transform="translate(63.623 .66562)" xlink:href="#DejaVuSans-13"/><use transform="translate(128.2 41.966) scale(.7)" xlink:href="#DejaVuSans-c9c"/><use transform="translate(186.86 41.966) scale(.7)" xlink:href="#DejaVuSans-14"/></g><use x="53.7" y="73.99673" stroke="#000000" stroke-width=".8" xlink:href="#efed65992e9"/><g transform="translate(29.1 78.697) scale(.1 -.1)"><use transform="translate(0 .74688)" xlink:href="#DejaVuSans-14"/><use transform="translate(63.623 .74688)" xlink:href="#DejaVuSans-13"/><use transform="translate(128.2 42.047) scale(.7)" xlink:href="#DejaVuSans-13"/></g><defs><path id="d50f6403912" d="m0 0h-2" stroke="#000000" stroke-width=".6"/></defs><use x="53.7" y="360.776564" stroke="#000000" stroke-width=".6" xlink:href="#d50f6403912"/><use x="53.7" y="347.124271" stroke="#000000" stroke-width=".6" xlink:href="#d50f6403912"/><use x="53.7" y="337.437815" stroke="#000000" stroke-width=".6" xlink:href="#d50f6403912"/><use x="53.7" y="329.924416" stroke="#000000" stroke-width=".6" xlink:href="#d50f6403912"/><use x="53.7" y="323.785522" stroke="#000000" stroke-width=".6" xlink:href="#d50f6403912"/><use x="53.7" y="318.595161" stroke="#000000" stroke-width=".6" xlink:href="#d50f6403912"/><use x="53.7" y="314.099066" stroke="#000000" stroke-width=".6" xlink:href="#d50f6403912"/><use x="53.7" y="310.133229" stroke="#000000" stroke-width=".6" xlink:href="#d50f6403912"/><use x="53.7" y="283.246918" stroke="#000000" stroke-width=".6" xlink:href="#d50f6403912"/><use x="53.7" y="269.594625" stroke="#000000" stroke-width=".6" xlink:href="#d50f6403912"/><use x="53.7" y="259.908169" stroke="#000000" stroke-width=".6" xlink:href="#d50f6403912"/><use x="53.7" y="252.39477" stroke="#000000" stroke-width=".6" xlink:href="#d50f6403912"/><use x="53.7" y="246.255876" stroke="#000000" stroke-width=".6" xlink:href="#d50f6403912"/><use x="53.7" y="241.065515" stroke="#000000" stroke-width=".6" xlink:href="#d50f6403912"/><use x="53.7" y="236.56942" stroke="#000000" stroke-width=".6" xlink:href="#d50f6403912"/><use x="53.7" y="232.603583" stroke="#000000" stroke-width=".6" xlink:href="#d50f6403912"/><use x="53.7" y="205.717272" stroke="#000000" stroke-width=".6" xlink:href="#d50f6403912"/><use x="53.7" y="192.064979" stroke="#000000" stroke-width=".6" xlink:href="#d50f6403912"/><use x="53.7" y="182.378523" stroke="#000000" stroke-width=".6" xlink:href="#d50f6403912"/><use x="53.7" y="174.865125" stroke="#000000" stroke-width=".6" xlink:href="#d50f6403912"/><use x="53.7" y="168.726231" stroke="#000000" stroke-width=".6" xlink:href="#d50f6403912"/><use x="53.7" y="163.53587" stroke="#000000" stroke-width=".6" xlink:href="#d50f6403912"/><use x="53.7" y="159.039775" stroke="#000000" stroke-width=".6" xlink:href="#d50f6403912"/><use x="53.7" y="155.073938" stroke="#000000" stroke-width=".6" xlink:href="#d50f6403912"/><use x="53.7" y="128.187627" stroke="#000000" stroke-width=".6" xlink:href="#d50f6403912"/><use x="53.7" y="114.535334" stroke="#000000" stroke-width=".6" xlink:href="#d50f6403912"/><use x="53.7" y="104.848878" stroke="#000000" stroke-width=".6" xlink:href="#d50f6403912"/><use x="53.7" y="97.335479" stroke="#000000" stroke-width=".6" xlink:href="#d50f6403912"/><use x="53.7" y="91.196585" stroke="#000000" stroke-width=".6" xlink:href="#d50f6403912"/><use x="53.7" y="86.006224" stroke="#000000" stroke-width=".6" xlink:href="#d50f6403912"/><use x="53.7" y="81.510129" stroke="#000000" stroke-width=".6" xlink:href="#d50f6403912"/><use x="53.7" y="77.544292" stroke="#000000" stroke-width=".6" xlink:href="#d50f6403912"/><use x="53.7" y="50.657981" stroke="#000000" stroke-width=".6" xlink:href="#d50f6403912"/><use x="53.7" y="37.005688" stroke="#000000" stroke-width=".6" xlink:href="#d50f6403912"/><use x="53.7" y="27.319232" stroke="#000000" stroke-width=".6" xlink:href="#d50f6403912"/><g transform="translate(16.317 255.53) rotate(-90) scale(.12 -.12)"><defs><path id="DejaVuSans-28" transform="scale(.015625)" d="m628 4666h2950v-532h-2319v-1381h2222v-531h-2222v-1691h2375v-531h-3006v4666z"/><path id="DejaVuSans-4a" transform="scale(.015625)" d="m2906 1791q0 625-258 968-257 344-723 344-462 0-720-344-258-343-258-968 0-622 258-966t720-344q466 0 723 344 258 344 258 966zm575-1357q0-893-397-1329-396-436-1215-436-303 0-572 45t-522 139v559q253-137 500-202 247-66 503-66 566 0 847 295t281 892v285q-178-310-456-463t-666-153q-643 0-1037 490-394 491-394 1301 0 812 394 1302 394 491 1037 491 388 0 666-153t456-462v531h575v-3066z"/><path id="DejaVuSans-5c" transform="scale(.015625)" d="m2059-325q-243-625-475-815-231-191-618-191h-460v481h338q237 0 368 113 132 112 291 531l103 262-1415 3444h609l1094-2737 1094 2737h609l-1538-3825z"/><path id="DejaVuSans-b" transform="scale(.015625)" d="m1984 4856q-418-718-622-1422-203-703-203-1425 0-721 205-1429t620-1424h-500q-468 735-701 1444t-233 1409q0 697 231 1403 232 707 703 1444h500z"/><path id="DejaVuSans-2b" transform="scale(.015625)" d="m628 4666h631v-1913h2294v1913h631v-4666h-631v2222h-2294v-2222h-631v4666z"/><path id="DejaVuSans-c" transform="scale(.015625)" d="m513 4856h500q468-737 701-1444 233-706 233-1403 0-700-233-1409t-701-1444h-500q415 716 620 1424t205 1429q0 722-205 1425-205 704-620 1422z"/></defs><use xlink:href="#DejaVuSans-28"/><use transform="translate(63.188)" xlink:href="#DejaVuSans-51"/><use transform="translate(126.56)" xlink:href="#DejaVuSans-48"/><use transform="translate(188.09)" xlink:href="#DejaVuSans-55"/><use transform="translate(227.45)" xlink:href="#DejaVuSans-4a"/><use transform="translate(290.94)" xlink:href="#DejaVuSans-5c"/><use transform="translate(350.12)" xlink:href="#DejaVuSans-3"/><use transform="translate(381.91)" xlink:href="#DejaVuSans-28"/><use transform="translate(445.09)" xlink:href="#DejaVuSans-55"/><use transform="translate(484.45)" xlink:href="#DejaVuSans-55"/><use transform="translate(523.36)" xlink:href="#DejaVuSans-52"/><use transform="translate(584.55)" xlink:href="#DejaVuSans-55"/><use transform="translate(625.66)" xlink:href="#DejaVuSans-3"/><use transform="translate(657.44)" xlink:href="#DejaVuSans-b"/><use transform="translate(696.45)" xlink:href="#DejaVuSans-2b"/><use transform="translate(771.66)" xlink:href="#DejaVuSans-44"/><use transform="translate(832.94)" xlink:href="#DejaVuSans-c"/></g><path d="m70.502 31.232 84.009 47.01 84.009 91.865 84.009 39.393 84.009-24.021" clip-path="url(#347de8ca9e7)" fill="none" stroke="#1f77b4" stroke-linecap="square" stroke-width="1.5"/><defs><path id="c765f989eeb" d="m0 3c0.79561 0 1.5587-0.3161 2.1213-0.87868 0.56258-0.56258 0.87868-1.3257 0.87868-2.1213s-0.3161-1.5587-0.87868-2.1213c-0.56258-0.56258-1.3257-0.87868-2.1213-0.87868s-1.5587 0.3161-2.1213 0.87868c-0.56258 0.56258-0.87868 1.3257-0.87868 2.1213s0.3161 1.5587 0.87868 2.1213c0.56258 0.56258 1.3257 0.87868 2.1213 0.87868z" stroke="#1f77b4"/></defs><g clip-path="url(#347de8ca9e7)" fill="#1f77b4" stroke="#1f77b4"><use x="70.501754" y="31.231501" xlink:href="#c765f989eeb"/><use x="154.510526" y="78.241712" xlink:href="#c765f989eeb"/><use x="238.519297" y="170.106256" xlink:href="#c765f989eeb"/><use x="322.528068" y="209.499011" xlink:href="#c765f989eeb"/><use x="406.536839" y="185.477672" xlink:href="#c765f989eeb"/></g><path d="m53.7 306.59h369.64" clip-path="url(#347de8ca9e7)" fill="none" stroke="#bf5700" stroke-dasharray="5.55,2.4" stroke-width="1.5"/><path d="m53.7 384.12v-361.8" fill="none" stroke="#000000" stroke-linecap="square" stroke-width=".8"/><path d="m423.34 384.12v-361.8" fill="none" stroke="#000000" stroke-linecap="square" stroke-width=".8"/><path d="m53.7 384.12h369.64" fill="none" stroke="#000000" stroke-linecap="square" stroke-width=".8"/><path d="m53.7 22.318h369.64" fill="none" stroke="#000000" stroke-linecap="square" stroke-width=".8"/><g transform="translate(61.047 16.318) scale(.12 -.12)"><defs><path id="DejaVuSans-24" transform="scale(.015625)" d="m2188 4044-857-2322h1716l-859 2322zm-357 622h716l1778-4666h-656l-425 1197h-2103l-425-1197h-666l1781 4666z"/><path id="DejaVuSans-53" transform="scale(.015625)" d="m1159 525v-1856h-578v4831h578v-531q182 312 458 463 277 152 661 152 638 0 1036-506 399-506 399-1331t-399-1332q-398-506-1036-506-384 0-661 152-276 152-458 464zm1957 1222q0 634-261 995t-717 361q-457 0-718-361t-261-995 261-995 718-361q456 0 717 361t261 995z"/><path id="DejaVuSans-50" transform="scale(.015625)" d="m3328 2828q216 388 516 572t706 184q547 0 844-383 297-382 297-1088v-2113h-578v2094q0 503-179 746-178 244-543 244-447 0-707-297-259-296-259-809v-1978h-578v2094q0 506-178 748t-550 242q-441 0-701-298-259-298-259-808v-1978h-578v3500h578v-544q197 322 472 475t653 153q382 0 649-194 267-193 395-562z"/><path id="DejaVuSans-2a" transform="scale(.015625)" d="m3809 666v1253h-1031v519h1656v-2004q-365-259-806-392-440-133-940-133-1094 0-1712 639-617 640-617 1780 0 1144 617 1783 618 639 1712 639 456 0 867-113 411-112 758-331v-672q-350 297-744 447t-828 150q-857 0-1287-478-429-478-429-1425 0-944 429-1422 430-478 1287-478 334 0 596 58 263 58 472 180z"/><path id="DejaVuSans-58" transform="scale(.015625)" d="m544 1381v2119h575v-2097q0-497 193-746 194-248 582-248 465 0 735 297 271 297 271 810v1984h575v-3500h-575v538q-209-319-486-474-276-155-642-155-603 0-916 375-312 375-312 1097zm1447 2203z"/><path id="DejaVuSans-36" transform="scale(.015625)" d="m3425 4513v-616q-359 172-678 256-319 85-616 85-515 0-795-200t-280-569q0-310 186-468 186-157 705-254l381-78q706-135 1042-474t336-907q0-679-455-1029-454-350-1332-350-331 0-705 75-373 75-773 222v650q384-215 753-325 369-109 725-109 540 0 834 212 294 213 294 607 0 343-211 537t-692 291l-385 75q-706 140-1022 440-315 300-315 835 0 619 436 975t1201 356q329 0 669-60 341-59 697-177z"/><path id="DejaVuSans-59" transform="scale(.015625)" d="m191 3500h609l1094-2937 1094 2937h609l-1313-3500h-781l-1312 3500z"/><path id="DejaVuSans-56" transform="scale(.015625)" d="m2834 3397v-544q-243 125-506 187-262 63-544 63-428 0-642-131t-214-394q0-200 153-314t616-217l197-44q612-131 870-370t258-667q0-488-386-773-386-284-1061-284-281 0-586 55t-642 164v594q319-166 628-249 309-82 613-82 406 0 624 139 219 139 219 392 0 234-158 359-157 125-692 241l-200 47q-534 112-772 345-237 233-237 639 0 494 350 762 350 269 994 269 318 0 599-47 282-46 519-140z"/><path id="DejaVuSans-34" transform="scale(.015625)" d="m2522 4238q-688 0-1093-513-404-512-404-1397 0-881 404-1394 405-512 1093-512 687 0 1089 512 402 513 402 1394 0 885-402 1397-402 513-1089 513zm884-4154 832-909h-763l-691 747q-103-6-158-9-54-4-104-4-984 0-1574 658-589 658-589 1761 0 1106 589 1764 590 658 1574 658 981 0 1568-658 588-658 588-1764 0-812-327-1391-326-578-945-853z"/><path id="DejaVuSans-27" transform="scale(.015625)" d="m1259 4147v-3628h763q966 0 1414 437 448 438 448 1382 0 937-448 1373t-1414 436h-763zm-631 519h1297q1356 0 1990-564 635-564 635-1764 0-1207-638-1773-637-565-1987-565h-1297v4666z"/></defs><use xlink:href="#DejaVuSans-24"/><use transform="translate(68.406)" xlink:href="#DejaVuSans-53"/><use transform="translate(131.89)" xlink:href="#DejaVuSans-53"/><use transform="translate(195.38)" xlink:href="#DejaVuSans-55"/><use transform="translate(234.28)" xlink:href="#DejaVuSans-52"/><use transform="translate(292.39)" xlink:href="#DejaVuSans-5b"/><use transform="translate(351.58)" xlink:href="#DejaVuSans-4c"/><use transform="translate(379.36)" xlink:href="#DejaVuSans-50"/><use transform="translate(476.77)" xlink:href="#DejaVuSans-44"/><use transform="translate(538.05)" xlink:href="#DejaVuSans-57"/><use transform="translate(577.25)" xlink:href="#DejaVuSans-48"/><use transform="translate(638.78)" xlink:href="#DejaVuSans-47"/><use transform="translate(702.27)" xlink:href="#DejaVuSans-3"/><use transform="translate(734.05)" xlink:href="#DejaVuSans-2a"/><use transform="translate(811.53)" xlink:href="#DejaVuSans-55"/><use transform="translate(850.44)" xlink:href="#DejaVuSans-52"/><use transform="translate(911.62)" xlink:href="#DejaVuSans-58"/><use transform="translate(975)" xlink:href="#DejaVuSans-51"/><use transform="translate(1038.4)" xlink:href="#DejaVuSans-47"/><use transform="translate(1101.9)" xlink:href="#DejaVuSans-3"/><use transform="translate(1133.6)" xlink:href="#DejaVuSans-36"/><use transform="translate(1197.1)" xlink:href="#DejaVuSans-57"/><use transform="translate(1236.3)" xlink:href="#DejaVuSans-44"/><use transform="translate(1297.6)" xlink:href="#DejaVuSans-57"/><use transform="translate(1336.8)" xlink:href="#DejaVuSans-48"/><use transform="translate(1398.3)" xlink:href="#DejaVuSans-3"/><use transform="translate(1430.1)" xlink:href="#DejaVuSans-28"/><use transform="translate(1493.3)" xlink:href="#DejaVuSans-51"/><use transform="translate(1556.7)" xlink:href="#DejaVuSans-48"/><use transform="translate(1618.2)" xlink:href="#DejaVuSans-55"/><use transform="translate(1657.6)" xlink:href="#DejaVuSans-4a"/><use transform="translate(1721.1)" xlink:href="#DejaVuSans-5c"/><use transform="translate(1780.2)" xlink:href="#DejaVuSans-3"/><use transform="translate(1812)" xlink:href="#DejaVuSans-28"/><use transform="translate(1875.2)" xlink:href="#DejaVuSans-55"/><use transform="translate(1914.6)" xlink:href="#DejaVuSans-55"/><use transform="translate(1953.5)" xlink:href="#DejaVuSans-52"/><use transform="translate(2014.7)" xlink:href="#DejaVuSans-55"/><use transform="translate(2055.8)" xlink:href="#DejaVuSans-3"/><use transform="translate(2087.6)" xlink:href="#DejaVuSans-59"/><use transform="translate(2146.8)" xlink:href="#DejaVuSans-56"/><use transform="translate(2198.8)" xlink:href="#DejaVuSans-3"/><use transform="translate(2230.6)" xlink:href="#DejaVuSans-36"/><use transform="translate(2294.1)" xlink:href="#DejaVuSans-34"/><use transform="translate(2372.8)" xlink:href="#DejaVuSans-27"/><use transform="translate(2449.8)" xlink:href="#DejaVuSans-3"/><use transform="translate(2481.6)" xlink:href="#DejaVuSans-2c"/><use transform="translate(2511.1)" xlink:href="#DejaVuSans-57"/><use transform="translate(2550.3)" xlink:href="#DejaVuSans-48"/><use transform="translate(2611.8)" xlink:href="#DejaVuSans-55"/><use transform="translate(2653)" xlink:href="#DejaVuSans-44"/><use transform="translate(2714.2)" xlink:href="#DejaVuSans-57"/><use transform="translate(2753.4)" xlink:href="#DejaVuSans-4c"/><use transform="translate(2781.2)" xlink:href="#DejaVuSans-52"/><use transform="translate(2842.4)" xlink:href="#DejaVuSans-51"/><use transform="translate(2905.8)" xlink:href="#DejaVuSans-56"/></g><path d="m291.13 60.32h125.21q2 0 2-2v-29.002q0-2-2-2h-125.21q-2 0-2 2v29.002q0 2 2 2z" fill="#ffffff" opacity=".8" stroke="#cccccc"/><path d="m293.13 35.417h10 10" fill="none" stroke="#1f77b4" stroke-linecap="square" stroke-width="1.5"/><use x="303.129219" y="35.416562" fill="#1f77b4" stroke="#1f77b4" xlink:href="#c765f989eeb"/><g transform="translate(321.13 38.917) scale(.1 -.1)"><use xlink:href="#DejaVuSans-48"/><use transform="translate(61.531)" xlink:href="#DejaVuSans-51"/><use transform="translate(124.91)" xlink:href="#DejaVuSans-48"/><use transform="translate(186.44)" xlink:href="#DejaVuSans-55"/><use transform="translate(225.8)" xlink:href="#DejaVuSans-4a"/><use transform="translate(289.28)" xlink:href="#DejaVuSans-5c"/><use transform="translate(348.47)" xlink:href="#DejaVuSans-3"/><use transform="translate(380.25)" xlink:href="#DejaVuSans-48"/><use transform="translate(441.78)" xlink:href="#DejaVuSans-55"/><use transform="translate(481.14)" xlink:href="#DejaVuSans-55"/><use transform="translate(520.05)" xlink:href="#DejaVuSans-52"/><use transform="translate(581.23)" xlink:href="#DejaVuSans-55"/></g><path d="m293.13 50.417h10 10" fill="none" stroke="#bf5700" stroke-dasharray="5.55,2.4" stroke-width="1.5"/><g transform="translate(321.13 53.917) scale(.1 -.1)"><defs><path id="DejaVuSans-46" transform="scale(.015625)" d="m3122 3366v-538q-244 135-489 202t-495 67q-560 0-870-355-309-354-309-995t309-996q310-354 870-354 250 0 495 67t489 202v-532q-241-112-499-168-257-57-548-57-791 0-1257 497-465 497-465 1341 0 856 470 1346 471 491 1290 491 265 0 518-55 253-54 491-163z"/><path id="DejaVuSans-4b" transform="scale(.015625)" d="m3513 2113v-2113h-575v2094q0 497-194 743-194 247-581 247-466 0-735-297-269-296-269-809v-1978h-578v4863h578v-1907q207 316 486 472 280 156 646 156 603 0 912-373 310-373 310-1098z"/><path id="DejaVuSans-4f" transform="scale(.015625)" d="m603 4863h575v-4863h-575v4863z"/></defs><use xlink:href="#DejaVuSans-46"/><use transform="translate(54.984)" xlink:href="#DejaVuSans-4b"/><use transform="translate(118.36)" xlink:href="#DejaVuSans-48"/><use transform="translate(179.89)" xlink:href="#DejaVuSans-50"/><use transform="translate(277.3)" xlink:href="#DejaVuSans-4c"/><use transform="translate(305.08)" xlink:href="#DejaVuSans-46"/><use transform="translate(360.06)" xlink:href="#DejaVuSans-44"/><use transform="translate(421.34)" xlink:href="#DejaVuSans-4f"/><use transform="translate(449.12)" xlink:href="#DejaVuSans-3"/><use transform="translate(480.91)" xlink:href="#DejaVuSans-44"/><use transform="translate(542.19)" xlink:href="#DejaVuSans-46"/><use transform="translate(597.17)" xlink:href="#DejaVuSans-46"/><use transform="translate(652.16)" xlink:href="#DejaVuSans-58"/><use transform="translate(715.53)" xlink:href="#DejaVuSans-55"/><use transform="translate(756.64)" xlink:href="#DejaVuSans-44"/><use transform="translate(817.92)" xlink:href="#DejaVuSans-46"/><use transform="translate(872.91)" xlink:href="#DejaVuSans-5c"/></g><path d="m479.46 384.12h369.64v-361.8h-369.64z" fill="#ffffff"/><path d="m496.26 384.12h17.014v-344.57h-17.014z" clip-path="url(#4e42e8053a3)" fill="#1f77b4"/><path d="m517.53 384.12h17.014v-342.08h-17.014z" clip-path="url(#4e42e8053a3)" fill="#1f77b4"/><path d="m538.8 384.12h17.014v-343.05h-17.014z" clip-path="url(#4e42e8053a3)" fill="#1f77b4"/><path d="m560.06 384.12h17.014v-334.34h-17.014z" clip-path="url(#4e42e8053a3)" fill="#1f77b4"/><path d="m581.33 384.12h17.014v-334.33h-17.014z" clip-path="url(#4e42e8053a3)" fill="#1f77b4"/><path d="m602.6 384.12h17.014v-11.056h-17.014z" clip-path="url(#4e42e8053a3)" fill="#1f77b4"/><path d="m623.87 384.12h17.014v-10.824h-17.014z" clip-path="url(#4e42e8053a3)" fill="#1f77b4"/><path d="m645.14 384.12h17.014v-1.2616h-17.014z" clip-path="url(#4e42e8053a3)" fill="#1f77b4"/><path d="m666.4 384.12h17.014v-0.54179h-17.014z" clip-path="url(#4e42e8053a3)" fill="#1f77b4"/><path d="m687.67 384.12h17.014v-1.1117h-17.014z" clip-path="url(#4e42e8053a3)" fill="#1f77b4"/><path d="m708.94 384.12h17.014v-1.1275h-17.014z" clip-path="url(#4e42e8053a3)" fill="#1f77b4"/><path d="m730.21 384.12h17.014v-2.0452h-17.014z" clip-path="url(#4e42e8053a3)" fill="#1f77b4"/><path d="m751.48 384.12h17.014v-1.658h-17.014z" clip-path="url(#4e42e8053a3)" fill="#1f77b4"/><path d="m772.74 384.12h17.014v-1.6605h-17.014z" clip-path="url(#4e42e8053a3)" fill="#1f77b4"/><path d="m794.01 384.12h17.014v-2.2974h-17.014z" clip-path="url(#4e42e8053a3)" fill="#1f77b4"/><path d="m815.28 384.12h17.014v-1.0204h-17.014z" clip-path="url(#4e42e8053a3)" fill="#1f77b4"/><use x="504.767565" y="384.115312" stroke="#000000" stroke-width=".8" xlink:href="#b1e70f39323"/><g transform="translate(501.59 398.71) scale(.1 -.1)"><use xlink:href="#DejaVuSans-13"/></g><use x="526.035609" y="384.115312" stroke="#000000" stroke-width=".8" xlink:href="#b1e70f39323"/><g transform="translate(522.85 398.71) scale(.1 -.1)"><use xlink:href="#DejaVuSans-14"/></g><use x="547.303652" y="384.115312" stroke="#000000" stroke-width=".8" xlink:href="#b1e70f39323"/><g transform="translate(544.12 398.71) scale(.1 -.1)"><use xlink:href="#DejaVuSans-15"/></g><use x="568.571695" y="384.115312" stroke="#000000" stroke-width=".8" xlink:href="#b1e70f39323"/><g transform="translate(565.39 398.71) scale(.1 -.1)"><use xlink:href="#DejaVuSans-16"/></g><use x="589.839739" y="384.115312" stroke="#000000" stroke-width=".8" xlink:href="#b1e70f39323"/><g transform="translate(586.66 398.71) scale(.1 -.1)"><use xlink:href="#DejaVuSans-17"/></g><use x="611.107782" y="384.115312" stroke="#000000" stroke-width=".8" xlink:href="#b1e70f39323"/><g transform="translate(607.93 398.71) scale(.1 -.1)"><defs><path id="DejaVuSans-18" transform="scale(.015625)" d="m691 4666h2478v-532h-1900v-1143q137 47 274 70 138 23 276 23 781 0 1237-428 457-428 457-1159 0-753-469-1171-469-417-1322-417-294 0-599 50-304 50-629 150v635q281-153 581-228t634-75q541 0 856 284 316 284 316 772 0 487-316 771-315 285-856 285-253 0-505-56-251-56-513-175v2344z"/></defs><use xlink:href="#DejaVuSans-18"/></g><use x="632.375826" y="384.115312" stroke="#000000" stroke-width=".8" xlink:href="#b1e70f39323"/><g transform="translate(629.19 398.71) scale(.1 -.1)"><defs><path id="DejaVuSans-19" transform="scale(.015625)" d="m2113 2584q-425 0-674-291-248-290-248-796 0-503 248-796 249-292 674-292t673 292q248 293 248 796 0 506-248 796-248 291-673 291zm1253 1979v-575q-238 112-480 171-242 60-480 60-625 0-955-422-329-422-376-1275 184 272 462 417 279 145 613 145 703 0 1111-427 408-426 408-1160 0-719-425-1154-425-434-1131-434-810 0-1238 620-428 621-428 1799 0 1106 525 1764t1409 658q238 0 480-47t505-140z"/></defs><use xlink:href="#DejaVuSans-19"/></g><use x="653.643869" y="384.115312" stroke="#000000" stroke-width=".8" xlink:href="#b1e70f39323"/><g transform="translate(650.46 398.71) scale(.1 -.1)"><defs><path id="DejaVuSans-1a" transform="scale(.015625)" d="m525 4666h3e3v-269l-1694-4397h-659l1594 4134h-2241v532z"/></defs><use xlink:href="#DejaVuSans-1a"/></g><use x="674.911912" y="384.115312" stroke="#000000" stroke-width=".8" xlink:href="#b1e70f39323"/><g transform="translate(671.73 398.71) scale(.1 -.1)"><defs><path id="DejaVuSans-1b" transform="scale(.015625)" d="m2034 2216q-450 0-708-241-257-241-257-662 0-422 257-663 258-241 708-241t709 242q260 243 260 662 0 421-258 662-257 241-711 241zm-631 268q-406 100-633 378-226 279-226 679 0 559 398 884 399 325 1092 325 697 0 1094-325t397-884q0-400-227-679-226-278-629-378 456-106 710-416 255-309 255-755 0-679-414-1042-414-362-1186-362-771 0-1186 362-414 363-414 1042 0 446 256 755 257 310 713 416zm-231 997q0-362 226-565 227-203 636-203 407 0 636 203 230 203 230 565 0 363-230 566-229 203-636 203-409 0-636-203-226-203-226-566z"/></defs><use xlink:href="#DejaVuSans-1b"/></g><use x="696.179956" y="384.115312" stroke="#000000" stroke-width=".8" xlink:href="#b1e70f39323"/><g transform="translate(693 398.71) scale(.1 -.1)"><defs><path id="DejaVuSans-1c" transform="scale(.015625)" d="m703 97v575q238-113 481-172 244-59 479-59 625 0 954 420 330 420 377 1277-181-269-460-413-278-144-615-144-700 0-1108 423-408 424-408 1159 0 718 425 1152 425 435 1131 435 810 0 1236-621 427-620 427-1801 0-1103-524-1761-523-658-1407-658-238 0-482 47-243 47-506 141zm1256 1978q425 0 673 290 249 291 249 798 0 503-249 795-248 292-673 292t-673-292-248-795q0-507 248-798 248-290 673-290z"/></defs><use xlink:href="#DejaVuSans-1c"/></g><use x="717.447999" y="384.115312" stroke="#000000" stroke-width=".8" xlink:href="#b1e70f39323"/><g transform="translate(711.09 398.71) scale(.1 -.1)"><use xlink:href="#DejaVuSans-14"/><use transform="translate(63.625)" xlink:href="#DejaVuSans-13"/></g><use x="738.716042" y="384.115312" stroke="#000000" stroke-width=".8" xlink:href="#b1e70f39323"/><g transform="translate(732.35 398.71) scale(.1 -.1)"><use xlink:href="#DejaVuSans-14"/><use transform="translate(63.625)" xlink:href="#DejaVuSans-14"/></g><use x="759.984086" y="384.115312" stroke="#000000" stroke-width=".8" xlink:href="#b1e70f39323"/><g transform="translate(753.62 398.71) scale(.1 -.1)"><use xlink:href="#DejaVuSans-14"/><use transform="translate(63.625)" xlink:href="#DejaVuSans-15"/></g><use x="781.252129" y="384.115312" stroke="#000000" stroke-width=".8" xlink:href="#b1e70f39323"/><g transform="translate(774.89 398.71) scale(.1 -.1)"><use xlink:href="#DejaVuSans-14"/><use transform="translate(63.625)" xlink:href="#DejaVuSans-16"/></g><use x="802.520173" y="384.115312" stroke="#000000" stroke-width=".8" xlink:href="#b1e70f39323"/><g transform="translate(796.16 398.71) scale(.1 -.1)"><use xlink:href="#DejaVuSans-14"/><use transform="translate(63.625)" xlink:href="#DejaVuSans-17"/></g><use x="823.788216" y="384.115312" stroke="#000000" stroke-width=".8" xlink:href="#b1e70f39323"/><g transform="translate(817.43 398.71) scale(.1 -.1)"><use xlink:href="#DejaVuSans-14"/><use transform="translate(63.625)" xlink:href="#DejaVuSans-18"/></g><g transform="translate(625.49 414.23) scale(.12 -.12)"><defs><path id="DejaVuSans-32" transform="scale(.015625)" d="m2522 4238q-688 0-1093-513-404-512-404-1397 0-881 404-1394 405-512 1093-512 687 0 1089 512 402 513 402 1394 0 885-402 1397-402 513-1089 513zm0 512q981 0 1568-658 588-658 588-1764 0-1103-588-1761-587-658-1568-658-984 0-1574 656-589 657-589 1763t589 1764q590 658 1574 658z"/><path id="DejaVuSans-45" transform="scale(.015625)" d="m3116 1747q0 634-261 995t-717 361q-457 0-718-361t-261-995 261-995 718-361q456 0 717 361t261 995zm-1957 1222q182 312 458 463 277 152 661 152 638 0 1036-506 399-506 399-1331t-399-1332q-398-506-1036-506-384 0-661 152-276 152-458 464v-525h-578v4863h578v-1894z"/></defs><use xlink:href="#DejaVuSans-32"/><use transform="translate(78.719)" xlink:href="#DejaVuSans-55"/><use transform="translate(119.83)" xlink:href="#DejaVuSans-45"/><use transform="translate(183.31)" xlink:href="#DejaVuSans-4c"/><use transform="translate(211.09)" xlink:href="#DejaVuSans-57"/><use transform="translate(250.3)" xlink:href="#DejaVuSans-44"/><use transform="translate(311.58)" xlink:href="#DejaVuSans-4f"/><use transform="translate(339.36)" xlink:href="#DejaVuSans-3"/><use transform="translate(371.14)" xlink:href="#DejaVuSans-2c"/><use transform="translate(400.64)" xlink:href="#DejaVuSans-51"/><use transform="translate(464.02)" xlink:href="#DejaVuSans-47"/><use transform="translate(527.5)" xlink:href="#DejaVuSans-48"/><use transform="translate(587.28)" xlink:href="#DejaVuSans-5b"/></g><use x="479.458594" y="384.115312" stroke="#000000" stroke-width=".8" xlink:href="#efed65992e9"/><g transform="translate(450.19 387.91) scale(.1 -.1)"><defs><path id="DejaVuSans-11" transform="scale(.015625)" d="m684 794h660v-794h-660v794z"/></defs><use xlink:href="#DejaVuSans-13"/><use transform="translate(63.625)" xlink:href="#DejaVuSans-11"/><use transform="translate(95.406)" xlink:href="#DejaVuSans-13"/><use transform="translate(159.03)" xlink:href="#DejaVuSans-13"/></g><use x="479.458594" y="340.791251" stroke="#000000" stroke-width=".8" xlink:href="#efed65992e9"/><g transform="translate(450.19 344.59) scale(.1 -.1)"><use xlink:href="#DejaVuSans-13"/><use transform="translate(63.625)" xlink:href="#DejaVuSans-11"/><use transform="translate(95.406)" xlink:href="#DejaVuSans-15"/><use transform="translate(159.03)" xlink:href="#DejaVuSans-18"/></g><use x="479.458594" y="297.467189" stroke="#000000" stroke-width=".8" xlink:href="#efed65992e9"/><g transform="translate(450.19 301.27) scale(.1 -.1)"><use xlink:href="#DejaVuSans-13"/><use transform="translate(63.625)" xlink:href="#DejaVuSans-11"/><use transform="translate(95.406)" xlink:href="#DejaVuSans-18"/><use transform="translate(159.03)" xlink:href="#DejaVuSans-13"/></g><use x="479.458594" y="254.143127" stroke="#000000" stroke-width=".8" xlink:href="#efed65992e9"/><g transform="translate(450.19 257.94) scale(.1 -.1)"><use xlink:href="#DejaVuSans-13"/><use transform="translate(63.625)" xlink:href="#DejaVuSans-11"/><use transform="translate(95.406)" xlink:href="#DejaVuSans-1a"/><use transform="translate(159.03)" xlink:href="#DejaVuSans-18"/></g><use x="479.458594" y="210.819066" stroke="#000000" stroke-width=".8" xlink:href="#efed65992e9"/><g transform="translate(450.19 214.62) scale(.1 -.1)"><use xlink:href="#DejaVuSans-14"/><use transform="translate(63.625)" xlink:href="#DejaVuSans-11"/><use transform="translate(95.406)" xlink:href="#DejaVuSans-13"/><use transform="translate(159.03)" xlink:href="#DejaVuSans-13"/></g><use x="479.458594" y="167.495004" stroke="#000000" stroke-width=".8" xlink:href="#efed65992e9"/><g transform="translate(450.19 171.29) scale(.1 -.1)"><use xlink:href="#DejaVuSans-14"/><use transform="translate(63.625)" xlink:href="#DejaVuSans-11"/><use transform="translate(95.406)" xlink:href="#DejaVuSans-15"/><use transform="translate(159.03)" xlink:href="#DejaVuSans-18"/></g><use x="479.458594" y="124.170942" stroke="#000000" stroke-width=".8" xlink:href="#efed65992e9"/><g transform="translate(450.19 127.97) scale(.1 -.1)"><use xlink:href="#DejaVuSans-14"/><use transform="translate(63.625)" xlink:href="#DejaVuSans-11"/><use transform="translate(95.406)" xlink:href="#DejaVuSans-18"/><use transform="translate(159.03)" xlink:href="#DejaVuSans-13"/></g><use x="479.458594" y="80.84688" stroke="#000000" stroke-width=".8" xlink:href="#efed65992e9"/><g transform="translate(450.19 84.646) scale(.1 -.1)"><use xlink:href="#DejaVuSans-14"/><use transform="translate(63.625)" xlink:href="#DejaVuSans-11"/><use transform="translate(95.406)" xlink:href="#DejaVuSans-1a"/><use transform="translate(159.03)" xlink:href="#DejaVuSans-18"/></g><use x="479.458594" y="37.522819" stroke="#000000" stroke-width=".8" xlink:href="#efed65992e9"/><g transform="translate(450.19 41.322) scale(.1 -.1)"><use xlink:href="#DejaVuSans-15"/><use transform="translate(63.625)" xlink:href="#DejaVuSans-11"/><use transform="translate(95.406)" xlink:href="#DejaVuSans-13"/><use transform="translate(159.03)" xlink:href="#DejaVuSans-13"/></g><g transform="translate(443.31 249.5) rotate(-90) scale(.12 -.12)"><use xlink:href="#DejaVuSans-24"/><use transform="translate(62.547)" xlink:href="#DejaVuSans-59"/><use transform="translate(121.73)" xlink:href="#DejaVuSans-4a"/><use transform="translate(185.22)" xlink:href="#DejaVuSans-3"/><use transform="translate(217)" xlink:href="#DejaVuSans-32"/><use transform="translate(295.72)" xlink:href="#DejaVuSans-46"/><use transform="translate(350.7)" xlink:href="#DejaVuSans-46"/><use transform="translate(405.69)" xlink:href="#DejaVuSans-58"/><use transform="translate(469.06)" xlink:href="#DejaVuSans-53"/><use transform="translate(532.55)" xlink:href="#DejaVuSans-44"/><use transform="translate(593.83)" xlink:href="#DejaVuSans-51"/><use transform="translate(657.2)" xlink:href="#DejaVuSans-46"/><use transform="translate(712.19)" xlink:href="#DejaVuSans-5c"/></g><path d="m479.46 384.12v-361.8" fill="none" stroke="#000000" stroke-linecap="square" stroke-width=".8"/><path d="m849.1 384.12v-361.8" fill="none" stroke="#000000" stroke-linecap="square" stroke-width=".8"/><path d="m479.46 384.12h369.64" fill="none" stroke="#000000" stroke-linecap="square" stroke-width=".8"/><path d="m479.46 22.318h369.64" fill="none" stroke="#000000" stroke-linecap="square" stroke-width=".8"/><g transform="translate(561.29 16.318) scale(.12 -.12)"><use xlink:href="#DejaVuSans-24"/><use transform="translate(62.547)" xlink:href="#DejaVuSans-59"/><use transform="translate(121.73)" xlink:href="#DejaVuSans-4a"/><use transform="translate(185.22)" xlink:href="#DejaVuSans-3"/><use transform="translate(217)" xlink:href="#DejaVuSans-32"/><use transform="translate(295.72)" xlink:href="#DejaVuSans-46"/><use transform="translate(350.7)" xlink:href="#DejaVuSans-46"/><use transform="translate(405.69)" xlink:href="#DejaVuSans-58"/><use transform="translate(469.06)" xlink:href="#DejaVuSans-53"/><use transform="translate(532.55)" xlink:href="#DejaVuSans-44"/><use transform="translate(593.83)" xlink:href="#DejaVuSans-51"/><use transform="translate(657.2)" xlink:href="#DejaVuSans-46"/><use transform="translate(712.19)" xlink:href="#DejaVuSans-5c"/><use transform="translate(771.38)" xlink:href="#DejaVuSans-3"/><use transform="translate(803.16)" xlink:href="#DejaVuSans-53"/><use transform="translate(866.64)" xlink:href="#DejaVuSans-48"/><use transform="translate(928.17)" xlink:href="#DejaVuSans-55"/><use transform="translate(969.28)" xlink:href="#DejaVuSans-3"/><use transform="translate(1001.1)" xlink:href="#DejaVuSans-36"/><use transform="translate(1064.5)" xlink:href="#DejaVuSans-53"/><use transform="translate(1128)" xlink:href="#DejaVuSans-44"/><use transform="translate(1189.3)" xlink:href="#DejaVuSans-57"/><use transform="translate(1228.5)" xlink:href="#DejaVuSans-4c"/><use transform="translate(1256.3)" xlink:href="#DejaVuSans-44"/><use transform="translate(1317.6)" xlink:href="#DejaVuSans-4f"/><use transform="translate(1345.4)" xlink:href="#DejaVuSans-3"/><use transform="translate(1377.1)" xlink:href="#DejaVuSans-32"/><use transform="translate(1455.9)" xlink:href="#DejaVuSans-55"/><use transform="translate(1497)" xlink:href="#DejaVuSans-45"/><use transform="translate(1560.5)" xlink:href="#DejaVuSans-4c"/><use transform="translate(1588.2)" xlink:href="#DejaVuSans-57"/><use transform="translate(1627.4)" xlink:href="#DejaVuSans-44"/><use transform="translate(1688.7)" xlink:href="#DejaVuSans-4f"/></g><defs><clipPath id="347de8ca9e7"><rect x="53.7" y="22.318" width="369.64" height="361.8"/></clipPath><clipPath id="4e42e8053a3"><rect x="479.46" y="22.318" width="369.64" height="361.8"/></clipPath></defs></svg>