<?xml version="1.0" encoding="UTF-8"?><!DOCTYPE svg  PUBLIC '-//W3C//DTD SVG 1.1//EN'  'http://www.w3.org/Graphics/SVG/1.1/DTD/svg11.dtd'><svg width="127.32pt" height="125.65pt" version="1.1" viewBox="0 0 127.32 125.65" xmlns="http://www.w3.org/2000/svg" xmlns:xlink="http://www.w3.org/1999/xlink"><defs><style type="text/css">*{stroke-linejoin: round; stroke-linecap: butt}</style></defs><path d="m-0 125.65h127.32v-125.65h-127.32z" fill="#ffffff"/><path d="m64.497 44.283h50.989" clip-path="url(#422941849ec)" fill="none" stroke="#000000" stroke-linecap="square" stroke-width="2"/><path d="m64.497 90.637h50.989" clip-path="url(#422941849ec)" fill="none" stroke="#000000" stroke-linecap="square" stroke-width="2"/><path d="m59.862 21.106h-1158.8v139.06h1158.8z" clip-path="url(#422941849ec)" fill="#ffffff" stroke="#ffffff" stroke-width="1.5"/><path d="m74.463 59.348h30.13v-30.13h-30.13z" clip-path="url(#422941849ec)" fill="#002d9c" stroke="#002d9c" stroke-width="1.5"/><g clip-path="url(#422941849ec)"><g transform="translate(37.189 48.734) scale(.1625 -.1625)"><defs><path id="DejaVuSans-Oblique-71" transform="scale(.015625)" d="m2669 525q-231-303-546-460-314-156-695-156-531 0-833 358-301 358-301 986 0 506 186 978t533 847q225 244 517 375t614 131q387 0 637-153t363-462l100 525h578l-934-4813h-579l360 1844zm-1778 813q0-463 193-705 194-242 560-242 544 0 928 520t384 1264q0 450-199 689-198 239-569 239-272 0-504-127-231-126-403-370-181-256-286-600-104-343-104-668z"/><path id="DejaVuSans-30" transform="scale(.015625)" d="m2034 4250q-487 0-733-480-245-479-245-1442 0-959 245-1439 246-480 733-480 491 0 736 480 246 480 246 1439 0 963-246 1442-245 480-736 480zm0 500q785 0 1199-621 414-620 414-1801 0-1178-414-1799-414-620-1199-620-784 0-1198 620-414 621-414 1799 0 1181 414 1801 414 621 1198 621z"/></defs><use xlink:href="#DejaVuSans-Oblique-71"/><use transform="translate(63.477 -16.406) scale(.7)" xlink:href="#DejaVuSans-30"/></g></g><g clip-path="url(#422941849ec)"><g transform="translate(37.189 95.088) scale(.1625 -.1625)"><defs><path id="DejaVuSans-31" transform="scale(.015625)" d="m794 531h1031v3560l-1122-225v575l1116 225h631v-4135h1031v-531h-2687v531z"/></defs><use xlink:href="#DejaVuSans-Oblique-71"/><use transform="translate(63.477 -16.406) scale(.7)" xlink:href="#DejaVuSans-31"/></g></g><g clip-path="url(#422941849ec)"><g transform="translate(85.076 47.87) scale(.13 -.13)" fill="#ffffff"><defs><path id="DejaVuSans-58" transform="scale(.015625)" d="m403 4666h678l1160-1735 1165 1735h678l-1500-2241 1600-2425h-678l-1312 1984-1322-1984h-681l1665 2491-1453 2175z"/></defs><use xlink:href="#DejaVuSans-58"/></g></g><defs><clipPath id="422941849ec"><rect x="7.2" y="7.2" width="112.92" height="111.25"/></clipPath></defs></svg>