<?xml version="1.0" encoding="utf-8" standalone="no"?>
<!DOCTYPE svg PUBLIC "-//W3C//DTD SVG 1.1//EN"
  "http://www.w3.org/Graphics/SVG/1.1/DTD/svg11.dtd">
<svg xmlns:xlink="http://www.w3.org/1999/xlink" width="1328.528498pt" height="385.279995pt" viewBox="0 0 1328.528498 385.279995" xmlns="http://www.w3.org/2000/svg" version="1.1">
 <metadata>
  <rdf:RDF xmlns:dc="http://purl.org/dc/elements/1.1/" xmlns:cc="http://creativecommons.org/ns#" xmlns:rdf="http://www.w3.org/1999/02/22-rdf-syntax-ns#">
   <cc:Work>
    <dc:type rdf:resource="http://purl.org/dc/dcmitype/StillImage"/>
    <dc:date>2025-03-28T17:48:31.739954</dc:date>
    <dc:format>image/svg+xml</dc:format>
    <dc:creator>
     <cc:Agent>
      <dc:title>Matplotlib v3.9.4, https://matplotlib.org/</dc:title>
     </cc:Agent>
    </dc:creator>
   </cc:Work>
  </rdf:RDF>
 </metadata>
 <defs>
  <style type="text/css">*{stroke-linejoin: round; stroke-linecap: butt}</style>
 </defs>
 <g id="figure_1">
  <g id="patch_1">
   <path d="M 0 385.279995 
L 1328.528498 385.279995 
L 1328.528498 0 
L 0 0 
z
" style="fill: #ffffff"/>
  </g>
  <g id="axes_1">
   <g id="line2d_1">
    <path d="M 256.00354 83.316799 
L 1187.718927 83.316799 
" clip-path="url(#pc228a71efb)" style="fill: none; stroke: #000000; stroke-width: 2; stroke-linecap: square"/>
   </g>
   <g id="line2d_2">
    <path d="M 256.00354 129.670798 
L 1187.718927 129.670798 
" clip-path="url(#pc228a71efb)" style="fill: none; stroke: #000000; stroke-width: 2; stroke-linecap: square"/>
   </g>
   <g id="line2d_3">
    <path d="M 256.00354 176.024798 
L 1187.718927 176.024798 
" clip-path="url(#pc228a71efb)" style="fill: none; stroke: #000000; stroke-width: 2; stroke-linecap: square"/>
   </g>
   <g id="line2d_4">
    <path d="M 256.00354 222.378797 
L 1187.718927 222.378797 
" clip-path="url(#pc228a71efb)" style="fill: none; stroke: #000000; stroke-width: 2; stroke-linecap: square"/>
   </g>
   <g id="line2d_5">
    <path d="M 256.00354 268.732796 
L 1187.718927 268.732796 
" clip-path="url(#pc228a71efb)" style="fill: none; stroke: #000000; stroke-width: 2; stroke-linecap: square"/>
   </g>
   <g id="line2d_6">
    <path d="M 256.00354 315.086796 
L 1187.718927 315.086796 
" clip-path="url(#pc228a71efb)" style="fill: none; stroke: #000000; stroke-width: 2; stroke-linecap: square"/>
   </g>
   <g id="patch_2">
    <path d="M 251.36814 60.139799 
L -907.481845 60.139799 
L -907.481845 384.617795 
L 251.36814 384.617795 
z
" clip-path="url(#pc228a71efb)" style="fill: #ffffff; stroke: #ffffff; stroke-width: 1.5; stroke-linejoin: miter"/>
   </g>
   <g id="line2d_7">
    <path d="M 304.211699 176.024798 
L 304.211699 129.670798 
" clip-path="url(#pc228a71efb)" style="fill: none; stroke: #33b1ff; stroke-width: 2; stroke-linecap: square"/>
   </g>
   <g id="line2d_8">
    <path d="M 304.211699 268.732796 
L 304.211699 222.378797 
" clip-path="url(#pc228a71efb)" style="fill: none; stroke: #33b1ff; stroke-width: 2; stroke-linecap: square"/>
   </g>
   <g id="line2d_9">
    <path d="M 396.919698 129.670798 
L 396.919698 83.316799 
" clip-path="url(#pc228a71efb)" style="fill: none; stroke: #33b1ff; stroke-width: 2; stroke-linecap: square"/>
   </g>
   <g id="line2d_10">
    <path d="M 396.919698 222.378797 
L 396.919698 176.024798 
" clip-path="url(#pc228a71efb)" style="fill: none; stroke: #33b1ff; stroke-width: 2; stroke-linecap: square"/>
   </g>
   <g id="line2d_11">
    <path d="M 396.919698 315.086796 
L 396.919698 268.732796 
" clip-path="url(#pc228a71efb)" style="fill: none; stroke: #33b1ff; stroke-width: 2; stroke-linecap: square"/>
   </g>
   <g id="line2d_12">
    <path d="M 582.335695 129.670798 
L 582.335695 83.316799 
" clip-path="url(#pc228a71efb)" style="fill: none; stroke: #33b1ff; stroke-width: 2; stroke-linecap: square"/>
   </g>
   <g id="line2d_13">
    <path d="M 582.335695 222.378797 
L 582.335695 176.024798 
" clip-path="url(#pc228a71efb)" style="fill: none; stroke: #33b1ff; stroke-width: 2; stroke-linecap: square"/>
   </g>
   <g id="line2d_14">
    <path d="M 582.335695 315.086796 
L 582.335695 268.732796 
" clip-path="url(#pc228a71efb)" style="fill: none; stroke: #33b1ff; stroke-width: 2; stroke-linecap: square"/>
   </g>
   <g id="line2d_15">
    <path d="M 675.043694 176.024798 
L 675.043694 129.670798 
" clip-path="url(#pc228a71efb)" style="fill: none; stroke: #33b1ff; stroke-width: 2; stroke-linecap: square"/>
   </g>
   <g id="line2d_16">
    <path d="M 675.043694 268.732796 
L 675.043694 222.378797 
" clip-path="url(#pc228a71efb)" style="fill: none; stroke: #33b1ff; stroke-width: 2; stroke-linecap: square"/>
   </g>
   <g id="line2d_17">
    <path d="M 767.751693 176.024798 
L 767.751693 129.670798 
" clip-path="url(#pc228a71efb)" style="fill: none; stroke: #33b1ff; stroke-width: 2; stroke-linecap: square"/>
   </g>
   <g id="line2d_18">
    <path d="M 767.751693 268.732796 
L 767.751693 222.378797 
" clip-path="url(#pc228a71efb)" style="fill: none; stroke: #33b1ff; stroke-width: 2; stroke-linecap: square"/>
   </g>
   <g id="line2d_19">
    <path d="M 860.459692 129.670798 
L 860.459692 83.316799 
" clip-path="url(#pc228a71efb)" style="fill: none; stroke: #33b1ff; stroke-width: 2; stroke-linecap: square"/>
   </g>
   <g id="line2d_20">
    <path d="M 860.459692 222.378797 
L 860.459692 176.024798 
" clip-path="url(#pc228a71efb)" style="fill: none; stroke: #33b1ff; stroke-width: 2; stroke-linecap: square"/>
   </g>
   <g id="line2d_21">
    <path d="M 860.459692 315.086796 
L 860.459692 268.732796 
" clip-path="url(#pc228a71efb)" style="fill: none; stroke: #33b1ff; stroke-width: 2; stroke-linecap: square"/>
   </g>
   <g id="line2d_22">
    <path d="M 1045.875689 129.670798 
L 1045.875689 83.316799 
" clip-path="url(#pc228a71efb)" style="fill: none; stroke: #33b1ff; stroke-width: 2; stroke-linecap: square"/>
   </g>
   <g id="line2d_23">
    <path d="M 1045.875689 222.378797 
L 1045.875689 176.024798 
" clip-path="url(#pc228a71efb)" style="fill: none; stroke: #33b1ff; stroke-width: 2; stroke-linecap: square"/>
   </g>
   <g id="line2d_24">
    <path d="M 1045.875689 315.086796 
L 1045.875689 268.732796 
" clip-path="url(#pc228a71efb)" style="fill: none; stroke: #33b1ff; stroke-width: 2; stroke-linecap: square"/>
   </g>
   <g id="line2d_25">
    <path d="M 1138.583688 176.024798 
L 1138.583688 129.670798 
" clip-path="url(#pc228a71efb)" style="fill: none; stroke: #33b1ff; stroke-width: 2; stroke-linecap: square"/>
   </g>
   <g id="line2d_26">
    <path d="M 1138.583688 268.732796 
L 1138.583688 222.378797 
" clip-path="url(#pc228a71efb)" style="fill: none; stroke: #33b1ff; stroke-width: 2; stroke-linecap: square"/>
   </g>
   <g id="patch_3">
    <path d="M 304.211699 134.190313 
C 305.410288 134.190313 306.559948 133.714109 307.407479 132.866578 
C 308.255009 132.019047 308.731214 130.869388 308.731214 129.670798 
C 308.731214 128.472209 308.255009 127.322549 307.407479 126.475019 
C 306.559948 125.627488 305.410288 125.151283 304.211699 125.151283 
C 303.01311 125.151283 301.86345 125.627488 301.015919 126.475019 
C 300.168389 127.322549 299.692184 128.472209 299.692184 129.670798 
C 299.692184 130.869388 300.168389 132.019047 301.015919 132.866578 
C 301.86345 133.714109 303.01311 134.190313 304.211699 134.190313 
z
" clip-path="url(#pc228a71efb)" style="fill: #33b1ff; stroke: #33b1ff; stroke-width: 1.5; stroke-linejoin: miter"/>
   </g>
   <g id="patch_4">
    <path d="M 304.211699 180.544313 
C 305.410288 180.544313 306.559948 180.068108 307.407479 179.220577 
C 308.255009 178.373047 308.731214 177.223387 308.731214 176.024798 
C 308.731214 174.826208 308.255009 173.676549 307.407479 172.829018 
C 306.559948 171.981487 305.410288 171.505283 304.211699 171.505283 
C 303.01311 171.505283 301.86345 171.981487 301.015919 172.829018 
C 300.168389 173.676549 299.692184 174.826208 299.692184 176.024798 
C 299.692184 177.223387 300.168389 178.373047 301.015919 179.220577 
C 301.86345 180.068108 303.01311 180.544313 304.211699 180.544313 
z
" clip-path="url(#pc228a71efb)" style="fill: #33b1ff; stroke: #33b1ff; stroke-width: 1.5; stroke-linejoin: miter"/>
   </g>
   <g id="patch_5">
    <path d="M 304.211699 226.898312 
C 305.410288 226.898312 306.559948 226.422107 307.407479 225.574577 
C 308.255009 224.727046 308.731214 223.577386 308.731214 222.378797 
C 308.731214 221.180208 308.255009 220.030548 307.407479 219.183017 
C 306.559948 218.335487 305.410288 217.859282 304.211699 217.859282 
C 303.01311 217.859282 301.86345 218.335487 301.015919 219.183017 
C 300.168389 220.030548 299.692184 221.180208 299.692184 222.378797 
C 299.692184 223.577386 300.168389 224.727046 301.015919 225.574577 
C 301.86345 226.422107 303.01311 226.898312 304.211699 226.898312 
z
" clip-path="url(#pc228a71efb)" style="fill: #33b1ff; stroke: #33b1ff; stroke-width: 1.5; stroke-linejoin: miter"/>
   </g>
   <g id="patch_6">
    <path d="M 304.211699 273.252311 
C 305.410288 273.252311 306.559948 272.776107 307.407479 271.928576 
C 308.255009 271.081045 308.731214 269.931386 308.731214 268.732796 
C 308.731214 267.534207 308.255009 266.384547 307.407479 265.537017 
C 306.559948 264.689486 305.410288 264.213281 304.211699 264.213281 
C 303.01311 264.213281 301.86345 264.689486 301.015919 265.537017 
C 300.168389 266.384547 299.692184 267.534207 299.692184 268.732796 
C 299.692184 269.931386 300.168389 271.081045 301.015919 271.928576 
C 301.86345 272.776107 303.01311 273.252311 304.211699 273.252311 
z
" clip-path="url(#pc228a71efb)" style="fill: #33b1ff; stroke: #33b1ff; stroke-width: 1.5; stroke-linejoin: miter"/>
   </g>
   <g id="patch_7">
    <path d="M 396.919698 87.836314 
C 398.118287 87.836314 399.267947 87.360109 400.115477 86.512579 
C 400.963008 85.665048 401.439213 84.515388 401.439213 83.316799 
C 401.439213 82.11821 400.963008 80.96855 400.115477 80.121019 
C 399.267947 79.273489 398.118287 78.797284 396.919698 78.797284 
C 395.721108 78.797284 394.571449 79.273489 393.723918 80.121019 
C 392.876388 80.96855 392.400183 82.11821 392.400183 83.316799 
C 392.400183 84.515388 392.876388 85.665048 393.723918 86.512579 
C 394.571449 87.360109 395.721108 87.836314 396.919698 87.836314 
z
" clip-path="url(#pc228a71efb)" style="fill: #33b1ff; stroke: #33b1ff; stroke-width: 1.5; stroke-linejoin: miter"/>
   </g>
   <g id="patch_8">
    <path d="M 396.919698 134.190313 
C 398.118287 134.190313 399.267947 133.714109 400.115477 132.866578 
C 400.963008 132.019047 401.439213 130.869388 401.439213 129.670798 
C 401.439213 128.472209 400.963008 127.322549 400.115477 126.475019 
C 399.267947 125.627488 398.118287 125.151283 396.919698 125.151283 
C 395.721108 125.151283 394.571449 125.627488 393.723918 126.475019 
C 392.876388 127.322549 392.400183 128.472209 392.400183 129.670798 
C 392.400183 130.869388 392.876388 132.019047 393.723918 132.866578 
C 394.571449 133.714109 395.721108 134.190313 396.919698 134.190313 
z
" clip-path="url(#pc228a71efb)" style="fill: #33b1ff; stroke: #33b1ff; stroke-width: 1.5; stroke-linejoin: miter"/>
   </g>
   <g id="patch_9">
    <path d="M 396.919698 180.544313 
C 398.118287 180.544313 399.267947 180.068108 400.115477 179.220577 
C 400.963008 178.373047 401.439213 177.223387 401.439213 176.024798 
C 401.439213 174.826208 400.963008 173.676549 400.115477 172.829018 
C 399.267947 171.981487 398.118287 171.505283 396.919698 171.505283 
C 395.721108 171.505283 394.571449 171.981487 393.723918 172.829018 
C 392.876388 173.676549 392.400183 174.826208 392.400183 176.024798 
C 392.400183 177.223387 392.876388 178.373047 393.723918 179.220577 
C 394.571449 180.068108 395.721108 180.544313 396.919698 180.544313 
z
" clip-path="url(#pc228a71efb)" style="fill: #33b1ff; stroke: #33b1ff; stroke-width: 1.5; stroke-linejoin: miter"/>
   </g>
   <g id="patch_10">
    <path d="M 396.919698 226.898312 
C 398.118287 226.898312 399.267947 226.422107 400.115477 225.574577 
C 400.963008 224.727046 401.439213 223.577386 401.439213 222.378797 
C 401.439213 221.180208 400.963008 220.030548 400.115477 219.183017 
C 399.267947 218.335487 398.118287 217.859282 396.919698 217.859282 
C 395.721108 217.859282 394.571449 218.335487 393.723918 219.183017 
C 392.876388 220.030548 392.400183 221.180208 392.400183 222.378797 
C 392.400183 223.577386 392.876388 224.727046 393.723918 225.574577 
C 394.571449 226.422107 395.721108 226.898312 396.919698 226.898312 
z
" clip-path="url(#pc228a71efb)" style="fill: #33b1ff; stroke: #33b1ff; stroke-width: 1.5; stroke-linejoin: miter"/>
   </g>
   <g id="patch_11">
    <path d="M 396.919698 273.252311 
C 398.118287 273.252311 399.267947 272.776107 400.115477 271.928576 
C 400.963008 271.081045 401.439213 269.931386 401.439213 268.732796 
C 401.439213 267.534207 400.963008 266.384547 400.115477 265.537017 
C 399.267947 264.689486 398.118287 264.213281 396.919698 264.213281 
C 395.721108 264.213281 394.571449 264.689486 393.723918 265.537017 
C 392.876388 266.384547 392.400183 267.534207 392.400183 268.732796 
C 392.400183 269.931386 392.876388 271.081045 393.723918 271.928576 
C 394.571449 272.776107 395.721108 273.252311 396.919698 273.252311 
z
" clip-path="url(#pc228a71efb)" style="fill: #33b1ff; stroke: #33b1ff; stroke-width: 1.5; stroke-linejoin: miter"/>
   </g>
   <g id="patch_12">
    <path d="M 396.919698 319.606311 
C 398.118287 319.606311 399.267947 319.130106 400.115477 318.282575 
C 400.963008 317.435045 401.439213 316.285385 401.439213 315.086796 
C 401.439213 313.888206 400.963008 312.738547 400.115477 311.891016 
C 399.267947 311.043485 398.118287 310.567281 396.919698 310.567281 
C 395.721108 310.567281 394.571449 311.043485 393.723918 311.891016 
C 392.876388 312.738547 392.400183 313.888206 392.400183 315.086796 
C 392.400183 316.285385 392.876388 317.435045 393.723918 318.282575 
C 394.571449 319.130106 395.721108 319.606311 396.919698 319.606311 
z
" clip-path="url(#pc228a71efb)" style="fill: #33b1ff; stroke: #33b1ff; stroke-width: 1.5; stroke-linejoin: miter"/>
   </g>
   <g id="patch_13">
    <path d="M 451.385647 98.381849 
L 481.515747 98.381849 
L 481.515747 68.251749 
L 451.385647 68.251749 
z
" clip-path="url(#pc228a71efb)" style="fill: #9f1853; stroke: #9f1853; stroke-width: 1.5; stroke-linejoin: miter"/>
   </g>
   <g id="patch_14">
    <path d="M 451.385647 144.735848 
L 481.515747 144.735848 
L 481.515747 114.605748 
L 451.385647 114.605748 
z
" clip-path="url(#pc228a71efb)" style="fill: #9f1853; stroke: #9f1853; stroke-width: 1.5; stroke-linejoin: miter"/>
   </g>
   <g id="patch_15">
    <path d="M 451.385647 191.089847 
L 481.515747 191.089847 
L 481.515747 160.959748 
L 451.385647 160.959748 
z
" clip-path="url(#pc228a71efb)" style="fill: #9f1853; stroke: #9f1853; stroke-width: 1.5; stroke-linejoin: miter"/>
   </g>
   <g id="patch_16">
    <path d="M 451.385647 237.443847 
L 481.515747 237.443847 
L 481.515747 207.313747 
L 451.385647 207.313747 
z
" clip-path="url(#pc228a71efb)" style="fill: #9f1853; stroke: #9f1853; stroke-width: 1.5; stroke-linejoin: miter"/>
   </g>
   <g id="patch_17">
    <path d="M 451.385647 283.797846 
L 481.515747 283.797846 
L 481.515747 253.667747 
L 451.385647 253.667747 
z
" clip-path="url(#pc228a71efb)" style="fill: #9f1853; stroke: #9f1853; stroke-width: 1.5; stroke-linejoin: miter"/>
   </g>
   <g id="patch_18">
    <path d="M 451.385647 330.151846 
L 481.515747 330.151846 
L 481.515747 300.021746 
L 451.385647 300.021746 
z
" clip-path="url(#pc228a71efb)" style="fill: #9f1853; stroke: #9f1853; stroke-width: 1.5; stroke-linejoin: miter"/>
   </g>
   <g id="patch_19">
    <path d="M 497.739646 98.381849 
L 527.869746 98.381849 
L 527.869746 68.251749 
L 497.739646 68.251749 
z
" clip-path="url(#pc228a71efb)" style="fill: #9f1853; stroke: #9f1853; stroke-width: 1.5; stroke-linejoin: miter"/>
   </g>
   <g id="patch_20">
    <path d="M 497.739646 144.735848 
L 527.869746 144.735848 
L 527.869746 114.605748 
L 497.739646 114.605748 
z
" clip-path="url(#pc228a71efb)" style="fill: #9f1853; stroke: #9f1853; stroke-width: 1.5; stroke-linejoin: miter"/>
   </g>
   <g id="patch_21">
    <path d="M 497.739646 191.089847 
L 527.869746 191.089847 
L 527.869746 160.959748 
L 497.739646 160.959748 
z
" clip-path="url(#pc228a71efb)" style="fill: #9f1853; stroke: #9f1853; stroke-width: 1.5; stroke-linejoin: miter"/>
   </g>
   <g id="patch_22">
    <path d="M 497.739646 237.443847 
L 527.869746 237.443847 
L 527.869746 207.313747 
L 497.739646 207.313747 
z
" clip-path="url(#pc228a71efb)" style="fill: #9f1853; stroke: #9f1853; stroke-width: 1.5; stroke-linejoin: miter"/>
   </g>
   <g id="patch_23">
    <path d="M 497.739646 283.797846 
L 527.869746 283.797846 
L 527.869746 253.667747 
L 497.739646 253.667747 
z
" clip-path="url(#pc228a71efb)" style="fill: #9f1853; stroke: #9f1853; stroke-width: 1.5; stroke-linejoin: miter"/>
   </g>
   <g id="patch_24">
    <path d="M 582.335695 87.836314 
C 583.534285 87.836314 584.683944 87.360109 585.531475 86.512579 
C 586.379006 85.665048 586.85521 84.515388 586.85521 83.316799 
C 586.85521 82.11821 586.379006 80.96855 585.531475 80.121019 
C 584.683944 79.273489 583.534285 78.797284 582.335695 78.797284 
C 581.137106 78.797284 579.987446 79.273489 579.139916 80.121019 
C 578.292385 80.96855 577.81618 82.11821 577.81618 83.316799 
C 577.81618 84.515388 578.292385 85.665048 579.139916 86.512579 
C 579.987446 87.360109 581.137106 87.836314 582.335695 87.836314 
z
" clip-path="url(#pc228a71efb)" style="fill: #33b1ff; stroke: #33b1ff; stroke-width: 1.5; stroke-linejoin: miter"/>
   </g>
   <g id="patch_25">
    <path d="M 582.335695 134.190313 
C 583.534285 134.190313 584.683944 133.714109 585.531475 132.866578 
C 586.379006 132.019047 586.85521 130.869388 586.85521 129.670798 
C 586.85521 128.472209 586.379006 127.322549 585.531475 126.475019 
C 584.683944 125.627488 583.534285 125.151283 582.335695 125.151283 
C 581.137106 125.151283 579.987446 125.627488 579.139916 126.475019 
C 578.292385 127.322549 577.81618 128.472209 577.81618 129.670798 
C 577.81618 130.869388 578.292385 132.019047 579.139916 132.866578 
C 579.987446 133.714109 581.137106 134.190313 582.335695 134.190313 
z
" clip-path="url(#pc228a71efb)" style="fill: #33b1ff; stroke: #33b1ff; stroke-width: 1.5; stroke-linejoin: miter"/>
   </g>
   <g id="patch_26">
    <path d="M 582.335695 180.544313 
C 583.534285 180.544313 584.683944 180.068108 585.531475 179.220577 
C 586.379006 178.373047 586.85521 177.223387 586.85521 176.024798 
C 586.85521 174.826208 586.379006 173.676549 585.531475 172.829018 
C 584.683944 171.981487 583.534285 171.505283 582.335695 171.505283 
C 581.137106 171.505283 579.987446 171.981487 579.139916 172.829018 
C 578.292385 173.676549 577.81618 174.826208 577.81618 176.024798 
C 577.81618 177.223387 578.292385 178.373047 579.139916 179.220577 
C 579.987446 180.068108 581.137106 180.544313 582.335695 180.544313 
z
" clip-path="url(#pc228a71efb)" style="fill: #33b1ff; stroke: #33b1ff; stroke-width: 1.5; stroke-linejoin: miter"/>
   </g>
   <g id="patch_27">
    <path d="M 582.335695 226.898312 
C 583.534285 226.898312 584.683944 226.422107 585.531475 225.574577 
C 586.379006 224.727046 586.85521 223.577386 586.85521 222.378797 
C 586.85521 221.180208 586.379006 220.030548 585.531475 219.183017 
C 584.683944 218.335487 583.534285 217.859282 582.335695 217.859282 
C 581.137106 217.859282 579.987446 218.335487 579.139916 219.183017 
C 578.292385 220.030548 577.81618 221.180208 577.81618 222.378797 
C 577.81618 223.577386 578.292385 224.727046 579.139916 225.574577 
C 579.987446 226.422107 581.137106 226.898312 582.335695 226.898312 
z
" clip-path="url(#pc228a71efb)" style="fill: #33b1ff; stroke: #33b1ff; stroke-width: 1.5; stroke-linejoin: miter"/>
   </g>
   <g id="patch_28">
    <path d="M 582.335695 273.252311 
C 583.534285 273.252311 584.683944 272.776107 585.531475 271.928576 
C 586.379006 271.081045 586.85521 269.931386 586.85521 268.732796 
C 586.85521 267.534207 586.379006 266.384547 585.531475 265.537017 
C 584.683944 264.689486 583.534285 264.213281 582.335695 264.213281 
C 581.137106 264.213281 579.987446 264.689486 579.139916 265.537017 
C 578.292385 266.384547 577.81618 267.534207 577.81618 268.732796 
C 577.81618 269.931386 578.292385 271.081045 579.139916 271.928576 
C 579.987446 272.776107 581.137106 273.252311 582.335695 273.252311 
z
" clip-path="url(#pc228a71efb)" style="fill: #33b1ff; stroke: #33b1ff; stroke-width: 1.5; stroke-linejoin: miter"/>
   </g>
   <g id="patch_29">
    <path d="M 582.335695 319.606311 
C 583.534285 319.606311 584.683944 319.130106 585.531475 318.282575 
C 586.379006 317.435045 586.85521 316.285385 586.85521 315.086796 
C 586.85521 313.888206 586.379006 312.738547 585.531475 311.891016 
C 584.683944 311.043485 583.534285 310.567281 582.335695 310.567281 
C 581.137106 310.567281 579.987446 311.043485 579.139916 311.891016 
C 578.292385 312.738547 577.81618 313.888206 577.81618 315.086796 
C 577.81618 316.285385 578.292385 317.435045 579.139916 318.282575 
C 579.987446 319.130106 581.137106 319.606311 582.335695 319.606311 
z
" clip-path="url(#pc228a71efb)" style="fill: #33b1ff; stroke: #33b1ff; stroke-width: 1.5; stroke-linejoin: miter"/>
   </g>
   <g id="patch_30">
    <path d="M 675.043694 134.190313 
C 676.242284 134.190313 677.391943 133.714109 678.239474 132.866578 
C 679.087004 132.019047 679.563209 130.869388 679.563209 129.670798 
C 679.563209 128.472209 679.087004 127.322549 678.239474 126.475019 
C 677.391943 125.627488 676.242284 125.151283 675.043694 125.151283 
C 673.845105 125.151283 672.695445 125.627488 671.847914 126.475019 
C 671.000384 127.322549 670.524179 128.472209 670.524179 129.670798 
C 670.524179 130.869388 671.000384 132.019047 671.847914 132.866578 
C 672.695445 133.714109 673.845105 134.190313 675.043694 134.190313 
z
" clip-path="url(#pc228a71efb)" style="fill: #33b1ff; stroke: #33b1ff; stroke-width: 1.5; stroke-linejoin: miter"/>
   </g>
   <g id="patch_31">
    <path d="M 675.043694 180.544313 
C 676.242284 180.544313 677.391943 180.068108 678.239474 179.220577 
C 679.087004 178.373047 679.563209 177.223387 679.563209 176.024798 
C 679.563209 174.826208 679.087004 173.676549 678.239474 172.829018 
C 677.391943 171.981487 676.242284 171.505283 675.043694 171.505283 
C 673.845105 171.505283 672.695445 171.981487 671.847914 172.829018 
C 671.000384 173.676549 670.524179 174.826208 670.524179 176.024798 
C 670.524179 177.223387 671.000384 178.373047 671.847914 179.220577 
C 672.695445 180.068108 673.845105 180.544313 675.043694 180.544313 
z
" clip-path="url(#pc228a71efb)" style="fill: #33b1ff; stroke: #33b1ff; stroke-width: 1.5; stroke-linejoin: miter"/>
   </g>
   <g id="patch_32">
    <path d="M 675.043694 226.898312 
C 676.242284 226.898312 677.391943 226.422107 678.239474 225.574577 
C 679.087004 224.727046 679.563209 223.577386 679.563209 222.378797 
C 679.563209 221.180208 679.087004 220.030548 678.239474 219.183017 
C 677.391943 218.335487 676.242284 217.859282 675.043694 217.859282 
C 673.845105 217.859282 672.695445 218.335487 671.847914 219.183017 
C 671.000384 220.030548 670.524179 221.180208 670.524179 222.378797 
C 670.524179 223.577386 671.000384 224.727046 671.847914 225.574577 
C 672.695445 226.422107 673.845105 226.898312 675.043694 226.898312 
z
" clip-path="url(#pc228a71efb)" style="fill: #33b1ff; stroke: #33b1ff; stroke-width: 1.5; stroke-linejoin: miter"/>
   </g>
   <g id="patch_33">
    <path d="M 675.043694 273.252311 
C 676.242284 273.252311 677.391943 272.776107 678.239474 271.928576 
C 679.087004 271.081045 679.563209 269.931386 679.563209 268.732796 
C 679.563209 267.534207 679.087004 266.384547 678.239474 265.537017 
C 677.391943 264.689486 676.242284 264.213281 675.043694 264.213281 
C 673.845105 264.213281 672.695445 264.689486 671.847914 265.537017 
C 671.000384 266.384547 670.524179 267.534207 670.524179 268.732796 
C 670.524179 269.931386 671.000384 271.081045 671.847914 271.928576 
C 672.695445 272.776107 673.845105 273.252311 675.043694 273.252311 
z
" clip-path="url(#pc228a71efb)" style="fill: #33b1ff; stroke: #33b1ff; stroke-width: 1.5; stroke-linejoin: miter"/>
   </g>
   <g id="patch_34">
    <path d="M 767.751693 134.190313 
C 768.950282 134.190313 770.099942 133.714109 770.947473 132.866578 
C 771.795003 132.019047 772.271208 130.869388 772.271208 129.670798 
C 772.271208 128.472209 771.795003 127.322549 770.947473 126.475019 
C 770.099942 125.627488 768.950282 125.151283 767.751693 125.151283 
C 766.553104 125.151283 765.403444 125.627488 764.555913 126.475019 
C 763.708383 127.322549 763.232178 128.472209 763.232178 129.670798 
C 763.232178 130.869388 763.708383 132.019047 764.555913 132.866578 
C 765.403444 133.714109 766.553104 134.190313 767.751693 134.190313 
z
" clip-path="url(#pc228a71efb)" style="fill: #33b1ff; stroke: #33b1ff; stroke-width: 1.5; stroke-linejoin: miter"/>
   </g>
   <g id="patch_35">
    <path d="M 767.751693 180.544313 
C 768.950282 180.544313 770.099942 180.068108 770.947473 179.220577 
C 771.795003 178.373047 772.271208 177.223387 772.271208 176.024798 
C 772.271208 174.826208 771.795003 173.676549 770.947473 172.829018 
C 770.099942 171.981487 768.950282 171.505283 767.751693 171.505283 
C 766.553104 171.505283 765.403444 171.981487 764.555913 172.829018 
C 763.708383 173.676549 763.232178 174.826208 763.232178 176.024798 
C 763.232178 177.223387 763.708383 178.373047 764.555913 179.220577 
C 765.403444 180.068108 766.553104 180.544313 767.751693 180.544313 
z
" clip-path="url(#pc228a71efb)" style="fill: #33b1ff; stroke: #33b1ff; stroke-width: 1.5; stroke-linejoin: miter"/>
   </g>
   <g id="patch_36">
    <path d="M 767.751693 226.898312 
C 768.950282 226.898312 770.099942 226.422107 770.947473 225.574577 
C 771.795003 224.727046 772.271208 223.577386 772.271208 222.378797 
C 772.271208 221.180208 771.795003 220.030548 770.947473 219.183017 
C 770.099942 218.335487 768.950282 217.859282 767.751693 217.859282 
C 766.553104 217.859282 765.403444 218.335487 764.555913 219.183017 
C 763.708383 220.030548 763.232178 221.180208 763.232178 222.378797 
C 763.232178 223.577386 763.708383 224.727046 764.555913 225.574577 
C 765.403444 226.422107 766.553104 226.898312 767.751693 226.898312 
z
" clip-path="url(#pc228a71efb)" style="fill: #33b1ff; stroke: #33b1ff; stroke-width: 1.5; stroke-linejoin: miter"/>
   </g>
   <g id="patch_37">
    <path d="M 767.751693 273.252311 
C 768.950282 273.252311 770.099942 272.776107 770.947473 271.928576 
C 771.795003 271.081045 772.271208 269.931386 772.271208 268.732796 
C 772.271208 267.534207 771.795003 266.384547 770.947473 265.537017 
C 770.099942 264.689486 768.950282 264.213281 767.751693 264.213281 
C 766.553104 264.213281 765.403444 264.689486 764.555913 265.537017 
C 763.708383 266.384547 763.232178 267.534207 763.232178 268.732796 
C 763.232178 269.931386 763.708383 271.081045 764.555913 271.928576 
C 765.403444 272.776107 766.553104 273.252311 767.751693 273.252311 
z
" clip-path="url(#pc228a71efb)" style="fill: #33b1ff; stroke: #33b1ff; stroke-width: 1.5; stroke-linejoin: miter"/>
   </g>
   <g id="patch_38">
    <path d="M 860.459692 87.836314 
C 861.658281 87.836314 862.807941 87.360109 863.655471 86.512579 
C 864.503002 85.665048 864.979207 84.515388 864.979207 83.316799 
C 864.979207 82.11821 864.503002 80.96855 863.655471 80.121019 
C 862.807941 79.273489 861.658281 78.797284 860.459692 78.797284 
C 859.261102 78.797284 858.111443 79.273489 857.263912 80.121019 
C 856.416381 80.96855 855.940177 82.11821 855.940177 83.316799 
C 855.940177 84.515388 856.416381 85.665048 857.263912 86.512579 
C 858.111443 87.360109 859.261102 87.836314 860.459692 87.836314 
z
" clip-path="url(#pc228a71efb)" style="fill: #33b1ff; stroke: #33b1ff; stroke-width: 1.5; stroke-linejoin: miter"/>
   </g>
   <g id="patch_39">
    <path d="M 860.459692 134.190313 
C 861.658281 134.190313 862.807941 133.714109 863.655471 132.866578 
C 864.503002 132.019047 864.979207 130.869388 864.979207 129.670798 
C 864.979207 128.472209 864.503002 127.322549 863.655471 126.475019 
C 862.807941 125.627488 861.658281 125.151283 860.459692 125.151283 
C 859.261102 125.151283 858.111443 125.627488 857.263912 126.475019 
C 856.416381 127.322549 855.940177 128.472209 855.940177 129.670798 
C 855.940177 130.869388 856.416381 132.019047 857.263912 132.866578 
C 858.111443 133.714109 859.261102 134.190313 860.459692 134.190313 
z
" clip-path="url(#pc228a71efb)" style="fill: #33b1ff; stroke: #33b1ff; stroke-width: 1.5; stroke-linejoin: miter"/>
   </g>
   <g id="patch_40">
    <path d="M 860.459692 180.544313 
C 861.658281 180.544313 862.807941 180.068108 863.655471 179.220577 
C 864.503002 178.373047 864.979207 177.223387 864.979207 176.024798 
C 864.979207 174.826208 864.503002 173.676549 863.655471 172.829018 
C 862.807941 171.981487 861.658281 171.505283 860.459692 171.505283 
C 859.261102 171.505283 858.111443 171.981487 857.263912 172.829018 
C 856.416381 173.676549 855.940177 174.826208 855.940177 176.024798 
C 855.940177 177.223387 856.416381 178.373047 857.263912 179.220577 
C 858.111443 180.068108 859.261102 180.544313 860.459692 180.544313 
z
" clip-path="url(#pc228a71efb)" style="fill: #33b1ff; stroke: #33b1ff; stroke-width: 1.5; stroke-linejoin: miter"/>
   </g>
   <g id="patch_41">
    <path d="M 860.459692 226.898312 
C 861.658281 226.898312 862.807941 226.422107 863.655471 225.574577 
C 864.503002 224.727046 864.979207 223.577386 864.979207 222.378797 
C 864.979207 221.180208 864.503002 220.030548 863.655471 219.183017 
C 862.807941 218.335487 861.658281 217.859282 860.459692 217.859282 
C 859.261102 217.859282 858.111443 218.335487 857.263912 219.183017 
C 856.416381 220.030548 855.940177 221.180208 855.940177 222.378797 
C 855.940177 223.577386 856.416381 224.727046 857.263912 225.574577 
C 858.111443 226.422107 859.261102 226.898312 860.459692 226.898312 
z
" clip-path="url(#pc228a71efb)" style="fill: #33b1ff; stroke: #33b1ff; stroke-width: 1.5; stroke-linejoin: miter"/>
   </g>
   <g id="patch_42">
    <path d="M 860.459692 273.252311 
C 861.658281 273.252311 862.807941 272.776107 863.655471 271.928576 
C 864.503002 271.081045 864.979207 269.931386 864.979207 268.732796 
C 864.979207 267.534207 864.503002 266.384547 863.655471 265.537017 
C 862.807941 264.689486 861.658281 264.213281 860.459692 264.213281 
C 859.261102 264.213281 858.111443 264.689486 857.263912 265.537017 
C 856.416381 266.384547 855.940177 267.534207 855.940177 268.732796 
C 855.940177 269.931386 856.416381 271.081045 857.263912 271.928576 
C 858.111443 272.776107 859.261102 273.252311 860.459692 273.252311 
z
" clip-path="url(#pc228a71efb)" style="fill: #33b1ff; stroke: #33b1ff; stroke-width: 1.5; stroke-linejoin: miter"/>
   </g>
   <g id="patch_43">
    <path d="M 860.459692 319.606311 
C 861.658281 319.606311 862.807941 319.130106 863.655471 318.282575 
C 864.503002 317.435045 864.979207 316.285385 864.979207 315.086796 
C 864.979207 313.888206 864.503002 312.738547 863.655471 311.891016 
C 862.807941 311.043485 861.658281 310.567281 860.459692 310.567281 
C 859.261102 310.567281 858.111443 311.043485 857.263912 311.891016 
C 856.416381 312.738547 855.940177 313.888206 855.940177 315.086796 
C 855.940177 316.285385 856.416381 317.435045 857.263912 318.282575 
C 858.111443 319.130106 859.261102 319.606311 860.459692 319.606311 
z
" clip-path="url(#pc228a71efb)" style="fill: #33b1ff; stroke: #33b1ff; stroke-width: 1.5; stroke-linejoin: miter"/>
   </g>
   <g id="patch_44">
    <path d="M 914.925641 98.381849 
L 945.055741 98.381849 
L 945.055741 68.251749 
L 914.925641 68.251749 
z
" clip-path="url(#pc228a71efb)" style="fill: #9f1853; stroke: #9f1853; stroke-width: 1.5; stroke-linejoin: miter"/>
   </g>
   <g id="patch_45">
    <path d="M 914.925641 144.735848 
L 945.055741 144.735848 
L 945.055741 114.605748 
L 914.925641 114.605748 
z
" clip-path="url(#pc228a71efb)" style="fill: #9f1853; stroke: #9f1853; stroke-width: 1.5; stroke-linejoin: miter"/>
   </g>
   <g id="patch_46">
    <path d="M 914.925641 191.089847 
L 945.055741 191.089847 
L 945.055741 160.959748 
L 914.925641 160.959748 
z
" clip-path="url(#pc228a71efb)" style="fill: #9f1853; stroke: #9f1853; stroke-width: 1.5; stroke-linejoin: miter"/>
   </g>
   <g id="patch_47">
    <path d="M 914.925641 237.443847 
L 945.055741 237.443847 
L 945.055741 207.313747 
L 914.925641 207.313747 
z
" clip-path="url(#pc228a71efb)" style="fill: #9f1853; stroke: #9f1853; stroke-width: 1.5; stroke-linejoin: miter"/>
   </g>
   <g id="patch_48">
    <path d="M 914.925641 283.797846 
L 945.055741 283.797846 
L 945.055741 253.667747 
L 914.925641 253.667747 
z
" clip-path="url(#pc228a71efb)" style="fill: #9f1853; stroke: #9f1853; stroke-width: 1.5; stroke-linejoin: miter"/>
   </g>
   <g id="patch_49">
    <path d="M 914.925641 330.151846 
L 945.055741 330.151846 
L 945.055741 300.021746 
L 914.925641 300.021746 
z
" clip-path="url(#pc228a71efb)" style="fill: #9f1853; stroke: #9f1853; stroke-width: 1.5; stroke-linejoin: miter"/>
   </g>
   <g id="patch_50">
    <path d="M 961.27964 98.381849 
L 991.40974 98.381849 
L 991.40974 68.251749 
L 961.27964 68.251749 
z
" clip-path="url(#pc228a71efb)" style="fill: #9f1853; stroke: #9f1853; stroke-width: 1.5; stroke-linejoin: miter"/>
   </g>
   <g id="patch_51">
    <path d="M 961.27964 144.735848 
L 991.40974 144.735848 
L 991.40974 114.605748 
L 961.27964 114.605748 
z
" clip-path="url(#pc228a71efb)" style="fill: #9f1853; stroke: #9f1853; stroke-width: 1.5; stroke-linejoin: miter"/>
   </g>
   <g id="patch_52">
    <path d="M 961.27964 191.089847 
L 991.40974 191.089847 
L 991.40974 160.959748 
L 961.27964 160.959748 
z
" clip-path="url(#pc228a71efb)" style="fill: #9f1853; stroke: #9f1853; stroke-width: 1.5; stroke-linejoin: miter"/>
   </g>
   <g id="patch_53">
    <path d="M 961.27964 237.443847 
L 991.40974 237.443847 
L 991.40974 207.313747 
L 961.27964 207.313747 
z
" clip-path="url(#pc228a71efb)" style="fill: #9f1853; stroke: #9f1853; stroke-width: 1.5; stroke-linejoin: miter"/>
   </g>
   <g id="patch_54">
    <path d="M 961.27964 283.797846 
L 991.40974 283.797846 
L 991.40974 253.667747 
L 961.27964 253.667747 
z
" clip-path="url(#pc228a71efb)" style="fill: #9f1853; stroke: #9f1853; stroke-width: 1.5; stroke-linejoin: miter"/>
   </g>
   <g id="patch_55">
    <path d="M 1045.875689 87.836314 
C 1047.074279 87.836314 1048.223938 87.360109 1049.071469 86.512579 
C 1049.919 85.665048 1050.395204 84.515388 1050.395204 83.316799 
C 1050.395204 82.11821 1049.919 80.96855 1049.071469 80.121019 
C 1048.223938 79.273489 1047.074279 78.797284 1045.875689 78.797284 
C 1044.6771 78.797284 1043.52744 79.273489 1042.67991 80.121019 
C 1041.832379 80.96855 1041.356174 82.11821 1041.356174 83.316799 
C 1041.356174 84.515388 1041.832379 85.665048 1042.67991 86.512579 
C 1043.52744 87.360109 1044.6771 87.836314 1045.875689 87.836314 
z
" clip-path="url(#pc228a71efb)" style="fill: #33b1ff; stroke: #33b1ff; stroke-width: 1.5; stroke-linejoin: miter"/>
   </g>
   <g id="patch_56">
    <path d="M 1045.875689 134.190313 
C 1047.074279 134.190313 1048.223938 133.714109 1049.071469 132.866578 
C 1049.919 132.019047 1050.395204 130.869388 1050.395204 129.670798 
C 1050.395204 128.472209 1049.919 127.322549 1049.071469 126.475019 
C 1048.223938 125.627488 1047.074279 125.151283 1045.875689 125.151283 
C 1044.6771 125.151283 1043.52744 125.627488 1042.67991 126.475019 
C 1041.832379 127.322549 1041.356174 128.472209 1041.356174 129.670798 
C 1041.356174 130.869388 1041.832379 132.019047 1042.67991 132.866578 
C 1043.52744 133.714109 1044.6771 134.190313 1045.875689 134.190313 
z
" clip-path="url(#pc228a71efb)" style="fill: #33b1ff; stroke: #33b1ff; stroke-width: 1.5; stroke-linejoin: miter"/>
   </g>
   <g id="patch_57">
    <path d="M 1045.875689 180.544313 
C 1047.074279 180.544313 1048.223938 180.068108 1049.071469 179.220577 
C 1049.919 178.373047 1050.395204 177.223387 1050.395204 176.024798 
C 1050.395204 174.826208 1049.919 173.676549 1049.071469 172.829018 
C 1048.223938 171.981487 1047.074279 171.505283 1045.875689 171.505283 
C 1044.6771 171.505283 1043.52744 171.981487 1042.67991 172.829018 
C 1041.832379 173.676549 1041.356174 174.826208 1041.356174 176.024798 
C 1041.356174 177.223387 1041.832379 178.373047 1042.67991 179.220577 
C 1043.52744 180.068108 1044.6771 180.544313 1045.875689 180.544313 
z
" clip-path="url(#pc228a71efb)" style="fill: #33b1ff; stroke: #33b1ff; stroke-width: 1.5; stroke-linejoin: miter"/>
   </g>
   <g id="patch_58">
    <path d="M 1045.875689 226.898312 
C 1047.074279 226.898312 1048.223938 226.422107 1049.071469 225.574577 
C 1049.919 224.727046 1050.395204 223.577386 1050.395204 222.378797 
C 1050.395204 221.180208 1049.919 220.030548 1049.071469 219.183017 
C 1048.223938 218.335487 1047.074279 217.859282 1045.875689 217.859282 
C 1044.6771 217.859282 1043.52744 218.335487 1042.67991 219.183017 
C 1041.832379 220.030548 1041.356174 221.180208 1041.356174 222.378797 
C 1041.356174 223.577386 1041.832379 224.727046 1042.67991 225.574577 
C 1043.52744 226.422107 1044.6771 226.898312 1045.875689 226.898312 
z
" clip-path="url(#pc228a71efb)" style="fill: #33b1ff; stroke: #33b1ff; stroke-width: 1.5; stroke-linejoin: miter"/>
   </g>
   <g id="patch_59">
    <path d="M 1045.875689 273.252311 
C 1047.074279 273.252311 1048.223938 272.776107 1049.071469 271.928576 
C 1049.919 271.081045 1050.395204 269.931386 1050.395204 268.732796 
C 1050.395204 267.534207 1049.919 266.384547 1049.071469 265.537017 
C 1048.223938 264.689486 1047.074279 264.213281 1045.875689 264.213281 
C 1044.6771 264.213281 1043.52744 264.689486 1042.67991 265.537017 
C 1041.832379 266.384547 1041.356174 267.534207 1041.356174 268.732796 
C 1041.356174 269.931386 1041.832379 271.081045 1042.67991 271.928576 
C 1043.52744 272.776107 1044.6771 273.252311 1045.875689 273.252311 
z
" clip-path="url(#pc228a71efb)" style="fill: #33b1ff; stroke: #33b1ff; stroke-width: 1.5; stroke-linejoin: miter"/>
   </g>
   <g id="patch_60">
    <path d="M 1045.875689 319.606311 
C 1047.074279 319.606311 1048.223938 319.130106 1049.071469 318.282575 
C 1049.919 317.435045 1050.395204 316.285385 1050.395204 315.086796 
C 1050.395204 313.888206 1049.919 312.738547 1049.071469 311.891016 
C 1048.223938 311.043485 1047.074279 310.567281 1045.875689 310.567281 
C 1044.6771 310.567281 1043.52744 311.043485 1042.67991 311.891016 
C 1041.832379 312.738547 1041.356174 313.888206 1041.356174 315.086796 
C 1041.356174 316.285385 1041.832379 317.435045 1042.67991 318.282575 
C 1043.52744 319.130106 1044.6771 319.606311 1045.875689 319.606311 
z
" clip-path="url(#pc228a71efb)" style="fill: #33b1ff; stroke: #33b1ff; stroke-width: 1.5; stroke-linejoin: miter"/>
   </g>
   <g id="patch_61">
    <path d="M 1138.583688 134.190313 
C 1139.782277 134.190313 1140.931937 133.714109 1141.779468 132.866578 
C 1142.626998 132.019047 1143.103203 130.869388 1143.103203 129.670798 
C 1143.103203 128.472209 1142.626998 127.322549 1141.779468 126.475019 
C 1140.931937 125.627488 1139.782277 125.151283 1138.583688 125.151283 
C 1137.385099 125.151283 1136.235439 125.627488 1135.387908 126.475019 
C 1134.540378 127.322549 1134.064173 128.472209 1134.064173 129.670798 
C 1134.064173 130.869388 1134.540378 132.019047 1135.387908 132.866578 
C 1136.235439 133.714109 1137.385099 134.190313 1138.583688 134.190313 
z
" clip-path="url(#pc228a71efb)" style="fill: #33b1ff; stroke: #33b1ff; stroke-width: 1.5; stroke-linejoin: miter"/>
   </g>
   <g id="patch_62">
    <path d="M 1138.583688 180.544313 
C 1139.782277 180.544313 1140.931937 180.068108 1141.779468 179.220577 
C 1142.626998 178.373047 1143.103203 177.223387 1143.103203 176.024798 
C 1143.103203 174.826208 1142.626998 173.676549 1141.779468 172.829018 
C 1140.931937 171.981487 1139.782277 171.505283 1138.583688 171.505283 
C 1137.385099 171.505283 1136.235439 171.981487 1135.387908 172.829018 
C 1134.540378 173.676549 1134.064173 174.826208 1134.064173 176.024798 
C 1134.064173 177.223387 1134.540378 178.373047 1135.387908 179.220577 
C 1136.235439 180.068108 1137.385099 180.544313 1138.583688 180.544313 
z
" clip-path="url(#pc228a71efb)" style="fill: #33b1ff; stroke: #33b1ff; stroke-width: 1.5; stroke-linejoin: miter"/>
   </g>
   <g id="patch_63">
    <path d="M 1138.583688 226.898312 
C 1139.782277 226.898312 1140.931937 226.422107 1141.779468 225.574577 
C 1142.626998 224.727046 1143.103203 223.577386 1143.103203 222.378797 
C 1143.103203 221.180208 1142.626998 220.030548 1141.779468 219.183017 
C 1140.931937 218.335487 1139.782277 217.859282 1138.583688 217.859282 
C 1137.385099 217.859282 1136.235439 218.335487 1135.387908 219.183017 
C 1134.540378 220.030548 1134.064173 221.180208 1134.064173 222.378797 
C 1134.064173 223.577386 1134.540378 224.727046 1135.387908 225.574577 
C 1136.235439 226.422107 1137.385099 226.898312 1138.583688 226.898312 
z
" clip-path="url(#pc228a71efb)" style="fill: #33b1ff; stroke: #33b1ff; stroke-width: 1.5; stroke-linejoin: miter"/>
   </g>
   <g id="patch_64">
    <path d="M 1138.583688 273.252311 
C 1139.782277 273.252311 1140.931937 272.776107 1141.779468 271.928576 
C 1142.626998 271.081045 1143.103203 269.931386 1143.103203 268.732796 
C 1143.103203 267.534207 1142.626998 266.384547 1141.779468 265.537017 
C 1140.931937 264.689486 1139.782277 264.213281 1138.583688 264.213281 
C 1137.385099 264.213281 1136.235439 264.689486 1135.387908 265.537017 
C 1134.540378 266.384547 1134.064173 267.534207 1134.064173 268.732796 
C 1134.064173 269.931386 1134.540378 271.081045 1135.387908 271.928576 
C 1136.235439 272.776107 1137.385099 273.252311 1138.583688 273.252311 
z
" clip-path="url(#pc228a71efb)" style="fill: #33b1ff; stroke: #33b1ff; stroke-width: 1.5; stroke-linejoin: miter"/>
   </g>
   <g id="text_1">
    <g clip-path="url(#pc228a71efb)">
     <!-- ${q}_{0}$ $|0\rangle$ -->
     <g transform="translate(201.39524 87.623049) scale(0.1625 -0.1625)">
      <defs>
       <path id="DejaVuSans-Oblique-71" d="M 2669 525 
Q 2438 222 2123 65 
Q 1809 -91 1428 -91 
Q 897 -91 595 267 
Q 294 625 294 1253 
Q 294 1759 480 2231 
Q 666 2703 1013 3078 
Q 1238 3322 1530 3453 
Q 1822 3584 2144 3584 
Q 2531 3584 2781 3431 
Q 3031 3278 3144 2969 
L 3244 3494 
L 3822 3494 
L 2888 -1319 
L 2309 -1319 
L 2669 525 
z
M 891 1338 
Q 891 875 1084 633 
Q 1278 391 1644 391 
Q 2188 391 2572 911 
Q 2956 1431 2956 2175 
Q 2956 2625 2757 2864 
Q 2559 3103 2188 3103 
Q 1916 3103 1684 2976 
Q 1453 2850 1281 2606 
Q 1100 2350 995 2006 
Q 891 1663 891 1338 
z
" transform="scale(0.015625)"/>
       <path id="DejaVuSans-30" d="M 2034 4250 
Q 1547 4250 1301 3770 
Q 1056 3291 1056 2328 
Q 1056 1369 1301 889 
Q 1547 409 2034 409 
Q 2525 409 2770 889 
Q 3016 1369 3016 2328 
Q 3016 3291 2770 3770 
Q 2525 4250 2034 4250 
z
M 2034 4750 
Q 2819 4750 3233 4129 
Q 3647 3509 3647 2328 
Q 3647 1150 3233 529 
Q 2819 -91 2034 -91 
Q 1250 -91 836 529 
Q 422 1150 422 2328 
Q 422 3509 836 4129 
Q 1250 4750 2034 4750 
z
" transform="scale(0.015625)"/>
       <path id="DejaVuSans-20" transform="scale(0.015625)"/>
       <path id="DejaVuSans-7c" d="M 1344 4891 
L 1344 -1509 
L 813 -1509 
L 813 4891 
L 1344 4891 
z
" transform="scale(0.015625)"/>
       <path id="DejaVuSans-27e9" d="M 1925 2006 
L 1044 -844 
L 513 -844 
L 1394 2006 
L 513 4856 
L 1044 4856 
L 1925 2006 
z
" transform="scale(0.015625)"/>
      </defs>
      <use xlink:href="#DejaVuSans-Oblique-71" transform="translate(0 0.578125)"/>
      <use xlink:href="#DejaVuSans-30" transform="translate(63.476562 -15.828125) scale(0.7)"/>
      <use xlink:href="#DejaVuSans-20" transform="translate(110.74707 0.578125)"/>
      <use xlink:href="#DejaVuSans-7c" transform="translate(142.53418 0.578125)"/>
      <use xlink:href="#DejaVuSans-30" transform="translate(176.225586 0.578125)"/>
      <use xlink:href="#DejaVuSans-27e9" transform="translate(239.848633 0.578125)"/>
     </g>
    </g>
   </g>
   <g id="text_2">
    <g clip-path="url(#pc228a71efb)">
     <!-- ${q}_{1}$ $|0\rangle$ -->
     <g transform="translate(201.39524 133.977048) scale(0.1625 -0.1625)">
      <defs>
       <path id="DejaVuSans-31" d="M 794 531 
L 1825 531 
L 1825 4091 
L 703 3866 
L 703 4441 
L 1819 4666 
L 2450 4666 
L 2450 531 
L 3481 531 
L 3481 0 
L 794 0 
L 794 531 
z
" transform="scale(0.015625)"/>
      </defs>
      <use xlink:href="#DejaVuSans-Oblique-71" transform="translate(0 0.578125)"/>
      <use xlink:href="#DejaVuSans-31" transform="translate(63.476562 -15.828125) scale(0.7)"/>
      <use xlink:href="#DejaVuSans-20" transform="translate(110.74707 0.578125)"/>
      <use xlink:href="#DejaVuSans-7c" transform="translate(142.53418 0.578125)"/>
      <use xlink:href="#DejaVuSans-30" transform="translate(176.225586 0.578125)"/>
      <use xlink:href="#DejaVuSans-27e9" transform="translate(239.848633 0.578125)"/>
     </g>
    </g>
   </g>
   <g id="text_3">
    <g clip-path="url(#pc228a71efb)">
     <!-- ${q}_{2}$ $|0\rangle$ -->
     <g transform="translate(201.39524 180.331048) scale(0.1625 -0.1625)">
      <defs>
       <path id="DejaVuSans-32" d="M 1228 531 
L 3431 531 
L 3431 0 
L 469 0 
L 469 531 
Q 828 903 1448 1529 
Q 2069 2156 2228 2338 
Q 2531 2678 2651 2914 
Q 2772 3150 2772 3378 
Q 2772 3750 2511 3984 
Q 2250 4219 1831 4219 
Q 1534 4219 1204 4116 
Q 875 4013 500 3803 
L 500 4441 
Q 881 4594 1212 4672 
Q 1544 4750 1819 4750 
Q 2544 4750 2975 4387 
Q 3406 4025 3406 3419 
Q 3406 3131 3298 2873 
Q 3191 2616 2906 2266 
Q 2828 2175 2409 1742 
Q 1991 1309 1228 531 
z
" transform="scale(0.015625)"/>
      </defs>
      <use xlink:href="#DejaVuSans-Oblique-71" transform="translate(0 0.578125)"/>
      <use xlink:href="#DejaVuSans-32" transform="translate(63.476562 -15.828125) scale(0.7)"/>
      <use xlink:href="#DejaVuSans-20" transform="translate(110.74707 0.578125)"/>
      <use xlink:href="#DejaVuSans-7c" transform="translate(142.53418 0.578125)"/>
      <use xlink:href="#DejaVuSans-30" transform="translate(176.225586 0.578125)"/>
      <use xlink:href="#DejaVuSans-27e9" transform="translate(239.848633 0.578125)"/>
     </g>
    </g>
   </g>
   <g id="text_4">
    <g clip-path="url(#pc228a71efb)">
     <!-- ${q}_{3}$ $|0\rangle$ -->
     <g transform="translate(201.39524 226.685047) scale(0.1625 -0.1625)">
      <defs>
       <path id="DejaVuSans-33" d="M 2597 2516 
Q 3050 2419 3304 2112 
Q 3559 1806 3559 1356 
Q 3559 666 3084 287 
Q 2609 -91 1734 -91 
Q 1441 -91 1130 -33 
Q 819 25 488 141 
L 488 750 
Q 750 597 1062 519 
Q 1375 441 1716 441 
Q 2309 441 2620 675 
Q 2931 909 2931 1356 
Q 2931 1769 2642 2001 
Q 2353 2234 1838 2234 
L 1294 2234 
L 1294 2753 
L 1863 2753 
Q 2328 2753 2575 2939 
Q 2822 3125 2822 3475 
Q 2822 3834 2567 4026 
Q 2313 4219 1838 4219 
Q 1578 4219 1281 4162 
Q 984 4106 628 3988 
L 628 4550 
Q 988 4650 1302 4700 
Q 1616 4750 1894 4750 
Q 2613 4750 3031 4423 
Q 3450 4097 3450 3541 
Q 3450 3153 3228 2886 
Q 3006 2619 2597 2516 
z
" transform="scale(0.015625)"/>
      </defs>
      <use xlink:href="#DejaVuSans-Oblique-71" transform="translate(0 0.578125)"/>
      <use xlink:href="#DejaVuSans-33" transform="translate(63.476562 -15.828125) scale(0.7)"/>
      <use xlink:href="#DejaVuSans-20" transform="translate(110.74707 0.578125)"/>
      <use xlink:href="#DejaVuSans-7c" transform="translate(142.53418 0.578125)"/>
      <use xlink:href="#DejaVuSans-30" transform="translate(176.225586 0.578125)"/>
      <use xlink:href="#DejaVuSans-27e9" transform="translate(239.848633 0.578125)"/>
     </g>
    </g>
   </g>
   <g id="text_5">
    <g clip-path="url(#pc228a71efb)">
     <!-- ${q}_{4}$ $|0\rangle$ -->
     <g transform="translate(201.39524 273.039046) scale(0.1625 -0.1625)">
      <defs>
       <path id="DejaVuSans-34" d="M 2419 4116 
L 825 1625 
L 2419 1625 
L 2419 4116 
z
M 2253 4666 
L 3047 4666 
L 3047 1625 
L 3713 1625 
L 3713 1100 
L 3047 1100 
L 3047 0 
L 2419 0 
L 2419 1100 
L 313 1100 
L 313 1709 
L 2253 4666 
z
" transform="scale(0.015625)"/>
      </defs>
      <use xlink:href="#DejaVuSans-Oblique-71" transform="translate(0 0.578125)"/>
      <use xlink:href="#DejaVuSans-34" transform="translate(63.476562 -15.828125) scale(0.7)"/>
      <use xlink:href="#DejaVuSans-20" transform="translate(110.74707 0.578125)"/>
      <use xlink:href="#DejaVuSans-7c" transform="translate(142.53418 0.578125)"/>
      <use xlink:href="#DejaVuSans-30" transform="translate(176.225586 0.578125)"/>
      <use xlink:href="#DejaVuSans-27e9" transform="translate(239.848633 0.578125)"/>
     </g>
    </g>
   </g>
   <g id="text_6">
    <g clip-path="url(#pc228a71efb)">
     <!-- ${q}_{5}$ $|0\rangle$ -->
     <g transform="translate(201.39524 319.393046) scale(0.1625 -0.1625)">
      <defs>
       <path id="DejaVuSans-35" d="M 691 4666 
L 3169 4666 
L 3169 4134 
L 1269 4134 
L 1269 2991 
Q 1406 3038 1543 3061 
Q 1681 3084 1819 3084 
Q 2600 3084 3056 2656 
Q 3513 2228 3513 1497 
Q 3513 744 3044 326 
Q 2575 -91 1722 -91 
Q 1428 -91 1123 -41 
Q 819 9 494 109 
L 494 744 
Q 775 591 1075 516 
Q 1375 441 1709 441 
Q 2250 441 2565 725 
Q 2881 1009 2881 1497 
Q 2881 1984 2565 2268 
Q 2250 2553 1709 2553 
Q 1456 2553 1204 2497 
Q 953 2441 691 2322 
L 691 4666 
z
" transform="scale(0.015625)"/>
      </defs>
      <use xlink:href="#DejaVuSans-Oblique-71" transform="translate(0 0.578125)"/>
      <use xlink:href="#DejaVuSans-35" transform="translate(63.476562 -15.828125) scale(0.7)"/>
      <use xlink:href="#DejaVuSans-20" transform="translate(110.74707 0.578125)"/>
      <use xlink:href="#DejaVuSans-7c" transform="translate(142.53418 0.578125)"/>
      <use xlink:href="#DejaVuSans-30" transform="translate(176.225586 0.578125)"/>
      <use xlink:href="#DejaVuSans-27e9" transform="translate(239.848633 0.578125)"/>
     </g>
    </g>
   </g>
   <g id="text_7">
    <g clip-path="url(#pc228a71efb)">
     <!-- $\mathrm{ZZ}$ (0.5) -->
     <g transform="translate(310.50206 151.973448) scale(0.08 -0.08)">
      <defs>
       <path id="DejaVuSans-5a" d="M 359 4666 
L 4025 4666 
L 4025 4184 
L 1075 531 
L 4097 531 
L 4097 0 
L 288 0 
L 288 481 
L 3238 4134 
L 359 4134 
L 359 4666 
z
" transform="scale(0.015625)"/>
       <path id="DejaVuSans-28" d="M 1984 4856 
Q 1566 4138 1362 3434 
Q 1159 2731 1159 2009 
Q 1159 1288 1364 580 
Q 1569 -128 1984 -844 
L 1484 -844 
Q 1016 -109 783 600 
Q 550 1309 550 2009 
Q 550 2706 781 3412 
Q 1013 4119 1484 4856 
L 1984 4856 
z
" transform="scale(0.015625)"/>
       <path id="DejaVuSans-2e" d="M 684 794 
L 1344 794 
L 1344 0 
L 684 0 
L 684 794 
z
" transform="scale(0.015625)"/>
       <path id="DejaVuSans-29" d="M 513 4856 
L 1013 4856 
Q 1481 4119 1714 3412 
Q 1947 2706 1947 2009 
Q 1947 1309 1714 600 
Q 1481 -109 1013 -844 
L 513 -844 
Q 928 -128 1133 580 
Q 1338 1288 1338 2009 
Q 1338 2731 1133 3434 
Q 928 4138 513 4856 
z
" transform="scale(0.015625)"/>
      </defs>
      <use xlink:href="#DejaVuSans-5a" transform="translate(0 0.125)"/>
      <use xlink:href="#DejaVuSans-5a" transform="translate(68.505859 0.125)"/>
      <use xlink:href="#DejaVuSans-20" transform="translate(137.011719 0.125)"/>
      <use xlink:href="#DejaVuSans-28" transform="translate(168.798828 0.125)"/>
      <use xlink:href="#DejaVuSans-30" transform="translate(207.8125 0.125)"/>
      <use xlink:href="#DejaVuSans-2e" transform="translate(271.435547 0.125)"/>
      <use xlink:href="#DejaVuSans-35" transform="translate(303.222656 0.125)"/>
      <use xlink:href="#DejaVuSans-29" transform="translate(366.845703 0.125)"/>
     </g>
    </g>
   </g>
   <g id="text_8">
    <g clip-path="url(#pc228a71efb)">
     <!-- $\mathrm{ZZ}$ (0.5) -->
     <g transform="translate(310.50206 244.681447) scale(0.08 -0.08)">
      <use xlink:href="#DejaVuSans-5a" transform="translate(0 0.125)"/>
      <use xlink:href="#DejaVuSans-5a" transform="translate(68.505859 0.125)"/>
      <use xlink:href="#DejaVuSans-20" transform="translate(137.011719 0.125)"/>
      <use xlink:href="#DejaVuSans-28" transform="translate(168.798828 0.125)"/>
      <use xlink:href="#DejaVuSans-30" transform="translate(207.8125 0.125)"/>
      <use xlink:href="#DejaVuSans-2e" transform="translate(271.435547 0.125)"/>
      <use xlink:href="#DejaVuSans-35" transform="translate(303.222656 0.125)"/>
      <use xlink:href="#DejaVuSans-29" transform="translate(366.845703 0.125)"/>
     </g>
    </g>
   </g>
   <g id="text_9">
    <g clip-path="url(#pc228a71efb)">
     <!-- $\mathrm{ZZ}$ (0.5) -->
     <g transform="translate(403.210059 105.619449) scale(0.08 -0.08)">
      <use xlink:href="#DejaVuSans-5a" transform="translate(0 0.125)"/>
      <use xlink:href="#DejaVuSans-5a" transform="translate(68.505859 0.125)"/>
      <use xlink:href="#DejaVuSans-20" transform="translate(137.011719 0.125)"/>
      <use xlink:href="#DejaVuSans-28" transform="translate(168.798828 0.125)"/>
      <use xlink:href="#DejaVuSans-30" transform="translate(207.8125 0.125)"/>
      <use xlink:href="#DejaVuSans-2e" transform="translate(271.435547 0.125)"/>
      <use xlink:href="#DejaVuSans-35" transform="translate(303.222656 0.125)"/>
      <use xlink:href="#DejaVuSans-29" transform="translate(366.845703 0.125)"/>
     </g>
    </g>
   </g>
   <g id="text_10">
    <g clip-path="url(#pc228a71efb)">
     <!-- $\mathrm{ZZ}$ (0.5) -->
     <g transform="translate(403.210059 198.327447) scale(0.08 -0.08)">
      <use xlink:href="#DejaVuSans-5a" transform="translate(0 0.125)"/>
      <use xlink:href="#DejaVuSans-5a" transform="translate(68.505859 0.125)"/>
      <use xlink:href="#DejaVuSans-20" transform="translate(137.011719 0.125)"/>
      <use xlink:href="#DejaVuSans-28" transform="translate(168.798828 0.125)"/>
      <use xlink:href="#DejaVuSans-30" transform="translate(207.8125 0.125)"/>
      <use xlink:href="#DejaVuSans-2e" transform="translate(271.435547 0.125)"/>
      <use xlink:href="#DejaVuSans-35" transform="translate(303.222656 0.125)"/>
      <use xlink:href="#DejaVuSans-29" transform="translate(366.845703 0.125)"/>
     </g>
    </g>
   </g>
   <g id="text_11">
    <g clip-path="url(#pc228a71efb)">
     <!-- $\mathrm{ZZ}$ (0.5) -->
     <g transform="translate(403.210059 291.035446) scale(0.08 -0.08)">
      <use xlink:href="#DejaVuSans-5a" transform="translate(0 0.125)"/>
      <use xlink:href="#DejaVuSans-5a" transform="translate(68.505859 0.125)"/>
      <use xlink:href="#DejaVuSans-20" transform="translate(137.011719 0.125)"/>
      <use xlink:href="#DejaVuSans-28" transform="translate(168.798828 0.125)"/>
      <use xlink:href="#DejaVuSans-30" transform="translate(207.8125 0.125)"/>
      <use xlink:href="#DejaVuSans-2e" transform="translate(271.435547 0.125)"/>
      <use xlink:href="#DejaVuSans-35" transform="translate(303.222656 0.125)"/>
      <use xlink:href="#DejaVuSans-29" transform="translate(366.845703 0.125)"/>
     </g>
    </g>
   </g>
   <g id="text_12">
    <g clip-path="url(#pc228a71efb)">
     <!-- 0.2 -->
     <g style="fill: #ffffff" transform="translate(460.089447 94.563329) scale(0.08 -0.08)">
      <use xlink:href="#DejaVuSans-30"/>
      <use xlink:href="#DejaVuSans-2e" x="63.623047"/>
      <use xlink:href="#DejaVuSans-32" x="95.410156"/>
     </g>
    </g>
   </g>
   <g id="text_13">
    <g clip-path="url(#pc228a71efb)">
     <!-- $\mathrm{R_X}$ -->
     <g style="fill: #ffffff" transform="translate(458.520697 82.384471) scale(0.13 -0.13)">
      <defs>
       <path id="DejaVuSans-52" d="M 2841 2188 
Q 3044 2119 3236 1894 
Q 3428 1669 3622 1275 
L 4263 0 
L 3584 0 
L 2988 1197 
Q 2756 1666 2539 1819 
Q 2322 1972 1947 1972 
L 1259 1972 
L 1259 0 
L 628 0 
L 628 4666 
L 2053 4666 
Q 2853 4666 3247 4331 
Q 3641 3997 3641 3322 
Q 3641 2881 3436 2590 
Q 3231 2300 2841 2188 
z
M 1259 4147 
L 1259 2491 
L 2053 2491 
Q 2509 2491 2742 2702 
Q 2975 2913 2975 3322 
Q 2975 3731 2742 3939 
Q 2509 4147 2053 4147 
L 1259 4147 
z
" transform="scale(0.015625)"/>
       <path id="DejaVuSans-58" d="M 403 4666 
L 1081 4666 
L 2241 2931 
L 3406 4666 
L 4084 4666 
L 2584 2425 
L 4184 0 
L 3506 0 
L 2194 1984 
L 872 0 
L 191 0 
L 1856 2491 
L 403 4666 
z
" transform="scale(0.015625)"/>
      </defs>
      <use xlink:href="#DejaVuSans-52" transform="translate(0 0.09375)"/>
      <use xlink:href="#DejaVuSans-58" transform="translate(70.439453 -16.3125) scale(0.7)"/>
     </g>
    </g>
   </g>
   <g id="text_14">
    <g clip-path="url(#pc228a71efb)">
     <!-- 0.2 -->
     <g style="fill: #ffffff" transform="translate(460.089447 140.917328) scale(0.08 -0.08)">
      <use xlink:href="#DejaVuSans-30"/>
      <use xlink:href="#DejaVuSans-2e" x="63.623047"/>
      <use xlink:href="#DejaVuSans-32" x="95.410156"/>
     </g>
    </g>
   </g>
   <g id="text_15">
    <g clip-path="url(#pc228a71efb)">
     <!-- $\mathrm{R_X}$ -->
     <g style="fill: #ffffff" transform="translate(458.520697 128.738471) scale(0.13 -0.13)">
      <use xlink:href="#DejaVuSans-52" transform="translate(0 0.09375)"/>
      <use xlink:href="#DejaVuSans-58" transform="translate(70.439453 -16.3125) scale(0.7)"/>
     </g>
    </g>
   </g>
   <g id="text_16">
    <g clip-path="url(#pc228a71efb)">
     <!-- 0.2 -->
     <g style="fill: #ffffff" transform="translate(460.089447 187.271328) scale(0.08 -0.08)">
      <use xlink:href="#DejaVuSans-30"/>
      <use xlink:href="#DejaVuSans-2e" x="63.623047"/>
      <use xlink:href="#DejaVuSans-32" x="95.410156"/>
     </g>
    </g>
   </g>
   <g id="text_17">
    <g clip-path="url(#pc228a71efb)">
     <!-- $\mathrm{R_X}$ -->
     <g style="fill: #ffffff" transform="translate(458.520697 175.09247) scale(0.13 -0.13)">
      <use xlink:href="#DejaVuSans-52" transform="translate(0 0.09375)"/>
      <use xlink:href="#DejaVuSans-58" transform="translate(70.439453 -16.3125) scale(0.7)"/>
     </g>
    </g>
   </g>
   <g id="text_18">
    <g clip-path="url(#pc228a71efb)">
     <!-- 0.2 -->
     <g style="fill: #ffffff" transform="translate(460.089447 233.625327) scale(0.08 -0.08)">
      <use xlink:href="#DejaVuSans-30"/>
      <use xlink:href="#DejaVuSans-2e" x="63.623047"/>
      <use xlink:href="#DejaVuSans-32" x="95.410156"/>
     </g>
    </g>
   </g>
   <g id="text_19">
    <g clip-path="url(#pc228a71efb)">
     <!-- $\mathrm{R_X}$ -->
     <g style="fill: #ffffff" transform="translate(458.520697 221.44647) scale(0.13 -0.13)">
      <use xlink:href="#DejaVuSans-52" transform="translate(0 0.09375)"/>
      <use xlink:href="#DejaVuSans-58" transform="translate(70.439453 -16.3125) scale(0.7)"/>
     </g>
    </g>
   </g>
   <g id="text_20">
    <g clip-path="url(#pc228a71efb)">
     <!-- 0.2 -->
     <g style="fill: #ffffff" transform="translate(460.089447 279.979326) scale(0.08 -0.08)">
      <use xlink:href="#DejaVuSans-30"/>
      <use xlink:href="#DejaVuSans-2e" x="63.623047"/>
      <use xlink:href="#DejaVuSans-32" x="95.410156"/>
     </g>
    </g>
   </g>
   <g id="text_21">
    <g clip-path="url(#pc228a71efb)">
     <!-- $\mathrm{R_X}$ -->
     <g style="fill: #ffffff" transform="translate(458.520697 267.800469) scale(0.13 -0.13)">
      <use xlink:href="#DejaVuSans-52" transform="translate(0 0.09375)"/>
      <use xlink:href="#DejaVuSans-58" transform="translate(70.439453 -16.3125) scale(0.7)"/>
     </g>
    </g>
   </g>
   <g id="text_22">
    <g clip-path="url(#pc228a71efb)">
     <!-- 0.4 -->
     <g style="fill: #ffffff" transform="translate(460.089447 326.333326) scale(0.08 -0.08)">
      <use xlink:href="#DejaVuSans-30"/>
      <use xlink:href="#DejaVuSans-2e" x="63.623047"/>
      <use xlink:href="#DejaVuSans-34" x="95.410156"/>
     </g>
    </g>
   </g>
   <g id="text_23">
    <g clip-path="url(#pc228a71efb)">
     <!-- $\mathrm{R_X}$ -->
     <g style="fill: #ffffff" transform="translate(458.520697 314.154468) scale(0.13 -0.13)">
      <use xlink:href="#DejaVuSans-52" transform="translate(0 0.09375)"/>
      <use xlink:href="#DejaVuSans-58" transform="translate(70.439453 -16.3125) scale(0.7)"/>
     </g>
    </g>
   </g>
   <g id="text_24">
    <g clip-path="url(#pc228a71efb)">
     <!-- 0.2 -->
     <g style="fill: #ffffff" transform="translate(506.443446 94.563329) scale(0.08 -0.08)">
      <use xlink:href="#DejaVuSans-30"/>
      <use xlink:href="#DejaVuSans-2e" x="63.623047"/>
      <use xlink:href="#DejaVuSans-32" x="95.410156"/>
     </g>
    </g>
   </g>
   <g id="text_25">
    <g clip-path="url(#pc228a71efb)">
     <!-- $\mathrm{R_X}$ -->
     <g style="fill: #ffffff" transform="translate(504.874696 82.384471) scale(0.13 -0.13)">
      <use xlink:href="#DejaVuSans-52" transform="translate(0 0.09375)"/>
      <use xlink:href="#DejaVuSans-58" transform="translate(70.439453 -16.3125) scale(0.7)"/>
     </g>
    </g>
   </g>
   <g id="text_26">
    <g clip-path="url(#pc228a71efb)">
     <!-- 0.2 -->
     <g style="fill: #ffffff" transform="translate(506.443446 140.917328) scale(0.08 -0.08)">
      <use xlink:href="#DejaVuSans-30"/>
      <use xlink:href="#DejaVuSans-2e" x="63.623047"/>
      <use xlink:href="#DejaVuSans-32" x="95.410156"/>
     </g>
    </g>
   </g>
   <g id="text_27">
    <g clip-path="url(#pc228a71efb)">
     <!-- $\mathrm{R_X}$ -->
     <g style="fill: #ffffff" transform="translate(504.874696 128.738471) scale(0.13 -0.13)">
      <use xlink:href="#DejaVuSans-52" transform="translate(0 0.09375)"/>
      <use xlink:href="#DejaVuSans-58" transform="translate(70.439453 -16.3125) scale(0.7)"/>
     </g>
    </g>
   </g>
   <g id="text_28">
    <g clip-path="url(#pc228a71efb)">
     <!-- 0.2 -->
     <g style="fill: #ffffff" transform="translate(506.443446 187.271328) scale(0.08 -0.08)">
      <use xlink:href="#DejaVuSans-30"/>
      <use xlink:href="#DejaVuSans-2e" x="63.623047"/>
      <use xlink:href="#DejaVuSans-32" x="95.410156"/>
     </g>
    </g>
   </g>
   <g id="text_29">
    <g clip-path="url(#pc228a71efb)">
     <!-- $\mathrm{R_X}$ -->
     <g style="fill: #ffffff" transform="translate(504.874696 175.09247) scale(0.13 -0.13)">
      <use xlink:href="#DejaVuSans-52" transform="translate(0 0.09375)"/>
      <use xlink:href="#DejaVuSans-58" transform="translate(70.439453 -16.3125) scale(0.7)"/>
     </g>
    </g>
   </g>
   <g id="text_30">
    <g clip-path="url(#pc228a71efb)">
     <!-- 0.2 -->
     <g style="fill: #ffffff" transform="translate(506.443446 233.625327) scale(0.08 -0.08)">
      <use xlink:href="#DejaVuSans-30"/>
      <use xlink:href="#DejaVuSans-2e" x="63.623047"/>
      <use xlink:href="#DejaVuSans-32" x="95.410156"/>
     </g>
    </g>
   </g>
   <g id="text_31">
    <g clip-path="url(#pc228a71efb)">
     <!-- $\mathrm{R_X}$ -->
     <g style="fill: #ffffff" transform="translate(504.874696 221.44647) scale(0.13 -0.13)">
      <use xlink:href="#DejaVuSans-52" transform="translate(0 0.09375)"/>
      <use xlink:href="#DejaVuSans-58" transform="translate(70.439453 -16.3125) scale(0.7)"/>
     </g>
    </g>
   </g>
   <g id="text_32">
    <g clip-path="url(#pc228a71efb)">
     <!-- 0.2 -->
     <g style="fill: #ffffff" transform="translate(506.443446 279.979326) scale(0.08 -0.08)">
      <use xlink:href="#DejaVuSans-30"/>
      <use xlink:href="#DejaVuSans-2e" x="63.623047"/>
      <use xlink:href="#DejaVuSans-32" x="95.410156"/>
     </g>
    </g>
   </g>
   <g id="text_33">
    <g clip-path="url(#pc228a71efb)">
     <!-- $\mathrm{R_X}$ -->
     <g style="fill: #ffffff" transform="translate(504.874696 267.800469) scale(0.13 -0.13)">
      <use xlink:href="#DejaVuSans-52" transform="translate(0 0.09375)"/>
      <use xlink:href="#DejaVuSans-58" transform="translate(70.439453 -16.3125) scale(0.7)"/>
     </g>
    </g>
   </g>
   <g id="text_34">
    <g clip-path="url(#pc228a71efb)">
     <!-- $\mathrm{ZZ}$ (0.5) -->
     <g transform="translate(588.626057 105.619449) scale(0.08 -0.08)">
      <use xlink:href="#DejaVuSans-5a" transform="translate(0 0.125)"/>
      <use xlink:href="#DejaVuSans-5a" transform="translate(68.505859 0.125)"/>
      <use xlink:href="#DejaVuSans-20" transform="translate(137.011719 0.125)"/>
      <use xlink:href="#DejaVuSans-28" transform="translate(168.798828 0.125)"/>
      <use xlink:href="#DejaVuSans-30" transform="translate(207.8125 0.125)"/>
      <use xlink:href="#DejaVuSans-2e" transform="translate(271.435547 0.125)"/>
      <use xlink:href="#DejaVuSans-35" transform="translate(303.222656 0.125)"/>
      <use xlink:href="#DejaVuSans-29" transform="translate(366.845703 0.125)"/>
     </g>
    </g>
   </g>
   <g id="text_35">
    <g clip-path="url(#pc228a71efb)">
     <!-- $\mathrm{ZZ}$ (0.5) -->
     <g transform="translate(588.626057 198.327447) scale(0.08 -0.08)">
      <use xlink:href="#DejaVuSans-5a" transform="translate(0 0.125)"/>
      <use xlink:href="#DejaVuSans-5a" transform="translate(68.505859 0.125)"/>
      <use xlink:href="#DejaVuSans-20" transform="translate(137.011719 0.125)"/>
      <use xlink:href="#DejaVuSans-28" transform="translate(168.798828 0.125)"/>
      <use xlink:href="#DejaVuSans-30" transform="translate(207.8125 0.125)"/>
      <use xlink:href="#DejaVuSans-2e" transform="translate(271.435547 0.125)"/>
      <use xlink:href="#DejaVuSans-35" transform="translate(303.222656 0.125)"/>
      <use xlink:href="#DejaVuSans-29" transform="translate(366.845703 0.125)"/>
     </g>
    </g>
   </g>
   <g id="text_36">
    <g clip-path="url(#pc228a71efb)">
     <!-- $\mathrm{ZZ}$ (0.5) -->
     <g transform="translate(588.626057 291.035446) scale(0.08 -0.08)">
      <use xlink:href="#DejaVuSans-5a" transform="translate(0 0.125)"/>
      <use xlink:href="#DejaVuSans-5a" transform="translate(68.505859 0.125)"/>
      <use xlink:href="#DejaVuSans-20" transform="translate(137.011719 0.125)"/>
      <use xlink:href="#DejaVuSans-28" transform="translate(168.798828 0.125)"/>
      <use xlink:href="#DejaVuSans-30" transform="translate(207.8125 0.125)"/>
      <use xlink:href="#DejaVuSans-2e" transform="translate(271.435547 0.125)"/>
      <use xlink:href="#DejaVuSans-35" transform="translate(303.222656 0.125)"/>
      <use xlink:href="#DejaVuSans-29" transform="translate(366.845703 0.125)"/>
     </g>
    </g>
   </g>
   <g id="text_37">
    <g clip-path="url(#pc228a71efb)">
     <!-- $\mathrm{ZZ}$ (0.5) -->
     <g transform="translate(681.334056 151.973448) scale(0.08 -0.08)">
      <use xlink:href="#DejaVuSans-5a" transform="translate(0 0.125)"/>
      <use xlink:href="#DejaVuSans-5a" transform="translate(68.505859 0.125)"/>
      <use xlink:href="#DejaVuSans-20" transform="translate(137.011719 0.125)"/>
      <use xlink:href="#DejaVuSans-28" transform="translate(168.798828 0.125)"/>
      <use xlink:href="#DejaVuSans-30" transform="translate(207.8125 0.125)"/>
      <use xlink:href="#DejaVuSans-2e" transform="translate(271.435547 0.125)"/>
      <use xlink:href="#DejaVuSans-35" transform="translate(303.222656 0.125)"/>
      <use xlink:href="#DejaVuSans-29" transform="translate(366.845703 0.125)"/>
     </g>
    </g>
   </g>
   <g id="text_38">
    <g clip-path="url(#pc228a71efb)">
     <!-- $\mathrm{ZZ}$ (0.5) -->
     <g transform="translate(681.334056 244.681447) scale(0.08 -0.08)">
      <use xlink:href="#DejaVuSans-5a" transform="translate(0 0.125)"/>
      <use xlink:href="#DejaVuSans-5a" transform="translate(68.505859 0.125)"/>
      <use xlink:href="#DejaVuSans-20" transform="translate(137.011719 0.125)"/>
      <use xlink:href="#DejaVuSans-28" transform="translate(168.798828 0.125)"/>
      <use xlink:href="#DejaVuSans-30" transform="translate(207.8125 0.125)"/>
      <use xlink:href="#DejaVuSans-2e" transform="translate(271.435547 0.125)"/>
      <use xlink:href="#DejaVuSans-35" transform="translate(303.222656 0.125)"/>
      <use xlink:href="#DejaVuSans-29" transform="translate(366.845703 0.125)"/>
     </g>
    </g>
   </g>
   <g id="text_39">
    <g clip-path="url(#pc228a71efb)">
     <!-- $\mathrm{ZZ}$ (0.5) -->
     <g transform="translate(774.042054 151.973448) scale(0.08 -0.08)">
      <use xlink:href="#DejaVuSans-5a" transform="translate(0 0.125)"/>
      <use xlink:href="#DejaVuSans-5a" transform="translate(68.505859 0.125)"/>
      <use xlink:href="#DejaVuSans-20" transform="translate(137.011719 0.125)"/>
      <use xlink:href="#DejaVuSans-28" transform="translate(168.798828 0.125)"/>
      <use xlink:href="#DejaVuSans-30" transform="translate(207.8125 0.125)"/>
      <use xlink:href="#DejaVuSans-2e" transform="translate(271.435547 0.125)"/>
      <use xlink:href="#DejaVuSans-35" transform="translate(303.222656 0.125)"/>
      <use xlink:href="#DejaVuSans-29" transform="translate(366.845703 0.125)"/>
     </g>
    </g>
   </g>
   <g id="text_40">
    <g clip-path="url(#pc228a71efb)">
     <!-- $\mathrm{ZZ}$ (0.5) -->
     <g transform="translate(774.042054 244.681447) scale(0.08 -0.08)">
      <use xlink:href="#DejaVuSans-5a" transform="translate(0 0.125)"/>
      <use xlink:href="#DejaVuSans-5a" transform="translate(68.505859 0.125)"/>
      <use xlink:href="#DejaVuSans-20" transform="translate(137.011719 0.125)"/>
      <use xlink:href="#DejaVuSans-28" transform="translate(168.798828 0.125)"/>
      <use xlink:href="#DejaVuSans-30" transform="translate(207.8125 0.125)"/>
      <use xlink:href="#DejaVuSans-2e" transform="translate(271.435547 0.125)"/>
      <use xlink:href="#DejaVuSans-35" transform="translate(303.222656 0.125)"/>
      <use xlink:href="#DejaVuSans-29" transform="translate(366.845703 0.125)"/>
     </g>
    </g>
   </g>
   <g id="text_41">
    <g clip-path="url(#pc228a71efb)">
     <!-- $\mathrm{ZZ}$ (0.5) -->
     <g transform="translate(866.750053 105.619449) scale(0.08 -0.08)">
      <use xlink:href="#DejaVuSans-5a" transform="translate(0 0.125)"/>
      <use xlink:href="#DejaVuSans-5a" transform="translate(68.505859 0.125)"/>
      <use xlink:href="#DejaVuSans-20" transform="translate(137.011719 0.125)"/>
      <use xlink:href="#DejaVuSans-28" transform="translate(168.798828 0.125)"/>
      <use xlink:href="#DejaVuSans-30" transform="translate(207.8125 0.125)"/>
      <use xlink:href="#DejaVuSans-2e" transform="translate(271.435547 0.125)"/>
      <use xlink:href="#DejaVuSans-35" transform="translate(303.222656 0.125)"/>
      <use xlink:href="#DejaVuSans-29" transform="translate(366.845703 0.125)"/>
     </g>
    </g>
   </g>
   <g id="text_42">
    <g clip-path="url(#pc228a71efb)">
     <!-- $\mathrm{ZZ}$ (0.5) -->
     <g transform="translate(866.750053 198.327447) scale(0.08 -0.08)">
      <use xlink:href="#DejaVuSans-5a" transform="translate(0 0.125)"/>
      <use xlink:href="#DejaVuSans-5a" transform="translate(68.505859 0.125)"/>
      <use xlink:href="#DejaVuSans-20" transform="translate(137.011719 0.125)"/>
      <use xlink:href="#DejaVuSans-28" transform="translate(168.798828 0.125)"/>
      <use xlink:href="#DejaVuSans-30" transform="translate(207.8125 0.125)"/>
      <use xlink:href="#DejaVuSans-2e" transform="translate(271.435547 0.125)"/>
      <use xlink:href="#DejaVuSans-35" transform="translate(303.222656 0.125)"/>
      <use xlink:href="#DejaVuSans-29" transform="translate(366.845703 0.125)"/>
     </g>
    </g>
   </g>
   <g id="text_43">
    <g clip-path="url(#pc228a71efb)">
     <!-- $\mathrm{ZZ}$ (0.5) -->
     <g transform="translate(866.750053 291.035446) scale(0.08 -0.08)">
      <use xlink:href="#DejaVuSans-5a" transform="translate(0 0.125)"/>
      <use xlink:href="#DejaVuSans-5a" transform="translate(68.505859 0.125)"/>
      <use xlink:href="#DejaVuSans-20" transform="translate(137.011719 0.125)"/>
      <use xlink:href="#DejaVuSans-28" transform="translate(168.798828 0.125)"/>
      <use xlink:href="#DejaVuSans-30" transform="translate(207.8125 0.125)"/>
      <use xlink:href="#DejaVuSans-2e" transform="translate(271.435547 0.125)"/>
      <use xlink:href="#DejaVuSans-35" transform="translate(303.222656 0.125)"/>
      <use xlink:href="#DejaVuSans-29" transform="translate(366.845703 0.125)"/>
     </g>
    </g>
   </g>
   <g id="text_44">
    <g clip-path="url(#pc228a71efb)">
     <!-- 0.2 -->
     <g style="fill: #ffffff" transform="translate(923.629441 94.563329) scale(0.08 -0.08)">
      <use xlink:href="#DejaVuSans-30"/>
      <use xlink:href="#DejaVuSans-2e" x="63.623047"/>
      <use xlink:href="#DejaVuSans-32" x="95.410156"/>
     </g>
    </g>
   </g>
   <g id="text_45">
    <g clip-path="url(#pc228a71efb)">
     <!-- $\mathrm{R_X}$ -->
     <g style="fill: #ffffff" transform="translate(922.060691 82.384471) scale(0.13 -0.13)">
      <use xlink:href="#DejaVuSans-52" transform="translate(0 0.09375)"/>
      <use xlink:href="#DejaVuSans-58" transform="translate(70.439453 -16.3125) scale(0.7)"/>
     </g>
    </g>
   </g>
   <g id="text_46">
    <g clip-path="url(#pc228a71efb)">
     <!-- 0.2 -->
     <g style="fill: #ffffff" transform="translate(923.629441 140.917328) scale(0.08 -0.08)">
      <use xlink:href="#DejaVuSans-30"/>
      <use xlink:href="#DejaVuSans-2e" x="63.623047"/>
      <use xlink:href="#DejaVuSans-32" x="95.410156"/>
     </g>
    </g>
   </g>
   <g id="text_47">
    <g clip-path="url(#pc228a71efb)">
     <!-- $\mathrm{R_X}$ -->
     <g style="fill: #ffffff" transform="translate(922.060691 128.738471) scale(0.13 -0.13)">
      <use xlink:href="#DejaVuSans-52" transform="translate(0 0.09375)"/>
      <use xlink:href="#DejaVuSans-58" transform="translate(70.439453 -16.3125) scale(0.7)"/>
     </g>
    </g>
   </g>
   <g id="text_48">
    <g clip-path="url(#pc228a71efb)">
     <!-- 0.2 -->
     <g style="fill: #ffffff" transform="translate(923.629441 187.271328) scale(0.08 -0.08)">
      <use xlink:href="#DejaVuSans-30"/>
      <use xlink:href="#DejaVuSans-2e" x="63.623047"/>
      <use xlink:href="#DejaVuSans-32" x="95.410156"/>
     </g>
    </g>
   </g>
   <g id="text_49">
    <g clip-path="url(#pc228a71efb)">
     <!-- $\mathrm{R_X}$ -->
     <g style="fill: #ffffff" transform="translate(922.060691 175.09247) scale(0.13 -0.13)">
      <use xlink:href="#DejaVuSans-52" transform="translate(0 0.09375)"/>
      <use xlink:href="#DejaVuSans-58" transform="translate(70.439453 -16.3125) scale(0.7)"/>
     </g>
    </g>
   </g>
   <g id="text_50">
    <g clip-path="url(#pc228a71efb)">
     <!-- 0.2 -->
     <g style="fill: #ffffff" transform="translate(923.629441 233.625327) scale(0.08 -0.08)">
      <use xlink:href="#DejaVuSans-30"/>
      <use xlink:href="#DejaVuSans-2e" x="63.623047"/>
      <use xlink:href="#DejaVuSans-32" x="95.410156"/>
     </g>
    </g>
   </g>
   <g id="text_51">
    <g clip-path="url(#pc228a71efb)">
     <!-- $\mathrm{R_X}$ -->
     <g style="fill: #ffffff" transform="translate(922.060691 221.44647) scale(0.13 -0.13)">
      <use xlink:href="#DejaVuSans-52" transform="translate(0 0.09375)"/>
      <use xlink:href="#DejaVuSans-58" transform="translate(70.439453 -16.3125) scale(0.7)"/>
     </g>
    </g>
   </g>
   <g id="text_52">
    <g clip-path="url(#pc228a71efb)">
     <!-- 0.2 -->
     <g style="fill: #ffffff" transform="translate(923.629441 279.979326) scale(0.08 -0.08)">
      <use xlink:href="#DejaVuSans-30"/>
      <use xlink:href="#DejaVuSans-2e" x="63.623047"/>
      <use xlink:href="#DejaVuSans-32" x="95.410156"/>
     </g>
    </g>
   </g>
   <g id="text_53">
    <g clip-path="url(#pc228a71efb)">
     <!-- $\mathrm{R_X}$ -->
     <g style="fill: #ffffff" transform="translate(922.060691 267.800469) scale(0.13 -0.13)">
      <use xlink:href="#DejaVuSans-52" transform="translate(0 0.09375)"/>
      <use xlink:href="#DejaVuSans-58" transform="translate(70.439453 -16.3125) scale(0.7)"/>
     </g>
    </g>
   </g>
   <g id="text_54">
    <g clip-path="url(#pc228a71efb)">
     <!-- 0.4 -->
     <g style="fill: #ffffff" transform="translate(923.629441 326.333326) scale(0.08 -0.08)">
      <use xlink:href="#DejaVuSans-30"/>
      <use xlink:href="#DejaVuSans-2e" x="63.623047"/>
      <use xlink:href="#DejaVuSans-34" x="95.410156"/>
     </g>
    </g>
   </g>
   <g id="text_55">
    <g clip-path="url(#pc228a71efb)">
     <!-- $\mathrm{R_X}$ -->
     <g style="fill: #ffffff" transform="translate(922.060691 314.154468) scale(0.13 -0.13)">
      <use xlink:href="#DejaVuSans-52" transform="translate(0 0.09375)"/>
      <use xlink:href="#DejaVuSans-58" transform="translate(70.439453 -16.3125) scale(0.7)"/>
     </g>
    </g>
   </g>
   <g id="text_56">
    <g clip-path="url(#pc228a71efb)">
     <!-- 0.2 -->
     <g style="fill: #ffffff" transform="translate(969.98344 94.563329) scale(0.08 -0.08)">
      <use xlink:href="#DejaVuSans-30"/>
      <use xlink:href="#DejaVuSans-2e" x="63.623047"/>
      <use xlink:href="#DejaVuSans-32" x="95.410156"/>
     </g>
    </g>
   </g>
   <g id="text_57">
    <g clip-path="url(#pc228a71efb)">
     <!-- $\mathrm{R_X}$ -->
     <g style="fill: #ffffff" transform="translate(968.41469 82.384471) scale(0.13 -0.13)">
      <use xlink:href="#DejaVuSans-52" transform="translate(0 0.09375)"/>
      <use xlink:href="#DejaVuSans-58" transform="translate(70.439453 -16.3125) scale(0.7)"/>
     </g>
    </g>
   </g>
   <g id="text_58">
    <g clip-path="url(#pc228a71efb)">
     <!-- 0.2 -->
     <g style="fill: #ffffff" transform="translate(969.98344 140.917328) scale(0.08 -0.08)">
      <use xlink:href="#DejaVuSans-30"/>
      <use xlink:href="#DejaVuSans-2e" x="63.623047"/>
      <use xlink:href="#DejaVuSans-32" x="95.410156"/>
     </g>
    </g>
   </g>
   <g id="text_59">
    <g clip-path="url(#pc228a71efb)">
     <!-- $\mathrm{R_X}$ -->
     <g style="fill: #ffffff" transform="translate(968.41469 128.738471) scale(0.13 -0.13)">
      <use xlink:href="#DejaVuSans-52" transform="translate(0 0.09375)"/>
      <use xlink:href="#DejaVuSans-58" transform="translate(70.439453 -16.3125) scale(0.7)"/>
     </g>
    </g>
   </g>
   <g id="text_60">
    <g clip-path="url(#pc228a71efb)">
     <!-- 0.2 -->
     <g style="fill: #ffffff" transform="translate(969.98344 187.271328) scale(0.08 -0.08)">
      <use xlink:href="#DejaVuSans-30"/>
      <use xlink:href="#DejaVuSans-2e" x="63.623047"/>
      <use xlink:href="#DejaVuSans-32" x="95.410156"/>
     </g>
    </g>
   </g>
   <g id="text_61">
    <g clip-path="url(#pc228a71efb)">
     <!-- $\mathrm{R_X}$ -->
     <g style="fill: #ffffff" transform="translate(968.41469 175.09247) scale(0.13 -0.13)">
      <use xlink:href="#DejaVuSans-52" transform="translate(0 0.09375)"/>
      <use xlink:href="#DejaVuSans-58" transform="translate(70.439453 -16.3125) scale(0.7)"/>
     </g>
    </g>
   </g>
   <g id="text_62">
    <g clip-path="url(#pc228a71efb)">
     <!-- 0.2 -->
     <g style="fill: #ffffff" transform="translate(969.98344 233.625327) scale(0.08 -0.08)">
      <use xlink:href="#DejaVuSans-30"/>
      <use xlink:href="#DejaVuSans-2e" x="63.623047"/>
      <use xlink:href="#DejaVuSans-32" x="95.410156"/>
     </g>
    </g>
   </g>
   <g id="text_63">
    <g clip-path="url(#pc228a71efb)">
     <!-- $\mathrm{R_X}$ -->
     <g style="fill: #ffffff" transform="translate(968.41469 221.44647) scale(0.13 -0.13)">
      <use xlink:href="#DejaVuSans-52" transform="translate(0 0.09375)"/>
      <use xlink:href="#DejaVuSans-58" transform="translate(70.439453 -16.3125) scale(0.7)"/>
     </g>
    </g>
   </g>
   <g id="text_64">
    <g clip-path="url(#pc228a71efb)">
     <!-- 0.2 -->
     <g style="fill: #ffffff" transform="translate(969.98344 279.979326) scale(0.08 -0.08)">
      <use xlink:href="#DejaVuSans-30"/>
      <use xlink:href="#DejaVuSans-2e" x="63.623047"/>
      <use xlink:href="#DejaVuSans-32" x="95.410156"/>
     </g>
    </g>
   </g>
   <g id="text_65">
    <g clip-path="url(#pc228a71efb)">
     <!-- $\mathrm{R_X}$ -->
     <g style="fill: #ffffff" transform="translate(968.41469 267.800469) scale(0.13 -0.13)">
      <use xlink:href="#DejaVuSans-52" transform="translate(0 0.09375)"/>
      <use xlink:href="#DejaVuSans-58" transform="translate(70.439453 -16.3125) scale(0.7)"/>
     </g>
    </g>
   </g>
   <g id="text_66">
    <g clip-path="url(#pc228a71efb)">
     <!-- $\mathrm{ZZ}$ (0.5) -->
     <g transform="translate(1052.166051 105.619449) scale(0.08 -0.08)">
      <use xlink:href="#DejaVuSans-5a" transform="translate(0 0.125)"/>
      <use xlink:href="#DejaVuSans-5a" transform="translate(68.505859 0.125)"/>
      <use xlink:href="#DejaVuSans-20" transform="translate(137.011719 0.125)"/>
      <use xlink:href="#DejaVuSans-28" transform="translate(168.798828 0.125)"/>
      <use xlink:href="#DejaVuSans-30" transform="translate(207.8125 0.125)"/>
      <use xlink:href="#DejaVuSans-2e" transform="translate(271.435547 0.125)"/>
      <use xlink:href="#DejaVuSans-35" transform="translate(303.222656 0.125)"/>
      <use xlink:href="#DejaVuSans-29" transform="translate(366.845703 0.125)"/>
     </g>
    </g>
   </g>
   <g id="text_67">
    <g clip-path="url(#pc228a71efb)">
     <!-- $\mathrm{ZZ}$ (0.5) -->
     <g transform="translate(1052.166051 198.327447) scale(0.08 -0.08)">
      <use xlink:href="#DejaVuSans-5a" transform="translate(0 0.125)"/>
      <use xlink:href="#DejaVuSans-5a" transform="translate(68.505859 0.125)"/>
      <use xlink:href="#DejaVuSans-20" transform="translate(137.011719 0.125)"/>
      <use xlink:href="#DejaVuSans-28" transform="translate(168.798828 0.125)"/>
      <use xlink:href="#DejaVuSans-30" transform="translate(207.8125 0.125)"/>
      <use xlink:href="#DejaVuSans-2e" transform="translate(271.435547 0.125)"/>
      <use xlink:href="#DejaVuSans-35" transform="translate(303.222656 0.125)"/>
      <use xlink:href="#DejaVuSans-29" transform="translate(366.845703 0.125)"/>
     </g>
    </g>
   </g>
   <g id="text_68">
    <g clip-path="url(#pc228a71efb)">
     <!-- $\mathrm{ZZ}$ (0.5) -->
     <g transform="translate(1052.166051 291.035446) scale(0.08 -0.08)">
      <use xlink:href="#DejaVuSans-5a" transform="translate(0 0.125)"/>
      <use xlink:href="#DejaVuSans-5a" transform="translate(68.505859 0.125)"/>
      <use xlink:href="#DejaVuSans-20" transform="translate(137.011719 0.125)"/>
      <use xlink:href="#DejaVuSans-28" transform="translate(168.798828 0.125)"/>
      <use xlink:href="#DejaVuSans-30" transform="translate(207.8125 0.125)"/>
      <use xlink:href="#DejaVuSans-2e" transform="translate(271.435547 0.125)"/>
      <use xlink:href="#DejaVuSans-35" transform="translate(303.222656 0.125)"/>
      <use xlink:href="#DejaVuSans-29" transform="translate(366.845703 0.125)"/>
     </g>
    </g>
   </g>
   <g id="text_69">
    <g clip-path="url(#pc228a71efb)">
     <!-- $\mathrm{ZZ}$ (0.5) -->
     <g transform="translate(1144.874049 151.973448) scale(0.08 -0.08)">
      <use xlink:href="#DejaVuSans-5a" transform="translate(0 0.125)"/>
      <use xlink:href="#DejaVuSans-5a" transform="translate(68.505859 0.125)"/>
      <use xlink:href="#DejaVuSans-20" transform="translate(137.011719 0.125)"/>
      <use xlink:href="#DejaVuSans-28" transform="translate(168.798828 0.125)"/>
      <use xlink:href="#DejaVuSans-30" transform="translate(207.8125 0.125)"/>
      <use xlink:href="#DejaVuSans-2e" transform="translate(271.435547 0.125)"/>
      <use xlink:href="#DejaVuSans-35" transform="translate(303.222656 0.125)"/>
      <use xlink:href="#DejaVuSans-29" transform="translate(366.845703 0.125)"/>
     </g>
    </g>
   </g>
   <g id="text_70">
    <g clip-path="url(#pc228a71efb)">
     <!-- $\mathrm{ZZ}$ (0.5) -->
     <g transform="translate(1144.874049 244.681447) scale(0.08 -0.08)">
      <use xlink:href="#DejaVuSans-5a" transform="translate(0 0.125)"/>
      <use xlink:href="#DejaVuSans-5a" transform="translate(68.505859 0.125)"/>
      <use xlink:href="#DejaVuSans-20" transform="translate(137.011719 0.125)"/>
      <use xlink:href="#DejaVuSans-28" transform="translate(168.798828 0.125)"/>
      <use xlink:href="#DejaVuSans-30" transform="translate(207.8125 0.125)"/>
      <use xlink:href="#DejaVuSans-2e" transform="translate(271.435547 0.125)"/>
      <use xlink:href="#DejaVuSans-35" transform="translate(303.222656 0.125)"/>
      <use xlink:href="#DejaVuSans-29" transform="translate(366.845703 0.125)"/>
     </g>
    </g>
   </g>
  </g>
 </g>
 <defs>
  <clipPath id="pc228a71efb">
   <rect x="169.387384" y="46.233599" width="1022.966944" height="296.665596"/>
  </clipPath>
 </defs>
</svg>
