<?xml version="1.0" encoding="utf-8" standalone="no"?>
<!DOCTYPE svg PUBLIC "-//W3C//DTD SVG 1.1//EN"
  "http://www.w3.org/Graphics/SVG/1.1/DTD/svg11.dtd">
<svg xmlns:xlink="http://www.w3.org/1999/xlink" width="688.59739pt" height="385.279995pt" viewBox="0 0 688.59739 385.279995" xmlns="http://www.w3.org/2000/svg" version="1.1">
 <metadata>
  <rdf:RDF xmlns:dc="http://purl.org/dc/elements/1.1/" xmlns:cc="http://creativecommons.org/ns#" xmlns:rdf="http://www.w3.org/1999/02/22-rdf-syntax-ns#">
   <cc:Work>
    <dc:type rdf:resource="http://purl.org/dc/dcmitype/StillImage"/>
    <dc:date>2025-03-28T17:48:31.020542</dc:date>
    <dc:format>image/svg+xml</dc:format>
    <dc:creator>
     <cc:Agent>
      <dc:title>Matplotlib v3.9.4, https://matplotlib.org/</dc:title>
     </cc:Agent>
    </dc:creator>
   </cc:Work>
  </rdf:RDF>
 </metadata>
 <defs>
  <style type="text/css">*{stroke-linejoin: round; stroke-linecap: butt}</style>
 </defs>
 <g id="figure_1">
  <g id="patch_1">
   <path d="M 0 385.279995 
L 688.59739 385.279995 
L 688.59739 0 
L 0 0 
z
" style="fill: #ffffff"/>
  </g>
  <g id="axes_1">
   <g id="line2d_1">
    <path d="M 145.205364 83.316799 
L 613.380757 83.316799 
" clip-path="url(#p728eaba2f0)" style="fill: none; stroke: #000000; stroke-width: 2; stroke-linecap: square"/>
   </g>
   <g id="line2d_2">
    <path d="M 145.205364 129.670798 
L 613.380757 129.670798 
" clip-path="url(#p728eaba2f0)" style="fill: none; stroke: #000000; stroke-width: 2; stroke-linecap: square"/>
   </g>
   <g id="line2d_3">
    <path d="M 145.205364 176.024798 
L 613.380757 176.024798 
" clip-path="url(#p728eaba2f0)" style="fill: none; stroke: #000000; stroke-width: 2; stroke-linecap: square"/>
   </g>
   <g id="line2d_4">
    <path d="M 145.205364 222.378797 
L 613.380757 222.378797 
" clip-path="url(#p728eaba2f0)" style="fill: none; stroke: #000000; stroke-width: 2; stroke-linecap: square"/>
   </g>
   <g id="line2d_5">
    <path d="M 145.205364 268.732796 
L 613.380757 268.732796 
" clip-path="url(#p728eaba2f0)" style="fill: none; stroke: #000000; stroke-width: 2; stroke-linecap: square"/>
   </g>
   <g id="line2d_6">
    <path d="M 145.205364 315.086796 
L 613.380757 315.086796 
" clip-path="url(#p728eaba2f0)" style="fill: none; stroke: #000000; stroke-width: 2; stroke-linecap: square"/>
   </g>
   <g id="patch_2">
    <path d="M 140.569964 60.139799 
L -1018.280021 60.139799 
L -1018.280021 384.617795 
L 140.569964 384.617795 
z
" clip-path="url(#p728eaba2f0)" style="fill: #ffffff; stroke: #ffffff; stroke-width: 1.5; stroke-linejoin: miter"/>
   </g>
   <g id="patch_3">
    <path d="M 167.921141 98.381849 
L 218.905905 98.381849 
L 218.905905 68.251749 
L 167.921141 68.251749 
z
" clip-path="url(#p728eaba2f0)" style="fill: #9f1853; stroke: #9f1853; stroke-width: 1.5; stroke-linejoin: miter"/>
   </g>
   <g id="patch_4">
    <path d="M 167.872469 144.735848 
L 218.954577 144.735848 
L 218.954577 114.605748 
L 167.872469 114.605748 
z
" clip-path="url(#p728eaba2f0)" style="fill: #9f1853; stroke: #9f1853; stroke-width: 1.5; stroke-linejoin: miter"/>
   </g>
   <g id="patch_5">
    <path d="M 167.872469 191.089847 
L 218.954577 191.089847 
L 218.954577 160.959748 
L 167.872469 160.959748 
z
" clip-path="url(#p728eaba2f0)" style="fill: #9f1853; stroke: #9f1853; stroke-width: 1.5; stroke-linejoin: miter"/>
   </g>
   <g id="patch_6">
    <path d="M 167.872469 237.443847 
L 218.954577 237.443847 
L 218.954577 207.313747 
L 167.872469 207.313747 
z
" clip-path="url(#p728eaba2f0)" style="fill: #9f1853; stroke: #9f1853; stroke-width: 1.5; stroke-linejoin: miter"/>
   </g>
   <g id="patch_7">
    <path d="M 167.823798 283.797846 
L 219.003248 283.797846 
L 219.003248 253.667747 
L 167.823798 253.667747 
z
" clip-path="url(#p728eaba2f0)" style="fill: #9f1853; stroke: #9f1853; stroke-width: 1.5; stroke-linejoin: miter"/>
   </g>
   <g id="patch_8">
    <path d="M 241.612412 237.443847 
L 330.630632 237.443847 
L 330.630632 160.959748 
L 241.612412 160.959748 
z
" clip-path="url(#p728eaba2f0)" style="fill: #9f1853; stroke: #9f1853; stroke-width: 1.5; stroke-linejoin: miter"/>
   </g>
   <g id="patch_9">
    <path d="M 241.515068 144.735848 
L 330.727975 144.735848 
L 330.727975 68.251749 
L 241.515068 68.251749 
z
" clip-path="url(#p728eaba2f0)" style="fill: #9f1853; stroke: #9f1853; stroke-width: 1.5; stroke-linejoin: miter"/>
   </g>
   <g id="patch_10">
    <path d="M 339.18758 191.089847 
L 418.471461 191.089847 
L 418.471461 160.959748 
L 339.18758 160.959748 
z
" clip-path="url(#p728eaba2f0)" style="fill: #9f1853; stroke: #9f1853; stroke-width: 1.5; stroke-linejoin: miter"/>
   </g>
   <g id="patch_11">
    <path d="M 339.138909 237.443847 
L 418.520133 237.443847 
L 418.520133 207.313747 
L 339.138909 207.313747 
z
" clip-path="url(#p728eaba2f0)" style="fill: #9f1853; stroke: #9f1853; stroke-width: 1.5; stroke-linejoin: miter"/>
   </g>
   <g id="patch_12">
    <path d="M 338.992893 98.381849 
L 418.666148 98.381849 
L 418.666148 68.251749 
L 338.992893 68.251749 
z
" clip-path="url(#p728eaba2f0)" style="fill: #9f1853; stroke: #9f1853; stroke-width: 1.5; stroke-linejoin: miter"/>
   </g>
   <g id="patch_13">
    <path d="M 339.041565 144.735848 
L 418.617476 144.735848 
L 418.617476 114.605748 
L 339.041565 114.605748 
z
" clip-path="url(#p728eaba2f0)" style="fill: #9f1853; stroke: #9f1853; stroke-width: 1.5; stroke-linejoin: miter"/>
   </g>
   <g id="patch_14">
    <path d="M 426.882394 191.089847 
L 516.192645 191.089847 
L 516.192645 114.605748 
L 426.882394 114.605748 
z
" clip-path="url(#p728eaba2f0)" style="fill: #9f1853; stroke: #9f1853; stroke-width: 1.5; stroke-linejoin: miter"/>
   </g>
   <g id="patch_15">
    <path d="M 524.603578 144.735848 
L 603.887458 144.735848 
L 603.887458 114.605748 
L 524.603578 114.605748 
z
" clip-path="url(#p728eaba2f0)" style="fill: #9f1853; stroke: #9f1853; stroke-width: 1.5; stroke-linejoin: miter"/>
   </g>
   <g id="patch_16">
    <path d="M 524.603578 191.089847 
L 603.887458 191.089847 
L 603.887458 160.959748 
L 524.603578 160.959748 
z
" clip-path="url(#p728eaba2f0)" style="fill: #9f1853; stroke: #9f1853; stroke-width: 1.5; stroke-linejoin: miter"/>
   </g>
   <g id="text_1">
    <g clip-path="url(#p728eaba2f0)">
     <!-- ${q}_{0}$ -->
     <g transform="translate(117.897064 87.767775) scale(0.1625 -0.1625)">
      <defs>
       <path id="DejaVuSans-Oblique-71" d="M 2669 525 
Q 2438 222 2123 65 
Q 1809 -91 1428 -91 
Q 897 -91 595 267 
Q 294 625 294 1253 
Q 294 1759 480 2231 
Q 666 2703 1013 3078 
Q 1238 3322 1530 3453 
Q 1822 3584 2144 3584 
Q 2531 3584 2781 3431 
Q 3031 3278 3144 2969 
L 3244 3494 
L 3822 3494 
L 2888 -1319 
L 2309 -1319 
L 2669 525 
z
M 891 1338 
Q 891 875 1084 633 
Q 1278 391 1644 391 
Q 2188 391 2572 911 
Q 2956 1431 2956 2175 
Q 2956 2625 2757 2864 
Q 2559 3103 2188 3103 
Q 1916 3103 1684 2976 
Q 1453 2850 1281 2606 
Q 1100 2350 995 2006 
Q 891 1663 891 1338 
z
" transform="scale(0.015625)"/>
       <path id="DejaVuSans-30" d="M 2034 4250 
Q 1547 4250 1301 3770 
Q 1056 3291 1056 2328 
Q 1056 1369 1301 889 
Q 1547 409 2034 409 
Q 2525 409 2770 889 
Q 3016 1369 3016 2328 
Q 3016 3291 2770 3770 
Q 2525 4250 2034 4250 
z
M 2034 4750 
Q 2819 4750 3233 4129 
Q 3647 3509 3647 2328 
Q 3647 1150 3233 529 
Q 2819 -91 2034 -91 
Q 1250 -91 836 529 
Q 422 1150 422 2328 
Q 422 3509 836 4129 
Q 1250 4750 2034 4750 
z
" transform="scale(0.015625)"/>
      </defs>
      <use xlink:href="#DejaVuSans-Oblique-71"/>
      <use xlink:href="#DejaVuSans-30" transform="translate(63.476562 -16.40625) scale(0.7)"/>
     </g>
    </g>
   </g>
   <g id="text_2">
    <g clip-path="url(#p728eaba2f0)">
     <!-- ${q}_{1}$ -->
     <g transform="translate(117.897064 134.121775) scale(0.1625 -0.1625)">
      <defs>
       <path id="DejaVuSans-31" d="M 794 531 
L 1825 531 
L 1825 4091 
L 703 3866 
L 703 4441 
L 1819 4666 
L 2450 4666 
L 2450 531 
L 3481 531 
L 3481 0 
L 794 0 
L 794 531 
z
" transform="scale(0.015625)"/>
      </defs>
      <use xlink:href="#DejaVuSans-Oblique-71"/>
      <use xlink:href="#DejaVuSans-31" transform="translate(63.476562 -16.40625) scale(0.7)"/>
     </g>
    </g>
   </g>
   <g id="text_3">
    <g clip-path="url(#p728eaba2f0)">
     <!-- ${q}_{2}$ -->
     <g transform="translate(117.897064 180.475774) scale(0.1625 -0.1625)">
      <defs>
       <path id="DejaVuSans-32" d="M 1228 531 
L 3431 531 
L 3431 0 
L 469 0 
L 469 531 
Q 828 903 1448 1529 
Q 2069 2156 2228 2338 
Q 2531 2678 2651 2914 
Q 2772 3150 2772 3378 
Q 2772 3750 2511 3984 
Q 2250 4219 1831 4219 
Q 1534 4219 1204 4116 
Q 875 4013 500 3803 
L 500 4441 
Q 881 4594 1212 4672 
Q 1544 4750 1819 4750 
Q 2544 4750 2975 4387 
Q 3406 4025 3406 3419 
Q 3406 3131 3298 2873 
Q 3191 2616 2906 2266 
Q 2828 2175 2409 1742 
Q 1991 1309 1228 531 
z
" transform="scale(0.015625)"/>
      </defs>
      <use xlink:href="#DejaVuSans-Oblique-71"/>
      <use xlink:href="#DejaVuSans-32" transform="translate(63.476562 -16.40625) scale(0.7)"/>
     </g>
    </g>
   </g>
   <g id="text_4">
    <g clip-path="url(#p728eaba2f0)">
     <!-- ${q}_{3}$ -->
     <g transform="translate(117.897064 226.829774) scale(0.1625 -0.1625)">
      <defs>
       <path id="DejaVuSans-33" d="M 2597 2516 
Q 3050 2419 3304 2112 
Q 3559 1806 3559 1356 
Q 3559 666 3084 287 
Q 2609 -91 1734 -91 
Q 1441 -91 1130 -33 
Q 819 25 488 141 
L 488 750 
Q 750 597 1062 519 
Q 1375 441 1716 441 
Q 2309 441 2620 675 
Q 2931 909 2931 1356 
Q 2931 1769 2642 2001 
Q 2353 2234 1838 2234 
L 1294 2234 
L 1294 2753 
L 1863 2753 
Q 2328 2753 2575 2939 
Q 2822 3125 2822 3475 
Q 2822 3834 2567 4026 
Q 2313 4219 1838 4219 
Q 1578 4219 1281 4162 
Q 984 4106 628 3988 
L 628 4550 
Q 988 4650 1302 4700 
Q 1616 4750 1894 4750 
Q 2613 4750 3031 4423 
Q 3450 4097 3450 3541 
Q 3450 3153 3228 2886 
Q 3006 2619 2597 2516 
z
" transform="scale(0.015625)"/>
      </defs>
      <use xlink:href="#DejaVuSans-Oblique-71"/>
      <use xlink:href="#DejaVuSans-33" transform="translate(63.476562 -16.40625) scale(0.7)"/>
     </g>
    </g>
   </g>
   <g id="text_5">
    <g clip-path="url(#p728eaba2f0)">
     <!-- ${q}_{4}$ -->
     <g transform="translate(117.897064 273.183773) scale(0.1625 -0.1625)">
      <defs>
       <path id="DejaVuSans-34" d="M 2419 4116 
L 825 1625 
L 2419 1625 
L 2419 4116 
z
M 2253 4666 
L 3047 4666 
L 3047 1625 
L 3713 1625 
L 3713 1100 
L 3047 1100 
L 3047 0 
L 2419 0 
L 2419 1100 
L 313 1100 
L 313 1709 
L 2253 4666 
z
" transform="scale(0.015625)"/>
      </defs>
      <use xlink:href="#DejaVuSans-Oblique-71"/>
      <use xlink:href="#DejaVuSans-34" transform="translate(63.476562 -16.40625) scale(0.7)"/>
     </g>
    </g>
   </g>
   <g id="text_6">
    <g clip-path="url(#p728eaba2f0)">
     <!-- ${q}_{5}$ -->
     <g transform="translate(117.897064 319.537772) scale(0.1625 -0.1625)">
      <defs>
       <path id="DejaVuSans-35" d="M 691 4666 
L 3169 4666 
L 3169 4134 
L 1269 4134 
L 1269 2991 
Q 1406 3038 1543 3061 
Q 1681 3084 1819 3084 
Q 2600 3084 3056 2656 
Q 3513 2228 3513 1497 
Q 3513 744 3044 326 
Q 2575 -91 1722 -91 
Q 1428 -91 1123 -41 
Q 819 9 494 109 
L 494 744 
Q 775 591 1075 516 
Q 1375 441 1709 441 
Q 2250 441 2565 725 
Q 2881 1009 2881 1497 
Q 2881 1984 2565 2268 
Q 2250 2553 1709 2553 
Q 1456 2553 1204 2497 
Q 953 2441 691 2322 
L 691 4666 
z
" transform="scale(0.015625)"/>
      </defs>
      <use xlink:href="#DejaVuSans-Oblique-71"/>
      <use xlink:href="#DejaVuSans-35" transform="translate(63.476562 -16.40625) scale(0.7)"/>
     </g>
    </g>
   </g>
   <g id="text_7">
    <g clip-path="url(#p728eaba2f0)">
     <!-- 0, x[0], x[1] -->
     <g style="fill: #ffffff" transform="translate(169.716023 94.563329) scale(0.08 -0.08)">
      <defs>
       <path id="DejaVuSans-2c" d="M 750 794 
L 1409 794 
L 1409 256 
L 897 -744 
L 494 -744 
L 750 256 
L 750 794 
z
" transform="scale(0.015625)"/>
       <path id="DejaVuSans-20" transform="scale(0.015625)"/>
       <path id="DejaVuSans-78" d="M 3513 3500 
L 2247 1797 
L 3578 0 
L 2900 0 
L 1881 1375 
L 863 0 
L 184 0 
L 1544 1831 
L 300 3500 
L 978 3500 
L 1906 2253 
L 2834 3500 
L 3513 3500 
z
" transform="scale(0.015625)"/>
       <path id="DejaVuSans-5b" d="M 550 4863 
L 1875 4863 
L 1875 4416 
L 1125 4416 
L 1125 -397 
L 1875 -397 
L 1875 -844 
L 550 -844 
L 550 4863 
z
" transform="scale(0.015625)"/>
       <path id="DejaVuSans-5d" d="M 1947 4863 
L 1947 -844 
L 622 -844 
L 622 -397 
L 1369 -397 
L 1369 4416 
L 622 4416 
L 622 4863 
L 1947 4863 
z
" transform="scale(0.015625)"/>
      </defs>
      <use xlink:href="#DejaVuSans-30"/>
      <use xlink:href="#DejaVuSans-2c" x="63.623047"/>
      <use xlink:href="#DejaVuSans-20" x="95.410156"/>
      <use xlink:href="#DejaVuSans-78" x="127.197266"/>
      <use xlink:href="#DejaVuSans-5b" x="186.376953"/>
      <use xlink:href="#DejaVuSans-30" x="225.390625"/>
      <use xlink:href="#DejaVuSans-5d" x="289.013672"/>
      <use xlink:href="#DejaVuSans-2c" x="328.027344"/>
      <use xlink:href="#DejaVuSans-20" x="359.814453"/>
      <use xlink:href="#DejaVuSans-78" x="391.601562"/>
      <use xlink:href="#DejaVuSans-5b" x="450.78125"/>
      <use xlink:href="#DejaVuSans-31" x="489.794922"/>
      <use xlink:href="#DejaVuSans-5d" x="553.417969"/>
     </g>
    </g>
   </g>
   <g id="text_8">
    <g clip-path="url(#p728eaba2f0)">
     <!-- ZXZ -->
     <g style="fill: #ffffff" transform="translate(180.056023 82.384471) scale(0.13 -0.13)">
      <defs>
       <path id="DejaVuSans-5a" d="M 359 4666 
L 4025 4666 
L 4025 4184 
L 1075 531 
L 4097 531 
L 4097 0 
L 288 0 
L 288 481 
L 3238 4134 
L 359 4134 
L 359 4666 
z
" transform="scale(0.015625)"/>
       <path id="DejaVuSans-58" d="M 403 4666 
L 1081 4666 
L 2241 2931 
L 3406 4666 
L 4084 4666 
L 2584 2425 
L 4184 0 
L 3506 0 
L 2194 1984 
L 872 0 
L 191 0 
L 1856 2491 
L 403 4666 
z
" transform="scale(0.015625)"/>
      </defs>
      <use xlink:href="#DejaVuSans-5a"/>
      <use xlink:href="#DejaVuSans-58" x="68.505859"/>
      <use xlink:href="#DejaVuSans-5a" x="137.011719"/>
     </g>
    </g>
   </g>
   <g id="text_9">
    <g clip-path="url(#p728eaba2f0)">
     <!-- 0, x[2], x[3] -->
     <g style="fill: #ffffff" transform="translate(169.716023 140.917328) scale(0.08 -0.08)">
      <use xlink:href="#DejaVuSans-30"/>
      <use xlink:href="#DejaVuSans-2c" x="63.623047"/>
      <use xlink:href="#DejaVuSans-20" x="95.410156"/>
      <use xlink:href="#DejaVuSans-78" x="127.197266"/>
      <use xlink:href="#DejaVuSans-5b" x="186.376953"/>
      <use xlink:href="#DejaVuSans-32" x="225.390625"/>
      <use xlink:href="#DejaVuSans-5d" x="289.013672"/>
      <use xlink:href="#DejaVuSans-2c" x="328.027344"/>
      <use xlink:href="#DejaVuSans-20" x="359.814453"/>
      <use xlink:href="#DejaVuSans-78" x="391.601562"/>
      <use xlink:href="#DejaVuSans-5b" x="450.78125"/>
      <use xlink:href="#DejaVuSans-33" x="489.794922"/>
      <use xlink:href="#DejaVuSans-5d" x="553.417969"/>
     </g>
    </g>
   </g>
   <g id="text_10">
    <g clip-path="url(#p728eaba2f0)">
     <!-- ZXZ -->
     <g style="fill: #ffffff" transform="translate(180.056023 128.738471) scale(0.13 -0.13)">
      <use xlink:href="#DejaVuSans-5a"/>
      <use xlink:href="#DejaVuSans-58" x="68.505859"/>
      <use xlink:href="#DejaVuSans-5a" x="137.011719"/>
     </g>
    </g>
   </g>
   <g id="text_11">
    <g clip-path="url(#p728eaba2f0)">
     <!-- 0, x[4], x[5] -->
     <g style="fill: #ffffff" transform="translate(169.716023 187.271328) scale(0.08 -0.08)">
      <use xlink:href="#DejaVuSans-30"/>
      <use xlink:href="#DejaVuSans-2c" x="63.623047"/>
      <use xlink:href="#DejaVuSans-20" x="95.410156"/>
      <use xlink:href="#DejaVuSans-78" x="127.197266"/>
      <use xlink:href="#DejaVuSans-5b" x="186.376953"/>
      <use xlink:href="#DejaVuSans-34" x="225.390625"/>
      <use xlink:href="#DejaVuSans-5d" x="289.013672"/>
      <use xlink:href="#DejaVuSans-2c" x="328.027344"/>
      <use xlink:href="#DejaVuSans-20" x="359.814453"/>
      <use xlink:href="#DejaVuSans-78" x="391.601562"/>
      <use xlink:href="#DejaVuSans-5b" x="450.78125"/>
      <use xlink:href="#DejaVuSans-35" x="489.794922"/>
      <use xlink:href="#DejaVuSans-5d" x="553.417969"/>
     </g>
    </g>
   </g>
   <g id="text_12">
    <g clip-path="url(#p728eaba2f0)">
     <!-- ZXZ -->
     <g style="fill: #ffffff" transform="translate(180.056023 175.09247) scale(0.13 -0.13)">
      <use xlink:href="#DejaVuSans-5a"/>
      <use xlink:href="#DejaVuSans-58" x="68.505859"/>
      <use xlink:href="#DejaVuSans-5a" x="137.011719"/>
     </g>
    </g>
   </g>
   <g id="text_13">
    <g clip-path="url(#p728eaba2f0)">
     <!-- 0, x[6], x[7] -->
     <g style="fill: #ffffff" transform="translate(169.716023 233.625327) scale(0.08 -0.08)">
      <defs>
       <path id="DejaVuSans-36" d="M 2113 2584 
Q 1688 2584 1439 2293 
Q 1191 2003 1191 1497 
Q 1191 994 1439 701 
Q 1688 409 2113 409 
Q 2538 409 2786 701 
Q 3034 994 3034 1497 
Q 3034 2003 2786 2293 
Q 2538 2584 2113 2584 
z
M 3366 4563 
L 3366 3988 
Q 3128 4100 2886 4159 
Q 2644 4219 2406 4219 
Q 1781 4219 1451 3797 
Q 1122 3375 1075 2522 
Q 1259 2794 1537 2939 
Q 1816 3084 2150 3084 
Q 2853 3084 3261 2657 
Q 3669 2231 3669 1497 
Q 3669 778 3244 343 
Q 2819 -91 2113 -91 
Q 1303 -91 875 529 
Q 447 1150 447 2328 
Q 447 3434 972 4092 
Q 1497 4750 2381 4750 
Q 2619 4750 2861 4703 
Q 3103 4656 3366 4563 
z
" transform="scale(0.015625)"/>
       <path id="DejaVuSans-37" d="M 525 4666 
L 3525 4666 
L 3525 4397 
L 1831 0 
L 1172 0 
L 2766 4134 
L 525 4134 
L 525 4666 
z
" transform="scale(0.015625)"/>
      </defs>
      <use xlink:href="#DejaVuSans-30"/>
      <use xlink:href="#DejaVuSans-2c" x="63.623047"/>
      <use xlink:href="#DejaVuSans-20" x="95.410156"/>
      <use xlink:href="#DejaVuSans-78" x="127.197266"/>
      <use xlink:href="#DejaVuSans-5b" x="186.376953"/>
      <use xlink:href="#DejaVuSans-36" x="225.390625"/>
      <use xlink:href="#DejaVuSans-5d" x="289.013672"/>
      <use xlink:href="#DejaVuSans-2c" x="328.027344"/>
      <use xlink:href="#DejaVuSans-20" x="359.814453"/>
      <use xlink:href="#DejaVuSans-78" x="391.601562"/>
      <use xlink:href="#DejaVuSans-5b" x="450.78125"/>
      <use xlink:href="#DejaVuSans-37" x="489.794922"/>
      <use xlink:href="#DejaVuSans-5d" x="553.417969"/>
     </g>
    </g>
   </g>
   <g id="text_14">
    <g clip-path="url(#p728eaba2f0)">
     <!-- ZXZ -->
     <g style="fill: #ffffff" transform="translate(180.056023 221.44647) scale(0.13 -0.13)">
      <use xlink:href="#DejaVuSans-5a"/>
      <use xlink:href="#DejaVuSans-58" x="68.505859"/>
      <use xlink:href="#DejaVuSans-5a" x="137.011719"/>
     </g>
    </g>
   </g>
   <g id="text_15">
    <g clip-path="url(#p728eaba2f0)">
     <!-- 0, x[8], x[9] -->
     <g style="fill: #ffffff" transform="translate(169.716023 279.979326) scale(0.08 -0.08)">
      <defs>
       <path id="DejaVuSans-38" d="M 2034 2216 
Q 1584 2216 1326 1975 
Q 1069 1734 1069 1313 
Q 1069 891 1326 650 
Q 1584 409 2034 409 
Q 2484 409 2743 651 
Q 3003 894 3003 1313 
Q 3003 1734 2745 1975 
Q 2488 2216 2034 2216 
z
M 1403 2484 
Q 997 2584 770 2862 
Q 544 3141 544 3541 
Q 544 4100 942 4425 
Q 1341 4750 2034 4750 
Q 2731 4750 3128 4425 
Q 3525 4100 3525 3541 
Q 3525 3141 3298 2862 
Q 3072 2584 2669 2484 
Q 3125 2378 3379 2068 
Q 3634 1759 3634 1313 
Q 3634 634 3220 271 
Q 2806 -91 2034 -91 
Q 1263 -91 848 271 
Q 434 634 434 1313 
Q 434 1759 690 2068 
Q 947 2378 1403 2484 
z
M 1172 3481 
Q 1172 3119 1398 2916 
Q 1625 2713 2034 2713 
Q 2441 2713 2670 2916 
Q 2900 3119 2900 3481 
Q 2900 3844 2670 4047 
Q 2441 4250 2034 4250 
Q 1625 4250 1398 4047 
Q 1172 3844 1172 3481 
z
" transform="scale(0.015625)"/>
       <path id="DejaVuSans-39" d="M 703 97 
L 703 672 
Q 941 559 1184 500 
Q 1428 441 1663 441 
Q 2288 441 2617 861 
Q 2947 1281 2994 2138 
Q 2813 1869 2534 1725 
Q 2256 1581 1919 1581 
Q 1219 1581 811 2004 
Q 403 2428 403 3163 
Q 403 3881 828 4315 
Q 1253 4750 1959 4750 
Q 2769 4750 3195 4129 
Q 3622 3509 3622 2328 
Q 3622 1225 3098 567 
Q 2575 -91 1691 -91 
Q 1453 -91 1209 -44 
Q 966 3 703 97 
z
M 1959 2075 
Q 2384 2075 2632 2365 
Q 2881 2656 2881 3163 
Q 2881 3666 2632 3958 
Q 2384 4250 1959 4250 
Q 1534 4250 1286 3958 
Q 1038 3666 1038 3163 
Q 1038 2656 1286 2365 
Q 1534 2075 1959 2075 
z
" transform="scale(0.015625)"/>
      </defs>
      <use xlink:href="#DejaVuSans-30"/>
      <use xlink:href="#DejaVuSans-2c" x="63.623047"/>
      <use xlink:href="#DejaVuSans-20" x="95.410156"/>
      <use xlink:href="#DejaVuSans-78" x="127.197266"/>
      <use xlink:href="#DejaVuSans-5b" x="186.376953"/>
      <use xlink:href="#DejaVuSans-38" x="225.390625"/>
      <use xlink:href="#DejaVuSans-5d" x="289.013672"/>
      <use xlink:href="#DejaVuSans-2c" x="328.027344"/>
      <use xlink:href="#DejaVuSans-20" x="359.814453"/>
      <use xlink:href="#DejaVuSans-78" x="391.601562"/>
      <use xlink:href="#DejaVuSans-5b" x="450.78125"/>
      <use xlink:href="#DejaVuSans-39" x="489.794922"/>
      <use xlink:href="#DejaVuSans-5d" x="553.417969"/>
     </g>
    </g>
   </g>
   <g id="text_16">
    <g clip-path="url(#p728eaba2f0)">
     <!-- ZXZ -->
     <g style="fill: #ffffff" transform="translate(180.056023 267.800469) scale(0.13 -0.13)">
      <use xlink:href="#DejaVuSans-5a"/>
      <use xlink:href="#DejaVuSans-58" x="68.505859"/>
      <use xlink:href="#DejaVuSans-5a" x="137.011719"/>
     </g>
    </g>
   </g>
   <g id="text_17">
    <g clip-path="url(#p728eaba2f0)">
     <!-- 0 -->
     <g style="fill: #ffffff" transform="translate(244.857192 179.611985) scale(0.13 -0.13)">
      <use xlink:href="#DejaVuSans-30"/>
     </g>
    </g>
   </g>
   <g id="text_18">
    <g clip-path="url(#p728eaba2f0)">
     <!-- 1 -->
     <g style="fill: #ffffff" transform="translate(244.857192 225.965985) scale(0.13 -0.13)">
      <use xlink:href="#DejaVuSans-31"/>
     </g>
    </g>
   </g>
   <g id="text_19">
    <g clip-path="url(#p728eaba2f0)">
     <!-- x[10], x[11], x[12] -->
     <g style="fill: #ffffff" transform="translate(254.399212 209.289477) scale(0.08 -0.08)">
      <use xlink:href="#DejaVuSans-78"/>
      <use xlink:href="#DejaVuSans-5b" x="59.179688"/>
      <use xlink:href="#DejaVuSans-31" x="98.193359"/>
      <use xlink:href="#DejaVuSans-30" x="161.816406"/>
      <use xlink:href="#DejaVuSans-5d" x="225.439453"/>
      <use xlink:href="#DejaVuSans-2c" x="264.453125"/>
      <use xlink:href="#DejaVuSans-20" x="296.240234"/>
      <use xlink:href="#DejaVuSans-78" x="328.027344"/>
      <use xlink:href="#DejaVuSans-5b" x="387.207031"/>
      <use xlink:href="#DejaVuSans-31" x="426.220703"/>
      <use xlink:href="#DejaVuSans-31" x="489.84375"/>
      <use xlink:href="#DejaVuSans-5d" x="553.466797"/>
      <use xlink:href="#DejaVuSans-2c" x="592.480469"/>
      <use xlink:href="#DejaVuSans-20" x="624.267578"/>
      <use xlink:href="#DejaVuSans-78" x="656.054688"/>
      <use xlink:href="#DejaVuSans-5b" x="715.234375"/>
      <use xlink:href="#DejaVuSans-31" x="754.248047"/>
      <use xlink:href="#DejaVuSans-32" x="817.871094"/>
      <use xlink:href="#DejaVuSans-5d" x="881.494141"/>
     </g>
    </g>
   </g>
   <g id="text_20">
    <g clip-path="url(#p728eaba2f0)">
     <!-- KAK -->
     <g style="fill: #ffffff" transform="translate(278.362649 195.372345) scale(0.13 -0.13)">
      <defs>
       <path id="DejaVuSans-4b" d="M 628 4666 
L 1259 4666 
L 1259 2694 
L 3353 4666 
L 4166 4666 
L 1850 2491 
L 4331 0 
L 3500 0 
L 1259 2247 
L 1259 0 
L 628 0 
L 628 4666 
z
" transform="scale(0.015625)"/>
       <path id="DejaVuSans-41" d="M 2188 4044 
L 1331 1722 
L 3047 1722 
L 2188 4044 
z
M 1831 4666 
L 2547 4666 
L 4325 0 
L 3669 0 
L 3244 1197 
L 1141 1197 
L 716 0 
L 50 0 
L 1831 4666 
z
" transform="scale(0.015625)"/>
      </defs>
      <use xlink:href="#DejaVuSans-4b"/>
      <use xlink:href="#DejaVuSans-41" x="63.826172"/>
      <use xlink:href="#DejaVuSans-4b" x="132.234375"/>
     </g>
    </g>
   </g>
   <g id="text_21">
    <g clip-path="url(#p728eaba2f0)">
     <!-- 0 -->
     <g style="fill: #ffffff" transform="translate(244.759848 86.903986) scale(0.13 -0.13)">
      <use xlink:href="#DejaVuSans-30"/>
     </g>
    </g>
   </g>
   <g id="text_22">
    <g clip-path="url(#p728eaba2f0)">
     <!-- 1 -->
     <g style="fill: #ffffff" transform="translate(244.759848 133.257986) scale(0.13 -0.13)">
      <use xlink:href="#DejaVuSans-31"/>
     </g>
    </g>
   </g>
   <g id="text_23">
    <g clip-path="url(#p728eaba2f0)">
     <!-- x[19], x[20], x[21] -->
     <g style="fill: #ffffff" transform="translate(254.399212 116.581478) scale(0.08 -0.08)">
      <use xlink:href="#DejaVuSans-78"/>
      <use xlink:href="#DejaVuSans-5b" x="59.179688"/>
      <use xlink:href="#DejaVuSans-31" x="98.193359"/>
      <use xlink:href="#DejaVuSans-39" x="161.816406"/>
      <use xlink:href="#DejaVuSans-5d" x="225.439453"/>
      <use xlink:href="#DejaVuSans-2c" x="264.453125"/>
      <use xlink:href="#DejaVuSans-20" x="296.240234"/>
      <use xlink:href="#DejaVuSans-78" x="328.027344"/>
      <use xlink:href="#DejaVuSans-5b" x="387.207031"/>
      <use xlink:href="#DejaVuSans-32" x="426.220703"/>
      <use xlink:href="#DejaVuSans-30" x="489.84375"/>
      <use xlink:href="#DejaVuSans-5d" x="553.466797"/>
      <use xlink:href="#DejaVuSans-2c" x="592.480469"/>
      <use xlink:href="#DejaVuSans-20" x="624.267578"/>
      <use xlink:href="#DejaVuSans-78" x="656.054688"/>
      <use xlink:href="#DejaVuSans-5b" x="715.234375"/>
      <use xlink:href="#DejaVuSans-32" x="754.248047"/>
      <use xlink:href="#DejaVuSans-31" x="817.871094"/>
      <use xlink:href="#DejaVuSans-5d" x="881.494141"/>
     </g>
    </g>
   </g>
   <g id="text_24">
    <g clip-path="url(#p728eaba2f0)">
     <!-- KAK -->
     <g style="fill: #ffffff" transform="translate(278.362649 102.664346) scale(0.13 -0.13)">
      <use xlink:href="#DejaVuSans-4b"/>
      <use xlink:href="#DejaVuSans-41" x="63.826172"/>
      <use xlink:href="#DejaVuSans-4b" x="132.234375"/>
     </g>
    </g>
   </g>
   <g id="text_25">
    <g clip-path="url(#p728eaba2f0)">
     <!-- x[13], x[14], x[15] -->
     <g style="fill: #ffffff" transform="translate(342.008271 187.271328) scale(0.08 -0.08)">
      <use xlink:href="#DejaVuSans-78"/>
      <use xlink:href="#DejaVuSans-5b" x="59.179688"/>
      <use xlink:href="#DejaVuSans-31" x="98.193359"/>
      <use xlink:href="#DejaVuSans-33" x="161.816406"/>
      <use xlink:href="#DejaVuSans-5d" x="225.439453"/>
      <use xlink:href="#DejaVuSans-2c" x="264.453125"/>
      <use xlink:href="#DejaVuSans-20" x="296.240234"/>
      <use xlink:href="#DejaVuSans-78" x="328.027344"/>
      <use xlink:href="#DejaVuSans-5b" x="387.207031"/>
      <use xlink:href="#DejaVuSans-31" x="426.220703"/>
      <use xlink:href="#DejaVuSans-34" x="489.84375"/>
      <use xlink:href="#DejaVuSans-5d" x="553.466797"/>
      <use xlink:href="#DejaVuSans-2c" x="592.480469"/>
      <use xlink:href="#DejaVuSans-20" x="624.267578"/>
      <use xlink:href="#DejaVuSans-78" x="656.054688"/>
      <use xlink:href="#DejaVuSans-5b" x="715.234375"/>
      <use xlink:href="#DejaVuSans-31" x="754.248047"/>
      <use xlink:href="#DejaVuSans-35" x="817.871094"/>
      <use xlink:href="#DejaVuSans-5d" x="881.494141"/>
     </g>
    </g>
   </g>
   <g id="text_26">
    <g clip-path="url(#p728eaba2f0)">
     <!-- ZXZ -->
     <g style="fill: #ffffff" transform="translate(365.472021 175.09247) scale(0.13 -0.13)">
      <use xlink:href="#DejaVuSans-5a"/>
      <use xlink:href="#DejaVuSans-58" x="68.505859"/>
      <use xlink:href="#DejaVuSans-5a" x="137.011719"/>
     </g>
    </g>
   </g>
   <g id="text_27">
    <g clip-path="url(#p728eaba2f0)">
     <!-- x[16], x[17], x[18] -->
     <g style="fill: #ffffff" transform="translate(342.008271 233.625327) scale(0.08 -0.08)">
      <use xlink:href="#DejaVuSans-78"/>
      <use xlink:href="#DejaVuSans-5b" x="59.179688"/>
      <use xlink:href="#DejaVuSans-31" x="98.193359"/>
      <use xlink:href="#DejaVuSans-36" x="161.816406"/>
      <use xlink:href="#DejaVuSans-5d" x="225.439453"/>
      <use xlink:href="#DejaVuSans-2c" x="264.453125"/>
      <use xlink:href="#DejaVuSans-20" x="296.240234"/>
      <use xlink:href="#DejaVuSans-78" x="328.027344"/>
      <use xlink:href="#DejaVuSans-5b" x="387.207031"/>
      <use xlink:href="#DejaVuSans-31" x="426.220703"/>
      <use xlink:href="#DejaVuSans-37" x="489.84375"/>
      <use xlink:href="#DejaVuSans-5d" x="553.466797"/>
      <use xlink:href="#DejaVuSans-2c" x="592.480469"/>
      <use xlink:href="#DejaVuSans-20" x="624.267578"/>
      <use xlink:href="#DejaVuSans-78" x="656.054688"/>
      <use xlink:href="#DejaVuSans-5b" x="715.234375"/>
      <use xlink:href="#DejaVuSans-31" x="754.248047"/>
      <use xlink:href="#DejaVuSans-38" x="817.871094"/>
      <use xlink:href="#DejaVuSans-5d" x="881.494141"/>
     </g>
    </g>
   </g>
   <g id="text_28">
    <g clip-path="url(#p728eaba2f0)">
     <!-- ZXZ -->
     <g style="fill: #ffffff" transform="translate(365.472021 221.44647) scale(0.13 -0.13)">
      <use xlink:href="#DejaVuSans-5a"/>
      <use xlink:href="#DejaVuSans-58" x="68.505859"/>
      <use xlink:href="#DejaVuSans-5a" x="137.011719"/>
     </g>
    </g>
   </g>
   <g id="text_29">
    <g clip-path="url(#p728eaba2f0)">
     <!-- x[22], x[23], x[24] -->
     <g style="fill: #ffffff" transform="translate(342.008271 94.563329) scale(0.08 -0.08)">
      <use xlink:href="#DejaVuSans-78"/>
      <use xlink:href="#DejaVuSans-5b" x="59.179688"/>
      <use xlink:href="#DejaVuSans-32" x="98.193359"/>
      <use xlink:href="#DejaVuSans-32" x="161.816406"/>
      <use xlink:href="#DejaVuSans-5d" x="225.439453"/>
      <use xlink:href="#DejaVuSans-2c" x="264.453125"/>
      <use xlink:href="#DejaVuSans-20" x="296.240234"/>
      <use xlink:href="#DejaVuSans-78" x="328.027344"/>
      <use xlink:href="#DejaVuSans-5b" x="387.207031"/>
      <use xlink:href="#DejaVuSans-32" x="426.220703"/>
      <use xlink:href="#DejaVuSans-33" x="489.84375"/>
      <use xlink:href="#DejaVuSans-5d" x="553.466797"/>
      <use xlink:href="#DejaVuSans-2c" x="592.480469"/>
      <use xlink:href="#DejaVuSans-20" x="624.267578"/>
      <use xlink:href="#DejaVuSans-78" x="656.054688"/>
      <use xlink:href="#DejaVuSans-5b" x="715.234375"/>
      <use xlink:href="#DejaVuSans-32" x="754.248047"/>
      <use xlink:href="#DejaVuSans-34" x="817.871094"/>
      <use xlink:href="#DejaVuSans-5d" x="881.494141"/>
     </g>
    </g>
   </g>
   <g id="text_30">
    <g clip-path="url(#p728eaba2f0)">
     <!-- ZXZ -->
     <g style="fill: #ffffff" transform="translate(365.472021 82.384471) scale(0.13 -0.13)">
      <use xlink:href="#DejaVuSans-5a"/>
      <use xlink:href="#DejaVuSans-58" x="68.505859"/>
      <use xlink:href="#DejaVuSans-5a" x="137.011719"/>
     </g>
    </g>
   </g>
   <g id="text_31">
    <g clip-path="url(#p728eaba2f0)">
     <!-- x[25], x[26], x[27] -->
     <g style="fill: #ffffff" transform="translate(342.008271 140.917328) scale(0.08 -0.08)">
      <use xlink:href="#DejaVuSans-78"/>
      <use xlink:href="#DejaVuSans-5b" x="59.179688"/>
      <use xlink:href="#DejaVuSans-32" x="98.193359"/>
      <use xlink:href="#DejaVuSans-35" x="161.816406"/>
      <use xlink:href="#DejaVuSans-5d" x="225.439453"/>
      <use xlink:href="#DejaVuSans-2c" x="264.453125"/>
      <use xlink:href="#DejaVuSans-20" x="296.240234"/>
      <use xlink:href="#DejaVuSans-78" x="328.027344"/>
      <use xlink:href="#DejaVuSans-5b" x="387.207031"/>
      <use xlink:href="#DejaVuSans-32" x="426.220703"/>
      <use xlink:href="#DejaVuSans-36" x="489.84375"/>
      <use xlink:href="#DejaVuSans-5d" x="553.466797"/>
      <use xlink:href="#DejaVuSans-2c" x="592.480469"/>
      <use xlink:href="#DejaVuSans-20" x="624.267578"/>
      <use xlink:href="#DejaVuSans-78" x="656.054688"/>
      <use xlink:href="#DejaVuSans-5b" x="715.234375"/>
      <use xlink:href="#DejaVuSans-32" x="754.248047"/>
      <use xlink:href="#DejaVuSans-37" x="817.871094"/>
      <use xlink:href="#DejaVuSans-5d" x="881.494141"/>
     </g>
    </g>
   </g>
   <g id="text_32">
    <g clip-path="url(#p728eaba2f0)">
     <!-- ZXZ -->
     <g style="fill: #ffffff" transform="translate(365.472021 128.738471) scale(0.13 -0.13)">
      <use xlink:href="#DejaVuSans-5a"/>
      <use xlink:href="#DejaVuSans-58" x="68.505859"/>
      <use xlink:href="#DejaVuSans-5a" x="137.011719"/>
     </g>
    </g>
   </g>
   <g id="text_33">
    <g clip-path="url(#p728eaba2f0)">
     <!-- 0 -->
     <g style="fill: #ffffff" transform="translate(430.127174 133.257986) scale(0.13 -0.13)">
      <use xlink:href="#DejaVuSans-30"/>
     </g>
    </g>
   </g>
   <g id="text_34">
    <g clip-path="url(#p728eaba2f0)">
     <!-- 1 -->
     <g style="fill: #ffffff" transform="translate(430.127174 179.611985) scale(0.13 -0.13)">
      <use xlink:href="#DejaVuSans-31"/>
     </g>
    </g>
   </g>
   <g id="text_35">
    <g clip-path="url(#p728eaba2f0)">
     <!-- x[28], x[29], x[30] -->
     <g style="fill: #ffffff" transform="translate(439.815209 162.935478) scale(0.08 -0.08)">
      <use xlink:href="#DejaVuSans-78"/>
      <use xlink:href="#DejaVuSans-5b" x="59.179688"/>
      <use xlink:href="#DejaVuSans-32" x="98.193359"/>
      <use xlink:href="#DejaVuSans-38" x="161.816406"/>
      <use xlink:href="#DejaVuSans-5d" x="225.439453"/>
      <use xlink:href="#DejaVuSans-2c" x="264.453125"/>
      <use xlink:href="#DejaVuSans-20" x="296.240234"/>
      <use xlink:href="#DejaVuSans-78" x="328.027344"/>
      <use xlink:href="#DejaVuSans-5b" x="387.207031"/>
      <use xlink:href="#DejaVuSans-32" x="426.220703"/>
      <use xlink:href="#DejaVuSans-39" x="489.84375"/>
      <use xlink:href="#DejaVuSans-5d" x="553.466797"/>
      <use xlink:href="#DejaVuSans-2c" x="592.480469"/>
      <use xlink:href="#DejaVuSans-20" x="624.267578"/>
      <use xlink:href="#DejaVuSans-78" x="656.054688"/>
      <use xlink:href="#DejaVuSans-5b" x="715.234375"/>
      <use xlink:href="#DejaVuSans-33" x="754.248047"/>
      <use xlink:href="#DejaVuSans-30" x="817.871094"/>
      <use xlink:href="#DejaVuSans-5d" x="881.494141"/>
     </g>
    </g>
   </g>
   <g id="text_36">
    <g clip-path="url(#p728eaba2f0)">
     <!-- KAK -->
     <g style="fill: #ffffff" transform="translate(463.778647 149.018346) scale(0.13 -0.13)">
      <use xlink:href="#DejaVuSans-4b"/>
      <use xlink:href="#DejaVuSans-41" x="63.826172"/>
      <use xlink:href="#DejaVuSans-4b" x="132.234375"/>
     </g>
    </g>
   </g>
   <g id="text_37">
    <g clip-path="url(#p728eaba2f0)">
     <!-- x[31], x[32], x[33] -->
     <g style="fill: #ffffff" transform="translate(527.424268 140.917328) scale(0.08 -0.08)">
      <use xlink:href="#DejaVuSans-78"/>
      <use xlink:href="#DejaVuSans-5b" x="59.179688"/>
      <use xlink:href="#DejaVuSans-33" x="98.193359"/>
      <use xlink:href="#DejaVuSans-31" x="161.816406"/>
      <use xlink:href="#DejaVuSans-5d" x="225.439453"/>
      <use xlink:href="#DejaVuSans-2c" x="264.453125"/>
      <use xlink:href="#DejaVuSans-20" x="296.240234"/>
      <use xlink:href="#DejaVuSans-78" x="328.027344"/>
      <use xlink:href="#DejaVuSans-5b" x="387.207031"/>
      <use xlink:href="#DejaVuSans-33" x="426.220703"/>
      <use xlink:href="#DejaVuSans-32" x="489.84375"/>
      <use xlink:href="#DejaVuSans-5d" x="553.466797"/>
      <use xlink:href="#DejaVuSans-2c" x="592.480469"/>
      <use xlink:href="#DejaVuSans-20" x="624.267578"/>
      <use xlink:href="#DejaVuSans-78" x="656.054688"/>
      <use xlink:href="#DejaVuSans-5b" x="715.234375"/>
      <use xlink:href="#DejaVuSans-33" x="754.248047"/>
      <use xlink:href="#DejaVuSans-33" x="817.871094"/>
      <use xlink:href="#DejaVuSans-5d" x="881.494141"/>
     </g>
    </g>
   </g>
   <g id="text_38">
    <g clip-path="url(#p728eaba2f0)">
     <!-- ZXZ -->
     <g style="fill: #ffffff" transform="translate(550.888018 128.738471) scale(0.13 -0.13)">
      <use xlink:href="#DejaVuSans-5a"/>
      <use xlink:href="#DejaVuSans-58" x="68.505859"/>
      <use xlink:href="#DejaVuSans-5a" x="137.011719"/>
     </g>
    </g>
   </g>
   <g id="text_39">
    <g clip-path="url(#p728eaba2f0)">
     <!-- x[34], x[35], x[36] -->
     <g style="fill: #ffffff" transform="translate(527.424268 187.271328) scale(0.08 -0.08)">
      <use xlink:href="#DejaVuSans-78"/>
      <use xlink:href="#DejaVuSans-5b" x="59.179688"/>
      <use xlink:href="#DejaVuSans-33" x="98.193359"/>
      <use xlink:href="#DejaVuSans-34" x="161.816406"/>
      <use xlink:href="#DejaVuSans-5d" x="225.439453"/>
      <use xlink:href="#DejaVuSans-2c" x="264.453125"/>
      <use xlink:href="#DejaVuSans-20" x="296.240234"/>
      <use xlink:href="#DejaVuSans-78" x="328.027344"/>
      <use xlink:href="#DejaVuSans-5b" x="387.207031"/>
      <use xlink:href="#DejaVuSans-33" x="426.220703"/>
      <use xlink:href="#DejaVuSans-35" x="489.84375"/>
      <use xlink:href="#DejaVuSans-5d" x="553.466797"/>
      <use xlink:href="#DejaVuSans-2c" x="592.480469"/>
      <use xlink:href="#DejaVuSans-20" x="624.267578"/>
      <use xlink:href="#DejaVuSans-78" x="656.054688"/>
      <use xlink:href="#DejaVuSans-5b" x="715.234375"/>
      <use xlink:href="#DejaVuSans-33" x="754.248047"/>
      <use xlink:href="#DejaVuSans-36" x="817.871094"/>
      <use xlink:href="#DejaVuSans-5d" x="881.494141"/>
     </g>
    </g>
   </g>
   <g id="text_40">
    <g clip-path="url(#p728eaba2f0)">
     <!-- ZXZ -->
     <g style="fill: #ffffff" transform="translate(550.888018 175.09247) scale(0.13 -0.13)">
      <use xlink:href="#DejaVuSans-5a"/>
      <use xlink:href="#DejaVuSans-58" x="68.505859"/>
      <use xlink:href="#DejaVuSans-5a" x="137.011719"/>
     </g>
    </g>
   </g>
  </g>
 </g>
 <defs>
  <clipPath id="p728eaba2f0">
   <rect x="87.796167" y="46.233599" width="530.21999" height="296.665596"/>
  </clipPath>
 </defs>
</svg>
