<svg width="1341" height="532" viewBox="0 0 1341 532" fill="none" xmlns="http://www.w3.org/2000/svg">
<rect width="1341" height="532" fill="white"/>
<path d="M43.14 40.74H39.36V52H36.32V40.74H32.54V38.04H43.14V40.74ZM48.0111 52.24C44.9311 52.24 43.0911 50.12 43.0911 46.74C43.0911 43.36 44.9311 41.26 48.0111 41.26C51.0911 41.26 52.9311 43.36 52.9311 46.74C52.9311 50.12 51.0911 52.24 48.0111 52.24ZM48.0111 49.9C49.1711 49.9 49.8511 49.14 49.8511 47.82V45.68C49.8511 44.36 49.1711 43.6 48.0111 43.6C46.8511 43.6 46.1711 44.36 46.1711 45.68V47.82C46.1711 49.14 46.8511 49.9 48.0111 49.9ZM59.3002 52.24C56.2202 52.24 54.3802 50.12 54.3802 46.74C54.3802 43.36 56.2202 41.26 59.3002 41.26C62.3802 41.26 64.2202 43.36 64.2202 46.74C64.2202 50.12 62.3802 52.24 59.3002 52.24ZM59.3002 49.9C60.4602 49.9 61.1402 49.14 61.1402 47.82V45.68C61.1402 44.36 60.4602 43.6 59.3002 43.6C58.1402 43.6 57.4602 44.36 57.4602 45.68V47.82C57.4602 49.14 58.1402 49.9 59.3002 49.9ZM70.6092 52H69.2692C67.2492 52 66.3292 50.98 66.3292 49.12V37.2H69.2892V49.7H70.6092V52ZM82.8705 52.24C79.1705 52.24 76.7305 49.76 76.7305 45.02C76.7305 40.28 79.1705 37.8 82.8705 37.8C86.5705 37.8 89.0105 40.28 89.0105 45.02C89.0105 49.76 86.5705 52.24 82.8705 52.24ZM82.8705 49.54C84.6905 49.54 85.7905 48.28 85.7905 46.06V43.98C85.7905 41.76 84.6905 40.5 82.8705 40.5C81.0505 40.5 79.9505 41.76 79.9505 43.98V46.06C79.9505 48.28 81.0505 49.54 82.8705 49.54ZM97.1478 52H93.6278L90.1878 41.5H93.1078L94.4078 45.74L95.3878 49.54H95.5478L96.5278 45.74L97.7878 41.5H100.588L97.1478 52ZM106.373 52.24C103.153 52.24 101.333 50.1 101.333 46.74C101.333 43.42 103.093 41.26 106.253 41.26C109.733 41.26 111.133 43.78 111.133 46.62V47.5H104.393V47.66C104.393 49.04 105.133 49.92 106.713 49.92C107.953 49.92 108.633 49.34 109.293 48.66L110.773 50.5C109.833 51.58 108.293 52.24 106.373 52.24ZM106.313 43.44C105.133 43.44 104.393 44.3 104.393 45.6V45.76H108.073V45.58C108.073 44.3 107.493 43.44 106.313 43.44ZM116.184 52H113.224V41.5H116.184V43.78H116.284C116.524 42.62 117.324 41.5 118.964 41.5H119.484V44.26H118.744C117.024 44.26 116.184 44.64 116.184 45.86V52ZM127.206 52H123.686L120.246 41.5H123.166L124.466 45.74L125.446 49.54H125.606L126.586 45.74L127.846 41.5H130.646L127.206 52ZM133.688 40.38C132.488 40.38 131.968 39.76 131.968 38.92V38.48C131.968 37.64 132.488 37.02 133.688 37.02C134.888 37.02 135.408 37.64 135.408 38.48V38.92C135.408 39.76 134.888 40.38 133.688 40.38ZM132.208 52V41.5H135.168V52H132.208ZM142.311 52.24C139.091 52.24 137.271 50.1 137.271 46.74C137.271 43.42 139.031 41.26 142.191 41.26C145.671 41.26 147.071 43.78 147.071 46.62V47.5H140.331V47.66C140.331 49.04 141.071 49.92 142.651 49.92C143.891 49.92 144.571 49.34 145.231 48.66L146.711 50.5C145.771 51.58 144.231 52.24 142.311 52.24ZM142.251 43.44C141.071 43.44 140.331 44.3 140.331 45.6V45.76H144.011V45.58C144.011 44.3 143.431 43.44 142.251 43.44ZM151.004 52L148.064 41.5H150.924L151.944 45.74L152.664 48.94H152.744L153.584 45.74L154.784 41.5H157.484L158.704 45.74L159.564 48.94H159.644L160.364 45.74L161.384 41.5H164.124L161.224 52H158.124L156.844 47.56L156.104 44.84H156.044L155.324 47.56L154.044 52H151.004Z" fill="black"/>
<rect x="32.5" y="116.5" width="910" height="383" rx="7.5" stroke="#343A3F"/>
<rect x="959.5" y="116.5" width="349" height="383" rx="7.5" stroke="#343A3F"/>
<path d="M58.16 153.88V155.28H56.1C55 155.28 54.42 154.58 54.42 153.64V152.22C51.2 151.92 49.16 149.4 49.16 145.02C49.16 140.34 51.48 137.8 55.08 137.8C58.68 137.8 61 140.34 61 145.02C61 149.28 59.08 151.76 56.02 152.18V153.88H58.16ZM55.08 150.74C57.5 150.74 59.2 148.94 59.2 146.18V143.86C59.2 141.1 57.5 139.3 55.08 139.3C52.66 139.3 50.96 141.1 50.96 143.86V146.18C50.96 148.94 52.66 150.74 55.08 150.74ZM64.6602 139.26C63.9802 139.26 63.6802 138.9 63.6802 138.36V138.1C63.6802 137.56 63.9802 137.2 64.6602 137.2C65.3402 137.2 65.6402 137.56 65.6402 138.1V138.36C65.6402 138.9 65.3402 139.26 64.6602 139.26ZM63.8602 152V141.68H65.4602V152H63.8602ZM71.9602 152.24C70.0602 152.24 68.8002 151.44 67.8802 150.22L69.0202 149.3C69.8202 150.3 70.7802 150.88 72.0802 150.88C73.4402 150.88 74.2402 150.26 74.2402 149.2C74.2402 148.4 73.8002 147.78 72.4402 147.58L71.6202 147.46C69.7202 147.18 68.3002 146.4 68.3002 144.48C68.3002 142.44 69.8802 141.44 71.9802 141.44C73.6402 141.44 74.7402 142.06 75.5802 143.1L74.5202 144.06C74.0602 143.42 73.1802 142.8 71.8602 142.8C70.5402 142.8 69.8402 143.42 69.8402 144.4C69.8402 145.4 70.5402 145.8 71.8202 146L72.6202 146.12C74.9002 146.46 75.7802 147.46 75.7802 149.02C75.7802 151.02 74.3202 152.24 71.9602 152.24ZM78.6063 152V137.2H80.2063V146.58H80.2863L81.8663 144.82L84.7863 141.68H86.7263L82.9063 145.76L87.1063 152H85.1663L81.7463 146.74L80.2063 148.32V152H78.6063ZM89.9531 139.26C89.2731 139.26 88.9731 138.9 88.9731 138.36V138.1C88.9731 137.56 89.2731 137.2 89.9531 137.2C90.6331 137.2 90.9331 137.56 90.9331 138.1V138.36C90.9331 138.9 90.6331 139.26 89.9531 139.26ZM89.1531 152V141.68H90.7531V152H89.1531ZM98.4331 152H96.4331C95.3331 152 94.7331 151.3 94.7331 150.3V143.08H93.0331V141.68H93.9931C94.6731 141.68 94.8931 141.44 94.8931 140.74V138.82H96.3331V141.68H98.5931V143.08H96.3331V150.6H98.4331V152ZM109.971 152.24C107.731 152.24 106.151 151.32 105.031 149.8L106.271 148.76C107.251 150.06 108.411 150.76 110.031 150.76C112.031 150.76 113.111 149.72 113.111 148.12C113.111 146.8 112.371 146.14 110.531 145.72L109.391 145.46C106.851 144.88 105.451 143.76 105.451 141.62C105.451 139.14 107.331 137.8 110.071 137.8C112.171 137.8 113.651 138.6 114.691 140.08L113.431 141C112.671 139.94 111.611 139.28 109.991 139.28C108.211 139.28 107.111 140.06 107.111 141.56C107.111 142.88 107.971 143.48 109.731 143.88L110.871 144.14C113.591 144.76 114.771 145.96 114.771 148.04C114.771 150.6 112.971 152.24 109.971 152.24ZM117.673 152V138.04H122.353C125.833 138.04 128.073 140.36 128.073 145.02C128.073 149.68 125.833 152 122.353 152H117.673ZM119.353 150.52H122.353C124.653 150.52 126.273 148.92 126.273 146.16V143.88C126.273 141.12 124.653 139.52 122.353 139.52H119.353V150.52ZM139.39 152L134.75 145.14L132.77 147.34V152H131.09V138.04H132.77V145.46H132.83L134.83 143.04L139.05 138.04H141.11L135.91 144.02L141.47 152H139.39Z" fill="black"/>
<path d="M59.54 94V100H57.86V86.04H63.42C65.86 86.04 67.32 87.46 67.32 90C67.32 92.04 66.34 93.42 64.52 93.84L67.72 100H65.82L62.8 94H59.54ZM59.54 92.56H63.42C64.74 92.56 65.52 91.84 65.52 90.56V89.52C65.52 88.24 64.74 87.52 63.42 87.52H59.54V92.56ZM76.853 100V98.32H76.773C76.373 99.3 75.593 100.24 73.873 100.24C71.753 100.24 70.393 98.8 70.393 96.3V89.68H71.993V96.02C71.993 97.86 72.813 98.8 74.353 98.8C75.613 98.8 76.853 98.18 76.853 96.82V89.68H78.453V100H76.853ZM83.4602 100H81.8602V89.68H83.4602V91.36H83.5402C84.0402 90.2 84.9202 89.44 86.4602 89.44C88.5802 89.44 89.9202 90.88 89.9202 93.38V100H88.3202V93.66C88.3202 91.82 87.5202 90.88 85.9802 90.88C84.7002 90.88 83.4602 91.52 83.4602 92.84V100ZM101.074 100H99.6539C98.5539 100 97.9539 99.3 97.9539 98.34V85.2H99.5539V98.6H101.074V100ZM107.303 100.24C104.543 100.24 102.643 98.12 102.643 94.84C102.643 91.56 104.543 89.44 107.303 89.44C110.063 89.44 111.963 91.56 111.963 94.84C111.963 98.12 110.063 100.24 107.303 100.24ZM107.303 98.82C109.023 98.82 110.243 97.76 110.243 95.58V94.1C110.243 91.92 109.023 90.86 107.303 90.86C105.583 90.86 104.363 91.92 104.363 94.1V95.58C104.363 97.76 105.583 98.82 107.303 98.82ZM118.435 100.24C115.535 100.24 113.835 98.14 113.835 94.84C113.835 91.54 115.535 89.44 118.435 89.44C120.475 89.44 121.695 90.44 122.295 91.86L120.955 92.54C120.575 91.48 119.695 90.86 118.435 90.86C116.535 90.86 115.555 92.16 115.555 93.96V95.72C115.555 97.52 116.535 98.82 118.435 98.82C119.735 98.82 120.675 98.2 121.235 97.02L122.395 97.8C121.735 99.28 120.395 100.24 118.435 100.24ZM133.053 100H132.153C130.973 100 130.493 99.28 130.373 98.32H130.273C129.833 99.58 128.733 100.24 127.293 100.24C125.113 100.24 123.833 99.04 123.833 97.12C123.833 95.18 125.233 94.1 128.233 94.1H130.273V93.08C130.273 91.62 129.473 90.82 127.833 90.82C126.593 90.82 125.773 91.42 125.213 92.36L124.253 91.46C124.813 90.36 126.053 89.44 127.913 89.44C130.393 89.44 131.873 90.74 131.873 92.92V98.6H133.053V100ZM127.553 98.88C129.133 98.88 130.273 98.06 130.273 97V95.3H128.153C126.333 95.3 125.513 95.86 125.513 96.86V97.28C125.513 98.3 126.313 98.88 127.553 98.88ZM138.457 100H137.037C135.937 100 135.337 99.3 135.337 98.34V85.2H136.937V98.6H138.457V100ZM143.808 100H142.388C141.288 100 140.688 99.3 140.688 98.34V85.2H142.288V98.6H143.808V100ZM149.802 96.7L152.302 89.68H153.882L149.262 102.4C148.802 103.64 148.382 104 146.862 104H146.042V102.6H147.662L148.442 100.4L144.582 89.68H146.182L148.662 96.7L149.142 98.38H149.242L149.802 96.7Z" fill="black"/>
<rect x="48" y="172" width="277" height="96" rx="8" fill="#E8DAFF"/>
<rect x="48" y="172" width="277" height="96" rx="8" stroke="#8A3FFC"/>
<path d="M71.48 214H69.8V200.04H74.88C77.46 200.04 78.86 201.54 78.86 204.06C78.86 206.58 77.46 208.08 74.88 208.08H71.48V214ZM71.48 201.5V206.62H74.84C76.24 206.62 77.08 205.88 77.08 204.58V203.54C77.08 202.24 76.24 201.5 74.84 201.5H71.48ZM81.5322 214V212.64H84.5522V205.04H81.5322V203.68H86.1522V206.28H86.2522C86.6522 204.92 87.5722 203.68 89.7322 203.68H91.1722V205.28H89.2322C87.2122 205.28 86.1522 206.58 86.1522 208.18V212.64H89.3722V214H81.5322ZM98.1644 214.24C95.2044 214.24 93.3244 212.12 93.3244 208.86C93.3244 205.56 95.2644 203.44 98.0644 203.44C100.844 203.44 102.644 205.56 102.644 208.48V209.24H95.0044V209.72C95.0044 211.54 96.2244 212.86 98.1644 212.86C99.5444 212.86 100.584 212.18 101.124 211.06L102.304 211.86C101.684 213.24 100.204 214.24 98.1644 214.24ZM98.0644 204.76C96.3044 204.76 95.0044 206.1 95.0044 207.9V208.04H100.924V207.82C100.924 206 99.7644 204.76 98.0644 204.76ZM110.097 214.24C107.937 214.24 106.397 213.44 105.317 212.22L106.397 211.28C107.377 212.32 108.497 212.9 110.137 212.9C111.737 212.9 112.877 212.34 112.877 211.12C112.877 210.04 111.997 209.76 111.057 209.62L109.437 209.38C107.977 209.16 105.897 208.76 105.897 206.52C105.897 204.46 107.657 203.44 110.057 203.44C111.917 203.44 113.277 204.06 114.257 205.1L113.217 206.08C112.737 205.5 111.817 204.78 109.997 204.78C108.377 204.78 107.477 205.36 107.477 206.42C107.477 207.5 108.377 207.78 109.297 207.92L110.917 208.16C112.397 208.38 114.457 208.78 114.457 211.02C114.457 213.06 112.737 214.24 110.097 214.24ZM122.149 214.24C119.189 214.24 117.309 212.12 117.309 208.86C117.309 205.56 119.249 203.44 122.049 203.44C124.829 203.44 126.629 205.56 126.629 208.48V209.24H118.989V209.72C118.989 211.54 120.209 212.86 122.149 212.86C123.529 212.86 124.569 212.18 125.109 211.06L126.289 211.86C125.669 213.24 124.189 214.24 122.149 214.24ZM122.049 204.76C120.289 204.76 118.989 206.1 118.989 207.9V208.04H124.909V207.82C124.909 206 123.749 204.76 122.049 204.76ZM138.481 214H134.461C132.901 214 132.181 213.02 132.181 211.64V205.04H128.741V203.68H131.301C131.981 203.68 132.241 203.44 132.241 202.74V200.04H133.781V203.68H138.481V205.04H133.781V212.64H138.481V214ZM153.845 218V203.68H155.445V205.36H155.525C156.185 204.1 157.265 203.44 158.705 203.44C161.225 203.44 162.745 205.46 162.745 208.84C162.745 212.22 161.225 214.24 158.705 214.24C157.265 214.24 156.185 213.58 155.525 212.32H155.445V218H153.845ZM158.085 212.82C159.945 212.82 161.025 211.58 161.025 209.72V207.96C161.025 206.1 159.945 204.86 158.085 204.86C156.665 204.86 155.445 205.6 155.445 206.98V210.7C155.445 212.08 156.665 212.82 158.085 212.82ZM174.938 214H173.838C172.598 214 172.118 213.28 171.998 212.32H171.898C171.458 213.5 170.478 214.24 168.798 214.24C166.638 214.24 165.257 213.04 165.257 211.1C165.257 209.2 166.598 208.1 169.698 208.1H171.898V207.08C171.898 205.58 170.998 204.8 169.438 204.8C168.058 204.8 167.218 205.38 166.678 206.32L165.598 205.52C166.118 204.44 167.438 203.44 169.538 203.44C171.958 203.44 173.498 204.74 173.498 206.92V212.6H174.938V214ZM169.077 212.9C170.718 212.9 171.898 212.06 171.898 211V209.3H169.698C167.798 209.3 166.938 209.86 166.938 210.86V211.28C166.938 212.34 167.758 212.9 169.077 212.9ZM182.05 214.24C179.89 214.24 178.35 213.44 177.27 212.22L178.35 211.28C179.33 212.32 180.45 212.9 182.09 212.9C183.69 212.9 184.83 212.34 184.83 211.12C184.83 210.04 183.95 209.76 183.01 209.62L181.39 209.38C179.93 209.16 177.85 208.76 177.85 206.52C177.85 204.46 179.61 203.44 182.01 203.44C183.87 203.44 185.23 204.06 186.21 205.1L185.17 206.08C184.69 205.5 183.77 204.78 181.95 204.78C180.33 204.78 179.43 205.36 179.43 206.42C179.43 207.5 180.33 207.78 181.25 207.92L182.87 208.16C184.35 208.38 186.41 208.78 186.41 211.02C186.41 213.06 184.69 214.24 182.05 214.24ZM194.042 214.24C191.882 214.24 190.342 213.44 189.262 212.22L190.342 211.28C191.322 212.32 192.442 212.9 194.082 212.9C195.682 212.9 196.822 212.34 196.822 211.12C196.822 210.04 195.942 209.76 195.002 209.62L193.382 209.38C191.922 209.16 189.842 208.76 189.842 206.52C189.842 204.46 191.602 203.44 194.002 203.44C195.862 203.44 197.222 204.06 198.202 205.1L197.162 206.08C196.682 205.5 195.762 204.78 193.942 204.78C192.322 204.78 191.422 205.36 191.422 206.42C191.422 207.5 192.322 207.78 193.242 207.92L194.862 208.16C196.342 208.38 198.402 208.78 198.402 211.02C198.402 213.06 196.682 214.24 194.042 214.24ZM214.466 214H212.986V203.68H214.466V204.88H214.546C214.866 204.08 215.386 203.44 216.526 203.44C217.706 203.44 218.286 204.1 218.406 205.06H218.466C218.846 204.12 219.486 203.44 220.706 203.44C222.386 203.44 222.826 204.66 222.826 206.84V214H221.346V207.1C221.346 205.34 221.046 204.76 220.086 204.76C219.246 204.76 218.646 205.32 218.646 206.42V214H217.166V207.1C217.166 205.34 216.866 204.76 215.926 204.76C215.066 204.76 214.466 205.32 214.466 206.42V214ZM234.898 214H233.798C232.558 214 232.078 213.28 231.958 212.32H231.858C231.418 213.5 230.438 214.24 228.758 214.24C226.598 214.24 225.218 213.04 225.218 211.1C225.218 209.2 226.558 208.1 229.658 208.1H231.858V207.08C231.858 205.58 230.958 204.8 229.398 204.8C228.018 204.8 227.178 205.38 226.638 206.32L225.558 205.52C226.078 204.44 227.398 203.44 229.498 203.44C231.918 203.44 233.458 204.74 233.458 206.92V212.6H234.898V214ZM229.038 212.9C230.678 212.9 231.858 212.06 231.858 211V209.3H229.658C227.758 209.3 226.898 209.86 226.898 210.86V211.28C226.898 212.34 227.718 212.9 229.038 212.9ZM239.451 214H237.851V203.68H239.451V205.36H239.531C239.971 204.34 240.771 203.44 242.471 203.44C244.631 203.44 246.051 204.88 246.051 207.38V214H244.451V207.66C244.451 205.78 243.591 204.86 242.011 204.86C240.731 204.86 239.451 205.48 239.451 206.84V214ZM258.883 214H257.783C256.543 214 256.063 213.28 255.943 212.32H255.843C255.403 213.5 254.423 214.24 252.743 214.24C250.583 214.24 249.203 213.04 249.203 211.1C249.203 209.2 250.543 208.1 253.643 208.1H255.843V207.08C255.843 205.58 254.943 204.8 253.383 204.8C252.003 204.8 251.163 205.38 250.623 206.32L249.543 205.52C250.063 204.44 251.383 203.44 253.483 203.44C255.903 203.44 257.443 204.74 257.443 206.92V212.6H258.883V214ZM253.023 212.9C254.663 212.9 255.843 212.06 255.843 211V209.3H253.643C251.743 209.3 250.883 209.86 250.883 210.86V211.28C250.883 212.34 251.703 212.9 253.023 212.9ZM271.095 215.18C271.095 217.26 269.335 218.24 265.895 218.24C262.575 218.24 261.215 217.32 261.215 215.68C261.215 214.58 261.835 213.98 262.895 213.7V213.46C262.315 213.18 261.975 212.74 261.975 212.04C261.975 210.98 262.775 210.5 263.835 210.24V210.16C262.575 209.6 261.815 208.46 261.815 207C261.815 204.9 263.395 203.44 265.815 203.44C266.595 203.44 267.275 203.58 267.855 203.86V203.68C267.855 202.88 268.195 202.28 269.095 202.28H270.995V203.68H268.675V204.38C269.415 205.02 269.835 205.92 269.835 207C269.835 209.1 268.235 210.56 265.815 210.56C265.475 210.56 265.155 210.54 264.835 210.48C264.215 210.6 263.355 210.96 263.355 211.66C263.355 212.28 264.035 212.42 265.015 212.42H267.295C269.955 212.42 271.095 213.5 271.095 215.18ZM269.595 215.26C269.595 214.44 269.015 213.9 267.355 213.9H263.775C263.095 214.18 262.735 214.64 262.735 215.3C262.735 216.2 263.395 216.96 265.075 216.96H266.635C268.495 216.96 269.595 216.38 269.595 215.26ZM265.815 209.32C267.415 209.32 268.155 208.5 268.155 207.28V206.7C268.155 205.48 267.415 204.68 265.815 204.68C264.235 204.68 263.495 205.48 263.495 206.7V207.28C263.495 208.5 264.235 209.32 265.815 209.32ZM278.047 214.24C275.087 214.24 273.207 212.12 273.207 208.86C273.207 205.56 275.147 203.44 277.947 203.44C280.727 203.44 282.527 205.56 282.527 208.48V209.24H274.887V209.72C274.887 211.54 276.107 212.86 278.047 212.86C279.427 212.86 280.467 212.18 281.007 211.06L282.187 211.86C281.567 213.24 280.087 214.24 278.047 214.24ZM277.947 204.76C276.187 204.76 274.887 206.1 274.887 207.9V208.04H280.807V207.82C280.807 206 279.647 204.76 277.947 204.76ZM285.399 214V212.64H288.419V205.04H285.399V203.68H290.019V206.28H290.119C290.519 204.92 291.439 203.68 293.599 203.68H295.039V205.28H293.099C291.079 205.28 290.019 206.58 290.019 208.18V212.64H293.239V214H285.399Z" fill="black"/>
<path d="M985.16 153.88V155.28H983.1C982 155.28 981.42 154.58 981.42 153.64V152.22C978.2 151.92 976.16 149.4 976.16 145.02C976.16 140.34 978.48 137.8 982.08 137.8C985.68 137.8 988 140.34 988 145.02C988 149.28 986.08 151.76 983.02 152.18V153.88H985.16ZM982.08 150.74C984.5 150.74 986.2 148.94 986.2 146.18V143.86C986.2 141.1 984.5 139.3 982.08 139.3C979.66 139.3 977.96 141.1 977.96 143.86V146.18C977.96 148.94 979.66 150.74 982.08 150.74ZM991.66 139.26C990.98 139.26 990.68 138.9 990.68 138.36V138.1C990.68 137.56 990.98 137.2 991.66 137.2C992.34 137.2 992.64 137.56 992.64 138.1V138.36C992.64 138.9 992.34 139.26 991.66 139.26ZM990.86 152V141.68H992.46V152H990.86ZM998.96 152.24C997.06 152.24 995.8 151.44 994.88 150.22L996.02 149.3C996.82 150.3 997.78 150.88 999.08 150.88C1000.44 150.88 1001.24 150.26 1001.24 149.2C1001.24 148.4 1000.8 147.78 999.44 147.58L998.62 147.46C996.72 147.18 995.3 146.4 995.3 144.48C995.3 142.44 996.88 141.44 998.98 141.44C1000.64 141.44 1001.74 142.06 1002.58 143.1L1001.52 144.06C1001.06 143.42 1000.18 142.8 998.86 142.8C997.54 142.8 996.84 143.42 996.84 144.4C996.84 145.4 997.54 145.8 998.82 146L999.62 146.12C1001.9 146.46 1002.78 147.46 1002.78 149.02C1002.78 151.02 1001.32 152.24 998.96 152.24ZM1005.61 152V137.2H1007.21V146.58H1007.29L1008.87 144.82L1011.79 141.68H1013.73L1009.91 145.76L1014.11 152H1012.17L1008.75 146.74L1007.21 148.32V152H1005.61ZM1016.95 139.26C1016.27 139.26 1015.97 138.9 1015.97 138.36V138.1C1015.97 137.56 1016.27 137.2 1016.95 137.2C1017.63 137.2 1017.93 137.56 1017.93 138.1V138.36C1017.93 138.9 1017.63 139.26 1016.95 139.26ZM1016.15 152V141.68H1017.75V152H1016.15ZM1025.43 152H1023.43C1022.33 152 1021.73 151.3 1021.73 150.3V143.08H1020.03V141.68H1020.99C1021.67 141.68 1021.89 141.44 1021.89 140.74V138.82H1023.33V141.68H1025.59V143.08H1023.33V150.6H1025.43V152ZM1034.73 146V152H1033.05V138.04H1038.61C1041.05 138.04 1042.51 139.46 1042.51 142C1042.51 144.04 1041.53 145.42 1039.71 145.84L1042.91 152H1041.01L1037.99 146H1034.73ZM1034.73 144.56H1038.61C1039.93 144.56 1040.71 143.84 1040.71 142.56V141.52C1040.71 140.24 1039.93 139.52 1038.61 139.52H1034.73V144.56ZM1052.04 152V150.32H1051.96C1051.56 151.3 1050.78 152.24 1049.06 152.24C1046.94 152.24 1045.58 150.8 1045.58 148.3V141.68H1047.18V148.02C1047.18 149.86 1048 150.8 1049.54 150.8C1050.8 150.8 1052.04 150.18 1052.04 148.82V141.68H1053.64V152H1052.04ZM1058.65 152H1057.05V141.68H1058.65V143.36H1058.73C1059.23 142.2 1060.11 141.44 1061.65 141.44C1063.77 141.44 1065.11 142.88 1065.11 145.38V152H1063.51V145.66C1063.51 143.82 1062.71 142.88 1061.17 142.88C1059.89 142.88 1058.65 143.52 1058.65 144.84V152ZM1072.7 152H1070.7C1069.6 152 1069 151.3 1069 150.3V143.08H1067.3V141.68H1068.26C1068.94 141.68 1069.16 141.44 1069.16 140.74V138.82H1070.6V141.68H1072.86V143.08H1070.6V150.6H1072.7V152ZM1076.23 139.26C1075.55 139.26 1075.25 138.9 1075.25 138.36V138.1C1075.25 137.56 1075.55 137.2 1076.23 137.2C1076.91 137.2 1077.21 137.56 1077.21 138.1V138.36C1077.21 138.9 1076.91 139.26 1076.23 139.26ZM1075.43 152V141.68H1077.03V152H1075.43ZM1082.03 152H1080.43V141.68H1082.03V143.36H1082.11C1082.57 142.3 1083.29 141.44 1084.89 141.44C1086.25 141.44 1087.49 142.06 1088.05 143.54H1088.09C1088.47 142.42 1089.47 141.44 1091.23 141.44C1093.33 141.44 1094.59 142.88 1094.59 145.38V152H1092.99V145.66C1092.99 143.84 1092.29 142.88 1090.73 142.88C1089.47 142.88 1088.31 143.52 1088.31 144.84V152H1086.71V145.66C1086.71 143.82 1086.01 142.88 1084.49 142.88C1083.23 142.88 1082.03 143.52 1082.03 144.84V152ZM1101.77 152.24C1098.97 152.24 1097.13 150.12 1097.13 146.84C1097.13 143.56 1098.97 141.44 1101.77 141.44C1104.53 141.44 1106.23 143.56 1106.23 146.48V147.24H1098.81V147.72C1098.81 149.5 1099.95 150.84 1101.87 150.84C1103.17 150.84 1104.17 150.2 1104.71 149.06L1105.85 149.88C1105.19 151.28 1103.71 152.24 1101.77 152.24ZM1101.77 142.78C1100.03 142.78 1098.81 144.1 1098.81 145.9V146.04H1104.51V145.82C1104.51 144 1103.41 142.78 1101.77 142.78Z" fill="black"/>
<rect x="975" y="172" width="277" height="96" rx="8" fill="#E8DAFF"/>
<rect x="975" y="172" width="277" height="96" rx="8" stroke="#8A3FFC"/>
<path d="M1005.4 214H996.8V200.04H1005.4V201.5H998.48V206.2H1005.16V207.66H998.48V212.54H1005.4V214ZM1008.53 214V212.64H1011.55V205.04H1008.53V203.68H1013.15V206.28H1013.25C1013.65 204.92 1014.57 203.68 1016.73 203.68H1018.17V205.28H1016.23C1014.21 205.28 1013.15 206.58 1013.15 208.18V212.64H1016.37V214H1008.53ZM1020.52 214V212.64H1023.54V205.04H1020.52V203.68H1025.14V206.28H1025.24C1025.64 204.92 1026.56 203.68 1028.72 203.68H1030.16V205.28H1028.22C1026.2 205.28 1025.14 206.58 1025.14 208.18V212.64H1028.36V214H1020.52ZM1036.98 214.24C1034.08 214.24 1032.3 212.12 1032.3 208.84C1032.3 205.56 1034.08 203.44 1036.98 203.44C1039.88 203.44 1041.66 205.56 1041.66 208.84C1041.66 212.12 1039.88 214.24 1036.98 214.24ZM1036.98 212.86C1038.76 212.86 1039.96 211.8 1039.96 209.58V208.1C1039.96 205.88 1038.76 204.82 1036.98 204.82C1035.2 204.82 1034 205.88 1034 208.1V209.58C1034 211.8 1035.2 212.86 1036.98 212.86ZM1044.51 214V212.64H1047.53V205.04H1044.51V203.68H1049.13V206.28H1049.23C1049.63 204.92 1050.55 203.68 1052.71 203.68H1054.15V205.28H1052.21C1050.19 205.28 1049.13 206.58 1049.13 208.18V212.64H1052.35V214H1044.51ZM1073.07 214.24C1070.91 214.24 1069.37 213.44 1068.29 212.22L1069.37 211.28C1070.35 212.32 1071.47 212.9 1073.11 212.9C1074.71 212.9 1075.85 212.34 1075.85 211.12C1075.85 210.04 1074.97 209.76 1074.03 209.62L1072.41 209.38C1070.95 209.16 1068.87 208.76 1068.87 206.52C1068.87 204.46 1070.63 203.44 1073.03 203.44C1074.89 203.44 1076.25 204.06 1077.23 205.1L1076.19 206.08C1075.71 205.5 1074.79 204.78 1072.97 204.78C1071.35 204.78 1070.45 205.36 1070.45 206.42C1070.45 207.5 1071.35 207.78 1072.27 207.92L1073.89 208.16C1075.37 208.38 1077.43 208.78 1077.43 211.02C1077.43 213.06 1075.71 214.24 1073.07 214.24ZM1087.39 214V212.32H1087.31C1086.87 213.34 1086.07 214.24 1084.37 214.24C1082.21 214.24 1080.79 212.8 1080.79 210.3V203.68H1082.39V210.02C1082.39 211.9 1083.25 212.82 1084.83 212.82C1086.11 212.82 1087.39 212.2 1087.39 210.84V203.68H1088.99V214H1087.39ZM1092.84 218V203.68H1094.44V205.36H1094.52C1095.18 204.1 1096.26 203.44 1097.7 203.44C1100.22 203.44 1101.74 205.46 1101.74 208.84C1101.74 212.22 1100.22 214.24 1097.7 214.24C1096.26 214.24 1095.18 213.58 1094.52 212.32H1094.44V218H1092.84ZM1097.08 212.82C1098.94 212.82 1100.02 211.58 1100.02 209.72V207.96C1100.02 206.1 1098.94 204.86 1097.08 204.86C1095.66 204.86 1094.44 205.6 1094.44 206.98V210.7C1094.44 212.08 1095.66 212.82 1097.08 212.82ZM1104.83 218V203.68H1106.43V205.36H1106.51C1107.17 204.1 1108.25 203.44 1109.69 203.44C1112.21 203.44 1113.73 205.46 1113.73 208.84C1113.73 212.22 1112.21 214.24 1109.69 214.24C1108.25 214.24 1107.17 213.58 1106.51 212.32H1106.43V218H1104.83ZM1109.07 212.82C1110.93 212.82 1112.01 211.58 1112.01 209.72V207.96C1112.01 206.1 1110.93 204.86 1109.07 204.86C1107.65 204.86 1106.43 205.6 1106.43 206.98V210.7C1106.43 212.08 1107.65 212.82 1109.07 212.82ZM1116.46 214V212.64H1119.48V205.04H1116.46V203.68H1121.08V206.28H1121.18C1121.58 204.92 1122.5 203.68 1124.66 203.68H1126.1V205.28H1124.16C1122.14 205.28 1121.08 206.58 1121.08 208.18V212.64H1124.3V214H1116.46ZM1133.09 214.24C1130.13 214.24 1128.25 212.12 1128.25 208.86C1128.25 205.56 1130.19 203.44 1132.99 203.44C1135.77 203.44 1137.57 205.56 1137.57 208.48V209.24H1129.93V209.72C1129.93 211.54 1131.15 212.86 1133.09 212.86C1134.47 212.86 1135.51 212.18 1136.05 211.06L1137.23 211.86C1136.61 213.24 1135.13 214.24 1133.09 214.24ZM1132.99 204.76C1131.23 204.76 1129.93 206.1 1129.93 207.9V208.04H1135.85V207.82C1135.85 206 1134.69 204.76 1132.99 204.76ZM1145.03 214.24C1142.87 214.24 1141.33 213.44 1140.25 212.22L1141.33 211.28C1142.31 212.32 1143.43 212.9 1145.07 212.9C1146.67 212.9 1147.81 212.34 1147.81 211.12C1147.81 210.04 1146.93 209.76 1145.99 209.62L1144.37 209.38C1142.91 209.16 1140.83 208.76 1140.83 206.52C1140.83 204.46 1142.59 203.44 1144.99 203.44C1146.85 203.44 1148.21 204.06 1149.19 205.1L1148.15 206.08C1147.67 205.5 1146.75 204.78 1144.93 204.78C1143.31 204.78 1142.41 205.36 1142.41 206.42C1142.41 207.5 1143.31 207.78 1144.23 207.92L1145.85 208.16C1147.33 208.38 1149.39 208.78 1149.39 211.02C1149.39 213.06 1147.67 214.24 1145.03 214.24ZM1157.02 214.24C1154.86 214.24 1153.32 213.44 1152.24 212.22L1153.32 211.28C1154.3 212.32 1155.42 212.9 1157.06 212.9C1158.66 212.9 1159.8 212.34 1159.8 211.12C1159.8 210.04 1158.92 209.76 1157.98 209.62L1156.36 209.38C1154.9 209.16 1152.82 208.76 1152.82 206.52C1152.82 204.46 1154.58 203.44 1156.98 203.44C1158.84 203.44 1160.2 204.06 1161.18 205.1L1160.14 206.08C1159.66 205.5 1158.74 204.78 1156.92 204.78C1155.3 204.78 1154.4 205.36 1154.4 206.42C1154.4 207.5 1155.3 207.78 1156.22 207.92L1157.84 208.16C1159.32 208.38 1161.38 208.78 1161.38 211.02C1161.38 213.06 1159.66 214.24 1157.02 214.24ZM1169.53 201.4C1168.61 201.4 1168.27 200.96 1168.27 200.38V200.06C1168.27 199.48 1168.61 199.04 1169.53 199.04C1170.45 199.04 1170.79 199.48 1170.79 200.06V200.38C1170.79 200.96 1170.45 201.4 1169.53 201.4ZM1165.01 214V212.64H1168.73V205.04H1165.01V203.68H1170.33V212.64H1173.81V214H1165.01ZM1180.88 214.24C1177.98 214.24 1176.2 212.12 1176.2 208.84C1176.2 205.56 1177.98 203.44 1180.88 203.44C1183.78 203.44 1185.56 205.56 1185.56 208.84C1185.56 212.12 1183.78 214.24 1180.88 214.24ZM1180.88 212.86C1182.66 212.86 1183.86 211.8 1183.86 209.58V208.1C1183.86 205.88 1182.66 204.82 1180.88 204.82C1179.1 204.82 1177.9 205.88 1177.9 208.1V209.58C1177.9 211.8 1179.1 212.86 1180.88 212.86ZM1190.44 214H1188.84V203.68H1190.44V205.36H1190.52C1190.96 204.34 1191.76 203.44 1193.46 203.44C1195.62 203.44 1197.04 204.88 1197.04 207.38V214H1195.44V207.66C1195.44 205.78 1194.58 204.86 1193 204.86C1191.72 204.86 1190.44 205.48 1190.44 206.84V214ZM996.9 246V231.68H998.5V233.36H998.58C999.24 232.1 1000.32 231.44 1001.76 231.44C1004.28 231.44 1005.8 233.46 1005.8 236.84C1005.8 240.22 1004.28 242.24 1001.76 242.24C1000.32 242.24 999.24 241.58 998.58 240.32H998.5V246H996.9ZM1001.14 240.82C1003 240.82 1004.08 239.58 1004.08 237.72V235.96C1004.08 234.1 1003 232.86 1001.14 232.86C999.72 232.86 998.5 233.6 998.5 234.98V238.7C998.5 240.08 999.72 240.82 1001.14 240.82ZM1017.99 242H1016.89C1015.65 242 1015.17 241.28 1015.05 240.32H1014.95C1014.51 241.5 1013.53 242.24 1011.85 242.24C1009.69 242.24 1008.31 241.04 1008.31 239.1C1008.31 237.2 1009.65 236.1 1012.75 236.1H1014.95V235.08C1014.95 233.58 1014.05 232.8 1012.49 232.8C1011.11 232.8 1010.27 233.38 1009.73 234.32L1008.65 233.52C1009.17 232.44 1010.49 231.44 1012.59 231.44C1015.01 231.44 1016.55 232.74 1016.55 234.92V240.6H1017.99V242ZM1012.13 240.9C1013.77 240.9 1014.95 240.06 1014.95 239V237.3H1012.75C1010.85 237.3 1009.99 237.86 1009.99 238.86V239.28C1009.99 240.34 1010.81 240.9 1012.13 240.9ZM1025.1 242.24C1022.94 242.24 1021.4 241.44 1020.32 240.22L1021.4 239.28C1022.38 240.32 1023.5 240.9 1025.14 240.9C1026.74 240.9 1027.88 240.34 1027.88 239.12C1027.88 238.04 1027 237.76 1026.06 237.62L1024.44 237.38C1022.98 237.16 1020.9 236.76 1020.9 234.52C1020.9 232.46 1022.66 231.44 1025.06 231.44C1026.92 231.44 1028.28 232.06 1029.26 233.1L1028.22 234.08C1027.74 233.5 1026.82 232.78 1025 232.78C1023.38 232.78 1022.48 233.36 1022.48 234.42C1022.48 235.5 1023.38 235.78 1024.3 235.92L1025.92 236.16C1027.4 236.38 1029.46 236.78 1029.46 239.02C1029.46 241.06 1027.74 242.24 1025.1 242.24ZM1037.1 242.24C1034.94 242.24 1033.4 241.44 1032.32 240.22L1033.4 239.28C1034.38 240.32 1035.5 240.9 1037.14 240.9C1038.74 240.9 1039.88 240.34 1039.88 239.12C1039.88 238.04 1039 237.76 1038.06 237.62L1036.44 237.38C1034.98 237.16 1032.9 236.76 1032.9 234.52C1032.9 232.46 1034.66 231.44 1037.06 231.44C1038.92 231.44 1040.28 232.06 1041.26 233.1L1040.22 234.08C1039.74 233.5 1038.82 232.78 1037 232.78C1035.38 232.78 1034.48 233.36 1034.48 234.42C1034.48 235.5 1035.38 235.78 1036.3 235.92L1037.92 236.16C1039.4 236.38 1041.46 236.78 1041.46 239.02C1041.46 241.06 1039.74 242.24 1037.1 242.24ZM1049.15 242.24C1046.19 242.24 1044.31 240.12 1044.31 236.86C1044.31 233.56 1046.25 231.44 1049.05 231.44C1051.83 231.44 1053.63 233.56 1053.63 236.48V237.24H1045.99V237.72C1045.99 239.54 1047.21 240.86 1049.15 240.86C1050.53 240.86 1051.57 240.18 1052.11 239.06L1053.29 239.86C1052.67 241.24 1051.19 242.24 1049.15 242.24ZM1049.05 232.76C1047.29 232.76 1045.99 234.1 1045.99 235.9V236.04H1051.91V235.82C1051.91 234 1050.75 232.76 1049.05 232.76ZM1061.08 242.24C1058.92 242.24 1057.38 241.44 1056.3 240.22L1057.38 239.28C1058.36 240.32 1059.48 240.9 1061.12 240.9C1062.72 240.9 1063.86 240.34 1063.86 239.12C1063.86 238.04 1062.98 237.76 1062.04 237.62L1060.42 237.38C1058.96 237.16 1056.88 236.76 1056.88 234.52C1056.88 232.46 1058.64 231.44 1061.04 231.44C1062.9 231.44 1064.26 232.06 1065.24 233.1L1064.2 234.08C1063.72 233.5 1062.8 232.78 1060.98 232.78C1059.36 232.78 1058.46 233.36 1058.46 234.42C1058.46 235.5 1059.36 235.78 1060.28 235.92L1061.9 236.16C1063.38 236.38 1065.44 236.78 1065.44 239.02C1065.44 241.06 1063.72 242.24 1061.08 242.24Z" fill="black"/>
<rect x="48" y="280" width="277" height="96" rx="8" fill="#E8DAFF"/>
<rect x="48" y="280" width="277" height="96" rx="8" stroke="#8A3FFC"/>
<path d="M71.48 322H69.8V308.04H74.88C77.46 308.04 78.86 309.54 78.86 312.06C78.86 314.58 77.46 316.08 74.88 316.08H71.48V322ZM71.48 309.5V314.62H74.84C76.24 314.62 77.08 313.88 77.08 312.58V311.54C77.08 310.24 76.24 309.5 74.84 309.5H71.48ZM90.9922 322H89.8922C88.6522 322 88.1722 321.28 88.0522 320.32H87.9522C87.5122 321.5 86.5322 322.24 84.8522 322.24C82.6922 322.24 81.3122 321.04 81.3122 319.1C81.3122 317.2 82.6522 316.1 85.7522 316.1H87.9522V315.08C87.9522 313.58 87.0522 312.8 85.4922 312.8C84.1122 312.8 83.2722 313.38 82.7322 314.32L81.6522 313.52C82.1722 312.44 83.4922 311.44 85.5922 311.44C88.0122 311.44 89.5522 312.74 89.5522 314.92V320.6H90.9922V322ZM85.1322 320.9C86.7722 320.9 87.9522 320.06 87.9522 319V317.3H85.7522C83.8522 317.3 82.9922 317.86 82.9922 318.86V319.28C82.9922 320.34 83.8122 320.9 85.1322 320.9ZM98.1044 322.24C95.9444 322.24 94.4044 321.44 93.3244 320.22L94.4044 319.28C95.3844 320.32 96.5044 320.9 98.1444 320.9C99.7444 320.9 100.884 320.34 100.884 319.12C100.884 318.04 100.004 317.76 99.0644 317.62L97.4444 317.38C95.9844 317.16 93.9044 316.76 93.9044 314.52C93.9044 312.46 95.6644 311.44 98.0644 311.44C99.9244 311.44 101.284 312.06 102.264 313.1L101.224 314.08C100.744 313.5 99.8244 312.78 98.0044 312.78C96.3844 312.78 95.4844 313.36 95.4844 314.42C95.4844 315.5 96.3844 315.78 97.3044 315.92L98.9244 316.16C100.404 316.38 102.464 316.78 102.464 319.02C102.464 321.06 100.744 322.24 98.1044 322.24ZM110.097 322.24C107.937 322.24 106.397 321.44 105.317 320.22L106.397 319.28C107.377 320.32 108.497 320.9 110.137 320.9C111.737 320.9 112.877 320.34 112.877 319.12C112.877 318.04 111.997 317.76 111.057 317.62L109.437 317.38C107.977 317.16 105.897 316.76 105.897 314.52C105.897 312.46 107.657 311.44 110.057 311.44C111.917 311.44 113.277 312.06 114.257 313.1L113.217 314.08C112.737 313.5 111.817 312.78 109.997 312.78C108.377 312.78 107.477 313.36 107.477 314.42C107.477 315.5 108.377 315.78 109.297 315.92L110.917 316.16C112.397 316.38 114.457 316.78 114.457 319.02C114.457 321.06 112.737 322.24 110.097 322.24ZM129.561 322V320.64H133.161V308.56H129.561V307.2H134.761V320.64H138.361V322H129.561ZM146.593 309.4C145.673 309.4 145.333 308.96 145.333 308.38V308.06C145.333 307.48 145.673 307.04 146.593 307.04C147.513 307.04 147.853 307.48 147.853 308.06V308.38C147.853 308.96 147.513 309.4 146.593 309.4ZM142.073 322V320.64H145.793V313.04H142.073V311.68H147.393V320.64H150.873V322H142.073ZM153.845 322V307.2H155.445V313.36H155.525C156.185 312.1 157.265 311.44 158.705 311.44C161.225 311.44 162.745 313.46 162.745 316.84C162.745 320.22 161.225 322.24 158.705 322.24C157.265 322.24 156.185 321.58 155.525 320.32H155.445V322H153.845ZM158.085 320.82C159.945 320.82 161.025 319.58 161.025 317.72V315.96C161.025 314.1 159.945 312.86 158.085 312.86C156.665 312.86 155.445 313.6 155.445 314.98V318.7C155.445 320.08 156.665 320.82 158.085 320.82ZM165.478 322V320.64H168.498V313.04H165.478V311.68H170.098V314.28H170.198C170.598 312.92 171.518 311.68 173.678 311.68H175.118V313.28H173.178C171.158 313.28 170.098 314.58 170.098 316.18V320.64H173.318V322H165.478ZM186.93 322H185.83C184.59 322 184.11 321.28 183.99 320.32H183.89C183.45 321.5 182.47 322.24 180.79 322.24C178.63 322.24 177.25 321.04 177.25 319.1C177.25 317.2 178.59 316.1 181.69 316.1H183.89V315.08C183.89 313.58 182.99 312.8 181.43 312.8C180.05 312.8 179.21 313.38 178.67 314.32L177.59 313.52C178.11 312.44 179.43 311.44 181.53 311.44C183.95 311.44 185.49 312.74 185.49 314.92V320.6H186.93V322ZM181.07 320.9C182.71 320.9 183.89 320.06 183.89 319V317.3H181.69C179.79 317.3 178.93 317.86 178.93 318.86V319.28C178.93 320.34 179.75 320.9 181.07 320.9ZM189.462 322V320.64H192.482V313.04H189.462V311.68H194.082V314.28H194.182C194.582 312.92 195.502 311.68 197.662 311.68H199.102V313.28H197.162C195.142 313.28 194.082 314.58 194.082 316.18V320.64H197.302V322H189.462ZM207.514 316L209.254 311.68H210.854L205.734 324.26C205.254 325.44 204.654 326 203.094 326H201.574V324.64H203.974L205.134 321.8L200.974 311.68H202.614L204.354 316L205.894 319.92H205.974L207.514 316ZM227.998 315.78C227.998 311.88 229.898 308.48 232.158 306.8H233.778C231.458 308.54 229.498 311.5 229.498 314.92V316.64C229.498 320.06 231.458 323.02 233.778 324.76H232.158C229.898 323.08 227.998 319.68 227.998 315.78ZM242.251 322.24C239.291 322.24 237.571 320.1 237.571 316.84C237.571 313.56 239.311 311.44 242.231 311.44C244.231 311.44 245.471 312.42 246.051 313.82L244.771 314.5C244.391 313.44 243.511 312.82 242.231 312.82C240.351 312.82 239.291 314.14 239.291 315.96V317.72C239.291 319.54 240.331 320.86 242.271 320.86C243.651 320.86 244.551 320.18 245.071 319.06L246.211 319.84C245.611 321.22 244.311 322.24 242.251 322.24ZM256.323 322V320.32H256.243C255.803 321.34 255.003 322.24 253.303 322.24C251.143 322.24 249.723 320.8 249.723 318.3V311.68H251.323V318.02C251.323 319.9 252.183 320.82 253.763 320.82C255.043 320.82 256.323 320.2 256.323 318.84V311.68H257.923V322H256.323ZM265.995 322.24C263.835 322.24 262.295 321.44 261.215 320.22L262.295 319.28C263.275 320.32 264.395 320.9 266.035 320.9C267.635 320.9 268.775 320.34 268.775 319.12C268.775 318.04 267.895 317.76 266.955 317.62L265.335 317.38C263.875 317.16 261.795 316.76 261.795 314.52C261.795 312.46 263.555 311.44 265.955 311.44C267.815 311.44 269.175 312.06 270.155 313.1L269.115 314.08C268.635 313.5 267.715 312.78 265.895 312.78C264.275 312.78 263.375 313.36 263.375 314.42C263.375 315.5 264.275 315.78 265.195 315.92L266.815 316.16C268.295 316.38 270.355 316.78 270.355 319.02C270.355 321.06 268.635 322.24 265.995 322.24ZM282.387 322H278.367C276.807 322 276.087 321.02 276.087 319.64V313.04H272.647V311.68H275.207C275.887 311.68 276.147 311.44 276.147 310.74V308.04H277.687V311.68H282.387V313.04H277.687V320.64H282.387V322ZM289.859 322.24C286.959 322.24 285.179 320.12 285.179 316.84C285.179 313.56 286.959 311.44 289.859 311.44C292.759 311.44 294.539 313.56 294.539 316.84C294.539 320.12 292.759 322.24 289.859 322.24ZM289.859 320.86C291.639 320.86 292.839 319.8 292.839 317.58V316.1C292.839 313.88 291.639 312.82 289.859 312.82C288.079 312.82 286.879 313.88 286.879 316.1V317.58C286.879 319.8 288.079 320.86 289.859 320.86ZM298.412 322H296.932V311.68H298.412V312.88H298.492C298.812 312.08 299.332 311.44 300.472 311.44C301.652 311.44 302.232 312.1 302.352 313.06H302.412C302.792 312.12 303.432 311.44 304.652 311.44C306.332 311.44 306.772 312.66 306.772 314.84V322H305.292V315.1C305.292 313.34 304.992 312.76 304.032 312.76C303.192 312.76 302.592 313.32 302.592 314.42V322H301.112V315.1C301.112 313.34 300.812 312.76 299.872 312.76C299.012 312.76 298.412 313.32 298.412 314.42V322ZM69.9 354V339.68H71.5V341.36H71.58C72.24 340.1 73.32 339.44 74.76 339.44C77.28 339.44 78.8 341.46 78.8 344.84C78.8 348.22 77.28 350.24 74.76 350.24C73.32 350.24 72.24 349.58 71.58 348.32H71.5V354H69.9ZM74.14 348.82C76 348.82 77.08 347.58 77.08 345.72V343.96C77.08 342.1 76 340.86 74.14 340.86C72.72 340.86 71.5 341.6 71.5 342.98V346.7C71.5 348.08 72.72 348.82 74.14 348.82ZM90.9922 350H89.8922C88.6522 350 88.1722 349.28 88.0522 348.32H87.9522C87.5122 349.5 86.5322 350.24 84.8522 350.24C82.6922 350.24 81.3122 349.04 81.3122 347.1C81.3122 345.2 82.6522 344.1 85.7522 344.1H87.9522V343.08C87.9522 341.58 87.0522 340.8 85.4922 340.8C84.1122 340.8 83.2722 341.38 82.7322 342.32L81.6522 341.52C82.1722 340.44 83.4922 339.44 85.5922 339.44C88.0122 339.44 89.5522 340.74 89.5522 342.92V348.6H90.9922V350ZM85.1322 348.9C86.7722 348.9 87.9522 348.06 87.9522 347V345.3H85.7522C83.8522 345.3 82.9922 345.86 82.9922 346.86V347.28C82.9922 348.34 83.8122 348.9 85.1322 348.9ZM98.1044 350.24C95.9444 350.24 94.4044 349.44 93.3244 348.22L94.4044 347.28C95.3844 348.32 96.5044 348.9 98.1444 348.9C99.7444 348.9 100.884 348.34 100.884 347.12C100.884 346.04 100.004 345.76 99.0644 345.62L97.4444 345.38C95.9844 345.16 93.9044 344.76 93.9044 342.52C93.9044 340.46 95.6644 339.44 98.0644 339.44C99.9244 339.44 101.284 340.06 102.264 341.1L101.224 342.08C100.744 341.5 99.8244 340.78 98.0044 340.78C96.3844 340.78 95.4844 341.36 95.4844 342.42C95.4844 343.5 96.3844 343.78 97.3044 343.92L98.9244 344.16C100.404 344.38 102.464 344.78 102.464 347.02C102.464 349.06 100.744 350.24 98.1044 350.24ZM110.097 350.24C107.937 350.24 106.397 349.44 105.317 348.22L106.397 347.28C107.377 348.32 108.497 348.9 110.137 348.9C111.737 348.9 112.877 348.34 112.877 347.12C112.877 346.04 111.997 345.76 111.057 345.62L109.437 345.38C107.977 345.16 105.897 344.76 105.897 342.52C105.897 340.46 107.657 339.44 110.057 339.44C111.917 339.44 113.277 340.06 114.257 341.1L113.217 342.08C112.737 341.5 111.817 340.78 109.997 340.78C108.377 340.78 107.477 341.36 107.477 342.42C107.477 343.5 108.377 343.78 109.297 343.92L110.917 344.16C112.397 344.38 114.457 344.78 114.457 347.02C114.457 349.06 112.737 350.24 110.097 350.24ZM130.521 350H129.041V339.68H130.521V340.88H130.601C130.921 340.08 131.441 339.44 132.581 339.44C133.761 339.44 134.341 340.1 134.461 341.06H134.521C134.901 340.12 135.541 339.44 136.761 339.44C138.441 339.44 138.881 340.66 138.881 342.84V350H137.401V343.1C137.401 341.34 137.101 340.76 136.141 340.76C135.301 340.76 134.701 341.32 134.701 342.42V350H133.221V343.1C133.221 341.34 132.921 340.76 131.981 340.76C131.121 340.76 130.521 341.32 130.521 342.42V350ZM150.953 350H149.853C148.613 350 148.133 349.28 148.013 348.32H147.913C147.473 349.5 146.493 350.24 144.813 350.24C142.653 350.24 141.273 349.04 141.273 347.1C141.273 345.2 142.613 344.1 145.713 344.1H147.913V343.08C147.913 341.58 147.013 340.8 145.453 340.8C144.073 340.8 143.233 341.38 142.693 342.32L141.613 341.52C142.133 340.44 143.453 339.44 145.553 339.44C147.973 339.44 149.513 340.74 149.513 342.92V348.6H150.953V350ZM145.093 348.9C146.733 348.9 147.913 348.06 147.913 347V345.3H145.713C143.813 345.3 142.953 345.86 142.953 346.86V347.28C142.953 348.34 143.773 348.9 145.093 348.9ZM155.505 350H153.905V339.68H155.505V341.36H155.585C156.025 340.34 156.825 339.44 158.525 339.44C160.685 339.44 162.105 340.88 162.105 343.38V350H160.505V343.66C160.505 341.78 159.645 340.86 158.065 340.86C156.785 340.86 155.505 341.48 155.505 342.84V350ZM174.938 350H173.838C172.598 350 172.118 349.28 171.998 348.32H171.898C171.458 349.5 170.478 350.24 168.798 350.24C166.638 350.24 165.257 349.04 165.257 347.1C165.257 345.2 166.598 344.1 169.698 344.1H171.898V343.08C171.898 341.58 170.998 340.8 169.438 340.8C168.058 340.8 167.218 341.38 166.678 342.32L165.598 341.52C166.118 340.44 167.438 339.44 169.538 339.44C171.958 339.44 173.498 340.74 173.498 342.92V348.6H174.938V350ZM169.077 348.9C170.718 348.9 171.898 348.06 171.898 347V345.3H169.698C167.798 345.3 166.938 345.86 166.938 346.86V347.28C166.938 348.34 167.758 348.9 169.077 348.9ZM187.15 351.18C187.15 353.26 185.39 354.24 181.95 354.24C178.63 354.24 177.27 353.32 177.27 351.68C177.27 350.58 177.89 349.98 178.95 349.7V349.46C178.37 349.18 178.03 348.74 178.03 348.04C178.03 346.98 178.83 346.5 179.89 346.24V346.16C178.63 345.6 177.87 344.46 177.87 343C177.87 340.9 179.45 339.44 181.87 339.44C182.65 339.44 183.33 339.58 183.91 339.86V339.68C183.91 338.88 184.25 338.28 185.15 338.28H187.05V339.68H184.73V340.38C185.47 341.02 185.89 341.92 185.89 343C185.89 345.1 184.29 346.56 181.87 346.56C181.53 346.56 181.21 346.54 180.89 346.48C180.27 346.6 179.41 346.96 179.41 347.66C179.41 348.28 180.09 348.42 181.07 348.42H183.35C186.01 348.42 187.15 349.5 187.15 351.18ZM185.65 351.26C185.65 350.44 185.07 349.9 183.41 349.9H179.83C179.15 350.18 178.79 350.64 178.79 351.3C178.79 352.2 179.45 352.96 181.13 352.96H182.69C184.55 352.96 185.65 352.38 185.65 351.26ZM181.87 345.32C183.47 345.32 184.21 344.5 184.21 343.28V342.7C184.21 341.48 183.47 340.68 181.87 340.68C180.29 340.68 179.55 341.48 179.55 342.7V343.28C179.55 344.5 180.29 345.32 181.87 345.32ZM194.102 350.24C191.142 350.24 189.262 348.12 189.262 344.86C189.262 341.56 191.202 339.44 194.002 339.44C196.782 339.44 198.582 341.56 198.582 344.48V345.24H190.942V345.72C190.942 347.54 192.162 348.86 194.102 348.86C195.482 348.86 196.522 348.18 197.062 347.06L198.242 347.86C197.622 349.24 196.142 350.24 194.102 350.24ZM194.002 340.76C192.242 340.76 190.942 342.1 190.942 343.9V344.04H196.862V343.82C196.862 342 195.702 340.76 194.002 340.76ZM201.454 350V348.64H204.474V341.04H201.454V339.68H206.074V342.28H206.174C206.574 340.92 207.494 339.68 209.654 339.68H211.094V341.28H209.154C207.134 341.28 206.074 342.58 206.074 344.18V348.64H209.294V350H201.454ZM218.026 350.24C215.866 350.24 214.326 349.44 213.246 348.22L214.326 347.28C215.306 348.32 216.426 348.9 218.066 348.9C219.666 348.9 220.806 348.34 220.806 347.12C220.806 346.04 219.926 345.76 218.986 345.62L217.366 345.38C215.906 345.16 213.826 344.76 213.826 342.52C213.826 340.46 215.586 339.44 217.986 339.44C219.846 339.44 221.206 340.06 222.186 341.1L221.146 342.08C220.666 341.5 219.746 340.78 217.926 340.78C216.306 340.78 215.406 341.36 215.406 342.42C215.406 343.5 216.306 343.78 217.226 343.92L218.846 344.16C220.326 344.38 222.386 344.78 222.386 347.02C222.386 349.06 220.666 350.24 218.026 350.24ZM231.798 343.78C231.798 347.68 229.898 351.08 227.638 352.76H226.018C228.338 351.02 230.298 348.06 230.298 344.64V342.92C230.298 339.5 228.338 336.54 226.018 334.8H227.638C229.898 336.48 231.798 339.88 231.798 343.78Z" fill="black"/>
<path d="M361.36 152H359.6L358.2 147.88H352.56L351.16 152H349.46L354.34 138.04H356.48L361.36 152ZM357.78 146.4L355.42 139.6H355.32L352.96 146.4H357.78ZM368.613 152H363.013V150.6H364.973V139.44H363.013V138.04H368.613V139.44H366.653V150.6H368.613V152ZM385.547 139.52H381.107V152H379.427V139.52H374.987V138.04H385.547V139.52ZM388.394 152H386.794V141.68H388.394V143.58H388.494C388.854 142.6 389.794 141.68 391.474 141.68H392.094V143.28H391.154C389.434 143.28 388.394 144.02 388.394 145V152ZM402.459 152H401.559C400.379 152 399.899 151.28 399.779 150.32H399.679C399.239 151.58 398.139 152.24 396.699 152.24C394.519 152.24 393.239 151.04 393.239 149.12C393.239 147.18 394.639 146.1 397.639 146.1H399.679V145.08C399.679 143.62 398.879 142.82 397.239 142.82C395.999 142.82 395.179 143.42 394.619 144.36L393.659 143.46C394.219 142.36 395.459 141.44 397.319 141.44C399.799 141.44 401.279 142.74 401.279 144.92V150.6H402.459V152ZM396.959 150.88C398.539 150.88 399.679 150.06 399.679 149V147.3H397.559C395.739 147.3 394.919 147.86 394.919 148.86V149.28C394.919 150.3 395.719 150.88 396.959 150.88ZM406.343 152H404.743V141.68H406.343V143.36H406.423C406.923 142.2 407.803 141.44 409.343 141.44C411.463 141.44 412.803 142.88 412.803 145.38V152H411.203V145.66C411.203 143.82 410.403 142.88 408.863 142.88C407.583 142.88 406.343 143.52 406.343 144.84V152ZM419.21 152.24C417.31 152.24 416.05 151.44 415.13 150.22L416.27 149.3C417.07 150.3 418.03 150.88 419.33 150.88C420.69 150.88 421.49 150.26 421.49 149.2C421.49 148.4 421.05 147.78 419.69 147.58L418.87 147.46C416.97 147.18 415.55 146.4 415.55 144.48C415.55 142.44 417.13 141.44 419.23 141.44C420.89 141.44 421.99 142.06 422.83 143.1L421.77 144.06C421.31 143.42 420.43 142.8 419.11 142.8C417.79 142.8 417.09 143.42 417.09 144.4C417.09 145.4 417.79 145.8 419.07 146L419.87 146.12C422.15 146.46 423.03 147.46 423.03 149.02C423.03 151.02 421.57 152.24 419.21 152.24ZM425.856 156V141.68H427.456V143.36H427.536C428.076 142.06 429.136 141.44 430.556 141.44C433.136 141.44 434.756 143.54 434.756 146.84C434.756 150.14 433.136 152.24 430.556 152.24C429.136 152.24 428.156 151.6 427.536 150.32H427.456V156H425.856ZM430.116 150.8C431.916 150.8 433.036 149.56 433.036 147.72V145.96C433.036 144.12 431.916 142.88 430.116 142.88C428.656 142.88 427.456 143.72 427.456 144.86V148.7C427.456 150.04 428.656 150.8 430.116 150.8ZM438.258 139.26C437.578 139.26 437.278 138.9 437.278 138.36V138.1C437.278 137.56 437.578 137.2 438.258 137.2C438.938 137.2 439.238 137.56 439.238 138.1V138.36C439.238 138.9 438.938 139.26 438.258 139.26ZM437.458 152V141.68H439.058V152H437.458ZM445.578 152H444.158C443.058 152 442.458 151.3 442.458 150.34V137.2H444.058V150.6H445.578V152ZM451.787 152.24C448.987 152.24 447.147 150.12 447.147 146.84C447.147 143.56 448.987 141.44 451.787 141.44C454.547 141.44 456.247 143.56 456.247 146.48V147.24H448.827V147.72C448.827 149.5 449.967 150.84 451.887 150.84C453.187 150.84 454.187 150.2 454.727 149.06L455.867 149.88C455.207 151.28 453.727 152.24 451.787 152.24ZM451.787 142.78C450.047 142.78 448.827 144.1 448.827 145.9V146.04H454.527V145.82C454.527 144 453.427 142.78 451.787 142.78ZM460.484 152H458.884V141.68H460.484V143.58H460.584C460.944 142.6 461.884 141.68 463.564 141.68H464.184V143.28H463.244C461.524 143.28 460.484 144.02 460.484 145V152Z" fill="black"/>
<rect x="349" y="172" width="277" height="96" rx="8" fill="#E8DAFF"/>
<rect x="349" y="172" width="277" height="96" rx="8" stroke="#8A3FFC"/>
<path d="M380.4 214H378.62L377.44 210.02H372.54L371.36 214H369.62L373.9 200.04H376.12L380.4 214ZM377.04 208.56L375.08 201.82H374.9L372.94 208.56H377.04ZM391.312 214H382.672V212.66H386.152V201.38H382.672V200.04H391.312V201.38H387.832V212.66H391.312V214ZM406.517 214V212.64H409.537V205.04H406.517V203.68H411.137V206.28H411.237C411.637 204.92 412.557 203.68 414.717 203.68H416.157V205.28H414.217C412.197 205.28 411.137 206.58 411.137 208.18V212.64H414.357V214H406.517ZM422.969 214.24C420.069 214.24 418.289 212.12 418.289 208.84C418.289 205.56 420.069 203.44 422.969 203.44C425.869 203.44 427.649 205.56 427.649 208.84C427.649 212.12 425.869 214.24 422.969 214.24ZM422.969 212.86C424.749 212.86 425.949 211.8 425.949 209.58V208.1C425.949 205.88 424.749 204.82 422.969 204.82C421.189 204.82 419.989 205.88 419.989 208.1V209.58C419.989 211.8 421.189 212.86 422.969 212.86ZM437.401 214V212.32H437.321C436.881 213.34 436.081 214.24 434.381 214.24C432.221 214.24 430.801 212.8 430.801 210.3V203.68H432.401V210.02C432.401 211.9 433.261 212.82 434.841 212.82C436.121 212.82 437.401 212.2 437.401 210.84V203.68H439.001V214H437.401ZM451.473 214H447.453C445.893 214 445.173 213.02 445.173 211.64V205.04H441.733V203.68H444.293C444.973 203.68 445.233 203.44 445.233 202.74V200.04H446.773V203.68H451.473V205.04H446.773V212.64H451.473V214ZM459.585 201.4C458.665 201.4 458.325 200.96 458.325 200.38V200.06C458.325 199.48 458.665 199.04 459.585 199.04C460.505 199.04 460.845 199.48 460.845 200.06V200.38C460.845 200.96 460.505 201.4 459.585 201.4ZM455.065 214V212.64H458.785V205.04H455.065V203.68H460.385V212.64H463.865V214H455.065ZM468.498 214H466.898V203.68H468.498V205.36H468.578C469.018 204.34 469.818 203.44 471.518 203.44C473.678 203.44 475.098 204.88 475.098 207.38V214H473.498V207.66C473.498 205.78 472.638 204.86 471.058 204.86C469.778 204.86 468.498 205.48 468.498 206.84V214ZM488.15 215.18C488.15 217.26 486.39 218.24 482.95 218.24C479.63 218.24 478.27 217.32 478.27 215.68C478.27 214.58 478.89 213.98 479.95 213.7V213.46C479.37 213.18 479.03 212.74 479.03 212.04C479.03 210.98 479.83 210.5 480.89 210.24V210.16C479.63 209.6 478.87 208.46 478.87 207C478.87 204.9 480.45 203.44 482.87 203.44C483.65 203.44 484.33 203.58 484.91 203.86V203.68C484.91 202.88 485.25 202.28 486.15 202.28H488.05V203.68H485.73V204.38C486.47 205.02 486.89 205.92 486.89 207C486.89 209.1 485.29 210.56 482.87 210.56C482.53 210.56 482.21 210.54 481.89 210.48C481.27 210.6 480.41 210.96 480.41 211.66C480.41 212.28 481.09 212.42 482.07 212.42H484.35C487.01 212.42 488.15 213.5 488.15 215.18ZM486.65 215.26C486.65 214.44 486.07 213.9 484.41 213.9H480.83C480.15 214.18 479.79 214.64 479.79 215.3C479.79 216.2 480.45 216.96 482.13 216.96H483.69C485.55 216.96 486.65 216.38 486.65 215.26ZM482.87 209.32C484.47 209.32 485.21 208.5 485.21 207.28V206.7C485.21 205.48 484.47 204.68 482.87 204.68C481.29 204.68 480.55 205.48 480.55 206.7V207.28C480.55 208.5 481.29 209.32 482.87 209.32Z" fill="black"/>
<rect x="349" y="280" width="277" height="96" rx="8" fill="#E8DAFF"/>
<rect x="349" y="280" width="277" height="96" rx="8" stroke="#8A3FFC"/>
<path d="M380.4 322H378.62L377.44 318.02H372.54L371.36 322H369.62L373.9 308.04H376.12L380.4 322ZM377.04 316.56L375.08 309.82H374.9L372.94 316.56H377.04ZM391.312 322H382.672V320.66H386.152V309.38H382.672V308.04H391.312V309.38H387.832V320.66H391.312V322ZM411.097 322.24C408.937 322.24 407.397 321.44 406.317 320.22L407.397 319.28C408.377 320.32 409.497 320.9 411.137 320.9C412.737 320.9 413.877 320.34 413.877 319.12C413.877 318.04 412.997 317.76 412.057 317.62L410.437 317.38C408.977 317.16 406.897 316.76 406.897 314.52C406.897 312.46 408.657 311.44 411.057 311.44C412.917 311.44 414.277 312.06 415.257 313.1L414.217 314.08C413.737 313.5 412.817 312.78 410.997 312.78C409.377 312.78 408.477 313.36 408.477 314.42C408.477 315.5 409.377 315.78 410.297 315.92L411.917 316.16C413.397 316.38 415.457 316.78 415.457 319.02C415.457 321.06 413.737 322.24 411.097 322.24ZM424.569 316L426.309 311.68H427.909L422.789 324.26C422.309 325.44 421.709 326 420.149 326H418.629V324.64H421.029L422.189 321.8L418.029 311.68H419.669L421.409 316L422.949 319.92H423.029L424.569 316ZM432.521 322H430.921V311.68H432.521V313.36H432.601C433.041 312.34 433.841 311.44 435.541 311.44C437.701 311.44 439.121 312.88 439.121 315.38V322H437.521V315.66C437.521 313.78 436.661 312.86 435.081 312.86C433.801 312.86 432.521 313.48 432.521 314.84V322ZM451.473 322H447.453C445.893 322 445.173 321.02 445.173 319.64V313.04H441.733V311.68H444.293C444.973 311.68 445.233 311.44 445.233 310.74V308.04H446.773V311.68H451.473V313.04H446.773V320.64H451.473V322ZM454.905 322V307.2H456.505V313.36H456.585C457.025 312.34 457.825 311.44 459.525 311.44C461.685 311.44 463.105 312.88 463.105 315.38V322H461.505V315.66C461.505 313.78 460.645 312.86 459.065 312.86C457.785 312.86 456.505 313.48 456.505 314.84V322H454.905ZM471.118 322.24C468.158 322.24 466.278 320.12 466.278 316.86C466.278 313.56 468.218 311.44 471.018 311.44C473.798 311.44 475.598 313.56 475.598 316.48V317.24H467.958V317.72C467.958 319.54 469.178 320.86 471.118 320.86C472.498 320.86 473.538 320.18 474.078 319.06L475.258 319.86C474.638 321.24 473.158 322.24 471.118 322.24ZM471.018 312.76C469.258 312.76 467.958 314.1 467.958 315.9V316.04H473.878V315.82C473.878 314 472.718 312.76 471.018 312.76ZM483.05 322.24C480.89 322.24 479.35 321.44 478.27 320.22L479.35 319.28C480.33 320.32 481.45 320.9 483.09 320.9C484.69 320.9 485.83 320.34 485.83 319.12C485.83 318.04 484.95 317.76 484.01 317.62L482.39 317.38C480.93 317.16 478.85 316.76 478.85 314.52C478.85 312.46 480.61 311.44 483.01 311.44C484.87 311.44 486.23 312.06 487.21 313.1L486.17 314.08C485.69 313.5 484.77 312.78 482.95 312.78C481.33 312.78 480.43 313.36 480.43 314.42C480.43 315.5 481.33 315.78 482.25 315.92L483.87 316.16C485.35 316.38 487.41 316.78 487.41 319.02C487.41 321.06 485.69 322.24 483.05 322.24ZM495.562 309.4C494.642 309.4 494.302 308.96 494.302 308.38V308.06C494.302 307.48 494.642 307.04 495.562 307.04C496.482 307.04 496.822 307.48 496.822 308.06V308.38C496.822 308.96 496.482 309.4 495.562 309.4ZM491.042 322V320.64H494.762V313.04H491.042V311.68H496.362V320.64H499.842V322H491.042ZM507.034 322.24C504.874 322.24 503.334 321.44 502.254 320.22L503.334 319.28C504.314 320.32 505.434 320.9 507.074 320.9C508.674 320.9 509.814 320.34 509.814 319.12C509.814 318.04 508.934 317.76 507.994 317.62L506.374 317.38C504.914 317.16 502.834 316.76 502.834 314.52C502.834 312.46 504.594 311.44 506.994 311.44C508.854 311.44 510.214 312.06 511.194 313.1L510.154 314.08C509.674 313.5 508.754 312.78 506.934 312.78C505.314 312.78 504.414 313.36 504.414 314.42C504.414 315.5 505.314 315.78 506.234 315.92L507.854 316.16C509.334 316.38 511.394 316.78 511.394 319.02C511.394 321.06 509.674 322.24 507.034 322.24Z" fill="black"/>
<path d="M660.16 153.88V155.28H658.1C657 155.28 656.42 154.58 656.42 153.64V152.22C653.2 151.92 651.16 149.4 651.16 145.02C651.16 140.34 653.48 137.8 657.08 137.8C660.68 137.8 663 140.34 663 145.02C663 149.28 661.08 151.76 658.02 152.18V153.88H660.16ZM657.08 150.74C659.5 150.74 661.2 148.94 661.2 146.18V143.86C661.2 141.1 659.5 139.3 657.08 139.3C654.66 139.3 652.96 141.1 652.96 143.86V146.18C652.96 148.94 654.66 150.74 657.08 150.74ZM666.66 139.26C665.98 139.26 665.68 138.9 665.68 138.36V138.1C665.68 137.56 665.98 137.2 666.66 137.2C667.34 137.2 667.64 137.56 667.64 138.1V138.36C667.64 138.9 667.34 139.26 666.66 139.26ZM665.86 152V141.68H667.46V152H665.86ZM673.96 152.24C672.06 152.24 670.8 151.44 669.88 150.22L671.02 149.3C671.82 150.3 672.78 150.88 674.08 150.88C675.44 150.88 676.24 150.26 676.24 149.2C676.24 148.4 675.8 147.78 674.44 147.58L673.62 147.46C671.72 147.18 670.3 146.4 670.3 144.48C670.3 142.44 671.88 141.44 673.98 141.44C675.64 141.44 676.74 142.06 677.58 143.1L676.52 144.06C676.06 143.42 675.18 142.8 673.86 142.8C672.54 142.8 671.84 143.42 671.84 144.4C671.84 145.4 672.54 145.8 673.82 146L674.62 146.12C676.9 146.46 677.78 147.46 677.78 149.02C677.78 151.02 676.32 152.24 673.96 152.24ZM680.606 152V137.2H682.206V146.58H682.286L683.866 144.82L686.786 141.68H688.726L684.906 145.76L689.106 152H687.166L683.746 146.74L682.206 148.32V152H680.606ZM691.953 139.26C691.273 139.26 690.973 138.9 690.973 138.36V138.1C690.973 137.56 691.273 137.2 691.953 137.2C692.633 137.2 692.933 137.56 692.933 138.1V138.36C692.933 138.9 692.633 139.26 691.953 139.26ZM691.153 152V141.68H692.753V152H691.153ZM700.433 152H698.433C697.333 152 696.733 151.3 696.733 150.3V143.08H695.033V141.68H695.993C696.673 141.68 696.893 141.44 696.893 140.74V138.82H698.333V141.68H700.593V143.08H698.333V150.6H700.433V152ZM716.571 152H708.051V138.04H716.571V139.52H709.731V144.2H716.171V145.68H709.731V150.52H716.571V152ZM723.196 152.24C720.296 152.24 718.596 150.14 718.596 146.84C718.596 143.54 720.296 141.44 723.196 141.44C725.236 141.44 726.456 142.44 727.056 143.86L725.716 144.54C725.336 143.48 724.456 142.86 723.196 142.86C721.296 142.86 720.316 144.16 720.316 145.96V147.72C720.316 149.52 721.296 150.82 723.196 150.82C724.496 150.82 725.436 150.2 725.996 149.02L727.156 149.8C726.496 151.28 725.156 152.24 723.196 152.24ZM733.198 152.24C730.438 152.24 728.538 150.12 728.538 146.84C728.538 143.56 730.438 141.44 733.198 141.44C735.958 141.44 737.858 143.56 737.858 146.84C737.858 150.12 735.958 152.24 733.198 152.24ZM733.198 150.82C734.918 150.82 736.138 149.76 736.138 147.58V146.1C736.138 143.92 734.918 142.86 733.198 142.86C731.478 142.86 730.258 143.92 730.258 146.1V147.58C730.258 149.76 731.478 150.82 733.198 150.82ZM743.589 152.24C741.689 152.24 740.429 151.44 739.509 150.22L740.649 149.3C741.449 150.3 742.409 150.88 743.709 150.88C745.069 150.88 745.869 150.26 745.869 149.2C745.869 148.4 745.429 147.78 744.069 147.58L743.249 147.46C741.349 147.18 739.929 146.4 739.929 144.48C739.929 142.44 741.509 141.44 743.609 141.44C745.269 141.44 746.369 142.06 747.209 143.1L746.149 144.06C745.689 143.42 744.809 142.8 743.489 142.8C742.169 142.8 741.469 143.42 741.469 144.4C741.469 145.4 742.169 145.8 743.449 146L744.249 146.12C746.529 146.46 747.409 147.46 747.409 149.02C747.409 151.02 745.949 152.24 743.589 152.24ZM753.744 148.7L756.244 141.68H757.824L753.204 154.4C752.744 155.64 752.324 156 750.804 156H749.984V154.6H751.604L752.384 152.4L748.524 141.68H750.124L752.604 148.7L753.084 150.38H753.184L753.744 148.7ZM762.886 152.24C760.986 152.24 759.726 151.44 758.806 150.22L759.946 149.3C760.746 150.3 761.706 150.88 763.006 150.88C764.366 150.88 765.166 150.26 765.166 149.2C765.166 148.4 764.726 147.78 763.366 147.58L762.546 147.46C760.646 147.18 759.226 146.4 759.226 144.48C759.226 142.44 760.806 141.44 762.906 141.44C764.566 141.44 765.666 142.06 766.506 143.1L765.446 144.06C764.986 143.42 764.106 142.8 762.786 142.8C761.466 142.8 760.766 143.42 760.766 144.4C760.766 145.4 761.466 145.8 762.746 146L763.546 146.12C765.826 146.46 766.706 147.46 766.706 149.02C766.706 151.02 765.246 152.24 762.886 152.24ZM773.675 152H771.675C770.575 152 769.975 151.3 769.975 150.3V143.08H768.275V141.68H769.235C769.915 141.68 770.135 141.44 770.135 140.74V138.82H771.575V141.68H773.835V143.08H771.575V150.6H773.675V152ZM780.209 152.24C777.409 152.24 775.569 150.12 775.569 146.84C775.569 143.56 777.409 141.44 780.209 141.44C782.969 141.44 784.669 143.56 784.669 146.48V147.24H777.249V147.72C777.249 149.5 778.389 150.84 780.309 150.84C781.609 150.84 782.609 150.2 783.149 149.06L784.289 149.88C783.629 151.28 782.149 152.24 780.209 152.24ZM780.209 142.78C778.469 142.78 777.249 144.1 777.249 145.9V146.04H782.949V145.82C782.949 144 781.849 142.78 780.209 142.78ZM788.905 152H787.305V141.68H788.905V143.36H788.985C789.445 142.3 790.165 141.44 791.765 141.44C793.125 141.44 794.365 142.06 794.925 143.54H794.965C795.345 142.42 796.345 141.44 798.105 141.44C800.205 141.44 801.465 142.88 801.465 145.38V152H799.865V145.66C799.865 143.84 799.165 142.88 797.605 142.88C796.345 142.88 795.185 143.52 795.185 144.84V152H793.585V145.66C793.585 143.82 792.885 142.88 791.365 142.88C790.105 142.88 788.905 143.52 788.905 144.84V152Z" fill="black"/>
<rect x="650" y="172" width="277" height="96" rx="8" fill="#A6C8FF"/>
<rect x="650" y="172" width="277" height="96" rx="8" stroke="#0F62FE"/>
<path d="M680.4 214H671.8V200.04H680.4V201.5H673.48V206.2H680.16V207.66H673.48V212.54H680.4V214ZM685.052 214H683.212L687.052 208.76L683.312 203.68H685.232L686.792 205.86L688.032 207.58H688.112L689.312 205.86L690.852 203.68H692.692L688.912 208.74L692.792 214H690.872L689.132 211.58L687.952 209.94H687.872L686.732 211.58L685.052 214ZM704.504 214H700.484C698.924 214 698.204 213.02 698.204 211.64V205.04H694.764V203.68H697.324C698.004 203.68 698.264 203.44 698.264 202.74V200.04H699.804V203.68H704.504V205.04H699.804V212.64H704.504V214ZM712.157 214.24C709.197 214.24 707.317 212.12 707.317 208.86C707.317 205.56 709.257 203.44 712.057 203.44C714.837 203.44 716.637 205.56 716.637 208.48V209.24H708.997V209.72C708.997 211.54 710.217 212.86 712.157 212.86C713.537 212.86 714.577 212.18 715.117 211.06L716.297 211.86C715.677 213.24 714.197 214.24 712.157 214.24ZM712.057 204.76C710.297 204.76 708.997 206.1 708.997 207.9V208.04H714.917V207.82C714.917 206 713.757 204.76 712.057 204.76ZM719.509 214V212.64H722.529V205.04H719.509V203.68H724.129V206.28H724.229C724.629 204.92 725.549 203.68 727.709 203.68H729.149V205.28H727.209C725.189 205.28 724.129 206.58 724.129 208.18V212.64H727.349V214H719.509ZM733.521 214H731.921V203.68H733.521V205.36H733.601C734.041 204.34 734.841 203.44 736.541 203.44C738.701 203.44 740.121 204.88 740.121 207.38V214H738.521V207.66C738.521 205.78 737.661 204.86 736.081 204.86C734.801 204.86 733.521 205.48 733.521 206.84V214ZM752.953 214H751.853C750.613 214 750.133 213.28 750.013 212.32H749.913C749.473 213.5 748.493 214.24 746.813 214.24C744.653 214.24 743.273 213.04 743.273 211.1C743.273 209.2 744.613 208.1 747.713 208.1H749.913V207.08C749.913 205.58 749.013 204.8 747.453 204.8C746.073 204.8 745.233 205.38 744.693 206.32L743.613 205.52C744.133 204.44 745.453 203.44 747.553 203.44C749.973 203.44 751.513 204.74 751.513 206.92V212.6H752.953V214ZM747.093 212.9C748.733 212.9 749.913 212.06 749.913 211V209.3H747.713C745.813 209.3 744.953 209.86 744.953 210.86V211.28C744.953 212.34 745.773 212.9 747.093 212.9ZM755.545 214V212.64H759.145V200.56H755.545V199.2H760.745V212.64H764.345V214H755.545ZM788.45 214H784.43C782.87 214 782.15 213.02 782.15 211.64V205.04H778.71V203.68H781.27C781.95 203.68 782.21 203.44 782.21 202.74V200.04H783.75V203.68H788.45V205.04H783.75V212.64H788.45V214ZM791.462 214V212.64H794.482V205.04H791.462V203.68H796.082V206.28H796.182C796.582 204.92 797.502 203.68 799.662 203.68H801.102V205.28H799.162C797.142 205.28 796.082 206.58 796.082 208.18V212.64H799.302V214H791.462ZM812.914 214H811.814C810.574 214 810.094 213.28 809.974 212.32H809.874C809.434 213.5 808.454 214.24 806.774 214.24C804.614 214.24 803.234 213.04 803.234 211.1C803.234 209.2 804.574 208.1 807.674 208.1H809.874V207.08C809.874 205.58 808.974 204.8 807.414 204.8C806.034 204.8 805.194 205.38 804.654 206.32L803.574 205.52C804.094 204.44 805.414 203.44 807.514 203.44C809.934 203.44 811.474 204.74 811.474 206.92V212.6H812.914V214ZM807.054 212.9C808.694 212.9 809.874 212.06 809.874 211V209.3H807.674C805.774 209.3 804.914 209.86 804.914 210.86V211.28C804.914 212.34 805.734 212.9 807.054 212.9ZM817.466 214H815.866V203.68H817.466V205.36H817.546C817.986 204.34 818.786 203.44 820.486 203.44C822.646 203.44 824.066 204.88 824.066 207.38V214H822.466V207.66C822.466 205.78 821.606 204.86 820.026 204.86C818.746 204.86 817.466 205.48 817.466 206.84V214ZM832.018 214.24C829.858 214.24 828.318 213.44 827.238 212.22L828.318 211.28C829.298 212.32 830.418 212.9 832.058 212.9C833.658 212.9 834.798 212.34 834.798 211.12C834.798 210.04 833.918 209.76 832.978 209.62L831.358 209.38C829.898 209.16 827.818 208.76 827.818 206.52C827.818 204.46 829.578 203.44 831.978 203.44C833.838 203.44 835.198 204.06 836.178 205.1L835.138 206.08C834.658 205.5 833.738 204.78 831.918 204.78C830.298 204.78 829.398 205.36 829.398 206.42C829.398 207.5 830.298 207.78 831.218 207.92L832.838 208.16C834.318 208.38 836.378 208.78 836.378 211.02C836.378 213.06 834.658 214.24 832.018 214.24ZM839.791 218V203.68H841.391V205.36H841.471C842.131 204.1 843.211 203.44 844.651 203.44C847.171 203.44 848.691 205.46 848.691 208.84C848.691 212.22 847.171 214.24 844.651 214.24C843.211 214.24 842.131 213.58 841.471 212.32H841.391V218H839.791ZM844.031 212.82C845.891 212.82 846.971 211.58 846.971 209.72V207.96C846.971 206.1 845.891 204.86 844.031 204.86C842.611 204.86 841.391 205.6 841.391 206.98V210.7C841.391 212.08 842.611 212.82 844.031 212.82ZM856.523 201.4C855.603 201.4 855.263 200.96 855.263 200.38V200.06C855.263 199.48 855.603 199.04 856.523 199.04C857.443 199.04 857.783 199.48 857.783 200.06V200.38C857.783 200.96 857.443 201.4 856.523 201.4ZM852.003 214V212.64H855.723V205.04H852.003V203.68H857.323V212.64H860.803V214H852.003ZM863.475 214V212.64H867.075V200.56H863.475V199.2H868.675V212.64H872.275V214H863.475ZM880.047 214.24C877.087 214.24 875.207 212.12 875.207 208.86C875.207 205.56 877.147 203.44 879.947 203.44C882.727 203.44 884.527 205.56 884.527 208.48V209.24H876.887V209.72C876.887 211.54 878.107 212.86 880.047 212.86C881.427 212.86 882.467 212.18 883.007 211.06L884.187 211.86C883.567 213.24 882.087 214.24 880.047 214.24ZM879.947 204.76C878.187 204.76 876.887 206.1 876.887 207.9V208.04H882.807V207.82C882.807 206 881.647 204.76 879.947 204.76ZM887.399 214V212.64H890.419V205.04H887.399V203.68H892.019V206.28H892.119C892.519 204.92 893.439 203.68 895.599 203.68H897.039V205.28H895.099C893.079 205.28 892.019 206.58 892.019 208.18V212.64H895.239V214H887.399ZM671.9 246V231.68H673.5V233.36H673.58C674.24 232.1 675.32 231.44 676.76 231.44C679.28 231.44 680.8 233.46 680.8 236.84C680.8 240.22 679.28 242.24 676.76 242.24C675.32 242.24 674.24 241.58 673.58 240.32H673.5V246H671.9ZM676.14 240.82C678 240.82 679.08 239.58 679.08 237.72V235.96C679.08 234.1 678 232.86 676.14 232.86C674.72 232.86 673.5 233.6 673.5 234.98V238.7C673.5 240.08 674.72 240.82 676.14 240.82ZM683.592 242V240.64H687.192V228.56H683.592V227.2H688.792V240.64H692.392V242H683.592ZM702.424 242V240.32H702.344C701.904 241.34 701.104 242.24 699.404 242.24C697.244 242.24 695.824 240.8 695.824 238.3V231.68H697.424V238.02C697.424 239.9 698.284 240.82 699.864 240.82C701.144 240.82 702.424 240.2 702.424 238.84V231.68H704.024V242H702.424ZM717.197 243.18C717.197 245.26 715.437 246.24 711.997 246.24C708.677 246.24 707.317 245.32 707.317 243.68C707.317 242.58 707.937 241.98 708.997 241.7V241.46C708.417 241.18 708.077 240.74 708.077 240.04C708.077 238.98 708.877 238.5 709.937 238.24V238.16C708.677 237.6 707.917 236.46 707.917 235C707.917 232.9 709.497 231.44 711.917 231.44C712.697 231.44 713.377 231.58 713.957 231.86V231.68C713.957 230.88 714.297 230.28 715.197 230.28H717.097V231.68H714.777V232.38C715.517 233.02 715.937 233.92 715.937 235C715.937 237.1 714.337 238.56 711.917 238.56C711.577 238.56 711.257 238.54 710.937 238.48C710.317 238.6 709.457 238.96 709.457 239.66C709.457 240.28 710.137 240.42 711.117 240.42H713.397C716.057 240.42 717.197 241.5 717.197 243.18ZM715.697 243.26C715.697 242.44 715.117 241.9 713.457 241.9H709.877C709.197 242.18 708.837 242.64 708.837 243.3C708.837 244.2 709.497 244.96 711.177 244.96H712.737C714.597 244.96 715.697 244.38 715.697 243.26ZM711.917 237.32C713.517 237.32 714.257 236.5 714.257 235.28V234.7C714.257 233.48 713.517 232.68 711.917 232.68C710.337 232.68 709.597 233.48 709.597 234.7V235.28C709.597 236.5 710.337 237.32 711.917 237.32ZM724.609 229.4C723.689 229.4 723.349 228.96 723.349 228.38V228.06C723.349 227.48 723.689 227.04 724.609 227.04C725.529 227.04 725.869 227.48 725.869 228.06V228.38C725.869 228.96 725.529 229.4 724.609 229.4ZM720.089 242V240.64H723.809V233.04H720.089V231.68H725.409V240.64H728.889V242H720.089ZM733.521 242H731.921V231.68H733.521V233.36H733.601C734.041 232.34 734.841 231.44 736.541 231.44C738.701 231.44 740.121 232.88 740.121 235.38V242H738.521V235.66C738.521 233.78 737.661 232.86 736.081 232.86C734.801 232.86 733.521 233.48 733.521 234.84V242ZM748.073 242.24C745.913 242.24 744.373 241.44 743.293 240.22L744.373 239.28C745.353 240.32 746.473 240.9 748.113 240.9C749.713 240.9 750.853 240.34 750.853 239.12C750.853 238.04 749.973 237.76 749.033 237.62L747.413 237.38C745.953 237.16 743.873 236.76 743.873 234.52C743.873 232.46 745.633 231.44 748.033 231.44C749.893 231.44 751.253 232.06 752.233 233.1L751.193 234.08C750.713 233.5 749.793 232.78 747.973 232.78C746.353 232.78 745.453 233.36 745.453 234.42C745.453 235.5 746.353 235.78 747.273 235.92L748.893 236.16C750.373 236.38 752.433 236.78 752.433 239.02C752.433 241.06 750.713 242.24 748.073 242.24Z" fill="black"/>
<rect x="48" y="388" width="277" height="96" rx="8" fill="#E8DAFF"/>
<rect x="48" y="388" width="277" height="96" rx="8" stroke="#8A3FFC"/>
<path d="M69.76 430V416.04H74.5C76.88 416.04 78.34 417.46 78.34 419.64C78.34 421.3 77.44 422.24 76.16 422.64V422.7C77.72 423.06 78.86 424.04 78.86 425.98C78.86 428.24 77.26 430 75.1 430H69.76ZM71.44 428.54H74.6C76.14 428.54 77.08 427.84 77.08 426.42V425.6C77.08 424.2 76.14 423.48 74.6 423.48H71.44V428.54ZM71.44 422.1H74.32C75.72 422.1 76.58 421.48 76.58 420.2V419.42C76.58 418.14 75.72 417.5 74.32 417.5H71.44V422.1ZM88.4322 430V428.32H88.3522C87.9122 429.34 87.1122 430.24 85.4122 430.24C83.2522 430.24 81.8322 428.8 81.8322 426.3V419.68H83.4322V426.02C83.4322 427.9 84.2922 428.82 85.8722 428.82C87.1522 428.82 88.4322 428.2 88.4322 426.84V419.68H90.0322V430H88.4322ZM98.6244 417.4C97.7044 417.4 97.3644 416.96 97.3644 416.38V416.06C97.3644 415.48 97.7044 415.04 98.6244 415.04C99.5444 415.04 99.8844 415.48 99.8844 416.06V416.38C99.8844 416.96 99.5444 417.4 98.6244 417.4ZM94.1044 430V428.64H97.8244V421.04H94.1044V419.68H99.4244V428.64H102.904V430H94.1044ZM105.577 430V428.64H109.177V416.56H105.577V415.2H110.777V428.64H114.377V430H105.577ZM126.489 430H122.469C120.909 430 120.189 429.02 120.189 427.64V421.04H116.749V419.68H119.309C119.989 419.68 120.249 419.44 120.249 418.74V416.04H121.789V419.68H126.489V421.04H121.789V428.64H126.489V430ZM136.861 424.76H131.061V423.08H136.861V424.76ZM146.593 417.4C145.673 417.4 145.333 416.96 145.333 416.38V416.06C145.333 415.48 145.673 415.04 146.593 415.04C147.513 415.04 147.853 415.48 147.853 416.06V416.38C147.853 416.96 147.513 417.4 146.593 417.4ZM142.073 430V428.64H145.793V421.04H142.073V419.68H147.393V428.64H150.873V430H142.073ZM155.505 430H153.905V419.68H155.505V421.36H155.585C156.025 420.34 156.825 419.44 158.525 419.44C160.685 419.44 162.105 420.88 162.105 423.38V430H160.505V423.66C160.505 421.78 159.645 420.86 158.065 420.86C156.785 420.86 155.505 421.48 155.505 422.84V430ZM186.45 430H182.43C180.87 430 180.15 429.02 180.15 427.64V421.04H176.71V419.68H179.27C179.95 419.68 180.21 419.44 180.21 418.74V416.04H181.75V419.68H186.45V421.04H181.75V428.64H186.45V430ZM189.462 430V428.64H192.482V421.04H189.462V419.68H194.082V422.28H194.182C194.582 420.92 195.502 419.68 197.662 419.68H199.102V421.28H197.162C195.142 421.28 194.082 422.58 194.082 424.18V428.64H197.302V430H189.462ZM210.914 430H209.814C208.574 430 208.094 429.28 207.974 428.32H207.874C207.434 429.5 206.454 430.24 204.774 430.24C202.614 430.24 201.234 429.04 201.234 427.1C201.234 425.2 202.574 424.1 205.674 424.1H207.874V423.08C207.874 421.58 206.974 420.8 205.414 420.8C204.034 420.8 203.194 421.38 202.654 422.32L201.574 421.52C202.094 420.44 203.414 419.44 205.514 419.44C207.934 419.44 209.474 420.74 209.474 422.92V428.6H210.914V430ZM205.054 428.9C206.694 428.9 207.874 428.06 207.874 427V425.3H205.674C203.774 425.3 202.914 425.86 202.914 426.86V427.28C202.914 428.34 203.734 428.9 205.054 428.9ZM215.466 430H213.866V419.68H215.466V421.36H215.546C215.986 420.34 216.786 419.44 218.486 419.44C220.646 419.44 222.066 420.88 222.066 423.38V430H220.466V423.66C220.466 421.78 219.606 420.86 218.026 420.86C216.746 420.86 215.466 421.48 215.466 422.84V430ZM230.018 430.24C227.858 430.24 226.318 429.44 225.238 428.22L226.318 427.28C227.298 428.32 228.418 428.9 230.058 428.9C231.658 428.9 232.798 428.34 232.798 427.12C232.798 426.04 231.918 425.76 230.978 425.62L229.358 425.38C227.898 425.16 225.818 424.76 225.818 422.52C225.818 420.46 227.578 419.44 229.978 419.44C231.838 419.44 233.198 420.06 234.178 421.1L233.138 422.08C232.658 421.5 231.738 420.78 229.918 420.78C228.298 420.78 227.398 421.36 227.398 422.42C227.398 423.5 228.298 423.78 229.218 423.92L230.838 424.16C232.318 424.38 234.378 424.78 234.378 427.02C234.378 429.06 232.658 430.24 230.018 430.24ZM237.791 434V419.68H239.391V421.36H239.471C240.131 420.1 241.211 419.44 242.651 419.44C245.171 419.44 246.691 421.46 246.691 424.84C246.691 428.22 245.171 430.24 242.651 430.24C241.211 430.24 240.131 429.58 239.471 428.32H239.391V434H237.791ZM242.031 428.82C243.891 428.82 244.971 427.58 244.971 425.72V423.96C244.971 422.1 243.891 420.86 242.031 420.86C240.611 420.86 239.391 421.6 239.391 422.98V426.7C239.391 428.08 240.611 428.82 242.031 428.82ZM254.523 417.4C253.603 417.4 253.263 416.96 253.263 416.38V416.06C253.263 415.48 253.603 415.04 254.523 415.04C255.443 415.04 255.783 415.48 255.783 416.06V416.38C255.783 416.96 255.443 417.4 254.523 417.4ZM250.003 430V428.64H253.723V421.04H250.003V419.68H255.323V428.64H258.803V430H250.003ZM261.475 430V428.64H265.075V416.56H261.475V415.2H266.675V428.64H270.275V430H261.475ZM278.047 430.24C275.087 430.24 273.207 428.12 273.207 424.86C273.207 421.56 275.147 419.44 277.947 419.44C280.727 419.44 282.527 421.56 282.527 424.48V425.24H274.887V425.72C274.887 427.54 276.107 428.86 278.047 428.86C279.427 428.86 280.467 428.18 281.007 427.06L282.187 427.86C281.567 429.24 280.087 430.24 278.047 430.24ZM277.947 420.76C276.187 420.76 274.887 422.1 274.887 423.9V424.04H280.807V423.82C280.807 422 279.647 420.76 277.947 420.76ZM285.399 430V428.64H288.419V421.04H285.399V419.68H290.019V422.28H290.119C290.519 420.92 291.439 419.68 293.599 419.68H295.039V421.28H293.099C291.079 421.28 290.019 422.58 290.019 424.18V428.64H293.239V430H285.399ZM69.9 462V447.68H71.5V449.36H71.58C72.24 448.1 73.32 447.44 74.76 447.44C77.28 447.44 78.8 449.46 78.8 452.84C78.8 456.22 77.28 458.24 74.76 458.24C73.32 458.24 72.24 457.58 71.58 456.32H71.5V462H69.9ZM74.14 456.82C76 456.82 77.08 455.58 77.08 453.72V451.96C77.08 450.1 76 448.86 74.14 448.86C72.72 448.86 71.5 449.6 71.5 450.98V454.7C71.5 456.08 72.72 456.82 74.14 456.82ZM81.5922 458V456.64H85.1922V444.56H81.5922V443.2H86.7922V456.64H90.3922V458H81.5922ZM100.424 458V456.32H100.344C99.9044 457.34 99.1044 458.24 97.4044 458.24C95.2444 458.24 93.8244 456.8 93.8244 454.3V447.68H95.4244V454.02C95.4244 455.9 96.2844 456.82 97.8644 456.82C99.1444 456.82 100.424 456.2 100.424 454.84V447.68H102.024V458H100.424ZM115.197 459.18C115.197 461.26 113.437 462.24 109.997 462.24C106.677 462.24 105.317 461.32 105.317 459.68C105.317 458.58 105.937 457.98 106.997 457.7V457.46C106.417 457.18 106.077 456.74 106.077 456.04C106.077 454.98 106.877 454.5 107.937 454.24V454.16C106.677 453.6 105.917 452.46 105.917 451C105.917 448.9 107.497 447.44 109.917 447.44C110.697 447.44 111.377 447.58 111.957 447.86V447.68C111.957 446.88 112.297 446.28 113.197 446.28H115.097V447.68H112.777V448.38C113.517 449.02 113.937 449.92 113.937 451C113.937 453.1 112.337 454.56 109.917 454.56C109.577 454.56 109.257 454.54 108.937 454.48C108.317 454.6 107.457 454.96 107.457 455.66C107.457 456.28 108.137 456.42 109.117 456.42H111.397C114.057 456.42 115.197 457.5 115.197 459.18ZM113.697 459.26C113.697 458.44 113.117 457.9 111.457 457.9H107.877C107.197 458.18 106.837 458.64 106.837 459.3C106.837 460.2 107.497 460.96 109.177 460.96H110.737C112.597 460.96 113.697 460.38 113.697 459.26ZM109.917 453.32C111.517 453.32 112.257 452.5 112.257 451.28V450.7C112.257 449.48 111.517 448.68 109.917 448.68C108.337 448.68 107.597 449.48 107.597 450.7V451.28C107.597 452.5 108.337 453.32 109.917 453.32ZM122.609 445.4C121.689 445.4 121.349 444.96 121.349 444.38V444.06C121.349 443.48 121.689 443.04 122.609 443.04C123.529 443.04 123.869 443.48 123.869 444.06V444.38C123.869 444.96 123.529 445.4 122.609 445.4ZM118.089 458V456.64H121.809V449.04H118.089V447.68H123.409V456.64H126.889V458H118.089ZM131.521 458H129.921V447.68H131.521V449.36H131.601C132.041 448.34 132.841 447.44 134.541 447.44C136.701 447.44 138.121 448.88 138.121 451.38V458H136.521V451.66C136.521 449.78 135.661 448.86 134.081 448.86C132.801 448.86 131.521 449.48 131.521 450.84V458ZM146.073 458.24C143.913 458.24 142.373 457.44 141.293 456.22L142.373 455.28C143.353 456.32 144.473 456.9 146.113 456.9C147.713 456.9 148.853 456.34 148.853 455.12C148.853 454.04 147.973 453.76 147.033 453.62L145.413 453.38C143.953 453.16 141.873 452.76 141.873 450.52C141.873 448.46 143.633 447.44 146.033 447.44C147.893 447.44 149.253 448.06 150.233 449.1L149.193 450.08C148.713 449.5 147.793 448.78 145.973 448.78C144.353 448.78 143.453 449.36 143.453 450.42C143.453 451.5 144.353 451.78 145.273 451.92L146.893 452.16C148.373 452.38 150.433 452.78 150.433 455.02C150.433 457.06 148.713 458.24 146.073 458.24Z" fill="black"/>
<rect width="16" height="16" transform="translate(32 84)" fill="white" fill-opacity="0.01"/>
<path d="M46 86H34C33.7348 86 33.4804 86.1054 33.2929 86.2929C33.1054 86.4804 33 86.7348 33 87V95C33 95.2652 33.1054 95.5196 33.2929 95.7071C33.4804 95.8946 33.7348 96 34 96H38V98H36V99H44V98H42V96H46C46.2652 96 46.5196 95.8946 46.7071 95.7071C46.8946 95.5196 47 95.2652 47 95V87C47 86.7348 46.8946 86.4804 46.7071 86.2929C46.5196 86.1054 46.2652 86 46 86ZM41 98H39V96H41V98ZM46 95H34V87H46V95Z" fill="#161616"/>
<path d="M986.54 94V100H984.86V86.04H990.42C992.86 86.04 994.32 87.46 994.32 90C994.32 92.04 993.34 93.42 991.52 93.84L994.72 100H992.82L989.8 94H986.54ZM986.54 92.56H990.42C991.74 92.56 992.52 91.84 992.52 90.56V89.52C992.52 88.24 991.74 87.52 990.42 87.52H986.54V92.56ZM1003.85 100V98.32H1003.77C1003.37 99.3 1002.59 100.24 1000.87 100.24C998.753 100.24 997.393 98.8 997.393 96.3V89.68H998.993V96.02C998.993 97.86 999.813 98.8 1001.35 98.8C1002.61 98.8 1003.85 98.18 1003.85 96.82V89.68H1005.45V100H1003.85ZM1010.46 100H1008.86V89.68H1010.46V91.36H1010.54C1011.04 90.2 1011.92 89.44 1013.46 89.44C1015.58 89.44 1016.92 90.88 1016.92 93.38V100H1015.32V93.66C1015.32 91.82 1014.52 90.88 1012.98 90.88C1011.7 90.88 1010.46 91.52 1010.46 92.84V100ZM1025.75 87.26C1025.07 87.26 1024.77 86.9 1024.77 86.36V86.1C1024.77 85.56 1025.07 85.2 1025.75 85.2C1026.43 85.2 1026.73 85.56 1026.73 86.1V86.36C1026.73 86.9 1026.43 87.26 1025.75 87.26ZM1024.95 100V89.68H1026.55V100H1024.95ZM1031.55 100H1029.95V89.68H1031.55V91.36H1031.63C1032.13 90.2 1033.01 89.44 1034.55 89.44C1036.67 89.44 1038.01 90.88 1038.01 93.38V100H1036.41V93.66C1036.41 91.82 1035.61 90.88 1034.07 90.88C1032.79 90.88 1031.55 91.52 1031.55 92.84V100ZM1050.33 100H1048.33C1047.23 100 1046.63 99.3 1046.63 98.3V91.08H1044.93V89.68H1045.89C1046.57 89.68 1046.79 89.44 1046.79 88.74V86.82H1048.23V89.68H1050.49V91.08H1048.23V98.6H1050.33V100ZM1053.06 100V85.2H1054.66V91.36H1054.74C1055.24 90.2 1056.12 89.44 1057.66 89.44C1059.78 89.44 1061.12 90.88 1061.12 93.38V100H1059.52V93.66C1059.52 91.82 1058.72 90.88 1057.18 90.88C1055.9 90.88 1054.66 91.52 1054.66 92.84V100H1053.06ZM1068.31 100.24C1065.51 100.24 1063.67 98.12 1063.67 94.84C1063.67 91.56 1065.51 89.44 1068.31 89.44C1071.07 89.44 1072.77 91.56 1072.77 94.48V95.24H1065.35V95.72C1065.35 97.5 1066.49 98.84 1068.41 98.84C1069.71 98.84 1070.71 98.2 1071.25 97.06L1072.39 97.88C1071.73 99.28 1070.25 100.24 1068.31 100.24ZM1068.31 90.78C1066.57 90.78 1065.35 92.1 1065.35 93.9V94.04H1071.05V93.82C1071.05 92 1069.95 90.78 1068.31 90.78ZM1083.97 100.24C1081.07 100.24 1079.37 98.14 1079.37 94.84C1079.37 91.54 1081.07 89.44 1083.97 89.44C1086.01 89.44 1087.23 90.44 1087.83 91.86L1086.49 92.54C1086.11 91.48 1085.23 90.86 1083.97 90.86C1082.07 90.86 1081.09 92.16 1081.09 93.96V95.72C1081.09 97.52 1082.07 98.82 1083.97 98.82C1085.27 98.82 1086.21 98.2 1086.77 97.02L1087.93 97.8C1087.27 99.28 1085.93 100.24 1083.97 100.24ZM1093.31 100H1091.89C1090.79 100 1090.19 99.3 1090.19 98.34V85.2H1091.79V98.6H1093.31V100ZM1099.54 100.24C1096.78 100.24 1094.88 98.12 1094.88 94.84C1094.88 91.56 1096.78 89.44 1099.54 89.44C1102.3 89.44 1104.2 91.56 1104.2 94.84C1104.2 98.12 1102.3 100.24 1099.54 100.24ZM1099.54 98.82C1101.26 98.82 1102.48 97.76 1102.48 95.58V94.1C1102.48 91.92 1101.26 90.86 1099.54 90.86C1097.82 90.86 1096.6 91.92 1096.6 94.1V95.58C1096.6 97.76 1097.82 98.82 1099.54 98.82ZM1113.19 100V98.32H1113.11C1112.71 99.3 1111.93 100.24 1110.21 100.24C1108.09 100.24 1106.73 98.8 1106.73 96.3V89.68H1108.33V96.02C1108.33 97.86 1109.15 98.8 1110.69 98.8C1111.95 98.8 1113.19 98.18 1113.19 96.82V89.68H1114.79V100H1113.19ZM1124.8 100V98.32H1124.72C1124.1 99.6 1123.12 100.24 1121.7 100.24C1119.12 100.24 1117.5 98.14 1117.5 94.84C1117.5 91.54 1119.12 89.44 1121.7 89.44C1123.12 89.44 1124.18 90.06 1124.72 91.36H1124.8V85.2H1126.4V100H1124.8ZM1122.14 98.8C1123.6 98.8 1124.8 98.04 1124.8 96.7V92.86C1124.8 91.72 1123.6 90.88 1122.14 90.88C1120.34 90.88 1119.22 92.12 1119.22 93.96V95.72C1119.22 97.56 1120.34 98.8 1122.14 98.8Z" fill="black"/>
<rect width="16" height="16" transform="translate(959 84)" fill="white" fill-opacity="0.01"/>
<path d="M966.5 96V97H962.75C960.65 97 959 95.3 959 93.25C959 91.45 960.3 89.9 962.05 89.55C962.05 89.55 962.35 89.5 962.5 89.5H962.6L961.8 88.7L962.5 88L964.5 90L962.5 92L961.8 91.3L962.6 90.5H962.5C961.3 90.6 960.2 91.65 960.05 92.85C959.8 94.55 961.1 96 962.75 96H966.5ZM968 96C967.75 96 967.5 96.25 967.5 96.5C967.5 96.75 967.75 97 968 97C968.25 97 968.5 96.75 968.5 96.5C968.5 96.25 968.25 96 968 96ZM971.95 89.55L971.9 89.5C971.5 87.5 969.95 85.95 967.95 85.6C967.65 85.5 967.3 85.5 967 85.5C965.55 85.5 964.2 86.15 963.3 87.15L964.05 87.9C964.65 87.2 965.5 86.65 966.5 86.55C967 86.5 967.45 86.5 967.95 86.6C969.55 86.95 970.7 88.3 971 89.85L971.1 90.35C971.1 90.3833 971.117 90.4 971.15 90.4L971.7 90.5C972.3 90.6 972.85 90.85 973.25 91.25C973.9 91.9 974.2 92.8 974 93.7C973.75 94.95 972.75 95.85 971.5 95.95L972.25 95.15L971.5 94.5L969.5 96.5L971.5 98.5L972.2 97.8L971.4 97C973.15 96.9 974.6 95.65 974.95 93.95C975 93.7 975 93.5 975 93.3C975 91.45 973.75 89.9 971.95 89.55Z" fill="#161616"/>
</svg>
