<?xml version='1.0' encoding='utf-8'?>
<svg xmlns="http://www.w3.org/2000/svg" xmlns:ns1="http://sodipodi.sourceforge.net/DTD/sodipodi-0.dtd" xmlns:ns2="http://www.inkscape.org/namespaces/inkscape" version="1.1" id="svg1" width="100%" height="auto" viewBox="-20.0 -20.0 295.7932 320.63882" ns1:docname="svg_fix_XXXXXX.svg">
  <rect id="path1" x="-20.0" y="-20.0" width="295.7932" height="320.63882" fill="white" /><ns1:namedview id="namedview1" pagecolor="#ffffff" bordercolor="#000000" borderopacity="0.25" ns2:showpageshadow="2" ns2:pageopacity="0.0" ns2:pagecheckerboard="0" ns2:deskcolor="#d1d1d1" />
  <defs id="defs1" />
  <g id="g1" transform="translate(-174.40016,-32.279143)">
    <path id="path2" d="M 0,191.34677 V 0" style="fill:none;stroke:#121619;stroke-width:0.59776;stroke-linecap:butt;stroke-linejoin:miter;stroke-miterlimit:10;stroke-dasharray:none;stroke-opacity:1" transform="matrix(1.3333333,0,0,-1.3333333,174.79867,287.80667)" />
    <path id="path3" d="M 0,191.34677 H 191.34677" style="fill:none;stroke:#121619;stroke-width:0.59776;stroke-linecap:butt;stroke-linejoin:miter;stroke-miterlimit:10;stroke-dasharray:none;stroke-opacity:1" transform="matrix(1.3333333,0,0,-1.3333333,174.79867,287.80667)" />
    <path id="path4" d="M 21.26073,191.34677 V 0" style="fill:none;stroke:#121619;stroke-width:0.59776;stroke-linecap:butt;stroke-linejoin:miter;stroke-miterlimit:10;stroke-dasharray:none;stroke-opacity:1" transform="matrix(1.3333333,0,0,-1.3333333,174.79867,287.80667)" />
    <path id="path5" d="M 0,170.08603 H 191.34677" style="fill:none;stroke:#121619;stroke-width:0.59776;stroke-linecap:butt;stroke-linejoin:miter;stroke-miterlimit:10;stroke-dasharray:none;stroke-opacity:1" transform="matrix(1.3333333,0,0,-1.3333333,174.79867,287.80667)" />
    <path id="path6" d="M 42.52148,191.34677 V 0" style="fill:none;stroke:#121619;stroke-width:0.59776;stroke-linecap:butt;stroke-linejoin:miter;stroke-miterlimit:10;stroke-dasharray:none;stroke-opacity:1" transform="matrix(1.3333333,0,0,-1.3333333,174.79867,287.80667)" />
    <path id="path7" d="M 0,148.82526 H 191.34677" style="fill:none;stroke:#121619;stroke-width:0.59776;stroke-linecap:butt;stroke-linejoin:miter;stroke-miterlimit:10;stroke-dasharray:none;stroke-opacity:1" transform="matrix(1.3333333,0,0,-1.3333333,174.79867,287.80667)" />
    <path id="path8" d="M 63.78223,191.34677 V 0" style="fill:none;stroke:#121619;stroke-width:0.59776;stroke-linecap:butt;stroke-linejoin:miter;stroke-miterlimit:10;stroke-dasharray:none;stroke-opacity:1" transform="matrix(1.3333333,0,0,-1.3333333,174.79867,287.80667)" />
    <path id="path9" d="M 0,127.5645 H 191.34677" style="fill:none;stroke:#121619;stroke-width:0.59776;stroke-linecap:butt;stroke-linejoin:miter;stroke-miterlimit:10;stroke-dasharray:none;stroke-opacity:1" transform="matrix(1.3333333,0,0,-1.3333333,174.79867,287.80667)" />
    <path id="path10" d="M 85.043,191.34677 V 0" style="fill:none;stroke:#121619;stroke-width:0.59776;stroke-linecap:butt;stroke-linejoin:miter;stroke-miterlimit:10;stroke-dasharray:none;stroke-opacity:1" transform="matrix(1.3333333,0,0,-1.3333333,174.79867,287.80667)" />
    <path id="path11" d="M 0,106.30376 H 191.34677" style="fill:none;stroke:#121619;stroke-width:0.59776;stroke-linecap:butt;stroke-linejoin:miter;stroke-miterlimit:10;stroke-dasharray:none;stroke-opacity:1" transform="matrix(1.3333333,0,0,-1.3333333,174.79867,287.80667)" />
    <path id="path12" d="M 106.30376,191.34677 V 0" style="fill:none;stroke:#121619;stroke-width:0.59776;stroke-linecap:butt;stroke-linejoin:miter;stroke-miterlimit:10;stroke-dasharray:none;stroke-opacity:1" transform="matrix(1.3333333,0,0,-1.3333333,174.79867,287.80667)" />
    <path id="path13" d="M 0,85.043 H 191.34677" style="fill:none;stroke:#121619;stroke-width:0.59776;stroke-linecap:butt;stroke-linejoin:miter;stroke-miterlimit:10;stroke-dasharray:none;stroke-opacity:1" transform="matrix(1.3333333,0,0,-1.3333333,174.79867,287.80667)" />
    <path id="path14" d="M 127.5645,191.34677 V 0" style="fill:none;stroke:#121619;stroke-width:0.59776;stroke-linecap:butt;stroke-linejoin:miter;stroke-miterlimit:10;stroke-dasharray:none;stroke-opacity:1" transform="matrix(1.3333333,0,0,-1.3333333,174.79867,287.80667)" />
    <path id="path15" d="M 0,63.78223 H 191.34677" style="fill:none;stroke:#121619;stroke-width:0.59776;stroke-linecap:butt;stroke-linejoin:miter;stroke-miterlimit:10;stroke-dasharray:none;stroke-opacity:1" transform="matrix(1.3333333,0,0,-1.3333333,174.79867,287.80667)" />
    <path id="path16" d="M 148.82526,191.34677 V 0" style="fill:none;stroke:#121619;stroke-width:0.59776;stroke-linecap:butt;stroke-linejoin:miter;stroke-miterlimit:10;stroke-dasharray:none;stroke-opacity:1" transform="matrix(1.3333333,0,0,-1.3333333,174.79867,287.80667)" />
    <path id="path17" d="M 0,42.52148 H 191.34677" style="fill:none;stroke:#121619;stroke-width:0.59776;stroke-linecap:butt;stroke-linejoin:miter;stroke-miterlimit:10;stroke-dasharray:none;stroke-opacity:1" transform="matrix(1.3333333,0,0,-1.3333333,174.79867,287.80667)" />
    <path id="path18" d="M 170.08603,191.34677 V 0" style="fill:none;stroke:#121619;stroke-width:0.59776;stroke-linecap:butt;stroke-linejoin:miter;stroke-miterlimit:10;stroke-dasharray:none;stroke-opacity:1" transform="matrix(1.3333333,0,0,-1.3333333,174.79867,287.80667)" />
    <path id="path19" d="M 0,21.26073 H 191.34677" style="fill:none;stroke:#121619;stroke-width:0.59776;stroke-linecap:butt;stroke-linejoin:miter;stroke-miterlimit:10;stroke-dasharray:none;stroke-opacity:1" transform="matrix(1.3333333,0,0,-1.3333333,174.79867,287.80667)" />
    <path id="path20" d="M 0,0 H 191.34677" style="fill:none;stroke:#121619;stroke-width:0.3985;stroke-linecap:butt;stroke-linejoin:miter;stroke-miterlimit:10;stroke-dasharray:0.3985, 0.99628;stroke-dashoffset:0;stroke-opacity:1" transform="matrix(1.3333333,0,0,-1.3333333,174.79867,287.80667)" />
    <path id="path21" d="M 191.34677,191.34677 V 0" style="fill:none;stroke:#121619;stroke-width:0.3985;stroke-linecap:butt;stroke-linejoin:miter;stroke-miterlimit:10;stroke-dasharray:0.3985, 0.99628;stroke-dashoffset:0;stroke-opacity:1" transform="matrix(1.3333333,0,0,-1.3333333,174.79867,287.80667)" />
    <g id="g21" aria-label="L=9" transform="matrix(1.3333333,0,0,1.3333333,289.23867,312.69733)">
      <path id="path22" d="m 3.0934609,-4.8149922 c 0.070312,-0.28125 0.082031,-0.3632812 0.8203125,-0.3632812 0.2226563,0 0.3046875,0 0.3046875,-0.1523438 0,-0.011719 -0.023437,-0.1054687 -0.140625,-0.1054687 -0.1640625,0 -0.4101562,0.011719 -0.5742187,0.023437 H 2.9293984 c -0.8203125,0 -1.0195312,-0.023437 -1.078125,-0.023437 -0.023437,0 -0.1523437,0 -0.1523437,0.140625 0,0.1171875 0.1054687,0.1171875 0.234375,0.1171875 0.2578125,0 0.4921875,0 0.4921875,0.1289062 0,0.035156 -0.011719,0.035156 -0.035156,0.140625 L 1.32393,-0.63139844 c -0.070312,0.3046875 -0.09375,0.375 -0.67968751,0.375 -0.15234375,0 -0.24609375,0 -0.24609375,0.140625 0,0.1171875 0.10546875,0.1171875 0.234375,0.1171875 H 4.4879922 c 0.1992187,0 0.2109375,-0.01171875 0.2695312,-0.1640625 0.082031,-0.22265625 0.65625,-1.71093746 0.65625,-1.79296876 0,-0.070312 -0.058594,-0.1171875 -0.1171875,-0.1171875 -0.082031,0 -0.1054687,0.058594 -0.1523437,0.1757813 -0.2929688,0.7382812 -0.6328125,1.64062496 -2.0625,1.64062496 H 2.0739297 c -0.070312,-0.0234375 -0.09375,-0.0234375 -0.09375,-0.0820313 0,-0.0585938 0.011719,-0.1171875 0.023437,-0.17578125 z m 0,0" style="fill:#121619;fill-opacity:1;fill-rule:nonzero;stroke:none" />
      <path id="path23" d="M 8.6891641,-2.7056172 H 12.521195 V -3.2095234 H 8.6891641 Z m 0,1.5351563 H 12.521195 V -1.6743672 H 8.6891641 Z m 0,0" style="fill:#121619;fill-opacity:1;fill-rule:nonzero;stroke:none" />
      <path id="path24" d="m 18.576859,-2.3540547 c 0,1.94531251 -0.925781,2.28515626 -1.394531,2.28515626 -0.164062,0 -0.574219,-0.0234375 -0.796875,-0.26953125 0.351563,-0.0351563 0.375,-0.29296875 0.375,-0.375 0,-0.24609375 -0.175781,-0.37500001 -0.375,-0.37500001 -0.140625,0 -0.375,0.082031 -0.375,0.38671876 0,0.5390625 0.445313,0.8671875 1.183594,0.8671875 1.089844,0 2.121094,-1.078125 2.121094,-2.78906246 0,-2.0742188 -0.914063,-2.671875 -1.734375,-2.671875 -0.9375,0 -1.78125,0.7265625 -1.78125,1.7695312 0,1.03125 0.773437,1.78125 1.675781,1.78125 0.5625,0 0.902344,-0.3632812 1.101562,-0.7617187 z m -1.078125,0.3867188 c -0.363281,0 -0.597656,-0.1640625 -0.773437,-0.4570313 -0.175781,-0.3046875 -0.175781,-0.6796875 -0.175781,-1.0898437 0,-0.46875 0,-0.8085938 0.210937,-1.125 0.199219,-0.2929688 0.457031,-0.4570313 0.832031,-0.4570313 0.527344,0 0.761719,0.5273438 0.785157,0.5742188 0.175781,0.3867187 0.175781,1.0078125 0.175781,1.171875 0,0.6210937 -0.339844,1.3828125 -1.054688,1.3828125 z m 0,0" style="fill:#121619;fill-opacity:1;fill-rule:nonzero;stroke:none" />
    </g>
  </g>
</svg>