<?xml version="1.0" encoding="UTF-8"?><!DOCTYPE svg  PUBLIC '-//W3C//DTD SVG 1.1//EN'  'http://www.w3.org/Graphics/SVG/1.1/DTD/svg11.dtd'><svg width="1239.9pt" height="357.42pt" version="1.1" viewBox="0 0 1239.9 357.42" xmlns="http://www.w3.org/2000/svg" xmlns:xlink="http://www.w3.org/1999/xlink"><defs><style type="text/css">*{stroke-linejoin: round; stroke-linecap: butt}</style></defs><path d="m-0 357.42h1239.9v-357.42h-1239.9z" fill="#ffffff"/><path d="m64.609 44.283h1163.5" clip-path="url(#027423ca95d)" fill="none" stroke="#000000" stroke-linecap="square" stroke-width="2"/><path d="m64.609 90.637h1163.5" clip-path="url(#027423ca95d)" fill="none" stroke="#000000" stroke-linecap="square" stroke-width="2"/><path d="m64.609 136.99h1163.5" clip-path="url(#027423ca95d)" fill="none" stroke="#000000" stroke-linecap="square" stroke-width="2"/><path d="m1228.1 44.283v92.708" clip-path="url(#027423ca95d)" fill="none" stroke="#000000" stroke-linecap="square" stroke-width="1.5"/><path d="m64.609 229.7h1163.5" clip-path="url(#027423ca95d)" fill="none" stroke="#000000" stroke-linecap="square" stroke-width="2"/><path d="m64.609 276.05h1163.5" clip-path="url(#027423ca95d)" fill="none" stroke="#000000" stroke-linecap="square" stroke-width="2"/><path d="m64.609 322.41h1163.5" clip-path="url(#027423ca95d)" fill="none" stroke="#000000" stroke-linecap="square" stroke-width="2"/><path d="m64.146 229.7v92.708" clip-path="url(#027423ca95d)" fill="none" stroke="#000000" stroke-linecap="square" stroke-width="1.5"/><path d="m59.974 21.106h-1158.8v185.42h1158.8z" clip-path="url(#027423ca95d)" fill="#ffffff" stroke="#ffffff" stroke-width="1.5"/><path d="m59.974 206.52h-1158.8v370.83h1158.8z" clip-path="url(#027423ca95d)" fill="#ffffff" stroke="#ffffff" stroke-width="1.5"/><path d="m182.35 90.637v-46.354" clip-path="url(#027423ca95d)" fill="none" stroke="#002d9c" stroke-linecap="square" stroke-width="2"/><path d="m275.06 136.99v-92.708" clip-path="url(#027423ca95d)" fill="none" stroke="#002d9c" stroke-linecap="square" stroke-width="2"/><path d="m414.12 136.99v-46.354" clip-path="url(#027423ca95d)" fill="none" stroke="#002d9c" stroke-linecap="square" stroke-width="2"/><path d="m553.18 90.637v-46.354" clip-path="url(#027423ca95d)" fill="none" stroke="#002d9c" stroke-linecap="square" stroke-width="2"/><path d="m645.89 136.99v-92.708" clip-path="url(#027423ca95d)" fill="none" stroke="#002d9c" stroke-linecap="square" stroke-width="2"/><path d="m784.95 136.99v-46.354" clip-path="url(#027423ca95d)" fill="none" stroke="#002d9c" stroke-linecap="square" stroke-width="2"/><path d="m924.01 90.637v-46.354" clip-path="url(#027423ca95d)" fill="none" stroke="#002d9c" stroke-linecap="square" stroke-width="2"/><path d="m1016.7 136.99v-92.708" clip-path="url(#027423ca95d)" fill="none" stroke="#002d9c" stroke-linecap="square" stroke-width="2"/><path d="m1155.8 136.99v-46.354" clip-path="url(#027423ca95d)" fill="none" stroke="#002d9c" stroke-linecap="square" stroke-width="2"/><path d="m74.575 59.348h30.13v-30.13h-30.13z" clip-path="url(#027423ca95d)" fill="#9f1853" stroke="#9f1853" stroke-width="1.5"/><path d="m74.575 105.7h30.13v-30.13h-30.13z" clip-path="url(#027423ca95d)" fill="#9f1853" stroke="#9f1853" stroke-width="1.5"/><path d="m74.575 152.06h30.13v-30.13h-30.13z" clip-path="url(#027423ca95d)" fill="#9f1853" stroke="#9f1853" stroke-width="1.5"/><path d="m120.93 105.7h30.13v-30.13h-30.13z" clip-path="url(#027423ca95d)" fill="#fa4d56" stroke="#fa4d56" stroke-width="1.5"/><path d="m120.93 152.06h30.13v-30.13h-30.13z" clip-path="url(#027423ca95d)" fill="#fa4d56" stroke="#fa4d56" stroke-width="1.5"/><path d="m182.35 48.803c1.1986 0 2.3482-0.4762 3.1958-1.3237 0.84753-0.84753 1.3237-1.9972 1.3237-3.1958 0-1.1986-0.4762-2.3482-1.3237-3.1958-0.84753-0.84753-1.9972-1.3237-3.1958-1.3237s-2.3482 0.4762-3.1958 1.3237c-0.84753 0.84753-1.3237 1.9972-1.3237 3.1958 0 1.1986 0.4762 2.3482 1.3237 3.1958 0.84753 0.84753 1.9972 1.3237 3.1958 1.3237z" clip-path="url(#027423ca95d)" fill="#002d9c" stroke="#002d9c" stroke-width="1.5"/><path d="m182.35 101.18c2.7967 0 5.4792-1.1111 7.4568-3.0887 1.9776-1.9776 3.0887-4.6601 3.0887-7.4568 0-2.7967-1.1111-5.4792-3.0887-7.4568-1.9776-1.9776-4.6601-3.0887-7.4568-3.0887-2.7967 0-5.4792 1.1111-7.4568 3.0887-1.9776 1.9776-3.0887 4.6601-3.0887 7.4568 0 2.7967 1.1111 5.4792 3.0887 7.4568 1.9776 1.9776 4.6601 3.0887 7.4568 3.0887z" clip-path="url(#027423ca95d)" fill="#002d9c" stroke="#002d9c" stroke-width="2"/><path d="m213.64 105.7h30.13v-30.13h-30.13z" clip-path="url(#027423ca95d)" fill="#fa4d56" stroke="#fa4d56" stroke-width="1.5"/><path d="m275.06 48.803c1.1986 0 2.3482-0.4762 3.1958-1.3237 0.84753-0.84753 1.3237-1.9972 1.3237-3.1958 0-1.1986-0.4762-2.3482-1.3237-3.1958-0.84753-0.84753-1.9972-1.3237-3.1958-1.3237-1.1986 0-2.3482 0.4762-3.1958 1.3237s-1.3237 1.9972-1.3237 3.1958c0 1.1986 0.4762 2.3482 1.3237 3.1958s1.9972 1.3237 3.1958 1.3237z" clip-path="url(#027423ca95d)" fill="#002d9c" stroke="#002d9c" stroke-width="1.5"/><path d="m275.06 147.54c2.7967 0 5.4792-1.1111 7.4568-3.0887 1.9776-1.9776 3.0887-4.6601 3.0887-7.4568 0-2.7967-1.1111-5.4792-3.0887-7.4568-1.9776-1.9776-4.6601-3.0887-7.4568-3.0887-2.7967 0-5.4792 1.1111-7.4568 3.0887-1.9776 1.9776-3.0887 4.6601-3.0887 7.4568 0 2.7967 1.1111 5.4792 3.0887 7.4568 1.9776 1.9776 4.6601 3.0887 7.4568 3.0887z" clip-path="url(#027423ca95d)" fill="#002d9c" stroke="#002d9c" stroke-width="2"/><path d="m306.35 59.348h30.13v-30.13h-30.13z" clip-path="url(#027423ca95d)" fill="#9f1853" stroke="#9f1853" stroke-width="1.5"/><path d="m306.35 152.06h30.13v-30.13h-30.13z" clip-path="url(#027423ca95d)" fill="#fa4d56" stroke="#fa4d56" stroke-width="1.5"/><path d="m352.7 152.06h30.13v-30.13h-30.13z" clip-path="url(#027423ca95d)" fill="#fa4d56" stroke="#fa4d56" stroke-width="1.5"/><path d="m414.12 95.157c1.1986 0 2.3482-0.4762 3.1958-1.3237 0.84753-0.84753 1.3237-1.9972 1.3237-3.1958s-0.4762-2.3482-1.3237-3.1958c-0.84753-0.84753-1.9972-1.3237-3.1958-1.3237-1.1986 0-2.3482 0.4762-3.1958 1.3237-0.84753 0.84753-1.3237 1.9972-1.3237 3.1958s0.4762 2.3482 1.3237 3.1958c0.84753 0.84753 1.9972 1.3237 3.1958 1.3237z" clip-path="url(#027423ca95d)" fill="#002d9c" stroke="#002d9c" stroke-width="1.5"/><path d="m414.12 147.54c2.7967 0 5.4792-1.1111 7.4568-3.0887 1.9776-1.9776 3.0887-4.6601 3.0887-7.4568 0-2.7967-1.1111-5.4792-3.0887-7.4568s-4.6601-3.0887-7.4568-3.0887c-2.7967 0-5.4792 1.1111-7.4568 3.0887-1.9776 1.9776-3.0887 4.6601-3.0887 7.4568 0 2.7967 1.1111 5.4792 3.0887 7.4568 1.9776 1.9776 4.6601 3.0887 7.4568 3.0887z" clip-path="url(#027423ca95d)" fill="#002d9c" stroke="#002d9c" stroke-width="2"/><path d="m445.41 105.7h30.13v-30.13h-30.13z" clip-path="url(#027423ca95d)" fill="#9f1853" stroke="#9f1853" stroke-width="1.5"/><path d="m445.41 152.06h30.13v-30.13h-30.13z" clip-path="url(#027423ca95d)" fill="#fa4d56" stroke="#fa4d56" stroke-width="1.5"/><path d="m491.76 105.7h30.13v-30.13h-30.13z" clip-path="url(#027423ca95d)" fill="#fa4d56" stroke="#fa4d56" stroke-width="1.5"/><path d="m491.76 152.06h30.13v-30.13h-30.13z" clip-path="url(#027423ca95d)" fill="#9f1853" stroke="#9f1853" stroke-width="1.5"/><path d="m553.18 48.803c1.1986 0 2.3482-0.4762 3.1958-1.3237 0.84753-0.84753 1.3237-1.9972 1.3237-3.1958 0-1.1986-0.4762-2.3482-1.3237-3.1958-0.84753-0.84753-1.9972-1.3237-3.1958-1.3237s-2.3482 0.4762-3.1958 1.3237c-0.84753 0.84753-1.3237 1.9972-1.3237 3.1958 0 1.1986 0.4762 2.3482 1.3237 3.1958 0.84753 0.84753 1.9972 1.3237 3.1958 1.3237z" clip-path="url(#027423ca95d)" fill="#002d9c" stroke="#002d9c" stroke-width="1.5"/><path d="m553.18 101.18c2.7967 0 5.4792-1.1111 7.4568-3.0887 1.9776-1.9776 3.0887-4.6601 3.0887-7.4568 0-2.7967-1.1111-5.4792-3.0887-7.4568-1.9776-1.9776-4.6601-3.0887-7.4568-3.0887s-5.4792 1.1111-7.4568 3.0887c-1.9776 1.9776-3.0887 4.6601-3.0887 7.4568 0 2.7967 1.1111 5.4792 3.0887 7.4568 1.9776 1.9776 4.6601 3.0887 7.4568 3.0887z" clip-path="url(#027423ca95d)" fill="#002d9c" stroke="#002d9c" stroke-width="2"/><path d="m538.12 152.06h30.13v-30.13h-30.13z" clip-path="url(#027423ca95d)" fill="#fa4d56" stroke="#fa4d56" stroke-width="1.5"/><path d="m584.47 105.7h30.13v-30.13h-30.13z" clip-path="url(#027423ca95d)" fill="#fa4d56" stroke="#fa4d56" stroke-width="1.5"/><path d="m645.89 48.803c1.1986 0 2.3482-0.4762 3.1958-1.3237 0.84753-0.84753 1.3237-1.9972 1.3237-3.1958 0-1.1986-0.4762-2.3482-1.3237-3.1958-0.84753-0.84753-1.9972-1.3237-3.1958-1.3237-1.1986 0-2.3482 0.4762-3.1958 1.3237s-1.3237 1.9972-1.3237 3.1958c0 1.1986 0.4762 2.3482 1.3237 3.1958s1.9972 1.3237 3.1958 1.3237z" clip-path="url(#027423ca95d)" fill="#002d9c" stroke="#002d9c" stroke-width="1.5"/><path d="m645.89 147.54c2.7967 0 5.4792-1.1111 7.4568-3.0887 1.9776-1.9776 3.0887-4.6601 3.0887-7.4568 0-2.7967-1.1111-5.4792-3.0887-7.4568s-4.6601-3.0887-7.4568-3.0887c-2.7967 0-5.4792 1.1111-7.4568 3.0887-1.9776 1.9776-3.0887 4.6601-3.0887 7.4568 0 2.7967 1.1111 5.4792 3.0887 7.4568 1.9776 1.9776 4.6601 3.0887 7.4568 3.0887z" clip-path="url(#027423ca95d)" fill="#002d9c" stroke="#002d9c" stroke-width="2"/><path d="m677.18 59.348h30.13v-30.13h-30.13z" clip-path="url(#027423ca95d)" fill="#9f1853" stroke="#9f1853" stroke-width="1.5"/><path d="m677.18 152.06h30.13v-30.13h-30.13z" clip-path="url(#027423ca95d)" fill="#fa4d56" stroke="#fa4d56" stroke-width="1.5"/><path d="m723.53 152.06h30.13v-30.13h-30.13z" clip-path="url(#027423ca95d)" fill="#fa4d56" stroke="#fa4d56" stroke-width="1.5"/><path d="m784.95 95.157c1.1986 0 2.3482-0.4762 3.1958-1.3237 0.84753-0.84753 1.3237-1.9972 1.3237-3.1958s-0.4762-2.3482-1.3237-3.1958c-0.84753-0.84753-1.9972-1.3237-3.1958-1.3237s-2.3482 0.4762-3.1958 1.3237c-0.84753 0.84753-1.3237 1.9972-1.3237 3.1958s0.4762 2.3482 1.3237 3.1958c0.84753 0.84753 1.9972 1.3237 3.1958 1.3237z" clip-path="url(#027423ca95d)" fill="#002d9c" stroke="#002d9c" stroke-width="1.5"/><path d="m784.95 147.54c2.7967 0 5.4792-1.1111 7.4568-3.0887 1.9776-1.9776 3.0887-4.6601 3.0887-7.4568 0-2.7967-1.1111-5.4792-3.0887-7.4568-1.9776-1.9776-4.6601-3.0887-7.4568-3.0887-2.7967 0-5.4792 1.1111-7.4568 3.0887-1.9776 1.9776-3.0887 4.6601-3.0887 7.4568 0 2.7967 1.1111 5.4792 3.0887 7.4568 1.9776 1.9776 4.6601 3.0887 7.4568 3.0887z" clip-path="url(#027423ca95d)" fill="#002d9c" stroke="#002d9c" stroke-width="2"/><path d="m816.24 105.7h30.13v-30.13h-30.13z" clip-path="url(#027423ca95d)" fill="#9f1853" stroke="#9f1853" stroke-width="1.5"/><path d="m816.24 152.06h30.13v-30.13h-30.13z" clip-path="url(#027423ca95d)" fill="#fa4d56" stroke="#fa4d56" stroke-width="1.5"/><path d="m862.59 105.7h30.13v-30.13h-30.13z" clip-path="url(#027423ca95d)" fill="#fa4d56" stroke="#fa4d56" stroke-width="1.5"/><path d="m862.59 152.06h30.13v-30.13h-30.13z" clip-path="url(#027423ca95d)" fill="#9f1853" stroke="#9f1853" stroke-width="1.5"/><path d="m924.01 48.803c1.1986 0 2.3482-0.4762 3.1958-1.3237 0.84753-0.84753 1.3237-1.9972 1.3237-3.1958 0-1.1986-0.4762-2.3482-1.3237-3.1958-0.84753-0.84753-1.9972-1.3237-3.1958-1.3237s-2.3482 0.4762-3.1958 1.3237c-0.84753 0.84753-1.3237 1.9972-1.3237 3.1958 0 1.1986 0.4762 2.3482 1.3237 3.1958 0.84753 0.84753 1.9972 1.3237 3.1958 1.3237z" clip-path="url(#027423ca95d)" fill="#002d9c" stroke="#002d9c" stroke-width="1.5"/><path d="m924.01 101.18c2.7967 0 5.4792-1.1111 7.4568-3.0887 1.9776-1.9776 3.0887-4.6601 3.0887-7.4568 0-2.7967-1.1111-5.4792-3.0887-7.4568-1.9776-1.9776-4.6601-3.0887-7.4568-3.0887-2.7967 0-5.4792 1.1111-7.4568 3.0887-1.9776 1.9776-3.0887 4.6601-3.0887 7.4568 0 2.7967 1.1111 5.4792 3.0887 7.4568 1.9776 1.9776 4.6601 3.0887 7.4568 3.0887z" clip-path="url(#027423ca95d)" fill="#002d9c" stroke="#002d9c" stroke-width="2"/><path d="m908.95 152.06h30.13v-30.13h-30.13z" clip-path="url(#027423ca95d)" fill="#fa4d56" stroke="#fa4d56" stroke-width="1.5"/><path d="m955.3 105.7h30.13v-30.13h-30.13z" clip-path="url(#027423ca95d)" fill="#fa4d56" stroke="#fa4d56" stroke-width="1.5"/><path d="m1016.7 48.803c1.1986 0 2.3482-0.4762 3.1958-1.3237 0.84753-0.84753 1.3237-1.9972 1.3237-3.1958 0-1.1986-0.4762-2.3482-1.3237-3.1958-0.84753-0.84753-1.9972-1.3237-3.1958-1.3237-1.1986 0-2.3482 0.4762-3.1958 1.3237s-1.3237 1.9972-1.3237 3.1958c0 1.1986 0.4762 2.3482 1.3237 3.1958s1.9972 1.3237 3.1958 1.3237z" clip-path="url(#027423ca95d)" fill="#002d9c" stroke="#002d9c" stroke-width="1.5"/><path d="m1016.7 147.54c2.7967 0 5.4792-1.1111 7.4568-3.0887 1.9776-1.9776 3.0887-4.6601 3.0887-7.4568 0-2.7967-1.1111-5.4792-3.0887-7.4568s-4.6601-3.0887-7.4568-3.0887c-2.7967 0-5.4792 1.1111-7.4568 3.0887-1.9776 1.9776-3.0887 4.6601-3.0887 7.4568 0 2.7967 1.1111 5.4792 3.0887 7.4568 1.9776 1.9776 4.6601 3.0887 7.4568 3.0887z" clip-path="url(#027423ca95d)" fill="#002d9c" stroke="#002d9c" stroke-width="2"/><path d="m1048 59.348h30.13v-30.13h-30.13z" clip-path="url(#027423ca95d)" fill="#9f1853" stroke="#9f1853" stroke-width="1.5"/><path d="m1048 152.06h30.13v-30.13h-30.13z" clip-path="url(#027423ca95d)" fill="#fa4d56" stroke="#fa4d56" stroke-width="1.5"/><path d="m1094.4 152.06h30.13v-30.13h-30.13z" clip-path="url(#027423ca95d)" fill="#fa4d56" stroke="#fa4d56" stroke-width="1.5"/><path d="m1155.8 95.157c1.1986 0 2.3482-0.4762 3.1958-1.3237 0.84753-0.84753 1.3237-1.9972 1.3237-3.1958s-0.4762-2.3482-1.3237-3.1958c-0.84753-0.84753-1.9972-1.3237-3.1958-1.3237s-2.3482 0.4762-3.1958 1.3237c-0.84753 0.84753-1.3237 1.9972-1.3237 3.1958s0.4762 2.3482 1.3237 3.1958c0.84753 0.84753 1.9972 1.3237 3.1958 1.3237z" clip-path="url(#027423ca95d)" fill="#002d9c" stroke="#002d9c" stroke-width="1.5"/><path d="m1155.8 147.54c2.7967 0 5.4792-1.1111 7.4568-3.0887 1.9776-1.9776 3.0887-4.6601 3.0887-7.4568 0-2.7967-1.1111-5.4792-3.0887-7.4568-1.9776-1.9776-4.6601-3.0887-7.4568-3.0887s-5.4792 1.1111-7.4568 3.0887c-1.9776 1.9776-3.0887 4.6601-3.0887 7.4568 0 2.7967 1.1111 5.4792 3.0887 7.4568 1.9776 1.9776 4.6601 3.0887 7.4568 3.0887z" clip-path="url(#027423ca95d)" fill="#002d9c" stroke="#002d9c" stroke-width="2"/><path d="m1187.1 105.7h30.13v-30.13h-30.13z" clip-path="url(#027423ca95d)" fill="#9f1853" stroke="#9f1853" stroke-width="1.5"/><path d="m1187.1 152.06h30.13v-30.13h-30.13z" clip-path="url(#027423ca95d)" fill="#fa4d56" stroke="#fa4d56" stroke-width="1.5"/><path d="m74.575 337.47h30.13v-30.13h-30.13z" clip-path="url(#027423ca95d)" fill="#9f1853" stroke="#9f1853" stroke-width="1.5"/><path d="m182.35 96.663v-12.052" clip-path="url(#027423ca95d)" fill="none" stroke="#ffffff" stroke-linecap="square" stroke-width="2"/><path d="m176.32 90.637h12.052" clip-path="url(#027423ca95d)" fill="none" stroke="#ffffff" stroke-linecap="square" stroke-width="2"/><path d="m275.06 143.02v-12.052" clip-path="url(#027423ca95d)" fill="none" stroke="#ffffff" stroke-linecap="square" stroke-width="2"/><path d="m269.03 136.99h12.052" clip-path="url(#027423ca95d)" fill="none" stroke="#ffffff" stroke-linecap="square" stroke-width="2"/><path d="m414.12 143.02v-12.052" clip-path="url(#027423ca95d)" fill="none" stroke="#ffffff" stroke-linecap="square" stroke-width="2"/><path d="m408.09 136.99h12.052" clip-path="url(#027423ca95d)" fill="none" stroke="#ffffff" stroke-linecap="square" stroke-width="2"/><path d="m553.18 96.663v-12.052" clip-path="url(#027423ca95d)" fill="none" stroke="#ffffff" stroke-linecap="square" stroke-width="2"/><path d="m547.15 90.637h12.052" clip-path="url(#027423ca95d)" fill="none" stroke="#ffffff" stroke-linecap="square" stroke-width="2"/><path d="m645.89 143.02v-12.052" clip-path="url(#027423ca95d)" fill="none" stroke="#ffffff" stroke-linecap="square" stroke-width="2"/><path d="m639.86 136.99h12.052" clip-path="url(#027423ca95d)" fill="none" stroke="#ffffff" stroke-linecap="square" stroke-width="2"/><path d="m784.95 143.02v-12.052" clip-path="url(#027423ca95d)" fill="none" stroke="#ffffff" stroke-linecap="square" stroke-width="2"/><path d="m778.92 136.99h12.052" clip-path="url(#027423ca95d)" fill="none" stroke="#ffffff" stroke-linecap="square" stroke-width="2"/><path d="m924.01 96.663v-12.052" clip-path="url(#027423ca95d)" fill="none" stroke="#ffffff" stroke-linecap="square" stroke-width="2"/><path d="m917.99 90.637h12.052" clip-path="url(#027423ca95d)" fill="none" stroke="#ffffff" stroke-linecap="square" stroke-width="2"/><path d="m1016.7 143.02v-12.052" clip-path="url(#027423ca95d)" fill="none" stroke="#ffffff" stroke-linecap="square" stroke-width="2"/><path d="m1010.7 136.99h12.052" clip-path="url(#027423ca95d)" fill="none" stroke="#ffffff" stroke-linecap="square" stroke-width="2"/><path d="m1155.8 143.02v-12.052" clip-path="url(#027423ca95d)" fill="none" stroke="#ffffff" stroke-linecap="square" stroke-width="2"/><path d="m1149.8 136.99h12.052" clip-path="url(#027423ca95d)" fill="none" stroke="#ffffff" stroke-linecap="square" stroke-width="2"/><g clip-path="url(#027423ca95d)"><g transform="translate(37.301 48.734) scale(.1625 -.1625)"><defs><path id="DejaVuSans-Oblique-71" transform="scale(.015625)" d="m2669 525q-231-303-546-460-314-156-695-156-531 0-833 358-301 358-301 986 0 506 186 978t533 847q225 244 517 375t614 131q387 0 637-153t363-462l100 525h578l-934-4813h-579l360 1844zm-1778 813q0-463 193-705 194-242 560-242 544 0 928 520t384 1264q0 450-199 689-198 239-569 239-272 0-504-127-231-126-403-370-181-256-286-600-104-343-104-668z"/><path id="DejaVuSans-30" transform="scale(.015625)" d="m2034 4250q-487 0-733-480-245-479-245-1442 0-959 245-1439 246-480 733-480 491 0 736 480 246 480 246 1439 0 963-246 1442-245 480-736 480zm0 500q785 0 1199-621 414-620 414-1801 0-1178-414-1799-414-620-1199-620-784 0-1198 620-414 621-414 1799 0 1181 414 1801 414 621 1198 621z"/></defs><use xlink:href="#DejaVuSans-Oblique-71"/><use transform="translate(63.477 -16.406) scale(.7)" xlink:href="#DejaVuSans-30"/></g></g><g clip-path="url(#027423ca95d)"><g transform="translate(37.301 95.088) scale(.1625 -.1625)"><defs><path id="DejaVuSans-31" transform="scale(.015625)" d="m794 531h1031v3560l-1122-225v575l1116 225h631v-4135h1031v-531h-2687v531z"/></defs><use xlink:href="#DejaVuSans-Oblique-71"/><use transform="translate(63.477 -16.406) scale(.7)" xlink:href="#DejaVuSans-31"/></g></g><g clip-path="url(#027423ca95d)"><g transform="translate(37.301 141.44) scale(.1625 -.1625)"><defs><path id="DejaVuSans-32" transform="scale(.015625)" d="m1228 531h2203v-531h-2962v531q359 372 979 998 621 627 780 809 303 340 423 576 121 236 121 464 0 372-261 606-261 235-680 235-297 0-627-103-329-103-704-313v638q381 153 712 231 332 78 607 78 725 0 1156-363 431-362 431-968 0-288-108-546-107-257-392-607-78-91-497-524-418-433-1181-1211z"/></defs><use xlink:href="#DejaVuSans-Oblique-71"/><use transform="translate(63.477 -16.406) scale(.7)" xlink:href="#DejaVuSans-32"/></g></g><g clip-path="url(#027423ca95d)"><g transform="translate(37.301 234.15) scale(.1625 -.1625)"><use xlink:href="#DejaVuSans-Oblique-71"/><use transform="translate(63.477 -16.406) scale(.7)" xlink:href="#DejaVuSans-30"/></g></g><g clip-path="url(#027423ca95d)"><g transform="translate(37.301 280.5) scale(.1625 -.1625)"><use xlink:href="#DejaVuSans-Oblique-71"/><use transform="translate(63.477 -16.406) scale(.7)" xlink:href="#DejaVuSans-31"/></g></g><g clip-path="url(#027423ca95d)"><g transform="translate(37.301 326.86) scale(.1625 -.1625)"><use xlink:href="#DejaVuSans-Oblique-71"/><use transform="translate(63.477 -16.406) scale(.7)" xlink:href="#DejaVuSans-32"/></g></g><g clip-path="url(#027423ca95d)"><g transform="translate(82.008 55.53) scale(.08 -.08)" fill="#ffffff"><defs><path id="DejaVuSans-2c" transform="scale(.015625)" d="m750 794h659v-538l-512-1e3h-403l256 1e3v538z"/></defs><use xlink:href="#DejaVuSans-30"/><use transform="translate(63.623)" xlink:href="#DejaVuSans-2c"/><use transform="translate(95.41)" xlink:href="#DejaVuSans-20"/><use transform="translate(127.2)" xlink:href="#DejaVuSans-30"/></g></g><g clip-path="url(#027423ca95d)"><g transform="translate(85.124 43.351) scale(.13 -.13)" fill="#ffffff"><defs><path id="DejaVuSans-52" transform="scale(.015625)" d="m2841 2188q203-69 395-294t386-619l641-1275h-679l-596 1197q-232 469-449 622t-592 153h-688v-1972h-631v4666h1425q800 0 1194-335 394-334 394-1009 0-441-205-732-205-290-595-402zm-1582 1959v-1656h794q456 0 689 211t233 620-233 617-689 208h-794z"/></defs><use xlink:href="#DejaVuSans-52"/></g></g><g clip-path="url(#027423ca95d)"><g transform="translate(82.008 101.88) scale(.08 -.08)" fill="#ffffff"><use xlink:href="#DejaVuSans-30"/><use transform="translate(63.623)" xlink:href="#DejaVuSans-2c"/><use transform="translate(95.41)" xlink:href="#DejaVuSans-20"/><use transform="translate(127.2)" xlink:href="#DejaVuSans-30"/></g></g><g clip-path="url(#027423ca95d)"><g transform="translate(85.124 89.705) scale(.13 -.13)" fill="#ffffff"><use xlink:href="#DejaVuSans-52"/></g></g><g clip-path="url(#027423ca95d)"><g transform="translate(82.008 148.24) scale(.08 -.08)" fill="#ffffff"><use xlink:href="#DejaVuSans-30"/><use transform="translate(63.623)" xlink:href="#DejaVuSans-2c"/><use transform="translate(95.41)" xlink:href="#DejaVuSans-20"/><use transform="translate(127.2)" xlink:href="#DejaVuSans-30"/></g></g><g clip-path="url(#027423ca95d)"><g transform="translate(85.124 136.06) scale(.13 -.13)" fill="#ffffff"><use xlink:href="#DejaVuSans-52"/></g></g><g clip-path="url(#027423ca95d)"><g transform="translate(131.11 94.224) scale(.13 -.13)"><defs><path id="DejaVuSans-48" transform="scale(.015625)" d="m628 4666h631v-1913h2294v1913h631v-4666h-631v2222h-2294v-2222h-631v4666z"/></defs><use xlink:href="#DejaVuSans-48"/></g></g><g clip-path="url(#027423ca95d)"><g transform="translate(131.11 140.58) scale(.13 -.13)"><use xlink:href="#DejaVuSans-48"/></g></g><g clip-path="url(#027423ca95d)"><g transform="translate(223.81 94.224) scale(.13 -.13)"><use xlink:href="#DejaVuSans-48"/></g></g><g clip-path="url(#027423ca95d)"><g transform="translate(313.78 55.53) scale(.08 -.08)" fill="#ffffff"><use xlink:href="#DejaVuSans-30"/><use transform="translate(63.623)" xlink:href="#DejaVuSans-2c"/><use transform="translate(95.41)" xlink:href="#DejaVuSans-20"/><use transform="translate(127.2)" xlink:href="#DejaVuSans-30"/></g></g><g clip-path="url(#027423ca95d)"><g transform="translate(316.89 43.351) scale(.13 -.13)" fill="#ffffff"><use xlink:href="#DejaVuSans-52"/></g></g><g clip-path="url(#027423ca95d)"><g transform="translate(316.52 140.58) scale(.13 -.13)"><use xlink:href="#DejaVuSans-48"/></g></g><g clip-path="url(#027423ca95d)"><g transform="translate(362.88 140.58) scale(.13 -.13)"><use xlink:href="#DejaVuSans-48"/></g></g><g clip-path="url(#027423ca95d)"><g transform="translate(452.84 101.88) scale(.08 -.08)" fill="#ffffff"><use xlink:href="#DejaVuSans-30"/><use transform="translate(63.623)" xlink:href="#DejaVuSans-2c"/><use transform="translate(95.41)" xlink:href="#DejaVuSans-20"/><use transform="translate(127.2)" xlink:href="#DejaVuSans-30"/></g></g><g clip-path="url(#027423ca95d)"><g transform="translate(455.96 89.705) scale(.13 -.13)" fill="#ffffff"><use xlink:href="#DejaVuSans-52"/></g></g><g clip-path="url(#027423ca95d)"><g transform="translate(455.58 140.58) scale(.13 -.13)"><use xlink:href="#DejaVuSans-48"/></g></g><g clip-path="url(#027423ca95d)"><g transform="translate(501.94 94.224) scale(.13 -.13)"><use xlink:href="#DejaVuSans-48"/></g></g><g clip-path="url(#027423ca95d)"><g transform="translate(499.19 148.24) scale(.08 -.08)" fill="#ffffff"><use xlink:href="#DejaVuSans-30"/><use transform="translate(63.623)" xlink:href="#DejaVuSans-2c"/><use transform="translate(95.41)" xlink:href="#DejaVuSans-20"/><use transform="translate(127.2)" xlink:href="#DejaVuSans-30"/></g></g><g clip-path="url(#027423ca95d)"><g transform="translate(502.31 136.06) scale(.13 -.13)" fill="#ffffff"><use xlink:href="#DejaVuSans-52"/></g></g><g clip-path="url(#027423ca95d)"><g transform="translate(548.29 140.58) scale(.13 -.13)"><use xlink:href="#DejaVuSans-48"/></g></g><g clip-path="url(#027423ca95d)"><g transform="translate(594.65 94.224) scale(.13 -.13)"><use xlink:href="#DejaVuSans-48"/></g></g><g clip-path="url(#027423ca95d)"><g transform="translate(684.61 55.53) scale(.08 -.08)" fill="#ffffff"><use xlink:href="#DejaVuSans-30"/><use transform="translate(63.623)" xlink:href="#DejaVuSans-2c"/><use transform="translate(95.41)" xlink:href="#DejaVuSans-20"/><use transform="translate(127.2)" xlink:href="#DejaVuSans-30"/></g></g><g clip-path="url(#027423ca95d)"><g transform="translate(687.73 43.351) scale(.13 -.13)" fill="#ffffff"><use xlink:href="#DejaVuSans-52"/></g></g><g clip-path="url(#027423ca95d)"><g transform="translate(687.35 140.58) scale(.13 -.13)"><use xlink:href="#DejaVuSans-48"/></g></g><g clip-path="url(#027423ca95d)"><g transform="translate(733.71 140.58) scale(.13 -.13)"><use xlink:href="#DejaVuSans-48"/></g></g><g clip-path="url(#027423ca95d)"><g transform="translate(823.67 101.88) scale(.08 -.08)" fill="#ffffff"><use xlink:href="#DejaVuSans-30"/><use transform="translate(63.623)" xlink:href="#DejaVuSans-2c"/><use transform="translate(95.41)" xlink:href="#DejaVuSans-20"/><use transform="translate(127.2)" xlink:href="#DejaVuSans-30"/></g></g><g clip-path="url(#027423ca95d)"><g transform="translate(826.79 89.705) scale(.13 -.13)" fill="#ffffff"><use xlink:href="#DejaVuSans-52"/></g></g><g clip-path="url(#027423ca95d)"><g transform="translate(826.42 140.58) scale(.13 -.13)"><use xlink:href="#DejaVuSans-48"/></g></g><g clip-path="url(#027423ca95d)"><g transform="translate(872.77 94.224) scale(.13 -.13)"><use xlink:href="#DejaVuSans-48"/></g></g><g clip-path="url(#027423ca95d)"><g transform="translate(870.03 148.24) scale(.08 -.08)" fill="#ffffff"><use xlink:href="#DejaVuSans-30"/><use transform="translate(63.623)" xlink:href="#DejaVuSans-2c"/><use transform="translate(95.41)" xlink:href="#DejaVuSans-20"/><use transform="translate(127.2)" xlink:href="#DejaVuSans-30"/></g></g><g clip-path="url(#027423ca95d)"><g transform="translate(873.14 136.06) scale(.13 -.13)" fill="#ffffff"><use xlink:href="#DejaVuSans-52"/></g></g><g clip-path="url(#027423ca95d)"><g transform="translate(919.12 140.58) scale(.13 -.13)"><use xlink:href="#DejaVuSans-48"/></g></g><g clip-path="url(#027423ca95d)"><g transform="translate(965.48 94.224) scale(.13 -.13)"><use xlink:href="#DejaVuSans-48"/></g></g><g clip-path="url(#027423ca95d)"><g transform="translate(1055.4 55.53) scale(.08 -.08)" fill="#ffffff"><use xlink:href="#DejaVuSans-30"/><use transform="translate(63.623)" xlink:href="#DejaVuSans-2c"/><use transform="translate(95.41)" xlink:href="#DejaVuSans-20"/><use transform="translate(127.2)" xlink:href="#DejaVuSans-30"/></g></g><g clip-path="url(#027423ca95d)"><g transform="translate(1058.6 43.351) scale(.13 -.13)" fill="#ffffff"><use xlink:href="#DejaVuSans-52"/></g></g><g clip-path="url(#027423ca95d)"><g transform="translate(1058.2 140.58) scale(.13 -.13)"><use xlink:href="#DejaVuSans-48"/></g></g><g clip-path="url(#027423ca95d)"><g transform="translate(1104.5 140.58) scale(.13 -.13)"><use xlink:href="#DejaVuSans-48"/></g></g><g clip-path="url(#027423ca95d)"><g transform="translate(1194.5 101.88) scale(.08 -.08)" fill="#ffffff"><use xlink:href="#DejaVuSans-30"/><use transform="translate(63.623)" xlink:href="#DejaVuSans-2c"/><use transform="translate(95.41)" xlink:href="#DejaVuSans-20"/><use transform="translate(127.2)" xlink:href="#DejaVuSans-30"/></g></g><g clip-path="url(#027423ca95d)"><g transform="translate(1197.6 89.705) scale(.13 -.13)" fill="#ffffff"><use xlink:href="#DejaVuSans-52"/></g></g><g clip-path="url(#027423ca95d)"><g transform="translate(1197.2 140.58) scale(.13 -.13)"><use xlink:href="#DejaVuSans-48"/></g></g><g clip-path="url(#027423ca95d)"><g transform="translate(82.008 333.65) scale(.08 -.08)" fill="#ffffff"><use xlink:href="#DejaVuSans-30"/><use transform="translate(63.623)" xlink:href="#DejaVuSans-2c"/><use transform="translate(95.41)" xlink:href="#DejaVuSans-20"/><use transform="translate(127.2)" xlink:href="#DejaVuSans-30"/></g></g><g clip-path="url(#027423ca95d)"><g transform="translate(85.124 321.47) scale(.13 -.13)" fill="#ffffff"><use xlink:href="#DejaVuSans-52"/></g></g><defs><clipPath id="027423ca95d"><rect x="7.2" y="7.2" width="1225.5" height="343.02"/></clipPath></defs></svg>