<?xml version='1.0' encoding='utf-8'?>
<svg xmlns="http://www.w3.org/2000/svg" xmlns:ns1="http://sodipodi.sourceforge.net/DTD/sodipodi-0.dtd" xmlns:ns2="http://www.inkscape.org/namespaces/inkscape" version="1.1" id="svg1" width="100%" height="auto" viewBox="-20.0 -20.0 521.0842299999999 112.001838" ns1:docname="svg_fix_XXXXXX.svg">
  <rect id="path1" x="-20.0" y="-20.0" width="521.0842299999999" height="112.001838" fill="white" /><ns1:namedview id="namedview1" pagecolor="#ffffff" bordercolor="#000000" borderopacity="0.25" ns2:showpageshadow="2" ns2:pageopacity="0.0" ns2:pagecheckerboard="0" ns2:deskcolor="#d1d1d1" />
  <defs id="defs1" />
  <g id="g1" transform="translate(-59.750213,-58.609375)">
    <path id="path2" d="M -39.66449,28.3468 H 39.66449" style="fill:none;stroke:#121619;stroke-width:0.3985;stroke-linecap:butt;stroke-linejoin:miter;stroke-miterlimit:10;stroke-dasharray:none;stroke-opacity:1" transform="matrix(1.4666667,0,0,-1.4666667,117.9248,117.8464)" />
    <path id="path3" d="M -39.66449,0 H 39.66449" style="fill:none;stroke:#121619;stroke-width:0.3985;stroke-linecap:butt;stroke-linejoin:miter;stroke-miterlimit:10;stroke-dasharray:none;stroke-opacity:1" transform="matrix(1.4666667,0,0,-1.4666667,117.9248,117.8464)" />
    <path id="path4" d="M -8.50403,19.84277 H 8.50403 V 36.85083 H -8.50403 Z" style="fill:#78a9ff;fill-opacity:1;fill-rule:nonzero;stroke:#78a9ff;stroke-width:0.3985;stroke-linecap:butt;stroke-linejoin:miter;stroke-miterlimit:10;stroke-dasharray:none;stroke-opacity:1" transform="matrix(1.4666667,0,0,-1.4666667,117.9248,117.8464)" />
    <g id="g4" aria-label="P&#10;α" transform="matrix(1.4666667,0,0,1.4666667,110.09573,79.212933)">
      <path id="path5" d="m 2.5155156,-2.4809418 h 1.4488637 c 1.1399147,0 2.34375,-0.7990056 2.34375,-1.7365056 0,-0.6818182 -0.6392046,-1.2251421 -1.6725853,-1.2251421 H 1.9508849 c -0.1384943,0 -0.2450284,0 -0.2450284,0.1491477 0,0.1171875 0.1065341,0.1171875 0.234375,0.1171875 0.2556819,0 0.4900569,0 0.4900569,0.1278409 0,0.03196 -0.010653,0.042614 -0.03196,0.1384944 l -1.0653409,4.28267042 c -0.074574,0.29829546 -0.085227,0.36221591 -0.64985794,0.36221591 -0.19176136,0 -0.27698864,0 -0.27698864,0.15980114 0,0.03196022 0.0213068,0.10653409 0.12784091,0.10653409 0.14914773,0 0.34090909,-0.01065341 0.49005687,-0.02130682 H 1.535402 c 0.7670454,0 0.9801136,0.02130682 1.0333807,0.02130682 0.042614,0 0.1598011,0 0.1598011,-0.14914773 0,-0.1171875 -0.1065341,-0.1171875 -0.2450284,-0.1171875 -0.021307,0 -0.1598011,0 -0.2982955,-0.0106534 -0.1704545,-0.0213068 -0.1811079,-0.0426136 -0.1811079,-0.1171875 0,-0.0319602 0.010653,-0.0852273 0.021307,-0.12784091 z m 0.5752841,-2.4076704 c 0.074574,-0.2663352 0.085227,-0.2876421 0.4048296,-0.2876421 h 0.8842329 c 0.649858,0 1.1505682,0.1917614 1.1505682,0.7776989 0,0.1065341 -0.042614,0.8096591 -0.4900568,1.2571023 -0.1171875,0.1171875 -0.5007102,0.4154829 -1.2784091,0.4154829 H 2.5474759 Z m 0,0" style="fill:#ffffff;fill-opacity:1;fill-rule:nonzero;stroke:none" />
      <path id="path6" d="m 8.8729375,0.59256676 c 0.649858,-0.68181818 0.7883523,-1.40625 0.7883523,-1.42755682 0,-0.0745739 -0.095881,-0.0745739 -0.1065341,-0.0745739 -0.095881,0 -0.095881,0.0213068 -0.1278409,0.13849432 C 9.2884205,-0.28101278 9.0114318,0.11316335 8.8622841,0.29427131 8.8516307,0.1664304 8.8516307,0.02793608 8.8303239,-0.11055824 8.75575,-0.85629687 8.1911193,-1.197206 7.6051818,-1.197206 c -0.9055398,0 -1.7791193,0.79900572 -1.7791193,1.62997163 0,0.61789777 0.4580966,1.06534087 1.1612216,1.06534087 0.3196023,0 0.8522727,-0.085227 1.4488636,-0.52201701 0.095881,0.25568181 0.2982955,0.52201701 0.6711648,0.52201701 0.3515625,0 0.5752841,-0.287642 0.5752841,-0.4261363 0,-0.0852273 -0.085227,-0.0852273 -0.1065341,-0.0852273 -0.063921,0 -0.085227,0.0106534 -0.1171875,0.0852273 C 9.405608,1.2211179 9.2245,1.2956918 9.1179659,1.2956918 c -0.085227,0 -0.2024148,0 -0.2450284,-0.70312504 z M 8.3935341,0.76302131 C 7.8075966,1.2211179 7.2749261,1.2956918 6.9979375,1.2956918 c -0.3835227,0 -0.6605114,-0.234375 -0.6605114,-0.67116481 0,-0.20241477 0.095881,-0.75639205 0.3515625,-1.10795455 0.2663353,-0.39417613 0.649858,-0.52201704 0.9055398,-0.52201704 0.4261364,0 0.6392046,0.31960227 0.7244318,0.78835227 0.042614,0.25568182 0.042614,0.62855114 0.074574,0.98011364 z m 0,0" style="fill:#ffffff;fill-opacity:1;fill-rule:nonzero;stroke:none" />
    </g>
    <path id="path7" d="M 2.49069,0 C 2.49069,1.37558 1.37558,2.49069 0,2.49069 -1.37558,2.49069 -2.49069,1.37558 -2.49069,0 c 0,-1.37558 1.11511,-2.49069 2.49069,-2.49069 1.37558,0 2.49069,1.11511 2.49069,2.49069 z" style="fill:#78a9ff;fill-opacity:1;fill-rule:nonzero;stroke:none" transform="matrix(1.4666667,0,0,-1.4666667,117.9248,117.8464)" />
    <path id="path8" d="M 0,0 V 19.64352" style="fill:none;stroke:#78a9ff;stroke-width:0.79701;stroke-linecap:butt;stroke-linejoin:miter;stroke-miterlimit:10;stroke-dasharray:none;stroke-opacity:1" transform="matrix(1.4666667,0,0,-1.4666667,117.9248,117.8464)" />
    <path id="path9" d="M -39.66449,28.3468 H 39.66449" style="fill:none;stroke:#121619;stroke-width:0.3985;stroke-linecap:butt;stroke-linejoin:miter;stroke-miterlimit:10;stroke-dasharray:none;stroke-opacity:1" transform="matrix(1.4666667,0,0,-1.4666667,300.2916,117.8464)" />
    <path id="path10" d="M -39.66449,0 H 39.66449" style="fill:none;stroke:#121619;stroke-width:0.3985;stroke-linecap:butt;stroke-linejoin:miter;stroke-miterlimit:10;stroke-dasharray:none;stroke-opacity:1" transform="matrix(1.4666667,0,0,-1.4666667,300.2916,117.8464)" />
    <path id="path11" d="M -8.50403,-8.50403 H 8.50403 V 8.50403 H -8.50403 Z" style="fill:#78a9ff;fill-opacity:1;fill-rule:nonzero;stroke:#78a9ff;stroke-width:0.3985;stroke-linecap:butt;stroke-linejoin:miter;stroke-miterlimit:10;stroke-dasharray:none;stroke-opacity:1" transform="matrix(1.4666667,0,0,-1.4666667,300.2916,117.8464)" />
    <g id="g11" aria-label="P&#10;α" transform="matrix(1.4666667,0,0,1.4666667,292.46253,120.78853)">
      <path id="path12" d="m 2.5131165,-2.4818835 h 1.4488636 c 1.1399148,0 2.34375,-0.7990057 2.34375,-1.7365057 0,-0.6818182 -0.6392045,-1.225142 -1.6725852,-1.225142 H 1.9484858 c -0.1384943,0 -0.2450284,0 -0.2450284,0.1491477 0,0.1171875 0.1065341,0.1171875 0.234375,0.1171875 0.2556818,0 0.4900568,0 0.4900568,0.1278409 0,0.03196 -0.010653,0.042614 -0.03196,0.1384943 l -1.0653409,4.28267046 c -0.074574,0.29829545 -0.085227,0.36221591 -0.64985799,0.36221591 -0.19176136,0 -0.27698863,0 -0.27698863,0.15980113 0,0.03196023 0.0213068,0.10653409545 0.12784091,0.10653409545 0.14914772,0 0.34090909,-0.0106534055 0.49005681,-0.0213068154 H 1.533003 c 0.7670455,0 0.9801137,0.0213068154 1.0333807,0.0213068154 0.042614,0 0.1598012,0 0.1598012,-0.14914772545 0,-0.1171875 -0.1065341,-0.1171875 -0.2450285,-0.1171875 -0.021307,0 -0.1598011,0 -0.2982954,-0.0106534 -0.1704546,-0.0213068 -0.181108,-0.0426136 -0.181108,-0.1171875 0,-0.0319602 0.010653,-0.0852273 0.021307,-0.12784091 z M 3.0884006,-4.889554 c 0.074574,-0.2663352 0.085227,-0.287642 0.4048295,-0.287642 h 0.884233 c 0.6498579,0 1.1505681,0.1917613 1.1505681,0.7776988 0,0.1065341 -0.042614,0.8096591 -0.4900568,1.2571023 -0.1171875,0.1171875 -0.5007102,0.415483 -1.2784091,0.415483 H 2.5450767 Z m 0,0" style="fill:#ffffff;fill-opacity:1;fill-rule:nonzero;stroke:none" />
      <path id="path13" d="m 8.8732017,0.591625 c 0.649858,-0.68181818 0.7883523,-1.40625 0.7883523,-1.42755682 0,-0.0745739 -0.095881,-0.0745739 -0.1065341,-0.0745739 -0.095881,0 -0.095881,0.0213068 -0.1278409,0.13849432 C 9.2886847,-0.28195455 9.011696,0.11222159 8.8625483,0.29332955 8.8518949,0.16548864 8.8518949,0.02699432 8.8305881,-0.1115 8.7560142,-0.85723864 8.1913835,-1.1981477 7.605446,-1.1981477 c -0.9055398,0 -1.7791193,0.79900565 -1.7791193,1.62997156 0,0.61789774 0.4580966,1.06534094 1.1612216,1.06534094 0.3196023,0 0.8522727,-0.085227 1.4488636,-0.52201707 0.095881,0.25568177 0.2982955,0.52201707 0.6711648,0.52201707 0.3515625,0 0.5752841,-0.2876421 0.5752841,-0.4261364 0,-0.0852273 -0.085227,-0.0852273 -0.1065341,-0.0852273 -0.063921,0 -0.085227,0.0106534 -0.1171875,0.0852273 C 9.4058722,1.2201761 9.2247642,1.29475 9.1182301,1.29475 c -0.085227,0 -0.2024148,0 -0.2450284,-0.703125 z M 8.3937983,0.76207955 C 7.8078608,1.2201761 7.2751903,1.29475 6.9982017,1.29475 c -0.3835227,0 -0.6605114,-0.234375 -0.6605114,-0.67116477 0,-0.20241478 0.095881,-0.75639205 0.3515625,-1.10795455 0.2663353,-0.39417613 0.649858,-0.52201708 0.9055398,-0.52201708 0.4261364,0 0.6392046,0.31960231 0.7244318,0.78835231 0.042614,0.25568182 0.042614,0.62855114 0.074574,0.98011364 z m 0,0" style="fill:#ffffff;fill-opacity:1;fill-rule:nonzero;stroke:none" />
    </g>
    <path id="path14" d="m 2.49069,28.3468 c 0,1.37558 -1.11511,2.4907 -2.49069,2.4907 -1.37558,0 -2.49069,-1.11512 -2.49069,-2.4907 0,-1.37558 1.11511,-2.49069 2.49069,-2.49069 1.37558,0 2.49069,1.11511 2.49069,2.49069 z" style="fill:#78a9ff;fill-opacity:1;fill-rule:nonzero;stroke:none" transform="matrix(1.4666667,0,0,-1.4666667,300.2916,117.8464)" />
    <path id="path15" d="M 0,28.3468 V 8.70328" style="fill:none;stroke:#78a9ff;stroke-width:0.79701;stroke-linecap:butt;stroke-linejoin:miter;stroke-miterlimit:10;stroke-dasharray:none;stroke-opacity:1" transform="matrix(1.4666667,0,0,-1.4666667,300.2916,117.8464)" />
    <path id="path16" d="M -39.66449,28.3468 H 39.66449" style="fill:none;stroke:#121619;stroke-width:0.3985;stroke-linecap:butt;stroke-linejoin:miter;stroke-miterlimit:10;stroke-dasharray:none;stroke-opacity:1" transform="matrix(1.4666667,0,0,-1.4666667,482.65987,117.8464)" />
    <path id="path17" d="M -39.66449,0 H 39.66449" style="fill:none;stroke:#121619;stroke-width:0.3985;stroke-linecap:butt;stroke-linejoin:miter;stroke-miterlimit:10;stroke-dasharray:none;stroke-opacity:1" transform="matrix(1.4666667,0,0,-1.4666667,482.65987,117.8464)" />
    <path id="path18" d="m 2.49069,28.3468 c 0,1.37558 -1.11511,2.4907 -2.49069,2.4907 -1.37558,0 -2.49069,-1.11512 -2.49069,-2.4907 0,-1.37558 1.11511,-2.49069 2.49069,-2.49069 1.37558,0 2.49069,1.11511 2.49069,2.49069 z" style="fill:#78a9ff;fill-opacity:1;fill-rule:nonzero;stroke:none" transform="matrix(1.4666667,0,0,-1.4666667,482.65987,117.8464)" />
    <path id="path19" d="M 2.49069,0 C 2.49069,1.37558 1.37558,2.49069 0,2.49069 -1.37558,2.49069 -2.49069,1.37558 -2.49069,0 c 0,-1.37558 1.11511,-2.49069 2.49069,-2.49069 1.37558,0 2.49069,1.11511 2.49069,2.49069 z" style="fill:#78a9ff;fill-opacity:1;fill-rule:nonzero;stroke:none" transform="matrix(1.4666667,0,0,-1.4666667,482.65987,117.8464)" />
    <path id="path20" d="M 0,28.3468 V 0" style="fill:none;stroke:#78a9ff;stroke-width:0.79701;stroke-linecap:butt;stroke-linejoin:miter;stroke-miterlimit:10;stroke-dasharray:none;stroke-opacity:1" transform="matrix(1.4666667,0,0,-1.4666667,482.65987,117.8464)" />
    <path id="path21" d="m 4.0588636,-1.1198636 c 0.7457387,-0.8096591 1.0120739,-1.8430398 1.0120739,-1.9069603 0,-0.074574 -0.053267,-0.1065341 -0.1171875,-0.1065341 -0.1065341,0 -0.1171875,0.03196 -0.1598011,0.2024148 -0.2237216,0.8096591 -0.703125,1.4275568 -0.7350853,1.4275568 -0.010653,0 -0.010653,-0.1917613 -0.010653,-0.3196022 -0.021307,-1.40625 -0.9268466,-1.6938921 -1.4701704,-1.6938921 -1.118608,0 -2.22656253,1.0973012 -2.22656253,2.2159091 0,0.78835228 0.55397728,1.37428978 1.39559663,1.37428978 0.5539772,0 1.1505681,-0.19176136 1.7791193,-0.66051136 0.1704545,0.62855113 0.6285511,0.66051136 0.7776988,0.66051136 0.4580966,0 0.7137785,-0.40482954 0.7137785,-0.55397727 0,-0.0958807 -0.095881,-0.0958807 -0.1171875,-0.0958807 -0.085227,0 -0.1065341,0.0213068 -0.127841,0.0852273 -0.1278409,0.33025568 -0.3941761,0.3515625 -0.4367897,0.3515625 -0.1171875,0 -0.2450284,0 -0.2769891,-0.98011361 z M 3.4622727,-0.85352841 C 2.897642,-0.34216477 2.2264773,-0.13975 1.7683807,-0.13975 c -0.415483,0 -0.7670455,-0.24502841 -0.7670455,-0.884233 0,-0.2769886 0.1171875,-1.0973011 0.5007103,-1.6299715 0.3196022,-0.4474432 0.7457386,-0.6392046 1.0759943,-0.6392046 0.4367897,0 0.6818182,0.3089489 0.7883522,0.7990057 0.1171875,0.5433239 0.053267,1.1825284 0.095881,1.64062499 z m 0,0" style="fill:#121619;fill-opacity:1;fill-rule:nonzero;stroke:none" aria-label="α" transform="matrix(1.4666667,0,0,1.4666667,478.672,63.767467)" />
  </g>
</svg>