<?xml version='1.0' encoding='utf-8'?>
<svg xmlns="http://www.w3.org/2000/svg" xmlns:ns1="http://sodipodi.sourceforge.net/DTD/sodipodi-0.dtd" xmlns:ns2="http://www.inkscape.org/namespaces/inkscape" version="1.1" id="svg1" width="100%" height="auto" viewBox="-20.0 -20.0 491.01434 302.42968" ns1:docname="svg_fix_XXXXXX.svg">
  <rect id="path1" x="-20.0" y="-20.0" width="491.01434" height="302.42968" fill="white" /><ns1:namedview id="namedview1" pagecolor="#ffffff" bordercolor="#000000" borderopacity="0.25" ns2:showpageshadow="2" ns2:pageopacity="0.0" ns2:pagecheckerboard="0" ns2:deskcolor="#d1d1d1" />
  <defs id="defs1" />
  <g id="g1" transform="translate(-76.718749,-35.019531)">
    <path id="path2" d="m 49.60785,-2.12625 v 4.2525 m 49.60785,-4.2525 v 4.2525 m 49.60786,-4.2525 v 4.2525 m 49.60785,-4.2525 v 4.2525" style="fill:none;stroke:#808080;stroke-width:0.19925;stroke-linecap:butt;stroke-linejoin:miter;stroke-miterlimit:10;stroke-dasharray:none;stroke-opacity:1" transform="matrix(1.6666667,0,0,-1.6666667,143.01333,254.97733)" />
    <path id="path3" d="M -2.12592,22.6774 H 2.12592 M -2.12592,45.3548 H 2.12592 M -2.12592,68.0322 H 2.12592 M -2.12592,90.7096 H 2.12592 M -2.12592,113.387 H 2.12592" style="fill:none;stroke:#808080;stroke-width:0.19925;stroke-linecap:butt;stroke-linejoin:miter;stroke-miterlimit:10;stroke-dasharray:none;stroke-opacity:1" transform="matrix(1.6666667,0,0,-1.6666667,143.01333,254.97733)" />
    <path id="path4" d="M 0,0 H 198.43108" style="fill:none;stroke:#121619;stroke-width:0.3985;stroke-linecap:butt;stroke-linejoin:miter;stroke-miterlimit:10;stroke-dasharray:none;stroke-opacity:1" transform="matrix(1.6666667,0,0,-1.6666667,143.01333,254.97733)" />
    <path id="path5" d="M 0,0 V 113.387" style="fill:none;stroke:#121619;stroke-width:0.3985;stroke-linecap:butt;stroke-linejoin:miter;stroke-miterlimit:10;stroke-dasharray:none;stroke-opacity:1" transform="matrix(1.6666667,0,0,-1.6666667,143.01333,254.97733)" />
    <g id="g5" aria-label="0.25" transform="matrix(1.6666667,0,0,1.6666667,213.14667,271.84067)">
      <path id="path6" d="m 3.9010625,-2.5411187 c 0,-0.853125 -0.09375,-1.36875 -0.35625,-1.884375 -0.346875,-0.703125 -0.99375,-0.871875 -1.434375,-0.871875 -1.003125,0 -1.36875,0.75 -1.48125,0.965625 -0.28125,0.58125 -0.3,1.378125 -0.3,1.790625 0,0.525 0.01875,1.33125 0.403125,1.96874995 0.365625,0.590625 0.95625,0.740625 1.378125,0.740625 0.384375,0 1.06875,-0.121875 1.471875,-0.909375 0.290625,-0.57187495 0.31875,-1.28437495 0.31875,-1.79999995 z m -1.790625,2.48437495 c -0.271875,0 -0.815625,-0.13125 -0.984375,-0.96562495 -0.084375,-0.45 -0.084375,-1.2 -0.084375,-1.6125 0,-0.553125 0,-1.115625 0.084375,-1.546875 0.16875,-0.815625 0.7875,-0.890625 0.984375,-0.890625 0.271875,0 0.825,0.13125 0.984375,0.853125 0.09375,0.440625 0.09375,1.040625 0.09375,1.584375 0,0.46875 0,1.18125 -0.09375,1.63125 -0.16875,0.83437495 -0.721875,0.94687495 -0.984375,0.94687495 z m 0,0" style="fill:#121619;fill-opacity:1;fill-rule:nonzero;stroke:none" />
      <path id="path7" d="m 5.85575,-0.44111875 c 0,-0.271875 -0.225,-0.440625 -0.440625,-0.440625 -0.253125,0 -0.45,0.20625 -0.45,0.43125 0,0.271875 0.225,0.45 0.440625,0.45 0.253125,0 0.45,-0.20625 0.45,-0.440625 z m 0,0" style="fill:#121619;fill-opacity:1;fill-rule:nonzero;stroke:none" />
      <path id="path8" d="m 8.837,-1.6223687 c 0.121875,-0.121875 0.459375,-0.384375 0.590625,-0.496875 0.4875,-0.459375 0.95625,-0.890625 0.95625,-1.621875 0,-0.946875 -0.796875,-1.55625 -1.790625,-1.55625 -0.95625,0 -1.584375,0.721875 -1.584375,1.434375 0,0.384375 0.309375,0.440625 0.421875,0.440625 0.16875,0 0.4125,-0.1125 0.4125,-0.421875 0,-0.4125 -0.39375,-0.4125 -0.4875,-0.4125 0.225,-0.58125 0.759375,-0.778125 1.153125,-0.778125 0.740625,0 1.125,0.628125 1.125,1.29375 0,0.834375 -0.58125,1.434375 -1.528125,2.4 l -1.003125,1.04062495 c -0.09375,0.084375 -0.09375,0.103125 -0.09375,0.3 h 3.15 l 0.225,-1.42499995 h -0.24375 c -0.01875,0.159375 -0.08437,0.55312495 -0.178125,0.70312495 -0.05625,0.065625 -0.65625,0.065625 -0.7875,0.065625 H 7.758875 Z m 3.096094,-2.859375 c 0.103125,0.0375 0.421875,0.1125 0.759375,0.1125 0.99375,0 1.603125,-0.703125 1.603125,-0.815625 0,-0.09375 -0.05625,-0.1125 -0.103125,-0.1125 -0.0094,0 -0.02812,0 -0.103125,0.0375 -0.309375,0.121875 -0.675,0.215625 -1.10625,0.215625 -0.46875,0 -0.8625,-0.121875 -1.10625,-0.215625 -0.075,-0.0375 -0.09375,-0.0375 -0.103125,-0.0375 -0.103125,0 -0.103125,0.084375 -0.103125,0.225 v 2.334375 c 0,0.15 0,0.24375 0.13125,0.24375 0.05625,0 0.08438,-0.028125 0.121875,-0.09375 0.09375,-0.121875 0.403125,-0.525 1.078125,-0.525 0.45,0 0.65625,0.365625 0.73125,0.515625 0.140625,0.28125 0.15,0.65625 0.15,0.965625 0,0.290625 -0.0094,0.72187495 -0.225,1.06874995 -0.159375,0.24375 -0.478125,0.4875 -0.9,0.4875 -0.515625,0 -1.021875,-0.328125 -1.209375,-0.84375 0.02812,0.009375 0.075,0.009375 0.08437,0.009375 0.225,0 0.39375,-0.14062495 0.39375,-0.39374995 0,-0.290625 -0.225,-0.39375 -0.384375,-0.39375 -0.15,0 -0.403125,0.075 -0.403125,0.421875 0,0.71249995 0.61875,1.44374995 1.5375,1.44374995 0.99375,0 1.8375,-0.778125 1.8375,-1.76249995 0,-0.928125 -0.665625,-1.74375 -1.603125,-1.74375 -0.403125,0 -0.778125,0.121875 -1.078125,0.39375 z m 0,0" style="fill:#121619;fill-opacity:1;fill-rule:nonzero;stroke:none" />
    </g>
    <g id="g8" aria-label="0.5" transform="matrix(1.6666667,0,0,1.6666667,299.355,271.84067)">
      <path id="path9" d="m 3.9002813,-2.5411187 c 0,-0.853125 -0.09375,-1.36875 -0.35625,-1.884375 -0.346875,-0.703125 -0.99375,-0.871875 -1.434375,-0.871875 -1.003125,0 -1.36875005,0.75 -1.48125005,0.965625 -0.28125,0.58125 -0.3,1.378125 -0.3,1.790625 0,0.525 0.01875,1.33125 0.403125,1.96874995 0.36562505,0.590625 0.95625005,0.740625 1.37812505,0.740625 0.384375,0 1.06875,-0.121875 1.471875,-0.909375 0.290625,-0.57187495 0.31875,-1.28437495 0.31875,-1.79999995 z m -1.790625,2.48437495 c -0.271875,0 -0.815625,-0.13125 -0.984375,-0.96562495 -0.084375,-0.45 -0.084375,-1.2 -0.084375,-1.6125 0,-0.553125 0,-1.115625 0.084375,-1.546875 0.16875,-0.815625 0.7875,-0.890625 0.984375,-0.890625 0.271875,0 0.825,0.13125 0.984375,0.853125 0.09375,0.440625 0.09375,1.040625 0.09375,1.584375 0,0.46875 0,1.18125 -0.09375,1.63125 -0.16875,0.83437495 -0.721875,0.94687495 -0.984375,0.94687495 z m 0,0" style="fill:#121619;fill-opacity:1;fill-rule:nonzero;stroke:none" />
      <path id="path10" d="m 5.8549688,-0.44111875 c 0,-0.271875 -0.225,-0.440625 -0.440625,-0.440625 -0.253125,0 -0.45,0.20625 -0.45,0.43125 0,0.271875 0.225,0.45 0.440625,0.45 0.253125,0 0.45,-0.20625 0.45,-0.440625 z m 0,0" style="fill:#121619;fill-opacity:1;fill-rule:nonzero;stroke:none" />
      <path id="path11" d="m 7.7018438,-4.4817437 c 0.103125,0.0375 0.421875,0.1125 0.759375,0.1125 0.99375,0 1.6031252,-0.703125 1.6031252,-0.815625 0,-0.09375 -0.05625,-0.1125 -0.1031252,-0.1125 -0.00937,0 -0.028125,0 -0.103125,0.0375 -0.309375,0.121875 -0.675,0.215625 -1.10625,0.215625 -0.46875,0 -0.8625,-0.121875 -1.10625,-0.215625 -0.075,-0.0375 -0.09375,-0.0375 -0.103125,-0.0375 -0.103125,0 -0.103125,0.084375 -0.103125,0.225 v 2.334375 c 0,0.15 0,0.24375 0.13125,0.24375 0.05625,0 0.084375,-0.028125 0.121875,-0.09375 0.09375,-0.121875 0.403125,-0.525 1.078125,-0.525 0.45,0 0.65625,0.365625 0.73125,0.515625 0.140625,0.28125 0.15,0.65625 0.15,0.965625 0,0.290625 -0.00938,0.72187495 -0.225,1.06874995 -0.159375,0.24375 -0.478125,0.4875 -0.9,0.4875 -0.515625,0 -1.021875,-0.328125 -1.209375,-0.84375 0.028125,0.009375 0.075,0.009375 0.084375,0.009375 0.225,0 0.39375,-0.14062495 0.39375,-0.39374995 0,-0.290625 -0.225,-0.39375 -0.384375,-0.39375 -0.15,0 -0.403125,0.075 -0.403125,0.421875 0,0.71249995 0.61875,1.44374995 1.5375,1.44374995 0.99375,0 1.8375002,-0.778125 1.8375002,-1.76249995 0,-0.928125 -0.6656252,-1.74375 -1.6031252,-1.74375 -0.403125,0 -0.778125,0.121875 -1.078125,0.39375 z m 0,0" style="fill:#121619;fill-opacity:1;fill-rule:nonzero;stroke:none" />
    </g>
    <g id="g11" aria-label="0.75" transform="matrix(1.6666667,0,0,1.6666667,378.50667,271.84067)">
      <path id="path12" d="m 3.9006875,-2.5411187 c 0,-0.853125 -0.09375,-1.36875 -0.35625,-1.884375 -0.346875,-0.703125 -0.99375,-0.871875 -1.434375,-0.871875 -1.003125,0 -1.36875,0.75 -1.48125,0.965625 -0.28125,0.58125 -0.3,1.378125 -0.3,1.790625 0,0.525 0.01875,1.33125 0.403125,1.96874995 0.365625,0.590625 0.95625,0.740625 1.378125,0.740625 0.384375,0 1.06875,-0.121875 1.471875,-0.909375 0.290625,-0.57187495 0.31875,-1.28437495 0.31875,-1.79999995 z m -1.790625,2.48437495 c -0.271875,0 -0.815625,-0.13125 -0.984375,-0.96562495 -0.084375,-0.45 -0.084375,-1.2 -0.084375,-1.6125 0,-0.553125 0,-1.115625 0.084375,-1.546875 0.16875,-0.815625 0.7875,-0.890625 0.984375,-0.890625 0.271875,0 0.825,0.13125 0.984375,0.853125 0.09375,0.440625 0.09375,1.040625 0.09375,1.584375 0,0.46875 0,1.18125 -0.09375,1.63125 -0.16875,0.83437495 -0.721875,0.94687495 -0.984375,0.94687495 z m 0,0" style="fill:#121619;fill-opacity:1;fill-rule:nonzero;stroke:none" />
      <path id="path13" d="m 5.855375,-0.44111875 c 0,-0.271875 -0.225,-0.440625 -0.440625,-0.440625 -0.253125,0 -0.45,0.20625 -0.45,0.43125 0,0.271875 0.225,0.45 0.440625,0.45 0.253125,0 0.45,-0.20625 0.45,-0.440625 z m 0,0" style="fill:#121619;fill-opacity:1;fill-rule:nonzero;stroke:none" />
      <path id="path14" d="m 10.617875,-4.8567437 c 0.075,-0.084375 0.075,-0.103125 0.075,-0.271875 h -2.025 c -0.196875,0 -0.45,-0.00938 -0.646875,-0.028125 -0.4125,-0.028125 -0.421875,-0.103125 -0.45,-0.234375 H 7.32725 l -0.271875,1.6875 H 7.3085 c 0.00937,-0.121875 0.103125,-0.675 0.20625,-0.73125 0.09375,-0.046875 0.69375,-0.046875 0.80625,-0.046875 h 1.696875 l -0.825,1.10625 C 8.2835,-2.1661187 8.096,-0.90986875 8.096,-0.28174375 c 0,0.084375 0,0.45 0.375,0.45 0.375,0 0.375,-0.35625 0.375,-0.459375 v -0.375 c 0,-1.15312495 0.1875,-2.09062495 0.58125,-2.60624995 z m 1.314844,0.375 c 0.103125,0.0375 0.421875,0.1125 0.759375,0.1125 0.99375,0 1.603125,-0.703125 1.603125,-0.815625 0,-0.09375 -0.05625,-0.1125 -0.103125,-0.1125 -0.0094,0 -0.02813,0 -0.103125,0.0375 -0.309375,0.121875 -0.675,0.215625 -1.10625,0.215625 -0.46875,0 -0.8625,-0.121875 -1.10625,-0.215625 -0.075,-0.0375 -0.09375,-0.0375 -0.103125,-0.0375 -0.103125,0 -0.103125,0.084375 -0.103125,0.225 v 2.334375 c 0,0.15 0,0.24375 0.13125,0.24375 0.05625,0 0.08437,-0.028125 0.121875,-0.09375 0.09375,-0.121875 0.403125,-0.525 1.078125,-0.525 0.45,0 0.65625,0.365625 0.73125,0.515625 0.140625,0.28125 0.15,0.65625 0.15,0.965625 0,0.290625 -0.0094,0.72187495 -0.225,1.06874995 -0.159375,0.24375 -0.478125,0.4875 -0.9,0.4875 -0.515625,0 -1.021875,-0.328125 -1.209375,-0.84375 0.02812,0.009375 0.075,0.009375 0.08437,0.009375 0.225,0 0.39375,-0.14062495 0.39375,-0.39374995 0,-0.290625 -0.225,-0.39375 -0.384375,-0.39375 -0.15,0 -0.403125,0.075 -0.403125,0.421875 0,0.71249995 0.61875,1.44374995 1.5375,1.44374995 0.99375,0 1.8375,-0.778125 1.8375,-1.76249995 0,-0.928125 -0.665625,-1.74375 -1.603125,-1.74375 -0.403125,0 -0.778125,0.121875 -1.078125,0.39375 z m 0,0" style="fill:#121619;fill-opacity:1;fill-rule:nonzero;stroke:none" />
    </g>
    <path id="path15" d="m 2.503,-5.0723687 c 0,-0.215625 -0.01875,-0.225 -0.234375,-0.225 -0.328125,0.31875 -0.75,0.50625 -1.5,0.50625 v 0.2625 c 0.215625,0 0.6375,0 1.10625,-0.215625 v 4.08749995 c 0,0.3 -0.028125,0.39375 -0.7875,0.39375 H 0.8155 v 0.2625 c 0.328125,-0.028125 1.0125,-0.028125 1.36875,-0.028125 0.35625,0 1.05,0 1.378125,0.028125 v -0.2625 h -0.28125 c -0.759375,0 -0.778125,-0.09375 -0.778125,-0.39375 z m 0,0" style="fill:#121619;fill-opacity:1;fill-rule:nonzero;stroke:none" aria-label="1" transform="matrix(1.6666667,0,0,1.6666667,470.20333,271.84067)" />
    <g id="g15" aria-label="0.2" transform="matrix(1.6666667,0,0,1.6666667,116.67667,221.46233)">
      <path id="path16" d="m 3.8994688,-2.5414625 c 0,-0.853125 -0.09375,-1.36875 -0.35625,-1.884375 -0.346875,-0.703125 -0.99375,-0.871875 -1.434375,-0.871875 -1.003125,0 -1.36875005,0.75 -1.48125005,0.965625 -0.28125,0.58125 -0.3,1.378125 -0.3,1.790625 0,0.525 0.01875,1.33125 0.403125,1.96875 0.36562505,0.590625 0.95625005,0.740625 1.37812505,0.740625 0.384375,0 1.06875,-0.121875 1.471875,-0.909375 0.290625,-0.571875 0.31875,-1.284375 0.31875,-1.8 z m -1.790625,2.484375 c -0.271875,0 -0.815625,-0.13125 -0.984375,-0.965625 -0.084375,-0.45 -0.084375,-1.2 -0.084375,-1.6125 0,-0.553125 0,-1.115625 0.084375,-1.546875 0.16875,-0.815625 0.7875,-0.890625 0.984375,-0.890625 0.271875,0 0.825,0.13125 0.984375,0.853125 0.09375,0.440625 0.09375,1.040625 0.09375,1.584375 0,0.46875 0,1.18125 -0.09375,1.63125 -0.16875,0.834375 -0.721875,0.946875 -0.984375,0.946875 z m 0,0" style="fill:#121619;fill-opacity:1;fill-rule:nonzero;stroke:none" />
      <path id="path17" d="m 5.8565,-0.4414625 c 0,-0.271875 -0.225,-0.440625 -0.440625,-0.440625 -0.253125,0 -0.45,0.20625 -0.45,0.43125 0,0.271875 0.225,0.45 0.440625,0.45 0.253125,0 0.45,-0.20625 0.45,-0.440625 z m 0,0" style="fill:#121619;fill-opacity:1;fill-rule:nonzero;stroke:none" />
      <path id="path18" d="m 8.8354063,-1.6227125 c 0.121875,-0.121875 0.459375,-0.384375 0.590625,-0.496875 0.4875,-0.459375 0.9562497,-0.890625 0.9562497,-1.621875 0,-0.946875 -0.7968747,-1.55625 -1.7906247,-1.55625 -0.95625,0 -1.584375,0.721875 -1.584375,1.434375 0,0.384375 0.309375,0.440625 0.421875,0.440625 0.16875,0 0.4125,-0.1125 0.4125,-0.421875 0,-0.4125 -0.39375,-0.4125 -0.4875,-0.4125 0.225,-0.58125 0.759375,-0.778125 1.153125,-0.778125 0.740625,0 1.125,0.628125 1.125,1.29375 0,0.834375 -0.58125,1.434375 -1.528125,2.4 l -1.003125,1.040625 c -0.09375,0.084375 -0.09375,0.103125 -0.09375,0.3 h 3.1499997 l 0.225,-1.425 h -0.24375 c -0.01875,0.159375 -0.08437,0.553125 -0.1781247,0.703125 -0.05625,0.065625 -0.65625,0.065625 -0.7875,0.065625 h -1.415625 z m 0,0" style="fill:#121619;fill-opacity:1;fill-rule:nonzero;stroke:none" />
    </g>
    <g id="g18" aria-label="0.4" transform="matrix(1.6666667,0,0,1.6666667,116.67667,183.66567)">
      <path id="path19" d="m 3.8994688,-2.5415875 c 0,-0.853125 -0.09375,-1.36875 -0.35625,-1.884375 -0.346875,-0.703125 -0.99375,-0.871875 -1.434375,-0.871875 -1.003125,0 -1.36875005,0.75 -1.48125005,0.965625 -0.28125,0.58125 -0.3,1.378125 -0.3,1.790625 0,0.525 0.01875,1.33125 0.403125,1.96875 0.36562505,0.590625 0.95625005,0.740625 1.37812505,0.740625 0.384375,0 1.06875,-0.121875 1.471875,-0.909375 0.290625,-0.571875 0.31875,-1.284375 0.31875,-1.8 z m -1.790625,2.484375 c -0.271875,0 -0.815625,-0.13125 -0.984375,-0.965625 -0.084375,-0.45 -0.084375,-1.2 -0.084375,-1.6125 0,-0.553125 0,-1.115625 0.084375,-1.546875 0.16875,-0.815625 0.7875,-0.890625 0.984375,-0.890625 0.271875,0 0.825,0.13125 0.984375,0.853125 0.09375,0.440625 0.09375,1.040625 0.09375,1.584375 0,0.46875 0,1.18125 -0.09375,1.63125 -0.16875,0.834375 -0.721875,0.946875 -0.984375,0.946875 z m 0,0" style="fill:#121619;fill-opacity:1;fill-rule:nonzero;stroke:none" />
      <path id="path20" d="m 5.8565,-0.4415875 c 0,-0.271875 -0.225,-0.440625 -0.440625,-0.440625 -0.253125,0 -0.45,0.20625 -0.45,0.43125 0,0.271875 0.225,0.45 0.440625,0.45 0.253125,0 0.45,-0.20625 0.45,-0.440625 z m 0,0" style="fill:#121619;fill-opacity:1;fill-rule:nonzero;stroke:none" />
      <path id="path21" d="m 9.7260313,-5.1572125 c 0,-0.159375 0,-0.225 -0.16875,-0.225 -0.103125,0 -0.1125,0.00937 -0.1875,0.121875 l -2.540625,3.69375 v 0.2625 h 2.240625 v 0.65625 c 0,0.3 -0.01875,0.384375 -0.6375,0.384375 h -0.178125 v 0.2625 c 0.675,-0.028125 0.69375,-0.028125 1.14375,-0.028125 0.459375,0 0.46875,0 1.1437497,0.028125 v -0.2625 h -0.178125 c -0.6187497,0 -0.6374997,-0.084375 -0.6374997,-0.384375 v -0.65625 h 0.8437497 v -0.2625 H 9.7260313 Z m -0.6,0.646875 v 2.94375 h -2.025 z m 0,0" style="fill:#121619;fill-opacity:1;fill-rule:nonzero;stroke:none" />
    </g>
    <g id="g21" aria-label="0.6" transform="matrix(1.6666667,0,0,1.6666667,116.67667,145.87067)">
      <path id="path22" d="m 3.8994688,-2.5403687 c 0,-0.853125 -0.09375,-1.36875 -0.35625,-1.884375 -0.346875,-0.703125 -0.99375,-0.871875 -1.434375,-0.871875 -1.003125,0 -1.36875005,0.75 -1.48125005,0.965625 -0.28125,0.58125 -0.3,1.378125 -0.3,1.790625 0,0.525 0.01875,1.33125 0.403125,1.96874995 0.36562505,0.590625 0.95625005,0.740625 1.37812505,0.740625 0.384375,0 1.06875,-0.121875 1.471875,-0.909375 0.290625,-0.57187495 0.31875,-1.28437495 0.31875,-1.79999995 z m -1.790625,2.48437495 c -0.271875,0 -0.815625,-0.13125 -0.984375,-0.96562495 -0.084375,-0.45 -0.084375,-1.2 -0.084375,-1.6125 0,-0.553125 0,-1.115625 0.084375,-1.546875 0.16875,-0.815625 0.7875,-0.890625 0.984375,-0.890625 0.271875,0 0.825,0.13125 0.984375,0.853125 0.09375,0.440625 0.09375,1.040625 0.09375,1.584375 0,0.46875 0,1.18125 -0.09375,1.63125 -0.16875,0.83437495 -0.721875,0.94687495 -0.984375,0.94687495 z m 0,0" style="fill:#121619;fill-opacity:1;fill-rule:nonzero;stroke:none" />
      <path id="path23" d="m 5.8565,-0.44036875 c 0,-0.271875 -0.225,-0.440625 -0.440625,-0.440625 -0.253125,0 -0.45,0.20625 -0.45,0.43125 0,0.271875 0.225,0.45 0.440625,0.45 0.253125,0 0.45,-0.20625 0.45,-0.440625 z m 0,0" style="fill:#121619;fill-opacity:1;fill-rule:nonzero;stroke:none" />
      <path id="path24" d="m 7.6822813,-2.6341187 c 0,-0.665625 0.05625,-1.246875 0.346875,-1.734375 0.234375,-0.39375 0.646875,-0.721875 1.14375,-0.721875 0.159375,0 0.525,0.01875 0.7125,0.3 -0.35625,0.01875 -0.39375,0.290625 -0.39375,0.375 0,0.24375 0.1875,0.375 0.375,0.375 0.1499997,0 0.3749997,-0.084375 0.3749997,-0.39375 0,-0.478125 -0.3562497,-0.8625 -1.0781247,-0.8625 -1.10625,0 -2.23125,1.05 -2.23125,2.775 0,2.15624995 1.0125,2.69062495 1.78125,2.69062495 0.384375,0 0.796875,-0.103125 1.153125,-0.45 0.3187497,-0.309375 0.5906247,-0.646875 0.5906247,-1.34062495 0,-1.040625 -0.7874997,-1.771875 -1.6687497,-1.771875 -0.58125,0 -0.91875,0.365625 -1.10625,0.759375 z m 1.03125,2.55937495 c -0.421875,0 -0.684375,-0.290625 -0.80625,-0.515625 -0.178125,-0.35625 -0.196875,-0.89999995 -0.196875,-1.19999995 0,-0.7875 0.43125,-1.378125 1.040625,-1.378125 0.403125,0 0.6375,0.20625 0.7875,0.4875 0.16875,0.290625 0.16875,0.646875 0.16875,1.059375 0,0.403125 0,0.74999995 -0.159375,1.04062495 -0.20625,0.365625 -0.4875,0.50625 -0.834375,0.50625 z m 0,0" style="fill:#121619;fill-opacity:1;fill-rule:nonzero;stroke:none" />
    </g>
    <g id="g24" aria-label="0.8" transform="matrix(1.6666667,0,0,1.6666667,116.67667,108.07567)">
      <path id="path25" d="m 3.8994688,-2.5414937 c 0,-0.853125 -0.09375,-1.36875 -0.35625,-1.884375 -0.346875,-0.703125 -0.99375,-0.871875 -1.434375,-0.871875 -1.003125,0 -1.36875005,0.75 -1.48125005,0.965625 -0.28125,0.58125 -0.3,1.378125 -0.3,1.790625 0,0.525 0.01875,1.33125 0.403125,1.96874995 0.36562505,0.590625 0.95625005,0.740625 1.37812505,0.740625 0.384375,0 1.06875,-0.121875 1.471875,-0.909375 0.290625,-0.57187495 0.31875,-1.28437495 0.31875,-1.79999995 z m -1.790625,2.48437495 c -0.271875,0 -0.815625,-0.13125 -0.984375,-0.96562495 -0.084375,-0.45 -0.084375,-1.2 -0.084375,-1.6125 0,-0.553125 0,-1.115625 0.084375,-1.546875 0.16875,-0.815625 0.7875,-0.890625 0.984375,-0.890625 0.271875,0 0.825,0.13125 0.984375,0.853125 0.09375,0.440625 0.09375,1.040625 0.09375,1.584375 0,0.46875 0,1.18125 -0.09375,1.63125 -0.16875,0.83437495 -0.721875,0.94687495 -0.984375,0.94687495 z m 0,0" style="fill:#121619;fill-opacity:1;fill-rule:nonzero;stroke:none" />
      <path id="path26" d="m 5.8565,-0.44149375 c 0,-0.271875 -0.225,-0.440625 -0.440625,-0.440625 -0.253125,0 -0.45,0.20625 -0.45,0.43125 0,0.271875 0.225,0.45 0.440625,0.45 0.253125,0 0.45,-0.20625 0.45,-0.440625 z m 0,0" style="fill:#121619;fill-opacity:1;fill-rule:nonzero;stroke:none" />
      <path id="path27" d="m 9.2291563,-2.8789937 c 0.45,-0.215625 0.9937497,-0.609375 0.9937497,-1.2375 0,-0.75 -0.7781247,-1.18125 -1.5187497,-1.18125 -0.84375,0 -1.528125,0.58125 -1.528125,1.33125 0,0.290625 0.103125,0.5625 0.3,0.796875 0.140625,0.16875 0.16875,0.178125 0.665625,0.4875 -0.99375,0.440625 -1.209375,1.021875 -1.209375,1.471875 0,0.87187495 0.890625,1.37812495 1.753125,1.37812495 0.984375,0 1.7718747,-0.665625 1.7718747,-1.50937495 0,-0.496875 -0.271875,-0.834375 -0.39375,-0.975 -0.1406247,-0.121875 -0.1499997,-0.13125 -0.8343747,-0.5625 z m -1.2375,-0.75 c -0.225,-0.13125 -0.421875,-0.365625 -0.421875,-0.646875 0,-0.496875 0.553125,-0.815625 1.115625,-0.815625 0.628125,0 1.134375,0.421875 1.134375,0.975 0,0.46875 -0.35625,0.853125 -0.825,1.0875 z m 0.39375,1.096875 c 0.0375,0.00937 0.9375,0.571875 1.078125,0.65625 0.121875,0.075 0.5437497,0.328125 0.5437497,0.80625 0,0.61874995 -0.6468747,0.99374995 -1.3031247,0.99374995 -0.7125,0 -1.3125,-0.4875 -1.3125,-1.13437495 0,-0.6 0.440625,-1.06875 0.99375,-1.321875 z m 0,0" style="fill:#121619;fill-opacity:1;fill-rule:nonzero;stroke:none" />
    </g>
    <path id="path28" d="m 2.5025313,-5.0728687 c 0,-0.215625 -0.01875,-0.225 -0.234375,-0.225 -0.328125,0.31875 -0.75,0.50625 -1.50000005,0.50625 v 0.2625 c 0.215625,0 0.63750005,0 1.10625005,-0.215625 v 4.08749995 c 0,0.3 -0.028125,0.39375 -0.7875,0.39375 H 0.81503125 v 0.2625 c 0.32812505,-0.028125 1.01250005,-0.028125 1.36875005,-0.028125 0.35625,0 1.05,0 1.378125,0.028125 v -0.2625 h -0.28125 c -0.759375,0 -0.778125,-0.09375 -0.778125,-0.39375 z m 0,0" style="fill:#121619;fill-opacity:1;fill-rule:nonzero;stroke:none" aria-label="1" transform="matrix(1.6666667,0,0,1.6666667,127.65333,70.279)" />
    <path id="path29" d="m 0,113.387 0.19862,-0.0136 0.19863,-0.0136 0.19864,-0.0204 0.19862,-0.0363 0.19862,-0.0363 0.19864,-0.0499 0.19863,-0.0657 0.19862,-0.0589 0.19864,-0.0792 0.19862,-0.086 0.19862,-0.0905 0.19864,-0.10859 0.19863,-0.11075 0.19862,-0.11296 0.19864,-0.1355 0.19862,-0.13542 0.19865,-0.14434 0.19862,-0.16004 0.19862,-0.15991 0.19864,-0.17329 0.19862,-0.1889 0.19864,-0.18652 0.19863,-0.20202 0.19863,-0.20861 0.19863,-0.20387 0.19864,-0.23283 0.19862,-0.23479 0.19862,-0.2368 0.19864,-0.25436 0.19863,-0.25857 0.19862,-0.26486 0.19864,-0.28236 0.19862,-0.27754 0.19864,-0.29052 0.19863,-0.3056 0.19862,-0.29852 0.19864,-0.3246 0.19862,-0.31969 0.19863,-0.32584 0.19864,-0.34727 0.19862,-0.34894 0.19862,-0.35492 0.19864,-0.36305 0.19864,-0.36681 0.19861,-0.38572 0.19865,-0.38938 0.19863,-0.38653 0.19862,-0.40306 0.19864,-0.40665 0.19862,-0.41232 0.19864,-0.42653 0.19863,-0.43207 0.19862,-0.43335 0.19864,-0.44736 0.19862,-0.45065 0.19863,-0.46027 0.19863,-0.46344 0.19863,-0.47082 0.19862,-0.48035 0.19864,-0.4897 0.19863,-0.48211 0.19862,-0.50612 0.19864,-0.50066 0.19862,-0.51184 0.19862,-0.52089 0.19866,-0.51949 0.19861,-0.5284 0.19865,-0.5393 0.19862,-0.53776 0.19863,-0.54854 0.19863,-0.55306 0.19863,-0.55751 0.19862,-0.56395 0.19865,-0.57034 0.19862,-0.56853 0.19862,-0.58888 0.19864,-0.58295 0.19862,-0.58703 0.19863,-0.59703 0.19864,-0.59702 0.19862,-0.60487 0.19862,-0.61264 0.19864,-0.61043 0.19863,-0.62196 0.19863,-0.62361 0.19863,-0.62516 0.19862,-0.63643 0.19866,-0.63395 0.1986,-0.63343 0.19864,-0.65014 0.19864,-0.64748 0.19863,-0.65063 0.19862,-0.65554 0.19864,-0.65657 0.19862,-0.66316 0.19863,-0.666 0.19863,-0.6631 0.19863,-0.67316 0.19862,-0.6757 0.19864,-0.67085 0.19864,-0.68425 0.19862,-0.68288 0.19864,-0.68332 0.1986,-0.69094 0.19865,-0.68754 0.19864,-0.69316 0.19861,-0.69328 0.19865,-0.69338 0.19861,-0.70216 0.19864,-0.7003 0.19864,-0.69841 0.1986,-0.70513 0.19864,-0.70484 0.19863,-0.70444 0.19863,-0.7091 0.19865,-0.70687 0.1986,-0.71135 0.19865,-0.70896 0.19862,-0.7066 0.19864,-0.71404 0.19864,-0.71313 0.1986,-0.70891 0.19864,-0.71597 0.19861,-0.7132 0.19865,-0.71042 0.19864,-0.7171 0.19861,-0.71095 0.19865,-0.71116 0.19861,-0.71429 0.19863,-0.70959 0.19866,-0.70951 0.1986,-0.71543 0.19864,-0.70751 0.19862,-0.71164 0.19864,-0.70665 0.19866,-0.70311 0.19859,-0.7084 0.19864,-0.70473 0.19862,-0.69949 0.19864,-0.70587 0.19864,-0.69762 0.19861,-0.69652 0.19864,-0.69821 0.19861,-0.68988 0.19865,-0.69414 0.19864,-0.68986 0.19861,-0.68154 0.19865,-0.68672 0.1986,-0.68365 0.19863,-0.67781 0.19866,-0.67858 0.19861,-0.67134 0.19865,-0.67189 0.19861,-0.66714 0.19864,-0.66362 0.19864,-0.66129 0.1986,-0.65887 0.19864,-0.65013 0.19862,-0.65253 0.19865,-0.64733 0.19864,-0.64097 0.19861,-0.63934 0.19863,-0.63399 0.19861,-0.62866 0.19866,-0.62789 0.19863,-0.62234 0.19861,-0.61794 0.19866,-0.6123 0.19859,-0.60778 0.19865,-0.60531 0.19864,-0.59838 0.19861,-0.59359 0.19866,-0.58983 0.19859,-0.58486 0.19864,-0.57675 0.19865,-0.57373 0.19861,-0.56857 0.19864,-0.56238 0.19862,-0.55607 0.19864,-0.55172 0.19863,-0.54438 0.19862,-0.54172 0.19864,-0.53243 0.19861,-0.52861 0.19865,-0.5211 0.19864,-0.51624 0.19862,-0.50863 0.19864,-0.5036 0.1986,-0.49678 0.19865,-0.48989 0.19864,-0.48379 0.19861,-0.47603 0.19865,-0.47139 0.19859,-0.46271 0.19864,-0.45637 0.19866,-0.44924 0.19861,-0.44273 0.19863,-0.43619 0.19863,-0.42885 0.19864,-0.42007 0.19862,-0.41612 0.19862,-0.40654 0.19864,-0.39843 0.19863,-0.39216 0.19864,-0.38454 0.19863,-0.37689 0.19861,-0.36858 0.19864,-0.3609 0.19861,-0.35426 0.19865,-0.34587 0.19864,-0.338 0.19861,-0.33063 0.19866,-0.32161 0.19859,-0.31417 0.19864,-0.30515 0.19865,-0.29713 0.19861,-0.29046 0.19865,-0.28137 0.19862,-0.27322 0.19863,-0.26502 0.19864,-0.25633 0.19861,-0.24808 0.19864,-0.23976 0.19862,-0.23066 0.19864,-0.22342 0.19864,-0.21392 0.19861,-0.20552 0.19864,-0.19641 0.19861,-0.18857 0.19865,-0.1797 0.19864,-0.17091 0.19861,-0.16257 0.19864,-0.15369 0.1986,-0.14457 0.19866,-0.13593 0.19864,-0.12704 0.19861,-0.11815 0.19865,-0.10961 0.19861,-0.10051 0.19862,-0.09159 0.19866,-0.0828 0.1986,-0.07407 0.19864,-0.06487 0.19863,-0.05603 0.19864,-0.04693 0.19864,-0.03814 0.1986,-0.02906 0.19864,-0.02017 0.19861,-0.0112 0.19865,-0.00224 0.19864,0.00673 0.19861,0.01565 0.19864,0.02466 0.19861,0.03365 0.19865,0.04245 0.19864,0.05154 0.19861,0.0604 0.19866,0.06948 0.19859,0.07845 0.19863,0.08696 0.19866,0.09621 0.19861,0.1053 0.19864,0.11351 0.19862,0.123 0.19864,0.13129 0.19863,0.14013 0.19862,0.14897 0.19864,0.15787 0.19862,0.16701 0.19864,0.17529 0.19864,0.18413 0.19861,0.19263 0.19863,0.20113 0.19861,0.20953 0.19866,0.21901 0.19864,0.22706 0.19861,0.23503 0.19865,0.24413 0.19859,0.2516 0.19864,0.26108 0.19866,0.26933 0.19861,0.27709 0.19863,0.28614 0.19863,0.29287 0.19862,0.30136 0.19865,0.31041 0.19861,0.3179 0.19864,0.32638 0.19863,0.33269 0.19864,0.34163 0.19863,0.35118 0.19861,0.3573 0.19864,0.36563 0.19861,0.37212 0.19865,0.38104 0.19864,0.38739 0.19861,0.39626 0.19866,0.40316 0.19859,0.40996 0.19864,0.41809 0.19865,0.42481 0.19861,0.43216 0.19865,0.43946 0.19859,0.44597 0.19865,0.45395 0.19865,0.46034 0.19861,0.46509 0.19864,0.47451 0.19862,0.4799 0.19864,0.48602 0.19862,0.4946 0.19863,0.4989 0.19864,0.50655 0.1986,0.51332 0.19866,0.51733 0.19864,0.52576 0.1986,0.53146 0.19865,0.53423 0.1986,0.54544 0.19866,0.54709 0.19864,0.55342 0.19861,0.55971 0.19865,0.56596 0.19859,0.56914 0.19864,0.5773 0.19866,0.58028 0.1986,0.58625 0.19864,0.59224 0.19863,0.59708 0.19863,0.60184 0.19863,0.60545 0.19862,0.61115 0.19864,0.61569 0.19861,0.62018 0.19865,0.62336 0.19865,0.63002 0.1986,0.62958 0.19864,0.63725 0.19861,0.64136 0.19865,0.64417 0.19864,0.64932 0.19861,0.65071 0.19865,0.65451 0.1986,0.66199 0.19864,0.66057 0.19865,0.66667 0.19861,0.67016 0.19864,0.66968 0.19862,0.6756 0.19864,0.67888 0.19862,0.67804 0.19863,0.68654 0.19864,0.68551 0.19862,0.68431 0.19864,0.6941 0.19864,0.68992 0.19861,0.69403 0.19864,0.70096 0.1986,0.69493 0.19866,0.70175 0.19864,0.70417 0.19859,0.70065 0.19865,0.70434 0.19862,0.70655 0.19863,0.70712 0.19866,0.71066 0.19861,0.70654 0.19863,0.70994 0.19863,0.71481 0.19862,0.71033 0.19866,0.7104 0.1986,0.71355 0.19864,0.71023 0.19862,0.71323 0.19865,0.71457 0.19863,0.71424 0.19861,0.71541 0.19864,0.70841 0.19861,0.71266 0.19866,0.71358 0.19863,0.70953 0.1986,0.70523 0.19865,0.71605 0.19861,0.70491 0.19864,0.70716 0.19865,0.70932 0.19861,0.70294 0.19865,0.70494 0.1986,0.69832 0.19864,0.70373 0.19865,0.70035 0.19861,0.69688 0.19864,0.69153 0.19862,0.70038 0.19864,0.6859 0.19862,0.69104 0.19863,0.69073 0.19864,0.67768 0.1986,0.68084 0.19866,0.6803 0.19864,0.6742 0.19861,0.6735 0.19864,0.67095 0.1986,0.66267 0.19866,0.66742 0.19864,0.65708 0.19861,0.65792 0.19865,0.65499 0.19859,0.64622 0.19864,0.64691 0.19866,0.64565 0.1986,0.6308 0.19864,0.63713 0.19861,0.62982 0.19864,0.6205 0.19864,0.62474 0.19862,0.6152 0.19864,0.61156 0.19863,0.61368 0.19863,0.59601 0.19863,0.59602 0.19862,0.59804 0.19864,0.58601 0.19861,0.58391 0.19865,0.57571 0.19864,0.5694 0.19861,0.57123 0.19865,0.55871 0.1986,0.55224 0.19864,0.55384 0.19865,0.54111 0.19861,0.53853 0.19864,0.53593 0.19861,0.52291 0.19864,0.51812 0.19865,0.51743 0.19861,0.50623 0.19864,0.50546 0.19862,0.49415 0.19864,0.48488 0.19862,0.48606 0.19863,0.47236 0.19864,0.46932 0.1986,0.46826 0.19866,0.45015 0.19864,0.44685 0.19859,0.44787 0.19865,0.42518 0.19861,0.43039 0.19864,0.42052 0.19866,0.40623 0.1986,0.4092 0.19866,0.39477 0.19859,0.38691 0.19864,0.38973 0.19865,0.36864 0.19861,0.36711 0.19864,0.36774 0.19863,0.34428 0.19863,0.3492 0.19863,0.33656 0.19862,0.32166 0.19864,0.32213 0.19861,0.31161 0.19865,0.30094 0.19864,0.30357 0.1986,0.28406 0.19865,0.27993 0.19861,0.27587 0.19865,0.25616 0.19864,0.25868 0.19861,0.24781 0.19864,0.22798 0.19861,0.23268 0.19863,0.22173 0.19866,0.20851 0.19861,0.20865 0.19863,0.19316 0.19863,0.18432 0.19862,0.18675 0.19865,0.16211 0.19862,0.15998 0.19864,0.15558 0.1986,0.13536 0.19866,0.13545 0.19864,0.12421 0.19861,0.11076 0.19863,0.11304 0.19861,0.0973 0.19866,0.0905 0.19863,0.0838 0.1986,0.0679 0.19865,0.0611 0.19861,0.0589 0.19864,0.043 0.19866,0.034 0.1986,0.0317 0.19864,0.0136 0.19861,0.0136 h 0.19864 l 0.19864,-0.0136 0.19862,-0.0136 0.19864,-0.0317 0.19863,-0.034 0.19863,-0.043 0.19863,-0.0589 0.19862,-0.0611 0.19864,-0.0679 0.19861,-0.0838 0.19865,-0.0905 0.19864,-0.0927 0.1986,-0.11757 0.19865,-0.11076 0.19861,-0.12421 0.19864,-0.13545 0.19865,-0.13536 0.19861,-0.15786 0.19864,-0.1577 0.1986,-0.16211 0.19865,-0.18675 0.19865,-0.18432 0.19861,-0.19316 0.19864,-0.20865 0.19862,-0.20851 0.19863,-0.21724 0.19863,-0.2327 0.19863,-0.23245 0.19864,-0.25228 0.1986,-0.25198 0.19866,-0.25839 0.19864,-0.27587 0.19859,-0.27993 0.19865,-0.28406 0.19861,-0.30357 0.19864,-0.30094 0.19866,-0.31161 0.1986,-0.31992 0.19866,-0.32169 0.19859,-0.33874 0.19864,-0.34482 0.19866,-0.34866 0.1986,-0.36334 0.19864,-0.36715 0.19861,-0.373 0.19864,-0.38973 0.19864,-0.38691 0.19862,-0.39477 0.19864,-0.4092 0.19861,-0.40623 0.19865,-0.42052 0.19863,-0.4261 0.19861,-0.43378 0.19865,-0.44356 0.19861,-0.44685 0.19865,-0.45015 0.19864,-0.46826 0.19861,-0.46932 0.19864,-0.47236 0.19861,-0.48606 0.19864,-0.48488 0.19865,-0.49415 0.19861,-0.50546 0.19864,-0.50205 0.19861,-0.51744 0.19863,-0.52229 0.19864,-0.51877 0.19863,-0.54007 0.19864,-0.53648 0.19861,-0.53907 0.19865,-0.55793 0.19862,-0.55224 0.19863,-0.55871 0.19863,-0.5692 0.19861,-0.57143 0.19866,-0.57974 0.19864,-0.57988 0.19859,-0.58601 0.19865,-0.59804 0.19861,-0.59602 0.19864,-0.59601 0.19865,-0.61173 0.19862,-0.61351 0.19863,-0.61129 0.19861,-0.62476 0.19864,-0.62439 0.19864,-0.62982 0.19862,-0.63519 0.19864,-0.63274 0.19862,-0.64565 0.19864,-0.64502 0.19863,-0.64619 0.19862,-0.65691 0.19864,-0.65792 0.19861,-0.65332 0.19866,-0.66742 0.19863,-0.66643 0.19859,-0.66722 0.19866,-0.67723 0.19861,-0.67237 0.19864,-0.67666 0.19865,-0.68268 0.19859,-0.67951 0.19864,-0.69433 0.19863,-0.68924 0.19863,-0.68411 0.19866,-0.69858 0.19861,-0.69512 0.19864,-0.69514 0.19862,-0.70209 0.19862,-0.69678 0.19864,-0.70351 0.19863,-0.7067 0.19864,-0.69953 0.1986,-0.70935 0.19866,-0.70883 0.19864,-0.70662 0.19859,-0.71269 0.19865,-0.70859 0.19861,-0.70785 0.19864,-0.71526 0.19866,-0.71266 0.19859,-0.70841 0.19865,-0.71541 0.19861,-0.71424 0.19864,-0.71136 0.19865,-0.71484 0.19861,-0.71183 0.19864,-0.71196 0.19861,-0.71199 0.19864,-0.71033 0.19864,-0.71481 0.19862,-0.70994 0.19864,-0.70805 0.19861,-0.70915 0.19865,-0.70415 0.19862,-0.70655 0.19863,-0.70585 0.19864,-0.70358 0.19861,-0.7027 0.19865,-0.70175 0.19864,-0.69493 0.19859,-0.69952 0.19866,-0.69547 0.19861,-0.68992 0.19864,-0.69271 0.19865,-0.6857 0.19861,-0.68551 0.19864,-0.68518 0.19861,-0.6794 0.19863,-0.67888 0.19864,-0.67432 0.19863,-0.67096 0.19864,-0.67016 0.1986,-0.66667 0.19864,-0.66057 0.19864,-0.65949 0.19863,-0.65574 0.19863,-0.65075 0.19861,-0.65055 0.19866,-0.64298 0.19862,-0.64136 0.19861,-0.63725 0.19865,-0.63077 0.19861,-0.62768 0.19864,-0.6257 0.19865,-0.61791 0.19861,-0.61796 0.19864,-0.60892 0.19861,-0.60547 0.19864,-0.60405 0.19865,-0.59599 0.19861,-0.59333 0.19864,-0.58416 0.19861,-0.58033 0.19864,-0.57527 0.19864,-0.57321 0.19862,-0.56396 0.19864,-0.56171 0.19861,-0.55248 0.19865,-0.54803 0.19863,-0.54353 0.1986,-0.53614 0.19866,-0.53054 0.19861,-0.52578 0.19864,-0.51823 0.19865,-0.51157 0.19859,-0.50658 0.19866,-0.49975 0.19861,-0.4938 0.19863,-0.48769 0.19866,-0.47827 0.19861,-0.47455 0.19863,-0.46668 0.19861,-0.46034 0.19864,-0.45167 0.19864,-0.44825 0.19863,-0.438 0.19863,-0.4329 0.19861,-0.42481 0.19866,-0.41812 0.19862,-0.41065 0.19861,-0.40184 0.19865,-0.39628 0.19861,-0.38869 0.19866,-0.37979 0.19863,-0.37337 0.1986,-0.36563 0.19865,-0.3567 0.19861,-0.35065 0.19864,-0.34165 0.19865,-0.3338 0.19861,-0.32586 0.19863,-0.31792 0.19862,-0.30991 0.19864,-0.30139 0.19864,-0.29384 0.19862,-0.28614 0.19864,-0.27709 0.19861,-0.2689 0.19864,-0.26069 0.19864,-0.25203 0.19862,-0.24452 0.19864,-0.23578 0.1986,-0.22631 0.19866,-0.21831 0.19864,-0.21023 0.1986,-0.20081 0.19865,-0.19295 0.19861,-0.18384 0.19864,-0.17532 0.19865,-0.16675 0.19859,-0.15764 0.19864,-0.14972 0.19862,-0.14013 0.19864,-0.13109 0.19864,-0.12282 0.19862,-0.11389 0.19865,-0.10498 0.1986,-0.09622 0.19865,-0.08727 0.19863,-0.07845 0.19863,-0.06927 0.19864,-0.06052 0.1986,-0.05157 0.19866,-0.04251 0.19862,-0.03365 0.19861,-0.02466 0.19865,-0.01565 0.19861,-0.00673 0.19864,0.00224 0.19865,0.01119 0.1986,0.02011 0.19864,0.02913 0.19862,0.03808 0.19864,0.04699 0.19866,0.05603 0.1986,0.06477 0.19864,0.07393 0.19861,0.08262 0.19864,0.09186 0.19864,0.10033 0.19862,0.10957 0.19864,0.11832 0.19861,0.12724 0.19864,0.13593 0.19864,0.14434 0.1986,0.15342 0.19866,0.16254 0.19861,0.17086 0.19864,0.1797 0.19865,0.18853 0.19859,0.19703 0.19866,0.20552 0.19861,0.21392 0.19863,0.22267 0.19866,0.23141 0.19861,0.23976 0.19864,0.24769 0.1986,0.25631 0.19864,0.26499 0.19864,0.27273 0.19863,0.28183 0.19863,0.28998 0.1986,0.29662 0.19865,0.30661 0.19864,0.31366 0.19861,0.32212 0.19865,0.32953 0.19861,0.33855 0.19866,0.34528 0.19862,0.35424 0.19861,0.36084 0.19865,0.36919 0.19861,0.3775 0.19864,0.38327 0.19865,0.39343 0.19861,0.39774 0.19863,0.40723 0.19862,0.41473 0.19864,0.42075 0.19864,0.42811 0.19862,0.43691 0.19864,0.44122 0.19859,0.44994 0.19866,0.45791 0.19864,0.46271 0.19862,0.47061 0.19864,0.47681 0.19861,0.48215 0.19865,0.49071 0.19862,0.4976 0.19861,0.50186 0.19866,0.51037 0.19861,0.51444 0.19863,0.52199 0.19866,0.52769 0.19859,0.53237 0.19864,0.5417 0.19862,0.54629 0.19864,0.54975 0.19864,0.55804 0.19863,0.56238 0.19863,0.56755 0.19861,0.57269 0.19864,0.57881 0.19864,0.58486 0.19862,0.58983 0.19864,0.59143 0.19861,0.59837 0.19866,0.60748 0.19862,0.60665 0.19861,0.61343 0.19865,0.61794 0.19861,0.6212 0.19864,0.62669 0.19865,0.62863 0.1986,0.63399 0.19865,0.64171 0.19861,0.64097 0.19864,0.64733 0.19865,0.65253 0.1986,0.65013 0.19863,0.65887 0.19863,0.65875 0.19864,0.66359 0.19864,0.66971 0.19862,0.66927 0.19864,0.67396 0.19861,0.67858 0.19864,0.67647 0.19863,0.68229 0.19861,0.68942 0.19866,0.68154 0.19861,0.68849 0.19865,0.69272 0.19864,0.69267 0.19859,0.69537 0.19866,0.69936 0.1986,0.69762 0.19864,0.7044 0.19866,0.70096 0.19859,0.70325 0.19864,0.70692 0.19862,0.70459 0.19864,0.70813 0.19864,0.71164 0.19863,0.70751 0.19863,0.71235 0.19859,0.70951 0.19866,0.71112 0.19864,0.71431 0.19862,0.71269 0.19864,0.70938 0.19861,0.71548 0.19866,0.71199 0.19862,0.7132 0.19861,0.71759 0.19865,0.70891 0.19861,0.71149 0.19864,0.71237 0.19865,0.70991 0.19859,0.71063 0.19865,0.70627 0.19862,0.71028 0.19864,0.7091 0.19864,0.70444 0.19862,0.70136 0.19864,0.70861 0.19861,0.69665 0.19864,0.70206 0.19864,0.69865 0.19862,0.68979 0.19864,0.69859 0.19859,0.69495 0.19865,0.68754 0.19864,0.69094 0.19861,0.68332 0.19865,0.68106 0.19862,0.6824 0.19863,0.67452 0.19865,0.67199 0.1986,0.67687 0.19864,0.6631 0.19862,0.666 0.19864,0.66316 0.19866,0.65657 0.19861,0.65554 0.19863,0.65063 0.19861,0.64748 0.19864,0.6463 0.19864,0.63727 0.19862,0.63395 0.19864,0.63643 0.1986,0.62516 0.19865,0.62361 0.19864,0.61999 0.19861,0.60846 0.19865,0.61261 0.19861,0.60487 0.19864,0.59899 0.19864,0.59701 0.19861,0.58704 0.19865,0.58496 0.19861,0.58888 0.19864,0.56853 0.19865,0.56628 0.1986,0.56801 0.19863,0.55545 0.19863,0.55512 0.19864,0.54854 0.19864,0.53776 0.19862,0.53725 0.19864,0.53045 0.19859,0.51949 0.19866,0.52089 0.19863,0.50766 0.19861,0.50484 0.19866,0.50401 0.1986,0.48422 0.19866,0.4897 0.19862,0.47819 0.19861,0.46871 0.19866,0.46771 0.1986,0.46027 0.19865,0.44853 0.19865,0.44948 0.19859,0.43335 0.19864,0.43207 0.19862,0.42653 0.19864,0.41014 0.19864,0.40883 0.19862,0.40306 0.19863,0.39087 0.19861,0.3872 0.19865,0.3792 0.19864,0.36899 0.19862,0.36964 0.19865,0.35051 0.1986,0.34894 0.19864,0.34509 0.19864,0.32802 0.19861,0.31969 0.19865,0.3246 0.19861,0.29852 0.19864,0.3056 0.19865,0.29495 0.1986,0.27756 0.19863,0.27347 0.19863,0.2693 0.19864,0.25412 0.19864,0.25881 0.1986,0.23903 0.19864,0.23256 0.19863,0.22835 0.19864,0.21284 0.19864,0.20412 0.19862,0.20654 0.19864,0.18422 0.19859,0.18668 0.19866,0.17329 0.19863,0.15991 0.19861,0.16004 0.19866,0.14208 0.1986,0.13768 0.19864,0.1355 0.19864,0.11296 0.19861,0.11075 0.19864,0.10859 0.19863,0.0905 0.19863,0.086 0.19866,0.0792 0.19859,0.0589 0.19864,0.0657 0.19862,0.0499 0.19864,0.0363 0.19864,0.0363 0.19862,0.0204 0.19864,0.0136 0.1986,0.009" style="fill:none;stroke:#1192e8;stroke-width:0.79701;stroke-linecap:butt;stroke-linejoin:miter;stroke-miterlimit:10;stroke-dasharray:none;stroke-opacity:1" transform="matrix(1.6666667,0,0,-1.6666667,143.01333,254.97733)" />
    <path id="path30" d="M 0,0 0.19862,0.00446 0.39725,0.01791 0.59589,0.04031 0.79451,0.0716 0.99313,0.11192 1.19177,0.1613 1.3904,0.2194 1.58902,0.28664 1.78766,0.36272 1.98628,0.44774 2.1849,0.5417 2.38354,0.6446 2.58217,0.7559 2.78079,0.87646 2.97943,1.00572 3.17805,1.14363 3.3767,1.29088 3.57532,1.44655 3.77394,1.61107 3.97258,1.78415 4.1712,1.96577 4.36984,2.15651 4.56847,2.35544 4.7671,2.56277 4.96573,2.77957 5.16437,3.00444 5.36299,3.23804 5.56161,3.4792 5.76025,3.72986 5.95888,3.98837 6.1575,4.25554 6.35614,4.53049 6.55476,4.814 6.7534,5.10567 6.95203,5.40442 7.15065,5.7132 7.34929,6.02898 7.54791,6.3527 7.74654,6.6849 7.94518,7.02559 8.1438,7.37299 8.34242,7.72878 8.54106,8.09172 8.7397,8.463 8.93831,8.84134 9.13696,9.22795 9.33559,9.6215 l 0.19862,0.40182 0.19864,0.40792 0.19862,0.41608 0.19864,0.42206 0.19863,0.43088 0.19862,0.4389 0.19864,0.44403 0.19862,0.45117 0.19863,0.45838 0.19863,0.46469 0.19863,0.47257 0.19862,0.47796 0.19864,0.48408 0.19863,0.4935 0.19862,0.49701 0.19864,0.50551 0.19862,0.51053 0.19862,0.51634 0.19866,0.52391 0.19861,0.52956 0.19865,0.53427 0.19862,0.54262 0.19863,0.5462 0.19863,0.55358 0.19863,0.55789 0.19862,0.56219 0.19865,0.57138 0.19862,0.57553 0.19862,0.57644 0.19864,0.58662 0.19862,0.59157 0.19863,0.5932 0.19864,0.60229 0.19862,0.60594 0.19862,0.60723 0.19864,0.61625 0.19863,0.61736 0.19863,0.62286 0.19863,0.63073 0.19862,0.62675 0.19866,0.63683 0.1986,0.63975 0.19864,0.64501 0.19864,0.64651 0.19863,0.65164 0.19862,0.65294 0.19864,0.65915 0.19862,0.66159 0.19863,0.66258 0.19863,0.66991 0.19863,0.66948 0.19862,0.67544 0.19864,0.6814 0.19864,0.67661 0.19862,0.6824 0.19864,0.68542 0.1986,0.68567 0.19865,0.69129 0.19864,0.69275 0.19861,0.69267 0.19865,0.69816 0.19861,0.69501 0.19864,0.70041 0.19864,0.70574 0.1986,0.7008 0.19864,0.70305 0.19863,0.70677 0.19863,0.70587 0.19865,0.70787 0.1986,0.70835 0.19865,0.71022 0.19862,0.71361 0.19864,0.71069 0.19864,0.70921 0.1986,0.71547 0.19864,0.7107 0.19861,0.71209 0.19865,0.71668 0.19864,0.70988 0.19861,0.7143 0.19865,0.71382 0.19861,0.70993 0.19863,0.7142 0.19866,0.71013 0.1986,0.7076 0.19864,0.71164 0.19862,0.70895 0.19864,0.70788 0.19866,0.71178 0.19859,0.70029 0.19864,0.7023 0.19862,0.70781 0.19864,0.69755 0.19864,0.69945 0.19861,0.69954 0.19864,0.69423 0.19861,0.69595 0.19865,0.6904 0.19864,0.68842 0.19861,0.69173 0.19865,0.68234 0.1986,0.68002 0.19863,0.68322 0.19866,0.66976 0.19861,0.67459 0.19865,0.67395 0.19861,0.66382 0.19864,0.66668 0.19864,0.65827 0.1986,0.65723 0.19864,0.65622 0.19862,0.64557 0.19865,0.64815 0.19864,0.64888 0.19861,0.63403 0.19863,0.63458 0.19861,0.6331 0.19866,0.62187 0.19863,0.62417 0.19861,0.62059 0.19866,0.61097 0.19859,0.60921 0.19865,0.60341 0.19864,0.59752 0.19861,0.60155 0.19866,0.58154 0.19859,0.58342 0.19864,0.58128 0.19865,0.56494 0.19861,0.57485 0.19864,0.56232 0.19862,0.55387 0.19864,0.55344 0.19863,0.54689 0.19862,0.53403 0.19864,0.5397 0.19861,0.52254 0.19865,0.524 0.19864,0.52123 0.19862,0.50177 0.19864,0.5072 0.1986,0.50016 0.19865,0.48668 0.19864,0.48151 0.19861,0.47849 0.19865,0.46688 0.19859,0.47008 0.19864,0.45203 0.19866,0.44659 0.19861,0.45191 0.19863,0.42926 0.19863,0.43232 0.19864,0.42245 0.19862,0.40817 0.19862,0.40901 0.19864,0.40112 0.19863,0.38667 0.19864,0.38958 0.19863,0.37503 0.19861,0.36694 0.19864,0.36763 0.19861,0.34848 0.19865,0.34685 0.19864,0.34303 0.19861,0.32594 0.19866,0.31985 0.19859,0.31808 0.19864,0.29866 0.19865,0.30346 0.19861,0.2884 0.19865,0.27763 0.19862,0.27798 0.19863,0.265 0.19864,0.25189 0.19861,0.25889 0.19864,0.23242 0.19862,0.22816 0.19864,0.22837 0.19864,0.21069 0.19861,0.20415 0.19864,0.19982 0.19861,0.18879 0.19865,0.18446 0.19864,0.16431 0.19861,0.16221 0.19864,0.15778 0.1986,0.1376 0.19866,0.13544 0.19864,0.13327 0.19861,0.11299 0.19865,0.11078 0.19861,0.10405 0.19862,0.086 0.19866,0.086 0.1986,0.0725 0.19864,0.0657 0.19863,0.0589 0.19864,0.0453 0.19864,0.034 0.1986,0.0431 0.19864,0.0114 0.19861,0.0113 0.19865,0.007 0.19864,-0.0136 0.19861,-0.0136 0.19864,-0.0227 0.19861,-0.0386 0.19865,-0.0385 0.19864,-0.0521 0.19861,-0.0657 0.19866,-0.0611 0.19859,-0.0861 0.19863,-0.0837 0.19866,-0.0928 0.19861,-0.11079 0.19864,-0.11303 0.19862,-0.12199 0.19864,-0.13319 0.19863,-0.13767 0.19862,-0.1488 0.19864,-0.16228 0.19862,-0.15761 0.19864,-0.18231 0.19864,-0.18434 0.19861,-0.18646 0.19863,-0.20873 0.19861,-0.20854 0.19866,-0.21504 0.19864,-0.23276 0.19861,-0.22804 0.19865,-0.24118 0.19859,-0.25878 0.19864,-0.25622 0.19866,-0.27147 0.19861,-0.27783 0.19863,-0.27747 0.19863,-0.3037 0.19862,-0.30105 0.19865,-0.30728 0.19861,-0.32006 0.19864,-0.32182 0.19863,-0.33227 0.19864,-0.34937 0.19863,-0.34659 0.19861,-0.35913 0.19864,-0.36728 0.19861,-0.3688 0.19865,-0.38338 0.19864,-0.38707 0.19861,-0.39064 0.19866,-0.40726 0.19859,-0.41292 0.19864,-0.4121 0.19865,-0.42847 0.19861,-0.4297 0.19865,-0.44165 0.19859,-0.44927 0.19865,-0.44823 0.19865,-0.46215 0.19861,-0.46955 0.19864,-0.46634 0.19862,-0.48636 0.19864,-0.48518 0.19862,-0.48813 0.19863,-0.50583 0.19864,-0.50447 0.1986,-0.51361 0.19866,-0.52054 0.19864,-0.52121 0.1986,-0.53424 0.19865,-0.53685 0.1986,-0.53534 0.19866,-0.55632 0.19864,-0.55468 0.19861,-0.553 0.19865,-0.57167 0.19859,-0.56988 0.19864,-0.5721 0.19866,-0.5844 0.1986,-0.58647 0.19864,-0.58858 0.19863,-0.60049 0.19863,-0.59453 0.19863,-0.61226 0.19862,-0.61009 0.19864,-0.60991 0.19861,-0.62532 0.19865,-0.62495 0.19865,-0.62459 0.1986,-0.6358 0.19864,-0.6353 0.19861,-0.63666 0.19865,-0.64948 0.19864,-0.64685 0.19861,-0.65187 0.19865,-0.65863 0.1986,-0.65211 0.19864,-0.66816 0.19865,-0.66336 0.19861,-0.668 0.19864,-0.6761 0.19862,-0.67126 0.19864,-0.67745 0.19862,-0.68162 0.19863,-0.6821 0.19864,-0.68614 0.19862,-0.69008 0.19864,-0.68851 0.19864,-0.69411 0.19861,-0.69421 0.19864,-0.69601 0.1986,-0.70128 0.19866,-0.69939 0.19864,-0.70096 0.19859,-0.70422 0.19865,-0.70215 0.19862,-0.70691 0.19863,-0.70985 0.19866,-0.70757 0.19861,-0.71199 0.19863,-0.7063 0.19863,-0.70887 0.19862,-0.71466 0.19866,-0.71372 0.1986,-0.70779 0.19864,-0.71816 0.19862,-0.71211 0.19865,-0.71248 0.19863,-0.71277 0.19861,-0.71142 0.19864,-0.71314 0.19861,-0.7131 0.19866,-0.70689 0.19863,-0.71603 0.1986,-0.70807 0.19865,-0.70931 0.19861,-0.71192 0.19864,-0.70839 0.19865,-0.70186 0.19861,-0.70713 0.19865,-0.70342 0.1986,-0.70254 0.19864,-0.70453 0.19865,-0.69341 0.19861,-0.69806 0.19864,-0.69681 0.19862,-0.69131 0.19864,-0.69414 0.19862,-0.68571 0.19863,-0.6856 0.19864,-0.68663 0.1986,-0.68081 0.19866,-0.67769 0.19864,-0.67711 0.19861,-0.66986 0.19864,-0.67036 0.1986,-0.66822 0.19866,-0.65956 0.19864,-0.66226 0.19861,-0.65733 0.19865,-0.64983 0.19859,-0.65096 0.19864,-0.64697 0.19866,-0.64056 0.1986,-0.64009 0.19864,-0.62885 0.19861,-0.63171 0.19864,-0.62621 0.19864,-0.61841 0.19862,-0.6174 0.19864,-0.61284 0.19863,-0.60496 0.19863,-0.60468 0.19863,-0.59884 0.19862,-0.59188 0.19864,-0.58805 0.19861,-0.58309 0.19865,-0.57701 0.19864,-0.57297 0.19861,-0.56578 0.19865,-0.55957 0.1986,-0.5572 0.19864,-0.54796 0.19865,-0.54634 0.19861,-0.53704 0.19864,-0.53056 0.19861,-0.52858 0.19864,-0.51922 0.19865,-0.51523 0.19861,-0.50674 0.19864,-0.50254 0.19862,-0.49483 0.19864,-0.4888 0.19862,-0.48184 0.19863,-0.47484 0.19864,-0.46864 0.1986,-0.4592 0.19866,-0.45827 0.19864,-0.44717 0.19859,-0.44002 0.19865,-0.43344 0.19861,-0.42757 0.19864,-0.42012 0.19866,-0.41132 0.1986,-0.40522 L 89.97928,9.42305 90.17787,9.0336 90.37651,8.6505 90.57516,8.2763 90.77377,7.90918 90.97241,7.551 91.17104,7.19766 91.36967,6.8539 91.5683,6.51802 91.76692,6.19057 91.96556,5.86949 92.16417,5.55798 92.36282,5.25447 92.56146,4.95947 92.76006,4.67116 92.95871,4.39194 93.15732,4.12086 93.35597,3.85803 93.55461,3.60385 93.75322,3.35794 93.95186,3.11995 94.15047,2.8911 94.3491,2.67058 94.54776,2.4585 94.74637,2.25487 94.945,2.06035 95.14363,1.8743 95.34225,1.69678 95.5409,1.52808 95.73952,1.36748 95.93816,1.21602 96.13676,1.07388 96.33542,0.93997 96.53406,0.81535 96.73267,0.69942 96.9313,0.59187 97.12991,0.4936 97.32857,0.40422 97.5272,0.32379 97.7258,0.25206 97.92445,0.18929 98.12306,0.13557 98.3217,0.09073 98.52036,0.05487 98.71896,0.02802 98.9176,0.01007 99.11621,0.0011 l 0.19864,-2e-5 0.19864,0.00899 0.19862,0.01795 0.19864,0.02679 0.19863,0.03579 0.19863,0.04482 0.19863,0.05358 0.19862,0.06274 0.19864,0.07156 0.19861,0.08081 0.19865,0.08919 0.19864,0.09857 0.1986,0.10683 0.19865,0.11665 0.19861,0.12462 0.19864,0.13349 0.19865,0.14256 0.19861,0.15146 0.19864,0.16008 0.1986,0.16867 0.19865,0.17779 0.19865,0.18633 0.19861,0.19452 0.19864,0.20363 0.19862,0.21176 0.19863,0.22049 0.19863,0.2292 0.19863,0.23721 0.19864,0.24547 0.1986,0.25499 0.19866,0.26283 0.19864,0.27103 0.19859,0.27924 0.19865,0.28782 0.19861,0.29544 0.19864,0.3035 0.19866,0.31201 0.1986,0.32004 0.19866,0.32796 0.19859,0.33586 0.19864,0.34375 0.19866,0.3527 0.1986,0.3588 0.19864,0.36711 0.19861,0.37479 0.19864,0.3831 0.19864,0.38945 0.19862,0.39833 0.19864,0.40454 0.19861,0.412 0.19865,0.42012 0.19863,0.42614 0.19861,0.43487 0.19865,0.44002 0.19861,0.44717 0.19865,0.45594 0.19864,0.46153 0.19861,0.46864 0.19864,0.47484 0.19861,0.48103 0.19864,0.48961 0.19865,0.49483 0.19861,0.50082 0.19864,0.50846 0.19861,0.51344 0.19863,0.52101 0.19864,0.52674 0.19863,0.53147 0.19864,0.53891 0.19861,0.54444 0.19865,0.54892 0.19862,0.55523 0.19863,0.56154 0.19863,0.56578 0.19861,0.57297 0.19866,0.57701 0.19864,0.581 0.19859,0.58802 0.19865,0.594 0.19861,0.59666 0.19864,0.60576 0.19865,0.60606 0.19862,0.6106 0.19863,0.61739 0.19861,0.61951 0.19864,0.62736 0.19864,0.62934 0.19862,0.63122 0.19864,0.64009 0.19862,0.64179 0.19864,0.64454 0.19863,0.65216 0.19862,0.64983 0.19864,0.65605 0.19861,0.65976 0.19866,0.66078 0.19863,0.6682 0.19859,0.67294 0.19866,0.66986 0.19861,0.67711 0.19864,0.67769 0.19865,0.68081 0.19859,0.68663 0.19864,0.68284 0.19863,0.68847 0.19863,0.69272 0.19866,0.6899 0.19861,0.6954 0.19864,0.69946 0.19862,0.69625 0.19862,0.70453 0.19864,0.70111 0.19863,0.70338 0.19864,0.7086 0.1986,0.70186 0.19866,0.70839 0.19864,0.71192 0.19859,0.70625 0.19865,0.71113 0.19861,0.71448 0.19864,0.70844 0.19866,0.71154 0.19859,0.7147 0.19865,0.71142 0.19861,0.71277 0.19864,0.71411 0.19865,0.71048 0.19861,0.71649 0.19864,0.70946 0.19861,0.71205 0.19864,0.713 0.19864,0.70886 0.19862,0.70964 0.19864,0.71199 0.19861,0.7059 0.19865,0.70812 0.19862,0.70862 0.19863,0.70041 0.19864,0.70765 0.19861,0.69747 0.19865,0.70288 0.19864,0.70128 0.19859,0.69247 0.19866,0.69775 0.19861,0.69411 0.19864,0.68851 0.19865,0.69008 0.19861,0.68251 0.19864,0.68024 0.19861,0.68711 0.19863,0.67745 0.19864,0.66939 0.19863,0.67427 0.19864,0.66795 0.1986,0.66711 0.19864,0.66816 0.19864,0.65211 0.19863,0.65483 0.19863,0.65375 0.19861,0.64494 0.19866,0.64946 0.19862,0.64244 0.19861,0.63337 0.19865,0.63386 0.19861,0.62653 0.19864,0.62495 0.19865,0.62532 0.19861,0.60991 0.19864,0.61009 0.19861,0.60826 0.19864,0.59853 0.19865,0.60049 0.19861,0.58858 0.19864,0.58647 0.19861,0.5844 0.19864,0.5721 0.19864,0.56782 0.19862,0.57373 0.19864,0.553 0.19861,0.55468 0.19865,0.55428 0.19863,0.53738 0.1986,0.53685 0.19866,0.53218 0.19861,0.52327 0.19864,0.52054 0.19865,0.51361 0.19859,0.50029 0.19866,0.5058 0.19861,0.49234 0.19863,0.48518 0.19866,0.48424 0.19861,0.46846 0.19863,0.46742 0.19861,0.46428 0.19864,0.44823 0.19864,0.45137 0.19863,0.43955 0.19863,0.4254 0.19861,0.43277 0.19866,0.4121 0.19862,0.40859 0.19861,0.41159 0.19865,0.38629 0.19861,0.38923 0.19866,0.38773 0.19863,0.36664 0.1986,0.36728 0.19865,0.35913 0.19861,0.34659 0.19864,0.34937 0.19865,0.32788 0.19861,0.32398 0.19863,0.32229 0.19862,0.30728 0.19864,0.30105 0.19864,0.30149 0.19862,0.27746 0.19864,0.27782 0.19861,0.27148 0.19864,0.25844 0.19864,0.25431 0.19862,0.24118 0.19864,0.23698 0.1986,0.22829 0.19866,0.21504 0.19864,0.20854 0.1986,0.20873 0.19865,0.18872 0.19861,0.18658 0.19864,0.17781 0.19865,0.16211 0.19859,0.15778 0.19864,0.15107 0.19862,0.13088 0.19864,0.13771 0.19864,0.12426 0.19862,0.11076 0.19865,0.11079 0.1986,0.0882 0.19865,0.0906 0.19863,0.0838 0.19863,0.0611 0.19864,0.0657 0.1986,0.0521 0.19866,0.0385 0.19862,0.0386 0.19861,0.0227 0.19865,0.0136 0.19861,0.0136 0.19864,-0.007 0.19865,-0.0113 0.1986,-0.0114 0.19864,-0.0431 0.19862,-0.034 0.19864,-0.0453 0.19866,-0.0589 0.1986,-0.0657 0.19864,-0.0725 0.19861,-0.086 0.19864,-0.086 0.19864,-0.10405 0.19862,-0.11078 0.19864,-0.11299 0.19861,-0.13327 0.19864,-0.13544 0.19864,-0.1376 0.1986,-0.15778 0.19866,-0.16221 0.19861,-0.16881 0.19864,-0.18446 0.19865,-0.18429 0.19859,-0.19532 0.19866,-0.20865 0.19861,-0.21293 0.19863,-0.22166 0.19866,-0.2371 0.19861,-0.22795 0.19864,-0.25443 0.1986,-0.2586 0.19864,-0.25831 0.19864,-0.278 0.19863,-0.28205 0.19863,-0.2884 0.1986,-0.29904 0.19865,-0.30308 0.19864,-0.31808 0.19861,-0.31985 0.19865,-0.32373 0.19861,-0.34524 0.19866,-0.34467 0.19862,-0.35066 0.19861,-0.36763 0.19865,-0.36694 0.19861,-0.37503 0.19864,-0.38958 0.19865,-0.38667 0.19861,-0.39677 0.19863,-0.41118 0.19862,-0.40819 0.19864,-0.42461 0.19864,-0.43017 0.19862,-0.42713 0.19864,-0.4519 0.19859,-0.45088 0.19866,-0.45203 0.19864,-0.47008 0.19862,-0.46264 0.19864,-0.48273 0.19861,-0.48573 0.19865,-0.48458 0.19862,-0.49804 0.19861,-0.5072 0.19866,-0.50177 0.19861,-0.51919 0.19863,-0.524 0.19866,-0.52458 0.19859,-0.53557 0.19864,-0.53816 0.19862,-0.54275 0.19864,-0.55758 0.19864,-0.55181 0.19863,-0.56438 0.19863,-0.5708 0.19861,-0.56899 0.19864,-0.58128 0.19864,-0.58342 0.19862,-0.58554 0.19864,-0.59755 0.19861,-0.59752 0.19866,-0.60141 0.19862,-0.61514 0.19861,-0.60704 0.19865,-0.61667 0.19861,-0.62809 0.19864,-0.62187 0.19865,-0.63116 0.1986,-0.6346 0.19865,-0.63595 0.19861,-0.64695 0.19864,-0.64627 0.19865,-0.64557 0.1986,-0.66003 0.19863,-0.65346 0.19863,-0.66204 0.19864,-0.66483 0.19864,-0.66567 0.19862,-0.67207 0.19864,-0.67647 0.19861,-0.66976 0.19864,-0.68322 0.19863,-0.68002 0.19861,-0.68234 0.19866,-0.69173 0.19861,-0.68842 0.19865,-0.6904 0.19864,-0.69595 0.19859,-0.69246 0.19866,-0.69778 0.1986,-0.70298 0.19864,-0.69755 0.19866,-0.70438 0.19859,-0.70573 0.19864,-0.70029 0.19862,-0.7101 0.19864,-0.70956 0.19864,-0.70559 0.19863,-0.71168 0.19863,-0.71092 0.19859,-0.71013 0.19866,-0.7142 0.19864,-0.70667 0.19862,-0.71383 0.19864,-0.71755 0.19861,-0.70668 0.19866,-0.71828 0.19862,-0.71369 0.19861,-0.7107 0.19865,-0.71547 0.19861,-0.70921 0.19864,-0.70763 0.19865,-0.7136 0.19859,-0.71176 0.19865,-0.70836 0.19862,-0.70939 0.19864,-0.70587 0.19864,-0.70677 0.19862,-0.70305 0.19864,-0.69934 0.19861,-0.7072 0.19864,-0.69896 0.19864,-0.69646 0.19862,-0.69816 0.19864,-0.69267 0.19859,-0.68997 0.19865,-0.69132 0.19864,-0.6857 0.19861,-0.68814 0.19865,-0.6824 0.19862,-0.67928 0.19863,-0.67609 0.19865,-0.67547 0.1986,-0.66947 0.19864,-0.67124 0.19862,-0.66387 0.19864,-0.65906 0.19866,-0.66043 0.19861,-0.65172 0.19863,-0.65165 0.19861,-0.64897 0.19864,-0.6426 0.19864,-0.64216 0.19862,-0.63564 0.19864,-0.62794 0.1986,-0.62957 0.19865,-0.62288 0.19864,-0.6185 0.19861,-0.61512 0.19865,-0.60836 0.19861,-0.60594 0.19864,-0.60122 0.19864,-0.59427 0.19861,-0.59052 0.19865,-0.58558 0.19861,-0.57853 0.19864,-0.57553 0.19865,-0.56839 0.1986,-0.56518 0.19863,-0.55789 0.19863,-0.5526 0.19864,-0.54622 0.19864,-0.54169 0.19862,-0.5343 0.19864,-0.53053 0.19859,-0.52388 0.19866,-0.51726 0.19863,-0.50966 0.19861,-0.50638 0.19866,-0.49701 0.1986,-0.49264 0.19866,-0.48494 0.19862,-0.47716 0.19861,-0.47337 0.19866,-0.46391 0.1986,-0.45916 0.19865,-0.45117 0.19865,-0.44328 0.19859,-0.43895 0.19864,-0.43013 0.19862,-0.42281 0.19864,-0.41678 0.19864,-0.40792 0.19862,-0.40182 0.19863,-0.39355 0.19861,-0.38661 0.19865,-0.37772 0.19864,-0.37129 0.19862,-0.3624 0.19865,-0.35694 0.1986,-0.34856 0.19864,-0.33843 0.19864,-0.33274 0.19861,-0.32428 0.19865,-0.31476 0.19861,-0.30831 0.19864,-0.30024 0.19865,-0.29167 0.1986,-0.28351 0.19863,-0.27495 0.19863,-0.26674 0.19864,-0.25853 0.19864,-0.25027 0.1986,-0.24196 0.19864,-0.2336 0.19863,-0.22415 0.19864,-0.21683 0.19864,-0.20738 0.19862,-0.19927 0.19864,-0.19073 0.19859,-0.18137 0.19866,-0.17311 0.19863,-0.16479 0.19861,-0.15544 0.19866,-0.1473 0.1986,-0.13794 0.19864,-0.12927 0.19864,-0.1206 0.19861,-0.11148 0.19864,-0.10308 0.19863,-0.09381 0.19863,-0.08491 0.19866,-0.07613 0.19859,-0.06734 0.19864,-0.05821 0.19862,-0.04916 0.19864,-0.04044 0.19864,-0.03139 0.19862,-0.02235 0.19864,-0.01349 L 198.43108,0" style="fill:none;stroke:#6929c4;stroke-width:0.79701;stroke-linecap:butt;stroke-linejoin:miter;stroke-miterlimit:10;stroke-dasharray:none;stroke-opacity:1" transform="matrix(1.6666667,0,0,-1.6666667,143.01333,254.97733)" />
    <path id="path31" d="m 3.8166563,-3.9086187 c 0,-1.003125 -0.384375,-1.696875 -1.040625,-1.696875 -1.190625,0 -2.42812505,2.2125 -2.42812505,3.984375 0,0.76874995 0.2625,1.70624995 1.05937505,1.70624995 1.1625,0 2.409375,-2.16562495 2.409375,-3.99374995 z m -2.56875,1.0125 c 0.375,-1.6125 1.021875,-2.49375 1.51875,-2.49375 0.478125,0 0.478125,0.853125 0.478125,1.003125 0,0.45 -0.140625,1.096875 -0.24375,1.490625 z m 1.6875,0.2625 c -0.375,1.603125 -1.03125,2.49374995 -1.528125,2.49374995 -0.42187505,0 -0.47812505,-0.6375 -0.47812505,-1.00312495 0,-0.50625 0.15937505,-1.153125 0.24375005,-1.490625 z m 0,0" style="fill:#121619;fill-opacity:1;fill-rule:nonzero;stroke:none" aria-label="" transform="matrix(1.6666667,0,0,1.6666667,304.885,297.30733)" />
    <path id="path32" d="m 4.0779938,-1.78175 c 0,-0.95625 -0.5250001,-1.8375 -1.3125,-1.8375 -0.35625,0 -0.95625,0.103125 -1.4156251,0.459375 v -0.375 H 0.67486875 v 5.08125 H 1.3686188 V -0.3755 c 0.421875,0.384375 0.88125,0.459375 1.1531249,0.459375 0.84375,0 1.5562501,-0.80625 1.5562501,-1.865625 z m -0.69375,0 c 0,0.796875 -0.590625,1.33125 -1.21875,1.33125 -0.121875,0 -0.31875,-0.009375 -0.525,-0.178125 -0.234375,-0.1875 -0.271875,-0.3 -0.271875,-0.459375 v -1.55625 c 0.1875,-0.225 0.4968749,-0.421875 0.88125,-0.421875 0.6375,0 1.134375,0.590625 1.134375,1.284375 z M 6.9022125,-3.028625 V -3.61925 c -0.665625,0.00937 -1.153125,0.3375 -1.471875,0.759375 v -0.73125 h -0.61875 V -5e-4 h 0.675 v -1.696875 c 0,-0.8625 0.7125,-1.321875 1.415625,-1.33125 z M 11.01315,-1.74425 c 0,-1.05 -0.834375,-1.9125 -1.875,-1.9125 -1.03125,0 -1.865625,0.8625 -1.865625,1.9125 0,1.0125 0.84375,1.828125 1.865625,1.828125 1.040625,0 1.875,-0.815625 1.875,-1.828125 z M 10.3194,-1.838 c 0,0.909375 -0.5625,1.36875 -1.18125,1.36875 -0.628125,0 -1.18125,-0.459375 -1.18125,-1.36875 0,-0.9 0.590625,-1.29375 1.18125,-1.29375 0.6,0 1.18125,0.4125 1.18125,1.29375 z m 5.020313,0.05625 c 0,-0.95625 -0.54375,-1.8375 -1.340625,-1.8375 -0.50625,0 -0.99375,0.159375 -1.3875,0.459375 V -5.53175 h -0.675 V -5e-4 h 0.69375 v -0.375 c 0.178125,0.15 0.5625,0.459375 1.14375,0.459375 0.8625,0 1.565625,-0.815625 1.565625,-1.865625 z m -0.69375,0 c 0,0.975 -0.65625,1.33125 -1.21875,1.33125 -0.290625,0 -0.571875,-0.13125 -0.796875,-0.4875 v -1.575 c 0,-0.121875 0,-0.225 0.28125,-0.403125 0.121875,-0.075 0.3375,-0.178125 0.609375,-0.178125 0.534375,0 1.125,0.35625 1.125,1.3125 z M 19.115494,-5e-4 v -2.296875 c 0,-0.815625 -0.628125,-1.359375 -1.415625,-1.359375 -0.496875,0 -0.88125,0.103125 -1.33125,0.3375 l 0.04687,0.58125 c 0.2625,-0.16875 0.65625,-0.4125 1.284375,-0.4125 0.35625,0 0.721875,0.2625 0.721875,0.8625 v 0.31875 c -1.18125,0.0375 -2.34375,0.290625 -2.34375,1.03125 0,0.39375 0.271875,1.021875 0.965625,1.021875 0.346875,0 0.975,-0.075 1.396875,-0.384375 v 0.3 z m -0.69375,-1.134375 c 0,0.159375 0,0.365625 -0.28125,0.534375 -0.253125,0.15 -0.5625,0.15 -0.65625,0.15 -0.440625,0 -0.76875,-0.196875 -0.76875,-0.496875 0,-0.515625 1.340625,-0.5625 1.70625,-0.571875 z m 5.357812,-0.646875 c 0,-0.95625 -0.54375,-1.8375 -1.340625,-1.8375 -0.50625,0 -0.99375,0.159375 -1.3875,0.459375 V -5.53175 h -0.675 V -5e-4 h 0.69375 v -0.375 c 0.178125,0.15 0.5625,0.459375 1.14375,0.459375 0.8625,0 1.565625,-0.815625 1.565625,-1.865625 z m -0.69375,0 c 0,0.975 -0.65625,1.33125 -1.21875,1.33125 -0.290625,0 -0.571875,-0.13125 -0.796875,-0.4875 v -1.575 c 0,-0.121875 0,-0.225 0.28125,-0.403125 0.121875,-0.075 0.3375,-0.178125 0.609375,-0.178125 0.534375,0 1.125,0.35625 1.125,1.3125 z M 25.417838,-5e-4 v -3.534375 h -0.675 V -5e-4 Z m 0.06563,-4.4625 v -0.80625 h -0.79688 V -4.463 Z m 1.952343,4.4625 v -5.53125 h -0.675 V -5e-4 Z m 2.015625,0 v -3.534375 h -0.675 V -5e-4 Z m 0.06563,-4.4625 V -5.26925 H 28.720181 V -4.463 Z m 3.43125,4.246875 -0.140625,-0.50625 c -0.2625,0.1875 -0.534375,0.253125 -0.759375,0.253125 -0.3375,0 -0.421875,-0.328125 -0.421875,-0.69375 v -1.875 h 1.18125 v -0.496875 h -1.18125 v -1.0125 h -0.61875 v 1.0125 H 30.285806 V -3.038 h 0.703125 v 2.015625 c 0,0.534375 0.13125,1.10625 0.703125,1.10625 0.58125,0 1.0125,-0.1875 1.25625,-0.3 z m 3.778125,-3.31875 h -0.646875 c -0.646875,1.51875 -1.0875,2.55 -1.125,3.028125 -0.0094,-0.215625 -0.159375,-0.61875 -0.3,-0.99375 -0.13125,-0.31875 -0.253125,-0.6375 -0.403125,-0.946875 l -0.496875,-1.0875 h -0.684375 l 1.65,3.534375 -0.309375,0.703125 c -0.159375,0.3375 -0.271875,0.440625 -0.4875,0.440625 -0.0375,0 -0.328125,0 -0.675,-0.140625 l 0.04687,0.5625 c 0.075,0.00937 0.375,0.05625 0.61875,0.05625 0.31875,0 0.6,-0.1125 0.9375,-0.88125 z m 0,0" style="fill:#121619;fill-opacity:1;fill-rule:nonzero;stroke:none" aria-label="probability" transform="matrix(0,-1.6666667,1.6666667,0,85.938333,191.199)" />
    <g id="g32" aria-label="Single-qubitphaseestimationforU&#10;2" transform="matrix(1.6666667,0,0,1.6666667,200.03667,48.554)">
      <path id="path33" d="m 4.2272188,-1.5277125 c 0,-0.646875 -0.375,-1.0125 -0.534375,-1.18125 -0.3375,-0.328125 -0.703125,-0.4125 -1.321875,-0.5625 -0.4875,-0.103125 -0.740625,-0.16875 -0.928125,-0.35625 -0.103125,-0.103125 -0.290625,-0.28125 -0.290625,-0.590625 0,-0.440625 0.45,-0.909375 1.21875,-0.909375 0.609375,0 1.03125,0.196875 1.434375,0.534375 l 0.13125,-0.7125 c -0.50625,-0.2625 -0.965625,-0.39375 -1.55625,-0.39375 -1.2,0 -1.91250005,0.815625 -1.91250005,1.584375 0,0.31875 0.103125,0.703125 0.496875,1.06875 0.34687505,0.328125 0.71250005,0.4125 1.20937505,0.525 0.665625,0.159375 0.853125,0.20625 1.0875,0.440625 0.15,0.15 0.271875,0.375 0.271875,0.646875 0,0.496875 -0.440625,1.003125 -1.21875,1.003125 -0.45,0 -1.18125,-0.13125 -1.80937505,-0.665625 l -0.13125,0.7125 c 0.39375,0.234375 1.05937505,0.553125 1.95000005,0.553125 1.10625,0 1.903125,-0.80625 1.903125,-1.696875 z M 6.043625,4.125e-4 v -3.534375 h -0.675 v 3.534375 z m 0.065625,-4.4625 v -0.80625 H 5.312375 v 0.80625 z m 4.3125,4.4625 v -2.3625 c 0,-0.61875 -0.178125,-1.25625 -1.1625,-1.25625 -0.45,0 -0.890625,0.1875 -1.2375,0.609375 v -0.58125 H 7.38425 V 4.125e-4 H 8.078 v -1.940625 c 0,-0.525 0.215625,-1.153125 0.834375,-1.153125 0.815625,0 0.815625,0.5625 0.815625,0.7875 v 2.30625 z m 4.778906,-3.075 -0.09375,-0.54375 c -0.178125,0 -0.7125,0.00937 -1.321875,0.24375 h -0.0094 c -0.290625,-0.1875 -0.571875,-0.24375 -0.796875,-0.24375 -0.7875,0 -1.36875,0.61875 -1.36875,1.303125 0,0.271875 0.09375,0.5625 0.28125,0.7875 -0.1125,0.13125 -0.234375,0.35625 -0.234375,0.65625 0,0.309375 0.13125,0.515625 0.20625,0.609375 -0.440625,0.253125 -0.525,0.61875 -0.525,0.815625 0,0.6 0.834375,1.078125 1.865625,1.078125 1.05,0 1.875,-0.478125 1.875,-1.078125 0,-1.125 -1.396875,-1.125 -1.734375,-1.125 h -0.740625 c -0.13125,0 -0.46875,0 -0.46875,-0.4125 0,-0.159375 0.04687,-0.24375 0.05625,-0.2625 0.28125,0.178125 0.5625,0.234375 0.778125,0.234375 0.778125,0 1.359375,-0.609375 1.359375,-1.303125 0,-0.253125 -0.075,-0.478125 -0.215625,-0.69375 -0.02812,-0.046875 -0.02812,-0.065625 -0.02812,-0.065625 0,-0.0375 0.478125,-0.0375 0.515625,-0.0375 0,0 0.309375,0 0.6,0.0375 z m -1.48125,0.759375 c 0,0.61875 -0.403125,0.80625 -0.740625,0.80625 -0.43125,0 -0.75,-0.271875 -0.75,-0.80625 0,-0.61875 0.39375,-0.80625 0.740625,-0.80625 0.43125,0 0.75,0.271875 0.75,0.80625 z m 0.75,2.878125 c 0,0.3375 -0.590625,0.58125 -1.265625,0.58125 -0.665625,0 -1.265625,-0.24375 -1.265625,-0.58125 0,-0.046875 0,-0.515625 0.646875,-0.515625 h 0.76875 c 0.178125,0 1.115625,0 1.115625,0.515625 z m 2.198438,-0.5625 v -5.53125 h -0.675 v 5.53125 z m 4.18125,-1.74375 c 0,-0.365625 -0.0375,-0.9 -0.346875,-1.359375 -0.290625,-0.403125 -0.76875,-0.553125 -1.1625,-0.553125 -0.965625,0 -1.715625,0.853125 -1.715625,1.865625 0,1.021875 0.796875,1.875 1.846875,1.875 0.459375,0 0.9375,-0.140625 1.35,-0.384375 l -0.04687,-0.571875 c -0.45,0.31875 -0.95625,0.421875 -1.29375,0.421875 -0.69375,0 -1.21875,-0.5625 -1.246875,-1.29375 z m -0.4875,-0.478125 h -2.071875 c 0.1875,-0.6375 0.65625,-0.909375 1.05,-0.909375 0.35625,0 0.871875,0.16875 1.021875,0.909375 z m 3.086719,0.703125 v -0.50625 h -2.25 v 0.50625 z m 4.171875,3.065625 v -5.165625 h -0.675 v 0.534375 c -0.28125,-0.31875 -0.703125,-0.534375 -1.171875,-0.534375 -0.84375,0 -1.55625,0.796875 -1.55625,1.85625 0,0.99375 0.6,1.846875 1.396875,1.846875 0.271875,0 0.80625,-0.065625 1.3125,-0.478125 v 1.940625 z m -0.675,-2.53125 c -0.28125,0.45 -0.665625,0.534375 -0.9,0.534375 -0.646875,0 -1.134375,-0.6 -1.134375,-1.3125 0,-0.778125 0.590625,-1.303125 1.21875,-1.303125 0.525,0 0.815625,0.515625 0.815625,0.853125 z m 5.060156,0.984375 v -3.534375 h -0.69375 v 2.30625 c 0,0.6375 -0.534375,0.834375 -1.003125,0.834375 -0.590625,0 -0.646875,-0.159375 -0.646875,-0.525 v -2.615625 h -0.69375 v 2.6625 c 0,0.7125 0.309375,0.95625 0.8625,0.95625 0.328125,0 1.03125,-0.065625 1.509375,-0.45 v 0.365625 z m 4.750781,-1.78125 c 0,-0.95625 -0.54375,-1.8375 -1.340625,-1.8375 -0.50625,0 -0.99375,0.159375 -1.3875,0.459375 v -2.371875 h -0.675 v 5.53125 h 0.69375 v -0.375 c 0.178125,0.15 0.5625,0.459375 1.14375,0.459375 0.8625,0 1.565625,-0.815625 1.565625,-1.865625 z m -0.69375,0 c 0,0.975 -0.65625,1.33125 -1.21875,1.33125 -0.290625,0 -0.571875,-0.13125 -0.796875,-0.4875 v -1.575 c 0,-0.121875 0,-0.225 0.28125,-0.403125 0.121875,-0.075 0.3375,-0.178125 0.609375,-0.178125 0.534375,0 1.125,0.35625 1.125,1.3125 z m 2.332031,1.78125 v -3.534375 h -0.675 v 3.534375 z m 0.06563,-4.4625 v -0.80625 h -0.796875 v 0.80625 z m 3.43125,4.246875 -0.140625,-0.50625 c -0.2625,0.1875 -0.534375,0.253125 -0.759375,0.253125 -0.3375,0 -0.421875,-0.328125 -0.421875,-0.69375 v -1.875 h 1.18125 v -0.496875 h -1.18125 v -1.0125 h -0.61875 v 1.0125 h -0.721875 v 0.496875 h 0.703125 v 2.015625 c 0,0.534375 0.13125,1.10625 0.703125,1.10625 0.58125,0 1.0125,-0.1875 1.25625,-0.3 z m 7.129688,-1.565625 c 0,-0.95625 -0.525,-1.8375 -1.3125,-1.8375 -0.35625,0 -0.95625,0.103125 -1.415625,0.459375 v -0.375 h -0.675 v 5.08125 h 0.69375 v -1.921875 c 0.421875,0.384375 0.88125,0.459375 1.153125,0.459375 0.84375,0 1.55625,-0.80625 1.55625,-1.865625 z m -0.69375,0 c 0,0.796875 -0.590625,1.33125 -1.21875,1.33125 -0.121875,0 -0.31875,-0.009375 -0.525,-0.178125 -0.234375,-0.1875 -0.271875,-0.3 -0.271875,-0.459375 v -1.55625 c 0.1875,-0.225 0.496875,-0.421875 0.88125,-0.421875 0.6375,0 1.134375,0.590625 1.134375,1.284375 z m 4.694531,1.78125 v -2.3625 c 0,-0.61875 -0.178125,-1.25625 -1.1625,-1.25625 -0.684375,0 -1.05,0.403125 -1.209375,0.5625 v -2.475 h -0.66563 v 5.53125 H 50.678 v -1.940625 c 0,-0.525 0.215625,-1.153125 0.834375,-1.153125 0.815625,0 0.815625,0.5625 0.815625,0.7875 v 2.30625 z m 4.150781,0 v -2.296875 c 0,-0.815625 -0.628125,-1.359375 -1.415625,-1.359375 -0.496875,0 -0.88125,0.103125 -1.33125,0.3375 l 0.04687,0.58125 c 0.2625,-0.16875 0.65625,-0.4125 1.284375,-0.4125 0.35625,0 0.721875,0.2625 0.721875,0.8625 v 0.31875 c -1.18125,0.0375 -2.34375,0.290625 -2.34375,1.03125 0,0.39375 0.271875,1.021875 0.965625,1.021875 0.346875,0 0.975,-0.075 1.396875,-0.384375 v 0.3 z m -0.69375,-1.134375 c 0,0.159375 0,0.365625 -0.28125,0.534375 -0.253125,0.15 -0.5625,0.15 -0.65625,0.15 -0.440625,0 -0.76875,-0.196875 -0.76875,-0.496875 0,-0.515625 1.340625,-0.5625 1.70625,-0.571875 z m 4.335938,0.09375 c 0,-0.140625 -0.01875,-0.45 -0.35625,-0.75 -0.290625,-0.2625 -0.58125,-0.31875 -0.965625,-0.39375 -0.46875,-0.084375 -0.834375,-0.159375 -0.834375,-0.50625 0,-0.459375 0.58125,-0.459375 0.703125,-0.459375 0.45,0 0.80625,0.09375 1.2,0.309375 l 0.103125,-0.571875 c -0.54375,-0.225 -0.9375,-0.24375 -1.228125,-0.24375 -0.196875,0 -1.396875,0 -1.396875,1.059375 0,0.375 0.20625,0.58125 0.309375,0.675 0.28125,0.28125 0.609375,0.346875 1.03125,0.421875 0.375,0.075 0.80625,0.15 0.80625,0.534375 0,0.50625 -0.65625,0.50625 -0.76875,0.50625 -0.515625,0 -0.99375,-0.1875 -1.3125,-0.4125 l -0.103125,0.6 c 0.2625,0.140625 0.75,0.35625 1.415625,0.35625 0.35625,0 0.703125,-0.05625 1.003125,-0.271875 0.290625,-0.225 0.39375,-0.58125 0.39375,-0.853125 z m 3.69375,-0.703125 c 0,-0.365625 -0.0375,-0.9 -0.346875,-1.359375 -0.290625,-0.403125 -0.76875,-0.553125 -1.1625,-0.553125 -0.965625,0 -1.715625,0.853125 -1.715625,1.865625 0,1.021875 0.796875,1.875 1.846875,1.875 0.459375,0 0.9375,-0.140625 1.35,-0.384375 l -0.04687,-0.571875 c -0.45,0.31875 -0.95625,0.421875 -1.29375,0.421875 -0.69375,0 -1.21875,-0.5625 -1.246875,-1.29375 z m -0.4875,-0.478125 h -2.071875 c 0.1875,-0.6375 0.65625,-0.909375 1.05,-0.909375 0.35625,0 0.871875,0.16875 1.021875,0.909375 z m 7.071094,0.478125 c 0,-0.365625 -0.0375,-0.9 -0.346875,-1.359375 -0.290625,-0.403125 -0.76875,-0.553125 -1.1625,-0.553125 -0.965625,0 -1.715625,0.853125 -1.715625,1.865625 0,1.021875 0.796875,1.875 1.846875,1.875 0.459375,0 0.9375,-0.140625 1.35,-0.384375 l -0.04687,-0.571875 c -0.45,0.31875 -0.95625,0.421875 -1.29375,0.421875 -0.69375,0 -1.21875,-0.5625 -1.246875,-1.29375 z m -0.4875,-0.478125 h -2.071875 c 0.1875,-0.6375 0.65625,-0.909375 1.05,-0.909375 0.35625,0 0.871875,0.16875 1.021875,0.909375 z m 3.799218,1.18125 c 0,-0.140625 -0.01875,-0.45 -0.35625,-0.75 -0.290625,-0.2625 -0.58125,-0.31875 -0.965625,-0.39375 -0.46875,-0.084375 -0.834375,-0.159375 -0.834375,-0.50625 0,-0.459375 0.58125,-0.459375 0.703125,-0.459375 0.45,0 0.80625,0.09375 1.2,0.309375 l 0.103125,-0.571875 c -0.54375,-0.225 -0.9375,-0.24375 -1.228125,-0.24375 -0.196875,0 -1.396875,0 -1.396875,1.059375 0,0.375 0.20625,0.58125 0.309375,0.675 0.28125,0.28125 0.609375,0.346875 1.03125,0.421875 0.375,0.075 0.80625,0.15 0.80625,0.534375 0,0.50625 -0.65625,0.50625 -0.76875,0.50625 -0.515625,0 -0.99375,-0.1875 -1.3125,-0.4125 l -0.103125,0.6 c 0.2625,0.140625 0.75,0.35625 1.415625,0.35625 0.35625,0 0.703125,-0.05625 1.003125,-0.271875 0.290625,-0.225 0.39375,-0.58125 0.39375,-0.853125 z m 3.009375,0.825 -0.140625,-0.50625 c -0.2625,0.1875 -0.534375,0.253125 -0.759375,0.253125 -0.3375,0 -0.421875,-0.328125 -0.421875,-0.69375 v -1.875 h 1.18125 v -0.496875 h -1.18125 v -1.0125 h -0.61875 v 1.0125 h -0.721875 v 0.496875 h 0.703125 v 2.015625 c 0,0.534375 0.13125,1.10625 0.703125,1.10625 0.58125,0 1.0125,-0.1875 1.25625,-0.3 z m 1.579688,0.215625 v -3.534375 h -0.675 v 3.534375 z m 0.06562,-4.4625 v -0.80625 h -0.796875 v 0.80625 z m 6.667969,4.4625 v -2.3625 c 0,-0.61875 -0.1875,-1.25625 -1.1625,-1.25625 -0.665625,0 -1.0875,0.39375 -1.275,0.646875 -0.08438,-0.215625 -0.28125,-0.646875 -1.078125,-0.646875 -0.45,0 -0.890625,0.1875 -1.2375,0.609375 v -0.58125 h -0.6375 v 3.590625 h 0.69375 v -1.940625 c 0,-0.525 0.215625,-1.153125 0.834375,-1.153125 0.815625,0 0.815625,0.5625 0.815625,0.7875 v 2.30625 h 0.69375 v -1.940625 c 0,-0.525 0.225,-1.153125 0.84375,-1.153125 0.815625,0 0.815625,0.5625 0.815625,0.7875 v 2.30625 z m 4.148437,0 v -2.296875 c 0,-0.815625 -0.628125,-1.359375 -1.415625,-1.359375 -0.496875,0 -0.88125,0.103125 -1.33125,0.3375 l 0.04687,0.58125 c 0.2625,-0.16875 0.65625,-0.4125 1.284375,-0.4125 0.35625,0 0.721875,0.2625 0.721875,0.8625 v 0.31875 c -1.18125,0.0375 -2.34375,0.290625 -2.34375,1.03125 0,0.39375 0.271875,1.021875 0.965625,1.021875 0.346875,0 0.975,-0.075 1.396875,-0.384375 v 0.3 z m -0.69375,-1.134375 c 0,0.159375 0,0.365625 -0.28125,0.534375 -0.253125,0.15 -0.5625,0.15 -0.65625,0.15 -0.440625,0 -0.76875,-0.196875 -0.76875,-0.496875 0,-0.515625 1.340625,-0.5625 1.70625,-0.571875 z m 4.101563,0.91875 -0.140625,-0.50625 c -0.2625,0.1875 -0.534375,0.253125 -0.759375,0.253125 -0.3375,0 -0.421875,-0.328125 -0.421875,-0.69375 v -1.875 h 1.18125 v -0.496875 h -1.18125 v -1.0125 h -0.61875 v 1.0125 h -0.721875 v 0.496875 h 0.703125 v 2.015625 c 0,0.534375 0.13125,1.10625 0.703125,1.10625 0.58125,0 1.0125,-0.1875 1.25625,-0.3 z m 1.579687,0.215625 v -3.534375 h -0.675 v 3.534375 z m 0.06562,-4.4625 v -0.80625 H 94.13112 v 0.80625 z m 4.59375,2.71875 c 0,-1.05 -0.834375,-1.9125 -1.875,-1.9125 -1.03125,0 -1.865625,0.8625 -1.865625,1.9125 0,1.0125 0.84375,1.828125 1.865625,1.828125 1.040625,0 1.875,-0.815625 1.875,-1.828125 z m -0.69375,-0.09375 c 0,0.909375 -0.5625,1.36875 -1.18125,1.36875 -0.628125,0 -1.18125,-0.459375 -1.18125,-1.36875 0,-0.9 0.590625,-1.29375 1.18125,-1.29375 0.6,0 1.18125,0.4125 1.18125,1.29375 z m 4.645315,1.8375 v -2.3625 c 0,-0.61875 -0.17812,-1.25625 -1.1625,-1.25625 -0.45,0 -0.89062,0.1875 -1.2375,0.609375 v -0.58125 h -0.6375 v 3.590625 h 0.69375 v -1.940625 c 0,-0.525 0.21563,-1.153125 0.83438,-1.153125 0.81562,0 0.81562,0.5625 0.81562,0.7875 v 2.30625 z m 6.42891,-4.95 v -0.58125 c -0.20625,-0.046875 -0.45938,-0.075 -0.675,-0.075 -0.81563,0 -1.41563,0.58125 -1.41563,1.378125 v 0.69375 h -0.60937 v 0.496875 h 0.60937 v 3.0375 h 0.675 v -3.0375 h 0.9 v -0.496875 h -0.92812 v -0.91875 c 0,-0.553125 0.50625,-0.628125 0.76875,-0.628125 0.15937,0 0.375,0.01875 0.675,0.13125 z m 3.64687,3.20625 c 0,-1.05 -0.83437,-1.9125 -1.875,-1.9125 -1.03125,0 -1.86562,0.8625 -1.86562,1.9125 0,1.0125 0.84375,1.828125 1.86562,1.828125 1.04063,0 1.875,-0.815625 1.875,-1.828125 z m -0.69375,-0.09375 c 0,0.909375 -0.5625,1.36875 -1.18125,1.36875 -0.62812,0 -1.18125,-0.459375 -1.18125,-1.36875 0,-0.9 0.59063,-1.29375 1.18125,-1.29375 0.6,0 1.18125,0.4125 1.18125,1.29375 z m 3.47579,-1.190625 v -0.590625 c -0.66563,0.00937 -1.15313,0.3375 -1.47188,0.759375 v -0.73125 h -0.61875 v 3.590625 h 0.675 v -1.696875 c 0,-0.8625 0.7125,-1.321875 1.41563,-1.33125 z m 0,0" style="fill:#121619;fill-opacity:1;fill-rule:nonzero;stroke:none" />
      <path id="path34" d="m 124.58816,-4.5745875 c 0.0937,-0.39375 0.28125,-0.58125 0.84375,-0.609375 0.0844,0 0.14062,-0.046875 0.14062,-0.15 0,-0.046875 -0.0375,-0.1125 -0.1125,-0.1125 -0.0469,0 -0.21562,0.028125 -0.79687,0.028125 -0.6375,0 -0.74063,-0.028125 -0.80625,-0.028125 -0.13125,0 -0.15,0.09375 -0.15,0.159375 0,0.103125 0.10312,0.103125 0.16875,0.103125 0.4875,0.01875 0.4875,0.234375 0.4875,0.346875 0,0.046875 -0.009,0.084375 -0.0187,0.13125 -0.009,0.05625 -0.675,2.728125 -0.70313,2.83125 -0.29062,1.153125 -1.29375,1.78125 -2.08125,1.78125 -0.55312,0 -1.04062,-0.328125 -1.04062,-1.059375 0,-0.140625 0.0188,-0.35625 0.0563,-0.478125 l 0.79687,-3.1875 c 0.0656,-0.290625 0.0844,-0.365625 0.66563,-0.365625 0.15937,0 0.25312,0 0.25312,-0.15 0,-0.00937 -0.009,-0.1125 -0.13125,-0.1125 -0.15,0 -0.34687,0.01875 -0.49687,0.028125 h -0.50625 c -0.75938,0 -0.96563,-0.028125 -1.02188,-0.028125 -0.0375,0 -0.15937,0 -0.15937,0.159375 0,0.103125 0.10312,0.103125 0.225,0.103125 0.27187,0 0.49687,0 0.49687,0.13125 0,0.046875 -0.0656,0.3375 -0.12187,0.496875 l -0.16875,0.703125 -0.4125,1.6875 c -0.1125,0.440625 -0.15,0.553125 -0.15,0.76875 0,0.9375 0.73125,1.565625 1.6875,1.565625 1.07812,0 2.1,-0.91875 2.35312,-1.95 z m 0,0" style="fill:#121619;fill-opacity:1;fill-rule:nonzero;stroke:none" />
      <path id="path35" d="m 129.06472,-5.2613062 h -0.21563 c -0.0187,0.084375 -0.075,0.478125 -0.16875,0.54375 -0.0375,0.0375 -0.525,0.0375 -0.60937,0.0375 h -1.11563 l 0.76875,-0.628125 c 0.19688,-0.159375 0.73125,-0.54375 0.91875,-0.721875 0.17813,-0.178125 0.42188,-0.4875 0.42188,-0.909375 0,-0.75 -0.675,-1.18125 -1.47188,-1.18125 -0.77812,0 -1.3125,0.50625 -1.3125,1.06875 0,0.3 0.25313,0.3375 0.31875,0.3375 0.15,0 0.32813,-0.103125 0.32813,-0.31875 0,-0.13125 -0.075,-0.328125 -0.34688,-0.328125 0.14063,-0.3 0.50625,-0.525 0.91875,-0.525 0.62813,0 0.96563,0.459375 0.96563,0.946875 0,0.421875 -0.28125,0.8625 -0.70313,1.246875 l -1.41562,1.29375 c -0.0562,0.065625 -0.0656,0.065625 -0.0656,0.253125 h 2.59688 z m 0,0" style="fill:#121619;fill-opacity:1;fill-rule:nonzero;stroke:none" />
    </g>
    <path id="path36" d="M 198.63034,44.38399 H 230.6326 V 69.00298 H 198.63034 Z" style="fill:#ffffff;fill-opacity:1;fill-rule:nonzero;stroke:#000000;stroke-width:0.3985;stroke-linecap:butt;stroke-linejoin:miter;stroke-miterlimit:10;stroke-dasharray:none;stroke-opacity:1" transform="matrix(1.6666667,0,0,-1.6666667,143.01333,254.97733)" />
    <path id="path37" d="m 0,0 h 8.50412 8.50414" style="fill:none;stroke:#1192e8;stroke-width:0.79701;stroke-linecap:butt;stroke-linejoin:miter;stroke-miterlimit:10;stroke-dasharray:none;stroke-opacity:1" transform="matrix(1.6666667,0,0,-1.6666667,479.70833,151.89067)" />
    <path id="path38" d="m 3.8994375,-2.5395562 c 0,-0.853125 -0.09375,-1.36875 -0.35625,-1.884375 -0.346875,-0.703125 -0.99375,-0.871875 -1.434375,-0.871875 -1.003125,0 -1.36875,0.75 -1.48125,0.965625 -0.28125,0.58125 -0.3,1.378125 -0.3,1.790625 0,0.525 0.01875,1.33125 0.403125,1.96874995 0.365625,0.590625 0.95625,0.740625 1.378125,0.740625 0.384375,0 1.06875,-0.121875 1.471875,-0.909375 0.290625,-0.57187495 0.31875,-1.28437495 0.31875,-1.79999995 z m -1.790625,2.48437495 c -0.271875,0 -0.815625,-0.13125 -0.984375,-0.96562495 -0.084375,-0.45 -0.084375,-1.2 -0.084375,-1.6125 0,-0.553125 0,-1.115625 0.084375,-1.546875 0.16875,-0.815625 0.7875,-0.890625 0.984375,-0.890625 0.271875,0 0.825,0.13125 0.984375,0.853125 0.09375,0.440625 0.09375,1.040625 0.09375,1.584375 0,0.46875 0,1.18125 -0.09375,1.63125 -0.16875,0.83437495 -0.721875,0.94687495 -0.984375,0.94687495 z m 0,0" style="fill:#121619;fill-opacity:1;fill-rule:nonzero;stroke:none" aria-label="0" transform="matrix(1.6666667,0,0,1.6666667,512.04,155.174)" />
    <path id="path39" d="m 0,0 h 8.50412 8.50414" style="fill:none;stroke:#6929c4;stroke-width:0.79701;stroke-linecap:butt;stroke-linejoin:miter;stroke-miterlimit:10;stroke-dasharray:none;stroke-opacity:1" transform="matrix(1.6666667,0,0,-1.6666667,479.70833,169.08567)" />
    <path id="path40" d="m 2.5025625,-5.0729625 c 0,-0.215625 -0.01875,-0.225 -0.234375,-0.225 -0.328125,0.31875 -0.75,0.50625 -1.5,0.50625 v 0.2625 c 0.215625,0 0.6375,0 1.10625,-0.215625 v 4.0875 c 0,0.3 -0.028125,0.39375 -0.7875,0.39375 h -0.271875 v 0.2625 c 0.328125,-0.028125 1.0125,-0.028125 1.36875,-0.028125 0.35625,0 1.05,0 1.378125,0.028125 v -0.2625 h -0.28125 c -0.759375,0 -0.778125,-0.09375 -0.778125,-0.39375 z m 0,0" style="fill:#121619;fill-opacity:1;fill-rule:nonzero;stroke:none" aria-label="1" transform="matrix(1.6666667,0,0,1.6666667,512.04,172.369)" />
  </g>
</svg>