<?xml version='1.0' encoding='utf-8'?>
<svg xmlns="http://www.w3.org/2000/svg" xmlns:ns1="http://sodipodi.sourceforge.net/DTD/sodipodi-0.dtd" xmlns:ns2="http://www.inkscape.org/namespaces/inkscape" version="1.1" id="svg1" width="100%" height="auto" viewBox="-20.0 -20.0 378.78125 317.58709" ns1:docname="svg_fix_XXXXXX.svg">
  <rect id="path1" x="-20.0" y="-20.0" width="378.78125" height="317.58709" fill="white" /><ns1:namedview id="namedview1" pagecolor="#ffffff" bordercolor="#000000" borderopacity="0.25" ns2:showpageshadow="2" ns2:pageopacity="0.0" ns2:pagecheckerboard="0" ns2:deskcolor="#d1d1d1" />
  <defs id="defs1" />
  <g id="g1" transform="translate(-130.55468,-27.175781)">
    <path id="path2" d="M -85.04045,0 H 85.04045" style="fill:none;stroke:#e0e0e0;stroke-width:0.3985;stroke-linecap:butt;stroke-linejoin:miter;stroke-miterlimit:10;stroke-dasharray:none;stroke-opacity:1" transform="matrix(1.5333333,0,0,-1.5333333,284.32,174.062)" />
    <path id="path3" d="M 0,-85.04045 V 85.04045" style="fill:none;stroke:#e0e0e0;stroke-width:0.3985;stroke-linecap:butt;stroke-linejoin:miter;stroke-miterlimit:10;stroke-dasharray:none;stroke-opacity:1" transform="matrix(1.5333333,0,0,-1.5333333,284.32,174.062)" />
    <path id="path4" d="m 85.04045,0 c 0,46.96715 -38.0733,85.04045 -85.04045,85.04045 -46.96715,0 -85.04045,-38.0733 -85.04045,-85.04045 0,-46.96715 38.0733,-85.04045 85.04045,-85.04045 46.96715,0 85.04045,38.0733 85.04045,85.04045 z" style="fill:none;stroke:#121619;stroke-width:0.3985;stroke-linecap:butt;stroke-linejoin:miter;stroke-miterlimit:10;stroke-dasharray:none;stroke-opacity:1" transform="matrix(1.5333333,0,0,-1.5333333,284.32,174.062)" />
    <g id="g4" aria-label="L&#10;2" transform="matrix(1.5333333,0,0,1.5333333,129.94553,218.14227)">
      <path id="path5" d="m 3.0874918,-4.8210435 c 0.071332,-0.2751358 0.091712,-0.3566576 0.8254077,-0.3566576 0.2241847,0 0.3057065,0 0.3057065,-0.1528532 0,-0.02038 -0.02038,-0.1120924 -0.1426631,-0.1120924 -0.1630434,0 -0.3974184,0.01019 -0.5706521,0.02038 H 2.9346386 c -0.8355978,0 -1.0190218,-0.02038 -1.0801631,-0.02038 -0.030571,0 -0.1528532,0 -0.1528532,0.1528532 0,0.1120924 0.1019022,0.1120924 0.2241848,0.1120924 0.2649456,0 0.4993206,0 0.4993206,0.1222826 0,0.030571 -0.01019,0.040761 -0.030571,0.1426631 l -1.0699729,4.27989127 c -0.071332,0.30570652 -0.091712,0.36684783 -0.68274453,0.36684783 -0.15285326,0 -0.24456521,0 -0.24456521,0.15285326 0,0.11209239 0.10190217,0.11209239 0.24456521,0.11209239 H 4.4835516 c 0.2038044,0 0.2139946,-0.01019022 0.2751359,-0.16304348 0.081522,-0.22418478 0.6623641,-1.72214677 0.6623641,-1.79347827 0,-0.071332 -0.061141,-0.1120924 -0.1222826,-0.1120924 -0.091712,0 -0.1019022,0.050951 -0.1630435,0.1732337 -0.285326,0.7438859 -0.6216032,1.6304348 -2.0482337,1.6304348 H 2.0684701 c -0.071331,-0.0101902 -0.091712,-0.0101902 -0.091712,-0.0713315 0,-0.0611413 0.01019,-0.1222826 0.030571,-0.17323369 z m 0,0" style="fill:#121619;fill-opacity:1;fill-rule:nonzero;stroke:none" />
      <path id="path6" d="M 8.9799851,0.31482609 H 8.7558003 c -0.01019,0.0815217 -0.071332,0.47894021 -0.1630435,0.55027174 -0.040761,0.0305707 -0.5197011,0.0305707 -0.6114131,0.0305707 H 6.8706101 L 7.6348764,0.27406522 C 7.8386807,0.11102174 8.368572,-0.2660163 8.5519959,-0.44944022 8.7354198,-0.63286413 8.9799851,-0.92838043 8.9799851,-1.3563696 c 0,-0.7540761 -0.6827446,-1.1820652 -1.4775816,-1.1820652 -0.7744565,0 -1.314538,0.5095109 -1.314538,1.0699728 0,0.3057066 0.2649456,0.3362772 0.3260869,0.3362772 0.1528533,0 0.326087,-0.1019022 0.326087,-0.3260869 0,-0.1222826 -0.081522,-0.3158968 -0.3464674,-0.3158968 0.1426631,-0.3057065 0.5095109,-0.5298913 0.9171196,-0.5298913 0.6317935,0 0.9680706,0.4585598 0.9680706,0.9476902 0,0.42798917 -0.2853261,0.8559783 -0.703125,1.24320656 L 6.259197,1.1809946 C 6.198056,1.2421356 6.187865,1.2523266 6.187865,1.43575 h 2.6086956 z m 0,0" style="fill:#121619;fill-opacity:1;fill-rule:nonzero;stroke:none" />
    </g>
    <path id="path7" d="m 67.735,29.3908 -5.36699,-1.95342 3.04489,-8.36574 5.367,1.95341" style="fill:none;stroke:#121619;stroke-width:0.3985;stroke-linecap:butt;stroke-linejoin:miter;stroke-miterlimit:10;stroke-dasharray:0.3985, 0.99628;stroke-dashoffset:0;stroke-opacity:1" transform="matrix(1.5333333,0,0,-1.5333333,284.32,174.062)" />
    <path id="path8" d="M 98.55809,35.87253 -98.55809,-35.87253" style="fill:none;stroke:#1192e8;stroke-width:1.19553;stroke-linecap:butt;stroke-linejoin:miter;stroke-miterlimit:10;stroke-dasharray:none;stroke-opacity:1" transform="matrix(1.5333333,0,0,-1.5333333,284.32,174.062)" />
    <path id="path9" d="M 0.74721,0 C 0.74721,0.41266 0.41266,0.74721 0,0.74721 -0.41266,0.74721 -0.74721,0.41266 -0.74721,0 c 0,-0.41266 0.33455,-0.74721 0.74721,-0.74721 0.41266,0 0.74721,0.33455 0.74721,0.74721 z" style="fill:#121619;fill-opacity:1;fill-rule:nonzero;stroke:#121619;stroke-width:0.3985;stroke-linecap:butt;stroke-linejoin:miter;stroke-miterlimit:10;stroke-dasharray:none;stroke-opacity:1" transform="matrix(1.5333333,0,0,-1.5333333,284.32,174.062)" />
    <g id="g9" aria-label="∣u⟩" transform="matrix(1.5333333,0,0,1.5333333,406.88393,118.11067)">
      <path id="path10" d="m 1.1915245,-6.0945924 v 7.8057065 h 0.5095108 v -7.8057065 z m 0,0" style="fill:#121619;fill-opacity:1;fill-rule:nonzero;stroke:none" />
      <path id="path11" d="m 5.8866671,-0.86701087 c -0.040761,0.15285326 -0.4076087,0.72350544 -0.9476902,0.72350544 -0.3872283,0 -0.5197011,-0.28532609 -0.5197011,-0.6419837 0,-0.47894017 0.2751359,-1.19225547 0.4483696,-1.64062497 0.081522,-0.1936142 0.1019022,-0.2649457 0.1019022,-0.4076087 0,-0.4381794 -0.3464674,-0.6827446 -0.7133153,-0.6827446 -0.7846467,0 -1.1209239,1.1209239 -1.1209239,1.2228261 0,0.071331 0.061141,0.1019022 0.1222826,0.1019022 0.1019022,0 0.1120924,-0.050951 0.1324729,-0.1324729 0.2139945,-0.703125 0.5604619,-0.9680706 0.845788,-0.9680706 0.1120924,0 0.1834239,0.081522 0.1834239,0.2649456 0,0.183424 -0.071332,0.3668479 -0.1732337,0.6419837 -0.3362772,0.8457881 -0.4076087,1.1922555 -0.4076087,1.47758156 0,0.77445652 0.5910326,0.98845109 1.0597826,0.98845109 0.6012229,0 0.9680707,-0.47894022 0.9986413,-0.51970109 0.1324729,0.37703804 0.4891305,0.51970109 0.7744566,0.51970109 0.377038,0 0.5604619,-0.31589674 0.611413,-0.43817935 0.1630435,-0.28532609 0.2751359,-0.7540761 0.2751359,-0.7846467 0,-0.050951 -0.030571,-0.1019022 -0.1324729,-0.1019022 -0.091712,0 -0.1120923,0.040761 -0.1528532,0.2445652 -0.1120924,0.39741848 -0.2547555,0.85597827 -0.5808424,0.85597827 -0.1834239,0 -0.2547554,-0.15285327 -0.2547554,-0.37703805 0,-0.13247282 0.071331,-0.40760869 0.1222826,-0.60122282 0.050951,-0.2038044 0.1630434,-0.6827446 0.1936141,-0.8254076 l 0.1630435,-0.6012228 c 0.050951,-0.2139946 0.142663,-0.5910326 0.142663,-0.6419837 0,-0.1936142 -0.1528532,-0.2445653 -0.2547554,-0.2445653 -0.1120924,0 -0.2853261,0.071332 -0.3362772,0.2649457 z m 0,0" style="fill:#121619;fill-opacity:1;fill-rule:nonzero;stroke:none" />
      <path id="path12" d="M 9.0176114,1.8028261 10.454432,-2.1917391 9.0176114,-6.1863043 8.5386712,-6.0130707 9.9754918,-2.1917391 8.5386712,1.6295924 Z m 0,0" style="fill:#121619;fill-opacity:1;fill-rule:nonzero;stroke:none" />
    </g>
    <path id="path13" d="m 80.65948,29.08601 c 0,0.41268 -0.33453,0.74721 -0.7472,0.74721 -0.41268,0 -0.74721,-0.33453 -0.74721,-0.74721 0,-0.41267 0.33453,-0.74721 0.74721,-0.74721 0.41267,0 0.7472,0.33454 0.7472,0.74721 z" style="fill:#121619;fill-opacity:1;fill-rule:nonzero;stroke:#121619;stroke-width:0.3985;stroke-linecap:butt;stroke-linejoin:miter;stroke-miterlimit:10;stroke-dasharray:none;stroke-opacity:1" transform="matrix(1.5333333,0,0,-1.5333333,284.32,174.062)" />
    <g id="g13" aria-label="∣ψ⟩" transform="matrix(1.5333333,0,0,1.5333333,417.11433,200.0658)">
      <path id="path14" d="m 1.1915693,-6.0933546 v 7.8057065 h 0.5095109 v -7.8057065 z m 0,0" style="fill:#121619;fill-opacity:1;fill-rule:nonzero;stroke:none" />
      <path id="path15" d="m 6.9464946,-5.267947 c 0.030571,-0.1120924 0.030571,-0.1222826 0.030571,-0.1630435 0,-0.071332 -0.050951,-0.1019022 -0.1120924,-0.1019022 -0.1120924,0 -0.1120924,0.030571 -0.142663,0.1732337 L 5.417962,-0.1626481 C 4.8575,-0.2237894 4.4600815,-0.46835462 4.4600815,-1.0390068 c 0,-0.1528533 0,-0.3566576 0.4279892,-1.4164402 0.081522,-0.2139946 0.081522,-0.2853261 0.081522,-0.3770381 0,-0.4381793 -0.3464674,-0.6827445 -0.7133152,-0.6827445 -0.7846468,0 -1.1209239,1.1209239 -1.1209239,1.2228261 0,0.071331 0.061141,0.1019021 0.1222826,0.1019021 0.1019021,0 0.1120924,-0.050951 0.1324728,-0.1324728 0.2139946,-0.6929348 0.5502717,-0.9680706 0.845788,-0.9680706 0.1120924,0 0.183424,0.081522 0.183424,0.2649456 0,0.1834239 -0.071332,0.3770381 -0.1426631,0.5400815 -0.4076087,1.0597826 -0.4076087,1.2228261 -0.4076087,1.3960598 0,0.75407611 0.6623641,1.1005435 1.4877718,1.15149458 L 5.000163,1.5187378 c 0,0.071331 0.050951,0.1120924 0.1120924,0.1120924 0.1120924,0 0.1120924,-0.040761 0.1630435,-0.2038044 0.040761,-0.1732337 0.01019,-0.061141 0.3362772,-1.34510868 0.3260869,0 0.9375,0 1.7221467,-0.74388587 0.3158968,-0.2955163 0.4993207,-0.62160325 0.560462,-0.73369565 0.2649456,-0.5197011 0.377038,-1.2126359 0.377038,-1.5081522 0,-0.6216032 -0.3566576,-0.6216032 -0.3872282,-0.6216032 -0.1936142,0 -0.4177989,0.2139945 -0.4177989,0.4177989 0,0.1324728 0.071332,0.1936141 0.1120923,0.2241848 0.081522,0.071331 0.3158968,0.2751358 0.3158968,0.6623641 0,0.6623641 -0.8967391,2.07880434 -2.2316576,2.07880434 z m 0,0" style="fill:#121619;fill-opacity:1;fill-rule:nonzero;stroke:none" />
      <path id="path16" d="M 9.9347758,1.8040639 11.371596,-2.1905014 9.9347758,-6.1850666 9.4558356,-6.0118329 10.892656,-2.1905014 9.4558356,1.6308302 Z m 0,0" style="fill:#121619;fill-opacity:1;fill-rule:nonzero;stroke:none" />
    </g>
    <path id="path17" d="m 84.49652,-14.76685 c 0,0.41268 -0.33453,0.74721 -0.74721,0.74721 -0.41267,0 -0.74721,-0.33453 -0.74721,-0.74721 0,-0.41267 0.33454,-0.7472 0.74721,-0.7472 0.41268,0 0.74721,0.33453 0.74721,0.7472 z" style="fill:#121619;fill-opacity:1;fill-rule:nonzero;stroke:#121619;stroke-width:0.3985;stroke-linecap:butt;stroke-linejoin:miter;stroke-miterlimit:10;stroke-dasharray:none;stroke-opacity:1" transform="matrix(1.5333333,0,0,-1.5333333,284.32,174.062)" />
    <path id="path18" d="M 0,0 80.21729,-14.14412" style="fill:none;stroke:#121619;stroke-width:0.3985;stroke-linecap:butt;stroke-linejoin:miter;stroke-miterlimit:10;stroke-dasharray:none;stroke-opacity:1" transform="matrix(1.5333333,0,0,-1.5333333,284.32,174.062)" />
    <path id="path19" d="M 3.58653,0 C 2.52383,0.19925 0.797,0.797 -0.3985,1.49438 V -1.49438 C 0.797,-0.797 2.52383,-0.19925 3.58653,0" style="fill:#121619;fill-opacity:1;fill-rule:nonzero;stroke:none" transform="matrix(1.5100267,0.26623267,0.26623267,-1.5100267,407.31981,195.74962)" />
    <g id="g19" aria-label="H&#10;⊗n&#10;Z&#10;OR&#10;H&#10;⊗n&#10;∣ψ⟩" transform="matrix(1.5333333,0,0,1.5333333,372.5158,71.5142)">
      <path id="path20" d="m 6.3687717,-4.798663 c 0.081522,-0.3057066 0.091712,-0.3770381 0.652174,-0.3770381 0.1834239,0 0.2751358,0 0.2751358,-0.1528532 0,-0.01019 0,-0.1120924 -0.1324728,-0.1120924 -0.1528533,0 -0.3464674,0.01019 -0.4891304,0.02038 H 6.1649674 c -0.7642663,0 -0.9680707,-0.02038 -1.029212,-0.02038 -0.030571,0 -0.1528532,0 -0.1528532,0.1528532 0,0.1120924 0.1019021,0.1120924 0.2241848,0.1120924 0.2649456,0 0.4993206,0 0.4993206,0.1222826 0,0.030571 -0.01019,0.040761 -0.030571,0.1426631 L 5.1968967,-2.9644239 H 2.628962 l 0.4585597,-1.8546196 c 0.071332,-0.2853261 0.091712,-0.3566576 0.6725544,-0.3566576 0.1630435,0 0.2547554,0 0.2547554,-0.1528532 0,-0.01019 -0.01019,-0.1120924 -0.1324728,-0.1120924 -0.1528533,0 -0.3464674,0.01019 -0.4993207,0.02038 H 2.8837174 c -0.7642663,0 -0.9680707,-0.02038 -1.029212,-0.02038 -0.030571,0 -0.1528532,0 -0.1528532,0.1528532 0,0.1120924 0.1019021,0.1120924 0.2241848,0.1120924 0.2649456,0 0.4993206,0 0.4993206,0.1222826 0,0.030571 -0.01019,0.040761 -0.030571,0.1426631 l -1.0699729,4.27989127 c -0.071332,0.30570652 -0.091712,0.36684783 -0.68274453,0.36684783 -0.15285327,0 -0.24456522,0 -0.24456522,0.15285326 0,0.03057065 0.0203804,0.11209238783 0.13247282,0.11209238783 0.14266305,0 0.33627718,-0.0203804378 0.48913043,-0.0203804378 h 0.5095109 c 0.7642663,0 0.9782608,0.0203804378 1.0292119,0.0203804378 0.050951,0 0.1630435,0 0.1630435,-0.15285325783 0,-0.11209239 -0.1120924,-0.11209239 -0.2445652,-0.11209239 -0.02038,0 -0.1630435,0 -0.3057065,-0.0101902 -0.1630435,-0.0203804 -0.1834239,-0.0407609 -0.1834239,-0.11209239 0,-0.0407609 0.02038,-0.091712 0.030571,-0.13247283 L 2.5576304,-2.6994783 h 2.5679348 c -0.234375,0.9375 -0.5400815,2.18070656 -0.5502717,2.18070656 -0.071332,0.24456522 -0.2139946,0.24456522 -0.6929348,0.25475544 -0.1019022,0 -0.2038044,0 -0.2038044,0.15285326 0,0.03057065 0.030571,0.11209238783 0.1324729,0.11209238783 0.1528532,0 0.3362771,-0.0203804378 0.4891304,-0.0203804378 h 0.5095109 c 0.7642663,0 0.9782608,0.0203804378 1.0292119,0.0203804378 0.050951,0 0.1630435,0 0.1630435,-0.15285325783 0,-0.11209239 -0.1019022,-0.11209239 -0.2445652,-0.11209239 -0.02038,0 -0.1630435,0 -0.2955163,-0.0101902 -0.1732337,-0.0203804 -0.1834239,-0.0407609 -0.1834239,-0.11209239 0,-0.0407609 0.01019,-0.091712 0.02038,-0.13247283 z m 0,0" style="fill:#121619;fill-opacity:1;fill-rule:nonzero;stroke:none" />
      <path id="path21" d="m 9.9047772,-5.5196209 0.8559778,0.8559782 c -0.244565,0.183424 -0.550271,0.2853261 -0.8559778,0.2853261 -0.3158968,0 -0.6114131,-0.1019021 -0.8559783,-0.2853261 z m 0.2649458,-0.2649457 0.855978,-0.8559782 c 0.183424,0.2445652 0.285326,0.5400815 0.285326,0.8559782 0,0.3057065 -0.101902,0.6012229 -0.285326,0.8559783 z m -0.5298915,0 -0.8559782,0.8559783 C 8.5902391,-5.1833437 8.488337,-5.4788601 8.488337,-5.7845666 c 0,-0.3158967 0.1019021,-0.611413 0.2955163,-0.8559782 z M 9.9047772,-6.0597024 9.0487989,-6.9156807 c 0.2445652,-0.1834239 0.5400815,-0.2853261 0.8559783,-0.2853261 0.3057068,0 0.6114128,0.1019022 0.8559778,0.2853261 z m 1.7934778,0.2751358 c 0,-0.4789402 -0.193614,-0.9375 -0.529891,-1.2737771 -0.326087,-0.3362772 -0.784647,-0.5298914 -1.2635868,-0.5298914 -0.4789402,0 -0.9273098,0.1936142 -1.2737772,0.5298914 -0.326087,0.3362771 -0.5197011,0.7948369 -0.5197011,1.2737771 0,0.4789402 0.1936141,0.9273098 0.5197011,1.2737772 0.3464674,0.326087 0.794837,0.5197011 1.2737772,0.5197011 0.4789398,0 0.9374998,-0.1936141 1.2635868,-0.5197011 0.336277,-0.3464674 0.529891,-0.794837 0.529891,-1.2737772 z m 0,0" style="fill:#121619;fill-opacity:1;fill-rule:nonzero;stroke:none" />
      <path id="path22" d="m 13.985959,-6.2125557 c -0.03057,-0.4585598 -0.448369,-0.5706522 -0.672554,-0.5706522 -0.234375,0 -0.387228,0.1426631 -0.489131,0.326087 -0.152853,0.2445652 -0.224184,0.5706522 -0.224184,0.5910326 0,0.061141 0.05095,0.091712 0.101902,0.091712 0.101902,0 0.101902,-0.040761 0.132473,-0.142663 0.122282,-0.4789402 0.264945,-0.6623641 0.458559,-0.6623641 0.213995,0 0.213995,0.2445652 0.213995,0.2955163 0,0.1019021 -0.06114,0.3362771 -0.101902,0.5095108 -0.04076,0.1630435 -0.101902,0.4076087 -0.132473,0.5400816 -0.04076,0.142663 -0.07133,0.3057065 -0.122283,0.4483695 -0.04076,0.1732337 -0.112092,0.46875 -0.112092,0.4993207 0,0.1324728 0.101902,0.2038043 0.213995,0.2038043 0.101902,0 0.203804,-0.071332 0.254755,-0.1630434 0.01019,-0.040761 0.06114,-0.2445653 0.09171,-0.3668479 l 0.132473,-0.5400815 c 0.04076,-0.1528533 0.07133,-0.2547554 0.101902,-0.3974185 0.06114,-0.2038043 0.264946,-0.5197011 0.48913,-0.7438858 0.122283,-0.1120924 0.377038,-0.2853261 0.703125,-0.2853261 0.377038,0 0.377038,0.2955163 0.377038,0.4177989 0,0.3464674 -0.254755,0.9884511 -0.366847,1.2533967 -0.03057,0.1019022 -0.07133,0.2038044 -0.07133,0.3057065 0,0.3057066 0.275136,0.5197011 0.601223,0.5197011 0.601223,0 0.906929,-0.7948369 0.906929,-0.9273098 0,-0.01019 -0.01019,-0.081522 -0.122282,-0.081522 -0.08152,0 -0.08152,0.030571 -0.122283,0.1426631 -0.09171,0.3158967 -0.336277,0.6623641 -0.641984,0.6623641 -0.112092,0 -0.163043,-0.081522 -0.163043,-0.2139946 0,-0.1120924 0.04076,-0.2139945 0.09171,-0.3464674 0.09171,-0.234375 0.356657,-0.9069293 0.356657,-1.2432065 0,-0.4891304 -0.366847,-0.6929348 -0.825407,-0.6929348 -0.295516,0 -0.672555,0.1019022 -1.059783,0.5706522 z m 0,0" style="fill:#121619;fill-opacity:1;fill-rule:nonzero;stroke:none" />
      <path id="path23" d="m 23.241224,-5.1349402 c 0.06114,-0.071332 0.112093,-0.1222826 0.112093,-0.2241848 0,-0.081522 -0.06114,-0.081522 -0.213995,-0.081522 h -3.546196 c -0.203804,0 -0.213994,0.01019 -0.264945,0.1630434 l -0.44837,1.4164403 c 0,0.030571 -0.02038,0.081522 -0.02038,0.1120923 0,0.02038 0.01019,0.1120924 0.122282,0.1120924 0.08152,0 0.101902,-0.030571 0.152854,-0.1834239 0.377038,-1.0903532 0.998641,-1.3552989 1.976902,-1.3552989 h 1.375679 l -4.555027,4.87092393 c -0.06114,0.0713315 -0.112092,0.1222826 -0.112092,0.21399456 0,0.0917119578 0.08152,0.0917119578 0.224184,0.0917119578 h 3.678669 c 0.203804,0 0.213994,-0.0101902178 0.264945,-0.1630434778 l 0.550272,-1.74252717 c 0.04076,-0.1019022 0.04076,-0.1222826 0.04076,-0.1222826 0,-0.01019 -0.01019,-0.1120924 -0.122283,-0.1120924 -0.05095,0 -0.07133,0.02038 -0.08152,0.030571 -0.02038,0.01019 -0.03057,0.030571 -0.04076,0.040761 -0.01019,0.050951 -0.01019,0.071331 -0.08152,0.2445652 -0.356658,1.06997286 -0.815217,1.53872286 -2.078804,1.53872286 h -1.457201 z m 0,0" style="fill:#121619;fill-opacity:1;fill-rule:nonzero;stroke:none" />
      <path id="path24" d="m 28.186027,-0.59265082 c 0,-1.18206518 -1.019022,-2.18070648 -2.323369,-2.18070648 -1.304348,0 -2.32337,0.9986413 -2.32337,2.18070648 0,1.18206522 1.029212,2.15013592 2.32337,2.15013592 1.294157,0 2.323369,-0.9680707 2.323369,-2.15013592 z M 25.862658,1.3434905 c -0.774457,0 -1.650816,-0.60122284 -1.650816,-2.02785327 0,-1.33491843 0.89674,-1.88519023 1.650816,-1.88519023 0.764266,0 1.661005,0.5502718 1.661005,1.88519023 0,1.42663043 -0.886549,2.02785327 -1.661005,2.02785327 z m 6.047894,-1.94633153 c 0.540081,-0.15285326 1.069972,-0.48913047 1.069972,-0.95788047 0,-0.6216032 -0.855978,-1.0903532 -1.803668,-1.0903532 h -2.119565 v 0.234375 h 0.163043 c 0.47894,0 0.47894,0.071332 0.47894,0.2649456 v 3.08763589 c 0,0.19361411 0,0.26494561 -0.47894,0.26494561 h -0.163043 v 0.234375 c 0.09171,-0.01019 0.682744,-0.02038 0.92731,-0.02038 0.234375,0 0.764266,0.01019 0.917119,0.02038 v -0.234375 h -0.152853 c -0.47894,0 -0.47894,-0.071332 -0.47894,-0.26494561 v -1.44701087 h 0.845788 c 0.315896,0 0.560462,0.091712 0.723505,0.22418479 0.213995,0.19361413 0.213995,0.32608695 0.213995,0.74388587 0,0.40760869 0,0.65217392 0.336277,0.89673912 0.142663,0.1120924 0.438179,0.2038044 0.764266,0.2038044 0.509511,0 0.682745,-0.4483696 0.682745,-0.68274461 0,-0.0305707 0,-0.12228261 -0.112093,-0.12228261 -0.101902,0 -0.101902,0.0713315 -0.112092,0.13247283 -0.02038,0.28532609 -0.203804,0.48913039 -0.438179,0.48913039 -0.336278,0 -0.407609,-0.3566576 -0.45856,-0.74388583 -0.02038,-0.16304348 -0.05095,-0.43817935 -0.06114,-0.47894022 -0.06114,-0.46875 -0.448369,-0.66236413 -0.743885,-0.75407608 z M 31.105524,-0.70474321 H 30.269927 V -2.1823247 c 0,-0.1732337 0.01019,-0.2139946 0.163043,-0.2241848 0.04076,-0.01019 0.275136,-0.01019 0.407609,-0.01019 0.621603,0 1.477581,0 1.477581,0.8559782 0,0.65217395 -0.540081,0.85597829 -1.212636,0.85597809 z m 0,0" style="fill:#121619;fill-opacity:1;fill-rule:nonzero;stroke:none" />
      <path id="path25" d="m 40.809159,-4.798663 c 0.08152,-0.3057066 0.09171,-0.3770381 0.652174,-0.3770381 0.183424,0 0.275136,0 0.275136,-0.1528532 0,-0.01019 0,-0.1120924 -0.132473,-0.1120924 -0.152853,0 -0.346467,0.01019 -0.489131,0.02038 h -0.50951 c -0.764267,0 -0.968071,-0.02038 -1.029212,-0.02038 -0.03057,0 -0.152854,0 -0.152854,0.1528532 0,0.1120924 0.101903,0.1120924 0.224185,0.1120924 0.264946,0 0.499321,0 0.499321,0.1222826 0,0.030571 -0.01019,0.040761 -0.03057,0.1426631 l -0.47894,1.9463315 H 37.06935 l 0.45856,-1.8546196 c 0.07133,-0.2853261 0.09171,-0.3566576 0.672554,-0.3566576 0.163044,0 0.254756,0 0.254756,-0.1528532 0,-0.01019 -0.01019,-0.1120924 -0.132473,-0.1120924 -0.152853,0 -0.346467,0.01019 -0.499321,0.02038 h -0.49932 c -0.764267,0 -0.968071,-0.02038 -1.029212,-0.02038 -0.03057,0 -0.152854,0 -0.152854,0.1528532 0,0.1120924 0.101903,0.1120924 0.224185,0.1120924 0.264946,0 0.499321,0 0.499321,0.1222826 0,0.030571 -0.01019,0.040761 -0.03057,0.1426631 l -1.069973,4.27989127 c -0.07133,0.30570652 -0.09171,0.36684783 -0.682744,0.36684783 -0.152853,0 -0.244565,0 -0.244565,0.15285326 0,0.03057065 0.02038,0.11209238783 0.132472,0.11209238783 0.142663,0 0.336278,-0.0203804378 0.489131,-0.0203804378 h 0.509511 c 0.764266,0 0.978261,0.0203804378 1.029212,0.0203804378 0.05095,0 0.163043,0 0.163043,-0.15285325783 0,-0.11209239 -0.112092,-0.11209239 -0.244565,-0.11209239 -0.02038,0 -0.163044,0 -0.305707,-0.0101902 -0.163043,-0.0203804 -0.183424,-0.0407609 -0.183424,-0.11209239 0,-0.0407609 0.02038,-0.091712 0.03057,-0.13247283 l 0.540082,-2.18070658 h 2.567934 c -0.234375,0.9375 -0.540081,2.18070658 -0.550271,2.18070658 -0.07133,0.24456522 -0.213995,0.24456522 -0.692935,0.25475544 -0.101902,0 -0.203804,0 -0.203804,0.15285326 0,0.03057065 0.03057,0.11209238783 0.132472,0.11209238783 0.152854,0 0.336278,-0.0203804378 0.489131,-0.0203804378 h 0.509511 c 0.764266,0 0.978261,0.0203804378 1.029212,0.0203804378 0.05095,0 0.163043,0 0.163043,-0.15285325783 0,-0.11209239 -0.101902,-0.11209239 -0.244565,-0.11209239 -0.02038,0 -0.163044,0 -0.295516,-0.0101902 -0.173234,-0.0203804 -0.183424,-0.0407609 -0.183424,-0.11209239 0,-0.0407609 0.01019,-0.091712 0.02038,-0.13247283 z m 0,0" style="fill:#121619;fill-opacity:1;fill-rule:nonzero;stroke:none" />
      <path id="path26" d="m 44.342617,-5.5196209 0.855978,0.8559782 c -0.244565,0.183424 -0.550272,0.2853261 -0.855978,0.2853261 -0.315897,0 -0.611413,-0.1019021 -0.855978,-0.2853261 z m 0.264945,-0.2649457 0.855979,-0.8559782 c 0.183424,0.2445652 0.285326,0.5400815 0.285326,0.8559782 0,0.3057065 -0.101902,0.6012229 -0.285326,0.8559783 z m -0.529891,0 -0.855978,0.8559783 c -0.193614,-0.2547554 -0.295516,-0.5502718 -0.295516,-0.8559783 0,-0.3158967 0.101902,-0.611413 0.295516,-0.8559782 z m 0.264946,-0.2751358 -0.855978,-0.8559783 c 0.244565,-0.1834239 0.540081,-0.2853261 0.855978,-0.2853261 0.305706,0 0.611413,0.1019022 0.855978,0.2853261 z m 1.793478,0.2751358 c 0,-0.4789402 -0.193614,-0.9375 -0.529891,-1.2737771 -0.326087,-0.3362772 -0.784647,-0.5298914 -1.263587,-0.5298914 -0.47894,0 -0.92731,0.1936142 -1.273777,0.5298914 -0.326087,0.3362771 -0.519701,0.7948369 -0.519701,1.2737771 0,0.4789402 0.193614,0.9273098 0.519701,1.2737772 0.346467,0.326087 0.794837,0.5197011 1.273777,0.5197011 0.47894,0 0.9375,-0.1936141 1.263587,-0.5197011 0.336277,-0.3464674 0.529891,-0.794837 0.529891,-1.2737772 z m 0,0" style="fill:#121619;fill-opacity:1;fill-rule:nonzero;stroke:none" />
      <path id="path27" d="m 48.423799,-6.2125557 c -0.03057,-0.4585598 -0.44837,-0.5706522 -0.672554,-0.5706522 -0.234375,0 -0.387229,0.1426631 -0.489131,0.326087 -0.152853,0.2445652 -0.224185,0.5706522 -0.224185,0.5910326 0,0.061141 0.05095,0.091712 0.101903,0.091712 0.101902,0 0.101902,-0.040761 0.132472,-0.142663 0.122283,-0.4789402 0.264946,-0.6623641 0.45856,-0.6623641 0.213995,0 0.213995,0.2445652 0.213995,0.2955163 0,0.1019021 -0.06114,0.3362771 -0.101902,0.5095108 -0.04076,0.1630435 -0.101903,0.4076087 -0.132473,0.5400816 -0.04076,0.142663 -0.07133,0.3057065 -0.122283,0.4483695 -0.04076,0.1732337 -0.112092,0.46875 -0.112092,0.4993207 0,0.1324728 0.101902,0.2038043 0.213994,0.2038043 0.101902,0 0.203805,-0.071332 0.254756,-0.1630434 0.01019,-0.040761 0.06114,-0.2445653 0.09171,-0.3668479 l 0.132472,-0.5400815 c 0.04076,-0.1528533 0.07133,-0.2547554 0.101903,-0.3974185 0.06114,-0.2038043 0.264945,-0.5197011 0.48913,-0.7438858 0.122283,-0.1120924 0.377038,-0.2853261 0.703125,-0.2853261 0.377038,0 0.377038,0.2955163 0.377038,0.4177989 0,0.3464674 -0.254755,0.9884511 -0.366848,1.2533967 -0.03057,0.1019022 -0.07133,0.2038044 -0.07133,0.3057065 0,0.3057066 0.275136,0.5197011 0.601223,0.5197011 0.601222,0 0.906929,-0.7948369 0.906929,-0.9273098 0,-0.01019 -0.01019,-0.081522 -0.122283,-0.081522 -0.08152,0 -0.08152,0.030571 -0.122282,0.1426631 -0.09171,0.3158967 -0.336277,0.6623641 -0.641984,0.6623641 -0.112092,0 -0.163043,-0.081522 -0.163043,-0.2139946 0,-0.1120924 0.04076,-0.2139945 0.09171,-0.3464674 0.09171,-0.234375 0.356657,-0.9069293 0.356657,-1.2432065 0,-0.4891304 -0.366848,-0.6929348 -0.825407,-0.6929348 -0.295517,0 -0.672555,0.1019022 -1.059783,0.5706522 z m 0,0" style="fill:#121619;fill-opacity:1;fill-rule:nonzero;stroke:none" />
      <path id="path28" d="m 52.963541,-6.0928207 v 7.8057066 h 0.509511 v -7.8057066 z m 0,0" style="fill:#121619;fill-opacity:1;fill-rule:nonzero;stroke:none" />
      <path id="path29" d="m 58.718466,-5.267413 c 0.03057,-0.1120924 0.03057,-0.1222827 0.03057,-0.1630435 0,-0.071332 -0.05095,-0.1019022 -0.112093,-0.1019022 -0.112092,0 -0.112092,0.030571 -0.142663,0.1732337 l -1.304348,5.19701087 c -0.560462,-0.0611413 -0.95788,-0.30570652 -0.95788,-0.87635867 0,-0.1528533 0,-0.3566576 0.427989,-1.4164402 0.08152,-0.2139946 0.08152,-0.2853261 0.08152,-0.3770381 0,-0.4381793 -0.346468,-0.6827446 -0.713315,-0.6827446 -0.784647,0 -1.120924,1.120924 -1.120924,1.2228261 0,0.071332 0.06114,0.1019022 0.122282,0.1019022 0.101903,0 0.112093,-0.050951 0.132473,-0.1324728 0.213995,-0.6929348 0.550272,-0.9680707 0.845788,-0.9680707 0.112093,0 0.183424,0.081522 0.183424,0.2649457 0,0.1834239 -0.07133,0.377038 -0.142663,0.5400815 -0.407609,1.0597826 -0.407609,1.2228261 -0.407609,1.3960598 0,0.75407607 0.662365,1.10054347 1.487772,1.15149455 L 56.772135,1.5192717 c 0,0.071332 0.05095,0.1120924 0.112092,0.1120924 0.112092,0 0.112092,-0.040761 0.163043,-0.2038043 0.04076,-0.1732337 0.01019,-0.061141 0.336278,-1.34510871 0.326087,0 0.9375,0 1.722146,-0.74388587 0.315897,-0.29551631 0.499321,-0.62160322 0.560462,-0.73369562 0.264946,-0.5197011 0.377038,-1.2126359 0.377038,-1.5081522 0,-0.6216033 -0.356657,-0.6216033 -0.387228,-0.6216033 -0.193614,0 -0.417799,0.2139946 -0.417799,0.4177989 0,0.1324729 0.07133,0.1936142 0.112093,0.2241848 0.08152,0.071332 0.315896,0.2751359 0.315896,0.6623642 0,0.6623641 -0.896739,2.0788043 -2.231657,2.0788043 z m 0,0" style="fill:#121619;fill-opacity:1;fill-rule:nonzero;stroke:none" />
      <path id="path30" d="m 61.706747,1.8045978 1.436821,-3.9945652 -1.436821,-3.9945652 -0.47894,0.1732337 1.436821,3.8213315 -1.436821,3.8213315 z m 0,0" style="fill:#121619;fill-opacity:1;fill-rule:nonzero;stroke:none" />
    </g>
    <path id="path31" d="m 55.4105,65.14412 c 0,0.41268 -0.33453,0.74721 -0.7472,0.74721 -0.41267,0 -0.74721,-0.33453 -0.74721,-0.74721 0,-0.41267 0.33454,-0.74721 0.74721,-0.74721 0.41267,0 0.7472,0.33454 0.7472,0.74721 z" style="fill:#121619;fill-opacity:1;fill-rule:nonzero;stroke:#121619;stroke-width:0.3985;stroke-linecap:butt;stroke-linejoin:miter;stroke-miterlimit:10;stroke-dasharray:none;stroke-opacity:1" transform="matrix(1.5333333,0,0,-1.5333333,284.32,174.062)" />
    <path id="path32" d="M 0,0 52.35796,62.39676" style="fill:none;stroke:#121619;stroke-width:0.3985;stroke-linecap:butt;stroke-linejoin:miter;stroke-miterlimit:10;stroke-dasharray:none;stroke-opacity:1" transform="matrix(1.5333333,0,0,-1.5333333,284.32,174.062)" />
    <path id="path33" d="M 3.58653,0 C 2.52383,0.19925 0.797,0.797 -0.3985,1.49438 V -1.49438 C 0.797,-0.797 2.52383,-0.19925 3.58653,0" style="fill:#121619;fill-opacity:1;fill-rule:nonzero;stroke:none" transform="matrix(0.985596,-1.174564,-1.174564,-0.985596,364.60217,78.386968)" />
    <path id="path34" d="M 83.74931,-14.76685 54.6633,65.14412" style="fill:none;stroke:#121619;stroke-width:0.3985;stroke-linecap:butt;stroke-linejoin:miter;stroke-miterlimit:10;stroke-dasharray:0.3985, 0.99628;stroke-dashoffset:0;stroke-opacity:1" transform="matrix(1.5333333,0,0,-1.5333333,284.32,174.062)" />
    <g id="g34" aria-label="∣A&#10;0&#10;⟩" transform="matrix(1.5333333,0,0,1.5333333,419.09387,177.42307)">
      <path id="path35" d="m 1.1921793,-6.0945272 v 7.8057065 h 0.5095109 v -7.8057065 z m 0,0" style="fill:#121619;fill-opacity:1;fill-rule:nonzero;stroke:none" />
      <path id="path36" d="M 4.3791698,-0.94846739 C 4.012322,-0.367625 3.6862351,-0.28610326 3.3907187,-0.26572283 c -0.071331,0.0101902 -0.1732336,0.0203804 -0.1732336,0.15285326 0,0.02038044 0.02038,0.11209239609 0.1120923,0.11209239609 0.071332,0 0.1222827,-0.0203804361 0.6827446,-0.0203804361 0.5400815,0 0.7235054,0.0203804361 0.7642663,0.0203804361 0.040761,0 0.1528533,0 0.1528533,-0.15285325609 0,-0.10190218 -0.1019022,-0.1120924 -0.1426631,-0.1120924 -0.1630434,-0.0101902 -0.3362771,-0.0713315 -0.3362771,-0.24456521 0,-0.12228261 0.071331,-0.22418479 0.2241847,-0.45855979 L 5.2147677,-1.8452065 h 2.1807065 l 0.1630435,1.35529889 c 0,0.10190218 -0.1426631,0.22418478 -0.5095109,0.22418478 -0.1222826,0 -0.2241848,0 -0.2241848,0.15285326 0,0.0101902 0.01019,0.11209239609 0.1324728,0.11209239609 0.081522,0 0.3872283,-0.0203804361 0.4585598,-0.0203804361 h 0.4993207 c 0.7133152,0 0.8559782,0.0203804361 0.9171195,0.0203804361 0.030571,0 0.1528533,0 0.1528533,-0.15285325609 0,-0.1120924 -0.1019022,-0.1120924 -0.2241848,-0.1120924 -0.4381793,0 -0.4483696,-0.0713315 -0.46875,-0.26494565 L 7.6604198,-5.4627337 c -0.02038,-0.1732337 -0.030571,-0.2241848 -0.1732337,-0.2241848 -0.142663,0 -0.1834239,0.071332 -0.234375,0.1528533 z M 5.3778111,-2.099962 7.0286264,-4.729038 7.3649035,-2.099962 Z m 0,0" style="fill:#121619;fill-opacity:1;fill-rule:nonzero;stroke:none" />
      <path id="path37" d="m 12.536439,-0.46952717 c 0,-0.43817935 0,-2.06861413 -1.467391,-2.06861413 -1.4673918,0 -1.4673918,1.63043478 -1.4673918,2.06861413 0,0.42798913 0,2.02785327 1.4673918,2.02785327 1.467391,0 1.467391,-1.59986414 1.467391,-2.02785327 z M 11.069048,1.3749022 c -0.254756,0 -0.662365,-0.1222826 -0.805028,-0.62160329 -0.09171,-0.34646739 -0.09171,-0.92730978 -0.09171,-1.30434782 0,-0.39741848 0,-0.85597829 0.08152,-1.18206519 0.152853,-0.5400816 0.601223,-0.6216033 0.815218,-0.6216033 0.275135,0 0.672554,0.1324728 0.805027,0.5910326 0.09171,0.3158968 0.09171,0.7540761 0.09171,1.21263589 0,0.38722826 0,0.98845108 -0.101902,1.32472826 C 11.700841,1.2933804 11.262662,1.3749022 11.069048,1.3749022 Z m 0,0" style="fill:#121619;fill-opacity:1;fill-rule:nonzero;stroke:none" />
      <path id="path38" d="m 14.607601,1.8028913 1.43682,-3.9945652 -1.43682,-3.9945652 -0.478941,0.1732337 1.436821,3.8213315 -1.436821,3.8213315 z m 0,0" style="fill:#121619;fill-opacity:1;fill-rule:nonzero;stroke:none" />
    </g>
    <path id="path39" d="m 85.78763,0 c 0,0.41266 -0.33453,0.74721 -0.74721,0.74721 -0.41267,0 -0.74721,-0.33455 -0.74721,-0.74721 0,-0.41266 0.33454,-0.74721 0.74721,-0.74721 0.41268,0 0.74721,0.33455 0.74721,0.74721 z" style="fill:#121619;fill-opacity:1;fill-rule:nonzero;stroke:#121619;stroke-width:0.3985;stroke-linecap:butt;stroke-linejoin:miter;stroke-miterlimit:10;stroke-dasharray:none;stroke-opacity:1" transform="matrix(1.5333333,0,0,-1.5333333,284.32,174.062)" />
    <g id="g39" aria-label="∣A&#10;1&#10;⟩" transform="matrix(1.5333333,0,0,1.5333333,271.45993,36.66)">
      <path id="path40" d="m 1.1929103,-6.0936481 v 7.8057065 h 0.5095109 v -7.8057065 z m 0,0" style="fill:#121619;fill-opacity:1;fill-rule:nonzero;stroke:none" />
      <path id="path41" d="m 4.3799008,-0.94758832 c -0.3668478,0.5808424 -0.6929348,0.66236414 -0.9884511,0.68274457 -0.071331,0.0101902 -0.1732337,0.0203804 -0.1732337,0.15285326 0,0.02038044 0.02038,0.11209239217 0.1120924,0.11209239217 0.071332,0 0.1222826,-0.0203804322 0.6827446,-0.0203804322 0.5400815,0 0.7235054,0.0203804322 0.7642663,0.0203804322 0.040761,0 0.1528533,0 0.1528533,-0.15285326217 0,-0.10190217 -0.1019022,-0.11209239 -0.1426631,-0.11209239 -0.1630435,-0.0101902 -0.3362772,-0.0713315 -0.3362772,-0.24456522 0,-0.12228261 0.071332,-0.22418478 0.2241848,-0.45855978 L 5.2154986,-1.8443274 h 2.1807066 l 0.1630434,1.35529887 c 0,0.10190217 -0.142663,0.22418478 -0.5095108,0.22418478 -0.1222826,0 -0.2241848,0 -0.2241848,0.15285326 0,0.0101902 0.01019,0.11209239217 0.1324728,0.11209239217 0.081522,0 0.3872283,-0.0203804322 0.4585598,-0.0203804322 h 0.4993206 c 0.7133153,0 0.8559783,0.0203804322 0.9171196,0.0203804322 0.030571,0 0.1528533,0 0.1528533,-0.15285326217 0,-0.11209239 -0.1019022,-0.11209239 -0.2241848,-0.11209239 -0.4381794,0 -0.4483696,-0.0713315 -0.46875,-0.26494565 L 7.6611508,-5.4618546 c -0.02038,-0.1732337 -0.030571,-0.2241848 -0.1732337,-0.2241848 -0.142663,0 -0.1834239,0.071332 -0.234375,0.1528533 z M 5.3785421,-2.0990829 7.0293573,-4.728159 7.3656345,-2.0990829 Z m 0,0" style="fill:#121619;fill-opacity:1;fill-rule:nonzero;stroke:none" />
      <path id="path42" d="m 11.393318,-2.3665761 c 0,-0.1732337 -0.03057,-0.1732337 -0.203804,-0.1732337 -0.397419,0.3770381 -1.008832,0.3770381 -1.2228265,0.3770381 v 0.234375 c 0.1528535,0 0.5502715,0 0.9069295,-0.1630435 v 3.01630433 c 0,0.19361417 0,0.27513587 -0.611413,0.27513587 h -0.254756 v 0.234375 c 0.326087,-0.02038 0.794837,-0.02038 1.120924,-0.02038 0.336277,0 0.805027,0 1.131114,0.02038 V 1.2 h -0.254755 c -0.611413,0 -0.611413,-0.081522 -0.611413,-0.27513587 z m 0,0" style="fill:#121619;fill-opacity:1;fill-rule:nonzero;stroke:none" />
      <path id="path43" d="m 14.608332,1.8037704 1.43682,-3.9945652 -1.43682,-3.9945653 -0.478941,0.1732337 1.436821,3.8213316 -1.436821,3.8213315 z m 0,0" style="fill:#121619;fill-opacity:1;fill-rule:nonzero;stroke:none" />
    </g>
    <path id="path44" d="m 0.74721,85.04042 c 0,0.41268 -0.33455,0.74721 -0.74721,0.74721 -0.41266,0 -0.74721,-0.33453 -0.74721,-0.74721 0,-0.41267 0.33455,-0.74721 0.74721,-0.74721 0.41266,0 0.74721,0.33454 0.74721,0.74721 z" style="fill:#121619;fill-opacity:1;fill-rule:nonzero;stroke:#121619;stroke-width:0.3985;stroke-linecap:butt;stroke-linejoin:miter;stroke-miterlimit:10;stroke-dasharray:none;stroke-opacity:1" transform="matrix(1.5333333,0,0,-1.5333333,284.32,174.062)" />
  </g>
</svg>