<?xml version='1.0' encoding='utf-8'?>
<svg xmlns="http://www.w3.org/2000/svg" xmlns:ns1="http://sodipodi.sourceforge.net/DTD/sodipodi-0.dtd" xmlns:ns2="http://www.inkscape.org/namespaces/inkscape" version="1.1" id="svg1" width="100%" height="auto" viewBox="-20.0 -20.0 451.69141 216.14268" ns1:docname="svg_fix_XXXXXX.svg">
  <rect id="path1" x="-20.0" y="-20.0" width="451.69141" height="216.14268" fill="white" /><ns1:namedview id="namedview1" pagecolor="#ffffff" bordercolor="#000000" borderopacity="0.25" ns2:showpageshadow="2" ns2:pageopacity="0.0" ns2:pagecheckerboard="0" ns2:deskcolor="#d1d1d1" />
  <defs id="defs1" />
  <g id="g1" transform="translate(-94.234375,-30.799685)">
    <path id="path2" d="M 54.70108,42.52005 H -54.70108 c -1.10046,0 -1.99255,-0.89209 -1.99255,-1.99255 v -86.72469 c 0,-1.10048 0.89209,-1.99255 1.99255,-1.99255 H 54.70108 c 1.10046,0 1.99255,0.89207 1.99255,1.99255 V 40.5275 c 0,1.10046 -0.89209,1.99255 -1.99255,1.99255 z" style="fill:#f5f5f5;fill-opacity:1;fill-rule:nonzero;stroke:#b3b3b3;stroke-width:0.3985;stroke-linecap:butt;stroke-linejoin:miter;stroke-miterlimit:10;stroke-dasharray:none;stroke-opacity:1" transform="matrix(1.9333333,0,0,-1.9333333,269.51053,113.39033)" />
    <g id="g2" aria-label="∣x⟩" transform="matrix(1.9333333,0,0,1.9333333,91.920333,95.706133)">
      <path id="path3" d="m 1.1969181,-6.0932856 v 7.8071121 h 0.5091595 v -7.8071121 z m 0,0" style="fill:#121619;fill-opacity:1;fill-rule:nonzero;stroke:none" />
      <path id="path4" d="m 6.8926347,-3.1757209 c -0.3475216,0.080819 -0.3636853,0.3960129 -0.3636853,0.4283405 0,0.1778017 0.1293103,0.2909483 0.307112,0.2909483 0.1778017,0 0.4445043,-0.1293104 0.4445043,-0.4768319 0,-0.4525862 -0.5010776,-0.5818966 -0.7920258,-0.5818966 -0.3798492,0 -0.6788793,0.2667026 -0.864763,0.5738147 -0.1697198,-0.4202586 -0.5899784,-0.5738147 -0.9132543,-0.5738147 -0.8728448,0 -1.3577586,0.9940733 -1.3577586,1.2203664 0,0.072737 0.056573,0.1050647 0.1212285,0.1050647 0.096983,0 0.1131465,-0.040409 0.1373922,-0.1373923 0.1778017,-0.5818965 0.6627155,-0.9617457 1.0748922,-0.9617457 0.3071121,0 0.4606681,0.2182113 0.4606681,0.5091595 0,0.161638 -0.096983,0.5253233 -0.1616379,0.783944 -0.056573,0.2262931 -0.2262931,0.9375 -0.2667026,1.09105603 -0.1131465,0.42834051 -0.3960129,0.75969827 -0.7596982,0.75969827 -0.032328,0 -0.234375,0 -0.4040949,-0.11314655 0.3636854,-0.080819 0.3636854,-0.42025862 0.3636854,-0.42834052 0,-0.17780172 -0.1454742,-0.29094827 -0.315194,-0.29094827 -0.2182112,0 -0.4445043,0.17780172 -0.4445043,0.48491379 0,0.36368534 0.387931,0.57381466 0.7920259,0.57381466 0.4202586,0 0.7192887,-0.32327587 0.8647629,-0.57381466 0.1697198,0.38793103 0.5414871,0.57381466 0.9213362,0.57381466 0.8647629,0 1.3496767,-0.99407328 1.3496767,-1.22036641 0,-0.080819 -0.064655,-0.1050646 -0.1212284,-0.1050646 -0.096983,0 -0.1131466,0.056573 -0.1373923,0.1373922 -0.1616379,0.53340518 -0.6142241,0.9617457 -1.0748922,0.9617457 -0.2667026,0 -0.4525862,-0.16971983 -0.4525862,-0.50915948 0,-0.16163793 0.048491,-0.33943966 0.1616379,-0.78394392 0.048491,-0.2424569 0.2262931,-0.9455819 0.2667026,-1.099138 0.1131465,-0.4121767 0.387931,-0.7516164 0.7516164,-0.7516164 0.040409,0 0.2424569,0 0.4121767,0.1131466 z m 0,0" style="fill:#121619;fill-opacity:1;fill-rule:nonzero;stroke:none" />
      <path id="path5" d="M 8.8807813,1.8027274 10.311277,-2.1897295 8.8807813,-6.1821864 8.4039494,-6.0043847 9.834445,-2.1897295 8.4039494,1.6249256 Z m 0,0" style="fill:#121619;fill-opacity:1;fill-rule:nonzero;stroke:none" />
    </g>
    <g id="g5" aria-label="∣−⟩" transform="matrix(1.9333333,0,0,1.9333333,179.0982,145.02933)">
      <path id="path6" d="m 1.1958394,-6.0927586 v 7.807112 h 0.5091595 v -7.807112 z m 0,0" style="fill:#121619;fill-opacity:1;fill-rule:nonzero;stroke:none" />
      <path id="path7" d="m 7.9199774,-2.4478233 h -4.299569 v 0.5091595 h 4.299569 z m 0,0" style="fill:#121619;fill-opacity:1;fill-rule:nonzero;stroke:none" />
      <path id="path8" d="M 9.8515506,1.8032543 11.282046,-2.1892026 9.8515506,-6.1816595 9.3747188,-6.0038578 10.805214,-2.1892026 9.3747188,1.6254526 Z m 0,0" style="fill:#121619;fill-opacity:1;fill-rule:nonzero;stroke:none" />
    </g>
    <g id="g8" aria-label="(−1)&#10;f(x)&#10;∣x⟩" transform="matrix(1.9333333,0,0,1.9333333,425.74127,98.2388)">
      <path id="path9" d="m 2.7402392,1.3574903 c -1.0506465,-0.84859914 -1.478987,-2.19827586 -1.478987,-3.5479526 0,-1.3577586 0.4283405,-2.7074353 1.478987,-3.5479526 L 2.3846358,-6.0940183 c -1.1557112,0.9213362 -1.62446123,2.4084052 -1.62446123,3.903556 0,1.48706898 0.46875003,2.98221984 1.62446123,3.9035561 z m 0,0" style="fill:#121619;fill-opacity:1;fill-rule:nonzero;stroke:none" />
      <path id="path10" d="m 8.5187953,-2.449083 h -4.299569 v 0.5091595 h 4.299569 z m 0,0" style="fill:#121619;fill-opacity:1;fill-rule:nonzero;stroke:none" />
      <path id="path11" d="m 11.741452,-5.0756994 c 0,-0.2182112 -0.01616,-0.2262931 -0.234375,-0.2262931 -0.323276,0.3232759 -0.751617,0.5091595 -1.503233,0.5091595 v 0.2667026 c 0.210129,0 0.646551,0 1.10722,-0.2182112 v 4.08943966 c 0,0.29903017 -0.02425,0.38793103 -0.783944,0.38793103 h -0.274785 v 0.26670259103 c 0.323276,-0.024245691 1.010237,-0.024245691 1.365841,-0.024245691 0.363685,0 1.050646,0 1.382004,0.024245691 V -0.26697091 h -0.282866 c -0.751617,0 -0.775862,-0.0889009 -0.775862,-0.38793103 z m 0,0" style="fill:#121619;fill-opacity:1;fill-rule:nonzero;stroke:none" />
      <path id="path12" d="m 14.586279,1.7130938 c 1.155711,-0.92133626 1.624461,-2.41648712 1.624461,-3.9035561 0,-1.4951508 -0.46875,-2.9822198 -1.624461,-3.903556 l -0.355603,0.3556034 c 1.050646,0.8485992 1.470905,2.190194 1.470905,3.5479526 0,1.34967674 -0.428341,2.70743536 -1.478987,3.5479526 0.113146,0.1131466 0.242457,0.234375 0.363685,0.3556035 z m 0,0" style="fill:#121619;fill-opacity:1;fill-rule:nonzero;stroke:none" />
      <path id="path13" d="m 19.548564,-6.4799289 h 0.606142 c 0.121228,0 0.210129,0 0.210129,-0.153556 0,-0.088901 -0.08082,-0.088901 -0.185883,-0.088901 h -0.589979 c 0.177802,-0.9779095 0.177802,-0.9940733 0.202047,-1.0991379 0.03233,-0.1293104 0.04041,-0.1858836 0.137393,-0.2586207 0.06466,-0.056573 0.121228,-0.080819 0.210129,-0.080819 0.09698,0 0.193966,0.016164 0.274785,0.056573 -0.121229,0.048491 -0.226294,0.1778017 -0.226294,0.3232759 0,0.1293103 0.105065,0.2262931 0.242457,0.2262931 0.161638,0 0.347522,-0.1293104 0.347522,-0.3636854 0,-0.3313577 -0.371767,-0.4364224 -0.63847,-0.4364224 -0.266703,0 -0.670797,0.1293104 -0.856681,0.7273707 -0.04849,0.1454741 -0.06465,0.2667026 -0.105065,0.4849138 -0.03233,0.1697198 -0.04041,0.2505388 -0.08082,0.4202586 h -0.484913 c -0.121229,0 -0.202048,0 -0.202048,0.1535561 0,0.088901 0.07274,0.088901 0.185884,0.088901 h 0.460668 c -0.234375,1.333513 -0.315194,1.7941811 -0.33944,1.9073276 -0.185883,1.0264009 -0.218211,1.0829741 -0.266702,1.1880388 -0.0889,0.1454741 -0.185884,0.2667026 -0.33944,0.2667026 -0.03233,0 -0.161638,-0.016164 -0.258621,-0.056573 0.121229,-0.048491 0.226293,-0.1778017 0.226293,-0.3232759 0,-0.1293103 -0.105064,-0.2262931 -0.242456,-0.2262931 -0.161638,0 -0.347522,0.1293104 -0.347522,0.3636854 0,0.3313577 0.379849,0.4364224 0.622306,0.4364224 0.323276,0 0.557651,-0.2667026 0.662716,-0.4040948 0.266702,-0.3475216 0.396012,-1.0587285 0.404094,-1.1153017 z m 0,0" style="fill:#121619;fill-opacity:1;fill-rule:nonzero;stroke:none" />
      <path id="path14" d="m 23.306645,-3.1259418 c -0.792025,-0.6384698 -1.115301,-1.6487069 -1.115301,-2.6670259 0,-1.010237 0.323276,-2.028556 1.115301,-2.6589439 l -0.274784,-0.2667026 c -0.864763,0.6950431 -1.220366,1.8103448 -1.220366,2.9256465 0,1.1233836 0.355603,2.2386854 1.220366,2.9337285 z m 0,0" style="fill:#121619;fill-opacity:1;fill-rule:nonzero;stroke:none" />
      <path id="path15" d="m 27.240509,-6.4960927 c -0.21013,0.064655 -0.258621,0.234375 -0.258621,0.3232759 0,0.1939655 0.153556,0.234375 0.234375,0.234375 0.177802,0 0.347521,-0.1454741 0.347521,-0.3798491 0,-0.3232759 -0.347521,-0.4606682 -0.654633,-0.4606682 -0.396013,0 -0.63847,0.2990302 -0.703125,0.4121768 -0.07274,-0.1454742 -0.29903,-0.4121768 -0.751617,-0.4121768 -0.686961,0 -1.091056,0.7112069 -1.091056,0.9213363 0,0.024246 0.02425,0.080819 0.105065,0.080819 0.08082,0 0.105065,-0.032328 0.121229,-0.088901 0.145474,-0.4849138 0.55765,-0.7192888 0.848599,-0.7192888 0.290948,0 0.379849,0.1939655 0.379849,0.387931 0,0.072737 0,0.1293103 -0.04849,0.315194 -0.137392,0.5495689 -0.266702,1.0991379 -0.29903,1.171875 -0.0889,0.2262931 -0.29903,0.4283405 -0.549569,0.4283405 -0.04041,0 -0.210129,0 -0.347521,-0.088901 0.234375,-0.080819 0.25862,-0.2747845 0.25862,-0.3232758 0,-0.1535561 -0.121228,-0.234375 -0.234375,-0.234375 -0.169719,0 -0.347521,0.1293103 -0.347521,0.3798491 0,0.3394397 0.371767,0.4606681 0.654634,0.4606681 0.339439,0 0.589978,-0.2262931 0.703125,-0.4121767 0.113146,0.2505388 0.404094,0.4121767 0.743534,0.4121767 0.703125,0 1.099138,-0.7192888 1.099138,-0.9213362 0,-0.00808 0,-0.080819 -0.113147,-0.080819 -0.08082,0 -0.09698,0.040409 -0.113146,0.096983 -0.16972,0.5172414 -0.598061,0.7112069 -0.848599,0.7112069 -0.226293,0 -0.387931,-0.1293104 -0.387931,-0.3798492 0,-0.1131465 0.03233,-0.2505387 0.08082,-0.4606681 l 0.193965,-0.775862 c 0.05657,-0.234375 0.0889,-0.3394397 0.218211,-0.4849138 0.08082,-0.088901 0.226293,-0.2020474 0.412177,-0.2020474 0.03233,0 0.210129,0 0.347522,0.088901 z m 0,0" style="fill:#121619;fill-opacity:1;fill-rule:nonzero;stroke:none" />
      <path id="path16" d="m 29.157939,-2.4308987 c 1.155711,-0.9213362 1.624461,-2.4164871 1.624461,-3.903556 0,-1.4951509 -0.46875,-2.9822199 -1.624461,-3.9035563 l -0.355604,0.3556037 c 1.050647,0.8485991 1.470905,2.1901939 1.470905,3.5479526 0,1.3496767 -0.42834,2.7074353 -1.478987,3.5479525 0.113147,0.1131466 0.242457,0.234375 0.363686,0.3556035 z m 3.202451,-3.6631196 v 7.8071121 h 0.50916 v -7.8071121 z m 0,0" style="fill:#121619;fill-opacity:1;fill-rule:nonzero;stroke:none" />
      <path id="path17" d="m 38.058127,-3.1764537 c -0.347521,0.080819 -0.363685,0.396013 -0.363685,0.4283406 0,0.1778017 0.12931,0.2909482 0.307112,0.2909482 0.177802,0 0.444504,-0.1293103 0.444504,-0.4768319 0,-0.4525862 -0.501077,-0.5818965 -0.792026,-0.5818965 -0.379849,0 -0.678879,0.2667026 -0.864763,0.5738146 -0.169719,-0.4202586 -0.589978,-0.5738146 -0.913254,-0.5738146 -0.872845,0 -1.357759,0.9940733 -1.357759,1.2203664 0,0.072737 0.05657,0.1050646 0.121229,0.1050646 0.09698,0 0.113146,-0.040409 0.137392,-0.1373922 0.177802,-0.5818966 0.662716,-0.9617457 1.074892,-0.9617457 0.307112,0 0.460669,0.2182112 0.460669,0.5091595 0,0.1616379 -0.09698,0.5253232 -0.161638,0.7839439 -0.05657,0.2262931 -0.226294,0.9375 -0.266703,1.09105607 -0.113147,0.42834051 -0.396013,0.75969827 -0.759698,0.75969827 -0.03233,0 -0.234375,0 -0.404095,-0.11314655 0.363685,-0.080819 0.363685,-0.42025862 0.363685,-0.42834052 0,-0.17780172 -0.145474,-0.29094827 -0.315194,-0.29094827 -0.218211,0 -0.444504,0.17780172 -0.444504,0.48491379 0,0.36368535 0.387931,0.57381466 0.792026,0.57381466 0.420258,0 0.719289,-0.32327587 0.864763,-0.57381466 0.16972,0.38793104 0.541487,0.57381466 0.921336,0.57381466 0.864763,0 1.349677,-0.99407328 1.349677,-1.22036635 0,-0.080819 -0.06466,-0.1050647 -0.121229,-0.1050647 -0.09698,0 -0.113146,0.056573 -0.137392,0.1373923 -0.161638,0.53340513 -0.614224,0.96174564 -1.074892,0.96174564 -0.266703,0 -0.452586,-0.16971982 -0.452586,-0.50915948 0,-0.16163793 0.04849,-0.33943965 0.161637,-0.78394396 0.04849,-0.2424569 0.226294,-0.9455819 0.266703,-1.0991379 0.113147,-0.4121768 0.387931,-0.7516164 0.751616,-0.7516164 0.04041,0 0.242457,0 0.412177,0.1131465 z m 0,0" style="fill:#121619;fill-opacity:1;fill-rule:nonzero;stroke:none" />
      <path id="path18" d="m 40.044253,1.8019946 1.430496,-3.9924569 -1.430496,-3.9924569 -0.476832,0.1778017 1.430496,3.8146552 -1.430496,3.8146552 z m 0,0" style="fill:#121619;fill-opacity:1;fill-rule:nonzero;stroke:none" />
    </g>
    <g id="g18" aria-label="∣−⟩" transform="matrix(1.9333333,0,0,1.9333333,336.68613,145.02933)">
      <path id="path19" d="m 1.1968276,-6.0927586 v 7.807112 h 0.5091595 v -7.807112 z m 0,0" style="fill:#121619;fill-opacity:1;fill-rule:nonzero;stroke:none" />
      <path id="path20" d="M 7.918945,-2.4478233 H 3.6193761 v 0.5091595 H 7.918945 Z m 0,0" style="fill:#121619;fill-opacity:1;fill-rule:nonzero;stroke:none" />
      <path id="path21" d="M 9.8505183,1.8032543 11.281014,-2.1892026 9.8505183,-6.1816595 9.3736864,-6.0038578 10.804182,-2.1892026 9.3736864,1.6254526 Z m 0,0" style="fill:#121619;fill-opacity:1;fill-rule:nonzero;stroke:none" />
    </g>
    <path id="path22" d="M -75.098,-2.83484 H 75.098" style="fill:none;stroke:#121619;stroke-width:0.3985;stroke-linecap:butt;stroke-linejoin:miter;stroke-miterlimit:10;stroke-dasharray:none;stroke-opacity:1" transform="matrix(1.9333333,0,0,-1.9333333,269.51053,113.39033)" />
    <path id="path23" d="M -75.098,-1.5e-4 H 75.098" style="fill:none;stroke:#121619;stroke-width:0.3985;stroke-linecap:butt;stroke-linejoin:miter;stroke-miterlimit:10;stroke-dasharray:none;stroke-opacity:1" transform="matrix(1.9333333,0,0,-1.9333333,269.51053,113.39033)" />
    <path id="path24" d="M -75.098,2.8345 H 75.098" style="fill:none;stroke:#121619;stroke-width:0.3985;stroke-linecap:butt;stroke-linejoin:miter;stroke-miterlimit:10;stroke-dasharray:none;stroke-opacity:1" transform="matrix(1.9333333,0,0,-1.9333333,269.51053,113.39033)" />
    <path id="path25" d="M -75.098,5.66919 H 75.098" style="fill:none;stroke:#121619;stroke-width:0.3985;stroke-linecap:butt;stroke-linejoin:miter;stroke-miterlimit:10;stroke-dasharray:none;stroke-opacity:1" transform="matrix(1.9333333,0,0,-1.9333333,269.51053,113.39033)" />
    <path id="path26" d="M -75.098,8.50388 H 75.098" style="fill:none;stroke:#121619;stroke-width:0.3985;stroke-linecap:butt;stroke-linejoin:miter;stroke-miterlimit:10;stroke-dasharray:none;stroke-opacity:1" transform="matrix(1.9333333,0,0,-1.9333333,269.51053,113.39033)" />
    <path id="path27" d="M -75.098,11.33855 H 75.098" style="fill:none;stroke:#121619;stroke-width:0.3985;stroke-linecap:butt;stroke-linejoin:miter;stroke-miterlimit:10;stroke-dasharray:none;stroke-opacity:1" transform="matrix(1.9333333,0,0,-1.9333333,269.51053,113.39033)" />
    <path id="path28" d="M -75.098,14.1732 H 75.098" style="fill:none;stroke:#121619;stroke-width:0.3985;stroke-linecap:butt;stroke-linejoin:miter;stroke-miterlimit:10;stroke-dasharray:none;stroke-opacity:1" transform="matrix(1.9333333,0,0,-1.9333333,269.51053,113.39033)" />
    <path id="path29" d="M -75.098,17.00789 H 75.098" style="fill:none;stroke:#121619;stroke-width:0.3985;stroke-linecap:butt;stroke-linejoin:miter;stroke-miterlimit:10;stroke-dasharray:none;stroke-opacity:1" transform="matrix(1.9333333,0,0,-1.9333333,269.51053,113.39033)" />
    <path id="path30" d="M -75.098,19.84258 H 75.098" style="fill:none;stroke:#121619;stroke-width:0.3985;stroke-linecap:butt;stroke-linejoin:miter;stroke-miterlimit:10;stroke-dasharray:none;stroke-opacity:1" transform="matrix(1.9333333,0,0,-1.9333333,269.51053,113.39033)" />
    <path id="path31" d="M -75.098,22.67726 H 75.098" style="fill:none;stroke:#121619;stroke-width:0.3985;stroke-linecap:butt;stroke-linejoin:miter;stroke-miterlimit:10;stroke-dasharray:none;stroke-opacity:1" transform="matrix(1.9333333,0,0,-1.9333333,269.51053,113.39033)" />
    <path id="path32" d="M -75.098,25.51193 H 75.098" style="fill:none;stroke:#121619;stroke-width:0.3985;stroke-linecap:butt;stroke-linejoin:miter;stroke-miterlimit:10;stroke-dasharray:none;stroke-opacity:1" transform="matrix(1.9333333,0,0,-1.9333333,269.51053,113.39033)" />
    <path id="path33" d="M -29.03444,-14.17339 H 29.03444" style="fill:none;stroke:#121619;stroke-width:0.3985;stroke-linecap:butt;stroke-linejoin:miter;stroke-miterlimit:10;stroke-dasharray:none;stroke-opacity:1" transform="matrix(1.9333333,0,0,-1.9333333,269.51053,113.39033)" />
    <path id="path34" d="M -17.00807,-19.84285 H 17.00809 V 31.1814 h -34.01616 z" style="fill:#78a9ff;fill-opacity:1;fill-rule:nonzero;stroke:#78a9ff;stroke-width:0.3985;stroke-linecap:butt;stroke-linejoin:miter;stroke-miterlimit:10;stroke-dasharray:none;stroke-opacity:1" transform="matrix(1.9333333,0,0,-1.9333333,269.51053,113.39033)" />
    <g id="g34" aria-label="U&#10;f" transform="matrix(1.9333333,0,0,1.9333333,259.3586,105.18333)">
      <path id="path35" d="m 5.3182888,-4.5742187 c 0.088901,-0.3879311 0.2747845,-0.5818966 0.8405172,-0.6061423 0.080819,0 0.1454742,-0.048491 0.1454742,-0.153556 0,-0.048491 -0.040409,-0.1050647 -0.1212285,-0.1050647 -0.040409,0 -0.2101293,0.024246 -0.7839439,0.024246 -0.6384699,0 -0.7435345,-0.024246 -0.8162716,-0.024246 -0.1293103,0 -0.153556,0.080819 -0.153556,0.1454742 0,0.1050646 0.1050646,0.1131465 0.1778017,0.1131465 0.4849138,0.016164 0.4849138,0.234375 0.4849138,0.3475216 0,0.040409 -0.00808,0.080819 -0.016164,0.1293103 -0.016164,0.056573 -0.6788793,2.7235991 -0.7112069,2.8286638 -0.2828664,1.14762931 -1.2850216,1.77801724 -2.0770474,1.77801724 -0.549569,0 -1.0425647,-0.32327586 -1.0425647,-1.05872844 0,-0.1373922 0.024246,-0.3475216 0.056573,-0.4768319 l 0.7920259,-3.1923491 c 0.072737,-0.2828664 0.088901,-0.3556035 0.6707974,-0.3556035 0.1616379,0 0.2586207,0 0.2586207,-0.153556 0,-0.00808 -0.00808,-0.1050647 -0.1373923,-0.1050647 -0.153556,0 -0.3394396,0.016164 -0.4929957,0.024246 h -0.501077 c -0.7677802,0 -0.97790953,-0.024246 -1.0344828,-0.024246 -0.0242457,0 -0.15355604,0 -0.15355604,0.1454742 0,0.1131465 0.10506466,0.1131465 0.22629311,0.1131465 0.26670263,0 0.49299573,0 0.49299573,0.1293104 0,0.048491 -0.064655,0.3313577 -0.1131466,0.4929956 L 1.1318664,-3.85493 0.71968966,-2.1658136 c -0.11314656,0.4364224 -0.14547414,0.5576509 -0.14547414,0.7677802 0,0.93749999 0.73545258,1.56788793 1.68103448,1.56788793 1.0829741,0 2.1012931,-0.92133621 2.3599138,-1.94773703 z m 0,0" style="fill:#ffffff;fill-opacity:1;fill-rule:nonzero;stroke:none" />
      <path id="path36" d="m 8.30657,-0.90099677 h 0.6061423 c 0.1212284,0 0.2101293,0 0.2101293,-0.15355603 0,-0.088901 -0.080819,-0.088901 -0.1858836,-0.088901 H 8.3469795 c 0.1778018,-0.9779094 0.1778018,-0.9940732 0.2020474,-1.0991379 0.032328,-0.1293103 0.04041,-0.1858836 0.1373923,-0.2586207 0.064655,-0.056573 0.1212284,-0.080819 0.2101293,-0.080819 0.096983,0 0.1939655,0.016164 0.2747845,0.056573 -0.1212285,0.048491 -0.2262931,0.1778018 -0.2262931,0.3232759 0,0.1293103 0.1050646,0.2262931 0.2424569,0.2262931 0.1616379,0 0.3475215,-0.1293104 0.3475215,-0.3636854 0,-0.3313577 -0.3717672,-0.4364224 -0.6384698,-0.4364224 -0.2667026,0 -0.6707974,0.1293104 -0.856681,0.7273707 -0.048491,0.1454742 -0.064655,0.2667026 -0.1050647,0.4849138 -0.032328,0.1697198 -0.040409,0.2505388 -0.080819,0.4202586 H 7.36907 c -0.1212284,0 -0.2020474,0 -0.2020474,0.15355607 0,0.0889009 0.072737,0.0889009 0.1858837,0.0889009 H 7.8135744 C 7.5791994,0.43251616 7.4983804,0.89318427 7.4741347,1.0063308 7.2882511,2.0327317 7.2559235,2.089305 7.2074321,2.1943696 7.1185313,2.3398438 7.0215485,2.4610722 6.8679925,2.4610722 c -0.032328,0 -0.161638,-0.016164 -0.2586207,-0.056573 0.1212284,-0.048491 0.2262931,-0.1778017 0.2262931,-0.3232758 0,-0.1293104 -0.1050647,-0.2262931 -0.2424569,-0.2262931 -0.161638,0 -0.3475216,0.1293103 -0.3475216,0.3636853 0,0.3313578 0.3798492,0.4364224 0.6223061,0.4364224 0.3232758,0 0.5576508,-0.2667026 0.6627155,-0.4040948 0.2667026,-0.3475219 0.3960129,-1.0587288 0.4040948,-1.115302 z m 0,0" style="fill:#ffffff;fill-opacity:1;fill-rule:nonzero;stroke:none" />
    </g>
    <g id="g36" aria-label="Z&#10;f" transform="matrix(1.9333333,0,0,1.9333333,259.34893,187.3906)">
      <path id="path37" d="m 5.9152877,-5.1400733 c 0.056573,-0.064655 0.1050647,-0.1212284 0.1050647,-0.2182112 0,-0.080819 -0.056573,-0.080819 -0.2101293,-0.080819 H 2.2622705 c -0.2101293,0 -0.2182112,0.00808 -0.2667026,0.153556 l -0.4445043,1.4224138 c -0.00808,0.032328 -0.024246,0.080819 -0.024246,0.1212284 0,0.016164 0.00808,0.1050647 0.1212284,0.1050647 0.088901,0 0.1050647,-0.032328 0.1535561,-0.1858836 0.3798491,-1.0829742 1.0021551,-1.3577587 1.9719827,-1.3577587 h 1.3820043 l -4.55010772,4.88146556 c -0.0646552,0.0646552 -0.11314655,0.11314655 -0.11314655,0.21012931 0,0.08890086103 0.0727371,0.08890086103 0.21821121,0.08890086103 H 4.3878093 c 0.2101293,0 0.2182112,-0.008081901 0.2667026,-0.16163793103 l 0.5576508,-1.7456897 c 0.032328,-0.096983 0.032328,-0.1131465 0.032328,-0.1212284 0,-0.00808 -0.00808,-0.1131466 -0.1212284,-0.1131466 -0.048491,0 -0.072737,0.024246 -0.080819,0.032328 -0.016164,0.016164 -0.032328,0.032328 -0.040409,0.048491 -0.016164,0.048491 -0.016164,0.064655 -0.080819,0.234375 C 4.565611,-0.75160345 4.1049429,-0.28285345 2.844167,-0.28285345 H 1.3894256 Z m 0,0" style="fill:#121619;fill-opacity:1;fill-rule:nonzero;stroke:none" />
      <path id="path38" d="m 8.315611,-0.90111853 h 0.6061422 c 0.1212285,0 0.2101293,0 0.2101293,-0.15355607 0,-0.088901 -0.080819,-0.088901 -0.1858836,-0.088901 H 8.3560205 c 0.1778017,-0.9779095 0.1778017,-0.9940733 0.2020474,-1.099138 0.032328,-0.1293103 0.04041,-0.1858836 0.1373922,-0.2586207 0.064655,-0.056573 0.1212285,-0.080819 0.2101293,-0.080819 0.096983,0 0.1939656,0.016164 0.2747845,0.056573 -0.1212284,0.048491 -0.2262931,0.1778017 -0.2262931,0.3232758 0,0.1293104 0.1050647,0.2262931 0.2424569,0.2262931 0.1616379,0 0.3475216,-0.1293103 0.3475216,-0.3636853 0,-0.3313578 -0.3717673,-0.4364224 -0.6384699,-0.4364224 -0.2667025,0 -0.6707974,0.1293103 -0.856681,0.7273707 -0.048491,0.1454741 -0.064655,0.2667025 -0.1050647,0.4849137 -0.032328,0.1697199 -0.040409,0.2505388 -0.080819,0.4202587 H 7.378111 c -0.1212285,0 -0.2020474,0 -0.2020474,0.153556 0,0.0889009 0.072737,0.0889009 0.1858836,0.0889009 H 7.8226153 C 7.5882403,0.4323944 7.5074213,0.8930625 7.4831756,1.0062091 7.297292,2.0326099 7.2649644,2.0891832 7.2164731,2.1942478 7.1275722,2.339722 7.0305894,2.4609504 6.8770334,2.4609504 c -0.032328,0 -0.1616379,-0.016164 -0.2586207,-0.056573 0.1212285,-0.048491 0.2262931,-0.1778018 0.2262931,-0.3232759 0,-0.1293104 -0.1050646,-0.2262931 -0.2424569,-0.2262931 -0.1616379,0 -0.3475215,0.1293103 -0.3475215,0.3636853 0,0.3313578 0.3798491,0.4364224 0.622306,0.4364224 0.3232759,0 0.5576509,-0.2667025 0.6627155,-0.4040948 0.2667026,-0.3475215 0.396013,-1.0587284 0.4040948,-1.1153017 z m 0,0" style="fill:#121619;fill-opacity:1;fill-rule:nonzero;stroke:none" />
    </g>
  </g>
</svg>