<?xml version="1.0" encoding="UTF-8"?><!DOCTYPE svg  PUBLIC '-//W3C//DTD SVG 1.1//EN'  'http://www.w3.org/Graphics/SVG/1.1/DTD/svg11.dtd'><svg width="504.44pt" height="381.27pt" version="1.1" viewBox="0 0 504.44 381.27" xmlns="http://www.w3.org/2000/svg" xmlns:xlink="http://www.w3.org/1999/xlink"><defs><style type="text/css">*{stroke-linejoin: round; stroke-linecap: butt}</style></defs><path d="m0 381.27h504.44v-381.27h-504.44z" fill="#ffffff"/><path d="m44.474 339.84h446.4v-332.64h-446.4z" fill="#ffffff"/><path d="m64.765 339.84h40.582v-316.8h-40.582z" clip-path="url(#7d212b9cd8c)" fill="#ac557c"/><path d="m105.35 339.84h40.582-40.582z" clip-path="url(#7d212b9cd8c)" fill="#ac557c"/><path d="m145.93 339.84h40.582-40.582z" clip-path="url(#7d212b9cd8c)" fill="#ac557c"/><path d="m186.51 339.84h40.582-40.582z" clip-path="url(#7d212b9cd8c)" fill="#ac557c"/><path d="m227.09 339.84h40.582-40.582z" clip-path="url(#7d212b9cd8c)" fill="#ac557c"/><path d="m267.67 339.84h40.582-40.582z" clip-path="url(#7d212b9cd8c)" fill="#ac557c"/><path d="m308.26 339.84h40.582-40.582z" clip-path="url(#7d212b9cd8c)" fill="#ac557c"/><path d="m348.84 339.84h40.582-40.582z" clip-path="url(#7d212b9cd8c)" fill="#ac557c"/><path d="m389.42 339.84h40.582-40.582z" clip-path="url(#7d212b9cd8c)" fill="#ac557c"/><path d="m430 339.84h40.582v-269.87h-40.582z" clip-path="url(#7d212b9cd8c)" fill="#ac557c"/><defs><path id="3aafdb92f5b" d="m0 0v3.5" stroke="#000000" stroke-width=".8"/></defs><use x="85.056193" y="339.84" stroke="#000000" stroke-width=".8" xlink:href="#3aafdb92f5b"/><g transform="translate(78.694 354.44) scale(.1 -.1)"><defs><path id="DejaVuSans-36" transform="scale(.015625)" d="m2113 2584q-425 0-674-291-248-290-248-796 0-503 248-796 249-292 674-292t673 292q248 293 248 796 0 506-248 796-248 291-673 291zm1253 1979v-575q-238 112-480 171-242 60-480 60-625 0-955-422-329-422-376-1275 184 272 462 417 279 145 613 145 703 0 1111-427 408-426 408-1160 0-719-425-1154-425-434-1131-434-810 0-1238 620-428 621-428 1799 0 1106 525 1764t1409 658q238 0 480-47t505-140z"/><path id="DejaVuSans-33" transform="scale(.015625)" d="m2597 2516q453-97 707-404 255-306 255-756 0-690-475-1069-475-378-1350-378-293 0-604 58t-642 174v609q262-153 574-231 313-78 654-78 593 0 904 234t311 681q0 413-289 645-289 233-804 233h-544v519h569q465 0 712 186t247 536q0 359-255 551-254 193-729 193-260 0-557-57-297-56-653-174v562q360 100 674 150t592 50q719 0 1137-327 419-326 419-882 0-388-222-655t-631-370z"/></defs><use xlink:href="#DejaVuSans-36"/><use transform="translate(63.623)" xlink:href="#DejaVuSans-33"/></g><use x="152.692557" y="339.84" stroke="#000000" stroke-width=".8" xlink:href="#3aafdb92f5b"/><g transform="translate(146.33 354.44) scale(.1 -.1)"><defs><path id="DejaVuSans-34" transform="scale(.015625)" d="m2419 4116-1594-2491h1594v2491zm-166 550h794v-3041h666v-525h-666v-1100h-628v1100h-2106v609l1940 2957z"/></defs><use xlink:href="#DejaVuSans-36"/><use transform="translate(63.623)" xlink:href="#DejaVuSans-34"/></g><use x="220.32892" y="339.84" stroke="#000000" stroke-width=".8" xlink:href="#3aafdb92f5b"/><g transform="translate(213.97 354.44) scale(.1 -.1)"><defs><path id="DejaVuSans-35" transform="scale(.015625)" d="m691 4666h2478v-532h-1900v-1143q137 47 274 70 138 23 276 23 781 0 1237-428 457-428 457-1159 0-753-469-1171-469-417-1322-417-294 0-599 50-304 50-629 150v635q281-153 581-228t634-75q541 0 856 284 316 284 316 772 0 487-316 771-315 285-856 285-253 0-505-56-251-56-513-175v2344z"/></defs><use xlink:href="#DejaVuSans-36"/><use transform="translate(63.623)" xlink:href="#DejaVuSans-35"/></g><use x="287.965284" y="339.84" stroke="#000000" stroke-width=".8" xlink:href="#3aafdb92f5b"/><g transform="translate(281.6 354.44) scale(.1 -.1)"><use xlink:href="#DejaVuSans-36"/><use transform="translate(63.623)" xlink:href="#DejaVuSans-36"/></g><use x="355.601648" y="339.84" stroke="#000000" stroke-width=".8" xlink:href="#3aafdb92f5b"/><g transform="translate(349.24 354.44) scale(.1 -.1)"><defs><path id="DejaVuSans-37" transform="scale(.015625)" d="m525 4666h3e3v-269l-1694-4397h-659l1594 4134h-2241v532z"/></defs><use xlink:href="#DejaVuSans-36"/><use transform="translate(63.623)" xlink:href="#DejaVuSans-37"/></g><use x="423.238011" y="339.84" stroke="#000000" stroke-width=".8" xlink:href="#3aafdb92f5b"/><g transform="translate(416.88 354.44) scale(.1 -.1)"><defs><path id="DejaVuSans-38" transform="scale(.015625)" d="m2034 2216q-450 0-708-241-257-241-257-662 0-422 257-663 258-241 708-241t709 242q260 243 260 662 0 421-258 662-257 241-711 241zm-631 268q-406 100-633 378-226 279-226 679 0 559 398 884 399 325 1092 325 697 0 1094-325t397-884q0-400-227-679-226-278-629-378 456-106 710-416 255-309 255-755 0-679-414-1042-414-362-1186-362-771 0-1186 362-414 363-414 1042 0 446 256 755 257 310 713 416zm-231 997q0-362 226-565 227-203 636-203 407 0 636 203 230 203 230 565 0 363-230 566-229 203-636 203-409 0-636-203-226-203-226-566z"/></defs><use xlink:href="#DejaVuSans-36"/><use transform="translate(63.623)" xlink:href="#DejaVuSans-38"/></g><use x="490.874375" y="339.84" stroke="#000000" stroke-width=".8" xlink:href="#3aafdb92f5b"/><g transform="translate(484.51 354.44) scale(.1 -.1)"><defs><path id="DejaVuSans-39" transform="scale(.015625)" d="m703 97v575q238-113 481-172 244-59 479-59 625 0 954 420 330 420 377 1277-181-269-460-413-278-144-615-144-700 0-1108 423-408 424-408 1159 0 718 425 1152 425 435 1131 435 810 0 1236-621 427-620 427-1801 0-1103-524-1761-523-658-1407-658-238 0-482 47-243 47-506 141zm1256 1978q425 0 673 290 249 291 249 798 0 503-249 795-248 292-673 292t-673-292-248-795q0-507 248-798 248-290 673-290z"/></defs><use xlink:href="#DejaVuSans-36"/><use transform="translate(63.623)" xlink:href="#DejaVuSans-39"/></g><g transform="translate(246.35 371.16) scale(.14 -.14)"><defs><path id="DejaVuSans-44" transform="scale(.015625)" d="m1259 4147v-3628h763q966 0 1414 437 448 438 448 1382 0 937-448 1373t-1414 436h-763zm-631 519h1297q1356 0 1990-564 635-564 635-1764 0-1207-638-1773-637-565-1987-565h-1297v4666z"/><path id="DejaVuSans-65" transform="scale(.015625)" d="m3597 1894v-281h-2644q38-594 358-905t892-311q331 0 642 81t618 244v-544q-310-131-635-200t-659-69q-838 0-1327 487-489 488-489 1320 0 859 464 1363 464 505 1252 505 706 0 1117-455 411-454 411-1235zm-575 169q-6 471-264 752-258 282-683 282-481 0-770-272t-333-766l2050 4z"/><path id="DejaVuSans-70" transform="scale(.015625)" d="m1159 525v-1856h-578v4831h578v-531q182 312 458 463 277 152 661 152 638 0 1036-506 399-506 399-1331t-399-1332q-398-506-1036-506-384 0-661 152-276 152-458 464zm1957 1222q0 634-261 995t-717 361q-457 0-718-361t-261-995 261-995 718-361q456 0 717 361t261 995z"/><path id="DejaVuSans-74" transform="scale(.015625)" d="m1172 4494v-994h1184v-447h-1184v-1900q0-428 117-550t477-122h590v-481h-590q-666 0-919 248-253 249-253 905v1900h-422v447h422v994h578z"/><path id="DejaVuSans-68" transform="scale(.015625)" d="m3513 2113v-2113h-575v2094q0 497-194 743-194 247-581 247-466 0-735-297-269-296-269-809v-1978h-578v4863h578v-1907q207 316 486 472 280 156 646 156 603 0 912-373 310-373 310-1098z"/></defs><use xlink:href="#DejaVuSans-44"/><use transform="translate(77.002)" xlink:href="#DejaVuSans-65"/><use transform="translate(138.53)" xlink:href="#DejaVuSans-70"/><use transform="translate(202)" xlink:href="#DejaVuSans-74"/><use transform="translate(241.21)" xlink:href="#DejaVuSans-68"/></g><defs><path id="329820d2908" d="m0 0h-3.5" stroke="#000000" stroke-width=".8"/></defs><use x="44.474375" y="339.84" stroke="#000000" stroke-width=".8" xlink:href="#329820d2908"/><g transform="translate(31.112 343.64) scale(.1 -.1)"><defs><path id="DejaVuSans-30" transform="scale(.015625)" d="m2034 4250q-487 0-733-480-245-479-245-1442 0-959 245-1439 246-480 733-480 491 0 736 480 246 480 246 1439 0 963-246 1442-245 480-736 480zm0 500q785 0 1199-621 414-620 414-1801 0-1178-414-1799-414-620-1199-620-784 0-1198 620-414 621-414 1799 0 1181 414 1801 414 621 1198 621z"/></defs><use xlink:href="#DejaVuSans-30"/></g><use x="44.474375" y="281.173333" stroke="#000000" stroke-width=".8" xlink:href="#329820d2908"/><g transform="translate(24.749 284.97) scale(.1 -.1)"><defs><path id="DejaVuSans-31" transform="scale(.015625)" d="m794 531h1031v3560l-1122-225v575l1116 225h631v-4135h1031v-531h-2687v531z"/></defs><use xlink:href="#DejaVuSans-31"/><use transform="translate(63.623)" xlink:href="#DejaVuSans-30"/></g><use x="44.474375" y="222.506667" stroke="#000000" stroke-width=".8" xlink:href="#329820d2908"/><g transform="translate(24.749 226.31) scale(.1 -.1)"><defs><path id="DejaVuSans-32" transform="scale(.015625)" d="m1228 531h2203v-531h-2962v531q359 372 979 998 621 627 780 809 303 340 423 576 121 236 121 464 0 372-261 606-261 235-680 235-297 0-627-103-329-103-704-313v638q381 153 712 231 332 78 607 78 725 0 1156-363 431-362 431-968 0-288-108-546-107-257-392-607-78-91-497-524-418-433-1181-1211z"/></defs><use xlink:href="#DejaVuSans-32"/><use transform="translate(63.623)" xlink:href="#DejaVuSans-30"/></g><use x="44.474375" y="163.84" stroke="#000000" stroke-width=".8" xlink:href="#329820d2908"/><g transform="translate(24.749 167.64) scale(.1 -.1)"><use xlink:href="#DejaVuSans-33"/><use transform="translate(63.623)" xlink:href="#DejaVuSans-30"/></g><use x="44.474375" y="105.173333" stroke="#000000" stroke-width=".8" xlink:href="#329820d2908"/><g transform="translate(24.749 108.97) scale(.1 -.1)"><use xlink:href="#DejaVuSans-34"/><use transform="translate(63.623)" xlink:href="#DejaVuSans-30"/></g><use x="44.474375" y="46.506667" stroke="#000000" stroke-width=".8" xlink:href="#329820d2908"/><g transform="translate(24.749 50.306) scale(.1 -.1)"><use xlink:href="#DejaVuSans-35"/><use transform="translate(63.623)" xlink:href="#DejaVuSans-30"/></g><g transform="translate(17.838 197.95) rotate(-90) scale(.14 -.14)"><defs><path id="DejaVuSans-43" transform="scale(.015625)" d="m4122 4306v-665q-319 297-680 443-361 147-767 147-800 0-1225-489t-425-1414q0-922 425-1411t1225-489q406 0 767 147t680 444v-660q-331-225-702-338-370-112-782-112-1060 0-1670 648-609 649-609 1771 0 1125 609 1773 610 649 1670 649 418 0 788-111 371-111 696-333z"/><path id="DejaVuSans-6f" transform="scale(.015625)" d="m1959 3097q-462 0-731-361t-269-989 267-989q268-361 733-361 460 0 728 362 269 363 269 988 0 622-269 986-268 364-728 364zm0 487q750 0 1178-488 429-487 429-1349 0-859-429-1349-428-489-1178-489-753 0-1180 489-426 490-426 1349 0 862 426 1349 427 488 1180 488z"/><path id="DejaVuSans-75" transform="scale(.015625)" d="m544 1381v2119h575v-2097q0-497 193-746 194-248 582-248 465 0 735 297 271 297 271 810v1984h575v-3500h-575v538q-209-319-486-474-276-155-642-155-603 0-916 375-312 375-312 1097zm1447 2203z"/><path id="DejaVuSans-6e" transform="scale(.015625)" d="m3513 2113v-2113h-575v2094q0 497-194 743-194 247-581 247-466 0-735-297-269-296-269-809v-1978h-578v3500h578v-544q207 316 486 472 280 156 646 156 603 0 912-373 310-373 310-1098z"/><path id="DejaVuSans-73" transform="scale(.015625)" d="m2834 3397v-544q-243 125-506 187-262 63-544 63-428 0-642-131t-214-394q0-200 153-314t616-217l197-44q612-131 870-370t258-667q0-488-386-773-386-284-1061-284-281 0-586 55t-642 164v594q319-166 628-249 309-82 613-82 406 0 624 139 219 139 219 392 0 234-158 359-157 125-692 241l-200 47q-534 112-772 345-237 233-237 639 0 494 350 762 350 269 994 269 318 0 599-47 282-46 519-140z"/></defs><use xlink:href="#DejaVuSans-43"/><use transform="translate(69.824)" xlink:href="#DejaVuSans-6f"/><use transform="translate(131.01)" xlink:href="#DejaVuSans-75"/><use transform="translate(194.38)" xlink:href="#DejaVuSans-6e"/><use transform="translate(257.76)" xlink:href="#DejaVuSans-74"/><use transform="translate(296.97)" xlink:href="#DejaVuSans-73"/></g><path d="m44.474 339.84v-332.64" fill="none" stroke="#000000" stroke-linecap="square" stroke-width=".8"/><path d="m490.87 339.84v-332.64" fill="none" stroke="#000000" stroke-linecap="square" stroke-width=".8"/><path d="m44.474 339.84h446.4" fill="none" stroke="#000000" stroke-linecap="square" stroke-width=".8"/><path d="m44.474 7.2h446.4" fill="none" stroke="#000000" stroke-linecap="square" stroke-width=".8"/><defs><clipPath id="7d212b9cd8c"><rect x="44.474" y="7.2" width="446.4" height="332.64"/></clipPath></defs></svg>