<?xml version="1.0" encoding="UTF-8"?><!DOCTYPE svg  PUBLIC '-//W3C//DTD SVG 1.1//EN'  'http://www.w3.org/Graphics/SVG/1.1/DTD/svg11.dtd'><svg width="416.48pt" height="310.89pt" version="1.1" viewBox="0 0 416.48 310.89" xmlns="http://www.w3.org/2000/svg" xmlns:xlink="http://www.w3.org/1999/xlink"><defs><style type="text/css">*{stroke-linejoin: round; stroke-linecap: butt}</style></defs><path d="m0 310.89h416.48v-310.89h-416.48z" fill="#ffffff"/><path d="m52.161 273.31h357.12v-266.11h-357.12z" fill="#ffffff"/><defs><path id="74202237dc5" d="m0 0v3.5" stroke="#000000" stroke-width=".8"/></defs><use x="65.080863" y="273.312" stroke="#000000" stroke-width=".8" xlink:href="#74202237dc5"/><g transform="translate(61.9 287.91) scale(.1 -.1)"><defs><path id="DejaVuSans-30" transform="scale(.015625)" d="m2034 4250q-487 0-733-480-245-479-245-1442 0-959 245-1439 246-480 733-480 491 0 736 480 246 480 246 1439 0 963-246 1442-245 480-736 480zm0 500q785 0 1199-621 414-620 414-1801 0-1178-414-1799-414-620-1199-620-784 0-1198 620-414 621-414 1799 0 1181 414 1801 414 621 1198 621z"/></defs><use xlink:href="#DejaVuSans-30"/></g><use x="131.336893" y="273.312" stroke="#000000" stroke-width=".8" xlink:href="#74202237dc5"/><g transform="translate(124.97 287.91) scale(.1 -.1)"><defs><path id="DejaVuSans-32" transform="scale(.015625)" d="m1228 531h2203v-531h-2962v531q359 372 979 998 621 627 780 809 303 340 423 576 121 236 121 464 0 372-261 606-261 235-680 235-297 0-627-103-329-103-704-313v638q381 153 712 231 332 78 607 78 725 0 1156-363 431-362 431-968 0-288-108-546-107-257-392-607-78-91-497-524-418-433-1181-1211z"/></defs><use xlink:href="#DejaVuSans-32"/><use transform="translate(63.623)" xlink:href="#DejaVuSans-30"/></g><use x="197.592923" y="273.312" stroke="#000000" stroke-width=".8" xlink:href="#74202237dc5"/><g transform="translate(191.23 287.91) scale(.1 -.1)"><defs><path id="DejaVuSans-34" transform="scale(.015625)" d="m2419 4116-1594-2491h1594v2491zm-166 550h794v-3041h666v-525h-666v-1100h-628v1100h-2106v609l1940 2957z"/></defs><use xlink:href="#DejaVuSans-34"/><use transform="translate(63.623)" xlink:href="#DejaVuSans-30"/></g><use x="263.848952" y="273.312" stroke="#000000" stroke-width=".8" xlink:href="#74202237dc5"/><g transform="translate(257.49 287.91) scale(.1 -.1)"><defs><path id="DejaVuSans-36" transform="scale(.015625)" d="m2113 2584q-425 0-674-291-248-290-248-796 0-503 248-796 249-292 674-292t673 292q248 293 248 796 0 506-248 796-248 291-673 291zm1253 1979v-575q-238 112-480 171-242 60-480 60-625 0-955-422-329-422-376-1275 184 272 462 417 279 145 613 145 703 0 1111-427 408-426 408-1160 0-719-425-1154-425-434-1131-434-810 0-1238 620-428 621-428 1799 0 1106 525 1764t1409 658q238 0 480-47t505-140z"/></defs><use xlink:href="#DejaVuSans-36"/><use transform="translate(63.623)" xlink:href="#DejaVuSans-30"/></g><use x="330.104982" y="273.312" stroke="#000000" stroke-width=".8" xlink:href="#74202237dc5"/><g transform="translate(323.74 287.91) scale(.1 -.1)"><defs><path id="DejaVuSans-38" transform="scale(.015625)" d="m2034 2216q-450 0-708-241-257-241-257-662 0-422 257-663 258-241 708-241t709 242q260 243 260 662 0 421-258 662-257 241-711 241zm-631 268q-406 100-633 378-226 279-226 679 0 559 398 884 399 325 1092 325 697 0 1094-325t397-884q0-400-227-679-226-278-629-378 456-106 710-416 255-309 255-755 0-679-414-1042-414-362-1186-362-771 0-1186 362-414 363-414 1042 0 446 256 755 257 310 713 416zm-231 997q0-362 226-565 227-203 636-203 407 0 636 203 230 203 230 565 0 363-230 566-229 203-636 203-409 0-636-203-226-203-226-566z"/></defs><use xlink:href="#DejaVuSans-38"/><use transform="translate(63.623)" xlink:href="#DejaVuSans-30"/></g><use x="396.361012" y="273.312" stroke="#000000" stroke-width=".8" xlink:href="#74202237dc5"/><g transform="translate(386.82 287.91) scale(.1 -.1)"><defs><path id="DejaVuSans-31" transform="scale(.015625)" d="m794 531h1031v3560l-1122-225v575l1116 225h631v-4135h1031v-531h-2687v531z"/></defs><use xlink:href="#DejaVuSans-31"/><use transform="translate(63.623)" xlink:href="#DejaVuSans-30"/><use transform="translate(127.25)" xlink:href="#DejaVuSans-30"/></g><g transform="translate(165.57 301.59) scale(.1 -.1)"><defs><path id="DejaVuSans-44" transform="scale(.015625)" d="m1259 4147v-3628h763q966 0 1414 437 448 438 448 1382 0 937-448 1373t-1414 436h-763zm-631 519h1297q1356 0 1990-564 635-564 635-1764 0-1207-638-1773-637-565-1987-565h-1297v4666z"/><path id="DejaVuSans-69" transform="scale(.015625)" d="m603 3500h575v-3500h-575v3500zm0 1363h575v-729h-575v729z"/><path id="DejaVuSans-73" transform="scale(.015625)" d="m2834 3397v-544q-243 125-506 187-262 63-544 63-428 0-642-131t-214-394q0-200 153-314t616-217l197-44q612-131 870-370t258-667q0-488-386-773-386-284-1061-284-281 0-586 55t-642 164v594q319-166 628-249 309-82 613-82 406 0 624 139 219 139 219 392 0 234-158 359-157 125-692 241l-200 47q-534 112-772 345-237 233-237 639 0 494 350 762 350 269 994 269 318 0 599-47 282-46 519-140z"/><path id="DejaVuSans-74" transform="scale(.015625)" d="m1172 4494v-994h1184v-447h-1184v-1900q0-428 117-550t477-122h590v-481h-590q-666 0-919 248-253 249-253 905v1900h-422v447h422v994h578z"/><path id="DejaVuSans-61" transform="scale(.015625)" d="m2194 1759q-697 0-966-159t-269-544q0-306 202-486 202-179 548-179 479 0 768 339t289 901v128h-572zm1147 238v-1997h-575v531q-197-318-491-470t-719-152q-537 0-855 302-317 302-317 808 0 590 395 890 396 300 1180 300h807v57q0 397-261 614t-733 217q-300 0-585-72-284-72-546-216v532q315 122 612 182 297 61 578 61 760 0 1135-394 375-393 375-1193z"/><path id="DejaVuSans-6e" transform="scale(.015625)" d="m3513 2113v-2113h-575v2094q0 497-194 743-194 247-581 247-466 0-735-297-269-296-269-809v-1978h-578v3500h578v-544q207 316 486 472 280 156 646 156 603 0 912-373 310-373 310-1098z"/><path id="DejaVuSans-63" transform="scale(.015625)" d="m3122 3366v-538q-244 135-489 202t-495 67q-560 0-870-355-309-354-309-995t309-996q310-354 870-354 250 0 495 67t489 202v-532q-241-112-499-168-257-57-548-57-791 0-1257 497-465 497-465 1341 0 856 470 1346 471 491 1290 491 265 0 518-55 253-54 491-163z"/><path id="DejaVuSans-65" transform="scale(.015625)" d="m3597 1894v-281h-2644q38-594 358-905t892-311q331 0 642 81t618 244v-544q-310-131-635-200t-659-69q-838 0-1327 487-489 488-489 1320 0 859 464 1363 464 505 1252 505 706 0 1117-455 411-454 411-1235zm-575 169q-6 471-264 752-258 282-683 282-481 0-770-272t-333-766l2050 4z"/><path id="DejaVuSans-62" transform="scale(.015625)" d="m3116 1747q0 634-261 995t-717 361q-457 0-718-361t-261-995 261-995 718-361q456 0 717 361t261 995zm-1957 1222q182 312 458 463 277 152 661 152 638 0 1036-506 399-506 399-1331t-399-1332q-398-506-1036-506-384 0-661 152-276 152-458 464v-525h-578v4863h578v-1894z"/><path id="DejaVuSans-77" transform="scale(.015625)" d="m269 3500h575l719-2731 715 2731h678l719-2731 716 2731h575l-916-3500h-678l-753 2869-756-2869h-679l-915 3500z"/><path id="DejaVuSans-71" transform="scale(.015625)" d="m947 1747q0-634 261-995t717-361 718 361q263 361 263 995t-263 995q-262 361-718 361t-717-361-261-995zm1959-1222q-181-312-458-464-276-152-664-152-634 0-1033 506-398 507-398 1332t398 1331q399 506 1033 506 388 0 664-152 277-151 458-463v531h575v-4831h-575v1856z"/><path id="DejaVuSans-75" transform="scale(.015625)" d="m544 1381v2119h575v-2097q0-497 193-746 194-248 582-248 465 0 735 297 271 297 271 810v1984h575v-3500h-575v538q-209-319-486-474-276-155-642-155-603 0-916 375-312 375-312 1097zm1447 2203z"/><path id="DejaVuSans-Oblique-69" transform="scale(.015625)" d="m1172 4863h575l-141-729h-575l141 729zm-263-1363h575l-684-3500h-575l684 3500z"/></defs><use transform="translate(0 .015625)" xlink:href="#DejaVuSans-44"/><use transform="translate(77.002 .015625)" xlink:href="#DejaVuSans-69"/><use transform="translate(104.79 .015625)" xlink:href="#DejaVuSans-73"/><use transform="translate(156.88 .015625)" xlink:href="#DejaVuSans-74"/><use transform="translate(196.09 .015625)" xlink:href="#DejaVuSans-61"/><use transform="translate(257.37 .015625)" xlink:href="#DejaVuSans-6e"/><use transform="translate(320.75 .015625)" xlink:href="#DejaVuSans-63"/><use transform="translate(375.73 .015625)" xlink:href="#DejaVuSans-65"/><use transform="translate(437.26 .015625)" xlink:href="#DejaVuSans-20"/><use transform="translate(469.04 .015625)" xlink:href="#DejaVuSans-62"/><use transform="translate(532.52 .015625)" xlink:href="#DejaVuSans-65"/><use transform="translate(594.04 .015625)" xlink:href="#DejaVuSans-74"/><use transform="translate(633.25 .015625)" xlink:href="#DejaVuSans-77"/><use transform="translate(715.04 .015625)" xlink:href="#DejaVuSans-65"/><use transform="translate(776.56 .015625)" xlink:href="#DejaVuSans-65"/><use transform="translate(838.09 .015625)" xlink:href="#DejaVuSans-6e"/><use transform="translate(901.46 .015625)" xlink:href="#DejaVuSans-20"/><use transform="translate(933.25 .015625)" xlink:href="#DejaVuSans-71"/><use transform="translate(996.73 .015625)" xlink:href="#DejaVuSans-75"/><use transform="translate(1060.1 .015625)" xlink:href="#DejaVuSans-62"/><use transform="translate(1123.6 .015625)" xlink:href="#DejaVuSans-69"/><use transform="translate(1151.4 .015625)" xlink:href="#DejaVuSans-74"/><use transform="translate(1190.6 .015625)" xlink:href="#DejaVuSans-73"/><use transform="translate(1242.7 .015625)" xlink:href="#DejaVuSans-20"/><use transform="translate(1274.5 .015625)" xlink:href="#DejaVuSans-Oblique-69"/></g><defs><path id="a2b1e3c4c59" d="m0 0h-3.5" stroke="#000000" stroke-width=".8"/></defs><use x="52.160938" y="259.624644" stroke="#000000" stroke-width=".8" xlink:href="#a2b1e3c4c59"/><g transform="translate(20.878 263.42) scale(.1 -.1)"><defs><path id="DejaVuSans-2212" transform="scale(.015625)" d="m678 2272h4006v-531h-4006v531z"/><path id="DejaVuSans-2e" transform="scale(.015625)" d="m684 794h660v-794h-660v794z"/></defs><use xlink:href="#DejaVuSans-2212"/><use transform="translate(83.789)" xlink:href="#DejaVuSans-30"/><use transform="translate(147.41)" xlink:href="#DejaVuSans-2e"/><use transform="translate(179.2)" xlink:href="#DejaVuSans-32"/></g><use x="52.160938" y="219.56987" stroke="#000000" stroke-width=".8" xlink:href="#a2b1e3c4c59"/><g transform="translate(29.258 223.37) scale(.1 -.1)"><use xlink:href="#DejaVuSans-30"/><use transform="translate(63.623)" xlink:href="#DejaVuSans-2e"/><use transform="translate(95.41)" xlink:href="#DejaVuSans-30"/></g><use x="52.160938" y="179.515096" stroke="#000000" stroke-width=".8" xlink:href="#a2b1e3c4c59"/><g transform="translate(29.258 183.31) scale(.1 -.1)"><use xlink:href="#DejaVuSans-30"/><use transform="translate(63.623)" xlink:href="#DejaVuSans-2e"/><use transform="translate(95.41)" xlink:href="#DejaVuSans-32"/></g><use x="52.160938" y="139.460322" stroke="#000000" stroke-width=".8" xlink:href="#a2b1e3c4c59"/><g transform="translate(29.258 143.26) scale(.1 -.1)"><use xlink:href="#DejaVuSans-30"/><use transform="translate(63.623)" xlink:href="#DejaVuSans-2e"/><use transform="translate(95.41)" xlink:href="#DejaVuSans-34"/></g><use x="52.160938" y="99.405548" stroke="#000000" stroke-width=".8" xlink:href="#a2b1e3c4c59"/><g transform="translate(29.258 103.2) scale(.1 -.1)"><use xlink:href="#DejaVuSans-30"/><use transform="translate(63.623)" xlink:href="#DejaVuSans-2e"/><use transform="translate(95.41)" xlink:href="#DejaVuSans-36"/></g><use x="52.160938" y="59.350774" stroke="#000000" stroke-width=".8" xlink:href="#a2b1e3c4c59"/><g transform="translate(29.258 63.15) scale(.1 -.1)"><use xlink:href="#DejaVuSans-30"/><use transform="translate(63.623)" xlink:href="#DejaVuSans-2e"/><use transform="translate(95.41)" xlink:href="#DejaVuSans-38"/></g><use x="52.160938" y="19.296" stroke="#000000" stroke-width=".8" xlink:href="#a2b1e3c4c59"/><g transform="translate(29.258 23.095) scale(.1 -.1)"><use xlink:href="#DejaVuSans-31"/><use transform="translate(63.623)" xlink:href="#DejaVuSans-2e"/><use transform="translate(95.41)" xlink:href="#DejaVuSans-30"/></g><g transform="translate(14.798 171.66) rotate(-90) scale(.1 -.1)"><defs><path id="DejaVuSans-27e8" transform="scale(.015625)" d="m572 2006 881 2850h531l-881-2850 881-2850h-531l-881 2850z"/><path id="DejaVuSans-Oblique-5a" transform="scale(.015625)" d="m838 4666h3662l-91-482-3615-3653h2975l-100-531h-3810l91 481 3616 3653h-2828l100 532z"/><path id="DejaVuSans-27e9" transform="scale(.015625)" d="m1925 2006-881-2850h-531l881 2850-881 2850h531l881-2850z"/><path id="DejaVuSans-2f" transform="scale(.015625)" d="m1625 4666h531l-1625-5260h-531l1625 5260z"/></defs><use transform="translate(0 .125)" xlink:href="#DejaVuSans-27e8"/><use transform="translate(39.014 .125)" xlink:href="#DejaVuSans-Oblique-5a"/><use transform="translate(107.52 -16.281) scale(.7)" xlink:href="#DejaVuSans-Oblique-69"/><use transform="translate(129.7 .125)" xlink:href="#DejaVuSans-Oblique-5a"/><use transform="translate(198.21 -16.281) scale(.7)" xlink:href="#DejaVuSans-30"/><use transform="translate(245.48 .125)" xlink:href="#DejaVuSans-27e9"/><use transform="translate(284.49 .125)" xlink:href="#DejaVuSans-2f"/><use transform="translate(318.18 .125)" xlink:href="#DejaVuSans-27e8"/><use transform="translate(357.2 .125)" xlink:href="#DejaVuSans-Oblique-5a"/><use transform="translate(425.7 -16.281) scale(.7)" xlink:href="#DejaVuSans-31"/><use transform="translate(472.97 .125)" xlink:href="#DejaVuSans-Oblique-5a"/><use transform="translate(541.48 -16.281) scale(.7)" xlink:href="#DejaVuSans-30"/><use transform="translate(588.75 .125)" xlink:href="#DejaVuSans-27e9"/></g><path d="m68.394 19.296 3.3128 30.135 3.3128 32.886 3.3128 16.076 3.3128 22.48 3.3128 3.2754 3.3128 24.53 3.3128 4.7647 3.3128 16.642 3.3128 5.5083 3.3128 10.325 3.3128 4.5153 3.3128 6.8869 3.3128-0.78844 3.3128 9.4888 3.3128-3.8592 3.3128 10.618 3.3128 0.85381 3.3128 5.9364 3.3128 0.533 3.3128-1.0534 3.3128-5.5154 3.3128 7.3598 3.3128-0.78048 3.3128 6.6612 3.3128-0.89421 3.3128-4.253 3.3128-0.32193 3.3128 1.8333 3.3128 1.8856 3.3128 0.76144 3.3128-0.73673 3.3128-2.5104 3.3128-5.9273 3.3128 5.2631 3.3128-5.7505 3.3128 5.6369 3.3128 3.2384 3.3128-4.7256 3.3128-0.35845 3.3128-0.83678 3.3128 0.96575 3.3128 1.7764 3.3128 1.8596 3.3128-4.1104 3.3128 4.9893 3.3128 0.53831 3.3128 3.1631 3.3128 1.9254 3.3128-0.74008 3.3128-4.2945 3.3128-3.0972 3.3128 6.4964 3.3128 4.3273 3.3128-6.9378 3.3128 4.2317 3.3128-1.366 3.3128-3.7844 3.3128-2.101 3.3128 9.7214 3.3128 28.574 3.3128-37.645 3.3128 1.5061 3.3128-2.7551 3.3128 1.7119 3.3128-8.4492 3.3128 1.7974 3.3128-0.26204 3.3128 1.7877 3.3128 6.1047 3.3128-2.0671 3.3128 2.4798 3.3128-2.715 3.3128-3.14 3.3128 7.967 3.3128-1.9758 3.3128-1.8883 3.3128-4.1029 3.3128-0.16498 3.3128 3.5236 3.3128-3.6905 3.3128 1.9235 3.3128-4.8922 3.3128 6.3126 3.3128 2.664 3.3128-7.6885 3.3128 6.5995 3.3128-4.9625 3.3128 5.5554 3.3128 0.57304 3.3128-6.9201 3.3128-2.5544 3.3128 7.2474 3.3128 1.1434 3.3128-5.8653 3.3128 0.44146 3.3128 1.5851 3.3128 1.0054 3.3128-3.1799" clip-path="url(#893fe9f7941)" fill="none" stroke="#1f77b4" stroke-linecap="square" stroke-width="1.5"/><defs><path id="c8b4cf7db5a" d="m0 3c0.79561 0 1.5587-0.3161 2.1213-0.87868 0.56258-0.56258 0.87868-1.3257 0.87868-2.1213s-0.3161-1.5587-0.87868-2.1213c-0.56258-0.56258-1.3257-0.87868-2.1213-0.87868s-1.5587 0.3161-2.1213 0.87868c-0.56258 0.56258-0.87868 1.3257-0.87868 2.1213s0.3161 1.5587 0.87868 2.1213c0.56258 0.56258 1.3257 0.87868 2.1213 0.87868z" stroke="#1f77b4"/></defs><g clip-path="url(#893fe9f7941)" fill="#1f77b4" stroke="#1f77b4"><use x="68.393665" y="19.296" xlink:href="#c8b4cf7db5a"/><use x="71.706466" y="49.431413" xlink:href="#c8b4cf7db5a"/><use x="75.019268" y="82.317354" xlink:href="#c8b4cf7db5a"/><use x="78.332069" y="98.392961" xlink:href="#c8b4cf7db5a"/><use x="81.644871" y="120.872849" xlink:href="#c8b4cf7db5a"/><use x="84.957672" y="124.148239" xlink:href="#c8b4cf7db5a"/><use x="88.270474" y="148.678043" xlink:href="#c8b4cf7db5a"/><use x="91.583275" y="153.442759" xlink:href="#c8b4cf7db5a"/><use x="94.896077" y="170.085018" xlink:href="#c8b4cf7db5a"/><use x="98.208878" y="175.593315" xlink:href="#c8b4cf7db5a"/><use x="101.52168" y="185.918226" xlink:href="#c8b4cf7db5a"/><use x="104.834481" y="190.433535" xlink:href="#c8b4cf7db5a"/><use x="108.147283" y="197.320463" xlink:href="#c8b4cf7db5a"/><use x="111.460084" y="196.532023" xlink:href="#c8b4cf7db5a"/><use x="114.772886" y="206.020803" xlink:href="#c8b4cf7db5a"/><use x="118.085687" y="202.161652" xlink:href="#c8b4cf7db5a"/><use x="121.398489" y="212.779686" xlink:href="#c8b4cf7db5a"/><use x="124.71129" y="213.633499" xlink:href="#c8b4cf7db5a"/><use x="128.024091" y="219.56987" xlink:href="#c8b4cf7db5a"/><use x="131.336893" y="220.102873" xlink:href="#c8b4cf7db5a"/><use x="134.649694" y="219.049522" xlink:href="#c8b4cf7db5a"/><use x="137.962496" y="213.534154" xlink:href="#c8b4cf7db5a"/><use x="141.275297" y="220.894003" xlink:href="#c8b4cf7db5a"/><use x="144.588099" y="220.113524" xlink:href="#c8b4cf7db5a"/><use x="147.9009" y="226.774696" xlink:href="#c8b4cf7db5a"/><use x="151.213702" y="225.880487" xlink:href="#c8b4cf7db5a"/><use x="154.526503" y="221.627437" xlink:href="#c8b4cf7db5a"/><use x="157.839305" y="221.305507" xlink:href="#c8b4cf7db5a"/><use x="161.152106" y="223.138812" xlink:href="#c8b4cf7db5a"/><use x="164.464908" y="225.024461" xlink:href="#c8b4cf7db5a"/><use x="167.777709" y="225.785904" xlink:href="#c8b4cf7db5a"/><use x="171.090511" y="225.049175" xlink:href="#c8b4cf7db5a"/><use x="174.403312" y="222.538789" xlink:href="#c8b4cf7db5a"/><use x="177.716114" y="216.611477" xlink:href="#c8b4cf7db5a"/><use x="181.028915" y="221.874532" xlink:href="#c8b4cf7db5a"/><use x="184.341717" y="216.12406" xlink:href="#c8b4cf7db5a"/><use x="187.654518" y="221.760965" xlink:href="#c8b4cf7db5a"/><use x="190.96732" y="224.999343" xlink:href="#c8b4cf7db5a"/><use x="194.280121" y="220.273777" xlink:href="#c8b4cf7db5a"/><use x="197.592923" y="219.915325" xlink:href="#c8b4cf7db5a"/><use x="200.905724" y="219.078542" xlink:href="#c8b4cf7db5a"/><use x="204.218526" y="220.044291" xlink:href="#c8b4cf7db5a"/><use x="207.531327" y="221.820655" xlink:href="#c8b4cf7db5a"/><use x="210.844129" y="223.68024" xlink:href="#c8b4cf7db5a"/><use x="214.15693" y="219.56987" xlink:href="#c8b4cf7db5a"/><use x="217.469732" y="224.55917" xlink:href="#c8b4cf7db5a"/><use x="220.782533" y="225.097483" xlink:href="#c8b4cf7db5a"/><use x="224.095335" y="228.26058" xlink:href="#c8b4cf7db5a"/><use x="227.408136" y="230.185951" xlink:href="#c8b4cf7db5a"/><use x="230.720938" y="229.445866" xlink:href="#c8b4cf7db5a"/><use x="234.033739" y="225.151379" xlink:href="#c8b4cf7db5a"/><use x="237.34654" y="222.054183" xlink:href="#c8b4cf7db5a"/><use x="240.659342" y="228.55063" xlink:href="#c8b4cf7db5a"/><use x="243.972143" y="232.877961" xlink:href="#c8b4cf7db5a"/><use x="247.284945" y="225.940134" xlink:href="#c8b4cf7db5a"/><use x="250.597746" y="230.171834" xlink:href="#c8b4cf7db5a"/><use x="253.910548" y="228.805864" xlink:href="#c8b4cf7db5a"/><use x="257.223349" y="225.021504" xlink:href="#c8b4cf7db5a"/><use x="260.536151" y="222.920505" xlink:href="#c8b4cf7db5a"/><use x="263.848952" y="232.641912" xlink:href="#c8b4cf7db5a"/><use x="267.161754" y="261.216" xlink:href="#c8b4cf7db5a"/><use x="270.474555" y="223.570889" xlink:href="#c8b4cf7db5a"/><use x="273.787357" y="225.076978" xlink:href="#c8b4cf7db5a"/><use x="277.100158" y="222.321866" xlink:href="#c8b4cf7db5a"/><use x="280.41296" y="224.033783" xlink:href="#c8b4cf7db5a"/><use x="283.725761" y="215.584538" xlink:href="#c8b4cf7db5a"/><use x="287.038563" y="217.381891" xlink:href="#c8b4cf7db5a"/><use x="290.351364" y="217.119856" xlink:href="#c8b4cf7db5a"/><use x="293.664166" y="218.907525" xlink:href="#c8b4cf7db5a"/><use x="296.976967" y="225.012203" xlink:href="#c8b4cf7db5a"/><use x="300.289769" y="222.945112" xlink:href="#c8b4cf7db5a"/><use x="303.60257" y="225.424881" xlink:href="#c8b4cf7db5a"/><use x="306.915372" y="222.709856" xlink:href="#c8b4cf7db5a"/><use x="310.228173" y="219.56987" xlink:href="#c8b4cf7db5a"/><use x="313.540975" y="227.536908" xlink:href="#c8b4cf7db5a"/><use x="316.853776" y="225.561073" xlink:href="#c8b4cf7db5a"/><use x="320.166578" y="223.672783" xlink:href="#c8b4cf7db5a"/><use x="323.479379" y="219.56987" xlink:href="#c8b4cf7db5a"/><use x="326.792181" y="219.404895" xlink:href="#c8b4cf7db5a"/><use x="330.104982" y="222.928482" xlink:href="#c8b4cf7db5a"/><use x="333.417784" y="219.237954" xlink:href="#c8b4cf7db5a"/><use x="336.730585" y="221.161471" xlink:href="#c8b4cf7db5a"/><use x="340.043386" y="216.269231" xlink:href="#c8b4cf7db5a"/><use x="343.356188" y="222.581854" xlink:href="#c8b4cf7db5a"/><use x="346.668989" y="225.245861" xlink:href="#c8b4cf7db5a"/><use x="349.981791" y="217.557381" xlink:href="#c8b4cf7db5a"/><use x="353.294592" y="224.156863" xlink:href="#c8b4cf7db5a"/><use x="356.607394" y="219.194382" xlink:href="#c8b4cf7db5a"/><use x="359.920195" y="224.749812" xlink:href="#c8b4cf7db5a"/><use x="363.232997" y="225.322852" xlink:href="#c8b4cf7db5a"/><use x="366.545798" y="218.402765" xlink:href="#c8b4cf7db5a"/><use x="369.8586" y="215.848347" xlink:href="#c8b4cf7db5a"/><use x="373.171401" y="223.095773" xlink:href="#c8b4cf7db5a"/><use x="376.484203" y="224.239126" xlink:href="#c8b4cf7db5a"/><use x="379.797004" y="218.373781" xlink:href="#c8b4cf7db5a"/><use x="383.109806" y="218.815243" xlink:href="#c8b4cf7db5a"/><use x="386.422607" y="220.400299" xlink:href="#c8b4cf7db5a"/><use x="389.735409" y="221.405663" xlink:href="#c8b4cf7db5a"/><use x="393.04821" y="218.225715" xlink:href="#c8b4cf7db5a"/></g><path d="m52.161 273.31v-266.11" fill="none" stroke="#000000" stroke-linecap="square" stroke-width=".8"/><path d="m409.28 273.31v-266.11" fill="none" stroke="#000000" stroke-linecap="square" stroke-width=".8"/><path d="m52.161 273.31h357.12" fill="none" stroke="#000000" stroke-linecap="square" stroke-width=".8"/><path d="m52.161 7.2h357.12" fill="none" stroke="#000000" stroke-linecap="square" stroke-width=".8"/><path d="m268.05 29.878h134.23q2 0 2-2v-13.678q0-2-2-2h-134.23q-2 0-2 2v13.678q0 2 2 2z" fill="#ffffff" opacity=".8" stroke="#cccccc"/><path d="m270.05 20.298h10 10" fill="none" stroke="#1f77b4" stroke-linecap="square" stroke-width="1.5"/><use x="280.046563" y="20.298437" fill="#1f77b4" stroke="#1f77b4" xlink:href="#c8b4cf7db5a"/><g transform="translate(298.05 23.798) scale(.1 -.1)"><defs><path id="DejaVuSans-2d" transform="scale(.015625)" d="m313 2009h1684v-512h-1684v512z"/><path id="DejaVuSans-47" transform="scale(.015625)" d="m3809 666v1253h-1031v519h1656v-2004q-365-259-806-392-440-133-940-133-1094 0-1712 639-617 640-617 1780 0 1144 617 1783 618 639 1712 639 456 0 867-113 411-112 758-331v-672q-350 297-744 447t-828 150q-857 0-1287-478-429-478-429-1425 0-944 429-1422 430-478 1287-478 334 0 596 58 263 58 472 180z"/><path id="DejaVuSans-48" transform="scale(.015625)" d="m628 4666h631v-1913h2294v1913h631v-4666h-631v2222h-2294v-2222h-631v4666z"/><path id="DejaVuSans-5a" transform="scale(.015625)" d="m359 4666h3666v-482l-2950-3653h3022v-531h-3809v481l2950 3653h-2879v532z"/></defs><use xlink:href="#DejaVuSans-31"/><use transform="translate(63.623)" xlink:href="#DejaVuSans-30"/><use transform="translate(127.25)" xlink:href="#DejaVuSans-30"/><use transform="translate(190.87)" xlink:href="#DejaVuSans-2d"/><use transform="translate(226.95)" xlink:href="#DejaVuSans-71"/><use transform="translate(290.43)" xlink:href="#DejaVuSans-75"/><use transform="translate(353.81)" xlink:href="#DejaVuSans-62"/><use transform="translate(417.29)" xlink:href="#DejaVuSans-69"/><use transform="translate(445.07)" xlink:href="#DejaVuSans-74"/><use transform="translate(484.28)" xlink:href="#DejaVuSans-20"/><use transform="translate(516.06)" xlink:href="#DejaVuSans-47"/><use transform="translate(593.55)" xlink:href="#DejaVuSans-48"/><use transform="translate(668.75)" xlink:href="#DejaVuSans-5a"/><use transform="translate(737.26)" xlink:href="#DejaVuSans-20"/><use transform="translate(769.04)" xlink:href="#DejaVuSans-73"/><use transform="translate(821.14)" xlink:href="#DejaVuSans-74"/><use transform="translate(860.35)" xlink:href="#DejaVuSans-61"/><use transform="translate(921.63)" xlink:href="#DejaVuSans-74"/><use transform="translate(960.84)" xlink:href="#DejaVuSans-65"/></g><defs><clipPath id="893fe9f7941"><rect x="52.161" y="7.2" width="357.12" height="266.11"/></clipPath></defs></svg>