<svg width="659" height="335" viewBox="0 0 659 335" fill="none" xmlns="http://www.w3.org/2000/svg">
<g clip-path="url(#clip0_35_2945)">
<rect x="0.5" y="0.5" width="658" height="334.319" fill="white" fill-opacity="0.8" stroke="#DDE1E6"/>
<rect opacity="0.4" y="287.171" width="659" height="40.9776" fill="#F2F4F8"/>
<rect opacity="0.4" y="205.215" width="659" height="40.9776" fill="#F2F4F8"/>
<rect opacity="0.4" y="123.26" width="659" height="40.9776" fill="#F2F4F8"/>
<rect opacity="0.4" y="41.3047" width="659" height="40.9776" fill="#F2F4F8"/>
<rect width="260" height="87" transform="translate(40 62.3193)" fill="#0043CE"/>
<path d="M65.302 101.319H68.578C71.014 101.319 72.582 99.6953 72.582 96.4333C72.582 93.1713 71.014 91.5473 68.578 91.5473H65.302V101.319ZM66.478 100.283V92.5833H68.578C70.188 92.5833 71.322 93.7033 71.322 95.6353V97.2313C71.322 99.1633 70.188 100.283 68.578 100.283H66.478ZM77.4586 101.487C78.8166 101.487 79.8526 100.815 80.3146 99.8353L79.5166 99.2613C79.1386 100.059 78.4386 100.507 77.5286 100.507C76.1846 100.507 75.3866 99.5693 75.3866 98.3233V97.9873H80.5806V97.4553C80.5806 95.4113 79.3906 93.9273 77.4586 93.9273C75.4986 93.9273 74.2106 95.4113 74.2106 97.7073C74.2106 100.003 75.4986 101.487 77.4586 101.487ZM77.4586 94.8653C78.6066 94.8653 79.3766 95.7193 79.3766 96.9933V97.1473H75.3866V97.0493C75.3866 95.7893 76.2406 94.8653 77.4586 94.8653ZM82.9782 101.319H84.0982V95.0753H85.6522V94.0953H84.0982V91.9393H85.6522V90.9593H84.5602C83.4962 90.9593 82.9782 91.6453 82.9782 92.6393V94.0953H81.8022V95.0753H82.9782V101.319ZM93.1652 101.319V100.339H92.3392V96.3633C92.3392 94.8373 91.3032 93.9273 89.5672 93.9273C88.2652 93.9273 87.3972 94.5713 87.0052 95.3413L87.6772 95.9713C88.0692 95.3133 88.6432 94.8933 89.5112 94.8933C90.6592 94.8933 91.2192 95.4533 91.2192 96.4753V97.1893H89.7912C87.6912 97.1893 86.7112 97.9453 86.7112 99.3033C86.7112 100.647 87.6072 101.487 89.1332 101.487C90.1412 101.487 90.9112 101.025 91.2192 100.143H91.2892C91.3732 100.815 91.7092 101.319 92.5352 101.319H93.1652ZM89.3152 100.535C88.4472 100.535 87.8872 100.129 87.8872 99.4153V99.1213C87.8872 98.4213 88.4612 98.0293 89.7352 98.0293H91.2192V99.2193C91.2192 99.9613 90.4212 100.535 89.3152 100.535ZM99.3757 101.319H100.496V94.0953H99.3757V99.0933C99.3757 100.045 98.5077 100.479 97.6257 100.479C96.5477 100.479 95.9737 99.8213 95.9737 98.5333V94.0953H94.8537V98.7293C94.8537 100.479 95.8057 101.487 97.2897 101.487C98.4937 101.487 99.0397 100.829 99.3197 100.143H99.3757V101.319ZM105.225 101.319V100.339H104.161V90.9593H103.041V100.157C103.041 100.829 103.461 101.319 104.231 101.319H105.225ZM109.943 101.319V100.339H108.473V95.0753H110.055V94.0953H108.473V92.0933H107.465V93.4373C107.465 93.9273 107.311 94.0953 106.835 94.0953H106.163V95.0753H107.353V100.129C107.353 100.829 107.773 101.319 108.543 101.319H109.943ZM118.34 101.487C120.44 101.487 121.7 100.339 121.7 98.5473C121.7 97.0913 120.874 96.2513 118.97 95.8173L118.172 95.6353C116.94 95.3553 116.338 94.9353 116.338 94.0113C116.338 92.9613 117.108 92.4153 118.354 92.4153C119.488 92.4153 120.23 92.8773 120.762 93.6193L121.644 92.9753C120.916 91.9393 119.88 91.3793 118.41 91.3793C116.492 91.3793 115.176 92.3173 115.176 94.0533C115.176 95.5513 116.156 96.3353 117.934 96.7413L118.732 96.9233C120.02 97.2173 120.538 97.6793 120.538 98.6033C120.538 99.7233 119.782 100.451 118.382 100.451C117.248 100.451 116.436 99.9613 115.75 99.0513L114.882 99.7793C115.666 100.843 116.772 101.487 118.34 101.487ZM126.774 101.319V100.339H125.304V95.0753H126.886V94.0953H125.304V92.0933H124.296V93.4373C124.296 93.9273 124.142 94.0953 123.666 94.0953H122.994V95.0753H124.184V100.129C124.184 100.829 124.604 101.319 125.374 101.319H126.774ZM134.727 101.319V100.339H133.901V96.3633C133.901 94.8373 132.865 93.9273 131.129 93.9273C129.827 93.9273 128.959 94.5713 128.567 95.3413L129.239 95.9713C129.631 95.3133 130.205 94.8933 131.073 94.8933C132.221 94.8933 132.781 95.4533 132.781 96.4753V97.1893H131.353C129.253 97.1893 128.273 97.9453 128.273 99.3033C128.273 100.647 129.169 101.487 130.695 101.487C131.703 101.487 132.473 101.025 132.781 100.143H132.851C132.935 100.815 133.271 101.319 134.097 101.319H134.727ZM130.877 100.535C130.009 100.535 129.449 100.129 129.449 99.4153V99.1213C129.449 98.4213 130.023 98.0293 131.297 98.0293H132.781V99.2193C132.781 99.9613 131.983 100.535 130.877 100.535ZM139.481 101.319V100.339H138.011V95.0753H139.593V94.0953H138.011V92.0933H137.003V93.4373C137.003 93.9273 136.849 94.0953 136.373 94.0953H135.701V95.0753H136.891V100.129C136.891 100.829 137.311 101.319 138.081 101.319H139.481ZM144.215 101.487C145.573 101.487 146.609 100.815 147.071 99.8353L146.273 99.2613C145.895 100.059 145.195 100.507 144.285 100.507C142.941 100.507 142.143 99.5693 142.143 98.3233V97.9873H147.337V97.4553C147.337 95.4113 146.147 93.9273 144.215 93.9273C142.255 93.9273 140.967 95.4113 140.967 97.7073C140.967 100.003 142.255 101.487 144.215 101.487ZM144.215 94.8653C145.363 94.8653 146.133 95.7193 146.133 96.9933V97.1473H142.143V97.0493C142.143 95.7893 142.997 94.8653 144.215 94.8653Z" fill="white"/>
<rect width="260" height="87" transform="translate(40 187.319)" fill="#0043CE"/>
<path d="M71.112 227.635H69.614V226.445C71.756 226.151 73.1 224.415 73.1 221.433C73.1 218.157 71.476 216.379 68.956 216.379C66.436 216.379 64.812 218.157 64.812 221.433C64.812 224.499 66.24 226.263 68.494 226.473V227.467C68.494 228.125 68.9 228.615 69.67 228.615H71.112V227.635ZM68.956 225.437C67.262 225.437 66.072 224.177 66.072 222.245V220.621C66.072 218.689 67.262 217.429 68.956 217.429C70.65 217.429 71.84 218.689 71.84 220.621V222.245C71.84 224.177 70.65 225.437 68.956 225.437ZM79.7141 226.319H80.8341V219.095H79.7141V224.093C79.7141 225.045 78.8461 225.479 77.9641 225.479C76.8861 225.479 76.3121 224.821 76.3121 223.533V219.095H75.1921V223.729C75.1921 225.479 76.1441 226.487 77.6281 226.487C78.8321 226.487 79.3781 225.829 79.6581 225.143H79.7141V226.319ZM89.2591 226.319V225.339H88.4331V221.363C88.4331 219.837 87.3971 218.927 85.6611 218.927C84.3591 218.927 83.4911 219.571 83.0991 220.341L83.7711 220.971C84.1631 220.313 84.7371 219.893 85.6051 219.893C86.7531 219.893 87.3131 220.453 87.3131 221.475V222.189H85.8851C83.7851 222.189 82.8051 222.945 82.8051 224.303C82.8051 225.647 83.7011 226.487 85.2271 226.487C86.2351 226.487 87.0051 226.025 87.3131 225.143H87.3831C87.4671 225.815 87.8031 226.319 88.6291 226.319H89.2591ZM85.4091 225.535C84.5411 225.535 83.9811 225.129 83.9811 224.415V224.121C83.9811 223.421 84.5551 223.029 85.8291 223.029H87.3131V224.219C87.3131 224.961 86.5151 225.535 85.4091 225.535ZM92.1377 226.319V221.307C92.1377 220.383 93.0057 219.935 93.9017 219.935C94.9797 219.935 95.5397 220.593 95.5397 221.881V226.319H96.6597V221.685C96.6597 219.935 95.7217 218.927 94.2377 218.927C93.1597 218.927 92.5437 219.459 92.1937 220.271H92.1377V219.095H91.0177V226.319H92.1377ZM102.131 226.319V225.339H100.661V220.075H102.243V219.095H100.661V217.093H99.6527V218.437C99.6527 218.927 99.4987 219.095 99.0227 219.095H98.3507V220.075H99.5407V225.129C99.5407 225.829 99.9607 226.319 100.731 226.319H102.131ZM108.655 226.319H109.775V219.095H108.655V224.093C108.655 225.045 107.787 225.479 106.905 225.479C105.827 225.479 105.253 224.821 105.253 223.533V219.095H104.133V223.729C104.133 225.479 105.085 226.487 106.569 226.487C107.773 226.487 108.319 225.829 108.599 225.143H108.655V226.319ZM113.44 226.319V221.307C113.44 220.383 114.28 219.935 115.162 219.935C116.226 219.935 116.716 220.593 116.716 221.881V226.319H117.836V221.307C117.836 220.383 118.648 219.935 119.53 219.935C120.622 219.935 121.112 220.607 121.112 221.881V226.319H122.232V221.685C122.232 219.935 121.35 218.927 119.88 218.927C118.648 218.927 117.948 219.613 117.682 220.397H117.654C117.262 219.361 116.394 218.927 115.442 218.927C114.322 218.927 113.818 219.529 113.496 220.271H113.44V219.095H112.32V226.319H113.44ZM129.459 222.119H131.741L133.855 226.319H135.185L132.945 222.007C134.219 221.713 134.905 220.747 134.905 219.319C134.905 217.541 133.883 216.547 132.175 216.547H128.283V226.319H129.459V222.119ZM129.459 221.111V217.583H132.175C133.099 217.583 133.645 218.087 133.645 218.983V219.711C133.645 220.607 133.099 221.111 132.175 221.111H129.459ZM139.797 226.487C141.155 226.487 142.191 225.815 142.653 224.835L141.855 224.261C141.477 225.059 140.777 225.507 139.867 225.507C138.523 225.507 137.725 224.569 137.725 223.323V222.987H142.919V222.455C142.919 220.411 141.729 218.927 139.797 218.927C137.837 218.927 136.549 220.411 136.549 222.707C136.549 225.003 137.837 226.487 139.797 226.487ZM139.797 219.865C140.945 219.865 141.715 220.719 141.715 221.993V222.147H137.725V222.049C137.725 220.789 138.579 219.865 139.797 219.865ZM145.317 226.319H146.437V220.075H147.991V219.095H146.437V216.939H147.991V215.959H146.899C145.835 215.959 145.317 216.645 145.317 217.639V219.095H144.141V220.075H145.317V226.319ZM152.285 226.487C153.643 226.487 154.679 225.815 155.141 224.835L154.343 224.261C153.965 225.059 153.265 225.507 152.355 225.507C151.011 225.507 150.213 224.569 150.213 223.323V222.987H155.407V222.455C155.407 220.411 154.217 218.927 152.285 218.927C150.325 218.927 149.037 220.411 149.037 222.707C149.037 225.003 150.325 226.487 152.285 226.487ZM152.285 219.865C153.433 219.865 154.203 220.719 154.203 221.993V222.147H150.213V222.049C150.213 220.789 151.067 219.865 152.285 219.865ZM158.533 226.319V221.419C158.533 220.733 159.261 220.215 160.465 220.215H161.123V219.095H160.689C159.513 219.095 158.855 219.739 158.603 220.425H158.533V219.095H157.413V226.319H158.533ZM165.361 226.487C166.719 226.487 167.755 225.815 168.217 224.835L167.419 224.261C167.041 225.059 166.341 225.507 165.431 225.507C164.087 225.507 163.289 224.569 163.289 223.323V222.987H168.483V222.455C168.483 220.411 167.293 218.927 165.361 218.927C163.401 218.927 162.113 220.411 162.113 222.707C162.113 225.003 163.401 226.487 165.361 226.487ZM165.361 219.865C166.509 219.865 167.279 220.719 167.279 221.993V222.147H163.289V222.049C163.289 220.789 164.143 219.865 165.361 219.865ZM171.609 226.319V221.307C171.609 220.383 172.477 219.935 173.373 219.935C174.451 219.935 175.011 220.593 175.011 221.881V226.319H176.131V221.685C176.131 219.935 175.193 218.927 173.709 218.927C172.631 218.927 172.015 219.459 171.665 220.271H171.609V219.095H170.489V226.319H171.609ZM181.294 226.487C182.666 226.487 183.604 225.815 184.066 224.779L183.254 224.233C182.862 225.059 182.204 225.493 181.294 225.493C179.964 225.493 179.278 224.583 179.278 223.323V222.091C179.278 220.831 179.964 219.921 181.294 219.921C182.176 219.921 182.792 220.355 183.058 221.097L183.996 220.621C183.576 219.627 182.722 218.927 181.294 218.927C179.264 218.927 178.074 220.397 178.074 222.707C178.074 225.017 179.264 226.487 181.294 226.487ZM188.441 226.487C189.799 226.487 190.835 225.815 191.297 224.835L190.499 224.261C190.121 225.059 189.421 225.507 188.511 225.507C187.167 225.507 186.369 224.569 186.369 223.323V222.987H191.563V222.455C191.563 220.411 190.373 218.927 188.441 218.927C186.481 218.927 185.193 220.411 185.193 222.707C185.193 225.003 186.481 226.487 188.441 226.487ZM188.441 219.865C189.589 219.865 190.359 220.719 190.359 221.993V222.147H186.369V222.049C186.369 220.789 187.223 219.865 188.441 219.865ZM199.893 226.487C201.993 226.487 203.253 225.339 203.253 223.547C203.253 222.091 202.427 221.251 200.523 220.817L199.725 220.635C198.493 220.355 197.891 219.935 197.891 219.011C197.891 217.961 198.661 217.415 199.907 217.415C201.041 217.415 201.783 217.877 202.315 218.619L203.197 217.975C202.469 216.939 201.433 216.379 199.963 216.379C198.045 216.379 196.729 217.317 196.729 219.053C196.729 220.551 197.709 221.335 199.487 221.741L200.285 221.923C201.573 222.217 202.091 222.679 202.091 223.603C202.091 224.723 201.335 225.451 199.935 225.451C198.801 225.451 197.989 224.961 197.303 224.051L196.435 224.779C197.219 225.843 198.325 226.487 199.893 226.487ZM208.328 226.319V225.339H206.858V220.075H208.44V219.095H206.858V217.093H205.85V218.437C205.85 218.927 205.696 219.095 205.22 219.095H204.548V220.075H205.738V225.129C205.738 225.829 206.158 226.319 206.928 226.319H208.328ZM216.28 226.319V225.339H215.454V221.363C215.454 219.837 214.418 218.927 212.682 218.927C211.38 218.927 210.512 219.571 210.12 220.341L210.792 220.971C211.184 220.313 211.758 219.893 212.626 219.893C213.774 219.893 214.334 220.453 214.334 221.475V222.189H212.906C210.806 222.189 209.826 222.945 209.826 224.303C209.826 225.647 210.722 226.487 212.248 226.487C213.256 226.487 214.026 226.025 214.334 225.143H214.404C214.488 225.815 214.824 226.319 215.65 226.319H216.28ZM212.43 225.535C211.562 225.535 211.002 225.129 211.002 224.415V224.121C211.002 223.421 211.576 223.029 212.85 223.029H214.334V224.219C214.334 224.961 213.536 225.535 212.43 225.535ZM221.034 226.319V225.339H219.564V220.075H221.146V219.095H219.564V217.093H218.556V218.437C218.556 218.927 218.402 219.095 217.926 219.095H217.254V220.075H218.444V225.129C218.444 225.829 218.864 226.319 219.634 226.319H221.034ZM225.768 226.487C227.126 226.487 228.162 225.815 228.624 224.835L227.826 224.261C227.448 225.059 226.748 225.507 225.838 225.507C224.494 225.507 223.696 224.569 223.696 223.323V222.987H228.89V222.455C228.89 220.411 227.7 218.927 225.768 218.927C223.808 218.927 222.52 220.411 222.52 222.707C222.52 225.003 223.808 226.487 225.768 226.487ZM225.768 219.865C226.916 219.865 227.686 220.719 227.686 221.993V222.147H223.696V222.049C223.696 220.789 224.55 219.865 225.768 219.865Z" fill="white"/>
<rect width="260" height="87" transform="translate(359 62.3193)" fill="#0043CE"/>
<path d="M387.746 101.487C389.37 101.487 390.56 100.633 391.176 99.2613L390.238 98.6733C389.846 99.7373 388.992 100.437 387.746 100.437C386.066 100.437 385.072 99.2193 385.072 97.2173V95.7613C385.072 93.7593 386.066 92.4293 387.746 92.4293C388.95 92.4293 389.762 93.0873 390.154 94.0953L391.106 93.5213C390.49 92.1633 389.37 91.3793 387.746 91.3793C385.282 91.3793 383.812 93.2273 383.812 96.4893C383.812 99.7513 385.282 101.487 387.746 101.487ZM395.229 101.319V100.339H394.165V90.9593H393.045V100.157C393.045 100.829 393.465 101.319 394.235 101.319H395.229ZM402.9 101.319V100.339H402.074V96.3633C402.074 94.8373 401.038 93.9273 399.302 93.9273C398 93.9273 397.132 94.5713 396.74 95.3413L397.412 95.9713C397.804 95.3133 398.378 94.8933 399.246 94.8933C400.394 94.8933 400.954 95.4533 400.954 96.4753V97.1893H399.526C397.426 97.1893 396.446 97.9453 396.446 99.3033C396.446 100.647 397.342 101.487 398.868 101.487C399.876 101.487 400.646 101.025 400.954 100.143H401.024C401.108 100.815 401.444 101.319 402.27 101.319H402.9ZM399.05 100.535C398.182 100.535 397.622 100.129 397.622 99.4153V99.1213C397.622 98.4213 398.196 98.0293 399.47 98.0293H400.954V99.2193C400.954 99.9613 400.156 100.535 399.05 100.535ZM406.828 101.487C408.48 101.487 409.502 100.633 409.502 99.2333C409.502 98.1413 408.886 97.4413 407.29 97.2033L406.73 97.1193C405.834 96.9793 405.344 96.6993 405.344 95.9993C405.344 95.3133 405.834 94.8793 406.758 94.8793C407.682 94.8793 408.298 95.3133 408.62 95.7613L409.362 95.0893C408.774 94.3613 408.004 93.9273 406.842 93.9273C405.372 93.9273 404.266 94.6273 404.266 96.0553C404.266 97.3993 405.26 97.9453 406.59 98.1413L407.164 98.2253C408.116 98.3653 408.424 98.7993 408.424 99.3593C408.424 100.101 407.864 100.535 406.912 100.535C406.002 100.535 405.33 100.129 404.77 99.4293L403.972 100.073C404.616 100.927 405.498 101.487 406.828 101.487ZM413.729 101.487C415.381 101.487 416.403 100.633 416.403 99.2333C416.403 98.1413 415.787 97.4413 414.191 97.2033L413.631 97.1193C412.735 96.9793 412.245 96.6993 412.245 95.9993C412.245 95.3133 412.735 94.8793 413.659 94.8793C414.583 94.8793 415.199 95.3133 415.521 95.7613L416.263 95.0893C415.675 94.3613 414.905 93.9273 413.743 93.9273C412.273 93.9273 411.167 94.6273 411.167 96.0553C411.167 97.3993 412.161 97.9453 413.491 98.1413L414.065 98.2253C415.017 98.3653 415.325 98.7993 415.325 99.3593C415.325 100.101 414.765 100.535 413.813 100.535C412.903 100.535 412.231 100.129 411.671 99.4293L410.873 100.073C411.517 100.927 412.399 101.487 413.729 101.487ZM419.101 92.4013C419.577 92.4013 419.787 92.1493 419.787 91.7713V91.5893C419.787 91.2113 419.577 90.9593 419.101 90.9593C418.625 90.9593 418.415 91.2113 418.415 91.5893V91.7713C418.415 92.1493 418.625 92.4013 419.101 92.4013ZM418.541 101.319H419.661V94.0953H418.541V101.319ZM424.889 101.487C426.261 101.487 427.199 100.815 427.661 99.7793L426.849 99.2333C426.457 100.059 425.799 100.493 424.889 100.493C423.559 100.493 422.873 99.5833 422.873 98.3233V97.0913C422.873 95.8313 423.559 94.9213 424.889 94.9213C425.771 94.9213 426.387 95.3553 426.653 96.0973L427.591 95.6213C427.171 94.6273 426.317 93.9273 424.889 93.9273C422.859 93.9273 421.669 95.3973 421.669 97.7073C421.669 100.017 422.859 101.487 424.889 101.487ZM435.282 101.319V100.339H434.456V96.3633C434.456 94.8373 433.42 93.9273 431.684 93.9273C430.382 93.9273 429.514 94.5713 429.122 95.3413L429.794 95.9713C430.186 95.3133 430.76 94.8933 431.628 94.8933C432.776 94.8933 433.336 95.4533 433.336 96.4753V97.1893H431.908C429.808 97.1893 428.828 97.9453 428.828 99.3033C428.828 100.647 429.724 101.487 431.25 101.487C432.258 101.487 433.028 101.025 433.336 100.143H433.406C433.49 100.815 433.826 101.319 434.652 101.319H435.282ZM431.432 100.535C430.564 100.535 430.004 100.129 430.004 99.4153V99.1213C430.004 98.4213 430.578 98.0293 431.852 98.0293H433.336V99.2193C433.336 99.9613 432.538 100.535 431.432 100.535ZM439.224 101.319V100.339H438.16V90.9593H437.04V100.157C437.04 100.829 437.46 101.319 438.23 101.319H439.224ZM445.771 97.1193H448.053L450.167 101.319H451.497L449.257 97.0073C450.531 96.7133 451.217 95.7473 451.217 94.3193C451.217 92.5413 450.195 91.5473 448.487 91.5473H444.595V101.319H445.771V97.1193ZM445.771 96.1113V92.5833H448.487C449.411 92.5833 449.957 93.0873 449.957 93.9833V94.7113C449.957 95.6073 449.411 96.1113 448.487 96.1113H445.771ZM456.109 101.487C457.467 101.487 458.503 100.815 458.965 99.8353L458.167 99.2613C457.789 100.059 457.089 100.507 456.179 100.507C454.835 100.507 454.037 99.5693 454.037 98.3233V97.9873H459.231V97.4553C459.231 95.4113 458.041 93.9273 456.109 93.9273C454.149 93.9273 452.861 95.4113 452.861 97.7073C452.861 100.003 454.149 101.487 456.109 101.487ZM456.109 94.8653C457.257 94.8653 458.027 95.7193 458.027 96.9933V97.1473H454.037V97.0493C454.037 95.7893 454.891 94.8653 456.109 94.8653ZM461.629 101.319H462.749V95.0753H464.303V94.0953H462.749V91.9393H464.303V90.9593H463.211C462.147 90.9593 461.629 91.6453 461.629 92.6393V94.0953H460.453V95.0753H461.629V101.319ZM468.597 101.487C469.955 101.487 470.991 100.815 471.453 99.8353L470.655 99.2613C470.277 100.059 469.577 100.507 468.667 100.507C467.323 100.507 466.525 99.5693 466.525 98.3233V97.9873H471.719V97.4553C471.719 95.4113 470.529 93.9273 468.597 93.9273C466.637 93.9273 465.349 95.4113 465.349 97.7073C465.349 100.003 466.637 101.487 468.597 101.487ZM468.597 94.8653C469.745 94.8653 470.515 95.7193 470.515 96.9933V97.1473H466.525V97.0493C466.525 95.7893 467.379 94.8653 468.597 94.8653ZM474.845 101.319V96.4193C474.845 95.7333 475.573 95.2153 476.777 95.2153H477.435V94.0953H477.001C475.825 94.0953 475.167 94.7393 474.915 95.4253H474.845V94.0953H473.725V101.319H474.845ZM481.673 101.487C483.031 101.487 484.067 100.815 484.529 99.8353L483.731 99.2613C483.353 100.059 482.653 100.507 481.743 100.507C480.399 100.507 479.601 99.5693 479.601 98.3233V97.9873H484.795V97.4553C484.795 95.4113 483.605 93.9273 481.673 93.9273C479.713 93.9273 478.425 95.4113 478.425 97.7073C478.425 100.003 479.713 101.487 481.673 101.487ZM481.673 94.8653C482.821 94.8653 483.591 95.7193 483.591 96.9933V97.1473H479.601V97.0493C479.601 95.7893 480.455 94.8653 481.673 94.8653ZM487.921 101.319V96.3073C487.921 95.3833 488.789 94.9353 489.685 94.9353C490.763 94.9353 491.323 95.5933 491.323 96.8813V101.319H492.443V96.6853C492.443 94.9353 491.505 93.9273 490.021 93.9273C488.943 93.9273 488.327 94.4593 487.977 95.2713H487.921V94.0953H486.801V101.319H487.921ZM497.606 101.487C498.978 101.487 499.916 100.815 500.378 99.7793L499.566 99.2333C499.174 100.059 498.516 100.493 497.606 100.493C496.276 100.493 495.59 99.5833 495.59 98.3233V97.0913C495.59 95.8313 496.276 94.9213 497.606 94.9213C498.488 94.9213 499.104 95.3553 499.37 96.0973L500.308 95.6213C499.888 94.6273 499.034 93.9273 497.606 93.9273C495.576 93.9273 494.386 95.3973 494.386 97.7073C494.386 100.017 495.576 101.487 497.606 101.487ZM504.753 101.487C506.111 101.487 507.147 100.815 507.609 99.8353L506.811 99.2613C506.433 100.059 505.733 100.507 504.823 100.507C503.479 100.507 502.681 99.5693 502.681 98.3233V97.9873H507.875V97.4553C507.875 95.4113 506.685 93.9273 504.753 93.9273C502.793 93.9273 501.505 95.4113 501.505 97.7073C501.505 100.003 502.793 101.487 504.753 101.487ZM504.753 94.8653C505.901 94.8653 506.671 95.7193 506.671 96.9933V97.1473H502.681V97.0493C502.681 95.7893 503.535 94.8653 504.753 94.8653ZM516.205 101.487C518.305 101.487 519.565 100.339 519.565 98.5473C519.565 97.0913 518.739 96.2513 516.835 95.8173L516.037 95.6353C514.805 95.3553 514.203 94.9353 514.203 94.0113C514.203 92.9613 514.973 92.4153 516.219 92.4153C517.353 92.4153 518.095 92.8773 518.627 93.6193L519.509 92.9753C518.781 91.9393 517.745 91.3793 516.275 91.3793C514.357 91.3793 513.041 92.3173 513.041 94.0533C513.041 95.5513 514.021 96.3353 515.799 96.7413L516.597 96.9233C517.885 97.2173 518.403 97.6793 518.403 98.6033C518.403 99.7233 517.647 100.451 516.247 100.451C515.113 100.451 514.301 99.9613 513.615 99.0513L512.747 99.7793C513.531 100.843 514.637 101.487 516.205 101.487ZM524.64 101.319V100.339H523.17V95.0753H524.752V94.0953H523.17V92.0933H522.162V93.4373C522.162 93.9273 522.008 94.0953 521.532 94.0953H520.86V95.0753H522.05V100.129C522.05 100.829 522.47 101.319 523.24 101.319H524.64ZM532.592 101.319V100.339H531.766V96.3633C531.766 94.8373 530.73 93.9273 528.994 93.9273C527.692 93.9273 526.824 94.5713 526.432 95.3413L527.104 95.9713C527.496 95.3133 528.07 94.8933 528.938 94.8933C530.086 94.8933 530.646 95.4533 530.646 96.4753V97.1893H529.218C527.118 97.1893 526.138 97.9453 526.138 99.3033C526.138 100.647 527.034 101.487 528.56 101.487C529.568 101.487 530.338 101.025 530.646 100.143H530.716C530.8 100.815 531.136 101.319 531.962 101.319H532.592ZM528.742 100.535C527.874 100.535 527.314 100.129 527.314 99.4153V99.1213C527.314 98.4213 527.888 98.0293 529.162 98.0293H530.646V99.2193C530.646 99.9613 529.848 100.535 528.742 100.535ZM537.346 101.319V100.339H535.876V95.0753H537.458V94.0953H535.876V92.0933H534.868V93.4373C534.868 93.9273 534.714 94.0953 534.238 94.0953H533.566V95.0753H534.756V100.129C534.756 100.829 535.176 101.319 535.946 101.319H537.346ZM542.08 101.487C543.438 101.487 544.474 100.815 544.936 99.8353L544.138 99.2613C543.76 100.059 543.06 100.507 542.15 100.507C540.806 100.507 540.008 99.5693 540.008 98.3233V97.9873H545.202V97.4553C545.202 95.4113 544.012 93.9273 542.08 93.9273C540.12 93.9273 538.832 95.4113 538.832 97.7073C538.832 100.003 540.12 101.487 542.08 101.487ZM542.08 94.8653C543.228 94.8653 543.998 95.7193 543.998 96.9933V97.1473H540.008V97.0493C540.008 95.7893 540.862 94.8653 542.08 94.8653Z" fill="white"/>
<rect width="260" height="87" transform="translate(359 187.319)" fill="#0043CE"/>
<path d="M391.652 226.319L388.236 216.547H386.738L383.322 226.319H384.512L385.492 223.435H389.44L390.42 226.319H391.652ZM389.146 222.399H385.772L387.424 217.639H387.494L389.146 222.399ZM393.319 229.119H394.439V225.143H394.495C394.929 226.039 395.615 226.487 396.609 226.487C398.415 226.487 399.549 225.017 399.549 222.707C399.549 220.397 398.415 218.927 396.609 218.927C395.615 218.927 394.873 219.361 394.495 220.271H394.439V219.095H393.319V229.119ZM396.301 225.479C395.279 225.479 394.439 224.947 394.439 224.009V221.321C394.439 220.523 395.279 219.935 396.301 219.935C397.561 219.935 398.345 220.803 398.345 222.091V223.323C398.345 224.611 397.561 225.479 396.301 225.479ZM401.6 229.119H402.72V225.143H402.776C403.21 226.039 403.896 226.487 404.89 226.487C406.696 226.487 407.83 225.017 407.83 222.707C407.83 220.397 406.696 218.927 404.89 218.927C403.896 218.927 403.154 219.361 402.776 220.271H402.72V219.095H401.6V229.119ZM404.582 225.479C403.56 225.479 402.72 224.947 402.72 224.009V221.321C402.72 220.523 403.56 219.935 404.582 219.935C405.842 219.935 406.626 220.803 406.626 222.091V223.323C406.626 224.611 405.842 225.479 404.582 225.479ZM412.065 226.319V225.339H411.001V215.959H409.881V225.157C409.881 225.829 410.301 226.319 411.071 226.319H412.065ZM414.415 217.401C414.891 217.401 415.101 217.149 415.101 216.771V216.589C415.101 216.211 414.891 215.959 414.415 215.959C413.939 215.959 413.729 216.211 413.729 216.589V216.771C413.729 217.149 413.939 217.401 414.415 217.401ZM413.855 226.319H414.975V219.095H413.855V226.319ZM420.203 226.487C421.575 226.487 422.513 225.815 422.975 224.779L422.163 224.233C421.771 225.059 421.113 225.493 420.203 225.493C418.873 225.493 418.187 224.583 418.187 223.323V222.091C418.187 220.831 418.873 219.921 420.203 219.921C421.085 219.921 421.701 220.355 421.967 221.097L422.905 220.621C422.485 219.627 421.631 218.927 420.203 218.927C418.173 218.927 416.983 220.397 416.983 222.707C416.983 225.017 418.173 226.487 420.203 226.487ZM430.596 226.319V225.339H429.77V221.363C429.77 219.837 428.734 218.927 426.998 218.927C425.696 218.927 424.828 219.571 424.436 220.341L425.108 220.971C425.5 220.313 426.074 219.893 426.942 219.893C428.09 219.893 428.65 220.453 428.65 221.475V222.189H427.222C425.122 222.189 424.142 222.945 424.142 224.303C424.142 225.647 425.038 226.487 426.564 226.487C427.572 226.487 428.342 226.025 428.65 225.143H428.72C428.804 225.815 429.14 226.319 429.966 226.319H430.596ZM426.746 225.535C425.878 225.535 425.318 225.129 425.318 224.415V224.121C425.318 223.421 425.892 223.029 427.166 223.029H428.65V224.219C428.65 224.961 427.852 225.535 426.746 225.535ZM435.351 226.319V225.339H433.881V220.075H435.463V219.095H433.881V217.093H432.873V218.437C432.873 218.927 432.719 219.095 432.243 219.095H431.571V220.075H432.761V225.129C432.761 225.829 433.181 226.319 433.951 226.319H435.351ZM437.983 217.401C438.459 217.401 438.669 217.149 438.669 216.771V216.589C438.669 216.211 438.459 215.959 437.983 215.959C437.507 215.959 437.297 216.211 437.297 216.589V216.771C437.297 217.149 437.507 217.401 437.983 217.401ZM437.423 226.319H438.543V219.095H437.423V226.319ZM443.813 226.487C445.745 226.487 447.075 225.003 447.075 222.707C447.075 220.411 445.745 218.927 443.813 218.927C441.881 218.927 440.551 220.411 440.551 222.707C440.551 225.003 441.881 226.487 443.813 226.487ZM443.813 225.493C442.609 225.493 441.755 224.751 441.755 223.225V222.189C441.755 220.663 442.609 219.921 443.813 219.921C445.017 219.921 445.871 220.663 445.871 222.189V223.225C445.871 224.751 445.017 225.493 443.813 225.493ZM450.197 226.319V221.307C450.197 220.383 451.065 219.935 451.961 219.935C453.039 219.935 453.599 220.593 453.599 221.881V226.319H454.719V221.685C454.719 219.935 453.781 218.927 452.297 218.927C451.219 218.927 450.603 219.459 450.253 220.271H450.197V219.095H449.077V226.319H450.197ZM460.624 222.665V221.461H456.97V222.665H460.624ZM465.528 226.487C467.628 226.487 468.888 225.339 468.888 223.547C468.888 222.091 468.062 221.251 466.158 220.817L465.36 220.635C464.128 220.355 463.526 219.935 463.526 219.011C463.526 217.961 464.296 217.415 465.542 217.415C466.676 217.415 467.418 217.877 467.95 218.619L468.832 217.975C468.104 216.939 467.068 216.379 465.598 216.379C463.68 216.379 462.364 217.317 462.364 219.053C462.364 220.551 463.344 221.335 465.122 221.741L465.92 221.923C467.208 222.217 467.726 222.679 467.726 223.603C467.726 224.723 466.97 225.451 465.57 225.451C464.436 225.451 463.624 224.961 462.938 224.051L462.07 224.779C462.854 225.843 463.96 226.487 465.528 226.487ZM470.967 229.119H472.087V225.143H472.143C472.577 226.039 473.263 226.487 474.257 226.487C476.063 226.487 477.197 225.017 477.197 222.707C477.197 220.397 476.063 218.927 474.257 218.927C473.263 218.927 472.521 219.361 472.143 220.271H472.087V219.095H470.967V229.119ZM473.949 225.479C472.927 225.479 472.087 224.947 472.087 224.009V221.321C472.087 220.523 472.927 219.935 473.949 219.935C475.209 219.935 475.993 220.803 475.993 222.091V223.323C475.993 224.611 475.209 225.479 473.949 225.479ZM481.964 226.487C483.322 226.487 484.358 225.815 484.82 224.835L484.022 224.261C483.644 225.059 482.944 225.507 482.034 225.507C480.69 225.507 479.892 224.569 479.892 223.323V222.987H485.086V222.455C485.086 220.411 483.896 218.927 481.964 218.927C480.004 218.927 478.716 220.411 478.716 222.707C478.716 225.003 480.004 226.487 481.964 226.487ZM481.964 219.865C483.112 219.865 483.882 220.719 483.882 221.993V222.147H479.892V222.049C479.892 220.789 480.746 219.865 481.964 219.865ZM489.78 226.487C491.152 226.487 492.09 225.815 492.552 224.779L491.74 224.233C491.348 225.059 490.69 225.493 489.78 225.493C488.45 225.493 487.764 224.583 487.764 223.323V222.091C487.764 220.831 488.45 219.921 489.78 219.921C490.662 219.921 491.278 220.355 491.544 221.097L492.482 220.621C492.062 219.627 491.208 218.927 489.78 218.927C487.75 218.927 486.56 220.397 486.56 222.707C486.56 225.017 487.75 226.487 489.78 226.487ZM494.853 217.401C495.329 217.401 495.539 217.149 495.539 216.771V216.589C495.539 216.211 495.329 215.959 494.853 215.959C494.377 215.959 494.167 216.211 494.167 216.589V216.771C494.167 217.149 494.377 217.401 494.853 217.401ZM494.293 226.319H495.413V219.095H494.293V226.319ZM498.345 226.319H499.465V220.075H502.391V226.319H503.511V219.095H499.465V216.939H501.019V215.959H499.927C498.863 215.959 498.345 216.645 498.345 217.639V219.095H497.169V220.075H498.345V226.319ZM502.951 217.401C503.427 217.401 503.637 217.149 503.637 216.771V216.589C503.637 216.211 503.427 215.959 502.951 215.959C502.475 215.959 502.265 216.211 502.265 216.589V216.771C502.265 217.149 502.475 217.401 502.951 217.401ZM508.744 226.487C510.116 226.487 511.054 225.815 511.516 224.779L510.704 224.233C510.312 225.059 509.654 225.493 508.744 225.493C507.414 225.493 506.728 224.583 506.728 223.323V222.091C506.728 220.831 507.414 219.921 508.744 219.921C509.626 219.921 510.242 220.355 510.508 221.097L511.446 220.621C511.026 219.627 510.172 218.927 508.744 218.927C506.714 218.927 505.524 220.397 505.524 222.707C505.524 225.017 506.714 226.487 508.744 226.487ZM518.014 222.119H520.296L522.41 226.319H523.74L521.5 222.007C522.774 221.713 523.46 220.747 523.46 219.319C523.46 217.541 522.438 216.547 520.73 216.547H516.838V226.319H518.014V222.119ZM518.014 221.111V217.583H520.73C521.654 217.583 522.2 218.087 522.2 218.983V219.711C522.2 220.607 521.654 221.111 520.73 221.111H518.014ZM528.352 226.487C529.71 226.487 530.746 225.815 531.208 224.835L530.41 224.261C530.032 225.059 529.332 225.507 528.422 225.507C527.078 225.507 526.28 224.569 526.28 223.323V222.987H531.474V222.455C531.474 220.411 530.284 218.927 528.352 218.927C526.392 218.927 525.104 220.411 525.104 222.707C525.104 225.003 526.392 226.487 528.352 226.487ZM528.352 219.865C529.5 219.865 530.27 220.719 530.27 221.993V222.147H526.28V222.049C526.28 220.789 527.134 219.865 528.352 219.865ZM533.872 226.319H534.992V220.075H536.546V219.095H534.992V216.939H536.546V215.959H535.454C534.39 215.959 533.872 216.645 533.872 217.639V219.095H532.696V220.075H533.872V226.319ZM540.84 226.487C542.198 226.487 543.234 225.815 543.696 224.835L542.898 224.261C542.52 225.059 541.82 225.507 540.91 225.507C539.566 225.507 538.768 224.569 538.768 223.323V222.987H543.962V222.455C543.962 220.411 542.772 218.927 540.84 218.927C538.88 218.927 537.592 220.411 537.592 222.707C537.592 225.003 538.88 226.487 540.84 226.487ZM540.84 219.865C541.988 219.865 542.758 220.719 542.758 221.993V222.147H538.768V222.049C538.768 220.789 539.622 219.865 540.84 219.865ZM547.087 226.319V221.419C547.087 220.733 547.815 220.215 549.019 220.215H549.677V219.095H549.243C548.067 219.095 547.409 219.739 547.157 220.425H547.087V219.095H545.967V226.319H547.087ZM553.916 226.487C555.274 226.487 556.31 225.815 556.772 224.835L555.974 224.261C555.596 225.059 554.896 225.507 553.986 225.507C552.642 225.507 551.844 224.569 551.844 223.323V222.987H557.038V222.455C557.038 220.411 555.848 218.927 553.916 218.927C551.956 218.927 550.668 220.411 550.668 222.707C550.668 225.003 551.956 226.487 553.916 226.487ZM553.916 219.865C555.064 219.865 555.834 220.719 555.834 221.993V222.147H551.844V222.049C551.844 220.789 552.698 219.865 553.916 219.865ZM560.163 226.319V221.307C560.163 220.383 561.031 219.935 561.927 219.935C563.005 219.935 563.565 220.593 563.565 221.881V226.319H564.685V221.685C564.685 219.935 563.747 218.927 562.263 218.927C561.185 218.927 560.569 219.459 560.219 220.271H560.163V219.095H559.043V226.319H560.163ZM569.848 226.487C571.22 226.487 572.158 225.815 572.62 224.779L571.808 224.233C571.416 225.059 570.758 225.493 569.848 225.493C568.518 225.493 567.832 224.583 567.832 223.323V222.091C567.832 220.831 568.518 219.921 569.848 219.921C570.73 219.921 571.346 220.355 571.612 221.097L572.55 220.621C572.13 219.627 571.276 218.927 569.848 218.927C567.818 218.927 566.628 220.397 566.628 222.707C566.628 225.017 567.818 226.487 569.848 226.487ZM576.995 226.487C578.353 226.487 579.389 225.815 579.851 224.835L579.053 224.261C578.675 225.059 577.975 225.507 577.065 225.507C575.721 225.507 574.923 224.569 574.923 223.323V222.987H580.117V222.455C580.117 220.411 578.927 218.927 576.995 218.927C575.035 218.927 573.747 220.411 573.747 222.707C573.747 225.003 575.035 226.487 576.995 226.487ZM576.995 219.865C578.143 219.865 578.913 220.719 578.913 221.993V222.147H574.923V222.049C574.923 220.789 575.777 219.865 576.995 219.865ZM387.046 246.487C389.146 246.487 390.406 245.339 390.406 243.547C390.406 242.091 389.58 241.251 387.676 240.817L386.878 240.635C385.646 240.355 385.044 239.935 385.044 239.011C385.044 237.961 385.814 237.415 387.06 237.415C388.194 237.415 388.936 237.877 389.468 238.619L390.35 237.975C389.622 236.939 388.586 236.379 387.116 236.379C385.198 236.379 383.882 237.317 383.882 239.053C383.882 240.551 384.862 241.335 386.64 241.741L387.438 241.923C388.726 242.217 389.244 242.679 389.244 243.603C389.244 244.723 388.488 245.451 387.088 245.451C385.954 245.451 385.142 244.961 384.456 244.051L383.588 244.779C384.372 245.843 385.478 246.487 387.046 246.487ZM395.481 246.319V245.339H394.011V240.075H395.593V239.095H394.011V237.093H393.003V238.437C393.003 238.927 392.849 239.095 392.373 239.095H391.701V240.075H392.891V245.129C392.891 245.829 393.311 246.319 394.081 246.319H395.481ZM403.433 246.319V245.339H402.607V241.363C402.607 239.837 401.571 238.927 399.835 238.927C398.533 238.927 397.665 239.571 397.273 240.341L397.945 240.971C398.337 240.313 398.911 239.893 399.779 239.893C400.927 239.893 401.487 240.453 401.487 241.475V242.189H400.059C397.959 242.189 396.979 242.945 396.979 244.303C396.979 245.647 397.875 246.487 399.401 246.487C400.409 246.487 401.179 246.025 401.487 245.143H401.557C401.641 245.815 401.977 246.319 402.803 246.319H403.433ZM399.583 245.535C398.715 245.535 398.155 245.129 398.155 244.415V244.121C398.155 243.421 398.729 243.029 400.003 243.029H401.487V244.219C401.487 244.961 400.689 245.535 399.583 245.535ZM408.187 246.319V245.339H406.717V240.075H408.299V239.095H406.717V237.093H405.709V238.437C405.709 238.927 405.555 239.095 405.079 239.095H404.407V240.075H405.597V245.129C405.597 245.829 406.017 246.319 406.787 246.319H408.187ZM412.921 246.487C414.279 246.487 415.315 245.815 415.777 244.835L414.979 244.261C414.601 245.059 413.901 245.507 412.991 245.507C411.647 245.507 410.849 244.569 410.849 243.323V242.987H416.043V242.455C416.043 240.411 414.853 238.927 412.921 238.927C410.961 238.927 409.673 240.411 409.673 242.707C409.673 245.003 410.961 246.487 412.921 246.487ZM412.921 239.865C414.069 239.865 414.839 240.719 414.839 241.993V242.147H410.849V242.049C410.849 240.789 411.703 239.865 412.921 239.865ZM420.219 246.487C421.871 246.487 422.893 245.633 422.893 244.233C422.893 243.141 422.277 242.441 420.681 242.203L420.121 242.119C419.225 241.979 418.735 241.699 418.735 240.999C418.735 240.313 419.225 239.879 420.149 239.879C421.073 239.879 421.689 240.313 422.011 240.761L422.753 240.089C422.165 239.361 421.395 238.927 420.233 238.927C418.763 238.927 417.657 239.627 417.657 241.055C417.657 242.399 418.651 242.945 419.981 243.141L420.555 243.225C421.507 243.365 421.815 243.799 421.815 244.359C421.815 245.101 421.255 245.535 420.303 245.535C419.393 245.535 418.721 245.129 418.161 244.429L417.363 245.073C418.007 245.927 418.889 246.487 420.219 246.487Z" fill="white"/>
<path d="M27.7824 29V27.964H25.2624V19.228H23.4284L20.8384 21.65L21.5244 22.392L23.9884 20.096H24.0864V27.964H21.3564V29H27.7824ZM30.4229 29.168C31.0109 29.168 31.2769 28.832 31.2769 28.356V28.174C31.2769 27.698 31.0109 27.362 30.4229 27.362C29.8349 27.362 29.5689 27.698 29.5689 28.174V28.356C29.5689 28.832 29.8349 29.168 30.4229 29.168ZM41.76 29V28.02H40.388V20.208H41.76V19.228H37.84V20.208H39.212V28.02H37.84V29H41.76ZM45.0755 29V23.988C45.0755 23.064 45.9435 22.616 46.8395 22.616C47.9175 22.616 48.4775 23.274 48.4775 24.562V29H49.5975V24.366C49.5975 22.616 48.6595 21.608 47.1755 21.608C46.0975 21.608 45.4815 22.14 45.1315 22.952H45.0755V21.776H43.9555V29H45.0755ZM52.6325 20.082C53.1085 20.082 53.3185 19.83 53.3185 19.452V19.27C53.3185 18.892 53.1085 18.64 52.6325 18.64C52.1565 18.64 51.9465 18.892 51.9465 19.27V19.452C51.9465 19.83 52.1565 20.082 52.6325 20.082ZM52.0725 29H53.1925V21.776H52.0725V29ZM58.7285 29V28.02H57.2585V22.756H58.8405V21.776H57.2585V19.774H56.2505V21.118C56.2505 21.608 56.0965 21.776 55.6205 21.776H54.9485V22.756H56.1385V27.81C56.1385 28.51 56.5585 29 57.3285 29H58.7285ZM61.3607 20.082C61.8367 20.082 62.0467 19.83 62.0467 19.452V19.27C62.0467 18.892 61.8367 18.64 61.3607 18.64C60.8847 18.64 60.6747 18.892 60.6747 19.27V19.452C60.6747 19.83 60.8847 20.082 61.3607 20.082ZM60.8007 29H61.9207V21.776H60.8007V29ZM70.3407 29V28.02H69.5147V24.044C69.5147 22.518 68.4787 21.608 66.7427 21.608C65.4407 21.608 64.5727 22.252 64.1807 23.022L64.8527 23.652C65.2447 22.994 65.8187 22.574 66.6867 22.574C67.8347 22.574 68.3947 23.134 68.3947 24.156V24.87H66.9667C64.8667 24.87 63.8867 25.626 63.8867 26.984C63.8867 28.328 64.7827 29.168 66.3087 29.168C67.3167 29.168 68.0867 28.706 68.3947 27.824H68.4647C68.5487 28.496 68.8847 29 69.7107 29H70.3407ZM66.4907 28.216C65.6227 28.216 65.0627 27.81 65.0627 27.096V26.802C65.0627 26.102 65.6367 25.71 66.9107 25.71H68.3947V26.9C68.3947 27.642 67.5967 28.216 66.4907 28.216ZM74.2832 29V28.02H73.2192V18.64H72.0992V27.838C72.0992 28.51 72.5192 29 73.2892 29H74.2832ZM76.6337 20.082C77.1097 20.082 77.3197 19.83 77.3197 19.452V19.27C77.3197 18.892 77.1097 18.64 76.6337 18.64C76.1577 18.64 75.9477 18.892 75.9477 19.27V19.452C75.9477 19.83 76.1577 20.082 76.6337 20.082ZM76.0737 29H77.1937V21.776H76.0737V29ZM84.5777 29V28.02H80.2797L84.4657 22.616V21.776H79.1317V22.756H83.1077L79.0057 28.062V29H84.5777ZM88.9671 29.168C90.3251 29.168 91.3611 28.496 91.8231 27.516L91.0251 26.942C90.6471 27.74 89.9471 28.188 89.0371 28.188C87.6931 28.188 86.8951 27.25 86.8951 26.004V25.668H92.0891V25.136C92.0891 23.092 90.8991 21.608 88.9671 21.608C87.0071 21.608 85.7191 23.092 85.7191 25.388C85.7191 27.684 87.0071 29.168 88.9671 29.168ZM88.9671 22.546C90.1151 22.546 90.8851 23.4 90.8851 24.674V24.828H86.8951V24.73C86.8951 23.47 87.7491 22.546 88.9671 22.546ZM97.5633 31.8H98.6833V27.824H98.7393C99.1733 28.72 99.8593 29.168 100.853 29.168C102.659 29.168 103.793 27.698 103.793 25.388C103.793 23.078 102.659 21.608 100.853 21.608C99.8593 21.608 99.1173 22.042 98.7393 22.952H98.6833V21.776H97.5633V31.8ZM100.545 28.16C99.5233 28.16 98.6833 27.628 98.6833 26.69V24.002C98.6833 23.204 99.5233 22.616 100.545 22.616C101.805 22.616 102.589 23.484 102.589 24.772V26.004C102.589 27.292 101.805 28.16 100.545 28.16ZM106.964 29V24.1C106.964 23.414 107.692 22.896 108.896 22.896H109.554V21.776H109.12C107.944 21.776 107.286 22.42 107.034 23.106H106.964V21.776H105.844V29H106.964ZM113.807 29.168C115.739 29.168 117.069 27.684 117.069 25.388C117.069 23.092 115.739 21.608 113.807 21.608C111.875 21.608 110.545 23.092 110.545 25.388C110.545 27.684 111.875 29.168 113.807 29.168ZM113.807 28.174C112.603 28.174 111.749 27.432 111.749 25.906V24.87C111.749 23.344 112.603 22.602 113.807 22.602C115.011 22.602 115.865 23.344 115.865 24.87V25.906C115.865 27.432 115.011 28.174 113.807 28.174ZM119.071 29H120.191V27.824H120.247C120.681 28.72 121.367 29.168 122.361 29.168C124.167 29.168 125.301 27.698 125.301 25.388C125.301 23.078 124.167 21.608 122.361 21.608C121.367 21.608 120.625 22.042 120.247 22.952H120.191V18.64H119.071V29ZM122.053 28.16C121.031 28.16 120.191 27.628 120.191 26.69V24.002C120.191 23.204 121.031 22.616 122.053 22.616C123.313 22.616 124.097 23.484 124.097 24.772V26.004C124.097 27.292 123.313 28.16 122.053 28.16ZM129.536 29V28.02H128.472V18.64H127.352V27.838C127.352 28.51 127.772 29 128.542 29H129.536ZM134.042 29.168C135.4 29.168 136.436 28.496 136.898 27.516L136.1 26.942C135.722 27.74 135.022 28.188 134.112 28.188C132.768 28.188 131.97 27.25 131.97 26.004V25.668H137.164V25.136C137.164 23.092 135.974 21.608 134.042 21.608C132.082 21.608 130.794 23.092 130.794 25.388C130.794 27.684 132.082 29.168 134.042 29.168ZM134.042 22.546C135.19 22.546 135.96 23.4 135.96 24.674V24.828H131.97V24.73C131.97 23.47 132.824 22.546 134.042 22.546ZM140.29 29V23.988C140.29 23.064 141.13 22.616 142.012 22.616C143.076 22.616 143.566 23.274 143.566 24.562V29H144.686V23.988C144.686 23.064 145.498 22.616 146.38 22.616C147.472 22.616 147.962 23.288 147.962 24.562V29H149.082V24.366C149.082 22.616 148.2 21.608 146.73 21.608C145.498 21.608 144.798 22.294 144.532 23.078H144.504C144.112 22.042 143.244 21.608 142.292 21.608C141.172 21.608 140.668 22.21 140.346 22.952H140.29V21.776H139.17V29H140.29Z" fill="#121619"/>
</g>
<defs>
<clipPath id="clip0_35_2945">
<rect width="659" height="335" fill="white"/>
</clipPath>
</defs>
</svg>
