<?xml version="1.0" encoding="UTF-8"?><!DOCTYPE svg  PUBLIC '-//W3C//DTD SVG 1.1//EN'  'http://www.w3.org/Graphics/SVG/1.1/DTD/svg11.dtd'><svg width="402.8pt" height="297.19pt" version="1.1" viewBox="0 0 402.8 297.19" xmlns="http://www.w3.org/2000/svg" xmlns:xlink="http://www.w3.org/1999/xlink"><defs><style type="text/css">*{stroke-linejoin: round; stroke-linecap: butt}</style></defs><path d="m0 297.19h402.8v-297.19h-402.8z" fill="#ffffff"/><path d="m38.483 273.31h357.12v-266.11h-357.12z" fill="#ffffff"/><path d="m54.716 143.18h38.195v-94.556h-38.195z" clip-path="url(#1ec6295038e)" fill="#1f77b4"/><path d="m102.46 143.18h38.195v0.12425h-38.195z" clip-path="url(#1ec6295038e)" fill="#1f77b4"/><path d="m150.2 143.18h38.195v-81.758h-38.195z" clip-path="url(#1ec6295038e)" fill="#1f77b4"/><path d="m197.95 143.18h38.195v-3.1063h-38.195z" clip-path="url(#1ec6295038e)" fill="#1f77b4"/><path d="m245.69 143.18h38.195v118.04h-38.195z" clip-path="url(#1ec6295038e)" fill="#1f77b4"/><path d="m293.43 143.18h38.195v2.9821h-38.195z" clip-path="url(#1ec6295038e)" fill="#1f77b4"/><path d="m341.18 143.18h38.195v-123.88h-38.195z" clip-path="url(#1ec6295038e)" fill="#1f77b4"/><defs><path id="3f5f7469e77" d="m0 0v3.5" stroke="#000000" stroke-width=".8"/></defs><use x="73.812866" y="273.312" stroke="#000000" stroke-width=".8" xlink:href="#3f5f7469e77"/><g transform="translate(66.963 287.91) scale(.1 -.1)"><defs><path id="DejaVuSans-5a" transform="scale(.015625)" d="m359 4666h3666v-482l-2950-3653h3022v-531h-3809v481l2950 3653h-2879v532z"/></defs><use xlink:href="#DejaVuSans-5a"/><use transform="translate(68.506)" xlink:href="#DejaVuSans-5a"/></g><use x="121.556181" y="273.312" stroke="#000000" stroke-width=".8" xlink:href="#3f5f7469e77"/><g transform="translate(114.71 287.91) scale(.1 -.1)"><defs><path id="DejaVuSans-58" transform="scale(.015625)" d="m403 4666h678l1160-1735 1165 1735h678l-1500-2241 1600-2425h-678l-1312 1984-1322-1984h-681l1665 2491-1453 2175z"/></defs><use xlink:href="#DejaVuSans-58"/><use transform="translate(68.506)" xlink:href="#DejaVuSans-58"/></g><use x="169.299497" y="273.312" stroke="#000000" stroke-width=".8" xlink:href="#3f5f7469e77"/><g transform="translate(162.82 287.91) scale(.1 -.1)"><defs><path id="DejaVuSans-59" transform="scale(.015625)" d="m-13 4666h679l1293-1919 1285 1919h678l-1650-2444v-2222h-634v2222l-1651 2444z"/></defs><use xlink:href="#DejaVuSans-59"/><use transform="translate(61.084)" xlink:href="#DejaVuSans-5a"/></g><use x="217.042813" y="273.312" stroke="#000000" stroke-width=".8" xlink:href="#3f5f7469e77"/><g transform="translate(210.56 287.91) scale(.1 -.1)"><use xlink:href="#DejaVuSans-5a"/><use transform="translate(68.506)" xlink:href="#DejaVuSans-59"/></g><use x="264.786128" y="273.312" stroke="#000000" stroke-width=".8" xlink:href="#3f5f7469e77"/><g transform="translate(258.31 287.91) scale(.1 -.1)"><use xlink:href="#DejaVuSans-58"/><use transform="translate(68.506)" xlink:href="#DejaVuSans-59"/></g><use x="312.529444" y="273.312" stroke="#000000" stroke-width=".8" xlink:href="#3f5f7469e77"/><g transform="translate(305.68 287.91) scale(.1 -.1)"><use xlink:href="#DejaVuSans-58"/><use transform="translate(68.506)" xlink:href="#DejaVuSans-5a"/></g><use x="360.272759" y="273.312" stroke="#000000" stroke-width=".8" xlink:href="#3f5f7469e77"/><g transform="translate(353.42 287.91) scale(.1 -.1)"><use xlink:href="#DejaVuSans-5a"/><use transform="translate(68.506)" xlink:href="#DejaVuSans-58"/></g><defs><path id="0afef190b8e" d="m0 0h-3.5" stroke="#000000" stroke-width=".8"/></defs><use x="38.482813" y="247.017023" stroke="#000000" stroke-width=".8" xlink:href="#0afef190b8e"/><g transform="translate(7.2 250.82) scale(.1 -.1)"><defs><path id="DejaVuSans-2212" transform="scale(.015625)" d="m678 2272h4006v-531h-4006v531z"/><path id="DejaVuSans-30" transform="scale(.015625)" d="m2034 4250q-487 0-733-480-245-479-245-1442 0-959 245-1439 246-480 733-480 491 0 736 480 246 480 246 1439 0 963-246 1442-245 480-736 480zm0 500q785 0 1199-621 414-620 414-1801 0-1178-414-1799-414-620-1199-620-784 0-1198 620-414 621-414 1799 0 1181 414 1801 414 621 1198 621z"/><path id="DejaVuSans-2e" transform="scale(.015625)" d="m684 794h660v-794h-660v794z"/><path id="DejaVuSans-36" transform="scale(.015625)" d="m2113 2584q-425 0-674-291-248-290-248-796 0-503 248-796 249-292 674-292t673 292q248 293 248 796 0 506-248 796-248 291-673 291zm1253 1979v-575q-238 112-480 171-242 60-480 60-625 0-955-422-329-422-376-1275 184 272 462 417 279 145 613 145 703 0 1111-427 408-426 408-1160 0-719-425-1154-425-434-1131-434-810 0-1238 620-428 621-428 1799 0 1106 525 1764t1409 658q238 0 480-47t505-140z"/></defs><use xlink:href="#DejaVuSans-2212"/><use transform="translate(83.789)" xlink:href="#DejaVuSans-30"/><use transform="translate(147.41)" xlink:href="#DejaVuSans-2e"/><use transform="translate(179.2)" xlink:href="#DejaVuSans-36"/></g><use x="38.482813" y="212.403328" stroke="#000000" stroke-width=".8" xlink:href="#0afef190b8e"/><g transform="translate(7.2 216.2) scale(.1 -.1)"><defs><path id="DejaVuSans-34" transform="scale(.015625)" d="m2419 4116-1594-2491h1594v2491zm-166 550h794v-3041h666v-525h-666v-1100h-628v1100h-2106v609l1940 2957z"/></defs><use xlink:href="#DejaVuSans-2212"/><use transform="translate(83.789)" xlink:href="#DejaVuSans-30"/><use transform="translate(147.41)" xlink:href="#DejaVuSans-2e"/><use transform="translate(179.2)" xlink:href="#DejaVuSans-34"/></g><use x="38.482813" y="177.789633" stroke="#000000" stroke-width=".8" xlink:href="#0afef190b8e"/><g transform="translate(7.2 181.59) scale(.1 -.1)"><defs><path id="DejaVuSans-32" transform="scale(.015625)" d="m1228 531h2203v-531h-2962v531q359 372 979 998 621 627 780 809 303 340 423 576 121 236 121 464 0 372-261 606-261 235-680 235-297 0-627-103-329-103-704-313v638q381 153 712 231 332 78 607 78 725 0 1156-363 431-362 431-968 0-288-108-546-107-257-392-607-78-91-497-524-418-433-1181-1211z"/></defs><use xlink:href="#DejaVuSans-2212"/><use transform="translate(83.789)" xlink:href="#DejaVuSans-30"/><use transform="translate(147.41)" xlink:href="#DejaVuSans-2e"/><use transform="translate(179.2)" xlink:href="#DejaVuSans-32"/></g><use x="38.482813" y="143.175938" stroke="#000000" stroke-width=".8" xlink:href="#0afef190b8e"/><g transform="translate(15.58 146.98) scale(.1 -.1)"><use xlink:href="#DejaVuSans-30"/><use transform="translate(63.623)" xlink:href="#DejaVuSans-2e"/><use transform="translate(95.41)" xlink:href="#DejaVuSans-30"/></g><use x="38.482813" y="108.562243" stroke="#000000" stroke-width=".8" xlink:href="#0afef190b8e"/><g transform="translate(15.58 112.36) scale(.1 -.1)"><use xlink:href="#DejaVuSans-30"/><use transform="translate(63.623)" xlink:href="#DejaVuSans-2e"/><use transform="translate(95.41)" xlink:href="#DejaVuSans-32"/></g><use x="38.482813" y="73.948549" stroke="#000000" stroke-width=".8" xlink:href="#0afef190b8e"/><g transform="translate(15.58 77.748) scale(.1 -.1)"><use xlink:href="#DejaVuSans-30"/><use transform="translate(63.623)" xlink:href="#DejaVuSans-2e"/><use transform="translate(95.41)" xlink:href="#DejaVuSans-34"/></g><use x="38.482813" y="39.334854" stroke="#000000" stroke-width=".8" xlink:href="#0afef190b8e"/><g transform="translate(15.58 43.134) scale(.1 -.1)"><use xlink:href="#DejaVuSans-30"/><use transform="translate(63.623)" xlink:href="#DejaVuSans-2e"/><use transform="translate(95.41)" xlink:href="#DejaVuSans-36"/></g><path d="m38.483 273.31v-266.11" fill="none" stroke="#000000" stroke-linecap="square" stroke-width=".8"/><path d="m395.6 273.31v-266.11" fill="none" stroke="#000000" stroke-linecap="square" stroke-width=".8"/><path d="m38.483 273.31h357.12" fill="none" stroke="#000000" stroke-linecap="square" stroke-width=".8"/><path d="m38.483 7.2h357.12" fill="none" stroke="#000000" stroke-linecap="square" stroke-width=".8"/><defs><clipPath id="1ec6295038e"><rect x="38.483" y="7.2" width="357.12" height="266.11"/></clipPath></defs></svg>