<?xml version="1.0" encoding="UTF-8"?><!DOCTYPE svg  PUBLIC '-//W3C//DTD SVG 1.1//EN'  'http://www.w3.org/Graphics/SVG/1.1/DTD/svg11.dtd'><svg width="637.44pt" height="496.48pt" version="1.1" viewBox="0 0 637.44 496.48" xmlns="http://www.w3.org/2000/svg" xmlns:xlink="http://www.w3.org/1999/xlink"><defs><style type="text/css">*{stroke-linejoin: round; stroke-linecap: butt}</style></defs><path d="m0 496.48h637.44v-496.48h-637.44z" fill="#ffffff"/><path d="m64.721 44.283h560.88" clip-path="url(#fbaf3c24045)" fill="none" stroke="#000000" stroke-linecap="square" stroke-width="2"/><path d="m64.721 90.637h560.88" clip-path="url(#fbaf3c24045)" fill="none" stroke="#000000" stroke-linecap="square" stroke-width="2"/><path d="m64.721 136.99h560.88" clip-path="url(#fbaf3c24045)" fill="none" stroke="#000000" stroke-linecap="square" stroke-width="2"/><path d="m64.721 183.35h560.88" clip-path="url(#fbaf3c24045)" fill="none" stroke="#000000" stroke-linecap="square" stroke-width="2"/><path d="m64.721 229.7h560.88" clip-path="url(#fbaf3c24045)" fill="none" stroke="#000000" stroke-linecap="square" stroke-width="2"/><path d="m64.721 276.05h560.88" clip-path="url(#fbaf3c24045)" fill="none" stroke="#000000" stroke-linecap="square" stroke-width="2"/><path d="m64.721 322.41h560.88" clip-path="url(#fbaf3c24045)" fill="none" stroke="#000000" stroke-linecap="square" stroke-width="2"/><path d="m64.721 368.76h560.88" clip-path="url(#fbaf3c24045)" fill="none" stroke="#000000" stroke-linecap="square" stroke-width="2"/><path d="m73.992 419.75 4.6354-9.2708" clip-path="url(#fbaf3c24045)" fill="none" stroke="#778899" stroke-linecap="square" stroke-width="1.5"/><path d="m64.721 413.61h560.88" clip-path="url(#fbaf3c24045)" fill="none" stroke="#778899" stroke-linecap="square" stroke-width="2"/><path d="m64.721 416.62h560.88" clip-path="url(#fbaf3c24045)" fill="none" stroke="#778899" stroke-linecap="square" stroke-width="2"/><path d="m73.992 466.1 4.6354-9.2708" clip-path="url(#fbaf3c24045)" fill="none" stroke="#778899" stroke-linecap="square" stroke-width="1.5"/><path d="m64.721 459.96h560.88" clip-path="url(#fbaf3c24045)" fill="none" stroke="#778899" stroke-linecap="square" stroke-width="2"/><path d="m64.721 462.98h560.88" clip-path="url(#fbaf3c24045)" fill="none" stroke="#778899" stroke-linecap="square" stroke-width="2"/><path d="m269.14 450.92h12.052l-6.026 8.6914z" clip-path="url(#fbaf3c24045)" fill="#778899"/><path d="m315.5 450.92h12.052l-6.026 8.6914z" clip-path="url(#fbaf3c24045)" fill="#778899"/><path d="m361.85 450.92h12.052l-6.026 8.6914z" clip-path="url(#fbaf3c24045)" fill="#778899"/><path d="m408.2 404.57h12.052l-6.026 8.6914z" clip-path="url(#fbaf3c24045)" fill="#778899"/><path d="m454.56 404.57h12.052l-6.026 8.6914z" clip-path="url(#fbaf3c24045)" fill="#778899"/><path d="m500.91 404.57h12.052l-6.026 8.6914z" clip-path="url(#fbaf3c24045)" fill="#778899"/><path d="m547.27 404.57h12.052l-6.026 8.6914z" clip-path="url(#fbaf3c24045)" fill="#778899"/><path d="m593.62 404.57h12.052l-6.026 8.6914z" clip-path="url(#fbaf3c24045)" fill="#778899"/><path d="m60.086 21.106h-1158.8v509.89h1158.8z" clip-path="url(#fbaf3c24045)" fill="#ffffff" stroke="#ffffff" stroke-width="1.5"/><path d="m228.81 229.7v-92.708" clip-path="url(#fbaf3c24045)" fill="none" stroke="#002d9c" stroke-linecap="square" stroke-width="2"/><path d="m228.81 183.35v-46.354" clip-path="url(#fbaf3c24045)" fill="none" stroke="#002d9c" stroke-linecap="square" stroke-width="2"/><path d="m275.17 136.99v-92.708" clip-path="url(#fbaf3c24045)" fill="none" stroke="#002d9c" stroke-linecap="square" stroke-width="2"/><path d="m275.17 90.637v-46.354" clip-path="url(#fbaf3c24045)" fill="none" stroke="#002d9c" stroke-linecap="square" stroke-width="2"/><path d="m276.67 368.76v82.162" clip-path="url(#fbaf3c24045)" fill="none" stroke="#778899" stroke-linecap="square" stroke-width="2"/><path d="m273.66 368.76v82.162" clip-path="url(#fbaf3c24045)" fill="none" stroke="#778899" stroke-linecap="square" stroke-width="2"/><path d="m323.03 322.41v128.52" clip-path="url(#fbaf3c24045)" fill="none" stroke="#778899" stroke-linecap="square" stroke-width="2"/><path d="m320.02 322.41v128.52" clip-path="url(#fbaf3c24045)" fill="none" stroke="#778899" stroke-linecap="square" stroke-width="2"/><path d="m321.52 229.7v-185.42" clip-path="url(#fbaf3c24045)" fill="none" stroke="#002d9c" stroke-linecap="square" stroke-width="2"/><path d="m321.52 44.283v185.42" clip-path="url(#fbaf3c24045)" fill="none" stroke="#002d9c" stroke-linecap="square" stroke-width="2"/><path d="m369.38 276.05v174.87" clip-path="url(#fbaf3c24045)" fill="none" stroke="#778899" stroke-linecap="square" stroke-width="2"/><path d="m366.37 276.05v174.87" clip-path="url(#fbaf3c24045)" fill="none" stroke="#778899" stroke-linecap="square" stroke-width="2"/><path d="m415.74 229.7v174.87" clip-path="url(#fbaf3c24045)" fill="none" stroke="#778899" stroke-linecap="square" stroke-width="2"/><path d="m412.72 229.7v174.87" clip-path="url(#fbaf3c24045)" fill="none" stroke="#778899" stroke-linecap="square" stroke-width="2"/><path d="m462.09 183.35v221.22" clip-path="url(#fbaf3c24045)" fill="none" stroke="#778899" stroke-linecap="square" stroke-width="2"/><path d="m459.08 183.35v221.22" clip-path="url(#fbaf3c24045)" fill="none" stroke="#778899" stroke-linecap="square" stroke-width="2"/><path d="m508.44 136.99v267.58" clip-path="url(#fbaf3c24045)" fill="none" stroke="#778899" stroke-linecap="square" stroke-width="2"/><path d="m505.43 136.99v267.58" clip-path="url(#fbaf3c24045)" fill="none" stroke="#778899" stroke-linecap="square" stroke-width="2"/><path d="m554.8 90.637v313.93" clip-path="url(#fbaf3c24045)" fill="none" stroke="#778899" stroke-linecap="square" stroke-width="2"/><path d="m551.79 90.637v313.93" clip-path="url(#fbaf3c24045)" fill="none" stroke="#778899" stroke-linecap="square" stroke-width="2"/><path d="m601.15 44.283v360.29" clip-path="url(#fbaf3c24045)" fill="none" stroke="#778899" stroke-linecap="square" stroke-width="2"/><path d="m598.14 44.283v360.29" clip-path="url(#fbaf3c24045)" fill="none" stroke="#778899" stroke-linecap="square" stroke-width="2"/><path d="m222.79 189.37 12.052-12.052" clip-path="url(#fbaf3c24045)" fill="none" stroke="#002d9c" stroke-linecap="square" stroke-width="2"/><path d="m222.79 177.32 12.052 12.052" clip-path="url(#fbaf3c24045)" fill="none" stroke="#002d9c" stroke-linecap="square" stroke-width="2"/><path d="m222.79 143.02 12.052-12.052" clip-path="url(#fbaf3c24045)" fill="none" stroke="#002d9c" stroke-linecap="square" stroke-width="2"/><path d="m222.79 130.97 12.052 12.052" clip-path="url(#fbaf3c24045)" fill="none" stroke="#002d9c" stroke-linecap="square" stroke-width="2"/><path d="m269.14 96.663 12.052-12.052" clip-path="url(#fbaf3c24045)" fill="none" stroke="#002d9c" stroke-linecap="square" stroke-width="2"/><path d="m269.14 84.611 12.052 12.052" clip-path="url(#fbaf3c24045)" fill="none" stroke="#002d9c" stroke-linecap="square" stroke-width="2"/><path d="m269.14 50.309 12.052-12.052" clip-path="url(#fbaf3c24045)" fill="none" stroke="#002d9c" stroke-linecap="square" stroke-width="2"/><path d="m269.14 38.257 12.052 12.052" clip-path="url(#fbaf3c24045)" fill="none" stroke="#002d9c" stroke-linecap="square" stroke-width="2"/><path d="m315.5 50.309 12.052-12.052" clip-path="url(#fbaf3c24045)" fill="none" stroke="#002d9c" stroke-linecap="square" stroke-width="2"/><path d="m315.5 38.257 12.052 12.052" clip-path="url(#fbaf3c24045)" fill="none" stroke="#002d9c" stroke-linecap="square" stroke-width="2"/><path d="m315.5 235.73 12.052-12.052" clip-path="url(#fbaf3c24045)" fill="none" stroke="#002d9c" stroke-linecap="square" stroke-width="2"/><path d="m315.5 223.67 12.052 12.052" clip-path="url(#fbaf3c24045)" fill="none" stroke="#002d9c" stroke-linecap="square" stroke-width="2"/><path d="m127.07 391.94h18.078v-46.354h-18.078z" clip-path="url(#fbaf3c24045)" fill="#a8a8a8" opacity=".6"/><path d="m127.07 345.58h18.078v-46.354h-18.078z" clip-path="url(#fbaf3c24045)" fill="#a8a8a8" opacity=".6"/><path d="m127.07 299.23h18.078v-46.354h-18.078z" clip-path="url(#fbaf3c24045)" fill="#a8a8a8" opacity=".6"/><path d="m127.07 252.88h18.078v-46.354h-18.078z" clip-path="url(#fbaf3c24045)" fill="#a8a8a8" opacity=".6"/><path d="m127.07 206.52h18.078v-46.354h-18.078z" clip-path="url(#fbaf3c24045)" fill="#a8a8a8" opacity=".6"/><path d="m127.07 160.17h18.078v-46.354h-18.078z" clip-path="url(#fbaf3c24045)" fill="#a8a8a8" opacity=".6"/><path d="m127.07 113.81h18.078v-46.354h-18.078z" clip-path="url(#fbaf3c24045)" fill="#a8a8a8" opacity=".6"/><path d="m127.07 67.46h18.078v-46.354h-18.078z" clip-path="url(#fbaf3c24045)" fill="#a8a8a8" opacity=".6"/><path d="m219.78 391.94h18.078v-46.354h-18.078z" clip-path="url(#fbaf3c24045)" fill="#a8a8a8" opacity=".6"/><path d="m219.78 345.58h18.078v-46.354h-18.078z" clip-path="url(#fbaf3c24045)" fill="#a8a8a8" opacity=".6"/><path d="m219.78 299.23h18.078v-46.354h-18.078z" clip-path="url(#fbaf3c24045)" fill="#a8a8a8" opacity=".6"/><path d="m358.84 252.88h18.078v-46.354h-18.078z" clip-path="url(#fbaf3c24045)" fill="#a8a8a8" opacity=".6"/><path d="m358.84 206.52h18.078v-46.354h-18.078z" clip-path="url(#fbaf3c24045)" fill="#a8a8a8" opacity=".6"/><path d="m358.84 160.17h18.078v-46.354h-18.078z" clip-path="url(#fbaf3c24045)" fill="#a8a8a8" opacity=".6"/><path d="m358.84 113.81h18.078v-46.354h-18.078z" clip-path="url(#fbaf3c24045)" fill="#a8a8a8" opacity=".6"/><path d="m358.84 67.46h18.078v-46.354h-18.078z" clip-path="url(#fbaf3c24045)" fill="#a8a8a8" opacity=".6"/><path d="m74.687 337.47h30.13v-30.13h-30.13z" clip-path="url(#fbaf3c24045)" fill="#002d9c" stroke="#002d9c" stroke-width="1.5"/><path d="m74.687 198.41h30.13v-30.13h-30.13z" clip-path="url(#fbaf3c24045)" fill="#002d9c" stroke="#002d9c" stroke-width="1.5"/><path d="m74.687 152.06h30.13v-30.13h-30.13z" clip-path="url(#fbaf3c24045)" fill="#002d9c" stroke="#002d9c" stroke-width="1.5"/><path d="m74.687 59.348h30.13v-30.13h-30.13z" clip-path="url(#fbaf3c24045)" fill="#002d9c" stroke="#002d9c" stroke-width="1.5"/><path d="m167.4 383.83h30.13v-30.13h-30.13z" clip-path="url(#fbaf3c24045)" fill="#fa4d56" stroke="#fa4d56" stroke-width="1.5"/><path d="m167.4 337.47h30.13v-30.13h-30.13z" clip-path="url(#fbaf3c24045)" fill="#fa4d56" stroke="#fa4d56" stroke-width="1.5"/><path d="m167.4 291.12h30.13v-30.13h-30.13z" clip-path="url(#fbaf3c24045)" fill="#fa4d56" stroke="#fa4d56" stroke-width="1.5"/><path d="m167.4 244.76h30.13v-30.13h-30.13z" clip-path="url(#fbaf3c24045)" fill="#fa4d56" stroke="#fa4d56" stroke-width="1.5"/><path d="m167.4 198.41h30.13v-30.13h-30.13z" clip-path="url(#fbaf3c24045)" fill="#fa4d56" stroke="#fa4d56" stroke-width="1.5"/><path d="m167.4 152.06h30.13v-30.13h-30.13z" clip-path="url(#fbaf3c24045)" fill="#fa4d56" stroke="#fa4d56" stroke-width="1.5"/><path d="m167.4 105.7h30.13v-30.13h-30.13z" clip-path="url(#fbaf3c24045)" fill="#fa4d56" stroke="#fa4d56" stroke-width="1.5"/><path d="m167.4 59.348h30.13v-30.13h-30.13z" clip-path="url(#fbaf3c24045)" fill="#fa4d56" stroke="#fa4d56" stroke-width="1.5"/><path d="m228.81 234.22c1.1986 0 2.3482-0.4762 3.1958-1.3237 0.84753-0.84753 1.3237-1.9972 1.3237-3.1958s-0.4762-2.3482-1.3237-3.1958c-0.84753-0.84753-1.9972-1.3237-3.1958-1.3237-1.1986 0-2.3482 0.4762-3.1958 1.3237-0.84753 0.84753-1.3237 1.9972-1.3237 3.1958s0.4762 2.3482 1.3237 3.1958c0.84753 0.84753 1.9972 1.3237 3.1958 1.3237z" clip-path="url(#fbaf3c24045)" fill="#002d9c" stroke="#002d9c" stroke-width="1.5"/><path d="m275.17 141.51c1.1986 0 2.3482-0.4762 3.1958-1.3237 0.84753-0.84753 1.3237-1.9972 1.3237-3.1958 0-1.1986-0.4762-2.3482-1.3237-3.1958-0.84753-0.84753-1.9972-1.3237-3.1958-1.3237-1.1986 0-2.3482 0.4762-3.1958 1.3237-0.84753 0.84753-1.3237 1.9972-1.3237 3.1958 0 1.1986 0.4762 2.3482 1.3237 3.1958s1.9972 1.3237 3.1958 1.3237z" clip-path="url(#fbaf3c24045)" fill="#002d9c" stroke="#002d9c" stroke-width="1.5"/><path d="m260.1 383.83h30.13v-30.13h-30.13z" clip-path="url(#fbaf3c24045)" fill="#a8a8a8" stroke="#a8a8a8" stroke-width="1.5"/><path d="m285.71 373.28c0-2.7958-1.1118-5.4799-3.0887-7.4568s-4.661-3.0887-7.4568-3.0887c-2.7958 0-5.4799 1.1118-7.4568 3.0887s-3.0887 4.661-3.0887 7.4568" clip-path="url(#fbaf3c24045)" fill="none" stroke="#000000" stroke-width="2"/><path d="m275.17 373.28 10.546-10.546" clip-path="url(#fbaf3c24045)" fill="none" stroke="#000000" stroke-linecap="square" stroke-width="2"/><path d="m306.46 337.47h30.13v-30.13h-30.13z" clip-path="url(#fbaf3c24045)" fill="#a8a8a8" stroke="#a8a8a8" stroke-width="1.5"/><path d="m332.07 326.93c0-2.7958-1.1118-5.4799-3.0887-7.4568-1.9769-1.9769-4.661-3.0887-7.4568-3.0887s-5.4799 1.1118-7.4568 3.0887c-1.9769 1.9769-3.0887 4.661-3.0887 7.4568" clip-path="url(#fbaf3c24045)" fill="none" stroke="#000000" stroke-width="2"/><path d="m321.52 326.93 10.546-10.546" clip-path="url(#fbaf3c24045)" fill="none" stroke="#000000" stroke-linecap="square" stroke-width="2"/><path d="m321.52 95.157c1.1986 0 2.3482-0.4762 3.1958-1.3237 0.84753-0.84753 1.3237-1.9972 1.3237-3.1958s-0.4762-2.3482-1.3237-3.1958c-0.84753-0.84753-1.9972-1.3237-3.1958-1.3237s-2.3482 0.4762-3.1958 1.3237c-0.84753 0.84753-1.3237 1.9972-1.3237 3.1958s0.4762 2.3482 1.3237 3.1958c0.84753 0.84753 1.9972 1.3237 3.1958 1.3237z" clip-path="url(#fbaf3c24045)" fill="#002d9c" stroke="#002d9c" stroke-width="1.5"/><path d="m352.81 291.12h30.13v-30.13h-30.13z" clip-path="url(#fbaf3c24045)" fill="#a8a8a8" stroke="#a8a8a8" stroke-width="1.5"/><path d="m378.42 280.57c0-2.7958-1.1118-5.4799-3.0887-7.4568-1.9769-1.9769-4.661-3.0887-7.4568-3.0887s-5.4799 1.1118-7.4568 3.0887-3.0887 4.661-3.0887 7.4568" clip-path="url(#fbaf3c24045)" fill="none" stroke="#000000" stroke-width="2"/><path d="m367.88 280.57 10.546-10.546" clip-path="url(#fbaf3c24045)" fill="none" stroke="#000000" stroke-linecap="square" stroke-width="2"/><path d="m399.17 244.76h30.13v-30.13h-30.13z" clip-path="url(#fbaf3c24045)" fill="#a8a8a8" stroke="#a8a8a8" stroke-width="1.5"/><path d="m424.78 234.22c0-2.7958-1.1118-5.4799-3.0887-7.4568s-4.661-3.0887-7.4568-3.0887-5.4799 1.1118-7.4568 3.0887c-1.9769 1.9769-3.0887 4.661-3.0887 7.4568" clip-path="url(#fbaf3c24045)" fill="none" stroke="#000000" stroke-width="2"/><path d="m414.23 234.22 10.546-10.546" clip-path="url(#fbaf3c24045)" fill="none" stroke="#000000" stroke-linecap="square" stroke-width="2"/><path d="m445.52 198.41h30.13v-30.13h-30.13z" clip-path="url(#fbaf3c24045)" fill="#a8a8a8" stroke="#a8a8a8" stroke-width="1.5"/><path d="m471.13 187.86c0-2.7958-1.1118-5.4799-3.0887-7.4568s-4.661-3.0887-7.4568-3.0887-5.4799 1.1118-7.4568 3.0887-3.0887 4.661-3.0887 7.4568" clip-path="url(#fbaf3c24045)" fill="none" stroke="#000000" stroke-width="2"/><path d="m460.58 187.86 10.546-10.546" clip-path="url(#fbaf3c24045)" fill="none" stroke="#000000" stroke-linecap="square" stroke-width="2"/><path d="m491.87 152.06h30.13v-30.13h-30.13z" clip-path="url(#fbaf3c24045)" fill="#a8a8a8" stroke="#a8a8a8" stroke-width="1.5"/><path d="m517.48 141.51c0-2.7958-1.1118-5.4799-3.0887-7.4568s-4.661-3.0887-7.4568-3.0887c-2.7958 0-5.4799 1.1118-7.4568 3.0887s-3.0887 4.661-3.0887 7.4568" clip-path="url(#fbaf3c24045)" fill="none" stroke="#000000" stroke-width="2"/><path d="m506.94 141.51 10.546-10.546" clip-path="url(#fbaf3c24045)" fill="none" stroke="#000000" stroke-linecap="square" stroke-width="2"/><path d="m538.23 105.7h30.13v-30.13h-30.13z" clip-path="url(#fbaf3c24045)" fill="#a8a8a8" stroke="#a8a8a8" stroke-width="1.5"/><path d="m563.84 95.157c0-2.7958-1.1118-5.4799-3.0887-7.4568s-4.661-3.0887-7.4568-3.0887-5.4799 1.1118-7.4568 3.0887-3.0887 4.661-3.0887 7.4568" clip-path="url(#fbaf3c24045)" fill="none" stroke="#000000" stroke-width="2"/><path d="m553.29 95.157 10.546-10.546" clip-path="url(#fbaf3c24045)" fill="none" stroke="#000000" stroke-linecap="square" stroke-width="2"/><path d="m584.58 59.348h30.13v-30.13h-30.13z" clip-path="url(#fbaf3c24045)" fill="#a8a8a8" stroke="#a8a8a8" stroke-width="1.5"/><path d="m610.19 48.803c0-2.7958-1.1118-5.4799-3.0887-7.4568-1.9769-1.9769-4.661-3.0887-7.4568-3.0887s-5.4799 1.1118-7.4568 3.0887-3.0887 4.661-3.0887 7.4568" clip-path="url(#fbaf3c24045)" fill="none" stroke="#000000" stroke-width="2"/><path d="m599.65 48.803 10.546-10.546" clip-path="url(#fbaf3c24045)" fill="none" stroke="#000000" stroke-linecap="square" stroke-width="2"/><g clip-path="url(#fbaf3c24045)"><g transform="translate(37.413 48.767) scale(.1625 -.1625)"><defs><path id="DejaVuSans-Oblique-62" transform="scale(.015625)" d="m3169 2138q0 453-208 709t-573 256q-266 0-499-130-233-129-405-376-181-259-286-602-104-342-104-682 0-432 204-677 205-245 565-245 271 0 502 126 232 127 407 374 178 256 287 596 110 341 110 651zm-1788 831q213 287 533 451t670 164q538 0 855-363 317-362 317-980 0-507-186-982t-529-843q-225-244-519-376-294-131-616-131-340 0-590 156-250 157-407 466l-103-531h-575l947 4863h575l-372-1894z"/><path id="DejaVuSans-34" transform="scale(.015625)" d="m2419 4116-1594-2491h1594v2491zm-166 550h794v-3041h666v-525h-666v-1100h-628v1100h-2106v609l1940 2957z"/></defs><use transform="translate(0 .015625)" xlink:href="#DejaVuSans-Oblique-62"/><use transform="translate(63.477 -16.391) scale(.7)" xlink:href="#DejaVuSans-34"/></g></g><g clip-path="url(#fbaf3c24045)"><g transform="translate(37.413 95.121) scale(.1625 -.1625)"><defs><path id="DejaVuSans-33" transform="scale(.015625)" d="m2597 2516q453-97 707-404 255-306 255-756 0-690-475-1069-475-378-1350-378-293 0-604 58t-642 174v609q262-153 574-231 313-78 654-78 593 0 904 234t311 681q0 413-289 645-289 233-804 233h-544v519h569q465 0 712 186t247 536q0 359-255 551-254 193-729 193-260 0-557-57-297-56-653-174v562q360 100 674 150t592 50q719 0 1137-327 419-326 419-882 0-388-222-655t-631-370z"/></defs><use transform="translate(0 .015625)" xlink:href="#DejaVuSans-Oblique-62"/><use transform="translate(63.477 -16.391) scale(.7)" xlink:href="#DejaVuSans-33"/></g></g><g clip-path="url(#fbaf3c24045)"><g transform="translate(37.413 141.48) scale(.1625 -.1625)"><defs><path id="DejaVuSans-32" transform="scale(.015625)" d="m1228 531h2203v-531h-2962v531q359 372 979 998 621 627 780 809 303 340 423 576 121 236 121 464 0 372-261 606-261 235-680 235-297 0-627-103-329-103-704-313v638q381 153 712 231 332 78 607 78 725 0 1156-363 431-362 431-968 0-288-108-546-107-257-392-607-78-91-497-524-418-433-1181-1211z"/></defs><use transform="translate(0 .015625)" xlink:href="#DejaVuSans-Oblique-62"/><use transform="translate(63.477 -16.391) scale(.7)" xlink:href="#DejaVuSans-32"/></g></g><g clip-path="url(#fbaf3c24045)"><g transform="translate(37.413 187.83) scale(.1625 -.1625)"><defs><path id="DejaVuSans-31" transform="scale(.015625)" d="m794 531h1031v3560l-1122-225v575l1116 225h631v-4135h1031v-531h-2687v531z"/></defs><use transform="translate(0 .015625)" xlink:href="#DejaVuSans-Oblique-62"/><use transform="translate(63.477 -16.391) scale(.7)" xlink:href="#DejaVuSans-31"/></g></g><g clip-path="url(#fbaf3c24045)"><g transform="translate(37.413 234.18) scale(.1625 -.1625)"><defs><path id="DejaVuSans-30" transform="scale(.015625)" d="m2034 4250q-487 0-733-480-245-479-245-1442 0-959 245-1439 246-480 733-480 491 0 736 480 246 480 246 1439 0 963-246 1442-245 480-736 480zm0 500q785 0 1199-621 414-620 414-1801 0-1178-414-1799-414-620-1199-620-784 0-1198 620-414 621-414 1799 0 1181 414 1801 414 621 1198 621z"/></defs><use transform="translate(0 .015625)" xlink:href="#DejaVuSans-Oblique-62"/><use transform="translate(63.477 -16.391) scale(.7)" xlink:href="#DejaVuSans-30"/></g></g><g clip-path="url(#fbaf3c24045)"><g transform="translate(37.738 280.54) scale(.1625 -.1625)"><defs><path id="DejaVuSans-Oblique-61" transform="scale(.015625)" d="m3438 1997-391-1997h-575l106 531q-253-312-577-467-323-155-720-155-447 0-733 273-285 274-285 702 0 613 489 969t1348 356h800l31 154q7 25 10 54 3 30 3 92 0 279-227 433-226 155-636 155-281 0-577-72-295-72-607-216l100 532q325 122 636 182 311 61 601 61 619 0 942-269 324-268 324-781 0-103-16-242-15-139-46-295zm-622-238h-575q-707 0-1046-189t-339-586q0-275 173-431 174-156 480-156 469 0 819 336t463 898l25 128z"/></defs><use xlink:href="#DejaVuSans-Oblique-61"/><use transform="translate(61.279 -16.406) scale(.7)" xlink:href="#DejaVuSans-32"/></g></g><g clip-path="url(#fbaf3c24045)"><g transform="translate(37.738 326.89) scale(.1625 -.1625)"><use xlink:href="#DejaVuSans-Oblique-61"/><use transform="translate(61.279 -16.406) scale(.7)" xlink:href="#DejaVuSans-31"/></g></g><g clip-path="url(#fbaf3c24045)"><g transform="translate(37.738 373.25) scale(.1625 -.1625)"><use xlink:href="#DejaVuSans-Oblique-61"/><use transform="translate(61.279 -16.406) scale(.7)" xlink:href="#DejaVuSans-30"/></g></g><g clip-path="url(#fbaf3c24045)"><g transform="translate(69.357 408.32) scale(.104 -.104)"><defs><path id="DejaVuSans-35" transform="scale(.015625)" d="m691 4666h2478v-532h-1900v-1143q137 47 274 70 138 23 276 23 781 0 1237-428 457-428 457-1159 0-753-469-1171-469-417-1322-417-294 0-599 50-304 50-629 150v635q281-153 581-228t634-75q541 0 856 284 316 284 316 772 0 487-316 771-315 285-856 285-253 0-505-56-251-56-513-175v2344z"/></defs><use xlink:href="#DejaVuSans-35"/></g></g><g clip-path="url(#fbaf3c24045)"><g transform="translate(36.176 419.6) scale(.1625 -.1625)"><defs><path id="DejaVuSans-63" transform="scale(.015625)" d="m3122 3366v-538q-244 135-489 202t-495 67q-560 0-870-355-309-354-309-995t309-996q310-354 870-354 250 0 495 67t489 202v-532q-241-112-499-168-257-57-548-57-791 0-1257 497-465 497-465 1341 0 856 470 1346 471 491 1290 491 265 0 518-55 253-54 491-163z"/></defs><use xlink:href="#DejaVuSans-63"/><use transform="translate(54.98)" xlink:href="#DejaVuSans-31"/></g></g><g clip-path="url(#fbaf3c24045)"><g transform="translate(69.357 454.67) scale(.104 -.104)"><use xlink:href="#DejaVuSans-33"/></g></g><g clip-path="url(#fbaf3c24045)"><g transform="translate(36.176 465.95) scale(.1625 -.1625)"><use xlink:href="#DejaVuSans-63"/><use transform="translate(54.98)" xlink:href="#DejaVuSans-30"/></g></g><g clip-path="url(#fbaf3c24045)"><g transform="translate(85.3 325.99) scale(.13 -.13)" fill="#ffffff"><defs><path id="DejaVuSans-58" transform="scale(.015625)" d="m403 4666h678l1160-1735 1165 1735h678l-1500-2241 1600-2425h-678l-1312 1984-1322-1984h-681l1665 2491-1453 2175z"/></defs><use xlink:href="#DejaVuSans-58"/></g></g><g clip-path="url(#fbaf3c24045)"><g transform="translate(85.3 186.93) scale(.13 -.13)" fill="#ffffff"><use xlink:href="#DejaVuSans-58"/></g></g><g clip-path="url(#fbaf3c24045)"><g transform="translate(85.3 140.58) scale(.13 -.13)" fill="#ffffff"><use xlink:href="#DejaVuSans-58"/></g></g><g clip-path="url(#fbaf3c24045)"><g transform="translate(85.3 47.87) scale(.13 -.13)" fill="#ffffff"><use xlink:href="#DejaVuSans-58"/></g></g><path d="m136.11 345.58v46.354" clip-path="url(#fbaf3c24045)" fill="none" stroke="#000000" stroke-dasharray="3.7,1.6"/><path d="m136.11 299.23v46.354" clip-path="url(#fbaf3c24045)" fill="none" stroke="#000000" stroke-dasharray="3.7,1.6"/><path d="m136.11 252.88v46.354" clip-path="url(#fbaf3c24045)" fill="none" stroke="#000000" stroke-dasharray="3.7,1.6"/><path d="m136.11 206.52v46.354" clip-path="url(#fbaf3c24045)" fill="none" stroke="#000000" stroke-dasharray="3.7,1.6"/><path d="m136.11 160.17v46.354" clip-path="url(#fbaf3c24045)" fill="none" stroke="#000000" stroke-dasharray="3.7,1.6"/><path d="m136.11 113.81v46.354" clip-path="url(#fbaf3c24045)" fill="none" stroke="#000000" stroke-dasharray="3.7,1.6"/><path d="m136.11 67.46v46.354" clip-path="url(#fbaf3c24045)" fill="none" stroke="#000000" stroke-dasharray="3.7,1.6"/><path d="m136.11 21.106v46.354" clip-path="url(#fbaf3c24045)" fill="none" stroke="#000000" stroke-dasharray="3.7,1.6"/><g clip-path="url(#fbaf3c24045)"><g transform="translate(177.57 372.35) scale(.13 -.13)"><defs><path id="DejaVuSans-48" transform="scale(.015625)" d="m628 4666h631v-1913h2294v1913h631v-4666h-631v2222h-2294v-2222h-631v4666z"/></defs><use xlink:href="#DejaVuSans-48"/></g></g><g clip-path="url(#fbaf3c24045)"><g transform="translate(177.57 325.99) scale(.13 -.13)"><use xlink:href="#DejaVuSans-48"/></g></g><g clip-path="url(#fbaf3c24045)"><g transform="translate(177.57 279.64) scale(.13 -.13)"><use xlink:href="#DejaVuSans-48"/></g></g><g clip-path="url(#fbaf3c24045)"><g transform="translate(177.57 233.29) scale(.13 -.13)"><use xlink:href="#DejaVuSans-48"/></g></g><g clip-path="url(#fbaf3c24045)"><g transform="translate(177.57 186.93) scale(.13 -.13)"><use xlink:href="#DejaVuSans-48"/></g></g><g clip-path="url(#fbaf3c24045)"><g transform="translate(177.57 140.58) scale(.13 -.13)"><use xlink:href="#DejaVuSans-48"/></g></g><g clip-path="url(#fbaf3c24045)"><g transform="translate(177.57 94.224) scale(.13 -.13)"><use xlink:href="#DejaVuSans-48"/></g></g><g clip-path="url(#fbaf3c24045)"><g transform="translate(177.57 47.87) scale(.13 -.13)"><use xlink:href="#DejaVuSans-48"/></g></g><path d="m228.81 345.58v46.354" clip-path="url(#fbaf3c24045)" fill="none" stroke="#000000" stroke-dasharray="3.7,1.6"/><path d="m228.81 299.23v46.354" clip-path="url(#fbaf3c24045)" fill="none" stroke="#000000" stroke-dasharray="3.7,1.6"/><path d="m228.81 252.88v46.354" clip-path="url(#fbaf3c24045)" fill="none" stroke="#000000" stroke-dasharray="3.7,1.6"/><g clip-path="url(#fbaf3c24045)"><g transform="translate(286.76 454.67) scale(.104 -.104)"><use xlink:href="#DejaVuSans-30"/></g></g><g clip-path="url(#fbaf3c24045)"><g transform="translate(333.11 454.67) scale(.104 -.104)"><use xlink:href="#DejaVuSans-31"/></g></g><g clip-path="url(#fbaf3c24045)"><g transform="translate(379.46 454.67) scale(.104 -.104)"><use xlink:href="#DejaVuSans-32"/></g></g><path d="m367.88 206.52v46.354" clip-path="url(#fbaf3c24045)" fill="none" stroke="#000000" stroke-dasharray="3.7,1.6"/><path d="m367.88 160.17v46.354" clip-path="url(#fbaf3c24045)" fill="none" stroke="#000000" stroke-dasharray="3.7,1.6"/><path d="m367.88 113.81v46.354" clip-path="url(#fbaf3c24045)" fill="none" stroke="#000000" stroke-dasharray="3.7,1.6"/><path d="m367.88 67.46v46.354" clip-path="url(#fbaf3c24045)" fill="none" stroke="#000000" stroke-dasharray="3.7,1.6"/><path d="m367.88 21.106v46.354" clip-path="url(#fbaf3c24045)" fill="none" stroke="#000000" stroke-dasharray="3.7,1.6"/><g clip-path="url(#fbaf3c24045)"><g transform="translate(425.82 408.32) scale(.104 -.104)"><use xlink:href="#DejaVuSans-30"/></g></g><g clip-path="url(#fbaf3c24045)"><g transform="translate(472.17 408.32) scale(.104 -.104)"><use xlink:href="#DejaVuSans-31"/></g></g><g clip-path="url(#fbaf3c24045)"><g transform="translate(518.53 408.32) scale(.104 -.104)"><use xlink:href="#DejaVuSans-32"/></g></g><g clip-path="url(#fbaf3c24045)"><g transform="translate(564.88 408.32) scale(.104 -.104)"><use xlink:href="#DejaVuSans-33"/></g></g><g clip-path="url(#fbaf3c24045)"><g transform="translate(611.23 408.32) scale(.104 -.104)"><use xlink:href="#DejaVuSans-34"/></g></g><defs><clipPath id="fbaf3c24045"><rect x="7.2" y="7.2" width="623.04" height="482.08"/></clipPath></defs></svg>