<?xml version="1.0" encoding="UTF-8"?><!DOCTYPE svg  PUBLIC '-//W3C//DTD SVG 1.1//EN'  'http://www.w3.org/Graphics/SVG/1.1/DTD/svg11.dtd'><svg width="497.68pt" height="353.23pt" version="1.1" viewBox="0 0 497.68 353.23" xmlns="http://www.w3.org/2000/svg" xmlns:xlink="http://www.w3.org/1999/xlink"><defs><style type="text/css">*{stroke-linejoin: round; stroke-linecap: butt}</style></defs><path d="m0 353.23h497.68v-353.23h-497.68z" fill="#ffffff"/><path d="m66.197 298.22h424.28v-285.7h-424.28z" fill="#eeeeee"/><path d="m96.827 298.22v-285.7" clip-path="url(#6e68871e1a3)" fill="none" stroke="#b0b0b0" stroke-dasharray="3.7,1.6"/><defs><path id="c0044c49279" d="m0 0v3.5" stroke="#000000" stroke-width=".8"/></defs><use x="96.826871" y="298.220672" stroke="#000000" stroke-width=".8" xlink:href="#c0044c49279"/><g transform="translate(98.832 316.62) rotate(-70) scale(.14 -.14)"><defs><path id="DejaVuSans-2c" transform="scale(.015625)" d="m628 4666h631v-4666h-631v4666z"/></defs><use xlink:href="#DejaVuSans-2c"/><use transform="translate(29.5)" xlink:href="#DejaVuSans-2c"/></g><path d="m142.2 298.22v-285.7" clip-path="url(#6e68871e1a3)" fill="none" stroke="#b0b0b0" stroke-dasharray="3.7,1.6"/><use x="142.204411" y="298.220672" stroke="#000000" stroke-width=".8" xlink:href="#c0044c49279"/><g transform="translate(143.28 321.75) rotate(-70) scale(.14 -.14)"><defs><path id="DejaVuSans-3b" transform="scale(.015625)" d="m403 4666h678l1160-1735 1165 1735h678l-1500-2241 1600-2425h-678l-1312 1984-1322-1984h-681l1665 2491-1453 2175z"/></defs><use xlink:href="#DejaVuSans-2c"/><use transform="translate(29.5)" xlink:href="#DejaVuSans-3b"/></g><path d="m187.58 298.22v-285.7" clip-path="url(#6e68871e1a3)" fill="none" stroke="#b0b0b0" stroke-dasharray="3.7,1.6"/><use x="187.581951" y="298.220672" stroke="#000000" stroke-width=".8" xlink:href="#c0044c49279"/><g transform="translate(187.9 325.91) rotate(-70) scale(.14 -.14)"><defs><path id="DejaVuSans-3c" transform="scale(.015625)" d="m-13 4666h679l1293-1919 1285 1919h678l-1650-2444v-2222h-634v2222l-1651 2444z"/></defs><use xlink:href="#DejaVuSans-3b"/><use transform="translate(68.5)" xlink:href="#DejaVuSans-3c"/></g><path d="m232.96 298.22v-285.7" clip-path="url(#6e68871e1a3)" fill="none" stroke="#b0b0b0" stroke-dasharray="3.7,1.6"/><use x="232.959491" y="298.220672" stroke="#000000" stroke-width=".8" xlink:href="#c0044c49279"/><g transform="translate(234.21 320.77) rotate(-70) scale(.14 -.14)"><use xlink:href="#DejaVuSans-3c"/><use transform="translate(61.078)" xlink:href="#DejaVuSans-2c"/></g><path d="m278.34 298.22v-285.7" clip-path="url(#6e68871e1a3)" fill="none" stroke="#b0b0b0" stroke-dasharray="3.7,1.6"/><use x="278.337031" y="298.220672" stroke="#000000" stroke-width=".8" xlink:href="#c0044c49279"/><g transform="translate(278.65 325.91) rotate(-70) scale(.14 -.14)"><use xlink:href="#DejaVuSans-3c"/><use transform="translate(61.078)" xlink:href="#DejaVuSans-3b"/></g><path d="m323.71 298.22v-285.7" clip-path="url(#6e68871e1a3)" fill="none" stroke="#b0b0b0" stroke-dasharray="3.7,1.6"/><use x="323.714571" y="298.220672" stroke="#000000" stroke-width=".8" xlink:href="#c0044c49279"/><g transform="translate(324.03 325.91) rotate(-70) scale(.14 -.14)"><defs><path id="DejaVuSans-3d" transform="scale(.015625)" d="m359 4666h3666v-482l-2950-3653h3022v-531h-3809v481l2950 3653h-2879v532z"/></defs><use xlink:href="#DejaVuSans-3c"/><use transform="translate(61.078)" xlink:href="#DejaVuSans-3d"/></g><path d="m369.09 298.22v-285.7" clip-path="url(#6e68871e1a3)" fill="none" stroke="#b0b0b0" stroke-dasharray="3.7,1.6"/><use x="369.092111" y="298.220672" stroke="#000000" stroke-width=".8" xlink:href="#c0044c49279"/><g transform="translate(370.16 321.75) rotate(-70) scale(.14 -.14)"><use xlink:href="#DejaVuSans-3d"/><use transform="translate(68.5)" xlink:href="#DejaVuSans-2c"/></g><path d="m414.47 298.22v-285.7" clip-path="url(#6e68871e1a3)" fill="none" stroke="#b0b0b0" stroke-dasharray="3.7,1.6"/><use x="414.469652" y="298.220672" stroke="#000000" stroke-width=".8" xlink:href="#c0044c49279"/><g transform="translate(414.61 326.88) rotate(-70) scale(.14 -.14)"><use xlink:href="#DejaVuSans-3d"/><use transform="translate(68.5)" xlink:href="#DejaVuSans-3b"/></g><path d="m459.85 298.22v-285.7" clip-path="url(#6e68871e1a3)" fill="none" stroke="#b0b0b0" stroke-dasharray="3.7,1.6"/><use x="459.847192" y="298.220672" stroke="#000000" stroke-width=".8" xlink:href="#c0044c49279"/><g transform="translate(459.98 326.88) rotate(-70) scale(.14 -.14)"><use xlink:href="#DejaVuSans-3d"/><use transform="translate(68.5)" xlink:href="#DejaVuSans-3d"/></g><g transform="translate(261.81 342.67) scale(.14 -.14)"><defs><path id="DejaVuSans-33" transform="scale(.015625)" d="m1259 4147v-1753h794q441 0 681 228 241 228 241 650 0 419-241 647-240 228-681 228h-794zm-631 519h1425q785 0 1186-355 402-355 402-1039 0-691-402-1044-401-353-1186-353h-794v-1875h-631v4666z"/><path id="DejaVuSans-44" transform="scale(.015625)" d="m2194 1759q-697 0-966-159t-269-544q0-306 202-486 202-179 548-179 479 0 768 339t289 901v128h-572zm1147 238v-1997h-575v531q-197-318-491-470t-719-152q-537 0-855 302-317 302-317 808 0 590 395 890 396 300 1180 300h807v57q0 397-261 614t-733 217q-300 0-585-72-284-72-546-216v532q315 122 612 182 297 61 578 61 760 0 1135-394 375-393 375-1193z"/><path id="DejaVuSans-58" transform="scale(.015625)" d="m544 1381v2119h575v-2097q0-497 193-746 194-248 582-248 465 0 735 297 271 297 271 810v1984h575v-3500h-575v538q-209-319-486-474-276-155-642-155-603 0-916 375-312 375-312 1097zm1447 2203z"/><path id="DejaVuSans-4f" transform="scale(.015625)" d="m603 4863h575v-4863h-575v4863z"/><path id="DejaVuSans-4c" transform="scale(.015625)" d="m603 3500h575v-3500h-575v3500zm0 1363h575v-729h-575v729z"/></defs><use xlink:href="#DejaVuSans-33"/><use transform="translate(55.812)" xlink:href="#DejaVuSans-44"/><use transform="translate(117.09)" xlink:href="#DejaVuSans-58"/><use transform="translate(180.47)" xlink:href="#DejaVuSans-4f"/><use transform="translate(208.25)" xlink:href="#DejaVuSans-4c"/></g><path d="m66.197 298.22h424.28" clip-path="url(#6e68871e1a3)" fill="none" stroke="#b0b0b0" stroke-dasharray="3.7,1.6"/><defs><path id="e380eaaa9d5" d="m0 0h-3.5" stroke="#000000" stroke-width=".8"/></defs><use x="66.197031" y="298.220672" stroke="#000000" stroke-width=".8" xlink:href="#e380eaaa9d5"/><g transform="translate(25.201 303.54) scale(.14 -.14)"><defs><path id="DejaVuSans-c9c" transform="scale(.015625)" d="m678 2272h4006v-531h-4006v531z"/><path id="DejaVuSans-14" transform="scale(.015625)" d="m794 531h1031v3560l-1122-225v575l1116 225h631v-4135h1031v-531h-2687v531z"/><path id="DejaVuSans-11" transform="scale(.015625)" d="m684 794h660v-794h-660v794z"/><path id="DejaVuSans-13" transform="scale(.015625)" d="m2034 4250q-487 0-733-480-245-479-245-1442 0-959 245-1439 246-480 733-480 491 0 736 480 246 480 246 1439 0 963-246 1442-245 480-736 480zm0 500q785 0 1199-621 414-620 414-1801 0-1178-414-1799-414-620-1199-620-784 0-1198 620-414 621-414 1799 0 1181 414 1801 414 621 1198 621z"/></defs><use xlink:href="#DejaVuSans-c9c"/><use transform="translate(83.797)" xlink:href="#DejaVuSans-14"/><use transform="translate(147.42)" xlink:href="#DejaVuSans-11"/><use transform="translate(179.2)" xlink:href="#DejaVuSans-13"/></g><path d="m66.197 226.8h424.28" clip-path="url(#6e68871e1a3)" fill="none" stroke="#b0b0b0" stroke-dasharray="3.7,1.6"/><use x="66.197031" y="226.795094" stroke="#000000" stroke-width=".8" xlink:href="#e380eaaa9d5"/><g transform="translate(25.201 232.11) scale(.14 -.14)"><defs><path id="DejaVuSans-18" transform="scale(.015625)" d="m691 4666h2478v-532h-1900v-1143q137 47 274 70 138 23 276 23 781 0 1237-428 457-428 457-1159 0-753-469-1171-469-417-1322-417-294 0-599 50-304 50-629 150v635q281-153 581-228t634-75q541 0 856 284 316 284 316 772 0 487-316 771-315 285-856 285-253 0-505-56-251-56-513-175v2344z"/></defs><use xlink:href="#DejaVuSans-c9c"/><use transform="translate(83.797)" xlink:href="#DejaVuSans-13"/><use transform="translate(147.42)" xlink:href="#DejaVuSans-11"/><use transform="translate(179.2)" xlink:href="#DejaVuSans-18"/></g><path d="m66.197 155.37h424.28" clip-path="url(#6e68871e1a3)" fill="none" stroke="#b0b0b0" stroke-dasharray="3.7,1.6"/><use x="66.197031" y="155.369516" stroke="#000000" stroke-width=".8" xlink:href="#e380eaaa9d5"/><g transform="translate(36.933 160.69) scale(.14 -.14)"><use xlink:href="#DejaVuSans-13"/><use transform="translate(63.625)" xlink:href="#DejaVuSans-11"/><use transform="translate(95.406)" xlink:href="#DejaVuSans-13"/></g><path d="m66.197 83.944h424.28" clip-path="url(#6e68871e1a3)" fill="none" stroke="#b0b0b0" stroke-dasharray="3.7,1.6"/><use x="66.197031" y="83.943938" stroke="#000000" stroke-width=".8" xlink:href="#e380eaaa9d5"/><g transform="translate(36.933 89.262) scale(.14 -.14)"><use xlink:href="#DejaVuSans-13"/><use transform="translate(63.625)" xlink:href="#DejaVuSans-11"/><use transform="translate(95.406)" xlink:href="#DejaVuSans-18"/></g><path d="m66.197 12.518h424.28" clip-path="url(#6e68871e1a3)" fill="none" stroke="#b0b0b0" stroke-dasharray="3.7,1.6"/><use x="66.197031" y="12.518359" stroke="#000000" stroke-width=".8" xlink:href="#e380eaaa9d5"/><g transform="translate(36.933 17.837) scale(.14 -.14)"><use xlink:href="#DejaVuSans-14"/><use transform="translate(63.625)" xlink:href="#DejaVuSans-11"/><use transform="translate(95.406)" xlink:href="#DejaVuSans-13"/></g><g transform="translate(17.838 196.54) rotate(-90) scale(.14 -.14)"><defs><path id="DejaVuSans-26" transform="scale(.015625)" d="m4122 4306v-665q-319 297-680 443-361 147-767 147-800 0-1225-489t-425-1414q0-922 425-1411t1225-489q406 0 767 147t680 444v-660q-331-225-702-338-370-112-782-112-1060 0-1670 648-609 649-609 1771 0 1125 609 1773 610 649 1670 649 418 0 788-111 371-111 696-333z"/><path id="DejaVuSans-52" transform="scale(.015625)" d="m1959 3097q-462 0-731-361t-269-989 267-989q268-361 733-361 460 0 728 362 269 363 269 988 0 622-269 986-268 364-728 364zm0 487q750 0 1178-488 429-487 429-1349 0-859-429-1349-428-489-1178-489-753 0-1180 489-426 490-426 1349 0 862 426 1349 427 488 1180 488z"/><path id="DejaVuSans-48" transform="scale(.015625)" d="m3597 1894v-281h-2644q38-594 358-905t892-311q331 0 642 81t618 244v-544q-310-131-635-200t-659-69q-838 0-1327 487-489 488-489 1320 0 859 464 1363 464 505 1252 505 706 0 1117-455 411-454 411-1235zm-575 169q-6 471-264 752-258 282-683 282-481 0-770-272t-333-766l2050 4z"/><path id="DejaVuSans-13b1" transform="scale(.015625)" d="m2375 4863v-479h-550q-309 0-431-125-119-125-119-450v-309h1578v244q0 584 272 850 88 87 209 147 244 122 654 122h543v-479h-550q-309 0-430-125-120-125-120-450v-309h2157v-3500h-579v3053h-1578v-3053h-578v3053h-1578v-3053h-578v3053h-550v447h550v244q0 584 272 851 272 268 862 268h544zm2634-7h579v-728h-579v728z"/><path id="DejaVuSans-46" transform="scale(.015625)" d="m3122 3366v-538q-244 135-489 202t-495 67q-560 0-870-355-309-354-309-995t309-996q310-354 870-354 250 0 495 67t489 202v-532q-241-112-499-168-257-57-548-57-791 0-1257 497-465 497-465 1341 0 856 470 1346 471 491 1290 491 265 0 518-55 253-54 491-163z"/><path id="DejaVuSans-51" transform="scale(.015625)" d="m3513 2113v-2113h-575v2094q0 497-194 743-194 247-581 247-466 0-735-297-269-296-269-809v-1978h-578v3500h578v-544q207 316 486 472 280 156 646 156 603 0 912-373 310-373 310-1098z"/><path id="DejaVuSans-57" transform="scale(.015625)" d="m1172 4494v-994h1184v-447h-1184v-1900q0-428 117-550t477-122h590v-481h-590q-666 0-919 248-253 249-253 905v1900h-422v447h422v994h578z"/><path id="DejaVuSans-56" transform="scale(.015625)" d="m2834 3397v-544q-243 125-506 187-262 63-544 63-428 0-642-131t-214-394q0-200 153-314t616-217l197-44q612-131 870-370t258-667q0-488-386-773-386-284-1061-284-281 0-586 55t-642 164v594q319-166 628-249 309-82 613-82 406 0 624 139 219 139 219 392 0 234-158 359-157 125-692 241l-200 47q-534 112-772 345-237 233-237 639 0 494 350 762 350 269 994 269 318 0 599-47 282-46 519-140z"/></defs><use xlink:href="#DejaVuSans-26"/><use transform="translate(69.828)" xlink:href="#DejaVuSans-52"/><use transform="translate(131.02)" xlink:href="#DejaVuSans-48"/><use transform="translate(192.55)" xlink:href="#DejaVuSans-13b1"/><use transform="translate(289.23)" xlink:href="#DejaVuSans-46"/><use transform="translate(344.22)" xlink:href="#DejaVuSans-4c"/><use transform="translate(372)" xlink:href="#DejaVuSans-48"/><use transform="translate(433.53)" xlink:href="#DejaVuSans-51"/><use transform="translate(496.91)" xlink:href="#DejaVuSans-57"/><use transform="translate(536.11)" xlink:href="#DejaVuSans-56"/></g><path d="m85.482 155.37h22.689v-142.85h-22.689z" clip-path="url(#6e68871e1a3)" fill="#648fff"/><path d="m130.86 155.37h22.689v-101.01h-22.689z" clip-path="url(#6e68871e1a3)" fill="#648fff"/><path d="m176.24 155.37h22.689v101.01h-22.689z" clip-path="url(#6e68871e1a3)" fill="#648fff"/><path d="m221.62 155.37h22.689v71.426h-22.689z" clip-path="url(#6e68871e1a3)" fill="#648fff"/><path d="m266.99 155.37h22.689v101.01h-22.689z" clip-path="url(#6e68871e1a3)" fill="#648fff"/><path d="m312.37 155.37h22.689v-71.426h-22.689z" clip-path="url(#6e68871e1a3)" fill="#648fff"/><path d="m357.75 155.37h22.689v-71.426h-22.689z" clip-path="url(#6e68871e1a3)" fill="#648fff"/><path d="m403.13 155.37h22.689v-101.01h-22.689z" clip-path="url(#6e68871e1a3)" fill="#648fff"/><path d="m448.5 155.37h22.689v-71.426h-22.689z" clip-path="url(#6e68871e1a3)" fill="#648fff"/><path d="m66.197 155.37h424.28" clip-path="url(#6e68871e1a3)" fill="none" stroke="#000000" stroke-linecap="square"/><path d="m66.197 298.22v-285.7" fill="none" stroke="#000000" stroke-linecap="square" stroke-width=".8"/><path d="m490.48 298.22v-285.7" fill="none" stroke="#000000" stroke-linecap="square" stroke-width=".8"/><path d="m66.197 298.22h424.28" fill="none" stroke="#000000" stroke-linecap="square" stroke-width=".8"/><path d="m66.197 12.518h424.28" fill="none" stroke="#000000" stroke-linecap="square" stroke-width=".8"/><defs><clipPath id="6e68871e1a3"><rect x="66.197" y="12.518" width="424.28" height="285.7"/></clipPath></defs></svg>