<?xml version='1.0' encoding='utf-8'?>
<svg xmlns="http://www.w3.org/2000/svg" xmlns:ns1="http://sodipodi.sourceforge.net/DTD/sodipodi-0.dtd" xmlns:ns2="http://www.inkscape.org/namespaces/inkscape" version="1.1" id="svg1" width="100%" height="auto" viewBox="-20.0 -20.0 377.00781 156.55822999999998" ns1:docname="svg_fix_XXXXXX.svg">
  <rect id="path1" x="-20.0" y="-20.0" width="377.00781" height="156.55822999999998" fill="white" /><ns1:namedview id="namedview1" pagecolor="#ffffff" bordercolor="#000000" borderopacity="0.25" ns2:showpageshadow="2" ns2:pageopacity="0.0" ns2:pagecheckerboard="0" ns2:deskcolor="#d1d1d1" />
  <defs id="defs1" />
  <g id="g1" transform="translate(-130.67187,-30.797843)">
    <path id="path2" d="M -60.92459,21.2601 H 68.0113" style="fill:none;stroke:#121619;stroke-width:0.3985;stroke-linecap:butt;stroke-linejoin:miter;stroke-miterlimit:10;stroke-dasharray:none;stroke-opacity:1" transform="matrix(2.2666667,0,0,-2.2666667,290.94947,113.17173)" />
    <path id="path3" d="M -39.66449,0 H 42.49934" style="fill:none;stroke:#121619;stroke-width:0.3985;stroke-linecap:butt;stroke-linejoin:miter;stroke-miterlimit:10;stroke-dasharray:none;stroke-opacity:1" transform="matrix(2.2666667,0,0,-2.2666667,290.94947,113.17173)" />
    <path id="path4" d="M 48.21075,0.85039 H 68.0113" style="fill:none;stroke:#121619;stroke-width:0.3985;stroke-linecap:butt;stroke-linejoin:miter;stroke-miterlimit:10;stroke-dasharray:none;stroke-opacity:1" transform="matrix(2.2666667,0,0,-2.2666667,290.94947,113.17173)" />
    <path id="path5" d="M 48.21075,-0.85039 H 68.0113" style="fill:none;stroke:#121619;stroke-width:0.3985;stroke-linecap:butt;stroke-linejoin:miter;stroke-miterlimit:10;stroke-dasharray:none;stroke-opacity:1" transform="matrix(2.2666667,0,0,-2.2666667,290.94947,113.17173)" />
    <path id="path6" d="M -19.84276,-14.88208 H 19.84276 V 36.14217 H -19.84276 Z" style="fill:#78a9ff;fill-opacity:1;fill-rule:nonzero;stroke:#78a9ff;stroke-width:0.3985;stroke-linecap:butt;stroke-linejoin:miter;stroke-miterlimit:10;stroke-dasharray:none;stroke-opacity:1" transform="matrix(2.2666667,0,0,-2.2666667,290.94947,113.17173)" />
    <path id="path7" d="m 5.315545,-4.5768529 c 0.096507,-0.3860295 0.2826287,-0.5790442 0.8478861,-0.5997243 0.075827,0 0.1378676,-0.048254 0.1378676,-0.1516544 0,-0.048254 -0.034467,-0.1171875 -0.1171875,-0.1171875 -0.04136,0 -0.2136948,0.027573 -0.7858456,0.027573 -0.6410845,0 -0.7444853,-0.027573 -0.8134191,-0.027573 -0.1309743,0 -0.1516544,0.089614 -0.1516544,0.1516544 0,0.1034007 0.1034007,0.1171875 0.1723346,0.1171875 0.4894301,0.013787 0.4894301,0.2274816 0.4894301,0.3377757 0,0.048254 -0.00689,0.089614 -0.02068,0.1378677 -0.013787,0.055147 -0.6755515,2.722886 -0.7100184,2.8262867 -0.2826287,1.15119489 -1.2890625,1.77849269 -2.0749081,1.77849269 -0.5514706,0 -1.0477941,-0.32398897 -1.0477941,-1.06158089 0,-0.1309743 0.027574,-0.3446691 0.055147,-0.4756434 l 0.7996324,-3.1847426 c 0.068934,-0.2895221 0.089614,-0.3584559 0.6686581,-0.3584559 0.1585478,0 0.2550551,0 0.2550551,-0.1516544 0,-0.013787 -0.00689,-0.1171875 -0.1378676,-0.1171875 -0.1447611,0 -0.3377758,0.02068 -0.4894302,0.027573 H 1.889534 c -0.7651654,0 -0.9719669,-0.027573 -1.02711396,-0.027573 -0.0344669,0 -0.1585478,0 -0.1585478,0.1516544 0,0.1171875 0.10340074,0.1171875 0.22748162,0.1171875 0.26194854,0 0.49632354,0 0.49632354,0.1240809 0,0.048254 -0.068934,0.3377757 -0.1171875,0.4963235 l -0.179228,0.6962316 -0.41360289,1.6957721 c -0.11029412,0.4342831 -0.14476103,0.5514706 -0.14476103,0.7720588 0,0.93060662 0.73759192,1.55790442 1.68198532,1.55790442 1.082261,0 2.1024816,-0.91681986 2.3575367,-1.94393382 z m 0,0" style="fill:#ffffff;fill-opacity:1;fill-rule:nonzero;stroke:none" aria-label="U" transform="matrix(2.2666667,0,0,2.2666667,283.4944,95.2492)" />
    <path id="path8" d="m 2.7573778,-2.5509871 1.7647058,-2.288603 H 3.7569182 L 2.4127086,-3.054204 1.0409256,-4.8395901 H 0.20682629 L 2.0749329,-2.5509871 0.10342555,-4.3566176e-4 H 0.86169761 L 2.4127086,-2.1029173 3.9981866,-4.3566176e-4 h 0.8272059 z m 0,0" style="fill:#121619;fill-opacity:1;fill-rule:nonzero;stroke:none" aria-label="X" transform="matrix(2.2666667,0,0,2.2666667,221.0976,58.5088)" />
    <path id="path9" d="M 4.9087757,-4.8386756 H 4.2125441 l -1.6681985,2.34375 -1.68198531,-2.34375 H 0.02136765 l 2.10937495,2.902114 V 4.7886029e-4 H 2.8131875 V -1.9365616 Z m 0,0" style="fill:#121619;fill-opacity:1;fill-rule:nonzero;stroke:none" aria-label="Y" transform="matrix(2.2666667,0,0,2.2666667,220.88907,106.69813)" />
    <path id="path10" d="m 2.7580009,-2.5509871 1.7647059,-2.288603 H 3.7575414 L 2.4133318,-3.054204 1.0415487,-4.8395901 H 0.20744945 L 2.0755561,-2.5509871 0.10404871,-4.3566176e-4 H 0.86232077 L 2.4133318,-2.1029173 3.9988097,-4.3566176e-4 h 0.8272059 z m 0,0" style="fill:#121619;fill-opacity:1;fill-rule:nonzero;stroke:none" aria-label="X" transform="matrix(2.2666667,0,0,2.2666667,349.604,58.5088)" />
    <path id="path11" d="M 4.9086756,-4.8386756 H 4.2124439 l -1.6681985,2.34375 -1.68198529,-2.34375 H 0.02126746 l 2.10937504,2.902114 V 4.7886029e-4 H 2.8130873 V -1.9365616 Z m 0,0" style="fill:#121619;fill-opacity:1;fill-rule:nonzero;stroke:none" aria-label="Y" transform="matrix(2.2666667,0,0,2.2666667,349.3932,106.69813)" />
    <path id="path12" d="m 0.29676471,1.2829871 c -0.0344669,0.1309743 -0.0344669,0.1654412 -0.0344669,0.1861214 0,0.199908 0.1585478,0.2481617 0.25505515,0.2481617 0.0413603,0 0.22748162,-0.013787 0.33088235,-0.2205882 C 0.88270221,1.413961 1.04125,0.67636949 1.3307721,-0.41278493 c 0.096507,0.16544118 0.3515625,0.49632353 0.8340992,0.49632353 0.9719669,0 2.054228,-1.06847426 2.054228,-2.2679228 0,-0.8961397 -0.5997243,-1.3304228 -1.2132353,-1.3304228 -0.7375919,0 -1.6750919,0.6617647 -1.964614,1.8129596 z M 2.1579779,-0.14394301 c -0.5445772,0 -0.7238051,-0.57215074 -0.7238051,-0.68244486 0,-0.0344669 0.2068015,-0.84788603 0.2205882,-0.90303313 0.3584559,-1.40625 1.116728,-1.5579044 1.3442096,-1.5579044 0.379136,0 0.5928309,0.3377758 0.5928309,0.7789522 0,0.2826287 -0.1585478,1.0822611 -0.3929228,1.57169121 -0.234375,0.44806986 -0.647978,0.79273898 -1.0409008,0.79273898 z m 0,0" style="fill:#121619;fill-opacity:1;fill-rule:nonzero;stroke:none" aria-label="ρ" transform="matrix(2.2666667,0,0,2.2666667,130.07733,67.115333)" />
    <g id="g12" aria-label="∣0⟩" transform="matrix(2.2666667,0,0,2.2666667,169.08213,118.14027)">
      <path id="path13" d="m 1.1925101,-6.0935919 v 7.8102022 h 0.5101103 v -7.8102022 z m 0,0" style="fill:#121619;fill-opacity:1;fill-rule:nonzero;stroke:none" />
      <path id="path14" d="m 6.7951066,-2.5435 c 0,-0.847886 -0.082721,-1.3717831 -0.3515625,-1.8818934 -0.3446691,-0.6962316 -0.992647,-0.8754595 -1.4338235,-0.8754595 -0.9995405,0 -1.3648897,0.7513786 -1.4820772,0.9719669 -0.2826287,0.5859375 -0.3033088,1.3717831 -0.3033088,1.785386 0,0.5307904 0.027573,1.3304228 0.4067095,1.97150735 0.3722427,0.5859375 0.9581802,0.73759191 1.3786765,0.73759191 0.3860294,0 1.0684743,-0.1171875 1.4682904,-0.90992647 C 6.7744265,-1.3164779 6.7951066,-2.0264963 6.7951066,-2.5435 Z m -1.785386,2.48851103 c -0.2688419,0 -0.8203125,-0.13097427 -0.9857537,-0.96507353 -0.089614,-0.4549632 -0.089614,-1.2063419 -0.089614,-1.6199449 0,-0.5445772 0,-1.1029411 0.089614,-1.5441176 0.1654412,-0.8134191 0.7858456,-0.8892463 0.9857537,-0.8892463 0.2757353,0 0.8203125,0.1309742 0.9857537,0.8547794 0.089614,0.4411765 0.089614,1.0409007 0.089614,1.5785845 0,0.4756434 0,1.1925552 -0.089614,1.6337317 -0.1723346,0.84099261 -0.7238052,0.95128673 -0.9857537,0.95128673 z m 0,0" style="fill:#121619;fill-opacity:1;fill-rule:nonzero;stroke:none" />
      <path id="path15" d="M 8.3495643,1.7993309 9.7833879,-2.1919375 8.3495643,-6.1832059 7.8670276,-6.0108713 9.3008511,-2.1919375 7.8670276,1.6269963 Z m 0,0" style="fill:#121619;fill-opacity:1;fill-rule:nonzero;stroke:none" />
    </g>
    <path id="path16" d="m 3.1225937,-3.0325735 c -0.068934,-0.1378677 -0.3033088,-0.4825368 -0.7858455,-0.4825368 -0.9512868,0 -1.99218754,1.1098346 -1.99218754,2.2886029 0,0.82720593 0.53079044,1.30974269 1.14430144,1.30974269 0.5101103,0 0.9512868,-0.40670955 1.0960478,-0.57215073 0.1378677,0.55147059 0.6824449,0.57215073 0.7789522,0.57215073 0.3653493,0 0.5514706,-0.30330882 0.6135111,-0.44117647 0.1585478,-0.28952206 0.2688419,-0.75137872 0.2688419,-0.77895222 0,-0.048254 -0.027574,-0.1034007 -0.1240809,-0.1034007 -0.096507,0 -0.1171875,0.048254 -0.1585478,0.24126836 -0.1171875,0.44117648 -0.2688419,0.85477942 -0.5790441,0.85477942 -0.179228,0 -0.2550552,-0.15165442 -0.2550552,-0.37224265 0,-0.13786765 0.075827,-0.40670956 0.1240809,-0.60661763 0.048254,-0.1999081 0.1654412,-0.6755515 0.1999081,-0.8203125 l 0.1585478,-0.6066177 c 0.034467,-0.1930147 0.1240809,-0.523897 0.1240809,-0.5652573 0,-0.1861213 -0.1516544,-0.2481618 -0.2550552,-0.2481618 -0.1171875,0 -0.3170956,0.082721 -0.3584559,0.3308824 z m -0.5376838,2.17141541 c -0.3998162,0.55147059 -0.8134191,0.71691177 -1.0684742,0.71691177 -0.3722427,0 -0.55147063,-0.33088236 -0.55147063,-0.7444853 0,-0.37913598 0.21369483,-1.22702208 0.39292283,-1.57858458 0.2274816,-0.4894301 0.6204044,-0.8203125 0.9857536,-0.8203125 0.5170037,0 0.6686581,0.5790441 0.6686581,0.6755515 0,0.027573 -0.1999081,0.8134191 -0.2481617,1.0202206 -0.1034008,0.3722426 -0.1034008,0.3860294 -0.179228,0.73069851 z m 0,0" style="fill:#121619;fill-opacity:1;fill-rule:nonzero;stroke:none" aria-label="a" transform="matrix(2.2666667,0,0,2.2666667,458.05493,117.06133)" />
    <path id="path17" d="M 36.85101,-8.50403 H 53.85907 V 8.50403 H 36.85101 Z" style="fill:#000000;fill-opacity:1;fill-rule:nonzero;stroke:#000000;stroke-width:0.3985;stroke-linecap:butt;stroke-linejoin:miter;stroke-miterlimit:10;stroke-dasharray:none;stroke-opacity:1" transform="matrix(2.2666667,0,0,-2.2666667,290.94947,113.17173)" />
    <path id="path18" d="m 51.02432,-2.5511 c 0,3.1311 -2.53822,5.66934 -5.66934,5.66934 -3.13113,0 -5.66936,-2.53824 -5.66936,-5.66934" style="fill:none;stroke:#ffffff;stroke-width:0.79701;stroke-linecap:butt;stroke-linejoin:miter;stroke-miterlimit:10;stroke-dasharray:none;stroke-opacity:1" transform="matrix(2.2666667,0,0,-2.2666667,290.94947,113.17173)" />
    <path id="path19" d="m 45.35506,-2.26778 5.66926,4.8189" style="fill:none;stroke:#ffffff;stroke-width:0.79701;stroke-linecap:butt;stroke-linejoin:miter;stroke-miterlimit:10;stroke-dasharray:none;stroke-opacity:1" transform="matrix(2.2666667,0,0,-2.2666667,290.94947,113.17173)" />
    <path id="path20" d="m 46.20544,-2.26778 c 0,0.46967 -0.38074,0.85041 -0.85038,0.85041 -0.46967,0 -0.85041,-0.38074 -0.85041,-0.85041 0,-0.46966 0.38074,-0.8504 0.85041,-0.8504 0.46964,0 0.85038,0.38074 0.85038,0.8504 z" style="fill:#ffffff;fill-opacity:1;fill-rule:nonzero;stroke:none" transform="matrix(2.2666667,0,0,-2.2666667,290.94947,113.17173)" />
  </g>
</svg>