<?xml version='1.0' encoding='utf-8'?>
<svg xmlns="http://www.w3.org/2000/svg" xmlns:ns1="http://sodipodi.sourceforge.net/DTD/sodipodi-0.dtd" xmlns:ns2="http://www.inkscape.org/namespaces/inkscape" version="1.1" id="svg1" width="100%" height="auto" viewBox="-20.0 -20.0 456.59991 146.75781" ns1:docname="svg_fix_XXXXXX.svg">
  <rect id="path1" x="-20.0" y="-20.0" width="456.59991" height="146.75781" fill="white" /><ns1:namedview id="namedview1" pagecolor="#ffffff" bordercolor="#000000" borderopacity="0.25" ns2:showpageshadow="2" ns2:pageopacity="0.0" ns2:pagecheckerboard="0" ns2:deskcolor="#d1d1d1" />
  <defs id="defs1" />
  <g id="g1" transform="translate(-90.773791,-30.799437)">
    <path id="path2" d="M -25.49109,14.17339 H 25.49109" style="fill:none;stroke:#121619;stroke-width:0.3985;stroke-linecap:butt;stroke-linejoin:miter;stroke-miterlimit:10;stroke-dasharray:none;stroke-opacity:1" transform="matrix(2.3333333,0,0,-2.3333333,150.253,84.178333)" />
    <path id="path3" d="M -25.49109,-13.46474 H 25.49109" style="fill:none;stroke:#121619;stroke-width:0.3985;stroke-linecap:butt;stroke-linejoin:miter;stroke-miterlimit:10;stroke-dasharray:none;stroke-opacity:1" transform="matrix(2.3333333,0,0,-2.3333333,150.253,84.178333)" />
    <path id="path4" d="M -25.49109,-14.88205 H 25.49109" style="fill:none;stroke:#121619;stroke-width:0.3985;stroke-linecap:butt;stroke-linejoin:miter;stroke-miterlimit:10;stroke-dasharray:none;stroke-opacity:1" transform="matrix(2.3333333,0,0,-2.3333333,150.253,84.178333)" />
    <path id="path5" d="M -8.50403,5.66936 H 8.50403 V 22.67742 H -8.50403 Z" style="fill:#000000;fill-opacity:1;fill-rule:nonzero;stroke:#000000;stroke-width:0.3985;stroke-linecap:butt;stroke-linejoin:miter;stroke-miterlimit:10;stroke-dasharray:none;stroke-opacity:1" transform="matrix(2.3333333,0,0,-2.3333333,150.253,84.178333)" />
    <path id="path6" d="m 5.66927,11.62228 c 0,3.13112 -2.53823,5.66936 -5.66933,5.66936 -3.13114,0 -5.66936,-2.53824 -5.66936,-5.66936" style="fill:none;stroke:#ffffff;stroke-width:0.79701;stroke-linecap:butt;stroke-linejoin:miter;stroke-miterlimit:10;stroke-dasharray:none;stroke-opacity:1" transform="matrix(2.3333333,0,0,-2.3333333,150.253,84.178333)" />
    <path id="path7" d="M 0,11.90561 5.66927,16.7245" style="fill:none;stroke:#ffffff;stroke-width:0.79701;stroke-linecap:butt;stroke-linejoin:miter;stroke-miterlimit:10;stroke-dasharray:none;stroke-opacity:1" transform="matrix(2.3333333,0,0,-2.3333333,150.253,84.178333)" />
    <path id="path8" d="M 0.85039,11.90561 C 0.85039,12.37527 0.46965,12.756 0,12.756 c -0.46965,0 -0.85039,-0.38073 -0.85039,-0.85039 0,-0.46967 0.38074,-0.85041 0.85039,-0.85041 0.46965,0 0.85039,0.38074 0.85039,0.85041 z" style="fill:#ffffff;fill-opacity:1;fill-rule:nonzero;stroke:none" transform="matrix(2.3333333,0,0,-2.3333333,150.253,84.178333)" />
    <path id="path9" d="m 0,-13.65268 1.70079,4.10625 h -3.40158 z" style="fill:#121619;fill-opacity:1;fill-rule:nonzero;stroke:#121619;stroke-width:0.3985;stroke-linecap:butt;stroke-linejoin:miter;stroke-miterlimit:10;stroke-dasharray:none;stroke-opacity:1" transform="matrix(2.3333333,0,0,-2.3333333,150.253,84.178333)" />
    <path id="path10" d="M 0.70865,5.47011 V -9.97414" style="fill:none;stroke:#121619;stroke-width:0.3985;stroke-linecap:butt;stroke-linejoin:miter;stroke-miterlimit:10;stroke-dasharray:none;stroke-opacity:1" transform="matrix(2.3333333,0,0,-2.3333333,150.253,84.178333)" />
    <path id="path11" d="M -0.70865,5.47011 V -9.97414" style="fill:none;stroke:#121619;stroke-width:0.3985;stroke-linecap:butt;stroke-linejoin:miter;stroke-miterlimit:10;stroke-dasharray:none;stroke-opacity:1" transform="matrix(2.3333333,0,0,-2.3333333,150.253,84.178333)" />
    <g id="g11" aria-label="∣0⟩" transform="matrix(2.3333333,0,0,2.3333333,284.41033,122.36333)">
      <path id="path12" d="m 1.1985848,-6.0937723 v 7.8080357 h 0.5089286 v -7.8080357 z m 0,0" style="fill:#121619;fill-opacity:1;fill-rule:nonzero;stroke:none" />
      <path id="path13" d="m 6.7984732,-2.5446652 c 0,-0.8504464 -0.087054,-1.3660714 -0.3482143,-1.875 -0.3549107,-0.703125 -0.9977678,-0.8772321 -1.4397321,-0.8772321 -1.0044643,0 -1.3660714,0.75 -1.4799107,0.9709821 -0.2879465,0.5825893 -0.3013393,1.3727679 -0.3013393,1.78125 0,0.5290179 0.020089,1.3325893 0.4017857,1.96875002 0.3683036,0.58928572 0.9575893,0.74330357 1.3794643,0.74330357 0.3816964,0 1.0714286,-0.12053571 1.4665178,-0.91071428 C 6.7716875,-1.3125223 6.7984732,-2.0223437 6.7984732,-2.5446652 Z m -1.7879464,2.49107145 c -0.2678572,0 -0.8169643,-0.12723214 -0.984375,-0.96428575 -0.087054,-0.4553571 -0.087054,-1.2053571 -0.087054,-1.6205357 0,-0.5491071 0,-1.1049107 0.087054,-1.546875 0.1674107,-0.8102678 0.7901786,-0.890625 0.984375,-0.890625 0.2745536,0 0.8236607,0.1339286 0.984375,0.8571429 0.09375,0.4419643 0.09375,1.0379464 0.09375,1.5803571 0,0.46875 0,1.1852679 -0.09375,1.6339286 -0.1674107,0.83705356 -0.7165179,0.95089285 -0.984375,0.95089285 z m 0,0" style="fill:#121619;fill-opacity:1;fill-rule:nonzero;stroke:none" />
      <path id="path14" d="M 8.3470223,1.801317 9.780058,-2.1897545 8.3470223,-6.1808259 7.8648795,-6.0067187 9.3046116,-2.1897545 7.8648795,1.6272098 Z m 0,0" style="fill:#121619;fill-opacity:1;fill-rule:nonzero;stroke:none" />
    </g>
    <path id="path15" d="m 119.0566,-22.67743 h 17.00806 V -5.66937 H 119.0566 Z" style="fill:#000000;fill-opacity:1;fill-rule:nonzero;stroke:#000000;stroke-width:0.3985;stroke-linecap:butt;stroke-linejoin:miter;stroke-miterlimit:10;stroke-dasharray:none;stroke-opacity:1" transform="matrix(2.3333333,0,0,-2.3333333,150.253,84.178333)" />
    <path id="path16" d="m 133.2299,-16.72449 c 0,3.13112 -2.53822,5.66934 -5.66935,5.66934 -3.13112,0 -5.66935,-2.53822 -5.66935,-5.66934" style="fill:none;stroke:#ffffff;stroke-width:0.79701;stroke-linecap:butt;stroke-linejoin:miter;stroke-miterlimit:10;stroke-dasharray:none;stroke-opacity:1" transform="matrix(2.3333333,0,0,-2.3333333,150.253,84.178333)" />
    <path id="path17" d="m 127.56062,-16.44118 5.66928,4.81891" style="fill:none;stroke:#ffffff;stroke-width:0.79701;stroke-linecap:butt;stroke-linejoin:miter;stroke-miterlimit:10;stroke-dasharray:none;stroke-opacity:1" transform="matrix(2.3333333,0,0,-2.3333333,150.253,84.178333)" />
    <path id="path18" d="m 128.41103,-16.44118 c 0,0.46967 -0.38074,0.85041 -0.85041,0.85041 -0.46966,0 -0.85038,-0.38074 -0.85038,-0.85041 0,-0.46966 0.38072,-0.8504 0.85038,-0.8504 0.46967,0 0.85041,0.38074 0.85041,0.8504 z" style="fill:#ffffff;fill-opacity:1;fill-rule:nonzero;stroke:none" transform="matrix(2.3333333,0,0,-2.3333333,150.253,84.178333)" />
    <path id="path19" d="m 73.72272,14.17339 h 79.32901" style="fill:none;stroke:#121619;stroke-width:0.3985;stroke-linecap:butt;stroke-linejoin:miter;stroke-miterlimit:10;stroke-dasharray:none;stroke-opacity:1" transform="matrix(2.3333333,0,0,-2.3333333,150.253,84.178333)" />
    <path id="path20" d="m 73.72272,-14.17339 h 45.13463" style="fill:none;stroke:#121619;stroke-width:0.3985;stroke-linecap:butt;stroke-linejoin:miter;stroke-miterlimit:10;stroke-dasharray:none;stroke-opacity:1" transform="matrix(2.3333333,0,0,-2.3333333,150.253,84.178333)" />
    <path id="path21" d="m 136.26392,-13.46474 h 16.78781" style="fill:none;stroke:#121619;stroke-width:0.3985;stroke-linecap:butt;stroke-linejoin:miter;stroke-miterlimit:10;stroke-dasharray:none;stroke-opacity:1" transform="matrix(2.3333333,0,0,-2.3333333,150.253,84.178333)" />
    <path id="path22" d="m 136.26392,-14.88205 h 16.78781" style="fill:none;stroke:#121619;stroke-width:0.3985;stroke-linecap:butt;stroke-linejoin:miter;stroke-miterlimit:10;stroke-dasharray:none;stroke-opacity:1" transform="matrix(2.3333333,0,0,-2.3333333,150.253,84.178333)" />
    <path id="path23" d="m 101.70451,14.17339 c 0,1.37558 -1.11511,2.49069 -2.49069,2.49069 -1.37558,0 -2.49069,-1.11511 -2.49069,-2.49069 0,-1.37559 1.11511,-2.49069 2.49069,-2.49069 1.37558,0 2.49069,1.1151 2.49069,2.49069 z" style="fill:#78a9ff;fill-opacity:1;fill-rule:nonzero;stroke:none" transform="matrix(2.3333333,0,0,-2.3333333,150.253,84.178333)" />
    <path id="path24" d="m 105.19148,-14.17339 c 0,3.30141 -2.67625,5.97767 -5.97766,5.97767 -3.30142,0 -5.97766,-2.67626 -5.97766,-5.97767 0,-3.30142 2.67624,-5.97766 5.97766,-5.97766 3.30141,0 5.97766,2.67624 5.97766,5.97766 z" style="fill:#78a9ff;fill-opacity:1;fill-rule:nonzero;stroke:#78a9ff;stroke-width:0.3985;stroke-linecap:butt;stroke-linejoin:miter;stroke-miterlimit:10;stroke-dasharray:none;stroke-opacity:1" transform="matrix(2.3333333,0,0,-2.3333333,150.253,84.178333)" />
    <path id="path25" d="m 4.7069688,-7.8147723 v 3.4084821 H 1.2917902 v 0.9174107 h 3.4151786 v 3.41517861 H 5.6243795 V -3.4888795 H 9.0328616 V -4.4062902 H 5.6243795 v -3.4084821 z m 0,0" style="fill:#ffffff;fill-opacity:1;fill-rule:nonzero;stroke:none" aria-label="+" transform="matrix(2.3333333,0,0,2.3333333,369.70067,126.379)" />
    <path id="path26" d="M 99.21382,14.17339 V -7.99648" style="fill:none;stroke:#78a9ff;stroke-width:0.79701;stroke-linecap:butt;stroke-linejoin:miter;stroke-miterlimit:10;stroke-dasharray:none;stroke-opacity:1" transform="matrix(2.3333333,0,0,-2.3333333,150.253,84.178333)" />
  </g>
</svg>