<?xml version='1.0' encoding='utf-8'?>
<svg xmlns="http://www.w3.org/2000/svg" xmlns:ns1="http://sodipodi.sourceforge.net/DTD/sodipodi-0.dtd" xmlns:ns2="http://www.inkscape.org/namespaces/inkscape" version="1.1" id="svg1" width="100%" height="auto" viewBox="-20.0 -20.0 531.55859 258.38365" ns1:docname="svg_fix_XXXXXX.svg">
  <rect id="path1" x="-20.0" y="-20.0" width="531.55859" height="258.38365" fill="white" /><ns1:namedview id="namedview1" pagecolor="#ffffff" bordercolor="#000000" borderopacity="0.25" ns2:showpageshadow="2" ns2:pageopacity="0.0" ns2:pagecheckerboard="0" ns2:deskcolor="#d1d1d1" />
  <defs id="defs1" />
  <g id="g1" transform="translate(-54.574219,-30.798244)">
    <path id="path2" d="M -99.21382,-63.78033 H -28.3468 V 63.78034 h -70.86702 z" style="fill:#78a9ff;fill-opacity:1;fill-rule:nonzero;stroke:#78a9ff;stroke-width:0.3985;stroke-linecap:butt;stroke-linejoin:miter;stroke-miterlimit:10;stroke-dasharray:none;stroke-opacity:1" transform="matrix(1.7066667,0,0,-1.7066667,293.65893,139.99008)" />
    <g id="g2" aria-label="Q&#10;f" transform="matrix(1.7066667,0,0,1.7066667,173.67856,143.11157)">
      <path id="path3" d="m 4.3677261,-0.06308618 c 1.5380859,-0.5859375 3.0029297,-2.35290532 3.0029297,-4.27551272 0,-1.6113281 -1.0528565,-2.6824951 -2.5360108,-2.6824951 -2.1514892,0 -4.34875486,2.2613525 -4.34875486,4.5776367 0,1.65710452 1.11694336,2.66418459 2.55432126,2.66418459 0.2471924,0 0.5859375,-0.0366211 0.970459,-0.14648437 -0.036621,0.61340332 -0.036621,0.63171387 -0.036621,0.7598877 0,0.32043458 0,1.09863278 0.8239746,1.09863278 1.1901856,0 1.6662598,-1.82189939 1.6662598,-1.93176267 0,-0.07324219 -0.073242,-0.10070801 -0.1098633,-0.10070801 -0.082398,0 -0.100708,0.05493165 -0.1190185,0.10986329 -0.2380372,0.70495605 -0.8148194,0.96130371 -1.1627198,0.96130371 -0.4577636,0 -0.6134033,-0.27465821 -0.7049561,-1.0345459 z M 2.4817397,-0.13632837 C 1.7035415,-0.44760767 1.3647964,-1.2258059 1.3647964,-2.1230227 c 0,-0.6866455 0.2563476,-2.0965576 1.0162353,-3.1768799 0.7232666,-1.0162353 1.6662598,-1.473999 2.3895264,-1.473999 0.9979248,0 1.7211914,0.7781982 1.7211914,2.1148682 0,0.9979248 -0.50354,3.3233642 -2.1789551,4.2572021 -0.045776,-0.34790039 -0.1464843,-1.071167 -0.8789062,-1.071167 -0.5218506,0 -1.0162354,0.49438477 -1.0162354,1.01623536 0,0.20141602 0.064087,0.3112793 0.064087,0.32043457 z m 0.6134034,0.10986328 c -0.1373291,0 -0.4577637,0 -0.4577637,-0.43029785 0,-0.40283203 0.3845215,-0.79650876 0.7965088,-0.79650876 0.4211426,0 0.6134033,0.2380371 0.6134033,0.84228513 0,0.15563965 -0.00916,0.16479492 -0.1098633,0.20141601 -0.2655029,0.10986328 -0.5584717,0.18310547 -0.8422851,0.18310547 z m 0,0" style="fill:#ffffff;fill-opacity:1;fill-rule:nonzero;stroke:none" />
      <path id="path4" d="m 10.714619,-0.9625918 h 0.686646 c 0.137329,0 0.228882,0 0.228882,-0.1556396 0,-0.091553 -0.09155,-0.091553 -0.219727,-0.091553 h -0.650024 c 0.164795,-0.8880615 0.219726,-1.2084961 0.274658,-1.4099121 0.03662,-0.1556396 0.192261,-0.302124 0.357056,-0.302124 0.0092,0 0.19226,0 0.329589,0.082397 -0.283813,0.091553 -0.311279,0.3387452 -0.311279,0.3845215 0,0.1556397 0.119019,0.2563477 0.283814,0.2563477 0.183105,0 0.393676,-0.1556397 0.393676,-0.4211426 0,-0.3204346 -0.338745,-0.4943848 -0.6958,-0.4943848 -0.302124,0 -0.650025,0.1739502 -0.83313,0.5218506 -0.146485,0.2563477 -0.201416,0.567627 -0.347901,1.3824463 H 9.6617629 c -0.1373291,0 -0.2288818,0 -0.2288818,0.1464844 0,0.100708 0.091553,0.100708 0.2197266,0.100708 H 10.165303 C 10.156103,-0.916816 9.7166946,1.5917289 9.5518997,2.333306 9.5152787,2.4889457 9.39626,3.0199515 9.0666702,3.0199515 c -0.00916,0 -0.1831055,0 -0.3112793,-0.082397 0.2838134,-0.091553 0.3112793,-0.3387451 0.3112793,-0.3845215 0,-0.1556396 -0.1190186,-0.2563477 -0.2838135,-0.2563477 -0.1922608,0 -0.3936768,0.1556397 -0.3936768,0.4211426 0,0.3204346 0.3204346,0.4943848 0.6774903,0.4943848 0.4394531,0 0.7507324,-0.4577637 0.8331298,-0.6134033 0.247192,-0.466919 0.411987,-1.3183594 0.421143,-1.4099121 z m 0,0" style="fill:#ffffff;fill-opacity:1;fill-rule:nonzero;stroke:none" />
    </g>
    <path id="path5" d="M 28.34679,-63.78033 H 99.21381 V 63.78034 H 28.34679 Z" style="fill:#78a9ff;fill-opacity:1;fill-rule:nonzero;stroke:#78a9ff;stroke-width:0.3985;stroke-linecap:butt;stroke-linejoin:miter;stroke-miterlimit:10;stroke-dasharray:none;stroke-opacity:1" transform="matrix(1.7066667,0,0,-1.7066667,293.65893,139.99008)" />
    <g id="g5" aria-label="Q&#10;f&#10;−1" transform="matrix(1.7066667,0,0,1.7066667,385.00315,143.11157)">
      <path id="path6" d="m 4.3675105,-0.06308618 c 1.5380859,-0.5859375 3.0029297,-2.35290532 3.0029297,-4.27551272 0,-1.6113281 -1.0528565,-2.6824951 -2.5360108,-2.6824951 -2.1514892,0 -4.34875484,2.2613525 -4.34875484,4.5776367 0,1.65710452 1.11694334,2.66418459 2.55432124,2.66418459 0.2471924,0 0.5859375,-0.0366211 0.970459,-0.14648437 -0.036621,0.61340332 -0.036621,0.63171387 -0.036621,0.7598877 0,0.32043458 0,1.09863278 0.8239746,1.09863278 1.1901856,0 1.6662598,-1.82189939 1.6662598,-1.93176267 0,-0.07324219 -0.073242,-0.10070801 -0.1098633,-0.10070801 -0.082397,0 -0.100708,0.05493165 -0.1190185,0.10986329 -0.2380371,0.70495605 -0.8148194,0.96130371 -1.1627197,0.96130371 -0.4577637,0 -0.6134034,-0.27465821 -0.7049562,-1.0345459 z M 2.4815242,-0.13632837 C 1.7033259,-0.44760767 1.3645808,-1.2258059 1.3645808,-2.1230227 c 0,-0.6866455 0.2563477,-2.0965576 1.0162354,-3.1768799 0.7232666,-1.0162353 1.6662597,-1.473999 2.3895263,-1.473999 0.9979248,0 1.7211914,0.7781982 1.7211914,2.1148682 0,0.9979248 -0.50354,3.3233642 -2.178955,4.2572021 -0.045776,-0.34790039 -0.1464844,-1.071167 -0.8789063,-1.071167 -0.5218506,0 -1.0162353,0.49438477 -1.0162353,1.01623536 0,0.20141602 0.064087,0.3112793 0.064087,0.32043457 z m 0.6134033,0.10986328 c -0.1373291,0 -0.4577637,0 -0.4577637,-0.43029785 0,-0.40283203 0.3845215,-0.79650876 0.7965088,-0.79650876 0.4211426,0 0.6134033,0.2380371 0.6134033,0.84228513 0,0.15563965 -0.00916,0.16479492 -0.1098633,0.20141601 -0.2655029,0.10986328 -0.5584716,0.18310547 -0.8422851,0.18310547 z m 0,0" style="fill:#ffffff;fill-opacity:1;fill-rule:nonzero;stroke:none" />
      <path id="path7" d="m 10.714404,-0.9625918 h 0.686645 c 0.137329,0 0.228882,0 0.228882,-0.1556396 0,-0.091553 -0.09155,-0.091553 -0.219726,-0.091553 H 10.76018 c 0.164795,-0.8880615 0.219727,-1.2084961 0.274658,-1.4099121 0.03662,-0.1556396 0.192261,-0.302124 0.357056,-0.302124 0.0092,0 0.192261,0 0.32959,0.082397 -0.283814,0.091553 -0.311279,0.3387452 -0.311279,0.3845215 0,0.1556397 0.119018,0.2563477 0.283813,0.2563477 0.183106,0 0.393677,-0.1556397 0.393677,-0.4211426 0,-0.3204346 -0.338745,-0.4943848 -0.695801,-0.4943848 -0.302124,0 -0.650024,0.1739502 -0.83313,0.5218506 -0.146484,0.2563477 -0.201416,0.567627 -0.3479,1.3824463 H 9.6615474 c -0.1373291,0 -0.2288819,0 -0.2288819,0.1464844 0,0.100708 0.091553,0.100708 0.2197266,0.100708 H 10.165087 C 10.155887,-0.916816 9.716479,1.5917289 9.5516841,2.333306 9.5150631,2.4889457 9.3960444,3.0199515 9.0664546,3.0199515 c -0.00916,0 -0.1831055,0 -0.3112793,-0.082397 0.2838135,-0.091553 0.3112793,-0.3387451 0.3112793,-0.3845215 0,-0.1556396 -0.1190186,-0.2563477 -0.2838135,-0.2563477 -0.1922607,0 -0.3936767,0.1556397 -0.3936767,0.4211426 0,0.3204346 0.3204345,0.4943848 0.6774902,0.4943848 0.4394531,0 0.7507324,-0.4577637 0.8331299,-0.6134033 C 10.146777,2.1318904 10.311572,1.28045 10.320727,1.1888973 Z m 0,0" style="fill:#ffffff;fill-opacity:1;fill-rule:nonzero;stroke:none" />
      <path id="path8" d="m 15.68114,-2.3152834 h -2.691651 v 0.3204345 h 2.691651 z m 0,0" style="fill:#ffffff;fill-opacity:1;fill-rule:nonzero;stroke:none" />
      <path id="path9" d="m 18.116442,-3.9540774 c 0,-0.1464844 -0.01831,-0.1464844 -0.183105,-0.1464844 -0.357056,0.3204346 -0.906372,0.3204346 -1.00708,0.3204346 h -0.0824 v 0.2105713 h 0.0824 c 0.119018,0 0.439453,-0.00916 0.723266,-0.1373291 v 2.4902344 c 0,0.1556396 0,0.2105713 -0.52185,0.2105713 H 16.88048 v 0.21972652 c 0.274659,-0.0183106 0.714112,-0.0183106 0.997925,-0.0183106 0.292969,0 0.732422,0 1.00708,0.0183106 V -1.0060793 h -0.247192 c -0.521851,0 -0.521851,-0.054932 -0.521851,-0.2105713 z m 0,0" style="fill:#ffffff;fill-opacity:1;fill-rule:nonzero;stroke:none" />
    </g>
    <path id="path10" d="m -110.53152,28.3468 h 11.11845" style="fill:none;stroke:#121619;stroke-width:0.3985;stroke-linecap:butt;stroke-linejoin:miter;stroke-miterlimit:10;stroke-dasharray:none;stroke-opacity:1" transform="matrix(1.7066667,0,0,-1.7066667,293.65893,139.99008)" />
    <path id="path11" d="M -28.14754,28.3468 H 28.14754" style="fill:none;stroke:#121619;stroke-width:0.3985;stroke-linecap:butt;stroke-linejoin:miter;stroke-miterlimit:10;stroke-dasharray:none;stroke-opacity:1" transform="matrix(1.7066667,0,0,-1.7066667,293.65893,139.99008)" />
    <path id="path12" d="m 99.41307,28.3468 h 11.11845" style="fill:none;stroke:#121619;stroke-width:0.3985;stroke-linecap:butt;stroke-linejoin:miter;stroke-miterlimit:10;stroke-dasharray:none;stroke-opacity:1" transform="matrix(1.7066667,0,0,-1.7066667,293.65893,139.99008)" />
    <path id="path13" d="m -110.53152,31.18149 h 11.11845" style="fill:none;stroke:#121619;stroke-width:0.3985;stroke-linecap:butt;stroke-linejoin:miter;stroke-miterlimit:10;stroke-dasharray:none;stroke-opacity:1" transform="matrix(1.7066667,0,0,-1.7066667,293.65893,139.99008)" />
    <path id="path14" d="M -28.14754,31.18149 H 28.14754" style="fill:none;stroke:#121619;stroke-width:0.3985;stroke-linecap:butt;stroke-linejoin:miter;stroke-miterlimit:10;stroke-dasharray:none;stroke-opacity:1" transform="matrix(1.7066667,0,0,-1.7066667,293.65893,139.99008)" />
    <path id="path15" d="m 99.41307,31.18149 h 11.11845" style="fill:none;stroke:#121619;stroke-width:0.3985;stroke-linecap:butt;stroke-linejoin:miter;stroke-miterlimit:10;stroke-dasharray:none;stroke-opacity:1" transform="matrix(1.7066667,0,0,-1.7066667,293.65893,139.99008)" />
    <path id="path16" d="m -110.53152,34.01617 h 11.11845" style="fill:none;stroke:#121619;stroke-width:0.3985;stroke-linecap:butt;stroke-linejoin:miter;stroke-miterlimit:10;stroke-dasharray:none;stroke-opacity:1" transform="matrix(1.7066667,0,0,-1.7066667,293.65893,139.99008)" />
    <path id="path17" d="M -28.14754,34.01617 H 28.14754" style="fill:none;stroke:#121619;stroke-width:0.3985;stroke-linecap:butt;stroke-linejoin:miter;stroke-miterlimit:10;stroke-dasharray:none;stroke-opacity:1" transform="matrix(1.7066667,0,0,-1.7066667,293.65893,139.99008)" />
    <path id="path18" d="m 99.41307,34.01617 h 11.11845" style="fill:none;stroke:#121619;stroke-width:0.3985;stroke-linecap:butt;stroke-linejoin:miter;stroke-miterlimit:10;stroke-dasharray:none;stroke-opacity:1" transform="matrix(1.7066667,0,0,-1.7066667,293.65893,139.99008)" />
    <path id="path19" d="m -110.53152,36.85085 h 11.11845" style="fill:none;stroke:#121619;stroke-width:0.3985;stroke-linecap:butt;stroke-linejoin:miter;stroke-miterlimit:10;stroke-dasharray:none;stroke-opacity:1" transform="matrix(1.7066667,0,0,-1.7066667,293.65893,139.99008)" />
    <path id="path20" d="M -28.14754,36.85085 H 28.14754" style="fill:none;stroke:#121619;stroke-width:0.3985;stroke-linecap:butt;stroke-linejoin:miter;stroke-miterlimit:10;stroke-dasharray:none;stroke-opacity:1" transform="matrix(1.7066667,0,0,-1.7066667,293.65893,139.99008)" />
    <path id="path21" d="m 99.41307,36.85085 h 11.11845" style="fill:none;stroke:#121619;stroke-width:0.3985;stroke-linecap:butt;stroke-linejoin:miter;stroke-miterlimit:10;stroke-dasharray:none;stroke-opacity:1" transform="matrix(1.7066667,0,0,-1.7066667,293.65893,139.99008)" />
    <path id="path22" d="m -110.53152,39.68553 h 11.11845" style="fill:none;stroke:#121619;stroke-width:0.3985;stroke-linecap:butt;stroke-linejoin:miter;stroke-miterlimit:10;stroke-dasharray:none;stroke-opacity:1" transform="matrix(1.7066667,0,0,-1.7066667,293.65893,139.99008)" />
    <path id="path23" d="M -28.14754,39.68553 H 28.14754" style="fill:none;stroke:#121619;stroke-width:0.3985;stroke-linecap:butt;stroke-linejoin:miter;stroke-miterlimit:10;stroke-dasharray:none;stroke-opacity:1" transform="matrix(1.7066667,0,0,-1.7066667,293.65893,139.99008)" />
    <path id="path24" d="m 99.41307,39.68553 h 11.11845" style="fill:none;stroke:#121619;stroke-width:0.3985;stroke-linecap:butt;stroke-linejoin:miter;stroke-miterlimit:10;stroke-dasharray:none;stroke-opacity:1" transform="matrix(1.7066667,0,0,-1.7066667,293.65893,139.99008)" />
    <path id="path25" d="m -110.53152,42.52022 h 11.11845" style="fill:none;stroke:#121619;stroke-width:0.3985;stroke-linecap:butt;stroke-linejoin:miter;stroke-miterlimit:10;stroke-dasharray:none;stroke-opacity:1" transform="matrix(1.7066667,0,0,-1.7066667,293.65893,139.99008)" />
    <path id="path26" d="M -28.14754,42.52022 H 28.14754" style="fill:none;stroke:#121619;stroke-width:0.3985;stroke-linecap:butt;stroke-linejoin:miter;stroke-miterlimit:10;stroke-dasharray:none;stroke-opacity:1" transform="matrix(1.7066667,0,0,-1.7066667,293.65893,139.99008)" />
    <path id="path27" d="m 99.41307,42.52022 h 11.11845" style="fill:none;stroke:#121619;stroke-width:0.3985;stroke-linecap:butt;stroke-linejoin:miter;stroke-miterlimit:10;stroke-dasharray:none;stroke-opacity:1" transform="matrix(1.7066667,0,0,-1.7066667,293.65893,139.99008)" />
    <path id="path28" d="m -110.53152,45.3549 h 11.11845" style="fill:none;stroke:#121619;stroke-width:0.3985;stroke-linecap:butt;stroke-linejoin:miter;stroke-miterlimit:10;stroke-dasharray:none;stroke-opacity:1" transform="matrix(1.7066667,0,0,-1.7066667,293.65893,139.99008)" />
    <path id="path29" d="M -28.14754,45.3549 H 28.14754" style="fill:none;stroke:#121619;stroke-width:0.3985;stroke-linecap:butt;stroke-linejoin:miter;stroke-miterlimit:10;stroke-dasharray:none;stroke-opacity:1" transform="matrix(1.7066667,0,0,-1.7066667,293.65893,139.99008)" />
    <path id="path30" d="m 99.41307,45.3549 h 11.11845" style="fill:none;stroke:#121619;stroke-width:0.3985;stroke-linecap:butt;stroke-linejoin:miter;stroke-miterlimit:10;stroke-dasharray:none;stroke-opacity:1" transform="matrix(1.7066667,0,0,-1.7066667,293.65893,139.99008)" />
    <path id="path31" d="m -110.53152,48.18958 h 11.11845" style="fill:none;stroke:#121619;stroke-width:0.3985;stroke-linecap:butt;stroke-linejoin:miter;stroke-miterlimit:10;stroke-dasharray:none;stroke-opacity:1" transform="matrix(1.7066667,0,0,-1.7066667,293.65893,139.99008)" />
    <path id="path32" d="M -28.14754,48.18958 H 28.14754" style="fill:none;stroke:#121619;stroke-width:0.3985;stroke-linecap:butt;stroke-linejoin:miter;stroke-miterlimit:10;stroke-dasharray:none;stroke-opacity:1" transform="matrix(1.7066667,0,0,-1.7066667,293.65893,139.99008)" />
    <path id="path33" d="m 99.41307,48.18958 h 11.11845" style="fill:none;stroke:#121619;stroke-width:0.3985;stroke-linecap:butt;stroke-linejoin:miter;stroke-miterlimit:10;stroke-dasharray:none;stroke-opacity:1" transform="matrix(1.7066667,0,0,-1.7066667,293.65893,139.99008)" />
    <path id="path34" d="m -110.53152,51.02426 h 11.11845" style="fill:none;stroke:#121619;stroke-width:0.3985;stroke-linecap:butt;stroke-linejoin:miter;stroke-miterlimit:10;stroke-dasharray:none;stroke-opacity:1" transform="matrix(1.7066667,0,0,-1.7066667,293.65893,139.99008)" />
    <path id="path35" d="M -28.14754,51.02426 H 28.14754" style="fill:none;stroke:#121619;stroke-width:0.3985;stroke-linecap:butt;stroke-linejoin:miter;stroke-miterlimit:10;stroke-dasharray:none;stroke-opacity:1" transform="matrix(1.7066667,0,0,-1.7066667,293.65893,139.99008)" />
    <path id="path36" d="m 99.41307,51.02426 h 11.11845" style="fill:none;stroke:#121619;stroke-width:0.3985;stroke-linecap:butt;stroke-linejoin:miter;stroke-miterlimit:10;stroke-dasharray:none;stroke-opacity:1" transform="matrix(1.7066667,0,0,-1.7066667,293.65893,139.99008)" />
    <path id="path37" d="m -110.53152,-17.00807 h 11.11845" style="fill:none;stroke:#121619;stroke-width:0.3985;stroke-linecap:butt;stroke-linejoin:miter;stroke-miterlimit:10;stroke-dasharray:none;stroke-opacity:1" transform="matrix(1.7066667,0,0,-1.7066667,293.65893,139.99008)" />
    <path id="path38" d="M -28.14754,-17.00807 H 28.14754" style="fill:none;stroke:#121619;stroke-width:0.3985;stroke-linecap:butt;stroke-linejoin:miter;stroke-miterlimit:10;stroke-dasharray:none;stroke-opacity:1" transform="matrix(1.7066667,0,0,-1.7066667,293.65893,139.99008)" />
    <path id="path39" d="m 99.41307,-17.00807 h 11.11845" style="fill:none;stroke:#121619;stroke-width:0.3985;stroke-linecap:butt;stroke-linejoin:miter;stroke-miterlimit:10;stroke-dasharray:none;stroke-opacity:1" transform="matrix(1.7066667,0,0,-1.7066667,293.65893,139.99008)" />
    <path id="path40" d="m -110.53152,-14.17339 h 11.11845" style="fill:none;stroke:#121619;stroke-width:0.3985;stroke-linecap:butt;stroke-linejoin:miter;stroke-miterlimit:10;stroke-dasharray:none;stroke-opacity:1" transform="matrix(1.7066667,0,0,-1.7066667,293.65893,139.99008)" />
    <path id="path41" d="M -28.14754,-14.17339 H 28.14754" style="fill:none;stroke:#121619;stroke-width:0.3985;stroke-linecap:butt;stroke-linejoin:miter;stroke-miterlimit:10;stroke-dasharray:none;stroke-opacity:1" transform="matrix(1.7066667,0,0,-1.7066667,293.65893,139.99008)" />
    <path id="path42" d="m 99.41307,-14.17339 h 11.11845" style="fill:none;stroke:#121619;stroke-width:0.3985;stroke-linecap:butt;stroke-linejoin:miter;stroke-miterlimit:10;stroke-dasharray:none;stroke-opacity:1" transform="matrix(1.7066667,0,0,-1.7066667,293.65893,139.99008)" />
    <path id="path43" d="m -110.53152,-11.33871 h 11.11845" style="fill:none;stroke:#121619;stroke-width:0.3985;stroke-linecap:butt;stroke-linejoin:miter;stroke-miterlimit:10;stroke-dasharray:none;stroke-opacity:1" transform="matrix(1.7066667,0,0,-1.7066667,293.65893,139.99008)" />
    <path id="path44" d="M -28.14754,-11.33871 H 28.14754" style="fill:none;stroke:#121619;stroke-width:0.3985;stroke-linecap:butt;stroke-linejoin:miter;stroke-miterlimit:10;stroke-dasharray:none;stroke-opacity:1" transform="matrix(1.7066667,0,0,-1.7066667,293.65893,139.99008)" />
    <path id="path45" d="m 99.41307,-11.33871 h 11.11845" style="fill:none;stroke:#121619;stroke-width:0.3985;stroke-linecap:butt;stroke-linejoin:miter;stroke-miterlimit:10;stroke-dasharray:none;stroke-opacity:1" transform="matrix(1.7066667,0,0,-1.7066667,293.65893,139.99008)" />
    <path id="path46" d="m -110.53152,-8.50403 h 11.11845" style="fill:none;stroke:#121619;stroke-width:0.3985;stroke-linecap:butt;stroke-linejoin:miter;stroke-miterlimit:10;stroke-dasharray:none;stroke-opacity:1" transform="matrix(1.7066667,0,0,-1.7066667,293.65893,139.99008)" />
    <path id="path47" d="M -28.14754,-8.50403 H 28.14754" style="fill:none;stroke:#121619;stroke-width:0.3985;stroke-linecap:butt;stroke-linejoin:miter;stroke-miterlimit:10;stroke-dasharray:none;stroke-opacity:1" transform="matrix(1.7066667,0,0,-1.7066667,293.65893,139.99008)" />
    <path id="path48" d="m 99.41307,-8.50403 h 11.11845" style="fill:none;stroke:#121619;stroke-width:0.3985;stroke-linecap:butt;stroke-linejoin:miter;stroke-miterlimit:10;stroke-dasharray:none;stroke-opacity:1" transform="matrix(1.7066667,0,0,-1.7066667,293.65893,139.99008)" />
    <path id="path49" d="m -110.53152,-5.66934 h 11.11845" style="fill:none;stroke:#121619;stroke-width:0.3985;stroke-linecap:butt;stroke-linejoin:miter;stroke-miterlimit:10;stroke-dasharray:none;stroke-opacity:1" transform="matrix(1.7066667,0,0,-1.7066667,293.65893,139.99008)" />
    <path id="path50" d="M -28.14754,-5.66934 H 28.14754" style="fill:none;stroke:#121619;stroke-width:0.3985;stroke-linecap:butt;stroke-linejoin:miter;stroke-miterlimit:10;stroke-dasharray:none;stroke-opacity:1" transform="matrix(1.7066667,0,0,-1.7066667,293.65893,139.99008)" />
    <path id="path51" d="m 99.41307,-5.66934 h 11.11845" style="fill:none;stroke:#121619;stroke-width:0.3985;stroke-linecap:butt;stroke-linejoin:miter;stroke-miterlimit:10;stroke-dasharray:none;stroke-opacity:1" transform="matrix(1.7066667,0,0,-1.7066667,293.65893,139.99008)" />
    <path id="path52" d="m -110.53152,-2.83466 h 11.11845" style="fill:none;stroke:#121619;stroke-width:0.3985;stroke-linecap:butt;stroke-linejoin:miter;stroke-miterlimit:10;stroke-dasharray:none;stroke-opacity:1" transform="matrix(1.7066667,0,0,-1.7066667,293.65893,139.99008)" />
    <path id="path53" d="M -28.14754,-2.83466 H 28.14754" style="fill:none;stroke:#121619;stroke-width:0.3985;stroke-linecap:butt;stroke-linejoin:miter;stroke-miterlimit:10;stroke-dasharray:none;stroke-opacity:1" transform="matrix(1.7066667,0,0,-1.7066667,293.65893,139.99008)" />
    <path id="path54" d="m 99.41307,-2.83466 h 11.11845" style="fill:none;stroke:#121619;stroke-width:0.3985;stroke-linecap:butt;stroke-linejoin:miter;stroke-miterlimit:10;stroke-dasharray:none;stroke-opacity:1" transform="matrix(1.7066667,0,0,-1.7066667,293.65893,139.99008)" />
    <path id="path55" d="m -110.53152,0 h 11.11845" style="fill:none;stroke:#121619;stroke-width:0.3985;stroke-linecap:butt;stroke-linejoin:miter;stroke-miterlimit:10;stroke-dasharray:none;stroke-opacity:1" transform="matrix(1.7066667,0,0,-1.7066667,293.65893,139.99008)" />
    <path id="path56" d="M -28.14754,0 H 28.14754" style="fill:none;stroke:#121619;stroke-width:0.3985;stroke-linecap:butt;stroke-linejoin:miter;stroke-miterlimit:10;stroke-dasharray:none;stroke-opacity:1" transform="matrix(1.7066667,0,0,-1.7066667,293.65893,139.99008)" />
    <path id="path57" d="m 99.41307,0 h 11.11845" style="fill:none;stroke:#121619;stroke-width:0.3985;stroke-linecap:butt;stroke-linejoin:miter;stroke-miterlimit:10;stroke-dasharray:none;stroke-opacity:1" transform="matrix(1.7066667,0,0,-1.7066667,293.65893,139.99008)" />
    <path id="path58" d="m -110.53152,2.83466 h 11.11845" style="fill:none;stroke:#121619;stroke-width:0.3985;stroke-linecap:butt;stroke-linejoin:miter;stroke-miterlimit:10;stroke-dasharray:none;stroke-opacity:1" transform="matrix(1.7066667,0,0,-1.7066667,293.65893,139.99008)" />
    <path id="path59" d="M -28.14754,2.83466 H 28.14754" style="fill:none;stroke:#121619;stroke-width:0.3985;stroke-linecap:butt;stroke-linejoin:miter;stroke-miterlimit:10;stroke-dasharray:none;stroke-opacity:1" transform="matrix(1.7066667,0,0,-1.7066667,293.65893,139.99008)" />
    <path id="path60" d="m 99.41307,2.83466 h 11.11845" style="fill:none;stroke:#121619;stroke-width:0.3985;stroke-linecap:butt;stroke-linejoin:miter;stroke-miterlimit:10;stroke-dasharray:none;stroke-opacity:1" transform="matrix(1.7066667,0,0,-1.7066667,293.65893,139.99008)" />
    <path id="path61" d="m -110.53152,5.66934 h 11.11845" style="fill:none;stroke:#121619;stroke-width:0.3985;stroke-linecap:butt;stroke-linejoin:miter;stroke-miterlimit:10;stroke-dasharray:none;stroke-opacity:1" transform="matrix(1.7066667,0,0,-1.7066667,293.65893,139.99008)" />
    <path id="path62" d="M -28.14754,5.66934 H 28.14754" style="fill:none;stroke:#121619;stroke-width:0.3985;stroke-linecap:butt;stroke-linejoin:miter;stroke-miterlimit:10;stroke-dasharray:none;stroke-opacity:1" transform="matrix(1.7066667,0,0,-1.7066667,293.65893,139.99008)" />
    <path id="path63" d="m 99.41307,5.66934 h 11.11845" style="fill:none;stroke:#121619;stroke-width:0.3985;stroke-linecap:butt;stroke-linejoin:miter;stroke-miterlimit:10;stroke-dasharray:none;stroke-opacity:1" transform="matrix(1.7066667,0,0,-1.7066667,293.65893,139.99008)" />
    <path id="path64" d="m -110.53152,8.50403 h 11.11845" style="fill:none;stroke:#121619;stroke-width:0.3985;stroke-linecap:butt;stroke-linejoin:miter;stroke-miterlimit:10;stroke-dasharray:none;stroke-opacity:1" transform="matrix(1.7066667,0,0,-1.7066667,293.65893,139.99008)" />
    <path id="path65" d="M -28.14754,8.50403 H 28.14754" style="fill:none;stroke:#121619;stroke-width:0.3985;stroke-linecap:butt;stroke-linejoin:miter;stroke-miterlimit:10;stroke-dasharray:none;stroke-opacity:1" transform="matrix(1.7066667,0,0,-1.7066667,293.65893,139.99008)" />
    <path id="path66" d="m 99.41307,8.50403 h 11.11845" style="fill:none;stroke:#121619;stroke-width:0.3985;stroke-linecap:butt;stroke-linejoin:miter;stroke-miterlimit:10;stroke-dasharray:none;stroke-opacity:1" transform="matrix(1.7066667,0,0,-1.7066667,293.65893,139.99008)" />
    <path id="path67" d="m -110.53152,11.33871 h 11.11845" style="fill:none;stroke:#121619;stroke-width:0.3985;stroke-linecap:butt;stroke-linejoin:miter;stroke-miterlimit:10;stroke-dasharray:none;stroke-opacity:1" transform="matrix(1.7066667,0,0,-1.7066667,293.65893,139.99008)" />
    <path id="path68" d="M -28.14754,11.33871 H 28.14754" style="fill:none;stroke:#121619;stroke-width:0.3985;stroke-linecap:butt;stroke-linejoin:miter;stroke-miterlimit:10;stroke-dasharray:none;stroke-opacity:1" transform="matrix(1.7066667,0,0,-1.7066667,293.65893,139.99008)" />
    <path id="path69" d="m 99.41307,11.33871 h 11.11845" style="fill:none;stroke:#121619;stroke-width:0.3985;stroke-linecap:butt;stroke-linejoin:miter;stroke-miterlimit:10;stroke-dasharray:none;stroke-opacity:1" transform="matrix(1.7066667,0,0,-1.7066667,293.65893,139.99008)" />
    <path id="path70" d="m -110.53152,14.17339 h 11.11845" style="fill:none;stroke:#121619;stroke-width:0.3985;stroke-linecap:butt;stroke-linejoin:miter;stroke-miterlimit:10;stroke-dasharray:none;stroke-opacity:1" transform="matrix(1.7066667,0,0,-1.7066667,293.65893,139.99008)" />
    <path id="path71" d="M -28.14754,14.17339 H 28.14754" style="fill:none;stroke:#121619;stroke-width:0.3985;stroke-linecap:butt;stroke-linejoin:miter;stroke-miterlimit:10;stroke-dasharray:none;stroke-opacity:1" transform="matrix(1.7066667,0,0,-1.7066667,293.65893,139.99008)" />
    <path id="path72" d="m 99.41307,14.17339 h 11.11845" style="fill:none;stroke:#121619;stroke-width:0.3985;stroke-linecap:butt;stroke-linejoin:miter;stroke-miterlimit:10;stroke-dasharray:none;stroke-opacity:1" transform="matrix(1.7066667,0,0,-1.7066667,293.65893,139.99008)" />
    <path id="path73" d="m -110.53152,17.00807 h 11.11845" style="fill:none;stroke:#121619;stroke-width:0.3985;stroke-linecap:butt;stroke-linejoin:miter;stroke-miterlimit:10;stroke-dasharray:none;stroke-opacity:1" transform="matrix(1.7066667,0,0,-1.7066667,293.65893,139.99008)" />
    <path id="path74" d="M -28.14754,17.00807 H 28.14754" style="fill:none;stroke:#121619;stroke-width:0.3985;stroke-linecap:butt;stroke-linejoin:miter;stroke-miterlimit:10;stroke-dasharray:none;stroke-opacity:1" transform="matrix(1.7066667,0,0,-1.7066667,293.65893,139.99008)" />
    <path id="path75" d="m 99.41307,17.00807 h 11.11845" style="fill:none;stroke:#121619;stroke-width:0.3985;stroke-linecap:butt;stroke-linejoin:miter;stroke-miterlimit:10;stroke-dasharray:none;stroke-opacity:1" transform="matrix(1.7066667,0,0,-1.7066667,293.65893,139.99008)" />
    <path id="path76" d="m -110.53152,-28.3468 h 11.11845" style="fill:none;stroke:#121619;stroke-width:0.3985;stroke-linecap:butt;stroke-linejoin:miter;stroke-miterlimit:10;stroke-dasharray:none;stroke-opacity:1" transform="matrix(1.7066667,0,0,-1.7066667,293.65893,139.99008)" />
    <path id="path77" d="M -28.14754,-28.3468 H 28.14754" style="fill:none;stroke:#121619;stroke-width:0.3985;stroke-linecap:butt;stroke-linejoin:miter;stroke-miterlimit:10;stroke-dasharray:none;stroke-opacity:1" transform="matrix(1.7066667,0,0,-1.7066667,293.65893,139.99008)" />
    <path id="path78" d="m 99.41307,-28.3468 h 11.11845" style="fill:none;stroke:#121619;stroke-width:0.3985;stroke-linecap:butt;stroke-linejoin:miter;stroke-miterlimit:10;stroke-dasharray:none;stroke-opacity:1" transform="matrix(1.7066667,0,0,-1.7066667,293.65893,139.99008)" />
    <path id="path79" d="m -110.53152,-31.18149 h 11.11845" style="fill:none;stroke:#121619;stroke-width:0.3985;stroke-linecap:butt;stroke-linejoin:miter;stroke-miterlimit:10;stroke-dasharray:none;stroke-opacity:1" transform="matrix(1.7066667,0,0,-1.7066667,293.65893,139.99008)" />
    <path id="path80" d="M -28.14754,-31.18149 H 28.14754" style="fill:none;stroke:#121619;stroke-width:0.3985;stroke-linecap:butt;stroke-linejoin:miter;stroke-miterlimit:10;stroke-dasharray:none;stroke-opacity:1" transform="matrix(1.7066667,0,0,-1.7066667,293.65893,139.99008)" />
    <path id="path81" d="m 99.41307,-31.18149 h 11.11845" style="fill:none;stroke:#121619;stroke-width:0.3985;stroke-linecap:butt;stroke-linejoin:miter;stroke-miterlimit:10;stroke-dasharray:none;stroke-opacity:1" transform="matrix(1.7066667,0,0,-1.7066667,293.65893,139.99008)" />
    <path id="path82" d="m -110.53152,-34.01617 h 11.11845" style="fill:none;stroke:#121619;stroke-width:0.3985;stroke-linecap:butt;stroke-linejoin:miter;stroke-miterlimit:10;stroke-dasharray:none;stroke-opacity:1" transform="matrix(1.7066667,0,0,-1.7066667,293.65893,139.99008)" />
    <path id="path83" d="M -28.14754,-34.01617 H 28.14754" style="fill:none;stroke:#121619;stroke-width:0.3985;stroke-linecap:butt;stroke-linejoin:miter;stroke-miterlimit:10;stroke-dasharray:none;stroke-opacity:1" transform="matrix(1.7066667,0,0,-1.7066667,293.65893,139.99008)" />
    <path id="path84" d="m 99.41307,-34.01617 h 11.11845" style="fill:none;stroke:#121619;stroke-width:0.3985;stroke-linecap:butt;stroke-linejoin:miter;stroke-miterlimit:10;stroke-dasharray:none;stroke-opacity:1" transform="matrix(1.7066667,0,0,-1.7066667,293.65893,139.99008)" />
    <path id="path85" d="m -110.53152,-36.85085 h 11.11845" style="fill:none;stroke:#121619;stroke-width:0.3985;stroke-linecap:butt;stroke-linejoin:miter;stroke-miterlimit:10;stroke-dasharray:none;stroke-opacity:1" transform="matrix(1.7066667,0,0,-1.7066667,293.65893,139.99008)" />
    <path id="path86" d="M -28.14754,-36.85085 H 28.14754" style="fill:none;stroke:#121619;stroke-width:0.3985;stroke-linecap:butt;stroke-linejoin:miter;stroke-miterlimit:10;stroke-dasharray:none;stroke-opacity:1" transform="matrix(1.7066667,0,0,-1.7066667,293.65893,139.99008)" />
    <path id="path87" d="m 99.41307,-36.85085 h 11.11845" style="fill:none;stroke:#121619;stroke-width:0.3985;stroke-linecap:butt;stroke-linejoin:miter;stroke-miterlimit:10;stroke-dasharray:none;stroke-opacity:1" transform="matrix(1.7066667,0,0,-1.7066667,293.65893,139.99008)" />
    <path id="path88" d="m -110.53152,-39.68553 h 11.11845" style="fill:none;stroke:#121619;stroke-width:0.3985;stroke-linecap:butt;stroke-linejoin:miter;stroke-miterlimit:10;stroke-dasharray:none;stroke-opacity:1" transform="matrix(1.7066667,0,0,-1.7066667,293.65893,139.99008)" />
    <path id="path89" d="M -28.14754,-39.68553 H 28.14754" style="fill:none;stroke:#121619;stroke-width:0.3985;stroke-linecap:butt;stroke-linejoin:miter;stroke-miterlimit:10;stroke-dasharray:none;stroke-opacity:1" transform="matrix(1.7066667,0,0,-1.7066667,293.65893,139.99008)" />
    <path id="path90" d="m 99.41307,-39.68553 h 11.11845" style="fill:none;stroke:#121619;stroke-width:0.3985;stroke-linecap:butt;stroke-linejoin:miter;stroke-miterlimit:10;stroke-dasharray:none;stroke-opacity:1" transform="matrix(1.7066667,0,0,-1.7066667,293.65893,139.99008)" />
    <path id="path91" d="m -110.53152,-42.52022 h 11.11845" style="fill:none;stroke:#121619;stroke-width:0.3985;stroke-linecap:butt;stroke-linejoin:miter;stroke-miterlimit:10;stroke-dasharray:none;stroke-opacity:1" transform="matrix(1.7066667,0,0,-1.7066667,293.65893,139.99008)" />
    <path id="path92" d="M -28.14754,-42.52022 H 28.14754" style="fill:none;stroke:#121619;stroke-width:0.3985;stroke-linecap:butt;stroke-linejoin:miter;stroke-miterlimit:10;stroke-dasharray:none;stroke-opacity:1" transform="matrix(1.7066667,0,0,-1.7066667,293.65893,139.99008)" />
    <path id="path93" d="m 99.41307,-42.52022 h 11.11845" style="fill:none;stroke:#121619;stroke-width:0.3985;stroke-linecap:butt;stroke-linejoin:miter;stroke-miterlimit:10;stroke-dasharray:none;stroke-opacity:1" transform="matrix(1.7066667,0,0,-1.7066667,293.65893,139.99008)" />
    <path id="path94" d="m -110.53152,-45.3549 h 11.11845" style="fill:none;stroke:#121619;stroke-width:0.3985;stroke-linecap:butt;stroke-linejoin:miter;stroke-miterlimit:10;stroke-dasharray:none;stroke-opacity:1" transform="matrix(1.7066667,0,0,-1.7066667,293.65893,139.99008)" />
    <path id="path95" d="M -28.14754,-45.3549 H 28.14754" style="fill:none;stroke:#121619;stroke-width:0.3985;stroke-linecap:butt;stroke-linejoin:miter;stroke-miterlimit:10;stroke-dasharray:none;stroke-opacity:1" transform="matrix(1.7066667,0,0,-1.7066667,293.65893,139.99008)" />
    <path id="path96" d="m 99.41307,-45.3549 h 11.11845" style="fill:none;stroke:#121619;stroke-width:0.3985;stroke-linecap:butt;stroke-linejoin:miter;stroke-miterlimit:10;stroke-dasharray:none;stroke-opacity:1" transform="matrix(1.7066667,0,0,-1.7066667,293.65893,139.99008)" />
    <path id="path97" d="m -110.53152,-48.18958 h 11.11845" style="fill:none;stroke:#121619;stroke-width:0.3985;stroke-linecap:butt;stroke-linejoin:miter;stroke-miterlimit:10;stroke-dasharray:none;stroke-opacity:1" transform="matrix(1.7066667,0,0,-1.7066667,293.65893,139.99008)" />
    <path id="path98" d="M -28.14754,-48.18958 H 28.14754" style="fill:none;stroke:#121619;stroke-width:0.3985;stroke-linecap:butt;stroke-linejoin:miter;stroke-miterlimit:10;stroke-dasharray:none;stroke-opacity:1" transform="matrix(1.7066667,0,0,-1.7066667,293.65893,139.99008)" />
    <path id="path99" d="m 99.41307,-48.18958 h 11.11845" style="fill:none;stroke:#121619;stroke-width:0.3985;stroke-linecap:butt;stroke-linejoin:miter;stroke-miterlimit:10;stroke-dasharray:none;stroke-opacity:1" transform="matrix(1.7066667,0,0,-1.7066667,293.65893,139.99008)" />
    <path id="path100" d="m -110.53152,-51.02426 h 11.11845" style="fill:none;stroke:#121619;stroke-width:0.3985;stroke-linecap:butt;stroke-linejoin:miter;stroke-miterlimit:10;stroke-dasharray:none;stroke-opacity:1" transform="matrix(1.7066667,0,0,-1.7066667,293.65893,139.99008)" />
    <path id="path101" d="M -28.14754,-51.02426 H 28.14754" style="fill:none;stroke:#121619;stroke-width:0.3985;stroke-linecap:butt;stroke-linejoin:miter;stroke-miterlimit:10;stroke-dasharray:none;stroke-opacity:1" transform="matrix(1.7066667,0,0,-1.7066667,293.65893,139.99008)" />
    <path id="path102" d="m 99.41307,-51.02426 h 11.11845" style="fill:none;stroke:#121619;stroke-width:0.3985;stroke-linecap:butt;stroke-linejoin:miter;stroke-miterlimit:10;stroke-dasharray:none;stroke-opacity:1" transform="matrix(1.7066667,0,0,-1.7066667,293.65893,139.99008)" />
    <g id="g102" aria-label="∣x⟩&#10;⎧&#10;⎪&#10;⎪&#10;⎪&#10;⎨&#10;⎪&#10;⎪&#10;⎪&#10;⎩" transform="matrix(1.7066667,0,0,1.7066667,60.318347,76.00032)">
      <path id="path103" d="m 1.1982039,-6.0975996 v 7.8094482 h 0.50354 v -7.8094482 z m 0,0" style="fill:#121619;fill-opacity:1;fill-rule:nonzero;stroke:none" />
      <path id="path104" d="m 6.8927839,-3.1862227 c -0.3479004,0.091553 -0.3662109,0.4028321 -0.3662109,0.4394532 0,0.1739502 0.1373291,0.2929687 0.3112793,0.2929687 0.1739502,0 0.4486084,-0.1373291 0.4486084,-0.4852295 0,-0.4486084 -0.50354,-0.5767822 -0.7965088,-0.5767822 -0.3753662,0 -0.6774902,0.2655029 -0.8605957,0.5767822 -0.1739502,-0.4302978 -0.5950928,-0.5767822 -0.9155273,-0.5767822 -0.869751,0 -1.3549805,0.9979248 -1.3549805,1.2176514 0,0.073242 0.054932,0.100708 0.1190185,0.100708 0.091553,0 0.1098633,-0.036621 0.1373291,-0.1281739 0.1831055,-0.5859375 0.6591797,-0.9704589 1.071167,-0.9704589 0.3112793,0 0.466919,0.2288818 0.466919,0.5126953 0,0.1556396 -0.100708,0.5310058 -0.1647949,0.7781982 -0.054932,0.2380371 -0.2288819,0.9429932 -0.265503,1.09863283 -0.1190185,0.43029785 -0.402832,0.7598877 -0.7598877,0.7598877 -0.036621,0 -0.2380371,0 -0.4119873,-0.10986329 0.366211,-0.0823975 0.366211,-0.42114257 0.366211,-0.43029785 0,-0.18310547 -0.1373291,-0.29296875 -0.3112793,-0.29296875 -0.2197266,0 -0.4486084,0.18310547 -0.4486084,0.48522949 0,0.36621094 0.3936767,0.57678223 0.7965088,0.57678223 0.4211425,0 0.7141113,-0.32043457 0.8605957,-0.57678223 0.1739502,0.39367676 0.5401611,0.57678223 0.9246826,0.57678223 0.869751,0 1.3458252,-0.9979248 1.3458252,-1.22680666 0,-0.073242 -0.064087,-0.100708 -0.1190186,-0.100708 -0.091553,0 -0.1098633,0.054932 -0.1373291,0.1373291 -0.1556396,0.53100587 -0.6134033,0.96130373 -1.071167,0.96130373 -0.2655029,0 -0.4577636,-0.1739502 -0.4577636,-0.50354004 0,-0.16479493 0.045776,-0.34790039 0.1647949,-0.79650879 0.054932,-0.2380371 0.2288818,-0.9338379 0.2655029,-1.0894775 0.1098633,-0.4119873 0.3936768,-0.7598877 0.7507324,-0.7598877 0.036621,0 0.2471924,0 0.4119873,0.1098632 z m 0,0" style="fill:#121619;fill-opacity:1;fill-rule:nonzero;stroke:none" />
      <path id="path105" d="m 8.8771895,1.8034014 1.4373775,-4.0008545 -1.4373775,-3.9916992 -0.4760743,0.1739502 1.437378,3.817749 -1.437378,3.8269043 z M 18.572624,-15.712926 v -0.430297 c -0.98877,0 -1.895142,0.668335 -1.895142,1.602172 v 3.341675 h 0.512696 v -3.341675 c 0,-0.686645 0.650024,-1.171875 1.382446,-1.171875 z m -1.895142,3.934479 v 2.8472903 h 0.512696 v -2.8472903 z m 0,2.3414614 v 2.84729 h 0.512696 v -2.84729 z m 0,2.34375 v 2.84729 h 0.512696 v -2.84729 z m 0.512696,2.34375 h -0.512696 v 1.2542725 c 0,0.6408691 -0.604248,1.0803222 -1.281738,1.1077881 h -0.09155 v 0.4669189 c 0.723267,0 1.373291,0.4486084 1.373291,1.11694336 v 1.24511718 h 0.512696 v -1.25427246 c 0,-0.60424808 -0.357056,-1.07116698 -0.888062,-1.34582518 0.531006,-0.2563477 0.888062,-0.7415772 0.888062,-1.3458252 z m -0.512696,4.60968018 V 2.7074846 h 0.512696 v -2.84729002 z m 0,2.34375002 v 2.84729 h 0.512696 v -2.84729 z m 0,2.34375 v 2.84729 h 0.512696 v -2.84729 z m 1.895142,7.2853084 v -0.430297 c -0.732422,0 -1.382446,-0.48523 -1.382446,-1.171875 V 6.8891558 h -0.512696 v 3.3416752 c 0,0.942993 0.906372,1.602172 1.895142,1.602172 z m 0,0" style="fill:#121619;fill-opacity:1;fill-rule:nonzero;stroke:none" />
    </g>
    <g id="g105" aria-label="∣0&#10;k&#10;⟩&#10;⎧&#10;⎪&#10;⎪&#10;⎪&#10;⎪&#10;⎪&#10;⎨&#10;⎪&#10;⎪&#10;⎪&#10;⎪&#10;⎪&#10;⎩" transform="matrix(1.7066667,0,0,1.7066667,53.423413,143.61163)">
      <path id="path106" d="m 1.1984395,-6.0964426 v 7.8094482 h 0.50354 v -7.8094482 z m 0,0" style="fill:#121619;fill-opacity:1;fill-rule:nonzero;stroke:none" />
      <path id="path107" d="m 6.8014668,-2.5441965 c 0,-0.8514405 -0.091553,-1.373291 -0.3479004,-1.8768311 -0.3570557,-0.704956 -0.9979248,-0.8789062 -1.4373779,-0.8789062 -1.0070801,0 -1.373291,0.7507324 -1.4831543,0.9704589 -0.2929688,0.5859375 -0.302124,1.3732911 -0.302124,1.7852784 0,0.5310058 0.018311,1.3366699 0.402832,1.96838376 0.3662109,0.59509277 0.9613037,0.74157714 1.3824463,0.74157714 0.3845215,0 1.071167,-0.11901855 1.4648437,-0.90637207 C 6.774001,-1.3173899 6.8014668,-2.0223459 6.8014668,-2.5441965 Z m -1.7852783,2.49023434 c -0.2746582,0 -0.8239746,-0.12817383 -0.9887696,-0.96130374 -0.091553,-0.4577636 -0.091553,-1.2084961 -0.091553,-1.6204834 0,-0.5493164 0,-1.1077881 0.091553,-1.5472412 0.164795,-0.8148193 0.7873536,-0.8972168 0.9887696,-0.8972168 0.2655029,0 0.8239746,0.1373291 0.9796142,0.8605957 0.091553,0.4394532 0.091553,1.0345459 0.091553,1.5838623 0,0.466919 0,1.1810303 -0.091553,1.6296387 -0.1647949,0.84228516 -0.7141113,0.95214844 -0.9796142,0.95214844 z m 0,0" style="fill:#121619;fill-opacity:1;fill-rule:nonzero;stroke:none" />
      <path id="path108" d="m 9.1223286,-8.1174692 c 0,-0.018311 0.018311,-0.054932 0.018311,-0.082397 0,-0.100708 -0.1190186,-0.091553 -0.1922608,-0.091553 l -0.6683349,0.054932 c -0.1007081,0.00916 -0.1831055,0.018311 -0.1831055,0.1556397 0,0.091553 0.082397,0.091553 0.1739502,0.091553 0.1739502,0 0.2197265,0.01831 0.2929687,0.045776 0,0.073242 0,0.082397 -0.027466,0.1739502 L 7.7032612,-4.427894 c -0.027466,0.100708 -0.027466,0.1281738 -0.027466,0.1373291 0,0.1556396 0.1190186,0.2105712 0.2105713,0.2105712 0.064087,0 0.1739502,-0.027466 0.2471924,-0.1373291 0.045776,-0.082397 0.2838135,-1.0711669 0.3204346,-1.2634277 0.402832,0.027466 0.8331298,0.1190186 0.8331298,0.4760742 0,0.027466 0,0.054932 -0.018311,0.1281739 -0.018311,0.082397 -0.018311,0.1190185 -0.018311,0.1739502 0,0.3936767 0.3387452,0.6225585 0.6774903,0.6225585 0.5767824,0 0.7873534,-0.8789062 0.7873534,-0.9246826 0,-0.00916 -0.0092,-0.082397 -0.109863,-0.082397 -0.0824,0 -0.100708,0.036621 -0.128174,0.1373291 -0.06409,0.2105713 -0.228882,0.6683349 -0.5310059,0.6683349 -0.2288818,0 -0.2288818,-0.2563476 -0.2288818,-0.3204345 0,-0.100708 0,-0.100708 0.027466,-0.2197266 0,-0.00916 0.036621,-0.1281738 0.036621,-0.201416 0,-0.4577637 -0.5218506,-0.6042481 -0.9796143,-0.6500244 0.1373291,-0.082397 0.265503,-0.1831055 0.5035401,-0.3936768 0.302124,-0.2563476 0.6134033,-0.5126953 0.9429929,-0.5126953 0.07324,0 0.146485,0.018311 0.201416,0.073242 -0.210571,0.045776 -0.302124,0.2105713 -0.302124,0.3387451 0,0.1922607 0.15564,0.2288818 0.238037,0.2288818 0.137329,0 0.347901,-0.091553 0.347901,-0.3936767 0,-0.2563477 -0.192261,-0.4486084 -0.48523,-0.4486084 -0.375366,0 -0.7232664,0.2838135 -0.9979246,0.5218506 -0.3112793,0.2746582 -0.50354,0.4302978 -0.7232666,0.5126953 z m 0,0" style="fill:#121619;fill-opacity:1;fill-rule:nonzero;stroke:none" />
      <path id="path109" d="m 12.917189,1.8045583 1.437378,-4.0008544 -1.437378,-3.9916993 -0.476074,0.1739502 1.437378,3.8177491 -1.437378,3.8269043 z m 9.695435,-22.2038273 v -0.430297 c -0.98877,0 -1.895142,0.668335 -1.895142,1.602172 v 3.341675 h 0.512696 v -3.341675 c 0,-0.686645 0.650024,-1.171875 1.382446,-1.171875 z m -1.895142,3.93219 v 2.84729 h 0.512696 v -2.84729 z m 0,2.34375 v 2.84729 h 0.512696 v -2.84729 z m 0,2.34375 v 2.8472904 h 0.512696 v -2.8472904 z m 0,2.3437504 v 2.84729 h 0.512696 v -2.84729 z m 0,2.3414612 v 2.84729 h 0.512696 v -2.84729 z m 0.512696,2.34375 h -0.512696 v 1.2542724 c 0,0.6408692 -0.604248,1.0803223 -1.281738,1.1077881 h -0.09155 v 0.466919 c 0.723267,0 1.373291,0.4486084 1.373291,1.11694332 v 1.24511719 h 0.512696 v -1.25427246 c 0,-0.60424805 -0.357056,-1.07116695 -0.888062,-1.34582515 0.531006,-0.2563477 0.888062,-0.7415772 0.888062,-1.3458252 z m -0.512696,4.61196896 V 2.7086416 h 0.512696 v -2.84729004 z m 0,2.34146114 v 2.8472901 h 0.512696 V 2.2028127 Z m 0,2.34375 v 2.8472901 h 0.512696 V 4.5465627 Z m 0,2.34375 v 2.8472901 h 0.512696 V 6.8903127 Z m 0,2.34375 v 2.8472903 h 0.512696 V 9.2340627 Z m 1.895142,7.2875973 v -0.430297 c -0.732422,0 -1.382446,-0.48523 -1.382446,-1.171875 v -3.341675 h -0.512696 v 3.341675 c 0,0.942993 0.906372,1.602172 1.895142,1.602172 z m 0,0" style="fill:#121619;fill-opacity:1;fill-rule:nonzero;stroke:none" />
    </g>
    <g id="g109" aria-label="∣0&#10;n&#10;⟩&#10;⎧&#10;⎪&#10;⎪&#10;⎪&#10;⎨&#10;⎪&#10;⎪&#10;⎪&#10;⎩" transform="matrix(1.7066667,0,0,1.7066667,52.525707,211.46016)">
      <path id="path110" d="m 1.2003,-6.0969565 v 7.8094482 h 0.5035401 v -7.8094482 z m 0,0" style="fill:#121619;fill-opacity:1;fill-rule:nonzero;stroke:none" />
      <path id="path111" d="m 6.8010386,-2.5447104 c 0,-0.8514405 -0.091553,-1.3732911 -0.3479004,-1.8768311 -0.3570557,-0.7049561 -0.9979248,-0.8789063 -1.4373779,-0.8789063 -1.0070801,0 -1.3732911,0.7507325 -1.4831543,0.970459 -0.2929688,0.5859375 -0.3021241,1.373291 -0.3021241,1.7852784 0,0.5310058 0.018311,1.3366699 0.4028321,1.96838374 0.3662109,0.59509277 0.9613037,0.74157715 1.3824463,0.74157715 0.3845214,0 1.0711669,-0.11901856 1.4648437,-0.90637207 C 6.7735728,-1.3179038 6.8010386,-2.0228599 6.8010386,-2.5447104 Z m -1.7852783,2.49023433 c -0.2746582,0 -0.8239747,-0.12817383 -0.9887696,-0.96130373 -0.091553,-0.4577637 -0.091553,-1.2084961 -0.091553,-1.6204834 0,-0.5493164 0,-1.1077881 0.091553,-1.5472412 0.1647949,-0.8148193 0.7873535,-0.8972168 0.9887696,-0.8972168 0.2655029,0 0.8239746,0.1373291 0.9796142,0.8605957 0.091553,0.4394531 0.091553,1.0345459 0.091553,1.5838623 0,0.466919 0,1.1810303 -0.091553,1.6296387 -0.1647949,0.84228514 -0.7141113,0.95214843 -0.9796142,0.95214843 z m 0,0" style="fill:#121619;fill-opacity:1;fill-rule:nonzero;stroke:none" />
      <path id="path112" d="M 8.8838633,-6.2136863 C 8.8563975,-6.67145 8.4352549,-6.7813132 8.2155283,-6.7813132 c -0.2288818,0 -0.3845215,0.1373291 -0.4943847,0.3295898 -0.1464844,0.2471924 -0.2197266,0.5584717 -0.2197266,0.5859375 0,0.064087 0.054932,0.091553 0.1098633,0.091553 0.091553,0 0.100708,-0.045776 0.1281738,-0.1373291 0.1190186,-0.4852294 0.2655029,-0.6683349 0.4577637,-0.6683349 0.2105713,0 0.2105713,0.2380371 0.2105713,0.302124 0,0.091553 -0.054932,0.3295899 -0.100708,0.50354 -0.045776,0.1556397 -0.1007081,0.4028321 -0.1281739,0.5401612 -0.045776,0.1464844 -0.082397,0.302124 -0.1190185,0.4486084 -0.045776,0.1647949 -0.1190186,0.4669189 -0.1190186,0.50354 0,0.1281738 0.100708,0.201416 0.2105713,0.201416 0.1098633,0 0.2105713,-0.073242 0.2563477,-0.1647949 0.00916,-0.036621 0.064087,-0.2471924 0.100708,-0.3662109 l 0.1281738,-0.5401612 c 0.036621,-0.1556396 0.064087,-0.2563476 0.100708,-0.3936767 0.054932,-0.2105713 0.2655029,-0.5218506 0.4852295,-0.7415772 0.1190186,-0.1190185 0.3753662,-0.2929687 0.6958008,-0.2929687 0.3845218,0 0.3845218,0.302124 0.3845218,0.4119873 0,0.3570557 -0.256348,0.9979248 -0.3662113,1.2634277 -0.036621,0.100708 -0.073242,0.201416 -0.073242,0.302124 0,0.3021241 0.2746583,0.5218506 0.6042483,0.5218506 0.604248,0 0.897216,-0.7965088 0.897216,-0.9246826 0,-0.00916 0,-0.082397 -0.109863,-0.082397 -0.0824,0 -0.09155,0.027466 -0.128174,0.1373291 -0.09155,0.3204345 -0.338745,0.6683349 -0.640869,0.6683349 -0.119018,0 -0.164795,-0.091553 -0.164795,-0.2197265 0,-0.1190186 0.04578,-0.2197266 0.09155,-0.3387452 0.09155,-0.2380371 0.366211,-0.9155273 0.366211,-1.2451172 0,-0.4943847 -0.375366,-0.6958007 -0.8239745,-0.6958007 -0.3021241,0 -0.6866455,0.091553 -1.071167,0.5676269 z m 0,0" style="fill:#121619;fill-opacity:1;fill-rule:nonzero;stroke:none" />
      <path id="path113" d="m 13.443189,1.8040444 1.437378,-4.0008545 -1.437378,-3.9916992 -0.476074,0.1739502 1.437378,3.817749 -1.437378,3.8269043 z m 9.695435,-17.5186154 v -0.430298 c -0.98877,0 -1.895142,0.668335 -1.895142,1.602173 v 3.341675 h 0.512696 v -3.341675 c 0,-0.686646 0.650024,-1.171875 1.382446,-1.171875 z m -1.895142,3.934478 v 2.8472905 h 0.512696 v -2.8472905 z m 0,2.3437505 v 2.84729 h 0.512696 v -2.84729 z m 0,2.34375 v 2.84729 h 0.512696 v -2.84729 z m 0.512696,2.3414612 h -0.512696 v 1.2542724 c 0,0.6408692 -0.604248,1.0803223 -1.281738,1.1077881 h -0.09155 v 0.4669189 c 0.723267,0 1.373291,0.4486084 1.373291,1.1169434 v 1.24511719 h 0.512696 v -1.25427246 c 0,-0.60424803 -0.357056,-1.07116703 -0.888062,-1.34582523 0.531006,-0.2563476 0.888062,-0.7415771 0.888062,-1.3458252 z m -0.512696,4.61196895 V 2.7081277 h 0.512696 v -2.84729005 z m 0,2.34374995 v 2.8472901 h 0.512696 V 2.2045876 Z m 0,2.3414612 v 2.8472901 h 0.512696 V 4.5460488 Z m 1.895142,7.2875972 v -0.430297 c -0.732422,0 -1.382446,-0.48523 -1.382446,-1.171875 V 6.8897988 h -0.512696 v 3.3416752 c 0,0.942993 0.906372,1.602172 1.895142,1.602172 z m 0,0" style="fill:#121619;fill-opacity:1;fill-rule:nonzero;stroke:none" />
    </g>
    <g id="g113" aria-label="⎫&#10;⎪&#10;⎪&#10;⎪&#10;⎬&#10;⎪&#10;⎪&#10;⎪&#10;⎭&#10;∣f(x)⟩" transform="matrix(1.7066667,0,0,1.7066667,494.08645,56.197867)">
      <path id="path114" d="m 0.71380908,-4.5402234 v 0.4302979 c 0.73242192,0 1.37329102,0.4852295 1.37329102,1.171875 V 0.40362427 H 2.5997954 V -2.9380505 c 0,-0.9429932 -0.8972168,-1.6021729 -1.88598632,-1.6021729 z M 2.0871001,-0.17544678 V 2.6718433 h 0.5126953 v -2.84729008 z m 0,2.34146118 v 2.84729 h 0.5126953 v -2.84729 z m 0,2.34375 v 2.84729 h 0.5126953 v -2.84729 z m 0,7.5347896 h 0.5126953 v -1.254272 c 0,-0.640869 0.6134033,-1.0803223 1.2908936,-1.1077881 H 3.982242 V 9.215575 c -0.7232666,0 -1.3824463,-0.4486084 -1.3824463,-1.1169434 V 6.8535144 H 2.0871001 v 1.2542725 c 0,0.5950927 0.3662109,1.071167 0.8972168,1.3366699 C 2.453311,9.7099597 2.0871001,10.195189 2.0871001,10.799437 Z m 0,-0.581359 v 2.84729 h 0.5126953 v -2.84729 z m 0,2.34375 v 2.84729 h 0.5126953 v -2.84729 z m 0,2.34375 v 2.84729 h 0.5126953 v -2.84729 z m -1.37329102,6.855011 v 0.430297 c 0.98876952,0 1.88598632,-0.668335 1.88598632,-1.611328 V 18.492156 H 2.0871001 v 3.341675 c 0,0.686645 -0.6408691,1.171875 -1.37329102,1.171875 z M 9.4364958,5.5054004 V 13.314849 H 9.9400359 V 5.5054004 Z m 0,0" style="fill:#121619;fill-opacity:1;fill-rule:nonzero;stroke:none" />
      <path id="path115" d="m 14.194949,8.4259326 h 0.741577 c 0.15564,0 0.247193,0 0.247193,-0.1464844 0,-0.1098632 -0.100708,-0.1098632 -0.238037,-0.1098632 h -0.704956 c 0.128173,-0.7232666 0.201416,-1.171875 0.283813,-1.538086 0.03662,-0.1281738 0.05493,-0.2197265 0.17395,-0.3112793 0.109864,-0.091553 0.17395,-0.1098633 0.256348,-0.1098633 0.119018,0 0.247192,0.027466 0.357056,0.091553 -0.04578,0.018311 -0.09155,0.036621 -0.128174,0.064087 -0.137329,0.073242 -0.238037,0.2105713 -0.238037,0.3753662 0,0.1831055 0.146484,0.2929688 0.320434,0.2929688 0.228882,0 0.448609,-0.2014161 0.448609,-0.4760743 0,-0.3753662 -0.384522,-0.5676269 -0.769043,-0.5676269 -0.265503,0 -0.769043,0.1281738 -1.025391,0.8605957 -0.07324,0.1831055 -0.07324,0.201416 -0.283813,1.3183594 h -0.604249 c -0.155639,0 -0.256347,0 -0.256347,0.1464843 0,0.1098633 0.109863,0.1098633 0.247192,0.1098633 h 0.558472 l -0.567627,3.0944821 c -0.15564,0.805664 -0.274658,1.483154 -0.695801,1.483154 -0.02747,0 -0.192261,0 -0.3479,-0.09155 0.375366,-0.09155 0.375366,-0.421143 0.375366,-0.430298 0,-0.183106 -0.146484,-0.292969 -0.320435,-0.292969 -0.219726,0 -0.448608,0.183105 -0.448608,0.485229 0,0.32959 0.338745,0.558472 0.741577,0.558472 0.48523,0 0.823975,-0.512695 0.924683,-0.714111 0.283813,-0.521851 0.466919,-1.519776 0.485229,-1.602173 z m 0,0" style="fill:#121619;fill-opacity:1;fill-rule:nonzero;stroke:none" />
      <path id="path116" d="m 18.832095,12.957793 c -1.052856,-0.842285 -1.483154,-2.18811 -1.483154,-3.5522461 0,-1.3549805 0.430298,-2.709961 1.483154,-3.5430908 L 18.465884,5.5054004 c -1.153564,0.9246826 -1.620483,2.4169922 -1.620483,3.9001465 0,1.4923091 0.466919,2.9846191 1.620483,3.9093021 z m 0,0" style="fill:#121619;fill-opacity:1;fill-rule:nonzero;stroke:none" />
      <path id="path117" d="m 23.576816,8.4167773 c -0.347901,0.091553 -0.366211,0.4028321 -0.366211,0.4394532 0,0.1739502 0.137329,0.2929687 0.311279,0.2929687 0.17395,0 0.448608,-0.1373291 0.448608,-0.4852295 0,-0.4486084 -0.50354,-0.5767822 -0.796508,-0.5767822 -0.375367,0 -0.677491,0.2655029 -0.860596,0.5767822 -0.17395,-0.4302978 -0.595093,-0.5767822 -0.915527,-0.5767822 -0.869751,0 -1.354981,0.9979248 -1.354981,1.2176514 0,0.073242 0.05493,0.100708 0.119019,0.100708 0.09155,0 0.109863,-0.036621 0.137329,-0.1281739 0.183105,-0.5859375 0.659179,-0.9704589 1.071167,-0.9704589 0.311279,0 0.466919,0.2288818 0.466919,0.5126953 0,0.1556396 -0.100708,0.5310058 -0.164795,0.7781982 -0.05493,0.2380371 -0.228882,0.9429934 -0.265503,1.0986324 -0.119019,0.430298 -0.402832,0.759888 -0.759888,0.759888 -0.03662,0 -0.238037,0 -0.411987,-0.109863 0.366211,-0.0824 0.366211,-0.421143 0.366211,-0.430298 0,-0.183105 -0.137329,-0.292969 -0.311279,-0.292969 -0.219727,0 -0.448609,0.183106 -0.448609,0.48523 0,0.366211 0.393677,0.576782 0.796509,0.576782 0.421142,0 0.714111,-0.320435 0.860596,-0.576782 0.17395,0.393676 0.540161,0.576782 0.924682,0.576782 0.869751,0 1.345825,-0.997925 1.345825,-1.226807 0,-0.07324 -0.06409,-0.100708 -0.119018,-0.100708 -0.09155,0 -0.109863,0.05493 -0.137329,0.137329 -0.15564,0.531006 -0.613404,0.961304 -1.071167,0.961304 -0.265503,0 -0.457764,-0.17395 -0.457764,-0.50354 0,-0.164795 0.04578,-0.3479 0.164795,-0.796509 0.05493,-0.2380368 0.228882,-0.9338376 0.265503,-1.0894772 0.109863,-0.4119873 0.393677,-0.7598877 0.750732,-0.7598877 0.03662,0 0.247193,0 0.411988,0.1098632 z m 0,0" style="fill:#121619;fill-opacity:1;fill-rule:nonzero;stroke:none" />
      <path id="path118" d="m 25.46738,13.314849 c 1.153564,-0.924683 1.629638,-2.416993 1.629638,-3.9093021 0,-1.4831543 -0.476074,-2.9754639 -1.629638,-3.9001465 l -0.357056,0.3570557 c 1.052856,0.8422851 1.473999,2.1881103 1.473999,3.5430908 0,1.3641361 -0.430298,2.7191161 -1.483154,3.5522461 0.119018,0.119019 0.247192,0.238037 0.366211,0.357056 z m 3.591156,0.09155 1.437378,-4.0008541 -1.437378,-3.9916992 -0.476075,0.1739502 1.437378,3.817749 -1.437378,3.8269041 z m 0,0" style="fill:#121619;fill-opacity:1;fill-rule:nonzero;stroke:none" />
    </g>
    <g id="g118" aria-label="⎫&#10;⎪&#10;⎪&#10;⎪&#10;⎪&#10;⎪&#10;⎬&#10;⎪&#10;⎪&#10;⎪&#10;⎪&#10;⎪&#10;⎭&#10;∣0&#10;k&#10;⟩" transform="matrix(1.7066667,0,0,1.7066667,494.08645,115.81173)">
      <path id="path119" d="m 0.71380908,-4.5405664 v 0.4302978 c 0.73242192,0 1.37329102,0.4852295 1.37329102,1.171875 V 0.40328125 H 2.5997954 V -2.9383936 c 0,-0.9429931 -0.8972168,-1.6021728 -1.88598632,-1.6021728 z M 2.0871001,-0.17807861 V 2.6692114 h 0.5126953 v -2.84729001 z m 0,2.34375001 v 2.84729 h 0.5126953 v -2.84729 z m 0,2.34375 v 2.84729 h 0.5126953 v -2.84729 z m 0,2.34375 v 2.84729 h 0.5126953 v -2.84729 z m 0,2.3414612 V 12.041923 H 2.5997954 V 9.1946326 Z m 0,7.5347904 H 2.5997954 V 15.47515 c 0,-0.640869 0.6134033,-1.080322 1.2908936,-1.107788 h 0.091553 v -0.466919 c -0.7232666,0 -1.3824463,-0.448608 -1.3824463,-1.116943 V 11.538383 H 2.0871001 v 1.254272 c 0,0.595093 0.3662109,1.071167 0.8972168,1.33667 -0.5310059,0.265503 -0.8972168,0.750732 -0.8972168,1.35498 z m 0,-0.579071 v 2.84729 h 0.5126953 v -2.84729 z m 0,2.341461 v 2.84729 h 0.5126953 v -2.84729 z m 0,2.34375 v 2.84729 h 0.5126953 v -2.84729 z m 0,2.34375 v 2.84729 h 0.5126953 v -2.84729 z m 0,2.34375 v 2.84729 h 0.5126953 v -2.84729 z m -1.37329102,6.8573 v 0.430297 c 0.98876952,0 1.88598632,-0.668335 1.88598632,-1.611328 V 27.866813 H 2.0871001 v 3.341675 c 0,0.686645 -0.6408691,1.171875 -1.37329102,1.171875 z M 9.4364958,10.192557 v 7.809449 h 0.5035401 v -7.809449 z m 0,0" style="fill:#121619;fill-opacity:1;fill-rule:nonzero;stroke:none" />
      <path id="path120" d="m 15.037234,13.744803 c 0,-0.85144 -0.09155,-1.373291 -0.3479,-1.876831 -0.357056,-0.704956 -0.997925,-0.878906 -1.437378,-0.878906 -1.00708,0 -1.373291,0.750733 -1.483154,0.970459 -0.292969,0.585938 -0.302124,1.373291 -0.302124,1.785278 0,0.531006 0.01831,1.33667 0.402832,1.968384 0.366211,0.595093 0.961303,0.741577 1.382446,0.741577 0.384522,0 1.071167,-0.119018 1.464844,-0.906372 0.292969,-0.576782 0.320434,-1.281738 0.320434,-1.803589 z m -1.785278,2.490235 c -0.274658,0 -0.823975,-0.128174 -0.988769,-0.961304 -0.09155,-0.457764 -0.09155,-1.208496 -0.09155,-1.620483 0,-0.549317 0,-1.107788 0.09155,-1.547241 0.164794,-0.81482 0.787353,-0.897217 0.988769,-0.897217 0.265503,0 0.823975,0.137329 0.979614,0.860595 0.09155,0.439454 0.09155,1.034546 0.09155,1.583863 0,0.466919 0,1.18103 -0.09155,1.629638 -0.164795,0.842286 -0.714111,0.952149 -0.979614,0.952149 z m 0,0" style="fill:#121619;fill-opacity:1;fill-rule:nonzero;stroke:none" />
      <path id="path121" d="m 17.358096,8.1715308 c 0,-0.018311 0.01831,-0.054932 0.01831,-0.082397 0,-0.100708 -0.119019,-0.091553 -0.192261,-0.091553 l -0.668335,0.054932 c -0.100708,0.00916 -0.183105,0.018311 -0.183105,0.1556397 0,0.091553 0.0824,0.091553 0.17395,0.091553 0.17395,0 0.219726,0.018311 0.292969,0.045776 0,0.073242 0,0.082397 -0.02747,0.1739502 l -0.83313,3.3416743 c -0.02747,0.100708 -0.02747,0.128174 -0.02747,0.137329 0,0.15564 0.119019,0.210571 0.210571,0.210571 0.06409,0 0.17395,-0.02747 0.247193,-0.137329 0.04578,-0.0824 0.283813,-1.071167 0.320434,-1.263427 0.402832,0.02747 0.83313,0.119018 0.83313,0.476074 0,0.02747 0,0.05493 -0.01831,0.128174 -0.01831,0.0824 -0.01831,0.119018 -0.01831,0.17395 0,0.393677 0.338745,0.622558 0.67749,0.622558 0.576782,0 0.787354,-0.878906 0.787354,-0.924682 0,-0.0092 -0.0092,-0.0824 -0.109864,-0.0824 -0.0824,0 -0.100708,0.03662 -0.128173,0.137329 -0.06409,0.210572 -0.228882,0.668335 -0.531006,0.668335 -0.228882,0 -0.228882,-0.256347 -0.228882,-0.320434 0,-0.100708 0,-0.100708 0.02747,-0.219727 0,-0.0092 0.03662,-0.128174 0.03662,-0.201416 0,-0.457763 -0.521851,-0.604248 -0.979614,-0.650024 0.137329,-0.0824 0.265503,-0.183106 0.50354,-0.393677 0.302124,-0.2563471 0.613403,-0.5126948 0.942993,-0.5126948 0.07324,0 0.146484,0.018311 0.201416,0.073242 -0.210571,0.045776 -0.302124,0.2105713 -0.302124,0.3387448 0,0.192261 0.155639,0.228882 0.238037,0.228882 0.137329,0 0.3479,-0.09155 0.3479,-0.3936766 0,-0.2563477 -0.19226,-0.4486084 -0.485229,-0.4486084 -0.375366,0 -0.723267,0.2838135 -0.997925,0.52185 -0.311279,0.274658 -0.50354,0.430298 -0.723267,0.512696 z m 0,0" style="fill:#121619;fill-opacity:1;fill-rule:nonzero;stroke:none" />
      <path id="path122" d="m 21.152957,18.093558 1.437378,-4.000854 -1.437378,-3.991699 -0.476074,0.17395 1.437378,3.817749 -1.437378,3.826904 z m 0,0" style="fill:#121619;fill-opacity:1;fill-rule:nonzero;stroke:none" />
    </g>
    <g id="g122" aria-label="⎫&#10;⎪&#10;⎪&#10;⎪&#10;⎬&#10;⎪&#10;⎪&#10;⎪&#10;⎭&#10;∣0&#10;n&#10;⟩" transform="matrix(1.7066667,0,0,1.7066667,494.08645,191.65771)">
      <path id="path123" d="m 0.71380908,-4.5418691 v 0.4302978 c 0.73242192,0 1.37329102,0.4852295 1.37329102,1.171875 V 0.40197852 H 2.5997954 V -2.9396963 c 0,-0.9429932 -0.8972168,-1.6021728 -1.88598632,-1.6021728 z M 2.0871001,-0.17709253 V 2.6701975 h 0.5126953 v -2.84729003 z m 0,2.34375003 v 2.84729 h 0.5126953 v -2.84729 z m 0,2.34375 v 2.84729 h 0.5126953 v -2.84729 z m 0,7.5325015 h 0.5126953 v -1.254273 c 0,-0.640869 0.6134033,-1.080322 1.2908936,-1.1077879 H 3.982242 V 9.2139292 c -0.7232666,0 -1.3824463,-0.4486084 -1.3824463,-1.1169434 V 6.8518687 H 2.0871001 v 1.2542724 c 0,0.5950928 0.3662109,1.071167 0.8972168,1.3366699 -0.5310059,0.265503 -0.8972168,0.750732 -0.8972168,1.354981 z m 0,-0.579071 v 2.84729 h 0.5126953 v -2.84729 z m 0,2.34375 v 2.84729 h 0.5126953 v -2.84729 z m 0,2.341461 v 2.84729 h 0.5126953 v -2.84729 z m -1.37329102,6.8573 v 0.430297 c 0.98876952,0 1.88598632,-0.668334 1.88598632,-1.611328 V 18.492799 H 2.0871001 v 3.341675 c 0,0.686645 -0.6408691,1.171875 -1.37329102,1.171875 z M 9.4364958,5.5060435 V 13.315492 H 9.9400359 V 5.5060435 Z m 0,0" style="fill:#121619;fill-opacity:1;fill-rule:nonzero;stroke:none" />
      <path id="path124" d="m 15.037234,9.0582896 c 0,-0.8514405 -0.09155,-1.3732911 -0.3479,-1.8768311 -0.357056,-0.7049561 -0.997925,-0.8789063 -1.437378,-0.8789063 -1.00708,0 -1.373291,0.7507325 -1.483154,0.970459 -0.292969,0.5859375 -0.302124,1.373291 -0.302124,1.7852784 0,0.5310058 0.01831,1.3366694 0.402832,1.9683834 0.366211,0.595093 0.961303,0.741577 1.382446,0.741577 0.384522,0 1.071167,-0.119018 1.464844,-0.906372 0.292969,-0.576782 0.320434,-1.2817379 0.320434,-1.8035884 z m -1.785278,2.4902344 c -0.274658,0 -0.823975,-0.128174 -0.988769,-0.961304 -0.09155,-0.457763 -0.09155,-1.2084959 -0.09155,-1.6204832 0,-0.5493164 0,-1.1077881 0.09155,-1.5472412 0.164794,-0.8148193 0.787353,-0.8972168 0.988769,-0.8972168 0.265503,0 0.823975,0.1373291 0.979614,0.8605957 0.09155,0.4394531 0.09155,1.0345459 0.09155,1.5838623 0,0.466919 0,1.1810302 -0.09155,1.6296382 -0.164795,0.842286 -0.714111,0.952149 -0.979614,0.952149 z m 0,0" style="fill:#121619;fill-opacity:1;fill-rule:nonzero;stroke:none" />
      <path id="path125" d="M 17.120059,5.3893137 C 17.092593,4.93155 16.671451,4.8216868 16.451724,4.8216868 c -0.228882,0 -0.384521,0.1373291 -0.494385,0.3295898 -0.146484,0.2471924 -0.219726,0.5584717 -0.219726,0.5859375 0,0.064087 0.05493,0.091553 0.109863,0.091553 0.09155,0 0.100708,-0.045776 0.128174,-0.1373291 0.119018,-0.4852294 0.265503,-0.6683349 0.457764,-0.6683349 0.210571,0 0.210571,0.2380371 0.210571,0.302124 0,0.091553 -0.05493,0.3295899 -0.100708,0.50354 -0.04578,0.1556397 -0.100708,0.4028321 -0.128174,0.5401612 -0.04578,0.1464844 -0.0824,0.302124 -0.119019,0.4486084 -0.04578,0.1647949 -0.119018,0.4669189 -0.119018,0.50354 0,0.1281738 0.100708,0.201416 0.210571,0.201416 0.109863,0 0.210571,-0.073242 0.256348,-0.1647949 0.0092,-0.036621 0.06409,-0.2471924 0.100708,-0.3662109 l 0.128174,-0.5401612 c 0.03662,-0.1556396 0.06409,-0.2563476 0.100708,-0.3936767 0.05493,-0.2105713 0.265503,-0.5218506 0.485229,-0.7415772 0.119019,-0.1190185 0.375366,-0.2929687 0.695801,-0.2929687 0.384521,0 0.384521,0.302124 0.384521,0.4119873 0,0.3570557 -0.256347,0.9979248 -0.36621,1.2634277 -0.03662,0.100708 -0.07324,0.201416 -0.07324,0.302124 0,0.3021241 0.274659,0.5218506 0.604248,0.5218506 0.604248,0 0.897217,-0.7965088 0.897217,-0.9246826 0,-0.00916 0,-0.082397 -0.109863,-0.082397 -0.0824,0 -0.09155,0.027466 -0.128174,0.1373291 -0.09155,0.3204345 -0.338745,0.6683349 -0.640869,0.6683349 -0.119019,0 -0.164795,-0.091553 -0.164795,-0.2197265 0,-0.1190186 0.04578,-0.2197266 0.09155,-0.3387452 0.09155,-0.2380371 0.366211,-0.9155273 0.366211,-1.2451172 0,-0.4943847 -0.375367,-0.6958007 -0.823975,-0.6958007 -0.302124,0 -0.686645,0.091553 -1.071167,0.5676262 z m 0,0" style="fill:#121619;fill-opacity:1;fill-rule:nonzero;stroke:none" />
      <path id="path126" d="m 21.679385,13.407044 1.437378,-4.0008541 -1.437378,-3.9916992 -0.476074,0.1739502 1.437378,3.817749 -1.437378,3.8269041 z m 0,0" style="fill:#121619;fill-opacity:1;fill-rule:nonzero;stroke:none" />
    </g>
    <path id="path127" d="m -18.60228,49.43028 3.18808,3.18808 m -3.18808,0 3.18808,-3.18808" style="fill:none;stroke:#78a9ff;stroke-width:0.69739;stroke-linecap:butt;stroke-linejoin:miter;stroke-miterlimit:10;stroke-dasharray:none;stroke-opacity:1" transform="matrix(1.7066667,0,0,-1.7066667,293.65893,139.99008)" />
    <path id="path128" d="m -18.60228,-29.94084 3.18808,3.18808 m -3.18808,0 3.18808,-3.18808" style="fill:none;stroke:#78a9ff;stroke-width:0.69739;stroke-linecap:butt;stroke-linejoin:miter;stroke-miterlimit:10;stroke-dasharray:none;stroke-opacity:1" transform="matrix(1.7066667,0,0,-1.7066667,293.65893,139.99008)" />
    <path id="path129" d="m -14.34999,46.59544 3.18806,3.18807 m -3.18806,0 3.18806,-3.18807" style="fill:none;stroke:#78a9ff;stroke-width:0.69739;stroke-linecap:butt;stroke-linejoin:miter;stroke-miterlimit:10;stroke-dasharray:none;stroke-opacity:1" transform="matrix(1.7066667,0,0,-1.7066667,293.65893,139.99008)" />
    <path id="path130" d="m -14.34999,-32.77568 3.18806,3.18806 m -3.18806,0 3.18806,-3.18806" style="fill:none;stroke:#78a9ff;stroke-width:0.69739;stroke-linecap:butt;stroke-linejoin:miter;stroke-miterlimit:10;stroke-dasharray:none;stroke-opacity:1" transform="matrix(1.7066667,0,0,-1.7066667,293.65893,139.99008)" />
    <path id="path131" d="m -10.09814,43.76102 3.18806,3.18806 m -3.18806,0 3.18806,-3.18806" style="fill:none;stroke:#78a9ff;stroke-width:0.69739;stroke-linecap:butt;stroke-linejoin:miter;stroke-miterlimit:10;stroke-dasharray:none;stroke-opacity:1" transform="matrix(1.7066667,0,0,-1.7066667,293.65893,139.99008)" />
    <path id="path132" d="m -10.09814,-35.6101 3.18806,3.18806 m -3.18806,0 3.18806,-3.18806" style="fill:none;stroke:#78a9ff;stroke-width:0.69739;stroke-linecap:butt;stroke-linejoin:miter;stroke-miterlimit:10;stroke-dasharray:none;stroke-opacity:1" transform="matrix(1.7066667,0,0,-1.7066667,293.65893,139.99008)" />
    <path id="path133" d="m -5.84587,40.92616 3.18807,3.18807 m -3.18807,0 3.18807,-3.18807" style="fill:none;stroke:#78a9ff;stroke-width:0.69739;stroke-linecap:butt;stroke-linejoin:miter;stroke-miterlimit:10;stroke-dasharray:none;stroke-opacity:1" transform="matrix(1.7066667,0,0,-1.7066667,293.65893,139.99008)" />
    <path id="path134" d="m -5.84587,-38.44496 3.18807,3.18806 m -3.18807,0 3.18807,-3.18806" style="fill:none;stroke:#78a9ff;stroke-width:0.69739;stroke-linecap:butt;stroke-linejoin:miter;stroke-miterlimit:10;stroke-dasharray:none;stroke-opacity:1" transform="matrix(1.7066667,0,0,-1.7066667,293.65893,139.99008)" />
    <path id="path135" d="m -1.59402,38.09131 3.18804,3.18808 m -3.18804,0 3.18804,-3.18808" style="fill:none;stroke:#78a9ff;stroke-width:0.69739;stroke-linecap:butt;stroke-linejoin:miter;stroke-miterlimit:10;stroke-dasharray:none;stroke-opacity:1" transform="matrix(1.7066667,0,0,-1.7066667,293.65893,139.99008)" />
    <path id="path136" d="m -1.59402,-41.27939 3.18804,3.18808 m -3.18804,0 3.18804,-3.18808" style="fill:none;stroke:#78a9ff;stroke-width:0.69739;stroke-linecap:butt;stroke-linejoin:miter;stroke-miterlimit:10;stroke-dasharray:none;stroke-opacity:1" transform="matrix(1.7066667,0,0,-1.7066667,293.65893,139.99008)" />
    <path id="path137" d="m 2.6578,35.2569 3.18807,3.18806 m -3.18807,0 3.18807,-3.18806" style="fill:none;stroke:#78a9ff;stroke-width:0.69739;stroke-linecap:butt;stroke-linejoin:miter;stroke-miterlimit:10;stroke-dasharray:none;stroke-opacity:1" transform="matrix(1.7066667,0,0,-1.7066667,293.65893,139.99008)" />
    <path id="path138" d="m 2.6578,-44.11423 3.18807,3.18807 m -3.18807,0 3.18807,-3.18807" style="fill:none;stroke:#78a9ff;stroke-width:0.69739;stroke-linecap:butt;stroke-linejoin:miter;stroke-miterlimit:10;stroke-dasharray:none;stroke-opacity:1" transform="matrix(1.7066667,0,0,-1.7066667,293.65893,139.99008)" />
    <path id="path139" d="m 6.91008,32.42204 3.18806,3.18806 m -3.18806,0 3.18806,-3.18806" style="fill:none;stroke:#78a9ff;stroke-width:0.69739;stroke-linecap:butt;stroke-linejoin:miter;stroke-miterlimit:10;stroke-dasharray:none;stroke-opacity:1" transform="matrix(1.7066667,0,0,-1.7066667,293.65893,139.99008)" />
    <path id="path140" d="m 6.91008,-46.94908 3.18806,3.18806 m -3.18806,0 3.18806,-3.18806" style="fill:none;stroke:#78a9ff;stroke-width:0.69739;stroke-linecap:butt;stroke-linejoin:miter;stroke-miterlimit:10;stroke-dasharray:none;stroke-opacity:1" transform="matrix(1.7066667,0,0,-1.7066667,293.65893,139.99008)" />
    <path id="path141" d="m 11.16193,29.58762 3.18806,3.18806 m -3.18806,0 3.18806,-3.18806" style="fill:none;stroke:#78a9ff;stroke-width:0.69739;stroke-linecap:butt;stroke-linejoin:miter;stroke-miterlimit:10;stroke-dasharray:none;stroke-opacity:1" transform="matrix(1.7066667,0,0,-1.7066667,293.65893,139.99008)" />
    <path id="path142" d="m 11.16193,-49.78351 3.18806,3.18807 m -3.18806,0 3.18806,-3.18807" style="fill:none;stroke:#78a9ff;stroke-width:0.69739;stroke-linecap:butt;stroke-linejoin:miter;stroke-miterlimit:10;stroke-dasharray:none;stroke-opacity:1" transform="matrix(1.7066667,0,0,-1.7066667,293.65893,139.99008)" />
    <path id="path143" d="m 15.4142,26.75276 3.18808,3.18808 m -3.18808,0 3.18808,-3.18808" style="fill:none;stroke:#78a9ff;stroke-width:0.69739;stroke-linecap:butt;stroke-linejoin:miter;stroke-miterlimit:10;stroke-dasharray:none;stroke-opacity:1" transform="matrix(1.7066667,0,0,-1.7066667,293.65893,139.99008)" />
    <path id="path144" d="m 15.4142,-52.61836 3.18808,3.18808 m -3.18808,0 3.18808,-3.18808" style="fill:none;stroke:#78a9ff;stroke-width:0.69739;stroke-linecap:butt;stroke-linejoin:miter;stroke-miterlimit:10;stroke-dasharray:none;stroke-opacity:1" transform="matrix(1.7066667,0,0,-1.7066667,293.65893,139.99008)" />
    <path id="path145" d="M -17.00824,51.02432 V -28.3468" style="fill:none;stroke:#78a9ff;stroke-width:0.79701;stroke-linecap:butt;stroke-linejoin:miter;stroke-miterlimit:10;stroke-dasharray:none;stroke-opacity:1" transform="matrix(1.7066667,0,0,-1.7066667,293.65893,139.99008)" />
    <path id="path146" d="M -12.75595,48.18947 V -31.18166" style="fill:none;stroke:#78a9ff;stroke-width:0.79701;stroke-linecap:butt;stroke-linejoin:miter;stroke-miterlimit:10;stroke-dasharray:none;stroke-opacity:1" transform="matrix(1.7066667,0,0,-1.7066667,293.65893,139.99008)" />
    <path id="path147" d="M -8.50412,45.35506 V -34.01608" style="fill:none;stroke:#78a9ff;stroke-width:0.79701;stroke-linecap:butt;stroke-linejoin:miter;stroke-miterlimit:10;stroke-dasharray:none;stroke-opacity:1" transform="matrix(1.7066667,0,0,-1.7066667,293.65893,139.99008)" />
    <path id="path148" d="M -4.25183,42.5202 V -36.85092" style="fill:none;stroke:#78a9ff;stroke-width:0.79701;stroke-linecap:butt;stroke-linejoin:miter;stroke-miterlimit:10;stroke-dasharray:none;stroke-opacity:1" transform="matrix(1.7066667,0,0,-1.7066667,293.65893,139.99008)" />
    <path id="path149" d="m 0,39.68535 v -79.3707" style="fill:none;stroke:#78a9ff;stroke-width:0.79701;stroke-linecap:butt;stroke-linejoin:miter;stroke-miterlimit:10;stroke-dasharray:none;stroke-opacity:1" transform="matrix(1.7066667,0,0,-1.7066667,293.65893,139.99008)" />
    <path id="path150" d="M 4.25183,36.85092 V -42.5202" style="fill:none;stroke:#78a9ff;stroke-width:0.79701;stroke-linecap:butt;stroke-linejoin:miter;stroke-miterlimit:10;stroke-dasharray:none;stroke-opacity:1" transform="matrix(1.7066667,0,0,-1.7066667,293.65893,139.99008)" />
    <path id="path151" d="M 8.50412,34.01608 V -45.35506" style="fill:none;stroke:#78a9ff;stroke-width:0.79701;stroke-linecap:butt;stroke-linejoin:miter;stroke-miterlimit:10;stroke-dasharray:none;stroke-opacity:1" transform="matrix(1.7066667,0,0,-1.7066667,293.65893,139.99008)" />
    <path id="path152" d="M 12.75595,31.18166 V -48.18947" style="fill:none;stroke:#78a9ff;stroke-width:0.79701;stroke-linecap:butt;stroke-linejoin:miter;stroke-miterlimit:10;stroke-dasharray:none;stroke-opacity:1" transform="matrix(1.7066667,0,0,-1.7066667,293.65893,139.99008)" />
    <path id="path153" d="M 17.00824,28.3468 V -51.02432" style="fill:none;stroke:#78a9ff;stroke-width:0.79701;stroke-linecap:butt;stroke-linejoin:miter;stroke-miterlimit:10;stroke-dasharray:none;stroke-opacity:1" transform="matrix(1.7066667,0,0,-1.7066667,293.65893,139.99008)" />
  </g>
</svg>