<?xml version="1.0" encoding="UTF-8"?><!DOCTYPE svg  PUBLIC '-//W3C//DTD SVG 1.1//EN'  'http://www.w3.org/Graphics/SVG/1.1/DTD/svg11.dtd'><svg width="601.19pt" height="218.36pt" version="1.1" viewBox="0 0 601.19 218.36" xmlns="http://www.w3.org/2000/svg" xmlns:xlink="http://www.w3.org/1999/xlink"><defs><style type="text/css">*{stroke-linejoin: round; stroke-linecap: butt}</style></defs><path d="m0 218.36h601.19v-218.36h-601.19z" fill="#ffffff"/><path d="m74.828 44.283h514.53" clip-path="url(#17eb0eabf49)" fill="none" stroke="#000000" stroke-linecap="square" stroke-width="2"/><path d="m74.828 90.637h514.53" clip-path="url(#17eb0eabf49)" fill="none" stroke="#000000" stroke-linecap="square" stroke-width="2"/><path d="m74.828 136.99h514.53" clip-path="url(#17eb0eabf49)" fill="none" stroke="#000000" stroke-linecap="square" stroke-width="2"/><path d="m84.099 187.98 4.6354-9.2708" clip-path="url(#17eb0eabf49)" fill="none" stroke="#778899" stroke-linecap="square" stroke-width="1.5"/><path d="m74.828 181.84h514.53" clip-path="url(#17eb0eabf49)" fill="none" stroke="#778899" stroke-linecap="square" stroke-width="2"/><path d="m74.828 184.85h514.53" clip-path="url(#17eb0eabf49)" fill="none" stroke="#778899" stroke-linecap="square" stroke-width="2"/><path d="m140.19 172.8h12.052l-6.026 8.6914z" clip-path="url(#17eb0eabf49)" fill="#778899"/><path d="m186.54 172.8h12.052l-6.026 8.6914z" clip-path="url(#17eb0eabf49)" fill="#778899"/><path d="m557.37 172.8h12.052l-6.026 8.6914z" clip-path="url(#17eb0eabf49)" fill="#778899"/><path d="m227.33 156.69h307.56q4.6354 0 4.6354-4.6354v-30.13q0-4.6354-4.6354-4.6354h-307.56q-4.6354 0-4.6354 4.6354v30.13q0 4.6354 4.6354 4.6354z" clip-path="url(#17eb0eabf49)" fill="none" stroke="#fa4d56" stroke-width="3"/><g clip-path="url(#17eb0eabf49)"><g transform="translate(225.48 131.31) scale(.13 -.13)"><defs><path id="DejaVuSans-53" transform="scale(.015625)" d="m3425 4513v-616q-359 172-678 256-319 85-616 85-515 0-795-200t-280-569q0-310 186-468 186-157 705-254l381-78q706-135 1042-474t336-907q0-679-455-1029-454-350-1332-350-331 0-705 75-373 75-773 222v650q384-215 753-325 369-109 725-109 540 0 834 212 294 213 294 607 0 343-211 537t-692 291l-385 75q-706 140-1022 440-315 300-315 835 0 619 436 975t1201 356q329 0 669-60 341-59 697-177z"/><path id="DejaVuSans-77" transform="scale(.015625)" d="m269 3500h575l719-2731 715 2731h678l719-2731 716 2731h575l-916-3500h-678l-753 2869-756-2869h-679l-915 3500z"/><path id="DejaVuSans-69" transform="scale(.015625)" d="m603 3500h575v-3500h-575v3500zm0 1363h575v-729h-575v729z"/><path id="DejaVuSans-74" transform="scale(.015625)" d="m1172 4494v-994h1184v-447h-1184v-1900q0-428 117-550t477-122h590v-481h-590q-666 0-919 248-253 249-253 905v1900h-422v447h422v994h578z"/><path id="DejaVuSans-63" transform="scale(.015625)" d="m3122 3366v-538q-244 135-489 202t-495 67q-560 0-870-355-309-354-309-995t309-996q310-354 870-354 250 0 495 67t489 202v-532q-241-112-499-168-257-57-548-57-791 0-1257 497-465 497-465 1341 0 856 470 1346 471 491 1290 491 265 0 518-55 253-54 491-163z"/><path id="DejaVuSans-68" transform="scale(.015625)" d="m3513 2113v-2113h-575v2094q0 497-194 743-194 247-581 247-466 0-735-297-269-296-269-809v-1978h-578v4863h578v-1907q207 316 486 472 280 156 646 156 603 0 912-373 310-373 310-1098z"/></defs><use xlink:href="#DejaVuSans-53"/><use transform="translate(63.477)" xlink:href="#DejaVuSans-77"/><use transform="translate(145.26)" xlink:href="#DejaVuSans-69"/><use transform="translate(173.05)" xlink:href="#DejaVuSans-74"/><use transform="translate(212.26)" xlink:href="#DejaVuSans-63"/><use transform="translate(267.24)" xlink:href="#DejaVuSans-68"/></g></g><path d="m271.37 155.76v-38.706" clip-path="url(#17eb0eabf49)" fill="none" stroke="#fa4d56" stroke-linecap="square" stroke-width="3"/><g clip-path="url(#17eb0eabf49)"><g transform="translate(276 131.31) scale(.13 -.13)"><defs><path id="DejaVuSans-43" transform="scale(.015625)" d="m4122 4306v-665q-319 297-680 443-361 147-767 147-800 0-1225-489t-425-1414q0-922 425-1411t1225-489q406 0 767 147t680 444v-660q-331-225-702-338-370-112-782-112-1060 0-1670 648-609 649-609 1771 0 1125 609 1773 610 649 1670 649 418 0 788-111 371-111 696-333z"/><path id="DejaVuSans-61" transform="scale(.015625)" d="m2194 1759q-697 0-966-159t-269-544q0-306 202-486 202-179 548-179 479 0 768 339t289 901v128h-572zm1147 238v-1997h-575v531q-197-318-491-470t-719-152q-537 0-855 302-317 302-317 808 0 590 395 890 396 300 1180 300h807v57q0 397-261 614t-733 217q-300 0-585-72-284-72-546-216v532q315 122 612 182 297 61 578 61 760 0 1135-394 375-393 375-1193z"/><path id="DejaVuSans-73" transform="scale(.015625)" d="m2834 3397v-544q-243 125-506 187-262 63-544 63-428 0-642-131t-214-394q0-200 153-314t616-217l197-44q612-131 870-370t258-667q0-488-386-773-386-284-1061-284-281 0-586 55t-642 164v594q319-166 628-249 309-82 613-82 406 0 624 139 219 139 219 392 0 234-158 359-157 125-692 241l-200 47q-534 112-772 345-237 233-237 639 0 494 350 762 350 269 994 269 318 0 599-47 282-46 519-140z"/><path id="DejaVuSans-65" transform="scale(.015625)" d="m3597 1894v-281h-2644q38-594 358-905t892-311q331 0 642 81t618 244v-544q-310-131-635-200t-659-69q-838 0-1327 487-489 488-489 1320 0 859 464 1363 464 505 1252 505 706 0 1117-455 411-454 411-1235zm-575 169q-6 471-264 752-258 282-683 282-481 0-770-272t-333-766l2050 4z"/></defs><use xlink:href="#DejaVuSans-43"/><use transform="translate(69.824)" xlink:href="#DejaVuSans-61"/><use transform="translate(131.1)" xlink:href="#DejaVuSans-73"/><use transform="translate(183.2)" xlink:href="#DejaVuSans-65"/></g></g><g clip-path="url(#17eb0eabf49)"><g transform="translate(276 148.47) scale(.08 -.08)"><defs><path id="DejaVuSans-30" transform="scale(.015625)" d="m2034 4250q-487 0-733-480-245-479-245-1442 0-959 245-1439 246-480 733-480 491 0 736 480 246 480 246 1439 0 963-246 1442-245 480-736 480zm0 500q785 0 1199-621 414-620 414-1801 0-1178-414-1799-414-620-1199-620-784 0-1198 620-414 621-414 1799 0 1181 414 1801 414 621 1198 621z"/><path id="DejaVuSans-2c" transform="scale(.015625)" d="m750 794h659v-538l-512-1e3h-403l256 1e3v538z"/><path id="DejaVuSans-33" transform="scale(.015625)" d="m2597 2516q453-97 707-404 255-306 255-756 0-690-475-1069-475-378-1350-378-293 0-604 58t-642 174v609q262-153 574-231 313-78 654-78 593 0 904 234t311 681q0 413-289 645-289 233-804 233h-544v519h569q465 0 712 186t247 536q0 359-255 551-254 193-729 193-260 0-557-57-297-56-653-174v562q360 100 674 150t592 50q719 0 1137-327 419-326 419-882 0-388-222-655t-631-370z"/></defs><use xlink:href="#DejaVuSans-30"/><use transform="translate(63.623)" xlink:href="#DejaVuSans-2c"/><use transform="translate(95.41)" xlink:href="#DejaVuSans-20"/><use transform="translate(127.2)" xlink:href="#DejaVuSans-33"/></g></g><path d="m366.16 155.76v-38.706" clip-path="url(#17eb0eabf49)" fill="none" stroke="#fa4d56" stroke-linecap="square" stroke-width="3"/><g clip-path="url(#17eb0eabf49)"><g transform="translate(370.8 131.31) scale(.13 -.13)"><use xlink:href="#DejaVuSans-43"/><use transform="translate(69.824)" xlink:href="#DejaVuSans-61"/><use transform="translate(131.1)" xlink:href="#DejaVuSans-73"/><use transform="translate(183.2)" xlink:href="#DejaVuSans-65"/></g></g><g clip-path="url(#17eb0eabf49)"><g transform="translate(370.8 148.47) scale(.08 -.08)"><defs><path id="DejaVuSans-31" transform="scale(.015625)" d="m794 531h1031v3560l-1122-225v575l1116 225h631v-4135h1031v-531h-2687v531z"/></defs><use xlink:href="#DejaVuSans-31"/></g></g><path d="m460.96 155.76v-38.706" clip-path="url(#17eb0eabf49)" fill="none" stroke="#fa4d56" stroke-linecap="square" stroke-width="3"/><g clip-path="url(#17eb0eabf49)"><g transform="translate(465.59 131.31) scale(.13 -.13)"><use xlink:href="#DejaVuSans-43"/><use transform="translate(69.824)" xlink:href="#DejaVuSans-61"/><use transform="translate(131.1)" xlink:href="#DejaVuSans-73"/><use transform="translate(183.2)" xlink:href="#DejaVuSans-65"/></g></g><g clip-path="url(#17eb0eabf49)"><g transform="translate(465.59 148.47) scale(.08 -.08)"><defs><path id="DejaVuSans-64" transform="scale(.015625)" d="m2906 2969v1894h575v-4863h-575v525q-181-312-458-464-276-152-664-152-634 0-1033 506-398 507-398 1332t398 1331q399 506 1033 506 388 0 664-152 277-151 458-463zm-1959-1222q0-634 261-995t717-361 718 361q263 361 263 995t-263 995q-262 361-718 361t-717-361-261-995z"/><path id="DejaVuSans-66" transform="scale(.015625)" d="m2375 4863v-479h-550q-309 0-430-125-120-125-120-450v-309h947v-447h-947v-3053h-578v3053h-550v447h550v244q0 584 272 851 272 268 862 268h544z"/><path id="DejaVuSans-75" transform="scale(.015625)" d="m544 1381v2119h575v-2097q0-497 193-746 194-248 582-248 465 0 735 297 271 297 271 810v1984h575v-3500h-575v538q-209-319-486-474-276-155-642-155-603 0-916 375-312 375-312 1097zm1447 2203z"/><path id="DejaVuSans-6c" transform="scale(.015625)" d="m603 4863h575v-4863h-575v4863z"/></defs><use xlink:href="#DejaVuSans-64"/><use transform="translate(63.477)" xlink:href="#DejaVuSans-65"/><use transform="translate(125)" xlink:href="#DejaVuSans-66"/><use transform="translate(160.21)" xlink:href="#DejaVuSans-61"/><use transform="translate(221.48)" xlink:href="#DejaVuSans-75"/><use transform="translate(284.86)" xlink:href="#DejaVuSans-6c"/><use transform="translate(312.65)" xlink:href="#DejaVuSans-74"/></g></g><path d="m-623.96 388.46q4.6354 0 4.6354-4.6354 0-34.766-4.6354-34.766-312.19 0-312.19 4.6354 0 34.766 4.6354 34.766" clip-path="url(#17eb0eabf49)" fill="none" stroke="#fa4d56" stroke-width="3"/><g clip-path="url(#17eb0eabf49)"><g transform="translate(-933.37 363.08) scale(.13 -.13)"><use xlink:href="#DejaVuSans-53"/><use transform="translate(63.477)" xlink:href="#DejaVuSans-77"/><use transform="translate(145.26)" xlink:href="#DejaVuSans-69"/><use transform="translate(173.05)" xlink:href="#DejaVuSans-74"/><use transform="translate(212.26)" xlink:href="#DejaVuSans-63"/><use transform="translate(267.24)" xlink:href="#DejaVuSans-68"/></g></g><g clip-path="url(#17eb0eabf49)"><g transform="translate(-882.85 363.08) scale(.13 -.13)"><use xlink:href="#DejaVuSans-43"/><use transform="translate(69.824)" xlink:href="#DejaVuSans-61"/><use transform="translate(131.1)" xlink:href="#DejaVuSans-73"/><use transform="translate(183.2)" xlink:href="#DejaVuSans-65"/></g></g><g clip-path="url(#17eb0eabf49)"><g transform="translate(-882.85 380.24) scale(.08 -.08)"><use xlink:href="#DejaVuSans-30"/><use transform="translate(63.623)" xlink:href="#DejaVuSans-2c"/><use transform="translate(95.41)" xlink:href="#DejaVuSans-20"/><use transform="translate(127.2)" xlink:href="#DejaVuSans-33"/></g></g><g clip-path="url(#17eb0eabf49)"><g transform="translate(-788.05 363.08) scale(.13 -.13)"><use xlink:href="#DejaVuSans-43"/><use transform="translate(69.824)" xlink:href="#DejaVuSans-61"/><use transform="translate(131.1)" xlink:href="#DejaVuSans-73"/><use transform="translate(183.2)" xlink:href="#DejaVuSans-65"/></g></g><g clip-path="url(#17eb0eabf49)"><g transform="translate(-788.05 380.24) scale(.08 -.08)"><use xlink:href="#DejaVuSans-31"/></g></g><g clip-path="url(#17eb0eabf49)"><g transform="translate(-693.26 363.08) scale(.13 -.13)"><use xlink:href="#DejaVuSans-43"/><use transform="translate(69.824)" xlink:href="#DejaVuSans-61"/><use transform="translate(131.1)" xlink:href="#DejaVuSans-73"/><use transform="translate(183.2)" xlink:href="#DejaVuSans-65"/></g></g><g clip-path="url(#17eb0eabf49)"><g transform="translate(-693.26 380.24) scale(.08 -.08)"><use xlink:href="#DejaVuSans-64"/><use transform="translate(63.477)" xlink:href="#DejaVuSans-65"/><use transform="translate(125)" xlink:href="#DejaVuSans-66"/><use transform="translate(160.21)" xlink:href="#DejaVuSans-61"/><use transform="translate(221.48)" xlink:href="#DejaVuSans-75"/><use transform="translate(284.86)" xlink:href="#DejaVuSans-6c"/><use transform="translate(312.65)" xlink:href="#DejaVuSans-74"/></g></g><path d="m70.193 21.106h-1158.8v231.77h1158.8z" clip-path="url(#17eb0eabf49)" fill="#ffffff" stroke="#ffffff" stroke-width="1.5"/><path d="m147.72 44.283v128.52" clip-path="url(#17eb0eabf49)" fill="none" stroke="#778899" stroke-linecap="square" stroke-width="2"/><path d="m144.71 44.283v128.52" clip-path="url(#17eb0eabf49)" fill="none" stroke="#778899" stroke-linecap="square" stroke-width="2"/><path d="m194.07 90.637v82.162" clip-path="url(#17eb0eabf49)" fill="none" stroke="#778899" stroke-linecap="square" stroke-width="2"/><path d="m191.06 90.637v82.162" clip-path="url(#17eb0eabf49)" fill="none" stroke="#778899" stroke-linecap="square" stroke-width="2"/><path d="m228.84 158.55v24.799" clip-path="url(#17eb0eabf49)" fill="none" stroke="#778899" stroke-linecap="square" stroke-width="2"/><path d="m225.83 158.55v24.799" clip-path="url(#17eb0eabf49)" fill="none" stroke="#778899" stroke-linecap="square" stroke-width="2"/><path d="m564.91 136.99v35.808" clip-path="url(#17eb0eabf49)" fill="none" stroke="#778899" stroke-linecap="square" stroke-width="2"/><path d="m561.89 136.99v35.808" clip-path="url(#17eb0eabf49)" fill="none" stroke="#778899" stroke-linecap="square" stroke-width="2"/><path d="m84.794 59.348h30.13v-30.13h-30.13z" clip-path="url(#17eb0eabf49)" fill="#fa4d56" stroke="#fa4d56" stroke-width="1.5"/><path d="m84.794 105.7h30.13v-30.13h-30.13z" clip-path="url(#17eb0eabf49)" fill="#fa4d56" stroke="#fa4d56" stroke-width="1.5"/><path d="m131.15 59.348h30.13v-30.13h-30.13z" clip-path="url(#17eb0eabf49)" fill="#a8a8a8" stroke="#a8a8a8" stroke-width="1.5"/><path d="m156.76 48.803c0-2.7958-1.1118-5.4799-3.0887-7.4568s-4.661-3.0887-7.4568-3.0887c-2.7958 0-5.4799 1.1118-7.4568 3.0887s-3.0887 4.661-3.0887 7.4568" clip-path="url(#17eb0eabf49)" fill="none" stroke="#000000" stroke-width="2"/><path d="m146.21 48.803 10.546-10.546" clip-path="url(#17eb0eabf49)" fill="none" stroke="#000000" stroke-linecap="square" stroke-width="2"/><path d="m177.5 105.7h30.13v-30.13h-30.13z" clip-path="url(#17eb0eabf49)" fill="#a8a8a8" stroke="#a8a8a8" stroke-width="1.5"/><path d="m203.11 95.157c0-2.7958-1.1118-5.4799-3.0887-7.4568s-4.661-3.0887-7.4568-3.0887-5.4799 1.1118-7.4568 3.0887-3.0887 4.661-3.0887 7.4568" clip-path="url(#17eb0eabf49)" fill="none" stroke="#000000" stroke-width="2"/><path d="m192.57 95.157 10.546-10.546" clip-path="url(#17eb0eabf49)" fill="none" stroke="#000000" stroke-linecap="square" stroke-width="2"/><path d="m227.33 187.86c1.1986 0 2.3482-0.4762 3.1958-1.3237 0.84753-0.84753 1.3237-1.9972 1.3237-3.1958 0-1.1986-0.4762-2.3482-1.3237-3.1958s-1.9972-1.3237-3.1958-1.3237c-1.1986 0-2.3482 0.4762-3.1958 1.3237-0.84753 0.84753-1.3237 1.9972-1.3237 3.1958 0 1.1986 0.4762 2.3482 1.3237 3.1958 0.84753 0.84753 1.9972 1.3237 3.1958 1.3237z" clip-path="url(#17eb0eabf49)" stroke="#000000" stroke-width="1.5"/><path d="m548.33 152.06h30.13v-30.13h-30.13z" clip-path="url(#17eb0eabf49)" fill="#a8a8a8" stroke="#a8a8a8" stroke-width="1.5"/><path d="m573.94 141.51c0-2.7958-1.1118-5.4799-3.0887-7.4568s-4.661-3.0887-7.4568-3.0887-5.4799 1.1118-7.4568 3.0887-3.0887 4.661-3.0887 7.4568" clip-path="url(#17eb0eabf49)" fill="none" stroke="#000000" stroke-width="2"/><path d="m563.4 141.51 10.546-10.546" clip-path="url(#17eb0eabf49)" fill="none" stroke="#000000" stroke-linecap="square" stroke-width="2"/><path d="m316.56 152.06h30.13v-30.13h-30.13z" clip-path="url(#17eb0eabf49)" fill="#33b1ff" stroke="#33b1ff" stroke-width="1.5"/><path d="m409.27 152.06h30.13v-30.13h-30.13z" clip-path="url(#17eb0eabf49)" fill="#9f1853" stroke="#9f1853" stroke-width="1.5"/><path d="m501.98 152.06h30.13v-30.13h-30.13z" clip-path="url(#17eb0eabf49)" fill="#002d9c" stroke="#002d9c" stroke-width="1.5"/><g clip-path="url(#17eb0eabf49)"><g transform="translate(36.957 48.734) scale(.1625 -.1625)"><defs><path id="DejaVuSans-Oblique-71" transform="scale(.015625)" d="m2669 525q-231-303-546-460-314-156-695-156-531 0-833 358-301 358-301 986 0 506 186 978t533 847q225 244 517 375t614 131q387 0 637-153t363-462l100 525h578l-934-4813h-579l360 1844zm-1778 813q0-463 193-705 194-242 560-242 544 0 928 520t384 1264q0 450-199 689-198 239-569 239-272 0-504-127-231-126-403-370-181-256-286-600-104-343-104-668z"/><path id="DejaVuSans-34" transform="scale(.015625)" d="m2419 4116-1594-2491h1594v2491zm-166 550h794v-3041h666v-525h-666v-1100h-628v1100h-2106v609l1940 2957z"/></defs><use transform="translate(0 .09375)" xlink:href="#DejaVuSans-Oblique-71"/><use transform="translate(63.477 .09375)" xlink:href="#DejaVuSans-34"/><use transform="translate(128.06 -16.312) scale(.7)" xlink:href="#DejaVuSans-30"/></g></g><g clip-path="url(#17eb0eabf49)"><g transform="translate(36.957 95.088) scale(.1625 -.1625)"><use transform="translate(0 .09375)" xlink:href="#DejaVuSans-Oblique-71"/><use transform="translate(63.477 .09375)" xlink:href="#DejaVuSans-34"/><use transform="translate(128.06 -16.312) scale(.7)" xlink:href="#DejaVuSans-31"/></g></g><g clip-path="url(#17eb0eabf49)"><g transform="translate(36.957 141.44) scale(.1625 -.1625)"><defs><path id="DejaVuSans-32" transform="scale(.015625)" d="m1228 531h2203v-531h-2962v531q359 372 979 998 621 627 780 809 303 340 423 576 121 236 121 464 0 372-261 606-261 235-680 235-297 0-627-103-329-103-704-313v638q381 153 712 231 332 78 607 78 725 0 1156-363 431-362 431-968 0-288-108-546-107-257-392-607-78-91-497-524-418-433-1181-1211z"/></defs><use transform="translate(0 .09375)" xlink:href="#DejaVuSans-Oblique-71"/><use transform="translate(63.477 .09375)" xlink:href="#DejaVuSans-34"/><use transform="translate(128.06 -16.312) scale(.7)" xlink:href="#DejaVuSans-32"/></g></g><g clip-path="url(#17eb0eabf49)"><g transform="translate(79.464 176.55) scale(.104 -.104)"><use xlink:href="#DejaVuSans-33"/></g></g><g clip-path="url(#17eb0eabf49)"><g transform="translate(46.283 187.83) scale(.1625 -.1625)"><use xlink:href="#DejaVuSans-63"/><use transform="translate(54.98)" xlink:href="#DejaVuSans-34"/></g></g><g clip-path="url(#17eb0eabf49)"><g transform="translate(94.971 47.87) scale(.13 -.13)"><defs><path id="DejaVuSans-48" transform="scale(.015625)" d="m628 4666h631v-1913h2294v1913h631v-4666h-631v2222h-2294v-2222h-631v4666z"/></defs><use xlink:href="#DejaVuSans-48"/></g></g><g clip-path="url(#17eb0eabf49)"><g transform="translate(94.971 94.224) scale(.13 -.13)"><use xlink:href="#DejaVuSans-48"/></g></g><g clip-path="url(#17eb0eabf49)"><g transform="translate(157.8 176.55) scale(.104 -.104)"><use xlink:href="#DejaVuSans-30"/></g></g><g clip-path="url(#17eb0eabf49)"><g transform="translate(204.16 176.55) scale(.104 -.104)"><use xlink:href="#DejaVuSans-31"/></g></g><g clip-path="url(#17eb0eabf49)"><g transform="translate(219.88 198.46) scale(.08 -.08)"><defs><path id="DejaVuSans-78" transform="scale(.015625)" d="m3513 3500-1266-1703 1331-1797h-678l-1019 1375-1018-1375h-679l1360 1831-1244 1669h678l928-1247 928 1247h679z"/><path id="DejaVuSans-37" transform="scale(.015625)" d="m525 4666h3e3v-269l-1694-4397h-659l1594 4134h-2241v532z"/></defs><use xlink:href="#DejaVuSans-30"/><use transform="translate(63.623)" xlink:href="#DejaVuSans-78"/><use transform="translate(122.8)" xlink:href="#DejaVuSans-37"/></g></g><g clip-path="url(#17eb0eabf49)"><g transform="translate(574.99 176.55) scale(.104 -.104)"><use xlink:href="#DejaVuSans-32"/></g></g><g clip-path="url(#17eb0eabf49)"><g transform="translate(327.18 140.58) scale(.13 -.13)"><defs><path id="DejaVuSans-5a" transform="scale(.015625)" d="m359 4666h3666v-482l-2950-3653h3022v-531h-3809v481l2950 3653h-2879v532z"/></defs><use xlink:href="#DejaVuSans-5a"/></g></g><g clip-path="url(#17eb0eabf49)"><g transform="translate(420.37 140.58) scale(.13 -.13)" fill="#ffffff"><defs><path id="DejaVuSans-59" transform="scale(.015625)" d="m-13 4666h679l1293-1919 1285 1919h678l-1650-2444v-2222h-634v2222l-1651 2444z"/></defs><use xlink:href="#DejaVuSans-59"/></g></g><g clip-path="url(#17eb0eabf49)"><g transform="translate(512.59 140.58) scale(.13 -.13)" fill="#ffffff"><defs><path id="DejaVuSans-58" transform="scale(.015625)" d="m403 4666h678l1160-1735 1165 1735h678l-1500-2241 1600-2425h-678l-1312 1984-1322-1984h-681l1665 2491-1453 2175z"/></defs><use xlink:href="#DejaVuSans-58"/></g></g><defs><clipPath id="17eb0eabf49"><rect x="7.2" y="7.2" width="586.79" height="203.96"/></clipPath></defs></svg>