<?xml version='1.0' encoding='utf-8'?>
<svg xmlns="http://www.w3.org/2000/svg" xmlns:ns1="http://sodipodi.sourceforge.net/DTD/sodipodi-0.dtd" xmlns:ns2="http://www.inkscape.org/namespaces/inkscape" version="1.1" id="svg1" width="100%" height="auto" viewBox="-20.0 -20.0 253.23599 238.61426" ns1:docname="svg_fix_XXXXXX.svg">
  <rect id="path1" x="-20.0" y="-20.0" width="253.23599" height="238.61426" fill="white" /><ns1:namedview id="namedview1" pagecolor="#ffffff" bordercolor="#000000" borderopacity="0.25" ns2:showpageshadow="2" ns2:pageopacity="0.0" ns2:pagecheckerboard="0" ns2:deskcolor="#d1d1d1" />
  <defs id="defs1" />
  <g id="g1" transform="translate(-190.15463,-35.445313)">
    <path id="path2" d="M 48.18947,0 C 48.18947,26.61464 26.61464,48.18947 0,48.18947 -26.61464,48.18947 -48.18947,26.61464 -48.18947,0 c 0,-26.61464 21.57483,-48.18947 48.18947,-48.18947 26.61464,0 48.18947,21.57483 48.18947,48.18947 z" style="fill:none;stroke:#121619;stroke-width:0.3985;stroke-linecap:round;stroke-linejoin:miter;stroke-miterlimit:10;stroke-dasharray:none;stroke-opacity:1" transform="matrix(1.8,0,0,-1.8,277.25433,146.95987)" />
    <path id="path3" d="M -48.18947,0 H 48.18947" style="fill:none;stroke:#121619;stroke-width:0.3985;stroke-linecap:round;stroke-linejoin:miter;stroke-miterlimit:10;stroke-dasharray:0.3985, 0.99628;stroke-dashoffset:0;stroke-opacity:1" transform="matrix(1.8,0,0,-1.8,277.25433,146.95987)" />
    <path id="path4" d="M 0,-48.18947 V 48.18947" style="fill:none;stroke:#121619;stroke-width:0.3985;stroke-linecap:round;stroke-linejoin:miter;stroke-miterlimit:10;stroke-dasharray:0.3985, 0.99628;stroke-dashoffset:0;stroke-opacity:1" transform="matrix(1.8,0,0,-1.8,277.25433,146.95987)" />
    <g id="g4" aria-label="∣ψ&#10;0&#10;⟩" transform="matrix(1.8,0,0,1.8,369.14973,150.90547)">
      <path id="path5" d="M 1.1971968,-6.8745648 V 2.4917546 H 1.700669 v -9.3663194 z m 0,0" style="fill:#121619;fill-opacity:1;fill-rule:nonzero;stroke:none" />
      <path id="path6" d="m 6.9458947,-5.268662 c 0.034722,-0.1128473 0.034722,-0.1215278 0.034722,-0.15625 0,-0.078125 -0.052083,-0.1041667 -0.1215278,-0.1041667 -0.1041666,0 -0.1128472,0.034722 -0.1388889,0.1649306 l -1.3020833,5.20833329 c -0.5642361,-0.0694444 -0.9548611,-0.3125 -0.9548611,-0.87673609 0,-0.15625 0,-0.3645834 0.4253472,-1.4236111 0.078125,-0.2170139 0.086806,-0.2864584 0.086806,-0.3819445 0,-0.4253472 -0.3559028,-0.6770833 -0.7204861,-0.6770833 -0.7899306,0 -1.1111112,1.1284722 -1.1111112,1.2239583 0,0.069444 0.052083,0.1041667 0.1128473,0.1041667 0.1041666,0 0.1128472,-0.052083 0.1388889,-0.1302083 0.2083333,-0.6944445 0.546875,-0.9722223 0.8333333,-0.9722223 0.1215278,0 0.1909722,0.078125 0.1909722,0.2604167 0,0.1822917 -0.069444,0.3732639 -0.1388889,0.546875 -0.4079861,1.0590278 -0.4079861,1.2239583 -0.4079861,1.3888889 0,0.75520832 0.6510417,1.10243054 1.484375,1.15451387 L 4.9927697,1.5195324 c 0,0.078125 0.060764,0.1041667 0.1215278,0.1041667 0.1041666,0 0.1128472,-0.026042 0.1649305,-0.1996528 0.034722,-0.1736111 0,-0.060764 0.3298611,-1.34548611 0.3298611,0 0.9375,0 1.71875,-0.73784723 0.3211806,-0.29513889 0.5034722,-0.62499996 0.5729167,-0.73784726 0.2604167,-0.5208333 0.3732639,-1.2152777 0.3732639,-1.5017361 0,-0.625 -0.3645834,-0.625 -0.390625,-0.625 -0.1909722,0 -0.4166667,0.2083334 -0.4166667,0.4166667 0,0.1302083 0.069445,0.1909722 0.1128472,0.2256944 0.078125,0.069444 0.3211806,0.2777778 0.3211806,0.6597223 0,0.6597222 -0.9027778,2.07465274 -2.2309028,2.07465274 z m 0,0" style="fill:#121619;fill-opacity:1;fill-rule:nonzero;stroke:none" />
      <path id="path7" d="m 11.726711,-0.47482523 c 0,-0.43402778 0,-2.06597227 -1.467014,-2.06597227 -1.4670141,0 -1.4670141,1.63194449 -1.4670141,2.06597227 0,0.43402778 0,2.03125003 1.4670141,2.03125003 1.467014,0 1.467014,-1.59722225 1.467014,-2.03125003 z M 10.259697,1.3654525 c -0.251736,0 -0.6597225,-0.1128472 -0.7986114,-0.6163194 -0.095486,-0.34722222 -0.095486,-0.92881944 -0.095486,-1.30208333 0,-0.39930556 0,-0.85937497 0.078125,-1.18055557 0.15625,-0.5381944 0.6076384,-0.6163194 0.8159724,-0.6163194 0.277778,0 0.668403,0.1302083 0.798611,0.5815972 0.09549,0.3211805 0.09549,0.7552083 0.09549,1.21527777 0,0.38194444 0,0.98958333 -0.09549,1.328125 C 10.884697,1.2873275 10.45935,1.3654525 10.259697,1.3654525 Z m 0,0" style="fill:#121619;fill-opacity:1;fill-rule:nonzero;stroke:none" />
      <path id="path8" d="m 13.801363,2.5785602 1.527778,-4.765625 -1.527778,-4.765625 -0.486111,0.15625 1.536459,4.609375 -1.536459,4.6006944 z m 0,0" style="fill:#121619;fill-opacity:1;fill-rule:nonzero;stroke:none" />
    </g>
    <g id="g8" aria-label="∣ψ&#10;π" transform="matrix(1.8,0,0,1.8,260.04633,47.961667)">
      <path id="path9" d="m 1.1982176,-6.8754051 v 9.3663195 h 0.5034722 v -9.3663195 z m 0,0" style="fill:#121619;fill-opacity:1;fill-rule:nonzero;stroke:none" />
      <path id="path10" d="m 6.9469155,-5.2695023 c 0.034722,-0.1128472 0.034722,-0.1215278 0.034722,-0.15625 0,-0.078125 -0.052083,-0.1041667 -0.1215277,-0.1041667 -0.1041667,0 -0.1128473,0.034722 -0.1388889,0.1649306 l -1.3020834,5.20833331 c -0.5642361,-0.0694444 -0.9548611,-0.3125 -0.9548611,-0.87673611 0,-0.15625 0,-0.3645833 0.4253472,-1.4236111 0.078125,-0.2170139 0.086806,-0.2864583 0.086806,-0.3819445 0,-0.4253472 -0.3559028,-0.6770833 -0.7204861,-0.6770833 -0.7899306,0 -1.1111111,1.1284722 -1.1111111,1.2239583 0,0.069444 0.052083,0.1041667 0.1128472,0.1041667 0.1041667,0 0.1128472,-0.052083 0.1388889,-0.1302083 0.2083333,-0.6944445 0.546875,-0.9722222 0.8333333,-0.9722222 0.1215278,0 0.1909722,0.078125 0.1909722,0.2604166 0,0.1822917 -0.069444,0.3732639 -0.1388888,0.546875 -0.4079862,1.0590278 -0.4079862,1.2239584 -0.4079862,1.3888889 0,0.75520834 0.6510417,1.10243056 1.484375,1.1545139 L 4.9937905,1.5186921 c 0,0.078125 0.060764,0.1041667 0.1215278,0.1041667 0.1041667,0 0.1128472,-0.026042 0.1649305,-0.1996528 0.034722,-0.1736111 0,-0.060764 0.3298612,-1.34548609 0.3298611,0 0.9375,0 1.71875,-0.73784722 0.3211805,-0.29513889 0.5034722,-0.62499999 0.5729166,-0.73784719 0.2604167,-0.5208334 0.3732639,-1.2152778 0.3732639,-1.5017361 0,-0.625 -0.3645833,-0.625 -0.390625,-0.625 -0.1909722,0 -0.4166667,0.2083333 -0.4166667,0.4166666 0,0.1302084 0.069445,0.1909722 0.1128473,0.2256945 0.078125,0.069444 0.3211805,0.2777777 0.3211805,0.6597222 0,0.6597222 -0.9027778,2.07465276 -2.2309028,2.07465276 z m 0,0" style="fill:#121619;fill-opacity:1;fill-rule:nonzero;stroke:none" />
      <path id="path11" d="m 13.147002,-2.9800058 c 0.08681,0 0.138889,0 0.208334,-0.052083 0.02604,-0.026042 0.07813,-0.095486 0.07813,-0.1649306 0,-0.15625 -0.14757,-0.15625 -0.234375,-0.15625 h -2.135417 c -0.112847,0 -0.338542,0 -0.633681,0.2430556 -0.130208,0.1215278 -0.355902,0.3732639 -0.355902,0.4340278 0,0.069444 0.06944,0.069444 0.104166,0.069444 0.06944,0 0.06944,0 0.104167,-0.043403 0.173611,-0.2170139 0.407986,-0.3298611 0.711806,-0.3298611 h 0.355902 c -0.182291,0.625 -0.434027,1.1458333 -0.607639,1.4583333 -0.07813,0.1302084 -0.07813,0.1388889 -0.07813,0.1909723 0,0.1128472 0.09549,0.1736111 0.190973,0.1736111 0.208333,0 0.277777,-0.2256945 0.399305,-0.6336806 0.112847,-0.3819444 0.199653,-0.7465278 0.3125,-1.1892361 h 0.651042 c -0.01736,0.078125 -0.15625,0.6163195 -0.15625,1.015625 0,0.3385417 0.121528,0.8072917 0.347222,0.8072917 0.112847,0 0.260417,-0.1128472 0.260417,-0.2430556 0,-0.052083 -0.02604,-0.078125 -0.06076,-0.1388889 -0.225695,-0.3732639 -0.225695,-0.8072916 -0.225695,-0.9027777 0,-0.1649306 0.02604,-0.3645834 0.05208,-0.5381945 z m 0,0" style="fill:#121619;fill-opacity:1;fill-rule:nonzero;stroke:none" />
    </g>
    <path id="path12" d="m 128.636,-54.945 h 4.319" style="fill:none;stroke:#121619;stroke-width:0.3347;stroke-linecap:butt;stroke-linejoin:miter;stroke-miterlimit:10;stroke-dasharray:none;stroke-opacity:1" transform="matrix(1.8,0,0,-1.8,45.837333,-51.315533)" />
    <g id="g12" aria-label="2&#10;⟩" transform="matrix(1.8,0,0,1.8,278.21913,55.064467)">
      <path id="path13" d="M 2.9338148,-0.96246412 H 2.7254815 c -0.017361,0.0954861 -0.060764,0.40798611 -0.1475695,0.45138889 -0.034722,0.0347222 -0.4513889,0.0347222 -0.5295139,0.0347222 H 1.0674954 c 0.3298611,-0.24305555 0.703125,-0.52083333 0.9982639,-0.72048607 0.4513888,-0.3125 0.8680555,-0.5989584 0.8680555,-1.1284722 0,-0.6423612 -0.5989583,-0.9895834 -1.3107639,-0.9895834 -0.67708331,0 -1.17187497,0.3819445 -1.17187497,0.8767361 0,0.2604167 0.21701388,0.3038195 0.29513888,0.3038195 0.13020834,0 0.28645829,-0.095486 0.28645829,-0.2951389 0,-0.1822917 -0.13020829,-0.2777778 -0.27777773,-0.2951389 0.13888889,-0.2256944 0.42534723,-0.3732639 0.75520833,-0.3732639 0.4861111,0 0.8940972,0.2864583 0.8940972,0.78125 0,0.4166667 -0.2951389,0.7291667 -0.6770833,1.0590278 l -1.21527779,1.03298608 c -0.0520833,0.0434028 -0.0520833,0.0434028 -0.0607639,0.078125 V 0.00107755 H 2.7688843 Z m 0,0" style="fill:#121619;fill-opacity:1;fill-rule:nonzero;stroke:none" />
      <path id="path14" d="M 6.76411,-1.3682801 8.2918877,-6.1339051 6.76411,-10.89953 l -0.4861112,0.15625 1.5364584,4.6093749 -1.5364584,4.6006945 z m 0,0" style="fill:#121619;fill-opacity:1;fill-rule:nonzero;stroke:none" />
    </g>
    <path id="path15" d="M 0,0 H 48.19737" style="fill:none;stroke:#0f62fe;stroke-width:1.49442;stroke-linecap:round;stroke-linejoin:miter;stroke-miterlimit:10;stroke-dasharray:none;stroke-opacity:1" transform="matrix(1.8,0,0,-1.8,277.25433,146.95987)" />
    <path id="path16" d="M 0,0 V 48.19737" style="fill:none;stroke:#9f1853;stroke-width:1.49442;stroke-linecap:round;stroke-linejoin:miter;stroke-miterlimit:10;stroke-dasharray:none;stroke-opacity:1" transform="matrix(1.8,0,0,-1.8,277.25433,146.95987)" />
    <g id="g16" aria-label="∣ψ&#10;−&#10;π" transform="matrix(1.8,0,0,1.8,362.54733,182.80147)">
      <path id="path17" d="m 1.197662,-6.8753808 v 9.3663195 h 0.5034723 v -9.3663195 z m 0,0" style="fill:#121619;fill-opacity:1;fill-rule:nonzero;stroke:none" />
      <path id="path18" d="m 6.94636,-5.269478 c 0.034722,-0.1128472 0.034722,-0.1215278 0.034722,-0.15625 0,-0.078125 -0.052083,-0.1041667 -0.1215278,-0.1041667 -0.1041667,0 -0.1128472,0.034722 -0.1388889,0.1649306 L 5.418582,-0.15663079 c -0.5642361,-0.0694444 -0.9548611,-0.3125 -0.9548611,-0.87673611 0,-0.15625 0,-0.3645833 0.4253472,-1.4236111 0.078125,-0.2170139 0.086805,-0.2864583 0.086805,-0.3819445 0,-0.4253472 -0.3559027,-0.6770833 -0.7204861,-0.6770833 -0.7899305,0 -1.1111111,1.1284722 -1.1111111,1.2239583 0,0.069444 0.052083,0.1041667 0.1128472,0.1041667 0.1041667,0 0.1128473,-0.052083 0.1388889,-0.1302083 0.2083334,-0.6944445 0.546875,-0.9722222 0.8333334,-0.9722222 0.1215277,0 0.1909722,0.078125 0.1909722,0.2604166 0,0.1822917 -0.069445,0.3732639 -0.1388889,0.546875 -0.4079861,1.0590278 -0.4079861,1.2239584 -0.4079861,1.3888889 0,0.75520835 0.6510417,1.10243057 1.484375,1.1545139 L 4.993235,1.5187164 c 0,0.078125 0.060764,0.1041667 0.1215277,0.1041667 0.1041667,0 0.1128473,-0.026042 0.1649306,-0.1996528 0.034722,-0.1736111 0,-0.060764 0.3298611,-1.34548609 0.3298611,0 0.9375,0 1.71875,-0.73784722 C 7.649485,-0.9552419 7.8317766,-1.285103 7.9012211,-1.3979502 8.1616377,-1.9187836 8.274485,-2.613228 8.274485,-2.8996863 c 0,-0.625 -0.3645834,-0.625 -0.390625,-0.625 -0.1909723,0 -0.4166667,0.2083333 -0.4166667,0.4166666 0,0.1302084 0.069444,0.1909722 0.1128472,0.2256945 0.078125,0.069444 0.3211806,0.2777777 0.3211806,0.6597222 0,0.6597222 -0.9027778,2.07465277 -2.2309028,2.07465277 z m 0,0" style="fill:#121619;fill-opacity:1;fill-rule:nonzero;stroke:none" />
      <path id="path19" d="M 12.202436,-0.40619676 H 8.9732697 v 0.390625 h 3.2291663 z m 0,0" style="fill:#121619;fill-opacity:1;fill-rule:nonzero;stroke:none" />
      <path id="path20" d="m 17.449832,-2.9799815 c 0.08681,0 0.138889,0 0.208334,-0.052083 0.02604,-0.026042 0.07813,-0.095486 0.07813,-0.1649306 0,-0.15625 -0.14757,-0.15625 -0.234375,-0.15625 h -2.135417 c -0.112847,0 -0.338542,0 -0.633681,0.2430556 -0.130208,0.1215278 -0.355902,0.3732639 -0.355902,0.4340278 0,0.069444 0.06944,0.069444 0.104166,0.069444 0.06944,0 0.06944,0 0.104167,-0.043403 0.173611,-0.2170139 0.407986,-0.3298611 0.711805,-0.3298611 h 0.355903 c -0.182291,0.625 -0.434028,1.1458334 -0.607639,1.4583334 -0.07813,0.1302083 -0.07813,0.1388888 -0.07813,0.1909722 0,0.1128472 0.09549,0.1736111 0.190973,0.1736111 0.208333,0 0.277777,-0.2256945 0.399305,-0.6336806 0.112847,-0.3819444 0.199653,-0.7465277 0.3125,-1.1892361 h 0.651042 c -0.01736,0.078125 -0.15625,0.6163195 -0.15625,1.015625 0,0.3385417 0.121528,0.8072917 0.347222,0.8072917 0.112847,0 0.260417,-0.1128472 0.260417,-0.2430556 0,-0.052083 -0.02604,-0.078125 -0.06076,-0.1388889 -0.225695,-0.3732638 -0.225695,-0.8072916 -0.225695,-0.9027777 0,-0.1649306 0.02604,-0.3645834 0.05208,-0.5381945 z m 0,0" style="fill:#121619;fill-opacity:1;fill-rule:nonzero;stroke:none" />
    </g>
    <path id="path21" d="m 132.94,-54.945 h 4.319" style="fill:none;stroke:#121619;stroke-width:0.3347;stroke-linecap:butt;stroke-linejoin:miter;stroke-miterlimit:10;stroke-dasharray:none;stroke-opacity:1" transform="matrix(1.8,0,0,-1.8,148.33833,83.524267)" />
    <g id="g21" aria-label="8&#10;⟩" transform="matrix(1.8,0,0,1.8,388.46553,189.90427)">
      <path id="path22" d="m 2.1350336,-1.7979433 c 0.5121527,-0.2170139 0.6770833,-0.4774305 0.6770833,-0.7638889 0,-0.5208333 -0.5729167,-0.7552083 -1.1111111,-0.7552083 -0.6163195,0 -1.12847224,0.3472222 -1.12847224,0.8420139 0,0.4600694 0.390625,0.6684028 0.65104164,0.7986111 -0.52951386,0.2083333 -0.82465275,0.5034722 -0.82465275,0.91145832 0,0.59027778 0.65972225,0.87673612 1.29340275,0.87673612 0.6944445,0 1.2934028,-0.37326389 1.2934028,-0.96354167 0,-0.54687497 -0.5121528,-0.79861107 -0.8506944,-0.94618057 z M 1.1628113,-2.3100961 c -0.21701385,-0.1041666 -0.27777774,-0.234375 -0.27777774,-0.3559027 0,-0.3211806 0.40798614,-0.4600695 0.80729164,-0.4600695 0.3993056,0 0.8159723,0.1909722 0.8159723,0.5729167 0,0.4340278 -0.5729167,0.6423611 -0.5729167,0.6423611 -0.00868,0 -0.00868,0 -0.060764,-0.026042 z m 0.2777778,0.7465278 0.7725695,0.390625 c 0.1822916,0.095486 0.4340277,0.23437501 0.4340277,0.50347224 0,0.39930555 -0.5034722,0.57291666 -0.9461805,0.57291666 -0.4513889,0 -0.95486112,-0.22569444 -0.95486112,-0.67708333 0,-0.49479167 0.53819442,-0.72048607 0.69444442,-0.78993057 z m 0,0" style="fill:#121619;fill-opacity:1;fill-rule:nonzero;stroke:none" />
      <path id="path23" d="m 6.7639398,-1.3682558 1.5277778,-4.765625 -1.5277778,-4.7656252 -0.4861111,0.15625 1.5364583,4.6093752 -1.5364583,4.6006945 z m 0,0" style="fill:#121619;fill-opacity:1;fill-rule:nonzero;stroke:none" />
    </g>
    <g id="g23" aria-label="∣ψ&#10;3π" transform="matrix(1.8,0,0,1.8,298.24773,52.873867)">
      <path id="path24" d="M 1.1970058,-6.8743704 V 2.4919491 H 1.700478 v -9.3663195 z m 0,0" style="fill:#121619;fill-opacity:1;fill-rule:nonzero;stroke:none" />
      <path id="path25" d="m 6.9457037,-5.2684676 c 0.034722,-0.1128472 0.034722,-0.1215278 0.034722,-0.15625 0,-0.078125 -0.052083,-0.1041667 -0.1215278,-0.1041667 -0.1041666,0 -0.1128472,0.034722 -0.1388888,0.1649306 l -1.3020834,5.20833333 c -0.5642361,-0.0694444 -0.9548611,-0.3125 -0.9548611,-0.87673613 0,-0.15625 0,-0.3645833 0.4253472,-1.4236111 0.078125,-0.2170139 0.086806,-0.2864583 0.086806,-0.3819444 0,-0.4253473 -0.3559028,-0.6770834 -0.7204861,-0.6770834 -0.7899306,0 -1.1111111,1.1284723 -1.1111111,1.2239584 0,0.069444 0.052083,0.1041666 0.1128472,0.1041666 0.1041667,0 0.1128472,-0.052083 0.1388889,-0.1302083 0.2083333,-0.6944444 0.546875,-0.9722222 0.8333333,-0.9722222 0.1215278,0 0.1909722,0.078125 0.1909722,0.2604166 0,0.1822917 -0.069444,0.3732639 -0.1388889,0.546875 -0.4079861,1.0590278 -0.4079861,1.2239584 -0.4079861,1.3888889 0,0.75520836 0.6510417,1.10243059 1.484375,1.15451392 L 4.9925787,1.5197269 c 0,0.078125 0.060764,0.1041666 0.1215278,0.1041666 0.1041666,0 0.1128472,-0.026042 0.1649305,-0.1996528 0.034722,-0.1736111 0,-0.060764 0.3298611,-1.34548607 0.3298612,0 0.9375,0 1.71875,-0.73784722 0.3211806,-0.29513889 0.5034723,-0.62500001 0.5729167,-0.73784721 0.2604167,-0.5208333 0.3732639,-1.2152778 0.3732639,-1.5017361 0,-0.625 -0.3645833,-0.625 -0.390625,-0.625 -0.1909722,0 -0.4166667,0.2083333 -0.4166667,0.4166666 0,0.1302084 0.069445,0.1909723 0.1128473,0.2256945 0.078125,0.069444 0.3211805,0.2777778 0.3211805,0.6597222 0,0.6597222 -0.9027778,2.07465279 -2.2309028,2.07465279 z m 0,0" style="fill:#121619;fill-opacity:1;fill-rule:nonzero;stroke:none" />
      <path id="path26" d="m 11.270791,-1.9199433 c 0.460069,0 0.763888,0.2864583 0.763888,0.78125 0,0.50347224 -0.3125,0.77256946 -0.755208,0.77256946 -0.05208,0 -0.651042,0 -0.902778,-0.26041667 0.208334,-0.0260417 0.269098,-0.18229167 0.269098,-0.30381944 0,-0.18229165 -0.14757,-0.30381945 -0.30382,-0.30381945 -0.16493,0 -0.3125,0.1041667 -0.3125,0.3125 0,0.52083334 0.590278,0.76388889 1.267361,0.76388889 0.815972,0 1.319445,-0.49479167 1.319445,-0.98090279 0,-0.4079861 -0.355903,-0.7552083 -0.92882,-0.8854167 0.598959,-0.1909722 0.755209,-0.5729166 0.755209,-0.8506944 0,-0.4079861 -0.503473,-0.7118056 -1.137153,-0.7118056 -0.607639,0 -1.102431,0.2604167 -1.102431,0.703125 0,0.234375 0.190972,0.2951389 0.286459,0.2951389 0.138888,0 0.277777,-0.1041666 0.277777,-0.2864583 0,-0.1128472 -0.05208,-0.2517361 -0.234375,-0.2777778 0.217014,-0.234375 0.659723,-0.2430555 0.763889,-0.2430555 0.364584,0 0.61632,0.1822916 0.61632,0.5208333 0,0.2864583 -0.182292,0.7378472 -0.711806,0.7725694 -0.138889,0 -0.15625,0.00868 -0.286458,0.00868 -0.05208,0.00868 -0.112847,0.017361 -0.112847,0.086806 0,0.086806 0.05208,0.086806 0.147569,0.086806 z m 0,0" style="fill:#121619;fill-opacity:1;fill-rule:nonzero;stroke:none" />
      <path id="path27" d="m 16.535547,-2.0414711 c 0.08681,0 0.138889,0 0.208334,-0.052083 0.02604,-0.026042 0.07813,-0.095486 0.07813,-0.1649306 0,-0.15625 -0.14757,-0.15625 -0.234375,-0.15625 h -2.135417 c -0.112847,0 -0.338542,0 -0.63368,0.2430556 -0.130209,0.1215278 -0.355903,0.3732639 -0.355903,0.4340278 0,0.069444 0.06944,0.069444 0.104166,0.069444 0.06944,0 0.06944,0 0.104167,-0.043403 0.173611,-0.2170138 0.407986,-0.3298611 0.711806,-0.3298611 h 0.355902 c -0.182291,0.625 -0.434027,1.14583337 -0.607638,1.45833337 -0.07813,0.13020833 -0.07813,0.13888889 -0.07813,0.19097222 0,0.11284722 0.09549,0.17361111 0.190972,0.17361111 0.208333,0 0.277778,-0.22569444 0.399305,-0.63368055 0.112848,-0.38194445 0.199653,-0.74652775 0.3125,-1.18923615 h 0.651042 c -0.01736,0.078125 -0.15625,0.6163195 -0.15625,1.015625 0,0.3385417 0.121528,0.8072917 0.347222,0.8072917 0.112847,0 0.260417,-0.11284722 0.260417,-0.24305555 0,-0.0520833 -0.02604,-0.078125 -0.06076,-0.13888889 -0.225694,-0.37326389 -0.225694,-0.80729166 -0.225694,-0.90277776 0,-0.1649306 0.02604,-0.3645834 0.05208,-0.5381945 z m 0,0" style="fill:#121619;fill-opacity:1;fill-rule:nonzero;stroke:none" />
    </g>
    <path id="path28" d="m 128.636,-55.883 h 7.709" style="fill:none;stroke:#121619;stroke-width:0.3347;stroke-linecap:butt;stroke-linejoin:miter;stroke-miterlimit:10;stroke-dasharray:none;stroke-opacity:1" transform="matrix(1.8,0,0,-1.8,84.038733,-46.403333)" />
    <g id="g28" aria-label="8&#10;⟩" transform="matrix(1.8,0,0,1.8,319.47153,61.666867)">
      <path id="path29" d="m 2.1360405,-1.7962627 c 0.5121528,-0.2170139 0.6770833,-0.4774306 0.6770833,-0.7638889 0,-0.5208334 -0.5729166,-0.7552084 -1.1111111,-0.7552084 -0.6163194,0 -1.12847219,0.3472223 -1.12847219,0.8420139 0,0.4600695 0.390625,0.6684028 0.65104169,0.7986111 -0.52951391,0.2083334 -0.8246528,0.5034723 -0.8246528,0.91145838 0,0.59027778 0.6597222,0.87673611 1.2934028,0.87673611 0.6944444,0 1.2934028,-0.37326389 1.2934028,-0.96354167 0,-0.54687502 -0.5121528,-0.79861112 -0.8506945,-0.94618052 z M 1.1638183,-2.3084155 c -0.2170139,-0.1041667 -0.27777779,-0.234375 -0.27777779,-0.3559028 0,-0.3211805 0.40798609,-0.4600694 0.80729169,-0.4600694 0.3993055,0 0.8159722,0.1909722 0.8159722,0.5729166 0,0.4340278 -0.5729167,0.6423611 -0.5729167,0.6423611 -0.00868,0 -0.00868,0 -0.060764,-0.026042 z m 0.2777778,0.7465278 0.7725694,0.390625 c 0.1822917,0.095486 0.4340278,0.23437497 0.4340278,0.50347219 0,0.39930556 -0.5034722,0.57291667 -0.9461806,0.57291667 -0.4513889,0 -0.95486108,-0.22569445 -0.95486108,-0.67708334 0,-0.49479162 0.53819448,-0.72048612 0.69444448,-0.78993052 z m 0,0" style="fill:#121619;fill-opacity:1;fill-rule:nonzero;stroke:none" />
      <path id="path30" d="m 8.4576551,-2.3062454 1.5277778,-4.765625 -1.5277778,-4.7656246 -0.4861111,0.15625 1.5364583,4.6093746 -1.5364583,4.6006945 z m 0,0" style="fill:#121619;fill-opacity:1;fill-rule:nonzero;stroke:none" />
    </g>
    <path id="path31" d="M 0,0 44.52979,-18.44537" style="fill:none;stroke:#0f62fe;stroke-width:1.49442;stroke-linecap:round;stroke-linejoin:miter;stroke-miterlimit:10;stroke-dasharray:none;stroke-opacity:1" transform="matrix(1.8,0,0,-1.8,277.25433,146.95987)" />
    <path id="path32" d="M 0,0 18.44537,44.52979" style="fill:none;stroke:#9f1853;stroke-width:1.49442;stroke-linecap:round;stroke-linejoin:miter;stroke-miterlimit:10;stroke-dasharray:none;stroke-opacity:1" transform="matrix(1.8,0,0,-1.8,277.25433,146.95987)" />
  </g>
</svg>