<?xml version='1.0' encoding='utf-8'?>
<svg xmlns="http://www.w3.org/2000/svg" xmlns:ns1="http://sodipodi.sourceforge.net/DTD/sodipodi-0.dtd" xmlns:ns2="http://www.inkscape.org/namespaces/inkscape" version="1.1" id="svg1" width="100%" height="auto" viewBox="-20.0 -20.0 264.73669 252.64801" ns1:docname="svg_fix_XXXXXX.svg">
  <rect id="path1" x="-20.0" y="-20.0" width="264.73669" height="252.64801" fill="white" /><ns1:namedview id="namedview1" pagecolor="#ffffff" bordercolor="#000000" borderopacity="0.25" ns2:showpageshadow="2" ns2:pageopacity="0.0" ns2:pagecheckerboard="0" ns2:deskcolor="#d1d1d1" />
  <defs id="defs1" />
  <g id="g1" transform="translate(-187.17299,-42.539063)">
    <path id="path2" d="m -55.98492,17.00809 h 34.01616 v 22.67743 h -34.01616 z" style="fill:#78a9ff;fill-opacity:1;fill-rule:nonzero;stroke:#78a9ff;stroke-width:0.3985;stroke-linecap:butt;stroke-linejoin:miter;stroke-miterlimit:10;stroke-dasharray:none;stroke-opacity:1" transform="matrix(2,0,0,-2,299.54133,195.26067)" />
    <path id="path3" d="M 5.3981302,4.3229167e-4 3.2028177,-5.5308177 H 2.4293802 L 0.24188021,4.3229167e-4 h 0.6484375 L 1.5153177,-1.5776927 h 2.421875 L 4.5543802,4.3229167e-4 Z M 3.7340677,-2.0464427 H 1.7106302 l 1.0234375,-2.875 z M 6.9782083,4.3229167e-4 V -5.5308177 H 6.3141458 V 4.3229167e-4 Z m 2.0175782,0 V -3.5386302 H 8.331724 V 4.3229167e-4 Z M 9.0739115,-4.4605052 V -5.2651927 H 8.269224 v 0.8046875 z m 4.1171875,4.17187499 -0.04687,-0.578125 c -0.398438,0.25 -0.828125,0.3984375 -1.328125,0.3984375 -0.726563,0 -1.164063,-0.59374999 -1.164063,-1.30468749 0,-0.6171875 0.320313,-1.3359375 1.1875,-1.3359375 0.546875,0 0.796875,0.109375 1.203125,0.3671875 l 0.109375,-0.5703125 c -0.476562,-0.2421875 -0.6875,-0.34375 -1.3125,-0.34375 -1.195312,0 -1.8749995,0.9609375 -1.8749995,1.890625 0,0.96874999 0.7656245,1.84374999 1.8437495,1.84374999 0.5625,0 1.039063,-0.1640625 1.382813,-0.3671875 z m 3.753906,-1.45312499 c 0,-0.3671875 -0.03906,-0.90625 -0.351562,-1.359375 -0.289063,-0.40625 -0.765625,-0.5546875 -1.15625,-0.5546875 -0.96875,0 -1.71875,0.8515625 -1.71875,1.859375 0,1.02343749 0.796875,1.87499999 1.84375,1.87499999 0.46875,0 0.945312,-0.1328125 1.351562,-0.3828125 l -0.04687,-0.5625 c -0.453125,0.3203125 -0.953125,0.421875 -1.296875,0.421875 -0.6875,0 -1.21875,-0.57031249 -1.242187,-1.29687499 z m -0.484375,-0.484375 h -2.078125 c 0.1875,-0.6328125 0.65625,-0.90625 1.054688,-0.90625 0.351562,0 0.867187,0.171875 1.023437,0.90625 z m 0,0" style="fill:#ffffff;fill-opacity:1;fill-rule:nonzero;stroke:none" aria-label="Alice" transform="matrix(2,0,0,2,204.38733,144.01867)" />
    <path id="path4" d="M 21.96877,17.00809 H 55.98493 V 39.68552 H 21.96877 Z" style="fill:#78a9ff;fill-opacity:1;fill-rule:nonzero;stroke:#78a9ff;stroke-width:0.3985;stroke-linecap:butt;stroke-linejoin:miter;stroke-miterlimit:10;stroke-dasharray:none;stroke-opacity:1" transform="matrix(2,0,0,-2,299.54133,195.26067)" />
    <path id="path5" d="m 5.1634896,-1.4995677 c 0,-0.703125 -0.7421875,-1.265625 -1.625,-1.390625 0.828125,-0.203125 1.3828125,-0.6796875 1.3828125,-1.25 0,-0.734375 -0.9140625,-1.390625 -2.0859375,-1.390625 H 0.79630208 V 4.3229167e-4 H 3.0697396 c 1.1796875,0 2.09375,-0.70312500167 2.09375,-1.49999999167 z M 4.2338021,-4.1323802 c 0,0.53125 -0.7265625,0.9921875 -1.625,0.9921875 h -1.0625 v -1.921875 h 1.0546875 c 0.890625,0 1.6328125,0.4140625 1.6328125,0.9296875 z m 0.203125,2.625 c 0,0.59374999 -0.7421875,1.03906249 -1.6171875,1.03906249 H 1.5463021 V -2.6167552 h 1.140625 c 1,0 1.75,0.515625 1.75,1.109375 z m 5.1894531,-0.234375 c 0,-1.0546875 -0.8359375,-1.9140625 -1.875,-1.9140625 -1.03125,0 -1.8671875,0.8671875 -1.8671875,1.9140625 0,1.00781249 0.84375,1.82031249 1.8671875,1.82031249 1.0390625,0 1.875,-0.8125 1.875,-1.82031249 z m -0.6953125,-0.09375 c 0,0.91406249 -0.5625,1.36718749 -1.1796875,1.36718749 -0.625,0 -1.1796875,-0.4609375 -1.1796875,-1.36718749 0,-0.8984375 0.59375,-1.296875 1.1796875,-1.296875 0.6015625,0 1.1796875,0.4140625 1.1796875,1.296875 z m 5.0214843,0.0625 c 0,-0.96875 -0.546875,-1.84375 -1.34375,-1.84375 -0.5,0 -0.992187,0.15625 -1.390625,0.453125 V -5.5308177 H 10.554115 V 4.3229167e-4 h 0.6875 V -0.37456771 c 0.179687,0.1484375 0.5625,0.453125 1.140625,0.453125 0.867187,0 1.570312,-0.8125 1.570312,-1.85156249 z m -0.6875,0 c 0,0.96874999 -0.664062,1.32812499 -1.226562,1.32812499 -0.289063,0 -0.570313,-0.1328125 -0.796875,-0.4921875 V -2.5073802 c 0,-0.1328125 0,-0.2265625 0.28125,-0.40625 0.117187,-0.078125 0.335937,-0.1796875 0.609375,-0.1796875 0.53125,0 1.132812,0.359375 1.132812,1.3203125 z m 0,0" style="fill:#ffffff;fill-opacity:1;fill-rule:nonzero;stroke:none" aria-label="Bob" transform="matrix(2,0,0,2,363.24333,144.01867)" />
    <path id="path6" d="M -17.00807,-29.76395 H 17.00809 V -7.08652 H -17.00807 Z" style="fill:#78a9ff;fill-opacity:1;fill-rule:nonzero;stroke:#78a9ff;stroke-width:0.3985;stroke-linecap:butt;stroke-linejoin:miter;stroke-miterlimit:10;stroke-dasharray:none;stroke-opacity:1" transform="matrix(2,0,0,-2,299.54133,195.26067)" />
    <path id="path7" d="M 5.2343802,9.3229167e-4 3.5781302,-2.5771927 c 1.140625,-0.3359375 1.4296875,-1.03125 1.4296875,-1.4609375 0,-0.828125 -0.9765625,-1.4921875 -2.1328125,-1.4921875 H 0.78125521 V 9.3229167e-4 H 1.5625052 V -2.4990677 h 1.3125 L 4.4296927,9.3229167e-4 Z M 4.2812552,-4.0381302 c 0,0.5546875 -0.5546875,1.0078125 -1.5078125,1.0078125 H 1.5625052 v -2.03125 h 1.2109375 c 0.9140625,0 1.5078125,0.4296875 1.5078125,1.0234375 z m 4.7109375,2.296875 c 0,-0.3671875 -0.039063,-0.90625 -0.3515625,-1.359375 -0.2890625,-0.40625 -0.765625,-0.5546875 -1.15625,-0.5546875 -0.96875,0 -1.71875,0.8515625 -1.71875,1.859375 0,1.02343749 0.796875,1.87499999 1.84375,1.87499999 0.46875,0 0.9453125,-0.1328125 1.3515625,-0.3828125 l -0.046875,-0.5625 c -0.453125,0.3203125 -0.953125,0.421875 -1.296875,0.421875 -0.6875,0 -1.21875,-0.57031249 -1.2421875,-1.29687499 z m -0.484375,-0.484375 h -2.078125 c 0.1875,-0.6328125 0.65625,-0.90625 1.0546875,-0.90625 0.3515625,0 0.8671875,0.171875 1.0234375,0.90625 z m 3.6679683,-2.71875 v -0.5859375 c -0.203125,-0.046875 -0.453125,-0.078125 -0.664062,-0.078125 -0.820313,0 -1.421875,0.5859375 -1.421875,1.375 v 0.6953125 H 9.480474 v 0.5 h 0.609375 V 9.3229167e-4 h 0.671875 V -3.0381302 h 0.90625 v -0.5 h -0.929688 v -0.9140625 c 0,-0.5546875 0.5,-0.6328125 0.765625,-0.6328125 0.164063,0 0.382813,0.023437 0.671875,0.140625 z m 3.167969,3.203125 c 0,-0.3671875 -0.03906,-0.90625 -0.351562,-1.359375 -0.289063,-0.40625 -0.765625,-0.5546875 -1.15625,-0.5546875 -0.96875,0 -1.71875,0.8515625 -1.71875,1.859375 0,1.02343749 0.796875,1.87499999 1.84375,1.87499999 0.46875,0 0.945312,-0.1328125 1.351562,-0.3828125 l -0.04687,-0.5625 c -0.453125,0.3203125 -0.953125,0.421875 -1.296875,0.421875 -0.6875,0 -1.21875,-0.57031249 -1.242187,-1.29687499 z m -0.484375,-0.484375 h -2.078125 c 0.1875,-0.6328125 0.65625,-0.90625 1.054688,-0.90625 0.351562,0 0.867187,0.171875 1.023437,0.90625 z m 3.503906,-0.8046875 v -0.5859375 c -0.671875,0.00781 -1.15625,0.3359375 -1.476562,0.7578125 v -0.734375 H 16.277349 V 9.3229167e-4 h 0.664062 V -1.6943802 c 0,-0.859375 0.71875,-1.328125 1.421875,-1.3359375 z m 3.634766,1.2890625 c 0,-0.3671875 -0.03906,-0.90625 -0.351562,-1.359375 -0.289063,-0.40625 -0.765625,-0.5546875 -1.15625,-0.5546875 -0.96875,0 -1.71875,0.8515625 -1.71875,1.859375 0,1.02343749 0.796875,1.87499999 1.84375,1.87499999 0.46875,0 0.945312,-0.1328125 1.351562,-0.3828125 l -0.04687,-0.5625 c -0.453125,0.3203125 -0.953125,0.421875 -1.296875,0.421875 -0.6875,0 -1.21875,-0.57031249 -1.242187,-1.29687499 z m -0.484375,-0.484375 h -2.078125 c 0.1875,-0.6328125 0.65625,-0.90625 1.054688,-0.90625 0.351562,0 0.867187,0.171875 1.023437,0.90625 z m 4.246094,0.484375 c 0,-0.3671875 -0.03906,-0.90625 -0.351563,-1.359375 -0.289062,-0.40625 -0.765625,-0.5546875 -1.15625,-0.5546875 -0.96875,0 -1.71875,0.8515625 -1.71875,1.859375 0,1.02343749 0.796875,1.87499999 1.84375,1.87499999 0.46875,0 0.945313,-0.1328125 1.351563,-0.3828125 l -0.04687,-0.5625 c -0.453125,0.3203125 -0.953125,0.421875 -1.296875,0.421875 -0.6875,0 -1.21875,-0.57031249 -1.242188,-1.29687499 z m -0.484375,-0.484375 h -2.078125 c 0.1875,-0.6328125 0.65625,-0.90625 1.054687,-0.90625 0.351563,0 0.867188,0.171875 1.023438,0.90625 z m 0,0" style="fill:#ffffff;fill-opacity:1;fill-rule:nonzero;stroke:none" aria-label="Referee" transform="matrix(2,0,0,2,273.52733,237.64267)" />
    <path id="path8" d="M -2.83466,2.83467 H 2.83467 V 53.85892 H -2.83466 Z" style="fill:#000000;fill-opacity:1;fill-rule:nonzero;stroke:#000000;stroke-width:0.3985;stroke-linecap:butt;stroke-linejoin:miter;stroke-miterlimit:10;stroke-dasharray:none;stroke-opacity:1" transform="matrix(2,0,0,-2,299.54133,195.26067)" />
    <path id="path9" d="M 5.1718333,-5.5208333e-4 V -5.5318021 h -0.671875 v 4.89843752 h -0.00781 L 1.8827708,-5.5318021 H 0.79683333 V -5.5208333e-4 H 1.4687083 V -4.8989896 h 0.00781 l 2.609375,4.89843751667 z M 9.962849,-1.7427396 c 0,-1.0546875 -0.8359375,-1.9140625 -1.875,-1.9140625 -1.03125,0 -1.8671875,0.8671875 -1.8671875,1.9140625 0,1.00781252 0.84375,1.82031252 1.8671875,1.82031252 1.0390625,0 1.875,-0.8125 1.875,-1.82031252 z m -0.6953125,-0.09375 c 0,0.91406252 -0.5625,1.36718752 -1.1796875,1.36718752 -0.625,0 -1.1796875,-0.4609375 -1.1796875,-1.36718752 0,-0.8984375 0.59375,-1.296875 1.1796875,-1.296875 0.6015625,0 1.1796875,0.4140625 1.1796875,1.296875 z m 7.2792965,1.54687502 -0.04687,-0.578125 c -0.398437,0.25 -0.828125,0.3984375 -1.328125,0.3984375 -0.726562,0 -1.164062,-0.59375002 -1.164062,-1.30468752 0,-0.6171875 0.320312,-1.3359375 1.1875,-1.3359375 0.546875,0 0.796875,0.109375 1.203125,0.3671875 l 0.109375,-0.5703125 c -0.476563,-0.2421875 -0.6875,-0.34375 -1.3125,-0.34375 -1.195313,0 -1.875,0.9609375 -1.875,1.890625 0,0.96875002 0.765625,1.84375002 1.84375,1.84375002 0.5625,0 1.039062,-0.1640625 1.382812,-0.3671875 z m 4.230469,-1.45312502 c 0,-1.0546875 -0.835937,-1.9140625 -1.875,-1.9140625 -1.03125,0 -1.867187,0.8671875 -1.867187,1.9140625 0,1.00781252 0.84375,1.82031252 1.867187,1.82031252 1.039063,0 1.875,-0.8125 1.875,-1.82031252 z m -0.695312,-0.09375 c 0,0.91406252 -0.5625,1.36718752 -1.179688,1.36718752 -0.625,0 -1.179687,-0.4609375 -1.179687,-1.36718752 0,-0.8984375 0.59375,-1.296875 1.179687,-1.296875 0.601563,0 1.179688,0.4140625 1.179688,1.296875 z m 6.998046,1.83593751667 V -2.3599271 c 0,-0.6171875 -0.179687,-1.2578125 -1.164062,-1.2578125 -0.664063,0 -1.078125,0.390625 -1.273438,0.6484375 -0.07813,-0.21875 -0.28125,-0.6484375 -1.078125,-0.6484375 -0.453125,0 -0.890625,0.1796875 -1.242187,0.6015625 v -0.578125 h -0.632813 v 3.59375001667 h 0.6875 V -1.9380521 c 0,-0.5234375 0.226563,-1.15625 0.84375,-1.15625 0.820313,0 0.820313,0.5625 0.820313,0.7890625 v 2.30468751667 h 0.6875 V -1.9380521 c 0,-0.5234375 0.226562,-1.15625 0.835937,-1.15625 0.820313,0 0.820313,0.5625 0.820313,0.7890625 v 2.30468751667 z m 6.726563,0 V -2.3599271 c 0,-0.6171875 -0.179688,-1.2578125 -1.164063,-1.2578125 -0.664062,0 -1.078125,0.390625 -1.273437,0.6484375 -0.07813,-0.21875 -0.28125,-0.6484375 -1.078125,-0.6484375 -0.453125,0 -0.890625,0.1796875 -1.242188,0.6015625 v -0.578125 h -0.632812 v 3.59375001667 h 0.6875 V -1.9380521 c 0,-0.5234375 0.226562,-1.15625 0.84375,-1.15625 0.820312,0 0.820312,0.5625 0.820312,0.7890625 v 2.30468751667 h 0.6875 V -1.9380521 c 0,-0.5234375 0.226563,-1.15625 0.835938,-1.15625 0.820312,0 0.820312,0.5625 0.820312,0.7890625 v 2.30468751667 z m 4.375,0 V -3.5396146 h -0.6875 v 2.3125 c 0,0.64062502 -0.546875,0.83593752 -1.007813,0.83593752 -0.585937,0 -0.65625,-0.15625 -0.65625,-0.5234375 V -3.5396146 h -0.6875 v 2.67187502 c 0,0.7109375 0.304688,0.9453125 0.867188,0.9453125 0.328125,0 1.023437,-0.0625 1.507812,-0.4453125 v 0.36718749667 z m 4.375,0 V -2.3599271 c 0,-0.6171875 -0.179688,-1.2578125 -1.164063,-1.2578125 -0.453125,0 -0.890625,0.1796875 -1.242187,0.6015625 v -0.578125 h -0.632813 v 3.59375001667 h 0.6875 V -1.9380521 c 0,-0.5234375 0.226563,-1.15625 0.84375,-1.15625 0.820313,0 0.820313,0.5625 0.820313,0.7890625 v 2.30468751667 z m 2.009766,0 V -3.5396146 H 43.902302 V -5.5208333e-4 Z M 44.64449,-4.4614896 v -0.8046875 h -0.804688 v 0.8046875 z m 4.117187,4.17187502 -0.04687,-0.578125 c -0.398437,0.25 -0.828125,0.3984375 -1.328125,0.3984375 -0.726562,0 -1.164062,-0.59375002 -1.164062,-1.30468752 0,-0.6171875 0.320312,-1.3359375 1.1875,-1.3359375 0.546875,0 0.796875,0.109375 1.203125,0.3671875 l 0.109375,-0.5703125 c -0.476563,-0.2421875 -0.6875,-0.34375 -1.3125,-0.34375 -1.195313,0 -1.875,0.9609375 -1.875,1.890625 0,0.96875002 0.765625,1.84375002 1.84375,1.84375002 0.5625,0 1.039062,-0.1640625 1.382812,-0.3671875 z m 3.722656,0.28906249667 V -2.2974271 c 0,-0.8125 -0.625,-1.359375 -1.414062,-1.359375 -0.5,0 -0.882813,0.1015625 -1.328125,0.34375 l 0.04687,0.578125 c 0.265625,-0.171875 0.65625,-0.4140625 1.28125,-0.4140625 0.351562,0 0.71875,0.265625 0.71875,0.859375 v 0.3203125 c -1.179688,0.039063 -2.34375,0.2890625 -2.34375,1.03125002 0,0.3984375 0.273437,1.015625 0.976562,1.015625 0.335938,0 0.96875,-0.0703125 1.390625,-0.3828125 V -5.5208333e-4 Z M 51.789021,-1.1333646 c 0,0.16406252 0,0.36718752 -0.28125,0.53125002 -0.25,0.1484375 -0.5625,0.15625 -0.648438,0.15625 -0.4375,0 -0.773437,-0.203125 -0.773437,-0.5 0,-0.51562502 1.34375,-0.56250002 1.703125,-0.57812502 z m 4.103515,0.91406252 -0.132812,-0.5078125 c -0.265625,0.1953125 -0.546875,0.2578125 -0.765625,0.2578125 -0.335938,0 -0.421875,-0.328125 -0.421875,-0.69531252 v -1.875 h 1.179687 v -0.5 h -1.179687 v -1.0078125 h -0.617188 v 1.0078125 h -0.726562 v 0.5 h 0.703125 v 2.015625 c 0,0.53906252 0.140625,1.10156252 0.710937,1.10156252 0.570313,0 1.007813,-0.1796875 1.25,-0.296875 z m 1.576172,0.21874999667 V -3.5396146 H 56.804646 V -5.5208333e-4 Z M 57.546833,-4.4614896 v -0.8046875 h -0.804687 v 0.8046875 z m 4.587891,2.71875 c 0,-1.0546875 -0.835938,-1.9140625 -1.875,-1.9140625 -1.03125,0 -1.867188,0.8671875 -1.867188,1.9140625 0,1.00781252 0.84375,1.82031252 1.867188,1.82031252 1.039062,0 1.875,-0.8125 1.875,-1.82031252 z m -0.695313,-0.09375 c 0,0.91406252 -0.5625,1.36718752 -1.179687,1.36718752 -0.625,0 -1.179688,-0.4609375 -1.179688,-1.36718752 0,-0.8984375 0.59375,-1.296875 1.179688,-1.296875 0.601562,0 1.179687,0.4140625 1.179687,1.296875 z m 4.646485,1.83593751667 V -2.3599271 c 0,-0.6171875 -0.179688,-1.2578125 -1.164063,-1.2578125 -0.453125,0 -0.890625,0.1796875 -1.242187,0.6015625 v -0.578125 h -0.632813 v 3.59375001667 h 0.6875 V -1.9380521 c 0,-0.5234375 0.226563,-1.15625 0.84375,-1.15625 0.820313,0 0.820313,0.5625 0.820313,0.7890625 V -5.5208333e-4 Z M -3.2305104,7.1771823 c 0,-0.96875 -0.546875,-1.84375 -1.34375,-1.84375 -0.5,0 -0.9921875,0.15625 -1.390625,0.453125 V 3.4193698 h -0.6640625 v 5.53125 h 0.6875 v -0.375 c 0.1796875,0.1484375 0.5625,0.453125 1.140625,0.453125 0.8671875,0 1.5703125,-0.8125 1.5703125,-1.8515625 z m -0.6875,0 c 0,0.96875 -0.6640625,1.328125 -1.2265625,1.328125 -0.2890625,0 -0.5703125,-0.1328125 -0.796875,-0.4921875 V 6.4428073 c 0,-0.1328125 0,-0.2265625 0.28125,-0.40625 0.1171875,-0.078125 0.3359375,-0.1796875 0.609375,-0.1796875 0.53125,0 1.1328125,0.359375 1.1328125,1.3203125 z m 4.72460936,0.03125 c 0,-0.3671875 -0.0390625,-0.90625 -0.3515625,-1.359375 -0.2890625,-0.40625 -0.765625,-0.5546875 -1.15625,-0.5546875 -0.96874996,0 -1.71874996,0.8515625 -1.71874996,1.859375 0,1.0234375 0.796875,1.875 1.84374996,1.875 0.46875,0 0.9453125,-0.1328125 1.3515625,-0.3828125 l -0.046875,-0.5625 c -0.453125,0.3203125 -0.953125,0.421875 -1.296875,0.421875 -0.68749996,0 -1.21874996,-0.5703125 -1.24218746,-1.296875 z m -0.484375,-0.484375 H -1.755901 c 0.1875,-0.6328125 0.65625,-0.90625 1.05468746,-0.90625 0.3515625,0 0.8671875,0.171875 1.0234375,0.90625 z M 3.8808177,8.7318698 3.7480052,8.2240573 c -0.265625,0.1953125 -0.546875,0.2578125 -0.765625,0.2578125 -0.3359375,0 -0.421875,-0.328125 -0.421875,-0.6953125 v -1.875 h 1.1796875 v -0.5 H 2.5605052 V 4.4037448 H 1.9433177 V 5.4115573 H 1.2167552 v 0.5 h 0.703125 v 2.015625 c 0,0.5390625 0.140625,1.1015625 0.7109375,1.1015625 0.5703125,0 1.0078125,-0.1796875 1.25,-0.296875 z M 9.5468333,5.4115573 H 8.9296458 l -0.765625,2.3984375 c -0.0625,0.234375 -0.1484375,0.484375 -0.171875,0.671875 h -0.00781 c -0.046875,-0.328125 -0.328125,-1.1875 -0.34375,-1.2421875 l -0.58594,-1.828125 h -0.609375 c -0.2265625,0.6875 -0.828125,2.46875 -0.890625,3.0546875 h -0.00781 c -0.0625,-0.5703125 -0.6484375,-2.328125 -0.78125,-2.7109375 -0.0625,-0.1953125 -0.0625,-0.2109375 -0.1015625,-0.34375 h -0.65625 l 1.1640625,3.5390625 h 0.671875 l 0.5,-1.546875 c 0.1171875,-0.390625 0.359375,-1.15625 0.3984375,-1.5078125 l 0.00781,-0.00781 c 0.015625,0.171875 0.0625,0.34375 0.1171875,0.546875 l 0.171875,0.59375 0.609375,1.921875 h 0.734375 z m 3.3984377,1.796875 c 0,-0.3671875 -0.03906,-0.90625 -0.351563,-1.359375 -0.289062,-0.40625 -0.765625,-0.5546875 -1.15625,-0.5546875 -0.96875,0 -1.7187497,0.8515625 -1.7187497,1.859375 0,1.0234375 0.7968747,1.875 1.8437497,1.875 0.46875,0 0.945313,-0.1328125 1.351563,-0.3828125 l -0.04687,-0.5625 c -0.453125,0.3203125 -0.953125,0.421875 -1.296875,0.421875 -0.6875,0 -1.21875,-0.5703125 -1.242188,-1.296875 z m -0.484375,-0.484375 h -2.078125 c 0.1875,-0.6328125 0.65625,-0.90625 1.054687,-0.90625 0.351563,0 0.867188,0.171875 1.023438,0.90625 z m 4.246094,0.484375 c 0,-0.3671875 -0.03906,-0.90625 -0.351563,-1.359375 -0.289062,-0.40625 -0.765625,-0.5546875 -1.15625,-0.5546875 -0.96875,0 -1.71875,0.8515625 -1.71875,1.859375 0,1.0234375 0.796875,1.875 1.84375,1.875 0.46875,0 0.945313,-0.1328125 1.351563,-0.3828125 l -0.04687,-0.5625 c -0.453125,0.3203125 -0.953125,0.421875 -1.296875,0.421875 -0.6875,0 -1.21875,-0.5703125 -1.242188,-1.296875 z M 16.222615,6.7240573 H 14.14449 c 0.1875,-0.6328125 0.65625,-0.90625 1.054687,-0.90625 0.351563,0 0.867188,0.171875 1.023438,0.90625 z m 4.441406,2.2265625 v -2.359375 c 0,-0.6171875 -0.179688,-1.2578125 -1.164063,-1.2578125 -0.453125,0 -0.890625,0.1796875 -1.242187,0.6015625 v -0.578125 h -0.632813 v 3.59375 h 0.6875 v -1.9375 c 0,-0.5234375 0.226563,-1.15625 0.84375,-1.15625 0.820313,0 0.820313,0.5625 0.820313,0.7890625 v 2.3046875 z m 8.884765,0 -2.195312,-5.53125 h -0.773438 l -2.1875,5.53125 h 0.648438 l 0.625,-1.578125 h 2.421875 l 0.617187,1.578125 z m -1.664062,-2.046875 h -2.023438 l 1.023438,-2.875 z m 3.244141,2.046875 v -5.53125 h -0.664063 v 5.53125 z m 2.015625,0 V 5.4115573 H 32.480427 V 8.9506198 Z M 33.22262,4.4896823 V 3.6849948 h -0.804688 v 0.8046875 z m 4.11914,4.171875 -0.04687,-0.578125 c -0.398437,0.25 -0.828125,0.3984375 -1.328125,0.3984375 -0.726562,0 -1.164062,-0.59375 -1.164062,-1.3046875 0,-0.6171875 0.320312,-1.3359375 1.1875,-1.3359375 0.546875,0 0.796875,0.109375 1.203125,0.3671875 l 0.109375,-0.5703125 c -0.476563,-0.2421875 -0.6875,-0.34375 -1.3125,-0.34375 -1.195313,0 -1.875,0.9609375 -1.875,1.890625 0,0.96875 0.765625,1.84375 1.84375,1.84375 0.5625,0 1.039062,-0.1640625 1.382812,-0.3671875 z m 3.753906,-1.453125 c 0,-0.3671875 -0.03906,-0.90625 -0.351562,-1.359375 -0.289063,-0.40625 -0.765625,-0.5546875 -1.15625,-0.5546875 -0.96875,0 -1.71875,0.8515625 -1.71875,1.859375 0,1.0234375 0.796875,1.875 1.84375,1.875 0.46875,0 0.945312,-0.1328125 1.351562,-0.3828125 l -0.04687,-0.5625 c -0.453125,0.3203125 -0.953125,0.421875 -1.296875,0.421875 -0.6875,0 -1.21875,-0.5703125 -1.242187,-1.296875 z m -0.484375,-0.484375 h -2.078125 c 0.1875,-0.6328125 0.65625,-0.90625 1.054688,-0.90625 0.351562,0 0.867187,0.171875 1.023437,0.90625 z m 7.03711,2.2265625 v -2.296875 c 0,-0.8125 -0.625,-1.359375 -1.414063,-1.359375 -0.5,0 -0.882812,0.1015625 -1.328125,0.34375 l 0.04687,0.578125 c 0.265625,-0.171875 0.65625,-0.4140625 1.28125,-0.4140625 0.351563,0 0.71875,0.265625 0.71875,0.859375 v 0.3203125 c -1.179687,0.039063 -2.34375,0.2890625 -2.34375,1.03125 0,0.3984375 0.273438,1.015625 0.976563,1.015625 0.335937,0 0.96875,-0.070312 1.390625,-0.3828125 V 8.9506198 Z M 46.953083,7.8178073 c 0,0.1640625 0,0.3671875 -0.28125,0.53125 -0.25,0.1484375 -0.5625,0.15625 -0.648437,0.15625 -0.4375,0 -0.773438,-0.203125 -0.773438,-0.5 0,-0.515625 1.34375,-0.5625 1.703125,-0.578125 z m 4.986328,1.1328125 v -2.359375 c 0,-0.6171875 -0.179687,-1.2578125 -1.164062,-1.2578125 -0.453125,0 -0.890625,0.1796875 -1.242188,0.6015625 v -0.578125 h -0.632812 v 3.59375 h 0.6875 v -1.9375 c 0,-0.5234375 0.226562,-1.15625 0.84375,-1.15625 0.820312,0 0.820312,0.5625 0.820312,0.7890625 v 2.3046875 z m 4.359375,0 v -5.53125 h -0.664062 v 2.3359375 c -0.515625,-0.375 -1.03125,-0.421875 -1.265625,-0.421875 -0.835938,0 -1.46875,0.8359375 -1.46875,1.8515625 0,1.0078125 0.625,1.84375 1.445312,1.84375 0.5,0 0.960938,-0.21875 1.265625,-0.4921875 v 0.4140625 z m -0.6875,-0.984375 c -0.203125,0.3203125 -0.507812,0.5390625 -0.890625,0.5390625 -0.554687,0 -1.132812,-0.390625 -1.132812,-1.3125 0,-1 0.679687,-1.3359375 1.226562,-1.3359375 0.3125,0 0.585938,0.140625 0.796875,0.40625 z m 9.361329,-0.515625 c 0,-0.703125 -0.742188,-1.265625 -1.625,-1.390625 0.828125,-0.203125 1.382812,-0.6796875 1.382812,-1.25 0,-0.734375 -0.914062,-1.390625 -2.085937,-1.390625 h -2.039063 v 5.53125 h 2.273438 c 1.179687,0 2.09375,-0.703125 2.09375,-1.5 z M 64.042927,4.8178073 c 0,0.53125 -0.726562,0.9921875 -1.625,0.9921875 h -1.0625 v -1.921875 h 1.054688 c 0.890625,0 1.632812,0.4140625 1.632812,0.9296875 z m 0.203125,2.625 c 0,0.59375 -0.742187,1.0390625 -1.617187,1.0390625 H 61.355427 V 6.3334323 h 1.140625 c 1,0 1.75,0.515625 1.75,1.109375 z m 5.189453,-0.234375 c 0,-1.0546875 -0.835937,-1.9140625 -1.875,-1.9140625 -1.03125,0 -1.867187,0.8671875 -1.867187,1.9140625 0,1.0078125 0.84375,1.8203125 1.867187,1.8203125 1.039063,0 1.875,-0.8125 1.875,-1.8203125 z m -0.695312,-0.09375 c 0,0.9140625 -0.5625,1.3671875 -1.179688,1.3671875 -0.625,0 -1.179687,-0.4609375 -1.179687,-1.3671875 0,-0.8984375 0.59375,-1.296875 1.179687,-1.296875 0.601563,0 1.179688,0.4140625 1.179688,1.296875 z m 5.021484,0.0625 c 0,-0.96875 -0.546875,-1.84375 -1.34375,-1.84375 -0.5,0 -0.992187,0.15625 -1.390625,0.453125 V 3.4193698 H 70.36324 v 5.53125 h 0.6875 v -0.375 c 0.179687,0.1484375 0.5625,0.453125 1.140625,0.453125 0.867187,0 1.570312,-0.8125 1.570312,-1.8515625 z m -0.6875,0 c 0,0.96875 -0.664062,1.328125 -1.226562,1.328125 -0.289063,0 -0.570313,-0.1328125 -0.796875,-0.4921875 V 6.4428073 c 0,-0.1328125 0,-0.2265625 0.28125,-0.40625 0.117187,-0.078125 0.335937,-0.1796875 0.609375,-0.1796875 0.53125,0 1.132812,0.359375 1.132812,1.3203125 z m 0,0" style="fill:#121619;fill-opacity:1;fill-rule:nonzero;stroke:none" aria-label="Nocommunication&#10;betweenAliceandBob" transform="matrix(2,0,0,2,232.78133,53.602667)" />
    <path id="path10" d="m -17.20732,-24.09457 h -25.44632 c -1.10048,0 -1.99256,0.89207 -1.99256,1.99255 v 35.32431" style="fill:none;stroke:#121619;stroke-width:0.3985;stroke-linecap:butt;stroke-linejoin:miter;stroke-miterlimit:10;stroke-dasharray:none;stroke-opacity:1" transform="matrix(2,0,0,-2,299.54133,195.26067)" />
    <path id="path11" d="M 3.58653,0 C 2.52383,0.19925 0.797,0.797 -0.3985,1.49438 V -1.49438 C 0.797,-0.797 2.52383,-0.19925 3.58653,0" style="fill:#121619;fill-opacity:1;fill-rule:nonzero;stroke:none" transform="matrix(0,-2,-2,0,210.24893,168.81609)" />
    <path id="path12" d="m 3.992474,-3.1787865 c -0.3515625,0.085937 -0.3671875,0.3984375 -0.3671875,0.4296875 0,0.1796875 0.1328125,0.296875 0.3125,0.296875 0.171875,0 0.4453125,-0.140625 0.4453125,-0.4765625 0,-0.4609375 -0.5,-0.5859375 -0.796875,-0.5859375 -0.375,0 -0.6796875,0.265625 -0.859375,0.578125 -0.1796875,-0.421875 -0.59375,-0.578125 -0.9140625,-0.578125 -0.87500004,0 -1.35937504,1 -1.35937504,1.21875 0,0.070312 0.0546875,0.1015625 0.1171875,0.1015625 0.1015625,0 0.1171875,-0.039063 0.140625,-0.1328125 0.1796875,-0.578125 0.65625004,-0.9609375 1.07031254,-0.9609375 0.3125,0 0.46875,0.21875 0.46875,0.5078125 0,0.15625 -0.1015625,0.5234375 -0.1640625,0.78125 -0.054687,0.234375 -0.2265625,0.9375 -0.265625,1.09375004 -0.1171875,0.4296875 -0.3984375,0.765625 -0.7578125,0.765625 -0.03125,0 -0.24218754,0 -0.40625004,-0.1171875 0.36718754,-0.0859375 0.36718754,-0.421875 0.36718754,-0.4296875 0,-0.1796875 -0.14843754,-0.2890625 -0.32031254,-0.2890625 -0.21875,0 -0.4453125,0.1796875 -0.4453125,0.484375 0,0.3671875 0.390625,0.5703125 0.79687504,0.5703125 0.421875,0 0.7109375,-0.3203125 0.859375,-0.5703125 0.171875,0.390625 0.5390625,0.5703125 0.921875,0.5703125 0.8671875,0 1.3515625,-0.9921875 1.3515625,-1.21875004 0,-0.078125 -0.070312,-0.1015625 -0.125,-0.1015625 -0.09375,0 -0.109375,0.054687 -0.1328125,0.1328125 -0.1640625,0.53906254 -0.6171875,0.96875004 -1.078125,0.96875004 -0.2578125,0 -0.453125,-0.1796875 -0.453125,-0.515625 0,-0.15625 0.046875,-0.34375 0.15625,-0.78906254 0.0625,-0.234375 0.234375,-0.9375 0.2734375,-1.0859375 0.109375,-0.4140625 0.390625,-0.7578125 0.75,-0.7578125 0.039063,0 0.25,0 0.4140625,0.109375 z m 0,0" style="fill:#121619;fill-opacity:1;fill-rule:nonzero;stroke:none" aria-label="x" transform="matrix(2,0,0,2,195.00333,205.97867)" />
    <path id="path13" d="m 17.20732,-24.09457 h 25.44632 c 1.10048,0 1.99256,0.89207 1.99256,1.99255 v 35.32431" style="fill:none;stroke:#121619;stroke-width:0.3985;stroke-linecap:butt;stroke-linejoin:miter;stroke-miterlimit:10;stroke-dasharray:none;stroke-opacity:1" transform="matrix(2,0,0,-2,299.54133,195.26067)" />
    <path id="path14" d="M 3.58653,0 C 2.52383,0.19925 0.797,0.797 -0.3985,1.49438 V -1.49438 C 0.797,-0.797 2.52383,-0.19925 3.58653,0" style="fill:#121619;fill-opacity:1;fill-rule:nonzero;stroke:none" transform="matrix(0,-2,-2,0,388.83373,168.81609)" />
    <path id="path15" d="m 4.1257708,-3.0083333 c 0.03125,-0.109375 0.03125,-0.125 0.03125,-0.1796875 0,-0.203125 -0.15625,-0.25 -0.25,-0.25 -0.039063,0 -0.2265625,0.00781 -0.328125,0.21875 -0.015625,0.039063 -0.085937,0.328125 -0.125,0.4921875 l -0.484375,1.91406247 c -0.00781,0.0234375 -0.34375,0.671875 -0.9296875,0.671875 -0.390625,0 -0.5234375,-0.2890625 -0.5234375,-0.6484375 0,-0.46093747 0.265625,-1.17187497 0.453125,-1.63281247 0.078125,-0.203125 0.1015625,-0.2734375 0.1015625,-0.4140625 0,-0.4375 -0.3515625,-0.6796875 -0.71875,-0.6796875 -0.78906247,0 -1.10937497,1.125 -1.10937497,1.21875 0,0.070312 0.0546875,0.1015625 0.1171875,0.1015625 0.1015625,0 0.109375,-0.046875 0.1328125,-0.125 0.2109375,-0.6953125 0.55468747,-0.96875 0.83593747,-0.96875 0.125,0 0.1953125,0.078125 0.1953125,0.2578125 0,0.171875 -0.0625,0.3515625 -0.1171875,0.5 -0.328125,0.84375 -0.46874997,1.25 -0.46874997,1.62499997 0,0.78125 0.59374997,0.984375 1.06249997,0.984375 0.375,0 0.6484375,-0.1640625 0.8359375,-0.3515625 -0.109375,0.4453125 -0.1875,0.7578125 -0.4921875,1.140625 -0.265625,0.32812503 -0.5859375,0.53906253 -0.9375,0.53906253 -0.140625,0 -0.44531247,-0.03125 -0.60156247,-0.265625 0.42187497,-0.03125 0.45312497,-0.39062503 0.45312497,-0.43750003 0,-0.1953125 -0.140625,-0.296875 -0.31249997,-0.296875 -0.171875,0 -0.453125,0.1328125 -0.453125,0.5234375 0,0.37500003 0.34375,0.69531253 0.91406247,0.69531253 0.8125,0 1.7265625,-0.65625003 1.9609375,-1.61718753 z m 0,0" style="fill:#121619;fill-opacity:1;fill-rule:nonzero;stroke:none" aria-label="y" transform="matrix(2,0,0,2,394.54533,208.51667)" />
    <path id="path16" d="m -33.3075,16.80884 v -27.57216 c 0,-1.10048 0.89208,-1.99255 1.99256,-1.99255 h 10.52107" style="fill:none;stroke:#121619;stroke-width:0.3985;stroke-linecap:butt;stroke-linejoin:miter;stroke-miterlimit:10;stroke-dasharray:none;stroke-opacity:1" transform="matrix(2,0,0,-2,299.54133,195.26067)" />
    <path id="path17" d="M 3.58653,0 C 2.52383,0.19925 0.797,0.797 -0.3985,1.49438 V -1.49438 C 0.797,-0.797 2.52383,-0.19925 3.58653,0" style="fill:#121619;fill-opacity:1;fill-rule:nonzero;stroke:none" transform="matrix(2,0,0,-2,257.95359,220.77241)" />
    <path id="path18" d="M 3.1246927,-3.0400365 C 3.0543802,-3.172849 2.8200052,-3.516599 2.3356302,-3.516599 c -0.953125,0 -1.99218749,1.109375 -1.99218749,2.2890625 0,0.82812504 0.53125,1.30468754 1.14843749,1.30468754 0.5078125,0 0.9453125,-0.40625 1.0859375,-0.5625 0.1484375,0.546875 0.6875,0.5625 0.78125,0.5625 0.3671875,0 0.5546875,-0.3046875 0.6171875,-0.4375 0.15625,-0.2890625 0.2734375,-0.75000004 0.2734375,-0.78125004 0,-0.046875 -0.03125,-0.1015625 -0.1328125,-0.1015625 -0.09375,0 -0.109375,0.046875 -0.15625,0.2421875 -0.109375,0.44531254 -0.265625,0.85937504 -0.5703125,0.85937504 -0.1875,0 -0.2578125,-0.15625 -0.2578125,-0.375 0,-0.140625 0.070312,-0.40625 0.1171875,-0.60937504 0.046875,-0.1953125 0.171875,-0.6796875 0.203125,-0.8203125 l 0.15625,-0.6015625 c 0.039063,-0.1953125 0.125,-0.53125 0.125,-0.5703125 0,-0.1796875 -0.1484375,-0.2421875 -0.25,-0.2421875 -0.125,0 -0.3203125,0.078125 -0.359375,0.3203125 z m -0.546875,2.17968754 c -0.3984375,0.546875 -0.8125,0.71875 -1.0625,0.71875 -0.3671875,0 -0.55468749,-0.3359375 -0.55468749,-0.75 0,-0.37500004 0.21874999,-1.22656254 0.39062499,-1.57812504 0.234375,-0.484375 0.625,-0.8203125 0.9921875,-0.8203125 0.515625,0 0.671875,0.578125 0.671875,0.671875 0,0.039063 -0.203125,0.8125 -0.25,1.0234375 -0.1015625,0.375 -0.1015625,0.390625 -0.1875,0.73437504 z m 0,0" style="fill:#121619;fill-opacity:1;fill-rule:nonzero;stroke:none" aria-label="a" transform="matrix(2,0,0,2,238.63733,194.63867)" />
    <path id="path19" d="m 33.3075,16.80884 v -27.57216 c 0,-1.10048 -0.89208,-1.99255 -1.99256,-1.99255 H 20.79387" style="fill:none;stroke:#121619;stroke-width:0.3985;stroke-linecap:butt;stroke-linejoin:miter;stroke-miterlimit:10;stroke-dasharray:none;stroke-opacity:1" transform="matrix(2,0,0,-2,299.54133,195.26067)" />
    <path id="path20" d="M 3.58653,0 C 2.52383,0.19925 0.797,0.797 -0.3985,1.49438 V -1.49438 C 0.797,-0.797 2.52383,-0.19925 3.58653,0" style="fill:#121619;fill-opacity:1;fill-rule:nonzero;stroke:none" transform="matrix(-2,0,0,2,341.12907,220.77241)" />
    <path id="path21" d="m 1.9452552,-5.2893021 c 0.00781,-0.015625 0.03125,-0.125 0.03125,-0.1328125 0,-0.039063 -0.03125,-0.109375 -0.125,-0.109375 -0.03125,0 -0.28125,0.023437 -0.46875,0.039063 l -0.44531249,0.03125 c -0.171875,0.015625 -0.25,0.023437 -0.25,0.171875 0,0.109375 0.109375,0.109375 0.203125,0.109375 0.38281249,0 0.38281249,0.046875 0.38281249,0.1171875 0,0.046875 -0.078125,0.3671875 -0.125,0.5546875 l -0.69531249,2.7734375 c -0.0625,0.265625 -0.0625,0.390625 -0.0625,0.5234375 0,0.82031252 0.5,1.28906252 1.11718749,1.28906252 0.9765625,0 2,-1.13281252 2,-2.28906252 0,-0.7890625 -0.5078125,-1.3046875 -1.1484375,-1.3046875 -0.4453125,0 -0.7890625,0.2890625 -0.9609375,0.4375 z m -0.4375,5.14843752 c -0.2890625,0 -0.57812499,-0.2265625 -0.57812499,-0.8046875 0,-0.21875002 0.03125,-0.41406252 0.13281249,-0.79687502 0.054687,-0.234375 0.109375,-0.4609375 0.171875,-0.6875 0.039063,-0.140625 0.039063,-0.1640625 0.1328125,-0.28125 0.2734375,-0.3359375 0.6328125,-0.578125 0.96875,-0.578125 0.3984375,0 0.546875,0.390625 0.546875,0.75 0,0.2890625 -0.171875,1.140625 -0.4140625,1.61718752 -0.203125,0.4296875 -0.5859375,0.78125 -0.9609375,0.78125 z m 0,0" style="fill:#121619;fill-opacity:1;fill-rule:nonzero;stroke:none" aria-label="b" transform="matrix(2,0,0,2,353.19933,196.74267)" />
  </g>
</svg>