<?xml version="1.0" encoding="UTF-8"?><!DOCTYPE svg  PUBLIC '-//W3C//DTD SVG 1.1//EN'  'http://www.w3.org/Graphics/SVG/1.1/DTD/svg11.dtd'><svg width="918.63pt" height="272.31pt" version="1.1" viewBox="0 0 918.63 272.31" xmlns="http://www.w3.org/2000/svg" xmlns:xlink="http://www.w3.org/1999/xlink"><defs><style type="text/css">*{stroke-linejoin: round; stroke-linecap: butt}</style></defs><path d="m0 272.31h918.63v-272.31h-918.63z" fill="#ffffff"/><path d="m114.14 51.883h792.65" clip-path="url(#c3e3774a421)" fill="none" stroke="#000000" stroke-linecap="square" stroke-width="2"/><path d="m114.14 98.237h792.65" clip-path="url(#c3e3774a421)" fill="none" stroke="#000000" stroke-linecap="square" stroke-width="2"/><path d="m114.14 144.59h792.65" clip-path="url(#c3e3774a421)" fill="none" stroke="#000000" stroke-linecap="square" stroke-width="2"/><path d="m114.14 190.95h792.65" clip-path="url(#c3e3774a421)" fill="none" stroke="#000000" stroke-linecap="square" stroke-width="2"/><path d="m123.41 241.93 4.6354-9.2708" clip-path="url(#c3e3774a421)" fill="none" stroke="#778899" stroke-linecap="square" stroke-width="1.5"/><path d="m114.14 235.79h792.65" clip-path="url(#c3e3774a421)" fill="none" stroke="#778899" stroke-linecap="square" stroke-width="2"/><path d="m114.14 238.81h792.65" clip-path="url(#c3e3774a421)" fill="none" stroke="#778899" stroke-linecap="square" stroke-width="2"/><path d="m735.75 226.75h12.052l-6.026 8.6914z" clip-path="url(#c3e3774a421)" fill="#778899"/><path d="m782.1 226.75h12.052l-6.026 8.6914z" clip-path="url(#c3e3774a421)" fill="#778899"/><path d="m828.46 226.75h12.052l-6.026 8.6914z" clip-path="url(#c3e3774a421)" fill="#778899"/><path d="m874.81 226.75h12.052l-6.026 8.6914z" clip-path="url(#c3e3774a421)" fill="#778899"/><g transform="translate(7.2 14.8) scale(.1 -.1)"><defs><path id="DejaVuSans-2a" transform="scale(.015625)" d="m3809 666v1253h-1031v519h1656v-2004q-365-259-806-392-440-133-940-133-1094 0-1712 639-617 640-617 1780 0 1144 617 1783 618 639 1712 639 456 0 867-113 411-112 758-331v-672q-350 297-744 447t-828 150q-857 0-1287-478-429-478-429-1425 0-944 429-1422 430-478 1287-478 334 0 596 58 263 58 472 180z"/><path id="DejaVuSans-4f" transform="scale(.015625)" d="m603 4863h575v-4863h-575v4863z"/><path id="DejaVuSans-52" transform="scale(.015625)" d="m1959 3097q-462 0-731-361t-269-989 267-989q268-361 733-361 460 0 728 362 269 363 269 988 0 622-269 986-268 364-728 364zm0 487q750 0 1178-488 429-487 429-1349 0-859-429-1349-428-489-1178-489-753 0-1180 489-426 490-426 1349 0 862 426 1349 427 488 1180 488z"/><path id="DejaVuSans-45" transform="scale(.015625)" d="m3116 1747q0 634-261 995t-717 361q-457 0-718-361t-261-995 261-995 718-361q456 0 717 361t261 995zm-1957 1222q182 312 458 463 277 152 661 152 638 0 1036-506 399-506 399-1331t-399-1332q-398-506-1036-506-384 0-661 152-276 152-458 464v-525h-578v4863h578v-1894z"/><path id="DejaVuSans-44" transform="scale(.015625)" d="m2194 1759q-697 0-966-159t-269-544q0-306 202-486 202-179 548-179 479 0 768 339t289 901v128h-572zm1147 238v-1997h-575v531q-197-318-491-470t-719-152q-537 0-855 302-317 302-317 808 0 590 395 890 396 300 1180 300h807v57q0 397-261 614t-733 217q-300 0-585-72-284-72-546-216v532q315 122 612 182 297 61 578 61 760 0 1135-394 375-393 375-1193z"/><path id="DejaVuSans-33" transform="scale(.015625)" d="m1259 4147v-1753h794q441 0 681 228 241 228 241 650 0 419-241 647-240 228-681 228h-794zm-631 519h1425q785 0 1186-355 402-355 402-1039 0-691-402-1044-401-353-1186-353h-794v-1875h-631v4666z"/><path id="DejaVuSans-4b" transform="scale(.015625)" d="m3513 2113v-2113h-575v2094q0 497-194 743-194 247-581 247-466 0-735-297-269-296-269-809v-1978h-578v4863h578v-1907q207 316 486 472 280 156 646 156 603 0 912-373 310-373 310-1098z"/><path id="DejaVuSans-56" transform="scale(.015625)" d="m2834 3397v-544q-243 125-506 187-262 63-544 63-428 0-642-131t-214-394q0-200 153-314t616-217l197-44q612-131 870-370t258-667q0-488-386-773-386-284-1061-284-281 0-586 55t-642 164v594q319-166 628-249 309-82 613-82 406 0 624 139 219 139 219 392 0 234-158 359-157 125-692 241l-200 47q-534 112-772 345-237 233-237 639 0 494 350 762 350 269 994 269 318 0 599-47 282-46 519-140z"/><path id="DejaVuSans-48" transform="scale(.015625)" d="m3597 1894v-281h-2644q38-594 358-905t892-311q331 0 642 81t618 244v-544q-310-131-635-200t-659-69q-838 0-1327 487-489 488-489 1320 0 859 464 1363 464 505 1252 505 706 0 1117-455 411-454 411-1235zm-575 169q-6 471-264 752-258 282-683 282-481 0-770-272t-333-766l2050 4z"/><path id="DejaVuSans-1d" transform="scale(.015625)" d="m750 794h659v-794h-659v794zm0 2515h659v-793h-659v793z"/><path id="DejaVuSans-1a" transform="scale(.015625)" d="m525 4666h3e3v-269l-1694-4397h-659l1594 4134h-2241v532z"/><path id="DejaVuSans-Oblique-354" transform="scale(.015625)" d="m584 3500h3354l-113-575h-441l-418-2150q-44-225 15-325 57-97 228-97 47 0 116 10 72 6 94 9l-81-416q-116-40-235-59-122-19-237-19-375 0-478 203-104 207 3 757l406 2087h-1291l-568-2925h-588l569 2925h-447l112 575z"/><path id="DejaVuSans-12" transform="scale(.015625)" d="m1625 4666h531l-1625-5260h-531l1625 5260z"/><path id="DejaVuSans-17" transform="scale(.015625)" d="m2419 4116-1594-2491h1594v2491zm-166 550h794v-3041h666v-525h-666v-1100h-628v1100h-2106v609l1940 2957z"/></defs><use transform="translate(0 .015625)" xlink:href="#DejaVuSans-2a"/><use transform="translate(77.49 .015625)" xlink:href="#DejaVuSans-4f"/><use transform="translate(105.27 .015625)" xlink:href="#DejaVuSans-52"/><use transform="translate(166.46 .015625)" xlink:href="#DejaVuSans-45"/><use transform="translate(229.93 .015625)" xlink:href="#DejaVuSans-44"/><use transform="translate(291.21 .015625)" xlink:href="#DejaVuSans-4f"/><use transform="translate(318.99 .015625)" xlink:href="#DejaVuSans-3"/><use transform="translate(350.78 .015625)" xlink:href="#DejaVuSans-33"/><use transform="translate(411.08 .015625)" xlink:href="#DejaVuSans-4b"/><use transform="translate(474.46 .015625)" xlink:href="#DejaVuSans-44"/><use transform="translate(535.74 .015625)" xlink:href="#DejaVuSans-56"/><use transform="translate(587.84 .015625)" xlink:href="#DejaVuSans-48"/><use transform="translate(649.37 .015625)" xlink:href="#DejaVuSans-1d"/><use transform="translate(683.06 .015625)" xlink:href="#DejaVuSans-3"/><use transform="translate(714.84 .015625)" xlink:href="#DejaVuSans-1a"/><use transform="translate(778.47 .015625)" xlink:href="#DejaVuSans-Oblique-354"/><use transform="translate(838.67 .015625)" xlink:href="#DejaVuSans-12"/><use transform="translate(872.36 .015625)" xlink:href="#DejaVuSans-17"/></g><path d="m109.51 28.706h-1158.8v278.12h1158.8z" clip-path="url(#c3e3774a421)" fill="#ffffff" stroke="#ffffff" stroke-width="1.5"/><path d="m278.24 98.237v-46.354" clip-path="url(#c3e3774a421)" fill="none" stroke="#33b1ff" stroke-linecap="square" stroke-width="2"/><path d="m417.3 144.59v-92.708" clip-path="url(#c3e3774a421)" fill="none" stroke="#33b1ff" stroke-linecap="square" stroke-width="2"/><path d="m556.36 190.95v-46.354" clip-path="url(#c3e3774a421)" fill="none" stroke="#33b1ff" stroke-linecap="square" stroke-width="2"/><path d="m743.28 98.237v128.52" clip-path="url(#c3e3774a421)" fill="none" stroke="#778899" stroke-linecap="square" stroke-width="2"/><path d="m740.27 98.237v128.52" clip-path="url(#c3e3774a421)" fill="none" stroke="#778899" stroke-linecap="square" stroke-width="2"/><path d="m789.64 51.883v174.87" clip-path="url(#c3e3774a421)" fill="none" stroke="#778899" stroke-linecap="square" stroke-width="2"/><path d="m786.62 51.883v174.87" clip-path="url(#c3e3774a421)" fill="none" stroke="#778899" stroke-linecap="square" stroke-width="2"/><path d="m835.99 144.59v82.162" clip-path="url(#c3e3774a421)" fill="none" stroke="#778899" stroke-linecap="square" stroke-width="2"/><path d="m832.98 144.59v82.162" clip-path="url(#c3e3774a421)" fill="none" stroke="#778899" stroke-linecap="square" stroke-width="2"/><path d="m882.34 190.95v35.808" clip-path="url(#c3e3774a421)" fill="none" stroke="#778899" stroke-linecap="square" stroke-width="2"/><path d="m879.33 190.95v35.808" clip-path="url(#c3e3774a421)" fill="none" stroke="#778899" stroke-linecap="square" stroke-width="2"/><path d="m278.24 98.237v-46.354" clip-path="url(#c3e3774a421)" fill="none" stroke="#33b1ff" stroke-linecap="square" stroke-width="2"/><path d="m417.3 144.59v-92.708" clip-path="url(#c3e3774a421)" fill="none" stroke="#33b1ff" stroke-linecap="square" stroke-width="2"/><path d="m556.36 190.95v-46.354" clip-path="url(#c3e3774a421)" fill="none" stroke="#33b1ff" stroke-linecap="square" stroke-width="2"/><path d="m686.38 121.41h18.078v-46.354h-18.078z" clip-path="url(#c3e3774a421)" fill="#a8a8a8" opacity=".6"/><path d="m686.38 75.06h18.078v-46.354h-18.078z" clip-path="url(#c3e3774a421)" fill="#a8a8a8" opacity=".6"/><path d="m686.38 167.77h18.078v-46.354h-18.078z" clip-path="url(#c3e3774a421)" fill="#a8a8a8" opacity=".6"/><path d="m686.38 214.12h18.078v-46.354h-18.078z" clip-path="url(#c3e3774a421)" fill="#a8a8a8" opacity=".6"/><path d="m124.11 66.948h30.13v-30.13h-30.13z" clip-path="url(#c3e3774a421)" fill="#33b1ff" stroke="#33b1ff" stroke-width="1.5"/><path d="m124.11 113.3h30.13v-30.13h-30.13z" clip-path="url(#c3e3774a421)" fill="#33b1ff" stroke="#33b1ff" stroke-width="1.5"/><path d="m124.11 159.66h30.13v-30.13h-30.13z" clip-path="url(#c3e3774a421)" fill="#33b1ff" stroke="#33b1ff" stroke-width="1.5"/><path d="m124.11 206.01h30.13v-30.13h-30.13z" clip-path="url(#c3e3774a421)" fill="#33b1ff" stroke="#33b1ff" stroke-width="1.5"/><path d="m170.46 66.948h30.13v-30.13h-30.13z" clip-path="url(#c3e3774a421)" fill="#9f1853" stroke="#9f1853" stroke-width="1.5"/><path d="m170.46 113.3h30.13v-30.13h-30.13z" clip-path="url(#c3e3774a421)" fill="#9f1853" stroke="#9f1853" stroke-width="1.5"/><path d="m170.46 159.66h30.13v-30.13h-30.13z" clip-path="url(#c3e3774a421)" fill="#9f1853" stroke="#9f1853" stroke-width="1.5"/><path d="m170.46 206.01h30.13v-30.13h-30.13z" clip-path="url(#c3e3774a421)" fill="#9f1853" stroke="#9f1853" stroke-width="1.5"/><path d="m216.82 66.948h30.13v-30.13h-30.13z" clip-path="url(#c3e3774a421)" fill="#33b1ff" stroke="#33b1ff" stroke-width="1.5"/><path d="m216.82 113.3h30.13v-30.13h-30.13z" clip-path="url(#c3e3774a421)" fill="#33b1ff" stroke="#33b1ff" stroke-width="1.5"/><path d="m216.82 159.66h30.13v-30.13h-30.13z" clip-path="url(#c3e3774a421)" fill="#33b1ff" stroke="#33b1ff" stroke-width="1.5"/><path d="m216.82 206.01h30.13v-30.13h-30.13z" clip-path="url(#c3e3774a421)" fill="#33b1ff" stroke="#33b1ff" stroke-width="1.5"/><path d="m278.24 102.76c1.1986 0 2.3482-0.4762 3.1958-1.3237 0.84753-0.84753 1.3237-1.9972 1.3237-3.1958s-0.4762-2.3482-1.3237-3.1958c-0.84753-0.84753-1.9972-1.3237-3.1958-1.3237s-2.3482 0.4762-3.1958 1.3237c-0.84753 0.84753-1.3237 1.9972-1.3237 3.1958s0.4762 2.3482 1.3237 3.1958c0.84753 0.84753 1.9972 1.3237 3.1958 1.3237z" clip-path="url(#c3e3774a421)" fill="#33b1ff" stroke="#33b1ff" stroke-width="1.5"/><path d="m278.24 56.403c1.1986 0 2.3482-0.4762 3.1958-1.3237 0.84753-0.84753 1.3237-1.9972 1.3237-3.1958 0-1.1986-0.4762-2.3482-1.3237-3.1958-0.84753-0.84753-1.9972-1.3237-3.1958-1.3237s-2.3482 0.4762-3.1958 1.3237c-0.84753 0.84753-1.3237 1.9972-1.3237 3.1958 0 1.1986 0.4762 2.3482 1.3237 3.1958 0.84753 0.84753 1.9972 1.3237 3.1958 1.3237z" clip-path="url(#c3e3774a421)" fill="#33b1ff" stroke="#33b1ff" stroke-width="1.5"/><path d="m309.52 66.948h30.13v-30.13h-30.13z" clip-path="url(#c3e3774a421)" fill="#9f1853" stroke="#9f1853" stroke-width="1.5"/><path d="m355.88 66.948h30.13v-30.13h-30.13z" clip-path="url(#c3e3774a421)" fill="#33b1ff" stroke="#33b1ff" stroke-width="1.5"/><path d="m417.3 56.403c1.1986 0 2.3482-0.4762 3.1958-1.3237 0.84753-0.84753 1.3237-1.9972 1.3237-3.1958 0-1.1986-0.4762-2.3482-1.3237-3.1958-0.84753-0.84753-1.9972-1.3237-3.1958-1.3237s-2.3482 0.4762-3.1958 1.3237c-0.84753 0.84753-1.3237 1.9972-1.3237 3.1958 0 1.1986 0.4762 2.3482 1.3237 3.1958 0.84753 0.84753 1.9972 1.3237 3.1958 1.3237z" clip-path="url(#c3e3774a421)" fill="#33b1ff" stroke="#33b1ff" stroke-width="1.5"/><path d="m417.3 149.11c1.1986 0 2.3482-0.4762 3.1958-1.3237 0.84753-0.84753 1.3237-1.9972 1.3237-3.1958 0-1.1986-0.4762-2.3482-1.3237-3.1958-0.84753-0.84753-1.9972-1.3237-3.1958-1.3237s-2.3482 0.4762-3.1958 1.3237c-0.84753 0.84753-1.3237 1.9972-1.3237 3.1958 0 1.1986 0.4762 2.3482 1.3237 3.1958 0.84753 0.84753 1.9972 1.3237 3.1958 1.3237z" clip-path="url(#c3e3774a421)" fill="#33b1ff" stroke="#33b1ff" stroke-width="1.5"/><path d="m448.59 159.66h30.13v-30.13h-30.13z" clip-path="url(#c3e3774a421)" fill="#9f1853" stroke="#9f1853" stroke-width="1.5"/><path d="m494.94 159.66h30.13v-30.13h-30.13z" clip-path="url(#c3e3774a421)" fill="#33b1ff" stroke="#33b1ff" stroke-width="1.5"/><path d="m556.36 149.11c1.1986 0 2.3482-0.4762 3.1958-1.3237s1.3237-1.9972 1.3237-3.1958c0-1.1986-0.4762-2.3482-1.3237-3.1958-0.84753-0.84753-1.9972-1.3237-3.1958-1.3237-1.1986 0-2.3482 0.4762-3.1958 1.3237-0.84753 0.84753-1.3237 1.9972-1.3237 3.1958 0 1.1986 0.4762 2.3482 1.3237 3.1958 0.84753 0.84753 1.9972 1.3237 3.1958 1.3237z" clip-path="url(#c3e3774a421)" fill="#33b1ff" stroke="#33b1ff" stroke-width="1.5"/><path d="m556.36 195.46c1.1986 0 2.3482-0.4762 3.1958-1.3237 0.84753-0.84753 1.3237-1.9972 1.3237-3.1958 0-1.1986-0.4762-2.3482-1.3237-3.1958s-1.9972-1.3237-3.1958-1.3237c-1.1986 0-2.3482 0.4762-3.1958 1.3237-0.84753 0.84753-1.3237 1.9972-1.3237 3.1958 0 1.1986 0.4762 2.3482 1.3237 3.1958 0.84753 0.84753 1.9972 1.3237 3.1958 1.3237z" clip-path="url(#c3e3774a421)" fill="#33b1ff" stroke="#33b1ff" stroke-width="1.5"/><path d="m587.65 206.01h30.13v-30.13h-30.13z" clip-path="url(#c3e3774a421)" fill="#9f1853" stroke="#9f1853" stroke-width="1.5"/><path d="m634 206.01h30.13v-30.13h-30.13z" clip-path="url(#c3e3774a421)" fill="#33b1ff" stroke="#33b1ff" stroke-width="1.5"/><path d="m726.71 113.3h30.13v-30.13h-30.13z" clip-path="url(#c3e3774a421)" fill="#a8a8a8" stroke="#a8a8a8" stroke-width="1.5"/><path d="m752.32 102.76c0-2.7958-1.1118-5.4799-3.0887-7.4568s-4.661-3.0887-7.4568-3.0887-5.4799 1.1118-7.4568 3.0887-3.0887 4.661-3.0887 7.4568" clip-path="url(#c3e3774a421)" fill="none" stroke="#000000" stroke-width="2"/><path d="m741.78 102.76 10.546-10.546" clip-path="url(#c3e3774a421)" fill="none" stroke="#000000" stroke-linecap="square" stroke-width="2"/><path d="m773.06 66.948h30.13v-30.13h-30.13z" clip-path="url(#c3e3774a421)" fill="#a8a8a8" stroke="#a8a8a8" stroke-width="1.5"/><path d="m798.67 56.403c0-2.7958-1.1118-5.4799-3.0887-7.4568s-4.661-3.0887-7.4568-3.0887-5.4799 1.1118-7.4568 3.0887-3.0887 4.661-3.0887 7.4568" clip-path="url(#c3e3774a421)" fill="none" stroke="#000000" stroke-width="2"/><path d="m788.13 56.403 10.546-10.546" clip-path="url(#c3e3774a421)" fill="none" stroke="#000000" stroke-linecap="square" stroke-width="2"/><path d="m819.42 159.66h30.13v-30.13h-30.13z" clip-path="url(#c3e3774a421)" fill="#a8a8a8" stroke="#a8a8a8" stroke-width="1.5"/><path d="m845.03 149.11c0-2.7958-1.1118-5.4799-3.0887-7.4568s-4.661-3.0887-7.4568-3.0887c-2.7958 0-5.4799 1.1118-7.4568 3.0887s-3.0887 4.661-3.0887 7.4568" clip-path="url(#c3e3774a421)" fill="none" stroke="#000000" stroke-width="2"/><path d="m834.48 149.11 10.546-10.546" clip-path="url(#c3e3774a421)" fill="none" stroke="#000000" stroke-linecap="square" stroke-width="2"/><path d="m865.77 206.01h30.13v-30.13h-30.13z" clip-path="url(#c3e3774a421)" fill="#a8a8a8" stroke="#a8a8a8" stroke-width="1.5"/><path d="m891.38 195.46c0-2.7958-1.1118-5.4799-3.0887-7.4568s-4.661-3.0887-7.4568-3.0887-5.4799 1.1118-7.4568 3.0887-3.0887 4.661-3.0887 7.4568" clip-path="url(#c3e3774a421)" fill="none" stroke="#000000" stroke-width="2"/><path d="m880.84 195.46 10.546-10.546" clip-path="url(#c3e3774a421)" fill="none" stroke="#000000" stroke-linecap="square" stroke-width="2"/><g clip-path="url(#c3e3774a421)"><g transform="translate(27.034 56.104) scale(.1625 -.1625)"><defs><path id="DejaVuSans-Oblique-54" transform="scale(.015625)" d="m2669 525q-231-303-546-460-314-156-695-156-531 0-833 358-301 358-301 986 0 506 186 978t533 847q225 244 517 375t614 131q387 0 637-153t363-462l100 525h578l-934-4813h-579l360 1844zm-1778 813q0-463 193-705 194-242 560-242 544 0 928 520t384 1264q0 450-199 689-198 239-569 239-272 0-504-127-231-126-403-370-181-256-286-600-104-343-104-668z"/><path id="DejaVuSans-14" transform="scale(.015625)" d="m794 531h1031v3560l-1122-225v575l1116 225h631v-4135h1031v-531h-2687v531z"/><path id="DejaVuSans-c30" transform="scale(.015625)" d="m4175 1741h-3278v-1078h-531v2687h531v-1078h3278l-728 728 375 375 1228-1228v-281l-1228-1228-375 375 728 728z"/><path id="DejaVuSans-15" transform="scale(.015625)" d="m1228 531h2203v-531h-2962v531q359 372 979 998 621 627 780 809 303 340 423 576 121 236 121 464 0 372-261 606-261 235-680 235-297 0-627-103-329-103-704-313v638q381 153 712 231 332 78 607 78 725 0 1156-363 431-362 431-968 0-288-108-546-107-257-392-607-78-91-497-524-418-433-1181-1211z"/><path id="DejaVuSans-16" transform="scale(.015625)" d="m2597 2516q453-97 707-404 255-306 255-756 0-690-475-1069-475-378-1350-378-293 0-604 58t-642 174v609q262-153 574-231 313-78 654-78 593 0 904 234t311 681q0 413-289 645-289 233-804 233h-544v519h569q465 0 712 186t247 536q0 359-255 551-254 193-729 193-260 0-557-57-297-56-653-174v562q360 100 674 150t592 50q719 0 1137-327 419-326 419-882 0-388-222-655t-631-370z"/></defs><use transform="translate(0 .78125)" xlink:href="#DejaVuSans-Oblique-54"/><use transform="translate(63.477 -14.219) scale(.7)" xlink:href="#DejaVuSans-14"/><use transform="translate(157.29 .78125)" xlink:href="#DejaVuSans-c30"/><use transform="translate(287.62 .78125)" xlink:href="#DejaVuSans-14"/><use transform="translate(351.24 .78125)" xlink:href="#DejaVuSans-15"/><use transform="translate(414.87 .78125)" xlink:href="#DejaVuSans-16"/></g></g><g clip-path="url(#c3e3774a421)"><g transform="translate(27.034 102.46) scale(.1625 -.1625)"><defs><path id="DejaVuSans-13" transform="scale(.015625)" d="m2034 4250q-487 0-733-480-245-479-245-1442 0-959 245-1439 246-480 733-480 491 0 736 480 246 480 246 1439 0 963-246 1442-245 480-736 480zm0 500q785 0 1199-621 414-620 414-1801 0-1178-414-1799-414-620-1199-620-784 0-1198 620-414 621-414 1799 0 1181 414 1801 414 621 1198 621z"/></defs><use transform="translate(0 .78125)" xlink:href="#DejaVuSans-Oblique-54"/><use transform="translate(63.477 -14.219) scale(.7)" xlink:href="#DejaVuSans-13"/><use transform="translate(157.29 .78125)" xlink:href="#DejaVuSans-c30"/><use transform="translate(287.62 .78125)" xlink:href="#DejaVuSans-14"/><use transform="translate(351.24 .78125)" xlink:href="#DejaVuSans-15"/><use transform="translate(414.87 .78125)" xlink:href="#DejaVuSans-17"/></g></g><g clip-path="url(#c3e3774a421)"><g transform="translate(27.034 148.81) scale(.1625 -.1625)"><defs><path id="DejaVuSans-19" transform="scale(.015625)" d="m2113 2584q-425 0-674-291-248-290-248-796 0-503 248-796 249-292 674-292t673 292q248 293 248 796 0 506-248 796-248 291-673 291zm1253 1979v-575q-238 112-480 171-242 60-480 60-625 0-955-422-329-422-376-1275 184 272 462 417 279 145 613 145 703 0 1111-427 408-426 408-1160 0-719-425-1154-425-434-1131-434-810 0-1238 620-428 621-428 1799 0 1106 525 1764t1409 658q238 0 480-47t505-140z"/></defs><use transform="translate(0 .78125)" xlink:href="#DejaVuSans-Oblique-54"/><use transform="translate(63.477 -14.219) scale(.7)" xlink:href="#DejaVuSans-15"/><use transform="translate(157.29 .78125)" xlink:href="#DejaVuSans-c30"/><use transform="translate(287.62 .78125)" xlink:href="#DejaVuSans-14"/><use transform="translate(351.24 .78125)" xlink:href="#DejaVuSans-16"/><use transform="translate(414.87 .78125)" xlink:href="#DejaVuSans-19"/></g></g><g clip-path="url(#c3e3774a421)"><g transform="translate(27.034 195.17) scale(.1625 -.1625)"><use transform="translate(0 .78125)" xlink:href="#DejaVuSans-Oblique-54"/><use transform="translate(63.477 -14.219) scale(.7)" xlink:href="#DejaVuSans-16"/><use transform="translate(157.29 .78125)" xlink:href="#DejaVuSans-c30"/><use transform="translate(287.62 .78125)" xlink:href="#DejaVuSans-14"/><use transform="translate(351.24 .78125)" xlink:href="#DejaVuSans-17"/><use transform="translate(414.87 .78125)" xlink:href="#DejaVuSans-16"/></g></g><g clip-path="url(#c3e3774a421)"><g transform="translate(118.78 230.17) scale(.104 -.104)"><use xlink:href="#DejaVuSans-17"/></g></g><g clip-path="url(#c3e3774a421)"><g transform="translate(60.621 241.52) scale(.1625 -.1625)"><defs><path id="DejaVuSans-50" transform="scale(.015625)" d="m3328 2828q216 388 516 572t706 184q547 0 844-383 297-382 297-1088v-2113h-578v2094q0 503-179 746-178 244-543 244-447 0-707-297-259-296-259-809v-1978h-578v2094q0 506-178 748t-550 242q-441 0-701-298-259-298-259-808v-1978h-578v3500h578v-544q197 322 472 475t653 153q382 0 649-194 267-193 395-562z"/></defs><use xlink:href="#DejaVuSans-50"/><use transform="translate(97.406)" xlink:href="#DejaVuSans-48"/><use transform="translate(158.94)" xlink:href="#DejaVuSans-44"/><use transform="translate(220.22)" xlink:href="#DejaVuSans-56"/></g></g><g clip-path="url(#c3e3774a421)"><g transform="translate(132.85 63) scale(.08 -.08)"><use transform="translate(0 .78125)" xlink:href="#DejaVuSans-Oblique-354"/><use transform="translate(60.205 .78125)" xlink:href="#DejaVuSans-12"/><use transform="translate(93.896 .78125)" xlink:href="#DejaVuSans-15"/></g></g><g clip-path="url(#c3e3774a421)"><g transform="translate(131.24 50.741) scale(.13 -.13)"><defs><path id="DejaVuSans-35" transform="scale(.015625)" d="m2841 2188q203-69 395-294t386-619l641-1275h-679l-596 1197q-232 469-449 622t-592 153h-688v-1972h-631v4666h1425q800 0 1194-335 394-334 394-1009 0-441-205-732-205-290-595-402zm-1582 1959v-1656h794q456 0 689 211t233 620-233 617-689 208h-794z"/><path id="DejaVuSans-3d" transform="scale(.015625)" d="m359 4666h3666v-482l-2950-3653h3022v-531h-3809v481l2950 3653h-2879v532z"/></defs><use transform="translate(0 .09375)" xlink:href="#DejaVuSans-35"/><use transform="translate(70.439 -14.906) scale(.7)" xlink:href="#DejaVuSans-3d"/></g></g><g clip-path="url(#c3e3774a421)"><g transform="translate(132.85 109.35) scale(.08 -.08)"><use transform="translate(0 .78125)" xlink:href="#DejaVuSans-Oblique-354"/><use transform="translate(60.205 .78125)" xlink:href="#DejaVuSans-12"/><use transform="translate(93.896 .78125)" xlink:href="#DejaVuSans-15"/></g></g><g clip-path="url(#c3e3774a421)"><g transform="translate(131.24 97.095) scale(.13 -.13)"><use transform="translate(0 .09375)" xlink:href="#DejaVuSans-35"/><use transform="translate(70.439 -14.906) scale(.7)" xlink:href="#DejaVuSans-3d"/></g></g><g clip-path="url(#c3e3774a421)"><g transform="translate(132.85 155.71) scale(.08 -.08)"><use transform="translate(0 .78125)" xlink:href="#DejaVuSans-Oblique-354"/><use transform="translate(60.205 .78125)" xlink:href="#DejaVuSans-12"/><use transform="translate(93.896 .78125)" xlink:href="#DejaVuSans-15"/></g></g><g clip-path="url(#c3e3774a421)"><g transform="translate(131.24 143.45) scale(.13 -.13)"><use transform="translate(0 .09375)" xlink:href="#DejaVuSans-35"/><use transform="translate(70.439 -14.906) scale(.7)" xlink:href="#DejaVuSans-3d"/></g></g><g clip-path="url(#c3e3774a421)"><g transform="translate(132.85 202.06) scale(.08 -.08)"><use transform="translate(0 .78125)" xlink:href="#DejaVuSans-Oblique-354"/><use transform="translate(60.205 .78125)" xlink:href="#DejaVuSans-12"/><use transform="translate(93.896 .78125)" xlink:href="#DejaVuSans-15"/></g></g><g clip-path="url(#c3e3774a421)"><g transform="translate(131.24 189.8) scale(.13 -.13)"><use transform="translate(0 .09375)" xlink:href="#DejaVuSans-35"/><use transform="translate(70.439 -14.906) scale(.7)" xlink:href="#DejaVuSans-3d"/></g></g><g clip-path="url(#c3e3774a421)"><g transform="translate(175.52 57.537) scale(.13 -.13)" fill="#ffffff"><defs><path id="STIXSizeOneSym-Regular-26" transform="scale(.015625)" d="m6970 9933-3597-11821h-269l-1478 4806q-71 231-161 333-89 103-236 103-218 0-435-173l-77 128 1049 806h160l1453-4717h26l3200 10535h365z"/><path id="DejaVuSans-3b" transform="scale(.015625)" d="m403 4666h678l1160-1735 1165 1735h678l-1500-2241 1600-2425h-678l-1312 1984-1322-1984h-681l1665 2491-1453 2175z"/></defs><use transform="translate(0 17.484) scale(.56391)" xlink:href="#STIXSizeOneSym-Regular-26"/><use transform="translate(72.105 .84375)" xlink:href="#DejaVuSans-3b"/><path d="m59.605 104.75v6.25h93.506v-6.25h-93.506z"/></g></g><g clip-path="url(#c3e3774a421)"><g transform="translate(175.52 103.89) scale(.13 -.13)" fill="#ffffff"><use transform="translate(0 17.484) scale(.56391)" xlink:href="#STIXSizeOneSym-Regular-26"/><use transform="translate(72.105 .84375)" xlink:href="#DejaVuSans-3b"/><path d="m59.605 104.75v6.25h93.506v-6.25h-93.506z"/></g></g><g clip-path="url(#c3e3774a421)"><g transform="translate(175.52 150.24) scale(.13 -.13)" fill="#ffffff"><use transform="translate(0 17.484) scale(.56391)" xlink:href="#STIXSizeOneSym-Regular-26"/><use transform="translate(72.105 .84375)" xlink:href="#DejaVuSans-3b"/><path d="m59.605 104.75v6.25h93.506v-6.25h-93.506z"/></g></g><g clip-path="url(#c3e3774a421)"><g transform="translate(175.52 196.6) scale(.13 -.13)" fill="#ffffff"><use transform="translate(0 17.484) scale(.56391)" xlink:href="#STIXSizeOneSym-Regular-26"/><use transform="translate(72.105 .84375)" xlink:href="#DejaVuSans-3b"/><path d="m59.605 104.75v6.25h93.506v-6.25h-93.506z"/></g></g><g clip-path="url(#c3e3774a421)"><g transform="translate(229.44 63) scale(.08 -.08)"><use transform="translate(0 .3125)" xlink:href="#DejaVuSans-Oblique-354"/></g></g><g clip-path="url(#c3e3774a421)"><g transform="translate(223.95 50.741) scale(.13 -.13)"><use transform="translate(0 .09375)" xlink:href="#DejaVuSans-35"/><use transform="translate(70.439 -14.906) scale(.7)" xlink:href="#DejaVuSans-3d"/></g></g><g clip-path="url(#c3e3774a421)"><g transform="translate(225.56 109.35) scale(.08 -.08)"><use transform="translate(0 .78125)" xlink:href="#DejaVuSans-Oblique-354"/><use transform="translate(60.205 .78125)" xlink:href="#DejaVuSans-12"/><use transform="translate(93.896 .78125)" xlink:href="#DejaVuSans-15"/></g></g><g clip-path="url(#c3e3774a421)"><g transform="translate(223.95 97.095) scale(.13 -.13)"><use transform="translate(0 .09375)" xlink:href="#DejaVuSans-35"/><use transform="translate(70.439 -14.906) scale(.7)" xlink:href="#DejaVuSans-3d"/></g></g><g clip-path="url(#c3e3774a421)"><g transform="translate(229.44 155.71) scale(.08 -.08)"><use transform="translate(0 .3125)" xlink:href="#DejaVuSans-Oblique-354"/></g></g><g clip-path="url(#c3e3774a421)"><g transform="translate(223.95 143.45) scale(.13 -.13)"><use transform="translate(0 .09375)" xlink:href="#DejaVuSans-35"/><use transform="translate(70.439 -14.906) scale(.7)" xlink:href="#DejaVuSans-3d"/></g></g><g clip-path="url(#c3e3774a421)"><g transform="translate(229.44 202.06) scale(.08 -.08)"><use transform="translate(0 .3125)" xlink:href="#DejaVuSans-Oblique-354"/></g></g><g clip-path="url(#c3e3774a421)"><g transform="translate(223.95 189.8) scale(.13 -.13)"><use transform="translate(0 .09375)" xlink:href="#DejaVuSans-35"/><use transform="translate(70.439 -14.906) scale(.7)" xlink:href="#DejaVuSans-3d"/></g></g><g clip-path="url(#c3e3774a421)"><g transform="translate(314.58 57.537) scale(.13 -.13)" fill="#ffffff"><use transform="translate(0 17.484) scale(.56391)" xlink:href="#STIXSizeOneSym-Regular-26"/><use transform="translate(72.105 .84375)" xlink:href="#DejaVuSans-3b"/><path d="m59.605 104.75v6.25h93.506v-6.25h-93.506z"/></g></g><g clip-path="url(#c3e3774a421)"><g transform="translate(364.62 63) scale(.08 -.08)"><use transform="translate(0 .78125)" xlink:href="#DejaVuSans-Oblique-354"/><use transform="translate(60.205 .78125)" xlink:href="#DejaVuSans-12"/><use transform="translate(93.896 .78125)" xlink:href="#DejaVuSans-15"/></g></g><g clip-path="url(#c3e3774a421)"><g transform="translate(363.01 50.741) scale(.13 -.13)"><use transform="translate(0 .09375)" xlink:href="#DejaVuSans-35"/><use transform="translate(70.439 -14.906) scale(.7)" xlink:href="#DejaVuSans-3d"/></g></g><g clip-path="url(#c3e3774a421)"><g transform="translate(453.64 150.24) scale(.13 -.13)" fill="#ffffff"><use transform="translate(0 17.484) scale(.56391)" xlink:href="#STIXSizeOneSym-Regular-26"/><use transform="translate(72.105 .84375)" xlink:href="#DejaVuSans-3b"/><path d="m59.605 104.75v6.25h93.506v-6.25h-93.506z"/></g></g><g clip-path="url(#c3e3774a421)"><g transform="translate(503.69 155.71) scale(.08 -.08)"><use transform="translate(0 .78125)" xlink:href="#DejaVuSans-Oblique-354"/><use transform="translate(60.205 .78125)" xlink:href="#DejaVuSans-12"/><use transform="translate(93.896 .78125)" xlink:href="#DejaVuSans-15"/></g></g><g clip-path="url(#c3e3774a421)"><g transform="translate(502.08 143.45) scale(.13 -.13)"><use transform="translate(0 .09375)" xlink:href="#DejaVuSans-35"/><use transform="translate(70.439 -14.906) scale(.7)" xlink:href="#DejaVuSans-3d"/></g></g><g clip-path="url(#c3e3774a421)"><g transform="translate(592.7 196.6) scale(.13 -.13)" fill="#ffffff"><use transform="translate(0 17.484) scale(.56391)" xlink:href="#STIXSizeOneSym-Regular-26"/><use transform="translate(72.105 .84375)" xlink:href="#DejaVuSans-3b"/><path d="m59.605 104.75v6.25h93.506v-6.25h-93.506z"/></g></g><g clip-path="url(#c3e3774a421)"><g transform="translate(642.75 202.06) scale(.08 -.08)"><use transform="translate(0 .78125)" xlink:href="#DejaVuSans-Oblique-354"/><use transform="translate(60.205 .78125)" xlink:href="#DejaVuSans-12"/><use transform="translate(93.896 .78125)" xlink:href="#DejaVuSans-15"/></g></g><g clip-path="url(#c3e3774a421)"><g transform="translate(641.14 189.8) scale(.13 -.13)"><use transform="translate(0 .09375)" xlink:href="#DejaVuSans-35"/><use transform="translate(70.439 -14.906) scale(.7)" xlink:href="#DejaVuSans-3d"/></g></g><path d="m695.42 75.06v46.354" clip-path="url(#c3e3774a421)" fill="none" stroke="#000000" stroke-dasharray="3.7,1.6"/><path d="m695.42 28.706v46.354" clip-path="url(#c3e3774a421)" fill="none" stroke="#000000" stroke-dasharray="3.7,1.6"/><path d="m695.42 121.41v46.354" clip-path="url(#c3e3774a421)" fill="none" stroke="#000000" stroke-dasharray="3.7,1.6"/><path d="m695.42 167.77v46.354" clip-path="url(#c3e3774a421)" fill="none" stroke="#000000" stroke-dasharray="3.7,1.6"/><g clip-path="url(#c3e3774a421)"><g transform="translate(753.36 230.17) scale(.104 -.104)"><use xlink:href="#DejaVuSans-13"/></g></g><g clip-path="url(#c3e3774a421)"><g transform="translate(799.72 230.17) scale(.104 -.104)"><use xlink:href="#DejaVuSans-14"/></g></g><g clip-path="url(#c3e3774a421)"><g transform="translate(846.07 230.17) scale(.104 -.104)"><use xlink:href="#DejaVuSans-15"/></g></g><g clip-path="url(#c3e3774a421)"><g transform="translate(892.43 230.17) scale(.104 -.104)"><use xlink:href="#DejaVuSans-16"/></g></g><defs><clipPath id="c3e3774a421"><rect x="7.2" y="14.8" width="904.23" height="250.31"/></clipPath></defs></svg>