<?xml version="1.0" encoding="UTF-8"?><!DOCTYPE svg  PUBLIC '-//W3C//DTD SVG 1.1//EN'  'http://www.w3.org/Graphics/SVG/1.1/DTD/svg11.dtd'><svg width="452.55pt" height="337.96pt" version="1.1" viewBox="0 0 452.55 337.96" xmlns="http://www.w3.org/2000/svg" xmlns:xlink="http://www.w3.org/1999/xlink"><defs><style type="text/css">*{stroke-linejoin: round; stroke-linecap: butt}</style></defs><path d="m0 337.96h452.55v-337.96h-452.55z" fill="#ffffff"/><path d="m54.467 296.42h285.71v-289.22h-285.71z" fill="#ffffff"/><defs><path id="793e52f41da" d="m0 0v3.5" stroke="#000000" stroke-width=".8"/></defs><use x="74.288621" y="296.422966" stroke="#000000" stroke-width=".8" xlink:href="#793e52f41da"/><g transform="translate(72.724 329.94) rotate(-70) scale(.1 -.1)"><defs><path id="DejaVuSans-13" transform="scale(.015625)" d="m2034 4250q-487 0-733-480-245-479-245-1442 0-959 245-1439 246-480 733-480 491 0 736 480 246 480 246 1439 0 963-246 1442-245 480-736 480zm0 500q785 0 1199-621 414-620 414-1801 0-1178-414-1799-414-620-1199-620-784 0-1198 620-414 621-414 1799 0 1181 414 1801 414 621 1198 621z"/></defs><use xlink:href="#DejaVuSans-13"/><use transform="translate(63.625)" xlink:href="#DejaVuSans-13"/><use transform="translate(127.25)" xlink:href="#DejaVuSans-13"/><use transform="translate(190.88)" xlink:href="#DejaVuSans-13"/></g><use x="94.794037" y="296.422966" stroke="#000000" stroke-width=".8" xlink:href="#793e52f41da"/><g transform="translate(93.229 329.94) rotate(-70) scale(.1 -.1)"><defs><path id="DejaVuSans-14" transform="scale(.015625)" d="m794 531h1031v3560l-1122-225v575l1116 225h631v-4135h1031v-531h-2687v531z"/></defs><use xlink:href="#DejaVuSans-13"/><use transform="translate(63.625)" xlink:href="#DejaVuSans-13"/><use transform="translate(127.25)" xlink:href="#DejaVuSans-13"/><use transform="translate(190.88)" xlink:href="#DejaVuSans-14"/></g><use x="115.299454" y="296.422966" stroke="#000000" stroke-width=".8" xlink:href="#793e52f41da"/><g transform="translate(113.73 329.94) rotate(-70) scale(.1 -.1)"><use xlink:href="#DejaVuSans-13"/><use transform="translate(63.625)" xlink:href="#DejaVuSans-13"/><use transform="translate(127.25)" xlink:href="#DejaVuSans-14"/><use transform="translate(190.88)" xlink:href="#DejaVuSans-14"/></g><use x="135.80487" y="296.422966" stroke="#000000" stroke-width=".8" xlink:href="#793e52f41da"/><g transform="translate(134.24 329.94) rotate(-70) scale(.1 -.1)"><use xlink:href="#DejaVuSans-13"/><use transform="translate(63.625)" xlink:href="#DejaVuSans-14"/><use transform="translate(127.25)" xlink:href="#DejaVuSans-13"/><use transform="translate(190.88)" xlink:href="#DejaVuSans-13"/></g><use x="156.310286" y="296.422966" stroke="#000000" stroke-width=".8" xlink:href="#793e52f41da"/><g transform="translate(154.75 329.94) rotate(-70) scale(.1 -.1)"><use xlink:href="#DejaVuSans-13"/><use transform="translate(63.625)" xlink:href="#DejaVuSans-14"/><use transform="translate(127.25)" xlink:href="#DejaVuSans-13"/><use transform="translate(190.88)" xlink:href="#DejaVuSans-14"/></g><use x="176.815702" y="296.422966" stroke="#000000" stroke-width=".8" xlink:href="#793e52f41da"/><g transform="translate(175.25 329.94) rotate(-70) scale(.1 -.1)"><use xlink:href="#DejaVuSans-13"/><use transform="translate(63.625)" xlink:href="#DejaVuSans-14"/><use transform="translate(127.25)" xlink:href="#DejaVuSans-14"/><use transform="translate(190.88)" xlink:href="#DejaVuSans-14"/></g><use x="197.321119" y="296.422966" stroke="#000000" stroke-width=".8" xlink:href="#793e52f41da"/><g transform="translate(195.76 329.94) rotate(-70) scale(.1 -.1)"><use xlink:href="#DejaVuSans-14"/><use transform="translate(63.625)" xlink:href="#DejaVuSans-13"/><use transform="translate(127.25)" xlink:href="#DejaVuSans-13"/><use transform="translate(190.88)" xlink:href="#DejaVuSans-13"/></g><use x="217.826535" y="296.422966" stroke="#000000" stroke-width=".8" xlink:href="#793e52f41da"/><g transform="translate(216.26 329.94) rotate(-70) scale(.1 -.1)"><use xlink:href="#DejaVuSans-14"/><use transform="translate(63.625)" xlink:href="#DejaVuSans-13"/><use transform="translate(127.25)" xlink:href="#DejaVuSans-14"/><use transform="translate(190.88)" xlink:href="#DejaVuSans-13"/></g><use x="238.331951" y="296.422966" stroke="#000000" stroke-width=".8" xlink:href="#793e52f41da"/><g transform="translate(236.77 329.94) rotate(-70) scale(.1 -.1)"><use xlink:href="#DejaVuSans-14"/><use transform="translate(63.625)" xlink:href="#DejaVuSans-13"/><use transform="translate(127.25)" xlink:href="#DejaVuSans-14"/><use transform="translate(190.88)" xlink:href="#DejaVuSans-14"/></g><use x="258.837368" y="296.422966" stroke="#000000" stroke-width=".8" xlink:href="#793e52f41da"/><g transform="translate(257.27 329.94) rotate(-70) scale(.1 -.1)"><use xlink:href="#DejaVuSans-14"/><use transform="translate(63.625)" xlink:href="#DejaVuSans-14"/><use transform="translate(127.25)" xlink:href="#DejaVuSans-13"/><use transform="translate(190.88)" xlink:href="#DejaVuSans-13"/></g><use x="279.342784" y="296.422966" stroke="#000000" stroke-width=".8" xlink:href="#793e52f41da"/><g transform="translate(277.78 329.94) rotate(-70) scale(.1 -.1)"><use xlink:href="#DejaVuSans-14"/><use transform="translate(63.625)" xlink:href="#DejaVuSans-14"/><use transform="translate(127.25)" xlink:href="#DejaVuSans-13"/><use transform="translate(190.88)" xlink:href="#DejaVuSans-14"/></g><use x="299.8482" y="296.422966" stroke="#000000" stroke-width=".8" xlink:href="#793e52f41da"/><g transform="translate(298.28 329.94) rotate(-70) scale(.1 -.1)"><use xlink:href="#DejaVuSans-14"/><use transform="translate(63.625)" xlink:href="#DejaVuSans-14"/><use transform="translate(127.25)" xlink:href="#DejaVuSans-14"/><use transform="translate(190.88)" xlink:href="#DejaVuSans-13"/></g><use x="320.353616" y="296.422966" stroke="#000000" stroke-width=".8" xlink:href="#793e52f41da"/><g transform="translate(318.79 329.94) rotate(-70) scale(.1 -.1)"><use xlink:href="#DejaVuSans-14"/><use transform="translate(63.625)" xlink:href="#DejaVuSans-14"/><use transform="translate(127.25)" xlink:href="#DejaVuSans-14"/><use transform="translate(190.88)" xlink:href="#DejaVuSans-14"/></g><path d="m54.467 296.42h285.71" clip-path="url(#5117894426f)" fill="none" stroke="#b0b0b0" stroke-dasharray="2.96,1.28" stroke-width=".8"/><defs><path id="ad91b753e9d" d="m0 0h-3.5" stroke="#000000" stroke-width=".8"/></defs><use x="54.466719" y="296.422966" stroke="#000000" stroke-width=".8" xlink:href="#ad91b753e9d"/><g transform="translate(25.201 300.22) scale(.1 -.1)"><defs><path id="DejaVuSans-11" transform="scale(.015625)" d="m684 794h660v-794h-660v794z"/></defs><use xlink:href="#DejaVuSans-13"/><use transform="translate(63.625)" xlink:href="#DejaVuSans-11"/><use transform="translate(95.406)" xlink:href="#DejaVuSans-13"/><use transform="translate(159.03)" xlink:href="#DejaVuSans-13"/></g><path d="m54.467 221.95h285.71" clip-path="url(#5117894426f)" fill="none" stroke="#b0b0b0" stroke-dasharray="2.96,1.28" stroke-width=".8"/><use x="54.466719" y="221.949575" stroke="#000000" stroke-width=".8" xlink:href="#ad91b753e9d"/><g transform="translate(25.201 225.75) scale(.1 -.1)"><defs><path id="DejaVuSans-18" transform="scale(.015625)" d="m691 4666h2478v-532h-1900v-1143q137 47 274 70 138 23 276 23 781 0 1237-428 457-428 457-1159 0-753-469-1171-469-417-1322-417-294 0-599 50-304 50-629 150v635q281-153 581-228t634-75q541 0 856 284 316 284 316 772 0 487-316 771-315 285-856 285-253 0-505-56-251-56-513-175v2344z"/></defs><use xlink:href="#DejaVuSans-13"/><use transform="translate(63.625)" xlink:href="#DejaVuSans-11"/><use transform="translate(95.406)" xlink:href="#DejaVuSans-14"/><use transform="translate(159.03)" xlink:href="#DejaVuSans-18"/></g><path d="m54.467 147.48h285.71" clip-path="url(#5117894426f)" fill="none" stroke="#b0b0b0" stroke-dasharray="2.96,1.28" stroke-width=".8"/><use x="54.466719" y="147.476185" stroke="#000000" stroke-width=".8" xlink:href="#ad91b753e9d"/><g transform="translate(25.201 151.28) scale(.1 -.1)"><defs><path id="DejaVuSans-16" transform="scale(.015625)" d="m2597 2516q453-97 707-404 255-306 255-756 0-690-475-1069-475-378-1350-378-293 0-604 58t-642 174v609q262-153 574-231 313-78 654-78 593 0 904 234t311 681q0 413-289 645-289 233-804 233h-544v519h569q465 0 712 186t247 536q0 359-255 551-254 193-729 193-260 0-557-57-297-56-653-174v562q360 100 674 150t592 50q719 0 1137-327 419-326 419-882 0-388-222-655t-631-370z"/></defs><use xlink:href="#DejaVuSans-13"/><use transform="translate(63.625)" xlink:href="#DejaVuSans-11"/><use transform="translate(95.406)" xlink:href="#DejaVuSans-16"/><use transform="translate(159.03)" xlink:href="#DejaVuSans-13"/></g><path d="m54.467 73.003h285.71" clip-path="url(#5117894426f)" fill="none" stroke="#b0b0b0" stroke-dasharray="2.96,1.28" stroke-width=".8"/><use x="54.466719" y="73.002794" stroke="#000000" stroke-width=".8" xlink:href="#ad91b753e9d"/><g transform="translate(25.201 76.802) scale(.1 -.1)"><defs><path id="DejaVuSans-17" transform="scale(.015625)" d="m2419 4116-1594-2491h1594v2491zm-166 550h794v-3041h666v-525h-666v-1100h-628v1100h-2106v609l1940 2957z"/></defs><use xlink:href="#DejaVuSans-13"/><use transform="translate(63.625)" xlink:href="#DejaVuSans-11"/><use transform="translate(95.406)" xlink:href="#DejaVuSans-17"/><use transform="translate(159.03)" xlink:href="#DejaVuSans-18"/></g><g transform="translate(17.838 211.51) rotate(-90) scale(.14 -.14)"><defs><path id="DejaVuSans-34" transform="scale(.015625)" d="m2522 4238q-688 0-1093-513-404-512-404-1397 0-881 404-1394 405-512 1093-512 687 0 1089 512 402 513 402 1394 0 885-402 1397-402 513-1089 513zm884-4154 832-909h-763l-691 747q-103-6-158-9-54-4-104-4-984 0-1574 658-589 658-589 1761 0 1106 589 1764 590 658 1574 658 981 0 1568-658 588-658 588-1764 0-812-327-1391-326-578-945-853z"/><path id="DejaVuSans-58" transform="scale(.015625)" d="m544 1381v2119h575v-2097q0-497 193-746 194-248 582-248 465 0 735 297 271 297 271 810v1984h575v-3500h-575v538q-209-319-486-474-276-155-642-155-603 0-916 375-312 375-312 1097zm1447 2203z"/><path id="DejaVuSans-44" transform="scale(.015625)" d="m2194 1759q-697 0-966-159t-269-544q0-306 202-486 202-179 548-179 479 0 768 339t289 901v128h-572zm1147 238v-1997h-575v531q-197-318-491-470t-719-152q-537 0-855 302-317 302-317 808 0 590 395 890 396 300 1180 300h807v57q0 397-261 614t-733 217q-300 0-585-72-284-72-546-216v532q315 122 612 182 297 61 578 61 760 0 1135-394 375-393 375-1193z"/><path id="DejaVuSans-56" transform="scale(.015625)" d="m2834 3397v-544q-243 125-506 187-262 63-544 63-428 0-642-131t-214-394q0-200 153-314t616-217l197-44q612-131 870-370t258-667q0-488-386-773-386-284-1061-284-281 0-586 55t-642 164v594q319-166 628-249 309-82 613-82 406 0 624 139 219 139 219 392 0 234-158 359-157 125-692 241l-200 47q-534 112-772 345-237 233-237 639 0 494 350 762 350 269 994 269 318 0 599-47 282-46 519-140z"/><path id="DejaVuSans-4c" transform="scale(.015625)" d="m603 3500h575v-3500h-575v3500zm0 1363h575v-729h-575v729z"/><path id="DejaVuSans-10" transform="scale(.015625)" d="m313 2009h1684v-512h-1684v512z"/><path id="DejaVuSans-53" transform="scale(.015625)" d="m1159 525v-1856h-578v4831h578v-531q182 312 458 463 277 152 661 152 638 0 1036-506 399-506 399-1331t-399-1332q-398-506-1036-506-384 0-661 152-276 152-458 464zm1957 1222q0 634-261 995t-717 361q-457 0-718-361t-261-995 261-995 718-361q456 0 717 361t261 995z"/><path id="DejaVuSans-55" transform="scale(.015625)" d="m2631 2963q-97 56-211 82-114 27-251 27-488 0-749-317t-261-911v-1844h-578v3500h578v-544q182 319 472 473 291 155 707 155 59 0 131-8 72-7 159-23l3-590z"/><path id="DejaVuSans-52" transform="scale(.015625)" d="m1959 3097q-462 0-731-361t-269-989 267-989q268-361 733-361 460 0 728 362 269 363 269 988 0 622-269 986-268 364-728 364zm0 487q750 0 1178-488 429-487 429-1349 0-859-429-1349-428-489-1178-489-753 0-1180 489-426 490-426 1349 0 862 426 1349 427 488 1180 488z"/><path id="DejaVuSans-45" transform="scale(.015625)" d="m3116 1747q0 634-261 995t-717 361q-457 0-718-361t-261-995 261-995 718-361q456 0 717 361t261 995zm-1957 1222q182 312 458 463 277 152 661 152 638 0 1036-506 399-506 399-1331t-399-1332q-398-506-1036-506-384 0-661 152-276 152-458 464v-525h-578v4863h578v-1894z"/><path id="DejaVuSans-4f" transform="scale(.015625)" d="m603 4863h575v-4863h-575v4863z"/><path id="DejaVuSans-57" transform="scale(.015625)" d="m1172 4494v-994h1184v-447h-1184v-1900q0-428 117-550t477-122h590v-481h-590q-666 0-919 248-253 249-253 905v1900h-422v447h422v994h578z"/><path id="DejaVuSans-5c" transform="scale(.015625)" d="m2059-325q-243-625-475-815-231-191-618-191h-460v481h338q237 0 368 113 132 112 291 531l103 262-1415 3444h609l1094-2737 1094 2737h609l-1538-3825z"/></defs><use xlink:href="#DejaVuSans-34"/><use transform="translate(78.719)" xlink:href="#DejaVuSans-58"/><use transform="translate(142.09)" xlink:href="#DejaVuSans-44"/><use transform="translate(203.38)" xlink:href="#DejaVuSans-56"/><use transform="translate(255.47)" xlink:href="#DejaVuSans-4c"/><use transform="translate(283.25)" xlink:href="#DejaVuSans-10"/><use transform="translate(319.33)" xlink:href="#DejaVuSans-53"/><use transform="translate(382.81)" xlink:href="#DejaVuSans-55"/><use transform="translate(421.72)" xlink:href="#DejaVuSans-52"/><use transform="translate(482.91)" xlink:href="#DejaVuSans-45"/><use transform="translate(546.39)" xlink:href="#DejaVuSans-44"/><use transform="translate(607.67)" xlink:href="#DejaVuSans-45"/><use transform="translate(671.16)" xlink:href="#DejaVuSans-4c"/><use transform="translate(698.94)" xlink:href="#DejaVuSans-4f"/><use transform="translate(726.72)" xlink:href="#DejaVuSans-4c"/><use transform="translate(754.5)" xlink:href="#DejaVuSans-57"/><use transform="translate(793.7)" xlink:href="#DejaVuSans-5c"/></g><path d="m67.453 296.42h6.8351v-242.41h-6.8351z" clip-path="url(#5117894426f)" fill="#1f77b4"/><path d="m87.959 296.42h6.8351v-1.8618h-6.8351z" clip-path="url(#5117894426f)" fill="#1f77b4"/><path d="m108.46 296.42h6.8351v-0.86886h-6.8351z" clip-path="url(#5117894426f)" fill="#1f77b4"/><path d="m128.97 296.42h6.8351v-0.74473h-6.8351z" clip-path="url(#5117894426f)" fill="#1f77b4"/><path d="m149.48 296.42h6.8351v-0.24824h-6.8351z" clip-path="url(#5117894426f)" fill="#1f77b4"/><path d="m169.98 296.42h6.8351v-5.7096h-6.8351z" clip-path="url(#5117894426f)" fill="#1f77b4"/><path d="m190.49 296.42h6.8351v-5.5855h-6.8351z" clip-path="url(#5117894426f)" fill="#1f77b4"/><path d="m210.99 296.42h6.8351v-0.24824h-6.8351z" clip-path="url(#5117894426f)" fill="#1f77b4"/><path d="m231.5 296.42h6.8351v-2.7307h-6.8351z" clip-path="url(#5117894426f)" fill="#1f77b4"/><path d="m252 296.42h6.8351v-0.86886h-6.8351z" clip-path="url(#5117894426f)" fill="#1f77b4"/><path d="m272.51 296.42h6.8351v-2.7307h-6.8351z" clip-path="url(#5117894426f)" fill="#1f77b4"/><path d="m293.01 296.42h6.8351v-1.7377h-6.8351z" clip-path="url(#5117894426f)" fill="#1f77b4"/><path d="m313.52 296.42h6.8351v-230.74h-6.8351z" clip-path="url(#5117894426f)" fill="#1f77b4"/><path d="m74.289 296.42h6.8351v-262.93h-6.8351z" clip-path="url(#5117894426f)" fill="#ff7f0e"/><path d="m94.794 296.42h6.8351v-0.31245h-6.8351z" clip-path="url(#5117894426f)" fill="#ff7f0e"/><path d="m115.3 296.42h6.8351v-0.31245h-6.8351z" clip-path="url(#5117894426f)" fill="#ff7f0e"/><path d="m135.8 296.42h6.8351v-0.15623h-6.8351z" clip-path="url(#5117894426f)" fill="#ff7f0e"/><path d="m176.82 296.42h6.8351v-2.3434h-6.8351z" clip-path="url(#5117894426f)" fill="#ff7f0e"/><path d="m197.32 296.42h6.8351v-2.1872h-6.8351z" clip-path="url(#5117894426f)" fill="#ff7f0e"/><path d="m238.33 296.42h6.8351v-1.7185h-6.8351z" clip-path="url(#5117894426f)" fill="#ff7f0e"/><path d="m258.84 296.42h6.8351v-0.46868h-6.8351z" clip-path="url(#5117894426f)" fill="#ff7f0e"/><path d="m279.34 296.42h6.8351v-2.031h-6.8351z" clip-path="url(#5117894426f)" fill="#ff7f0e"/><path d="m299.85 296.42h6.8351v-1.2498h-6.8351z" clip-path="url(#5117894426f)" fill="#ff7f0e"/><path d="m320.35 296.42h6.8351v-222.78h-6.8351z" clip-path="url(#5117894426f)" fill="#ff7f0e"/><path d="m54.467 296.42v-289.22" fill="none" stroke="#000000" stroke-linecap="square" stroke-width=".8"/><path d="m340.18 296.42v-289.22" fill="none" stroke="#000000" stroke-linecap="square" stroke-width=".8"/><path d="m54.467 296.42h285.71" fill="none" stroke="#000000" stroke-linecap="square" stroke-width=".8"/><path d="m54.467 7.2h285.71" fill="none" stroke="#000000" stroke-linecap="square" stroke-width=".8"/><g transform="translate(56.557 39.62) scale(.1 -.1)"><defs><path id="DejaVuSans-1b" transform="scale(.015625)" d="m2034 2216q-450 0-708-241-257-241-257-662 0-422 257-663 258-241 708-241t709 242q260 243 260 662 0 421-258 662-257 241-711 241zm-631 268q-406 100-633 378-226 279-226 679 0 559 398 884 399 325 1092 325 697 0 1094-325t397-884q0-400-227-679-226-278-629-378 456-106 710-416 255-309 255-755 0-679-414-1042-414-362-1186-362-771 0-1186 362-414 363-414 1042 0 446 256 755 257 310 713 416zm-231 997q0-362 226-565 227-203 636-203 407 0 636 203 230 203 230 565 0 363-230 566-229 203-636 203-409 0-636-203-226-203-226-566z"/></defs><use xlink:href="#DejaVuSans-13"/><use transform="translate(63.625)" xlink:href="#DejaVuSans-11"/><use transform="translate(95.406)" xlink:href="#DejaVuSans-17"/><use transform="translate(159.03)" xlink:href="#DejaVuSans-1b"/><use transform="translate(222.66)" xlink:href="#DejaVuSans-1b"/></g><g transform="translate(77.062 291.94) scale(.1 -.1)"><use xlink:href="#DejaVuSans-13"/><use transform="translate(63.625)" xlink:href="#DejaVuSans-11"/><use transform="translate(95.406)" xlink:href="#DejaVuSans-13"/><use transform="translate(159.03)" xlink:href="#DejaVuSans-13"/><use transform="translate(222.66)" xlink:href="#DejaVuSans-17"/></g><g transform="translate(97.568 292.98) scale(.1 -.1)"><defs><path id="DejaVuSans-15" transform="scale(.015625)" d="m1228 531h2203v-531h-2962v531q359 372 979 998 621 627 780 809 303 340 423 576 121 236 121 464 0 372-261 606-261 235-680 235-297 0-627-103-329-103-704-313v638q381 153 712 231 332 78 607 78 725 0 1156-363 431-362 431-968 0-288-108-546-107-257-392-607-78-91-497-524-418-433-1181-1211z"/></defs><use xlink:href="#DejaVuSans-13"/><use transform="translate(63.625)" xlink:href="#DejaVuSans-11"/><use transform="translate(95.406)" xlink:href="#DejaVuSans-13"/><use transform="translate(159.03)" xlink:href="#DejaVuSans-13"/><use transform="translate(222.66)" xlink:href="#DejaVuSans-15"/></g><g transform="translate(118.07 292.98) scale(.1 -.1)"><use xlink:href="#DejaVuSans-13"/><use transform="translate(63.625)" xlink:href="#DejaVuSans-11"/><use transform="translate(95.406)" xlink:href="#DejaVuSans-13"/><use transform="translate(159.03)" xlink:href="#DejaVuSans-13"/><use transform="translate(222.66)" xlink:href="#DejaVuSans-15"/></g><g transform="translate(138.58 293.5) scale(.1 -.1)"><use xlink:href="#DejaVuSans-13"/><use transform="translate(63.625)" xlink:href="#DejaVuSans-11"/><use transform="translate(95.406)" xlink:href="#DejaVuSans-13"/><use transform="translate(159.03)" xlink:href="#DejaVuSans-13"/><use transform="translate(222.66)" xlink:href="#DejaVuSans-14"/></g><g transform="translate(159.08 287.76) scale(.1 -.1)"><use xlink:href="#DejaVuSans-13"/><use transform="translate(63.625)" xlink:href="#DejaVuSans-11"/><use transform="translate(95.406)" xlink:href="#DejaVuSans-13"/><use transform="translate(159.03)" xlink:href="#DejaVuSans-14"/><use transform="translate(222.66)" xlink:href="#DejaVuSans-15"/></g><g transform="translate(179.59 288.29) scale(.1 -.1)"><use xlink:href="#DejaVuSans-13"/><use transform="translate(63.625)" xlink:href="#DejaVuSans-11"/><use transform="translate(95.406)" xlink:href="#DejaVuSans-13"/><use transform="translate(159.03)" xlink:href="#DejaVuSans-14"/><use transform="translate(222.66)" xlink:href="#DejaVuSans-14"/></g><g transform="translate(200.09 293.5) scale(.1 -.1)"><use xlink:href="#DejaVuSans-13"/><use transform="translate(63.625)" xlink:href="#DejaVuSans-11"/><use transform="translate(95.406)" xlink:href="#DejaVuSans-13"/><use transform="translate(159.03)" xlink:href="#DejaVuSans-13"/><use transform="translate(222.66)" xlink:href="#DejaVuSans-14"/></g><g transform="translate(220.6 290.89) scale(.1 -.1)"><defs><path id="DejaVuSans-19" transform="scale(.015625)" d="m2113 2584q-425 0-674-291-248-290-248-796 0-503 248-796 249-292 674-292t673 292q248 293 248 796 0 506-248 796-248 291-673 291zm1253 1979v-575q-238 112-480 171-242 60-480 60-625 0-955-422-329-422-376-1275 184 272 462 417 279 145 613 145 703 0 1111-427 408-426 408-1160 0-719-425-1154-425-434-1131-434-810 0-1238 620-428 621-428 1799 0 1106 525 1764t1409 658q238 0 480-47t505-140z"/></defs><use xlink:href="#DejaVuSans-13"/><use transform="translate(63.625)" xlink:href="#DejaVuSans-11"/><use transform="translate(95.406)" xlink:href="#DejaVuSans-13"/><use transform="translate(159.03)" xlink:href="#DejaVuSans-13"/><use transform="translate(222.66)" xlink:href="#DejaVuSans-19"/></g><g transform="translate(241.11 292.98) scale(.1 -.1)"><use xlink:href="#DejaVuSans-13"/><use transform="translate(63.625)" xlink:href="#DejaVuSans-11"/><use transform="translate(95.406)" xlink:href="#DejaVuSans-13"/><use transform="translate(159.03)" xlink:href="#DejaVuSans-13"/><use transform="translate(222.66)" xlink:href="#DejaVuSans-15"/></g><g transform="translate(261.61 290.89) scale(.1 -.1)"><use xlink:href="#DejaVuSans-13"/><use transform="translate(63.625)" xlink:href="#DejaVuSans-11"/><use transform="translate(95.406)" xlink:href="#DejaVuSans-13"/><use transform="translate(159.03)" xlink:href="#DejaVuSans-13"/><use transform="translate(222.66)" xlink:href="#DejaVuSans-19"/></g><g transform="translate(282.12 291.94) scale(.1 -.1)"><use xlink:href="#DejaVuSans-13"/><use transform="translate(63.625)" xlink:href="#DejaVuSans-11"/><use transform="translate(95.406)" xlink:href="#DejaVuSans-13"/><use transform="translate(159.03)" xlink:href="#DejaVuSans-13"/><use transform="translate(222.66)" xlink:href="#DejaVuSans-17"/></g><g transform="translate(302.62 51.61) scale(.1 -.1)"><use xlink:href="#DejaVuSans-13"/><use transform="translate(63.625)" xlink:href="#DejaVuSans-11"/><use transform="translate(95.406)" xlink:href="#DejaVuSans-17"/><use transform="translate(159.03)" xlink:href="#DejaVuSans-19"/><use transform="translate(222.66)" xlink:href="#DejaVuSans-18"/></g><g transform="translate(56.557 39.62) scale(.1 -.1)"><use xlink:href="#DejaVuSans-13"/><use transform="translate(63.625)" xlink:href="#DejaVuSans-11"/><use transform="translate(95.406)" xlink:href="#DejaVuSans-17"/><use transform="translate(159.03)" xlink:href="#DejaVuSans-1b"/><use transform="translate(222.66)" xlink:href="#DejaVuSans-1b"/></g><g transform="translate(77.062 291.94) scale(.1 -.1)"><use xlink:href="#DejaVuSans-13"/><use transform="translate(63.625)" xlink:href="#DejaVuSans-11"/><use transform="translate(95.406)" xlink:href="#DejaVuSans-13"/><use transform="translate(159.03)" xlink:href="#DejaVuSans-13"/><use transform="translate(222.66)" xlink:href="#DejaVuSans-17"/></g><g transform="translate(97.568 292.98) scale(.1 -.1)"><use xlink:href="#DejaVuSans-13"/><use transform="translate(63.625)" xlink:href="#DejaVuSans-11"/><use transform="translate(95.406)" xlink:href="#DejaVuSans-13"/><use transform="translate(159.03)" xlink:href="#DejaVuSans-13"/><use transform="translate(222.66)" xlink:href="#DejaVuSans-15"/></g><g transform="translate(118.07 292.98) scale(.1 -.1)"><use xlink:href="#DejaVuSans-13"/><use transform="translate(63.625)" xlink:href="#DejaVuSans-11"/><use transform="translate(95.406)" xlink:href="#DejaVuSans-13"/><use transform="translate(159.03)" xlink:href="#DejaVuSans-13"/><use transform="translate(222.66)" xlink:href="#DejaVuSans-15"/></g><g transform="translate(138.58 293.5) scale(.1 -.1)"><use xlink:href="#DejaVuSans-13"/><use transform="translate(63.625)" xlink:href="#DejaVuSans-11"/><use transform="translate(95.406)" xlink:href="#DejaVuSans-13"/><use transform="translate(159.03)" xlink:href="#DejaVuSans-13"/><use transform="translate(222.66)" xlink:href="#DejaVuSans-14"/></g><g transform="translate(159.08 287.76) scale(.1 -.1)"><use xlink:href="#DejaVuSans-13"/><use transform="translate(63.625)" xlink:href="#DejaVuSans-11"/><use transform="translate(95.406)" xlink:href="#DejaVuSans-13"/><use transform="translate(159.03)" xlink:href="#DejaVuSans-14"/><use transform="translate(222.66)" xlink:href="#DejaVuSans-15"/></g><g transform="translate(179.59 288.29) scale(.1 -.1)"><use xlink:href="#DejaVuSans-13"/><use transform="translate(63.625)" xlink:href="#DejaVuSans-11"/><use transform="translate(95.406)" xlink:href="#DejaVuSans-13"/><use transform="translate(159.03)" xlink:href="#DejaVuSans-14"/><use transform="translate(222.66)" xlink:href="#DejaVuSans-14"/></g><g transform="translate(200.09 293.5) scale(.1 -.1)"><use xlink:href="#DejaVuSans-13"/><use transform="translate(63.625)" xlink:href="#DejaVuSans-11"/><use transform="translate(95.406)" xlink:href="#DejaVuSans-13"/><use transform="translate(159.03)" xlink:href="#DejaVuSans-13"/><use transform="translate(222.66)" xlink:href="#DejaVuSans-14"/></g><g transform="translate(220.6 290.89) scale(.1 -.1)"><use xlink:href="#DejaVuSans-13"/><use transform="translate(63.625)" xlink:href="#DejaVuSans-11"/><use transform="translate(95.406)" xlink:href="#DejaVuSans-13"/><use transform="translate(159.03)" xlink:href="#DejaVuSans-13"/><use transform="translate(222.66)" xlink:href="#DejaVuSans-19"/></g><g transform="translate(241.11 292.98) scale(.1 -.1)"><use xlink:href="#DejaVuSans-13"/><use transform="translate(63.625)" xlink:href="#DejaVuSans-11"/><use transform="translate(95.406)" xlink:href="#DejaVuSans-13"/><use transform="translate(159.03)" xlink:href="#DejaVuSans-13"/><use transform="translate(222.66)" xlink:href="#DejaVuSans-15"/></g><g transform="translate(261.61 290.89) scale(.1 -.1)"><use xlink:href="#DejaVuSans-13"/><use transform="translate(63.625)" xlink:href="#DejaVuSans-11"/><use transform="translate(95.406)" xlink:href="#DejaVuSans-13"/><use transform="translate(159.03)" xlink:href="#DejaVuSans-13"/><use transform="translate(222.66)" xlink:href="#DejaVuSans-19"/></g><g transform="translate(282.12 291.94) scale(.1 -.1)"><use xlink:href="#DejaVuSans-13"/><use transform="translate(63.625)" xlink:href="#DejaVuSans-11"/><use transform="translate(95.406)" xlink:href="#DejaVuSans-13"/><use transform="translate(159.03)" xlink:href="#DejaVuSans-13"/><use transform="translate(222.66)" xlink:href="#DejaVuSans-17"/></g><g transform="translate(302.62 51.61) scale(.1 -.1)"><use xlink:href="#DejaVuSans-13"/><use transform="translate(63.625)" xlink:href="#DejaVuSans-11"/><use transform="translate(95.406)" xlink:href="#DejaVuSans-17"/><use transform="translate(159.03)" xlink:href="#DejaVuSans-19"/><use transform="translate(222.66)" xlink:href="#DejaVuSans-18"/></g><g transform="translate(66.573 17.724) scale(.1 -.1)"><use xlink:href="#DejaVuSans-13"/><use transform="translate(63.625)" xlink:href="#DejaVuSans-11"/><use transform="translate(95.406)" xlink:href="#DejaVuSans-18"/><use transform="translate(159.03)" xlink:href="#DejaVuSans-16"/></g><g transform="translate(83.898 293.5) scale(.1 -.1)"><use xlink:href="#DejaVuSans-13"/><use transform="translate(63.625)" xlink:href="#DejaVuSans-11"/><use transform="translate(95.406)" xlink:href="#DejaVuSans-13"/><use transform="translate(159.03)" xlink:href="#DejaVuSans-13"/><use transform="translate(222.66)" xlink:href="#DejaVuSans-14"/></g><g transform="translate(104.4 293.5) scale(.1 -.1)"><use xlink:href="#DejaVuSans-13"/><use transform="translate(63.625)" xlink:href="#DejaVuSans-11"/><use transform="translate(95.406)" xlink:href="#DejaVuSans-13"/><use transform="translate(159.03)" xlink:href="#DejaVuSans-13"/><use transform="translate(222.66)" xlink:href="#DejaVuSans-14"/></g><g transform="translate(136.04 294.02) scale(.1 -.1)"><use xlink:href="#DejaVuSans-13"/></g><g transform="translate(165.92 291.41) scale(.1 -.1)"><use xlink:href="#DejaVuSans-13"/><use transform="translate(63.625)" xlink:href="#DejaVuSans-11"/><use transform="translate(95.406)" xlink:href="#DejaVuSans-13"/><use transform="translate(159.03)" xlink:href="#DejaVuSans-13"/><use transform="translate(222.66)" xlink:href="#DejaVuSans-18"/></g><g transform="translate(186.42 291.94) scale(.1 -.1)"><use xlink:href="#DejaVuSans-13"/><use transform="translate(63.625)" xlink:href="#DejaVuSans-11"/><use transform="translate(95.406)" xlink:href="#DejaVuSans-13"/><use transform="translate(159.03)" xlink:href="#DejaVuSans-13"/><use transform="translate(222.66)" xlink:href="#DejaVuSans-17"/></g><g transform="translate(227.44 292.46) scale(.1 -.1)"><use xlink:href="#DejaVuSans-13"/><use transform="translate(63.625)" xlink:href="#DejaVuSans-11"/><use transform="translate(95.406)" xlink:href="#DejaVuSans-13"/><use transform="translate(159.03)" xlink:href="#DejaVuSans-13"/><use transform="translate(222.66)" xlink:href="#DejaVuSans-16"/></g><g transform="translate(247.94 293.5) scale(.1 -.1)"><use xlink:href="#DejaVuSans-13"/><use transform="translate(63.625)" xlink:href="#DejaVuSans-11"/><use transform="translate(95.406)" xlink:href="#DejaVuSans-13"/><use transform="translate(159.03)" xlink:href="#DejaVuSans-13"/><use transform="translate(222.66)" xlink:href="#DejaVuSans-14"/></g><g transform="translate(268.45 291.94) scale(.1 -.1)"><use xlink:href="#DejaVuSans-13"/><use transform="translate(63.625)" xlink:href="#DejaVuSans-11"/><use transform="translate(95.406)" xlink:href="#DejaVuSans-13"/><use transform="translate(159.03)" xlink:href="#DejaVuSans-13"/><use transform="translate(222.66)" xlink:href="#DejaVuSans-17"/></g><g transform="translate(288.95 292.46) scale(.1 -.1)"><use xlink:href="#DejaVuSans-13"/><use transform="translate(63.625)" xlink:href="#DejaVuSans-11"/><use transform="translate(95.406)" xlink:href="#DejaVuSans-13"/><use transform="translate(159.03)" xlink:href="#DejaVuSans-13"/><use transform="translate(222.66)" xlink:href="#DejaVuSans-16"/></g><g transform="translate(309.46 59.951) scale(.1 -.1)"><defs><path id="DejaVuSans-1c" transform="scale(.015625)" d="m703 97v575q238-113 481-172 244-59 479-59 625 0 954 420 330 420 377 1277-181-269-460-413-278-144-615-144-700 0-1108 423-408 424-408 1159 0 718 425 1152 425 435 1131 435 810 0 1236-621 427-620 427-1801 0-1103-524-1761-523-658-1407-658-238 0-482 47-243 47-506 141zm1256 1978q425 0 673 290 249 291 249 798 0 503-249 795-248 292-673 292t-673-292-248-795q0-507 248-798 248-290 673-290z"/></defs><use xlink:href="#DejaVuSans-13"/><use transform="translate(63.625)" xlink:href="#DejaVuSans-11"/><use transform="translate(95.406)" xlink:href="#DejaVuSans-17"/><use transform="translate(159.03)" xlink:href="#DejaVuSans-17"/><use transform="translate(222.66)" xlink:href="#DejaVuSans-1c"/></g><path d="m345.03 40.202h98.314q2 0 2-2v-29.002q0-2-2-2h-98.314q-2 0-2 2v29.002q0 2 2 2z" fill="#ffffff" opacity=".8" stroke="#cccccc"/><path d="m347.03 18.798h20v-7h-20z" fill="#1f77b4"/><g transform="translate(375.03 18.798) scale(.1 -.1)"><defs><path id="DejaVuSans-31" transform="scale(.015625)" d="m628 4666h850l2069-3903v3903h612v-4666h-850l-2068 3903v-3903h-613v4666z"/><path id="DejaVuSans-50" transform="scale(.015625)" d="m3328 2828q216 388 516 572t706 184q547 0 844-383 297-382 297-1088v-2113h-578v2094q0 503-179 746-178 244-543 244-447 0-707-297-259-296-259-809v-1978h-578v2094q0 506-178 748t-550 242q-441 0-701-298-259-298-259-808v-1978h-578v3500h578v-544q197 322 472 475t653 153q382 0 649-194 267-193 395-562z"/></defs><use xlink:href="#DejaVuSans-31"/><use transform="translate(74.812)" xlink:href="#DejaVuSans-52"/><use transform="translate(136)" xlink:href="#DejaVuSans-55"/><use transform="translate(175.36)" xlink:href="#DejaVuSans-50"/><use transform="translate(272.77)" xlink:href="#DejaVuSans-44"/><use transform="translate(334.05)" xlink:href="#DejaVuSans-4f"/></g><path d="m347.03 33.799h20v-7h-20z" fill="#ff7f0e"/><g transform="translate(375.03 33.799) scale(.1 -.1)"><defs><path id="DejaVuSans-33" transform="scale(.015625)" d="m1259 4147v-1753h794q441 0 681 228 241 228 241 650 0 419-241 647-240 228-681 228h-794zm-631 519h1425q785 0 1186-355 402-355 402-1039 0-691-402-1044-401-353-1186-353h-794v-1875h-631v4666z"/><path id="DejaVuSans-48" transform="scale(.015625)" d="m3597 1894v-281h-2644q38-594 358-905t892-311q331 0 642 81t618 244v-544q-310-131-635-200t-659-69q-838 0-1327 487-489 488-489 1320 0 859 464 1363 464 505 1252 505 706 0 1117-455 411-454 411-1235zm-575 169q-6 471-264 752-258 282-683 282-481 0-770-272t-333-766l2050 4z"/><path id="DejaVuSans-46" transform="scale(.015625)" d="m3122 3366v-538q-244 135-489 202t-495 67q-560 0-870-355-309-354-309-995t309-996q310-354 870-354 250 0 495 67t489 202v-532q-241-112-499-168-257-57-548-57-791 0-1257 497-465 497-465 1341 0 856 470 1346 471 491 1290 491 265 0 518-55 253-54 491-163z"/><path id="DejaVuSans-47" transform="scale(.015625)" d="m2906 2969v1894h575v-4863h-575v525q-181-312-458-464-276-152-664-152-634 0-1033 506-398 507-398 1332t398 1331q399 506 1033 506 388 0 664-152 277-151 458-463zm-1959-1222q0-634 261-995t717-361 718 361q263 361 263 995t-263 995q-262 361-718 361t-717-361-261-995z"/></defs><use xlink:href="#DejaVuSans-33"/><use transform="translate(56.734)" xlink:href="#DejaVuSans-52"/><use transform="translate(117.92)" xlink:href="#DejaVuSans-56"/><use transform="translate(170.02)" xlink:href="#DejaVuSans-57"/><use transform="translate(209.22)" xlink:href="#DejaVuSans-3"/><use transform="translate(241)" xlink:href="#DejaVuSans-56"/><use transform="translate(293.09)" xlink:href="#DejaVuSans-48"/><use transform="translate(354.62)" xlink:href="#DejaVuSans-4f"/><use transform="translate(382.41)" xlink:href="#DejaVuSans-48"/><use transform="translate(443.94)" xlink:href="#DejaVuSans-46"/><use transform="translate(498.92)" xlink:href="#DejaVuSans-57"/><use transform="translate(538.12)" xlink:href="#DejaVuSans-48"/><use transform="translate(599.66)" xlink:href="#DejaVuSans-47"/></g><defs><clipPath id="5117894426f"><rect x="54.467" y="7.2" width="285.71" height="289.22"/></clipPath></defs></svg>