<svg width="357" height="204" viewBox="0 0 357 204" fill="none" xmlns="http://www.w3.org/2000/svg">
<g clip-path="url(#clip0_3599_432434)">
<rect width="357" height="204" fill="#F4F4F4"/>
<path d="M0 153.791C3.77581 153.791 268.24 153.791 400 153.791" stroke="#DDE1E6" stroke-width="2"/>
<path d="M0 102.528C3.77581 102.528 268.24 102.528 400 102.528" stroke="#DDE1E6" stroke-width="2"/>
<path d="M0 49.5549C3.77581 49.5549 268.24 49.5549 400 49.5549" stroke="#DDE1E6" stroke-width="2"/>
<path d="M53.7578 0C53.7578 1.91949 53.7578 136.364 53.7578 203.346" stroke="#DDE1E6" stroke-width="2"/>
<path d="M23 0C23 1.91949 23 136.364 23 203.346" stroke="#DDE1E6" stroke-width="2"/>
<path d="M84.5166 0C84.5166 1.91949 84.5166 136.364 84.5166 203.346" stroke="#DDE1E6" stroke-width="2"/>
<path d="M118.692 0C118.692 1.91949 118.692 136.364 118.692 203.346" stroke="#DDE1E6" stroke-width="2"/>
<path d="M149.45 0C149.45 1.91949 149.45 136.364 149.45 203.346" stroke="#DDE1E6" stroke-width="2"/>
<path d="M180.209 0C180.209 1.91949 180.209 136.364 180.209 203.346" stroke="#DDE1E6" stroke-width="2"/>
<path d="M210.967 0C210.967 1.91949 210.967 136.364 210.967 203.346" stroke="#DDE1E6" stroke-width="2"/>
<path d="M241.726 0C241.726 1.91949 241.726 136.364 241.726 203.346" stroke="#DDE1E6" stroke-width="2"/>
<path d="M272.483 0C272.483 1.91949 272.483 136.364 272.483 203.346" stroke="#DDE1E6" stroke-width="2"/>
<path d="M303.242 0C303.242 1.91949 303.242 136.364 303.242 203.346" stroke="#DDE1E6" stroke-width="2"/>
<path d="M303.242 0C303.242 1.91949 303.242 136.364 303.242 203.346" stroke="#DDE1E6" stroke-width="2"/>
<path d="M334 0C334 1.91949 334 136.364 334 203.346" stroke="#DDE1E6" stroke-width="2"/>
<path fill-rule="evenodd" clip-rule="evenodd" d="M233.492 114.692C221.692 81.5963 210.385 65.8217 200.912 58.3004C196.191 54.5515 191.912 52.8431 188.222 52.0621C185.769 51.5428 183.568 51.4296 181.618 51.4126V51.4205C181.284 51.4205 180.941 51.418 180.587 51.4155L180.587 51.4155C180.465 51.4146 180.341 51.4137 180.217 51.4129C180.092 51.4137 179.969 51.4146 179.846 51.4155L179.846 51.4155C179.493 51.418 179.149 51.4205 178.815 51.4205V51.4126C176.866 51.4296 174.665 51.5428 172.211 52.0621C168.521 52.8431 164.243 54.5515 159.521 58.3004C150.048 65.8217 138.741 81.5963 126.941 114.692C107.902 168.094 71.6049 182.824 55.5361 183.423L55.4617 181.424C70.6292 180.859 106.263 166.733 125.058 114.02C136.904 80.793 148.371 64.5999 158.277 56.7341C163.246 52.7895 167.809 50.9495 171.797 50.1054C175.059 49.4151 177.925 49.397 180.217 49.4123C182.508 49.397 185.375 49.4151 188.636 50.1054C192.625 50.9495 197.188 52.7895 202.156 56.7341C212.063 64.5999 223.529 80.793 235.376 114.02C254.17 166.733 289.804 180.859 304.972 181.424L304.897 183.423C288.828 182.824 252.532 168.094 233.492 114.692Z" fill="url(#paint0_linear_3599_432434)"/>
<path d="M180.209 59.8076V182.841" stroke="#393939" stroke-width="2" stroke-dasharray="3.42 3.42"/>
</g>
<rect x="1" y="1" width="355" height="202" stroke="#F4F4F4" stroke-width="2"/>
<defs>
<linearGradient id="paint0_linear_3599_432434" x1="186.523" y1="52.8264" x2="189.627" y2="183.087" gradientUnits="userSpaceOnUse">
<stop offset="0.328125" stop-color="#0F62FE"/>
<stop offset="1" stop-color="#0F62FE" stop-opacity="0"/>
</linearGradient>
<clipPath id="clip0_3599_432434">
<rect width="357" height="204" fill="white"/>
</clipPath>
</defs>
</svg>
