<?xml version='1.0' encoding='utf-8'?>
<svg xmlns="http://www.w3.org/2000/svg" xmlns:ns1="http://sodipodi.sourceforge.net/DTD/sodipodi-0.dtd" xmlns:ns2="http://www.inkscape.org/namespaces/inkscape" version="1.1" id="svg1" width="100%" height="auto" viewBox="-20.0 -20.0 301.7822 301.78238" ns1:docname="svg_fix_XXXXXX.svg">
  <rect id="path1" x="-20.0" y="-20.0" width="301.7822" height="301.78238" fill="white" /><ns1:namedview id="namedview1" pagecolor="#ffffff" bordercolor="#000000" borderopacity="0.25" ns2:showpageshadow="2" ns2:pageopacity="0.0" ns2:pagecheckerboard="0" ns2:deskcolor="#d1d1d1" />
  <defs id="defs1" />
  <g id="g1" transform="translate(-171.47288,-41.065166)">
    <path id="path2" d="M 0,191.34677 V 0" style="fill:none;stroke:#121619;stroke-width:0.59776;stroke-linecap:butt;stroke-linejoin:miter;stroke-miterlimit:10;stroke-dasharray:none;stroke-opacity:1" transform="matrix(1.3333333,0,0,-1.3333333,174.66667,299.388)" />
    <path id="path3" d="M 0,191.34677 H 191.34677" style="fill:none;stroke:#121619;stroke-width:0.59776;stroke-linecap:butt;stroke-linejoin:miter;stroke-miterlimit:10;stroke-dasharray:none;stroke-opacity:1" transform="matrix(1.3333333,0,0,-1.3333333,174.66667,299.388)" />
    <path id="path4" d="M 21.26073,191.34677 V 0" style="fill:none;stroke:#121619;stroke-width:0.59776;stroke-linecap:butt;stroke-linejoin:miter;stroke-miterlimit:10;stroke-dasharray:none;stroke-opacity:1" transform="matrix(1.3333333,0,0,-1.3333333,174.66667,299.388)" />
    <path id="path5" d="M 0,170.08603 H 191.34677" style="fill:none;stroke:#121619;stroke-width:0.59776;stroke-linecap:butt;stroke-linejoin:miter;stroke-miterlimit:10;stroke-dasharray:none;stroke-opacity:1" transform="matrix(1.3333333,0,0,-1.3333333,174.66667,299.388)" />
    <path id="path6" d="M 42.52148,191.34677 V 0" style="fill:none;stroke:#121619;stroke-width:0.59776;stroke-linecap:butt;stroke-linejoin:miter;stroke-miterlimit:10;stroke-dasharray:none;stroke-opacity:1" transform="matrix(1.3333333,0,0,-1.3333333,174.66667,299.388)" />
    <path id="path7" d="M 0,148.82526 H 191.34677" style="fill:none;stroke:#121619;stroke-width:0.59776;stroke-linecap:butt;stroke-linejoin:miter;stroke-miterlimit:10;stroke-dasharray:none;stroke-opacity:1" transform="matrix(1.3333333,0,0,-1.3333333,174.66667,299.388)" />
    <path id="path8" d="M 63.78223,191.34677 V 0" style="fill:none;stroke:#121619;stroke-width:0.59776;stroke-linecap:butt;stroke-linejoin:miter;stroke-miterlimit:10;stroke-dasharray:none;stroke-opacity:1" transform="matrix(1.3333333,0,0,-1.3333333,174.66667,299.388)" />
    <path id="path9" d="M 0,127.5645 H 191.34677" style="fill:none;stroke:#121619;stroke-width:0.59776;stroke-linecap:butt;stroke-linejoin:miter;stroke-miterlimit:10;stroke-dasharray:none;stroke-opacity:1" transform="matrix(1.3333333,0,0,-1.3333333,174.66667,299.388)" />
    <path id="path10" d="M 85.043,191.34677 V 0" style="fill:none;stroke:#121619;stroke-width:0.59776;stroke-linecap:butt;stroke-linejoin:miter;stroke-miterlimit:10;stroke-dasharray:none;stroke-opacity:1" transform="matrix(1.3333333,0,0,-1.3333333,174.66667,299.388)" />
    <path id="path11" d="M 0,106.30376 H 191.34677" style="fill:none;stroke:#121619;stroke-width:0.59776;stroke-linecap:butt;stroke-linejoin:miter;stroke-miterlimit:10;stroke-dasharray:none;stroke-opacity:1" transform="matrix(1.3333333,0,0,-1.3333333,174.66667,299.388)" />
    <path id="path12" d="M 106.30376,191.34677 V 0" style="fill:none;stroke:#121619;stroke-width:0.59776;stroke-linecap:butt;stroke-linejoin:miter;stroke-miterlimit:10;stroke-dasharray:none;stroke-opacity:1" transform="matrix(1.3333333,0,0,-1.3333333,174.66667,299.388)" />
    <path id="path13" d="M 0,85.043 H 191.34677" style="fill:none;stroke:#121619;stroke-width:0.59776;stroke-linecap:butt;stroke-linejoin:miter;stroke-miterlimit:10;stroke-dasharray:none;stroke-opacity:1" transform="matrix(1.3333333,0,0,-1.3333333,174.66667,299.388)" />
    <path id="path14" d="M 127.5645,191.34677 V 0" style="fill:none;stroke:#121619;stroke-width:0.59776;stroke-linecap:butt;stroke-linejoin:miter;stroke-miterlimit:10;stroke-dasharray:none;stroke-opacity:1" transform="matrix(1.3333333,0,0,-1.3333333,174.66667,299.388)" />
    <path id="path15" d="M 0,63.78223 H 191.34677" style="fill:none;stroke:#121619;stroke-width:0.59776;stroke-linecap:butt;stroke-linejoin:miter;stroke-miterlimit:10;stroke-dasharray:none;stroke-opacity:1" transform="matrix(1.3333333,0,0,-1.3333333,174.66667,299.388)" />
    <path id="path16" d="M 148.82526,191.34677 V 0" style="fill:none;stroke:#121619;stroke-width:0.59776;stroke-linecap:butt;stroke-linejoin:miter;stroke-miterlimit:10;stroke-dasharray:none;stroke-opacity:1" transform="matrix(1.3333333,0,0,-1.3333333,174.66667,299.388)" />
    <path id="path17" d="M 0,42.52148 H 191.34677" style="fill:none;stroke:#121619;stroke-width:0.59776;stroke-linecap:butt;stroke-linejoin:miter;stroke-miterlimit:10;stroke-dasharray:none;stroke-opacity:1" transform="matrix(1.3333333,0,0,-1.3333333,174.66667,299.388)" />
    <path id="path18" d="M 170.08603,191.34677 V 0" style="fill:none;stroke:#121619;stroke-width:0.59776;stroke-linecap:butt;stroke-linejoin:miter;stroke-miterlimit:10;stroke-dasharray:none;stroke-opacity:1" transform="matrix(1.3333333,0,0,-1.3333333,174.66667,299.388)" />
    <path id="path19" d="M 0,21.26073 H 191.34677" style="fill:none;stroke:#121619;stroke-width:0.59776;stroke-linecap:butt;stroke-linejoin:miter;stroke-miterlimit:10;stroke-dasharray:none;stroke-opacity:1" transform="matrix(1.3333333,0,0,-1.3333333,174.66667,299.388)" />
    <path id="path20" d="M 0,0 H 191.34677" style="fill:none;stroke:#121619;stroke-width:0.3985;stroke-linecap:butt;stroke-linejoin:miter;stroke-miterlimit:10;stroke-dasharray:0.3985, 0.99628;stroke-dashoffset:0;stroke-opacity:1" transform="matrix(1.3333333,0,0,-1.3333333,174.66667,299.388)" />
    <path id="path21" d="M 191.34677,191.34677 V 0" style="fill:none;stroke:#121619;stroke-width:0.3985;stroke-linecap:butt;stroke-linejoin:miter;stroke-miterlimit:10;stroke-dasharray:0.3985, 0.99628;stroke-dashoffset:0;stroke-opacity:1" transform="matrix(1.3333333,0,0,-1.3333333,174.66667,299.388)" />
    <path id="path22" d="m 85.043,85.043 h 21.26076 v 21.26076 H 85.043 V 85.043 h 21.26076" style="fill:none;stroke:#121619;stroke-width:1.99255;stroke-linecap:butt;stroke-linejoin:miter;stroke-miterlimit:10;stroke-dasharray:none;stroke-opacity:1" transform="matrix(1.3333333,0,0,-1.3333333,174.66667,299.388)" />
    <path id="path23" d="M 63.78223,138.19487 V 116.93413" style="fill:none;stroke:#121619;stroke-width:1.99255;stroke-linecap:butt;stroke-linejoin:miter;stroke-miterlimit:10;stroke-dasharray:none;stroke-opacity:1" transform="matrix(1.3333333,0,0,-1.3333333,174.66667,299.388)" />
    <path id="path24" d="M 53.15186,127.5645 H 74.41263" style="fill:none;stroke:#121619;stroke-width:1.99255;stroke-linecap:butt;stroke-linejoin:miter;stroke-miterlimit:10;stroke-dasharray:none;stroke-opacity:1" transform="matrix(1.3333333,0,0,-1.3333333,174.66667,299.388)" />
    <path id="path25" d="M 0,180.7164 V 159.45564" style="fill:none;stroke:#121619;stroke-width:1.99255;stroke-linecap:butt;stroke-linejoin:miter;stroke-miterlimit:10;stroke-dasharray:none;stroke-opacity:1" transform="matrix(1.3333333,0,0,-1.3333333,174.66667,299.388)" />
    <path id="path26" d="M 10.63036,170.08603 H 0" style="fill:none;stroke:#121619;stroke-width:1.99255;stroke-linecap:butt;stroke-linejoin:miter;stroke-miterlimit:10;stroke-dasharray:none;stroke-opacity:1" transform="matrix(1.3333333,0,0,-1.3333333,174.66667,299.388)" />
    <path id="path27" d="m 180.7164,170.08603 h 10.63037" style="fill:none;stroke:#121619;stroke-width:1.99255;stroke-linecap:butt;stroke-linejoin:miter;stroke-miterlimit:10;stroke-dasharray:none;stroke-opacity:1" transform="matrix(1.3333333,0,0,-1.3333333,174.66667,299.388)" />
    <path id="path28" d="m 127.5645,-0.74721 v 22.00794 h 21.26076 V -0.74721" style="fill:none;stroke:#121619;stroke-width:1.99255;stroke-linecap:butt;stroke-linejoin:miter;stroke-miterlimit:10;stroke-dasharray:none;stroke-opacity:1" transform="matrix(1.3333333,0,0,-1.3333333,174.66667,299.388)" />
    <path id="path29" d="m 126.81729,191.34677 h 22.75517" style="fill:none;stroke:#121619;stroke-width:1.99255;stroke-linecap:butt;stroke-linejoin:miter;stroke-miterlimit:10;stroke-dasharray:none;stroke-opacity:1" transform="matrix(1.3333333,0,0,-1.3333333,174.66667,299.388)" />
    <path id="path30" d="m 2.39534,180.7164 c 0,1.32292 -1.07242,2.39534 -2.39534,2.39534 -1.32292,0 -2.39534,-1.07242 -2.39534,-2.39534 0,-1.32292 1.07242,-2.39534 2.39534,-2.39534 1.32292,0 2.39534,1.07242 2.39534,2.39534 z" style="fill:#78a9ff;fill-opacity:1;fill-rule:nonzero;stroke:none" transform="matrix(1.3333333,0,0,-1.3333333,174.66667,299.388)" />
    <path id="path31" d="m 13.0257,191.34677 c 0,1.32293 -1.07242,2.39536 -2.39534,2.39536 -1.32293,0 -2.39534,-1.07243 -2.39534,-2.39536 0,-1.32292 1.07241,-2.39534 2.39534,-2.39534 1.32292,0 2.39534,1.07242 2.39534,2.39534 z" style="fill:#78a9ff;fill-opacity:1;fill-rule:nonzero;stroke:none" transform="matrix(1.3333333,0,0,-1.3333333,174.66667,299.388)" />
    <path id="path32" d="m 2.39534,159.45564 c 0,1.32292 -1.07242,2.39534 -2.39534,2.39534 -1.32292,0 -2.39534,-1.07242 -2.39534,-2.39534 0,-1.32292 1.07242,-2.39534 2.39534,-2.39534 1.32292,0 2.39534,1.07242 2.39534,2.39534 z" style="fill:#78a9ff;fill-opacity:1;fill-rule:nonzero;stroke:none" transform="matrix(1.3333333,0,0,-1.3333333,174.66667,299.388)" />
    <path id="path33" d="m 13.0257,170.08603 c 0,1.32292 -1.07242,2.39535 -2.39534,2.39535 -1.32293,0 -2.39534,-1.07243 -2.39534,-2.39535 0,-1.32293 1.07241,-2.39534 2.39534,-2.39534 1.32292,0 2.39534,1.07241 2.39534,2.39534 z" style="fill:#78a9ff;fill-opacity:1;fill-rule:nonzero;stroke:none" transform="matrix(1.3333333,0,0,-1.3333333,174.66667,299.388)" />
    <path id="path34" d="m 2.39534,138.19487 c 0,1.32292 -1.07242,2.39534 -2.39534,2.39534 -1.32292,0 -2.39534,-1.07242 -2.39534,-2.39534 0,-1.32292 1.07242,-2.39534 2.39534,-2.39534 1.32292,0 2.39534,1.07242 2.39534,2.39534 z" style="fill:#78a9ff;fill-opacity:1;fill-rule:nonzero;stroke:none" transform="matrix(1.3333333,0,0,-1.3333333,174.66667,299.388)" />
    <path id="path35" d="m 13.0257,148.82526 c 0,1.32292 -1.07242,2.39535 -2.39534,2.39535 -1.32293,0 -2.39534,-1.07243 -2.39534,-2.39535 0,-1.32293 1.07241,-2.39534 2.39534,-2.39534 1.32292,0 2.39534,1.07241 2.39534,2.39534 z" style="fill:#78a9ff;fill-opacity:1;fill-rule:nonzero;stroke:none" transform="matrix(1.3333333,0,0,-1.3333333,174.66667,299.388)" />
    <path id="path36" d="m 2.39534,116.93413 c 0,1.32292 -1.07242,2.39534 -2.39534,2.39534 -1.32292,0 -2.39534,-1.07242 -2.39534,-2.39534 0,-1.32293 1.07242,-2.39534 2.39534,-2.39534 1.32292,0 2.39534,1.07241 2.39534,2.39534 z" style="fill:#78a9ff;fill-opacity:1;fill-rule:nonzero;stroke:none" transform="matrix(1.3333333,0,0,-1.3333333,174.66667,299.388)" />
    <path id="path37" d="m 13.0257,127.5645 c 0,1.32292 -1.07242,2.39535 -2.39534,2.39535 -1.32293,0 -2.39534,-1.07243 -2.39534,-2.39535 0,-1.32292 1.07241,-2.39534 2.39534,-2.39534 1.32292,0 2.39534,1.07242 2.39534,2.39534 z" style="fill:#78a9ff;fill-opacity:1;fill-rule:nonzero;stroke:none" transform="matrix(1.3333333,0,0,-1.3333333,174.66667,299.388)" />
    <path id="path38" d="m 2.39534,95.67337 c 0,1.32292 -1.07242,2.39534 -2.39534,2.39534 -1.32292,0 -2.39534,-1.07242 -2.39534,-2.39534 0,-1.32292 1.07242,-2.39534 2.39534,-2.39534 1.32292,0 2.39534,1.07242 2.39534,2.39534 z" style="fill:#78a9ff;fill-opacity:1;fill-rule:nonzero;stroke:none" transform="matrix(1.3333333,0,0,-1.3333333,174.66667,299.388)" />
    <path id="path39" d="m 13.0257,106.30376 c 0,1.32292 -1.07242,2.39535 -2.39534,2.39535 -1.32293,0 -2.39534,-1.07243 -2.39534,-2.39535 0,-1.32293 1.07241,-2.39534 2.39534,-2.39534 1.32292,0 2.39534,1.07241 2.39534,2.39534 z" style="fill:#78a9ff;fill-opacity:1;fill-rule:nonzero;stroke:none" transform="matrix(1.3333333,0,0,-1.3333333,174.66667,299.388)" />
    <path id="path40" d="m 2.39534,74.41263 c 0,1.32292 -1.07242,2.39534 -2.39534,2.39534 -1.32292,0 -2.39534,-1.07242 -2.39534,-2.39534 0,-1.32293 1.07242,-2.39534 2.39534,-2.39534 1.32292,0 2.39534,1.07241 2.39534,2.39534 z" style="fill:#78a9ff;fill-opacity:1;fill-rule:nonzero;stroke:none" transform="matrix(1.3333333,0,0,-1.3333333,174.66667,299.388)" />
    <path id="path41" d="m 13.0257,85.043 c 0,1.32292 -1.07242,2.39535 -2.39534,2.39535 -1.32293,0 -2.39534,-1.07243 -2.39534,-2.39535 0,-1.32292 1.07241,-2.39534 2.39534,-2.39534 1.32292,0 2.39534,1.07242 2.39534,2.39534 z" style="fill:#78a9ff;fill-opacity:1;fill-rule:nonzero;stroke:none" transform="matrix(1.3333333,0,0,-1.3333333,174.66667,299.388)" />
    <path id="path42" d="m 2.39534,53.15186 c 0,1.32292 -1.07242,2.39534 -2.39534,2.39534 -1.32292,0 -2.39534,-1.07242 -2.39534,-2.39534 0,-1.32293 1.07242,-2.39534 2.39534,-2.39534 1.32292,0 2.39534,1.07241 2.39534,2.39534 z" style="fill:#78a9ff;fill-opacity:1;fill-rule:nonzero;stroke:none" transform="matrix(1.3333333,0,0,-1.3333333,174.66667,299.388)" />
    <path id="path43" d="m 13.0257,63.78223 c 0,1.32292 -1.07242,2.39535 -2.39534,2.39535 -1.32293,0 -2.39534,-1.07243 -2.39534,-2.39535 0,-1.32293 1.07241,-2.39534 2.39534,-2.39534 1.32292,0 2.39534,1.07241 2.39534,2.39534 z" style="fill:#78a9ff;fill-opacity:1;fill-rule:nonzero;stroke:none" transform="matrix(1.3333333,0,0,-1.3333333,174.66667,299.388)" />
    <path id="path44" d="m 2.39534,31.8911 c 0,1.32292 -1.07242,2.39534 -2.39534,2.39534 -1.32292,0 -2.39534,-1.07242 -2.39534,-2.39534 0,-1.32292 1.07242,-2.39534 2.39534,-2.39534 1.32292,0 2.39534,1.07242 2.39534,2.39534 z" style="fill:#78a9ff;fill-opacity:1;fill-rule:nonzero;stroke:none" transform="matrix(1.3333333,0,0,-1.3333333,174.66667,299.388)" />
    <path id="path45" d="m 13.0257,42.52148 c 0,1.32292 -1.07242,2.39536 -2.39534,2.39536 -1.32293,0 -2.39534,-1.07244 -2.39534,-2.39536 0,-1.32292 1.07241,-2.39534 2.39534,-2.39534 1.32292,0 2.39534,1.07242 2.39534,2.39534 z" style="fill:#78a9ff;fill-opacity:1;fill-rule:nonzero;stroke:none" transform="matrix(1.3333333,0,0,-1.3333333,174.66667,299.388)" />
    <path id="path46" d="m 2.39534,10.63036 c 0,1.32292 -1.07242,2.39534 -2.39534,2.39534 -1.32292,0 -2.39534,-1.07242 -2.39534,-2.39534 0,-1.32293 1.07242,-2.39534 2.39534,-2.39534 1.32292,0 2.39534,1.07241 2.39534,2.39534 z" style="fill:#78a9ff;fill-opacity:1;fill-rule:nonzero;stroke:none" transform="matrix(1.3333333,0,0,-1.3333333,174.66667,299.388)" />
    <path id="path47" d="m 13.0257,21.26073 c 0,1.32292 -1.07242,2.39535 -2.39534,2.39535 -1.32293,0 -2.39534,-1.07243 -2.39534,-2.39535 0,-1.32293 1.07241,-2.39534 2.39534,-2.39534 1.32292,0 2.39534,1.07241 2.39534,2.39534 z" style="fill:#78a9ff;fill-opacity:1;fill-rule:nonzero;stroke:none" transform="matrix(1.3333333,0,0,-1.3333333,174.66667,299.388)" />
    <path id="path48" d="m 23.65608,180.7164 c 0,1.32292 -1.07243,2.39534 -2.39535,2.39534 -1.32293,0 -2.39534,-1.07242 -2.39534,-2.39534 0,-1.32292 1.07241,-2.39534 2.39534,-2.39534 1.32292,0 2.39535,1.07242 2.39535,2.39534 z" style="fill:#78a9ff;fill-opacity:1;fill-rule:nonzero;stroke:none" transform="matrix(1.3333333,0,0,-1.3333333,174.66667,299.388)" />
    <path id="path49" d="m 34.28644,191.34677 c 0,1.32293 -1.07242,2.39536 -2.39534,2.39536 -1.32292,0 -2.39534,-1.07243 -2.39534,-2.39536 0,-1.32292 1.07242,-2.39534 2.39534,-2.39534 1.32292,0 2.39534,1.07242 2.39534,2.39534 z" style="fill:#78a9ff;fill-opacity:1;fill-rule:nonzero;stroke:none" transform="matrix(1.3333333,0,0,-1.3333333,174.66667,299.388)" />
    <path id="path50" d="m 23.65608,159.45564 c 0,1.32292 -1.07243,2.39534 -2.39535,2.39534 -1.32293,0 -2.39534,-1.07242 -2.39534,-2.39534 0,-1.32292 1.07241,-2.39534 2.39534,-2.39534 1.32292,0 2.39535,1.07242 2.39535,2.39534 z" style="fill:#78a9ff;fill-opacity:1;fill-rule:nonzero;stroke:none" transform="matrix(1.3333333,0,0,-1.3333333,174.66667,299.388)" />
    <path id="path51" d="m 34.28644,170.08603 c 0,1.32292 -1.07242,2.39535 -2.39534,2.39535 -1.32292,0 -2.39534,-1.07243 -2.39534,-2.39535 0,-1.32293 1.07242,-2.39534 2.39534,-2.39534 1.32292,0 2.39534,1.07241 2.39534,2.39534 z" style="fill:#78a9ff;fill-opacity:1;fill-rule:nonzero;stroke:none" transform="matrix(1.3333333,0,0,-1.3333333,174.66667,299.388)" />
    <path id="path52" d="m 23.65608,138.19487 c 0,1.32292 -1.07243,2.39534 -2.39535,2.39534 -1.32293,0 -2.39534,-1.07242 -2.39534,-2.39534 0,-1.32292 1.07241,-2.39534 2.39534,-2.39534 1.32292,0 2.39535,1.07242 2.39535,2.39534 z" style="fill:#78a9ff;fill-opacity:1;fill-rule:nonzero;stroke:none" transform="matrix(1.3333333,0,0,-1.3333333,174.66667,299.388)" />
    <path id="path53" d="m 34.28644,148.82526 c 0,1.32292 -1.07242,2.39535 -2.39534,2.39535 -1.32292,0 -2.39534,-1.07243 -2.39534,-2.39535 0,-1.32293 1.07242,-2.39534 2.39534,-2.39534 1.32292,0 2.39534,1.07241 2.39534,2.39534 z" style="fill:#78a9ff;fill-opacity:1;fill-rule:nonzero;stroke:none" transform="matrix(1.3333333,0,0,-1.3333333,174.66667,299.388)" />
    <path id="path54" d="m 23.65608,116.93413 c 0,1.32292 -1.07243,2.39534 -2.39535,2.39534 -1.32293,0 -2.39534,-1.07242 -2.39534,-2.39534 0,-1.32293 1.07241,-2.39534 2.39534,-2.39534 1.32292,0 2.39535,1.07241 2.39535,2.39534 z" style="fill:#78a9ff;fill-opacity:1;fill-rule:nonzero;stroke:none" transform="matrix(1.3333333,0,0,-1.3333333,174.66667,299.388)" />
    <path id="path55" d="m 34.28644,127.5645 c 0,1.32292 -1.07242,2.39535 -2.39534,2.39535 -1.32292,0 -2.39534,-1.07243 -2.39534,-2.39535 0,-1.32292 1.07242,-2.39534 2.39534,-2.39534 1.32292,0 2.39534,1.07242 2.39534,2.39534 z" style="fill:#78a9ff;fill-opacity:1;fill-rule:nonzero;stroke:none" transform="matrix(1.3333333,0,0,-1.3333333,174.66667,299.388)" />
    <path id="path56" d="m 23.65608,95.67337 c 0,1.32292 -1.07243,2.39534 -2.39535,2.39534 -1.32293,0 -2.39534,-1.07242 -2.39534,-2.39534 0,-1.32292 1.07241,-2.39534 2.39534,-2.39534 1.32292,0 2.39535,1.07242 2.39535,2.39534 z" style="fill:#78a9ff;fill-opacity:1;fill-rule:nonzero;stroke:none" transform="matrix(1.3333333,0,0,-1.3333333,174.66667,299.388)" />
    <path id="path57" d="m 34.28644,106.30376 c 0,1.32292 -1.07242,2.39535 -2.39534,2.39535 -1.32292,0 -2.39534,-1.07243 -2.39534,-2.39535 0,-1.32293 1.07242,-2.39534 2.39534,-2.39534 1.32292,0 2.39534,1.07241 2.39534,2.39534 z" style="fill:#78a9ff;fill-opacity:1;fill-rule:nonzero;stroke:none" transform="matrix(1.3333333,0,0,-1.3333333,174.66667,299.388)" />
    <path id="path58" d="m 23.65608,74.41263 c 0,1.32292 -1.07243,2.39534 -2.39535,2.39534 -1.32293,0 -2.39534,-1.07242 -2.39534,-2.39534 0,-1.32293 1.07241,-2.39534 2.39534,-2.39534 1.32292,0 2.39535,1.07241 2.39535,2.39534 z" style="fill:#78a9ff;fill-opacity:1;fill-rule:nonzero;stroke:none" transform="matrix(1.3333333,0,0,-1.3333333,174.66667,299.388)" />
    <path id="path59" d="m 34.28644,85.043 c 0,1.32292 -1.07242,2.39535 -2.39534,2.39535 -1.32292,0 -2.39534,-1.07243 -2.39534,-2.39535 0,-1.32292 1.07242,-2.39534 2.39534,-2.39534 1.32292,0 2.39534,1.07242 2.39534,2.39534 z" style="fill:#78a9ff;fill-opacity:1;fill-rule:nonzero;stroke:none" transform="matrix(1.3333333,0,0,-1.3333333,174.66667,299.388)" />
    <path id="path60" d="m 23.65608,53.15186 c 0,1.32292 -1.07243,2.39534 -2.39535,2.39534 -1.32293,0 -2.39534,-1.07242 -2.39534,-2.39534 0,-1.32293 1.07241,-2.39534 2.39534,-2.39534 1.32292,0 2.39535,1.07241 2.39535,2.39534 z" style="fill:#78a9ff;fill-opacity:1;fill-rule:nonzero;stroke:none" transform="matrix(1.3333333,0,0,-1.3333333,174.66667,299.388)" />
    <path id="path61" d="m 34.28644,63.78223 c 0,1.32292 -1.07242,2.39535 -2.39534,2.39535 -1.32292,0 -2.39534,-1.07243 -2.39534,-2.39535 0,-1.32293 1.07242,-2.39534 2.39534,-2.39534 1.32292,0 2.39534,1.07241 2.39534,2.39534 z" style="fill:#78a9ff;fill-opacity:1;fill-rule:nonzero;stroke:none" transform="matrix(1.3333333,0,0,-1.3333333,174.66667,299.388)" />
    <path id="path62" d="m 23.65608,31.8911 c 0,1.32292 -1.07243,2.39534 -2.39535,2.39534 -1.32293,0 -2.39534,-1.07242 -2.39534,-2.39534 0,-1.32292 1.07241,-2.39534 2.39534,-2.39534 1.32292,0 2.39535,1.07242 2.39535,2.39534 z" style="fill:#78a9ff;fill-opacity:1;fill-rule:nonzero;stroke:none" transform="matrix(1.3333333,0,0,-1.3333333,174.66667,299.388)" />
    <path id="path63" d="m 34.28644,42.52148 c 0,1.32292 -1.07242,2.39536 -2.39534,2.39536 -1.32292,0 -2.39534,-1.07244 -2.39534,-2.39536 0,-1.32292 1.07242,-2.39534 2.39534,-2.39534 1.32292,0 2.39534,1.07242 2.39534,2.39534 z" style="fill:#78a9ff;fill-opacity:1;fill-rule:nonzero;stroke:none" transform="matrix(1.3333333,0,0,-1.3333333,174.66667,299.388)" />
    <path id="path64" d="m 23.65608,10.63036 c 0,1.32292 -1.07243,2.39534 -2.39535,2.39534 -1.32293,0 -2.39534,-1.07242 -2.39534,-2.39534 0,-1.32293 1.07241,-2.39534 2.39534,-2.39534 1.32292,0 2.39535,1.07241 2.39535,2.39534 z" style="fill:#78a9ff;fill-opacity:1;fill-rule:nonzero;stroke:none" transform="matrix(1.3333333,0,0,-1.3333333,174.66667,299.388)" />
    <path id="path65" d="m 34.28644,21.26073 c 0,1.32292 -1.07242,2.39535 -2.39534,2.39535 -1.32292,0 -2.39534,-1.07243 -2.39534,-2.39535 0,-1.32293 1.07242,-2.39534 2.39534,-2.39534 1.32292,0 2.39534,1.07241 2.39534,2.39534 z" style="fill:#78a9ff;fill-opacity:1;fill-rule:nonzero;stroke:none" transform="matrix(1.3333333,0,0,-1.3333333,174.66667,299.388)" />
    <path id="path66" d="m 44.91684,180.7164 c 0,1.32292 -1.07244,2.39534 -2.39536,2.39534 -1.32292,0 -2.39534,-1.07242 -2.39534,-2.39534 0,-1.32292 1.07242,-2.39534 2.39534,-2.39534 1.32292,0 2.39536,1.07242 2.39536,2.39534 z" style="fill:#78a9ff;fill-opacity:1;fill-rule:nonzero;stroke:none" transform="matrix(1.3333333,0,0,-1.3333333,174.66667,299.388)" />
    <path id="path67" d="m 55.5472,191.34677 c 0,1.32293 -1.07242,2.39536 -2.39534,2.39536 -1.32293,0 -2.39534,-1.07243 -2.39534,-2.39536 0,-1.32292 1.07241,-2.39534 2.39534,-2.39534 1.32292,0 2.39534,1.07242 2.39534,2.39534 z" style="fill:#78a9ff;fill-opacity:1;fill-rule:nonzero;stroke:none" transform="matrix(1.3333333,0,0,-1.3333333,174.66667,299.388)" />
    <path id="path68" d="m 44.91684,159.45564 c 0,1.32292 -1.07244,2.39534 -2.39536,2.39534 -1.32292,0 -2.39534,-1.07242 -2.39534,-2.39534 0,-1.32292 1.07242,-2.39534 2.39534,-2.39534 1.32292,0 2.39536,1.07242 2.39536,2.39534 z" style="fill:#78a9ff;fill-opacity:1;fill-rule:nonzero;stroke:none" transform="matrix(1.3333333,0,0,-1.3333333,174.66667,299.388)" />
    <path id="path69" d="m 55.5472,170.08603 c 0,1.32292 -1.07242,2.39535 -2.39534,2.39535 -1.32293,0 -2.39534,-1.07243 -2.39534,-2.39535 0,-1.32293 1.07241,-2.39534 2.39534,-2.39534 1.32292,0 2.39534,1.07241 2.39534,2.39534 z" style="fill:#78a9ff;fill-opacity:1;fill-rule:nonzero;stroke:none" transform="matrix(1.3333333,0,0,-1.3333333,174.66667,299.388)" />
    <path id="path70" d="m 44.91684,138.19487 c 0,1.32292 -1.07244,2.39534 -2.39536,2.39534 -1.32292,0 -2.39534,-1.07242 -2.39534,-2.39534 0,-1.32292 1.07242,-2.39534 2.39534,-2.39534 1.32292,0 2.39536,1.07242 2.39536,2.39534 z" style="fill:#78a9ff;fill-opacity:1;fill-rule:nonzero;stroke:none" transform="matrix(1.3333333,0,0,-1.3333333,174.66667,299.388)" />
    <path id="path71" d="m 55.5472,148.82526 c 0,1.32292 -1.07242,2.39535 -2.39534,2.39535 -1.32293,0 -2.39534,-1.07243 -2.39534,-2.39535 0,-1.32293 1.07241,-2.39534 2.39534,-2.39534 1.32292,0 2.39534,1.07241 2.39534,2.39534 z" style="fill:#78a9ff;fill-opacity:1;fill-rule:nonzero;stroke:none" transform="matrix(1.3333333,0,0,-1.3333333,174.66667,299.388)" />
    <path id="path72" d="m 44.91684,116.93413 c 0,1.32292 -1.07244,2.39534 -2.39536,2.39534 -1.32292,0 -2.39534,-1.07242 -2.39534,-2.39534 0,-1.32293 1.07242,-2.39534 2.39534,-2.39534 1.32292,0 2.39536,1.07241 2.39536,2.39534 z" style="fill:#78a9ff;fill-opacity:1;fill-rule:nonzero;stroke:none" transform="matrix(1.3333333,0,0,-1.3333333,174.66667,299.388)" />
    <path id="path73" d="m 55.5472,127.5645 c 0,1.32292 -1.07242,2.39535 -2.39534,2.39535 -1.32293,0 -2.39534,-1.07243 -2.39534,-2.39535 0,-1.32292 1.07241,-2.39534 2.39534,-2.39534 1.32292,0 2.39534,1.07242 2.39534,2.39534 z" style="fill:#78a9ff;fill-opacity:1;fill-rule:nonzero;stroke:none" transform="matrix(1.3333333,0,0,-1.3333333,174.66667,299.388)" />
    <path id="path74" d="m 44.91684,95.67337 c 0,1.32292 -1.07244,2.39534 -2.39536,2.39534 -1.32292,0 -2.39534,-1.07242 -2.39534,-2.39534 0,-1.32292 1.07242,-2.39534 2.39534,-2.39534 1.32292,0 2.39536,1.07242 2.39536,2.39534 z" style="fill:#78a9ff;fill-opacity:1;fill-rule:nonzero;stroke:none" transform="matrix(1.3333333,0,0,-1.3333333,174.66667,299.388)" />
    <path id="path75" d="m 55.5472,106.30376 c 0,1.32292 -1.07242,2.39535 -2.39534,2.39535 -1.32293,0 -2.39534,-1.07243 -2.39534,-2.39535 0,-1.32293 1.07241,-2.39534 2.39534,-2.39534 1.32292,0 2.39534,1.07241 2.39534,2.39534 z" style="fill:#78a9ff;fill-opacity:1;fill-rule:nonzero;stroke:none" transform="matrix(1.3333333,0,0,-1.3333333,174.66667,299.388)" />
    <path id="path76" d="m 44.91684,74.41263 c 0,1.32292 -1.07244,2.39534 -2.39536,2.39534 -1.32292,0 -2.39534,-1.07242 -2.39534,-2.39534 0,-1.32293 1.07242,-2.39534 2.39534,-2.39534 1.32292,0 2.39536,1.07241 2.39536,2.39534 z" style="fill:#78a9ff;fill-opacity:1;fill-rule:nonzero;stroke:none" transform="matrix(1.3333333,0,0,-1.3333333,174.66667,299.388)" />
    <path id="path77" d="m 55.5472,85.043 c 0,1.32292 -1.07242,2.39535 -2.39534,2.39535 -1.32293,0 -2.39534,-1.07243 -2.39534,-2.39535 0,-1.32292 1.07241,-2.39534 2.39534,-2.39534 1.32292,0 2.39534,1.07242 2.39534,2.39534 z" style="fill:#78a9ff;fill-opacity:1;fill-rule:nonzero;stroke:none" transform="matrix(1.3333333,0,0,-1.3333333,174.66667,299.388)" />
    <path id="path78" d="m 44.91684,53.15186 c 0,1.32292 -1.07244,2.39534 -2.39536,2.39534 -1.32292,0 -2.39534,-1.07242 -2.39534,-2.39534 0,-1.32293 1.07242,-2.39534 2.39534,-2.39534 1.32292,0 2.39536,1.07241 2.39536,2.39534 z" style="fill:#78a9ff;fill-opacity:1;fill-rule:nonzero;stroke:none" transform="matrix(1.3333333,0,0,-1.3333333,174.66667,299.388)" />
    <path id="path79" d="m 55.5472,63.78223 c 0,1.32292 -1.07242,2.39535 -2.39534,2.39535 -1.32293,0 -2.39534,-1.07243 -2.39534,-2.39535 0,-1.32293 1.07241,-2.39534 2.39534,-2.39534 1.32292,0 2.39534,1.07241 2.39534,2.39534 z" style="fill:#78a9ff;fill-opacity:1;fill-rule:nonzero;stroke:none" transform="matrix(1.3333333,0,0,-1.3333333,174.66667,299.388)" />
    <path id="path80" d="m 44.91684,31.8911 c 0,1.32292 -1.07244,2.39534 -2.39536,2.39534 -1.32292,0 -2.39534,-1.07242 -2.39534,-2.39534 0,-1.32292 1.07242,-2.39534 2.39534,-2.39534 1.32292,0 2.39536,1.07242 2.39536,2.39534 z" style="fill:#78a9ff;fill-opacity:1;fill-rule:nonzero;stroke:none" transform="matrix(1.3333333,0,0,-1.3333333,174.66667,299.388)" />
    <path id="path81" d="m 55.5472,42.52148 c 0,1.32292 -1.07242,2.39536 -2.39534,2.39536 -1.32293,0 -2.39534,-1.07244 -2.39534,-2.39536 0,-1.32292 1.07241,-2.39534 2.39534,-2.39534 1.32292,0 2.39534,1.07242 2.39534,2.39534 z" style="fill:#78a9ff;fill-opacity:1;fill-rule:nonzero;stroke:none" transform="matrix(1.3333333,0,0,-1.3333333,174.66667,299.388)" />
    <path id="path82" d="m 44.91684,10.63036 c 0,1.32292 -1.07244,2.39534 -2.39536,2.39534 -1.32292,0 -2.39534,-1.07242 -2.39534,-2.39534 0,-1.32293 1.07242,-2.39534 2.39534,-2.39534 1.32292,0 2.39536,1.07241 2.39536,2.39534 z" style="fill:#78a9ff;fill-opacity:1;fill-rule:nonzero;stroke:none" transform="matrix(1.3333333,0,0,-1.3333333,174.66667,299.388)" />
    <path id="path83" d="m 55.5472,21.26073 c 0,1.32292 -1.07242,2.39535 -2.39534,2.39535 -1.32293,0 -2.39534,-1.07243 -2.39534,-2.39535 0,-1.32293 1.07241,-2.39534 2.39534,-2.39534 1.32292,0 2.39534,1.07241 2.39534,2.39534 z" style="fill:#78a9ff;fill-opacity:1;fill-rule:nonzero;stroke:none" transform="matrix(1.3333333,0,0,-1.3333333,174.66667,299.388)" />
    <path id="path84" d="m 66.17758,180.7164 c 0,1.32292 -1.07243,2.39534 -2.39535,2.39534 -1.32293,0 -2.39534,-1.07242 -2.39534,-2.39534 0,-1.32292 1.07241,-2.39534 2.39534,-2.39534 1.32292,0 2.39535,1.07242 2.39535,2.39534 z" style="fill:#78a9ff;fill-opacity:1;fill-rule:nonzero;stroke:none" transform="matrix(1.3333333,0,0,-1.3333333,174.66667,299.388)" />
    <path id="path85" d="m 76.80797,191.34677 c 0,1.32293 -1.07242,2.39536 -2.39534,2.39536 -1.32293,0 -2.39534,-1.07243 -2.39534,-2.39536 0,-1.32292 1.07241,-2.39534 2.39534,-2.39534 1.32292,0 2.39534,1.07242 2.39534,2.39534 z" style="fill:#78a9ff;fill-opacity:1;fill-rule:nonzero;stroke:none" transform="matrix(1.3333333,0,0,-1.3333333,174.66667,299.388)" />
    <path id="path86" d="m 66.17758,159.45564 c 0,1.32292 -1.07243,2.39534 -2.39535,2.39534 -1.32293,0 -2.39534,-1.07242 -2.39534,-2.39534 0,-1.32292 1.07241,-2.39534 2.39534,-2.39534 1.32292,0 2.39535,1.07242 2.39535,2.39534 z" style="fill:#78a9ff;fill-opacity:1;fill-rule:nonzero;stroke:none" transform="matrix(1.3333333,0,0,-1.3333333,174.66667,299.388)" />
    <path id="path87" d="m 76.80797,170.08603 c 0,1.32292 -1.07242,2.39535 -2.39534,2.39535 -1.32293,0 -2.39534,-1.07243 -2.39534,-2.39535 0,-1.32293 1.07241,-2.39534 2.39534,-2.39534 1.32292,0 2.39534,1.07241 2.39534,2.39534 z" style="fill:#78a9ff;fill-opacity:1;fill-rule:nonzero;stroke:none" transform="matrix(1.3333333,0,0,-1.3333333,174.66667,299.388)" />
    <path id="path88" d="m 66.17758,138.19487 c 0,1.32292 -1.07243,2.39534 -2.39535,2.39534 -1.32293,0 -2.39534,-1.07242 -2.39534,-2.39534 0,-1.32292 1.07241,-2.39534 2.39534,-2.39534 1.32292,0 2.39535,1.07242 2.39535,2.39534 z" style="fill:#78a9ff;fill-opacity:1;fill-rule:nonzero;stroke:none" transform="matrix(1.3333333,0,0,-1.3333333,174.66667,299.388)" />
    <path id="path89" d="m 76.80797,148.82526 c 0,1.32292 -1.07242,2.39535 -2.39534,2.39535 -1.32293,0 -2.39534,-1.07243 -2.39534,-2.39535 0,-1.32293 1.07241,-2.39534 2.39534,-2.39534 1.32292,0 2.39534,1.07241 2.39534,2.39534 z" style="fill:#78a9ff;fill-opacity:1;fill-rule:nonzero;stroke:none" transform="matrix(1.3333333,0,0,-1.3333333,174.66667,299.388)" />
    <path id="path90" d="m 66.17758,116.93413 c 0,1.32292 -1.07243,2.39534 -2.39535,2.39534 -1.32293,0 -2.39534,-1.07242 -2.39534,-2.39534 0,-1.32293 1.07241,-2.39534 2.39534,-2.39534 1.32292,0 2.39535,1.07241 2.39535,2.39534 z" style="fill:#78a9ff;fill-opacity:1;fill-rule:nonzero;stroke:none" transform="matrix(1.3333333,0,0,-1.3333333,174.66667,299.388)" />
    <path id="path91" d="m 76.80797,127.5645 c 0,1.32292 -1.07242,2.39535 -2.39534,2.39535 -1.32293,0 -2.39534,-1.07243 -2.39534,-2.39535 0,-1.32292 1.07241,-2.39534 2.39534,-2.39534 1.32292,0 2.39534,1.07242 2.39534,2.39534 z" style="fill:#78a9ff;fill-opacity:1;fill-rule:nonzero;stroke:none" transform="matrix(1.3333333,0,0,-1.3333333,174.66667,299.388)" />
    <path id="path92" d="m 66.17758,95.67337 c 0,1.32292 -1.07243,2.39534 -2.39535,2.39534 -1.32293,0 -2.39534,-1.07242 -2.39534,-2.39534 0,-1.32292 1.07241,-2.39534 2.39534,-2.39534 1.32292,0 2.39535,1.07242 2.39535,2.39534 z" style="fill:#78a9ff;fill-opacity:1;fill-rule:nonzero;stroke:none" transform="matrix(1.3333333,0,0,-1.3333333,174.66667,299.388)" />
    <path id="path93" d="m 76.80797,106.30376 c 0,1.32292 -1.07242,2.39535 -2.39534,2.39535 -1.32293,0 -2.39534,-1.07243 -2.39534,-2.39535 0,-1.32293 1.07241,-2.39534 2.39534,-2.39534 1.32292,0 2.39534,1.07241 2.39534,2.39534 z" style="fill:#78a9ff;fill-opacity:1;fill-rule:nonzero;stroke:none" transform="matrix(1.3333333,0,0,-1.3333333,174.66667,299.388)" />
    <path id="path94" d="m 66.17758,74.41263 c 0,1.32292 -1.07243,2.39534 -2.39535,2.39534 -1.32293,0 -2.39534,-1.07242 -2.39534,-2.39534 0,-1.32293 1.07241,-2.39534 2.39534,-2.39534 1.32292,0 2.39535,1.07241 2.39535,2.39534 z" style="fill:#78a9ff;fill-opacity:1;fill-rule:nonzero;stroke:none" transform="matrix(1.3333333,0,0,-1.3333333,174.66667,299.388)" />
    <path id="path95" d="m 76.80797,85.043 c 0,1.32292 -1.07242,2.39535 -2.39534,2.39535 -1.32293,0 -2.39534,-1.07243 -2.39534,-2.39535 0,-1.32292 1.07241,-2.39534 2.39534,-2.39534 1.32292,0 2.39534,1.07242 2.39534,2.39534 z" style="fill:#78a9ff;fill-opacity:1;fill-rule:nonzero;stroke:none" transform="matrix(1.3333333,0,0,-1.3333333,174.66667,299.388)" />
    <path id="path96" d="m 66.17758,53.15186 c 0,1.32292 -1.07243,2.39534 -2.39535,2.39534 -1.32293,0 -2.39534,-1.07242 -2.39534,-2.39534 0,-1.32293 1.07241,-2.39534 2.39534,-2.39534 1.32292,0 2.39535,1.07241 2.39535,2.39534 z" style="fill:#78a9ff;fill-opacity:1;fill-rule:nonzero;stroke:none" transform="matrix(1.3333333,0,0,-1.3333333,174.66667,299.388)" />
    <path id="path97" d="m 76.80797,63.78223 c 0,1.32292 -1.07242,2.39535 -2.39534,2.39535 -1.32293,0 -2.39534,-1.07243 -2.39534,-2.39535 0,-1.32293 1.07241,-2.39534 2.39534,-2.39534 1.32292,0 2.39534,1.07241 2.39534,2.39534 z" style="fill:#78a9ff;fill-opacity:1;fill-rule:nonzero;stroke:none" transform="matrix(1.3333333,0,0,-1.3333333,174.66667,299.388)" />
    <path id="path98" d="m 66.17758,31.8911 c 0,1.32292 -1.07243,2.39534 -2.39535,2.39534 -1.32293,0 -2.39534,-1.07242 -2.39534,-2.39534 0,-1.32292 1.07241,-2.39534 2.39534,-2.39534 1.32292,0 2.39535,1.07242 2.39535,2.39534 z" style="fill:#78a9ff;fill-opacity:1;fill-rule:nonzero;stroke:none" transform="matrix(1.3333333,0,0,-1.3333333,174.66667,299.388)" />
    <path id="path99" d="m 76.80797,42.52148 c 0,1.32292 -1.07242,2.39536 -2.39534,2.39536 -1.32293,0 -2.39534,-1.07244 -2.39534,-2.39536 0,-1.32292 1.07241,-2.39534 2.39534,-2.39534 1.32292,0 2.39534,1.07242 2.39534,2.39534 z" style="fill:#78a9ff;fill-opacity:1;fill-rule:nonzero;stroke:none" transform="matrix(1.3333333,0,0,-1.3333333,174.66667,299.388)" />
    <path id="path100" d="m 66.17758,10.63036 c 0,1.32292 -1.07243,2.39534 -2.39535,2.39534 -1.32293,0 -2.39534,-1.07242 -2.39534,-2.39534 0,-1.32293 1.07241,-2.39534 2.39534,-2.39534 1.32292,0 2.39535,1.07241 2.39535,2.39534 z" style="fill:#78a9ff;fill-opacity:1;fill-rule:nonzero;stroke:none" transform="matrix(1.3333333,0,0,-1.3333333,174.66667,299.388)" />
    <path id="path101" d="m 76.80797,21.26073 c 0,1.32292 -1.07242,2.39535 -2.39534,2.39535 -1.32293,0 -2.39534,-1.07243 -2.39534,-2.39535 0,-1.32293 1.07241,-2.39534 2.39534,-2.39534 1.32292,0 2.39534,1.07241 2.39534,2.39534 z" style="fill:#78a9ff;fill-opacity:1;fill-rule:nonzero;stroke:none" transform="matrix(1.3333333,0,0,-1.3333333,174.66667,299.388)" />
    <path id="path102" d="m 87.43835,180.7164 c 0,1.32292 -1.07243,2.39534 -2.39535,2.39534 -1.32292,0 -2.39534,-1.07242 -2.39534,-2.39534 0,-1.32292 1.07242,-2.39534 2.39534,-2.39534 1.32292,0 2.39535,1.07242 2.39535,2.39534 z" style="fill:#78a9ff;fill-opacity:1;fill-rule:nonzero;stroke:none" transform="matrix(1.3333333,0,0,-1.3333333,174.66667,299.388)" />
    <path id="path103" d="m 98.06871,191.34677 c 0,1.32293 -1.07242,2.39536 -2.39534,2.39536 -1.32292,0 -2.39534,-1.07243 -2.39534,-2.39536 0,-1.32292 1.07242,-2.39534 2.39534,-2.39534 1.32292,0 2.39534,1.07242 2.39534,2.39534 z" style="fill:#78a9ff;fill-opacity:1;fill-rule:nonzero;stroke:none" transform="matrix(1.3333333,0,0,-1.3333333,174.66667,299.388)" />
    <path id="path104" d="m 87.43835,159.45564 c 0,1.32292 -1.07243,2.39534 -2.39535,2.39534 -1.32292,0 -2.39534,-1.07242 -2.39534,-2.39534 0,-1.32292 1.07242,-2.39534 2.39534,-2.39534 1.32292,0 2.39535,1.07242 2.39535,2.39534 z" style="fill:#78a9ff;fill-opacity:1;fill-rule:nonzero;stroke:none" transform="matrix(1.3333333,0,0,-1.3333333,174.66667,299.388)" />
    <path id="path105" d="m 98.06871,170.08603 c 0,1.32292 -1.07242,2.39535 -2.39534,2.39535 -1.32292,0 -2.39534,-1.07243 -2.39534,-2.39535 0,-1.32293 1.07242,-2.39534 2.39534,-2.39534 1.32292,0 2.39534,1.07241 2.39534,2.39534 z" style="fill:#78a9ff;fill-opacity:1;fill-rule:nonzero;stroke:none" transform="matrix(1.3333333,0,0,-1.3333333,174.66667,299.388)" />
    <path id="path106" d="m 87.43835,138.19487 c 0,1.32292 -1.07243,2.39534 -2.39535,2.39534 -1.32292,0 -2.39534,-1.07242 -2.39534,-2.39534 0,-1.32292 1.07242,-2.39534 2.39534,-2.39534 1.32292,0 2.39535,1.07242 2.39535,2.39534 z" style="fill:#78a9ff;fill-opacity:1;fill-rule:nonzero;stroke:none" transform="matrix(1.3333333,0,0,-1.3333333,174.66667,299.388)" />
    <path id="path107" d="m 98.06871,148.82526 c 0,1.32292 -1.07242,2.39535 -2.39534,2.39535 -1.32292,0 -2.39534,-1.07243 -2.39534,-2.39535 0,-1.32293 1.07242,-2.39534 2.39534,-2.39534 1.32292,0 2.39534,1.07241 2.39534,2.39534 z" style="fill:#78a9ff;fill-opacity:1;fill-rule:nonzero;stroke:none" transform="matrix(1.3333333,0,0,-1.3333333,174.66667,299.388)" />
    <path id="path108" d="m 87.43835,116.93413 c 0,1.32292 -1.07243,2.39534 -2.39535,2.39534 -1.32292,0 -2.39534,-1.07242 -2.39534,-2.39534 0,-1.32293 1.07242,-2.39534 2.39534,-2.39534 1.32292,0 2.39535,1.07241 2.39535,2.39534 z" style="fill:#78a9ff;fill-opacity:1;fill-rule:nonzero;stroke:none" transform="matrix(1.3333333,0,0,-1.3333333,174.66667,299.388)" />
    <path id="path109" d="m 98.06871,127.5645 c 0,1.32292 -1.07242,2.39535 -2.39534,2.39535 -1.32292,0 -2.39534,-1.07243 -2.39534,-2.39535 0,-1.32292 1.07242,-2.39534 2.39534,-2.39534 1.32292,0 2.39534,1.07242 2.39534,2.39534 z" style="fill:#78a9ff;fill-opacity:1;fill-rule:nonzero;stroke:none" transform="matrix(1.3333333,0,0,-1.3333333,174.66667,299.388)" />
    <path id="path110" d="m 87.43835,95.67337 c 0,1.32292 -1.07243,2.39534 -2.39535,2.39534 -1.32292,0 -2.39534,-1.07242 -2.39534,-2.39534 0,-1.32292 1.07242,-2.39534 2.39534,-2.39534 1.32292,0 2.39535,1.07242 2.39535,2.39534 z" style="fill:#78a9ff;fill-opacity:1;fill-rule:nonzero;stroke:none" transform="matrix(1.3333333,0,0,-1.3333333,174.66667,299.388)" />
    <path id="path111" d="m 98.06871,106.30376 c 0,1.32292 -1.07242,2.39535 -2.39534,2.39535 -1.32292,0 -2.39534,-1.07243 -2.39534,-2.39535 0,-1.32293 1.07242,-2.39534 2.39534,-2.39534 1.32292,0 2.39534,1.07241 2.39534,2.39534 z" style="fill:#78a9ff;fill-opacity:1;fill-rule:nonzero;stroke:none" transform="matrix(1.3333333,0,0,-1.3333333,174.66667,299.388)" />
    <path id="path112" d="m 87.43835,74.41263 c 0,1.32292 -1.07243,2.39534 -2.39535,2.39534 -1.32292,0 -2.39534,-1.07242 -2.39534,-2.39534 0,-1.32293 1.07242,-2.39534 2.39534,-2.39534 1.32292,0 2.39535,1.07241 2.39535,2.39534 z" style="fill:#78a9ff;fill-opacity:1;fill-rule:nonzero;stroke:none" transform="matrix(1.3333333,0,0,-1.3333333,174.66667,299.388)" />
    <path id="path113" d="m 98.06871,85.043 c 0,1.32292 -1.07242,2.39535 -2.39534,2.39535 -1.32292,0 -2.39534,-1.07243 -2.39534,-2.39535 0,-1.32292 1.07242,-2.39534 2.39534,-2.39534 1.32292,0 2.39534,1.07242 2.39534,2.39534 z" style="fill:#78a9ff;fill-opacity:1;fill-rule:nonzero;stroke:none" transform="matrix(1.3333333,0,0,-1.3333333,174.66667,299.388)" />
    <path id="path114" d="m 87.43835,53.15186 c 0,1.32292 -1.07243,2.39534 -2.39535,2.39534 -1.32292,0 -2.39534,-1.07242 -2.39534,-2.39534 0,-1.32293 1.07242,-2.39534 2.39534,-2.39534 1.32292,0 2.39535,1.07241 2.39535,2.39534 z" style="fill:#78a9ff;fill-opacity:1;fill-rule:nonzero;stroke:none" transform="matrix(1.3333333,0,0,-1.3333333,174.66667,299.388)" />
    <path id="path115" d="m 98.06871,63.78223 c 0,1.32292 -1.07242,2.39535 -2.39534,2.39535 -1.32292,0 -2.39534,-1.07243 -2.39534,-2.39535 0,-1.32293 1.07242,-2.39534 2.39534,-2.39534 1.32292,0 2.39534,1.07241 2.39534,2.39534 z" style="fill:#78a9ff;fill-opacity:1;fill-rule:nonzero;stroke:none" transform="matrix(1.3333333,0,0,-1.3333333,174.66667,299.388)" />
    <path id="path116" d="m 87.43835,31.8911 c 0,1.32292 -1.07243,2.39534 -2.39535,2.39534 -1.32292,0 -2.39534,-1.07242 -2.39534,-2.39534 0,-1.32292 1.07242,-2.39534 2.39534,-2.39534 1.32292,0 2.39535,1.07242 2.39535,2.39534 z" style="fill:#78a9ff;fill-opacity:1;fill-rule:nonzero;stroke:none" transform="matrix(1.3333333,0,0,-1.3333333,174.66667,299.388)" />
    <path id="path117" d="m 98.06871,42.52148 c 0,1.32292 -1.07242,2.39536 -2.39534,2.39536 -1.32292,0 -2.39534,-1.07244 -2.39534,-2.39536 0,-1.32292 1.07242,-2.39534 2.39534,-2.39534 1.32292,0 2.39534,1.07242 2.39534,2.39534 z" style="fill:#78a9ff;fill-opacity:1;fill-rule:nonzero;stroke:none" transform="matrix(1.3333333,0,0,-1.3333333,174.66667,299.388)" />
    <path id="path118" d="m 87.43835,10.63036 c 0,1.32292 -1.07243,2.39534 -2.39535,2.39534 -1.32292,0 -2.39534,-1.07242 -2.39534,-2.39534 0,-1.32293 1.07242,-2.39534 2.39534,-2.39534 1.32292,0 2.39535,1.07241 2.39535,2.39534 z" style="fill:#78a9ff;fill-opacity:1;fill-rule:nonzero;stroke:none" transform="matrix(1.3333333,0,0,-1.3333333,174.66667,299.388)" />
    <path id="path119" d="m 98.06871,21.26073 c 0,1.32292 -1.07242,2.39535 -2.39534,2.39535 -1.32292,0 -2.39534,-1.07243 -2.39534,-2.39535 0,-1.32293 1.07242,-2.39534 2.39534,-2.39534 1.32292,0 2.39534,1.07241 2.39534,2.39534 z" style="fill:#78a9ff;fill-opacity:1;fill-rule:nonzero;stroke:none" transform="matrix(1.3333333,0,0,-1.3333333,174.66667,299.388)" />
    <path id="path120" d="m 108.69911,180.7164 c 0,1.32292 -1.07243,2.39534 -2.39535,2.39534 -1.32293,0 -2.39534,-1.07242 -2.39534,-2.39534 0,-1.32292 1.07241,-2.39534 2.39534,-2.39534 1.32292,0 2.39535,1.07242 2.39535,2.39534 z" style="fill:#78a9ff;fill-opacity:1;fill-rule:nonzero;stroke:none" transform="matrix(1.3333333,0,0,-1.3333333,174.66667,299.388)" />
    <path id="path121" d="m 119.32947,191.34677 c 0,1.32293 -1.07242,2.39536 -2.39534,2.39536 -1.32293,0 -2.39534,-1.07243 -2.39534,-2.39536 0,-1.32292 1.07241,-2.39534 2.39534,-2.39534 1.32292,0 2.39534,1.07242 2.39534,2.39534 z" style="fill:#78a9ff;fill-opacity:1;fill-rule:nonzero;stroke:none" transform="matrix(1.3333333,0,0,-1.3333333,174.66667,299.388)" />
    <path id="path122" d="m 108.69911,159.45564 c 0,1.32292 -1.07243,2.39534 -2.39535,2.39534 -1.32293,0 -2.39534,-1.07242 -2.39534,-2.39534 0,-1.32292 1.07241,-2.39534 2.39534,-2.39534 1.32292,0 2.39535,1.07242 2.39535,2.39534 z" style="fill:#78a9ff;fill-opacity:1;fill-rule:nonzero;stroke:none" transform="matrix(1.3333333,0,0,-1.3333333,174.66667,299.388)" />
    <path id="path123" d="m 119.32947,170.08603 c 0,1.32292 -1.07242,2.39535 -2.39534,2.39535 -1.32293,0 -2.39534,-1.07243 -2.39534,-2.39535 0,-1.32293 1.07241,-2.39534 2.39534,-2.39534 1.32292,0 2.39534,1.07241 2.39534,2.39534 z" style="fill:#78a9ff;fill-opacity:1;fill-rule:nonzero;stroke:none" transform="matrix(1.3333333,0,0,-1.3333333,174.66667,299.388)" />
    <path id="path124" d="m 108.69911,138.19487 c 0,1.32292 -1.07243,2.39534 -2.39535,2.39534 -1.32293,0 -2.39534,-1.07242 -2.39534,-2.39534 0,-1.32292 1.07241,-2.39534 2.39534,-2.39534 1.32292,0 2.39535,1.07242 2.39535,2.39534 z" style="fill:#78a9ff;fill-opacity:1;fill-rule:nonzero;stroke:none" transform="matrix(1.3333333,0,0,-1.3333333,174.66667,299.388)" />
    <path id="path125" d="m 119.32947,148.82526 c 0,1.32292 -1.07242,2.39535 -2.39534,2.39535 -1.32293,0 -2.39534,-1.07243 -2.39534,-2.39535 0,-1.32293 1.07241,-2.39534 2.39534,-2.39534 1.32292,0 2.39534,1.07241 2.39534,2.39534 z" style="fill:#78a9ff;fill-opacity:1;fill-rule:nonzero;stroke:none" transform="matrix(1.3333333,0,0,-1.3333333,174.66667,299.388)" />
    <path id="path126" d="m 108.69911,116.93413 c 0,1.32292 -1.07243,2.39534 -2.39535,2.39534 -1.32293,0 -2.39534,-1.07242 -2.39534,-2.39534 0,-1.32293 1.07241,-2.39534 2.39534,-2.39534 1.32292,0 2.39535,1.07241 2.39535,2.39534 z" style="fill:#78a9ff;fill-opacity:1;fill-rule:nonzero;stroke:none" transform="matrix(1.3333333,0,0,-1.3333333,174.66667,299.388)" />
    <path id="path127" d="m 119.32947,127.5645 c 0,1.32292 -1.07242,2.39535 -2.39534,2.39535 -1.32293,0 -2.39534,-1.07243 -2.39534,-2.39535 0,-1.32292 1.07241,-2.39534 2.39534,-2.39534 1.32292,0 2.39534,1.07242 2.39534,2.39534 z" style="fill:#78a9ff;fill-opacity:1;fill-rule:nonzero;stroke:none" transform="matrix(1.3333333,0,0,-1.3333333,174.66667,299.388)" />
    <path id="path128" d="m 108.69911,95.67337 c 0,1.32292 -1.07243,2.39534 -2.39535,2.39534 -1.32293,0 -2.39534,-1.07242 -2.39534,-2.39534 0,-1.32292 1.07241,-2.39534 2.39534,-2.39534 1.32292,0 2.39535,1.07242 2.39535,2.39534 z" style="fill:#78a9ff;fill-opacity:1;fill-rule:nonzero;stroke:none" transform="matrix(1.3333333,0,0,-1.3333333,174.66667,299.388)" />
    <path id="path129" d="m 119.32947,106.30376 c 0,1.32292 -1.07242,2.39535 -2.39534,2.39535 -1.32293,0 -2.39534,-1.07243 -2.39534,-2.39535 0,-1.32293 1.07241,-2.39534 2.39534,-2.39534 1.32292,0 2.39534,1.07241 2.39534,2.39534 z" style="fill:#78a9ff;fill-opacity:1;fill-rule:nonzero;stroke:none" transform="matrix(1.3333333,0,0,-1.3333333,174.66667,299.388)" />
    <path id="path130" d="m 108.69911,74.41263 c 0,1.32292 -1.07243,2.39534 -2.39535,2.39534 -1.32293,0 -2.39534,-1.07242 -2.39534,-2.39534 0,-1.32293 1.07241,-2.39534 2.39534,-2.39534 1.32292,0 2.39535,1.07241 2.39535,2.39534 z" style="fill:#78a9ff;fill-opacity:1;fill-rule:nonzero;stroke:none" transform="matrix(1.3333333,0,0,-1.3333333,174.66667,299.388)" />
    <path id="path131" d="m 119.32947,85.043 c 0,1.32292 -1.07242,2.39535 -2.39534,2.39535 -1.32293,0 -2.39534,-1.07243 -2.39534,-2.39535 0,-1.32292 1.07241,-2.39534 2.39534,-2.39534 1.32292,0 2.39534,1.07242 2.39534,2.39534 z" style="fill:#78a9ff;fill-opacity:1;fill-rule:nonzero;stroke:none" transform="matrix(1.3333333,0,0,-1.3333333,174.66667,299.388)" />
    <path id="path132" d="m 108.69911,53.15186 c 0,1.32292 -1.07243,2.39534 -2.39535,2.39534 -1.32293,0 -2.39534,-1.07242 -2.39534,-2.39534 0,-1.32293 1.07241,-2.39534 2.39534,-2.39534 1.32292,0 2.39535,1.07241 2.39535,2.39534 z" style="fill:#78a9ff;fill-opacity:1;fill-rule:nonzero;stroke:none" transform="matrix(1.3333333,0,0,-1.3333333,174.66667,299.388)" />
    <path id="path133" d="m 119.32947,63.78223 c 0,1.32292 -1.07242,2.39535 -2.39534,2.39535 -1.32293,0 -2.39534,-1.07243 -2.39534,-2.39535 0,-1.32293 1.07241,-2.39534 2.39534,-2.39534 1.32292,0 2.39534,1.07241 2.39534,2.39534 z" style="fill:#78a9ff;fill-opacity:1;fill-rule:nonzero;stroke:none" transform="matrix(1.3333333,0,0,-1.3333333,174.66667,299.388)" />
    <path id="path134" d="m 108.69911,31.8911 c 0,1.32292 -1.07243,2.39534 -2.39535,2.39534 -1.32293,0 -2.39534,-1.07242 -2.39534,-2.39534 0,-1.32292 1.07241,-2.39534 2.39534,-2.39534 1.32292,0 2.39535,1.07242 2.39535,2.39534 z" style="fill:#78a9ff;fill-opacity:1;fill-rule:nonzero;stroke:none" transform="matrix(1.3333333,0,0,-1.3333333,174.66667,299.388)" />
    <path id="path135" d="m 119.32947,42.52148 c 0,1.32292 -1.07242,2.39536 -2.39534,2.39536 -1.32293,0 -2.39534,-1.07244 -2.39534,-2.39536 0,-1.32292 1.07241,-2.39534 2.39534,-2.39534 1.32292,0 2.39534,1.07242 2.39534,2.39534 z" style="fill:#78a9ff;fill-opacity:1;fill-rule:nonzero;stroke:none" transform="matrix(1.3333333,0,0,-1.3333333,174.66667,299.388)" />
    <path id="path136" d="m 108.69911,10.63036 c 0,1.32292 -1.07243,2.39534 -2.39535,2.39534 -1.32293,0 -2.39534,-1.07242 -2.39534,-2.39534 0,-1.32293 1.07241,-2.39534 2.39534,-2.39534 1.32292,0 2.39535,1.07241 2.39535,2.39534 z" style="fill:#78a9ff;fill-opacity:1;fill-rule:nonzero;stroke:none" transform="matrix(1.3333333,0,0,-1.3333333,174.66667,299.388)" />
    <path id="path137" d="m 119.32947,21.26073 c 0,1.32292 -1.07242,2.39535 -2.39534,2.39535 -1.32293,0 -2.39534,-1.07243 -2.39534,-2.39535 0,-1.32293 1.07241,-2.39534 2.39534,-2.39534 1.32292,0 2.39534,1.07241 2.39534,2.39534 z" style="fill:#78a9ff;fill-opacity:1;fill-rule:nonzero;stroke:none" transform="matrix(1.3333333,0,0,-1.3333333,174.66667,299.388)" />
    <path id="path138" d="m 129.95985,180.7164 c 0,1.32292 -1.07243,2.39534 -2.39535,2.39534 -1.32292,0 -2.39534,-1.07242 -2.39534,-2.39534 0,-1.32292 1.07242,-2.39534 2.39534,-2.39534 1.32292,0 2.39535,1.07242 2.39535,2.39534 z" style="fill:#78a9ff;fill-opacity:1;fill-rule:nonzero;stroke:none" transform="matrix(1.3333333,0,0,-1.3333333,174.66667,299.388)" />
    <path id="path139" d="m 140.59021,191.34677 c 0,1.32293 -1.07242,2.39536 -2.39534,2.39536 -1.32292,0 -2.39534,-1.07243 -2.39534,-2.39536 0,-1.32292 1.07242,-2.39534 2.39534,-2.39534 1.32292,0 2.39534,1.07242 2.39534,2.39534 z" style="fill:#78a9ff;fill-opacity:1;fill-rule:nonzero;stroke:none" transform="matrix(1.3333333,0,0,-1.3333333,174.66667,299.388)" />
    <path id="path140" d="m 129.95985,159.45564 c 0,1.32292 -1.07243,2.39534 -2.39535,2.39534 -1.32292,0 -2.39534,-1.07242 -2.39534,-2.39534 0,-1.32292 1.07242,-2.39534 2.39534,-2.39534 1.32292,0 2.39535,1.07242 2.39535,2.39534 z" style="fill:#78a9ff;fill-opacity:1;fill-rule:nonzero;stroke:none" transform="matrix(1.3333333,0,0,-1.3333333,174.66667,299.388)" />
    <path id="path141" d="m 140.59021,170.08603 c 0,1.32292 -1.07242,2.39535 -2.39534,2.39535 -1.32292,0 -2.39534,-1.07243 -2.39534,-2.39535 0,-1.32293 1.07242,-2.39534 2.39534,-2.39534 1.32292,0 2.39534,1.07241 2.39534,2.39534 z" style="fill:#78a9ff;fill-opacity:1;fill-rule:nonzero;stroke:none" transform="matrix(1.3333333,0,0,-1.3333333,174.66667,299.388)" />
    <path id="path142" d="m 129.95985,138.19487 c 0,1.32292 -1.07243,2.39534 -2.39535,2.39534 -1.32292,0 -2.39534,-1.07242 -2.39534,-2.39534 0,-1.32292 1.07242,-2.39534 2.39534,-2.39534 1.32292,0 2.39535,1.07242 2.39535,2.39534 z" style="fill:#78a9ff;fill-opacity:1;fill-rule:nonzero;stroke:none" transform="matrix(1.3333333,0,0,-1.3333333,174.66667,299.388)" />
    <path id="path143" d="m 140.59021,148.82526 c 0,1.32292 -1.07242,2.39535 -2.39534,2.39535 -1.32292,0 -2.39534,-1.07243 -2.39534,-2.39535 0,-1.32293 1.07242,-2.39534 2.39534,-2.39534 1.32292,0 2.39534,1.07241 2.39534,2.39534 z" style="fill:#78a9ff;fill-opacity:1;fill-rule:nonzero;stroke:none" transform="matrix(1.3333333,0,0,-1.3333333,174.66667,299.388)" />
    <path id="path144" d="m 129.95985,116.93413 c 0,1.32292 -1.07243,2.39534 -2.39535,2.39534 -1.32292,0 -2.39534,-1.07242 -2.39534,-2.39534 0,-1.32293 1.07242,-2.39534 2.39534,-2.39534 1.32292,0 2.39535,1.07241 2.39535,2.39534 z" style="fill:#78a9ff;fill-opacity:1;fill-rule:nonzero;stroke:none" transform="matrix(1.3333333,0,0,-1.3333333,174.66667,299.388)" />
    <path id="path145" d="m 140.59021,127.5645 c 0,1.32292 -1.07242,2.39535 -2.39534,2.39535 -1.32292,0 -2.39534,-1.07243 -2.39534,-2.39535 0,-1.32292 1.07242,-2.39534 2.39534,-2.39534 1.32292,0 2.39534,1.07242 2.39534,2.39534 z" style="fill:#78a9ff;fill-opacity:1;fill-rule:nonzero;stroke:none" transform="matrix(1.3333333,0,0,-1.3333333,174.66667,299.388)" />
    <path id="path146" d="m 129.95985,95.67337 c 0,1.32292 -1.07243,2.39534 -2.39535,2.39534 -1.32292,0 -2.39534,-1.07242 -2.39534,-2.39534 0,-1.32292 1.07242,-2.39534 2.39534,-2.39534 1.32292,0 2.39535,1.07242 2.39535,2.39534 z" style="fill:#78a9ff;fill-opacity:1;fill-rule:nonzero;stroke:none" transform="matrix(1.3333333,0,0,-1.3333333,174.66667,299.388)" />
    <path id="path147" d="m 140.59021,106.30376 c 0,1.32292 -1.07242,2.39535 -2.39534,2.39535 -1.32292,0 -2.39534,-1.07243 -2.39534,-2.39535 0,-1.32293 1.07242,-2.39534 2.39534,-2.39534 1.32292,0 2.39534,1.07241 2.39534,2.39534 z" style="fill:#78a9ff;fill-opacity:1;fill-rule:nonzero;stroke:none" transform="matrix(1.3333333,0,0,-1.3333333,174.66667,299.388)" />
    <path id="path148" d="m 129.95985,74.41263 c 0,1.32292 -1.07243,2.39534 -2.39535,2.39534 -1.32292,0 -2.39534,-1.07242 -2.39534,-2.39534 0,-1.32293 1.07242,-2.39534 2.39534,-2.39534 1.32292,0 2.39535,1.07241 2.39535,2.39534 z" style="fill:#78a9ff;fill-opacity:1;fill-rule:nonzero;stroke:none" transform="matrix(1.3333333,0,0,-1.3333333,174.66667,299.388)" />
    <path id="path149" d="m 140.59021,85.043 c 0,1.32292 -1.07242,2.39535 -2.39534,2.39535 -1.32292,0 -2.39534,-1.07243 -2.39534,-2.39535 0,-1.32292 1.07242,-2.39534 2.39534,-2.39534 1.32292,0 2.39534,1.07242 2.39534,2.39534 z" style="fill:#78a9ff;fill-opacity:1;fill-rule:nonzero;stroke:none" transform="matrix(1.3333333,0,0,-1.3333333,174.66667,299.388)" />
    <path id="path150" d="m 129.95985,53.15186 c 0,1.32292 -1.07243,2.39534 -2.39535,2.39534 -1.32292,0 -2.39534,-1.07242 -2.39534,-2.39534 0,-1.32293 1.07242,-2.39534 2.39534,-2.39534 1.32292,0 2.39535,1.07241 2.39535,2.39534 z" style="fill:#78a9ff;fill-opacity:1;fill-rule:nonzero;stroke:none" transform="matrix(1.3333333,0,0,-1.3333333,174.66667,299.388)" />
    <path id="path151" d="m 140.59021,63.78223 c 0,1.32292 -1.07242,2.39535 -2.39534,2.39535 -1.32292,0 -2.39534,-1.07243 -2.39534,-2.39535 0,-1.32293 1.07242,-2.39534 2.39534,-2.39534 1.32292,0 2.39534,1.07241 2.39534,2.39534 z" style="fill:#78a9ff;fill-opacity:1;fill-rule:nonzero;stroke:none" transform="matrix(1.3333333,0,0,-1.3333333,174.66667,299.388)" />
    <path id="path152" d="m 129.95985,31.8911 c 0,1.32292 -1.07243,2.39534 -2.39535,2.39534 -1.32292,0 -2.39534,-1.07242 -2.39534,-2.39534 0,-1.32292 1.07242,-2.39534 2.39534,-2.39534 1.32292,0 2.39535,1.07242 2.39535,2.39534 z" style="fill:#78a9ff;fill-opacity:1;fill-rule:nonzero;stroke:none" transform="matrix(1.3333333,0,0,-1.3333333,174.66667,299.388)" />
    <path id="path153" d="m 140.59021,42.52148 c 0,1.32292 -1.07242,2.39536 -2.39534,2.39536 -1.32292,0 -2.39534,-1.07244 -2.39534,-2.39536 0,-1.32292 1.07242,-2.39534 2.39534,-2.39534 1.32292,0 2.39534,1.07242 2.39534,2.39534 z" style="fill:#78a9ff;fill-opacity:1;fill-rule:nonzero;stroke:none" transform="matrix(1.3333333,0,0,-1.3333333,174.66667,299.388)" />
    <path id="path154" d="m 129.95985,10.63036 c 0,1.32292 -1.07243,2.39534 -2.39535,2.39534 -1.32292,0 -2.39534,-1.07242 -2.39534,-2.39534 0,-1.32293 1.07242,-2.39534 2.39534,-2.39534 1.32292,0 2.39535,1.07241 2.39535,2.39534 z" style="fill:#78a9ff;fill-opacity:1;fill-rule:nonzero;stroke:none" transform="matrix(1.3333333,0,0,-1.3333333,174.66667,299.388)" />
    <path id="path155" d="m 140.59021,21.26073 c 0,1.32292 -1.07242,2.39535 -2.39534,2.39535 -1.32292,0 -2.39534,-1.07243 -2.39534,-2.39535 0,-1.32293 1.07242,-2.39534 2.39534,-2.39534 1.32292,0 2.39534,1.07241 2.39534,2.39534 z" style="fill:#78a9ff;fill-opacity:1;fill-rule:nonzero;stroke:none" transform="matrix(1.3333333,0,0,-1.3333333,174.66667,299.388)" />
    <path id="path156" d="m 151.22061,180.7164 c 0,1.32292 -1.07243,2.39534 -2.39535,2.39534 -1.32293,0 -2.39534,-1.07242 -2.39534,-2.39534 0,-1.32292 1.07241,-2.39534 2.39534,-2.39534 1.32292,0 2.39535,1.07242 2.39535,2.39534 z" style="fill:#78a9ff;fill-opacity:1;fill-rule:nonzero;stroke:none" transform="matrix(1.3333333,0,0,-1.3333333,174.66667,299.388)" />
    <path id="path157" d="m 161.85098,191.34677 c 0,1.32293 -1.07242,2.39536 -2.39534,2.39536 -1.32292,0 -2.39534,-1.07243 -2.39534,-2.39536 0,-1.32292 1.07242,-2.39534 2.39534,-2.39534 1.32292,0 2.39534,1.07242 2.39534,2.39534 z" style="fill:#78a9ff;fill-opacity:1;fill-rule:nonzero;stroke:none" transform="matrix(1.3333333,0,0,-1.3333333,174.66667,299.388)" />
    <path id="path158" d="m 151.22061,159.45564 c 0,1.32292 -1.07243,2.39534 -2.39535,2.39534 -1.32293,0 -2.39534,-1.07242 -2.39534,-2.39534 0,-1.32292 1.07241,-2.39534 2.39534,-2.39534 1.32292,0 2.39535,1.07242 2.39535,2.39534 z" style="fill:#78a9ff;fill-opacity:1;fill-rule:nonzero;stroke:none" transform="matrix(1.3333333,0,0,-1.3333333,174.66667,299.388)" />
    <path id="path159" d="m 161.85098,170.08603 c 0,1.32292 -1.07242,2.39535 -2.39534,2.39535 -1.32292,0 -2.39534,-1.07243 -2.39534,-2.39535 0,-1.32293 1.07242,-2.39534 2.39534,-2.39534 1.32292,0 2.39534,1.07241 2.39534,2.39534 z" style="fill:#78a9ff;fill-opacity:1;fill-rule:nonzero;stroke:none" transform="matrix(1.3333333,0,0,-1.3333333,174.66667,299.388)" />
    <path id="path160" d="m 151.22061,138.19487 c 0,1.32292 -1.07243,2.39534 -2.39535,2.39534 -1.32293,0 -2.39534,-1.07242 -2.39534,-2.39534 0,-1.32292 1.07241,-2.39534 2.39534,-2.39534 1.32292,0 2.39535,1.07242 2.39535,2.39534 z" style="fill:#78a9ff;fill-opacity:1;fill-rule:nonzero;stroke:none" transform="matrix(1.3333333,0,0,-1.3333333,174.66667,299.388)" />
    <path id="path161" d="m 161.85098,148.82526 c 0,1.32292 -1.07242,2.39535 -2.39534,2.39535 -1.32292,0 -2.39534,-1.07243 -2.39534,-2.39535 0,-1.32293 1.07242,-2.39534 2.39534,-2.39534 1.32292,0 2.39534,1.07241 2.39534,2.39534 z" style="fill:#78a9ff;fill-opacity:1;fill-rule:nonzero;stroke:none" transform="matrix(1.3333333,0,0,-1.3333333,174.66667,299.388)" />
    <path id="path162" d="m 151.22061,116.93413 c 0,1.32292 -1.07243,2.39534 -2.39535,2.39534 -1.32293,0 -2.39534,-1.07242 -2.39534,-2.39534 0,-1.32293 1.07241,-2.39534 2.39534,-2.39534 1.32292,0 2.39535,1.07241 2.39535,2.39534 z" style="fill:#78a9ff;fill-opacity:1;fill-rule:nonzero;stroke:none" transform="matrix(1.3333333,0,0,-1.3333333,174.66667,299.388)" />
    <path id="path163" d="m 161.85098,127.5645 c 0,1.32292 -1.07242,2.39535 -2.39534,2.39535 -1.32292,0 -2.39534,-1.07243 -2.39534,-2.39535 0,-1.32292 1.07242,-2.39534 2.39534,-2.39534 1.32292,0 2.39534,1.07242 2.39534,2.39534 z" style="fill:#78a9ff;fill-opacity:1;fill-rule:nonzero;stroke:none" transform="matrix(1.3333333,0,0,-1.3333333,174.66667,299.388)" />
    <path id="path164" d="m 151.22061,95.67337 c 0,1.32292 -1.07243,2.39534 -2.39535,2.39534 -1.32293,0 -2.39534,-1.07242 -2.39534,-2.39534 0,-1.32292 1.07241,-2.39534 2.39534,-2.39534 1.32292,0 2.39535,1.07242 2.39535,2.39534 z" style="fill:#78a9ff;fill-opacity:1;fill-rule:nonzero;stroke:none" transform="matrix(1.3333333,0,0,-1.3333333,174.66667,299.388)" />
    <path id="path165" d="m 161.85098,106.30376 c 0,1.32292 -1.07242,2.39535 -2.39534,2.39535 -1.32292,0 -2.39534,-1.07243 -2.39534,-2.39535 0,-1.32293 1.07242,-2.39534 2.39534,-2.39534 1.32292,0 2.39534,1.07241 2.39534,2.39534 z" style="fill:#78a9ff;fill-opacity:1;fill-rule:nonzero;stroke:none" transform="matrix(1.3333333,0,0,-1.3333333,174.66667,299.388)" />
    <path id="path166" d="m 151.22061,74.41263 c 0,1.32292 -1.07243,2.39534 -2.39535,2.39534 -1.32293,0 -2.39534,-1.07242 -2.39534,-2.39534 0,-1.32293 1.07241,-2.39534 2.39534,-2.39534 1.32292,0 2.39535,1.07241 2.39535,2.39534 z" style="fill:#78a9ff;fill-opacity:1;fill-rule:nonzero;stroke:none" transform="matrix(1.3333333,0,0,-1.3333333,174.66667,299.388)" />
    <path id="path167" d="m 161.85098,85.043 c 0,1.32292 -1.07242,2.39535 -2.39534,2.39535 -1.32292,0 -2.39534,-1.07243 -2.39534,-2.39535 0,-1.32292 1.07242,-2.39534 2.39534,-2.39534 1.32292,0 2.39534,1.07242 2.39534,2.39534 z" style="fill:#78a9ff;fill-opacity:1;fill-rule:nonzero;stroke:none" transform="matrix(1.3333333,0,0,-1.3333333,174.66667,299.388)" />
    <path id="path168" d="m 151.22061,53.15186 c 0,1.32292 -1.07243,2.39534 -2.39535,2.39534 -1.32293,0 -2.39534,-1.07242 -2.39534,-2.39534 0,-1.32293 1.07241,-2.39534 2.39534,-2.39534 1.32292,0 2.39535,1.07241 2.39535,2.39534 z" style="fill:#78a9ff;fill-opacity:1;fill-rule:nonzero;stroke:none" transform="matrix(1.3333333,0,0,-1.3333333,174.66667,299.388)" />
    <path id="path169" d="m 161.85098,63.78223 c 0,1.32292 -1.07242,2.39535 -2.39534,2.39535 -1.32292,0 -2.39534,-1.07243 -2.39534,-2.39535 0,-1.32293 1.07242,-2.39534 2.39534,-2.39534 1.32292,0 2.39534,1.07241 2.39534,2.39534 z" style="fill:#78a9ff;fill-opacity:1;fill-rule:nonzero;stroke:none" transform="matrix(1.3333333,0,0,-1.3333333,174.66667,299.388)" />
    <path id="path170" d="m 151.22061,31.8911 c 0,1.32292 -1.07243,2.39534 -2.39535,2.39534 -1.32293,0 -2.39534,-1.07242 -2.39534,-2.39534 0,-1.32292 1.07241,-2.39534 2.39534,-2.39534 1.32292,0 2.39535,1.07242 2.39535,2.39534 z" style="fill:#78a9ff;fill-opacity:1;fill-rule:nonzero;stroke:none" transform="matrix(1.3333333,0,0,-1.3333333,174.66667,299.388)" />
    <path id="path171" d="m 161.85098,42.52148 c 0,1.32292 -1.07242,2.39536 -2.39534,2.39536 -1.32292,0 -2.39534,-1.07244 -2.39534,-2.39536 0,-1.32292 1.07242,-2.39534 2.39534,-2.39534 1.32292,0 2.39534,1.07242 2.39534,2.39534 z" style="fill:#78a9ff;fill-opacity:1;fill-rule:nonzero;stroke:none" transform="matrix(1.3333333,0,0,-1.3333333,174.66667,299.388)" />
    <path id="path172" d="m 151.22061,10.63036 c 0,1.32292 -1.07243,2.39534 -2.39535,2.39534 -1.32293,0 -2.39534,-1.07242 -2.39534,-2.39534 0,-1.32293 1.07241,-2.39534 2.39534,-2.39534 1.32292,0 2.39535,1.07241 2.39535,2.39534 z" style="fill:#78a9ff;fill-opacity:1;fill-rule:nonzero;stroke:none" transform="matrix(1.3333333,0,0,-1.3333333,174.66667,299.388)" />
    <path id="path173" d="m 161.85098,21.26073 c 0,1.32292 -1.07242,2.39535 -2.39534,2.39535 -1.32292,0 -2.39534,-1.07243 -2.39534,-2.39535 0,-1.32293 1.07242,-2.39534 2.39534,-2.39534 1.32292,0 2.39534,1.07241 2.39534,2.39534 z" style="fill:#78a9ff;fill-opacity:1;fill-rule:nonzero;stroke:none" transform="matrix(1.3333333,0,0,-1.3333333,174.66667,299.388)" />
    <path id="path174" d="m 172.48138,180.7164 c 0,1.32292 -1.07243,2.39534 -2.39535,2.39534 -1.32293,0 -2.39534,-1.07242 -2.39534,-2.39534 0,-1.32292 1.07241,-2.39534 2.39534,-2.39534 1.32292,0 2.39535,1.07242 2.39535,2.39534 z" style="fill:#78a9ff;fill-opacity:1;fill-rule:nonzero;stroke:none" transform="matrix(1.3333333,0,0,-1.3333333,174.66667,299.388)" />
    <path id="path175" d="m 183.11174,191.34677 c 0,1.32293 -1.07242,2.39536 -2.39534,2.39536 -1.32292,0 -2.39534,-1.07243 -2.39534,-2.39536 0,-1.32292 1.07242,-2.39534 2.39534,-2.39534 1.32292,0 2.39534,1.07242 2.39534,2.39534 z" style="fill:#78a9ff;fill-opacity:1;fill-rule:nonzero;stroke:none" transform="matrix(1.3333333,0,0,-1.3333333,174.66667,299.388)" />
    <path id="path176" d="m 172.48138,159.45564 c 0,1.32292 -1.07243,2.39534 -2.39535,2.39534 -1.32293,0 -2.39534,-1.07242 -2.39534,-2.39534 0,-1.32292 1.07241,-2.39534 2.39534,-2.39534 1.32292,0 2.39535,1.07242 2.39535,2.39534 z" style="fill:#78a9ff;fill-opacity:1;fill-rule:nonzero;stroke:none" transform="matrix(1.3333333,0,0,-1.3333333,174.66667,299.388)" />
    <path id="path177" d="m 183.11174,170.08603 c 0,1.32292 -1.07242,2.39535 -2.39534,2.39535 -1.32292,0 -2.39534,-1.07243 -2.39534,-2.39535 0,-1.32293 1.07242,-2.39534 2.39534,-2.39534 1.32292,0 2.39534,1.07241 2.39534,2.39534 z" style="fill:#78a9ff;fill-opacity:1;fill-rule:nonzero;stroke:none" transform="matrix(1.3333333,0,0,-1.3333333,174.66667,299.388)" />
    <path id="path178" d="m 172.48138,138.19487 c 0,1.32292 -1.07243,2.39534 -2.39535,2.39534 -1.32293,0 -2.39534,-1.07242 -2.39534,-2.39534 0,-1.32292 1.07241,-2.39534 2.39534,-2.39534 1.32292,0 2.39535,1.07242 2.39535,2.39534 z" style="fill:#78a9ff;fill-opacity:1;fill-rule:nonzero;stroke:none" transform="matrix(1.3333333,0,0,-1.3333333,174.66667,299.388)" />
    <path id="path179" d="m 183.11174,148.82526 c 0,1.32292 -1.07242,2.39535 -2.39534,2.39535 -1.32292,0 -2.39534,-1.07243 -2.39534,-2.39535 0,-1.32293 1.07242,-2.39534 2.39534,-2.39534 1.32292,0 2.39534,1.07241 2.39534,2.39534 z" style="fill:#78a9ff;fill-opacity:1;fill-rule:nonzero;stroke:none" transform="matrix(1.3333333,0,0,-1.3333333,174.66667,299.388)" />
    <path id="path180" d="m 172.48138,116.93413 c 0,1.32292 -1.07243,2.39534 -2.39535,2.39534 -1.32293,0 -2.39534,-1.07242 -2.39534,-2.39534 0,-1.32293 1.07241,-2.39534 2.39534,-2.39534 1.32292,0 2.39535,1.07241 2.39535,2.39534 z" style="fill:#78a9ff;fill-opacity:1;fill-rule:nonzero;stroke:none" transform="matrix(1.3333333,0,0,-1.3333333,174.66667,299.388)" />
    <path id="path181" d="m 183.11174,127.5645 c 0,1.32292 -1.07242,2.39535 -2.39534,2.39535 -1.32292,0 -2.39534,-1.07243 -2.39534,-2.39535 0,-1.32292 1.07242,-2.39534 2.39534,-2.39534 1.32292,0 2.39534,1.07242 2.39534,2.39534 z" style="fill:#78a9ff;fill-opacity:1;fill-rule:nonzero;stroke:none" transform="matrix(1.3333333,0,0,-1.3333333,174.66667,299.388)" />
    <path id="path182" d="m 172.48138,95.67337 c 0,1.32292 -1.07243,2.39534 -2.39535,2.39534 -1.32293,0 -2.39534,-1.07242 -2.39534,-2.39534 0,-1.32292 1.07241,-2.39534 2.39534,-2.39534 1.32292,0 2.39535,1.07242 2.39535,2.39534 z" style="fill:#78a9ff;fill-opacity:1;fill-rule:nonzero;stroke:none" transform="matrix(1.3333333,0,0,-1.3333333,174.66667,299.388)" />
    <path id="path183" d="m 183.11174,106.30376 c 0,1.32292 -1.07242,2.39535 -2.39534,2.39535 -1.32292,0 -2.39534,-1.07243 -2.39534,-2.39535 0,-1.32293 1.07242,-2.39534 2.39534,-2.39534 1.32292,0 2.39534,1.07241 2.39534,2.39534 z" style="fill:#78a9ff;fill-opacity:1;fill-rule:nonzero;stroke:none" transform="matrix(1.3333333,0,0,-1.3333333,174.66667,299.388)" />
    <path id="path184" d="m 172.48138,74.41263 c 0,1.32292 -1.07243,2.39534 -2.39535,2.39534 -1.32293,0 -2.39534,-1.07242 -2.39534,-2.39534 0,-1.32293 1.07241,-2.39534 2.39534,-2.39534 1.32292,0 2.39535,1.07241 2.39535,2.39534 z" style="fill:#78a9ff;fill-opacity:1;fill-rule:nonzero;stroke:none" transform="matrix(1.3333333,0,0,-1.3333333,174.66667,299.388)" />
    <path id="path185" d="m 183.11174,85.043 c 0,1.32292 -1.07242,2.39535 -2.39534,2.39535 -1.32292,0 -2.39534,-1.07243 -2.39534,-2.39535 0,-1.32292 1.07242,-2.39534 2.39534,-2.39534 1.32292,0 2.39534,1.07242 2.39534,2.39534 z" style="fill:#78a9ff;fill-opacity:1;fill-rule:nonzero;stroke:none" transform="matrix(1.3333333,0,0,-1.3333333,174.66667,299.388)" />
    <path id="path186" d="m 172.48138,53.15186 c 0,1.32292 -1.07243,2.39534 -2.39535,2.39534 -1.32293,0 -2.39534,-1.07242 -2.39534,-2.39534 0,-1.32293 1.07241,-2.39534 2.39534,-2.39534 1.32292,0 2.39535,1.07241 2.39535,2.39534 z" style="fill:#78a9ff;fill-opacity:1;fill-rule:nonzero;stroke:none" transform="matrix(1.3333333,0,0,-1.3333333,174.66667,299.388)" />
    <path id="path187" d="m 183.11174,63.78223 c 0,1.32292 -1.07242,2.39535 -2.39534,2.39535 -1.32292,0 -2.39534,-1.07243 -2.39534,-2.39535 0,-1.32293 1.07242,-2.39534 2.39534,-2.39534 1.32292,0 2.39534,1.07241 2.39534,2.39534 z" style="fill:#78a9ff;fill-opacity:1;fill-rule:nonzero;stroke:none" transform="matrix(1.3333333,0,0,-1.3333333,174.66667,299.388)" />
    <path id="path188" d="m 172.48138,31.8911 c 0,1.32292 -1.07243,2.39534 -2.39535,2.39534 -1.32293,0 -2.39534,-1.07242 -2.39534,-2.39534 0,-1.32292 1.07241,-2.39534 2.39534,-2.39534 1.32292,0 2.39535,1.07242 2.39535,2.39534 z" style="fill:#78a9ff;fill-opacity:1;fill-rule:nonzero;stroke:none" transform="matrix(1.3333333,0,0,-1.3333333,174.66667,299.388)" />
    <path id="path189" d="m 183.11174,42.52148 c 0,1.32292 -1.07242,2.39536 -2.39534,2.39536 -1.32292,0 -2.39534,-1.07244 -2.39534,-2.39536 0,-1.32292 1.07242,-2.39534 2.39534,-2.39534 1.32292,0 2.39534,1.07242 2.39534,2.39534 z" style="fill:#78a9ff;fill-opacity:1;fill-rule:nonzero;stroke:none" transform="matrix(1.3333333,0,0,-1.3333333,174.66667,299.388)" />
    <path id="path190" d="m 172.48138,10.63036 c 0,1.32292 -1.07243,2.39534 -2.39535,2.39534 -1.32293,0 -2.39534,-1.07242 -2.39534,-2.39534 0,-1.32293 1.07241,-2.39534 2.39534,-2.39534 1.32292,0 2.39535,1.07241 2.39535,2.39534 z" style="fill:#78a9ff;fill-opacity:1;fill-rule:nonzero;stroke:none" transform="matrix(1.3333333,0,0,-1.3333333,174.66667,299.388)" />
    <path id="path191" d="m 183.11174,21.26073 c 0,1.32292 -1.07242,2.39535 -2.39534,2.39535 -1.32292,0 -2.39534,-1.07243 -2.39534,-2.39535 0,-1.32293 1.07242,-2.39534 2.39534,-2.39534 1.32292,0 2.39534,1.07241 2.39534,2.39534 z" style="fill:#78a9ff;fill-opacity:1;fill-rule:nonzero;stroke:none" transform="matrix(1.3333333,0,0,-1.3333333,174.66667,299.388)" />
    <path id="path192" d="m 13.0257,0 c 0,1.32292 -1.07242,2.39534 -2.39534,2.39534 C 9.30743,2.39534 8.23502,1.32292 8.23502,0 c 0,-1.32292 1.07241,-2.39534 2.39534,-2.39534 1.32292,0 2.39534,1.07242 2.39534,2.39534 z" style="fill:#ffffff;fill-opacity:1;fill-rule:nonzero;stroke:#121619;stroke-width:0.3985;stroke-linecap:butt;stroke-linejoin:miter;stroke-miterlimit:10;stroke-dasharray:0.3985, 0.99628;stroke-dashoffset:0;stroke-opacity:1" transform="matrix(1.3333333,0,0,-1.3333333,174.66667,299.388)" />
    <path id="path193" d="m 193.74213,180.7164 c 0,1.32292 -1.07243,2.39534 -2.39536,2.39534 -1.32292,0 -2.39534,-1.07242 -2.39534,-2.39534 0,-1.32292 1.07242,-2.39534 2.39534,-2.39534 1.32293,0 2.39536,1.07242 2.39536,2.39534 z" style="fill:#ffffff;fill-opacity:1;fill-rule:nonzero;stroke:#121619;stroke-width:0.3985;stroke-linecap:butt;stroke-linejoin:miter;stroke-miterlimit:10;stroke-dasharray:0.3985, 0.99628;stroke-dashoffset:0;stroke-opacity:1" transform="matrix(1.3333333,0,0,-1.3333333,174.66667,299.388)" />
    <path id="path194" d="m 34.28644,0 c 0,1.32292 -1.07242,2.39534 -2.39534,2.39534 -1.32292,0 -2.39534,-1.07242 -2.39534,-2.39534 0,-1.32292 1.07242,-2.39534 2.39534,-2.39534 1.32292,0 2.39534,1.07242 2.39534,2.39534 z" style="fill:#ffffff;fill-opacity:1;fill-rule:nonzero;stroke:#121619;stroke-width:0.3985;stroke-linecap:butt;stroke-linejoin:miter;stroke-miterlimit:10;stroke-dasharray:0.3985, 0.99628;stroke-dashoffset:0;stroke-opacity:1" transform="matrix(1.3333333,0,0,-1.3333333,174.66667,299.388)" />
    <path id="path195" d="m 193.74213,159.45564 c 0,1.32292 -1.07243,2.39534 -2.39536,2.39534 -1.32292,0 -2.39534,-1.07242 -2.39534,-2.39534 0,-1.32292 1.07242,-2.39534 2.39534,-2.39534 1.32293,0 2.39536,1.07242 2.39536,2.39534 z" style="fill:#ffffff;fill-opacity:1;fill-rule:nonzero;stroke:#121619;stroke-width:0.3985;stroke-linecap:butt;stroke-linejoin:miter;stroke-miterlimit:10;stroke-dasharray:0.3985, 0.99628;stroke-dashoffset:0;stroke-opacity:1" transform="matrix(1.3333333,0,0,-1.3333333,174.66667,299.388)" />
    <path id="path196" d="m 55.5472,0 c 0,1.32292 -1.07242,2.39534 -2.39534,2.39534 -1.32293,0 -2.39534,-1.07242 -2.39534,-2.39534 0,-1.32292 1.07241,-2.39534 2.39534,-2.39534 1.32292,0 2.39534,1.07242 2.39534,2.39534 z" style="fill:#ffffff;fill-opacity:1;fill-rule:nonzero;stroke:#121619;stroke-width:0.3985;stroke-linecap:butt;stroke-linejoin:miter;stroke-miterlimit:10;stroke-dasharray:0.3985, 0.99628;stroke-dashoffset:0;stroke-opacity:1" transform="matrix(1.3333333,0,0,-1.3333333,174.66667,299.388)" />
    <path id="path197" d="m 193.74213,138.19487 c 0,1.32292 -1.07243,2.39534 -2.39536,2.39534 -1.32292,0 -2.39534,-1.07242 -2.39534,-2.39534 0,-1.32292 1.07242,-2.39534 2.39534,-2.39534 1.32293,0 2.39536,1.07242 2.39536,2.39534 z" style="fill:#ffffff;fill-opacity:1;fill-rule:nonzero;stroke:#121619;stroke-width:0.3985;stroke-linecap:butt;stroke-linejoin:miter;stroke-miterlimit:10;stroke-dasharray:0.3985, 0.99628;stroke-dashoffset:0;stroke-opacity:1" transform="matrix(1.3333333,0,0,-1.3333333,174.66667,299.388)" />
    <path id="path198" d="m 76.80797,0 c 0,1.32292 -1.07242,2.39534 -2.39534,2.39534 -1.32293,0 -2.39534,-1.07242 -2.39534,-2.39534 0,-1.32292 1.07241,-2.39534 2.39534,-2.39534 1.32292,0 2.39534,1.07242 2.39534,2.39534 z" style="fill:#ffffff;fill-opacity:1;fill-rule:nonzero;stroke:#121619;stroke-width:0.3985;stroke-linecap:butt;stroke-linejoin:miter;stroke-miterlimit:10;stroke-dasharray:0.3985, 0.99628;stroke-dashoffset:0;stroke-opacity:1" transform="matrix(1.3333333,0,0,-1.3333333,174.66667,299.388)" />
    <path id="path199" d="m 193.74213,116.93413 c 0,1.32292 -1.07243,2.39534 -2.39536,2.39534 -1.32292,0 -2.39534,-1.07242 -2.39534,-2.39534 0,-1.32293 1.07242,-2.39534 2.39534,-2.39534 1.32293,0 2.39536,1.07241 2.39536,2.39534 z" style="fill:#ffffff;fill-opacity:1;fill-rule:nonzero;stroke:#121619;stroke-width:0.3985;stroke-linecap:butt;stroke-linejoin:miter;stroke-miterlimit:10;stroke-dasharray:0.3985, 0.99628;stroke-dashoffset:0;stroke-opacity:1" transform="matrix(1.3333333,0,0,-1.3333333,174.66667,299.388)" />
    <path id="path200" d="m 98.06871,0 c 0,1.32292 -1.07242,2.39534 -2.39534,2.39534 -1.32292,0 -2.39534,-1.07242 -2.39534,-2.39534 0,-1.32292 1.07242,-2.39534 2.39534,-2.39534 1.32292,0 2.39534,1.07242 2.39534,2.39534 z" style="fill:#ffffff;fill-opacity:1;fill-rule:nonzero;stroke:#121619;stroke-width:0.3985;stroke-linecap:butt;stroke-linejoin:miter;stroke-miterlimit:10;stroke-dasharray:0.3985, 0.99628;stroke-dashoffset:0;stroke-opacity:1" transform="matrix(1.3333333,0,0,-1.3333333,174.66667,299.388)" />
    <path id="path201" d="m 193.74213,95.67337 c 0,1.32292 -1.07243,2.39534 -2.39536,2.39534 -1.32292,0 -2.39534,-1.07242 -2.39534,-2.39534 0,-1.32292 1.07242,-2.39534 2.39534,-2.39534 1.32293,0 2.39536,1.07242 2.39536,2.39534 z" style="fill:#ffffff;fill-opacity:1;fill-rule:nonzero;stroke:#121619;stroke-width:0.3985;stroke-linecap:butt;stroke-linejoin:miter;stroke-miterlimit:10;stroke-dasharray:0.3985, 0.99628;stroke-dashoffset:0;stroke-opacity:1" transform="matrix(1.3333333,0,0,-1.3333333,174.66667,299.388)" />
    <path id="path202" d="m 119.32947,0 c 0,1.32292 -1.07242,2.39534 -2.39534,2.39534 -1.32293,0 -2.39534,-1.07242 -2.39534,-2.39534 0,-1.32292 1.07241,-2.39534 2.39534,-2.39534 1.32292,0 2.39534,1.07242 2.39534,2.39534 z" style="fill:#ffffff;fill-opacity:1;fill-rule:nonzero;stroke:#121619;stroke-width:0.3985;stroke-linecap:butt;stroke-linejoin:miter;stroke-miterlimit:10;stroke-dasharray:0.3985, 0.99628;stroke-dashoffset:0;stroke-opacity:1" transform="matrix(1.3333333,0,0,-1.3333333,174.66667,299.388)" />
    <path id="path203" d="m 193.74213,74.41263 c 0,1.32292 -1.07243,2.39534 -2.39536,2.39534 -1.32292,0 -2.39534,-1.07242 -2.39534,-2.39534 0,-1.32293 1.07242,-2.39534 2.39534,-2.39534 1.32293,0 2.39536,1.07241 2.39536,2.39534 z" style="fill:#ffffff;fill-opacity:1;fill-rule:nonzero;stroke:#121619;stroke-width:0.3985;stroke-linecap:butt;stroke-linejoin:miter;stroke-miterlimit:10;stroke-dasharray:0.3985, 0.99628;stroke-dashoffset:0;stroke-opacity:1" transform="matrix(1.3333333,0,0,-1.3333333,174.66667,299.388)" />
    <path id="path204" d="m 140.59021,0 c 0,1.32292 -1.07242,2.39534 -2.39534,2.39534 -1.32292,0 -2.39534,-1.07242 -2.39534,-2.39534 0,-1.32292 1.07242,-2.39534 2.39534,-2.39534 1.32292,0 2.39534,1.07242 2.39534,2.39534 z" style="fill:#ffffff;fill-opacity:1;fill-rule:nonzero;stroke:#121619;stroke-width:0.3985;stroke-linecap:butt;stroke-linejoin:miter;stroke-miterlimit:10;stroke-dasharray:0.3985, 0.99628;stroke-dashoffset:0;stroke-opacity:1" transform="matrix(1.3333333,0,0,-1.3333333,174.66667,299.388)" />
    <path id="path205" d="m 193.74213,53.15186 c 0,1.32292 -1.07243,2.39534 -2.39536,2.39534 -1.32292,0 -2.39534,-1.07242 -2.39534,-2.39534 0,-1.32293 1.07242,-2.39534 2.39534,-2.39534 1.32293,0 2.39536,1.07241 2.39536,2.39534 z" style="fill:#ffffff;fill-opacity:1;fill-rule:nonzero;stroke:#121619;stroke-width:0.3985;stroke-linecap:butt;stroke-linejoin:miter;stroke-miterlimit:10;stroke-dasharray:0.3985, 0.99628;stroke-dashoffset:0;stroke-opacity:1" transform="matrix(1.3333333,0,0,-1.3333333,174.66667,299.388)" />
    <path id="path206" d="m 161.85098,0 c 0,1.32292 -1.07242,2.39534 -2.39534,2.39534 -1.32292,0 -2.39534,-1.07242 -2.39534,-2.39534 0,-1.32292 1.07242,-2.39534 2.39534,-2.39534 1.32292,0 2.39534,1.07242 2.39534,2.39534 z" style="fill:#ffffff;fill-opacity:1;fill-rule:nonzero;stroke:#121619;stroke-width:0.3985;stroke-linecap:butt;stroke-linejoin:miter;stroke-miterlimit:10;stroke-dasharray:0.3985, 0.99628;stroke-dashoffset:0;stroke-opacity:1" transform="matrix(1.3333333,0,0,-1.3333333,174.66667,299.388)" />
    <path id="path207" d="m 193.74213,31.8911 c 0,1.32292 -1.07243,2.39534 -2.39536,2.39534 -1.32292,0 -2.39534,-1.07242 -2.39534,-2.39534 0,-1.32292 1.07242,-2.39534 2.39534,-2.39534 1.32293,0 2.39536,1.07242 2.39536,2.39534 z" style="fill:#ffffff;fill-opacity:1;fill-rule:nonzero;stroke:#121619;stroke-width:0.3985;stroke-linecap:butt;stroke-linejoin:miter;stroke-miterlimit:10;stroke-dasharray:0.3985, 0.99628;stroke-dashoffset:0;stroke-opacity:1" transform="matrix(1.3333333,0,0,-1.3333333,174.66667,299.388)" />
    <path id="path208" d="m 183.11174,0 c 0,1.32292 -1.07242,2.39534 -2.39534,2.39534 -1.32292,0 -2.39534,-1.07242 -2.39534,-2.39534 0,-1.32292 1.07242,-2.39534 2.39534,-2.39534 1.32292,0 2.39534,1.07242 2.39534,2.39534 z" style="fill:#ffffff;fill-opacity:1;fill-rule:nonzero;stroke:#121619;stroke-width:0.3985;stroke-linecap:butt;stroke-linejoin:miter;stroke-miterlimit:10;stroke-dasharray:0.3985, 0.99628;stroke-dashoffset:0;stroke-opacity:1" transform="matrix(1.3333333,0,0,-1.3333333,174.66667,299.388)" />
    <path id="path209" d="m 193.74213,10.63036 c 0,1.32292 -1.07243,2.39534 -2.39536,2.39534 -1.32292,0 -2.39534,-1.07242 -2.39534,-2.39534 0,-1.32293 1.07242,-2.39534 2.39534,-2.39534 1.32293,0 2.39536,1.07241 2.39536,2.39534 z" style="fill:#ffffff;fill-opacity:1;fill-rule:nonzero;stroke:#121619;stroke-width:0.3985;stroke-linecap:butt;stroke-linejoin:miter;stroke-miterlimit:10;stroke-dasharray:0.3985, 0.99628;stroke-dashoffset:0;stroke-opacity:1" transform="matrix(1.3333333,0,0,-1.3333333,174.66667,299.388)" />
  </g>
</svg>