<?xml version="1.0" encoding="UTF-8"?><!DOCTYPE svg  PUBLIC '-//W3C//DTD SVG 1.1//EN'  'http://www.w3.org/Graphics/SVG/1.1/DTD/svg11.dtd'><svg width="922.12pt" height="450.13pt" version="1.1" viewBox="0 0 922.12 450.13" xmlns="http://www.w3.org/2000/svg" xmlns:xlink="http://www.w3.org/1999/xlink"><defs><style type="text/css">*{stroke-linejoin: round; stroke-linecap: butt}</style></defs><path d="m0 450.13h922.12v-450.13h-922.12z" fill="#ffffff"/><path d="m71.273 44.283h839.01" clip-path="url(#0ee867e4a77)" fill="none" stroke="#000000" stroke-linecap="square" stroke-width="2"/><path d="m71.273 90.637h839.01" clip-path="url(#0ee867e4a77)" fill="none" stroke="#000000" stroke-linecap="square" stroke-width="2"/><path d="m71.273 136.99h839.01" clip-path="url(#0ee867e4a77)" fill="none" stroke="#000000" stroke-linecap="square" stroke-width="2"/><path d="m71.273 183.35h839.01" clip-path="url(#0ee867e4a77)" fill="none" stroke="#000000" stroke-linecap="square" stroke-width="2"/><path d="m71.273 229.7h839.01" clip-path="url(#0ee867e4a77)" fill="none" stroke="#000000" stroke-linecap="square" stroke-width="2"/><path d="m71.273 276.05h839.01" clip-path="url(#0ee867e4a77)" fill="none" stroke="#000000" stroke-linecap="square" stroke-width="2"/><path d="m71.273 322.41h839.01" clip-path="url(#0ee867e4a77)" fill="none" stroke="#000000" stroke-linecap="square" stroke-width="2"/><path d="m71.273 368.76h839.01" clip-path="url(#0ee867e4a77)" fill="none" stroke="#000000" stroke-linecap="square" stroke-width="2"/><path d="m80.543 419.75 4.6354-9.2708" clip-path="url(#0ee867e4a77)" fill="none" stroke="#778899" stroke-linecap="square" stroke-width="1.5"/><path d="m71.273 413.61h839.01" clip-path="url(#0ee867e4a77)" fill="none" stroke="#778899" stroke-linecap="square" stroke-width="2"/><path d="m71.273 416.62h839.01" clip-path="url(#0ee867e4a77)" fill="none" stroke="#778899" stroke-linecap="square" stroke-width="2"/><path d="m275.69 404.57h12.052l-6.026 8.6914z" clip-path="url(#0ee867e4a77)" fill="#778899"/><path d="m322.05 404.57h12.052l-6.026 8.6914z" clip-path="url(#0ee867e4a77)" fill="#778899"/><path d="m368.4 404.57h12.052l-6.026 8.6914z" clip-path="url(#0ee867e4a77)" fill="#778899"/><path d="m455.55 203.05h76.484q4.6354 0 4.6354-4.6354v-30.13q0-4.6354-4.6354-4.6354h-76.484q-4.6354 0-4.6354 4.6354v30.13q0 4.6354 4.6354 4.6354z" clip-path="url(#0ee867e4a77)" fill="none" stroke="#fa4d56" stroke-width="3"/><g clip-path="url(#0ee867e4a77)"><g transform="translate(451.84 177.66) scale(.13 -.13)"><defs><path id="DejaVuSans-49" transform="scale(.015625)" d="m628 4666h631v-4666h-631v4666z"/><path id="DejaVuSans-66" transform="scale(.015625)" d="m2375 4863v-479h-550q-309 0-430-125-120-125-120-450v-309h947v-447h-947v-3053h-578v3053h-550v447h550v244q0 584 272 851 272 268 862 268h544z"/></defs><use xlink:href="#DejaVuSans-20"/><use transform="translate(31.787)" xlink:href="#DejaVuSans-20"/><use transform="translate(63.574)" xlink:href="#DejaVuSans-49"/><use transform="translate(93.066)" xlink:href="#DejaVuSans-66"/></g></g><g clip-path="url(#0ee867e4a77)"><g transform="translate(456.47 194.82) scale(.08 -.08)"><defs><path id="DejaVuSans-6d" transform="scale(.015625)" d="m3328 2828q216 388 516 572t706 184q547 0 844-383 297-382 297-1088v-2113h-578v2094q0 503-179 746-178 244-543 244-447 0-707-297-259-296-259-809v-1978h-578v2094q0 506-178 748t-550 242q-441 0-701-298-259-298-259-808v-1978h-578v3500h578v-544q197 322 472 475t653 153q382 0 649-194 267-193 395-562z"/><path id="DejaVuSans-5b" transform="scale(.015625)" d="m550 4863h1325v-447h-750v-4813h750v-447h-1325v5707z"/><path id="DejaVuSans-30" transform="scale(.015625)" d="m2034 4250q-487 0-733-480-245-479-245-1442 0-959 245-1439 246-480 733-480 491 0 736 480 246 480 246 1439 0 963-246 1442-245 480-736 480zm0 500q785 0 1199-621 414-620 414-1801 0-1178-414-1799-414-620-1199-620-784 0-1198 620-414 621-414 1799 0 1181 414 1801 414 621 1198 621z"/><path id="DejaVuSans-5d" transform="scale(.015625)" d="m1947 4863v-5707h-1325v447h747v4813h-747v447h1325z"/></defs><use xlink:href="#DejaVuSans-6d"/><use transform="translate(97.412)" xlink:href="#DejaVuSans-5b"/><use transform="translate(136.43)" xlink:href="#DejaVuSans-30"/><use transform="translate(200.05)" xlink:href="#DejaVuSans-5d"/></g></g><path d="m548.26 295.75h122.84q4.6354 0 4.6354-4.6354v-30.13q0-4.6354-4.6354-4.6354h-122.84q-4.6354 0-4.6354 4.6354v30.13q0 4.6354 4.6354 4.6354z" clip-path="url(#0ee867e4a77)" fill="none" stroke="#fa4d56" stroke-width="3"/><g clip-path="url(#0ee867e4a77)"><g transform="translate(544.55 270.37) scale(.13 -.13)"><use xlink:href="#DejaVuSans-20"/><use transform="translate(31.787)" xlink:href="#DejaVuSans-20"/><use transform="translate(63.574)" xlink:href="#DejaVuSans-49"/><use transform="translate(93.066)" xlink:href="#DejaVuSans-66"/></g></g><g clip-path="url(#0ee867e4a77)"><g transform="translate(549.18 287.53) scale(.08 -.08)"><defs><path id="DejaVuSans-31" transform="scale(.015625)" d="m794 531h1031v3560l-1122-225v575l1116 225h631v-4135h1031v-531h-2687v531z"/><path id="DejaVuSans-5e" transform="scale(.015625)" d="m2988 4666 1696-1741h-628l-1375 1234-1375-1234h-628l1697 1741h613z"/></defs><use xlink:href="#DejaVuSans-6d"/><use transform="translate(97.412)" xlink:href="#DejaVuSans-5b"/><use transform="translate(136.43)" xlink:href="#DejaVuSans-31"/><use transform="translate(200.05)" xlink:href="#DejaVuSans-5d"/><use transform="translate(239.06)" xlink:href="#DejaVuSans-20"/><use transform="translate(270.85)" xlink:href="#DejaVuSans-5e"/><use transform="translate(354.64)" xlink:href="#DejaVuSans-20"/><use transform="translate(386.43)" xlink:href="#DejaVuSans-6d"/><use transform="translate(483.84)" xlink:href="#DejaVuSans-5b"/><use transform="translate(522.85)" xlink:href="#DejaVuSans-30"/><use transform="translate(586.47)" xlink:href="#DejaVuSans-5d"/></g></g><path d="m733.67 388.46h169.19q4.6354 0 4.6354-4.6354v-30.13q0-4.6354-4.6354-4.6354h-169.19q-4.6354 0-4.6354 4.6354v30.13q0 4.6354 4.6354 4.6354z" clip-path="url(#0ee867e4a77)" fill="none" stroke="#fa4d56" stroke-width="3"/><g clip-path="url(#0ee867e4a77)"><g transform="translate(729.96 363.08) scale(.13 -.13)"><use xlink:href="#DejaVuSans-20"/><use transform="translate(31.787)" xlink:href="#DejaVuSans-20"/><use transform="translate(63.574)" xlink:href="#DejaVuSans-49"/><use transform="translate(93.066)" xlink:href="#DejaVuSans-66"/></g></g><g clip-path="url(#0ee867e4a77)"><g transform="translate(734.6 380.24) scale(.08 -.08)"><defs><path id="DejaVuSans-32" transform="scale(.015625)" d="m1228 531h2203v-531h-2962v531q359 372 979 998 621 627 780 809 303 340 423 576 121 236 121 464 0 372-261 606-261 235-680 235-297 0-627-103-329-103-704-313v638q381 153 712 231 332 78 607 78 725 0 1156-363 431-362 431-968 0-288-108-546-107-257-392-607-78-91-497-524-418-433-1181-1211z"/><path id="DejaVuSans-28" transform="scale(.015625)" d="m1984 4856q-418-718-622-1422-203-703-203-1425 0-721 205-1429t620-1424h-500q-468 735-701 1444t-233 1409q0 697 231 1403 232 707 703 1444h500z"/><path id="DejaVuSans-29" transform="scale(.015625)" d="m513 4856h500q468-737 701-1444 233-706 233-1403 0-700-233-1409t-701-1444h-500q415 716 620 1424t205 1429q0 722-205 1425-205 704-620 1422z"/></defs><use xlink:href="#DejaVuSans-6d"/><use transform="translate(97.412)" xlink:href="#DejaVuSans-5b"/><use transform="translate(136.43)" xlink:href="#DejaVuSans-32"/><use transform="translate(200.05)" xlink:href="#DejaVuSans-5d"/><use transform="translate(239.06)" xlink:href="#DejaVuSans-20"/><use transform="translate(270.85)" xlink:href="#DejaVuSans-5e"/><use transform="translate(354.64)" xlink:href="#DejaVuSans-20"/><use transform="translate(386.43)" xlink:href="#DejaVuSans-28"/><use transform="translate(425.44)" xlink:href="#DejaVuSans-6d"/><use transform="translate(522.85)" xlink:href="#DejaVuSans-5b"/><use transform="translate(561.87)" xlink:href="#DejaVuSans-31"/><use transform="translate(625.49)" xlink:href="#DejaVuSans-5d"/><use transform="translate(664.5)" xlink:href="#DejaVuSans-20"/><use transform="translate(696.29)" xlink:href="#DejaVuSans-5e"/><use transform="translate(780.08)" xlink:href="#DejaVuSans-20"/><use transform="translate(811.87)" xlink:href="#DejaVuSans-6d"/><use transform="translate(909.28)" xlink:href="#DejaVuSans-5b"/><use transform="translate(948.29)" xlink:href="#DejaVuSans-30"/><use transform="translate(1011.9)" xlink:href="#DejaVuSans-5d"/><use transform="translate(1050.9)" xlink:href="#DejaVuSans-29"/></g></g><path d="m66.637 21.106h-1158.8v463.54h1158.8z" clip-path="url(#0ee867e4a77)" fill="#ffffff" stroke="#ffffff" stroke-width="1.5"/><path d="m189.01 90.637v-46.354" clip-path="url(#0ee867e4a77)" fill="none" stroke="#002d9c" stroke-linecap="square" stroke-width="2"/><path d="m189.01 183.35v-46.354" clip-path="url(#0ee867e4a77)" fill="none" stroke="#002d9c" stroke-linecap="square" stroke-width="2"/><path d="m189.01 276.05v-46.354" clip-path="url(#0ee867e4a77)" fill="none" stroke="#002d9c" stroke-linecap="square" stroke-width="2"/><path d="m189.01 368.76v-46.354" clip-path="url(#0ee867e4a77)" fill="none" stroke="#002d9c" stroke-linecap="square" stroke-width="2"/><path d="m235.37 136.99v-46.354" clip-path="url(#0ee867e4a77)" fill="none" stroke="#002d9c" stroke-linecap="square" stroke-width="2"/><path d="m235.37 229.7v-46.354" clip-path="url(#0ee867e4a77)" fill="none" stroke="#002d9c" stroke-linecap="square" stroke-width="2"/><path d="m235.37 322.41v-46.354" clip-path="url(#0ee867e4a77)" fill="none" stroke="#002d9c" stroke-linecap="square" stroke-width="2"/><path d="m283.23 136.99v267.58" clip-path="url(#0ee867e4a77)" fill="none" stroke="#778899" stroke-linecap="square" stroke-width="2"/><path d="m280.21 136.99v267.58" clip-path="url(#0ee867e4a77)" fill="none" stroke="#778899" stroke-linecap="square" stroke-width="2"/><path d="m329.58 229.7v174.87" clip-path="url(#0ee867e4a77)" fill="none" stroke="#778899" stroke-linecap="square" stroke-width="2"/><path d="m326.57 229.7v174.87" clip-path="url(#0ee867e4a77)" fill="none" stroke="#778899" stroke-linecap="square" stroke-width="2"/><path d="m375.93 322.41v82.162" clip-path="url(#0ee867e4a77)" fill="none" stroke="#778899" stroke-linecap="square" stroke-width="2"/><path d="m372.92 322.41v82.162" clip-path="url(#0ee867e4a77)" fill="none" stroke="#778899" stroke-linecap="square" stroke-width="2"/><path d="m374.43 136.99v-46.354" clip-path="url(#0ee867e4a77)" fill="none" stroke="#002d9c" stroke-linecap="square" stroke-width="2"/><path d="m457.05 204.9v210.22" clip-path="url(#0ee867e4a77)" fill="none" stroke="#778899" stroke-linecap="square" stroke-width="2"/><path d="m454.04 204.9v210.22" clip-path="url(#0ee867e4a77)" fill="none" stroke="#778899" stroke-linecap="square" stroke-width="2"/><path d="m549.76 297.61v117.51" clip-path="url(#0ee867e4a77)" fill="none" stroke="#778899" stroke-linecap="square" stroke-width="2"/><path d="m546.75 297.61v117.51" clip-path="url(#0ee867e4a77)" fill="none" stroke="#778899" stroke-linecap="square" stroke-width="2"/><path d="m698.91 229.7v-46.354" clip-path="url(#0ee867e4a77)" fill="none" stroke="#002d9c" stroke-linecap="square" stroke-width="2"/><path d="m698.91 322.41v-46.354" clip-path="url(#0ee867e4a77)" fill="none" stroke="#002d9c" stroke-linecap="square" stroke-width="2"/><path d="m735.18 390.32v24.799" clip-path="url(#0ee867e4a77)" fill="none" stroke="#778899" stroke-linecap="square" stroke-width="2"/><path d="m732.16 390.32v24.799" clip-path="url(#0ee867e4a77)" fill="none" stroke="#778899" stroke-linecap="square" stroke-width="2"/><path d="m81.239 59.348h30.13v-30.13h-30.13z" clip-path="url(#0ee867e4a77)" fill="#a8a8a8" stroke="#a8a8a8" stroke-width="1.5"/><path d="m81.239 105.7h30.13v-30.13h-30.13z" clip-path="url(#0ee867e4a77)" fill="#a8a8a8" stroke="#a8a8a8" stroke-width="1.5"/><path d="m81.239 152.06h30.13v-30.13h-30.13z" clip-path="url(#0ee867e4a77)" fill="#a8a8a8" stroke="#a8a8a8" stroke-width="1.5"/><path d="m81.239 198.41h30.13v-30.13h-30.13z" clip-path="url(#0ee867e4a77)" fill="#a8a8a8" stroke="#a8a8a8" stroke-width="1.5"/><path d="m81.239 244.76h30.13v-30.13h-30.13z" clip-path="url(#0ee867e4a77)" fill="#a8a8a8" stroke="#a8a8a8" stroke-width="1.5"/><path d="m81.239 291.12h30.13v-30.13h-30.13z" clip-path="url(#0ee867e4a77)" fill="#a8a8a8" stroke="#a8a8a8" stroke-width="1.5"/><path d="m81.239 337.47h30.13v-30.13h-30.13z" clip-path="url(#0ee867e4a77)" fill="#a8a8a8" stroke="#a8a8a8" stroke-width="1.5"/><path d="m81.239 383.83h30.13v-30.13h-30.13z" clip-path="url(#0ee867e4a77)" fill="#a8a8a8" stroke="#a8a8a8" stroke-width="1.5"/><path d="m127.59 59.348h30.13v-30.13h-30.13z" clip-path="url(#0ee867e4a77)" fill="#fa4d56" stroke="#fa4d56" stroke-width="1.5"/><path d="m127.59 152.06h30.13v-30.13h-30.13z" clip-path="url(#0ee867e4a77)" fill="#fa4d56" stroke="#fa4d56" stroke-width="1.5"/><path d="m127.59 244.76h30.13v-30.13h-30.13z" clip-path="url(#0ee867e4a77)" fill="#fa4d56" stroke="#fa4d56" stroke-width="1.5"/><path d="m127.59 337.47h30.13v-30.13h-30.13z" clip-path="url(#0ee867e4a77)" fill="#fa4d56" stroke="#fa4d56" stroke-width="1.5"/><path d="m189.01 48.803c1.1986 0 2.3482-0.4762 3.1958-1.3237s1.3237-1.9972 1.3237-3.1958c0-1.1986-0.4762-2.3482-1.3237-3.1958s-1.9972-1.3237-3.1958-1.3237c-1.1986 0-2.3482 0.4762-3.1958 1.3237-0.84753 0.84753-1.3237 1.9972-1.3237 3.1958 0 1.1986 0.4762 2.3482 1.3237 3.1958 0.84753 0.84753 1.9972 1.3237 3.1958 1.3237z" clip-path="url(#0ee867e4a77)" fill="#002d9c" stroke="#002d9c" stroke-width="1.5"/><path d="m189.01 101.18c2.7967 0 5.4792-1.1111 7.4568-3.0887 1.9776-1.9776 3.0887-4.6601 3.0887-7.4568 0-2.7967-1.1111-5.4792-3.0887-7.4568-1.9776-1.9776-4.6601-3.0887-7.4568-3.0887-2.7967 0-5.4792 1.1111-7.4568 3.0887-1.9776 1.9776-3.0887 4.6601-3.0887 7.4568 0 2.7967 1.1111 5.4792 3.0887 7.4568 1.9776 1.9776 4.6601 3.0887 7.4568 3.0887z" clip-path="url(#0ee867e4a77)" fill="#002d9c" stroke="#002d9c" stroke-width="2"/><path d="m189.01 141.51c1.1986 0 2.3482-0.4762 3.1958-1.3237s1.3237-1.9972 1.3237-3.1958c0-1.1986-0.4762-2.3482-1.3237-3.1958-0.84753-0.84753-1.9972-1.3237-3.1958-1.3237-1.1986 0-2.3482 0.4762-3.1958 1.3237-0.84753 0.84753-1.3237 1.9972-1.3237 3.1958 0 1.1986 0.4762 2.3482 1.3237 3.1958 0.84753 0.84753 1.9972 1.3237 3.1958 1.3237z" clip-path="url(#0ee867e4a77)" fill="#002d9c" stroke="#002d9c" stroke-width="1.5"/><path d="m189.01 193.89c2.7967 0 5.4792-1.1111 7.4568-3.0887 1.9776-1.9776 3.0887-4.6601 3.0887-7.4568 0-2.7967-1.1111-5.4792-3.0887-7.4568-1.9776-1.9776-4.6601-3.0887-7.4568-3.0887-2.7967 0-5.4792 1.1111-7.4568 3.0887-1.9776 1.9776-3.0887 4.6601-3.0887 7.4568 0 2.7967 1.1111 5.4792 3.0887 7.4568 1.9776 1.9776 4.6601 3.0887 7.4568 3.0887z" clip-path="url(#0ee867e4a77)" fill="#002d9c" stroke="#002d9c" stroke-width="2"/><path d="m189.01 234.22c1.1986 0 2.3482-0.4762 3.1958-1.3237 0.84753-0.84753 1.3237-1.9972 1.3237-3.1958s-0.4762-2.3482-1.3237-3.1958c-0.84753-0.84753-1.9972-1.3237-3.1958-1.3237-1.1986 0-2.3482 0.4762-3.1958 1.3237-0.84753 0.84753-1.3237 1.9972-1.3237 3.1958s0.4762 2.3482 1.3237 3.1958c0.84753 0.84753 1.9972 1.3237 3.1958 1.3237z" clip-path="url(#0ee867e4a77)" fill="#002d9c" stroke="#002d9c" stroke-width="1.5"/><path d="m189.01 286.6c2.7967 0 5.4792-1.1111 7.4568-3.0887 1.9776-1.9776 3.0887-4.6601 3.0887-7.4568 0-2.7967-1.1111-5.4792-3.0887-7.4568-1.9776-1.9776-4.6601-3.0887-7.4568-3.0887-2.7967 0-5.4792 1.1111-7.4568 3.0887-1.9776 1.9776-3.0887 4.6601-3.0887 7.4568 0 2.7967 1.1111 5.4792 3.0887 7.4568 1.9776 1.9776 4.6601 3.0887 7.4568 3.0887z" clip-path="url(#0ee867e4a77)" fill="#002d9c" stroke="#002d9c" stroke-width="2"/><path d="m189.01 326.93c1.1986 0 2.3482-0.4762 3.1958-1.3237 0.84753-0.84753 1.3237-1.9972 1.3237-3.1958 0-1.1986-0.4762-2.3482-1.3237-3.1958s-1.9972-1.3237-3.1958-1.3237c-1.1986 0-2.3482 0.4762-3.1958 1.3237-0.84753 0.84753-1.3237 1.9972-1.3237 3.1958 0 1.1986 0.4762 2.3482 1.3237 3.1958 0.84753 0.84753 1.9972 1.3237 3.1958 1.3237z" clip-path="url(#0ee867e4a77)" fill="#002d9c" stroke="#002d9c" stroke-width="1.5"/><path d="m189.01 379.31c2.7967 0 5.4792-1.1111 7.4568-3.0887 1.9776-1.9776 3.0887-4.6601 3.0887-7.4568 0-2.7967-1.1111-5.4792-3.0887-7.4568-1.9776-1.9776-4.6601-3.0887-7.4568-3.0887-2.7967 0-5.4792 1.1111-7.4568 3.0887-1.9776 1.9776-3.0887 4.6601-3.0887 7.4568 0 2.7967 1.1111 5.4792 3.0887 7.4568 1.9776 1.9776 4.6601 3.0887 7.4568 3.0887z" clip-path="url(#0ee867e4a77)" fill="#002d9c" stroke="#002d9c" stroke-width="2"/><path d="m235.37 95.157c1.1986 0 2.3482-0.4762 3.1958-1.3237 0.84753-0.84753 1.3237-1.9972 1.3237-3.1958s-0.4762-2.3482-1.3237-3.1958c-0.84753-0.84753-1.9972-1.3237-3.1958-1.3237-1.1986 0-2.3482 0.4762-3.1958 1.3237-0.84753 0.84753-1.3237 1.9972-1.3237 3.1958s0.4762 2.3482 1.3237 3.1958c0.84753 0.84753 1.9972 1.3237 3.1958 1.3237z" clip-path="url(#0ee867e4a77)" fill="#002d9c" stroke="#002d9c" stroke-width="1.5"/><path d="m235.37 147.54c2.7967 0 5.4792-1.1111 7.4568-3.0887 1.9776-1.9776 3.0887-4.6601 3.0887-7.4568 0-2.7967-1.1111-5.4792-3.0887-7.4568-1.9776-1.9776-4.6601-3.0887-7.4568-3.0887-2.7967 0-5.4792 1.1111-7.4568 3.0887-1.9776 1.9776-3.0887 4.6601-3.0887 7.4568 0 2.7967 1.1111 5.4792 3.0887 7.4568 1.9776 1.9776 4.6601 3.0887 7.4568 3.0887z" clip-path="url(#0ee867e4a77)" fill="#002d9c" stroke="#002d9c" stroke-width="2"/><path d="m235.37 187.86c1.1986 0 2.3482-0.4762 3.1958-1.3237 0.84753-0.84753 1.3237-1.9972 1.3237-3.1958 0-1.1986-0.4762-2.3482-1.3237-3.1958-0.84753-0.84753-1.9972-1.3237-3.1958-1.3237-1.1986 0-2.3482 0.4762-3.1958 1.3237s-1.3237 1.9972-1.3237 3.1958c0 1.1986 0.4762 2.3482 1.3237 3.1958 0.84753 0.84753 1.9972 1.3237 3.1958 1.3237z" clip-path="url(#0ee867e4a77)" fill="#002d9c" stroke="#002d9c" stroke-width="1.5"/><path d="m235.37 240.24c2.7967 0 5.4792-1.1111 7.4568-3.0887 1.9776-1.9776 3.0887-4.6601 3.0887-7.4568 0-2.7967-1.1111-5.4792-3.0887-7.4568-1.9776-1.9776-4.6601-3.0887-7.4568-3.0887-2.7967 0-5.4792 1.1111-7.4568 3.0887-1.9776 1.9776-3.0887 4.6601-3.0887 7.4568 0 2.7967 1.1111 5.4792 3.0887 7.4568 1.9776 1.9776 4.6601 3.0887 7.4568 3.0887z" clip-path="url(#0ee867e4a77)" fill="#002d9c" stroke="#002d9c" stroke-width="2"/><path d="m235.37 280.57c1.1986 0 2.3482-0.4762 3.1958-1.3237 0.84753-0.84753 1.3237-1.9972 1.3237-3.1958 0-1.1986-0.4762-2.3482-1.3237-3.1958-0.84753-0.84753-1.9972-1.3237-3.1958-1.3237-1.1986 0-2.3482 0.4762-3.1958 1.3237-0.84753 0.84753-1.3237 1.9972-1.3237 3.1958 0 1.1986 0.4762 2.3482 1.3237 3.1958s1.9972 1.3237 3.1958 1.3237z" clip-path="url(#0ee867e4a77)" fill="#002d9c" stroke="#002d9c" stroke-width="1.5"/><path d="m235.37 332.95c2.7967 0 5.4792-1.1111 7.4568-3.0887 1.9776-1.9776 3.0887-4.6601 3.0887-7.4568 0-2.7967-1.1111-5.4792-3.0887-7.4568-1.9776-1.9776-4.6601-3.0887-7.4568-3.0887-2.7967 0-5.4792 1.1111-7.4568 3.0887-1.9776 1.9776-3.0887 4.6601-3.0887 7.4568 0 2.7967 1.1111 5.4792 3.0887 7.4568 1.9776 1.9776 4.6601 3.0887 7.4568 3.0887z" clip-path="url(#0ee867e4a77)" fill="#002d9c" stroke="#002d9c" stroke-width="2"/><path d="m266.65 152.06h30.13v-30.13h-30.13z" clip-path="url(#0ee867e4a77)" fill="#a8a8a8" stroke="#a8a8a8" stroke-width="1.5"/><path d="m292.27 141.51c0-2.7958-1.1118-5.4799-3.0887-7.4568s-4.661-3.0887-7.4568-3.0887-5.4799 1.1118-7.4568 3.0887-3.0887 4.661-3.0887 7.4568" clip-path="url(#0ee867e4a77)" fill="none" stroke="#000000" stroke-width="2"/><path d="m281.72 141.51 10.546-10.546" clip-path="url(#0ee867e4a77)" fill="none" stroke="#000000" stroke-linecap="square" stroke-width="2"/><path d="m313.01 244.76h30.13v-30.13h-30.13z" clip-path="url(#0ee867e4a77)" fill="#a8a8a8" stroke="#a8a8a8" stroke-width="1.5"/><path d="m338.62 234.22c0-2.7958-1.1118-5.4799-3.0887-7.4568s-4.661-3.0887-7.4568-3.0887c-2.7958 0-5.4799 1.1118-7.4568 3.0887s-3.0887 4.661-3.0887 7.4568" clip-path="url(#0ee867e4a77)" fill="none" stroke="#000000" stroke-width="2"/><path d="m328.07 234.22 10.546-10.546" clip-path="url(#0ee867e4a77)" fill="none" stroke="#000000" stroke-linecap="square" stroke-width="2"/><path d="m313.01 152.06h30.13v-30.13h-30.13z" clip-path="url(#0ee867e4a77)" fill="#a8a8a8" stroke="#a8a8a8" stroke-width="1.5"/><path d="m359.36 337.47h30.13v-30.13h-30.13z" clip-path="url(#0ee867e4a77)" fill="#a8a8a8" stroke="#a8a8a8" stroke-width="1.5"/><path d="m384.97 326.93c0-2.7958-1.1118-5.4799-3.0887-7.4568-1.9769-1.9769-4.661-3.0887-7.4568-3.0887s-5.4799 1.1118-7.4568 3.0887c-1.9769 1.9769-3.0887 4.661-3.0887 7.4568" clip-path="url(#0ee867e4a77)" fill="none" stroke="#000000" stroke-width="2"/><path d="m374.43 326.93 10.546-10.546" clip-path="url(#0ee867e4a77)" fill="none" stroke="#000000" stroke-linecap="square" stroke-width="2"/><path d="m359.36 244.76h30.13v-30.13h-30.13z" clip-path="url(#0ee867e4a77)" fill="#a8a8a8" stroke="#a8a8a8" stroke-width="1.5"/><path d="m374.43 95.157c1.1986 0 2.3482-0.4762 3.1958-1.3237 0.84753-0.84753 1.3237-1.9972 1.3237-3.1958s-0.4762-2.3482-1.3237-3.1958c-0.84753-0.84753-1.9972-1.3237-3.1958-1.3237-1.1986 0-2.3482 0.4762-3.1958 1.3237-0.84753 0.84753-1.3237 1.9972-1.3237 3.1958s0.4762 2.3482 1.3237 3.1958c0.84753 0.84753 1.9972 1.3237 3.1958 1.3237z" clip-path="url(#0ee867e4a77)" fill="#002d9c" stroke="#002d9c" stroke-width="1.5"/><path d="m374.43 147.54c2.7967 0 5.4792-1.1111 7.4568-3.0887 1.9776-1.9776 3.0887-4.6601 3.0887-7.4568 0-2.7967-1.1111-5.4792-3.0887-7.4568s-4.6601-3.0887-7.4568-3.0887c-2.7967 0-5.4792 1.1111-7.4568 3.0887-1.9776 1.9776-3.0887 4.6601-3.0887 7.4568 0 2.7967 1.1111 5.4792 3.0887 7.4568 1.9776 1.9776 4.6601 3.0887 7.4568 3.0887z" clip-path="url(#0ee867e4a77)" fill="#002d9c" stroke="#002d9c" stroke-width="2"/><path d="m405.72 337.47h30.13v-30.13h-30.13z" clip-path="url(#0ee867e4a77)" fill="#a8a8a8" stroke="#a8a8a8" stroke-width="1.5"/><path d="m455.55 419.63c1.1986 0 2.3482-0.4762 3.1958-1.3237 0.84753-0.84753 1.3237-1.9972 1.3237-3.1958 0-1.1986-0.4762-2.3482-1.3237-3.1958-0.84753-0.84753-1.9972-1.3237-3.1958-1.3237-1.1986 0-2.3482 0.4762-3.1958 1.3237s-1.3237 1.9972-1.3237 3.1958c0 1.1986 0.4762 2.3482 1.3237 3.1958 0.84753 0.84753 1.9972 1.3237 3.1958 1.3237z" clip-path="url(#0ee867e4a77)" stroke="#000000" stroke-width="1.5"/><path d="m548.26 419.63c1.1986 0 2.3482-0.4762 3.1958-1.3237 0.84753-0.84753 1.3237-1.9972 1.3237-3.1958 0-1.1986-0.4762-2.3482-1.3237-3.1958-0.84753-0.84753-1.9972-1.3237-3.1958-1.3237-1.1986 0-2.3482 0.4762-3.1958 1.3237s-1.3237 1.9972-1.3237 3.1958c0 1.1986 0.4762 2.3482 1.3237 3.1958 0.84753 0.84753 1.9972 1.3237 3.1958 1.3237z" clip-path="url(#0ee867e4a77)" stroke="#000000" stroke-width="1.5"/><path d="m698.91 187.86c1.1986 0 2.3482-0.4762 3.1958-1.3237 0.84753-0.84753 1.3237-1.9972 1.3237-3.1958 0-1.1986-0.4762-2.3482-1.3237-3.1958-0.84753-0.84753-1.9972-1.3237-3.1958-1.3237-1.1986 0-2.3482 0.4762-3.1958 1.3237s-1.3237 1.9972-1.3237 3.1958c0 1.1986 0.4762 2.3482 1.3237 3.1958 0.84753 0.84753 1.9972 1.3237 3.1958 1.3237z" clip-path="url(#0ee867e4a77)" fill="#002d9c" stroke="#002d9c" stroke-width="1.5"/><path d="m698.91 240.24c2.7967 0 5.4792-1.1111 7.4568-3.0887 1.9776-1.9776 3.0887-4.6601 3.0887-7.4568 0-2.7967-1.1111-5.4792-3.0887-7.4568-1.9776-1.9776-4.6601-3.0887-7.4568-3.0887-2.7967 0-5.4792 1.1111-7.4568 3.0887-1.9776 1.9776-3.0887 4.6601-3.0887 7.4568 0 2.7967 1.1111 5.4792 3.0887 7.4568 1.9776 1.9776 4.6601 3.0887 7.4568 3.0887z" clip-path="url(#0ee867e4a77)" fill="#002d9c" stroke="#002d9c" stroke-width="2"/><path d="m698.91 280.57c1.1986 0 2.3482-0.4762 3.1958-1.3237 0.84753-0.84753 1.3237-1.9972 1.3237-3.1958 0-1.1986-0.4762-2.3482-1.3237-3.1958-0.84753-0.84753-1.9972-1.3237-3.1958-1.3237-1.1986 0-2.3482 0.4762-3.1958 1.3237-0.84753 0.84753-1.3237 1.9972-1.3237 3.1958 0 1.1986 0.4762 2.3482 1.3237 3.1958s1.9972 1.3237 3.1958 1.3237z" clip-path="url(#0ee867e4a77)" fill="#002d9c" stroke="#002d9c" stroke-width="1.5"/><path d="m698.91 332.95c2.7967 0 5.4792-1.1111 7.4568-3.0887 1.9776-1.9776 3.0887-4.6601 3.0887-7.4568 0-2.7967-1.1111-5.4792-3.0887-7.4568-1.9776-1.9776-4.6601-3.0887-7.4568-3.0887-2.7967 0-5.4792 1.1111-7.4568 3.0887-1.9776 1.9776-3.0887 4.6601-3.0887 7.4568 0 2.7967 1.1111 5.4792 3.0887 7.4568 1.9776 1.9776 4.6601 3.0887 7.4568 3.0887z" clip-path="url(#0ee867e4a77)" fill="#002d9c" stroke="#002d9c" stroke-width="2"/><path d="m733.67 419.63c1.1986 0 2.3482-0.4762 3.1958-1.3237 0.84753-0.84753 1.3237-1.9972 1.3237-3.1958 0-1.1986-0.4762-2.3482-1.3237-3.1958-0.84753-0.84753-1.9972-1.3237-3.1958-1.3237s-2.3482 0.4762-3.1958 1.3237c-0.84753 0.84753-1.3237 1.9972-1.3237 3.1958 0 1.1986 0.4762 2.3482 1.3237 3.1958 0.84753 0.84753 1.9972 1.3237 3.1958 1.3237z" clip-path="url(#0ee867e4a77)" stroke="#000000" stroke-width="1.5"/><path d="m498.42 198.41h30.13v-30.13h-30.13z" clip-path="url(#0ee867e4a77)" fill="#002d9c" stroke="#002d9c" stroke-width="1.5"/><path d="m637.49 291.12h30.13v-30.13h-30.13z" clip-path="url(#0ee867e4a77)" fill="#002d9c" stroke="#002d9c" stroke-width="1.5"/><path d="m869.26 383.83h30.13v-30.13h-30.13z" clip-path="url(#0ee867e4a77)" fill="#002d9c" stroke="#002d9c" stroke-width="1.5"/><path d="m189.01 96.663v-12.052" clip-path="url(#0ee867e4a77)" fill="none" stroke="#ffffff" stroke-linecap="square" stroke-width="2"/><path d="m182.99 90.637h12.052" clip-path="url(#0ee867e4a77)" fill="none" stroke="#ffffff" stroke-linecap="square" stroke-width="2"/><path d="m189.01 189.37v-12.052" clip-path="url(#0ee867e4a77)" fill="none" stroke="#ffffff" stroke-linecap="square" stroke-width="2"/><path d="m182.99 183.35h12.052" clip-path="url(#0ee867e4a77)" fill="none" stroke="#ffffff" stroke-linecap="square" stroke-width="2"/><path d="m189.01 282.08v-12.052" clip-path="url(#0ee867e4a77)" fill="none" stroke="#ffffff" stroke-linecap="square" stroke-width="2"/><path d="m182.99 276.05h12.052" clip-path="url(#0ee867e4a77)" fill="none" stroke="#ffffff" stroke-linecap="square" stroke-width="2"/><path d="m189.01 374.79v-12.052" clip-path="url(#0ee867e4a77)" fill="none" stroke="#ffffff" stroke-linecap="square" stroke-width="2"/><path d="m182.99 368.76h12.052" clip-path="url(#0ee867e4a77)" fill="none" stroke="#ffffff" stroke-linecap="square" stroke-width="2"/><path d="m235.37 143.02v-12.052" clip-path="url(#0ee867e4a77)" fill="none" stroke="#ffffff" stroke-linecap="square" stroke-width="2"/><path d="m229.34 136.99h12.052" clip-path="url(#0ee867e4a77)" fill="none" stroke="#ffffff" stroke-linecap="square" stroke-width="2"/><path d="m235.37 235.73v-12.052" clip-path="url(#0ee867e4a77)" fill="none" stroke="#ffffff" stroke-linecap="square" stroke-width="2"/><path d="m229.34 229.7h12.052" clip-path="url(#0ee867e4a77)" fill="none" stroke="#ffffff" stroke-linecap="square" stroke-width="2"/><path d="m235.37 328.43v-12.052" clip-path="url(#0ee867e4a77)" fill="none" stroke="#ffffff" stroke-linecap="square" stroke-width="2"/><path d="m229.34 322.41h12.052" clip-path="url(#0ee867e4a77)" fill="none" stroke="#ffffff" stroke-linecap="square" stroke-width="2"/><path d="m374.43 143.02v-12.052" clip-path="url(#0ee867e4a77)" fill="none" stroke="#ffffff" stroke-linecap="square" stroke-width="2"/><path d="m368.4 136.99h12.052" clip-path="url(#0ee867e4a77)" fill="none" stroke="#ffffff" stroke-linecap="square" stroke-width="2"/><path d="m698.91 235.73v-12.052" clip-path="url(#0ee867e4a77)" fill="none" stroke="#ffffff" stroke-linecap="square" stroke-width="2"/><path d="m692.88 229.7h12.052" clip-path="url(#0ee867e4a77)" fill="none" stroke="#ffffff" stroke-linecap="square" stroke-width="2"/><path d="m698.91 328.43v-12.052" clip-path="url(#0ee867e4a77)" fill="none" stroke="#ffffff" stroke-linecap="square" stroke-width="2"/><path d="m692.88 322.41h12.052" clip-path="url(#0ee867e4a77)" fill="none" stroke="#ffffff" stroke-linecap="square" stroke-width="2"/><g clip-path="url(#0ee867e4a77)"><g transform="translate(37.302 48.734) scale(.1625 -.1625)"><defs><path id="DejaVuSans-Oblique-71" transform="scale(.015625)" d="m2669 525q-231-303-546-460-314-156-695-156-531 0-833 358-301 358-301 986 0 506 186 978t533 847q225 244 517 375t614 131q387 0 637-153t363-462l100 525h578l-934-4813h-579l360 1844zm-1778 813q0-463 193-705 194-242 560-242 544 0 928 520t384 1264q0 450-199 689-198 239-569 239-272 0-504-127-231-126-403-370-181-256-286-600-104-343-104-668z"/><path id="DejaVuSans-Oblique-72" transform="scale(.015625)" d="m2853 2969q-87 47-200 72-112 25-240 25-460 0-804-349-343-348-456-933l-353-1784h-575l684 3500h575l-109-544q228 303 545 465 318 163 677 163 94 0 184-11 91-10 182-35l-110-569z"/></defs><use xlink:href="#DejaVuSans-Oblique-71"/><use transform="translate(63.477)" xlink:href="#DejaVuSans-Oblique-72"/><use transform="translate(104.59 -16.406) scale(.7)" xlink:href="#DejaVuSans-30"/></g></g><g clip-path="url(#0ee867e4a77)"><g transform="translate(37.302 95.088) scale(.1625 -.1625)"><use xlink:href="#DejaVuSans-Oblique-71"/><use transform="translate(63.477)" xlink:href="#DejaVuSans-Oblique-72"/><use transform="translate(104.59 -16.406) scale(.7)" xlink:href="#DejaVuSans-31"/></g></g><g clip-path="url(#0ee867e4a77)"><g transform="translate(37.302 141.44) scale(.1625 -.1625)"><use xlink:href="#DejaVuSans-Oblique-71"/><use transform="translate(63.477)" xlink:href="#DejaVuSans-Oblique-72"/><use transform="translate(104.59 -16.406) scale(.7)" xlink:href="#DejaVuSans-32"/></g></g><g clip-path="url(#0ee867e4a77)"><g transform="translate(37.302 187.8) scale(.1625 -.1625)"><defs><path id="DejaVuSans-33" transform="scale(.015625)" d="m2597 2516q453-97 707-404 255-306 255-756 0-690-475-1069-475-378-1350-378-293 0-604 58t-642 174v609q262-153 574-231 313-78 654-78 593 0 904 234t311 681q0 413-289 645-289 233-804 233h-544v519h569q465 0 712 186t247 536q0 359-255 551-254 193-729 193-260 0-557-57-297-56-653-174v562q360 100 674 150t592 50q719 0 1137-327 419-326 419-882 0-388-222-655t-631-370z"/></defs><use xlink:href="#DejaVuSans-Oblique-71"/><use transform="translate(63.477)" xlink:href="#DejaVuSans-Oblique-72"/><use transform="translate(104.59 -16.406) scale(.7)" xlink:href="#DejaVuSans-33"/></g></g><g clip-path="url(#0ee867e4a77)"><g transform="translate(37.302 234.15) scale(.1625 -.1625)"><defs><path id="DejaVuSans-34" transform="scale(.015625)" d="m2419 4116-1594-2491h1594v2491zm-166 550h794v-3041h666v-525h-666v-1100h-628v1100h-2106v609l1940 2957z"/></defs><use xlink:href="#DejaVuSans-Oblique-71"/><use transform="translate(63.477)" xlink:href="#DejaVuSans-Oblique-72"/><use transform="translate(104.59 -16.406) scale(.7)" xlink:href="#DejaVuSans-34"/></g></g><g clip-path="url(#0ee867e4a77)"><g transform="translate(37.302 280.5) scale(.1625 -.1625)"><defs><path id="DejaVuSans-35" transform="scale(.015625)" d="m691 4666h2478v-532h-1900v-1143q137 47 274 70 138 23 276 23 781 0 1237-428 457-428 457-1159 0-753-469-1171-469-417-1322-417-294 0-599 50-304 50-629 150v635q281-153 581-228t634-75q541 0 856 284 316 284 316 772 0 487-316 771-315 285-856 285-253 0-505-56-251-56-513-175v2344z"/></defs><use xlink:href="#DejaVuSans-Oblique-71"/><use transform="translate(63.477)" xlink:href="#DejaVuSans-Oblique-72"/><use transform="translate(104.59 -16.406) scale(.7)" xlink:href="#DejaVuSans-35"/></g></g><g clip-path="url(#0ee867e4a77)"><g transform="translate(37.302 326.86) scale(.1625 -.1625)"><defs><path id="DejaVuSans-36" transform="scale(.015625)" d="m2113 2584q-425 0-674-291-248-290-248-796 0-503 248-796 249-292 674-292t673 292q248 293 248 796 0 506-248 796-248 291-673 291zm1253 1979v-575q-238 112-480 171-242 60-480 60-625 0-955-422-329-422-376-1275 184 272 462 417 279 145 613 145 703 0 1111-427 408-426 408-1160 0-719-425-1154-425-434-1131-434-810 0-1238 620-428 621-428 1799 0 1106 525 1764t1409 658q238 0 480-47t505-140z"/></defs><use xlink:href="#DejaVuSans-Oblique-71"/><use transform="translate(63.477)" xlink:href="#DejaVuSans-Oblique-72"/><use transform="translate(104.59 -16.406) scale(.7)" xlink:href="#DejaVuSans-36"/></g></g><g clip-path="url(#0ee867e4a77)"><g transform="translate(37.302 373.21) scale(.1625 -.1625)"><defs><path id="DejaVuSans-37" transform="scale(.015625)" d="m525 4666h3e3v-269l-1694-4397h-659l1594 4134h-2241v532z"/></defs><use xlink:href="#DejaVuSans-Oblique-71"/><use transform="translate(63.477)" xlink:href="#DejaVuSans-Oblique-72"/><use transform="translate(104.59 -16.406) scale(.7)" xlink:href="#DejaVuSans-37"/></g></g><g clip-path="url(#0ee867e4a77)"><g transform="translate(75.908 408.32) scale(.104 -.104)"><use xlink:href="#DejaVuSans-33"/></g></g><g clip-path="url(#0ee867e4a77)"><g transform="translate(46.173 419.6) scale(.1625 -.1625)"><use xlink:href="#DejaVuSans-6d"/></g></g><g clip-path="url(#0ee867e4a77)"><g transform="translate(87.919 47.87) scale(.13 -.13)"><defs><path id="DejaVuSans-7c" transform="scale(.015625)" d="m1344 4891v-6400h-531v6400h531z"/><path id="DejaVuSans-27e9" transform="scale(.015625)" d="m1925 2006-881-2850h-531l881 2850-881 2850h531l881-2850z"/></defs><use transform="translate(0 16.625) scale(.75641)" xlink:href="#DejaVuSans-7c"/><use transform="translate(25.479 .125)" xlink:href="#DejaVuSans-30"/><use transform="translate(89.102 .125)" xlink:href="#DejaVuSans-27e9"/></g></g><g clip-path="url(#0ee867e4a77)"><g transform="translate(87.919 94.224) scale(.13 -.13)"><use transform="translate(0 16.625) scale(.75641)" xlink:href="#DejaVuSans-7c"/><use transform="translate(25.479 .125)" xlink:href="#DejaVuSans-30"/><use transform="translate(89.102 .125)" xlink:href="#DejaVuSans-27e9"/></g></g><g clip-path="url(#0ee867e4a77)"><g transform="translate(87.919 140.58) scale(.13 -.13)"><use transform="translate(0 16.625) scale(.75641)" xlink:href="#DejaVuSans-7c"/><use transform="translate(25.479 .125)" xlink:href="#DejaVuSans-30"/><use transform="translate(89.102 .125)" xlink:href="#DejaVuSans-27e9"/></g></g><g clip-path="url(#0ee867e4a77)"><g transform="translate(87.919 186.93) scale(.13 -.13)"><use transform="translate(0 16.625) scale(.75641)" xlink:href="#DejaVuSans-7c"/><use transform="translate(25.479 .125)" xlink:href="#DejaVuSans-30"/><use transform="translate(89.102 .125)" xlink:href="#DejaVuSans-27e9"/></g></g><g clip-path="url(#0ee867e4a77)"><g transform="translate(87.919 233.29) scale(.13 -.13)"><use transform="translate(0 16.625) scale(.75641)" xlink:href="#DejaVuSans-7c"/><use transform="translate(25.479 .125)" xlink:href="#DejaVuSans-30"/><use transform="translate(89.102 .125)" xlink:href="#DejaVuSans-27e9"/></g></g><g clip-path="url(#0ee867e4a77)"><g transform="translate(87.919 279.64) scale(.13 -.13)"><use transform="translate(0 16.625) scale(.75641)" xlink:href="#DejaVuSans-7c"/><use transform="translate(25.479 .125)" xlink:href="#DejaVuSans-30"/><use transform="translate(89.102 .125)" xlink:href="#DejaVuSans-27e9"/></g></g><g clip-path="url(#0ee867e4a77)"><g transform="translate(87.919 325.99) scale(.13 -.13)"><use transform="translate(0 16.625) scale(.75641)" xlink:href="#DejaVuSans-7c"/><use transform="translate(25.479 .125)" xlink:href="#DejaVuSans-30"/><use transform="translate(89.102 .125)" xlink:href="#DejaVuSans-27e9"/></g></g><g clip-path="url(#0ee867e4a77)"><g transform="translate(87.919 372.35) scale(.13 -.13)"><use transform="translate(0 16.625) scale(.75641)" xlink:href="#DejaVuSans-7c"/><use transform="translate(25.479 .125)" xlink:href="#DejaVuSans-30"/><use transform="translate(89.102 .125)" xlink:href="#DejaVuSans-27e9"/></g></g><g clip-path="url(#0ee867e4a77)"><g transform="translate(137.77 47.87) scale(.13 -.13)"><defs><path id="DejaVuSans-48" transform="scale(.015625)" d="m628 4666h631v-1913h2294v1913h631v-4666h-631v2222h-2294v-2222h-631v4666z"/></defs><use xlink:href="#DejaVuSans-48"/></g></g><g clip-path="url(#0ee867e4a77)"><g transform="translate(137.77 140.58) scale(.13 -.13)"><use xlink:href="#DejaVuSans-48"/></g></g><g clip-path="url(#0ee867e4a77)"><g transform="translate(137.77 233.29) scale(.13 -.13)"><use xlink:href="#DejaVuSans-48"/></g></g><g clip-path="url(#0ee867e4a77)"><g transform="translate(137.77 325.99) scale(.13 -.13)"><use xlink:href="#DejaVuSans-48"/></g></g><g clip-path="url(#0ee867e4a77)"><g transform="translate(293.31 408.32) scale(.104 -.104)"><use xlink:href="#DejaVuSans-30"/></g></g><g clip-path="url(#0ee867e4a77)"><g transform="translate(339.66 408.32) scale(.104 -.104)"><use xlink:href="#DejaVuSans-31"/></g></g><g clip-path="url(#0ee867e4a77)"><g transform="translate(319.69 140.58) scale(.13 -.13)"><use transform="translate(0 16.625) scale(.75641)" xlink:href="#DejaVuSans-7c"/><use transform="translate(25.479 .125)" xlink:href="#DejaVuSans-30"/><use transform="translate(89.102 .125)" xlink:href="#DejaVuSans-27e9"/></g></g><g clip-path="url(#0ee867e4a77)"><g transform="translate(386.02 408.32) scale(.104 -.104)"><use xlink:href="#DejaVuSans-32"/></g></g><g clip-path="url(#0ee867e4a77)"><g transform="translate(366.04 233.29) scale(.13 -.13)"><use transform="translate(0 16.625) scale(.75641)" xlink:href="#DejaVuSans-7c"/><use transform="translate(25.479 .125)" xlink:href="#DejaVuSans-30"/><use transform="translate(89.102 .125)" xlink:href="#DejaVuSans-27e9"/></g></g><g clip-path="url(#0ee867e4a77)"><g transform="translate(412.4 325.99) scale(.13 -.13)"><use transform="translate(0 16.625) scale(.75641)" xlink:href="#DejaVuSans-7c"/><use transform="translate(25.479 .125)" xlink:href="#DejaVuSans-30"/><use transform="translate(89.102 .125)" xlink:href="#DejaVuSans-27e9"/></g></g><g clip-path="url(#0ee867e4a77)"><g transform="translate(443.48 430.23) scale(.08 -.08)"><defs><path id="DejaVuSans-65" transform="scale(.015625)" d="m3597 1894v-281h-2644q38-594 358-905t892-311q331 0 642 81t618 244v-544q-310-131-635-200t-659-69q-838 0-1327 487-489 488-489 1320 0 859 464 1363 464 505 1252 505 706 0 1117-455 411-454 411-1235zm-575 169q-6 471-264 752-258 282-683 282-481 0-770-272t-333-766l2050 4z"/><path id="DejaVuSans-78" transform="scale(.015625)" d="m3513 3500-1266-1703 1331-1797h-678l-1019 1375-1018-1375h-679l1360 1831-1244 1669h678l928-1247 928 1247h679z"/><path id="DejaVuSans-70" transform="scale(.015625)" d="m1159 525v-1856h-578v4831h578v-531q182 312 458 463 277 152 661 152 638 0 1036-506 399-506 399-1331t-399-1332q-398-506-1036-506-384 0-661 152-276 152-458 464zm1957 1222q0 634-261 995t-717 361q-457 0-718-361t-261-995 261-995 718-361q456 0 717 361t261 995z"/><path id="DejaVuSans-72" transform="scale(.015625)" d="m2631 2963q-97 56-211 82-114 27-251 27-488 0-749-317t-261-911v-1844h-578v3500h578v-544q182 319 472 473 291 155 707 155 59 0 131-8 72-7 159-23l3-590z"/></defs><use xlink:href="#DejaVuSans-5b"/><use transform="translate(39.014)" xlink:href="#DejaVuSans-65"/><use transform="translate(98.787)" xlink:href="#DejaVuSans-78"/><use transform="translate(157.97)" xlink:href="#DejaVuSans-70"/><use transform="translate(221.44)" xlink:href="#DejaVuSans-72"/><use transform="translate(262.56)" xlink:href="#DejaVuSans-5d"/></g></g><g clip-path="url(#0ee867e4a77)"><g transform="translate(536.19 430.23) scale(.08 -.08)"><use xlink:href="#DejaVuSans-5b"/><use transform="translate(39.014)" xlink:href="#DejaVuSans-65"/><use transform="translate(98.787)" xlink:href="#DejaVuSans-78"/><use transform="translate(157.97)" xlink:href="#DejaVuSans-70"/><use transform="translate(221.44)" xlink:href="#DejaVuSans-72"/><use transform="translate(262.56)" xlink:href="#DejaVuSans-5d"/></g></g><g clip-path="url(#0ee867e4a77)"><g transform="translate(721.61 430.23) scale(.08 -.08)"><use xlink:href="#DejaVuSans-5b"/><use transform="translate(39.014)" xlink:href="#DejaVuSans-65"/><use transform="translate(98.787)" xlink:href="#DejaVuSans-78"/><use transform="translate(157.97)" xlink:href="#DejaVuSans-70"/><use transform="translate(221.44)" xlink:href="#DejaVuSans-72"/><use transform="translate(262.56)" xlink:href="#DejaVuSans-5d"/></g></g><g clip-path="url(#0ee867e4a77)"><g transform="translate(509.04 186.93) scale(.13 -.13)" fill="#ffffff"><defs><path id="DejaVuSans-58" transform="scale(.015625)" d="m403 4666h678l1160-1735 1165 1735h678l-1500-2241 1600-2425h-678l-1312 1984-1322-1984h-681l1665 2491-1453 2175z"/></defs><use xlink:href="#DejaVuSans-58"/></g></g><g clip-path="url(#0ee867e4a77)"><g transform="translate(648.1 279.64) scale(.13 -.13)" fill="#ffffff"><use xlink:href="#DejaVuSans-58"/></g></g><g clip-path="url(#0ee867e4a77)"><g transform="translate(879.87 372.35) scale(.13 -.13)" fill="#ffffff"><use xlink:href="#DejaVuSans-58"/></g></g><defs><clipPath id="0ee867e4a77"><rect x="7.2" y="7.2" width="907.72" height="435.73"/></clipPath></defs></svg>