<?xml version="1.0" encoding="UTF-8"?><!DOCTYPE svg  PUBLIC '-//W3C//DTD SVG 1.1//EN'  'http://www.w3.org/Graphics/SVG/1.1/DTD/svg11.dtd'><svg width="1000.6pt" height="740.84pt" version="1.1" viewBox="0 0 1000.6 740.84" xmlns="http://www.w3.org/2000/svg" xmlns:xlink="http://www.w3.org/1999/xlink"><defs><style type="text/css">*{stroke-linejoin: round; stroke-linecap: butt}</style></defs><path d="m0 740.84h1000.6v-740.84h-1000.6z" fill="#ffffff"/><path d="m30.75 697.48h950.24v-690.28h-950.24z" fill="#ffffff"/><path d="m30.75 76.228h950.24v-31.859h-950.24z" clip-path="url(#8b0ed112990)" fill="#dddddd" fill-opacity=".7"/><path d="m30.75 129.33h950.24v-31.859h-950.24z" clip-path="url(#8b0ed112990)" fill="#dddddd" fill-opacity=".7"/><path d="m30.75 182.42h950.24v-31.859h-950.24z" clip-path="url(#8b0ed112990)" fill="#dddddd" fill-opacity=".7"/><path d="m30.75 235.52h950.24v-31.859h-950.24z" clip-path="url(#8b0ed112990)" fill="#dddddd" fill-opacity=".7"/><path d="m30.75 288.62h950.24v-31.859h-950.24z" clip-path="url(#8b0ed112990)" fill="#dddddd" fill-opacity=".7"/><path d="m30.75 341.72h950.24v-31.859h-950.24z" clip-path="url(#8b0ed112990)" fill="#dddddd" fill-opacity=".7"/><path d="m30.75 394.82h950.24v-31.859h-950.24z" clip-path="url(#8b0ed112990)" fill="#dddddd" fill-opacity=".7"/><path d="m30.75 447.92h950.24v-31.859h-950.24z" clip-path="url(#8b0ed112990)" fill="#dddddd" fill-opacity=".7"/><path d="m30.75 501.02h950.24v-31.859h-950.24z" clip-path="url(#8b0ed112990)" fill="#dddddd" fill-opacity=".7"/><path d="m30.75 554.11h950.24v-31.859h-950.24z" clip-path="url(#8b0ed112990)" fill="#dddddd" fill-opacity=".7"/><path d="m30.75 607.21h950.24v-31.859h-950.24z" clip-path="url(#8b0ed112990)" fill="#dddddd" fill-opacity=".7"/><path d="m30.75 660.31h950.24v-31.859h-950.24z" clip-path="url(#8b0ed112990)" fill="#dddddd" fill-opacity=".7"/><defs><path id="96a6932425f" d="m0 0v3.5" stroke="#000000" stroke-width=".8"/></defs><use x="49.023788" y="697.48" stroke="#000000" stroke-width=".8" xlink:href="#96a6932425f"/><g transform="translate(44.888 714.36) scale(.13 -.13)"><defs><path id="DejaVuSans-30" transform="scale(.015625)" d="m2034 4250q-487 0-733-480-245-479-245-1442 0-959 245-1439 246-480 733-480 491 0 736 480 246 480 246 1439 0 963-246 1442-245 480-736 480zm0 500q785 0 1199-621 414-620 414-1801 0-1178-414-1799-414-620-1199-620-784 0-1198 620-414 621-414 1799 0 1181 414 1801 414 621 1198 621z"/></defs><use xlink:href="#DejaVuSans-30"/></g><use x="235.416429" y="697.48" stroke="#000000" stroke-width=".8" xlink:href="#96a6932425f"/><g transform="translate(227.15 714.36) scale(.13 -.13)"><defs><path id="DejaVuSans-36" transform="scale(.015625)" d="m2113 2584q-425 0-674-291-248-290-248-796 0-503 248-796 249-292 674-292t673 292q248 293 248 796 0 506-248 796-248 291-673 291zm1253 1979v-575q-238 112-480 171-242 60-480 60-625 0-955-422-329-422-376-1275 184 272 462 417 279 145 613 145 703 0 1111-427 408-426 408-1160 0-719-425-1154-425-434-1131-434-810 0-1238 620-428 621-428 1799 0 1106 525 1764t1409 658q238 0 480-47t505-140z"/><path id="DejaVuSans-31" transform="scale(.015625)" d="m794 531h1031v3560l-1122-225v575l1116 225h631v-4135h1031v-531h-2687v531z"/></defs><use xlink:href="#DejaVuSans-36"/><use transform="translate(63.623)" xlink:href="#DejaVuSans-31"/></g><use x="421.80907" y="697.48" stroke="#000000" stroke-width=".8" xlink:href="#96a6932425f"/><g transform="translate(409.4 714.36) scale(.13 -.13)"><defs><path id="DejaVuSans-32" transform="scale(.015625)" d="m1228 531h2203v-531h-2962v531q359 372 979 998 621 627 780 809 303 340 423 576 121 236 121 464 0 372-261 606-261 235-680 235-297 0-627-103-329-103-704-313v638q381 153 712 231 332 78 607 78 725 0 1156-363 431-362 431-968 0-288-108-546-107-257-392-607-78-91-497-524-418-433-1181-1211z"/></defs><use xlink:href="#DejaVuSans-31"/><use transform="translate(63.623)" xlink:href="#DejaVuSans-32"/><use transform="translate(127.25)" xlink:href="#DejaVuSans-32"/></g><use x="608.20171" y="697.48" stroke="#000000" stroke-width=".8" xlink:href="#96a6932425f"/><g transform="translate(595.79 714.36) scale(.13 -.13)"><defs><path id="DejaVuSans-38" transform="scale(.015625)" d="m2034 2216q-450 0-708-241-257-241-257-662 0-422 257-663 258-241 708-241t709 242q260 243 260 662 0 421-258 662-257 241-711 241zm-631 268q-406 100-633 378-226 279-226 679 0 559 398 884 399 325 1092 325 697 0 1094-325t397-884q0-400-227-679-226-278-629-378 456-106 710-416 255-309 255-755 0-679-414-1042-414-362-1186-362-771 0-1186 362-414 363-414 1042 0 446 256 755 257 310 713 416zm-231 997q0-362 226-565 227-203 636-203 407 0 636 203 230 203 230 565 0 363-230 566-229 203-636 203-409 0-636-203-226-203-226-566z"/><path id="DejaVuSans-34" transform="scale(.015625)" d="m2419 4116-1594-2491h1594v2491zm-166 550h794v-3041h666v-525h-666v-1100h-628v1100h-2106v609l1940 2957z"/></defs><use xlink:href="#DejaVuSans-31"/><use transform="translate(63.623)" xlink:href="#DejaVuSans-38"/><use transform="translate(127.25)" xlink:href="#DejaVuSans-34"/></g><use x="794.594351" y="697.48" stroke="#000000" stroke-width=".8" xlink:href="#96a6932425f"/><g transform="translate(782.19 714.36) scale(.13 -.13)"><defs><path id="DejaVuSans-35" transform="scale(.015625)" d="m691 4666h2478v-532h-1900v-1143q137 47 274 70 138 23 276 23 781 0 1237-428 457-428 457-1159 0-753-469-1171-469-417-1322-417-294 0-599 50-304 50-629 150v635q281-153 581-228t634-75q541 0 856 284 316 284 316 772 0 487-316 771-315 285-856 285-253 0-505-56-251-56-513-175v2344z"/></defs><use xlink:href="#DejaVuSans-32"/><use transform="translate(63.623)" xlink:href="#DejaVuSans-34"/><use transform="translate(127.25)" xlink:href="#DejaVuSans-35"/></g><use x="980.986992" y="697.48" stroke="#000000" stroke-width=".8" xlink:href="#96a6932425f"/><g transform="translate(968.58 714.36) scale(.13 -.13)"><defs><path id="DejaVuSans-33" transform="scale(.015625)" d="m2597 2516q453-97 707-404 255-306 255-756 0-690-475-1069-475-378-1350-378-293 0-604 58t-642 174v609q262-153 574-231 313-78 654-78 593 0 904 234t311 681q0 413-289 645-289 233-804 233h-544v519h569q465 0 712 186t247 536q0 359-255 551-254 193-729 193-260 0-557-57-297-56-653-174v562q360 100 674 150t592 50q719 0 1137-327 419-326 419-882 0-388-222-655t-631-370z"/></defs><use xlink:href="#DejaVuSans-33"/><use transform="translate(63.623)" xlink:href="#DejaVuSans-30"/><use transform="translate(127.25)" xlink:href="#DejaVuSans-36"/></g><g transform="translate(432.2 730.94) scale(.13 -.13)"><defs><path id="DejaVuSans-53" transform="scale(.015625)" d="m3425 4513v-616q-359 172-678 256-319 85-616 85-515 0-795-200t-280-569q0-310 186-468 186-157 705-254l381-78q706-135 1042-474t336-907q0-679-455-1029-454-350-1332-350-331 0-705 75-373 75-773 222v650q384-215 753-325 369-109 725-109 540 0 834 212 294 213 294 607 0 343-211 537t-692 291l-385 75q-706 140-1022 440-315 300-315 835 0 619 436 975t1201 356q329 0 669-60 341-59 697-177z"/><path id="DejaVuSans-79" transform="scale(.015625)" d="m2059-325q-243-625-475-815-231-191-618-191h-460v481h338q237 0 368 113 132 112 291 531l103 262-1415 3444h609l1094-2737 1094 2737h609l-1538-3825z"/><path id="DejaVuSans-73" transform="scale(.015625)" d="m2834 3397v-544q-243 125-506 187-262 63-544 63-428 0-642-131t-214-394q0-200 153-314t616-217l197-44q612-131 870-370t258-667q0-488-386-773-386-284-1061-284-281 0-586 55t-642 164v594q319-166 628-249 309-82 613-82 406 0 624 139 219 139 219 392 0 234-158 359-157 125-692 241l-200 47q-534 112-772 345-237 233-237 639 0 494 350 762 350 269 994 269 318 0 599-47 282-46 519-140z"/><path id="DejaVuSans-74" transform="scale(.015625)" d="m1172 4494v-994h1184v-447h-1184v-1900q0-428 117-550t477-122h590v-481h-590q-666 0-919 248-253 249-253 905v1900h-422v447h422v994h578z"/><path id="DejaVuSans-65" transform="scale(.015625)" d="m3597 1894v-281h-2644q38-594 358-905t892-311q331 0 642 81t618 244v-544q-310-131-635-200t-659-69q-838 0-1327 487-489 488-489 1320 0 859 464 1363 464 505 1252 505 706 0 1117-455 411-454 411-1235zm-575 169q-6 471-264 752-258 282-683 282-481 0-770-272t-333-766l2050 4z"/><path id="DejaVuSans-6d" transform="scale(.015625)" d="m3328 2828q216 388 516 572t706 184q547 0 844-383 297-382 297-1088v-2113h-578v2094q0 503-179 746-178 244-543 244-447 0-707-297-259-296-259-809v-1978h-578v2094q0 506-178 748t-550 242q-441 0-701-298-259-298-259-808v-1978h-578v3500h578v-544q197 322 472 475t653 153q382 0 649-194 267-193 395-562z"/><path id="DejaVuSans-63" transform="scale(.015625)" d="m3122 3366v-538q-244 135-489 202t-495 67q-560 0-870-355-309-354-309-995t309-996q310-354 870-354 250 0 495 67t489 202v-532q-241-112-499-168-257-57-548-57-791 0-1257 497-465 497-465 1341 0 856 470 1346 471 491 1290 491 265 0 518-55 253-54 491-163z"/><path id="DejaVuSans-6c" transform="scale(.015625)" d="m603 4863h575v-4863h-575v4863z"/><path id="DejaVuSans-69" transform="scale(.015625)" d="m603 3500h575v-3500h-575v3500zm0 1363h575v-729h-575v729z"/><path id="DejaVuSans-28" transform="scale(.015625)" d="m1984 4856q-418-718-622-1422-203-703-203-1425 0-721 205-1429t620-1424h-500q-468 735-701 1444t-233 1409q0 697 231 1403 232 707 703 1444h500z"/><path id="DejaVuSans-64" transform="scale(.015625)" d="m2906 2969v1894h575v-4863h-575v525q-181-312-458-464-276-152-664-152-634 0-1033 506-398 507-398 1332t398 1331q399 506 1033 506 388 0 664-152 277-151 458-463zm-1959-1222q0-634 261-995t717-361 718 361q263 361 263 995t-263 995q-262 361-718 361t-717-361-261-995z"/><path id="DejaVuSans-29" transform="scale(.015625)" d="m513 4856h500q468-737 701-1444 233-706 233-1403 0-700-233-1409t-701-1444h-500q415 716 620 1424t205 1429q0 722-205 1425-205 704-620 1422z"/></defs><use xlink:href="#DejaVuSans-53"/><use transform="translate(63.477)" xlink:href="#DejaVuSans-79"/><use transform="translate(122.66)" xlink:href="#DejaVuSans-73"/><use transform="translate(174.76)" xlink:href="#DejaVuSans-74"/><use transform="translate(213.96)" xlink:href="#DejaVuSans-65"/><use transform="translate(275.49)" xlink:href="#DejaVuSans-6d"/><use transform="translate(372.9)" xlink:href="#DejaVuSans-20"/><use transform="translate(404.69)" xlink:href="#DejaVuSans-63"/><use transform="translate(459.67)" xlink:href="#DejaVuSans-79"/><use transform="translate(518.85)" xlink:href="#DejaVuSans-63"/><use transform="translate(573.83)" xlink:href="#DejaVuSans-6c"/><use transform="translate(601.61)" xlink:href="#DejaVuSans-65"/><use transform="translate(663.13)" xlink:href="#DejaVuSans-20"/><use transform="translate(694.92)" xlink:href="#DejaVuSans-74"/><use transform="translate(734.13)" xlink:href="#DejaVuSans-69"/><use transform="translate(761.91)" xlink:href="#DejaVuSans-6d"/><use transform="translate(859.33)" xlink:href="#DejaVuSans-65"/><use transform="translate(920.85)" xlink:href="#DejaVuSans-20"/><use transform="translate(952.64)" xlink:href="#DejaVuSans-28"/><use transform="translate(991.65)" xlink:href="#DejaVuSans-64"/><use transform="translate(1055.1)" xlink:href="#DejaVuSans-74"/><use transform="translate(1094.3)" xlink:href="#DejaVuSans-29"/></g><path d="m129.73 60.298v265.49" clip-path="url(#8b0ed112990)" fill="none" stroke="#6fa4ff" stroke-linecap="square" stroke-opacity=".8" stroke-width="3"/><path d="m199.78 325.79v106.2" clip-path="url(#8b0ed112990)" fill="none" stroke="#6fa4ff" stroke-linecap="square" stroke-opacity=".8" stroke-width="3"/><path d="m269.83 431.99v53.098" clip-path="url(#8b0ed112990)" fill="none" stroke="#6fa4ff" stroke-linecap="square" stroke-opacity=".8" stroke-width="3"/><path d="m339.88 485.09v53.098" clip-path="url(#8b0ed112990)" fill="none" stroke="#6fa4ff" stroke-linecap="square" stroke-opacity=".8" stroke-width="3"/><path d="m409.93 538.18v53.098" clip-path="url(#8b0ed112990)" fill="none" stroke="#6fa4ff" stroke-linecap="square" stroke-opacity=".8" stroke-width="3"/><path d="m479.98 591.28v53.098" clip-path="url(#8b0ed112990)" fill="none" stroke="#6fa4ff" stroke-linecap="square" stroke-opacity=".8" stroke-width="3"/><path d="m550.03 644.38v-265.49" clip-path="url(#8b0ed112990)" fill="none" stroke="#6fa4ff" stroke-linecap="square" stroke-opacity=".8" stroke-width="3"/><path d="m620.08 378.89v-106.2" clip-path="url(#8b0ed112990)" fill="none" stroke="#6fa4ff" stroke-linecap="square" stroke-opacity=".8" stroke-width="3"/><path d="m690.13 272.69v-53.098" clip-path="url(#8b0ed112990)" fill="none" stroke="#6fa4ff" stroke-linecap="square" stroke-opacity=".8" stroke-width="3"/><path d="m760.18 219.59v-53.098" clip-path="url(#8b0ed112990)" fill="none" stroke="#6fa4ff" stroke-linecap="square" stroke-opacity=".8" stroke-width="3"/><path d="m830.23 166.5v-53.098" clip-path="url(#8b0ed112990)" fill="none" stroke="#6fa4ff" stroke-linecap="square" stroke-opacity=".8" stroke-width="3"/><path d="m900.28 113.4v-53.098" clip-path="url(#8b0ed112990)" fill="none" stroke="#6fa4ff" stroke-linecap="square" stroke-opacity=".8" stroke-width="3"/><path d="m30.75 697.48v-690.28" fill="none"/><path d="m980.99 697.48v-690.28" fill="none"/><path d="m30.75 697.48h950.24" fill="none" stroke="#000000" stroke-linecap="square" stroke-width=".8"/><path d="m30.75 7.2h950.24" fill="none"/><path d="m67.298 60.298 3.0456-13.275h12.183l3.0456 13.275-3.0456 13.275h-12.183l-3.0456-13.275z" clip-path="url(#8b0ed112990)" fill="#fa74a6"/><path d="m85.571 60.298 3.0456-13.275h12.183l3.0456 13.275-3.0456 13.275h-12.183l-3.0456-13.275z" clip-path="url(#8b0ed112990)" fill="#fa74a6"/><path d="m749.52 113.4 3.0456-13.275h12.183l3.0456 13.275-3.0456 13.275h-12.183l-3.0456-13.275z" clip-path="url(#8b0ed112990)" fill="#fa74a6"/><path d="m767.79 113.4 3.0456-13.275h12.183l3.0456 13.275-3.0456 13.275h-12.183l-3.0456-13.275z" clip-path="url(#8b0ed112990)" fill="#fa74a6"/><path d="m786.07 113.4 3.0456-13.275h12.183l3.0456 13.275-3.0456 13.275h-12.183l-3.0456-13.275z" clip-path="url(#8b0ed112990)" fill="#fa74a6"/><path d="m679.47 166.5 3.0456-13.275h12.183l3.0456 13.275-3.0456 13.275h-12.183l-3.0456-13.275z" clip-path="url(#8b0ed112990)" fill="#fa74a6"/><path d="m697.74 166.5 3.0456-13.275h12.183l3.0456 13.275-3.0456 13.275h-12.183l-3.0456-13.275z" clip-path="url(#8b0ed112990)" fill="#fa74a6"/><path d="m716.02 166.5 3.0456-13.275h12.183l3.0456 13.275-3.0456 13.275h-12.183l-3.0456-13.275z" clip-path="url(#8b0ed112990)" fill="#fa74a6"/><path d="m609.42 219.59 3.0456-13.275h12.183l3.0456 13.275-3.0456 13.275h-12.183l-3.0456-13.275z" clip-path="url(#8b0ed112990)" fill="#fa74a6"/><path d="m627.69 219.59 3.0456-13.275h12.183l3.0456 13.275-3.0456 13.275h-12.183l-3.0456-13.275z" clip-path="url(#8b0ed112990)" fill="#fa74a6"/><path d="m645.97 219.59 3.0456-13.275h12.183l3.0456 13.275-3.0456 13.275h-12.183l-3.0456-13.275z" clip-path="url(#8b0ed112990)" fill="#fa74a6"/><path d="m539.37 272.69 3.0456-13.275h12.183l3.0456 13.275-3.0456 13.275h-12.183l-3.0456-13.275z" clip-path="url(#8b0ed112990)" fill="#fa74a6"/><path d="m557.64 272.69 3.0456-13.275h12.183l3.0456 13.275-3.0456 13.275h-12.183l-3.0456-13.275z" clip-path="url(#8b0ed112990)" fill="#fa74a6"/><path d="m575.92 272.69 3.0456-13.275h12.183l3.0456 13.275-3.0456 13.275h-12.183l-3.0456-13.275z" clip-path="url(#8b0ed112990)" fill="#fa74a6"/><path d="m49.024 325.79 3.0456-13.275h12.183l3.0456 13.275-3.0456 13.275h-12.183l-3.0456-13.275z" clip-path="url(#8b0ed112990)" fill="#fa74a6"/><path d="m67.298 325.79 3.0456-13.275h12.183l3.0456 13.275-3.0456 13.275h-12.183l-3.0456-13.275z" clip-path="url(#8b0ed112990)" fill="#fa74a6"/><path d="m85.571 325.79 3.0456-13.275h12.183l3.0456 13.275-3.0456 13.275h-12.183l-3.0456-13.275z" clip-path="url(#8b0ed112990)" fill="#fa74a6"/><path d="m103.85 60.298 3.0456-3.4357 3.0456-3.2016 3.0456-2.7493 3.0456-2.1096 3.0456-1.3261 3.0456-0.45232h15.228l3.0456 0.45232 3.0456 1.3261 3.0456 2.1096 3.0456 2.7493 3.0456 3.2016 3.0456 3.4357-3.0456 3.4357-3.0456 3.2016-3.0456 2.7493-3.0456 2.1096-3.0456 1.3261-3.0456 0.45232h-15.228l-3.0456-0.45232-3.0456-1.3261-3.0456-2.1096-3.0456-2.7493-3.0456-3.2016-3.0456-3.4357z" clip-path="url(#8b0ed112990)" fill="#6fa4ff"/><path d="m103.85 325.79 3.0456-3.4357 3.0456-3.2016 3.0456-2.7493 3.0456-2.1096 3.0456-1.3261 3.0456-0.45232h15.228l3.0456 0.45232 3.0456 1.3261 3.0456 2.1096 3.0456 2.7493 3.0456 3.2016 3.0456 3.4357-3.0456 3.4357-3.0456 3.2016-3.0456 2.7493-3.0456 2.1096-3.0456 1.3261-3.0456 0.45232h-15.228l-3.0456-0.45232-3.0456-1.3261-3.0456-2.1096-3.0456-2.7493-3.0456-3.2016-3.0456-3.4357z" clip-path="url(#8b0ed112990)" fill="#6fa4ff"/><path d="m231.76 60.298 3.0456-13.275h12.183l3.0456 13.275-3.0456 13.275h-12.183l-3.0456-13.275z" clip-path="url(#8b0ed112990)" fill="#05bab6"/><path d="m405.36 60.298 3.0456-13.275h12.183l3.0456 13.275-3.0456 13.275h-12.183l-3.0456-13.275z" clip-path="url(#8b0ed112990)" fill="#05bab6"/><path d="m588.1 60.298 3.0456-13.275h12.183l3.0456 13.275-3.0456 13.275h-12.183l-3.0456-13.275z" clip-path="url(#8b0ed112990)" fill="#05bab6"/><path d="m761.7 60.298 3.0456-13.275h12.183l3.0456 13.275-3.0456 13.275h-12.183l-3.0456-13.275z" clip-path="url(#8b0ed112990)" fill="#05bab6"/><path d="m856.12 60.298 3.0456-13.275h12.183l3.0456 13.275-3.0456 13.275h-12.183l-3.0456-13.275z" clip-path="url(#8b0ed112990)" fill="#fa74a6"/><path d="m155.62 325.79 3.0456-13.275h12.183l3.0456 13.275-3.0456 13.275h-12.183l-3.0456-13.275z" clip-path="url(#8b0ed112990)" fill="#fa74a6"/><path d="m469.32 378.89 3.0456-13.275h12.183l3.0456 13.275-3.0456 13.275h-12.183l-3.0456-13.275z" clip-path="url(#8b0ed112990)" fill="#fa74a6"/><path d="m487.59 378.89 3.0456-13.275h12.183l3.0456 13.275-3.0456 13.275h-12.183l-3.0456-13.275z" clip-path="url(#8b0ed112990)" fill="#fa74a6"/><path d="m505.87 378.89 3.0456-13.275h12.183l3.0456 13.275-3.0456 13.275h-12.183l-3.0456-13.275z" clip-path="url(#8b0ed112990)" fill="#fa74a6"/><path d="m119.07 431.99 3.0456-13.275h12.183l3.0456 13.275-3.0456 13.275h-12.183l-3.0456-13.275z" clip-path="url(#8b0ed112990)" fill="#fa74a6"/><path d="m137.35 431.99 3.0456-13.275h12.183l3.0456 13.275-3.0456 13.275h-12.183l-3.0456-13.275z" clip-path="url(#8b0ed112990)" fill="#fa74a6"/><path d="m155.62 431.99 3.0456-13.275h12.183l3.0456 13.275-3.0456 13.275h-12.183l-3.0456-13.275z" clip-path="url(#8b0ed112990)" fill="#fa74a6"/><path d="m173.89 325.79 3.0456-3.4357 3.0456-3.2016 3.0456-2.7493 3.0456-2.1096 3.0456-1.3261 3.0456-0.45232h15.228l3.0456 0.45232 3.0456 1.3261 3.0456 2.1096 3.0456 2.7493 3.0456 3.2016 3.0456 3.4357-3.0456 3.4357-3.0456 3.2016-3.0456 2.7493-3.0456 2.1096-3.0456 1.3261-3.0456 0.45232h-15.228l-3.0456-0.45232-3.0456-1.3261-3.0456-2.1096-3.0456-2.7493-3.0456-3.2016-3.0456-3.4357z" clip-path="url(#8b0ed112990)" fill="#6fa4ff"/><path d="m173.89 431.99 3.0456-3.4357 3.0456-3.2016 3.0456-2.7493 3.0456-2.1096 3.0456-1.3261 3.0456-0.45232h15.228l3.0456 0.45232 3.0456 1.3261 3.0456 2.1096 3.0456 2.7493 3.0456 3.2016 3.0456 3.4357-3.0456 3.4357-3.0456 3.2016-3.0456 2.7493-3.0456 2.1096-3.0456 1.3261-3.0456 0.45232h-15.228l-3.0456-0.45232-3.0456-1.3261-3.0456-2.1096-3.0456-2.7493-3.0456-3.2016-3.0456-3.4357z" clip-path="url(#8b0ed112990)" fill="#6fa4ff"/><path d="m301.81 325.79 3.0456-13.275h12.183l3.0456 13.275-3.0456 13.275h-12.183l-3.0456-13.275z" clip-path="url(#8b0ed112990)" fill="#05bab6"/><path d="m475.41 325.79 3.0456-13.275h12.183l3.0456 13.275-3.0456 13.275h-12.183l-3.0456-13.275z" clip-path="url(#8b0ed112990)" fill="#05bab6"/><path d="m658.15 325.79 3.0456-13.275h12.183l3.0456 13.275-3.0456 13.275h-12.183l-3.0456-13.275z" clip-path="url(#8b0ed112990)" fill="#05bab6"/><path d="m831.75 325.79 3.0456-13.275h12.183l3.0456 13.275-3.0456 13.275h-12.183l-3.0456-13.275z" clip-path="url(#8b0ed112990)" fill="#05bab6"/><path d="m926.17 325.79 3.0456-13.275h12.183l3.0456 13.275-3.0456 13.275h-12.183l-3.0456-13.275z" clip-path="url(#8b0ed112990)" fill="#fa74a6"/><path d="m944.44 325.79 3.0456-13.275h12.183l3.0456 13.275-3.0456 13.275h-12.183l-3.0456-13.275z" clip-path="url(#8b0ed112990)" fill="#fa74a6"/><path d="m225.67 431.99 3.0456-13.275h12.183l3.0456 13.275-3.0456 13.275h-12.183l-3.0456-13.275z" clip-path="url(#8b0ed112990)" fill="#fa74a6"/><path d="m189.12 485.09 3.0456-13.275h12.183l3.0456 13.275-3.0456 13.275h-12.183l-3.0456-13.275z" clip-path="url(#8b0ed112990)" fill="#fa74a6"/><path d="m207.4 485.09 3.0456-13.275h12.183l3.0456 13.275-3.0456 13.275h-12.183l-3.0456-13.275z" clip-path="url(#8b0ed112990)" fill="#fa74a6"/><path d="m225.67 485.09 3.0456-13.275h12.183l3.0456 13.275-3.0456 13.275h-12.183l-3.0456-13.275z" clip-path="url(#8b0ed112990)" fill="#fa74a6"/><path d="m243.94 431.99 3.0456-3.4357 3.0456-3.2016 3.0456-2.7493 3.0456-2.1096 3.0456-1.3261 3.0456-0.45232h15.228l3.0456 0.45232 3.0456 1.3261 3.0456 2.1096 3.0456 2.7493 3.0456 3.2016 3.0456 3.4357-3.0456 3.4357-3.0456 3.2016-3.0456 2.7493-3.0456 2.1096-3.0456 1.3261-3.0456 0.45232h-15.228l-3.0456-0.45232-3.0456-1.3261-3.0456-2.1096-3.0456-2.7493-3.0456-3.2016-3.0456-3.4357z" clip-path="url(#8b0ed112990)" fill="#6fa4ff"/><path d="m243.94 485.09 3.0456-3.4357 3.0456-3.2016 3.0456-2.7493 3.0456-2.1096 3.0456-1.3261 3.0456-0.45232h15.228l3.0456 0.45232 3.0456 1.3261 3.0456 2.1096 3.0456 2.7493 3.0456 3.2016 3.0456 3.4357-3.0456 3.4357-3.0456 3.2016-3.0456 2.7493-3.0456 2.1096-3.0456 1.3261-3.0456 0.45232h-15.228l-3.0456-0.45232-3.0456-1.3261-3.0456-2.1096-3.0456-2.7493-3.0456-3.2016-3.0456-3.4357z" clip-path="url(#8b0ed112990)" fill="#6fa4ff"/><path d="m362.72 431.99 3.0456-13.275h12.183l3.0456 13.275-3.0456 13.275h-12.183l-3.0456-13.275z" clip-path="url(#8b0ed112990)" fill="#05bab6"/><path d="m518.05 431.99 3.0456-13.275h12.183l3.0456 13.275-3.0456 13.275h-12.183l-3.0456-13.275z" clip-path="url(#8b0ed112990)" fill="#05bab6"/><path d="m685.56 431.99 3.0456-13.275h12.183l3.0456 13.275-3.0456 13.275h-12.183l-3.0456-13.275z" clip-path="url(#8b0ed112990)" fill="#05bab6"/><path d="m840.89 431.99 3.0456-13.275h12.183l3.0456 13.275-3.0456 13.275h-12.183l-3.0456-13.275z" clip-path="url(#8b0ed112990)" fill="#05bab6"/><path d="m926.17 431.99 3.0456-13.275h12.183l3.0456 13.275-3.0456 13.275h-12.183l-3.0456-13.275z" clip-path="url(#8b0ed112990)" fill="#fa74a6"/><path d="m944.44 431.99 3.0456-13.275h12.183l3.0456 13.275-3.0456 13.275h-12.183l-3.0456-13.275z" clip-path="url(#8b0ed112990)" fill="#fa74a6"/><path d="m295.72 485.09 3.0456-13.275h12.183l3.0456 13.275-3.0456 13.275h-12.183l-3.0456-13.275z" clip-path="url(#8b0ed112990)" fill="#fa74a6"/><path d="m259.17 538.18 3.0456-13.275h12.183l3.0456 13.275-3.0456 13.275h-12.183l-3.0456-13.275z" clip-path="url(#8b0ed112990)" fill="#fa74a6"/><path d="m277.45 538.18 3.0456-13.275h12.183l3.0456 13.275-3.0456 13.275h-12.183l-3.0456-13.275z" clip-path="url(#8b0ed112990)" fill="#fa74a6"/><path d="m295.72 538.18 3.0456-13.275h12.183l3.0456 13.275-3.0456 13.275h-12.183l-3.0456-13.275z" clip-path="url(#8b0ed112990)" fill="#fa74a6"/><path d="m313.99 485.09 3.0456-3.4357 3.0456-3.2016 3.0456-2.7493 3.0456-2.1096 3.0456-1.3261 3.0456-0.45232h15.228l3.0456 0.45232 3.0456 1.3261 3.0456 2.1096 3.0456 2.7493 3.0456 3.2016 3.0456 3.4357-3.0456 3.4357-3.0456 3.2016-3.0456 2.7493-3.0456 2.1096-3.0456 1.3261-3.0456 0.45232h-15.228l-3.0456-0.45232-3.0456-1.3261-3.0456-2.1096-3.0456-2.7493-3.0456-3.2016-3.0456-3.4357z" clip-path="url(#8b0ed112990)" fill="#6fa4ff"/><path d="m313.99 538.18 3.0456-3.4357 3.0456-3.2016 3.0456-2.7493 3.0456-2.1096 3.0456-1.3261 3.0456-0.45232h15.228l3.0456 0.45232 3.0456 1.3261 3.0456 2.1096 3.0456 2.7493 3.0456 3.2016 3.0456 3.4357-3.0456 3.4357-3.0456 3.2016-3.0456 2.7493-3.0456 2.1096-3.0456 1.3261-3.0456 0.45232h-15.228l-3.0456-0.45232-3.0456-1.3261-3.0456-2.1096-3.0456-2.7493-3.0456-3.2016-3.0456-3.4357z" clip-path="url(#8b0ed112990)" fill="#6fa4ff"/><path d="m426.68 485.09 3.0456-13.275h12.183l3.0456 13.275-3.0456 13.275h-12.183l-3.0456-13.275z" clip-path="url(#8b0ed112990)" fill="#05bab6"/><path d="m566.78 485.09 3.0456-13.275h12.183l3.0456 13.275-3.0456 13.275h-12.183l-3.0456-13.275z" clip-path="url(#8b0ed112990)" fill="#05bab6"/><path d="m706.88 485.09 3.0456-13.275h12.183l3.0456 13.275-3.0456 13.275h-12.183l-3.0456-13.275z" clip-path="url(#8b0ed112990)" fill="#05bab6"/><path d="m846.98 485.09 3.0456-13.275h12.183l3.0456 13.275-3.0456 13.275h-12.183l-3.0456-13.275z" clip-path="url(#8b0ed112990)" fill="#05bab6"/><path d="m926.17 485.09 3.0456-13.275h12.183l3.0456 13.275-3.0456 13.275h-12.183l-3.0456-13.275z" clip-path="url(#8b0ed112990)" fill="#fa74a6"/><path d="m944.44 485.09 3.0456-13.275h12.183l3.0456 13.275-3.0456 13.275h-12.183l-3.0456-13.275z" clip-path="url(#8b0ed112990)" fill="#fa74a6"/><path d="m365.77 538.18 3.0456-13.275h12.183l3.0456 13.275-3.0456 13.275h-12.183l-3.0456-13.275z" clip-path="url(#8b0ed112990)" fill="#fa74a6"/><path d="m329.22 591.28 3.0456-13.275h12.183l3.0456 13.275-3.0456 13.275h-12.183l-3.0456-13.275z" clip-path="url(#8b0ed112990)" fill="#fa74a6"/><path d="m347.5 591.28 3.0456-13.275h12.183l3.0456 13.275-3.0456 13.275h-12.183l-3.0456-13.275z" clip-path="url(#8b0ed112990)" fill="#fa74a6"/><path d="m365.77 591.28 3.0456-13.275h12.183l3.0456 13.275-3.0456 13.275h-12.183l-3.0456-13.275z" clip-path="url(#8b0ed112990)" fill="#fa74a6"/><path d="m384.04 538.18 3.0456-3.4357 3.0456-3.2016 3.0456-2.7493 3.0456-2.1096 3.0456-1.3261 3.0456-0.45232h15.228l3.0456 0.45232 3.0456 1.3261 3.0456 2.1096 3.0456 2.7493 3.0456 3.2016 3.0456 3.4357-3.0456 3.4357-3.0456 3.2016-3.0456 2.7493-3.0456 2.1096-3.0456 1.3261-3.0456 0.45232h-15.228l-3.0456-0.45232-3.0456-1.3261-3.0456-2.1096-3.0456-2.7493-3.0456-3.2016-3.0456-3.4357z" clip-path="url(#8b0ed112990)" fill="#6fa4ff"/><path d="m384.04 591.28 3.0456-3.4357 3.0456-3.2016 3.0456-2.7493 3.0456-2.1096 3.0456-1.3261 3.0456-0.45232h15.228l3.0456 0.45232 3.0456 1.3261 3.0456 2.1096 3.0456 2.7493 3.0456 3.2016 3.0456 3.4357-3.0456 3.4357-3.0456 3.2016-3.0456 2.7493-3.0456 2.1096-3.0456 1.3261-3.0456 0.45232h-15.228l-3.0456-0.45232-3.0456-1.3261-3.0456-2.1096-3.0456-2.7493-3.0456-3.2016-3.0456-3.4357z" clip-path="url(#8b0ed112990)" fill="#6fa4ff"/><path d="m487.59 538.18 3.0456-13.275h12.183l3.0456 13.275-3.0456 13.275h-12.183l-3.0456-13.275z" clip-path="url(#8b0ed112990)" fill="#05bab6"/><path d="m609.42 538.18 3.0456-13.275h12.183l3.0456 13.275-3.0456 13.275h-12.183l-3.0456-13.275z" clip-path="url(#8b0ed112990)" fill="#05bab6"/><path d="m734.29 538.18 3.0456-13.275h12.183l3.0456 13.275-3.0456 13.275h-12.183l-3.0456-13.275z" clip-path="url(#8b0ed112990)" fill="#05bab6"/><path d="m856.12 538.18 3.0456-13.275h12.183l3.0456 13.275-3.0456 13.275h-12.183l-3.0456-13.275z" clip-path="url(#8b0ed112990)" fill="#05bab6"/><path d="m926.17 538.18 3.0456-13.275h12.183l3.0456 13.275-3.0456 13.275h-12.183l-3.0456-13.275z" clip-path="url(#8b0ed112990)" fill="#fa74a6"/><path d="m944.44 538.18 3.0456-13.275h12.183l3.0456 13.275-3.0456 13.275h-12.183l-3.0456-13.275z" clip-path="url(#8b0ed112990)" fill="#fa74a6"/><path d="m435.82 591.28 3.0456-13.275h12.183l3.0456 13.275-3.0456 13.275h-12.183l-3.0456-13.275z" clip-path="url(#8b0ed112990)" fill="#fa74a6"/><path d="m399.27 644.38 3.0456-13.275h12.183l3.0456 13.275-3.0456 13.275h-12.183l-3.0456-13.275z" clip-path="url(#8b0ed112990)" fill="#fa74a6"/><path d="m417.55 644.38 3.0456-13.275h12.183l3.0456 13.275-3.0456 13.275h-12.183l-3.0456-13.275z" clip-path="url(#8b0ed112990)" fill="#fa74a6"/><path d="m435.82 644.38 3.0456-13.275h12.183l3.0456 13.275-3.0456 13.275h-12.183l-3.0456-13.275z" clip-path="url(#8b0ed112990)" fill="#fa74a6"/><path d="m454.09 591.28 3.0456-3.4357 3.0456-3.2016 3.0456-2.7493 3.0456-2.1096 3.0456-1.3261 3.0456-0.45232h15.228l3.0456 0.45232 3.0456 1.3261 3.0456 2.1096 3.0456 2.7493 3.0456 3.2016 3.0456 3.4357-3.0456 3.4357-3.0456 3.2016-3.0456 2.7493-3.0456 2.1096-3.0456 1.3261-3.0456 0.45232h-15.228l-3.0456-0.45232-3.0456-1.3261-3.0456-2.1096-3.0456-2.7493-3.0456-3.2016-3.0456-3.4357z" clip-path="url(#8b0ed112990)" fill="#6fa4ff"/><path d="m454.09 644.38 3.0456-3.4357 3.0456-3.2016 3.0456-2.7493 3.0456-2.1096 3.0456-1.3261 3.0456-0.45232h15.228l3.0456 0.45232 3.0456 1.3261 3.0456 2.1096 3.0456 2.7493 3.0456 3.2016 3.0456 3.4357-3.0456 3.4357-3.0456 3.2016-3.0456 2.7493-3.0456 2.1096-3.0456 1.3261-3.0456 0.45232h-15.228l-3.0456-0.45232-3.0456-1.3261-3.0456-2.1096-3.0456-2.7493-3.0456-3.2016-3.0456-3.4357z" clip-path="url(#8b0ed112990)" fill="#6fa4ff"/><path d="m548.51 591.28 3.0456-13.275h12.183l3.0456 13.275-3.0456 13.275h-12.183l-3.0456-13.275z" clip-path="url(#8b0ed112990)" fill="#05bab6"/><path d="m652.06 591.28 3.0456-13.275h12.183l3.0456 13.275-3.0456 13.275h-12.183l-3.0456-13.275z" clip-path="url(#8b0ed112990)" fill="#05bab6"/><path d="m761.7 591.28 3.0456-13.275h12.183l3.0456 13.275-3.0456 13.275h-12.183l-3.0456-13.275z" clip-path="url(#8b0ed112990)" fill="#05bab6"/><path d="m865.25 591.28 3.0456-13.275h12.183l3.0456 13.275-3.0456 13.275h-12.183l-3.0456-13.275z" clip-path="url(#8b0ed112990)" fill="#05bab6"/><path d="m926.17 591.28 3.0456-13.275h12.183l3.0456 13.275-3.0456 13.275h-12.183l-3.0456-13.275z" clip-path="url(#8b0ed112990)" fill="#fa74a6"/><path d="m944.44 591.28 3.0456-13.275h12.183l3.0456 13.275-3.0456 13.275h-12.183l-3.0456-13.275z" clip-path="url(#8b0ed112990)" fill="#fa74a6"/><path d="m505.87 644.38 3.0456-13.275h12.183l3.0456 13.275-3.0456 13.275h-12.183l-3.0456-13.275z" clip-path="url(#8b0ed112990)" fill="#fa74a6"/><path d="m524.14 644.38 3.0456-3.4357 3.0456-3.2016 3.0456-2.7493 3.0456-2.1096 3.0456-1.3261 3.0456-0.45232h15.228l3.0456 0.45232 3.0456 1.3261 3.0456 2.1096 3.0456 2.7493 3.0456 3.2016 3.0456 3.4357-3.0456 3.4357-3.0456 3.2016-3.0456 2.7493-3.0456 2.1096-3.0456 1.3261-3.0456 0.45232h-15.228l-3.0456-0.45232-3.0456-1.3261-3.0456-2.1096-3.0456-2.7493-3.0456-3.2016-3.0456-3.4357z" clip-path="url(#8b0ed112990)" fill="#6fa4ff"/><path d="m524.14 378.89 3.0456-3.4357 3.0456-3.2016 3.0456-2.7493 3.0456-2.1096 3.0456-1.3261 3.0456-0.45232h15.228l3.0456 0.45232 3.0456 1.3261 3.0456 2.1096 3.0456 2.7493 3.0456 3.2016 3.0456 3.4357-3.0456 3.4357-3.0456 3.2016-3.0456 2.7493-3.0456 2.1096-3.0456 1.3261-3.0456 0.45232h-15.228l-3.0456-0.45232-3.0456-1.3261-3.0456-2.1096-3.0456-2.7493-3.0456-3.2016-3.0456-3.4357z" clip-path="url(#8b0ed112990)" fill="#6fa4ff"/><path d="m575.92 378.89 3.0456-13.275h12.183l3.0456 13.275-3.0456 13.275h-12.183l-3.0456-13.275z" clip-path="url(#8b0ed112990)" fill="#fa74a6"/><path d="m594.19 378.89 3.0456-3.4357 3.0456-3.2016 3.0456-2.7493 3.0456-2.1096 3.0456-1.3261 3.0456-0.45232h15.228l3.0456 0.45232 3.0456 1.3261 3.0456 2.1096 3.0456 2.7493 3.0456 3.2016 3.0456 3.4357-3.0456 3.4357-3.0456 3.2016-3.0456 2.7493-3.0456 2.1096-3.0456 1.3261-3.0456 0.45232h-15.228l-3.0456-0.45232-3.0456-1.3261-3.0456-2.1096-3.0456-2.7493-3.0456-3.2016-3.0456-3.4357z" clip-path="url(#8b0ed112990)" fill="#6fa4ff"/><path d="m594.19 272.69 3.0456-3.4357 3.0456-3.2016 3.0456-2.7493 3.0456-2.1096 3.0456-1.3261 3.0456-0.45232h15.228l3.0456 0.45232 3.0456 1.3261 3.0456 2.1096 3.0456 2.7493 3.0456 3.2016 3.0456 3.4357-3.0456 3.4357-3.0456 3.2016-3.0456 2.7493-3.0456 2.1096-3.0456 1.3261-3.0456 0.45232h-15.228l-3.0456-0.45232-3.0456-1.3261-3.0456-2.1096-3.0456-2.7493-3.0456-3.2016-3.0456-3.4357z" clip-path="url(#8b0ed112990)" fill="#6fa4ff"/><path d="m645.97 272.69 3.0456-13.275h12.183l3.0456 13.275-3.0456 13.275h-12.183l-3.0456-13.275z" clip-path="url(#8b0ed112990)" fill="#fa74a6"/><path d="m664.24 272.69 3.0456-3.4357 3.0456-3.2016 3.0456-2.7493 3.0456-2.1096 3.0456-1.3261 3.0456-0.45232h15.228l3.0456 0.45232 3.0456 1.3261 3.0456 2.1096 3.0456 2.7493 3.0456 3.2016 3.0456 3.4357-3.0456 3.4357-3.0456 3.2016-3.0456 2.7493-3.0456 2.1096-3.0456 1.3261-3.0456 0.45232h-15.228l-3.0456-0.45232-3.0456-1.3261-3.0456-2.1096-3.0456-2.7493-3.0456-3.2016-3.0456-3.4357z" clip-path="url(#8b0ed112990)" fill="#6fa4ff"/><path d="m664.24 219.59 3.0456-3.4357 3.0456-3.2016 3.0456-2.7493 3.0456-2.1096 3.0456-1.3261 3.0456-0.45232h15.228l3.0456 0.45232 3.0456 1.3261 3.0456 2.1096 3.0456 2.7493 3.0456 3.2016 3.0456 3.4357-3.0456 3.4357-3.0456 3.2016-3.0456 2.7493-3.0456 2.1096-3.0456 1.3261-3.0456 0.45232h-15.228l-3.0456-0.45232-3.0456-1.3261-3.0456-2.1096-3.0456-2.7493-3.0456-3.2016-3.0456-3.4357z" clip-path="url(#8b0ed112990)" fill="#6fa4ff"/><path d="m716.02 219.59 3.0456-13.275h12.183l3.0456 13.275-3.0456 13.275h-12.183l-3.0456-13.275z" clip-path="url(#8b0ed112990)" fill="#fa74a6"/><path d="m734.29 219.59 3.0456-3.4357 3.0456-3.2016 3.0456-2.7493 3.0456-2.1096 3.0456-1.3261 3.0456-0.45232h15.228l3.0456 0.45232 3.0456 1.3261 3.0456 2.1096 3.0456 2.7493 3.0456 3.2016 3.0456 3.4357-3.0456 3.4357-3.0456 3.2016-3.0456 2.7493-3.0456 2.1096-3.0456 1.3261-3.0456 0.45232h-15.228l-3.0456-0.45232-3.0456-1.3261-3.0456-2.1096-3.0456-2.7493-3.0456-3.2016-3.0456-3.4357z" clip-path="url(#8b0ed112990)" fill="#6fa4ff"/><path d="m734.29 166.5 3.0456-3.4357 3.0456-3.2016 3.0456-2.7493 3.0456-2.1096 3.0456-1.3261 3.0456-0.45232h15.228l3.0456 0.45232 3.0456 1.3261 3.0456 2.1096 3.0456 2.7493 3.0456 3.2016 3.0456 3.4357-3.0456 3.4357-3.0456 3.2016-3.0456 2.7493-3.0456 2.1096-3.0456 1.3261-3.0456 0.45232h-15.228l-3.0456-0.45232-3.0456-1.3261-3.0456-2.1096-3.0456-2.7493-3.0456-3.2016-3.0456-3.4357z" clip-path="url(#8b0ed112990)" fill="#6fa4ff"/><path d="m786.07 166.5 3.0456-13.275h12.183l3.0456 13.275-3.0456 13.275h-12.183l-3.0456-13.275z" clip-path="url(#8b0ed112990)" fill="#fa74a6"/><path d="m804.34 166.5 3.0456-3.4357 3.0456-3.2016 3.0456-2.7493 3.0456-2.1096 3.0456-1.3261 3.0456-0.45232h15.228l3.0456 0.45232 3.0456 1.3261 3.0456 2.1096 3.0456 2.7493 3.0456 3.2016 3.0456 3.4357-3.0456 3.4357-3.0456 3.2016-3.0456 2.7493-3.0456 2.1096-3.0456 1.3261-3.0456 0.45232h-15.228l-3.0456-0.45232-3.0456-1.3261-3.0456-2.1096-3.0456-2.7493-3.0456-3.2016-3.0456-3.4357z" clip-path="url(#8b0ed112990)" fill="#6fa4ff"/><path d="m804.34 113.4 3.0456-3.4357 3.0456-3.2016 3.0456-2.7493 3.0456-2.1096 3.0456-1.3261 3.0456-0.45232h15.228l3.0456 0.45232 3.0456 1.3261 3.0456 2.1096 3.0456 2.7493 3.0456 3.2016 3.0456 3.4357-3.0456 3.4357-3.0456 3.2016-3.0456 2.7493-3.0456 2.1096-3.0456 1.3261-3.0456 0.45232h-15.228l-3.0456-0.45232-3.0456-1.3261-3.0456-2.1096-3.0456-2.7493-3.0456-3.2016-3.0456-3.4357z" clip-path="url(#8b0ed112990)" fill="#6fa4ff"/><path d="m856.12 113.4 3.0456-13.275h12.183l3.0456 13.275-3.0456 13.275h-12.183l-3.0456-13.275z" clip-path="url(#8b0ed112990)" fill="#fa74a6"/><path d="m874.39 113.4 3.0456-3.4357 3.0456-3.2016 3.0456-2.7493 3.0456-2.1096 3.0456-1.3261 3.0456-0.45232h15.228l3.0456 0.45232 3.0456 1.3261 3.0456 2.1096 3.0456 2.7493 3.0456 3.2016 3.0456 3.4357-3.0456 3.4357-3.0456 3.2016-3.0456 2.7493-3.0456 2.1096-3.0456 1.3261-3.0456 0.45232h-15.228l-3.0456-0.45232-3.0456-1.3261-3.0456-2.1096-3.0456-2.7493-3.0456-3.2016-3.0456-3.4357z" clip-path="url(#8b0ed112990)" fill="#6fa4ff"/><path d="m874.39 60.298 3.0456-3.4357 3.0456-3.2016 3.0456-2.7493 3.0456-2.1096 3.0456-1.3261 3.0456-0.45232h15.228l3.0456 0.45232 3.0456 1.3261 3.0456 2.1096 3.0456 2.7493 3.0456 3.2016 3.0456 3.4357-3.0456 3.4357-3.0456 3.2016-3.0456 2.7493-3.0456 2.1096-3.0456 1.3261-3.0456 0.45232h-15.228l-3.0456-0.45232-3.0456-1.3261-3.0456-2.1096-3.0456-2.7493-3.0456-3.2016-3.0456-3.4357z" clip-path="url(#8b0ed112990)" fill="#6fa4ff"/><path d="m926.17 60.298 3.0456-13.275h12.183l3.0456 13.275-3.0456 13.275h-12.183l-3.0456-13.275z" clip-path="url(#8b0ed112990)" fill="#fa74a6"/><path d="m944.44 60.298 3.0456-13.275h12.183l3.0456 13.275-3.0456 13.275h-12.183l-3.0456-13.275z" clip-path="url(#8b0ed112990)" fill="#fa74a6"/><path d="m926.17 113.4 3.0456-13.275h12.183l3.0456 13.275-3.0456 13.275h-12.183l-3.0456-13.275z" clip-path="url(#8b0ed112990)" fill="#fa74a6"/><path d="m944.44 113.4 3.0456-13.275h12.183l3.0456 13.275-3.0456 13.275h-12.183l-3.0456-13.275z" clip-path="url(#8b0ed112990)" fill="#fa74a6"/><path d="m926.17 166.5 3.0456-13.275h12.183l3.0456 13.275-3.0456 13.275h-12.183l-3.0456-13.275z" clip-path="url(#8b0ed112990)" fill="#fa74a6"/><path d="m944.44 166.5 3.0456-13.275h12.183l3.0456 13.275-3.0456 13.275h-12.183l-3.0456-13.275z" clip-path="url(#8b0ed112990)" fill="#fa74a6"/><path d="m792.16 219.59 3.0456-13.275h12.183l3.0456 13.275-3.0456 13.275h-12.183l-3.0456-13.275z" clip-path="url(#8b0ed112990)" fill="#05bab6"/><path d="m825.66 219.59 3.0456-13.275h12.183l3.0456 13.275-3.0456 13.275h-12.183l-3.0456-13.275z" clip-path="url(#8b0ed112990)" fill="#05bab6"/><path d="m868.3 219.59 3.0456-13.275h12.183l3.0456 13.275-3.0456 13.275h-12.183l-3.0456-13.275z" clip-path="url(#8b0ed112990)" fill="#05bab6"/><path d="m901.8 219.59 3.0456-13.275h12.183l3.0456 13.275-3.0456 13.275h-12.183l-3.0456-13.275z" clip-path="url(#8b0ed112990)" fill="#05bab6"/><path d="m926.17 219.59 3.0456-13.275h12.183l3.0456 13.275-3.0456 13.275h-12.183l-3.0456-13.275z" clip-path="url(#8b0ed112990)" fill="#fa74a6"/><path d="m944.44 219.59 3.0456-13.275h12.183l3.0456 13.275-3.0456 13.275h-12.183l-3.0456-13.275z" clip-path="url(#8b0ed112990)" fill="#fa74a6"/><path d="m731.25 272.69 3.0456-13.275h12.183l3.0456 13.275-3.0456 13.275h-12.183l-3.0456-13.275z" clip-path="url(#8b0ed112990)" fill="#05bab6"/><path d="m783.02 272.69 3.0456-13.275h12.183l3.0456 13.275-3.0456 13.275h-12.183l-3.0456-13.275z" clip-path="url(#8b0ed112990)" fill="#05bab6"/><path d="m840.89 272.69 3.0456-13.275h12.183l3.0456 13.275-3.0456 13.275h-12.183l-3.0456-13.275z" clip-path="url(#8b0ed112990)" fill="#05bab6"/><path d="m892.66 272.69 3.0456-13.275h12.183l3.0456 13.275-3.0456 13.275h-12.183l-3.0456-13.275z" clip-path="url(#8b0ed112990)" fill="#05bab6"/><path d="m926.17 272.69 3.0456-13.275h12.183l3.0456 13.275-3.0456 13.275h-12.183l-3.0456-13.275z" clip-path="url(#8b0ed112990)" fill="#fa74a6"/><path d="m944.44 272.69 3.0456-13.275h12.183l3.0456 13.275-3.0456 13.275h-12.183l-3.0456-13.275z" clip-path="url(#8b0ed112990)" fill="#fa74a6"/><path d="m670.33 378.89 3.0456-13.275h12.183l3.0456 13.275-3.0456 13.275h-12.183l-3.0456-13.275z" clip-path="url(#8b0ed112990)" fill="#05bab6"/><path d="m740.38 378.89 3.0456-13.275h12.183l3.0456 13.275-3.0456 13.275h-12.183l-3.0456-13.275z" clip-path="url(#8b0ed112990)" fill="#05bab6"/><path d="m813.48 378.89 3.0456-13.275h12.183l3.0456 13.275-3.0456 13.275h-12.183l-3.0456-13.275z" clip-path="url(#8b0ed112990)" fill="#05bab6"/><path d="m883.53 378.89 3.0456-13.275h12.183l3.0456 13.275-3.0456 13.275h-12.183l-3.0456-13.275z" clip-path="url(#8b0ed112990)" fill="#05bab6"/><path d="m926.17 378.89 3.0456-13.275h12.183l3.0456 13.275-3.0456 13.275h-12.183l-3.0456-13.275z" clip-path="url(#8b0ed112990)" fill="#fa74a6"/><path d="m944.44 378.89 3.0456-13.275h12.183l3.0456 13.275-3.0456 13.275h-12.183l-3.0456-13.275z" clip-path="url(#8b0ed112990)" fill="#fa74a6"/><path d="m609.42 644.38 3.0456-13.275h12.183l3.0456 13.275-3.0456 13.275h-12.183l-3.0456-13.275z" clip-path="url(#8b0ed112990)" fill="#05bab6"/><path d="m694.7 644.38 3.0456-13.275h12.183l3.0456 13.275-3.0456 13.275h-12.183l-3.0456-13.275z" clip-path="url(#8b0ed112990)" fill="#05bab6"/><path d="m789.11 644.38 3.0456-13.275h12.183l3.0456 13.275-3.0456 13.275h-12.183l-3.0456-13.275z" clip-path="url(#8b0ed112990)" fill="#05bab6"/><path d="m874.39 644.38 3.0456-13.275h12.183l3.0456 13.275-3.0456 13.275h-12.183l-3.0456-13.275z" clip-path="url(#8b0ed112990)" fill="#05bab6"/><path d="m926.17 644.38 3.0456-13.275h12.183l3.0456 13.275-3.0456 13.275h-12.183l-3.0456-13.275z" clip-path="url(#8b0ed112990)" fill="#fa74a6"/><path d="m944.44 644.38 3.0456-13.275h12.183l3.0456 13.275-3.0456 13.275h-12.183l-3.0456-13.275z" clip-path="url(#8b0ed112990)" fill="#fa74a6"/><g transform="translate(74.501 65.265) scale(.18 -.18)"><defs><path id="DejaVuSans-21ba" transform="scale(.015625)" d="m1606 3334q-212-206-312-459-103-253-103-544 0-281 103-534t309-459q188-185 456-307 232-103 528-103 297 0 541 103 256 110 456 307 207 206 310 459t103 534q0 291-103 544-106 253-313 459l-109 110v-1031h-531v1737l200 200h1737v-531h-1031l109-110q282-281 428-631 144-350 144-747 0-387-144-737-150-353-428-631-262-260-625-422-322-144-737-144-400 0-738 144-350 150-625 422-278 278-428 631-144 350-144 737 0 397 144 747 141 335 428 631l375-375z"/></defs><use transform="translate(19.482 .03125)" xlink:href="#DejaVuSans-21ba"/></g><g transform="translate(92.775 65.265) scale(.18 -.18)"><use transform="translate(19.482 .03125)" xlink:href="#DejaVuSans-21ba"/></g><g transform="translate(756.72 118.36) scale(.18 -.18)"><use transform="translate(19.482 .03125)" xlink:href="#DejaVuSans-21ba"/></g><g transform="translate(775 118.36) scale(.18 -.18)"><use transform="translate(19.482 .03125)" xlink:href="#DejaVuSans-21ba"/></g><g transform="translate(793.27 118.36) scale(.18 -.18)"><use transform="translate(19.482 .03125)" xlink:href="#DejaVuSans-21ba"/></g><g transform="translate(686.67 171.46) scale(.18 -.18)"><use transform="translate(19.482 .03125)" xlink:href="#DejaVuSans-21ba"/></g><g transform="translate(704.95 171.46) scale(.18 -.18)"><use transform="translate(19.482 .03125)" xlink:href="#DejaVuSans-21ba"/></g><g transform="translate(723.22 171.46) scale(.18 -.18)"><use transform="translate(19.482 .03125)" xlink:href="#DejaVuSans-21ba"/></g><g transform="translate(616.62 224.56) scale(.18 -.18)"><use transform="translate(19.482 .03125)" xlink:href="#DejaVuSans-21ba"/></g><g transform="translate(634.9 224.56) scale(.18 -.18)"><use transform="translate(19.482 .03125)" xlink:href="#DejaVuSans-21ba"/></g><g transform="translate(653.17 224.56) scale(.18 -.18)"><use transform="translate(19.482 .03125)" xlink:href="#DejaVuSans-21ba"/></g><g transform="translate(546.57 277.66) scale(.18 -.18)"><use transform="translate(19.482 .03125)" xlink:href="#DejaVuSans-21ba"/></g><g transform="translate(564.85 277.66) scale(.18 -.18)"><use transform="translate(19.482 .03125)" xlink:href="#DejaVuSans-21ba"/></g><g transform="translate(583.12 277.66) scale(.18 -.18)"><use transform="translate(19.482 .03125)" xlink:href="#DejaVuSans-21ba"/></g><g transform="translate(56.228 330.76) scale(.18 -.18)"><use transform="translate(19.482 .03125)" xlink:href="#DejaVuSans-21ba"/></g><g transform="translate(74.501 330.76) scale(.18 -.18)"><use transform="translate(19.482 .03125)" xlink:href="#DejaVuSans-21ba"/></g><g transform="translate(92.775 330.76) scale(.18 -.18)"><use transform="translate(19.482 .03125)" xlink:href="#DejaVuSans-21ba"/></g><g transform="translate(845.05 65.265) scale(.18 -.18)"><use transform="translate(19.482 .03125)" xlink:href="#DejaVuSans-21ba"/></g><g transform="translate(863.32 65.265) scale(.18 -.18)"><use transform="translate(19.482 .03125)" xlink:href="#DejaVuSans-21ba"/></g><g transform="translate(144.55 330.76) scale(.18 -.18)"><use transform="translate(19.482 .03125)" xlink:href="#DejaVuSans-21ba"/></g><g transform="translate(162.82 330.76) scale(.18 -.18)"><use transform="translate(19.482 .03125)" xlink:href="#DejaVuSans-21ba"/></g><g transform="translate(476.52 383.86) scale(.18 -.18)"><use transform="translate(19.482 .03125)" xlink:href="#DejaVuSans-21ba"/></g><g transform="translate(494.8 383.86) scale(.18 -.18)"><use transform="translate(19.482 .03125)" xlink:href="#DejaVuSans-21ba"/></g><g transform="translate(513.07 383.86) scale(.18 -.18)"><use transform="translate(19.482 .03125)" xlink:href="#DejaVuSans-21ba"/></g><g transform="translate(126.28 436.95) scale(.18 -.18)"><use transform="translate(19.482 .03125)" xlink:href="#DejaVuSans-21ba"/></g><g transform="translate(144.55 436.95) scale(.18 -.18)"><use transform="translate(19.482 .03125)" xlink:href="#DejaVuSans-21ba"/></g><g transform="translate(162.82 436.95) scale(.18 -.18)"><use transform="translate(19.482 .03125)" xlink:href="#DejaVuSans-21ba"/></g><g transform="translate(933.37 330.76) scale(.18 -.18)"><use transform="translate(19.482 .03125)" xlink:href="#DejaVuSans-21ba"/></g><g transform="translate(951.64 330.76) scale(.18 -.18)"><use transform="translate(19.482 .03125)" xlink:href="#DejaVuSans-21ba"/></g><g transform="translate(214.6 436.95) scale(.18 -.18)"><use transform="translate(19.482 .03125)" xlink:href="#DejaVuSans-21ba"/></g><g transform="translate(232.87 436.95) scale(.18 -.18)"><use transform="translate(19.482 .03125)" xlink:href="#DejaVuSans-21ba"/></g><g transform="translate(196.33 490.05) scale(.18 -.18)"><use transform="translate(19.482 .03125)" xlink:href="#DejaVuSans-21ba"/></g><g transform="translate(214.6 490.05) scale(.18 -.18)"><use transform="translate(19.482 .03125)" xlink:href="#DejaVuSans-21ba"/></g><g transform="translate(232.87 490.05) scale(.18 -.18)"><use transform="translate(19.482 .03125)" xlink:href="#DejaVuSans-21ba"/></g><g transform="translate(933.37 436.95) scale(.18 -.18)"><use transform="translate(19.482 .03125)" xlink:href="#DejaVuSans-21ba"/></g><g transform="translate(951.64 436.95) scale(.18 -.18)"><use transform="translate(19.482 .03125)" xlink:href="#DejaVuSans-21ba"/></g><g transform="translate(284.65 490.05) scale(.18 -.18)"><use transform="translate(19.482 .03125)" xlink:href="#DejaVuSans-21ba"/></g><g transform="translate(302.92 490.05) scale(.18 -.18)"><use transform="translate(19.482 .03125)" xlink:href="#DejaVuSans-21ba"/></g><g transform="translate(266.38 543.15) scale(.18 -.18)"><use transform="translate(19.482 .03125)" xlink:href="#DejaVuSans-21ba"/></g><g transform="translate(284.65 543.15) scale(.18 -.18)"><use transform="translate(19.482 .03125)" xlink:href="#DejaVuSans-21ba"/></g><g transform="translate(302.92 543.15) scale(.18 -.18)"><use transform="translate(19.482 .03125)" xlink:href="#DejaVuSans-21ba"/></g><g transform="translate(933.37 490.05) scale(.18 -.18)"><use transform="translate(19.482 .03125)" xlink:href="#DejaVuSans-21ba"/></g><g transform="translate(951.64 490.05) scale(.18 -.18)"><use transform="translate(19.482 .03125)" xlink:href="#DejaVuSans-21ba"/></g><g transform="translate(354.7 543.15) scale(.18 -.18)"><use transform="translate(19.482 .03125)" xlink:href="#DejaVuSans-21ba"/></g><g transform="translate(372.97 543.15) scale(.18 -.18)"><use transform="translate(19.482 .03125)" xlink:href="#DejaVuSans-21ba"/></g><g transform="translate(336.43 596.25) scale(.18 -.18)"><use transform="translate(19.482 .03125)" xlink:href="#DejaVuSans-21ba"/></g><g transform="translate(354.7 596.25) scale(.18 -.18)"><use transform="translate(19.482 .03125)" xlink:href="#DejaVuSans-21ba"/></g><g transform="translate(372.97 596.25) scale(.18 -.18)"><use transform="translate(19.482 .03125)" xlink:href="#DejaVuSans-21ba"/></g><g transform="translate(933.37 543.15) scale(.18 -.18)"><use transform="translate(19.482 .03125)" xlink:href="#DejaVuSans-21ba"/></g><g transform="translate(951.64 543.15) scale(.18 -.18)"><use transform="translate(19.482 .03125)" xlink:href="#DejaVuSans-21ba"/></g><g transform="translate(424.75 596.25) scale(.18 -.18)"><use transform="translate(19.482 .03125)" xlink:href="#DejaVuSans-21ba"/></g><g transform="translate(443.02 596.25) scale(.18 -.18)"><use transform="translate(19.482 .03125)" xlink:href="#DejaVuSans-21ba"/></g><g transform="translate(406.48 649.35) scale(.18 -.18)"><use transform="translate(19.482 .03125)" xlink:href="#DejaVuSans-21ba"/></g><g transform="translate(424.75 649.35) scale(.18 -.18)"><use transform="translate(19.482 .03125)" xlink:href="#DejaVuSans-21ba"/></g><g transform="translate(443.02 649.35) scale(.18 -.18)"><use transform="translate(19.482 .03125)" xlink:href="#DejaVuSans-21ba"/></g><g transform="translate(933.37 596.25) scale(.18 -.18)"><use transform="translate(19.482 .03125)" xlink:href="#DejaVuSans-21ba"/></g><g transform="translate(951.64 596.25) scale(.18 -.18)"><use transform="translate(19.482 .03125)" xlink:href="#DejaVuSans-21ba"/></g><g transform="translate(494.8 649.35) scale(.18 -.18)"><use transform="translate(19.482 .03125)" xlink:href="#DejaVuSans-21ba"/></g><g transform="translate(513.07 649.35) scale(.18 -.18)"><use transform="translate(19.482 .03125)" xlink:href="#DejaVuSans-21ba"/></g><g transform="translate(564.85 383.86) scale(.18 -.18)"><use transform="translate(19.482 .03125)" xlink:href="#DejaVuSans-21ba"/></g><g transform="translate(583.12 383.86) scale(.18 -.18)"><use transform="translate(19.482 .03125)" xlink:href="#DejaVuSans-21ba"/></g><g transform="translate(634.9 277.66) scale(.18 -.18)"><use transform="translate(19.482 .03125)" xlink:href="#DejaVuSans-21ba"/></g><g transform="translate(653.17 277.66) scale(.18 -.18)"><use transform="translate(19.482 .03125)" xlink:href="#DejaVuSans-21ba"/></g><g transform="translate(704.95 224.56) scale(.18 -.18)"><use transform="translate(19.482 .03125)" xlink:href="#DejaVuSans-21ba"/></g><g transform="translate(723.22 224.56) scale(.18 -.18)"><use transform="translate(19.482 .03125)" xlink:href="#DejaVuSans-21ba"/></g><g transform="translate(775 171.46) scale(.18 -.18)"><use transform="translate(19.482 .03125)" xlink:href="#DejaVuSans-21ba"/></g><g transform="translate(793.27 171.46) scale(.18 -.18)"><use transform="translate(19.482 .03125)" xlink:href="#DejaVuSans-21ba"/></g><g transform="translate(845.05 118.36) scale(.18 -.18)"><use transform="translate(19.482 .03125)" xlink:href="#DejaVuSans-21ba"/></g><g transform="translate(863.32 118.36) scale(.18 -.18)"><use transform="translate(19.482 .03125)" xlink:href="#DejaVuSans-21ba"/></g><g transform="translate(915.1 65.265) scale(.18 -.18)"><use transform="translate(19.482 .03125)" xlink:href="#DejaVuSans-21ba"/></g><g transform="translate(933.37 65.265) scale(.18 -.18)"><use transform="translate(19.482 .03125)" xlink:href="#DejaVuSans-21ba"/></g><g transform="translate(951.64 65.265) scale(.18 -.18)"><use transform="translate(19.482 .03125)" xlink:href="#DejaVuSans-21ba"/></g><g transform="translate(933.37 118.36) scale(.18 -.18)"><use transform="translate(19.482 .03125)" xlink:href="#DejaVuSans-21ba"/></g><g transform="translate(951.64 118.36) scale(.18 -.18)"><use transform="translate(19.482 .03125)" xlink:href="#DejaVuSans-21ba"/></g><g transform="translate(933.37 171.46) scale(.18 -.18)"><use transform="translate(19.482 .03125)" xlink:href="#DejaVuSans-21ba"/></g><g transform="translate(951.64 171.46) scale(.18 -.18)"><use transform="translate(19.482 .03125)" xlink:href="#DejaVuSans-21ba"/></g><g transform="translate(933.37 224.56) scale(.18 -.18)"><use transform="translate(19.482 .03125)" xlink:href="#DejaVuSans-21ba"/></g><g transform="translate(951.64 224.56) scale(.18 -.18)"><use transform="translate(19.482 .03125)" xlink:href="#DejaVuSans-21ba"/></g><g transform="translate(933.37 277.66) scale(.18 -.18)"><use transform="translate(19.482 .03125)" xlink:href="#DejaVuSans-21ba"/></g><g transform="translate(951.64 277.66) scale(.18 -.18)"><use transform="translate(19.482 .03125)" xlink:href="#DejaVuSans-21ba"/></g><g transform="translate(933.37 383.86) scale(.18 -.18)"><use transform="translate(19.482 .03125)" xlink:href="#DejaVuSans-21ba"/></g><g transform="translate(951.64 383.86) scale(.18 -.18)"><use transform="translate(19.482 .03125)" xlink:href="#DejaVuSans-21ba"/></g><g transform="translate(933.37 649.35) scale(.18 -.18)"><use transform="translate(19.482 .03125)" xlink:href="#DejaVuSans-21ba"/></g><g transform="translate(951.64 649.35) scale(.18 -.18)"><use transform="translate(19.482 .03125)" xlink:href="#DejaVuSans-21ba"/></g><g transform="translate(68.454 63.61) scale(.12 -.12)"><defs><path id="DejaVuSans-221a" transform="scale(.015625)" d="m3488 5191h590v-300h-359l-1856-5019h-207l-997 2759-390-140-78 250 884 306 800-2216 1613 4360z"/><path id="DejaVuSans-58" transform="scale(.015625)" d="m403 4666h678l1160-1735 1165 1735h678l-1500-2241 1600-2425h-678l-1312 1984-1322-1984h-681l1665 2491-1453 2175z"/></defs><use transform="translate(0 .89062)" xlink:href="#DejaVuSans-221a"/><use transform="translate(63.721 .89062)" xlink:href="#DejaVuSans-58"/></g><g transform="translate(78.971 44.528) scale(.12 -.12)"><defs><path id="DejaVuSans-52" transform="scale(.015625)" d="m2841 2188q203-69 395-294t386-619l641-1275h-679l-596 1197q-232 469-449 622t-592 153h-688v-1972h-631v4666h1425q800 0 1194-335 394-334 394-1009 0-441-205-732-205-290-595-402zm-1582 1959v-1656h794q456 0 689 211t233 620-233 617-689 208h-794z"/><path id="DejaVuSans-Oblique-7a" transform="scale(.015625)" d="m744 3500h2731l-103-525-2634-2516h2175l-91-459h-2841l103 525 2635 2516h-2066l91 459z"/></defs><use transform="translate(0 .09375)" xlink:href="#DejaVuSans-52"/><use transform="translate(70.439 -16.312) scale(.7)" xlink:href="#DejaVuSans-Oblique-7a"/></g><g transform="translate(86.728 63.61) scale(.12 -.12)"><use transform="translate(0 .89062)" xlink:href="#DejaVuSans-221a"/><use transform="translate(63.721 .89062)" xlink:href="#DejaVuSans-58"/></g><g transform="translate(97.245 44.528) scale(.12 -.12)"><use transform="translate(0 .09375)" xlink:href="#DejaVuSans-52"/><use transform="translate(70.439 -16.312) scale(.7)" xlink:href="#DejaVuSans-Oblique-7a"/></g><g transform="translate(750.68 116.71) scale(.12 -.12)"><use transform="translate(0 .89062)" xlink:href="#DejaVuSans-221a"/><use transform="translate(63.721 .89062)" xlink:href="#DejaVuSans-58"/></g><g transform="translate(761.19 97.627) scale(.12 -.12)"><use transform="translate(0 .09375)" xlink:href="#DejaVuSans-52"/><use transform="translate(70.439 -16.312) scale(.7)" xlink:href="#DejaVuSans-Oblique-7a"/></g><g transform="translate(768.95 116.71) scale(.12 -.12)"><use transform="translate(0 .89062)" xlink:href="#DejaVuSans-221a"/><use transform="translate(63.721 .89062)" xlink:href="#DejaVuSans-58"/></g><g transform="translate(779.47 97.627) scale(.12 -.12)"><use transform="translate(0 .09375)" xlink:href="#DejaVuSans-52"/><use transform="translate(70.439 -16.312) scale(.7)" xlink:href="#DejaVuSans-Oblique-7a"/></g><g transform="translate(787.22 116.71) scale(.12 -.12)"><use transform="translate(0 .89062)" xlink:href="#DejaVuSans-221a"/><use transform="translate(63.721 .89062)" xlink:href="#DejaVuSans-58"/></g><g transform="translate(797.74 97.627) scale(.12 -.12)"><use transform="translate(0 .09375)" xlink:href="#DejaVuSans-52"/><use transform="translate(70.439 -16.312) scale(.7)" xlink:href="#DejaVuSans-Oblique-7a"/></g><g transform="translate(680.63 169.81) scale(.12 -.12)"><use transform="translate(0 .89062)" xlink:href="#DejaVuSans-221a"/><use transform="translate(63.721 .89062)" xlink:href="#DejaVuSans-58"/></g><g transform="translate(691.14 150.73) scale(.12 -.12)"><use transform="translate(0 .09375)" xlink:href="#DejaVuSans-52"/><use transform="translate(70.439 -16.312) scale(.7)" xlink:href="#DejaVuSans-Oblique-7a"/></g><g transform="translate(698.9 169.81) scale(.12 -.12)"><use transform="translate(0 .89062)" xlink:href="#DejaVuSans-221a"/><use transform="translate(63.721 .89062)" xlink:href="#DejaVuSans-58"/></g><g transform="translate(709.42 150.73) scale(.12 -.12)"><use transform="translate(0 .09375)" xlink:href="#DejaVuSans-52"/><use transform="translate(70.439 -16.312) scale(.7)" xlink:href="#DejaVuSans-Oblique-7a"/></g><g transform="translate(717.17 169.81) scale(.12 -.12)"><use transform="translate(0 .89062)" xlink:href="#DejaVuSans-221a"/><use transform="translate(63.721 .89062)" xlink:href="#DejaVuSans-58"/></g><g transform="translate(727.69 150.73) scale(.12 -.12)"><use transform="translate(0 .09375)" xlink:href="#DejaVuSans-52"/><use transform="translate(70.439 -16.312) scale(.7)" xlink:href="#DejaVuSans-Oblique-7a"/></g><g transform="translate(610.58 222.91) scale(.12 -.12)"><use transform="translate(0 .89062)" xlink:href="#DejaVuSans-221a"/><use transform="translate(63.721 .89062)" xlink:href="#DejaVuSans-58"/></g><g transform="translate(621.09 203.82) scale(.12 -.12)"><use transform="translate(0 .09375)" xlink:href="#DejaVuSans-52"/><use transform="translate(70.439 -16.312) scale(.7)" xlink:href="#DejaVuSans-Oblique-7a"/></g><g transform="translate(628.85 222.91) scale(.12 -.12)"><use transform="translate(0 .89062)" xlink:href="#DejaVuSans-221a"/><use transform="translate(63.721 .89062)" xlink:href="#DejaVuSans-58"/></g><g transform="translate(639.37 203.82) scale(.12 -.12)"><use transform="translate(0 .09375)" xlink:href="#DejaVuSans-52"/><use transform="translate(70.439 -16.312) scale(.7)" xlink:href="#DejaVuSans-Oblique-7a"/></g><g transform="translate(647.12 222.91) scale(.12 -.12)"><use transform="translate(0 .89062)" xlink:href="#DejaVuSans-221a"/><use transform="translate(63.721 .89062)" xlink:href="#DejaVuSans-58"/></g><g transform="translate(657.64 203.82) scale(.12 -.12)"><use transform="translate(0 .09375)" xlink:href="#DejaVuSans-52"/><use transform="translate(70.439 -16.312) scale(.7)" xlink:href="#DejaVuSans-Oblique-7a"/></g><g transform="translate(540.53 276) scale(.12 -.12)"><use transform="translate(0 .89062)" xlink:href="#DejaVuSans-221a"/><use transform="translate(63.721 .89062)" xlink:href="#DejaVuSans-58"/></g><g transform="translate(551.04 256.92) scale(.12 -.12)"><use transform="translate(0 .09375)" xlink:href="#DejaVuSans-52"/><use transform="translate(70.439 -16.312) scale(.7)" xlink:href="#DejaVuSans-Oblique-7a"/></g><g transform="translate(558.8 276) scale(.12 -.12)"><use transform="translate(0 .89062)" xlink:href="#DejaVuSans-221a"/><use transform="translate(63.721 .89062)" xlink:href="#DejaVuSans-58"/></g><g transform="translate(569.32 256.92) scale(.12 -.12)"><use transform="translate(0 .09375)" xlink:href="#DejaVuSans-52"/><use transform="translate(70.439 -16.312) scale(.7)" xlink:href="#DejaVuSans-Oblique-7a"/></g><g transform="translate(577.07 276) scale(.12 -.12)"><use transform="translate(0 .89062)" xlink:href="#DejaVuSans-221a"/><use transform="translate(63.721 .89062)" xlink:href="#DejaVuSans-58"/></g><g transform="translate(587.59 256.92) scale(.12 -.12)"><use transform="translate(0 .09375)" xlink:href="#DejaVuSans-52"/><use transform="translate(70.439 -16.312) scale(.7)" xlink:href="#DejaVuSans-Oblique-7a"/></g><g transform="translate(50.181 329.1) scale(.12 -.12)"><use transform="translate(0 .89062)" xlink:href="#DejaVuSans-221a"/><use transform="translate(63.721 .89062)" xlink:href="#DejaVuSans-58"/></g><g transform="translate(60.698 310.02) scale(.12 -.12)"><use transform="translate(0 .09375)" xlink:href="#DejaVuSans-52"/><use transform="translate(70.439 -16.312) scale(.7)" xlink:href="#DejaVuSans-Oblique-7a"/></g><g transform="translate(68.454 329.1) scale(.12 -.12)"><use transform="translate(0 .89062)" xlink:href="#DejaVuSans-221a"/><use transform="translate(63.721 .89062)" xlink:href="#DejaVuSans-58"/></g><g transform="translate(78.971 310.02) scale(.12 -.12)"><use transform="translate(0 .09375)" xlink:href="#DejaVuSans-52"/><use transform="translate(70.439 -16.312) scale(.7)" xlink:href="#DejaVuSans-Oblique-7a"/></g><g transform="translate(86.728 329.1) scale(.12 -.12)"><use transform="translate(0 .89062)" xlink:href="#DejaVuSans-221a"/><use transform="translate(63.721 .89062)" xlink:href="#DejaVuSans-58"/></g><g transform="translate(97.245 310.02) scale(.12 -.12)"><use transform="translate(0 .09375)" xlink:href="#DejaVuSans-52"/><use transform="translate(70.439 -16.312) scale(.7)" xlink:href="#DejaVuSans-Oblique-7a"/></g><g transform="translate(121.39 63.61) scale(.12 -.12)"><defs><path id="DejaVuSans-43" transform="scale(.015625)" d="m4122 4306v-665q-319 297-680 443-361 147-767 147-800 0-1225-489t-425-1414q0-922 425-1411t1225-489q406 0 767 147t680 444v-660q-331-225-702-338-370-112-782-112-1060 0-1670 648-609 649-609 1771 0 1125 609 1773 610 649 1670 649 418 0 788-111 371-111 696-333z"/><path id="DejaVuSans-5a" transform="scale(.015625)" d="m359 4666h3666v-482l-2950-3653h3022v-531h-3809v481l2950 3653h-2879v532z"/></defs><use transform="translate(0 .78125)" xlink:href="#DejaVuSans-43"/><use transform="translate(69.824 .78125)" xlink:href="#DejaVuSans-5a"/></g><g transform="translate(121.39 329.1) scale(.12 -.12)"><use transform="translate(0 .78125)" xlink:href="#DejaVuSans-43"/><use transform="translate(69.824 .78125)" xlink:href="#DejaVuSans-5a"/></g><g transform="translate(236.76 63.61) scale(.12 -.12)"><use transform="translate(0 .09375)" xlink:href="#DejaVuSans-58"/></g><g transform="translate(410.78 63.61) scale(.12 -.12)"><defs><path id="DejaVuSans-59" transform="scale(.015625)" d="m-13 4666h679l1293-1919 1285 1919h678l-1650-2444v-2222h-634v2222l-1651 2444z"/></defs><use transform="translate(0 .09375)" xlink:href="#DejaVuSans-59"/></g><g transform="translate(593.1 63.61) scale(.12 -.12)"><use transform="translate(0 .09375)" xlink:href="#DejaVuSans-58"/></g><g transform="translate(767.12 63.61) scale(.12 -.12)"><use transform="translate(0 .09375)" xlink:href="#DejaVuSans-59"/></g><g transform="translate(849.52 44.528) scale(.12 -.12)"><use transform="translate(0 .09375)" xlink:href="#DejaVuSans-52"/><use transform="translate(70.439 -16.312) scale(.7)" xlink:href="#DejaVuSans-Oblique-7a"/></g><g transform="translate(857.27 63.61) scale(.12 -.12)"><use transform="translate(0 .89062)" xlink:href="#DejaVuSans-221a"/><use transform="translate(63.721 .89062)" xlink:href="#DejaVuSans-58"/></g><g transform="translate(867.79 44.528) scale(.12 -.12)"><use transform="translate(0 .09375)" xlink:href="#DejaVuSans-52"/><use transform="translate(70.439 -16.312) scale(.7)" xlink:href="#DejaVuSans-Oblique-7a"/></g><g transform="translate(149.02 310.02) scale(.12 -.12)"><use transform="translate(0 .09375)" xlink:href="#DejaVuSans-52"/><use transform="translate(70.439 -16.312) scale(.7)" xlink:href="#DejaVuSans-Oblique-7a"/></g><g transform="translate(156.78 329.1) scale(.12 -.12)"><use transform="translate(0 .89062)" xlink:href="#DejaVuSans-221a"/><use transform="translate(63.721 .89062)" xlink:href="#DejaVuSans-58"/></g><g transform="translate(167.29 310.02) scale(.12 -.12)"><use transform="translate(0 .09375)" xlink:href="#DejaVuSans-52"/><use transform="translate(70.439 -16.312) scale(.7)" xlink:href="#DejaVuSans-Oblique-7a"/></g><g transform="translate(470.48 382.2) scale(.12 -.12)"><use transform="translate(0 .89062)" xlink:href="#DejaVuSans-221a"/><use transform="translate(63.721 .89062)" xlink:href="#DejaVuSans-58"/></g><g transform="translate(480.99 363.12) scale(.12 -.12)"><use transform="translate(0 .09375)" xlink:href="#DejaVuSans-52"/><use transform="translate(70.439 -16.312) scale(.7)" xlink:href="#DejaVuSans-Oblique-7a"/></g><g transform="translate(488.75 382.2) scale(.12 -.12)"><use transform="translate(0 .89062)" xlink:href="#DejaVuSans-221a"/><use transform="translate(63.721 .89062)" xlink:href="#DejaVuSans-58"/></g><g transform="translate(499.27 363.12) scale(.12 -.12)"><use transform="translate(0 .09375)" xlink:href="#DejaVuSans-52"/><use transform="translate(70.439 -16.312) scale(.7)" xlink:href="#DejaVuSans-Oblique-7a"/></g><g transform="translate(507.03 382.2) scale(.12 -.12)"><use transform="translate(0 .89062)" xlink:href="#DejaVuSans-221a"/><use transform="translate(63.721 .89062)" xlink:href="#DejaVuSans-58"/></g><g transform="translate(517.54 363.12) scale(.12 -.12)"><use transform="translate(0 .09375)" xlink:href="#DejaVuSans-52"/><use transform="translate(70.439 -16.312) scale(.7)" xlink:href="#DejaVuSans-Oblique-7a"/></g><g transform="translate(120.23 435.3) scale(.12 -.12)"><use transform="translate(0 .89062)" xlink:href="#DejaVuSans-221a"/><use transform="translate(63.721 .89062)" xlink:href="#DejaVuSans-58"/></g><g transform="translate(130.75 416.22) scale(.12 -.12)"><use transform="translate(0 .09375)" xlink:href="#DejaVuSans-52"/><use transform="translate(70.439 -16.312) scale(.7)" xlink:href="#DejaVuSans-Oblique-7a"/></g><g transform="translate(138.5 435.3) scale(.12 -.12)"><use transform="translate(0 .89062)" xlink:href="#DejaVuSans-221a"/><use transform="translate(63.721 .89062)" xlink:href="#DejaVuSans-58"/></g><g transform="translate(149.02 416.22) scale(.12 -.12)"><use transform="translate(0 .09375)" xlink:href="#DejaVuSans-52"/><use transform="translate(70.439 -16.312) scale(.7)" xlink:href="#DejaVuSans-Oblique-7a"/></g><g transform="translate(156.78 435.3) scale(.12 -.12)"><use transform="translate(0 .89062)" xlink:href="#DejaVuSans-221a"/><use transform="translate(63.721 .89062)" xlink:href="#DejaVuSans-58"/></g><g transform="translate(167.29 416.22) scale(.12 -.12)"><use transform="translate(0 .09375)" xlink:href="#DejaVuSans-52"/><use transform="translate(70.439 -16.312) scale(.7)" xlink:href="#DejaVuSans-Oblique-7a"/></g><g transform="translate(191.44 329.1) scale(.12 -.12)"><use transform="translate(0 .78125)" xlink:href="#DejaVuSans-43"/><use transform="translate(69.824 .78125)" xlink:href="#DejaVuSans-5a"/></g><g transform="translate(191.44 435.3) scale(.12 -.12)"><use transform="translate(0 .78125)" xlink:href="#DejaVuSans-43"/><use transform="translate(69.824 .78125)" xlink:href="#DejaVuSans-5a"/></g><g transform="translate(306.81 329.1) scale(.12 -.12)"><use transform="translate(0 .09375)" xlink:href="#DejaVuSans-58"/></g><g transform="translate(480.83 329.1) scale(.12 -.12)"><use transform="translate(0 .09375)" xlink:href="#DejaVuSans-59"/></g><g transform="translate(663.15 329.1) scale(.12 -.12)"><use transform="translate(0 .09375)" xlink:href="#DejaVuSans-58"/></g><g transform="translate(837.17 329.1) scale(.12 -.12)"><use transform="translate(0 .09375)" xlink:href="#DejaVuSans-59"/></g><g transform="translate(927.32 329.1) scale(.12 -.12)"><use transform="translate(0 .89062)" xlink:href="#DejaVuSans-221a"/><use transform="translate(63.721 .89062)" xlink:href="#DejaVuSans-58"/></g><g transform="translate(937.84 310.02) scale(.12 -.12)"><use transform="translate(0 .09375)" xlink:href="#DejaVuSans-52"/><use transform="translate(70.439 -16.312) scale(.7)" xlink:href="#DejaVuSans-Oblique-7a"/></g><g transform="translate(945.6 329.1) scale(.12 -.12)"><use transform="translate(0 .89062)" xlink:href="#DejaVuSans-221a"/><use transform="translate(63.721 .89062)" xlink:href="#DejaVuSans-58"/></g><g transform="translate(956.11 310.02) scale(.12 -.12)"><use transform="translate(0 .09375)" xlink:href="#DejaVuSans-52"/><use transform="translate(70.439 -16.312) scale(.7)" xlink:href="#DejaVuSans-Oblique-7a"/></g><g transform="translate(219.07 416.22) scale(.12 -.12)"><use transform="translate(0 .09375)" xlink:href="#DejaVuSans-52"/><use transform="translate(70.439 -16.312) scale(.7)" xlink:href="#DejaVuSans-Oblique-7a"/></g><g transform="translate(226.83 435.3) scale(.12 -.12)"><use transform="translate(0 .89062)" xlink:href="#DejaVuSans-221a"/><use transform="translate(63.721 .89062)" xlink:href="#DejaVuSans-58"/></g><g transform="translate(237.34 416.22) scale(.12 -.12)"><use transform="translate(0 .09375)" xlink:href="#DejaVuSans-52"/><use transform="translate(70.439 -16.312) scale(.7)" xlink:href="#DejaVuSans-Oblique-7a"/></g><g transform="translate(190.28 488.4) scale(.12 -.12)"><use transform="translate(0 .89062)" xlink:href="#DejaVuSans-221a"/><use transform="translate(63.721 .89062)" xlink:href="#DejaVuSans-58"/></g><g transform="translate(200.8 469.32) scale(.12 -.12)"><use transform="translate(0 .09375)" xlink:href="#DejaVuSans-52"/><use transform="translate(70.439 -16.312) scale(.7)" xlink:href="#DejaVuSans-Oblique-7a"/></g><g transform="translate(208.55 488.4) scale(.12 -.12)"><use transform="translate(0 .89062)" xlink:href="#DejaVuSans-221a"/><use transform="translate(63.721 .89062)" xlink:href="#DejaVuSans-58"/></g><g transform="translate(219.07 469.32) scale(.12 -.12)"><use transform="translate(0 .09375)" xlink:href="#DejaVuSans-52"/><use transform="translate(70.439 -16.312) scale(.7)" xlink:href="#DejaVuSans-Oblique-7a"/></g><g transform="translate(226.83 488.4) scale(.12 -.12)"><use transform="translate(0 .89062)" xlink:href="#DejaVuSans-221a"/><use transform="translate(63.721 .89062)" xlink:href="#DejaVuSans-58"/></g><g transform="translate(237.34 469.32) scale(.12 -.12)"><use transform="translate(0 .09375)" xlink:href="#DejaVuSans-52"/><use transform="translate(70.439 -16.312) scale(.7)" xlink:href="#DejaVuSans-Oblique-7a"/></g><g transform="translate(261.49 435.3) scale(.12 -.12)"><use transform="translate(0 .78125)" xlink:href="#DejaVuSans-43"/><use transform="translate(69.824 .78125)" xlink:href="#DejaVuSans-5a"/></g><g transform="translate(261.49 488.4) scale(.12 -.12)"><use transform="translate(0 .78125)" xlink:href="#DejaVuSans-43"/><use transform="translate(69.824 .78125)" xlink:href="#DejaVuSans-5a"/></g><g transform="translate(367.72 435.3) scale(.12 -.12)"><use transform="translate(0 .09375)" xlink:href="#DejaVuSans-58"/></g><g transform="translate(523.47 435.3) scale(.12 -.12)"><use transform="translate(0 .09375)" xlink:href="#DejaVuSans-59"/></g><g transform="translate(690.56 435.3) scale(.12 -.12)"><use transform="translate(0 .09375)" xlink:href="#DejaVuSans-58"/></g><g transform="translate(846.3 435.3) scale(.12 -.12)"><use transform="translate(0 .09375)" xlink:href="#DejaVuSans-59"/></g><g transform="translate(927.32 435.3) scale(.12 -.12)"><use transform="translate(0 .89062)" xlink:href="#DejaVuSans-221a"/><use transform="translate(63.721 .89062)" xlink:href="#DejaVuSans-58"/></g><g transform="translate(937.84 416.22) scale(.12 -.12)"><use transform="translate(0 .09375)" xlink:href="#DejaVuSans-52"/><use transform="translate(70.439 -16.312) scale(.7)" xlink:href="#DejaVuSans-Oblique-7a"/></g><g transform="translate(945.6 435.3) scale(.12 -.12)"><use transform="translate(0 .89062)" xlink:href="#DejaVuSans-221a"/><use transform="translate(63.721 .89062)" xlink:href="#DejaVuSans-58"/></g><g transform="translate(956.11 416.22) scale(.12 -.12)"><use transform="translate(0 .09375)" xlink:href="#DejaVuSans-52"/><use transform="translate(70.439 -16.312) scale(.7)" xlink:href="#DejaVuSans-Oblique-7a"/></g><g transform="translate(289.12 469.32) scale(.12 -.12)"><use transform="translate(0 .09375)" xlink:href="#DejaVuSans-52"/><use transform="translate(70.439 -16.312) scale(.7)" xlink:href="#DejaVuSans-Oblique-7a"/></g><g transform="translate(296.88 488.4) scale(.12 -.12)"><use transform="translate(0 .89062)" xlink:href="#DejaVuSans-221a"/><use transform="translate(63.721 .89062)" xlink:href="#DejaVuSans-58"/></g><g transform="translate(307.39 469.32) scale(.12 -.12)"><use transform="translate(0 .09375)" xlink:href="#DejaVuSans-52"/><use transform="translate(70.439 -16.312) scale(.7)" xlink:href="#DejaVuSans-Oblique-7a"/></g><g transform="translate(260.33 541.5) scale(.12 -.12)"><use transform="translate(0 .89062)" xlink:href="#DejaVuSans-221a"/><use transform="translate(63.721 .89062)" xlink:href="#DejaVuSans-58"/></g><g transform="translate(270.85 522.41) scale(.12 -.12)"><use transform="translate(0 .09375)" xlink:href="#DejaVuSans-52"/><use transform="translate(70.439 -16.312) scale(.7)" xlink:href="#DejaVuSans-Oblique-7a"/></g><g transform="translate(278.6 541.5) scale(.12 -.12)"><use transform="translate(0 .89062)" xlink:href="#DejaVuSans-221a"/><use transform="translate(63.721 .89062)" xlink:href="#DejaVuSans-58"/></g><g transform="translate(289.12 522.41) scale(.12 -.12)"><use transform="translate(0 .09375)" xlink:href="#DejaVuSans-52"/><use transform="translate(70.439 -16.312) scale(.7)" xlink:href="#DejaVuSans-Oblique-7a"/></g><g transform="translate(296.88 541.5) scale(.12 -.12)"><use transform="translate(0 .89062)" xlink:href="#DejaVuSans-221a"/><use transform="translate(63.721 .89062)" xlink:href="#DejaVuSans-58"/></g><g transform="translate(307.39 522.41) scale(.12 -.12)"><use transform="translate(0 .09375)" xlink:href="#DejaVuSans-52"/><use transform="translate(70.439 -16.312) scale(.7)" xlink:href="#DejaVuSans-Oblique-7a"/></g><g transform="translate(331.54 488.4) scale(.12 -.12)"><use transform="translate(0 .78125)" xlink:href="#DejaVuSans-43"/><use transform="translate(69.824 .78125)" xlink:href="#DejaVuSans-5a"/></g><g transform="translate(331.54 541.5) scale(.12 -.12)"><use transform="translate(0 .78125)" xlink:href="#DejaVuSans-43"/><use transform="translate(69.824 .78125)" xlink:href="#DejaVuSans-5a"/></g><g transform="translate(431.68 488.4) scale(.12 -.12)"><use transform="translate(0 .09375)" xlink:href="#DejaVuSans-58"/></g><g transform="translate(572.2 488.4) scale(.12 -.12)"><use transform="translate(0 .09375)" xlink:href="#DejaVuSans-59"/></g><g transform="translate(711.88 488.4) scale(.12 -.12)"><use transform="translate(0 .09375)" xlink:href="#DejaVuSans-58"/></g><g transform="translate(852.4 488.4) scale(.12 -.12)"><use transform="translate(0 .09375)" xlink:href="#DejaVuSans-59"/></g><g transform="translate(927.32 488.4) scale(.12 -.12)"><use transform="translate(0 .89062)" xlink:href="#DejaVuSans-221a"/><use transform="translate(63.721 .89062)" xlink:href="#DejaVuSans-58"/></g><g transform="translate(937.84 469.32) scale(.12 -.12)"><use transform="translate(0 .09375)" xlink:href="#DejaVuSans-52"/><use transform="translate(70.439 -16.312) scale(.7)" xlink:href="#DejaVuSans-Oblique-7a"/></g><g transform="translate(945.6 488.4) scale(.12 -.12)"><use transform="translate(0 .89062)" xlink:href="#DejaVuSans-221a"/><use transform="translate(63.721 .89062)" xlink:href="#DejaVuSans-58"/></g><g transform="translate(956.11 469.32) scale(.12 -.12)"><use transform="translate(0 .09375)" xlink:href="#DejaVuSans-52"/><use transform="translate(70.439 -16.312) scale(.7)" xlink:href="#DejaVuSans-Oblique-7a"/></g><g transform="translate(359.17 522.41) scale(.12 -.12)"><use transform="translate(0 .09375)" xlink:href="#DejaVuSans-52"/><use transform="translate(70.439 -16.312) scale(.7)" xlink:href="#DejaVuSans-Oblique-7a"/></g><g transform="translate(366.93 541.5) scale(.12 -.12)"><use transform="translate(0 .89062)" xlink:href="#DejaVuSans-221a"/><use transform="translate(63.721 .89062)" xlink:href="#DejaVuSans-58"/></g><g transform="translate(377.44 522.41) scale(.12 -.12)"><use transform="translate(0 .09375)" xlink:href="#DejaVuSans-52"/><use transform="translate(70.439 -16.312) scale(.7)" xlink:href="#DejaVuSans-Oblique-7a"/></g><g transform="translate(330.38 594.59) scale(.12 -.12)"><use transform="translate(0 .89062)" xlink:href="#DejaVuSans-221a"/><use transform="translate(63.721 .89062)" xlink:href="#DejaVuSans-58"/></g><g transform="translate(340.9 575.51) scale(.12 -.12)"><use transform="translate(0 .09375)" xlink:href="#DejaVuSans-52"/><use transform="translate(70.439 -16.312) scale(.7)" xlink:href="#DejaVuSans-Oblique-7a"/></g><g transform="translate(348.65 594.59) scale(.12 -.12)"><use transform="translate(0 .89062)" xlink:href="#DejaVuSans-221a"/><use transform="translate(63.721 .89062)" xlink:href="#DejaVuSans-58"/></g><g transform="translate(359.17 575.51) scale(.12 -.12)"><use transform="translate(0 .09375)" xlink:href="#DejaVuSans-52"/><use transform="translate(70.439 -16.312) scale(.7)" xlink:href="#DejaVuSans-Oblique-7a"/></g><g transform="translate(366.93 594.59) scale(.12 -.12)"><use transform="translate(0 .89062)" xlink:href="#DejaVuSans-221a"/><use transform="translate(63.721 .89062)" xlink:href="#DejaVuSans-58"/></g><g transform="translate(377.44 575.51) scale(.12 -.12)"><use transform="translate(0 .09375)" xlink:href="#DejaVuSans-52"/><use transform="translate(70.439 -16.312) scale(.7)" xlink:href="#DejaVuSans-Oblique-7a"/></g><g transform="translate(401.59 541.5) scale(.12 -.12)"><use transform="translate(0 .78125)" xlink:href="#DejaVuSans-43"/><use transform="translate(69.824 .78125)" xlink:href="#DejaVuSans-5a"/></g><g transform="translate(401.59 594.59) scale(.12 -.12)"><use transform="translate(0 .78125)" xlink:href="#DejaVuSans-43"/><use transform="translate(69.824 .78125)" xlink:href="#DejaVuSans-5a"/></g><g transform="translate(492.59 541.5) scale(.12 -.12)"><use transform="translate(0 .09375)" xlink:href="#DejaVuSans-58"/></g><g transform="translate(614.84 541.5) scale(.12 -.12)"><use transform="translate(0 .09375)" xlink:href="#DejaVuSans-59"/></g><g transform="translate(739.29 541.5) scale(.12 -.12)"><use transform="translate(0 .09375)" xlink:href="#DejaVuSans-58"/></g><g transform="translate(861.53 541.5) scale(.12 -.12)"><use transform="translate(0 .09375)" xlink:href="#DejaVuSans-59"/></g><g transform="translate(927.32 541.5) scale(.12 -.12)"><use transform="translate(0 .89062)" xlink:href="#DejaVuSans-221a"/><use transform="translate(63.721 .89062)" xlink:href="#DejaVuSans-58"/></g><g transform="translate(937.84 522.41) scale(.12 -.12)"><use transform="translate(0 .09375)" xlink:href="#DejaVuSans-52"/><use transform="translate(70.439 -16.312) scale(.7)" xlink:href="#DejaVuSans-Oblique-7a"/></g><g transform="translate(945.6 541.5) scale(.12 -.12)"><use transform="translate(0 .89062)" xlink:href="#DejaVuSans-221a"/><use transform="translate(63.721 .89062)" xlink:href="#DejaVuSans-58"/></g><g transform="translate(956.11 522.41) scale(.12 -.12)"><use transform="translate(0 .09375)" xlink:href="#DejaVuSans-52"/><use transform="translate(70.439 -16.312) scale(.7)" xlink:href="#DejaVuSans-Oblique-7a"/></g><g transform="translate(429.22 575.51) scale(.12 -.12)"><use transform="translate(0 .09375)" xlink:href="#DejaVuSans-52"/><use transform="translate(70.439 -16.312) scale(.7)" xlink:href="#DejaVuSans-Oblique-7a"/></g><g transform="translate(436.98 594.59) scale(.12 -.12)"><use transform="translate(0 .89062)" xlink:href="#DejaVuSans-221a"/><use transform="translate(63.721 .89062)" xlink:href="#DejaVuSans-58"/></g><g transform="translate(447.49 575.51) scale(.12 -.12)"><use transform="translate(0 .09375)" xlink:href="#DejaVuSans-52"/><use transform="translate(70.439 -16.312) scale(.7)" xlink:href="#DejaVuSans-Oblique-7a"/></g><g transform="translate(400.43 647.69) scale(.12 -.12)"><use transform="translate(0 .89062)" xlink:href="#DejaVuSans-221a"/><use transform="translate(63.721 .89062)" xlink:href="#DejaVuSans-58"/></g><g transform="translate(410.95 628.61) scale(.12 -.12)"><use transform="translate(0 .09375)" xlink:href="#DejaVuSans-52"/><use transform="translate(70.439 -16.312) scale(.7)" xlink:href="#DejaVuSans-Oblique-7a"/></g><g transform="translate(418.7 647.69) scale(.12 -.12)"><use transform="translate(0 .89062)" xlink:href="#DejaVuSans-221a"/><use transform="translate(63.721 .89062)" xlink:href="#DejaVuSans-58"/></g><g transform="translate(429.22 628.61) scale(.12 -.12)"><use transform="translate(0 .09375)" xlink:href="#DejaVuSans-52"/><use transform="translate(70.439 -16.312) scale(.7)" xlink:href="#DejaVuSans-Oblique-7a"/></g><g transform="translate(436.98 647.69) scale(.12 -.12)"><use transform="translate(0 .89062)" xlink:href="#DejaVuSans-221a"/><use transform="translate(63.721 .89062)" xlink:href="#DejaVuSans-58"/></g><g transform="translate(447.49 628.61) scale(.12 -.12)"><use transform="translate(0 .09375)" xlink:href="#DejaVuSans-52"/><use transform="translate(70.439 -16.312) scale(.7)" xlink:href="#DejaVuSans-Oblique-7a"/></g><g transform="translate(471.64 594.59) scale(.12 -.12)"><use transform="translate(0 .78125)" xlink:href="#DejaVuSans-43"/><use transform="translate(69.824 .78125)" xlink:href="#DejaVuSans-5a"/></g><g transform="translate(471.64 647.69) scale(.12 -.12)"><use transform="translate(0 .78125)" xlink:href="#DejaVuSans-43"/><use transform="translate(69.824 .78125)" xlink:href="#DejaVuSans-5a"/></g><g transform="translate(553.5 594.59) scale(.12 -.12)"><use transform="translate(0 .09375)" xlink:href="#DejaVuSans-58"/></g><g transform="translate(657.48 594.59) scale(.12 -.12)"><use transform="translate(0 .09375)" xlink:href="#DejaVuSans-59"/></g><g transform="translate(766.7 594.59) scale(.12 -.12)"><use transform="translate(0 .09375)" xlink:href="#DejaVuSans-58"/></g><g transform="translate(870.67 594.59) scale(.12 -.12)"><use transform="translate(0 .09375)" xlink:href="#DejaVuSans-59"/></g><g transform="translate(927.32 594.59) scale(.12 -.12)"><use transform="translate(0 .89062)" xlink:href="#DejaVuSans-221a"/><use transform="translate(63.721 .89062)" xlink:href="#DejaVuSans-58"/></g><g transform="translate(937.84 575.51) scale(.12 -.12)"><use transform="translate(0 .09375)" xlink:href="#DejaVuSans-52"/><use transform="translate(70.439 -16.312) scale(.7)" xlink:href="#DejaVuSans-Oblique-7a"/></g><g transform="translate(945.6 594.59) scale(.12 -.12)"><use transform="translate(0 .89062)" xlink:href="#DejaVuSans-221a"/><use transform="translate(63.721 .89062)" xlink:href="#DejaVuSans-58"/></g><g transform="translate(956.11 575.51) scale(.12 -.12)"><use transform="translate(0 .09375)" xlink:href="#DejaVuSans-52"/><use transform="translate(70.439 -16.312) scale(.7)" xlink:href="#DejaVuSans-Oblique-7a"/></g><g transform="translate(499.27 628.61) scale(.12 -.12)"><use transform="translate(0 .09375)" xlink:href="#DejaVuSans-52"/><use transform="translate(70.439 -16.312) scale(.7)" xlink:href="#DejaVuSans-Oblique-7a"/></g><g transform="translate(507.03 647.69) scale(.12 -.12)"><use transform="translate(0 .89062)" xlink:href="#DejaVuSans-221a"/><use transform="translate(63.721 .89062)" xlink:href="#DejaVuSans-58"/></g><g transform="translate(517.54 628.61) scale(.12 -.12)"><use transform="translate(0 .09375)" xlink:href="#DejaVuSans-52"/><use transform="translate(70.439 -16.312) scale(.7)" xlink:href="#DejaVuSans-Oblique-7a"/></g><g transform="translate(541.69 647.69) scale(.12 -.12)"><use transform="translate(0 .78125)" xlink:href="#DejaVuSans-43"/><use transform="translate(69.824 .78125)" xlink:href="#DejaVuSans-5a"/></g><g transform="translate(541.69 382.2) scale(.12 -.12)"><use transform="translate(0 .78125)" xlink:href="#DejaVuSans-43"/><use transform="translate(69.824 .78125)" xlink:href="#DejaVuSans-5a"/></g><g transform="translate(569.32 363.12) scale(.12 -.12)"><use transform="translate(0 .09375)" xlink:href="#DejaVuSans-52"/><use transform="translate(70.439 -16.312) scale(.7)" xlink:href="#DejaVuSans-Oblique-7a"/></g><g transform="translate(577.07 382.2) scale(.12 -.12)"><use transform="translate(0 .89062)" xlink:href="#DejaVuSans-221a"/><use transform="translate(63.721 .89062)" xlink:href="#DejaVuSans-58"/></g><g transform="translate(587.59 363.12) scale(.12 -.12)"><use transform="translate(0 .09375)" xlink:href="#DejaVuSans-52"/><use transform="translate(70.439 -16.312) scale(.7)" xlink:href="#DejaVuSans-Oblique-7a"/></g><g transform="translate(611.74 382.2) scale(.12 -.12)"><use transform="translate(0 .78125)" xlink:href="#DejaVuSans-43"/><use transform="translate(69.824 .78125)" xlink:href="#DejaVuSans-5a"/></g><g transform="translate(611.74 276) scale(.12 -.12)"><use transform="translate(0 .78125)" xlink:href="#DejaVuSans-43"/><use transform="translate(69.824 .78125)" xlink:href="#DejaVuSans-5a"/></g><g transform="translate(639.37 256.92) scale(.12 -.12)"><use transform="translate(0 .09375)" xlink:href="#DejaVuSans-52"/><use transform="translate(70.439 -16.312) scale(.7)" xlink:href="#DejaVuSans-Oblique-7a"/></g><g transform="translate(647.12 276) scale(.12 -.12)"><use transform="translate(0 .89062)" xlink:href="#DejaVuSans-221a"/><use transform="translate(63.721 .89062)" xlink:href="#DejaVuSans-58"/></g><g transform="translate(657.64 256.92) scale(.12 -.12)"><use transform="translate(0 .09375)" xlink:href="#DejaVuSans-52"/><use transform="translate(70.439 -16.312) scale(.7)" xlink:href="#DejaVuSans-Oblique-7a"/></g><g transform="translate(681.79 276) scale(.12 -.12)"><use transform="translate(0 .78125)" xlink:href="#DejaVuSans-43"/><use transform="translate(69.824 .78125)" xlink:href="#DejaVuSans-5a"/></g><g transform="translate(681.79 222.91) scale(.12 -.12)"><use transform="translate(0 .78125)" xlink:href="#DejaVuSans-43"/><use transform="translate(69.824 .78125)" xlink:href="#DejaVuSans-5a"/></g><g transform="translate(709.42 203.82) scale(.12 -.12)"><use transform="translate(0 .09375)" xlink:href="#DejaVuSans-52"/><use transform="translate(70.439 -16.312) scale(.7)" xlink:href="#DejaVuSans-Oblique-7a"/></g><g transform="translate(717.17 222.91) scale(.12 -.12)"><use transform="translate(0 .89062)" xlink:href="#DejaVuSans-221a"/><use transform="translate(63.721 .89062)" xlink:href="#DejaVuSans-58"/></g><g transform="translate(727.69 203.82) scale(.12 -.12)"><use transform="translate(0 .09375)" xlink:href="#DejaVuSans-52"/><use transform="translate(70.439 -16.312) scale(.7)" xlink:href="#DejaVuSans-Oblique-7a"/></g><g transform="translate(751.84 222.91) scale(.12 -.12)"><use transform="translate(0 .78125)" xlink:href="#DejaVuSans-43"/><use transform="translate(69.824 .78125)" xlink:href="#DejaVuSans-5a"/></g><g transform="translate(751.84 169.81) scale(.12 -.12)"><use transform="translate(0 .78125)" xlink:href="#DejaVuSans-43"/><use transform="translate(69.824 .78125)" xlink:href="#DejaVuSans-5a"/></g><g transform="translate(779.47 150.73) scale(.12 -.12)"><use transform="translate(0 .09375)" xlink:href="#DejaVuSans-52"/><use transform="translate(70.439 -16.312) scale(.7)" xlink:href="#DejaVuSans-Oblique-7a"/></g><g transform="translate(787.22 169.81) scale(.12 -.12)"><use transform="translate(0 .89062)" xlink:href="#DejaVuSans-221a"/><use transform="translate(63.721 .89062)" xlink:href="#DejaVuSans-58"/></g><g transform="translate(797.74 150.73) scale(.12 -.12)"><use transform="translate(0 .09375)" xlink:href="#DejaVuSans-52"/><use transform="translate(70.439 -16.312) scale(.7)" xlink:href="#DejaVuSans-Oblique-7a"/></g><g transform="translate(821.89 169.81) scale(.12 -.12)"><use transform="translate(0 .78125)" xlink:href="#DejaVuSans-43"/><use transform="translate(69.824 .78125)" xlink:href="#DejaVuSans-5a"/></g><g transform="translate(821.89 116.71) scale(.12 -.12)"><use transform="translate(0 .78125)" xlink:href="#DejaVuSans-43"/><use transform="translate(69.824 .78125)" xlink:href="#DejaVuSans-5a"/></g><g transform="translate(849.52 97.627) scale(.12 -.12)"><use transform="translate(0 .09375)" xlink:href="#DejaVuSans-52"/><use transform="translate(70.439 -16.312) scale(.7)" xlink:href="#DejaVuSans-Oblique-7a"/></g><g transform="translate(857.27 116.71) scale(.12 -.12)"><use transform="translate(0 .89062)" xlink:href="#DejaVuSans-221a"/><use transform="translate(63.721 .89062)" xlink:href="#DejaVuSans-58"/></g><g transform="translate(867.79 97.627) scale(.12 -.12)"><use transform="translate(0 .09375)" xlink:href="#DejaVuSans-52"/><use transform="translate(70.439 -16.312) scale(.7)" xlink:href="#DejaVuSans-Oblique-7a"/></g><g transform="translate(891.94 116.71) scale(.12 -.12)"><use transform="translate(0 .78125)" xlink:href="#DejaVuSans-43"/><use transform="translate(69.824 .78125)" xlink:href="#DejaVuSans-5a"/></g><g transform="translate(891.94 63.61) scale(.12 -.12)"><use transform="translate(0 .78125)" xlink:href="#DejaVuSans-43"/><use transform="translate(69.824 .78125)" xlink:href="#DejaVuSans-5a"/></g><g transform="translate(919.57 44.528) scale(.12 -.12)"><use transform="translate(0 .09375)" xlink:href="#DejaVuSans-52"/><use transform="translate(70.439 -16.312) scale(.7)" xlink:href="#DejaVuSans-Oblique-7a"/></g><g transform="translate(927.32 63.61) scale(.12 -.12)"><use transform="translate(0 .89062)" xlink:href="#DejaVuSans-221a"/><use transform="translate(63.721 .89062)" xlink:href="#DejaVuSans-58"/></g><g transform="translate(937.84 44.528) scale(.12 -.12)"><use transform="translate(0 .09375)" xlink:href="#DejaVuSans-52"/><use transform="translate(70.439 -16.312) scale(.7)" xlink:href="#DejaVuSans-Oblique-7a"/></g><g transform="translate(945.6 63.61) scale(.12 -.12)"><use transform="translate(0 .89062)" xlink:href="#DejaVuSans-221a"/><use transform="translate(63.721 .89062)" xlink:href="#DejaVuSans-58"/></g><g transform="translate(956.11 44.528) scale(.12 -.12)"><use transform="translate(0 .09375)" xlink:href="#DejaVuSans-52"/><use transform="translate(70.439 -16.312) scale(.7)" xlink:href="#DejaVuSans-Oblique-7a"/></g><g transform="translate(927.32 116.71) scale(.12 -.12)"><use transform="translate(0 .89062)" xlink:href="#DejaVuSans-221a"/><use transform="translate(63.721 .89062)" xlink:href="#DejaVuSans-58"/></g><g transform="translate(937.84 97.627) scale(.12 -.12)"><use transform="translate(0 .09375)" xlink:href="#DejaVuSans-52"/><use transform="translate(70.439 -16.312) scale(.7)" xlink:href="#DejaVuSans-Oblique-7a"/></g><g transform="translate(945.6 116.71) scale(.12 -.12)"><use transform="translate(0 .89062)" xlink:href="#DejaVuSans-221a"/><use transform="translate(63.721 .89062)" xlink:href="#DejaVuSans-58"/></g><g transform="translate(956.11 97.627) scale(.12 -.12)"><use transform="translate(0 .09375)" xlink:href="#DejaVuSans-52"/><use transform="translate(70.439 -16.312) scale(.7)" xlink:href="#DejaVuSans-Oblique-7a"/></g><g transform="translate(927.32 169.81) scale(.12 -.12)"><use transform="translate(0 .89062)" xlink:href="#DejaVuSans-221a"/><use transform="translate(63.721 .89062)" xlink:href="#DejaVuSans-58"/></g><g transform="translate(937.84 150.73) scale(.12 -.12)"><use transform="translate(0 .09375)" xlink:href="#DejaVuSans-52"/><use transform="translate(70.439 -16.312) scale(.7)" xlink:href="#DejaVuSans-Oblique-7a"/></g><g transform="translate(945.6 169.81) scale(.12 -.12)"><use transform="translate(0 .89062)" xlink:href="#DejaVuSans-221a"/><use transform="translate(63.721 .89062)" xlink:href="#DejaVuSans-58"/></g><g transform="translate(956.11 150.73) scale(.12 -.12)"><use transform="translate(0 .09375)" xlink:href="#DejaVuSans-52"/><use transform="translate(70.439 -16.312) scale(.7)" xlink:href="#DejaVuSans-Oblique-7a"/></g><g transform="translate(797.15 222.91) scale(.12 -.12)"><use transform="translate(0 .09375)" xlink:href="#DejaVuSans-58"/></g><g transform="translate(831.08 222.91) scale(.12 -.12)"><use transform="translate(0 .09375)" xlink:href="#DejaVuSans-59"/></g><g transform="translate(873.3 222.91) scale(.12 -.12)"><use transform="translate(0 .09375)" xlink:href="#DejaVuSans-58"/></g><g transform="translate(907.22 222.91) scale(.12 -.12)"><use transform="translate(0 .09375)" xlink:href="#DejaVuSans-59"/></g><g transform="translate(927.32 222.91) scale(.12 -.12)"><use transform="translate(0 .89062)" xlink:href="#DejaVuSans-221a"/><use transform="translate(63.721 .89062)" xlink:href="#DejaVuSans-58"/></g><g transform="translate(937.84 203.82) scale(.12 -.12)"><use transform="translate(0 .09375)" xlink:href="#DejaVuSans-52"/><use transform="translate(70.439 -16.312) scale(.7)" xlink:href="#DejaVuSans-Oblique-7a"/></g><g transform="translate(945.6 222.91) scale(.12 -.12)"><use transform="translate(0 .89062)" xlink:href="#DejaVuSans-221a"/><use transform="translate(63.721 .89062)" xlink:href="#DejaVuSans-58"/></g><g transform="translate(956.11 203.82) scale(.12 -.12)"><use transform="translate(0 .09375)" xlink:href="#DejaVuSans-52"/><use transform="translate(70.439 -16.312) scale(.7)" xlink:href="#DejaVuSans-Oblique-7a"/></g><g transform="translate(736.24 276) scale(.12 -.12)"><use transform="translate(0 .09375)" xlink:href="#DejaVuSans-58"/></g><g transform="translate(788.44 276) scale(.12 -.12)"><use transform="translate(0 .09375)" xlink:href="#DejaVuSans-59"/></g><g transform="translate(845.88 276) scale(.12 -.12)"><use transform="translate(0 .09375)" xlink:href="#DejaVuSans-58"/></g><g transform="translate(898.08 276) scale(.12 -.12)"><use transform="translate(0 .09375)" xlink:href="#DejaVuSans-59"/></g><g transform="translate(927.32 276) scale(.12 -.12)"><use transform="translate(0 .89062)" xlink:href="#DejaVuSans-221a"/><use transform="translate(63.721 .89062)" xlink:href="#DejaVuSans-58"/></g><g transform="translate(937.84 256.92) scale(.12 -.12)"><use transform="translate(0 .09375)" xlink:href="#DejaVuSans-52"/><use transform="translate(70.439 -16.312) scale(.7)" xlink:href="#DejaVuSans-Oblique-7a"/></g><g transform="translate(945.6 276) scale(.12 -.12)"><use transform="translate(0 .89062)" xlink:href="#DejaVuSans-221a"/><use transform="translate(63.721 .89062)" xlink:href="#DejaVuSans-58"/></g><g transform="translate(956.11 256.92) scale(.12 -.12)"><use transform="translate(0 .09375)" xlink:href="#DejaVuSans-52"/><use transform="translate(70.439 -16.312) scale(.7)" xlink:href="#DejaVuSans-Oblique-7a"/></g><g transform="translate(675.33 382.2) scale(.12 -.12)"><use transform="translate(0 .09375)" xlink:href="#DejaVuSans-58"/></g><g transform="translate(745.8 382.2) scale(.12 -.12)"><use transform="translate(0 .09375)" xlink:href="#DejaVuSans-59"/></g><g transform="translate(818.47 382.2) scale(.12 -.12)"><use transform="translate(0 .09375)" xlink:href="#DejaVuSans-58"/></g><g transform="translate(888.94 382.2) scale(.12 -.12)"><use transform="translate(0 .09375)" xlink:href="#DejaVuSans-59"/></g><g transform="translate(927.32 382.2) scale(.12 -.12)"><use transform="translate(0 .89062)" xlink:href="#DejaVuSans-221a"/><use transform="translate(63.721 .89062)" xlink:href="#DejaVuSans-58"/></g><g transform="translate(937.84 363.12) scale(.12 -.12)"><use transform="translate(0 .09375)" xlink:href="#DejaVuSans-52"/><use transform="translate(70.439 -16.312) scale(.7)" xlink:href="#DejaVuSans-Oblique-7a"/></g><g transform="translate(945.6 382.2) scale(.12 -.12)"><use transform="translate(0 .89062)" xlink:href="#DejaVuSans-221a"/><use transform="translate(63.721 .89062)" xlink:href="#DejaVuSans-58"/></g><g transform="translate(956.11 363.12) scale(.12 -.12)"><use transform="translate(0 .09375)" xlink:href="#DejaVuSans-52"/><use transform="translate(70.439 -16.312) scale(.7)" xlink:href="#DejaVuSans-Oblique-7a"/></g><g transform="translate(614.42 647.69) scale(.12 -.12)"><use transform="translate(0 .09375)" xlink:href="#DejaVuSans-58"/></g><g transform="translate(700.11 647.69) scale(.12 -.12)"><use transform="translate(0 .09375)" xlink:href="#DejaVuSans-59"/></g><g transform="translate(794.11 647.69) scale(.12 -.12)"><use transform="translate(0 .09375)" xlink:href="#DejaVuSans-58"/></g><g transform="translate(879.81 647.69) scale(.12 -.12)"><use transform="translate(0 .09375)" xlink:href="#DejaVuSans-59"/></g><g transform="translate(927.32 647.69) scale(.12 -.12)"><use transform="translate(0 .89062)" xlink:href="#DejaVuSans-221a"/><use transform="translate(63.721 .89062)" xlink:href="#DejaVuSans-58"/></g><g transform="translate(937.84 628.61) scale(.12 -.12)"><use transform="translate(0 .09375)" xlink:href="#DejaVuSans-52"/><use transform="translate(70.439 -16.312) scale(.7)" xlink:href="#DejaVuSans-Oblique-7a"/></g><g transform="translate(945.6 647.69) scale(.12 -.12)"><use transform="translate(0 .89062)" xlink:href="#DejaVuSans-221a"/><use transform="translate(63.721 .89062)" xlink:href="#DejaVuSans-58"/></g><g transform="translate(956.11 628.61) scale(.12 -.12)"><use transform="translate(0 .09375)" xlink:href="#DejaVuSans-52"/><use transform="translate(70.439 -16.312) scale(.7)" xlink:href="#DejaVuSans-Oblique-7a"/></g><g transform="translate(13.95 64.407) scale(.15 -.15)"><defs><path id="DejaVuSans-71" transform="scale(.015625)" d="m947 1747q0-634 261-995t717-361 718 361q263 361 263 995t-263 995q-262 361-718 361t-717-361-261-995zm1959-1222q-181-312-458-464-276-152-664-152-634 0-1033 506-398 507-398 1332t398 1331q399 506 1033 506 388 0 664-152 277-151 458-463v531h575v-4831h-575v1856z"/></defs><use xlink:href="#DejaVuSans-71"/><use transform="translate(64.434 -16.406) scale(.7)" xlink:href="#DejaVuSans-33"/></g><g transform="translate(13.95 117.51) scale(.15 -.15)"><use xlink:href="#DejaVuSans-71"/><use transform="translate(64.434 -16.406) scale(.7)" xlink:href="#DejaVuSans-34"/></g><g transform="translate(13.95 170.6) scale(.15 -.15)"><use xlink:href="#DejaVuSans-71"/><use transform="translate(64.434 -16.406) scale(.7)" xlink:href="#DejaVuSans-35"/></g><g transform="translate(13.95 223.7) scale(.15 -.15)"><use xlink:href="#DejaVuSans-71"/><use transform="translate(64.434 -16.406) scale(.7)" xlink:href="#DejaVuSans-36"/></g><g transform="translate(13.95 276.8) scale(.15 -.15)"><defs><path id="DejaVuSans-37" transform="scale(.015625)" d="m525 4666h3e3v-269l-1694-4397h-659l1594 4134h-2241v532z"/></defs><use xlink:href="#DejaVuSans-71"/><use transform="translate(64.434 -16.406) scale(.7)" xlink:href="#DejaVuSans-37"/></g><g transform="translate(7.2 329.9) scale(.15 -.15)"><use xlink:href="#DejaVuSans-71"/><use transform="translate(64.434 -16.406) scale(.7)" xlink:href="#DejaVuSans-31"/><use transform="translate(108.97 -16.406) scale(.7)" xlink:href="#DejaVuSans-36"/></g><g transform="translate(7.2 383) scale(.15 -.15)"><use xlink:href="#DejaVuSans-71"/><use transform="translate(64.434 -16.406) scale(.7)" xlink:href="#DejaVuSans-31"/><use transform="translate(108.97 -16.406) scale(.7)" xlink:href="#DejaVuSans-37"/></g><g transform="translate(7.2 436.1) scale(.15 -.15)"><use xlink:href="#DejaVuSans-71"/><use transform="translate(64.434 -16.406) scale(.7)" xlink:href="#DejaVuSans-32"/><use transform="translate(108.97 -16.406) scale(.7)" xlink:href="#DejaVuSans-33"/></g><g transform="translate(7.2 489.19) scale(.15 -.15)"><use xlink:href="#DejaVuSans-71"/><use transform="translate(64.434 -16.406) scale(.7)" xlink:href="#DejaVuSans-32"/><use transform="translate(108.97 -16.406) scale(.7)" xlink:href="#DejaVuSans-34"/></g><g transform="translate(7.2 542.29) scale(.15 -.15)"><use xlink:href="#DejaVuSans-71"/><use transform="translate(64.434 -16.406) scale(.7)" xlink:href="#DejaVuSans-32"/><use transform="translate(108.97 -16.406) scale(.7)" xlink:href="#DejaVuSans-35"/></g><g transform="translate(7.2 595.39) scale(.15 -.15)"><use xlink:href="#DejaVuSans-71"/><use transform="translate(64.434 -16.406) scale(.7)" xlink:href="#DejaVuSans-32"/><use transform="translate(108.97 -16.406) scale(.7)" xlink:href="#DejaVuSans-36"/></g><g transform="translate(7.2 648.49) scale(.15 -.15)"><use xlink:href="#DejaVuSans-71"/><use transform="translate(64.434 -16.406) scale(.7)" xlink:href="#DejaVuSans-32"/><use transform="translate(108.97 -16.406) scale(.7)" xlink:href="#DejaVuSans-37"/></g><defs><clipPath id="8b0ed112990"><rect x="30.75" y="7.2" width="950.24" height="690.28"/></clipPath></defs></svg>