<?xml version="1.0" encoding="UTF-8"?><!DOCTYPE svg  PUBLIC '-//W3C//DTD SVG 1.1//EN'  'http://www.w3.org/Graphics/SVG/1.1/DTD/svg11.dtd'><svg width="590.97pt" height="172pt" version="1.1" viewBox="0 0 590.97 172" xmlns="http://www.w3.org/2000/svg" xmlns:xlink="http://www.w3.org/1999/xlink"><defs><style type="text/css">*{stroke-linejoin: round; stroke-linecap: butt}</style></defs><path d="m0 172h590.97v-172h-590.97z" fill="#ffffff"/><path d="m64.609 44.283h514.53" clip-path="url(#d05cee50d25)" fill="none" stroke="#000000" stroke-linecap="square" stroke-width="2"/><path d="m64.609 90.637h514.53" clip-path="url(#d05cee50d25)" fill="none" stroke="#000000" stroke-linecap="square" stroke-width="2"/><path d="m64.609 136.99h514.53" clip-path="url(#d05cee50d25)" fill="none" stroke="#000000" stroke-linecap="square" stroke-width="2"/><path d="m59.974 21.106h-1158.8v185.42h1158.8z" clip-path="url(#d05cee50d25)" fill="#ffffff" stroke="#ffffff" stroke-width="1.5"/><path d="m135.99 136.99v-46.354" clip-path="url(#d05cee50d25)" fill="none" stroke="#002d9c" stroke-linecap="square" stroke-width="2"/><path d="m228.7 136.99v-92.708" clip-path="url(#d05cee50d25)" fill="none" stroke="#002d9c" stroke-linecap="square" stroke-width="2"/><path d="m321.41 136.99v-46.354" clip-path="url(#d05cee50d25)" fill="none" stroke="#002d9c" stroke-linecap="square" stroke-width="2"/><path d="m414.12 136.99v-92.708" clip-path="url(#d05cee50d25)" fill="none" stroke="#002d9c" stroke-linecap="square" stroke-width="2"/><path d="m460.47 90.637v-46.354" clip-path="url(#d05cee50d25)" fill="none" stroke="#002d9c" stroke-linecap="square" stroke-width="2"/><path d="m553.18 90.637v-46.354" clip-path="url(#d05cee50d25)" fill="none" stroke="#002d9c" stroke-linecap="square" stroke-width="2"/><path d="m74.575 152.06h30.13v-30.13h-30.13z" clip-path="url(#d05cee50d25)" fill="#fa4d56" stroke="#fa4d56" stroke-width="1.5"/><path d="m135.99 95.157c1.1986 0 2.3482-0.4762 3.1958-1.3237 0.84753-0.84753 1.3237-1.9972 1.3237-3.1958s-0.4762-2.3482-1.3237-3.1958c-0.84753-0.84753-1.9972-1.3237-3.1958-1.3237-1.1986 0-2.3482 0.4762-3.1958 1.3237-0.84753 0.84753-1.3237 1.9972-1.3237 3.1958s0.4762 2.3482 1.3237 3.1958c0.84753 0.84753 1.9972 1.3237 3.1958 1.3237z" clip-path="url(#d05cee50d25)" fill="#002d9c" stroke="#002d9c" stroke-width="1.5"/><path d="m135.99 147.54c2.7967 0 5.4792-1.1111 7.4568-3.0887 1.9776-1.9776 3.0887-4.6601 3.0887-7.4568 0-2.7967-1.1111-5.4792-3.0887-7.4568-1.9776-1.9776-4.6601-3.0887-7.4568-3.0887-2.7967 0-5.4792 1.1111-7.4568 3.0887-1.9776 1.9776-3.0887 4.6601-3.0887 7.4568 0 2.7967 1.1111 5.4792 3.0887 7.4568 1.9776 1.9776 4.6601 3.0887 7.4568 3.0887z" clip-path="url(#d05cee50d25)" fill="#002d9c" stroke="#002d9c" stroke-width="2"/><path d="m167.28 152.06h30.13v-30.13h-30.13z" clip-path="url(#d05cee50d25)" fill="#33b1ff" stroke="#33b1ff" stroke-width="1.5"/><path d="m228.7 48.803c1.1986 0 2.3482-0.4762 3.1958-1.3237s1.3237-1.9972 1.3237-3.1958c0-1.1986-0.4762-2.3482-1.3237-3.1958s-1.9972-1.3237-3.1958-1.3237c-1.1986 0-2.3482 0.4762-3.1958 1.3237-0.84753 0.84753-1.3237 1.9972-1.3237 3.1958 0 1.1986 0.4762 2.3482 1.3237 3.1958 0.84753 0.84753 1.9972 1.3237 3.1958 1.3237z" clip-path="url(#d05cee50d25)" fill="#002d9c" stroke="#002d9c" stroke-width="1.5"/><path d="m228.7 147.54c2.7967 0 5.4792-1.1111 7.4568-3.0887 1.9776-1.9776 3.0887-4.6601 3.0887-7.4568 0-2.7967-1.1111-5.4792-3.0887-7.4568-1.9776-1.9776-4.6601-3.0887-7.4568-3.0887-2.7967 0-5.4792 1.1111-7.4568 3.0887-1.9776 1.9776-3.0887 4.6601-3.0887 7.4568 0 2.7967 1.1111 5.4792 3.0887 7.4568 1.9776 1.9776 4.6601 3.0887 7.4568 3.0887z" clip-path="url(#d05cee50d25)" fill="#002d9c" stroke="#002d9c" stroke-width="2"/><path d="m259.99 152.06h30.13v-30.13h-30.13z" clip-path="url(#d05cee50d25)" fill="#33b1ff" stroke="#33b1ff" stroke-width="1.5"/><path d="m321.41 95.157c1.1986 0 2.3482-0.4762 3.1958-1.3237 0.84753-0.84753 1.3237-1.9972 1.3237-3.1958s-0.4762-2.3482-1.3237-3.1958c-0.84753-0.84753-1.9972-1.3237-3.1958-1.3237s-2.3482 0.4762-3.1958 1.3237c-0.84753 0.84753-1.3237 1.9972-1.3237 3.1958s0.4762 2.3482 1.3237 3.1958c0.84753 0.84753 1.9972 1.3237 3.1958 1.3237z" clip-path="url(#d05cee50d25)" fill="#002d9c" stroke="#002d9c" stroke-width="1.5"/><path d="m321.41 147.54c2.7967 0 5.4792-1.1111 7.4568-3.0887 1.9776-1.9776 3.0887-4.6601 3.0887-7.4568 0-2.7967-1.1111-5.4792-3.0887-7.4568-1.9776-1.9776-4.6601-3.0887-7.4568-3.0887-2.7967 0-5.4792 1.1111-7.4568 3.0887-1.9776 1.9776-3.0887 4.6601-3.0887 7.4568 0 2.7967 1.1111 5.4792 3.0887 7.4568 1.9776 1.9776 4.6601 3.0887 7.4568 3.0887z" clip-path="url(#d05cee50d25)" fill="#002d9c" stroke="#002d9c" stroke-width="2"/><path d="m352.7 105.7h30.13v-30.13h-30.13z" clip-path="url(#d05cee50d25)" fill="#33b1ff" stroke="#33b1ff" stroke-width="1.5"/><path d="m352.7 152.06h30.13v-30.13h-30.13z" clip-path="url(#d05cee50d25)" fill="#33b1ff" stroke="#33b1ff" stroke-width="1.5"/><path d="m414.12 48.803c1.1986 0 2.3482-0.4762 3.1958-1.3237 0.84753-0.84753 1.3237-1.9972 1.3237-3.1958 0-1.1986-0.4762-2.3482-1.3237-3.1958-0.84753-0.84753-1.9972-1.3237-3.1958-1.3237-1.1986 0-2.3482 0.4762-3.1958 1.3237s-1.3237 1.9972-1.3237 3.1958c0 1.1986 0.4762 2.3482 1.3237 3.1958s1.9972 1.3237 3.1958 1.3237z" clip-path="url(#d05cee50d25)" fill="#002d9c" stroke="#002d9c" stroke-width="1.5"/><path d="m414.12 147.54c2.7967 0 5.4792-1.1111 7.4568-3.0887 1.9776-1.9776 3.0887-4.6601 3.0887-7.4568 0-2.7967-1.1111-5.4792-3.0887-7.4568s-4.6601-3.0887-7.4568-3.0887c-2.7967 0-5.4792 1.1111-7.4568 3.0887-1.9776 1.9776-3.0887 4.6601-3.0887 7.4568 0 2.7967 1.1111 5.4792 3.0887 7.4568 1.9776 1.9776 4.6601 3.0887 7.4568 3.0887z" clip-path="url(#d05cee50d25)" fill="#002d9c" stroke="#002d9c" stroke-width="2"/><path d="m460.47 48.803c1.1986 0 2.3482-0.4762 3.1958-1.3237s1.3237-1.9972 1.3237-3.1958c0-1.1986-0.4762-2.3482-1.3237-3.1958s-1.9972-1.3237-3.1958-1.3237c-1.1986 0-2.3482 0.4762-3.1958 1.3237-0.84753 0.84753-1.3237 1.9972-1.3237 3.1958 0 1.1986 0.4762 2.3482 1.3237 3.1958 0.84753 0.84753 1.9972 1.3237 3.1958 1.3237z" clip-path="url(#d05cee50d25)" fill="#002d9c" stroke="#002d9c" stroke-width="1.5"/><path d="m460.47 101.18c2.7967 0 5.4792-1.1111 7.4568-3.0887 1.9776-1.9776 3.0887-4.6601 3.0887-7.4568 0-2.7967-1.1111-5.4792-3.0887-7.4568-1.9776-1.9776-4.6601-3.0887-7.4568-3.0887-2.7967 0-5.4792 1.1111-7.4568 3.0887-1.9776 1.9776-3.0887 4.6601-3.0887 7.4568 0 2.7967 1.1111 5.4792 3.0887 7.4568 1.9776 1.9776 4.6601 3.0887 7.4568 3.0887z" clip-path="url(#d05cee50d25)" fill="#002d9c" stroke="#002d9c" stroke-width="2"/><path d="m445.41 152.06h30.13v-30.13h-30.13z" clip-path="url(#d05cee50d25)" fill="#33b1ff" stroke="#33b1ff" stroke-width="1.5"/><path d="m491.76 59.348h30.13v-30.13h-30.13z" clip-path="url(#d05cee50d25)" fill="#33b1ff" stroke="#33b1ff" stroke-width="1.5"/><path d="m491.76 105.7h30.13v-30.13h-30.13z" clip-path="url(#d05cee50d25)" fill="#33b1ff" stroke="#33b1ff" stroke-width="1.5"/><path d="m491.76 152.06h30.13v-30.13h-30.13z" clip-path="url(#d05cee50d25)" fill="#fa4d56" stroke="#fa4d56" stroke-width="1.5"/><path d="m553.18 48.803c1.1986 0 2.3482-0.4762 3.1958-1.3237 0.84753-0.84753 1.3237-1.9972 1.3237-3.1958 0-1.1986-0.4762-2.3482-1.3237-3.1958-0.84753-0.84753-1.9972-1.3237-3.1958-1.3237s-2.3482 0.4762-3.1958 1.3237c-0.84753 0.84753-1.3237 1.9972-1.3237 3.1958 0 1.1986 0.4762 2.3482 1.3237 3.1958 0.84753 0.84753 1.9972 1.3237 3.1958 1.3237z" clip-path="url(#d05cee50d25)" fill="#002d9c" stroke="#002d9c" stroke-width="1.5"/><path d="m553.18 101.18c2.7967 0 5.4792-1.1111 7.4568-3.0887 1.9776-1.9776 3.0887-4.6601 3.0887-7.4568 0-2.7967-1.1111-5.4792-3.0887-7.4568-1.9776-1.9776-4.6601-3.0887-7.4568-3.0887s-5.4792 1.1111-7.4568 3.0887c-1.9776 1.9776-3.0887 4.6601-3.0887 7.4568 0 2.7967 1.1111 5.4792 3.0887 7.4568 1.9776 1.9776 4.6601 3.0887 7.4568 3.0887z" clip-path="url(#d05cee50d25)" fill="#002d9c" stroke="#002d9c" stroke-width="2"/><path d="m135.99 143.02v-12.052" clip-path="url(#d05cee50d25)" fill="none" stroke="#ffffff" stroke-linecap="square" stroke-width="2"/><path d="m129.97 136.99h12.052" clip-path="url(#d05cee50d25)" fill="none" stroke="#ffffff" stroke-linecap="square" stroke-width="2"/><path d="m228.7 143.02v-12.052" clip-path="url(#d05cee50d25)" fill="none" stroke="#ffffff" stroke-linecap="square" stroke-width="2"/><path d="m222.68 136.99h12.052" clip-path="url(#d05cee50d25)" fill="none" stroke="#ffffff" stroke-linecap="square" stroke-width="2"/><path d="m321.41 143.02v-12.052" clip-path="url(#d05cee50d25)" fill="none" stroke="#ffffff" stroke-linecap="square" stroke-width="2"/><path d="m315.38 136.99h12.052" clip-path="url(#d05cee50d25)" fill="none" stroke="#ffffff" stroke-linecap="square" stroke-width="2"/><path d="m414.12 143.02v-12.052" clip-path="url(#d05cee50d25)" fill="none" stroke="#ffffff" stroke-linecap="square" stroke-width="2"/><path d="m408.09 136.99h12.052" clip-path="url(#d05cee50d25)" fill="none" stroke="#ffffff" stroke-linecap="square" stroke-width="2"/><path d="m460.47 96.663v-12.052" clip-path="url(#d05cee50d25)" fill="none" stroke="#ffffff" stroke-linecap="square" stroke-width="2"/><path d="m454.45 90.637h12.052" clip-path="url(#d05cee50d25)" fill="none" stroke="#ffffff" stroke-linecap="square" stroke-width="2"/><path d="m553.18 96.663v-12.052" clip-path="url(#d05cee50d25)" fill="none" stroke="#ffffff" stroke-linecap="square" stroke-width="2"/><path d="m547.15 90.637h12.052" clip-path="url(#d05cee50d25)" fill="none" stroke="#ffffff" stroke-linecap="square" stroke-width="2"/><g clip-path="url(#d05cee50d25)"><g transform="translate(37.301 48.734) scale(.1625 -.1625)"><defs><path id="DejaVuSans-Oblique-71" transform="scale(.015625)" d="m2669 525q-231-303-546-460-314-156-695-156-531 0-833 358-301 358-301 986 0 506 186 978t533 847q225 244 517 375t614 131q387 0 637-153t363-462l100 525h578l-934-4813h-579l360 1844zm-1778 813q0-463 193-705 194-242 560-242 544 0 928 520t384 1264q0 450-199 689-198 239-569 239-272 0-504-127-231-126-403-370-181-256-286-600-104-343-104-668z"/><path id="DejaVuSans-30" transform="scale(.015625)" d="m2034 4250q-487 0-733-480-245-479-245-1442 0-959 245-1439 246-480 733-480 491 0 736 480 246 480 246 1439 0 963-246 1442-245 480-736 480zm0 500q785 0 1199-621 414-620 414-1801 0-1178-414-1799-414-620-1199-620-784 0-1198 620-414 621-414 1799 0 1181 414 1801 414 621 1198 621z"/></defs><use xlink:href="#DejaVuSans-Oblique-71"/><use transform="translate(63.477 -16.406) scale(.7)" xlink:href="#DejaVuSans-30"/></g></g><g clip-path="url(#d05cee50d25)"><g transform="translate(37.301 95.088) scale(.1625 -.1625)"><defs><path id="DejaVuSans-31" transform="scale(.015625)" d="m794 531h1031v3560l-1122-225v575l1116 225h631v-4135h1031v-531h-2687v531z"/></defs><use xlink:href="#DejaVuSans-Oblique-71"/><use transform="translate(63.477 -16.406) scale(.7)" xlink:href="#DejaVuSans-31"/></g></g><g clip-path="url(#d05cee50d25)"><g transform="translate(37.301 141.44) scale(.1625 -.1625)"><defs><path id="DejaVuSans-32" transform="scale(.015625)" d="m1228 531h2203v-531h-2962v531q359 372 979 998 621 627 780 809 303 340 423 576 121 236 121 464 0 372-261 606-261 235-680 235-297 0-627-103-329-103-704-313v638q381 153 712 231 332 78 607 78 725 0 1156-363 431-362 431-968 0-288-108-546-107-257-392-607-78-91-497-524-418-433-1181-1211z"/></defs><use xlink:href="#DejaVuSans-Oblique-71"/><use transform="translate(63.477 -16.406) scale(.7)" xlink:href="#DejaVuSans-32"/></g></g><g clip-path="url(#d05cee50d25)"><g transform="translate(84.752 140.58) scale(.13 -.13)"><defs><path id="DejaVuSans-48" transform="scale(.015625)" d="m628 4666h631v-1913h2294v1913h631v-4666h-631v2222h-2294v-2222h-631v4666z"/></defs><use xlink:href="#DejaVuSans-48"/></g></g><g clip-path="url(#d05cee50d25)"><g transform="translate(174.03 140.58) scale(.13 -.13)"><defs><path id="DejaVuSans-54" transform="scale(.015625)" d="m-19 4666h3947v-532h-1656v-4134h-634v4134h-1657v532z"/><path id="DejaVuSans-2020" transform="scale(.015625)" d="m1325 4666h550v-1313h1147v-478h-1147v-3491h-550v3491h-1147v478h1147v1313z"/></defs><use transform="translate(0 .68438)" xlink:href="#DejaVuSans-54"/><use transform="translate(75.679 38.966) scale(.7)" xlink:href="#DejaVuSans-2020"/></g></g><g clip-path="url(#d05cee50d25)"><g transform="translate(271.09 140.58) scale(.13 -.13)"><use xlink:href="#DejaVuSans-54"/></g></g><g clip-path="url(#d05cee50d25)"><g transform="translate(363.79 94.224) scale(.13 -.13)"><use xlink:href="#DejaVuSans-54"/></g></g><g clip-path="url(#d05cee50d25)"><g transform="translate(359.44 140.58) scale(.13 -.13)"><use transform="translate(0 .68438)" xlink:href="#DejaVuSans-54"/><use transform="translate(75.679 38.966) scale(.7)" xlink:href="#DejaVuSans-2020"/></g></g><g clip-path="url(#d05cee50d25)"><g transform="translate(456.5 140.58) scale(.13 -.13)"><use xlink:href="#DejaVuSans-54"/></g></g><g clip-path="url(#d05cee50d25)"><g transform="translate(502.86 47.87) scale(.13 -.13)"><use xlink:href="#DejaVuSans-54"/></g></g><g clip-path="url(#d05cee50d25)"><g transform="translate(498.51 94.224) scale(.13 -.13)"><use transform="translate(0 .68438)" xlink:href="#DejaVuSans-54"/><use transform="translate(75.679 38.966) scale(.7)" xlink:href="#DejaVuSans-2020"/></g></g><g clip-path="url(#d05cee50d25)"><g transform="translate(501.94 140.58) scale(.13 -.13)"><use xlink:href="#DejaVuSans-48"/></g></g><defs><clipPath id="d05cee50d25"><rect x="7.2" y="7.2" width="576.57" height="157.6"/></clipPath></defs></svg>