<?xml version='1.0' encoding='utf-8'?>
<svg xmlns="http://www.w3.org/2000/svg" xmlns:ns1="http://sodipodi.sourceforge.net/DTD/sodipodi-0.dtd" xmlns:ns2="http://www.inkscape.org/namespaces/inkscape" version="1.1" id="svg1" width="100%" height="auto" viewBox="-20.0 -20.0 259.54296999999997 214.19938" ns1:docname="svg_fix_XXXXXX.svg">
  <rect id="path1" x="-20.0" y="-20.0" width="259.54296999999997" height="214.19938" fill="white" /><ns1:namedview id="namedview1" pagecolor="#ffffff" bordercolor="#000000" borderopacity="0.25" ns2:showpageshadow="2" ns2:pageopacity="0.0" ns2:pagecheckerboard="0" ns2:deskcolor="#d1d1d1" />
  <defs id="defs1" />
  <g id="g1" transform="translate(-190.46875,-31.839374)">
    <path id="path2" d="M -48.18947,0 H 48.18947" style="fill:none;stroke:#121619;stroke-width:0.3985;stroke-linecap:round;stroke-linejoin:miter;stroke-miterlimit:10;stroke-dasharray:0.3985, 0.99628;stroke-dashoffset:0;stroke-opacity:1" transform="matrix(1.8,0,0,-1.8,313.85087,118.93907)" />
    <path id="path3" d="M 0,-48.18947 V 48.18947" style="fill:none;stroke:#121619;stroke-width:0.3985;stroke-linecap:round;stroke-linejoin:miter;stroke-miterlimit:10;stroke-dasharray:0.3985, 0.99628;stroke-dashoffset:0;stroke-opacity:1" transform="matrix(1.8,0,0,-1.8,313.85087,118.93907)" />
    <g id="g3" aria-label="∣ψ&#10;α&#10;⟩" transform="matrix(1.8,0,0,1.8,380.33567,47.963267)">
      <path id="path4" d="m 1.1980671,-6.8741238 v 9.3663194 h 0.5034723 v -9.3663194 z m 0,0" style="fill:#121619;fill-opacity:1;fill-rule:nonzero;stroke:none" />
      <path id="path5" d="m 6.946765,-5.2682211 c 0.034722,-0.1128472 0.034722,-0.1215277 0.034722,-0.15625 0,-0.078125 -0.052083,-0.1041666 -0.1215278,-0.1041666 -0.1041667,0 -0.1128472,0.034722 -0.1388889,0.1649305 L 5.418987,-0.15537384 c -0.5642361,-0.0694444 -0.9548611,-0.3125 -0.9548611,-0.87673616 0,-0.15625 0,-0.3645833 0.4253472,-1.4236111 0.078125,-0.2170139 0.086805,-0.2864583 0.086805,-0.3819444 0,-0.4253472 -0.3559027,-0.6770833 -0.7204861,-0.6770833 -0.7899305,0 -1.1111111,1.1284722 -1.1111111,1.2239583 0,0.069444 0.052083,0.1041667 0.1128472,0.1041667 0.1041667,0 0.1128473,-0.052083 0.1388889,-0.1302084 0.2083334,-0.6944444 0.546875,-0.9722222 0.8333334,-0.9722222 0.1215277,0 0.1909722,0.078125 0.1909722,0.2604167 0,0.1822916 -0.069445,0.3732639 -0.1388889,0.546875 -0.4079861,1.0590277 -0.4079861,1.2239583 -0.4079861,1.3888889 0,0.75520829 0.6510416,1.10243051 1.484375,1.15451385 L 4.99364,1.5199734 c 0,0.078125 0.060764,0.1041666 0.1215278,0.1041666 0.1041667,0 0.1128472,-0.026042 0.1649306,-0.1996527 0.034722,-0.1736111 0,-0.060764 0.3298611,-1.34548614 0.3298611,0 0.9375,0 1.71875,-0.73784722 C 7.64989,-0.95398495 7.8321817,-1.2838461 7.9016262,-1.3966933 8.1620428,-1.9175266 8.27489,-2.6119711 8.27489,-2.8984294 c 0,-0.625 -0.3645833,-0.625 -0.390625,-0.625 -0.1909722,0 -0.4166666,0.2083333 -0.4166666,0.4166667 0,0.1302083 0.069444,0.1909722 0.1128472,0.2256944 0.078125,0.069444 0.3211806,0.2777778 0.3211806,0.6597222 0,0.6597223 -0.9027778,2.07465281 -2.2309028,2.07465281 z m 0,0" style="fill:#121619;fill-opacity:1;fill-rule:nonzero;stroke:none" />
      <path id="path6" d="m 11.942425,0.59115394 c 0.651041,-0.68576389 0.78993,-1.41493056 0.78993,-1.42361112 0,-0.0868056 -0.09549,-0.0868056 -0.112847,-0.0868056 -0.08681,0 -0.09549,0.0347222 -0.121528,0.14756944 -0.138889,0.48611111 -0.416666,0.88541667 -0.572916,1.06770834 -0.0087,-0.13888889 -0.0087,-0.26909723 -0.01736,-0.40798611 -0.07813,-0.74652778 -0.651042,-1.09374999 -1.232639,-1.09374999 -0.9114587,0 -1.7881948,0.7986111 -1.7881948,1.63194443 0,0.61631947 0.46875,1.06770837 1.1718748,1.06770837 0.3125,0 0.850695,-0.086806 1.449653,-0.51215281 0.08681,0.25173611 0.303819,0.51215281 0.668403,0.51215281 0.347222,0 0.572916,-0.2777778 0.572916,-0.4166667 0,-0.0868055 -0.07813,-0.0868055 -0.104166,-0.0868055 -0.06944,0 -0.08681,0.008681 -0.121528,0.0868055 -0.05208,0.1475695 -0.225694,0.2170139 -0.329861,0.2170139 -0.09549,0 -0.208333,0 -0.251736,-0.70312501 z M 11.464994,0.76476505 C 10.874716,1.2248345 10.345203,1.2942789 10.067425,1.2942789 c -0.3906252,0 -0.6597225,-0.234375 -0.6597225,-0.66840274 0,-0.20833334 0.095486,-0.76388889 0.3472223,-1.11111111 0.2690972,-0.390625 0.6510412,-0.52083335 0.9114582,-0.52083335 0.416667,0 0.633681,0.31250001 0.720486,0.78125001 0.0434,0.26041667 0.03472,0.63368056 0.07813,0.98958334 z m 0,0" style="fill:#121619;fill-opacity:1;fill-rule:nonzero;stroke:none" />
      <path id="path7" d="m 14.958918,2.5790012 1.527778,-4.765625 -1.527778,-4.765625 -0.486111,0.15625 1.536458,4.609375 -1.536458,4.6006944 z m 0,0" style="fill:#121619;fill-opacity:1;fill-rule:nonzero;stroke:none" />
    </g>
    <g id="g7" aria-label="∣ψ&#10;α+π/2&#10;⟩" transform="matrix(1.8,0,0,1.8,188.31347,52.663067)">
      <path id="path8" d="m 1.1973796,-6.8744468 v 9.3663195 h 0.5034723 v -9.3663195 z m 0,0" style="fill:#121619;fill-opacity:1;fill-rule:nonzero;stroke:none" />
      <path id="path9" d="m 6.9460775,-5.268544 c 0.034722,-0.1128472 0.034722,-0.1215278 0.034722,-0.15625 0,-0.078125 -0.052083,-0.1041666 -0.1215278,-0.1041666 -0.1041667,0 -0.1128472,0.034722 -0.1388889,0.1649305 l -1.3020833,5.20833334 c -0.5642361,-0.0694444 -0.9548611,-0.3125 -0.9548611,-0.87673614 0,-0.15625 0,-0.3645833 0.4253472,-1.4236111 0.078125,-0.2170139 0.086805,-0.2864583 0.086805,-0.3819444 0,-0.4253472 -0.3559027,-0.6770834 -0.7204861,-0.6770834 -0.7899305,0 -1.1111111,1.1284723 -1.1111111,1.2239584 0,0.069444 0.052083,0.1041666 0.1128472,0.1041666 0.1041667,0 0.1128473,-0.052083 0.1388889,-0.1302083 0.2083334,-0.6944444 0.546875,-0.9722222 0.8333334,-0.9722222 0.1215277,0 0.1909722,0.078125 0.1909722,0.2604167 0,0.1822916 -0.069445,0.3732638 -0.1388889,0.546875 -0.4079861,1.0590277 -0.4079861,1.2239583 -0.4079861,1.3888888 0,0.75520837 0.6510416,1.1024306 1.484375,1.15451393 L 4.9929525,1.5196505 c 0,0.078125 0.060764,0.1041666 0.1215278,0.1041666 0.1041667,0 0.1128472,-0.026042 0.1649306,-0.1996527 0.034722,-0.1736112 0,-0.060764 0.3298611,-1.34548616 0.3298611,0 0.9375,0 1.71875,-0.73784722 0.3211805,-0.29513889 0.5034722,-0.62500002 0.5729167,-0.73784722 0.2604166,-0.5208333 0.3732638,-1.2152778 0.3732638,-1.5017361 0,-0.625 -0.3645833,-0.625 -0.390625,-0.625 -0.1909722,0 -0.4166666,0.2083333 -0.4166666,0.4166667 0,0.1302083 0.069444,0.1909722 0.1128472,0.2256944 0.078125,0.069444 0.3211806,0.2777778 0.3211806,0.6597222 0,0.6597222 -0.9027778,2.0746528 -2.2309028,2.0746528 z m 0,0" style="fill:#121619;fill-opacity:1;fill-rule:nonzero;stroke:none" />
      <path id="path10" d="m 11.943907,0.59300116 c 0.651042,-0.68576389 0.789931,-1.41493056 0.789931,-1.42361111 0,-0.0868056 -0.09549,-0.0868056 -0.112847,-0.0868056 -0.08681,0 -0.09549,0.0347222 -0.121528,0.14756945 -0.138889,0.48611111 -0.416667,0.88541666 -0.572917,1.06770833 -0.0087,-0.13888889 -0.0087,-0.26909722 -0.01736,-0.40798611 -0.07813,-0.74652778 -0.651041,-1.09374992 -1.232639,-1.09374992 -0.911458,0 -1.7881941,0.79861103 -1.7881941,1.63194436 0,0.61631944 0.46875,1.06770834 1.1718751,1.06770834 0.3125,0 0.850694,-0.086805 1.449653,-0.51215278 0.08681,0.25173618 0.303819,0.51215278 0.668402,0.51215278 0.347223,0 0.572917,-0.2777777 0.572917,-0.4166666 0,-0.0868056 -0.07813,-0.0868056 -0.104167,-0.0868056 -0.06944,0 -0.08681,0.008681 -0.121527,0.0868056 -0.05208,0.1475694 -0.225695,0.2170139 -0.329861,0.2170139 -0.09549,0 -0.208334,0 -0.251737,-0.70312508 z m -0.47743,0.17361111 c -0.590278,0.46006943 -1.119792,0.52951393 -1.39757,0.52951393 -0.3906246,0 -0.6597218,-0.234375 -0.6597218,-0.66840282 0,-0.20833333 0.095486,-0.76388889 0.3472222,-1.11111111 0.2690976,-0.390625 0.6510416,-0.52083337 0.9114586,-0.52083337 0.416666,0 0.63368,0.31250004 0.720486,0.78125004 0.0434,0.26041666 0.03472,0.63368055 0.07813,0.98958333 z m 0,0" style="fill:#121619;fill-opacity:1;fill-rule:nonzero;stroke:none" />
      <path id="path11" d="m 15.207796,-1.8288738 v 1.42361107 h -1.423611 v 0.390625 h 1.423611 V 1.4089734 h 0.381945 v -1.42361113 h 1.423611 v -0.390625 H 15.589741 V -1.8288738 Z m 0,0" style="fill:#121619;fill-opacity:1;fill-rule:nonzero;stroke:none" />
      <path id="path12" d="m 19.580626,-0.71776273 h 0.737847 c -0.121527,0.52951389 -0.199652,0.91145833 -0.199652,1.30208333 0,0.30381945 0.07813,0.9114583 0.364583,0.9114583 0.15625,0 0.286458,-0.1475694 0.286458,-0.2777777 0,-0.052083 -0.02604,-0.1041667 -0.03472,-0.1302084 -0.225694,-0.39062498 -0.260417,-0.78124998 -0.260417,-1.08506942 0,-0.09548611 0,-0.35590278 0.07813,-0.72048611 h 0.789931 c 0.06944,0 0.329861,0 0.329861,-0.24305556 C 21.67264,-1.14311 21.499029,-1.14311 21.403543,-1.14311 H 19.01639 c -0.112847,0 -0.381944,0 -0.703125,0.29513894 -0.190972,0.17361111 -0.407986,0.46875 -0.407986,0.52083333 0,0.0868056 0.0868,0.0868056 0.112847,0.0868056 0.06076,0 0.07813,-0.008681 0.121528,-0.0607639 0.09549,-0.14756945 0.329861,-0.41666667 0.824653,-0.41666667 h 0.381944 c -0.199653,0.73784722 -0.607639,1.54513889 -0.685764,1.70138889 -0.05208,0.0954861 -0.130208,0.25173611 -0.130208,0.30381941 0,0.1302083 0.09549,0.2083333 0.217014,0.2083333 0.208333,0 0.277778,-0.2083333 0.347222,-0.3993055 0.121528,-0.38194443 0.121528,-0.39062499 0.199653,-0.71180555 z m 0,0" style="fill:#121619;fill-opacity:1;fill-rule:nonzero;stroke:none" />
      <path id="path13" d="m 23.020296,2.7718206 1.614584,-5.859375 -0.364584,-0.1041667 -1.614583,5.859375 z m 0,0" style="fill:#121619;fill-opacity:1;fill-rule:nonzero;stroke:none" />
      <path id="path14" d="m 28.400071,0.31522338 h -0.225695 c -0.0087,0.0868056 -0.06944,0.47743056 -0.15625,0.546875 -0.0434,0.0347222 -0.529514,0.0347222 -0.616319,0.0347222 h -1.119792 l 0.772569,-0.625 c 0.199653,-0.15625 0.729167,-0.53819444 0.920139,-0.72048611 0.173611,-0.18229167 0.425348,-0.48611111 0.425348,-0.91145827 0,-0.7465278 -0.677084,-1.1805556 -1.484375,-1.1805556 -0.763889,0 -1.302084,0.5034722 -1.302084,1.0677083 0,0.3038195 0.251736,0.3385417 0.321181,0.3385417 0.147569,0 0.32118,-0.1041667 0.32118,-0.3211806 0,-0.1302083 -0.07813,-0.3211805 -0.338541,-0.3211805 0.138889,-0.3038195 0.503472,-0.5295139 0.911458,-0.5295139 0.633681,0 0.963542,0.4600694 0.963542,0.9461806 0,0.42534716 -0.277778,0.85937494 -0.703125,1.24999994 L 25.674376,1.1832789 c -0.06076,0.060764 -0.06076,0.069445 -0.06076,0.2517361 h 2.595486 z m 0,0" style="fill:#121619;fill-opacity:1;fill-rule:nonzero;stroke:none" />
      <path id="path15" d="m 30.546338,2.5786782 1.527778,-4.765625 -1.527778,-4.765625 -0.486111,0.15625 1.536458,4.609375 -1.536458,4.6006945 z m 0,0" style="fill:#121619;fill-opacity:1;fill-rule:nonzero;stroke:none" />
    </g>
    <path id="path16" d="M 48.18947,0 C 48.18947,26.61464 26.61464,48.18947 0,48.18947 -26.61464,48.18947 -48.18947,26.61464 -48.18947,0 c 0,-26.61464 21.57483,-48.18947 48.18947,-48.18947 26.61464,0 48.18947,21.57483 48.18947,48.18947 z" style="fill:none;stroke:#121619;stroke-width:0.3985;stroke-linecap:round;stroke-linejoin:miter;stroke-miterlimit:10;stroke-dasharray:none;stroke-opacity:1" transform="matrix(1.8,0,0,-1.8,313.85087,118.93907)" />
    <path id="path17" d="M 0,0 34.0807,34.0807" style="fill:none;stroke:#0f62fe;stroke-width:1.49442;stroke-linecap:round;stroke-linejoin:miter;stroke-miterlimit:10;stroke-dasharray:none;stroke-opacity:1" transform="matrix(1.8,0,0,-1.8,313.85087,118.93907)" />
    <path id="path18" d="M 0,0 -34.0807,34.0807" style="fill:none;stroke:#9f1853;stroke-width:1.49442;stroke-linecap:round;stroke-linejoin:miter;stroke-miterlimit:10;stroke-dasharray:none;stroke-opacity:1" transform="matrix(1.8,0,0,-1.8,313.85087,118.93907)" />
    <path id="path19" d="m 24.09471,0 c 0,6.38911 -2.53941,12.51979 -4.52109,14.50148" style="fill:none;stroke:#121619;stroke-width:0.3985;stroke-linecap:round;stroke-linejoin:miter;stroke-miterlimit:10;stroke-dasharray:none;stroke-opacity:1" transform="matrix(1.8,0,0,-1.8,313.85087,118.93907)" />
    <path id="path20" d="M 3.58653,0 C 2.52383,0.19925 0.797,0.797 -0.3985,1.49438 V -1.49438 C 0.797,-0.797 2.52383,-0.19925 3.58653,0" style="fill:#121619;fill-opacity:1;fill-rule:nonzero;stroke:none" transform="matrix(-1.27278,-1.27278,-1.27278,1.27278,349.08338,92.836403)" />
    <path id="path21" d="m 4.0629039,-1.1188322 c 0.7465278,-0.8072916 1.0069445,-1.8402778 1.0069445,-1.9097222 0,-0.069444 -0.052083,-0.1041667 -0.1215278,-0.1041667 -0.1041667,0 -0.1128472,0.034722 -0.15625,0.1996528 -0.2256944,0.8159722 -0.703125,1.4322917 -0.7291667,1.4322917 -0.017361,0 -0.017361,-0.1996528 -0.017361,-0.3211806 -0.00868,-1.40625 -0.9201389,-1.6927083 -1.4670139,-1.6927083 -1.1197916,0 -2.23090274,1.09375 -2.23090274,2.2135417 0,0.78993051 0.55555555,1.38020829 1.39756944,1.38020829 0.5555556,0 1.1458333,-0.19965278 1.7795139,-0.66840278 0.1736111,0.63368056 0.6336805,0.66840278 0.78125,0.66840278 0.4513889,0 0.7118055,-0.40798611 0.7118055,-0.55555555 0,-0.0954861 -0.095486,-0.0954861 -0.1128472,-0.0954861 -0.095486,0 -0.1041666,0.0260417 -0.1302083,0.078125 -0.1302083,0.33854167 -0.3993056,0.34722223 -0.4427083,0.34722223 -0.1041667,0 -0.234375,0 -0.2690974,-0.97222227 z m -0.5989583,0.26909725 c -0.5642361,0.51215277 -1.2326389,0.703125 -1.6927083,0.703125 -0.4166667,0 -0.77256948,-0.234375 -0.77256948,-0.87673615 0,-0.2777777 0.12152778,-1.09375 0.50347218,-1.6319444 0.3125,-0.4427083 0.7465278,-0.6336806 1.0763889,-0.6336806 0.4340278,0 0.6770834,0.3125 0.78125,0.7986111 0.1215278,0.5381945 0.060764,1.1805556 0.1041667,1.64062505 z m 0,0" style="fill:#121619;fill-opacity:1;fill-rule:nonzero;stroke:none" aria-label="α" transform="matrix(1.8,0,0,1.8,359.05787,105.43187)" />
  </g>
</svg>