<?xml version="1.0" encoding="UTF-8"?><!DOCTYPE svg  PUBLIC '-//W3C//DTD SVG 1.1//EN'  'http://www.w3.org/Graphics/SVG/1.1/DTD/svg11.dtd'><svg width="453.05pt" height="338.16pt" version="1.1" viewBox="0 0 453.05 338.16" xmlns="http://www.w3.org/2000/svg" xmlns:xlink="http://www.w3.org/1999/xlink"><defs><style type="text/css">*{stroke-linejoin: round; stroke-linecap: butt}</style></defs><path d="m0 338.16h453.05v-338.16h-453.05z" fill="#ffffff"/><path d="m54.015 296.73h286.66v-289.53h-286.66z" fill="#ffffff"/><defs><path id="793e52f41da" d="m0 0v3.5" stroke="#000000" stroke-width=".8"/></defs><use x="72.967648" y="296.733894" stroke="#000000" stroke-width=".8" xlink:href="#793e52f41da"/><g transform="translate(71.403 330.25) rotate(-70) scale(.1 -.1)"><defs><path id="DejaVuSans-30" transform="scale(.015625)" d="m2034 4250q-487 0-733-480-245-479-245-1442 0-959 245-1439 246-480 733-480 491 0 736 480 246 480 246 1439 0 963-246 1442-245 480-736 480zm0 500q785 0 1199-621 414-620 414-1801 0-1178-414-1799-414-620-1199-620-784 0-1198 620-414 621-414 1799 0 1181 414 1801 414 621 1198 621z"/></defs><use xlink:href="#DejaVuSans-30"/><use transform="translate(63.623)" xlink:href="#DejaVuSans-30"/><use transform="translate(127.25)" xlink:href="#DejaVuSans-30"/><use transform="translate(190.87)" xlink:href="#DejaVuSans-30"/></g><use x="90.735755" y="296.733894" stroke="#000000" stroke-width=".8" xlink:href="#793e52f41da"/><g transform="translate(89.172 330.25) rotate(-70) scale(.1 -.1)"><defs><path id="DejaVuSans-31" transform="scale(.015625)" d="m794 531h1031v3560l-1122-225v575l1116 225h631v-4135h1031v-531h-2687v531z"/></defs><use xlink:href="#DejaVuSans-30"/><use transform="translate(63.623)" xlink:href="#DejaVuSans-30"/><use transform="translate(127.25)" xlink:href="#DejaVuSans-30"/><use transform="translate(190.87)" xlink:href="#DejaVuSans-31"/></g><use x="108.503863" y="296.733894" stroke="#000000" stroke-width=".8" xlink:href="#793e52f41da"/><g transform="translate(106.94 330.25) rotate(-70) scale(.1 -.1)"><use xlink:href="#DejaVuSans-30"/><use transform="translate(63.623)" xlink:href="#DejaVuSans-30"/><use transform="translate(127.25)" xlink:href="#DejaVuSans-31"/><use transform="translate(190.87)" xlink:href="#DejaVuSans-30"/></g><use x="126.27197" y="296.733894" stroke="#000000" stroke-width=".8" xlink:href="#793e52f41da"/><g transform="translate(124.71 330.25) rotate(-70) scale(.1 -.1)"><use xlink:href="#DejaVuSans-30"/><use transform="translate(63.623)" xlink:href="#DejaVuSans-30"/><use transform="translate(127.25)" xlink:href="#DejaVuSans-31"/><use transform="translate(190.87)" xlink:href="#DejaVuSans-31"/></g><use x="144.040078" y="296.733894" stroke="#000000" stroke-width=".8" xlink:href="#793e52f41da"/><g transform="translate(142.48 330.25) rotate(-70) scale(.1 -.1)"><use xlink:href="#DejaVuSans-30"/><use transform="translate(63.623)" xlink:href="#DejaVuSans-31"/><use transform="translate(127.25)" xlink:href="#DejaVuSans-30"/><use transform="translate(190.87)" xlink:href="#DejaVuSans-30"/></g><use x="161.808185" y="296.733894" stroke="#000000" stroke-width=".8" xlink:href="#793e52f41da"/><g transform="translate(160.24 330.25) rotate(-70) scale(.1 -.1)"><use xlink:href="#DejaVuSans-30"/><use transform="translate(63.623)" xlink:href="#DejaVuSans-31"/><use transform="translate(127.25)" xlink:href="#DejaVuSans-30"/><use transform="translate(190.87)" xlink:href="#DejaVuSans-31"/></g><use x="179.576293" y="296.733894" stroke="#000000" stroke-width=".8" xlink:href="#793e52f41da"/><g transform="translate(178.01 330.25) rotate(-70) scale(.1 -.1)"><use xlink:href="#DejaVuSans-30"/><use transform="translate(63.623)" xlink:href="#DejaVuSans-31"/><use transform="translate(127.25)" xlink:href="#DejaVuSans-31"/><use transform="translate(190.87)" xlink:href="#DejaVuSans-30"/></g><use x="197.3444" y="296.733894" stroke="#000000" stroke-width=".8" xlink:href="#793e52f41da"/><g transform="translate(195.78 330.25) rotate(-70) scale(.1 -.1)"><use xlink:href="#DejaVuSans-30"/><use transform="translate(63.623)" xlink:href="#DejaVuSans-31"/><use transform="translate(127.25)" xlink:href="#DejaVuSans-31"/><use transform="translate(190.87)" xlink:href="#DejaVuSans-31"/></g><use x="215.112507" y="296.733894" stroke="#000000" stroke-width=".8" xlink:href="#793e52f41da"/><g transform="translate(213.55 330.25) rotate(-70) scale(.1 -.1)"><use xlink:href="#DejaVuSans-31"/><use transform="translate(63.623)" xlink:href="#DejaVuSans-30"/><use transform="translate(127.25)" xlink:href="#DejaVuSans-30"/><use transform="translate(190.87)" xlink:href="#DejaVuSans-30"/></g><use x="232.880615" y="296.733894" stroke="#000000" stroke-width=".8" xlink:href="#793e52f41da"/><g transform="translate(231.32 330.25) rotate(-70) scale(.1 -.1)"><use xlink:href="#DejaVuSans-31"/><use transform="translate(63.623)" xlink:href="#DejaVuSans-30"/><use transform="translate(127.25)" xlink:href="#DejaVuSans-30"/><use transform="translate(190.87)" xlink:href="#DejaVuSans-31"/></g><use x="250.648722" y="296.733894" stroke="#000000" stroke-width=".8" xlink:href="#793e52f41da"/><g transform="translate(249.08 330.25) rotate(-70) scale(.1 -.1)"><use xlink:href="#DejaVuSans-31"/><use transform="translate(63.623)" xlink:href="#DejaVuSans-30"/><use transform="translate(127.25)" xlink:href="#DejaVuSans-31"/><use transform="translate(190.87)" xlink:href="#DejaVuSans-31"/></g><use x="268.41683" y="296.733894" stroke="#000000" stroke-width=".8" xlink:href="#793e52f41da"/><g transform="translate(266.85 330.25) rotate(-70) scale(.1 -.1)"><use xlink:href="#DejaVuSans-31"/><use transform="translate(63.623)" xlink:href="#DejaVuSans-31"/><use transform="translate(127.25)" xlink:href="#DejaVuSans-30"/><use transform="translate(190.87)" xlink:href="#DejaVuSans-30"/></g><use x="286.184937" y="296.733894" stroke="#000000" stroke-width=".8" xlink:href="#793e52f41da"/><g transform="translate(284.62 330.25) rotate(-70) scale(.1 -.1)"><use xlink:href="#DejaVuSans-31"/><use transform="translate(63.623)" xlink:href="#DejaVuSans-31"/><use transform="translate(127.25)" xlink:href="#DejaVuSans-30"/><use transform="translate(190.87)" xlink:href="#DejaVuSans-31"/></g><use x="303.953045" y="296.733894" stroke="#000000" stroke-width=".8" xlink:href="#793e52f41da"/><g transform="translate(302.39 330.25) rotate(-70) scale(.1 -.1)"><use xlink:href="#DejaVuSans-31"/><use transform="translate(63.623)" xlink:href="#DejaVuSans-31"/><use transform="translate(127.25)" xlink:href="#DejaVuSans-31"/><use transform="translate(190.87)" xlink:href="#DejaVuSans-30"/></g><use x="321.721152" y="296.733894" stroke="#000000" stroke-width=".8" xlink:href="#793e52f41da"/><g transform="translate(320.16 330.25) rotate(-70) scale(.1 -.1)"><use xlink:href="#DejaVuSans-31"/><use transform="translate(63.623)" xlink:href="#DejaVuSans-31"/><use transform="translate(127.25)" xlink:href="#DejaVuSans-31"/><use transform="translate(190.87)" xlink:href="#DejaVuSans-31"/></g><path d="m54.015 296.73h286.66" clip-path="url(#5117894426f)" fill="none" stroke="#b0b0b0" stroke-dasharray="2.96,1.28" stroke-width=".8"/><defs><path id="ad91b753e9d" d="m0 0h-3.5" stroke="#000000" stroke-width=".8"/></defs><use x="54.015" y="296.733894" stroke="#000000" stroke-width=".8" xlink:href="#ad91b753e9d"/><g transform="translate(24.749 300.53) scale(.1 -.1)"><defs><path id="DejaVuSans-2e" transform="scale(.015625)" d="m684 794h660v-794h-660v794z"/></defs><use xlink:href="#DejaVuSans-30"/><use transform="translate(63.623)" xlink:href="#DejaVuSans-2e"/><use transform="translate(95.41)" xlink:href="#DejaVuSans-30"/><use transform="translate(159.03)" xlink:href="#DejaVuSans-30"/></g><path d="m54.015 218.21h286.66" clip-path="url(#5117894426f)" fill="none" stroke="#b0b0b0" stroke-dasharray="2.96,1.28" stroke-width=".8"/><use x="54.015" y="218.213721" stroke="#000000" stroke-width=".8" xlink:href="#ad91b753e9d"/><g transform="translate(24.749 222.01) scale(.1 -.1)"><defs><path id="DejaVuSans-35" transform="scale(.015625)" d="m691 4666h2478v-532h-1900v-1143q137 47 274 70 138 23 276 23 781 0 1237-428 457-428 457-1159 0-753-469-1171-469-417-1322-417-294 0-599 50-304 50-629 150v635q281-153 581-228t634-75q541 0 856 284 316 284 316 772 0 487-316 771-315 285-856 285-253 0-505-56-251-56-513-175v2344z"/></defs><use xlink:href="#DejaVuSans-30"/><use transform="translate(63.623)" xlink:href="#DejaVuSans-2e"/><use transform="translate(95.41)" xlink:href="#DejaVuSans-31"/><use transform="translate(159.03)" xlink:href="#DejaVuSans-35"/></g><path d="m54.015 139.69h286.66" clip-path="url(#5117894426f)" fill="none" stroke="#b0b0b0" stroke-dasharray="2.96,1.28" stroke-width=".8"/><use x="54.015" y="139.693549" stroke="#000000" stroke-width=".8" xlink:href="#ad91b753e9d"/><g transform="translate(24.749 143.49) scale(.1 -.1)"><defs><path id="DejaVuSans-33" transform="scale(.015625)" d="m2597 2516q453-97 707-404 255-306 255-756 0-690-475-1069-475-378-1350-378-293 0-604 58t-642 174v609q262-153 574-231 313-78 654-78 593 0 904 234t311 681q0 413-289 645-289 233-804 233h-544v519h569q465 0 712 186t247 536q0 359-255 551-254 193-729 193-260 0-557-57-297-56-653-174v562q360 100 674 150t592 50q719 0 1137-327 419-326 419-882 0-388-222-655t-631-370z"/></defs><use xlink:href="#DejaVuSans-30"/><use transform="translate(63.623)" xlink:href="#DejaVuSans-2e"/><use transform="translate(95.41)" xlink:href="#DejaVuSans-33"/><use transform="translate(159.03)" xlink:href="#DejaVuSans-30"/></g><path d="m54.015 61.173h286.66" clip-path="url(#5117894426f)" fill="none" stroke="#b0b0b0" stroke-dasharray="2.96,1.28" stroke-width=".8"/><use x="54.015" y="61.173376" stroke="#000000" stroke-width=".8" xlink:href="#ad91b753e9d"/><g transform="translate(24.749 64.973) scale(.1 -.1)"><defs><path id="DejaVuSans-34" transform="scale(.015625)" d="m2419 4116-1594-2491h1594v2491zm-166 550h794v-3041h666v-525h-666v-1100h-628v1100h-2106v609l1940 2957z"/></defs><use xlink:href="#DejaVuSans-30"/><use transform="translate(63.623)" xlink:href="#DejaVuSans-2e"/><use transform="translate(95.41)" xlink:href="#DejaVuSans-34"/><use transform="translate(159.03)" xlink:href="#DejaVuSans-35"/></g><g transform="translate(17.838 211.67) rotate(-90) scale(.14 -.14)"><defs><path id="DejaVuSans-51" transform="scale(.015625)" d="m2522 4238q-688 0-1093-513-404-512-404-1397 0-881 404-1394 405-512 1093-512 687 0 1089 512 402 513 402 1394 0 885-402 1397-402 513-1089 513zm884-4154 832-909h-763l-691 747q-103-6-158-9-54-4-104-4-984 0-1574 658-589 658-589 1761 0 1106 589 1764 590 658 1574 658 981 0 1568-658 588-658 588-1764 0-812-327-1391-326-578-945-853z"/><path id="DejaVuSans-75" transform="scale(.015625)" d="m544 1381v2119h575v-2097q0-497 193-746 194-248 582-248 465 0 735 297 271 297 271 810v1984h575v-3500h-575v538q-209-319-486-474-276-155-642-155-603 0-916 375-312 375-312 1097zm1447 2203z"/><path id="DejaVuSans-61" transform="scale(.015625)" d="m2194 1759q-697 0-966-159t-269-544q0-306 202-486 202-179 548-179 479 0 768 339t289 901v128h-572zm1147 238v-1997h-575v531q-197-318-491-470t-719-152q-537 0-855 302-317 302-317 808 0 590 395 890 396 300 1180 300h807v57q0 397-261 614t-733 217q-300 0-585-72-284-72-546-216v532q315 122 612 182 297 61 578 61 760 0 1135-394 375-393 375-1193z"/><path id="DejaVuSans-73" transform="scale(.015625)" d="m2834 3397v-544q-243 125-506 187-262 63-544 63-428 0-642-131t-214-394q0-200 153-314t616-217l197-44q612-131 870-370t258-667q0-488-386-773-386-284-1061-284-281 0-586 55t-642 164v594q319-166 628-249 309-82 613-82 406 0 624 139 219 139 219 392 0 234-158 359-157 125-692 241l-200 47q-534 112-772 345-237 233-237 639 0 494 350 762 350 269 994 269 318 0 599-47 282-46 519-140z"/><path id="DejaVuSans-69" transform="scale(.015625)" d="m603 3500h575v-3500h-575v3500zm0 1363h575v-729h-575v729z"/><path id="DejaVuSans-2d" transform="scale(.015625)" d="m313 2009h1684v-512h-1684v512z"/><path id="DejaVuSans-70" transform="scale(.015625)" d="m1159 525v-1856h-578v4831h578v-531q182 312 458 463 277 152 661 152 638 0 1036-506 399-506 399-1331t-399-1332q-398-506-1036-506-384 0-661 152-276 152-458 464zm1957 1222q0 634-261 995t-717 361q-457 0-718-361t-261-995 261-995 718-361q456 0 717 361t261 995z"/><path id="DejaVuSans-72" transform="scale(.015625)" d="m2631 2963q-97 56-211 82-114 27-251 27-488 0-749-317t-261-911v-1844h-578v3500h578v-544q182 319 472 473 291 155 707 155 59 0 131-8 72-7 159-23l3-590z"/><path id="DejaVuSans-6f" transform="scale(.015625)" d="m1959 3097q-462 0-731-361t-269-989 267-989q268-361 733-361 460 0 728 362 269 363 269 988 0 622-269 986-268 364-728 364zm0 487q750 0 1178-488 429-487 429-1349 0-859-429-1349-428-489-1178-489-753 0-1180 489-426 490-426 1349 0 862 426 1349 427 488 1180 488z"/><path id="DejaVuSans-62" transform="scale(.015625)" d="m3116 1747q0 634-261 995t-717 361q-457 0-718-361t-261-995 261-995 718-361q456 0 717 361t261 995zm-1957 1222q182 312 458 463 277 152 661 152 638 0 1036-506 399-506 399-1331t-399-1332q-398-506-1036-506-384 0-661 152-276 152-458 464v-525h-578v4863h578v-1894z"/><path id="DejaVuSans-6c" transform="scale(.015625)" d="m603 4863h575v-4863h-575v4863z"/><path id="DejaVuSans-74" transform="scale(.015625)" d="m1172 4494v-994h1184v-447h-1184v-1900q0-428 117-550t477-122h590v-481h-590q-666 0-919 248-253 249-253 905v1900h-422v447h422v994h578z"/><path id="DejaVuSans-79" transform="scale(.015625)" d="m2059-325q-243-625-475-815-231-191-618-191h-460v481h338q237 0 368 113 132 112 291 531l103 262-1415 3444h609l1094-2737 1094 2737h609l-1538-3825z"/></defs><use xlink:href="#DejaVuSans-51"/><use transform="translate(78.711)" xlink:href="#DejaVuSans-75"/><use transform="translate(142.09)" xlink:href="#DejaVuSans-61"/><use transform="translate(203.37)" xlink:href="#DejaVuSans-73"/><use transform="translate(255.47)" xlink:href="#DejaVuSans-69"/><use transform="translate(283.25)" xlink:href="#DejaVuSans-2d"/><use transform="translate(319.34)" xlink:href="#DejaVuSans-70"/><use transform="translate(382.81)" xlink:href="#DejaVuSans-72"/><use transform="translate(421.68)" xlink:href="#DejaVuSans-6f"/><use transform="translate(482.86)" xlink:href="#DejaVuSans-62"/><use transform="translate(546.33)" xlink:href="#DejaVuSans-61"/><use transform="translate(607.61)" xlink:href="#DejaVuSans-62"/><use transform="translate(671.09)" xlink:href="#DejaVuSans-69"/><use transform="translate(698.87)" xlink:href="#DejaVuSans-6c"/><use transform="translate(726.66)" xlink:href="#DejaVuSans-69"/><use transform="translate(754.44)" xlink:href="#DejaVuSans-74"/><use transform="translate(793.65)" xlink:href="#DejaVuSans-79"/></g><path d="m67.045 296.73h5.9227v-242.76h-5.9227z" clip-path="url(#5117894426f)" fill="#1f77b4"/><path d="m84.813 296.73h5.9227v-4.5803h-5.9227z" clip-path="url(#5117894426f)" fill="#1f77b4"/><path d="m102.58 296.73h5.9227v-1.4395h-5.9227z" clip-path="url(#5117894426f)" fill="#1f77b4"/><path d="m120.35 296.73h5.9227v-2.0939h-5.9227z" clip-path="url(#5117894426f)" fill="#1f77b4"/><path d="m138.12 296.73h5.9227v-1.0469h-5.9227z" clip-path="url(#5117894426f)" fill="#1f77b4"/><path d="m155.89 296.73h5.9227v-0.3926h-5.9227z" clip-path="url(#5117894426f)" fill="#1f77b4"/><path d="m173.65 296.73h5.9227v-0.52347h-5.9227z" clip-path="url(#5117894426f)" fill="#1f77b4"/><path d="m191.42 296.73h5.9227v-13.61h-5.9227z" clip-path="url(#5117894426f)" fill="#1f77b4"/><path d="m209.19 296.73h5.9227v-11.778h-5.9227z" clip-path="url(#5117894426f)" fill="#1f77b4"/><path d="m226.96 296.73h5.9227v-0.13087h-5.9227z" clip-path="url(#5117894426f)" fill="#1f77b4"/><path d="m244.73 296.73h5.9227v-3.0099h-5.9227z" clip-path="url(#5117894426f)" fill="#1f77b4"/><path d="m262.49 296.73h5.9227v-3.1408h-5.9227z" clip-path="url(#5117894426f)" fill="#1f77b4"/><path d="m280.26 296.73h5.9227v-3.0099h-5.9227z" clip-path="url(#5117894426f)" fill="#1f77b4"/><path d="m298.03 296.73h5.9227v-6.8051h-5.9227z" clip-path="url(#5117894426f)" fill="#1f77b4"/><path d="m315.8 296.73h5.9227v-229.15h-5.9227z" clip-path="url(#5117894426f)" fill="#1f77b4"/><path d="m72.968 296.73h5.9227v-263.21h-5.9227z" clip-path="url(#5117894426f)" fill="#ff7f0e"/><path d="m90.736 296.73h5.9227v-1.3917h-5.9227z" clip-path="url(#5117894426f)" fill="#ff7f0e"/><path d="m108.5 296.73h5.9227v-0.17397h-5.9227z" clip-path="url(#5117894426f)" fill="#ff7f0e"/><path d="m126.27 296.73h5.9227v-1.5657h-5.9227z" clip-path="url(#5117894426f)" fill="#ff7f0e"/><path d="m144.04 296.73h5.9227v-0.17397h-5.9227z" clip-path="url(#5117894426f)" fill="#ff7f0e"/><path d="m161.81 296.73h5.9227v-0.17397h-5.9227z" clip-path="url(#5117894426f)" fill="#ff7f0e"/><path d="m179.58 296.73h5.9227v-0.17397h-5.9227z" clip-path="url(#5117894426f)" fill="#ff7f0e"/><path d="m197.34 296.73h5.9227v-10.264h-5.9227z" clip-path="url(#5117894426f)" fill="#ff7f0e"/><path d="m215.11 296.73h5.9227v-7.3066h-5.9227z" clip-path="url(#5117894426f)" fill="#ff7f0e"/><path d="m250.65 296.73h5.9227v-1.3917h-5.9227z" clip-path="url(#5117894426f)" fill="#ff7f0e"/><path d="m268.42 296.73h5.9227v-1.3917h-5.9227z" clip-path="url(#5117894426f)" fill="#ff7f0e"/><path d="m286.18 296.73h5.9227v-2.2616h-5.9227z" clip-path="url(#5117894426f)" fill="#ff7f0e"/><path d="m303.95 296.73h5.9227v-2.7835h-5.9227z" clip-path="url(#5117894426f)" fill="#ff7f0e"/><path d="m321.72 296.73h5.9227v-231.2h-5.9227z" clip-path="url(#5117894426f)" fill="#ff7f0e"/><path d="m54.015 296.73v-289.53" fill="none" stroke="#000000" stroke-linecap="square" stroke-width=".8"/><path d="m340.67 296.73v-289.53" fill="none" stroke="#000000" stroke-linecap="square" stroke-width=".8"/><path d="m54.015 296.73h286.66" fill="none" stroke="#000000" stroke-linecap="square" stroke-width=".8"/><path d="m54.015 7.2h286.66" fill="none" stroke="#000000" stroke-linecap="square" stroke-width=".8"/><g transform="translate(55.692 39.621) scale(.1 -.1)"><defs><path id="DejaVuSans-36" transform="scale(.015625)" d="m2113 2584q-425 0-674-291-248-290-248-796 0-503 248-796 249-292 674-292t673 292q248 293 248 796 0 506-248 796-248 291-673 291zm1253 1979v-575q-238 112-480 171-242 60-480 60-625 0-955-422-329-422-376-1275 184 272 462 417 279 145 613 145 703 0 1111-427 408-426 408-1160 0-719-425-1154-425-434-1131-434-810 0-1238 620-428 621-428 1799 0 1106 525 1764t1409 658q238 0 480-47t505-140z"/></defs><use xlink:href="#DejaVuSans-30"/><use transform="translate(63.623)" xlink:href="#DejaVuSans-2e"/><use transform="translate(95.41)" xlink:href="#DejaVuSans-34"/><use transform="translate(159.03)" xlink:href="#DejaVuSans-36"/><use transform="translate(222.66)" xlink:href="#DejaVuSans-34"/></g><g transform="translate(73.46 289.71) scale(.1 -.1)"><defs><path id="DejaVuSans-39" transform="scale(.015625)" d="m703 97v575q238-113 481-172 244-59 479-59 625 0 954 420 330 420 377 1277-181-269-460-413-278-144-615-144-700 0-1108 423-408 424-408 1159 0 718 425 1152 425 435 1131 435 810 0 1236-621 427-620 427-1801 0-1103-524-1761-523-658-1407-658-238 0-482 47-243 47-506 141zm1256 1978q425 0 673 290 249 291 249 798 0 503-249 795-248 292-673 292t-673-292-248-795q0-507 248-798 248-290 673-290z"/></defs><use xlink:href="#DejaVuSans-30"/><use transform="translate(63.623)" xlink:href="#DejaVuSans-2e"/><use transform="translate(95.41)" xlink:href="#DejaVuSans-30"/><use transform="translate(159.03)" xlink:href="#DejaVuSans-30"/><use transform="translate(222.66)" xlink:href="#DejaVuSans-39"/></g><g transform="translate(91.228 293.01) scale(.1 -.1)"><use xlink:href="#DejaVuSans-30"/><use transform="translate(63.623)" xlink:href="#DejaVuSans-2e"/><use transform="translate(95.41)" xlink:href="#DejaVuSans-30"/><use transform="translate(159.03)" xlink:href="#DejaVuSans-30"/><use transform="translate(222.66)" xlink:href="#DejaVuSans-33"/></g><g transform="translate(109 292.46) scale(.1 -.1)"><use xlink:href="#DejaVuSans-30"/><use transform="translate(63.623)" xlink:href="#DejaVuSans-2e"/><use transform="translate(95.41)" xlink:href="#DejaVuSans-30"/><use transform="translate(159.03)" xlink:href="#DejaVuSans-30"/><use transform="translate(222.66)" xlink:href="#DejaVuSans-34"/></g><g transform="translate(126.76 293.55) scale(.1 -.1)"><defs><path id="DejaVuSans-32" transform="scale(.015625)" d="m1228 531h2203v-531h-2962v531q359 372 979 998 621 627 780 809 303 340 423 576 121 236 121 464 0 372-261 606-261 235-680 235-297 0-627-103-329-103-704-313v638q381 153 712 231 332 78 607 78 725 0 1156-363 431-362 431-968 0-288-108-546-107-257-392-607-78-91-497-524-418-433-1181-1211z"/></defs><use xlink:href="#DejaVuSans-30"/><use transform="translate(63.623)" xlink:href="#DejaVuSans-2e"/><use transform="translate(95.41)" xlink:href="#DejaVuSans-30"/><use transform="translate(159.03)" xlink:href="#DejaVuSans-30"/><use transform="translate(222.66)" xlink:href="#DejaVuSans-32"/></g><g transform="translate(144.53 294.1) scale(.1 -.1)"><use xlink:href="#DejaVuSans-30"/><use transform="translate(63.623)" xlink:href="#DejaVuSans-2e"/><use transform="translate(95.41)" xlink:href="#DejaVuSans-30"/><use transform="translate(159.03)" xlink:href="#DejaVuSans-30"/><use transform="translate(222.66)" xlink:href="#DejaVuSans-31"/></g><g transform="translate(162.3 294.1) scale(.1 -.1)"><use xlink:href="#DejaVuSans-30"/><use transform="translate(63.623)" xlink:href="#DejaVuSans-2e"/><use transform="translate(95.41)" xlink:href="#DejaVuSans-30"/><use transform="translate(159.03)" xlink:href="#DejaVuSans-30"/><use transform="translate(222.66)" xlink:href="#DejaVuSans-31"/></g><g transform="translate(180.07 280.36) scale(.1 -.1)"><use xlink:href="#DejaVuSans-30"/><use transform="translate(63.623)" xlink:href="#DejaVuSans-2e"/><use transform="translate(95.41)" xlink:href="#DejaVuSans-30"/><use transform="translate(159.03)" xlink:href="#DejaVuSans-32"/><use transform="translate(222.66)" xlink:href="#DejaVuSans-36"/></g><g transform="translate(197.84 282.01) scale(.1 -.1)"><use xlink:href="#DejaVuSans-30"/><use transform="translate(63.623)" xlink:href="#DejaVuSans-2e"/><use transform="translate(95.41)" xlink:href="#DejaVuSans-30"/><use transform="translate(159.03)" xlink:href="#DejaVuSans-32"/><use transform="translate(222.66)" xlink:href="#DejaVuSans-33"/></g><g transform="translate(226.74 294.65) scale(.1 -.1)"><use xlink:href="#DejaVuSans-30"/></g><g transform="translate(233.37 291.36) scale(.1 -.1)"><use xlink:href="#DejaVuSans-30"/><use transform="translate(63.623)" xlink:href="#DejaVuSans-2e"/><use transform="translate(95.41)" xlink:href="#DejaVuSans-30"/><use transform="translate(159.03)" xlink:href="#DejaVuSans-30"/><use transform="translate(222.66)" xlink:href="#DejaVuSans-36"/></g><g transform="translate(251.14 291.36) scale(.1 -.1)"><use xlink:href="#DejaVuSans-30"/><use transform="translate(63.623)" xlink:href="#DejaVuSans-2e"/><use transform="translate(95.41)" xlink:href="#DejaVuSans-30"/><use transform="translate(159.03)" xlink:href="#DejaVuSans-30"/><use transform="translate(222.66)" xlink:href="#DejaVuSans-36"/></g><g transform="translate(268.91 291.36) scale(.1 -.1)"><use xlink:href="#DejaVuSans-30"/><use transform="translate(63.623)" xlink:href="#DejaVuSans-2e"/><use transform="translate(95.41)" xlink:href="#DejaVuSans-30"/><use transform="translate(159.03)" xlink:href="#DejaVuSans-30"/><use transform="translate(222.66)" xlink:href="#DejaVuSans-36"/></g><g transform="translate(286.68 287.51) scale(.1 -.1)"><use xlink:href="#DejaVuSans-30"/><use transform="translate(63.623)" xlink:href="#DejaVuSans-2e"/><use transform="translate(95.41)" xlink:href="#DejaVuSans-30"/><use transform="translate(159.03)" xlink:href="#DejaVuSans-31"/><use transform="translate(222.66)" xlink:href="#DejaVuSans-33"/></g><g transform="translate(304.45 53.911) scale(.1 -.1)"><defs><path id="DejaVuSans-38" transform="scale(.015625)" d="m2034 2216q-450 0-708-241-257-241-257-662 0-422 257-663 258-241 708-241t709 242q260 243 260 662 0 421-258 662-257 241-711 241zm-631 268q-406 100-633 378-226 279-226 679 0 559 398 884 399 325 1092 325 697 0 1094-325t397-884q0-400-227-679-226-278-629-378 456-106 710-416 255-309 255-755 0-679-414-1042-414-362-1186-362-771 0-1186 362-414 363-414 1042 0 446 256 755 257 310 713 416zm-231 997q0-362 226-565 227-203 636-203 407 0 636 203 230 203 230 565 0 363-230 566-229 203-636 203-409 0-636-203-226-203-226-566z"/></defs><use xlink:href="#DejaVuSans-30"/><use transform="translate(63.623)" xlink:href="#DejaVuSans-2e"/><use transform="translate(95.41)" xlink:href="#DejaVuSans-34"/><use transform="translate(159.03)" xlink:href="#DejaVuSans-33"/><use transform="translate(222.66)" xlink:href="#DejaVuSans-38"/></g><g transform="translate(55.692 39.621) scale(.1 -.1)"><use xlink:href="#DejaVuSans-30"/><use transform="translate(63.623)" xlink:href="#DejaVuSans-2e"/><use transform="translate(95.41)" xlink:href="#DejaVuSans-34"/><use transform="translate(159.03)" xlink:href="#DejaVuSans-36"/><use transform="translate(222.66)" xlink:href="#DejaVuSans-34"/></g><g transform="translate(73.46 289.71) scale(.1 -.1)"><use xlink:href="#DejaVuSans-30"/><use transform="translate(63.623)" xlink:href="#DejaVuSans-2e"/><use transform="translate(95.41)" xlink:href="#DejaVuSans-30"/><use transform="translate(159.03)" xlink:href="#DejaVuSans-30"/><use transform="translate(222.66)" xlink:href="#DejaVuSans-39"/></g><g transform="translate(91.228 293.01) scale(.1 -.1)"><use xlink:href="#DejaVuSans-30"/><use transform="translate(63.623)" xlink:href="#DejaVuSans-2e"/><use transform="translate(95.41)" xlink:href="#DejaVuSans-30"/><use transform="translate(159.03)" xlink:href="#DejaVuSans-30"/><use transform="translate(222.66)" xlink:href="#DejaVuSans-33"/></g><g transform="translate(109 292.46) scale(.1 -.1)"><use xlink:href="#DejaVuSans-30"/><use transform="translate(63.623)" xlink:href="#DejaVuSans-2e"/><use transform="translate(95.41)" xlink:href="#DejaVuSans-30"/><use transform="translate(159.03)" xlink:href="#DejaVuSans-30"/><use transform="translate(222.66)" xlink:href="#DejaVuSans-34"/></g><g transform="translate(126.76 293.55) scale(.1 -.1)"><use xlink:href="#DejaVuSans-30"/><use transform="translate(63.623)" xlink:href="#DejaVuSans-2e"/><use transform="translate(95.41)" xlink:href="#DejaVuSans-30"/><use transform="translate(159.03)" xlink:href="#DejaVuSans-30"/><use transform="translate(222.66)" xlink:href="#DejaVuSans-32"/></g><g transform="translate(144.53 294.1) scale(.1 -.1)"><use xlink:href="#DejaVuSans-30"/><use transform="translate(63.623)" xlink:href="#DejaVuSans-2e"/><use transform="translate(95.41)" xlink:href="#DejaVuSans-30"/><use transform="translate(159.03)" xlink:href="#DejaVuSans-30"/><use transform="translate(222.66)" xlink:href="#DejaVuSans-31"/></g><g transform="translate(162.3 294.1) scale(.1 -.1)"><use xlink:href="#DejaVuSans-30"/><use transform="translate(63.623)" xlink:href="#DejaVuSans-2e"/><use transform="translate(95.41)" xlink:href="#DejaVuSans-30"/><use transform="translate(159.03)" xlink:href="#DejaVuSans-30"/><use transform="translate(222.66)" xlink:href="#DejaVuSans-31"/></g><g transform="translate(180.07 280.36) scale(.1 -.1)"><use xlink:href="#DejaVuSans-30"/><use transform="translate(63.623)" xlink:href="#DejaVuSans-2e"/><use transform="translate(95.41)" xlink:href="#DejaVuSans-30"/><use transform="translate(159.03)" xlink:href="#DejaVuSans-32"/><use transform="translate(222.66)" xlink:href="#DejaVuSans-36"/></g><g transform="translate(197.84 282.01) scale(.1 -.1)"><use xlink:href="#DejaVuSans-30"/><use transform="translate(63.623)" xlink:href="#DejaVuSans-2e"/><use transform="translate(95.41)" xlink:href="#DejaVuSans-30"/><use transform="translate(159.03)" xlink:href="#DejaVuSans-32"/><use transform="translate(222.66)" xlink:href="#DejaVuSans-33"/></g><g transform="translate(226.74 294.65) scale(.1 -.1)"><use xlink:href="#DejaVuSans-30"/></g><g transform="translate(233.37 291.36) scale(.1 -.1)"><use xlink:href="#DejaVuSans-30"/><use transform="translate(63.623)" xlink:href="#DejaVuSans-2e"/><use transform="translate(95.41)" xlink:href="#DejaVuSans-30"/><use transform="translate(159.03)" xlink:href="#DejaVuSans-30"/><use transform="translate(222.66)" xlink:href="#DejaVuSans-36"/></g><g transform="translate(251.14 291.36) scale(.1 -.1)"><use xlink:href="#DejaVuSans-30"/><use transform="translate(63.623)" xlink:href="#DejaVuSans-2e"/><use transform="translate(95.41)" xlink:href="#DejaVuSans-30"/><use transform="translate(159.03)" xlink:href="#DejaVuSans-30"/><use transform="translate(222.66)" xlink:href="#DejaVuSans-36"/></g><g transform="translate(268.91 291.36) scale(.1 -.1)"><use xlink:href="#DejaVuSans-30"/><use transform="translate(63.623)" xlink:href="#DejaVuSans-2e"/><use transform="translate(95.41)" xlink:href="#DejaVuSans-30"/><use transform="translate(159.03)" xlink:href="#DejaVuSans-30"/><use transform="translate(222.66)" xlink:href="#DejaVuSans-36"/></g><g transform="translate(286.68 287.51) scale(.1 -.1)"><use xlink:href="#DejaVuSans-30"/><use transform="translate(63.623)" xlink:href="#DejaVuSans-2e"/><use transform="translate(95.41)" xlink:href="#DejaVuSans-30"/><use transform="translate(159.03)" xlink:href="#DejaVuSans-31"/><use transform="translate(222.66)" xlink:href="#DejaVuSans-33"/></g><g transform="translate(304.45 53.911) scale(.1 -.1)"><use xlink:href="#DejaVuSans-30"/><use transform="translate(63.623)" xlink:href="#DejaVuSans-2e"/><use transform="translate(95.41)" xlink:href="#DejaVuSans-34"/><use transform="translate(159.03)" xlink:href="#DejaVuSans-33"/><use transform="translate(222.66)" xlink:href="#DejaVuSans-38"/></g><g transform="translate(61.615 18.185) scale(.1 -.1)"><use xlink:href="#DejaVuSans-30"/><use transform="translate(63.623)" xlink:href="#DejaVuSans-2e"/><use transform="translate(95.41)" xlink:href="#DejaVuSans-35"/><use transform="translate(159.03)" xlink:href="#DejaVuSans-30"/><use transform="translate(222.66)" xlink:href="#DejaVuSans-33"/></g><g transform="translate(79.383 293.01) scale(.1 -.1)"><use xlink:href="#DejaVuSans-30"/><use transform="translate(63.623)" xlink:href="#DejaVuSans-2e"/><use transform="translate(95.41)" xlink:href="#DejaVuSans-30"/><use transform="translate(159.03)" xlink:href="#DejaVuSans-30"/><use transform="translate(222.66)" xlink:href="#DejaVuSans-33"/></g><g transform="translate(108.28 294.65) scale(.1 -.1)"><use xlink:href="#DejaVuSans-30"/></g><g transform="translate(114.92 293.01) scale(.1 -.1)"><use xlink:href="#DejaVuSans-30"/><use transform="translate(63.623)" xlink:href="#DejaVuSans-2e"/><use transform="translate(95.41)" xlink:href="#DejaVuSans-30"/><use transform="translate(159.03)" xlink:href="#DejaVuSans-30"/><use transform="translate(222.66)" xlink:href="#DejaVuSans-33"/></g><g transform="translate(143.82 294.65) scale(.1 -.1)"><use xlink:href="#DejaVuSans-30"/></g><g transform="translate(161.59 294.65) scale(.1 -.1)"><use xlink:href="#DejaVuSans-30"/></g><g transform="translate(179.36 294.65) scale(.1 -.1)"><use xlink:href="#DejaVuSans-30"/></g><g transform="translate(189.17 283.66) scale(.1 -.1)"><use xlink:href="#DejaVuSans-30"/><use transform="translate(63.623)" xlink:href="#DejaVuSans-2e"/><use transform="translate(95.41)" xlink:href="#DejaVuSans-30"/><use transform="translate(159.03)" xlink:href="#DejaVuSans-32"/></g><g transform="translate(203.76 286.96) scale(.1 -.1)"><use xlink:href="#DejaVuSans-30"/><use transform="translate(63.623)" xlink:href="#DejaVuSans-2e"/><use transform="translate(95.41)" xlink:href="#DejaVuSans-30"/><use transform="translate(159.03)" xlink:href="#DejaVuSans-31"/><use transform="translate(222.66)" xlink:href="#DejaVuSans-34"/></g><g transform="translate(239.3 293.01) scale(.1 -.1)"><use xlink:href="#DejaVuSans-30"/><use transform="translate(63.623)" xlink:href="#DejaVuSans-2e"/><use transform="translate(95.41)" xlink:href="#DejaVuSans-30"/><use transform="translate(159.03)" xlink:href="#DejaVuSans-30"/><use transform="translate(222.66)" xlink:href="#DejaVuSans-33"/></g><g transform="translate(257.06 293.01) scale(.1 -.1)"><use xlink:href="#DejaVuSans-30"/><use transform="translate(63.623)" xlink:href="#DejaVuSans-2e"/><use transform="translate(95.41)" xlink:href="#DejaVuSans-30"/><use transform="translate(159.03)" xlink:href="#DejaVuSans-30"/><use transform="translate(222.66)" xlink:href="#DejaVuSans-33"/></g><g transform="translate(274.83 292.46) scale(.1 -.1)"><use xlink:href="#DejaVuSans-30"/><use transform="translate(63.623)" xlink:href="#DejaVuSans-2e"/><use transform="translate(95.41)" xlink:href="#DejaVuSans-30"/><use transform="translate(159.03)" xlink:href="#DejaVuSans-30"/><use transform="translate(222.66)" xlink:href="#DejaVuSans-34"/></g><g transform="translate(292.6 291.91) scale(.1 -.1)"><use xlink:href="#DejaVuSans-30"/><use transform="translate(63.623)" xlink:href="#DejaVuSans-2e"/><use transform="translate(95.41)" xlink:href="#DejaVuSans-30"/><use transform="translate(159.03)" xlink:href="#DejaVuSans-30"/><use transform="translate(222.66)" xlink:href="#DejaVuSans-35"/></g><g transform="translate(310.37 51.713) scale(.1 -.1)"><use xlink:href="#DejaVuSans-30"/><use transform="translate(63.623)" xlink:href="#DejaVuSans-2e"/><use transform="translate(95.41)" xlink:href="#DejaVuSans-34"/><use transform="translate(159.03)" xlink:href="#DejaVuSans-34"/><use transform="translate(222.66)" xlink:href="#DejaVuSans-32"/></g><path d="m345.54 39.556h98.308q2 0 2-2v-28.356q0-2-2-2h-98.308q-2 0-2 2v28.356q0 2 2 2z" fill="#ffffff" opacity=".8" stroke="#cccccc"/><path d="m347.54 18.798h20v-7h-20z" fill="#1f77b4"/><g transform="translate(375.54 18.798) scale(.1 -.1)"><defs><path id="DejaVuSans-4e" transform="scale(.015625)" d="m628 4666h850l2069-3903v3903h612v-4666h-850l-2068 3903v-3903h-613v4666z"/><path id="DejaVuSans-6d" transform="scale(.015625)" d="m3328 2828q216 388 516 572t706 184q547 0 844-383 297-382 297-1088v-2113h-578v2094q0 503-179 746-178 244-543 244-447 0-707-297-259-296-259-809v-1978h-578v2094q0 506-178 748t-550 242q-441 0-701-298-259-298-259-808v-1978h-578v3500h578v-544q197 322 472 475t653 153q382 0 649-194 267-193 395-562z"/></defs><use xlink:href="#DejaVuSans-4e"/><use transform="translate(74.805)" xlink:href="#DejaVuSans-6f"/><use transform="translate(135.99)" xlink:href="#DejaVuSans-72"/><use transform="translate(175.35)" xlink:href="#DejaVuSans-6d"/><use transform="translate(272.76)" xlink:href="#DejaVuSans-61"/><use transform="translate(334.04)" xlink:href="#DejaVuSans-6c"/></g><path d="m347.54 33.477h20v-7h-20z" fill="#ff7f0e"/><g transform="translate(375.54 33.477) scale(.1 -.1)"><defs><path id="DejaVuSans-50" transform="scale(.015625)" d="m1259 4147v-1753h794q441 0 681 228 241 228 241 650 0 419-241 647-240 228-681 228h-794zm-631 519h1425q785 0 1186-355 402-355 402-1039 0-691-402-1044-401-353-1186-353h-794v-1875h-631v4666z"/><path id="DejaVuSans-65" transform="scale(.015625)" d="m3597 1894v-281h-2644q38-594 358-905t892-311q331 0 642 81t618 244v-544q-310-131-635-200t-659-69q-838 0-1327 487-489 488-489 1320 0 859 464 1363 464 505 1252 505 706 0 1117-455 411-454 411-1235zm-575 169q-6 471-264 752-258 282-683 282-481 0-770-272t-333-766l2050 4z"/><path id="DejaVuSans-63" transform="scale(.015625)" d="m3122 3366v-538q-244 135-489 202t-495 67q-560 0-870-355-309-354-309-995t309-996q310-354 870-354 250 0 495 67t489 202v-532q-241-112-499-168-257-57-548-57-791 0-1257 497-465 497-465 1341 0 856 470 1346 471 491 1290 491 265 0 518-55 253-54 491-163z"/><path id="DejaVuSans-64" transform="scale(.015625)" d="m2906 2969v1894h575v-4863h-575v525q-181-312-458-464-276-152-664-152-634 0-1033 506-398 507-398 1332t398 1331q399 506 1033 506 388 0 664-152 277-151 458-463zm-1959-1222q0-634 261-995t717-361 718 361q263 361 263 995t-263 995q-262 361-718 361t-717-361-261-995z"/></defs><use xlink:href="#DejaVuSans-50"/><use transform="translate(56.678)" xlink:href="#DejaVuSans-6f"/><use transform="translate(117.86)" xlink:href="#DejaVuSans-73"/><use transform="translate(169.96)" xlink:href="#DejaVuSans-74"/><use transform="translate(209.17)" xlink:href="#DejaVuSans-20"/><use transform="translate(240.96)" xlink:href="#DejaVuSans-73"/><use transform="translate(293.05)" xlink:href="#DejaVuSans-65"/><use transform="translate(354.58)" xlink:href="#DejaVuSans-6c"/><use transform="translate(382.36)" xlink:href="#DejaVuSans-65"/><use transform="translate(443.88)" xlink:href="#DejaVuSans-63"/><use transform="translate(498.87)" xlink:href="#DejaVuSans-74"/><use transform="translate(538.07)" xlink:href="#DejaVuSans-65"/><use transform="translate(599.6)" xlink:href="#DejaVuSans-64"/></g><defs><clipPath id="5117894426f"><rect x="54.015" y="7.2" width="286.66" height="289.53"/></clipPath></defs></svg>