<?xml version="1.0" encoding="UTF-8"?><!DOCTYPE svg  PUBLIC '-//W3C//DTD SVG 1.1//EN'  'http://www.w3.org/Graphics/SVG/1.1/DTD/svg11.dtd'><svg width="453.57pt" height="338.21pt" version="1.1" viewBox="0 0 453.57 338.21" xmlns="http://www.w3.org/2000/svg" xmlns:xlink="http://www.w3.org/1999/xlink"><defs><style type="text/css">*{stroke-linejoin: round; stroke-linecap: butt}</style></defs><path d="m0 338.21h453.57v-338.21h-453.57z" fill="#ffffff"/><path d="m50.837 308.74h395.53v-301.54h-395.53z" fill="#ffffff"/><defs><path id="5d5f9200c72" d="m0 0v3.5" stroke="#000000" stroke-width=".8"/></defs><use x="128.744299" y="308.743165" stroke="#000000" stroke-width=".8" xlink:href="#5d5f9200c72"/><g transform="translate(131.53 330.3) rotate(-70) scale(.1 -.1)"><defs><path id="DejaVuSans-30" transform="scale(.015625)" d="m2034 4250q-487 0-733-480-245-479-245-1442 0-959 245-1439 246-480 733-480 491 0 736 480 246 480 246 1439 0 963-246 1442-245 480-736 480zm0 500q785 0 1199-621 414-620 414-1801 0-1178-414-1799-414-620-1199-620-784 0-1198 620-414 621-414 1799 0 1181 414 1801 414 621 1198 621z"/></defs><use xlink:href="#DejaVuSans-30"/><use transform="translate(63.623)" xlink:href="#DejaVuSans-30"/></g><use x="368.459451" y="308.743165" stroke="#000000" stroke-width=".8" xlink:href="#5d5f9200c72"/><g transform="translate(371.25 330.3) rotate(-70) scale(.1 -.1)"><defs><path id="DejaVuSans-31" transform="scale(.015625)" d="m794 531h1031v3560l-1122-225v575l1116 225h631v-4135h1031v-531h-2687v531z"/></defs><use xlink:href="#DejaVuSans-31"/><use transform="translate(63.623)" xlink:href="#DejaVuSans-31"/></g><path d="m50.837 308.74h395.53" clip-path="url(#a732d8b9eb7)" fill="none" stroke="#b0b0b0" stroke-dasharray="2.96,1.28" stroke-width=".8"/><defs><path id="0b7ce4fdccb" d="m0 0h-3.5" stroke="#000000" stroke-width=".8"/></defs><use x="50.836875" y="308.743165" stroke="#000000" stroke-width=".8" xlink:href="#0b7ce4fdccb"/><g transform="translate(37.474 312.54) scale(.1 -.1)"><use xlink:href="#DejaVuSans-30"/></g><path d="m50.837 231.74h395.53" clip-path="url(#a732d8b9eb7)" fill="none" stroke="#b0b0b0" stroke-dasharray="2.96,1.28" stroke-width=".8"/><use x="50.836875" y="231.740314" stroke="#000000" stroke-width=".8" xlink:href="#0b7ce4fdccb"/><g transform="translate(24.749 235.54) scale(.1 -.1)"><defs><path id="DejaVuSans-35" transform="scale(.015625)" d="m691 4666h2478v-532h-1900v-1143q137 47 274 70 138 23 276 23 781 0 1237-428 457-428 457-1159 0-753-469-1171-469-417-1322-417-294 0-599 50-304 50-629 150v635q281-153 581-228t634-75q541 0 856 284 316 284 316 772 0 487-316 771-315 285-856 285-253 0-505-56-251-56-513-175v2344z"/></defs><use xlink:href="#DejaVuSans-31"/><use transform="translate(63.623)" xlink:href="#DejaVuSans-35"/><use transform="translate(127.25)" xlink:href="#DejaVuSans-30"/></g><path d="m50.837 154.74h395.53" clip-path="url(#a732d8b9eb7)" fill="none" stroke="#b0b0b0" stroke-dasharray="2.96,1.28" stroke-width=".8"/><use x="50.836875" y="154.737463" stroke="#000000" stroke-width=".8" xlink:href="#0b7ce4fdccb"/><g transform="translate(24.749 158.54) scale(.1 -.1)"><defs><path id="DejaVuSans-33" transform="scale(.015625)" d="m2597 2516q453-97 707-404 255-306 255-756 0-690-475-1069-475-378-1350-378-293 0-604 58t-642 174v609q262-153 574-231 313-78 654-78 593 0 904 234t311 681q0 413-289 645-289 233-804 233h-544v519h569q465 0 712 186t247 536q0 359-255 551-254 193-729 193-260 0-557-57-297-56-653-174v562q360 100 674 150t592 50q719 0 1137-327 419-326 419-882 0-388-222-655t-631-370z"/></defs><use xlink:href="#DejaVuSans-33"/><use transform="translate(63.623)" xlink:href="#DejaVuSans-30"/><use transform="translate(127.25)" xlink:href="#DejaVuSans-30"/></g><path d="m50.837 77.735h395.53" clip-path="url(#a732d8b9eb7)" fill="none" stroke="#b0b0b0" stroke-dasharray="2.96,1.28" stroke-width=".8"/><use x="50.836875" y="77.734612" stroke="#000000" stroke-width=".8" xlink:href="#0b7ce4fdccb"/><g transform="translate(24.749 81.534) scale(.1 -.1)"><defs><path id="DejaVuSans-34" transform="scale(.015625)" d="m2419 4116-1594-2491h1594v2491zm-166 550h794v-3041h666v-525h-666v-1100h-628v1100h-2106v609l1940 2957z"/></defs><use xlink:href="#DejaVuSans-34"/><use transform="translate(63.623)" xlink:href="#DejaVuSans-35"/><use transform="translate(127.25)" xlink:href="#DejaVuSans-30"/></g><g transform="translate(17.838 178.76) rotate(-90) scale(.14 -.14)"><defs><path id="DejaVuSans-43" transform="scale(.015625)" d="m4122 4306v-665q-319 297-680 443-361 147-767 147-800 0-1225-489t-425-1414q0-922 425-1411t1225-489q406 0 767 147t680 444v-660q-331-225-702-338-370-112-782-112-1060 0-1670 648-609 649-609 1771 0 1125 609 1773 610 649 1670 649 418 0 788-111 371-111 696-333z"/><path id="DejaVuSans-6f" transform="scale(.015625)" d="m1959 3097q-462 0-731-361t-269-989 267-989q268-361 733-361 460 0 728 362 269 363 269 988 0 622-269 986-268 364-728 364zm0 487q750 0 1178-488 429-487 429-1349 0-859-429-1349-428-489-1178-489-753 0-1180 489-426 490-426 1349 0 862 426 1349 427 488 1180 488z"/><path id="DejaVuSans-75" transform="scale(.015625)" d="m544 1381v2119h575v-2097q0-497 193-746 194-248 582-248 465 0 735 297 271 297 271 810v1984h575v-3500h-575v538q-209-319-486-474-276-155-642-155-603 0-916 375-312 375-312 1097zm1447 2203z"/><path id="DejaVuSans-6e" transform="scale(.015625)" d="m3513 2113v-2113h-575v2094q0 497-194 743-194 247-581 247-466 0-735-297-269-296-269-809v-1978h-578v3500h578v-544q207 316 486 472 280 156 646 156 603 0 912-373 310-373 310-1098z"/><path id="DejaVuSans-74" transform="scale(.015625)" d="m1172 4494v-994h1184v-447h-1184v-1900q0-428 117-550t477-122h590v-481h-590q-666 0-919 248-253 249-253 905v1900h-422v447h422v994h578z"/></defs><use xlink:href="#DejaVuSans-43"/><use transform="translate(69.824)" xlink:href="#DejaVuSans-6f"/><use transform="translate(131.01)" xlink:href="#DejaVuSans-75"/><use transform="translate(194.38)" xlink:href="#DejaVuSans-6e"/><use transform="translate(257.76)" xlink:href="#DejaVuSans-74"/></g><path d="m68.816 308.74h119.86v-251.54h-119.86z" clip-path="url(#a732d8b9eb7)" fill="#1f77b4"/><path d="m308.53 308.74h119.86v-274.13h-119.86z" clip-path="url(#a732d8b9eb7)" fill="#1f77b4"/><path d="m50.837 308.74v-301.54" fill="none" stroke="#000000" stroke-linecap="square" stroke-width=".8"/><path d="m446.37 308.74v-301.54" fill="none" stroke="#000000" stroke-linecap="square" stroke-width=".8"/><path d="m50.837 308.74h395.53" fill="none" stroke="#000000" stroke-linecap="square" stroke-width=".8"/><path d="m50.837 7.2h395.53" fill="none" stroke="#000000" stroke-linecap="square" stroke-width=".8"/><g transform="translate(119.2 42.544) scale(.1 -.1)"><defs><path id="DejaVuSans-39" transform="scale(.015625)" d="m703 97v575q238-113 481-172 244-59 479-59 625 0 954 420 330 420 377 1277-181-269-460-413-278-144-615-144-700 0-1108 423-408 424-408 1159 0 718 425 1152 425 435 1131 435 810 0 1236-621 427-620 427-1801 0-1103-524-1761-523-658-1407-658-238 0-482 47-243 47-506 141zm1256 1978q425 0 673 290 249 291 249 798 0 503-249 795-248 292-673 292t-673-292-248-795q0-507 248-798 248-290 673-290z"/></defs><use xlink:href="#DejaVuSans-34"/><use transform="translate(63.623)" xlink:href="#DejaVuSans-39"/><use transform="translate(127.25)" xlink:href="#DejaVuSans-30"/></g><g transform="translate(358.92 18.827) scale(.1 -.1)"><use xlink:href="#DejaVuSans-35"/><use transform="translate(63.623)" xlink:href="#DejaVuSans-33"/><use transform="translate(127.25)" xlink:href="#DejaVuSans-34"/></g><defs><clipPath id="a732d8b9eb7"><rect x="50.837" y="7.2" width="395.53" height="301.54"/></clipPath></defs></svg>