<?xml version='1.0' encoding='utf-8'?>
<svg xmlns="http://www.w3.org/2000/svg" xmlns:ns1="http://sodipodi.sourceforge.net/DTD/sodipodi-0.dtd" xmlns:ns2="http://www.inkscape.org/namespaces/inkscape" version="1.1" id="svg1" width="100%" height="100%" preserveAspectRatio="xMidYMid meet" viewBox="-20.0 -20.0 264.73669 242.56471" ns1:docname="svg_fix_XXXXXX.svg">
  <rect id="path1" x="-20.0" y="-20.0" width="264.73669" height="242.56471" fill="white" /><ns1:namedview id="namedview1" pagecolor="#ffffff" bordercolor="#000000" borderopacity="0.25" ns2:showpageshadow="2" ns2:pageopacity="0.0" ns2:pagecheckerboard="0" ns2:deskcolor="#d1d1d1" />
  <defs id="defs1" />
  <g id="g1" transform="translate(-187.17299,-35.929687)">
    <path id="path2" d="m -55.98492,17.00809 h 34.01616 v 22.67743 h -34.01616 z" style="fill:#78a9ff;fill-opacity:1;fill-rule:nonzero;stroke:#78a9ff;stroke-width:0.3985;stroke-linecap:butt;stroke-linejoin:miter;stroke-miterlimit:10;stroke-dasharray:none;stroke-opacity:1" transform="matrix(2,0,0,-2,299.54133,178.568)" />
    <path id="path3" d="M 5.3981302,-8.90625e-4 3.2028177,-5.5321406 H 2.4293802 L 0.24188021,-8.90625e-4 h 0.6484375 L 1.5153177,-1.5790156 h 2.421875 L 4.5543802,-8.90625e-4 Z M 3.7340677,-2.0477656 H 1.7106302 l 1.0234375,-2.875 z M 6.9782083,-8.90625e-4 V -5.5321406 H 6.3141458 v 5.531249975 z m 2.0175782,0 V -3.5399531 H 8.331724 V -8.90625e-4 Z M 9.0739115,-4.4618281 V -5.2665156 H 8.269224 v 0.8046875 z m 4.1171875,4.17187498 -0.04687,-0.578125 c -0.398438,0.25 -0.828125,0.3984375 -1.328125,0.3984375 -0.726563,0 -1.164063,-0.59374998 -1.164063,-1.30468748 0,-0.6171875 0.320313,-1.3359375 1.1875,-1.3359375 0.546875,0 0.796875,0.109375 1.203125,0.3671875 l 0.109375,-0.5703125 c -0.476562,-0.2421875 -0.6875,-0.34375 -1.3125,-0.34375 -1.195312,0 -1.8749995,0.9609375 -1.8749995,1.890625 0,0.96874998 0.7656245,1.84374998 1.8437495,1.84374998 0.5625,0 1.039063,-0.1640625 1.382813,-0.3671875 z m 3.753906,-1.45312498 c 0,-0.3671875 -0.03906,-0.90625 -0.351562,-1.359375 -0.289063,-0.40625 -0.765625,-0.5546875 -1.15625,-0.5546875 -0.96875,0 -1.71875,0.8515625 -1.71875,1.859375 0,1.02343748 0.796875,1.87499998 1.84375,1.87499998 0.46875,0 0.945312,-0.1328125 1.351562,-0.3828125 l -0.04687,-0.5625 c -0.453125,0.3203125 -0.953125,0.421875 -1.296875,0.421875 -0.6875,0 -1.21875,-0.57031248 -1.242187,-1.29687498 z m -0.484375,-0.484375 h -2.078125 c 0.1875,-0.6328125 0.65625,-0.90625 1.054688,-0.90625 0.351562,0 0.867187,0.171875 1.023437,0.90625 z m 0,0" style="fill:#ffffff;fill-opacity:1;fill-rule:nonzero;stroke:none" aria-label="Alice" transform="matrix(2,0,0,2,204.38733,127.326)" />
    <path id="path4" d="M 21.96877,17.00809 H 55.98493 V 39.68552 H 21.96877 Z" style="fill:#78a9ff;fill-opacity:1;fill-rule:nonzero;stroke:#78a9ff;stroke-width:0.3985;stroke-linecap:butt;stroke-linejoin:miter;stroke-miterlimit:10;stroke-dasharray:none;stroke-opacity:1" transform="matrix(2,0,0,-2,299.54133,178.568)" />
    <path id="path5" d="m 5.1634896,-1.5008906 c 0,-0.703125 -0.7421875,-1.265625 -1.625,-1.390625 0.828125,-0.203125 1.3828125,-0.6796875 1.3828125,-1.25 0,-0.734375 -0.9140625,-1.390625 -2.0859375,-1.390625 H 0.79630208 V -8.90625e-4 H 3.0697396 c 1.1796875,0 2.09375,-0.703124995 2.09375,-1.499999975 z M 4.2338021,-4.1337031 c 0,0.53125 -0.7265625,0.9921875 -1.625,0.9921875 h -1.0625 v -1.921875 h 1.0546875 c 0.890625,0 1.6328125,0.4140625 1.6328125,0.9296875 z m 0.203125,2.625 c 0,0.59374998 -0.7421875,1.03906248 -1.6171875,1.03906248 H 1.5463021 V -2.6180781 h 1.140625 c 1,0 1.75,0.515625 1.75,1.109375 z m 5.1894531,-0.234375 c 0,-1.0546875 -0.8359375,-1.9140625 -1.875,-1.9140625 -1.03125,0 -1.8671875,0.8671875 -1.8671875,1.9140625 0,1.00781248 0.84375,1.82031248 1.8671875,1.82031248 1.0390625,0 1.875,-0.8125 1.875,-1.82031248 z m -0.6953125,-0.09375 c 0,0.91406248 -0.5625,1.36718748 -1.1796875,1.36718748 -0.625,0 -1.1796875,-0.4609375 -1.1796875,-1.36718748 0,-0.8984375 0.59375,-1.296875 1.1796875,-1.296875 0.6015625,0 1.1796875,0.4140625 1.1796875,1.296875 z m 5.0214843,0.0625 c 0,-0.96875 -0.546875,-1.84375 -1.34375,-1.84375 -0.5,0 -0.992187,0.15625 -1.390625,0.453125 v -2.3671875 h -0.664062 v 5.531249975 h 0.6875 V -0.37589062 c 0.179687,0.1484375 0.5625,0.453125 1.140625,0.453125 0.867187,0 1.570312,-0.8125 1.570312,-1.85156248 z m -0.6875,0 c 0,0.96874998 -0.664062,1.32812498 -1.226562,1.32812498 -0.289063,0 -0.570313,-0.1328125 -0.796875,-0.4921875 V -2.5087031 c 0,-0.1328125 0,-0.2265625 0.28125,-0.40625 0.117187,-0.078125 0.335937,-0.1796875 0.609375,-0.1796875 0.53125,0 1.132812,0.359375 1.132812,1.3203125 z m 0,0" style="fill:#ffffff;fill-opacity:1;fill-rule:nonzero;stroke:none" aria-label="Bob" transform="matrix(2,0,0,2,363.24333,127.326)" />
    <path id="path6" d="M -17.00807,-29.76395 H 17.00809 V -7.08652 H -17.00807 Z" style="fill:#78a9ff;fill-opacity:1;fill-rule:nonzero;stroke:#78a9ff;stroke-width:0.3985;stroke-linecap:butt;stroke-linejoin:miter;stroke-miterlimit:10;stroke-dasharray:none;stroke-opacity:1" transform="matrix(2,0,0,-2,299.54133,178.568)" />
    <path id="path7" d="M 5.2343802,-3.90625e-4 3.5781302,-2.5785156 c 1.140625,-0.3359375 1.4296875,-1.03125 1.4296875,-1.4609375 0,-0.828125 -0.9765625,-1.4921875 -2.1328125,-1.4921875 H 0.78125521 V -3.90625e-4 H 1.5625052 V -2.5003906 h 1.3125 L 4.4296927,-3.90625e-4 Z M 4.2812552,-4.0394531 c 0,0.5546875 -0.5546875,1.0078125 -1.5078125,1.0078125 H 1.5625052 v -2.03125 h 1.2109375 c 0.9140625,0 1.5078125,0.4296875 1.5078125,1.0234375 z m 4.7109375,2.296875 c 0,-0.3671875 -0.039063,-0.90625 -0.3515625,-1.359375 -0.2890625,-0.40625 -0.765625,-0.5546875 -1.15625,-0.5546875 -0.96875,0 -1.71875,0.8515625 -1.71875,1.859375 0,1.02343748 0.796875,1.87499998 1.84375,1.87499998 0.46875,0 0.9453125,-0.1328125 1.3515625,-0.3828125 l -0.046875,-0.5625 c -0.453125,0.3203125 -0.953125,0.421875 -1.296875,0.421875 -0.6875,0 -1.21875,-0.57031248 -1.2421875,-1.29687498 z m -0.484375,-0.484375 h -2.078125 c 0.1875,-0.6328125 0.65625,-0.90625 1.0546875,-0.90625 0.3515625,0 0.8671875,0.171875 1.0234375,0.90625 z m 3.6679683,-2.71875 v -0.5859375 c -0.203125,-0.046875 -0.453125,-0.078125 -0.664062,-0.078125 -0.820313,0 -1.421875,0.5859375 -1.421875,1.375 v 0.6953125 H 9.480474 v 0.5 h 0.609375 v 3.039062475 h 0.671875 V -3.0394531 h 0.90625 v -0.5 h -0.929688 v -0.9140625 c 0,-0.5546875 0.5,-0.6328125 0.765625,-0.6328125 0.164063,0 0.382813,0.023437 0.671875,0.140625 z m 3.167969,3.203125 c 0,-0.3671875 -0.03906,-0.90625 -0.351562,-1.359375 -0.289063,-0.40625 -0.765625,-0.5546875 -1.15625,-0.5546875 -0.96875,0 -1.71875,0.8515625 -1.71875,1.859375 0,1.02343748 0.796875,1.87499998 1.84375,1.87499998 0.46875,0 0.945312,-0.1328125 1.351562,-0.3828125 l -0.04687,-0.5625 c -0.453125,0.3203125 -0.953125,0.421875 -1.296875,0.421875 -0.6875,0 -1.21875,-0.57031248 -1.242187,-1.29687498 z m -0.484375,-0.484375 h -2.078125 c 0.1875,-0.6328125 0.65625,-0.90625 1.054688,-0.90625 0.351562,0 0.867187,0.171875 1.023437,0.90625 z m 3.503906,-0.8046875 v -0.5859375 c -0.671875,0.00781 -1.15625,0.3359375 -1.476562,0.7578125 v -0.734375 h -0.609375 v 3.593749975 h 0.664062 V -1.6957031 c 0,-0.859375 0.71875,-1.328125 1.421875,-1.3359375 z m 3.634766,1.2890625 c 0,-0.3671875 -0.03906,-0.90625 -0.351562,-1.359375 -0.289063,-0.40625 -0.765625,-0.5546875 -1.15625,-0.5546875 -0.96875,0 -1.71875,0.8515625 -1.71875,1.859375 0,1.02343748 0.796875,1.87499998 1.84375,1.87499998 0.46875,0 0.945312,-0.1328125 1.351562,-0.3828125 l -0.04687,-0.5625 c -0.453125,0.3203125 -0.953125,0.421875 -1.296875,0.421875 -0.6875,0 -1.21875,-0.57031248 -1.242187,-1.29687498 z m -0.484375,-0.484375 h -2.078125 c 0.1875,-0.6328125 0.65625,-0.90625 1.054688,-0.90625 0.351562,0 0.867187,0.171875 1.023437,0.90625 z m 4.246094,0.484375 c 0,-0.3671875 -0.03906,-0.90625 -0.351563,-1.359375 -0.289062,-0.40625 -0.765625,-0.5546875 -1.15625,-0.5546875 -0.96875,0 -1.71875,0.8515625 -1.71875,1.859375 0,1.02343748 0.796875,1.87499998 1.84375,1.87499998 0.46875,0 0.945313,-0.1328125 1.351563,-0.3828125 l -0.04687,-0.5625 c -0.453125,0.3203125 -0.953125,0.421875 -1.296875,0.421875 -0.6875,0 -1.21875,-0.57031248 -1.242188,-1.29687498 z m -0.484375,-0.484375 h -2.078125 c 0.1875,-0.6328125 0.65625,-0.90625 1.054687,-0.90625 0.351563,0 0.867188,0.171875 1.023438,0.90625 z m 0,0" style="fill:#ffffff;fill-opacity:1;fill-rule:nonzero;stroke:none" aria-label="Referee" transform="matrix(2,0,0,2,273.52733,220.95)" />
    <path id="path8" d="M -2.83466,2.83467 H 2.83467 V 53.85892 H -2.83466 Z" style="fill:#000000;fill-opacity:1;fill-rule:nonzero;stroke:#000000;stroke-width:0.3985;stroke-linecap:butt;stroke-linejoin:miter;stroke-miterlimit:10;stroke-dasharray:none;stroke-opacity:1" transform="matrix(2,0,0,-2,299.54133,178.568)" />
    <path id="path9" d="m -17.20732,-24.09457 h -25.44632 c -1.10048,0 -1.99256,0.89207 -1.99256,1.99255 v 35.32431" style="fill:none;stroke:#121619;stroke-width:0.3985;stroke-linecap:butt;stroke-linejoin:miter;stroke-miterlimit:10;stroke-dasharray:none;stroke-opacity:1" transform="matrix(2,0,0,-2,299.54133,178.568)" />
    <path id="path10" d="M 3.58653,0 C 2.52383,0.19925 0.797,0.797 -0.3985,1.49438 V -1.49438 C 0.797,-0.797 2.52383,-0.19925 3.58653,0" style="fill:#121619;fill-opacity:1;fill-rule:nonzero;stroke:none" transform="matrix(0,-2,-2,0,210.24893,152.12342)" />
    <path id="path11" d="m 3.992474,-3.1801094 c -0.3515625,0.085937 -0.3671875,0.3984375 -0.3671875,0.4296875 0,0.1796875 0.1328125,0.296875 0.3125,0.296875 0.171875,0 0.4453125,-0.140625 0.4453125,-0.4765625 0,-0.4609375 -0.5,-0.5859375 -0.796875,-0.5859375 -0.375,0 -0.6796875,0.265625 -0.859375,0.578125 -0.1796875,-0.421875 -0.59375,-0.578125 -0.9140625,-0.578125 -0.87500004,0 -1.35937504,1 -1.35937504,1.21875 0,0.070312 0.0546875,0.1015625 0.1171875,0.1015625 0.1015625,0 0.1171875,-0.039063 0.140625,-0.1328125 0.1796875,-0.578125 0.65625004,-0.9609375 1.07031254,-0.9609375 0.3125,0 0.46875,0.21875 0.46875,0.5078125 0,0.15625 -0.1015625,0.5234375 -0.1640625,0.78125 -0.054687,0.234375 -0.2265625,0.9375 -0.265625,1.09375002 -0.1171875,0.4296875 -0.3984375,0.765625 -0.7578125,0.765625 -0.03125,0 -0.24218754,0 -0.40625004,-0.1171875 0.36718754,-0.0859375 0.36718754,-0.421875 0.36718754,-0.4296875 0,-0.1796875 -0.14843754,-0.2890625 -0.32031254,-0.2890625 -0.21875,0 -0.4453125,0.1796875 -0.4453125,0.484375 0,0.3671875 0.390625,0.5703125 0.79687504,0.5703125 0.421875,0 0.7109375,-0.3203125 0.859375,-0.5703125 0.171875,0.390625 0.5390625,0.5703125 0.921875,0.5703125 0.8671875,0 1.3515625,-0.9921875 1.3515625,-1.21875002 0,-0.078125 -0.070312,-0.1015625 -0.125,-0.1015625 -0.09375,0 -0.109375,0.054687 -0.1328125,0.1328125 -0.1640625,0.53906252 -0.6171875,0.96875002 -1.078125,0.96875002 -0.2578125,0 -0.453125,-0.1796875 -0.453125,-0.515625 0,-0.15625 0.046875,-0.34375002 0.15625,-0.78906252 0.0625,-0.234375 0.234375,-0.9375 0.2734375,-1.0859375 0.109375,-0.4140625 0.390625,-0.7578125 0.75,-0.7578125 0.039063,0 0.25,0 0.4140625,0.109375 z m 0,0" style="fill:#121619;fill-opacity:1;fill-rule:nonzero;stroke:none" aria-label="x" transform="matrix(2,0,0,2,195.00333,189.286)" />
    <path id="path12" d="m 17.20732,-24.09457 h 25.44632 c 1.10048,0 1.99256,0.89207 1.99256,1.99255 v 35.32431" style="fill:none;stroke:#121619;stroke-width:0.3985;stroke-linecap:butt;stroke-linejoin:miter;stroke-miterlimit:10;stroke-dasharray:none;stroke-opacity:1" transform="matrix(2,0,0,-2,299.54133,178.568)" />
    <path id="path13" d="M 3.58653,0 C 2.52383,0.19925 0.797,0.797 -0.3985,1.49438 V -1.49438 C 0.797,-0.797 2.52383,-0.19925 3.58653,0" style="fill:#121619;fill-opacity:1;fill-rule:nonzero;stroke:none" transform="matrix(0,-2,-2,0,388.83373,152.12342)" />
    <path id="path14" d="m 4.1257708,-3.0077031 c 0.03125,-0.109375 0.03125,-0.125 0.03125,-0.1796875 0,-0.203125 -0.15625,-0.25 -0.25,-0.25 -0.039063,0 -0.2265625,0.00781 -0.328125,0.21875 -0.015625,0.039063 -0.085937,0.328125 -0.125,0.4921875 l -0.484375,1.91406248 c -0.00781,0.0234375 -0.34375,0.671875 -0.9296875,0.671875 -0.390625,0 -0.5234375,-0.2890625 -0.5234375,-0.6484375 0,-0.46093748 0.265625,-1.17187498 0.453125,-1.63281248 0.078125,-0.203125 0.1015625,-0.2734375 0.1015625,-0.4140625 0,-0.4375 -0.3515625,-0.6796875 -0.71875,-0.6796875 -0.78906247,0 -1.10937497,1.125 -1.10937497,1.21875 0,0.070312 0.0546875,0.1015625 0.1171875,0.1015625 0.1015625,0 0.109375,-0.046875 0.1328125,-0.125 0.2109375,-0.6953125 0.55468747,-0.96875 0.83593747,-0.96875 0.125,0 0.1953125,0.078125 0.1953125,0.2578125 0,0.171875 -0.0625,0.3515625 -0.1171875,0.5 -0.328125,0.84375 -0.46874997,1.25 -0.46874997,1.62499998 0,0.78125 0.59374997,0.984375 1.06249997,0.984375 0.375,0 0.6484375,-0.1640625 0.8359375,-0.3515625 -0.109375,0.4453125 -0.1875,0.7578125 -0.4921875,1.140625 -0.265625,0.32812502 -0.5859375,0.53906252 -0.9375,0.53906252 -0.140625,0 -0.44531247,-0.03125 -0.60156247,-0.265625 0.42187497,-0.03125 0.45312497,-0.39062502 0.45312497,-0.43750002 0,-0.1953125 -0.140625,-0.296875 -0.31249997,-0.296875 -0.171875,0 -0.453125,0.1328125 -0.453125,0.5234375 0,0.37500002 0.34375,0.69531252 0.91406247,0.69531252 0.8125,0 1.7265625,-0.65625002 1.9609375,-1.61718752 z m 0,0" style="fill:#121619;fill-opacity:1;fill-rule:nonzero;stroke:none" aria-label="y" transform="matrix(2,0,0,2,394.54533,191.824)" />
    <path id="path15" d="m -33.3075,16.80884 v -27.57216 c 0,-1.10048 0.89208,-1.99255 1.99256,-1.99255 h 10.52107" style="fill:none;stroke:#121619;stroke-width:0.3985;stroke-linecap:butt;stroke-linejoin:miter;stroke-miterlimit:10;stroke-dasharray:none;stroke-opacity:1" transform="matrix(2,0,0,-2,299.54133,178.568)" />
    <path id="path16" d="M 3.58653,0 C 2.52383,0.19925 0.797,0.797 -0.3985,1.49438 V -1.49438 C 0.797,-0.797 2.52383,-0.19925 3.58653,0" style="fill:#121619;fill-opacity:1;fill-rule:nonzero;stroke:none" transform="matrix(2,0,0,-2,257.95359,204.07974)" />
    <path id="path17" d="m 3.1246927,-3.0394062 c -0.070312,-0.1328125 -0.3046875,-0.4765625 -0.7890625,-0.4765625 -0.953125,0 -1.99218749,1.109375 -1.99218749,2.2890625 0,0.82812495 0.53125,1.30468745 1.14843749,1.30468745 0.5078125,0 0.9453125,-0.40625 1.0859375,-0.5625 0.1484375,0.546875 0.6875,0.5625 0.78125,0.5625 0.3671875,0 0.5546875,-0.3046875 0.6171875,-0.4375 0.15625,-0.2890625 0.2734375,-0.74999995 0.2734375,-0.78124995 0,-0.046875 -0.03125,-0.1015625 -0.1328125,-0.1015625 -0.09375,0 -0.109375,0.046875 -0.15625,0.2421875 -0.109375,0.44531245 -0.265625,0.85937495 -0.5703125,0.85937495 -0.1875,0 -0.2578125,-0.15625 -0.2578125,-0.375 0,-0.140625 0.070312,-0.40625 0.1171875,-0.60937495 0.046875,-0.1953125 0.171875,-0.6796875 0.203125,-0.8203125 l 0.15625,-0.6015625 c 0.039063,-0.1953125 0.125,-0.53125 0.125,-0.5703125 0,-0.1796875 -0.1484375,-0.2421875 -0.25,-0.2421875 -0.125,0 -0.3203125,0.078125 -0.359375,0.3203125 z m -0.546875,2.17968745 c -0.3984375,0.546875 -0.8125,0.71875 -1.0625,0.71875 -0.3671875,0 -0.55468749,-0.3359375 -0.55468749,-0.75 0,-0.37499995 0.21874999,-1.22656245 0.39062499,-1.57812495 0.234375,-0.484375 0.625,-0.8203125 0.9921875,-0.8203125 0.515625,0 0.671875,0.578125 0.671875,0.671875 0,0.039063 -0.203125,0.8125 -0.25,1.0234375 -0.1015625,0.375 -0.1015625,0.390625 -0.1875,0.73437495 z m 0,0" style="fill:#121619;fill-opacity:1;fill-rule:nonzero;stroke:none" aria-label="a" transform="matrix(2,0,0,2,238.63733,177.946)" />
    <path id="path18" d="m 33.3075,16.80884 v -27.57216 c 0,-1.10048 -0.89208,-1.99255 -1.99256,-1.99255 H 20.79387" style="fill:none;stroke:#121619;stroke-width:0.3985;stroke-linecap:butt;stroke-linejoin:miter;stroke-miterlimit:10;stroke-dasharray:none;stroke-opacity:1" transform="matrix(2,0,0,-2,299.54133,178.568)" />
    <path id="path19" d="M 3.58653,0 C 2.52383,0.19925 0.797,0.797 -0.3985,1.49438 V -1.49438 C 0.797,-0.797 2.52383,-0.19925 3.58653,0" style="fill:#121619;fill-opacity:1;fill-rule:nonzero;stroke:none" transform="matrix(-2,0,0,2,341.12907,204.07974)" />
    <path id="path20" d="m 1.9452552,-5.2886719 c 0.00781,-0.015625 0.03125,-0.125 0.03125,-0.1328125 0,-0.039063 -0.03125,-0.109375 -0.125,-0.109375 -0.03125,0 -0.28125,0.023437 -0.46875,0.039063 l -0.44531249,0.03125 c -0.171875,0.015625 -0.25,0.023437 -0.25,0.171875 0,0.109375 0.109375,0.109375 0.203125,0.109375 0.38281249,0 0.38281249,0.046875 0.38281249,0.1171875 0,0.046875 -0.078125,0.3671875 -0.125,0.5546875 l -0.69531249,2.7734375 c -0.0625,0.265625 -0.0625,0.390625 -0.0625,0.5234375 0,0.82031253 0.5,1.28906253 1.11718749,1.28906253 0.9765625,0 2,-1.13281253 2,-2.28906253 0,-0.7890625 -0.5078125,-1.3046875 -1.1484375,-1.3046875 -0.4453125,0 -0.7890625,0.2890625 -0.9609375,0.4375 z m -0.4375,5.14843753 c -0.2890625,0 -0.57812499,-0.2265625 -0.57812499,-0.8046875 0,-0.21875003 0.03125,-0.41406253 0.13281249,-0.79687503 0.054687,-0.234375 0.109375,-0.4609375 0.171875,-0.6875 0.039063,-0.140625 0.039063,-0.1640625 0.1328125,-0.28125 0.2734375,-0.3359375 0.6328125,-0.578125 0.96875,-0.578125 0.3984375,0 0.546875,0.390625 0.546875,0.75 0,0.2890625 -0.171875,1.140625 -0.4140625,1.61718753 -0.203125,0.4296875 -0.5859375,0.78125 -0.9609375,0.78125 z m 0,0" style="fill:#121619;fill-opacity:1;fill-rule:nonzero;stroke:none" aria-label="b" transform="matrix(2,0,0,2,353.19933,180.05)" />
    <g id="g20" aria-label="∣ψ⟩" transform="matrix(2,0,0,2,287.43933,48.304)">
      <path id="path21" d="m 1.1943958,-6.0934063 v 7.8046875 h 0.5078125 v -7.8046875 z m 0,0" style="fill:#121619;fill-opacity:1;fill-rule:nonzero;stroke:none" />
      <path id="path22" d="m 6.9483021,-5.2652813 c 0.03125,-0.1171875 0.03125,-0.1328125 0.03125,-0.1640625 0,-0.078125 -0.054687,-0.1015625 -0.1171875,-0.1015625 -0.1015625,0 -0.109375,0.03125 -0.140625,0.171875 l -1.3046875,5.20312505 c -0.5625,-0.0703125 -0.953125,-0.3125 -0.953125,-0.88281255 0,-0.1484375 0,-0.359375 0.421875,-1.4140625 0.078125,-0.21875 0.085937,-0.2890625 0.085937,-0.3828125 0,-0.4296875 -0.3515625,-0.6796875 -0.71875,-0.6796875 -0.7890625,0 -1.109375,1.125 -1.109375,1.21875 0,0.070312 0.054687,0.1015625 0.1171875,0.1015625 0.1015625,0 0.109375,-0.046875 0.1328125,-0.125 0.2109375,-0.6953125 0.5546875,-0.96875 0.8359375,-0.96875 0.125,0 0.1953125,0.078125 0.1953125,0.2578125 0,0.1875 -0.070312,0.375 -0.1484375,0.546875 -0.40625,1.0546875 -0.40625,1.2265625 -0.40625,1.390625 0,0.75781255 0.65625,1.10156255 1.484375,1.15625005 L 4.9951771,1.5237812 c 0,0.070312 0.054687,0.1015625 0.125,0.1015625 0.1015625,0 0.109375,-0.03125 0.15625,-0.1953125 0.039063,-0.1796875 0.00781,-0.070312 0.3359375,-1.35156245 0.328125,0 0.9375,0 1.71875,-0.7421875 0.3203125,-0.2890625 0.5,-0.61718755 0.5703125,-0.73437505 0.2578125,-0.5234375 0.3671875,-1.21875 0.3671875,-1.5 0,-0.625 -0.3515625,-0.625 -0.3828125,-0.625 -0.1953125,0 -0.421875,0.2109375 -0.421875,0.4140625 0,0.1328125 0.078125,0.1953125 0.1171875,0.2265625 0.078125,0.070312 0.3203125,0.2734375 0.3203125,0.65625 0,0.6640625 -0.90625,2.08593755 -2.234375,2.08593755 z m 0,0" style="fill:#121619;fill-opacity:1;fill-rule:nonzero;stroke:none" />
      <path id="path23" d="m 9.9326771,1.8050312 1.4374999,-4 -1.4374999,-3.9921875 -0.4765625,0.1796875 1.4296874,3.8125 -1.4296874,3.8203125 z m 0,0" style="fill:#121619;fill-opacity:1;fill-rule:nonzero;stroke:none" />
    </g>
    <path id="path24" d="M -8.90643,67.32365 H -36.9843 c -1.10046,0 -1.99255,-0.89207 -1.99255,-1.99255 V 43.47131" style="fill:none;stroke:#121619;stroke-width:0.3985;stroke-linecap:butt;stroke-linejoin:miter;stroke-miterlimit:10;stroke-dasharray:none;stroke-opacity:1" transform="matrix(2,0,0,-2,299.54133,178.568)" />
    <path id="path25" d="M 3.58653,0 C 2.52383,0.19925 0.797,0.797 -0.3985,1.49438 V -1.49438 C 0.797,-0.797 2.52383,-0.19925 3.58653,0" style="fill:#121619;fill-opacity:1;fill-rule:nonzero;stroke:none" transform="matrix(0,2,2,0,221.58763,91.62538)" />
    <path id="path26" d="M 8.90643,67.32365 H 36.9843 c 1.10046,0 1.99255,-0.89207 1.99255,-1.99255 V 43.47131" style="fill:none;stroke:#121619;stroke-width:0.3985;stroke-linecap:butt;stroke-linejoin:miter;stroke-miterlimit:10;stroke-dasharray:none;stroke-opacity:1" transform="matrix(2,0,0,-2,299.54133,178.568)" />
    <path id="path27" d="M 3.58653,0 C 2.52383,0.19925 0.797,0.797 -0.3985,1.49438 V -1.49438 C 0.797,-0.797 2.52383,-0.19925 3.58653,0" style="fill:#121619;fill-opacity:1;fill-rule:nonzero;stroke:none" transform="matrix(0,2,2,0,377.49503,91.62538)" />
  </g>
</svg>