<?xml version='1.0' encoding='utf-8'?>
<svg xmlns="http://www.w3.org/2000/svg" xmlns:ns1="http://sodipodi.sourceforge.net/DTD/sodipodi-0.dtd" xmlns:ns2="http://www.inkscape.org/namespaces/inkscape" version="1.1" id="svg1" width="100%" height="auto" viewBox="-20.0 -20.0 481.39157 239.76164" ns1:docname="svg_fix_XXXXXX.svg">
  <rect id="path1" x="-20.0" y="-20.0" width="481.39157" height="239.76164" fill="white" /><ns1:namedview id="namedview1" pagecolor="#ffffff" bordercolor="#000000" borderopacity="0.25" ns2:showpageshadow="2" ns2:pageopacity="0.0" ns2:pagecheckerboard="0" ns2:deskcolor="#d1d1d1" />
  <defs id="defs1" />
  <g id="g1" transform="translate(-82.167968,-35.058594)">
    <path id="path2" d="M -138.19069,14.17339 H 109.13538" style="fill:none;stroke:#e7e8e8;stroke-width:0.79701;stroke-linecap:butt;stroke-linejoin:miter;stroke-miterlimit:10;stroke-dasharray:none;stroke-opacity:1" transform="matrix(1.6,0,0,-1.6,348.94293,152.86267)" />
    <path id="path3" d="m 4.2876081,-5.2931706 c 0.00977,-0.00977 0.029297,-0.1171875 0.029297,-0.1269531 0,-0.039063 -0.029297,-0.1074219 -0.1269531,-0.1074219 -0.029297,0 -0.2734375,0.019531 -0.4589844,0.039063 l -0.4492187,0.029297 c -0.1757813,0.019531 -0.2539063,0.019531 -0.2539063,0.1660156 0,0.1171875 0.1171875,0.1171875 0.2050782,0.1171875 0.3808593,0 0.3808593,0.039063 0.3808593,0.1171875 0,0.048828 -0.058594,0.3125 -0.097656,0.46875 l -0.390625,1.5527344 c -0.068359,-0.1367187 -0.3027344,-0.4785156 -0.7910156,-0.4785156 -0.9472657,0 -1.99218753,1.1132812 -1.99218753,2.2851562 0,0.83007815 0.53710938,1.30859378 1.15234373,1.30859378 0.5078125,0 0.9472656,-0.40039063 1.0839844,-0.56640625 0.1464844,0.55664062 0.6933594,0.56640625 0.78125,0.56640625 0.3710937,0 0.5566406,-0.30273438 0.6152344,-0.43945313 0.1660156,-0.28320312 0.2734375,-0.74218745 0.2734375,-0.78124995 0,-0.048828 -0.029297,-0.097656 -0.1269532,-0.097656 -0.097656,0 -0.1171875,0.048828 -0.15625,0.24414063 -0.1171875,0.43945312 -0.2636718,0.84960937 -0.5761718,0.84960937 -0.1855469,0 -0.2539063,-0.14648437 -0.2539063,-0.37109375 0,-0.15625 0.019531,-0.24414062 0.048828,-0.34179687 z m -1.7089844,4.43359378 c -0.390625,0.546875 -0.8105469,0.71289062 -1.0644531,0.71289062 -0.3613282,0 -0.54687503,-0.33203125 -0.54687503,-0.7421875 0,-0.3808594 0.21484373,-1.2304687 0.39062503,-1.5820312 0.2246093,-0.4882813 0.6152343,-0.8203125 0.9863281,-0.8203125 0.5175781,0 0.6640625,0.5859375 0.6640625,0.6738281 0,0.039063 -0.1953125,0.8203125 -0.2441406,1.0253906 -0.097656,0.3710938 -0.097656,0.390625 -0.1855469,0.73242188 z m 0,0" style="fill:#121619;fill-opacity:1;fill-rule:nonzero;stroke:none" aria-label="d" transform="matrix(1.6,0,0,1.6,144.64373,43.902667)" />
    <path id="path4" d="m 3.260694,-3.0562839 c -0.3320312,0.048828 -0.4296875,0.2929688 -0.4296875,0.4492188 0,0.234375 0.2050781,0.2929687 0.3125,0.2929687 0.039063,0 0.4394531,-0.029297 0.4394531,-0.5175781 0,-0.4785156 -0.5273437,-0.6835937 -1.0058593,-0.6835937 -1.1230469,0 -2.22656254,1.1035156 -2.22656254,2.2167968 0,0.7617188 0.51757813,1.37695317 1.40625004,1.37695317 1.25,0 1.9140625,-0.80078125 1.9140625,-0.90820312 0,-0.0683594 -0.078125,-0.12695313 -0.1269532,-0.12695313 -0.048828,0 -0.068359,0.0292969 -0.1074218,0.0683594 -0.6347657,0.7421875 -1.5234375,0.7421875 -1.6699219,0.7421875 -0.4296875,0 -0.77148439,-0.26367188 -0.77148439,-0.86914062 0,-0.3515625 0.15624999,-1.1914063 0.53710939,-1.6894532 0.3515625,-0.4394531 0.7421875,-0.5859375 1.0546875,-0.5859375 0.097656,0 0.46875,0.00977 0.6738281,0.234375 z m 0,0" style="fill:#121619;fill-opacity:1;fill-rule:nonzero;stroke:none" aria-label="c" transform="matrix(1.6,0,0,1.6,145.74773,64.897867)" />
    <path id="path5" d="m 4.2864674,-5.2926667 c 0.00977,-0.00977 0.029297,-0.1171875 0.029297,-0.1269531 0,-0.039063 -0.029297,-0.1074219 -0.1269531,-0.1074219 -0.029297,0 -0.2734375,0.019531 -0.4589844,0.039063 l -0.4492187,0.029297 c -0.1757813,0.019531 -0.2539063,0.019531 -0.2539063,0.1660156 0,0.1171875 0.1171875,0.1171875 0.2050781,0.1171875 0.3808594,0 0.3808594,0.039063 0.3808594,0.1171875 0,0.048828 -0.058594,0.3125 -0.097656,0.46875 l -0.390625,1.5527344 c -0.06836,-0.1367193 -0.3027347,-0.4785162 -0.791016,-0.4785162 -0.9472656,0 -1.99218745,1.1132812 -1.99218745,2.2851562 0,0.83007816 0.53710937,1.30859378 1.15234375,1.30859378 0.5078125,0 0.9472656,-0.40039062 1.0839844,-0.56640625 0.1464843,0.55664063 0.6933593,0.56640625 0.78125,0.56640625 0.3710937,0 0.5566406,-0.30273437 0.6152343,-0.43945312 0.1660157,-0.28320313 0.2734375,-0.74218746 0.2734375,-0.78124996 0,-0.048828 -0.029297,-0.097656 -0.1269531,-0.097656 -0.097656,0 -0.1171875,0.048828 -0.15625,0.24414063 -0.1171875,0.43945313 -0.2636719,0.84960938 -0.5761719,0.84960938 -0.1855468,0 -0.2539062,-0.14648438 -0.2539062,-0.37109375 0,-0.15625 0.019531,-0.24414063 0.048828,-0.34179688 z m -1.7089843,4.43359378 c -0.390625,0.546875 -0.8105469,0.71289063 -1.0644532,0.71289063 -0.3613281,0 -0.54687495,-0.33203125 -0.54687495,-0.7421875 0,-0.38085941 0.21484375,-1.23046871 0.39062495,-1.58203121 0.2246094,-0.4882813 0.6152344,-0.8203125 0.9863282,-0.8203125 0.5175781,0 0.6640625,0.5859375 0.6640625,0.6738281 0,0.039063 -0.1953125,0.8203125 -0.2441407,1.0253906 -0.097656,0.3710938 -0.097656,0.390625 -0.1855468,0.73242188 z m 0,0" style="fill:#121619;fill-opacity:1;fill-rule:nonzero;stroke:none" aria-label="d" transform="matrix(1.6,0,0,1.6,512.25493,179.96827)" />
    <path id="path6" d="m 3.2610768,-3.0564167 c -0.3320312,0.048828 -0.4296875,0.2929688 -0.4296875,0.4492188 0,0.234375 0.2050781,0.2929687 0.3125,0.2929687 0.039063,0 0.4394531,-0.029297 0.4394531,-0.5175781 0,-0.4785156 -0.5273437,-0.6835937 -1.0058593,-0.6835937 -1.1230469,0 -2.22656253,1.1035156 -2.22656253,2.2167968 0,0.76171878 0.51757813,1.37695316 1.40625003,1.37695316 1.25,0 1.9140625,-0.80078125 1.9140625,-0.90820313 0,-0.0683594 -0.078125,-0.12695312 -0.1269532,-0.12695312 -0.048828,0 -0.068359,0.0292969 -0.1074218,0.0683594 -0.6347657,0.7421875 -1.5234375,0.7421875 -1.6699219,0.7421875 -0.4296875,0 -0.77148438,-0.26367187 -0.77148438,-0.86914061 0,-0.3515625 0.15624998,-1.1914063 0.53710938,-1.6894532 0.3515625,-0.4394531 0.7421875,-0.5859375 1.0546875,-0.5859375 0.097656,0 0.46875,0.00977 0.6738281,0.234375 z m 0,0" style="fill:#121619;fill-opacity:1;fill-rule:nonzero;stroke:none" aria-label="c" transform="matrix(1.6,0,0,1.6,512.25493,223.64027)" />
    <g id="g6" aria-label="∣ϕ&#10;+&#10;⟩&#10;⎧&#10;⎪&#10;⎪&#10;⎪&#10;⎪&#10;⎪&#10;⎪&#10;⎪&#10;⎪&#10;⎪&#10;⎪&#10;⎪&#10;⎪&#10;⎪&#10;⎪&#10;⎪&#10;⎨&#10;⎪&#10;⎪&#10;⎪&#10;⎪&#10;⎪&#10;⎪&#10;⎪&#10;⎪&#10;⎪&#10;⎪&#10;⎪&#10;⎪&#10;⎪&#10;⎪&#10;⎪&#10;⎩" transform="matrix(1.6,0,0,1.6,80.262933,162.91707)">
      <path id="path7" d="m 1.1906471,-6.0931862 v 7.8027344 h 0.5175782 v -7.8027344 z m 0,0" style="fill:#121619;fill-opacity:1;fill-rule:nonzero;stroke:none" />
      <path id="path8" d="m 6.5837135,-5.4291237 c 0,-0.087891 -0.087891,-0.097656 -0.1269531,-0.097656 -0.1074219,0 -0.1074219,0.048828 -0.1464844,0.1757812 l -0.4492187,1.8261719 c -1.4160156,0.058594 -2.5488281,1.1230469 -2.5488281,2.1582031 0,0.79101563 0.6933593,1.41601563 1.640625,1.45507813 C 4.8844948,0.33259505 4.825901,0.5865013 4.7673073,0.84040755 4.669651,1.2115013 4.6012917,1.5044701 4.6012917,1.5337669 c 0,0 0,0.087891 0.1171875,0.087891 0.1074218,0 0.1074218,-0.039063 0.15625,-0.1855469 L 5.2067604,0.09822005 c 1.40625,-0.078125 2.5390625,-1.11328125 2.5390625,-2.15820315 0,-0.9082031 -0.8007812,-1.4257812 -1.6308594,-1.4648437 z m -0.5273437,2.1191406 c 0.5957031,0.048828 1.1230469,0.3710938 1.1230469,1.1132813 0,0.7519531 -0.546875,1.9238281 -1.9140625,2.06054685 z M 5.0016823,-0.12638932 C 4.747776,-0.14592057 3.8786354,-0.2728737 3.8786354,-1.2299049 c 0,-0.859375 0.6445313,-1.953125 1.9140625,-2.0703125 z m 0,0" style="fill:#121619;fill-opacity:1;fill-rule:nonzero;stroke:none" />
      <path id="path9" d="m 9.8991432,-7.4066628 v 1.4257813 H 8.473362 v 0.3808594 h 1.4257812 v 1.4257812 h 0.3808598 v -1.4257812 h 1.425781 v -0.3808594 h -1.425781 v -1.4257813 z m 0,0" style="fill:#121619;fill-opacity:1;fill-rule:nonzero;stroke:none" />
      <path id="path10" d="m 13.949436,1.7974388 1.435547,-3.984375 -1.435547,-3.9941406 -0.478515,0.1757812 1.435546,3.8183594 -1.435546,3.8085938 z m 7.470703,-45.6298828 v -0.419922 c -0.986328,0 -1.884765,0.654297 -1.884765,1.601563 v 3.339843 h 0.507812 v -3.349609 c 0,-0.683594 0.654297,-1.171875 1.376953,-1.171875 z m -1.884765,3.937988 v 2.851563 h 0.507812 v -2.851563 z m 0,2.341309 v 2.851562 h 0.507812 v -2.851562 z m 0,2.34375 v 2.851562 h 0.507812 v -2.851562 z m 0,2.34375 v 2.851562 h 0.507812 v -2.851562 z m 0,2.34375 v 2.851562 h 0.507812 v -2.851562 z m 0,2.34375 v 2.851562 h 0.507812 v -2.851562 z m 0,2.341308 v 2.851563 h 0.507812 v -2.851563 z m 0,2.34375 v 2.851563 h 0.507812 v -2.851563 z m 0,2.34375 v 2.851563 h 0.507812 v -2.851563 z m 0,2.34375 v 2.851563 h 0.507812 v -2.851563 z m 0,2.341309 v 2.851563 h 0.507812 v -2.851563 z m 0,2.346191 v 2.851563 h 0.507812 v -2.851563 z m 0,2.341309 v 2.8515626 h 0.507812 V -11.77678 Z m 0,2.3437501 v 2.8515625 h 0.507812 v -2.8515625 z m 0,2.34375 v 2.8515625 h 0.507812 v -2.8515625 z m 0.507812,2.3413085 h -0.507812 v 1.2597657 c 0,0.6347656 -0.605469,1.0742187 -1.289063,1.1035156 h -0.08789 v 0.4589844 c 0.722656,0 1.376953,0.4492187 1.376953,1.12304685 v 1.25 h 0.507812 v -1.25976563 c 0,-0.60546872 -0.361328,-1.07421872 -0.888672,-1.33789062 0.527344,-0.2636719 0.888672,-0.7519531 0.888672,-1.3476563 z m -0.507812,4.61181645 V 2.7154076 h 0.507812 v -2.85156255 z m 0,2.34375005 v 2.8515625 h 0.507812 V 2.2075951 Z m 0,2.34375 v 2.8515625 h 0.507812 V 4.5513451 Z m 0,2.3413085 v 2.8515625 h 0.507812 V 6.8926536 Z m 0,2.34375 v 2.8515624 h 0.507812 V 9.2364036 Z m 0,2.3437504 v 2.851562 h 0.507812 v -2.851562 z m 0,2.34375 v 2.851562 h 0.507812 v -2.851562 z m 0,2.34375 v 2.851562 h 0.507812 v -2.851562 z m 0,2.341308 v 2.851563 h 0.507812 v -2.851563 z m 0,2.34375 v 2.851563 h 0.507812 v -2.851563 z m 0,2.34375 v 2.851563 h 0.507812 v -2.851563 z m 0,2.34375 v 2.851563 h 0.507812 v -2.851563 z m 0,2.341309 v 2.851562 h 0.507812 v -2.851562 z m 0,2.34375 v 2.851562 h 0.507812 v -2.851562 z m 0,2.34375 v 2.851562 h 0.507812 v -2.851562 z m 1.884765,7.285156 V 39.52449 c -0.722656,0 -1.376953,-0.488282 -1.376953,-1.171875 v -3.339844 h -0.507812 v 3.339844 c 0,0.947265 0.898437,1.601562 1.884765,1.601562 z m 0,0" style="fill:#121619;fill-opacity:1;fill-rule:nonzero;stroke:none" />
    </g>
    <path id="path11" d="M 5.3909596,5.3645833e-4 3.2034596,-5.5268073 H 2.4319753 L 0.23470964,5.3645833e-4 H 0.88900651 L 1.5140065,-1.5814948 h 2.421875 l 0.625,1.58203125833 z M 3.740569,-2.0502448 H 1.709319 L 2.7347096,-4.9213385 Z M 6.9803151,5.3645833e-4 V -5.5268073 H 6.3162526 V 5.3645833e-4 Z m 2.0166016,0 V -3.5346198 H 8.3328542 V 5.3645833e-4 Z M 9.065276,-4.4623542 V -5.2631354 H 8.2644948 v 0.8007812 z m 4.125977,4.17968753 -0.04883,-0.5859375 c -0.40039,0.25390625 -0.830078,0.40039063 -1.318359,0.40039063 -0.742187,0 -1.171875,-0.59570316 -1.171875,-1.30859376 0,-0.6152344 0.322266,-1.328125 1.191406,-1.328125 0.53711,0 0.800782,0.1074219 1.201172,0.3613281 l 0.107422,-0.5664062 c -0.478516,-0.2441406 -0.683594,-0.3515625 -1.308594,-0.3515625 -1.191406,0 -1.8847653,0.9667969 -1.8847653,1.8945312 0,0.96679691 0.7714843,1.84570316 1.8554683,1.84570316 0.556641,0 1.035157,-0.16601563 1.376955,-0.36132813 z m 3.752441,-1.46484373 c 0,-0.3613281 -0.03906,-0.8984375 -0.351562,-1.3476563 -0.283204,-0.4101562 -0.761719,-0.5664062 -1.152344,-0.5664062 -0.976563,0 -1.71875,0.859375 -1.71875,1.8652344 0,1.02539058 0.791015,1.87499996 1.845703,1.87499996 0.458984,0 0.9375,-0.13671875 1.347656,-0.38085938 l -0.04883,-0.56640625 c -0.449219,0.32226563 -0.947266,0.41992188 -1.289062,0.41992188 -0.69336,0 -1.220704,-0.56640621 -1.25,-1.29882811 z M 16.455413,-2.226026 H 14.3851 c 0.185547,-0.6347657 0.654297,-0.9082032 1.054688,-0.9082032 0.351562,0 0.86914,0.1660157 1.015625,0.9082032 z m 0,0" style="fill:#121619;fill-opacity:1;fill-rule:nonzero;stroke:none" aria-label="Alice" transform="matrix(1.6,0,0,1.6,484.85493,120.95227)" />
    <path id="path12" d="m 5.1669596,-1.4944167 c 0,-0.703125 -0.7421875,-1.2695312 -1.6308593,-1.3964843 0.8300781,-0.2050782 1.3867187,-0.6835938 1.3867187,-1.25 0,-0.7324219 -0.9179687,-1.3867188 -2.0898437,-1.3867188 H 0.80172526 V -2.7604167e-4 H 3.0673503 c 1.1816406,0 2.0996093,-0.70312499833 2.0996093,-1.49414065833 z m -0.9375,-2.6464843 c 0,0.5371093 -0.7226562,0.9960937 -1.6210937,0.9960937 H 1.5439128 v -1.9140625 h 1.0546875 c 0.8886718,0 1.6308593,0.4101563 1.6308593,0.9179688 z m 0.2148438,2.6367187 c 0,0.58593751 -0.7421875,1.03515626 -1.6210938,1.03515626 H 1.5439128 V -2.6174635 h 1.1425781 c 1.0058594,0 1.7578125,0.5175781 1.7578125,1.1132812 z m 5.1831055,-0.2441406 c 0,-1.0449219 -0.8398438,-1.9140625 -1.875,-1.9140625 -1.0351563,0 -1.875,0.8691406 -1.875,1.9140625 0,1.01562498 0.8496093,1.82617186 1.875,1.82617186 1.0351562,0 1.875,-0.81054688 1.875,-1.82617186 z m -0.6933594,-0.087891 c 0,0.90820308 -0.5664063,1.36718746 -1.1816406,1.36718746 -0.625,0 -1.1816407,-0.45898438 -1.1816407,-1.36718746 0,-0.8984375 0.5957032,-1.2988282 1.1816407,-1.2988282 0.5957031,0 1.1816406,0.4199219 1.1816406,1.2988282 z m 5.0219725,0.058594 c 0,-0.9667969 -0.55664,-1.8359375 -1.347656,-1.8359375 -0.507813,0 -0.986328,0.15625 -1.386719,0.4492188 v -2.3632813 h -0.673828 v 5.52734375833 h 0.693359 V -0.37136979 c 0.175782,0.14648437 0.556641,0.44921875 1.142579,0.44921875 0.86914,0 1.572265,-0.81054688 1.572265,-1.85546886 z m -0.693359,0 c 0,0.97656251 -0.664063,1.32812501 -1.220703,1.32812501 -0.292969,0 -0.576172,-0.13671875 -0.800782,-0.48828125 V -2.5100417 c 0,-0.1269531 0,-0.2246093 0.283204,-0.4101562 0.117187,-0.068359 0.332031,-0.1757813 0.605468,-0.1757813 0.53711,0 1.132813,0.3613282 1.132813,1.3183593 z m 0,0" style="fill:#121619;fill-opacity:1;fill-rule:nonzero;stroke:none" aria-label="Bob" transform="matrix(1.6,0,0,1.6,487.21333,148.14107)" />
    <path id="path13" d="M 62.36298,-22.67743 H 79.37104 V -5.66937 H 62.36298 Z" style="fill:#000000;fill-opacity:1;fill-rule:nonzero;stroke:#000000;stroke-width:0.3985;stroke-linecap:butt;stroke-linejoin:miter;stroke-miterlimit:10;stroke-dasharray:none;stroke-opacity:1" transform="matrix(1.6,0,0,-1.6,348.94293,152.86267)" />
    <path id="path14" d="m 76.53629,-16.72449 c 0,3.13112 -2.53824,5.66934 -5.66936,5.66934 -3.13112,0 -5.66934,-2.53822 -5.66934,-5.66934" style="fill:none;stroke:#ffffff;stroke-width:0.79701;stroke-linecap:butt;stroke-linejoin:miter;stroke-miterlimit:10;stroke-dasharray:none;stroke-opacity:1" transform="matrix(1.6,0,0,-1.6,348.94293,152.86267)" />
    <path id="path15" d="m 70.867,-16.44118 5.66929,4.81891" style="fill:none;stroke:#ffffff;stroke-width:0.79701;stroke-linecap:butt;stroke-linejoin:miter;stroke-miterlimit:10;stroke-dasharray:none;stroke-opacity:1" transform="matrix(1.6,0,0,-1.6,348.94293,152.86267)" />
    <path id="path16" d="m 71.7174,-16.44118 c 0,0.46967 -0.38073,0.85041 -0.8504,0.85041 -0.46966,0 -0.85038,-0.38074 -0.85038,-0.85041 0,-0.46966 0.38072,-0.8504 0.85038,-0.8504 0.46967,0 0.8504,0.38074 0.8504,0.8504 z" style="fill:#ffffff;fill-opacity:1;fill-rule:nonzero;stroke:none" transform="matrix(1.6,0,0,-1.6,348.94293,152.86267)" />
    <path id="path17" d="m 62.36298,-51.02423 h 17.00806 v 17.00806 H 62.36298 Z" style="fill:#000000;fill-opacity:1;fill-rule:nonzero;stroke:#000000;stroke-width:0.3985;stroke-linecap:butt;stroke-linejoin:miter;stroke-miterlimit:10;stroke-dasharray:none;stroke-opacity:1" transform="matrix(1.6,0,0,-1.6,348.94293,152.86267)" />
    <path id="path18" d="m 76.53629,-45.0713 c 0,3.13111 -2.53824,5.66935 -5.66936,5.66935 -3.13112,0 -5.66934,-2.53824 -5.66934,-5.66935" style="fill:none;stroke:#ffffff;stroke-width:0.79701;stroke-linecap:butt;stroke-linejoin:miter;stroke-miterlimit:10;stroke-dasharray:none;stroke-opacity:1" transform="matrix(1.6,0,0,-1.6,348.94293,152.86267)" />
    <path id="path19" d="m 70.867,-44.78798 5.66929,4.81889" style="fill:none;stroke:#ffffff;stroke-width:0.79701;stroke-linecap:butt;stroke-linejoin:miter;stroke-miterlimit:10;stroke-dasharray:none;stroke-opacity:1" transform="matrix(1.6,0,0,-1.6,348.94293,152.86267)" />
    <path id="path20" d="m 71.7174,-44.78798 c 0,0.46967 -0.38073,0.85039 -0.8504,0.85039 -0.46966,0 -0.85038,-0.38072 -0.85038,-0.85039 0,-0.46966 0.38072,-0.8504 0.85038,-0.8504 0.46967,0 0.8504,0.38074 0.8504,0.8504 z" style="fill:#ffffff;fill-opacity:1;fill-rule:nonzero;stroke:none" transform="matrix(1.6,0,0,-1.6,348.94293,152.86267)" />
    <path id="path21" d="M 79.5703,-13.46474 H 96.35811" style="fill:none;stroke:#121619;stroke-width:0.3985;stroke-linecap:butt;stroke-linejoin:miter;stroke-miterlimit:10;stroke-dasharray:none;stroke-opacity:1" transform="matrix(1.6,0,0,-1.6,348.94293,152.86267)" />
    <path id="path22" d="M 79.5703,-14.88205 H 96.35811" style="fill:none;stroke:#121619;stroke-width:0.3985;stroke-linecap:butt;stroke-linejoin:miter;stroke-miterlimit:10;stroke-dasharray:none;stroke-opacity:1" transform="matrix(1.6,0,0,-1.6,348.94293,152.86267)" />
    <path id="path23" d="M 79.5703,-41.81154 H 96.35811" style="fill:none;stroke:#121619;stroke-width:0.3985;stroke-linecap:butt;stroke-linejoin:miter;stroke-miterlimit:10;stroke-dasharray:none;stroke-opacity:1" transform="matrix(1.6,0,0,-1.6,348.94293,152.86267)" />
    <path id="path24" d="M 79.5703,-43.22885 H 96.35811" style="fill:none;stroke:#121619;stroke-width:0.3985;stroke-linecap:butt;stroke-linejoin:miter;stroke-miterlimit:10;stroke-dasharray:none;stroke-opacity:1" transform="matrix(1.6,0,0,-1.6,348.94293,152.86267)" />
    <path id="path25" d="m -117.61821,71.57567 h 18.40439" style="fill:none;stroke:#121619;stroke-width:0.3985;stroke-linecap:butt;stroke-linejoin:miter;stroke-miterlimit:10;stroke-dasharray:none;stroke-opacity:1" transform="matrix(1.6,0,0,-1.6,348.94293,152.86267)" />
    <path id="path26" d="m -117.61821,70.15836 h 18.40439" style="fill:none;stroke:#121619;stroke-width:0.3985;stroke-linecap:butt;stroke-linejoin:miter;stroke-miterlimit:10;stroke-dasharray:none;stroke-opacity:1" transform="matrix(1.6,0,0,-1.6,348.94293,152.86267)" />
    <path id="path27" d="M -117.61821,57.40227 H -70.867" style="fill:none;stroke:#121619;stroke-width:0.3985;stroke-linecap:butt;stroke-linejoin:miter;stroke-miterlimit:10;stroke-dasharray:none;stroke-opacity:1" transform="matrix(1.6,0,0,-1.6,348.94293,152.86267)" />
    <path id="path28" d="M -117.61821,55.98495 H -70.867" style="fill:none;stroke:#121619;stroke-width:0.3985;stroke-linecap:butt;stroke-linejoin:miter;stroke-miterlimit:10;stroke-dasharray:none;stroke-opacity:1" transform="matrix(1.6,0,0,-1.6,348.94293,152.86267)" />
    <path id="path29" d="m -138.87834,35.43349 h 96.35814 l 28.34681,-49.60688 h 76.33712" style="fill:none;stroke:#121619;stroke-width:0.3985;stroke-linecap:butt;stroke-linejoin:miter;stroke-miterlimit:10;stroke-dasharray:none;stroke-opacity:1" transform="matrix(1.6,0,0,-1.6,348.94293,152.86267)" />
    <path id="path30" d="M -138.87834,-42.5202 H 62.16373" style="fill:none;stroke:#121619;stroke-width:0.3985;stroke-linecap:butt;stroke-linejoin:miter;stroke-miterlimit:10;stroke-dasharray:none;stroke-opacity:1" transform="matrix(1.6,0,0,-1.6,348.94293,152.86267)" />
    <path id="path31" d="m -107.71785,26.92946 h 17.00806 v 17.00806 h -17.00806 z" style="fill:#78a9ff;fill-opacity:1;fill-rule:nonzero;stroke:#78a9ff;stroke-width:0.3985;stroke-linecap:butt;stroke-linejoin:miter;stroke-miterlimit:10;stroke-dasharray:none;stroke-opacity:1" transform="matrix(1.6,0,0,-1.6,348.94293,152.86267)" />
    <path id="path32" d="m 5.9089674,-5.1362956 c 0.068359,-0.068359 0.1171875,-0.1269531 0.1171875,-0.2148437 0,-0.087891 -0.068359,-0.087891 -0.2148437,-0.087891 H 2.2663893 c -0.2050781,0 -0.2148437,0 -0.2636719,0.15625 l -0.4492187,1.4160156 c -0.00977,0.039063 -0.019531,0.078125 -0.019531,0.1171875 0,0.019531 0,0.1171875 0.1171875,0.1171875 0.087891,0 0.1074219,-0.029297 0.1464844,-0.1953125 0.390625,-1.0839844 1.0058594,-1.3476563 1.9824219,-1.3476563 h 1.3769531 l -4.55078123,4.8730469 c -0.0683594,0.0683594 -0.10742187,0.1171875 -0.10742187,0.21484375 0,0.0878906271 0.0683594,0.0878906271 0.21484375,0.0878906271 H 4.3952956 c 0.2050781,0 0.2148437,-0.009765627 0.2636718,-0.1562499971 L 5.2156081,-1.9038737 c 0.029297,-0.1074219 0.029297,-0.1171875 0.029297,-0.1269531 0,-0.00977 -0.00977,-0.1171875 -0.1171875,-0.1171875 -0.048828,0 -0.078125,0.029297 -0.078125,0.039063 -0.019531,0.00977 -0.039063,0.029297 -0.048828,0.048828 -0.00977,0.048828 -0.00977,0.058594 -0.078125,0.234375 -0.3515625,1.07421875 -0.8203125,1.54296875 -2.0800781,1.54296875 H 1.3874831 Z m 0,0" style="fill:#ffffff;fill-opacity:1;fill-rule:nonzero;stroke:none" aria-label="Z" transform="matrix(1.6,0,0,1.6,185.15893,100.52667)" />
    <path id="path33" d="m -79.37105,26.92946 h 17.00806 v 17.00806 h -17.00806 z" style="fill:#78a9ff;fill-opacity:1;fill-rule:nonzero;stroke:#78a9ff;stroke-width:0.3985;stroke-linecap:butt;stroke-linejoin:miter;stroke-miterlimit:10;stroke-dasharray:none;stroke-opacity:1" transform="matrix(1.6,0,0,-1.6,348.94293,152.86267)" />
    <path id="path34" d="m 4.1609987,-3.0464518 c 0.3808594,-0.390625 1.5136719,-1.5527344 1.7089844,-1.6992188 0.3320312,-0.2539062 0.5273437,-0.4003906 1.1035156,-0.4296875 0.048828,-0.00977 0.1074219,-0.048828 0.1074219,-0.15625 0,-0.068359 -0.068359,-0.1074218 -0.1074219,-0.1074218 -0.078125,0 -0.1269531,0.019531 -0.7519531,0.019531 -0.5957032,0 -0.8105469,-0.019531 -0.8496094,-0.019531 -0.029297,0 -0.15625,0 -0.15625,0.1464843 0,0.00977 0,0.1074219 0.1171875,0.1171875 0.058594,0 0.2734375,0.019531 0.2734375,0.2050782 0,0.058594 -0.039063,0.1464843 -0.097656,0.2050781 l -0.029297,0.039063 c -0.019531,0.029297 -0.019531,0.039063 -0.097656,0.1171875 l -1.328125,1.3378906 -0.8203125,-1.6894531 c 0.1171875,-0.1855469 0.3515625,-0.2148438 0.4492188,-0.2148438 0.039063,0 0.1464843,-0.00977 0.1464843,-0.1464843 0,-0.068359 -0.048828,-0.1171875 -0.1269531,-0.1171875 -0.078125,0 -0.3808594,0.00977 -0.4589844,0.00977 -0.048828,0.00977 -0.3417968,0.00977 -0.5078125,0.00977 -0.7421875,0 -0.8398437,-0.019531 -0.9082031,-0.019531 -0.029297,0 -0.15625,0 -0.15625,0.1464843 0,0.1171875 0.097656,0.1171875 0.2246094,0.1171875 0.4003906,0 0.46875,0.078125 0.546875,0.2246094 l 1.0546875,2.2363281 -1.6308594,1.6601563 c -0.4785156,0.4785156 -0.8496094,0.76171873 -1.4160156,0.7910156 -0.0976563,0.009766 -0.1953125,0.009766 -0.1953125,0.15625 0,0.0390625 0.0390625,0.10742187708 0.1171875,0.10742187708 0.0585938,0 0.14648437,-0.0195312471 0.7519531,-0.0195312471 0.5761719,0 0.8203125,0.0195312471 0.8496094,0.0195312471 0.039063,0 0.1660156,0 0.1660156,-0.15624999708 0,-0.009766 -0.00977,-0.0976562 -0.1269531,-0.10742188 -0.15625,-0.009766 -0.2636719,-0.0585938 -0.2636719,-0.20507812 0,-0.12695313 0.087891,-0.234375 0.2148438,-0.3515625 0.1367187,-0.15625 0.546875,-0.56640628 0.8300781,-0.84960938 0.1855469,-0.1757812 0.6347656,-0.6445312 0.8203125,-0.8203125 l 0.9082031,1.90429688 c 0.048828,0.0878906 0.048828,0.0878906 0.048828,0.0976563 0,0.078125 -0.1757812,0.20507812 -0.4296875,0.22460937 -0.058594,0 -0.1660156,0.009766 -0.1660156,0.15625 0,0 0.00977,0.10742187708 0.1367188,0.10742187708 0.078125,0 0.3710937,-0.0195312471 0.4589843,-0.0195312471 h 0.5078125 c 0.7324219,0 0.8398438,0.0195312471 0.9179688,0.0195312471 0.029297,0 0.1464844,0 0.1464844,-0.15624999708 0,-0.10742188 -0.097656,-0.10742188 -0.2246094,-0.10742188 -0.4296875,0 -0.4785156,-0.0976563 -0.5273438,-0.21484375 z m 0,0" style="fill:#ffffff;fill-opacity:1;fill-rule:nonzero;stroke:none" aria-label="X" transform="matrix(1.6,0,0,1.6,229.48693,100.52667)" />
    <path id="path35" d="M 31.18132,-22.67743 H 48.18938 V -5.66937 H 31.18132 Z" style="fill:#78a9ff;fill-opacity:1;fill-rule:nonzero;stroke:#78a9ff;stroke-width:0.3985;stroke-linecap:butt;stroke-linejoin:miter;stroke-miterlimit:10;stroke-dasharray:none;stroke-opacity:1" transform="matrix(1.6,0,0,-1.6,348.94293,152.86267)" />
    <path id="path36" d="m 6.367112,-4.7945651 c 0.078125,-0.3125 0.097656,-0.3808594 0.6542969,-0.3808594 0.1855468,0 0.2734375,0 0.2734375,-0.15625 0,-0.00977 0,-0.1074219 -0.1269532,-0.1074219 -0.15625,0 -0.3515625,0.00977 -0.4980468,0.019531 H 6.1717995 c -0.7714844,0 -0.9765625,-0.019531 -1.0351563,-0.019531 -0.029297,0 -0.15625,0 -0.15625,0.1464844 0,0.1171875 0.1074219,0.1171875 0.234375,0.1171875 0.2636719,0 0.4882813,0 0.4882813,0.1269531 0,0.029297 -0.00977,0.039063 -0.029297,0.1367188 L 5.195237,-2.9683932 H 2.6268776 l 0.46875,-1.8554688 c 0.068359,-0.2832031 0.087891,-0.3515625 0.6640625,-0.3515625 0.15625,0 0.2539063,0 0.2539063,-0.15625 0,-0.00977 -0.00977,-0.1074219 -0.1367188,-0.1074219 -0.1464844,0 -0.3417969,0.00977 -0.4882812,0.019531 H 2.8807839 c -0.7617188,0 -0.9667969,-0.019531 -1.0253907,-0.019531 -0.029297,0 -0.15625,0 -0.15625,0.1464844 0,0.1171875 0.097656,0.1171875 0.2246094,0.1171875 0.2636719,0 0.4980469,0 0.4980469,0.1269531 0,0.029297 -0.00977,0.039063 -0.029297,0.1367188 l -1.0742187,4.28710937 c -0.068359,0.30273438 -0.087891,0.36132813 -0.67382817,0.36132813 -0.14648438,0 -0.24414063,0 -0.24414063,0.15625 0,0.02929687 0.0195313,0.10742187083 0.12695313,0.10742187083 0.14648437,0 0.34179687,-0.0195312508 0.48828127,-0.0195312508 h 0.5175781 c 0.7617188,0 0.9667969,0.0195312508 1.0253906,0.0195312508 0.048828,0 0.15625,0 0.15625,-0.15625000083 0,-0.10742187 -0.097656,-0.10742187 -0.234375,-0.10742187 -0.029297,0 -0.1660156,0 -0.3027343,-0.0195313 -0.1660157,-0.009766 -0.1855469,-0.0390625 -0.1855469,-0.10742188 0,-0.0390625 0.019531,-0.0878906 0.019531,-0.12695312 l 0.546875,-2.1875001 h 2.5683594 c -0.234375,0.9472657 -0.546875,2.1875001 -0.5566406,2.1875001 -0.068359,0.24414062 -0.2148438,0.24414062 -0.6933594,0.25390625 -0.087891,0 -0.1953125,0 -0.1953125,0.15625 0,0.02929687 0.019531,0.10742187083 0.1269531,0.10742187083 0.15625,0 0.3417969,-0.0195312508 0.4980469,-0.0195312508 h 0.5078125 c 0.7617188,0 0.9667969,0.0195312508 1.0253906,0.0195312508 0.048828,0 0.15625,0 0.15625,-0.15625000083 0,-0.10742187 -0.097656,-0.10742187 -0.234375,-0.10742187 -0.019531,0 -0.1660156,0 -0.3027343,-0.0195313 -0.1660157,-0.009766 -0.1855469,-0.0390625 -0.1855469,-0.10742188 0,-0.0390625 0.019531,-0.0878906 0.029297,-0.12695312 z m 0,0" style="fill:#ffffff;fill-opacity:1;fill-rule:nonzero;stroke:none" aria-label="H" transform="matrix(1.6,0,0,1.6,406.38293,179.89787)" />
    <path id="path37" d="m -97.22127,70.867 c 0,1.10048 -0.89207,1.99256 -1.99255,1.99256 -1.10047,0 -1.99256,-0.89208 -1.99256,-1.99256 0,-1.10046 0.89209,-1.99255 1.99256,-1.99255 1.10048,0 1.99255,0.89209 1.99255,1.99255 z" style="fill:#121619;fill-opacity:1;fill-rule:nonzero;stroke:none" transform="matrix(1.6,0,0,-1.6,348.94293,152.86267)" />
    <path id="path38" d="m -68.87445,56.69362 c 0,1.10046 -0.89209,1.99255 -1.99255,1.99255 -1.10048,0 -1.99256,-0.89209 -1.99256,-1.99255 0,-1.10048 0.89208,-1.99255 1.99256,-1.99255 1.10046,0 1.99255,0.89207 1.99255,1.99255 z" style="fill:#121619;fill-opacity:1;fill-rule:nonzero;stroke:none" transform="matrix(1.6,0,0,-1.6,348.94293,152.86267)" />
    <path id="path39" d="M -99.92247,70.867 V 44.13678" style="fill:none;stroke:#121619;stroke-width:0.3985;stroke-linecap:butt;stroke-linejoin:miter;stroke-miterlimit:10;stroke-dasharray:none;stroke-opacity:1" transform="matrix(1.6,0,0,-1.6,348.94293,152.86267)" />
    <path id="path40" d="M -71.57567,56.69362 V 44.13678" style="fill:none;stroke:#121619;stroke-width:0.3985;stroke-linecap:butt;stroke-linejoin:miter;stroke-miterlimit:10;stroke-dasharray:none;stroke-opacity:1" transform="matrix(1.6,0,0,-1.6,348.94293,152.86267)" />
    <path id="path41" d="M -98.50516,70.867 V 44.13678" style="fill:none;stroke:#121619;stroke-width:0.3985;stroke-linecap:butt;stroke-linejoin:miter;stroke-miterlimit:10;stroke-dasharray:none;stroke-opacity:1" transform="matrix(1.6,0,0,-1.6,348.94293,152.86267)" />
    <path id="path42" d="M -70.15836,56.69362 V 44.13678" style="fill:none;stroke:#121619;stroke-width:0.3985;stroke-linecap:butt;stroke-linejoin:miter;stroke-miterlimit:10;stroke-dasharray:none;stroke-opacity:1" transform="matrix(1.6,0,0,-1.6,348.94293,152.86267)" />
    <path id="path43" d="m 16.66408,-14.17339 c 0,1.37559 -1.11511,2.49069 -2.49069,2.49069 -1.37559,0 -2.49069,-1.1151 -2.49069,-2.49069 0,-1.37558 1.1151,-2.49069 2.49069,-2.49069 1.37558,0 2.49069,1.11511 2.49069,2.49069 z" style="fill:#78a9ff;fill-opacity:1;fill-rule:nonzero;stroke:none" transform="matrix(1.6,0,0,-1.6,348.94293,152.86267)" />
    <path id="path44" d="m 20.65454,-42.5202 c 0,3.57948 -2.90167,6.48115 -6.48115,6.48115 -3.57947,0 -6.48114,-2.90167 -6.48114,-6.48115 0,-3.57947 2.90167,-6.48114 6.48114,-6.48114 3.57948,0 6.48115,2.90167 6.48115,6.48114 z" style="fill:#78a9ff;fill-opacity:1;fill-rule:nonzero;stroke:#78a9ff;stroke-width:0.3985;stroke-linecap:butt;stroke-linejoin:miter;stroke-miterlimit:10;stroke-dasharray:none;stroke-opacity:1" transform="matrix(1.6,0,0,-1.6,348.94293,152.86267)" />
    <path id="path45" d="m 4.7058659,-7.821776 v 3.4179687 H 1.2878971 v 0.9179688 h 3.4179688 v 3.41796871 H 5.6238346 V -3.4858385 H 9.0320378 V -4.4038073 H 5.6238346 V -7.821776 Z m 0,0" style="fill:#ffffff;fill-opacity:1;fill-rule:nonzero;stroke:none" aria-label="+" transform="matrix(1.6,0,0,1.6,363.35733,227.15547)" />
    <path id="path46" d="M 14.17339,-14.17339 V -35.8398" style="fill:none;stroke:#78a9ff;stroke-width:0.79701;stroke-linecap:butt;stroke-linejoin:miter;stroke-miterlimit:10;stroke-dasharray:none;stroke-opacity:1" transform="matrix(1.6,0,0,-1.6,348.94293,152.86267)" />
  </g>
</svg>