<?xml version='1.0' encoding='utf-8'?>
<svg xmlns="http://www.w3.org/2000/svg" xmlns:ns1="http://sodipodi.sourceforge.net/DTD/sodipodi-0.dtd" xmlns:ns2="http://www.inkscape.org/namespaces/inkscape" version="1.1" id="svg1" width="100%" height="auto" viewBox="-20.0 -20.0 438.30362 245.42225" ns1:docname="svg_fix_XXXXXX.svg">
  <rect id="path1" x="-20.0" y="-20.0" width="438.30362" height="245.42225" fill="white" /><ns1:namedview id="namedview1" pagecolor="#ffffff" bordercolor="#000000" borderopacity="0.25" ns2:showpageshadow="2" ns2:pageopacity="0.0" ns2:pagecheckerboard="0" ns2:deskcolor="#d1d1d1" />
  <defs id="defs1" />
  <g id="g1" transform="translate(-99.636719,-31.1168)">
    <path id="path2" d="M -138.89917,14.17339 H 82.20555" style="fill:none;stroke:#e7e8e8;stroke-width:0.79701;stroke-linecap:butt;stroke-linejoin:miter;stroke-miterlimit:10;stroke-dasharray:none;stroke-opacity:1" transform="matrix(1.6,0,0,-1.6,366.41147,144.504)" />
    <path id="path3" d="m -43.93753,48.18958 h 17.00806 v 17.00806 h -17.00806 z" style="fill:#000000;fill-opacity:1;fill-rule:nonzero;stroke:#000000;stroke-width:0.3985;stroke-linecap:butt;stroke-linejoin:miter;stroke-miterlimit:10;stroke-dasharray:none;stroke-opacity:1" transform="matrix(1.6,0,0,-1.6,366.41147,144.504)" />
    <path id="path4" d="m -29.76422,54.1425 c 0,3.13114 -2.53822,5.66936 -5.66934,5.66936 -3.13114,0 -5.66936,-2.53822 -5.66936,-5.66936" style="fill:none;stroke:#ffffff;stroke-width:0.79701;stroke-linecap:butt;stroke-linejoin:miter;stroke-miterlimit:10;stroke-dasharray:none;stroke-opacity:1" transform="matrix(1.6,0,0,-1.6,366.41147,144.504)" />
    <path id="path5" d="m -35.43349,54.42583 5.66927,4.81891" style="fill:none;stroke:#ffffff;stroke-width:0.79701;stroke-linecap:butt;stroke-linejoin:miter;stroke-miterlimit:10;stroke-dasharray:none;stroke-opacity:1" transform="matrix(1.6,0,0,-1.6,366.41147,144.504)" />
    <path id="path6" d="m -34.5831,54.42583 c 0,0.46967 -0.38072,0.8504 -0.85039,0.8504 -0.46966,0 -0.8504,-0.38073 -0.8504,-0.8504 0,-0.46967 0.38074,-0.85041 0.8504,-0.85041 0.46967,0 0.85039,0.38074 0.85039,0.85041 z" style="fill:#ffffff;fill-opacity:1;fill-rule:nonzero;stroke:none" transform="matrix(1.6,0,0,-1.6,366.41147,144.504)" />
    <path id="path7" d="m -43.93753,19.84277 h 17.00806 v 17.00806 h -17.00806 z" style="fill:#000000;fill-opacity:1;fill-rule:nonzero;stroke:#000000;stroke-width:0.3985;stroke-linecap:butt;stroke-linejoin:miter;stroke-miterlimit:10;stroke-dasharray:none;stroke-opacity:1" transform="matrix(1.6,0,0,-1.6,366.41147,144.504)" />
    <path id="path8" d="m -29.76422,25.7957 c 0,3.13112 -2.53822,5.66934 -5.66934,5.66934 -3.13114,0 -5.66936,-2.53822 -5.66936,-5.66934" style="fill:none;stroke:#ffffff;stroke-width:0.79701;stroke-linecap:butt;stroke-linejoin:miter;stroke-miterlimit:10;stroke-dasharray:none;stroke-opacity:1" transform="matrix(1.6,0,0,-1.6,366.41147,144.504)" />
    <path id="path9" d="m -35.43349,26.07901 5.66927,4.81891" style="fill:none;stroke:#ffffff;stroke-width:0.79701;stroke-linecap:butt;stroke-linejoin:miter;stroke-miterlimit:10;stroke-dasharray:none;stroke-opacity:1" transform="matrix(1.6,0,0,-1.6,366.41147,144.504)" />
    <path id="path10" d="m -34.5831,26.07901 c 0,0.46967 -0.38072,0.8504 -0.85039,0.8504 -0.46966,0 -0.8504,-0.38073 -0.8504,-0.8504 0,-0.46967 0.38074,-0.85039 0.8504,-0.85039 0.46967,0 0.85039,0.38072 0.85039,0.85039 z" style="fill:#ffffff;fill-opacity:1;fill-rule:nonzero;stroke:none" transform="matrix(1.6,0,0,-1.6,366.41147,144.504)" />
    <path id="path11" d="m -117.61821,56.69362 h 73.48143" style="fill:none;stroke:#121619;stroke-width:0.3985;stroke-linecap:butt;stroke-linejoin:miter;stroke-miterlimit:10;stroke-dasharray:none;stroke-opacity:1" transform="matrix(1.6,0,0,-1.6,366.41147,144.504)" />
    <path id="path12" d="M -138.87834,-28.3468 H 82.18471" style="fill:none;stroke:#121619;stroke-width:0.3985;stroke-linecap:butt;stroke-linejoin:miter;stroke-miterlimit:10;stroke-dasharray:none;stroke-opacity:1" transform="matrix(1.6,0,0,-1.6,366.41147,144.504)" />
    <path id="path13" d="m -138.87834,28.3468 h 94.74156" style="fill:none;stroke:#121619;stroke-width:0.3985;stroke-linecap:butt;stroke-linejoin:miter;stroke-miterlimit:10;stroke-dasharray:none;stroke-opacity:1" transform="matrix(1.6,0,0,-1.6,366.41147,144.504)" />
    <path id="path14" d="M -8.50403,-36.85083 H 8.50403 v 17.00806 H -8.50403 Z" style="fill:#78a9ff;fill-opacity:1;fill-rule:nonzero;stroke:#78a9ff;stroke-width:0.3985;stroke-linecap:butt;stroke-linejoin:miter;stroke-miterlimit:10;stroke-dasharray:none;stroke-opacity:1" transform="matrix(1.6,0,0,-1.6,366.41147,144.504)" />
    <path id="path15" d="m 4.1608333,-3.0475977 c 0.3808594,-0.390625 1.5136719,-1.5527343 1.7089844,-1.6992187 0.3320313,-0.2539063 0.5273438,-0.4003906 1.1035156,-0.4296875 0.048828,-0.00977 0.1074219,-0.048828 0.1074219,-0.15625 0,-0.068359 -0.068359,-0.1074219 -0.1074219,-0.1074219 -0.078125,0 -0.1269531,0.019531 -0.7519531,0.019531 -0.5957031,0 -0.8105469,-0.019531 -0.8496094,-0.019531 -0.029297,0 -0.15625,0 -0.15625,0.1464844 0,0.00977 0,0.1074219 0.1171875,0.1171875 0.058594,0 0.2734375,0.019531 0.2734375,0.2050781 0,0.058594 -0.039063,0.1464844 -0.097656,0.2050781 l -0.029297,0.039063 c -0.019531,0.029297 -0.019531,0.039063 -0.097656,0.1171875 L 4.0534115,-3.272207 3.233099,-4.9616602 c 0.1171875,-0.1855468 0.3515625,-0.2148437 0.4492187,-0.2148437 0.039063,0 0.1464844,-0.00977 0.1464844,-0.1464844 0,-0.068359 -0.048828,-0.1171875 -0.1269531,-0.1171875 -0.078125,0 -0.3808594,0.00977 -0.4589844,0.00977 -0.048828,0.00977 -0.3417969,0.00977 -0.5078125,0.00977 -0.7421875,0 -0.8398438,-0.019531 -0.9082031,-0.019531 -0.029297,0 -0.15625,0 -0.15625,0.1464844 0,0.1171875 0.097656,0.1171875 0.2246093,0.1171875 0.4003907,0 0.46875,0.078125 0.546875,0.2246094 l 1.0546875,2.2363281 -1.6308593,1.6601562 c -0.4785157,0.47851567 -0.8496094,0.76171879 -1.41601567,0.79101567 -0.0976563,0.009766 -0.1953125,0.009766 -0.1953125,0.15625 0,0.0390625 0.0390625,0.10742187375 0.1171875,0.10742187375 0.0585938,0 0.14648438,-0.0195312538 0.75195317,-0.0195312538 0.5761718,0 0.8203125,0.0195312538 0.8496093,0.0195312538 0.039063,0 0.1660157,0 0.1660157,-0.15625000375 0,-0.009766 -0.00977,-0.0976562 -0.1269532,-0.10742187 -0.15625,-0.009766 -0.2636718,-0.0585938 -0.2636718,-0.20507813 0,-0.12695312 0.087891,-0.234375 0.2148437,-0.3515625 0.1367188,-0.15625 0.546875,-0.56640624 0.8300781,-0.84960934 0.1855469,-0.1757813 0.6347657,-0.6445313 0.8203125,-0.8203125 l 0.9082032,1.90429684 c 0.048828,0.0878906 0.048828,0.0878906 0.048828,0.0976563 0,0.078125 -0.1757813,0.20507813 -0.4296875,0.22460938 -0.058594,0 -0.1660156,0.009766 -0.1660156,0.15625 0,0 0.00977,0.10742187375 0.1367187,0.10742187375 0.078125,0 0.3710938,-0.0195312538 0.4589844,-0.0195312538 H 5.078802 c 0.7324219,0 0.8398437,0.0195312538 0.9179687,0.0195312538 0.029297,0 0.1464844,0 0.1464844,-0.15625000375 0,-0.10742187 -0.097656,-0.10742187 -0.2246094,-0.10742187 -0.4296875,0 -0.4785156,-0.0976563 -0.5273437,-0.21484375 z m 0,0" style="fill:#ffffff;fill-opacity:1;fill-rule:nonzero;stroke:none" aria-label="X" transform="matrix(1.6,0,0,1.6,360.34267,194.216)" />
    <path id="path16" d="m 19.84277,-36.85083 h 17.00806 v 17.00806 H 19.84277 Z" style="fill:#78a9ff;fill-opacity:1;fill-rule:nonzero;stroke:#78a9ff;stroke-width:0.3985;stroke-linecap:butt;stroke-linejoin:miter;stroke-miterlimit:10;stroke-dasharray:none;stroke-opacity:1" transform="matrix(1.6,0,0,-1.6,366.41147,144.504)" />
    <path id="path17" d="m 5.909138,-5.1374414 c 0.068359,-0.068359 0.1171875,-0.1269531 0.1171875,-0.2148438 0,-0.087891 -0.068359,-0.087891 -0.2148437,-0.087891 H 2.2665599 c -0.2050781,0 -0.2148438,0 -0.2636719,0.15625 l -0.4492187,1.4160156 c -0.00977,0.039063 -0.019531,0.078125 -0.019531,0.1171875 0,0.019531 0,0.1171875 0.1171875,0.1171875 0.087891,0 0.1074219,-0.029297 0.1464844,-0.1953125 0.390625,-1.0839843 1.0058594,-1.3476562 1.9824219,-1.3476562 h 1.3769531 l -4.55078125,4.87304687 c -0.0683594,0.0683594 -0.10742188,0.1171875 -0.10742188,0.21484375 0,0.0878906238 0.0683594,0.0878906238 0.21484375,0.0878906238 H 4.3954661 c 0.2050782,0 0.2148438,-0.009765624 0.2636719,-0.1562500038 L 5.2157786,-1.9050195 c 0.029297,-0.1074219 0.029297,-0.1171875 0.029297,-0.1269532 0,-0.00977 -0.00977,-0.1171875 -0.1171875,-0.1171875 -0.048828,0 -0.078125,0.029297 -0.078125,0.039063 -0.019531,0.00977 -0.039063,0.029297 -0.048828,0.048828 -0.00977,0.048828 -0.00977,0.058594 -0.078125,0.234375 -0.3515625,1.07421872 -0.8203125,1.54296872 -2.0800781,1.54296872 H 1.3876536 Z m 0,0" style="fill:#ffffff;fill-opacity:1;fill-rule:nonzero;stroke:none" aria-label="Z" transform="matrix(1.6,0,0,1.6,406.72507,194.216)" />
    <g id="g17" aria-label="∣ϕ&#10;+&#10;⟩&#10;⎧&#10;⎪&#10;⎪&#10;⎪&#10;⎪&#10;⎪&#10;⎪&#10;⎪&#10;⎪&#10;⎪&#10;⎪&#10;⎪&#10;⎨&#10;⎪&#10;⎪&#10;⎪&#10;⎪&#10;⎪&#10;⎪&#10;⎪&#10;⎪&#10;⎪&#10;⎪&#10;⎪&#10;⎩" transform="matrix(1.6,0,0,1.6,97.731467,149.584)">
      <path id="path18" d="m 1.1907826,-6.0925391 v 7.8027344 h 0.5175781 v -7.8027344 z m 0,0" style="fill:#121619;fill-opacity:1;fill-rule:nonzero;stroke:none" />
      <path id="path19" d="m 6.583849,-5.4284766 c 0,-0.087891 -0.087891,-0.097656 -0.1269532,-0.097656 -0.1074218,0 -0.1074218,0.048828 -0.1464843,0.1757812 l -0.4492188,1.8261719 c -1.4160156,0.058594 -2.5488281,1.1230469 -2.5488281,2.1582031 0,0.79101566 0.6933594,1.41601566 1.640625,1.45507816 C 4.8846302,0.33324219 4.8260365,0.58714844 4.7674427,0.84105469 4.6697865,1.2121484 4.6014271,1.5051172 4.6014271,1.5344141 c 0,0 0,0.087891 0.1171875,0.087891 0.1074219,0 0.1074219,-0.039063 0.15625,-0.1855469 L 5.2068958,0.09886719 c 1.40625,-0.078125 2.5390625,-1.11328129 2.5390625,-2.15820309 0,-0.9082032 -0.8007812,-1.4257813 -1.6308593,-1.4648438 z m -0.5273438,2.1191407 c 0.5957031,0.048828 1.1230469,0.3710937 1.1230469,1.1132812 0,0.7519531 -0.546875,1.92382814 -1.9140625,2.06054689 z M 5.0018177,-0.12574219 C 4.7479115,-0.14527344 3.8787708,-0.27222656 3.8787708,-1.2292578 c 0,-0.859375 0.6445313,-1.953125 1.9140625,-2.0703125 z m 0,0" style="fill:#121619;fill-opacity:1;fill-rule:nonzero;stroke:none" />
      <path id="path20" d="m 9.8992786,-7.4060156 v 1.4257812 H 8.4734974 v 0.3808594 h 1.4257812 v 1.4257813 H 10.280138 V -5.599375 h 1.425781 v -0.3808594 h -1.425781 v -1.4257812 z m 0,0" style="fill:#121619;fill-opacity:1;fill-rule:nonzero;stroke:none" />
      <path id="path21" d="m 13.949572,1.7980859 1.435546,-3.984375 -1.435546,-3.9941406 -0.478516,0.1757813 1.435547,3.8183593 -1.435547,3.8085938 z m 7.470703,-36.2573239 v -0.419922 c -0.986328,0 -1.884766,0.654297 -1.884766,1.601562 v 3.339844 h 0.507813 v -3.349609 c 0,-0.683594 0.654296,-1.171875 1.376953,-1.171875 z m -1.884766,3.937988 v 2.851563 h 0.507813 v -2.851563 z m 0,2.341309 v 2.851562 h 0.507813 v -2.851562 z m 0,2.34375 v 2.851562 h 0.507813 v -2.851562 z m 0,2.34375 v 2.851562 h 0.507813 v -2.851562 z m 0,2.34375 v 2.851562 h 0.507813 v -2.851562 z m 0,2.341308 v 2.851563 h 0.507813 v -2.851563 z m 0,2.34375 v 2.851563 h 0.507813 v -2.851563 z m 0,2.34375 v 2.851563 h 0.507813 v -2.851563 z m 0,2.34375 v 2.8515627 h 0.507813 v -2.8515627 z m 0,2.3437502 v 2.8515625 h 0.507813 v -2.8515625 z m 0,2.3413086 v 2.8515625 h 0.507813 v -2.8515625 z m 0.507813,2.34375 h -0.507813 v 1.2597656 c 0,0.6347656 -0.605469,1.0742188 -1.289062,1.1035156 h -0.08789 v 0.4589844 c 0.722656,0 1.376953,0.4492188 1.376953,1.12304688 v 1.25 h 0.507813 v -1.25976562 c 0,-0.60546876 -0.361329,-1.07421876 -0.888672,-1.33789066 0.527343,-0.2636718 0.888672,-0.7519531 0.888672,-1.3476562 z m -0.507813,4.61181639 V 2.7160547 h 0.507813 v -2.85156251 z m 0,2.34130861 v 2.8515625 h 0.507813 V 2.2058008 Z m 0,2.34375 v 2.8515625 h 0.507813 V 4.5495508 Z m 0,2.34375 v 2.8515625 h 0.507813 V 6.8933008 Z m 0,2.34375 v 2.8515622 h 0.507813 V 9.2370508 Z m 0,2.3437502 v 2.851562 h 0.507813 v -2.851562 z m 0,2.341308 v 2.851563 h 0.507813 v -2.851563 z m 0,2.34375 v 2.851563 h 0.507813 v -2.851563 z m 0,2.34375 v 2.851563 h 0.507813 v -2.851563 z m 0,2.34375 v 2.851563 h 0.507813 v -2.851563 z m 0,2.341309 v 2.851562 h 0.507813 v -2.851562 z m 1.884766,7.285156 v -0.429687 c -0.722657,0 -1.376953,-0.488282 -1.376953,-1.171875 v -3.339844 h -0.507813 v 3.339844 c 0,0.947265 0.898438,1.601562 1.884766,1.601562 z m 0,0" style="fill:#121619;fill-opacity:1;fill-rule:nonzero;stroke:none" />
    </g>
    <g id="g21" aria-label="α∣0⟩+β∣1⟩" transform="matrix(1.6,0,0,1.6,103.62747,57.3008)">
      <path id="path22" d="m 4.0633997,-1.113293 c 0.7421875,-0.8105468 1.0058594,-1.8554687 1.0058594,-1.9140625 0,-0.068359 -0.048828,-0.1074218 -0.1171875,-0.1074218 -0.1074219,0 -0.1171875,0.039063 -0.1660156,0.2050781 -0.2148438,0.8105469 -0.6933594,1.4355469 -0.7226563,1.4355469 -0.00977,0 -0.00977,-0.2050782 -0.00977,-0.3320313 -0.019531,-1.3964844 -0.9277344,-1.6894531 -1.4746094,-1.6894531 -1.1230468,0 -2.22656246,1.09375 -2.22656246,2.2167969 0,0.79101558 0.546875,1.37695308 1.39648436,1.37695308 0.5566406,0 1.1425781,-0.1953125 1.7773438,-0.6640625 0.1757812,0.625 0.6347656,0.6640625 0.78125,0.6640625 0.4492187,0 0.7128906,-0.40039062 0.7128906,-0.55664062 0,-0.0976562 -0.097656,-0.0976562 -0.1171875,-0.0976562 -0.087891,0 -0.1074219,0.0292969 -0.1269531,0.078125 -0.1269532,0.34179687 -0.4003907,0.3515625 -0.4394532,0.3515625 -0.1171875,0 -0.2441406,0 -0.2734375,-0.96679686 z m -0.5957031,0.26367191 c -0.5664062,0.5078125 -1.2402344,0.703125 -1.6992187,0.703125 -0.4101563,0 -0.77148441,-0.234375 -0.77148441,-0.86914061 0,-0.2832031 0.12695311,-1.1035156 0.49804691,-1.640625 0.3222656,-0.4394531 0.7519531,-0.6347656 1.0839843,-0.6347656 0.4296875,0 0.6835938,0.3125 0.78125,0.8007812 0.1269532,0.5371094 0.058594,1.171875 0.1074219,1.64062501 z m 0,0" style="fill:#121619;fill-opacity:1;fill-rule:nonzero;stroke:none" />
      <path id="path23" d="m 6.6293177,-6.0937617 v 7.8027344 h 0.5175781 v -7.8027344 z m 0,0" style="fill:#121619;fill-opacity:1;fill-rule:nonzero;stroke:none" />
      <path id="path24" d="m 12.237228,-2.5390742 c 0,-0.859375 -0.08789,-1.3769531 -0.351563,-1.8847656 -0.351562,-0.703125 -0.996093,-0.8789063 -1.435547,-0.8789063 -1.0058589,0 -1.367187,0.7519531 -1.4843745,0.9765625 -0.2832031,0.5761719 -0.3027344,1.3671875 -0.3027344,1.7871094 0,0.5273437 0.029297,1.328125 0.4101563,1.96289061 0.3710937,0.59570312 0.9570316,0.7421875 1.3769526,0.7421875 0.38086,0 1.074219,-0.1171875 1.464844,-0.90820313 0.302735,-0.57617188 0.322266,-1.27929688 0.322266,-1.79687498 z m -1.78711,2.48046873 c -0.273437,0 -0.820312,-0.12695312 -0.9863276,-0.95703123 -0.087891,-0.4589844 -0.087891,-1.2109375 -0.087891,-1.6210938 0,-0.546875 0,-1.1132812 0.087891,-1.5429687 0.1660156,-0.8203125 0.7910156,-0.8984375 0.9863276,-0.8984375 0.273438,0 0.820313,0.1367187 0.986329,0.859375 0.08789,0.4394531 0.08789,1.0351562 0.08789,1.5820312 0,0.46875 0,1.1816407 -0.08789,1.6308594 -0.175782,0.83984376 -0.722657,0.94726563 -0.986329,0.94726563 z m 0,0" style="fill:#121619;fill-opacity:1;fill-rule:nonzero;stroke:none" />
      <path id="path25" d="m 13.785079,1.7968633 1.435547,-3.984375 -1.435547,-3.9941406 -0.478515,0.1757812 1.435547,3.8183594 -1.435547,3.8085937 z m 0,0" style="fill:#121619;fill-opacity:1;fill-rule:nonzero;stroke:none" />
      <path id="path26" d="m 20.342697,-4.3457148 v 1.8945312 H 18.4384 v 0.5175781 h 1.904297 v 1.89453128 h 0.507812 V -1.9336055 h 1.894531 v -0.5175781 h -1.894531 v -1.8945312 z m 0,0" style="fill:#121619;fill-opacity:1;fill-rule:nonzero;stroke:none" />
      <path id="path27" d="m 30.020431,-4.5312617 c 0,-0.7324219 -0.595703,-1.0839844 -1.259766,-1.0839844 -1.02539,0 -1.787109,1.1621094 -2.011718,2.0410156 l -1.259766,5.0292969 c -0.01953,0.048828 0.04883,0.087891 0.09766,0.087891 0.05859,0 0.126953,0 0.146485,-0.048828 l 0.537109,-2.13867187 c 0.185547,0.4296875 0.556641,0.71289063 1.132812,0.71289063 1.103516,0 2.304688,-0.78125 2.304688,-2.04101566 0,-0.5273437 -0.205078,-0.8789062 -0.595703,-1.2109375 0.03906,0 0.185547,-0.1074218 0.224609,-0.1367187 0.400391,-0.2734375 0.683594,-0.7324219 0.683594,-1.2109375 z m -1.572266,1.3476562 c -0.146484,0.029297 -0.292968,0.039063 -0.439453,0.039063 -0.08789,0 -0.175781,0 -0.263672,-0.029297 0.15625,-0.039063 0.3125,-0.039063 0.458985,-0.039063 0.08789,0 0.166015,0.00977 0.24414,0.029297 z m 1.064453,-1.5039062 c 0,0.4003906 -0.175781,0.8691406 -0.449218,1.1523437 -0.03906,0.039063 -0.214844,0.1855469 -0.253907,0.1953125 -0.224609,-0.039063 -0.40039,-0.097656 -0.634765,-0.097656 -0.205078,0 -0.712891,-0.00977 -0.712891,0.2929687 0,0.2441407 0.458985,0.2246094 0.615235,0.2246094 0.253906,0 0.478515,-0.019531 0.71289,-0.1074219 0.234375,0.1953125 0.361328,0.4492188 0.361328,0.8398438 0,0.4785156 -0.166015,0.9960937 -0.390625,1.31835936 -0.302734,0.41992187 -0.791015,0.71289062 -1.386718,0.71289062 -0.527344,0 -0.947266,-0.40039062 -0.947266,-0.95703128 0,-0.1074218 0.0098,-0.2050781 0.03906,-0.2929687 l 0.527344,-2.1191406 c 0.166016,-0.6933594 0.84961,-1.8652344 1.738281,-1.8652344 0.410157,0 0.78125,0.1953125 0.78125,0.703125 z m 0,0" style="fill:#121619;fill-opacity:1;fill-rule:nonzero;stroke:none" />
      <path id="path28" d="m 31.587814,-6.0937617 v 7.8027344 h 0.517578 v -7.8027344 z m 0,0" style="fill:#121619;fill-opacity:1;fill-rule:nonzero;stroke:none" />
      <path id="path29" d="m 35.796798,-5.0781367 c 0,-0.2148438 -0.0098,-0.2246094 -0.224609,-0.2246094 -0.332031,0.3222656 -0.751953,0.5175781 -1.513672,0.5175781 v 0.2636719 c 0.214844,0 0.644531,0 1.113281,-0.2246094 v 4.09179691 c 0,0.29296875 -0.0293,0.390625 -0.78125,0.390625 H 34.107345 V -1.171875e-5 C 34.439376,-0.01954297 35.12297,-0.01954297 35.484298,-0.01954297 c 0.351563,0 1.044922,0 1.376953,0.01953125125 V -0.26368359 h -0.283203 c -0.751953,0 -0.78125,-0.0976563 -0.78125,-0.390625 z m 0,0" style="fill:#121619;fill-opacity:1;fill-rule:nonzero;stroke:none" />
      <path id="path30" d="m 38.741134,1.7968633 1.435547,-3.984375 -1.435547,-3.9941406 -0.478516,0.1757812 1.435547,3.8183594 -1.435547,3.8085937 z m 0,0" style="fill:#121619;fill-opacity:1;fill-rule:nonzero;stroke:none" />
    </g>
    <path id="path31" d="M -26.87193,57.544 28.3468,0.85039" style="fill:none;stroke:#121619;stroke-width:0.3985;stroke-linecap:butt;stroke-linejoin:miter;stroke-miterlimit:10;stroke-dasharray:none;stroke-opacity:1" transform="matrix(1.6,0,0,-1.6,366.41147,144.504)" />
    <path id="path32" d="M -26.87193,55.84322 28.3468,-0.85039" style="fill:none;stroke:#121619;stroke-width:0.3985;stroke-linecap:butt;stroke-linejoin:miter;stroke-miterlimit:10;stroke-dasharray:none;stroke-opacity:1" transform="matrix(1.6,0,0,-1.6,366.41147,144.504)" />
    <path id="path33" d="M -26.87193,29.1972 0,0.85039" style="fill:none;stroke:#121619;stroke-width:0.3985;stroke-linecap:butt;stroke-linejoin:miter;stroke-miterlimit:10;stroke-dasharray:none;stroke-opacity:1" transform="matrix(1.6,0,0,-1.6,366.41147,144.504)" />
    <path id="path34" d="M -26.87193,27.4964 0,-0.85039" style="fill:none;stroke:#121619;stroke-width:0.3985;stroke-linecap:butt;stroke-linejoin:miter;stroke-miterlimit:10;stroke-dasharray:none;stroke-opacity:1" transform="matrix(1.6,0,0,-1.6,366.41147,144.504)" />
    <path id="path35" d="m -72.28433,48.18958 h 17.00806 v 17.00806 h -17.00806 z" style="fill:#78a9ff;fill-opacity:1;fill-rule:nonzero;stroke:#78a9ff;stroke-width:0.3985;stroke-linecap:butt;stroke-linejoin:miter;stroke-miterlimit:10;stroke-dasharray:none;stroke-opacity:1" transform="matrix(1.6,0,0,-1.6,366.41147,144.504)" />
    <path id="path36" d="m 6.3664505,-4.794707 c 0.078125,-0.3125 0.097656,-0.3808594 0.6542969,-0.3808594 0.1855469,0 0.2734375,0 0.2734375,-0.15625 0,-0.00977 0,-0.1074219 -0.1269531,-0.1074219 -0.15625,0 -0.3515625,0.00977 -0.4980469,0.019531 H 6.171138 c -0.7714844,0 -0.9765625,-0.019531 -1.0351562,-0.019531 -0.029297,0 -0.15625,0 -0.15625,0.1464844 0,0.1171875 0.1074218,0.1171875 0.234375,0.1171875 0.2636718,0 0.4882812,0 0.4882812,0.1269531 0,0.029297 -0.00977,0.039063 -0.029297,0.1367188 L 5.1945755,-2.9685352 H 2.6262161 l 0.46875,-1.8554687 c 0.068359,-0.2832031 0.087891,-0.3515625 0.6640625,-0.3515625 0.15625,0 0.2539063,0 0.2539063,-0.15625 0,-0.00977 -0.00977,-0.1074219 -0.1367188,-0.1074219 -0.1464843,0 -0.3417968,0.00977 -0.4882812,0.019531 H 2.8801224 c -0.7617188,0 -0.9667969,-0.019531 -1.0253906,-0.019531 -0.029297,0 -0.15625,0 -0.15625,0.1464844 0,0.1171875 0.097656,0.1171875 0.2246093,0.1171875 0.2636719,0 0.4980469,0 0.4980469,0.1269531 0,0.029297 -0.00977,0.039063 -0.029297,0.1367188 l -1.0742187,4.28710934 c -0.068359,0.30273438 -0.087891,0.36132813 -0.67382813,0.36132813 -0.14648437,0 -0.24414062,0 -0.24414062,0.15625 0,0.02929687 0.0195313,0.10742187375 0.12695312,0.10742187375 0.14648438,0 0.34179688,-0.0195312537 0.48828123,-0.0195312537 H 1.532466 c 0.7617188,0 0.9667969,0.0195312537 1.0253907,0.0195312537 0.048828,0 0.15625,0 0.15625,-0.15625000375 0,-0.10742187 -0.097656,-0.10742187 -0.234375,-0.10742187 -0.029297,0 -0.1660157,0 -0.3027344,-0.0195313 -0.1660156,-0.009766 -0.1855469,-0.0390625 -0.1855469,-0.10742188 0,-0.0390625 0.019531,-0.0878906 0.019531,-0.12695312 l 0.546875,-2.18750007 h 2.5683593 c -0.234375,0.9472656 -0.546875,2.18750007 -0.5566406,2.18750007 -0.068359,0.24414062 -0.2148437,0.24414062 -0.6933594,0.25390625 -0.087891,0 -0.1953125,0 -0.1953125,0.15625 0,0.02929687 0.019531,0.10742187375 0.1269532,0.10742187375 0.15625,0 0.3417968,-0.0195312538 0.4980468,-0.0195312538 h 0.5078125 c 0.7617188,0 0.9667969,0.0195312538 1.0253907,0.0195312538 0.048828,0 0.15625,0 0.15625,-0.15625000375 0,-0.10742187 -0.097656,-0.10742187 -0.234375,-0.10742187 -0.019531,0 -0.1660157,0 -0.3027344,-0.0195313 -0.1660156,-0.009766 -0.1855469,-0.0390625 -0.1855469,-0.10742188 0,-0.0390625 0.019531,-0.0878906 0.029297,-0.12695312 z m 0,0" style="fill:#ffffff;fill-opacity:1;fill-rule:nonzero;stroke:none" aria-label="H" transform="matrix(1.6,0,0,1.6,258.30587,58.152)" />
    <path id="path37" d="m -89.63641,56.69362 c 0,1.37558 -1.11512,2.49069 -2.49069,2.49069 -1.3756,0 -2.4907,-1.11511 -2.4907,-2.49069 0,-1.3756 1.1151,-2.49069 2.4907,-2.49069 1.37557,0 2.49069,1.11509 2.49069,2.49069 z" style="fill:#78a9ff;fill-opacity:1;fill-rule:nonzero;stroke:none" transform="matrix(1.6,0,0,-1.6,366.41147,144.504)" />
    <path id="path38" d="m -86.14944,28.3468 c 0,3.30141 -2.67626,5.97766 -5.97766,5.97766 -3.30143,0 -5.97767,-2.67625 -5.97767,-5.97766 0,-3.3014 2.67624,-5.97766 5.97767,-5.97766 3.3014,0 5.97766,2.67626 5.97766,5.97766 z" style="fill:#78a9ff;fill-opacity:1;fill-rule:nonzero;stroke:#78a9ff;stroke-width:0.3985;stroke-linecap:butt;stroke-linejoin:miter;stroke-miterlimit:10;stroke-dasharray:none;stroke-opacity:1" transform="matrix(1.6,0,0,-1.6,366.41147,144.504)" />
    <path id="path39" d="m 4.7081732,-7.821918 v 3.4179688 H 1.2902044 v 0.9179687 h 3.4179688 v 3.41796878 H 5.6261419 V -3.4859805 H 9.0343451 V -4.4039492 H 5.6261419 V -7.821918 Z m 0,0" style="fill:#ffffff;fill-opacity:1;fill-rule:nonzero;stroke:none" aria-label="+" transform="matrix(1.6,0,0,1.6,210.74427,105.4096)" />
    <path id="path40" d="M -92.1271,56.69362 V 34.52371" style="fill:none;stroke:#78a9ff;stroke-width:0.79701;stroke-linecap:butt;stroke-linejoin:miter;stroke-miterlimit:10;stroke-dasharray:none;stroke-opacity:1" transform="matrix(1.6,0,0,-1.6,366.41147,144.504)" />
    <path id="path41" d="m 30.33936,0 c 0,1.10046 -0.89208,1.99255 -1.99256,1.99255 -1.10046,0 -1.99255,-0.89209 -1.99255,-1.99255 0,-1.10046 0.89209,-1.99255 1.99255,-1.99255 1.10048,0 1.99256,0.89209 1.99256,1.99255 z" style="fill:#121619;fill-opacity:1;fill-rule:nonzero;stroke:none" transform="matrix(1.6,0,0,-1.6,366.41147,144.504)" />
    <path id="path42" d="M 1.99255,0 C 1.99255,1.10046 1.10046,1.99255 0,1.99255 -1.10046,1.99255 -1.99255,1.10046 -1.99255,0 c 0,-1.10046 0.89209,-1.99255 1.99255,-1.99255 1.10046,0 1.99255,0.89209 1.99255,1.99255 z" style="fill:#121619;fill-opacity:1;fill-rule:nonzero;stroke:none" transform="matrix(1.6,0,0,-1.6,366.41147,144.504)" />
    <path id="path43" d="M -0.56693,0 V -19.64352" style="fill:none;stroke:#121619;stroke-width:0.3985;stroke-linecap:butt;stroke-linejoin:miter;stroke-miterlimit:10;stroke-dasharray:none;stroke-opacity:1" transform="matrix(1.6,0,0,-1.6,366.41147,144.504)" />
    <path id="path44" d="M 27.77988,0 V -19.64352" style="fill:none;stroke:#121619;stroke-width:0.3985;stroke-linecap:butt;stroke-linejoin:miter;stroke-miterlimit:10;stroke-dasharray:none;stroke-opacity:1" transform="matrix(1.6,0,0,-1.6,366.41147,144.504)" />
    <path id="path45" d="M 0.56693,0 V -19.64352" style="fill:none;stroke:#121619;stroke-width:0.3985;stroke-linecap:butt;stroke-linejoin:miter;stroke-miterlimit:10;stroke-dasharray:none;stroke-opacity:1" transform="matrix(1.6,0,0,-1.6,366.41147,144.504)" />
    <path id="path46" d="M 28.91373,0 V -19.64352" style="fill:none;stroke:#121619;stroke-width:0.3985;stroke-linecap:butt;stroke-linejoin:miter;stroke-miterlimit:10;stroke-dasharray:none;stroke-opacity:1" transform="matrix(1.6,0,0,-1.6,366.41147,144.504)" />
    <path id="path47" d="M 5.3908724,9.375e-5 3.2033724,-5.52725 H 2.431888 L 0.2346224,9.375e-5 H 0.88891927 L 1.5139193,-1.5819375 h 2.421875 l 0.625,1.58203125 z M 3.7404818,-2.0506875 h -2.03125 L 2.7346224,-4.9217812 Z M 6.9802279,9.375e-5 V -5.52725 H 6.3161654 V 9.375e-5 Z m 2.0166015,0 V -3.5350625 H 8.3327669 V 9.375e-5 Z M 9.0651888,-4.4627969 V -5.2635781 H 8.2644076 v 0.8007812 z m 4.1259762,4.17968753 -0.04883,-0.5859375 c -0.40039,0.25390625 -0.830078,0.40039062 -1.318359,0.40039062 -0.742188,0 -1.171875,-0.59570315 -1.171875,-1.30859375 0,-0.6152344 0.322265,-1.328125 1.191406,-1.328125 0.537109,0 0.800781,0.1074219 1.201172,0.3613281 l 0.107422,-0.5664062 c -0.478516,-0.2441406 -0.683594,-0.3515625 -1.308594,-0.3515625 -1.191406,0 -1.8847655,0.9667969 -1.8847655,1.8945312 0,0.9667969 0.7714845,1.84570315 1.8554685,1.84570315 0.556641,0 1.035156,-0.16601562 1.376953,-0.36132812 z m 3.752442,-1.46484373 c 0,-0.3613281 -0.03906,-0.8984375 -0.351563,-1.3476563 -0.283203,-0.4101562 -0.761718,-0.5664062 -1.152343,-0.5664062 -0.976563,0 -1.71875,0.859375 -1.71875,1.8652344 0,1.02539058 0.791015,1.87499995 1.845703,1.87499995 0.458984,0 0.9375,-0.13671875 1.347656,-0.38085937 l -0.04883,-0.56640625 c -0.449219,0.32226562 -0.947266,0.41992187 -1.289063,0.41992187 -0.693359,0 -1.220703,-0.5664062 -1.25,-1.2988281 z m -0.488281,-0.4785156 h -2.070313 c 0.185547,-0.6347657 0.654297,-0.9082032 1.054688,-0.9082032 0.351562,0 0.86914,0.1660157 1.015625,0.9082032 z m 0,0" style="fill:#121619;fill-opacity:1;fill-rule:nonzero;stroke:none" aria-label="Alice" transform="matrix(1.6,0,0,1.6,466.03867,112.5936)" />
    <path id="path48" d="m 5.1658724,-1.4948594 c 0,-0.703125 -0.7421875,-1.2695312 -1.6308594,-1.3964843 0.8300781,-0.2050782 1.3867188,-0.6835938 1.3867188,-1.25 0,-0.7324219 -0.9179688,-1.3867188 -2.0898438,-1.3867188 H 0.80063802 V -7.1875e-4 H 3.066263 c 1.1816406,0 2.0996094,-0.703125 2.0996094,-1.49414065 z m -0.9375,-2.6464843 c 0,0.5371093 -0.7226563,0.9960937 -1.6210938,0.9960937 H 1.5428255 V -5.0593125 H 2.597513 c 0.8886719,0 1.6308594,0.4101563 1.6308594,0.9179688 z m 0.2148437,2.6367187 c 0,0.5859375 -0.7421875,1.03515625 -1.6210937,1.03515625 H 1.5428255 V -2.6179062 h 1.1425781 c 1.0058594,0 1.7578125,0.5175781 1.7578125,1.1132812 z m 5.1831055,-0.2441406 c 0,-1.0449219 -0.8398437,-1.9140625 -1.875,-1.9140625 -1.0351562,0 -1.875,0.8691406 -1.875,1.9140625 0,1.01562498 0.8496094,1.82617185 1.875,1.82617185 1.0351563,0 1.875,-0.81054687 1.875,-1.82617185 z m -0.6933594,-0.087891 c 0,0.90820308 -0.5664062,1.36718745 -1.1816406,1.36718745 -0.625,0 -1.1816406,-0.45898437 -1.1816406,-1.36718745 0,-0.8984375 0.5957031,-1.2988282 1.1816406,-1.2988282 0.5957031,0 1.1816406,0.4199219 1.1816406,1.2988282 z m 5.0244138,0.058594 c 0,-0.9667969 -0.55664,-1.8359375 -1.347656,-1.8359375 -0.507812,0 -0.986328,0.15625 -1.386719,0.4492188 v -2.3632813 h -0.673828 v 5.52734375 h 0.69336 V -0.3718125 c 0.175781,0.14648438 0.55664,0.44921875 1.142578,0.44921875 0.86914,0 1.572265,-0.81054687 1.572265,-1.85546885 z m -0.693359,0 c 0,0.9765625 -0.664063,1.328125 -1.220703,1.328125 -0.292969,0 -0.576172,-0.13671875 -0.800781,-0.48828125 V -2.5104844 c 0,-0.1269531 0,-0.2246093 0.283203,-0.4101562 0.117187,-0.068359 0.332031,-0.1757813 0.605468,-0.1757813 0.53711,0 1.132813,0.3613282 1.132813,1.3183593 z m 0,0" style="fill:#121619;fill-opacity:1;fill-rule:nonzero;stroke:none" aria-label="Bob" transform="matrix(1.6,0,0,1.6,468.39867,139.7824)" />
    <path id="path49" d="M -106.30052,70.867 V -42.5202" style="fill:none;stroke:#121619;stroke-width:0.3985;stroke-linecap:butt;stroke-linejoin:miter;stroke-miterlimit:10;stroke-dasharray:0.3985, 0.99628;stroke-dashoffset:0;stroke-opacity:1" transform="matrix(1.6,0,0,-1.6,366.41147,144.504)" />
    <g id="g49" aria-label="∣π&#10;0&#10;⟩" transform="matrix(1.6,0,0,1.6,184.09467,233.664)">
      <path id="path50" d="m 1.1908333,-6.0937109 v 7.8027343 h 0.5175782 v -7.8027343 z m 0,0" style="fill:#121619;fill-opacity:1;fill-rule:nonzero;stroke:none" />
      <path id="path51" d="m 5.1678841,-2.9101172 h 0.9179688 c -0.1757813,0.7226563 -0.3125,1.3183594 -0.3125,1.9042969 0,0.0585937 0,0.40039061 0.087891,0.68359374 0.097656,0.34179687 0.1855469,0.40039062 0.3222656,0.40039062 0.1757813,0 0.3613281,-0.14648437 0.3613281,-0.34179687 0,-0.0585938 -0.00977,-0.0683594 -0.039063,-0.14648438 C 6.3397591,-0.77144531 6.212806,-1.1523047 6.212806,-1.8066016 c 0,-0.1855468 0,-0.5175781 0.1269531,-1.1035156 h 0.9570313 c 0.1269531,0 0.2148437,0 0.3027343,-0.058594 0.087891,-0.087891 0.1171875,-0.1953125 0.1171875,-0.2441407 0,-0.2246093 -0.2050781,-0.2246093 -0.3320312,-0.2246093 H 4.5038216 c -0.1660156,0 -0.46875,0 -0.859375,0.3808593 -0.2832031,0.2929688 -0.5078125,0.6542969 -0.5078125,0.7128907 0,0.068359 0.048828,0.097656 0.1171875,0.097656 0.078125,0 0.097656,-0.029297 0.1464844,-0.087891 0.390625,-0.5761719 0.859375,-0.5761719 1.0351562,-0.5761719 h 0.46875 c -0.234375,0.8496094 -0.6542968,1.8066406 -0.9472656,2.39257814 -0.058594,0.1171875 -0.1367187,0.28320312 -0.1367187,0.3515625 0,0.1660156225 0.1367187,0.24414062 0.2636718,0.24414062 0.3027344,0 0.3808594,-0.30273437 0.546875,-0.95703125 z m 0,0" style="fill:#121619;fill-opacity:1;fill-rule:nonzero;stroke:none" />
      <path id="path52" d="m 11.054115,-0.46871094 c 0,-0.43945312 0,-2.07031246 -1.4648442,-2.07031246 -1.4648437,0 -1.4648437,1.63085934 -1.4648437,2.07031246 0,0.4296875 0,2.03125004 1.4648437,2.03125004 1.4648442,0 1.4648442,-1.60156254 1.4648442,-2.03125004 z M 9.5892708,1.3672266 c -0.2539062,0 -0.6640625,-0.1171875 -0.8007812,-0.61523441 -0.097656,-0.34179688 -0.097656,-0.92773438 -0.097656,-1.29882813 0,-0.40039062 0,-0.85937496 0.078125,-1.18164066 0.15625,-0.5371093 0.6054688,-0.6152343 0.8203125,-0.6152343 0.2734375,0 0.6640619,0.1269531 0.8007809,0.5859375 0.08789,0.3125 0.08789,0.7519531 0.08789,1.21093746 0,0.38085938 0,0.98632813 -0.09766,1.31835938 C 10.214271,1.2891016 9.7845833,1.3672266 9.5892708,1.3672266 Z m 0,0" style="fill:#121619;fill-opacity:1;fill-rule:nonzero;stroke:none" />
      <path id="path53" d="m 13.126868,1.7969141 1.435547,-3.984375 -1.435547,-3.9941407 -0.478515,0.1757813 1.435547,3.8183594 -1.435547,3.8085937 z m 0,0" style="fill:#121619;fill-opacity:1;fill-rule:nonzero;stroke:none" />
    </g>
    <path id="path54" d="M -77.95372,70.867 V -42.5202" style="fill:none;stroke:#121619;stroke-width:0.3985;stroke-linecap:butt;stroke-linejoin:miter;stroke-miterlimit:10;stroke-dasharray:0.3985, 0.99628;stroke-dashoffset:0;stroke-opacity:1" transform="matrix(1.6,0,0,-1.6,366.41147,144.504)" />
    <g id="g54" aria-label="∣π&#10;1&#10;⟩" transform="matrix(1.6,0,0,1.6,229.44987,233.664)">
      <path id="path55" d="m 1.1910013,-6.0937109 v 7.8027343 h 0.5175781 v -7.8027343 z m 0,0" style="fill:#121619;fill-opacity:1;fill-rule:nonzero;stroke:none" />
      <path id="path56" d="m 5.1680521,-2.9101172 h 0.9179687 c -0.1757812,0.7226563 -0.3125,1.3183594 -0.3125,1.9042969 0,0.0585937 0,0.40039061 0.087891,0.68359374 0.097656,0.34179687 0.1855468,0.40039062 0.3222656,0.40039062 0.1757812,0 0.3613281,-0.14648437 0.3613281,-0.34179687 0,-0.0585938 -0.00977,-0.0683594 -0.039063,-0.14648438 C 6.3399271,-0.77144531 6.212974,-1.1523047 6.212974,-1.8066016 c 0,-0.1855468 0,-0.5175781 0.1269531,-1.1035156 h 0.9570312 c 0.1269532,0 0.2148438,0 0.3027344,-0.058594 0.087891,-0.087891 0.1171875,-0.1953125 0.1171875,-0.2441407 0,-0.2246093 -0.2050781,-0.2246093 -0.3320312,-0.2246093 H 4.5039896 c -0.1660156,0 -0.46875,0 -0.859375,0.3808593 -0.2832031,0.2929688 -0.5078125,0.6542969 -0.5078125,0.7128907 0,0.068359 0.048828,0.097656 0.1171875,0.097656 0.078125,0 0.097656,-0.029297 0.1464844,-0.087891 0.390625,-0.5761719 0.859375,-0.5761719 1.0351562,-0.5761719 h 0.46875 c -0.234375,0.8496094 -0.6542969,1.8066406 -0.9472656,2.39257814 -0.058594,0.1171875 -0.1367188,0.28320312 -0.1367188,0.3515625 0,0.1660156225 0.1367188,0.24414062 0.2636719,0.24414062 0.3027344,0 0.3808594,-0.30273437 0.546875,-0.95703125 z m 0,0" style="fill:#121619;fill-opacity:1;fill-rule:nonzero;stroke:none" />
      <path id="path57" d="m 9.9117044,-2.3632422 c 0,-0.1757812 -0.029297,-0.1757812 -0.2050781,-0.1757812 -0.390625,0.3808593 -1.0058594,0.3808593 -1.2207031,0.3808593 v 0.234375 c 0.15625,0 0.546875,0 0.9082031,-0.1660156 v 3.01757814 c 0,0.19531246 0,0.27343746 -0.6152344,0.27343746 H 8.5249857 v 0.234375 c 0.3222656,-0.019531 0.7910156,-0.019531 1.1230469,-0.019531 0.3417968,0 0.8007814,0 1.1328124,0.019531 v -0.234375 h -0.253906 c -0.6152346,0 -0.6152346,-0.078125 -0.6152346,-0.27343746 z m 0,0" style="fill:#121619;fill-opacity:1;fill-rule:nonzero;stroke:none" />
      <path id="path58" d="m 13.127036,1.7969141 1.435547,-3.984375 -1.435547,-3.9941407 -0.478515,0.1757813 1.435547,3.8183594 -1.435547,3.8085937 z m 0,0" style="fill:#121619;fill-opacity:1;fill-rule:nonzero;stroke:none" />
    </g>
    <path id="path59" d="M -49.6069,70.867 V -42.5202" style="fill:none;stroke:#121619;stroke-width:0.3985;stroke-linecap:butt;stroke-linejoin:miter;stroke-miterlimit:10;stroke-dasharray:0.3985, 0.99628;stroke-dashoffset:0;stroke-opacity:1" transform="matrix(1.6,0,0,-1.6,366.41147,144.504)" />
    <g id="g59" aria-label="∣π&#10;2&#10;⟩" transform="matrix(1.6,0,0,1.6,274.80507,233.664)">
      <path id="path60" d="m 1.1911693,-6.0937109 v 7.8027343 h 0.5175781 v -7.8027343 z m 0,0" style="fill:#121619;fill-opacity:1;fill-rule:nonzero;stroke:none" />
      <path id="path61" d="m 5.1682201,-2.9101172 h 0.9179687 c -0.1757812,0.7226563 -0.3125,1.3183594 -0.3125,1.9042969 0,0.0585937 0,0.40039061 0.087891,0.68359374 0.097656,0.34179687 0.1855469,0.40039062 0.3222657,0.40039062 0.1757812,0 0.3613281,-0.14648437 0.3613281,-0.34179687 0,-0.0585938 -0.00977,-0.0683594 -0.039063,-0.14648438 C 6.3400951,-0.77144531 6.2131419,-1.1523047 6.2131419,-1.8066016 c 0,-0.1855468 0,-0.5175781 0.1269532,-1.1035156 h 0.9570312 c 0.1269531,0 0.2148438,0 0.3027344,-0.058594 0.087891,-0.087891 0.1171875,-0.1953125 0.1171875,-0.2441407 0,-0.2246093 -0.2050781,-0.2246093 -0.3320313,-0.2246093 H 4.5041576 c -0.1660157,0 -0.46875,0 -0.859375,0.3808593 -0.2832032,0.2929688 -0.5078125,0.6542969 -0.5078125,0.7128907 0,0.068359 0.048828,0.097656 0.1171875,0.097656 0.078125,0 0.097656,-0.029297 0.1464843,-0.087891 0.390625,-0.5761719 0.859375,-0.5761719 1.0351563,-0.5761719 h 0.46875 c -0.234375,0.8496094 -0.6542969,1.8066406 -0.9472656,2.39257814 -0.058594,0.1171875 -0.1367188,0.28320312 -0.1367188,0.3515625 0,0.1660156225 0.1367188,0.24414062 0.2636719,0.24414062 0.3027344,0 0.3808594,-0.30273437 0.546875,-0.95703125 z m 0,0" style="fill:#121619;fill-opacity:1;fill-rule:nonzero;stroke:none" />
      <path id="path62" d="m 10.976326,0.32230469 h -0.214844 c -0.01953,0.078125 -0.07813,0.47851562 -0.166016,0.53710937 -0.03906,0.0390625 -0.527344,0.0390625 -0.6054686,0.0390625 H 8.8669505 l 0.7714844,-0.625 c 0.1953125,-0.15625 0.7324221,-0.53710937 0.9179691,-0.72265625 0.175781,-0.17578125 0.419922,-0.47851562 0.419922,-0.90820311 0,-0.7421875 -0.673829,-1.1816406 -1.4746099,-1.1816406 -0.7714843,0 -1.3085937,0.5078125 -1.3085937,1.0742187 0,0.3027344 0.2539062,0.3320313 0.3222656,0.3320313 0.1464844,0 0.3222656,-0.1074219 0.3222656,-0.3222657 0,-0.1269531 -0.078125,-0.3222656 -0.3417968,-0.3222656 0.1367187,-0.3027344 0.5078125,-0.5273437 0.9179687,-0.5273437 0.6250005,0 0.9570315,0.46875 0.9570315,0.9472656 0,0.42968749 -0.273438,0.85937499 -0.6933596,1.24023436 L 8.2614818,1.1816797 c -0.058594,0.058594 -0.068359,0.068359 -0.068359,0.2539062 h 2.5976562 z m 0,0" style="fill:#121619;fill-opacity:1;fill-rule:nonzero;stroke:none" />
      <path id="path63" d="m 13.127204,1.7969141 1.435547,-3.984375 -1.435547,-3.9941407 -0.478515,0.1757813 1.435547,3.8183594 -1.435547,3.8085937 z m 0,0" style="fill:#121619;fill-opacity:1;fill-rule:nonzero;stroke:none" />
    </g>
  </g>
</svg>