<?xml version='1.0' encoding='utf-8'?>
<svg xmlns="http://www.w3.org/2000/svg" xmlns:ns1="http://sodipodi.sourceforge.net/DTD/sodipodi-0.dtd" xmlns:ns2="http://www.inkscape.org/namespaces/inkscape" version="1.1" id="svg1" width="100%" height="auto" viewBox="-20.0 -20.0 471.28125 131.772429" ns1:docname="svg_fix_XXXXXX.svg">
  <rect id="path1" x="-20.0" y="-20.0" width="471.28125" height="131.772429" fill="white" /><ns1:namedview id="namedview1" pagecolor="#ffffff" bordercolor="#000000" borderopacity="0.25" ns2:showpageshadow="2" ns2:pageopacity="0.0" ns2:pagecheckerboard="0" ns2:deskcolor="#d1d1d1" />
  <defs id="defs1" />
  <g id="g1" transform="translate(-83.441406,-30.800426)">
    <path id="path2" d="M 1.3354492,-3.359375e-4 V -3.5393984 H 0.66748047 V -3.359375e-4 Z M 1.4116211,-4.4651797 V -5.2679141 H 0.60302734 v 0.8027344 z M 5.7197266,-3.359375e-4 V -2.3616641 c 0,-0.6210937 -0.1816407,-1.2539062 -1.1601563,-1.2539062 -0.4570312,0 -0.890625,0.1816406 -1.2421875,0.6035156 V -3.5921328 H 2.6787109 V -3.359375e-4 H 3.3701172 V -1.9339297 c 0,-0.5273437 0.2226562,-1.1601562 0.8378906,-1.1601562 0.8203125,0 0.8203125,0.5625 0.8203125,0.7910156 V -3.359375e-4 Z M 10.470215,-1.7757266 c 0,-0.9550781 -0.5214845,-1.8398437 -1.3125002,-1.8398437 -0.3574218,0 -0.9550781,0.099609 -1.4179687,0.4570312 V -3.5393984 H 7.0717773 v 5.0859375 h 0.6914063 v -1.92187504 c 0.421875,0.38085938 0.8789062,0.45703125 1.1484375,0.45703125 0.84375,0 1.5585939,-0.80859375 1.5585939,-1.85742191 z m -0.6914064,0 c 0,0.78515629 -0.5976563,1.33007816 -1.21875,1.33007816 -0.1171875,0 -0.3164063,-0.0175781 -0.5273438,-0.18164062 -0.2402343,-0.1875 -0.2695312,-0.3046875 -0.2695312,-0.45703124 v -1.5644531 c 0.1816406,-0.2226563 0.4921875,-0.421875 0.8789062,-0.421875 0.6328125,0 1.1367188,0.5917968 1.1367188,1.2949218 z M 14.470703,-3.359375e-4 V -3.5393984 h -0.691406 v 2.3144531 c 0,0.63281249 -0.539063,0.83203124 -1.001953,0.83203124 -0.591797,0 -0.65625,-0.15820313 -0.65625,-0.52148438 V -3.5393984 h -0.691406 v 2.67187496 c 0,0.70898438 0.310546,0.94921875 0.867187,0.94921875 0.328125,0 1.03125,-0.06445312 1.505859,-0.45117187 V -3.359375e-4 Z M 17.961426,-0.21713281 17.82666,-0.72689844 c -0.263672,0.19335938 -0.539062,0.2578125 -0.761719,0.2578125 -0.333984,0 -0.421875,-0.328125 -0.421875,-0.69726566 v -1.8691406 h 1.177735 v -0.5039062 h -1.177735 v -1.0136719 h -0.615234 v 1.0136719 H 15.30127 v 0.5039062 h 0.703125 v 2.015625 c 0,0.53320314 0.134765,1.10156251 0.708984,1.10156251 0.574219,0 1.013672,-0.1875 1.248047,-0.29882812 z m 0,0" style="fill:#121619;fill-opacity:1;fill-rule:nonzero;stroke:none" aria-label="input" transform="matrix(2.6666667,0,0,2.6666667,81.833333,81.649333)" />
    <path id="path3" d="M -31.18149,-17.00807 H 31.18149 V 17.00809 H -31.18149 Z" style="fill:#78a9ff;fill-opacity:1;fill-rule:nonzero;stroke:#78a9ff;stroke-width:0.3985;stroke-linecap:butt;stroke-linejoin:miter;stroke-miterlimit:10;stroke-dasharray:none;stroke-opacity:1" transform="matrix(2.6666667,0,0,-2.6666667,295.084,76.686667)" />
    <path id="path4" d="m 3.5162383,-0.28744531 -0.046875,-0.58007813 c -0.3984375,0.25195313 -0.8320313,0.3984375 -1.3242188,0.3984375 -0.7324218,0 -1.16601559,-0.59179686 -1.16601559,-1.30664066 0,-0.6152343 0.32226559,-1.3300781 1.18945309,-1.3300781 0.5390625,0 0.796875,0.1113281 1.2011719,0.3632813 L 3.4752227,-3.3167422 C 2.9947539,-3.5569766 2.7896758,-3.6565859 2.168582,-3.6565859 c -1.19531247,0 -1.88085934,0.9609375 -1.88085934,1.8867187 0,0.97265626 0.76757814,1.85156251 1.84570314,1.85156251 0.5625,0 1.0371094,-0.16992187 1.3828125,-0.36914062 z M 7.746707,-1.7464297 c 0,-1.0488281 -0.8378906,-1.9101562 -1.875,-1.9101562 -1.03125,0 -1.8691406,0.8671875 -1.8691406,1.9101562 0,1.01367189 0.84375,1.82812501 1.8691406,1.82812501 1.0371094,0 1.875,-0.81445312 1.875,-1.82812501 z m -0.6914062,-0.087891 c 0,0.90820311 -0.5683594,1.36523436 -1.1835938,1.36523436 -0.6269531,0 -1.1777343,-0.46289062 -1.1777343,-1.36523436 0,-0.8964844 0.5917968,-1.2949219 1.1777343,-1.2949219 0.5976563,0 1.1835938,0.4101563 1.1835938,1.2949219 z M 14.052859,-3.359375e-4 V -2.3616641 c 0,-0.6210937 -0.1875,-1.2539062 -1.166015,-1.2539062 -0.667969,0 -1.083985,0.3867187 -1.277344,0.6445312 -0.07617,-0.2167968 -0.275391,-0.6445312 -1.072266,-0.6445312 -0.457031,0 -0.8906246,0.1816406 -1.2421871,0.6035156 V -3.5921328 H 8.656375 V -3.359375e-4 H 9.3477813 V -1.9339297 c 0,-0.5273437 0.2226562,-1.1601562 0.8378907,-1.1601562 0.820312,0 0.820312,0.5625 0.820312,0.7910156 v 2.3027343625 h 0.691407 V -1.9339297 c 0,-0.5273437 0.222656,-1.1601562 0.83789,-1.1601562 0.820313,0 0.820313,0.5625 0.820313,0.7910156 V -3.359375e-4 Z M 18.798953,-1.7757266 c 0,-0.9550781 -0.521484,-1.8398437 -1.3125,-1.8398437 -0.357422,0 -0.955078,0.099609 -1.417969,0.4570312 v -0.3808593 h -0.667968 v 5.0859375 h 0.691406 v -1.92187504 c 0.421875,0.38085938 0.878906,0.45703125 1.148437,0.45703125 0.84375,0 1.558594,-0.80859375 1.558594,-1.85742191 z m -0.691406,0 c 0,0.78515629 -0.597656,1.33007816 -1.21875,1.33007816 -0.117188,0 -0.316406,-0.0175781 -0.527344,-0.18164062 -0.240234,-0.1875 -0.269531,-0.3046875 -0.269531,-0.45703124 v -1.5644531 c 0.181641,-0.2226563 0.492187,-0.421875 0.878906,-0.421875 0.632813,0 1.136719,0.5917968 1.136719,1.2949218 z m 4.691894,1.7753906625 V -3.5393984 h -0.691406 v 2.3144531 c 0,0.63281249 -0.539062,0.83203124 -1.001953,0.83203124 -0.591797,0 -0.65625,-0.15820313 -0.65625,-0.52148438 V -3.5393984 h -0.691406 v 2.67187496 c 0,0.70898438 0.310547,0.94921875 0.867187,0.94921875 0.328125,0 1.03125,-0.06445312 1.50586,-0.45117187 V -3.359375e-4 Z M 26.290164,-0.21713281 26.155398,-0.72689844 c -0.263671,0.19335938 -0.539062,0.2578125 -0.761718,0.2578125 -0.333985,0 -0.421875,-0.328125 -0.421875,-0.69726566 v -1.8691406 h 1.177734 V -3.5393984 H 24.971805 V -4.5530703 H 24.35657 v 1.0136719 h -0.726562 v 0.5039062 h 0.703125 v 2.015625 c 0,0.53320314 0.134765,1.10156251 0.708984,1.10156251 0.574219,0 1.013672,-0.1875 1.248047,-0.29882812 z m 3.716309,0.2167968725 V -2.2972109 c 0,-0.8085938 -0.621094,-1.359375 -1.41211,-1.359375 -0.498047,0 -0.884765,0.099609 -1.330078,0.3398437 l 0.04687,0.5859375 c 0.263672,-0.1757812 0.65625,-0.4160156 1.283203,-0.4160156 0.351563,0 0.720703,0.2636719 0.720703,0.8613281 v 0.3164063 c -1.183593,0.041016 -2.34375,0.2871093 -2.34375,1.03124996 0,0.3984375 0.269532,1.01953125 0.972657,1.01953125 0.339843,0 0.972656,-0.07617187 1.394531,-0.38671875 V -3.359375e-4 Z M 29.315066,-1.1311953 c 0,0.15820311 0,0.36328124 -0.28125,0.53320311 -0.251953,0.140625 -0.568359,0.15234375 -0.65039,0.15234375 -0.439453,0 -0.773438,-0.19921875 -0.773438,-0.50390625 0,-0.50976561 1.341797,-0.55664061 1.705078,-0.57421871 z m 4.100098,0.91406249 -0.134766,-0.50976563 c -0.263671,0.19335938 -0.539062,0.2578125 -0.761718,0.2578125 -0.333985,0 -0.421875,-0.328125 -0.421875,-0.69726566 v -1.8691406 h 1.177734 V -3.5393984 H 32.096805 V -4.5530703 H 31.48157 v 1.0136719 h -0.726562 v 0.5039062 h 0.703125 v 2.015625 c 0,0.53320314 0.134765,1.10156251 0.708984,1.10156251 0.574219,0 1.013672,-0.1875 1.248047,-0.29882812 z m 1.579102,0.2167968725 V -3.5393984 H 34.326297 V -3.359375e-4 Z M 35.070438,-4.4651797 v -0.8027344 h -0.808594 v 0.8027344 z m 4.58789,2.71875 c 0,-1.0488281 -0.83789,-1.9101562 -1.875,-1.9101562 -1.03125,0 -1.86914,0.8671875 -1.86914,1.9101562 0,1.01367189 0.84375,1.82812501 1.86914,1.82812501 1.03711,0 1.875,-0.81445312 1.875,-1.82812501 z m -0.691406,-0.087891 c 0,0.90820311 -0.568359,1.36523436 -1.183594,1.36523436 -0.626953,0 -1.177734,-0.46289062 -1.177734,-1.36523436 0,-0.8964844 0.591797,-1.2949219 1.177734,-1.2949219 0.597656,0 1.183594,0.4101563 1.183594,1.2949219 z m 4.64209,1.8339843625 V -2.3616641 c 0,-0.6210937 -0.181641,-1.2539062 -1.160157,-1.2539062 -0.457031,0 -0.890625,0.1816406 -1.242187,0.6035156 v -0.5800781 h -0.638672 v 3.5917968625 h 0.691406 V -1.9339297 c 0,-0.5273437 0.222657,-1.1601562 0.837891,-1.1601562 0.820312,0 0.820312,0.5625 0.820312,0.7910156 v 2.3027343625 z m 0,0" style="fill:#ffffff;fill-opacity:1;fill-rule:nonzero;stroke:none" aria-label="computation" transform="matrix(2.6666667,0,0,2.6666667,236.04133,81.649333)" />
    <path id="path5" d="m 3.9850547,-1.7463164 c 0,-1.0488281 -0.8378906,-1.9101563 -1.875,-1.9101563 -1.03125,0 -1.86914064,0.8671875 -1.86914064,1.9101563 0,1.01367187 0.84375004,1.82812499 1.86914064,1.82812499 1.0371094,0 1.875,-0.81445312 1.875,-1.82812499 z M 3.2936484,-1.834207 c 0,0.90820309 -0.5683593,1.36523434 -1.1835937,1.36523434 -0.6269531,0 -1.17773439,-0.46289062 -1.17773439,-1.36523434 0,-0.8964844 0.59179689,-1.2949219 1.17773439,-1.2949219 0.5976562,0 1.1835937,0.4101562 1.1835937,1.2949219 z M 7.9357383,-2.2265625e-4 V -3.5392852 H 7.244332 v 2.3144532 c 0,0.63281247 -0.5390625,0.83203122 -1.0019531,0.83203122 -0.5917969,0 -0.65625,-0.15820313 -0.65625,-0.52148438 V -3.5392852 H 4.8947227 v 2.67187504 c 0,0.70898438 0.3105468,0.94921875 0.8671875,0.94921875 0.328125,0 1.03125,-0.06445312 1.5058593,-0.45117187 V -2.2265625e-4 Z M 11.426461,-0.21701953 11.291695,-0.72678516 c -0.263672,0.19335938 -0.539062,0.2578125 -0.761718,0.2578125 -0.333985,0 -0.421875,-0.328125 -0.421875,-0.69726564 v -1.8691406 h 1.177734 V -3.5392852 H 10.108102 V -4.552957 H 9.4928672 v 1.0136718 H 8.7663047 v 0.5039063 h 0.703125 v 2.015625 c 0,0.53320312 0.1347656,1.10156249 0.7089843,1.10156249 0.574219,0 1.013672,-0.1875 1.248047,-0.29882812 z m 4.319824,-1.55859377 c 0,-0.9550781 -0.521484,-1.8398437 -1.3125,-1.8398437 -0.357422,0 -0.955078,0.099609 -1.417969,0.4570312 v -0.3808594 h -0.667968 v 5.0859375 h 0.691406 v -1.92187496 c 0.421875,0.38085938 0.878906,0.45703125 1.148437,0.45703125 0.84375,0 1.558594,-0.80859375 1.558594,-1.85742189 z m -0.691406,0 c 0,0.78515627 -0.597656,1.33007814 -1.21875,1.33007814 -0.117188,0 -0.316406,-0.0175781 -0.527344,-0.18164062 -0.240234,-0.1875 -0.269531,-0.3046875 -0.269531,-0.45703122 v -1.5644532 c 0.181641,-0.2226562 0.492187,-0.421875 0.878906,-0.421875 0.632813,0 1.136719,0.5917969 1.136719,1.2949219 z m 4.691894,1.77539064375 V -3.5392852 h -0.691406 v 2.3144532 c 0,0.63281247 -0.539062,0.83203122 -1.001953,0.83203122 -0.591797,0 -0.65625,-0.15820313 -0.65625,-0.52148438 V -3.5392852 h -0.691406 v 2.67187504 c 0,0.70898438 0.310547,0.94921875 0.867187,0.94921875 0.328125,0 1.03125,-0.06445312 1.50586,-0.45117187 V -2.2265625e-4 Z M 23.237496,-0.21701953 23.10273,-0.72678516 c -0.263671,0.19335938 -0.539062,0.2578125 -0.761718,0.2578125 -0.333985,0 -0.421875,-0.328125 -0.421875,-0.69726564 v -1.8691406 h 1.177734 V -3.5392852 H 21.919137 V -4.552957 h -0.615235 v 1.0136718 H 20.57734 v 0.5039063 h 0.703125 v 2.015625 c 0,0.53320312 0.134765,1.10156249 0.708984,1.10156249 0.574219,0 1.013672,-0.1875 1.248047,-0.29882812 z m 0,0" style="fill:#121619;fill-opacity:1;fill-rule:nonzero;stroke:none" aria-label="output" transform="matrix(2.6666667,0,0,2.6666667,452.756,80.692)" />
    <path id="path6" d="m -58.90932,0 h 23.94203" style="fill:none;stroke:#121619;stroke-width:0.3985;stroke-linecap:butt;stroke-linejoin:miter;stroke-miterlimit:10;stroke-dasharray:none;stroke-opacity:1" transform="matrix(2.6666667,0,0,-2.6666667,295.084,76.686667)" />
    <path id="path7" d="M 3.58653,0 C 2.52383,0.19925 0.797,0.797 -0.3985,1.49438 V -1.49438 C 0.797,-0.797 2.52383,-0.19925 3.58653,0" style="fill:#121619;fill-opacity:1;fill-rule:nonzero;stroke:none" transform="matrix(2.6666667,0,0,-2.6666667,201.83789,76.686667)" />
    <path id="path8" d="M 31.38074,0 H 52.68463" style="fill:none;stroke:#121619;stroke-width:0.3985;stroke-linecap:butt;stroke-linejoin:miter;stroke-miterlimit:10;stroke-dasharray:none;stroke-opacity:1" transform="matrix(2.6666667,0,0,-2.6666667,295.084,76.686667)" />
    <path id="path9" d="M 3.58653,0 C 2.52383,0.19925 0.797,0.797 -0.3985,1.49438 V -1.49438 C 0.797,-0.797 2.52383,-0.19925 3.58653,0" style="fill:#121619;fill-opacity:1;fill-rule:nonzero;stroke:none" transform="matrix(2.6666667,0,0,-2.6666667,435.57635,76.686667)" />
  </g>
</svg>