<?xml version='1.0' encoding='utf-8'?>
<svg xmlns="http://www.w3.org/2000/svg" xmlns:ns1="http://sodipodi.sourceforge.net/DTD/sodipodi-0.dtd" xmlns:ns2="http://www.inkscape.org/namespaces/inkscape" version="1.1" id="svg1" width="100%" height="auto" viewBox="-20.0 -20.0 491.01434 297.9414" ns1:docname="svg_fix_XXXXXX.svg">
  <rect id="path1" x="-20.0" y="-20.0" width="491.01434" height="297.9414" fill="white" /><ns1:namedview id="namedview1" pagecolor="#ffffff" bordercolor="#000000" borderopacity="0.25" ns2:showpageshadow="2" ns2:pageopacity="0.0" ns2:pagecheckerboard="0" ns2:deskcolor="#d1d1d1" />
  <defs id="defs1" />
  <g id="g1" transform="translate(-76.718749,-35.222656)">
    <path id="path2" d="M 49.60785,-2.12587 V 2.12587 M 99.2157,-2.12587 v 4.25174 m 49.60786,-4.25174 v 4.25174 m 49.60785,-4.25174 v 4.25174" style="fill:none;stroke:#808080;stroke-width:0.19925;stroke-linecap:butt;stroke-linejoin:miter;stroke-miterlimit:10;stroke-dasharray:none;stroke-opacity:1" transform="matrix(1.6666667,0,0,-1.6666667,143.01333,250.69833)" />
    <path id="path3" d="m -2.12592,22.6783 h 4.25184 m -4.25184,22.67831 h 4.25184 m -4.25184,22.67832 h 4.25184 m -4.25184,22.67831 h 4.25184 m -4.25184,22.67832 h 4.25184" style="fill:none;stroke:#808080;stroke-width:0.19925;stroke-linecap:butt;stroke-linejoin:miter;stroke-miterlimit:10;stroke-dasharray:none;stroke-opacity:1" transform="matrix(1.6666667,0,0,-1.6666667,143.01333,250.69833)" />
    <path id="path4" d="M 0,0 H 198.43108" style="fill:none;stroke:#121619;stroke-width:0.3985;stroke-linecap:butt;stroke-linejoin:miter;stroke-miterlimit:10;stroke-dasharray:none;stroke-opacity:1" transform="matrix(1.6666667,0,0,-1.6666667,143.01333,250.69833)" />
    <path id="path5" d="M 0,0 V 113.37341" style="fill:none;stroke:#121619;stroke-width:0.3985;stroke-linecap:butt;stroke-linejoin:miter;stroke-miterlimit:10;stroke-dasharray:none;stroke-opacity:1" transform="matrix(1.6666667,0,0,-1.6666667,143.01333,250.69833)" />
    <g id="g5" aria-label="0.25" transform="matrix(1.6666667,0,0,1.6666667,213.14667,267.56167)">
      <path id="path6" d="m 3.9010625,-2.540125 c 0,-0.853125 -0.09375,-1.36875 -0.35625,-1.884375 -0.346875,-0.703125 -0.99375,-0.871875 -1.434375,-0.871875 -1.003125,0 -1.36875,0.75 -1.48125,0.965625 -0.28125,0.58125 -0.3,1.378125 -0.3,1.790625 0,0.525 0.01875,1.33125 0.403125,1.96875 0.365625,0.590625 0.95625,0.740625 1.378125,0.740625 0.384375,0 1.06875,-0.121875 1.471875,-0.909375 0.290625,-0.571875 0.31875,-1.284375 0.31875,-1.8 z m -1.790625,2.484375 c -0.271875,0 -0.815625,-0.13125 -0.984375,-0.965625 -0.084375,-0.45 -0.084375,-1.2 -0.084375,-1.6125 0,-0.553125 0,-1.115625 0.084375,-1.546875 0.16875,-0.815625 0.7875,-0.890625 0.984375,-0.890625 0.271875,0 0.825,0.13125 0.984375,0.853125 0.09375,0.440625 0.09375,1.040625 0.09375,1.584375 0,0.46875 0,1.18125 -0.09375,1.63125 -0.16875,0.834375 -0.721875,0.946875 -0.984375,0.946875 z m 0,0" style="fill:#121619;fill-opacity:1;fill-rule:nonzero;stroke:none" />
      <path id="path7" d="m 5.85575,-0.440125 c 0,-0.271875 -0.225,-0.440625 -0.440625,-0.440625 -0.253125,0 -0.45,0.20625 -0.45,0.43125 0,0.271875 0.225,0.45 0.440625,0.45 0.253125,0 0.45,-0.20625 0.45,-0.440625 z m 0,0" style="fill:#121619;fill-opacity:1;fill-rule:nonzero;stroke:none" />
      <path id="path8" d="M 8.837,-1.621375 C 8.958875,-1.74325 9.296375,-2.00575 9.427625,-2.11825 c 0.4875,-0.459375 0.95625,-0.890625 0.95625,-1.621875 0,-0.946875 -0.796875,-1.55625 -1.790625,-1.55625 -0.95625,0 -1.584375,0.721875 -1.584375,1.434375 0,0.384375 0.309375,0.440625 0.421875,0.440625 0.16875,0 0.4125,-0.1125 0.4125,-0.421875 0,-0.4125 -0.39375,-0.4125 -0.4875,-0.4125 0.225,-0.58125 0.759375,-0.778125 1.153125,-0.778125 0.740625,0 1.125,0.628125 1.125,1.29375 0,0.834375 -0.58125,1.434375 -1.528125,2.4 L 7.102625,-0.2995 c -0.09375,0.084375 -0.09375,0.103125 -0.09375,0.3 h 3.15 l 0.225,-1.425 h -0.24375 C 10.121375,-1.265125 10.05575,-0.871375 9.962,-0.721375 9.90575,-0.65575 9.30575,-0.65575 9.1745,-0.65575 H 7.758875 Z m 3.096094,-2.859375 c 0.103125,0.0375 0.421875,0.1125 0.759375,0.1125 0.99375,0 1.603125,-0.703125 1.603125,-0.815625 0,-0.09375 -0.05625,-0.1125 -0.103125,-0.1125 -0.0094,0 -0.02812,0 -0.103125,0.0375 -0.309375,0.121875 -0.675,0.215625 -1.10625,0.215625 -0.46875,0 -0.8625,-0.121875 -1.10625,-0.215625 -0.075,-0.0375 -0.09375,-0.0375 -0.103125,-0.0375 -0.103125,0 -0.103125,0.084375 -0.103125,0.225 V -2.737 c 0,0.15 0,0.24375 0.13125,0.24375 0.05625,0 0.08438,-0.028125 0.121875,-0.09375 0.09375,-0.121875 0.403125,-0.525 1.078125,-0.525 0.45,0 0.65625,0.365625 0.73125,0.515625 0.140625,0.28125 0.15,0.65625 0.15,0.965625 0,0.290625 -0.0094,0.721875 -0.225,1.06875 -0.159375,0.24375 -0.478125,0.4875 -0.9,0.4875 -0.515625,0 -1.021875,-0.328125 -1.209375,-0.84375 0.02812,0.009375 0.075,0.009375 0.08437,0.009375 0.225,0 0.39375,-0.140625 0.39375,-0.39375 0,-0.290625 -0.225,-0.39375 -0.384375,-0.39375 -0.15,0 -0.403125,0.075 -0.403125,0.421875 0,0.7125 0.61875,1.44375 1.5375,1.44375 0.99375,0 1.8375,-0.778125 1.8375,-1.7625 0,-0.928125 -0.665625,-1.74375 -1.603125,-1.74375 -0.403125,0 -0.778125,0.121875 -1.078125,0.39375 z m 0,0" style="fill:#121619;fill-opacity:1;fill-rule:nonzero;stroke:none" />
    </g>
    <g id="g8" aria-label="0.5" transform="matrix(1.6666667,0,0,1.6666667,299.355,267.56167)">
      <path id="path9" d="m 3.9002813,-2.540125 c 0,-0.853125 -0.09375,-1.36875 -0.35625,-1.884375 -0.346875,-0.703125 -0.99375,-0.871875 -1.434375,-0.871875 -1.003125,0 -1.36875005,0.75 -1.48125005,0.965625 -0.28125,0.58125 -0.3,1.378125 -0.3,1.790625 0,0.525 0.01875,1.33125 0.403125,1.96875 C 1.0971563,0.01925 1.6877813,0.16925 2.1096563,0.16925 c 0.384375,0 1.06875,-0.121875 1.471875,-0.909375 0.290625,-0.571875 0.31875,-1.284375 0.31875,-1.8 z m -1.790625,2.484375 c -0.271875,0 -0.815625,-0.13125 -0.984375,-0.965625 -0.084375,-0.45 -0.084375,-1.2 -0.084375,-1.6125 0,-0.553125 0,-1.115625 0.084375,-1.546875 0.16875,-0.815625 0.7875,-0.890625 0.984375,-0.890625 0.271875,0 0.825,0.13125 0.984375,0.853125 0.09375,0.440625 0.09375,1.040625 0.09375,1.584375 0,0.46875 0,1.18125 -0.09375,1.63125 -0.16875,0.834375 -0.721875,0.946875 -0.984375,0.946875 z m 0,0" style="fill:#121619;fill-opacity:1;fill-rule:nonzero;stroke:none" />
      <path id="path10" d="m 5.8549688,-0.440125 c 0,-0.271875 -0.225,-0.440625 -0.440625,-0.440625 -0.253125,0 -0.45,0.20625 -0.45,0.43125 0,0.271875 0.225,0.45 0.440625,0.45 0.253125,0 0.45,-0.20625 0.45,-0.440625 z m 0,0" style="fill:#121619;fill-opacity:1;fill-rule:nonzero;stroke:none" />
      <path id="path11" d="m 7.7018438,-4.48075 c 0.103125,0.0375 0.421875,0.1125 0.759375,0.1125 0.99375,0 1.6031252,-0.703125 1.6031252,-0.815625 0,-0.09375 -0.05625,-0.1125 -0.1031252,-0.1125 -0.00937,0 -0.028125,0 -0.103125,0.0375 -0.309375,0.121875 -0.675,0.215625 -1.10625,0.215625 -0.46875,0 -0.8625,-0.121875 -1.10625,-0.215625 -0.075,-0.0375 -0.09375,-0.0375 -0.103125,-0.0375 -0.103125,0 -0.103125,0.084375 -0.103125,0.225 V -2.737 c 0,0.15 0,0.24375 0.13125,0.24375 0.05625,0 0.084375,-0.028125 0.121875,-0.09375 0.09375,-0.121875 0.403125,-0.525 1.078125,-0.525 0.45,0 0.65625,0.365625 0.73125,0.515625 0.140625,0.28125 0.15,0.65625 0.15,0.965625 0,0.290625 -0.00938,0.721875 -0.225,1.06875 -0.159375,0.24375 -0.478125,0.4875 -0.9,0.4875 -0.515625,0 -1.021875,-0.328125 -1.209375,-0.84375 0.028125,0.009375 0.075,0.009375 0.084375,0.009375 0.225,0 0.39375,-0.140625 0.39375,-0.39375 0,-0.290625 -0.225,-0.39375 -0.384375,-0.39375 -0.15,0 -0.403125,0.075 -0.403125,0.421875 0,0.7125 0.61875,1.44375 1.5375,1.44375 0.99375,0 1.8375002,-0.778125 1.8375002,-1.7625 0,-0.928125 -0.6656252,-1.74375 -1.6031252,-1.74375 -0.403125,0 -0.778125,0.121875 -1.078125,0.39375 z m 0,0" style="fill:#121619;fill-opacity:1;fill-rule:nonzero;stroke:none" />
    </g>
    <g id="g11" aria-label="0.75" transform="matrix(1.6666667,0,0,1.6666667,378.50667,267.56167)">
      <path id="path12" d="m 3.9006875,-2.540125 c 0,-0.853125 -0.09375,-1.36875 -0.35625,-1.884375 -0.346875,-0.703125 -0.99375,-0.871875 -1.434375,-0.871875 -1.003125,0 -1.36875,0.75 -1.48125,0.965625 -0.28125,0.58125 -0.3,1.378125 -0.3,1.790625 0,0.525 0.01875,1.33125 0.403125,1.96875 0.365625,0.590625 0.95625,0.740625 1.378125,0.740625 0.384375,0 1.06875,-0.121875 1.471875,-0.909375 0.290625,-0.571875 0.31875,-1.284375 0.31875,-1.8 z m -1.790625,2.484375 c -0.271875,0 -0.815625,-0.13125 -0.984375,-0.965625 -0.084375,-0.45 -0.084375,-1.2 -0.084375,-1.6125 0,-0.553125 0,-1.115625 0.084375,-1.546875 0.16875,-0.815625 0.7875,-0.890625 0.984375,-0.890625 0.271875,0 0.825,0.13125 0.984375,0.853125 0.09375,0.440625 0.09375,1.040625 0.09375,1.584375 0,0.46875 0,1.18125 -0.09375,1.63125 -0.16875,0.834375 -0.721875,0.946875 -0.984375,0.946875 z m 0,0" style="fill:#121619;fill-opacity:1;fill-rule:nonzero;stroke:none" />
      <path id="path13" d="m 5.855375,-0.440125 c 0,-0.271875 -0.225,-0.440625 -0.440625,-0.440625 -0.253125,0 -0.45,0.20625 -0.45,0.43125 0,0.271875 0.225,0.45 0.440625,0.45 0.253125,0 0.45,-0.20625 0.45,-0.440625 z m 0,0" style="fill:#121619;fill-opacity:1;fill-rule:nonzero;stroke:none" />
      <path id="path14" d="m 10.617875,-4.85575 c 0.075,-0.084375 0.075,-0.103125 0.075,-0.271875 h -2.025 C 8.471,-5.127625 8.217875,-5.137 8.021,-5.15575 7.6085,-5.183875 7.599125,-5.258875 7.571,-5.390125 H 7.32725 l -0.271875,1.6875 H 7.3085 C 7.31787,-3.8245 7.411625,-4.377625 7.51475,-4.433875 7.6085,-4.48075 8.2085,-4.48075 8.321,-4.48075 h 1.696875 l -0.825,1.10625 C 8.2835,-2.165125 8.096,-0.908875 8.096,-0.28075 c 0,0.084375 0,0.45 0.375,0.45 0.375,0 0.375,-0.35625 0.375,-0.459375 v -0.375 c 0,-1.153125 0.1875,-2.090625 0.58125,-2.60625 z m 1.314844,0.375 c 0.103125,0.0375 0.421875,0.1125 0.759375,0.1125 0.99375,0 1.603125,-0.703125 1.603125,-0.815625 0,-0.09375 -0.05625,-0.1125 -0.103125,-0.1125 -0.0094,0 -0.02813,0 -0.103125,0.0375 -0.309375,0.121875 -0.675,0.215625 -1.10625,0.215625 -0.46875,0 -0.8625,-0.121875 -1.10625,-0.215625 -0.075,-0.0375 -0.09375,-0.0375 -0.103125,-0.0375 -0.103125,0 -0.103125,0.084375 -0.103125,0.225 V -2.737 c 0,0.15 0,0.24375 0.13125,0.24375 0.05625,0 0.08437,-0.028125 0.121875,-0.09375 0.09375,-0.121875 0.403125,-0.525 1.078125,-0.525 0.45,0 0.65625,0.365625 0.73125,0.515625 0.140625,0.28125 0.15,0.65625 0.15,0.965625 0,0.290625 -0.0094,0.721875 -0.225,1.06875 -0.159375,0.24375 -0.478125,0.4875 -0.9,0.4875 -0.515625,0 -1.021875,-0.328125 -1.209375,-0.84375 0.02812,0.009375 0.075,0.009375 0.08437,0.009375 0.225,0 0.39375,-0.140625 0.39375,-0.39375 0,-0.290625 -0.225,-0.39375 -0.384375,-0.39375 -0.15,0 -0.403125,0.075 -0.403125,0.421875 0,0.7125 0.61875,1.44375 1.5375,1.44375 0.99375,0 1.8375,-0.778125 1.8375,-1.7625 0,-0.928125 -0.665625,-1.74375 -1.603125,-1.74375 -0.403125,0 -0.778125,0.121875 -1.078125,0.39375 z m 0,0" style="fill:#121619;fill-opacity:1;fill-rule:nonzero;stroke:none" />
    </g>
    <path id="path15" d="m 2.503,-5.071375 c 0,-0.215625 -0.01875,-0.225 -0.234375,-0.225 -0.328125,0.31875 -0.75,0.50625 -1.5,0.50625 v 0.2625 c 0.215625,0 0.6375,0 1.10625,-0.215625 v 4.0875 c 0,0.3 -0.028125,0.39375 -0.7875,0.39375 H 0.8155 V 5e-4 c 0.328125,-0.028125 1.0125,-0.028125 1.36875,-0.028125 0.35625,0 1.05,0 1.378125,0.028125 V -0.262 H 3.281125 C 2.52175,-0.262 2.503,-0.35575 2.503,-0.65575 Z m 0,0" style="fill:#121619;fill-opacity:1;fill-rule:nonzero;stroke:none" aria-label="1" transform="matrix(1.6666667,0,0,1.6666667,470.20333,267.56167)" />
    <g id="g15" aria-label="0.2" transform="matrix(1.6666667,0,0,1.6666667,116.67667,217.18167)">
      <path id="path16" d="m 3.8994688,-2.5394687 c 0,-0.853125 -0.09375,-1.36875 -0.35625,-1.884375 -0.346875,-0.703125 -0.99375,-0.871875 -1.434375,-0.871875 -1.003125,0 -1.36875005,0.75 -1.48125005,0.965625 -0.28125,0.58125 -0.3,1.378125 -0.3,1.790625 0,0.525 0.01875,1.33125 0.403125,1.96874995 0.36562505,0.590625 0.95625005,0.740625 1.37812505,0.740625 0.384375,0 1.06875,-0.121875 1.471875,-0.909375 0.290625,-0.57187495 0.31875,-1.28437495 0.31875,-1.79999995 z m -1.790625,2.48437495 c -0.271875,0 -0.815625,-0.13125 -0.984375,-0.96562495 -0.084375,-0.45 -0.084375,-1.2 -0.084375,-1.6125 0,-0.553125 0,-1.115625 0.084375,-1.546875 0.16875,-0.815625 0.7875,-0.890625 0.984375,-0.890625 0.271875,0 0.825,0.13125 0.984375,0.853125 0.09375,0.440625 0.09375,1.040625 0.09375,1.584375 0,0.46875 0,1.18125 -0.09375,1.63125 -0.16875,0.83437495 -0.721875,0.94687495 -0.984375,0.94687495 z m 0,0" style="fill:#121619;fill-opacity:1;fill-rule:nonzero;stroke:none" />
      <path id="path17" d="m 5.8565,-0.43946875 c 0,-0.271875 -0.225,-0.440625 -0.440625,-0.440625 -0.253125,0 -0.45,0.20625 -0.45,0.43125 0,0.271875 0.225,0.45 0.440625,0.45 0.253125,0 0.45,-0.20625 0.45,-0.440625 z m 0,0" style="fill:#121619;fill-opacity:1;fill-rule:nonzero;stroke:none" />
      <path id="path18" d="m 8.8354063,-1.6207187 c 0.121875,-0.121875 0.459375,-0.384375 0.590625,-0.496875 0.4875,-0.459375 0.9562497,-0.890625 0.9562497,-1.621875 0,-0.946875 -0.7968747,-1.55625 -1.7906247,-1.55625 -0.95625,0 -1.584375,0.721875 -1.584375,1.434375 0,0.384375 0.309375,0.440625 0.421875,0.440625 0.16875,0 0.4125,-0.1125 0.4125,-0.421875 0,-0.4125 -0.39375,-0.4125 -0.4875,-0.4125 0.225,-0.58125 0.759375,-0.778125 1.153125,-0.778125 0.740625,0 1.125,0.628125 1.125,1.29375 0,0.834375 -0.58125,1.434375 -1.528125,2.4 l -1.003125,1.04062495 c -0.09375,0.084375 -0.09375,0.103125 -0.09375,0.3 h 3.1499997 l 0.225,-1.42499995 h -0.24375 c -0.01875,0.159375 -0.08437,0.55312495 -0.1781247,0.70312495 -0.05625,0.065625 -0.65625,0.065625 -0.7875,0.065625 h -1.415625 z m 0,0" style="fill:#121619;fill-opacity:1;fill-rule:nonzero;stroke:none" />
    </g>
    <g id="g18" aria-label="0.4" transform="matrix(1.6666667,0,0,1.6666667,116.67667,179.385)">
      <path id="path19" d="m 3.8994688,-2.5395937 c 0,-0.853125 -0.09375,-1.36875 -0.35625,-1.884375 -0.346875,-0.703125 -0.99375,-0.871875 -1.434375,-0.871875 -1.003125,0 -1.36875005,0.75 -1.48125005,0.965625 -0.28125,0.58125 -0.3,1.378125 -0.3,1.790625 0,0.525 0.01875,1.33125 0.403125,1.96874995 0.36562505,0.590625 0.95625005,0.740625 1.37812505,0.740625 0.384375,0 1.06875,-0.121875 1.471875,-0.909375 0.290625,-0.57187495 0.31875,-1.28437495 0.31875,-1.79999995 z m -1.790625,2.48437495 c -0.271875,0 -0.815625,-0.13125 -0.984375,-0.96562495 -0.084375,-0.45 -0.084375,-1.2 -0.084375,-1.6125 0,-0.553125 0,-1.115625 0.084375,-1.546875 0.16875,-0.815625 0.7875,-0.890625 0.984375,-0.890625 0.271875,0 0.825,0.13125 0.984375,0.853125 0.09375,0.440625 0.09375,1.040625 0.09375,1.584375 0,0.46875 0,1.18125 -0.09375,1.63125 -0.16875,0.83437495 -0.721875,0.94687495 -0.984375,0.94687495 z m 0,0" style="fill:#121619;fill-opacity:1;fill-rule:nonzero;stroke:none" />
      <path id="path20" d="m 5.8565,-0.43959375 c 0,-0.271875 -0.225,-0.440625 -0.440625,-0.440625 -0.253125,0 -0.45,0.20625 -0.45,0.43125 0,0.271875 0.225,0.45 0.440625,0.45 0.253125,0 0.45,-0.20625 0.45,-0.440625 z m 0,0" style="fill:#121619;fill-opacity:1;fill-rule:nonzero;stroke:none" />
      <path id="path21" d="m 9.7260313,-5.1552187 c 0,-0.159375 0,-0.225 -0.16875,-0.225 -0.103125,0 -0.1125,0.00938 -0.1875,0.121875 l -2.540625,3.69375 v 0.2625 h 2.240625 v 0.65624995 c 0,0.3 -0.01875,0.384375 -0.6375,0.384375 h -0.178125 v 0.2625 c 0.675,-0.028125 0.69375,-0.028125 1.14375,-0.028125 0.459375,0 0.46875,0 1.1437497,0.028125 v -0.2625 h -0.178125 c -0.6187497,0 -0.6374997,-0.084375 -0.6374997,-0.384375 V -1.3020937 h 0.8437497 v -0.2625 H 9.7260313 Z m -0.6,0.646875 v 2.94375 h -2.025 z m 0,0" style="fill:#121619;fill-opacity:1;fill-rule:nonzero;stroke:none" />
    </g>
    <g id="g21" aria-label="0.6" transform="matrix(1.6666667,0,0,1.6666667,116.67667,141.58667)">
      <path id="path22" d="m 3.8994688,-2.5410625 c 0,-0.853125 -0.09375,-1.36875 -0.35625,-1.884375 -0.346875,-0.703125 -0.99375,-0.871875 -1.434375,-0.871875 -1.003125,0 -1.36875005,0.75 -1.48125005,0.965625 -0.28125,0.58125 -0.3,1.378125 -0.3,1.790625 0,0.525 0.01875,1.33125 0.403125,1.96875 0.36562505,0.590625 0.95625005,0.740625 1.37812505,0.740625 0.384375,0 1.06875,-0.121875 1.471875,-0.909375 0.290625,-0.571875 0.31875,-1.284375 0.31875,-1.8 z m -1.790625,2.484375 c -0.271875,0 -0.815625,-0.13125 -0.984375,-0.965625 -0.084375,-0.45 -0.084375,-1.2 -0.084375,-1.6125 0,-0.553125 0,-1.115625 0.084375,-1.546875 0.16875,-0.815625 0.7875,-0.890625 0.984375,-0.890625 0.271875,0 0.825,0.13125 0.984375,0.853125 0.09375,0.440625 0.09375,1.040625 0.09375,1.584375 0,0.46875 0,1.18125 -0.09375,1.63125 -0.16875,0.834375 -0.721875,0.946875 -0.984375,0.946875 z m 0,0" style="fill:#121619;fill-opacity:1;fill-rule:nonzero;stroke:none" />
      <path id="path23" d="m 5.8565,-0.4410625 c 0,-0.271875 -0.225,-0.440625 -0.440625,-0.440625 -0.253125,0 -0.45,0.20625 -0.45,0.43125 0,0.271875 0.225,0.45 0.440625,0.45 0.253125,0 0.45,-0.20625 0.45,-0.440625 z m 0,0" style="fill:#121619;fill-opacity:1;fill-rule:nonzero;stroke:none" />
      <path id="path24" d="m 7.6822813,-2.6348125 c 0,-0.665625 0.05625,-1.246875 0.346875,-1.734375 0.234375,-0.39375 0.646875,-0.721875 1.14375,-0.721875 0.159375,0 0.525,0.01875 0.7125,0.3 -0.35625,0.01875 -0.39375,0.290625 -0.39375,0.375 0,0.24375 0.1875,0.375 0.375,0.375 0.1499997,0 0.3749997,-0.084375 0.3749997,-0.39375 0,-0.478125 -0.3562497,-0.8625 -1.0781247,-0.8625 -1.10625,0 -2.23125,1.05 -2.23125,2.775 0,2.15625 1.0125,2.690625 1.78125,2.690625 0.384375,0 0.796875,-0.103125 1.153125,-0.45 0.3187497,-0.309375 0.5906247,-0.646875 0.5906247,-1.340625 0,-1.040625 -0.7874997,-1.771875 -1.6687497,-1.771875 -0.58125,0 -0.91875,0.365625 -1.10625,0.759375 z m 1.03125,2.559375 c -0.421875,0 -0.684375,-0.290625 -0.80625,-0.515625 -0.178125,-0.35625 -0.196875,-0.9 -0.196875,-1.2 0,-0.7875 0.43125,-1.378125 1.040625,-1.378125 0.403125,0 0.6375,0.20625 0.7875,0.4875 0.16875,0.290625 0.16875,0.646875 0.16875,1.059375 0,0.403125 0,0.75 -0.159375,1.040625 -0.20625,0.365625 -0.4875,0.50625 -0.834375,0.50625 z m 0,0" style="fill:#121619;fill-opacity:1;fill-rule:nonzero;stroke:none" />
    </g>
    <g id="g24" aria-label="0.8" transform="matrix(1.6666667,0,0,1.6666667,116.67667,103.79)">
      <path id="path25" d="m 3.8994688,-2.5411875 c 0,-0.853125 -0.09375,-1.36875 -0.35625,-1.884375 -0.346875,-0.703125 -0.99375,-0.871875 -1.434375,-0.871875 -1.003125,0 -1.36875005,0.75 -1.48125005,0.965625 -0.28125,0.58125 -0.3,1.378125 -0.3,1.790625 0,0.525 0.01875,1.33125 0.403125,1.96875 0.36562505,0.590625 0.95625005,0.740625 1.37812505,0.740625 0.384375,0 1.06875,-0.121875 1.471875,-0.909375 0.290625,-0.571875 0.31875,-1.284375 0.31875,-1.8 z m -1.790625,2.484375 c -0.271875,0 -0.815625,-0.13125 -0.984375,-0.965625 -0.084375,-0.45 -0.084375,-1.2 -0.084375,-1.6125 0,-0.553125 0,-1.115625 0.084375,-1.546875 0.16875,-0.815625 0.7875,-0.890625 0.984375,-0.890625 0.271875,0 0.825,0.13125 0.984375,0.853125 0.09375,0.440625 0.09375,1.040625 0.09375,1.584375 0,0.46875 0,1.18125 -0.09375,1.63125 -0.16875,0.834375 -0.721875,0.946875 -0.984375,0.946875 z m 0,0" style="fill:#121619;fill-opacity:1;fill-rule:nonzero;stroke:none" />
      <path id="path26" d="m 5.8565,-0.4411875 c 0,-0.271875 -0.225,-0.440625 -0.440625,-0.440625 -0.253125,0 -0.45,0.20625 -0.45,0.43125 0,0.271875 0.225,0.45 0.440625,0.45 0.253125,0 0.45,-0.20625 0.45,-0.440625 z m 0,0" style="fill:#121619;fill-opacity:1;fill-rule:nonzero;stroke:none" />
      <path id="path27" d="m 9.2291563,-2.8786875 c 0.45,-0.215625 0.9937497,-0.609375 0.9937497,-1.2375 0,-0.75 -0.7781247,-1.18125 -1.5187497,-1.18125 -0.84375,0 -1.528125,0.58125 -1.528125,1.33125 0,0.290625 0.103125,0.5625 0.3,0.796875 0.140625,0.16875 0.16875,0.178125 0.665625,0.4875 -0.99375,0.440625 -1.209375,1.021875 -1.209375,1.471875 0,0.871875 0.890625,1.378125 1.753125,1.378125 0.984375,0 1.7718747,-0.665625 1.7718747,-1.509375 0,-0.496875 -0.271875,-0.834375 -0.39375,-0.975 -0.1406247,-0.121875 -0.1499997,-0.13125 -0.8343747,-0.5625 z m -1.2375,-0.75 c -0.225,-0.13125 -0.421875,-0.365625 -0.421875,-0.646875 0,-0.496875 0.553125,-0.815625 1.115625,-0.815625 0.628125,0 1.134375,0.421875 1.134375,0.975 0,0.46875 -0.35625,0.853125 -0.825,1.0875 z m 0.39375,1.096875 c 0.0375,0.00937 0.9375,0.571875 1.078125,0.65625 0.121875,0.075 0.5437497,0.328125 0.5437497,0.80625 0,0.61875 -0.6468747,0.99375 -1.3031247,0.99375 -0.7125,0 -1.3125,-0.4875 -1.3125,-1.134375 0,-0.6 0.440625,-1.06875 0.99375,-1.321875 z m 0,0" style="fill:#121619;fill-opacity:1;fill-rule:nonzero;stroke:none" />
    </g>
    <path id="path28" d="m 2.5025313,-5.0725625 c 0,-0.215625 -0.01875,-0.225 -0.234375,-0.225 -0.328125,0.31875 -0.75,0.50625 -1.50000005,0.50625 v 0.2625 c 0.215625,0 0.63750005,0 1.10625005,-0.215625 v 4.0875 c 0,0.3 -0.028125,0.39375 -0.7875,0.39375 H 0.81503125 v 0.2625 c 0.32812505,-0.028125 1.01250005,-0.028125 1.36875005,-0.028125 0.35625,0 1.05,0 1.378125,0.028125 v -0.2625 h -0.28125 c -0.759375,0 -0.778125,-0.09375 -0.778125,-0.39375 z m 0,0" style="fill:#121619;fill-opacity:1;fill-rule:nonzero;stroke:none" aria-label="1" transform="matrix(1.6666667,0,0,1.6666667,127.65333,65.993333)" />
    <path id="path29" d="M 0,0 0.19862,0.00114 0.39725,0.00464 0.59589,0.01044 0.79451,0.01846 0.99313,0.02867 1.19177,0.04099 1.3904,0.05527 1.58902,0.07137 1.78766,0.08916 1.98628,0.10844 2.1849,0.12907 2.38354,0.15079 2.58217,0.17346 2.78079,0.19682 2.97943,0.22057 3.17805,0.2446 3.3767,0.26863 3.57532,0.29239 3.77394,0.31564 3.97258,0.33826 4.1712,0.35988 4.36984,0.38028 4.56847,0.39935 4.7671,0.41681 4.96573,0.4327 5.16437,0.44652 5.36299,0.45839 5.56161,0.46803 5.76025,0.47548 5.95888,0.48048 6.1575,0.48322 6.35614,0.48352 6.55476,0.4812 6.7534,0.4766 6.95203,0.4696 7.15065,0.46033 7.34929,0.44885 7.54791,0.43513 7.74654,0.41948 7.94518,0.40207 8.1438,0.38298 8.34242,0.3624 8.54106,0.34068 8.7397,0.3178 8.93831,0.29419 9.13696,0.26996 9.33559,0.24544 9.53421,0.22089 9.73285,0.1965 9.93147,0.17256 10.13011,0.1493 10.32874,0.12701 10.52736,0.10588 10.726,0.08612 10.92462,0.068 11.12325,0.05167 11.32188,0.03732 11.52051,0.0251 11.71913,0.01521 11.91777,0.00769 12.1164,0.00269 12.31502,2.3e-4 12.51366,4e-4 l 0.19862,0.0028 0.19862,0.0054 0.19866,0.00802 0.19861,0.01054 0.19865,0.013 0.19862,0.01531 0.19863,0.01753 0.19863,0.01956 0.19863,0.02147 0.19862,0.02307 0.19865,0.02454 0.19862,0.02578 0.19862,0.02671 0.19864,0.02748 0.19862,0.02795 0.19863,0.02809 0.19864,0.028 0.19862,0.02761 0.19862,0.0271 0.19864,0.02604 0.19863,0.02495 0.19863,0.02355 0.19863,0.02188 0.19862,0.01999 0.19866,0.01795 0.1986,0.0156 0.19864,0.01323 0.19864,0.01066 0.19863,0.00794 0.19862,0.00528 0.19864,0.00221 0.19862,-3.7e-4 0.19863,-0.00341 0.19863,-0.0062 L 19.4657,0.5506 19.66432,0.5389 19.86296,0.52455 20.0616,0.5077 20.26022,0.48866 20.45886,0.46744 20.65746,0.44438 20.85611,0.41943 21.05475,0.3932 21.25336,0.3658 21.45201,0.33751 21.65062,0.30862 21.84926,0.27945 22.0479,0.2503 22.2465,0.22142 22.44514,0.19318 22.64377,0.16588 22.8424,0.13977 23.04105,0.11517 23.23965,0.09236 23.4383,0.07155 23.63692,0.05304 23.83556,0.03699 24.0342,0.02365 24.2328,0.01312 24.43144,0.00562 24.63005,0.00122 24.8287,0 l 0.19864,0.00204 0.19861,0.0053 0.19865,0.00856 0.19861,0.01175 0.19863,0.01489 0.19866,0.01793 0.1986,0.02081 0.19864,0.02352 0.19862,0.02598 0.19864,0.02835 0.19866,0.03038 0.19859,0.03215 0.19864,0.03364 0.19862,0.03472 0.19864,0.03563 0.19864,0.03612 0.19861,0.03629 0.19864,0.03617 0.19861,0.03541 0.19865,0.03477 0.19864,0.03342 0.19861,0.03192 0.19865,0.03 0.1986,0.02786 0.19863,0.02527 0.19866,0.0226 0.19861,0.01976 0.19865,0.01649 0.19861,0.01331 0.19864,0.00943 0.19864,0.00605 0.1986,0.00229 L 31.38348,0.74136 31.5821,0.73625 31.78075,0.72722 31.97939,0.71468 32.178,0.69864 32.37663,0.67928 32.57524,0.65671 32.7739,0.63103 32.97253,0.60245 33.17114,0.57153 33.3698,0.53862 33.56839,0.50366 33.76704,0.46744 33.96568,0.4299 34.16429,0.39168 34.36295,0.35318 34.56154,0.31491 34.76018,0.27704 34.95883,0.24011 35.15744,0.20442 35.35608,0.17058 35.5547,0.13881 35.75334,0.10945 35.95197,0.08298 36.15059,0.05972 36.34923,0.03992 36.54784,0.02386 36.74649,0.01175 36.94513,0.00381 37.14375,2e-4 l 0.19864,8.4e-4 0.1986,0.00537 0.19865,0.00992 0.19864,0.01443 0.19861,0.01898 0.19865,0.02335 0.19859,0.02754 0.19864,0.03167 0.19866,0.03547 0.19861,0.03903 0.19863,0.04213 0.19863,0.04511 0.19864,0.04756 0.19862,0.04964 0.19862,0.05113 0.19864,0.0524 0.19863,0.05323 0.19864,0.05333 0.19863,0.05304 0.19861,0.05222 0.19864,0.05093 0.19861,0.04915 0.19865,0.0466 0.19864,0.04405 0.19861,0.04087 0.19866,0.03727 0.19859,0.03318 0.19864,0.02905 0.19865,0.02392 0.19861,0.01922 0.19865,0.01393 0.19862,0.00869 0.19863,0.00325 0.19864,-0.00273 0.19861,-0.00784 0.19864,-0.01387 0.19862,-0.01904 0.19864,-0.02436 0.19864,-0.02951 0.19861,-0.03427 0.19864,-0.03904 0.19861,-0.04262 0.19865,-0.04698 0.19864,-0.04999 0.19861,-0.05272 0.19864,-0.05506 0.1986,-0.05679 0.19866,-0.05769 0.19864,-0.05826 0.19861,-0.05807 0.19865,-0.05718 0.19861,-0.05576 0.19862,-0.05362 0.19866,-0.05079 0.1986,-0.04746 0.19864,-0.04345 0.19863,-0.0389 0.19864,-0.03377 0.19864,-0.02821 0.1986,-0.02214 0.19864,-0.01568 0.19861,-0.00889 0.19865,-0.00181 0.19864,0.0055 0.19861,0.01298 0.19864,0.0205 0.19861,0.02807 0.19865,0.03553 0.19864,0.04292 0.19861,0.05006 0.19866,0.05691 0.19859,0.06334 0.19863,0.06949 0.19866,0.075 0.19861,0.08009 0.19864,0.08443 0.19862,0.08799 0.19864,0.09131 0.19863,0.09317 0.19862,0.09476 0.19864,0.09534 0.19862,0.0948 0.19864,0.0941 0.19864,0.09178 0.19861,0.08878 0.19863,0.08493 0.19861,0.08035 0.19866,0.07494 0.19864,0.06918 0.19861,0.06171 0.19865,0.05412 0.19859,0.04599 0.19864,0.03694 0.19866,0.02808 0.19861,0.01814 L 56.2122,2.01978 56.41083,2.018 56.60945,2.00594 56.8081,1.98369 57.00671,1.95142 57.20535,1.90881 57.40398,1.85681 57.60262,1.79597 57.80125,1.72566 57.99986,1.64781 58.1985,1.56264 58.39711,1.47086 58.59576,1.37358 58.7944,1.27164 58.99301,1.16623 59.19167,1.05821 59.39026,0.9491 59.5889,0.8401 59.78755,0.73221 59.98616,0.627 60.18481,0.52594 60.3834,0.42975 60.58205,0.34053 60.7807,0.25882 60.97931,0.18639 61.17795,0.12415 61.37657,0.07349 61.57521,0.03528 61.77383,0.01057 61.97246,2.4e-4 l 0.19864,0.00484 0.1986,0.02062 0.19866,0.03703 0.19864,0.05369 0.1986,0.07087 0.19865,0.08778 0.1986,0.10468 0.19866,0.12156 0.19864,0.13825 0.19861,0.15399 0.19865,0.16861 0.19859,0.18321 0.19864,0.19656 0.19866,0.2085 0.1986,0.21895 0.19864,0.22792 0.19863,0.23599 0.19863,0.24061 0.19863,0.24535 0.19862,0.24721 0.19864,0.24721 0.19861,0.24481 0.19865,0.24007 0.19865,0.23463 0.1986,0.22572 0.19864,0.21401 0.19861,0.20093 0.19865,0.18655 0.19864,0.16821 0.19861,0.15017 0.19865,0.1293 0.1986,0.10701 0.19864,0.0827 0.19865,0.05707 0.19861,0.03116 0.19864,0.00419 0.19862,-0.02336 0.19864,-0.05313 0.19862,-0.0806 0.19863,-0.1087 0.19864,-0.13574 0.19862,-0.16332 0.19864,-0.1898 L 70.71219,4.52187 70.9108,4.2859 71.10944,4.02937 71.30804,3.7542 71.5067,3.46419 71.70534,3.16174 71.90393,2.8506 72.10258,2.53378 72.3012,2.21608 72.49983,1.9014 72.69849,1.59369 72.8971,1.29893 73.09573,1.02097 73.29436,0.76541 73.49298,0.53738 73.69164,0.34236 73.89024,0.18608 74.08888,0.07372 74.2875,0.01128 74.48615,0.00415 74.68478,0.058 l 0.19861,0.1203 0.19864,0.19229 0.19861,0.26927 0.19866,0.35181 0.19863,0.43848 0.1986,0.5305 0.19865,0.62701 0.19861,0.72547 0.19864,0.8305 0.19865,0.93614 0.19861,1.04651 0.19865,1.15669 0.1986,1.27047 0.19864,1.3874 0.19865,1.49982 0.19861,1.61816 0.19864,1.73256 0.19862,1.84699 0.19864,1.95991 0.19862,2.07068 0.19863,2.17904 0.19864,2.2844 0.1986,2.3797 0.19866,2.4779 0.19864,2.5765 0.19861,2.64618 0.19864,2.73684 0.1986,2.8066 0.19866,2.8659 0.19864,2.92358 0.19861,2.9739 0.19865,3.01375 0.19859,3.04639 0.19864,3.06213 0.19866,3.06836 0.1986,3.08491 0.19864,3.05819 0.19861,3.04537 0.19864,3.02758 0.19864,2.96976 0.19862,2.92814 0.19864,2.85828 0.19863,2.79457 0.19863,2.71182 0.19863,2.61238 0.19862,2.51062 0.19864,2.40131 0.19861,2.28392 0.19865,2.14252 0.19864,2.03729 0.19861,1.84871 0.19865,1.70752 0.1986,1.55638 0.19864,1.38737 0.19865,1.21767 0.19861,1.04181 0.19864,0.85771 0.19861,0.67047 0.19864,0.48555 0.19865,0.30106 0.19861,0.12237 0.19864,-0.10201 0.19862,-0.2762 0.19864,-0.4609 0.19862,-0.65501 0.19863,-0.82691 0.19864,-1.01587 0.1986,-1.17916 0.19866,-1.3824 0.19864,-1.5302 0.19859,-1.69049 0.19865,-1.84316 0.19861,-1.99908 0.19864,-2.1444 0.19866,-2.25207 0.1986,-2.39819 0.19866,-2.49317 0.19859,-2.60179 0.19864,-2.70383 0.19865,-2.78204 0.19861,-2.85111 0.19864,-2.91299 0.19863,-2.97128 0.19863,-3.01731 0.19863,-3.04694 0.19862,-3.04865 0.19864,-3.08931 0.19861,-3.07369 0.19865,-3.06178 0.19864,-3.04752 0.1986,-3.01631 0.19865,-2.9812 0.19861,-2.92865 0.19865,-2.87805 0.19864,-2.81177 0.19861,-2.74486 0.19864,-2.66383 0.19861,-2.57988 0.19863,-2.49155 0.19866,-2.39145 0.19861,-2.29782 0.19863,-2.19203 0.19863,-2.08496 0.19862,-1.97406 0.19865,-1.8602 0.19862,-1.74728 0.19864,-1.63325 0.1986,-1.51584 0.19866,-1.40024 0.19864,-1.28569 0.19861,-1.16965 0.19863,-1.06107 0.19861,-0.95073 0.19866,-0.84304 0.19863,-0.73912 0.1986,-0.63848 0.19865,-0.5426 0.19861,-0.44992 0.19864,-0.36255 0.19866,-0.27957 0.1986,-0.20181 0.19864,-0.12912 0.19861,-0.06189 0.19864,-2.6e-4 0.19864,0.05577 0.19862,0.10631 0.19864,0.15109 0.19863,0.19041 0.19863,0.22403 0.19863,0.25258 0.19862,0.27525 0.19864,0.29302 0.19861,0.30615 0.19865,0.31415 0.19864,0.3175 0.1986,0.31736 0.19865,0.31198 0.19861,0.30375 0.19864,0.29193 0.19865,0.27723 0.19861,0.25883 0.19864,0.23885 0.1986,0.21654 0.19865,0.19288 0.19865,0.16709 0.19861,0.13874 0.19864,0.11255 0.19862,0.08402 0.19863,0.05586 0.19863,0.02801 0.19863,-9.3e-4 0.19864,-0.02761 0.1986,-0.05465 0.19866,-0.07851 0.19864,-0.10433 0.19859,-0.12685 0.19865,-0.14758 0.19861,-0.16664 0.19864,-0.18346 0.19866,-0.1999 0.1986,-0.21129 0.19866,-0.22588 0.19859,-0.23273 0.19864,-0.23925 0.19866,-0.24454 0.1986,-0.24719 0.19864,-0.24721 0.19861,-0.24532 0.19864,-0.24209 0.19864,-0.23625 0.19862,-0.22949 0.19864,-0.21987 0.19861,-0.2103 0.19865,-0.19748 0.19863,-0.18493 0.19861,-0.17112 0.19865,-0.15579 0.19861,-0.13995 0.19865,-0.1236 0.19864,-0.10701 0.19861,-0.09004 0.19864,-0.07287 L 111.034,0.06859 111.23264,0.0295 111.43129,0.00682 111.6299,0 l 0.19864,0.00845 0.19861,0.02292 0.19863,0.03655 0.19864,0.04924 0.19863,0.06076 0.19864,0.0713 0.19861,0.08046 0.19865,0.08846 0.19862,0.09527 0.19863,0.10073 0.19863,0.10484 0.19861,0.10732 0.19866,0.10897 0.19864,0.10943 0.19859,0.10786 0.19865,0.10589 0.19861,0.10233 0.19864,0.09801 0.19865,0.09241 0.19862,0.08627 0.19863,0.07895 0.19861,0.07099 0.19864,0.0622 0.19864,0.05318 0.19862,0.04387 0.19864,0.03367 0.19862,0.02345 0.19864,0.01326 0.19863,0.00292 0.19862,-0.00708 0.19864,-0.017 0.19861,-0.02644 0.19866,-0.03608 0.19863,-0.04487 0.19859,-0.05335 0.19866,-0.06054 0.19861,-0.06822 0.19864,-0.07418 0.19865,-0.07965 0.19859,-0.08449 0.19864,-0.08851 0.19863,-0.09145 0.19863,-0.09361 0.19866,-0.09491 0.19861,-0.09529 0.19864,-0.09488 0.19862,-0.09346 0.19862,-0.09157 0.19864,-0.08848 0.19863,-0.08481 0.19864,-0.08077 0.1986,-0.07561 0.19866,-0.07021 0.19864,-0.06417 0.19859,-0.05777 0.19865,-0.05093 0.19861,-0.0438 0.19864,-0.03654 0.19866,-0.02898 0.19859,-0.02147 0.19865,-0.01391 0.19861,-0.00644 0.19864,9e-4 0.19865,0.00799 0.19861,0.01487 0.19864,0.02131 0.19861,0.02745 0.19864,0.03313 0.19864,0.03827 0.19862,0.04292 0.19864,0.04695 0.19861,0.05046 0.19865,0.05324 0.19862,0.05553 0.19863,0.05719 0.19864,0.05786 0.19861,0.05818 0.19865,0.05794 0.19864,0.05687 0.19859,0.05522 0.19866,0.05306 0.19861,0.0504 0.19864,0.0473 0.19865,0.04341 0.19861,0.03941 0.19864,0.03507 0.19861,0.02977 0.19863,0.02528 0.19864,0.01973 0.19863,0.01448 0.19864,0.00881 0.1986,0.0032 0.19864,-0.00241 0.19864,-0.00798 0.19863,-0.01335 0.19863,-0.01871 0.19861,-0.0235 0.19866,-0.02824 0.19862,-0.03287 0.19861,-0.03644 0.19865,-0.04039 0.19861,-0.0435 0.19864,-0.0467 0.19865,-0.04882 0.19861,-0.05069 0.19864,-0.05206 0.19861,-0.05297 0.19864,-0.05339 0.19865,-0.05319 0.19861,-0.05246 0.19864,-0.05136 0.19861,-0.04991 0.19864,-0.04784 0.19864,-0.04539 0.19862,-0.04265 0.19864,-0.03937 0.19861,-0.03584 0.19865,-0.03221 0.19863,-0.02813 0.1986,-0.02383 0.19866,-0.01958 0.19861,-0.01501 0.19864,-0.01048 0.19865,-0.00596 0.19859,-0.0014 0.19866,0.00305 0.19861,0.0074 0.19863,0.01155 0.19866,0.01563 0.19861,0.01935 0.19863,0.02282 0.19861,0.02611 0.19864,0.02893 0.19864,0.03156 0.19863,0.0336 0.19863,0.03544 0.19861,0.03676 0.19866,0.03781 0.19862,0.03827 0.19861,0.03849 0.19865,0.03831 0.19861,0.03751 0.19866,0.0366 0.19863,0.03501 0.1986,0.03329 0.19865,0.03119 0.19861,0.02882 0.19864,0.026 0.19865,0.02308 0.19861,0.01982 0.19863,0.01646 0.19862,0.01306 0.19864,0.00934 0.19864,0.00569 0.19862,0.00186 0.19864,-0.00187 0.19861,-0.00563 0.19864,-0.00893 0.19864,-0.01279 0.19862,-0.01623 0.19864,-0.01914 0.1986,-0.02238 0.19866,-0.02501 0.19864,-0.02749 0.1986,-0.02975 0.19865,-0.03169 0.19861,-0.03325 0.19864,-0.03459 0.19865,-0.03537 0.19859,-0.03613 0.19864,-0.03627 0.19862,-0.0361 0.19864,-0.03582 0.19864,-0.03482 0.19862,-0.03376 0.19865,-0.03235 0.1986,-0.03063 0.19865,-0.02857 0.19863,-0.02634 0.19863,-0.02386 0.19864,-0.02116 0.1986,-0.01829 0.19866,-0.01529 0.19862,-0.01216 0.19861,-0.00896 0.19865,-0.00571 0.19861,-0.00245 0.19864,8.1e-4 0.19865,0.00399 0.1986,0.00714 0.19864,0.01014 0.19862,0.013 0.19864,0.0157 0.19866,0.01823 0.1986,0.02054 0.19864,0.02255 0.19861,0.02439 0.19864,0.02592 0.19864,0.02719 0.19862,0.02815 0.19864,0.0288 0.19861,0.02913 0.19864,0.02924 0.19864,0.02892 0.1986,0.02834 0.19866,0.02756 0.19861,0.02636 0.19864,0.02512 0.19865,0.02331 0.19859,0.0214 0.19866,0.01944 0.19861,0.01709 0.19863,0.01477 0.19866,0.0119 0.19861,0.00946 0.19864,0.00649 0.1986,0.00375 0.19864,8.4e-4 0.19864,-0.00191 0.19863,-0.00494 0.19863,-0.00757 0.1986,-0.01021 0.19865,-0.01297 0.19864,-0.01535 0.19861,-0.01764 0.19865,-0.0197 0.19861,-0.02173 0.19866,-0.02334 0.19862,-0.02469 0.19861,-0.02606 0.19865,-0.02689 0.19861,-0.02759 0.19864,-0.02792 0.19865,-0.02815 0.19861,-0.02796 0.19863,-0.02748 0.19862,-0.02688 0.19864,-0.02596 0.19864,-0.02469 0.19862,-0.02327 0.19864,-0.0217 0.19859,-0.01982 0.19866,-0.01776 0.19864,-0.01561 0.19862,-0.0133 0.19864,-0.01086 0.19861,-0.00832 0.19865,-0.00574 0.19862,-0.00313 0.19861,-5.1e-4 0.19866,0.00213 0.19861,0.0047 0.19863,0.0072 0.19866,0.00963 0.19859,0.01192 0.19864,0.01405 0.19862,0.01608 0.19864,0.01796 0.19864,0.01952 0.19863,0.02098 0.19863,0.02217 0.19861,0.02313 0.19864,0.02388 0.19864,0.02431 0.19862,0.02458 0.19864,0.02454 0.19861,0.02426 0.19866,0.02368 0.19862,0.02301 0.19861,0.02185 0.19865,0.0208 0.19861,0.01935 0.19864,0.01754 0.19865,0.01599 0.1986,0.01386 0.19865,0.01179 0.19861,0.00949 0.19864,0.00738 0.19865,0.00485 0.1986,0.00261 0.19863,9e-5 0.19863,-0.00244 0.19864,-0.00472 0.19864,-0.00717 0.19862,-0.0094 0.19864,-0.01156 0.19861,-0.01363 0.19864,-0.01556 0.19863,-0.01728 0.19861,-0.01886 0.19866,-0.02025 0.19861,-0.0215 0.19865,-0.02249 0.19864,-0.02314 0.19859,-0.02381 0.19866,-0.02394 0.1986,-0.02402 0.19864,-0.02389 0.19866,-0.02341 0.19859,-0.02273 0.19864,-0.02189 0.19862,-0.02074 0.19864,-0.01951 0.19864,-0.01797 0.19863,-0.01633 0.19863,-0.01449 0.19859,-0.01258 0.19866,-0.01047 0.19864,-0.00831 0.19862,-0.00609 0.19864,-0.00379 L 173.60237,0 l 0.19866,8.7e-4 0.19862,0.00319 0.19861,0.00544 0.19865,0.00765 0.19861,0.0098 0.19864,0.01179 0.19865,0.01372 0.19859,0.01541 0.19865,0.01701 0.19862,0.01848 0.19864,0.01961 0.19864,0.02068 0.19862,0.02145 0.19864,0.02211 0.19861,0.02242 0.19864,0.02253 0.19864,0.02245 0.19862,0.02212 0.19864,0.02158 0.19859,0.02083 0.19865,0.01988 0.19864,0.01854 0.19861,0.01732 0.19865,0.01576 0.19862,0.01408 0.19863,0.01224 0.19865,0.01018 0.1986,0.00821 0.19864,0.00601 0.19862,0.00383 0.19864,0.00168 0.19866,-7.3e-4 0.19861,-0.00274 0.19863,-0.00506 0.19861,-0.00732 0.19864,-0.00932 0.19864,-0.01128 0.19862,-0.01319 0.19864,-0.01495 0.1986,-0.01653 0.19865,-0.01791 0.19864,-0.01923 0.19861,-0.02026 0.19865,-0.02127 0.19861,-0.02176 0.19864,-0.02214 0.19864,-0.02251 0.19861,-0.02231 0.19865,-0.02208 0.19861,-0.02166 0.19864,-0.02092 0.19865,-0.01993 0.1986,-0.01891 0.19863,-0.0176 0.19863,-0.01626 0.19864,-0.01457 0.19864,-0.01265 0.19862,-0.01088 0.19864,-0.00885 0.19859,-0.00674 0.19866,-0.00459 0.19863,-0.00238 0.19861,-1.6e-4 0.19866,0.00212 0.1986,0.0043 0.19866,0.00648 0.19862,0.0086 0.19861,0.01062 0.19866,0.01252 0.1986,0.01434 0.19865,0.01596 0.19865,0.01742 0.19859,0.0187 0.19864,0.01985 0.19862,0.02091 0.19864,0.0215 0.19864,0.02204 0.19862,0.02239 0.19863,0.02238 0.19861,0.02229 0.19865,0.02185 0.19864,0.02128 0.19862,0.02026 0.19865,0.01939 0.1986,0.01808 0.19864,0.01665 0.19864,0.01544 0.19861,0.01337 0.19865,0.01148 0.19861,0.00955 0.19864,0.00749 0.19865,0.00542 0.1986,0.00323 0.19863,6.7e-4 0.19863,-0.00123 0.19864,-0.00359 0.19864,-0.00571 0.1986,-0.00798 0.19864,-0.01004 0.19863,-0.0119 0.19864,-0.01371 0.19864,-0.0157 0.19862,-0.01699 0.19864,-0.01853 0.19859,-0.01965 0.19866,-0.02073 0.19863,-0.02141 0.19861,-0.02216 0.19866,-0.02238 0.1986,-0.02257 0.19864,-0.02245 0.19864,-0.02209 0.19861,-0.02154 0.19864,-0.0208 0.19863,-0.01981 0.19863,-0.01862 0.19866,-0.01721 0.19859,-0.01564 0.19864,-0.01392 0.19862,-0.01205 0.19864,-0.01005 0.19864,-0.00794 0.19862,-0.00574 0.19864,-0.00348 L 198.43108,0" style="fill:none;stroke:#1192e8;stroke-width:0.79701;stroke-linecap:butt;stroke-linejoin:miter;stroke-miterlimit:10;stroke-dasharray:none;stroke-opacity:1" transform="matrix(1.6666667,0,0,-1.6666667,143.01333,250.69833)" />
    <path id="path30" d="M 0,0 0.19862,0.0011 0.39725,0.00446 0.59589,0.01 0.79451,0.01765 0.99313,0.02742 1.19177,0.03912 1.3904,0.05266 1.58902,0.06796 1.78766,0.08466 1.98628,0.1029 2.1849,0.12231 2.38354,0.14287 2.58217,0.16411 2.78079,0.18588 2.97943,0.20808 3.17805,0.23055 3.3767,0.25287 3.57532,0.2749 3.77394,0.2965 3.97258,0.31721 4.1712,0.33705 4.36984,0.35577 4.56847,0.37328 4.7671,0.38908 4.96573,0.40324 5.16437,0.41553 5.36299,0.42618 5.56161,0.43448 5.76025,0.44078 5.95888,0.44507 6.1575,0.44685 6.35614,0.44632 6.55476,0.44373 6.7534,0.439 6.95203,0.43196 7.15065,0.42296 7.34929,0.41174 7.54791,0.39874 7.74654,0.38405 7.94518,0.36754 8.1438,0.3497 8.34242,0.3304 8.54106,0.3102 8.7397,0.28897 8.93831,0.26712 9.13696,0.2448 9.33559,0.22227 9.53421,0.19981 9.73285,0.1775 9.93147,0.1557 10.13011,0.13455 10.32874,0.11429 10.52736,0.09512 10.726,0.07732 10.92462,0.06094 11.12325,0.04623 11.32188,0.03336 11.52051,0.02242 11.71913,0.01355 11.91777,0.00685 12.1164,0.00238 12.31502,2e-4 l 0.19864,1.5e-4 0.19862,0.00247 0.19862,0.00479 0.19866,0.00707 0.19861,0.00928 0.19865,0.01141 0.19862,0.01341 0.19863,0.01531 0.19863,0.01709 0.19863,0.01864 0.19862,0.02005 0.19865,0.0213 0.19862,0.02227 0.19862,0.02307 0.19864,0.02363 0.19862,0.02396 0.19863,0.02405 0.19864,0.02388 0.19862,0.0235 0.19862,0.02295 0.19864,0.02208 0.19863,0.02099 0.19863,0.01965 0.19863,0.01825 0.19862,0.01648 0.19866,0.01484 0.1986,0.01277 0.19864,0.01056 0.19864,0.00839 0.19863,0.00604 0.19862,0.00382 0.19864,0.00126 0.19862,-0.0011 0.19863,-0.00363 0.19863,-0.00586 0.19863,-0.00844 0.19862,-0.01048 0.19864,-0.0127 0.19864,-0.01484 0.19862,-0.0166 0.19864,-0.01842 0.1986,-0.01996 0.19865,-0.02127 0.19864,-0.0224 0.19861,-0.02336 0.19865,-0.02391 0.19861,-0.02443 0.19864,-0.0246 L 22.0479,0.20717 22.2465,0.18295 22.44514,0.15938 22.64377,0.13664 22.8424,0.11497 23.04105,0.09457 23.23965,0.07571 23.4383,0.05858 23.63692,0.04333 23.83556,0.03017 24.0342,0.01924 24.2328,0.01068 24.43144,0.00456 24.63005,9.8e-4 24.8287,0 l 0.19864,0.00165 0.19861,0.00427 0.19865,0.00687 0.19861,0.00946 0.19863,0.01191 0.19866,0.01434 0.1986,0.01655 0.19864,0.01869 0.19862,0.02063 0.19864,0.02242 0.19866,0.02398 0.19859,0.02524 0.19864,0.02634 0.19862,0.0272 0.19864,0.02771 0.19864,0.02809 0.19861,0.02807 0.19864,0.02784 0.19861,0.02727 0.19865,0.0266 0.19864,0.02545 0.19861,0.02429 0.19865,0.0226 0.1986,0.0208 0.19863,0.01886 0.19866,0.01667 0.19861,0.0143 0.19865,0.0118 0.19861,0.00912 0.19864,0.00638 0.19864,0.00362 0.1986,7.3e-4 0.19864,-0.00202 0.19862,-0.005 L 31.78075,0.55484 31.97939,0.54433 32.178,0.5311 32.37663,0.51532 32.57524,0.49724 32.7739,0.47691 32.97253,0.45459 33.17114,0.4305 33.3698,0.40486 33.56839,0.37793 33.76704,0.35 33.96568,0.32135 34.16429,0.29228 34.36295,0.26303 34.56154,0.23401 34.76018,0.20544 34.95883,0.17769 35.15744,0.15103 35.35608,0.12573 35.5547,0.10211 35.75334,0.08038 35.95197,0.06085 36.15059,0.04369 36.34923,0.02913 36.54784,0.01736 36.74649,0.00853 36.94513,0.00276 37.14375,1.4e-4 l 0.19864,6.1e-4 0.1986,0.00386 0.19865,0.00715 0.19864,0.01035 0.19861,0.01355 0.19865,0.0166 0.19859,0.01958 0.19864,0.02234 0.19866,0.02496 0.19861,0.02737 0.19863,0.02947 0.19863,0.0314 0.19864,0.03305 0.19862,0.03426 0.19862,0.03526 0.19864,0.036 0.19863,0.03628 0.19864,0.03615 0.19863,0.03586 0.19861,0.03509 0.19864,0.03403 0.19861,0.03249 0.19865,0.03095 0.19864,0.02894 0.19861,0.02643 0.19866,0.02383 0.19859,0.02106 0.19864,0.0179 0.19865,0.01458 0.19861,0.01117 0.19865,0.00765 0.19862,0.00387 0.19863,2e-4 0.19864,-0.00357 0.19861,-0.00709 0.19864,-0.01117 0.19862,-0.01447 0.19864,-0.018 0.19864,-0.02129 0.19861,-0.0242 0.19864,-0.02739 0.19861,-0.02968 0.19865,-0.03219 0.19864,-0.03408 0.19861,-0.03605 0.19864,-0.03685 0.1986,-0.0379 0.19866,-0.03838 0.19864,-0.03844 0.19861,-0.0381 0.19865,-0.03748 0.19861,-0.03622 0.19862,-0.03467 0.19866,-0.03279 0.1986,-0.03052 0.19864,-0.02772 0.19863,-0.02474 0.19864,-0.02131 0.19864,-0.01777 0.1986,-0.01383 0.19864,-0.00977 0.19861,-0.00552 0.19865,-0.00112 0.19864,0.00339 0.19861,0.00793 0.19864,0.01249 0.19861,0.01701 0.19865,0.02139 0.19864,0.02577 0.19861,0.02987 0.19866,0.03385 0.19859,0.03753 0.19863,0.04086 0.19866,0.04376 0.19861,0.04665 0.19864,0.04863 0.19862,0.05049 0.19864,0.05211 0.19863,0.05267 0.19862,0.05333 0.19864,0.05339 0.19862,0.05264 0.19864,0.05153 0.19864,0.05001 0.19861,0.04795 0.19863,0.04517 0.19861,0.04221 0.19866,0.03875 0.19864,0.0351 0.19861,0.03087 0.19865,0.02609 0.19859,0.02138 0.19864,0.01637 0.19866,0.01106 0.19861,0.0055 0.19863,6e-5 L 56.41083,1.10016 56.60945,1.08884 56.8081,1.07231 57.00671,1.05019 57.20535,1.02274 57.40398,0.99068 57.60262,0.95387 57.80125,0.91249 57.99986,0.86743 58.1985,0.81873 58.39711,0.76709 58.59576,0.71298 58.7944,0.65681 58.99301,0.59949 59.19167,0.54137 59.39026,0.48326 59.5889,0.42558 59.78755,0.3691 59.98616,0.3145 60.18481,0.26231 60.3834,0.21335 60.58205,0.16808 60.7807,0.1271 60.97931,0.09106 61.17795,0.06035 61.37657,0.0355 61.57521,0.01694 61.77383,0.00504 61.97246,1e-4 l 0.19864,0.0023 0.1986,0.00968 0.19866,0.0172 0.19864,0.02474 0.1986,0.03231 0.19865,0.03972 0.1986,0.04689 0.19866,0.05397 0.19864,0.06057 0.19861,0.06691 0.19865,0.07263 0.19859,0.07789 0.19864,0.08269 0.19866,0.08655 0.1986,0.08975 0.19864,0.09247 0.19863,0.09431 0.19863,0.09512 0.19863,0.09518 0.19862,0.09463 0.19864,0.09293 0.19861,0.0901 0.19865,0.08675 0.19865,0.08236 0.1986,0.07752 0.19864,0.07161 0.19861,0.06497 0.19865,0.05762 0.19864,0.04953 0.19861,0.04118 0.19865,0.03157 0.1986,0.02316 0.19864,0.01233 0.19865,0.00286 0.19861,-0.00751 0.19864,-0.01778 0.19862,-0.028 0.19864,-0.03822 0.19862,-0.04762 0.19863,-0.05747 0.19864,-0.06615 0.19862,-0.0745 0.19864,-0.08213 0.19864,-0.08908 0.19861,-0.09495 0.19864,-0.09987 0.1986,-0.10413 0.19866,-0.10724 0.19864,-0.1083 0.19859,-0.10949 0.19865,-0.10853 0.19862,-0.10649 0.19863,-0.103 0.19866,-0.09859 0.19861,-0.0924 0.19863,-0.08522 0.19863,-0.07647 0.19862,-0.06687 0.19866,-0.05588 0.1986,-0.04386 0.19864,-0.0307 0.19862,-0.01671 0.19865,-0.00189 0.19863,0.01369 0.19861,0.02976 0.19864,0.04627 0.19861,0.06336 0.19866,0.08037 0.19863,0.09733 0.1986,0.11417 0.19865,0.13103 0.19861,0.14701 0.19864,0.16245 0.19865,0.17688 0.19861,0.19099 0.19865,0.2033 0.1986,0.21452 0.19864,0.22427 0.19865,0.23249 0.19861,0.23886 0.19864,0.2436 0.19862,0.24756 0.19864,0.24655 0.19862,0.2461 0.19863,0.24248 0.19864,0.23722 0.1986,0.22974 0.19866,0.21945 0.19864,0.20732 0.19861,0.19271 0.19864,0.1764 0.1986,0.15856 0.19866,0.13931 0.19864,0.11607 0.19861,0.09319 0.19865,0.06897 0.19859,0.04282 0.19864,0.01623 0.19866,-0.01167 0.1986,-0.04007 L 82.03407,5.37137 82.23268,5.27605 82.43132,5.1519 82.62996,4.99998 82.82858,4.82175 83.02722,4.61768 83.22585,4.39204 83.42448,4.14354 83.62311,3.87657 83.82173,3.59276 84.02037,3.29523 84.21898,2.98749 84.41763,2.6724 84.61627,2.35495 84.81488,2.03828 85.01353,1.72736 85.21213,1.4262 85.41077,1.13998 85.60942,0.87401 85.80803,0.63354 86.00667,0.42331 86.20528,0.2494 86.40392,0.11705 86.60257,0.0321 86.80118,9e-5 l 0.19864,0.02649 0.19862,0.09055 0.19864,0.16012 0.19862,0.23499 0.19863,0.315 0.19864,0.3999 0.1986,0.49022 0.19866,0.58373 0.19864,0.68214 0.19859,0.78359 0.19865,0.88954 0.19861,0.99794 0.19864,1.10902 0.19866,1.22073 0.1986,1.33483 0.19866,1.45114 0.19859,1.56685 0.19864,1.68397 0.19865,1.79482 0.19861,1.90947 0.19864,2.02647 0.19863,2.12831 0.19863,2.24042 0.19863,2.3382 0.19862,2.43791 0.19864,2.52959 0.19861,2.61599 0.19865,2.70111 0.19864,2.77765 0.1986,2.83733 0.19865,2.89873 0.19861,2.96228 0.19865,2.98475 0.19864,3.03899 0.19861,3.05654 0.19864,3.06745 0.19861,3.07842 0.19863,3.0683 0.19866,3.06059 0.19861,3.03389 0.19863,2.99325 0.19863,2.94022 0.19862,2.90855 0.19865,2.80876 0.19862,2.74787 0.19864,2.67161 0.1986,2.54706 0.19866,2.45185 0.19864,2.33566 0.19861,2.21448 0.19863,2.0624 0.19861,1.93708 0.19866,1.78422 0.19863,1.6229 0.1986,1.45179 0.19865,1.29041 0.19861,1.14072 0.19864,0.91813 0.19866,0.75237 0.1986,0.57272 0.19864,0.38219 0.19861,0.1971 h 0.19864 l 0.19864,-0.1971 0.19862,-0.38219 0.19864,-0.56827 0.19863,-0.75456 0.19863,-0.92039 0.19863,-1.13628 0.19862,-1.29265 0.19864,-1.44963 0.19861,-1.62509 0.19865,-1.78211 0.19864,-1.93309 0.1986,-2.07067 0.19865,-2.21242 0.19861,-2.33571 0.19864,-2.44988 0.19865,-2.54713 0.19861,-2.67149 0.19864,-2.74811 0.1986,-2.80866 0.19865,-2.90223 0.19865,-2.94356 0.19861,-3.00012 0.19864,-3.03054 0.19862,-3.05914 0.19863,-3.06897 0.19863,-3.0755 0.19863,-3.07179 0.19864,-3.05713 0.1986,-3.03374 0.19866,-2.98918 0.19864,-2.96136 0.19859,-2.89882 0.19865,-2.83872 0.19861,-2.77659 0.19864,-2.7013 0.19866,-2.61844 0.1986,-2.52616 0.19866,-2.4388 0.19859,-2.33888 0.19864,-2.23957 0.19866,-2.1298 0.1986,-2.02506 0.19864,-1.90944 0.19861,-1.79599 0.19864,-1.68516 0.19864,-1.56575 0.19862,-1.45085 0.19864,-1.33544 0.19861,-1.22117 0.19865,-1.10903 0.19863,-0.9976 0.19861,-0.88983 0.19865,-0.78411 0.19861,-0.6824 0.19865,-0.58364 0.19864,-0.49011 0.19861,-0.39993 0.19864,-0.31557 0.19861,-0.23498 0.19864,-0.16028 0.19865,-0.09062 0.19861,-0.02657 0.19864,0.03194 0.19861,0.0849 0.19863,0.13218 0.19864,0.174 0.19863,0.20984 0.19864,0.24077 0.19861,0.26602 0.19865,0.28619 0.19862,0.30079 0.19863,0.31088 0.19863,0.31698 0.19861,0.31742 0.19866,0.31523 0.19864,0.30749 0.19859,0.29792 0.19865,0.2834 0.19861,0.26735 0.19864,0.24876 0.19865,0.22559 0.19862,0.20359 0.19863,0.17879 0.19861,0.15099 0.19864,0.12448 0.19864,0.09579 0.19862,0.06943 0.19864,0.03929 0.19862,0.0118 0.19864,-0.0159 0.19863,-0.04225 0.19862,-0.06913 0.19864,-0.09364 0.19861,-0.11606 0.19866,-0.1389 0.19863,-0.15855 0.19859,-0.17641 0.19866,-0.19311 0.19861,-0.20685 0.19864,-0.2198 0.19865,-0.22936 0.19859,-0.23698 0.19864,-0.24283 0.19863,-0.24585 0.19863,-0.24733 0.19866,-0.24729 0.19861,-0.24353 0.19864,-0.2386 0.19862,-0.2326 0.19862,-0.22455 0.19864,-0.21463 0.19863,-0.2031 0.19864,-0.19065 0.1986,-0.17719 0.19866,-0.16241 0.19864,-0.14728 0.19859,-0.13069 0.19865,-0.11434 0.19861,-0.09739 0.19864,-0.0804 0.19866,-0.06339 0.19859,-0.04637 0.19865,-0.02978 0.19861,-0.01369 0.19864,0.00186 0.19865,0.01666 0.19861,0.03073 0.19864,0.04377 0.19861,0.05589 0.19864,0.06688 0.19864,0.07644 0.19862,0.08518 0.19864,0.09253 0.19861,0.09836 0.19865,0.10318 0.19862,0.1065 0.19863,0.10835 0.19864,0.10944 0.19861,0.10852 0.19865,0.10709 0.19864,0.10428 0.19859,0.0998 0.19866,0.09494 0.19861,0.08895 0.19864,0.0825 0.19865,0.07416 0.19861,0.0663 0.19864,0.05736 0.19861,0.04793 0.19863,0.03796 0.19864,0.02797 0.19863,0.01817 0.19864,0.00728 0.1986,-0.00287 0.19864,-0.01239 0.19864,-0.02278 0.19863,-0.03159 0.19863,-0.04136 0.19861,-0.04944 0.19866,-0.05789 0.19862,-0.06464 0.19861,-0.0717 0.19865,-0.07751 0.19861,-0.08222 0.19864,-0.08704 0.19865,-0.08988 0.19861,-0.09317 0.19864,-0.09426 0.19861,-0.09531 0.19864,-0.0951 0.19865,-0.09433 0.19861,-0.09249 0.19864,-0.08984 0.19861,-0.08654 0.19864,-0.08257 0.19864,-0.07796 0.19862,-0.0726 0.19864,-0.06694 0.19861,-0.06066 0.19865,-0.0539 0.19863,-0.04697 0.1986,-0.03974 0.19866,-0.03228 0.19861,-0.02478 0.19864,-0.0172 0.19865,-0.00969 0.19859,-0.00231 0.19866,0.00492 0.19861,0.01188 0.19863,0.01856 0.19866,0.02483 0.19861,0.03067 0.19863,0.03608 0.19861,0.04099 0.19864,0.04526 0.19864,0.04895 0.19863,0.05209 0.19863,0.05473 0.19861,0.0564 0.19866,0.05768 0.19862,0.05815 0.19861,0.05818 0.19865,0.05724 0.19861,0.05613 0.19866,0.05426 0.19863,0.05152 0.1986,0.04866 0.19865,0.04518 0.19861,0.04128 0.19864,0.0368 0.19865,0.0323 0.19861,0.02722 0.19863,0.02224 0.19862,0.01657 0.19864,0.01138 0.19864,0.00569 0.19862,-3e-5 0.19864,-0.0056 0.19861,-0.01099 0.19864,-0.01647 0.19864,-0.02108 0.19862,-0.02635 0.19864,-0.03087 0.1986,-0.03483 0.19866,-0.03879 0.19864,-0.04231 0.1986,-0.04528 0.19865,-0.048 0.19861,-0.0499 0.19864,-0.05148 0.19865,-0.05272 0.19859,-0.0533 0.19864,-0.05316 0.19862,-0.05295 0.19864,-0.05191 0.19864,-0.05052 0.19862,-0.04878 0.19865,-0.0465 0.1986,-0.04391 0.19865,-0.04086 0.19863,-0.03754 0.19863,-0.03384 0.19864,-0.02982 0.1986,-0.02579 0.19866,-0.02142 0.19862,-0.01701 0.19861,-0.01246 0.19865,-0.00796 0.19861,-0.00339 0.19864,0.0011 0.19865,0.00552 0.1986,0.00979 0.19864,0.01383 0.19862,0.01775 0.19864,0.02133 0.19866,0.02465 0.1986,0.02777 0.19864,0.03056 0.19861,0.03268 0.19864,0.03478 0.19864,0.03609 0.19862,0.03749 0.19864,0.03816 0.19861,0.03834 0.19864,0.0384 0.19864,0.03804 0.1986,0.03688 0.19866,0.03587 0.19861,0.03424 0.19864,0.03201 0.19865,0.02979 0.19859,0.02717 0.19866,0.02448 0.19861,0.02133 0.19863,0.01796 0.19866,0.01454 0.19861,0.01116 0.19864,0.00707 0.1986,0.0035 0.19864,-1.4e-4 0.19864,-0.00398 0.19863,-0.00751 0.19863,-0.01117 0.1986,-0.01472 0.19865,-0.01788 0.19864,-0.021 0.19861,-0.02385 0.19865,-0.0264 0.19861,-0.02887 0.19866,-0.0309 0.19862,-0.03256 0.19861,-0.03406 0.19865,-0.03509 0.19861,-0.03586 0.19864,-0.0361 0.19865,-0.03636 0.19861,-0.03594 0.19863,-0.03524 0.19862,-0.03429 0.19864,-0.03302 0.19864,-0.03143 0.19862,-0.02948 0.19864,-0.02739 0.19859,-0.02495 0.19866,-0.02234 0.19864,-0.01957 0.19862,-0.01661 0.19864,-0.01356 0.19861,-0.01037 0.19865,-0.00714 0.19862,-0.00387 0.19861,-6.1e-4 0.19866,0.00261 0.19861,0.00576 0.19863,0.00884 0.19866,0.01176 0.19859,0.01456 0.19864,0.01715 0.19862,0.01955 0.19864,0.0217 0.19864,0.02365 0.19863,0.02527 0.19863,0.02667 0.19861,0.02777 0.19864,0.02852 0.19864,0.02904 0.19862,0.02925 0.19864,0.029 0.19861,0.02874 0.19866,0.0279 0.19862,0.02692 0.19861,0.02567 0.19865,0.02415 0.19861,0.02231 0.19864,0.02025 0.19865,0.01812 0.1986,0.0158 0.19865,0.01327 0.19861,0.01053 0.19864,0.00778 0.19865,0.00501 0.1986,0.002 0.19863,-6.6e-4 0.19863,-0.00359 0.19864,-0.00637 0.19864,-0.0092 0.19862,-0.01181 0.19864,-0.0143 0.19861,-0.01662 0.19864,-0.01886 0.19863,-0.02086 0.19861,-0.02261 0.19866,-0.02421 0.19861,-0.02541 0.19865,-0.02655 0.19864,-0.02738 0.19859,-0.02783 0.19866,-0.02803 0.1986,-0.0281 0.19864,-0.02773 0.19866,-0.02719 0.19859,-0.02635 0.19864,-0.02521 0.19862,-0.02403 0.19864,-0.02236 0.19864,-0.02066 0.19863,-0.01867 0.19863,-0.01658 0.19859,-0.01434 0.19866,-0.01192 0.19864,-0.00946 0.19862,-0.00688 0.19864,-0.00427 L 173.60237,0 l 0.19866,9.8e-4 0.19862,0.00357 0.19861,0.00612 0.19865,0.00857 0.19861,0.01093 0.19864,0.01315 0.19865,0.01524 0.19859,0.01711 0.19865,0.01887 0.19862,0.02037 0.19864,0.02173 0.19864,0.02272 0.19862,0.02358 0.19864,0.02415 0.19861,0.02446 0.19864,0.02457 0.19864,0.02448 0.19862,0.02397 0.19864,0.02327 0.19859,0.02241 0.19865,0.02132 0.19864,0.01993 0.19861,0.01841 0.19865,0.01668 0.19862,0.01481 0.19863,0.01266 0.19865,0.01059 0.1986,0.0084 0.19864,0.00582 0.19862,0.00363 0.19864,0.00108 0.19866,-0.00128 0.19861,-0.00377 0.19863,-0.00597 0.19861,-0.00848 0.19864,-0.01058 0.19864,-0.01277 0.19862,-0.01475 0.19864,-0.01651 0.1986,-0.01827 0.19865,-0.01965 0.19864,-0.02096 0.19861,-0.02211 0.19865,-0.02288 0.19861,-0.02351 0.19864,-0.02391 0.19864,-0.02408 0.19861,-0.02391 0.19865,-0.02367 0.19861,-0.02307 0.19864,-0.02228 0.19865,-0.02128 0.1986,-0.02004 0.19863,-0.01866 0.19863,-0.01706 0.19864,-0.01533 0.19864,-0.01343 0.19862,-0.0114 0.19864,-0.00927 0.19859,-0.00707 0.19866,-0.00479 0.19863,-0.00249 0.19861,-1.5e-4 0.19866,0.00218 0.1986,0.00447 0.19866,0.00668 0.19862,0.00889 0.19861,0.01092 0.19866,0.01289 0.1986,0.0147 0.19865,0.01636 0.19865,0.01781 0.19859,0.01916 0.19864,0.02024 0.19862,0.02114 0.19864,0.02183 0.19864,0.0223 0.19862,0.02252 0.19863,0.02257 0.19861,0.02231 0.19865,0.0218 0.19864,0.02116 0.19862,0.02025 0.19865,0.0192 0.1986,0.01787 0.19864,0.01655 0.19864,0.01474 0.19861,0.01311 0.19865,0.01105 0.19861,0.00902 0.19864,0.00711 0.19865,0.00487 0.1986,0.00259 0.19863,3.2e-4 0.19863,-0.00196 0.19864,-0.00412 0.19864,-0.00608 0.1986,-0.00843 0.19864,-0.01052 0.19863,-0.0125 0.19864,-0.01413 0.19864,-0.01602 0.19862,-0.01731 0.19864,-0.01872 0.19859,-0.01974 0.19866,-0.02078 0.19863,-0.02161 0.19861,-0.02204 0.19866,-0.02212 0.1986,-0.02249 0.19864,-0.02228 0.19864,-0.02186 0.19861,-0.02123 0.19864,-0.0204 0.19863,-0.01952 0.19863,-0.01817 0.19866,-0.01682 0.19859,-0.0153 0.19864,-0.01355 0.19862,-0.01169 0.19864,-0.00977 L 197.83522,0.01 198.03384,0.00446 198.23248,0.0011 198.43108,0" style="fill:none;stroke:#6929c4;stroke-width:0.79701;stroke-linecap:butt;stroke-linejoin:miter;stroke-miterlimit:10;stroke-dasharray:none;stroke-opacity:1" transform="matrix(1.6666667,0,0,-1.6666667,143.01333,250.69833)" />
    <path id="path31" d="M 0,0 0.19862,0.00114 0.39725,0.00461 0.59589,0.01035 0.79451,0.01828 0.99313,0.02834 1.19177,0.04039 1.3904,0.0543 1.58902,0.06995 1.78766,0.08716 1.98628,0.10577 2.1849,0.12556 2.38354,0.14636 2.58217,0.1679 2.78079,0.19002 2.97943,0.21243 3.17805,0.23503 3.3767,0.25739 3.57532,0.27957 3.77394,0.30104 3.97258,0.32167 4.1712,0.34142 4.36984,0.35985 4.56847,0.377 4.7671,0.39253 4.96573,0.40627 5.16437,0.41815 5.36299,0.42828 5.56161,0.43622 5.76025,0.44212 5.95888,0.44547 6.1575,0.44688 6.35614,0.44604 6.55476,0.44283 6.7534,0.4376 6.95203,0.43013 7.15065,0.42055 7.34929,0.40889 7.54791,0.39531 7.74654,0.38019 7.94518,0.36363 8.1438,0.34535 8.34242,0.32607 8.54106,0.30573 8.7397,0.28442 8.93831,0.2626 9.13696,0.2403 9.33559,0.21791 9.53421,0.19553 9.73285,0.1735 9.93147,0.15198 10.13011,0.13109 10.32874,0.11122 10.52736,0.09248 10.726,0.075 10.92462,0.05905 11.12325,0.04482 11.32188,0.0323 11.52051,0.02168 11.71913,0.01308 11.91777,0.0066 12.1164,0.0023 12.31502,1.8e-4 l 0.19864,1.4e-4 0.19862,0.0024 0.19862,0.00459 0.19866,0.00674 0.19861,0.00885 0.19865,0.01088 0.19862,0.01274 0.19863,0.01453 0.19863,0.01621 0.19863,0.01748 0.19862,0.01897 0.19865,0.01999 0.19862,0.02093 0.19862,0.02165 0.19864,0.02208 0.19862,0.02233 0.19863,0.02251 0.19864,0.02214 0.19862,0.02174 0.19862,0.02128 0.19864,0.02005 0.19863,0.01915 0.19863,0.01822 0.19863,0.0165 0.19862,0.01502 0.19866,0.01316 0.1986,0.01126 0.19864,0.00936 0.19864,0.0072 0.19863,0.00492 0.19862,0.00318 0.19864,5.5e-4 L 18.86981,0.44527 19.06844,0.44135 19.26707,0.43523 19.4657,0.42722 19.66432,0.417 19.86296,0.40466 20.0616,0.3907 20.26022,0.37497 20.45886,0.35762 20.65746,0.339 20.85611,0.31909 21.05475,0.29832 21.25336,0.2768 21.45201,0.25465 21.65062,0.2322 21.84926,0.20961 22.0479,0.1873 22.2465,0.16516 22.44514,0.14368 22.64377,0.123 22.8424,0.10336 23.04105,0.08492 23.23965,0.06792 23.4383,0.05246 23.63692,0.03876 23.83556,0.02696 24.0342,0.01717 24.2328,0.0095 24.43144,0.00406 24.63005,8.7e-4 24.8287,0 l 0.19864,0.00145 0.19861,0.00378 0.19865,0.00609 0.19861,0.0083 0.19863,0.0105 0.19866,0.01254 0.1986,0.0145 0.19864,0.01633 0.19862,0.01796 0.19864,0.01947 0.19866,0.02079 0.19859,0.0219 0.19864,0.02274 0.19862,0.02339 0.19864,0.02389 0.19864,0.02397 0.19861,0.02399 0.19864,0.02374 0.19861,0.02317 0.19865,0.02253 0.19864,0.02144 0.19861,0.0203 0.19865,0.01886 0.1986,0.01733 0.19863,0.01555 0.19866,0.01364 0.19861,0.01155 0.19865,0.0094 0.19861,0.00717 0.19864,0.0047 0.19864,0.00237 0.1986,-4e-5 L 31.38348,0.48074 31.5821,0.47586 31.78075,0.46858 31.97939,0.45906 32.178,0.44724 32.37663,0.43332 32.57524,0.41743 32.7739,0.39986 32.97253,0.38045 33.17114,0.35979 33.3698,0.33781 33.56839,0.31483 33.76704,0.29115 33.96568,0.26695 34.16429,0.24239 34.36295,0.21779 34.56154,0.19348 34.76018,0.16963 34.95883,0.14648 35.15744,0.12431 35.35608,0.1033 35.5547,0.08377 35.75334,0.06584 35.95197,0.04977 36.15059,0.03569 36.34923,0.02376 36.54784,0.01413 36.74649,0.00693 36.94513,0.00224 37.14375,1e-4 l 0.19864,5e-4 0.1986,0.00314 0.19865,0.00572 0.19864,0.00833 0.19861,0.01085 0.19865,0.01329 0.19859,0.0156 0.19864,0.01779 0.19866,0.0198 0.19861,0.02167 0.19863,0.0233 0.19863,0.02472 0.19864,0.02591 0.19862,0.02682 0.19862,0.02752 0.19864,0.028 0.19863,0.02815 0.19864,0.02789 0.19863,0.02756 0.19861,0.02702 0.19864,0.02596 0.19861,0.02473 0.19865,0.02338 0.19864,0.02164 0.19861,0.01969 0.19866,0.01767 0.19859,0.0154 0.19864,0.01291 0.19865,0.01028 0.19861,0.0076 0.19865,0.00489 0.19862,0.00198 0.19863,-8.7e-4 L 43.89717,0.56522 44.09578,0.55873 44.29442,0.54929 44.49304,0.53726 44.69168,0.5225 44.89032,0.50551 45.08893,0.48605 45.28757,0.46461 45.48618,0.44136 45.68483,0.41624 45.88347,0.38983 46.08208,0.36235 46.28072,0.33398 46.47932,0.305 46.67798,0.2758 46.87662,0.24667 47.07523,0.21786 47.27388,0.18973 47.47249,0.16254 47.67111,0.13663 47.86977,0.11221 48.06837,0.08966 48.26701,0.06912 48.46564,0.0509 48.66428,0.03519 48.86292,0.02217 49.06152,0.01204 49.26016,0.0049 49.45877,8.9e-4 49.65742,8e-5 l 0.19864,0.00245 0.19861,0.00569 0.19864,0.00896 0.19861,0.01216 0.19865,0.01529 0.19864,0.01828 0.19861,0.02115 0.19866,0.02387 0.19859,0.0263 0.19863,0.0286 0.19866,0.03061 0.19861,0.03234 0.19864,0.03377 0.19862,0.03485 0.19864,0.03575 0.19863,0.03609 0.19862,0.03632 0.19864,0.03611 0.19862,0.03543 0.19864,0.03457 0.19864,0.03323 0.19861,0.03172 0.19863,0.02973 0.19861,0.02745 0.19866,0.02507 0.19864,0.02237 0.19861,0.01913 0.19865,0.01621 0.19859,0.01282 0.19864,0.00907 0.19866,0.00562 0.19861,0.00186 L 56.2122,0.74097 56.41083,0.7352 56.60945,0.72594 56.8081,0.71294 57.00671,0.6966 57.20535,0.67656 57.40398,0.65346 57.60262,0.62764 57.80125,0.59872 57.99986,0.56767 58.1985,0.53441 58.39711,0.49924 58.59576,0.46281 58.7944,0.42519 58.99301,0.38705 59.19167,0.34846 59.39026,0.31006 59.5889,0.2724 59.78755,0.23561 59.98616,0.20018 60.18481,0.16644 60.3834,0.1349 60.58205,0.10602 60.7807,0.07996 60.97931,0.05707 61.17795,0.03769 61.37657,0.0221 61.57521,0.01051 61.77383,0.00311 61.97246,6e-5 l 0.19864,0.0014 0.1986,0.00596 0.19866,0.01046 0.19864,0.01503 0.1986,0.01952 0.19865,0.0238 0.1986,0.02822 0.19866,0.03204 0.19864,0.03587 0.19861,0.03952 0.19865,0.04252 0.19859,0.04551 0.19864,0.04782 0.19866,0.04985 0.1986,0.05127 0.19864,0.0526 0.19863,0.05327 0.19863,0.05313 0.19863,0.05307 0.19862,0.05208 0.19864,0.0508 0.19861,0.04864 0.19865,0.04651 0.19865,0.04382 0.1986,0.04047 0.19864,0.03646 0.19861,0.03286 0.19865,0.02826 0.19864,0.0234 0.19861,0.01865 0.19865,0.0134 0.1986,0.00769 0.19864,0.00239 0.19865,-0.003 L 68.9245,1.09451 69.12314,1.08012 69.32176,1.06058 69.5204,1.03532 69.71902,1.00543 69.91765,0.97038 70.11629,0.93108 70.31491,0.88771 70.51355,0.84032 70.71219,0.79004 70.9108,0.73697 71.10944,0.68164 71.30804,0.62468 71.5067,0.56683 71.70534,0.50865 71.90393,0.45074 72.10258,0.3936 72.3012,0.33813 72.49983,0.28487 72.69849,0.23434 72.8971,0.18744 73.09573,0.14449 73.29436,0.1062 73.49298,0.07307 73.69164,0.04561 73.89024,0.02428 74.08888,0.0094 74.2875,0.00139 l 0.19865,-9e-4 0.19863,0.00644 0.19861,0.01388 0.19864,0.02146 0.19861,0.02899 0.19866,0.03648 0.19863,0.04376 0.1986,0.051 0.19865,0.05771 0.19861,0.06418 0.19864,0.07019 0.19865,0.07563 0.19861,0.08071 0.19865,0.08485 0.1986,0.08856 0.19864,0.0915 0.19865,0.09338 0.19861,0.09488 0.19864,0.09523 0.19862,0.09508 0.19864,0.0936 0.19862,0.09149 0.19863,0.08821 0.19864,0.08462 0.1986,0.07978 0.19866,0.07417 0.19864,0.06831 0.19861,0.06034 0.19864,0.05358 0.1986,0.0448 0.19866,0.03606 0.19864,0.02657 0.19861,0.01713 0.19865,0.00719 0.19859,-0.00345 0.19864,-0.01323 0.19866,-0.02333 0.1986,-0.03336 0.19864,-0.04403 0.19861,-0.05324 0.19864,-0.06206 0.19864,-0.07123 0.19862,-0.07898 0.19864,-0.0859 0.19863,-0.09243 0.19863,-0.09793 0.19863,-0.10243 0.19862,-0.1057 L 84.02037,1.0448 84.21898,0.93547 84.41763,0.82643 84.61627,0.71906 84.81488,0.61432 85.01353,0.51357 85.21213,0.4183 85.41077,0.32977 85.60942,0.24936 85.80803,0.17802 86.00667,0.1172 86.20528,0.06798 86.40392,0.03139 86.60257,0.00848 86.80118,2e-5 l 0.19864,0.00677 0.19862,0.02266 0.19864,0.03911 0.19862,0.05586 0.19863,0.07275 0.19864,0.09002 0.1986,0.10691 0.19866,0.12354 0.19864,0.14024 0.19859,0.15562 0.19865,0.17106 0.19861,0.18472 0.19864,0.19788 0.19866,0.21019 0.1986,0.21989 0.19866,0.22919 0.19859,0.23648 0.19864,0.24193 0.19865,0.24522 0.19861,0.24761 0.19864,0.24676 0.19863,0.24437 0.19863,0.23924 0.19863,0.23329 0.19862,0.22519 0.19864,0.21192 0.19861,0.19928 0.19865,0.18426 0.19864,0.16718 0.1986,0.14667 0.19865,0.12689 0.19861,0.10417 0.19865,0.0791 0.19864,0.05463 0.19861,0.02755 0.19864,7.1e-4 L 94.15047,5.4614 94.3491,5.40495 94.54776,5.32144 94.74637,5.20898 94.945,5.0699 95.14363,4.90334 95.34225,4.71059 95.5409,4.49382 l 0.19862,-0.2393 0.19864,-0.2589 0.1986,-0.27653 0.19866,-0.29187 0.19864,-0.30404 0.19861,-0.31187 0.19863,-0.3172 0.19861,-0.31755 0.19866,-0.31429 0.19863,-0.30603 0.1986,-0.293 0.19865,-0.27551 0.19861,-0.2523 0.19864,-0.22418 0.19866,-0.19051 0.1986,-0.15131 0.19864,-0.10635 0.19861,-0.05583 0.19864,2e-4 0.19864,0.06181 0.19862,0.12903 0.19864,0.20155 0.19863,0.27942 0.19863,0.36212 0.19863,0.45033 0.19862,0.54199 0.19864,0.63889 0.19861,0.73862 0.19865,0.84305 0.19864,0.94977 0.1986,1.06118 0.19865,1.17029 0.19861,1.28441 0.19864,1.40039 0.19865,1.51622 0.19861,1.6328 0.19864,1.74629 0.1986,1.86176 0.19865,1.97346 0.19865,2.08653 0.19861,2.18724 0.19864,2.30005 0.19862,2.39289 0.19863,2.4888 0.19863,2.58029 0.19863,2.66371 0.19864,2.74579 0.1986,2.81195 0.19866,2.87697 0.19864,2.92944 0.19859,2.9769 0.19865,3.01661 0.19861,3.05246 0.19864,3.06074 0.19866,3.07357 0.1986,3.08463 0.19866,3.0575 0.19859,3.04226 0.19864,3.01367 0.19866,2.97264 0.1986,2.91629 0.19864,2.85811 0.19861,2.77692 0.19864,2.70172 0.19864,2.5999 0.19862,2.49493 0.19864,2.40018 0.19861,2.2541 0.19865,2.13601 0.19863,2.00535 0.19861,1.83878 0.19865,1.69484 0.19861,1.52797 0.19865,1.37797 0.19864,1.18797 0.19861,1.01587 0.19864,0.83138 0.19861,0.65054 0.19864,0.4609 0.19865,0.2762 0.19861,0.10201 0.19864,-0.12237 0.19861,-0.30106 0.19863,-0.48555 0.19864,-0.67047 0.19863,-0.85324 0.19864,-1.04628 0.19861,-1.21767 0.19865,-1.38304 0.19862,-1.56071 0.19863,-1.7032 0.19863,-1.85303 0.19861,-2.03109 0.19866,-2.14872 0.19864,-2.27802 0.19859,-2.40487 0.19865,-2.50913 0.19861,-2.61427 0.19864,-2.70647 0.19865,-2.79802 0.19862,-2.86169 0.19863,-2.92991 0.19861,-2.9636 0.19864,-3.02615 0.19864,-3.04547 0.19862,-3.05817 0.19864,-3.08446 0.19862,-3.07165 0.19864,-3.06223 0.19863,-3.04538 0.19862,-3.01497 0.19864,-2.97198 0.19861,-2.92282 0.19866,-2.86795 0.19863,-2.80524 0.19859,-2.73709 0.19866,-2.64922 0.19861,-2.57518 0.19864,-2.47615 0.19865,-2.37996 0.19859,-2.28537 0.19864,-2.18051 0.19863,-2.06964 0.19863,-1.95908 0.19866,-1.84829 0.19861,-1.73282 0.19864,-1.61748 0.19862,-1.50041 0.19862,-1.38832 0.19864,-1.27024 0.19863,-1.15594 0.19864,-1.04747 0.1986,-0.93646 0.19866,-0.8305 0.19864,-0.7261 0.19859,-0.62658 0.19865,-0.53054 0.19861,-0.43878 0.19864,-0.35214 0.19866,-0.26936 0.19859,-0.19236 0.19865,-0.12044 0.19861,-0.0539 0.19864,0.00703 0.19865,0.06233 0.19861,0.11223 0.19864,0.15636 0.19861,0.19481 0.19864,0.22799 0.19864,0.25556 0.19862,0.27786 0.19864,0.29498 0.19861,0.30753 0.19865,0.31444 0.19862,0.31764 0.19863,0.3174 0.19864,0.31099 0.19861,0.3022 0.19865,0.29054 0.19864,0.2751 0.19859,0.2562 0.19866,0.23599 0.19861,0.21394 0.19864,0.18953 0.19865,0.16336 0.19861,0.13631 0.19864,0.10885 0.19861,0.0799 0.19863,0.05287 0.19864,0.02449 0.19863,-0.00404 0.19864,-0.03102 0.1986,-0.05774 0.19864,-0.08307 0.19864,-0.10617 0.19863,-0.12944 0.19863,-0.14978 0.19861,-0.16857 0.19866,-0.18704 0.19862,-0.20074 0.19861,-0.2134 0.19865,-0.22674 0.19861,-0.23311 0.19864,-0.24094 0.19865,-0.24432 0.19861,-0.24762 0.19864,-0.24718 0.19861,-0.24542 0.19864,-0.24068 0.19865,-0.23599 0.19861,-0.2282 0.19864,-0.21872 0.19861,-0.20869 0.19864,-0.19614 0.19864,-0.18325 0.19862,-0.16913 0.19864,-0.15372 0.19861,-0.13814 0.19865,-0.12163 0.19863,-0.10493 0.1986,-0.08774 0.19866,-0.07077 0.19861,-0.05376 0.19864,-0.03703 0.19865,-0.02067 0.19859,-0.00486 0.19866,0.01032 0.19861,0.02464 0.19863,0.0382 0.19866,0.05067 0.19861,0.06227 0.19863,0.07231 0.19861,0.08167 0.19864,0.08937 0.19864,0.09601 0.19863,0.10115 0.19863,0.10528 0.19861,0.10779 0.19866,0.10895 0.19862,0.10907 0.19861,0.10796 0.19865,0.10569 0.19861,0.10195 0.19866,0.09715 0.19863,0.09176 0.1986,0.08513 0.19865,0.07804 0.19861,0.07018 0.19864,0.06083 0.19865,0.05224 0.19861,0.04252 0.19863,0.03241 0.19862,0.02217 0.19864,0.01196 0.19864,0.00181 0.19862,-0.00828 0.19864,-0.01814 0.19861,-0.02811 0.19864,-0.03687 0.19864,-0.04599 0.19862,-0.05436 0.19864,-0.06159 0.1986,-0.06884 0.19866,-0.07488 0.19864,-0.0806 0.1986,-0.08482 0.19865,-0.08894 0.19861,-0.09183 0.19864,-0.09374 0.19865,-0.09506 0.19859,-0.09533 0.19864,-0.09478 0.19862,-0.09309 0.19864,-0.09132 0.19864,-0.08805 0.19862,-0.08441 0.19865,-0.08003 0.1986,-0.07508 0.19865,-0.06945 0.19863,-0.06336 0.19863,-0.05693 0.19864,-0.05009 0.1986,-0.04291 0.19866,-0.03558 0.19862,-0.02806 0.19861,-0.02052 0.19865,-0.01298 0.19861,-0.00551 0.19864,0.00179 0.19865,0.00888 0.1986,0.01567 0.19864,0.02214 0.19862,0.02817 0.19864,0.03377 0.19866,0.03894 0.1986,0.04343 0.19864,0.04739 0.19861,0.05085 0.19864,0.05356 0.19864,0.05582 0.19862,0.05719 0.19864,0.05803 0.19861,0.05816 0.19864,0.05782 0.19864,0.05673 0.1986,0.055 0.19866,0.05281 0.19861,0.04989 0.19864,0.04706 0.19865,0.04277 0.19859,0.03883 0.19866,0.03431 0.19861,0.02938 0.19863,0.02453 0.19866,0.01904 0.19861,0.01381 0.19864,0.00796 0.1986,0.00258 0.19864,-0.00312 0.19864,-0.00855 0.19863,-0.01415 0.19863,-0.01915 0.1986,-0.02395 0.19865,-0.02901 0.19864,-0.03313 0.19861,-0.03721 0.19865,-0.04073 0.19861,-0.04407 0.19866,-0.04676 0.19862,-0.04921 0.19861,-0.05101 0.19865,-0.05213 0.19861,-0.05302 0.19864,-0.05322 0.19865,-0.05315 0.19861,-0.05263 0.19863,-0.05108 0.19862,-0.04957 0.19864,-0.04756 0.19864,-0.04504 0.19862,-0.04213 0.19864,-0.03909 0.19859,-0.0355 0.19866,-0.03163 0.19864,-0.0276 0.19862,-0.0233 0.19864,-0.01895 0.19861,-0.01453 0.19865,-0.0099 0.19862,-0.0054 0.19861,-8.4e-4 0.19866,0.0036 0.19861,0.00793 0.19863,0.01206 0.19866,0.01611 0.19859,0.01982 0.19864,0.02321 0.19862,0.02643 0.19864,0.02934 0.19864,0.03183 0.19863,0.03392 0.19863,0.03554 0.19861,0.03693 0.19864,0.03787 0.19864,0.03839 0.19862,0.03852 0.19864,0.03812 0.19861,0.03738 0.19866,0.0365 0.19862,0.03484 0.19861,0.03301 0.19865,0.03091 0.19861,0.02852 0.19864,0.02558 0.19865,0.02259 0.1986,0.01958 0.19865,0.01599 0.19861,0.0125 0.19864,0.00891 0.19865,0.0052 0.1986,0.00156 0.19863,-0.0023 0.19863,-0.00611 0.19864,-0.00938 0.19864,-0.01343 0.19862,-0.01657 0.19864,-0.0196 0.19861,-0.02259 0.19864,-0.02541 0.19863,-0.02766 0.19861,-0.03003 0.19866,-0.03186 0.19861,-0.03348 0.19865,-0.03477 0.19864,-0.0354 0.19859,-0.03623 0.19866,-0.03627 0.1986,-0.03607 0.19864,-0.03563 0.19866,-0.03479 0.19859,-0.03358 0.19864,-0.03215 0.19862,-0.03038 0.19864,-0.02837 0.19864,-0.026 0.19863,-0.0235 0.19863,-0.02083 0.19859,-0.01793 0.19866,-0.01489 0.19864,-0.01177 0.19862,-0.00856 0.19864,-0.00531 L 173.60237,0 l 0.19866,0.0012 0.19862,0.00442 0.19861,0.00748 0.19865,0.01052 0.19861,0.01335 0.19864,0.01604 0.19865,0.01851 0.19859,0.02078 0.19865,0.02283 0.19862,0.02461 0.19864,0.02609 0.19864,0.02732 0.19862,0.02822 0.19864,0.0289 0.19861,0.02916 0.19864,0.02913 0.19864,0.02894 0.19862,0.0283 0.19864,0.02734 0.19859,0.02628 0.19865,0.02488 0.19864,0.02308 0.19861,0.02121 0.19865,0.01907 0.19862,0.01688 0.19863,0.01434 0.19865,0.01172 0.1986,0.009 0.19864,0.00623 0.19862,0.00343 0.19864,4e-4 0.19866,-0.00219 0.19861,-0.00531 0.19863,-0.00796 0.19861,-0.01059 0.19864,-0.01318 0.19864,-0.01573 0.19862,-0.0179 0.19864,-0.01995 0.1986,-0.02195 0.19865,-0.02352 0.19864,-0.0249 0.19861,-0.02612 0.19865,-0.02709 0.19861,-0.02757 0.19864,-0.028 0.19864,-0.02811 0.19861,-0.02792 0.19865,-0.02747 0.19861,-0.02676 0.19864,-0.02574 0.19865,-0.02457 0.1986,-0.0231 0.19863,-0.02144 0.19863,-0.01956 0.19864,-0.01753 0.19864,-0.01531 0.19862,-0.013 0.19864,-0.01056 0.19859,-0.00801 0.19866,-0.00542 0.19863,-0.0028 0.19861,-1.7e-4 0.19866,0.00244 0.1986,0.00502 0.19866,0.00749 0.19862,0.00992 0.19861,0.0122 0.19866,0.01435 0.1986,0.01631 0.19865,0.01814 0.19865,0.01975 0.19859,0.02115 0.19864,0.02229 0.19862,0.02324 0.19864,0.02391 0.19864,0.02445 0.19862,0.02451 0.19863,0.02456 0.19861,0.02411 0.19865,0.02366 0.19864,0.02291 0.19862,0.02179 0.19865,0.02052 0.1986,0.01912 0.19864,0.01744 0.19864,0.01561 0.19861,0.01366 0.19865,0.01153 0.19861,0.00937 0.19864,0.00697 0.19865,0.00454 0.1986,0.00227 0.19863,-2.8e-4 0.19863,-0.00265 0.19864,-0.00505 0.19864,-0.00745 0.1986,-0.00959 0.19864,-0.01184 0.19863,-0.0139 0.19864,-0.01586 0.19864,-0.01744 0.19862,-0.0191 0.19864,-0.02042 0.19859,-0.02159 0.19866,-0.02257 0.19863,-0.02324 0.19861,-0.0238 0.19866,-0.02399 0.1986,-0.02409 0.19864,-0.02378 0.19864,-0.02332 0.19861,-0.02267 0.19864,-0.02176 0.19863,-0.02061 0.19863,-0.01929 0.19866,-0.01777 0.19859,-0.01612 0.19864,-0.01428 0.19862,-0.0123 0.19864,-0.01022 0.19864,-0.00804 0.19862,-0.0058 0.19864,-0.0035 L 198.43108,0" style="fill:none;stroke:#005d5d;stroke-width:0.79701;stroke-linecap:butt;stroke-linejoin:miter;stroke-miterlimit:10;stroke-dasharray:none;stroke-opacity:1" transform="matrix(1.6666667,0,0,-1.6666667,143.01333,250.69833)" />
    <path id="path32" d="m 3.8166563,-3.9103125 c 0,-1.003125 -0.384375,-1.696875 -1.040625,-1.696875 -1.190625,0 -2.42812505,2.2125 -2.42812505,3.984375 0,0.76875 0.2625,1.70625 1.05937505,1.70625 1.1625,0 2.409375,-2.165625 2.409375,-3.99375 z m -2.56875,1.0125 c 0.375,-1.6125 1.021875,-2.49375 1.51875,-2.49375 0.478125,0 0.478125,0.853125 0.478125,1.003125 0,0.45 -0.140625,1.096875 -0.24375,1.490625 z m 1.6875,0.2625 c -0.375,1.603125 -1.03125,2.49375 -1.528125,2.49375 -0.42187505,0 -0.47812505,-0.6375 -0.47812505,-1.003125 0,-0.50625 0.15937505,-1.153125 0.24375005,-1.490625 z m 0,0" style="fill:#121619;fill-opacity:1;fill-rule:nonzero;stroke:none" aria-label="" transform="matrix(1.6666667,0,0,1.6666667,304.885,293.025)" />
    <path id="path33" d="m 4.0769687,-1.78175 c 0,-0.95625 -0.525,-1.8375 -1.3125,-1.8375 -0.35625,0 -0.95625,0.103125 -1.415625,0.459375 v -0.375 H 0.67384375 v 5.08125 H 1.3675937 V -0.3755 c 0.421875,0.384375 0.88125,0.459375 1.153125,0.459375 0.84375,0 1.55625,-0.80625 1.55625,-1.865625 z m -0.69375,0 c 0,0.796875 -0.590625,1.33125 -1.21875,1.33125 -0.121875,0 -0.31875,-0.009375 -0.525,-0.178125 -0.234375,-0.1875 -0.271875,-0.3 -0.271875,-0.459375 v -1.55625 c 0.1875,-0.225 0.496875,-0.421875 0.88125,-0.421875 0.6375,0 1.134375,0.590625 1.134375,1.284375 z M 6.9011875,-3.028625 V -3.61925 c -0.665625,0.00937 -1.153125,0.3375 -1.471875,0.759375 v -0.73125 h -0.61875 V -5e-4 h 0.675 v -1.696875 c 0,-0.8625 0.7125,-1.321875 1.415625,-1.33125 z m 4.1132815,1.284375 c 0,-1.05 -0.834375,-1.9125 -1.8750003,-1.9125 -1.03125,0 -1.865625,0.8625 -1.865625,1.9125 0,1.0125 0.84375,1.828125 1.865625,1.828125 1.0406253,0 1.8750003,-0.815625 1.8750003,-1.828125 z M 10.320719,-1.838 c 0,0.909375 -0.5625003,1.36875 -1.1812503,1.36875 -0.628125,0 -1.18125,-0.459375 -1.18125,-1.36875 0,-0.9 0.590625,-1.29375 1.18125,-1.29375 0.6,0 1.1812503,0.4125 1.1812503,1.29375 z m 5.020312,0.05625 c 0,-0.95625 -0.54375,-1.8375 -1.340625,-1.8375 -0.50625,0 -0.99375,0.159375 -1.3875,0.459375 V -5.53175 h -0.675 V -5e-4 h 0.69375 v -0.375 c 0.178125,0.15 0.5625,0.459375 1.14375,0.459375 0.8625,0 1.565625,-0.815625 1.565625,-1.865625 z m -0.69375,0 c 0,0.975 -0.65625,1.33125 -1.21875,1.33125 -0.290625,0 -0.571875,-0.13125 -0.796875,-0.4875 v -1.575 c 0,-0.121875 0,-0.225 0.28125,-0.403125 0.121875,-0.075 0.3375,-0.178125 0.609375,-0.178125 0.534375,0 1.125,0.35625 1.125,1.3125 z M 19.114469,-5e-4 v -2.296875 c 0,-0.815625 -0.628125,-1.359375 -1.415625,-1.359375 -0.496875,0 -0.88125,0.103125 -1.33125,0.3375 l 0.04687,0.58125 c 0.2625,-0.16875 0.65625,-0.4125 1.284375,-0.4125 0.35625,0 0.721875,0.2625 0.721875,0.8625 v 0.31875 c -1.18125,0.0375 -2.34375,0.290625 -2.34375,1.03125 0,0.39375 0.271875,1.021875 0.965625,1.021875 0.346875,0 0.975,-0.075 1.396875,-0.384375 v 0.3 z m -0.69375,-1.134375 c 0,0.159375 0,0.365625 -0.28125,0.534375 -0.253125,0.15 -0.5625,0.15 -0.65625,0.15 -0.440625,0 -0.76875,-0.196875 -0.76875,-0.496875 0,-0.515625 1.340625,-0.5625 1.70625,-0.571875 z m 5.360156,-0.646875 c 0,-0.95625 -0.54375,-1.8375 -1.340625,-1.8375 -0.50625,0 -0.99375,0.159375 -1.3875,0.459375 V -5.53175 h -0.675 V -5e-4 h 0.69375 v -0.375 c 0.178125,0.15 0.5625,0.459375 1.14375,0.459375 0.8625,0 1.565625,-0.815625 1.565625,-1.865625 z m -0.69375,0 c 0,0.975 -0.65625,1.33125 -1.21875,1.33125 -0.290625,0 -0.571875,-0.13125 -0.796875,-0.4875 v -1.575 c 0,-0.121875 0,-0.225 0.28125,-0.403125 0.121875,-0.075 0.3375,-0.178125 0.609375,-0.178125 0.534375,0 1.125,0.35625 1.125,1.3125 z M 25.419156,-5e-4 v -3.534375 h -0.675 V -5e-4 Z m 0.06563,-4.4625 v -0.80625 h -0.79688 V -4.463 Z m 1.95,4.4625 v -5.53125 h -0.675 V -5e-4 Z m 2.015625,0 v -3.534375 h -0.675 V -5e-4 Z m 0.06563,-4.4625 V -5.26925 H 28.719156 V -4.463 Z m 3.433594,4.246875 -0.140625,-0.50625 c -0.2625,0.1875 -0.534375,0.253125 -0.759375,0.253125 -0.3375,0 -0.421875,-0.328125 -0.421875,-0.69375 V -3.038 H 32.809 v -0.496875 h -1.18125 v -1.0125 H 31.009 v 1.0125 H 30.287125 V -3.038 h 0.703125 v 2.015625 c 0,0.534375 0.13125,1.10625 0.703125,1.10625 0.58125,0 1.0125,-0.1875 1.25625,-0.3 z m 3.775781,-3.31875 h -0.646875 c -0.646875,1.51875 -1.0875,2.55 -1.125,3.028125 -0.0094,-0.215625 -0.159375,-0.61875 -0.3,-0.99375 -0.13125,-0.31875 -0.253125,-0.6375 -0.403125,-0.946875 l -0.496875,-1.0875 h -0.684375 l 1.65,3.534375 -0.309375,0.703125 c -0.159375,0.3375 -0.271875,0.440625 -0.4875,0.440625 -0.0375,0 -0.328125,0 -0.675,-0.140625 l 0.04687,0.5625 c 0.075,0.00937 0.375,0.05625 0.61875,0.05625 0.31875,0 0.6,-0.1125 0.9375,-0.88125 z m 0,0" style="fill:#121619;fill-opacity:1;fill-rule:nonzero;stroke:none" aria-label="probability" transform="matrix(0,-1.6666667,1.6666667,0,85.938333,186.93167)" />
    <path id="path34" d="m 4.4909375,-4.9511562 v -0.553125 h -3.721875 v 5.50312495 h 0.80625 V -2.4949062 h 2.55 v -0.525 h -2.55 v -1.940625 h 1.10625 c 0.103125,0 0.196875,0.00938 0.290625,0.00938 z m 4.0992188,3.20625 c 0,-1.05 -0.834375,-1.9125 -1.875,-1.9125 -1.03125,0 -1.865625,0.8625 -1.865625,1.9125 0,1.01249995 0.84375,1.82812495 1.865625,1.82812495 1.040625,0 1.875,-0.815625 1.875,-1.82812495 z m -0.69375,-0.09375 c 0,0.90937495 -0.5625,1.36874995 -1.18125,1.36874995 -0.628125,0 -1.18125,-0.459375 -1.18125,-1.36874995 0,-0.9 0.590625,-1.29375 1.18125,-1.29375 0.6,0 1.18125,0.4125 1.18125,1.29375 z m 4.6453127,1.83749995 V -3.5355312 h -0.69375 v 2.30625 c 0,0.63749995 -0.534375,0.83437495 -1.003125,0.83437495 -0.590625,0 -0.646875,-0.159375 -0.646875,-0.525 V -3.5355312 H 9.5042188 v 2.66249995 c 0,0.7125 0.309375,0.95625 0.8625002,0.95625 0.328125,0 1.03125,-0.065625 1.509375,-0.45 v 0.365625 z M 15.98,-3.0292812 v -0.590625 c -0.665625,0.00937 -1.153125,0.3375 -1.471875,0.759375 v -0.73125 h -0.61875 v 3.59062495 h 0.675 V -1.6980312 c 0,-0.8625 0.7125,-1.321875 1.415625,-1.33125 z m 2.470313,1.509375 v -0.50625 h -2.25 v 0.50625 z m 4.171875,3.065625 v -5.165625 h -0.675 v 0.534375 c -0.28125,-0.31875 -0.703125,-0.534375 -1.171875,-0.534375 -0.84375,0 -1.55625,0.796875 -1.55625,1.85625 0,0.99374995 0.6,1.84687495 1.396875,1.84687495 0.271875,0 0.80625,-0.065625 1.3125,-0.478125 V 1.5457188 Z m -0.675,-2.53125005 c -0.28125,0.45 -0.665625,0.534375 -0.9,0.534375 -0.646875,0 -1.134375,-0.59999995 -1.134375,-1.31249995 0,-0.778125 0.590625,-1.303125 1.21875,-1.303125 0.525,0 0.815625,0.515625 0.815625,0.853125 z m 5.060156,0.984375 V -3.5355312 h -0.69375 v 2.30625 c 0,0.63749995 -0.534375,0.83437495 -1.003125,0.83437495 -0.590625,0 -0.646875,-0.159375 -0.646875,-0.525 V -3.5355312 h -0.69375 v 2.66249995 c 0,0.7125 0.309375,0.95625 0.8625,0.95625 0.328125,0 1.03125,-0.065625 1.509375,-0.45 v 0.365625 z m 4.750781,-1.78124995 c 0,-0.95625 -0.54375,-1.8375 -1.340625,-1.8375 -0.50625,0 -0.99375,0.159375 -1.3875,0.459375 v -2.371875 h -0.675 v 5.53124995 h 0.69375 v -0.375 c 0.178125,0.15 0.5625,0.459375 1.14375,0.459375 0.8625,0 1.565625,-0.815625 1.565625,-1.86562495 z m -0.69375,0 c 0,0.97499995 -0.65625,1.33124995 -1.21875,1.33124995 -0.290625,0 -0.571875,-0.13125 -0.796875,-0.4875 V -2.5136562 c 0,-0.121875 0,-0.225 0.28125,-0.403125 0.121875,-0.075 0.3375,-0.178125 0.609375,-0.178125 0.534375,0 1.125,0.35625 1.125,1.3125 z m 2.332031,1.78124995 V -3.5355312 h -0.675 v 3.53437495 z m 0.06563,-4.46249995 v -0.80625 h -0.796875 v 0.80625 z m 3.43125,4.24687495 -0.140625,-0.50625 c -0.2625,0.1875 -0.534375,0.253125 -0.759375,0.253125 -0.3375,0 -0.421875,-0.328125 -0.421875,-0.69374995 v -1.875 h 1.18125 v -0.496875 h -1.18125 v -1.0125 h -0.61875 v 1.0125 h -0.721875 v 0.496875 h 0.703125 v 2.015625 c 0,0.53437495 0.13125,1.10624995 0.703125,1.10624995 0.58125,0 1.0125,-0.1875 1.25625,-0.3 z m 7.132032,-1.56562495 c 0,-0.95625 -0.525,-1.8375 -1.3125,-1.8375 -0.35625,0 -0.95625,0.103125 -1.415625,0.459375 v -0.375 h -0.675 v 5.08125 h 0.69375 v -1.92187505 c 0.421875,0.384375 0.88125,0.459375 1.153125,0.459375 0.84375,0 1.55625,-0.80625 1.55625,-1.86562495 z m -0.69375,0 c 0,0.79687495 -0.590625,1.33124995 -1.21875,1.33124995 -0.121875,0 -0.31875,-0.009375 -0.525,-0.178125 -0.234375,-0.1875 -0.271875,-0.3 -0.271875,-0.45937495 v -1.55625 c 0.1875,-0.225 0.496875,-0.421875 0.88125,-0.421875 0.6375,0 1.134375,0.590625 1.134375,1.284375 z m 4.692187,1.78124995 V -2.3636562 c 0,-0.61875 -0.178125,-1.25625 -1.1625,-1.25625 -0.684375,0 -1.05,0.403125 -1.209375,0.5625 v -2.475 h -0.66563 v 5.53124995 H 45.68 V -1.9417812 c 0,-0.525 0.215625,-1.153125 0.834375,-1.153125 0.815625,0 0.815625,0.5625 0.815625,0.7875 v 2.30624995 z m 4.150781,0 V -2.2980312 c 0,-0.815625 -0.628125,-1.359375 -1.415625,-1.359375 -0.496875,0 -0.88125,0.103125 -1.33125,0.3375 l 0.04687,0.58125 c 0.2625,-0.16875 0.65625,-0.4125 1.284375,-0.4125 0.35625,0 0.721875,0.2625 0.721875,0.8625 v 0.31875 c -1.18125,0.0375 -2.34375,0.290625 -2.34375,1.03124995 0,0.39375 0.271875,1.021875 0.965625,1.021875 0.346875,0 0.975,-0.075 1.396875,-0.384375 v 0.3 z m -0.69375,-1.13437495 c 0,0.15937495 0,0.36562495 -0.28125,0.53437495 -0.253125,0.15 -0.5625,0.15 -0.65625,0.15 -0.440625,0 -0.76875,-0.196875 -0.76875,-0.496875 0,-0.51562495 1.340625,-0.56249995 1.70625,-0.57187495 z m 4.338282,0.09375 c 0,-0.140625 -0.01875,-0.45 -0.35625,-0.75 -0.290625,-0.2625 -0.58125,-0.31875 -0.965625,-0.39375 -0.46875,-0.084375 -0.834375,-0.159375 -0.834375,-0.50625 0,-0.459375 0.58125,-0.459375 0.703125,-0.459375 0.45,0 0.80625,0.09375 1.2,0.309375 l 0.103125,-0.571875 c -0.54375,-0.225 -0.9375,-0.24375 -1.228125,-0.24375 -0.196875,0 -1.396875,0 -1.396875,1.059375 0,0.375 0.20625,0.58125 0.309375,0.675 0.28125,0.28125 0.609375,0.346875 1.03125,0.421875 0.375,0.075 0.80625,0.15 0.80625,0.53437495 0,0.50625 -0.65625,0.50625 -0.76875,0.50625 -0.515625,0 -0.99375,-0.1875 -1.3125,-0.4125 l -0.103125,0.6 c 0.2625,0.140625 0.75,0.35625 1.415625,0.35625 0.35625,0 0.703125,-0.05625 1.003125,-0.271875 0.290625,-0.225 0.39375,-0.58125 0.39375,-0.85312495 z m 3.69375,-0.703125 c 0,-0.365625 -0.0375,-0.9 -0.346875,-1.359375 -0.290625,-0.403125 -0.76875,-0.553125 -1.1625,-0.553125 -0.965625,0 -1.715625,0.853125 -1.715625,1.865625 0,1.02187495 0.796875,1.87499995 1.846875,1.87499995 0.459375,0 0.9375,-0.140625 1.35,-0.384375 l -0.04687,-0.571875 c -0.45,0.31875 -0.95625,0.421875 -1.29375,0.421875 -0.69375,0 -1.21875,-0.56249995 -1.246875,-1.29374995 z m -0.4875,-0.478125 h -2.071875 c 0.1875,-0.6375 0.65625,-0.909375 1.05,-0.909375 0.35625,0 0.871875,0.16875 1.021875,0.909375 z m 7.071093,0.478125 c 0,-0.365625 -0.0375,-0.9 -0.346875,-1.359375 -0.290625,-0.403125 -0.76875,-0.553125 -1.1625,-0.553125 -0.965625,0 -1.715625,0.853125 -1.715625,1.865625 0,1.02187495 0.796875,1.87499995 1.846875,1.87499995 0.459375,0 0.9375,-0.140625 1.35,-0.384375 l -0.04687,-0.571875 c -0.45,0.31875 -0.95625,0.421875 -1.29375,0.421875 -0.69375,0 -1.21875,-0.56249995 -1.246875,-1.29374995 z m -0.4875,-0.478125 h -2.071875 c 0.1875,-0.6375 0.65625,-0.909375 1.05,-0.909375 0.35625,0 0.871875,0.16875 1.021875,0.909375 z m 3.799219,1.18125 c 0,-0.140625 -0.01875,-0.45 -0.35625,-0.75 -0.290625,-0.2625 -0.58125,-0.31875 -0.965625,-0.39375 -0.46875,-0.084375 -0.834375,-0.159375 -0.834375,-0.50625 0,-0.459375 0.58125,-0.459375 0.703125,-0.459375 0.45,0 0.80625,0.09375 1.2,0.309375 l 0.103125,-0.571875 c -0.54375,-0.225 -0.9375,-0.24375 -1.228125,-0.24375 -0.196875,0 -1.396875,0 -1.396875,1.059375 0,0.375 0.20625,0.58125 0.309375,0.675 0.28125,0.28125 0.609375,0.346875 1.03125,0.421875 0.375,0.075 0.80625,0.15 0.80625,0.53437495 0,0.50625 -0.65625,0.50625 -0.76875,0.50625 -0.515625,0 -0.99375,-0.1875 -1.3125,-0.4125 l -0.103125,0.6 c 0.2625,0.140625 0.75,0.35625 1.415625,0.35625 0.35625,0 0.703125,-0.05625 1.003125,-0.271875 0.290625,-0.225 0.39375,-0.58125 0.39375,-0.85312495 z m 3.009375,0.82499995 -0.140625,-0.50625 c -0.2625,0.1875 -0.534375,0.253125 -0.759375,0.253125 -0.3375,0 -0.421875,-0.328125 -0.421875,-0.69374995 v -1.875 h 1.18125 v -0.496875 h -1.18125 v -1.0125 h -0.61875 v 1.0125 H 69.755 v 0.496875 h 0.703125 v 2.015625 c 0,0.53437495 0.13125,1.10624995 0.703125,1.10624995 0.58125,0 1.0125,-0.1875 1.25625,-0.3 z m 1.579688,0.215625 V -3.5355312 h -0.675 v 3.53437495 z m 0.06563,-4.46249995 v -0.80625 h -0.796875 v 0.80625 z m 6.665625,4.46249995 V -2.3636562 c 0,-0.61875 -0.1875,-1.25625 -1.1625,-1.25625 -0.665625,0 -1.0875,0.39375 -1.275,0.646875 -0.08437,-0.215625 -0.28125,-0.646875 -1.078125,-0.646875 -0.45,0 -0.890625,0.1875 -1.2375,0.609375 v -0.58125 h -0.6375 v 3.59062495 h 0.69375 V -1.9417812 c 0,-0.525 0.215625,-1.153125 0.834375,-1.153125 0.815625,0 0.815625,0.5625 0.815625,0.7875 v 2.30624995 h 0.69375 V -1.9417812 c 0,-0.525 0.225,-1.153125 0.84375,-1.153125 0.815625,0 0.815625,0.5625 0.815625,0.7875 v 2.30624995 z m 4.148437,0 V -2.2980312 c 0,-0.815625 -0.628125,-1.359375 -1.415625,-1.359375 -0.496875,0 -0.88125,0.103125 -1.33125,0.3375 l 0.04687,0.58125 c 0.2625,-0.16875 0.65625,-0.4125 1.284375,-0.4125 0.35625,0 0.721875,0.2625 0.721875,0.8625 v 0.31875 c -1.18125,0.0375 -2.34375,0.290625 -2.34375,1.03124995 0,0.39375 0.271875,1.021875 0.965625,1.021875 0.346875,0 0.975,-0.075 1.396875,-0.384375 v 0.3 z m -0.69375,-1.13437495 c 0,0.15937495 0,0.36562495 -0.28125,0.53437495 -0.253125,0.15 -0.5625,0.15 -0.65625,0.15 -0.440625,0 -0.76875,-0.196875 -0.76875,-0.496875 0,-0.51562495 1.340625,-0.56249995 1.70625,-0.57187495 z m 4.101563,0.91874995 -0.140625,-0.50625 c -0.2625,0.1875 -0.534375,0.253125 -0.759375,0.253125 -0.3375,0 -0.421875,-0.328125 -0.421875,-0.69374995 v -1.875 h 1.18125 v -0.496875 h -1.18125 v -1.0125 h -0.61875 v 1.0125 h -0.721875 v 0.496875 h 0.703125 v 2.015625 c 0,0.53437495 0.13125,1.10624995 0.703125,1.10624995 0.58125,0 1.0125,-0.1875 1.25625,-0.3 z m 1.579687,0.215625 V -3.5355312 h -0.675 v 3.53437495 z M 89.93,-4.4636562 v -0.80625 h -0.796875 v 0.80625 z m 4.59375,2.71875 c 0,-1.05 -0.834375,-1.9125 -1.875,-1.9125 -1.03125,0 -1.865625,0.8625 -1.865625,1.9125 0,1.01249995 0.84375,1.82812495 1.865625,1.82812495 1.040625,0 1.875,-0.815625 1.875,-1.82812495 z M 93.83,-1.8386562 c 0,0.90937495 -0.5625,1.36874995 -1.18125,1.36874995 -0.628125,0 -1.18125,-0.459375 -1.18125,-1.36874995 0,-0.9 0.590625,-1.29375 1.18125,-1.29375 0.6,0 1.18125,0.4125 1.18125,1.29375 z m 4.645313,1.83749995 V -2.3636562 c 0,-0.61875 -0.178125,-1.25625 -1.1625,-1.25625 -0.45,0 -0.890625,0.1875 -1.2375,0.609375 v -0.58125 h -0.6375 v 3.59062495 h 0.69375 V -1.9417812 c 0,-0.525 0.215625,-1.153125 0.834375,-1.153125 0.815625,0 0.815625,0.5625 0.815625,0.7875 v 2.30624995 z m 0,0" style="fill:#121619;fill-opacity:1;fill-rule:nonzero;stroke:none" aria-label="Four-qubitphaseestimation" transform="matrix(1.6666667,0,0,1.6666667,225.74167,44.443333)" />
    <path id="path35" d="M 198.63034,39.21872 H 230.6326 V 74.15465 H 198.63034 Z" style="fill:#ffffff;fill-opacity:1;fill-rule:nonzero;stroke:#000000;stroke-width:0.3985;stroke-linecap:butt;stroke-linejoin:miter;stroke-miterlimit:10;stroke-dasharray:none;stroke-opacity:1" transform="matrix(1.6666667,0,0,-1.6666667,143.01333,250.69833)" />
    <path id="path36" d="m 0,0 h 8.50412 8.50414" style="fill:none;stroke:#1192e8;stroke-width:0.79701;stroke-linecap:butt;stroke-linejoin:miter;stroke-miterlimit:10;stroke-dasharray:none;stroke-opacity:1" transform="matrix(1.6666667,0,0,-1.6666667,479.70833,139.025)" />
    <path id="path37" d="m 4.0306875,-4.8560937 c 0.075,-0.084375 0.075,-0.103125 0.075,-0.271875 h -2.025 c -0.196875,0 -0.45,-0.00937 -0.646875,-0.028125 -0.4125,-0.028125 -0.421875,-0.103125 -0.45,-0.234375 h -0.24375 l -0.271875,1.6875 h 0.253125 c 0.009375,-0.121875 0.103125,-0.675 0.20625,-0.73125 0.09375,-0.046875 0.69375,-0.046875 0.80625,-0.046875 h 1.696875 l -0.825,1.10625 c -0.909375,1.209375 -1.096875,2.46562495 -1.096875,3.09374995 0,0.084375 0,0.45 0.375,0.45 0.375,0 0.375,-0.35625 0.375,-0.459375 v -0.375 c 0,-1.15312495 0.1875,-2.09062495 0.58125,-2.60624995 z m 0,0" style="fill:#121619;fill-opacity:1;fill-rule:nonzero;stroke:none" aria-label="7" transform="matrix(1.6666667,0,0,1.6666667,512.04,142.30833)" />
    <path id="path38" d="m 0,0 h 8.50412 8.50414" style="fill:none;stroke:#6929c4;stroke-width:0.79701;stroke-linecap:butt;stroke-linejoin:miter;stroke-miterlimit:10;stroke-dasharray:none;stroke-opacity:1" transform="matrix(1.6666667,0,0,-1.6666667,479.70833,156.22)" />
    <path id="path39" d="m 2.6431875,-2.8777812 c 0.45,-0.215625 0.99375,-0.609375 0.99375,-1.2375 0,-0.75 -0.778125,-1.18125 -1.51875,-1.18125 -0.84375,0 -1.528125,0.58125 -1.528125,1.33125 0,0.290625 0.103125,0.5625 0.3,0.796875 0.140625,0.16875 0.16875,0.178125 0.665625,0.4875 -0.99375,0.440625 -1.209375,1.021875 -1.209375,1.471875 0,0.87187495 0.890625,1.37812495 1.753125,1.37812495 0.984375,0 1.771875,-0.665625 1.771875,-1.50937495 0,-0.496875 -0.271875,-0.834375 -0.39375,-0.975 -0.140625,-0.121875 -0.15,-0.13125 -0.834375,-0.5625 z m -1.2375,-0.75 c -0.225,-0.13125 -0.421875,-0.365625 -0.421875,-0.646875 0,-0.496875 0.553125,-0.815625 1.115625,-0.815625 0.628125,0 1.134375,0.421875 1.134375,0.975 0,0.46875 -0.35625,0.853125 -0.825,1.0875 z m 0.39375,1.096875 c 0.0375,0.00937 0.9375,0.571875 1.078125,0.65625 0.121875,0.075 0.54375,0.328125 0.54375,0.80625 0,0.61874995 -0.646875,0.99374995 -1.303125,0.99374995 -0.7125,0 -1.3125,-0.4875 -1.3125,-1.13437495 0,-0.6 0.440625,-1.06875 0.99375,-1.321875 z m 0,0" style="fill:#121619;fill-opacity:1;fill-rule:nonzero;stroke:none" aria-label="8" transform="matrix(1.6666667,0,0,1.6666667,512.04,159.50333)" />
    <path id="path40" d="m 0,0 h 8.50412 8.50414" style="fill:none;stroke:#005d5d;stroke-width:0.79701;stroke-linecap:butt;stroke-linejoin:miter;stroke-miterlimit:10;stroke-dasharray:none;stroke-opacity:1" transform="matrix(1.6666667,0,0,-1.6666667,479.70833,173.415)" />
    <path id="path41" d="m 3.1213125,-2.3525937 c 0,1.94999995 -0.91875,2.27812495 -1.3875,2.27812495 -0.16875,0 -0.58125,-0.01875 -0.796875,-0.271875 0.35625,-0.028125 0.375,-0.290625 0.375,-0.375 0,-0.234375 -0.178125,-0.36562495 -0.375,-0.36562495 -0.140625,0 -0.375,0.084375 -0.375,0.38437495 0,0.54375 0.45,0.871875 1.18125,0.871875 1.096875,0 2.128125,-1.0875 2.128125,-2.79374995 0,-2.071875 -0.91875,-2.671875 -1.734375,-2.671875 -0.9375,0 -1.790625,0.73125 -1.790625,1.771875 0,1.03125 0.778125,1.78125 1.678125,1.78125 0.5625,0 0.909375,-0.35625 1.096875,-0.76875 z m -1.06875,0.384375 c -0.365625,0 -0.590625,-0.16875 -0.76875,-0.459375 -0.1875,-0.3 -0.1875,-0.684375 -0.1875,-1.0875 0,-0.46875 0,-0.80625 0.215625,-1.134375 0.20625,-0.28125 0.459375,-0.440625 0.834375,-0.440625 0.534375,0 0.759375,0.525 0.7875,0.5625 0.16875,0.39375 0.178125,1.0125 0.178125,1.171875 0,0.628125 -0.346875,1.3875 -1.059375,1.3875 z m 0,0" style="fill:#121619;fill-opacity:1;fill-rule:nonzero;stroke:none" aria-label="9" transform="matrix(1.6666667,0,0,1.6666667,512.04,176.69833)" />
  </g>
</svg>