<?xml version='1.0' encoding='utf-8'?>
<svg xmlns="http://www.w3.org/2000/svg" xmlns:ns1="http://sodipodi.sourceforge.net/DTD/sodipodi-0.dtd" xmlns:ns2="http://www.inkscape.org/namespaces/inkscape" version="1.1" id="svg1" width="100%" height="auto" viewBox="-20.0 -20.0 519.16797 141.93871000000001" ns1:docname="svg_fix_XXXXXX.svg">
  <rect id="path1" x="-20.0" y="-20.0" width="519.16797" height="141.93871000000001" fill="white" /><ns1:namedview id="namedview1" pagecolor="#ffffff" bordercolor="#000000" borderopacity="0.25" ns2:showpageshadow="2" ns2:pageopacity="0.0" ns2:pagecheckerboard="0" ns2:deskcolor="#d1d1d1" />
  <defs id="defs1" />
  <g id="g1" transform="translate(-62.578125,-105.00455)">
    <path id="path2" d="M -153.05173,39.68535 H 167.22514" style="fill:none;stroke:#121619;stroke-width:0.3985;stroke-linecap:butt;stroke-linejoin:miter;stroke-miterlimit:10;stroke-dasharray:none;stroke-opacity:1" transform="matrix(1.0533333,0,0,-1.0533333,272.52715,155.97391)" />
    <path id="path3" d="M -133.20905,19.84267 H 167.22514" style="fill:none;stroke:#121619;stroke-width:0.3985;stroke-linecap:butt;stroke-linejoin:miter;stroke-miterlimit:10;stroke-dasharray:none;stroke-opacity:1" transform="matrix(1.0533333,0,0,-1.0533333,272.52715,155.97391)" />
    <path id="path4" d="M -133.20905,0 H 167.22514" style="fill:none;stroke:#121619;stroke-width:0.3985;stroke-linecap:butt;stroke-linejoin:miter;stroke-miterlimit:10;stroke-dasharray:none;stroke-opacity:1" transform="matrix(1.0533333,0,0,-1.0533333,272.52715,155.97391)" />
    <path id="path5" d="m 123.30844,-28.3467 h 17.00806 v 17.00806 h -17.00806 z" style="fill:#000000;fill-opacity:1;fill-rule:nonzero;stroke:#000000;stroke-width:0.3985;stroke-linecap:butt;stroke-linejoin:miter;stroke-miterlimit:10;stroke-dasharray:none;stroke-opacity:1" transform="matrix(1.0533333,0,0,-1.0533333,272.52715,155.97391)" />
    <path id="path6" d="m 123.30844,-48.18938 h 17.00806 v 17.00806 h -17.00806 z" style="fill:#000000;fill-opacity:1;fill-rule:nonzero;stroke:#000000;stroke-width:0.3985;stroke-linecap:butt;stroke-linejoin:miter;stroke-miterlimit:10;stroke-dasharray:none;stroke-opacity:1" transform="matrix(1.0533333,0,0,-1.0533333,272.52715,155.97391)" />
    <path id="path7" d="m 137.48175,-22.39377 c 0,3.13112 -2.53824,5.66936 -5.66935,5.66936 -3.13113,0 -5.66935,-2.53824 -5.66935,-5.66936" style="fill:none;stroke:#ffffff;stroke-width:0.79701;stroke-linecap:butt;stroke-linejoin:miter;stroke-miterlimit:10;stroke-dasharray:none;stroke-opacity:1" transform="matrix(1.0533333,0,0,-1.0533333,272.52715,155.97391)" />
    <path id="path8" d="m 131.81247,-22.11044 5.66928,4.81889" style="fill:none;stroke:#ffffff;stroke-width:0.79701;stroke-linecap:butt;stroke-linejoin:miter;stroke-miterlimit:10;stroke-dasharray:none;stroke-opacity:1" transform="matrix(1.0533333,0,0,-1.0533333,272.52715,155.97391)" />
    <path id="path9" d="m 132.66287,-22.11044 c 0,0.46966 -0.38073,0.85038 -0.8504,0.85038 -0.46967,0 -0.8504,-0.38072 -0.8504,-0.85038 0,-0.46967 0.38073,-0.85041 0.8504,-0.85041 0.46967,0 0.8504,0.38074 0.8504,0.85041 z" style="fill:#ffffff;fill-opacity:1;fill-rule:nonzero;stroke:none" transform="matrix(1.0533333,0,0,-1.0533333,272.52715,155.97391)" />
    <path id="path10" d="m 137.48175,-42.23645 c 0,3.13112 -2.53824,5.66934 -5.66935,5.66934 -3.13113,0 -5.66935,-2.53822 -5.66935,-5.66934" style="fill:none;stroke:#ffffff;stroke-width:0.79701;stroke-linecap:butt;stroke-linejoin:miter;stroke-miterlimit:10;stroke-dasharray:none;stroke-opacity:1" transform="matrix(1.0533333,0,0,-1.0533333,272.52715,155.97391)" />
    <path id="path11" d="m 131.81247,-41.95314 5.66928,4.81891" style="fill:none;stroke:#ffffff;stroke-width:0.79701;stroke-linecap:butt;stroke-linejoin:miter;stroke-miterlimit:10;stroke-dasharray:none;stroke-opacity:1" transform="matrix(1.0533333,0,0,-1.0533333,272.52715,155.97391)" />
    <path id="path12" d="m 132.66287,-41.95314 c 0,0.46967 -0.38073,0.8504 -0.8504,0.8504 -0.46967,0 -0.8504,-0.38073 -0.8504,-0.8504 0,-0.46966 0.38073,-0.85039 0.8504,-0.85039 0.46967,0 0.8504,0.38073 0.8504,0.85039 z" style="fill:#ffffff;fill-opacity:1;fill-rule:nonzero;stroke:none" transform="matrix(1.0533333,0,0,-1.0533333,272.52715,155.97391)" />
    <path id="path13" d="M 9.94238,-19.84267 H 123.10919" style="fill:none;stroke:#121619;stroke-width:0.3985;stroke-linecap:butt;stroke-linejoin:miter;stroke-miterlimit:10;stroke-dasharray:none;stroke-opacity:1" transform="matrix(1.0533333,0,0,-1.0533333,272.52715,155.97391)" />
    <path id="path14" d="M 9.94238,-39.68535 H 123.10919" style="fill:none;stroke:#121619;stroke-width:0.3985;stroke-linecap:butt;stroke-linejoin:miter;stroke-miterlimit:10;stroke-dasharray:none;stroke-opacity:1" transform="matrix(1.0533333,0,0,-1.0533333,272.52715,155.97391)" />
    <path id="path15" d="m -110.89655,39.68535 c 0,1.37558 -1.11511,2.49069 -2.49069,2.49069 -1.37558,0 -2.49069,-1.11511 -2.49069,-2.49069 0,-1.37558 1.11511,-2.49069 2.49069,-2.49069 1.37558,0 2.49069,1.11511 2.49069,2.49069 z" style="fill:#78a9ff;fill-opacity:1;fill-rule:nonzero;stroke:none" transform="matrix(1.0533333,0,0,-1.0533333,272.52715,155.97391)" />
    <path id="path16" d="m -91.05385,39.68535 c 0,1.37558 -1.11511,2.49069 -2.49069,2.49069 -1.37558,0 -2.49069,-1.11511 -2.49069,-2.49069 0,-1.37558 1.11511,-2.49069 2.49069,-2.49069 1.37558,0 2.49069,1.11511 2.49069,2.49069 z" style="fill:#78a9ff;fill-opacity:1;fill-rule:nonzero;stroke:none" transform="matrix(1.0533333,0,0,-1.0533333,272.52715,155.97391)" />
    <path id="path17" d="m -107.40958,19.84267 c 0,3.3014 -2.67624,5.97766 -5.97766,5.97766 -3.3014,0 -5.97766,-2.67626 -5.97766,-5.97766 0,-3.30143 2.67626,-5.97767 5.97766,-5.97767 3.30142,0 5.97766,2.67624 5.97766,5.97767 z" style="fill:#78a9ff;fill-opacity:1;fill-rule:nonzero;stroke:#78a9ff;stroke-width:0.3985;stroke-linecap:butt;stroke-linejoin:miter;stroke-miterlimit:10;stroke-dasharray:none;stroke-opacity:1" transform="matrix(1.0533333,0,0,-1.0533333,272.52715,155.97391)" />
    <path id="path18" d="m 4.7023058,-7.8164897 v 3.411788 h -3.411788 v 0.9196993 h 3.411788 v 3.411788 h 0.9196993 v -3.411788 h 3.411788 v -0.9196993 h -3.411788 v -3.411788 z m 0,0" style="fill:#ffffff;fill-opacity:1;fill-rule:nonzero;stroke:none" aria-label="+" transform="matrix(1.0533333,0,0,1.0533333,147.65237,139.19431)" />
    <path id="path19" d="m -87.56688,0 c 0,3.3014 -2.67625,5.97766 -5.97766,5.97766 -3.30142,0 -5.97766,-2.67626 -5.97766,-5.97766 0,-3.3014 2.67624,-5.97766 5.97766,-5.97766 3.30141,0 5.97766,2.67626 5.97766,5.97766 z" style="fill:#78a9ff;fill-opacity:1;fill-rule:nonzero;stroke:#78a9ff;stroke-width:0.3985;stroke-linecap:butt;stroke-linejoin:miter;stroke-miterlimit:10;stroke-dasharray:none;stroke-opacity:1" transform="matrix(1.0533333,0,0,-1.0533333,272.52715,155.97391)" />
    <path id="path20" d="M 4.703303,-7.8192009 V -4.407413 H 1.291515 v 0.9196994 h 3.411788 v 3.41178797 H 5.6230024 V -3.4877136 H 9.0347903 V -4.407413 H 5.6230024 v -3.4117879 z m 0,0" style="fill:#ffffff;fill-opacity:1;fill-rule:nonzero;stroke:none" aria-label="+" transform="matrix(1.0533333,0,0,1.0533333,168.55367,160.0956)" />
    <path id="path21" d="M -113.38724,39.68535 V 26.01958" style="fill:none;stroke:#78a9ff;stroke-width:0.79701;stroke-linecap:butt;stroke-linejoin:miter;stroke-miterlimit:10;stroke-dasharray:none;stroke-opacity:1" transform="matrix(1.0533333,0,0,-1.0533333,272.52715,155.97391)" />
    <path id="path22" d="M -93.54454,39.68535 V 6.17691" style="fill:none;stroke:#78a9ff;stroke-width:0.79701;stroke-linecap:butt;stroke-linejoin:miter;stroke-miterlimit:10;stroke-dasharray:none;stroke-opacity:1" transform="matrix(1.0533333,0,0,-1.0533333,272.52715,155.97391)" />
    <path id="path23" d="m -76.5362,31.18132 h 17.00806 V 48.18938 H -76.5362 Z" style="fill:#78a9ff;fill-opacity:1;fill-rule:nonzero;stroke:#78a9ff;stroke-width:0.3985;stroke-linecap:butt;stroke-linejoin:miter;stroke-miterlimit:10;stroke-dasharray:none;stroke-opacity:1" transform="matrix(1.0533333,0,0,-1.0533333,272.52715,155.97391)" />
    <path id="path24" d="m 6.3627765,-4.7927967 c 0.074169,-0.3115111 0.103837,-0.3856804 0.6526899,-0.3856804 0.1780063,0 0.2818433,0 0.2818433,-0.1483386 0,-0.014834 -0.014834,-0.1186709 -0.1335047,-0.1186709 -0.1483386,0 -0.3411788,0.014834 -0.5043513,0.029668 H 6.1699363 c -0.7713607,0 -0.9790348,-0.029668 -1.0383702,-0.029668 -0.029668,0 -0.1483386,0 -0.1483386,0.1483387 0,0.1186708 0.103837,0.1186708 0.2225079,0.1186708 0.2670095,0 0.4895174,0 0.4895174,0.1335048 0,0.029668 0,0.029668 -0.029668,0.1335047 L 5.1909015,-2.9682318 H 2.6246436 l 0.4598497,-1.8542326 c 0.074169,-0.2818434 0.089003,-0.3560127 0.6675237,-0.3560127 0.1631725,0 0.2670095,0 0.2670095,-0.1483386 0,-0.014834 -0.014834,-0.1186709 -0.1335047,-0.1186709 -0.1631725,0 -0.3560127,0.014834 -0.5043513,0.029668 H 2.8768192 c -0.7565269,0 -0.9642009,-0.029668 -1.0235364,-0.029668 -0.029668,0 -0.1631724,0 -0.1631724,0.1483387 0,0.1186708 0.103837,0.1186708 0.2373417,0.1186708 0.2670095,0 0.4895174,0 0.4895174,0.1335048 0,0.029668 0,0.029668 -0.029668,0.1335047 l -1.068038,4.2869858 c -0.074169,0.29667721 -0.089003,0.35601265 -0.68235755,0.35601265 -0.14833861,0 -0.23734177,0 -0.23734177,0.14833861 0,0.04450158 0.0148339,0.11867089 0.11867088,0.11867089 0.16317247,0 0.35601266,-0.01483386 0.50435124,-0.02966772 h 0.5043513 c 0.7713608,0 0.9790348,0.02966772 1.0235364,0.02966772 0.059335,0 0.1631725,0 0.1631725,-0.14833861 0,-0.11867089 -0.1038371,-0.11867089 -0.2373418,-0.11867089 -0.029668,0 -0.1631725,0 -0.2966772,-0.0148339 -0.1780064,-0.0148339 -0.1928402,-0.0296677 -0.1928402,-0.10383702 0,-0.0445016 0.014834,-0.0890032 0.029668,-0.13350475 l 0.534019,-2.18057748 h 2.5662579 c -0.2225079,0.9345332 -0.534019,2.18057748 -0.5488528,2.18057748 -0.074169,0.25217563 -0.2076741,0.25217563 -0.6823576,0.25217563 -0.1038371,0 -0.2076741,0 -0.2076741,0.14833861 0,0.04450158 0.029668,0.11867089 0.1335048,0.11867089 0.1483386,0 0.3411787,-0.01483386 0.4895174,-0.02966772 h 0.5043512 c 0.7713608,0 0.9790348,0.02966772 1.0383703,0.02966772 0.044502,0 0.1483386,0 0.1483386,-0.14833861 0,-0.11867089 -0.103837,-0.11867089 -0.2373418,-0.11867089 -0.014834,0 -0.1631725,0 -0.2966772,-0.0148339 -0.1631725,-0.0148339 -0.1928402,-0.0296677 -0.1928402,-0.10383702 0,-0.0445016 0.029668,-0.0890032 0.029668,-0.13350475 z m 0,0" style="fill:#ffffff;fill-opacity:1;fill-rule:nonzero;stroke:none" aria-label="H" transform="matrix(1.0533333,0,0,1.0533333,196.87991,117.0406)" />
    <path id="path25" d="m -76.5362,11.33864 h 17.00806 V 28.3467 H -76.5362 Z" style="fill:#78a9ff;fill-opacity:1;fill-rule:nonzero;stroke:#78a9ff;stroke-width:0.3985;stroke-linecap:butt;stroke-linejoin:miter;stroke-miterlimit:10;stroke-dasharray:none;stroke-opacity:1" transform="matrix(1.0533333,0,0,-1.0533333,272.52715,155.97391)" />
    <path id="path26" d="m 6.3627765,-4.7907994 c 0.074169,-0.3115111 0.103837,-0.3856804 0.6526899,-0.3856804 0.1780063,0 0.2818433,0 0.2818433,-0.1483386 0,-0.014834 -0.014834,-0.1186709 -0.1335047,-0.1186709 -0.1483386,0 -0.3411788,0.014834 -0.5043513,0.029668 H 6.1699363 c -0.7713607,0 -0.9790348,-0.029668 -1.0383702,-0.029668 -0.029668,0 -0.1483386,0 -0.1483386,0.1483386 0,0.1186709 0.103837,0.1186709 0.2225079,0.1186709 0.2670095,0 0.4895174,0 0.4895174,0.1335047 0,0.029668 0,0.029668 -0.029668,0.1335048 L 5.1909015,-2.9662346 H 2.6246436 l 0.4598497,-1.8542326 c 0.074169,-0.2818433 0.089003,-0.3560126 0.6675237,-0.3560126 0.1631725,0 0.2670095,0 0.2670095,-0.1483386 0,-0.014834 -0.014834,-0.1186709 -0.1335047,-0.1186709 -0.1631725,0 -0.3560127,0.014834 -0.5043513,0.029668 H 2.8768192 c -0.7565269,0 -0.9642009,-0.029668 -1.0235364,-0.029668 -0.029668,0 -0.1631724,0 -0.1631724,0.1483386 0,0.1186709 0.103837,0.1186709 0.2373417,0.1186709 0.2670095,0 0.4895174,0 0.4895174,0.1335047 0,0.029668 0,0.029668 -0.029668,0.1335048 l -1.068038,4.28698573 c -0.074169,0.29667721 -0.089003,0.35601266 -0.68235755,0.35601266 -0.14833861,0 -0.23734177,0 -0.23734177,0.1483386 0,0.04450159 0.0148339,0.11867088911 0.11867088,0.11867088911 0.16317247,0 0.35601266,-0.0148338591 0.50435124,-0.0296677191 h 0.5043513 c 0.7713608,0 0.9790348,0.0296677191 1.0235364,0.0296677191 0.059335,0 0.1631725,0 0.1631725,-0.14833860911 0,-0.11867088 -0.1038371,-0.11867088 -0.2373418,-0.11867088 -0.029668,0 -0.1631725,0 -0.2966772,-0.0148339 -0.1780064,-0.0148339 -0.1928402,-0.0296677 -0.1928402,-0.10383702 0,-0.0445016 0.014834,-0.0890032 0.029668,-0.13350475 l 0.534019,-2.18057752 h 2.5662579 c -0.2225079,0.9345332 -0.534019,2.18057752 -0.5488528,2.18057752 -0.074169,0.25217564 -0.2076741,0.25217564 -0.6823576,0.25217564 -0.1038371,0 -0.2076741,0 -0.2076741,0.1483386 0,0.04450159 0.029668,0.11867088911 0.1335048,0.11867088911 0.1483386,0 0.3411787,-0.0148338591 0.4895174,-0.0296677191 h 0.5043512 c 0.7713608,0 0.9790348,0.0296677191 1.0383703,0.0296677191 0.044502,0 0.1483386,0 0.1483386,-0.14833860911 0,-0.11867088 -0.103837,-0.11867088 -0.2373418,-0.11867088 -0.014834,0 -0.1631725,0 -0.2966772,-0.0148339 -0.1631725,-0.0148339 -0.1928402,-0.0296677 -0.1928402,-0.10383702 0,-0.0445016 0.029668,-0.0890032 0.029668,-0.13350475 z m 0,0" style="fill:#ffffff;fill-opacity:1;fill-rule:nonzero;stroke:none" aria-label="H" transform="matrix(1.0533333,0,0,1.0533333,196.87991,137.94084)" />
    <path id="path27" d="m -76.5362,-8.50403 h 17.00806 V 8.50403 H -76.5362 Z" style="fill:#78a9ff;fill-opacity:1;fill-rule:nonzero;stroke:#78a9ff;stroke-width:0.3985;stroke-linecap:butt;stroke-linejoin:miter;stroke-miterlimit:10;stroke-dasharray:none;stroke-opacity:1" transform="matrix(1.0533333,0,0,-1.0533333,272.52715,155.97391)" />
    <path id="path28" d="m 6.3627765,-4.7898022 c 0.074169,-0.3115111 0.103837,-0.3856804 0.6526899,-0.3856804 0.1780063,0 0.2818433,0 0.2818433,-0.1483386 0,-0.014834 -0.014834,-0.1186709 -0.1335047,-0.1186709 -0.1483386,0 -0.3411788,0.014834 -0.5043513,0.029668 H 6.1699363 c -0.7713607,0 -0.9790348,-0.029668 -1.0383702,-0.029668 -0.029668,0 -0.1483386,0 -0.1483386,0.1483386 0,0.1186709 0.103837,0.1186709 0.2225079,0.1186709 0.2670095,0 0.4895174,0 0.4895174,0.1335048 0,0.029668 0,0.029668 -0.029668,0.1335047 L 5.1909015,-2.9652373 H 2.6246436 l 0.4598497,-1.8542326 c 0.074169,-0.2818434 0.089003,-0.3560127 0.6675237,-0.3560127 0.1631725,0 0.2670095,0 0.2670095,-0.1483386 0,-0.014834 -0.014834,-0.1186709 -0.1335047,-0.1186709 -0.1631725,0 -0.3560127,0.014834 -0.5043513,0.029668 H 2.8768192 c -0.7565269,0 -0.9642009,-0.029668 -1.0235364,-0.029668 -0.029668,0 -0.1631724,0 -0.1631724,0.1483386 0,0.1186709 0.103837,0.1186709 0.2373417,0.1186709 0.2670095,0 0.4895174,0 0.4895174,0.1335048 0,0.029668 0,0.029668 -0.029668,0.1335047 l -1.068038,4.28698576 c -0.074169,0.29667721 -0.089003,0.35601266 -0.68235755,0.35601266 -0.14833861,0 -0.23734177,0 -0.23734177,0.1483386 0,0.04450159 0.0148339,0.11867089 0.11867088,0.11867089 0.16317247,0 0.35601266,-0.01483386 0.50435124,-0.02966772 h 0.5043513 c 0.7713608,0 0.9790348,0.02966772 1.0235364,0.02966772 0.059335,0 0.1631725,0 0.1631725,-0.14833861 0,-0.11867088 -0.1038371,-0.11867088 -0.2373418,-0.11867088 -0.029668,0 -0.1631725,0 -0.2966772,-0.0148339 -0.1780064,-0.0148339 -0.1928402,-0.0296677 -0.1928402,-0.10383703 0,-0.0445016 0.014834,-0.0890032 0.029668,-0.13350475 l 0.534019,-2.18057744 h 2.5662579 c -0.2225079,0.9345332 -0.534019,2.18057744 -0.5488528,2.18057744 -0.074169,0.25217564 -0.2076741,0.25217564 -0.6823576,0.25217564 -0.1038371,0 -0.2076741,0 -0.2076741,0.1483386 0,0.04450159 0.029668,0.11867089 0.1335048,0.11867089 0.1483386,0 0.3411787,-0.01483386 0.4895174,-0.02966772 h 0.5043512 c 0.7713608,0 0.9790348,0.02966772 1.0383703,0.02966772 0.044502,0 0.1483386,0 0.1483386,-0.14833861 0,-0.11867088 -0.103837,-0.11867088 -0.2373418,-0.11867088 -0.014834,0 -0.1631725,0 -0.2966772,-0.0148339 -0.1631725,-0.0148339 -0.1928402,-0.0296677 -0.1928402,-0.10383703 0,-0.0445016 0.029668,-0.0890032 0.029668,-0.13350475 z m 0,0" style="fill:#ffffff;fill-opacity:1;fill-rule:nonzero;stroke:none" aria-label="H" transform="matrix(1.0533333,0,0,1.0533333,196.87991,158.84213)" />
    <g id="g28" aria-label="α∣0⟩+β∣1⟩" transform="matrix(1.0533333,0,0,1.0533333,62.203867,116.48023)">
      <path id="path29" d="m 4.0637737,-1.1123097 c 0.7416931,-0.8158624 1.0087026,-1.8542326 1.0087026,-1.9135681 0,-0.074169 -0.059335,-0.103837 -0.1335048,-0.103837 -0.103837,0 -0.103837,0.029668 -0.1483386,0.1928402 -0.2225079,0.8158623 -0.7120253,1.4388845 -0.7268592,1.4388845 -0.014834,0 -0.014834,-0.1928402 -0.014834,-0.3263449 -0.014834,-1.394383 -0.9196994,-1.6910602 -1.4685522,-1.6910602 -1.1273735,0 -2.22507916,1.0977057 -2.22507916,2.2102453 0,0.80102846 0.54885285,1.37954903 1.39438296,1.37954903 0.5488528,0 1.1422072,-0.19284019 1.7652294,-0.66752373 0.1780063,0.63785601 0.637856,0.66752373 0.7861946,0.66752373 0.4598497,0 0.7120253,-0.40051424 0.7120253,-0.54885285 0,-0.10383702 -0.089003,-0.10383702 -0.1186709,-0.10383702 -0.089003,0 -0.103837,0.0296677 -0.1186708,0.0890032 -0.1335048,0.32634494 -0.4005143,0.3411788 -0.4450159,0.3411788 -0.103837,0 -0.2373417,0 -0.2670093,-0.96420096 z m -0.5933544,0.26700946 c -0.5785206,0.50435127 -1.2460443,0.69719146 -1.705894,0.69719146 -0.4153481,0 -0.77136074,-0.23734177 -0.77136074,-0.87519782 0,-0.2818433 0.13350474,-1.0977057 0.50435124,-1.6317246 0.3115111,-0.4450159 0.7416931,-0.6378561 1.068038,-0.6378561 0.4450158,0 0.6971915,0.3115111 0.8010285,0.8010285 0.1186709,0.534019 0.044502,1.171875 0.103837,1.64655856 z m 0,0" style="fill:#121619;fill-opacity:1;fill-rule:nonzero;stroke:none" />
      <path id="path30" d="m 6.641157,-6.0964869 v 7.8026107 h 0.5043513 v -7.8026107 z m 0,0" style="fill:#121619;fill-opacity:1;fill-rule:nonzero;stroke:none" />
      <path id="path31" d="m 12.240939,-2.5363604 c 0,-0.8603639 -0.089,-1.379549 -0.356012,-1.8839003 -0.356013,-0.6971914 -0.993869,-0.8751978 -1.438885,-0.8751978 -0.9938683,0 -1.3647149,0.7416931 -1.4833858,0.964201 -0.2818433,0.5933544 -0.2966772,1.379549 -0.2966772,1.7948971 0,0.5191852 0.029668,1.3202136 0.4005143,1.95806966 0.3708465,0.59335443 0.9642007,0.74169303 1.3795487,0.74169303 0.385681,0 1.068038,-0.11867088 1.468553,-0.9048655 0.296677,-0.57852059 0.326344,-1.27571199 0.326344,-1.79489719 z m -1.794897,2.47725478 c -0.267009,0 -0.815862,-0.11867088 -0.9790345,-0.96420098 -0.089003,-0.4450158 -0.089003,-1.2015427 -0.089003,-1.6168908 0,-0.5488528 0,-1.0977057 0.089003,-1.5427215 0.1631725,-0.8158623 0.7861945,-0.8900317 0.9790345,-0.8900317 0.281844,0 0.830697,0.1335048 0.979035,0.860364 0.103837,0.4301819 0.103837,1.0383702 0.103837,1.5723892 0,0.4746836 0,1.1867089 -0.103837,1.6317247 -0.163172,0.84553006 -0.712025,0.94936708 -0.979035,0.94936708 z m 0,0" style="fill:#121619;fill-opacity:1;fill-rule:nonzero;stroke:none" />
      <path id="path32" d="m 13.791078,1.795127 1.424051,-3.9903086 -1.424051,-3.9903085 -0.489517,0.1780063 1.438884,3.8123022 -1.438884,3.8271361 z m 0,0" style="fill:#121619;fill-opacity:1;fill-rule:nonzero;stroke:none" />
      <path id="path33" d="m 20.336519,-4.3460914 v 1.8987342 h -1.898734 v 0.5191851 h 1.898734 v 1.88390034 h 0.519185 V -1.9281721 h 1.8839 v -0.5191851 h -1.8839 v -1.8987342 z m 0,0" style="fill:#121619;fill-opacity:1;fill-rule:nonzero;stroke:none" />
      <path id="path34" d="m 30.011905,-4.5389316 c 0,-0.7120253 -0.593355,-1.0828718 -1.246045,-1.0828718 -1.023536,0 -1.794897,1.171875 -2.017405,2.0470728 l -1.260878,5.0286788 c -0.01483,0.044502 0.0445,0.089003 0.103837,0.089003 0.05934,0 0.118671,0 0.133505,-0.059335 l 0.548853,-2.12124209 c 0.178006,0.43018197 0.548853,0.71202532 1.127373,0.71202532 1.097706,0 2.299249,-0.78619462 2.299249,-2.04707283 0,-0.5340189 -0.192841,-0.8751977 -0.593355,-1.2015427 0.0445,-0.014834 0.19284,-0.1186709 0.237342,-0.1483386 0.38568,-0.2670095 0.667524,-0.7268592 0.667524,-1.2163769 z m -1.57239,1.3647152 c -0.133504,0.014834 -0.281843,0.029668 -0.430182,0.029668 -0.089,0 -0.178006,0 -0.267009,-0.029668 0.148339,-0.029668 0.311511,-0.029668 0.45985,-0.029668 0.089,0 0.163172,0 0.237341,0.029668 z m 1.068038,-1.5130538 c 0,0.4005143 -0.163172,0.8751978 -0.445015,1.1570412 -0.0445,0.029668 -0.207674,0.1780063 -0.252176,0.1928402 -0.222508,-0.044502 -0.400514,-0.089003 -0.637856,-0.089003 -0.207674,0 -0.712025,-0.029668 -0.712025,0.2818433 0,0.2521757 0.459849,0.222508 0.623022,0.222508 0.237342,0 0.474683,-0.014834 0.712025,-0.1038371 0.237342,0.1928402 0.356013,0.4450159 0.356013,0.8455301 0,0.4746835 -0.163173,0.9938687 -0.400514,1.30537974 -0.296678,0.43018196 -0.786195,0.72685918 -1.37955,0.72685918 -0.534019,0 -0.934533,-0.4153481 -0.934533,-0.96420092 0,-0.1038371 0,-0.2076741 0.02967,-0.2966772 l 0.519185,-2.1064083 c 0.178006,-0.7120253 0.860364,-1.8839003 1.750396,-1.8839003 0.400514,0 0.77136,0.2076741 0.77136,0.7120253 z m 0,0" style="fill:#121619;fill-opacity:1;fill-rule:nonzero;stroke:none" />
      <path id="path35" d="m 31.599128,-6.0964869 v 7.8026107 h 0.504351 v -7.8026107 z m 0,0" style="fill:#121619;fill-opacity:1;fill-rule:nonzero;stroke:none" />
      <path id="path36" d="m 35.804527,-5.0729506 c 0,-0.2225079 -0.01483,-0.2225079 -0.237341,-0.2225079 -0.326345,0.3115111 -0.741694,0.5043513 -1.49822,0.5043513 v 0.2670095 c 0.207674,0 0.637856,0 1.097705,-0.2225079 v 4.09414555 c 0,0.29667722 -0.01483,0.38568038 -0.77136,0.38568038 H 34.113467 V 2.2982595e-4 C 34.439812,-0.0294379 35.12217,-0.0294379 35.478182,-0.0294379 c 0.356013,0 1.053204,0 1.379549,0.029667726 V -0.26677967 h -0.281843 c -0.756527,0 -0.771361,-0.0890032 -0.771361,-0.38568038 z m 0,0" style="fill:#121619;fill-opacity:1;fill-rule:nonzero;stroke:none" />
      <path id="path37" d="m 38.749049,1.795127 1.42405,-3.9903086 -1.42405,-3.9903085 -0.489518,0.1780063 1.438885,3.8123022 -1.438885,3.8271361 z m 0,0" style="fill:#121619;fill-opacity:1;fill-rule:nonzero;stroke:none" />
    </g>
    <g id="g37" aria-label="∣0⟩" transform="matrix(1.0533333,0,0,1.0533333,115.12228,137.38152)">
      <path id="path38" d="M 1.2004165,-6.0954897 V 1.707121 h 0.5043513 v -7.8026107 z m 0,0" style="fill:#121619;fill-opacity:1;fill-rule:nonzero;stroke:none" />
      <path id="path39" d="m 6.8039074,-2.5353631 c 0,-0.860364 -0.089003,-1.3795491 -0.3560126,-1.8839003 -0.3560127,-0.6971915 -0.9938687,-0.8751978 -1.4388845,-0.8751978 -0.9938687,0 -1.3647152,0.741693 -1.4833861,0.9642009 -0.2818433,0.5933544 -0.2966772,1.3795491 -0.2966772,1.7948972 0,0.5191851 0.029668,1.3202136 0.4005142,1.95806959 0.3708466,0.59335443 0.964201,0.74169304 1.3795491,0.74169304 0.3856804,0 1.068038,-0.11867089 1.4685522,-0.90486551 C 6.7742397,-1.3189866 6.8039074,-2.016178 6.8039074,-2.5353631 Z m -1.7948971,2.47725471 c -0.2670095,0 -0.8158624,-0.11867088 -0.9790348,-0.96420091 -0.089003,-0.4450159 -0.089003,-1.2015428 -0.089003,-1.6168909 0,-0.5488528 0,-1.0977057 0.089003,-1.5427215 0.1631724,-0.8158623 0.7861946,-0.8900316 0.9790348,-0.8900316 0.2818433,0 0.8306962,0.1335047 0.9790348,0.8603639 0.103837,0.430182 0.103837,1.0383703 0.103837,1.5723892 0,0.4746836 0,1.1867089 -0.103837,1.6317247 -0.1631725,0.84553009 -0.7120253,0.94936711 -0.9790348,0.94936711 z m 0,0" style="fill:#121619;fill-opacity:1;fill-rule:nonzero;stroke:none" />
      <path id="path40" d="M 8.3540459,1.7961242 9.7780965,-2.1941843 8.3540459,-6.1844929 7.8645285,-6.0064866 9.303413,-2.1941843 7.8645285,1.6329517 Z m 0,0" style="fill:#121619;fill-opacity:1;fill-rule:nonzero;stroke:none" />
    </g>
    <g id="g40" aria-label="∣0⟩" transform="matrix(1.0533333,0,0,1.0533333,115.12228,158.28281)">
      <path id="path41" d="m 1.2004165,-6.0982009 v 7.8026107 h 0.5043513 v -7.8026107 z m 0,0" style="fill:#121619;fill-opacity:1;fill-rule:nonzero;stroke:none" />
      <path id="path42" d="m 6.8039074,-2.5380744 c 0,-0.8603639 -0.089003,-1.379549 -0.3560126,-1.8839003 -0.3560127,-0.6971914 -0.9938687,-0.8751978 -1.4388845,-0.8751978 -0.9938687,0 -1.3647152,0.7416931 -1.4833861,0.964201 -0.2818433,0.5933544 -0.2966772,1.379549 -0.2966772,1.7948971 0,0.5191852 0.029668,1.3202136 0.4005142,1.95806965 0.3708466,0.59335443 0.964201,0.74169304 1.3795491,0.74169304 0.3856804,0 1.068038,-0.11867088 1.4685522,-0.90486551 C 6.7742397,-1.3216978 6.8039074,-2.0188892 6.8039074,-2.5380744 Z m -1.7948971,2.47725478 c -0.2670095,0 -0.8158624,-0.11867089 -0.9790348,-0.96420098 -0.089003,-0.4450158 -0.089003,-1.2015427 -0.089003,-1.6168908 0,-0.5488528 0,-1.0977057 0.089003,-1.5427215 0.1631724,-0.8158624 0.7861946,-0.8900317 0.9790348,-0.8900317 0.2818433,0 0.8306962,0.1335048 0.9790348,0.860364 0.103837,0.4301819 0.103837,1.0383702 0.103837,1.5723892 0,0.4746836 0,1.1867089 -0.103837,1.6317247 -0.1631725,0.84553005 -0.7120253,0.94936708 -0.9790348,0.94936708 z m 0,0" style="fill:#121619;fill-opacity:1;fill-rule:nonzero;stroke:none" />
      <path id="path43" d="M 8.3540459,1.793413 9.7780965,-2.1968956 8.3540459,-6.1872041 7.8645285,-6.0091978 9.303413,-2.1968956 7.8645285,1.6302405 Z m 0,0" style="fill:#121619;fill-opacity:1;fill-rule:nonzero;stroke:none" />
    </g>
    <path id="path44" d="m 96.37906,-28.3467 h 17.00806 v 17.00806 H 96.37906 Z" style="fill:#78a9ff;fill-opacity:1;fill-rule:nonzero;stroke:#78a9ff;stroke-width:0.3985;stroke-linecap:butt;stroke-linejoin:miter;stroke-miterlimit:10;stroke-dasharray:none;stroke-opacity:1" transform="matrix(1.0533333,0,0,-1.0533333,272.52715,155.97391)" />
    <path id="path45" d="m 6.3623829,-4.7925134 c 0.074169,-0.3115111 0.103837,-0.3856804 0.6526899,-0.3856804 0.1780063,0 0.2818433,0 0.2818433,-0.1483386 0,-0.014834 -0.014834,-0.1186709 -0.1335047,-0.1186709 -0.1483386,0 -0.3411788,0.014834 -0.5043513,0.029668 H 6.1695427 c -0.7713607,0 -0.9790348,-0.029668 -1.0383702,-0.029668 -0.029668,0 -0.1483386,0 -0.1483386,0.1483386 0,0.1186709 0.103837,0.1186709 0.2225079,0.1186709 0.2670095,0 0.4895174,0 0.4895174,0.1335047 0,0.029668 0,0.029668 -0.029668,0.1335048 L 5.1905079,-2.9679486 H 2.62425 l 0.4598497,-1.8542326 c 0.074169,-0.2818433 0.089003,-0.3560126 0.6675237,-0.3560126 0.1631725,0 0.2670095,0 0.2670095,-0.1483386 0,-0.014834 -0.014834,-0.1186709 -0.1335047,-0.1186709 -0.1631725,0 -0.3560127,0.014834 -0.5043513,0.029668 H 2.8764256 c -0.7565269,0 -0.9642009,-0.029668 -1.0235364,-0.029668 -0.029668,0 -0.1631724,0 -0.1631724,0.1483386 0,0.1186709 0.103837,0.1186709 0.2373417,0.1186709 0.2670095,0 0.4895174,0 0.4895174,0.1335047 0,0.029668 0,0.029668 -0.029668,0.1335048 L 1.31887,-0.62419858 c -0.074169,0.29667722 -0.089003,0.35601266 -0.68235764,0.35601266 -0.14833861,0 -0.23734177,0 -0.23734177,0.14833861 0,0.04450158 0.0148339,0.11867089 0.11867088,0.11867089 0.16317247,0 0.35601266,-0.01483386 0.50435123,-0.02966773 H 1.526544 c 0.7713608,0 0.9790348,0.02966773 1.0235364,0.02966773 0.059335,0 0.1631725,0 0.1631725,-0.14833861 0,-0.11867089 -0.1038371,-0.11867089 -0.2373418,-0.11867089 -0.029668,0 -0.1631725,0 -0.2966772,-0.0148339 C 2.0012278,-0.29785364 1.986394,-0.3126875 1.986394,-0.3868568 c 0,-0.0445016 0.014834,-0.0890032 0.029668,-0.13350475 L 2.550081,-2.7009391 h 2.5662579 c -0.2225079,0.9345332 -0.534019,2.18057755 -0.5488528,2.18057755 -0.074169,0.25217563 -0.2076741,0.25217563 -0.6823576,0.25217563 -0.1038371,0 -0.2076741,0 -0.2076741,0.14833861 0,0.04450158 0.029668,0.11867089 0.1335048,0.11867089 0.1483386,0 0.3411788,-0.01483386 0.4895174,-0.02966773 h 0.5043512 c 0.7713608,0 0.9790348,0.02966773 1.0383703,0.02966773 0.044502,0 0.1483386,0 0.1483386,-0.14833861 0,-0.11867089 -0.103837,-0.11867089 -0.2373418,-0.11867089 -0.014834,0 -0.1631724,0 -0.2966772,-0.0148339 -0.1631725,-0.0148339 -0.1928402,-0.0296677 -0.1928402,-0.10383702 0,-0.0445016 0.029668,-0.0890032 0.029668,-0.13350475 z m 0,0" style="fill:#ffffff;fill-opacity:1;fill-rule:nonzero;stroke:none" aria-label="H" transform="matrix(1.0533333,0,0,1.0533333,379.01704,179.74343)" />
    <path id="path46" d="m 96.37906,-48.18938 h 17.00806 v 17.00806 H 96.37906 Z" style="fill:#78a9ff;fill-opacity:1;fill-rule:nonzero;stroke:#78a9ff;stroke-width:0.3985;stroke-linecap:butt;stroke-linejoin:miter;stroke-miterlimit:10;stroke-dasharray:none;stroke-opacity:1" transform="matrix(1.0533333,0,0,-1.0533333,272.52715,155.97391)" />
    <path id="path47" d="m 6.3623829,-4.7905162 c 0.074169,-0.3115111 0.103837,-0.3856804 0.6526899,-0.3856804 0.1780063,0 0.2818433,0 0.2818433,-0.1483386 0,-0.014834 -0.014834,-0.1186709 -0.1335047,-0.1186709 -0.1483386,0 -0.3411788,0.014834 -0.5043513,0.029668 H 6.1695427 c -0.7713607,0 -0.9790348,-0.029668 -1.0383702,-0.029668 -0.029668,0 -0.1483386,0 -0.1483386,0.1483386 0,0.1186709 0.103837,0.1186709 0.2225079,0.1186709 0.2670095,0 0.4895174,0 0.4895174,0.1335047 0,0.029668 0,0.029668 -0.029668,0.1335048 L 5.1905079,-2.9659513 H 2.62425 l 0.4598497,-1.8542326 c 0.074169,-0.2818434 0.089003,-0.3560127 0.6675237,-0.3560127 0.1631725,0 0.2670095,0 0.2670095,-0.1483386 0,-0.014834 -0.014834,-0.1186709 -0.1335047,-0.1186709 -0.1631725,0 -0.3560127,0.014834 -0.5043513,0.029668 H 2.8764256 c -0.7565269,0 -0.9642009,-0.029668 -1.0235364,-0.029668 -0.029668,0 -0.1631724,0 -0.1631724,0.1483386 0,0.1186709 0.103837,0.1186709 0.2373417,0.1186709 0.2670095,0 0.4895174,0 0.4895174,0.1335047 0,0.029668 0,0.029668 -0.029668,0.1335048 L 1.31887,-0.62220134 c -0.074169,0.29667721 -0.089003,0.35601265 -0.68235764,0.35601265 -0.14833861,0 -0.23734177,0 -0.23734177,0.14833861 0,0.04450158 0.0148339,0.11867088696 0.11867088,0.11867088696 0.16317247,0 0.35601266,-0.014833857 0.50435123,-0.029667717 H 1.526544 c 0.7713608,0 0.9790348,0.029667717 1.0235364,0.029667717 0.059335,0 0.1631725,0 0.1631725,-0.14833860696 0,-0.11867089 -0.1038371,-0.11867089 -0.2373418,-0.11867089 -0.029668,0 -0.1631725,0 -0.2966772,-0.0148339 -0.1780064,-0.0148339 -0.1928402,-0.0296677 -0.1928402,-0.10383702 0,-0.0445016 0.014834,-0.0890032 0.029668,-0.13350475 l 0.534019,-2.18057754 h 2.5662579 c -0.2225079,0.9345333 -0.534019,2.18057754 -0.5488528,2.18057754 -0.074169,0.25217563 -0.2076741,0.25217563 -0.6823576,0.25217563 -0.1038371,0 -0.2076741,0 -0.2076741,0.14833861 0,0.04450158 0.029668,0.11867088696 0.1335048,0.11867088696 0.1483386,0 0.3411788,-0.014833857 0.4895174,-0.029667717 h 0.5043512 c 0.7713608,0 0.9790348,0.029667717 1.0383703,0.029667717 0.044502,0 0.1483386,0 0.1483386,-0.14833860696 0,-0.11867089 -0.103837,-0.11867089 -0.2373418,-0.11867089 -0.014834,0 -0.1631724,0 -0.2966772,-0.0148339 -0.1631725,-0.0148339 -0.1928402,-0.0296677 -0.1928402,-0.10383702 0,-0.0445016 0.029668,-0.0890032 0.029668,-0.13350475 z m 0,0" style="fill:#ffffff;fill-opacity:1;fill-rule:nonzero;stroke:none" aria-label="H" transform="matrix(1.0533333,0,0,1.0533333,379.01704,200.64367)" />
    <g id="g47" aria-label="∣+⟩" transform="matrix(1.0533333,0,0,1.0533333,264.32379,179.18305)">
      <path id="path48" d="M 1.2019529,-6.0962037 V 1.706407 h 0.5043513 v -7.8026107 z m 0,0" style="fill:#121619;fill-opacity:1;fill-rule:nonzero;stroke:none" />
      <path id="path49" d="M 5.5111895,-4.3458081 V -2.447074 H 3.6124553 v 0.5191852 h 1.8987342 v 1.88390027 H 6.0303746 V -1.9278888 H 7.9142749 V -2.447074 H 6.0303746 v -1.8987341 z m 0,0" style="fill:#121619;fill-opacity:1;fill-rule:nonzero;stroke:none" />
      <path id="path50" d="m 9.8575107,1.7954102 1.4240503,-3.9903085 -1.4240503,-3.9903086 -0.4895174,0.1780063 1.4388847,3.8123023 -1.4388847,3.827136 z m 0,0" style="fill:#121619;fill-opacity:1;fill-rule:nonzero;stroke:none" />
    </g>
    <g id="g50" aria-label="∣+⟩" transform="matrix(1.0533333,0,0,1.0533333,264.32379,200.08435)">
      <path id="path51" d="m 1.2019529,-6.0952065 v 7.8026108 h 0.5043513 v -7.8026108 z m 0,0" style="fill:#121619;fill-opacity:1;fill-rule:nonzero;stroke:none" />
      <path id="path52" d="m 5.5111895,-4.3448109 v 1.8987342 H 3.6124553 v 0.5191851 h 1.8987342 v 1.8839003 H 6.0303746 V -1.9268916 H 7.9142749 V -2.4460767 H 6.0303746 v -1.8987342 z m 0,0" style="fill:#121619;fill-opacity:1;fill-rule:nonzero;stroke:none" />
      <path id="path53" d="M 9.8575107,1.7964074 11.281561,-2.1939011 9.8575107,-6.1842097 9.3679933,-6.0062033 10.806878,-2.1939011 9.3679933,1.633235 Z m 0,0" style="fill:#121619;fill-opacity:1;fill-rule:nonzero;stroke:none" />
    </g>
    <path id="path54" d="m 140.51576,-18.99226 h 12.53597" style="fill:none;stroke:#121619;stroke-width:0.3985;stroke-linecap:butt;stroke-linejoin:miter;stroke-miterlimit:10;stroke-dasharray:none;stroke-opacity:1" transform="matrix(1.0533333,0,0,-1.0533333,272.52715,155.97391)" />
    <path id="path55" d="m 140.51576,-20.69307 h 12.53597" style="fill:none;stroke:#121619;stroke-width:0.3985;stroke-linecap:butt;stroke-linejoin:miter;stroke-miterlimit:10;stroke-dasharray:none;stroke-opacity:1" transform="matrix(1.0533333,0,0,-1.0533333,272.52715,155.97391)" />
    <path id="path56" d="m 140.51576,-38.83495 h 12.53597" style="fill:none;stroke:#121619;stroke-width:0.3985;stroke-linecap:butt;stroke-linejoin:miter;stroke-miterlimit:10;stroke-dasharray:none;stroke-opacity:1" transform="matrix(1.0533333,0,0,-1.0533333,272.52715,155.97391)" />
    <path id="path57" d="m 140.51576,-40.53575 h 12.53597" style="fill:none;stroke:#121619;stroke-width:0.3985;stroke-linecap:butt;stroke-linejoin:miter;stroke-miterlimit:10;stroke-dasharray:none;stroke-opacity:1" transform="matrix(1.0533333,0,0,-1.0533333,272.52715,155.97391)" />
    <path id="path58" d="m 22.33336,-19.84267 c 0,1.37558 -1.11511,2.4907 -2.49069,2.4907 -1.37558,0 -2.4907,-1.11512 -2.4907,-2.4907 0,-1.37558 1.11512,-2.49069 2.4907,-2.49069 1.37558,0 2.49069,1.11511 2.49069,2.49069 z" style="fill:#78a9ff;fill-opacity:1;fill-rule:nonzero;stroke:none" transform="matrix(1.0533333,0,0,-1.0533333,272.52715,155.97391)" />
    <path id="path59" d="m 42.17604,-19.84267 c 0,1.37558 -1.11511,2.4907 -2.49069,2.4907 -1.37558,0 -2.49069,-1.11512 -2.49069,-2.4907 0,-1.37558 1.11511,-2.49069 2.49069,-2.49069 1.37558,0 2.49069,1.11511 2.49069,2.49069 z" style="fill:#78a9ff;fill-opacity:1;fill-rule:nonzero;stroke:none" transform="matrix(1.0533333,0,0,-1.0533333,272.52715,155.97391)" />
    <path id="path60" d="m 62.01915,-39.68535 c 0,1.37558 -1.11511,2.49069 -2.49069,2.49069 -1.37558,0 -2.49069,-1.11511 -2.49069,-2.49069 0,-1.37558 1.11511,-2.49069 2.49069,-2.49069 1.37558,0 2.49069,1.11511 2.49069,2.49069 z" style="fill:#78a9ff;fill-opacity:1;fill-rule:nonzero;stroke:none" transform="matrix(1.0533333,0,0,-1.0533333,272.52715,155.97391)" />
    <path id="path61" d="m 81.86183,-39.68535 c 0,1.37558 -1.11511,2.49069 -2.49069,2.49069 -1.3756,0 -2.49069,-1.11511 -2.49069,-2.49069 0,-1.37558 1.11509,-2.49069 2.49069,-2.49069 1.37558,0 2.49069,1.11511 2.49069,2.49069 z" style="fill:#78a9ff;fill-opacity:1;fill-rule:nonzero;stroke:none" transform="matrix(1.0533333,0,0,-1.0533333,272.52715,155.97391)" />
    <path id="path62" d="m 25.82033,39.68535 c 0,3.30142 -2.67626,5.97766 -5.97766,5.97766 -3.30143,0 -5.97767,-2.67624 -5.97767,-5.97766 0,-3.30141 2.67624,-5.97766 5.97767,-5.97766 3.3014,0 5.97766,2.67625 5.97766,5.97766 z" style="fill:#78a9ff;fill-opacity:1;fill-rule:nonzero;stroke:#78a9ff;stroke-width:0.3985;stroke-linecap:butt;stroke-linejoin:miter;stroke-miterlimit:10;stroke-dasharray:none;stroke-opacity:1" transform="matrix(1.0533333,0,0,-1.0533333,272.52715,155.97391)" />
    <path id="path63" d="m 4.7026262,-7.8184869 v 3.4117879 h -3.411788 v 0.9196994 h 3.411788 v 3.41178797 H 5.6223256 V -3.4869996 H 9.0341135 V -4.406699 H 5.6223256 v -3.4117879 z m 0,0" style="fill:#ffffff;fill-opacity:1;fill-rule:nonzero;stroke:none" aria-label="+" transform="matrix(1.0533333,0,0,1.0533333,287.98797,118.29407)" />
    <path id="path64" d="m 45.66301,19.84267 c 0,3.3014 -2.67624,5.97766 -5.97766,5.97766 -3.30141,0 -5.97766,-2.67626 -5.97766,-5.97766 0,-3.30143 2.67625,-5.97767 5.97766,-5.97767 3.30142,0 5.97766,2.67624 5.97766,5.97767 z" style="fill:#78a9ff;fill-opacity:1;fill-rule:nonzero;stroke:#78a9ff;stroke-width:0.3985;stroke-linecap:butt;stroke-linejoin:miter;stroke-miterlimit:10;stroke-dasharray:none;stroke-opacity:1" transform="matrix(1.0533333,0,0,-1.0533333,272.52715,155.97391)" />
    <path id="path65" d="m 4.7036234,-7.8164897 v 3.411788 h -3.411788 v 0.9196993 h 3.411788 v 3.411788 h 0.9196994 v -3.411788 h 3.411788 v -0.9196993 h -3.411788 v -3.411788 z m 0,0" style="fill:#ffffff;fill-opacity:1;fill-rule:nonzero;stroke:none" aria-label="+" transform="matrix(1.0533333,0,0,1.0533333,308.88927,139.19431)" />
    <path id="path66" d="m 65.50612,19.84267 c 0,3.3014 -2.67624,5.97766 -5.97766,5.97766 -3.30141,0 -5.97766,-2.67626 -5.97766,-5.97766 0,-3.30143 2.67625,-5.97767 5.97766,-5.97767 3.30142,0 5.97766,2.67624 5.97766,5.97767 z" style="fill:#78a9ff;fill-opacity:1;fill-rule:nonzero;stroke:#78a9ff;stroke-width:0.3985;stroke-linecap:butt;stroke-linejoin:miter;stroke-miterlimit:10;stroke-dasharray:none;stroke-opacity:1" transform="matrix(1.0533333,0,0,-1.0533333,272.52715,155.97391)" />
    <path id="path67" d="m 4.7009122,-7.8164897 v 3.411788 h -3.411788 v 0.9196993 h 3.411788 v 3.411788 h 0.9196994 v -3.411788 H 9.0323995 V -4.4047017 H 5.6206116 v -3.411788 z m 0,0" style="fill:#ffffff;fill-opacity:1;fill-rule:nonzero;stroke:none" aria-label="+" transform="matrix(1.0533333,0,0,1.0533333,329.79056,139.19431)" />
    <path id="path68" d="m 85.3488,0 c 0,3.3014 -2.67625,5.97766 -5.97766,5.97766 -3.30142,0 -5.97766,-2.67626 -5.97766,-5.97766 0,-3.3014 2.67624,-5.97766 5.97766,-5.97766 3.30141,0 5.97766,2.67626 5.97766,5.97766 z" style="fill:#78a9ff;fill-opacity:1;fill-rule:nonzero;stroke:#78a9ff;stroke-width:0.3985;stroke-linecap:butt;stroke-linejoin:miter;stroke-miterlimit:10;stroke-dasharray:none;stroke-opacity:1" transform="matrix(1.0533333,0,0,-1.0533333,272.52715,155.97391)" />
    <path id="path69" d="m 4.7029094,-7.8192009 v 3.4117879 h -3.411788 v 0.9196994 h 3.411788 v 3.41178797 H 5.6226088 V -3.4877136 h 3.411788 V -4.407413 h -3.411788 v -3.4117879 z m 0,0" style="fill:#ffffff;fill-opacity:1;fill-rule:nonzero;stroke:none" aria-label="+" transform="matrix(1.0533333,0,0,1.0533333,350.6908,160.0956)" />
    <path id="path70" d="M 19.84267,-19.84267 V 33.50844" style="fill:none;stroke:#78a9ff;stroke-width:0.79701;stroke-linecap:butt;stroke-linejoin:miter;stroke-miterlimit:10;stroke-dasharray:none;stroke-opacity:1" transform="matrix(1.0533333,0,0,-1.0533333,272.52715,155.97391)" />
    <path id="path71" d="M 39.68535,-19.84267 V 13.66576" style="fill:none;stroke:#78a9ff;stroke-width:0.79701;stroke-linecap:butt;stroke-linejoin:miter;stroke-miterlimit:10;stroke-dasharray:none;stroke-opacity:1" transform="matrix(1.0533333,0,0,-1.0533333,272.52715,155.97391)" />
    <path id="path72" d="M 59.52846,-39.68535 V 13.66576" style="fill:none;stroke:#78a9ff;stroke-width:0.79701;stroke-linecap:butt;stroke-linejoin:miter;stroke-miterlimit:10;stroke-dasharray:none;stroke-opacity:1" transform="matrix(1.0533333,0,0,-1.0533333,272.52715,155.97391)" />
    <path id="path73" d="M 79.37114,-39.68535 V -6.17691" style="fill:none;stroke:#78a9ff;stroke-width:0.79701;stroke-linecap:butt;stroke-linejoin:miter;stroke-miterlimit:10;stroke-dasharray:none;stroke-opacity:1" transform="matrix(1.0533333,0,0,-1.0533333,272.52715,155.97391)" />
    <g id="g73" aria-label="⎫&#10;⎪&#10;⎪&#10;⎪&#10;⎪&#10;⎪&#10;⎪&#10;⎪&#10;⎬&#10;⎪&#10;⎪&#10;⎪&#10;⎪&#10;⎪&#10;⎪&#10;⎪&#10;⎭&#10;α∣+++⟩+β∣−−−⟩" transform="matrix(1.0533333,0,0,1.0533333,455.94724,115.28785)">
      <path id="path74" d="m 0.71019541,-4.5380134 v 0.4301819 c 0.72685919,0 1.37954909,0.4895174 1.37954909,1.171875 V 0.40166218 H 2.5940957 V -2.9359565 c 0,-0.9493671 -0.8900316,-1.6020569 -1.88390029,-1.6020569 z M 2.0897445,-0.18056685 V 2.6675344 h 0.5043512 v -2.84810125 z m 0,2.34374995 V 5.0112844 H 2.5940957 V 2.1631831 Z m 0,2.34375 V 7.3550344 H 2.5940957 V 4.5069331 Z m 0,2.34375 V 9.6987844 H 2.5940957 V 6.8506831 Z m 0,2.3400416 V 12.038826 H 2.5940957 V 9.1907247 Z m 0,2.3437503 v 2.848101 h 0.5043512 v -2.848101 z m 0,2.34375 v 2.848101 h 0.5043512 v -2.848101 z m 0,7.535601 h 0.5043512 v -1.246044 c 0,-0.637856 0.6081883,-1.082872 1.2905459,-1.11254 h 0.089003 v -0.45985 c -0.7120253,0 -1.3795491,-0.445015 -1.3795491,-1.112539 v -1.260878 h -0.504351 v 1.260878 c 0,0.593354 0.3560126,1.068038 0.8900316,1.335047 -0.534019,0.26701 -0.8900316,0.756527 -0.8900316,1.349882 z m 0,-0.578521 v 2.848102 h 0.5043512 v -2.848102 z m 0,2.340042 v 2.848101 h 0.5043512 v -2.848101 z m 0,2.34375 v 2.848101 h 0.5043512 v -2.848101 z m 0,2.34375 v 2.848101 h 0.5043512 v -2.848101 z m 0,2.34375 v 2.848101 h 0.5043512 v -2.848101 z m 0,2.34375 v 2.848101 h 0.5043512 v -2.848101 z m 0,2.34375 v 2.848101 h 0.5043512 v -2.848101 z m -1.37954909,6.864369 v 0.415348 c 0.99386869,0 1.88390029,-0.65269 1.88390029,-1.602057 V 37.234138 H 2.0897445 v 3.352453 c 0,0.682358 -0.6526899,1.171875 -1.37954909,1.171875 z m 0,0" style="fill:#121619;fill-opacity:1;fill-rule:nonzero;stroke:none" />
      <path id="path75" d="m 12.299149,19.863688 c 0.741693,-0.815863 1.008703,-1.854233 1.008703,-1.913569 0,-0.07417 -0.05934,-0.103837 -0.133505,-0.103837 -0.103837,0 -0.103837,0.02967 -0.148339,0.192841 -0.222508,0.815862 -0.712025,1.438884 -0.726859,1.438884 -0.01483,0 -0.01483,-0.19284 -0.01483,-0.326345 -0.01483,-1.394383 -0.919699,-1.69106 -1.468552,-1.69106 -1.1273734,0 -2.2250791,1.097706 -2.2250791,2.210245 0,0.801029 0.5488529,1.379549 1.394383,1.379549 0.5488531,0 1.1422071,-0.19284 1.7652291,-0.667523 0.178007,0.637856 0.637856,0.667523 0.786195,0.667523 0.45985,0 0.712025,-0.400514 0.712025,-0.548852 0,-0.103838 -0.089,-0.103838 -0.118671,-0.103838 -0.089,0 -0.103837,0.02967 -0.118671,0.089 -0.133504,0.326345 -0.400514,0.341178 -0.445015,0.341178 -0.103837,0 -0.237342,0 -0.26701,-0.9642 z m -0.593354,0.267009 c -0.578521,0.504351 -1.246045,0.697191 -1.7058943,0.697191 -0.4153481,0 -0.7713607,-0.237341 -0.7713607,-0.875197 0,-0.281844 0.1335047,-1.097706 0.5043512,-1.631725 0.3115108,-0.445016 0.7416928,-0.637856 1.0680378,-0.637856 0.445016,0 0.697192,0.311511 0.801029,0.801028 0.118671,0.534019 0.0445,1.171875 0.103837,1.646559 z m 0,0" style="fill:#121619;fill-opacity:1;fill-rule:nonzero;stroke:none" />
      <path id="path76" d="m 14.876532,14.87951 v 7.802611 h 0.504352 V 14.87951 Z m 0,0" style="fill:#121619;fill-opacity:1;fill-rule:nonzero;stroke:none" />
      <path id="path77" d="m 19.189477,16.629906 v 1.898734 h -1.898734 v 0.519185 h 1.898734 v 1.8839 h 0.519186 v -1.8839 h 1.8839 V 18.52864 h -1.8839 v -1.898734 z m 7.505934,0 v 1.898734 h -1.898734 v 0.519185 h 1.898734 v 1.8839 h 0.519185 v -1.8839 h 1.8839 V 18.52864 h -1.8839 v -1.898734 z m 7.509642,0 v 1.898734 h -1.898734 v 0.519185 h 1.898734 v 1.8839 h 0.519185 v -1.8839 h 1.8839 V 18.52864 h -1.8839 v -1.898734 z m 0,0" style="fill:#121619;fill-opacity:1;fill-rule:nonzero;stroke:none" />
      <path id="path78" d="m 38.551374,22.771124 1.424051,-3.990308 -1.424051,-3.990309 -0.489517,0.178006 1.438884,3.812303 -1.438884,3.827136 z m 0,0" style="fill:#121619;fill-opacity:1;fill-rule:nonzero;stroke:none" />
      <path id="path79" d="m 45.096815,16.629906 v 1.898734 h -1.898734 v 0.519185 h 1.898734 v 1.8839 H 45.616 v -1.8839 h 1.883901 V 18.52864 H 45.616 v -1.898734 z m 0,0" style="fill:#121619;fill-opacity:1;fill-rule:nonzero;stroke:none" />
      <path id="path80" d="m 54.772201,16.437066 c 0,-0.712026 -0.593354,-1.082872 -1.246044,-1.082872 -1.023537,0 -1.794898,1.171875 -2.017405,2.047073 l -1.260879,5.028678 c -0.01483,0.0445 0.0445,0.089 0.103837,0.089 0.05934,0 0.118671,0 0.133505,-0.05934 l 0.548853,-2.121242 c 0.178006,0.430182 0.548853,0.712025 1.127373,0.712025 1.097706,0 2.299249,-0.786194 2.299249,-2.047072 0,-0.534019 -0.19284,-0.875198 -0.593355,-1.201543 0.0445,-0.01483 0.192841,-0.118671 0.237342,-0.148339 0.385681,-0.267009 0.667524,-0.726859 0.667524,-1.216376 z m -1.572389,1.364715 c -0.133505,0.01483 -0.281844,0.02967 -0.430182,0.02967 -0.089,0 -0.178007,0 -0.26701,-0.02967 0.148339,-0.02967 0.311511,-0.02967 0.45985,-0.02967 0.089,0 0.163172,0 0.237342,0.02967 z m 1.068038,-1.513054 c 0,0.400514 -0.163173,0.875198 -0.445016,1.157041 -0.0445,0.02967 -0.207674,0.178007 -0.252176,0.19284 -0.222508,-0.0445 -0.400514,-0.089 -0.637856,-0.089 -0.207674,0 -0.712025,-0.02967 -0.712025,0.281844 0,0.252175 0.45985,0.222507 0.623022,0.222507 0.237342,0 0.474684,-0.01483 0.712025,-0.103837 0.237342,0.192841 0.356013,0.445016 0.356013,0.845531 0,0.474683 -0.163172,0.993868 -0.400514,1.305379 -0.296677,0.430182 -0.786195,0.726859 -1.379549,0.726859 -0.534019,0 -0.934533,-0.415348 -0.934533,-0.9642 0,-0.103838 0,-0.207675 0.02967,-0.296678 l 0.519185,-2.106408 c 0.178007,-0.712025 0.860364,-1.8839 1.750396,-1.8839 0.400514,0 0.771361,0.207674 0.771361,0.712025 z m 0,0" style="fill:#121619;fill-opacity:1;fill-rule:nonzero;stroke:none" />
      <path id="path81" d="m 56.355716,14.87951 v 7.802611 h 0.504351 V 14.87951 Z m 0,0" style="fill:#121619;fill-opacity:1;fill-rule:nonzero;stroke:none" />
      <path id="path82" d="m 63.071746,18.52864 h -4.30182 v 0.519185 h 4.30182 z m 7.505934,0 h -4.30182 v 0.519185 h 4.30182 z m 7.509642,0 h -4.30182 v 0.519185 h 4.30182 z m 0,0" style="fill:#121619;fill-opacity:1;fill-rule:nonzero;stroke:none" />
      <path id="path83" d="m 80.030557,22.771124 1.424051,-3.990308 -1.424051,-3.990309 -0.489517,0.178006 1.438884,3.812303 -1.438884,3.827136 z m 0,0" style="fill:#121619;fill-opacity:1;fill-rule:nonzero;stroke:none" />
    </g>
    <path id="path84" d="m 3.9015957,-2.5348137 c 0,-0.8603639 -0.089003,-1.379549 -0.3560126,-1.8839003 -0.3560127,-0.6971915 -0.9938687,-0.8751978 -1.4388845,-0.8751978 -0.9938687,0 -1.36471521,0.7416931 -1.4833861,0.964201 -0.28184335,0.5933544 -0.29667722,1.379549 -0.29667722,1.7948971 0,0.5191851 0.0296677,1.3202136 0.40051425,1.95806963 0.37084647,0.59335443 0.96420097,0.74169304 1.37954907,0.74169304 0.3856804,0 1.068038,-0.11867088 1.4685522,-0.9048655 C 3.871928,-1.3184371 3.9015957,-2.0156286 3.9015957,-2.5348137 Z m -1.7948971,2.47725476 c -0.2670095,0 -0.8158624,-0.11867089 -0.9790348,-0.96420096 -0.089003,-0.4450158 -0.089003,-1.2015427 -0.089003,-1.6168908 0,-0.5488529 0,-1.0977057 0.089003,-1.5427215 0.1631724,-0.8158624 0.7861946,-0.8900317 0.9790348,-0.8900317 0.2818433,0 0.8306962,0.1335048 0.9790348,0.8603639 0.103837,0.430182 0.103837,1.0383703 0.103837,1.5723893 0,0.4746835 0,1.1867088 -0.103837,1.6317247 -0.1631725,0.84553003 -0.7120253,0.94936706 -0.9790348,0.94936706 z m 0,0" style="fill:#121619;fill-opacity:1;fill-rule:nonzero;stroke:none" aria-label="0" transform="matrix(1.0533333,0,0,1.0533333,439.75751,179.58016)" />
    <path id="path85" d="m 3.9015957,-2.5375249 c 0,-0.8603639 -0.089003,-1.3795491 -0.3560126,-1.8839003 C 3.1895704,-5.1186167 2.5517144,-5.296623 2.1066986,-5.296623 c -0.9938687,0 -1.36471521,0.741693 -1.4833861,0.9642009 -0.28184335,0.5933545 -0.29667722,1.3795491 -0.29667722,1.7948972 0,0.5191851 0.0296677,1.3202136 0.40051425,1.9580696 0.37084647,0.59335443 0.96420097,0.74169304 1.37954907,0.74169304 0.3856804,0 1.068038,-0.11867089 1.4685522,-0.90486551 C 3.871928,-1.3211483 3.9015957,-2.0183398 3.9015957,-2.5375249 Z m -1.7948971,2.47725473 c -0.2670095,0 -0.8158624,-0.11867089 -0.9790348,-0.96420093 -0.089003,-0.4450158 -0.089003,-1.2015427 -0.089003,-1.6168908 0,-0.5488529 0,-1.0977057 0.089003,-1.5427216 0.1631724,-0.8158623 0.7861946,-0.8900316 0.9790348,-0.8900316 0.2818433,0 0.8306962,0.1335047 0.9790348,0.8603639 0.103837,0.430182 0.103837,1.0383703 0.103837,1.5723893 0,0.4746835 0,1.1867088 -0.103837,1.6317246 -0.1631725,0.8455301 -0.7120253,0.94936713 -0.9790348,0.94936713 z m 0,0" style="fill:#121619;fill-opacity:1;fill-rule:nonzero;stroke:none" aria-label="0" transform="matrix(1.0533333,0,0,1.0533333,439.75751,200.48145)" />
  </g>
</svg>