<?xml version="1.0" encoding="UTF-8"?><!DOCTYPE svg  PUBLIC '-//W3C//DTD SVG 1.1//EN'  'http://www.w3.org/Graphics/SVG/1.1/DTD/svg11.dtd'><svg width="627.22pt" height="218.36pt" version="1.1" viewBox="0 0 627.22 218.36" xmlns="http://www.w3.org/2000/svg" xmlns:xlink="http://www.w3.org/1999/xlink"><defs><style type="text/css">*{stroke-linejoin: round; stroke-linecap: butt}</style></defs><path d="m0 218.36h627.22v-218.36h-627.22z" fill="#ffffff"/><path d="m54.502 44.283h560.88" clip-path="url(#8fb275c92b1)" fill="none" stroke="#000000" stroke-linecap="square" stroke-width="2"/><path d="m54.502 90.637h560.88" clip-path="url(#8fb275c92b1)" fill="none" stroke="#000000" stroke-linecap="square" stroke-width="2"/><path d="m54.502 136.99h560.88" clip-path="url(#8fb275c92b1)" fill="none" stroke="#000000" stroke-linecap="square" stroke-width="2"/><path d="m54.502 183.35h560.88" clip-path="url(#8fb275c92b1)" fill="none" stroke="#000000" stroke-linecap="square" stroke-width="2"/><path d="m49.867 21.106h-1158.8v231.77h1158.8z" clip-path="url(#8fb275c92b1)" fill="#ffffff" stroke="#ffffff" stroke-width="1.5"/><path d="m72.348 198.41h60.724v-169.19h-60.724z" clip-path="url(#8fb275c92b1)" fill="#9f1853" stroke="#9f1853" stroke-width="1.5"/><path d="m165.06 152.06h60.724v-76.484h-60.724z" clip-path="url(#8fb275c92b1)" fill="#9f1853" stroke="#9f1853" stroke-width="1.5"/><path d="m257.76 152.06h60.724v-76.484h-60.724z" clip-path="url(#8fb275c92b1)" fill="#9f1853" stroke="#9f1853" stroke-width="1.5"/><path d="m350.47 198.41h60.724v-169.19h-60.724z" clip-path="url(#8fb275c92b1)" fill="#9f1853" stroke="#9f1853" stroke-width="1.5"/><path d="m443.18 105.7h60.724v-76.484h-60.724z" clip-path="url(#8fb275c92b1)" fill="#9f1853" stroke="#9f1853" stroke-width="1.5"/><path d="m443.18 198.41h60.724v-76.484h-60.724z" clip-path="url(#8fb275c92b1)" fill="#9f1853" stroke="#9f1853" stroke-width="1.5"/><path d="m535.89 198.41h60.724v-76.484h-60.724z" clip-path="url(#8fb275c92b1)" fill="#9f1853" stroke="#9f1853" stroke-width="1.5"/><path d="m535.89 105.7h60.724v-76.484h-60.724z" clip-path="url(#8fb275c92b1)" fill="#9f1853" stroke="#9f1853" stroke-width="1.5"/><g clip-path="url(#8fb275c92b1)"><g transform="translate(34.831 48.767) scale(.1625 -.1625)"><defs><path id="DejaVuSans-30" transform="scale(.015625)" d="m2034 4250q-487 0-733-480-245-479-245-1442 0-959 245-1439 246-480 733-480 491 0 736 480 246 480 246 1439 0 963-246 1442-245 480-736 480zm0 500q785 0 1199-621 414-620 414-1801 0-1178-414-1799-414-620-1199-620-784 0-1198 620-414 621-414 1799 0 1181 414 1801 414 621 1198 621z"/></defs><use transform="translate(0 .78125)" xlink:href="#DejaVuSans-30"/></g></g><g clip-path="url(#8fb275c92b1)"><g transform="translate(34.831 95.121) scale(.1625 -.1625)"><defs><path id="DejaVuSans-31" transform="scale(.015625)" d="m794 531h1031v3560l-1122-225v575l1116 225h631v-4135h1031v-531h-2687v531z"/></defs><use transform="translate(0 .09375)" xlink:href="#DejaVuSans-31"/></g></g><g clip-path="url(#8fb275c92b1)"><g transform="translate(34.831 141.48) scale(.1625 -.1625)"><defs><path id="DejaVuSans-32" transform="scale(.015625)" d="m1228 531h2203v-531h-2962v531q359 372 979 998 621 627 780 809 303 340 423 576 121 236 121 464 0 372-261 606-261 235-680 235-297 0-627-103-329-103-704-313v638q381 153 712 231 332 78 607 78 725 0 1156-363 431-362 431-968 0-288-108-546-107-257-392-607-78-91-497-524-418-433-1181-1211z"/></defs><use transform="translate(0 .78125)" xlink:href="#DejaVuSans-32"/></g></g><g clip-path="url(#8fb275c92b1)"><g transform="translate(34.831 187.83) scale(.1625 -.1625)"><defs><path id="DejaVuSans-33" transform="scale(.015625)" d="m2597 2516q453-97 707-404 255-306 255-756 0-690-475-1069-475-378-1350-378-293 0-604 58t-642 174v609q262-153 574-231 313-78 654-78 593 0 904 234t311 681q0 413-289 645-289 233-804 233h-544v519h569q465 0 712 186t247 536q0 359-255 551-254 193-729 193-260 0-557-57-297-56-653-174v562q360 100 674 150t592 50q719 0 1137-327 419-326 419-882 0-388-222-655t-631-370z"/></defs><use transform="translate(0 .78125)" xlink:href="#DejaVuSans-33"/></g></g><g clip-path="url(#8fb275c92b1)"><g transform="translate(75.593 186.93) scale(.13 -.13)" fill="#ffffff"><use xlink:href="#DejaVuSans-30"/></g></g><g clip-path="url(#8fb275c92b1)"><g transform="translate(75.593 47.87) scale(.13 -.13)" fill="#ffffff"><use xlink:href="#DejaVuSans-31"/></g></g><g clip-path="url(#8fb275c92b1)"><g transform="translate(84.076 117.4) scale(.13 -.13)" fill="#ffffff"><defs><path id="DejaVuSans-55" transform="scale(.015625)" d="m556 4666h635v-2835q0-750 271-1080 272-329 882-329 606 0 878 329 272 330 272 1080v2835h634v-2913q0-912-452-1378-451-466-1332-466-885 0-1337 466-451 466-451 1378v2913z"/><path id="DejaVuSans-6e" transform="scale(.015625)" d="m3513 2113v-2113h-575v2094q0 497-194 743-194 247-581 247-466 0-735-297-269-296-269-809v-1978h-578v3500h578v-544q207 316 486 472 280 156 646 156 603 0 912-373 310-373 310-1098z"/><path id="DejaVuSans-69" transform="scale(.015625)" d="m603 3500h575v-3500h-575v3500zm0 1363h575v-729h-575v729z"/><path id="DejaVuSans-74" transform="scale(.015625)" d="m1172 4494v-994h1184v-447h-1184v-1900q0-428 117-550t477-122h590v-481h-590q-666 0-919 248-253 249-253 905v1900h-422v447h422v994h578z"/><path id="DejaVuSans-61" transform="scale(.015625)" d="m2194 1759q-697 0-966-159t-269-544q0-306 202-486 202-179 548-179 479 0 768 339t289 901v128h-572zm1147 238v-1997h-575v531q-197-318-491-470t-719-152q-537 0-855 302-317 302-317 808 0 590 395 890 396 300 1180 300h807v57q0 397-261 614t-733 217q-300 0-585-72-284-72-546-216v532q315 122 612 182 297 61 578 61 760 0 1135-394 375-393 375-1193z"/><path id="DejaVuSans-72" transform="scale(.015625)" d="m2631 2963q-97 56-211 82-114 27-251 27-488 0-749-317t-261-911v-1844h-578v3500h578v-544q182 319 472 473 291 155 707 155 59 0 131-8 72-7 159-23l3-590z"/><path id="DejaVuSans-79" transform="scale(.015625)" d="m2059-325q-243-625-475-815-231-191-618-191h-460v481h338q237 0 368 113 132 112 291 531l103 262-1415 3444h609l1094-2737 1094 2737h609l-1538-3825z"/></defs><use xlink:href="#DejaVuSans-55"/><use transform="translate(73.193)" xlink:href="#DejaVuSans-6e"/><use transform="translate(136.57)" xlink:href="#DejaVuSans-69"/><use transform="translate(164.36)" xlink:href="#DejaVuSans-74"/><use transform="translate(203.56)" xlink:href="#DejaVuSans-61"/><use transform="translate(264.84)" xlink:href="#DejaVuSans-72"/><use transform="translate(305.96)" xlink:href="#DejaVuSans-79"/></g></g><g clip-path="url(#8fb275c92b1)"><g transform="translate(168.3 140.58) scale(.13 -.13)" fill="#ffffff"><use xlink:href="#DejaVuSans-30"/></g></g><g clip-path="url(#8fb275c92b1)"><g transform="translate(168.3 94.224) scale(.13 -.13)" fill="#ffffff"><use xlink:href="#DejaVuSans-31"/></g></g><g clip-path="url(#8fb275c92b1)"><g transform="translate(176.78 117.4) scale(.13 -.13)" fill="#ffffff"><use xlink:href="#DejaVuSans-55"/><use transform="translate(73.193)" xlink:href="#DejaVuSans-6e"/><use transform="translate(136.57)" xlink:href="#DejaVuSans-69"/><use transform="translate(164.36)" xlink:href="#DejaVuSans-74"/><use transform="translate(203.56)" xlink:href="#DejaVuSans-61"/><use transform="translate(264.84)" xlink:href="#DejaVuSans-72"/><use transform="translate(305.96)" xlink:href="#DejaVuSans-79"/></g></g><g clip-path="url(#8fb275c92b1)"><g transform="translate(261.01 94.224) scale(.13 -.13)" fill="#ffffff"><use xlink:href="#DejaVuSans-30"/></g></g><g clip-path="url(#8fb275c92b1)"><g transform="translate(261.01 140.58) scale(.13 -.13)" fill="#ffffff"><use xlink:href="#DejaVuSans-31"/></g></g><g clip-path="url(#8fb275c92b1)"><g transform="translate(269.49 117.4) scale(.13 -.13)" fill="#ffffff"><use xlink:href="#DejaVuSans-55"/><use transform="translate(73.193)" xlink:href="#DejaVuSans-6e"/><use transform="translate(136.57)" xlink:href="#DejaVuSans-69"/><use transform="translate(164.36)" xlink:href="#DejaVuSans-74"/><use transform="translate(203.56)" xlink:href="#DejaVuSans-61"/><use transform="translate(264.84)" xlink:href="#DejaVuSans-72"/><use transform="translate(305.96)" xlink:href="#DejaVuSans-79"/></g></g><g clip-path="url(#8fb275c92b1)"><g transform="translate(353.72 47.87) scale(.13 -.13)" fill="#ffffff"><use xlink:href="#DejaVuSans-30"/></g></g><g clip-path="url(#8fb275c92b1)"><g transform="translate(353.72 186.93) scale(.13 -.13)" fill="#ffffff"><use xlink:href="#DejaVuSans-31"/></g></g><g clip-path="url(#8fb275c92b1)"><g transform="translate(362.2 117.4) scale(.13 -.13)" fill="#ffffff"><use xlink:href="#DejaVuSans-55"/><use transform="translate(73.193)" xlink:href="#DejaVuSans-6e"/><use transform="translate(136.57)" xlink:href="#DejaVuSans-69"/><use transform="translate(164.36)" xlink:href="#DejaVuSans-74"/><use transform="translate(203.56)" xlink:href="#DejaVuSans-61"/><use transform="translate(264.84)" xlink:href="#DejaVuSans-72"/><use transform="translate(305.96)" xlink:href="#DejaVuSans-79"/></g></g><g clip-path="url(#8fb275c92b1)"><g transform="translate(446.43 47.87) scale(.13 -.13)" fill="#ffffff"><use xlink:href="#DejaVuSans-30"/></g></g><g clip-path="url(#8fb275c92b1)"><g transform="translate(446.43 94.224) scale(.13 -.13)" fill="#ffffff"><use xlink:href="#DejaVuSans-31"/></g></g><g clip-path="url(#8fb275c92b1)"><g transform="translate(454.91 71.047) scale(.13 -.13)" fill="#ffffff"><use xlink:href="#DejaVuSans-55"/><use transform="translate(73.193)" xlink:href="#DejaVuSans-6e"/><use transform="translate(136.57)" xlink:href="#DejaVuSans-69"/><use transform="translate(164.36)" xlink:href="#DejaVuSans-74"/><use transform="translate(203.56)" xlink:href="#DejaVuSans-61"/><use transform="translate(264.84)" xlink:href="#DejaVuSans-72"/><use transform="translate(305.96)" xlink:href="#DejaVuSans-79"/></g></g><g clip-path="url(#8fb275c92b1)"><g transform="translate(446.43 186.93) scale(.13 -.13)" fill="#ffffff"><use xlink:href="#DejaVuSans-30"/></g></g><g clip-path="url(#8fb275c92b1)"><g transform="translate(446.43 140.58) scale(.13 -.13)" fill="#ffffff"><use xlink:href="#DejaVuSans-31"/></g></g><g clip-path="url(#8fb275c92b1)"><g transform="translate(454.91 163.76) scale(.13 -.13)" fill="#ffffff"><use xlink:href="#DejaVuSans-55"/><use transform="translate(73.193)" xlink:href="#DejaVuSans-6e"/><use transform="translate(136.57)" xlink:href="#DejaVuSans-69"/><use transform="translate(164.36)" xlink:href="#DejaVuSans-74"/><use transform="translate(203.56)" xlink:href="#DejaVuSans-61"/><use transform="translate(264.84)" xlink:href="#DejaVuSans-72"/><use transform="translate(305.96)" xlink:href="#DejaVuSans-79"/></g></g><g clip-path="url(#8fb275c92b1)"><g transform="translate(539.13 186.93) scale(.13 -.13)" fill="#ffffff"><use xlink:href="#DejaVuSans-30"/></g></g><g clip-path="url(#8fb275c92b1)"><g transform="translate(539.13 140.58) scale(.13 -.13)" fill="#ffffff"><use xlink:href="#DejaVuSans-31"/></g></g><g clip-path="url(#8fb275c92b1)"><g transform="translate(547.62 163.76) scale(.13 -.13)" fill="#ffffff"><use xlink:href="#DejaVuSans-55"/><use transform="translate(73.193)" xlink:href="#DejaVuSans-6e"/><use transform="translate(136.57)" xlink:href="#DejaVuSans-69"/><use transform="translate(164.36)" xlink:href="#DejaVuSans-74"/><use transform="translate(203.56)" xlink:href="#DejaVuSans-61"/><use transform="translate(264.84)" xlink:href="#DejaVuSans-72"/><use transform="translate(305.96)" xlink:href="#DejaVuSans-79"/></g></g><g clip-path="url(#8fb275c92b1)"><g transform="translate(539.13 47.87) scale(.13 -.13)" fill="#ffffff"><use xlink:href="#DejaVuSans-30"/></g></g><g clip-path="url(#8fb275c92b1)"><g transform="translate(539.13 94.224) scale(.13 -.13)" fill="#ffffff"><use xlink:href="#DejaVuSans-31"/></g></g><g clip-path="url(#8fb275c92b1)"><g transform="translate(547.62 71.047) scale(.13 -.13)" fill="#ffffff"><use xlink:href="#DejaVuSans-55"/><use transform="translate(73.193)" xlink:href="#DejaVuSans-6e"/><use transform="translate(136.57)" xlink:href="#DejaVuSans-69"/><use transform="translate(164.36)" xlink:href="#DejaVuSans-74"/><use transform="translate(203.56)" xlink:href="#DejaVuSans-61"/><use transform="translate(264.84)" xlink:href="#DejaVuSans-72"/><use transform="translate(305.96)" xlink:href="#DejaVuSans-79"/></g></g><defs><clipPath id="8fb275c92b1"><rect x="7.2" y="7.2" width="612.82" height="203.96"/></clipPath></defs></svg>