<?xml version="1.0" encoding="UTF-8"?><!DOCTYPE svg  PUBLIC '-//W3C//DTD SVG 1.1//EN'  'http://www.w3.org/Graphics/SVG/1.1/DTD/svg11.dtd'><svg width="451.8pt" height="125.65pt" version="1.1" viewBox="0 0 451.8 125.65" xmlns="http://www.w3.org/2000/svg" xmlns:xlink="http://www.w3.org/1999/xlink"><defs><style type="text/css">*{stroke-linejoin: round; stroke-linecap: butt}</style></defs><path d="m0 125.65h451.8v-125.65h-451.8z" fill="#ffffff"/><path d="m64.497 44.283h375.47" clip-path="url(#4d21b569d6c)" fill="none" stroke="#000000" stroke-linecap="square" stroke-width="2"/><path d="m64.497 90.637h375.47" clip-path="url(#4d21b569d6c)" fill="none" stroke="#000000" stroke-linecap="square" stroke-width="2"/><path d="m59.862 21.106h-1158.8v139.06h1158.8z" clip-path="url(#4d21b569d6c)" fill="#ffffff" stroke="#ffffff" stroke-width="1.5"/><path d="m228.59 90.637v-46.354" clip-path="url(#4d21b569d6c)" fill="none" stroke="#002d9c" stroke-linecap="square" stroke-width="2"/><path d="m404.97 67.46h18.078v-46.354h-18.078z" clip-path="url(#4d21b569d6c)" fill="#a8a8a8" opacity=".6"/><path d="m404.97 113.81h18.078v-46.354h-18.078z" clip-path="url(#4d21b569d6c)" fill="#a8a8a8" opacity=".6"/><path d="m74.463 59.348h30.13v-30.13h-30.13z" clip-path="url(#4d21b569d6c)" fill="#fa4d56" stroke="#fa4d56" stroke-width="1.5"/><path d="m74.463 105.7h30.13v-30.13h-30.13z" clip-path="url(#4d21b569d6c)" fill="#fa4d56" stroke="#fa4d56" stroke-width="1.5"/><path d="m120.82 59.348h30.13v-30.13h-30.13z" clip-path="url(#4d21b569d6c)" fill="#002d9c" stroke="#002d9c" stroke-width="1.5"/><path d="m120.82 105.7h30.13v-30.13h-30.13z" clip-path="url(#4d21b569d6c)" fill="#002d9c" stroke="#002d9c" stroke-width="1.5"/><path d="m167.17 105.7h30.13v-30.13h-30.13z" clip-path="url(#4d21b569d6c)" fill="#fa4d56" stroke="#fa4d56" stroke-width="1.5"/><path d="m228.59 48.803c1.1986 0 2.3482-0.4762 3.1958-1.3237s1.3237-1.9972 1.3237-3.1958c0-1.1986-0.4762-2.3482-1.3237-3.1958s-1.9972-1.3237-3.1958-1.3237c-1.1986 0-2.3482 0.4762-3.1958 1.3237-0.84753 0.84753-1.3237 1.9972-1.3237 3.1958 0 1.1986 0.4762 2.3482 1.3237 3.1958 0.84753 0.84753 1.9972 1.3237 3.1958 1.3237z" clip-path="url(#4d21b569d6c)" fill="#002d9c" stroke="#002d9c" stroke-width="1.5"/><path d="m228.59 101.18c2.7967 0 5.4792-1.1111 7.4568-3.0887 1.9776-1.9776 3.0887-4.6601 3.0887-7.4568 0-2.7967-1.1111-5.4792-3.0887-7.4568-1.9776-1.9776-4.6601-3.0887-7.4568-3.0887-2.7967 0-5.4792 1.1111-7.4568 3.0887-1.9776 1.9776-3.0887 4.6601-3.0887 7.4568 0 2.7967 1.1111 5.4792 3.0887 7.4568 1.9776 1.9776 4.6601 3.0887 7.4568 3.0887z" clip-path="url(#4d21b569d6c)" fill="#002d9c" stroke="#002d9c" stroke-width="2"/><path d="m259.88 105.7h30.13v-30.13h-30.13z" clip-path="url(#4d21b569d6c)" fill="#fa4d56" stroke="#fa4d56" stroke-width="1.5"/><path d="m259.88 59.348h30.13v-30.13h-30.13z" clip-path="url(#4d21b569d6c)" fill="#002d9c" stroke="#002d9c" stroke-width="1.5"/><path d="m306.23 105.7h30.13v-30.13h-30.13z" clip-path="url(#4d21b569d6c)" fill="#002d9c" stroke="#002d9c" stroke-width="1.5"/><path d="m306.23 59.348h30.13v-30.13h-30.13z" clip-path="url(#4d21b569d6c)" fill="#fa4d56" stroke="#fa4d56" stroke-width="1.5"/><path d="m352.59 105.7h30.13v-30.13h-30.13z" clip-path="url(#4d21b569d6c)" fill="#fa4d56" stroke="#fa4d56" stroke-width="1.5"/><path d="m228.59 96.663v-12.052" clip-path="url(#4d21b569d6c)" fill="none" stroke="#ffffff" stroke-linecap="square" stroke-width="2"/><path d="m222.56 90.637h12.052" clip-path="url(#4d21b569d6c)" fill="none" stroke="#ffffff" stroke-linecap="square" stroke-width="2"/><g clip-path="url(#4d21b569d6c)"><g transform="translate(37.189 48.734) scale(.1625 -.1625)"><defs><path id="DejaVuSans-Oblique-71" transform="scale(.015625)" d="m2669 525q-231-303-546-460-314-156-695-156-531 0-833 358-301 358-301 986 0 506 186 978t533 847q225 244 517 375t614 131q387 0 637-153t363-462l100 525h578l-934-4813h-579l360 1844zm-1778 813q0-463 193-705 194-242 560-242 544 0 928 520t384 1264q0 450-199 689-198 239-569 239-272 0-504-127-231-126-403-370-181-256-286-600-104-343-104-668z"/><path id="DejaVuSans-30" transform="scale(.015625)" d="m2034 4250q-487 0-733-480-245-479-245-1442 0-959 245-1439 246-480 733-480 491 0 736 480 246 480 246 1439 0 963-246 1442-245 480-736 480zm0 500q785 0 1199-621 414-620 414-1801 0-1178-414-1799-414-620-1199-620-784 0-1198 620-414 621-414 1799 0 1181 414 1801 414 621 1198 621z"/></defs><use xlink:href="#DejaVuSans-Oblique-71"/><use transform="translate(63.477 -16.406) scale(.7)" xlink:href="#DejaVuSans-30"/></g></g><g clip-path="url(#4d21b569d6c)"><g transform="translate(37.189 95.088) scale(.1625 -.1625)"><defs><path id="DejaVuSans-31" transform="scale(.015625)" d="m794 531h1031v3560l-1122-225v575l1116 225h631v-4135h1031v-531h-2687v531z"/></defs><use xlink:href="#DejaVuSans-Oblique-71"/><use transform="translate(63.477 -16.406) scale(.7)" xlink:href="#DejaVuSans-31"/></g></g><g clip-path="url(#4d21b569d6c)"><g transform="translate(84.64 47.87) scale(.13 -.13)"><defs><path id="DejaVuSans-48" transform="scale(.015625)" d="m628 4666h631v-1913h2294v1913h631v-4666h-631v2222h-2294v-2222h-631v4666z"/></defs><use xlink:href="#DejaVuSans-48"/></g></g><g clip-path="url(#4d21b569d6c)"><g transform="translate(84.64 94.224) scale(.13 -.13)"><use xlink:href="#DejaVuSans-48"/></g></g><g clip-path="url(#4d21b569d6c)"><g transform="translate(131.43 47.87) scale(.13 -.13)" fill="#ffffff"><defs><path id="DejaVuSans-58" transform="scale(.015625)" d="m403 4666h678l1160-1735 1165 1735h678l-1500-2241 1600-2425h-678l-1312 1984-1322-1984h-681l1665 2491-1453 2175z"/></defs><use xlink:href="#DejaVuSans-58"/></g></g><g clip-path="url(#4d21b569d6c)"><g transform="translate(131.43 94.224) scale(.13 -.13)" fill="#ffffff"><use xlink:href="#DejaVuSans-58"/></g></g><g clip-path="url(#4d21b569d6c)"><g transform="translate(177.35 94.224) scale(.13 -.13)"><use xlink:href="#DejaVuSans-48"/></g></g><g clip-path="url(#4d21b569d6c)"><g transform="translate(270.06 94.224) scale(.13 -.13)"><use xlink:href="#DejaVuSans-48"/></g></g><g clip-path="url(#4d21b569d6c)"><g transform="translate(270.49 47.87) scale(.13 -.13)" fill="#ffffff"><use xlink:href="#DejaVuSans-58"/></g></g><g clip-path="url(#4d21b569d6c)"><g transform="translate(316.85 94.224) scale(.13 -.13)" fill="#ffffff"><use xlink:href="#DejaVuSans-58"/></g></g><g clip-path="url(#4d21b569d6c)"><g transform="translate(316.41 47.87) scale(.13 -.13)"><use xlink:href="#DejaVuSans-48"/></g></g><g clip-path="url(#4d21b569d6c)"><g transform="translate(362.76 94.224) scale(.13 -.13)"><use xlink:href="#DejaVuSans-48"/></g></g><path d="m414.01 21.106v46.354" clip-path="url(#4d21b569d6c)" fill="none" stroke="#000000" stroke-dasharray="3.7,1.6"/><path d="m414.01 67.46v46.354" clip-path="url(#4d21b569d6c)" fill="none" stroke="#000000" stroke-dasharray="3.7,1.6"/><defs><clipPath id="4d21b569d6c"><rect x="7.2" y="7.2" width="437.4" height="111.25"/></clipPath></defs></svg>