<?xml version='1.0' encoding='utf-8'?>
<svg xmlns="http://www.w3.org/2000/svg" xmlns:ns1="http://sodipodi.sourceforge.net/DTD/sodipodi-0.dtd" xmlns:ns2="http://www.inkscape.org/namespaces/inkscape" version="1.1" id="svg1" width="100%" height="auto" viewBox="-20.0 -20.0 324.27264 215.01838" ns1:docname="svg_fix_XXXXXX.svg">
  <rect id="path1" x="-20.0" y="-20.0" width="324.27264" height="215.01838" fill="white" /><ns1:namedview id="namedview1" pagecolor="#ffffff" bordercolor="#000000" borderopacity="0.25" ns2:showpageshadow="2" ns2:pageopacity="0.0" ns2:pagecheckerboard="0" ns2:deskcolor="#d1d1d1" />
  <defs id="defs1" />
  <g id="g1" transform="translate(-158.81168,-75.772672)">
    <path id="path2" d="m -42.5202,28.3468 h 70.867" style="fill:none;stroke:#121619;stroke-width:0.3985;stroke-linecap:butt;stroke-linejoin:miter;stroke-miterlimit:10;stroke-dasharray:none;stroke-opacity:1" transform="matrix(1.6,0,0,-1.6,226.844,135.0528)" />
    <path id="path3" d="m -42.5202,0 h 70.867" style="fill:none;stroke:#121619;stroke-width:0.3985;stroke-linecap:butt;stroke-linejoin:miter;stroke-miterlimit:10;stroke-dasharray:none;stroke-opacity:1" transform="matrix(1.6,0,0,-1.6,226.844,135.0528)" />
    <path id="path4" d="m 5.97766,28.3468 c 0,3.30141 -2.67626,5.97766 -5.97766,5.97766 -3.3014,0 -5.97766,-2.67625 -5.97766,-5.97766 0,-3.3014 2.67626,-5.97766 5.97766,-5.97766 3.3014,0 5.97766,2.67626 5.97766,5.97766 z" style="fill:#78a9ff;fill-opacity:1;fill-rule:nonzero;stroke:#78a9ff;stroke-width:0.3985;stroke-linecap:butt;stroke-linejoin:miter;stroke-miterlimit:10;stroke-dasharray:none;stroke-opacity:1" transform="matrix(1.6,0,0,-1.6,226.844,135.0528)" />
    <path id="path5" d="m 4.7058594,-7.8231211 v 3.4179688 H 1.2878906 v 0.9179687 h 3.4179688 v 3.41796876 H 5.6238281 V -3.4871836 H 9.0320313 V -4.4051523 H 5.6238281 v -3.4179688 z m 0,0" style="fill:#ffffff;fill-opacity:1;fill-rule:nonzero;stroke:none" aria-label="+" transform="matrix(1.6,0,0,1.6,218.58,95.9584)" />
    <path id="path6" d="M 2.49069,0 C 2.49069,1.37558 1.37558,2.49069 0,2.49069 -1.37558,2.49069 -2.49069,1.37558 -2.49069,0 c 0,-1.37558 1.11511,-2.49069 2.49069,-2.49069 1.37558,0 2.49069,1.11511 2.49069,2.49069 z" style="fill:#78a9ff;fill-opacity:1;fill-rule:nonzero;stroke:none" transform="matrix(1.6,0,0,-1.6,226.844,135.0528)" />
    <path id="path7" d="M 0,0 V 22.16989" style="fill:none;stroke:#78a9ff;stroke-width:0.79701;stroke-linecap:butt;stroke-linejoin:miter;stroke-miterlimit:10;stroke-dasharray:none;stroke-opacity:1" transform="matrix(1.6,0,0,-1.6,226.844,135.0528)" />
    <path id="path8" d="m -29.76413,-8.50403 h 17.00806 V 8.50403 h -17.00806 z" style="fill:#ee5396;fill-opacity:1;fill-rule:nonzero;stroke:#ee5396;stroke-width:0.3985;stroke-linecap:butt;stroke-linejoin:miter;stroke-miterlimit:10;stroke-dasharray:none;stroke-opacity:1" transform="matrix(1.6,0,0,-1.6,226.844,135.0528)" />
    <path id="path9" d="m 4.1602891,-3.0465273 c 0.3808593,-0.390625 1.5136718,-1.5527344 1.7089843,-1.6992188 0.3320313,-0.2539062 0.5273438,-0.4003906 1.1035157,-0.4296875 0.048828,-0.00977 0.1074218,-0.048828 0.1074218,-0.15625 0,-0.068359 -0.068359,-0.1074219 -0.1074218,-0.1074219 -0.078125,0 -0.1269532,0.019531 -0.7519532,0.019531 -0.5957031,0 -0.8105468,-0.019531 -0.8496093,-0.019531 -0.029297,0 -0.15625,0 -0.15625,0.1464844 0,0.00977 0,0.1074219 0.1171875,0.1171875 0.058594,0 0.2734375,0.019531 0.2734375,0.2050781 0,0.058594 -0.039063,0.1464844 -0.097656,0.2050782 l -0.029297,0.039063 c -0.019531,0.029297 -0.019531,0.039063 -0.097656,0.1171875 l -1.328125,1.3378906 -0.8203125,-1.6894531 c 0.1171875,-0.1855469 0.3515625,-0.2148438 0.4492187,-0.2148438 0.039063,0 0.1464844,-0.00977 0.1464844,-0.1464844 0,-0.068359 -0.048828,-0.1171875 -0.1269531,-0.1171875 -0.078125,0 -0.3808594,0.00977 -0.4589844,0.00977 -0.048828,0.00977 -0.3417969,0.00977 -0.5078125,0.00977 -0.7421875,0 -0.8398437,-0.019531 -0.9082031,-0.019531 -0.029297,0 -0.15625,0 -0.15625,0.1464844 0,0.1171875 0.097656,0.1171875 0.2246094,0.1171875 0.4003906,0 0.46875,0.078125 0.546875,0.2246094 l 1.0546875,2.2363281 -1.6308594,1.6601563 c -0.4785156,0.47851558 -0.8496094,0.76171871 -1.41601564,0.79101558 -0.0976563,0.009766 -0.1953125,0.009766 -0.1953125,0.15625 0,0.0390625 0.0390625,0.10742187625 0.1171875,0.10742187625 0.0585938,0 0.14648438,-0.0195312463 0.75195314,-0.0195312463 0.5761719,0 0.8203125,0.0195312463 0.8496094,0.0195312463 0.039063,0 0.1660156,0 0.1660156,-0.15624999625 0,-0.009766 -0.00977,-0.0976562 -0.1269531,-0.10742188 -0.15625,-0.009766 -0.2636719,-0.0585938 -0.2636719,-0.20507812 0,-0.12695313 0.087891,-0.234375 0.2148437,-0.3515625 0.1367188,-0.15625 0.546875,-0.56640626 0.8300782,-0.84960936 0.1855468,-0.1757813 0.6347656,-0.6445313 0.8203125,-0.8203125 l 0.9082031,1.90429686 c 0.048828,0.0878906 0.048828,0.0878906 0.048828,0.0976563 0,0.078125 -0.1757812,0.20507812 -0.4296875,0.22460937 -0.058594,0 -0.1660156,0.009766 -0.1660156,0.15625 0,0 0.00977,0.10742187625 0.1367187,0.10742187625 0.078125,0 0.3710938,-0.0195312462 0.4589844,-0.0195312462 h 0.5078125 c 0.7324219,0 0.8398438,0.0195312462 0.9179688,0.0195312462 0.029297,0 0.1464843,0 0.1464843,-0.15624999625 0,-0.10742188 -0.097656,-0.10742188 -0.2246093,-0.10742188 -0.4296875,0 -0.4785157,-0.0976563 -0.5273438,-0.21484375 z m 0,0" style="fill:#ffffff;fill-opacity:1;fill-rule:nonzero;stroke:none" aria-label="X" transform="matrix(1.6,0,0,1.6,186.7576,139.4096)" />
    <path id="path10" d="M 0.71444531,-2.7073437 H 4.5464766 V -3.21125 H 0.71444531 Z m 0,1.5351562 H 4.5464766 V -1.6760937 H 0.71444531 Z m 0,0" style="fill:#121619;fill-opacity:1;fill-rule:nonzero;stroke:none" aria-label="=" transform="matrix(1.3333333,0,0,1.3333333,298.856,115.90667)" />
    <path id="path11" d="m -28.3468,28.3468 h 70.867" style="fill:none;stroke:#121619;stroke-width:0.3985;stroke-linecap:butt;stroke-linejoin:miter;stroke-miterlimit:10;stroke-dasharray:none;stroke-opacity:1" transform="matrix(1.6,0,0,-1.6,375.052,135.0528)" />
    <path id="path12" d="m -28.3468,0 h 70.867" style="fill:none;stroke:#121619;stroke-width:0.3985;stroke-linecap:butt;stroke-linejoin:miter;stroke-miterlimit:10;stroke-dasharray:none;stroke-opacity:1" transform="matrix(1.6,0,0,-1.6,375.052,135.0528)" />
    <path id="path13" d="m 5.97766,28.3468 c 0,3.30141 -2.67626,5.97766 -5.97766,5.97766 -3.3014,0 -5.97766,-2.67625 -5.97766,-5.97766 0,-3.3014 2.67626,-5.97766 5.97766,-5.97766 3.3014,0 5.97766,2.67626 5.97766,5.97766 z" style="fill:#78a9ff;fill-opacity:1;fill-rule:nonzero;stroke:#78a9ff;stroke-width:0.3985;stroke-linecap:butt;stroke-linejoin:miter;stroke-miterlimit:10;stroke-dasharray:none;stroke-opacity:1" transform="matrix(1.6,0,0,-1.6,375.052,135.0528)" />
    <path id="path14" d="m 4.7076953,-7.8231211 v 3.4179688 H 1.2897266 v 0.9179687 h 3.4179687 v 3.41796876 H 5.6256641 V -3.4871836 H 9.0338672 V -4.4051523 H 5.6256641 v -3.4179688 z m 0,0" style="fill:#ffffff;fill-opacity:1;fill-rule:nonzero;stroke:none" aria-label="+" transform="matrix(1.6,0,0,1.6,366.788,95.9584)" />
    <path id="path15" d="M 2.49069,0 C 2.49069,1.37558 1.37558,2.49069 0,2.49069 -1.37558,2.49069 -2.49069,1.37558 -2.49069,0 c 0,-1.37558 1.11511,-2.49069 2.49069,-2.49069 1.37558,0 2.49069,1.11511 2.49069,2.49069 z" style="fill:#78a9ff;fill-opacity:1;fill-rule:nonzero;stroke:none" transform="matrix(1.6,0,0,-1.6,375.052,135.0528)" />
    <path id="path16" d="M 0,0 V 22.16989" style="fill:none;stroke:#78a9ff;stroke-width:0.79701;stroke-linecap:butt;stroke-linejoin:miter;stroke-miterlimit:10;stroke-dasharray:none;stroke-opacity:1" transform="matrix(1.6,0,0,-1.6,375.052,135.0528)" />
    <path id="path17" d="M 12.75606,19.84277 H 29.76412 V 36.85083 H 12.75606 Z" style="fill:#ee5396;fill-opacity:1;fill-rule:nonzero;stroke:#ee5396;stroke-width:0.3985;stroke-linecap:butt;stroke-linejoin:miter;stroke-miterlimit:10;stroke-dasharray:none;stroke-opacity:1" transform="matrix(1.6,0,0,-1.6,375.052,135.0528)" />
    <path id="path18" d="m 4.1606563,-3.0466953 c 0.3808593,-0.390625 1.5136718,-1.5527344 1.7089843,-1.6992188 0.3320313,-0.2539062 0.5273438,-0.4003906 1.1035157,-0.4296875 0.048828,-0.00977 0.1074218,-0.048828 0.1074218,-0.15625 0,-0.068359 -0.068359,-0.1074218 -0.1074218,-0.1074218 -0.078125,0 -0.1269532,0.019531 -0.7519532,0.019531 -0.5957031,0 -0.8105468,-0.019531 -0.8496093,-0.019531 -0.029297,0 -0.15625,0 -0.15625,0.1464843 0,0.00977 0,0.1074219 0.1171875,0.1171875 0.058594,0 0.2734375,0.019531 0.2734375,0.2050782 0,0.058594 -0.039063,0.1464843 -0.097656,0.2050781 l -0.029297,0.039063 c -0.019531,0.029297 -0.019531,0.039063 -0.097656,0.1171875 l -1.328125,1.3378906 -0.8203125,-1.6894531 c 0.1171875,-0.1855469 0.3515625,-0.2148438 0.4492187,-0.2148438 0.039063,0 0.1464844,-0.00977 0.1464844,-0.1464843 0,-0.068359 -0.048828,-0.1171875 -0.1269531,-0.1171875 -0.078125,0 -0.3808594,0.00977 -0.4589844,0.00977 -0.048828,0.00977 -0.3417969,0.00977 -0.5078125,0.00977 -0.7421875,0 -0.8398437,-0.019531 -0.9082031,-0.019531 -0.029297,0 -0.15625,0 -0.15625,0.1464843 0,0.1171875 0.097656,0.1171875 0.2246094,0.1171875 0.4003906,0 0.46875,0.078125 0.546875,0.2246094 l 1.0546875,2.2363281 -1.6308594,1.6601563 c -0.4785156,0.47851561 -0.8496094,0.76171874 -1.41601565,0.79101561 -0.0976563,0.009766 -0.1953125,0.009766 -0.1953125,0.15625 0,0.0390625 0.0390625,0.1074218775 0.1171875,0.1074218775 0.0585938,0 0.14648438,-0.0195312475 0.75195315,-0.0195312475 0.5761719,0 0.8203125,0.0195312475 0.8496094,0.0195312475 0.039062,0 0.1660156,0 0.1660156,-0.1562499975 0,-0.009766 -0.00977,-0.0976563 -0.1269531,-0.10742188 -0.15625,-0.009766 -0.2636719,-0.0585938 -0.2636719,-0.20507812 0,-0.12695313 0.087891,-0.234375 0.2148437,-0.3515625 0.1367188,-0.15625 0.546875,-0.56640629 0.8300782,-0.84960939 0.1855468,-0.1757812 0.6347656,-0.6445312 0.8203125,-0.8203125 l 0.9082031,1.90429689 c 0.048828,0.0878906 0.048828,0.0878906 0.048828,0.0976563 0,0.078125 -0.1757812,0.20507812 -0.4296875,0.22460937 -0.058594,0 -0.1660156,0.009766 -0.1660156,0.15625 0,0 0.00977,0.1074218775 0.1367187,0.1074218775 0.078125,0 0.3710938,-0.0195312475 0.4589844,-0.0195312475 H 5.078625 c 0.7324219,0 0.8398438,0.0195312475 0.9179688,0.0195312475 0.029297,0 0.1464843,0 0.1464843,-0.1562499975 0,-0.10742188 -0.097656,-0.10742188 -0.2246093,-0.10742188 -0.4296875,0 -0.4785157,-0.0976563 -0.5273438,-0.21484375 z m 0,0" style="fill:#ffffff;fill-opacity:1;fill-rule:nonzero;stroke:none" aria-label="X" transform="matrix(1.6,0,0,1.6,402.9992,94.0544)" />
    <path id="path19" d="M 12.75606,-8.50403 H 29.76412 V 8.50403 H 12.75606 Z" style="fill:#ee5396;fill-opacity:1;fill-rule:nonzero;stroke:#ee5396;stroke-width:0.3985;stroke-linecap:butt;stroke-linejoin:miter;stroke-miterlimit:10;stroke-dasharray:none;stroke-opacity:1" transform="matrix(1.6,0,0,-1.6,375.052,135.0528)" />
    <path id="path20" d="m 4.1606563,-3.0465273 c 0.3808593,-0.390625 1.5136718,-1.5527344 1.7089843,-1.6992188 0.3320313,-0.2539062 0.5273438,-0.4003906 1.1035157,-0.4296875 0.048828,-0.00977 0.1074218,-0.048828 0.1074218,-0.15625 0,-0.068359 -0.068359,-0.1074219 -0.1074218,-0.1074219 -0.078125,0 -0.1269532,0.019531 -0.7519532,0.019531 -0.5957031,0 -0.8105468,-0.019531 -0.8496093,-0.019531 -0.029297,0 -0.15625,0 -0.15625,0.1464844 0,0.00977 0,0.1074219 0.1171875,0.1171875 0.058594,0 0.2734375,0.019531 0.2734375,0.2050781 0,0.058594 -0.039063,0.1464844 -0.097656,0.2050782 l -0.029297,0.039063 c -0.019531,0.029297 -0.019531,0.039063 -0.097656,0.1171875 l -1.328125,1.3378906 -0.8203125,-1.6894531 c 0.1171875,-0.1855469 0.3515625,-0.2148438 0.4492187,-0.2148438 0.039063,0 0.1464844,-0.00977 0.1464844,-0.1464844 0,-0.068359 -0.048828,-0.1171875 -0.1269531,-0.1171875 -0.078125,0 -0.3808594,0.00977 -0.4589844,0.00977 -0.048828,0.00977 -0.3417969,0.00977 -0.5078125,0.00977 -0.7421875,0 -0.8398437,-0.019531 -0.9082031,-0.019531 -0.029297,0 -0.15625,0 -0.15625,0.1464844 0,0.1171875 0.097656,0.1171875 0.2246094,0.1171875 0.4003906,0 0.46875,0.078125 0.546875,0.2246094 l 1.0546875,2.2363281 -1.6308594,1.6601563 c -0.4785156,0.47851558 -0.8496094,0.76171871 -1.41601565,0.79101558 -0.0976563,0.009766 -0.1953125,0.009766 -0.1953125,0.15625 0,0.0390625 0.0390625,0.10742187625 0.1171875,0.10742187625 0.0585938,0 0.14648438,-0.0195312463 0.75195315,-0.0195312463 0.5761719,0 0.8203125,0.0195312463 0.8496094,0.0195312463 0.039062,0 0.1660156,0 0.1660156,-0.15624999625 0,-0.009766 -0.00977,-0.0976562 -0.1269531,-0.10742188 -0.15625,-0.009766 -0.2636719,-0.0585938 -0.2636719,-0.20507812 0,-0.12695313 0.087891,-0.234375 0.2148437,-0.3515625 0.1367188,-0.15625 0.546875,-0.56640626 0.8300782,-0.84960936 C 2.979016,-1.845346 3.4282348,-2.314096 3.6137817,-2.4898772 l 0.9082031,1.90429686 c 0.048828,0.0878906 0.048828,0.0878906 0.048828,0.0976563 0,0.078125 -0.1757812,0.20507812 -0.4296875,0.22460937 -0.058594,0 -0.1660156,0.009766 -0.1660156,0.15625 0,0 0.00977,0.10742187625 0.1367187,0.10742187625 0.078125,0 0.3710938,-0.0195312462 0.4589844,-0.0195312462 H 5.078625 c 0.7324219,0 0.8398438,0.0195312462 0.9179688,0.0195312462 0.029297,0 0.1464843,0 0.1464843,-0.15624999625 0,-0.10742188 -0.097656,-0.10742188 -0.2246093,-0.10742188 -0.4296875,0 -0.4785157,-0.0976563 -0.5273438,-0.21484375 z m 0,0" style="fill:#ffffff;fill-opacity:1;fill-rule:nonzero;stroke:none" aria-label="X" transform="matrix(1.6,0,0,1.6,402.9992,139.4096)" />
    <path id="path21" d="m -42.5202,-28.3468 h 70.867" style="fill:none;stroke:#121619;stroke-width:0.3985;stroke-linecap:butt;stroke-linejoin:miter;stroke-miterlimit:10;stroke-dasharray:none;stroke-opacity:1" transform="matrix(1.6,0,0,-1.6,226.844,191.51093)" />
    <path id="path22" d="m -42.5202,0 h 70.867" style="fill:none;stroke:#121619;stroke-width:0.3985;stroke-linecap:butt;stroke-linejoin:miter;stroke-miterlimit:10;stroke-dasharray:none;stroke-opacity:1" transform="matrix(1.6,0,0,-1.6,226.844,191.51093)" />
    <path id="path23" d="m 5.97766,-28.3468 c 0,3.3014 -2.67626,5.97766 -5.97766,5.97766 -3.3014,0 -5.97766,-2.67626 -5.97766,-5.97766 0,-3.30141 2.67626,-5.97766 5.97766,-5.97766 3.3014,0 5.97766,2.67625 5.97766,5.97766 z" style="fill:#78a9ff;fill-opacity:1;fill-rule:nonzero;stroke:#78a9ff;stroke-width:0.3985;stroke-linecap:butt;stroke-linejoin:miter;stroke-miterlimit:10;stroke-dasharray:none;stroke-opacity:1" transform="matrix(1.6,0,0,-1.6,226.844,191.51093)" />
    <path id="path24" d="m 4.7058594,-7.823474 v 3.4179688 H 1.2878906 v 0.9179687 h 3.4179688 v 3.41796879 H 5.6238281 V -3.4875365 H 9.0320313 V -4.4055052 H 5.6238281 V -7.823474 Z m 0,0" style="fill:#ffffff;fill-opacity:1;fill-rule:nonzero;stroke:none" aria-label="+" transform="matrix(1.6,0,0,1.6,218.58,243.12693)" />
    <path id="path25" d="M 2.49069,0 C 2.49069,1.37558 1.37558,2.49069 0,2.49069 -1.37558,2.49069 -2.49069,1.37558 -2.49069,0 c 0,-1.37558 1.11511,-2.49069 2.49069,-2.49069 1.37558,0 2.49069,1.11511 2.49069,2.49069 z" style="fill:#78a9ff;fill-opacity:1;fill-rule:nonzero;stroke:none" transform="matrix(1.6,0,0,-1.6,226.844,191.51093)" />
    <path id="path26" d="M 0,0 V -22.16989" style="fill:none;stroke:#78a9ff;stroke-width:0.79701;stroke-linecap:butt;stroke-linejoin:miter;stroke-miterlimit:10;stroke-dasharray:none;stroke-opacity:1" transform="matrix(1.6,0,0,-1.6,226.844,191.51093)" />
    <path id="path27" d="m -29.76413,-36.85083 h 17.00806 v 17.00806 h -17.00806 z" style="fill:#ee5396;fill-opacity:1;fill-rule:nonzero;stroke:#ee5396;stroke-width:0.3985;stroke-linecap:butt;stroke-linejoin:miter;stroke-miterlimit:10;stroke-dasharray:none;stroke-opacity:1" transform="matrix(1.6,0,0,-1.6,226.844,191.51093)" />
    <path id="path28" d="m 5.9074258,-5.1368919 c 0.068359,-0.068359 0.1171875,-0.1269532 0.1171875,-0.2148438 0,-0.087891 -0.068359,-0.087891 -0.2148438,-0.087891 H 2.2648477 c -0.2050782,0 -0.2148438,0 -0.2636719,0.15625 l -0.4492188,1.416016 c -0.00977,0.039063 -0.019531,0.078125 -0.019531,0.1171875 0,0.019531 0,0.1171875 0.1171875,0.1171875 0.087891,0 0.1074219,-0.029297 0.1464844,-0.1953125 0.390625,-1.0839844 1.0058593,-1.3476562 1.9824218,-1.3476562 h 1.3769532 l -4.55078129,4.87304685 c -0.0683594,0.0683594 -0.10742188,0.1171875 -0.10742188,0.21484375 0,0.0878906229 0.0683594,0.0878906229 0.21484375,0.0878906229 H 4.3937539 c 0.2050781,0 0.2148438,-0.009765623 0.2636719,-0.1562500029 L 5.2140664,-1.9044701 c 0.029297,-0.1074218 0.029297,-0.1171875 0.029297,-0.1269531 0,-0.00977 -0.00977,-0.1171875 -0.1171875,-0.1171875 -0.048828,0 -0.078125,0.029297 -0.078125,0.039063 -0.019531,0.00977 -0.039063,0.029297 -0.048828,0.048828 -0.00977,0.048828 -0.00977,0.058594 -0.078125,0.234375 -0.3515625,1.0742188 -0.8203125,1.5429688 -2.0800782,1.5429688 H 1.3859414 Z m 0,0" style="fill:#ffffff;fill-opacity:1;fill-rule:nonzero;stroke:none" aria-label="Z" transform="matrix(1.6,0,0,1.6,187.7864,241.22293)" />
    <path id="path29" d="M 0.71444531,-2.7069687 H 4.5464766 V -3.210875 H 0.71444531 Z m 0,1.5351562 H 4.5464766 V -1.6757187 H 0.71444531 Z m 0,0" style="fill:#121619;fill-opacity:1;fill-rule:nonzero;stroke:none" aria-label="=" transform="matrix(1.3333333,0,0,1.3333333,298.856,217.71867)" />
    <path id="path30" d="m -28.3468,-28.3468 h 70.867" style="fill:none;stroke:#121619;stroke-width:0.3985;stroke-linecap:butt;stroke-linejoin:miter;stroke-miterlimit:10;stroke-dasharray:none;stroke-opacity:1" transform="matrix(1.6,0,0,-1.6,375.052,191.51093)" />
    <path id="path31" d="m -28.3468,0 h 70.867" style="fill:none;stroke:#121619;stroke-width:0.3985;stroke-linecap:butt;stroke-linejoin:miter;stroke-miterlimit:10;stroke-dasharray:none;stroke-opacity:1" transform="matrix(1.6,0,0,-1.6,375.052,191.51093)" />
    <path id="path32" d="m 5.97766,-28.3468 c 0,3.3014 -2.67626,5.97766 -5.97766,5.97766 -3.3014,0 -5.97766,-2.67626 -5.97766,-5.97766 0,-3.30141 2.67626,-5.97766 5.97766,-5.97766 3.3014,0 5.97766,2.67625 5.97766,5.97766 z" style="fill:#78a9ff;fill-opacity:1;fill-rule:nonzero;stroke:#78a9ff;stroke-width:0.3985;stroke-linecap:butt;stroke-linejoin:miter;stroke-miterlimit:10;stroke-dasharray:none;stroke-opacity:1" transform="matrix(1.6,0,0,-1.6,375.052,191.51093)" />
    <path id="path33" d="m 4.7076953,-7.823474 v 3.4179688 H 1.2897266 v 0.9179687 h 3.4179687 v 3.41796879 H 5.6256641 V -3.4875365 H 9.0338672 V -4.4055052 H 5.6256641 V -7.823474 Z m 0,0" style="fill:#ffffff;fill-opacity:1;fill-rule:nonzero;stroke:none" aria-label="+" transform="matrix(1.6,0,0,1.6,366.788,243.12693)" />
    <path id="path34" d="M 2.49069,0 C 2.49069,1.37558 1.37558,2.49069 0,2.49069 -1.37558,2.49069 -2.49069,1.37558 -2.49069,0 c 0,-1.37558 1.11511,-2.49069 2.49069,-2.49069 1.37558,0 2.49069,1.11511 2.49069,2.49069 z" style="fill:#78a9ff;fill-opacity:1;fill-rule:nonzero;stroke:none" transform="matrix(1.6,0,0,-1.6,375.052,191.51093)" />
    <path id="path35" d="M 0,0 V -22.16989" style="fill:none;stroke:#78a9ff;stroke-width:0.79701;stroke-linecap:butt;stroke-linejoin:miter;stroke-miterlimit:10;stroke-dasharray:none;stroke-opacity:1" transform="matrix(1.6,0,0,-1.6,375.052,191.51093)" />
    <path id="path36" d="m 12.75606,-36.85083 h 17.00806 v 17.00806 H 12.75606 Z" style="fill:#ee5396;fill-opacity:1;fill-rule:nonzero;stroke:#ee5396;stroke-width:0.3985;stroke-linecap:butt;stroke-linejoin:miter;stroke-miterlimit:10;stroke-dasharray:none;stroke-opacity:1" transform="matrix(1.6,0,0,-1.6,375.052,191.51093)" />
    <path id="path37" d="m 5.908793,-5.1368919 c 0.068359,-0.068359 0.1171875,-0.1269532 0.1171875,-0.2148438 0,-0.087891 -0.068359,-0.087891 -0.2148438,-0.087891 H 2.2662148 c -0.2050781,0 -0.2148437,0 -0.2636718,0.15625 l -0.4492188,1.4160156 c -0.00977,0.039063 -0.019531,0.078125 -0.019531,0.1171875 0,0.019531 0,0.1171875 0.1171875,0.1171875 0.087891,0 0.1074218,-0.029297 0.1464843,-0.1953125 C 2.18809,-4.912283 2.8033244,-5.1759548 3.7798869,-5.1759548 H 5.15684 l -4.55078121,4.87304685 c -0.0683594,0.0683594 -0.10742187,0.1171875 -0.10742187,0.21484375 0,0.0878906229 0.0683594,0.0878906229 0.21484375,0.0878906229 H 4.3951211 c 0.2050781,0 0.2148437,-0.009765623 0.2636719,-0.1562500029 L 5.2154336,-1.9044701 c 0.029297,-0.1074218 0.029297,-0.1171875 0.029297,-0.1269531 0,-0.00977 -0.00977,-0.1171875 -0.1171875,-0.1171875 -0.048828,0 -0.078125,0.029297 -0.078125,0.039063 -0.019531,0.00977 -0.039063,0.029297 -0.048828,0.048828 -0.00977,0.048828 -0.00977,0.058594 -0.078125,0.234375 -0.3515625,1.0742188 -0.8203125,1.5429688 -2.0800781,1.5429688 H 1.3873086 Z m 0,0" style="fill:#ffffff;fill-opacity:1;fill-rule:nonzero;stroke:none" aria-label="Z" transform="matrix(1.6,0,0,1.6,404.0264,241.22293)" />
    <path id="path38" d="M 12.75606,-8.50403 H 29.76412 V 8.50403 H 12.75606 Z" style="fill:#ee5396;fill-opacity:1;fill-rule:nonzero;stroke:#ee5396;stroke-width:0.3985;stroke-linecap:butt;stroke-linejoin:miter;stroke-miterlimit:10;stroke-dasharray:none;stroke-opacity:1" transform="matrix(1.6,0,0,-1.6,375.052,191.51093)" />
    <path id="path39" d="m 5.908793,-5.1370599 c 0.068359,-0.068359 0.1171875,-0.1269531 0.1171875,-0.2148437 0,-0.087891 -0.068359,-0.087891 -0.2148438,-0.087891 H 2.2662148 c -0.2050781,0 -0.2148437,0 -0.2636718,0.15625 l -0.4492188,1.4160157 c -0.00977,0.039063 -0.019531,0.078125 -0.019531,0.1171875 0,0.019531 0,0.1171875 0.1171875,0.1171875 0.087891,0 0.1074218,-0.029297 0.1464843,-0.1953125 0.390625,-1.0839844 1.0058594,-1.3476563 1.9824219,-1.3476563 H 5.15684 l -4.55078121,4.87304688 c -0.0683594,0.0683594 -0.10742187,0.1171875 -0.10742187,0.21484375 0,0.0878906242 0.0683594,0.0878906242 0.21484375,0.0878906242 H 4.3951211 c 0.2050781,0 0.2148437,-0.009765624 0.2636719,-0.1562500042 L 5.2154336,-1.904638 c 0.029297,-0.1074219 0.029297,-0.1171875 0.029297,-0.1269531 0,-0.00977 -0.00977,-0.1171875 -0.1171875,-0.1171875 -0.048828,0 -0.078125,0.029297 -0.078125,0.039063 -0.019531,0.00977 -0.039063,0.029297 -0.048828,0.048828 -0.00977,0.048828 -0.00977,0.058594 -0.078125,0.234375 -0.3515625,1.07421873 -0.8203125,1.54296873 -2.0800781,1.54296873 H 1.3873086 Z m 0,0" style="fill:#ffffff;fill-opacity:1;fill-rule:nonzero;stroke:none" aria-label="Z" transform="matrix(1.6,0,0,1.6,404.0264,195.86773)" />
  </g>
</svg>