<?xml version="1.0" encoding="UTF-8"?><!DOCTYPE svg  PUBLIC '-//W3C//DTD SVG 1.1//EN'  'http://www.w3.org/Graphics/SVG/1.1/DTD/svg11.dtd'><svg width="408.1pt" height="310.89pt" version="1.1" viewBox="0 0 408.1 310.89" xmlns="http://www.w3.org/2000/svg" xmlns:xlink="http://www.w3.org/1999/xlink"><defs><style type="text/css">*{stroke-linejoin: round; stroke-linecap: butt}</style></defs><path d="m0 310.89h408.1v-310.89h-408.1z" fill="#ffffff"/><path d="m43.781 273.31h357.12v-266.11h-357.12z" fill="#ffffff"/><defs><path id="74202237dc5" d="m0 0v3.5" stroke="#000000" stroke-width=".8"/></defs><use x="56.701176" y="273.312" stroke="#000000" stroke-width=".8" xlink:href="#74202237dc5"/><g transform="translate(53.52 287.91) scale(.1 -.1)"><defs><path id="DejaVuSans-30" transform="scale(.015625)" d="m2034 4250q-487 0-733-480-245-479-245-1442 0-959 245-1439 246-480 733-480 491 0 736 480 246 480 246 1439 0 963-246 1442-245 480-736 480zm0 500q785 0 1199-621 414-620 414-1801 0-1178-414-1799-414-620-1199-620-784 0-1198 620-414 621-414 1799 0 1181 414 1801 414 621 1198 621z"/></defs><use xlink:href="#DejaVuSans-30"/></g><use x="122.957205" y="273.312" stroke="#000000" stroke-width=".8" xlink:href="#74202237dc5"/><g transform="translate(116.59 287.91) scale(.1 -.1)"><defs><path id="DejaVuSans-32" transform="scale(.015625)" d="m1228 531h2203v-531h-2962v531q359 372 979 998 621 627 780 809 303 340 423 576 121 236 121 464 0 372-261 606-261 235-680 235-297 0-627-103-329-103-704-313v638q381 153 712 231 332 78 607 78 725 0 1156-363 431-362 431-968 0-288-108-546-107-257-392-607-78-91-497-524-418-433-1181-1211z"/></defs><use xlink:href="#DejaVuSans-32"/><use transform="translate(63.623)" xlink:href="#DejaVuSans-30"/></g><use x="189.213235" y="273.312" stroke="#000000" stroke-width=".8" xlink:href="#74202237dc5"/><g transform="translate(182.85 287.91) scale(.1 -.1)"><defs><path id="DejaVuSans-34" transform="scale(.015625)" d="m2419 4116-1594-2491h1594v2491zm-166 550h794v-3041h666v-525h-666v-1100h-628v1100h-2106v609l1940 2957z"/></defs><use xlink:href="#DejaVuSans-34"/><use transform="translate(63.623)" xlink:href="#DejaVuSans-30"/></g><use x="255.469265" y="273.312" stroke="#000000" stroke-width=".8" xlink:href="#74202237dc5"/><g transform="translate(249.11 287.91) scale(.1 -.1)"><defs><path id="DejaVuSans-36" transform="scale(.015625)" d="m2113 2584q-425 0-674-291-248-290-248-796 0-503 248-796 249-292 674-292t673 292q248 293 248 796 0 506-248 796-248 291-673 291zm1253 1979v-575q-238 112-480 171-242 60-480 60-625 0-955-422-329-422-376-1275 184 272 462 417 279 145 613 145 703 0 1111-427 408-426 408-1160 0-719-425-1154-425-434-1131-434-810 0-1238 620-428 621-428 1799 0 1106 525 1764t1409 658q238 0 480-47t505-140z"/></defs><use xlink:href="#DejaVuSans-36"/><use transform="translate(63.623)" xlink:href="#DejaVuSans-30"/></g><use x="321.725295" y="273.312" stroke="#000000" stroke-width=".8" xlink:href="#74202237dc5"/><g transform="translate(315.36 287.91) scale(.1 -.1)"><defs><path id="DejaVuSans-38" transform="scale(.015625)" d="m2034 2216q-450 0-708-241-257-241-257-662 0-422 257-663 258-241 708-241t709 242q260 243 260 662 0 421-258 662-257 241-711 241zm-631 268q-406 100-633 378-226 279-226 679 0 559 398 884 399 325 1092 325 697 0 1094-325t397-884q0-400-227-679-226-278-629-378 456-106 710-416 255-309 255-755 0-679-414-1042-414-362-1186-362-771 0-1186 362-414 363-414 1042 0 446 256 755 257 310 713 416zm-231 997q0-362 226-565 227-203 636-203 407 0 636 203 230 203 230 565 0 363-230 566-229 203-636 203-409 0-636-203-226-203-226-566z"/></defs><use xlink:href="#DejaVuSans-38"/><use transform="translate(63.623)" xlink:href="#DejaVuSans-30"/></g><use x="387.981324" y="273.312" stroke="#000000" stroke-width=".8" xlink:href="#74202237dc5"/><g transform="translate(378.44 287.91) scale(.1 -.1)"><defs><path id="DejaVuSans-31" transform="scale(.015625)" d="m794 531h1031v3560l-1122-225v575l1116 225h631v-4135h1031v-531h-2687v531z"/></defs><use xlink:href="#DejaVuSans-31"/><use transform="translate(63.623)" xlink:href="#DejaVuSans-30"/><use transform="translate(127.25)" xlink:href="#DejaVuSans-30"/></g><g transform="translate(157.19 301.59) scale(.1 -.1)"><defs><path id="DejaVuSans-44" transform="scale(.015625)" d="m1259 4147v-3628h763q966 0 1414 437 448 438 448 1382 0 937-448 1373t-1414 436h-763zm-631 519h1297q1356 0 1990-564 635-564 635-1764 0-1207-638-1773-637-565-1987-565h-1297v4666z"/><path id="DejaVuSans-69" transform="scale(.015625)" d="m603 3500h575v-3500h-575v3500zm0 1363h575v-729h-575v729z"/><path id="DejaVuSans-73" transform="scale(.015625)" d="m2834 3397v-544q-243 125-506 187-262 63-544 63-428 0-642-131t-214-394q0-200 153-314t616-217l197-44q612-131 870-370t258-667q0-488-386-773-386-284-1061-284-281 0-586 55t-642 164v594q319-166 628-249 309-82 613-82 406 0 624 139 219 139 219 392 0 234-158 359-157 125-692 241l-200 47q-534 112-772 345-237 233-237 639 0 494 350 762 350 269 994 269 318 0 599-47 282-46 519-140z"/><path id="DejaVuSans-74" transform="scale(.015625)" d="m1172 4494v-994h1184v-447h-1184v-1900q0-428 117-550t477-122h590v-481h-590q-666 0-919 248-253 249-253 905v1900h-422v447h422v994h578z"/><path id="DejaVuSans-61" transform="scale(.015625)" d="m2194 1759q-697 0-966-159t-269-544q0-306 202-486 202-179 548-179 479 0 768 339t289 901v128h-572zm1147 238v-1997h-575v531q-197-318-491-470t-719-152q-537 0-855 302-317 302-317 808 0 590 395 890 396 300 1180 300h807v57q0 397-261 614t-733 217q-300 0-585-72-284-72-546-216v532q315 122 612 182 297 61 578 61 760 0 1135-394 375-393 375-1193z"/><path id="DejaVuSans-6e" transform="scale(.015625)" d="m3513 2113v-2113h-575v2094q0 497-194 743-194 247-581 247-466 0-735-297-269-296-269-809v-1978h-578v3500h578v-544q207 316 486 472 280 156 646 156 603 0 912-373 310-373 310-1098z"/><path id="DejaVuSans-63" transform="scale(.015625)" d="m3122 3366v-538q-244 135-489 202t-495 67q-560 0-870-355-309-354-309-995t309-996q310-354 870-354 250 0 495 67t489 202v-532q-241-112-499-168-257-57-548-57-791 0-1257 497-465 497-465 1341 0 856 470 1346 471 491 1290 491 265 0 518-55 253-54 491-163z"/><path id="DejaVuSans-65" transform="scale(.015625)" d="m3597 1894v-281h-2644q38-594 358-905t892-311q331 0 642 81t618 244v-544q-310-131-635-200t-659-69q-838 0-1327 487-489 488-489 1320 0 859 464 1363 464 505 1252 505 706 0 1117-455 411-454 411-1235zm-575 169q-6 471-264 752-258 282-683 282-481 0-770-272t-333-766l2050 4z"/><path id="DejaVuSans-62" transform="scale(.015625)" d="m3116 1747q0 634-261 995t-717 361q-457 0-718-361t-261-995 261-995 718-361q456 0 717 361t261 995zm-1957 1222q182 312 458 463 277 152 661 152 638 0 1036-506 399-506 399-1331t-399-1332q-398-506-1036-506-384 0-661 152-276 152-458 464v-525h-578v4863h578v-1894z"/><path id="DejaVuSans-77" transform="scale(.015625)" d="m269 3500h575l719-2731 715 2731h678l719-2731 716 2731h575l-916-3500h-678l-753 2869-756-2869h-679l-915 3500z"/><path id="DejaVuSans-71" transform="scale(.015625)" d="m947 1747q0-634 261-995t717-361 718 361q263 361 263 995t-263 995q-262 361-718 361t-717-361-261-995zm1959-1222q-181-312-458-464-276-152-664-152-634 0-1033 506-398 507-398 1332t398 1331q399 506 1033 506 388 0 664-152 277-151 458-463v531h575v-4831h-575v1856z"/><path id="DejaVuSans-75" transform="scale(.015625)" d="m544 1381v2119h575v-2097q0-497 193-746 194-248 582-248 465 0 735 297 271 297 271 810v1984h575v-3500h-575v538q-209-319-486-474-276-155-642-155-603 0-916 375-312 375-312 1097zm1447 2203z"/><path id="DejaVuSans-Oblique-69" transform="scale(.015625)" d="m1172 4863h575l-141-729h-575l141 729zm-263-1363h575l-684-3500h-575l684 3500z"/></defs><use transform="translate(0 .015625)" xlink:href="#DejaVuSans-44"/><use transform="translate(77.002 .015625)" xlink:href="#DejaVuSans-69"/><use transform="translate(104.79 .015625)" xlink:href="#DejaVuSans-73"/><use transform="translate(156.88 .015625)" xlink:href="#DejaVuSans-74"/><use transform="translate(196.09 .015625)" xlink:href="#DejaVuSans-61"/><use transform="translate(257.37 .015625)" xlink:href="#DejaVuSans-6e"/><use transform="translate(320.75 .015625)" xlink:href="#DejaVuSans-63"/><use transform="translate(375.73 .015625)" xlink:href="#DejaVuSans-65"/><use transform="translate(437.26 .015625)" xlink:href="#DejaVuSans-20"/><use transform="translate(469.04 .015625)" xlink:href="#DejaVuSans-62"/><use transform="translate(532.52 .015625)" xlink:href="#DejaVuSans-65"/><use transform="translate(594.04 .015625)" xlink:href="#DejaVuSans-74"/><use transform="translate(633.25 .015625)" xlink:href="#DejaVuSans-77"/><use transform="translate(715.04 .015625)" xlink:href="#DejaVuSans-65"/><use transform="translate(776.56 .015625)" xlink:href="#DejaVuSans-65"/><use transform="translate(838.09 .015625)" xlink:href="#DejaVuSans-6e"/><use transform="translate(901.46 .015625)" xlink:href="#DejaVuSans-20"/><use transform="translate(933.25 .015625)" xlink:href="#DejaVuSans-71"/><use transform="translate(996.73 .015625)" xlink:href="#DejaVuSans-75"/><use transform="translate(1060.1 .015625)" xlink:href="#DejaVuSans-62"/><use transform="translate(1123.6 .015625)" xlink:href="#DejaVuSans-69"/><use transform="translate(1151.4 .015625)" xlink:href="#DejaVuSans-74"/><use transform="translate(1190.6 .015625)" xlink:href="#DejaVuSans-73"/><use transform="translate(1242.7 .015625)" xlink:href="#DejaVuSans-20"/><use transform="translate(1274.5 .015625)" xlink:href="#DejaVuSans-Oblique-69"/></g><defs><path id="a2b1e3c4c59" d="m0 0h-3.5" stroke="#000000" stroke-width=".8"/></defs><use x="43.78125" y="250.207442" stroke="#000000" stroke-width=".8" xlink:href="#a2b1e3c4c59"/><g transform="translate(20.878 254.01) scale(.1 -.1)"><defs><path id="DejaVuSans-2e" transform="scale(.015625)" d="m684 794h660v-794h-660v794z"/></defs><use xlink:href="#DejaVuSans-30"/><use transform="translate(63.623)" xlink:href="#DejaVuSans-2e"/><use transform="translate(95.41)" xlink:href="#DejaVuSans-30"/></g><use x="43.78125" y="204.025154" stroke="#000000" stroke-width=".8" xlink:href="#a2b1e3c4c59"/><g transform="translate(20.878 207.82) scale(.1 -.1)"><use xlink:href="#DejaVuSans-30"/><use transform="translate(63.623)" xlink:href="#DejaVuSans-2e"/><use transform="translate(95.41)" xlink:href="#DejaVuSans-32"/></g><use x="43.78125" y="157.842865" stroke="#000000" stroke-width=".8" xlink:href="#a2b1e3c4c59"/><g transform="translate(20.878 161.64) scale(.1 -.1)"><use xlink:href="#DejaVuSans-30"/><use transform="translate(63.623)" xlink:href="#DejaVuSans-2e"/><use transform="translate(95.41)" xlink:href="#DejaVuSans-34"/></g><use x="43.78125" y="111.660577" stroke="#000000" stroke-width=".8" xlink:href="#a2b1e3c4c59"/><g transform="translate(20.878 115.46) scale(.1 -.1)"><use xlink:href="#DejaVuSans-30"/><use transform="translate(63.623)" xlink:href="#DejaVuSans-2e"/><use transform="translate(95.41)" xlink:href="#DejaVuSans-36"/></g><use x="43.78125" y="65.478288" stroke="#000000" stroke-width=".8" xlink:href="#a2b1e3c4c59"/><g transform="translate(20.878 69.278) scale(.1 -.1)"><use xlink:href="#DejaVuSans-30"/><use transform="translate(63.623)" xlink:href="#DejaVuSans-2e"/><use transform="translate(95.41)" xlink:href="#DejaVuSans-38"/></g><use x="43.78125" y="19.296" stroke="#000000" stroke-width=".8" xlink:href="#a2b1e3c4c59"/><g transform="translate(20.878 23.095) scale(.1 -.1)"><use xlink:href="#DejaVuSans-31"/><use transform="translate(63.623)" xlink:href="#DejaVuSans-2e"/><use transform="translate(95.41)" xlink:href="#DejaVuSans-30"/></g><g transform="translate(14.798 171.66) rotate(-90) scale(.1 -.1)"><defs><path id="DejaVuSans-27e8" transform="scale(.015625)" d="m572 2006 881 2850h531l-881-2850 881-2850h-531l-881 2850z"/><path id="DejaVuSans-Oblique-5a" transform="scale(.015625)" d="m838 4666h3662l-91-482-3615-3653h2975l-100-531h-3810l91 481 3616 3653h-2828l100 532z"/><path id="DejaVuSans-27e9" transform="scale(.015625)" d="m1925 2006-881-2850h-531l881 2850-881 2850h531l881-2850z"/><path id="DejaVuSans-2f" transform="scale(.015625)" d="m1625 4666h531l-1625-5260h-531l1625 5260z"/></defs><use transform="translate(0 .125)" xlink:href="#DejaVuSans-27e8"/><use transform="translate(39.014 .125)" xlink:href="#DejaVuSans-Oblique-5a"/><use transform="translate(107.52 -16.281) scale(.7)" xlink:href="#DejaVuSans-Oblique-69"/><use transform="translate(129.7 .125)" xlink:href="#DejaVuSans-Oblique-5a"/><use transform="translate(198.21 -16.281) scale(.7)" xlink:href="#DejaVuSans-30"/><use transform="translate(245.48 .125)" xlink:href="#DejaVuSans-27e9"/><use transform="translate(284.49 .125)" xlink:href="#DejaVuSans-2f"/><use transform="translate(318.18 .125)" xlink:href="#DejaVuSans-27e8"/><use transform="translate(357.2 .125)" xlink:href="#DejaVuSans-Oblique-5a"/><use transform="translate(425.7 -16.281) scale(.7)" xlink:href="#DejaVuSans-31"/><use transform="translate(472.97 .125)" xlink:href="#DejaVuSans-Oblique-5a"/><use transform="translate(541.48 -16.281) scale(.7)" xlink:href="#DejaVuSans-30"/><use transform="translate(588.75 .125)" xlink:href="#DejaVuSans-27e9"/></g><path d="m60.014 19.296 3.3128 145.79 3.3128 48.926 3.3128 11.411 3.3128 27.5 3.3128-1.6431 3.3128-123.16 3.3128 119.51 3.3128-0.68188 3.3128 8.4043 3.3128-2.2145 3.3128 3.5247 3.3128 4.5506 3.3128-6.2014 3.3128-9.34 3.3128 2.5851 3.3128 4.6965 3.3128-4.4788 3.3128-0.81773 3.3128 9.5856 3.3128-19.201 3.3128 18.869 3.3128-3.1526 3.3128-9.7517 3.3128-1.7838 3.3128 7.2984 3.3128 7.5833 3.3128-12.287 3.3128 9.1361 3.3128-13.95 3.3128 3.9935 3.3128 5.4889 3.3128 3.3673 3.3128-9.378 3.3128-15.385 3.3128 22.651 3.3128 2.1211 3.3128-0.42022 3.3128 5.0044 3.3128-9.1141 3.3128-2.4042 3.3128 1.8109 3.3128-3.1365 3.3128-10.561 3.3128 9.5866 3.3128 9.6491 3.3128-5.4546 3.3128-0.22457 3.3128 8.5935 3.3128-0.25615 3.3128-4.1597 3.3128-0.35932 3.3128 2.6378 3.3128-1.4399 3.3128-7.7472 3.3128-2.8345 3.3128 1.6357 3.3128 5.1591 3.3128-1.3579 3.3128-3.6745 3.3128-4.9238 3.3128 7.3076 3.3128-1.2688 3.3128 10.182 3.3128-3.839 3.3128-7.7608 3.3128 9.0999 3.3128-9.512 3.3128 11.782 3.3128 4.9533 3.3128-4.7098 3.3128 4.593 3.3128 0.73539 3.3128-3.9163 3.3128-4.2103 3.3128 0.47884 3.3128 1.2217 3.3128-11.11 3.3128 8.5048 3.3128 1.5748 3.3128-2.4189 3.3128 1.6932 3.3128-5.7637 3.3128-1.2029 3.3128-10.43 3.3128 9.6326 3.3128-0.34856 3.3128 1.0562 3.3128 1.1788 3.3128-1.2971 3.3128-3.3839 3.3128 6.4663 3.3128-4.3628 3.3128 1.6018 3.3128 8.0975 3.3128-9.6601 3.3128-2.1026 3.3128 1.4143 3.3128 1.2063" clip-path="url(#893fe9f7941)" fill="none" stroke="#1f77b4" stroke-linecap="square" stroke-width="1.5"/><defs><path id="c8b4cf7db5a" d="m0 3c0.79561 0 1.5587-0.3161 2.1213-0.87868 0.56258-0.56258 0.87868-1.3257 0.87868-2.1213s-0.3161-1.5587-0.87868-2.1213c-0.56258-0.56258-1.3257-0.87868-2.1213-0.87868s-1.5587 0.3161-2.1213 0.87868c-0.56258 0.56258-0.87868 1.3257-0.87868 2.1213s0.3161 1.5587 0.87868 2.1213c0.56258 0.56258 1.3257 0.87868 2.1213 0.87868z" stroke="#1f77b4"/></defs><g clip-path="url(#893fe9f7941)" fill="#1f77b4" stroke="#1f77b4"><use x="60.013977" y="19.296" xlink:href="#c8b4cf7db5a"/><use x="63.326779" y="165.088107" xlink:href="#c8b4cf7db5a"/><use x="66.63958" y="214.014243" xlink:href="#c8b4cf7db5a"/><use x="69.952382" y="225.425288" xlink:href="#c8b4cf7db5a"/><use x="73.265183" y="252.92518" xlink:href="#c8b4cf7db5a"/><use x="76.577985" y="251.282081" xlink:href="#c8b4cf7db5a"/><use x="79.890786" y="128.123965" xlink:href="#c8b4cf7db5a"/><use x="83.203588" y="247.632879" xlink:href="#c8b4cf7db5a"/><use x="86.516389" y="246.951001" xlink:href="#c8b4cf7db5a"/><use x="89.829191" y="255.355261" xlink:href="#c8b4cf7db5a"/><use x="93.141992" y="253.140733" xlink:href="#c8b4cf7db5a"/><use x="96.454794" y="256.665424" xlink:href="#c8b4cf7db5a"/><use x="99.767595" y="261.216" xlink:href="#c8b4cf7db5a"/><use x="103.080397" y="255.014647" xlink:href="#c8b4cf7db5a"/><use x="106.393198" y="245.674667" xlink:href="#c8b4cf7db5a"/><use x="109.706" y="248.259769" xlink:href="#c8b4cf7db5a"/><use x="113.018801" y="252.956259" xlink:href="#c8b4cf7db5a"/><use x="116.331603" y="248.477451" xlink:href="#c8b4cf7db5a"/><use x="119.644404" y="247.659723" xlink:href="#c8b4cf7db5a"/><use x="122.957205" y="257.245373" xlink:href="#c8b4cf7db5a"/><use x="126.270007" y="238.044024" xlink:href="#c8b4cf7db5a"/><use x="129.582808" y="256.912796" xlink:href="#c8b4cf7db5a"/><use x="132.89561" y="253.760157" xlink:href="#c8b4cf7db5a"/><use x="136.208411" y="244.008425" xlink:href="#c8b4cf7db5a"/><use x="139.521213" y="242.224589" xlink:href="#c8b4cf7db5a"/><use x="142.834014" y="249.522977" xlink:href="#c8b4cf7db5a"/><use x="146.146816" y="257.106233" xlink:href="#c8b4cf7db5a"/><use x="149.459617" y="244.81926" xlink:href="#c8b4cf7db5a"/><use x="152.772419" y="253.955396" xlink:href="#c8b4cf7db5a"/><use x="156.08522" y="240.005031" xlink:href="#c8b4cf7db5a"/><use x="159.398022" y="243.998541" xlink:href="#c8b4cf7db5a"/><use x="162.710823" y="249.48744" xlink:href="#c8b4cf7db5a"/><use x="166.023625" y="252.854762" xlink:href="#c8b4cf7db5a"/><use x="169.336426" y="243.476764" xlink:href="#c8b4cf7db5a"/><use x="172.649228" y="228.092136" xlink:href="#c8b4cf7db5a"/><use x="175.962029" y="250.742705" xlink:href="#c8b4cf7db5a"/><use x="179.274831" y="252.863777" xlink:href="#c8b4cf7db5a"/><use x="182.587632" y="252.443556" xlink:href="#c8b4cf7db5a"/><use x="185.900434" y="257.447928" xlink:href="#c8b4cf7db5a"/><use x="189.213235" y="248.333819" xlink:href="#c8b4cf7db5a"/><use x="192.526037" y="245.929608" xlink:href="#c8b4cf7db5a"/><use x="195.838838" y="247.740474" xlink:href="#c8b4cf7db5a"/><use x="199.15164" y="244.603925" xlink:href="#c8b4cf7db5a"/><use x="202.464441" y="234.04307" xlink:href="#c8b4cf7db5a"/><use x="205.777243" y="243.629689" xlink:href="#c8b4cf7db5a"/><use x="209.090044" y="253.278788" xlink:href="#c8b4cf7db5a"/><use x="212.402846" y="247.824182" xlink:href="#c8b4cf7db5a"/><use x="215.715647" y="247.599609" xlink:href="#c8b4cf7db5a"/><use x="219.028449" y="256.1931" xlink:href="#c8b4cf7db5a"/><use x="222.34125" y="255.936951" xlink:href="#c8b4cf7db5a"/><use x="225.654051" y="251.777289" xlink:href="#c8b4cf7db5a"/><use x="228.966853" y="251.417971" xlink:href="#c8b4cf7db5a"/><use x="232.279654" y="254.055769" xlink:href="#c8b4cf7db5a"/><use x="235.592456" y="252.615906" xlink:href="#c8b4cf7db5a"/><use x="238.905257" y="244.86872" xlink:href="#c8b4cf7db5a"/><use x="242.218059" y="242.034207" xlink:href="#c8b4cf7db5a"/><use x="245.53086" y="243.669863" xlink:href="#c8b4cf7db5a"/><use x="248.843662" y="248.829005" xlink:href="#c8b4cf7db5a"/><use x="252.156463" y="247.471142" xlink:href="#c8b4cf7db5a"/><use x="255.469265" y="243.796632" xlink:href="#c8b4cf7db5a"/><use x="258.782066" y="238.872812" xlink:href="#c8b4cf7db5a"/><use x="262.094868" y="246.180415" xlink:href="#c8b4cf7db5a"/><use x="265.407669" y="244.911634" xlink:href="#c8b4cf7db5a"/><use x="268.720471" y="255.093302" xlink:href="#c8b4cf7db5a"/><use x="272.033272" y="251.254345" xlink:href="#c8b4cf7db5a"/><use x="275.346074" y="243.49355" xlink:href="#c8b4cf7db5a"/><use x="278.658875" y="252.593406" xlink:href="#c8b4cf7db5a"/><use x="281.971677" y="243.081438" xlink:href="#c8b4cf7db5a"/><use x="285.284478" y="254.863413" xlink:href="#c8b4cf7db5a"/><use x="288.59728" y="259.816703" xlink:href="#c8b4cf7db5a"/><use x="291.910081" y="255.106897" xlink:href="#c8b4cf7db5a"/><use x="295.222883" y="259.699936" xlink:href="#c8b4cf7db5a"/><use x="298.535684" y="260.435328" xlink:href="#c8b4cf7db5a"/><use x="301.848486" y="256.518993" xlink:href="#c8b4cf7db5a"/><use x="305.161287" y="252.308704" xlink:href="#c8b4cf7db5a"/><use x="308.474089" y="252.787548" xlink:href="#c8b4cf7db5a"/><use x="311.78689" y="254.009261" xlink:href="#c8b4cf7db5a"/><use x="315.099692" y="242.899413" xlink:href="#c8b4cf7db5a"/><use x="318.412493" y="251.404195" xlink:href="#c8b4cf7db5a"/><use x="321.725295" y="252.978974" xlink:href="#c8b4cf7db5a"/><use x="325.038096" y="250.56005" xlink:href="#c8b4cf7db5a"/><use x="328.350897" y="252.253222" xlink:href="#c8b4cf7db5a"/><use x="331.663699" y="246.489547" xlink:href="#c8b4cf7db5a"/><use x="334.9765" y="245.286654" xlink:href="#c8b4cf7db5a"/><use x="338.289302" y="234.856679" xlink:href="#c8b4cf7db5a"/><use x="341.602103" y="244.489292" xlink:href="#c8b4cf7db5a"/><use x="344.914905" y="244.140727" xlink:href="#c8b4cf7db5a"/><use x="348.227706" y="245.196879" xlink:href="#c8b4cf7db5a"/><use x="351.540508" y="246.375723" xlink:href="#c8b4cf7db5a"/><use x="354.853309" y="245.078663" xlink:href="#c8b4cf7db5a"/><use x="358.166111" y="241.694716" xlink:href="#c8b4cf7db5a"/><use x="361.478912" y="248.161041" xlink:href="#c8b4cf7db5a"/><use x="364.791714" y="243.798275" xlink:href="#c8b4cf7db5a"/><use x="368.104515" y="245.400066" xlink:href="#c8b4cf7db5a"/><use x="371.417317" y="253.497583" xlink:href="#c8b4cf7db5a"/><use x="374.730118" y="243.837447" xlink:href="#c8b4cf7db5a"/><use x="378.04292" y="241.734822" xlink:href="#c8b4cf7db5a"/><use x="381.355721" y="243.149107" xlink:href="#c8b4cf7db5a"/><use x="384.668523" y="244.355423" xlink:href="#c8b4cf7db5a"/></g><path d="m43.781 273.31v-266.11" fill="none" stroke="#000000" stroke-linecap="square" stroke-width=".8"/><path d="m400.9 273.31v-266.11" fill="none" stroke="#000000" stroke-linecap="square" stroke-width=".8"/><path d="m43.781 273.31h357.12" fill="none" stroke="#000000" stroke-linecap="square" stroke-width=".8"/><path d="m43.781 7.2h357.12" fill="none" stroke="#000000" stroke-linecap="square" stroke-width=".8"/><path d="m259.67 29.878h134.23q2 0 2-2v-13.678q0-2-2-2h-134.23q-2 0-2 2v13.678q0 2 2 2z" fill="#ffffff" opacity=".8" stroke="#cccccc"/><path d="m261.67 20.298h10 10" fill="none" stroke="#1f77b4" stroke-linecap="square" stroke-width="1.5"/><use x="271.666875" y="20.298437" fill="#1f77b4" stroke="#1f77b4" xlink:href="#c8b4cf7db5a"/><g transform="translate(289.67 23.798) scale(.1 -.1)"><defs><path id="DejaVuSans-2d" transform="scale(.015625)" d="m313 2009h1684v-512h-1684v512z"/><path id="DejaVuSans-47" transform="scale(.015625)" d="m3809 666v1253h-1031v519h1656v-2004q-365-259-806-392-440-133-940-133-1094 0-1712 639-617 640-617 1780 0 1144 617 1783 618 639 1712 639 456 0 867-113 411-112 758-331v-672q-350 297-744 447t-828 150q-857 0-1287-478-429-478-429-1425 0-944 429-1422 430-478 1287-478 334 0 596 58 263 58 472 180z"/><path id="DejaVuSans-48" transform="scale(.015625)" d="m628 4666h631v-1913h2294v1913h631v-4666h-631v2222h-2294v-2222h-631v4666z"/><path id="DejaVuSans-5a" transform="scale(.015625)" d="m359 4666h3666v-482l-2950-3653h3022v-531h-3809v481l2950 3653h-2879v532z"/></defs><use xlink:href="#DejaVuSans-31"/><use transform="translate(63.623)" xlink:href="#DejaVuSans-30"/><use transform="translate(127.25)" xlink:href="#DejaVuSans-30"/><use transform="translate(190.87)" xlink:href="#DejaVuSans-2d"/><use transform="translate(226.95)" xlink:href="#DejaVuSans-71"/><use transform="translate(290.43)" xlink:href="#DejaVuSans-75"/><use transform="translate(353.81)" xlink:href="#DejaVuSans-62"/><use transform="translate(417.29)" xlink:href="#DejaVuSans-69"/><use transform="translate(445.07)" xlink:href="#DejaVuSans-74"/><use transform="translate(484.28)" xlink:href="#DejaVuSans-20"/><use transform="translate(516.06)" xlink:href="#DejaVuSans-47"/><use transform="translate(593.55)" xlink:href="#DejaVuSans-48"/><use transform="translate(668.75)" xlink:href="#DejaVuSans-5a"/><use transform="translate(737.26)" xlink:href="#DejaVuSans-20"/><use transform="translate(769.04)" xlink:href="#DejaVuSans-73"/><use transform="translate(821.14)" xlink:href="#DejaVuSans-74"/><use transform="translate(860.35)" xlink:href="#DejaVuSans-61"/><use transform="translate(921.63)" xlink:href="#DejaVuSans-74"/><use transform="translate(960.84)" xlink:href="#DejaVuSans-65"/></g><defs><clipPath id="893fe9f7941"><rect x="43.781" y="7.2" width="357.12" height="266.11"/></clipPath></defs></svg>