<?xml version="1.0" encoding="UTF-8"?><!DOCTYPE svg  PUBLIC '-//W3C//DTD SVG 1.1//EN'  'http://www.w3.org/Graphics/SVG/1.1/DTD/svg11.dtd'><svg width="243.46pt" height="172pt" version="1.1" viewBox="0 0 243.46 172" xmlns="http://www.w3.org/2000/svg" xmlns:xlink="http://www.w3.org/1999/xlink"><defs><style type="text/css">*{stroke-linejoin: round; stroke-linecap: butt}</style></defs><path d="m0 172h243.46v-172h-243.46z" fill="#ffffff"/><path d="m87.926 44.283h143.7" clip-path="url(#5008ff50568)" fill="none" stroke="#000000" stroke-linecap="square" stroke-width="2"/><path d="m87.926 90.637h143.7" clip-path="url(#5008ff50568)" fill="none" stroke="#000000" stroke-linecap="square" stroke-width="2"/><path d="m87.926 135.48h143.7" clip-path="url(#5008ff50568)" fill="none" stroke="#778899" stroke-linecap="square" stroke-width="2"/><path d="m87.926 138.5h143.7" clip-path="url(#5008ff50568)" fill="none" stroke="#778899" stroke-linecap="square" stroke-width="2"/><path d="m199.64 126.45h12.052l-6.026 8.6914z" clip-path="url(#5008ff50568)" fill="#778899"/><path d="m83.29 21.106h-1158.8v185.42h1158.8z" clip-path="url(#5008ff50568)" fill="#ffffff" stroke="#ffffff" stroke-width="1.5"/><path d="m207.17 90.637v35.808" clip-path="url(#5008ff50568)" fill="none" stroke="#778899" stroke-linecap="square" stroke-width="2"/><path d="m204.16 90.637v35.808" clip-path="url(#5008ff50568)" fill="none" stroke="#778899" stroke-linecap="square" stroke-width="2"/><path d="m150.27 67.46h18.078v-46.354h-18.078z" clip-path="url(#5008ff50568)" fill="#a8a8a8" opacity=".6"/><path d="m150.27 113.81h18.078v-46.354h-18.078z" clip-path="url(#5008ff50568)" fill="#a8a8a8" opacity=".6"/><path d="m97.892 105.7h30.13v-30.13h-30.13z" clip-path="url(#5008ff50568)" fill="#002d9c" stroke="#002d9c" stroke-width="1.5"/><path d="m190.6 105.7h30.13v-30.13h-30.13z" clip-path="url(#5008ff50568)" fill="#a8a8a8" stroke="#a8a8a8" stroke-width="1.5"/><path d="m216.21 95.157c0-2.7958-1.1118-5.4799-3.0887-7.4568s-4.661-3.0887-7.4568-3.0887-5.4799 1.1118-7.4568 3.0887-3.0887 4.661-3.0887 7.4568" clip-path="url(#5008ff50568)" fill="none" stroke="#000000" stroke-width="2"/><path d="m205.66 95.157 10.546-10.546" clip-path="url(#5008ff50568)" fill="none" stroke="#000000" stroke-linecap="square" stroke-width="2"/><g clip-path="url(#5008ff50568)"><g transform="translate(60.617 48.734) scale(.1625 -.1625)"><defs><path id="DejaVuSans-Oblique-71" transform="scale(.015625)" d="m2669 525q-231-303-546-460-314-156-695-156-531 0-833 358-301 358-301 986 0 506 186 978t533 847q225 244 517 375t614 131q387 0 637-153t363-462l100 525h578l-934-4813h-579l360 1844zm-1778 813q0-463 193-705 194-242 560-242 544 0 928 520t384 1264q0 450-199 689-198 239-569 239-272 0-504-127-231-126-403-370-181-256-286-600-104-343-104-668z"/><path id="DejaVuSans-30" transform="scale(.015625)" d="m2034 4250q-487 0-733-480-245-479-245-1442 0-959 245-1439 246-480 733-480 491 0 736 480 246 480 246 1439 0 963-246 1442-245 480-736 480zm0 500q785 0 1199-621 414-620 414-1801 0-1178-414-1799-414-620-1199-620-784 0-1198 620-414 621-414 1799 0 1181 414 1801 414 621 1198 621z"/></defs><use xlink:href="#DejaVuSans-Oblique-71"/><use transform="translate(63.477 -16.406) scale(.7)" xlink:href="#DejaVuSans-30"/></g></g><g clip-path="url(#5008ff50568)"><g transform="translate(60.617 95.088) scale(.1625 -.1625)"><defs><path id="DejaVuSans-31" transform="scale(.015625)" d="m794 531h1031v3560l-1122-225v575l1116 225h631v-4135h1031v-531h-2687v531z"/></defs><use xlink:href="#DejaVuSans-Oblique-71"/><use transform="translate(63.477 -16.406) scale(.7)" xlink:href="#DejaVuSans-31"/></g></g><g clip-path="url(#5008ff50568)"><g transform="translate(34.292 141.48) scale(.1625 -.1625)"><defs><path id="DejaVuSans-Oblique-6d" transform="scale(.015625)" d="m5747 2113-409-2113h-575l403 2094q25 134 37 231 13 97 13 166 0 281-157 437-156 156-437 156-419 0-747-314t-425-817l-384-1953h-575l409 2094q25 115 37 213 13 99 13 177 0 285-156 442-156 158-431 158-425 0-754-314-328-314-425-817l-384-1953h-575l684 3500h575l-109-544q234 307 548 467 315 161 674 161 381 0 626-200 246-200 296-556 262 369 607 562 346 194 730 194 450 0 695-259 246-259 246-734 0-103-13-227-12-123-37-251z"/><path id="DejaVuSans-Oblique-65" transform="scale(.015625)" d="m3078 2063q10 50 14 103 5 53 5 106 0 381-224 603-223 222-607 222-428 0-757-271-328-270-496-767l2065 4zm500-450h-2675q-19-119-25-188t-6-119q0-434 267-672 267-237 755-237 375 0 709 84 335 85 622 247l-109-569q-310-125-640-187-329-63-670-63-728 0-1120 348-392 349-392 990 0 547 195 1017t574 839q243 231 579 356t714 125q594 0 945-356 352-356 352-956 0-144-19-308-18-164-56-351z"/><path id="DejaVuSans-Oblique-61" transform="scale(.015625)" d="m3438 1997-391-1997h-575l106 531q-253-312-577-467-323-155-720-155-447 0-733 273-285 274-285 702 0 613 489 969t1348 356h800l31 154q7 25 10 54 3 30 3 92 0 279-227 433-226 155-636 155-281 0-577-72-295-72-607-216l100 532q325 122 636 182 311 61 601 61 619 0 942-269 324-268 324-781 0-103-16-242-15-139-46-295zm-622-238h-575q-707 0-1046-189t-339-586q0-275 173-431 174-156 480-156 469 0 819 336t463 898l25 128z"/><path id="DejaVuSans-Oblique-73" transform="scale(.015625)" d="m3200 3397-109-544q-228 125-482 187-253 63-521 63-454 0-715-155-260-154-260-420 0-309 606-475 47-12 69-19l184-56q575-159 767-334t192-478q0-557-442-907t-1158-350q-278 0-584 54-306 53-675 165l112 594q316-163 622-247 307-84 588-84 422 0 686 181t264 459q0 300-694 485l-59 15-197 50q-438 116-641 305t-203 483q0 559 420 887 421 328 1143 328 284 0 554-47 271-46 533-140z"/></defs><use xlink:href="#DejaVuSans-Oblique-6d"/><use transform="translate(97.412)" xlink:href="#DejaVuSans-Oblique-65"/><use transform="translate(158.94)" xlink:href="#DejaVuSans-Oblique-61"/><use transform="translate(220.21)" xlink:href="#DejaVuSans-Oblique-73"/></g></g><g clip-path="url(#5008ff50568)"><g transform="translate(108.5 94.224) scale(.13 -.13)" fill="#ffffff"><defs><path id="DejaVuSans-58" transform="scale(.015625)" d="m403 4666h678l1160-1735 1165 1735h678l-1500-2241 1600-2425h-678l-1312 1984-1322-1984h-681l1665 2491-1453 2175z"/></defs><use xlink:href="#DejaVuSans-58"/></g></g><path d="m159.31 21.106v46.354" clip-path="url(#5008ff50568)" fill="none" stroke="#000000" stroke-dasharray="3.7,1.6"/><path d="m159.31 67.46v46.354" clip-path="url(#5008ff50568)" fill="none" stroke="#000000" stroke-dasharray="3.7,1.6"/><defs><clipPath id="5008ff50568"><rect x="7.2" y="7.2" width="229.06" height="157.6"/></clipPath></defs></svg>