<?xml version='1.0' encoding='utf-8'?>
<svg xmlns="http://www.w3.org/2000/svg" xmlns:ns1="http://sodipodi.sourceforge.net/DTD/sodipodi-0.dtd" xmlns:ns2="http://www.inkscape.org/namespaces/inkscape" version="1.1" id="svg1" width="100%" height="auto" viewBox="-20.0 -20.0 481.41406 229.16588" ns1:docname="svg_fix_XXXXXX.svg">
  <rect id="path1" x="-20.0" y="-20.0" width="481.41406" height="229.16588" fill="white" /><ns1:namedview id="namedview1" pagecolor="#ffffff" bordercolor="#000000" borderopacity="0.25" ns2:showpageshadow="2" ns2:pageopacity="0.0" ns2:pagecheckerboard="0" ns2:deskcolor="#d1d1d1" />
  <defs id="defs1" />
  <g id="g1" transform="translate(-80.152343,-34.914062)">
    <path id="path2" d="m 3.993651,-3.1829154 c -0.3515625,0.087891 -0.3710937,0.4003907 -0.3710937,0.4296875 0,0.1757813 0.1367187,0.3027344 0.3125,0.3027344 0.1757812,0 0.4492187,-0.1367187 0.4492187,-0.4785156 0,-0.4589844 -0.5078125,-0.5859375 -0.8007812,-0.5859375 -0.3710938,0 -0.6738281,0.2636719 -0.859375,0.5761719 -0.1757813,-0.4199219 -0.5859375,-0.5761719 -0.9179688,-0.5761719 -0.86914058,0 -1.34765621,0.9960937 -1.34765621,1.2207031 0,0.068359 0.0488281,0.1074219 0.1171875,0.1074219 0.0976563,0 0.10742188,-0.039063 0.13671875,-0.1367188 0.17578125,-0.5859375 0.65429686,-0.9667968 1.07421876,-0.9667968 0.3125,0 0.4589844,0.2246093 0.4589844,0.5078125 0,0.1660156 -0.097656,0.5273437 -0.15625,0.78125 -0.058594,0.234375 -0.234375,0.9375 -0.2734375,1.09374996 -0.1074219,0.4296875 -0.4003907,0.76171875 -0.7519532,0.76171875 -0.039063,0 -0.24414058,0 -0.41015621,-0.10742187 0.36132811,-0.0878906 0.36132811,-0.41992188 0.36132811,-0.4296875 0,-0.18554688 -0.13671873,-0.29296875 -0.31249998,-0.29296875 -0.21484375,0 -0.44921875,0.17578125 -0.44921875,0.47851562 0,0.37109375 0.390625,0.57617188 0.80078123,0.57617188 0.4199219,0 0.7128906,-0.3125 0.859375,-0.57617188 0.1757813,0.390625 0.5371094,0.57617188 0.9179688,0.57617188 0.8691406,0 1.3476562,-0.99609375 1.3476562,-1.22070309 0,-0.078125 -0.058594,-0.097656 -0.1171875,-0.097656 -0.097656,0 -0.1074219,0.048828 -0.1367187,0.1367188 -0.15625,0.52734371 -0.6152344,0.95703121 -1.0742188,0.95703121 -0.2636719,0 -0.4492187,-0.17578125 -0.4492187,-0.5078125 0,-0.15625 0.048828,-0.34179687 0.15625,-0.79101561 0.058594,-0.234375 0.234375,-0.9375 0.2734375,-1.0839844 0.1074218,-0.4199219 0.390625,-0.7617187 0.7421875,-0.7617187 0.039063,0 0.2539062,0 0.4199218,0.1074215 z m 0,0" style="fill:#121619;fill-opacity:1;fill-rule:nonzero;stroke:none" aria-label="x" transform="matrix(1.6,0,0,1.6,157.84453,223.19813)" />
    <path id="path3" d="m 4.1307799,-3.0077318 c 0.029297,-0.1074218 0.029297,-0.1269531 0.029297,-0.1757812 0,-0.2050781 -0.15625,-0.2539063 -0.2539062,-0.2539063 -0.039063,0 -0.2246094,0.00977 -0.3320313,0.2148438 -0.00977,0.039063 -0.087891,0.3320312 -0.1269531,0.4980469 l -0.4785156,1.91406245 c 0,0.0195313 -0.3515625,0.6640625 -0.9277344,0.6640625 -0.390625,0 -0.5273438,-0.28320312 -0.5273438,-0.64453125 0,-0.4589844 0.2734375,-1.171875 0.4589844,-1.6308594 0.078125,-0.1953125 0.097656,-0.2734375 0.097656,-0.4101562 0,-0.4394531 -0.3515625,-0.6835938 -0.7128907,-0.6835938 -0.79101558,0 -1.12304683,1.1230469 -1.12304683,1.2207032 0,0.068359 0.0585938,0.1074218 0.12695313,0.1074218 0.0976563,0 0.10742187,-0.048828 0.13671875,-0.1269531 0.20507812,-0.6933594 0.54687495,-0.9765625 0.83007815,-0.9765625 0.1269531,0 0.1953125,0.078125 0.1953125,0.2636719 0,0.1660156 -0.068359,0.3515625 -0.1171875,0.4980469 -0.3320313,0.8398437 -0.46875003,1.25 -0.46875003,1.6210937 0,0.78125 0.59570313,0.98632813 1.06445313,0.98632813 0.3710937,0 0.6445312,-0.16601563 0.8300781,-0.3515625 C 2.7245299,0.17586198 2.6464049,0.48836198 2.3436706,0.86922135 2.0799987,1.191487 1.7577331,1.4063307 1.4061706,1.4063307 1.2694518,1.4063307 0.96671745,1.3770339 0.80070182,1.1426589 1.2303893,1.1035964 1.2596862,0.75203385 1.2596862,0.70320573 c 0,-0.1953125 -0.1464844,-0.29296875 -0.3125,-0.29296875 -0.17578125,0 -0.44921875,0.12695312 -0.44921875,0.51757812 0,0.3808594 0.34179687,0.6933594 0.90820315,0.6933594 0.8105468,0 1.7285156,-0.64453127 1.9628906,-1.61132815 z m 0,0" style="fill:#121619;fill-opacity:1;fill-rule:nonzero;stroke:none" aria-label="y" transform="matrix(1.6,0,0,1.6,158.31653,40.538933)" />
    <path id="path4" d="m 3.1241237,-3.037599 c -0.068359,-0.1367187 -0.3027344,-0.4785156 -0.7910156,-0.4785156 -0.9472657,0 -1.99218753,1.1132813 -1.99218753,2.2851563 0,0.83007809 0.53710938,1.30859372 1.15234373,1.30859372 0.5078125,0 0.9472656,-0.40039063 1.0839844,-0.56640625 0.1464844,0.55664062 0.6933594,0.56640625 0.78125,0.56640625 0.3710937,0 0.5566406,-0.30273438 0.6152344,-0.43945313 0.1660156,-0.28320312 0.2734375,-0.74218749 0.2734375,-0.78124999 0,-0.048828 -0.029297,-0.097656 -0.1269532,-0.097656 -0.097656,0 -0.1171875,0.048828 -0.15625,0.24414067 -0.1171875,0.43945312 -0.2636718,0.84960937 -0.5761718,0.84960937 -0.1855469,0 -0.2539063,-0.14648437 -0.2539063,-0.37109375 0,-0.13671875 0.068359,-0.41015625 0.1171875,-0.60546879 0.048828,-0.1953125 0.1660156,-0.6738281 0.1953125,-0.8203125 l 0.1660156,-0.6054687 c 0.039063,-0.1953125 0.1269532,-0.5273438 0.1269532,-0.5664063 0,-0.1855468 -0.15625,-0.2441406 -0.2539063,-0.2441406 -0.1269531,0 -0.3222656,0.078125 -0.3613281,0.3222653 z m -0.546875,2.17773442 c -0.390625,0.546875 -0.8105469,0.71289062 -1.0644531,0.71289062 -0.3613282,0 -0.54687503,-0.33203125 -0.54687503,-0.7421875 0,-0.38085934 0.21484373,-1.23046874 0.39062503,-1.58203124 0.2246093,-0.4882813 0.6152343,-0.8203125 0.9863281,-0.8203125 0.5175781,0 0.6640625,0.5859375 0.6640625,0.6738281 0,0.039063 -0.1953125,0.8203125 -0.2441406,1.0253906 -0.097656,0.3710938 -0.097656,0.390625 -0.1855469,0.73242192 z m 0,0" style="fill:#121619;fill-opacity:1;fill-rule:nonzero;stroke:none" aria-label="a" transform="matrix(1.6,0,0,1.6,514.77093,177.84453)" />
    <path id="path5" d="m 1.9424831,-5.2935482 c 0.00977,-0.00977 0.029297,-0.1171875 0.029297,-0.1269531 0,-0.039063 -0.029297,-0.1074219 -0.1269531,-0.1074219 -0.029297,0 -0.2734375,0.019531 -0.4589844,0.039063 l -0.4492187,0.029297 c -0.17578125,0.019531 -0.25390625,0.019531 -0.25390625,0.1660156 0,0.1171875 0.1171875,0.1171875 0.20507812,0.1171875 0.39062503,0 0.39062503,0.039063 0.39062503,0.1171875 0,0.048828 -0.087891,0.3613281 -0.1269532,0.546875 l -0.69335933,2.7734375 c -0.0683594,0.2734375 -0.0683594,0.390625 -0.0683594,0.5273438 0,0.82031247 0.49804687,1.28906247 1.11328123,1.28906247 0.9863282,0 2.0019532,-1.13281247 2.0019532,-2.28515627 0,-0.7910156 -0.5078125,-1.3085937 -1.1425782,-1.3085937 -0.4492187,0 -0.7910156,0.2929687 -0.9667968,0.4394531 z m -0.4394532,5.1464844 c -0.2832031,0 -0.57617183,-0.22460938 -0.57617183,-0.80078125 0,-0.21484375 0.0390625,-0.41992185 0.13671873,-0.80078125 0.048828,-0.2246094 0.1074219,-0.4492188 0.1660156,-0.6835938 0.048828,-0.1464843 0.048828,-0.15625 0.1367188,-0.2734375 0.2734375,-0.3417968 0.6347656,-0.5859375 0.9667969,-0.5859375 0.4003906,0 0.546875,0.390625 0.546875,0.7519532 0,0.2929687 -0.1757813,1.1425781 -0.4101563,1.6113281 -0.2050781,0.4296875 -0.5859375,0.78125 -0.9667969,0.78125 z m 0,0" style="fill:#121619;fill-opacity:1;fill-rule:nonzero;stroke:none" aria-label="b" transform="matrix(1.6,0,0,1.6,514.77093,88.817333)" />
    <path id="path6" d="m 46.06357,-38.97685 h 21.26009 v 21.26009 H 46.06357 Z" style="fill:#000000;fill-opacity:1;fill-rule:nonzero;stroke:#000000;stroke-width:0.3985;stroke-linecap:butt;stroke-linejoin:miter;stroke-miterlimit:10;stroke-dasharray:none;stroke-opacity:1" transform="matrix(1.6,0,0,-1.6,306.10533,129.74373)" />
    <path id="path7" d="m 62.36288,-30.8979 c 0,3.13112 -2.53822,5.66934 -5.66934,5.66934 -3.13113,0 -5.66935,-2.53822 -5.66935,-5.66934" style="fill:none;stroke:#ffffff;stroke-width:0.79701;stroke-linecap:butt;stroke-linejoin:miter;stroke-miterlimit:10;stroke-dasharray:none;stroke-opacity:1" transform="matrix(1.6,0,0,-1.6,306.10533,129.74373)" />
    <path id="path8" d="m 56.69362,-30.6146 5.66926,4.81892" style="fill:none;stroke:#ffffff;stroke-width:0.79701;stroke-linecap:butt;stroke-linejoin:miter;stroke-miterlimit:10;stroke-dasharray:none;stroke-opacity:1" transform="matrix(1.6,0,0,-1.6,306.10533,129.74373)" />
    <path id="path9" d="m 57.544,-30.6146 c 0,0.46967 -0.38072,0.85041 -0.85038,0.85041 -0.46967,0 -0.8504,-0.38074 -0.8504,-0.85041 0,-0.46966 0.38073,-0.85038 0.8504,-0.85038 0.46966,0 0.85038,0.38072 0.85038,0.85038 z" style="fill:#ffffff;fill-opacity:1;fill-rule:nonzero;stroke:none" transform="matrix(1.6,0,0,-1.6,306.10533,129.74373)" />
    <path id="path10" d="M 46.06357,17.71675 H 67.32366 V 38.97684 H 46.06357 Z" style="fill:#000000;fill-opacity:1;fill-rule:nonzero;stroke:#000000;stroke-width:0.3985;stroke-linecap:butt;stroke-linejoin:miter;stroke-miterlimit:10;stroke-dasharray:none;stroke-opacity:1" transform="matrix(1.6,0,0,-1.6,306.10533,129.74373)" />
    <path id="path11" d="m 62.36288,25.7957 c 0,3.13112 -2.53822,5.66934 -5.66934,5.66934 -3.13113,0 -5.66935,-2.53822 -5.66935,-5.66934" style="fill:none;stroke:#ffffff;stroke-width:0.79701;stroke-linecap:butt;stroke-linejoin:miter;stroke-miterlimit:10;stroke-dasharray:none;stroke-opacity:1" transform="matrix(1.6,0,0,-1.6,306.10533,129.74373)" />
    <path id="path12" d="m 56.69362,26.07901 5.66926,4.81891" style="fill:none;stroke:#ffffff;stroke-width:0.79701;stroke-linecap:butt;stroke-linejoin:miter;stroke-miterlimit:10;stroke-dasharray:none;stroke-opacity:1" transform="matrix(1.6,0,0,-1.6,306.10533,129.74373)" />
    <path id="path13" d="m 57.544,26.07901 c 0,0.46967 -0.38072,0.8504 -0.85038,0.8504 -0.46967,0 -0.8504,-0.38073 -0.8504,-0.8504 0,-0.46967 0.38073,-0.85039 0.8504,-0.85039 0.46966,0 0.85038,0.38072 0.85038,0.85039 z" style="fill:#ffffff;fill-opacity:1;fill-rule:nonzero;stroke:none" transform="matrix(1.6,0,0,-1.6,306.10533,129.74373)" />
    <path id="path14" d="M -82.18471,-55.98495 H 0" style="fill:none;stroke:#121619;stroke-width:0.3985;stroke-linecap:butt;stroke-linejoin:miter;stroke-miterlimit:10;stroke-dasharray:none;stroke-opacity:1" transform="matrix(1.6,0,0,-1.6,306.10533,129.74373)" />
    <path id="path15" d="M -82.18471,-57.40227 H 0" style="fill:none;stroke:#121619;stroke-width:0.3985;stroke-linecap:butt;stroke-linejoin:miter;stroke-miterlimit:10;stroke-dasharray:none;stroke-opacity:1" transform="matrix(1.6,0,0,-1.6,306.10533,129.74373)" />
    <path id="path16" d="M -82.18471,57.40227 H 0" style="fill:none;stroke:#121619;stroke-width:0.3985;stroke-linecap:butt;stroke-linejoin:miter;stroke-miterlimit:10;stroke-dasharray:none;stroke-opacity:1" transform="matrix(1.6,0,0,-1.6,306.10533,129.74373)" />
    <path id="path17" d="M -82.18471,55.98495 H 0" style="fill:none;stroke:#121619;stroke-width:0.3985;stroke-linecap:butt;stroke-linejoin:miter;stroke-miterlimit:10;stroke-dasharray:none;stroke-opacity:1" transform="matrix(1.6,0,0,-1.6,306.10533,129.74373)" />
    <path id="path18" d="m 67.5229,-27.63815 h 57.18203" style="fill:none;stroke:#121619;stroke-width:0.3985;stroke-linecap:butt;stroke-linejoin:miter;stroke-miterlimit:10;stroke-dasharray:none;stroke-opacity:1" transform="matrix(1.6,0,0,-1.6,306.10533,129.74373)" />
    <path id="path19" d="m 67.5229,-29.05545 h 57.18203" style="fill:none;stroke:#121619;stroke-width:0.3985;stroke-linecap:butt;stroke-linejoin:miter;stroke-miterlimit:10;stroke-dasharray:none;stroke-opacity:1" transform="matrix(1.6,0,0,-1.6,306.10533,129.74373)" />
    <path id="path20" d="m 67.5229,29.05545 h 57.18203" style="fill:none;stroke:#121619;stroke-width:0.3985;stroke-linecap:butt;stroke-linejoin:miter;stroke-miterlimit:10;stroke-dasharray:none;stroke-opacity:1" transform="matrix(1.6,0,0,-1.6,306.10533,129.74373)" />
    <path id="path21" d="m 67.5229,27.63815 h 57.18203" style="fill:none;stroke:#121619;stroke-width:0.3985;stroke-linecap:butt;stroke-linejoin:miter;stroke-miterlimit:10;stroke-dasharray:none;stroke-opacity:1" transform="matrix(1.6,0,0,-1.6,306.10533,129.74373)" />
    <g id="g21" aria-label="∣ϕ&#10;+&#10;⟩&#10;⎧&#10;⎪&#10;⎪&#10;⎪&#10;⎪&#10;⎪&#10;⎪&#10;⎪&#10;⎪&#10;⎪&#10;⎪&#10;⎪&#10;⎨&#10;⎪&#10;⎪&#10;⎪&#10;⎪&#10;⎪&#10;⎪&#10;⎪&#10;⎪&#10;⎪&#10;⎪&#10;⎪&#10;⎩" transform="matrix(1.6,0,0,1.6,78.244533,134.82373)">
      <path id="path22" d="m 1.1923815,-6.0934466 v 7.8027344 h 0.5175781 v -7.8027344 z m 0,0" style="fill:#121619;fill-opacity:1;fill-rule:nonzero;stroke:none" />
      <path id="path23" d="m 6.5830065,-5.4293841 c 0,-0.087891 -0.087891,-0.097656 -0.1269531,-0.097656 -0.1074219,0 -0.1074219,0.048828 -0.1464844,0.1757813 l -0.4492187,1.8261719 c -1.4160157,0.058594 -2.5488282,1.1230468 -2.5488282,2.1582031 0,0.79101561 0.6933594,1.41601561 1.640625,1.45507811 C 4.8837878,0.33233464 4.825194,0.58624089 4.7666003,0.84014714 4.668944,1.2112409 4.6005846,1.5042096 4.6005846,1.5335065 c 0,0 0,0.087891 0.1171875,0.087891 0.1074219,0 0.1074219,-0.039063 0.15625,-0.1855468 L 5.2060534,0.09795964 c 1.40625,-0.078125 2.5390625,-1.11328124 2.5390625,-2.15820314 0,-0.9082031 -0.8007813,-1.4257812 -1.6308594,-1.4648437 z m -0.5273437,2.1191406 c 0.5957031,0.048828 1.1230468,0.3710938 1.1230468,1.1132813 0,0.7519531 -0.546875,1.92382809 -1.9140625,2.06054684 z M 5.0009753,-0.12664974 C 4.747069,-0.14618099 3.8779284,-0.27313411 3.8779284,-1.2301654 c 0,-0.859375 0.6445312,-1.953125 1.9140625,-2.0703125 z m 0,0" style="fill:#121619;fill-opacity:1;fill-rule:nonzero;stroke:none" />
      <path id="path24" d="m 9.8984362,-7.4069232 v 1.4257813 H 8.4726549 v 0.3808593 h 1.4257813 v 1.4257813 h 0.3808598 v -1.4257813 h 1.425781 v -0.3808593 h -1.425781 v -1.4257813 z m 0,0" style="fill:#121619;fill-opacity:1;fill-rule:nonzero;stroke:none" />
      <path id="path25" d="m 13.948729,1.7971784 1.435547,-3.984375 -1.435547,-3.9941406 -0.478515,0.1757812 1.435546,3.8183594 -1.435546,3.8085937 z m 7.470703,-36.2573244 v -0.419922 c -0.986328,0 -1.884765,0.654297 -1.884765,1.601563 v 3.339844 h 0.507812 v -3.34961 c 0,-0.683594 0.654297,-1.171875 1.376953,-1.171875 z m -1.884765,3.937988 v 2.851563 h 0.507812 v -2.851563 z m 0,2.34375 v 2.851563 h 0.507812 v -2.851563 z m 0,2.341309 v 2.851563 h 0.507812 v -2.851563 z m 0,2.34375 v 2.851563 h 0.507812 v -2.851563 z m 0,2.34375 v 2.851563 h 0.507812 v -2.851563 z m 0,2.34375 v 2.851563 h 0.507812 v -2.851563 z m 0,2.34375 v 2.851563 h 0.507812 v -2.851563 z m 0,2.341309 v 2.851562 h 0.507812 v -2.851562 z m 0,2.34375 v 2.8515621 h 0.507812 V -11.77704 Z m 0,2.3437496 v 2.8515625 h 0.507812 v -2.8515625 z m 0,2.34375 v 2.8515625 h 0.507812 v -2.8515625 z m 0.507812,2.3413086 h -0.507812 v 1.2597657 c 0,0.6347656 -0.605469,1.0742187 -1.289063,1.1035156 h -0.08789 v 0.4589844 c 0.722656,0 1.376953,0.4492187 1.376953,1.12304683 v 1.25 h 0.507812 V -0.8126849 c 0,-0.6054687 -0.361328,-1.0742187 -0.888672,-1.3378906 0.527344,-0.2636719 0.888672,-0.7519531 0.888672,-1.3476563 z m -0.507812,4.61181644 V 2.7151471 h 0.507812 v -2.85156246 z m 0,2.34374996 v 2.8515625 h 0.507812 V 2.2073346 Z m 0,2.3413086 v 2.8515625 h 0.507812 V 4.5486432 Z m 0,2.34375 v 2.8515625 h 0.507812 V 6.8923932 Z m 0,2.34375 v 2.8515628 h 0.507812 V 9.2361432 Z m 0,2.3437498 v 2.851563 h 0.507812 v -2.851563 z m 0,2.34375 v 2.851563 h 0.507812 v -2.851563 z m 0,2.341309 v 2.851562 h 0.507812 v -2.851562 z m 0,2.34375 v 2.851562 h 0.507812 v -2.851562 z m 0,2.34375 v 2.851562 h 0.507812 v -2.851562 z m 0,2.34375 v 2.851562 h 0.507812 v -2.851562 z m 1.884765,7.285156 v -0.429687 c -0.722656,0 -1.376953,-0.488282 -1.376953,-1.171875 v -3.339844 h -0.507812 v 3.339844 c 0,0.947265 0.898437,1.601562 1.884765,1.601562 z m 0,0" style="fill:#121619;fill-opacity:1;fill-rule:nonzero;stroke:none" />
    </g>
    <path id="path26" d="m 5.1663073,-1.4944583 c 0,-0.703125 -0.7421875,-1.2695313 -1.6308594,-1.3964844 0.8300781,-0.2050781 1.3867188,-0.6835938 1.3867188,-1.25 0,-0.7324219 -0.9179688,-1.3867188 -2.0898438,-1.3867188 H 0.80107292 V -3.1770833e-4 H 3.0666979 c 1.1816406,0 2.0996094,-0.70312500167 2.0996094,-1.49414059167 z m -0.9375,-2.6464844 c 0,0.5371094 -0.7226563,0.9960937 -1.6210938,0.9960937 H 1.5432604 v -1.9140625 h 1.0546875 c 0.8886719,0 1.6308594,0.4101563 1.6308594,0.9179688 z M 4.443651,-1.504224 c 0,0.58593754 -0.7421875,1.03515629 -1.6210937,1.03515629 H 1.5432604 V -2.6175052 h 1.1425781 c 1.0058594,0 1.7578125,0.5175781 1.7578125,1.1132812 z m 5.1831055,-0.2441406 c 0,-1.0449219 -0.8398437,-1.9140625 -1.875,-1.9140625 -1.0351562,0 -1.875,0.8691406 -1.875,1.9140625 0,1.01562502 0.8496094,1.82617189 1.875,1.82617189 1.0351563,0 1.875,-0.81054687 1.875,-1.82617189 z m -0.6933594,-0.087891 c 0,0.90820312 -0.5664062,1.36718749 -1.1816406,1.36718749 -0.625,0 -1.1816406,-0.45898437 -1.1816406,-1.36718749 0,-0.8984375 0.5957031,-1.2988281 1.1816406,-1.2988281 0.5957031,0 1.1816406,0.4199218 1.1816406,1.2988281 z m 5.0244139,0.058594 c 0,-0.9667968 -0.55664,-1.8359375 -1.347656,-1.8359375 -0.507813,0 -0.986328,0.15625 -1.386719,0.4492188 v -2.3632813 h -0.673828 v 5.52734379167 h 0.693359 V -0.37141146 c 0.175782,0.14648438 0.556641,0.44921875 1.142579,0.44921875 0.86914,0 1.572265,-0.81054687 1.572265,-1.85546889 z m -0.693359,0 c 0,0.97656254 -0.664063,1.32812504 -1.220703,1.32812504 -0.292969,0 -0.576172,-0.13671875 -0.800782,-0.48828125 V -2.5100833 c 0,-0.1269532 0,-0.2246094 0.283204,-0.4101563 0.117187,-0.068359 0.332031,-0.1757812 0.605468,-0.1757812 0.53711,0 1.132813,0.3613281 1.132813,1.3183592 z m 0,0" style="fill:#121619;fill-opacity:1;fill-rule:nonzero;stroke:none" aria-label="Bob" transform="matrix(1.6,0,0,1.6,476.12453,122.76613)" />
    <path id="path27" d="M -110.55237,0 H 134.64734" style="fill:none;stroke:#e7e8e8;stroke-width:0.79701;stroke-linecap:butt;stroke-linejoin:miter;stroke-miterlimit:10;stroke-dasharray:none;stroke-opacity:1" transform="matrix(1.6,0,0,-1.6,306.10533,129.74373)" />
    <path id="path28" d="M 5.3913073,4.8697917e-4 3.2038073,-5.5268568 H 2.4323229 L 0.23505729,4.8697917e-4 H 0.88935417 L 1.5143542,-1.5815443 h 2.421875 l 0.625,1.58203127917 z M 3.7409167,-2.0502943 h -2.03125 L 2.7350573,-4.921388 Z M 6.9806628,4.8697917e-4 V -5.5268568 H 6.3166003 V 4.8697917e-4 Z m 2.0166015,0 V -3.5346693 H 8.3332018 V 4.8697917e-4 Z M 9.0656237,-4.4624036 V -5.2631849 H 8.2648424 v 0.8007813 z m 4.1259763,4.17968745 -0.04883,-0.5859375 c -0.40039,0.25390625 -0.830078,0.40039063 -1.318359,0.40039063 -0.742188,0 -1.171875,-0.59570308 -1.171875,-1.30859378 0,-0.6152343 0.322265,-1.328125 1.191406,-1.328125 0.537109,0 0.800781,0.1074219 1.201172,0.3613282 l 0.107422,-0.5664063 c -0.478516,-0.2441406 -0.683594,-0.3515625 -1.308594,-0.3515625 -1.191406,0 -1.8847656,0.9667969 -1.8847656,1.8945313 0,0.96679683 0.7714846,1.84570308 1.8554686,1.84570308 0.556641,0 1.035156,-0.16601563 1.376953,-0.36132813 z m 3.752442,-1.46484375 c 0,-0.3613281 -0.03906,-0.8984375 -0.351563,-1.3476562 -0.283203,-0.4101563 -0.761719,-0.5664063 -1.152344,-0.5664063 -0.976562,0 -1.71875,0.859375 -1.71875,1.8652344 0,1.0253906 0.791016,1.87499998 1.845704,1.87499998 0.458984,0 0.9375,-0.13671875 1.347656,-0.38085938 l -0.04883,-0.56640625 c -0.449219,0.32226563 -0.947266,0.41992188 -1.289063,0.41992188 -0.693359,0 -1.220703,-0.56640623 -1.25,-1.29882813 z M 16.45576,-2.2260755 h -2.070312 c 0.185547,-0.6347656 0.654297,-0.9082031 1.054687,-0.9082031 0.351563,0 0.869141,0.1660156 1.015625,0.9082031 z m 0,0" style="fill:#121619;fill-opacity:1;fill-rule:nonzero;stroke:none" aria-label="Alice" transform="matrix(1.6,0,0,1.6,473.76453,145.44453)" />
    <path id="path29" d="M 45.86432,-28.3468 H -110.53152" style="fill:none;stroke:#121619;stroke-width:0.3985;stroke-linecap:butt;stroke-linejoin:miter;stroke-miterlimit:10;stroke-dasharray:none;stroke-opacity:1" transform="matrix(1.6,0,0,-1.6,306.10533,129.74373)" />
    <path id="path30" d="M 45.86432,28.3468 H -110.53152" style="fill:none;stroke:#121619;stroke-width:0.3985;stroke-linecap:butt;stroke-linejoin:miter;stroke-miterlimit:10;stroke-dasharray:none;stroke-opacity:1" transform="matrix(1.6,0,0,-1.6,306.10533,129.74373)" />
    <path id="path31" d="m -11.33871,-39.68552 h 22.67743 v 22.67743 h -22.67743 z" style="fill:#78a9ff;fill-opacity:1;fill-rule:nonzero;stroke:#78a9ff;stroke-width:0.3985;stroke-linecap:butt;stroke-linejoin:miter;stroke-miterlimit:10;stroke-dasharray:none;stroke-opacity:1" transform="matrix(1.6,0,0,-1.6,306.10533,129.74373)" />
    <g id="g31" aria-label="U&#10;π" transform="matrix(1.6,0,0,1.6,295.75493,176.29893)">
      <path id="path32" d="m 5.3118581,-4.5691576 c 0.097656,-0.390625 0.2832031,-0.5859375 0.8496093,-0.6054687 0.078125,0 0.1367188,-0.048828 0.1367188,-0.15625 0,-0.048828 -0.039063,-0.1074219 -0.1171875,-0.1074219 -0.039063,0 -0.2148438,0.019531 -0.7910156,0.019531 -0.6347657,0 -0.7324219,-0.019531 -0.8105469,-0.019531 -0.1269531,0 -0.1464844,0.087891 -0.1464844,0.1464844 0,0.1074219 0.097656,0.1171875 0.1757813,0.1171875 0.4785156,0.00977 0.4785156,0.2246094 0.4785156,0.3417969 0,0.048828 0,0.087891 -0.00977,0.1367187 -0.019531,0.048828 -0.6835938,2.7246094 -0.7128907,2.8222656 -0.2832031,1.1523438 -1.2890625,1.7773438 -2.0800781,1.7773438 -0.546875,0 -1.0449219,-0.32226563 -1.0449219,-1.0546875 0,-0.1367188 0.029297,-0.3515625 0.058594,-0.4785156 l 0.8007812,-3.1933594 c 0.068359,-0.2832031 0.087891,-0.3515625 0.6640625,-0.3515625 0.15625,0 0.2539063,0 0.2539063,-0.15625 0,-0.00977 -0.00977,-0.1074219 -0.1367188,-0.1074219 -0.1464843,0 -0.3417968,0.00977 -0.4882812,0.019531 H 1.8841237 c -0.7617188,0 -0.96679688,-0.019531 -1.02539063,-0.019531 -0.0292969,0 -0.15625,0 -0.15625,0.1464844 0,0.1171875 0.0976563,0.1171875 0.22460938,0.1171875 0.26367185,0 0.49804685,0 0.49804685,0.1269531 0,0.048828 -0.068359,0.3320313 -0.1171875,0.4882813 l -0.1757812,0.703125 -0.4199219,1.6894531 c -0.10742188,0.4394531 -0.13671875,0.5566406 -0.13671875,0.7714844 0,0.93749997 0.73242185,1.56249997 1.67968745,1.56249997 1.0839844,0 2.0996094,-0.91796875 2.3535157,-1.94335937 z m 0,0" style="fill:#ffffff;fill-opacity:1;fill-rule:nonzero;stroke:none" />
      <path id="path33" d="m 10.438811,-2.9773607 c 0.08789,0 0.136719,0 0.205078,-0.048828 0.0293,-0.029297 0.07813,-0.097656 0.07813,-0.1660156 0,-0.1660157 -0.146484,-0.1660157 -0.234375,-0.1660157 H 8.3489674 c -0.1074218,0 -0.3320312,0 -0.625,0.2539063 -0.1367187,0.1171875 -0.3613281,0.3710937 -0.3613281,0.4296875 0,0.068359 0.078125,0.068359 0.1074219,0.068359 0.068359,0 0.068359,0 0.1074219,-0.048828 0.1660156,-0.2148437 0.4101562,-0.3222656 0.7128906,-0.3222656 h 0.3515625 c -0.1757813,0.625 -0.4296875,1.1425781 -0.6054688,1.4550781 -0.078125,0.1269532 -0.078125,0.1367188 -0.078125,0.1855469 0,0.1171875 0.087891,0.1855469 0.1855469,0.1855469 0.2148438,0 0.2832031,-0.234375 0.4003906,-0.6347656 0.1074219,-0.390625 0.2050782,-0.7519532 0.3125,-1.1914063 h 0.6542969 c -0.019531,0.078125 -0.15625,0.6152344 -0.15625,1.0058594 0,0.3515625 0.1269531,0.8203125 0.3417969,0.8203125 0.1171875,0 0.2636719,-0.1171875 0.2636719,-0.2441406 0,-0.058594 -0.019531,-0.087891 -0.058594,-0.1464844 -0.2246094,-0.3710938 -0.2246094,-0.8105469 -0.2246094,-0.8984375 0,-0.1660156 0.019531,-0.3710938 0.048828,-0.5371094 z m 0,0" style="fill:#ffffff;fill-opacity:1;fill-rule:nonzero;stroke:none" />
    </g>
    <path id="path34" d="m 135.489,-37.31 h 4.319" style="fill:none;stroke:#ffffff;stroke-width:0.3347;stroke-linecap:butt;stroke-linejoin:miter;stroke-miterlimit:10;stroke-dasharray:none;stroke-opacity:1" transform="matrix(1.6,0,0,-1.6,90.050933,116.26853)" />
    <path id="path35" d="M 3.0766667,-0.81007943 V -1.0346888 h -0.625 v -2.1875 c 0,-0.1171875 -0.00977,-0.1464844 -0.1367188,-0.1464844 -0.097656,0 -0.1074219,0 -0.15625,0.068359 l -1.84570311,2.265625 v 0.22460937 H 1.973151 v 0.390625 c 0,0.14648438 0,0.20507813 -0.4296875,0.20507813 H 1.3676823 V 4.6744792e-4 C 1.6020573,-0.00929818 1.9243229,-0.0190638 2.207526,-0.0190638 c 0.2929688,0 0.6152344,0.00976562 0.8496094,0.0195312479 V -0.2143763 H 2.8813542 c -0.4296875,0 -0.4296875,-0.0585938 -0.4296875,-0.20507813 v -0.390625 z M 2.0122135,-2.8315638 v 1.796875 H 0.54736979 Z m 0,0" style="fill:#ffffff;fill-opacity:1;fill-rule:nonzero;stroke:none" aria-label="4" transform="matrix(1.6,0,0,1.6,307.57733,182.61253)" />
    <path id="path36" d="m -53.85892,-39.68552 h 22.67743 v 22.67743 h -22.67743 z" style="fill:#78a9ff;fill-opacity:1;fill-rule:nonzero;stroke:#78a9ff;stroke-width:0.3985;stroke-linecap:butt;stroke-linejoin:miter;stroke-miterlimit:10;stroke-dasharray:none;stroke-opacity:1" transform="matrix(1.6,0,0,-1.6,306.10533,129.74373)" />
    <g id="g36" aria-label="U&#10;0" transform="matrix(1.6,0,0,1.6,230.16933,178.30853)">
      <path id="path37" d="m 5.3116471,-4.5702747 c 0.097656,-0.390625 0.2832032,-0.5859375 0.8496094,-0.6054688 0.078125,0 0.1367188,-0.048828 0.1367188,-0.15625 0,-0.048828 -0.039063,-0.1074219 -0.1171875,-0.1074219 -0.039063,0 -0.2148438,0.019531 -0.7910157,0.019531 -0.6347656,0 -0.7324218,-0.019531 -0.8105468,-0.019531 -0.1269532,0 -0.1464844,0.087891 -0.1464844,0.1464844 0,0.1074219 0.097656,0.1171875 0.1757812,0.1171875 0.4785157,0.00977 0.4785157,0.2246094 0.4785157,0.3417969 0,0.048828 0,0.087891 -0.00977,0.1367187 -0.019531,0.048828 -0.6835937,2.7246094 -0.7128906,2.8222657 -0.2832031,1.15234371 -1.2890625,1.77734371 -2.0800781,1.77734371 -0.546875,0 -1.0449219,-0.32226562 -1.0449219,-1.05468751 0,-0.1367187 0.029297,-0.3515625 0.058594,-0.4785156 L 2.0987565,-4.824181 c 0.068359,-0.2832031 0.087891,-0.3515625 0.6640625,-0.3515625 0.15625,0 0.2539063,0 0.2539063,-0.15625 0,-0.00977 -0.00977,-0.1074219 -0.1367188,-0.1074219 -0.1464844,0 -0.3417969,0.00977 -0.4882812,0.019531 H 1.8839128 c -0.7617188,0 -0.96679691,-0.019531 -1.02539066,-0.019531 -0.0292969,0 -0.15625,0 -0.15625,0.1464844 0,0.1171875 0.0976563,0.1171875 0.22460937,0.1171875 0.26367189,0 0.49804689,0 0.49804689,0.1269531 0,0.048828 -0.068359,0.3320313 -0.1171875,0.4882813 l -0.1757813,0.703125 -0.41992184,1.6894531 c -0.10742187,0.4394531 -0.13671875,0.5566406 -0.13671875,0.7714844 0,0.93749999 0.73242189,1.56249999 1.67968749,1.56249999 1.0839844,0 2.0996094,-0.91796875 2.3535156,-1.94335939 z m 0,0" style="fill:#ffffff;fill-opacity:1;fill-rule:nonzero;stroke:none" />
      <path id="path38" d="m 9.0201432,-0.47115365 c 0,-0.43945312 0,-2.07031245 -1.4648437,-2.07031245 -1.4648438,0 -1.4648438,1.63085933 -1.4648438,2.07031245 0,0.4296875 0,2.03125005 1.4648438,2.03125005 1.4648437,0 1.4648437,-1.60156255 1.4648437,-2.03125005 z M 7.5552995,1.3647839 C 7.3013932,1.3647839 6.891237,1.2475964 6.7545182,0.74954948 6.656862,0.4077526 6.656862,-0.1781849 6.656862,-0.54927865 c 0,-0.40039062 0,-0.85937495 0.078125,-1.18164065 0.15625,-0.5371093 0.6054687,-0.6152343 0.8203125,-0.6152343 0.2734375,0 0.6640625,0.1269531 0.8007812,0.5859375 0.087891,0.3125 0.087891,0.7519531 0.087891,1.21093745 0,0.38085938 0,0.98632813 -0.097656,1.31835938 C 8.1802995,1.2866589 7.750612,1.3647839 7.5552995,1.3647839 Z m 0,0" style="fill:#ffffff;fill-opacity:1;fill-rule:nonzero;stroke:none" />
    </g>
    <path id="path39" d="M -11.33871,17.00809 H 11.33872 V 39.68552 H -11.33871 Z" style="fill:#78a9ff;fill-opacity:1;fill-rule:nonzero;stroke:#78a9ff;stroke-width:0.3985;stroke-linecap:butt;stroke-linejoin:miter;stroke-miterlimit:10;stroke-dasharray:none;stroke-opacity:1" transform="matrix(1.6,0,0,-1.6,306.10533,129.74373)" />
    <g id="g39" aria-label="U&#10;−&#10;π" transform="matrix(1.6,0,0,1.6,292.31173,85.588533)">
      <path id="path40" d="m 5.3129792,-4.5694935 c 0.097656,-0.390625 0.2832031,-0.5859375 0.8496093,-0.6054687 0.078125,0 0.1367188,-0.048828 0.1367188,-0.15625 0,-0.048828 -0.039063,-0.1074219 -0.1171875,-0.1074219 -0.039063,0 -0.2148438,0.019531 -0.7910156,0.019531 -0.6347657,0 -0.7324219,-0.019531 -0.8105469,-0.019531 -0.1269531,0 -0.1464844,0.087891 -0.1464844,0.1464844 0,0.1074218 0.097656,0.1171875 0.1757813,0.1171875 0.4785156,0.00977 0.4785156,0.2246093 0.4785156,0.3417968 0,0.048828 0,0.087891 -0.00977,0.1367188 -0.019531,0.048828 -0.6835938,2.7246094 -0.7128907,2.8222656 -0.2832031,1.15234376 -1.2890625,1.77734376 -2.0800781,1.77734376 -0.546875,0 -1.0449219,-0.32226562 -1.0449219,-1.05468746 0,-0.1367188 0.029297,-0.3515625 0.058594,-0.4785157 l 0.8007812,-3.1933593 c 0.068359,-0.2832032 0.087891,-0.3515625 0.6640625,-0.3515625 0.15625,0 0.2539063,0 0.2539063,-0.15625 0,-0.00977 -0.00977,-0.1074219 -0.1367188,-0.1074219 -0.1464843,0 -0.3417968,0.00977 -0.4882812,0.019531 H 1.8852448 c -0.7617188,0 -0.96679688,-0.019531 -1.02539063,-0.019531 -0.0292969,0 -0.15625,0 -0.15625,0.1464844 0,0.1171875 0.0976563,0.1171875 0.22460937,0.1171875 0.26367186,0 0.49804686,0 0.49804686,0.1269531 0,0.048828 -0.068359,0.3320312 -0.1171875,0.4882812 l -0.1757812,0.703125 -0.41992191,1.6894532 c -0.10742187,0.4394531 -0.13671875,0.5566406 -0.13671875,0.7714843 0,0.93750004 0.73242186,1.56250004 1.67968746,1.56250004 1.0839844,0 2.0996094,-0.91796875 2.3535157,-1.94335934 z m 0,0" style="fill:#ffffff;fill-opacity:1;fill-rule:nonzero;stroke:none" />
      <path id="path41" d="M 9.4975495,-0.40201302 H 6.2651276 v 0.38085937 h 3.2324219 z m 0,0" style="fill:#ffffff;fill-opacity:1;fill-rule:nonzero;stroke:none" />
      <path id="path42" d="m 14.744132,-2.9776966 c 0.08789,0 0.136718,0 0.205078,-0.048828 0.0293,-0.029297 0.07813,-0.097656 0.07813,-0.1660157 0,-0.1660156 -0.146485,-0.1660156 -0.234375,-0.1660156 h -2.138672 c -0.107422,0 -0.332031,0 -0.625,0.2539063 -0.136719,0.1171875 -0.361328,0.3710937 -0.361328,0.4296875 0,0.068359 0.07813,0.068359 0.107422,0.068359 0.06836,0 0.06836,0 0.107421,-0.048828 0.166016,-0.2148437 0.410157,-0.3222656 0.712891,-0.3222656 h 0.351563 c -0.175782,0.625 -0.429688,1.1425781 -0.605469,1.4550781 -0.07813,0.1269531 -0.07813,0.1367188 -0.07813,0.1855469 0,0.1171875 0.08789,0.1855469 0.185547,0.1855469 0.214843,0 0.283203,-0.234375 0.40039,-0.6347657 0.107422,-0.390625 0.205078,-0.7519531 0.3125,-1.1914062 h 0.654297 c -0.01953,0.078125 -0.15625,0.6152344 -0.15625,1.0058594 0,0.3515625 0.126953,0.8203125 0.341797,0.8203125 0.117188,0 0.263672,-0.1171875 0.263672,-0.2441407 0,-0.058594 -0.01953,-0.087891 -0.05859,-0.1464843 -0.224609,-0.3710938 -0.224609,-0.8105469 -0.224609,-0.8984375 0,-0.1660157 0.01953,-0.3710938 0.04883,-0.5371094 z m 0,0" style="fill:#ffffff;fill-opacity:1;fill-rule:nonzero;stroke:none" />
    </g>
    <path id="path43" d="m 139.793,-37.31 h 4.319" style="fill:none;stroke:#ffffff;stroke-width:0.3347;stroke-linecap:butt;stroke-linejoin:miter;stroke-miterlimit:10;stroke-dasharray:none;stroke-opacity:1" transform="matrix(1.6,0,0,-1.6,86.607733,25.558133)" />
    <path id="path44" d="m 2.1380456,-1.7967435 c 0.5078125,-0.2148437 0.6738281,-0.4785156 0.6738281,-0.7617187 0,-0.5175782 -0.5761719,-0.7617188 -1.1132813,-0.7617188 -0.6152343,0 -1.12304683,0.3515625 -1.12304683,0.8496094 0,0.4589844 0.390625,0.6640625 0.64453123,0.8007812 -0.52734373,0.2050782 -0.82031248,0.4980469 -0.82031248,0.89843754 0,0.60546875 0.66406248,0.87890625 1.28906248,0.87890625 0.6933594,0 1.2988281,-0.37109375 1.2988281,-0.95703125 0,-0.54687504 -0.5175781,-0.80078124 -0.8496093,-0.94726564 z M 1.1614831,-2.304556 C 0.94663932,-2.4119779 0.87827995,-2.5486966 0.87827995,-2.6658841 c 0,-0.3125 0.41015625,-0.4589844 0.81054685,-0.4589844 0.4003906,0 0.8203125,0.1953125 0.8203125,0.5664063 0,0.4394531 -0.5761719,0.6445312 -0.5761719,0.6445312 -0.00977,0 -0.00977,0 -0.058594,-0.019531 z m 0.2734375,0.7421875 0.7714843,0.390625 c 0.1855469,0.097656 0.4394532,0.23437501 0.4394532,0.49804689 0,0.40039062 -0.5078125,0.57617187 -0.9472657,0.57617187 -0.4589843,0 -0.9570312,-0.22460937 -0.9570312,-0.67382812 0,-0.49804684 0.5371094,-0.72265624 0.6933594,-0.79101564 z m 0,0" style="fill:#ffffff;fill-opacity:1;fill-rule:nonzero;stroke:none" aria-label="8" transform="matrix(1.6,0,0,1.6,311.02053,91.902133)" />
    <path id="path45" d="m -53.85892,17.00809 h 22.67743 v 22.67743 h -22.67743 z" style="fill:#78a9ff;fill-opacity:1;fill-rule:nonzero;stroke:#78a9ff;stroke-width:0.3985;stroke-linecap:butt;stroke-linejoin:miter;stroke-miterlimit:10;stroke-dasharray:none;stroke-opacity:1" transform="matrix(1.6,0,0,-1.6,306.10533,129.74373)" />
    <g id="g45" aria-label="U&#10;π" transform="matrix(1.6,0,0,1.6,227.72293,85.588533)">
      <path id="path46" d="m 5.3123268,-4.5694935 c 0.097656,-0.390625 0.2832031,-0.5859375 0.8496094,-0.6054687 0.078125,0 0.1367187,-0.048828 0.1367187,-0.15625 0,-0.048828 -0.039063,-0.1074219 -0.1171875,-0.1074219 -0.039063,0 -0.2148437,0.019531 -0.7910156,0.019531 -0.6347656,0 -0.7324219,-0.019531 -0.8105469,-0.019531 -0.1269531,0 -0.1464843,0.087891 -0.1464843,0.1464844 0,0.1074218 0.097656,0.1171875 0.1757812,0.1171875 0.4785156,0.00977 0.4785156,0.2246093 0.4785156,0.3417968 0,0.048828 0,0.087891 -0.00977,0.1367188 -0.019531,0.048828 -0.6835937,2.7246094 -0.7128906,2.8222656 -0.2832031,1.15234376 -1.2890625,1.77734376 -2.0800781,1.77734376 -0.546875,0 -1.0449219,-0.32226562 -1.0449219,-1.05468746 0,-0.1367188 0.029297,-0.3515625 0.058594,-0.4785157 l 0.8007813,-3.1933593 c 0.068359,-0.2832032 0.087891,-0.3515625 0.6640625,-0.3515625 0.15625,0 0.2539062,0 0.2539062,-0.15625 0,-0.00977 -0.00977,-0.1074219 -0.1367187,-0.1074219 -0.1464844,0 -0.3417969,0.00977 -0.4882813,0.019531 H 1.8845924 c -0.7617187,0 -0.96679683,-0.019531 -1.02539058,-0.019531 -0.0292969,0 -0.15625,0 -0.15625,0.1464844 0,0.1171875 0.0976563,0.1171875 0.22460938,0.1171875 0.2636719,0 0.4980469,0 0.4980469,0.1269531 0,0.048828 -0.068359,0.3320312 -0.1171875,0.4882812 l -0.1757813,0.703125 -0.41992185,1.6894532 c -0.10742188,0.4394531 -0.13671875,0.5566406 -0.13671875,0.7714843 0,0.93750004 0.7324219,1.56250004 1.6796875,1.56250004 1.0839844,0 2.0996094,-0.91796875 2.3535156,-1.94335934 z m 0,0" style="fill:#ffffff;fill-opacity:1;fill-rule:nonzero;stroke:none" />
      <path id="path47" d="m 10.43928,-2.9776966 c 0.08789,0 0.136719,0 0.205078,-0.048828 0.0293,-0.029297 0.07813,-0.097656 0.07813,-0.1660157 0,-0.1660156 -0.146484,-0.1660156 -0.234375,-0.1660156 H 8.3494362 c -0.1074219,0 -0.3320313,0 -0.625,0.2539063 -0.1367188,0.1171875 -0.3613281,0.3710937 -0.3613281,0.4296875 0,0.068359 0.078125,0.068359 0.1074218,0.068359 0.068359,0 0.068359,0 0.1074219,-0.048828 0.1660156,-0.2148437 0.4101563,-0.3222656 0.7128906,-0.3222656 h 0.3515625 c -0.1757812,0.625 -0.4296875,1.1425781 -0.6054687,1.4550781 -0.078125,0.1269531 -0.078125,0.1367188 -0.078125,0.1855469 0,0.1171875 0.087891,0.1855469 0.1855469,0.1855469 0.2148437,0 0.2832031,-0.234375 0.4003906,-0.6347657 0.1074219,-0.390625 0.2050781,-0.7519531 0.3125,-1.1914062 h 0.6542969 c -0.019531,0.078125 -0.15625,0.6152344 -0.15625,1.0058594 0,0.3515625 0.1269531,0.8203125 0.3417968,0.8203125 0.1171875,0 0.2636719,-0.1171875 0.2636719,-0.2441407 0,-0.058594 -0.019531,-0.087891 -0.058594,-0.1464843 -0.2246094,-0.3710938 -0.2246094,-0.8105469 -0.2246094,-0.8984375 0,-0.1660157 0.019531,-0.3710938 0.048828,-0.5371094 z m 0,0" style="fill:#ffffff;fill-opacity:1;fill-rule:nonzero;stroke:none" />
    </g>
    <path id="path48" d="m 135.489,-37.31 h 4.319" style="fill:none;stroke:#ffffff;stroke-width:0.3347;stroke-linecap:butt;stroke-linejoin:miter;stroke-miterlimit:10;stroke-dasharray:none;stroke-opacity:1" transform="matrix(1.6,0,0,-1.6,22.018933,25.558133)" />
    <path id="path49" d="m 2.1396354,-1.7967435 c 0.5078125,-0.2148437 0.6738281,-0.4785156 0.6738281,-0.7617187 0,-0.5175782 -0.5761718,-0.7617188 -1.1132812,-0.7617188 -0.6152344,0 -1.12304688,0.3515625 -1.12304688,0.8496094 0,0.4589844 0.390625,0.6640625 0.64453128,0.8007812 -0.52734378,0.2050782 -0.82031253,0.4980469 -0.82031253,0.89843754 0,0.60546875 0.66406253,0.87890625 1.28906253,0.87890625 0.6933593,0 1.2988281,-0.37109375 1.2988281,-0.95703125 0,-0.54687504 -0.5175781,-0.80078124 -0.8496094,-0.94726564 z M 1.1630729,-2.304556 C 0.94822917,-2.4119779 0.87986979,-2.5486966 0.87986979,-2.6658841 c 0,-0.3125 0.41015621,-0.4589844 0.81054691,-0.4589844 0.4003906,0 0.8203125,0.1953125 0.8203125,0.5664063 0,0.4394531 -0.5761719,0.6445312 -0.5761719,0.6445312 -0.00977,0 -0.00977,0 -0.058594,-0.019531 z m 0.2734375,0.7421875 0.7714844,0.390625 c 0.1855469,0.097656 0.4394531,0.23437501 0.4394531,0.49804689 0,0.40039062 -0.5078125,0.57617187 -0.9472656,0.57617187 -0.4589844,0 -0.95703126,-0.22460937 -0.95703126,-0.67382812 0,-0.49804684 0.53710936,-0.72265624 0.69335936,-0.79101564 z m 0,0" style="fill:#ffffff;fill-opacity:1;fill-rule:nonzero;stroke:none" aria-label="8" transform="matrix(1.6,0,0,1.6,239.54533,91.902133)" />
    <path id="path50" d="m -0.70865,-56.69362 v 16.80885" style="fill:none;stroke:#121619;stroke-width:0.3985;stroke-linecap:butt;stroke-linejoin:miter;stroke-miterlimit:10;stroke-dasharray:none;stroke-opacity:1" transform="matrix(1.6,0,0,-1.6,306.10533,129.74373)" />
    <path id="path51" d="M -0.70865,56.69362 V 39.88477" style="fill:none;stroke:#121619;stroke-width:0.3985;stroke-linecap:butt;stroke-linejoin:miter;stroke-miterlimit:10;stroke-dasharray:none;stroke-opacity:1" transform="matrix(1.6,0,0,-1.6,306.10533,129.74373)" />
    <path id="path52" d="m -43.22885,-56.69362 v 16.80885" style="fill:none;stroke:#121619;stroke-width:0.3985;stroke-linecap:butt;stroke-linejoin:miter;stroke-miterlimit:10;stroke-dasharray:none;stroke-opacity:1" transform="matrix(1.6,0,0,-1.6,306.10533,129.74373)" />
    <path id="path53" d="M -43.22885,56.69362 V 39.88477" style="fill:none;stroke:#121619;stroke-width:0.3985;stroke-linecap:butt;stroke-linejoin:miter;stroke-miterlimit:10;stroke-dasharray:none;stroke-opacity:1" transform="matrix(1.6,0,0,-1.6,306.10533,129.74373)" />
    <path id="path54" d="m 0.70865,-56.69362 v 16.80885" style="fill:none;stroke:#121619;stroke-width:0.3985;stroke-linecap:butt;stroke-linejoin:miter;stroke-miterlimit:10;stroke-dasharray:none;stroke-opacity:1" transform="matrix(1.6,0,0,-1.6,306.10533,129.74373)" />
    <path id="path55" d="M 0.70865,56.69362 V 39.88477" style="fill:none;stroke:#121619;stroke-width:0.3985;stroke-linecap:butt;stroke-linejoin:miter;stroke-miterlimit:10;stroke-dasharray:none;stroke-opacity:1" transform="matrix(1.6,0,0,-1.6,306.10533,129.74373)" />
    <path id="path56" d="m -41.81154,-56.69362 v 16.80885" style="fill:none;stroke:#121619;stroke-width:0.3985;stroke-linecap:butt;stroke-linejoin:miter;stroke-miterlimit:10;stroke-dasharray:none;stroke-opacity:1" transform="matrix(1.6,0,0,-1.6,306.10533,129.74373)" />
    <path id="path57" d="M -41.81154,56.69362 V 39.88477" style="fill:none;stroke:#121619;stroke-width:0.3985;stroke-linecap:butt;stroke-linejoin:miter;stroke-miterlimit:10;stroke-dasharray:none;stroke-opacity:1" transform="matrix(1.6,0,0,-1.6,306.10533,129.74373)" />
    <path id="path58" d="m 1.99255,-56.69362 c 0,1.10048 -0.89209,1.99255 -1.99255,1.99255 -1.10046,0 -1.99255,-0.89207 -1.99255,-1.99255 0,-1.10046 0.89209,-1.99255 1.99255,-1.99255 1.10046,0 1.99255,0.89209 1.99255,1.99255 z" style="fill:#121619;fill-opacity:1;fill-rule:nonzero;stroke:none" transform="matrix(1.6,0,0,-1.6,306.10533,129.74373)" />
    <path id="path59" d="m 1.99255,56.69362 c 0,1.10046 -0.89209,1.99255 -1.99255,1.99255 -1.10046,0 -1.99255,-0.89209 -1.99255,-1.99255 0,-1.10048 0.89209,-1.99255 1.99255,-1.99255 1.10046,0 1.99255,0.89207 1.99255,1.99255 z" style="fill:#121619;fill-opacity:1;fill-rule:nonzero;stroke:none" transform="matrix(1.6,0,0,-1.6,306.10533,129.74373)" />
    <path id="path60" d="m -40.65218,-56.69362 c 0,1.03169 -0.83633,1.86803 -1.86802,1.86803 -1.03168,0 -1.86801,-0.83634 -1.86801,-1.86803 0,-1.03168 0.83633,-1.86801 1.86801,-1.86801 1.03169,0 1.86802,0.83633 1.86802,1.86801 z" style="fill:#ffffff;fill-opacity:1;fill-rule:nonzero;stroke:#121619;stroke-width:0.79701;stroke-linecap:butt;stroke-linejoin:miter;stroke-miterlimit:10;stroke-dasharray:none;stroke-opacity:1" transform="matrix(1.6,0,0,-1.6,306.10533,129.74373)" />
    <path id="path61" d="m -40.65218,56.69362 c 0,1.03168 -0.83633,1.86801 -1.86802,1.86801 -1.03168,0 -1.86801,-0.83633 -1.86801,-1.86801 0,-1.03169 0.83633,-1.86803 1.86801,-1.86803 1.03169,0 1.86802,0.83634 1.86802,1.86803 z" style="fill:#ffffff;fill-opacity:1;fill-rule:nonzero;stroke:#121619;stroke-width:0.79701;stroke-linecap:butt;stroke-linejoin:miter;stroke-miterlimit:10;stroke-dasharray:none;stroke-opacity:1" transform="matrix(1.6,0,0,-1.6,306.10533,129.74373)" />
  </g>
</svg>