<svg width="992" height="652" viewBox="0 0 992 652" fill="none" xmlns="http://www.w3.org/2000/svg">
<rect width="992" height="652" fill="#21272A"/>
<path d="M41.7199 52V46.32H41.6399C41.0199 47.6 40.0399 48.24 38.6199 48.24C36.0399 48.24 34.4199 46.14 34.4199 42.84C34.4199 39.54 36.0399 37.44 38.6199 37.44C40.0399 37.44 41.0999 38.06 41.6399 39.36H41.7199V37.68H43.3199V52H41.7199ZM39.0599 46.8C40.5199 46.8 41.7199 46.04 41.7199 44.7V40.86C41.7199 39.72 40.5199 38.88 39.0599 38.88C37.2599 38.88 36.1399 40.12 36.1399 41.96V43.72C36.1399 45.56 37.2599 46.8 39.0599 46.8ZM48.8015 48.12C46.8015 48.12 45.9015 46.74 45.9015 44.32C45.9015 41.88 46.8015 40.5 48.8015 40.5C50.8015 40.5 51.7015 41.88 51.7015 44.3C51.7015 46.74 50.8015 48.12 48.8015 48.12ZM48.8015 47.1C49.9415 47.1 50.3615 46.26 50.3615 44.96V43.66C50.3615 42.36 49.9415 41.52 48.8015 41.52C47.6615 41.52 47.2415 42.36 47.2415 43.66V44.96C47.2415 46.26 47.6615 47.1 48.8015 47.1Z" fill="#C1C7CD"/>
<path d="M42.4055 92V86.32H42.3255C41.7055 87.6 40.7255 88.24 39.3055 88.24C36.7255 88.24 35.1055 86.14 35.1055 82.84C35.1055 79.54 36.7255 77.44 39.3055 77.44C40.7255 77.44 41.7855 78.06 42.3255 79.36H42.4055V77.68H44.0055V92H42.4055ZM39.7455 86.8C41.2055 86.8 42.4055 86.04 42.4055 84.7V80.86C42.4055 79.72 41.2055 78.88 39.7455 78.88C37.9455 78.88 36.8255 80.12 36.8255 81.96V83.72C36.8255 85.56 37.9455 86.8 39.7455 86.8ZM52.207 88H46.807V87H48.987V81.64H48.867L47.067 83.42L46.347 82.68L48.387 80.62H50.247V87H52.207V88Z" fill="#C1C7CD"/>
<path d="M42.5422 132V126.32H42.4622C41.8422 127.6 40.8622 128.24 39.4422 128.24C36.8622 128.24 35.2422 126.14 35.2422 122.84C35.2422 119.54 36.8622 117.44 39.4422 117.44C40.8622 117.44 41.9222 118.06 42.4622 119.36H42.5422V117.68H44.1422V132H42.5422ZM39.8822 126.8C41.3422 126.8 42.5422 126.04 42.5422 124.7V120.86C42.5422 119.72 41.3422 118.88 39.8822 118.88C38.0822 118.88 36.9622 120.12 36.9622 121.96V123.72C36.9622 125.56 38.0822 126.8 39.8822 126.8ZM52.0638 127V128H46.6238V126.86L49.2238 124.76C50.0038 124.12 50.4638 123.48 50.4638 122.8V122.68C50.4638 122 50.0038 121.54 49.1638 121.54C48.2438 121.54 47.8238 122.06 47.6038 122.7L46.5238 122.3C46.8438 121.36 47.6438 120.5 49.2438 120.5C50.8838 120.5 51.8038 121.4 51.8038 122.68C51.8038 123.84 51.0238 124.64 49.9038 125.5L47.9638 127H52.0638Z" fill="#C1C7CD"/>
<path d="M42.5422 172V166.32H42.4622C41.8422 167.6 40.8622 168.24 39.4422 168.24C36.8622 168.24 35.2422 166.14 35.2422 162.84C35.2422 159.54 36.8622 157.44 39.4422 157.44C40.8622 157.44 41.9222 158.06 42.4622 159.36H42.5422V157.68H44.1422V172H42.5422ZM39.8822 166.8C41.3422 166.8 42.5422 166.04 42.5422 164.7V160.86C42.5422 159.72 41.3422 158.88 39.8822 158.88C38.0822 158.88 36.9622 160.12 36.9622 161.96V163.72C36.9622 165.56 38.0822 166.8 39.8822 166.8ZM48.1438 163.66H48.9438C49.9638 163.66 50.4438 163.22 50.4438 162.62V162.54C50.4438 161.88 49.9438 161.5 49.1438 161.5C48.3638 161.5 47.8438 161.84 47.4838 162.4L46.6238 161.72C47.0838 161.06 47.8638 160.5 49.1838 160.5C50.6838 160.5 51.7838 161.2 51.7838 162.4C51.7838 163.36 51.0638 163.92 50.2238 164.1V164.16C51.1237 164.32 51.9038 164.9 51.9038 165.96C51.9038 167.26 50.7838 168.12 49.0438 168.12C47.5838 168.12 46.8238 167.48 46.3238 166.8L47.2638 166.12C47.6438 166.7 48.1238 167.12 49.0438 167.12C50.0438 167.12 50.5838 166.66 50.5838 165.9V165.78C50.5838 165.02 50.0438 164.68 49.0438 164.68H48.1438V163.66Z" fill="#C1C7CD"/>
<path d="M42.5422 212V206.32H42.4622C41.8422 207.6 40.8622 208.24 39.4422 208.24C36.8622 208.24 35.2422 206.14 35.2422 202.84C35.2422 199.54 36.8622 197.44 39.4422 197.44C40.8622 197.44 41.9222 198.06 42.4622 199.36H42.5422V197.68H44.1422V212H42.5422ZM39.8822 206.8C41.3422 206.8 42.5422 206.04 42.5422 204.7V200.86C42.5422 199.72 41.3422 198.88 39.8822 198.88C38.0822 198.88 36.9622 200.12 36.9622 201.96V203.72C36.9622 205.56 38.0822 206.8 39.8822 206.8ZM51.2238 208H50.0238V206.56H46.2438V205.52L49.5238 200.62H51.2238V205.6H52.3438V206.56H51.2238V208ZM50.0238 205.6V201.76H49.9438L47.3438 205.6H50.0238Z" fill="#C1C7CD"/>
<path d="M42.5227 252V246.32H42.4427C41.8227 247.6 40.8427 248.24 39.4227 248.24C36.8427 248.24 35.2227 246.14 35.2227 242.84C35.2227 239.54 36.8427 237.44 39.4227 237.44C40.8427 237.44 41.9027 238.06 42.4427 239.36H42.5227V237.68H44.1227V252H42.5227ZM39.8627 246.8C41.3227 246.8 42.5227 246.04 42.5227 244.7V240.86C42.5227 239.72 41.3227 238.88 39.8627 238.88C38.0627 238.88 36.9427 240.12 36.9427 241.96V243.72C36.9427 245.56 38.0627 246.8 39.8627 246.8ZM51.6442 241.62H48.0642L47.8442 244.28H47.9242C48.2842 243.7 48.7042 243.3 49.6042 243.3C50.9842 243.3 52.0442 244.16 52.0442 245.6C52.0442 247.08 50.9842 248.12 49.1842 248.12C47.7642 248.12 47.0242 247.48 46.5442 246.8L47.4442 246.12C47.8442 246.7 48.2842 247.12 49.2042 247.12C50.2042 247.12 50.7242 246.6 50.7242 245.76V245.66C50.7242 244.82 50.2042 244.3 49.2042 244.3C48.5042 244.3 48.1442 244.58 47.8442 244.88L46.8042 244.74L47.0842 240.62H51.6442V241.62Z" fill="#C1C7CD"/>
<path d="M42.4055 292V286.32H42.3255C41.7055 287.6 40.7255 288.24 39.3055 288.24C36.7255 288.24 35.1055 286.14 35.1055 282.84C35.1055 279.54 36.7255 277.44 39.3055 277.44C40.7255 277.44 41.7855 278.06 42.3255 279.36H42.4055V277.68H44.0055V292H42.4055ZM39.7455 286.8C41.2055 286.8 42.4055 286.04 42.4055 284.7V280.86C42.4055 279.72 41.2055 278.88 39.7455 278.88C37.9455 278.88 36.8255 280.12 36.8255 281.96V283.72C36.8255 285.56 37.9455 286.8 39.7455 286.8ZM49.327 288.12C47.547 288.12 46.507 287.02 46.507 285.24C46.507 283.12 48.067 281.44 49.387 280.62H51.067C49.227 281.84 48.187 282.8 47.807 284.38L47.887 284.4C48.227 283.84 48.767 283.34 49.767 283.34C51.127 283.34 52.147 284.22 52.147 285.62C52.147 287.1 51.027 288.12 49.327 288.12ZM49.327 287.16C50.247 287.16 50.847 286.7 50.847 285.78V285.68C50.847 284.76 50.247 284.3 49.327 284.3C48.407 284.3 47.807 284.76 47.807 285.68V285.78C47.807 286.7 48.407 287.16 49.327 287.16Z" fill="#C1C7CD"/>
<path d="M42.6496 332V326.32H42.5696C41.9496 327.6 40.9696 328.24 39.5496 328.24C36.9696 328.24 35.3496 326.14 35.3496 322.84C35.3496 319.54 36.9696 317.44 39.5496 317.44C40.9696 317.44 42.0296 318.06 42.5696 319.36H42.6496V317.68H44.2496V332H42.6496ZM39.9896 326.8C41.4496 326.8 42.6496 326.04 42.6496 324.7V320.86C42.6496 319.72 41.4496 318.88 39.9896 318.88C38.1896 318.88 37.0696 320.12 37.0696 321.96V323.72C37.0696 325.56 38.1896 326.8 39.9896 326.8ZM49.1312 328H47.7912L50.7512 321.62H47.6512V322.96H46.5712V320.62H52.0112V321.66L49.1312 328Z" fill="#C1C7CD"/>
<path d="M41.7395 372V366.32H41.6595C41.0395 367.6 40.0595 368.24 38.6395 368.24C36.0595 368.24 34.4395 366.14 34.4395 362.84C34.4395 359.54 36.0595 357.44 38.6395 357.44C40.0595 357.44 41.1195 358.06 41.6595 359.36H41.7395V357.68H43.3395V372H41.7395ZM39.0795 366.8C40.5395 366.8 41.7395 366.04 41.7395 364.7V360.86C41.7395 359.72 40.5395 358.88 39.0795 358.88C37.2795 358.88 36.1595 360.12 36.1595 361.96V363.72C36.1595 365.56 37.2795 366.8 39.0795 366.8ZM48.801 368.12C46.941 368.12 45.921 367.2 45.921 365.98C45.921 365.02 46.581 364.42 47.521 364.18V364.1C46.721 363.84 46.181 363.24 46.181 362.4C46.181 361.26 47.141 360.5 48.801 360.5C50.461 360.5 51.421 361.26 51.421 362.4C51.421 363.24 50.881 363.84 50.081 364.1V364.18C51.041 364.42 51.681 365.02 51.681 365.98C51.681 367.2 50.661 368.12 48.801 368.12ZM48.801 367.16C49.801 367.16 50.341 366.74 50.341 366.02V365.78C50.341 365.06 49.801 364.64 48.801 364.64C47.801 364.64 47.261 365.06 47.261 365.78V366.02C47.261 366.74 47.801 367.16 48.801 367.16ZM48.801 363.72C49.721 363.72 50.181 363.34 50.181 362.68V362.5C50.181 361.84 49.721 361.46 48.801 361.46C47.881 361.46 47.421 361.84 47.421 362.5V362.68C47.421 363.34 47.881 363.72 48.801 363.72Z" fill="#C1C7CD"/>
<path d="M42.4055 412V406.32H42.3255C41.7055 407.6 40.7255 408.24 39.3055 408.24C36.7255 408.24 35.1055 406.14 35.1055 402.84C35.1055 399.54 36.7255 397.44 39.3055 397.44C40.7255 397.44 41.7855 398.06 42.3255 399.36H42.4055V397.68H44.0055V412H42.4055ZM39.7455 406.8C41.2055 406.8 42.4055 406.04 42.4055 404.7V400.86C42.4055 399.72 41.2055 398.88 39.7455 398.88C37.9455 398.88 36.8255 400.12 36.8255 401.96V403.72C36.8255 405.56 37.9455 406.8 39.7455 406.8ZM52.067 403.38C52.067 405.5 50.547 407.18 49.207 408H47.527C49.347 406.78 50.387 405.82 50.767 404.24L50.687 404.22C50.367 404.8 49.827 405.3 48.827 405.3C47.447 405.3 46.447 404.4 46.447 403C46.447 401.52 47.547 400.5 49.267 400.5C51.027 400.5 52.067 401.6 52.067 403.38ZM49.247 404.34C50.167 404.34 50.767 403.88 50.767 402.96V402.84C50.767 401.92 50.167 401.46 49.247 401.46C48.327 401.46 47.727 401.92 47.727 402.84V402.96C47.727 403.88 48.327 404.34 49.247 404.34Z" fill="#C1C7CD"/>
<path d="M38.5656 492V486.32H38.4856C37.8656 487.6 36.8856 488.24 35.4656 488.24C32.8856 488.24 31.2656 486.14 31.2656 482.84C31.2656 479.54 32.8856 477.44 35.4656 477.44C36.8856 477.44 37.9456 478.06 38.4856 479.36H38.5656V477.68H40.1656V492H38.5656ZM35.9056 486.8C37.3656 486.8 38.5656 486.04 38.5656 484.7V480.86C38.5656 479.72 37.3656 478.88 35.9056 478.88C34.1056 478.88 32.9856 480.12 32.9856 481.96V483.72C32.9856 485.56 34.1056 486.8 35.9056 486.8ZM48.3672 488H42.9672V487H45.1472V481.64H45.0272L43.2272 483.42L42.5072 482.68L44.5472 480.62H46.4072V487H48.3672V488ZM54.9069 483.38C54.9069 485.5 53.3869 487.18 52.0469 488H50.3669C52.1869 486.78 53.2269 485.82 53.6069 484.24L53.5269 484.22C53.2069 484.8 52.6669 485.3 51.6669 485.3C50.2869 485.3 49.2869 484.4 49.2869 483C49.2869 481.52 50.3869 480.5 52.1069 480.5C53.8669 480.5 54.9069 481.6 54.9069 483.38ZM52.0869 484.34C53.0069 484.34 53.6069 483.88 53.6069 482.96V482.84C53.6069 481.92 53.0069 481.46 52.0869 481.46C51.1669 481.46 50.5669 481.92 50.5669 482.84V482.96C50.5669 483.88 51.1669 484.34 52.0869 484.34Z" fill="#C1C7CD"/>
<path d="M81.0039 578.24C77.6639 578.24 76.2039 575.58 76.2039 571.02C76.2039 566.46 77.6639 563.8 81.0039 563.8C84.3439 563.8 85.8039 566.46 85.8039 571.02C85.8039 575.58 84.3439 578.24 81.0039 578.24ZM81.0039 576.78C83.1839 576.78 84.0439 574.86 84.0439 572.16V569.88C84.0439 567.18 83.1839 565.26 81.0039 565.26C78.8239 565.26 77.9639 567.18 77.9639 569.88V572.16C77.9639 574.86 78.8239 576.78 81.0039 576.78Z" fill="#C6C6C6"/>
<path d="M237.676 576.52V578H228.516V576.28L233.076 572.08C234.376 570.88 235.376 569.48 235.376 568.14V567.9C235.376 566.36 234.516 565.3 232.796 565.3C231.076 565.3 230.276 566.34 229.896 567.66L228.396 567.08C228.936 565.44 230.176 563.8 232.876 563.8C235.596 563.8 237.156 565.48 237.156 567.86C237.156 570.02 235.876 571.54 234.096 573.14L230.336 576.52H237.676ZM248.968 564.04V565.52H242.848L242.448 570.84H242.588C243.248 569.9 243.988 569.3 245.448 569.3C247.848 569.3 249.608 570.92 249.608 573.62C249.608 576.34 247.848 578.24 244.908 578.24C242.588 578.24 241.388 577.06 240.548 575.86L241.808 574.9C242.528 576 243.228 576.74 244.908 576.74C246.808 576.74 247.828 575.68 247.828 573.84V573.64C247.828 571.8 246.808 570.74 244.908 570.74C243.628 570.74 242.988 571.28 242.408 571.92L240.988 571.72L241.488 564.04H248.968ZM257 578.24C253.66 578.24 252.2 575.58 252.2 571.02C252.2 566.46 253.66 563.8 257 563.8C260.34 563.8 261.8 566.46 261.8 571.02C261.8 575.58 260.34 578.24 257 578.24ZM257 576.78C259.18 576.78 260.04 574.86 260.04 572.16V569.88C260.04 567.18 259.18 565.26 257 565.26C254.82 565.26 253.96 567.18 253.96 569.88V572.16C253.96 574.86 254.82 576.78 257 576.78ZM268.292 578H266.492L271.832 565.48H265.872V568.08H264.372V564.04H273.532V565.52L268.292 578Z" fill="#C6C6C6"/>
<path d="M406.976 564.04V565.52H400.856L400.456 570.84H400.596C401.256 569.9 401.996 569.3 403.456 569.3C405.856 569.3 407.616 570.92 407.616 573.62C407.616 576.34 405.856 578.24 402.916 578.24C400.596 578.24 399.396 577.06 398.556 575.86L399.816 574.9C400.536 576 401.236 576.74 402.916 576.74C404.816 576.74 405.836 575.68 405.836 573.84V573.64C405.836 571.8 404.816 570.74 402.916 570.74C401.636 570.74 400.996 571.28 400.416 571.92L398.996 571.72L399.496 564.04H406.976ZM415.008 578.24C411.668 578.24 410.208 575.58 410.208 571.02C410.208 566.46 411.668 563.8 415.008 563.8C418.348 563.8 419.808 566.46 419.808 571.02C419.808 575.58 418.348 578.24 415.008 578.24ZM415.008 576.78C417.188 576.78 418.048 574.86 418.048 572.16V569.88C418.048 567.18 417.188 565.26 415.008 565.26C412.828 565.26 411.968 567.18 411.968 569.88V572.16C411.968 574.86 412.828 576.78 415.008 576.78ZM431.94 578H422.76V576.52H426.66V565.28H426.52L423 568.56L422.02 567.5L425.72 564.04H428.34V576.52H431.94V578ZM442.092 578H440.492V575.26H433.752V573.78L439.592 564.04H442.092V573.86H444.112V575.26H442.092V578ZM440.392 565.34L435.332 573.86H440.492V565.34H440.392Z" fill="#C6C6C6"/>
<path d="M506.005 440.264C504.565 440.264 503.893 439.448 503.893 438.344V437.864C503.893 436.76 504.565 435.944 506.005 435.944C507.445 435.944 508.117 436.76 508.117 437.864V438.344C508.117 439.448 507.445 440.264 506.005 440.264ZM506.005 448.264C504.565 448.264 503.893 447.448 503.893 446.344V445.864C503.893 444.76 504.565 443.944 506.005 443.944C507.445 443.944 508.117 444.76 508.117 445.864V446.344C508.117 447.448 507.445 448.264 506.005 448.264ZM506.005 456.264C504.565 456.264 503.893 455.448 503.893 454.344V453.864C503.893 452.76 504.565 451.944 506.005 451.944C507.445 451.944 508.117 452.76 508.117 453.864V454.344C508.117 455.448 507.445 456.264 506.005 456.264Z" fill="#C1C7CD"/>
<path d="M411.995 620.24C409.755 620.24 408.175 619.32 407.055 617.8L408.295 616.76C409.275 618.06 410.435 618.76 412.055 618.76C414.055 618.76 415.135 617.72 415.135 616.12C415.135 614.8 414.395 614.14 412.555 613.72L411.415 613.46C408.875 612.88 407.475 611.76 407.475 609.62C407.475 607.14 409.355 605.8 412.095 605.8C414.195 605.8 415.675 606.6 416.715 608.08L415.455 609C414.695 607.94 413.635 607.28 412.015 607.28C410.235 607.28 409.135 608.06 409.135 609.56C409.135 610.88 409.995 611.48 411.755 611.88L412.895 612.14C415.615 612.76 416.795 613.96 416.795 616.04C416.795 618.6 414.995 620.24 411.995 620.24ZM423.396 616.7L425.896 609.68H427.476L422.856 622.4C422.396 623.64 421.976 624 420.456 624H419.636V622.6H421.256L422.036 620.4L418.176 609.68H419.776L422.256 616.7L422.736 618.38H422.836L423.396 616.7ZM432.538 620.24C430.638 620.24 429.378 619.44 428.458 618.22L429.598 617.3C430.398 618.3 431.358 618.88 432.658 618.88C434.018 618.88 434.818 618.26 434.818 617.2C434.818 616.4 434.378 615.78 433.018 615.58L432.198 615.46C430.298 615.18 428.878 614.4 428.878 612.48C428.878 610.44 430.458 609.44 432.558 609.44C434.218 609.44 435.318 610.06 436.158 611.1L435.098 612.06C434.638 611.42 433.758 610.8 432.438 610.8C431.118 610.8 430.418 611.42 430.418 612.4C430.418 613.4 431.118 613.8 432.398 614L433.198 614.12C435.478 614.46 436.358 615.46 436.358 617.02C436.358 619.02 434.898 620.24 432.538 620.24ZM443.328 620H441.328C440.228 620 439.628 619.3 439.628 618.3V611.08H437.928V609.68H438.888C439.568 609.68 439.788 609.44 439.788 608.74V606.82H441.228V609.68H443.488V611.08H441.228V618.6H443.328V620ZM449.861 620.24C447.061 620.24 445.221 618.12 445.221 614.84C445.221 611.56 447.061 609.44 449.861 609.44C452.621 609.44 454.321 611.56 454.321 614.48V615.24H446.901V615.72C446.901 617.5 448.041 618.84 449.961 618.84C451.261 618.84 452.261 618.2 452.801 617.06L453.941 617.88C453.281 619.28 451.801 620.24 449.861 620.24ZM449.861 610.78C448.121 610.78 446.901 612.1 446.901 613.9V614.04H452.601V613.82C452.601 612 451.501 610.78 449.861 610.78ZM458.558 620H456.958V609.68H458.558V611.36H458.638C459.098 610.3 459.818 609.44 461.418 609.44C462.778 609.44 464.018 610.06 464.578 611.54H464.618C464.998 610.42 465.998 609.44 467.758 609.44C469.858 609.44 471.118 610.88 471.118 613.38V620H469.518V613.66C469.518 611.84 468.818 610.88 467.258 610.88C465.998 610.88 464.838 611.52 464.838 612.84V620H463.238V613.66C463.238 611.82 462.538 610.88 461.018 610.88C459.758 610.88 458.558 611.52 458.558 612.84V620ZM482.985 620.24C480.085 620.24 478.385 618.14 478.385 614.84C478.385 611.54 480.085 609.44 482.985 609.44C485.025 609.44 486.245 610.44 486.845 611.86L485.505 612.54C485.125 611.48 484.245 610.86 482.985 610.86C481.085 610.86 480.105 612.16 480.105 613.96V615.72C480.105 617.52 481.085 618.82 482.985 618.82C484.285 618.82 485.225 618.2 485.785 617.02L486.945 617.8C486.285 619.28 484.945 620.24 482.985 620.24ZM493.064 616.7L495.564 609.68H497.144L492.524 622.4C492.064 623.64 491.644 624 490.124 624H489.304V622.6H490.924L491.704 620.4L487.844 609.68H489.444L491.924 616.7L492.404 618.38H492.504L493.064 616.7ZM502.927 620.24C500.027 620.24 498.327 618.14 498.327 614.84C498.327 611.54 500.027 609.44 502.927 609.44C504.967 609.44 506.187 610.44 506.787 611.86L505.447 612.54C505.067 611.48 504.187 610.86 502.927 610.86C501.027 610.86 500.047 612.16 500.047 613.96V615.72C500.047 617.52 501.027 618.82 502.927 618.82C504.227 618.82 505.167 618.2 505.727 617.02L506.887 617.8C506.227 619.28 504.887 620.24 502.927 620.24ZM512.265 620H510.845C509.745 620 509.145 619.3 509.145 618.34V605.2H510.745V618.6H512.265V620ZM518.475 620.24C515.675 620.24 513.835 618.12 513.835 614.84C513.835 611.56 515.675 609.44 518.475 609.44C521.235 609.44 522.935 611.56 522.935 614.48V615.24H515.515V615.72C515.515 617.5 516.655 618.84 518.575 618.84C519.875 618.84 520.875 618.2 521.415 617.06L522.555 617.88C521.895 619.28 520.415 620.24 518.475 620.24ZM518.475 610.78C516.735 610.78 515.515 612.1 515.515 613.9V614.04H521.215V613.82C521.215 612 520.115 610.78 518.475 610.78ZM534.578 620H532.578C531.478 620 530.878 619.3 530.878 618.3V611.08H529.178V609.68H530.138C530.818 609.68 531.038 609.44 531.038 608.74V606.82H532.478V609.68H534.738V611.08H532.478V618.6H534.578V620ZM538.109 607.26C537.429 607.26 537.129 606.9 537.129 606.36V606.1C537.129 605.56 537.429 605.2 538.109 605.2C538.789 605.2 539.089 605.56 539.089 606.1V606.36C539.089 606.9 538.789 607.26 538.109 607.26ZM537.309 620V609.68H538.909V620H537.309ZM543.909 620H542.309V609.68H543.909V611.36H543.989C544.449 610.3 545.169 609.44 546.769 609.44C548.129 609.44 549.369 610.06 549.929 611.54H549.969C550.349 610.42 551.349 609.44 553.109 609.44C555.209 609.44 556.469 610.88 556.469 613.38V620H554.869V613.66C554.869 611.84 554.169 610.88 552.609 610.88C551.349 610.88 550.189 611.52 550.189 612.84V620H548.589V613.66C548.589 611.82 547.889 610.88 546.369 610.88C545.109 610.88 543.909 611.52 543.909 612.84V620ZM563.65 620.24C560.85 620.24 559.01 618.12 559.01 614.84C559.01 611.56 560.85 609.44 563.65 609.44C566.41 609.44 568.11 611.56 568.11 614.48V615.24H560.69V615.72C560.69 617.5 561.83 618.84 563.75 618.84C565.05 618.84 566.05 618.2 566.59 617.06L567.73 617.88C567.07 619.28 565.59 620.24 563.65 620.24ZM563.65 610.78C561.91 610.78 560.69 612.1 560.69 613.9V614.04H566.39V613.82C566.39 612 565.29 610.78 563.65 610.78ZM575.433 613.76C575.433 609.9 577.013 606.54 579.053 604.8H580.573C578.353 606.8 576.933 610.12 576.933 612.92V614.64C576.933 617.44 578.413 620.82 580.573 622.74H579.053C577.073 621.06 575.433 617.66 575.433 613.76ZM588.773 620V618.32H588.693C588.073 619.6 587.093 620.24 585.673 620.24C583.093 620.24 581.473 618.14 581.473 614.84C581.473 611.54 583.093 609.44 585.673 609.44C587.093 609.44 588.153 610.06 588.693 611.36H588.773V605.2H590.373V620H588.773ZM586.113 618.8C587.573 618.8 588.773 618.04 588.773 616.7V612.86C588.773 611.72 587.573 610.88 586.113 610.88C584.313 610.88 583.193 612.12 583.193 613.96V615.72C583.193 617.56 584.313 618.8 586.113 618.8ZM598.054 620H596.054C594.954 620 594.354 619.3 594.354 618.3V611.08H592.654V609.68H593.614C594.294 609.68 594.514 609.44 594.514 608.74V606.82H595.954V609.68H598.214V611.08H595.954V618.6H598.054V620ZM604.126 613.76C604.126 617.66 602.486 621.06 600.506 622.74H598.986C601.146 620.82 602.626 617.44 602.626 614.64V612.92C602.626 610.12 601.206 606.8 598.986 604.8H600.506C602.546 606.54 604.126 609.9 604.126 613.76Z" fill="#C6C6C6"/>
<path d="M572.316 578H570.516L575.856 565.48H569.896V568.08H568.396V564.04H577.556V565.52L572.316 578ZM588.968 564.04V565.52H582.848L582.448 570.84H582.588C583.248 569.9 583.988 569.3 585.448 569.3C587.848 569.3 589.608 570.92 589.608 573.62C589.608 576.34 587.848 578.24 584.908 578.24C582.588 578.24 581.388 577.06 580.548 575.86L581.808 574.9C582.528 576 583.228 576.74 584.908 576.74C586.808 576.74 587.828 575.68 587.828 573.84V573.64C587.828 571.8 586.808 570.74 584.908 570.74C583.628 570.74 582.988 571.28 582.408 571.92L580.988 571.72L581.488 564.04H588.968ZM601.66 576.52V578H592.5V576.28L597.06 572.08C598.36 570.88 599.36 569.48 599.36 568.14V567.9C599.36 566.36 598.5 565.3 596.78 565.3C595.06 565.3 594.26 566.34 593.88 567.66L592.38 567.08C592.92 565.44 594.16 563.8 596.86 563.8C599.58 563.8 601.14 565.48 601.14 567.86C601.14 570.02 599.86 571.54 598.08 573.14L594.32 576.52H601.66ZM608.992 578.24C605.652 578.24 604.192 575.58 604.192 571.02C604.192 566.46 605.652 563.8 608.992 563.8C612.332 563.8 613.792 566.46 613.792 571.02C613.792 575.58 612.332 578.24 608.992 578.24ZM608.992 576.78C611.172 576.78 612.032 574.86 612.032 572.16V569.88C612.032 567.18 611.172 565.26 608.992 565.26C606.812 565.26 605.952 567.18 605.952 569.88V572.16C605.952 574.86 606.812 576.78 608.992 576.78Z" fill="#C6C6C6"/>
<path d="M742.96 578H733.78V576.52H737.68V565.28H737.54L734.02 568.56L733.04 567.5L736.74 564.04H739.36V576.52H742.96V578ZM750.012 578.24C746.672 578.24 745.212 575.58 745.212 571.02C745.212 566.46 746.672 563.8 750.012 563.8C753.352 563.8 754.812 566.46 754.812 571.02C754.812 575.58 753.352 578.24 750.012 578.24ZM750.012 576.78C752.192 576.78 753.052 574.86 753.052 572.16V569.88C753.052 567.18 752.192 565.26 750.012 565.26C747.832 565.26 746.972 567.18 746.972 569.88V572.16C746.972 574.86 747.832 576.78 750.012 576.78ZM762.004 578.24C758.664 578.24 757.204 575.58 757.204 571.02C757.204 566.46 758.664 563.8 762.004 563.8C765.344 563.8 766.804 566.46 766.804 571.02C766.804 575.58 765.344 578.24 762.004 578.24ZM762.004 576.78C764.184 576.78 765.044 574.86 765.044 572.16V569.88C765.044 567.18 764.184 565.26 762.004 565.26C759.824 565.26 758.964 567.18 758.964 569.88V572.16C758.964 574.86 759.824 576.78 762.004 576.78ZM778.656 576.52V578H769.496V576.28L774.056 572.08C775.356 570.88 776.356 569.48 776.356 568.14V567.9C776.356 566.36 775.496 565.3 773.776 565.3C772.056 565.3 771.256 566.34 770.876 567.66L769.376 567.08C769.916 565.44 771.156 563.8 773.856 563.8C776.576 563.8 778.136 565.48 778.136 567.86C778.136 570.02 776.856 571.54 775.076 573.14L771.316 576.52H778.656ZM785.288 578H783.488L788.828 565.48H782.868V568.08H781.368V564.04H790.528V565.52L785.288 578Z" fill="#C6C6C6"/>
<path d="M912.96 578H903.78V576.52H907.68V565.28H907.54L904.02 568.56L903.04 567.5L906.74 564.04H909.36V576.52H912.96V578ZM924.672 576.52V578H915.512V576.28L920.072 572.08C921.372 570.88 922.372 569.48 922.372 568.14V567.9C922.372 566.36 921.512 565.3 919.792 565.3C918.072 565.3 917.272 566.34 916.892 567.66L915.392 567.08C915.932 565.44 917.172 563.8 919.872 563.8C922.592 563.8 924.152 565.48 924.152 567.86C924.152 570.02 922.872 571.54 921.092 573.14L917.332 576.52H924.672ZM935.964 564.04V565.52H929.844L929.444 570.84H929.584C930.244 569.9 930.984 569.3 932.444 569.3C934.844 569.3 936.604 570.92 936.604 573.62C936.604 576.34 934.844 578.24 931.904 578.24C929.584 578.24 928.384 577.06 927.544 575.86L928.804 574.9C929.524 576 930.224 576.74 931.904 576.74C933.804 576.74 934.824 575.68 934.824 573.84V573.64C934.824 571.8 933.804 570.74 931.904 570.74C930.624 570.74 929.984 571.28 929.404 571.92L927.984 571.72L928.484 564.04H935.964ZM941.696 569.96H943.216C945.096 569.96 946.056 568.98 946.056 567.64V567.5C946.056 566.04 945.036 565.3 943.556 565.3C942.116 565.3 941.256 565.98 940.676 567.04L939.436 566.08C940.136 564.96 941.356 563.8 943.596 563.8C945.956 563.8 947.836 565.06 947.836 567.32C947.836 569.12 946.636 570.2 945.156 570.58V570.66C946.656 570.96 948.096 572.08 948.096 574.18C948.096 576.58 946.196 578.24 943.356 578.24C940.936 578.24 939.696 577.06 938.836 575.86L940.096 574.9C940.816 576 941.636 576.74 943.336 576.74C945.296 576.74 946.336 575.8 946.336 574.16V574C946.336 572.36 945.296 571.42 943.336 571.42H941.696V569.96ZM959.088 578H957.488V575.26H950.748V573.78L956.588 564.04H959.088V573.86H961.108V575.26H959.088V578ZM957.388 565.34L952.328 573.86H957.488V565.34H957.388Z" fill="#C6C6C6"/>
<line x1="65" y1="550.5" x2="947" y2="550.5" stroke="#C1C7CD"/>
<line x1="81.5" y1="550" x2="81.5" y2="558" stroke="#C1C7CD"/>
<line x1="251.5" y1="550" x2="251.5" y2="558" stroke="#C1C7CD"/>
<line x1="421.5" y1="550" x2="421.5" y2="558" stroke="#C1C7CD"/>
<line x1="591.5" y1="550" x2="591.5" y2="558" stroke="#C1C7CD"/>
<line x1="931.5" y1="550" x2="931.5" y2="558" stroke="#C1C7CD"/>
<line x1="761.5" y1="550" x2="761.5" y2="558" stroke="#C1C7CD"/>
<rect x="65" y="477" width="882" height="16" fill="#C1C7CD"/>
<rect x="65" y="397" width="882" height="16" fill="#C1C7CD"/>
<rect x="65" y="357" width="882" height="16" fill="#C6C6C6"/>
<rect x="65" y="317" width="882" height="16" fill="#C1C7CD"/>
<rect x="65" y="277" width="882" height="16" fill="#C6C6C6"/>
<rect x="65" y="237" width="882" height="16" fill="#C1C7CD"/>
<rect x="65" y="197" width="882" height="16" fill="#C6C6C6"/>
<rect x="65" y="157" width="882" height="16" fill="#C1C7CD"/>
<rect x="65" y="117" width="882" height="16" fill="#C6C6C6"/>
<rect x="65" y="77" width="882" height="16" fill="#C1C7CD"/>
<rect x="65" y="37" width="882" height="16" fill="#C6C6C6"/>
<rect x="186" y="117" width="64" height="16" fill="#78A9FF"/>
<rect x="186" y="157" width="64" height="16" fill="#78A9FF"/>
<rect x="81" y="157" width="8" height="16" fill="#FF6168"/>
<rect x="89" y="157" width="96" height="16" fill="#78A9FF"/>
<rect x="186" y="317" width="128" height="16" fill="#78A9FF"/>
<rect x="444" y="317" width="128" height="16" fill="#78A9FF"/>
<rect x="670" y="157" width="256" height="16" fill="#78A9FF"/>
<rect x="315" y="317" width="128" height="16" fill="#78A9FF"/>
<path d="M80.1299 160.624H81.9059V165.76C81.9059 166.936 82.3379 167.524 83.4179 167.524C84.4979 167.524 84.9299 166.936 84.9299 165.76V160.624H86.7059V165.568C86.7059 168.04 85.8179 169.144 83.4179 169.144C81.0179 169.144 80.1299 168.04 80.1299 165.568V160.624ZM91.4499 168.004V169H87.9819V167.944L89.2899 166.948C89.8899 166.492 90.0939 166.312 90.0939 165.952V165.94C90.0939 165.616 89.8059 165.532 89.5779 165.532C89.1819 165.532 89.0019 165.784 88.9179 166.072L87.8499 165.676C88.0779 165.004 88.6899 164.5 89.6979 164.5C90.7779 164.5 91.4019 165.076 91.4019 165.868C91.4019 166.684 90.7419 167.212 90.0339 167.608L89.3259 168.004H91.4499Z" fill="black"/>
<path d="M133.48 169.144C131.224 169.144 129.772 167.704 129.772 164.872C129.772 162.04 131.224 160.48 133.48 160.48C135.016 160.48 136 161.104 136.612 162.448L135.04 163.264C134.824 162.568 134.38 162.1 133.48 162.1C132.412 162.1 131.704 162.82 131.704 164.14V165.484C131.704 166.804 132.412 167.524 133.48 167.524C134.38 167.524 134.896 166.96 135.148 166.276L136.636 167.14C136.012 168.412 135.016 169.144 133.48 169.144ZM136.946 169L139.634 164.668L137.078 160.624H139.202L140.834 163.456H140.87L142.526 160.624H144.494L141.914 164.704L144.638 169H142.526L140.714 165.916H140.678L138.914 169H136.946Z" fill="black"/>
<rect x="89" y="357" width="96" height="16" fill="#78A9FF"/>
<rect x="186" y="357" width="128" height="16" fill="#78A9FF"/>
<rect x="444" y="357" width="128" height="16" fill="#78A9FF"/>
<rect x="315" y="357" width="128" height="16" fill="#78A9FF"/>
<rect x="573" y="357" width="96" height="16" fill="#78A9FF"/>
<path d="M133.48 369.144C131.224 369.144 129.772 367.704 129.772 364.872C129.772 362.04 131.224 360.48 133.48 360.48C135.016 360.48 136 361.104 136.612 362.448L135.04 363.264C134.824 362.568 134.38 362.1 133.48 362.1C132.412 362.1 131.704 362.82 131.704 364.14V365.484C131.704 366.804 132.412 367.524 133.48 367.524C134.38 367.524 134.896 366.96 135.148 366.276L136.636 367.14C136.012 368.412 135.016 369.144 133.48 369.144ZM136.946 369L139.634 364.668L137.078 360.624H139.202L140.834 363.456H140.87L142.526 360.624H144.494L141.914 364.704L144.638 369H142.526L140.714 365.916H140.678L138.914 369H136.946Z" fill="black"/>
<path d="M246.48 369.144C244.224 369.144 242.772 367.704 242.772 364.872C242.772 362.04 244.224 360.48 246.48 360.48C248.016 360.48 249 361.104 249.612 362.448L248.04 363.264C247.824 362.568 247.38 362.1 246.48 362.1C245.412 362.1 244.704 362.82 244.704 364.14V365.484C244.704 366.804 245.412 367.524 246.48 367.524C247.38 367.524 247.896 366.96 248.148 366.276L249.636 367.14C249.012 368.412 248.016 369.144 246.48 369.144ZM249.946 369L252.634 364.668L250.078 360.624H252.202L253.834 363.456H253.87L255.526 360.624H257.494L254.914 364.704L257.638 369H255.526L253.714 365.916H253.678L251.914 369H249.946Z" fill="black"/>
<path d="M246.48 329.144C244.224 329.144 242.772 327.704 242.772 324.872C242.772 322.04 244.224 320.48 246.48 320.48C248.016 320.48 249 321.104 249.612 322.448L248.04 323.264C247.824 322.568 247.38 322.1 246.48 322.1C245.412 322.1 244.704 322.82 244.704 324.14V325.484C244.704 326.804 245.412 327.524 246.48 327.524C247.38 327.524 247.896 326.96 248.148 326.276L249.636 327.14C249.012 328.412 248.016 329.144 246.48 329.144ZM249.946 329L252.634 324.668L250.078 320.624H252.202L253.834 323.456H253.87L255.526 320.624H257.494L254.914 324.704L257.638 329H255.526L253.714 325.916H253.678L251.914 329H249.946Z" fill="black"/>
<path d="M375.48 369.144C373.224 369.144 371.772 367.704 371.772 364.872C371.772 362.04 373.224 360.48 375.48 360.48C377.016 360.48 378 361.104 378.612 362.448L377.04 363.264C376.824 362.568 376.38 362.1 375.48 362.1C374.412 362.1 373.704 362.82 373.704 364.14V365.484C373.704 366.804 374.412 367.524 375.48 367.524C376.38 367.524 376.896 366.96 377.148 366.276L378.636 367.14C378.012 368.412 377.016 369.144 375.48 369.144ZM378.946 369L381.634 364.668L379.078 360.624H381.202L382.834 363.456H382.87L384.526 360.624H386.494L383.914 364.704L386.638 369H384.526L382.714 365.916H382.678L380.914 369H378.946Z" fill="black"/>
<path d="M617.48 369.144C615.224 369.144 613.772 367.704 613.772 364.872C613.772 362.04 615.224 360.48 617.48 360.48C619.016 360.48 620 361.104 620.612 362.448L619.04 363.264C618.824 362.568 618.38 362.1 617.48 362.1C616.412 362.1 615.704 362.82 615.704 364.14V365.484C615.704 366.804 616.412 367.524 617.48 367.524C618.38 367.524 618.896 366.96 619.148 366.276L620.636 367.14C620.012 368.412 619.016 369.144 617.48 369.144ZM620.946 369L623.634 364.668L621.078 360.624H623.202L624.834 363.456H624.87L626.526 360.624H628.494L625.914 364.704L628.638 369H626.526L624.714 365.916H624.678L622.914 369H620.946Z" fill="black"/>
<rect x="573" y="157" width="96" height="16" fill="#78A9FF"/>
<path d="M617.48 169.144C615.224 169.144 613.772 167.704 613.772 164.872C613.772 162.04 615.224 160.48 617.48 160.48C619.016 160.48 620 161.104 620.612 162.448L619.04 163.264C618.824 162.568 618.38 162.1 617.48 162.1C616.412 162.1 615.704 162.82 615.704 164.14V165.484C615.704 166.804 616.412 167.524 617.48 167.524C618.38 167.524 618.896 166.96 619.148 166.276L620.636 167.14C620.012 168.412 619.016 169.144 617.48 169.144ZM620.946 169L623.634 164.668L621.078 160.624H623.202L624.834 163.456H624.87L626.526 160.624H628.494L625.914 164.704L628.638 169H626.526L624.714 165.916H624.678L622.914 169H620.946Z" fill="black"/>
<path d="M794.48 169.144C792.224 169.144 790.772 167.704 790.772 164.872C790.772 162.04 792.224 160.48 794.48 160.48C796.016 160.48 797 161.104 797.612 162.448L796.04 163.264C795.824 162.568 795.38 162.1 794.48 162.1C793.412 162.1 792.704 162.82 792.704 164.14V165.484C792.704 166.804 793.412 167.524 794.48 167.524C795.38 167.524 795.896 166.96 796.148 166.276L797.636 167.14C797.012 168.412 796.016 169.144 794.48 169.144ZM797.946 169L800.634 164.668L798.078 160.624H800.202L801.834 163.456H801.87L803.526 160.624H805.494L802.914 164.704L805.638 169H803.526L801.714 165.916H801.678L799.914 169H797.946Z" fill="black"/>
<rect x="670" y="197" width="256" height="16" fill="#78A9FF"/>
<path d="M794.48 209.144C792.224 209.144 790.772 207.704 790.772 204.872C790.772 202.04 792.224 200.48 794.48 200.48C796.016 200.48 797 201.104 797.612 202.448L796.04 203.264C795.824 202.568 795.38 202.1 794.48 202.1C793.412 202.1 792.704 202.82 792.704 204.14V205.484C792.704 206.804 793.412 207.524 794.48 207.524C795.38 207.524 795.896 206.96 796.148 206.276L797.636 207.14C797.012 208.412 796.016 209.144 794.48 209.144ZM797.946 209L800.634 204.668L798.078 200.624H800.202L801.834 203.456H801.87L803.526 200.624H805.494L802.914 204.704L805.638 209H803.526L801.714 205.916H801.678L799.914 209H797.946Z" fill="black"/>
<path d="M375.48 329.144C373.224 329.144 371.772 327.704 371.772 324.872C371.772 322.04 373.224 320.48 375.48 320.48C377.016 320.48 378 321.104 378.612 322.448L377.04 323.264C376.824 322.568 376.38 322.1 375.48 322.1C374.412 322.1 373.704 322.82 373.704 324.14V325.484C373.704 326.804 374.412 327.524 375.48 327.524C376.38 327.524 376.896 326.96 377.148 326.276L378.636 327.14C378.012 328.412 377.016 329.144 375.48 329.144ZM378.946 329L381.634 324.668L379.078 320.624H381.202L382.834 323.456H382.87L384.526 320.624H386.494L383.914 324.704L386.638 329H384.526L382.714 325.916H382.678L380.914 329H378.946Z" fill="black"/>
<path d="M502.48 369.144C500.224 369.144 498.772 367.704 498.772 364.872C498.772 362.04 500.224 360.48 502.48 360.48C504.016 360.48 505 361.104 505.612 362.448L504.04 363.264C503.824 362.568 503.38 362.1 502.48 362.1C501.412 362.1 500.704 362.82 500.704 364.14V365.484C500.704 366.804 501.412 367.524 502.48 367.524C503.38 367.524 503.896 366.96 504.148 366.276L505.636 367.14C505.012 368.412 504.016 369.144 502.48 369.144ZM505.946 369L508.634 364.668L506.078 360.624H508.202L509.834 363.456H509.87L511.526 360.624H513.494L510.914 364.704L513.638 369H511.526L509.714 365.916H509.678L507.914 369H505.946Z" fill="black"/>
<path d="M502.48 329.144C500.224 329.144 498.772 327.704 498.772 324.872C498.772 322.04 500.224 320.48 502.48 320.48C504.016 320.48 505 321.104 505.612 322.448L504.04 323.264C503.824 322.568 503.38 322.1 502.48 322.1C501.412 322.1 500.704 322.82 500.704 324.14V325.484C500.704 326.804 501.412 327.524 502.48 327.524C503.38 327.524 503.896 326.96 504.148 326.276L505.636 327.14C505.012 328.412 504.016 329.144 502.48 329.144ZM505.946 329L508.634 324.668L506.078 320.624H508.202L509.834 323.456H509.87L511.526 320.624H513.494L510.914 324.704L513.638 329H511.526L509.714 325.916H509.678L507.914 329H505.946Z" fill="black"/>
<path d="M214.48 169.144C212.224 169.144 210.772 167.704 210.772 164.872C210.772 162.04 212.224 160.48 214.48 160.48C216.016 160.48 217 161.104 217.612 162.448L216.04 163.264C215.824 162.568 215.38 162.1 214.48 162.1C213.412 162.1 212.704 162.82 212.704 164.14V165.484C212.704 166.804 213.412 167.524 214.48 167.524C215.38 167.524 215.896 166.96 216.148 166.276L217.636 167.14C217.012 168.412 216.016 169.144 214.48 169.144ZM217.946 169L220.634 164.668L218.078 160.624H220.202L221.834 163.456H221.87L223.526 160.624H225.494L222.914 164.704L225.638 169H223.526L221.714 165.916H221.678L219.914 169H217.946Z" fill="black"/>
<path d="M214.48 129.144C212.224 129.144 210.772 127.704 210.772 124.872C210.772 122.04 212.224 120.48 214.48 120.48C216.016 120.48 217 121.104 217.612 122.448L216.04 123.264C215.824 122.568 215.38 122.1 214.48 122.1C213.412 122.1 212.704 122.82 212.704 124.14V125.484C212.704 126.804 213.412 127.524 214.48 127.524C215.38 127.524 215.896 126.96 216.148 126.276L217.636 127.14C217.012 128.412 216.016 129.144 214.48 129.144ZM217.946 129L220.634 124.668L218.078 120.624H220.202L221.834 123.456H221.87L223.526 120.624H225.494L222.914 124.704L225.638 129H223.526L221.714 125.916H221.678L219.914 129H217.946Z" fill="black"/>
<line x1="218.5" y1="133" x2="218.5" y2="157" stroke="#78A9FF" stroke-width="3"/>
<line x1="798.5" y1="173" x2="798.5" y2="197" stroke="#78A9FF" stroke-width="3"/>
<line x1="250.5" y1="333" x2="250.5" y2="357" stroke="#78A9FF" stroke-width="3"/>
<line x1="379.5" y1="333" x2="379.5" y2="357" stroke="#78A9FF" stroke-width="3"/>
<line x1="506.5" y1="333" x2="506.5" y2="357" stroke="#78A9FF" stroke-width="3"/>
<line x1="136.5" y1="172" x2="136.5" y2="357" stroke="#78A9FF" stroke-width="3"/>
<line x1="621.5" y1="172" x2="621.5" y2="357" stroke="#78A9FF" stroke-width="3"/>
</svg>
