<?xml version='1.0' encoding='utf-8'?>
<svg xmlns="http://www.w3.org/2000/svg" xmlns:ns1="http://sodipodi.sourceforge.net/DTD/sodipodi-0.dtd" xmlns:ns2="http://www.inkscape.org/namespaces/inkscape" version="1.1" id="svg1" width="100%" height="auto" viewBox="-20.0 -20.0 491.37396 308.75781" ns1:docname="svg_fix_XXXXXX.svg">
  <rect id="path1" x="-20.0" y="-20.0" width="491.37396" height="308.75781" fill="white" /><ns1:namedview id="namedview1" pagecolor="#ffffff" bordercolor="#000000" borderopacity="0.25" ns2:showpageshadow="2" ns2:pageopacity="0.0" ns2:pagecheckerboard="0" ns2:deskcolor="#d1d1d1" />
  <defs id="defs1" />
  <g id="g1" transform="translate(-74.927938,-19.458758)">
    <path id="path2" d="m -150.1158,63.7796 96.13678,10e-5" style="fill:none;stroke:#121619;stroke-width:0.59776;stroke-linecap:butt;stroke-linejoin:miter;stroke-miterlimit:10;stroke-dasharray:none;stroke-opacity:1" transform="matrix(1.24,0,0,-1.24,261.07153,113.85511)" />
    <path id="path3" d="m -150.1158,51.02368 h 49.03134 c 1.10048,0 1.99256,-0.89208 1.99256,-1.99255 v -2.39287 c 0,-1.10046 0,-2.88463 0,-3.98511 V 8.37047 c 0,-1.10047 0.89209,-1.99256 1.99255,-1.99256 H 9.80055" style="fill:none;stroke:#121619;stroke-width:0.59776;stroke-linecap:butt;stroke-linejoin:miter;stroke-miterlimit:10;stroke-dasharray:none;stroke-opacity:1" transform="matrix(1.24,0,0,-1.24,261.07153,113.85511)" />
    <path id="path4" d="m -150.1158,38.26776 h 36.27536 c 1.10048,0 1.99255,-0.89207 1.99255,-1.99256 v -2.39288 c 0,-1.10046 0,-2.88462 0,-3.9851 v -59.79444 c 0,-1.10048 0.89209,-1.99255 1.99256,-1.99255 H 73.58023" style="fill:none;stroke:#121619;stroke-width:0.59776;stroke-linecap:butt;stroke-linejoin:miter;stroke-miterlimit:10;stroke-dasharray:none;stroke-opacity:1" transform="matrix(1.24,0,0,-1.24,261.07153,113.85511)" />
    <path id="path5" d="m -150.1158,25.51183 h 23.5194 c 1.10047,0 1.99255,-0.89208 1.99255,-1.99256 V 21.1264 c 0,-1.10046 0,-2.88462 0,-3.9851 v -85.30634 c 0,-1.10048 0.89209,-1.99256 1.99255,-1.99256 h 259.97116" style="fill:none;stroke:#121619;stroke-width:0.59776;stroke-linecap:butt;stroke-linejoin:miter;stroke-miterlimit:10;stroke-dasharray:none;stroke-opacity:1" transform="matrix(1.24,0,0,-1.24,261.07153,113.85511)" />
    <path id="path6" d="m -150.1158,-102.04741 h 61.78732 c 1.10048,0 1.99256,0.89209 1.99256,1.99255 v 34.28283 c 0,1.10046 0,2.88463 0,3.9851 v 85.30614 c 0,1.10048 0.89209,1.99255 1.99255,1.99255 h 30.36435" style="fill:none;stroke:#121619;stroke-width:0.59776;stroke-linecap:butt;stroke-linejoin:miter;stroke-miterlimit:10;stroke-dasharray:none;stroke-opacity:1" transform="matrix(1.24,0,0,-1.24,261.07153,113.85511)" />
    <path id="path7" d="m -150.1158,-114.80334 h 74.5433 c 1.10048,0 1.99256,0.89209 1.99256,1.99255 v 2.39287 c 0,1.10048 0,2.88464 0,3.9851 v 91.68425 c 0,1.10047 0.89209,1.99256 1.99255,1.99256 H 9.80055" style="fill:none;stroke:#121619;stroke-width:0.59776;stroke-linecap:butt;stroke-linejoin:miter;stroke-miterlimit:10;stroke-dasharray:none;stroke-opacity:1" transform="matrix(1.24,0,0,-1.24,261.07153,113.85511)" />
    <path id="path8" d="m -150.1158,-127.55928 h 87.29929 c 1.10046,0 1.99255,0.89209 1.99255,1.99255 v 2.39289 c 0,1.10048 0,2.88464 0,3.9851 v 66.17244 c 0,1.10047 0.89209,1.99256 1.99256,1.99256 H 73.58023" style="fill:none;stroke:#121619;stroke-width:0.59776;stroke-linecap:butt;stroke-linejoin:miter;stroke-miterlimit:10;stroke-dasharray:none;stroke-opacity:1" transform="matrix(1.24,0,0,-1.24,261.07153,113.85511)" />
    <path id="path9" d="m -150.1158,-140.3152 h 100.05527 c 1.10046,0 1.99255,0.89209 1.99255,1.99255 v 2.39287 c 0,1.10048 0,2.88464 0,3.98511 v 40.66057 c 0,1.10048 0.89208,1.99255 1.99256,1.99255 h 183.43528" style="fill:none;stroke:#121619;stroke-width:0.59776;stroke-linecap:butt;stroke-linejoin:miter;stroke-miterlimit:10;stroke-dasharray:none;stroke-opacity:1" transform="matrix(1.24,0,0,-1.24,261.07153,113.85511)" />
    <path id="path10" d="m -48.06836,63.7797 261.96382,-10e-5" style="fill:none;stroke:#121619;stroke-width:0.59776;stroke-linecap:butt;stroke-linejoin:miter;stroke-miterlimit:10;stroke-dasharray:none;stroke-opacity:1" transform="matrix(1.24,0,0,-1.24,261.07153,113.85511)" />
    <path id="path11" d="m -53.97902,25.51176 63.77957,1.3e-4" style="fill:none;stroke:#121619;stroke-width:0.59776;stroke-linecap:butt;stroke-linejoin:miter;stroke-miterlimit:10;stroke-dasharray:none;stroke-opacity:1" transform="matrix(1.24,0,0,-1.24,261.07153,113.85511)" />
    <path id="path12" d="m 15.71123,25.51189 h 131.9452 c 1.10047,0 1.99256,0.89209 1.99256,1.99255 v 2.39287 c 0,1.10048 0,2.88464 0,3.98511 v 15.14871 c 0,1.10047 0.89207,1.99255 1.99255,1.99255 h 62.25392" style="fill:none;stroke:#121619;stroke-width:0.59776;stroke-linecap:butt;stroke-linejoin:miter;stroke-miterlimit:10;stroke-dasharray:none;stroke-opacity:1" transform="matrix(1.24,0,0,-1.24,261.07153,113.85511)" />
    <path id="path13" d="m 9.80055,-12.75601 69.69034,2e-4" style="fill:none;stroke:#121619;stroke-width:0.59776;stroke-linecap:butt;stroke-linejoin:miter;stroke-miterlimit:10;stroke-dasharray:none;stroke-opacity:1" transform="matrix(1.24,0,0,-1.24,261.07153,113.85511)" />
    <path id="path14" d="m 73.58023,-12.75581 h 87.29927 c 1.10048,0 1.99256,0.89207 1.99256,1.99255 v 2.39287 c 0,1.10046 0,2.88463 0,3.98511 V 36.2752 c 0,1.10049 0.89208,1.99256 1.99255,1.99256 h 49.03085" style="fill:none;stroke:#121619;stroke-width:0.59776;stroke-linecap:butt;stroke-linejoin:miter;stroke-miterlimit:10;stroke-dasharray:none;stroke-opacity:1" transform="matrix(1.24,0,0,-1.24,261.07153,113.85511)" />
    <path id="path15" d="m 73.58023,-51.02374 69.69029,1.2e-4" style="fill:none;stroke:#121619;stroke-width:0.59776;stroke-linecap:butt;stroke-linejoin:miter;stroke-miterlimit:10;stroke-dasharray:none;stroke-opacity:1" transform="matrix(1.24,0,0,-1.24,261.07153,113.85511)" />
    <path id="path16" d="m 137.35986,-51.02362 h 36.27538 c 1.10048,0 1.99255,0.89207 1.99255,1.99255 v 2.39287 c 0,1.10047 0,2.88463 0,3.98511 v 66.17236 c 0,1.10048 0.89209,1.99256 1.99256,1.99256 h 36.27511" style="fill:none;stroke:#121619;stroke-width:0.59776;stroke-linecap:butt;stroke-linejoin:miter;stroke-miterlimit:10;stroke-dasharray:none;stroke-opacity:1" transform="matrix(1.24,0,0,-1.24,261.07153,113.85511)" />
    <path id="path17" d="m 137.35986,-89.29155 h 49.03138 c 1.10047,0 1.99255,0.89209 1.99255,1.99255 v 2.39287 c 0,1.10047 0,2.88465 0,3.98511 v 91.68436 c 0,1.10048 0.89209,1.99255 1.99255,1.99255 h 23.51912" style="fill:none;stroke:#121619;stroke-width:0.59776;stroke-linecap:butt;stroke-linejoin:miter;stroke-miterlimit:10;stroke-dasharray:none;stroke-opacity:1" transform="matrix(1.24,0,0,-1.24,261.07153,113.85511)" />
    <path id="path18" d="m -73.70113,13.46423 h 45.35489 v 62.36298 h -45.35489 z" style="fill:#78a9ff;fill-opacity:1;fill-rule:nonzero;stroke:#78a9ff;stroke-width:0.59776;stroke-linecap:butt;stroke-linejoin:miter;stroke-miterlimit:10;stroke-dasharray:none;stroke-opacity:1" transform="matrix(1.24,0,0,-1.24,261.07153,113.85511)" />
    <path id="path19" d="M 6.1107382,-4.4186828e-4 V -6.9182846 H 5.216081 v 3.0241935 H 1.826464 V -6.9182846 H 0.93180679 V -4.4186828e-4 H 1.826464 V -3.2892524 h 3.389617 v 3.28881053172 z m 5.0245718,0 V -2.8860265 c 0,-1.0080646 -0.730847,-1.7137097 -1.6507058,-1.7137097 -0.6426412,0 -1.0962702,0.1638105 -1.5625,0.4284274 l 0.063004,0.6678427 c 0.5166331,-0.3780242 1.0080645,-0.5040322 1.499496,-0.5040322 0.4662298,0 0.8694558,0.4032258 0.8694558,1.1340726 v 0.4284274 c -1.4994962,0.025202 -2.7595768,0.4410282 -2.7595768,1.3230847 0,0.42842738 0.2646169,1.23487899 1.1340726,1.23487899 0.1386089,0 1.0710685,-0.02520161 1.6507052,-0.46622984 V -4.4186828e-4 Z M 10.35406,-1.3109257 c 0,0.1890121 0,0.42842738 -0.340222,0.61743948 -0.2898185,0.18901209 -0.6678427,0.18901209 -0.78125,0.18901209 -0.4788306,0 -0.9198588,-0.22681451 -0.9198588,-0.64264117 0,-0.6930443 1.6129032,-0.7686491 2.0413308,-0.78125 z m 3.039944,1.31048383172 V -6.9182846 H 12.650557 V -4.4186828e-4 Z M 17.678279,-6.2504419 v -0.6678427 c -0.113408,-0.025202 -0.428428,-0.1134073 -0.793851,-0.1134073 -0.93246,0 -1.650706,0.718246 -1.650706,1.7137097 v 0.8946573 h -0.743447 v 0.5796371 h 0.743447 V -4.4186828e-4 H 15.97717 V -3.8436878 h 1.09627 v -0.5796371 h -1.121472 v -1.1844758 c 0,-0.7434476 0.667843,-0.8064517 0.919859,-0.8064517 0.201613,0 0.478831,0.012601 0.806452,0.1638105 z M 1.2562776,14.39913 v -2.885585 c 0,-1.008064 -0.73084682,-1.7137097 -1.65070569,-1.7137097 -0.64264111,0 -1.09627021,0.1638105 -1.56250001,0.4284277 l 0.063004,0.667843 c 0.5166331,-0.378025 1.00806456,-0.504033 1.49949601,-0.504033 0.46622984,0 0.86945564,0.403226 0.86945564,1.134073 v 0.428427 c -1.49949595,0.0252 -2.75957665,0.441028 -2.75957665,1.323085 0,0.428427 0.264617,1.234879 1.1340726,1.234879 0.1386089,0 1.07106857,-0.0252 1.65070567,-0.46623 V 14.39913 Z M 0.47502755,13.088646 c 0,0.189012 0,0.428427 -0.34022177,0.617439 -0.28981855,0.189012 -0.66784274,0.189012 -0.78125,0.189012 -0.47883068,0 -0.91985888,-0.226814 -0.91985888,-0.642641 0,-0.693044 1.61290323,-0.768649 2.04133065,-0.78125 z M 6.2902997,14.39913 V 7.481287 H 5.5468522 v 2.935988 C 5.0176183,9.9762466 4.4631828,9.8628394 4.0851586,9.8628394 c -0.9828629,0 -1.7641129,1.0332666 -1.7641129,2.3185486 0,1.310484 0.7686492,2.331149 1.7263105,2.331149 0.327621,0 0.907258,-0.08821 1.4742943,-0.63004 V 14.39913 Z M 5.5216505,13.013041 c 0,0.138609 -0.012601,0.31502 -0.3402217,0.604839 -0.2268146,0.201613 -0.4662299,0.277217 -0.7308468,0.277217 -0.6174395,0 -1.3482863,-0.466229 -1.3482863,-1.701108 0,-1.310484 0.8568548,-1.726311 1.4490927,-1.726311 0.4410283,0 0.7434476,0.239415 0.9702621,0.554436 z M 11.440879,14.39913 V 7.481287 h -0.743447 v 2.935988 C 10.168198,9.9762466 9.6137624,9.8628394 9.2357382,9.8628394 c -0.9828629,0 -1.7641129,1.0332666 -1.7641129,2.3185486 0,1.310484 0.7686492,2.331149 1.7263105,2.331149 0.327621,0 0.9072582,-0.08821 1.4742942,-0.63004 V 14.39913 Z M 10.67223,13.013041 c 0,0.138609 -0.0126,0.31502 -0.340222,0.604839 -0.226814,0.201613 -0.4662294,0.277217 -0.7308464,0.277217 -0.6174395,0 -1.3482863,-0.466229 -1.3482863,-1.701108 0,-1.310484 0.8568549,-1.726311 1.4490928,-1.726311 0.4410279,0 0.7434479,0.239415 0.9702619,0.554436 z m 5.717616,-0.793851 c 0,-0.340222 0,-1.083669 -0.390625,-1.688508 -0.415827,-0.6174394 -1.020665,-0.7308467 -1.373488,-0.7308467 -1.108871,0 -2.003528,1.0584677 -2.003528,2.3437497 0,1.323085 0.957661,2.368952 2.154738,2.368952 0.617439,0 1.184476,-0.239415 1.575101,-0.516633 l -0.0504,-0.655242 c -0.63004,0.516633 -1.285282,0.554435 -1.524697,0.554435 -0.793851,0 -1.436492,-0.705645 -1.461694,-1.675907 z M 15.82281,11.664755 h -2.457157 c 0.16381,-0.756049 0.693044,-1.24748 1.26008,-1.24748 0.516633,0 1.071069,0.327621 1.197077,1.24748 z m 4.133064,-1.134073 V 9.8628394 c -0.894657,0.012601 -1.436492,0.5040326 -1.751512,0.9576616 V 9.9132426 H 17.511318 V 14.39913 h 0.743447 v -2.129537 c 0,-0.995463 0.718246,-1.713709 1.701109,-1.738911 z m 0,0" style="fill:#ffffff;fill-opacity:1;fill-rule:nonzero;stroke:none" aria-label="Half&#10;adder" transform="matrix(1.24,0,0,1.24,187.09065,53.137267)" />
    <path id="path20" d="M -9.92154,-24.80356 H 35.43335 V 37.55942 H -9.92154 Z" style="fill:#78a9ff;fill-opacity:1;fill-rule:nonzero;stroke:#78a9ff;stroke-width:0.59776;stroke-linecap:butt;stroke-linejoin:miter;stroke-miterlimit:10;stroke-dasharray:none;stroke-opacity:1" transform="matrix(1.24,0,0,-1.24,261.07153,113.85511)" />
    <path id="path21" d="M 5.2434278,-6.2371919 V -6.8924338 H 0.93395195 V 2.0732527e-4 H 1.8286092 V -3.1373935 H 4.8402019 V -3.7422322 H 1.8286092 v -2.5075605 h 1.2978831 c 0.126008,0 0.2394153,0.012601 0.3654234,0.012601 z M 9.7356153,2.0732527e-4 V -4.4226757 h -0.78125 v 2.8855846 c 0,0.75604843 -0.5544355,1.0962702 -1.1970767,1.0962702 -0.7056451,0 -0.7686492,-0.25201613 -0.7686492,-0.6804435 v -3.3014113 h -0.78125 v 3.3392137 c 0,0.71824594 0.2268146,1.19707658 1.0584678,1.19707658 0.5292339,0 1.234879,-0.16381048 1.7263105,-0.5922379 V 2.0732527e-4 Z m 2.3658017,0 V -6.9176354 H 11.357969 V 2.0732527e-4 Z m 2.378402,0 V -6.9176354 H 13.736371 V 2.0732527e-4 Z M 0.27240961,14.399779 v -2.885585 c 0,-1.008064 -0.73084677,-1.7137095 -1.65070561,-1.7137095 -0.6426412,0 -1.0962702,0.1638105 -1.5625,0.4284275 l 0.063004,0.667843 c 0.5166331,-0.378024 1.0080645,-0.504033 1.499496,-0.504033 0.4662298,0 0.86945561,0.403226 0.86945561,1.134073 v 0.428427 c -1.49949601,0.0252 -2.75957661,0.441029 -2.75957661,1.323085 0,0.428428 0.2646169,1.234879 1.1340726,1.234879 0.1386088,0 1.0710685,-0.0252 1.65070562,-0.46623 v 0.352823 z m -0.78125,-1.310484 c 0,0.189012 0,0.428427 -0.34022177,0.61744 -0.28981854,0.189012 -0.66784274,0.189012 -0.78125004,0.189012 -0.4788306,0 -0.9198588,-0.226815 -0.9198588,-0.642641 0,-0.693045 1.61290319,-0.76865 2.04133061,-0.78125 z M 5.3032816,14.399779 V 7.4819362 H 4.559834 V 10.417924 C 4.0306001,9.9768958 3.4761647,9.8634886 3.0981405,9.8634886 c -0.9828629,0 -1.7641129,1.0332664 -1.7641129,2.3185484 0,1.310484 0.7686491,2.331149 1.7263104,2.331149 0.327621,0 0.9072581,-0.0882 1.4742944,-0.63004 v 0.516633 z M 4.5346324,13.01369 c 0,0.138609 -0.012601,0.31502 -0.3402218,0.604839 -0.2268145,0.201613 -0.4662298,0.277218 -0.7308468,0.277218 -0.6174395,0 -1.3482862,-0.46623 -1.3482862,-1.701109 0,-1.310484 0.8568548,-1.726311 1.4490927,-1.726311 0.4410282,0 0.7434476,0.239416 0.9702621,0.554436 z m 5.9192286,1.386089 V 7.4819362 H 9.7104136 V 10.417924 C 9.1811798,9.9768958 8.6267443,9.8634886 8.2487201,9.8634886 c -0.9828629,0 -1.7641129,1.0332664 -1.7641129,2.3185484 0,1.310484 0.7686492,2.331149 1.7263105,2.331149 0.3276209,0 0.907258,-0.0882 1.4742943,-0.63004 v 0.516633 z M 9.685212,13.01369 c 0,0.138609 -0.012601,0.31502 -0.3402217,0.604839 -0.2268146,0.201613 -0.4662299,0.277218 -0.7308468,0.277218 -0.6174395,0 -1.3482863,-0.46623 -1.3482863,-1.701109 0,-1.310484 0.8568548,-1.726311 1.4490927,-1.726311 0.4410283,0 0.7434476,0.239416 0.9702621,0.554436 z m 5.717616,-0.793851 c 0,-0.340221 0,-1.083669 -0.390625,-1.688508 -0.415827,-0.6174392 -1.020665,-0.7308465 -1.373488,-0.7308465 -1.108871,0 -2.003528,1.0584675 -2.003528,2.3437505 0,1.323084 0.957661,2.368951 2.154738,2.368951 0.617439,0 1.184476,-0.239415 1.575101,-0.516633 l -0.0504,-0.655242 c -0.63004,0.516633 -1.285282,0.554436 -1.524697,0.554436 -0.793851,0 -1.436492,-0.705646 -1.461694,-1.675908 z m -0.567036,-0.554435 h -2.457158 c 0.163811,-0.756048 0.693045,-1.24748 1.260081,-1.24748 0.516633,0 1.071069,0.327621 1.197077,1.24748 z m 4.133064,-1.134073 V 9.8634886 C 18.074199,9.8760894 17.532364,10.367521 17.217344,10.82115 V 9.9138918 H 16.5243 v 4.4858872 h 0.743447 v -2.129536 c 0,-0.995464 0.718246,-1.71371 1.701109,-1.738912 z m 0,0" style="fill:#ffffff;fill-opacity:1;fill-rule:nonzero;stroke:none" aria-label="Full&#10;adder" transform="matrix(1.24,0,0,1.24,267.40049,100.58959)" />
    <path id="path22" d="M 53.85811,-63.07127 H 99.213 V -0.70829 H 53.85811 Z" style="fill:#78a9ff;fill-opacity:1;fill-rule:nonzero;stroke:#78a9ff;stroke-width:0.59776;stroke-linecap:butt;stroke-linejoin:miter;stroke-miterlimit:10;stroke-dasharray:none;stroke-opacity:1" transform="matrix(1.24,0,0,-1.24,261.07153,113.85511)" />
    <path id="path23" d="M 5.2424096,-6.2365427 V -6.8917846 H 0.9329338 V 8.5651882e-4 H 1.8275911 V -3.1367443 H 4.8391838 V -3.741583 H 1.8275911 v -2.5075605 h 1.297883 c 0.1260081,0 0.2394153,0.012601 0.3654234,0.012601 z M 9.7345971,8.5651882e-4 V -4.4220265 h -0.78125 v 2.8855846 c 0,0.75604842 -0.5544355,1.09627019 -1.1970766,1.09627019 -0.7056452,0 -0.7686492,-0.25201613 -0.7686492,-0.68044359 v -3.3014112 h -0.78125 v 3.3392137 c 0,0.71824593 0.2268145,1.19707658 1.0584677,1.19707658 0.5292339,0 1.2348791,-0.16381049 1.7263105,-0.59223791 V 8.5651882e-4 Z m 2.3658019,0 V -6.9169862 H 11.356951 V 8.5651882e-4 Z m 2.381552,0 V -6.9169862 H 13.738503 V 8.5651882e-4 Z M 0.27139147,14.400428 v -2.885585 c 0,-1.008064 -0.73084678,-1.7137093 -1.65070567,-1.7137093 -0.6426411,0 -1.0962701,0.1638105 -1.5625,0.4284273 l 0.063004,0.667843 c 0.516633,-0.378024 1.0080645,-0.504032 1.4994959,-0.504032 0.46622986,0 0.86945567,0.403225 0.86945567,1.134072 v 0.428428 c -1.49949597,0.0252 -2.75957657,0.441028 -2.75957657,1.323084 0,0.428428 0.2646169,1.234879 1.1340725,1.234879 0.1386089,0 1.0710686,-0.0252 1.65070568,-0.466229 v 0.352822 z m -0.78125,-1.310484 c 0,0.189012 0,0.428428 -0.34022178,0.61744 -0.28981859,0.189012 -0.66784279,0.189012 -0.78124999,0.189012 -0.4788307,0 -0.9198589,-0.226815 -0.9198589,-0.642641 0,-0.693045 1.61290325,-0.768649 2.04133067,-0.78125 z M 5.3022634,14.400428 V 7.4825853 H 4.5588159 V 10.418573 C 4.029582,9.977545 3.4751465,9.8641378 3.0971223,9.8641378 c -0.9828629,0 -1.7641129,1.0332662 -1.7641129,2.3185482 0,1.310484 0.7686492,2.331149 1.7263105,2.331149 0.327621,0 0.9072581,-0.08821 1.4742943,-0.63004 v 0.516633 z M 4.5336142,13.014339 c 0,0.138609 -0.012601,0.315021 -0.3402217,0.604839 -0.2268145,0.201613 -0.4662299,0.277218 -0.7308468,0.277218 -0.6174395,0 -1.3482863,-0.46623 -1.3482863,-1.701109 0,-1.310484 0.8568548,-1.726311 1.4490928,-1.726311 0.4410282,0 0.7434475,0.239416 0.970262,0.554436 z m 5.9192288,1.386089 V 7.4825853 H 9.7093955 V 10.418573 C 9.1801616,9.977545 8.6257261,9.8641378 8.2477019,9.8641378 c -0.9828629,0 -1.7641129,1.0332662 -1.7641129,2.3185482 0,1.310484 0.7686492,2.331149 1.7263105,2.331149 0.327621,0 0.9072581,-0.08821 1.4742944,-0.63004 v 0.516633 z M 9.6841939,13.014339 c 0,0.138609 -0.012601,0.315021 -0.3402218,0.604839 -0.2268145,0.201613 -0.4662298,0.277218 -0.7308468,0.277218 -0.6174395,0 -1.3482863,-0.46623 -1.3482863,-1.701109 0,-1.310484 0.8568549,-1.726311 1.4490928,-1.726311 0.4410282,0 0.7434476,0.239416 0.9702621,0.554436 z m 5.7176161,-0.79385 c 0,-0.340222 0,-1.08367 -0.390625,-1.688508 -0.415827,-0.61744 -1.020666,-0.7308473 -1.373488,-0.7308473 -1.108871,0 -2.003528,1.0584673 -2.003528,2.3437503 0,1.323084 0.957661,2.368951 2.154738,2.368951 0.617439,0 1.184475,-0.239415 1.5751,-0.516633 l -0.0504,-0.655242 c -0.63004,0.516633 -1.285282,0.554436 -1.524697,0.554436 -0.793851,0 -1.436492,-0.705645 -1.461694,-1.675907 z m -0.567036,-0.554436 h -2.457158 c 0.163811,-0.756048 0.693045,-1.24748 1.260081,-1.24748 0.516633,0 1.071068,0.327621 1.197077,1.24748 z m 4.133064,-1.134072 V 9.8641378 C 18.073181,9.8767386 17.531346,10.36817 17.216326,10.821799 V 9.914541 h -0.693044 v 4.485887 h 0.743447 v -2.129536 c 0,-0.995464 0.718246,-1.71371 1.701109,-1.738911 z m 0,0" style="fill:#ffffff;fill-opacity:1;fill-rule:nonzero;stroke:none" aria-label="Full&#10;adder" transform="matrix(1.24,0,0,1.24,346.48769,148.04191)" />
    <path id="path24" d="m 117.63776,-101.33908 h 45.35489 v 62.36298 h -45.35489 z" style="fill:#78a9ff;fill-opacity:1;fill-rule:nonzero;stroke:#78a9ff;stroke-width:0.59776;stroke-linecap:butt;stroke-linejoin:miter;stroke-miterlimit:10;stroke-dasharray:none;stroke-opacity:1" transform="matrix(1.24,0,0,-1.24,261.07153,113.85511)" />
    <path id="path25" d="M 5.2423915,-6.2380437 V -6.8932856 H 0.93291566 V -6.4448925e-4 H 1.8275729 V -3.1382453 H 4.8391657 V -3.743084 H 1.8275729 V -6.2506445 H 3.125456 c 0.126008,0 0.2394153,0.012601 0.3654234,0.012601 z M 9.734579,-6.4448925e-4 V -4.4235276 h -0.78125 v 2.8855847 c 0,0.75604841 -0.5544355,1.09627018 -1.1970766,1.09627018 -0.7056452,0 -0.7686492,-0.25201612 -0.7686492,-0.68044358 v -3.3014113 h -0.78125 v 3.3392138 c 0,0.71824592 0.2268145,1.19707657 1.0584677,1.19707657 0.5292339,0 1.234879,-0.16381049 1.7263105,-0.5922379 v 0.47883064075 z m 2.365801,0 V -6.9184872 h -0.743447 v 6.91784271075 z m 2.381553,0 V -6.9184872 H 13.738485 V -6.4448925e-4 Z M 0.27137332,14.398927 v -2.885585 c 0,-1.008064 -0.73084677,-1.7137093 -1.65070562,-1.7137093 -0.6426412,0 -1.0962702,0.1638105 -1.5625,0.4284273 l 0.063004,0.667843 c 0.5166331,-0.378024 1.0080645,-0.504032 1.499496,-0.504032 0.46622981,0 0.86945562,0.403225 0.86945562,1.134072 v 0.428428 c -1.49949592,0.0252 -2.75957662,0.441028 -2.75957662,1.323084 0,0.428428 0.2646169,1.234879 1.1340726,1.234879 0.1386089,0 1.0710685,-0.0252 1.65070563,-0.466229 v 0.352822 z m -0.78125,-1.310484 c 0,0.189012 0,0.428428 -0.34022177,0.61744 -0.28981855,0.189012 -0.66784275,0.189012 -0.78125005,0.189012 -0.4788306,0 -0.9198588,-0.226815 -0.9198588,-0.642641 0,-0.693045 1.6129032,-0.768649 2.04133062,-0.78125 z M 5.3022453,14.398927 V 7.4810843 H 4.5587977 V 10.417072 C 4.0295638,9.976044 3.4751284,9.8626368 3.0971042,9.8626368 c -0.9828629,0 -1.7641129,1.0332662 -1.7641129,2.3185482 0,1.310484 0.7686492,2.331149 1.7263104,2.331149 0.327621,0 0.9072581,-0.0882 1.4742944,-0.63004 v 0.516633 z M 4.5335961,13.012838 c 0,0.138609 -0.012601,0.315021 -0.3402218,0.604839 -0.2268145,0.201613 -0.4662298,0.277218 -0.7308467,0.277218 -0.6174396,0 -1.3482863,-0.46623 -1.3482863,-1.701109 0,-1.310484 0.8568548,-1.726311 1.4490927,-1.726311 0.4410282,0 0.7434476,0.239416 0.9702621,0.554436 z m 5.9192289,1.386089 V 7.4810843 H 9.7093774 V 10.417072 C 9.1801435,9.976044 8.625708,9.8626368 8.2476838,9.8626368 c -0.9828629,0 -1.7641129,1.0332662 -1.7641129,2.3185482 0,1.310484 0.7686492,2.331149 1.7263105,2.331149 0.327621,0 0.907258,-0.0882 1.4742943,-0.63004 v 0.516633 z M 9.6841757,13.012838 c 0,0.138609 -0.012601,0.315021 -0.3402217,0.604839 -0.2268146,0.201613 -0.4662299,0.277218 -0.7308468,0.277218 -0.6174395,0 -1.3482863,-0.46623 -1.3482863,-1.701109 0,-1.310484 0.8568548,-1.726311 1.4490927,-1.726311 0.4410283,0 0.7434476,0.239416 0.9702621,0.554436 z m 5.7176163,-0.79385 c 0,-0.340222 0,-1.08367 -0.390625,-1.688508 -0.415827,-0.61744 -1.020666,-0.7308473 -1.373488,-0.7308473 -1.108871,0 -2.003528,1.0584673 -2.003528,2.3437503 0,1.323084 0.957661,2.368951 2.154737,2.368951 0.61744,0 1.184476,-0.239415 1.575101,-0.516633 l -0.0504,-0.655242 c -0.63004,0.516633 -1.285282,0.554436 -1.524698,0.554436 -0.79385,0 -1.436491,-0.705645 -1.461693,-1.675907 z m -0.567037,-0.554436 h -2.457157 c 0.163811,-0.756048 0.693044,-1.24748 1.260081,-1.24748 0.516633,0 1.071068,0.327621 1.197076,1.24748 z M 18.96782,10.53048 V 9.8626368 c -0.894657,0.012601 -1.436492,0.5040322 -1.751512,0.9576612 V 9.91304 h -0.693045 v 4.485887 h 0.743448 v -2.129536 c 0,-0.995464 0.718246,-1.71371 1.701109,-1.738911 z m 0,0" style="fill:#ffffff;fill-opacity:1;fill-rule:nonzero;stroke:none" aria-label="Full&#10;adder" transform="matrix(1.24,0,0,1.24,425.57365,195.49299)" />
  </g>
</svg>