<?xml version='1.0' encoding='utf-8'?>
<svg xmlns="http://www.w3.org/2000/svg" xmlns:ns1="http://sodipodi.sourceforge.net/DTD/sodipodi-0.dtd" xmlns:ns2="http://www.inkscape.org/namespaces/inkscape" version="1.1" id="svg1" width="100%" height="auto" viewBox="-20.0 -20.0 484.39453 131.347037" ns1:docname="svg_fix_XXXXXX.svg">
  <rect id="path1" x="-20.0" y="-20.0" width="484.39453" height="131.347037" fill="white" /><ns1:namedview id="namedview1" pagecolor="#ffffff" bordercolor="#000000" borderopacity="0.25" ns2:showpageshadow="2" ns2:pageopacity="0.0" ns2:pagecheckerboard="0" ns2:deskcolor="#d1d1d1" />
  <defs id="defs1" />
  <g id="g1" transform="translate(-77.601555,-30.800347)">
    <path id="path2" d="M -68.0113,19.84267 H 75.098" style="fill:none;stroke:#121619;stroke-width:0.3985;stroke-linecap:butt;stroke-linejoin:miter;stroke-miterlimit:10;stroke-dasharray:none;stroke-opacity:1" transform="matrix(1.6,0,0,-1.6,260.45253,76.473867)" />
    <path id="path3" d="M -39.66449,0 H 75.098" style="fill:none;stroke:#121619;stroke-width:0.3985;stroke-linecap:butt;stroke-linejoin:miter;stroke-miterlimit:10;stroke-dasharray:none;stroke-opacity:1" transform="matrix(1.6,0,0,-1.6,260.45253,76.473867)" />
    <path id="path4" d="M -39.66449,-19.84267 H 75.098" style="fill:none;stroke:#121619;stroke-width:0.3985;stroke-linecap:butt;stroke-linejoin:miter;stroke-miterlimit:10;stroke-dasharray:none;stroke-opacity:1" transform="matrix(1.6,0,0,-1.6,260.45253,76.473867)" />
    <path id="path5" d="m -11.6827,19.84267 c 0,1.37558 -1.1151,2.49069 -2.49069,2.49069 -1.37558,0 -2.49069,-1.11511 -2.49069,-2.49069 0,-1.37558 1.11511,-2.4907 2.49069,-2.4907 1.37559,0 2.49069,1.11512 2.49069,2.4907 z" style="fill:#78a9ff;fill-opacity:1;fill-rule:nonzero;stroke:none" transform="matrix(1.6,0,0,-1.6,260.45253,76.473867)" />
    <path id="path6" d="m 16.66408,19.84267 c 0,1.37558 -1.11511,2.49069 -2.49069,2.49069 -1.37559,0 -2.49069,-1.11511 -2.49069,-2.49069 0,-1.37558 1.1151,-2.4907 2.49069,-2.4907 1.37558,0 2.49069,1.11512 2.49069,2.4907 z" style="fill:#78a9ff;fill-opacity:1;fill-rule:nonzero;stroke:none" transform="matrix(1.6,0,0,-1.6,260.45253,76.473867)" />
    <path id="path7" d="m -8.19572,0 c 0,3.3014 -2.67626,5.97766 -5.97767,5.97766 -3.30142,0 -5.97766,-2.67626 -5.97766,-5.97766 0,-3.3014 2.67624,-5.97766 5.97766,-5.97766 3.30141,0 5.97767,2.67626 5.97767,5.97766 z" style="fill:#78a9ff;fill-opacity:1;fill-rule:nonzero;stroke:#78a9ff;stroke-width:0.3985;stroke-linecap:butt;stroke-linejoin:miter;stroke-miterlimit:10;stroke-dasharray:none;stroke-opacity:1" transform="matrix(1.6,0,0,-1.6,260.45253,76.473867)" />
    <path id="path8" d="m 4.7070221,-7.8224479 v 3.4179687 H 1.2890534 v 0.9179688 h 3.4179687 v 3.41796873 H 5.6249909 V -3.4865104 H 9.033194 V -4.4044792 H 5.6249909 v -3.4179687 z m 0,0" style="fill:#ffffff;fill-opacity:1;fill-rule:nonzero;stroke:none" aria-label="+" transform="matrix(1.6,0,0,1.6,229.51173,82.734667)" />
    <path id="path9" d="m 20.15105,-19.84267 c 0,3.30143 -2.67624,5.97767 -5.97766,5.97767 -3.30141,0 -5.97767,-2.67624 -5.97767,-5.97767 0,-3.3014 2.67626,-5.97766 5.97767,-5.97766 3.30142,0 5.97766,2.67626 5.97766,5.97766 z" style="fill:#78a9ff;fill-opacity:1;fill-rule:nonzero;stroke:#78a9ff;stroke-width:0.3985;stroke-linecap:butt;stroke-linejoin:miter;stroke-miterlimit:10;stroke-dasharray:none;stroke-opacity:1" transform="matrix(1.6,0,0,-1.6,260.45253,76.473867)" />
    <path id="path10" d="m 4.7071901,-7.8216979 v 3.4179687 H 1.2892214 v 0.9179688 h 3.4179687 v 3.41796873 H 5.6251589 V -3.4857604 H 9.033362 V -4.4037292 H 5.6251589 v -3.4179687 z m 0,0" style="fill:#ffffff;fill-opacity:1;fill-rule:nonzero;stroke:none" aria-label="+" transform="matrix(1.6,0,0,1.6,274.86693,114.48347)" />
    <path id="path11" d="M -14.17339,19.84267 V 6.17691" style="fill:none;stroke:#78a9ff;stroke-width:0.79701;stroke-linecap:butt;stroke-linejoin:miter;stroke-miterlimit:10;stroke-dasharray:none;stroke-opacity:1" transform="matrix(1.6,0,0,-1.6,260.45253,76.473867)" />
    <path id="path12" d="M 14.17339,19.84267 V -13.66576" style="fill:none;stroke:#78a9ff;stroke-width:0.79701;stroke-linecap:butt;stroke-linejoin:miter;stroke-miterlimit:10;stroke-dasharray:none;stroke-opacity:1" transform="matrix(1.6,0,0,-1.6,260.45253,76.473867)" />
    <path id="path13" d="M 34.01617,11.33864 H 51.02423 V 28.3467 H 34.01617 Z" style="fill:#78a9ff;fill-opacity:1;fill-rule:nonzero;stroke:#78a9ff;stroke-width:0.3985;stroke-linecap:butt;stroke-linejoin:miter;stroke-miterlimit:10;stroke-dasharray:none;stroke-opacity:1" transform="matrix(1.6,0,0,-1.6,260.45253,76.473867)" />
    <path id="path14" d="m 6.3679089,-4.794819 c 0.078125,-0.3125 0.097656,-0.3808594 0.6542968,-0.3808594 0.1855469,0 0.2734375,0 0.2734375,-0.15625 0,-0.00977 0,-0.1074219 -0.1269531,-0.1074219 -0.15625,0 -0.3515625,0.00977 -0.4980469,0.019531 H 6.1725964 c -0.7714844,0 -0.9765625,-0.019531 -1.0351563,-0.019531 -0.029297,0 -0.15625,0 -0.15625,0.1464844 0,0.1171875 0.1074219,0.1171875 0.234375,0.1171875 0.2636719,0 0.4882813,0 0.4882813,0.1269531 0,0.029297 -0.00977,0.039063 -0.029297,0.1367188 L 5.1960339,-2.9686471 H 2.6276745 l 0.46875,-1.8554688 c 0.068359,-0.2832031 0.087891,-0.3515625 0.6640625,-0.3515625 0.15625,0 0.2539062,0 0.2539062,-0.15625 0,-0.00977 -0.00977,-0.1074219 -0.1367187,-0.1074219 -0.1464844,0 -0.3417969,0.00977 -0.4882813,0.019531 H 2.8815807 c -0.7617187,0 -0.9667968,-0.019531 -1.0253906,-0.019531 -0.029297,0 -0.15625,0 -0.15625,0.1464844 0,0.1171875 0.097656,0.1171875 0.2246094,0.1171875 0.2636719,0 0.4980469,0 0.4980469,0.1269531 0,0.029297 -0.00977,0.039063 -0.029297,0.1367188 l -1.0742188,4.28710936 c -0.068359,0.30273438 -0.087891,0.36132813 -0.6738281,0.36132813 -0.14648437,0 -0.24414062,0 -0.24414062,0.15625 0,0.02929687 0.0195313,0.10742187458 0.12695312,0.10742187458 0.14648438,0 0.34179688,-0.0195312546 0.4882813,-0.0195312546 h 0.5175781 c 0.7617187,0 0.9667969,0.0195312546 1.0253906,0.0195312546 0.048828,0 0.15625,0 0.15625,-0.15625000458 0,-0.10742187 -0.097656,-0.10742187 -0.234375,-0.10742187 -0.029297,0 -0.1660156,0 -0.3027344,-0.0195313 -0.1660156,-0.009766 -0.1855468,-0.0390625 -0.1855468,-0.10742188 0,-0.0390625 0.019531,-0.0878906 0.019531,-0.12695312 l 0.546875,-2.18750009 h 2.5683594 c -0.234375,0.9472657 -0.546875,2.18750009 -0.5566406,2.18750009 -0.068359,0.24414062 -0.2148438,0.24414062 -0.6933594,0.25390625 -0.087891,0 -0.1953125,0 -0.1953125,0.15625 0,0.02929687 0.019531,0.10742187458 0.1269531,0.10742187458 0.15625,0 0.3417969,-0.0195312546 0.4980469,-0.0195312546 h 0.5078125 c 0.7617187,0 0.9667969,0.0195312546 1.0253906,0.0195312546 0.048828,0 0.15625,0 0.15625,-0.15625000458 0,-0.10742187 -0.097656,-0.10742187 -0.234375,-0.10742187 -0.019531,0 -0.1660156,0 -0.3027344,-0.0195313 -0.1660156,-0.009766 -0.1855468,-0.0390625 -0.1855468,-0.10742188 0,-0.0390625 0.019531,-0.0878906 0.029297,-0.12695312 z m 0,0" style="fill:#ffffff;fill-opacity:1;fill-rule:nonzero;stroke:none" aria-label="H" transform="matrix(1.6,0,0,1.6,322.42853,49.081867)" />
    <path id="path15" d="M 34.01617,-8.50403 H 51.02423 V 8.50403 H 34.01617 Z" style="fill:#78a9ff;fill-opacity:1;fill-rule:nonzero;stroke:#78a9ff;stroke-width:0.3985;stroke-linecap:butt;stroke-linejoin:miter;stroke-miterlimit:10;stroke-dasharray:none;stroke-opacity:1" transform="matrix(1.6,0,0,-1.6,260.45253,76.473867)" />
    <path id="path16" d="m 6.3679089,-4.794069 c 0.078125,-0.3125 0.097656,-0.3808594 0.6542968,-0.3808594 0.1855469,0 0.2734375,0 0.2734375,-0.15625 0,-0.00977 0,-0.1074219 -0.1269531,-0.1074219 -0.15625,0 -0.3515625,0.00977 -0.4980469,0.019531 H 6.1725964 c -0.7714844,0 -0.9765625,-0.019531 -1.0351563,-0.019531 -0.029297,0 -0.15625,0 -0.15625,0.1464844 0,0.1171875 0.1074219,0.1171875 0.234375,0.1171875 0.2636719,0 0.4882813,0 0.4882813,0.1269531 0,0.029297 -0.00977,0.039063 -0.029297,0.1367188 L 5.1960339,-2.9678971 H 2.6276745 l 0.46875,-1.8554688 c 0.068359,-0.2832031 0.087891,-0.3515625 0.6640625,-0.3515625 0.15625,0 0.2539062,0 0.2539062,-0.15625 0,-0.00977 -0.00977,-0.1074219 -0.1367187,-0.1074219 -0.1464844,0 -0.3417969,0.00977 -0.4882813,0.019531 H 2.8815807 c -0.7617187,0 -0.9667968,-0.019531 -1.0253906,-0.019531 -0.029297,0 -0.15625,0 -0.15625,0.1464844 0,0.1171875 0.097656,0.1171875 0.2246094,0.1171875 0.2636719,0 0.4980469,0 0.4980469,0.1269531 0,0.029297 -0.00977,0.039063 -0.029297,0.1367188 l -1.0742188,4.28710936 c -0.068359,0.30273438 -0.087891,0.36132813 -0.6738281,0.36132813 -0.14648437,0 -0.24414062,0 -0.24414062,0.15625 0,0.02929687 0.0195313,0.10742187458 0.12695312,0.10742187458 0.14648438,0 0.34179688,-0.0195312546 0.4882813,-0.0195312546 h 0.5175781 c 0.7617187,0 0.9667969,0.0195312546 1.0253906,0.0195312546 0.048828,0 0.15625,0 0.15625,-0.15625000458 0,-0.10742187 -0.097656,-0.10742187 -0.234375,-0.10742187 -0.029297,0 -0.1660156,0 -0.3027344,-0.0195313 -0.1660156,-0.009766 -0.1855468,-0.0390625 -0.1855468,-0.10742188 0,-0.0390625 0.019531,-0.0878906 0.019531,-0.12695312 l 0.546875,-2.18750009 h 2.5683594 c -0.234375,0.9472657 -0.546875,2.18750009 -0.5566406,2.18750009 -0.068359,0.24414062 -0.2148438,0.24414062 -0.6933594,0.25390625 -0.087891,0 -0.1953125,0 -0.1953125,0.15625 0,0.02929687 0.019531,0.10742187458 0.1269531,0.10742187458 0.15625,0 0.3417969,-0.0195312546 0.4980469,-0.0195312546 h 0.5078125 c 0.7617187,0 0.9667969,0.0195312546 1.0253906,0.0195312546 0.048828,0 0.15625,0 0.15625,-0.15625000458 0,-0.10742187 -0.097656,-0.10742187 -0.234375,-0.10742187 -0.019531,0 -0.1660156,0 -0.3027344,-0.0195313 -0.1660156,-0.009766 -0.1855468,-0.0390625 -0.1855468,-0.10742188 0,-0.0390625 0.019531,-0.0878906 0.029297,-0.12695312 z m 0,0" style="fill:#ffffff;fill-opacity:1;fill-rule:nonzero;stroke:none" aria-label="H" transform="matrix(1.6,0,0,1.6,322.42853,80.830667)" />
    <path id="path17" d="m 34.01617,-28.3467 h 17.00806 v 17.00806 H 34.01617 Z" style="fill:#78a9ff;fill-opacity:1;fill-rule:nonzero;stroke:#78a9ff;stroke-width:0.3985;stroke-linecap:butt;stroke-linejoin:miter;stroke-miterlimit:10;stroke-dasharray:none;stroke-opacity:1" transform="matrix(1.6,0,0,-1.6,260.45253,76.473867)" />
    <path id="path18" d="m 6.3679089,-4.7957604 c 0.078125,-0.3125 0.097656,-0.3808594 0.6542968,-0.3808594 0.1855469,0 0.2734375,0 0.2734375,-0.15625 0,-0.00977 0,-0.1074219 -0.1269531,-0.1074219 -0.15625,0 -0.3515625,0.00977 -0.4980469,0.019531 H 6.1725964 c -0.7714844,0 -0.9765625,-0.019531 -1.0351563,-0.019531 -0.029297,0 -0.15625,0 -0.15625,0.1464844 0,0.1171875 0.1074219,0.1171875 0.234375,0.1171875 0.2636719,0 0.4882813,0 0.4882813,0.1269531 0,0.029297 -0.00977,0.039063 -0.029297,0.1367188 L 5.1960339,-2.9695885 H 2.6276745 l 0.46875,-1.8554688 c 0.068359,-0.2832031 0.087891,-0.3515625 0.6640625,-0.3515625 0.15625,0 0.2539062,0 0.2539062,-0.15625 0,-0.00977 -0.00977,-0.1074219 -0.1367187,-0.1074219 -0.1464844,0 -0.3417969,0.00977 -0.4882813,0.019531 H 2.8815807 c -0.7617187,0 -0.9667968,-0.019531 -1.0253906,-0.019531 -0.029297,0 -0.15625,0 -0.15625,0.1464844 0,0.1171875 0.097656,0.1171875 0.2246094,0.1171875 0.2636719,0 0.4980469,0 0.4980469,0.1269531 0,0.029297 -0.00977,0.039063 -0.029297,0.1367188 l -1.0742188,4.28710936 c -0.068359,0.30273437 -0.087891,0.36132812 -0.6738281,0.36132812 -0.14648437,0 -0.24414062,0 -0.24414062,0.15625 0,0.02929688 0.0195313,0.10742187833 0.12695312,0.10742187833 0.14648438,0 0.34179688,-0.0195312483 0.4882813,-0.0195312483 h 0.5175781 c 0.7617187,0 0.9667969,0.0195312483 1.0253906,0.0195312483 0.048828,0 0.15625,0 0.15625,-0.15624999833 0,-0.10742188 -0.097656,-0.10742188 -0.234375,-0.10742188 -0.029297,0 -0.1660156,0 -0.3027344,-0.0195313 -0.1660156,-0.009766 -0.1855468,-0.0390625 -0.1855468,-0.10742187 0,-0.0390625 0.019531,-0.0878906 0.019531,-0.12695313 l 0.546875,-2.18750008 h 2.5683594 c -0.234375,0.9472657 -0.546875,2.18750008 -0.5566406,2.18750008 -0.068359,0.24414063 -0.2148438,0.24414063 -0.6933594,0.25390625 -0.087891,0 -0.1953125,0 -0.1953125,0.15625 0,0.02929688 0.019531,0.10742187833 0.1269531,0.10742187833 0.15625,0 0.3417969,-0.0195312483 0.4980469,-0.0195312483 h 0.5078125 c 0.7617187,0 0.9667969,0.0195312483 1.0253906,0.0195312483 0.048828,0 0.15625,0 0.15625,-0.15624999833 0,-0.10742188 -0.097656,-0.10742188 -0.234375,-0.10742188 -0.019531,0 -0.1660156,0 -0.3027344,-0.0195313 -0.1660156,-0.009766 -0.1855468,-0.0390625 -0.1855468,-0.10742187 0,-0.0390625 0.019531,-0.0878906 0.029297,-0.12695313 z m 0,0" style="fill:#ffffff;fill-opacity:1;fill-rule:nonzero;stroke:none" aria-label="H" transform="matrix(1.6,0,0,1.6,322.42853,112.57947)" />
    <g id="g18" aria-label="α∣0⟩+β∣1⟩" transform="matrix(1.6,0,0,1.6,77.038133,48.232267)">
      <path id="path19" d="m 4.0630807,-1.1144049 c 0.7421875,-0.8105469 1.0058594,-1.8554688 1.0058594,-1.9140625 0,-0.068359 -0.048828,-0.1074219 -0.1171875,-0.1074219 -0.1074219,0 -0.1171875,0.039063 -0.1660156,0.2050781 -0.2148438,0.8105469 -0.6933594,1.4355469 -0.7226563,1.4355469 -0.00977,0 -0.00977,-0.2050781 -0.00977,-0.3320313 -0.019531,-1.3964843 -0.9277344,-1.6894531 -1.4746094,-1.6894531 -1.1230468,0 -2.22656247,1.09375 -2.22656247,2.2167969 0,0.7910156 0.546875,1.3769531 1.39648437,1.3769531 0.5566406,0 1.1425781,-0.1953125 1.7773438,-0.6640625 0.1757812,0.625 0.6347656,0.6640625 0.78125,0.6640625 0.4492187,0 0.7128906,-0.40039062 0.7128906,-0.55664062 0,-0.0976563 -0.097656,-0.0976563 -0.1171875,-0.0976563 -0.087891,0 -0.1074219,0.0292969 -0.1269531,0.078125 -0.1269532,0.34179687 -0.4003907,0.3515625 -0.4394532,0.3515625 -0.1171875,0 -0.2441406,0 -0.2734375,-0.96679688 z m -0.5957031,0.26367183 c -0.5664062,0.5078125 -1.2402344,0.703125 -1.6992187,0.703125 -0.4101563,0 -0.77148442,-0.234375 -0.77148442,-0.86914063 0,-0.2832031 0.12695312,-1.1035156 0.49804692,-1.640625 0.3222656,-0.4394531 0.7519531,-0.6347656 1.0839843,-0.6347656 0.4296875,0 0.6835938,0.3125 0.78125,0.8007812 0.1269532,0.5371094 0.058594,1.171875 0.1074219,1.64062503 z m 0,0" style="fill:#121619;fill-opacity:1;fill-rule:nonzero;stroke:none" />
      <path id="path20" d="m 6.6314401,-6.0948737 v 7.8027344 h 0.5175781 v -7.8027344 z m 0,0" style="fill:#121619;fill-opacity:1;fill-rule:nonzero;stroke:none" />
      <path id="path21" d="m 12.236909,-2.5401862 c 0,-0.859375 -0.08789,-1.3769531 -0.351563,-1.8847656 -0.351562,-0.703125 -0.996093,-0.8789063 -1.435547,-0.8789063 -1.0058589,0 -1.367187,0.7519532 -1.4843745,0.9765625 -0.2832031,0.5761719 -0.3027344,1.3671875 -0.3027344,1.7871094 0,0.5273438 0.029297,1.328125 0.4101563,1.96289063 0.3710937,0.59570312 0.9570316,0.7421875 1.3769526,0.7421875 0.38086,0 1.074219,-0.1171875 1.464844,-0.90820313 0.302735,-0.5761719 0.322266,-1.2792969 0.322266,-1.796875 z m -1.78711,2.48046875 c -0.273437,0 -0.820312,-0.12695312 -0.9863276,-0.95703125 -0.087891,-0.4589844 -0.087891,-1.2109375 -0.087891,-1.6210937 0,-0.546875 0,-1.1132813 0.087891,-1.5429688 0.1660156,-0.8203125 0.7910156,-0.8984375 0.9863276,-0.8984375 0.273438,0 0.820313,0.1367188 0.986329,0.859375 0.08789,0.4394531 0.08789,1.0351563 0.08789,1.5820313 0,0.46875 0,1.1816406 -0.08789,1.6308593 -0.175782,0.83984378 -0.722657,0.94726565 -0.986329,0.94726565 z m 0,0" style="fill:#121619;fill-opacity:1;fill-rule:nonzero;stroke:none" />
      <path id="path22" d="m 13.78476,1.7957513 1.435547,-3.984375 -1.435547,-3.9941406 -0.478515,0.1757812 1.435547,3.8183594 -1.435547,3.8085938 z m 0,0" style="fill:#121619;fill-opacity:1;fill-rule:nonzero;stroke:none" />
      <path id="path23" d="m 20.342378,-4.3468268 v 1.8945312 h -1.904297 v 0.5175782 h 1.904297 v 1.8945312 h 0.507812 v -1.8945312 h 1.894531 V -2.4522956 H 20.85019 v -1.8945312 z m 0,0" style="fill:#121619;fill-opacity:1;fill-rule:nonzero;stroke:none" />
      <path id="path24" d="m 30.020112,-4.5323737 c 0,-0.7324219 -0.595703,-1.0839844 -1.259766,-1.0839844 -1.02539,0 -1.787109,1.1621094 -2.011718,2.0410157 l -1.259766,5.0292968 c -0.01953,0.048828 0.04883,0.087891 0.09766,0.087891 0.05859,0 0.126953,0 0.146485,-0.048828 l 0.537109,-2.13867185 c 0.185547,0.4296875 0.556641,0.71289063 1.132812,0.71289063 1.103516,0 2.304688,-0.78125 2.304688,-2.04101558 0,-0.5273438 -0.205078,-0.8789063 -0.595703,-1.2109375 0.03906,0 0.185547,-0.1074219 0.224609,-0.1367188 0.400391,-0.2734375 0.683594,-0.7324219 0.683594,-1.2109375 z m -1.572266,1.3476563 c -0.146484,0.029297 -0.292968,0.039063 -0.439453,0.039063 -0.08789,0 -0.175781,0 -0.263672,-0.029297 0.15625,-0.039063 0.3125,-0.039063 0.458985,-0.039063 0.08789,0 0.166015,0.00977 0.24414,0.029297 z m 1.064453,-1.5039063 c 0,0.4003906 -0.175781,0.8691406 -0.449218,1.1523438 -0.03906,0.039063 -0.214844,0.1855468 -0.253907,0.1953125 -0.224609,-0.039063 -0.40039,-0.097656 -0.634765,-0.097656 -0.205078,0 -0.712891,-0.00977 -0.712891,0.2929688 0,0.2441406 0.458985,0.2246093 0.615235,0.2246093 0.253906,0 0.478515,-0.019531 0.71289,-0.1074218 0.234375,0.1953125 0.361328,0.4492187 0.361328,0.8398437 0,0.4785156 -0.166015,0.9960938 -0.390625,1.31835938 -0.302734,0.41992187 -0.791015,0.71289062 -1.386718,0.71289062 -0.527344,0 -0.947266,-0.40039062 -0.947266,-0.9570312 0,-0.1074219 0.0098,-0.2050782 0.03906,-0.2929688 l 0.527344,-2.1191406 c 0.166016,-0.6933594 0.84961,-1.8652344 1.738281,-1.8652344 0.410157,0 0.78125,0.1953125 0.78125,0.703125 z m 0,0" style="fill:#121619;fill-opacity:1;fill-rule:nonzero;stroke:none" />
      <path id="path25" d="m 31.587495,-6.0948737 v 7.8027344 h 0.517578 v -7.8027344 z m 0,0" style="fill:#121619;fill-opacity:1;fill-rule:nonzero;stroke:none" />
      <path id="path26" d="m 35.796479,-5.0792487 c 0,-0.2148437 -0.0098,-0.2246094 -0.224609,-0.2246094 -0.332031,0.3222657 -0.751953,0.5175782 -1.513672,0.5175782 v 0.2636718 c 0.214844,0 0.644531,0 1.113281,-0.2246093 v 4.09179683 c 0,0.29296875 -0.0293,0.390625 -0.78125,0.390625 h -0.283203 v 0.26367187 c 0.332031,-0.01953125 1.015625,-0.01953125 1.376953,-0.01953125 0.351563,0 1.044922,0 1.376953,0.01953125 v -0.26367187 h -0.283203 c -0.751953,0 -0.78125,-0.0976563 -0.78125,-0.390625 z m 0,0" style="fill:#121619;fill-opacity:1;fill-rule:nonzero;stroke:none" />
      <path id="path27" d="m 38.740815,1.7957513 1.435547,-3.984375 -1.435547,-3.9941406 -0.478516,0.1757812 1.435547,3.8183594 -1.435547,3.8085938 z m 0,0" style="fill:#121619;fill-opacity:1;fill-rule:nonzero;stroke:none" />
    </g>
    <g id="g27" aria-label="∣0⟩" transform="matrix(1.6,0,0,1.6,171.02693,79.981067)">
      <path id="path28" d="m 1.1916628,-6.0941237 v 7.8027344 h 0.5175781 v -7.8027344 z m 0,0" style="fill:#121619;fill-opacity:1;fill-rule:nonzero;stroke:none" />
      <path id="path29" d="m 6.7971315,-2.5394362 c 0,-0.859375 -0.087891,-1.3769531 -0.3515625,-1.8847656 -0.3515625,-0.703125 -0.9960937,-0.8789063 -1.4355469,-0.8789063 -1.0058593,0 -1.3671875,0.7519532 -1.484375,0.9765625 -0.2832031,0.5761719 -0.3027343,1.3671875 -0.3027343,1.7871094 0,0.5273438 0.029297,1.328125 0.4101562,1.96289063 0.3710938,0.59570312 0.9570313,0.7421875 1.3769531,0.7421875 0.3808594,0 1.0742188,-0.1171875 1.4648438,-0.90820313 0.3027344,-0.5761719 0.3222656,-1.2792969 0.3222656,-1.796875 z m -1.7871094,2.48046875 c -0.2734375,0 -0.8203125,-0.12695312 -0.9863281,-0.95703125 -0.087891,-0.4589844 -0.087891,-1.2109375 -0.087891,-1.6210937 0,-0.546875 0,-1.1132813 0.087891,-1.5429688 0.1660156,-0.8203125 0.7910156,-0.8984375 0.9863281,-0.8984375 0.2734375,0 0.8203125,0.1367188 0.9863282,0.859375 0.087891,0.4394531 0.087891,1.0351563 0.087891,1.5820313 0,0.46875 0,1.1816406 -0.087891,1.6308593 -0.1757813,0.83984378 -0.7226563,0.94726565 -0.9863282,0.94726565 z m 0,0" style="fill:#121619;fill-opacity:1;fill-rule:nonzero;stroke:none" />
      <path id="path30" d="m 8.3449831,1.7965013 1.4355468,-3.984375 -1.4355468,-3.9941406 -0.4785157,0.1757812 1.4355469,3.8183594 -1.4355469,3.8085938 z m 0,0" style="fill:#121619;fill-opacity:1;fill-rule:nonzero;stroke:none" />
    </g>
    <g id="g30" aria-label="∣0⟩" transform="matrix(1.6,0,0,1.6,171.02693,111.72827)">
      <path id="path31" d="m 1.1916628,-6.0948151 v 7.8027344 h 0.5175781 v -7.8027344 z m 0,0" style="fill:#121619;fill-opacity:1;fill-rule:nonzero;stroke:none" />
      <path id="path32" d="m 6.7971315,-2.5401276 c 0,-0.859375 -0.087891,-1.3769531 -0.3515625,-1.8847656 -0.3515625,-0.703125 -0.9960937,-0.8789063 -1.4355469,-0.8789063 -1.0058593,0 -1.3671875,0.7519531 -1.484375,0.9765625 -0.2832031,0.5761719 -0.3027343,1.3671875 -0.3027343,1.7871094 0,0.5273437 0.029297,1.328125 0.4101562,1.96289062 0.3710938,0.59570313 0.9570313,0.7421875 1.3769531,0.7421875 0.3808594,0 1.0742188,-0.1171875 1.4648438,-0.90820312 0.3027344,-0.5761719 0.3222656,-1.2792969 0.3222656,-1.796875 z m -1.7871094,2.48046875 c -0.2734375,0 -0.8203125,-0.12695313 -0.9863281,-0.95703125 -0.087891,-0.4589844 -0.087891,-1.2109375 -0.087891,-1.6210938 0,-0.546875 0,-1.1132812 0.087891,-1.5429687 0.1660156,-0.8203125 0.7910156,-0.8984375 0.9863281,-0.8984375 0.2734375,0 0.8203125,0.1367187 0.9863282,0.859375 0.087891,0.4394531 0.087891,1.0351562 0.087891,1.5820312 0,0.46875 0,1.1816407 -0.087891,1.6308594 -0.1757813,0.83984377 -0.7226563,0.94726565 -0.9863282,0.94726565 z m 0,0" style="fill:#121619;fill-opacity:1;fill-rule:nonzero;stroke:none" />
      <path id="path33" d="m 8.3449831,1.7958099 1.4355468,-3.984375 -1.4355468,-3.9941406 -0.4785157,0.1757812 1.4355469,3.8183594 -1.4355469,3.8085937 z m 0,0" style="fill:#121619;fill-opacity:1;fill-rule:nonzero;stroke:none" />
    </g>
    <g id="g33" aria-label="⎫&#10;⎪&#10;⎪&#10;⎪&#10;⎪&#10;⎪&#10;⎪&#10;⎪&#10;⎬&#10;⎪&#10;⎪&#10;⎪&#10;⎪&#10;⎪&#10;⎪&#10;⎪&#10;⎭&#10;α∣+++⟩+β∣−−−⟩" transform="matrix(1.6,0,0,1.6,391.65893,46.419467)">
      <path id="path34" d="m 0.71365495,-4.5321862 v 0.4199219 c 0.73242185,0 1.37695315,0.4882812 1.37695315,1.171875 V 0.40922005 H 2.5984206 V -2.9403893 c 0,-0.9375 -0.8886719,-1.5917969 -1.88476565,-1.5917969 z M 2.0906081,-0.17427604 V 2.6772865 h 0.5078125 v -2.85156254 z m 0,2.34375004 V 5.0210365 H 2.5984206 V 2.169474 Z m 0,2.34375 V 7.3647865 H 2.5984206 V 4.513224 Z m 0,2.3413086 V 9.7060951 H 2.5984206 V 6.8545326 Z m 0,2.34375 V 12.049845 H 2.5984206 V 9.1982826 Z m 0,2.3437504 v 2.851562 h 0.5078125 v -2.851562 z m 0,2.34375 v 2.851562 h 0.5078125 v -2.851562 z m 0,7.539062 h 0.5078125 v -1.259766 c 0,-0.644531 0.6152343,-1.074218 1.2890625,-1.113281 h 0.087891 v -0.458984 c -0.7128906,0 -1.3769531,-0.449219 -1.3769531,-1.113281 v -1.25 H 2.0906081 v 1.259765 c 0,0.595703 0.3613281,1.064453 0.8886718,1.337891 -0.5273437,0.263672 -0.8886718,0.742187 -0.8886718,1.347656 z m 0,-0.585937 v 2.851562 h 0.5078125 v -2.851562 z m 0,2.34375 v 2.851562 h 0.5078125 v -2.851562 z m 0,2.34375 v 2.851562 h 0.5078125 v -2.851562 z m 0,2.34375 v 2.851562 h 0.5078125 v -2.851562 z m 0,2.34375 v 2.851562 h 0.5078125 v -2.851562 z m 0,2.341308 v 2.851563 h 0.5078125 v -2.851563 z m 0,2.34375 v 2.851563 h 0.5078125 v -2.851563 z m -1.37695315,6.855469 v 0.429687 c 0.99609375,0 1.88476565,-0.664062 1.88476565,-1.611328 V 37.242716 H 2.0906081 v 3.339844 c 0,0.683594 -0.6445313,1.171875 -1.37695315,1.171875 z m 0,0" style="fill:#121619;fill-opacity:1;fill-rule:nonzero;stroke:none" />
      <path id="path35" d="m 12.300569,19.862345 c 0.742188,-0.810547 1.005859,-1.855469 1.005859,-1.914062 0,-0.06836 -0.04883,-0.107422 -0.117187,-0.107422 -0.107422,0 -0.117188,0.03906 -0.166016,0.205078 -0.214843,0.810547 -0.693359,1.435547 -0.722656,1.435547 -0.0098,0 -0.0098,-0.205078 -0.0098,-0.332032 -0.01953,-1.396484 -0.927734,-1.689453 -1.474609,-1.689453 -1.1230469,0 -2.2265625,1.09375 -2.2265625,2.216797 0,0.791016 0.546875,1.376953 1.3964844,1.376953 0.5566411,0 1.1425781,-0.195312 1.7773441,-0.664062 0.175781,0.625 0.634765,0.664062 0.78125,0.664062 0.449218,0 0.71289,-0.40039 0.71289,-0.55664 0,-0.09766 -0.09766,-0.09766 -0.117187,-0.09766 -0.08789,0 -0.107422,0.0293 -0.126953,0.07813 -0.126953,0.341797 -0.400391,0.351563 -0.439453,0.351563 -0.117188,0 -0.244141,0 -0.273438,-0.966797 z m -0.595703,0.263672 c -0.566406,0.507812 -1.240234,0.703125 -1.699219,0.703125 -0.4101561,0 -0.7714842,-0.234375 -0.7714842,-0.869141 0,-0.283203 0.1269531,-1.103515 0.4980468,-1.640625 0.3222654,-0.439453 0.7519534,-0.634765 1.0839844,-0.634765 0.429688,0 0.683594,0.3125 0.78125,0.800781 0.126953,0.537109 0.05859,1.171875 0.107422,1.640625 z m 0,0" style="fill:#121619;fill-opacity:1;fill-rule:nonzero;stroke:none" />
      <path id="path36" d="m 14.866487,14.881876 v 7.802735 h 0.517578 v -7.802735 z m 0,0" style="fill:#121619;fill-opacity:1;fill-rule:nonzero;stroke:none" />
      <path id="path37" d="m 19.1951,16.629923 v 1.894531 h -1.904297 v 0.517579 H 19.1951 v 1.894531 h 0.507813 v -1.894531 h 1.894531 v -0.517579 h -1.894531 v -1.894531 z m 7.507324,0 v 1.894531 h -1.904296 v 0.517579 h 1.904296 v 1.894531 h 0.507813 v -1.894531 h 1.894531 v -0.517579 h -1.894531 v -1.894531 z m 7.507325,0 v 1.894531 h -1.904297 v 0.517579 h 1.904297 v 1.894531 h 0.507812 v -1.894531 h 1.894531 v -0.517579 h -1.894531 v -1.894531 z m 0,0" style="fill:#121619;fill-opacity:1;fill-rule:nonzero;stroke:none" />
      <path id="path38" d="m 38.545686,22.772501 1.435547,-3.984375 -1.435547,-3.99414 -0.478515,0.175781 1.435546,3.818359 -1.435546,3.808594 z m 0,0" style="fill:#121619;fill-opacity:1;fill-rule:nonzero;stroke:none" />
      <path id="path39" d="m 45.103303,16.629923 v 1.894531 h -1.904296 v 0.517579 h 1.904296 v 1.894531 h 0.507813 v -1.894531 h 1.894531 v -0.517579 h -1.894531 v -1.894531 z m 0,0" style="fill:#121619;fill-opacity:1;fill-rule:nonzero;stroke:none" />
      <path id="path40" d="m 54.781038,16.444376 c 0,-0.732422 -0.595703,-1.083984 -1.259766,-1.083984 -1.02539,0 -1.787109,1.162109 -2.011719,2.041016 l -1.259765,5.029296 c -0.01953,0.04883 0.04883,0.08789 0.09766,0.08789 0.05859,0 0.126953,0 0.146484,-0.04883 l 0.53711,-2.138672 c 0.185547,0.429688 0.55664,0.712891 1.132812,0.712891 1.103516,0 2.304688,-0.78125 2.304688,-2.041016 0,-0.527344 -0.205078,-0.878906 -0.595703,-1.210937 0.03906,0 0.185547,-0.107422 0.224609,-0.136719 0.400391,-0.273438 0.683594,-0.732422 0.683594,-1.210938 z m -1.572266,1.347657 c -0.146484,0.0293 -0.292969,0.03906 -0.439453,0.03906 -0.08789,0 -0.175781,0 -0.263672,-0.0293 0.15625,-0.03906 0.3125,-0.03906 0.458985,-0.03906 0.08789,0 0.166015,0.0098 0.24414,0.0293 z m 1.064453,-1.503907 c 0,0.400391 -0.175781,0.869141 -0.449218,1.152344 -0.03906,0.03906 -0.214844,0.185547 -0.253907,0.195313 -0.224609,-0.03906 -0.40039,-0.09766 -0.634765,-0.09766 -0.205078,0 -0.712891,-0.0098 -0.712891,0.292969 0,0.244141 0.458984,0.224609 0.615234,0.224609 0.253907,0 0.478516,-0.01953 0.712891,-0.107421 0.234375,0.195312 0.361328,0.449218 0.361328,0.839843 0,0.478516 -0.166015,0.996094 -0.390625,1.31836 -0.302734,0.419922 -0.791015,0.71289 -1.386719,0.71289 -0.527343,0 -0.947265,-0.40039 -0.947265,-0.957031 0,-0.107422 0.0098,-0.205078 0.03906,-0.292969 l 0.527344,-2.11914 c 0.166016,-0.69336 0.849609,-1.865235 1.738281,-1.865235 0.410157,0 0.78125,0.195313 0.78125,0.703125 z m 0,0" style="fill:#121619;fill-opacity:1;fill-rule:nonzero;stroke:none" />
      <path id="path41" d="m 56.348421,14.881876 v 7.802735 h 0.517578 v -7.802735 z m 0,0" style="fill:#121619;fill-opacity:1;fill-rule:nonzero;stroke:none" />
      <path id="path42" d="m 63.076936,18.524454 h -4.30664 v 0.517579 h 4.30664 z m 7.507324,0 h -4.30664 v 0.517579 h 4.30664 z m 7.509766,0 h -4.306641 v 0.517579 h 4.306641 z m 0,0" style="fill:#121619;fill-opacity:1;fill-rule:nonzero;stroke:none" />
      <path id="path43" d="m 80.025178,22.772501 1.435547,-3.984375 -1.435547,-3.99414 -0.478515,0.175781 1.435547,3.818359 -1.435547,3.808594 z m 0,0" style="fill:#121619;fill-opacity:1;fill-rule:nonzero;stroke:none" />
    </g>
  </g>
</svg>