<?xml version='1.0' encoding='utf-8'?>
<svg xmlns="http://www.w3.org/2000/svg" xmlns:ns1="http://sodipodi.sourceforge.net/DTD/sodipodi-0.dtd" xmlns:ns2="http://www.inkscape.org/namespaces/inkscape" version="1.1" id="svg1" width="100%" height="auto" viewBox="-20.0 -20.0 437.91348 203.0164" ns1:docname="svg_fix_XXXXXX.svg">
  <rect id="path1" x="-20.0" y="-20.0" width="437.91348" height="203.0164" fill="white" /><ns1:namedview id="namedview1" pagecolor="#ffffff" bordercolor="#000000" borderopacity="0.25" ns2:showpageshadow="2" ns2:pageopacity="0.0" ns2:pagecheckerboard="0" ns2:deskcolor="#d1d1d1" />
  <defs id="defs1" />
  <g id="g1" transform="translate(-100.86693,-31.098128)">
    <path id="path2" d="m 59.52812,-28.3467 h 17.00806 v 17.00806 H 59.52812 Z" style="fill:#000000;fill-opacity:1;fill-rule:nonzero;stroke:#000000;stroke-width:0.3985;stroke-linecap:butt;stroke-linejoin:miter;stroke-miterlimit:10;stroke-dasharray:none;stroke-opacity:1" transform="matrix(1.8,0,0,-1.8,274.31153,107.015)" />
    <path id="path3" d="m 59.52812,-48.18938 h 17.00806 v 17.00806 H 59.52812 Z" style="fill:#000000;fill-opacity:1;fill-rule:nonzero;stroke:#000000;stroke-width:0.3985;stroke-linecap:butt;stroke-linejoin:miter;stroke-miterlimit:10;stroke-dasharray:none;stroke-opacity:1" transform="matrix(1.8,0,0,-1.8,274.31153,107.015)" />
    <path id="path4" d="m 73.70143,-22.39377 c 0,3.13112 -2.53822,5.66936 -5.66934,5.66936 -3.13113,0 -5.66936,-2.53824 -5.66936,-5.66936" style="fill:none;stroke:#ffffff;stroke-width:0.79701;stroke-linecap:butt;stroke-linejoin:miter;stroke-miterlimit:10;stroke-dasharray:none;stroke-opacity:1" transform="matrix(1.8,0,0,-1.8,274.31153,107.015)" />
    <path id="path5" d="m 68.03217,-22.11044 5.66926,4.81889" style="fill:none;stroke:#ffffff;stroke-width:0.79701;stroke-linecap:butt;stroke-linejoin:miter;stroke-miterlimit:10;stroke-dasharray:none;stroke-opacity:1" transform="matrix(1.8,0,0,-1.8,274.31153,107.015)" />
    <path id="path6" d="m 68.88255,-22.11044 c 0,0.46966 -0.38072,0.85038 -0.85038,0.85038 -0.46967,0 -0.85041,-0.38072 -0.85041,-0.85038 0,-0.46967 0.38074,-0.85041 0.85041,-0.85041 0.46966,0 0.85038,0.38074 0.85038,0.85041 z" style="fill:#ffffff;fill-opacity:1;fill-rule:nonzero;stroke:none" transform="matrix(1.8,0,0,-1.8,274.31153,107.015)" />
    <path id="path7" d="m 73.70143,-42.23645 c 0,3.13112 -2.53822,5.66934 -5.66934,5.66934 -3.13113,0 -5.66936,-2.53822 -5.66936,-5.66934" style="fill:none;stroke:#ffffff;stroke-width:0.79701;stroke-linecap:butt;stroke-linejoin:miter;stroke-miterlimit:10;stroke-dasharray:none;stroke-opacity:1" transform="matrix(1.8,0,0,-1.8,274.31153,107.015)" />
    <path id="path8" d="m 68.03217,-41.95314 5.66926,4.81891" style="fill:none;stroke:#ffffff;stroke-width:0.79701;stroke-linecap:butt;stroke-linejoin:miter;stroke-miterlimit:10;stroke-dasharray:none;stroke-opacity:1" transform="matrix(1.8,0,0,-1.8,274.31153,107.015)" />
    <path id="path9" d="m 68.88255,-41.95314 c 0,0.46967 -0.38072,0.8504 -0.85038,0.8504 -0.46967,0 -0.85041,-0.38073 -0.85041,-0.8504 0,-0.46966 0.38074,-0.85039 0.85041,-0.85039 0.46966,0 0.85038,0.38073 0.85038,0.85039 z" style="fill:#ffffff;fill-opacity:1;fill-rule:nonzero;stroke:none" transform="matrix(1.8,0,0,-1.8,274.31153,107.015)" />
    <g id="g9" aria-label="∣0⟩" transform="matrix(1.8,0,0,1.8,160.95293,146.6762)">
      <path id="path10" d="m 1.1980231,-6.0939826 v 7.8038194 h 0.5034723 v -7.8038194 z m 0,0" style="fill:#121619;fill-opacity:1;fill-rule:nonzero;stroke:none" />
      <path id="path11" d="m 6.7991516,-2.5436354 c 0,-0.8506945 -0.086805,-1.3715278 -0.3472222,-1.875 -0.3559028,-0.703125 -0.9982639,-0.8767361 -1.4409722,-0.8767361 -0.9982639,0 -1.3715278,0.7465278 -1.4756945,0.9722222 -0.2951389,0.5815972 -0.3038194,1.3628472 -0.3038194,1.7795139 0,0.5295139 0.017361,1.328125 0.3993055,1.97048609 0.3732639,0.59027778 0.9635417,0.73784723 1.3802084,0.73784723 0.3819444,0 1.0677083,-0.11284723 1.4670139,-0.90277778 C 6.77311,-1.3109965 6.7991516,-2.0228021 6.7991516,-2.5436354 Z m -1.7881944,2.49131943 c -0.2690972,0 -0.8159722,-0.13020834 -0.9895834,-0.97222223 -0.086806,-0.4513889 -0.086806,-1.1979167 -0.086806,-1.6145833 0,-0.546875 0,-1.1024306 0.086806,-1.5451389 0.1736112,-0.8159722 0.7899306,-0.8940972 0.9895834,-0.8940972 0.2690972,0 0.8246528,0.1388889 0.9809028,0.859375 0.095486,0.4427083 0.095486,1.0416666 0.095486,1.5798611 0,0.46875 0,1.1892361 -0.095486,1.6319444 -0.1649306,0.84201391 -0.7118056,0.95486113 -0.9809028,0.95486113 z m 0,0" style="fill:#121619;fill-opacity:1;fill-rule:nonzero;stroke:none" />
      <path id="path12" d="M 8.3508009,1.7966424 9.7830926,-2.1877326 8.3508009,-6.1807882 7.8646898,-6.0071771 9.305662,-2.1877326 7.8646898,1.6230313 Z m 0,0" style="fill:#121619;fill-opacity:1;fill-rule:nonzero;stroke:none" />
    </g>
    <g id="g12" aria-label="∣0⟩" transform="matrix(1.8,0,0,1.8,160.95293,182.3936)">
      <path id="path13" d="m 1.1980231,-6.0932326 v 7.8038194 h 0.5034723 v -7.8038194 z m 0,0" style="fill:#121619;fill-opacity:1;fill-rule:nonzero;stroke:none" />
      <path id="path14" d="m 6.7991516,-2.5428854 c 0,-0.8506945 -0.086805,-1.3715278 -0.3472222,-1.875 -0.3559028,-0.703125 -0.9982639,-0.8767361 -1.4409722,-0.8767361 -0.9982639,0 -1.3715278,0.7465278 -1.4756945,0.9722222 -0.2951389,0.5815972 -0.3038194,1.3628472 -0.3038194,1.7795139 0,0.5295139 0.017361,1.328125 0.3993055,1.97048609 0.3732639,0.59027778 0.9635417,0.73784723 1.3802084,0.73784723 0.3819444,0 1.0677083,-0.11284723 1.4670139,-0.90277778 C 6.77311,-1.3102465 6.7991516,-2.0220521 6.7991516,-2.5428854 Z m -1.7881944,2.49131943 c -0.2690972,0 -0.8159722,-0.13020834 -0.9895834,-0.97222223 -0.086806,-0.4513889 -0.086806,-1.1979167 -0.086806,-1.6145833 0,-0.546875 0,-1.1024306 0.086806,-1.5451389 0.1736112,-0.8159722 0.7899306,-0.8940972 0.9895834,-0.8940972 0.2690972,0 0.8246528,0.1388889 0.9809028,0.859375 0.095486,0.4427083 0.095486,1.0416666 0.095486,1.5798611 0,0.46875 0,1.1892361 -0.095486,1.6319444 -0.1649306,0.84201391 -0.7118056,0.95486113 -0.9809028,0.95486113 z m 0,0" style="fill:#121619;fill-opacity:1;fill-rule:nonzero;stroke:none" />
      <path id="path15" d="M 8.3508009,1.7973924 9.7830926,-2.1869826 8.3508009,-6.1800382 7.8646898,-6.0064271 9.305662,-2.1869826 7.8646898,1.6237813 Z m 0,0" style="fill:#121619;fill-opacity:1;fill-rule:nonzero;stroke:none" />
    </g>
    <path id="path16" d="M -96.35811,39.68535 H 124.70493" style="fill:none;stroke:#121619;stroke-width:0.3985;stroke-linecap:butt;stroke-linejoin:miter;stroke-miterlimit:10;stroke-dasharray:none;stroke-opacity:1" transform="matrix(1.8,0,0,-1.8,274.31153,107.015)" />
    <path id="path17" d="M -96.35811,19.84267 H 124.70493" style="fill:none;stroke:#121619;stroke-width:0.3985;stroke-linecap:butt;stroke-linejoin:miter;stroke-miterlimit:10;stroke-dasharray:none;stroke-opacity:1" transform="matrix(1.8,0,0,-1.8,274.31153,107.015)" />
    <path id="path18" d="M -96.35811,0 H 124.70493" style="fill:none;stroke:#121619;stroke-width:0.3985;stroke-linecap:butt;stroke-linejoin:miter;stroke-miterlimit:10;stroke-dasharray:none;stroke-opacity:1" transform="matrix(1.8,0,0,-1.8,274.31153,107.015)" />
    <path id="path19" d="M -46.7512,-19.84267 H 59.32887" style="fill:none;stroke:#121619;stroke-width:0.3985;stroke-linecap:butt;stroke-linejoin:miter;stroke-miterlimit:10;stroke-dasharray:none;stroke-opacity:1" transform="matrix(1.8,0,0,-1.8,274.31153,107.015)" />
    <path id="path20" d="M -46.7512,-39.68535 H 59.32887" style="fill:none;stroke:#121619;stroke-width:0.3985;stroke-linecap:butt;stroke-linejoin:miter;stroke-miterlimit:10;stroke-dasharray:none;stroke-opacity:1" transform="matrix(1.8,0,0,-1.8,274.31153,107.015)" />
    <path id="path21" d="M 76.73544,-18.99226 H 87.85399" style="fill:none;stroke:#121619;stroke-width:0.3985;stroke-linecap:butt;stroke-linejoin:miter;stroke-miterlimit:10;stroke-dasharray:none;stroke-opacity:1" transform="matrix(1.8,0,0,-1.8,274.31153,107.015)" />
    <path id="path22" d="M 76.73544,-20.69307 H 87.85399" style="fill:none;stroke:#121619;stroke-width:0.3985;stroke-linecap:butt;stroke-linejoin:miter;stroke-miterlimit:10;stroke-dasharray:none;stroke-opacity:1" transform="matrix(1.8,0,0,-1.8,274.31153,107.015)" />
    <path id="path23" d="M 76.73544,-38.83495 H 87.85399" style="fill:none;stroke:#121619;stroke-width:0.3985;stroke-linecap:butt;stroke-linejoin:miter;stroke-miterlimit:10;stroke-dasharray:none;stroke-opacity:1" transform="matrix(1.8,0,0,-1.8,274.31153,107.015)" />
    <path id="path24" d="M 76.73544,-40.53575 H 87.85399" style="fill:none;stroke:#121619;stroke-width:0.3985;stroke-linecap:butt;stroke-linejoin:miter;stroke-miterlimit:10;stroke-dasharray:none;stroke-opacity:1" transform="matrix(1.8,0,0,-1.8,274.31153,107.015)" />
    <path id="path25" d="m -17.35197,39.68535 c 0,1.37558 -1.11512,2.49069 -2.4907,2.49069 -1.37558,0 -2.49069,-1.11511 -2.49069,-2.49069 0,-1.37558 1.11511,-2.49069 2.49069,-2.49069 1.37558,0 2.4907,1.11511 2.4907,2.49069 z" style="fill:#78a9ff;fill-opacity:1;fill-rule:nonzero;stroke:none" transform="matrix(1.8,0,0,-1.8,274.31153,107.015)" />
    <path id="path26" d="m 2.49069,19.84267 c 0,1.37558 -1.11511,2.49069 -2.49069,2.49069 -1.37558,0 -2.49069,-1.11511 -2.49069,-2.49069 0,-1.37558 1.11511,-2.4907 2.49069,-2.4907 1.37558,0 2.49069,1.11512 2.49069,2.4907 z" style="fill:#78a9ff;fill-opacity:1;fill-rule:nonzero;stroke:none" transform="matrix(1.8,0,0,-1.8,274.31153,107.015)" />
    <path id="path27" d="m 22.33336,19.84267 c 0,1.37558 -1.11511,2.49069 -2.49069,2.49069 -1.37558,0 -2.4907,-1.11511 -2.4907,-2.49069 0,-1.37558 1.11512,-2.4907 2.4907,-2.4907 1.37558,0 2.49069,1.11512 2.49069,2.4907 z" style="fill:#78a9ff;fill-opacity:1;fill-rule:nonzero;stroke:none" transform="matrix(1.8,0,0,-1.8,274.31153,107.015)" />
    <path id="path28" d="m 42.17604,0 c 0,1.37558 -1.11511,2.49069 -2.49069,2.49069 -1.37558,0 -2.49069,-1.11511 -2.49069,-2.49069 0,-1.37558 1.11511,-2.49069 2.49069,-2.49069 1.37558,0 2.49069,1.11511 2.49069,2.49069 z" style="fill:#78a9ff;fill-opacity:1;fill-rule:nonzero;stroke:none" transform="matrix(1.8,0,0,-1.8,274.31153,107.015)" />
    <path id="path29" d="m -13.865,-19.84267 c 0,3.30143 -2.67624,5.97767 -5.97767,5.97767 -3.3014,0 -5.97766,-2.67624 -5.97766,-5.97767 0,-3.3014 2.67626,-5.97766 5.97766,-5.97766 3.30143,0 5.97767,2.67626 5.97767,5.97766 z" style="fill:#78a9ff;fill-opacity:1;fill-rule:nonzero;stroke:#78a9ff;stroke-width:0.3985;stroke-linecap:butt;stroke-linejoin:miter;stroke-miterlimit:10;stroke-dasharray:none;stroke-opacity:1" transform="matrix(1.8,0,0,-1.8,274.31153,107.015)" />
    <path id="path30" d="M 4.7058877,-7.8203229 V -4.400184 H 1.2944294 v 0.9114583 h 3.4114583 v 3.42013889 H 5.6260266 V -3.4887257 H 9.037485 V -4.400184 H 5.6260266 v -3.4201389 z m 0,0" style="fill:#ffffff;fill-opacity:1;fill-rule:nonzero;stroke:none" aria-label="+" transform="matrix(1.8,0,0,1.8,229.29893,149.7758)" />
    <path id="path31" d="m 5.97766,-19.84267 c 0,3.30143 -2.67626,5.97767 -5.97766,5.97767 -3.3014,0 -5.97766,-2.67624 -5.97766,-5.97767 0,-3.3014 2.67626,-5.97766 5.97766,-5.97766 3.3014,0 5.97766,2.67626 5.97766,5.97766 z" style="fill:#78a9ff;fill-opacity:1;fill-rule:nonzero;stroke:#78a9ff;stroke-width:0.3985;stroke-linecap:butt;stroke-linejoin:miter;stroke-miterlimit:10;stroke-dasharray:none;stroke-opacity:1" transform="matrix(1.8,0,0,-1.8,274.31153,107.015)" />
    <path id="path32" d="M 4.7054676,-7.8203229 V -4.400184 H 1.2940093 v 0.9114583 h 3.4114583 v 3.42013889 H 5.6256065 V -3.4887257 H 9.0370648 V -4.400184 H 5.6256065 v -3.4201389 z m 0,0" style="fill:#ffffff;fill-opacity:1;fill-rule:nonzero;stroke:none" aria-label="+" transform="matrix(1.8,0,0,1.8,265.01453,149.7758)" />
    <path id="path33" d="m 25.82033,-39.68535 c 0,3.30141 -2.67626,5.97766 -5.97766,5.97766 -3.30143,0 -5.97767,-2.67625 -5.97767,-5.97766 0,-3.30142 2.67624,-5.97766 5.97767,-5.97766 3.3014,0 5.97766,2.67624 5.97766,5.97766 z" style="fill:#78a9ff;fill-opacity:1;fill-rule:nonzero;stroke:#78a9ff;stroke-width:0.3985;stroke-linecap:butt;stroke-linejoin:miter;stroke-miterlimit:10;stroke-dasharray:none;stroke-opacity:1" transform="matrix(1.8,0,0,-1.8,274.31153,107.015)" />
    <path id="path34" d="m 4.7040475,-7.8207431 v 3.4201389 H 1.2925891 v 0.9114584 h 3.4114584 v 3.42013886 H 5.6241863 V -3.4891458 H 9.0356447 V -4.4006042 H 5.6241863 v -3.4201389 z m 0,0" style="fill:#ffffff;fill-opacity:1;fill-rule:nonzero;stroke:none" aria-label="+" transform="matrix(1.8,0,0,1.8,300.73193,185.4914)" />
    <path id="path35" d="m 45.66301,-39.68535 c 0,3.30141 -2.67624,5.97766 -5.97766,5.97766 -3.30141,0 -5.97766,-2.67625 -5.97766,-5.97766 0,-3.30142 2.67625,-5.97766 5.97766,-5.97766 3.30142,0 5.97766,2.67624 5.97766,5.97766 z" style="fill:#78a9ff;fill-opacity:1;fill-rule:nonzero;stroke:#78a9ff;stroke-width:0.3985;stroke-linecap:butt;stroke-linejoin:miter;stroke-miterlimit:10;stroke-dasharray:none;stroke-opacity:1" transform="matrix(1.8,0,0,-1.8,274.31153,107.015)" />
    <path id="path36" d="m 4.7047975,-7.8207431 v 3.4201389 H 1.2933391 v 0.9114584 h 3.4114584 v 3.42013886 H 5.6249363 V -3.4891458 H 9.0363947 V -4.4006042 H 5.6249363 v -3.4201389 z m 0,0" style="fill:#ffffff;fill-opacity:1;fill-rule:nonzero;stroke:none" aria-label="+" transform="matrix(1.8,0,0,1.8,336.44933,185.4914)" />
    <path id="path37" d="M -19.84267,39.68535 V -13.66576" style="fill:none;stroke:#78a9ff;stroke-width:0.79701;stroke-linecap:butt;stroke-linejoin:miter;stroke-miterlimit:10;stroke-dasharray:none;stroke-opacity:1" transform="matrix(1.8,0,0,-1.8,274.31153,107.015)" />
    <path id="path38" d="M 0,19.84267 V -13.66576" style="fill:none;stroke:#78a9ff;stroke-width:0.79701;stroke-linecap:butt;stroke-linejoin:miter;stroke-miterlimit:10;stroke-dasharray:none;stroke-opacity:1" transform="matrix(1.8,0,0,-1.8,274.31153,107.015)" />
    <path id="path39" d="M 19.84267,19.84267 V -33.50844" style="fill:none;stroke:#78a9ff;stroke-width:0.79701;stroke-linecap:butt;stroke-linejoin:miter;stroke-miterlimit:10;stroke-dasharray:none;stroke-opacity:1" transform="matrix(1.8,0,0,-1.8,274.31153,107.015)" />
    <path id="path40" d="M 39.68535,0 V -33.50844" style="fill:none;stroke:#78a9ff;stroke-width:0.79701;stroke-linecap:butt;stroke-linejoin:miter;stroke-miterlimit:10;stroke-dasharray:none;stroke-opacity:1" transform="matrix(1.8,0,0,-1.8,274.31153,107.015)" />
  </g>
</svg>