<?xml version='1.0' encoding='utf-8'?>
<svg xmlns="http://www.w3.org/2000/svg" xmlns:ns1="http://sodipodi.sourceforge.net/DTD/sodipodi-0.dtd" xmlns:ns2="http://www.inkscape.org/namespaces/inkscape" version="1.1" id="svg1" width="100%" height="auto" viewBox="-20.0 -20.0 500.40234 231.76582" ns1:docname="svg_fix_XXXXXX.svg">
  <rect id="path1" x="-20.0" y="-20.0" width="500.40234" height="231.76582" fill="white" /><ns1:namedview id="namedview1" pagecolor="#ffffff" bordercolor="#000000" borderopacity="0.25" ns2:showpageshadow="2" ns2:pageopacity="0.0" ns2:pagecheckerboard="0" ns2:deskcolor="#d1d1d1" />
  <defs id="defs1" />
  <g id="g1" transform="translate(-70.94922,-69.909864)">
    <path id="path2" d="M 35.43367,12.75613 H 55.27641 V 32.59887 H 35.43367 Z" style="fill:#ffffff;fill-opacity:1;fill-rule:nonzero;stroke:#8a3ffc;stroke-width:0.79701;stroke-linecap:butt;stroke-linejoin:miter;stroke-miterlimit:10;stroke-dasharray:none;stroke-opacity:1" transform="matrix(1.6,0,0,-1.6,301.14827,165.7928)" />
    <path id="path3" d="M 35.43367,-9.92137 H 55.27641 V 9.92137 H 35.43367 Z" style="fill:#ffffff;fill-opacity:1;fill-rule:nonzero;stroke:#8a3ffc;stroke-width:0.79701;stroke-linecap:butt;stroke-linejoin:miter;stroke-miterlimit:10;stroke-dasharray:none;stroke-opacity:1" transform="matrix(1.6,0,0,-1.6,301.14827,165.7928)" />
    <path id="path4" d="m 35.43367,-32.59889 h 19.84274 v 19.84274 H 35.43367 Z" style="fill:#ffffff;fill-opacity:1;fill-rule:nonzero;stroke:#8a3ffc;stroke-width:0.79701;stroke-linecap:butt;stroke-linejoin:miter;stroke-miterlimit:10;stroke-dasharray:none;stroke-opacity:1" transform="matrix(1.6,0,0,-1.6,301.14827,165.7928)" />
    <path id="path5" d="m 35.43367,-55.27643 h 19.84274 v 19.84274 H 35.43367 Z" style="fill:#ffffff;fill-opacity:1;fill-rule:nonzero;stroke:#8a3ffc;stroke-width:0.79701;stroke-linecap:butt;stroke-linejoin:miter;stroke-miterlimit:10;stroke-dasharray:none;stroke-opacity:1" transform="matrix(1.6,0,0,-1.6,301.14827,165.7928)" />
    <path id="path6" d="M 37.5597,14.88216 H 53.15041 V 30.47287 H 37.5597 Z" style="fill:#000000;fill-opacity:1;fill-rule:nonzero;stroke:#000000;stroke-width:0.3985;stroke-linecap:butt;stroke-linejoin:miter;stroke-miterlimit:10;stroke-dasharray:none;stroke-opacity:1" transform="matrix(1.6,0,0,-1.6,301.14827,165.7928)" />
    <path id="path7" d="M 37.5597,-7.79535 H 53.15041 V 7.79536 H 37.5597 Z" style="fill:#000000;fill-opacity:1;fill-rule:nonzero;stroke:#000000;stroke-width:0.3985;stroke-linecap:butt;stroke-linejoin:miter;stroke-miterlimit:10;stroke-dasharray:none;stroke-opacity:1" transform="matrix(1.6,0,0,-1.6,301.14827,165.7928)" />
    <path id="path8" d="m 37.5597,-30.47287 h 15.59071 v 15.59071 H 37.5597 Z" style="fill:#000000;fill-opacity:1;fill-rule:nonzero;stroke:#000000;stroke-width:0.3985;stroke-linecap:butt;stroke-linejoin:miter;stroke-miterlimit:10;stroke-dasharray:none;stroke-opacity:1" transform="matrix(1.6,0,0,-1.6,301.14827,165.7928)" />
    <path id="path9" d="m 37.5597,-53.1504 h 15.59071 v 15.59071 H 37.5597 Z" style="fill:#000000;fill-opacity:1;fill-rule:nonzero;stroke:#000000;stroke-width:0.3985;stroke-linecap:butt;stroke-linejoin:miter;stroke-miterlimit:10;stroke-dasharray:none;stroke-opacity:1" transform="matrix(1.6,0,0,-1.6,301.14827,165.7928)" />
    <path id="path10" d="M -88.01843,38.55417 H 90.71487" style="fill:none;stroke:#121619;stroke-width:0.3985;stroke-linecap:butt;stroke-linejoin:miter;stroke-miterlimit:10;stroke-dasharray:none;stroke-opacity:1" transform="matrix(1.6,0,0,-1.6,301.14827,165.7928)" />
    <path id="path11" d="M -88.01843,15.87544 H 35.03702" style="fill:none;stroke:#121619;stroke-width:0.3985;stroke-linecap:butt;stroke-linejoin:miter;stroke-miterlimit:10;stroke-dasharray:none;stroke-opacity:1" transform="matrix(1.6,0,0,-1.6,301.14827,165.7928)" />
    <path id="path12" d="M -88.01843,-6.80324 H 35.03702" style="fill:none;stroke:#121619;stroke-width:0.3985;stroke-linecap:butt;stroke-linejoin:miter;stroke-miterlimit:10;stroke-dasharray:none;stroke-opacity:1" transform="matrix(1.6,0,0,-1.6,301.14827,165.7928)" />
    <path id="path13" d="M -88.01843,-29.48195 H 35.03702" style="fill:none;stroke:#121619;stroke-width:0.3985;stroke-linecap:butt;stroke-linejoin:miter;stroke-miterlimit:10;stroke-dasharray:none;stroke-opacity:1" transform="matrix(1.6,0,0,-1.6,301.14827,165.7928)" />
    <path id="path14" d="M -88.01843,-52.16068 H 35.03702" style="fill:none;stroke:#121619;stroke-width:0.3985;stroke-linecap:butt;stroke-linejoin:miter;stroke-miterlimit:10;stroke-dasharray:none;stroke-opacity:1" transform="matrix(1.6,0,0,-1.6,301.14827,165.7928)" />
    <path id="path15" d="M -88.01843,40.82193 H 90.71487" style="fill:none;stroke:#121619;stroke-width:0.3985;stroke-linecap:butt;stroke-linejoin:miter;stroke-miterlimit:10;stroke-dasharray:none;stroke-opacity:1" transform="matrix(1.6,0,0,-1.6,301.14827,165.7928)" />
    <path id="path16" d="M -88.01843,18.1432 H 35.03702" style="fill:none;stroke:#121619;stroke-width:0.3985;stroke-linecap:butt;stroke-linejoin:miter;stroke-miterlimit:10;stroke-dasharray:none;stroke-opacity:1" transform="matrix(1.6,0,0,-1.6,301.14827,165.7928)" />
    <path id="path17" d="M -88.01843,-4.53549 H 35.03702" style="fill:none;stroke:#121619;stroke-width:0.3985;stroke-linecap:butt;stroke-linejoin:miter;stroke-miterlimit:10;stroke-dasharray:none;stroke-opacity:1" transform="matrix(1.6,0,0,-1.6,301.14827,165.7928)" />
    <path id="path18" d="M -88.01843,-27.21419 H 35.03702" style="fill:none;stroke:#121619;stroke-width:0.3985;stroke-linecap:butt;stroke-linejoin:miter;stroke-miterlimit:10;stroke-dasharray:none;stroke-opacity:1" transform="matrix(1.6,0,0,-1.6,301.14827,165.7928)" />
    <path id="path19" d="M -88.01843,-49.89291 H 35.03702" style="fill:none;stroke:#121619;stroke-width:0.3985;stroke-linecap:butt;stroke-linejoin:miter;stroke-miterlimit:10;stroke-dasharray:none;stroke-opacity:1" transform="matrix(1.6,0,0,-1.6,301.14827,165.7928)" />
    <path id="path20" d="M -88.01843,43.08968 H 90.71487" style="fill:none;stroke:#121619;stroke-width:0.3985;stroke-linecap:butt;stroke-linejoin:miter;stroke-miterlimit:10;stroke-dasharray:none;stroke-opacity:1" transform="matrix(1.6,0,0,-1.6,301.14827,165.7928)" />
    <path id="path21" d="M -88.01843,20.41096 H 35.03702" style="fill:none;stroke:#121619;stroke-width:0.3985;stroke-linecap:butt;stroke-linejoin:miter;stroke-miterlimit:10;stroke-dasharray:none;stroke-opacity:1" transform="matrix(1.6,0,0,-1.6,301.14827,165.7928)" />
    <path id="path22" d="M -88.01843,-2.26773 H 35.03702" style="fill:none;stroke:#121619;stroke-width:0.3985;stroke-linecap:butt;stroke-linejoin:miter;stroke-miterlimit:10;stroke-dasharray:none;stroke-opacity:1" transform="matrix(1.6,0,0,-1.6,301.14827,165.7928)" />
    <path id="path23" d="M -88.01843,-24.94644 H 35.03702" style="fill:none;stroke:#121619;stroke-width:0.3985;stroke-linecap:butt;stroke-linejoin:miter;stroke-miterlimit:10;stroke-dasharray:none;stroke-opacity:1" transform="matrix(1.6,0,0,-1.6,301.14827,165.7928)" />
    <path id="path24" d="M -88.01843,-47.62517 H 35.03702" style="fill:none;stroke:#121619;stroke-width:0.3985;stroke-linecap:butt;stroke-linejoin:miter;stroke-miterlimit:10;stroke-dasharray:none;stroke-opacity:1" transform="matrix(1.6,0,0,-1.6,301.14827,165.7928)" />
    <path id="path25" d="M -88.01843,45.35742 H 90.71487" style="fill:none;stroke:#121619;stroke-width:0.3985;stroke-linecap:butt;stroke-linejoin:miter;stroke-miterlimit:10;stroke-dasharray:none;stroke-opacity:1" transform="matrix(1.6,0,0,-1.6,301.14827,165.7928)" />
    <path id="path26" d="M -88.01843,22.6787 H 35.03702" style="fill:none;stroke:#121619;stroke-width:0.3985;stroke-linecap:butt;stroke-linejoin:miter;stroke-miterlimit:10;stroke-dasharray:none;stroke-opacity:1" transform="matrix(1.6,0,0,-1.6,301.14827,165.7928)" />
    <path id="path27" d="M -88.01843,0 H 35.03702" style="fill:none;stroke:#121619;stroke-width:0.3985;stroke-linecap:butt;stroke-linejoin:miter;stroke-miterlimit:10;stroke-dasharray:none;stroke-opacity:1" transform="matrix(1.6,0,0,-1.6,301.14827,165.7928)" />
    <path id="path28" d="M -88.01843,-22.6787 H 35.03702" style="fill:none;stroke:#121619;stroke-width:0.3985;stroke-linecap:butt;stroke-linejoin:miter;stroke-miterlimit:10;stroke-dasharray:none;stroke-opacity:1" transform="matrix(1.6,0,0,-1.6,301.14827,165.7928)" />
    <path id="path29" d="M -88.01843,-45.35742 H 35.03702" style="fill:none;stroke:#121619;stroke-width:0.3985;stroke-linecap:butt;stroke-linejoin:miter;stroke-miterlimit:10;stroke-dasharray:none;stroke-opacity:1" transform="matrix(1.6,0,0,-1.6,301.14827,165.7928)" />
    <path id="path30" d="M -88.01843,47.62517 H 90.71487" style="fill:none;stroke:#121619;stroke-width:0.3985;stroke-linecap:butt;stroke-linejoin:miter;stroke-miterlimit:10;stroke-dasharray:none;stroke-opacity:1" transform="matrix(1.6,0,0,-1.6,301.14827,165.7928)" />
    <path id="path31" d="M -88.01843,24.94644 H 35.03702" style="fill:none;stroke:#121619;stroke-width:0.3985;stroke-linecap:butt;stroke-linejoin:miter;stroke-miterlimit:10;stroke-dasharray:none;stroke-opacity:1" transform="matrix(1.6,0,0,-1.6,301.14827,165.7928)" />
    <path id="path32" d="M -88.01843,2.26773 H 35.03702" style="fill:none;stroke:#121619;stroke-width:0.3985;stroke-linecap:butt;stroke-linejoin:miter;stroke-miterlimit:10;stroke-dasharray:none;stroke-opacity:1" transform="matrix(1.6,0,0,-1.6,301.14827,165.7928)" />
    <path id="path33" d="M -88.01843,-20.41096 H 35.03702" style="fill:none;stroke:#121619;stroke-width:0.3985;stroke-linecap:butt;stroke-linejoin:miter;stroke-miterlimit:10;stroke-dasharray:none;stroke-opacity:1" transform="matrix(1.6,0,0,-1.6,301.14827,165.7928)" />
    <path id="path34" d="M -88.01843,-43.08968 H 35.03702" style="fill:none;stroke:#121619;stroke-width:0.3985;stroke-linecap:butt;stroke-linejoin:miter;stroke-miterlimit:10;stroke-dasharray:none;stroke-opacity:1" transform="matrix(1.6,0,0,-1.6,301.14827,165.7928)" />
    <path id="path35" d="M -88.01843,49.89291 H 90.71487" style="fill:none;stroke:#121619;stroke-width:0.3985;stroke-linecap:butt;stroke-linejoin:miter;stroke-miterlimit:10;stroke-dasharray:none;stroke-opacity:1" transform="matrix(1.6,0,0,-1.6,301.14827,165.7928)" />
    <path id="path36" d="M -88.01843,27.21419 H 35.03702" style="fill:none;stroke:#121619;stroke-width:0.3985;stroke-linecap:butt;stroke-linejoin:miter;stroke-miterlimit:10;stroke-dasharray:none;stroke-opacity:1" transform="matrix(1.6,0,0,-1.6,301.14827,165.7928)" />
    <path id="path37" d="M -88.01843,4.53549 H 35.03702" style="fill:none;stroke:#121619;stroke-width:0.3985;stroke-linecap:butt;stroke-linejoin:miter;stroke-miterlimit:10;stroke-dasharray:none;stroke-opacity:1" transform="matrix(1.6,0,0,-1.6,301.14827,165.7928)" />
    <path id="path38" d="M -88.01843,-18.1432 H 35.03702" style="fill:none;stroke:#121619;stroke-width:0.3985;stroke-linecap:butt;stroke-linejoin:miter;stroke-miterlimit:10;stroke-dasharray:none;stroke-opacity:1" transform="matrix(1.6,0,0,-1.6,301.14827,165.7928)" />
    <path id="path39" d="M -88.01843,-40.82193 H 35.03702" style="fill:none;stroke:#121619;stroke-width:0.3985;stroke-linecap:butt;stroke-linejoin:miter;stroke-miterlimit:10;stroke-dasharray:none;stroke-opacity:1" transform="matrix(1.6,0,0,-1.6,301.14827,165.7928)" />
    <path id="path40" d="M -88.01843,52.16068 H 90.71487" style="fill:none;stroke:#121619;stroke-width:0.3985;stroke-linecap:butt;stroke-linejoin:miter;stroke-miterlimit:10;stroke-dasharray:none;stroke-opacity:1" transform="matrix(1.6,0,0,-1.6,301.14827,165.7928)" />
    <path id="path41" d="M -88.01843,29.48195 H 35.03702" style="fill:none;stroke:#121619;stroke-width:0.3985;stroke-linecap:butt;stroke-linejoin:miter;stroke-miterlimit:10;stroke-dasharray:none;stroke-opacity:1" transform="matrix(1.6,0,0,-1.6,301.14827,165.7928)" />
    <path id="path42" d="M -88.01843,6.80324 H 35.03702" style="fill:none;stroke:#121619;stroke-width:0.3985;stroke-linecap:butt;stroke-linejoin:miter;stroke-miterlimit:10;stroke-dasharray:none;stroke-opacity:1" transform="matrix(1.6,0,0,-1.6,301.14827,165.7928)" />
    <path id="path43" d="M -88.01843,-15.87544 H 35.03702" style="fill:none;stroke:#121619;stroke-width:0.3985;stroke-linecap:butt;stroke-linejoin:miter;stroke-miterlimit:10;stroke-dasharray:none;stroke-opacity:1" transform="matrix(1.6,0,0,-1.6,301.14827,165.7928)" />
    <path id="path44" d="M -88.01843,-38.55417 H 35.03702" style="fill:none;stroke:#121619;stroke-width:0.3985;stroke-linecap:butt;stroke-linejoin:miter;stroke-miterlimit:10;stroke-dasharray:none;stroke-opacity:1" transform="matrix(1.6,0,0,-1.6,301.14827,165.7928)" />
    <path id="path45" d="M 55.67784,22.22514 H 68.03616" style="fill:none;stroke:#121619;stroke-width:0.3985;stroke-linecap:butt;stroke-linejoin:miter;stroke-miterlimit:10;stroke-dasharray:none;stroke-opacity:1" transform="matrix(1.6,0,0,-1.6,301.14827,165.7928)" />
    <path id="path46" d="M 55.67784,-0.45352 H 68.03616" style="fill:none;stroke:#121619;stroke-width:0.3985;stroke-linecap:butt;stroke-linejoin:miter;stroke-miterlimit:10;stroke-dasharray:none;stroke-opacity:1" transform="matrix(1.6,0,0,-1.6,301.14827,165.7928)" />
    <path id="path47" d="M 55.67784,-23.13225 H 68.03616" style="fill:none;stroke:#121619;stroke-width:0.3985;stroke-linecap:butt;stroke-linejoin:miter;stroke-miterlimit:10;stroke-dasharray:none;stroke-opacity:1" transform="matrix(1.6,0,0,-1.6,301.14827,165.7928)" />
    <path id="path48" d="M 55.67784,-45.81097 H 68.03616" style="fill:none;stroke:#121619;stroke-width:0.3985;stroke-linecap:butt;stroke-linejoin:miter;stroke-miterlimit:10;stroke-dasharray:none;stroke-opacity:1" transform="matrix(1.6,0,0,-1.6,301.14827,165.7928)" />
    <path id="path49" d="M 55.67784,23.13225 H 68.03616" style="fill:none;stroke:#121619;stroke-width:0.3985;stroke-linecap:butt;stroke-linejoin:miter;stroke-miterlimit:10;stroke-dasharray:none;stroke-opacity:1" transform="matrix(1.6,0,0,-1.6,301.14827,165.7928)" />
    <path id="path50" d="M 55.67784,0.45352 H 68.03616" style="fill:none;stroke:#121619;stroke-width:0.3985;stroke-linecap:butt;stroke-linejoin:miter;stroke-miterlimit:10;stroke-dasharray:none;stroke-opacity:1" transform="matrix(1.6,0,0,-1.6,301.14827,165.7928)" />
    <path id="path51" d="M 55.67784,-22.22514 H 68.03616" style="fill:none;stroke:#121619;stroke-width:0.3985;stroke-linecap:butt;stroke-linejoin:miter;stroke-miterlimit:10;stroke-dasharray:none;stroke-opacity:1" transform="matrix(1.6,0,0,-1.6,301.14827,165.7928)" />
    <path id="path52" d="M 55.67784,-44.90388 H 68.03616" style="fill:none;stroke:#121619;stroke-width:0.3985;stroke-linecap:butt;stroke-linejoin:miter;stroke-miterlimit:10;stroke-dasharray:none;stroke-opacity:1" transform="matrix(1.6,0,0,-1.6,301.14827,165.7928)" />
    <path id="path53" d="m -59.52837,-59.5283 h 73.7017 V 59.52833 h -73.7017 z" style="fill:#ffffff;fill-opacity:1;fill-rule:nonzero;stroke:#8a3ffc;stroke-width:0.79701;stroke-linecap:butt;stroke-linejoin:miter;stroke-miterlimit:10;stroke-dasharray:none;stroke-opacity:1" transform="matrix(1.6,0,0,-1.6,301.14827,165.7928)" />
    <path id="path54" d="M -56.6937,-56.69363 H 11.33865 V 56.69364 H -56.6937 Z" style="fill:#78a9ff;fill-opacity:1;fill-rule:nonzero;stroke:#78a9ff;stroke-width:0.3985;stroke-linecap:butt;stroke-linejoin:miter;stroke-miterlimit:10;stroke-dasharray:none;stroke-opacity:1" transform="matrix(1.6,0,0,-1.6,301.14827,165.7928)" />
    <path id="path55" d="M 0.69302474,1.5625e-4 H 2.4508372 c 1.2988282,0 2.1386719,-0.86914062 2.1386719,-2.61718745 0,-1.7382813 -0.8398437,-2.6074219 -2.1386719,-2.6074219 H 0.69302474 Z M 1.3277904,-0.55648437 V -4.6775781 h 1.1230468 c 0.859375,0 1.4648438,0.6054687 1.4648438,1.640625 v 0.8496094 c 0,1.0351562 -0.6054688,1.63085933 -1.4648438,1.63085933 z M 5.9640208,-4.7752344 c 0.2539063,0 0.3613282,-0.1269531 0.3613282,-0.3320312 v -0.097656 c 0,-0.2050781 -0.1074219,-0.3417968 -0.3613282,-0.3417968 -0.2539062,0 -0.3710937,0.1367187 -0.3710937,0.3417968 v 0.097656 c 0,0.2050781 0.1171875,0.3320312 0.3710937,0.3320312 z M 5.6612865,1.5625e-4 H 6.2667552 V -3.8670312 H 5.6612865 Z m 3.0346679,0.08789063 c 0.8886719,0 1.4355466,-0.45898438 1.4355466,-1.20117188 0,-0.5859375 -0.3320309,-0.9570312 -1.1914059,-1.0839844 l -0.2929688,-0.048828 c -0.4785156,-0.078125 -0.7421875,-0.2246094 -0.7421875,-0.5957031 0,-0.3710938 0.2636719,-0.6054688 0.7519531,-0.6054688 0.4980469,0 0.8300782,0.234375 0.9960938,0.4785157 l 0.4003903,-0.3613282 c -0.3124997,-0.390625 -0.7226559,-0.625 -1.3476559,-0.625 -0.7910157,0 -1.3769532,0.3710938 -1.3769532,1.1425782 0,0.7128906 0.5273438,1.0058593 1.2402344,1.1132812 L 8.8717357,-1.66 c 0.5175781,0.078125 0.6835937,0.3125 0.6835937,0.6152344 0,0.39062498 -0.3027343,0.62499998 -0.8105468,0.62499998 -0.4882813,0 -0.8496094,-0.21484375 -1.1523438,-0.59570308 l -0.4199219,0.35156245 c 0.3417969,0.45898438 0.8105469,0.75195313 1.5234375,0.75195313 z M 12.738923,1.5625e-4 V -0.5271875 h -0.78125 v -2.8125 h 0.839844 v -0.5273437 h -0.839844 v -1.0644532 h -0.537109 v 0.7128907 c 0,0.2636718 -0.08789,0.3515625 -0.341797,0.3515625 h -0.361328 v 0.5273437 h 0.634765 v 2.70507813 c 0,0.37109375 0.22461,0.63476562 0.644532,0.63476562 z m 1.333008,-4.77539065 c 0.253906,0 0.361328,-0.1269531 0.361328,-0.3320312 v -0.097656 c 0,-0.2050781 -0.107422,-0.3417968 -0.361328,-0.3417968 -0.253906,0 -0.371094,0.1367187 -0.371094,0.3417968 v 0.097656 c 0,0.2050781 0.117188,0.3320312 0.371094,0.3320312 z M 13.769197,1.5625e-4 h 0.605468 V -3.8670312 h -0.605468 z m 3.044433,0 V -0.5271875 h -0.566406 v -5.0195312 h -0.605469 v 4.92187495 c 0,0.36132813 0.22461,0.625 0.634766,0.625 z m 1.999512,0 V -0.5271875 h -0.566406 v -5.0195312 h -0.605469 v 4.92187495 c 0,0.36132813 0.224609,0.625 0.634766,0.625 z m 2.321777,0.08789063 c 0.722657,0 1.279297,-0.36132813 1.523438,-0.87890625 L 22.238435,-1.1033594 c -0.205078,0.42968753 -0.576172,0.67382815 -1.064453,0.67382815 -0.722656,0 -1.152344,-0.5078125 -1.152344,-1.17187495 v -0.1855469 h 2.783203 v -0.2832031 c 0,-1.09375 -0.634765,-1.8847657 -1.669922,-1.8847657 -1.044922,0 -1.738281,0.7910157 -1.738281,2.0214844 0,1.23046875 0.693359,2.02148438 1.738281,2.02148438 z m 0,-3.54492188 c 0.615235,0 1.025391,0.4589844 1.025391,1.1425781 v 0.078125 H 20.021638 V -2.285 c 0,-0.6738281 0.458984,-1.171875 1.113281,-1.171875 z M 24.396638,1.5625e-4 V -2.6170312 c 0,-0.3710938 0.380859,-0.6445313 1.025391,-0.6445313 h 0.351562 v -0.6054687 h -0.224609 c -0.634766,0 -0.986328,0.3515625 -1.123047,0.7128906 h -0.0293 V -3.8670312 H 23.791169 V 1.5625e-4 Z m 0,0" style="fill:#ffffff;fill-opacity:1;fill-rule:nonzero;stroke:none" aria-label="Distiller" transform="matrix(1.6,0,0,1.6,244.14507,170.156)" />
    <path id="path56" d="m 49.89285,20.6378 c 0,2.50492 -2.03059,4.5355 -4.53549,4.5355 -2.50491,0 -4.53549,-2.03058 -4.53549,-4.5355" style="fill:none;stroke:#ffffff;stroke-width:0.79701;stroke-linecap:butt;stroke-linejoin:miter;stroke-miterlimit:10;stroke-dasharray:none;stroke-opacity:1" transform="matrix(1.6,0,0,-1.6,301.14827,165.7928)" />
    <path id="path57" d="m 45.35742,20.86447 4.53543,3.85513" style="fill:none;stroke:#ffffff;stroke-width:0.79701;stroke-linecap:butt;stroke-linejoin:miter;stroke-miterlimit:10;stroke-dasharray:none;stroke-opacity:1" transform="matrix(1.6,0,0,-1.6,301.14827,165.7928)" />
    <path id="path58" d="m 46.03773,20.86447 c 0,0.37573 -0.30458,0.68031 -0.68031,0.68031 -0.37573,0 -0.68031,-0.30458 -0.68031,-0.68031 0,-0.37573 0.30458,-0.68033 0.68031,-0.68033 0.37573,0 0.68031,0.3046 0.68031,0.68033 z" style="fill:#ffffff;fill-opacity:1;fill-rule:nonzero;stroke:none" transform="matrix(1.6,0,0,-1.6,301.14827,165.7928)" />
    <path id="path59" d="m 49.89285,-2.04088 c 0,2.5049 -2.03059,4.53549 -4.53549,4.53549 -2.50491,0 -4.53549,-2.03059 -4.53549,-4.53549" style="fill:none;stroke:#ffffff;stroke-width:0.79701;stroke-linecap:butt;stroke-linejoin:miter;stroke-miterlimit:10;stroke-dasharray:none;stroke-opacity:1" transform="matrix(1.6,0,0,-1.6,301.14827,165.7928)" />
    <path id="path60" d="M 45.35742,-1.81422 49.89285,2.0409" style="fill:none;stroke:#ffffff;stroke-width:0.79701;stroke-linecap:butt;stroke-linejoin:miter;stroke-miterlimit:10;stroke-dasharray:none;stroke-opacity:1" transform="matrix(1.6,0,0,-1.6,301.14827,165.7928)" />
    <path id="path61" d="m 46.03773,-1.81422 c 0,0.37573 -0.30458,0.68031 -0.68031,0.68031 -0.37573,0 -0.68031,-0.30458 -0.68031,-0.68031 0,-0.37574 0.30458,-0.68033 0.68031,-0.68033 0.37573,0 0.68031,0.30459 0.68031,0.68033 z" style="fill:#ffffff;fill-opacity:1;fill-rule:nonzero;stroke:none" transform="matrix(1.6,0,0,-1.6,301.14827,165.7928)" />
    <path id="path62" d="m 49.89285,-24.71959 c 0,2.5049 -2.03059,4.53549 -4.53549,4.53549 -2.50491,0 -4.53549,-2.03059 -4.53549,-4.53549" style="fill:none;stroke:#ffffff;stroke-width:0.79701;stroke-linecap:butt;stroke-linejoin:miter;stroke-miterlimit:10;stroke-dasharray:none;stroke-opacity:1" transform="matrix(1.6,0,0,-1.6,301.14827,165.7928)" />
    <path id="path63" d="m 45.35742,-24.49294 4.53543,3.85515" style="fill:none;stroke:#ffffff;stroke-width:0.79701;stroke-linecap:butt;stroke-linejoin:miter;stroke-miterlimit:10;stroke-dasharray:none;stroke-opacity:1" transform="matrix(1.6,0,0,-1.6,301.14827,165.7928)" />
    <path id="path64" d="m 46.03773,-24.49294 c 0,0.37574 -0.30458,0.68032 -0.68031,0.68032 -0.37573,0 -0.68031,-0.30458 -0.68031,-0.68032 0,-0.37573 0.30458,-0.68031 0.68031,-0.68031 0.37573,0 0.68031,0.30458 0.68031,0.68031 z" style="fill:#ffffff;fill-opacity:1;fill-rule:nonzero;stroke:none" transform="matrix(1.6,0,0,-1.6,301.14827,165.7928)" />
    <path id="path65" d="m 49.89285,-47.39832 c 0,2.5049 -2.03059,4.5355 -4.53549,4.5355 -2.50491,0 -4.53549,-2.0306 -4.53549,-4.5355" style="fill:none;stroke:#ffffff;stroke-width:0.79701;stroke-linecap:butt;stroke-linejoin:miter;stroke-miterlimit:10;stroke-dasharray:none;stroke-opacity:1" transform="matrix(1.6,0,0,-1.6,301.14827,165.7928)" />
    <path id="path66" d="m 45.35742,-47.17166 4.53543,3.85513" style="fill:none;stroke:#ffffff;stroke-width:0.79701;stroke-linecap:butt;stroke-linejoin:miter;stroke-miterlimit:10;stroke-dasharray:none;stroke-opacity:1" transform="matrix(1.6,0,0,-1.6,301.14827,165.7928)" />
    <path id="path67" d="m 46.03773,-47.17166 c 0,0.37573 -0.30458,0.68033 -0.68031,0.68033 -0.37573,0 -0.68031,-0.3046 -0.68031,-0.68033 0,-0.37574 0.30458,-0.68031 0.68031,-0.68031 0.37573,0 0.68031,0.30457 0.68031,0.68031 z" style="fill:#ffffff;fill-opacity:1;fill-rule:nonzero;stroke:none" transform="matrix(1.6,0,0,-1.6,301.14827,165.7928)" />
    <g id="g67" aria-label="Noisy&#10;magicstate&#10;encodings&#10;⎧&#10;⎪&#10;⎪&#10;⎪&#10;⎪&#10;⎪&#10;⎪&#10;⎪&#10;⎪&#10;⎪&#10;⎪&#10;⎪&#10;⎪&#10;⎪&#10;⎪&#10;⎪&#10;⎪&#10;⎪&#10;⎪&#10;⎪&#10;⎪&#10;⎪&#10;⎪&#10;⎪&#10;⎨&#10;⎪&#10;⎪&#10;⎪&#10;⎪&#10;⎪&#10;⎪&#10;⎪&#10;⎪&#10;⎪&#10;⎪&#10;⎪&#10;⎪&#10;⎪&#10;⎪&#10;⎪&#10;⎪&#10;⎪&#10;⎪&#10;⎪&#10;⎪&#10;⎪&#10;⎪&#10;⎪&#10;⎩" transform="matrix(1.6,0,0,1.6,84.220267,158.1144)">
      <path id="path68" d="M 3.387724,-6.9921875e-4 H 4.0224896 V -4.5710117 H 3.4853802 v 3.79882811 H 3.465849 L 2.918974,-1.7878086 1.2392865,-4.5710117 H 0.60452083 V -6.9921875e-4 H 1.1416302 V -3.809293 h 0.019531 l 0.5566406,1.015625 z M 6.4712201,0.07742578 c 0.8984375,0 1.5234375,-0.69335937 1.5234375,-1.76757808 0,-1.0742188 -0.625,-1.7675782 -1.5234375,-1.7675782 -0.9082032,0 -1.5234375,0.6933594 -1.5234375,1.7675782 0,1.07421871 0.6152343,1.76757808 1.5234375,1.76757808 z m 0,-0.46875 c -0.5664063,0 -0.9667969,-0.34179687 -0.9667969,-1.05468748 V -1.934293 c 0,-0.7128906 0.4003906,-1.0644531 0.9667969,-1.0644531 0.5664062,0 0.9667968,0.3515625 0.9667968,1.0644531 v 0.4882813 c 0,0.71289061 -0.4003906,1.05468748 -0.9667968,1.05468748 z M 9.1250286,-4.1706211 c 0.2246094,0 0.3222657,-0.1269531 0.3222657,-0.3027344 v -0.078125 c 0,-0.1757812 -0.097656,-0.3027343 -0.3222657,-0.3027343 -0.2246093,0 -0.3222656,0.1269531 -0.3222656,0.3027343 v 0.078125 c 0,0.1757813 0.097656,0.3027344 0.3222656,0.3027344 z M 8.8613568,-6.9921875e-4 H 9.3887005 V -3.3796055 H 8.8613568 Z M 11.517607,0.07742578 c 0.771484,0 1.25,-0.40039062 1.25,-1.0546875 0,-0.50781248 -0.283203,-0.83984378 -1.035156,-0.94726558 l -0.263672,-0.039063 c -0.419922,-0.068359 -0.644532,-0.1953125 -0.644532,-0.5273438 0,-0.3222656 0.22461,-0.5273437 0.664063,-0.5273437 0.429687,0 0.712891,0.2050781 0.869141,0.4199218 l 0.341796,-0.3222656 C 12.42581,-3.2526528 12.064482,-3.457731 11.527372,-3.457731 c -0.693359,0 -1.210937,0.3222657 -1.210937,0.9960938 0,0.625 0.46875,0.8789062 1.09375,0.9765625 l 0.263672,0.039063 c 0.449219,0.058594 0.595703,0.2636719 0.595703,0.52734373 0,0.3515625 -0.263672,0.546875 -0.712891,0.546875 -0.429687,0 -0.742187,-0.18554687 -1.005859,-0.51757812 l -0.371094,0.30273437 c 0.302735,0.40039063 0.712891,0.6640625 1.337891,0.6640625 z m 3.327636,-1.16210938 -0.185546,0.55664063 h -0.03906 L 14.464387,-1.0846836 13.65384,-3.3796055 h -0.527344 l 1.269532,3.50585941 -0.253907,0.72265625 H 13.605009 V 1.3078945 h 0.273438 c 0.498046,0 0.634765,-0.1171875 0.78125,-0.51757809 L 16.173368,-3.3796055 H 15.65579 Z M -7.7670612,7.6848477 v -2.34375 c 0,-0.4394532 0.390625,-0.6445313 0.8007813,-0.6445313 0.4980468,0 0.7324218,0.3125 0.7324218,0.9082031 v 2.0800782 h 0.5175782 v -2.34375 c 0,-0.4394532 0.3808593,-0.6445313 0.8007812,-0.6445313 0.5078125,0 0.7324219,0.3125 0.7324219,0.9082031 v 2.0800782 h 0.5273437 V 5.5168789 c 0,-0.8203125 -0.4101562,-1.2890625 -1.1035156,-1.2890625 -0.5761719,0 -0.8984375,0.3222656 -1.0253906,0.6835938 h -0.00977 C -5.9799518,4.4328945 -6.3901081,4.2278164 -6.8295612,4.2278164 c -0.5273437,0 -0.7617187,0.2832031 -0.9179687,0.625 h -0.019531 v -0.546875 h -0.5273437 v 3.3789063 z m 7.95166016,0 V 7.2258633 h -0.390625 V 5.3606289 c 0,-0.7128906 -0.47851563,-1.1328125 -1.29882816,-1.1328125 -0.6054687,0 -1.015625,0.3027344 -1.1914062,0.6542969 l 0.3125,0.3027344 c 0.1855469,-0.3125 0.4492187,-0.5078125 0.859375,-0.5078125 0.53710936,0 0.80078123,0.2636718 0.80078123,0.7421875 V 5.7512539 H -1.3974323 c -0.9863281,0 -1.4355469,0.3515625 -1.4355469,0.9863281 0,0.6347657 0.4101563,1.0253907 1.1328125,1.0253907 0.46875,0 0.83007816,-0.2148438 0.97656253,-0.625 h 0.0292969 c 0.0390625,0.3125 0.1953125,0.546875 0.5859375,0.546875 z M -1.6220417,7.3137539 c -0.4003906,0 -0.6640625,-0.1855469 -0.6640625,-0.5175781 V 6.659457 c 0,-0.3320312 0.2636719,-0.5175781 0.859375,-0.5175781 h 0.70312503 v 0.5566406 c 0,0.3515625 -0.38085933,0.6152344 -0.89843753,0.6152344 z m 5.4028321,0.7421875 c 0,-0.5566406 -0.3613282,-0.8984375 -1.2011719,-0.8984375 H 1.8569622 c -0.3027343,0 -0.5175781,-0.048828 -0.5175781,-0.2539062 0,-0.2050782 0.2246094,-0.3222657 0.4492188,-0.3808594 0.097656,0.019531 0.2148437,0.039063 0.3222656,0.039063 0.78125,0 1.2792969,-0.4785156 1.2792969,-1.171875 0,-0.3613281 -0.1367188,-0.6640625 -0.3808594,-0.8691406 V 4.3059414 H 3.6538372 V 3.846957 H 3.1460247 c -0.2832031,0 -0.390625,0.1855469 -0.390625,0.4492188 v 0.058594 C 2.5698529,4.2668789 2.3550091,4.2278164 2.1108685,4.2278164 c -0.7714844,0 -1.26953126,0.4785156 -1.26953126,1.1621094 0,0.46875 0.23437496,0.8496094 0.63476566,1.0351562 V 6.454379 C 1.134306,6.542269 0.89016536,6.6985195 0.89016536,7.0403164 c 0,0.234375 0.10742188,0.3808594 0.30273434,0.4785156 V 7.587191 C 0.86086849,7.675082 0.65579036,7.8703945 0.65579036,8.2414883 c 0,0.5273437 0.42968754,0.8300781 1.48437504,0.8300781 1.09375,0 1.640625,-0.3222656 1.640625,-1.015625 z m -0.4882813,0.039063 c 0,0.3710938 -0.3417969,0.5566406 -0.9277344,0.5566406 H 1.8764935 c -0.5273438,0 -0.7324219,-0.2441406 -0.7324219,-0.5371093 0,-0.2148438 0.097656,-0.3613282 0.3125,-0.4589844 h 1.1328125 c 0.5175781,0 0.703125,0.1757812 0.703125,0.4394531 z M 2.1108685,6.1418789 c -0.4394531,0 -0.7226563,-0.2148437 -0.7226563,-0.6542969 V 5.3020352 c 0,-0.4492188 0.2832032,-0.6542969 0.7226563,-0.6542969 0.4492187,0 0.7324219,0.2050781 0.7324219,0.6542969 V 5.487582 c 0,0.4394532 -0.2832032,0.6542969 -0.7324219,0.6542969 z M 4.6548138,3.5149258 c 0.2246094,0 0.3222656,-0.1269531 0.3222656,-0.3027344 v -0.078125 c 0,-0.1757812 -0.097656,-0.3027344 -0.3222656,-0.3027344 -0.2246094,0 -0.3222656,0.1269532 -0.3222656,0.3027344 v 0.078125 c 0,0.1757813 0.097656,0.3027344 0.3222656,0.3027344 z M 4.3911419,7.6848477 H 4.9184857 V 4.3059414 H 4.3911419 Z m 2.8979492,0.078125 c 0.6445313,0 1.0839844,-0.3125 1.2988282,-0.8007813 L 8.2070599,6.7082852 C 8.021513,7.0989102 7.709013,7.2942227 7.2890911,7.2942227 c -0.625,0 -0.9472656,-0.4199219 -0.9472656,-1.015625 V 5.7024258 c 0,-0.5859375 0.3222656,-1.015625 0.9472656,-1.015625 0.4101563,0 0.703125,0.2050781 0.8203125,0.5566406 L 8.5488568,5.018832 C 8.3535443,4.550082 7.9531536,4.2278164 7.2890911,4.2278164 c -0.9472656,0 -1.5039062,0.6835938 -1.5039062,1.7675781 0,1.0839844 0.5566406,1.7675782 1.5039062,1.7675782 z m 4.6020509,0 c 0.771484,0 1.25,-0.4003907 1.25,-1.0546875 0,-0.5078125 -0.283203,-0.8398438 -1.035156,-0.9472657 L 11.842314,5.721957 C 11.422392,5.653598 11.197783,5.5266445 11.197783,5.1946133 c 0,-0.3222656 0.224609,-0.5273438 0.664062,-0.5273438 0.429688,0 0.712891,0.2050782 0.869141,0.4199219 L 13.072783,4.7649258 C 12.799345,4.4328945 12.438017,4.2278164 11.900908,4.2278164 c -0.69336,0 -1.210938,0.3222656 -1.210938,0.9960938 0,0.625 0.46875,0.8789062 1.09375,0.9765625 l 0.263672,0.039063 c 0.449219,0.058594 0.595703,0.2636718 0.595703,0.5273437 0,0.3515625 -0.263672,0.546875 -0.712891,0.546875 -0.429687,0 -0.742187,-0.1855469 -1.005859,-0.5175781 l -0.371094,0.3027344 c 0.302735,0.4003906 0.712891,0.6640625 1.337891,0.664062 z m 3.54248,-0.078125 V 7.2258633 H 14.740263 V 4.7649258 h 0.742188 V 4.3059414 h -0.742188 v -0.9375 h -0.46875 v 0.625 c 0,0.234375 -0.07813,0.3125 -0.292969,0.3125 h -0.322265 v 0.4589844 h 0.55664 V 7.128207 c 0,0.3320313 0.205078,0.5566407 0.566407,0.5566407 z m 3.649903,0 V 7.2258633 H 18.6929 V 5.3606289 c 0,-0.7128906 -0.478516,-1.1328125 -1.298828,-1.1328125 -0.605469,0 -1.015625,0.3027344 -1.191407,0.6542969 l 0.3125,0.3027344 c 0.185547,-0.3125 0.449219,-0.5078125 0.859375,-0.5078125 0.53711,0 0.800782,0.2636718 0.800782,0.7421875 v 0.3320312 h -0.673829 c -0.986328,0 -1.435546,0.3515625 -1.435546,0.9863281 0,0.6347657 0.410156,1.0253907 1.132812,1.0253907 0.46875,0 0.830078,-0.2148438 0.976563,-0.625 h 0.0293 c 0.03906,0.3125 0.195313,0.546875 0.585938,0.546875 z M 17.276884,7.3137539 c -0.400391,0 -0.664062,-0.1855469 -0.664062,-0.5175781 V 6.659457 c 0,-0.3320312 0.263671,-0.5175781 0.859375,-0.5175781 h 0.703125 v 0.5566406 c 0,0.3515625 -0.38086,0.6152344 -0.898438,0.6152344 z m 3.95752,0.3710938 V 7.2258633 h -0.69336 V 4.7649258 h 0.742188 V 4.3059414 h -0.742188 v -0.9375 h -0.46875 v 0.625 c 0,0.234375 -0.07813,0.3125 -0.292968,0.3125 H 19.45706 v 0.4589844 h 0.556641 V 7.128207 c 0,0.3320313 0.205078,0.5566407 0.566406,0.5566407 z m 2.138672,0.078125 c 0.634765,0 1.123046,-0.3125 1.33789,-0.7714844 L 24.339872,6.7180508 c -0.175781,0.3808594 -0.507812,0.5859375 -0.927734,0.5859375 -0.634766,0 -1.005859,-0.4394531 -1.005859,-1.0253906 v -0.15625 h 2.43164 V 5.878207 c 0,-0.9570312 -0.55664,-1.6503906 -1.464843,-1.6503906 -0.917969,0 -1.513672,0.6933594 -1.513672,1.7675781 0,1.0742188 0.595703,1.7675782 1.513672,1.7675782 z m 0,-3.0957032 c 0.537109,0 0.898437,0.4003907 0.898437,0.9960938 v 0.068359 h -1.865234 v -0.048828 c 0,-0.5859375 0.40039,-1.015625 0.966797,-1.0156248 z M -5.0644245,15.450961 c 0.6347656,0 1.1230469,-0.3125 1.3378906,-0.771484 l -0.3710937,-0.273438 c -0.1757813,0.380859 -0.5078125,0.585938 -0.9277344,0.585938 -0.6347656,0 -1.0058594,-0.439454 -1.0058594,-1.025391 v -0.15625 h 2.4316407 v -0.244141 c 0,-0.957031 -0.5566407,-1.65039 -1.4648438,-1.65039 -0.9179687,0 -1.5136719,0.693359 -1.5136719,1.767578 0,1.074219 0.5957032,1.767578 1.5136719,1.767578 z m 0,-3.095703 c 0.5371094,0 0.8984375,0.40039 0.8984375,0.996094 v 0.06836 h -1.8652344 v -0.04883 c 0,-0.585938 0.4003907,-1.015625 0.9667969,-1.015625 z m 2.8564453,3.017578 v -2.34375 c 0,-0.439453 0.4003907,-0.644531 0.8203125,-0.644531 0.50781253,0 0.77148441,0.3125 0.77148441,0.908203 v 2.080078 h 0.51757812 v -2.167969 c 0,-0.820312 -0.43945312,-1.289062 -1.13281253,-1.289062 -0.4980468,0 -0.7910156,0.24414 -0.9570312,0.625 h -0.019531 V 11.99393 h -0.5273437 v 3.378906 z m 4.4555664,0.07813 c 0.6445313,0 1.0839844,-0.3125 1.2988282,-0.800781 L 3.165556,14.396273 c -0.1855469,0.390625 -0.4980469,0.585938 -0.9179688,0.585938 -0.625,0 -0.9472656,-0.419922 -0.9472656,-1.015625 v -0.576172 c 0,-0.585937 0.3222656,-1.015625 0.9472656,-1.015625 0.4101563,0 0.703125,0.205078 0.8203125,0.556641 L 3.5073529,12.70682 C 3.3120404,12.23807 2.9116497,11.915805 2.2475872,11.915805 c -0.9472656,0 -1.50390621,0.683593 -1.50390621,1.767578 0,1.083984 0.55664061,1.767578 1.50390621,1.767578 z m 3.2861329,0 c 0.8984375,0 1.5234375,-0.693359 1.5234375,-1.767578 0,-1.074219 -0.625,-1.767578 -1.5234375,-1.767578 -0.9082032,0 -1.5234375,0.693359 -1.5234375,1.767578 0,1.074219 0.6152343,1.767578 1.5234375,1.767578 z m 0,-0.46875 c -0.5664063,0 -0.9667969,-0.341797 -0.9667969,-1.054688 v -0.488281 c 0,-0.71289 0.4003906,-1.064453 0.9667969,-1.064453 0.5664062,0 0.9667968,0.351563 0.9667968,1.064453 v 0.488281 c 0,0.712891 -0.4003906,1.054688 -0.9667968,1.054688 z m 4.5483399,0.390625 h 0.527344 V 10.51932 H 10.08206 v 2.021485 h -0.01953 c -0.1757816,-0.419922 -0.5273441,-0.625 -0.9960941,-0.625 -0.8398438,0 -1.3671875,0.683593 -1.3671875,1.767578 0,1.083984 0.5273437,1.767578 1.3671875,1.767578 0.46875,0 0.7910156,-0.205078 0.9960941,-0.625 h 0.01953 z m -0.8691407,-0.39063 c -0.5859375,0 -0.9570313,-0.410156 -0.9570313,-1.015625 v -0.576172 c 0,-0.595703 0.3710938,-1.005859 0.9570313,-1.005859 0.4785156,0 0.8691407,0.273437 0.8691407,0.644531 v 1.259766 c 0,0.439453 -0.3906251,0.693359 -0.8691407,0.693359 z M 11.99124,11.202914 c 0.224609,0 0.322265,-0.126953 0.322265,-0.302734 v -0.07813 c 0,-0.175782 -0.09766,-0.302735 -0.322265,-0.302735 -0.22461,0 -0.322266,0.126953 -0.322266,0.302735 v 0.07813 c 0,0.175781 0.09766,0.302734 0.322266,0.302734 z m -0.263672,4.169922 h 0.527343 V 11.99393 h -0.527343 z m 2.165527,0 v -2.34375 c 0,-0.439453 0.400391,-0.644531 0.820313,-0.644531 0.507812,0 0.771484,0.3125 0.771484,0.908203 v 2.080078 h 0.517578 v -2.167969 c 0,-0.820312 -0.439453,-1.289062 -1.132812,-1.289062 -0.498047,0 -0.791016,0.24414 -0.957032,0.625 h -0.01953 V 11.99393 h -0.527344 v 3.378906 z m 6.047363,0.371094 c 0,-0.556641 -0.361328,-0.898438 -1.201172,-0.898438 H 18.01663 c -0.302734,0 -0.517578,-0.04883 -0.517578,-0.253906 0,-0.205078 0.224609,-0.322266 0.449219,-0.380859 0.09766,0.01953 0.214844,0.03906 0.322265,0.03906 0.78125,0 1.279297,-0.478516 1.279297,-1.171875 0,-0.361328 -0.136718,-0.664062 -0.380859,-0.869141 V 11.99393 h 0.644531 v -0.458985 h -0.507812 c -0.283203,0 -0.390625,0.185547 -0.390625,0.449219 v 0.05859 c -0.185547,-0.08789 -0.400391,-0.126953 -0.644532,-0.126953 -0.771484,0 -1.269531,0.478515 -1.269531,1.162109 0,0.46875 0.234375,0.849609 0.634766,1.035156 v 0.0293 c -0.341797,0.08789 -0.585938,0.244141 -0.585938,0.585938 0,0.234375 0.107422,0.380859 0.302735,0.478515 v 0.06836 c -0.332032,0.08789 -0.53711,0.283203 -0.53711,0.654297 0,0.527343 0.429688,0.830078 1.484375,0.830078 1.09375,0 1.640625,-0.322266 1.640625,-1.015625 z m -0.488281,0.03906 c 0,0.371094 -0.341797,0.556641 -0.927734,0.556641 h -0.488282 c -0.527343,0 -0.732421,-0.244141 -0.732421,-0.53711 0,-0.214843 0.09766,-0.361328 0.3125,-0.458984 h 1.132812 c 0.517578,0 0.703125,0.175781 0.703125,0.439453 z m -1.181641,-1.953125 c -0.439453,0 -0.722656,-0.214844 -0.722656,-0.654297 v -0.185547 c 0,-0.449218 0.283203,-0.654296 0.722656,-0.654296 0.449219,0 0.732422,0.205078 0.732422,0.654296 v 0.185547 c 0,0.439453 -0.283203,0.654297 -0.732422,0.654297 z m 3.295899,1.621094 c 0.771484,0 1.25,-0.400391 1.25,-1.054688 0,-0.507812 -0.283203,-0.839843 -1.035156,-0.947265 l -0.263672,-0.03906 c -0.419922,-0.06836 -0.644531,-0.195312 -0.644531,-0.527343 0,-0.322266 0.224609,-0.527344 0.664062,-0.527344 0.429688,0 0.712891,0.205078 0.869141,0.419922 l 0.341797,-0.322266 c -0.273438,-0.332031 -0.634766,-0.537109 -1.171875,-0.537109 -0.69336,0 -1.210938,0.322265 -1.210938,0.996093 0,0.625 0.46875,0.878907 1.09375,0.976563 l 0.263672,0.03906 c 0.449219,0.05859 0.595703,0.263672 0.595703,0.527344 0,0.351563 -0.263672,0.546875 -0.712891,0.546875 -0.429687,0 -0.742187,-0.185547 -1.005859,-0.517578 l -0.371094,0.302734 c 0.302735,0.400391 0.712891,0.664063 1.337891,0.664062 z m 0,0" style="fill:#121619;fill-opacity:1;fill-rule:nonzero;stroke:none" />
      <path id="path69" d="m 38.077665,-47.251676 v -0.371094 c -0.859375,0 -1.65039,0.576172 -1.65039,1.396485 v 2.919922 h 0.449218 v -2.919922 c 0,-0.605469 0.566407,-1.025391 1.201172,-1.025391 z m -1.65039,3.4375 v 2.490235 h 0.449218 v -2.490235 z m 0,2.050781 v 2.490235 h 0.449218 v -2.490235 z m 0,2.050782 v 2.490234 h 0.449218 v -2.490234 z m 0,2.04834 v 2.490234 h 0.449218 v -2.490234 z m 0,2.053222 v 2.490235 h 0.449218 v -2.490235 z m 0,2.04834 v 2.490234 h 0.449218 v -2.490234 z m 0,2.050781 v 2.490235 h 0.449218 v -2.490235 z m 0,2.050782 v 2.490234 h 0.449218 v -2.490234 z m 0,2.050781 v 2.490234 h 0.449218 v -2.490234 z m 0,2.04834 v 2.490234 h 0.449218 v -2.490234 z m 0,2.050781 v 2.490234 h 0.449218 v -2.490234 z m 0,2.050781 v 2.490235 h 0.449218 v -2.490235 z m 0,2.050781 v 2.490235 h 0.449218 v -2.490235 z m 0,2.050782 v 2.490234 h 0.449218 v -2.490234 z m 0,2.050781 v 2.490234 h 0.449218 v -2.490234 z m 0,2.04834 v 2.490234 h 0.449218 v -2.490234 z m 0,2.050781 v 2.4902344 h 0.449218 V -11.009 Z m 0,2.0507813 v 2.4902343 h 0.449218 v -2.4902343 z m 0,2.0507812 v 2.4902344 h 0.449218 v -2.4902344 z m 0,2.0507813 v 2.4902343 h 0.449218 v -2.4902343 z m 0,2.0507812 v 2.49023438 h 0.449218 V -2.805875 Z m 0,2.04833984 V 1.7326992 h 0.449218 v -2.49023436 z m 0,2.05078126 v 2.4902344 h 0.449218 V 1.2932461 Z m 0.449218,2.0507812 H 36.427275 V 4.447543 c 0,0.5566406 -0.527344,0.9375 -1.123047,0.9667968 h -0.07813 v 0.4003907 c 0.634765,0 1.201172,0.390625 1.201172,0.9765625 v 1.09375 h 0.449218 v -1.09375 c 0,-0.5273438 -0.3125,-0.9375 -0.771484,-1.171875 0.458984,-0.234375 0.771484,-0.6542969 0.771484,-1.1816407 z m -0.449218,4.0332032 v 2.4902343 h 0.449218 V 7.3772305 Z m 0,2.0507812 v 2.4902343 h 0.449218 V 9.4280117 Z m 0,2.0507813 v 2.490234 h 0.449218 v -2.490234 z m 0,2.050781 v 2.490235 h 0.449218 v -2.490235 z m 0,2.050781 v 2.490235 h 0.449218 v -2.490235 z m 0,2.050782 v 2.490234 h 0.449218 v -2.490234 z m 0,2.04834 v 2.490234 h 0.449218 v -2.490234 z m 0,2.050781 v 2.490234 h 0.449218 v -2.490234 z m 0,2.050781 v 2.490234 h 0.449218 v -2.490234 z m 0,2.050781 v 2.490235 h 0.449218 V 25.83182 Z m 0,2.04834 v 2.490235 h 0.449218 V 27.88016 Z m 0,2.050781 v 2.490235 h 0.449218 v -2.490235 z m 0,2.050782 v 2.490234 h 0.449218 v -2.490234 z m 0,2.050781 v 2.490234 h 0.449218 v -2.490234 z m 0,2.050781 v 2.490235 h 0.449218 v -2.490235 z m 0,2.050781 v 2.490235 h 0.449218 v -2.490235 z m 0,2.04834 v 2.490235 h 0.449218 v -2.490235 z m 0,2.050782 v 2.490234 h 0.449218 v -2.490234 z m 0,2.050781 v 2.490234 h 0.449218 v -2.490234 z m 0,2.050781 v 2.490234 h 0.449218 V 46.33475 Z m 0,2.050781 v 2.490235 h 0.449218 v -2.490235 z m 0,2.04834 v 2.490234 h 0.449218 v -2.490234 z m 0,2.050781 v 2.490235 h 0.449218 v -2.490235 z m 1.65039,6.376953 v -0.371093 c -0.634765,0 -1.201172,-0.429688 -1.201172,-1.025391 v -2.929687 h -0.449218 v 2.929687 c 0,0.820313 0.791015,1.396484 1.65039,1.396484 z m 0,0" style="fill:#121619;fill-opacity:1;fill-rule:nonzero;stroke:none" />
    </g>
    <path id="path70" d="m 3.897013,-2.5402617 c 0,-0.859375 -0.087891,-1.3769531 -0.3515625,-1.8847656 -0.3515625,-0.703125 -0.9960937,-0.8789063 -1.4355469,-0.8789063 -1.0058593,0 -1.36718745,0.7519531 -1.48437495,0.9765625 -0.28320313,0.5761719 -0.30273438,1.3671875 -0.30273438,1.7871094 0,0.5273437 0.0292969,1.328125 0.41015625,1.96289061 0.37109378,0.59570312 0.95703128,0.7421875 1.37695308,0.7421875 0.3808594,0 1.0742188,-0.1171875 1.4648438,-0.90820313 C 3.8774818,-1.3195586 3.897013,-2.0226836 3.897013,-2.5402617 Z m -1.7871094,2.48046873 c -0.2734375,0 -0.8203125,-0.12695312 -0.9863281,-0.95703123 -0.087891,-0.4589844 -0.087891,-1.2109375 -0.087891,-1.6210938 0,-0.546875 0,-1.1132812 0.087891,-1.5429687 0.1660156,-0.8203125 0.7910156,-0.8984375 0.9863281,-0.8984375 0.2734375,0 0.8203125,0.1367187 0.9863282,0.859375 0.087891,0.4394531 0.087891,1.0351562 0.087891,1.5820312 0,0.46875 0,1.1816407 -0.087891,1.6308594 -0.1757813,0.83984376 -0.7226563,0.94726563 -0.9863282,0.94726563 z m 0,0" style="fill:#121619;fill-opacity:1;fill-rule:nonzero;stroke:none" aria-label="0" transform="matrix(1.6,0,0,1.6,414.31947,133.6152)" />
    <path id="path71" d="m 3.897013,-2.5385977 c 0,-0.859375 -0.087891,-1.3769531 -0.3515625,-1.8847656 -0.3515625,-0.703125 -0.9960937,-0.8789062 -1.4355469,-0.8789062 -1.0058593,0 -1.36718745,0.7519531 -1.48437495,0.9765625 -0.28320313,0.5761718 -0.30273438,1.3671875 -0.30273438,1.7871093 0,0.5273438 0.0292969,1.328125 0.41015625,1.96289067 0.37109378,0.59570312 0.95703128,0.7421875 1.37695308,0.7421875 0.3808594,0 1.0742188,-0.1171875 1.4648438,-0.90820313 C 3.8774818,-1.3178945 3.897013,-2.0210195 3.897013,-2.5385977 Z m -1.7871094,2.48046879 c -0.2734375,0 -0.8203125,-0.12695312 -0.9863281,-0.95703129 -0.087891,-0.4589843 -0.087891,-1.2109375 -0.087891,-1.6210937 0,-0.546875 0,-1.1132813 0.087891,-1.5429688 0.1660156,-0.8203125 0.7910156,-0.8984375 0.9863281,-0.8984375 0.2734375,0 0.8203125,0.1367188 0.9863282,0.859375 0.087891,0.4394532 0.087891,1.0351563 0.087891,1.5820313 0,0.46875 0,1.1816406 -0.087891,1.6308594 -0.1757813,0.83984372 -0.7226563,0.94726559 -0.9863282,0.94726559 z m 0,0" style="fill:#121619;fill-opacity:1;fill-rule:nonzero;stroke:none" aria-label="0" transform="matrix(1.6,0,0,1.6,414.31947,169.9016)" />
    <path id="path72" d="m 3.897013,-2.539375 c 0,-0.859375 -0.087891,-1.3769531 -0.3515625,-1.8847656 -0.3515625,-0.703125 -0.9960937,-0.8789063 -1.4355469,-0.8789063 -1.0058593,0 -1.36718745,0.7519532 -1.48437495,0.9765625 -0.28320313,0.5761719 -0.30273438,1.3671875 -0.30273438,1.7871094 0,0.5273438 0.0292969,1.328125 0.41015625,1.96289063 0.37109378,0.59570312 0.95703128,0.7421875 1.37695308,0.7421875 0.3808594,0 1.0742188,-0.1171875 1.4648438,-0.90820313 0.3027344,-0.5761719 0.3222656,-1.2792969 0.3222656,-1.796875 z m -1.7871094,2.48046875 c -0.2734375,0 -0.8203125,-0.12695312 -0.9863281,-0.95703125 -0.087891,-0.4589844 -0.087891,-1.2109375 -0.087891,-1.6210937 0,-0.546875 0,-1.1132813 0.087891,-1.5429688 0.1660156,-0.8203125 0.7910156,-0.8984375 0.9863281,-0.8984375 0.2734375,0 0.8203125,0.1367188 0.9863282,0.859375 0.087891,0.4394531 0.087891,1.0351563 0.087891,1.5820313 0,0.46875 0,1.1816406 -0.087891,1.6308593 -0.1757813,0.83984378 -0.7226563,0.94726565 -0.9863282,0.94726565 z m 0,0" style="fill:#121619;fill-opacity:1;fill-rule:nonzero;stroke:none" aria-label="0" transform="matrix(1.6,0,0,1.6,414.31947,206.188)" />
    <path id="path73" d="m 3.897013,-2.5401523 c 0,-0.859375 -0.087891,-1.3769532 -0.3515625,-1.8847657 -0.3515625,-0.703125 -0.9960937,-0.8789062 -1.4355469,-0.8789062 -1.0058593,0 -1.36718745,0.7519531 -1.48437495,0.9765625 -0.28320313,0.5761719 -0.30273438,1.3671875 -0.30273438,1.7871094 0,0.5273437 0.0292969,1.328125 0.41015625,1.96289058 0.37109378,0.59570313 0.95703128,0.7421875 1.37695308,0.7421875 0.3808594,0 1.0742188,-0.1171875 1.4648438,-0.90820312 C 3.8774818,-1.3194492 3.897013,-2.0225742 3.897013,-2.5401523 Z m -1.7871094,2.48046871 c -0.2734375,0 -0.8203125,-0.12695313 -0.9863281,-0.95703121 -0.087891,-0.4589844 -0.087891,-1.2109375 -0.087891,-1.6210938 0,-0.546875 0,-1.1132812 0.087891,-1.5429687 0.1660156,-0.8203125 0.7910156,-0.8984375 0.9863281,-0.8984375 0.2734375,0 0.8203125,0.1367187 0.9863282,0.859375 0.087891,0.4394531 0.087891,1.0351562 0.087891,1.5820312 0,0.46875 0,1.1816406 -0.087891,1.6308594 -0.1757813,0.83984373 -0.7226563,0.94726561 -0.9863282,0.94726561 z m 0,0" style="fill:#121619;fill-opacity:1;fill-rule:nonzero;stroke:none" aria-label="0" transform="matrix(1.6,0,0,1.6,414.31947,242.4744)" />
    <g id="g73" aria-label="}&#10;Less-noisy&#10;magicstate&#10;encoding" transform="matrix(1.6,0,0,1.6,456.14027,96.2296)">
      <path id="path74" d="m 0.62522396,5.9087461 v 0.3710937 c 0.81054684,0 1.52343754,-0.546875 1.52343754,-1.3183593 v -5.78125003 c 0,-0.53710937 0.5175781,-0.89843747 1.0839843,-0.89843747 V -2.1185977 H 3.1545208 C 2.6174115,-2.1478945 2.1486615,-2.499457 2.1486615,-3.0072695 v -5.8007813 c 0,-0.7617187 -0.7128907,-1.3085942 -1.52343754,-1.3085942 v 0.3710942 c 0.57617184,0 1.07421874,0.4003906 1.07421874,0.9375 v 5.8007813 c 0,0.4882812 0.2929688,0.8691406 0.703125,1.09375 -0.4101562,0.2148437 -0.703125,0.6054687 -0.703125,1.09374997 V 4.9614805 c 0,0.546875 -0.4980469,0.9472656 -1.07421874,0.9472656 z m 0,0" style="fill:#121619;fill-opacity:1;fill-rule:nonzero;stroke:none" />
      <path id="path75" d="m 17.871318,-7.4603945 v -0.4882813 h -1.94336 v -4.0820312 h -0.55664 v 4.5703125 z m 1.948242,0.078125 c 0.634766,0 1.123047,-0.3125 1.337891,-0.7714844 l -0.371094,-0.2734375 c -0.175781,0.3808594 -0.507813,0.5859375 -0.927735,0.5859375 -0.634765,0 -1.005859,-0.4394531 -1.005859,-1.0253906 v -0.15625 h 2.431641 v -0.2441407 c 0,-0.9570308 -0.556641,-1.6503908 -1.464844,-1.6503908 -0.917969,0 -1.513672,0.69336 -1.513672,1.7675783 0,1.0742188 0.595703,1.7675782 1.513672,1.7675782 z m 0,-3.0957035 c 0.537109,0 0.898437,0.400391 0.898437,0.9960941 v 0.068359 h -1.865234 v -0.048828 c 0,-0.5859371 0.400391,-1.0156251 0.966797,-1.0156251 z m 3.344726,3.0957035 c 0.771485,0 1.25,-0.4003907 1.25,-1.0546875 0,-0.5078125 -0.283203,-0.8398438 -1.035156,-0.9472657 l -0.263672,-0.039063 c -0.419922,-0.068359 -0.644531,-0.1953125 -0.644531,-0.5273437 0,-0.3222656 0.224609,-0.5273436 0.664063,-0.5273436 0.429687,0 0.71289,0.205078 0.86914,0.419922 l 0.341797,-0.322265 c -0.273437,-0.332032 -0.634766,-0.53711 -1.171875,-0.53711 -0.693359,0 -1.210937,0.322266 -1.210937,0.9960935 0,0.625 0.46875,0.8789062 1.09375,0.9765625 l 0.263671,0.039063 c 0.449219,0.058594 0.595704,0.2636718 0.595704,0.5273437 0,0.3515625 -0.263672,0.546875 -0.712891,0.546875 -0.429688,0 -0.742188,-0.1855469 -1.005859,-0.5175781 l -0.371094,0.3027344 c 0.302734,0.4003906 0.71289,0.6640625 1.33789,0.6640625 z m 3.151856,0 c 0.771484,0 1.25,-0.4003907 1.25,-1.0546875 0,-0.5078125 -0.283203,-0.8398438 -1.035156,-0.9472657 l -0.263672,-0.039063 c -0.419922,-0.068359 -0.644531,-0.1953125 -0.644531,-0.5273437 0,-0.3222656 0.224609,-0.5273436 0.664062,-0.5273436 0.429688,0 0.712891,0.205078 0.869141,0.419922 l 0.341797,-0.322265 c -0.273438,-0.332032 -0.634766,-0.53711 -1.171875,-0.53711 -0.69336,0 -1.210938,0.322266 -1.210938,0.9960935 0,0.625 0.46875,0.8789062 1.09375,0.9765625 l 0.263672,0.039063 c 0.449219,0.058594 0.595703,0.2636718 0.595703,0.5273437 0,0.3515625 -0.263672,0.546875 -0.712891,0.546875 -0.429687,0 -0.742187,-0.1855469 -1.005859,-0.5175781 l -0.371094,0.3027344 c 0.302735,0.4003906 0.712891,0.6640625 1.337891,0.6640625 z m 3.713379,-1.7871094 v -0.5664063 h -1.708985 v 0.5664063 z m 1.540527,1.7089844 v -2.34375 c 0,-0.4394535 0.400391,-0.6445315 0.820313,-0.6445315 0.507812,0 0.771484,0.3125 0.771484,0.9082033 v 2.0800782 h 0.517578 v -2.1679688 c 0,-0.8203127 -0.439453,-1.2890627 -1.132812,-1.2890627 -0.498047,0 -0.791016,0.244141 -0.957032,0.625 h -0.01953 v -0.546875 h -0.527344 v 3.3789065 z m 4.475098,0.078125 c 0.898437,0 1.523437,-0.6933594 1.523437,-1.7675782 0,-1.0742183 -0.625,-1.7675783 -1.523437,-1.7675783 -0.908203,0 -1.523438,0.69336 -1.523438,1.7675783 0,1.0742188 0.615235,1.7675782 1.523438,1.7675782 z m 0,-0.46875 c -0.566406,0 -0.966797,-0.3417969 -0.966797,-1.0546875 v -0.4882813 c 0,-0.7128907 0.400391,-1.0644527 0.966797,-1.0644527 0.566406,0 0.966797,0.351562 0.966797,1.0644527 v 0.4882813 c 0,0.7128906 -0.400391,1.0546875 -0.966797,1.0546875 z m 2.65625,-3.7792965 c 0.224609,0 0.322265,-0.126954 0.322265,-0.302735 v -0.07813 c 0,-0.175781 -0.09766,-0.302734 -0.322265,-0.302734 -0.22461,0 -0.322266,0.126953 -0.322266,0.302734 v 0.07813 c 0,0.175781 0.09766,0.302735 0.322266,0.302735 z m -0.263672,4.1699215 h 0.527344 v -3.3789065 h -0.527344 z m 2.653809,0.078125 c 0.771484,0 1.25,-0.4003907 1.25,-1.0546875 0,-0.5078125 -0.283204,-0.8398438 -1.035157,-0.9472657 l -0.263672,-0.039063 c -0.419921,-0.068359 -0.644531,-0.1953125 -0.644531,-0.5273437 0,-0.3222656 0.22461,-0.5273436 0.664063,-0.5273436 0.429687,0 0.71289,0.205078 0.86914,0.419922 l 0.341797,-0.322265 c -0.273437,-0.332032 -0.634765,-0.53711 -1.171875,-0.53711 -0.693359,0 -1.210937,0.322266 -1.210937,0.9960935 0,0.625 0.46875,0.8789062 1.09375,0.9765625 l 0.263672,0.039063 c 0.449218,0.058594 0.595703,0.2636718 0.595703,0.5273437 0,0.3515625 -0.263672,0.546875 -0.712891,0.546875 -0.429687,0 -0.742187,-0.1855469 -1.005859,-0.5175781 l -0.371094,0.3027344 c 0.302734,0.4003906 0.712891,0.6640625 1.337891,0.6640625 z m 3.330078,-1.1621094 -0.185547,0.5566406 h -0.03906 l -0.15625,-0.5566406 -0.810547,-2.2949221 h -0.527343 l 1.269531,3.5058596 -0.253906,0.7226562 h -0.53711 v 0.4589844 h 0.273438 c 0.498047,0 0.634765,-0.1171875 0.78125,-0.5175781 l 1.513672,-4.1699221 H 45.232158 Z M 14.402079,0.22515234 V -2.1185977 c 0,-0.4394531 0.390625,-0.6445312 0.800782,-0.6445312 0.498047,0 0.732422,0.3125 0.732422,0.9082031 v 2.08007814 h 0.517578 V -2.1185977 c 0,-0.4394531 0.380859,-0.6445312 0.800781,-0.6445312 0.507812,0 0.732422,0.3125 0.732422,0.9082031 v 2.08007814 h 0.527344 V -1.9428164 c 0,-0.8203125 -0.410157,-1.2890625 -1.103516,-1.2890625 -0.576172,0 -0.898438,0.3222656 -1.025391,0.6835937 h -0.0098 c -0.185547,-0.4785156 -0.595703,-0.6835937 -1.035157,-0.6835937 -0.527343,0 -0.761718,0.2832031 -0.917968,0.625 h -0.01953 v -0.546875 h -0.527343 v 3.37890624 z m 7.949219,0 V -0.23383203 H 21.960673 V -2.0990664 c 0,-0.7128906 -0.478515,-1.1328125 -1.298828,-1.1328125 -0.605469,0 -1.015625,0.3027344 -1.191406,0.6542969 l 0.3125,0.3027343 c 0.185547,-0.3125 0.449219,-0.5078125 0.859375,-0.5078125 0.537109,0 0.800781,0.2636719 0.800781,0.7421875 v 0.3320313 h -0.673828 c -0.986328,0 -1.435547,0.3515625 -1.435547,0.98632812 0,0.63476562 0.410156,1.02539062 1.132813,1.02539062 0.46875,0 0.830078,-0.21484375 0.976562,-0.625 h 0.0293 c 0.03906,0.3125 0.195312,0.546875 0.585937,0.546875 z m -1.80664,-0.37109375 c -0.400391,0 -0.664063,-0.18554687 -0.664063,-0.51757812 v -0.13671875 c 0,-0.33203122 0.263672,-0.51757812 0.859375,-0.51757812 h 0.703125 v 0.55664062 c 0,0.3515625 -0.380859,0.61523437 -0.898437,0.61523437 z m 5.405273,0.7421875 c 0,-0.55664062 -0.361328,-0.8984375 -1.201172,-0.8984375 h -0.722656 c -0.302735,0 -0.517578,-0.0488281 -0.517578,-0.25390625 0,-0.20507812 0.224609,-0.32226562 0.449218,-0.38085937 0.09766,0.0195313 0.214844,0.0390625 0.322266,0.0390625 0.78125,0 1.279297,-0.47851567 1.279297,-1.17187497 0,-0.3613282 -0.136719,-0.6640625 -0.380859,-0.8691407 v -0.2148437 h 0.644531 v -0.4589844 h -0.507813 c -0.283203,0 -0.390625,0.1855469 -0.390625,0.4492188 v 0.058594 c -0.185547,-0.087891 -0.40039,-0.1269531 -0.644531,-0.1269531 -0.771484,0 -1.269531,0.4785156 -1.269531,1.1621094 0,0.46875 0.234375,0.8496093 0.634765,1.0351562 v 0.029297 c -0.341796,0.0878906 -0.585937,0.24414062 -0.585937,0.58593749 0,0.234375 0.107422,0.38085938 0.302734,0.47851563 v 0.06835937 c -0.332031,0.0878906 -0.537109,0.28320313 -0.537109,0.65429688 0,0.52734373 0.429687,0.83007813 1.484375,0.83007813 1.09375,0 1.640625,-0.3222656 1.640625,-1.01562541 z m -0.488281,0.0390625 c 0,0.37109371 -0.341797,0.55664061 -0.927735,0.55664061 h -0.488281 c -0.527344,0 -0.732422,-0.24414061 -0.732422,-0.53710936 0,-0.21484375 0.09766,-0.36132812 0.3125,-0.45898437 h 1.132813 c 0.517578,0 0.703125,0.17578125 0.703125,0.43945312 z M 24.280009,-1.3178164 c -0.439453,0 -0.722656,-0.2148438 -0.722656,-0.6542969 v -0.1855469 c 0,-0.4492187 0.283203,-0.6542968 0.722656,-0.6542968 0.449219,0 0.732422,0.2050781 0.732422,0.6542968 v 0.1855469 c 0,0.4394531 -0.283203,0.6542969 -0.732422,0.6542969 z m 2.543945,-2.6269531 c 0.22461,0 0.322266,-0.1269532 0.322266,-0.3027344 v -0.078125 c 0,-0.1757813 -0.09766,-0.3027344 -0.322266,-0.3027344 -0.224609,0 -0.322265,0.1269531 -0.322265,0.3027344 v 0.078125 c 0,0.1757812 0.09766,0.3027344 0.322265,0.3027344 z m -0.263671,4.16992184 h 0.527343 V -3.1537539 h -0.527343 z m 2.897949,0.078125 c 0.644531,0 1.083984,-0.3125 1.298828,-0.80078125 l -0.380859,-0.25390625 c -0.185547,0.390625 -0.498047,0.5859375 -0.917969,0.5859375 -0.625,0 -0.947266,-0.41992187 -0.947266,-1.01562504 v -0.5761718 c 0,-0.5859375 0.322266,-1.015625 0.947266,-1.015625 0.410156,0 0.703125,0.2050781 0.820312,0.5566406 l 0.439453,-0.2246094 c -0.195312,-0.46875 -0.595703,-0.7910156 -1.259765,-0.7910156 -0.947266,0 -1.503906,0.6835937 -1.503906,1.7675781 0,1.08398439 0.55664,1.76757814 1.503906,1.76757814 z m 4.599609,0 c 0.771485,0 1.25,-0.40039062 1.25,-1.0546875 0,-0.50781254 -0.283203,-0.83984374 -1.035156,-0.94726564 l -0.263672,-0.039063 c -0.419922,-0.068359 -0.644531,-0.1953125 -0.644531,-0.5273437 0,-0.3222657 0.224609,-0.5273438 0.664062,-0.5273438 0.429688,0 0.712891,0.2050781 0.869141,0.4199219 L 35.239482,-2.69477 c -0.273438,-0.3320313 -0.634766,-0.5371094 -1.171875,-0.5371094 -0.69336,0 -1.210938,0.3222656 -1.210938,0.9960937 0,0.625 0.46875,0.8789063 1.09375,0.9765625 l 0.263672,0.039063 c 0.449219,0.058594 0.595703,0.26367192 0.595703,0.52734379 0,0.3515625 -0.263672,0.546875 -0.71289,0.546875 -0.429688,0 -0.742188,-0.18554687 -1.00586,-0.51757812 l -0.371093,0.30273437 c 0.302734,0.40039063 0.71289,0.6640625 1.33789,0.6640625 z m 3.544922,-0.078125 V -0.23383203 H 36.909404 V -2.6947695 h 0.742187 v -0.4589844 h -0.742187 v -0.9375 h -0.46875 v 0.625 c 0,0.234375 -0.07813,0.3125 -0.292969,0.3125 h -0.322266 v 0.4589844 h 0.556641 v 2.36328122 c 0,0.33203124875 0.205078,0.55664062 0.566406,0.55664062 z m 3.647461,0 V -0.23383203 H 40.859599 V -2.0990664 c 0,-0.7128906 -0.478516,-1.1328125 -1.298828,-1.1328125 -0.605469,0 -1.015625,0.3027344 -1.191406,0.6542969 l 0.3125,0.3027343 c 0.185546,-0.3125 0.449218,-0.5078125 0.859375,-0.5078125 0.537109,0 0.800781,0.2636719 0.800781,0.7421875 v 0.3320313 h -0.673828 c -0.986328,0 -1.435547,0.3515625 -1.435547,0.98632812 0,0.63476562 0.410156,1.02539062 1.132812,1.02539062 0.46875,0 0.830078,-0.21484375 0.976563,-0.625 h 0.0293 c 0.03906,0.3125 0.195312,0.546875 0.585937,0.546875 z m -1.806641,-0.37109375 c -0.40039,0 -0.664062,-0.18554687 -0.664062,-0.51757812 v -0.13671875 c 0,-0.33203122 0.263672,-0.51757812 0.859375,-0.51757812 h 0.703125 v 0.55664062 c 0,0.3515625 -0.38086,0.61523437 -0.898438,0.61523437 z m 3.959961,0.37109375 V -0.23383203 H 42.710185 V -2.6947695 h 0.742187 v -0.4589844 h -0.742187 v -0.9375 h -0.46875 v 0.625 c 0,0.234375 -0.07813,0.3125 -0.292969,0.3125 h -0.322265 v 0.4589844 h 0.55664 v 2.36328122 c 0,0.33203124875 0.205078,0.55664062 0.566406,0.55664062 z m 2.138672,0.078125 c 0.634766,0 1.123047,-0.3125 1.337891,-0.77148437 l -0.371094,-0.2734375 c -0.175781,0.38085937 -0.507812,0.5859375 -0.927734,0.5859375 -0.634766,0 -1.00586,-0.43945313 -1.00586,-1.02539067 v -0.15625 h 2.431641 v -0.2441406 c 0,-0.9570312 -0.556641,-1.6503906 -1.464844,-1.6503906 -0.917969,0 -1.513672,0.6933594 -1.513672,1.7675781 0,1.07421877 0.595703,1.76757814 1.513672,1.76757814 z m 0,-3.09570314 c 0.53711,0 0.898438,0.4003906 0.898438,0.9960938 v 0.068359 h -1.865235 v -0.048828 c 0,-0.5859375 0.400391,-1.015625 0.966797,-1.0156248 z M 18.701396,7.9912656 c 0.634765,0 1.123047,-0.3125 1.33789,-0.7714843 L 19.668193,6.9463438 c -0.175782,0.3808593 -0.507813,0.5859375 -0.927735,0.5859375 -0.634765,0 -1.005859,-0.4394532 -1.005859,-1.0253907 v -0.15625 H 20.16624 V 6.1065 c 0,-0.9570312 -0.556641,-1.6503906 -1.464844,-1.6503906 -0.917969,0 -1.513672,0.6933594 -1.513672,1.7675781 0,1.0742188 0.595703,1.7675781 1.513672,1.7675781 z m 0,-3.0957031 c 0.537109,0 0.898437,0.4003906 0.898437,0.9960938 v 0.068359 h -1.865234 v -0.048828 c 0,-0.5859375 0.400391,-1.015625 0.966797,-1.0156248 z m 2.856445,3.0175781 v -2.34375 c 0,-0.4394531 0.400391,-0.6445312 0.820313,-0.6445312 0.507812,0 0.771484,0.3125 0.771484,0.9082031 v 2.0800781 h 0.517578 V 5.7451719 c 0,-0.8203125 -0.439453,-1.2890625 -1.132812,-1.2890625 -0.498047,0 -0.791016,0.2441406 -0.957032,0.625 h -0.01953 v -0.546875 h -0.527344 v 3.3789062 z m 4.455567,0.078125 c 0.644531,0 1.083984,-0.3125 1.298828,-0.8007812 l -0.38086,-0.2539063 c -0.185547,0.390625 -0.498047,0.5859375 -0.917968,0.5859375 -0.625,0 -0.947266,-0.4199218 -0.947266,-1.015625 V 5.9307188 c 0,-0.5859375 0.322266,-1.015625 0.947266,-1.015625 0.410156,0 0.703125,0.2050781 0.820312,0.5566406 L 27.273173,5.247125 C 27.077861,4.778375 26.67747,4.4561094 26.013408,4.4561094 c -0.947266,0 -1.503907,0.6835937 -1.503907,1.7675781 0,1.0839844 0.556641,1.7675781 1.503907,1.7675781 z m 3.278808,0 c 0.898438,0 1.523438,-0.6933593 1.523438,-1.7675781 0,-1.0742187 -0.625,-1.7675781 -1.523438,-1.7675781 -0.908203,0 -1.523437,0.6933594 -1.523437,1.7675781 0,1.0742188 0.615234,1.7675781 1.523437,1.7675781 z m 0,-0.46875 c -0.566406,0 -0.966797,-0.3417968 -0.966797,-1.0546875 V 5.9795469 c 0,-0.7128906 0.400391,-1.0644531 0.966797,-1.0644531 0.566406,0 0.966797,0.3515625 0.966797,1.0644531 v 0.4882812 c 0,0.7128907 -0.400391,1.0546875 -0.966797,1.0546875 z m 4.54834,0.390625 H 34.3679 V 3.059625 h -0.527344 v 2.0214844 h -0.01953 c -0.175782,-0.4199219 -0.527344,-0.625 -0.996094,-0.625 -0.839844,0 -1.367188,0.6835937 -1.367188,1.7675781 0,1.0839844 0.527344,1.7675781 1.367188,1.7675781 0.46875,0 0.791016,-0.2050781 0.996094,-0.625 h 0.01953 z m -0.869141,-0.390625 c -0.585937,0 -0.957031,-0.4101562 -0.957031,-1.015625 V 5.9307188 c 0,-0.5957032 0.371094,-1.0058594 0.957031,-1.0058594 0.478516,0 0.869141,0.2734375 0.869141,0.6445312 v 1.2597657 c 0,0.4394531 -0.390625,0.6933593 -0.869141,0.6933593 z m 2.778321,-3.7792968 c 0.224609,0 0.322265,-0.1269532 0.322265,-0.3027344 v -0.078125 c 0,-0.1757813 -0.09766,-0.3027344 -0.322265,-0.3027344 -0.22461,0 -0.322266,0.1269531 -0.322266,0.3027344 v 0.078125 c 0,0.1757812 0.09766,0.3027344 0.322266,0.3027344 z m -0.263672,4.1699218 h 0.527344 V 4.5342344 h -0.527344 z m 2.165527,0 v -2.34375 c 0,-0.4394531 0.400391,-0.6445312 0.820313,-0.6445312 0.507812,0 0.771484,0.3125 0.771484,0.9082031 v 2.0800781 h 0.517578 V 5.7451719 c 0,-0.8203125 -0.439453,-1.2890625 -1.132812,-1.2890625 -0.498047,0 -0.791016,0.2441406 -0.957032,0.625 h -0.01953 v -0.546875 h -0.527344 v 3.3789062 z m 6.047363,0.3710938 c 0,-0.5566406 -0.361328,-0.8984375 -1.201171,-0.8984375 h -0.722657 c -0.302734,0 -0.517578,-0.048828 -0.517578,-0.2539063 0,-0.2050781 0.22461,-0.3222656 0.449219,-0.3808593 0.09766,0.019531 0.214844,0.039063 0.322266,0.039063 0.78125,0 1.279296,-0.4785157 1.279296,-1.171875 0,-0.3613282 -0.136718,-0.6640625 -0.380859,-0.8691407 V 4.5342344 h 0.644531 V 4.07525 h -0.507812 c -0.283203,0 -0.390625,0.1855469 -0.390625,0.4492188 v 0.058594 c -0.185547,-0.087891 -0.400391,-0.1269531 -0.644531,-0.1269531 -0.771485,0 -1.269532,0.4785156 -1.269532,1.1621094 0,0.46875 0.234375,0.8496093 0.634766,1.0351562 v 0.029297 c -0.341797,0.087891 -0.585938,0.2441406 -0.585938,0.5859375 0,0.234375 0.107422,0.3808594 0.302735,0.4785156 v 0.068359 c -0.332031,0.087891 -0.53711,0.2832031 -0.53711,0.6542969 0,0.5273437 0.429688,0.8300781 1.484375,0.8300781 1.09375,0 1.640625,-0.3222656 1.640625,-1.015625 z m -0.488281,0.039063 c 0,0.3710937 -0.341797,0.5566406 -0.927734,0.5566406 h -0.488281 c -0.527344,0 -0.732422,-0.2441406 -0.732422,-0.5371094 0,-0.2148437 0.09766,-0.3613281 0.3125,-0.4589843 h 1.132812 c 0.517578,0 0.703125,0.1757812 0.703125,0.4394531 z m -1.18164,-1.953125 c -0.439454,0 -0.722657,-0.2148438 -0.722657,-0.6542969 V 5.5303281 c 0,-0.4492187 0.283203,-0.6542968 0.722657,-0.6542968 0.449218,0 0.732421,0.2050781 0.732421,0.6542968 V 5.715875 c 0,0.4394531 -0.283203,0.6542969 -0.732421,0.6542974 z m 0,0" style="fill:#121619;fill-opacity:1;fill-rule:nonzero;stroke:none" />
    </g>
  </g>
</svg>