<svg width="760" height="302" viewBox="0 0 760 302" fill="none" xmlns="http://www.w3.org/2000/svg">
<rect width="760" height="302" fill="#21272A"/>
<rect x="585" y="198" width="36" height="36" fill="#EE5396"/>
<path d="M600.209 209.758H600.814L605.385 220.285C605.469 220.474 605.603 220.799 605.785 221.262C606.039 221.887 606.306 222.307 606.586 222.521C606.866 222.736 607.318 222.85 607.943 222.863V223.312H602.24V222.863C602.95 222.863 603.425 222.811 603.666 222.707C603.913 222.603 604.037 222.404 604.037 222.111C604.037 221.923 603.884 221.48 603.578 220.783L599.77 211.994L596.713 219.309C596.199 220.533 595.941 221.33 595.941 221.701C595.941 222.45 596.472 222.837 597.533 222.863V223.312H593.49V222.863C593.9 222.85 594.262 222.704 594.574 222.424C594.887 222.144 595.157 221.734 595.385 221.193L596.273 219.113L600.209 209.758ZM609.293 226H608.737L610.081 219.299H612.481C613.556 219.299 614.055 219.952 614.055 220.835C614.055 222.131 613.229 223.053 611.895 223.053H609.889L609.293 226ZM610.532 219.798L609.994 222.554H611.981C612.749 222.554 613.239 222.131 613.373 221.44C613.46 221.027 613.479 220.883 613.479 220.749C613.479 220.202 613.191 219.798 612.433 219.798H610.532Z" fill="white"/>
<path d="M237 73H229" stroke="#C1C7CD" stroke-width="1.03617"/>
<path d="M237 77H229" stroke="#C1C7CD" stroke-width="1.03617"/>
<path d="M237 81H229" stroke="#C1C7CD" stroke-width="1.03617"/>
<path d="M225 77L69 77" stroke="#C1C7CD" stroke-width="1.03617"/>
<path d="M303 77L241 77" stroke="#C1C7CD" stroke-width="1.03617"/>
<rect x="77" y="59" width="36" height="36" fill="#0F62FE"/>
<path d="M91.2006 84H90.0406L92.8406 70.04H97.8406C100.081 70.04 101.121 71.4 101.121 73.24C101.121 75.94 99.4006 77.86 96.6206 77.86H92.4406L91.2006 84ZM93.7806 71.08L92.6606 76.82H96.8006C98.4006 76.82 99.4206 75.94 99.7006 74.5C99.8806 73.64 99.9206 73.34 99.9206 73.06C99.9206 71.92 99.3206 71.08 97.7406 71.08H93.7806Z" fill="white"/>
<rect x="181" y="59" width="36" height="36" fill="#0F62FE"/>
<path d="M195.201 84H194.041L196.841 70.04H201.841C204.081 70.04 205.121 71.4 205.121 73.24C205.121 75.94 203.401 77.86 200.621 77.86H196.441L195.201 84ZM197.781 71.08L196.661 76.82H200.801C202.401 76.82 203.421 75.94 203.701 74.5C203.881 73.64 203.921 73.34 203.921 73.06C203.921 71.92 203.321 71.08 201.741 71.08H197.781Z" fill="white"/>
<rect x="129" y="59" width="36" height="36" fill="#EE5396"/>
<path d="M146.521 69.7578H147.127L151.697 80.2852C151.782 80.474 151.915 80.7995 152.098 81.2617C152.352 81.8867 152.618 82.3066 152.898 82.5215C153.178 82.7363 153.631 82.8503 154.256 82.8633V83.3125H148.553V82.8633C149.262 82.8633 149.738 82.8112 149.979 82.707C150.226 82.6029 150.35 82.4043 150.35 82.1113C150.35 81.9225 150.197 81.4798 149.891 80.7832L146.082 71.9941L143.025 79.3086C142.511 80.5326 142.254 81.3301 142.254 81.7012C142.254 82.4499 142.785 82.8372 143.846 82.8633V83.3125H139.803V82.8633C140.213 82.8503 140.574 82.7038 140.887 82.4238C141.199 82.1439 141.469 81.7337 141.697 81.1934L142.586 79.1133L146.521 69.7578Z" fill="white"/>
<rect x="253" y="59" width="36" height="36" fill="#EE5396"/>
<path d="M268.209 70.7578H268.814L273.385 81.2852C273.469 81.474 273.603 81.7995 273.785 82.2617C274.039 82.8867 274.306 83.3066 274.586 83.5215C274.866 83.7363 275.318 83.8503 275.943 83.8633V84.3125H270.24V83.8633C270.95 83.8633 271.425 83.8112 271.666 83.707C271.913 83.6029 272.037 83.4043 272.037 83.1113C272.037 82.9225 271.884 82.4798 271.578 81.7832L267.77 72.9941L264.713 80.3086C264.199 81.5326 263.941 82.3301 263.941 82.7012C263.941 83.4499 264.472 83.8372 265.533 83.8633V84.3125H261.49V83.8633C261.9 83.8503 262.262 83.7038 262.574 83.4238C262.887 83.1439 263.157 82.7337 263.385 82.1934L264.273 80.1133L268.209 70.7578ZM277.293 87H276.737L278.081 80.2992H280.481C281.556 80.2992 282.055 80.952 282.055 81.8352C282.055 83.1312 281.229 84.0528 279.895 84.0528H277.889L277.293 87ZM278.532 80.7984L277.994 83.5536H279.981C280.749 83.5536 281.239 83.1312 281.373 82.44C281.46 82.0272 281.479 81.8832 281.479 81.7488C281.479 81.2016 281.191 80.7984 280.433 80.7984H278.532Z" fill="white"/>
<path d="M237 143H229" stroke="#C1C7CD" stroke-width="1.03617"/>
<path d="M237 147H229" stroke="#C1C7CD" stroke-width="1.03617"/>
<path d="M237 151H229" stroke="#C1C7CD" stroke-width="1.03617"/>
<path d="M552 213H544" stroke="#C1C7CD" stroke-width="1.03617"/>
<path d="M552 217H544" stroke="#C1C7CD" stroke-width="1.03617"/>
<path d="M552 221H544" stroke="#C1C7CD" stroke-width="1.03617"/>
<path d="M225 147L69 147" stroke="#C1C7CD" stroke-width="1.03617"/>
<path d="M303 147L241 147" stroke="#C1C7CD" stroke-width="1.03617"/>
<rect x="77" y="129" width="36" height="36" fill="#0F62FE"/>
<path d="M91.2006 154H90.0406L92.8406 140.04H97.8406C100.081 140.04 101.121 141.4 101.121 143.24C101.121 145.94 99.4006 147.86 96.6206 147.86H92.4406L91.2006 154ZM93.7806 141.08L92.6606 146.82H96.8006C98.4006 146.82 99.4206 145.94 99.7006 144.5C99.8806 143.64 99.9206 143.34 99.9206 143.06C99.9206 141.92 99.3206 141.08 97.7406 141.08H93.7806Z" fill="white"/>
<rect x="181" y="129" width="36" height="36" fill="#0F62FE"/>
<path d="M193.279 154H192.119L194.919 140.04H199.919C202.159 140.04 203.199 141.4 203.199 143.24C203.199 145.94 201.479 147.86 198.699 147.86H194.519L193.279 154ZM195.859 141.08L194.739 146.82H198.879C200.479 146.82 201.499 145.94 201.779 144.5C201.959 143.64 201.999 143.34 201.999 143.06C201.999 141.92 201.399 141.08 199.819 141.08H195.859ZM205.538 146.44H204.058L205.178 140.04H206.658L205.538 146.44Z" fill="white"/>
<rect x="129.5" y="129.5" width="35" height="35" fill="white" stroke="black"/>
<path d="M143.918 141.04H145.538L143.818 149.62C143.698 150.22 143.658 150.62 143.658 151.06C143.658 152.76 144.638 153.78 146.218 153.78C148.458 153.78 149.658 152.56 150.298 149.32L151.958 141.04H153.578L151.898 149.44C151.038 153.72 149.358 155.24 146.038 155.24C143.558 155.24 142.078 153.76 142.078 151.22C142.078 150.6 142.138 149.92 142.298 149.12L143.918 141.04Z" fill="black"/>
<path d="M556 147L452 147" stroke="#C1C7CD" stroke-width="1.03617"/>
<rect x="511" y="129" width="36" height="36" fill="#0F62FE"/>
<path d="M523.279 154H522.119L524.919 140.04H529.919C532.159 140.04 533.199 141.4 533.199 143.24C533.199 145.94 531.479 147.86 528.699 147.86H524.519L523.279 154ZM525.859 141.08L524.739 146.82H528.879C530.479 146.82 531.499 145.94 531.779 144.5C531.959 143.64 531.999 143.34 531.999 143.06C531.999 141.92 531.399 141.08 529.819 141.08H525.859ZM535.538 146.44H534.058L535.178 140.04H536.658L535.538 146.44Z" fill="white"/>
<rect x="459.5" y="129.5" width="35" height="35" fill="white" stroke="black"/>
<path d="M473.918 141.04H475.538L473.818 149.62C473.698 150.22 473.658 150.62 473.658 151.06C473.658 152.76 474.638 153.78 476.218 153.78C478.458 153.78 479.658 152.56 480.298 149.32L481.958 141.04H483.578L481.898 149.44C481.038 153.72 479.358 155.24 476.038 155.24C473.558 155.24 472.078 153.76 472.078 151.22C472.078 150.6 472.138 149.92 472.298 149.12L473.918 141.04Z" fill="black"/>
<rect x="253.5" y="129.5" width="35" height="35" fill="white" stroke="black"/>
<path d="M267.918 140.04H269.538L267.818 148.62C267.698 149.22 267.658 149.62 267.658 150.06C267.658 151.76 268.638 152.78 270.218 152.78C272.458 152.78 273.658 151.56 274.298 148.32L275.958 140.04H277.578L275.898 148.44C275.038 152.72 273.358 154.24 270.038 154.24C267.558 154.24 266.078 152.76 266.078 150.22C266.078 149.6 266.138 148.92 266.298 148.12L267.918 140.04Z" fill="black"/>
<path d="M448 143H440" stroke="#C1C7CD" stroke-width="1.03617"/>
<path d="M448 147H440" stroke="#C1C7CD" stroke-width="1.03617"/>
<path d="M448 151H440" stroke="#C1C7CD" stroke-width="1.03617"/>
<path d="M436 147H332" stroke="#C1C7CD" stroke-width="1.03617"/>
<rect x="340" y="129" width="36" height="36" fill="#0F62FE"/>
<path d="M354.201 154H353.041L355.841 140.04H360.841C363.081 140.04 364.121 141.4 364.121 143.24C364.121 145.94 362.401 147.86 359.621 147.86H355.441L354.201 154ZM356.781 141.08L355.661 146.82H359.801C361.401 146.82 362.421 145.94 362.701 144.5C362.881 143.64 362.921 143.34 362.921 143.06C362.921 141.92 362.321 141.08 360.741 141.08H356.781Z" fill="white"/>
<rect x="392.5" y="129.5" width="35" height="35" fill="white" stroke="black"/>
<path d="M406.918 141.04H408.538L406.818 149.62C406.698 150.22 406.658 150.62 406.658 151.06C406.658 152.76 407.638 153.78 409.218 153.78C411.458 153.78 412.658 152.56 413.298 149.32L414.958 141.04H416.578L414.898 149.44C414.038 153.72 412.358 155.24 409.038 155.24C406.558 155.24 405.078 153.76 405.078 151.22C405.078 150.6 405.138 149.92 405.298 149.12L406.918 141.04Z" fill="black"/>
<path d="M323 145H311" stroke="#C1C7CD" stroke-width="1.03617"/>
<path d="M323 149H311" stroke="#C1C7CD" stroke-width="1.03617"/>
<path d="M324.852 146.674V146.59C322.906 145.512 321.814 142.922 321.814 140.346H322.514C322.514 142.362 323.69 145.288 326.182 146.268V146.996C323.69 147.976 322.514 150.902 322.514 152.918H321.814C321.814 150.342 322.906 147.752 324.852 146.674Z" fill="#C1C7CD"/>
<path d="M225 217L69 217" stroke="#C1C7CD" stroke-width="1.03617"/>
<path d="M303 217L241 217" stroke="#C1C7CD" stroke-width="1.03617"/>
<rect x="77" y="199" width="36" height="36" fill="#0F62FE"/>
<path d="M91.2006 224H90.0406L92.8406 210.04H97.8406C100.081 210.04 101.121 211.4 101.121 213.24C101.121 215.94 99.4006 217.86 96.6206 217.86H92.4406L91.2006 224ZM93.7806 211.08L92.6606 216.82H96.8006C98.4006 216.82 99.4206 215.94 99.7006 214.5C99.8806 213.64 99.9206 213.34 99.9206 213.06C99.9206 211.92 99.3206 211.08 97.7406 211.08H93.7806Z" fill="white"/>
<rect x="181" y="199" width="36" height="36" fill="#0F62FE"/>
<path d="M193.279 224H192.119L194.919 210.04H199.919C202.159 210.04 203.199 211.4 203.199 213.24C203.199 215.94 201.479 217.86 198.699 217.86H194.519L193.279 224ZM195.859 211.08L194.739 216.82H198.879C200.479 216.82 201.499 215.94 201.779 214.5C201.959 213.64 201.999 213.34 201.999 213.06C201.999 211.92 201.399 211.08 199.819 211.08H195.859ZM205.538 216.44H204.058L205.178 210.04H206.658L205.538 216.44Z" fill="white"/>
<rect x="129.5" y="199.5" width="35" height="35" fill="#F4F4F4" stroke="black"/>
<path d="M143.918 211.04H145.538L143.818 219.62C143.698 220.22 143.658 220.62 143.658 221.06C143.658 222.76 144.638 223.78 146.218 223.78C148.458 223.78 149.658 222.56 150.298 219.32L151.958 211.04H153.578L151.898 219.44C151.038 223.72 149.358 225.24 146.038 225.24C143.558 225.24 142.078 223.76 142.078 221.22C142.078 220.6 142.138 219.92 142.298 219.12L143.918 211.04ZM150.438 209.36C149.758 209.36 149.298 209.06 148.938 208.84C148.358 208.46 147.978 208.36 147.638 208.36C147.218 208.36 146.898 208.56 146.438 208.9L145.898 208.14C146.317 207.58 146.978 207.06 147.878 207.06C148.558 207.06 149.018 207.36 149.378 207.58C149.958 207.96 150.338 208.06 150.678 208.06C151.098 208.06 151.418 207.86 151.878 207.52L152.418 208.28C151.998 208.84 151.338 209.36 150.438 209.36Z" fill="black"/>
<rect x="383.5" y="190.5" width="105" height="52" fill="#4D5358" stroke="#C1C7CD"/>
<rect x="576.5" y="190.5" width="105" height="52" fill="#525252" stroke="#C1C7CD"/>
<rect x="253.5" y="199.5" width="35" height="35" fill="white" stroke="black"/>
<path d="M267.918 210.04H269.538L267.818 218.62C267.698 219.22 267.658 219.62 267.658 220.06C267.658 221.76 268.638 222.78 270.218 222.78C272.458 222.78 273.658 221.56 274.298 218.32L275.958 210.04H277.578L275.898 218.44C275.038 222.72 273.358 224.24 270.038 224.24C267.558 224.24 266.078 222.76 266.078 220.22C266.078 219.6 266.138 218.92 266.298 218.12L267.918 210.04Z" fill="black"/>
<path d="M540 217H332" stroke="#C1C7CD" stroke-width="1.03617"/>
<path d="M690 217H568" stroke="#C1C7CD" stroke-width="1.03617"/>
<rect x="586" y="198" width="36" height="36" fill="#EE5396"/>
<path d="M601.209 209.758H601.814L606.385 220.285C606.469 220.474 606.603 220.799 606.785 221.262C607.039 221.887 607.306 222.307 607.586 222.521C607.866 222.736 608.318 222.85 608.943 222.863V223.312H603.24V222.863C603.95 222.863 604.425 222.811 604.666 222.707C604.913 222.603 605.037 222.404 605.037 222.111C605.037 221.923 604.884 221.48 604.578 220.783L600.77 211.994L597.713 219.309C597.199 220.533 596.941 221.33 596.941 221.701C596.941 222.45 597.472 222.837 598.533 222.863V223.312H594.49V222.863C594.9 222.85 595.262 222.704 595.574 222.424C595.887 222.144 596.157 221.734 596.385 221.193L597.273 219.113L601.209 209.758ZM610.293 226H609.737L611.081 219.299H613.481C614.556 219.299 615.055 219.952 615.055 220.835C615.055 222.131 614.229 223.053 612.895 223.053H610.889L610.293 226ZM611.532 219.798L610.994 222.554H612.981C613.749 222.554 614.239 222.131 614.373 221.44C614.46 221.027 614.479 220.883 614.479 220.749C614.479 220.202 614.191 219.798 613.433 219.798H611.532Z" fill="white"/>
<rect x="343" y="199" width="36" height="36" fill="#0F62FE"/>
<path d="M357.201 224H356.041L358.841 210.04H363.841C366.081 210.04 367.121 211.4 367.121 213.24C367.121 215.94 365.401 217.86 362.621 217.86H358.441L357.201 224ZM359.781 211.08L358.661 216.82H362.801C364.401 216.82 365.421 215.94 365.701 214.5C365.881 213.64 365.921 213.34 365.921 213.06C365.921 211.92 365.321 211.08 363.741 211.08H359.781Z" fill="white"/>
<rect x="496" y="199" width="36" height="36" fill="#0F62FE"/>
<path d="M508.279 224H507.119L509.919 210.04H514.919C517.159 210.04 518.199 211.4 518.199 213.24C518.199 215.94 516.479 217.86 513.699 217.86H509.519L508.279 224ZM510.859 211.08L509.739 216.82H513.879C515.479 216.82 516.499 215.94 516.779 214.5C516.959 213.64 516.999 213.34 516.999 213.06C516.999 211.92 516.399 211.08 514.819 211.08H510.859ZM520.538 216.44H519.058L520.178 210.04H521.658L520.538 216.44Z" fill="white"/>
<rect x="444.5" y="199.5" width="35" height="35" fill="white" stroke="black"/>
<path d="M458.918 211.04H460.538L458.818 219.62C458.698 220.22 458.658 220.62 458.658 221.06C458.658 222.76 459.638 223.78 461.218 223.78C463.458 223.78 464.658 222.56 465.298 219.32L466.958 211.04H468.578L466.898 219.44C466.038 223.72 464.358 225.24 461.038 225.24C458.558 225.24 457.078 223.76 457.078 221.22C457.078 220.6 457.138 219.92 457.298 219.12L458.918 211.04Z" fill="black"/>
<path d="M323 215H311" stroke="#C1C7CD" stroke-width="1.03617"/>
<path d="M323 219H311" stroke="#C1C7CD" stroke-width="1.03617"/>
<path d="M324.852 216.674V216.59C322.906 215.512 321.814 212.922 321.814 210.346H322.514C322.514 212.362 323.69 215.288 326.182 216.268V216.996C323.69 217.976 322.514 220.902 322.514 222.918H321.814C321.814 220.342 322.906 217.752 324.852 216.674Z" fill="#C1C7CD"/>
<rect x="392" y="199" width="36" height="36" fill="#EE5396"/>
<path d="M409.521 209.758H410.127L414.697 220.285C414.782 220.474 414.915 220.799 415.098 221.262C415.352 221.887 415.618 222.307 415.898 222.521C416.178 222.736 416.631 222.85 417.256 222.863V223.312H411.553V222.863C412.262 222.863 412.738 222.811 412.979 222.707C413.226 222.603 413.35 222.404 413.35 222.111C413.35 221.923 413.197 221.48 412.891 220.783L409.082 211.994L406.025 219.309C405.511 220.533 405.254 221.33 405.254 221.701C405.254 222.45 405.785 222.837 406.846 222.863V223.312H402.803V222.863C403.213 222.85 403.574 222.704 403.887 222.424C404.199 222.144 404.469 221.734 404.697 221.193L405.586 219.113L409.521 209.758Z" fill="white"/>
<rect x="637.5" y="198.5" width="35" height="35" fill="white" stroke="black"/>
<path d="M651.918 210.04H653.538L651.818 218.62C651.698 219.22 651.658 219.62 651.658 220.06C651.658 221.76 652.638 222.78 654.218 222.78C656.458 222.78 657.658 221.56 658.298 218.32L659.958 210.04H661.578L659.898 218.44C659.038 222.72 657.358 224.24 654.038 224.24C651.558 224.24 650.078 222.76 650.078 220.22C650.078 219.6 650.138 218.92 650.298 218.12L651.918 210.04Z" fill="black"/>
<path d="M228.365 216.64C227.705 216.64 227.165 216.1 227.165 215.44C227.165 214.78 227.705 214.24 228.365 214.24C229.025 214.24 229.565 214.78 229.565 215.44C229.565 216.1 229.025 216.64 228.365 216.64ZM230.665 216.16V214.74H238.845V216.16H230.665ZM228.365 220.64C227.705 220.64 227.165 220.1 227.165 219.44C227.165 218.78 227.705 218.24 228.365 218.24C229.025 218.24 229.565 218.78 229.565 219.44C229.565 220.1 229.025 220.64 228.365 220.64ZM230.665 220.14V218.72H238.845V220.14H230.665Z" fill="#C1C7CD"/>
</svg>
