<?xml version="1.0" encoding="utf-8" standalone="no"?>
<!DOCTYPE svg PUBLIC "-//W3C//DTD SVG 1.1//EN"
  "http://www.w3.org/Graphics/SVG/1.1/DTD/svg11.dtd">
<svg xmlns:xlink="http://www.w3.org/1999/xlink" width="628.397391pt" height="385.279995pt" viewBox="0 0 628.397391 385.279995" xmlns="http://www.w3.org/2000/svg" version="1.1">
 <metadata>
  <rdf:RDF xmlns:dc="http://purl.org/dc/elements/1.1/" xmlns:cc="http://creativecommons.org/ns#" xmlns:rdf="http://www.w3.org/1999/02/22-rdf-syntax-ns#">
   <cc:Work>
    <dc:type rdf:resource="http://purl.org/dc/dcmitype/StillImage"/>
    <dc:date>2026-07-16T22:11:27.609211</dc:date>
    <dc:format>image/svg+xml</dc:format>
    <dc:creator>
     <cc:Agent>
      <dc:title>Matplotlib v3.11.0, https://matplotlib.org/</dc:title>
     </cc:Agent>
    </dc:creator>
   </cc:Work>
  </rdf:RDF>
 </metadata>
 <defs>
  <style type="text/css">*{stroke-linejoin: round; stroke-linecap: butt}</style>
 </defs>
 <g id="figure_1">
  <g id="patch_1">
   <path d="M 0 385.279995 
L 628.397391 385.279995 
L 628.397391 0 
L 0 0 
z
" style="fill: #ffffff"/>
  </g>
  <g id="axes_1">
   <g id="line2d_1">
    <path d="M 137.529864 83.316799 
L 559.351258 83.316799 
" clip-path="url(#pa253a742f3)" style="fill: none; stroke: #000000; stroke-width: 2; stroke-linecap: square"/>
   </g>
   <g id="line2d_2">
    <path d="M 137.529864 129.670798 
L 559.351258 129.670798 
" clip-path="url(#pa253a742f3)" style="fill: none; stroke: #000000; stroke-width: 2; stroke-linecap: square"/>
   </g>
   <g id="line2d_3">
    <path d="M 137.529864 176.024798 
L 559.351258 176.024798 
" clip-path="url(#pa253a742f3)" style="fill: none; stroke: #000000; stroke-width: 2; stroke-linecap: square"/>
   </g>
   <g id="line2d_4">
    <path d="M 137.529864 222.378797 
L 559.351258 222.378797 
" clip-path="url(#pa253a742f3)" style="fill: none; stroke: #000000; stroke-width: 2; stroke-linecap: square"/>
   </g>
   <g id="line2d_5">
    <path d="M 137.529864 268.732796 
L 559.351258 268.732796 
" clip-path="url(#pa253a742f3)" style="fill: none; stroke: #000000; stroke-width: 2; stroke-linecap: square"/>
   </g>
   <g id="line2d_6">
    <path d="M 137.529864 315.086796 
L 559.351258 315.086796 
" clip-path="url(#pa253a742f3)" style="fill: none; stroke: #000000; stroke-width: 2; stroke-linecap: square"/>
   </g>
   <g id="patch_2">
    <path d="M 132.894464 60.139799 
L -1025.955521 60.139799 
L -1025.955521 384.617795 
L 132.894464 384.617795 
z
" clip-path="url(#pa253a742f3)" style="fill: #ffffff; stroke: #ffffff; stroke-width: 1.5; stroke-linejoin: miter"/>
   </g>
   <g id="patch_3">
    <path d="M 158.792443 98.381849 
L 212.683603 98.381849 
L 212.683603 68.251749 
L 158.792443 68.251749 
z
" clip-path="url(#pa253a742f3)" style="fill: #9f1853; stroke: #9f1853; stroke-width: 1.5; stroke-linejoin: miter"/>
   </g>
   <g id="patch_4">
    <path d="M 164.491668 144.735848 
L 206.984379 144.735848 
L 206.984379 114.605748 
L 164.491668 114.605748 
z
" clip-path="url(#pa253a742f3)" style="fill: #9f1853; stroke: #9f1853; stroke-width: 1.5; stroke-linejoin: miter"/>
   </g>
   <g id="patch_5">
    <path d="M 168.355273 191.089847 
L 203.120773 191.089847 
L 203.120773 160.959748 
L 168.355273 160.959748 
z
" clip-path="url(#pa253a742f3)" style="fill: #9f1853; stroke: #9f1853; stroke-width: 1.5; stroke-linejoin: miter"/>
   </g>
   <g id="patch_6">
    <path d="M 168.693658 237.443847 
L 202.782389 237.443847 
L 202.782389 207.313747 
L 168.693658 207.313747 
z
" clip-path="url(#pa253a742f3)" style="fill: #9f1853; stroke: #9f1853; stroke-width: 1.5; stroke-linejoin: miter"/>
   </g>
   <g id="patch_7">
    <path d="M 164.491668 283.797846 
L 206.984379 283.797846 
L 206.984379 253.667747 
L 164.491668 253.667747 
z
" clip-path="url(#pa253a742f3)" style="fill: #9f1853; stroke: #9f1853; stroke-width: 1.5; stroke-linejoin: miter"/>
   </g>
   <g id="patch_8">
    <path d="M 255.955061 237.443847 
L 300.936982 237.443847 
L 300.936982 160.959748 
L 255.955061 160.959748 
z
" clip-path="url(#pa253a742f3)" style="fill: #9f1853; stroke: #9f1853; stroke-width: 1.5; stroke-linejoin: miter"/>
   </g>
   <g id="patch_9">
    <path d="M 246.440903 144.735848 
L 310.451141 144.735848 
L 310.451141 68.251749 
L 246.440903 68.251749 
z
" clip-path="url(#pa253a742f3)" style="fill: #9f1853; stroke: #9f1853; stroke-width: 1.5; stroke-linejoin: miter"/>
   </g>
   <g id="patch_10">
    <path d="M 342.423812 191.089847 
L 399.884229 191.089847 
L 399.884229 160.959748 
L 342.423812 160.959748 
z
" clip-path="url(#pa253a742f3)" style="fill: #9f1853; stroke: #9f1853; stroke-width: 1.5; stroke-linejoin: miter"/>
   </g>
   <g id="patch_11">
    <path d="M 347.202909 237.443847 
L 395.105132 237.443847 
L 395.105132 207.313747 
L 347.202909 207.313747 
z
" clip-path="url(#pa253a742f3)" style="fill: #9f1853; stroke: #9f1853; stroke-width: 1.5; stroke-linejoin: miter"/>
   </g>
   <g id="patch_12">
    <path d="M 346.287418 98.381849 
L 396.020624 98.381849 
L 396.020624 68.251749 
L 346.287418 68.251749 
z
" clip-path="url(#pa253a742f3)" style="fill: #9f1853; stroke: #9f1853; stroke-width: 1.5; stroke-linejoin: miter"/>
   </g>
   <g id="patch_13">
    <path d="M 346.287418 144.735848 
L 396.020624 144.735848 
L 396.020624 114.605748 
L 346.287418 114.605748 
z
" clip-path="url(#pa253a742f3)" style="fill: #9f1853; stroke: #9f1853; stroke-width: 1.5; stroke-linejoin: miter"/>
   </g>
   <g id="patch_14">
    <path d="M 418.4351 191.089847 
L 462.934939 191.089847 
L 462.934939 114.605748 
L 418.4351 114.605748 
z
" clip-path="url(#pa253a742f3)" style="fill: #9f1853; stroke: #9f1853; stroke-width: 1.5; stroke-linejoin: miter"/>
   </g>
   <g id="patch_15">
    <path d="M 486.264907 144.735848 
L 534.16713 144.735848 
L 534.16713 114.605748 
L 486.264907 114.605748 
z
" clip-path="url(#pa253a742f3)" style="fill: #9f1853; stroke: #9f1853; stroke-width: 1.5; stroke-linejoin: miter"/>
   </g>
   <g id="patch_16">
    <path d="M 478.44267 191.089847 
L 541.989368 191.089847 
L 541.989368 160.959748 
L 478.44267 160.959748 
z
" clip-path="url(#pa253a742f3)" style="fill: #9f1853; stroke: #9f1853; stroke-width: 1.5; stroke-linejoin: miter"/>
   </g>
   <g id="text_1">
    <g clip-path="url(#pa253a742f3)">
     <!-- ${q}_{0}$ -->
     <g transform="translate(110.221564 87.53799) scale(0.1625 -0.1625)">
      <defs>
       <path id="DejaVuSans-Oblique-54" d="M 2669 525 
Q 2438 222 2123 65 
Q 1809 -91 1428 -91 
Q 897 -91 595 267 
Q 294 625 294 1253 
Q 294 1759 480 2231 
Q 666 2703 1013 3078 
Q 1238 3322 1530 3453 
Q 1822 3584 2144 3584 
Q 2531 3584 2781 3431 
Q 3031 3278 3144 2969 
L 3244 3494 
L 3822 3494 
L 2888 -1319 
L 2309 -1319 
L 2669 525 
z
M 891 1338 
Q 891 875 1084 633 
Q 1278 391 1644 391 
Q 2188 391 2572 911 
Q 2956 1431 2956 2175 
Q 2956 2625 2757 2864 
Q 2559 3103 2188 3103 
Q 1916 3103 1684 2976 
Q 1453 2850 1281 2606 
Q 1100 2350 995 2006 
Q 891 1663 891 1338 
z
" transform="scale(0.015625)"/>
       <path id="DejaVuSans-13" d="M 2034 4250 
Q 1547 4250 1301 3770 
Q 1056 3291 1056 2328 
Q 1056 1369 1301 889 
Q 1547 409 2034 409 
Q 2525 409 2770 889 
Q 3016 1369 3016 2328 
Q 3016 3291 2770 3770 
Q 2525 4250 2034 4250 
z
M 2034 4750 
Q 2819 4750 3233 4129 
Q 3647 3509 3647 2328 
Q 3647 1150 3233 529 
Q 2819 -91 2034 -91 
Q 1250 -91 836 529 
Q 422 1150 422 2328 
Q 422 3509 836 4129 
Q 1250 4750 2034 4750 
z
" transform="scale(0.015625)"/>
      </defs>
      <use xlink:href="#DejaVuSans-Oblique-54"/>
      <use xlink:href="#DejaVuSans-13" transform="translate(63.476562 -14.999951) scale(0.7)"/>
     </g>
    </g>
   </g>
   <g id="text_2">
    <g clip-path="url(#pa253a742f3)">
     <!-- ${q}_{1}$ -->
     <g transform="translate(110.221564 133.89199) scale(0.1625 -0.1625)">
      <defs>
       <path id="DejaVuSans-14" d="M 794 531 
L 1825 531 
L 1825 4091 
L 703 3866 
L 703 4441 
L 1819 4666 
L 2450 4666 
L 2450 531 
L 3481 531 
L 3481 0 
L 794 0 
L 794 531 
z
" transform="scale(0.015625)"/>
      </defs>
      <use xlink:href="#DejaVuSans-Oblique-54"/>
      <use xlink:href="#DejaVuSans-14" transform="translate(63.476562 -14.999951) scale(0.7)"/>
     </g>
    </g>
   </g>
   <g id="text_3">
    <g clip-path="url(#pa253a742f3)">
     <!-- ${q}_{2}$ -->
     <g transform="translate(110.221564 180.245989) scale(0.1625 -0.1625)">
      <defs>
       <path id="DejaVuSans-15" d="M 1228 531 
L 3431 531 
L 3431 0 
L 469 0 
L 469 531 
Q 828 903 1448 1529 
Q 2069 2156 2228 2338 
Q 2531 2678 2651 2914 
Q 2772 3150 2772 3378 
Q 2772 3750 2511 3984 
Q 2250 4219 1831 4219 
Q 1534 4219 1204 4116 
Q 875 4013 500 3803 
L 500 4441 
Q 881 4594 1212 4672 
Q 1544 4750 1819 4750 
Q 2544 4750 2975 4387 
Q 3406 4025 3406 3419 
Q 3406 3131 3298 2873 
Q 3191 2616 2906 2266 
Q 2828 2175 2409 1742 
Q 1991 1309 1228 531 
z
" transform="scale(0.015625)"/>
      </defs>
      <use xlink:href="#DejaVuSans-Oblique-54"/>
      <use xlink:href="#DejaVuSans-15" transform="translate(63.476562 -14.999951) scale(0.7)"/>
     </g>
    </g>
   </g>
   <g id="text_4">
    <g clip-path="url(#pa253a742f3)">
     <!-- ${q}_{3}$ -->
     <g transform="translate(110.221564 226.599988) scale(0.1625 -0.1625)">
      <defs>
       <path id="DejaVuSans-16" d="M 2597 2516 
Q 3050 2419 3304 2112 
Q 3559 1806 3559 1356 
Q 3559 666 3084 287 
Q 2609 -91 1734 -91 
Q 1441 -91 1130 -33 
Q 819 25 488 141 
L 488 750 
Q 750 597 1062 519 
Q 1375 441 1716 441 
Q 2309 441 2620 675 
Q 2931 909 2931 1356 
Q 2931 1769 2642 2001 
Q 2353 2234 1838 2234 
L 1294 2234 
L 1294 2753 
L 1863 2753 
Q 2328 2753 2575 2939 
Q 2822 3125 2822 3475 
Q 2822 3834 2567 4026 
Q 2313 4219 1838 4219 
Q 1578 4219 1281 4162 
Q 984 4106 628 3988 
L 628 4550 
Q 988 4650 1302 4700 
Q 1616 4750 1894 4750 
Q 2613 4750 3031 4423 
Q 3450 4097 3450 3541 
Q 3450 3153 3228 2886 
Q 3006 2619 2597 2516 
z
" transform="scale(0.015625)"/>
      </defs>
      <use xlink:href="#DejaVuSans-Oblique-54"/>
      <use xlink:href="#DejaVuSans-16" transform="translate(63.476562 -14.999951) scale(0.7)"/>
     </g>
    </g>
   </g>
   <g id="text_5">
    <g clip-path="url(#pa253a742f3)">
     <!-- ${q}_{4}$ -->
     <g transform="translate(110.221564 272.953988) scale(0.1625 -0.1625)">
      <defs>
       <path id="DejaVuSans-17" d="M 2419 4116 
L 825 1625 
L 2419 1625 
L 2419 4116 
z
M 2253 4666 
L 3047 4666 
L 3047 1625 
L 3713 1625 
L 3713 1100 
L 3047 1100 
L 3047 0 
L 2419 0 
L 2419 1100 
L 313 1100 
L 313 1709 
L 2253 4666 
z
" transform="scale(0.015625)"/>
      </defs>
      <use xlink:href="#DejaVuSans-Oblique-54"/>
      <use xlink:href="#DejaVuSans-17" transform="translate(63.476562 -14.999951) scale(0.7)"/>
     </g>
    </g>
   </g>
   <g id="text_6">
    <g clip-path="url(#pa253a742f3)">
     <!-- ${q}_{5}$ -->
     <g transform="translate(110.221564 319.307987) scale(0.1625 -0.1625)">
      <defs>
       <path id="DejaVuSans-18" d="M 691 4666 
L 3169 4666 
L 3169 4134 
L 1269 4134 
L 1269 2991 
Q 1406 3038 1543 3061 
Q 1681 3084 1819 3084 
Q 2600 3084 3056 2656 
Q 3513 2228 3513 1497 
Q 3513 744 3044 326 
Q 2575 -91 1722 -91 
Q 1428 -91 1123 -41 
Q 819 9 494 109 
L 494 744 
Q 775 591 1075 516 
Q 1375 441 1709 441 
Q 2250 441 2565 725 
Q 2881 1009 2881 1497 
Q 2881 1984 2565 2268 
Q 2250 2553 1709 2553 
Q 1456 2553 1204 2497 
Q 953 2441 691 2322 
L 691 4666 
z
" transform="scale(0.015625)"/>
      </defs>
      <use xlink:href="#DejaVuSans-Oblique-54"/>
      <use xlink:href="#DejaVuSans-18" transform="translate(63.476562 -14.999951) scale(0.7)"/>
     </g>
    </g>
   </g>
   <g id="text_7">
    <g clip-path="url(#pa253a742f3)">
     <!-- 0, 1.17, 3$\pi$/2 -->
     <g style="fill: #ffffff" transform="translate(160.338023 94.433954) scale(0.08 -0.08)">
      <defs>
       <path id="DejaVuSans-f" d="M 750 794 
L 1409 794 
L 1409 256 
L 897 -744 
L 494 -744 
L 750 256 
L 750 794 
z
" transform="scale(0.015625)"/>
       <path id="DejaVuSans-3" transform="scale(0.015625)"/>
       <path id="DejaVuSans-11" d="M 684 794 
L 1344 794 
L 1344 0 
L 684 0 
L 684 794 
z
" transform="scale(0.015625)"/>
       <path id="DejaVuSans-1a" d="M 525 4666 
L 3525 4666 
L 3525 4397 
L 1831 0 
L 1172 0 
L 2766 4134 
L 525 4134 
L 525 4666 
z
" transform="scale(0.015625)"/>
       <path id="DejaVuSans-Oblique-354" d="M 584 3500 
L 3938 3500 
L 3825 2925 
L 3384 2925 
L 2966 775 
Q 2922 550 2981 450 
Q 3038 353 3209 353 
Q 3256 353 3325 363 
Q 3397 369 3419 372 
L 3338 -44 
Q 3222 -84 3103 -103 
Q 2981 -122 2866 -122 
Q 2491 -122 2388 81 
Q 2284 288 2391 838 
L 2797 2925 
L 1506 2925 
L 938 0 
L 350 0 
L 919 2925 
L 472 2925 
L 584 3500 
z
" transform="scale(0.015625)"/>
       <path id="DejaVuSans-12" d="M 1625 4666 
L 2156 4666 
L 531 -594 
L 0 -594 
L 1625 4666 
z
" transform="scale(0.015625)"/>
      </defs>
      <use xlink:href="#DejaVuSans-13" transform="translate(0 0.78125)"/>
      <use xlink:href="#DejaVuSans-f" transform="translate(63.623047 0.78125)"/>
      <use xlink:href="#DejaVuSans-3" transform="translate(95.410156 0.78125)"/>
      <use xlink:href="#DejaVuSans-14" transform="translate(127.197266 0.78125)"/>
      <use xlink:href="#DejaVuSans-11" transform="translate(190.820312 0.78125)"/>
      <use xlink:href="#DejaVuSans-14" transform="translate(222.607422 0.78125)"/>
      <use xlink:href="#DejaVuSans-1a" transform="translate(286.230469 0.78125)"/>
      <use xlink:href="#DejaVuSans-f" transform="translate(349.853516 0.78125)"/>
      <use xlink:href="#DejaVuSans-3" transform="translate(381.640625 0.78125)"/>
      <use xlink:href="#DejaVuSans-16" transform="translate(413.427734 0.78125)"/>
      <use xlink:href="#DejaVuSans-Oblique-354" transform="translate(477.050781 0.78125)"/>
      <use xlink:href="#DejaVuSans-12" transform="translate(537.255859 0.78125)"/>
      <use xlink:href="#DejaVuSans-15" transform="translate(570.947266 0.78125)"/>
     </g>
    </g>
   </g>
   <g id="text_8">
    <g clip-path="url(#pa253a742f3)">
     <!-- ZXZ -->
     <g style="fill: #ffffff" transform="translate(172.380523 82.174237) scale(0.13 -0.13)">
      <defs>
       <path id="DejaVuSans-3d" d="M 359 4666 
L 4025 4666 
L 4025 4184 
L 1075 531 
L 4097 531 
L 4097 0 
L 288 0 
L 288 481 
L 3238 4134 
L 359 4134 
L 359 4666 
z
" transform="scale(0.015625)"/>
       <path id="DejaVuSans-3b" d="M 403 4666 
L 1081 4666 
L 2241 2931 
L 3406 4666 
L 4084 4666 
L 2584 2425 
L 4184 0 
L 3506 0 
L 2194 1984 
L 872 0 
L 191 0 
L 1856 2491 
L 403 4666 
z
" transform="scale(0.015625)"/>
      </defs>
      <use xlink:href="#DejaVuSans-3d"/>
      <use xlink:href="#DejaVuSans-3b" transform="translate(68.5 0)"/>
      <use xlink:href="#DejaVuSans-3d" transform="translate(137 0)"/>
     </g>
    </g>
   </g>
   <g id="text_9">
    <g clip-path="url(#pa253a742f3)">
     <!-- 0, $\pi$/2, $\pi$/2 -->
     <g style="fill: #ffffff" transform="translate(165.498023 140.787953) scale(0.08 -0.08)">
      <use xlink:href="#DejaVuSans-13" transform="translate(0 0.78125)"/>
      <use xlink:href="#DejaVuSans-f" transform="translate(63.623047 0.78125)"/>
      <use xlink:href="#DejaVuSans-3" transform="translate(95.410156 0.78125)"/>
      <use xlink:href="#DejaVuSans-Oblique-354" transform="translate(127.197266 0.78125)"/>
      <use xlink:href="#DejaVuSans-12" transform="translate(187.402344 0.78125)"/>
      <use xlink:href="#DejaVuSans-15" transform="translate(221.09375 0.78125)"/>
      <use xlink:href="#DejaVuSans-f" transform="translate(284.716797 0.78125)"/>
      <use xlink:href="#DejaVuSans-3" transform="translate(316.503906 0.78125)"/>
      <use xlink:href="#DejaVuSans-Oblique-354" transform="translate(348.291016 0.78125)"/>
      <use xlink:href="#DejaVuSans-12" transform="translate(408.496094 0.78125)"/>
      <use xlink:href="#DejaVuSans-15" transform="translate(442.1875 0.78125)"/>
     </g>
    </g>
   </g>
   <g id="text_10">
    <g clip-path="url(#pa253a742f3)">
     <!-- ZXZ -->
     <g style="fill: #ffffff" transform="translate(172.380523 128.528236) scale(0.13 -0.13)">
      <use xlink:href="#DejaVuSans-3d"/>
      <use xlink:href="#DejaVuSans-3b" transform="translate(68.5 0)"/>
      <use xlink:href="#DejaVuSans-3d" transform="translate(137 0)"/>
     </g>
    </g>
   </g>
   <g id="text_11">
    <g clip-path="url(#pa253a742f3)">
     <!-- 0, $\pi$/2, 0 -->
     <g style="fill: #ffffff" transform="translate(169.258023 187.141953) scale(0.08 -0.08)">
      <use xlink:href="#DejaVuSans-13" transform="translate(0 0.78125)"/>
      <use xlink:href="#DejaVuSans-f" transform="translate(63.623047 0.78125)"/>
      <use xlink:href="#DejaVuSans-3" transform="translate(95.410156 0.78125)"/>
      <use xlink:href="#DejaVuSans-Oblique-354" transform="translate(127.197266 0.78125)"/>
      <use xlink:href="#DejaVuSans-12" transform="translate(187.402344 0.78125)"/>
      <use xlink:href="#DejaVuSans-15" transform="translate(221.09375 0.78125)"/>
      <use xlink:href="#DejaVuSans-f" transform="translate(284.716797 0.78125)"/>
      <use xlink:href="#DejaVuSans-3" transform="translate(316.503906 0.78125)"/>
      <use xlink:href="#DejaVuSans-13" transform="translate(348.291016 0.78125)"/>
     </g>
    </g>
   </g>
   <g id="text_12">
    <g clip-path="url(#pa253a742f3)">
     <!-- ZXZ -->
     <g style="fill: #ffffff" transform="translate(172.380523 174.882236) scale(0.13 -0.13)">
      <use xlink:href="#DejaVuSans-3d"/>
      <use xlink:href="#DejaVuSans-3b" transform="translate(68.5 0)"/>
      <use xlink:href="#DejaVuSans-3d" transform="translate(137 0)"/>
     </g>
    </g>
   </g>
   <g id="text_13">
    <g clip-path="url(#pa253a742f3)">
     <!-- 0, $\pi$/2, $\pi$ -->
     <g style="fill: #ffffff" transform="translate(169.378023 233.495952) scale(0.08 -0.08)">
      <use xlink:href="#DejaVuSans-13" transform="translate(0 0.78125)"/>
      <use xlink:href="#DejaVuSans-f" transform="translate(63.623047 0.78125)"/>
      <use xlink:href="#DejaVuSans-3" transform="translate(95.410156 0.78125)"/>
      <use xlink:href="#DejaVuSans-Oblique-354" transform="translate(127.197266 0.78125)"/>
      <use xlink:href="#DejaVuSans-12" transform="translate(187.402344 0.78125)"/>
      <use xlink:href="#DejaVuSans-15" transform="translate(221.09375 0.78125)"/>
      <use xlink:href="#DejaVuSans-f" transform="translate(284.716797 0.78125)"/>
      <use xlink:href="#DejaVuSans-3" transform="translate(316.503906 0.78125)"/>
      <use xlink:href="#DejaVuSans-Oblique-354" transform="translate(348.291016 0.78125)"/>
     </g>
    </g>
   </g>
   <g id="text_14">
    <g clip-path="url(#pa253a742f3)">
     <!-- ZXZ -->
     <g style="fill: #ffffff" transform="translate(172.380523 221.236235) scale(0.13 -0.13)">
      <use xlink:href="#DejaVuSans-3d"/>
      <use xlink:href="#DejaVuSans-3b" transform="translate(68.5 0)"/>
      <use xlink:href="#DejaVuSans-3d" transform="translate(137 0)"/>
     </g>
    </g>
   </g>
   <g id="text_15">
    <g clip-path="url(#pa253a742f3)">
     <!-- 0, $\pi$/2, $\pi$/2 -->
     <g style="fill: #ffffff" transform="translate(165.498023 279.849951) scale(0.08 -0.08)">
      <use xlink:href="#DejaVuSans-13" transform="translate(0 0.78125)"/>
      <use xlink:href="#DejaVuSans-f" transform="translate(63.623047 0.78125)"/>
      <use xlink:href="#DejaVuSans-3" transform="translate(95.410156 0.78125)"/>
      <use xlink:href="#DejaVuSans-Oblique-354" transform="translate(127.197266 0.78125)"/>
      <use xlink:href="#DejaVuSans-12" transform="translate(187.402344 0.78125)"/>
      <use xlink:href="#DejaVuSans-15" transform="translate(221.09375 0.78125)"/>
      <use xlink:href="#DejaVuSans-f" transform="translate(284.716797 0.78125)"/>
      <use xlink:href="#DejaVuSans-3" transform="translate(316.503906 0.78125)"/>
      <use xlink:href="#DejaVuSans-Oblique-354" transform="translate(348.291016 0.78125)"/>
      <use xlink:href="#DejaVuSans-12" transform="translate(408.496094 0.78125)"/>
      <use xlink:href="#DejaVuSans-15" transform="translate(442.1875 0.78125)"/>
     </g>
    </g>
   </g>
   <g id="text_16">
    <g clip-path="url(#pa253a742f3)">
     <!-- ZXZ -->
     <g style="fill: #ffffff" transform="translate(172.380523 267.590235) scale(0.13 -0.13)">
      <use xlink:href="#DejaVuSans-3d"/>
      <use xlink:href="#DejaVuSans-3b" transform="translate(68.5 0)"/>
      <use xlink:href="#DejaVuSans-3d" transform="translate(137 0)"/>
     </g>
    </g>
   </g>
   <g id="text_17">
    <g clip-path="url(#pa253a742f3)">
     <!-- 0 -->
     <g style="fill: #ffffff" transform="translate(259.199841 179.401751) scale(0.13 -0.13)">
      <use xlink:href="#DejaVuSans-13"/>
     </g>
    </g>
   </g>
   <g id="text_18">
    <g clip-path="url(#pa253a742f3)">
     <!-- 1 -->
     <g style="fill: #ffffff" transform="translate(259.199841 225.75575) scale(0.13 -0.13)">
      <use xlink:href="#DejaVuSans-14"/>
     </g>
    </g>
   </g>
   <g id="text_19">
    <g clip-path="url(#pa253a742f3)">
     <!-- 0.1, 0, 0 -->
     <g style="fill: #ffffff" transform="translate(267.008712 209.160102) scale(0.08 -0.08)">
      <use xlink:href="#DejaVuSans-13"/>
      <use xlink:href="#DejaVuSans-11" transform="translate(63.625 0)"/>
      <use xlink:href="#DejaVuSans-14" transform="translate(95.40625 0)"/>
      <use xlink:href="#DejaVuSans-f" transform="translate(159.03125 0)"/>
      <use xlink:href="#DejaVuSans-3" transform="translate(190.8125 0)"/>
      <use xlink:href="#DejaVuSans-13" transform="translate(222.59375 0)"/>
      <use xlink:href="#DejaVuSans-f" transform="translate(286.21875 0)"/>
      <use xlink:href="#DejaVuSans-3" transform="translate(318 0)"/>
      <use xlink:href="#DejaVuSans-13" transform="translate(349.78125 0)"/>
     </g>
    </g>
   </g>
   <g id="text_20">
    <g clip-path="url(#pa253a742f3)">
     <!-- KAK -->
     <g style="fill: #ffffff" transform="translate(270.687149 195.162111) scale(0.13 -0.13)">
      <defs>
       <path id="DejaVuSans-2e" d="M 628 4666 
L 1259 4666 
L 1259 2694 
L 3353 4666 
L 4166 4666 
L 1850 2491 
L 4331 0 
L 3500 0 
L 1259 2247 
L 1259 0 
L 628 0 
L 628 4666 
z
" transform="scale(0.015625)"/>
       <path id="DejaVuSans-24" d="M 2188 4044 
L 1331 1722 
L 3047 1722 
L 2188 4044 
z
M 1831 4666 
L 2547 4666 
L 4325 0 
L 3669 0 
L 3244 1197 
L 1141 1197 
L 716 0 
L 50 0 
L 1831 4666 
z
" transform="scale(0.015625)"/>
      </defs>
      <use xlink:href="#DejaVuSans-2e"/>
      <use xlink:href="#DejaVuSans-24" transform="translate(63.828125 0)"/>
      <use xlink:href="#DejaVuSans-2e" transform="translate(132.234375 0)"/>
     </g>
    </g>
   </g>
   <g id="text_21">
    <g clip-path="url(#pa253a742f3)">
     <!-- 0 -->
     <g style="fill: #ffffff" transform="translate(249.685683 86.693752) scale(0.13 -0.13)">
      <use xlink:href="#DejaVuSans-13"/>
     </g>
    </g>
   </g>
   <g id="text_22">
    <g clip-path="url(#pa253a742f3)">
     <!-- 1 -->
     <g style="fill: #ffffff" transform="translate(249.685683 133.047751) scale(0.13 -0.13)">
      <use xlink:href="#DejaVuSans-14"/>
     </g>
    </g>
   </g>
   <g id="text_23">
    <g clip-path="url(#pa253a742f3)">
     <!-- 0.15, 0.15, 0 -->
     <g style="fill: #ffffff" transform="translate(258.102462 116.452103) scale(0.08 -0.08)">
      <use xlink:href="#DejaVuSans-13"/>
      <use xlink:href="#DejaVuSans-11" transform="translate(63.625 0)"/>
      <use xlink:href="#DejaVuSans-14" transform="translate(95.40625 0)"/>
      <use xlink:href="#DejaVuSans-18" transform="translate(159.03125 0)"/>
      <use xlink:href="#DejaVuSans-f" transform="translate(222.65625 0)"/>
      <use xlink:href="#DejaVuSans-3" transform="translate(254.4375 0)"/>
      <use xlink:href="#DejaVuSans-13" transform="translate(286.21875 0)"/>
      <use xlink:href="#DejaVuSans-11" transform="translate(349.84375 0)"/>
      <use xlink:href="#DejaVuSans-14" transform="translate(381.625 0)"/>
      <use xlink:href="#DejaVuSans-18" transform="translate(445.25 0)"/>
      <use xlink:href="#DejaVuSans-f" transform="translate(508.875 0)"/>
      <use xlink:href="#DejaVuSans-3" transform="translate(540.65625 0)"/>
      <use xlink:href="#DejaVuSans-13" transform="translate(572.4375 0)"/>
     </g>
    </g>
   </g>
   <g id="text_24">
    <g clip-path="url(#pa253a742f3)">
     <!-- KAK -->
     <g style="fill: #ffffff" transform="translate(270.687149 102.454112) scale(0.13 -0.13)">
      <use xlink:href="#DejaVuSans-2e"/>
      <use xlink:href="#DejaVuSans-24" transform="translate(63.828125 0)"/>
      <use xlink:href="#DejaVuSans-2e" transform="translate(132.234375 0)"/>
     </g>
    </g>
   </g>
   <g id="text_25">
    <g clip-path="url(#pa253a742f3)">
     <!-- $-$$\pi$/2, $\pi$/2, $\pi$/2 -->
     <g style="fill: #ffffff" transform="translate(343.794021 187.141953) scale(0.08 -0.08)">
      <defs>
       <path id="DejaVuSans-c9c" d="M 678 2272 
L 4684 2272 
L 4684 1741 
L 678 1741 
L 678 2272 
z
" transform="scale(0.015625)"/>
      </defs>
      <use xlink:href="#DejaVuSans-c9c" transform="translate(0 0.78125)"/>
      <use xlink:href="#DejaVuSans-Oblique-354" transform="translate(83.789062 0.78125)"/>
      <use xlink:href="#DejaVuSans-12" transform="translate(143.994141 0.78125)"/>
      <use xlink:href="#DejaVuSans-15" transform="translate(177.685547 0.78125)"/>
      <use xlink:href="#DejaVuSans-f" transform="translate(241.308594 0.78125)"/>
      <use xlink:href="#DejaVuSans-3" transform="translate(273.095703 0.78125)"/>
      <use xlink:href="#DejaVuSans-Oblique-354" transform="translate(304.882812 0.78125)"/>
      <use xlink:href="#DejaVuSans-12" transform="translate(365.087891 0.78125)"/>
      <use xlink:href="#DejaVuSans-15" transform="translate(398.779297 0.78125)"/>
      <use xlink:href="#DejaVuSans-f" transform="translate(462.402344 0.78125)"/>
      <use xlink:href="#DejaVuSans-3" transform="translate(494.189453 0.78125)"/>
      <use xlink:href="#DejaVuSans-Oblique-354" transform="translate(525.976562 0.78125)"/>
      <use xlink:href="#DejaVuSans-12" transform="translate(586.181641 0.78125)"/>
      <use xlink:href="#DejaVuSans-15" transform="translate(619.873047 0.78125)"/>
     </g>
    </g>
   </g>
   <g id="text_26">
    <g clip-path="url(#pa253a742f3)">
     <!-- ZXZ -->
     <g style="fill: #ffffff" transform="translate(357.796521 174.882236) scale(0.13 -0.13)">
      <use xlink:href="#DejaVuSans-3d"/>
      <use xlink:href="#DejaVuSans-3b" transform="translate(68.5 0)"/>
      <use xlink:href="#DejaVuSans-3d" transform="translate(137 0)"/>
     </g>
    </g>
   </g>
   <g id="text_27">
    <g clip-path="url(#pa253a742f3)">
     <!-- 0, $\pi$/2, 3$\pi$/2 -->
     <g style="fill: #ffffff" transform="translate(348.354021 233.495952) scale(0.08 -0.08)">
      <use xlink:href="#DejaVuSans-13" transform="translate(0 0.78125)"/>
      <use xlink:href="#DejaVuSans-f" transform="translate(63.623047 0.78125)"/>
      <use xlink:href="#DejaVuSans-3" transform="translate(95.410156 0.78125)"/>
      <use xlink:href="#DejaVuSans-Oblique-354" transform="translate(127.197266 0.78125)"/>
      <use xlink:href="#DejaVuSans-12" transform="translate(187.402344 0.78125)"/>
      <use xlink:href="#DejaVuSans-15" transform="translate(221.09375 0.78125)"/>
      <use xlink:href="#DejaVuSans-f" transform="translate(284.716797 0.78125)"/>
      <use xlink:href="#DejaVuSans-3" transform="translate(316.503906 0.78125)"/>
      <use xlink:href="#DejaVuSans-16" transform="translate(348.291016 0.78125)"/>
      <use xlink:href="#DejaVuSans-Oblique-354" transform="translate(411.914062 0.78125)"/>
      <use xlink:href="#DejaVuSans-12" transform="translate(472.119141 0.78125)"/>
      <use xlink:href="#DejaVuSans-15" transform="translate(505.810547 0.78125)"/>
     </g>
    </g>
   </g>
   <g id="text_28">
    <g clip-path="url(#pa253a742f3)">
     <!-- ZXZ -->
     <g style="fill: #ffffff" transform="translate(357.796521 221.236235) scale(0.13 -0.13)">
      <use xlink:href="#DejaVuSans-3d"/>
      <use xlink:href="#DejaVuSans-3b" transform="translate(68.5 0)"/>
      <use xlink:href="#DejaVuSans-3d" transform="translate(137 0)"/>
     </g>
    </g>
   </g>
   <g id="text_29">
    <g clip-path="url(#pa253a742f3)">
     <!-- $-$$\pi$/2, $\pi$/2, 0 -->
     <g style="fill: #ffffff" transform="translate(347.554021 94.433954) scale(0.08 -0.08)">
      <use xlink:href="#DejaVuSans-c9c" transform="translate(0 0.78125)"/>
      <use xlink:href="#DejaVuSans-Oblique-354" transform="translate(83.789062 0.78125)"/>
      <use xlink:href="#DejaVuSans-12" transform="translate(143.994141 0.78125)"/>
      <use xlink:href="#DejaVuSans-15" transform="translate(177.685547 0.78125)"/>
      <use xlink:href="#DejaVuSans-f" transform="translate(241.308594 0.78125)"/>
      <use xlink:href="#DejaVuSans-3" transform="translate(273.095703 0.78125)"/>
      <use xlink:href="#DejaVuSans-Oblique-354" transform="translate(304.882812 0.78125)"/>
      <use xlink:href="#DejaVuSans-12" transform="translate(365.087891 0.78125)"/>
      <use xlink:href="#DejaVuSans-15" transform="translate(398.779297 0.78125)"/>
      <use xlink:href="#DejaVuSans-f" transform="translate(462.402344 0.78125)"/>
      <use xlink:href="#DejaVuSans-3" transform="translate(494.189453 0.78125)"/>
      <use xlink:href="#DejaVuSans-13" transform="translate(525.976562 0.78125)"/>
     </g>
    </g>
   </g>
   <g id="text_30">
    <g clip-path="url(#pa253a742f3)">
     <!-- ZXZ -->
     <g style="fill: #ffffff" transform="translate(357.796521 82.174237) scale(0.13 -0.13)">
      <use xlink:href="#DejaVuSans-3d"/>
      <use xlink:href="#DejaVuSans-3b" transform="translate(68.5 0)"/>
      <use xlink:href="#DejaVuSans-3d" transform="translate(137 0)"/>
     </g>
    </g>
   </g>
   <g id="text_31">
    <g clip-path="url(#pa253a742f3)">
     <!-- $-$$\pi$/2, $\pi$/2, 0 -->
     <g style="fill: #ffffff" transform="translate(347.554021 140.787953) scale(0.08 -0.08)">
      <use xlink:href="#DejaVuSans-c9c" transform="translate(0 0.78125)"/>
      <use xlink:href="#DejaVuSans-Oblique-354" transform="translate(83.789062 0.78125)"/>
      <use xlink:href="#DejaVuSans-12" transform="translate(143.994141 0.78125)"/>
      <use xlink:href="#DejaVuSans-15" transform="translate(177.685547 0.78125)"/>
      <use xlink:href="#DejaVuSans-f" transform="translate(241.308594 0.78125)"/>
      <use xlink:href="#DejaVuSans-3" transform="translate(273.095703 0.78125)"/>
      <use xlink:href="#DejaVuSans-Oblique-354" transform="translate(304.882812 0.78125)"/>
      <use xlink:href="#DejaVuSans-12" transform="translate(365.087891 0.78125)"/>
      <use xlink:href="#DejaVuSans-15" transform="translate(398.779297 0.78125)"/>
      <use xlink:href="#DejaVuSans-f" transform="translate(462.402344 0.78125)"/>
      <use xlink:href="#DejaVuSans-3" transform="translate(494.189453 0.78125)"/>
      <use xlink:href="#DejaVuSans-13" transform="translate(525.976562 0.78125)"/>
     </g>
    </g>
   </g>
   <g id="text_32">
    <g clip-path="url(#pa253a742f3)">
     <!-- ZXZ -->
     <g style="fill: #ffffff" transform="translate(357.796521 128.528236) scale(0.13 -0.13)">
      <use xlink:href="#DejaVuSans-3d"/>
      <use xlink:href="#DejaVuSans-3b" transform="translate(68.5 0)"/>
      <use xlink:href="#DejaVuSans-3d" transform="translate(137 0)"/>
     </g>
    </g>
   </g>
   <g id="text_33">
    <g clip-path="url(#pa253a742f3)">
     <!-- 0 -->
     <g style="fill: #ffffff" transform="translate(421.67988 133.047751) scale(0.13 -0.13)">
      <use xlink:href="#DejaVuSans-13"/>
     </g>
    </g>
   </g>
   <g id="text_34">
    <g clip-path="url(#pa253a742f3)">
     <!-- 1 -->
     <g style="fill: #ffffff" transform="translate(421.67988 179.401751) scale(0.13 -0.13)">
      <use xlink:href="#DejaVuSans-14"/>
     </g>
    </g>
   </g>
   <g id="text_35">
    <g clip-path="url(#pa253a742f3)">
     <!-- $\pi$/4, 0, 0 -->
     <g style="fill: #ffffff" transform="translate(429.30396 162.806103) scale(0.08 -0.08)">
      <use xlink:href="#DejaVuSans-Oblique-354" transform="translate(0 0.78125)"/>
      <use xlink:href="#DejaVuSans-12" transform="translate(60.205078 0.78125)"/>
      <use xlink:href="#DejaVuSans-17" transform="translate(93.896484 0.78125)"/>
      <use xlink:href="#DejaVuSans-f" transform="translate(157.519531 0.78125)"/>
      <use xlink:href="#DejaVuSans-3" transform="translate(189.306641 0.78125)"/>
      <use xlink:href="#DejaVuSans-13" transform="translate(221.09375 0.78125)"/>
      <use xlink:href="#DejaVuSans-f" transform="translate(284.716797 0.78125)"/>
      <use xlink:href="#DejaVuSans-3" transform="translate(316.503906 0.78125)"/>
      <use xlink:href="#DejaVuSans-13" transform="translate(348.291016 0.78125)"/>
     </g>
    </g>
   </g>
   <g id="text_36">
    <g clip-path="url(#pa253a742f3)">
     <!-- KAK -->
     <g style="fill: #ffffff" transform="translate(432.926147 148.808111) scale(0.13 -0.13)">
      <use xlink:href="#DejaVuSans-2e"/>
      <use xlink:href="#DejaVuSans-24" transform="translate(63.828125 0)"/>
      <use xlink:href="#DejaVuSans-2e" transform="translate(132.234375 0)"/>
     </g>
    </g>
   </g>
   <g id="text_37">
    <g clip-path="url(#pa253a742f3)">
     <!-- 0, $\pi$/2, 3$\pi$/2 -->
     <g style="fill: #ffffff" transform="translate(487.416019 140.787953) scale(0.08 -0.08)">
      <use xlink:href="#DejaVuSans-13" transform="translate(0 0.78125)"/>
      <use xlink:href="#DejaVuSans-f" transform="translate(63.623047 0.78125)"/>
      <use xlink:href="#DejaVuSans-3" transform="translate(95.410156 0.78125)"/>
      <use xlink:href="#DejaVuSans-Oblique-354" transform="translate(127.197266 0.78125)"/>
      <use xlink:href="#DejaVuSans-12" transform="translate(187.402344 0.78125)"/>
      <use xlink:href="#DejaVuSans-15" transform="translate(221.09375 0.78125)"/>
      <use xlink:href="#DejaVuSans-f" transform="translate(284.716797 0.78125)"/>
      <use xlink:href="#DejaVuSans-3" transform="translate(316.503906 0.78125)"/>
      <use xlink:href="#DejaVuSans-16" transform="translate(348.291016 0.78125)"/>
      <use xlink:href="#DejaVuSans-Oblique-354" transform="translate(411.914062 0.78125)"/>
      <use xlink:href="#DejaVuSans-12" transform="translate(472.119141 0.78125)"/>
      <use xlink:href="#DejaVuSans-15" transform="translate(505.810547 0.78125)"/>
     </g>
    </g>
   </g>
   <g id="text_38">
    <g clip-path="url(#pa253a742f3)">
     <!-- ZXZ -->
     <g style="fill: #ffffff" transform="translate(496.858519 128.528236) scale(0.13 -0.13)">
      <use xlink:href="#DejaVuSans-3d"/>
      <use xlink:href="#DejaVuSans-3b" transform="translate(68.5 0)"/>
      <use xlink:href="#DejaVuSans-3d" transform="translate(137 0)"/>
     </g>
    </g>
   </g>
   <g id="text_39">
    <g clip-path="url(#pa253a742f3)">
     <!-- $-$$\pi$/2, $\pi$/2, 4.81 -->
     <g style="fill: #ffffff" transform="translate(480.256019 187.141953) scale(0.08 -0.08)">
      <defs>
       <path id="DejaVuSans-1b" d="M 2034 2216 
Q 1584 2216 1326 1975 
Q 1069 1734 1069 1313 
Q 1069 891 1326 650 
Q 1584 409 2034 409 
Q 2484 409 2743 651 
Q 3003 894 3003 1313 
Q 3003 1734 2745 1975 
Q 2488 2216 2034 2216 
z
M 1403 2484 
Q 997 2584 770 2862 
Q 544 3141 544 3541 
Q 544 4100 942 4425 
Q 1341 4750 2034 4750 
Q 2731 4750 3128 4425 
Q 3525 4100 3525 3541 
Q 3525 3141 3298 2862 
Q 3072 2584 2669 2484 
Q 3125 2378 3379 2068 
Q 3634 1759 3634 1313 
Q 3634 634 3220 271 
Q 2806 -91 2034 -91 
Q 1263 -91 848 271 
Q 434 634 434 1313 
Q 434 1759 690 2068 
Q 947 2378 1403 2484 
z
M 1172 3481 
Q 1172 3119 1398 2916 
Q 1625 2713 2034 2713 
Q 2441 2713 2670 2916 
Q 2900 3119 2900 3481 
Q 2900 3844 2670 4047 
Q 2441 4250 2034 4250 
Q 1625 4250 1398 4047 
Q 1172 3844 1172 3481 
z
" transform="scale(0.015625)"/>
      </defs>
      <use xlink:href="#DejaVuSans-c9c" transform="translate(0 0.78125)"/>
      <use xlink:href="#DejaVuSans-Oblique-354" transform="translate(83.789062 0.78125)"/>
      <use xlink:href="#DejaVuSans-12" transform="translate(143.994141 0.78125)"/>
      <use xlink:href="#DejaVuSans-15" transform="translate(177.685547 0.78125)"/>
      <use xlink:href="#DejaVuSans-f" transform="translate(241.308594 0.78125)"/>
      <use xlink:href="#DejaVuSans-3" transform="translate(273.095703 0.78125)"/>
      <use xlink:href="#DejaVuSans-Oblique-354" transform="translate(304.882812 0.78125)"/>
      <use xlink:href="#DejaVuSans-12" transform="translate(365.087891 0.78125)"/>
      <use xlink:href="#DejaVuSans-15" transform="translate(398.779297 0.78125)"/>
      <use xlink:href="#DejaVuSans-f" transform="translate(462.402344 0.78125)"/>
      <use xlink:href="#DejaVuSans-3" transform="translate(494.189453 0.78125)"/>
      <use xlink:href="#DejaVuSans-17" transform="translate(525.976562 0.78125)"/>
      <use xlink:href="#DejaVuSans-11" transform="translate(589.599609 0.78125)"/>
      <use xlink:href="#DejaVuSans-1b" transform="translate(621.386719 0.78125)"/>
      <use xlink:href="#DejaVuSans-14" transform="translate(685.009766 0.78125)"/>
     </g>
    </g>
   </g>
   <g id="text_40">
    <g clip-path="url(#pa253a742f3)">
     <!-- ZXZ -->
     <g style="fill: #ffffff" transform="translate(496.858519 174.882236) scale(0.13 -0.13)">
      <use xlink:href="#DejaVuSans-3d"/>
      <use xlink:href="#DejaVuSans-3b" transform="translate(68.5 0)"/>
      <use xlink:href="#DejaVuSans-3d" transform="translate(137 0)"/>
     </g>
    </g>
   </g>
  </g>
 </g>
 <defs>
  <clipPath id="pa253a742f3">
   <rect x="80.120667" y="46.233599" width="483.865991" height="296.665596"/>
  </clipPath>
 </defs>
</svg>
