<?xml version="1.0" encoding="utf-8" standalone="no"?>
<!DOCTYPE svg PUBLIC "-//W3C//DTD SVG 1.1//EN"
  "http://www.w3.org/Graphics/SVG/1.1/DTD/svg11.dtd">
<svg xmlns:xlink="http://www.w3.org/1999/xlink" width="447.797393pt" height="385.279995pt" viewBox="0 0 447.797393 385.279995" xmlns="http://www.w3.org/2000/svg" version="1.1">
 <metadata>
  <rdf:RDF xmlns:dc="http://purl.org/dc/elements/1.1/" xmlns:cc="http://creativecommons.org/ns#" xmlns:rdf="http://www.w3.org/1999/02/22-rdf-syntax-ns#">
   <cc:Work>
    <dc:type rdf:resource="http://purl.org/dc/dcmitype/StillImage"/>
    <dc:date>2025-03-28T17:48:32.517719</dc:date>
    <dc:format>image/svg+xml</dc:format>
    <dc:creator>
     <cc:Agent>
      <dc:title>Matplotlib v3.9.4, https://matplotlib.org/</dc:title>
     </cc:Agent>
    </dc:creator>
   </cc:Work>
  </rdf:RDF>
 </metadata>
 <defs>
  <style type="text/css">*{stroke-linejoin: round; stroke-linecap: butt}</style>
 </defs>
 <g id="figure_1">
  <g id="patch_1">
   <path d="M 0 385.279995 
L 447.797393 385.279995 
L 447.797393 0 
L 0 0 
z
" style="fill: #ffffff"/>
  </g>
  <g id="axes_1">
   <g id="line2d_1">
    <path d="M 114.503364 83.316799 
L 397.26276 83.316799 
" clip-path="url(#p56a9f8cf2b)" style="fill: none; stroke: #000000; stroke-width: 2; stroke-linecap: square"/>
   </g>
   <g id="line2d_2">
    <path d="M 114.503364 129.670798 
L 397.26276 129.670798 
" clip-path="url(#p56a9f8cf2b)" style="fill: none; stroke: #000000; stroke-width: 2; stroke-linecap: square"/>
   </g>
   <g id="line2d_3">
    <path d="M 114.503364 176.024798 
L 397.26276 176.024798 
" clip-path="url(#p56a9f8cf2b)" style="fill: none; stroke: #000000; stroke-width: 2; stroke-linecap: square"/>
   </g>
   <g id="line2d_4">
    <path d="M 114.503364 222.378797 
L 397.26276 222.378797 
" clip-path="url(#p56a9f8cf2b)" style="fill: none; stroke: #000000; stroke-width: 2; stroke-linecap: square"/>
   </g>
   <g id="line2d_5">
    <path d="M 114.503364 268.732796 
L 397.26276 268.732796 
" clip-path="url(#p56a9f8cf2b)" style="fill: none; stroke: #000000; stroke-width: 2; stroke-linecap: square"/>
   </g>
   <g id="line2d_6">
    <path d="M 114.503364 315.086796 
L 397.26276 315.086796 
" clip-path="url(#p56a9f8cf2b)" style="fill: none; stroke: #000000; stroke-width: 2; stroke-linecap: square"/>
   </g>
   <g id="patch_2">
    <path d="M 109.867964 60.139799 
L -1048.98202 60.139799 
L -1048.98202 384.617795 
L 109.867964 384.617795 
z
" clip-path="url(#p56a9f8cf2b)" style="fill: #ffffff; stroke: #ffffff; stroke-width: 1.5; stroke-linejoin: miter"/>
   </g>
   <g id="line2d_7">
    <path d="M 255.419522 129.670798 
L 255.419522 83.316799 
" clip-path="url(#p56a9f8cf2b)" style="fill: none; stroke: #33b1ff; stroke-width: 2; stroke-linecap: square"/>
   </g>
   <g id="line2d_8">
    <path d="M 324.950521 176.024798 
L 324.950521 129.670798 
" clip-path="url(#p56a9f8cf2b)" style="fill: none; stroke: #002d9c; stroke-width: 2; stroke-linecap: square"/>
   </g>
   <g id="patch_3">
    <path d="M 124.469474 98.381849 
L 154.599574 98.381849 
L 154.599574 68.251749 
L 124.469474 68.251749 
z
" clip-path="url(#p56a9f8cf2b)" style="fill: #9f1853; stroke: #9f1853; stroke-width: 1.5; stroke-linejoin: miter"/>
   </g>
   <g id="patch_4">
    <path d="M 121.342897 237.443847 
L 157.726151 237.443847 
L 157.726151 160.959748 
L 121.342897 160.959748 
z
" clip-path="url(#p56a9f8cf2b)" style="fill: #9f1853; stroke: #9f1853; stroke-width: 1.5; stroke-linejoin: miter"/>
   </g>
   <g id="patch_5">
    <path d="M 124.469474 283.797846 
L 154.599574 283.797846 
L 154.599574 253.667747 
L 124.469474 253.667747 
z
" clip-path="url(#p56a9f8cf2b)" style="fill: #fa4d56; stroke: #fa4d56; stroke-width: 1.5; stroke-linejoin: miter"/>
   </g>
   <g id="patch_6">
    <path d="M 170.823473 191.089847 
L 200.953573 191.089847 
L 200.953573 160.959748 
L 170.823473 160.959748 
z
" clip-path="url(#p56a9f8cf2b)" style="fill: #fa4d56; stroke: #fa4d56; stroke-width: 1.5; stroke-linejoin: miter"/>
   </g>
   <g id="patch_7">
    <path d="M 166.635389 144.735848 
L 205.141657 144.735848 
L 205.141657 68.251749 
L 166.635389 68.251749 
z
" clip-path="url(#p56a9f8cf2b)" style="fill: #9f1853; stroke: #9f1853; stroke-width: 1.5; stroke-linejoin: miter"/>
   </g>
   <g id="patch_8">
    <path d="M 240.354472 191.089847 
L 270.484572 191.089847 
L 270.484572 160.959748 
L 240.354472 160.959748 
z
" clip-path="url(#p56a9f8cf2b)" style="fill: #33b1ff; stroke: #33b1ff; stroke-width: 1.5; stroke-linejoin: miter"/>
   </g>
   <g id="patch_9">
    <path d="M 255.419522 87.836314 
C 256.618112 87.836314 257.767771 87.360109 258.615302 86.512579 
C 259.462833 85.665048 259.939037 84.515388 259.939037 83.316799 
C 259.939037 82.11821 259.462833 80.96855 258.615302 80.121019 
C 257.767771 79.273489 256.618112 78.797284 255.419522 78.797284 
C 254.220933 78.797284 253.071273 79.273489 252.223743 80.121019 
C 251.376212 80.96855 250.900007 82.11821 250.900007 83.316799 
C 250.900007 84.515388 251.376212 85.665048 252.223743 86.512579 
C 253.071273 87.360109 254.220933 87.836314 255.419522 87.836314 
z
" clip-path="url(#p56a9f8cf2b)" style="fill: #33b1ff; stroke: #33b1ff; stroke-width: 1.5; stroke-linejoin: miter"/>
   </g>
   <g id="patch_10">
    <path d="M 255.419522 134.190313 
C 256.618112 134.190313 257.767771 133.714109 258.615302 132.866578 
C 259.462833 132.019047 259.939037 130.869388 259.939037 129.670798 
C 259.939037 128.472209 259.462833 127.322549 258.615302 126.475019 
C 257.767771 125.627488 256.618112 125.151283 255.419522 125.151283 
C 254.220933 125.151283 253.071273 125.627488 252.223743 126.475019 
C 251.376212 127.322549 250.900007 128.472209 250.900007 129.670798 
C 250.900007 130.869388 251.376212 132.019047 252.223743 132.866578 
C 253.071273 133.714109 254.220933 134.190313 255.419522 134.190313 
z
" clip-path="url(#p56a9f8cf2b)" style="fill: #33b1ff; stroke: #33b1ff; stroke-width: 1.5; stroke-linejoin: miter"/>
   </g>
   <g id="patch_11">
    <path d="M 324.950521 180.544313 
C 326.149111 180.544313 327.29877 180.068108 328.146301 179.220577 
C 328.993832 178.373047 329.470036 177.223387 329.470036 176.024798 
C 329.470036 174.826208 328.993832 173.676549 328.146301 172.829018 
C 327.29877 171.981487 326.149111 171.505283 324.950521 171.505283 
C 323.751932 171.505283 322.602272 171.981487 321.754742 172.829018 
C 320.907211 173.676549 320.431006 174.826208 320.431006 176.024798 
C 320.431006 177.223387 320.907211 178.373047 321.754742 179.220577 
C 322.602272 180.068108 323.751932 180.544313 324.950521 180.544313 
z
" clip-path="url(#p56a9f8cf2b)" style="fill: #002d9c; stroke: #002d9c; stroke-width: 1.5; stroke-linejoin: miter"/>
   </g>
   <g id="patch_12">
    <path d="M 324.950521 140.216333 
C 327.74723 140.216333 330.429769 139.105189 332.40734 137.127617 
C 334.384912 135.150046 335.496056 132.467507 335.496056 129.670798 
C 335.496056 126.87409 334.384912 124.191551 332.40734 122.213979 
C 330.429769 120.236407 327.74723 119.125263 324.950521 119.125263 
C 322.153813 119.125263 319.471274 120.236407 317.493702 122.213979 
C 315.516131 124.191551 314.404986 126.87409 314.404986 129.670798 
C 314.404986 132.467507 315.516131 135.150046 317.493702 137.127617 
C 319.471274 139.105189 322.153813 140.216333 324.950521 140.216333 
z
" clip-path="url(#p56a9f8cf2b)" style="fill: #002d9c; stroke: #002d9c; stroke-width: 2; stroke-linejoin: miter"/>
   </g>
   <g id="patch_13">
    <path d="M 356.239471 144.735848 
L 386.36957 144.735848 
L 386.36957 114.605748 
L 356.239471 114.605748 
z
" clip-path="url(#p56a9f8cf2b)" style="fill: #33b1ff; stroke: #33b1ff; stroke-width: 1.5; stroke-linejoin: miter"/>
   </g>
   <g id="line2d_9">
    <path d="M 324.950521 135.696818 
L 324.950521 123.644778 
" clip-path="url(#p56a9f8cf2b)" style="fill: none; stroke: #ffffff; stroke-width: 2; stroke-linecap: square"/>
   </g>
   <g id="line2d_10">
    <path d="M 318.924501 129.670798 
L 330.976541 129.670798 
" clip-path="url(#p56a9f8cf2b)" style="fill: none; stroke: #ffffff; stroke-width: 2; stroke-linecap: square"/>
   </g>
   <g id="text_1">
    <g clip-path="url(#p56a9f8cf2b)">
     <!-- ${q}_{0}$ -->
     <g transform="translate(87.195064 87.767775) scale(0.1625 -0.1625)">
      <defs>
       <path id="DejaVuSans-Oblique-71" d="M 2669 525 
Q 2438 222 2123 65 
Q 1809 -91 1428 -91 
Q 897 -91 595 267 
Q 294 625 294 1253 
Q 294 1759 480 2231 
Q 666 2703 1013 3078 
Q 1238 3322 1530 3453 
Q 1822 3584 2144 3584 
Q 2531 3584 2781 3431 
Q 3031 3278 3144 2969 
L 3244 3494 
L 3822 3494 
L 2888 -1319 
L 2309 -1319 
L 2669 525 
z
M 891 1338 
Q 891 875 1084 633 
Q 1278 391 1644 391 
Q 2188 391 2572 911 
Q 2956 1431 2956 2175 
Q 2956 2625 2757 2864 
Q 2559 3103 2188 3103 
Q 1916 3103 1684 2976 
Q 1453 2850 1281 2606 
Q 1100 2350 995 2006 
Q 891 1663 891 1338 
z
" transform="scale(0.015625)"/>
       <path id="DejaVuSans-30" d="M 2034 4250 
Q 1547 4250 1301 3770 
Q 1056 3291 1056 2328 
Q 1056 1369 1301 889 
Q 1547 409 2034 409 
Q 2525 409 2770 889 
Q 3016 1369 3016 2328 
Q 3016 3291 2770 3770 
Q 2525 4250 2034 4250 
z
M 2034 4750 
Q 2819 4750 3233 4129 
Q 3647 3509 3647 2328 
Q 3647 1150 3233 529 
Q 2819 -91 2034 -91 
Q 1250 -91 836 529 
Q 422 1150 422 2328 
Q 422 3509 836 4129 
Q 1250 4750 2034 4750 
z
" transform="scale(0.015625)"/>
      </defs>
      <use xlink:href="#DejaVuSans-Oblique-71"/>
      <use xlink:href="#DejaVuSans-30" transform="translate(63.476562 -16.40625) scale(0.7)"/>
     </g>
    </g>
   </g>
   <g id="text_2">
    <g clip-path="url(#p56a9f8cf2b)">
     <!-- ${q}_{1}$ -->
     <g transform="translate(87.195064 134.121775) scale(0.1625 -0.1625)">
      <defs>
       <path id="DejaVuSans-31" d="M 794 531 
L 1825 531 
L 1825 4091 
L 703 3866 
L 703 4441 
L 1819 4666 
L 2450 4666 
L 2450 531 
L 3481 531 
L 3481 0 
L 794 0 
L 794 531 
z
" transform="scale(0.015625)"/>
      </defs>
      <use xlink:href="#DejaVuSans-Oblique-71"/>
      <use xlink:href="#DejaVuSans-31" transform="translate(63.476562 -16.40625) scale(0.7)"/>
     </g>
    </g>
   </g>
   <g id="text_3">
    <g clip-path="url(#p56a9f8cf2b)">
     <!-- ${q}_{2}$ -->
     <g transform="translate(87.195064 180.475774) scale(0.1625 -0.1625)">
      <defs>
       <path id="DejaVuSans-32" d="M 1228 531 
L 3431 531 
L 3431 0 
L 469 0 
L 469 531 
Q 828 903 1448 1529 
Q 2069 2156 2228 2338 
Q 2531 2678 2651 2914 
Q 2772 3150 2772 3378 
Q 2772 3750 2511 3984 
Q 2250 4219 1831 4219 
Q 1534 4219 1204 4116 
Q 875 4013 500 3803 
L 500 4441 
Q 881 4594 1212 4672 
Q 1544 4750 1819 4750 
Q 2544 4750 2975 4387 
Q 3406 4025 3406 3419 
Q 3406 3131 3298 2873 
Q 3191 2616 2906 2266 
Q 2828 2175 2409 1742 
Q 1991 1309 1228 531 
z
" transform="scale(0.015625)"/>
      </defs>
      <use xlink:href="#DejaVuSans-Oblique-71"/>
      <use xlink:href="#DejaVuSans-32" transform="translate(63.476562 -16.40625) scale(0.7)"/>
     </g>
    </g>
   </g>
   <g id="text_4">
    <g clip-path="url(#p56a9f8cf2b)">
     <!-- ${q}_{3}$ -->
     <g transform="translate(87.195064 226.829774) scale(0.1625 -0.1625)">
      <defs>
       <path id="DejaVuSans-33" d="M 2597 2516 
Q 3050 2419 3304 2112 
Q 3559 1806 3559 1356 
Q 3559 666 3084 287 
Q 2609 -91 1734 -91 
Q 1441 -91 1130 -33 
Q 819 25 488 141 
L 488 750 
Q 750 597 1062 519 
Q 1375 441 1716 441 
Q 2309 441 2620 675 
Q 2931 909 2931 1356 
Q 2931 1769 2642 2001 
Q 2353 2234 1838 2234 
L 1294 2234 
L 1294 2753 
L 1863 2753 
Q 2328 2753 2575 2939 
Q 2822 3125 2822 3475 
Q 2822 3834 2567 4026 
Q 2313 4219 1838 4219 
Q 1578 4219 1281 4162 
Q 984 4106 628 3988 
L 628 4550 
Q 988 4650 1302 4700 
Q 1616 4750 1894 4750 
Q 2613 4750 3031 4423 
Q 3450 4097 3450 3541 
Q 3450 3153 3228 2886 
Q 3006 2619 2597 2516 
z
" transform="scale(0.015625)"/>
      </defs>
      <use xlink:href="#DejaVuSans-Oblique-71"/>
      <use xlink:href="#DejaVuSans-33" transform="translate(63.476562 -16.40625) scale(0.7)"/>
     </g>
    </g>
   </g>
   <g id="text_5">
    <g clip-path="url(#p56a9f8cf2b)">
     <!-- ${q}_{4}$ -->
     <g transform="translate(87.195064 273.183773) scale(0.1625 -0.1625)">
      <defs>
       <path id="DejaVuSans-34" d="M 2419 4116 
L 825 1625 
L 2419 1625 
L 2419 4116 
z
M 2253 4666 
L 3047 4666 
L 3047 1625 
L 3713 1625 
L 3713 1100 
L 3047 1100 
L 3047 0 
L 2419 0 
L 2419 1100 
L 313 1100 
L 313 1709 
L 2253 4666 
z
" transform="scale(0.015625)"/>
      </defs>
      <use xlink:href="#DejaVuSans-Oblique-71"/>
      <use xlink:href="#DejaVuSans-34" transform="translate(63.476562 -16.40625) scale(0.7)"/>
     </g>
    </g>
   </g>
   <g id="text_6">
    <g clip-path="url(#p56a9f8cf2b)">
     <!-- ${q}_{5}$ -->
     <g transform="translate(87.195064 319.537772) scale(0.1625 -0.1625)">
      <defs>
       <path id="DejaVuSans-35" d="M 691 4666 
L 3169 4666 
L 3169 4134 
L 1269 4134 
L 1269 2991 
Q 1406 3038 1543 3061 
Q 1681 3084 1819 3084 
Q 2600 3084 3056 2656 
Q 3513 2228 3513 1497 
Q 3513 744 3044 326 
Q 2575 -91 1722 -91 
Q 1428 -91 1123 -41 
Q 819 9 494 109 
L 494 744 
Q 775 591 1075 516 
Q 1375 441 1709 441 
Q 2250 441 2565 725 
Q 2881 1009 2881 1497 
Q 2881 1984 2565 2268 
Q 2250 2553 1709 2553 
Q 1456 2553 1204 2497 
Q 953 2441 691 2322 
L 691 4666 
z
" transform="scale(0.015625)"/>
      </defs>
      <use xlink:href="#DejaVuSans-Oblique-71"/>
      <use xlink:href="#DejaVuSans-35" transform="translate(63.476562 -16.40625) scale(0.7)"/>
     </g>
    </g>
   </g>
   <g id="text_7">
    <g clip-path="url(#p56a9f8cf2b)">
     <!-- 0.4 -->
     <g style="fill: #ffffff" transform="translate(133.173274 94.563329) scale(0.08 -0.08)">
      <defs>
       <path id="DejaVuSans-2e" d="M 684 794 
L 1344 794 
L 1344 0 
L 684 0 
L 684 794 
z
" transform="scale(0.015625)"/>
      </defs>
      <use xlink:href="#DejaVuSans-30"/>
      <use xlink:href="#DejaVuSans-2e" x="63.623047"/>
      <use xlink:href="#DejaVuSans-34" x="95.410156"/>
     </g>
    </g>
   </g>
   <g id="text_8">
    <g clip-path="url(#p56a9f8cf2b)">
     <!-- $\mathrm{R_X}$ -->
     <g style="fill: #ffffff" transform="translate(131.604524 82.384471) scale(0.13 -0.13)">
      <defs>
       <path id="DejaVuSans-52" d="M 2841 2188 
Q 3044 2119 3236 1894 
Q 3428 1669 3622 1275 
L 4263 0 
L 3584 0 
L 2988 1197 
Q 2756 1666 2539 1819 
Q 2322 1972 1947 1972 
L 1259 1972 
L 1259 0 
L 628 0 
L 628 4666 
L 2053 4666 
Q 2853 4666 3247 4331 
Q 3641 3997 3641 3322 
Q 3641 2881 3436 2590 
Q 3231 2300 2841 2188 
z
M 1259 4147 
L 1259 2491 
L 2053 2491 
Q 2509 2491 2742 2702 
Q 2975 2913 2975 3322 
Q 2975 3731 2742 3939 
Q 2509 4147 2053 4147 
L 1259 4147 
z
" transform="scale(0.015625)"/>
       <path id="DejaVuSans-58" d="M 403 4666 
L 1081 4666 
L 2241 2931 
L 3406 4666 
L 4084 4666 
L 2584 2425 
L 4184 0 
L 3506 0 
L 2194 1984 
L 872 0 
L 191 0 
L 1856 2491 
L 403 4666 
z
" transform="scale(0.015625)"/>
      </defs>
      <use xlink:href="#DejaVuSans-52" transform="translate(0 0.09375)"/>
      <use xlink:href="#DejaVuSans-58" transform="translate(70.439453 -16.3125) scale(0.7)"/>
     </g>
    </g>
   </g>
   <g id="text_9">
    <g clip-path="url(#p56a9f8cf2b)">
     <!-- 0 -->
     <g style="fill: #ffffff" transform="translate(124.587677 179.611985) scale(0.13 -0.13)">
      <use xlink:href="#DejaVuSans-30"/>
     </g>
    </g>
   </g>
   <g id="text_10">
    <g clip-path="url(#p56a9f8cf2b)">
     <!-- 1 -->
     <g style="fill: #ffffff" transform="translate(124.587677 225.965985) scale(0.13 -0.13)">
      <use xlink:href="#DejaVuSans-31"/>
     </g>
    </g>
   </g>
   <g id="text_11">
    <g clip-path="url(#p56a9f8cf2b)">
     <!-- 0.2 -->
     <g style="fill: #ffffff" transform="translate(138.272214 209.289477) scale(0.08 -0.08)">
      <use xlink:href="#DejaVuSans-30"/>
      <use xlink:href="#DejaVuSans-2e" x="63.623047"/>
      <use xlink:href="#DejaVuSans-32" x="95.410156"/>
     </g>
    </g>
   </g>
   <g id="text_12">
    <g clip-path="url(#p56a9f8cf2b)">
     <!-- $\mathrm{R_{YY}}$ -->
     <g style="fill: #ffffff" transform="translate(134.298464 195.372345) scale(0.13 -0.13)">
      <defs>
       <path id="DejaVuSans-59" d="M -13 4666 
L 666 4666 
L 1959 2747 
L 3244 4666 
L 3922 4666 
L 2272 2222 
L 2272 0 
L 1638 0 
L 1638 2222 
L -13 4666 
z
" transform="scale(0.015625)"/>
      </defs>
      <use xlink:href="#DejaVuSans-52" transform="translate(0 0.09375)"/>
      <use xlink:href="#DejaVuSans-59" transform="translate(70.439453 -16.3125) scale(0.7)"/>
      <use xlink:href="#DejaVuSans-59" transform="translate(113.198242 -16.3125) scale(0.7)"/>
     </g>
    </g>
   </g>
   <g id="text_13">
    <g clip-path="url(#p56a9f8cf2b)">
     <!-- H -->
     <g transform="translate(134.646321 272.319984) scale(0.13 -0.13)">
      <defs>
       <path id="DejaVuSans-48" d="M 628 4666 
L 1259 4666 
L 1259 2753 
L 3553 2753 
L 3553 4666 
L 4184 4666 
L 4184 0 
L 3553 0 
L 3553 2222 
L 1259 2222 
L 1259 0 
L 628 0 
L 628 4666 
z
" transform="scale(0.015625)"/>
      </defs>
      <use xlink:href="#DejaVuSans-48"/>
     </g>
    </g>
   </g>
   <g id="text_14">
    <g clip-path="url(#p56a9f8cf2b)">
     <!-- H -->
     <g transform="translate(181.00032 179.611985) scale(0.13 -0.13)">
      <use xlink:href="#DejaVuSans-48"/>
     </g>
    </g>
   </g>
   <g id="text_15">
    <g clip-path="url(#p56a9f8cf2b)">
     <!-- 0 -->
     <g style="fill: #ffffff" transform="translate(169.880169 86.903986) scale(0.13 -0.13)">
      <use xlink:href="#DejaVuSans-30"/>
     </g>
    </g>
   </g>
   <g id="text_16">
    <g clip-path="url(#p56a9f8cf2b)">
     <!-- 1 -->
     <g style="fill: #ffffff" transform="translate(169.880169 133.257986) scale(0.13 -0.13)">
      <use xlink:href="#DejaVuSans-31"/>
     </g>
    </g>
   </g>
   <g id="text_17">
    <g clip-path="url(#p56a9f8cf2b)">
     <!-- 0.3 -->
     <g style="fill: #ffffff" transform="translate(184.626213 116.581478) scale(0.08 -0.08)">
      <use xlink:href="#DejaVuSans-30"/>
      <use xlink:href="#DejaVuSans-2e" x="63.623047"/>
      <use xlink:href="#DejaVuSans-33" x="95.410156"/>
     </g>
    </g>
   </g>
   <g id="text_18">
    <g clip-path="url(#p56a9f8cf2b)">
     <!-- $\mathrm{R_{XX}}$ -->
     <g style="fill: #ffffff" transform="translate(179.937463 102.664346) scale(0.13 -0.13)">
      <use xlink:href="#DejaVuSans-52" transform="translate(0 0.09375)"/>
      <use xlink:href="#DejaVuSans-58" transform="translate(70.439453 -16.3125) scale(0.7)"/>
      <use xlink:href="#DejaVuSans-58" transform="translate(118.393555 -16.3125) scale(0.7)"/>
     </g>
    </g>
   </g>
   <g id="text_19">
    <g clip-path="url(#p56a9f8cf2b)">
     <!-- 0.1 -->
     <g transform="translate(249.058272 187.271328) scale(0.08 -0.08)">
      <use xlink:href="#DejaVuSans-30"/>
      <use xlink:href="#DejaVuSans-2e" x="63.623047"/>
      <use xlink:href="#DejaVuSans-31" x="95.410156"/>
     </g>
    </g>
   </g>
   <g id="text_20">
    <g clip-path="url(#p56a9f8cf2b)">
     <!-- $\mathrm{R_Z}$ -->
     <g transform="translate(247.489522 175.09247) scale(0.13 -0.13)">
      <defs>
       <path id="DejaVuSans-5a" d="M 359 4666 
L 4025 4666 
L 4025 4184 
L 1075 531 
L 4097 531 
L 4097 0 
L 288 0 
L 288 481 
L 3238 4134 
L 359 4134 
L 359 4666 
z
" transform="scale(0.015625)"/>
      </defs>
      <use xlink:href="#DejaVuSans-52" transform="translate(0 0.09375)"/>
      <use xlink:href="#DejaVuSans-5a" transform="translate(70.439453 -16.3125) scale(0.7)"/>
     </g>
    </g>
   </g>
   <g id="text_21">
    <g clip-path="url(#p56a9f8cf2b)">
     <!-- $\mathrm{ZZ}$ (0.3) -->
     <g transform="translate(261.709884 105.619449) scale(0.08 -0.08)">
      <defs>
       <path id="DejaVuSans-20" transform="scale(0.015625)"/>
       <path id="DejaVuSans-28" d="M 1984 4856 
Q 1566 4138 1362 3434 
Q 1159 2731 1159 2009 
Q 1159 1288 1364 580 
Q 1569 -128 1984 -844 
L 1484 -844 
Q 1016 -109 783 600 
Q 550 1309 550 2009 
Q 550 2706 781 3412 
Q 1013 4119 1484 4856 
L 1984 4856 
z
" transform="scale(0.015625)"/>
       <path id="DejaVuSans-29" d="M 513 4856 
L 1013 4856 
Q 1481 4119 1714 3412 
Q 1947 2706 1947 2009 
Q 1947 1309 1714 600 
Q 1481 -109 1013 -844 
L 513 -844 
Q 928 -128 1133 580 
Q 1338 1288 1338 2009 
Q 1338 2731 1133 3434 
Q 928 4138 513 4856 
z
" transform="scale(0.015625)"/>
      </defs>
      <use xlink:href="#DejaVuSans-5a" transform="translate(0 0.125)"/>
      <use xlink:href="#DejaVuSans-5a" transform="translate(68.505859 0.125)"/>
      <use xlink:href="#DejaVuSans-20" transform="translate(137.011719 0.125)"/>
      <use xlink:href="#DejaVuSans-28" transform="translate(168.798828 0.125)"/>
      <use xlink:href="#DejaVuSans-30" transform="translate(207.8125 0.125)"/>
      <use xlink:href="#DejaVuSans-2e" transform="translate(271.435547 0.125)"/>
      <use xlink:href="#DejaVuSans-33" transform="translate(303.222656 0.125)"/>
      <use xlink:href="#DejaVuSans-29" transform="translate(366.845703 0.125)"/>
     </g>
    </g>
   </g>
   <g id="text_22">
    <g clip-path="url(#p56a9f8cf2b)">
     <!-- S -->
     <g transform="translate(367.178036 133.257986) scale(0.13 -0.13)">
      <defs>
       <path id="DejaVuSans-53" d="M 3425 4513 
L 3425 3897 
Q 3066 4069 2747 4153 
Q 2428 4238 2131 4238 
Q 1616 4238 1336 4038 
Q 1056 3838 1056 3469 
Q 1056 3159 1242 3001 
Q 1428 2844 1947 2747 
L 2328 2669 
Q 3034 2534 3370 2195 
Q 3706 1856 3706 1288 
Q 3706 609 3251 259 
Q 2797 -91 1919 -91 
Q 1588 -91 1214 -16 
Q 841 59 441 206 
L 441 856 
Q 825 641 1194 531 
Q 1563 422 1919 422 
Q 2459 422 2753 634 
Q 3047 847 3047 1241 
Q 3047 1584 2836 1778 
Q 2625 1972 2144 2069 
L 1759 2144 
Q 1053 2284 737 2584 
Q 422 2884 422 3419 
Q 422 4038 858 4394 
Q 1294 4750 2059 4750 
Q 2388 4750 2728 4690 
Q 3069 4631 3425 4513 
z
" transform="scale(0.015625)"/>
      </defs>
      <use xlink:href="#DejaVuSans-53"/>
     </g>
    </g>
   </g>
  </g>
 </g>
 <defs>
  <clipPath id="p56a9f8cf2b">
   <rect x="57.094168" y="46.233599" width="344.803993" height="296.665596"/>
  </clipPath>
 </defs>
</svg>
