<?xml version="1.0" encoding="UTF-8"?><!DOCTYPE svg  PUBLIC '-//W3C//DTD SVG 1.1//EN'  'http://www.w3.org/Graphics/SVG/1.1/DTD/svg11.dtd'><svg width="800.58pt" height="251.9pt" version="1.1" viewBox="0 0 800.58 251.9" xmlns="http://www.w3.org/2000/svg" xmlns:xlink="http://www.w3.org/1999/xlink"><defs><style type="text/css">*{stroke-linejoin: round; stroke-linecap: butt}</style></defs><path d="m0 251.9h800.58v-251.9h-800.58z" fill="#ffffff"/><path d="m53.664 204.67h725.4v-182.95h-725.4z" fill="#f2f3f4"/><path d="m53.664 95.887h725.4" clip-path="url(#0e85c0a4cba)" fill="none" stroke="#000000" stroke-linecap="square"/><path d="m53.664 175h725.4" clip-path="url(#0e85c0a4cba)" fill="none" stroke="#000000" stroke-linecap="square"/><defs><path id="137ffead5fa" d="m0 0v3.5" stroke="#000000" stroke-width=".8"/></defs><use x="86.637102" y="204.669188" stroke="#000000" stroke-width=".8" xlink:href="#137ffead5fa"/><g transform="translate(81.865 223.07) scale(.15 -.15)"><defs><path id="DejaVuSans-30" transform="scale(.015625)" d="m2034 4250q-487 0-733-480-245-479-245-1442 0-959 245-1439 246-480 733-480 491 0 736 480 246 480 246 1439 0 963-246 1442-245 480-736 480zm0 500q785 0 1199-621 414-620 414-1801 0-1178-414-1799-414-620-1199-620-784 0-1198 620-414 621-414 1799 0 1181 414 1801 414 621 1198 621z"/></defs><use xlink:href="#DejaVuSans-30"/></g><use x="225.122557" y="204.669188" stroke="#000000" stroke-width=".8" xlink:href="#137ffead5fa"/><g transform="translate(215.58 223.07) scale(.15 -.15)"><defs><path id="DejaVuSans-34" transform="scale(.015625)" d="m2419 4116-1594-2491h1594v2491zm-166 550h794v-3041h666v-525h-666v-1100h-628v1100h-2106v609l1940 2957z"/><path id="DejaVuSans-32" transform="scale(.015625)" d="m1228 531h2203v-531h-2962v531q359 372 979 998 621 627 780 809 303 340 423 576 121 236 121 464 0 372-261 606-261 235-680 235-297 0-627-103-329-103-704-313v638q381 153 712 231 332 78 607 78 725 0 1156-363 431-362 431-968 0-288-108-546-107-257-392-607-78-91-497-524-418-433-1181-1211z"/></defs><use xlink:href="#DejaVuSans-34"/><use transform="translate(63.623)" xlink:href="#DejaVuSans-32"/></g><use x="363.608011" y="204.669188" stroke="#000000" stroke-width=".8" xlink:href="#137ffead5fa"/><g transform="translate(354.06 223.07) scale(.15 -.15)"><defs><path id="DejaVuSans-38" transform="scale(.015625)" d="m2034 2216q-450 0-708-241-257-241-257-662 0-422 257-663 258-241 708-241t709 242q260 243 260 662 0 421-258 662-257 241-711 241zm-631 268q-406 100-633 378-226 279-226 679 0 559 398 884 399 325 1092 325 697 0 1094-325t397-884q0-400-227-679-226-278-629-378 456-106 710-416 255-309 255-755 0-679-414-1042-414-362-1186-362-771 0-1186 362-414 363-414 1042 0 446 256 755 257 310 713 416zm-231 997q0-362 226-565 227-203 636-203 407 0 636 203 230 203 230 565 0 363-230 566-229 203-636 203-409 0-636-203-226-203-226-566z"/></defs><use xlink:href="#DejaVuSans-38"/><use transform="translate(63.623)" xlink:href="#DejaVuSans-34"/></g><use x="502.093466" y="204.669188" stroke="#000000" stroke-width=".8" xlink:href="#137ffead5fa"/><g transform="translate(487.78 223.07) scale(.15 -.15)"><defs><path id="DejaVuSans-31" transform="scale(.015625)" d="m794 531h1031v3560l-1122-225v575l1116 225h631v-4135h1031v-531h-2687v531z"/><path id="DejaVuSans-36" transform="scale(.015625)" d="m2113 2584q-425 0-674-291-248-290-248-796 0-503 248-796 249-292 674-292t673 292q248 293 248 796 0 506-248 796-248 291-673 291zm1253 1979v-575q-238 112-480 171-242 60-480 60-625 0-955-422-329-422-376-1275 184 272 462 417 279 145 613 145 703 0 1111-427 408-426 408-1160 0-719-425-1154-425-434-1131-434-810 0-1238 620-428 621-428 1799 0 1106 525 1764t1409 658q238 0 480-47t505-140z"/></defs><use xlink:href="#DejaVuSans-31"/><use transform="translate(63.623)" xlink:href="#DejaVuSans-32"/><use transform="translate(127.25)" xlink:href="#DejaVuSans-36"/></g><use x="640.57892" y="204.669188" stroke="#000000" stroke-width=".8" xlink:href="#137ffead5fa"/><g transform="translate(626.26 223.07) scale(.15 -.15)"><use xlink:href="#DejaVuSans-31"/><use transform="translate(63.623)" xlink:href="#DejaVuSans-36"/><use transform="translate(127.25)" xlink:href="#DejaVuSans-38"/></g><use x="779.064375" y="204.669188" stroke="#000000" stroke-width=".8" xlink:href="#137ffead5fa"/><g transform="translate(764.75 223.07) scale(.15 -.15)"><use xlink:href="#DejaVuSans-32"/><use transform="translate(63.623)" xlink:href="#DejaVuSans-31"/><use transform="translate(127.25)" xlink:href="#DejaVuSans-30"/></g><g transform="translate(331.36 241.58) scale(.15 -.15)"><defs><path id="DejaVuSans-53" transform="scale(.015625)" d="m3425 4513v-616q-359 172-678 256-319 85-616 85-515 0-795-200t-280-569q0-310 186-468 186-157 705-254l381-78q706-135 1042-474t336-907q0-679-455-1029-454-350-1332-350-331 0-705 75-373 75-773 222v650q384-215 753-325 369-109 725-109 540 0 834 212 294 213 294 607 0 343-211 537t-692 291l-385 75q-706 140-1022 440-315 300-315 835 0 619 436 975t1201 356q329 0 669-60 341-59 697-177z"/><path id="DejaVuSans-79" transform="scale(.015625)" d="m2059-325q-243-625-475-815-231-191-618-191h-460v481h338q237 0 368 113 132 112 291 531l103 262-1415 3444h609l1094-2737 1094 2737h609l-1538-3825z"/><path id="DejaVuSans-73" transform="scale(.015625)" d="m2834 3397v-544q-243 125-506 187-262 63-544 63-428 0-642-131t-214-394q0-200 153-314t616-217l197-44q612-131 870-370t258-667q0-488-386-773-386-284-1061-284-281 0-586 55t-642 164v594q319-166 628-249 309-82 613-82 406 0 624 139 219 139 219 392 0 234-158 359-157 125-692 241l-200 47q-534 112-772 345-237 233-237 639 0 494 350 762 350 269 994 269 318 0 599-47 282-46 519-140z"/><path id="DejaVuSans-74" transform="scale(.015625)" d="m1172 4494v-994h1184v-447h-1184v-1900q0-428 117-550t477-122h590v-481h-590q-666 0-919 248-253 249-253 905v1900h-422v447h422v994h578z"/><path id="DejaVuSans-65" transform="scale(.015625)" d="m3597 1894v-281h-2644q38-594 358-905t892-311q331 0 642 81t618 244v-544q-310-131-635-200t-659-69q-838 0-1327 487-489 488-489 1320 0 859 464 1363 464 505 1252 505 706 0 1117-455 411-454 411-1235zm-575 169q-6 471-264 752-258 282-683 282-481 0-770-272t-333-766l2050 4z"/><path id="DejaVuSans-6d" transform="scale(.015625)" d="m3328 2828q216 388 516 572t706 184q547 0 844-383 297-382 297-1088v-2113h-578v2094q0 503-179 746-178 244-543 244-447 0-707-297-259-296-259-809v-1978h-578v2094q0 506-178 748t-550 242q-441 0-701-298-259-298-259-808v-1978h-578v3500h578v-544q197 322 472 475t653 153q382 0 649-194 267-193 395-562z"/><path id="DejaVuSans-63" transform="scale(.015625)" d="m3122 3366v-538q-244 135-489 202t-495 67q-560 0-870-355-309-354-309-995t309-996q310-354 870-354 250 0 495 67t489 202v-532q-241-112-499-168-257-57-548-57-791 0-1257 497-465 497-465 1341 0 856 470 1346 471 491 1290 491 265 0 518-55 253-54 491-163z"/><path id="DejaVuSans-6c" transform="scale(.015625)" d="m603 4863h575v-4863h-575v4863z"/><path id="DejaVuSans-69" transform="scale(.015625)" d="m603 3500h575v-3500h-575v3500zm0 1363h575v-729h-575v729z"/><path id="DejaVuSans-28" transform="scale(.015625)" d="m1984 4856q-418-718-622-1422-203-703-203-1425 0-721 205-1429t620-1424h-500q-468 735-701 1444t-233 1409q0 697 231 1403 232 707 703 1444h500z"/><path id="DejaVuSans-64" transform="scale(.015625)" d="m2906 2969v1894h575v-4863h-575v525q-181-312-458-464-276-152-664-152-634 0-1033 506-398 507-398 1332t398 1331q399 506 1033 506 388 0 664-152 277-151 458-463zm-1959-1222q0-634 261-995t717-361 718 361q263 361 263 995t-263 995q-262 361-718 361t-717-361-261-995z"/><path id="DejaVuSans-29" transform="scale(.015625)" d="m513 4856h500q468-737 701-1444 233-706 233-1403 0-700-233-1409t-701-1444h-500q415 716 620 1424t205 1429q0 722-205 1425-205 704-620 1422z"/></defs><use xlink:href="#DejaVuSans-53"/><use transform="translate(63.477)" xlink:href="#DejaVuSans-79"/><use transform="translate(122.66)" xlink:href="#DejaVuSans-73"/><use transform="translate(174.76)" xlink:href="#DejaVuSans-74"/><use transform="translate(213.96)" xlink:href="#DejaVuSans-65"/><use transform="translate(275.49)" xlink:href="#DejaVuSans-6d"/><use transform="translate(372.9)" xlink:href="#DejaVuSans-20"/><use transform="translate(404.69)" xlink:href="#DejaVuSans-63"/><use transform="translate(459.67)" xlink:href="#DejaVuSans-79"/><use transform="translate(518.85)" xlink:href="#DejaVuSans-63"/><use transform="translate(573.83)" xlink:href="#DejaVuSans-6c"/><use transform="translate(601.61)" xlink:href="#DejaVuSans-65"/><use transform="translate(663.13)" xlink:href="#DejaVuSans-20"/><use transform="translate(694.92)" xlink:href="#DejaVuSans-74"/><use transform="translate(734.13)" xlink:href="#DejaVuSans-69"/><use transform="translate(761.91)" xlink:href="#DejaVuSans-6d"/><use transform="translate(859.33)" xlink:href="#DejaVuSans-65"/><use transform="translate(920.85)" xlink:href="#DejaVuSans-20"/><use transform="translate(952.64)" xlink:href="#DejaVuSans-28"/><use transform="translate(991.65)" xlink:href="#DejaVuSans-64"/><use transform="translate(1055.1)" xlink:href="#DejaVuSans-74"/><use transform="translate(1094.3)" xlink:href="#DejaVuSans-29"/></g><defs><path id="b79cd882adf" d="m86.637-156.02v-0.4132h3.2973v-0.31353h3.2973v-0.34671h3.2973v-0.38228h3.2973v-0.42026h3.2973v-0.46065h3.2973v-0.5034h3.2973v-0.54846h3.2973v-0.59575h3.2973v-0.64513h3.2973v-0.69644h3.2973v-0.74949h3.2973v-0.80404h3.2973v-0.85981h3.2973v-0.91649h3.2973v-0.9737h3.2973v-1.0311h3.2973v-1.0881h3.2973v-1.1445h3.2973v-1.1995h3.2973v-1.2528h3.2973v-1.3037h3.2973v-1.3517h3.2973v-1.3961h3.2973v-1.4365h3.2973v-1.4721h3.2973v-1.5025h3.2973v-1.527h3.2973v-1.5451h3.2973v-1.5563h3.2973v-1.5601h3.2973v-1.5562h3.2973v-1.544h3.2973v-1.5234h3.2973v-1.4942h3.2973v-1.4561h3.2973v-1.4092h3.2973v-1.3535h3.2973v-1.289h3.2973v-1.2161h3.2973v-1.1349h3.2973v-1.046h3.2973v-0.9497h3.2973v-0.84671h3.2973v-0.73764h3.2973v-0.62321h3.2973v-0.50421h3.2973v-0.38148h3.2973v-0.25591h3.2973v-0.12844h6.5945v0.12844h3.2973v0.25591h3.2973v0.38148h3.2973v0.50421h3.2973v0.62321h3.2973v0.73764h3.2973v0.84671h3.2973v0.9497h3.2973v1.046h3.2973v1.1349h3.2973v1.2161h3.2973v1.289h3.2973v1.3535h3.2973v1.4092h3.2973v1.4561h3.2973v1.4942h3.2973v1.5234h3.2973v1.544h3.2973v1.5562h3.2973v1.5601h3.2973v1.5563h3.2973v1.5451h3.2973v1.527h3.2973v1.5025h3.2973v1.4721h3.2973v1.4365h3.2973v1.3961h3.2973v1.3517h3.2973v1.3037h3.2973v1.2528h3.2973v1.1995h3.2973v1.1445h3.2973v1.0881h3.2973v1.0311h3.2973v0.9737h3.2973v0.91649h3.2973v0.85981h3.2973v0.80404h3.2973v0.74949h3.2973v0.69644h3.2973v0.64513h3.2973v0.59575h3.2973v0.54846h3.2973v0.5034h3.2973v0.46065h3.2973v0.42026h3.2973v0.38228h3.2973v0.34671h3.2973v0.31353h3.2973v0.4132h-3.2973-3.2973-3.2973-3.2973-3.2973-3.2973-3.2973-3.2973-3.2973-3.2973-3.2973-3.2973-3.2973-3.2973-3.2973-3.2973-3.2973-3.2973-3.2973-3.2973-3.2973-3.2973-3.2973-3.2973-3.2973-3.2973-3.2973-3.2973-3.2973-3.2973-3.2973-3.2973-3.2973-3.2973-3.2973-3.2973-3.2973-3.2973-3.2973-3.2973-3.2973-3.2973-3.2973-3.2973-3.2973-3.2973-3.2973-3.2973-3.2973-6.5945-3.2973-3.2973-3.2973-3.2973-3.2973-3.2973-3.2973-3.2973-3.2973-3.2973-3.2973-3.2973-3.2973-3.2973-3.2973-3.2973-3.2973-3.2973-3.2973-3.2973-3.2973-3.2973-3.2973-3.2973-3.2973-3.2973-3.2973-3.2973-3.2973-3.2973-3.2973-3.2973-3.2973-3.2973-3.2973-3.2973-3.2973-3.2973-3.2973-3.2973-3.2973-3.2973-3.2973-3.2973-3.2973-3.2973-3.2973-3.2973-3.2973z"/></defs><g clip-path="url(#0e85c0a4cba)"><use y="251.903563" fill="#648fff" fill-opacity=".3" xlink:href="#b79cd882adf"/></g><defs><path id="4f7774f55bf" d="m86.637-156.02h329.73-329.73z"/></defs><g clip-path="url(#0e85c0a4cba)"><use y="251.903563" fill="#002999" fill-opacity=".3" xlink:href="#4f7774f55bf"/></g><defs><path id="856cc015674" d="m86.637-76.902v-0.4132h3.2973v-0.31353h3.2973v-0.34671h3.2973v-0.38228h3.2973v-0.42026h3.2973v-0.46065h3.2973v-0.5034h3.2973v-0.54846h3.2973v-0.59575h3.2973v-0.64513h3.2973v-0.69644h3.2973v-0.74949h3.2973v-0.80404h3.2973v-0.85981h3.2973v-0.91649h3.2973v-0.9737h3.2973v-1.0311h3.2973v-1.0881h3.2973v-1.1445h3.2973v-1.1995h3.2973v-1.2528h3.2973v-1.3037h3.2973v-1.3517h3.2973v-1.3961h3.2973v-1.4365h3.2973v-1.4721h3.2973v-1.5025h3.2973v-1.527h3.2973v-1.5451h3.2973v-1.5563h3.2973v-1.5601h3.2973v-1.5562h3.2973v-1.544h3.2973v-1.5234h3.2973v-1.4942h3.2973v-1.4561h3.2973v-1.4092h3.2973v-1.3535h3.2973v-1.289h3.2973v-1.2161h3.2973v-1.1349h3.2973v-1.046h3.2973v-0.9497h3.2973v-0.84671h3.2973v-0.73764h3.2973v-0.62321h3.2973v-0.50421h3.2973v-0.38148h3.2973v-0.25591h3.2973v-0.12844h6.5945v0.12844h3.2973v0.25591h3.2973v0.38148h3.2973v0.50421h3.2973v0.62321h3.2973v0.73764h3.2973v0.84671h3.2973v0.9497h3.2973v1.046h3.2973v1.1349h3.2973v1.2161h3.2973v1.289h3.2973v1.3535h3.2973v1.4092h3.2973v1.4561h3.2973v1.4942h3.2973v1.5234h3.2973v1.544h3.2973v1.5562h3.2973v1.5601h3.2973v1.5563h3.2973v1.5451h3.2973v1.527h3.2973v1.5025h3.2973v1.4721h3.2973v1.4365h3.2973v1.3961h3.2973v1.3517h3.2973v1.3037h3.2973v1.2528h3.2973v1.1995h3.2973v1.1445h3.2973v1.0881h3.2973v1.0311h3.2973v0.9737h3.2973v0.91649h3.2973v0.85981h3.2973v0.80404h3.2973v0.74949h3.2973v0.69644h3.2973v0.64513h3.2973v0.59575h3.2973v0.54846h3.2973v0.5034h3.2973v0.46065h3.2973v0.42026h3.2973v0.38228h3.2973v0.34671h3.2973v0.31353h3.2973v0.4132h-3.2973-3.2973-3.2973-3.2973-3.2973-3.2973-3.2973-3.2973-3.2973-3.2973-3.2973-3.2973-3.2973-3.2973-3.2973-3.2973-3.2973-3.2973-3.2973-3.2973-3.2973-3.2973-3.2973-3.2973-3.2973-3.2973-3.2973-3.2973-3.2973-3.2973-3.2973-3.2973-3.2973-3.2973-3.2973-3.2973-3.2973-3.2973-3.2973-3.2973-3.2973-3.2973-3.2973-3.2973-3.2973-3.2973-3.2973-3.2973-3.2973-6.5945-3.2973-3.2973-3.2973-3.2973-3.2973-3.2973-3.2973-3.2973-3.2973-3.2973-3.2973-3.2973-3.2973-3.2973-3.2973-3.2973-3.2973-3.2973-3.2973-3.2973-3.2973-3.2973-3.2973-3.2973-3.2973-3.2973-3.2973-3.2973-3.2973-3.2973-3.2973-3.2973-3.2973-3.2973-3.2973-3.2973-3.2973-3.2973-3.2973-3.2973-3.2973-3.2973-3.2973-3.2973-3.2973-3.2973-3.2973-3.2973-3.2973z"/></defs><g clip-path="url(#0e85c0a4cba)"><use y="251.903563" fill="#648fff" fill-opacity=".3" xlink:href="#856cc015674"/></g><defs><path id="2d952fc347b" d="m86.637-76.902h329.73-329.73z"/></defs><g clip-path="url(#0e85c0a4cba)"><use y="251.903563" fill="#002999" fill-opacity=".3" xlink:href="#2d952fc347b"/></g><defs><path id="4864cfce874" d="m416.36-76.902v-0.4132h3.2973v-0.31353h3.2973v-0.34671h3.2973v-0.38228h3.2973v-0.42026h3.2973v-0.46065h3.2973v-0.5034h3.2973v-0.54846h3.2973v-0.59575h3.2973v-0.64513h3.2973v-0.69644h3.2973v-0.74949h3.2973v-0.80404h3.2973v-0.85981h3.2973v-0.91649h3.2973v-0.9737h3.2973v-1.0311h3.2973v-1.0881h3.2973v-1.1445h3.2973v-1.1995h3.2973v-1.2528h3.2973v-1.3037h3.2973v-1.3517h3.2973v-1.3961h3.2973v-1.4365h3.2973v-1.4721h3.2973v-1.5025h3.2973v-1.527h3.2973v-1.5451h3.2973v-1.5563h3.2973v-1.5601h3.2973v-1.5562h3.2973v-1.544h3.2973v-1.5234h3.2973v-1.4942h3.2973v-1.4561h3.2973v-1.4092h3.2973v-1.3535h3.2973v-1.289h3.2973v-1.2161h3.2973v-1.1349h3.2973v-1.046h3.2973v-0.9497h3.2973v-0.84671h3.2973v-0.73764h3.2973v-0.62321h3.2973v-0.50421h3.2973v-0.38148h3.2973v-0.25591h3.2973v-0.12844h6.5945v0.12844h3.2973v0.25591h3.2973v0.38148h3.2973v0.50421h3.2973v0.62321h3.2973v0.73764h3.2973v0.84671h3.2973v0.9497h3.2973v1.046h3.2973v1.1349h3.2973v1.2161h3.2973v1.289h3.2973v1.3535h3.2973v1.4092h3.2973v1.4561h3.2973v1.4942h3.2973v1.5234h3.2973v1.544h3.2973v1.5562h3.2973v1.5601h3.2973v1.5563h3.2973v1.5451h3.2973v1.527h3.2973v1.5025h3.2973v1.4721h3.2973v1.4365h3.2973v1.3961h3.2973v1.3517h3.2973v1.3037h3.2973v1.2528h3.2973v1.1995h3.2973v1.1445h3.2973v1.0881h3.2973v1.0311h3.2973v0.9737h3.2973v0.91649h3.2973v0.85981h3.2973v0.80404h3.2973v0.74949h3.2973v0.69644h3.2973v0.64513h3.2973v0.59575h3.2973v0.54846h3.2973v0.5034h3.2973v0.46065h3.2973v0.42026h3.2973v0.38228h3.2973v0.34671h3.2973v0.31353h3.2973v0.4132h-3.2973-3.2973-3.2973-3.2973-3.2973-3.2973-3.2973-3.2973-3.2973-3.2973-3.2973-3.2973-3.2973-3.2973-3.2973-3.2973-3.2973-3.2973-3.2973-3.2973-3.2973-3.2973-3.2973-3.2973-3.2973-3.2973-3.2973-3.2973-3.2973-3.2973-3.2973-3.2973-3.2973-3.2973-3.2973-3.2973-3.2973-3.2973-3.2973-3.2973-3.2973-3.2973-3.2973-3.2973-3.2973-3.2973-3.2973-3.2973-3.2973-6.5945-3.2973-3.2973-3.2973-3.2973-3.2973-3.2973-3.2973-3.2973-3.2973-3.2973-3.2973-3.2973-3.2973-3.2973-3.2973-3.2973-3.2973-3.2973-3.2973-3.2973-3.2973-3.2973-3.2973-3.2973-3.2973-3.2973-3.2973-3.2973-3.2973-3.2973-3.2973-3.2973-3.2973-3.2973-3.2973-3.2973-3.2973-3.2973-3.2973-3.2973-3.2973-3.2973-3.2973-3.2973-3.2973-3.2973-3.2973-3.2973-3.2973z"/></defs><g clip-path="url(#0e85c0a4cba)"><use y="251.903563" fill="#648fff" fill-opacity=".3" xlink:href="#4864cfce874"/></g><defs><path id="0eb41a1ee02" d="m416.36-76.902h329.73-329.73z"/></defs><g clip-path="url(#0e85c0a4cba)"><use y="251.903563" fill="#002999" fill-opacity=".3" xlink:href="#0eb41a1ee02"/></g><path d="m53.664 204.67v-182.95" fill="none" stroke="#000000" stroke-linecap="square" stroke-width=".8"/><path d="m779.06 204.67v-182.95" fill="none" stroke="#000000" stroke-linecap="square" stroke-width=".8"/><path d="m53.664 204.67h725.4" fill="none" stroke="#000000" stroke-linecap="square" stroke-width=".8"/><path d="m53.664 21.717h725.4" fill="none" stroke="#000000" stroke-linecap="square" stroke-width=".8"/><g transform="translate(223.97 114.03) scale(.12 -.12)" fill="#222222"><defs><path id="DejaVuSans-47" transform="scale(.015625)" d="m3809 666v1253h-1031v519h1656v-2004q-365-259-806-392-440-133-940-133-1094 0-1712 639-617 640-617 1780 0 1144 617 1783 618 639 1712 639 456 0 867-113 411-112 758-331v-672q-350 297-744 447t-828 150q-857 0-1287-478-429-478-429-1425 0-944 429-1422 430-478 1287-478 334 0 596 58 263 58 472 180z"/><path id="DejaVuSans-61" transform="scale(.015625)" d="m2194 1759q-697 0-966-159t-269-544q0-306 202-486 202-179 548-179 479 0 768 339t289 901v128h-572zm1147 238v-1997h-575v531q-197-318-491-470t-719-152q-537 0-855 302-317 302-317 808 0 590 395 890 396 300 1180 300h807v57q0 397-261 614t-733 217q-300 0-585-72-284-72-546-216v532q315 122 612 182 297 61 578 61 760 0 1135-394 375-393 375-1193z"/><path id="DejaVuSans-75" transform="scale(.015625)" d="m544 1381v2119h575v-2097q0-497 193-746 194-248 582-248 465 0 735 297 271 297 271 810v1984h575v-3500h-575v538q-209-319-486-474-276-155-642-155-603 0-916 375-312 375-312 1097zm1447 2203z"/><path id="DejaVuSans-6e" transform="scale(.015625)" d="m3513 2113v-2113h-575v2094q0 497-194 743-194 247-581 247-466 0-735-297-269-296-269-809v-1978h-578v3500h578v-544q207 316 486 472 280 156 646 156 603 0 912-373 310-373 310-1098z"/></defs><use xlink:href="#DejaVuSans-47"/><use transform="translate(77.49)" xlink:href="#DejaVuSans-61"/><use transform="translate(138.77)" xlink:href="#DejaVuSans-75"/><use transform="translate(202.15)" xlink:href="#DejaVuSans-73"/><use transform="translate(254.25)" xlink:href="#DejaVuSans-73"/><use transform="translate(306.35)" xlink:href="#DejaVuSans-69"/><use transform="translate(334.13)" xlink:href="#DejaVuSans-61"/><use transform="translate(395.41)" xlink:href="#DejaVuSans-6e"/></g><g transform="translate(32.571 100.03) scale(.15 -.15)"><defs><path id="DejaVuSans-44" transform="scale(.015625)" d="m1259 4147v-3628h763q966 0 1414 437 448 438 448 1382 0 937-448 1373t-1414 436h-763zm-631 519h1297q1356 0 1990-564 635-564 635-1764 0-1207-638-1773-637-565-1987-565h-1297v4666z"/></defs><use xlink:href="#DejaVuSans-44"/><use transform="translate(77.002)" xlink:href="#DejaVuSans-30"/></g><g transform="translate(7.2 114.03) scale(.12 -.12)"><defs><path id="DejaVuSans-6f" transform="scale(.015625)" d="m1959 3097q-462 0-731-361t-269-989 267-989q268-361 733-361 460 0 728 362 269 363 269 988 0 622-269 986-268 364-728 364zm0 487q750 0 1178-488 429-487 429-1349 0-859-429-1349-428-489-1178-489-753 0-1180 489-426 490-426 1349 0 862 426 1349 427 488 1180 488z"/><path id="DejaVuSans-66" transform="scale(.015625)" d="m2375 4863v-479h-550q-309 0-430-125-120-125-120-450v-309h947v-447h-947v-3053h-578v3053h-550v447h550v244q0 584 272 851 272 268 862 268h544z"/><path id="DejaVuSans-72" transform="scale(.015625)" d="m2631 2963q-97 56-211 82-114 27-251 27-488 0-749-317t-261-911v-1844h-578v3500h578v-544q182 319 472 473 291 155 707 155 59 0 131-8 72-7 159-23l3-590z"/><path id="DejaVuSans-71" transform="scale(.015625)" d="m947 1747q0-634 261-995t717-361 718 361q263 361 263 995t-263 995q-262 361-718 361t-717-361-261-995zm1959-1222q-181-312-458-464-276-152-664-152-634 0-1033 506-398 507-398 1332t398 1331q399 506 1033 506 388 0 664-152 277-151 458-463v531h575v-4831h-575v1856z"/><path id="DejaVuSans-2e" transform="scale(.015625)" d="m684 794h660v-794h-660v794z"/></defs><use xlink:href="#DejaVuSans-6e"/><use transform="translate(63.379)" xlink:href="#DejaVuSans-6f"/><use transform="translate(124.56)" xlink:href="#DejaVuSans-20"/><use transform="translate(156.35)" xlink:href="#DejaVuSans-66"/><use transform="translate(191.55)" xlink:href="#DejaVuSans-72"/><use transform="translate(230.42)" xlink:href="#DejaVuSans-65"/><use transform="translate(291.94)" xlink:href="#DejaVuSans-71"/><use transform="translate(355.42)" xlink:href="#DejaVuSans-2e"/></g><g transform="translate(223.97 193.15) scale(.12 -.12)" fill="#222222"><use xlink:href="#DejaVuSans-47"/><use transform="translate(77.49)" xlink:href="#DejaVuSans-61"/><use transform="translate(138.77)" xlink:href="#DejaVuSans-75"/><use transform="translate(202.15)" xlink:href="#DejaVuSans-73"/><use transform="translate(254.25)" xlink:href="#DejaVuSans-73"/><use transform="translate(306.35)" xlink:href="#DejaVuSans-69"/><use transform="translate(334.13)" xlink:href="#DejaVuSans-61"/><use transform="translate(395.41)" xlink:href="#DejaVuSans-6e"/></g><g transform="translate(553.7 193.15) scale(.12 -.12)" fill="#222222"><use xlink:href="#DejaVuSans-47"/><use transform="translate(77.49)" xlink:href="#DejaVuSans-61"/><use transform="translate(138.77)" xlink:href="#DejaVuSans-75"/><use transform="translate(202.15)" xlink:href="#DejaVuSans-73"/><use transform="translate(254.25)" xlink:href="#DejaVuSans-73"/><use transform="translate(306.35)" xlink:href="#DejaVuSans-69"/><use transform="translate(334.13)" xlink:href="#DejaVuSans-61"/><use transform="translate(395.41)" xlink:href="#DejaVuSans-6e"/></g><g transform="translate(32.571 179.14) scale(.15 -.15)"><use xlink:href="#DejaVuSans-44"/><use transform="translate(77.002)" xlink:href="#DejaVuSans-31"/></g><g transform="translate(7.2 193.15) scale(.12 -.12)"><use xlink:href="#DejaVuSans-6e"/><use transform="translate(63.379)" xlink:href="#DejaVuSans-6f"/><use transform="translate(124.56)" xlink:href="#DejaVuSans-20"/><use transform="translate(156.35)" xlink:href="#DejaVuSans-66"/><use transform="translate(191.55)" xlink:href="#DejaVuSans-72"/><use transform="translate(230.42)" xlink:href="#DejaVuSans-65"/><use transform="translate(291.94)" xlink:href="#DejaVuSans-71"/><use transform="translate(355.42)" xlink:href="#DejaVuSans-2e"/></g><g transform="translate(53.664 18.598) scale(.15 -.15)"><defs><path id="DejaVuSans-4e" transform="scale(.015625)" d="m628 4666h850l2069-3903v3903h612v-4666h-850l-2068 3903v-3903h-613v4666z"/><path id="DejaVuSans-3a" transform="scale(.015625)" d="m750 794h659v-794h-659v794zm0 2515h659v-793h-659v793z"/><path id="DejaVuSans-4c" transform="scale(.015625)" d="m628 4666h631v-4135h2272v-531h-2903v4666z"/><path id="DejaVuSans-67" transform="scale(.015625)" d="m2906 1791q0 625-258 968-257 344-723 344-462 0-720-344-258-343-258-968 0-622 258-966t720-344q466 0 723 344 258 344 258 966zm575-1357q0-893-397-1329-396-436-1215-436-303 0-572 45t-522 139v559q253-137 500-202 247-66 503-66 566 0 847 295t281 892v285q-178-310-456-463t-666-153q-643 0-1037 490-394 491-394 1301 0 812 394 1302 394 491 1037 491 388 0 666-153t456-462v531h575v-3066z"/><path id="DejaVuSans-78" transform="scale(.015625)" d="m3513 3500-1266-1703 1331-1797h-678l-1019 1375-1018-1375h-679l1360 1831-1244 1669h678l928-1247 928 1247h679z"/><path id="DejaVuSans-70" transform="scale(.015625)" d="m1159 525v-1856h-578v4831h578v-531q182 312 458 463 277 152 661 152 638 0 1036-506 399-506 399-1331t-399-1332q-398-506-1036-506-384 0-661 152-276 152-458 464zm1957 1222q0 634-261 995t-717 361q-457 0-718-361t-261-995 261-995 718-361q456 0 717 361t261 995z"/><path id="DejaVuSans-2c" transform="scale(.015625)" d="m750 794h659v-538l-512-1e3h-403l256 1e3v538z"/></defs><use xlink:href="#DejaVuSans-4e"/><use transform="translate(74.805)" xlink:href="#DejaVuSans-61"/><use transform="translate(136.08)" xlink:href="#DejaVuSans-6d"/><use transform="translate(233.5)" xlink:href="#DejaVuSans-65"/><use transform="translate(295.02)" xlink:href="#DejaVuSans-3a"/><use transform="translate(328.71)" xlink:href="#DejaVuSans-20"/><use transform="translate(360.5)" xlink:href="#DejaVuSans-4c"/><use transform="translate(414.46)" xlink:href="#DejaVuSans-65"/><use transform="translate(475.98)" xlink:href="#DejaVuSans-66"/><use transform="translate(509.44)" xlink:href="#DejaVuSans-74"/><use transform="translate(548.65)" xlink:href="#DejaVuSans-20"/><use transform="translate(580.44)" xlink:href="#DejaVuSans-61"/><use transform="translate(641.71)" xlink:href="#DejaVuSans-6c"/><use transform="translate(669.5)" xlink:href="#DejaVuSans-69"/><use transform="translate(697.28)" xlink:href="#DejaVuSans-67"/><use transform="translate(760.76)" xlink:href="#DejaVuSans-6e"/><use transform="translate(824.14)" xlink:href="#DejaVuSans-20"/><use transform="translate(855.92)" xlink:href="#DejaVuSans-65"/><use transform="translate(915.7)" xlink:href="#DejaVuSans-78"/><use transform="translate(974.88)" xlink:href="#DejaVuSans-61"/><use transform="translate(1036.2)" xlink:href="#DejaVuSans-6d"/><use transform="translate(1133.6)" xlink:href="#DejaVuSans-70"/><use transform="translate(1197)" xlink:href="#DejaVuSans-6c"/><use transform="translate(1224.8)" xlink:href="#DejaVuSans-65"/><use transform="translate(1286.4)" xlink:href="#DejaVuSans-2c"/><use transform="translate(1318.1)" xlink:href="#DejaVuSans-20"/><use transform="translate(1349.9)" xlink:href="#DejaVuSans-44"/><use transform="translate(1426.9)" xlink:href="#DejaVuSans-75"/><use transform="translate(1490.3)" xlink:href="#DejaVuSans-72"/><use transform="translate(1531.4)" xlink:href="#DejaVuSans-61"/><use transform="translate(1592.7)" xlink:href="#DejaVuSans-74"/><use transform="translate(1631.9)" xlink:href="#DejaVuSans-69"/><use transform="translate(1659.7)" xlink:href="#DejaVuSans-6f"/><use transform="translate(1720.9)" xlink:href="#DejaVuSans-6e"/><use transform="translate(1784.3)" xlink:href="#DejaVuSans-3a"/><use transform="translate(1817.9)" xlink:href="#DejaVuSans-20"/><use transform="translate(1849.7)" xlink:href="#DejaVuSans-32"/><use transform="translate(1913.4)" xlink:href="#DejaVuSans-30"/><use transform="translate(1977)" xlink:href="#DejaVuSans-30"/><use transform="translate(2040.6)" xlink:href="#DejaVuSans-2e"/><use transform="translate(2072.4)" xlink:href="#DejaVuSans-30"/><use transform="translate(2136)" xlink:href="#DejaVuSans-20"/><use transform="translate(2167.8)" xlink:href="#DejaVuSans-64"/><use transform="translate(2231.3)" xlink:href="#DejaVuSans-74"/></g><defs><clipPath id="0e85c0a4cba"><rect x="53.664" y="21.717" width="725.4" height="182.95"/></clipPath></defs></svg>