<?xml version="1.0" encoding="UTF-8"?><!DOCTYPE svg  PUBLIC '-//W3C//DTD SVG 1.1//EN'  'http://www.w3.org/Graphics/SVG/1.1/DTD/svg11.dtd'><svg width="266.38pt" height="172pt" version="1.1" viewBox="0 0 266.38 172" xmlns="http://www.w3.org/2000/svg" xmlns:xlink="http://www.w3.org/1999/xlink"><defs><style type="text/css">*{stroke-linejoin: round; stroke-linecap: butt}</style></defs><path d="m0 172h266.38v-172h-266.38z" fill="#ffffff"/><path d="m64.497 44.283h190.05" clip-path="url(#e2710788234)" fill="none" stroke="#000000" stroke-linecap="square" stroke-width="2"/><path d="m64.497 90.637h190.05" clip-path="url(#e2710788234)" fill="none" stroke="#000000" stroke-linecap="square" stroke-width="2"/><path d="m73.768 141.63 4.6354-9.2708" clip-path="url(#e2710788234)" fill="none" stroke="#778899" stroke-linecap="square" stroke-width="1.5"/><path d="m64.497 135.48h190.05" clip-path="url(#e2710788234)" fill="none" stroke="#778899" stroke-linecap="square" stroke-width="2"/><path d="m64.497 138.5h190.05" clip-path="url(#e2710788234)" fill="none" stroke="#778899" stroke-linecap="square" stroke-width="2"/><path d="m176.21 126.45h12.052l-6.026 8.6914z" clip-path="url(#e2710788234)" fill="#778899"/><path d="m222.56 126.45h12.052l-6.026 8.6914z" clip-path="url(#e2710788234)" fill="#778899"/><path d="m59.862 21.106h-1158.8v185.42h1158.8z" clip-path="url(#e2710788234)" fill="#ffffff" stroke="#ffffff" stroke-width="1.5"/><path d="m183.74 44.283v82.162" clip-path="url(#e2710788234)" fill="none" stroke="#778899" stroke-linecap="square" stroke-width="2"/><path d="m180.73 44.283v82.162" clip-path="url(#e2710788234)" fill="none" stroke="#778899" stroke-linecap="square" stroke-width="2"/><path d="m230.1 90.637v35.808" clip-path="url(#e2710788234)" fill="none" stroke="#778899" stroke-linecap="square" stroke-width="2"/><path d="m227.08 90.637v35.808" clip-path="url(#e2710788234)" fill="none" stroke="#778899" stroke-linecap="square" stroke-width="2"/><path d="m82.344 105.7h60.724v-76.484h-60.724z" clip-path="url(#e2710788234)" fill="#9f1853" stroke="#9f1853" stroke-width="1.5"/><path d="m167.17 59.348h30.13v-30.13h-30.13z" clip-path="url(#e2710788234)" fill="#a8a8a8" stroke="#a8a8a8" stroke-width="1.5"/><path d="m192.78 48.803c0-2.7958-1.1118-5.4799-3.0887-7.4568s-4.661-3.0887-7.4568-3.0887-5.4799 1.1118-7.4568 3.0887-3.0887 4.661-3.0887 7.4568" clip-path="url(#e2710788234)" fill="none" stroke="#000000" stroke-width="2"/><path d="m182.24 48.803 10.546-10.546" clip-path="url(#e2710788234)" fill="none" stroke="#000000" stroke-linecap="square" stroke-width="2"/><path d="m213.53 105.7h30.13v-30.13h-30.13z" clip-path="url(#e2710788234)" fill="#a8a8a8" stroke="#a8a8a8" stroke-width="1.5"/><path d="m239.14 95.157c0-2.7958-1.1118-5.4799-3.0887-7.4568s-4.661-3.0887-7.4568-3.0887-5.4799 1.1118-7.4568 3.0887-3.0887 4.661-3.0887 7.4568" clip-path="url(#e2710788234)" fill="none" stroke="#000000" stroke-width="2"/><path d="m228.59 95.157 10.546-10.546" clip-path="url(#e2710788234)" fill="none" stroke="#000000" stroke-linecap="square" stroke-width="2"/><g clip-path="url(#e2710788234)"><g transform="translate(37.189 48.734) scale(.1625 -.1625)"><defs><path id="DejaVuSans-Oblique-71" transform="scale(.015625)" d="m2669 525q-231-303-546-460-314-156-695-156-531 0-833 358-301 358-301 986 0 506 186 978t533 847q225 244 517 375t614 131q387 0 637-153t363-462l100 525h578l-934-4813h-579l360 1844zm-1778 813q0-463 193-705 194-242 560-242 544 0 928 520t384 1264q0 450-199 689-198 239-569 239-272 0-504-127-231-126-403-370-181-256-286-600-104-343-104-668z"/><path id="DejaVuSans-30" transform="scale(.015625)" d="m2034 4250q-487 0-733-480-245-479-245-1442 0-959 245-1439 246-480 733-480 491 0 736 480 246 480 246 1439 0 963-246 1442-245 480-736 480zm0 500q785 0 1199-621 414-620 414-1801 0-1178-414-1799-414-620-1199-620-784 0-1198 620-414 621-414 1799 0 1181 414 1801 414 621 1198 621z"/></defs><use xlink:href="#DejaVuSans-Oblique-71"/><use transform="translate(63.477 -16.406) scale(.7)" xlink:href="#DejaVuSans-30"/></g></g><g clip-path="url(#e2710788234)"><g transform="translate(37.189 95.088) scale(.1625 -.1625)"><defs><path id="DejaVuSans-31" transform="scale(.015625)" d="m794 531h1031v3560l-1122-225v575l1116 225h631v-4135h1031v-531h-2687v531z"/></defs><use xlink:href="#DejaVuSans-Oblique-71"/><use transform="translate(63.477 -16.406) scale(.7)" xlink:href="#DejaVuSans-31"/></g></g><g clip-path="url(#e2710788234)"><g transform="translate(69.133 130.19) scale(.104 -.104)"><defs><path id="DejaVuSans-32" transform="scale(.015625)" d="m1228 531h2203v-531h-2962v531q359 372 979 998 621 627 780 809 303 340 423 576 121 236 121 464 0 372-261 606-261 235-680 235-297 0-627-103-329-103-704-313v638q381 153 712 231 332 78 607 78 725 0 1156-363 431-362 431-968 0-288-108-546-107-257-392-607-78-91-497-524-418-433-1181-1211z"/></defs><use xlink:href="#DejaVuSans-32"/></g></g><g clip-path="url(#e2710788234)"><g transform="translate(46.291 141.48) scale(.1625 -.1625)"><defs><path id="DejaVuSans-63" transform="scale(.015625)" d="m3122 3366v-538q-244 135-489 202t-495 67q-560 0-870-355-309-354-309-995t309-996q310-354 870-354 250 0 495 67t489 202v-532q-241-112-499-168-257-57-548-57-791 0-1257 497-465 497-465 1341 0 856 470 1346 471 491 1290 491 265 0 518-55 253-54 491-163z"/></defs><use xlink:href="#DejaVuSans-63"/></g></g><g clip-path="url(#e2710788234)"><g transform="translate(85.588 47.87) scale(.13 -.13)" fill="#ffffff"><use xlink:href="#DejaVuSans-30"/></g></g><g clip-path="url(#e2710788234)"><g transform="translate(85.588 94.224) scale(.13 -.13)" fill="#ffffff"><use xlink:href="#DejaVuSans-31"/></g></g><g clip-path="url(#e2710788234)"><g transform="translate(94.071 71.047) scale(.13 -.13)" fill="#ffffff"><defs><path id="DejaVuSans-55" transform="scale(.015625)" d="m556 4666h635v-2835q0-750 271-1080 272-329 882-329 606 0 878 329 272 330 272 1080v2835h634v-2913q0-912-452-1378-451-466-1332-466-885 0-1337 466-451 466-451 1378v2913z"/><path id="DejaVuSans-6e" transform="scale(.015625)" d="m3513 2113v-2113h-575v2094q0 497-194 743-194 247-581 247-466 0-735-297-269-296-269-809v-1978h-578v3500h578v-544q207 316 486 472 280 156 646 156 603 0 912-373 310-373 310-1098z"/><path id="DejaVuSans-69" transform="scale(.015625)" d="m603 3500h575v-3500h-575v3500zm0 1363h575v-729h-575v729z"/><path id="DejaVuSans-74" transform="scale(.015625)" d="m1172 4494v-994h1184v-447h-1184v-1900q0-428 117-550t477-122h590v-481h-590q-666 0-919 248-253 249-253 905v1900h-422v447h422v994h578z"/><path id="DejaVuSans-61" transform="scale(.015625)" d="m2194 1759q-697 0-966-159t-269-544q0-306 202-486 202-179 548-179 479 0 768 339t289 901v128h-572zm1147 238v-1997h-575v531q-197-318-491-470t-719-152q-537 0-855 302-317 302-317 808 0 590 395 890 396 300 1180 300h807v57q0 397-261 614t-733 217q-300 0-585-72-284-72-546-216v532q315 122 612 182 297 61 578 61 760 0 1135-394 375-393 375-1193z"/><path id="DejaVuSans-72" transform="scale(.015625)" d="m2631 2963q-97 56-211 82-114 27-251 27-488 0-749-317t-261-911v-1844h-578v3500h578v-544q182 319 472 473 291 155 707 155 59 0 131-8 72-7 159-23l3-590z"/><path id="DejaVuSans-79" transform="scale(.015625)" d="m2059-325q-243-625-475-815-231-191-618-191h-460v481h338q237 0 368 113 132 112 291 531l103 262-1415 3444h609l1094-2737 1094 2737h609l-1538-3825z"/></defs><use xlink:href="#DejaVuSans-55"/><use transform="translate(73.193)" xlink:href="#DejaVuSans-6e"/><use transform="translate(136.57)" xlink:href="#DejaVuSans-69"/><use transform="translate(164.36)" xlink:href="#DejaVuSans-74"/><use transform="translate(203.56)" xlink:href="#DejaVuSans-61"/><use transform="translate(264.84)" xlink:href="#DejaVuSans-72"/><use transform="translate(305.96)" xlink:href="#DejaVuSans-79"/></g></g><g clip-path="url(#e2710788234)"><g transform="translate(193.82 130.19) scale(.104 -.104)"><use xlink:href="#DejaVuSans-30"/></g></g><g clip-path="url(#e2710788234)"><g transform="translate(240.18 130.19) scale(.104 -.104)"><use xlink:href="#DejaVuSans-31"/></g></g><defs><clipPath id="e2710788234"><rect x="7.2" y="7.2" width="251.98" height="157.6"/></clipPath></defs></svg>