<svg width="519" height="287" viewBox="0 0 519 287" fill="none" xmlns="http://www.w3.org/2000/svg">
<rect width="519" height="287" fill="#21272A"/>
<path d="M73 78H483" stroke="#697077" stroke-width="2"/>
<path d="M73 163H483" stroke="#697077" stroke-width="2"/>
<rect x="103" y="51" width="350" height="53" fill="#D0E2FF"/>
<path d="M206.85 86.24C203.33 86.24 201.23 83.76 201.23 79.1C201.23 74.44 203.33 71.8 206.85 71.8C209.17 71.8 210.77 72.92 211.65 74.86L210.29 75.68C209.73 74.24 208.57 73.3 206.85 73.3C204.45 73.3 203.03 75.2 203.03 78.06V80.14C203.03 83 204.45 84.74 206.85 84.74C208.63 84.74 209.85 83.74 210.41 82.22L211.75 83.06C210.87 85.02 209.17 86.24 206.85 86.24ZM218.092 86.24C215.332 86.24 213.432 84.12 213.432 80.84C213.432 77.56 215.332 75.44 218.092 75.44C220.852 75.44 222.752 77.56 222.752 80.84C222.752 84.12 220.852 86.24 218.092 86.24ZM218.092 84.82C219.812 84.82 221.032 83.76 221.032 81.58V80.1C221.032 77.92 219.812 76.86 218.092 76.86C216.372 76.86 215.152 77.92 215.152 80.1V81.58C215.152 83.76 216.372 84.82 218.092 84.82ZM226.984 86H225.384V75.68H226.984V77.36H227.064C227.564 76.2 228.444 75.44 229.984 75.44C232.104 75.44 233.444 76.88 233.444 79.38V86H231.844V79.66C231.844 77.82 231.044 76.88 229.504 76.88C228.224 76.88 226.984 77.52 226.984 78.84V86ZM243.351 86V84.32H243.271C242.651 85.6 241.671 86.24 240.251 86.24C237.671 86.24 236.051 84.14 236.051 80.84C236.051 77.54 237.671 75.44 240.251 75.44C241.671 75.44 242.731 76.06 243.271 77.36H243.351V71.2H244.951V86H243.351ZM240.691 84.8C242.151 84.8 243.351 84.04 243.351 82.7V78.86C243.351 77.72 242.151 76.88 240.691 76.88C238.891 76.88 237.771 78.12 237.771 79.96V81.72C237.771 83.56 238.891 84.8 240.691 84.8ZM249.152 73.26C248.472 73.26 248.172 72.9 248.172 72.36V72.1C248.172 71.56 248.472 71.2 249.152 71.2C249.832 71.2 250.132 71.56 250.132 72.1V72.36C250.132 72.9 249.832 73.26 249.152 73.26ZM248.352 86V75.68H249.952V86H248.352ZM257.632 86H255.632C254.532 86 253.932 85.3 253.932 84.3V77.08H252.232V75.68H253.192C253.872 75.68 254.092 75.44 254.092 74.74V72.82H255.532V75.68H257.792V77.08H255.532V84.6H257.632V86ZM261.164 73.26C260.484 73.26 260.184 72.9 260.184 72.36V72.1C260.184 71.56 260.484 71.2 261.164 71.2C261.844 71.2 262.144 71.56 262.144 72.1V72.36C262.144 72.9 261.844 73.26 261.164 73.26ZM260.364 86V75.68H261.964V86H260.364ZM269.264 86.24C266.504 86.24 264.604 84.12 264.604 80.84C264.604 77.56 266.504 75.44 269.264 75.44C272.024 75.44 273.924 77.56 273.924 80.84C273.924 84.12 272.024 86.24 269.264 86.24ZM269.264 84.82C270.984 84.82 272.204 83.76 272.204 81.58V80.1C272.204 77.92 270.984 76.86 269.264 76.86C267.544 76.86 266.324 77.92 266.324 80.1V81.58C266.324 83.76 267.544 84.82 269.264 84.82ZM278.155 86H276.555V75.68H278.155V77.36H278.235C278.735 76.2 279.615 75.44 281.155 75.44C283.275 75.44 284.615 76.88 284.615 79.38V86H283.015V79.66C283.015 77.82 282.215 76.88 280.675 76.88C279.395 76.88 278.155 77.52 278.155 78.84V86ZM296.323 86H295.423C294.243 86 293.763 85.28 293.643 84.32H293.543C293.103 85.58 292.003 86.24 290.563 86.24C288.383 86.24 287.103 85.04 287.103 83.12C287.103 81.18 288.503 80.1 291.503 80.1H293.543V79.08C293.543 77.62 292.743 76.82 291.103 76.82C289.863 76.82 289.043 77.42 288.483 78.36L287.523 77.46C288.083 76.36 289.323 75.44 291.183 75.44C293.663 75.44 295.143 76.74 295.143 78.92V84.6H296.323V86ZM290.823 84.88C292.403 84.88 293.543 84.06 293.543 83V81.3H291.423C289.603 81.3 288.783 81.86 288.783 82.86V83.28C288.783 84.3 289.583 84.88 290.823 84.88ZM301.726 86H300.306C299.206 86 298.606 85.3 298.606 84.34V71.2H300.206V84.6H301.726V86ZM308.782 86V71.2H310.382V77.36H310.462C311.002 76.06 312.062 75.44 313.482 75.44C316.062 75.44 317.682 77.54 317.682 80.84C317.682 84.14 316.062 86.24 313.482 86.24C312.062 86.24 311.082 85.6 310.462 84.32H310.382V86H308.782ZM313.042 84.8C314.842 84.8 315.962 83.56 315.962 81.72V79.96C315.962 78.12 314.842 76.88 313.042 76.88C311.582 76.88 310.382 77.72 310.382 78.86V82.7C310.382 84.04 311.582 84.8 313.042 84.8ZM323.504 86H322.084C320.984 86 320.384 85.3 320.384 84.34V71.2H321.984V84.6H323.504V86ZM329.733 86.24C326.973 86.24 325.073 84.12 325.073 80.84C325.073 77.56 326.973 75.44 329.733 75.44C332.493 75.44 334.393 77.56 334.393 80.84C334.393 84.12 332.493 86.24 329.733 86.24ZM329.733 84.82C331.453 84.82 332.673 83.76 332.673 81.58V80.1C332.673 77.92 331.453 76.86 329.733 76.86C328.013 76.86 326.793 77.92 326.793 80.1V81.58C326.793 83.76 328.013 84.82 329.733 84.82ZM340.864 86.24C337.964 86.24 336.264 84.14 336.264 80.84C336.264 77.54 337.964 75.44 340.864 75.44C342.904 75.44 344.124 76.44 344.724 77.86L343.384 78.54C343.004 77.48 342.124 76.86 340.864 76.86C338.964 76.86 337.984 78.16 337.984 79.96V81.72C337.984 83.52 338.964 84.82 340.864 84.82C342.164 84.82 343.104 84.2 343.664 83.02L344.824 83.8C344.164 85.28 342.824 86.24 340.864 86.24ZM347.083 86V71.2H348.683V80.58H348.763L350.343 78.82L353.263 75.68H355.203L351.383 79.76L355.583 86H353.643L350.223 80.74L348.683 82.32V86H347.083Z" fill="black"/>
<path d="M264.255 246H262.255C261.155 246 260.555 245.3 260.555 244.3V237.08H258.855V235.68H259.815C260.495 235.68 260.715 235.44 260.715 234.74V232.82H262.155V235.68H264.415V237.08H262.155V244.6H264.255V246ZM267.787 233.26C267.107 233.26 266.807 232.9 266.807 232.36V232.1C266.807 231.56 267.107 231.2 267.787 231.2C268.467 231.2 268.767 231.56 268.767 232.1V232.36C268.767 232.9 268.467 233.26 267.787 233.26ZM266.987 246V235.68H268.587V246H266.987ZM273.587 246H271.987V235.68H273.587V237.36H273.667C274.127 236.3 274.847 235.44 276.447 235.44C277.807 235.44 279.047 236.06 279.607 237.54H279.647C280.027 236.42 281.027 235.44 282.787 235.44C284.887 235.44 286.147 236.88 286.147 239.38V246H284.547V239.66C284.547 237.84 283.847 236.88 282.287 236.88C281.027 236.88 279.867 237.52 279.867 238.84V246H278.267V239.66C278.267 237.82 277.567 236.88 276.047 236.88C274.787 236.88 273.587 237.52 273.587 238.84V246ZM293.328 246.24C290.528 246.24 288.688 244.12 288.688 240.84C288.688 237.56 290.528 235.44 293.328 235.44C296.088 235.44 297.788 237.56 297.788 240.48V241.24H290.368V241.72C290.368 243.5 291.508 244.84 293.428 244.84C294.728 244.84 295.728 244.2 296.268 243.06L297.408 243.88C296.748 245.28 295.268 246.24 293.328 246.24ZM293.328 236.78C291.588 236.78 290.368 238.1 290.368 239.9V240.04H296.068V239.82C296.068 238 294.968 236.78 293.328 236.78Z" fill="#C6C6C6"/>
<path d="M276.997 155.56L276.697 157H267.977L268.337 155.2L273.497 151.04C275.217 149.66 276.137 148.26 276.337 147.26C276.377 147.06 276.457 146.6 276.457 146.3C276.457 145.48 276.017 144.26 274.397 144.26C272.857 144.26 271.957 145.14 271.297 146.7L269.857 146.08C270.777 144.08 272.197 142.8 274.557 142.8C276.837 142.8 278.257 144.34 278.257 146.28C278.257 148.64 276.697 150.32 274.337 152.18L270.017 155.56H276.997ZM283.469 157.24C281.889 157.24 280.389 156.56 279.569 155.36L280.629 154.42C281.349 155.38 282.269 155.9 283.469 155.9C284.829 155.9 285.809 155.22 285.809 153.96C285.809 153.26 285.489 152.76 284.289 152.52L283.509 152.36C281.949 152.04 280.749 151.4 280.749 149.7C280.749 147.98 281.989 146.44 284.569 146.44C286.089 146.44 287.149 146.98 287.929 147.96L286.869 148.9C286.409 148.26 285.669 147.78 284.449 147.78C282.949 147.78 282.249 148.52 282.249 149.56C282.249 150.28 282.589 150.74 283.749 150.98L284.529 151.14C286.189 151.48 287.289 152.14 287.289 153.86C287.289 155.94 285.669 157.24 283.469 157.24Z" fill="#D4BBFF"/>
<path d="M44.7199 90V84.32H44.6399C44.0199 85.6 43.0399 86.24 41.6199 86.24C39.0399 86.24 37.4199 84.14 37.4199 80.84C37.4199 77.54 39.0399 75.44 41.6199 75.44C43.0399 75.44 44.0999 76.06 44.6399 77.36H44.7199V75.68H46.3199V90H44.7199ZM42.0599 84.8C43.5199 84.8 44.7199 84.04 44.7199 82.7V78.86C44.7199 77.72 43.5199 76.88 42.0599 76.88C40.2599 76.88 39.1399 78.12 39.1399 79.96V81.72C39.1399 83.56 40.2599 84.8 42.0599 84.8ZM51.8015 86.12C49.8015 86.12 48.9015 84.74 48.9015 82.32C48.9015 79.88 49.8015 78.5 51.8015 78.5C53.8015 78.5 54.7015 79.88 54.7015 82.3C54.7015 84.74 53.8015 86.12 51.8015 86.12ZM51.8015 85.1C52.9415 85.1 53.3615 84.26 53.3615 82.96V81.66C53.3615 80.36 52.9415 79.52 51.8015 79.52C50.6615 79.52 50.2415 80.36 50.2415 81.66V82.96C50.2415 84.26 50.6615 85.1 51.8015 85.1Z" fill="#C1C7CD"/>
<path d="M45.4055 170V164.32H45.3255C44.7055 165.6 43.7255 166.24 42.3055 166.24C39.7255 166.24 38.1055 164.14 38.1055 160.84C38.1055 157.54 39.7255 155.44 42.3055 155.44C43.7255 155.44 44.7855 156.06 45.3255 157.36H45.4055V155.68H47.0055V170H45.4055ZM42.7455 164.8C44.2055 164.8 45.4055 164.04 45.4055 162.7V158.86C45.4055 157.72 44.2055 156.88 42.7455 156.88C40.9455 156.88 39.8255 158.12 39.8255 159.96V161.72C39.8255 163.56 40.9455 164.8 42.7455 164.8ZM55.207 166H49.807V165H51.987V159.64H51.867L50.067 161.42L49.347 160.68L51.387 158.62H53.247V165H55.207V166Z" fill="#C1C7CD"/>
<rect x="170" y="145" width="36" height="36" fill="#0F62FE"/>
<path d="M182.602 170L187.222 162.9L182.742 156.04H184.162L187.982 161.94H188.022L191.882 156.04H193.262L188.742 162.84L193.402 170H191.962L188.002 163.82H187.962L183.982 170H182.602Z" fill="white"/>
<rect x="350" y="145" width="36" height="36" fill="#0F62FE"/>
<path d="M362.602 170L367.222 162.9L362.742 156.04H364.162L367.982 161.94H368.022L371.882 156.04H373.262L368.742 162.84L373.402 170H371.962L368.002 163.82H367.962L363.982 170H362.602Z" fill="white"/>
<path d="M453 216L443 210.227L443 221.774L453 216ZM103 216L103 217L444 217L444 216L444 215L103 215L103 216Z" fill="#C1C7CD"/>
<path d="M338 150L328 144.226L328 155.774L338 150ZM296 150L296 151L329 151L329 150L329 149L296 149L296 150Z" fill="#D4BBFF"/>
<path d="M218 150L228 155.774L228 144.226L218 150ZM227 150L227 151L260 151L260 150L260 149L227 149L227 150Z" fill="#D4BBFF"/>
<path d="M427.473 157.24C425.893 157.24 424.393 156.56 423.573 155.36L424.633 154.42C425.353 155.38 426.273 155.9 427.473 155.9C428.833 155.9 429.813 155.22 429.813 153.96C429.813 153.26 429.493 152.76 428.293 152.52L427.513 152.36C425.953 152.04 424.753 151.4 424.753 149.7C424.753 147.98 425.993 146.44 428.573 146.44C430.093 146.44 431.153 146.98 431.933 147.96L430.873 148.9C430.413 148.26 429.673 147.78 428.453 147.78C426.953 147.78 426.253 148.52 426.253 149.56C426.253 150.28 426.593 150.74 427.753 150.98L428.533 151.14C430.193 151.48 431.293 152.14 431.293 153.86C431.293 155.94 429.673 157.24 427.473 157.24Z" fill="#D4BBFF"/>
<path d="M463 150L453 144.226L453 155.774L463 150ZM439 150L439 151L454 151L454 150L454 149L439 149L439 150Z" fill="#D4BBFF"/>
<path d="M393 150L403 155.774L403 144.226L393 150ZM402 150L402 151L417 151L417 150L417 149L402 149L402 150Z" fill="#D4BBFF"/>
<path d="M127.473 157.24C125.893 157.24 124.393 156.56 123.573 155.36L124.633 154.42C125.353 155.38 126.273 155.9 127.473 155.9C128.833 155.9 129.813 155.22 129.813 153.96C129.813 153.26 129.493 152.76 128.293 152.52L127.513 152.36C125.953 152.04 124.753 151.4 124.753 149.7C124.753 147.98 125.993 146.44 128.573 146.44C130.093 146.44 131.153 146.98 131.933 147.96L130.873 148.9C130.413 148.26 129.673 147.78 128.453 147.78C126.953 147.78 126.253 148.52 126.253 149.56C126.253 150.28 126.593 150.74 127.753 150.98L128.533 151.14C130.193 151.48 131.293 152.14 131.293 153.86C131.293 155.94 129.673 157.24 127.473 157.24Z" fill="#D4BBFF"/>
<path d="M163 150L153 144.226L153 155.774L163 150ZM139 150L139 151L154 151L154 150L154 149L139 149L139 150Z" fill="#D4BBFF"/>
<path d="M93 150L103 155.774L103 144.226L93 150ZM102 150L102 151L117 151L117 150L117 149L102 149L102 150Z" fill="#D4BBFF"/>
<line x1="471.5" y1="36" x2="471.5" y2="204" stroke="#D0E2FF" stroke-dasharray="6 6"/>
<line x1="85.5" y1="36" x2="85.5" y2="204" stroke="#D0E2FF" stroke-dasharray="6 6"/>
</svg>
