<?xml version='1.0' encoding='utf-8'?>
<svg xmlns="http://www.w3.org/2000/svg" xmlns:ns1="http://sodipodi.sourceforge.net/DTD/sodipodi-0.dtd" xmlns:ns2="http://www.inkscape.org/namespaces/inkscape" version="1.1" id="svg1" width="100%" height="auto" viewBox="-20.0 -20.0 323.01953 212.12794" ns1:docname="svg_fix_XXXXXX.svg">
  <rect id="path1" x="-20.0" y="-20.0" width="323.01953" height="212.12794" fill="white" /><ns1:namedview id="namedview1" pagecolor="#ffffff" bordercolor="#000000" borderopacity="0.25" ns2:showpageshadow="2" ns2:pageopacity="0.0" ns2:pagecheckerboard="0" ns2:deskcolor="#d1d1d1" />
  <defs id="defs1" />
  <g id="g1" transform="translate(-156.91797,-39.371094)">
    <path id="path2" d="M -18.40439,21.2601 H 18.40439" style="fill:none;stroke:#121619;stroke-width:0.3985;stroke-linecap:butt;stroke-linejoin:miter;stroke-miterlimit:10;stroke-dasharray:none;stroke-opacity:1" transform="matrix(3.3333333,0,0,-3.3333333,269.24533,123.54)" />
    <path id="path3" d="M -18.40439,0 H 18.40439" style="fill:none;stroke:#121619;stroke-width:0.3985;stroke-linecap:butt;stroke-linejoin:miter;stroke-miterlimit:10;stroke-dasharray:none;stroke-opacity:1" transform="matrix(3.3333333,0,0,-3.3333333,269.24533,123.54)" />
    <path id="path4" d="M -18.40439,-21.2601 H 18.40439" style="fill:none;stroke:#121619;stroke-width:0.3985;stroke-linecap:butt;stroke-linejoin:miter;stroke-miterlimit:10;stroke-dasharray:none;stroke-opacity:1" transform="matrix(3.3333333,0,0,-3.3333333,269.24533,123.54)" />
    <path id="path5" d="m 1.99255,21.2601 c 0,1.10047 -0.89209,1.99256 -1.99255,1.99256 -1.10046,0 -1.99255,-0.89209 -1.99255,-1.99256 0,-1.10048 0.89209,-1.99255 1.99255,-1.99255 1.10046,0 1.99255,0.89207 1.99255,1.99255 z" style="fill:#78a9ff;fill-opacity:1;fill-rule:nonzero;stroke:none" transform="matrix(3.3333333,0,0,-3.3333333,269.24533,123.54)" />
    <path id="path6" d="M 1.99255,0 C 1.99255,1.10046 1.10046,1.99255 0,1.99255 -1.10046,1.99255 -1.99255,1.10046 -1.99255,0 c 0,-1.10046 0.89209,-1.99255 1.99255,-1.99255 1.10046,0 1.99255,0.89209 1.99255,1.99255 z" style="fill:#78a9ff;fill-opacity:1;fill-rule:nonzero;stroke:none" transform="matrix(3.3333333,0,0,-3.3333333,269.24533,123.54)" />
    <path id="path7" d="m 4.92834,-21.2601 c 0,2.72189 -2.20646,4.92836 -4.92834,4.92836 -2.72188,0 -4.92834,-2.20647 -4.92834,-4.92836 0,-2.72188 2.20646,-4.92836 4.92834,-4.92836 2.72188,0 4.92834,2.20648 4.92834,4.92836 z" style="fill:#78a9ff;fill-opacity:1;fill-rule:nonzero;stroke:#78a9ff;stroke-width:0.3985;stroke-linecap:butt;stroke-linejoin:miter;stroke-miterlimit:10;stroke-dasharray:none;stroke-opacity:1" transform="matrix(3.3333333,0,0,-3.3333333,269.24533,123.54)" />
    <path id="path8" d="m 3.5768375,-5.9433125 v 2.596875 H 0.9799625 V -2.648 h 2.596875 v 2.5921875 H 4.275275 V -2.648 H 6.87215 V -3.3464375 H 4.275275 v -2.596875 z m 0,0" style="fill:#ffffff;fill-opacity:1;fill-rule:nonzero;stroke:none" aria-label="+" transform="matrix(3.3333333,0,0,3.3333333,256.15533,204.32667)" />
    <path id="path9" d="M 1.6361969,-2.7138125 V -1.527875 H 0.45025938 v 0.31875 H 1.6361969 v 1.1859375 h 0.31875 V -1.209125 h 1.1859375 v -0.31875 H 1.9549469 v -1.1859375 z m 0,0" style="fill:#ffffff;fill-opacity:1;fill-rule:nonzero;stroke:none" aria-label="+" transform="matrix(3.3333333,0,0,3.3333333,263.26867,198.93667)" />
    <path id="path10" d="M 0,21.2601 V -16.13248" style="fill:none;stroke:#78a9ff;stroke-width:0.79701;stroke-linecap:butt;stroke-linejoin:miter;stroke-miterlimit:10;stroke-dasharray:none;stroke-opacity:1" transform="matrix(3.3333333,0,0,-3.3333333,269.24533,123.54)" />
    <g id="g10" aria-label="∣a⟩" transform="matrix(3.3333333,0,0,3.3333333,152.932,59.98)">
      <path id="path11" d="m 1.1957906,-6.0936094 v 7.8046875 h 0.5109375 v -7.8046875 z m 0,0" style="fill:#121619;fill-opacity:1;fill-rule:nonzero;stroke:none" />
      <path id="path12" d="m 6.0227438,-3.0373594 c -0.070312,-0.1359375 -0.3,-0.478125 -0.7875,-0.478125 -0.946875,0 -1.9921875,1.1109375 -1.9921875,2.2875 0,0.82968753 0.534375,1.30781253 1.1484375,1.30781253 0.5109375,0 0.946875,-0.4078125 1.0921875,-0.5671875 0.140625,0.553125 0.684375,0.5671875 0.778125,0.5671875 0.3703125,0 0.553125,-0.3046875 0.6140625,-0.4359375 0.159375,-0.290625 0.271875,-0.75000003 0.271875,-0.78281253 0,-0.046875 -0.032812,-0.103125 -0.1265625,-0.103125 -0.098438,0 -0.1125,0.046875 -0.159375,0.24843753 -0.1125,0.4359375 -0.2625,0.8484375 -0.5765625,0.8484375 -0.1828125,0 -0.253125,-0.15 -0.253125,-0.3703125 0,-0.1359375 0.070312,-0.4078125 0.121875,-0.60937503 0.046875,-0.196875 0.1640625,-0.675 0.196875,-0.8203125 l 0.159375,-0.6046875 c 0.042188,-0.1921875 0.1265625,-0.525 0.1265625,-0.5671875 0,-0.1828125 -0.15,-0.24375 -0.253125,-0.24375 -0.121875,0 -0.31875,0.079687 -0.3609375,0.3234375 z m -0.5390625,2.17500003 c -0.3984375,0.553125 -0.815625,0.7171875 -1.06875,0.7171875 -0.365625,0 -0.5484375,-0.3328125 -0.5484375,-0.7453125 0,-0.37500003 0.215625,-1.22812503 0.3890625,-1.57968753 0.2296875,-0.4875 0.6234375,-0.8203125 0.9890625,-0.8203125 0.515625,0 0.6703125,0.58125 0.6703125,0.675 0,0.032813 -0.2015625,0.815625 -0.2484375,1.021875 -0.103125,0.375 -0.103125,0.3890625 -0.1828125,0.73125003 z m 0,0" style="fill:#121619;fill-opacity:1;fill-rule:nonzero;stroke:none" />
      <path id="path13" d="m 8.6079,1.8001406 1.434375,-3.9890625 -1.434375,-3.99375 -0.478125,0.1734375 1.434375,3.8203125 -1.434375,3.815625 z m 0,0" style="fill:#121619;fill-opacity:1;fill-rule:nonzero;stroke:none" />
    </g>
    <g id="g13" aria-label="∣b⟩" transform="matrix(3.3333333,0,0,3.3333333,155.84867,130.84667)">
      <path id="path14" d="m 1.1950094,-6.0934531 v 7.8046875 h 0.5109375 v -7.8046875 z m 0,0" style="fill:#121619;fill-opacity:1;fill-rule:nonzero;stroke:none" />
      <path id="path15" d="m 4.8465719,-5.2918906 c 0.00469,-0.014062 0.032813,-0.1171875 0.032813,-0.1265625 0,-0.0375 -0.032813,-0.1125 -0.13125,-0.1125 -0.028125,0 -0.2765625,0.023437 -0.459375,0.042187 l -0.4453125,0.032812 c -0.178125,0.014063 -0.2578125,0.023437 -0.2578125,0.1640625 0,0.1125 0.1125,0.1125 0.20625,0.1125 0.384375,0 0.384375,0.046875 0.384375,0.121875 0,0.046875 -0.079688,0.365625 -0.1265625,0.5484375 l -0.69375,2.7703125 c -0.065625,0.271875 -0.065625,0.39375 -0.065625,0.5296875 0,0.82031248 0.5015625,1.28906248 1.115625,1.28906248 0.9796875,0 2.0015625,-1.12968748 2.0015625,-2.28749998 0,-0.7875 -0.5109375,-1.3078125 -1.1484375,-1.3078125 -0.4453125,0 -0.7875,0.290625 -0.965625,0.440625 z m -0.440625,5.14687498 c -0.2859375,0 -0.571875,-0.2203125 -0.571875,-0.8015625 0,-0.21562498 0.032812,-0.41718748 0.1265625,-0.79687498 0.05625,-0.234375 0.1125,-0.4546875 0.1734375,-0.684375 0.042187,-0.1453125 0.042187,-0.159375 0.1359375,-0.28125 0.271875,-0.3328125 0.6328125,-0.58125 0.965625,-0.58125 0.3984375,0 0.5484375,0.3890625 0.5484375,0.75 0,0.2953125 -0.1734375,1.1484375 -0.4125,1.61718748 -0.20625,0.43125 -0.590625,0.778125 -0.965625,0.778125 z m 0,0" style="fill:#121619;fill-opacity:1;fill-rule:nonzero;stroke:none" />
      <path id="path16" d="M 7.7329,1.8002969 9.167275,-2.1887656 7.7329,-6.1825156 7.254775,-6.0090781 8.68915,-2.1887656 7.254775,1.6268594 Z m 0,0" style="fill:#121619;fill-opacity:1;fill-rule:nonzero;stroke:none" />
    </g>
    <g id="g16" aria-label="∣c⟩" transform="matrix(3.3333333,0,0,3.3333333,155.69867,201.71333)">
      <path id="path17" d="m 1.1954781,-6.0932969 v 7.8046875 h 0.5109375 v -7.8046875 z m 0,0" style="fill:#121619;fill-opacity:1;fill-rule:nonzero;stroke:none" />
      <path id="path18" d="m 6.1583688,-3.0511094 c -0.3234375,0.0375 -0.43125,0.2859375 -0.43125,0.4453125 0,0.2296875 0.2109375,0.2953125 0.3140625,0.2953125 0.0375,0 0.4453125,-0.032812 0.4453125,-0.515625 0,-0.4875 -0.525,-0.6890625 -1.003125,-0.6890625 -1.134375,0 -2.23125,1.1015625 -2.23125,2.2171875 0,0.75468753 0.515625,1.37812503 1.4015625,1.37812503 1.2609375,0 1.921875,-0.80625 1.921875,-0.909375 0,-0.0703125 -0.079687,-0.1265625 -0.13125,-0.1265625 -0.046875,0 -0.070312,0.0234375 -0.1078125,0.0703125 -0.6328125,0.740625 -1.5234375,0.740625 -1.66875,0.740625 -0.4265625,0 -0.7734375,-0.2625 -0.7734375,-0.86718753 0,-0.3515625 0.159375,-1.1953125 0.534375,-1.6875 0.3515625,-0.4453125 0.75,-0.590625 1.059375,-0.590625 0.098438,0 0.4640625,0.00937 0.6703125,0.2390625 z m 0,0" style="fill:#121619;fill-opacity:1;fill-rule:nonzero;stroke:none" />
      <path id="path19" d="M 7.7779,1.8004531 9.212275,-2.1886094 7.7779,-6.1823594 7.299775,-6.0089219 8.73415,-2.1886094 7.299775,1.6270156 Z m 0,0" style="fill:#121619;fill-opacity:1;fill-rule:nonzero;stroke:none" />
    </g>
    <g id="g19" aria-label="∣a⟩" transform="matrix(3.3333333,0,0,3.3333333,349.632,59.98)">
      <path id="path20" d="m 1.1955563,-6.0936094 v 7.8046875 h 0.5109375 v -7.8046875 z m 0,0" style="fill:#121619;fill-opacity:1;fill-rule:nonzero;stroke:none" />
      <path id="path21" d="m 6.0225094,-3.0373594 c -0.070312,-0.1359375 -0.3,-0.478125 -0.7875,-0.478125 -0.946875,0 -1.9921875,1.1109375 -1.9921875,2.2875 0,0.82968753 0.534375,1.30781253 1.1484375,1.30781253 0.5109375,0 0.946875,-0.4078125 1.0921875,-0.5671875 0.140625,0.553125 0.684375,0.5671875 0.778125,0.5671875 0.3703125,0 0.553125,-0.3046875 0.6140625,-0.4359375 0.159375,-0.290625 0.271875,-0.75000003 0.271875,-0.78281253 0,-0.046875 -0.032812,-0.103125 -0.1265625,-0.103125 -0.098438,0 -0.1125,0.046875 -0.159375,0.24843753 -0.1125,0.4359375 -0.2625,0.8484375 -0.5765625,0.8484375 -0.1828125,0 -0.253125,-0.15 -0.253125,-0.3703125 0,-0.1359375 0.070312,-0.4078125 0.121875,-0.60937503 0.046875,-0.196875 0.1640625,-0.675 0.196875,-0.8203125 l 0.159375,-0.6046875 c 0.042187,-0.1921875 0.1265625,-0.525 0.1265625,-0.5671875 0,-0.1828125 -0.15,-0.24375 -0.253125,-0.24375 -0.121875,0 -0.31875,0.079687 -0.3609375,0.3234375 z m -0.5390625,2.17500003 c -0.3984375,0.553125 -0.815625,0.7171875 -1.06875,0.7171875 -0.365625,0 -0.5484375,-0.3328125 -0.5484375,-0.7453125 0,-0.37500003 0.215625,-1.22812503 0.3890625,-1.57968753 0.2296875,-0.4875 0.6234375,-0.8203125 0.9890625,-0.8203125 0.515625,0 0.6703125,0.58125 0.6703125,0.675 0,0.032813 -0.2015625,0.815625 -0.2484375,1.021875 -0.103125,0.375 -0.103125,0.3890625 -0.1828125,0.73125003 z m 0,0" style="fill:#121619;fill-opacity:1;fill-rule:nonzero;stroke:none" />
      <path id="path22" d="m 8.6088375,1.8001406 1.4343755,-3.9890625 -1.4343755,-3.99375 -0.478125,0.1734375 1.434375,3.8203125 -1.434375,3.815625 z m 0,0" style="fill:#121619;fill-opacity:1;fill-rule:nonzero;stroke:none" />
    </g>
    <g id="g22" aria-label="∣b⟩" transform="matrix(3.3333333,0,0,3.3333333,349.632,130.84667)">
      <path id="path23" d="m 1.1955563,-6.0934531 v 7.8046875 h 0.5109375 v -7.8046875 z m 0,0" style="fill:#121619;fill-opacity:1;fill-rule:nonzero;stroke:none" />
      <path id="path24" d="m 4.8459469,-5.2918906 c 0.00469,-0.014062 0.032812,-0.1171875 0.032812,-0.1265625 0,-0.0375 -0.032812,-0.1125 -0.13125,-0.1125 -0.028125,0 -0.2765625,0.023437 -0.459375,0.042187 l -0.4453125,0.032812 c -0.178125,0.014063 -0.2578125,0.023437 -0.2578125,0.1640625 0,0.1125 0.1125,0.1125 0.20625,0.1125 0.384375,0 0.384375,0.046875 0.384375,0.121875 0,0.046875 -0.079687,0.365625 -0.1265625,0.5484375 l -0.69375,2.7703125 c -0.065625,0.271875 -0.065625,0.39375 -0.065625,0.5296875 0,0.82031248 0.5015625,1.28906248 1.115625,1.28906248 0.9796875,0 2.0015625,-1.12968748 2.0015625,-2.28749998 0,-0.7875 -0.5109375,-1.3078125 -1.1484375,-1.3078125 -0.4453125,0 -0.7875,0.290625 -0.965625,0.440625 z m -0.440625,5.14687498 c -0.2859375,0 -0.571875,-0.2203125 -0.571875,-0.8015625 0,-0.21562498 0.032812,-0.41718748 0.1265625,-0.79687498 0.05625,-0.234375 0.1125,-0.4546875 0.1734375,-0.684375 0.042187,-0.1453125 0.042187,-0.159375 0.1359375,-0.28125 0.271875,-0.3328125 0.6328125,-0.58125 0.965625,-0.58125 0.3984375,0 0.5484375,0.3890625 0.5484375,0.75 0,0.2953125 -0.1734375,1.1484375 -0.4125,1.61718748 -0.20625,0.43125 -0.590625,0.778125 -0.965625,0.778125 z m 0,0" style="fill:#121619;fill-opacity:1;fill-rule:nonzero;stroke:none" />
      <path id="path25" d="M 7.732275,1.8002969 9.16665,-2.1887656 7.732275,-6.1825156 7.25415,-6.0090781 8.688525,-2.1887656 7.25415,1.6268594 Z m 0,0" style="fill:#121619;fill-opacity:1;fill-rule:nonzero;stroke:none" />
    </g>
    <g id="g25" aria-label="∣c⊕ab⟩" transform="matrix(3.3333333,0,0,3.3333333,349.632,201.71333)">
      <path id="path26" d="m 1.1955563,-6.0932969 v 7.8046875 h 0.5109375 v -7.8046875 z m 0,0" style="fill:#121619;fill-opacity:1;fill-rule:nonzero;stroke:none" />
      <path id="path27" d="m 6.1584469,-3.0511094 c -0.3234375,0.0375 -0.43125,0.2859375 -0.43125,0.4453125 0,0.2296875 0.2109375,0.2953125 0.3140625,0.2953125 0.0375,0 0.4453125,-0.032812 0.4453125,-0.515625 0,-0.4875 -0.525,-0.6890625 -1.003125,-0.6890625 -1.134375,0 -2.23125,1.1015625 -2.23125,2.2171875 0,0.75468753 0.515625,1.37812503 1.4015625,1.37812503 1.2609375,0 1.921875,-0.80625 1.921875,-0.909375 0,-0.0703125 -0.079688,-0.1265625 -0.13125,-0.1265625 -0.046875,0 -0.070312,0.0234375 -0.1078125,0.0703125 -0.6328125,0.740625 -1.5234375,0.740625 -1.66875,0.740625 -0.4265625,0 -0.7734375,-0.2625 -0.7734375,-0.86718753 0,-0.3515625 0.159375,-1.1953125 0.534375,-1.6875 0.3515625,-0.4453125 0.75,-0.590625 1.059375,-0.590625 0.098438,0 0.4640625,0.00937 0.6703125,0.2390625 z m 0,0" style="fill:#121619;fill-opacity:1;fill-rule:nonzero;stroke:none" />
      <path id="path28" d="M 11.195166,-2.4464219 H 9.5826656 c 0.05625,-0.4078125 0.2484375,-0.778125 0.5343754,-1.0734375 0.295312,-0.290625 0.670312,-0.478125 1.078125,-0.534375 z m 0.50625,0 v -1.6078125 c 0.407812,0.05625 0.782812,0.24375 1.078125,0.534375 0.285937,0.2953125 0.478125,0.665625 0.534375,1.0734375 z m -0.50625,0.5109375 v 1.60781253 c -0.407813,-0.05625 -0.782813,-0.24375 -1.078125,-0.534375 C 9.8311031,-1.1526719 9.6389156,-1.5276719 9.5826656,-1.9354844 Z m 0.50625,0 h 1.6125 c -0.05625,0.4078125 -0.248438,0.7828125 -0.534375,1.07343753 -0.295313,0.290625 -0.670313,0.478125 -1.078125,0.534375 z m 2.1375,-0.253125 c 0,-0.6375 -0.253125,-1.246875 -0.703125,-1.7015625 -0.445313,-0.4453125 -1.05,-0.6890625 -1.6875,-0.6890625 -0.6375,0 -1.2375,0.24375 -1.6875004,0.6890625 -0.45,0.4546875 -0.703125,1.0640625 -0.703125,1.7015625 0,0.6375 0.253125,1.24218753 0.703125,1.69687503 0.4500004,0.4453125 1.0500004,0.6890625 1.6875004,0.6890625 0.6375,0 1.242187,-0.24375 1.6875,-0.6890625 0.45,-0.4546875 0.703125,-1.05937503 0.703125,-1.69687503 z m 0,0" style="fill:#121619;fill-opacity:1;fill-rule:nonzero;stroke:none" />
      <path id="path29" d="m 19.449853,-3.0370469 c -0.07031,-0.1359375 -0.3,-0.478125 -0.7875,-0.478125 -0.946875,0 -1.992187,1.1109375 -1.992187,2.2875 0,0.82968753 0.534375,1.30781253 1.148437,1.30781253 0.510938,0 0.946875,-0.4078125 1.092188,-0.5671875 0.140625,0.553125 0.684375,0.5671875 0.778125,0.5671875 0.370312,0 0.553125,-0.3046875 0.614062,-0.4359375 0.159375,-0.290625 0.271875,-0.75000003 0.271875,-0.78281253 0,-0.046875 -0.03281,-0.103125 -0.126562,-0.103125 -0.09844,0 -0.1125,0.046875 -0.159375,0.24843753 -0.1125,0.4359375 -0.2625,0.8484375 -0.576563,0.8484375 -0.182812,0 -0.253125,-0.15 -0.253125,-0.3703125 0,-0.1359375 0.07031,-0.4078125 0.121875,-0.60937503 0.04687,-0.196875 0.164063,-0.675 0.196875,-0.8203125 l 0.159375,-0.6046875 c 0.04219,-0.1921875 0.126563,-0.525 0.126563,-0.5671875 0,-0.1828125 -0.15,-0.24375 -0.253125,-0.24375 -0.121875,0 -0.31875,0.079687 -0.360938,0.3234375 z m -0.539062,2.17500003 c -0.398438,0.553125 -0.815625,0.7171875 -1.06875,0.7171875 -0.365625,0 -0.548438,-0.3328125 -0.548438,-0.7453125 0,-0.37500003 0.215625,-1.22812503 0.389063,-1.57968753 0.229687,-0.4875 0.623437,-0.8203125 0.989062,-0.8203125 0.515625,0 0.670313,0.58125 0.670313,0.675 0,0.032812 -0.201563,0.815625 -0.248438,1.021875 -0.103125,0.375 -0.103125,0.3890625 -0.182812,0.73125003 z m 3.857812,-4.42968753 c 0.0047,-0.014062 0.03281,-0.1171875 0.03281,-0.1265625 0,-0.0375 -0.03281,-0.1125 -0.13125,-0.1125 -0.02812,0 -0.276563,0.023437 -0.459375,0.042188 l -0.445313,0.032812 c -0.178125,0.014063 -0.257812,0.023437 -0.257812,0.1640625 0,0.1125 0.1125,0.1125 0.20625,0.1125 0.384375,0 0.384375,0.046875 0.384375,0.121875 0,0.046875 -0.07969,0.365625 -0.126563,0.5484375 l -0.69375,2.7703125 c -0.06563,0.271875 -0.06563,0.39375 -0.06563,0.5296875 0,0.82031253 0.501563,1.28906253 1.115625,1.28906253 0.979688,0 2.001563,-1.12968753 2.001563,-2.28750003 0,-0.7875 -0.510938,-1.3078125 -1.148438,-1.3078125 -0.445312,0 -0.7875,0.290625 -0.965625,0.440625 z m -0.440625,5.14687503 c -0.285937,0 -0.571875,-0.2203125 -0.571875,-0.8015625 0,-0.21562503 0.03281,-0.41718753 0.126563,-0.79687503 0.05625,-0.234375 0.1125,-0.4546875 0.173437,-0.684375 0.04219,-0.1453125 0.04219,-0.159375 0.135938,-0.28125 0.271875,-0.3328125 0.632812,-0.58125 0.965625,-0.58125 0.398437,0 0.548437,0.3890625 0.548437,0.75 0,0.2953125 -0.173437,1.1484375 -0.4125,1.61718753 -0.20625,0.43125 -0.590625,0.778125 -0.965625,0.778125 z m 0,0" style="fill:#121619;fill-opacity:1;fill-rule:nonzero;stroke:none" />
      <path id="path30" d="m 25.657275,1.8004531 1.434375,-3.9890625 -1.434375,-3.99375 -0.478125,0.1734375 1.434375,3.8203125 -1.434375,3.815625 z m 0,0" style="fill:#121619;fill-opacity:1;fill-rule:nonzero;stroke:none" />
    </g>
  </g>
</svg>