<?xml version='1.0' encoding='utf-8'?>
<svg xmlns="http://www.w3.org/2000/svg" xmlns:ns1="http://sodipodi.sourceforge.net/DTD/sodipodi-0.dtd" xmlns:ns2="http://www.inkscape.org/namespaces/inkscape" version="1.1" id="svg1" width="100%" height="auto" viewBox="-20.0 -20.0 429.19769 235.6998" ns1:docname="svg_fix_XXXXXX.svg">
  <rect id="path1" x="-20.0" y="-20.0" width="429.19769" height="235.6998" fill="white" /><ns1:namedview id="namedview1" pagecolor="#ffffff" bordercolor="#000000" borderopacity="0.25" ns2:showpageshadow="2" ns2:pageopacity="0.0" ns2:pagecheckerboard="0" ns2:deskcolor="#d1d1d1" />
  <defs id="defs1" />
  <g id="g1" transform="translate(-106.46576,-67.500044)">
    <path id="path2" d="M -56.69362,28.3468 H 56.69362" style="fill:none;stroke:#121619;stroke-width:0.3985;stroke-linecap:butt;stroke-linejoin:miter;stroke-miterlimit:10;stroke-dasharray:none;stroke-opacity:1" transform="matrix(1.4666667,0,0,-1.4666667,189.6164,118.722)" />
    <path id="path3" d="M -56.69362,14.17339 H 56.69362" style="fill:none;stroke:#121619;stroke-width:0.3985;stroke-linecap:butt;stroke-linejoin:miter;stroke-miterlimit:10;stroke-dasharray:none;stroke-opacity:1" transform="matrix(1.4666667,0,0,-1.4666667,189.6164,118.722)" />
    <path id="path4" d="M -56.69362,0 H 56.69362" style="fill:none;stroke:#121619;stroke-width:0.3985;stroke-linecap:butt;stroke-linejoin:miter;stroke-miterlimit:10;stroke-dasharray:none;stroke-opacity:1" transform="matrix(1.4666667,0,0,-1.4666667,189.6164,118.722)" />
    <path id="path5" d="M -56.69362,-14.17339 H 56.69362" style="fill:none;stroke:#121619;stroke-width:0.3985;stroke-linecap:butt;stroke-linejoin:miter;stroke-miterlimit:10;stroke-dasharray:none;stroke-opacity:1" transform="matrix(1.4666667,0,0,-1.4666667,189.6164,118.722)" />
    <path id="path6" d="m -16.27872,0 c 0,2.75117 -2.23019,4.98138 -4.98138,4.98138 -2.75118,0 -4.98139,-2.23021 -4.98139,-4.98138 0,-2.75117 2.23021,-4.98138 4.98139,-4.98138 2.75119,0 4.98138,2.23021 4.98138,4.98138 z" style="fill:#78a9ff;fill-opacity:1;fill-rule:nonzero;stroke:#78a9ff;stroke-width:0.3985;stroke-linecap:butt;stroke-linejoin:miter;stroke-miterlimit:10;stroke-dasharray:none;stroke-opacity:1" transform="matrix(1.4666667,0,0,-1.4666667,189.6164,118.722)" />
    <path id="path7" d="m 3.919473,-6.5098423 v 2.8444602 H 1.0750128 v 0.756392 H 3.919473 v 2.84446027 H 4.6865185 V -2.9089901 h 2.8444602 v -0.756392 H 4.6865185 v -2.8444602 z m 0,0" style="fill:#ffffff;fill-opacity:1;fill-rule:nonzero;stroke:none" aria-label="+" transform="matrix(1.4666667,0,0,1.4666667,152.12253,123.5048)" />
    <path id="path8" d="m -18.76941,-14.17339 c 0,1.37559 -1.11511,2.49069 -2.49069,2.49069 -1.37558,0 -2.4907,-1.1151 -2.4907,-2.49069 0,-1.37558 1.11512,-2.49069 2.4907,-2.49069 1.37558,0 2.49069,1.11511 2.49069,2.49069 z" style="fill:#78a9ff;fill-opacity:1;fill-rule:nonzero;stroke:none" transform="matrix(1.4666667,0,0,-1.4666667,189.6164,118.722)" />
    <path id="path9" d="m -21.2601,-14.17339 v 8.99276" style="fill:none;stroke:#78a9ff;stroke-width:0.79701;stroke-linecap:butt;stroke-linejoin:miter;stroke-miterlimit:10;stroke-dasharray:none;stroke-opacity:1" transform="matrix(1.4666667,0,0,-1.4666667,189.6164,118.722)" />
    <path id="path10" d="m 4.98138,14.17339 c 0,2.75117 -2.23021,4.98138 -4.98138,4.98138 -2.75117,0 -4.98138,-2.23021 -4.98138,-4.98138 0,-2.75118 2.23021,-4.98139 4.98138,-4.98139 2.75117,0 4.98138,2.23021 4.98138,4.98139 z" style="fill:#78a9ff;fill-opacity:1;fill-rule:nonzero;stroke:#78a9ff;stroke-width:0.3985;stroke-linecap:butt;stroke-linejoin:miter;stroke-miterlimit:10;stroke-dasharray:none;stroke-opacity:1" transform="matrix(1.4666667,0,0,-1.4666667,189.6164,118.722)" />
    <path id="path11" d="m 3.9210142,-6.5102031 v 2.8444602 H 1.076554 v 0.756392 h 2.8444602 v 2.84446028 H 4.6880597 V -2.9093509 h 2.8444602 v -0.756392 H 4.6880597 v -2.8444602 z m 0,0" style="fill:#ffffff;fill-opacity:1;fill-rule:nonzero;stroke:none" aria-label="+" transform="matrix(1.4666667,0,0,1.4666667,183.30387,102.71627)" />
    <path id="path12" d="m 2.49069,-14.17339 c 0,1.37559 -1.11511,2.49069 -2.49069,2.49069 -1.37558,0 -2.49069,-1.1151 -2.49069,-2.49069 0,-1.37558 1.11511,-2.49069 2.49069,-2.49069 1.37558,0 2.49069,1.11511 2.49069,2.49069 z" style="fill:#78a9ff;fill-opacity:1;fill-rule:nonzero;stroke:none" transform="matrix(1.4666667,0,0,-1.4666667,189.6164,118.722)" />
    <path id="path13" d="M 0,-14.17339 V 8.99275" style="fill:none;stroke:#78a9ff;stroke-width:0.79701;stroke-linecap:butt;stroke-linejoin:miter;stroke-miterlimit:10;stroke-dasharray:none;stroke-opacity:1" transform="matrix(1.4666667,0,0,-1.4666667,189.6164,118.722)" />
    <path id="path14" d="m 26.24149,28.3468 c 0,2.75118 -2.23021,4.98139 -4.98139,4.98139 -2.75119,0 -4.98138,-2.23021 -4.98138,-4.98139 0,-2.75117 2.23019,-4.98138 4.98138,-4.98138 2.75118,0 4.98139,2.23021 4.98139,4.98138 z" style="fill:#78a9ff;fill-opacity:1;fill-rule:nonzero;stroke:#78a9ff;stroke-width:0.3985;stroke-linecap:butt;stroke-linejoin:miter;stroke-miterlimit:10;stroke-dasharray:none;stroke-opacity:1" transform="matrix(1.4666667,0,0,-1.4666667,189.6164,118.722)" />
    <path id="path15" d="m 3.919892,-6.5089006 v 2.8444603 H 1.0754318 v 0.756392 H 3.919892 v 2.84446023 H 4.6869375 V -2.9080483 h 2.8444602 v -0.756392 H 4.6869375 v -2.8444603 z m 0,0" style="fill:#ffffff;fill-opacity:1;fill-rule:nonzero;stroke:none" aria-label="+" transform="matrix(1.4666667,0,0,1.4666667,214.4852,81.9292)" />
    <path id="path16" d="m 23.7508,-14.17339 c 0,1.37559 -1.11512,2.49069 -2.4907,2.49069 -1.37558,0 -2.49069,-1.1151 -2.49069,-2.49069 0,-1.37558 1.11511,-2.49069 2.49069,-2.49069 1.37558,0 2.4907,1.11511 2.4907,2.49069 z" style="fill:#78a9ff;fill-opacity:1;fill-rule:nonzero;stroke:none" transform="matrix(1.4666667,0,0,-1.4666667,189.6164,118.722)" />
    <path id="path17" d="M 21.2601,-14.17339 V 23.16617" style="fill:none;stroke:#78a9ff;stroke-width:0.79701;stroke-linecap:butt;stroke-linejoin:miter;stroke-miterlimit:10;stroke-dasharray:none;stroke-opacity:1" transform="matrix(1.4666667,0,0,-1.4666667,189.6164,118.722)" />
    <path id="path18" d="m -48.89822,-20.5514 h 12.75603 v 12.75603 h -12.75603 z" style="fill:#ee5396;fill-opacity:1;fill-rule:nonzero;stroke:#ee5396;stroke-width:0.3985;stroke-linecap:butt;stroke-linejoin:miter;stroke-miterlimit:10;stroke-dasharray:none;stroke-opacity:1" transform="matrix(1.4666667,0,0,-1.4666667,189.6164,118.722)" />
    <path id="path19" d="M 4.1536705,-3.0471207 C 4.5371932,-3.4306435 5.677108,-4.6025185 5.8688693,-4.7516662 6.199125,-5.007348 6.4015398,-5.1458423 6.9768239,-5.1778026 c 0.042614,-0.010653 0.1065341,-0.053267 0.1065341,-0.1491477 0,-0.074574 -0.074574,-0.1171875 -0.1065341,-0.1171875 -0.085227,0 -0.1278409,0.021307 -0.7563921,0.021307 -0.5965909,0 -0.8096591,-0.021307 -0.8522727,-0.021307 -0.03196,0 -0.1598011,0 -0.1598011,0.1491477 0,0.010654 0,0.1065341 0.1171875,0.1171875 0.06392,0.010654 0.2769886,0.021307 0.2769886,0.2024148 0,0.053267 -0.03196,0.1491477 -0.095881,0.2130682 l -0.021307,0.03196 c -0.03196,0.03196 -0.03196,0.042614 -0.1065341,0.1171875 L 4.0471364,-3.2708423 3.2374773,-4.954081 c 0.1065341,-0.1917613 0.3515625,-0.2130681 0.4474432,-0.2237216 0.03196,0 0.1491477,-0.010653 0.1491477,-0.1491477 0,-0.06392 -0.053267,-0.1171875 -0.1278409,-0.1171875 -0.085227,0 -0.3835228,0.021307 -0.46875,0.021307 -0.042614,0 -0.3409091,0 -0.5007103,0 -0.7457386,0 -0.8416193,-0.021307 -0.9161931,-0.021307 -0.03196,0 -0.1598012,0 -0.1598012,0.1491477 0,0.1171875 0.1065341,0.1171875 0.234375,0.1171875 0.3941762,0 0.46875,0.074574 0.5433239,0.2237216 l 1.0546875,2.2372159 -1.6299716,1.6619319 c -0.4794034,0.47940337 -0.8522727,0.75639201 -1.41690341,0.78835223 -0.0958807,0.0106534 -0.19176136,0.0106534 -0.19176136,0.15980114 0,0.04261364 0.0426136,0.10653409136 0.1171875,0.10653409136 0.053267,0 0.14914772,-0.0213068214 0.74573867,-0.0213068214 0.5752841,0 0.8309659,0.0213068214 0.8629261,0.0213068214 0.03196,0 0.1491477,0 0.1491477,-0.14914773136 0,-0.0213068 0,-0.10653409 -0.1278409,-0.1171875 -0.1491477,0 -0.2556818,-0.0639205 -0.2556818,-0.20241477 0,-0.12784091 0.095881,-0.234375 0.2130682,-0.3515625 0.1384943,-0.14914773 0.5539773,-0.56463066 0.8416193,-0.84161936 0.181108,-0.1917613 0.6285511,-0.6498579 0.8096591,-0.8203125 l 0.9161932,1.89630686 c 0.042614,0.0852273 0.042614,0.0958807 0.042614,0.0958807 0,0.0745739 -0.1704545,0.21306819 -0.4367898,0.22372159 -0.053267,0 -0.1598011,0.0106534 -0.1598011,0.15980114 0,0 0.010653,0.10653409136 0.1384943,0.10653409136 0.074574,0 0.3728693,-0.0106534114 0.4580966,-0.0213068214 H 5.069864 c 0.7350853,0 0.8522728,0.0213068214 0.9161932,0.0213068214 0.03196,0 0.1598012,0 0.1598012,-0.14914773136 0,-0.1171875 -0.1065341,-0.1171875 -0.2237216,-0.1171875 -0.4367898,0 -0.4794034,-0.0958807 -0.5326705,-0.21306818 z m 0,0" style="fill:#ffffff;fill-opacity:1;fill-rule:nonzero;stroke:none" aria-label="X" transform="matrix(1.4666667,0,0,1.4666667,121.6892,143.50427)" />
    <path id="path20" d="M 0.71444531,-2.7055703 H 4.5464766 V -3.2094766 H 0.71444531 Z m 0,1.5351562 H 4.5464766 V -1.6743203 H 0.71444531 Z m 0,0" style="fill:#121619;fill-opacity:1;fill-rule:nonzero;stroke:none" aria-label="=" transform="matrix(1.3333333,0,0,1.3333333,298.856,111.36133)" />
    <path id="path21" d="M -56.69362,28.3468 H 56.69362" style="fill:none;stroke:#121619;stroke-width:0.3985;stroke-linecap:butt;stroke-linejoin:miter;stroke-miterlimit:10;stroke-dasharray:none;stroke-opacity:1" transform="matrix(1.4666667,0,0,-1.4666667,412.5128,118.722)" />
    <path id="path22" d="M -56.69362,14.17339 H 56.69362" style="fill:none;stroke:#121619;stroke-width:0.3985;stroke-linecap:butt;stroke-linejoin:miter;stroke-miterlimit:10;stroke-dasharray:none;stroke-opacity:1" transform="matrix(1.4666667,0,0,-1.4666667,412.5128,118.722)" />
    <path id="path23" d="M -56.69362,0 H 56.69362" style="fill:none;stroke:#121619;stroke-width:0.3985;stroke-linecap:butt;stroke-linejoin:miter;stroke-miterlimit:10;stroke-dasharray:none;stroke-opacity:1" transform="matrix(1.4666667,0,0,-1.4666667,412.5128,118.722)" />
    <path id="path24" d="M -56.69362,-14.17339 H 56.69362" style="fill:none;stroke:#121619;stroke-width:0.3985;stroke-linecap:butt;stroke-linejoin:miter;stroke-miterlimit:10;stroke-dasharray:none;stroke-opacity:1" transform="matrix(1.4666667,0,0,-1.4666667,412.5128,118.722)" />
    <path id="path25" d="m -16.27872,0 c 0,2.75117 -2.23019,4.98138 -4.98138,4.98138 -2.75118,0 -4.98139,-2.23021 -4.98139,-4.98138 0,-2.75117 2.23021,-4.98138 4.98139,-4.98138 2.75119,0 4.98138,2.23021 4.98138,4.98138 z" style="fill:#78a9ff;fill-opacity:1;fill-rule:nonzero;stroke:#78a9ff;stroke-width:0.3985;stroke-linecap:butt;stroke-linejoin:miter;stroke-miterlimit:10;stroke-dasharray:none;stroke-opacity:1" transform="matrix(1.4666667,0,0,-1.4666667,412.5128,118.722)" />
    <path id="path26" d="m 3.9208622,-6.5098423 v 2.8444602 H 1.076402 v 0.756392 h 2.8444602 v 2.84446027 H 4.6879077 V -2.9089901 h 2.8444602 v -0.756392 H 4.6879077 v -2.8444602 z m 0,0" style="fill:#ffffff;fill-opacity:1;fill-rule:nonzero;stroke:none" aria-label="+" transform="matrix(1.4666667,0,0,1.4666667,375.01893,123.5048)" />
    <path id="path27" d="m -18.76941,-14.17339 c 0,1.37559 -1.11511,2.49069 -2.49069,2.49069 -1.37558,0 -2.4907,-1.1151 -2.4907,-2.49069 0,-1.37558 1.11512,-2.49069 2.4907,-2.49069 1.37558,0 2.49069,1.11511 2.49069,2.49069 z" style="fill:#78a9ff;fill-opacity:1;fill-rule:nonzero;stroke:none" transform="matrix(1.4666667,0,0,-1.4666667,412.5128,118.722)" />
    <path id="path28" d="m -21.2601,-14.17339 v 8.99276" style="fill:none;stroke:#78a9ff;stroke-width:0.79701;stroke-linecap:butt;stroke-linejoin:miter;stroke-miterlimit:10;stroke-dasharray:none;stroke-opacity:1" transform="matrix(1.4666667,0,0,-1.4666667,412.5128,118.722)" />
    <path id="path29" d="m 4.98138,14.17339 c 0,2.75117 -2.23021,4.98138 -4.98138,4.98138 -2.75117,0 -4.98138,-2.23021 -4.98138,-4.98138 0,-2.75118 2.23021,-4.98139 4.98138,-4.98139 2.75117,0 4.98138,2.23021 4.98138,4.98139 z" style="fill:#78a9ff;fill-opacity:1;fill-rule:nonzero;stroke:#78a9ff;stroke-width:0.3985;stroke-linecap:butt;stroke-linejoin:miter;stroke-miterlimit:10;stroke-dasharray:none;stroke-opacity:1" transform="matrix(1.4666667,0,0,-1.4666667,412.5128,118.722)" />
    <path id="path30" d="m 3.9197401,-6.5102031 v 2.8444602 H 1.0752798 v 0.756392 h 2.8444603 v 2.84446028 H 4.6867855 V -2.9093509 h 2.8444602 v -0.756392 H 4.6867855 v -2.8444602 z m 0,0" style="fill:#ffffff;fill-opacity:1;fill-rule:nonzero;stroke:none" aria-label="+" transform="matrix(1.4666667,0,0,1.4666667,406.20027,102.71627)" />
    <path id="path31" d="m 2.49069,-14.17339 c 0,1.37559 -1.11511,2.49069 -2.49069,2.49069 -1.37558,0 -2.49069,-1.1151 -2.49069,-2.49069 0,-1.37558 1.11511,-2.49069 2.49069,-2.49069 1.37558,0 2.49069,1.11511 2.49069,2.49069 z" style="fill:#78a9ff;fill-opacity:1;fill-rule:nonzero;stroke:none" transform="matrix(1.4666667,0,0,-1.4666667,412.5128,118.722)" />
    <path id="path32" d="M 0,-14.17339 V 8.99275" style="fill:none;stroke:#78a9ff;stroke-width:0.79701;stroke-linecap:butt;stroke-linejoin:miter;stroke-miterlimit:10;stroke-dasharray:none;stroke-opacity:1" transform="matrix(1.4666667,0,0,-1.4666667,412.5128,118.722)" />
    <path id="path33" d="m 26.24149,28.3468 c 0,2.75118 -2.23021,4.98139 -4.98139,4.98139 -2.75119,0 -4.98138,-2.23021 -4.98138,-4.98139 0,-2.75117 2.23019,-4.98138 4.98138,-4.98138 2.75118,0 4.98139,2.23021 4.98139,4.98138 z" style="fill:#78a9ff;fill-opacity:1;fill-rule:nonzero;stroke:#78a9ff;stroke-width:0.3985;stroke-linecap:butt;stroke-linejoin:miter;stroke-miterlimit:10;stroke-dasharray:none;stroke-opacity:1" transform="matrix(1.4666667,0,0,-1.4666667,412.5128,118.722)" />
    <path id="path34" d="m 3.9212812,-6.5089006 v 2.8444603 H 1.076821 v 0.756392 h 2.8444602 v 2.84446023 H 4.6883267 V -2.9080483 h 2.8444602 v -0.756392 H 4.6883267 v -2.8444603 z m 0,0" style="fill:#ffffff;fill-opacity:1;fill-rule:nonzero;stroke:none" aria-label="+" transform="matrix(1.4666667,0,0,1.4666667,437.3816,81.9292)" />
    <path id="path35" d="m 23.7508,-14.17339 c 0,1.37559 -1.11512,2.49069 -2.4907,2.49069 -1.37558,0 -2.49069,-1.1151 -2.49069,-2.49069 0,-1.37558 1.11511,-2.49069 2.49069,-2.49069 1.37558,0 2.4907,1.11511 2.4907,2.49069 z" style="fill:#78a9ff;fill-opacity:1;fill-rule:nonzero;stroke:none" transform="matrix(1.4666667,0,0,-1.4666667,412.5128,118.722)" />
    <path id="path36" d="M 21.2601,-14.17339 V 23.16617" style="fill:none;stroke:#78a9ff;stroke-width:0.79701;stroke-linecap:butt;stroke-linejoin:miter;stroke-miterlimit:10;stroke-dasharray:none;stroke-opacity:1" transform="matrix(1.4666667,0,0,-1.4666667,412.5128,118.722)" />
    <path id="path37" d="M 36.14218,21.96878 H 48.89821 V 34.72481 H 36.14218 Z" style="fill:#ee5396;fill-opacity:1;fill-rule:nonzero;stroke:#ee5396;stroke-width:0.3985;stroke-linecap:butt;stroke-linejoin:miter;stroke-miterlimit:10;stroke-dasharray:none;stroke-opacity:1" transform="matrix(1.4666667,0,0,-1.4666667,412.5128,118.722)" />
    <path id="path38" d="m 4.1548977,-3.0465398 c 0.3835228,-0.3835227 1.5234375,-1.5553977 1.7151989,-1.7045454 0.3302557,-0.2556818 0.5326704,-0.3941762 1.1079545,-0.4261364 0.042614,-0.010653 0.1065341,-0.053267 0.1065341,-0.1491477 0,-0.074574 -0.074574,-0.1171875 -0.1065341,-0.1171875 -0.085227,0 -0.1278409,0.021307 -0.756392,0.021307 -0.5965909,0 -0.8096591,-0.021307 -0.8522727,-0.021307 -0.03196,0 -0.1598012,0 -0.1598012,0.1491477 0,0.010653 0,0.1065341 0.1171875,0.1171875 0.063921,0.010653 0.2769887,0.021307 0.2769887,0.2024148 0,0.053267 -0.03196,0.1491477 -0.095881,0.2130682 l -0.021307,0.03196 c -0.03196,0.03196 -0.03196,0.042614 -0.1065341,0.1171875 L 4.0483636,-3.2702614 3.2387045,-4.9535 c 0.1065341,-0.1917614 0.3515625,-0.2130682 0.4474432,-0.2237216 0.03196,0 0.1491478,-0.010653 0.1491478,-0.1491477 0,-0.063921 -0.053267,-0.1171875 -0.127841,-0.1171875 -0.085227,0 -0.3835227,0.021307 -0.46875,0.021307 -0.042614,0 -0.340909,0 -0.5007102,0 -0.7457386,0 -0.8416193,-0.021307 -0.9161932,-0.021307 -0.03196,0 -0.1598011,0 -0.1598011,0.1491477 0,0.1171875 0.1065341,0.1171875 0.234375,0.1171875 0.3941761,0 0.46875,0.074574 0.5433239,0.2237216 l 1.0546875,2.2372159 -1.6299716,1.6619318 C 1.3850114,-0.57494886 1.012142,-0.29796023 0.44751136,-0.266 0.35163068,-0.25534659 0.25575,-0.25534659 0.25575,-0.10619886 c 0,0.04261363 0.0426136,0.10653408727 0.1171875,0.10653408727 0.0532671,0 0.14914773,-0.0213068173 0.7457386,-0.0213068173 0.5752841,0 0.8309659,0.0213068173 0.8629262,0.0213068173 0.03196,0 0.1491477,0 0.1491477,-0.14914772727 0,-0.0213068 0,-0.10653409 -0.1278409,-0.1171875 -0.1491477,0 -0.2556818,-0.0639204 -0.2556818,-0.20241477 0,-0.12784091 0.095881,-0.234375 0.2130682,-0.3515625 C 2.0987898,-0.969125 2.5142727,-1.384608 2.8019148,-1.6615966 2.9830227,-1.853358 3.4304659,-2.3114545 3.6115739,-2.4819091 l 0.9161931,1.89630683 c 0.042614,0.0852273 0.042614,0.0958807 0.042614,0.0958807 0,0.0745739 -0.1704546,0.21306818 -0.4367898,0.22372159 -0.053267,0 -0.1598011,0.0106534 -0.1598011,0.15980114 0,0 0.010653,0.10653408727 0.1384943,0.10653408727 0.074574,0 0.3728693,-0.0106534073 0.4580966,-0.0213068173 h 0.5007102 c 0.7350852,0 0.8522727,0.0213068173 0.9161932,0.0213068173 0.03196,0 0.1598011,0 0.1598011,-0.14914772727 C 6.1470852,-0.266 6.0405511,-0.266 5.9233636,-0.266 c -0.4367897,0 -0.4794034,-0.0958807 -0.5326704,-0.21306818 z m 0,0" style="fill:#ffffff;fill-opacity:1;fill-rule:nonzero;stroke:none" aria-label="X" transform="matrix(1.4666667,0,0,1.4666667,469.3124,81.140133)" />
    <path id="path39" d="M 36.14218,7.79536 H 48.89821 V 20.55139 H 36.14218 Z" style="fill:#ee5396;fill-opacity:1;fill-rule:nonzero;stroke:#ee5396;stroke-width:0.3985;stroke-linecap:butt;stroke-linejoin:miter;stroke-miterlimit:10;stroke-dasharray:none;stroke-opacity:1" transform="matrix(1.4666667,0,0,-1.4666667,412.5128,118.722)" />
    <path id="path40" d="m 4.1548977,-3.046179 c 0.3835228,-0.3835227 1.5234375,-1.5553977 1.7151989,-1.7045454 0.3302557,-0.2556818 0.5326704,-0.3941762 1.1079545,-0.4261364 0.042614,-0.010653 0.1065341,-0.053267 0.1065341,-0.1491477 0,-0.074574 -0.074574,-0.1171875 -0.1065341,-0.1171875 -0.085227,0 -0.1278409,0.021307 -0.756392,0.021307 -0.5965909,0 -0.8096591,-0.021307 -0.8522727,-0.021307 -0.03196,0 -0.1598012,0 -0.1598012,0.1491477 0,0.010653 0,0.1065341 0.1171875,0.1171875 0.063921,0.010653 0.2769887,0.021307 0.2769887,0.2024148 0,0.053267 -0.03196,0.1491477 -0.095881,0.2130682 l -0.021307,0.03196 c -0.03196,0.03196 -0.03196,0.042614 -0.1065341,0.1171875 L 4.0483636,-3.2699006 3.2387045,-4.9531392 c 0.1065341,-0.1917614 0.3515625,-0.2130682 0.4474432,-0.2237216 0.03196,0 0.1491478,-0.010653 0.1491478,-0.1491477 0,-0.063921 -0.053267,-0.1171875 -0.127841,-0.1171875 -0.085227,0 -0.3835227,0.021307 -0.46875,0.021307 -0.042614,0 -0.340909,0 -0.5007102,0 -0.7457386,0 -0.8416193,-0.021307 -0.9161932,-0.021307 -0.03196,0 -0.1598011,0 -0.1598011,0.1491477 0,0.1171875 0.1065341,0.1171875 0.234375,0.1171875 0.3941761,0 0.46875,0.074574 0.5433239,0.2237216 l 1.0546875,2.2372159 -1.6299716,1.6619318 C 1.3850114,-0.57458807 1.012142,-0.29759943 0.44751136,-0.2656392 0.35163068,-0.2549858 0.25575,-0.2549858 0.25575,-0.10583807 c 0,0.04261364 0.0426136,0.10653409273 0.1171875,0.10653409273 0.0532671,0 0.14914773,-0.0213068227 0.7457386,-0.0213068227 0.5752841,0 0.8309659,0.0213068227 0.8629262,0.0213068227 0.03196,0 0.1491477,0 0.1491477,-0.14914772273 0,-0.0213068 0,-0.1065341 -0.1278409,-0.1171875 -0.1491477,0 -0.2556818,-0.0639205 -0.2556818,-0.20241478 0,-0.12784091 0.095881,-0.234375 0.2130682,-0.3515625 C 2.0987898,-0.9687642 2.5142727,-1.3842472 2.8019148,-1.6612358 2.9830227,-1.8529972 3.4304659,-2.3110937 3.6115739,-2.4815483 l 0.9161931,1.89630682 c 0.042614,0.0852273 0.042614,0.0958807 0.042614,0.0958807 0,0.0745739 -0.1704546,0.21306819 -0.4367898,0.2237216 -0.053267,0 -0.1598011,0.0106534 -0.1598011,0.15980113 0,0 0.010653,0.10653409273 0.1384943,0.10653409273 0.074574,0 0.3728693,-0.0106534127 0.4580966,-0.0213068227 h 0.5007102 c 0.7350852,0 0.8522727,0.0213068227 0.9161932,0.0213068227 0.03196,0 0.1598011,0 0.1598011,-0.14914772273 0,-0.1171875 -0.1065341,-0.1171875 -0.2237216,-0.1171875 -0.4367897,0 -0.4794034,-0.0958807 -0.5326704,-0.21306819 z m 0,0" style="fill:#ffffff;fill-opacity:1;fill-rule:nonzero;stroke:none" aria-label="X" transform="matrix(1.4666667,0,0,1.4666667,469.3124,101.92867)" />
    <path id="path41" d="M 36.14218,-6.378 H 48.89821 V 6.37803 H 36.14218 Z" style="fill:#ee5396;fill-opacity:1;fill-rule:nonzero;stroke:#ee5396;stroke-width:0.3985;stroke-linecap:butt;stroke-linejoin:miter;stroke-miterlimit:10;stroke-dasharray:none;stroke-opacity:1" transform="matrix(1.4666667,0,0,-1.4666667,412.5128,118.722)" />
    <path id="path42" d="m 4.1548977,-3.0474815 c 0.3835228,-0.3835228 1.5234375,-1.5553978 1.7151989,-1.7045455 0.3302557,-0.2556818 0.5326704,-0.3941761 1.1079545,-0.4261364 0.042614,-0.010653 0.1065341,-0.053267 0.1065341,-0.1491477 0,-0.074574 -0.074574,-0.1171875 -0.1065341,-0.1171875 -0.085227,0 -0.1278409,0.021307 -0.756392,0.021307 -0.5965909,0 -0.8096591,-0.021307 -0.8522727,-0.021307 -0.03196,0 -0.1598012,0 -0.1598012,0.1491477 0,0.010654 0,0.1065341 0.1171875,0.1171875 0.063921,0.010654 0.2769887,0.021307 0.2769887,0.2024148 0,0.053267 -0.03196,0.1491477 -0.095881,0.2130682 l -0.021307,0.03196 c -0.03196,0.03196 -0.03196,0.042614 -0.1065341,0.1171875 L 4.0483636,-3.2712031 3.2387045,-4.9544418 c 0.1065341,-0.1917613 0.3515625,-0.2130681 0.4474432,-0.2237216 0.03196,0 0.1491478,-0.010653 0.1491478,-0.1491477 0,-0.06392 -0.053267,-0.1171875 -0.127841,-0.1171875 -0.085227,0 -0.3835227,0.021307 -0.46875,0.021307 -0.042614,0 -0.340909,0 -0.5007102,0 -0.7457386,0 -0.8416193,-0.021307 -0.9161932,-0.021307 -0.03196,0 -0.1598011,0 -0.1598011,0.1491477 0,0.1171875 0.1065341,0.1171875 0.234375,0.1171875 0.3941761,0 0.46875,0.074574 0.5433239,0.2237216 L 3.4943864,-2.7172259 1.8644148,-1.055294 C 1.3850114,-0.57589062 1.012142,-0.29890199 0.44751136,-0.26694176 0.35163068,-0.25628835 0.25575,-0.25628835 0.25575,-0.10714062 c 0,0.04261363 0.0426136,0.10653408591 0.1171875,0.10653408591 0.0532671,0 0.14914773,-0.0213068159 0.7457386,-0.0213068159 0.5752841,0 0.8309659,0.0213068159 0.8629262,0.0213068159 0.03196,0 0.1491477,0 0.1491477,-0.14914772591 0,-0.0213068 0,-0.10653409 -0.1278409,-0.1171875 -0.1491477,0 -0.2556818,-0.0639205 -0.2556818,-0.20241477 0,-0.12784091 0.095881,-0.234375 0.2130682,-0.3515625 0.1384943,-0.14914773 0.5539772,-0.56463067 0.8416193,-0.84161937 0.1811079,-0.1917613 0.6285511,-0.6498579 0.8096591,-0.8203125 l 0.9161931,1.89630687 c 0.042614,0.0852273 0.042614,0.0958807 0.042614,0.0958807 0,0.0745739 -0.1704546,0.21306818 -0.4367898,0.22372159 -0.053267,0 -0.1598011,0.0106534 -0.1598011,0.15980114 0,0 0.010653,0.10653408591 0.1384943,0.10653408591 0.074574,0 0.3728693,-0.0106534059 0.4580966,-0.0213068159 h 0.5007102 c 0.7350852,0 0.8522727,0.0213068159 0.9161932,0.0213068159 0.03196,0 0.1598011,0 0.1598011,-0.14914772591 0,-0.1171875 -0.1065341,-0.1171875 -0.2237216,-0.1171875 -0.4367897,0 -0.4794034,-0.0958807 -0.5326704,-0.21306818 z m 0,0" style="fill:#ffffff;fill-opacity:1;fill-rule:nonzero;stroke:none" aria-label="X" transform="matrix(1.4666667,0,0,1.4666667,469.3124,122.71573)" />
    <path id="path43" d="M 36.14218,-20.5514 H 48.89821 V -7.79537 H 36.14218 Z" style="fill:#ee5396;fill-opacity:1;fill-rule:nonzero;stroke:#ee5396;stroke-width:0.3985;stroke-linecap:butt;stroke-linejoin:miter;stroke-miterlimit:10;stroke-dasharray:none;stroke-opacity:1" transform="matrix(1.4666667,0,0,-1.4666667,412.5128,118.722)" />
    <path id="path44" d="m 4.1548977,-3.0471207 c 0.3835228,-0.3835228 1.5234375,-1.5553978 1.7151989,-1.7045455 0.3302557,-0.2556818 0.5326704,-0.3941761 1.1079545,-0.4261364 0.042614,-0.010653 0.1065341,-0.053267 0.1065341,-0.1491477 0,-0.074574 -0.074574,-0.1171875 -0.1065341,-0.1171875 -0.085227,0 -0.1278409,0.021307 -0.756392,0.021307 -0.5965909,0 -0.8096591,-0.021307 -0.8522727,-0.021307 -0.03196,0 -0.1598012,0 -0.1598012,0.1491477 0,0.010654 0,0.1065341 0.1171875,0.1171875 0.063921,0.010654 0.2769887,0.021307 0.2769887,0.2024148 0,0.053267 -0.03196,0.1491477 -0.095881,0.2130682 l -0.021307,0.03196 c -0.03196,0.03196 -0.03196,0.042614 -0.1065341,0.1171875 L 4.0483636,-3.2708423 3.2387045,-4.954081 c 0.1065341,-0.1917613 0.3515625,-0.2130681 0.4474432,-0.2237216 0.03196,0 0.1491478,-0.010653 0.1491478,-0.1491477 0,-0.06392 -0.053267,-0.1171875 -0.127841,-0.1171875 -0.085227,0 -0.3835227,0.021307 -0.46875,0.021307 -0.042614,0 -0.340909,0 -0.5007102,0 -0.7457386,0 -0.8416193,-0.021307 -0.9161932,-0.021307 -0.03196,0 -0.1598011,0 -0.1598011,0.1491477 0,0.1171875 0.1065341,0.1171875 0.234375,0.1171875 0.3941761,0 0.46875,0.074574 0.5433239,0.2237216 l 1.0546875,2.2372159 -1.6299716,1.6619319 C 1.3850114,-0.57552983 1.012142,-0.29854119 0.44751136,-0.26658097 0.35163068,-0.25592756 0.25575,-0.25592756 0.25575,-0.10677983 c 0,0.04261364 0.0426136,0.10653409136 0.1171875,0.10653409136 0.0532671,0 0.14914773,-0.0213068214 0.7457386,-0.0213068214 0.5752841,0 0.8309659,0.0213068214 0.8629262,0.0213068214 0.03196,0 0.1491477,0 0.1491477,-0.14914773136 0,-0.0213068 0,-0.10653409 -0.1278409,-0.1171875 -0.1491477,0 -0.2556818,-0.0639205 -0.2556818,-0.20241477 0,-0.12784091 0.095881,-0.234375 0.2130682,-0.3515625 0.1384943,-0.14914773 0.5539772,-0.56463066 0.8416193,-0.84161936 0.1811079,-0.1917613 0.6285511,-0.6498579 0.8096591,-0.8203125 l 0.9161931,1.89630686 c 0.042614,0.0852273 0.042614,0.0958807 0.042614,0.0958807 0,0.0745739 -0.1704546,0.21306819 -0.4367898,0.22372159 -0.053267,0 -0.1598011,0.0106534 -0.1598011,0.15980114 0,0 0.010653,0.10653409136 0.1384943,0.10653409136 0.074574,0 0.3728693,-0.0106534114 0.4580966,-0.0213068214 h 0.5007102 c 0.7350852,0 0.8522727,0.0213068214 0.9161932,0.0213068214 0.03196,0 0.1598011,0 0.1598011,-0.14914773136 0,-0.1171875 -0.1065341,-0.1171875 -0.2237216,-0.1171875 -0.4367897,0 -0.4794034,-0.0958807 -0.5326704,-0.21306818 z m 0,0" style="fill:#ffffff;fill-opacity:1;fill-rule:nonzero;stroke:none" aria-label="X" transform="matrix(1.4666667,0,0,1.4666667,469.3124,143.50427)" />
    <path id="path45" d="M -56.69362,-28.3468 H 56.69362" style="fill:none;stroke:#121619;stroke-width:0.3985;stroke-linecap:butt;stroke-linejoin:miter;stroke-miterlimit:10;stroke-dasharray:none;stroke-opacity:1" transform="matrix(1.4666667,0,0,-1.4666667,189.6164,211.97787)" />
    <path id="path46" d="M -56.69362,-14.17339 H 56.69362" style="fill:none;stroke:#121619;stroke-width:0.3985;stroke-linecap:butt;stroke-linejoin:miter;stroke-miterlimit:10;stroke-dasharray:none;stroke-opacity:1" transform="matrix(1.4666667,0,0,-1.4666667,189.6164,211.97787)" />
    <path id="path47" d="M -56.69362,0 H 56.69362" style="fill:none;stroke:#121619;stroke-width:0.3985;stroke-linecap:butt;stroke-linejoin:miter;stroke-miterlimit:10;stroke-dasharray:none;stroke-opacity:1" transform="matrix(1.4666667,0,0,-1.4666667,189.6164,211.97787)" />
    <path id="path48" d="M -56.69362,14.17339 H 56.69362" style="fill:none;stroke:#121619;stroke-width:0.3985;stroke-linecap:butt;stroke-linejoin:miter;stroke-miterlimit:10;stroke-dasharray:none;stroke-opacity:1" transform="matrix(1.4666667,0,0,-1.4666667,189.6164,211.97787)" />
    <path id="path49" d="m -16.27872,-28.3468 c 0,2.75117 -2.23019,4.98138 -4.98138,4.98138 -2.75118,0 -4.98139,-2.23021 -4.98139,-4.98138 0,-2.75118 2.23021,-4.98139 4.98139,-4.98139 2.75119,0 4.98138,2.23021 4.98138,4.98139 z" style="fill:#78a9ff;fill-opacity:1;fill-rule:nonzero;stroke:#78a9ff;stroke-width:0.3985;stroke-linecap:butt;stroke-linejoin:miter;stroke-miterlimit:10;stroke-dasharray:none;stroke-opacity:1" transform="matrix(1.4666667,0,0,-1.4666667,189.6164,211.97787)" />
    <path id="path50" d="m 3.919473,-6.5094574 v 2.8444602 H 1.0750128 v 0.7563921 H 3.919473 v 2.84446021 H 4.6865185 V -2.9086051 H 7.5309787 V -3.6649972 H 4.6865185 v -2.8444602 z m 0,0" style="fill:#ffffff;fill-opacity:1;fill-rule:nonzero;stroke:none" aria-label="+" transform="matrix(1.4666667,0,0,1.4666667,152.12253,258.33627)" />
    <path id="path51" d="m -18.76941,-14.17339 c 0,1.37559 -1.11511,2.49069 -2.49069,2.49069 -1.37558,0 -2.4907,-1.1151 -2.4907,-2.49069 0,-1.37558 1.11512,-2.49069 2.4907,-2.49069 1.37558,0 2.49069,1.11511 2.49069,2.49069 z" style="fill:#78a9ff;fill-opacity:1;fill-rule:nonzero;stroke:none" transform="matrix(1.4666667,0,0,-1.4666667,189.6164,211.97787)" />
    <path id="path52" d="m -21.2601,-14.17339 v -8.99278" style="fill:none;stroke:#78a9ff;stroke-width:0.79701;stroke-linecap:butt;stroke-linejoin:miter;stroke-miterlimit:10;stroke-dasharray:none;stroke-opacity:1" transform="matrix(1.4666667,0,0,-1.4666667,189.6164,211.97787)" />
    <path id="path53" d="m 4.98138,-28.3468 c 0,2.75117 -2.23021,4.98138 -4.98138,4.98138 -2.75117,0 -4.98138,-2.23021 -4.98138,-4.98138 0,-2.75118 2.23021,-4.98139 4.98138,-4.98139 2.75117,0 4.98138,2.23021 4.98138,4.98139 z" style="fill:#78a9ff;fill-opacity:1;fill-rule:nonzero;stroke:#78a9ff;stroke-width:0.3985;stroke-linecap:butt;stroke-linejoin:miter;stroke-miterlimit:10;stroke-dasharray:none;stroke-opacity:1" transform="matrix(1.4666667,0,0,-1.4666667,189.6164,211.97787)" />
    <path id="path54" d="m 3.9210142,-6.5094574 v 2.8444602 H 1.076554 v 0.7563921 h 2.8444602 v 2.84446021 H 4.6880597 V -2.9086051 H 7.5325199 V -3.6649972 H 4.6880597 v -2.8444602 z m 0,0" style="fill:#ffffff;fill-opacity:1;fill-rule:nonzero;stroke:none" aria-label="+" transform="matrix(1.4666667,0,0,1.4666667,183.30387,258.33627)" />
    <path id="path55" d="M 2.49069,0 C 2.49069,1.37558 1.37558,2.49069 0,2.49069 -1.37558,2.49069 -2.49069,1.37558 -2.49069,0 c 0,-1.37558 1.11511,-2.49069 2.49069,-2.49069 1.37558,0 2.49069,1.11511 2.49069,2.49069 z" style="fill:#78a9ff;fill-opacity:1;fill-rule:nonzero;stroke:none" transform="matrix(1.4666667,0,0,-1.4666667,189.6164,211.97787)" />
    <path id="path56" d="M 0,0 V -23.16617" style="fill:none;stroke:#78a9ff;stroke-width:0.79701;stroke-linecap:butt;stroke-linejoin:miter;stroke-miterlimit:10;stroke-dasharray:none;stroke-opacity:1" transform="matrix(1.4666667,0,0,-1.4666667,189.6164,211.97787)" />
    <path id="path57" d="m 26.24149,-28.3468 c 0,2.75117 -2.23021,4.98138 -4.98139,4.98138 -2.75119,0 -4.98138,-2.23021 -4.98138,-4.98138 0,-2.75118 2.23019,-4.98139 4.98138,-4.98139 2.75118,0 4.98139,2.23021 4.98139,4.98139 z" style="fill:#78a9ff;fill-opacity:1;fill-rule:nonzero;stroke:#78a9ff;stroke-width:0.3985;stroke-linecap:butt;stroke-linejoin:miter;stroke-miterlimit:10;stroke-dasharray:none;stroke-opacity:1" transform="matrix(1.4666667,0,0,-1.4666667,189.6164,211.97787)" />
    <path id="path58" d="m 3.919892,-6.5094574 v 2.8444602 H 1.0754318 v 0.7563921 H 3.919892 v 2.84446021 H 4.6869375 V -2.9086051 H 7.5313977 V -3.6649972 H 4.6869375 v -2.8444602 z m 0,0" style="fill:#ffffff;fill-opacity:1;fill-rule:nonzero;stroke:none" aria-label="+" transform="matrix(1.4666667,0,0,1.4666667,214.4852,258.33627)" />
    <path id="path59" d="m 23.7508,14.17339 c 0,1.37558 -1.11512,2.49069 -2.4907,2.49069 -1.37558,0 -2.49069,-1.11511 -2.49069,-2.49069 0,-1.37559 1.11511,-2.49069 2.49069,-2.49069 1.37558,0 2.4907,1.1151 2.4907,2.49069 z" style="fill:#78a9ff;fill-opacity:1;fill-rule:nonzero;stroke:none" transform="matrix(1.4666667,0,0,-1.4666667,189.6164,211.97787)" />
    <path id="path60" d="M 21.2601,14.17339 V -23.16617" style="fill:none;stroke:#78a9ff;stroke-width:0.79701;stroke-linecap:butt;stroke-linejoin:miter;stroke-miterlimit:10;stroke-dasharray:none;stroke-opacity:1" transform="matrix(1.4666667,0,0,-1.4666667,189.6164,211.97787)" />
    <path id="path61" d="m -48.89822,-34.72482 h 12.75603 v 12.75603 h -12.75603 z" style="fill:#ee5396;fill-opacity:1;fill-rule:nonzero;stroke:#ee5396;stroke-width:0.3985;stroke-linecap:butt;stroke-linejoin:miter;stroke-miterlimit:10;stroke-dasharray:none;stroke-opacity:1" transform="matrix(1.4666667,0,0,-1.4666667,189.6164,211.97787)" />
    <path id="path62" d="m 5.9130142,-5.1351648 c 0.063921,-0.06392 0.1065341,-0.1278409 0.1065341,-0.2237216 0,-0.085227 -0.053267,-0.085227 -0.2130682,-0.085227 H 2.2588949 c -0.2024148,0 -0.2130682,0.010653 -0.2556818,0.1598011 l -0.4474432,1.4169034 c -0.010653,0.03196 -0.021307,0.085227 -0.021307,0.1171875 0,0.021307 0,0.1171875 0.1171875,0.1171875 0.085227,0 0.1065341,-0.03196 0.1491477,-0.1917614 0.3835227,-1.0866477 1.0014204,-1.3529829 1.9815341,-1.3529829 H 5.156622 l -4.54900572,4.87926135 c -0.0639205,0.0639205 -0.1171875,0.1171875 -0.1171875,0.21306819 0,0.0852272691 0.0745739,0.0852272691 0.22372159,0.0852272691 H 4.3895767 c 0.2130682,0 0.2130682,-0.0106534091 0.2663352,-0.1598011391 L 5.2098892,-1.9071818 c 0.03196,-0.095881 0.03196,-0.1171875 0.03196,-0.1278409 0,0 -0.010653,-0.1065341 -0.1171875,-0.1065341 -0.053267,0 -0.074574,0.021307 -0.085227,0.03196 -0.010654,0.010653 -0.03196,0.03196 -0.03196,0.042614 -0.021307,0.053267 -0.021307,0.063921 -0.085227,0.2450285 -0.3515625,1.07599427 -0.8203125,1.53409086 -2.0774148,1.53409086 H 1.3853153 Z m 0,0" style="fill:#ffffff;fill-opacity:1;fill-rule:nonzero;stroke:none" aria-label="Z" transform="matrix(1.4666667,0,0,1.4666667,122.63227,257.5472)" />
    <path id="path63" d="M 0.71444531,-2.7082734 H 4.5464766 V -3.2121797 H 0.71444531 Z m 0,1.5351562 H 4.5464766 V -1.6770234 H 0.71444531 Z m 0,0" style="fill:#121619;fill-opacity:1;fill-rule:nonzero;stroke:none" aria-label="=" transform="matrix(1.3333333,0,0,1.3333333,298.856,225.404)" />
    <path id="path64" d="M -56.69362,-28.3468 H 56.69362" style="fill:none;stroke:#121619;stroke-width:0.3985;stroke-linecap:butt;stroke-linejoin:miter;stroke-miterlimit:10;stroke-dasharray:none;stroke-opacity:1" transform="matrix(1.4666667,0,0,-1.4666667,412.5128,211.97787)" />
    <path id="path65" d="M -56.69362,-14.17339 H 56.69362" style="fill:none;stroke:#121619;stroke-width:0.3985;stroke-linecap:butt;stroke-linejoin:miter;stroke-miterlimit:10;stroke-dasharray:none;stroke-opacity:1" transform="matrix(1.4666667,0,0,-1.4666667,412.5128,211.97787)" />
    <path id="path66" d="M -56.69362,0 H 56.69362" style="fill:none;stroke:#121619;stroke-width:0.3985;stroke-linecap:butt;stroke-linejoin:miter;stroke-miterlimit:10;stroke-dasharray:none;stroke-opacity:1" transform="matrix(1.4666667,0,0,-1.4666667,412.5128,211.97787)" />
    <path id="path67" d="M -56.69362,14.17339 H 56.69362" style="fill:none;stroke:#121619;stroke-width:0.3985;stroke-linecap:butt;stroke-linejoin:miter;stroke-miterlimit:10;stroke-dasharray:none;stroke-opacity:1" transform="matrix(1.4666667,0,0,-1.4666667,412.5128,211.97787)" />
    <path id="path68" d="m -16.27872,-28.3468 c 0,2.75117 -2.23019,4.98138 -4.98138,4.98138 -2.75118,0 -4.98139,-2.23021 -4.98139,-4.98138 0,-2.75118 2.23021,-4.98139 4.98139,-4.98139 2.75119,0 4.98138,2.23021 4.98138,4.98139 z" style="fill:#78a9ff;fill-opacity:1;fill-rule:nonzero;stroke:#78a9ff;stroke-width:0.3985;stroke-linecap:butt;stroke-linejoin:miter;stroke-miterlimit:10;stroke-dasharray:none;stroke-opacity:1" transform="matrix(1.4666667,0,0,-1.4666667,412.5128,211.97787)" />
    <path id="path69" d="m 3.9208622,-6.5094574 v 2.8444602 H 1.076402 v 0.7563921 h 2.8444602 v 2.84446021 H 4.6879077 V -2.9086051 H 7.5323679 V -3.6649972 H 4.6879077 v -2.8444602 z m 0,0" style="fill:#ffffff;fill-opacity:1;fill-rule:nonzero;stroke:none" aria-label="+" transform="matrix(1.4666667,0,0,1.4666667,375.01893,258.33627)" />
    <path id="path70" d="m -18.76941,-14.17339 c 0,1.37559 -1.11511,2.49069 -2.49069,2.49069 -1.37558,0 -2.4907,-1.1151 -2.4907,-2.49069 0,-1.37558 1.11512,-2.49069 2.4907,-2.49069 1.37558,0 2.49069,1.11511 2.49069,2.49069 z" style="fill:#78a9ff;fill-opacity:1;fill-rule:nonzero;stroke:none" transform="matrix(1.4666667,0,0,-1.4666667,412.5128,211.97787)" />
    <path id="path71" d="m -21.2601,-14.17339 v -8.99278" style="fill:none;stroke:#78a9ff;stroke-width:0.79701;stroke-linecap:butt;stroke-linejoin:miter;stroke-miterlimit:10;stroke-dasharray:none;stroke-opacity:1" transform="matrix(1.4666667,0,0,-1.4666667,412.5128,211.97787)" />
    <path id="path72" d="m 4.98138,-28.3468 c 0,2.75117 -2.23021,4.98138 -4.98138,4.98138 -2.75117,0 -4.98138,-2.23021 -4.98138,-4.98138 0,-2.75118 2.23021,-4.98139 4.98138,-4.98139 2.75117,0 4.98138,2.23021 4.98138,4.98139 z" style="fill:#78a9ff;fill-opacity:1;fill-rule:nonzero;stroke:#78a9ff;stroke-width:0.3985;stroke-linecap:butt;stroke-linejoin:miter;stroke-miterlimit:10;stroke-dasharray:none;stroke-opacity:1" transform="matrix(1.4666667,0,0,-1.4666667,412.5128,211.97787)" />
    <path id="path73" d="m 3.9197401,-6.5094574 v 2.8444602 H 1.0752798 v 0.7563921 h 2.8444603 v 2.84446021 H 4.6867855 V -2.9086051 H 7.5312457 V -3.6649972 H 4.6867855 v -2.8444602 z m 0,0" style="fill:#ffffff;fill-opacity:1;fill-rule:nonzero;stroke:none" aria-label="+" transform="matrix(1.4666667,0,0,1.4666667,406.20027,258.33627)" />
    <path id="path74" d="M 2.49069,0 C 2.49069,1.37558 1.37558,2.49069 0,2.49069 -1.37558,2.49069 -2.49069,1.37558 -2.49069,0 c 0,-1.37558 1.11511,-2.49069 2.49069,-2.49069 1.37558,0 2.49069,1.11511 2.49069,2.49069 z" style="fill:#78a9ff;fill-opacity:1;fill-rule:nonzero;stroke:none" transform="matrix(1.4666667,0,0,-1.4666667,412.5128,211.97787)" />
    <path id="path75" d="M 0,0 V -23.16617" style="fill:none;stroke:#78a9ff;stroke-width:0.79701;stroke-linecap:butt;stroke-linejoin:miter;stroke-miterlimit:10;stroke-dasharray:none;stroke-opacity:1" transform="matrix(1.4666667,0,0,-1.4666667,412.5128,211.97787)" />
    <path id="path76" d="m 26.24149,-28.3468 c 0,2.75117 -2.23021,4.98138 -4.98139,4.98138 -2.75119,0 -4.98138,-2.23021 -4.98138,-4.98138 0,-2.75118 2.23019,-4.98139 4.98138,-4.98139 2.75118,0 4.98139,2.23021 4.98139,4.98139 z" style="fill:#78a9ff;fill-opacity:1;fill-rule:nonzero;stroke:#78a9ff;stroke-width:0.3985;stroke-linecap:butt;stroke-linejoin:miter;stroke-miterlimit:10;stroke-dasharray:none;stroke-opacity:1" transform="matrix(1.4666667,0,0,-1.4666667,412.5128,211.97787)" />
    <path id="path77" d="m 3.9212812,-6.5094574 v 2.8444602 H 1.076821 v 0.7563921 h 2.8444602 v 2.84446021 H 4.6883267 V -2.9086051 H 7.5327869 V -3.6649972 H 4.6883267 v -2.8444602 z m 0,0" style="fill:#ffffff;fill-opacity:1;fill-rule:nonzero;stroke:none" aria-label="+" transform="matrix(1.4666667,0,0,1.4666667,437.3816,258.33627)" />
    <path id="path78" d="m 23.7508,14.17339 c 0,1.37558 -1.11512,2.49069 -2.4907,2.49069 -1.37558,0 -2.49069,-1.11511 -2.49069,-2.49069 0,-1.37559 1.11511,-2.49069 2.49069,-2.49069 1.37558,0 2.4907,1.1151 2.4907,2.49069 z" style="fill:#78a9ff;fill-opacity:1;fill-rule:nonzero;stroke:none" transform="matrix(1.4666667,0,0,-1.4666667,412.5128,211.97787)" />
    <path id="path79" d="M 21.2601,14.17339 V -23.16617" style="fill:none;stroke:#78a9ff;stroke-width:0.79701;stroke-linecap:butt;stroke-linejoin:miter;stroke-miterlimit:10;stroke-dasharray:none;stroke-opacity:1" transform="matrix(1.4666667,0,0,-1.4666667,412.5128,211.97787)" />
    <path id="path80" d="m 36.14218,-34.72482 h 12.75603 v 12.75603 H 36.14218 Z" style="fill:#ee5396;fill-opacity:1;fill-rule:nonzero;stroke:#ee5396;stroke-width:0.3985;stroke-linecap:butt;stroke-linejoin:miter;stroke-miterlimit:10;stroke-dasharray:none;stroke-opacity:1" transform="matrix(1.4666667,0,0,-1.4666667,412.5128,211.97787)" />
    <path id="path81" d="m 5.9125781,-5.1351648 c 0.063921,-0.06392 0.1065341,-0.1278409 0.1065341,-0.2237216 0,-0.085227 -0.053267,-0.085227 -0.2130682,-0.085227 H 2.2584588 c -0.2024148,0 -0.2130682,0.010653 -0.2556818,0.1598011 l -0.4474432,1.4169034 c -0.010653,0.03196 -0.021307,0.085227 -0.021307,0.1171875 0,0.021307 0,0.1171875 0.1171875,0.1171875 0.085227,0 0.1065341,-0.03196 0.1491477,-0.1917614 0.3835227,-1.0866477 1.0014205,-1.3529829 1.9815341,-1.3529829 h 1.3742898 l -4.5490057,4.87926135 c -0.0639205,0.0639205 -0.1171875,0.1171875 -0.1171875,0.21306819 0,0.0852272691 0.0745739,0.0852272691 0.22372159,0.0852272691 H 4.3891406 c 0.2130682,0 0.2130682,-0.0106534091 0.2663353,-0.1598011391 L 5.2094531,-1.9071818 c 0.03196,-0.095881 0.03196,-0.1171875 0.03196,-0.1278409 0,0 -0.010654,-0.1065341 -0.1171875,-0.1065341 -0.053267,0 -0.074574,0.021307 -0.085227,0.03196 -0.010653,0.010653 -0.03196,0.03196 -0.03196,0.042614 -0.021307,0.053267 -0.021307,0.063921 -0.085227,0.2450285 -0.3515625,1.07599427 -0.8203125,1.53409086 -2.0774148,1.53409086 h -1.459517 z m 0,0" style="fill:#ffffff;fill-opacity:1;fill-rule:nonzero;stroke:none" aria-label="Z" transform="matrix(1.4666667,0,0,1.4666667,470.254,257.5472)" />
    <path id="path82" d="M 36.14218,-20.5514 H 48.89821 V -7.79537 H 36.14218 Z" style="fill:#ee5396;fill-opacity:1;fill-rule:nonzero;stroke:#ee5396;stroke-width:0.3985;stroke-linecap:butt;stroke-linejoin:miter;stroke-miterlimit:10;stroke-dasharray:none;stroke-opacity:1" transform="matrix(1.4666667,0,0,-1.4666667,412.5128,211.97787)" />
    <path id="path83" d="m 5.9125781,-5.1338622 c 0.063921,-0.063921 0.1065341,-0.1278409 0.1065341,-0.2237216 0,-0.085227 -0.053267,-0.085227 -0.2130682,-0.085227 H 2.2584588 c -0.2024148,0 -0.2130682,0.010653 -0.2556818,0.1598012 l -0.4474432,1.4169034 c -0.010653,0.03196 -0.021307,0.085227 -0.021307,0.1171875 0,0.021307 0,0.1171875 0.1171875,0.1171875 0.085227,0 0.1065341,-0.03196 0.1491477,-0.1917614 0.3835227,-1.0866477 1.0014205,-1.352983 1.9815341,-1.352983 h 1.3742898 l -4.5490057,4.87926141 c -0.0639205,0.0639205 -0.1171875,0.1171875 -0.1171875,0.21306818 0,0.08522728 0.0745739,0.08522728 0.22372159,0.08522728 H 4.3891406 c 0.2130682,0 0.2130682,-0.01065341 0.2663353,-0.15980114 L 5.2094531,-1.9058793 c 0.03196,-0.095881 0.03196,-0.1171875 0.03196,-0.1278409 0,0 -0.010654,-0.1065341 -0.1171875,-0.1065341 -0.053267,0 -0.074574,0.021307 -0.085227,0.03196 -0.010653,0.010653 -0.03196,0.03196 -0.03196,0.042614 -0.021307,0.053267 -0.021307,0.063921 -0.085227,0.2450284 -0.3515625,1.07599433 -0.8203125,1.53409092 -2.0774148,1.53409092 h -1.459517 z m 0,0" style="fill:#ffffff;fill-opacity:1;fill-rule:nonzero;stroke:none" aria-label="Z" transform="matrix(1.4666667,0,0,1.4666667,470.254,236.76013)" />
    <path id="path84" d="M 36.14218,-6.378 H 48.89821 V 6.37803 H 36.14218 Z" style="fill:#ee5396;fill-opacity:1;fill-rule:nonzero;stroke:#ee5396;stroke-width:0.3985;stroke-linecap:butt;stroke-linejoin:miter;stroke-miterlimit:10;stroke-dasharray:none;stroke-opacity:1" transform="matrix(1.4666667,0,0,-1.4666667,412.5128,211.97787)" />
    <path id="path85" d="m 5.9125781,-5.134223 c 0.063921,-0.06392 0.1065341,-0.1278409 0.1065341,-0.2237216 0,-0.085227 -0.053267,-0.085227 -0.2130682,-0.085227 H 2.2584588 c -0.2024148,0 -0.2130682,0.010653 -0.2556818,0.1598012 L 1.5553338,-3.866467 c -0.010653,0.03196 -0.021307,0.085227 -0.021307,0.1171875 0,0.021307 0,0.1171875 0.1171875,0.1171875 0.085227,0 0.1065341,-0.03196 0.1491477,-0.1917614 0.3835227,-1.0866477 1.0014205,-1.3529829 1.9815341,-1.3529829 h 1.3742898 l -4.5490057,4.87926132 c -0.0639205,0.0639204 -0.1171875,0.1171875 -0.1171875,0.21306818 0,0.0852272705 0.0745739,0.0852272705 0.22372159,0.0852272705 H 4.3891406 c 0.2130682,0 0.2130682,-0.0106534105 0.2663353,-0.1598011405 L 5.2094531,-1.9062401 c 0.03196,-0.095881 0.03196,-0.1171875 0.03196,-0.1278409 0,0 -0.010654,-0.1065341 -0.1171875,-0.1065341 -0.053267,0 -0.074574,0.021307 -0.085227,0.03196 -0.010653,0.010653 -0.03196,0.03196 -0.03196,0.042614 -0.021307,0.053267 -0.021307,0.063921 -0.085227,0.2450284 -0.3515625,1.07599433 -0.8203125,1.53409092 -2.0774148,1.53409092 h -1.459517 z m 0,0" style="fill:#ffffff;fill-opacity:1;fill-rule:nonzero;stroke:none" aria-label="Z" transform="matrix(1.4666667,0,0,1.4666667,470.254,215.9716)" />
    <path id="path86" d="M 36.14218,7.79536 H 48.89821 V 20.55139 H 36.14218 Z" style="fill:#ee5396;fill-opacity:1;fill-rule:nonzero;stroke:#ee5396;stroke-width:0.3985;stroke-linecap:butt;stroke-linejoin:miter;stroke-miterlimit:10;stroke-dasharray:none;stroke-opacity:1" transform="matrix(1.4666667,0,0,-1.4666667,412.5128,211.97787)" />
    <path id="path87" d="m 5.9125781,-5.1355838 c 0.063921,-0.063921 0.1065341,-0.1278409 0.1065341,-0.2237216 0,-0.085227 -0.053267,-0.085227 -0.2130682,-0.085227 H 2.2584588 c -0.2024148,0 -0.2130682,0.010653 -0.2556818,0.1598012 l -0.4474432,1.4169034 c -0.010653,0.03196 -0.021307,0.085227 -0.021307,0.1171875 0,0.021307 0,0.1171875 0.1171875,0.1171875 0.085227,0 0.1065341,-0.03196 0.1491477,-0.1917614 0.3835227,-1.0866477 1.0014205,-1.3529829 1.9815341,-1.3529829 h 1.3742898 l -4.5490057,4.87926132 c -0.0639205,0.0639205 -0.1171875,0.1171875 -0.1171875,0.21306818 0,0.085227275 0.0745739,0.085227275 0.22372159,0.085227275 H 4.3891406 c 0.2130682,0 0.2130682,-0.010653405 0.2663353,-0.159801135 L 5.2094531,-1.9076009 c 0.03196,-0.095881 0.03196,-0.1171875 0.03196,-0.1278409 0,0 -0.010654,-0.1065341 -0.1171875,-0.1065341 -0.053267,0 -0.074574,0.021307 -0.085227,0.03196 -0.010653,0.010653 -0.03196,0.03196 -0.03196,0.042614 -0.021307,0.053267 -0.021307,0.063921 -0.085227,0.2450284 -0.3515625,1.07599434 -0.8203125,1.53409093 -2.0774148,1.53409093 h -1.459517 z m 0,0" style="fill:#ffffff;fill-opacity:1;fill-rule:nonzero;stroke:none" aria-label="Z" transform="matrix(1.4666667,0,0,1.4666667,470.254,195.18453)" />
  </g>
</svg>