<?xml version="1.0" encoding="UTF-8"?><!DOCTYPE svg  PUBLIC '-//W3C//DTD SVG 1.1//EN'  'http://www.w3.org/Graphics/SVG/1.1/DTD/svg11.dtd'><svg width="1090.8pt" height="172pt" version="1.1" viewBox="0 0 1090.8 172" xmlns="http://www.w3.org/2000/svg" xmlns:xlink="http://www.w3.org/1999/xlink"><defs><style type="text/css">*{stroke-linejoin: round; stroke-linecap: butt}</style></defs><path d="m0 172h1090.8v-172h-1090.8z" fill="#ffffff"/><path d="m54.502 44.283h1024.4" clip-path="url(#91b4d634d8a)" fill="none" stroke="#000000" stroke-linecap="square" stroke-width="2"/><path d="m54.502 90.637h1024.4" clip-path="url(#91b4d634d8a)" fill="none" stroke="#000000" stroke-linecap="square" stroke-width="2"/><path d="m54.502 136.99h1024.4" clip-path="url(#91b4d634d8a)" fill="none" stroke="#000000" stroke-linecap="square" stroke-width="2"/><path d="m49.867 21.106h-1158.8v185.42h1158.8z" clip-path="url(#91b4d634d8a)" fill="#ffffff" stroke="#ffffff" stroke-width="1.5"/><path d="m172.24 90.637v-46.354" clip-path="url(#91b4d634d8a)" fill="none" stroke="#002d9c" stroke-linecap="square" stroke-width="2"/><path d="m264.95 90.637v-46.354" clip-path="url(#91b4d634d8a)" fill="none" stroke="#002d9c" stroke-linecap="square" stroke-width="2"/><path d="m311.3 136.99v-92.708" clip-path="url(#91b4d634d8a)" fill="none" stroke="#002d9c" stroke-linecap="square" stroke-width="2"/><path d="m404.01 136.99v-92.708" clip-path="url(#91b4d634d8a)" fill="none" stroke="#002d9c" stroke-linecap="square" stroke-width="2"/><path d="m450.37 136.99v-46.354" clip-path="url(#91b4d634d8a)" fill="none" stroke="#002d9c" stroke-linecap="square" stroke-width="2"/><path d="m543.07 136.99v-46.354" clip-path="url(#91b4d634d8a)" fill="none" stroke="#002d9c" stroke-linecap="square" stroke-width="2"/><path d="m682.14 90.637v-46.354" clip-path="url(#91b4d634d8a)" fill="none" stroke="#002d9c" stroke-linecap="square" stroke-width="2"/><path d="m774.84 90.637v-46.354" clip-path="url(#91b4d634d8a)" fill="none" stroke="#002d9c" stroke-linecap="square" stroke-width="2"/><path d="m821.2 136.99v-92.708" clip-path="url(#91b4d634d8a)" fill="none" stroke="#002d9c" stroke-linecap="square" stroke-width="2"/><path d="m913.91 136.99v-92.708" clip-path="url(#91b4d634d8a)" fill="none" stroke="#002d9c" stroke-linecap="square" stroke-width="2"/><path d="m960.26 136.99v-46.354" clip-path="url(#91b4d634d8a)" fill="none" stroke="#002d9c" stroke-linecap="square" stroke-width="2"/><path d="m1053 136.99v-46.354" clip-path="url(#91b4d634d8a)" fill="none" stroke="#002d9c" stroke-linecap="square" stroke-width="2"/><path d="m64.468 59.348h30.13v-30.13h-30.13z" clip-path="url(#91b4d634d8a)" fill="#fa4d56" stroke="#fa4d56" stroke-width="1.5"/><path d="m64.468 105.7h30.13v-30.13h-30.13z" clip-path="url(#91b4d634d8a)" fill="#fa4d56" stroke="#fa4d56" stroke-width="1.5"/><path d="m64.468 152.06h30.13v-30.13h-30.13z" clip-path="url(#91b4d634d8a)" fill="#fa4d56" stroke="#fa4d56" stroke-width="1.5"/><path d="m110.82 59.348h30.13v-30.13h-30.13z" clip-path="url(#91b4d634d8a)" fill="#33b1ff" stroke="#33b1ff" stroke-width="1.5"/><path d="m110.82 105.7h30.13v-30.13h-30.13z" clip-path="url(#91b4d634d8a)" fill="#33b1ff" stroke="#33b1ff" stroke-width="1.5"/><path d="m110.82 152.06h30.13v-30.13h-30.13z" clip-path="url(#91b4d634d8a)" fill="#33b1ff" stroke="#33b1ff" stroke-width="1.5"/><path d="m172.24 48.803c1.1986 0 2.3482-0.4762 3.1958-1.3237 0.84753-0.84753 1.3237-1.9972 1.3237-3.1958 0-1.1986-0.4762-2.3482-1.3237-3.1958-0.84753-0.84753-1.9972-1.3237-3.1958-1.3237s-2.3482 0.4762-3.1958 1.3237c-0.84753 0.84753-1.3237 1.9972-1.3237 3.1958 0 1.1986 0.4762 2.3482 1.3237 3.1958 0.84753 0.84753 1.9972 1.3237 3.1958 1.3237z" clip-path="url(#91b4d634d8a)" fill="#002d9c" stroke="#002d9c" stroke-width="1.5"/><path d="m172.24 101.18c2.7967 0 5.4792-1.1111 7.4568-3.0887 1.9776-1.9776 3.0887-4.6601 3.0887-7.4568 0-2.7967-1.1111-5.4792-3.0887-7.4568-1.9776-1.9776-4.6601-3.0887-7.4568-3.0887-2.7967 0-5.4792 1.1111-7.4568 3.0887-1.9776 1.9776-3.0887 4.6601-3.0887 7.4568 0 2.7967 1.1111 5.4792 3.0887 7.4568 1.9776 1.9776 4.6601 3.0887 7.4568 3.0887z" clip-path="url(#91b4d634d8a)" fill="#002d9c" stroke="#002d9c" stroke-width="2"/><path d="m203.53 105.7h30.13v-30.13h-30.13z" clip-path="url(#91b4d634d8a)" fill="#33b1ff" stroke="#33b1ff" stroke-width="1.5"/><path d="m264.95 48.803c1.1986 0 2.3482-0.4762 3.1958-1.3237 0.84753-0.84753 1.3237-1.9972 1.3237-3.1958 0-1.1986-0.4762-2.3482-1.3237-3.1958-0.84753-0.84753-1.9972-1.3237-3.1958-1.3237-1.1986 0-2.3482 0.4762-3.1958 1.3237s-1.3237 1.9972-1.3237 3.1958c0 1.1986 0.4762 2.3482 1.3237 3.1958s1.9972 1.3237 3.1958 1.3237z" clip-path="url(#91b4d634d8a)" fill="#002d9c" stroke="#002d9c" stroke-width="1.5"/><path d="m264.95 101.18c2.7967 0 5.4792-1.1111 7.4568-3.0887 1.9776-1.9776 3.0887-4.6601 3.0887-7.4568 0-2.7967-1.1111-5.4792-3.0887-7.4568-1.9776-1.9776-4.6601-3.0887-7.4568-3.0887-2.7967 0-5.4792 1.1111-7.4568 3.0887-1.9776 1.9776-3.0887 4.6601-3.0887 7.4568 0 2.7967 1.1111 5.4792 3.0887 7.4568 1.9776 1.9776 4.6601 3.0887 7.4568 3.0887z" clip-path="url(#91b4d634d8a)" fill="#002d9c" stroke="#002d9c" stroke-width="2"/><path d="m311.3 48.803c1.1986 0 2.3482-0.4762 3.1958-1.3237 0.84753-0.84753 1.3237-1.9972 1.3237-3.1958 0-1.1986-0.4762-2.3482-1.3237-3.1958-0.84753-0.84753-1.9972-1.3237-3.1958-1.3237s-2.3482 0.4762-3.1958 1.3237c-0.84753 0.84753-1.3237 1.9972-1.3237 3.1958 0 1.1986 0.4762 2.3482 1.3237 3.1958 0.84753 0.84753 1.9972 1.3237 3.1958 1.3237z" clip-path="url(#91b4d634d8a)" fill="#002d9c" stroke="#002d9c" stroke-width="1.5"/><path d="m311.3 147.54c2.7967 0 5.4792-1.1111 7.4568-3.0887 1.9776-1.9776 3.0887-4.6601 3.0887-7.4568 0-2.7967-1.1111-5.4792-3.0887-7.4568-1.9776-1.9776-4.6601-3.0887-7.4568-3.0887s-5.4792 1.1111-7.4568 3.0887c-1.9776 1.9776-3.0887 4.6601-3.0887 7.4568 0 2.7967 1.1111 5.4792 3.0887 7.4568 1.9776 1.9776 4.6601 3.0887 7.4568 3.0887z" clip-path="url(#91b4d634d8a)" fill="#002d9c" stroke="#002d9c" stroke-width="2"/><path d="m342.59 152.06h30.13v-30.13h-30.13z" clip-path="url(#91b4d634d8a)" fill="#33b1ff" stroke="#33b1ff" stroke-width="1.5"/><path d="m404.01 48.803c1.1986 0 2.3482-0.4762 3.1958-1.3237 0.84753-0.84753 1.3237-1.9972 1.3237-3.1958 0-1.1986-0.4762-2.3482-1.3237-3.1958-0.84753-0.84753-1.9972-1.3237-3.1958-1.3237-1.1986 0-2.3482 0.4762-3.1958 1.3237s-1.3237 1.9972-1.3237 3.1958c0 1.1986 0.4762 2.3482 1.3237 3.1958s1.9972 1.3237 3.1958 1.3237z" clip-path="url(#91b4d634d8a)" fill="#002d9c" stroke="#002d9c" stroke-width="1.5"/><path d="m404.01 147.54c2.7967 0 5.4792-1.1111 7.4568-3.0887 1.9776-1.9776 3.0887-4.6601 3.0887-7.4568 0-2.7967-1.1111-5.4792-3.0887-7.4568s-4.6601-3.0887-7.4568-3.0887c-2.7967 0-5.4792 1.1111-7.4568 3.0887-1.9776 1.9776-3.0887 4.6601-3.0887 7.4568 0 2.7967 1.1111 5.4792 3.0887 7.4568 1.9776 1.9776 4.6601 3.0887 7.4568 3.0887z" clip-path="url(#91b4d634d8a)" fill="#002d9c" stroke="#002d9c" stroke-width="2"/><path d="m450.37 95.157c1.1986 0 2.3482-0.4762 3.1958-1.3237 0.84753-0.84753 1.3237-1.9972 1.3237-3.1958s-0.4762-2.3482-1.3237-3.1958c-0.84753-0.84753-1.9972-1.3237-3.1958-1.3237-1.1986 0-2.3482 0.4762-3.1958 1.3237-0.84753 0.84753-1.3237 1.9972-1.3237 3.1958s0.4762 2.3482 1.3237 3.1958c0.84753 0.84753 1.9972 1.3237 3.1958 1.3237z" clip-path="url(#91b4d634d8a)" fill="#002d9c" stroke="#002d9c" stroke-width="1.5"/><path d="m450.37 147.54c2.7967 0 5.4792-1.1111 7.4568-3.0887 1.9776-1.9776 3.0887-4.6601 3.0887-7.4568 0-2.7967-1.1111-5.4792-3.0887-7.4568-1.9776-1.9776-4.6601-3.0887-7.4568-3.0887-2.7967 0-5.4792 1.1111-7.4568 3.0887s-3.0887 4.6601-3.0887 7.4568c0 2.7967 1.1111 5.4792 3.0887 7.4568 1.9776 1.9776 4.6601 3.0887 7.4568 3.0887z" clip-path="url(#91b4d634d8a)" fill="#002d9c" stroke="#002d9c" stroke-width="2"/><path d="m435.3 59.348h30.13v-30.13h-30.13z" clip-path="url(#91b4d634d8a)" fill="#fa4d56" stroke="#fa4d56" stroke-width="1.5"/><path d="m481.65 152.06h30.13v-30.13h-30.13z" clip-path="url(#91b4d634d8a)" fill="#33b1ff" stroke="#33b1ff" stroke-width="1.5"/><path d="m481.65 59.348h30.13v-30.13h-30.13z" clip-path="url(#91b4d634d8a)" fill="#33b1ff" stroke="#33b1ff" stroke-width="1.5"/><path d="m543.07 95.157c1.1986 0 2.3482-0.4762 3.1958-1.3237 0.84753-0.84753 1.3237-1.9972 1.3237-3.1958s-0.4762-2.3482-1.3237-3.1958c-0.84753-0.84753-1.9972-1.3237-3.1958-1.3237s-2.3482 0.4762-3.1958 1.3237c-0.84753 0.84753-1.3237 1.9972-1.3237 3.1958s0.4762 2.3482 1.3237 3.1958c0.84753 0.84753 1.9972 1.3237 3.1958 1.3237z" clip-path="url(#91b4d634d8a)" fill="#002d9c" stroke="#002d9c" stroke-width="1.5"/><path d="m543.07 147.54c2.7967 0 5.4792-1.1111 7.4568-3.0887 1.9776-1.9776 3.0887-4.6601 3.0887-7.4568 0-2.7967-1.1111-5.4792-3.0887-7.4568-1.9776-1.9776-4.6601-3.0887-7.4568-3.0887-2.7967 0-5.4792 1.1111-7.4568 3.0887-1.9776 1.9776-3.0887 4.6601-3.0887 7.4568 0 2.7967 1.1111 5.4792 3.0887 7.4568 1.9776 1.9776 4.6601 3.0887 7.4568 3.0887z" clip-path="url(#91b4d634d8a)" fill="#002d9c" stroke="#002d9c" stroke-width="2"/><path d="m574.36 105.7h30.13v-30.13h-30.13z" clip-path="url(#91b4d634d8a)" fill="#fa4d56" stroke="#fa4d56" stroke-width="1.5"/><path d="m574.36 152.06h30.13v-30.13h-30.13z" clip-path="url(#91b4d634d8a)" fill="#fa4d56" stroke="#fa4d56" stroke-width="1.5"/><path d="m620.72 105.7h30.13v-30.13h-30.13z" clip-path="url(#91b4d634d8a)" fill="#33b1ff" stroke="#33b1ff" stroke-width="1.5"/><path d="m620.72 152.06h30.13v-30.13h-30.13z" clip-path="url(#91b4d634d8a)" fill="#33b1ff" stroke="#33b1ff" stroke-width="1.5"/><path d="m682.14 48.803c1.1986 0 2.3482-0.4762 3.1958-1.3237 0.84753-0.84753 1.3237-1.9972 1.3237-3.1958 0-1.1986-0.4762-2.3482-1.3237-3.1958-0.84753-0.84753-1.9972-1.3237-3.1958-1.3237s-2.3482 0.4762-3.1958 1.3237c-0.84753 0.84753-1.3237 1.9972-1.3237 3.1958 0 1.1986 0.4762 2.3482 1.3237 3.1958 0.84753 0.84753 1.9972 1.3237 3.1958 1.3237z" clip-path="url(#91b4d634d8a)" fill="#002d9c" stroke="#002d9c" stroke-width="1.5"/><path d="m682.14 101.18c2.7967 0 5.4792-1.1111 7.4568-3.0887 1.9776-1.9776 3.0887-4.6601 3.0887-7.4568 0-2.7967-1.1111-5.4792-3.0887-7.4568-1.9776-1.9776-4.6601-3.0887-7.4568-3.0887-2.7967 0-5.4792 1.1111-7.4568 3.0887-1.9776 1.9776-3.0887 4.6601-3.0887 7.4568 0 2.7967 1.1111 5.4792 3.0887 7.4568 1.9776 1.9776 4.6601 3.0887 7.4568 3.0887z" clip-path="url(#91b4d634d8a)" fill="#002d9c" stroke="#002d9c" stroke-width="2"/><path d="m713.42 105.7h30.13v-30.13h-30.13z" clip-path="url(#91b4d634d8a)" fill="#33b1ff" stroke="#33b1ff" stroke-width="1.5"/><path d="m774.84 48.803c1.1986 0 2.3482-0.4762 3.1958-1.3237 0.84753-0.84753 1.3237-1.9972 1.3237-3.1958 0-1.1986-0.4762-2.3482-1.3237-3.1958-0.84753-0.84753-1.9972-1.3237-3.1958-1.3237-1.1986 0-2.3482 0.4762-3.1958 1.3237-0.84753 0.84753-1.3237 1.9972-1.3237 3.1958 0 1.1986 0.4762 2.3482 1.3237 3.1958 0.84753 0.84753 1.9972 1.3237 3.1958 1.3237z" clip-path="url(#91b4d634d8a)" fill="#002d9c" stroke="#002d9c" stroke-width="1.5"/><path d="m774.84 101.18c2.7967 0 5.4792-1.1111 7.4568-3.0887 1.9776-1.9776 3.0887-4.6601 3.0887-7.4568 0-2.7967-1.1111-5.4792-3.0887-7.4568-1.9776-1.9776-4.6601-3.0887-7.4568-3.0887-2.7967 0-5.4792 1.1111-7.4568 3.0887-1.9776 1.9776-3.0887 4.6601-3.0887 7.4568 0 2.7967 1.1111 5.4792 3.0887 7.4568 1.9776 1.9776 4.6601 3.0887 7.4568 3.0887z" clip-path="url(#91b4d634d8a)" fill="#002d9c" stroke="#002d9c" stroke-width="2"/><path d="m821.2 48.803c1.1986 0 2.3482-0.4762 3.1958-1.3237s1.3237-1.9972 1.3237-3.1958c0-1.1986-0.4762-2.3482-1.3237-3.1958s-1.9972-1.3237-3.1958-1.3237c-1.1986 0-2.3482 0.4762-3.1958 1.3237-0.84753 0.84753-1.3237 1.9972-1.3237 3.1958 0 1.1986 0.4762 2.3482 1.3237 3.1958 0.84753 0.84753 1.9972 1.3237 3.1958 1.3237z" clip-path="url(#91b4d634d8a)" fill="#002d9c" stroke="#002d9c" stroke-width="1.5"/><path d="m821.2 147.54c2.7967 0 5.4792-1.1111 7.4568-3.0887 1.9776-1.9776 3.0887-4.6601 3.0887-7.4568 0-2.7967-1.1111-5.4792-3.0887-7.4568-1.9776-1.9776-4.6601-3.0887-7.4568-3.0887-2.7967 0-5.4792 1.1111-7.4568 3.0887s-3.0887 4.6601-3.0887 7.4568c0 2.7967 1.1111 5.4792 3.0887 7.4568 1.9776 1.9776 4.6601 3.0887 7.4568 3.0887z" clip-path="url(#91b4d634d8a)" fill="#002d9c" stroke="#002d9c" stroke-width="2"/><path d="m852.49 152.06h30.13v-30.13h-30.13z" clip-path="url(#91b4d634d8a)" fill="#33b1ff" stroke="#33b1ff" stroke-width="1.5"/><path d="m913.91 48.803c1.1986 0 2.3482-0.4762 3.1958-1.3237 0.84753-0.84753 1.3237-1.9972 1.3237-3.1958 0-1.1986-0.4762-2.3482-1.3237-3.1958-0.84753-0.84753-1.9972-1.3237-3.1958-1.3237s-2.3482 0.4762-3.1958 1.3237c-0.84753 0.84753-1.3237 1.9972-1.3237 3.1958 0 1.1986 0.4762 2.3482 1.3237 3.1958 0.84753 0.84753 1.9972 1.3237 3.1958 1.3237z" clip-path="url(#91b4d634d8a)" fill="#002d9c" stroke="#002d9c" stroke-width="1.5"/><path d="m913.91 147.54c2.7967 0 5.4792-1.1111 7.4568-3.0887 1.9776-1.9776 3.0887-4.6601 3.0887-7.4568 0-2.7967-1.1111-5.4792-3.0887-7.4568-1.9776-1.9776-4.6601-3.0887-7.4568-3.0887s-5.4792 1.1111-7.4568 3.0887c-1.9776 1.9776-3.0887 4.6601-3.0887 7.4568 0 2.7967 1.1111 5.4792 3.0887 7.4568 1.9776 1.9776 4.6601 3.0887 7.4568 3.0887z" clip-path="url(#91b4d634d8a)" fill="#002d9c" stroke="#002d9c" stroke-width="2"/><path d="m960.26 95.157c1.1986 0 2.3482-0.4762 3.1958-1.3237 0.84753-0.84753 1.3237-1.9972 1.3237-3.1958s-0.4762-2.3482-1.3237-3.1958c-0.84753-0.84753-1.9972-1.3237-3.1958-1.3237-1.1986 0-2.3482 0.4762-3.1958 1.3237-0.84753 0.84753-1.3237 1.9972-1.3237 3.1958s0.4762 2.3482 1.3237 3.1958c0.84753 0.84753 1.9972 1.3237 3.1958 1.3237z" clip-path="url(#91b4d634d8a)" fill="#002d9c" stroke="#002d9c" stroke-width="1.5"/><path d="m960.26 147.54c2.7967 0 5.4792-1.1111 7.4568-3.0887 1.9776-1.9776 3.0887-4.6601 3.0887-7.4568 0-2.7967-1.1111-5.4792-3.0887-7.4568-1.9776-1.9776-4.6601-3.0887-7.4568-3.0887-2.7967 0-5.4792 1.1111-7.4568 3.0887-1.9776 1.9776-3.0887 4.6601-3.0887 7.4568 0 2.7967 1.1111 5.4792 3.0887 7.4568 1.9776 1.9776 4.6601 3.0887 7.4568 3.0887z" clip-path="url(#91b4d634d8a)" fill="#002d9c" stroke="#002d9c" stroke-width="2"/><path d="m991.55 152.06h30.13v-30.13h-30.13z" clip-path="url(#91b4d634d8a)" fill="#33b1ff" stroke="#33b1ff" stroke-width="1.5"/><path d="m1053 95.157c1.1986 0 2.3482-0.4762 3.1958-1.3237 0.84753-0.84753 1.3237-1.9972 1.3237-3.1958s-0.4762-2.3482-1.3237-3.1958c-0.84753-0.84753-1.9972-1.3237-3.1958-1.3237-1.1986 0-2.3482 0.4762-3.1958 1.3237-0.84753 0.84753-1.3237 1.9972-1.3237 3.1958s0.4762 2.3482 1.3237 3.1958c0.84753 0.84753 1.9972 1.3237 3.1958 1.3237z" clip-path="url(#91b4d634d8a)" fill="#002d9c" stroke="#002d9c" stroke-width="1.5"/><path d="m1053 147.54c2.7967 0 5.4792-1.1111 7.4568-3.0887 1.9776-1.9776 3.0887-4.6601 3.0887-7.4568 0-2.7967-1.1111-5.4792-3.0887-7.4568-1.9776-1.9776-4.6601-3.0887-7.4568-3.0887-2.7967 0-5.4792 1.1111-7.4568 3.0887s-3.0887 4.6601-3.0887 7.4568c0 2.7967 1.1111 5.4792 3.0887 7.4568 1.9776 1.9776 4.6601 3.0887 7.4568 3.0887z" clip-path="url(#91b4d634d8a)" fill="#002d9c" stroke="#002d9c" stroke-width="2"/><path d="m172.24 96.663v-12.052" clip-path="url(#91b4d634d8a)" fill="none" stroke="#ffffff" stroke-linecap="square" stroke-width="2"/><path d="m166.22 90.637h12.052" clip-path="url(#91b4d634d8a)" fill="none" stroke="#ffffff" stroke-linecap="square" stroke-width="2"/><path d="m264.95 96.663v-12.052" clip-path="url(#91b4d634d8a)" fill="none" stroke="#ffffff" stroke-linecap="square" stroke-width="2"/><path d="m258.92 90.637h12.052" clip-path="url(#91b4d634d8a)" fill="none" stroke="#ffffff" stroke-linecap="square" stroke-width="2"/><path d="m311.3 143.02v-12.052" clip-path="url(#91b4d634d8a)" fill="none" stroke="#ffffff" stroke-linecap="square" stroke-width="2"/><path d="m305.28 136.99h12.052" clip-path="url(#91b4d634d8a)" fill="none" stroke="#ffffff" stroke-linecap="square" stroke-width="2"/><path d="m404.01 143.02v-12.052" clip-path="url(#91b4d634d8a)" fill="none" stroke="#ffffff" stroke-linecap="square" stroke-width="2"/><path d="m397.99 136.99h12.052" clip-path="url(#91b4d634d8a)" fill="none" stroke="#ffffff" stroke-linecap="square" stroke-width="2"/><path d="m450.37 143.02v-12.052" clip-path="url(#91b4d634d8a)" fill="none" stroke="#ffffff" stroke-linecap="square" stroke-width="2"/><path d="m444.34 136.99h12.052" clip-path="url(#91b4d634d8a)" fill="none" stroke="#ffffff" stroke-linecap="square" stroke-width="2"/><path d="m543.07 143.02v-12.052" clip-path="url(#91b4d634d8a)" fill="none" stroke="#ffffff" stroke-linecap="square" stroke-width="2"/><path d="m537.05 136.99h12.052" clip-path="url(#91b4d634d8a)" fill="none" stroke="#ffffff" stroke-linecap="square" stroke-width="2"/><path d="m682.14 96.663v-12.052" clip-path="url(#91b4d634d8a)" fill="none" stroke="#ffffff" stroke-linecap="square" stroke-width="2"/><path d="m676.11 90.637h12.052" clip-path="url(#91b4d634d8a)" fill="none" stroke="#ffffff" stroke-linecap="square" stroke-width="2"/><path d="m774.84 96.663v-12.052" clip-path="url(#91b4d634d8a)" fill="none" stroke="#ffffff" stroke-linecap="square" stroke-width="2"/><path d="m768.82 90.637h12.052" clip-path="url(#91b4d634d8a)" fill="none" stroke="#ffffff" stroke-linecap="square" stroke-width="2"/><path d="m821.2 143.02v-12.052" clip-path="url(#91b4d634d8a)" fill="none" stroke="#ffffff" stroke-linecap="square" stroke-width="2"/><path d="m815.17 136.99h12.052" clip-path="url(#91b4d634d8a)" fill="none" stroke="#ffffff" stroke-linecap="square" stroke-width="2"/><path d="m913.91 143.02v-12.052" clip-path="url(#91b4d634d8a)" fill="none" stroke="#ffffff" stroke-linecap="square" stroke-width="2"/><path d="m907.88 136.99h12.052" clip-path="url(#91b4d634d8a)" fill="none" stroke="#ffffff" stroke-linecap="square" stroke-width="2"/><path d="m960.26 143.02v-12.052" clip-path="url(#91b4d634d8a)" fill="none" stroke="#ffffff" stroke-linecap="square" stroke-width="2"/><path d="m954.23 136.99h12.052" clip-path="url(#91b4d634d8a)" fill="none" stroke="#ffffff" stroke-linecap="square" stroke-width="2"/><path d="m1053 143.02v-12.052" clip-path="url(#91b4d634d8a)" fill="none" stroke="#ffffff" stroke-linecap="square" stroke-width="2"/><path d="m1046.9 136.99h12.052" clip-path="url(#91b4d634d8a)" fill="none" stroke="#ffffff" stroke-linecap="square" stroke-width="2"/><g clip-path="url(#91b4d634d8a)"><g transform="translate(34.831 48.767) scale(.1625 -.1625)"><defs><path id="DejaVuSans-30" transform="scale(.015625)" d="m2034 4250q-487 0-733-480-245-479-245-1442 0-959 245-1439 246-480 733-480 491 0 736 480 246 480 246 1439 0 963-246 1442-245 480-736 480zm0 500q785 0 1199-621 414-620 414-1801 0-1178-414-1799-414-620-1199-620-784 0-1198 620-414 621-414 1799 0 1181 414 1801 414 621 1198 621z"/></defs><use transform="translate(0 .78125)" xlink:href="#DejaVuSans-30"/></g></g><g clip-path="url(#91b4d634d8a)"><g transform="translate(34.831 95.121) scale(.1625 -.1625)"><defs><path id="DejaVuSans-31" transform="scale(.015625)" d="m794 531h1031v3560l-1122-225v575l1116 225h631v-4135h1031v-531h-2687v531z"/></defs><use transform="translate(0 .09375)" xlink:href="#DejaVuSans-31"/></g></g><g clip-path="url(#91b4d634d8a)"><g transform="translate(34.831 141.48) scale(.1625 -.1625)"><defs><path id="DejaVuSans-32" transform="scale(.015625)" d="m1228 531h2203v-531h-2962v531q359 372 979 998 621 627 780 809 303 340 423 576 121 236 121 464 0 372-261 606-261 235-680 235-297 0-627-103-329-103-704-313v638q381 153 712 231 332 78 607 78 725 0 1156-363 431-362 431-968 0-288-108-546-107-257-392-607-78-91-497-524-418-433-1181-1211z"/></defs><use transform="translate(0 .78125)" xlink:href="#DejaVuSans-32"/></g></g><g clip-path="url(#91b4d634d8a)"><g transform="translate(74.645 47.87) scale(.13 -.13)"><defs><path id="DejaVuSans-48" transform="scale(.015625)" d="m628 4666h631v-1913h2294v1913h631v-4666h-631v2222h-2294v-2222h-631v4666z"/></defs><use xlink:href="#DejaVuSans-48"/></g></g><g clip-path="url(#91b4d634d8a)"><g transform="translate(74.645 94.224) scale(.13 -.13)"><use xlink:href="#DejaVuSans-48"/></g></g><g clip-path="url(#91b4d634d8a)"><g transform="translate(74.645 140.58) scale(.13 -.13)"><use xlink:href="#DejaVuSans-48"/></g></g><g clip-path="url(#91b4d634d8a)"><g transform="translate(119.53 55.53) scale(.08 -.08)"><defs><path id="DejaVuSans-2e" transform="scale(.015625)" d="m684 794h660v-794h-660v794z"/><path id="DejaVuSans-34" transform="scale(.015625)" d="m2419 4116-1594-2491h1594v2491zm-166 550h794v-3041h666v-525h-666v-1100h-628v1100h-2106v609l1940 2957z"/></defs><use xlink:href="#DejaVuSans-30"/><use transform="translate(63.623)" xlink:href="#DejaVuSans-2e"/><use transform="translate(95.41)" xlink:href="#DejaVuSans-34"/></g></g><g clip-path="url(#91b4d634d8a)"><g transform="translate(121.97 43.351) scale(.13 -.13)"><defs><path id="DejaVuSans-50" transform="scale(.015625)" d="m1259 4147v-1753h794q441 0 681 228 241 228 241 650 0 419-241 647-240 228-681 228h-794zm-631 519h1425q785 0 1186-355 402-355 402-1039 0-691-402-1044-401-353-1186-353h-794v-1875h-631v4666z"/></defs><use xlink:href="#DejaVuSans-50"/></g></g><g clip-path="url(#91b4d634d8a)"><g transform="translate(119.53 101.88) scale(.08 -.08)"><defs><path id="DejaVuSans-38" transform="scale(.015625)" d="m2034 2216q-450 0-708-241-257-241-257-662 0-422 257-663 258-241 708-241t709 242q260 243 260 662 0 421-258 662-257 241-711 241zm-631 268q-406 100-633 378-226 279-226 679 0 559 398 884 399 325 1092 325 697 0 1094-325t397-884q0-400-227-679-226-278-629-378 456-106 710-416 255-309 255-755 0-679-414-1042-414-362-1186-362-771 0-1186 362-414 363-414 1042 0 446 256 755 257 310 713 416zm-231 997q0-362 226-565 227-203 636-203 407 0 636 203 230 203 230 565 0 363-230 566-229 203-636 203-409 0-636-203-226-203-226-566z"/></defs><use xlink:href="#DejaVuSans-30"/><use transform="translate(63.623)" xlink:href="#DejaVuSans-2e"/><use transform="translate(95.41)" xlink:href="#DejaVuSans-38"/></g></g><g clip-path="url(#91b4d634d8a)"><g transform="translate(121.97 89.705) scale(.13 -.13)"><use xlink:href="#DejaVuSans-50"/></g></g><g clip-path="url(#91b4d634d8a)"><g transform="translate(119.53 148.24) scale(.08 -.08)"><defs><path id="DejaVuSans-36" transform="scale(.015625)" d="m2113 2584q-425 0-674-291-248-290-248-796 0-503 248-796 249-292 674-292t673 292q248 293 248 796 0 506-248 796-248 291-673 291zm1253 1979v-575q-238 112-480 171-242 60-480 60-625 0-955-422-329-422-376-1275 184 272 462 417 279 145 613 145 703 0 1111-427 408-426 408-1160 0-719-425-1154-425-434-1131-434-810 0-1238 620-428 621-428 1799 0 1106 525 1764t1409 658q238 0 480-47t505-140z"/></defs><use xlink:href="#DejaVuSans-31"/><use transform="translate(63.623)" xlink:href="#DejaVuSans-2e"/><use transform="translate(95.41)" xlink:href="#DejaVuSans-36"/></g></g><g clip-path="url(#91b4d634d8a)"><g transform="translate(121.97 136.06) scale(.13 -.13)"><use xlink:href="#DejaVuSans-50"/></g></g><g clip-path="url(#91b4d634d8a)"><g transform="translate(209.69 101.88) scale(.08 -.08)"><use xlink:href="#DejaVuSans-31"/><use transform="translate(63.623)" xlink:href="#DejaVuSans-36"/><use transform="translate(127.25)" xlink:href="#DejaVuSans-2e"/><use transform="translate(159.03)" xlink:href="#DejaVuSans-31"/></g></g><g clip-path="url(#91b4d634d8a)"><g transform="translate(214.68 89.705) scale(.13 -.13)"><use xlink:href="#DejaVuSans-50"/></g></g><g clip-path="url(#91b4d634d8a)"><g transform="translate(348.75 148.24) scale(.08 -.08)"><defs><path id="DejaVuSans-33" transform="scale(.015625)" d="m2597 2516q453-97 707-404 255-306 255-756 0-690-475-1069-475-378-1350-378-293 0-604 58t-642 174v609q262-153 574-231 313-78 654-78 593 0 904 234t311 681q0 413-289 645-289 233-804 233h-544v519h569q465 0 712 186t247 536q0 359-255 551-254 193-729 193-260 0-557-57-297-56-653-174v562q360 100 674 150t592 50q719 0 1137-327 419-326 419-882 0-388-222-655t-631-370z"/></defs><use xlink:href="#DejaVuSans-31"/><use transform="translate(63.623)" xlink:href="#DejaVuSans-33"/><use transform="translate(127.25)" xlink:href="#DejaVuSans-2e"/><use transform="translate(159.03)" xlink:href="#DejaVuSans-38"/></g></g><g clip-path="url(#91b4d634d8a)"><g transform="translate(353.74 136.06) scale(.13 -.13)"><use xlink:href="#DejaVuSans-50"/></g></g><g clip-path="url(#91b4d634d8a)"><g transform="translate(445.48 47.87) scale(.13 -.13)"><use xlink:href="#DejaVuSans-48"/></g></g><g clip-path="url(#91b4d634d8a)"><g transform="translate(487.81 148.24) scale(.08 -.08)"><use xlink:href="#DejaVuSans-31"/><use transform="translate(63.623)" xlink:href="#DejaVuSans-32"/><use transform="translate(127.25)" xlink:href="#DejaVuSans-2e"/><use transform="translate(159.03)" xlink:href="#DejaVuSans-38"/></g></g><g clip-path="url(#91b4d634d8a)"><g transform="translate(492.8 136.06) scale(.13 -.13)"><use xlink:href="#DejaVuSans-50"/></g></g><g clip-path="url(#91b4d634d8a)"><g transform="translate(490.36 55.53) scale(.08 -.08)"><use xlink:href="#DejaVuSans-30"/><use transform="translate(63.623)" xlink:href="#DejaVuSans-2e"/><use transform="translate(95.41)" xlink:href="#DejaVuSans-34"/></g></g><g clip-path="url(#91b4d634d8a)"><g transform="translate(492.8 43.351) scale(.13 -.13)"><use xlink:href="#DejaVuSans-50"/></g></g><g clip-path="url(#91b4d634d8a)"><g transform="translate(584.54 94.224) scale(.13 -.13)"><use xlink:href="#DejaVuSans-48"/></g></g><g clip-path="url(#91b4d634d8a)"><g transform="translate(584.54 140.58) scale(.13 -.13)"><use xlink:href="#DejaVuSans-48"/></g></g><g clip-path="url(#91b4d634d8a)"><g transform="translate(629.42 101.88) scale(.08 -.08)"><use xlink:href="#DejaVuSans-30"/><use transform="translate(63.623)" xlink:href="#DejaVuSans-2e"/><use transform="translate(95.41)" xlink:href="#DejaVuSans-38"/></g></g><g clip-path="url(#91b4d634d8a)"><g transform="translate(631.86 89.705) scale(.13 -.13)"><use xlink:href="#DejaVuSans-50"/></g></g><g clip-path="url(#91b4d634d8a)"><g transform="translate(629.42 148.24) scale(.08 -.08)"><use xlink:href="#DejaVuSans-31"/><use transform="translate(63.623)" xlink:href="#DejaVuSans-2e"/><use transform="translate(95.41)" xlink:href="#DejaVuSans-36"/></g></g><g clip-path="url(#91b4d634d8a)"><g transform="translate(631.86 136.06) scale(.13 -.13)"><use xlink:href="#DejaVuSans-50"/></g></g><g clip-path="url(#91b4d634d8a)"><g transform="translate(719.58 101.88) scale(.08 -.08)"><use xlink:href="#DejaVuSans-31"/><use transform="translate(63.623)" xlink:href="#DejaVuSans-36"/><use transform="translate(127.25)" xlink:href="#DejaVuSans-2e"/><use transform="translate(159.03)" xlink:href="#DejaVuSans-31"/></g></g><g clip-path="url(#91b4d634d8a)"><g transform="translate(724.57 89.705) scale(.13 -.13)"><use xlink:href="#DejaVuSans-50"/></g></g><g clip-path="url(#91b4d634d8a)"><g transform="translate(858.65 148.24) scale(.08 -.08)"><use xlink:href="#DejaVuSans-31"/><use transform="translate(63.623)" xlink:href="#DejaVuSans-33"/><use transform="translate(127.25)" xlink:href="#DejaVuSans-2e"/><use transform="translate(159.03)" xlink:href="#DejaVuSans-38"/></g></g><g clip-path="url(#91b4d634d8a)"><g transform="translate(863.63 136.06) scale(.13 -.13)"><use xlink:href="#DejaVuSans-50"/></g></g><g clip-path="url(#91b4d634d8a)"><g transform="translate(997.71 148.24) scale(.08 -.08)"><use xlink:href="#DejaVuSans-31"/><use transform="translate(63.623)" xlink:href="#DejaVuSans-32"/><use transform="translate(127.25)" xlink:href="#DejaVuSans-2e"/><use transform="translate(159.03)" xlink:href="#DejaVuSans-38"/></g></g><g clip-path="url(#91b4d634d8a)"><g transform="translate(1002.7 136.06) scale(.13 -.13)"><use xlink:href="#DejaVuSans-50"/></g></g><defs><clipPath id="91b4d634d8a"><rect x="7.2" y="7.2" width="1076.4" height="157.6"/></clipPath></defs></svg>