<?xml version="1.0" encoding="utf-8" standalone="no"?>
<!DOCTYPE svg PUBLIC "-//W3C//DTD SVG 1.1//EN"
  "http://www.w3.org/Graphics/SVG/1.1/DTD/svg11.dtd">
<svg xmlns:xlink="http://www.w3.org/1999/xlink" width="628.252008pt" height="144.479998pt" viewBox="0 0 628.252008 144.479998" xmlns="http://www.w3.org/2000/svg" version="1.1">
 <metadata>
  <rdf:RDF xmlns:dc="http://purl.org/dc/elements/1.1/" xmlns:cc="http://creativecommons.org/ns#" xmlns:rdf="http://www.w3.org/1999/02/22-rdf-syntax-ns#">
   <cc:Work>
    <dc:type rdf:resource="http://purl.org/dc/dcmitype/StillImage"/>
    <dc:date>2025-03-28T17:48:31.172269</dc:date>
    <dc:format>image/svg+xml</dc:format>
    <dc:creator>
     <cc:Agent>
      <dc:title>Matplotlib v3.9.4, https://matplotlib.org/</dc:title>
     </cc:Agent>
    </dc:creator>
   </cc:Work>
  </rdf:RDF>
 </metadata>
 <defs>
  <style type="text/css">*{stroke-linejoin: round; stroke-linecap: butt}</style>
 </defs>
 <g id="figure_1">
  <g id="patch_1">
   <path d="M 0 144.479998 
L 628.252008 144.479998 
L 628.252008 0 
L 0 0 
z
" style="fill: #ffffff"/>
  </g>
  <g id="axes_1">
   <g id="line2d_1">
    <path d="M 137.399383 54.420799 
L 559.220777 54.420799 
" clip-path="url(#p01d13fe98f)" style="fill: none; stroke: #000000; stroke-width: 2; stroke-linecap: square"/>
   </g>
   <g id="line2d_2">
    <path d="M 137.399383 100.774799 
L 559.220777 100.774799 
" clip-path="url(#p01d13fe98f)" style="fill: none; stroke: #000000; stroke-width: 2; stroke-linecap: square"/>
   </g>
   <g id="patch_2">
    <path d="M 132.763983 31.2438 
L -1026.086002 31.2438 
L -1026.086002 170.305798 
L 132.763983 170.305798 
z
" clip-path="url(#p01d13fe98f)" style="fill: #ffffff; stroke: #ffffff; stroke-width: 1.5; stroke-linejoin: miter"/>
   </g>
   <g id="line2d_3">
    <path d="M 208.784542 100.774799 
L 208.784542 54.420799 
" clip-path="url(#p01d13fe98f)" style="fill: none; stroke: #002d9c; stroke-width: 2; stroke-linecap: square"/>
   </g>
   <g id="line2d_4">
    <path d="M 347.84654 100.774799 
L 347.84654 54.420799 
" clip-path="url(#p01d13fe98f)" style="fill: none; stroke: #002d9c; stroke-width: 2; stroke-linecap: square"/>
   </g>
   <g id="line2d_5">
    <path d="M 486.908538 100.774799 
L 486.908538 54.420799 
" clip-path="url(#p01d13fe98f)" style="fill: none; stroke: #002d9c; stroke-width: 2; stroke-linecap: square"/>
   </g>
   <g id="patch_3">
    <path d="M 147.365492 115.839848 
L 177.495592 115.839848 
L 177.495592 85.709749 
L 147.365492 85.709749 
z
" clip-path="url(#p01d13fe98f)" style="fill: #33b1ff; stroke: #33b1ff; stroke-width: 1.5; stroke-linejoin: miter"/>
   </g>
   <g id="patch_4">
    <path d="M 208.784542 105.294314 
C 209.983131 105.294314 211.132791 104.818109 211.980321 103.970578 
C 212.827852 103.123048 213.304057 101.973388 213.304057 100.774799 
C 213.304057 99.576209 212.827852 98.42655 211.980321 97.579019 
C 211.132791 96.731488 209.983131 96.255284 208.784542 96.255284 
C 207.585952 96.255284 206.436293 96.731488 205.588762 97.579019 
C 204.741231 98.42655 204.265027 99.576209 204.265027 100.774799 
C 204.265027 101.973388 204.741231 103.123048 205.588762 103.970578 
C 206.436293 104.818109 207.585952 105.294314 208.784542 105.294314 
z
" clip-path="url(#p01d13fe98f)" style="fill: #002d9c; stroke: #002d9c; stroke-width: 1.5; stroke-linejoin: miter"/>
   </g>
   <g id="patch_5">
    <path d="M 208.784542 64.966334 
C 211.58125 64.966334 214.263789 63.85519 216.241361 61.877618 
C 218.218932 59.900047 219.330076 57.217508 219.330076 54.420799 
C 219.330076 51.624091 218.218932 48.941552 216.241361 46.96398 
C 214.263789 44.986408 211.58125 43.875264 208.784542 43.875264 
C 205.987833 43.875264 203.305294 44.986408 201.327722 46.96398 
C 199.350151 48.941552 198.239007 51.624091 198.239007 54.420799 
C 198.239007 57.217508 199.350151 59.900047 201.327722 61.877618 
C 203.305294 63.85519 205.987833 64.966334 208.784542 64.966334 
z
" clip-path="url(#p01d13fe98f)" style="fill: #002d9c; stroke: #002d9c; stroke-width: 2; stroke-linejoin: miter"/>
   </g>
   <g id="patch_6">
    <path d="M 251.757017 69.485849 
L 304.874065 69.485849 
L 304.874065 39.355749 
L 251.757017 39.355749 
z
" clip-path="url(#p01d13fe98f)" style="fill: #33b1ff; stroke: #33b1ff; stroke-width: 1.5; stroke-linejoin: miter"/>
   </g>
   <g id="patch_7">
    <path d="M 251.805688 115.839848 
L 304.825393 115.839848 
L 304.825393 85.709749 
L 251.805688 85.709749 
z
" clip-path="url(#p01d13fe98f)" style="fill: #9f1853; stroke: #9f1853; stroke-width: 1.5; stroke-linejoin: miter"/>
   </g>
   <g id="patch_8">
    <path d="M 347.84654 58.940314 
C 349.045129 58.940314 350.194789 58.46411 351.042319 57.616579 
C 351.88985 56.769048 352.366055 55.619389 352.366055 54.420799 
C 352.366055 53.22221 351.88985 52.07255 351.042319 51.22502 
C 350.194789 50.377489 349.045129 49.901284 347.84654 49.901284 
C 346.64795 49.901284 345.498291 50.377489 344.65076 51.22502 
C 343.803229 52.07255 343.327025 53.22221 343.327025 54.420799 
C 343.327025 55.619389 343.803229 56.769048 344.65076 57.616579 
C 345.498291 58.46411 346.64795 58.940314 347.84654 58.940314 
z
" clip-path="url(#p01d13fe98f)" style="fill: #002d9c; stroke: #002d9c; stroke-width: 1.5; stroke-linejoin: miter"/>
   </g>
   <g id="patch_9">
    <path d="M 347.84654 111.320334 
C 350.643248 111.320334 353.325787 110.209189 355.303359 108.231618 
C 357.280931 106.254046 358.392075 103.571507 358.392075 100.774799 
C 358.392075 97.97809 357.280931 95.295551 355.303359 93.317979 
C 353.325787 91.340408 350.643248 90.229264 347.84654 90.229264 
C 345.049831 90.229264 342.367292 91.340408 340.389721 93.317979 
C 338.412149 95.295551 337.301005 97.97809 337.301005 100.774799 
C 337.301005 103.571507 338.412149 106.254046 340.389721 108.231618 
C 342.367292 110.209189 345.049831 111.320334 347.84654 111.320334 
z
" clip-path="url(#p01d13fe98f)" style="fill: #002d9c; stroke: #002d9c; stroke-width: 2; stroke-linejoin: miter"/>
   </g>
   <g id="patch_10">
    <path d="M 390.867687 115.839848 
L 443.887391 115.839848 
L 443.887391 85.709749 
L 390.867687 85.709749 
z
" clip-path="url(#p01d13fe98f)" style="fill: #9f1853; stroke: #9f1853; stroke-width: 1.5; stroke-linejoin: miter"/>
   </g>
   <g id="patch_11">
    <path d="M 486.908538 105.294314 
C 488.107127 105.294314 489.256787 104.818109 490.104318 103.970578 
C 490.951848 103.123048 491.428053 101.973388 491.428053 100.774799 
C 491.428053 99.576209 490.951848 98.42655 490.104318 97.579019 
C 489.256787 96.731488 488.107127 96.255284 486.908538 96.255284 
C 485.709949 96.255284 484.560289 96.731488 483.712758 97.579019 
C 482.865228 98.42655 482.389023 99.576209 482.389023 100.774799 
C 482.389023 101.973388 482.865228 103.123048 483.712758 103.970578 
C 484.560289 104.818109 485.709949 105.294314 486.908538 105.294314 
z
" clip-path="url(#p01d13fe98f)" style="fill: #002d9c; stroke: #002d9c; stroke-width: 1.5; stroke-linejoin: miter"/>
   </g>
   <g id="patch_12">
    <path d="M 486.908538 64.966334 
C 489.705246 64.966334 492.387786 63.85519 494.365357 61.877618 
C 496.342929 59.900047 497.454073 57.217508 497.454073 54.420799 
C 497.454073 51.624091 496.342929 48.941552 494.365357 46.96398 
C 492.387786 44.986408 489.705246 43.875264 486.908538 43.875264 
C 484.111829 43.875264 481.42929 44.986408 479.451719 46.96398 
C 477.474147 48.941552 476.363003 51.624091 476.363003 54.420799 
C 476.363003 57.217508 477.474147 59.900047 479.451719 61.877618 
C 481.42929 63.85519 484.111829 64.966334 486.908538 64.966334 
z
" clip-path="url(#p01d13fe98f)" style="fill: #002d9c; stroke: #002d9c; stroke-width: 2; stroke-linejoin: miter"/>
   </g>
   <g id="patch_13">
    <path d="M 518.197487 69.485849 
L 548.327587 69.485849 
L 548.327587 39.355749 
L 518.197487 39.355749 
z
" clip-path="url(#p01d13fe98f)" style="fill: #33b1ff; stroke: #33b1ff; stroke-width: 1.5; stroke-linejoin: miter"/>
   </g>
   <g id="line2d_6">
    <path d="M 208.784542 60.446819 
L 208.784542 48.394779 
" clip-path="url(#p01d13fe98f)" style="fill: none; stroke: #ffffff; stroke-width: 2; stroke-linecap: square"/>
   </g>
   <g id="line2d_7">
    <path d="M 202.758522 54.420799 
L 214.810562 54.420799 
" clip-path="url(#p01d13fe98f)" style="fill: none; stroke: #ffffff; stroke-width: 2; stroke-linecap: square"/>
   </g>
   <g id="line2d_8">
    <path d="M 347.84654 106.800819 
L 347.84654 94.748779 
" clip-path="url(#p01d13fe98f)" style="fill: none; stroke: #ffffff; stroke-width: 2; stroke-linecap: square"/>
   </g>
   <g id="line2d_9">
    <path d="M 341.82052 100.774799 
L 353.87256 100.774799 
" clip-path="url(#p01d13fe98f)" style="fill: none; stroke: #ffffff; stroke-width: 2; stroke-linecap: square"/>
   </g>
   <g id="line2d_10">
    <path d="M 486.908538 60.446819 
L 486.908538 48.394779 
" clip-path="url(#p01d13fe98f)" style="fill: none; stroke: #ffffff; stroke-width: 2; stroke-linecap: square"/>
   </g>
   <g id="line2d_11">
    <path d="M 480.882518 54.420799 
L 492.934558 54.420799 
" clip-path="url(#p01d13fe98f)" style="fill: none; stroke: #ffffff; stroke-width: 2; stroke-linecap: square"/>
   </g>
   <g id="text_1">
    <g clip-path="url(#p01d13fe98f)">
     <!-- ${q}_{0}$ -->
     <g transform="translate(110.091083 58.871776) scale(0.1625 -0.1625)">
      <defs>
       <path id="DejaVuSans-Oblique-71" d="M 2669 525 
Q 2438 222 2123 65 
Q 1809 -91 1428 -91 
Q 897 -91 595 267 
Q 294 625 294 1253 
Q 294 1759 480 2231 
Q 666 2703 1013 3078 
Q 1238 3322 1530 3453 
Q 1822 3584 2144 3584 
Q 2531 3584 2781 3431 
Q 3031 3278 3144 2969 
L 3244 3494 
L 3822 3494 
L 2888 -1319 
L 2309 -1319 
L 2669 525 
z
M 891 1338 
Q 891 875 1084 633 
Q 1278 391 1644 391 
Q 2188 391 2572 911 
Q 2956 1431 2956 2175 
Q 2956 2625 2757 2864 
Q 2559 3103 2188 3103 
Q 1916 3103 1684 2976 
Q 1453 2850 1281 2606 
Q 1100 2350 995 2006 
Q 891 1663 891 1338 
z
" transform="scale(0.015625)"/>
       <path id="DejaVuSans-30" d="M 2034 4250 
Q 1547 4250 1301 3770 
Q 1056 3291 1056 2328 
Q 1056 1369 1301 889 
Q 1547 409 2034 409 
Q 2525 409 2770 889 
Q 3016 1369 3016 2328 
Q 3016 3291 2770 3770 
Q 2525 4250 2034 4250 
z
M 2034 4750 
Q 2819 4750 3233 4129 
Q 3647 3509 3647 2328 
Q 3647 1150 3233 529 
Q 2819 -91 2034 -91 
Q 1250 -91 836 529 
Q 422 1150 422 2328 
Q 422 3509 836 4129 
Q 1250 4750 2034 4750 
z
" transform="scale(0.015625)"/>
      </defs>
      <use xlink:href="#DejaVuSans-Oblique-71"/>
      <use xlink:href="#DejaVuSans-30" transform="translate(63.476562 -16.40625) scale(0.7)"/>
     </g>
    </g>
   </g>
   <g id="text_2">
    <g clip-path="url(#p01d13fe98f)">
     <!-- ${q}_{1}$ -->
     <g transform="translate(110.091083 105.225775) scale(0.1625 -0.1625)">
      <defs>
       <path id="DejaVuSans-31" d="M 794 531 
L 1825 531 
L 1825 4091 
L 703 3866 
L 703 4441 
L 1819 4666 
L 2450 4666 
L 2450 531 
L 3481 531 
L 3481 0 
L 794 0 
L 794 531 
z
" transform="scale(0.015625)"/>
      </defs>
      <use xlink:href="#DejaVuSans-Oblique-71"/>
      <use xlink:href="#DejaVuSans-31" transform="translate(63.476562 -16.40625) scale(0.7)"/>
     </g>
    </g>
   </g>
   <g id="text_3">
    <g clip-path="url(#p01d13fe98f)">
     <!-- $\mathrm{S^\dagger}$ -->
     <g transform="translate(153.980542 104.361986) scale(0.13 -0.13)">
      <defs>
       <path id="DejaVuSans-53" d="M 3425 4513 
L 3425 3897 
Q 3066 4069 2747 4153 
Q 2428 4238 2131 4238 
Q 1616 4238 1336 4038 
Q 1056 3838 1056 3469 
Q 1056 3159 1242 3001 
Q 1428 2844 1947 2747 
L 2328 2669 
Q 3034 2534 3370 2195 
Q 3706 1856 3706 1288 
Q 3706 609 3251 259 
Q 2797 -91 1919 -91 
Q 1588 -91 1214 -16 
Q 841 59 441 206 
L 441 856 
Q 825 641 1194 531 
Q 1563 422 1919 422 
Q 2459 422 2753 634 
Q 3047 847 3047 1241 
Q 3047 1584 2836 1778 
Q 2625 1972 2144 2069 
L 1759 2144 
Q 1053 2284 737 2584 
Q 422 2884 422 3419 
Q 422 4038 858 4394 
Q 1294 4750 2059 4750 
Q 2388 4750 2728 4690 
Q 3069 4631 3425 4513 
z
" transform="scale(0.015625)"/>
       <path id="DejaVuSans-2020" d="M 1325 4666 
L 1875 4666 
L 1875 3353 
L 3022 3353 
L 3022 2875 
L 1875 2875 
L 1875 -616 
L 1325 -616 
L 1325 2875 
L 178 2875 
L 178 3353 
L 1325 3353 
L 1325 4666 
z
" transform="scale(0.015625)"/>
      </defs>
      <use xlink:href="#DejaVuSans-53" transform="translate(0 0.684375)"/>
      <use xlink:href="#DejaVuSans-2020" transform="translate(78.071289 38.965625) scale(0.7)"/>
     </g>
    </g>
   </g>
   <g id="text_4">
    <g clip-path="url(#p01d13fe98f)">
     <!-- $\pi$/2 $-$ 2*x[2] -->
     <g transform="translate(253.675541 65.667329) scale(0.08 -0.08)">
      <defs>
       <path id="DejaVuSans-Oblique-3c0" d="M 584 3500 
L 3938 3500 
L 3825 2925 
L 3384 2925 
L 2966 775 
Q 2922 550 2981 450 
Q 3038 353 3209 353 
Q 3256 353 3325 363 
Q 3397 369 3419 372 
L 3338 -44 
Q 3222 -84 3103 -103 
Q 2981 -122 2866 -122 
Q 2491 -122 2388 81 
Q 2284 288 2391 838 
L 2797 2925 
L 1506 2925 
L 938 0 
L 350 0 
L 919 2925 
L 472 2925 
L 584 3500 
z
" transform="scale(0.015625)"/>
       <path id="DejaVuSans-2f" d="M 1625 4666 
L 2156 4666 
L 531 -594 
L 0 -594 
L 1625 4666 
z
" transform="scale(0.015625)"/>
       <path id="DejaVuSans-32" d="M 1228 531 
L 3431 531 
L 3431 0 
L 469 0 
L 469 531 
Q 828 903 1448 1529 
Q 2069 2156 2228 2338 
Q 2531 2678 2651 2914 
Q 2772 3150 2772 3378 
Q 2772 3750 2511 3984 
Q 2250 4219 1831 4219 
Q 1534 4219 1204 4116 
Q 875 4013 500 3803 
L 500 4441 
Q 881 4594 1212 4672 
Q 1544 4750 1819 4750 
Q 2544 4750 2975 4387 
Q 3406 4025 3406 3419 
Q 3406 3131 3298 2873 
Q 3191 2616 2906 2266 
Q 2828 2175 2409 1742 
Q 1991 1309 1228 531 
z
" transform="scale(0.015625)"/>
       <path id="DejaVuSans-20" transform="scale(0.015625)"/>
       <path id="DejaVuSans-2212" d="M 678 2272 
L 4684 2272 
L 4684 1741 
L 678 1741 
L 678 2272 
z
" transform="scale(0.015625)"/>
       <path id="DejaVuSans-2a" d="M 3009 3897 
L 1888 3291 
L 3009 2681 
L 2828 2375 
L 1778 3009 
L 1778 1831 
L 1422 1831 
L 1422 3009 
L 372 2375 
L 191 2681 
L 1313 3291 
L 191 3897 
L 372 4206 
L 1422 3572 
L 1422 4750 
L 1778 4750 
L 1778 3572 
L 2828 4206 
L 3009 3897 
z
" transform="scale(0.015625)"/>
       <path id="DejaVuSans-78" d="M 3513 3500 
L 2247 1797 
L 3578 0 
L 2900 0 
L 1881 1375 
L 863 0 
L 184 0 
L 1544 1831 
L 300 3500 
L 978 3500 
L 1906 2253 
L 2834 3500 
L 3513 3500 
z
" transform="scale(0.015625)"/>
       <path id="DejaVuSans-5b" d="M 550 4863 
L 1875 4863 
L 1875 4416 
L 1125 4416 
L 1125 -397 
L 1875 -397 
L 1875 -844 
L 550 -844 
L 550 4863 
z
" transform="scale(0.015625)"/>
       <path id="DejaVuSans-5d" d="M 1947 4863 
L 1947 -844 
L 622 -844 
L 622 -397 
L 1369 -397 
L 1369 4416 
L 622 4416 
L 622 4863 
L 1947 4863 
z
" transform="scale(0.015625)"/>
      </defs>
      <use xlink:href="#DejaVuSans-Oblique-3c0" transform="translate(0 0.015625)"/>
      <use xlink:href="#DejaVuSans-2f" transform="translate(60.205078 0.015625)"/>
      <use xlink:href="#DejaVuSans-32" transform="translate(90.271484 0.015625)"/>
      <use xlink:href="#DejaVuSans-20" transform="translate(153.894531 0.015625)"/>
      <use xlink:href="#DejaVuSans-2212" transform="translate(185.681641 0.015625)"/>
      <use xlink:href="#DejaVuSans-20" transform="translate(269.470703 0.015625)"/>
      <use xlink:href="#DejaVuSans-32" transform="translate(301.257812 0.015625)"/>
      <use xlink:href="#DejaVuSans-2a" transform="translate(364.880859 0.015625)"/>
      <use xlink:href="#DejaVuSans-78" transform="translate(414.880859 0.015625)"/>
      <use xlink:href="#DejaVuSans-5b" transform="translate(474.060547 0.015625)"/>
      <use xlink:href="#DejaVuSans-32" transform="translate(513.074219 0.015625)"/>
      <use xlink:href="#DejaVuSans-5d" transform="translate(576.697266 0.015625)"/>
     </g>
    </g>
   </g>
   <g id="text_5">
    <g clip-path="url(#p01d13fe98f)">
     <!-- $\mathrm{R_Z}$ -->
     <g transform="translate(270.385541 53.488472) scale(0.13 -0.13)">
      <defs>
       <path id="DejaVuSans-52" d="M 2841 2188 
Q 3044 2119 3236 1894 
Q 3428 1669 3622 1275 
L 4263 0 
L 3584 0 
L 2988 1197 
Q 2756 1666 2539 1819 
Q 2322 1972 1947 1972 
L 1259 1972 
L 1259 0 
L 628 0 
L 628 4666 
L 2053 4666 
Q 2853 4666 3247 4331 
Q 3641 3997 3641 3322 
Q 3641 2881 3436 2590 
Q 3231 2300 2841 2188 
z
M 1259 4147 
L 1259 2491 
L 2053 2491 
Q 2509 2491 2742 2702 
Q 2975 2913 2975 3322 
Q 2975 3731 2742 3939 
Q 2509 4147 2053 4147 
L 1259 4147 
z
" transform="scale(0.015625)"/>
       <path id="DejaVuSans-5a" d="M 359 4666 
L 4025 4666 
L 4025 4184 
L 1075 531 
L 4097 531 
L 4097 0 
L 288 0 
L 288 481 
L 3238 4134 
L 359 4134 
L 359 4666 
z
" transform="scale(0.015625)"/>
      </defs>
      <use xlink:href="#DejaVuSans-52" transform="translate(0 0.09375)"/>
      <use xlink:href="#DejaVuSans-5a" transform="translate(70.439453 -16.3125) scale(0.7)"/>
     </g>
    </g>
   </g>
   <g id="text_6">
    <g clip-path="url(#p01d13fe98f)">
     <!-- 2*x[0] $-$ $\pi$/2 -->
     <g style="fill: #ffffff" transform="translate(253.675541 112.021329) scale(0.08 -0.08)">
      <use xlink:href="#DejaVuSans-32" transform="translate(0 0.015625)"/>
      <use xlink:href="#DejaVuSans-2a" transform="translate(63.623047 0.015625)"/>
      <use xlink:href="#DejaVuSans-78" transform="translate(113.623047 0.015625)"/>
      <use xlink:href="#DejaVuSans-5b" transform="translate(172.802734 0.015625)"/>
      <use xlink:href="#DejaVuSans-30" transform="translate(211.816406 0.015625)"/>
      <use xlink:href="#DejaVuSans-5d" transform="translate(275.439453 0.015625)"/>
      <use xlink:href="#DejaVuSans-20" transform="translate(314.453125 0.015625)"/>
      <use xlink:href="#DejaVuSans-2212" transform="translate(346.240234 0.015625)"/>
      <use xlink:href="#DejaVuSans-20" transform="translate(430.029297 0.015625)"/>
      <use xlink:href="#DejaVuSans-Oblique-3c0" transform="translate(461.816406 0.015625)"/>
      <use xlink:href="#DejaVuSans-2f" transform="translate(522.021484 0.015625)"/>
      <use xlink:href="#DejaVuSans-32" transform="translate(552.087891 0.015625)"/>
     </g>
    </g>
   </g>
   <g id="text_7">
    <g clip-path="url(#p01d13fe98f)">
     <!-- $\mathrm{R_Y}$ -->
     <g style="fill: #ffffff" transform="translate(270.775541 99.842471) scale(0.13 -0.13)">
      <defs>
       <path id="DejaVuSans-59" d="M -13 4666 
L 666 4666 
L 1959 2747 
L 3244 4666 
L 3922 4666 
L 2272 2222 
L 2272 0 
L 1638 0 
L 1638 2222 
L -13 4666 
z
" transform="scale(0.015625)"/>
      </defs>
      <use xlink:href="#DejaVuSans-52" transform="translate(0 0.09375)"/>
      <use xlink:href="#DejaVuSans-59" transform="translate(70.439453 -16.3125) scale(0.7)"/>
     </g>
    </g>
   </g>
   <g id="text_8">
    <g clip-path="url(#p01d13fe98f)">
     <!-- $\pi$/2 $-$ 2*x[1] -->
     <g style="fill: #ffffff" transform="translate(392.737539 112.021329) scale(0.08 -0.08)">
      <use xlink:href="#DejaVuSans-Oblique-3c0" transform="translate(0 0.015625)"/>
      <use xlink:href="#DejaVuSans-2f" transform="translate(60.205078 0.015625)"/>
      <use xlink:href="#DejaVuSans-32" transform="translate(90.271484 0.015625)"/>
      <use xlink:href="#DejaVuSans-20" transform="translate(153.894531 0.015625)"/>
      <use xlink:href="#DejaVuSans-2212" transform="translate(185.681641 0.015625)"/>
      <use xlink:href="#DejaVuSans-20" transform="translate(269.470703 0.015625)"/>
      <use xlink:href="#DejaVuSans-32" transform="translate(301.257812 0.015625)"/>
      <use xlink:href="#DejaVuSans-2a" transform="translate(364.880859 0.015625)"/>
      <use xlink:href="#DejaVuSans-78" transform="translate(414.880859 0.015625)"/>
      <use xlink:href="#DejaVuSans-5b" transform="translate(474.060547 0.015625)"/>
      <use xlink:href="#DejaVuSans-31" transform="translate(513.074219 0.015625)"/>
      <use xlink:href="#DejaVuSans-5d" transform="translate(576.697266 0.015625)"/>
     </g>
    </g>
   </g>
   <g id="text_9">
    <g clip-path="url(#p01d13fe98f)">
     <!-- $\mathrm{R_Y}$ -->
     <g style="fill: #ffffff" transform="translate(409.837539 99.842471) scale(0.13 -0.13)">
      <use xlink:href="#DejaVuSans-52" transform="translate(0 0.09375)"/>
      <use xlink:href="#DejaVuSans-59" transform="translate(70.439453 -16.3125) scale(0.7)"/>
     </g>
    </g>
   </g>
   <g id="text_10">
    <g clip-path="url(#p01d13fe98f)">
     <!-- S -->
     <g transform="translate(529.136053 58.007987) scale(0.13 -0.13)">
      <use xlink:href="#DejaVuSans-53"/>
     </g>
    </g>
   </g>
  </g>
 </g>
 <defs>
  <clipPath id="p01d13fe98f">
   <rect x="80.102131" y="17.3376" width="483.754046" height="111.249599"/>
  </clipPath>
 </defs>
</svg>
