<svg width="789" height="341" viewBox="0 0 789 341" fill="none" xmlns="http://www.w3.org/2000/svg">
<g clip-path="url(#clip0_37_5126)">
<rect opacity="0.4" y="46.5625" width="789" height="46.1934" fill="#F2F4F8"/>
<rect opacity="0.4" y="231.336" width="789" height="46.1934" fill="#F2F4F8"/>
<rect opacity="0.4" y="138.949" width="789" height="46.1934" fill="#F2F4F8"/>
<rect x="0.5" y="0.5" width="788" height="340" fill="white" fill-opacity="0.8" stroke="#DDE1E6"/>
<path d="M198 38.5042C198 36.2185 197.285 34 195.454 34C192.328 34 189 40.5658 189 45.4958C189 46.5266 189.223 50 191.568 50C194.605 50 198 43.591 198 38.5042ZM191.233 41.6639C191.568 40.3417 192.037 38.4594 192.931 36.8683C193.667 35.5238 194.449 34.4482 195.432 34.4482C196.169 34.4482 196.66 35.0756 196.66 37.2269C196.66 38.0336 196.593 39.1541 195.945 41.6639H191.233ZM195.789 42.3361C195.231 44.5322 194.762 45.944 193.958 47.3557C193.31 48.4986 192.529 49.5518 191.591 49.5518C190.898 49.5518 190.34 49.014 190.34 46.7955C190.34 45.3389 190.697 43.8151 191.055 42.3361H195.789Z" fill="black"/>
<path d="M200.213 45.4555C200.213 45.1918 200.021 45 199.745 45C199.434 45 199.086 45.2877 199.086 45.6474C199.086 45.9111 199.278 46.1029 199.553 46.1029C199.865 46.1029 200.213 45.8152 200.213 45.4555ZM198.463 49.8551L197.815 51.5095C197.755 51.6893 197.695 51.8332 197.695 52.037C197.695 52.6244 198.151 53.0559 198.786 53.0559C199.949 53.0559 200.441 51.3776 200.441 51.2218C200.441 51.1019 200.345 51.0659 200.261 51.0659C200.117 51.0659 200.093 51.1498 200.057 51.2697C199.781 52.2288 199.29 52.7203 198.81 52.7203C198.666 52.7203 198.522 52.6603 198.522 52.3367C198.522 52.049 198.606 51.8332 198.762 51.4615C198.882 51.1379 199.002 50.8142 199.134 50.4905L199.505 49.5195C199.613 49.2438 199.757 48.8721 199.757 48.6683C199.757 48.0689 199.278 47.6494 198.666 47.6494C197.503 47.6494 197 49.3277 197 49.4835C197 49.5914 197.084 49.6394 197.18 49.6394C197.336 49.6394 197.348 49.5674 197.384 49.4476C197.719 48.3087 198.271 47.985 198.63 47.985C198.798 47.985 198.918 48.045 198.918 48.3806C198.918 48.5005 198.906 48.6683 198.786 49.028L198.463 49.8551Z" fill="black"/>
<path d="M186 52.8322C186 52.7692 186 52.7273 185.626 52.3706C183.423 50.2517 182.189 46.7902 182.189 42.5105C182.189 38.4406 183.225 34.9371 185.78 32.4615C186 32.2727 186 32.2308 186 32.1678C186 32.042 185.89 32 185.802 32C185.515 32 183.709 33.5105 182.63 35.5664C181.507 37.6853 181 39.9301 181 42.5105C181 44.3776 181.308 46.8741 182.454 49.1189C183.753 51.6364 185.559 53 185.802 53C185.89 53 186 52.958 186 52.8322Z" fill="black"/>
<path d="M208 42.5105C208 40.9161 207.78 38.3147 206.546 35.8811C205.247 33.3636 203.441 32 203.198 32C203.11 32 203 32.042 203 32.1678C203 32.2308 203 32.2727 203.374 32.6294C205.577 34.7483 206.811 38.2098 206.811 42.4895C206.811 46.5594 205.775 50.0629 203.22 52.5385C203 52.7273 203 52.7692 203 52.8322C203 52.958 203.11 53 203.198 53C203.485 53 205.291 51.4895 206.37 49.4336C207.493 47.2937 208 45.028 208 42.5105Z" fill="black"/>
<rect x="101.5" y="74.5" width="356" height="216" rx="4.5" stroke="black" stroke-dasharray="6 6"/>
<line x1="69" y1="111.5" x2="505" y2="111.5" stroke="black"/>
<line x1="69" y1="146.5" x2="505" y2="146.5" stroke="black"/>
<line x1="69" y1="181.5" x2="505" y2="181.5" stroke="black"/>
<line x1="69" y1="216.5" x2="505" y2="216.5" stroke="black"/>
<line x1="69" y1="251.5" x2="505" y2="251.5" stroke="black"/>
<path fill-rule="evenodd" clip-rule="evenodd" d="M52.3996 116.2H53.5996C54.5937 116.2 55.3996 115.394 55.3996 114.4V109.6C55.3996 108.606 54.5937 107.8 53.5996 107.8H52.3996C51.4055 107.8 50.5996 108.606 50.5996 109.6V114.4C50.5996 115.394 51.4055 116.2 52.3996 116.2ZM51.7996 109.6C51.7996 109.268 52.0682 109 52.3996 109H53.5996C53.931 109 54.1996 109.268 54.1996 109.6V114.4C54.1996 114.731 53.931 115 53.5996 115H52.3996C52.0682 115 51.7996 114.731 51.7996 114.4V109.6Z" fill="#161616"/>
<path d="M58.0545 118L57 117.46L59.6804 112L57 106.54L58.0545 106L61 112L59.5272 115L58.0545 118Z" fill="#161616"/>
<rect x="47" y="106" width="1" height="12" fill="#161616"/>
<path fill-rule="evenodd" clip-rule="evenodd" d="M52.3996 256.2H53.5996C54.5937 256.2 55.3996 255.394 55.3996 254.4V249.6C55.3996 248.606 54.5937 247.8 53.5996 247.8H52.3996C51.4055 247.8 50.5996 248.606 50.5996 249.6V254.4C50.5996 255.394 51.4055 256.2 52.3996 256.2ZM51.7996 249.6C51.7996 249.268 52.0682 249 52.3996 249H53.5996C53.931 249 54.1996 249.268 54.1996 249.6V254.4C54.1996 254.731 53.931 255 53.5996 255H52.3996C52.0682 255 51.7996 254.731 51.7996 254.4V249.6Z" fill="#161616"/>
<path d="M58.0545 258L57 257.46L59.6804 252L57 246.54L58.0545 246L61 252L59.5272 255L58.0545 258Z" fill="#161616"/>
<rect x="47" y="246" width="1" height="12" fill="#161616"/>
<rect width="134" height="185" transform="translate(116 91)" fill="#0043CE"/>
<path d="M184.708 209.156C183.613 213.531 179.982 216.094 177.04 216.094C174.787 216.094 173.253 214.594 173.253 212C173.253 211.875 173.253 210.938 173.598 209.563L176.665 197.281C176.946 196.219 177.009 195.906 179.231 195.906C179.794 195.906 180.107 195.906 180.107 195.344C180.107 195 179.826 195 179.638 195C179.075 195 178.417 195.063 177.823 195.063H174.13C173.535 195.063 172.878 195 172.283 195C172.064 195 171.689 195 171.689 195.594C171.689 195.906 171.908 195.906 172.502 195.906C174.38 195.906 174.38 196.156 174.38 196.5C174.38 196.687 174.161 197.594 174.004 198.125L171.282 209.062C171.188 209.406 171 210.25 171 211.094C171 214.531 173.472 217 176.884 217C180.045 217 183.55 214.5 185.146 210.531C185.365 210 185.647 208.906 185.835 208.062C186.148 206.937 186.805 204.188 187.024 203.375L188.213 198.687C188.62 197.062 188.87 196.031 191.624 195.906C191.875 195.875 192 195.625 192 195.344C192 195 191.718 195 191.593 195C191.155 195 190.592 195.063 190.153 195.063H188.683C186.742 195.063 185.741 195 185.709 195C185.522 195 185.146 195 185.146 195.594C185.146 195.906 185.396 195.906 185.615 195.906C187.493 195.969 187.618 196.687 187.618 197.25C187.618 197.531 187.618 197.625 187.493 198.063L184.708 209.156Z" fill="white"/>
<path d="M151.625 146.8H153.907L156.021 151H157.351L155.111 146.688C156.385 146.394 157.071 145.428 157.071 144C157.071 142.222 156.049 141.228 154.341 141.228H150.449V151H151.625V146.8ZM151.625 145.792V142.264H154.341C155.265 142.264 155.811 142.768 155.811 143.664V144.392C155.811 145.288 155.265 145.792 154.341 145.792H151.625ZM161.963 151.168C163.321 151.168 164.357 150.496 164.819 149.516L164.021 148.942C163.643 149.74 162.943 150.188 162.033 150.188C160.689 150.188 159.891 149.25 159.891 148.004V147.668H165.085V147.136C165.085 145.092 163.895 143.608 161.963 143.608C160.003 143.608 158.715 145.092 158.715 147.388C158.715 149.684 160.003 151.168 161.963 151.168ZM161.963 144.546C163.111 144.546 163.881 145.4 163.881 146.674V146.828H159.891V146.73C159.891 145.47 160.745 144.546 161.963 144.546ZM167.483 151H168.603V144.756H170.157V143.776H168.603V141.62H170.157V140.64H169.065C168.001 140.64 167.483 141.326 167.483 142.32V143.776H166.307V144.756H167.483V151ZM174.451 151.168C175.809 151.168 176.845 150.496 177.307 149.516L176.509 148.942C176.131 149.74 175.431 150.188 174.521 150.188C173.177 150.188 172.379 149.25 172.379 148.004V147.668H177.573V147.136C177.573 145.092 176.383 143.608 174.451 143.608C172.491 143.608 171.203 145.092 171.203 147.388C171.203 149.684 172.491 151.168 174.451 151.168ZM174.451 144.546C175.599 144.546 176.369 145.4 176.369 146.674V146.828H172.379V146.73C172.379 145.47 173.233 144.546 174.451 144.546ZM180.699 151V146.1C180.699 145.414 181.427 144.896 182.631 144.896H183.289V143.776H182.855C181.679 143.776 181.021 144.42 180.769 145.106H180.699V143.776H179.579V151H180.699ZM187.527 151.168C188.885 151.168 189.921 150.496 190.383 149.516L189.585 148.942C189.207 149.74 188.507 150.188 187.597 150.188C186.253 150.188 185.455 149.25 185.455 148.004V147.668H190.649V147.136C190.649 145.092 189.459 143.608 187.527 143.608C185.567 143.608 184.279 145.092 184.279 147.388C184.279 149.684 185.567 151.168 187.527 151.168ZM187.527 144.546C188.675 144.546 189.445 145.4 189.445 146.674V146.828H185.455V146.73C185.455 145.47 186.309 144.546 187.527 144.546ZM193.775 151V145.988C193.775 145.064 194.643 144.616 195.539 144.616C196.617 144.616 197.177 145.274 197.177 146.562V151H198.297V146.366C198.297 144.616 197.359 143.608 195.875 143.608C194.797 143.608 194.181 144.14 193.831 144.952H193.775V143.776H192.655V151H193.775ZM203.46 151.168C204.832 151.168 205.77 150.496 206.232 149.46L205.42 148.914C205.028 149.74 204.37 150.174 203.46 150.174C202.13 150.174 201.444 149.264 201.444 148.004V146.772C201.444 145.512 202.13 144.602 203.46 144.602C204.342 144.602 204.958 145.036 205.224 145.778L206.162 145.302C205.742 144.308 204.888 143.608 203.46 143.608C201.43 143.608 200.24 145.078 200.24 147.388C200.24 149.698 201.43 151.168 203.46 151.168ZM210.607 151.168C211.965 151.168 213.001 150.496 213.463 149.516L212.665 148.942C212.287 149.74 211.587 150.188 210.677 150.188C209.333 150.188 208.535 149.25 208.535 148.004V147.668H213.729V147.136C213.729 145.092 212.539 143.608 210.607 143.608C208.647 143.608 207.359 145.092 207.359 147.388C207.359 149.684 208.647 151.168 210.607 151.168ZM210.607 144.546C211.755 144.546 212.525 145.4 212.525 146.674V146.828H208.535V146.73C208.535 145.47 209.389 144.546 210.607 144.546ZM148.442 171V166.828H151.158C152.908 166.828 153.888 165.75 153.888 164.028C153.888 162.306 152.908 161.228 151.158 161.228H147.266V171H148.442ZM148.442 162.264H151.158C152.082 162.264 152.628 162.768 152.628 163.664V164.392C152.628 165.288 152.082 165.792 151.158 165.792H148.442V162.264ZM156.787 171V166.1C156.787 165.414 157.515 164.896 158.719 164.896H159.377V163.776H158.943C157.767 163.776 157.109 164.42 156.857 165.106H156.787V163.776H155.667V171H156.787ZM163.615 171.168C164.973 171.168 166.009 170.496 166.471 169.516L165.673 168.942C165.295 169.74 164.595 170.188 163.685 170.188C162.341 170.188 161.543 169.25 161.543 168.004V167.668H166.737V167.136C166.737 165.092 165.547 163.608 163.615 163.608C161.655 163.608 160.367 165.092 160.367 167.388C160.367 169.684 161.655 171.168 163.615 171.168ZM163.615 164.546C164.763 164.546 165.533 165.4 165.533 166.674V166.828H161.543V166.73C161.543 165.47 162.397 164.546 163.615 164.546ZM168.743 173.8H169.863V169.824H169.919C170.353 170.72 171.039 171.168 172.033 171.168C173.839 171.168 174.973 169.698 174.973 167.388C174.973 165.078 173.839 163.608 172.033 163.608C171.039 163.608 170.297 164.042 169.919 164.952H169.863V163.776H168.743V173.8ZM171.725 170.16C170.703 170.16 169.863 169.628 169.863 168.69V166.002C169.863 165.204 170.703 164.616 171.725 164.616C172.985 164.616 173.769 165.484 173.769 166.772V168.004C173.769 169.292 172.985 170.16 171.725 170.16ZM182.904 171V170.02H182.078V166.044C182.078 164.518 181.042 163.608 179.306 163.608C178.004 163.608 177.136 164.252 176.744 165.022L177.416 165.652C177.808 164.994 178.382 164.574 179.25 164.574C180.398 164.574 180.958 165.134 180.958 166.156V166.87H179.53C177.43 166.87 176.45 167.626 176.45 168.984C176.45 170.328 177.346 171.168 178.872 171.168C179.88 171.168 180.65 170.706 180.958 169.824H181.028C181.112 170.496 181.448 171 182.274 171H182.904ZM179.054 170.216C178.186 170.216 177.626 169.81 177.626 169.096V168.802C177.626 168.102 178.2 167.71 179.474 167.71H180.958V168.9C180.958 169.642 180.16 170.216 179.054 170.216ZM185.783 171V166.1C185.783 165.414 186.511 164.896 187.715 164.896H188.373V163.776H187.939C186.763 163.776 186.105 164.42 185.853 165.106H185.783V163.776H184.663V171H185.783ZM195.789 171V170.02H194.963V166.044C194.963 164.518 193.927 163.608 192.191 163.608C190.889 163.608 190.021 164.252 189.629 165.022L190.301 165.652C190.693 164.994 191.267 164.574 192.135 164.574C193.283 164.574 193.843 165.134 193.843 166.156V166.87H192.415C190.315 166.87 189.335 167.626 189.335 168.984C189.335 170.328 190.231 171.168 191.757 171.168C192.765 171.168 193.535 170.706 193.843 169.824H193.913C193.997 170.496 194.333 171 195.159 171H195.789ZM191.939 170.216C191.071 170.216 190.511 169.81 190.511 169.096V168.802C190.511 168.102 191.085 167.71 192.359 167.71H193.843V168.9C193.843 169.642 193.045 170.216 191.939 170.216ZM200.543 171V170.02H199.073V164.756H200.655V163.776H199.073V161.774H198.065V163.118C198.065 163.608 197.911 163.776 197.435 163.776H196.763V164.756H197.953V169.81C197.953 170.51 198.373 171 199.143 171H200.543ZM203.175 162.082C203.651 162.082 203.861 161.83 203.861 161.452V161.27C203.861 160.892 203.651 160.64 203.175 160.64C202.699 160.64 202.489 160.892 202.489 161.27V161.452C202.489 161.83 202.699 162.082 203.175 162.082ZM202.615 171H203.735V163.776H202.615V171ZM209.005 171.168C210.937 171.168 212.267 169.684 212.267 167.388C212.267 165.092 210.937 163.608 209.005 163.608C207.073 163.608 205.743 165.092 205.743 167.388C205.743 169.684 207.073 171.168 209.005 171.168ZM209.005 170.174C207.801 170.174 206.947 169.432 206.947 167.906V166.87C206.947 165.344 207.801 164.602 209.005 164.602C210.209 164.602 211.063 165.344 211.063 166.87V167.906C211.063 169.432 210.209 170.174 209.005 170.174ZM215.389 171V165.988C215.389 165.064 216.257 164.616 217.153 164.616C218.231 164.616 218.791 165.274 218.791 166.562V171H219.911V166.366C219.911 164.616 218.973 163.608 217.489 163.608C216.411 163.608 215.795 164.14 215.445 164.952H215.389V163.776H214.269V171H215.389Z" fill="white"/>
<rect width="134" height="185" transform="translate(310 91)" fill="#0043CE"/>
<rect width="134" height="185" transform="translate(310 91)" fill="#0043CE"/>
<path d="M398 202.504C398 200.218 397.285 198 395.454 198C392.328 198 389 204.566 389 209.496C389 210.527 389.223 214 391.568 214C394.605 214 398 207.591 398 202.504ZM391.233 205.664C391.568 204.342 392.037 202.459 392.931 200.868C393.667 199.524 394.449 198.448 395.432 198.448C396.169 198.448 396.66 199.076 396.66 201.227C396.66 202.034 396.593 203.154 395.945 205.664H391.233ZM395.789 206.336C395.231 208.532 394.762 209.944 393.958 211.356C393.31 212.499 392.529 213.552 391.591 213.552C390.898 213.552 390.34 213.014 390.34 210.796C390.34 209.339 390.697 207.815 391.055 206.336H395.789Z" fill="white"/>
<path d="M347.977 151L351.267 141.228H350.049L348.425 146.156L347.319 149.824H347.249L346.171 146.156L344.561 141.228H343.301L346.549 151H347.977ZM358.359 151V150.02H357.533V146.044C357.533 144.518 356.497 143.608 354.761 143.608C353.459 143.608 352.591 144.252 352.199 145.022L352.871 145.652C353.263 144.994 353.837 144.574 354.705 144.574C355.853 144.574 356.413 145.134 356.413 146.156V146.87H354.985C352.885 146.87 351.905 147.626 351.905 148.984C351.905 150.328 352.801 151.168 354.327 151.168C355.335 151.168 356.105 150.706 356.413 149.824H356.483C356.567 150.496 356.903 151 357.729 151H358.359ZM354.509 150.216C353.641 150.216 353.081 149.81 353.081 149.096V148.802C353.081 148.102 353.655 147.71 354.929 147.71H356.413V148.9C356.413 149.642 355.615 150.216 354.509 150.216ZM361.237 151V146.1C361.237 145.414 361.965 144.896 363.169 144.896H363.827V143.776H363.393C362.217 143.776 361.559 144.42 361.307 145.106H361.237V143.776H360.117V151H361.237ZM365.978 142.082C366.454 142.082 366.664 141.83 366.664 141.452V141.27C366.664 140.892 366.454 140.64 365.978 140.64C365.502 140.64 365.292 140.892 365.292 141.27V141.452C365.292 141.83 365.502 142.082 365.978 142.082ZM365.418 151H366.538V143.776H365.418V151ZM374.958 151V150.02H374.132V146.044C374.132 144.518 373.096 143.608 371.36 143.608C370.058 143.608 369.19 144.252 368.798 145.022L369.47 145.652C369.862 144.994 370.436 144.574 371.304 144.574C372.452 144.574 373.012 145.134 373.012 146.156V146.87H371.584C369.484 146.87 368.504 147.626 368.504 148.984C368.504 150.328 369.4 151.168 370.926 151.168C371.934 151.168 372.704 150.706 373.012 149.824H373.082C373.166 150.496 373.502 151 374.328 151H374.958ZM371.108 150.216C370.24 150.216 369.68 149.81 369.68 149.096V148.802C369.68 148.102 370.254 147.71 371.528 147.71H373.012V148.9C373.012 149.642 372.214 150.216 371.108 150.216ZM379.712 151V150.02H378.242V144.756H379.824V143.776H378.242V141.774H377.234V143.118C377.234 143.608 377.08 143.776 376.604 143.776H375.932V144.756H377.122V149.81C377.122 150.51 377.542 151 378.312 151H379.712ZM382.345 142.082C382.821 142.082 383.031 141.83 383.031 141.452V141.27C383.031 140.892 382.821 140.64 382.345 140.64C381.869 140.64 381.659 140.892 381.659 141.27V141.452C381.659 141.83 381.869 142.082 382.345 142.082ZM381.785 151H382.905V143.776H381.785V151ZM388.175 151.168C390.107 151.168 391.437 149.684 391.437 147.388C391.437 145.092 390.107 143.608 388.175 143.608C386.243 143.608 384.913 145.092 384.913 147.388C384.913 149.684 386.243 151.168 388.175 151.168ZM388.175 150.174C386.971 150.174 386.117 149.432 386.117 147.906V146.87C386.117 145.344 386.971 144.602 388.175 144.602C389.379 144.602 390.233 145.344 390.233 146.87V147.906C390.233 149.432 389.379 150.174 388.175 150.174ZM394.559 151V145.988C394.559 145.064 395.427 144.616 396.323 144.616C397.401 144.616 397.961 145.274 397.961 146.562V151H399.081V146.366C399.081 144.616 398.143 143.608 396.659 143.608C395.581 143.608 394.965 144.14 394.615 144.952H394.559V143.776H393.439V151H394.559ZM407.436 151V150.02H406.61V146.044C406.61 144.518 405.574 143.608 403.838 143.608C402.536 143.608 401.668 144.252 401.276 145.022L401.948 145.652C402.34 144.994 402.914 144.574 403.782 144.574C404.93 144.574 405.49 145.134 405.49 146.156V146.87H404.062C401.962 146.87 400.982 147.626 400.982 148.984C400.982 150.328 401.878 151.168 403.404 151.168C404.412 151.168 405.182 150.706 405.49 149.824H405.56C405.644 150.496 405.98 151 406.806 151H407.436ZM403.586 150.216C402.718 150.216 402.158 149.81 402.158 149.096V148.802C402.158 148.102 402.732 147.71 404.006 147.71H405.49V148.9C405.49 149.642 404.692 150.216 403.586 150.216ZM411.378 151V150.02H410.314V140.64H409.194V149.838C409.194 150.51 409.614 151 410.384 151H411.378ZM363.407 171V166.576H367.649V165.54H363.407V162.264H368.055V161.228H362.231V171H363.407ZM372.474 171.168C374.406 171.168 375.736 169.684 375.736 167.388C375.736 165.092 374.406 163.608 372.474 163.608C370.542 163.608 369.212 165.092 369.212 167.388C369.212 169.684 370.542 171.168 372.474 171.168ZM372.474 170.174C371.27 170.174 370.416 169.432 370.416 167.906V166.87C370.416 165.344 371.27 164.602 372.474 164.602C373.678 164.602 374.532 165.344 374.532 166.87V167.906C374.532 169.432 373.678 170.174 372.474 170.174ZM378.858 171V166.1C378.858 165.414 379.586 164.896 380.79 164.896H381.448V163.776H381.014C379.838 163.776 379.18 164.42 378.928 165.106H378.858V163.776H377.738V171H378.858ZM384.158 171V165.988C384.158 165.064 384.998 164.616 385.88 164.616C386.944 164.616 387.434 165.274 387.434 166.562V171H388.554V165.988C388.554 165.064 389.366 164.616 390.248 164.616C391.34 164.616 391.83 165.288 391.83 166.562V171H392.95V166.366C392.95 164.616 392.068 163.608 390.598 163.608C389.366 163.608 388.666 164.294 388.4 165.078H388.372C387.98 164.042 387.112 163.608 386.16 163.608C385.04 163.608 384.536 164.21 384.214 164.952H384.158V163.776H383.038V171H384.158Z" fill="white"/>
<line x1="53" y1="211" x2="53" y2="224" stroke="black" stroke-width="2" stroke-linecap="round" stroke-dasharray="0.1 6"/>
<line x1="53" y1="140" x2="53" y2="153" stroke="black" stroke-width="2" stroke-linecap="round" stroke-dasharray="0.1 6"/>
<path d="M48 179.846C48.0122 179.772 48.0306 179.675 48.0551 179.552C48.0795 179.43 48.153 179.197 48.2753 178.855C48.3977 178.512 48.52 178.225 48.6424 177.992C48.7648 177.76 48.9667 177.533 49.2481 177.313C49.5295 177.093 49.811 176.989 50.0924 177.001C50.5329 177.001 50.9 177.111 51.1936 177.331C51.4873 177.552 51.6708 177.76 51.7443 177.955C51.8177 178.151 51.8544 178.28 51.8544 178.341C51.8544 178.365 51.8605 178.378 51.8727 178.378L52.0746 178.176C52.821 177.393 53.6715 177.001 54.6259 177.001C55.2866 177.001 55.8189 177.166 56.2227 177.497C56.6265 177.827 56.8345 178.31 56.8467 178.947C56.859 179.583 56.6265 180.543 56.1493 181.828C55.6721 183.113 55.4396 183.89 55.4518 184.159C55.4518 184.477 55.5558 184.636 55.7638 184.636C55.8373 184.636 55.8923 184.63 55.929 184.618C56.2839 184.557 56.602 184.324 56.8834 183.921C57.1649 183.517 57.379 183.027 57.5258 182.452C57.5503 182.354 57.6727 182.305 57.8929 182.305C58.1376 182.305 58.26 182.354 58.26 182.452C58.26 182.464 58.2355 182.556 58.1866 182.727C58.0887 183.082 57.9541 183.431 57.7828 183.774C57.6115 184.116 57.3301 184.459 56.9385 184.802C56.547 185.144 56.1248 185.309 55.6721 185.297C55.097 185.297 54.6809 185.132 54.424 184.802C54.167 184.471 54.0385 184.129 54.0385 183.774C54.0385 183.541 54.2588 182.807 54.6993 181.571C55.1398 180.335 55.3662 179.405 55.3784 178.781C55.3784 178.059 55.1092 177.698 54.5708 177.698H54.479C53.4267 177.698 52.5396 178.316 51.8177 179.552L51.6892 179.772L51.0835 182.232C50.6797 183.835 50.4472 184.698 50.386 184.82C50.227 185.15 49.9639 185.315 49.5968 185.315C49.4377 185.315 49.3093 185.279 49.2114 185.205C49.1135 185.132 49.0462 185.058 49.0095 184.985C48.9728 184.912 48.9605 184.85 48.9728 184.802C48.9728 184.642 49.2053 183.645 49.6702 181.81C50.1352 179.974 50.3799 178.977 50.4044 178.818C50.4166 178.757 50.4228 178.616 50.4228 178.396C50.4228 177.919 50.2759 177.68 49.9823 177.68C49.5173 177.68 49.1318 178.292 48.8259 179.515C48.7525 179.76 48.7158 179.889 48.7158 179.901C48.6913 179.974 48.5751 180.011 48.3671 180.011H48.1101C48.0367 179.938 48 179.883 48 179.846Z" fill="black"/>
<rect x="473" y="96" width="32" height="32" fill="#121619"/>
<path d="M496 111.89L498.427 107.667L496.408 106.5L493.865 110.898C489.573 109.308 484.774 109.916 481.014 112.527C477.254 115.138 475.008 119.422 475 124H477.333C477.336 120.252 479.14 116.733 482.181 114.543C485.222 112.352 489.131 111.756 492.687 112.94L489 119.333C487.944 119.332 487.018 120.041 486.744 121.061C486.47 122.081 486.915 123.158 487.83 123.687C488.744 124.215 489.9 124.064 490.647 123.317C491.394 122.57 491.546 121.415 491.018 120.5L494.833 113.908C498.439 115.99 500.662 119.836 500.667 124H503C502.995 119.003 500.327 114.388 496 111.89Z" fill="white"/>
<rect x="473" y="131" width="32" height="32" fill="#121619"/>
<path d="M496 146.89L498.427 142.667L496.408 141.5L493.865 145.898C489.573 144.308 484.774 144.916 481.014 147.527C477.254 150.138 475.008 154.422 475 159H477.333C477.336 155.252 479.14 151.733 482.181 149.543C485.222 147.352 489.131 146.756 492.687 147.94L489 154.333C487.944 154.332 487.018 155.041 486.744 156.061C486.47 157.081 486.915 158.158 487.83 158.687C488.744 159.215 489.9 159.064 490.647 158.317C491.394 157.57 491.546 156.415 491.018 155.5L494.833 148.908C498.439 150.99 500.662 154.836 500.667 159H503C502.995 154.003 500.327 149.388 496 146.89Z" fill="white"/>
<rect x="473" y="166" width="32" height="32" fill="#121619"/>
<path d="M496 181.89L498.427 177.667L496.408 176.5L493.865 180.898C489.573 179.308 484.774 179.916 481.014 182.527C477.254 185.138 475.008 189.422 475 194H477.333C477.336 190.252 479.14 186.733 482.181 184.543C485.222 182.352 489.131 181.756 492.687 182.94L489 189.333C487.944 189.332 487.018 190.041 486.744 191.061C486.47 192.081 486.915 193.158 487.83 193.687C488.744 194.215 489.9 194.064 490.647 193.317C491.394 192.57 491.546 191.415 491.018 190.5L494.833 183.908C498.439 185.99 500.662 189.836 500.667 194H503C502.995 189.003 500.327 184.388 496 181.89Z" fill="white"/>
<rect x="473" y="201" width="32" height="32" fill="#121619"/>
<path d="M496 216.89L498.427 212.667L496.408 211.5L493.865 215.898C489.573 214.308 484.774 214.916 481.014 217.527C477.254 220.138 475.008 224.422 475 229H477.333C477.336 225.252 479.14 221.733 482.181 219.543C485.222 217.352 489.131 216.756 492.687 217.94L489 224.333C487.944 224.332 487.018 225.041 486.744 226.061C486.47 227.081 486.915 228.158 487.83 228.687C488.744 229.215 489.9 229.064 490.647 228.317C491.394 227.57 491.546 226.415 491.018 225.5L494.833 218.908C498.439 220.99 500.662 224.836 500.667 229H503C502.995 224.003 500.327 219.388 496 216.89Z" fill="white"/>
<rect x="473" y="236" width="32" height="32" fill="#121619"/>
<path d="M496 251.89L498.427 247.667L496.408 246.5L493.865 250.898C489.573 249.308 484.774 249.916 481.014 252.527C477.254 255.138 475.008 259.422 475 264H477.333C477.336 260.252 479.14 256.733 482.181 254.543C485.222 252.352 489.131 251.756 492.687 252.94L489 259.333C487.944 259.332 487.018 260.041 486.744 261.061C486.47 262.081 486.915 263.158 487.83 263.687C488.744 264.215 489.9 264.064 490.647 263.317C491.394 262.57 491.546 261.415 491.018 260.5L494.833 253.908C498.439 255.99 500.662 259.836 500.667 264H503C502.995 259.003 500.327 254.388 496 251.89Z" fill="white"/>
<path d="M191.56 210.966C191.687 210.44 191.744 210.412 192.298 210.412H193.321C194.543 210.412 195.452 210.781 195.452 211.889C195.452 212.614 195.082 214.702 192.227 214.702H190.622L191.56 210.966ZM193.534 214.872C195.295 214.489 196.673 213.352 196.673 212.131C196.673 211.023 195.551 210 193.577 210H189.727C189.443 210 189.315 210 189.315 210.27C189.315 210.412 189.415 210.412 189.685 210.412C190.537 210.412 190.537 210.526 190.537 210.682C190.537 210.71 190.537 210.795 190.48 211.009L188.562 218.651C188.435 219.148 188.406 219.29 187.426 219.29C187.099 219.29 187 219.29 187 219.56C187 219.702 187.156 219.702 187.199 219.702C187.455 219.702 187.753 219.673 188.023 219.673H189.699C189.955 219.673 190.253 219.702 190.509 219.702C190.622 219.702 190.778 219.702 190.778 219.432C190.778 219.29 190.651 219.29 190.438 219.29C189.571 219.29 189.571 219.176 189.571 219.034C189.571 219.02 189.571 218.92 189.599 218.807L190.551 214.986H192.256C193.605 214.986 193.861 215.838 193.861 216.307C193.861 216.52 193.719 217.074 193.619 217.443C193.463 218.097 193.42 218.253 193.42 218.523C193.42 219.531 194.244 220 195.196 220C196.347 220 196.844 218.594 196.844 218.395C196.844 218.295 196.773 218.253 196.688 218.253C196.574 218.253 196.545 218.338 196.517 218.452C196.176 219.46 195.594 219.716 195.239 219.716C194.884 219.716 194.656 219.56 194.656 218.92C194.656 218.58 194.827 217.287 194.841 217.216C194.912 216.69 194.912 216.634 194.912 216.52C194.912 215.483 194.074 215.043 193.534 214.872Z" fill="white"/>
<path d="M400.213 209.456C400.213 209.192 400.021 209 399.745 209C399.434 209 399.086 209.288 399.086 209.647C399.086 209.911 399.278 210.103 399.553 210.103C399.865 210.103 400.213 209.815 400.213 209.456ZM398.463 213.855L397.815 215.509C397.755 215.689 397.695 215.833 397.695 216.037C397.695 216.624 398.151 217.056 398.786 217.056C399.949 217.056 400.441 215.378 400.441 215.222C400.441 215.102 400.345 215.066 400.261 215.066C400.117 215.066 400.093 215.15 400.057 215.27C399.781 216.229 399.29 216.72 398.81 216.72C398.666 216.72 398.522 216.66 398.522 216.337C398.522 216.049 398.606 215.833 398.762 215.462C398.882 215.138 399.002 214.814 399.134 214.491L399.505 213.519C399.613 213.244 399.757 212.872 399.757 212.668C399.757 212.069 399.278 211.649 398.666 211.649C397.503 211.649 397 213.328 397 213.484C397 213.591 397.084 213.639 397.18 213.639C397.336 213.639 397.348 213.567 397.384 213.448C397.719 212.309 398.271 211.985 398.63 211.985C398.798 211.985 398.918 212.045 398.918 212.381C398.918 212.501 398.906 212.668 398.786 213.028L398.463 213.855Z" fill="white"/>
<path d="M386 216.832C386 216.769 386 216.727 385.626 216.371C383.423 214.252 382.189 210.79 382.189 206.51C382.189 202.441 383.225 198.937 385.78 196.462C386 196.273 386 196.231 386 196.168C386 196.042 385.89 196 385.802 196C385.515 196 383.709 197.51 382.63 199.566C381.507 201.685 381 203.93 381 206.51C381 208.378 381.308 210.874 382.454 213.119C383.753 215.636 385.559 217 385.802 217C385.89 217 386 216.958 386 216.832Z" fill="white"/>
<path d="M408 206.51C408 204.916 407.78 202.315 406.546 199.881C405.247 197.364 403.441 196 403.198 196C403.11 196 403 196.042 403 196.168C403 196.231 403 196.273 403.374 196.629C405.577 198.748 406.811 202.21 406.811 206.49C406.811 210.559 405.775 214.063 403.22 216.538C403 216.727 403 216.769 403 216.832C403 216.958 403.11 217 403.198 217C403.485 217 405.291 215.49 406.37 213.434C407.493 211.294 408 209.028 408 206.51Z" fill="white"/>
<path d="M364.708 209.156C363.613 213.531 359.982 216.094 357.04 216.094C354.787 216.094 353.253 214.594 353.253 212C353.253 211.875 353.253 210.938 353.598 209.563L356.665 197.281C356.946 196.219 357.009 195.906 359.231 195.906C359.794 195.906 360.107 195.906 360.107 195.344C360.107 195 359.826 195 359.638 195C359.075 195 358.417 195.063 357.823 195.063H354.13C353.535 195.063 352.878 195 352.283 195C352.064 195 351.689 195 351.689 195.594C351.689 195.906 351.908 195.906 352.502 195.906C354.38 195.906 354.38 196.156 354.38 196.5C354.38 196.687 354.161 197.594 354.004 198.125L351.282 209.062C351.188 209.406 351 210.25 351 211.094C351 214.531 353.472 217 356.884 217C360.045 217 363.55 214.5 365.146 210.531C365.365 210 365.647 208.906 365.835 208.062C366.148 206.937 366.805 204.188 367.024 203.375L368.213 198.687C368.62 197.062 368.87 196.031 371.624 195.906C371.875 195.875 372 195.625 372 195.344C372 195 371.718 195 371.593 195C371.155 195 370.592 195.063 370.153 195.063H368.683C366.742 195.063 365.741 195 365.709 195C365.522 195 365.146 195 365.146 195.594C365.146 195.906 365.396 195.906 365.615 195.906C367.493 195.969 367.618 196.687 367.618 197.25C367.618 197.531 367.618 197.625 367.493 198.063L364.708 209.156Z" fill="white"/>
<path d="M167.708 46.1562C166.613 50.5312 162.982 53.0938 160.04 53.0938C157.787 53.0938 156.253 51.5938 156.253 49C156.253 48.875 156.253 47.9375 156.598 46.5625L159.665 34.2812C159.946 33.2187 160.009 32.9062 162.231 32.9062C162.794 32.9062 163.107 32.9063 163.107 32.3438C163.107 32 162.826 32 162.638 32C162.075 32 161.417 32.0625 160.823 32.0625H157.13C156.535 32.0625 155.878 32 155.283 32C155.064 32 154.689 32 154.689 32.5937C154.689 32.9062 154.908 32.9062 155.502 32.9062C157.38 32.9062 157.38 33.1562 157.38 33.5C157.38 33.6875 157.161 34.5937 157.004 35.125L154.282 46.0625C154.188 46.4063 154 47.25 154 48.0938C154 51.5312 156.472 54 159.884 54C163.045 54 166.55 51.5 168.146 47.5313C168.365 47 168.647 45.9062 168.835 45.0625C169.148 43.9375 169.805 41.1875 170.024 40.375L171.213 35.6875C171.62 34.0625 171.87 33.0313 174.624 32.9062C174.875 32.875 175 32.625 175 32.3438C175 32 174.718 32 174.593 32C174.155 32 173.592 32.0625 173.153 32.0625H171.683C169.742 32.0625 168.741 32 168.709 32C168.522 32 168.146 32 168.146 32.5937C168.146 32.9062 168.396 32.9062 168.615 32.9062C170.493 32.9687 170.618 33.6875 170.618 34.25C170.618 34.5313 170.618 34.625 170.493 35.0625L167.708 46.1562Z" fill="black"/>
<path d="M109.652 49L106.236 39.228H104.738L101.322 49H102.512L103.492 46.116H107.44L108.42 49H109.652ZM107.146 45.08H103.772L105.424 40.32H105.494L107.146 45.08ZM112.439 49V43.988C112.439 43.064 113.307 42.616 114.203 42.616C115.281 42.616 115.841 43.274 115.841 44.562V49H116.961V44.366C116.961 42.616 116.023 41.608 114.539 41.608C113.461 41.608 112.845 42.14 112.495 42.952H112.439V41.776H111.319V49H112.439ZM121.606 49.168C123.258 49.168 124.28 48.314 124.28 46.914C124.28 45.822 123.664 45.122 122.068 44.884L121.508 44.8C120.612 44.66 120.122 44.38 120.122 43.68C120.122 42.994 120.612 42.56 121.536 42.56C122.46 42.56 123.076 42.994 123.398 43.442L124.14 42.77C123.552 42.042 122.782 41.608 121.62 41.608C120.15 41.608 119.044 42.308 119.044 43.736C119.044 45.08 120.038 45.626 121.368 45.822L121.942 45.906C122.894 46.046 123.202 46.48 123.202 47.04C123.202 47.782 122.642 48.216 121.69 48.216C120.78 48.216 120.108 47.81 119.548 47.11L118.75 47.754C119.394 48.608 120.276 49.168 121.606 49.168ZM132.298 49V48.02H131.472V44.044C131.472 42.518 130.436 41.608 128.7 41.608C127.398 41.608 126.53 42.252 126.138 43.022L126.81 43.652C127.202 42.994 127.776 42.574 128.644 42.574C129.792 42.574 130.352 43.134 130.352 44.156V44.87H128.924C126.824 44.87 125.844 45.626 125.844 46.984C125.844 48.328 126.74 49.168 128.266 49.168C129.274 49.168 130.044 48.706 130.352 47.824H130.422C130.506 48.496 130.842 49 131.668 49H132.298ZM128.448 48.216C127.58 48.216 127.02 47.81 127.02 47.096V46.802C127.02 46.102 127.594 45.71 128.868 45.71H130.352V46.9C130.352 47.642 129.554 48.216 128.448 48.216ZM137.053 49V48.02H135.583V42.756H137.165V41.776H135.583V39.774H134.575V41.118C134.575 41.608 134.421 41.776 133.945 41.776H133.273V42.756H134.463V47.81C134.463 48.51 134.883 49 135.653 49H137.053ZM143.969 49V48.02H139.671L143.857 42.616V41.776H138.523V42.756H142.499L138.397 48.062V49H143.969Z" fill="#121619"/>
<path d="M375.769 212.526C376.237 211.784 376.663 211.454 377.364 211.399C377.502 211.385 377.612 211.385 377.612 211.138C377.612 211.083 377.585 211 377.461 211C377.213 211 376.622 211.028 376.374 211.028C375.976 211.028 375.563 211 375.178 211C375.068 211 374.931 211 374.931 211.261C374.931 211.385 375.054 211.399 375.109 211.399C375.618 211.44 375.673 211.688 375.673 211.853C375.673 212.059 375.481 212.375 375.467 212.389L371.149 219.237L370.186 211.825C370.186 211.426 370.901 211.399 371.053 211.399C371.259 211.399 371.383 211.399 371.383 211.138C371.383 211 371.232 211 371.19 211C370.956 211 370.681 211.028 370.448 211.028H369.678C368.674 211.028 368.261 211 368.248 211C368.165 211 368 211 368 211.248C368 211.399 368.096 211.399 368.316 211.399C369.018 211.399 369.059 211.523 369.1 211.866L370.2 220.351C370.241 220.64 370.241 220.681 370.434 220.681C370.599 220.681 370.668 220.64 370.805 220.419L375.769 212.526Z" fill="white"/>
<path d="M170.619 51.1786C170.202 51.881 169.798 52.119 169.226 52.1548C169.095 52.1667 169 52.1667 169 52.381C169 52.4524 169.06 52.5 169.143 52.5C169.357 52.5 169.893 52.4762 170.107 52.4762C170.452 52.4762 170.833 52.5 171.167 52.5C171.238 52.5 171.381 52.5 171.381 52.2738C171.381 52.1667 171.286 52.1548 171.214 52.1548C170.94 52.131 170.714 52.0357 170.714 51.75C170.714 51.5833 170.786 51.4524 170.94 51.1905L171.845 49.6905H174.881C174.893 49.7976 174.893 49.8929 174.905 50C174.94 50.3095 175.083 51.5476 175.083 51.7738C175.083 52.131 174.476 52.1548 174.286 52.1548C174.155 52.1548 174.024 52.1548 174.024 52.369C174.024 52.5 174.131 52.5 174.202 52.5C174.405 52.5 174.643 52.4762 174.845 52.4762H175.524C176.25 52.4762 176.774 52.5 176.786 52.5C176.869 52.5 177 52.5 177 52.2738C177 52.1548 176.893 52.1548 176.714 52.1548C176.06 52.1548 176.048 52.0476 176.012 51.6905L175.286 44.2619C175.262 44.0238 175.214 44 175.083 44C174.964 44 174.893 44.0238 174.786 44.2024L170.619 51.1786ZM172.048 49.3452L174.44 45.3452L174.845 49.3452H172.048Z" fill="black"/>
<line x1="505" y1="109.5" x2="701" y2="109.5" stroke="black"/>
<line x1="505" y1="113.5" x2="701" y2="113.5" stroke="black"/>
<line x1="505" y1="144.5" x2="701" y2="144.5" stroke="black"/>
<line x1="505" y1="148.5" x2="701" y2="148.5" stroke="black"/>
<line x1="505" y1="179.5" x2="701" y2="179.5" stroke="black"/>
<line x1="505" y1="183.5" x2="701" y2="183.5" stroke="black"/>
<line x1="504" y1="214.5" x2="700" y2="214.5" stroke="black"/>
<line x1="504" y1="218.5" x2="700" y2="218.5" stroke="black"/>
<line x1="504" y1="249.5" x2="700" y2="249.5" stroke="black"/>
<line x1="504" y1="253.5" x2="700" y2="253.5" stroke="black"/>
<rect width="134" height="185" transform="translate(592 91)" fill="#4D5358"/>
<path d="M647.19 151.168C648.814 151.168 650.004 150.314 650.62 148.942L649.682 148.354C649.29 149.418 648.436 150.118 647.19 150.118C645.51 150.118 644.516 148.9 644.516 146.898V145.442C644.516 143.44 645.51 142.11 647.19 142.11C648.394 142.11 649.206 142.768 649.598 143.776L650.55 143.202C649.934 141.844 648.814 141.06 647.19 141.06C644.726 141.06 643.256 142.908 643.256 146.17C643.256 149.432 644.726 151.168 647.19 151.168ZM655.219 151.168C657.151 151.168 658.481 149.684 658.481 147.388C658.481 145.092 657.151 143.608 655.219 143.608C653.287 143.608 651.957 145.092 651.957 147.388C651.957 149.684 653.287 151.168 655.219 151.168ZM655.219 150.174C654.015 150.174 653.161 149.432 653.161 147.906V146.87C653.161 145.344 654.015 144.602 655.219 144.602C656.423 144.602 657.277 145.344 657.277 146.87V147.906C657.277 149.432 656.423 150.174 655.219 150.174ZM662.653 151.168C664.305 151.168 665.327 150.314 665.327 148.914C665.327 147.822 664.711 147.122 663.115 146.884L662.555 146.8C661.659 146.66 661.169 146.38 661.169 145.68C661.169 144.994 661.659 144.56 662.583 144.56C663.507 144.56 664.123 144.994 664.445 145.442L665.187 144.77C664.599 144.042 663.829 143.608 662.667 143.608C661.197 143.608 660.091 144.308 660.091 145.736C660.091 147.08 661.085 147.626 662.415 147.822L662.989 147.906C663.941 148.046 664.249 148.48 664.249 149.04C664.249 149.782 663.689 150.216 662.737 150.216C661.827 150.216 661.155 149.81 660.595 149.11L659.797 149.754C660.441 150.608 661.323 151.168 662.653 151.168ZM670.366 151V150.02H668.896V144.756H670.478V143.776H668.896V141.774H667.888V143.118C667.888 143.608 667.734 143.776 667.258 143.776H666.586V144.756H667.776V149.81C667.776 150.51 668.196 151 668.966 151H670.366ZM633.108 171V166.576H637.35V165.54H633.108V162.264H637.756V161.228H631.932V171H633.108ZM643.897 171H645.017V163.776H643.897V168.774C643.897 169.726 643.029 170.16 642.147 170.16C641.069 170.16 640.495 169.502 640.495 168.214V163.776H639.375V168.41C639.375 170.16 640.327 171.168 641.811 171.168C643.015 171.168 643.561 170.51 643.841 169.824H643.897V171ZM648.682 171V165.988C648.682 165.064 649.55 164.616 650.446 164.616C651.524 164.616 652.084 165.274 652.084 166.562V171H653.204V166.366C653.204 164.616 652.266 163.608 650.782 163.608C649.704 163.608 649.088 164.14 648.738 164.952H648.682V163.776H647.562V171H648.682ZM658.367 171.168C659.739 171.168 660.677 170.496 661.139 169.46L660.327 168.914C659.935 169.74 659.277 170.174 658.367 170.174C657.037 170.174 656.351 169.264 656.351 168.004V166.772C656.351 165.512 657.037 164.602 658.367 164.602C659.249 164.602 659.865 165.036 660.131 165.778L661.069 165.302C660.649 164.308 659.795 163.608 658.367 163.608C656.337 163.608 655.147 165.078 655.147 167.388C655.147 169.698 656.337 171.168 658.367 171.168ZM665.876 171V170.02H664.406V164.756H665.988V163.776H664.406V161.774H663.398V163.118C663.398 163.608 663.244 163.776 662.768 163.776H662.096V164.756H663.286V169.81C663.286 170.51 663.706 171 664.476 171H665.876ZM668.509 162.082C668.985 162.082 669.195 161.83 669.195 161.452V161.27C669.195 160.892 668.985 160.64 668.509 160.64C668.033 160.64 667.823 160.892 667.823 161.27V161.452C667.823 161.83 668.033 162.082 668.509 162.082ZM667.949 171H669.069V163.776H667.949V171ZM674.339 171.168C676.271 171.168 677.601 169.684 677.601 167.388C677.601 165.092 676.271 163.608 674.339 163.608C672.407 163.608 671.077 165.092 671.077 167.388C671.077 169.684 672.407 171.168 674.339 171.168ZM674.339 170.174C673.135 170.174 672.281 169.432 672.281 167.906V166.87C672.281 165.344 673.135 164.602 674.339 164.602C675.543 164.602 676.397 165.344 676.397 166.87V167.906C676.397 169.432 675.543 170.174 674.339 170.174ZM680.723 171V165.988C680.723 165.064 681.591 164.616 682.487 164.616C683.565 164.616 684.125 165.274 684.125 166.562V171H685.245V166.366C685.245 164.616 684.307 163.608 682.823 163.608C681.745 163.608 681.129 164.14 680.779 164.952H680.723V163.776H679.603V171H680.723Z" fill="white"/>
<path d="M676 202.504C676 200.218 675.285 198 673.454 198C670.328 198 667 204.566 667 209.496C667 210.527 667.223 214 669.568 214C672.605 214 676 207.591 676 202.504ZM669.233 205.664C669.568 204.342 670.037 202.459 670.931 200.868C671.667 199.524 672.449 198.448 673.432 198.448C674.169 198.448 674.66 199.076 674.66 201.227C674.66 202.034 674.593 203.154 673.945 205.664H669.233ZM673.789 206.336C673.231 208.532 672.762 209.944 671.958 211.356C671.31 212.499 670.529 213.552 669.591 213.552C668.898 213.552 668.34 213.014 668.34 210.796C668.34 209.339 668.697 207.815 669.055 206.336H673.789Z" fill="white"/>
<path d="M678.213 209.456C678.213 209.192 678.021 209 677.745 209C677.434 209 677.086 209.288 677.086 209.647C677.086 209.911 677.278 210.103 677.553 210.103C677.865 210.103 678.213 209.815 678.213 209.456ZM676.463 213.855L675.815 215.509C675.755 215.689 675.695 215.833 675.695 216.037C675.695 216.624 676.151 217.056 676.786 217.056C677.949 217.056 678.441 215.378 678.441 215.222C678.441 215.102 678.345 215.066 678.261 215.066C678.117 215.066 678.093 215.15 678.057 215.27C677.781 216.229 677.29 216.72 676.81 216.72C676.666 216.72 676.522 216.66 676.522 216.337C676.522 216.049 676.606 215.833 676.762 215.462C676.882 215.138 677.002 214.814 677.134 214.491L677.505 213.519C677.613 213.244 677.757 212.872 677.757 212.668C677.757 212.069 677.278 211.649 676.666 211.649C675.503 211.649 675 213.328 675 213.484C675 213.591 675.084 213.639 675.18 213.639C675.336 213.639 675.348 213.567 675.384 213.448C675.719 212.309 676.271 211.985 676.63 211.985C676.798 211.985 676.918 212.045 676.918 212.381C676.918 212.501 676.906 212.668 676.786 213.028L676.463 213.855Z" fill="white"/>
<path d="M664 216.832C664 216.769 664 216.727 663.626 216.371C661.423 214.252 660.189 210.79 660.189 206.51C660.189 202.441 661.225 198.937 663.78 196.462C664 196.273 664 196.231 664 196.168C664 196.042 663.89 196 663.802 196C663.515 196 661.709 197.51 660.63 199.566C659.507 201.685 659 203.93 659 206.51C659 208.378 659.308 210.874 660.454 213.119C661.753 215.636 663.559 217 663.802 217C663.89 217 664 216.958 664 216.832Z" fill="white"/>
<path d="M686 206.51C686 204.916 685.78 202.315 684.546 199.881C683.247 197.364 681.441 196 681.198 196C681.11 196 681 196.042 681 196.168C681 196.231 681 196.273 681.374 196.629C683.577 198.748 684.811 202.21 684.811 206.49C684.811 210.559 683.775 214.063 681.22 216.538C681 216.727 681 216.769 681 216.832C681 216.958 681.11 217 681.198 217C681.485 217 683.291 215.49 684.37 213.434C685.493 211.294 686 209.028 686 206.51Z" fill="white"/>
<path d="M503.389 104V103.16H499.705L503.293 98.528V97.808H498.721V98.648H502.129L498.613 103.196V104H503.389Z" fill="white"/>
<path d="M503.389 139V138.16H499.705L503.293 133.528V132.808H498.721V133.648H502.129L498.613 138.196V139H503.389Z" fill="white"/>
<path d="M503.389 174V173.16H499.705L503.293 168.528V167.808H498.721V168.648H502.129L498.613 173.196V174H503.389Z" fill="white"/>
<path d="M503.389 209V208.16H499.705L503.293 203.528V202.808H498.721V203.648H502.129L498.613 208.196V209H503.389Z" fill="white"/>
<path d="M503.389 244V243.16H499.705L503.293 238.528V237.808H498.721V238.648H502.129L498.613 243.196V244H503.389Z" fill="white"/>
<path d="M654 196.245C654 196 653.809 196 653.755 196C653.7 196 653.591 196 653.373 196.273L651.492 198.562C650.538 196.927 649.039 196 646.994 196C641.106 196 635 201.97 635 208.376C635 212.928 638.189 215.763 642.169 215.763C644.35 215.763 646.258 214.836 647.839 213.501C650.211 211.511 650.92 208.867 650.92 208.648C650.92 208.403 650.702 208.403 650.62 208.403C650.374 208.403 650.347 208.567 650.293 208.676C649.039 212.928 645.359 214.973 642.633 214.973C639.743 214.973 637.235 213.119 637.235 209.248C637.235 208.376 637.508 203.633 640.588 200.062C642.088 198.317 644.65 196.791 647.24 196.791C650.238 196.791 651.574 199.271 651.574 202.052C651.574 202.76 651.492 203.36 651.492 203.469C651.492 203.714 651.765 203.714 651.846 203.714C652.146 203.714 652.174 203.687 652.283 203.197L654 196.245Z" fill="white"/>
</g>
<defs>
<clipPath id="clip0_37_5126">
<rect width="789" height="341" fill="white"/>
</clipPath>
</defs>
</svg>
