<?xml version='1.0' encoding='utf-8'?>
<svg xmlns="http://www.w3.org/2000/svg" xmlns:ns1="http://sodipodi.sourceforge.net/DTD/sodipodi-0.dtd" xmlns:ns2="http://www.inkscape.org/namespaces/inkscape" version="1.1" id="svg1" width="100%" height="auto" viewBox="-20.0 -20.0 419.52255 164.77133" ns1:docname="svg_fix_XXXXXX.svg">
  <rect id="path1" x="-20.0" y="-20.0" width="419.52255" height="164.77133" fill="white" /><ns1:namedview id="namedview1" pagecolor="#ffffff" bordercolor="#000000" borderopacity="0.25" ns2:showpageshadow="2" ns2:pageopacity="0.0" ns2:pagecheckerboard="0" ns2:deskcolor="#d1d1d1" />
  <defs id="defs1" />
  <g id="g1" transform="translate(-109.59072,-30.799936)">
    <path id="path2" d="M -21.2601,0 H 21.2601" style="fill:none;stroke:#121619;stroke-width:0.3985;stroke-linecap:butt;stroke-linejoin:miter;stroke-miterlimit:10;stroke-dasharray:none;stroke-opacity:1" transform="matrix(2.1333333,0,0,-2.1333333,154.9456,49.366933)" />
    <path id="path3" d="M -8.50403,-8.50403 H 8.50403 V 8.50403 H -8.50403 Z" style="fill:#78a9ff;fill-opacity:1;fill-rule:nonzero;stroke:#78a9ff;stroke-width:0.3985;stroke-linecap:butt;stroke-linejoin:miter;stroke-miterlimit:10;stroke-dasharray:none;stroke-opacity:1" transform="matrix(2.1333333,0,0,-2.1333333,154.9456,49.366933)" />
    <path id="path4" d="m 4.1609072,-3.0469775 c 0.3808594,-0.3881836 1.5161133,-1.5527344 1.706543,-1.6992188 0.3295898,-0.2563476 0.534668,-0.402832 1.105957,-0.4321289 0.05127,-0.00732 0.1098633,-0.05127 0.1098633,-0.1538086 0,-0.073242 -0.073242,-0.1098633 -0.1098633,-0.1098633 -0.080566,0 -0.1245117,0.021973 -0.7470703,0.021973 -0.6005859,0 -0.8129883,-0.021973 -0.8569336,-0.021973 -0.029297,0 -0.1538086,0 -0.1538086,0.1538086 0,0.00732 0,0.1025391 0.1171875,0.1098633 0.05127,0.00732 0.2709961,0.021973 0.2709961,0.2050781 0,0.058594 -0.029297,0.1464844 -0.095215,0.2050782 l -0.021973,0.043945 c -0.029297,0.021973 -0.029297,0.036621 -0.1098633,0.1098632 L 4.0510439,-3.2667041 3.2380557,-4.9585986 c 0.1098632,-0.1904297 0.3515625,-0.2124024 0.4467773,-0.2197266 0.036621,0 0.1464844,-0.00732 0.1464844,-0.1464844 0,-0.073242 -0.05127,-0.1171875 -0.1245117,-0.1171875 -0.080566,0 -0.3808594,0.014648 -0.4614258,0.014648 -0.05127,0.00732 -0.3442383,0.00732 -0.5126953,0.00732 -0.7397461,0 -0.834961,-0.021973 -0.9082032,-0.021973 -0.029297,0 -0.1611328,0 -0.1611328,0.1538086 0,0.1098633 0.1098633,0.1098633 0.234375,0.1098633 0.3955078,0 0.46875,0.080566 0.5419922,0.2270508 L 3.5017275,-2.7173877 1.8684268,-1.05479 c -0.4833985,0.4833984 -0.8569336,0.76171871 -1.42089848,0.79101559 -0.0952148,0.007324 -0.19042969,0.007324 -0.19042969,0.15380859 0,0.04394531 0.0366211,0.10986328094 0.1171875,0.10986328094 0.0585938,0 0.14648438,-0.0219726609 0.74707027,-0.0219726609 0.5786133,0 0.8203125,0.0219726609 0.8569336,0.0219726609 0.036621,0 0.1611329,0 0.1611329,-0.15380859094 0,-0.0146484 -0.014648,-0.10253907 -0.131836,-0.10986328 -0.1464844,-0.007324 -0.2636719,-0.065918 -0.2636719,-0.20507813 0,-0.13183594 0.095215,-0.234375 0.2197266,-0.3515625 C 2.0954775,-0.97422363 2.512958,-1.3843799 2.7986025,-1.6627002 2.981708,-1.8458057 3.4284854,-2.3145557 3.6115908,-2.4830127 l 0.9155274,1.90429688 c 0.036621,0.0732422 0.036621,0.0878906 0.036621,0.0952148 0,0.065918 -0.1611329,0.20507813 -0.4248047,0.21972657 -0.058594,0 -0.1611328,0.007324 -0.1611328,0.15380859 0,0.007324 0.00732,0.10986328094 0.1318359,0.10986328094 0.080566,0 0.3808594,-0.0146484409 0.4541016,-0.0219726609 h 0.5126953 c 0.7324218,0 0.8422851,0.0219726609 0.9155273,0.0219726609 0.036621,0 0.1538086,0 0.1538086,-0.15380859094 0,-0.10986328 -0.1025391,-0.10986328 -0.2270508,-0.10986328 -0.4248047,0 -0.4760742,-0.0952148 -0.5346679,-0.21240235 z m 0,0" style="fill:#ffffff;fill-opacity:1;fill-rule:nonzero;stroke:none" aria-label="X" transform="matrix(2.1333333,0,0,2.1333333,146.85387,55.176)" />
    <path id="path5" d="M -21.2601,0 H 21.2601" style="fill:none;stroke:#121619;stroke-width:0.3985;stroke-linecap:butt;stroke-linejoin:miter;stroke-miterlimit:10;stroke-dasharray:none;stroke-opacity:1" transform="matrix(2.1333333,0,0,-2.1333333,299.35093,49.366933)" />
    <path id="path6" d="M -8.50403,-8.50403 H 8.50403 V 8.50403 H -8.50403 Z" style="fill:#78a9ff;fill-opacity:1;fill-rule:nonzero;stroke:#78a9ff;stroke-width:0.3985;stroke-linecap:butt;stroke-linejoin:miter;stroke-miterlimit:10;stroke-dasharray:none;stroke-opacity:1" transform="matrix(2.1333333,0,0,-2.1333333,299.35093,49.366933)" />
    <path id="path7" d="m 5.0615547,-4.4898486 c 0.05127,-0.058594 0.1245117,-0.1245118 0.1904297,-0.1904297 0.2929687,-0.2709961 0.5566406,-0.46875 1.0034179,-0.4980469 0.073242,-0.00732 0.1684571,-0.014648 0.1684571,-0.1538086 0,-0.05127 -0.058594,-0.1098633 -0.1098633,-0.1098633 -0.095215,0 -0.080566,0.021973 -0.6665039,0.021973 -0.5200195,0 -0.703125,-0.021973 -0.7543945,-0.021973 -0.029297,0 -0.1538086,0 -0.1538086,0.1538086 0,0.065918 0.058594,0.1025391 0.1318359,0.1098633 0.234375,0.014648 0.2416992,0.1025391 0.2416992,0.1464844 0,0.1538086 -0.2416992,0.4101562 -0.2416992,0.4174804 l -1.9482422,2.0947266 -1.003418,-2.3583984 c -0.014648,-0.029297 -0.043945,-0.1098633 -0.043945,-0.1391602 0,-0.1611328 0.3735352,-0.1611328 0.4467774,-0.1611328 0.073242,0 0.1904297,0 0.1904297,-0.1538086 0,-0.036621 -0.036621,-0.1098633 -0.131836,-0.1098633 -0.1098633,0 -0.3735351,0.014648 -0.4907226,0.021973 H 1.3921211 c -0.73242188,0 -0.84228516,-0.021973 -0.91552735,-0.021973 -0.12451172,0 -0.14648437,0.087891 -0.14648437,0.1538086 0,0.1098633 0.10253906,0.1098633 0.21240234,0.1098633 0.43212891,0 0.46874998,0.087891 0.53466798,0.234375 l 1.171875,2.7612305 -0.3588867,1.4575195 c -0.1098633,0.43212891 -0.1171875,0.45410157 -0.7324219,0.46142579 -0.1318359,0 -0.22705079,0 -0.22705079,0.15380859 0,0.02929687 0.0292969,0.10986328094 0.13183599,0.10986328094 0.1464843,0 0.3295898,-0.0146484409 0.4907226,-0.0219726609 h 1.0107422 c 0.1245117,0.0073242 0.3955078,0.0219726609 0.4980469,0.0219726609 0.043945,0 0.168457,0 0.168457,-0.15380859094 0,-0.10986328 -0.1098633,-0.10986328 -0.2416992,-0.10986328 -0.00732,0 -0.1757813,0 -0.300293,-0.0146484 -0.1757812,-0.0219727 -0.1831055,-0.0439453 -0.1831055,-0.1171875 0,-0.065918 0.095215,-0.45410156 0.1464844,-0.68847659 0.095215,-0.3808594 0.1684571,-0.6445313 0.2490235,-0.9814453 0.021973,-0.1025391 0.029297,-0.1171875 0.102539,-0.1977539 z m 0,0" style="fill:#ffffff;fill-opacity:1;fill-rule:nonzero;stroke:none" aria-label="Y" transform="matrix(2.1333333,0,0,2.1333333,292.10827,55.176)" />
    <path id="path8" d="M -21.2601,0 H 21.2601" style="fill:none;stroke:#121619;stroke-width:0.3985;stroke-linecap:butt;stroke-linejoin:miter;stroke-miterlimit:10;stroke-dasharray:none;stroke-opacity:1" transform="matrix(2.1333333,0,0,-2.1333333,443.7584,49.366933)" />
    <path id="path9" d="M -8.50403,-8.50403 H 8.50403 V 8.50403 H -8.50403 Z" style="fill:#78a9ff;fill-opacity:1;fill-rule:nonzero;stroke:#78a9ff;stroke-width:0.3985;stroke-linecap:butt;stroke-linejoin:miter;stroke-miterlimit:10;stroke-dasharray:none;stroke-opacity:1" transform="matrix(2.1333333,0,0,-2.1333333,443.7584,49.366933)" />
    <path id="path10" d="m 5.910124,-5.1417041 c 0.065918,-0.058594 0.1171875,-0.1171875 0.1171875,-0.2124023 0,-0.087891 -0.065918,-0.087891 -0.2197265,-0.087891 H 2.2626631 c -0.2050781,0 -0.2124024,0.00732 -0.2636719,0.1611328 L 1.5522139,-3.86729 c -0.00732,0.036621 -0.021973,0.080566 -0.021973,0.1245117 0,0.014648 0.00732,0.1098633 0.1171875,0.1098633 0.087891,0 0.1025391,-0.029297 0.1538086,-0.1904297 0.3808594,-1.0839844 1.003418,-1.3549805 1.9775391,-1.3549805 h 1.3769531 l -4.54833985,4.87792969 c -0.065918,0.065918 -0.1171875,0.1171875 -0.1171875,0.21240235 0,0.0878906209 0.0732422,0.0878906209 0.21972656,0.0878906209 H 4.3866865 c 0.2124024,0 0.2197266,-0.007324221 0.2636719,-0.1611328109 L 5.2143232,-1.9043994 c 0.029297,-0.1025391 0.029297,-0.1171875 0.029297,-0.1245117 0,-0.014648 -0.00732,-0.1171875 -0.1171875,-0.1171875 -0.05127,0 -0.073242,0.029297 -0.080566,0.036621 -0.014648,0.014648 -0.036621,0.029297 -0.043945,0.043945 -0.014648,0.051269 -0.014648,0.065918 -0.080566,0.2416992 -0.3588867,1.07666015 -0.8203125,1.53808593 -2.0800781,1.53808593 H 1.3837568 Z m 0,0" style="fill:#ffffff;fill-opacity:1;fill-rule:nonzero;stroke:none" aria-label="Z" transform="matrix(2.1333333,0,0,2.1333333,437.03627,55.176)" />
    <path id="path11" d="M -21.2601,0 H 21.2601" style="fill:none;stroke:#121619;stroke-width:0.3985;stroke-linecap:butt;stroke-linejoin:miter;stroke-miterlimit:10;stroke-dasharray:none;stroke-opacity:1" transform="matrix(2.1333333,0,0,-2.1333333,154.9456,137.00427)" />
    <path id="path12" d="M -8.50403,-8.50403 H 8.50403 V 8.50403 H -8.50403 Z" style="fill:#78a9ff;fill-opacity:1;fill-rule:nonzero;stroke:#78a9ff;stroke-width:0.3985;stroke-linecap:butt;stroke-linejoin:miter;stroke-miterlimit:10;stroke-dasharray:none;stroke-opacity:1" transform="matrix(2.1333333,0,0,-2.1333333,154.9456,137.00427)" />
    <path id="path13" d="m 6.3648213,-4.7977539 c 0.080566,-0.3076172 0.095215,-0.3808594 0.6591797,-0.3808594 0.1831054,0 0.2783203,0 0.2783203,-0.1538086 0,-0.00732 -0.00732,-0.1098633 -0.1391602,-0.1098633 -0.1538086,0 -0.3442382,0.014648 -0.4907226,0.021973 H 6.1670674 c -0.7617188,0 -0.9741211,-0.021973 -1.0253906,-0.021973 -0.036621,0 -0.1611329,0 -0.1611329,0.1538086 0,0.1098633 0.1025391,0.1098633 0.234375,0.1098633 0.2563477,0 0.4907227,0 0.4907227,0.1245117 0,0.036621 -0.00732,0.043945 -0.029297,0.1464844 l -0.4833984,1.940918 H 2.6294697 l 0.4614258,-1.8530274 c 0.073242,-0.2856445 0.087891,-0.3588867 0.6738281,-0.3588867 0.1538086,0 0.2490235,0 0.2490235,-0.1538086 0,-0.00732 -0.00732,-0.1098633 -0.131836,-0.1098633 -0.1538086,0 -0.3442382,0.014648 -0.4980468,0.021973 H 2.8858174 c -0.769043,0 -0.9741211,-0.021973 -1.0253906,-0.021973 -0.036621,0 -0.1611329,0 -0.1611329,0.1538086 0,0.1098633 0.1025391,0.1098633 0.2270508,0.1098633 0.2636719,0 0.4980469,0 0.4980469,0.1245117 0,0.036621 -0.00732,0.043945 -0.036621,0.1464844 l -1.0620117,4.27734376 c -0.073242,0.30029297 -0.087891,0.36621094 -0.68115235,0.36621094 -0.1538086,0 -0.24902344,0 -0.24902344,0.15380859 0,0.02929688 0.0292969,0.109863285 0.13183594,0.109863285 0.14648437,0 0.34423828,-0.014648435 0.49072265,-0.021972655 H 1.530837 c 0.7617188,0 0.9741211,0.021972655 1.0253906,0.021972655 0.05127,0 0.1611329,0 0.1611329,-0.153808595 0,-0.10986328 -0.1025391,-0.10986328 -0.2416993,-0.10986328 -0.021973,0 -0.1611328,0 -0.3002929,-0.0146484 -0.1684571,-0.0146484 -0.1831055,-0.0439453 -0.1831055,-0.10986328 0,-0.0439453 0.014648,-0.0878906 0.021973,-0.13183594 L 2.5562275,-2.7030273 h 2.5708008 c -0.234375,0.9448242 -0.5419922,2.18261714 -0.5493164,2.18261714 -0.073242,0.24902344 -0.2197265,0.24902344 -0.6958008,0.25634766 -0.095215,0 -0.1977539,0 -0.1977539,0.15380859 0,0.02929688 0.021973,0.109863285 0.1245117,0.109863285 0.1538086,0 0.3442383,-0.014648435 0.4980469,-0.021972655 h 0.5053711 c 0.769043,0 0.9741211,0.021972655 1.0327149,0.021972655 0.043945,0 0.1538086,0 0.1538086,-0.153808595 0,-0.10986328 -0.1025391,-0.10986328 -0.234375,-0.10986328 -0.029297,0 -0.1684571,0 -0.3076172,-0.0146484 -0.1684571,-0.0146484 -0.1831055,-0.0439453 -0.1831055,-0.10986328 0,-0.0439453 0.014648,-0.0878906 0.029297,-0.13183594 z m 0,0" style="fill:#ffffff;fill-opacity:1;fill-rule:nonzero;stroke:none" aria-label="H" transform="matrix(2.1333333,0,0,2.1333333,146.87093,142.81333)" />
    <path id="path14" d="M -21.2601,0 H 21.2601" style="fill:none;stroke:#121619;stroke-width:0.3985;stroke-linecap:butt;stroke-linejoin:miter;stroke-miterlimit:10;stroke-dasharray:none;stroke-opacity:1" transform="matrix(2.1333333,0,0,-2.1333333,299.35093,137.00427)" />
    <path id="path15" d="M -8.50403,-8.50403 H 8.50403 V 8.50403 H -8.50403 Z" style="fill:#78a9ff;fill-opacity:1;fill-rule:nonzero;stroke:#78a9ff;stroke-width:0.3985;stroke-linecap:butt;stroke-linejoin:miter;stroke-miterlimit:10;stroke-dasharray:none;stroke-opacity:1" transform="matrix(2.1333333,0,0,-2.1333333,299.35093,137.00427)" />
    <path id="path16" d="m 5.347123,-5.3983398 c 0.00732,-0.029297 0.021973,-0.073242 0.021973,-0.1171875 0,-0.058594 -0.043945,-0.095215 -0.1025391,-0.095215 -0.05127,0 -0.073242,0.014648 -0.1611328,0.1098633 -0.087891,0.1025391 -0.2929687,0.3588867 -0.3808593,0.4541016 -0.3076172,-0.4541016 -0.8129883,-0.5639649 -1.2158204,-0.5639649 -1.1132812,0 -2.0581054,0.9301758 -2.0581054,1.8383789 0,0.4614258 0.2490234,0.7324219 0.2856445,0.7910156 0.2636719,0.2783204 0.4980469,0.3442383 1.0693359,0.4760743 0.2783204,0.073242 0.2929688,0.073242 0.5273438,0.1318359 0.2270508,0.05127 0.7397461,0.1831055 0.7397461,0.8422852 0,0.69580074 -0.6884766,1.43554683 -1.5234375,1.43554683 -0.5200195,0 -1.4648438,-0.16113281 -1.4648438,-1.14990233 0,-0.021973 0,-0.1904297 0.043945,-0.3808594 l 0.014648,-0.080566 c 0,-0.095215 -0.087891,-0.1025391 -0.1245117,-0.1025391 -0.1025391,0 -0.10986332,0.029297 -0.14648441,0.2124024 l -0.32958984,1.30371093 c -0.0292969,0.1171875 -0.0878906,0.32958984 -0.0878906,0.35888671 0,0.05859375 0.0512695,0.10253907 0.10253906,0.10253907 0.0585938,0 0.065918,-0.007324 0.1538086,-0.10986328 L 1.091752,-0.38857422 c 0.1831054,0.234375 0.637207,0.55664063 1.442871,0.55664063 1.1572266,0 2.1020508,-1.04736328 2.1020508,-1.99951171 0,-0.3662109 -0.1171875,-0.6518555 -0.3295898,-0.8789063 C 4.0653848,-2.9740234 3.8017129,-3.0399414 3.4281777,-3.1351562 3.1938027,-3.1864258 2.8861855,-3.259668 2.7030801,-3.3109375 2.4613809,-3.362207 2.0146035,-3.5233398 2.0146035,-4.0799805 c 0,-0.6225586 0.6738281,-1.2890625 1.4868164,-1.2890625 0.7177735,0 1.2084961,0.3735352 1.2084961,1.2304688 0,0.1904297 -0.029297,0.3588867 -0.029297,0.3955078 0,0.095215 0.065918,0.1098633 0.1245118,0.1098633 0.095215,0 0.102539,-0.029297 0.1391601,-0.1611328 z m 0,0" style="fill:#ffffff;fill-opacity:1;fill-rule:nonzero;stroke:none" aria-label="S" transform="matrix(2.1333333,0,0,2.1333333,293.38187,142.81333)" />
    <path id="path17" d="M -21.2601,0 H 21.2601" style="fill:none;stroke:#121619;stroke-width:0.3985;stroke-linecap:butt;stroke-linejoin:miter;stroke-miterlimit:10;stroke-dasharray:none;stroke-opacity:1" transform="matrix(2.1333333,0,0,-2.1333333,443.7584,137.00427)" />
    <path id="path18" d="M -8.50403,-8.50403 H 8.50403 V 8.50403 H -8.50403 Z" style="fill:#78a9ff;fill-opacity:1;fill-rule:nonzero;stroke:#78a9ff;stroke-width:0.3985;stroke-linecap:butt;stroke-linejoin:miter;stroke-miterlimit:10;stroke-dasharray:none;stroke-opacity:1" transform="matrix(2.1333333,0,0,-2.1333333,443.7584,137.00427)" />
    <path id="path19" d="m 3.6038721,-4.8197266 c 0.073242,-0.2856445 0.080566,-0.3076171 0.402832,-0.3076171 h 0.6079102 c 0.8276367,0 0.9228515,0.2636718 0.9228515,0.6665039 0,0.1977539 -0.043945,0.5419921 -0.05127,0.5786132 -0.021973,0.087891 -0.029297,0.1611329 -0.029297,0.1757813 0,0.1025391 0.073242,0.1245117 0.1245117,0.1245117 0.087891,0 0.1171875,-0.043945 0.1391602,-0.1977539 l 0.2197266,-1.4941406 c 0,-0.1098633 -0.095215,-0.1098633 -0.2416993,-0.1098633 H 1.0037744 c -0.19775389,0 -0.21240233,0 -0.27099608,0.1611328 l -0.48339844,1.3842774 c -0.0146484,0.036621 -0.0439453,0.102539 -0.0439453,0.1464843 0,0.065918 0.0585937,0.1098633 0.12451172,0.1098633 0.0878906,0 0.10253906,-0.036621 0.14648437,-0.168457 0.45410157,-1.2817383 0.68847653,-1.3769531 1.89697263,-1.3769531 h 0.3149414 c 0.234375,0 0.2416992,0.014648 0.2416992,0.073242 0,0.021973 -0.029297,0.1831055 -0.036621,0.2197266 l -1.0546875,4.18212891 c -0.065918,0.30029297 -0.095215,0.38818359 -0.9228516,0.38818359 -0.25634766,0 -0.33691406,0 -0.33691406,0.15380859 0,0.007324 0,0.109863285 0.13916015,0.109863285 0.21240235,0 0.76171871,-0.021972655 0.98144531,-0.021972655 h 0.6738281 c 0.2270508,0 0.7836914,0.021972655 1.003418,0.021972655 0.065918,0 0.1831055,0 0.1831055,-0.153808595 0,-0.10986328 -0.087891,-0.10986328 -0.300293,-0.10986328 -0.1904297,0 -0.2563477,0 -0.4614258,-0.0146484 -0.2563476,-0.0219726 -0.2856445,-0.0585938 -0.2856445,-0.16113281 0,-0.0292969 0.00732,-0.065918 0.029297,-0.13916016 z m 0,0" style="fill:#ffffff;fill-opacity:1;fill-rule:nonzero;stroke:none" aria-label="T" transform="matrix(2.1333333,0,0,2.1333333,437.24533,142.81333)" />
  </g>
</svg>