<svg width="561" height="351" viewBox="0 0 561 351" fill="none" xmlns="http://www.w3.org/2000/svg">
<g clip-path="url(#clip0_35_3654)">
<rect x="0.5" y="0.5" width="560" height="350" fill="white" fill-opacity="0.8" stroke="#DDE1E6"/>
<rect x="101.5" y="74.5" width="356" height="216" rx="4.5" stroke="black" stroke-dasharray="6 6"/>
<rect opacity="0.4" y="47" width="561" height="46" fill="#F2F4F8"/>
<rect opacity="0.4" y="324" width="561" height="46" fill="#F2F4F8"/>
<rect opacity="0.4" y="231" width="561" height="47" fill="#F2F4F8"/>
<rect opacity="0.4" y="139" width="561" height="46" fill="#F2F4F8"/>
<path d="M202.699 48.0394C202.699 45.917 202.016 43.8569 200.265 43.8569C197.277 43.8569 194.097 49.9538 194.097 54.5316C194.097 55.4888 194.311 58.7141 196.552 58.7141C199.454 58.7141 202.699 52.7629 202.699 48.0394ZM196.232 50.9734C196.552 49.7457 197 47.9978 197.854 46.5204C198.558 45.2719 199.305 44.2731 200.244 44.2731C200.948 44.2731 201.418 44.8557 201.418 46.8533C201.418 47.6024 201.354 48.6428 200.735 50.9734H196.232ZM200.586 51.5976C200.052 53.6368 199.604 54.9478 198.835 56.2587C198.216 57.3199 197.469 58.2979 196.573 58.2979C195.911 58.2979 195.378 57.7985 195.378 55.7385C195.378 54.3859 195.719 52.971 196.061 51.5976H200.586Z" fill="black"/>
<path d="M204.813 54.4943C204.813 54.2494 204.63 54.0713 204.366 54.0713C204.068 54.0713 203.736 54.3384 203.736 54.6724C203.736 54.9173 203.92 55.0954 204.183 55.0954C204.481 55.0954 204.813 54.8282 204.813 54.4943ZM203.14 58.5796L202.522 60.1158C202.464 60.2828 202.407 60.4164 202.407 60.6056C202.407 61.1511 202.843 61.5518 203.45 61.5518C204.561 61.5518 205.031 59.9934 205.031 59.8487C205.031 59.7373 204.939 59.7039 204.859 59.7039C204.722 59.7039 204.699 59.7819 204.664 59.8932C204.401 60.7837 203.931 61.2401 203.473 61.2401C203.335 61.2401 203.198 61.1845 203.198 60.8839C203.198 60.6167 203.278 60.4164 203.427 60.0713C203.541 59.7707 203.656 59.4702 203.782 59.1696L204.137 58.2679C204.24 58.0119 204.378 57.6668 204.378 57.4776C204.378 56.921 203.92 56.5314 203.335 56.5314C202.224 56.5314 201.743 58.0898 201.743 58.2346C201.743 58.3347 201.823 58.3793 201.915 58.3793C202.063 58.3793 202.075 58.3125 202.109 58.2012C202.43 57.1436 202.957 56.8431 203.301 56.8431C203.461 56.8431 203.576 56.8987 203.576 57.2104C203.576 57.3218 203.564 57.4776 203.45 57.8115L203.14 58.5796Z" fill="black"/>
<path d="M191.23 61.3442C191.23 61.2857 191.23 61.2468 190.872 60.9156C188.767 58.9481 187.588 55.7338 187.588 51.7597C187.588 47.9805 188.578 44.7273 191.019 42.4286C191.23 42.2532 191.23 42.2143 191.23 42.1558C191.23 42.039 191.125 42 191.04 42C190.767 42 189.041 43.4026 188.009 45.3117C186.936 47.2792 186.451 49.3636 186.451 51.7597C186.451 53.4935 186.746 55.8117 187.841 57.8961C189.083 60.2338 190.809 61.5 191.04 61.5C191.125 61.5 191.23 61.461 191.23 61.3442Z" fill="black"/>
<path d="M212.256 51.7597C212.256 50.2792 212.045 47.8636 210.866 45.6039C209.624 43.2662 207.898 42 207.667 42C207.582 42 207.477 42.039 207.477 42.1558C207.477 42.2143 207.477 42.2532 207.835 42.5844C209.94 44.5519 211.119 47.7662 211.119 51.7403C211.119 55.5195 210.129 58.7727 207.688 61.0714C207.477 61.2468 207.477 61.2857 207.477 61.3442C207.477 61.461 207.582 61.5 207.667 61.5C207.94 61.5 209.666 60.0974 210.698 58.1883C211.771 56.2013 212.256 54.0974 212.256 51.7597Z" fill="black"/>
<line x1="69" y1="111.5" x2="503" y2="111.5" stroke="black"/>
<line x1="69" y1="146.5" x2="503" y2="146.5" stroke="black"/>
<line x1="69" y1="181.5" x2="503" y2="181.5" stroke="black"/>
<line x1="69" y1="216.5" x2="503" y2="216.5" stroke="black"/>
<line x1="69" y1="251.5" x2="503" y2="251.5" stroke="black"/>
<path fill-rule="evenodd" clip-rule="evenodd" d="M52.3996 103.2H53.5996C54.5937 103.2 55.3996 102.394 55.3996 101.4V96.5998C55.3996 95.6057 54.5937 94.7998 53.5996 94.7998H52.3996C51.4055 94.7998 50.5996 95.6057 50.5996 96.5998V101.4C50.5996 102.394 51.4055 103.2 52.3996 103.2ZM51.7996 96.5998C51.7996 96.2684 52.0682 95.9998 52.3996 95.9998H53.5996C53.931 95.9998 54.1996 96.2684 54.1996 96.5998V101.4C54.1996 101.731 53.931 102 53.5996 102H52.3996C52.0682 102 51.7996 101.731 51.7996 101.4V96.5998Z" fill="#161616"/>
<path d="M58.0545 105L57 104.46L59.6804 99L57 93.54L58.0545 93L61 99L59.5272 102L58.0545 105Z" fill="#161616"/>
<rect x="47" y="93" width="1" height="12" fill="#161616"/>
<path fill-rule="evenodd" clip-rule="evenodd" d="M52.3996 243.2H53.5996C54.5937 243.2 55.3996 242.394 55.3996 241.4V236.6C55.3996 235.606 54.5937 234.8 53.5996 234.8H52.3996C51.4055 234.8 50.5996 235.606 50.5996 236.6V241.4C50.5996 242.394 51.4055 243.2 52.3996 243.2ZM51.7996 236.6C51.7996 236.268 52.0682 236 52.3996 236H53.5996C53.931 236 54.1996 236.268 54.1996 236.6V241.4C54.1996 241.731 53.931 242 53.5996 242H52.3996C52.0682 242 51.7996 241.731 51.7996 241.4V236.6Z" fill="#161616"/>
<path d="M58.0545 245L57 244.46L59.6804 239L57 233.54L58.0545 233L61 239L59.5272 242L58.0545 245Z" fill="#161616"/>
<rect x="47" y="233" width="1" height="12" fill="#161616"/>
<rect width="134" height="185" transform="translate(116 91)" fill="#0043CE"/>
<path d="M184.101 194.145C183.054 198.208 179.584 200.587 176.773 200.587C174.619 200.587 173.154 199.194 173.154 196.786C173.154 196.67 173.154 195.799 173.483 194.522L176.414 183.118C176.683 182.132 176.743 181.842 178.866 181.842C179.405 181.842 179.704 181.842 179.704 181.319C179.704 181 179.435 181 179.255 181C178.717 181 178.089 181.058 177.52 181.058H173.991C173.423 181.058 172.795 181 172.226 181C172.017 181 171.658 181 171.658 181.551C171.658 181.842 171.867 181.842 172.436 181.842C174.23 181.842 174.23 182.074 174.23 182.393C174.23 182.567 174.021 183.408 173.871 183.902L171.269 194.058C171.179 194.377 171 195.161 171 195.944C171 199.136 173.363 201.429 176.623 201.429C179.644 201.429 182.994 199.107 184.519 195.422C184.729 194.929 184.998 193.913 185.178 193.129C185.477 192.085 186.105 189.531 186.314 188.777L187.451 184.424C187.84 182.915 188.079 181.958 190.711 181.842C190.95 181.813 191.07 181.58 191.07 181.319C191.07 181 190.801 181 190.681 181C190.262 181 189.724 181.058 189.305 181.058H187.899C186.045 181.058 185.088 181 185.058 181C184.878 181 184.519 181 184.519 181.551C184.519 181.842 184.759 181.842 184.968 181.842C186.763 181.9 186.882 182.567 186.882 183.089C186.882 183.35 186.882 183.437 186.763 183.844L184.101 194.145Z" fill="white"/>
<path d="M151.625 146.8H153.907L156.021 151H157.351L155.111 146.688C156.385 146.394 157.071 145.428 157.071 144C157.071 142.222 156.049 141.228 154.341 141.228H150.449V151H151.625V146.8ZM151.625 145.792V142.264H154.341C155.265 142.264 155.811 142.768 155.811 143.664V144.392C155.811 145.288 155.265 145.792 154.341 145.792H151.625ZM161.963 151.168C163.321 151.168 164.357 150.496 164.819 149.516L164.021 148.942C163.643 149.74 162.943 150.188 162.033 150.188C160.689 150.188 159.891 149.25 159.891 148.004V147.668H165.085V147.136C165.085 145.092 163.895 143.608 161.963 143.608C160.003 143.608 158.715 145.092 158.715 147.388C158.715 149.684 160.003 151.168 161.963 151.168ZM161.963 144.546C163.111 144.546 163.881 145.4 163.881 146.674V146.828H159.891V146.73C159.891 145.47 160.745 144.546 161.963 144.546ZM167.483 151H168.603V144.756H170.157V143.776H168.603V141.62H170.157V140.64H169.065C168.001 140.64 167.483 141.326 167.483 142.32V143.776H166.307V144.756H167.483V151ZM174.451 151.168C175.809 151.168 176.845 150.496 177.307 149.516L176.509 148.942C176.131 149.74 175.431 150.188 174.521 150.188C173.177 150.188 172.379 149.25 172.379 148.004V147.668H177.573V147.136C177.573 145.092 176.383 143.608 174.451 143.608C172.491 143.608 171.203 145.092 171.203 147.388C171.203 149.684 172.491 151.168 174.451 151.168ZM174.451 144.546C175.599 144.546 176.369 145.4 176.369 146.674V146.828H172.379V146.73C172.379 145.47 173.233 144.546 174.451 144.546ZM180.699 151V146.1C180.699 145.414 181.427 144.896 182.631 144.896H183.289V143.776H182.855C181.679 143.776 181.021 144.42 180.769 145.106H180.699V143.776H179.579V151H180.699ZM187.527 151.168C188.885 151.168 189.921 150.496 190.383 149.516L189.585 148.942C189.207 149.74 188.507 150.188 187.597 150.188C186.253 150.188 185.455 149.25 185.455 148.004V147.668H190.649V147.136C190.649 145.092 189.459 143.608 187.527 143.608C185.567 143.608 184.279 145.092 184.279 147.388C184.279 149.684 185.567 151.168 187.527 151.168ZM187.527 144.546C188.675 144.546 189.445 145.4 189.445 146.674V146.828H185.455V146.73C185.455 145.47 186.309 144.546 187.527 144.546ZM193.775 151V145.988C193.775 145.064 194.643 144.616 195.539 144.616C196.617 144.616 197.177 145.274 197.177 146.562V151H198.297V146.366C198.297 144.616 197.359 143.608 195.875 143.608C194.797 143.608 194.181 144.14 193.831 144.952H193.775V143.776H192.655V151H193.775ZM203.46 151.168C204.832 151.168 205.77 150.496 206.232 149.46L205.42 148.914C205.028 149.74 204.37 150.174 203.46 150.174C202.13 150.174 201.444 149.264 201.444 148.004V146.772C201.444 145.512 202.13 144.602 203.46 144.602C204.342 144.602 204.958 145.036 205.224 145.778L206.162 145.302C205.742 144.308 204.888 143.608 203.46 143.608C201.43 143.608 200.24 145.078 200.24 147.388C200.24 149.698 201.43 151.168 203.46 151.168ZM210.607 151.168C211.965 151.168 213.001 150.496 213.463 149.516L212.665 148.942C212.287 149.74 211.587 150.188 210.677 150.188C209.333 150.188 208.535 149.25 208.535 148.004V147.668H213.729V147.136C213.729 145.092 212.539 143.608 210.607 143.608C208.647 143.608 207.359 145.092 207.359 147.388C207.359 149.684 208.647 151.168 210.607 151.168ZM210.607 144.546C211.755 144.546 212.525 145.4 212.525 146.674V146.828H208.535V146.73C208.535 145.47 209.389 144.546 210.607 144.546ZM148.442 171V166.828H151.158C152.908 166.828 153.888 165.75 153.888 164.028C153.888 162.306 152.908 161.228 151.158 161.228H147.266V171H148.442ZM148.442 162.264H151.158C152.082 162.264 152.628 162.768 152.628 163.664V164.392C152.628 165.288 152.082 165.792 151.158 165.792H148.442V162.264ZM156.787 171V166.1C156.787 165.414 157.515 164.896 158.719 164.896H159.377V163.776H158.943C157.767 163.776 157.109 164.42 156.857 165.106H156.787V163.776H155.667V171H156.787ZM163.615 171.168C164.973 171.168 166.009 170.496 166.471 169.516L165.673 168.942C165.295 169.74 164.595 170.188 163.685 170.188C162.341 170.188 161.543 169.25 161.543 168.004V167.668H166.737V167.136C166.737 165.092 165.547 163.608 163.615 163.608C161.655 163.608 160.367 165.092 160.367 167.388C160.367 169.684 161.655 171.168 163.615 171.168ZM163.615 164.546C164.763 164.546 165.533 165.4 165.533 166.674V166.828H161.543V166.73C161.543 165.47 162.397 164.546 163.615 164.546ZM168.743 173.8H169.863V169.824H169.919C170.353 170.72 171.039 171.168 172.033 171.168C173.839 171.168 174.973 169.698 174.973 167.388C174.973 165.078 173.839 163.608 172.033 163.608C171.039 163.608 170.297 164.042 169.919 164.952H169.863V163.776H168.743V173.8ZM171.725 170.16C170.703 170.16 169.863 169.628 169.863 168.69V166.002C169.863 165.204 170.703 164.616 171.725 164.616C172.985 164.616 173.769 165.484 173.769 166.772V168.004C173.769 169.292 172.985 170.16 171.725 170.16ZM182.904 171V170.02H182.078V166.044C182.078 164.518 181.042 163.608 179.306 163.608C178.004 163.608 177.136 164.252 176.744 165.022L177.416 165.652C177.808 164.994 178.382 164.574 179.25 164.574C180.398 164.574 180.958 165.134 180.958 166.156V166.87H179.53C177.43 166.87 176.45 167.626 176.45 168.984C176.45 170.328 177.346 171.168 178.872 171.168C179.88 171.168 180.65 170.706 180.958 169.824H181.028C181.112 170.496 181.448 171 182.274 171H182.904ZM179.054 170.216C178.186 170.216 177.626 169.81 177.626 169.096V168.802C177.626 168.102 178.2 167.71 179.474 167.71H180.958V168.9C180.958 169.642 180.16 170.216 179.054 170.216ZM185.783 171V166.1C185.783 165.414 186.511 164.896 187.715 164.896H188.373V163.776H187.939C186.763 163.776 186.105 164.42 185.853 165.106H185.783V163.776H184.663V171H185.783ZM195.789 171V170.02H194.963V166.044C194.963 164.518 193.927 163.608 192.191 163.608C190.889 163.608 190.021 164.252 189.629 165.022L190.301 165.652C190.693 164.994 191.267 164.574 192.135 164.574C193.283 164.574 193.843 165.134 193.843 166.156V166.87H192.415C190.315 166.87 189.335 167.626 189.335 168.984C189.335 170.328 190.231 171.168 191.757 171.168C192.765 171.168 193.535 170.706 193.843 169.824H193.913C193.997 170.496 194.333 171 195.159 171H195.789ZM191.939 170.216C191.071 170.216 190.511 169.81 190.511 169.096V168.802C190.511 168.102 191.085 167.71 192.359 167.71H193.843V168.9C193.843 169.642 193.045 170.216 191.939 170.216ZM200.543 171V170.02H199.073V164.756H200.655V163.776H199.073V161.774H198.065V163.118C198.065 163.608 197.911 163.776 197.435 163.776H196.763V164.756H197.953V169.81C197.953 170.51 198.373 171 199.143 171H200.543ZM203.175 162.082C203.651 162.082 203.861 161.83 203.861 161.452V161.27C203.861 160.892 203.651 160.64 203.175 160.64C202.699 160.64 202.489 160.892 202.489 161.27V161.452C202.489 161.83 202.699 162.082 203.175 162.082ZM202.615 171H203.735V163.776H202.615V171ZM209.005 171.168C210.937 171.168 212.267 169.684 212.267 167.388C212.267 165.092 210.937 163.608 209.005 163.608C207.073 163.608 205.743 165.092 205.743 167.388C205.743 169.684 207.073 171.168 209.005 171.168ZM209.005 170.174C207.801 170.174 206.947 169.432 206.947 167.906V166.87C206.947 165.344 207.801 164.602 209.005 164.602C210.209 164.602 211.063 165.344 211.063 166.87V167.906C211.063 169.432 210.209 170.174 209.005 170.174ZM215.389 171V165.988C215.389 165.064 216.257 164.616 217.153 164.616C218.231 164.616 218.791 165.274 218.791 166.562V171H219.911V166.366C219.911 164.616 218.973 163.608 217.489 163.608C216.411 163.608 215.795 164.14 215.445 164.952H215.389V163.776H214.269V171H215.389Z" fill="white"/>
<rect width="134" height="185" transform="translate(310 91)" fill="#0043CE"/>
<path d="M394.918 188.039C394.918 185.917 394.235 183.857 392.485 183.857C389.497 183.857 386.317 189.954 386.317 194.532C386.317 195.489 386.53 198.714 388.771 198.714C391.674 198.714 394.918 192.763 394.918 188.039ZM388.451 190.973C388.771 189.746 389.22 187.998 390.073 186.52C390.778 185.272 391.525 184.273 392.464 184.273C393.168 184.273 393.638 184.856 393.638 186.853C393.638 187.602 393.574 188.643 392.955 190.973H388.451ZM392.805 191.598C392.272 193.637 391.823 194.948 391.055 196.259C390.436 197.32 389.689 198.298 388.793 198.298C388.131 198.298 387.597 197.799 387.597 195.738C387.597 194.386 387.939 192.971 388.28 191.598H392.805Z" fill="white"/>
<path d="M347.977 151L351.267 141.228H350.049L348.425 146.156L347.319 149.824H347.249L346.171 146.156L344.561 141.228H343.301L346.549 151H347.977ZM358.359 151V150.02H357.533V146.044C357.533 144.518 356.497 143.608 354.761 143.608C353.459 143.608 352.591 144.252 352.199 145.022L352.871 145.652C353.263 144.994 353.837 144.574 354.705 144.574C355.853 144.574 356.413 145.134 356.413 146.156V146.87H354.985C352.885 146.87 351.905 147.626 351.905 148.984C351.905 150.328 352.801 151.168 354.327 151.168C355.335 151.168 356.105 150.706 356.413 149.824H356.483C356.567 150.496 356.903 151 357.729 151H358.359ZM354.509 150.216C353.641 150.216 353.081 149.81 353.081 149.096V148.802C353.081 148.102 353.655 147.71 354.929 147.71H356.413V148.9C356.413 149.642 355.615 150.216 354.509 150.216ZM361.237 151V146.1C361.237 145.414 361.965 144.896 363.169 144.896H363.827V143.776H363.393C362.217 143.776 361.559 144.42 361.307 145.106H361.237V143.776H360.117V151H361.237ZM365.978 142.082C366.454 142.082 366.664 141.83 366.664 141.452V141.27C366.664 140.892 366.454 140.64 365.978 140.64C365.502 140.64 365.292 140.892 365.292 141.27V141.452C365.292 141.83 365.502 142.082 365.978 142.082ZM365.418 151H366.538V143.776H365.418V151ZM374.958 151V150.02H374.132V146.044C374.132 144.518 373.096 143.608 371.36 143.608C370.058 143.608 369.19 144.252 368.798 145.022L369.47 145.652C369.862 144.994 370.436 144.574 371.304 144.574C372.452 144.574 373.012 145.134 373.012 146.156V146.87H371.584C369.484 146.87 368.504 147.626 368.504 148.984C368.504 150.328 369.4 151.168 370.926 151.168C371.934 151.168 372.704 150.706 373.012 149.824H373.082C373.166 150.496 373.502 151 374.328 151H374.958ZM371.108 150.216C370.24 150.216 369.68 149.81 369.68 149.096V148.802C369.68 148.102 370.254 147.71 371.528 147.71H373.012V148.9C373.012 149.642 372.214 150.216 371.108 150.216ZM379.712 151V150.02H378.242V144.756H379.824V143.776H378.242V141.774H377.234V143.118C377.234 143.608 377.08 143.776 376.604 143.776H375.932V144.756H377.122V149.81C377.122 150.51 377.542 151 378.312 151H379.712ZM382.345 142.082C382.821 142.082 383.031 141.83 383.031 141.452V141.27C383.031 140.892 382.821 140.64 382.345 140.64C381.869 140.64 381.659 140.892 381.659 141.27V141.452C381.659 141.83 381.869 142.082 382.345 142.082ZM381.785 151H382.905V143.776H381.785V151ZM388.175 151.168C390.107 151.168 391.437 149.684 391.437 147.388C391.437 145.092 390.107 143.608 388.175 143.608C386.243 143.608 384.913 145.092 384.913 147.388C384.913 149.684 386.243 151.168 388.175 151.168ZM388.175 150.174C386.971 150.174 386.117 149.432 386.117 147.906V146.87C386.117 145.344 386.971 144.602 388.175 144.602C389.379 144.602 390.233 145.344 390.233 146.87V147.906C390.233 149.432 389.379 150.174 388.175 150.174ZM394.559 151V145.988C394.559 145.064 395.427 144.616 396.323 144.616C397.401 144.616 397.961 145.274 397.961 146.562V151H399.081V146.366C399.081 144.616 398.143 143.608 396.659 143.608C395.581 143.608 394.965 144.14 394.615 144.952H394.559V143.776H393.439V151H394.559ZM407.436 151V150.02H406.61V146.044C406.61 144.518 405.574 143.608 403.838 143.608C402.536 143.608 401.668 144.252 401.276 145.022L401.948 145.652C402.34 144.994 402.914 144.574 403.782 144.574C404.93 144.574 405.49 145.134 405.49 146.156V146.87H404.062C401.962 146.87 400.982 147.626 400.982 148.984C400.982 150.328 401.878 151.168 403.404 151.168C404.412 151.168 405.182 150.706 405.49 149.824H405.56C405.644 150.496 405.98 151 406.806 151H407.436ZM403.586 150.216C402.718 150.216 402.158 149.81 402.158 149.096V148.802C402.158 148.102 402.732 147.71 404.006 147.71H405.49V148.9C405.49 149.642 404.692 150.216 403.586 150.216ZM411.378 151V150.02H410.314V140.64H409.194V149.838C409.194 150.51 409.614 151 410.384 151H411.378ZM363.407 171V166.576H367.649V165.54H363.407V162.264H368.055V161.228H362.231V171H363.407ZM372.474 171.168C374.406 171.168 375.736 169.684 375.736 167.388C375.736 165.092 374.406 163.608 372.474 163.608C370.542 163.608 369.212 165.092 369.212 167.388C369.212 169.684 370.542 171.168 372.474 171.168ZM372.474 170.174C371.27 170.174 370.416 169.432 370.416 167.906V166.87C370.416 165.344 371.27 164.602 372.474 164.602C373.678 164.602 374.532 165.344 374.532 166.87V167.906C374.532 169.432 373.678 170.174 372.474 170.174ZM378.858 171V166.1C378.858 165.414 379.586 164.896 380.79 164.896H381.448V163.776H381.014C379.838 163.776 379.18 164.42 378.928 165.106H378.858V163.776H377.738V171H378.858ZM384.158 171V165.988C384.158 165.064 384.998 164.616 385.88 164.616C386.944 164.616 387.434 165.274 387.434 166.562V171H388.554V165.988C388.554 165.064 389.366 164.616 390.248 164.616C391.34 164.616 391.83 165.288 391.83 166.562V171H392.95V166.366C392.95 164.616 392.068 163.608 390.598 163.608C389.366 163.608 388.666 164.294 388.4 165.078H388.372C387.98 164.042 387.112 163.608 386.16 163.608C385.04 163.608 384.536 164.21 384.214 164.952H384.158V163.776H383.038V171H384.158Z" fill="white"/>
<line x1="53" y1="211" x2="53" y2="224" stroke="black" stroke-width="2" stroke-linecap="round" stroke-dasharray="0.1 6"/>
<line x1="53" y1="140" x2="53" y2="153" stroke="black" stroke-width="2" stroke-linecap="round" stroke-dasharray="0.1 6"/>
<path d="M48 180.484C48.011 180.42 48.0275 180.334 48.0495 180.227C48.0714 180.121 48.1374 179.918 48.2473 179.619C48.3572 179.32 48.467 179.069 48.5769 178.866C48.6868 178.663 48.8682 178.466 49.1209 178.273C49.3737 178.081 49.6264 177.99 49.8792 178.001C50.2748 178.001 50.6045 178.097 50.8682 178.289C51.132 178.482 51.2968 178.663 51.3628 178.834C51.4287 179.005 51.4617 179.117 51.4617 179.17C51.4617 179.192 51.4672 179.202 51.4781 179.202L51.6595 179.026C52.3298 178.343 53.0936 178.001 53.9508 178.001C54.5442 178.001 55.0222 178.145 55.3849 178.434C55.7475 178.722 55.9343 179.144 55.9453 179.699C55.9563 180.254 55.7475 181.092 55.3189 182.213C54.8903 183.334 54.6815 184.012 54.6925 184.247C54.6925 184.525 54.7859 184.664 54.9728 184.664C55.0387 184.664 55.0882 184.658 55.1211 184.648C55.4398 184.594 55.7255 184.391 55.9783 184.039C56.231 183.687 56.4234 183.26 56.5552 182.758C56.5772 182.672 56.6871 182.63 56.8849 182.63C57.1047 182.63 57.2146 182.672 57.2146 182.758C57.2146 182.769 57.1926 182.849 57.1487 182.998C57.0607 183.308 56.9399 183.612 56.786 183.911C56.6322 184.21 56.3794 184.509 56.0277 184.808C55.6761 185.107 55.297 185.251 54.8903 185.24C54.3738 185.24 54.0002 185.096 53.7694 184.808C53.5387 184.52 53.4233 184.221 53.4233 183.911C53.4233 183.708 53.6211 183.067 54.0167 181.989C54.4123 180.911 54.6156 180.099 54.6266 179.555C54.6266 178.925 54.3848 178.61 53.9013 178.61H53.8189C52.8738 178.61 52.0771 179.149 51.4287 180.227L51.3133 180.42L50.7693 182.566C50.4067 183.964 50.1979 184.717 50.1429 184.824C50.0001 185.112 49.7638 185.256 49.4341 185.256C49.2913 185.256 49.1759 185.224 49.0879 185.16C49 185.096 48.9396 185.032 48.9066 184.968C48.8737 184.904 48.8627 184.851 48.8737 184.808C48.8737 184.669 49.0825 183.799 49.5001 182.197C49.9176 180.596 50.1374 179.725 50.1594 179.587C50.1704 179.533 50.1759 179.41 50.1759 179.218C50.1759 178.802 50.044 178.594 49.7803 178.594C49.3627 178.594 49.0165 179.128 48.7418 180.195C48.6758 180.409 48.6429 180.521 48.6429 180.532C48.6209 180.596 48.5165 180.628 48.3297 180.628H48.0989C48.033 180.564 48 180.516 48 180.484Z" fill="black"/>
<path d="M190.649 195.826C190.771 195.338 190.826 195.311 191.355 195.311H192.333C193.5 195.311 194.369 195.654 194.369 196.683C194.369 197.356 194.016 199.295 191.287 199.295H189.753L190.649 195.826ZM192.536 199.453C194.22 199.097 195.536 198.042 195.536 196.907C195.536 195.878 194.464 194.929 192.577 194.929H188.898C188.626 194.929 188.504 194.929 188.504 195.179C188.504 195.311 188.599 195.311 188.857 195.311C189.672 195.311 189.672 195.417 189.672 195.562C189.672 195.588 189.672 195.667 189.617 195.865L187.785 202.961C187.663 203.423 187.635 203.555 186.699 203.555C186.387 203.555 186.292 203.555 186.292 203.806C186.292 203.937 186.441 203.937 186.482 203.937C186.726 203.937 187.011 203.911 187.269 203.911H188.871C189.115 203.911 189.4 203.937 189.645 203.937C189.753 203.937 189.903 203.937 189.903 203.687C189.903 203.555 189.78 203.555 189.577 203.555C188.749 203.555 188.749 203.449 188.749 203.318C188.749 203.304 188.749 203.212 188.776 203.106L189.685 199.558H191.314C192.604 199.558 192.848 200.35 192.848 200.785C192.848 200.983 192.713 201.497 192.618 201.84C192.468 202.447 192.428 202.592 192.428 202.843C192.428 203.779 193.215 204.214 194.125 204.214C195.224 204.214 195.699 202.909 195.699 202.724C195.699 202.632 195.631 202.592 195.55 202.592C195.441 202.592 195.414 202.671 195.387 202.777C195.061 203.713 194.505 203.951 194.165 203.951C193.826 203.951 193.609 203.806 193.609 203.212C193.609 202.895 193.772 201.695 193.785 201.629C193.853 201.141 193.853 201.088 193.853 200.983C193.853 200.02 193.052 199.611 192.536 199.453Z" fill="white"/>
<path d="M397.033 194.494C397.033 194.249 396.85 194.071 396.586 194.071C396.288 194.071 395.956 194.338 395.956 194.672C395.956 194.917 396.139 195.095 396.403 195.095C396.701 195.095 397.033 194.828 397.033 194.494ZM395.36 198.58L394.742 200.116C394.684 200.283 394.627 200.416 394.627 200.606C394.627 201.151 395.063 201.552 395.67 201.552C396.781 201.552 397.251 199.993 397.251 199.849C397.251 199.737 397.159 199.704 397.079 199.704C396.941 199.704 396.919 199.782 396.884 199.893C396.621 200.784 396.151 201.24 395.693 201.24C395.555 201.24 395.418 201.184 395.418 200.884C395.418 200.617 395.498 200.416 395.647 200.071C395.761 199.771 395.876 199.47 396.002 199.17L396.357 198.268C396.46 198.012 396.598 197.667 396.598 197.478C396.598 196.921 396.139 196.531 395.555 196.531C394.444 196.531 393.963 198.09 393.963 198.235C393.963 198.335 394.043 198.379 394.135 198.379C394.283 198.379 394.295 198.312 394.329 198.201C394.65 197.144 395.177 196.843 395.521 196.843C395.681 196.843 395.796 196.899 395.796 197.21C395.796 197.322 395.784 197.478 395.67 197.812L395.36 198.58Z" fill="white"/>
<path d="M383.45 201.344C383.45 201.286 383.45 201.247 383.092 200.916C380.987 198.948 379.808 195.734 379.808 191.76C379.808 187.981 380.797 184.727 383.239 182.429C383.45 182.253 383.45 182.214 383.45 182.156C383.45 182.039 383.344 182 383.26 182C382.987 182 381.26 183.403 380.229 185.312C379.155 187.279 378.671 189.364 378.671 191.76C378.671 193.494 378.966 195.812 380.06 197.896C381.302 200.234 383.029 201.5 383.26 201.5C383.344 201.5 383.45 201.461 383.45 201.344Z" fill="white"/>
<path d="M404.475 191.76C404.475 190.279 404.265 187.864 403.086 185.604C401.844 183.266 400.118 182 399.886 182C399.802 182 399.697 182.039 399.697 182.156C399.697 182.214 399.697 182.253 400.055 182.584C402.16 184.552 403.339 187.766 403.339 191.74C403.339 195.519 402.349 198.773 399.907 201.071C399.697 201.247 399.697 201.286 399.697 201.344C399.697 201.461 399.802 201.5 399.886 201.5C400.16 201.5 401.886 200.097 402.918 198.188C403.991 196.201 404.475 194.097 404.475 191.76Z" fill="white"/>
<path d="M363.101 194.216C362.054 198.279 358.584 200.658 355.773 200.658C353.619 200.658 352.154 199.265 352.154 196.857C352.154 196.741 352.154 195.87 352.483 194.594L355.414 183.19C355.683 182.203 355.743 181.913 357.866 181.913C358.405 181.913 358.704 181.913 358.704 181.39C358.704 181.071 358.435 181.071 358.255 181.071C357.717 181.071 357.089 181.129 356.52 181.129H352.991C352.423 181.129 351.795 181.071 351.226 181.071C351.017 181.071 350.658 181.071 350.658 181.623C350.658 181.913 350.867 181.913 351.436 181.913C353.23 181.913 353.23 182.145 353.23 182.464C353.23 182.638 353.021 183.48 352.871 183.973L350.269 194.129C350.179 194.449 350 195.232 350 196.015C350 199.207 352.363 201.5 355.623 201.5C358.644 201.5 361.994 199.178 363.519 195.493C363.729 195 363.998 193.984 364.178 193.201C364.477 192.156 365.105 189.603 365.314 188.848L366.451 184.495C366.84 182.986 367.079 182.029 369.711 181.913C369.95 181.884 370.07 181.652 370.07 181.39C370.07 181.071 369.801 181.071 369.681 181.071C369.262 181.071 368.724 181.129 368.305 181.129H366.899C365.045 181.129 364.088 181.071 364.058 181.071C363.878 181.071 363.519 181.071 363.519 181.623C363.519 181.913 363.759 181.913 363.968 181.913C365.763 181.971 365.882 182.638 365.882 183.161C365.882 183.422 365.882 183.509 365.763 183.915L363.101 194.216Z" fill="white"/>
<path d="M175.748 55.1451C174.701 59.2076 171.232 61.5871 168.42 61.5871C166.267 61.5871 164.801 60.1942 164.801 57.7857C164.801 57.6696 164.801 56.7991 165.13 55.5223L168.061 44.1183C168.33 43.1317 168.39 42.8415 170.514 42.8415C171.052 42.8415 171.351 42.8415 171.351 42.3192C171.351 42 171.082 42 170.903 42C170.364 42 169.736 42.058 169.168 42.058H165.638C165.07 42.058 164.442 42 163.874 42C163.664 42 163.305 42 163.305 42.5513C163.305 42.8415 163.515 42.8415 164.083 42.8415C165.878 42.8415 165.878 43.0737 165.878 43.3929C165.878 43.567 165.668 44.4085 165.519 44.9018L162.917 55.058C162.827 55.3772 162.647 56.1607 162.647 56.9442C162.647 60.1362 165.01 62.4286 168.271 62.4286C171.292 62.4286 174.642 60.1071 176.167 56.4219C176.376 55.9286 176.646 54.9129 176.825 54.1295C177.124 53.0848 177.752 50.5313 177.962 49.7768L179.098 45.4241C179.487 43.9152 179.726 42.9576 182.358 42.8415C182.598 42.8125 182.717 42.5804 182.717 42.3192C182.717 42 182.448 42 182.328 42C181.91 42 181.371 42.058 180.953 42.058H179.547C177.692 42.058 176.735 42 176.705 42C176.526 42 176.167 42 176.167 42.5513C176.167 42.8415 176.406 42.8415 176.616 42.8415C178.41 42.8996 178.53 43.567 178.53 44.0893C178.53 44.3504 178.53 44.4375 178.41 44.8438L175.748 55.1451Z" fill="black"/>
<path d="M121.652 61.2856L118.236 51.5136H116.738L113.322 61.2856H114.512L115.492 58.4016H119.44L120.42 61.2856H121.652ZM119.146 57.3656H115.772L117.424 52.6056H117.494L119.146 57.3656ZM124.439 61.2856V56.2736C124.439 55.3496 125.307 54.9016 126.203 54.9016C127.281 54.9016 127.841 55.5596 127.841 56.8476V61.2856H128.961V56.6516C128.961 54.9016 128.023 53.8936 126.539 53.8936C125.461 53.8936 124.845 54.4256 124.495 55.2376H124.439V54.0616H123.319V61.2856H124.439ZM133.606 61.4536C135.258 61.4536 136.28 60.5996 136.28 59.1996C136.28 58.1076 135.664 57.4076 134.068 57.1696L133.508 57.0856C132.612 56.9456 132.122 56.6656 132.122 55.9656C132.122 55.2796 132.612 54.8456 133.536 54.8456C134.46 54.8456 135.076 55.2796 135.398 55.7276L136.14 55.0556C135.552 54.3276 134.782 53.8936 133.62 53.8936C132.15 53.8936 131.044 54.5936 131.044 56.0216C131.044 57.3656 132.038 57.9116 133.368 58.1076L133.942 58.1916C134.894 58.3316 135.202 58.7656 135.202 59.3256C135.202 60.0676 134.642 60.5016 133.69 60.5016C132.78 60.5016 132.108 60.0956 131.548 59.3956L130.75 60.0396C131.394 60.8936 132.276 61.4536 133.606 61.4536ZM144.298 61.2856V60.3056H143.472V56.3296C143.472 54.8036 142.436 53.8936 140.7 53.8936C139.398 53.8936 138.53 54.5376 138.138 55.3076L138.81 55.9376C139.202 55.2796 139.776 54.8596 140.644 54.8596C141.792 54.8596 142.352 55.4196 142.352 56.4416V57.1556H140.924C138.824 57.1556 137.844 57.9116 137.844 59.2696C137.844 60.6136 138.74 61.4536 140.266 61.4536C141.274 61.4536 142.044 60.9916 142.352 60.1096H142.422C142.506 60.7816 142.842 61.2856 143.668 61.2856H144.298ZM140.448 60.5016C139.58 60.5016 139.02 60.0956 139.02 59.3816V59.0876C139.02 58.3876 139.594 57.9956 140.868 57.9956H142.352V59.1856C142.352 59.9276 141.554 60.5016 140.448 60.5016ZM149.053 61.2856V60.3056H147.583V55.0416H149.165V54.0616H147.583V52.0596H146.575V53.4036C146.575 53.8936 146.421 54.0616 145.945 54.0616H145.273V55.0416H146.463V60.0956C146.463 60.7956 146.883 61.2856 147.653 61.2856H149.053ZM155.969 61.2856V60.3056H151.671L155.857 54.9016V54.0616H150.523V55.0416H154.499L150.397 60.3476V61.2856H155.969Z" fill="#121619"/>
<path d="M373.672 197.346C374.119 196.657 374.527 196.35 375.197 196.299C375.328 196.286 375.433 196.286 375.433 196.056C375.433 196.005 375.407 195.929 375.289 195.929C375.052 195.929 374.487 195.954 374.251 195.954C373.869 195.954 373.475 195.929 373.107 195.929C373.002 195.929 372.871 195.929 372.871 196.171C372.871 196.286 372.989 196.299 373.041 196.299C373.528 196.337 373.58 196.567 373.58 196.72C373.58 196.912 373.396 197.206 373.383 197.218L369.257 203.577L368.337 196.695C368.337 196.325 369.02 196.299 369.165 196.299C369.362 196.299 369.48 196.299 369.48 196.056C369.48 195.929 369.335 195.929 369.296 195.929C369.073 195.929 368.81 195.954 368.586 195.954H367.85C366.891 195.954 366.497 195.929 366.484 195.929C366.405 195.929 366.247 195.929 366.247 196.159C366.247 196.299 366.339 196.299 366.549 196.299C367.22 196.299 367.259 196.414 367.298 196.733L368.35 204.612C368.389 204.88 368.389 204.918 368.573 204.918C368.731 204.918 368.797 204.88 368.928 204.675L373.672 197.346Z" fill="white"/>
<path d="M178.53 59.8084C178.132 60.4606 177.745 60.6817 177.199 60.7149C177.074 60.7259 176.983 60.7259 176.983 60.9249C176.983 60.9912 177.04 61.0354 177.119 61.0354C177.324 61.0354 177.836 61.0133 178.041 61.0133C178.371 61.0133 178.735 61.0354 179.054 61.0354C179.122 61.0354 179.258 61.0354 179.258 60.8254C179.258 60.7259 179.167 60.7149 179.099 60.7149C178.837 60.6927 178.621 60.6043 178.621 60.339C178.621 60.1842 178.69 60.0626 178.837 59.8194L179.702 58.4266H182.603C182.615 58.5261 182.615 58.6145 182.626 58.714C182.66 59.0014 182.797 60.1511 182.797 60.3611C182.797 60.6927 182.217 60.7149 182.035 60.7149C181.909 60.7149 181.784 60.7149 181.784 60.9138C181.784 61.0354 181.887 61.0354 181.955 61.0354C182.148 61.0354 182.376 61.0133 182.569 61.0133H183.218C183.912 61.0133 184.412 61.0354 184.424 61.0354C184.503 61.0354 184.629 61.0354 184.629 60.8254C184.629 60.7149 184.526 60.7149 184.356 60.7149C183.73 60.7149 183.718 60.6154 183.684 60.2837L182.99 53.3858C182.967 53.1647 182.922 53.1426 182.797 53.1426C182.683 53.1426 182.615 53.1647 182.512 53.3305L178.53 59.8084ZM179.896 58.106L182.182 54.3917L182.569 58.106H179.896Z" fill="black"/>
</g>
<defs>
<clipPath id="clip0_35_3654">
<rect width="561" height="351" fill="white"/>
</clipPath>
</defs>
</svg>
