<?xml version="1.0" encoding="UTF-8"?><!DOCTYPE svg  PUBLIC '-//W3C//DTD SVG 1.1//EN'  'http://www.w3.org/Graphics/SVG/1.1/DTD/svg11.dtd'><svg width="421.52pt" height="314.74pt" version="1.1" viewBox="0 0 421.52 314.74" xmlns="http://www.w3.org/2000/svg" xmlns:xlink="http://www.w3.org/1999/xlink"><defs><style type="text/css">*{stroke-linejoin: round; stroke-linecap: butt}</style></defs><path d="m0 314.74h421.52v-314.74h-421.52z" fill="#ffffff"/><path d="m57.199 273.31h357.12v-266.11h-357.12z" fill="#ffffff"/><defs><path id="582f0dceba9" d="m0 0v3.5" stroke="#000000" stroke-width=".8"/></defs><use x="85.918816" y="273.312" stroke="#000000" stroke-width=".8" xlink:href="#582f0dceba9"/><g transform="translate(84.355 306.83) rotate(-70) scale(.1 -.1)"><defs><path id="DejaVuSans-30" transform="scale(.015625)" d="m2034 4250q-487 0-733-480-245-479-245-1442 0-959 245-1439 246-480 733-480 491 0 736 480 246 480 246 1439 0 963-246 1442-245 480-736 480zm0 500q785 0 1199-621 414-620 414-1801 0-1178-414-1799-414-620-1199-620-784 0-1198 620-414 621-414 1799 0 1181 414 1801 414 621 1198 621z"/></defs><use xlink:href="#DejaVuSans-30"/><use x="63.623047" xlink:href="#DejaVuSans-30"/><use x="127.246094" xlink:href="#DejaVuSans-30"/><use x="190.869141" xlink:href="#DejaVuSans-30"/></g><use x="135.865669" y="273.312" stroke="#000000" stroke-width=".8" xlink:href="#582f0dceba9"/><g transform="translate(134.3 306.83) rotate(-70) scale(.1 -.1)"><defs><path id="DejaVuSans-31" transform="scale(.015625)" d="m794 531h1031v3560l-1122-225v575l1116 225h631v-4135h1031v-531h-2687v531z"/></defs><use xlink:href="#DejaVuSans-30"/><use x="63.623047" xlink:href="#DejaVuSans-30"/><use x="127.246094" xlink:href="#DejaVuSans-30"/><use x="190.869141" xlink:href="#DejaVuSans-31"/></g><use x="185.812522" y="273.312" stroke="#000000" stroke-width=".8" xlink:href="#582f0dceba9"/><g transform="translate(184.25 306.83) rotate(-70) scale(.1 -.1)"><use xlink:href="#DejaVuSans-30"/><use x="63.623047" xlink:href="#DejaVuSans-30"/><use x="127.246094" xlink:href="#DejaVuSans-31"/><use x="190.869141" xlink:href="#DejaVuSans-30"/></g><use x="235.759375" y="273.312" stroke="#000000" stroke-width=".8" xlink:href="#582f0dceba9"/><g transform="translate(234.2 306.83) rotate(-70) scale(.1 -.1)"><use xlink:href="#DejaVuSans-30"/><use x="63.623047" xlink:href="#DejaVuSans-30"/><use x="127.246094" xlink:href="#DejaVuSans-31"/><use x="190.869141" xlink:href="#DejaVuSans-31"/></g><use x="285.706228" y="273.312" stroke="#000000" stroke-width=".8" xlink:href="#582f0dceba9"/><g transform="translate(284.14 306.83) rotate(-70) scale(.1 -.1)"><use xlink:href="#DejaVuSans-30"/><use x="63.623047" xlink:href="#DejaVuSans-31"/><use x="127.246094" xlink:href="#DejaVuSans-30"/><use x="190.869141" xlink:href="#DejaVuSans-30"/></g><use x="335.653081" y="273.312" stroke="#000000" stroke-width=".8" xlink:href="#582f0dceba9"/><g transform="translate(334.09 306.83) rotate(-70) scale(.1 -.1)"><use xlink:href="#DejaVuSans-30"/><use x="63.623047" xlink:href="#DejaVuSans-31"/><use x="127.246094" xlink:href="#DejaVuSans-31"/><use x="190.869141" xlink:href="#DejaVuSans-30"/></g><use x="385.599934" y="273.312" stroke="#000000" stroke-width=".8" xlink:href="#582f0dceba9"/><g transform="translate(384.04 306.83) rotate(-70) scale(.1 -.1)"><use xlink:href="#DejaVuSans-30"/><use x="63.623047" xlink:href="#DejaVuSans-31"/><use x="127.246094" xlink:href="#DejaVuSans-31"/><use x="190.869141" xlink:href="#DejaVuSans-31"/></g><path d="m57.199 273.31h357.12" clip-path="url(#ccf42897b7b)" fill="none" stroke="#b0b0b0" stroke-dasharray="2.96,1.28" stroke-width=".8"/><defs><path id="e3702dedb94" d="m0 0h-3.5" stroke="#000000" stroke-width=".8"/></defs><use x="57.199375" y="273.312" stroke="#000000" stroke-width=".8" xlink:href="#e3702dedb94"/><g transform="translate(43.837 277.11) scale(.1 -.1)"><use xlink:href="#DejaVuSans-30"/></g><path d="m57.199 211.41h357.12" clip-path="url(#ccf42897b7b)" fill="none" stroke="#b0b0b0" stroke-dasharray="2.96,1.28" stroke-width=".8"/><use x="57.199375" y="211.408213" stroke="#000000" stroke-width=".8" xlink:href="#e3702dedb94"/><g transform="translate(31.112 215.21) scale(.1 -.1)"><defs><path id="DejaVuSans-32" transform="scale(.015625)" d="m1228 531h2203v-531h-2962v531q359 372 979 998 621 627 780 809 303 340 423 576 121 236 121 464 0 372-261 606-261 235-680 235-297 0-627-103-329-103-704-313v638q381 153 712 231 332 78 607 78 725 0 1156-363 431-362 431-968 0-288-108-546-107-257-392-607-78-91-497-524-418-433-1181-1211z"/><path id="DejaVuSans-35" transform="scale(.015625)" d="m691 4666h2478v-532h-1900v-1143q137 47 274 70 138 23 276 23 781 0 1237-428 457-428 457-1159 0-753-469-1171-469-417-1322-417-294 0-599 50-304 50-629 150v635q281-153 581-228t634-75q541 0 856 284 316 284 316 772 0 487-316 771-315 285-856 285-253 0-505-56-251-56-513-175v2344z"/></defs><use xlink:href="#DejaVuSans-32"/><use x="63.623047" xlink:href="#DejaVuSans-35"/><use x="127.246094" xlink:href="#DejaVuSans-30"/></g><path d="m57.199 149.5h357.12" clip-path="url(#ccf42897b7b)" fill="none" stroke="#b0b0b0" stroke-dasharray="2.96,1.28" stroke-width=".8"/><use x="57.199375" y="149.504426" stroke="#000000" stroke-width=".8" xlink:href="#e3702dedb94"/><g transform="translate(31.112 153.3) scale(.1 -.1)"><use xlink:href="#DejaVuSans-35"/><use x="63.623047" xlink:href="#DejaVuSans-30"/><use x="127.246094" xlink:href="#DejaVuSans-30"/></g><path d="m57.199 87.601h357.12" clip-path="url(#ccf42897b7b)" fill="none" stroke="#b0b0b0" stroke-dasharray="2.96,1.28" stroke-width=".8"/><use x="57.199375" y="87.600639" stroke="#000000" stroke-width=".8" xlink:href="#e3702dedb94"/><g transform="translate(31.112 91.4) scale(.1 -.1)"><defs><path id="DejaVuSans-37" transform="scale(.015625)" d="m525 4666h3e3v-269l-1694-4397h-659l1594 4134h-2241v532z"/></defs><use xlink:href="#DejaVuSans-37"/><use x="63.623047" xlink:href="#DejaVuSans-35"/><use x="127.246094" xlink:href="#DejaVuSans-30"/></g><path d="m57.199 25.697h357.12" clip-path="url(#ccf42897b7b)" fill="none" stroke="#b0b0b0" stroke-dasharray="2.96,1.28" stroke-width=".8"/><use x="57.199375" y="25.696852" stroke="#000000" stroke-width=".8" xlink:href="#e3702dedb94"/><g transform="translate(24.749 29.496) scale(.1 -.1)"><use xlink:href="#DejaVuSans-31"/><use x="63.623047" xlink:href="#DejaVuSans-30"/><use x="127.246094" xlink:href="#DejaVuSans-30"/><use x="190.869141" xlink:href="#DejaVuSans-30"/></g><g transform="translate(17.838 161.04) rotate(-90) scale(.14 -.14)"><defs><path id="DejaVuSans-43" transform="scale(.015625)" d="m4122 4306v-665q-319 297-680 443-361 147-767 147-800 0-1225-489t-425-1414q0-922 425-1411t1225-489q406 0 767 147t680 444v-660q-331-225-702-338-370-112-782-112-1060 0-1670 648-609 649-609 1771 0 1125 609 1773 610 649 1670 649 418 0 788-111 371-111 696-333z"/><path id="DejaVuSans-6f" transform="scale(.015625)" d="m1959 3097q-462 0-731-361t-269-989 267-989q268-361 733-361 460 0 728 362 269 363 269 988 0 622-269 986-268 364-728 364zm0 487q750 0 1178-488 429-487 429-1349 0-859-429-1349-428-489-1178-489-753 0-1180 489-426 490-426 1349 0 862 426 1349 427 488 1180 488z"/><path id="DejaVuSans-75" transform="scale(.015625)" d="m544 1381v2119h575v-2097q0-497 193-746 194-248 582-248 465 0 735 297 271 297 271 810v1984h575v-3500h-575v538q-209-319-486-474-276-155-642-155-603 0-916 375-312 375-312 1097zm1447 2203z"/><path id="DejaVuSans-6e" transform="scale(.015625)" d="m3513 2113v-2113h-575v2094q0 497-194 743-194 247-581 247-466 0-735-297-269-296-269-809v-1978h-578v3500h578v-544q207 316 486 472 280 156 646 156 603 0 912-373 310-373 310-1098z"/><path id="DejaVuSans-74" transform="scale(.015625)" d="m1172 4494v-994h1184v-447h-1184v-1900q0-428 117-550t477-122h590v-481h-590q-666 0-919 248-253 249-253 905v1900h-422v447h422v994h578z"/></defs><use xlink:href="#DejaVuSans-43"/><use x="69.824219" xlink:href="#DejaVuSans-6f"/><use x="131.005859" xlink:href="#DejaVuSans-75"/><use x="194.384766" xlink:href="#DejaVuSans-6e"/><use x="257.763672" xlink:href="#DejaVuSans-74"/></g><path d="m73.432 273.31h24.973v-1.9809h-24.973z" clip-path="url(#ccf42897b7b)" fill="#1f77b4"/><path d="m123.38 273.31h24.973v-1.9809h-24.973z" clip-path="url(#ccf42897b7b)" fill="#1f77b4"/><path d="m173.33 273.31h24.973v-2.9714h-24.973z" clip-path="url(#ccf42897b7b)" fill="#1f77b4"/><path d="m223.27 273.31h24.973v-1.2381h-24.973z" clip-path="url(#ccf42897b7b)" fill="#1f77b4"/><path d="m273.22 273.31h24.973v-2.7238h-24.973z" clip-path="url(#ccf42897b7b)" fill="#1f77b4"/><path d="m323.17 273.31h24.973v-0.74284h-24.973z" clip-path="url(#ccf42897b7b)" fill="#1f77b4"/><path d="m373.11 273.31h24.973v-241.92h-24.973z" clip-path="url(#ccf42897b7b)" fill="#1f77b4"/><path d="m57.199 273.31v-266.11" fill="none" stroke="#000000" stroke-linecap="square" stroke-width=".8"/><path d="m414.32 273.31v-266.11" fill="none" stroke="#000000" stroke-linecap="square" stroke-width=".8"/><path d="m57.199 273.31h357.12" fill="none" stroke="#000000" stroke-linecap="square" stroke-width=".8"/><path d="m57.199 7.2h357.12" fill="none" stroke="#000000" stroke-linecap="square" stroke-width=".8"/><g transform="translate(82.738 269.15) scale(.1 -.1)"><defs><path id="DejaVuSans-38" transform="scale(.015625)" d="m2034 2216q-450 0-708-241-257-241-257-662 0-422 257-663 258-241 708-241t709 242q260 243 260 662 0 421-258 662-257 241-711 241zm-631 268q-406 100-633 378-226 279-226 679 0 559 398 884 399 325 1092 325 697 0 1094-325t397-884q0-400-227-679-226-278-629-378 456-106 710-416 255-309 255-755 0-679-414-1042-414-362-1186-362-771 0-1186 362-414 363-414 1042 0 446 256 755 257 310 713 416zm-231 997q0-362 226-565 227-203 636-203 407 0 636 203 230 203 230 565 0 363-230 566-229 203-636 203-409 0-636-203-226-203-226-566z"/></defs><use xlink:href="#DejaVuSans-38"/></g><g transform="translate(132.68 269.15) scale(.1 -.1)"><use xlink:href="#DejaVuSans-38"/></g><g transform="translate(179.45 268.11) scale(.1 -.1)"><use xlink:href="#DejaVuSans-31"/><use x="63.623047" xlink:href="#DejaVuSans-32"/></g><g transform="translate(232.58 269.93) scale(.1 -.1)"><use xlink:href="#DejaVuSans-35"/></g><g transform="translate(279.34 268.37) scale(.1 -.1)"><use xlink:href="#DejaVuSans-31"/><use x="63.623047" xlink:href="#DejaVuSans-31"/></g><g transform="translate(332.47 270.45) scale(.1 -.1)"><defs><path id="DejaVuSans-33" transform="scale(.015625)" d="m2597 2516q453-97 707-404 255-306 255-756 0-690-475-1069-475-378-1350-378-293 0-604 58t-642 174v609q262-153 574-231 313-78 654-78 593 0 904 234t311 681q0 413-289 645-289 233-804 233h-544v519h569q465 0 712 186t247 536q0 359-255 551-254 193-729 193-260 0-557-57-297-56-653-174v562q360 100 674 150t592 50q719 0 1137-327 419-326 419-882 0-388-222-655t-631-370z"/></defs><use xlink:href="#DejaVuSans-33"/></g><g transform="translate(376.06 17.216) scale(.1 -.1)"><defs><path id="DejaVuSans-39" transform="scale(.015625)" d="m703 97v575q238-113 481-172 244-59 479-59 625 0 954 420 330 420 377 1277-181-269-460-413-278-144-615-144-700 0-1108 423-408 424-408 1159 0 718 425 1152 425 435 1131 435 810 0 1236-621 427-620 427-1801 0-1103-524-1761-523-658-1407-658-238 0-482 47-243 47-506 141zm1256 1978q425 0 673 290 249 291 249 798 0 503-249 795-248 292-673 292t-673-292-248-795q0-507 248-798 248-290 673-290z"/></defs><use xlink:href="#DejaVuSans-39"/><use x="63.623047" xlink:href="#DejaVuSans-37"/><use x="127.246094" xlink:href="#DejaVuSans-37"/></g><defs><clipPath id="ccf42897b7b"><rect x="57.199" y="7.2" width="357.12" height="266.11"/></clipPath></defs></svg>