<?xml version='1.0' encoding='utf-8'?>
<svg xmlns="http://www.w3.org/2000/svg" xmlns:ns1="http://sodipodi.sourceforge.net/DTD/sodipodi-0.dtd" xmlns:ns2="http://www.inkscape.org/namespaces/inkscape" version="1.1" id="svg1" width="100%" height="auto" viewBox="-20.0 -20.0 417.0 124.323653" ns1:docname="svg_fix_XXXXXX.svg">
  <rect id="path1" x="-20.0" y="-20.0" width="417.0" height="124.323653" fill="white" /><ns1:namedview id="namedview1" pagecolor="#ffffff" bordercolor="#000000" borderopacity="0.25" ns2:showpageshadow="2" ns2:pageopacity="0.0" ns2:pagecheckerboard="0" ns2:deskcolor="#d1d1d1" />
  <defs id="defs1" />
  <g id="g1" transform="translate(-110.71875,-34.483359)">
    <path id="path2" d="M -53.8379,21.2601 H 53.8379" style="fill:none;stroke:#121619;stroke-width:0.3985;stroke-linecap:butt;stroke-linejoin:miter;stroke-miterlimit:10;stroke-dasharray:none;stroke-opacity:1" transform="matrix(2.6666667,0,0,-2.6666667,298.6,104.992)" />
    <path id="path3" d="M -53.8379,0 H 53.8379" style="fill:none;stroke:#121619;stroke-width:0.3985;stroke-linecap:butt;stroke-linejoin:miter;stroke-miterlimit:10;stroke-dasharray:none;stroke-opacity:1" transform="matrix(2.6666667,0,0,-2.6666667,298.6,104.992)" />
    <path id="path4" d="m -26.35425,21.2601 c 0,1.10047 -0.89209,1.99256 -1.99255,1.99256 -1.10048,0 -1.99256,-0.89209 -1.99256,-1.99256 0,-1.10048 0.89208,-1.99255 1.99256,-1.99255 1.10046,0 1.99255,0.89207 1.99255,1.99255 z" style="fill:#78a9ff;fill-opacity:1;fill-rule:nonzero;stroke:none" transform="matrix(2.6666667,0,0,-2.6666667,298.6,104.992)" />
    <path id="path5" d="M 1.99255,0 C 1.99255,1.10046 1.10046,1.99255 0,1.99255 -1.10046,1.99255 -1.99255,1.10046 -1.99255,0 c 0,-1.10046 0.89209,-1.99255 1.99255,-1.99255 1.10046,0 1.99255,0.89209 1.99255,1.99255 z" style="fill:#78a9ff;fill-opacity:1;fill-rule:nonzero;stroke:none" transform="matrix(2.6666667,0,0,-2.6666667,298.6,104.992)" />
    <path id="path6" d="m 30.33936,21.2601 c 0,1.10047 -0.89208,1.99256 -1.99256,1.99256 -1.10046,0 -1.99255,-0.89209 -1.99255,-1.99256 0,-1.10048 0.89209,-1.99255 1.99255,-1.99255 1.10048,0 1.99256,0.89207 1.99256,1.99255 z" style="fill:#78a9ff;fill-opacity:1;fill-rule:nonzero;stroke:none" transform="matrix(2.6666667,0,0,-2.6666667,298.6,104.992)" />
    <path id="path7" d="m -23.36542,0 c 0,2.75117 -2.23021,4.98138 -4.98138,4.98138 -2.75118,0 -4.98139,-2.23021 -4.98139,-4.98138 0,-2.75117 2.23021,-4.98138 4.98139,-4.98138 2.75117,0 4.98138,2.23021 4.98138,4.98138 z" style="fill:#78a9ff;fill-opacity:1;fill-rule:nonzero;stroke:#78a9ff;stroke-width:0.3985;stroke-linecap:butt;stroke-linejoin:miter;stroke-miterlimit:10;stroke-dasharray:none;stroke-opacity:1" transform="matrix(2.6666667,0,0,-2.6666667,298.6,104.992)" />
    <path id="path8" d="m 3.9201406,-6.5158125 v 2.8476563 H 1.0783437 v 0.7617187 h 2.8417969 v 2.84765625 H 4.6877187 V -2.9064375 H 7.5295156 V -3.6681562 H 4.6877187 v -2.8476563 z m 0,0" style="fill:#ffffff;fill-opacity:1;fill-rule:nonzero;stroke:none" aria-label="+" transform="matrix(2.6666667,0,0,2.6666667,211.53067,113.688)" />
    <path id="path9" d="m 4.98138,21.2601 c 0,2.75118 -2.23021,4.98139 -4.98138,4.98139 -2.75117,0 -4.98138,-2.23021 -4.98138,-4.98139 0,-2.75119 2.23021,-4.98138 4.98138,-4.98138 2.75117,0 4.98138,2.23019 4.98138,4.98138 z" style="fill:#78a9ff;fill-opacity:1;fill-rule:nonzero;stroke:#78a9ff;stroke-width:0.3985;stroke-linecap:butt;stroke-linejoin:miter;stroke-miterlimit:10;stroke-dasharray:none;stroke-opacity:1" transform="matrix(2.6666667,0,0,-2.6666667,298.6,104.992)" />
    <path id="path10" d="m 3.919332,-6.5150898 v 2.8476562 H 1.0775352 v 0.7617188 H 3.919332 v 2.84765621 H 4.6869102 V -2.9057148 H 7.528707 V -3.6674336 H 4.6869102 v -2.8476562 z m 0,0" style="fill:#ffffff;fill-opacity:1;fill-rule:nonzero;stroke:none" aria-label="+" transform="matrix(2.6666667,0,0,2.6666667,287.12267,56.994667)" />
    <path id="path11" d="m 33.32819,0 c 0,2.75117 -2.23021,4.98138 -4.98139,4.98138 -2.75117,0 -4.98138,-2.23021 -4.98138,-4.98138 0,-2.75117 2.23021,-4.98138 4.98138,-4.98138 2.75118,0 4.98139,2.23021 4.98139,4.98138 z" style="fill:#78a9ff;fill-opacity:1;fill-rule:nonzero;stroke:#78a9ff;stroke-width:0.3985;stroke-linecap:butt;stroke-linejoin:miter;stroke-miterlimit:10;stroke-dasharray:none;stroke-opacity:1" transform="matrix(2.6666667,0,0,-2.6666667,298.6,104.992)" />
    <path id="path12" d="m 3.9199883,-6.5158125 v 2.8476563 H 1.0781914 v 0.7617187 h 2.8417969 v 2.84765625 H 4.6875664 V -2.9064375 H 7.5293633 V -3.6681562 H 4.6875664 v -2.8476563 z m 0,0" style="fill:#ffffff;fill-opacity:1;fill-rule:nonzero;stroke:none" aria-label="+" transform="matrix(2.6666667,0,0,2.6666667,362.71467,113.688)" />
    <path id="path13" d="M -28.3468,21.2601 V 5.18063" style="fill:none;stroke:#78a9ff;stroke-width:0.79701;stroke-linecap:butt;stroke-linejoin:miter;stroke-miterlimit:10;stroke-dasharray:none;stroke-opacity:1" transform="matrix(2.6666667,0,0,-2.6666667,298.6,104.992)" />
    <path id="path14" d="M 0,0 V 16.07945" style="fill:none;stroke:#78a9ff;stroke-width:0.79701;stroke-linecap:butt;stroke-linejoin:miter;stroke-miterlimit:10;stroke-dasharray:none;stroke-opacity:1" transform="matrix(2.6666667,0,0,-2.6666667,298.6,104.992)" />
    <path id="path15" d="M 28.3468,21.2601 V 5.18063" style="fill:none;stroke:#78a9ff;stroke-width:0.79701;stroke-linecap:butt;stroke-linejoin:miter;stroke-miterlimit:10;stroke-dasharray:none;stroke-opacity:1" transform="matrix(2.6666667,0,0,-2.6666667,298.6,104.992)" />
    <g id="g15" aria-label="∣ϕ⟩" transform="matrix(2.6666667,0,0,2.6666667,109.62933,54.144)">
      <path id="path16" d="M 1.1951523,-6.0935508 V 1.7111367 H 1.704918 v -7.8046875 z m 0,0" style="fill:#121619;fill-opacity:1;fill-rule:nonzero;stroke:none" />
      <path id="path17" d="m 6.5813828,-5.425582 c 0,-0.09375 -0.087891,-0.1054688 -0.1230469,-0.1054688 -0.1054687,0 -0.1113281,0.046875 -0.1464843,0.1757813 l -0.4511719,1.828125 c -1.4121094,0.058594 -2.5546875,1.1191406 -2.5546875,2.15625 0,0.79687497 0.6972656,1.41796872 1.6464844,1.45898434 -0.064453,0.24609375 -0.1230469,0.50390625 -0.1875,0.75 -0.09375,0.37499996 -0.1640625,0.66796876 -0.1640625,0.69140626 0,0.00586 0,0.09375 0.1171875,0.09375 0.1054687,0 0.1113281,-0.035156 0.1523437,-0.1875 L 5.2044297,0.09394922 C 6.6165391,0.02363672 7.7473984,-1.019332 7.7473984,-2.0564414 c 0,-0.9140625 -0.8027343,-1.4355469 -1.6347656,-1.4648438 z m -0.5214844,2.1210937 c 0.5859375,0.046875 1.1191407,0.3632813 1.1191407,1.1074219 0,0.7558594 -0.5507813,1.92773437 -1.9160157,2.06249999 z m -1.0546875,3.17578127 c -0.2519531,-0.0117188 -1.125,-0.140625 -1.125,-1.10742187 0,-0.8496094 0.6386719,-1.9453125 1.9160157,-2.0625 z m 0,0" style="fill:#121619;fill-opacity:1;fill-rule:nonzero;stroke:none" />
      <path id="path18" d="M 9.1477891,1.7990273 10.583336,-2.191207 9.1477891,-6.1814414 8.6673203,-6.0056602 10.102867,-2.191207 8.6673203,1.6232461 Z m 0,0" style="fill:#121619;fill-opacity:1;fill-rule:nonzero;stroke:none" />
    </g>
    <g id="g18" aria-label="∣ψ⟩" transform="matrix(2.6666667,0,0,2.6666667,107.53067,110.83733)">
      <path id="path19" d="m 1.1955312,-6.0942734 v 7.8046875 h 0.5097657 v -7.8046875 z m 0,0" style="fill:#121619;fill-opacity:1;fill-rule:nonzero;stroke:none" />
      <path id="path20" d="m 6.9494375,-5.2681016 c 0.029297,-0.1113281 0.029297,-0.1289062 0.029297,-0.1582031 0,-0.082031 -0.052734,-0.1054687 -0.1171875,-0.1054687 -0.1054688,0 -0.1113282,0.035156 -0.1464844,0.1699218 l -1.294922,5.20312504 C 4.8517812,-0.22317969 4.4650625,-0.46927344 4.4650625,-1.0376328 c 0,-0.1523438 0,-0.3574219 0.421875,-1.4179688 0.076172,-0.2167968 0.087891,-0.2871093 0.087891,-0.3808593 0,-0.4335938 -0.3515625,-0.6796875 -0.7207031,-0.6796875 -0.7851563,0 -1.1132813,1.125 -1.1132813,1.21875 0,0.076172 0.052734,0.1054687 0.1171875,0.1054687 0.1054688,0 0.1113282,-0.046875 0.1347657,-0.1289062 0.2109375,-0.6914063 0.5507812,-0.9726563 0.8378906,-0.9726563 0.1230469,0 0.1933594,0.082031 0.1933594,0.2636719 0,0.1816406 -0.070312,0.375 -0.1464844,0.5449219 -0.4042969,1.0605468 -0.4042969,1.2246093 -0.4042969,1.3945312 0,0.75585939 0.6503906,1.09570314 1.4824219,1.15429689 L 4.9982656,1.5229141 c 0,0.070312 0.052734,0.099609 0.1171875,0.099609 0.1054688,0 0.1113281,-0.029297 0.1582031,-0.1992187 0.041016,-0.1699219 0.011719,-0.058594 0.3339844,-1.34179689 0.328125,0 0.9433594,0 1.7226563,-0.74414062 0.3222656,-0.29296875 0.5039062,-0.62109379 0.5683593,-0.73242189 0.2636719,-0.5273437 0.375,-1.21875 0.375,-1.5058594 0,-0.6210937 -0.3632812,-0.6210937 -0.3925781,-0.6210937 -0.1933594,0 -0.4160156,0.2050781 -0.4160156,0.4160156 0,0.1230469 0.076172,0.1875 0.1113281,0.2226563 0.082031,0.070312 0.3222656,0.2753906 0.3222656,0.6621093 0,0.65625 -0.9023437,2.08007816 -2.2324218,2.08007816 z m 0,0" style="fill:#121619;fill-opacity:1;fill-rule:nonzero;stroke:none" />
      <path id="path21" d="M 9.9347891,1.7983047 11.370336,-2.1919297 9.9347891,-6.1821641 9.4543203,-6.0063828 10.889867,-2.1919297 9.4543203,1.6225234 Z m 0,0" style="fill:#121619;fill-opacity:1;fill-rule:nonzero;stroke:none" />
    </g>
    <g id="g21" aria-label="∣ψ⟩" transform="matrix(2.6666667,0,0,2.6666667,457.39733,54.144)">
      <path id="path22" d="m 1.1957266,-6.0935508 v 7.8046875 h 0.5097656 v -7.8046875 z m 0,0" style="fill:#121619;fill-opacity:1;fill-rule:nonzero;stroke:none" />
      <path id="path23" d="m 6.9496328,-5.2673789 c 0.029297,-0.1113281 0.029297,-0.1289063 0.029297,-0.1582031 0,-0.082031 -0.052734,-0.1054688 -0.1171875,-0.1054688 -0.1054688,0 -0.1113281,0.035156 -0.1464844,0.1699219 l -1.294922,5.20312499 C 4.8519766,-0.22245703 4.4652578,-0.46855078 4.4652578,-1.0369102 c 0,-0.1523437 0,-0.3574218 0.421875,-1.4179687 0.076172,-0.2167969 0.087891,-0.2871094 0.087891,-0.3808594 0,-0.4335937 -0.3515625,-0.6796875 -0.7207031,-0.6796875 -0.7851562,0 -1.1132812,1.125 -1.1132812,1.21875 0,0.076172 0.052734,0.1054688 0.1171875,0.1054688 0.1054687,0 0.1113281,-0.046875 0.1347656,-0.1289063 0.2109375,-0.6914062 0.5507812,-0.9726562 0.8378906,-0.9726562 0.1230469,0 0.1933594,0.082031 0.1933594,0.2636718 0,0.1816407 -0.070312,0.375 -0.1464844,0.5449219 -0.4042969,1.0605469 -0.4042969,1.2246094 -0.4042969,1.3945313 0,0.75585934 0.6503907,1.09570309 1.4824219,1.15429684 L 4.9984609,1.5236367 c 0,0.070312 0.052734,0.099609 0.1171875,0.099609 0.1054688,0 0.1113282,-0.029297 0.1582032,-0.1992188 0.041016,-0.1699218 0.011719,-0.058594 0.3339843,-1.34179683 0.328125,0 0.9433594,0 1.7226563,-0.74414063 0.3222656,-0.29296875 0.5039062,-0.62109374 0.5683594,-0.73242184 0.2636718,-0.5273438 0.375,-1.21875 0.375,-1.5058594 0,-0.6210938 -0.3632813,-0.6210938 -0.3925782,-0.6210938 -0.1933593,0 -0.4160156,0.2050782 -0.4160156,0.4160157 0,0.1230468 0.076172,0.1875 0.1113281,0.2226562 0.082031,0.070312 0.3222657,0.2753906 0.3222657,0.6621094 0,0.65625 -0.9023438,2.08007812 -2.2324219,2.08007812 z m 0,0" style="fill:#121619;fill-opacity:1;fill-rule:nonzero;stroke:none" />
      <path id="path24" d="M 9.9349844,1.7990273 11.370531,-2.191207 9.9349844,-6.1814414 9.4545156,-6.0056602 10.890062,-2.191207 9.4545156,1.6232461 Z m 0,0" style="fill:#121619;fill-opacity:1;fill-rule:nonzero;stroke:none" />
    </g>
    <g id="g24" aria-label="∣ϕ⟩" transform="matrix(2.6666667,0,0,2.6666667,457.39733,110.83733)">
      <path id="path25" d="m 1.1957266,-6.0942734 v 7.8046875 h 0.5097656 v -7.8046875 z m 0,0" style="fill:#121619;fill-opacity:1;fill-rule:nonzero;stroke:none" />
      <path id="path26" d="m 6.5804922,-5.4263047 c 0,-0.09375 -0.087891,-0.1054687 -0.1230469,-0.1054687 -0.1054687,0 -0.1113281,0.046875 -0.1464844,0.1757812 l -0.4511718,1.828125 c -1.4121094,0.058594 -2.5546875,1.1191406 -2.5546875,2.15625 0,0.79687501 0.6972656,1.41796876 1.6464843,1.45898439 -0.064453,0.24609375 -0.1230468,0.50390625 -0.1875,0.75 -0.09375,0.37500001 -0.1640625,0.66796871 -0.1640625,0.69140621 0,0.00586 0,0.09375 0.1171875,0.09375 0.1054688,0 0.1113282,-0.035156 0.1523438,-0.1875 L 5.2035391,0.09322656 c 1.4121093,-0.0703125 2.5429687,-1.11328126 2.5429687,-2.15039066 0,-0.9140625 -0.8027344,-1.4355468 -1.6347656,-1.4648437 z m -0.5214844,2.1210938 c 0.5859375,0.046875 1.1191406,0.3632812 1.1191406,1.1074218 0,0.7558594 -0.5507812,1.92773441 -1.9160156,2.06250004 z m -1.0546875,3.17578121 c -0.2519531,-0.0117188 -1.125,-0.140625 -1.125,-1.10742191 0,-0.8496093 0.6386719,-1.9453125 1.9160156,-2.0625 z m 0,0" style="fill:#121619;fill-opacity:1;fill-rule:nonzero;stroke:none" />
      <path id="path27" d="M 9.1483633,1.7983047 10.58391,-2.1919297 9.1483633,-6.1821641 8.6678945,-6.0063828 10.103441,-2.1919297 8.6678945,1.6225234 Z m 0,0" style="fill:#121619;fill-opacity:1;fill-rule:nonzero;stroke:none" />
    </g>
  </g>
</svg>