<?xml version="1.0" encoding="UTF-8"?><!DOCTYPE svg  PUBLIC '-//W3C//DTD SVG 1.1//EN'  'http://www.w3.org/Graphics/SVG/1.1/DTD/svg11.dtd'><svg width="453.53pt" height="338.19pt" version="1.1" viewBox="0 0 453.53 338.19" xmlns="http://www.w3.org/2000/svg" xmlns:xlink="http://www.w3.org/1999/xlink"><defs><style type="text/css">*{stroke-linejoin: round; stroke-linecap: butt}</style></defs><path d="m0 338.19h453.53v-338.19h-453.53z" fill="#ffffff"/><path d="m47.652 302.74h398.68v-295.54h-398.68z" fill="#ffffff"/><defs><path id="dc2f572e13d" d="m0 0v3.5" stroke="#000000" stroke-width=".8"/></defs><use x="77.85553" y="302.738529" stroke="#000000" stroke-width=".8" xlink:href="#dc2f572e13d"/><g transform="translate(78.467 330.27) rotate(-70) scale(.1 -.1)"><defs><path id="DejaVuSans-30" transform="scale(.015625)" d="m2034 4250q-487 0-733-480-245-479-245-1442 0-959 245-1439 246-480 733-480 491 0 736 480 246 480 246 1439 0 963-246 1442-245 480-736 480zm0 500q785 0 1199-621 414-620 414-1801 0-1178-414-1799-414-620-1199-620-784 0-1198 620-414 621-414 1799 0 1181 414 1801 414 621 1198 621z"/></defs><use xlink:href="#DejaVuSans-30"/><use transform="translate(63.623)" xlink:href="#DejaVuSans-30"/><use transform="translate(127.25)" xlink:href="#DejaVuSans-30"/></g><use x="126.180379" y="302.738529" stroke="#000000" stroke-width=".8" xlink:href="#dc2f572e13d"/><g transform="translate(126.79 330.27) rotate(-70) scale(.1 -.1)"><defs><path id="DejaVuSans-31" transform="scale(.015625)" d="m794 531h1031v3560l-1122-225v575l1116 225h631v-4135h1031v-531h-2687v531z"/></defs><use xlink:href="#DejaVuSans-30"/><use transform="translate(63.623)" xlink:href="#DejaVuSans-30"/><use transform="translate(127.25)" xlink:href="#DejaVuSans-31"/></g><use x="174.505227" y="302.738529" stroke="#000000" stroke-width=".8" xlink:href="#dc2f572e13d"/><g transform="translate(175.12 330.27) rotate(-70) scale(.1 -.1)"><use xlink:href="#DejaVuSans-30"/><use transform="translate(63.623)" xlink:href="#DejaVuSans-31"/><use transform="translate(127.25)" xlink:href="#DejaVuSans-30"/></g><use x="222.830076" y="302.738529" stroke="#000000" stroke-width=".8" xlink:href="#dc2f572e13d"/><g transform="translate(223.44 330.27) rotate(-70) scale(.1 -.1)"><use xlink:href="#DejaVuSans-30"/><use transform="translate(63.623)" xlink:href="#DejaVuSans-31"/><use transform="translate(127.25)" xlink:href="#DejaVuSans-31"/></g><use x="271.154924" y="302.738529" stroke="#000000" stroke-width=".8" xlink:href="#dc2f572e13d"/><g transform="translate(271.77 330.27) rotate(-70) scale(.1 -.1)"><use xlink:href="#DejaVuSans-31"/><use transform="translate(63.623)" xlink:href="#DejaVuSans-30"/><use transform="translate(127.25)" xlink:href="#DejaVuSans-30"/></g><use x="319.479773" y="302.738529" stroke="#000000" stroke-width=".8" xlink:href="#dc2f572e13d"/><g transform="translate(320.09 330.27) rotate(-70) scale(.1 -.1)"><use xlink:href="#DejaVuSans-31"/><use transform="translate(63.623)" xlink:href="#DejaVuSans-30"/><use transform="translate(127.25)" xlink:href="#DejaVuSans-31"/></g><use x="367.804621" y="302.738529" stroke="#000000" stroke-width=".8" xlink:href="#dc2f572e13d"/><g transform="translate(368.42 330.27) rotate(-70) scale(.1 -.1)"><use xlink:href="#DejaVuSans-31"/><use transform="translate(63.623)" xlink:href="#DejaVuSans-31"/><use transform="translate(127.25)" xlink:href="#DejaVuSans-30"/></g><use x="416.12947" y="302.738529" stroke="#000000" stroke-width=".8" xlink:href="#dc2f572e13d"/><g transform="translate(416.74 330.27) rotate(-70) scale(.1 -.1)"><use xlink:href="#DejaVuSans-31"/><use transform="translate(63.623)" xlink:href="#DejaVuSans-31"/><use transform="translate(127.25)" xlink:href="#DejaVuSans-31"/></g><path d="m47.652 302.74h398.68" clip-path="url(#e00d655c151)" fill="none" stroke="#b0b0b0" stroke-dasharray="2.96,1.28" stroke-width=".8"/><defs><path id="023174c46f2" d="m0 0h-3.5" stroke="#000000" stroke-width=".8"/></defs><use x="47.6525" y="302.738529" stroke="#000000" stroke-width=".8" xlink:href="#023174c46f2"/><g transform="translate(24.749 306.54) scale(.1 -.1)"><defs><path id="DejaVuSans-2e" transform="scale(.015625)" d="m684 794h660v-794h-660v794z"/></defs><use xlink:href="#DejaVuSans-30"/><use transform="translate(63.623)" xlink:href="#DejaVuSans-2e"/><use transform="translate(95.41)" xlink:href="#DejaVuSans-30"/></g><path d="m47.652 233.96h398.68" clip-path="url(#e00d655c151)" fill="none" stroke="#b0b0b0" stroke-dasharray="2.96,1.28" stroke-width=".8"/><use x="47.6525" y="233.958653" stroke="#000000" stroke-width=".8" xlink:href="#023174c46f2"/><g transform="translate(24.749 237.76) scale(.1 -.1)"><defs><path id="DejaVuSans-32" transform="scale(.015625)" d="m1228 531h2203v-531h-2962v531q359 372 979 998 621 627 780 809 303 340 423 576 121 236 121 464 0 372-261 606-261 235-680 235-297 0-627-103-329-103-704-313v638q381 153 712 231 332 78 607 78 725 0 1156-363 431-362 431-968 0-288-108-546-107-257-392-607-78-91-497-524-418-433-1181-1211z"/></defs><use xlink:href="#DejaVuSans-30"/><use transform="translate(63.623)" xlink:href="#DejaVuSans-2e"/><use transform="translate(95.41)" xlink:href="#DejaVuSans-32"/></g><path d="m47.652 165.18h398.68" clip-path="url(#e00d655c151)" fill="none" stroke="#b0b0b0" stroke-dasharray="2.96,1.28" stroke-width=".8"/><use x="47.6525" y="165.178778" stroke="#000000" stroke-width=".8" xlink:href="#023174c46f2"/><g transform="translate(24.749 168.98) scale(.1 -.1)"><defs><path id="DejaVuSans-34" transform="scale(.015625)" d="m2419 4116-1594-2491h1594v2491zm-166 550h794v-3041h666v-525h-666v-1100h-628v1100h-2106v609l1940 2957z"/></defs><use xlink:href="#DejaVuSans-30"/><use transform="translate(63.623)" xlink:href="#DejaVuSans-2e"/><use transform="translate(95.41)" xlink:href="#DejaVuSans-34"/></g><path d="m47.652 96.399h398.68" clip-path="url(#e00d655c151)" fill="none" stroke="#b0b0b0" stroke-dasharray="2.96,1.28" stroke-width=".8"/><use x="47.6525" y="96.398902" stroke="#000000" stroke-width=".8" xlink:href="#023174c46f2"/><g transform="translate(24.749 100.2) scale(.1 -.1)"><defs><path id="DejaVuSans-36" transform="scale(.015625)" d="m2113 2584q-425 0-674-291-248-290-248-796 0-503 248-796 249-292 674-292t673 292q248 293 248 796 0 506-248 796-248 291-673 291zm1253 1979v-575q-238 112-480 171-242 60-480 60-625 0-955-422-329-422-376-1275 184 272 462 417 279 145 613 145 703 0 1111-427 408-426 408-1160 0-719-425-1154-425-434-1131-434-810 0-1238 620-428 621-428 1799 0 1106 525 1764t1409 658q238 0 480-47t505-140z"/></defs><use xlink:href="#DejaVuSans-30"/><use transform="translate(63.623)" xlink:href="#DejaVuSans-2e"/><use transform="translate(95.41)" xlink:href="#DejaVuSans-36"/></g><path d="m47.652 27.619h398.68" clip-path="url(#e00d655c151)" fill="none" stroke="#b0b0b0" stroke-dasharray="2.96,1.28" stroke-width=".8"/><use x="47.6525" y="27.619026" stroke="#000000" stroke-width=".8" xlink:href="#023174c46f2"/><g transform="translate(24.749 31.418) scale(.1 -.1)"><defs><path id="DejaVuSans-38" transform="scale(.015625)" d="m2034 2216q-450 0-708-241-257-241-257-662 0-422 257-663 258-241 708-241t709 242q260 243 260 662 0 421-258 662-257 241-711 241zm-631 268q-406 100-633 378-226 279-226 679 0 559 398 884 399 325 1092 325 697 0 1094-325t397-884q0-400-227-679-226-278-629-378 456-106 710-416 255-309 255-755 0-679-414-1042-414-362-1186-362-771 0-1186 362-414 363-414 1042 0 446 256 755 257 310 713 416zm-231 997q0-362 226-565 227-203 636-203 407 0 636 203 230 203 230 565 0 363-230 566-229 203-636 203-409 0-636-203-226-203-226-566z"/></defs><use xlink:href="#DejaVuSans-30"/><use transform="translate(63.623)" xlink:href="#DejaVuSans-2e"/><use transform="translate(95.41)" xlink:href="#DejaVuSans-38"/></g><g transform="translate(17.838 214.67) rotate(-90) scale(.14 -.14)"><defs><path id="DejaVuSans-51" transform="scale(.015625)" d="m2522 4238q-688 0-1093-513-404-512-404-1397 0-881 404-1394 405-512 1093-512 687 0 1089 512 402 513 402 1394 0 885-402 1397-402 513-1089 513zm884-4154 832-909h-763l-691 747q-103-6-158-9-54-4-104-4-984 0-1574 658-589 658-589 1761 0 1106 589 1764 590 658 1574 658 981 0 1568-658 588-658 588-1764 0-812-327-1391-326-578-945-853z"/><path id="DejaVuSans-75" transform="scale(.015625)" d="m544 1381v2119h575v-2097q0-497 193-746 194-248 582-248 465 0 735 297 271 297 271 810v1984h575v-3500h-575v538q-209-319-486-474-276-155-642-155-603 0-916 375-312 375-312 1097zm1447 2203z"/><path id="DejaVuSans-61" transform="scale(.015625)" d="m2194 1759q-697 0-966-159t-269-544q0-306 202-486 202-179 548-179 479 0 768 339t289 901v128h-572zm1147 238v-1997h-575v531q-197-318-491-470t-719-152q-537 0-855 302-317 302-317 808 0 590 395 890 396 300 1180 300h807v57q0 397-261 614t-733 217q-300 0-585-72-284-72-546-216v532q315 122 612 182 297 61 578 61 760 0 1135-394 375-393 375-1193z"/><path id="DejaVuSans-73" transform="scale(.015625)" d="m2834 3397v-544q-243 125-506 187-262 63-544 63-428 0-642-131t-214-394q0-200 153-314t616-217l197-44q612-131 870-370t258-667q0-488-386-773-386-284-1061-284-281 0-586 55t-642 164v594q319-166 628-249 309-82 613-82 406 0 624 139 219 139 219 392 0 234-158 359-157 125-692 241l-200 47q-534 112-772 345-237 233-237 639 0 494 350 762 350 269 994 269 318 0 599-47 282-46 519-140z"/><path id="DejaVuSans-69" transform="scale(.015625)" d="m603 3500h575v-3500h-575v3500zm0 1363h575v-729h-575v729z"/><path id="DejaVuSans-2d" transform="scale(.015625)" d="m313 2009h1684v-512h-1684v512z"/><path id="DejaVuSans-70" transform="scale(.015625)" d="m1159 525v-1856h-578v4831h578v-531q182 312 458 463 277 152 661 152 638 0 1036-506 399-506 399-1331t-399-1332q-398-506-1036-506-384 0-661 152-276 152-458 464zm1957 1222q0 634-261 995t-717 361q-457 0-718-361t-261-995 261-995 718-361q456 0 717 361t261 995z"/><path id="DejaVuSans-72" transform="scale(.015625)" d="m2631 2963q-97 56-211 82-114 27-251 27-488 0-749-317t-261-911v-1844h-578v3500h578v-544q182 319 472 473 291 155 707 155 59 0 131-8 72-7 159-23l3-590z"/><path id="DejaVuSans-6f" transform="scale(.015625)" d="m1959 3097q-462 0-731-361t-269-989 267-989q268-361 733-361 460 0 728 362 269 363 269 988 0 622-269 986-268 364-728 364zm0 487q750 0 1178-488 429-487 429-1349 0-859-429-1349-428-489-1178-489-753 0-1180 489-426 490-426 1349 0 862 426 1349 427 488 1180 488z"/><path id="DejaVuSans-62" transform="scale(.015625)" d="m3116 1747q0 634-261 995t-717 361q-457 0-718-361t-261-995 261-995 718-361q456 0 717 361t261 995zm-1957 1222q182 312 458 463 277 152 661 152 638 0 1036-506 399-506 399-1331t-399-1332q-398-506-1036-506-384 0-661 152-276 152-458 464v-525h-578v4863h578v-1894z"/><path id="DejaVuSans-6c" transform="scale(.015625)" d="m603 4863h575v-4863h-575v4863z"/><path id="DejaVuSans-74" transform="scale(.015625)" d="m1172 4494v-994h1184v-447h-1184v-1900q0-428 117-550t477-122h590v-481h-590q-666 0-919 248-253 249-253 905v1900h-422v447h422v994h578z"/><path id="DejaVuSans-79" transform="scale(.015625)" d="m2059-325q-243-625-475-815-231-191-618-191h-460v481h338q237 0 368 113 132 112 291 531l103 262-1415 3444h609l1094-2737 1094 2737h609l-1538-3825z"/></defs><use xlink:href="#DejaVuSans-51"/><use transform="translate(78.711)" xlink:href="#DejaVuSans-75"/><use transform="translate(142.09)" xlink:href="#DejaVuSans-61"/><use transform="translate(203.37)" xlink:href="#DejaVuSans-73"/><use transform="translate(255.47)" xlink:href="#DejaVuSans-69"/><use transform="translate(283.25)" xlink:href="#DejaVuSans-2d"/><use transform="translate(319.34)" xlink:href="#DejaVuSans-70"/><use transform="translate(382.81)" xlink:href="#DejaVuSans-72"/><use transform="translate(421.68)" xlink:href="#DejaVuSans-6f"/><use transform="translate(482.86)" xlink:href="#DejaVuSans-62"/><use transform="translate(546.33)" xlink:href="#DejaVuSans-61"/><use transform="translate(607.61)" xlink:href="#DejaVuSans-62"/><use transform="translate(671.09)" xlink:href="#DejaVuSans-69"/><use transform="translate(698.87)" xlink:href="#DejaVuSans-6c"/><use transform="translate(726.66)" xlink:href="#DejaVuSans-69"/><use transform="translate(754.44)" xlink:href="#DejaVuSans-74"/><use transform="translate(793.65)" xlink:href="#DejaVuSans-79"/></g><path d="m65.774 302.74h24.162v-10.747h-24.162z" clip-path="url(#e00d655c151)" fill="#1f77b4"/><path d="m114.1 302.74h24.162v-10.747h-24.162z" clip-path="url(#e00d655c151)" fill="#1f77b4"/><path d="m162.42 302.74h24.162v-10.747h-24.162z" clip-path="url(#e00d655c151)" fill="#1f77b4"/><path d="m210.75 302.74h24.162v-10.747h-24.162z" clip-path="url(#e00d655c151)" fill="#1f77b4"/><path d="m259.07 302.74h24.162v-10.747h-24.162z" clip-path="url(#e00d655c151)" fill="#1f77b4"/><path d="m307.4 302.74h24.162v-10.747h-24.162z" clip-path="url(#e00d655c151)" fill="#1f77b4"/><path d="m355.72 302.74h24.162v-10.747h-24.162z" clip-path="url(#e00d655c151)" fill="#1f77b4"/><path d="m404.05 302.74h24.162v-268.67h-24.162z" clip-path="url(#e00d655c151)" fill="#1f77b4"/><path d="m47.652 302.74v-295.54" fill="none" stroke="#000000" stroke-linecap="square" stroke-width=".8"/><path d="m446.33 302.74v-295.54" fill="none" stroke="#000000" stroke-linecap="square" stroke-width=".8"/><path d="m47.652 302.74h398.68" fill="none" stroke="#000000" stroke-linecap="square" stroke-width=".8"/><path d="m47.652 7.2h398.68" fill="none" stroke="#000000" stroke-linecap="square" stroke-width=".8"/><g transform="translate(63.541 289.46) scale(.1 -.1)"><defs><path id="DejaVuSans-33" transform="scale(.015625)" d="m2597 2516q453-97 707-404 255-306 255-756 0-690-475-1069-475-378-1350-378-293 0-604 58t-642 174v609q262-153 574-231 313-78 654-78 593 0 904 234t311 681q0 413-289 645-289 233-804 233h-544v519h569q465 0 712 186t247 536q0 359-255 551-254 193-729 193-260 0-557-57-297-56-653-174v562q360 100 674 150t592 50q719 0 1137-327 419-326 419-882 0-388-222-655t-631-370z"/></defs><use xlink:href="#DejaVuSans-30"/><use transform="translate(63.623)" xlink:href="#DejaVuSans-2e"/><use transform="translate(95.41)" xlink:href="#DejaVuSans-30"/><use transform="translate(159.03)" xlink:href="#DejaVuSans-33"/><use transform="translate(222.66)" xlink:href="#DejaVuSans-31"/></g><g transform="translate(111.87 289.46) scale(.1 -.1)"><use xlink:href="#DejaVuSans-30"/><use transform="translate(63.623)" xlink:href="#DejaVuSans-2e"/><use transform="translate(95.41)" xlink:href="#DejaVuSans-30"/><use transform="translate(159.03)" xlink:href="#DejaVuSans-33"/><use transform="translate(222.66)" xlink:href="#DejaVuSans-31"/></g><g transform="translate(160.19 289.46) scale(.1 -.1)"><use xlink:href="#DejaVuSans-30"/><use transform="translate(63.623)" xlink:href="#DejaVuSans-2e"/><use transform="translate(95.41)" xlink:href="#DejaVuSans-30"/><use transform="translate(159.03)" xlink:href="#DejaVuSans-33"/><use transform="translate(222.66)" xlink:href="#DejaVuSans-31"/></g><g transform="translate(208.52 289.46) scale(.1 -.1)"><use xlink:href="#DejaVuSans-30"/><use transform="translate(63.623)" xlink:href="#DejaVuSans-2e"/><use transform="translate(95.41)" xlink:href="#DejaVuSans-30"/><use transform="translate(159.03)" xlink:href="#DejaVuSans-33"/><use transform="translate(222.66)" xlink:href="#DejaVuSans-31"/></g><g transform="translate(256.84 289.46) scale(.1 -.1)"><use xlink:href="#DejaVuSans-30"/><use transform="translate(63.623)" xlink:href="#DejaVuSans-2e"/><use transform="translate(95.41)" xlink:href="#DejaVuSans-30"/><use transform="translate(159.03)" xlink:href="#DejaVuSans-33"/><use transform="translate(222.66)" xlink:href="#DejaVuSans-31"/></g><g transform="translate(305.17 289.46) scale(.1 -.1)"><use xlink:href="#DejaVuSans-30"/><use transform="translate(63.623)" xlink:href="#DejaVuSans-2e"/><use transform="translate(95.41)" xlink:href="#DejaVuSans-30"/><use transform="translate(159.03)" xlink:href="#DejaVuSans-33"/><use transform="translate(222.66)" xlink:href="#DejaVuSans-31"/></g><g transform="translate(353.49 289.46) scale(.1 -.1)"><use xlink:href="#DejaVuSans-30"/><use transform="translate(63.623)" xlink:href="#DejaVuSans-2e"/><use transform="translate(95.41)" xlink:href="#DejaVuSans-30"/><use transform="translate(159.03)" xlink:href="#DejaVuSans-33"/><use transform="translate(222.66)" xlink:href="#DejaVuSans-31"/></g><g transform="translate(401.82 18.644) scale(.1 -.1)"><defs><path id="DejaVuSans-37" transform="scale(.015625)" d="m525 4666h3e3v-269l-1694-4397h-659l1594 4134h-2241v532z"/></defs><use xlink:href="#DejaVuSans-30"/><use transform="translate(63.623)" xlink:href="#DejaVuSans-2e"/><use transform="translate(95.41)" xlink:href="#DejaVuSans-37"/><use transform="translate(159.03)" xlink:href="#DejaVuSans-38"/><use transform="translate(222.66)" xlink:href="#DejaVuSans-31"/></g><defs><clipPath id="e00d655c151"><rect x="47.652" y="7.2" width="398.68" height="295.54"/></clipPath></defs></svg>