<?xml version='1.0' encoding='utf-8'?>
<svg xmlns="http://www.w3.org/2000/svg" xmlns:ns1="http://sodipodi.sourceforge.net/DTD/sodipodi-0.dtd" xmlns:ns2="http://www.inkscape.org/namespaces/inkscape" version="1.1" id="svg1" width="100%" height="auto" viewBox="-20.0 -20.0 504.07971 175.96712" ns1:docname="svg_fix_XXXXXX.svg">
  <rect id="path1" x="-20.0" y="-20.0" width="504.07971" height="175.96712" fill="white" /><ns1:namedview id="namedview1" pagecolor="#ffffff" bordercolor="#000000" borderopacity="0.25" ns2:showpageshadow="2" ns2:pageopacity="0.0" ns2:pagecheckerboard="0" ns2:deskcolor="#d1d1d1" />
  <defs id="defs1" />
  <g id="g1" transform="translate(-68.251144,-30.801038)">
    <path id="path2" d="M -30.64835,36.28375 H -172.3824 v 0 m 141.73405,-56.6936 H -172.3824 v 0 m 130.78809,40.8197 h 10.94596 v 0 m -10.94596,-56.6936 h 10.94596 v 0 M 30.64835,28.3468 H 41.9869 v 0 V 7.93695 H 54.39206 M 30.64835,-28.3468 H 41.9869 v 0 20.40985 h 12.40516 m -130.78807,28.3468 h -28.34682 L -104.74281,0 m 0,0 -2e-5,-20.40985 m 28.34682,-15.8739 h -56.69362 V 0 m 0,0 V 36.28375 M 115.68878,0 h 28.3468 v 0" style="fill:none;stroke:#121619;stroke-width:0.3985;stroke-linecap:butt;stroke-linejoin:miter;stroke-miterlimit:10;stroke-dasharray:none;stroke-opacity:1" transform="matrix(1.4666667,0,0,-1.4666667,321.07867,96.242533)" />
    <path id="path3" d="m -19.53711,-20.40985 h -11.11124 m 11.11124,-15.8739 h -11.11124" style="fill:none;stroke:#121619;stroke-width:0.3985;stroke-linecap:butt;stroke-linejoin:miter;stroke-miterlimit:10;stroke-dasharray:none;stroke-opacity:1" transform="matrix(1.4666667,0,0,-1.4666667,321.07867,96.242533)" />
    <path id="path4" d="M -19.53711,-12.4729 H 3.66321 c 8.76703,0 15.87391,-7.10687 15.87391,-15.8739 0,-8.76703 -7.10688,-15.8739 -15.87391,-15.8739 h -23.20032 z" style="fill:none;stroke:#121619;stroke-width:0.797;stroke-linecap:butt;stroke-linejoin:miter;stroke-miterlimit:10;stroke-dasharray:none;stroke-opacity:1" transform="matrix(1.4666667,0,0,-1.4666667,321.07867,96.242533)" />
    <path id="path5" d="M 19.53711,-28.3468 H 30.64835" style="fill:none;stroke:#121619;stroke-width:0.3985;stroke-linecap:butt;stroke-linejoin:miter;stroke-miterlimit:10;stroke-dasharray:none;stroke-opacity:1" transform="matrix(1.4666667,0,0,-1.4666667,321.07867,96.242533)" />
    <path id="path6" d="m -19.53711,36.28375 h -11.11124 m 11.11124,-15.8739 h -11.11124" style="fill:none;stroke:#121619;stroke-width:0.3985;stroke-linecap:butt;stroke-linejoin:miter;stroke-miterlimit:10;stroke-dasharray:none;stroke-opacity:1" transform="matrix(1.4666667,0,0,-1.4666667,321.07867,96.242533)" />
    <path id="path7" d="M -19.53711,44.2207 H 3.66321 c 8.76703,0 15.87391,-7.10687 15.87391,-15.8739 0,-8.76703 -7.10688,-15.8739 -15.87391,-15.8739 h -23.20032 z" style="fill:none;stroke:#121619;stroke-width:0.797;stroke-linecap:butt;stroke-linejoin:miter;stroke-miterlimit:10;stroke-dasharray:none;stroke-opacity:1" transform="matrix(1.4666667,0,0,-1.4666667,321.07867,96.242533)" />
    <path id="path8" d="M 19.53711,28.3468 H 30.64835" style="fill:none;stroke:#121619;stroke-width:0.3985;stroke-linecap:butt;stroke-linejoin:miter;stroke-miterlimit:10;stroke-dasharray:none;stroke-opacity:1" transform="matrix(1.4666667,0,0,-1.4666667,321.07867,96.242533)" />
    <path id="path9" d="M 64.55528,7.93695 H 54.39206" style="fill:none;stroke:#121619;stroke-width:0.3985;stroke-linecap:butt;stroke-linejoin:miter;stroke-miterlimit:10;stroke-dasharray:none;stroke-opacity:1" transform="matrix(1.4666667,0,0,-1.4666667,321.07867,96.242533)" />
    <path id="path10" d="M 64.55528,-7.93695 H 54.39206" style="fill:none;stroke:#121619;stroke-width:0.3985;stroke-linecap:butt;stroke-linejoin:miter;stroke-miterlimit:10;stroke-dasharray:none;stroke-opacity:1" transform="matrix(1.4666667,0,0,-1.4666667,321.07867,96.242533)" />
    <path id="path11" d="M 65.50331,15.8739 H 76.18346 C 87.84377,16.20137 98.74835,10.10574 104.57608,9.6e-4 98.74884,-10.10332 87.84328,-16.19942 76.18394,-15.87244 l -14.03436,-0.0015 c 4.62441,9.9685 4.62441,21.77911 0,31.74762 l 3.35373,1.8e-4 z" style="fill:none;stroke:#121619;stroke-width:0.797;stroke-linecap:butt;stroke-linejoin:miter;stroke-miterlimit:10;stroke-dasharray:none;stroke-opacity:1" transform="matrix(1.4666667,0,0,-1.4666667,321.07867,96.242533)" />
    <path id="path12" d="m 104.57753,0 h 11.11125" style="fill:none;stroke:#121619;stroke-width:0.3985;stroke-linecap:butt;stroke-linejoin:miter;stroke-miterlimit:10;stroke-dasharray:none;stroke-opacity:1" transform="matrix(1.4666667,0,0,-1.4666667,321.07867,96.242533)" />
    <path id="path13" d="m -68.61818,20.40985 h -7.77783" style="fill:none;stroke:#121619;stroke-width:0.3985;stroke-linecap:butt;stroke-linejoin:miter;stroke-miterlimit:10;stroke-dasharray:none;stroke-opacity:1" transform="matrix(1.4666667,0,0,-1.4666667,321.07867,96.242533)" />
    <path id="path14" d="M -68.61818,31.52153 -49.37215,20.40985 -68.61818,9.29817 Z" style="fill:none;stroke:#121619;stroke-width:0.797;stroke-linecap:butt;stroke-linejoin:miter;stroke-miterlimit:10;stroke-dasharray:none;stroke-opacity:1" transform="matrix(1.4666667,0,0,-1.4666667,321.07867,96.242533)" />
    <path id="path15" d="m -45.94958,20.40985 h 4.35527" style="fill:none;stroke:#121619;stroke-width:0.3985;stroke-linecap:butt;stroke-linejoin:miter;stroke-miterlimit:10;stroke-dasharray:none;stroke-opacity:1" transform="matrix(1.4666667,0,0,-1.4666667,321.07867,96.242533)" />
    <path id="path16" d="m -45.94958,20.40985 c 0,0.9451 -0.76616,1.71127 -1.71128,1.71127 -0.9451,0 -1.71127,-0.76617 -1.71127,-1.71127 0,-0.94511 0.76617,-1.71127 1.71127,-1.71127 0.94512,0 1.71128,0.76616 1.71128,1.71127 z" style="fill:#ffffff;fill-opacity:1;fill-rule:nonzero;stroke:#121619;stroke-width:0.797;stroke-linecap:butt;stroke-linejoin:miter;stroke-miterlimit:10;stroke-dasharray:none;stroke-opacity:1" transform="matrix(1.4666667,0,0,-1.4666667,321.07867,96.242533)" />
    <path id="path17" d="m -68.61818,-36.28375 h -7.77783" style="fill:none;stroke:#121619;stroke-width:0.3985;stroke-linecap:butt;stroke-linejoin:miter;stroke-miterlimit:10;stroke-dasharray:none;stroke-opacity:1" transform="matrix(1.4666667,0,0,-1.4666667,321.07867,96.242533)" />
    <path id="path18" d="m -68.61818,-25.17209 19.24603,-11.11166 -19.24603,-11.11168 z" style="fill:none;stroke:#121619;stroke-width:0.797;stroke-linecap:butt;stroke-linejoin:miter;stroke-miterlimit:10;stroke-dasharray:none;stroke-opacity:1" transform="matrix(1.4666667,0,0,-1.4666667,321.07867,96.242533)" />
    <path id="path19" d="m -45.94958,-36.28375 h 4.35527" style="fill:none;stroke:#121619;stroke-width:0.3985;stroke-linecap:butt;stroke-linejoin:miter;stroke-miterlimit:10;stroke-dasharray:none;stroke-opacity:1" transform="matrix(1.4666667,0,0,-1.4666667,321.07867,96.242533)" />
    <path id="path20" d="m -45.94958,-36.28375 c 0,0.9451 -0.76616,1.71127 -1.71128,1.71127 -0.9451,0 -1.71127,-0.76617 -1.71127,-1.71127 0,-0.94512 0.76617,-1.71128 1.71127,-1.71128 0.94512,0 1.71128,0.76616 1.71128,1.71128 z" style="fill:#ffffff;fill-opacity:1;fill-rule:nonzero;stroke:#121619;stroke-width:0.797;stroke-linecap:butt;stroke-linejoin:miter;stroke-miterlimit:10;stroke-dasharray:none;stroke-opacity:1" transform="matrix(1.4666667,0,0,-1.4666667,321.07867,96.242533)" />
    <path id="path21" d="m -103.15567,-20.40985 c 0,0.87655 -0.71059,1.58714 -1.58716,1.58714 -0.87655,0 -1.58714,-0.71059 -1.58714,-1.58714 0,-0.87655 0.71059,-1.58715 1.58714,-1.58715 0.87657,0 1.58716,0.7106 1.58716,1.58715 z" style="fill:#121619;fill-opacity:1;fill-rule:nonzero;stroke:#121619;stroke-width:0.3985;stroke-linecap:butt;stroke-linejoin:miter;stroke-miterlimit:10;stroke-dasharray:none;stroke-opacity:1" transform="matrix(1.4666667,0,0,-1.4666667,321.07867,96.242533)" />
    <path id="path22" d="m -131.50249,36.28375 c 0,0.87656 -0.71058,1.58715 -1.58714,1.58715 -0.87657,0 -1.58716,-0.71059 -1.58716,-1.58715 0,-0.87655 0.71059,-1.58714 1.58716,-1.58714 0.87656,0 1.58714,0.71059 1.58714,1.58714 z" style="fill:#121619;fill-opacity:1;fill-rule:nonzero;stroke:#121619;stroke-width:0.3985;stroke-linecap:butt;stroke-linejoin:miter;stroke-miterlimit:10;stroke-dasharray:none;stroke-opacity:1" transform="matrix(1.4666667,0,0,-1.4666667,321.07867,96.242533)" />
  </g>
</svg>