<?xml version='1.0' encoding='utf-8'?>
<svg xmlns="http://www.w3.org/2000/svg" xmlns:ns1="http://sodipodi.sourceforge.net/DTD/sodipodi-0.dtd" xmlns:ns2="http://www.inkscape.org/namespaces/inkscape" version="1.1" id="svg1" width="100%" height="auto" viewBox="-20.0 -20.0 318.24219 330.76342" ns1:docname="svg_fix_XXXXXX.svg">
  <rect id="path1" x="-20.0" y="-20.0" width="318.24219" height="330.76342" fill="white" /><ns1:namedview id="namedview1" pagecolor="#ffffff" bordercolor="#000000" borderopacity="0.25" ns2:showpageshadow="2" ns2:pageopacity="0.0" ns2:pagecheckerboard="0" ns2:deskcolor="#d1d1d1" />
  <defs id="defs1" />
  <g id="g1" transform="translate(-164.01563,-23.241687)">
    <path id="path2" d="m -28.3468,-36.85085 h 56.69362 v 73.7017 H -28.3468 Z" style="fill:#78a9ff;fill-opacity:1;fill-rule:nonzero;stroke:#78a9ff;stroke-width:0.3985;stroke-linecap:butt;stroke-linejoin:miter;stroke-miterlimit:10;stroke-dasharray:none;stroke-opacity:1" transform="matrix(1.8,0,0,-1.8,302.54227,89.931867)" />
    <path id="path3" d="m 5.3119595,-4.5753391 c 0.095486,-0.390625 0.2777778,-0.5815972 0.8506944,-0.6076389 0.078125,0 0.1388889,-0.043403 0.1388889,-0.1475695 0,-0.052083 -0.034722,-0.1128472 -0.1215278,-0.1128472 -0.034722,0 -0.2083333,0.026042 -0.7899305,0.026042 -0.6336806,0 -0.7378472,-0.026042 -0.8072917,-0.026042 -0.1302083,0 -0.15625,0.086806 -0.15625,0.1475695 0,0.1041666 0.1041667,0.1128472 0.1822917,0.1128472 0.4861111,0.017361 0.4861111,0.234375 0.4861111,0.3472222 0,0.043403 -0.00868,0.086806 -0.017361,0.1302083 -0.017361,0.060764 -0.6770833,2.7256945 -0.7118056,2.8298612 -0.2864583,1.14583329 -1.2934027,1.77951385 -2.0833333,1.77951385 -0.546875,0 -1.0416667,-0.32986111 -1.0416667,-1.05902775 0,-0.1388889 0.026042,-0.3559028 0.060764,-0.4774306 l 0.7899306,-3.1857639 c 0.078125,-0.2864583 0.095486,-0.3645833 0.6770833,-0.3645833 0.15625,0 0.2517361,0 0.2517361,-0.1475695 0,-0.00868 -0.00868,-0.1128472 -0.1388889,-0.1128472 -0.1475694,0 -0.3385416,0.017361 -0.4947916,0.026042 H 1.8918206 c -0.7725694,0 -0.97222222,-0.026042 -1.03298611,-0.026042 -0.0347222,0 -0.15625,0 -0.15625,0.1475695 0,0.1128472 0.10416667,0.1128472 0.22569445,0.1128472 0.26909726,0 0.49479166,0 0.49479166,0.1302083 0,0.043403 -0.069444,0.3385417 -0.1128472,0.4947917 l -0.1822917,0.703125 -0.4079861,1.6840278 c -0.11284722,0.4427083 -0.14756944,0.5642361 -0.14756944,0.7725694 0,0.93750001 0.73784724,1.56250001 1.68402774,1.56250001 1.0850695,0 2.1006945,-0.91145833 2.3611111,-1.94444441 z m 0,0" style="fill:#ffffff;fill-opacity:1;fill-rule:nonzero;stroke:none" aria-label="U" transform="matrix(1.8,0,0,1.8,296.62207,94.833267)" />
    <path id="path4" d="m -49.6069,-28.3468 h 21.06085" style="fill:none;stroke:#121619;stroke-width:0.3985;stroke-linecap:butt;stroke-linejoin:miter;stroke-miterlimit:10;stroke-dasharray:none;stroke-opacity:1" transform="matrix(1.8,0,0,-1.8,302.54227,89.931867)" />
    <path id="path5" d="m -49.6069,-25.51212 h 21.06085" style="fill:none;stroke:#121619;stroke-width:0.3985;stroke-linecap:butt;stroke-linejoin:miter;stroke-miterlimit:10;stroke-dasharray:none;stroke-opacity:1" transform="matrix(1.8,0,0,-1.8,302.54227,89.931867)" />
    <path id="path6" d="m -49.6069,-22.67744 h 21.06085" style="fill:none;stroke:#121619;stroke-width:0.3985;stroke-linecap:butt;stroke-linejoin:miter;stroke-miterlimit:10;stroke-dasharray:none;stroke-opacity:1" transform="matrix(1.8,0,0,-1.8,302.54227,89.931867)" />
    <path id="path7" d="m -49.6069,-19.84276 h 21.06085" style="fill:none;stroke:#121619;stroke-width:0.3985;stroke-linecap:butt;stroke-linejoin:miter;stroke-miterlimit:10;stroke-dasharray:none;stroke-opacity:1" transform="matrix(1.8,0,0,-1.8,302.54227,89.931867)" />
    <path id="path8" d="m -49.6069,-17.00807 h 21.06085" style="fill:none;stroke:#121619;stroke-width:0.3985;stroke-linecap:butt;stroke-linejoin:miter;stroke-miterlimit:10;stroke-dasharray:none;stroke-opacity:1" transform="matrix(1.8,0,0,-1.8,302.54227,89.931867)" />
    <path id="path9" d="m -49.6069,-14.17339 h 21.06085" style="fill:none;stroke:#121619;stroke-width:0.3985;stroke-linecap:butt;stroke-linejoin:miter;stroke-miterlimit:10;stroke-dasharray:none;stroke-opacity:1" transform="matrix(1.8,0,0,-1.8,302.54227,89.931867)" />
    <path id="path10" d="m -49.6069,-11.33871 h 21.06085" style="fill:none;stroke:#121619;stroke-width:0.3985;stroke-linecap:butt;stroke-linejoin:miter;stroke-miterlimit:10;stroke-dasharray:none;stroke-opacity:1" transform="matrix(1.8,0,0,-1.8,302.54227,89.931867)" />
    <path id="path11" d="m -49.6069,28.3468 h 21.06085" style="fill:none;stroke:#121619;stroke-width:0.3985;stroke-linecap:butt;stroke-linejoin:miter;stroke-miterlimit:10;stroke-dasharray:none;stroke-opacity:1" transform="matrix(1.8,0,0,-1.8,302.54227,89.931867)" />
    <path id="path12" d="m -49.6069,25.51212 h 21.06085" style="fill:none;stroke:#121619;stroke-width:0.3985;stroke-linecap:butt;stroke-linejoin:miter;stroke-miterlimit:10;stroke-dasharray:none;stroke-opacity:1" transform="matrix(1.8,0,0,-1.8,302.54227,89.931867)" />
    <path id="path13" d="m -49.6069,22.67744 h 21.06085" style="fill:none;stroke:#121619;stroke-width:0.3985;stroke-linecap:butt;stroke-linejoin:miter;stroke-miterlimit:10;stroke-dasharray:none;stroke-opacity:1" transform="matrix(1.8,0,0,-1.8,302.54227,89.931867)" />
    <path id="path14" d="m -49.6069,19.84276 h 21.06085" style="fill:none;stroke:#121619;stroke-width:0.3985;stroke-linecap:butt;stroke-linejoin:miter;stroke-miterlimit:10;stroke-dasharray:none;stroke-opacity:1" transform="matrix(1.8,0,0,-1.8,302.54227,89.931867)" />
    <path id="path15" d="m -49.6069,17.00807 h 21.06085" style="fill:none;stroke:#121619;stroke-width:0.3985;stroke-linecap:butt;stroke-linejoin:miter;stroke-miterlimit:10;stroke-dasharray:none;stroke-opacity:1" transform="matrix(1.8,0,0,-1.8,302.54227,89.931867)" />
    <path id="path16" d="m -49.6069,14.17339 h 21.06085" style="fill:none;stroke:#121619;stroke-width:0.3985;stroke-linecap:butt;stroke-linejoin:miter;stroke-miterlimit:10;stroke-dasharray:none;stroke-opacity:1" transform="matrix(1.8,0,0,-1.8,302.54227,89.931867)" />
    <path id="path17" d="m -49.6069,11.33871 h 21.06085" style="fill:none;stroke:#121619;stroke-width:0.3985;stroke-linecap:butt;stroke-linejoin:miter;stroke-miterlimit:10;stroke-dasharray:none;stroke-opacity:1" transform="matrix(1.8,0,0,-1.8,302.54227,89.931867)" />
    <path id="path18" d="m -49.6069,8.50403 h 21.06085" style="fill:none;stroke:#121619;stroke-width:0.3985;stroke-linecap:butt;stroke-linejoin:miter;stroke-miterlimit:10;stroke-dasharray:none;stroke-opacity:1" transform="matrix(1.8,0,0,-1.8,302.54227,89.931867)" />
    <path id="path19" d="m -49.6069,5.66934 h 21.06085" style="fill:none;stroke:#121619;stroke-width:0.3985;stroke-linecap:butt;stroke-linejoin:miter;stroke-miterlimit:10;stroke-dasharray:none;stroke-opacity:1" transform="matrix(1.8,0,0,-1.8,302.54227,89.931867)" />
    <path id="path20" d="M 41.10287,19.84277 H 58.11093 V 36.85083 H 41.10287 Z" style="fill:#000000;fill-opacity:1;fill-rule:nonzero;stroke:#000000;stroke-width:0.3985;stroke-linecap:butt;stroke-linejoin:miter;stroke-miterlimit:10;stroke-dasharray:none;stroke-opacity:1" transform="matrix(1.8,0,0,-1.8,302.54227,89.931867)" />
    <path id="path21" d="m 55.27618,25.7957 c 0,3.13112 -2.53823,5.66934 -5.66935,5.66934 -3.13112,0 -5.66935,-2.53822 -5.66935,-5.66934" style="fill:none;stroke:#ffffff;stroke-width:0.79701;stroke-linecap:butt;stroke-linejoin:miter;stroke-miterlimit:10;stroke-dasharray:none;stroke-opacity:1" transform="matrix(1.8,0,0,-1.8,302.54227,89.931867)" />
    <path id="path22" d="m 49.6069,26.07901 5.66928,4.81891" style="fill:none;stroke:#ffffff;stroke-width:0.79701;stroke-linecap:butt;stroke-linejoin:miter;stroke-miterlimit:10;stroke-dasharray:none;stroke-opacity:1" transform="matrix(1.8,0,0,-1.8,302.54227,89.931867)" />
    <path id="path23" d="m 50.17383,26.07901 c 0,0.31311 -0.25383,0.56694 -0.56693,0.56694 -0.31309,0 -0.56692,-0.25383 -0.56692,-0.56694 0,-0.3131 0.25383,-0.56693 0.56692,-0.56693 0.3131,0 0.56693,0.25383 0.56693,0.56693 z" style="fill:#ffffff;fill-opacity:1;fill-rule:nonzero;stroke:none" transform="matrix(1.8,0,0,-1.8,302.54227,89.931867)" />
    <path id="path24" d="m 3.8967477,-2.5425231 c 0,-0.8506945 -0.086806,-1.3715278 -0.3472222,-1.875 -0.3559028,-0.703125 -0.9982639,-0.8767362 -1.4409723,-0.8767362 -0.9982638,0 -1.37152774,0.7465278 -1.4756944,0.9722223 -0.29513889,0.5815972 -0.30381945,1.3628472 -0.30381945,1.7795139 0,0.5295138 0.0173611,1.328125 0.39930556,1.97048606 0.37326389,0.59027778 0.96354169,0.73784723 1.38020829,0.73784723 0.3819445,0 1.0677084,-0.11284723 1.4670139,-0.90277778 C 3.870706,-1.3098843 3.8967477,-2.0216898 3.8967477,-2.5425231 Z m -1.7881945,2.4913194 c -0.2690972,0 -0.8159722,-0.13020834 -0.9895833,-0.9722222 -0.086805,-0.4513889 -0.086805,-1.1979167 -0.086805,-1.6145834 0,-0.546875 0,-1.1024305 0.086805,-1.5451388 0.1736111,-0.8159723 0.7899306,-0.8940973 0.9895833,-0.8940973 0.2690973,0 0.8246528,0.1388889 0.9809028,0.859375 0.095486,0.4427084 0.095486,1.0416667 0.095486,1.5798611 0,0.46875 0,1.1892362 -0.095486,1.6319445 -0.1649305,0.84201387 -0.7118055,0.9548611 -0.9809028,0.9548611 z m 0,0" style="fill:#121619;fill-opacity:1;fill-rule:nonzero;stroke:none" aria-label="0" transform="matrix(1.8,0,0,1.8,435.24367,43.529667)" />
    <path id="path25" d="M 58.3102,29.05545 H 70.867" style="fill:none;stroke:#121619;stroke-width:0.3985;stroke-linecap:butt;stroke-linejoin:miter;stroke-miterlimit:10;stroke-dasharray:none;stroke-opacity:1" transform="matrix(1.8,0,0,-1.8,302.54227,89.931867)" />
    <path id="path26" d="M 58.3102,27.63815 H 70.867" style="fill:none;stroke:#121619;stroke-width:0.3985;stroke-linecap:butt;stroke-linejoin:miter;stroke-miterlimit:10;stroke-dasharray:none;stroke-opacity:1" transform="matrix(1.8,0,0,-1.8,302.54227,89.931867)" />
    <path id="path27" d="M 28.54605,28.3468 H 40.90363" style="fill:none;stroke:#121619;stroke-width:0.3985;stroke-linecap:butt;stroke-linejoin:miter;stroke-miterlimit:10;stroke-dasharray:none;stroke-opacity:1" transform="matrix(1.8,0,0,-1.8,302.54227,89.931867)" />
    <path id="path28" d="M 28.54605,-28.3468 H 70.867" style="fill:none;stroke:#121619;stroke-width:0.3985;stroke-linecap:butt;stroke-linejoin:miter;stroke-miterlimit:10;stroke-dasharray:none;stroke-opacity:1" transform="matrix(1.8,0,0,-1.8,302.54227,89.931867)" />
    <path id="path29" d="M 28.54605,-25.51212 H 70.867" style="fill:none;stroke:#121619;stroke-width:0.3985;stroke-linecap:butt;stroke-linejoin:miter;stroke-miterlimit:10;stroke-dasharray:none;stroke-opacity:1" transform="matrix(1.8,0,0,-1.8,302.54227,89.931867)" />
    <path id="path30" d="M 28.54605,-22.67744 H 70.867" style="fill:none;stroke:#121619;stroke-width:0.3985;stroke-linecap:butt;stroke-linejoin:miter;stroke-miterlimit:10;stroke-dasharray:none;stroke-opacity:1" transform="matrix(1.8,0,0,-1.8,302.54227,89.931867)" />
    <path id="path31" d="M 28.54605,-19.84276 H 70.867" style="fill:none;stroke:#121619;stroke-width:0.3985;stroke-linecap:butt;stroke-linejoin:miter;stroke-miterlimit:10;stroke-dasharray:none;stroke-opacity:1" transform="matrix(1.8,0,0,-1.8,302.54227,89.931867)" />
    <path id="path32" d="M 28.54605,-17.00807 H 70.867" style="fill:none;stroke:#121619;stroke-width:0.3985;stroke-linecap:butt;stroke-linejoin:miter;stroke-miterlimit:10;stroke-dasharray:none;stroke-opacity:1" transform="matrix(1.8,0,0,-1.8,302.54227,89.931867)" />
    <path id="path33" d="M 28.54605,-14.17339 H 70.867" style="fill:none;stroke:#121619;stroke-width:0.3985;stroke-linecap:butt;stroke-linejoin:miter;stroke-miterlimit:10;stroke-dasharray:none;stroke-opacity:1" transform="matrix(1.8,0,0,-1.8,302.54227,89.931867)" />
    <path id="path34" d="M 28.54605,-11.33871 H 70.867" style="fill:none;stroke:#121619;stroke-width:0.3985;stroke-linecap:butt;stroke-linejoin:miter;stroke-miterlimit:10;stroke-dasharray:none;stroke-opacity:1" transform="matrix(1.8,0,0,-1.8,302.54227,89.931867)" />
    <path id="path35" d="M 28.54605,-8.50403 H 70.867" style="fill:none;stroke:#121619;stroke-width:0.3985;stroke-linecap:butt;stroke-linejoin:miter;stroke-miterlimit:10;stroke-dasharray:none;stroke-opacity:1" transform="matrix(1.8,0,0,-1.8,302.54227,89.931867)" />
    <path id="path36" d="M 28.54605,-5.66934 H 70.867" style="fill:none;stroke:#121619;stroke-width:0.3985;stroke-linecap:butt;stroke-linejoin:miter;stroke-miterlimit:10;stroke-dasharray:none;stroke-opacity:1" transform="matrix(1.8,0,0,-1.8,302.54227,89.931867)" />
    <path id="path37" d="M 28.54605,-2.83466 H 70.867" style="fill:none;stroke:#121619;stroke-width:0.3985;stroke-linecap:butt;stroke-linejoin:miter;stroke-miterlimit:10;stroke-dasharray:none;stroke-opacity:1" transform="matrix(1.8,0,0,-1.8,302.54227,89.931867)" />
    <path id="path38" d="M 28.54605,0 H 70.867" style="fill:none;stroke:#121619;stroke-width:0.3985;stroke-linecap:butt;stroke-linejoin:miter;stroke-miterlimit:10;stroke-dasharray:none;stroke-opacity:1" transform="matrix(1.8,0,0,-1.8,302.54227,89.931867)" />
    <path id="path39" d="M 28.54605,2.83466 H 70.867" style="fill:none;stroke:#121619;stroke-width:0.3985;stroke-linecap:butt;stroke-linejoin:miter;stroke-miterlimit:10;stroke-dasharray:none;stroke-opacity:1" transform="matrix(1.8,0,0,-1.8,302.54227,89.931867)" />
    <path id="path40" d="M 28.54605,5.66934 H 70.867" style="fill:none;stroke:#121619;stroke-width:0.3985;stroke-linecap:butt;stroke-linejoin:miter;stroke-miterlimit:10;stroke-dasharray:none;stroke-opacity:1" transform="matrix(1.8,0,0,-1.8,302.54227,89.931867)" />
    <path id="path41" d="M 28.54605,8.50403 H 70.867" style="fill:none;stroke:#121619;stroke-width:0.3985;stroke-linecap:butt;stroke-linejoin:miter;stroke-miterlimit:10;stroke-dasharray:none;stroke-opacity:1" transform="matrix(1.8,0,0,-1.8,302.54227,89.931867)" />
    <path id="path42" d="M 28.54605,11.33871 H 70.867" style="fill:none;stroke:#121619;stroke-width:0.3985;stroke-linecap:butt;stroke-linejoin:miter;stroke-miterlimit:10;stroke-dasharray:none;stroke-opacity:1" transform="matrix(1.8,0,0,-1.8,302.54227,89.931867)" />
    <g id="g42" aria-label="∣ψ⟩" transform="matrix(1.8,0,0,1.8,181.18627,63.263067)">
      <path id="path43" d="m 1.1986019,-6.0944988 v 7.8038194 h 0.5034722 v -7.8038194 z m 0,0" style="fill:#121619;fill-opacity:1;fill-rule:nonzero;stroke:none" />
      <path id="path44" d="m 6.9451296,-5.2698461 c 0.034722,-0.1128472 0.034722,-0.1215277 0.034722,-0.15625 0,-0.078125 -0.052083,-0.1041666 -0.1215278,-0.1041666 -0.1041667,0 -0.1128472,0.034722 -0.1388889,0.1649305 l -1.3020833,5.20833336 c -0.5642362,-0.0694444 -0.9548612,-0.3125 -0.9548612,-0.87673616 0,-0.15625 0,-0.3645833 0.4253473,-1.4236111 0.078125,-0.2170139 0.086805,-0.2864583 0.086805,-0.3819444 0,-0.4253472 -0.3559028,-0.6770833 -0.7204861,-0.6770833 -0.7899305,0 -1.1111111,1.1284722 -1.1111111,1.2239583 0,0.069444 0.052083,0.1041667 0.1128472,0.1041667 0.1041667,0 0.1128472,-0.052083 0.1388889,-0.1302084 0.2083333,-0.6944444 0.546875,-0.9722222 0.8333333,-0.9722222 0.1215278,0 0.1909723,0.078125 0.1909723,0.2604167 0,0.1822916 -0.069445,0.3732639 -0.1388889,0.546875 C 3.872213,-1.42436 3.872213,-1.2594294 3.872213,-1.0944988 c 0,0.75520829 0.6510416,1.10243051 1.484375,1.15451385 L 4.9920046,1.5183484 c 0,0.078125 0.060764,0.1041666 0.1215278,0.1041666 0.1041667,0 0.1128472,-0.026042 0.1649306,-0.1996527 0.034722,-0.1736111 0,-0.060764 0.3298611,-1.34548614 0.3298611,0 0.9375,0 1.71875,-0.73784722 0.3211805,-0.29513889 0.5034722,-0.62500004 0.5729166,-0.73784724 0.2604167,-0.5208333 0.3732639,-1.2152778 0.3732639,-1.5017361 0,-0.625 -0.3645833,-0.625 -0.390625,-0.625 -0.1909722,0 -0.4166666,0.2083333 -0.4166666,0.4166667 0,0.1302083 0.069444,0.1909722 0.1128472,0.2256944 0.078125,0.069444 0.3211805,0.2777778 0.3211805,0.6597222 0,0.6597223 -0.9027777,2.07465281 -2.2309027,2.07465281 z m 0,0" style="fill:#121619;fill-opacity:1;fill-rule:nonzero;stroke:none" />
      <path id="path45" d="M 9.9377512,1.7961262 11.370043,-2.1882488 9.9377512,-6.1813044 9.45164,-6.0076933 10.892612,-2.1882488 9.45164,1.622515 Z m 0,0" style="fill:#121619;fill-opacity:1;fill-rule:nonzero;stroke:none" />
    </g>
    <g id="g45" aria-label="∣0⋯0⟩" transform="matrix(1.8,0,0,1.8,161.85967,129.59307)">
      <path id="path46" d="m 1.1977546,-6.0933704 v 7.8038195 h 0.5034723 v -7.8038195 z m 0,0" style="fill:#121619;fill-opacity:1;fill-rule:nonzero;stroke:none" />
      <path id="path47" d="m 6.7988831,-2.5430231 c 0,-0.8506945 -0.086806,-1.3715278 -0.3472222,-1.875 -0.3559028,-0.703125 -0.9982639,-0.8767362 -1.4409722,-0.8767362 -0.9982639,0 -1.3715278,0.7465278 -1.4756945,0.9722223 -0.2951389,0.5815972 -0.3038194,1.3628472 -0.3038194,1.7795139 0,0.5295138 0.017361,1.328125 0.3993055,1.97048606 0.3732639,0.59027778 0.9635417,0.73784723 1.3802084,0.73784723 0.3819444,0 1.0677083,-0.11284723 1.4670138,-0.90277778 C 6.7728414,-1.3103843 6.7988831,-2.0221898 6.7988831,-2.5430231 Z m -1.7881944,2.4913194 c -0.2690973,0 -0.8159723,-0.13020834 -0.9895834,-0.9722222 -0.086806,-0.4513889 -0.086806,-1.1979167 -0.086806,-1.6145834 0,-0.546875 0,-1.1024305 0.086806,-1.5451388 0.1736111,-0.8159723 0.7899306,-0.8940973 0.9895834,-0.8940973 0.2690972,0 0.8246527,0.1388889 0.9809027,0.859375 0.095486,0.4427084 0.095486,1.0416667 0.095486,1.5798611 0,0.46875 0,1.1892362 -0.095486,1.6319445 -0.1649305,0.84201387 -0.7118055,0.9548611 -0.9809027,0.9548611 z m 0,0" style="fill:#121619;fill-opacity:1;fill-rule:nonzero;stroke:none" />
      <path id="path48" d="m 9.0449769,-2.1871204 c 0,-0.1215277 -0.1215278,-0.2604166 -0.234375,-0.3645833 -0.1041667,-0.1041667 -0.2430556,-0.234375 -0.3645834,-0.234375 -0.1128472,0 -0.2517361,0.1302083 -0.3559028,0.234375 -0.1041666,0.1041667 -0.234375,0.2430556 -0.234375,0.3645833 0,0.1128473 0.1302084,0.2517361 0.234375,0.3559028 0.1041667,0.1041667 0.2430556,0.234375 0.3559028,0.234375 0.1215278,0 0.2604167,-0.1302083 0.3645834,-0.234375 0.1128472,-0.1041667 0.234375,-0.2430555 0.234375,-0.3559028 z m 2.7256941,0 c 0,-0.1215277 -0.130208,-0.2604166 -0.234375,-0.3645833 -0.104166,-0.1041667 -0.234375,-0.234375 -0.355902,-0.234375 -0.112848,0 -0.260417,0.1302083 -0.364584,0.234375 -0.104166,0.1041667 -0.234375,0.2430556 -0.234375,0.3645833 0,0.1128473 0.130209,0.2517361 0.234375,0.3559028 0.104167,0.1041667 0.251736,0.234375 0.364584,0.234375 0.121527,0 0.251736,-0.1302083 0.355902,-0.234375 0.104167,-0.1041667 0.234375,-0.2430555 0.234375,-0.3559028 z m 2.734375,0 c 0,-0.1215277 -0.130208,-0.2604166 -0.234375,-0.3645833 -0.104166,-0.1041667 -0.243055,-0.234375 -0.364583,-0.234375 -0.112847,0 -0.251736,0.1302083 -0.355903,0.234375 -0.112847,0.1041667 -0.243055,0.2430556 -0.243055,0.3645833 0,0.1128473 0.130208,0.2517361 0.243055,0.3559028 0.104167,0.1041667 0.243056,0.234375 0.355903,0.234375 0.121528,0 0.260417,-0.1302083 0.364583,-0.234375 0.104167,-0.1041667 0.234375,-0.2430555 0.234375,-0.3559028 z m 0,0" style="fill:#121619;fill-opacity:1;fill-rule:nonzero;stroke:none" />
      <path id="path49" d="m 19.123102,-2.5430231 c 0,-0.8506945 -0.08681,-1.3715278 -0.347222,-1.875 -0.355903,-0.703125 -0.998264,-0.8767362 -1.440973,-0.8767362 -0.998263,0 -1.371527,0.7465278 -1.475694,0.9722223 -0.295139,0.5815972 -0.303819,1.3628472 -0.303819,1.7795139 0,0.5295138 0.01736,1.328125 0.399305,1.97048606 0.373264,0.59027778 0.963542,0.73784723 1.380208,0.73784723 0.381945,0 1.067709,-0.11284723 1.467014,-0.90277778 0.295139,-0.57291671 0.321181,-1.28472221 0.321181,-1.80555551 z m -1.788195,2.4913194 c -0.269097,0 -0.815972,-0.13020834 -0.989583,-0.9722222 -0.08681,-0.4513889 -0.08681,-1.1979167 -0.08681,-1.6145834 0,-0.546875 0,-1.1024305 0.08681,-1.5451388 0.173611,-0.8159723 0.789931,-0.8940973 0.989583,-0.8940973 0.269098,0 0.824653,0.1388889 0.980903,0.859375 0.09549,0.4427084 0.09549,1.0416667 0.09549,1.5798611 0,0.46875 0,1.1892362 -0.09549,1.6319445 -0.16493,0.84201387 -0.711805,0.9548611 -0.980903,0.9548611 z m 0,0" style="fill:#121619;fill-opacity:1;fill-rule:nonzero;stroke:none" />
      <path id="path50" d="m 20.674751,1.7972546 1.432292,-3.984375 -1.432292,-3.9930555 -0.486111,0.1736111 1.440972,3.8194444 -1.440972,3.8107639 z m 0,0" style="fill:#121619;fill-opacity:1;fill-rule:nonzero;stroke:none" />
    </g>
    <path id="path51" d="m -28.3468,-36.85085 h 56.69362 v 73.7017 H -28.3468 Z" style="fill:#78a9ff;fill-opacity:1;fill-rule:nonzero;stroke:#78a9ff;stroke-width:0.3985;stroke-linecap:butt;stroke-linejoin:miter;stroke-miterlimit:10;stroke-dasharray:none;stroke-opacity:1" transform="matrix(1.8,0,0,-1.8,302.54227,247.31493)" />
    <path id="path52" d="m 5.3119595,-4.5754803 c 0.095486,-0.390625 0.2777778,-0.5815972 0.8506944,-0.6076389 0.078125,0 0.1388889,-0.043403 0.1388889,-0.1475695 0,-0.052083 -0.034722,-0.1128472 -0.1215278,-0.1128472 -0.034722,0 -0.2083333,0.026042 -0.7899305,0.026042 -0.6336806,0 -0.7378472,-0.026042 -0.8072917,-0.026042 -0.1302083,0 -0.15625,0.086806 -0.15625,0.1475695 0,0.1041666 0.1041667,0.1128472 0.1822917,0.1128472 0.4861111,0.017361 0.4861111,0.234375 0.4861111,0.3472222 0,0.043403 -0.00868,0.086806 -0.017361,0.1302083 -0.017361,0.060764 -0.6770833,2.7256945 -0.7118056,2.8298612 -0.2864583,1.14583329 -1.2934027,1.77951384 -2.0833333,1.77951384 -0.546875,0 -1.0416667,-0.32986111 -1.0416667,-1.05902774 0,-0.1388889 0.026042,-0.3559028 0.060764,-0.4774306 l 0.7899306,-3.1857639 c 0.078125,-0.2864583 0.095486,-0.3645833 0.6770833,-0.3645833 0.15625,0 0.2517361,0 0.2517361,-0.1475695 0,-0.00868 -0.00868,-0.1128472 -0.1388889,-0.1128472 -0.1475694,0 -0.3385416,0.017361 -0.4947916,0.026042 H 1.8918206 c -0.7725694,0 -0.97222222,-0.026042 -1.03298611,-0.026042 -0.0347222,0 -0.15625,0 -0.15625,0.1475695 0,0.1128472 0.10416667,0.1128472 0.22569445,0.1128472 0.26909726,0 0.49479166,0 0.49479166,0.1302083 0,0.043403 -0.069444,0.3385417 -0.1128472,0.4947917 l -0.1822917,0.703125 -0.4079861,1.6840278 c -0.11284722,0.4427083 -0.14756944,0.5642361 -0.14756944,0.7725694 0,0.93750001 0.73784724,1.56250001 1.68402774,1.56250001 1.0850695,0 2.1006945,-0.91145833 2.3611111,-1.94444441 z m 0,0" style="fill:#ffffff;fill-opacity:1;fill-rule:nonzero;stroke:none" aria-label="U" transform="matrix(1.8,0,0,1.8,296.62207,252.21633)" />
    <path id="path53" d="m -49.6069,-28.3468 h 21.06085" style="fill:none;stroke:#121619;stroke-width:0.3985;stroke-linecap:butt;stroke-linejoin:miter;stroke-miterlimit:10;stroke-dasharray:none;stroke-opacity:1" transform="matrix(1.8,0,0,-1.8,302.54227,247.31493)" />
    <path id="path54" d="m -49.6069,-25.51212 h 21.06085" style="fill:none;stroke:#121619;stroke-width:0.3985;stroke-linecap:butt;stroke-linejoin:miter;stroke-miterlimit:10;stroke-dasharray:none;stroke-opacity:1" transform="matrix(1.8,0,0,-1.8,302.54227,247.31493)" />
    <path id="path55" d="m -49.6069,-22.67744 h 21.06085" style="fill:none;stroke:#121619;stroke-width:0.3985;stroke-linecap:butt;stroke-linejoin:miter;stroke-miterlimit:10;stroke-dasharray:none;stroke-opacity:1" transform="matrix(1.8,0,0,-1.8,302.54227,247.31493)" />
    <path id="path56" d="m -49.6069,-19.84276 h 21.06085" style="fill:none;stroke:#121619;stroke-width:0.3985;stroke-linecap:butt;stroke-linejoin:miter;stroke-miterlimit:10;stroke-dasharray:none;stroke-opacity:1" transform="matrix(1.8,0,0,-1.8,302.54227,247.31493)" />
    <path id="path57" d="m -49.6069,-17.00807 h 21.06085" style="fill:none;stroke:#121619;stroke-width:0.3985;stroke-linecap:butt;stroke-linejoin:miter;stroke-miterlimit:10;stroke-dasharray:none;stroke-opacity:1" transform="matrix(1.8,0,0,-1.8,302.54227,247.31493)" />
    <path id="path58" d="m -49.6069,-14.17339 h 21.06085" style="fill:none;stroke:#121619;stroke-width:0.3985;stroke-linecap:butt;stroke-linejoin:miter;stroke-miterlimit:10;stroke-dasharray:none;stroke-opacity:1" transform="matrix(1.8,0,0,-1.8,302.54227,247.31493)" />
    <path id="path59" d="m -49.6069,-11.33871 h 21.06085" style="fill:none;stroke:#121619;stroke-width:0.3985;stroke-linecap:butt;stroke-linejoin:miter;stroke-miterlimit:10;stroke-dasharray:none;stroke-opacity:1" transform="matrix(1.8,0,0,-1.8,302.54227,247.31493)" />
    <path id="path60" d="m -49.6069,28.3468 h 21.06085" style="fill:none;stroke:#121619;stroke-width:0.3985;stroke-linecap:butt;stroke-linejoin:miter;stroke-miterlimit:10;stroke-dasharray:none;stroke-opacity:1" transform="matrix(1.8,0,0,-1.8,302.54227,247.31493)" />
    <path id="path61" d="m -49.6069,25.51212 h 21.06085" style="fill:none;stroke:#121619;stroke-width:0.3985;stroke-linecap:butt;stroke-linejoin:miter;stroke-miterlimit:10;stroke-dasharray:none;stroke-opacity:1" transform="matrix(1.8,0,0,-1.8,302.54227,247.31493)" />
    <path id="path62" d="m -49.6069,22.67744 h 21.06085" style="fill:none;stroke:#121619;stroke-width:0.3985;stroke-linecap:butt;stroke-linejoin:miter;stroke-miterlimit:10;stroke-dasharray:none;stroke-opacity:1" transform="matrix(1.8,0,0,-1.8,302.54227,247.31493)" />
    <path id="path63" d="m -49.6069,19.84276 h 21.06085" style="fill:none;stroke:#121619;stroke-width:0.3985;stroke-linecap:butt;stroke-linejoin:miter;stroke-miterlimit:10;stroke-dasharray:none;stroke-opacity:1" transform="matrix(1.8,0,0,-1.8,302.54227,247.31493)" />
    <path id="path64" d="m -49.6069,17.00807 h 21.06085" style="fill:none;stroke:#121619;stroke-width:0.3985;stroke-linecap:butt;stroke-linejoin:miter;stroke-miterlimit:10;stroke-dasharray:none;stroke-opacity:1" transform="matrix(1.8,0,0,-1.8,302.54227,247.31493)" />
    <path id="path65" d="m -49.6069,14.17339 h 21.06085" style="fill:none;stroke:#121619;stroke-width:0.3985;stroke-linecap:butt;stroke-linejoin:miter;stroke-miterlimit:10;stroke-dasharray:none;stroke-opacity:1" transform="matrix(1.8,0,0,-1.8,302.54227,247.31493)" />
    <path id="path66" d="m -49.6069,11.33871 h 21.06085" style="fill:none;stroke:#121619;stroke-width:0.3985;stroke-linecap:butt;stroke-linejoin:miter;stroke-miterlimit:10;stroke-dasharray:none;stroke-opacity:1" transform="matrix(1.8,0,0,-1.8,302.54227,247.31493)" />
    <path id="path67" d="m -49.6069,8.50403 h 21.06085" style="fill:none;stroke:#121619;stroke-width:0.3985;stroke-linecap:butt;stroke-linejoin:miter;stroke-miterlimit:10;stroke-dasharray:none;stroke-opacity:1" transform="matrix(1.8,0,0,-1.8,302.54227,247.31493)" />
    <path id="path68" d="m -49.6069,5.66934 h 21.06085" style="fill:none;stroke:#121619;stroke-width:0.3985;stroke-linecap:butt;stroke-linejoin:miter;stroke-miterlimit:10;stroke-dasharray:none;stroke-opacity:1" transform="matrix(1.8,0,0,-1.8,302.54227,247.31493)" />
    <path id="path69" d="M 41.10287,19.84277 H 58.11093 V 36.85083 H 41.10287 Z" style="fill:#000000;fill-opacity:1;fill-rule:nonzero;stroke:#000000;stroke-width:0.3985;stroke-linecap:butt;stroke-linejoin:miter;stroke-miterlimit:10;stroke-dasharray:none;stroke-opacity:1" transform="matrix(1.8,0,0,-1.8,302.54227,247.31493)" />
    <path id="path70" d="m 55.27618,25.7957 c 0,3.13112 -2.53823,5.66934 -5.66935,5.66934 -3.13112,0 -5.66935,-2.53822 -5.66935,-5.66934" style="fill:none;stroke:#ffffff;stroke-width:0.79701;stroke-linecap:butt;stroke-linejoin:miter;stroke-miterlimit:10;stroke-dasharray:none;stroke-opacity:1" transform="matrix(1.8,0,0,-1.8,302.54227,247.31493)" />
    <path id="path71" d="m 49.6069,26.07901 5.66928,4.81891" style="fill:none;stroke:#ffffff;stroke-width:0.79701;stroke-linecap:butt;stroke-linejoin:miter;stroke-miterlimit:10;stroke-dasharray:none;stroke-opacity:1" transform="matrix(1.8,0,0,-1.8,302.54227,247.31493)" />
    <path id="path72" d="m 50.17383,26.07901 c 0,0.31311 -0.25383,0.56694 -0.56693,0.56694 -0.31309,0 -0.56692,-0.25383 -0.56692,-0.56694 0,-0.3131 0.25383,-0.56693 0.56692,-0.56693 0.3131,0 0.56693,0.25383 0.56693,0.56693 z" style="fill:#ffffff;fill-opacity:1;fill-rule:nonzero;stroke:none" transform="matrix(1.8,0,0,-1.8,302.54227,247.31493)" />
    <path id="path73" d="m 2.4991782,-5.0773866 c 0,-0.2170139 -0.017361,-0.2170139 -0.2256944,-0.2170139 -0.3298611,0.3125 -0.7552083,0.5034723 -1.51041667,0.5034723 v 0.2690972 c 0.21701389,0 0.64236107,0 1.11111107,-0.2170139 v 4.08854166 c 0,0.29513889 -0.026042,0.390625 -0.78125,0.390625 H 0.81515046 V 7.3842593e-4 C 1.136331,-0.02530324 1.8220949,-0.02530324 2.1866782,-0.02530324 c 0.3559028,0 1.0503473,0 1.3715278,0.0260416659 V -0.25967824 H 3.2804282 c -0.7552083,0 -0.78125,-0.0954861 -0.78125,-0.390625 z m 0,0" style="fill:#121619;fill-opacity:1;fill-rule:nonzero;stroke:none" aria-label="1" transform="matrix(1.8,0,0,1.8,435.24367,200.91273)" />
    <path id="path74" d="M 58.3102,29.05545 H 70.867" style="fill:none;stroke:#121619;stroke-width:0.3985;stroke-linecap:butt;stroke-linejoin:miter;stroke-miterlimit:10;stroke-dasharray:none;stroke-opacity:1" transform="matrix(1.8,0,0,-1.8,302.54227,247.31493)" />
    <path id="path75" d="M 58.3102,27.63815 H 70.867" style="fill:none;stroke:#121619;stroke-width:0.3985;stroke-linecap:butt;stroke-linejoin:miter;stroke-miterlimit:10;stroke-dasharray:none;stroke-opacity:1" transform="matrix(1.8,0,0,-1.8,302.54227,247.31493)" />
    <path id="path76" d="M 28.54605,28.3468 H 40.90363" style="fill:none;stroke:#121619;stroke-width:0.3985;stroke-linecap:butt;stroke-linejoin:miter;stroke-miterlimit:10;stroke-dasharray:none;stroke-opacity:1" transform="matrix(1.8,0,0,-1.8,302.54227,247.31493)" />
    <path id="path77" d="M 28.54605,-28.3468 H 70.867" style="fill:none;stroke:#121619;stroke-width:0.3985;stroke-linecap:butt;stroke-linejoin:miter;stroke-miterlimit:10;stroke-dasharray:none;stroke-opacity:1" transform="matrix(1.8,0,0,-1.8,302.54227,247.31493)" />
    <path id="path78" d="M 28.54605,-25.51212 H 70.867" style="fill:none;stroke:#121619;stroke-width:0.3985;stroke-linecap:butt;stroke-linejoin:miter;stroke-miterlimit:10;stroke-dasharray:none;stroke-opacity:1" transform="matrix(1.8,0,0,-1.8,302.54227,247.31493)" />
    <path id="path79" d="M 28.54605,-22.67744 H 70.867" style="fill:none;stroke:#121619;stroke-width:0.3985;stroke-linecap:butt;stroke-linejoin:miter;stroke-miterlimit:10;stroke-dasharray:none;stroke-opacity:1" transform="matrix(1.8,0,0,-1.8,302.54227,247.31493)" />
    <path id="path80" d="M 28.54605,-19.84276 H 70.867" style="fill:none;stroke:#121619;stroke-width:0.3985;stroke-linecap:butt;stroke-linejoin:miter;stroke-miterlimit:10;stroke-dasharray:none;stroke-opacity:1" transform="matrix(1.8,0,0,-1.8,302.54227,247.31493)" />
    <path id="path81" d="M 28.54605,-17.00807 H 70.867" style="fill:none;stroke:#121619;stroke-width:0.3985;stroke-linecap:butt;stroke-linejoin:miter;stroke-miterlimit:10;stroke-dasharray:none;stroke-opacity:1" transform="matrix(1.8,0,0,-1.8,302.54227,247.31493)" />
    <path id="path82" d="M 28.54605,-14.17339 H 70.867" style="fill:none;stroke:#121619;stroke-width:0.3985;stroke-linecap:butt;stroke-linejoin:miter;stroke-miterlimit:10;stroke-dasharray:none;stroke-opacity:1" transform="matrix(1.8,0,0,-1.8,302.54227,247.31493)" />
    <path id="path83" d="M 28.54605,-11.33871 H 70.867" style="fill:none;stroke:#121619;stroke-width:0.3985;stroke-linecap:butt;stroke-linejoin:miter;stroke-miterlimit:10;stroke-dasharray:none;stroke-opacity:1" transform="matrix(1.8,0,0,-1.8,302.54227,247.31493)" />
    <path id="path84" d="M 28.54605,-8.50403 H 70.867" style="fill:none;stroke:#121619;stroke-width:0.3985;stroke-linecap:butt;stroke-linejoin:miter;stroke-miterlimit:10;stroke-dasharray:none;stroke-opacity:1" transform="matrix(1.8,0,0,-1.8,302.54227,247.31493)" />
    <path id="path85" d="M 28.54605,-5.66934 H 70.867" style="fill:none;stroke:#121619;stroke-width:0.3985;stroke-linecap:butt;stroke-linejoin:miter;stroke-miterlimit:10;stroke-dasharray:none;stroke-opacity:1" transform="matrix(1.8,0,0,-1.8,302.54227,247.31493)" />
    <path id="path86" d="M 28.54605,-2.83466 H 70.867" style="fill:none;stroke:#121619;stroke-width:0.3985;stroke-linecap:butt;stroke-linejoin:miter;stroke-miterlimit:10;stroke-dasharray:none;stroke-opacity:1" transform="matrix(1.8,0,0,-1.8,302.54227,247.31493)" />
    <path id="path87" d="M 28.54605,0 H 70.867" style="fill:none;stroke:#121619;stroke-width:0.3985;stroke-linecap:butt;stroke-linejoin:miter;stroke-miterlimit:10;stroke-dasharray:none;stroke-opacity:1" transform="matrix(1.8,0,0,-1.8,302.54227,247.31493)" />
    <path id="path88" d="M 28.54605,2.83466 H 70.867" style="fill:none;stroke:#121619;stroke-width:0.3985;stroke-linecap:butt;stroke-linejoin:miter;stroke-miterlimit:10;stroke-dasharray:none;stroke-opacity:1" transform="matrix(1.8,0,0,-1.8,302.54227,247.31493)" />
    <path id="path89" d="M 28.54605,5.66934 H 70.867" style="fill:none;stroke:#121619;stroke-width:0.3985;stroke-linecap:butt;stroke-linejoin:miter;stroke-miterlimit:10;stroke-dasharray:none;stroke-opacity:1" transform="matrix(1.8,0,0,-1.8,302.54227,247.31493)" />
    <path id="path90" d="M 28.54605,8.50403 H 70.867" style="fill:none;stroke:#121619;stroke-width:0.3985;stroke-linecap:butt;stroke-linejoin:miter;stroke-miterlimit:10;stroke-dasharray:none;stroke-opacity:1" transform="matrix(1.8,0,0,-1.8,302.54227,247.31493)" />
    <path id="path91" d="M 28.54605,11.33871 H 70.867" style="fill:none;stroke:#121619;stroke-width:0.3985;stroke-linecap:butt;stroke-linejoin:miter;stroke-miterlimit:10;stroke-dasharray:none;stroke-opacity:1" transform="matrix(1.8,0,0,-1.8,302.54227,247.31493)" />
    <g id="g91" aria-label="∣ϕ⟩" transform="matrix(1.8,0,0,1.8,182.60287,220.64613)">
      <path id="path92" d="M 1.1971921,-6.09464 V 1.7091794 H 1.7006644 V -6.09464 Z m 0,0" style="fill:#121619;fill-opacity:1;fill-rule:nonzero;stroke:none" />
      <path id="path93" d="m 6.5813067,-5.4262373 c 0,-0.095486 -0.086805,-0.1041666 -0.1302083,-0.1041666 -0.1041667,0 -0.1041667,0.043403 -0.1388889,0.1736111 l -0.4513889,1.8229166 c -1.4149306,0.069444 -2.5520833,1.1284723 -2.5520833,2.1614584 0,0.79861109 0.6944444,1.42361109 1.640625,1.45833331 C 4.8885984,0.33765162 4.8278345,0.58938773 4.7670706,0.83244329 4.6715845,1.2143877 4.60214,1.5095266 4.60214,1.5268877 c 0,0.00868 0,0.095486 0.1128473,0.095486 0.1041666,0 0.1128472,-0.034722 0.15625,-0.1909722 L 5.2010984,0.09459606 C 6.6160289,0.02515162 7.7445012,-1.0251956 7.7445012,-2.0581817 c 0,-0.9114583 -0.8072917,-1.4322917 -1.6319445,-1.4670139 z m -0.5208333,2.1180556 c 0.5815972,0.052083 1.1197916,0.3645833 1.1197916,1.1111111 0,0.7552083 -0.546875,1.92708333 -1.9184027,2.05729166 z M 5.0014456,-0.13109838 C 4.7497095,-0.14845949 3.8816539,-0.26998727 3.8816539,-1.2335289 c 0,-0.859375 0.6336806,-1.9444445 1.9097223,-2.0659723 z m 0,0" style="fill:#121619;fill-opacity:1;fill-rule:nonzero;stroke:none" />
      <path id="path94" d="M 9.1507512,1.795985 10.583043,-2.18839 9.1507512,-6.1814456 8.66464,-6.0078345 10.105612,-2.18839 8.66464,1.6223738 Z m 0,0" style="fill:#121619;fill-opacity:1;fill-rule:nonzero;stroke:none" />
    </g>
    <g id="g94" aria-label="∣0⋯0⟩" transform="matrix(1.8,0,0,1.8,161.85967,286.97613)">
      <path id="path95" d="m 1.1977546,-6.0935116 v 7.8038195 h 0.5034723 v -7.8038195 z m 0,0" style="fill:#121619;fill-opacity:1;fill-rule:nonzero;stroke:none" />
      <path id="path96" d="m 6.7988831,-2.5431644 c 0,-0.8506944 -0.086806,-1.3715277 -0.3472222,-1.875 -0.3559028,-0.703125 -0.9982639,-0.8767361 -1.4409722,-0.8767361 -0.9982639,0 -1.3715278,0.7465278 -1.4756945,0.9722223 -0.2951389,0.5815972 -0.3038194,1.3628472 -0.3038194,1.7795138 0,0.5295139 0.017361,1.328125 0.3993055,1.97048616 0.3732639,0.59027778 0.9635417,0.73784722 1.3802084,0.73784722 0.3819444,0 1.0677083,-0.11284722 1.4670138,-0.90277778 0.2951389,-0.5729167 0.3211806,-1.2847222 0.3211806,-1.8055556 z m -1.7881944,2.49131949 c -0.2690973,0 -0.8159723,-0.13020833 -0.9895834,-0.97222219 -0.086806,-0.4513889 -0.086806,-1.1979167 -0.086806,-1.6145834 0,-0.546875 0,-1.1024305 0.086806,-1.5451389 0.1736111,-0.8159722 0.7899306,-0.8940972 0.9895834,-0.8940972 0.2690972,0 0.8246527,0.1388889 0.9809027,0.859375 0.095486,0.4427084 0.095486,1.0416667 0.095486,1.5798611 0,0.46875 0,1.1892361 -0.095486,1.6319445 -0.1649305,0.84201387 -0.7118055,0.95486109 -0.9809027,0.95486109 z m 0,0" style="fill:#121619;fill-opacity:1;fill-rule:nonzero;stroke:none" />
      <path id="path97" d="m 9.0449769,-2.1872616 c 0,-0.1215278 -0.1215278,-0.2604166 -0.234375,-0.3645833 -0.1041667,-0.1041667 -0.2430556,-0.234375 -0.3645834,-0.234375 -0.1128472,0 -0.2517361,0.1302083 -0.3559028,0.234375 -0.1041666,0.1041667 -0.234375,0.2430555 -0.234375,0.3645833 0,0.1128472 0.1302084,0.2517361 0.234375,0.3559028 0.1041667,0.1041667 0.2430556,0.234375 0.3559028,0.234375 0.1215278,0 0.2604167,-0.1302083 0.3645834,-0.234375 0.1128472,-0.1041667 0.234375,-0.2430556 0.234375,-0.3559028 z m 2.7256941,0 c 0,-0.1215278 -0.130208,-0.2604166 -0.234375,-0.3645833 -0.104166,-0.1041667 -0.234375,-0.234375 -0.355902,-0.234375 -0.112848,0 -0.260417,0.1302083 -0.364584,0.234375 -0.104166,0.1041667 -0.234375,0.2430555 -0.234375,0.3645833 0,0.1128472 0.130209,0.2517361 0.234375,0.3559028 0.104167,0.1041667 0.251736,0.234375 0.364584,0.234375 0.121527,0 0.251736,-0.1302083 0.355902,-0.234375 0.104167,-0.1041667 0.234375,-0.2430556 0.234375,-0.3559028 z m 2.734375,0 c 0,-0.1215278 -0.130208,-0.2604166 -0.234375,-0.3645833 -0.104166,-0.1041667 -0.243055,-0.234375 -0.364583,-0.234375 -0.112847,0 -0.251736,0.1302083 -0.355903,0.234375 -0.112847,0.1041667 -0.243055,0.2430555 -0.243055,0.3645833 0,0.1128472 0.130208,0.2517361 0.243055,0.3559028 0.104167,0.1041667 0.243056,0.234375 0.355903,0.234375 0.121528,0 0.260417,-0.1302083 0.364583,-0.234375 0.104167,-0.1041667 0.234375,-0.2430556 0.234375,-0.3559028 z m 0,0" style="fill:#121619;fill-opacity:1;fill-rule:nonzero;stroke:none" />
      <path id="path98" d="m 19.123102,-2.5431644 c 0,-0.8506944 -0.08681,-1.3715277 -0.347222,-1.875 -0.355903,-0.703125 -0.998264,-0.8767361 -1.440973,-0.8767361 -0.998263,0 -1.371527,0.7465278 -1.475694,0.9722223 -0.295139,0.5815972 -0.303819,1.3628472 -0.303819,1.7795138 0,0.5295139 0.01736,1.328125 0.399305,1.97048616 0.373264,0.59027778 0.963542,0.73784722 1.380208,0.73784722 0.381945,0 1.067709,-0.11284722 1.467014,-0.90277778 0.295139,-0.5729167 0.321181,-1.2847222 0.321181,-1.8055556 z m -1.788195,2.49131949 c -0.269097,0 -0.815972,-0.13020833 -0.989583,-0.97222219 -0.08681,-0.4513889 -0.08681,-1.1979167 -0.08681,-1.6145834 0,-0.546875 0,-1.1024305 0.08681,-1.5451389 0.173611,-0.8159722 0.789931,-0.8940972 0.989583,-0.8940972 0.269098,0 0.824653,0.1388889 0.980903,0.859375 0.09549,0.4427084 0.09549,1.0416667 0.09549,1.5798611 0,0.46875 0,1.1892361 -0.09549,1.6319445 -0.16493,0.84201387 -0.711805,0.95486109 -0.980903,0.95486109 z m 0,0" style="fill:#121619;fill-opacity:1;fill-rule:nonzero;stroke:none" />
      <path id="path99" d="m 20.674751,1.7971134 1.432292,-3.984375 -1.432292,-3.9930555 -0.486111,0.1736111 1.440972,3.8194444 -1.440972,3.8107639 z m 0,0" style="fill:#121619;fill-opacity:1;fill-rule:nonzero;stroke:none" />
    </g>
  </g>
</svg>