<?xml version='1.0' encoding='utf-8'?>
<svg xmlns="http://www.w3.org/2000/svg" xmlns:ns1="http://sodipodi.sourceforge.net/DTD/sodipodi-0.dtd" xmlns:ns2="http://www.inkscape.org/namespaces/inkscape" version="1.1" id="svg1" width="100%" height="auto" viewBox="-20.0 -20.0 488.52734 79.853527" ns1:docname="svg_fix_XXXXXX.svg">
  <rect id="path1" x="-20.0" y="-20.0" width="488.52734" height="79.853527" fill="white" /><ns1:namedview id="namedview1" pagecolor="#ffffff" bordercolor="#000000" borderopacity="0.25" ns2:showpageshadow="2" ns2:pageopacity="0.0" ns2:pagecheckerboard="0" ns2:deskcolor="#d1d1d1" />
  <defs id="defs1" />
  <g id="g1" transform="translate(-122.84375,-30.799236)">
    <g id="g2" aria-label="∣0⟩" transform="matrix(2.2,0,0,2.2,120.21927,55.5484)">
      <path id="path2" d="m 1.192947,-6.0944432 v 7.8053977 h 0.5113636 v -7.8053977 z m 0,0" style="fill:#121619;fill-opacity:1;fill-rule:nonzero;stroke:none" />
      <path id="path3" d="m 6.8001913,-2.5433068 c 0,-0.8522727 -0.09233,-1.3707387 -0.3551136,-1.8821023 -0.3480114,-0.6960227 -0.9943182,-0.8735795 -1.4346591,-0.8735795 -1.0014205,0 -1.3707387,0.7457386 -1.4772728,0.9730113 -0.2911931,0.5823864 -0.3053977,1.3707387 -0.3053977,1.7826705 0,0.5255682 0.021307,1.328125 0.4048296,1.96732953 0.3693181,0.58948863 0.9588068,0.74573863 1.3778409,0.74573863 0.3835227,0 1.0724431,-0.12073863 1.4701704,-0.90909091 C 6.7717822,-1.3146136 6.8001913,-2.0248409 6.8001913,-2.5433068 Z m -1.7897727,2.48579544 c -0.2698864,0 -0.8167614,-0.12784091 -0.9872159,-0.96590914 -0.085227,-0.4545454 -0.085227,-1.200284 -0.085227,-1.6122159 0,-0.5539772 0,-1.1079545 0.085227,-1.5482954 0.1704545,-0.8096591 0.7883522,-0.8948864 0.9872159,-0.8948864 0.2698863,0 0.8238636,0.1349432 0.9801136,0.859375 0.099432,0.4403409 0.099432,1.0369318 0.099432,1.5838068 0,0.46875 0,1.1860796 -0.099432,1.6335228 -0.1633523,0.83096587 -0.7173295,0.94460224 -0.9801136,0.94460224 z m 0,0" style="fill:#121619;fill-opacity:1;fill-rule:nonzero;stroke:none" />
      <path id="path4" d="M 8.3502623,1.8032841 9.7849214,-2.1952955 8.3502623,-6.1867727 7.8673078,-6.0092159 9.3019669,-2.1952955 7.8673078,1.6257273 Z m 0,0" style="fill:#121619;fill-opacity:1;fill-rule:nonzero;stroke:none" />
    </g>
    <g id="g4" aria-label="1+i" transform="matrix(2.2,0,0,2.2,457.79607,46.1434)">
      <path id="path5" d="m 2.1452538,-3.7992017 c 0,-0.1775568 -0.021307,-0.1775568 -0.1988636,-0.1775568 -0.3977273,0.3835227 -1.00852278,0.3835227 -1.22159096,0.3835227 v 0.234375 c 0.15625,0 0.54687496,0 0.90909096,-0.1704545 v 3.01846587 c 0,0.19886363 0,0.27698863 -0.6178978,0.27698863 H 0.76031061 V 5.1420455e-4 C 1.0870152,-0.02079261 1.5557652,-0.02079261 1.889572,-0.02079261 c 0.3338068,0 0.8025568,0 1.1292613,0.0213068145 V -0.2338608 H 2.7631515 c -0.6178977,0 -0.6178977,-0.078125 -0.6178977,-0.27698863 z m 0,0" style="fill:#121619;fill-opacity:1;fill-rule:nonzero;stroke:none" />
      <path id="path6" d="m 5.6129384,-3.259429 v 1.4275568 H 4.1924839 v 0.3764205 h 1.4204545 v 1.42755681 H 5.9964612 V -1.4554517 H 7.4169157 V -1.8318722 H 5.9964612 V -3.259429 Z m 0,0" style="fill:#121619;fill-opacity:1;fill-rule:nonzero;stroke:none" />
      <path id="path7" d="m 10.037654,-3.728179 c 0,-0.1491477 -0.1065337,-0.2414772 -0.2485792,-0.2414772 -0.15625,0 -0.3338068,0.15625 -0.3338068,0.3267045 0,0.1491477 0.1065341,0.2414773 0.2414773,0.2414773 0.1917613,0 0.3409087,-0.1775568 0.3409087,-0.3267046 z m -0.3622156,2.0809659 c 0.028409,-0.056818 0.078125,-0.1988636 0.1065341,-0.2556818 0.014205,-0.049716 0.042614,-0.1136363 0.042614,-0.2130682 0,-0.3338068 -0.2982955,-0.5184659 -0.5965909,-0.5184659 -0.6107955,0 -0.9090909,0.7883523 -0.9090909,0.9161932 0,0.035511 0.028409,0.085227 0.1136363,0.085227 0.078125,0 0.099432,-0.035511 0.1136364,-0.085227 0.1704545,-0.5823864 0.4900568,-0.7244318 0.6534091,-0.7244318 0.1207386,0 0.1633522,0.078125 0.1633522,0.2201704 0,0.1207387 -0.035511,0.205966 -0.049716,0.2485796 l -0.3125,0.7670454 c -0.071023,0.1704546 -0.071023,0.1846591 -0.1491477,0.39062504 -0.078125,0.17755682 -0.1065341,0.25568182 -0.1065341,0.35511364 0,0.30539772 0.2769887,0.51846591 0.6036932,0.51846591 0.6036932,0 0.9019889,-0.78835228 0.9019889,-0.91619319 0,-0.0142045 -0.0071,-0.0852273 -0.113637,-0.0852273 -0.07813,0 -0.08523,0.0284091 -0.120738,0.14204546 -0.099432,0.30539772 -0.3409094,0.66761363 -0.6463071,0.66761363 -0.1065341,0 -0.1633523,-0.0710227 -0.1633523,-0.22017045 0,-0.12073864 0.035511,-0.20596591 0.1136364,-0.390625 z m 0,0" style="fill:#121619;fill-opacity:1;fill-rule:nonzero;stroke:none" />
    </g>
    <path id="path8" d="m 91.677,28.819 h 10.621" style="fill:none;stroke:#121619;stroke-width:0.4463;stroke-linecap:butt;stroke-linejoin:miter;stroke-miterlimit:10;stroke-dasharray:none;stroke-opacity:1" transform="matrix(2.2,0,0,-2.2,256.10667,112.48)" />
    <g id="g8" aria-label="2&#10;∣0⟩+&#10;1" transform="matrix(2.2,0,0,2.2,465.46087,61.2662)">
      <path id="path9" d="M 3.2173617,-1.1153182 H 2.9971913 c -0.014205,0.078125 -0.071023,0.47585229 -0.1633523,0.53977275 -0.042614,0.0355114 -0.5255682,0.0355114 -0.6107954,0.0355114 H 1.1079867 L 1.8750322,-1.1579318 c 0.1988636,-0.1633523 0.7315341,-0.546875 0.9161932,-0.7244318 0.1775568,-0.1775569 0.4261363,-0.4829546 0.4261363,-0.9090909 0,-0.7457387 -0.6747159,-1.1860796 -1.4772727,-1.1860796 -0.77414771,0 -1.30681817,0.5113636 -1.30681817,1.0724432 0,0.3053977 0.25568182,0.3409091 0.31960228,0.3409091 0.14914772,0 0.32670459,-0.1065341 0.32670459,-0.3267046 0,-0.1278409 -0.078125,-0.3196022 -0.34090914,-0.3196022 0.13494318,-0.3053978 0.49715914,-0.5326705 0.90909094,-0.5326705 0.6321022,0 0.9659091,0.46875 0.9659091,0.9517046 0,0.4261363 -0.2840909,0.859375 -0.703125,1.2428977 l -1.41335231,1.29971589 c -0.0639205,0.0568182 -0.0639205,0.0639205 -0.0639205,0.24857954636 H 3.0327027 Z m 0,0" style="fill:#121619;fill-opacity:1;fill-rule:nonzero;stroke:none" />
      <path id="path10" d="m 9.5259555,-9.442733 v 7.8053978 H 10.037319 V -9.442733 Z m 0,0" style="fill:#121619;fill-opacity:1;fill-rule:nonzero;stroke:none" />
      <path id="path11" d="m 15.131424,-5.8915966 c 0,-0.8522727 -0.09233,-1.3707386 -0.355113,-1.8821023 -0.348012,-0.6960227 -0.994319,-0.8735795 -1.434659,-0.8735795 -1.001421,0 -1.370739,0.7457386 -1.477273,0.9730114 -0.291193,0.5823863 -0.305398,1.3707386 -0.305398,1.7826704 0,0.5255682 0.02131,1.328125 0.40483,1.9673296 0.369318,0.5894886 0.958806,0.7457386 1.377841,0.7457386 0.383522,0 1.072443,-0.1207386 1.47017,-0.9090909 0.291193,-0.5752841 0.319602,-1.2855114 0.319602,-1.8039773 z m -1.789772,2.4857955 c -0.269887,0 -0.816762,-0.1278409 -0.987216,-0.9659091 -0.08523,-0.4545455 -0.08523,-1.2002841 -0.08523,-1.6122159 0,-0.5539773 0,-1.1079546 0.08523,-1.5482955 0.170454,-0.8096591 0.788352,-0.8948864 0.987216,-0.8948864 0.269886,0 0.823863,0.1349432 0.980113,0.859375 0.09943,0.440341 0.09943,1.0369319 0.09943,1.5838069 0,0.46875 0,1.1860795 -0.09943,1.6335227 -0.163352,0.8309659 -0.717329,0.9446023 -0.980113,0.9446023 z m 0,0" style="fill:#121619;fill-opacity:1;fill-rule:nonzero;stroke:none" />
      <path id="path12" d="m 16.681495,-1.5450057 1.434659,-3.9985795 -1.434659,-3.9914773 -0.482954,0.1775568 1.434659,3.8139205 -1.434659,3.8210227 z m 0,0" style="fill:#121619;fill-opacity:1;fill-rule:nonzero;stroke:none" />
      <path id="path13" d="m 23.231566,-7.6884716 v 1.8963068 h -1.896307 v 0.5042614 h 1.896307 v 1.8963068 h 0.511364 v -1.8963068 h 1.896307 V -5.7921648 H 23.74293 v -1.8963068 z m 0,0" style="fill:#121619;fill-opacity:1;fill-rule:nonzero;stroke:none" />
      <path id="path14" d="m 33.560046,-10.673202 c 0,-0.177557 -0.02131,-0.177557 -0.198863,-0.177557 -0.397728,0.383523 -1.008523,0.383523 -1.221591,0.383523 v 0.234375 c 0.15625,0 0.546875,0 0.909091,-0.170454 v 3.0184656 c 0,0.1988636 0,0.2769886 -0.617898,0.2769886 h -0.255682 v 0.234375 c 0.326705,-0.021307 0.795455,-0.021307 1.129262,-0.021307 0.333806,0 0.802556,0 1.129261,0.021307 v -0.234375 h -0.255682 c -0.617898,0 -0.617898,-0.078125 -0.617898,-0.2769886 z m 0,0" style="fill:#121619;fill-opacity:1;fill-rule:nonzero;stroke:none" />
    </g>
    <path id="path15" d="m 124.484,28.819 h 7.837" style="fill:none;stroke:#121619;stroke-width:0.4463;stroke-linecap:butt;stroke-linejoin:miter;stroke-miterlimit:10;stroke-dasharray:none;stroke-opacity:1" transform="matrix(2.2,0,0,-2.2,256.10667,112.48)" />
    <path id="path16" d="M 0.41247254,3.2312784 0.81019981,3.0608239 1.8613362,5.5253125 2.2164498,5.3761648 4.1837794,-2.5568182e-4 H 4.3755407 V -0.3340625 H 3.8996884 L 2.0957112,4.7369602 1.2221316,2.6773011 0.33434754,3.0537216 Z m 0,0" style="fill:#121619;fill-opacity:1;fill-rule:nonzero;stroke:none" aria-label="√" transform="matrix(2.2,0,0,2.2,529.97147,52.024)" />
    <path id="path17" d="m 128.668,27.648 h 3.653" style="fill:none;stroke:#121619;stroke-width:0.3347;stroke-linecap:butt;stroke-linejoin:miter;stroke-miterlimit:10;stroke-dasharray:none;stroke-opacity:1" transform="matrix(2.2,0,0,-2.2,256.10667,112.48)" />
    <g id="g17" aria-label="2&#10;∣1⟩" transform="matrix(2.2,0,0,2.2,539.17627,62.7204)">
      <path id="path18" d="M 3.2171089,-1.1158068 H 2.9969384 c -0.014204,0.078125 -0.071023,0.47585225 -0.1633522,0.53977271 -0.042614,0.0355114 -0.5255682,0.0355114 -0.6107955,0.0355114 H 1.1077339 L 1.8747794,-1.1584205 c 0.1988636,-0.1633522 0.731534,-0.546875 0.9161931,-0.7244318 0.1775569,-0.1775568 0.4261364,-0.4829545 0.4261364,-0.9090909 0,-0.7457386 -0.6747159,-1.1860795 -1.4772727,-1.1860795 -0.77414775,0 -1.30681821,0.5113636 -1.30681821,1.0724432 0,0.3053977 0.25568182,0.340909 0.31960228,0.340909 0.14914772,0 0.32670453,-0.106534 0.32670453,-0.3267045 0,-0.1278409 -0.078125,-0.3196023 -0.34090908,-0.3196023 0.13494318,-0.3053977 0.49715908,-0.5326704 0.90909088,-0.5326704 0.6321023,0 0.9659091,0.46875 0.9659091,0.9517045 0,0.4261364 -0.2840909,0.859375 -0.703125,1.2428977 l -1.41335225,1.29971595 c -0.0639205,0.0568182 -0.0639205,0.0639205 -0.0639205,0.24857955 H 3.0324498 Z m 0,0" style="fill:#121619;fill-opacity:1;fill-rule:nonzero;stroke:none" />
      <path id="path19" d="m 6.0420379,-10.103733 v 7.8053978 h 0.5113636 v -7.8053978 z m 0,0" style="fill:#121619;fill-opacity:1;fill-rule:nonzero;stroke:none" />
      <path id="path20" d="m 10.250134,-9.088108 c 0,-0.2130681 -0.0142,-0.2201704 -0.227272,-0.2201704 -0.3267048,0.3196023 -0.7528412,0.5113636 -1.5056821,0.5113636 v 0.2627841 c 0.2130682,0 0.6463068,0 1.1079546,-0.2201704 v 4.0909091 c 0,0.2982954 -0.028409,0.390625 -0.78125,0.390625 H 8.5597936 v 0.262784 c 0.3267045,-0.021307 1.015625,-0.021307 1.3707386,-0.021307 0.3622158,0 1.0582388,0 1.3849428,0.021307 v -0.262784 h -0.284091 c -0.75284,0 -0.78125,-0.09233 -0.78125,-0.390625 z m 0,0" style="fill:#121619;fill-opacity:1;fill-rule:nonzero;stroke:none" />
      <path id="path21" d="m 13.199353,-2.2060057 1.434659,-3.9985795 -1.434659,-3.9914768 -0.482954,0.177556 1.434659,3.8139208 -1.434659,3.8210227 z m 0,0" style="fill:#121619;fill-opacity:1;fill-rule:nonzero;stroke:none" />
    </g>
    <path id="path22" d="M -53.8379,0 H 82.18471" style="fill:none;stroke:#121619;stroke-width:0.3985;stroke-linecap:butt;stroke-linejoin:miter;stroke-miterlimit:10;stroke-dasharray:none;stroke-opacity:1" transform="matrix(2.2,0,0,-2.2,268.07907,50.726)" />
    <path id="path23" d="m -37.20518,-8.85837 h 17.71674 V 8.85837 h -17.71674 z" style="fill:#78a9ff;fill-opacity:1;fill-rule:nonzero;stroke:#78a9ff;stroke-width:0.3985;stroke-linecap:butt;stroke-linejoin:miter;stroke-miterlimit:10;stroke-dasharray:none;stroke-opacity:1" transform="matrix(2.2,0,0,-2.2,268.07907,50.726)" />
    <path id="path24" d="m 6.3627509,-4.7948324 c 0.085227,-0.3125 0.099432,-0.3835227 0.6534091,-0.3835227 0.1846591,0 0.2840909,0 0.2840909,-0.15625 0,-0.0071 -0.0071,-0.1065341 -0.1349431,-0.1065341 -0.15625,0 -0.3480114,0.014204 -0.4971591,0.021307 H 6.1638873 c -0.7599432,0 -0.9659091,-0.021307 -1.0227273,-0.021307 -0.035511,0 -0.1633522,0 -0.1633522,0.1491477 0,0.1136364 0.1065341,0.1136364 0.234375,0.1136364 0.2627841,0 0.4900568,0 0.4900568,0.1278409 0,0.028409 -0.0071,0.035511 -0.028409,0.1420455 L 5.1979782,-2.962446 H 2.6269555 l 0.4616477,-1.8607955 c 0.071023,-0.2840909 0.09233,-0.3551136 0.6747159,-0.3551136 0.15625,0 0.2485796,0 0.2485796,-0.15625 0,-0.0071 -0.0071,-0.1065341 -0.1349432,-0.1065341 -0.1491477,0 -0.3409091,0.014204 -0.4900568,0.021307 H 2.8826373 c -0.7670454,0 -0.9730114,-0.021307 -1.0298295,-0.021307 -0.028409,0 -0.15625,0 -0.15625,0.1491477 0,0.1136364 0.1065341,0.1136364 0.234375,0.1136364 0.2627841,0 0.4900568,0 0.4900568,0.1278409 0,0.028409 -0.0071,0.035511 -0.028409,0.1420455 l -1.0724432,4.27556813 c -0.071023,0.30539773 -0.085227,0.36931818 -0.6747159,0.36931818 -0.14914773,0 -0.24857954,0 -0.24857954,0.14914773 0,0.03551136 0.0213068,0.11363636455 0.12784091,0.11363636455 0.14914772,0 0.34090909,-0.0142045446 0.49715913,-0.0213068145 h 0.5042613 c 0.7670455,0 0.9730114,0.0213068145 1.0298296,0.0213068145 0.049716,0 0.1633522,0 0.1633522,-0.14914772455 0,-0.11363637 -0.1065341,-0.11363637 -0.2414772,-0.11363637 -0.021307,0 -0.1704546,0 -0.3053978,-0.0142045 -0.1633522,-0.0213068 -0.1846591,-0.0426136 -0.1846591,-0.11363637 0,-0.0426136 0.021307,-0.0852273 0.028409,-0.1278409 L 2.5559328,-2.6996619 h 2.5639204 c -0.2272727,0.9375 -0.5397727,2.18039774 -0.546875,2.18039774 -0.071023,0.24857954 -0.2130682,0.24857954 -0.6960227,0.25568181 -0.09233,0 -0.1988636,0 -0.1988636,0.14914773 0,0.03551136 0.028409,0.11363636455 0.1278409,0.11363636455 0.15625,0 0.3480113,-0.0142045446 0.4971591,-0.0213068145 h 0.5113636 c 0.7599432,0 0.9730114,0.0213068145 1.0227273,0.0213068145 0.049716,0 0.1633522,0 0.1633522,-0.14914772455 0,-0.11363637 -0.1065341,-0.11363637 -0.2414772,-0.11363637 -0.021307,0 -0.1633523,0 -0.2982955,-0.0142045 -0.1704545,-0.0213068 -0.1846591,-0.0426136 -0.1846591,-0.11363637 0,-0.0426136 0.014205,-0.0852273 0.021307,-0.1278409 z m 0,0" style="fill:#ffffff;fill-opacity:1;fill-rule:nonzero;stroke:none" aria-label="H" transform="matrix(2.2,0,0,2.2,197.38867,56.7166)" />
    <path id="path25" d="M -8.85837,-8.85837 H 8.85837 V 8.85837 H -8.85837 Z" style="fill:#78a9ff;fill-opacity:1;fill-rule:nonzero;stroke:#78a9ff;stroke-width:0.3985;stroke-linecap:butt;stroke-linejoin:miter;stroke-miterlimit:10;stroke-dasharray:none;stroke-opacity:1" transform="matrix(2.2,0,0,-2.2,268.07907,50.726)" />
    <path id="path26" d="m 5.3472879,-5.3985256 c 0.0071,-0.028409 0.021307,-0.078125 0.021307,-0.1136363 0,-0.056818 -0.049716,-0.099432 -0.099432,-0.099432 -0.056818,0 -0.071023,0.014204 -0.1633523,0.1136363 -0.085227,0.099432 -0.2911932,0.3551137 -0.3835227,0.4545455 -0.3053977,-0.4545455 -0.8096591,-0.5681818 -1.2144887,-0.5681818 -1.1079545,0 -2.059659,0.9303977 -2.059659,1.8394886 0,0.4616477 0.2485795,0.7386364 0.2911931,0.7883523 0.2627841,0.2840909 0.4900569,0.3480113 1.0653409,0.4829545 0.2769887,0.071023 0.2911932,0.071023 0.5255682,0.1278409 0.234375,0.049716 0.7386364,0.1775568 0.7386364,0.8451705 0,0.68892042 -0.6818182,1.43465906 -1.5198864,1.43465906 -0.5184659,0 -1.4630682,-0.16335227 -1.4630682,-1.15056816 0,-0.021307 0,-0.1917614 0.042614,-0.3835227 l 0.0071,-0.078125 c 0,-0.099432 -0.085227,-0.1065341 -0.1136364,-0.1065341 -0.1065341,0 -0.11363638,0.035511 -0.15625001,0.2201704 l -0.32670455,1.29261365 c -0.0284091,0.12073864 -0.0852273,0.34090909 -0.0852273,0.36221591 0,0.06392045 0.0497159,0.10653409 0.10653409,0.10653409 0.0497159,0 0.0639205,-0.0142046 0.14914773,-0.11363636 L 1.0930265,-0.3914233 c 0.1846591,0.24147728 0.6321023,0.56107955 1.4417614,0.56107955 1.1505682,0 2.1022727,-1.04403409 2.1022727,-2.00284095 0,-0.3693181 -0.1207386,-0.653409 -0.3338068,-0.8735795 C 4.0617765,-2.9766506 3.7989924,-3.0334687 3.422572,-3.1329006 3.1952992,-3.1897187 2.8827992,-3.2607415 2.6981402,-3.3104574 2.4637652,-3.3601733 2.016322,-3.5235256 2.016322,-4.0775028 c 0,-0.625 0.6676136,-1.2926137 1.484375,-1.2926137 0.7173295,0 1.2073863,0.3764205 1.2073863,1.2357955 0,0.1917613 -0.028409,0.3551136 -0.028409,0.390625 0,0.092329 0.071023,0.1065341 0.127841,0.1065341 0.092329,0 0.099432,-0.028409 0.1349431,-0.15625 z m 0,0" style="fill:#ffffff;fill-opacity:1;fill-rule:nonzero;stroke:none" aria-label="S" transform="matrix(2.2,0,0,2.2,261.92347,56.7166)" />
    <path id="path27" d="M 19.48843,-8.85837 H 37.20517 V 8.85837 H 19.48843 Z" style="fill:#78a9ff;fill-opacity:1;fill-rule:nonzero;stroke:#78a9ff;stroke-width:0.3985;stroke-linecap:butt;stroke-linejoin:miter;stroke-miterlimit:10;stroke-dasharray:none;stroke-opacity:1" transform="matrix(2.2,0,0,-2.2,268.07907,50.726)" />
    <path id="path28" d="m 6.3644186,-4.7948324 c 0.085227,-0.3125 0.099432,-0.3835227 0.6534091,-0.3835227 0.184659,0 0.2840909,0 0.2840909,-0.15625 0,-0.0071 -0.0071,-0.1065341 -0.1349432,-0.1065341 -0.15625,0 -0.3480114,0.014204 -0.4971591,0.021307 H 6.1655549 c -0.7599432,0 -0.9659091,-0.021307 -1.0227272,-0.021307 -0.035511,0 -0.1633523,0 -0.1633523,0.1491477 0,0.1136364 0.1065341,0.1136364 0.234375,0.1136364 0.2627841,0 0.4900568,0 0.4900568,0.1278409 0,0.028409 -0.0071,0.035511 -0.028409,0.1420455 L 5.1996458,-2.962446 H 2.6286231 l 0.4616477,-1.8607955 c 0.071023,-0.2840909 0.09233,-0.3551136 0.6747159,-0.3551136 0.15625,0 0.2485796,0 0.2485796,-0.15625 0,-0.0071 -0.0071,-0.1065341 -0.1349432,-0.1065341 -0.1491477,0 -0.3409091,0.014204 -0.4900568,0.021307 H 2.8843049 c -0.7670454,0 -0.9730113,-0.021307 -1.0298295,-0.021307 -0.028409,0 -0.15625,0 -0.15625,0.1491477 0,0.1136364 0.1065341,0.1136364 0.234375,0.1136364 0.2627841,0 0.4900568,0 0.4900568,0.1278409 0,0.028409 -0.0071,0.035511 -0.028409,0.1420455 L 1.321805,-0.63290057 c -0.071023,0.30539773 -0.085227,0.36931818 -0.67471588,0.36931818 -0.14914773,0 -0.24857955,0 -0.24857955,0.14914773 0,0.03551136 0.0213068,0.11363636455 0.12784091,0.11363636455 0.14914773,0 0.34090909,-0.0142045446 0.49715912,-0.0213068145 h 0.5042613 c 0.7670455,0 0.9730114,0.0213068145 1.0298296,0.0213068145 0.049716,0 0.1633523,0 0.1633523,-0.14914772455 0,-0.11363637 -0.1065341,-0.11363637 -0.2414773,-0.11363637 -0.021307,0 -0.1704546,0 -0.3053977,-0.0142045 -0.1633523,-0.0213068 -0.1846591,-0.0426136 -0.1846591,-0.11363637 0,-0.0426136 0.021307,-0.0852273 0.028409,-0.1278409 L 2.5576004,-2.6996619 h 2.5639204 c -0.2272727,0.9375 -0.5397727,2.18039774 -0.546875,2.18039774 -0.071023,0.24857954 -0.2130681,0.24857954 -0.6960227,0.25568181 -0.092329,0 -0.1988636,0 -0.1988636,0.14914773 0,0.03551136 0.028409,0.11363636455 0.1278409,0.11363636455 0.15625,0 0.3480113,-0.0142045446 0.4971591,-0.0213068145 h 0.5113636 c 0.7599432,0 0.9730114,0.0213068145 1.0227273,0.0213068145 0.049716,0 0.1633523,0 0.1633523,-0.14914772455 0,-0.11363637 -0.1065341,-0.11363637 -0.2414773,-0.11363637 -0.021307,0 -0.1633523,0 -0.2982955,-0.0142045 -0.1704545,-0.0213068 -0.1846591,-0.0426136 -0.1846591,-0.11363637 0,-0.0426136 0.014205,-0.0852273 0.021307,-0.1278409 z m 0,0" style="fill:#ffffff;fill-opacity:1;fill-rule:nonzero;stroke:none" aria-label="H" transform="matrix(2.2,0,0,2.2,322.11547,56.7166)" />
    <path id="path29" d="M 47.83524,-8.85837 H 65.55198 V 8.85837 H 47.83524 Z" style="fill:#78a9ff;fill-opacity:1;fill-rule:nonzero;stroke:#78a9ff;stroke-width:0.3985;stroke-linecap:butt;stroke-linejoin:miter;stroke-miterlimit:10;stroke-dasharray:none;stroke-opacity:1" transform="matrix(2.2,0,0,-2.2,268.07907,50.726)" />
    <path id="path30" d="M 3.600339,-4.8232415 C 3.671362,-5.1073324 3.678464,-5.1215369 4.0051686,-5.1215369 H 4.615964 c 0.8238637,0 0.9232955,0.2627841 0.9232955,0.6605113 0,0.1988637 -0.049716,0.5397728 -0.056818,0.5823864 -0.014205,0.085227 -0.021307,0.15625 -0.021307,0.1704545 0,0.1065341 0.071023,0.127841 0.1136363,0.127841 0.09233,0 0.1207387,-0.049716 0.1491478,-0.1988637 l 0.2130681,-1.4985795 c 0,-0.1065341 -0.099432,-0.1065341 -0.2414772,-0.1065341 H 1.0009072 c -0.19886364,0 -0.21306818,0 -0.26988637,0.1633523 l -0.48295454,1.3778409 c -0.0142045,0.042614 -0.0426136,0.1065341 -0.0426136,0.15625 0,0.056818 0.0568182,0.1065341 0.12073864,0.1065341 0.0852273,0 0.10653409,-0.035511 0.14914773,-0.1704546 0.45454545,-1.2784091 0.68892044,-1.3707386 1.89630674,-1.3707386 h 0.3125 c 0.2414773,0 0.2485796,0.0071 0.2485796,0.071023 0,0.021307 -0.035511,0.1775568 -0.042614,0.2130682 l -1.0511363,4.18323861 c -0.071023,0.30539773 -0.09233,0.390625 -0.92329544,0.390625 -0.25568181,0 -0.33380681,0 -0.33380681,0.14914773 0,0.007102 0,0.11363636455 0.13494318,0.11363636455 0.21306818,0 0.76704537,-0.0213068145 0.98011357,-0.0213068145 h 0.6747159 c 0.2272728,0 0.78125,0.0213068145 1.0085228,0.0213068145 0.06392,0 0.1846591,0 0.1846591,-0.14914772455 0,-0.11363637 -0.09233,-0.11363637 -0.3053978,-0.11363637 -0.1917613,0 -0.2556818,0 -0.4616477,-0.0142045 -0.2556818,-0.0284091 -0.2911932,-0.0568182 -0.2911932,-0.16335227 0,-0.0284091 0.014205,-0.0639205 0.035511,-0.14204546 z m 0,0" style="fill:#ffffff;fill-opacity:1;fill-rule:nonzero;stroke:none" aria-label="T" transform="matrix(2.2,0,0,2.2,386.08707,56.7166)" />
  </g>
</svg>