<?xml version='1.0' encoding='utf-8'?>
<svg xmlns="http://www.w3.org/2000/svg" xmlns:ns1="http://sodipodi.sourceforge.net/DTD/sodipodi-0.dtd" xmlns:ns2="http://www.inkscape.org/namespaces/inkscape" version="1.1" id="svg1" width="100%" height="auto" viewBox="-20.0 -20.0 492.89203 279.74954" ns1:docname="svg_fix_XXXXXX.svg">
  <rect id="path1" x="-20.0" y="-20.0" width="492.89203" height="279.74954" fill="white" /><ns1:namedview id="namedview1" pagecolor="#ffffff" bordercolor="#000000" borderopacity="0.25" ns2:showpageshadow="2" ns2:pageopacity="0.0" ns2:pagecheckerboard="0" ns2:deskcolor="#d1d1d1" />
  <defs id="defs1" />
  <g id="g1" transform="translate(-72.035156,-34.922338)">
    <g id="g2" aria-label="∣ψ⟩&#10;⎧&#10;⎪&#10;⎪&#10;⎪&#10;⎪&#10;⎪&#10;⎪&#10;⎪&#10;⎨&#10;⎪&#10;⎪&#10;⎪&#10;⎪&#10;⎪&#10;⎪&#10;⎪&#10;⎩" transform="matrix(1.7333333,0,0,1.7333333,69.958133,187.85333)">
      <path id="path2" d="m 1.1982825,-6.0947716 v 7.8064904 h 0.5048076 v -7.8064904 z m 0,0" style="fill:#121619;fill-opacity:1;fill-rule:nonzero;stroke:none" />
      <path id="path3" d="m 6.9494844,-5.2654447 c 0.036058,-0.1171875 0.036058,-0.1262019 0.036058,-0.1622596 0,-0.08113 -0.063101,-0.099159 -0.126202,-0.099159 -0.099159,0 -0.108173,0.027043 -0.1442307,0.1622596 l -1.2980769,5.20132215 c -0.5588943,-0.063101 -0.9555289,-0.30649038 -0.9555289,-0.87439905 0,-0.1532452 0,-0.3605769 0.4236779,-1.4152644 0.08113,-0.2163462 0.090144,-0.2884615 0.090144,-0.3876202 0,-0.4236779 -0.3515625,-0.6760817 -0.7211538,-0.6760817 -0.7842548,0 -1.1087741,1.1268029 -1.1087741,1.2169471 0,0.072115 0.054087,0.1081731 0.1171875,0.1081731 0.099159,0 0.1081731,-0.045072 0.1352164,-0.126202 0.2073317,-0.6941105 0.5498798,-0.9735577 0.8383413,-0.9735577 0.1171875,0 0.1893029,0.08113 0.1893029,0.2614183 0,0.1802885 -0.072115,0.3786058 -0.1442308,0.5408654 -0.405649,1.0637019 -0.405649,1.2259615 -0.405649,1.3972356 0,0.75721151 0.6490385,1.09975959 1.4783654,1.15384613 L 4.9933546,1.5224159 c 0,0.072115 0.063101,0.099159 0.1262019,0.099159 0.099159,0 0.1081731,-0.027043 0.1532452,-0.1983173 0.045072,-0.171274 0.00901,-0.063101 0.3425481,-1.34314903 0.3245192,0 0.9375,0 1.7217548,-0.73918269 0.3155048,-0.29747596 0.4957932,-0.62199518 0.5588942,-0.73918268 0.2614183,-0.5228365 0.3786058,-1.2169471 0.3786058,-1.5054087 0,-0.6219952 -0.360577,-0.6219952 -0.3876202,-0.6219952 -0.1983173,0 -0.4146635,0.2073318 -0.4146635,0.4146635 0,0.1262019 0.063101,0.1893029 0.1081731,0.2253606 0.08113,0.072115 0.3155048,0.2794471 0.3155048,0.6580529 0,0.6670673 -0.9014423,2.0823317 -2.2265625,2.0823317 z m 0,0" style="fill:#121619;fill-opacity:1;fill-rule:nonzero;stroke:none" />
      <path id="path4" d="M 9.9310048,1.801863 11.364298,-2.1915264 9.9310048,-6.1849159 9.4532404,-6.0136418 10.886534,-2.1915264 9.4532404,1.6215745 Z m 9.6882512,-26.88777 v -0.423678 c -0.982572,0 -1.884014,0.658053 -1.884014,1.604567 v 3.335337 h 0.504807 v -3.344351 c 0,-0.685097 0.658053,-1.171875 1.379207,-1.171875 z m -1.884014,3.934795 v 2.848558 h 0.504807 v -2.848558 z m 0,2.34375 v 2.848558 h 0.504807 v -2.848558 z m 0,2.34375 v 2.848558 h 0.504807 v -2.848558 z m 0,2.34375 v 2.848558 h 0.504807 v -2.848558 z m 0,2.341497 v 2.8485573 h 0.504807 v -2.8485573 z m 0,2.3437496 v 2.8485577 h 0.504807 v -2.8485577 z m 0,2.34375 v 2.8485577 h 0.504807 v -2.8485577 z m 0.504807,2.3414964 h -0.504807 v 1.2530048 c 0,0.6400241 -0.612981,1.0817308 -1.289063,1.1087741 h -0.08113 v 0.46875 c 0.71214,0 1.370193,0.4417067 1.370193,1.10877399 V 0.4429387 h 0.504807 v -1.26201923 c 0,-0.59495197 -0.360577,-1.06370197 -0.883413,-1.33413457 0.522836,-0.2614183 0.883413,-0.7481972 0.883413,-1.3431491 z m -0.504807,4.61087741 V 2.7100661 h 0.504807 v -2.84855769 z m 0,2.34374999 v 2.8485577 h 0.504807 V 2.2052584 Z m 0,2.34375 v 2.8485577 h 0.504807 V 4.5490084 Z m 0,2.34375 v 2.8485577 h 0.504807 V 6.8927584 Z m 0,2.3414964 v 2.8485582 h 0.504807 V 9.2342548 Z m 0,2.3460032 v 2.848558 h 0.504807 v -2.848558 z m 0,2.341497 v 2.848558 h 0.504807 v -2.848558 z m 1.884014,7.283654 v -0.423678 c -0.721154,0 -1.379207,-0.486779 -1.379207,-1.171875 v -3.344351 h -0.504807 v 3.344351 c 0,0.9375 0.901442,1.595553 1.884014,1.595553 z m 0,0" style="fill:#121619;fill-opacity:1;fill-rule:nonzero;stroke:none" />
    </g>
    <g id="g4" aria-label="∣0⟩" transform="matrix(1.7333333,0,0,1.7333333,89.057733,63.289067)">
      <path id="path5" d="M 1.1994147,-6.0937524 V 1.712738 h 0.5048077 v -7.8064904 z m 0,0" style="fill:#121619;fill-opacity:1;fill-rule:nonzero;stroke:none" />
      <path id="path6" d="m 6.7951178,-2.5420697 c 0,-0.8563702 -0.08113,-1.3701923 -0.3515625,-1.8840144 -0.3515625,-0.6941106 -0.9915865,-0.8743991 -1.4332933,-0.8743991 -1.0006009,0 -1.3701923,0.7481971 -1.4783654,0.9735577 -0.2884615,0.5859375 -0.3064903,1.3701923 -0.3064903,1.7848558 0,0.5228365 0.027043,1.3341346 0.405649,1.96514422 0.3695913,0.59495192 0.9555288,0.74819711 1.3792067,0.74819711 0.3876202,0 1.0727164,-0.12620192 1.469351,-0.91045673 0.2974759,-0.5769231 0.3155048,-1.2890625 0.3155048,-1.8028846 z M 5.010262,-0.05408894 c -0.2704327,0 -0.8203125,-0.12620193 -0.9825721,-0.96454326 -0.090144,-0.4597356 -0.090144,-1.2079327 -0.090144,-1.6225962 0,-0.5498798 0,-1.0997596 0.090144,-1.5414663 0.1622596,-0.8112981 0.7842548,-0.8924279 0.9825721,-0.8924279 0.2704327,0 0.8203125,0.1352164 0.9825721,0.8563702 0.099159,0.4417067 0.099159,1.0366587 0.099159,1.577524 0,0.4777645 0,1.1899039 -0.099159,1.640625 -0.171274,0.82932696 -0.7211538,0.94651446 -0.9825721,0.94651446 z m 0,0" style="fill:#121619;fill-opacity:1;fill-rule:nonzero;stroke:none" />
      <path id="path7" d="m 8.343345,1.8028822 1.4332932,-3.9933894 -1.4332932,-3.9933894 -0.4777645,0.171274 1.4332933,3.8221154 -1.4332933,3.813101 z m 0,0" style="fill:#121619;fill-opacity:1;fill-rule:nonzero;stroke:none" />
    </g>
    <g id="g7" aria-label="∣0⟩" transform="matrix(1.7333333,0,0,1.7333333,89.057733,112.42387)">
      <path id="path8" d="M 1.1994147,-6.0926454 V 1.713845 h 0.5048077 v -7.8064904 z m 0,0" style="fill:#121619;fill-opacity:1;fill-rule:nonzero;stroke:none" />
      <path id="path9" d="m 6.7951178,-2.5409627 c 0,-0.8563702 -0.08113,-1.3701923 -0.3515625,-1.8840145 -0.3515625,-0.6941105 -0.9915865,-0.874399 -1.4332933,-0.874399 -1.0006009,0 -1.3701923,0.7481971 -1.4783654,0.9735577 -0.2884615,0.5859375 -0.3064903,1.3701923 -0.3064903,1.7848558 0,0.5228365 0.027043,1.3341346 0.405649,1.96514419 0.3695913,0.59495192 0.9555288,0.74819712 1.3792067,0.74819712 0.3876202,0 1.0727164,-0.12620193 1.469351,-0.91045673 C 6.7770889,-1.3150012 6.7951178,-2.0271406 6.7951178,-2.5409627 Z M 5.010262,-0.05298197 c -0.2704327,0 -0.8203125,-0.12620192 -0.9825721,-0.96454323 -0.090144,-0.4597356 -0.090144,-1.2079327 -0.090144,-1.6225962 0,-0.5498798 0,-1.0997596 0.090144,-1.5414663 0.1622596,-0.8112981 0.7842548,-0.8924279 0.9825721,-0.8924279 0.2704327,0 0.8203125,0.1352163 0.9825721,0.8563702 0.099159,0.4417067 0.099159,1.0366586 0.099159,1.577524 0,0.4777644 0,1.1899039 -0.099159,1.64062501 -0.171274,0.82932692 -0.7211538,0.94651442 -0.9825721,0.94651442 z m 0,0" style="fill:#121619;fill-opacity:1;fill-rule:nonzero;stroke:none" />
      <path id="path10" d="M 8.343345,1.8039892 9.7766382,-2.1894002 8.343345,-6.1827897 7.8655805,-6.0115156 9.2988738,-2.1894002 7.8655805,1.6237007 Z m 0,0" style="fill:#121619;fill-opacity:1;fill-rule:nonzero;stroke:none" />
    </g>
    <path id="path11" d="M -68.0113,70.867 H 167.22514" style="fill:none;stroke:#121619;stroke-width:0.3985;stroke-linecap:butt;stroke-linejoin:miter;stroke-miterlimit:10;stroke-dasharray:none;stroke-opacity:1" transform="matrix(1.7333333,0,0,-1.7333333,235.07027,182.32573)" />
    <path id="path12" d="M -68.0113,42.5202 H 167.22514" style="fill:none;stroke:#121619;stroke-width:0.3985;stroke-linecap:butt;stroke-linejoin:miter;stroke-miterlimit:10;stroke-dasharray:none;stroke-opacity:1" transform="matrix(1.7333333,0,0,-1.7333333,235.07027,182.32573)" />
    <path id="path13" d="m -51.02423,62.36298 h 17.00806 v 17.00806 h -17.00806 z" style="fill:#78a9ff;fill-opacity:1;fill-rule:nonzero;stroke:#78a9ff;stroke-width:0.3985;stroke-linecap:butt;stroke-linejoin:miter;stroke-miterlimit:10;stroke-dasharray:none;stroke-opacity:1" transform="matrix(1.7333333,0,0,-1.7333333,235.07027,182.32573)" />
    <path id="path14" d="m 6.3643714,-4.7948245 c 0.08113,-0.3155048 0.099159,-0.3876202 0.6580529,-0.3876202 0.1802884,0 0.2794471,0 0.2794471,-0.1442308 0,-0.00901 -0.00901,-0.1171875 -0.1352164,-0.1171875 -0.1532451,0 -0.342548,0.018029 -0.4957932,0.027043 H 6.1660541 c -0.766226,0 -0.9735577,-0.027043 -1.0276442,-0.027043 -0.027043,0 -0.1532452,0 -0.1532452,0.1532452 0,0.1081731 0.099159,0.1081731 0.2253605,0.1081731 0.2614183,0 0.4957933,0 0.4957933,0.1352163 0,0.027043 -0.00901,0.036058 -0.036058,0.1352164 L 5.1924964,-2.9648966 H 2.6324002 l 0.4597356,-1.8569712 c 0.072115,-0.2884615 0.090144,-0.3605769 0.6670673,-0.3605769 0.1622596,0 0.2614183,0 0.2614183,-0.1442308 0,-0.00901 -0.00901,-0.1171875 -0.1352164,-0.1171875 -0.1532451,0 -0.3515625,0.018029 -0.4957932,0.027043 H 2.8848041 c -0.766226,0 -0.9735577,-0.027043 -1.0276442,-0.027043 -0.036058,0 -0.1622597,0 -0.1622597,0.1532452 0,0.1081731 0.1081731,0.1081731 0.234375,0.1081731 0.2614183,0 0.4957933,0 0.4957933,0.1352163 0,0.027043 -0.00901,0.036058 -0.036058,0.1352164 l -1.0637019,4.28185094 c -0.072115,0.30649039 -0.090144,0.36959135 -0.67608174,0.36959135 -0.15324519,0 -0.25240384,0 -0.25240384,0.15324519 0,0.02704327 0.0270433,0.10817307769 0.12620192,0.10817307769 0.15324519,0 0.34254808,-0.0180288477 0.49579326,-0.0270432677 h 0.5138221 c 0.766226,0 0.9735577,0.0270432677 1.0276443,0.0270432677 0.045072,0 0.1532451,0 0.1532451,-0.15324518769 0,-0.10817308 -0.099159,-0.10817308 -0.234375,-0.10817308 -0.027043,0 -0.171274,0 -0.3064903,-0.0180288 -0.1622597,-0.0180288 -0.1802885,-0.0360577 -0.1802885,-0.10817307 0,-0.0450721 0.018029,-0.0901442 0.027043,-0.12620193 L 2.5602849,-2.7034784 H 5.120381 c -0.2253606,0.9465145 -0.5408654,2.19050484 -0.5498798,2.19050484 -0.072115,0.24338943 -0.2073317,0.24338943 -0.6850962,0.25240385 -0.099159,0 -0.2073317,0 -0.2073317,0.15324519 0,0.02704327 0.027043,0.10817307769 0.1352164,0.10817307769 0.1442307,0 0.342548,-0.0180288477 0.4867788,-0.0270432677 h 0.5138221 c 0.766226,0 0.9735577,0.0270432677 1.0276443,0.0270432677 0.045072,0 0.1622596,0 0.1622596,-0.15324518769 0,-0.10817308 -0.1081731,-0.10817308 -0.2433895,-0.10817308 -0.027043,0 -0.1622596,0 -0.2974759,-0.0180288 -0.1712741,-0.0180288 -0.1893029,-0.0360577 -0.1893029,-0.10817307 0,-0.0450721 0.018029,-0.0901442 0.027043,-0.12620193 z m 0,0" style="fill:#ffffff;fill-opacity:1;fill-rule:nonzero;stroke:none" aria-label="H" transform="matrix(1.7333333,0,0,1.7333333,154.80827,64.209467)" />
    <path id="path15" d="m -51.02423,34.01617 h 17.00806 v 17.00806 h -17.00806 z" style="fill:#78a9ff;fill-opacity:1;fill-rule:nonzero;stroke:#78a9ff;stroke-width:0.3985;stroke-linecap:butt;stroke-linejoin:miter;stroke-miterlimit:10;stroke-dasharray:none;stroke-opacity:1" transform="matrix(1.7333333,0,0,-1.7333333,235.07027,182.32573)" />
    <path id="path16" d="m 6.3643714,-4.7959712 c 0.08113,-0.3155048 0.099159,-0.3876201 0.6580529,-0.3876201 0.1802884,0 0.2794471,0 0.2794471,-0.1442308 0,-0.00901 -0.00901,-0.1171875 -0.1352164,-0.1171875 -0.1532451,0 -0.342548,0.018029 -0.4957932,0.027043 H 6.1660541 c -0.766226,0 -0.9735577,-0.027043 -1.0276442,-0.027043 -0.027043,0 -0.1532452,0 -0.1532452,0.1532452 0,0.1081731 0.099159,0.1081731 0.2253605,0.1081731 0.2614183,0 0.4957933,0 0.4957933,0.1352163 0,0.027043 -0.00901,0.036058 -0.036058,0.1352163 L 5.1924964,-2.9660433 H 2.6324002 l 0.4597356,-1.8569711 c 0.072115,-0.2884616 0.090144,-0.3605769 0.6670673,-0.3605769 0.1622596,0 0.2614183,0 0.2614183,-0.1442308 0,-0.00901 -0.00901,-0.1171875 -0.1352164,-0.1171875 -0.1532451,0 -0.3515625,0.018029 -0.4957932,0.027043 H 2.8848041 c -0.766226,0 -0.9735577,-0.027043 -1.0276442,-0.027043 -0.036058,0 -0.1622597,0 -0.1622597,0.1532452 0,0.1081731 0.1081731,0.1081731 0.234375,0.1081731 0.2614183,0 0.4957933,0 0.4957933,0.1352163 0,0.027043 -0.00901,0.036058 -0.036058,0.1352163 l -1.0637019,4.28185101 c -0.072115,0.30649038 -0.090144,0.36959134 -0.67608174,0.36959134 -0.15324519,0 -0.25240384,0 -0.25240384,0.1532452 0,0.02704327 0.0270433,0.10817307308 0.12620192,0.10817307308 0.15324519,0 0.34254808,-0.0180288431 0.49579326,-0.0270432731 h 0.5138221 c 0.766226,0 0.9735577,0.0270432731 1.0276443,0.0270432731 0.045072,0 0.1532451,0 0.1532451,-0.15324519308 0,-0.10817308 -0.099159,-0.10817308 -0.234375,-0.10817308 -0.027043,0 -0.171274,0 -0.3064903,-0.0180288 -0.1622597,-0.0180289 -0.1802885,-0.0360577 -0.1802885,-0.10817308 0,-0.0450721 0.018029,-0.0901442 0.027043,-0.12620192 L 2.5602849,-2.704625 H 5.120381 c -0.2253606,0.9465144 -0.5408654,2.19050481 -0.5498798,2.19050481 -0.072115,0.24338942 -0.2073317,0.24338942 -0.6850962,0.25240384 -0.099159,0 -0.2073317,0 -0.2073317,0.1532452 0,0.02704327 0.027043,0.10817307308 0.1352164,0.10817307308 0.1442307,0 0.342548,-0.0180288431 0.4867788,-0.0270432731 h 0.5138221 c 0.766226,0 0.9735577,0.0270432731 1.0276443,0.0270432731 0.045072,0 0.1622596,0 0.1622596,-0.15324519308 0,-0.10817308 -0.1081731,-0.10817308 -0.2433895,-0.10817308 -0.027043,0 -0.1622596,0 -0.2974759,-0.0180288 -0.1712741,-0.0180289 -0.1893029,-0.0360577 -0.1893029,-0.10817308 0,-0.0450721 0.018029,-0.0901442 0.027043,-0.12620192 z m 0,0" style="fill:#ffffff;fill-opacity:1;fill-rule:nonzero;stroke:none" aria-label="H" transform="matrix(1.7333333,0,0,1.7333333,154.80827,113.34427)" />
    <path id="path17" d="M -19.84276,-28.3468 H 19.84276 V 28.34682 H -19.84276 Z" style="fill:#78a9ff;fill-opacity:1;fill-rule:nonzero;stroke:#78a9ff;stroke-width:0.3985;stroke-linecap:butt;stroke-linejoin:miter;stroke-miterlimit:10;stroke-dasharray:none;stroke-opacity:1" transform="matrix(1.7333333,0,0,-1.7333333,235.07027,182.32573)" />
    <path id="path18" d="m 5.3195252,-4.5695769 c 0.090144,-0.3966346 0.2794472,-0.5859375 0.8383414,-0.6129808 0.08113,0 0.1442308,-0.045072 0.1442308,-0.1442308 0,-0.054086 -0.036058,-0.1171875 -0.1171875,-0.1171875 -0.036058,0 -0.2163462,0.027043 -0.7932693,0.027043 -0.6310096,0 -0.7391827,-0.027043 -0.8112981,-0.027043 -0.1262019,0 -0.1442307,0.090144 -0.1442307,0.1532452 0,0.1081731 0.099159,0.1081731 0.171274,0.1081731 0.4867789,0.018029 0.4867789,0.234375 0.4867789,0.3425481 0,0.054087 -0.00901,0.090144 -0.018029,0.1352163 -0.018029,0.063101 -0.6760817,2.7313702 -0.7121394,2.8305289 -0.2794471,1.15384613 -1.2890625,1.77584132 -2.0733173,1.77584132 -0.5498798,0 -1.0456731,-0.32451923 -1.0456731,-1.05468752 0,-0.1352163 0.027043,-0.3515625 0.054086,-0.4777644 l 0.7932693,-3.1911058 c 0.072115,-0.2884615 0.090144,-0.3605769 0.6760817,-0.3605769 0.1532452,0 0.2524039,0 0.2524039,-0.1442308 0,-0.00901 -0.00901,-0.1171875 -0.1352164,-0.1171875 -0.1532452,0 -0.3425481,0.018029 -0.4957933,0.027043 H 1.8940445 c -0.766226,0 -0.97355772,-0.027043 -1.03665868,-0.027043 -0.0270433,0 -0.15324519,0 -0.15324519,0.1532452 0,0.1081731 0.0991586,0.1081731 0.22536057,0.1081731 0.2704327,0 0.4957933,0 0.4957933,0.1352164 0,0.045072 -0.072115,0.3335336 -0.1171875,0.4867788 L 1.1368329,-3.8574375 0.72216947,-2.162726 C 0.60498197,-1.7300337 0.5779387,-1.6128462 0.5779387,-1.3965 c 0,0.9375 0.7301683,1.56850962 1.6766827,1.56850962 1.0817308,0 2.109375,-0.91947116 2.3617788,-1.94711542 z m 0,0" style="fill:#ffffff;fill-opacity:1;fill-rule:nonzero;stroke:none" aria-label="U" transform="matrix(1.7333333,0,0,1.7333333,229.36933,187.0456)" />
    <path id="path19" d="M 36.85085,-28.3468 H 76.53637 V 28.34682 H 36.85085 Z" style="fill:#78a9ff;fill-opacity:1;fill-rule:nonzero;stroke:#78a9ff;stroke-width:0.3985;stroke-linecap:butt;stroke-linejoin:miter;stroke-miterlimit:10;stroke-dasharray:none;stroke-opacity:1" transform="matrix(1.7333333,0,0,-1.7333333,235.07027,182.32573)" />
    <path id="path20" d="m 5.3194856,-4.5695769 c 0.090144,-0.3966346 0.2794471,-0.5859375 0.8383413,-0.6129808 0.08113,0 0.1442308,-0.045072 0.1442308,-0.1442308 0,-0.054086 -0.036058,-0.1171875 -0.1171875,-0.1171875 -0.036058,0 -0.2163462,0.027043 -0.7932692,0.027043 -0.6310097,0 -0.7391827,-0.027043 -0.8112981,-0.027043 -0.1262019,0 -0.1442308,0.090144 -0.1442308,0.1532452 0,0.1081731 0.099159,0.1081731 0.1712741,0.1081731 0.4867788,0.018029 0.4867788,0.234375 0.4867788,0.3425481 0,0.054087 -0.00901,0.090144 -0.018029,0.1352163 -0.018029,0.063101 -0.6760818,2.7313702 -0.7121395,2.8305289 -0.2794471,1.15384613 -1.2890625,1.77584132 -2.0733173,1.77584132 -0.5498798,0 -1.0456731,-0.32451923 -1.0456731,-1.05468752 0,-0.1352163 0.027043,-0.3515625 0.054087,-0.4777644 l 0.7932692,-3.1911058 c 0.072115,-0.2884615 0.090144,-0.3605769 0.6760817,-0.3605769 0.1532452,0 0.2524039,0 0.2524039,-0.1442308 0,-0.00901 -0.00901,-0.1171875 -0.1352164,-0.1171875 -0.1532451,0 -0.342548,0.018029 -0.4957932,0.027043 H 1.8940048 c -0.766226,0 -0.97355768,-0.027043 -1.03665865,-0.027043 -0.0270433,0 -0.15324519,0 -0.15324519,0.1532452 0,0.1081731 0.0991587,0.1081731 0.22536058,0.1081731 0.27043266,0 0.49579326,0 0.49579326,0.1352164 0,0.045072 -0.072115,0.3335336 -0.1171875,0.4867788 l -0.171274,0.703125 -0.41466349,1.6947115 c -0.1171875,0.4326923 -0.14423077,0.5498798 -0.14423077,0.766226 0,0.9375 0.73016826,1.56850962 1.67668266,1.56850962 1.0817308,0 2.109375,-0.91947116 2.3617789,-1.94711542 z m 0,0" style="fill:#ffffff;fill-opacity:1;fill-rule:nonzero;stroke:none" aria-label="U" transform="matrix(1.7333333,0,0,1.7333333,327.63893,187.0456)" />
    <path id="path21" d="m 93.54446,-28.3468 h 39.68552 V 28.34682 H 93.54446 Z" style="fill:#78a9ff;fill-opacity:1;fill-rule:nonzero;stroke:#78a9ff;stroke-width:0.3985;stroke-linecap:butt;stroke-linejoin:miter;stroke-miterlimit:10;stroke-dasharray:none;stroke-opacity:1" transform="matrix(1.7333333,0,0,-1.7333333,235.07027,182.32573)" />
    <path id="path22" d="m 5.3181923,-4.5695769 c 0.090144,-0.3966346 0.2794471,-0.5859375 0.8383414,-0.6129808 0.08113,0 0.1442307,-0.045072 0.1442307,-0.1442308 0,-0.054086 -0.036058,-0.1171875 -0.1171875,-0.1171875 -0.036058,0 -0.2163461,0.027043 -0.7932692,0.027043 -0.6310096,0 -0.7391827,-0.027043 -0.8112981,-0.027043 -0.1262019,0 -0.1442308,0.090144 -0.1442308,0.1532452 0,0.1081731 0.099159,0.1081731 0.1712741,0.1081731 0.4867788,0.018029 0.4867788,0.234375 0.4867788,0.3425481 0,0.054087 -0.00901,0.090144 -0.018029,0.1352163 -0.018029,0.063101 -0.6760817,2.7313702 -0.7121394,2.8305289 -0.2794472,1.15384613 -1.2890625,1.77584132 -2.0733173,1.77584132 -0.5498799,0 -1.0456731,-0.32451923 -1.0456731,-1.05468752 0,-0.1352163 0.027043,-0.3515625 0.054086,-0.4777644 l 0.7932692,-3.1911058 c 0.072115,-0.2884615 0.090144,-0.3605769 0.6760818,-0.3605769 0.1532452,0 0.2524038,0 0.2524038,-0.1442308 0,-0.00901 -0.00901,-0.1171875 -0.1352163,-0.1171875 -0.1532452,0 -0.3425481,0.018029 -0.4957933,0.027043 H 1.8927115 c -0.7662259,0 -0.97355765,-0.027043 -1.03665862,-0.027043 -0.0270433,0 -0.15324519,0 -0.15324519,0.1532452 0,0.1081731 0.0991587,0.1081731 0.22536058,0.1081731 0.27043273,0 0.49579323,0 0.49579323,0.1352164 0,0.045072 -0.072115,0.3335336 -0.1171875,0.4867788 L 1.1355,-3.8574375 0.72083654,-2.162726 c -0.1171875,0.4326923 -0.14423077,0.5498798 -0.14423077,0.766226 0,0.9375 0.73016823,1.56850962 1.67668273,1.56850962 1.0817307,0 2.109375,-0.91947116 2.3617788,-1.94711542 z m 0,0" style="fill:#ffffff;fill-opacity:1;fill-rule:nonzero;stroke:none" aria-label="U" transform="matrix(1.7333333,0,0,1.7333333,425.9068,187.0456)" />
    <path id="path23" d="M -68.0113,-22.67744 H -20.042" style="fill:none;stroke:#121619;stroke-width:0.3985;stroke-linecap:butt;stroke-linejoin:miter;stroke-miterlimit:10;stroke-dasharray:none;stroke-opacity:1" transform="matrix(1.7333333,0,0,-1.7333333,235.07027,182.32573)" />
    <path id="path24" d="M 20.042,-22.67744 H 36.6516" style="fill:none;stroke:#121619;stroke-width:0.3985;stroke-linecap:butt;stroke-linejoin:miter;stroke-miterlimit:10;stroke-dasharray:none;stroke-opacity:1" transform="matrix(1.7333333,0,0,-1.7333333,235.07027,182.32573)" />
    <path id="path25" d="M 76.73563,-22.67744 H 93.34521" style="fill:none;stroke:#121619;stroke-width:0.3985;stroke-linecap:butt;stroke-linejoin:miter;stroke-miterlimit:10;stroke-dasharray:none;stroke-opacity:1" transform="matrix(1.7333333,0,0,-1.7333333,235.07027,182.32573)" />
    <path id="path26" d="m 133.42924,-22.67744 h 33.7959" style="fill:none;stroke:#121619;stroke-width:0.3985;stroke-linecap:butt;stroke-linejoin:miter;stroke-miterlimit:10;stroke-dasharray:none;stroke-opacity:1" transform="matrix(1.7333333,0,0,-1.7333333,235.07027,182.32573)" />
    <path id="path27" d="M -68.0113,-18.42542 H -20.042" style="fill:none;stroke:#121619;stroke-width:0.3985;stroke-linecap:butt;stroke-linejoin:miter;stroke-miterlimit:10;stroke-dasharray:none;stroke-opacity:1" transform="matrix(1.7333333,0,0,-1.7333333,235.07027,182.32573)" />
    <path id="path28" d="M 20.042,-18.42542 H 36.6516" style="fill:none;stroke:#121619;stroke-width:0.3985;stroke-linecap:butt;stroke-linejoin:miter;stroke-miterlimit:10;stroke-dasharray:none;stroke-opacity:1" transform="matrix(1.7333333,0,0,-1.7333333,235.07027,182.32573)" />
    <path id="path29" d="M 76.73563,-18.42542 H 93.34521" style="fill:none;stroke:#121619;stroke-width:0.3985;stroke-linecap:butt;stroke-linejoin:miter;stroke-miterlimit:10;stroke-dasharray:none;stroke-opacity:1" transform="matrix(1.7333333,0,0,-1.7333333,235.07027,182.32573)" />
    <path id="path30" d="m 133.42924,-18.42542 h 33.7959" style="fill:none;stroke:#121619;stroke-width:0.3985;stroke-linecap:butt;stroke-linejoin:miter;stroke-miterlimit:10;stroke-dasharray:none;stroke-opacity:1" transform="matrix(1.7333333,0,0,-1.7333333,235.07027,182.32573)" />
    <path id="path31" d="M -68.0113,-14.17339 H -20.042" style="fill:none;stroke:#121619;stroke-width:0.3985;stroke-linecap:butt;stroke-linejoin:miter;stroke-miterlimit:10;stroke-dasharray:none;stroke-opacity:1" transform="matrix(1.7333333,0,0,-1.7333333,235.07027,182.32573)" />
    <path id="path32" d="M 20.042,-14.17339 H 36.6516" style="fill:none;stroke:#121619;stroke-width:0.3985;stroke-linecap:butt;stroke-linejoin:miter;stroke-miterlimit:10;stroke-dasharray:none;stroke-opacity:1" transform="matrix(1.7333333,0,0,-1.7333333,235.07027,182.32573)" />
    <path id="path33" d="M 76.73563,-14.17339 H 93.34521" style="fill:none;stroke:#121619;stroke-width:0.3985;stroke-linecap:butt;stroke-linejoin:miter;stroke-miterlimit:10;stroke-dasharray:none;stroke-opacity:1" transform="matrix(1.7333333,0,0,-1.7333333,235.07027,182.32573)" />
    <path id="path34" d="m 133.42924,-14.17339 h 33.7959" style="fill:none;stroke:#121619;stroke-width:0.3985;stroke-linecap:butt;stroke-linejoin:miter;stroke-miterlimit:10;stroke-dasharray:none;stroke-opacity:1" transform="matrix(1.7333333,0,0,-1.7333333,235.07027,182.32573)" />
    <path id="path35" d="M -68.0113,-9.92137 H -20.042" style="fill:none;stroke:#121619;stroke-width:0.3985;stroke-linecap:butt;stroke-linejoin:miter;stroke-miterlimit:10;stroke-dasharray:none;stroke-opacity:1" transform="matrix(1.7333333,0,0,-1.7333333,235.07027,182.32573)" />
    <path id="path36" d="M 20.042,-9.92137 H 36.6516" style="fill:none;stroke:#121619;stroke-width:0.3985;stroke-linecap:butt;stroke-linejoin:miter;stroke-miterlimit:10;stroke-dasharray:none;stroke-opacity:1" transform="matrix(1.7333333,0,0,-1.7333333,235.07027,182.32573)" />
    <path id="path37" d="M 76.73563,-9.92137 H 93.34521" style="fill:none;stroke:#121619;stroke-width:0.3985;stroke-linecap:butt;stroke-linejoin:miter;stroke-miterlimit:10;stroke-dasharray:none;stroke-opacity:1" transform="matrix(1.7333333,0,0,-1.7333333,235.07027,182.32573)" />
    <path id="path38" d="m 133.42924,-9.92137 h 33.7959" style="fill:none;stroke:#121619;stroke-width:0.3985;stroke-linecap:butt;stroke-linejoin:miter;stroke-miterlimit:10;stroke-dasharray:none;stroke-opacity:1" transform="matrix(1.7333333,0,0,-1.7333333,235.07027,182.32573)" />
    <path id="path39" d="M -68.0113,-5.66934 H -20.042" style="fill:none;stroke:#121619;stroke-width:0.3985;stroke-linecap:butt;stroke-linejoin:miter;stroke-miterlimit:10;stroke-dasharray:none;stroke-opacity:1" transform="matrix(1.7333333,0,0,-1.7333333,235.07027,182.32573)" />
    <path id="path40" d="M 20.042,-5.66934 H 36.6516" style="fill:none;stroke:#121619;stroke-width:0.3985;stroke-linecap:butt;stroke-linejoin:miter;stroke-miterlimit:10;stroke-dasharray:none;stroke-opacity:1" transform="matrix(1.7333333,0,0,-1.7333333,235.07027,182.32573)" />
    <path id="path41" d="M 76.73563,-5.66934 H 93.34521" style="fill:none;stroke:#121619;stroke-width:0.3985;stroke-linecap:butt;stroke-linejoin:miter;stroke-miterlimit:10;stroke-dasharray:none;stroke-opacity:1" transform="matrix(1.7333333,0,0,-1.7333333,235.07027,182.32573)" />
    <path id="path42" d="m 133.42924,-5.66934 h 33.7959" style="fill:none;stroke:#121619;stroke-width:0.3985;stroke-linecap:butt;stroke-linejoin:miter;stroke-miterlimit:10;stroke-dasharray:none;stroke-opacity:1" transform="matrix(1.7333333,0,0,-1.7333333,235.07027,182.32573)" />
    <path id="path43" d="M -68.0113,-1.41731 H -20.042" style="fill:none;stroke:#121619;stroke-width:0.3985;stroke-linecap:butt;stroke-linejoin:miter;stroke-miterlimit:10;stroke-dasharray:none;stroke-opacity:1" transform="matrix(1.7333333,0,0,-1.7333333,235.07027,182.32573)" />
    <path id="path44" d="M 20.042,-1.41731 H 36.6516" style="fill:none;stroke:#121619;stroke-width:0.3985;stroke-linecap:butt;stroke-linejoin:miter;stroke-miterlimit:10;stroke-dasharray:none;stroke-opacity:1" transform="matrix(1.7333333,0,0,-1.7333333,235.07027,182.32573)" />
    <path id="path45" d="M 76.73563,-1.41731 H 93.34521" style="fill:none;stroke:#121619;stroke-width:0.3985;stroke-linecap:butt;stroke-linejoin:miter;stroke-miterlimit:10;stroke-dasharray:none;stroke-opacity:1" transform="matrix(1.7333333,0,0,-1.7333333,235.07027,182.32573)" />
    <path id="path46" d="m 133.42924,-1.41731 h 33.7959" style="fill:none;stroke:#121619;stroke-width:0.3985;stroke-linecap:butt;stroke-linejoin:miter;stroke-miterlimit:10;stroke-dasharray:none;stroke-opacity:1" transform="matrix(1.7333333,0,0,-1.7333333,235.07027,182.32573)" />
    <path id="path47" d="M -68.0113,2.83466 H -20.042" style="fill:none;stroke:#121619;stroke-width:0.3985;stroke-linecap:butt;stroke-linejoin:miter;stroke-miterlimit:10;stroke-dasharray:none;stroke-opacity:1" transform="matrix(1.7333333,0,0,-1.7333333,235.07027,182.32573)" />
    <path id="path48" d="M 20.042,2.83466 H 36.6516" style="fill:none;stroke:#121619;stroke-width:0.3985;stroke-linecap:butt;stroke-linejoin:miter;stroke-miterlimit:10;stroke-dasharray:none;stroke-opacity:1" transform="matrix(1.7333333,0,0,-1.7333333,235.07027,182.32573)" />
    <path id="path49" d="M 76.73563,2.83466 H 93.34521" style="fill:none;stroke:#121619;stroke-width:0.3985;stroke-linecap:butt;stroke-linejoin:miter;stroke-miterlimit:10;stroke-dasharray:none;stroke-opacity:1" transform="matrix(1.7333333,0,0,-1.7333333,235.07027,182.32573)" />
    <path id="path50" d="m 133.42924,2.83466 h 33.7959" style="fill:none;stroke:#121619;stroke-width:0.3985;stroke-linecap:butt;stroke-linejoin:miter;stroke-miterlimit:10;stroke-dasharray:none;stroke-opacity:1" transform="matrix(1.7333333,0,0,-1.7333333,235.07027,182.32573)" />
    <path id="path51" d="M -68.0113,7.08669 H -20.042" style="fill:none;stroke:#121619;stroke-width:0.3985;stroke-linecap:butt;stroke-linejoin:miter;stroke-miterlimit:10;stroke-dasharray:none;stroke-opacity:1" transform="matrix(1.7333333,0,0,-1.7333333,235.07027,182.32573)" />
    <path id="path52" d="M 20.042,7.08669 H 36.6516" style="fill:none;stroke:#121619;stroke-width:0.3985;stroke-linecap:butt;stroke-linejoin:miter;stroke-miterlimit:10;stroke-dasharray:none;stroke-opacity:1" transform="matrix(1.7333333,0,0,-1.7333333,235.07027,182.32573)" />
    <path id="path53" d="M 76.73563,7.08669 H 93.34521" style="fill:none;stroke:#121619;stroke-width:0.3985;stroke-linecap:butt;stroke-linejoin:miter;stroke-miterlimit:10;stroke-dasharray:none;stroke-opacity:1" transform="matrix(1.7333333,0,0,-1.7333333,235.07027,182.32573)" />
    <path id="path54" d="m 133.42924,7.08669 h 33.7959" style="fill:none;stroke:#121619;stroke-width:0.3985;stroke-linecap:butt;stroke-linejoin:miter;stroke-miterlimit:10;stroke-dasharray:none;stroke-opacity:1" transform="matrix(1.7333333,0,0,-1.7333333,235.07027,182.32573)" />
    <path id="path55" d="M -68.0113,11.33871 H -20.042" style="fill:none;stroke:#121619;stroke-width:0.3985;stroke-linecap:butt;stroke-linejoin:miter;stroke-miterlimit:10;stroke-dasharray:none;stroke-opacity:1" transform="matrix(1.7333333,0,0,-1.7333333,235.07027,182.32573)" />
    <path id="path56" d="M 20.042,11.33871 H 36.6516" style="fill:none;stroke:#121619;stroke-width:0.3985;stroke-linecap:butt;stroke-linejoin:miter;stroke-miterlimit:10;stroke-dasharray:none;stroke-opacity:1" transform="matrix(1.7333333,0,0,-1.7333333,235.07027,182.32573)" />
    <path id="path57" d="M 76.73563,11.33871 H 93.34521" style="fill:none;stroke:#121619;stroke-width:0.3985;stroke-linecap:butt;stroke-linejoin:miter;stroke-miterlimit:10;stroke-dasharray:none;stroke-opacity:1" transform="matrix(1.7333333,0,0,-1.7333333,235.07027,182.32573)" />
    <path id="path58" d="m 133.42924,11.33871 h 33.7959" style="fill:none;stroke:#121619;stroke-width:0.3985;stroke-linecap:butt;stroke-linejoin:miter;stroke-miterlimit:10;stroke-dasharray:none;stroke-opacity:1" transform="matrix(1.7333333,0,0,-1.7333333,235.07027,182.32573)" />
    <path id="path59" d="M -68.0113,15.59073 H -20.042" style="fill:none;stroke:#121619;stroke-width:0.3985;stroke-linecap:butt;stroke-linejoin:miter;stroke-miterlimit:10;stroke-dasharray:none;stroke-opacity:1" transform="matrix(1.7333333,0,0,-1.7333333,235.07027,182.32573)" />
    <path id="path60" d="M 20.042,15.59073 H 36.6516" style="fill:none;stroke:#121619;stroke-width:0.3985;stroke-linecap:butt;stroke-linejoin:miter;stroke-miterlimit:10;stroke-dasharray:none;stroke-opacity:1" transform="matrix(1.7333333,0,0,-1.7333333,235.07027,182.32573)" />
    <path id="path61" d="M 76.73563,15.59073 H 93.34521" style="fill:none;stroke:#121619;stroke-width:0.3985;stroke-linecap:butt;stroke-linejoin:miter;stroke-miterlimit:10;stroke-dasharray:none;stroke-opacity:1" transform="matrix(1.7333333,0,0,-1.7333333,235.07027,182.32573)" />
    <path id="path62" d="m 133.42924,15.59073 h 33.7959" style="fill:none;stroke:#121619;stroke-width:0.3985;stroke-linecap:butt;stroke-linejoin:miter;stroke-miterlimit:10;stroke-dasharray:none;stroke-opacity:1" transform="matrix(1.7333333,0,0,-1.7333333,235.07027,182.32573)" />
    <path id="path63" d="M -68.0113,19.84276 H -20.042" style="fill:none;stroke:#121619;stroke-width:0.3985;stroke-linecap:butt;stroke-linejoin:miter;stroke-miterlimit:10;stroke-dasharray:none;stroke-opacity:1" transform="matrix(1.7333333,0,0,-1.7333333,235.07027,182.32573)" />
    <path id="path64" d="M 20.042,19.84276 H 36.6516" style="fill:none;stroke:#121619;stroke-width:0.3985;stroke-linecap:butt;stroke-linejoin:miter;stroke-miterlimit:10;stroke-dasharray:none;stroke-opacity:1" transform="matrix(1.7333333,0,0,-1.7333333,235.07027,182.32573)" />
    <path id="path65" d="M 76.73563,19.84276 H 93.34521" style="fill:none;stroke:#121619;stroke-width:0.3985;stroke-linecap:butt;stroke-linejoin:miter;stroke-miterlimit:10;stroke-dasharray:none;stroke-opacity:1" transform="matrix(1.7333333,0,0,-1.7333333,235.07027,182.32573)" />
    <path id="path66" d="m 133.42924,19.84276 h 33.7959" style="fill:none;stroke:#121619;stroke-width:0.3985;stroke-linecap:butt;stroke-linejoin:miter;stroke-miterlimit:10;stroke-dasharray:none;stroke-opacity:1" transform="matrix(1.7333333,0,0,-1.7333333,235.07027,182.32573)" />
    <path id="path67" d="m 2.49069,70.867 c 0,1.37558 -1.11511,2.4907 -2.49069,2.4907 -1.37558,0 -2.49069,-1.11512 -2.49069,-2.4907 0,-1.37558 1.11511,-2.49069 2.49069,-2.49069 1.37558,0 2.49069,1.11511 2.49069,2.49069 z" style="fill:#78a9ff;fill-opacity:1;fill-rule:nonzero;stroke:none" transform="matrix(1.7333333,0,0,-1.7333333,235.07027,182.32573)" />
    <path id="path68" d="m 59.18431,42.5202 c 0,1.37558 -1.11511,2.4907 -2.49069,2.4907 -1.3756,0 -2.49069,-1.11512 -2.49069,-2.4907 0,-1.37558 1.11509,-2.49069 2.49069,-2.49069 1.37558,0 2.49069,1.11511 2.49069,2.49069 z" style="fill:#78a9ff;fill-opacity:1;fill-rule:nonzero;stroke:none" transform="matrix(1.7333333,0,0,-1.7333333,235.07027,182.32573)" />
    <path id="path69" d="m 115.87793,42.5202 c 0,1.37558 -1.11511,2.4907 -2.49069,2.4907 -1.37558,0 -2.49069,-1.11512 -2.49069,-2.4907 0,-1.37558 1.11511,-2.49069 2.49069,-2.49069 1.37558,0 2.49069,1.11511 2.49069,2.49069 z" style="fill:#78a9ff;fill-opacity:1;fill-rule:nonzero;stroke:none" transform="matrix(1.7333333,0,0,-1.7333333,235.07027,182.32573)" />
    <path id="path70" d="M 0,70.867 V 28.54605" style="fill:none;stroke:#78a9ff;stroke-width:0.79701;stroke-linecap:butt;stroke-linejoin:miter;stroke-miterlimit:10;stroke-dasharray:none;stroke-opacity:1" transform="matrix(1.7333333,0,0,-1.7333333,235.07027,182.32573)" />
    <path id="path71" d="M 56.69362,42.5202 V 28.54605" style="fill:none;stroke:#78a9ff;stroke-width:0.79701;stroke-linecap:butt;stroke-linejoin:miter;stroke-miterlimit:10;stroke-dasharray:none;stroke-opacity:1" transform="matrix(1.7333333,0,0,-1.7333333,235.07027,182.32573)" />
    <path id="path72" d="M 113.38724,42.5202 V 28.54605" style="fill:none;stroke:#78a9ff;stroke-width:0.79701;stroke-linecap:butt;stroke-linejoin:miter;stroke-miterlimit:10;stroke-dasharray:none;stroke-opacity:1" transform="matrix(1.7333333,0,0,-1.7333333,235.07027,182.32573)" />
    <path id="path73" d="M -28.3468,85.04042 V -42.5202" style="fill:none;stroke:#121619;stroke-width:0.3985;stroke-linecap:butt;stroke-linejoin:miter;stroke-miterlimit:10;stroke-dasharray:0.3985, 0.99628;stroke-dashoffset:0;stroke-opacity:1" transform="matrix(1.7333333,0,0,-1.7333333,235.07027,182.32573)" />
    <g id="g73" aria-label="∣π&#10;1&#10;⟩" transform="matrix(1.7333333,0,0,1.7333333,172.68067,271.5456)">
      <path id="path74" d="M 1.1983534,-6.0930144 V 1.713476 h 0.5048077 v -7.8064904 z m 0,0" style="fill:#121619;fill-opacity:1;fill-rule:nonzero;stroke:none" />
      <path id="path75" d="m 5.1646995,-2.9109231 h 0.9194712 c -0.1712741,0.7301683 -0.3155048,1.3161058 -0.3155048,1.91105772 0,0.0540865 0,0.39663461 0.090144,0.68509615 0.099159,0.33353365 0.1802885,0.39663461 0.3245192,0.39663461 0.1802885,0 0.360577,-0.15324519 0.360577,-0.34254807 0,-0.0540865 -0.00901,-0.0721154 -0.036058,-0.14423077 C 6.3365745,-0.77450481 6.219387,-1.1531106 6.219387,-1.8111635 c 0,-0.1802884 0,-0.5138221 0.1171875,-1.0997596 h 0.9645433 c 0.1262019,0 0.2163461,0 0.297476,-0.063101 0.090144,-0.08113 0.1171875,-0.1893029 0.1171875,-0.234375 0,-0.2253606 -0.1983174,-0.2253606 -0.3335337,-0.2253606 h -2.875601 c -0.171274,0 -0.46875,0 -0.8653846,0.3786058 -0.2884615,0.2884615 -0.5048077,0.6580528 -0.5048077,0.7121394 0,0.072115 0.054087,0.099159 0.1171875,0.099159 0.08113,0 0.099159,-0.027043 0.1442308,-0.090144 0.3876202,-0.5769231 0.8563702,-0.5769231 1.0456731,-0.5769231 h 0.4597356 c -0.234375,0.8473558 -0.6580529,1.8118991 -0.9465145,2.39783656 -0.054086,0.1171875 -0.1352163,0.27043269 -0.1352163,0.34254808 0,0.17127403692 0.1352163,0.25240384 0.2614183,0.25240384 0.2974759,0 0.3786057,-0.30649038 0.5498798,-0.95552884 z m 0,0" style="fill:#121619;fill-opacity:1;fill-rule:nonzero;stroke:none" />
      <path id="path76" d="m 9.9085397,-2.3610433 c 0,-0.1802884 -0.027043,-0.1802884 -0.2073318,-0.1802884 -0.3876202,0.3876202 -1.0006009,0.3876202 -1.2169471,0.3876202 v 0.2253605 c 0.1532452,0 0.5498798,0 0.9104567,-0.1622596 v 3.01983175 c 0,0.19831735 0,0.27043265 -0.6129807,0.27043265 H 8.5203185 v 0.234375 c 0.3335337,-0.027043 0.7932692,-0.027043 1.1358173,-0.027043 0.3335337,0 0.7932692,0 1.1268032,0.027043 V 1.1996538 H 10.52152 c -0.6129803,0 -0.6129803,-0.072115 -0.6129803,-0.27043265 z m 0,0" style="fill:#121619;fill-opacity:1;fill-rule:nonzero;stroke:none" />
      <path id="path77" d="m 13.122181,1.8036202 1.433294,-3.9933894 -1.433294,-3.9933895 -0.477764,0.1712741 1.433293,3.8221154 -1.433293,3.8131009 z m 0,0" style="fill:#121619;fill-opacity:1;fill-rule:nonzero;stroke:none" />
    </g>
    <path id="path78" d="M 28.3468,85.04042 V -42.5202" style="fill:none;stroke:#121619;stroke-width:0.3985;stroke-linecap:butt;stroke-linejoin:miter;stroke-miterlimit:10;stroke-dasharray:0.3985, 0.99628;stroke-dashoffset:0;stroke-opacity:1" transform="matrix(1.7333333,0,0,-1.7333333,235.07027,182.32573)" />
    <g id="g78" aria-label="∣π&#10;2&#10;⟩" transform="matrix(1.7333333,0,0,1.7333333,270.95027,271.5456)">
      <path id="path79" d="M 1.1983137,-6.0930144 V 1.713476 h 0.5048077 v -7.8064904 z m 0,0" style="fill:#121619;fill-opacity:1;fill-rule:nonzero;stroke:none" />
      <path id="path80" d="M 5.1646599,-2.9109231 H 6.084131 c -0.171274,0.7301683 -0.3155048,1.3161058 -0.3155048,1.91105772 0,0.0540865 0,0.39663461 0.090144,0.68509615 0.099159,0.33353365 0.1802885,0.39663461 0.3245193,0.39663461 0.1802884,0 0.3605769,-0.15324519 0.3605769,-0.34254807 0,-0.0540865 -0.00901,-0.0721154 -0.036058,-0.14423077 -0.171274,-0.36959135 -0.2884615,-0.74819714 -0.2884615,-1.40625004 0,-0.1802884 0,-0.5138221 0.1171875,-1.0997596 h 0.9645432 c 0.1262019,0 0.2163462,0 0.297476,-0.063101 0.090144,-0.08113 0.1171875,-0.1893029 0.1171875,-0.234375 0,-0.2253606 -0.1983173,-0.2253606 -0.3335337,-0.2253606 H 4.506607 c -0.1712741,0 -0.46875,0 -0.8653846,0.3786058 -0.2884616,0.2884615 -0.5048077,0.6580528 -0.5048077,0.7121394 0,0.072115 0.054086,0.099159 0.1171875,0.099159 0.08113,0 0.099159,-0.027043 0.1442307,-0.090144 0.3876202,-0.5769231 0.8563702,-0.5769231 1.0456731,-0.5769231 h 0.4597356 c -0.234375,0.8473558 -0.6580529,1.8118991 -0.9465144,2.39783656 -0.054087,0.1171875 -0.1352164,0.27043269 -0.1352164,0.34254808 0,0.17127403692 0.1352164,0.25240384 0.2614183,0.25240384 0.2974759,0 0.3786058,-0.30649038 0.5498798,-0.95552884 z m 0,0" style="fill:#121619;fill-opacity:1;fill-rule:nonzero;stroke:none" />
      <path id="path81" d="m 10.981216,0.31624038 h -0.22536 c -0.009,0.0811298 -0.07212,0.47776443 -0.16226,0.54086539 -0.03606,0.0360577 -0.522836,0.0360577 -0.6039662,0.0360577 H 8.8718413 l 0.766226,-0.62199519 c 0.1983173,-0.16225962 0.7301687,-0.54086539 0.9194707,-0.72115385 0.180289,-0.18028846 0.423678,-0.48677884 0.423678,-0.91045673 0,-0.7391827 -0.676081,-1.1808894 -1.478365,-1.1808894 -0.7752404,0 -1.3070914,0.5048077 -1.3070914,1.0727163 0,0.3064904 0.2524039,0.3425481 0.3245192,0.3425481 0.1442308,0 0.3155049,-0.1081731 0.3155049,-0.3245192 0,-0.1352164 -0.072115,-0.3245193 -0.3335337,-0.3245193 0.1352163,-0.3064904 0.4957933,-0.5318509 0.9104567,-0.5318509 0.6310093,0 0.9645433,0.46875 0.9645433,0.9465144 0,0.42367789 -0.279447,0.86538462 -0.703125,1.24399039 L 8.2588606,1.181625 c -0.063101,0.063101 -0.063101,0.063101 -0.063101,0.2524038 h 2.5961534 z m 0,0" style="fill:#121619;fill-opacity:1;fill-rule:nonzero;stroke:none" />
      <path id="path82" d="m 13.122142,1.8036202 1.433293,-3.9933894 -1.433293,-3.9933895 -0.477765,0.1712741 1.433294,3.8221154 -1.433294,3.8131009 z m 0,0" style="fill:#121619;fill-opacity:1;fill-rule:nonzero;stroke:none" />
    </g>
    <path id="path83" d="M 141.73404,85.04042 V -42.5202" style="fill:none;stroke:#121619;stroke-width:0.3985;stroke-linecap:butt;stroke-linejoin:miter;stroke-miterlimit:10;stroke-dasharray:0.3985, 0.99628;stroke-dashoffset:0;stroke-opacity:1" transform="matrix(1.7333333,0,0,-1.7333333,235.07027,182.32573)" />
    <g id="g83" aria-label="∣π&#10;3&#10;⟩" transform="matrix(1.7333333,0,0,1.7333333,467.48773,271.5456)">
      <path id="path84" d="M 1.1992344,-6.0930144 V 1.713476 h 0.5048077 v -7.8064904 z m 0,0" style="fill:#121619;fill-opacity:1;fill-rule:nonzero;stroke:none" />
      <path id="path85" d="m 5.1633269,-2.9109231 h 0.9194712 c -0.1712741,0.7301683 -0.3155048,1.3161058 -0.3155048,1.91105772 0,0.0540865 0,0.39663461 0.090144,0.68509615 0.099159,0.33353365 0.1802885,0.39663461 0.3245192,0.39663461 0.1802885,0 0.360577,-0.15324519 0.360577,-0.34254807 0,-0.0540865 -0.00901,-0.0721154 -0.036058,-0.14423077 C 6.3352019,-0.77450481 6.2180144,-1.1531106 6.2180144,-1.8111635 c 0,-0.1802884 0,-0.5138221 0.1171875,-1.0997596 h 0.9645433 c 0.1262019,0 0.2163461,0 0.297476,-0.063101 0.090144,-0.08113 0.1171875,-0.1893029 0.1171875,-0.234375 0,-0.2253606 -0.1983174,-0.2253606 -0.3335337,-0.2253606 H 4.505274 c -0.171274,0 -0.46875,0 -0.8653846,0.3786058 -0.2884615,0.2884615 -0.5048077,0.6580528 -0.5048077,0.7121394 0,0.072115 0.054087,0.099159 0.1171875,0.099159 0.08113,0 0.099159,-0.027043 0.1442308,-0.090144 0.3876202,-0.5769231 0.8563702,-0.5769231 1.0456731,-0.5769231 h 0.4597356 c -0.234375,0.8473558 -0.6580529,1.8118991 -0.9465145,2.39783656 -0.054087,0.1171875 -0.1352163,0.27043269 -0.1352163,0.34254808 0,0.17127403692 0.1352163,0.25240384 0.2614183,0.25240384 0.2974759,0 0.3786057,-0.30649038 0.5498798,-0.95552884 z m 0,0" style="fill:#121619;fill-opacity:1;fill-rule:nonzero;stroke:none" />
      <path id="path86" d="m 9.5218005,-0.54914423 c 0.5048075,0 0.8473555,0.34254808 0.8473555,0.94651442 0,0.65805291 -0.3966344,0.94651441 -0.8293267,0.94651441 -0.1622596,0 -0.7752404,-0.036058 -1.0456731,-0.37860575 0.234375,-0.0270433 0.3245193,-0.18028847 0.3245193,-0.34254808 0,-0.20733173 -0.1442308,-0.34254808 -0.3335337,-0.34254808 -0.1622596,0 -0.3425481,0.0991587 -0.3425481,0.3515625 0,0.59495191 0.6580529,0.92848561 1.4152645,0.92848561 0.8834138,0 1.4783658,-0.56790868 1.4783658,-1.16286061 0,-0.43269231 -0.333534,-0.89242788 -1.0456735,-1.07271634 0.4687495,-0.1532452 0.8473555,-0.54086535 0.8473555,-1.02764425 0,-0.4777644 -0.558894,-0.8383413 -1.2710334,-0.8383413 -0.703125,0 -1.234976,0.3245192 -1.234976,0.811298 0,0.2614183 0.1983173,0.3335337 0.3155048,0.3335337 0.1532452,0 0.3155048,-0.1081731 0.3155048,-0.3155048 0,-0.1893029 -0.1262019,-0.297476 -0.2884615,-0.3245192 0.2794471,-0.3064904 0.8203125,-0.3064904 0.874399,-0.3064904 0.3064904,0 0.6850963,0.1442307 0.6850963,0.640024 0,0.3245192 -0.180289,0.90144232 -0.7752405,0.93750002 -0.1081731,0.009014 -0.2704327,0.0180288 -0.3245192,0.0180288 -0.063101,0.009014 -0.1262019,0.009014 -0.1262019,0.0991587 0,0.0991587 0.063101,0.0991587 0.1622596,0.0991587 z m 0,0" style="fill:#121619;fill-opacity:1;fill-rule:nonzero;stroke:none" />
      <path id="path87" d="m 13.123062,1.8036202 1.433294,-3.9933894 -1.433294,-3.9933895 -0.477764,0.1712741 1.433293,3.8221154 -1.433293,3.8131009 z m 0,0" style="fill:#121619;fill-opacity:1;fill-rule:nonzero;stroke:none" />
    </g>
  </g>
</svg>