<?xml version='1.0' encoding='utf-8'?>
<svg xmlns="http://www.w3.org/2000/svg" xmlns:ns1="http://sodipodi.sourceforge.net/DTD/sodipodi-0.dtd" xmlns:ns2="http://www.inkscape.org/namespaces/inkscape" version="1.1" id="svg1" width="100%" height="auto" viewBox="-20.0 -20.0 479.27066 204.12765" ns1:docname="svg_fix_XXXXXX.svg">
  <rect id="path1" x="-20.0" y="-20.0" width="479.27066" height="204.12765" fill="white" /><ns1:namedview id="namedview1" pagecolor="#ffffff" bordercolor="#000000" borderopacity="0.25" ns2:showpageshadow="2" ns2:pageopacity="0.0" ns2:pagecheckerboard="0" ns2:deskcolor="#d1d1d1" />
  <defs id="defs1" />
  <g id="g1" transform="translate(-81.625,-30.799642)">
    <path id="path2" d="m -94.96179,15.59056 h 19.84274 V 35.4333 h -19.84274 z" style="fill:#78a9ff;fill-opacity:1;fill-rule:nonzero;stroke:#78a9ff;stroke-width:0.3985;stroke-linecap:butt;stroke-linejoin:miter;stroke-miterlimit:10;stroke-dasharray:none;stroke-opacity:1" transform="matrix(2.1333333,0,0,-2.1333333,325.8456,112.86347)" />
    <path id="path3" d="m 3.0539043,-3.17054 h 0.7397461 c 0.1611328,0 0.2563476,0 0.2563476,-0.1538086 0,-0.1098633 -0.102539,-0.1098633 -0.2416992,-0.1098633 H 3.0978496 c 0.1318359,-0.7177735 0.2124024,-1.171875 0.2856445,-1.5307617 0.036621,-0.131836 0.058594,-0.2197266 0.1757813,-0.3149414 0.1025391,-0.087891 0.168457,-0.1025391 0.2563476,-0.1025391 0.1171875,0 0.2490235,0.021973 0.3515625,0.080566 -0.036621,0.021973 -0.087891,0.043945 -0.1245117,0.065918 -0.1391601,0.073242 -0.234375,0.2197265 -0.234375,0.3735351 0,0.1831055 0.1464844,0.300293 0.3222657,0.300293 0.2270507,0 0.4467773,-0.2050781 0.4467773,-0.4833984 0,-0.3735352 -0.3881836,-0.5639649 -0.769043,-0.5639649 -0.2709961,0 -0.7690429,0.1245117 -1.0253906,0.8642578 -0.073242,0.1831055 -0.073242,0.1977539 -0.2856445,1.3110352 h -0.600586 c -0.1611328,0 -0.2563476,0 -0.2563476,0.1538086 0,0.1098633 0.102539,0.1098633 0.2416992,0.1098633 h 0.5639648 l -0.571289,3.09082027 C 1.7208965,0.72594434 1.603709,1.3997725 1.1789043,1.3997725 c -0.021973,0 -0.19042969,0 -0.34423828,-0.095215 C 1.200877,1.216667 1.200877,0.88707715 1.200877,0.87975293 c 0,-0.18310547 -0.1391602,-0.30029297 -0.31494145,-0.30029297 -0.21972657,0 -0.44677735,0.18310547 -0.44677735,0.49072264 0,0.3295899 0.34423828,0.5566406 0.7397461,0.5566406 0.4833984,0 0.8203125,-0.5126953 0.9228516,-0.71044918 0.2856445,-0.52734375 0.46875,-1.5234375 0.4907226,-1.6040039 z m 0,0" style="fill:#ffffff;fill-opacity:1;fill-rule:nonzero;stroke:none" aria-label="f" transform="matrix(2.1333333,0,0,2.1333333,139.14907,62.6896)" />
    <path id="path4" d="m -94.96179,-35.4333 h 19.84274 v 19.84274 h -19.84274 z" style="fill:#78a9ff;fill-opacity:1;fill-rule:nonzero;stroke:#78a9ff;stroke-width:0.3985;stroke-linecap:butt;stroke-linejoin:miter;stroke-miterlimit:10;stroke-dasharray:none;stroke-opacity:1" transform="matrix(2.1333333,0,0,-2.1333333,325.8456,112.86347)" />
    <path id="path5" d="m 3.0539043,-3.1712012 h 0.7397461 c 0.1611328,0 0.2563476,0 0.2563476,-0.1538086 0,-0.1098632 -0.102539,-0.1098632 -0.2416992,-0.1098632 H 3.0978496 c 0.1318359,-0.7177735 0.2124024,-1.171875 0.2856445,-1.5307618 0.036621,-0.1318359 0.058594,-0.2197265 0.1757813,-0.3149414 0.1025391,-0.087891 0.168457,-0.102539 0.2563476,-0.102539 0.1171875,0 0.2490235,0.021973 0.3515625,0.080566 -0.036621,0.021973 -0.087891,0.043945 -0.1245117,0.065918 -0.1391601,0.073242 -0.234375,0.2197266 -0.234375,0.3735352 0,0.1831055 0.1464844,0.300293 0.3222657,0.300293 0.2270507,0 0.4467773,-0.2050782 0.4467773,-0.4833985 0,-0.3735351 -0.3881836,-0.5639648 -0.769043,-0.5639648 -0.2709961,0 -0.7690429,0.1245117 -1.0253906,0.8642578 -0.073242,0.1831055 -0.073242,0.1977539 -0.2856445,1.3110352 h -0.600586 c -0.1611328,0 -0.2563476,0 -0.2563476,0.1538085 0,0.1098633 0.102539,0.1098633 0.2416992,0.1098633 h 0.5639648 l -0.571289,3.09082034 C 1.7208965,0.7252832 1.603709,1.3991113 1.1789043,1.3991113 c -0.021973,0 -0.19042969,0 -0.34423828,-0.095215 C 1.200877,1.2160059 1.200877,0.88641602 1.200877,0.8790918 c 0,-0.18310547 -0.1391602,-0.30029297 -0.31494145,-0.30029297 -0.21972657,0 -0.44677735,0.18310547 -0.44677735,0.49072267 0,0.3295898 0.34423828,0.5566406 0.7397461,0.5566406 0.4833984,0 0.8203125,-0.5126953 0.9228516,-0.71044921 0.2856445,-0.52734375 0.46875,-1.5234375 0.4907226,-1.60400391 z m 0,0" style="fill:#ffffff;fill-opacity:1;fill-rule:nonzero;stroke:none" aria-label="f" transform="matrix(2.1333333,0,0,2.1333333,139.14907,171.53867)" />
    <path id="path6" d="m 3.8964883,-2.5407061 c 0,-0.8496093 -0.087891,-1.3696289 -0.3515625,-1.8823242 -0.3515625,-0.703125 -0.9960938,-0.8789062 -1.4355469,-0.8789062 -1.003418,0 -1.3696289,0.7543945 -1.47949218,0.9741211 -0.28564453,0.5859375 -0.30029297,1.3696289 -0.30029297,1.7871093 0,0.5273438 0.0219727,1.3330079 0.40283203,1.97021489 0.36621092,0.5859375 0.95947262,0.73974609 1.37695312,0.73974609 0.3881836,0 1.0693359,-0.1171875 1.472168,-0.90820312 C 3.8745156,-1.3175615 3.8964883,-2.0206865 3.8964883,-2.5407061 Z m -1.7871094,2.4829102 c -0.2709961,0 -0.8203125,-0.12451172 -0.9887695,-0.9594727 -0.087891,-0.4541015 -0.087891,-1.208496 -0.087891,-1.6186523 0,-0.5493164 0,-1.105957 0.087891,-1.5454102 0.168457,-0.8129882 0.7910156,-0.8935546 0.9887695,-0.8935546 0.2709961,0 0.8203125,0.1318359 0.9814453,0.8569336 0.095215,0.4394531 0.095215,1.040039 0.095215,1.5820312 0,0.46875 0,1.1865234 -0.095215,1.6333008 -0.168457,0.83496092 -0.7177734,0.9448242 -0.9814453,0.9448242 z m 0,0" style="fill:#121619;fill-opacity:1;fill-rule:nonzero;stroke:none" aria-label="0" transform="matrix(2.1333333,0,0,2.1333333,80.921867,63.916267)" />
    <path id="path7" d="m 2.5048867,-5.0765469 c 0,-0.2124023 -0.021973,-0.2270508 -0.234375,-0.2270508 -0.3295898,0.3222657 -0.7470703,0.5126954 -1.50878904,0.5126954 v 0.2636718 c 0.21972656,0 0.65185544,0 1.11328124,-0.2124023 v 4.08691405 c 0,0.29296875 -0.029297,0.38818359 -0.7836914,0.38818359 H 0.81299219 V -8.6328125e-4 C 1.142582,-0.02283594 1.8237344,-0.02283594 2.1826211,-0.02283594 c 0.3588867,0 1.0546875,0 1.3769531,0.0219726587 V -0.26453516 H 3.2812539 c -0.7543945,0 -0.7763672,-0.0952148 -0.7763672,-0.38818359 z m 0,0" style="fill:#121619;fill-opacity:1;fill-rule:nonzero;stroke:none" aria-label="1" transform="matrix(2.1333333,0,0,2.1333333,80.921867,172.76747)" />
    <path id="path8" d="m -104.86223,25.51193 h 9.70119" style="fill:none;stroke:#121619;stroke-width:0.3985;stroke-linecap:butt;stroke-linejoin:miter;stroke-miterlimit:10;stroke-dasharray:none;stroke-opacity:1" transform="matrix(2.1333333,0,0,-2.1333333,325.8456,112.86347)" />
    <path id="path9" d="m -104.86223,-25.51193 h 9.70119" style="fill:none;stroke:#121619;stroke-width:0.3985;stroke-linecap:butt;stroke-linejoin:miter;stroke-miterlimit:10;stroke-dasharray:none;stroke-opacity:1" transform="matrix(2.1333333,0,0,-2.1333333,325.8456,112.86347)" />
    <path id="path10" d="m -62.53496,25.51193 c 0,0.68779 -0.55755,1.24535 -1.24534,1.24535 -0.6878,0 -1.24535,-0.55756 -1.24535,-1.24535 0,-0.68777 0.55755,-1.24534 1.24535,-1.24534 0.68779,0 1.24534,0.55757 1.24534,1.24534 z" style="fill:#121619;fill-opacity:1;fill-rule:nonzero;stroke:none" transform="matrix(2.1333333,0,0,-2.1333333,325.8456,112.86347)" />
    <path id="path11" d="m -62.53496,-25.51193 c 0,0.68777 -0.55755,1.24534 -1.24534,1.24534 -0.6878,0 -1.24535,-0.55757 -1.24535,-1.24534 0,-0.68779 0.55755,-1.24535 1.24535,-1.24535 0.68779,0 1.24534,0.55756 1.24534,1.24535 z" style="fill:#121619;fill-opacity:1;fill-rule:nonzero;stroke:none" transform="matrix(2.1333333,0,0,-2.1333333,325.8456,112.86347)" />
    <path id="path12" d="m -38.26817,8.50386 h 19.84274 V 28.3466 h -19.84274 z" style="fill:#78a9ff;fill-opacity:1;fill-rule:nonzero;stroke:#78a9ff;stroke-width:0.3985;stroke-linecap:butt;stroke-linejoin:miter;stroke-miterlimit:10;stroke-dasharray:none;stroke-opacity:1" transform="matrix(2.1333333,0,0,-2.1333333,325.8456,112.86347)" />
    <path id="path13" d="M 0.71708594,-1.933291 H 4.5110312 v 1.53808592 H 5.0164023 V -2.4459863 H 0.71708594 Z m 0,0" style="fill:#ffffff;fill-opacity:1;fill-rule:nonzero;stroke:none" aria-label="¬" transform="matrix(2.1333333,0,0,2.1333333,259.25147,78.194667)" />
    <path id="path14" d="m -38.26817,-28.3466 h 19.84274 v 19.84274 h -19.84274 z" style="fill:#78a9ff;fill-opacity:1;fill-rule:nonzero;stroke:#78a9ff;stroke-width:0.3985;stroke-linecap:butt;stroke-linejoin:miter;stroke-miterlimit:10;stroke-dasharray:none;stroke-opacity:1" transform="matrix(2.1333333,0,0,-2.1333333,325.8456,112.86347)" />
    <path id="path15" d="M 0.71708594,-1.9333154 H 4.5110312 v 1.53808591 H 5.0164023 V -2.4460107 H 0.71708594 Z m 0,0" style="fill:#ffffff;fill-opacity:1;fill-rule:nonzero;stroke:none" aria-label="¬" transform="matrix(2.1333333,0,0,2.1333333,259.25147,156.808)" />
    <path id="path16" d="M 11.33873,18.42543 H 31.18147 V 38.26817 H 11.33873 Z" style="fill:#78a9ff;fill-opacity:1;fill-rule:nonzero;stroke:#78a9ff;stroke-width:0.3985;stroke-linecap:butt;stroke-linejoin:miter;stroke-miterlimit:10;stroke-dasharray:none;stroke-opacity:1" transform="matrix(2.1333333,0,0,-2.1333333,325.8456,112.86347)" />
    <path id="path17" d="M 4.950418,-0.25653027 3.0241484,-4.3434443 H 2.709207 L 0.79758594,-0.25653027 1.2590117,-0.03680371 2.8703398,-3.493835 4.4889922,-0.03680371 Z m 0,0" style="fill:#ffffff;fill-opacity:1;fill-rule:nonzero;stroke:none" aria-label="∧" transform="matrix(2.1333333,0,0,2.1333333,365.07973,57.027733)" />
    <path id="path18" d="m 11.33873,-38.26817 h 19.84274 v 19.84274 H 11.33873 Z" style="fill:#78a9ff;fill-opacity:1;fill-rule:nonzero;stroke:#78a9ff;stroke-width:0.3985;stroke-linecap:butt;stroke-linejoin:miter;stroke-miterlimit:10;stroke-dasharray:none;stroke-opacity:1" transform="matrix(2.1333333,0,0,-2.1333333,325.8456,112.86347)" />
    <path id="path19" d="M 4.950418,-0.25558398 3.0241484,-4.342498 H 2.709207 l -1.91162106,4.08691402 0.46142576,0.21972656 1.6113281,-3.45703128 1.6186524,3.45703128 z m 0,0" style="fill:#ffffff;fill-opacity:1;fill-rule:nonzero;stroke:none" aria-label="∧" transform="matrix(2.1333333,0,0,2.1333333,365.07973,177.97493)" />
    <path id="path20" d="M 53.85893,-9.92137 H 73.70167 V 9.92137 H 53.85893 Z" style="fill:#78a9ff;fill-opacity:1;fill-rule:nonzero;stroke:#78a9ff;stroke-width:0.3985;stroke-linecap:butt;stroke-linejoin:miter;stroke-miterlimit:10;stroke-dasharray:none;stroke-opacity:1" transform="matrix(2.1333333,0,0,-2.1333333,325.8456,112.86347)" />
    <path id="path21" d="M 0.79833789,-4.1314844 2.709959,-0.03724609 H 3.0249004 L 4.9438457,-4.1314844 4.4750957,-4.3438867 2.8710918,-0.89417969 1.2524395,-4.3438867 Z m 0,0" style="fill:#ffffff;fill-opacity:1;fill-rule:nonzero;stroke:none" aria-label="∨" transform="matrix(2.1333333,0,0,2.1333333,455.78907,117.50133)" />
    <path id="path22" d="m -74.9198,25.51193 h 11.1395" style="fill:none;stroke:#121619;stroke-width:0.3985;stroke-linecap:butt;stroke-linejoin:miter;stroke-miterlimit:10;stroke-dasharray:none;stroke-opacity:1" transform="matrix(2.1333333,0,0,-2.1333333,325.8456,112.86347)" />
    <path id="path23" d="m -74.9198,-25.51193 h 11.1395" style="fill:none;stroke:#121619;stroke-width:0.3985;stroke-linecap:butt;stroke-linejoin:miter;stroke-miterlimit:10;stroke-dasharray:none;stroke-opacity:1" transform="matrix(2.1333333,0,0,-2.1333333,325.8456,112.86347)" />
    <path id="path24" d="m -63.7803,25.51193 v 4.82743 c 0,1.10047 0.89209,1.99255 1.99255,1.99255 h 72.92722" style="fill:none;stroke:#121619;stroke-width:0.3985;stroke-linecap:butt;stroke-linejoin:miter;stroke-miterlimit:10;stroke-dasharray:none;stroke-opacity:1" transform="matrix(2.1333333,0,0,-2.1333333,325.8456,112.86347)" />
    <path id="path25" d="m -63.7803,25.51193 v -5.09414 c 0,-1.10049 0.89209,-1.99256 1.99255,-1.99256 h 23.32033" style="fill:none;stroke:#121619;stroke-width:0.3985;stroke-linecap:butt;stroke-linejoin:miter;stroke-miterlimit:10;stroke-dasharray:none;stroke-opacity:1" transform="matrix(2.1333333,0,0,-2.1333333,325.8456,112.86347)" />
    <path id="path26" d="m -63.7803,-25.51193 v -4.82743 c 0,-1.10047 0.89209,-1.99255 1.99255,-1.99255 h 72.92722" style="fill:none;stroke:#121619;stroke-width:0.3985;stroke-linecap:butt;stroke-linejoin:miter;stroke-miterlimit:10;stroke-dasharray:none;stroke-opacity:1" transform="matrix(2.1333333,0,0,-2.1333333,325.8456,112.86347)" />
    <path id="path27" d="m -63.7803,-25.51193 v 5.09414 c 0,1.10049 0.89209,1.99256 1.99255,1.99256 h 23.32033" style="fill:none;stroke:#121619;stroke-width:0.3985;stroke-linecap:butt;stroke-linejoin:miter;stroke-miterlimit:10;stroke-dasharray:none;stroke-opacity:1" transform="matrix(2.1333333,0,0,-2.1333333,325.8456,112.86347)" />
    <path id="path28" d="m -18.22618,18.42523 h 12.18085 c 1.10048,0 1.99255,-0.89209 1.99255,-1.99255 v -24.3617 c 0,-1.10046 0,-2.88462 0,-3.9851 v -10.45502 c 0,-1.10048 0.89209,-1.99256 1.99255,-1.99256 h 13.1997" style="fill:none;stroke:#121619;stroke-width:0.3985;stroke-linecap:butt;stroke-linejoin:miter;stroke-miterlimit:10;stroke-dasharray:none;stroke-opacity:1" transform="matrix(2.1333333,0,0,-2.1333333,325.8456,112.86347)" />
    <path id="path29" d="m -18.22618,-18.42523 h 5.09415 c 1.10046,0 1.99255,0.89209 1.99255,1.99255 v 24.3617 c 0,1.10046 0,2.88462 0,3.9851 v 10.45502 c 0,1.10048 0.89208,1.99256 1.99255,1.99256 h 20.2864" style="fill:none;stroke:#121619;stroke-width:0.3985;stroke-linecap:butt;stroke-linejoin:miter;stroke-miterlimit:10;stroke-dasharray:none;stroke-opacity:1" transform="matrix(2.1333333,0,0,-2.1333333,325.8456,112.86347)" />
    <path id="path30" d="m 31.38072,28.3468 h 5.09413 c 1.10048,0 1.99255,-0.89207 1.99255,-1.99255 v -10.1883 c 0,-1.10046 0,-2.88462 0,-3.9851 V 5.97766 c 0,-1.10048 0.8921,-1.99256 1.99256,-1.99256 h 13.19972" style="fill:none;stroke:#121619;stroke-width:0.3985;stroke-linecap:butt;stroke-linejoin:miter;stroke-miterlimit:10;stroke-dasharray:none;stroke-opacity:1" transform="matrix(2.1333333,0,0,-2.1333333,325.8456,112.86347)" />
    <path id="path31" d="m 31.38072,-28.3468 h 5.09413 c 1.10048,0 1.99255,0.89207 1.99255,1.99255 v 10.1883 c 0,1.10046 0,2.88462 0,3.9851 v 6.20319 c 0,1.10048 0.8921,1.99256 1.99256,1.99256 h 13.19972" style="fill:none;stroke:#121619;stroke-width:0.3985;stroke-linecap:butt;stroke-linejoin:miter;stroke-miterlimit:10;stroke-dasharray:none;stroke-opacity:1" transform="matrix(2.1333333,0,0,-2.1333333,325.8456,112.86347)" />
    <path id="path32" d="m 73.90092,0 h 17.5288" style="fill:none;stroke:#121619;stroke-width:0.3985;stroke-linecap:butt;stroke-linejoin:miter;stroke-miterlimit:10;stroke-dasharray:none;stroke-opacity:1" transform="matrix(2.1333333,0,0,-2.1333333,325.8456,112.86347)" />
  </g>
</svg>