<svg width="580" height="510" viewBox="0 0 580 510" fill="none" xmlns="http://www.w3.org/2000/svg">
<rect width="580" height="510" fill="white"/>
<path d="M220.14 63V60.96H220.08C219.74 62.26 218.32 63.24 216.2 63.24C212.78 63.24 210.4 60.7 210.4 56.02C210.4 51.38 212.76 48.8 216.34 48.8C218.84 48.8 220.52 50.04 221.42 51.86L220.04 52.7C219.4 51.22 218.1 50.3 216.34 50.3C213.88 50.3 212.2 52.12 212.2 54.88V57.14C212.2 59.9 213.84 61.74 216.5 61.74C218.44 61.74 220.06 60.74 220.06 58.68V57.3H216.98V55.82H221.7V63H220.14ZM228.726 63.24C225.926 63.24 224.086 61.12 224.086 57.84C224.086 54.56 225.926 52.44 228.726 52.44C231.486 52.44 233.186 54.56 233.186 57.48V58.24H225.766V58.72C225.766 60.5 226.906 61.84 228.826 61.84C230.126 61.84 231.126 61.2 231.666 60.06L232.806 60.88C232.146 62.28 230.666 63.24 228.726 63.24ZM228.726 53.78C226.986 53.78 225.766 55.1 225.766 56.9V57.04H231.466V56.82C231.466 55 230.366 53.78 228.726 53.78ZM240.103 63H238.103C237.003 63 236.403 62.3 236.403 61.3V54.08H234.703V52.68H235.663C236.343 52.68 236.563 52.44 236.563 51.74V49.82H238.003V52.68H240.263V54.08H238.003V61.6H240.103V63ZM251.841 63H249.841C248.741 63 248.141 62.3 248.141 61.3V54.08H246.441V52.68H247.401C248.081 52.68 248.301 52.44 248.301 51.74V49.82H249.741V52.68H252.001V54.08H249.741V61.6H251.841V63ZM254.573 63V48.2H256.173V54.36H256.253C256.753 53.2 257.633 52.44 259.173 52.44C261.293 52.44 262.633 53.88 262.633 56.38V63H261.033V56.66C261.033 54.82 260.233 53.88 258.693 53.88C257.413 53.88 256.173 54.52 256.173 55.84V63H254.573ZM269.82 63.24C267.02 63.24 265.18 61.12 265.18 57.84C265.18 54.56 267.02 52.44 269.82 52.44C272.58 52.44 274.28 54.56 274.28 57.48V58.24H266.86V58.72C266.86 60.5 268 61.84 269.92 61.84C271.22 61.84 272.22 61.2 272.76 60.06L273.9 60.88C273.24 62.28 271.76 63.24 269.82 63.24ZM269.82 53.78C268.08 53.78 266.86 55.1 266.86 56.9V57.04H272.56V56.82C272.56 55 271.46 53.78 269.82 53.78ZM283.243 63H281.643V52.68H283.243V54.58H283.343C283.703 53.6 284.643 52.68 286.323 52.68H286.943V54.28H286.003C284.283 54.28 283.243 55.02 283.243 56V63ZM289.787 50.26C289.107 50.26 288.807 49.9 288.807 49.36V49.1C288.807 48.56 289.107 48.2 289.787 48.2C290.467 48.2 290.767 48.56 290.767 49.1V49.36C290.767 49.9 290.467 50.26 289.787 50.26ZM288.987 63V52.68H290.587V63H288.987ZM302.687 64.14C302.687 66.26 301.007 67.24 297.687 67.24C294.467 67.24 293.147 66.32 293.147 64.7C293.147 63.58 293.767 62.98 294.787 62.7V62.48C294.207 62.2 293.867 61.74 293.867 61.04C293.867 60 294.607 59.5 295.647 59.24V59.16C294.427 58.58 293.707 57.44 293.707 56C293.707 53.9 295.247 52.44 297.587 52.44C298.327 52.44 298.987 52.58 299.547 52.84V52.66C299.547 51.86 299.887 51.28 300.747 51.28H302.287V52.68H300.327V53.34C301.067 53.98 301.507 54.9 301.507 56C301.507 58.1 299.967 59.56 297.607 59.56C297.267 59.56 296.907 59.52 296.607 59.46C295.927 59.64 295.247 59.98 295.247 60.62C295.247 61.24 295.887 61.4 296.827 61.4H299.027C301.587 61.4 302.687 62.44 302.687 64.14ZM301.187 64.26C301.187 63.44 300.647 62.9 299.047 62.9H295.607C294.947 63.2 294.647 63.66 294.647 64.3C294.647 65.2 295.267 65.94 296.887 65.94H298.367C300.147 65.94 301.187 65.38 301.187 64.26ZM297.607 58.28C298.967 58.28 299.827 57.64 299.827 56.28V55.72C299.827 54.36 298.967 53.72 297.607 53.72C296.247 53.72 295.387 54.36 295.387 55.72V56.28C295.387 57.64 296.247 58.28 297.607 58.28ZM304.554 63V48.2H306.154V54.36H306.234C306.734 53.2 307.614 52.44 309.154 52.44C311.274 52.44 312.614 53.88 312.614 56.38V63H311.014V56.66C311.014 54.82 310.214 53.88 308.674 53.88C307.394 53.88 306.154 54.52 306.154 55.84V63H304.554ZM320.201 63H318.201C317.101 63 316.501 62.3 316.501 61.3V54.08H314.801V52.68H315.761C316.441 52.68 316.661 52.44 316.661 51.74V49.82H318.101V52.68H320.361V54.08H318.101V61.6H320.201V63ZM336.059 63H335.159C333.979 63 333.499 62.28 333.379 61.32H333.279C332.839 62.58 331.739 63.24 330.299 63.24C328.119 63.24 326.839 62.04 326.839 60.12C326.839 58.18 328.239 57.1 331.239 57.1H333.279V56.08C333.279 54.62 332.479 53.82 330.839 53.82C329.599 53.82 328.779 54.42 328.219 55.36L327.259 54.46C327.819 53.36 329.059 52.44 330.919 52.44C333.399 52.44 334.879 53.74 334.879 55.92V61.6H336.059V63ZM330.559 61.88C332.139 61.88 333.279 61.06 333.279 60V58.3H331.159C329.339 58.3 328.519 58.86 328.519 59.86V60.28C328.519 61.3 329.319 61.88 330.559 61.88ZM339.943 63H338.343V52.68H339.943V54.36H340.023C340.523 53.2 341.403 52.44 342.943 52.44C345.063 52.44 346.403 53.88 346.403 56.38V63H344.803V56.66C344.803 54.82 344.003 53.88 342.463 53.88C341.183 53.88 339.943 54.52 339.943 55.84V63ZM352.81 63.24C350.91 63.24 349.65 62.44 348.73 61.22L349.87 60.3C350.67 61.3 351.63 61.88 352.93 61.88C354.29 61.88 355.09 61.26 355.09 60.2C355.09 59.4 354.65 58.78 353.29 58.58L352.47 58.46C350.57 58.18 349.15 57.4 349.15 55.48C349.15 53.44 350.73 52.44 352.83 52.44C354.49 52.44 355.59 53.06 356.43 54.1L355.37 55.06C354.91 54.42 354.03 53.8 352.71 53.8C351.39 53.8 350.69 54.42 350.69 55.4C350.69 56.4 351.39 56.8 352.67 57L353.47 57.12C355.75 57.46 356.63 58.46 356.63 60.02C356.63 62.02 355.17 63.24 352.81 63.24ZM360.96 63L358.2 52.68H359.76L360.86 57.14L361.96 61.66H362L363.26 57.14L364.56 52.68H365.98L367.32 57.14L368.6 61.66H368.64L369.7 57.14L370.82 52.68H372.32L369.58 63H367.6L366.16 58.04L365.26 54.9H365.22L364.34 58.04L362.9 63H360.96ZM378.414 63.24C375.614 63.24 373.774 61.12 373.774 57.84C373.774 54.56 375.614 52.44 378.414 52.44C381.174 52.44 382.874 54.56 382.874 57.48V58.24H375.454V58.72C375.454 60.5 376.594 61.84 378.514 61.84C379.814 61.84 380.814 61.2 381.354 60.06L382.494 60.88C381.834 62.28 380.354 63.24 378.414 63.24ZM378.414 53.78C376.674 53.78 375.454 55.1 375.454 56.9V57.04H381.154V56.82C381.154 55 380.054 53.78 378.414 53.78ZM387.111 63H385.511V52.68H387.111V54.58H387.211C387.571 53.6 388.511 52.68 390.191 52.68H390.811V54.28H389.871C388.151 54.28 387.111 55.02 387.111 56V63ZM392.273 60.66C393.113 60.66 393.493 61.14 393.493 61.84V62.12C393.493 63.2 392.813 64.68 391.673 65.66H390.333C391.133 64.82 391.613 64.12 391.833 63.18C391.293 63.06 391.053 62.66 391.053 62.12V61.84C391.053 61.14 391.433 60.66 392.273 60.66ZM401.989 63V54.08H400.309V52.68H401.989V50.6C401.989 49.18 402.729 48.2 404.249 48.2H405.809V49.6H403.589V52.68H405.809V54.08H403.589V63H401.989ZM416.313 63H415.413C414.233 63 413.753 62.28 413.633 61.32H413.533C413.093 62.58 411.993 63.24 410.553 63.24C408.373 63.24 407.093 62.04 407.093 60.12C407.093 58.18 408.493 57.1 411.493 57.1H413.533V56.08C413.533 54.62 412.733 53.82 411.093 53.82C409.853 53.82 409.033 54.42 408.473 55.36L407.513 54.46C408.073 53.36 409.313 52.44 411.173 52.44C413.653 52.44 415.133 53.74 415.133 55.92V61.6H416.313V63ZM410.813 61.88C412.393 61.88 413.533 61.06 413.533 60V58.3H411.413C409.593 58.3 408.773 58.86 408.773 59.86V60.28C408.773 61.3 409.573 61.88 410.813 61.88ZM421.696 63.24C419.796 63.24 418.536 62.44 417.616 61.22L418.756 60.3C419.556 61.3 420.516 61.88 421.816 61.88C423.176 61.88 423.976 61.26 423.976 60.2C423.976 59.4 423.536 58.78 422.176 58.58L421.356 58.46C419.456 58.18 418.036 57.4 418.036 55.48C418.036 53.44 419.616 52.44 421.716 52.44C423.376 52.44 424.476 53.06 425.316 54.1L424.256 55.06C423.796 54.42 422.916 53.8 421.596 53.8C420.276 53.8 419.576 54.42 419.576 55.4C419.576 56.4 420.276 56.8 421.556 57L422.356 57.12C424.636 57.46 425.516 58.46 425.516 60.02C425.516 62.02 424.056 63.24 421.696 63.24ZM432.486 63H430.486C429.386 63 428.786 62.3 428.786 61.3V54.08H427.086V52.68H428.046C428.726 52.68 428.946 52.44 428.946 51.74V49.82H430.386V52.68H432.646V54.08H430.386V61.6H432.486V63ZM439.019 63.24C436.219 63.24 434.379 61.12 434.379 57.84C434.379 54.56 436.219 52.44 439.019 52.44C441.779 52.44 443.479 54.56 443.479 57.48V58.24H436.059V58.72C436.059 60.5 437.199 61.84 439.119 61.84C440.419 61.84 441.419 61.2 441.959 60.06L443.099 60.88C442.439 62.28 440.959 63.24 439.019 63.24ZM439.019 53.78C437.279 53.78 436.059 55.1 436.059 56.9V57.04H441.759V56.82C441.759 55 440.659 53.78 439.019 53.78ZM447.716 63H446.116V52.68H447.716V54.58H447.816C448.176 53.6 449.116 52.68 450.796 52.68H451.416V54.28H450.476C448.756 54.28 447.716 55.02 447.716 56V63Z" fill="#21272A"/>
<path d="M516 110H139V420H516V110Z" fill="url(#paint0_linear_1343_739)"/>
<path d="M478 109L478 420" stroke="#525252" stroke-dasharray="3 3"/>
<path d="M174 109L174 420" stroke="#525252" stroke-dasharray="3 3"/>
<path d="M516 303H140" stroke="#525252" stroke-dasharray="3 3"/>
<rect x="139.508" y="109.5" width="375.992" height="310.264" stroke="#525252"/>
<path d="M165.737 435.968V437H160.169V435.848L162.869 433.388C163.685 432.656 164.225 431.888 164.225 431.096V430.952C164.225 430.088 163.697 429.524 162.761 429.524C161.777 429.524 161.321 430.112 161.105 430.88L160.073 430.484C160.409 429.464 161.189 428.48 162.833 428.48C164.501 428.48 165.473 429.5 165.473 430.928C165.473 432.26 164.645 433.16 163.541 434.12L161.465 435.968H165.737ZM172.536 428.624V429.644H168.828L168.6 432.728H168.696C169.08 432.128 169.512 431.732 170.424 431.732C171.864 431.732 172.932 432.704 172.932 434.336C172.932 435.98 171.864 437.144 170.04 437.144C168.6 437.144 167.856 436.424 167.352 435.68L168.216 435.02C168.636 435.68 169.056 436.136 170.04 436.136C171.12 436.136 171.708 435.536 171.708 434.48V434.36C171.708 433.304 171.12 432.704 170.04 432.704C169.296 432.704 168.912 433.04 168.588 433.388L167.616 433.256L167.916 428.624H172.536Z" fill="#21272A"/>
<path d="M236.889 435.968V437H231.321V435.848L234.021 433.388C234.837 432.656 235.377 431.888 235.377 431.096V430.952C235.377 430.088 234.849 429.524 233.913 429.524C232.929 429.524 232.473 430.112 232.257 430.88L231.225 430.484C231.561 429.464 232.341 428.48 233.985 428.48C235.653 428.48 236.625 429.5 236.625 430.928C236.625 432.26 235.797 433.16 234.693 434.12L232.617 435.968H236.889ZM243.688 428.624V429.644H239.98L239.752 432.728H239.848C240.232 432.128 240.664 431.732 241.576 431.732C243.016 431.732 244.084 432.704 244.084 434.336C244.084 435.98 243.016 437.144 241.192 437.144C239.752 437.144 239.008 436.424 238.504 435.68L239.368 435.02C239.788 435.68 240.208 436.136 241.192 436.136C242.272 436.136 242.86 435.536 242.86 434.48V434.36C242.86 433.304 242.272 432.704 241.192 432.704C240.448 432.704 240.064 433.04 239.74 433.388L238.768 433.256L239.068 428.624H243.688ZM248.448 437.144C246.408 437.144 245.496 435.548 245.496 432.812C245.496 430.076 246.408 428.48 248.448 428.48C250.488 428.48 251.4 430.076 251.4 432.812C251.4 435.548 250.488 437.144 248.448 437.144ZM248.448 436.124C249.696 436.124 250.176 435.068 250.176 433.52V432.104C250.176 430.556 249.696 429.5 248.448 429.5C247.2 429.5 246.72 430.556 246.72 432.104V433.52C246.72 435.068 247.2 436.124 248.448 436.124Z" fill="#21272A"/>
<path d="M312.041 435.968V437H306.473V435.848L309.173 433.388C309.989 432.656 310.529 431.888 310.529 431.096V430.952C310.529 430.088 310.001 429.524 309.065 429.524C308.081 429.524 307.625 430.112 307.409 430.88L306.377 430.484C306.713 429.464 307.493 428.48 309.137 428.48C310.805 428.48 311.777 429.5 311.777 430.928C311.777 432.26 310.949 433.16 309.845 434.12L307.769 435.968H312.041ZM318.841 428.624V429.644H315.133L314.905 432.728H315.001C315.385 432.128 315.817 431.732 316.729 431.732C318.169 431.732 319.237 432.704 319.237 434.336C319.237 435.98 318.169 437.144 316.345 437.144C314.905 437.144 314.161 436.424 313.657 435.68L314.521 435.02C314.941 435.68 315.361 436.136 316.345 436.136C317.425 436.136 318.013 435.536 318.013 434.48V434.36C318.013 433.304 317.425 432.704 316.345 432.704C315.601 432.704 315.217 433.04 314.893 433.388L313.921 433.256L314.221 428.624H318.841ZM323.6 437.144C321.56 437.144 320.648 435.548 320.648 432.812C320.648 430.076 321.56 428.48 323.6 428.48C325.64 428.48 326.552 430.076 326.552 432.812C326.552 435.548 325.64 437.144 323.6 437.144ZM323.6 436.124C324.848 436.124 325.328 435.068 325.328 433.52V432.104C325.328 430.556 324.848 429.5 323.6 429.5C322.352 429.5 321.872 430.556 321.872 432.104V433.52C321.872 435.068 322.352 436.124 323.6 436.124ZM330.795 437.144C328.755 437.144 327.843 435.548 327.843 432.812C327.843 430.076 328.755 428.48 330.795 428.48C332.835 428.48 333.747 430.076 333.747 432.812C333.747 435.548 332.835 437.144 330.795 437.144ZM330.795 436.124C332.043 436.124 332.523 435.068 332.523 433.52V432.104C332.523 430.556 332.043 429.5 330.795 429.5C329.547 429.5 329.067 430.556 329.067 432.104V433.52C329.067 435.068 329.547 436.124 330.795 436.124Z" fill="#21272A"/>
<path d="M391.694 435.968V437H386.126V435.848L388.826 433.388C389.642 432.656 390.182 431.888 390.182 431.096V430.952C390.182 430.088 389.654 429.524 388.718 429.524C387.734 429.524 387.278 430.112 387.062 430.88L386.03 430.484C386.366 429.464 387.146 428.48 388.79 428.48C390.458 428.48 391.43 429.5 391.43 430.928C391.43 432.26 390.602 433.16 389.498 434.12L387.422 435.968H391.694ZM398.493 428.624V429.644H394.785L394.557 432.728H394.653C395.037 432.128 395.469 431.732 396.381 431.732C397.821 431.732 398.889 432.704 398.889 434.336C398.889 435.98 397.821 437.144 395.997 437.144C394.557 437.144 393.813 436.424 393.309 435.68L394.173 435.02C394.593 435.68 395.013 436.136 395.997 436.136C397.077 436.136 397.665 435.536 397.665 434.48V434.36C397.665 433.304 397.077 432.704 395.997 432.704C395.253 432.704 394.869 433.04 394.545 433.388L393.573 433.256L393.873 428.624H398.493ZM403.252 437.144C401.212 437.144 400.3 435.548 400.3 432.812C400.3 430.076 401.212 428.48 403.252 428.48C405.292 428.48 406.204 430.076 406.204 432.812C406.204 435.548 405.292 437.144 403.252 437.144ZM403.252 436.124C404.5 436.124 404.98 435.068 404.98 433.52V432.104C404.98 430.556 404.5 429.5 403.252 429.5C402.004 429.5 401.524 430.556 401.524 432.104V433.52C401.524 435.068 402.004 436.124 403.252 436.124ZM410.448 437.144C408.408 437.144 407.496 435.548 407.496 432.812C407.496 430.076 408.408 428.48 410.448 428.48C412.488 428.48 413.4 430.076 413.4 432.812C413.4 435.548 412.488 437.144 410.448 437.144ZM410.448 436.124C411.696 436.124 412.176 435.068 412.176 433.52V432.104C412.176 430.556 411.696 429.5 410.448 429.5C409.2 429.5 408.72 430.556 408.72 432.104V433.52C408.72 435.068 409.2 436.124 410.448 436.124ZM417.643 437.144C415.603 437.144 414.691 435.548 414.691 432.812C414.691 430.076 415.603 428.48 417.643 428.48C419.683 428.48 420.595 430.076 420.595 432.812C420.595 435.548 419.683 437.144 417.643 437.144ZM417.643 436.124C418.891 436.124 419.371 435.068 419.371 433.52V432.104C419.371 430.556 418.891 429.5 417.643 429.5C416.395 429.5 415.915 430.556 415.915 432.104V433.52C415.915 435.068 416.395 436.124 417.643 436.124Z" fill="#21272A"/>
<path d="M478.846 435.968V437H473.278V435.848L475.978 433.388C476.794 432.656 477.334 431.888 477.334 431.096V430.952C477.334 430.088 476.806 429.524 475.87 429.524C474.886 429.524 474.43 430.112 474.214 430.88L473.182 430.484C473.518 429.464 474.298 428.48 475.942 428.48C477.61 428.48 478.582 429.5 478.582 430.928C478.582 432.26 477.754 433.16 476.65 434.12L474.574 435.968H478.846ZM485.645 428.624V429.644H481.937L481.709 432.728H481.805C482.189 432.128 482.621 431.732 483.533 431.732C484.973 431.732 486.041 432.704 486.041 434.336C486.041 435.98 484.973 437.144 483.149 437.144C481.709 437.144 480.965 436.424 480.461 435.68L481.325 435.02C481.745 435.68 482.165 436.136 483.149 436.136C484.229 436.136 484.817 435.536 484.817 434.48V434.36C484.817 433.304 484.229 432.704 483.149 432.704C482.405 432.704 482.021 433.04 481.697 433.388L480.725 433.256L481.025 428.624H485.645ZM490.405 437.144C488.365 437.144 487.453 435.548 487.453 432.812C487.453 430.076 488.365 428.48 490.405 428.48C492.445 428.48 493.357 430.076 493.357 432.812C493.357 435.548 492.445 437.144 490.405 437.144ZM490.405 436.124C491.653 436.124 492.133 435.068 492.133 433.52V432.104C492.133 430.556 491.653 429.5 490.405 429.5C489.157 429.5 488.677 430.556 488.677 432.104V433.52C488.677 435.068 489.157 436.124 490.405 436.124ZM497.6 437.144C495.56 437.144 494.648 435.548 494.648 432.812C494.648 430.076 495.56 428.48 497.6 428.48C499.64 428.48 500.552 430.076 500.552 432.812C500.552 435.548 499.64 437.144 497.6 437.144ZM497.6 436.124C498.848 436.124 499.328 435.068 499.328 433.52V432.104C499.328 430.556 498.848 429.5 497.6 429.5C496.352 429.5 495.872 430.556 495.872 432.104V433.52C495.872 435.068 496.352 436.124 497.6 436.124ZM504.795 437.144C502.755 437.144 501.843 435.548 501.843 432.812C501.843 430.076 502.755 428.48 504.795 428.48C506.835 428.48 507.747 430.076 507.747 432.812C507.747 435.548 506.835 437.144 504.795 437.144ZM504.795 436.124C506.043 436.124 506.523 435.068 506.523 433.52V432.104C506.523 430.556 506.043 429.5 504.795 429.5C503.547 429.5 503.067 430.556 503.067 432.104V433.52C503.067 435.068 503.547 436.124 504.795 436.124ZM511.991 437.144C509.951 437.144 509.039 435.548 509.039 432.812C509.039 430.076 509.951 428.48 511.991 428.48C514.031 428.48 514.943 430.076 514.943 432.812C514.943 435.548 514.031 437.144 511.991 437.144ZM511.991 436.124C513.239 436.124 513.719 435.068 513.719 433.52V432.104C513.719 430.556 513.239 429.5 511.991 429.5C510.743 429.5 510.263 430.556 510.263 432.104V433.52C510.263 435.068 510.743 436.124 511.991 436.124Z" fill="#21272A"/>
<path d="M281.692 469L278.122 463.036L276.946 460.866H276.904V469H275.756V459.228H277.114L280.684 465.192L281.86 467.362H281.902V459.228H283.05V469H281.692ZM290.155 469V467.824H290.099C289.819 468.51 289.273 469.168 288.069 469.168C286.585 469.168 285.633 468.16 285.633 466.41V461.776H286.753V466.214C286.753 467.502 287.327 468.16 288.405 468.16C289.287 468.16 290.155 467.726 290.155 466.774V461.776H291.275V469H290.155ZM294.94 469H293.82V461.776H294.94V462.952H294.996C295.318 462.21 295.822 461.608 296.942 461.608C297.894 461.608 298.762 462.042 299.154 463.078H299.182C299.448 462.294 300.148 461.608 301.38 461.608C302.85 461.608 303.732 462.616 303.732 464.366V469H302.612V464.562C302.612 463.288 302.122 462.616 301.03 462.616C300.148 462.616 299.336 463.064 299.336 463.988V469H298.216V464.562C298.216 463.274 297.726 462.616 296.662 462.616C295.78 462.616 294.94 463.064 294.94 463.988V469ZM306.203 469V458.64H307.323V462.952H307.379C307.757 462.042 308.499 461.608 309.493 461.608C311.299 461.608 312.433 463.078 312.433 465.388C312.433 467.698 311.299 469.168 309.493 469.168C308.499 469.168 307.813 468.72 307.379 467.824H307.323V469H306.203ZM309.185 468.16C310.445 468.16 311.229 467.292 311.229 466.004V464.772C311.229 463.484 310.445 462.616 309.185 462.616C308.163 462.616 307.323 463.204 307.323 464.002V466.69C307.323 467.628 308.163 468.16 309.185 468.16ZM317.2 469.168C315.24 469.168 313.952 467.684 313.952 465.388C313.952 463.092 315.24 461.608 317.2 461.608C319.132 461.608 320.322 463.092 320.322 465.136V465.668H315.128V466.004C315.128 467.25 315.926 468.188 317.27 468.188C318.18 468.188 318.88 467.74 319.258 466.942L320.056 467.516C319.594 468.496 318.558 469.168 317.2 469.168ZM317.2 462.546C315.982 462.546 315.128 463.47 315.128 464.73V464.828H319.118V464.674C319.118 463.4 318.348 462.546 317.2 462.546ZM323.447 469H322.327V461.776H323.447V463.106H323.517C323.769 462.42 324.427 461.776 325.603 461.776H326.037V462.896H325.379C324.175 462.896 323.447 463.414 323.447 464.1V469ZM333.827 469.168C331.895 469.168 330.565 467.684 330.565 465.388C330.565 463.092 331.895 461.608 333.827 461.608C335.759 461.608 337.089 463.092 337.089 465.388C337.089 467.684 335.759 469.168 333.827 469.168ZM333.827 468.174C335.031 468.174 335.885 467.432 335.885 465.906V464.87C335.885 463.344 335.031 462.602 333.827 462.602C332.623 462.602 331.769 463.344 331.769 464.87V465.906C331.769 467.432 332.623 468.174 333.827 468.174ZM339.4 469V462.756H338.224V461.776H339.4V460.32C339.4 459.326 339.918 458.64 340.982 458.64H342.074V459.62H340.52V461.776H342.074V462.756H340.52V469H339.4ZM349.346 469.168C348.016 469.168 347.134 468.608 346.49 467.754L347.288 467.11C347.848 467.81 348.52 468.216 349.43 468.216C350.382 468.216 350.942 467.782 350.942 467.04C350.942 466.48 350.634 466.046 349.682 465.906L349.108 465.822C347.778 465.626 346.784 465.08 346.784 463.736C346.784 462.308 347.89 461.608 349.36 461.608C350.522 461.608 351.292 462.042 351.88 462.77L351.138 463.442C350.816 462.994 350.2 462.56 349.276 462.56C348.352 462.56 347.862 462.994 347.862 463.68C347.862 464.38 348.352 464.66 349.248 464.8L349.808 464.884C351.404 465.122 352.02 465.822 352.02 466.914C352.02 468.314 350.998 469.168 349.346 469.168ZM354.158 469V458.64H355.278V462.952H355.334C355.684 462.14 356.3 461.608 357.378 461.608C358.862 461.608 359.8 462.616 359.8 464.366V469H358.68V464.562C358.68 463.274 358.12 462.616 357.042 462.616C356.146 462.616 355.278 463.064 355.278 463.988V469H354.158ZM365.005 469.168C363.073 469.168 361.743 467.684 361.743 465.388C361.743 463.092 363.073 461.608 365.005 461.608C366.937 461.608 368.267 463.092 368.267 465.388C368.267 467.684 366.937 469.168 365.005 469.168ZM365.005 468.174C366.209 468.174 367.063 467.432 367.063 465.906V464.87C367.063 463.344 366.209 462.602 365.005 462.602C363.801 462.602 362.947 463.344 362.947 464.87V465.906C362.947 467.432 363.801 468.174 365.005 468.174ZM373.265 469H371.865C371.095 469 370.675 468.51 370.675 467.81V462.756H369.485V461.776H370.157C370.633 461.776 370.787 461.608 370.787 461.118V459.774H371.795V461.776H373.377V462.756H371.795V468.02H373.265V469ZM377.508 469.168C376.178 469.168 375.296 468.608 374.652 467.754L375.45 467.11C376.01 467.81 376.682 468.216 377.592 468.216C378.544 468.216 379.104 467.782 379.104 467.04C379.104 466.48 378.796 466.046 377.844 465.906L377.27 465.822C375.94 465.626 374.946 465.08 374.946 463.736C374.946 462.308 376.052 461.608 377.522 461.608C378.684 461.608 379.454 462.042 380.042 462.77L379.3 463.442C378.978 462.994 378.362 462.56 377.438 462.56C376.514 462.56 376.024 462.994 376.024 463.68C376.024 464.38 376.514 464.66 377.41 464.8L377.97 464.884C379.566 465.122 380.182 465.822 380.182 466.914C380.182 468.314 379.16 469.168 377.508 469.168Z" fill="#21272A"/>
<path d="M448.652 102H443.144V101.112H445.484V94.368H445.4L443.288 96.336L442.7 95.7L444.92 93.624H446.492V101.112H448.652V102ZM453.043 102.144C451.039 102.144 450.163 100.548 450.163 97.812C450.163 95.076 451.039 93.48 453.043 93.48C455.047 93.48 455.923 95.076 455.923 97.812C455.923 100.548 455.047 102.144 453.043 102.144ZM453.043 101.268C454.351 101.268 454.867 100.116 454.867 98.496V97.128C454.867 95.508 454.351 94.356 453.043 94.356C451.735 94.356 451.219 95.508 451.219 97.128V98.496C451.219 100.116 451.735 101.268 453.043 101.268ZM460.758 98.868H457.626V97.836H460.758V98.868ZM466.848 104.4V100.992H466.8C466.428 101.76 465.84 102.144 464.988 102.144C463.44 102.144 462.468 100.884 462.468 98.904C462.468 96.924 463.44 95.664 464.988 95.664C465.84 95.664 466.476 96.036 466.8 96.816H466.848V95.808H467.808V104.4H466.848ZM465.252 101.28C466.128 101.28 466.848 100.824 466.848 100.02V97.716C466.848 97.032 466.128 96.528 465.252 96.528C464.172 96.528 463.5 97.272 463.5 98.376V99.432C463.5 100.536 464.172 101.28 465.252 101.28ZM473.825 102V100.992H473.777C473.537 101.58 473.069 102.144 472.037 102.144C470.765 102.144 469.949 101.28 469.949 99.78V95.808H470.909V99.612C470.909 100.716 471.401 101.28 472.325 101.28C473.081 101.28 473.825 100.908 473.825 100.092V95.808H474.785V102H473.825ZM476.99 102V93.12H477.95V96.816H477.998C478.322 96.036 478.958 95.664 479.81 95.664C481.358 95.664 482.33 96.924 482.33 98.904C482.33 100.884 481.358 102.144 479.81 102.144C478.958 102.144 478.37 101.76 477.998 100.992H477.95V102H476.99ZM479.546 101.28C480.626 101.28 481.298 100.536 481.298 99.432V98.376C481.298 97.272 480.626 96.528 479.546 96.528C478.67 96.528 477.95 97.032 477.95 97.716V100.02C477.95 100.824 478.67 101.28 479.546 101.28ZM484.591 94.356C484.183 94.356 484.003 94.14 484.003 93.816V93.66C484.003 93.336 484.183 93.12 484.591 93.12C484.999 93.12 485.179 93.336 485.179 93.66V93.816C485.179 94.14 484.999 94.356 484.591 94.356ZM484.111 102V95.808H485.071V102H484.111ZM489.839 102H488.639C487.979 102 487.619 101.58 487.619 100.98V96.648H486.599V95.808H487.175C487.583 95.808 487.715 95.664 487.715 95.244V94.092H488.579V95.808H489.935V96.648H488.579V101.16H489.839V102ZM499.71 103.128V103.968H498.474C497.814 103.968 497.466 103.548 497.466 102.984V102.132C495.534 101.952 494.31 100.44 494.31 97.812C494.31 95.004 495.702 93.48 497.862 93.48C500.022 93.48 501.414 95.004 501.414 97.812C501.414 100.368 500.262 101.856 498.426 102.108V103.128H499.71ZM497.862 101.244C499.314 101.244 500.334 100.164 500.334 98.508V97.116C500.334 95.46 499.314 94.38 497.862 94.38C496.41 94.38 495.39 95.46 495.39 97.116V98.508C495.39 100.164 496.41 101.244 497.862 101.244ZM504.394 102H503.386V93.624H508.378V94.512H504.394V97.32H508.03V98.208H504.394V102ZM515.733 94.512H513.069V102H512.061V94.512H509.397V93.624H515.733V94.512Z" fill="#21272A"/>
<path d="M76.168 337.186C76.168 339.65 74.432 341.12 71.17 341.12C67.908 341.12 66.06 339.65 66.06 337.186C66.06 335.562 66.844 334.442 68.202 333.826L68.776 334.778C67.768 335.17 67.11 335.982 67.11 337.186C67.11 338.866 68.44 339.86 70.442 339.86L71.898 339.86C73.9 339.86 75.118 338.866 75.118 337.186C75.118 335.94 74.418 335.086 73.354 334.694L73.942 333.756C75.314 334.372 76.168 335.562 76.168 337.186ZM76.168 329.157C76.168 331.089 74.684 332.419 72.388 332.419C70.092 332.419 68.608 331.089 68.608 329.157C68.608 327.225 70.092 325.895 72.388 325.895C74.684 325.895 76.168 327.225 76.168 329.157ZM75.174 329.157C75.174 327.953 74.432 327.099 72.906 327.099L71.87 327.099C70.344 327.099 69.602 327.953 69.602 329.157C69.602 330.361 70.344 331.215 71.87 331.215L72.906 331.215C74.432 331.215 75.174 330.361 75.174 329.157ZM76 322.773L76 323.893L68.776 323.893L68.776 322.773L69.952 322.773L69.952 322.717C69.14 322.367 68.608 321.751 68.608 320.673C68.608 319.189 69.616 318.251 71.366 318.251L76 318.251L76 319.371L71.562 319.371C70.274 319.371 69.616 319.931 69.616 321.009C69.616 321.905 70.064 322.773 70.988 322.773L76 322.773ZM76 315.384L69.756 315.384L69.756 316.56L68.776 316.56L68.776 315.384L67.32 315.384C66.326 315.384 65.64 314.866 65.64 313.802L65.64 312.71L66.62 312.71L66.62 314.264L68.776 314.264L68.776 310.218L76 310.218L76 311.338L69.756 311.338L69.756 314.264L76 314.264L76 315.384ZM67.082 310.778C67.082 311.254 66.83 311.464 66.452 311.464L66.27 311.464C65.892 311.464 65.64 311.254 65.64 310.778C65.64 310.302 65.892 310.092 66.27 310.092L66.452 310.092C66.83 310.092 67.082 310.302 67.082 310.778ZM76 303.053L74.824 303.053L74.824 303.109C75.72 303.543 76.168 304.229 76.168 305.223C76.168 307.029 74.698 308.163 72.388 308.163C70.078 308.163 68.608 307.029 68.608 305.223C68.608 304.229 69.042 303.487 69.952 303.109L69.952 303.053L65.64 303.053L65.64 301.933L76 301.933L76 303.053ZM75.16 304.915C75.16 303.893 74.628 303.053 73.69 303.053L71.002 303.053C70.204 303.053 69.616 303.893 69.616 304.915C69.616 306.175 70.484 306.959 71.772 306.959L73.004 306.959C74.292 306.959 75.16 306.175 75.16 304.915ZM76.168 296.675C76.168 298.635 74.684 299.923 72.388 299.923C70.092 299.923 68.608 298.635 68.608 296.675C68.608 294.743 70.092 293.553 72.136 293.553L72.668 293.553L72.668 298.747L73.004 298.747C74.25 298.747 75.188 297.949 75.188 296.605C75.188 295.695 74.74 294.995 73.942 294.617L74.516 293.819C75.496 294.281 76.168 295.317 76.168 296.675ZM69.546 296.675C69.546 297.893 70.47 298.747 71.73 298.747L71.828 298.747L71.828 294.757L71.674 294.757C70.4 294.757 69.546 295.527 69.546 296.675ZM76 290.428L76 291.548L68.776 291.548L68.776 290.428L69.952 290.428L69.952 290.372C69.14 290.022 68.608 289.406 68.608 288.328C68.608 286.844 69.616 285.906 71.366 285.906L76 285.906L76 287.026L71.562 287.026C70.274 287.026 69.616 287.586 69.616 288.664C69.616 289.56 70.064 290.428 70.988 290.428L76 290.428ZM76.168 280.743C76.168 282.773 74.698 283.963 72.388 283.963C70.078 283.963 68.608 282.773 68.608 280.743C68.608 279.315 69.308 278.461 70.302 278.041L70.778 278.979C70.036 279.245 69.602 279.861 69.602 280.743C69.602 282.073 70.512 282.759 71.772 282.759L73.004 282.759C74.264 282.759 75.174 282.073 75.174 280.743C75.174 279.833 74.74 279.175 73.914 278.783L74.46 277.971C75.496 278.433 76.168 279.371 76.168 280.743ZM76.168 273.596C76.168 275.556 74.684 276.844 72.388 276.844C70.092 276.844 68.608 275.556 68.608 273.596C68.608 271.664 70.092 270.474 72.136 270.474L72.668 270.474L72.668 275.668L73.004 275.668C74.25 275.668 75.188 274.87 75.188 273.526C75.188 272.616 74.74 271.916 73.942 271.538L74.516 270.74C75.496 271.202 76.168 272.238 76.168 273.596ZM69.546 273.596C69.546 274.814 70.47 275.668 71.73 275.668L71.828 275.668L71.828 271.678L71.674 271.678C70.4 271.678 69.546 272.448 69.546 273.596ZM76 262.816L76 263.81C76 264.58 75.51 265 74.838 265L65.64 265L65.64 263.88L75.02 263.88L75.02 262.816L76 262.816ZM76.168 258.309C76.168 260.269 74.684 261.557 72.388 261.557C70.092 261.557 68.608 260.269 68.608 258.309C68.608 256.377 70.092 255.187 72.136 255.187L72.668 255.187L72.668 260.381L73.004 260.381C74.25 260.381 75.188 259.583 75.188 258.239C75.188 257.329 74.74 256.629 73.942 256.251L74.516 255.453C75.496 255.915 76.168 256.951 76.168 258.309ZM69.546 258.309C69.546 259.527 70.47 260.381 71.73 260.381L71.828 260.381L71.828 256.391L71.674 256.391C70.4 256.391 69.546 257.161 69.546 258.309ZM76 250.393L76 251.695L68.776 254.229L68.776 253.109L72.36 251.849L74.824 251.065L74.824 250.995L72.36 250.211L68.776 248.923L68.776 247.845L76 250.393ZM76.168 243.634C76.168 245.594 74.684 246.882 72.388 246.882C70.092 246.882 68.608 245.594 68.608 243.634C68.608 241.702 70.092 240.512 72.136 240.512L72.668 240.512L72.668 245.706L73.004 245.706C74.25 245.706 75.188 244.908 75.188 243.564C75.188 242.654 74.74 241.954 73.942 241.576L74.516 240.778C75.496 241.24 76.168 242.276 76.168 243.634ZM69.546 243.634C69.546 244.852 70.47 245.706 71.73 245.706L71.828 245.706L71.828 241.716L71.674 241.716C70.4 241.716 69.546 242.486 69.546 243.634ZM76 236.322L76 237.316C76 238.086 75.51 238.506 74.838 238.506L65.64 238.506L65.64 237.386L75.02 237.386L75.02 236.322L76 236.322Z" fill="#21272A"/>
<path d="M89.8899 140.72C89.8899 143.18 88.2579 145.1 86.9019 146H85.3779C87.2139 144.668 88.2459 143.564 88.6779 141.68L88.6179 141.656C88.2339 142.328 87.6579 142.868 86.6259 142.868C85.1979 142.868 84.1539 141.872 84.1539 140.288C84.1539 138.632 85.2939 137.48 87.0099 137.48C88.7979 137.48 89.8899 138.716 89.8899 140.72ZM87.0219 141.92C88.0659 141.92 88.6899 141.32 88.6899 140.24V140.132C88.6899 139.052 88.0659 138.452 87.0219 138.452C85.9779 138.452 85.3539 139.052 85.3539 140.132V140.24C85.3539 141.32 85.9779 141.92 87.0219 141.92ZM97.0852 140.72C97.0852 143.18 95.4532 145.1 94.0972 146H92.5732C94.4092 144.668 95.4412 143.564 95.8732 141.68L95.8132 141.656C95.4292 142.328 94.8532 142.868 93.8212 142.868C92.3932 142.868 91.3492 141.872 91.3492 140.288C91.3492 138.632 92.4892 137.48 94.2052 137.48C95.9932 137.48 97.0852 138.716 97.0852 140.72ZM94.2172 141.92C95.2612 141.92 95.8852 141.32 95.8852 140.24V140.132C95.8852 139.052 95.2612 138.452 94.2172 138.452C93.1732 138.452 92.5492 139.052 92.5492 140.132V140.24C92.5492 141.32 93.1732 141.92 94.2172 141.92ZM99.4805 146.144C98.9285 146.144 98.6885 145.832 98.6885 145.4V145.22C98.6885 144.788 98.9285 144.476 99.4805 144.476C100.033 144.476 100.273 144.788 100.273 145.22V145.4C100.273 145.832 100.033 146.144 99.4805 146.144ZM107.62 140.72C107.62 143.18 105.988 145.1 104.632 146H103.108C104.944 144.668 105.976 143.564 106.408 141.68L106.348 141.656C105.964 142.328 105.388 142.868 104.356 142.868C102.928 142.868 101.884 141.872 101.884 140.288C101.884 138.632 103.024 137.48 104.74 137.48C106.528 137.48 107.62 138.716 107.62 140.72ZM104.752 141.92C105.796 141.92 106.42 141.32 106.42 140.24V140.132C106.42 139.052 105.796 138.452 104.752 138.452C103.708 138.452 103.084 139.052 103.084 140.132V140.24C103.084 141.32 103.708 141.92 104.752 141.92ZM114.816 140.72C114.816 143.18 113.184 145.1 111.828 146H110.304C112.14 144.668 113.172 143.564 113.604 141.68L113.544 141.656C113.16 142.328 112.584 142.868 111.552 142.868C110.124 142.868 109.08 141.872 109.08 140.288C109.08 138.632 110.22 137.48 111.936 137.48C113.724 137.48 114.816 138.716 114.816 140.72ZM111.948 141.92C112.992 141.92 113.616 141.32 113.616 140.24V140.132C113.616 139.052 112.992 138.452 111.948 138.452C110.904 138.452 110.28 139.052 110.28 140.132V140.24C110.28 141.32 110.904 141.92 111.948 141.92ZM122.011 140.72C122.011 143.18 120.379 145.1 119.023 146H117.499C119.335 144.668 120.367 143.564 120.799 141.68L120.739 141.656C120.355 142.328 119.779 142.868 118.747 142.868C117.319 142.868 116.275 141.872 116.275 140.288C116.275 138.632 117.415 137.48 119.131 137.48C120.919 137.48 122.011 138.716 122.011 140.72ZM119.143 141.92C120.187 141.92 120.811 141.32 120.811 140.24V140.132C120.811 139.052 120.187 138.452 119.143 138.452C118.099 138.452 117.475 139.052 117.475 140.132V140.24C117.475 141.32 118.099 141.92 119.143 141.92ZM125.99 146H124.934L130.742 137.624H131.798L125.99 146ZM125.438 142.232C124.19 142.232 123.482 141.392 123.482 139.856C123.482 138.32 124.19 137.48 125.438 137.48C126.686 137.48 127.394 138.32 127.394 139.856C127.394 141.392 126.686 142.232 125.438 142.232ZM125.438 141.524C126.086 141.524 126.398 141.08 126.398 140.204V139.508C126.398 138.632 126.086 138.188 125.438 138.188C124.79 138.188 124.478 138.632 124.478 139.508V140.204C124.478 141.08 124.79 141.524 125.438 141.524ZM131.294 146.144C130.046 146.144 129.338 145.304 129.338 143.768C129.338 142.232 130.046 141.392 131.294 141.392C132.542 141.392 133.25 142.232 133.25 143.768C133.25 145.304 132.542 146.144 131.294 146.144ZM131.294 145.436C131.942 145.436 132.254 144.992 132.254 144.116V143.42C132.254 142.544 131.942 142.1 131.294 142.1C130.646 142.1 130.334 142.544 130.334 143.42V144.116C130.334 144.992 130.646 145.436 131.294 145.436Z" fill="#21272A"/>
<path d="M97.0852 194.92C97.0852 197.38 95.4532 199.3 94.0972 200.2H92.5732C94.4092 198.868 95.4412 197.764 95.8732 195.88L95.8132 195.856C95.4292 196.528 94.8532 197.068 93.8212 197.068C92.3932 197.068 91.3492 196.072 91.3492 194.488C91.3492 192.832 92.4892 191.68 94.2052 191.68C95.9932 191.68 97.0852 192.916 97.0852 194.92ZM94.2172 196.12C95.2612 196.12 95.8852 195.52 95.8852 194.44V194.332C95.8852 193.252 95.2612 192.652 94.2172 192.652C93.1732 192.652 92.5492 193.252 92.5492 194.332V194.44C92.5492 195.52 93.1732 196.12 94.2172 196.12ZM104.281 194.92C104.281 197.38 102.649 199.3 101.293 200.2H99.7685C101.605 198.868 102.637 197.764 103.069 195.88L103.009 195.856C102.625 196.528 102.049 197.068 101.017 197.068C99.5885 197.068 98.5445 196.072 98.5445 194.488C98.5445 192.832 99.6845 191.68 101.401 191.68C103.189 191.68 104.281 192.916 104.281 194.92ZM101.413 196.12C102.457 196.12 103.081 195.52 103.081 194.44V194.332C103.081 193.252 102.457 192.652 101.413 192.652C100.369 192.652 99.7445 193.252 99.7445 194.332V194.44C99.7445 195.52 100.369 196.12 101.413 196.12ZM106.676 200.344C106.124 200.344 105.884 200.032 105.884 199.6V199.42C105.884 198.988 106.124 198.676 106.676 198.676C107.228 198.676 107.468 198.988 107.468 199.42V199.6C107.468 200.032 107.228 200.344 106.676 200.344ZM114.816 194.92C114.816 197.38 113.184 199.3 111.828 200.2H110.304C112.14 198.868 113.172 197.764 113.604 195.88L113.544 195.856C113.16 196.528 112.584 197.068 111.552 197.068C110.124 197.068 109.08 196.072 109.08 194.488C109.08 192.832 110.22 191.68 111.936 191.68C113.724 191.68 114.816 192.916 114.816 194.92ZM111.948 196.12C112.992 196.12 113.616 195.52 113.616 194.44V194.332C113.616 193.252 112.992 192.652 111.948 192.652C110.904 192.652 110.28 193.252 110.28 194.332V194.44C110.28 195.52 110.904 196.12 111.948 196.12ZM122.011 194.92C122.011 197.38 120.379 199.3 119.023 200.2H117.499C119.335 198.868 120.367 197.764 120.799 195.88L120.739 195.856C120.355 196.528 119.779 197.068 118.747 197.068C117.319 197.068 116.275 196.072 116.275 194.488C116.275 192.832 117.415 191.68 119.131 191.68C120.919 191.68 122.011 192.916 122.011 194.92ZM119.143 196.12C120.187 196.12 120.811 195.52 120.811 194.44V194.332C120.811 193.252 120.187 192.652 119.143 192.652C118.099 192.652 117.475 193.252 117.475 194.332V194.44C117.475 195.52 118.099 196.12 119.143 196.12ZM125.99 200.2H124.934L130.742 191.824H131.798L125.99 200.2ZM125.438 196.432C124.19 196.432 123.482 195.592 123.482 194.056C123.482 192.52 124.19 191.68 125.438 191.68C126.686 191.68 127.394 192.52 127.394 194.056C127.394 195.592 126.686 196.432 125.438 196.432ZM125.438 195.724C126.086 195.724 126.398 195.28 126.398 194.404V193.708C126.398 192.832 126.086 192.388 125.438 192.388C124.79 192.388 124.478 192.832 124.478 193.708V194.404C124.478 195.28 124.79 195.724 125.438 195.724ZM131.294 200.344C130.046 200.344 129.338 199.504 129.338 197.968C129.338 196.432 130.046 195.592 131.294 195.592C132.542 195.592 133.25 196.432 133.25 197.968C133.25 199.504 132.542 200.344 131.294 200.344ZM131.294 199.636C131.942 199.636 132.254 199.192 132.254 198.316V197.62C132.254 196.744 131.942 196.3 131.294 196.3C130.646 196.3 130.334 196.744 130.334 197.62V198.316C130.334 199.192 130.646 199.636 131.294 199.636Z" fill="#21272A"/>
<path d="M104.281 248.12C104.281 250.58 102.649 252.5 101.293 253.4H99.7685C101.605 252.068 102.637 250.964 103.069 249.08L103.009 249.056C102.625 249.728 102.049 250.268 101.017 250.268C99.5885 250.268 98.5445 249.272 98.5445 247.688C98.5445 246.032 99.6845 244.88 101.401 244.88C103.189 244.88 104.281 246.116 104.281 248.12ZM101.413 249.32C102.457 249.32 103.081 248.72 103.081 247.64V247.532C103.081 246.452 102.457 245.852 101.413 245.852C100.369 245.852 99.7445 246.452 99.7445 247.532V247.64C99.7445 248.72 100.369 249.32 101.413 249.32ZM111.476 248.12C111.476 250.58 109.844 252.5 108.488 253.4H106.964C108.8 252.068 109.832 250.964 110.264 249.08L110.204 249.056C109.82 249.728 109.244 250.268 108.212 250.268C106.784 250.268 105.74 249.272 105.74 247.688C105.74 246.032 106.88 244.88 108.596 244.88C110.384 244.88 111.476 246.116 111.476 248.12ZM108.608 249.32C109.652 249.32 110.276 248.72 110.276 247.64V247.532C110.276 246.452 109.652 245.852 108.608 245.852C107.564 245.852 106.94 246.452 106.94 247.532V247.64C106.94 248.72 107.564 249.32 108.608 249.32ZM113.871 253.544C113.319 253.544 113.079 253.232 113.079 252.8V252.62C113.079 252.188 113.319 251.876 113.871 251.876C114.423 251.876 114.663 252.188 114.663 252.62V252.8C114.663 253.232 114.423 253.544 113.871 253.544ZM122.011 248.12C122.011 250.58 120.379 252.5 119.023 253.4H117.499C119.335 252.068 120.367 250.964 120.799 249.08L120.739 249.056C120.355 249.728 119.779 250.268 118.747 250.268C117.319 250.268 116.275 249.272 116.275 247.688C116.275 246.032 117.415 244.88 119.131 244.88C120.919 244.88 122.011 246.116 122.011 248.12ZM119.143 249.32C120.187 249.32 120.811 248.72 120.811 247.64V247.532C120.811 246.452 120.187 245.852 119.143 245.852C118.099 245.852 117.475 246.452 117.475 247.532V247.64C117.475 248.72 118.099 249.32 119.143 249.32ZM125.99 253.4H124.934L130.742 245.024H131.798L125.99 253.4ZM125.438 249.632C124.19 249.632 123.482 248.792 123.482 247.256C123.482 245.72 124.19 244.88 125.438 244.88C126.686 244.88 127.394 245.72 127.394 247.256C127.394 248.792 126.686 249.632 125.438 249.632ZM125.438 248.924C126.086 248.924 126.398 248.48 126.398 247.604V246.908C126.398 246.032 126.086 245.588 125.438 245.588C124.79 245.588 124.478 246.032 124.478 246.908V247.604C124.478 248.48 124.79 248.924 125.438 248.924ZM131.294 253.544C130.046 253.544 129.338 252.704 129.338 251.168C129.338 249.632 130.046 248.792 131.294 248.792C132.542 248.792 133.25 249.632 133.25 251.168C133.25 252.704 132.542 253.544 131.294 253.544ZM131.294 252.836C131.942 252.836 132.254 252.392 132.254 251.516V250.82C132.254 249.944 131.942 249.5 131.294 249.5C130.646 249.5 130.334 249.944 130.334 250.82V251.516C130.334 252.392 130.646 252.836 131.294 252.836Z" fill="#21272A"/>
<path d="M114.816 302.32C114.816 304.78 113.184 306.7 111.828 307.6H110.304C112.14 306.268 113.172 305.164 113.604 303.28L113.544 303.256C113.16 303.928 112.584 304.468 111.552 304.468C110.124 304.468 109.08 303.472 109.08 301.888C109.08 300.232 110.22 299.08 111.936 299.08C113.724 299.08 114.816 300.316 114.816 302.32ZM111.948 303.52C112.992 303.52 113.616 302.92 113.616 301.84V301.732C113.616 300.652 112.992 300.052 111.948 300.052C110.904 300.052 110.28 300.652 110.28 301.732V301.84C110.28 302.92 110.904 303.52 111.948 303.52ZM122.011 302.32C122.011 304.78 120.379 306.7 119.023 307.6H117.499C119.335 306.268 120.367 305.164 120.799 303.28L120.739 303.256C120.355 303.928 119.779 304.468 118.747 304.468C117.319 304.468 116.275 303.472 116.275 301.888C116.275 300.232 117.415 299.08 119.131 299.08C120.919 299.08 122.011 300.316 122.011 302.32ZM119.143 303.52C120.187 303.52 120.811 302.92 120.811 301.84V301.732C120.811 300.652 120.187 300.052 119.143 300.052C118.099 300.052 117.475 300.652 117.475 301.732V301.84C117.475 302.92 118.099 303.52 119.143 303.52ZM125.99 307.6H124.934L130.742 299.224H131.798L125.99 307.6ZM125.438 303.832C124.19 303.832 123.482 302.992 123.482 301.456C123.482 299.92 124.19 299.08 125.438 299.08C126.686 299.08 127.394 299.92 127.394 301.456C127.394 302.992 126.686 303.832 125.438 303.832ZM125.438 303.124C126.086 303.124 126.398 302.68 126.398 301.804V301.108C126.398 300.232 126.086 299.788 125.438 299.788C124.79 299.788 124.478 300.232 124.478 301.108V301.804C124.478 302.68 124.79 303.124 125.438 303.124ZM131.294 307.744C130.046 307.744 129.338 306.904 129.338 305.368C129.338 303.832 130.046 302.992 131.294 302.992C132.542 302.992 133.25 303.832 133.25 305.368C133.25 306.904 132.542 307.744 131.294 307.744ZM131.294 307.036C131.942 307.036 132.254 306.592 132.254 305.716V305.02C132.254 304.144 131.942 303.7 131.294 303.7C130.646 303.7 130.334 304.144 130.334 305.02V305.716C130.334 306.592 130.646 307.036 131.294 307.036Z" fill="#21272A"/>
<path d="M114.816 356.52C114.816 358.98 113.184 360.9 111.828 361.8H110.304C112.14 360.468 113.172 359.364 113.604 357.48L113.544 357.456C113.16 358.128 112.584 358.668 111.552 358.668C110.124 358.668 109.08 357.672 109.08 356.088C109.08 354.432 110.22 353.28 111.936 353.28C113.724 353.28 114.816 354.516 114.816 356.52ZM111.948 357.72C112.992 357.72 113.616 357.12 113.616 356.04V355.932C113.616 354.852 112.992 354.252 111.948 354.252C110.904 354.252 110.28 354.852 110.28 355.932V356.04C110.28 357.12 110.904 357.72 111.948 357.72ZM119.143 361.944C117.103 361.944 116.191 360.348 116.191 357.612C116.191 354.876 117.103 353.28 119.143 353.28C121.183 353.28 122.095 354.876 122.095 357.612C122.095 360.348 121.183 361.944 119.143 361.944ZM119.143 360.924C120.391 360.924 120.871 359.868 120.871 358.32V356.904C120.871 355.356 120.391 354.3 119.143 354.3C117.895 354.3 117.415 355.356 117.415 356.904V358.32C117.415 359.868 117.895 360.924 119.143 360.924ZM125.99 361.8H124.934L130.742 353.424H131.798L125.99 361.8ZM125.438 358.032C124.19 358.032 123.482 357.192 123.482 355.656C123.482 354.12 124.19 353.28 125.438 353.28C126.686 353.28 127.394 354.12 127.394 355.656C127.394 357.192 126.686 358.032 125.438 358.032ZM125.438 357.324C126.086 357.324 126.398 356.88 126.398 356.004V355.308C126.398 354.432 126.086 353.988 125.438 353.988C124.79 353.988 124.478 354.432 124.478 355.308V356.004C124.478 356.88 124.79 357.324 125.438 357.324ZM131.294 361.944C130.046 361.944 129.338 361.104 129.338 359.568C129.338 358.032 130.046 357.192 131.294 357.192C132.542 357.192 133.25 358.032 133.25 359.568C133.25 361.104 132.542 361.944 131.294 361.944ZM131.294 361.236C131.942 361.236 132.254 360.792 132.254 359.916V359.22C132.254 358.344 131.942 357.9 131.294 357.9C130.646 357.9 130.334 358.344 130.334 359.22V359.916C130.334 360.792 130.646 361.236 131.294 361.236Z" fill="#21272A"/>
<path d="M119.143 416.144C117.103 416.144 116.191 414.548 116.191 411.812C116.191 409.076 117.103 407.48 119.143 407.48C121.183 407.48 122.095 409.076 122.095 411.812C122.095 414.548 121.183 416.144 119.143 416.144ZM119.143 415.124C120.391 415.124 120.871 414.068 120.871 412.52V411.104C120.871 409.556 120.391 408.5 119.143 408.5C117.895 408.5 117.415 409.556 117.415 411.104V412.52C117.415 414.068 117.895 415.124 119.143 415.124ZM125.99 416H124.934L130.742 407.624H131.798L125.99 416ZM125.438 412.232C124.19 412.232 123.482 411.392 123.482 409.856C123.482 408.32 124.19 407.48 125.438 407.48C126.686 407.48 127.394 408.32 127.394 409.856C127.394 411.392 126.686 412.232 125.438 412.232ZM125.438 411.524C126.086 411.524 126.398 411.08 126.398 410.204V409.508C126.398 408.632 126.086 408.188 125.438 408.188C124.79 408.188 124.478 408.632 124.478 409.508V410.204C124.478 411.08 124.79 411.524 125.438 411.524ZM131.294 416.144C130.046 416.144 129.338 415.304 129.338 413.768C129.338 412.232 130.046 411.392 131.294 411.392C132.542 411.392 133.25 412.232 133.25 413.768C133.25 415.304 132.542 416.144 131.294 416.144ZM131.294 415.436C131.942 415.436 132.254 414.992 132.254 414.116V413.42C132.254 412.544 131.942 412.1 131.294 412.1C130.646 412.1 130.334 412.544 130.334 413.42V414.116C130.334 414.992 130.646 415.436 131.294 415.436Z" fill="#21272A"/>
<rect x="147" y="141" width="1" height="8" transform="rotate(90 147 141)" fill="#525252"/>
<rect x="144" y="143.324" width="0.774648" height="5" transform="rotate(90 144 143.324)" fill="#525252"/>
<rect x="144" y="145.647" width="0.774648" height="5" transform="rotate(90 144 145.647)" fill="#525252"/>
<rect x="144" y="148.746" width="0.774648" height="5" transform="rotate(90 144 148.746)" fill="#525252"/>
<rect x="144" y="153.395" width="0.774648" height="5" transform="rotate(90 144 153.395)" fill="#525252"/>
<rect x="144" y="158.817" width="0.774648" height="5" transform="rotate(90 144 158.817)" fill="#525252"/>
<rect x="144" y="170.437" width="0.774648" height="5" transform="rotate(90 144 170.437)" fill="#525252"/>
<rect x="144" y="182.831" width="0.774648" height="5" transform="rotate(90 144 182.831)" fill="#525252"/>
<rect x="144" y="195.226" width="0.774648" height="5" transform="rotate(90 144 195.226)" fill="#525252"/>
<rect x="144" y="112.437" width="0.774648" height="5" transform="rotate(90 144 112.437)" fill="#525252"/>
<rect x="144" y="124.831" width="0.774648" height="5" transform="rotate(90 144 124.831)" fill="#525252"/>
<rect x="144" y="119" width="0.774648" height="5" transform="rotate(90 144 119)" fill="#525252"/>
<rect x="144" y="137.226" width="0.774648" height="5" transform="rotate(90 144 137.226)" fill="#525252"/>
<rect x="147" y="195" width="1" height="8" transform="rotate(90 147 195)" fill="#525252"/>
<rect x="144" y="197.324" width="0.774648" height="5" transform="rotate(90 144 197.324)" fill="#525252"/>
<rect x="144" y="199.647" width="0.774648" height="5" transform="rotate(90 144 199.647)" fill="#525252"/>
<rect x="144" y="202.746" width="0.774648" height="5" transform="rotate(90 144 202.746)" fill="#525252"/>
<rect x="144" y="207.395" width="0.774648" height="5" transform="rotate(90 144 207.395)" fill="#525252"/>
<rect x="144" y="212.817" width="0.774648" height="5" transform="rotate(90 144 212.817)" fill="#525252"/>
<rect x="144" y="224.437" width="0.774648" height="5" transform="rotate(90 144 224.437)" fill="#525252"/>
<rect x="144" y="236.831" width="0.774648" height="5" transform="rotate(90 144 236.831)" fill="#525252"/>
<rect x="144" y="249.226" width="0.774648" height="5" transform="rotate(90 144 249.226)" fill="#525252"/>
<rect x="147" y="249" width="1" height="8" transform="rotate(90 147 249)" fill="#525252"/>
<rect x="144" y="251.324" width="0.774648" height="5" transform="rotate(90 144 251.324)" fill="#525252"/>
<rect x="144" y="253.647" width="0.774648" height="5" transform="rotate(90 144 253.647)" fill="#525252"/>
<rect x="144" y="256.746" width="0.774648" height="5" transform="rotate(90 144 256.746)" fill="#525252"/>
<rect x="144" y="261.395" width="0.774648" height="5" transform="rotate(90 144 261.395)" fill="#525252"/>
<rect x="144" y="266.817" width="0.774648" height="5" transform="rotate(90 144 266.817)" fill="#525252"/>
<rect x="144" y="278.437" width="0.774648" height="5" transform="rotate(90 144 278.437)" fill="#525252"/>
<rect x="144" y="290.831" width="0.774648" height="5" transform="rotate(90 144 290.831)" fill="#525252"/>
<rect x="144" y="303.226" width="0.774648" height="5" transform="rotate(90 144 303.226)" fill="#525252"/>
<rect x="147" y="303" width="1" height="8" transform="rotate(90 147 303)" fill="#525252"/>
<rect x="144" y="305.324" width="0.774648" height="5" transform="rotate(90 144 305.324)" fill="#525252"/>
<rect x="144" y="307.647" width="0.774648" height="5" transform="rotate(90 144 307.647)" fill="#525252"/>
<rect x="144" y="310.746" width="0.774648" height="5" transform="rotate(90 144 310.746)" fill="#525252"/>
<rect x="144" y="315.395" width="0.774648" height="5" transform="rotate(90 144 315.395)" fill="#525252"/>
<rect x="144" y="320.817" width="0.774648" height="5" transform="rotate(90 144 320.817)" fill="#525252"/>
<rect x="144" y="332.437" width="0.774648" height="5" transform="rotate(90 144 332.437)" fill="#525252"/>
<rect x="144" y="344.831" width="0.774648" height="5" transform="rotate(90 144 344.831)" fill="#525252"/>
<rect x="144" y="357.226" width="0.774648" height="5" transform="rotate(90 144 357.226)" fill="#525252"/>
<rect x="148" y="357" width="1" height="8" transform="rotate(90 148 357)" fill="#525252"/>
<rect x="145" y="359.324" width="0.774648" height="5" transform="rotate(90 145 359.324)" fill="#525252"/>
<rect x="145" y="361.647" width="0.774648" height="5" transform="rotate(90 145 361.647)" fill="#525252"/>
<rect x="145" y="364.746" width="0.774648" height="5" transform="rotate(90 145 364.746)" fill="#525252"/>
<rect x="145" y="369.395" width="0.774648" height="5" transform="rotate(90 145 369.395)" fill="#525252"/>
<rect x="145" y="374.817" width="0.774648" height="5" transform="rotate(90 145 374.817)" fill="#525252"/>
<rect x="145" y="386.437" width="0.774648" height="5" transform="rotate(90 145 386.437)" fill="#525252"/>
<rect x="145" y="398.831" width="0.774648" height="5" transform="rotate(90 145 398.831)" fill="#525252"/>
<rect x="145" y="411.226" width="0.774648" height="5" transform="rotate(90 145 411.226)" fill="#525252"/>
<rect width="1.14544" height="8" transform="matrix(-1 8.74228e-08 8.74228e-08 1 495 412)" fill="#525252"/>
<rect width="0.887314" height="5" transform="matrix(-1 9.2974e-08 8.24971e-08 1 492.336 415)" fill="#525252"/>
<rect width="0.887314" height="5" transform="matrix(-1 9.2974e-08 8.24971e-08 1 489.676 415)" fill="#525252"/>
<rect width="0.887314" height="5" transform="matrix(-1 9.2974e-08 8.24971e-08 1 486.129 415)" fill="#525252"/>
<rect width="0.887314" height="5" transform="matrix(-1 9.2974e-08 8.24971e-08 1 480.805 415)" fill="#525252"/>
<rect width="0.887314" height="5" transform="matrix(-1 9.2974e-08 8.24971e-08 1 474.594 415)" fill="#525252"/>
<rect width="0.887314" height="5" transform="matrix(-1 9.2974e-08 8.24971e-08 1 461.281 415)" fill="#525252"/>
<rect width="0.887314" height="5" transform="matrix(-1 9.2974e-08 8.24971e-08 1 447.086 415)" fill="#525252"/>
<rect width="0.887314" height="5" transform="matrix(-1 9.2974e-08 8.24971e-08 1 432.887 415)" fill="#525252"/>
<rect width="0.887314" height="5" transform="matrix(-1 9.2974e-08 8.24971e-08 1 512.887 415)" fill="#525252"/>
<rect width="1.14544" height="8" transform="matrix(-1 8.74228e-08 8.74228e-08 1 403 412)" fill="#525252"/>
<rect width="0.887314" height="5" transform="matrix(-1 9.2974e-08 8.24971e-08 1 400.336 415)" fill="#525252"/>
<rect width="0.887314" height="5" transform="matrix(-1 9.2974e-08 8.24971e-08 1 397.676 415)" fill="#525252"/>
<rect width="0.887314" height="5" transform="matrix(-1 9.2974e-08 8.24971e-08 1 394.129 415)" fill="#525252"/>
<rect width="0.887314" height="5" transform="matrix(-1 9.2974e-08 8.24971e-08 1 388.805 415)" fill="#525252"/>
<rect width="0.887314" height="5" transform="matrix(-1 9.2974e-08 8.24971e-08 1 382.594 415)" fill="#525252"/>
<rect width="0.887314" height="5" transform="matrix(-1 9.2974e-08 8.24971e-08 1 369.281 415)" fill="#525252"/>
<rect width="0.887314" height="5" transform="matrix(-1 9.2974e-08 8.24971e-08 1 355.086 415)" fill="#525252"/>
<rect width="0.887314" height="5" transform="matrix(-1 9.2974e-08 8.24971e-08 1 340.887 415)" fill="#525252"/>
<rect width="1.14544" height="8" transform="matrix(-1 8.74228e-08 8.74228e-08 1 320 412)" fill="#525252"/>
<rect width="0.887314" height="5" transform="matrix(-1 9.2974e-08 8.24971e-08 1 317.336 415)" fill="#525252"/>
<rect width="0.887314" height="5" transform="matrix(-1 9.2974e-08 8.24971e-08 1 314.676 415)" fill="#525252"/>
<rect width="0.887314" height="5" transform="matrix(-1 9.2974e-08 8.24971e-08 1 311.129 415)" fill="#525252"/>
<rect width="0.887314" height="5" transform="matrix(-1 9.2974e-08 8.24971e-08 1 305.805 415)" fill="#525252"/>
<rect width="0.887314" height="5" transform="matrix(-1 9.2974e-08 8.24971e-08 1 299.594 415)" fill="#525252"/>
<rect width="0.887314" height="5" transform="matrix(-1 9.2974e-08 8.24971e-08 1 286.281 415)" fill="#525252"/>
<rect width="0.887314" height="5" transform="matrix(-1 9.2974e-08 8.24971e-08 1 272.086 415)" fill="#525252"/>
<rect width="0.887314" height="5" transform="matrix(-1 9.2974e-08 8.24971e-08 1 257.887 415)" fill="#525252"/>
<rect width="1.14544" height="8" transform="matrix(-1 8.74228e-08 8.74228e-08 1 241 412)" fill="#525252"/>
<rect width="0.887314" height="5" transform="matrix(-1 9.2974e-08 8.24971e-08 1 238.336 415)" fill="#525252"/>
<rect width="0.887314" height="5" transform="matrix(-1 9.2974e-08 8.24971e-08 1 235.676 415)" fill="#525252"/>
<rect width="0.887314" height="5" transform="matrix(-1 9.2974e-08 8.24971e-08 1 232.129 415)" fill="#525252"/>
<rect width="0.887314" height="5" transform="matrix(-1 9.2974e-08 8.24971e-08 1 226.805 415)" fill="#525252"/>
<rect width="0.887314" height="5" transform="matrix(-1 9.2974e-08 8.24971e-08 1 220.594 415)" fill="#525252"/>
<rect width="0.887314" height="5" transform="matrix(-1 9.2974e-08 8.24971e-08 1 207.281 415)" fill="#525252"/>
<rect width="0.887314" height="5" transform="matrix(-1 9.2974e-08 8.24971e-08 1 193.086 415)" fill="#525252"/>
<rect width="1.14544" height="8" transform="matrix(-1 8.74228e-08 8.74228e-08 1 167 412)" fill="#525252"/>
<rect width="0.887314" height="5" transform="matrix(-1 9.2974e-08 8.24971e-08 1 164.336 415)" fill="#525252"/>
<rect width="0.887314" height="5" transform="matrix(-1 9.2974e-08 8.24971e-08 1 161.676 415)" fill="#525252"/>
<rect width="0.887314" height="5" transform="matrix(-1 9.2974e-08 8.24971e-08 1 158.129 415)" fill="#525252"/>
<rect width="0.887314" height="5" transform="matrix(-1 9.2974e-08 8.24971e-08 1 152.805 415)" fill="#525252"/>
<circle cx="162" cy="408" r="4" fill="#697077"/>
<circle cx="235" cy="404" r="4" fill="#697077"/>
<circle cx="272" cy="402" r="4" fill="#697077"/>
<circle cx="311" cy="395" r="4" fill="#697077"/>
<circle cx="354" cy="388" r="4" fill="#697077"/>
<circle cx="383" cy="377" r="4" fill="#697077"/>
<circle cx="369" cy="383" r="4" fill="#697077"/>
<circle cx="399" cy="368" r="4" fill="#697077"/>
<circle cx="429" cy="354" r="4" fill="#697077"/>
<circle cx="455" cy="334" r="4" fill="#697077"/>
<circle cx="478" cy="304" r="8" fill="#697077"/>
<path d="M162 409.5L235 404L271.5 401.5L312 395L354.5 388.5L369.5 384L382.5 377L400 368.5L429 353.5L455 334L478.5 304" stroke="#697077"/>
<circle cx="157" cy="333" r="3.5" fill="#8A3FFC" stroke="#8A3FFC"/>
<circle cx="190" cy="276" r="3.5" fill="#8A3FFC" stroke="#8A3FFC"/>
<circle cx="174" cy="303" r="7.5" fill="#8A3FFC" stroke="#8A3FFC"/>
<path d="M157 333L173.5 304L190.5 276L199 256L209 233L217 203L226 189L241 131.5" stroke="#8A3FFC"/>
<circle cx="199" cy="256" r="3.5" fill="#8A3FFC" stroke="#8A3FFC"/>
<circle cx="209" cy="233" r="3.5" fill="#8A3FFC" stroke="#8A3FFC"/>
<circle cx="217" cy="203" r="3.5" fill="#8A3FFC" stroke="#8A3FFC"/>
<circle cx="226" cy="190" r="3.5" fill="#8A3FFC" stroke="#8A3FFC"/>
<circle cx="241" cy="132" r="3.5" fill="#8A3FFC" stroke="#8A3FFC"/>
<rect x="255.5" y="174.5" width="197" height="109" fill="#F4F4F4" stroke="#C6C6C6"/>
<path d="M283.24 198.832V200.656H278.216L277.96 204.4H278.072C278.552 203.44 279.096 202.784 280.44 202.784C282.36 202.784 283.848 204.096 283.848 206.32C283.848 208.56 282.36 210.192 279.72 210.192C277.656 210.192 276.552 209.2 275.88 208.112L277.416 206.928C277.912 207.792 278.52 208.464 279.736 208.464C280.984 208.464 281.656 207.712 281.656 206.496V206.368C281.656 205.216 280.952 204.512 279.784 204.512C278.872 204.512 278.312 204.944 277.976 205.344L276.248 205.104L276.664 198.832H283.24ZM286.978 207.536C287.842 207.536 288.258 208.032 288.258 208.72V209.008C288.258 210.176 287.602 211.504 286.626 212.288H285.17C285.89 211.584 286.386 210.96 286.642 210.144C285.986 210.032 285.698 209.584 285.698 209.008V208.72C285.698 208.032 286.098 207.536 286.978 207.536ZM294.271 210H292.063L295.951 200.544H292.095V202.592H290.303V198.832H298.047V200.64L294.271 210ZM303.753 210.192C300.905 210.192 299.593 208.064 299.593 204.416C299.593 200.768 300.905 198.64 303.753 198.64C306.601 198.64 307.913 200.768 307.913 204.416C307.913 208.064 306.601 210.192 303.753 210.192ZM303.753 208.416C305.177 208.416 305.673 207.264 305.673 205.424V203.408C305.673 201.568 305.177 200.416 303.753 200.416C302.329 200.416 301.833 201.568 301.833 203.408V205.424C301.833 207.264 302.329 208.416 303.753 208.416ZM313.347 210.192C310.499 210.192 309.187 208.064 309.187 204.416C309.187 200.768 310.499 198.64 313.347 198.64C316.195 198.64 317.507 200.768 317.507 204.416C317.507 208.064 316.195 210.192 313.347 210.192ZM313.347 208.416C314.771 208.416 315.267 207.264 315.267 205.424V203.408C315.267 201.568 314.771 200.416 313.347 200.416C311.923 200.416 311.427 201.568 311.427 203.408V205.424C311.427 207.264 311.923 208.416 313.347 208.416ZM318.445 210L321.293 205.76L318.509 201.648H320.845L322.573 204.416H322.637L324.349 201.648H326.525L323.693 205.792L326.541 210H324.205L322.445 207.12H322.381L320.621 210H318.445ZM332.833 200.432C331.985 200.432 331.633 200 331.633 199.408V199.088C331.633 198.496 331.985 198.064 332.833 198.064C333.665 198.064 334.033 198.496 334.033 199.088V199.408C334.033 200 333.665 200.432 332.833 200.432ZM331.809 210V201.648H333.857V210H331.809ZM338.279 210H336.231V201.648H338.279V203.04H338.359C338.679 202.16 339.351 201.456 340.599 201.456C341.735 201.456 342.615 202.016 343.015 203.136H343.047C343.351 202.208 344.279 201.456 345.607 201.456C347.239 201.456 348.167 202.64 348.167 204.72V210H346.119V204.928C346.119 203.728 345.687 203.136 344.775 203.136C343.975 203.136 343.223 203.584 343.223 204.48V210H341.175V204.928C341.175 203.728 340.743 203.136 339.831 203.136C339.047 203.136 338.279 203.584 338.279 204.48V210ZM350.434 213.2V201.648H352.482V203.024H352.546C352.85 202.064 353.746 201.456 354.85 201.456C356.962 201.456 358.13 203.024 358.13 205.808C358.13 208.608 356.962 210.192 354.85 210.192C353.746 210.192 352.866 209.552 352.546 208.608H352.482V213.2H350.434ZM354.194 208.496C355.25 208.496 355.986 207.728 355.986 206.544V205.104C355.986 203.92 355.25 203.136 354.194 203.136C353.218 203.136 352.482 203.664 352.482 204.48V207.136C352.482 208 353.218 208.496 354.194 208.496ZM362.076 210H360.028V201.648H362.076V203.376H362.156C362.364 202.496 363.036 201.648 364.364 201.648H364.812V203.584H364.172C362.796 203.584 362.076 203.968 362.076 204.88V210ZM369.543 210.192C367.159 210.192 365.671 208.496 365.671 205.808C365.671 203.136 367.159 201.456 369.543 201.456C371.943 201.456 373.431 203.136 373.431 205.808C373.431 208.496 371.943 210.192 369.543 210.192ZM369.543 208.544C370.615 208.544 371.287 207.856 371.287 206.592V205.04C371.287 203.792 370.615 203.104 369.543 203.104C368.487 203.104 367.815 203.792 367.815 205.04V206.592C367.815 207.856 368.487 208.544 369.543 208.544ZM379.346 210H376.914L374.13 201.648H376.146L377.314 205.248L378.13 208.224H378.242L379.058 205.248L380.194 201.648H382.146L379.346 210ZM386.763 210.192C384.299 210.192 382.827 208.48 382.827 205.808C382.827 203.168 384.251 201.456 386.699 201.456C389.307 201.456 390.507 203.376 390.507 205.664V206.336H384.955V206.544C384.955 207.744 385.643 208.56 386.987 208.56C387.995 208.56 388.603 208.08 389.115 207.424L390.219 208.656C389.531 209.6 388.315 210.192 386.763 210.192ZM386.731 202.992C385.659 202.992 384.955 203.792 384.955 204.944V205.072H388.379V204.928C388.379 203.776 387.787 202.992 386.731 202.992ZM394.357 210H392.309V201.648H394.357V203.04H394.437C394.757 202.16 395.429 201.456 396.677 201.456C397.813 201.456 398.693 202.016 399.093 203.136H399.125C399.429 202.208 400.357 201.456 401.685 201.456C403.317 201.456 404.245 202.64 404.245 204.72V210H402.197V204.928C402.197 203.728 401.765 203.136 400.853 203.136C400.053 203.136 399.301 203.584 399.301 204.48V210H397.253V204.928C397.253 203.728 396.821 203.136 395.909 203.136C395.125 203.136 394.357 203.584 394.357 204.48V210ZM409.888 210.192C407.424 210.192 405.952 208.48 405.952 205.808C405.952 203.168 407.376 201.456 409.824 201.456C412.432 201.456 413.632 203.376 413.632 205.664V206.336H408.08V206.544C408.08 207.744 408.768 208.56 410.112 208.56C411.12 208.56 411.728 208.08 412.24 207.424L413.344 208.656C412.656 209.6 411.44 210.192 409.888 210.192ZM409.856 202.992C408.784 202.992 408.08 203.792 408.08 204.944V205.072H411.504V204.928C411.504 203.776 410.912 202.992 409.856 202.992ZM417.482 210H415.434V201.648H417.482V203.04H417.562C417.898 202.144 418.602 201.456 419.898 201.456C421.61 201.456 422.57 202.64 422.57 204.72V210H420.522V204.928C420.522 203.744 420.122 203.136 419.146 203.136C418.298 203.136 417.482 203.584 417.482 204.48V210ZM427.448 210C426.04 210 425.288 209.232 425.288 207.872V203.28H424.056V201.648H424.696C425.304 201.648 425.496 201.36 425.496 200.784V199.36H427.336V201.648H429.048V203.28H427.336V208.368H428.92V210H427.448Z" fill="black"/>
<path d="M298.618 237H297.26V227.228H303.21V228.432H298.618V231.456H302.762V232.66H298.618V237ZM305.708 228.236C305.162 228.236 304.924 227.942 304.924 227.522V227.326C304.924 226.906 305.162 226.612 305.708 226.612C306.254 226.612 306.492 226.906 306.492 227.326V227.522C306.492 227.942 306.254 228.236 305.708 228.236ZM305.05 237V229.748H306.352V237H305.05ZM309.948 237H308.646V229.748H309.948V231.134H310.018C310.256 230.42 310.9 229.748 312.062 229.748H312.496V231.05H311.852C310.648 231.05 309.948 231.526 309.948 232.24V237ZM316.6 237.168C314.584 237.168 313.31 235.67 313.31 233.374C313.31 231.078 314.584 229.58 316.6 229.58C318.63 229.58 319.778 231.12 319.778 233.15V233.696H314.668V233.99C314.668 235.194 315.41 236.062 316.712 236.062C317.622 236.062 318.28 235.628 318.672 234.886L319.512 235.6C319.008 236.538 317.958 237.168 316.6 237.168ZM316.6 230.63C315.466 230.63 314.668 231.498 314.668 232.688V232.786H318.392V232.646C318.392 231.442 317.692 230.63 316.6 230.63ZM328.669 237.168C326.135 237.168 324.497 235.404 324.497 232.114C324.497 228.824 326.135 227.06 328.669 227.06C331.203 227.06 332.841 228.824 332.841 232.114C332.841 235.404 331.203 237.168 328.669 237.168ZM328.669 235.95C330.293 235.95 331.385 234.774 331.385 232.912V231.316C331.385 229.454 330.293 228.278 328.669 228.278C327.045 228.278 325.953 229.454 325.953 231.316V232.912C325.953 234.774 327.045 235.95 328.669 235.95ZM334.773 239.8V229.748H336.075V230.938H336.131C336.467 230.042 337.223 229.58 338.217 229.58C340.037 229.58 341.129 231.022 341.129 233.374C341.129 235.726 340.037 237.168 338.217 237.168C337.223 237.168 336.467 236.706 336.131 235.81H336.075V239.8H334.773ZM337.839 236.034C339.001 236.034 339.743 235.208 339.743 233.99V232.758C339.743 231.54 339.001 230.714 337.839 230.714C336.859 230.714 336.075 231.274 336.075 232.044V234.704C336.075 235.474 336.859 236.034 337.839 236.034ZM348.982 237H348.24C347.442 237 347.064 236.496 346.966 235.796H346.896C346.602 236.692 345.832 237.168 344.796 237.168C343.284 237.168 342.402 236.328 342.402 234.998C342.402 233.598 343.424 232.842 345.496 232.842H346.868V232.184C346.868 231.218 346.35 230.672 345.258 230.672C344.404 230.672 343.858 231.092 343.48 231.708L342.696 230.994C343.13 230.21 343.984 229.58 345.328 229.58C347.134 229.58 348.17 230.504 348.17 232.072V235.894H348.982V237ZM345.09 236.118C346.112 236.118 346.868 235.6 346.868 234.872V233.752H345.482C344.292 233.752 343.76 234.116 343.76 234.788V235.068C343.76 235.74 344.278 236.118 345.09 236.118ZM352.875 237H351.895C350.999 237 350.537 236.468 350.537 235.67V226.64H351.839V235.894H352.875V237ZM355.371 237.168C354.727 237.168 354.447 236.804 354.447 236.3V236.09C354.447 235.586 354.727 235.222 355.371 235.222C356.015 235.222 356.295 235.586 356.295 236.09V236.3C356.295 236.804 356.015 237.168 355.371 237.168ZM355.371 231.526C354.727 231.526 354.447 231.162 354.447 230.658V230.448C354.447 229.944 354.727 229.58 355.371 229.58C356.015 229.58 356.295 229.944 356.295 230.448V230.658C356.295 231.162 356.015 231.526 355.371 231.526ZM363.396 231.316H364.432C365.692 231.316 366.322 230.672 366.322 229.804V229.706C366.322 228.74 365.65 228.236 364.656 228.236C363.69 228.236 363.06 228.698 362.64 229.44L361.688 228.67C362.234 227.844 363.102 227.06 364.684 227.06C366.434 227.06 367.75 227.97 367.75 229.552C367.75 230.812 366.91 231.568 365.874 231.82V231.876C366.952 232.086 367.932 232.87 367.932 234.312C367.932 236.006 366.574 237.168 364.544 237.168C362.794 237.168 361.898 236.328 361.282 235.46L362.304 234.69C362.78 235.46 363.368 235.992 364.53 235.992C365.818 235.992 366.518 235.376 366.518 234.298V234.172C366.518 233.094 365.818 232.478 364.53 232.478H363.396V231.316ZM373.358 237.168C370.978 237.168 369.914 235.306 369.914 232.114C369.914 228.922 370.978 227.06 373.358 227.06C375.738 227.06 376.802 228.922 376.802 232.114C376.802 235.306 375.738 237.168 373.358 237.168ZM373.358 235.978C374.814 235.978 375.374 234.746 375.374 232.94V231.288C375.374 229.482 374.814 228.25 373.358 228.25C371.902 228.25 371.342 229.482 371.342 231.288V232.94C371.342 234.746 371.902 235.978 373.358 235.978ZM384.235 237.168C382.891 237.168 382.009 236.622 381.337 235.768L382.219 235.012C382.765 235.698 383.437 236.09 384.319 236.09C385.243 236.09 385.747 235.684 385.747 235.012C385.747 234.48 385.467 234.102 384.585 233.976L383.969 233.878C382.583 233.682 381.617 233.108 381.617 231.764C381.617 230.336 382.723 229.58 384.249 229.58C385.481 229.58 386.251 230.014 386.867 230.742L386.041 231.526C385.691 231.064 385.075 230.658 384.207 230.658C383.325 230.658 382.877 231.064 382.877 231.68C382.877 232.324 383.297 232.59 384.137 232.716L384.753 232.814C386.349 233.052 387.007 233.752 387.007 234.872C387.007 236.286 385.943 237.168 384.235 237.168ZM388.873 237V226.64H390.175V230.938H390.245C390.581 230.14 391.197 229.58 392.289 229.58C393.773 229.58 394.683 230.602 394.683 232.366V237H393.381V232.562C393.381 231.344 392.877 230.714 391.855 230.714C391.001 230.714 390.175 231.148 390.175 232.03V237H388.873ZM399.684 237.168C397.71 237.168 396.38 235.684 396.38 233.374C396.38 231.064 397.71 229.58 399.684 229.58C401.658 229.58 402.988 231.064 402.988 233.374C402.988 235.684 401.658 237.168 399.684 237.168ZM399.684 236.048C400.818 236.048 401.602 235.334 401.602 233.92V232.828C401.602 231.414 400.818 230.7 399.684 230.7C398.55 230.7 397.766 231.414 397.766 232.828V233.92C397.766 235.334 398.55 236.048 399.684 236.048ZM407.896 237H406.524C405.628 237 405.152 236.468 405.152 235.628V230.854H403.99V229.748H404.634C405.124 229.748 405.278 229.566 405.278 229.076V227.746H406.454V229.748H408.008V230.854H406.454V235.894H407.896V237ZM411.976 237.168C410.632 237.168 409.75 236.622 409.078 235.768L409.96 235.012C410.506 235.698 411.178 236.09 412.06 236.09C412.984 236.09 413.488 235.684 413.488 235.012C413.488 234.48 413.208 234.102 412.326 233.976L411.71 233.878C410.324 233.682 409.358 233.108 409.358 231.764C409.358 230.336 410.464 229.58 411.99 229.58C413.222 229.58 413.992 230.014 414.608 230.742L413.782 231.526C413.432 231.064 412.816 230.658 411.948 230.658C411.066 230.658 410.618 231.064 410.618 231.68C410.618 232.324 411.038 232.59 411.878 232.716L412.494 232.814C414.09 233.052 414.748 233.752 414.748 234.872C414.748 236.286 413.684 237.168 411.976 237.168Z" fill="black"/>
<circle cx="283" cy="232" r="7.5" fill="#8A3FFC" stroke="#8A3FFC"/>
<path d="M297.26 262V252.228H300.606C303.084 252.228 304.68 253.852 304.68 257.114C304.68 260.376 303.084 262 300.606 262H297.26ZM298.618 260.796H300.606C302.16 260.796 303.224 259.76 303.224 257.898V256.33C303.224 254.468 302.16 253.432 300.606 253.432H298.618V260.796ZM309.381 262.168C307.365 262.168 306.091 260.67 306.091 258.374C306.091 256.078 307.365 254.58 309.381 254.58C311.411 254.58 312.559 256.12 312.559 258.15V258.696H307.449V258.99C307.449 260.194 308.191 261.062 309.493 261.062C310.403 261.062 311.061 260.628 311.453 259.886L312.293 260.6C311.789 261.538 310.739 262.168 309.381 262.168ZM309.381 255.63C308.247 255.63 307.449 256.498 307.449 257.688V257.786H311.173V257.646C311.173 256.442 310.473 255.63 309.381 255.63ZM314.726 262V255.854H313.564V254.748H314.726V253.404C314.726 252.34 315.286 251.64 316.42 251.64H317.554V252.746H316.028V254.748H317.554V255.854H316.028V262H314.726ZM324.988 262H324.246C323.448 262 323.07 261.496 322.972 260.796H322.902C322.608 261.692 321.838 262.168 320.802 262.168C319.29 262.168 318.408 261.328 318.408 259.998C318.408 258.598 319.43 257.842 321.502 257.842H322.874V257.184C322.874 256.218 322.356 255.672 321.264 255.672C320.41 255.672 319.864 256.092 319.486 256.708L318.702 255.994C319.136 255.21 319.99 254.58 321.334 254.58C323.14 254.58 324.176 255.504 324.176 257.072V260.894H324.988V262ZM321.096 261.118C322.118 261.118 322.874 260.6 322.874 259.872V258.752H321.488C320.298 258.752 319.766 259.116 319.766 259.788V260.068C319.766 260.74 320.284 261.118 321.096 261.118ZM330.981 262V260.81H330.911C330.645 261.51 330.085 262.168 328.881 262.168C327.397 262.168 326.473 261.146 326.473 259.382V254.748H327.775V259.186C327.775 260.404 328.293 261.034 329.315 261.034C330.141 261.034 330.981 260.614 330.981 259.704V254.748H332.283V262H330.981ZM336.92 262H335.94C335.044 262 334.582 261.468 334.582 260.67V251.64H335.884V260.894H336.92V262ZM341.56 262H340.188C339.292 262 338.816 261.468 338.816 260.628V255.854H337.654V254.748H338.298C338.788 254.748 338.942 254.566 338.942 254.076V252.746H340.118V254.748H341.672V255.854H340.118V260.894H341.56V262ZM344.352 262.168C343.708 262.168 343.428 261.804 343.428 261.3V261.09C343.428 260.586 343.708 260.222 344.352 260.222C344.996 260.222 345.276 260.586 345.276 261.09V261.3C345.276 261.804 344.996 262.168 344.352 262.168ZM344.352 256.526C343.708 256.526 343.428 256.162 343.428 255.658V255.448C343.428 254.944 343.708 254.58 344.352 254.58C344.996 254.58 345.276 254.944 345.276 255.448V255.658C345.276 256.162 344.996 256.526 344.352 256.526ZM357.43 262H350.948V260.796H353.622V253.222H353.524L351.158 255.574L350.346 254.776L352.88 252.228H354.98V260.796H357.43V262ZM362.003 262H360.561L364.215 253.376H360.253V255.182H359.063V252.228H365.573V253.418L362.003 262ZM370.733 262.168C368.353 262.168 367.289 260.306 367.289 257.114C367.289 253.922 368.353 252.06 370.733 252.06C373.113 252.06 374.177 253.922 374.177 257.114C374.177 260.306 373.113 262.168 370.733 262.168ZM370.733 260.978C372.189 260.978 372.749 259.746 372.749 257.94V256.288C372.749 254.482 372.189 253.25 370.733 253.25C369.277 253.25 368.717 254.482 368.717 256.288V257.94C368.717 259.746 369.277 260.978 370.733 260.978ZM376.076 262V251.64H377.378V258.094H377.448L378.484 256.82L380.374 254.748H381.914L379.338 257.548L382.25 262H380.682L378.414 258.388L377.378 259.494V262H376.076ZM389.13 262.168C387.786 262.168 386.904 261.622 386.232 260.768L387.114 260.012C387.66 260.698 388.332 261.09 389.214 261.09C390.138 261.09 390.642 260.684 390.642 260.012C390.642 259.48 390.362 259.102 389.48 258.976L388.864 258.878C387.478 258.682 386.512 258.108 386.512 256.764C386.512 255.336 387.618 254.58 389.144 254.58C390.376 254.58 391.146 255.014 391.762 255.742L390.936 256.526C390.586 256.064 389.97 255.658 389.102 255.658C388.22 255.658 387.772 256.064 387.772 256.68C387.772 257.324 388.192 257.59 389.032 257.716L389.648 257.814C391.244 258.052 391.902 258.752 391.902 259.872C391.902 261.286 390.838 262.168 389.13 262.168ZM393.767 262V251.64H395.069V255.938H395.139C395.475 255.14 396.091 254.58 397.183 254.58C398.667 254.58 399.577 255.602 399.577 257.366V262H398.275V257.562C398.275 256.344 397.771 255.714 396.749 255.714C395.895 255.714 395.069 256.148 395.069 257.03V262H393.767ZM404.579 262.168C402.605 262.168 401.275 260.684 401.275 258.374C401.275 256.064 402.605 254.58 404.579 254.58C406.553 254.58 407.883 256.064 407.883 258.374C407.883 260.684 406.553 262.168 404.579 262.168ZM404.579 261.048C405.713 261.048 406.497 260.334 406.497 258.92V257.828C406.497 256.414 405.713 255.7 404.579 255.7C403.445 255.7 402.661 256.414 402.661 257.828V258.92C402.661 260.334 403.445 261.048 404.579 261.048ZM412.79 262H411.418C410.522 262 410.046 261.468 410.046 260.628V255.854H408.884V254.748H409.528C410.018 254.748 410.172 254.566 410.172 254.076V252.746H411.348V254.748H412.902V255.854H411.348V260.894H412.79V262ZM416.87 262.168C415.526 262.168 414.644 261.622 413.972 260.768L414.854 260.012C415.4 260.698 416.072 261.09 416.954 261.09C417.878 261.09 418.382 260.684 418.382 260.012C418.382 259.48 418.102 259.102 417.22 258.976L416.604 258.878C415.218 258.682 414.252 258.108 414.252 256.764C414.252 255.336 415.358 254.58 416.884 254.58C418.116 254.58 418.886 255.014 419.502 255.742L418.676 256.526C418.326 256.064 417.71 255.658 416.842 255.658C415.96 255.658 415.512 256.064 415.512 256.68C415.512 257.324 415.932 257.59 416.772 257.716L417.388 257.814C418.984 258.052 419.642 258.752 419.642 259.872C419.642 261.286 418.578 262.168 416.87 262.168Z" fill="black"/>
<circle cx="283" cy="257" r="8" fill="#697077"/>
<path d="M209 303L219 308.774V297.226L209 303ZM453 302L218 302V304L453 304V302Z" fill="url(#paint1_linear_1343_739)"/>
<defs>
<linearGradient id="paint0_linear_1343_739" x1="394.691" y1="168.5" x2="277.42" y2="520.264" gradientUnits="userSpaceOnUse">
<stop stop-color="#D0E2FF"/>
<stop offset="1" stop-color="white"/>
</linearGradient>
<linearGradient id="paint1_linear_1343_739" x1="209" y1="302.5" x2="453" y2="302.5" gradientUnits="userSpaceOnUse">
<stop stop-color="#8A3FFC"/>
<stop offset="1" stop-color="#8A3FFC" stop-opacity="0"/>
</linearGradient>
</defs>
</svg>
