<?xml version="1.0" encoding="UTF-8"?><!DOCTYPE svg  PUBLIC '-//W3C//DTD SVG 1.1//EN'  'http://www.w3.org/Graphics/SVG/1.1/DTD/svg11.dtd'><svg width="1000.6pt" height="337.64pt" version="1.1" viewBox="0 0 1000.6 337.64" xmlns="http://www.w3.org/2000/svg" xmlns:xlink="http://www.w3.org/1999/xlink"><defs><style type="text/css">*{stroke-linejoin: round; stroke-linecap: butt}</style></defs><path d="m0 337.64h1000.6v-337.64h-1000.6z" fill="#ffffff"/><path d="m30.75 294.28h950.26v-287.08h-950.26z" fill="#ffffff"/><path d="m30.75 69.401h950.26v-28.708h-950.26z" clip-path="url(#5e86dbd902e)" fill="#dddddd" fill-opacity=".7"/><path d="m30.75 117.25h950.26v-28.708h-950.26z" clip-path="url(#5e86dbd902e)" fill="#dddddd" fill-opacity=".7"/><path d="m30.75 165.09h950.26v-28.708h-950.26z" clip-path="url(#5e86dbd902e)" fill="#dddddd" fill-opacity=".7"/><path d="m30.75 212.94h950.26v-28.708h-950.26z" clip-path="url(#5e86dbd902e)" fill="#dddddd" fill-opacity=".7"/><path d="m30.75 260.79h950.26v-28.708h-950.26z" clip-path="url(#5e86dbd902e)" fill="#dddddd" fill-opacity=".7"/><defs><path id="380093f8ddb" d="m0 0v3.5" stroke="#000000" stroke-width=".8"/></defs><use x="49.024221" y="294.28" stroke="#000000" stroke-width=".8" xlink:href="#380093f8ddb"/><g transform="translate(44.889 311.16) scale(.13 -.13)"><defs><path id="DejaVuSans-30" transform="scale(.015625)" d="m2034 4250q-487 0-733-480-245-479-245-1442 0-959 245-1439 246-480 733-480 491 0 736 480 246 480 246 1439 0 963-246 1442-245 480-736 480zm0 500q785 0 1199-621 414-620 414-1801 0-1178-414-1799-414-620-1199-620-784 0-1198 620-414 621-414 1799 0 1181 414 1801 414 621 1198 621z"/></defs><use xlink:href="#DejaVuSans-30"/></g><use x="235.421275" y="294.28" stroke="#000000" stroke-width=".8" xlink:href="#380093f8ddb"/><g transform="translate(223.01 311.16) scale(.13 -.13)"><defs><path id="DejaVuSans-31" transform="scale(.015625)" d="m794 531h1031v3560l-1122-225v575l1116 225h631v-4135h1031v-531h-2687v531z"/><path id="DejaVuSans-32" transform="scale(.015625)" d="m1228 531h2203v-531h-2962v531q359 372 979 998 621 627 780 809 303 340 423 576 121 236 121 464 0 372-261 606-261 235-680 235-297 0-627-103-329-103-704-313v638q381 153 712 231 332 78 607 78 725 0 1156-363 431-362 431-968 0-288-108-546-107-257-392-607-78-91-497-524-418-433-1181-1211z"/></defs><use xlink:href="#DejaVuSans-31"/><use transform="translate(63.623)" xlink:href="#DejaVuSans-30"/><use transform="translate(127.25)" xlink:href="#DejaVuSans-32"/></g><use x="421.818329" y="294.28" stroke="#000000" stroke-width=".8" xlink:href="#380093f8ddb"/><g transform="translate(409.41 311.16) scale(.13 -.13)"><defs><path id="DejaVuSans-34" transform="scale(.015625)" d="m2419 4116-1594-2491h1594v2491zm-166 550h794v-3041h666v-525h-666v-1100h-628v1100h-2106v609l1940 2957z"/></defs><use xlink:href="#DejaVuSans-32"/><use transform="translate(63.623)" xlink:href="#DejaVuSans-30"/><use transform="translate(127.25)" xlink:href="#DejaVuSans-34"/></g><use x="608.215384" y="294.28" stroke="#000000" stroke-width=".8" xlink:href="#380093f8ddb"/><g transform="translate(595.81 311.16) scale(.13 -.13)"><defs><path id="DejaVuSans-33" transform="scale(.015625)" d="m2597 2516q453-97 707-404 255-306 255-756 0-690-475-1069-475-378-1350-378-293 0-604 58t-642 174v609q262-153 574-231 313-78 654-78 593 0 904 234t311 681q0 413-289 645-289 233-804 233h-544v519h569q465 0 712 186t247 536q0 359-255 551-254 193-729 193-260 0-557-57-297-56-653-174v562q360 100 674 150t592 50q719 0 1137-327 419-326 419-882 0-388-222-655t-631-370z"/><path id="DejaVuSans-36" transform="scale(.015625)" d="m2113 2584q-425 0-674-291-248-290-248-796 0-503 248-796 249-292 674-292t673 292q248 293 248 796 0 506-248 796-248 291-673 291zm1253 1979v-575q-238 112-480 171-242 60-480 60-625 0-955-422-329-422-376-1275 184 272 462 417 279 145 613 145 703 0 1111-427 408-426 408-1160 0-719-425-1154-425-434-1131-434-810 0-1238 620-428 621-428 1799 0 1106 525 1764t1409 658q238 0 480-47t505-140z"/></defs><use xlink:href="#DejaVuSans-33"/><use transform="translate(63.623)" xlink:href="#DejaVuSans-30"/><use transform="translate(127.25)" xlink:href="#DejaVuSans-36"/></g><use x="794.612438" y="294.28" stroke="#000000" stroke-width=".8" xlink:href="#380093f8ddb"/><g transform="translate(782.21 311.16) scale(.13 -.13)"><defs><path id="DejaVuSans-38" transform="scale(.015625)" d="m2034 2216q-450 0-708-241-257-241-257-662 0-422 257-663 258-241 708-241t709 242q260 243 260 662 0 421-258 662-257 241-711 241zm-631 268q-406 100-633 378-226 279-226 679 0 559 398 884 399 325 1092 325 697 0 1094-325t397-884q0-400-227-679-226-278-629-378 456-106 710-416 255-309 255-755 0-679-414-1042-414-362-1186-362-771 0-1186 362-414 363-414 1042 0 446 256 755 257 310 713 416zm-231 997q0-362 226-565 227-203 636-203 407 0 636 203 230 203 230 565 0 363-230 566-229 203-636 203-409 0-636-203-226-203-226-566z"/></defs><use xlink:href="#DejaVuSans-34"/><use transform="translate(63.623)" xlink:href="#DejaVuSans-30"/><use transform="translate(127.25)" xlink:href="#DejaVuSans-38"/></g><use x="981.009492" y="294.28" stroke="#000000" stroke-width=".8" xlink:href="#380093f8ddb"/><g transform="translate(968.6 311.16) scale(.13 -.13)"><defs><path id="DejaVuSans-35" transform="scale(.015625)" d="m691 4666h2478v-532h-1900v-1143q137 47 274 70 138 23 276 23 781 0 1237-428 457-428 457-1159 0-753-469-1171-469-417-1322-417-294 0-599 50-304 50-629 150v635q281-153 581-228t634-75q541 0 856 284 316 284 316 772 0 487-316 771-315 285-856 285-253 0-505-56-251-56-513-175v2344z"/></defs><use xlink:href="#DejaVuSans-35"/><use transform="translate(63.623)" xlink:href="#DejaVuSans-31"/><use transform="translate(127.25)" xlink:href="#DejaVuSans-30"/></g><g transform="translate(432.21 327.74) scale(.13 -.13)"><defs><path id="DejaVuSans-53" transform="scale(.015625)" d="m3425 4513v-616q-359 172-678 256-319 85-616 85-515 0-795-200t-280-569q0-310 186-468 186-157 705-254l381-78q706-135 1042-474t336-907q0-679-455-1029-454-350-1332-350-331 0-705 75-373 75-773 222v650q384-215 753-325 369-109 725-109 540 0 834 212 294 213 294 607 0 343-211 537t-692 291l-385 75q-706 140-1022 440-315 300-315 835 0 619 436 975t1201 356q329 0 669-60 341-59 697-177z"/><path id="DejaVuSans-79" transform="scale(.015625)" d="m2059-325q-243-625-475-815-231-191-618-191h-460v481h338q237 0 368 113 132 112 291 531l103 262-1415 3444h609l1094-2737 1094 2737h609l-1538-3825z"/><path id="DejaVuSans-73" transform="scale(.015625)" d="m2834 3397v-544q-243 125-506 187-262 63-544 63-428 0-642-131t-214-394q0-200 153-314t616-217l197-44q612-131 870-370t258-667q0-488-386-773-386-284-1061-284-281 0-586 55t-642 164v594q319-166 628-249 309-82 613-82 406 0 624 139 219 139 219 392 0 234-158 359-157 125-692 241l-200 47q-534 112-772 345-237 233-237 639 0 494 350 762 350 269 994 269 318 0 599-47 282-46 519-140z"/><path id="DejaVuSans-74" transform="scale(.015625)" d="m1172 4494v-994h1184v-447h-1184v-1900q0-428 117-550t477-122h590v-481h-590q-666 0-919 248-253 249-253 905v1900h-422v447h422v994h578z"/><path id="DejaVuSans-65" transform="scale(.015625)" d="m3597 1894v-281h-2644q38-594 358-905t892-311q331 0 642 81t618 244v-544q-310-131-635-200t-659-69q-838 0-1327 487-489 488-489 1320 0 859 464 1363 464 505 1252 505 706 0 1117-455 411-454 411-1235zm-575 169q-6 471-264 752-258 282-683 282-481 0-770-272t-333-766l2050 4z"/><path id="DejaVuSans-6d" transform="scale(.015625)" d="m3328 2828q216 388 516 572t706 184q547 0 844-383 297-382 297-1088v-2113h-578v2094q0 503-179 746-178 244-543 244-447 0-707-297-259-296-259-809v-1978h-578v2094q0 506-178 748t-550 242q-441 0-701-298-259-298-259-808v-1978h-578v3500h578v-544q197 322 472 475t653 153q382 0 649-194 267-193 395-562z"/><path id="DejaVuSans-63" transform="scale(.015625)" d="m3122 3366v-538q-244 135-489 202t-495 67q-560 0-870-355-309-354-309-995t309-996q310-354 870-354 250 0 495 67t489 202v-532q-241-112-499-168-257-57-548-57-791 0-1257 497-465 497-465 1341 0 856 470 1346 471 491 1290 491 265 0 518-55 253-54 491-163z"/><path id="DejaVuSans-6c" transform="scale(.015625)" d="m603 4863h575v-4863h-575v4863z"/><path id="DejaVuSans-69" transform="scale(.015625)" d="m603 3500h575v-3500h-575v3500zm0 1363h575v-729h-575v729z"/><path id="DejaVuSans-28" transform="scale(.015625)" d="m1984 4856q-418-718-622-1422-203-703-203-1425 0-721 205-1429t620-1424h-500q-468 735-701 1444t-233 1409q0 697 231 1403 232 707 703 1444h500z"/><path id="DejaVuSans-64" transform="scale(.015625)" d="m2906 2969v1894h575v-4863h-575v525q-181-312-458-464-276-152-664-152-634 0-1033 506-398 507-398 1332t398 1331q399 506 1033 506 388 0 664-152 277-151 458-463zm-1959-1222q0-634 261-995t717-361 718 361q263 361 263 995t-263 995q-262 361-718 361t-717-361-261-995z"/><path id="DejaVuSans-29" transform="scale(.015625)" d="m513 4856h500q468-737 701-1444 233-706 233-1403 0-700-233-1409t-701-1444h-500q415 716 620 1424t205 1429q0 722-205 1425-205 704-620 1422z"/></defs><use xlink:href="#DejaVuSans-53"/><use transform="translate(63.477)" xlink:href="#DejaVuSans-79"/><use transform="translate(122.66)" xlink:href="#DejaVuSans-73"/><use transform="translate(174.76)" xlink:href="#DejaVuSans-74"/><use transform="translate(213.96)" xlink:href="#DejaVuSans-65"/><use transform="translate(275.49)" xlink:href="#DejaVuSans-6d"/><use transform="translate(372.9)" xlink:href="#DejaVuSans-20"/><use transform="translate(404.69)" xlink:href="#DejaVuSans-63"/><use transform="translate(459.67)" xlink:href="#DejaVuSans-79"/><use transform="translate(518.85)" xlink:href="#DejaVuSans-63"/><use transform="translate(573.83)" xlink:href="#DejaVuSans-6c"/><use transform="translate(601.61)" xlink:href="#DejaVuSans-65"/><use transform="translate(663.13)" xlink:href="#DejaVuSans-20"/><use transform="translate(694.92)" xlink:href="#DejaVuSans-74"/><use transform="translate(734.13)" xlink:href="#DejaVuSans-69"/><use transform="translate(761.91)" xlink:href="#DejaVuSans-6d"/><use transform="translate(859.33)" xlink:href="#DejaVuSans-65"/><use transform="translate(920.85)" xlink:href="#DejaVuSans-20"/><use transform="translate(952.64)" xlink:href="#DejaVuSans-28"/><use transform="translate(991.65)" xlink:href="#DejaVuSans-64"/><use transform="translate(1055.1)" xlink:href="#DejaVuSans-74"/><use transform="translate(1094.3)" xlink:href="#DejaVuSans-29"/></g><path d="m89.045 102.89v47.847" clip-path="url(#5e86dbd902e)" fill="none" stroke="#6fa4ff" stroke-linecap="square" stroke-opacity=".8" stroke-width="3"/><path d="m149.35 102.89v47.847" clip-path="url(#5e86dbd902e)" fill="none" stroke="#6fa4ff" stroke-linecap="square" stroke-opacity=".8" stroke-width="3"/><path d="m199.79 198.59v-47.847" clip-path="url(#5e86dbd902e)" fill="none" stroke="#6fa4ff" stroke-linecap="square" stroke-opacity=".8" stroke-width="3"/><path d="m260.09 198.59v-47.847" clip-path="url(#5e86dbd902e)" fill="none" stroke="#6fa4ff" stroke-linecap="square" stroke-opacity=".8" stroke-width="3"/><path d="m98.547 55.047v191.39" clip-path="url(#5e86dbd902e)" fill="none" stroke="#6fa4ff" stroke-linecap="square" stroke-opacity=".8" stroke-width="3"/><path d="m158.85 55.047v191.39" clip-path="url(#5e86dbd902e)" fill="none" stroke="#6fa4ff" stroke-linecap="square" stroke-opacity=".8" stroke-width="3"/><path d="m199.79 102.89v-47.847" clip-path="url(#5e86dbd902e)" fill="none" stroke="#6fa4ff" stroke-linecap="square" stroke-opacity=".8" stroke-width="3"/><path d="m260.09 102.89v-47.847" clip-path="url(#5e86dbd902e)" fill="none" stroke="#6fa4ff" stroke-linecap="square" stroke-opacity=".8" stroke-width="3"/><path d="m330.26 102.89v47.847" clip-path="url(#5e86dbd902e)" fill="none" stroke="#6fa4ff" stroke-linecap="square" stroke-opacity=".8" stroke-width="3"/><path d="m390.57 102.89v47.847" clip-path="url(#5e86dbd902e)" fill="none" stroke="#6fa4ff" stroke-linecap="square" stroke-opacity=".8" stroke-width="3"/><path d="m441.01 198.59v-47.847" clip-path="url(#5e86dbd902e)" fill="none" stroke="#6fa4ff" stroke-linecap="square" stroke-opacity=".8" stroke-width="3"/><path d="m501.31 198.59v-47.847" clip-path="url(#5e86dbd902e)" fill="none" stroke="#6fa4ff" stroke-linecap="square" stroke-opacity=".8" stroke-width="3"/><path d="m339.77 55.047v191.39" clip-path="url(#5e86dbd902e)" fill="none" stroke="#6fa4ff" stroke-linecap="square" stroke-opacity=".8" stroke-width="3"/><path d="m400.07 55.047v191.39" clip-path="url(#5e86dbd902e)" fill="none" stroke="#6fa4ff" stroke-linecap="square" stroke-opacity=".8" stroke-width="3"/><path d="m441.01 102.89v-47.847" clip-path="url(#5e86dbd902e)" fill="none" stroke="#6fa4ff" stroke-linecap="square" stroke-opacity=".8" stroke-width="3"/><path d="m501.31 102.89v-47.847" clip-path="url(#5e86dbd902e)" fill="none" stroke="#6fa4ff" stroke-linecap="square" stroke-opacity=".8" stroke-width="3"/><path d="m571.48 102.89v47.847" clip-path="url(#5e86dbd902e)" fill="none" stroke="#6fa4ff" stroke-linecap="square" stroke-opacity=".8" stroke-width="3"/><path d="m631.79 102.89v47.847" clip-path="url(#5e86dbd902e)" fill="none" stroke="#6fa4ff" stroke-linecap="square" stroke-opacity=".8" stroke-width="3"/><path d="m682.23 198.59v-47.847" clip-path="url(#5e86dbd902e)" fill="none" stroke="#6fa4ff" stroke-linecap="square" stroke-opacity=".8" stroke-width="3"/><path d="m742.53 198.59v-47.847" clip-path="url(#5e86dbd902e)" fill="none" stroke="#6fa4ff" stroke-linecap="square" stroke-opacity=".8" stroke-width="3"/><path d="m580.99 55.047v191.39" clip-path="url(#5e86dbd902e)" fill="none" stroke="#6fa4ff" stroke-linecap="square" stroke-opacity=".8" stroke-width="3"/><path d="m641.29 55.047v191.39" clip-path="url(#5e86dbd902e)" fill="none" stroke="#6fa4ff" stroke-linecap="square" stroke-opacity=".8" stroke-width="3"/><path d="m682.23 102.89v-47.847" clip-path="url(#5e86dbd902e)" fill="none" stroke="#6fa4ff" stroke-linecap="square" stroke-opacity=".8" stroke-width="3"/><path d="m742.53 102.89v-47.847" clip-path="url(#5e86dbd902e)" fill="none" stroke="#6fa4ff" stroke-linecap="square" stroke-opacity=".8" stroke-width="3"/><path d="m30.75 294.28v-287.08" fill="none"/><path d="m981.01 294.28v-287.08" fill="none"/><path d="m30.75 294.28h950.26" fill="none" stroke="#000000" stroke-linecap="square" stroke-width=".8"/><path d="m30.75 7.2h950.26" fill="none"/><path d="m49.024 55.047 1.8274-8.4582 1.8274-3.5035h7.3097l1.8274 3.5035 1.8274 8.4582-1.8274 8.4582-1.8274 3.5035h-7.3097l-1.8274-3.5035-1.8274-8.4582z" clip-path="url(#5e86dbd902e)" fill="#fa74a6"/><path d="m63.644 55.047 1.8274-8.4582 1.8274-3.5035h7.3097l1.8274 3.5035 1.8274 8.4582-1.8274 8.4582-1.8274 3.5035h-7.3097l-1.8274-3.5035-1.8274-8.4582z" clip-path="url(#5e86dbd902e)" fill="#fa74a6"/><path d="m49.024 102.89 1.8274-8.4582 1.8274-3.5035h7.3097l1.8274 3.5035 1.8274 8.4582-1.8274 8.4582-1.8274 3.5035h-7.3097l-1.8274-3.5035-1.8274-8.4582z" clip-path="url(#5e86dbd902e)" fill="#fa74a6"/><path d="m63.644 102.89 1.8274-8.4582 1.8274-3.5035h7.3097l1.8274 3.5035 1.8274 8.4582-1.8274 8.4582-1.8274 3.5035h-7.3097l-1.8274-3.5035-1.8274-8.4582z" clip-path="url(#5e86dbd902e)" fill="#fa74a6"/><path d="m49.024 150.74 1.8274-8.4582 1.8274-3.5035h7.3097l1.8274 3.5035 1.8274 8.4582-1.8274 8.4582-1.8274 3.5035h-7.3097l-1.8274-3.5035-1.8274-8.4582z" clip-path="url(#5e86dbd902e)" fill="#fa74a6"/><path d="m63.644 150.74 1.8274-8.4582 1.8274-3.5035h7.3097l1.8274 3.5035 1.8274 8.4582-1.8274 8.4582-1.8274 3.5035h-7.3097l-1.8274-3.5035-1.8274-8.4582z" clip-path="url(#5e86dbd902e)" fill="#fa74a6"/><path d="m78.263 102.89 1.8274-3.0959 1.8274-2.8849 1.8274-2.4773 1.8274-1.9009 1.8274-1.195 1.8274-0.40758h9.1371l1.8274 0.40758 1.8274 1.195 1.8274 1.9009 1.8274 2.4773 1.8274 2.8849 1.8274 3.0959-1.8274 3.0959-1.8274 2.8849-1.8274 2.4773-1.8274 1.9009-1.8274 1.195-1.8274 0.40758h-9.1371l-1.8274-0.40758-1.8274-1.195-1.8274-1.9009-1.8274-2.4773-1.8274-2.8849-1.8274-3.0959z" clip-path="url(#5e86dbd902e)" fill="#6fa4ff"/><path d="m78.263 150.74 1.8274-3.0959 1.8274-2.8849 1.8274-2.4773 1.8274-1.9009 1.8274-1.195 1.8274-0.40758h9.1371l1.8274 0.40758 1.8274 1.195 1.8274 1.9009 1.8274 2.4773 1.8274 2.8849 1.8274 3.0959-1.8274 3.0959-1.8274 2.8849-1.8274 2.4773-1.8274 1.9009-1.8274 1.195-1.8274 0.40758h-9.1371l-1.8274-0.40758-1.8274-1.195-1.8274-1.9009-1.8274-2.4773-1.8274-2.8849-1.8274-3.0959z" clip-path="url(#5e86dbd902e)" fill="#6fa4ff"/><path d="m123.95 102.89 1.8274-8.4582 1.8274-3.5035h7.3097l1.8274 3.5035 1.8274 8.4582-1.8274 8.4582-1.8274 3.5035h-7.3097l-1.8274-3.5035-1.8274-8.4582z" clip-path="url(#5e86dbd902e)" fill="#05bab6"/><path d="m109.33 150.74 1.8274-8.4582 1.8274-3.5035h7.3097l1.8274 3.5035 1.8274 8.4582-1.8274 8.4582-1.8274 3.5035h-7.3097l-1.8274-3.5035-1.8274-8.4582z" clip-path="url(#5e86dbd902e)" fill="#fa74a6"/><path d="m123.95 150.74 1.8274-8.4582 1.8274-3.5035h7.3097l1.8274 3.5035 1.8274 8.4582-1.8274 8.4582-1.8274 3.5035h-7.3097l-1.8274-3.5035-1.8274-8.4582z" clip-path="url(#5e86dbd902e)" fill="#fa74a6"/><path d="m138.57 102.89 1.8274-3.0959 1.8274-2.8849 1.8274-2.4773 1.8274-1.9009 1.8274-1.195 1.8274-0.40758h9.1371l1.8274 0.40758 1.8274 1.195 1.8274 1.9009 1.8274 2.4773 1.8274 2.8849 1.8274 3.0959-1.8274 3.0959-1.8274 2.8849-1.8274 2.4773-1.8274 1.9009-1.8274 1.195-1.8274 0.40758h-9.1371l-1.8274-0.40758-1.8274-1.195-1.8274-1.9009-1.8274-2.4773-1.8274-2.8849-1.8274-3.0959z" clip-path="url(#5e86dbd902e)" fill="#6fa4ff"/><path d="m138.57 150.74 1.8274-3.0959 1.8274-2.8849 1.8274-2.4773 1.8274-1.9009 1.8274-1.195 1.8274-0.40758h9.1371l1.8274 0.40758 1.8274 1.195 1.8274 1.9009 1.8274 2.4773 1.8274 2.8849 1.8274 3.0959-1.8274 3.0959-1.8274 2.8849-1.8274 2.4773-1.8274 1.9009-1.8274 1.195-1.8274 0.40758h-9.1371l-1.8274-0.40758-1.8274-1.195-1.8274-1.9009-1.8274-2.4773-1.8274-2.8849-1.8274-3.0959z" clip-path="url(#5e86dbd902e)" fill="#6fa4ff"/><path d="m169.63 102.89 1.8274-8.4582 1.8274-3.5035h7.3097l1.8274 3.5035 1.8274 8.4582-1.8274 8.4582-1.8274 3.5035h-7.3097l-1.8274-3.5035-1.8274-8.4582z" clip-path="url(#5e86dbd902e)" fill="#05bab6"/><path d="m169.63 150.74 1.8274-8.4582 1.8274-3.5035h7.3097l1.8274 3.5035 1.8274 8.4582-1.8274 8.4582-1.8274 3.5035h-7.3097l-1.8274-3.5035-1.8274-8.4582z" clip-path="url(#5e86dbd902e)" fill="#fa74a6"/><path d="m155.01 198.59 1.8274-8.4582 1.8274-3.5035h7.3097l1.8274 3.5035 1.8274 8.4582-1.8274 8.4582-1.8274 3.5035h-7.3097l-1.8274-3.5035-1.8274-8.4582z" clip-path="url(#5e86dbd902e)" fill="#fa74a6"/><path d="m169.63 198.59 1.8274-8.4582 1.8274-3.5035h7.3097l1.8274 3.5035 1.8274 8.4582-1.8274 8.4582-1.8274 3.5035h-7.3097l-1.8274-3.5035-1.8274-8.4582z" clip-path="url(#5e86dbd902e)" fill="#fa74a6"/><path d="m184.25 198.59 1.8274-3.0959 1.8274-2.8849 1.8274-2.4773 1.8274-1.9009 1.8274-1.195 1.8274-0.40758h9.1371l1.8274 0.40758 1.8274 1.195 1.8274 1.9009 1.8274 2.4773 1.8274 2.8849 1.8274 3.0959-1.8274 3.0959-1.8274 2.8849-1.8274 2.4773-1.8274 1.9009-1.8274 1.195-1.8274 0.40758h-9.1371l-1.8274-0.40758-1.8274-1.195-1.8274-1.9009-1.8274-2.4773-1.8274-2.8849-1.8274-3.0959z" clip-path="url(#5e86dbd902e)" fill="#6fa4ff"/><path d="m184.25 150.74 1.8274-3.0959 1.8274-2.8849 1.8274-2.4773 1.8274-1.9009 1.8274-1.195 1.8274-0.40758h9.1371l1.8274 0.40758 1.8274 1.195 1.8274 1.9009 1.8274 2.4773 1.8274 2.8849 1.8274 3.0959-1.8274 3.0959-1.8274 2.8849-1.8274 2.4773-1.8274 1.9009-1.8274 1.195-1.8274 0.40758h-9.1371l-1.8274-0.40758-1.8274-1.195-1.8274-1.9009-1.8274-2.4773-1.8274-2.8849-1.8274-3.0959z" clip-path="url(#5e86dbd902e)" fill="#6fa4ff"/><path d="m215.32 150.74 1.8274-8.4582 1.8274-3.5035h7.3097l1.8274 3.5035 1.8274 8.4582-1.8274 8.4582-1.8274 3.5035h-7.3097l-1.8274-3.5035-1.8274-8.4582z" clip-path="url(#5e86dbd902e)" fill="#fa74a6"/><path d="m229.94 150.74 1.8274-8.4582 1.8274-3.5035h7.3097l1.8274 3.5035 1.8274 8.4582-1.8274 8.4582-1.8274 3.5035h-7.3097l-1.8274-3.5035-1.8274-8.4582z" clip-path="url(#5e86dbd902e)" fill="#fa74a6"/><path d="m244.56 198.59 1.8274-3.0959 1.8274-2.8849 1.8274-2.4773 1.8274-1.9009 1.8274-1.195 1.8274-0.40758h9.1371l1.8274 0.40758 1.8274 1.195 1.8274 1.9009 1.8274 2.4773 1.8274 2.8849 1.8274 3.0959-1.8274 3.0959-1.8274 2.8849-1.8274 2.4773-1.8274 1.9009-1.8274 1.195-1.8274 0.40758h-9.1371l-1.8274-0.40758-1.8274-1.195-1.8274-1.9009-1.8274-2.4773-1.8274-2.8849-1.8274-3.0959z" clip-path="url(#5e86dbd902e)" fill="#6fa4ff"/><path d="m244.56 150.74 1.8274-3.0959 1.8274-2.8849 1.8274-2.4773 1.8274-1.9009 1.8274-1.195 1.8274-0.40758h9.1371l1.8274 0.40758 1.8274 1.195 1.8274 1.9009 1.8274 2.4773 1.8274 2.8849 1.8274 3.0959-1.8274 3.0959-1.8274 2.8849-1.8274 2.4773-1.8274 1.9009-1.8274 1.195-1.8274 0.40758h-9.1371l-1.8274-0.40758-1.8274-1.195-1.8274-1.9009-1.8274-2.4773-1.8274-2.8849-1.8274-3.0959z" clip-path="url(#5e86dbd902e)" fill="#6fa4ff"/><path d="m275.62 150.74 1.8274-8.4582 1.8274-3.5035h7.3097l1.8274 3.5035 1.8274 8.4582-1.8274 8.4582-1.8274 3.5035h-7.3097l-1.8274-3.5035-1.8274-8.4582z" clip-path="url(#5e86dbd902e)" fill="#fa74a6"/><path d="m49.024 246.43 1.8274-8.4582 1.8274-3.5035h7.3097l1.8274 3.5035 1.8274 8.4582-1.8274 8.4582-1.8274 3.5035h-7.3097l-1.8274-3.5035-1.8274-8.4582z" clip-path="url(#5e86dbd902e)" fill="#fa74a6"/><path d="m63.644 246.43 1.8274-8.4582 1.8274-3.5035h7.3097l1.8274 3.5035 1.8274 8.4582-1.8274 8.4582-1.8274 3.5035h-7.3097l-1.8274-3.5035-1.8274-8.4582z" clip-path="url(#5e86dbd902e)" fill="#fa74a6"/><path d="m78.263 55.047 1.8274-3.0959 1.8274-2.8849 1.8274-2.4773 1.8274-1.9009 1.8274-1.195 1.8274-0.40758h9.1371l1.8274 0.40758 1.8274 1.195 1.8274 1.9009 1.8274 2.4773 1.8274 2.8849 1.8274 3.0959-1.8274 3.0959-1.8274 2.8849-1.8274 2.4773-1.8274 1.9009-1.8274 1.195-1.8274 0.40758h-9.1371l-1.8274-0.40758-1.8274-1.195-1.8274-1.9009-1.8274-2.4773-1.8274-2.8849-1.8274-3.0959z" clip-path="url(#5e86dbd902e)" fill="#6fa4ff"/><path d="m78.263 246.43 1.8274-3.0959 1.8274-2.8849 1.8274-2.4773 1.8274-1.9009 1.8274-1.195 1.8274-0.40758h9.1371l1.8274 0.40758 1.8274 1.195 1.8274 1.9009 1.8274 2.4773 1.8274 2.8849 1.8274 3.0959-1.8274 3.0959-1.8274 2.8849-1.8274 2.4773-1.8274 1.9009-1.8274 1.195-1.8274 0.40758h-9.1371l-1.8274-0.40758-1.8274-1.195-1.8274-1.9009-1.8274-2.4773-1.8274-2.8849-1.8274-3.0959z" clip-path="url(#5e86dbd902e)" fill="#6fa4ff"/><path d="m123.95 55.047 1.8274-8.4582 1.8274-3.5035h7.3097l1.8274 3.5035 1.8274 8.4582-1.8274 8.4582-1.8274 3.5035h-7.3097l-1.8274-3.5035-1.8274-8.4582z" clip-path="url(#5e86dbd902e)" fill="#05bab6"/><path d="m109.33 246.43 1.8274-8.4582 1.8274-3.5035h7.3097l1.8274 3.5035 1.8274 8.4582-1.8274 8.4582-1.8274 3.5035h-7.3097l-1.8274-3.5035-1.8274-8.4582z" clip-path="url(#5e86dbd902e)" fill="#fa74a6"/><path d="m123.95 246.43 1.8274-8.4582 1.8274-3.5035h7.3097l1.8274 3.5035 1.8274 8.4582-1.8274 8.4582-1.8274 3.5035h-7.3097l-1.8274-3.5035-1.8274-8.4582z" clip-path="url(#5e86dbd902e)" fill="#fa74a6"/><path d="m138.57 55.047 1.8274-3.0959 1.8274-2.8849 1.8274-2.4773 1.8274-1.9009 1.8274-1.195 1.8274-0.40758h9.1371l1.8274 0.40758 1.8274 1.195 1.8274 1.9009 1.8274 2.4773 1.8274 2.8849 1.8274 3.0959-1.8274 3.0959-1.8274 2.8849-1.8274 2.4773-1.8274 1.9009-1.8274 1.195-1.8274 0.40758h-9.1371l-1.8274-0.40758-1.8274-1.195-1.8274-1.9009-1.8274-2.4773-1.8274-2.8849-1.8274-3.0959z" clip-path="url(#5e86dbd902e)" fill="#6fa4ff"/><path d="m138.57 246.43 1.8274-3.0959 1.8274-2.8849 1.8274-2.4773 1.8274-1.9009 1.8274-1.195 1.8274-0.40758h9.1371l1.8274 0.40758 1.8274 1.195 1.8274 1.9009 1.8274 2.4773 1.8274 2.8849 1.8274 3.0959-1.8274 3.0959-1.8274 2.8849-1.8274 2.4773-1.8274 1.9009-1.8274 1.195-1.8274 0.40758h-9.1371l-1.8274-0.40758-1.8274-1.195-1.8274-1.9009-1.8274-2.4773-1.8274-2.8849-1.8274-3.0959z" clip-path="url(#5e86dbd902e)" fill="#6fa4ff"/><path d="m169.63 55.047 1.8274-8.4582 1.8274-3.5035h7.3097l1.8274 3.5035 1.8274 8.4582-1.8274 8.4582-1.8274 3.5035h-7.3097l-1.8274-3.5035-1.8274-8.4582z" clip-path="url(#5e86dbd902e)" fill="#fa74a6"/><path d="m184.25 102.89 1.8274-3.0959 1.8274-2.8849 1.8274-2.4773 1.8274-1.9009 1.8274-1.195 1.8274-0.40758h9.1371l1.8274 0.40758 1.8274 1.195 1.8274 1.9009 1.8274 2.4773 1.8274 2.8849 1.8274 3.0959-1.8274 3.0959-1.8274 2.8849-1.8274 2.4773-1.8274 1.9009-1.8274 1.195-1.8274 0.40758h-9.1371l-1.8274-0.40758-1.8274-1.195-1.8274-1.9009-1.8274-2.4773-1.8274-2.8849-1.8274-3.0959z" clip-path="url(#5e86dbd902e)" fill="#6fa4ff"/><path d="m184.25 55.047 1.8274-3.0959 1.8274-2.8849 1.8274-2.4773 1.8274-1.9009 1.8274-1.195 1.8274-0.40758h9.1371l1.8274 0.40758 1.8274 1.195 1.8274 1.9009 1.8274 2.4773 1.8274 2.8849 1.8274 3.0959-1.8274 3.0959-1.8274 2.8849-1.8274 2.4773-1.8274 1.9009-1.8274 1.195-1.8274 0.40758h-9.1371l-1.8274-0.40758-1.8274-1.195-1.8274-1.9009-1.8274-2.4773-1.8274-2.8849-1.8274-3.0959z" clip-path="url(#5e86dbd902e)" fill="#6fa4ff"/><path d="m215.32 55.047 1.8274-8.4582 1.8274-3.5035h7.3097l1.8274 3.5035 1.8274 8.4582-1.8274 8.4582-1.8274 3.5035h-7.3097l-1.8274-3.5035-1.8274-8.4582z" clip-path="url(#5e86dbd902e)" fill="#fa74a6"/><path d="m229.94 55.047 1.8274-8.4582 1.8274-3.5035h7.3097l1.8274 3.5035 1.8274 8.4582-1.8274 8.4582-1.8274 3.5035h-7.3097l-1.8274-3.5035-1.8274-8.4582z" clip-path="url(#5e86dbd902e)" fill="#fa74a6"/><path d="m244.56 102.89 1.8274-3.0959 1.8274-2.8849 1.8274-2.4773 1.8274-1.9009 1.8274-1.195 1.8274-0.40758h9.1371l1.8274 0.40758 1.8274 1.195 1.8274 1.9009 1.8274 2.4773 1.8274 2.8849 1.8274 3.0959-1.8274 3.0959-1.8274 2.8849-1.8274 2.4773-1.8274 1.9009-1.8274 1.195-1.8274 0.40758h-9.1371l-1.8274-0.40758-1.8274-1.195-1.8274-1.9009-1.8274-2.4773-1.8274-2.8849-1.8274-3.0959z" clip-path="url(#5e86dbd902e)" fill="#6fa4ff"/><path d="m244.56 55.047 1.8274-3.0959 1.8274-2.8849 1.8274-2.4773 1.8274-1.9009 1.8274-1.195 1.8274-0.40758h9.1371l1.8274 0.40758 1.8274 1.195 1.8274 1.9009 1.8274 2.4773 1.8274 2.8849 1.8274 3.0959-1.8274 3.0959-1.8274 2.8849-1.8274 2.4773-1.8274 1.9009-1.8274 1.195-1.8274 0.40758h-9.1371l-1.8274-0.40758-1.8274-1.195-1.8274-1.9009-1.8274-2.4773-1.8274-2.8849-1.8274-3.0959z" clip-path="url(#5e86dbd902e)" fill="#6fa4ff"/><path d="m275.62 55.047 1.8274-8.4582 1.8274-3.5035h7.3097l1.8274 3.5035 1.8274 8.4582-1.8274 8.4582-1.8274 3.5035h-7.3097l-1.8274-3.5035-1.8274-8.4582z" clip-path="url(#5e86dbd902e)" fill="#fa74a6"/><path d="m275.62 246.43 1.8274-8.4582 1.8274-3.5035h7.3097l1.8274 3.5035 1.8274 8.4582-1.8274 8.4582-1.8274 3.5035h-7.3097l-1.8274-3.5035-1.8274-8.4582z" clip-path="url(#5e86dbd902e)" fill="#fa74a6"/><path d="m290.24 55.047 1.8274-8.4582 1.8274-3.5035h7.3097l1.8274 3.5035 1.8274 8.4582-1.8274 8.4582-1.8274 3.5035h-7.3097l-1.8274-3.5035-1.8274-8.4582z" clip-path="url(#5e86dbd902e)" fill="#fa74a6"/><path d="m304.86 55.047 1.8274-8.4582 1.8274-3.5035h7.3097l1.8274 3.5035 1.8274 8.4582-1.8274 8.4582-1.8274 3.5035h-7.3097l-1.8274-3.5035-1.8274-8.4582z" clip-path="url(#5e86dbd902e)" fill="#fa74a6"/><path d="m290.24 102.89 1.8274-8.4582 1.8274-3.5035h7.3097l1.8274 3.5035 1.8274 8.4582-1.8274 8.4582-1.8274 3.5035h-7.3097l-1.8274-3.5035-1.8274-8.4582z" clip-path="url(#5e86dbd902e)" fill="#fa74a6"/><path d="m304.86 102.89 1.8274-8.4582 1.8274-3.5035h7.3097l1.8274 3.5035 1.8274 8.4582-1.8274 8.4582-1.8274 3.5035h-7.3097l-1.8274-3.5035-1.8274-8.4582z" clip-path="url(#5e86dbd902e)" fill="#fa74a6"/><path d="m290.24 150.74 1.8274-8.4582 1.8274-3.5035h7.3097l1.8274 3.5035 1.8274 8.4582-1.8274 8.4582-1.8274 3.5035h-7.3097l-1.8274-3.5035-1.8274-8.4582z" clip-path="url(#5e86dbd902e)" fill="#fa74a6"/><path d="m304.86 150.74 1.8274-8.4582 1.8274-3.5035h7.3097l1.8274 3.5035 1.8274 8.4582-1.8274 8.4582-1.8274 3.5035h-7.3097l-1.8274-3.5035-1.8274-8.4582z" clip-path="url(#5e86dbd902e)" fill="#fa74a6"/><path d="m319.48 102.89 1.8274-3.0959 1.8274-2.8849 1.8274-2.4773 1.8274-1.9009 1.8274-1.195 1.8274-0.40758h9.1371l1.8274 0.40758 1.8274 1.195 1.8274 1.9009 1.8274 2.4773 1.8274 2.8849 1.8274 3.0959-1.8274 3.0959-1.8274 2.8849-1.8274 2.4773-1.8274 1.9009-1.8274 1.195-1.8274 0.40758h-9.1371l-1.8274-0.40758-1.8274-1.195-1.8274-1.9009-1.8274-2.4773-1.8274-2.8849-1.8274-3.0959z" clip-path="url(#5e86dbd902e)" fill="#6fa4ff"/><path d="m319.48 150.74 1.8274-3.0959 1.8274-2.8849 1.8274-2.4773 1.8274-1.9009 1.8274-1.195 1.8274-0.40758h9.1371l1.8274 0.40758 1.8274 1.195 1.8274 1.9009 1.8274 2.4773 1.8274 2.8849 1.8274 3.0959-1.8274 3.0959-1.8274 2.8849-1.8274 2.4773-1.8274 1.9009-1.8274 1.195-1.8274 0.40758h-9.1371l-1.8274-0.40758-1.8274-1.195-1.8274-1.9009-1.8274-2.4773-1.8274-2.8849-1.8274-3.0959z" clip-path="url(#5e86dbd902e)" fill="#6fa4ff"/><path d="m365.17 102.89 1.8274-8.4582 1.8274-3.5035h7.3097l1.8274 3.5035 1.8274 8.4582-1.8274 8.4582-1.8274 3.5035h-7.3097l-1.8274-3.5035-1.8274-8.4582z" clip-path="url(#5e86dbd902e)" fill="#05bab6"/><path d="m350.55 150.74 1.8274-8.4582 1.8274-3.5035h7.3097l1.8274 3.5035 1.8274 8.4582-1.8274 8.4582-1.8274 3.5035h-7.3097l-1.8274-3.5035-1.8274-8.4582z" clip-path="url(#5e86dbd902e)" fill="#fa74a6"/><path d="m365.17 150.74 1.8274-8.4582 1.8274-3.5035h7.3097l1.8274 3.5035 1.8274 8.4582-1.8274 8.4582-1.8274 3.5035h-7.3097l-1.8274-3.5035-1.8274-8.4582z" clip-path="url(#5e86dbd902e)" fill="#fa74a6"/><path d="m379.79 102.89 1.8274-3.0959 1.8274-2.8849 1.8274-2.4773 1.8274-1.9009 1.8274-1.195 1.8274-0.40758h9.1371l1.8274 0.40758 1.8274 1.195 1.8274 1.9009 1.8274 2.4773 1.8274 2.8849 1.8274 3.0959-1.8274 3.0959-1.8274 2.8849-1.8274 2.4773-1.8274 1.9009-1.8274 1.195-1.8274 0.40758h-9.1371l-1.8274-0.40758-1.8274-1.195-1.8274-1.9009-1.8274-2.4773-1.8274-2.8849-1.8274-3.0959z" clip-path="url(#5e86dbd902e)" fill="#6fa4ff"/><path d="m379.79 150.74 1.8274-3.0959 1.8274-2.8849 1.8274-2.4773 1.8274-1.9009 1.8274-1.195 1.8274-0.40758h9.1371l1.8274 0.40758 1.8274 1.195 1.8274 1.9009 1.8274 2.4773 1.8274 2.8849 1.8274 3.0959-1.8274 3.0959-1.8274 2.8849-1.8274 2.4773-1.8274 1.9009-1.8274 1.195-1.8274 0.40758h-9.1371l-1.8274-0.40758-1.8274-1.195-1.8274-1.9009-1.8274-2.4773-1.8274-2.8849-1.8274-3.0959z" clip-path="url(#5e86dbd902e)" fill="#6fa4ff"/><path d="m410.85 102.89 1.8274-8.4582 1.8274-3.5035h7.3097l1.8274 3.5035 1.8274 8.4582-1.8274 8.4582-1.8274 3.5035h-7.3097l-1.8274-3.5035-1.8274-8.4582z" clip-path="url(#5e86dbd902e)" fill="#05bab6"/><path d="m410.85 150.74 1.8274-8.4582 1.8274-3.5035h7.3097l1.8274 3.5035 1.8274 8.4582-1.8274 8.4582-1.8274 3.5035h-7.3097l-1.8274-3.5035-1.8274-8.4582z" clip-path="url(#5e86dbd902e)" fill="#fa74a6"/><path d="m396.23 198.59 1.8274-8.4582 1.8274-3.5035h7.3097l1.8274 3.5035 1.8274 8.4582-1.8274 8.4582-1.8274 3.5035h-7.3097l-1.8274-3.5035-1.8274-8.4582z" clip-path="url(#5e86dbd902e)" fill="#fa74a6"/><path d="m410.85 198.59 1.8274-8.4582 1.8274-3.5035h7.3097l1.8274 3.5035 1.8274 8.4582-1.8274 8.4582-1.8274 3.5035h-7.3097l-1.8274-3.5035-1.8274-8.4582z" clip-path="url(#5e86dbd902e)" fill="#fa74a6"/><path d="m425.47 198.59 1.8274-3.0959 1.8274-2.8849 1.8274-2.4773 1.8274-1.9009 1.8274-1.195 1.8274-0.40758h9.1371l1.8274 0.40758 1.8274 1.195 1.8274 1.9009 1.8274 2.4773 1.8274 2.8849 1.8274 3.0959-1.8274 3.0959-1.8274 2.8849-1.8274 2.4773-1.8274 1.9009-1.8274 1.195-1.8274 0.40758h-9.1371l-1.8274-0.40758-1.8274-1.195-1.8274-1.9009-1.8274-2.4773-1.8274-2.8849-1.8274-3.0959z" clip-path="url(#5e86dbd902e)" fill="#6fa4ff"/><path d="m425.47 150.74 1.8274-3.0959 1.8274-2.8849 1.8274-2.4773 1.8274-1.9009 1.8274-1.195 1.8274-0.40758h9.1371l1.8274 0.40758 1.8274 1.195 1.8274 1.9009 1.8274 2.4773 1.8274 2.8849 1.8274 3.0959-1.8274 3.0959-1.8274 2.8849-1.8274 2.4773-1.8274 1.9009-1.8274 1.195-1.8274 0.40758h-9.1371l-1.8274-0.40758-1.8274-1.195-1.8274-1.9009-1.8274-2.4773-1.8274-2.8849-1.8274-3.0959z" clip-path="url(#5e86dbd902e)" fill="#6fa4ff"/><path d="m456.54 150.74 1.8274-8.4582 1.8274-3.5035h7.3097l1.8274 3.5035 1.8274 8.4582-1.8274 8.4582-1.8274 3.5035h-7.3097l-1.8274-3.5035-1.8274-8.4582z" clip-path="url(#5e86dbd902e)" fill="#fa74a6"/><path d="m471.16 150.74 1.8274-8.4582 1.8274-3.5035h7.3097l1.8274 3.5035 1.8274 8.4582-1.8274 8.4582-1.8274 3.5035h-7.3097l-1.8274-3.5035-1.8274-8.4582z" clip-path="url(#5e86dbd902e)" fill="#fa74a6"/><path d="m485.78 198.59 1.8274-3.0959 1.8274-2.8849 1.8274-2.4773 1.8274-1.9009 1.8274-1.195 1.8274-0.40758h9.1371l1.8274 0.40758 1.8274 1.195 1.8274 1.9009 1.8274 2.4773 1.8274 2.8849 1.8274 3.0959-1.8274 3.0959-1.8274 2.8849-1.8274 2.4773-1.8274 1.9009-1.8274 1.195-1.8274 0.40758h-9.1371l-1.8274-0.40758-1.8274-1.195-1.8274-1.9009-1.8274-2.4773-1.8274-2.8849-1.8274-3.0959z" clip-path="url(#5e86dbd902e)" fill="#6fa4ff"/><path d="m485.78 150.74 1.8274-3.0959 1.8274-2.8849 1.8274-2.4773 1.8274-1.9009 1.8274-1.195 1.8274-0.40758h9.1371l1.8274 0.40758 1.8274 1.195 1.8274 1.9009 1.8274 2.4773 1.8274 2.8849 1.8274 3.0959-1.8274 3.0959-1.8274 2.8849-1.8274 2.4773-1.8274 1.9009-1.8274 1.195-1.8274 0.40758h-9.1371l-1.8274-0.40758-1.8274-1.195-1.8274-1.9009-1.8274-2.4773-1.8274-2.8849-1.8274-3.0959z" clip-path="url(#5e86dbd902e)" fill="#6fa4ff"/><path d="m516.84 150.74 1.8274-8.4582 1.8274-3.5035h7.3097l1.8274 3.5035 1.8274 8.4582-1.8274 8.4582-1.8274 3.5035h-7.3097l-1.8274-3.5035-1.8274-8.4582z" clip-path="url(#5e86dbd902e)" fill="#fa74a6"/><path d="m290.24 246.43 1.8274-8.4582 1.8274-3.5035h7.3097l1.8274 3.5035 1.8274 8.4582-1.8274 8.4582-1.8274 3.5035h-7.3097l-1.8274-3.5035-1.8274-8.4582z" clip-path="url(#5e86dbd902e)" fill="#fa74a6"/><path d="m304.86 246.43 1.8274-8.4582 1.8274-3.5035h7.3097l1.8274 3.5035 1.8274 8.4582-1.8274 8.4582-1.8274 3.5035h-7.3097l-1.8274-3.5035-1.8274-8.4582z" clip-path="url(#5e86dbd902e)" fill="#fa74a6"/><path d="m319.48 55.047 1.8274-3.0959 1.8274-2.8849 1.8274-2.4773 1.8274-1.9009 1.8274-1.195 1.8274-0.40758h9.1371l1.8274 0.40758 1.8274 1.195 1.8274 1.9009 1.8274 2.4773 1.8274 2.8849 1.8274 3.0959-1.8274 3.0959-1.8274 2.8849-1.8274 2.4773-1.8274 1.9009-1.8274 1.195-1.8274 0.40758h-9.1371l-1.8274-0.40758-1.8274-1.195-1.8274-1.9009-1.8274-2.4773-1.8274-2.8849-1.8274-3.0959z" clip-path="url(#5e86dbd902e)" fill="#6fa4ff"/><path d="m319.48 246.43 1.8274-3.0959 1.8274-2.8849 1.8274-2.4773 1.8274-1.9009 1.8274-1.195 1.8274-0.40758h9.1371l1.8274 0.40758 1.8274 1.195 1.8274 1.9009 1.8274 2.4773 1.8274 2.8849 1.8274 3.0959-1.8274 3.0959-1.8274 2.8849-1.8274 2.4773-1.8274 1.9009-1.8274 1.195-1.8274 0.40758h-9.1371l-1.8274-0.40758-1.8274-1.195-1.8274-1.9009-1.8274-2.4773-1.8274-2.8849-1.8274-3.0959z" clip-path="url(#5e86dbd902e)" fill="#6fa4ff"/><path d="m365.17 55.047 1.8274-8.4582 1.8274-3.5035h7.3097l1.8274 3.5035 1.8274 8.4582-1.8274 8.4582-1.8274 3.5035h-7.3097l-1.8274-3.5035-1.8274-8.4582z" clip-path="url(#5e86dbd902e)" fill="#05bab6"/><path d="m350.55 246.43 1.8274-8.4582 1.8274-3.5035h7.3097l1.8274 3.5035 1.8274 8.4582-1.8274 8.4582-1.8274 3.5035h-7.3097l-1.8274-3.5035-1.8274-8.4582z" clip-path="url(#5e86dbd902e)" fill="#fa74a6"/><path d="m365.17 246.43 1.8274-8.4582 1.8274-3.5035h7.3097l1.8274 3.5035 1.8274 8.4582-1.8274 8.4582-1.8274 3.5035h-7.3097l-1.8274-3.5035-1.8274-8.4582z" clip-path="url(#5e86dbd902e)" fill="#fa74a6"/><path d="m379.79 55.047 1.8274-3.0959 1.8274-2.8849 1.8274-2.4773 1.8274-1.9009 1.8274-1.195 1.8274-0.40758h9.1371l1.8274 0.40758 1.8274 1.195 1.8274 1.9009 1.8274 2.4773 1.8274 2.8849 1.8274 3.0959-1.8274 3.0959-1.8274 2.8849-1.8274 2.4773-1.8274 1.9009-1.8274 1.195-1.8274 0.40758h-9.1371l-1.8274-0.40758-1.8274-1.195-1.8274-1.9009-1.8274-2.4773-1.8274-2.8849-1.8274-3.0959z" clip-path="url(#5e86dbd902e)" fill="#6fa4ff"/><path d="m379.79 246.43 1.8274-3.0959 1.8274-2.8849 1.8274-2.4773 1.8274-1.9009 1.8274-1.195 1.8274-0.40758h9.1371l1.8274 0.40758 1.8274 1.195 1.8274 1.9009 1.8274 2.4773 1.8274 2.8849 1.8274 3.0959-1.8274 3.0959-1.8274 2.8849-1.8274 2.4773-1.8274 1.9009-1.8274 1.195-1.8274 0.40758h-9.1371l-1.8274-0.40758-1.8274-1.195-1.8274-1.9009-1.8274-2.4773-1.8274-2.8849-1.8274-3.0959z" clip-path="url(#5e86dbd902e)" fill="#6fa4ff"/><path d="m410.85 55.047 1.8274-8.4582 1.8274-3.5035h7.3097l1.8274 3.5035 1.8274 8.4582-1.8274 8.4582-1.8274 3.5035h-7.3097l-1.8274-3.5035-1.8274-8.4582z" clip-path="url(#5e86dbd902e)" fill="#fa74a6"/><path d="m425.47 102.89 1.8274-3.0959 1.8274-2.8849 1.8274-2.4773 1.8274-1.9009 1.8274-1.195 1.8274-0.40758h9.1371l1.8274 0.40758 1.8274 1.195 1.8274 1.9009 1.8274 2.4773 1.8274 2.8849 1.8274 3.0959-1.8274 3.0959-1.8274 2.8849-1.8274 2.4773-1.8274 1.9009-1.8274 1.195-1.8274 0.40758h-9.1371l-1.8274-0.40758-1.8274-1.195-1.8274-1.9009-1.8274-2.4773-1.8274-2.8849-1.8274-3.0959z" clip-path="url(#5e86dbd902e)" fill="#6fa4ff"/><path d="m425.47 55.047 1.8274-3.0959 1.8274-2.8849 1.8274-2.4773 1.8274-1.9009 1.8274-1.195 1.8274-0.40758h9.1371l1.8274 0.40758 1.8274 1.195 1.8274 1.9009 1.8274 2.4773 1.8274 2.8849 1.8274 3.0959-1.8274 3.0959-1.8274 2.8849-1.8274 2.4773-1.8274 1.9009-1.8274 1.195-1.8274 0.40758h-9.1371l-1.8274-0.40758-1.8274-1.195-1.8274-1.9009-1.8274-2.4773-1.8274-2.8849-1.8274-3.0959z" clip-path="url(#5e86dbd902e)" fill="#6fa4ff"/><path d="m456.54 55.047 1.8274-8.4582 1.8274-3.5035h7.3097l1.8274 3.5035 1.8274 8.4582-1.8274 8.4582-1.8274 3.5035h-7.3097l-1.8274-3.5035-1.8274-8.4582z" clip-path="url(#5e86dbd902e)" fill="#fa74a6"/><path d="m471.16 55.047 1.8274-8.4582 1.8274-3.5035h7.3097l1.8274 3.5035 1.8274 8.4582-1.8274 8.4582-1.8274 3.5035h-7.3097l-1.8274-3.5035-1.8274-8.4582z" clip-path="url(#5e86dbd902e)" fill="#fa74a6"/><path d="m485.78 102.89 1.8274-3.0959 1.8274-2.8849 1.8274-2.4773 1.8274-1.9009 1.8274-1.195 1.8274-0.40758h9.1371l1.8274 0.40758 1.8274 1.195 1.8274 1.9009 1.8274 2.4773 1.8274 2.8849 1.8274 3.0959-1.8274 3.0959-1.8274 2.8849-1.8274 2.4773-1.8274 1.9009-1.8274 1.195-1.8274 0.40758h-9.1371l-1.8274-0.40758-1.8274-1.195-1.8274-1.9009-1.8274-2.4773-1.8274-2.8849-1.8274-3.0959z" clip-path="url(#5e86dbd902e)" fill="#6fa4ff"/><path d="m485.78 55.047 1.8274-3.0959 1.8274-2.8849 1.8274-2.4773 1.8274-1.9009 1.8274-1.195 1.8274-0.40758h9.1371l1.8274 0.40758 1.8274 1.195 1.8274 1.9009 1.8274 2.4773 1.8274 2.8849 1.8274 3.0959-1.8274 3.0959-1.8274 2.8849-1.8274 2.4773-1.8274 1.9009-1.8274 1.195-1.8274 0.40758h-9.1371l-1.8274-0.40758-1.8274-1.195-1.8274-1.9009-1.8274-2.4773-1.8274-2.8849-1.8274-3.0959z" clip-path="url(#5e86dbd902e)" fill="#6fa4ff"/><path d="m516.84 55.047 1.8274-8.4582 1.8274-3.5035h7.3097l1.8274 3.5035 1.8274 8.4582-1.8274 8.4582-1.8274 3.5035h-7.3097l-1.8274-3.5035-1.8274-8.4582z" clip-path="url(#5e86dbd902e)" fill="#fa74a6"/><path d="m516.84 246.43 1.8274-8.4582 1.8274-3.5035h7.3097l1.8274 3.5035 1.8274 8.4582-1.8274 8.4582-1.8274 3.5035h-7.3097l-1.8274-3.5035-1.8274-8.4582z" clip-path="url(#5e86dbd902e)" fill="#fa74a6"/><path d="m531.46 55.047 1.8274-8.4582 1.8274-3.5035h7.3097l1.8274 3.5035 1.8274 8.4582-1.8274 8.4582-1.8274 3.5035h-7.3097l-1.8274-3.5035-1.8274-8.4582z" clip-path="url(#5e86dbd902e)" fill="#fa74a6"/><path d="m546.08 55.047 1.8274-8.4582 1.8274-3.5035h7.3097l1.8274 3.5035 1.8274 8.4582-1.8274 8.4582-1.8274 3.5035h-7.3097l-1.8274-3.5035-1.8274-8.4582z" clip-path="url(#5e86dbd902e)" fill="#fa74a6"/><path d="m531.46 102.89 1.8274-8.4582 1.8274-3.5035h7.3097l1.8274 3.5035 1.8274 8.4582-1.8274 8.4582-1.8274 3.5035h-7.3097l-1.8274-3.5035-1.8274-8.4582z" clip-path="url(#5e86dbd902e)" fill="#fa74a6"/><path d="m546.08 102.89 1.8274-8.4582 1.8274-3.5035h7.3097l1.8274 3.5035 1.8274 8.4582-1.8274 8.4582-1.8274 3.5035h-7.3097l-1.8274-3.5035-1.8274-8.4582z" clip-path="url(#5e86dbd902e)" fill="#fa74a6"/><path d="m531.46 150.74 1.8274-8.4582 1.8274-3.5035h7.3097l1.8274 3.5035 1.8274 8.4582-1.8274 8.4582-1.8274 3.5035h-7.3097l-1.8274-3.5035-1.8274-8.4582z" clip-path="url(#5e86dbd902e)" fill="#fa74a6"/><path d="m546.08 150.74 1.8274-8.4582 1.8274-3.5035h7.3097l1.8274 3.5035 1.8274 8.4582-1.8274 8.4582-1.8274 3.5035h-7.3097l-1.8274-3.5035-1.8274-8.4582z" clip-path="url(#5e86dbd902e)" fill="#fa74a6"/><path d="m560.7 102.89 1.8274-3.0959 1.8274-2.8849 1.8274-2.4773 1.8274-1.9009 1.8274-1.195 1.8274-0.40758h9.1371l1.8274 0.40758 1.8274 1.195 1.8274 1.9009 1.8274 2.4773 1.8274 2.8849 1.8274 3.0959-1.8274 3.0959-1.8274 2.8849-1.8274 2.4773-1.8274 1.9009-1.8274 1.195-1.8274 0.40758h-9.1371l-1.8274-0.40758-1.8274-1.195-1.8274-1.9009-1.8274-2.4773-1.8274-2.8849-1.8274-3.0959z" clip-path="url(#5e86dbd902e)" fill="#6fa4ff"/><path d="m560.7 150.74 1.8274-3.0959 1.8274-2.8849 1.8274-2.4773 1.8274-1.9009 1.8274-1.195 1.8274-0.40758h9.1371l1.8274 0.40758 1.8274 1.195 1.8274 1.9009 1.8274 2.4773 1.8274 2.8849 1.8274 3.0959-1.8274 3.0959-1.8274 2.8849-1.8274 2.4773-1.8274 1.9009-1.8274 1.195-1.8274 0.40758h-9.1371l-1.8274-0.40758-1.8274-1.195-1.8274-1.9009-1.8274-2.4773-1.8274-2.8849-1.8274-3.0959z" clip-path="url(#5e86dbd902e)" fill="#6fa4ff"/><path d="m606.39 102.89 1.8274-8.4582 1.8274-3.5035h7.3097l1.8274 3.5035 1.8274 8.4582-1.8274 8.4582-1.8274 3.5035h-7.3097l-1.8274-3.5035-1.8274-8.4582z" clip-path="url(#5e86dbd902e)" fill="#05bab6"/><path d="m591.77 150.74 1.8274-8.4582 1.8274-3.5035h7.3097l1.8274 3.5035 1.8274 8.4582-1.8274 8.4582-1.8274 3.5035h-7.3097l-1.8274-3.5035-1.8274-8.4582z" clip-path="url(#5e86dbd902e)" fill="#fa74a6"/><path d="m606.39 150.74 1.8274-8.4582 1.8274-3.5035h7.3097l1.8274 3.5035 1.8274 8.4582-1.8274 8.4582-1.8274 3.5035h-7.3097l-1.8274-3.5035-1.8274-8.4582z" clip-path="url(#5e86dbd902e)" fill="#fa74a6"/><path d="m621.01 102.89 1.8274-3.0959 1.8274-2.8849 1.8274-2.4773 1.8274-1.9009 1.8274-1.195 1.8274-0.40758h9.1371l1.8274 0.40758 1.8274 1.195 1.8274 1.9009 1.8274 2.4773 1.8274 2.8849 1.8274 3.0959-1.8274 3.0959-1.8274 2.8849-1.8274 2.4773-1.8274 1.9009-1.8274 1.195-1.8274 0.40758h-9.1371l-1.8274-0.40758-1.8274-1.195-1.8274-1.9009-1.8274-2.4773-1.8274-2.8849-1.8274-3.0959z" clip-path="url(#5e86dbd902e)" fill="#6fa4ff"/><path d="m621.01 150.74 1.8274-3.0959 1.8274-2.8849 1.8274-2.4773 1.8274-1.9009 1.8274-1.195 1.8274-0.40758h9.1371l1.8274 0.40758 1.8274 1.195 1.8274 1.9009 1.8274 2.4773 1.8274 2.8849 1.8274 3.0959-1.8274 3.0959-1.8274 2.8849-1.8274 2.4773-1.8274 1.9009-1.8274 1.195-1.8274 0.40758h-9.1371l-1.8274-0.40758-1.8274-1.195-1.8274-1.9009-1.8274-2.4773-1.8274-2.8849-1.8274-3.0959z" clip-path="url(#5e86dbd902e)" fill="#6fa4ff"/><path d="m652.07 102.89 1.8274-8.4582 1.8274-3.5035h7.3097l1.8274 3.5035 1.8274 8.4582-1.8274 8.4582-1.8274 3.5035h-7.3097l-1.8274-3.5035-1.8274-8.4582z" clip-path="url(#5e86dbd902e)" fill="#05bab6"/><path d="m652.07 150.74 1.8274-8.4582 1.8274-3.5035h7.3097l1.8274 3.5035 1.8274 8.4582-1.8274 8.4582-1.8274 3.5035h-7.3097l-1.8274-3.5035-1.8274-8.4582z" clip-path="url(#5e86dbd902e)" fill="#fa74a6"/><path d="m637.45 198.59 1.8274-8.4582 1.8274-3.5035h7.3097l1.8274 3.5035 1.8274 8.4582-1.8274 8.4582-1.8274 3.5035h-7.3097l-1.8274-3.5035-1.8274-8.4582z" clip-path="url(#5e86dbd902e)" fill="#fa74a6"/><path d="m652.07 198.59 1.8274-8.4582 1.8274-3.5035h7.3097l1.8274 3.5035 1.8274 8.4582-1.8274 8.4582-1.8274 3.5035h-7.3097l-1.8274-3.5035-1.8274-8.4582z" clip-path="url(#5e86dbd902e)" fill="#fa74a6"/><path d="m666.69 198.59 1.8274-3.0959 1.8274-2.8849 1.8274-2.4773 1.8274-1.9009 1.8274-1.195 1.8274-0.40758h9.1371l1.8274 0.40758 1.8274 1.195 1.8274 1.9009 1.8274 2.4773 1.8274 2.8849 1.8274 3.0959-1.8274 3.0959-1.8274 2.8849-1.8274 2.4773-1.8274 1.9009-1.8274 1.195-1.8274 0.40758h-9.1371l-1.8274-0.40758-1.8274-1.195-1.8274-1.9009-1.8274-2.4773-1.8274-2.8849-1.8274-3.0959z" clip-path="url(#5e86dbd902e)" fill="#6fa4ff"/><path d="m666.69 150.74 1.8274-3.0959 1.8274-2.8849 1.8274-2.4773 1.8274-1.9009 1.8274-1.195 1.8274-0.40758h9.1371l1.8274 0.40758 1.8274 1.195 1.8274 1.9009 1.8274 2.4773 1.8274 2.8849 1.8274 3.0959-1.8274 3.0959-1.8274 2.8849-1.8274 2.4773-1.8274 1.9009-1.8274 1.195-1.8274 0.40758h-9.1371l-1.8274-0.40758-1.8274-1.195-1.8274-1.9009-1.8274-2.4773-1.8274-2.8849-1.8274-3.0959z" clip-path="url(#5e86dbd902e)" fill="#6fa4ff"/><path d="m697.76 150.74 1.8274-8.4582 1.8274-3.5035h7.3097l1.8274 3.5035 1.8274 8.4582-1.8274 8.4582-1.8274 3.5035h-7.3097l-1.8274-3.5035-1.8274-8.4582z" clip-path="url(#5e86dbd902e)" fill="#fa74a6"/><path d="m712.38 150.74 1.8274-8.4582 1.8274-3.5035h7.3097l1.8274 3.5035 1.8274 8.4582-1.8274 8.4582-1.8274 3.5035h-7.3097l-1.8274-3.5035-1.8274-8.4582z" clip-path="url(#5e86dbd902e)" fill="#fa74a6"/><path d="m727 198.59 1.8274-3.0959 1.8274-2.8849 1.8274-2.4773 1.8274-1.9009 1.8274-1.195 1.8274-0.40758h9.1371l1.8274 0.40758 1.8274 1.195 1.8274 1.9009 1.8274 2.4773 1.8274 2.8849 1.8274 3.0959-1.8274 3.0959-1.8274 2.8849-1.8274 2.4773-1.8274 1.9009-1.8274 1.195-1.8274 0.40758h-9.1371l-1.8274-0.40758-1.8274-1.195-1.8274-1.9009-1.8274-2.4773-1.8274-2.8849-1.8274-3.0959z" clip-path="url(#5e86dbd902e)" fill="#6fa4ff"/><path d="m727 150.74 1.8274-3.0959 1.8274-2.8849 1.8274-2.4773 1.8274-1.9009 1.8274-1.195 1.8274-0.40758h9.1371l1.8274 0.40758 1.8274 1.195 1.8274 1.9009 1.8274 2.4773 1.8274 2.8849 1.8274 3.0959-1.8274 3.0959-1.8274 2.8849-1.8274 2.4773-1.8274 1.9009-1.8274 1.195-1.8274 0.40758h-9.1371l-1.8274-0.40758-1.8274-1.195-1.8274-1.9009-1.8274-2.4773-1.8274-2.8849-1.8274-3.0959z" clip-path="url(#5e86dbd902e)" fill="#6fa4ff"/><path d="m758.06 150.74 1.8274-8.4582 1.8274-3.5035h7.3097l1.8274 3.5035 1.8274 8.4582-1.8274 8.4582-1.8274 3.5035h-7.3097l-1.8274-3.5035-1.8274-8.4582z" clip-path="url(#5e86dbd902e)" fill="#fa74a6"/><path d="m531.46 246.43 1.8274-8.4582 1.8274-3.5035h7.3097l1.8274 3.5035 1.8274 8.4582-1.8274 8.4582-1.8274 3.5035h-7.3097l-1.8274-3.5035-1.8274-8.4582z" clip-path="url(#5e86dbd902e)" fill="#fa74a6"/><path d="m546.08 246.43 1.8274-8.4582 1.8274-3.5035h7.3097l1.8274 3.5035 1.8274 8.4582-1.8274 8.4582-1.8274 3.5035h-7.3097l-1.8274-3.5035-1.8274-8.4582z" clip-path="url(#5e86dbd902e)" fill="#fa74a6"/><path d="m560.7 55.047 1.8274-3.0959 1.8274-2.8849 1.8274-2.4773 1.8274-1.9009 1.8274-1.195 1.8274-0.40758h9.1371l1.8274 0.40758 1.8274 1.195 1.8274 1.9009 1.8274 2.4773 1.8274 2.8849 1.8274 3.0959-1.8274 3.0959-1.8274 2.8849-1.8274 2.4773-1.8274 1.9009-1.8274 1.195-1.8274 0.40758h-9.1371l-1.8274-0.40758-1.8274-1.195-1.8274-1.9009-1.8274-2.4773-1.8274-2.8849-1.8274-3.0959z" clip-path="url(#5e86dbd902e)" fill="#6fa4ff"/><path d="m560.7 246.43 1.8274-3.0959 1.8274-2.8849 1.8274-2.4773 1.8274-1.9009 1.8274-1.195 1.8274-0.40758h9.1371l1.8274 0.40758 1.8274 1.195 1.8274 1.9009 1.8274 2.4773 1.8274 2.8849 1.8274 3.0959-1.8274 3.0959-1.8274 2.8849-1.8274 2.4773-1.8274 1.9009-1.8274 1.195-1.8274 0.40758h-9.1371l-1.8274-0.40758-1.8274-1.195-1.8274-1.9009-1.8274-2.4773-1.8274-2.8849-1.8274-3.0959z" clip-path="url(#5e86dbd902e)" fill="#6fa4ff"/><path d="m606.39 55.047 1.8274-8.4582 1.8274-3.5035h7.3097l1.8274 3.5035 1.8274 8.4582-1.8274 8.4582-1.8274 3.5035h-7.3097l-1.8274-3.5035-1.8274-8.4582z" clip-path="url(#5e86dbd902e)" fill="#05bab6"/><path d="m591.77 246.43 1.8274-8.4582 1.8274-3.5035h7.3097l1.8274 3.5035 1.8274 8.4582-1.8274 8.4582-1.8274 3.5035h-7.3097l-1.8274-3.5035-1.8274-8.4582z" clip-path="url(#5e86dbd902e)" fill="#fa74a6"/><path d="m606.39 246.43 1.8274-8.4582 1.8274-3.5035h7.3097l1.8274 3.5035 1.8274 8.4582-1.8274 8.4582-1.8274 3.5035h-7.3097l-1.8274-3.5035-1.8274-8.4582z" clip-path="url(#5e86dbd902e)" fill="#fa74a6"/><path d="m621.01 55.047 1.8274-3.0959 1.8274-2.8849 1.8274-2.4773 1.8274-1.9009 1.8274-1.195 1.8274-0.40758h9.1371l1.8274 0.40758 1.8274 1.195 1.8274 1.9009 1.8274 2.4773 1.8274 2.8849 1.8274 3.0959-1.8274 3.0959-1.8274 2.8849-1.8274 2.4773-1.8274 1.9009-1.8274 1.195-1.8274 0.40758h-9.1371l-1.8274-0.40758-1.8274-1.195-1.8274-1.9009-1.8274-2.4773-1.8274-2.8849-1.8274-3.0959z" clip-path="url(#5e86dbd902e)" fill="#6fa4ff"/><path d="m621.01 246.43 1.8274-3.0959 1.8274-2.8849 1.8274-2.4773 1.8274-1.9009 1.8274-1.195 1.8274-0.40758h9.1371l1.8274 0.40758 1.8274 1.195 1.8274 1.9009 1.8274 2.4773 1.8274 2.8849 1.8274 3.0959-1.8274 3.0959-1.8274 2.8849-1.8274 2.4773-1.8274 1.9009-1.8274 1.195-1.8274 0.40758h-9.1371l-1.8274-0.40758-1.8274-1.195-1.8274-1.9009-1.8274-2.4773-1.8274-2.8849-1.8274-3.0959z" clip-path="url(#5e86dbd902e)" fill="#6fa4ff"/><path d="m652.07 55.047 1.8274-8.4582 1.8274-3.5035h7.3097l1.8274 3.5035 1.8274 8.4582-1.8274 8.4582-1.8274 3.5035h-7.3097l-1.8274-3.5035-1.8274-8.4582z" clip-path="url(#5e86dbd902e)" fill="#fa74a6"/><path d="m666.69 102.89 1.8274-3.0959 1.8274-2.8849 1.8274-2.4773 1.8274-1.9009 1.8274-1.195 1.8274-0.40758h9.1371l1.8274 0.40758 1.8274 1.195 1.8274 1.9009 1.8274 2.4773 1.8274 2.8849 1.8274 3.0959-1.8274 3.0959-1.8274 2.8849-1.8274 2.4773-1.8274 1.9009-1.8274 1.195-1.8274 0.40758h-9.1371l-1.8274-0.40758-1.8274-1.195-1.8274-1.9009-1.8274-2.4773-1.8274-2.8849-1.8274-3.0959z" clip-path="url(#5e86dbd902e)" fill="#6fa4ff"/><path d="m666.69 55.047 1.8274-3.0959 1.8274-2.8849 1.8274-2.4773 1.8274-1.9009 1.8274-1.195 1.8274-0.40758h9.1371l1.8274 0.40758 1.8274 1.195 1.8274 1.9009 1.8274 2.4773 1.8274 2.8849 1.8274 3.0959-1.8274 3.0959-1.8274 2.8849-1.8274 2.4773-1.8274 1.9009-1.8274 1.195-1.8274 0.40758h-9.1371l-1.8274-0.40758-1.8274-1.195-1.8274-1.9009-1.8274-2.4773-1.8274-2.8849-1.8274-3.0959z" clip-path="url(#5e86dbd902e)" fill="#6fa4ff"/><path d="m697.76 55.047 1.8274-8.4582 1.8274-3.5035h7.3097l1.8274 3.5035 1.8274 8.4582-1.8274 8.4582-1.8274 3.5035h-7.3097l-1.8274-3.5035-1.8274-8.4582z" clip-path="url(#5e86dbd902e)" fill="#fa74a6"/><path d="m712.38 55.047 1.8274-8.4582 1.8274-3.5035h7.3097l1.8274 3.5035 1.8274 8.4582-1.8274 8.4582-1.8274 3.5035h-7.3097l-1.8274-3.5035-1.8274-8.4582z" clip-path="url(#5e86dbd902e)" fill="#fa74a6"/><path d="m727 102.89 1.8274-3.0959 1.8274-2.8849 1.8274-2.4773 1.8274-1.9009 1.8274-1.195 1.8274-0.40758h9.1371l1.8274 0.40758 1.8274 1.195 1.8274 1.9009 1.8274 2.4773 1.8274 2.8849 1.8274 3.0959-1.8274 3.0959-1.8274 2.8849-1.8274 2.4773-1.8274 1.9009-1.8274 1.195-1.8274 0.40758h-9.1371l-1.8274-0.40758-1.8274-1.195-1.8274-1.9009-1.8274-2.4773-1.8274-2.8849-1.8274-3.0959z" clip-path="url(#5e86dbd902e)" fill="#6fa4ff"/><path d="m727 55.047 1.8274-3.0959 1.8274-2.8849 1.8274-2.4773 1.8274-1.9009 1.8274-1.195 1.8274-0.40758h9.1371l1.8274 0.40758 1.8274 1.195 1.8274 1.9009 1.8274 2.4773 1.8274 2.8849 1.8274 3.0959-1.8274 3.0959-1.8274 2.8849-1.8274 2.4773-1.8274 1.9009-1.8274 1.195-1.8274 0.40758h-9.1371l-1.8274-0.40758-1.8274-1.195-1.8274-1.9009-1.8274-2.4773-1.8274-2.8849-1.8274-3.0959z" clip-path="url(#5e86dbd902e)" fill="#6fa4ff"/><path d="m758.06 55.047 1.8274-8.4582 1.8274-3.5035h7.3097l1.8274 3.5035 1.8274 8.4582-1.8274 8.4582-1.8274 3.5035h-7.3097l-1.8274-3.5035-1.8274-8.4582z" clip-path="url(#5e86dbd902e)" fill="#fa74a6"/><path d="m758.06 246.43 1.8274-8.4582 1.8274-3.5035h7.3097l1.8274 3.5035 1.8274 8.4582-1.8274 8.4582-1.8274 3.5035h-7.3097l-1.8274-3.5035-1.8274-8.4582z" clip-path="url(#5e86dbd902e)" fill="#fa74a6"/><g transform="translate(37.954 60.014) scale(.18 -.18)"><defs><path id="DejaVuSans-21ba" transform="scale(.015625)" d="m1606 3334q-212-206-312-459-103-253-103-544 0-281 103-534t309-459q188-185 456-307 232-103 528-103 297 0 541 103 256 110 456 307 207 206 310 459t103 534q0 291-103 544-106 253-313 459l-109 110v-1031h-531v1737l200 200h1737v-531h-1031l109-110q282-281 428-631 144-350 144-747 0-387-144-737-150-353-428-631-262-260-625-422-322-144-737-144-400 0-738 144-350 150-625 422-278 278-428 631-144 350-144 737 0 397 144 747 141 335 428 631l375-375z"/></defs><use transform="translate(19.482 .03125)" xlink:href="#DejaVuSans-21ba"/></g><g transform="translate(52.574 60.014) scale(.18 -.18)"><use transform="translate(19.482 .03125)" xlink:href="#DejaVuSans-21ba"/></g><g transform="translate(37.954 107.86) scale(.18 -.18)"><use transform="translate(19.482 .03125)" xlink:href="#DejaVuSans-21ba"/></g><g transform="translate(52.574 107.86) scale(.18 -.18)"><use transform="translate(19.482 .03125)" xlink:href="#DejaVuSans-21ba"/></g><g transform="translate(37.954 155.71) scale(.18 -.18)"><use transform="translate(19.482 .03125)" xlink:href="#DejaVuSans-21ba"/></g><g transform="translate(52.574 155.71) scale(.18 -.18)"><use transform="translate(19.482 .03125)" xlink:href="#DejaVuSans-21ba"/></g><g transform="translate(127.5 107.86) scale(.18 -.18)"><use transform="translate(19.482 .03125)" xlink:href="#DejaVuSans-21ba"/></g><g transform="translate(98.259 155.71) scale(.18 -.18)"><use transform="translate(19.482 .03125)" xlink:href="#DejaVuSans-21ba"/></g><g transform="translate(112.88 155.71) scale(.18 -.18)"><use transform="translate(19.482 .03125)" xlink:href="#DejaVuSans-21ba"/></g><g transform="translate(158.56 155.71) scale(.18 -.18)"><use transform="translate(19.482 .03125)" xlink:href="#DejaVuSans-21ba"/></g><g transform="translate(173.18 155.71) scale(.18 -.18)"><use transform="translate(19.482 .03125)" xlink:href="#DejaVuSans-21ba"/></g><g transform="translate(143.94 203.55) scale(.18 -.18)"><use transform="translate(19.482 .03125)" xlink:href="#DejaVuSans-21ba"/></g><g transform="translate(158.56 203.55) scale(.18 -.18)"><use transform="translate(19.482 .03125)" xlink:href="#DejaVuSans-21ba"/></g><g transform="translate(173.18 203.55) scale(.18 -.18)"><use transform="translate(19.482 .03125)" xlink:href="#DejaVuSans-21ba"/></g><g transform="translate(218.87 155.71) scale(.18 -.18)"><use transform="translate(19.482 .03125)" xlink:href="#DejaVuSans-21ba"/></g><g transform="translate(233.49 155.71) scale(.18 -.18)"><use transform="translate(19.482 .03125)" xlink:href="#DejaVuSans-21ba"/></g><g transform="translate(279.17 155.71) scale(.18 -.18)"><use transform="translate(19.482 .03125)" xlink:href="#DejaVuSans-21ba"/></g><g transform="translate(37.954 251.4) scale(.18 -.18)"><use transform="translate(19.482 .03125)" xlink:href="#DejaVuSans-21ba"/></g><g transform="translate(52.574 251.4) scale(.18 -.18)"><use transform="translate(19.482 .03125)" xlink:href="#DejaVuSans-21ba"/></g><g transform="translate(127.5 60.014) scale(.18 -.18)"><use transform="translate(19.482 .03125)" xlink:href="#DejaVuSans-21ba"/></g><g transform="translate(98.259 251.4) scale(.18 -.18)"><use transform="translate(19.482 .03125)" xlink:href="#DejaVuSans-21ba"/></g><g transform="translate(112.88 251.4) scale(.18 -.18)"><use transform="translate(19.482 .03125)" xlink:href="#DejaVuSans-21ba"/></g><g transform="translate(173.18 60.014) scale(.18 -.18)"><use transform="translate(19.482 .03125)" xlink:href="#DejaVuSans-21ba"/></g><g transform="translate(218.87 60.014) scale(.18 -.18)"><use transform="translate(19.482 .03125)" xlink:href="#DejaVuSans-21ba"/></g><g transform="translate(233.49 60.014) scale(.18 -.18)"><use transform="translate(19.482 .03125)" xlink:href="#DejaVuSans-21ba"/></g><g transform="translate(279.17 60.014) scale(.18 -.18)"><use transform="translate(19.482 .03125)" xlink:href="#DejaVuSans-21ba"/></g><g transform="translate(279.17 251.4) scale(.18 -.18)"><use transform="translate(19.482 .03125)" xlink:href="#DejaVuSans-21ba"/></g><g transform="translate(293.79 60.014) scale(.18 -.18)"><use transform="translate(19.482 .03125)" xlink:href="#DejaVuSans-21ba"/></g><g transform="translate(279.17 107.86) scale(.18 -.18)"><use transform="translate(19.482 .03125)" xlink:href="#DejaVuSans-21ba"/></g><g transform="translate(293.79 107.86) scale(.18 -.18)"><use transform="translate(19.482 .03125)" xlink:href="#DejaVuSans-21ba"/></g><g transform="translate(293.79 155.71) scale(.18 -.18)"><use transform="translate(19.482 .03125)" xlink:href="#DejaVuSans-21ba"/></g><g transform="translate(368.72 107.86) scale(.18 -.18)"><use transform="translate(19.482 .03125)" xlink:href="#DejaVuSans-21ba"/></g><g transform="translate(339.48 155.71) scale(.18 -.18)"><use transform="translate(19.482 .03125)" xlink:href="#DejaVuSans-21ba"/></g><g transform="translate(354.1 155.71) scale(.18 -.18)"><use transform="translate(19.482 .03125)" xlink:href="#DejaVuSans-21ba"/></g><g transform="translate(399.78 155.71) scale(.18 -.18)"><use transform="translate(19.482 .03125)" xlink:href="#DejaVuSans-21ba"/></g><g transform="translate(414.4 155.71) scale(.18 -.18)"><use transform="translate(19.482 .03125)" xlink:href="#DejaVuSans-21ba"/></g><g transform="translate(385.16 203.55) scale(.18 -.18)"><use transform="translate(19.482 .03125)" xlink:href="#DejaVuSans-21ba"/></g><g transform="translate(399.78 203.55) scale(.18 -.18)"><use transform="translate(19.482 .03125)" xlink:href="#DejaVuSans-21ba"/></g><g transform="translate(414.4 203.55) scale(.18 -.18)"><use transform="translate(19.482 .03125)" xlink:href="#DejaVuSans-21ba"/></g><g transform="translate(460.09 155.71) scale(.18 -.18)"><use transform="translate(19.482 .03125)" xlink:href="#DejaVuSans-21ba"/></g><g transform="translate(474.71 155.71) scale(.18 -.18)"><use transform="translate(19.482 .03125)" xlink:href="#DejaVuSans-21ba"/></g><g transform="translate(520.39 155.71) scale(.18 -.18)"><use transform="translate(19.482 .03125)" xlink:href="#DejaVuSans-21ba"/></g><g transform="translate(293.79 251.4) scale(.18 -.18)"><use transform="translate(19.482 .03125)" xlink:href="#DejaVuSans-21ba"/></g><g transform="translate(368.72 60.014) scale(.18 -.18)"><use transform="translate(19.482 .03125)" xlink:href="#DejaVuSans-21ba"/></g><g transform="translate(339.48 251.4) scale(.18 -.18)"><use transform="translate(19.482 .03125)" xlink:href="#DejaVuSans-21ba"/></g><g transform="translate(354.1 251.4) scale(.18 -.18)"><use transform="translate(19.482 .03125)" xlink:href="#DejaVuSans-21ba"/></g><g transform="translate(414.4 60.014) scale(.18 -.18)"><use transform="translate(19.482 .03125)" xlink:href="#DejaVuSans-21ba"/></g><g transform="translate(460.09 60.014) scale(.18 -.18)"><use transform="translate(19.482 .03125)" xlink:href="#DejaVuSans-21ba"/></g><g transform="translate(474.71 60.014) scale(.18 -.18)"><use transform="translate(19.482 .03125)" xlink:href="#DejaVuSans-21ba"/></g><g transform="translate(520.39 60.014) scale(.18 -.18)"><use transform="translate(19.482 .03125)" xlink:href="#DejaVuSans-21ba"/></g><g transform="translate(520.39 251.4) scale(.18 -.18)"><use transform="translate(19.482 .03125)" xlink:href="#DejaVuSans-21ba"/></g><g transform="translate(535.01 60.014) scale(.18 -.18)"><use transform="translate(19.482 .03125)" xlink:href="#DejaVuSans-21ba"/></g><g transform="translate(520.39 107.86) scale(.18 -.18)"><use transform="translate(19.482 .03125)" xlink:href="#DejaVuSans-21ba"/></g><g transform="translate(535.01 107.86) scale(.18 -.18)"><use transform="translate(19.482 .03125)" xlink:href="#DejaVuSans-21ba"/></g><g transform="translate(535.01 155.71) scale(.18 -.18)"><use transform="translate(19.482 .03125)" xlink:href="#DejaVuSans-21ba"/></g><g transform="translate(609.94 107.86) scale(.18 -.18)"><use transform="translate(19.482 .03125)" xlink:href="#DejaVuSans-21ba"/></g><g transform="translate(580.7 155.71) scale(.18 -.18)"><use transform="translate(19.482 .03125)" xlink:href="#DejaVuSans-21ba"/></g><g transform="translate(595.32 155.71) scale(.18 -.18)"><use transform="translate(19.482 .03125)" xlink:href="#DejaVuSans-21ba"/></g><g transform="translate(641 155.71) scale(.18 -.18)"><use transform="translate(19.482 .03125)" xlink:href="#DejaVuSans-21ba"/></g><g transform="translate(655.62 155.71) scale(.18 -.18)"><use transform="translate(19.482 .03125)" xlink:href="#DejaVuSans-21ba"/></g><g transform="translate(626.38 203.55) scale(.18 -.18)"><use transform="translate(19.482 .03125)" xlink:href="#DejaVuSans-21ba"/></g><g transform="translate(641 203.55) scale(.18 -.18)"><use transform="translate(19.482 .03125)" xlink:href="#DejaVuSans-21ba"/></g><g transform="translate(655.62 203.55) scale(.18 -.18)"><use transform="translate(19.482 .03125)" xlink:href="#DejaVuSans-21ba"/></g><g transform="translate(701.31 155.71) scale(.18 -.18)"><use transform="translate(19.482 .03125)" xlink:href="#DejaVuSans-21ba"/></g><g transform="translate(715.93 155.71) scale(.18 -.18)"><use transform="translate(19.482 .03125)" xlink:href="#DejaVuSans-21ba"/></g><g transform="translate(761.61 155.71) scale(.18 -.18)"><use transform="translate(19.482 .03125)" xlink:href="#DejaVuSans-21ba"/></g><g transform="translate(535.01 251.4) scale(.18 -.18)"><use transform="translate(19.482 .03125)" xlink:href="#DejaVuSans-21ba"/></g><g transform="translate(609.94 60.014) scale(.18 -.18)"><use transform="translate(19.482 .03125)" xlink:href="#DejaVuSans-21ba"/></g><g transform="translate(580.7 251.4) scale(.18 -.18)"><use transform="translate(19.482 .03125)" xlink:href="#DejaVuSans-21ba"/></g><g transform="translate(595.32 251.4) scale(.18 -.18)"><use transform="translate(19.482 .03125)" xlink:href="#DejaVuSans-21ba"/></g><g transform="translate(655.62 60.014) scale(.18 -.18)"><use transform="translate(19.482 .03125)" xlink:href="#DejaVuSans-21ba"/></g><g transform="translate(701.31 60.014) scale(.18 -.18)"><use transform="translate(19.482 .03125)" xlink:href="#DejaVuSans-21ba"/></g><g transform="translate(715.93 60.014) scale(.18 -.18)"><use transform="translate(19.482 .03125)" xlink:href="#DejaVuSans-21ba"/></g><g transform="translate(761.61 60.014) scale(.18 -.18)"><use transform="translate(19.482 .03125)" xlink:href="#DejaVuSans-21ba"/></g><g transform="translate(761.61 251.4) scale(.18 -.18)"><use transform="translate(19.482 .03125)" xlink:href="#DejaVuSans-21ba"/></g><g transform="translate(7.8 59.155) scale(.15 -.15)"><defs><path id="DejaVuSans-71" transform="scale(.015625)" d="m947 1747q0-634 261-995t717-361 718 361q263 361 263 995t-263 995q-262 361-718 361t-717-361-261-995zm1959-1222q-181-312-458-464-276-152-664-152-634 0-1033 506-398 507-398 1332t398 1331q399 506 1033 506 388 0 664-152 277-151 458-463v531h575v-4831h-575v1856z"/><path id="DejaVuSans-39" transform="scale(.015625)" d="m703 97v575q238-113 481-172 244-59 479-59 625 0 954 420 330 420 377 1277-181-269-460-413-278-144-615-144-700 0-1108 423-408 424-408 1159 0 718 425 1152 425 435 1131 435 810 0 1236-621 427-620 427-1801 0-1103-524-1761-523-658-1407-658-238 0-482 47-243 47-506 141zm1256 1978q425 0 673 290 249 291 249 798 0 503-249 795-248 292-673 292t-673-292-248-795q0-507 248-798 248-290 673-290z"/></defs><use xlink:href="#DejaVuSans-71"/><use transform="translate(64.434 -16.406) scale(.7)" xlink:href="#DejaVuSans-35"/><use transform="translate(105.12 -16.406) scale(.7)" xlink:href="#DejaVuSans-39"/></g><g transform="translate(7.2 107) scale(.15 -.15)"><use xlink:href="#DejaVuSans-71"/><use transform="translate(64.434 -16.406) scale(.7)" xlink:href="#DejaVuSans-36"/><use transform="translate(108.97 -16.406) scale(.7)" xlink:href="#DejaVuSans-30"/></g><g transform="translate(7.2 154.85) scale(.15 -.15)"><use xlink:href="#DejaVuSans-71"/><use transform="translate(64.434 -16.406) scale(.7)" xlink:href="#DejaVuSans-36"/><use transform="translate(108.97 -16.406) scale(.7)" xlink:href="#DejaVuSans-31"/></g><g transform="translate(7.2 202.7) scale(.15 -.15)"><use xlink:href="#DejaVuSans-71"/><use transform="translate(64.434 -16.406) scale(.7)" xlink:href="#DejaVuSans-36"/><use transform="translate(108.97 -16.406) scale(.7)" xlink:href="#DejaVuSans-32"/></g><g transform="translate(7.2 250.54) scale(.15 -.15)"><defs><path id="DejaVuSans-37" transform="scale(.015625)" d="m525 4666h3e3v-269l-1694-4397h-659l1594 4134h-2241v532z"/></defs><use xlink:href="#DejaVuSans-71"/><use transform="translate(64.434 -16.406) scale(.7)" xlink:href="#DejaVuSans-37"/><use transform="translate(108.97 -16.406) scale(.7)" xlink:href="#DejaVuSans-32"/></g><defs><clipPath id="5e86dbd902e"><rect x="30.75" y="7.2" width="950.26" height="287.08"/></clipPath></defs></svg>