<?xml version='1.0' encoding='utf-8'?>
<svg xmlns="http://www.w3.org/2000/svg" xmlns:ns1="http://sodipodi.sourceforge.net/DTD/sodipodi-0.dtd" xmlns:ns2="http://www.inkscape.org/namespaces/inkscape" version="1.1" id="svg1" width="100%" height="auto" viewBox="-20.0 -20.0 430.32263 187.44424" ns1:docname="svg_fix_XXXXXX.svg">
  <rect id="path1" x="-20.0" y="-20.0" width="430.32263" height="187.44424" fill="white" /><ns1:namedview id="namedview1" pagecolor="#ffffff" bordercolor="#000000" borderopacity="0.25" ns2:showpageshadow="2" ns2:pageopacity="0.0" ns2:pagecheckerboard="0" ns2:deskcolor="#d1d1d1" />
  <defs id="defs1" />
  <g id="g1" transform="translate(-104.37969,-34.580527)">
    <path id="path2" d="M -19.84276,-28.3468 H 19.84276 V 28.34682 H -19.84276 Z" style="fill:#78a9ff;fill-opacity:1;fill-rule:nonzero;stroke:#78a9ff;stroke-width:0.3985;stroke-linecap:butt;stroke-linejoin:miter;stroke-miterlimit:10;stroke-dasharray:none;stroke-opacity:1" transform="matrix(2,0,0,-2,183.70867,91.672667)" />
    <path id="path3" d="m 5.3116198,-4.5710521 c 0.1015625,-0.390625 0.28125,-0.5859375 0.84375,-0.609375 0.085937,0 0.1484375,-0.046875 0.1484375,-0.1484375 0,-0.054687 -0.039063,-0.1171875 -0.1171875,-0.1171875 -0.046875,0 -0.21875,0.023437 -0.7890625,0.023437 -0.640625,0 -0.7421875,-0.023437 -0.8125,-0.023437 -0.1328125,0 -0.15625,0.09375 -0.15625,0.15625 0,0.1015625 0.1015625,0.109375 0.1796875,0.109375 0.484375,0.015625 0.484375,0.234375 0.484375,0.34375 0,0.046875 -0.00781,0.085937 -0.015625,0.1328125 -0.015625,0.054687 -0.6796875,2.7265625 -0.7109375,2.828125 -0.2890625,1.14843752 -1.2890625,1.78125002 -2.078125,1.78125002 -0.5546875,0 -1.046875,-0.328125 -1.046875,-1.06250002 0,-0.1328125 0.023437,-0.3515625 0.054687,-0.4765625 l 0.796875,-3.1875 c 0.070312,-0.2890625 0.085937,-0.359375 0.671875,-0.359375 0.15625,0 0.2578125,0 0.2578125,-0.1484375 0,-0.00781 -0.00781,-0.1171875 -0.140625,-0.1171875 -0.1484375,0 -0.34375,0.015625 -0.4921875,0.023437 h -0.5 c -0.765625,0 -0.97656251,-0.023437 -1.03125001,-0.023437 -0.03125,0 -0.15625,0 -0.15625,0.15625 0,0.109375 0.1015625,0.109375 0.2265625,0.109375 0.26562501,0 0.50000001,0 0.50000001,0.125 0,0.046875 -0.078125,0.3359375 -0.125,0.5 l -0.171875,0.6953125 -0.41406251,1.6953125 c -0.109375,0.4375 -0.1484375,0.5546875 -0.1484375,0.765625 0,0.93750002 0.73437501,1.56250002 1.68750001,1.56250002 1.078125,0 2.1015625,-0.9140625 2.359375,-1.93750002 z m 0,0" style="fill:#ffffff;fill-opacity:1;fill-rule:nonzero;stroke:none" aria-label="U" transform="matrix(2,0,0,2,177.13067,97.118667)" />
    <path id="path4" d="M -39.66449,-22.67744 H -20.042" style="fill:none;stroke:#121619;stroke-width:0.3985;stroke-linecap:butt;stroke-linejoin:miter;stroke-miterlimit:10;stroke-dasharray:none;stroke-opacity:1" transform="matrix(2,0,0,-2,183.70867,91.672667)" />
    <path id="path5" d="M 39.66449,-22.67744 H 20.042" style="fill:none;stroke:#121619;stroke-width:0.3985;stroke-linecap:butt;stroke-linejoin:miter;stroke-miterlimit:10;stroke-dasharray:none;stroke-opacity:1" transform="matrix(2,0,0,-2,183.70867,91.672667)" />
    <path id="path6" d="M -39.66449,-18.42542 H -20.042" style="fill:none;stroke:#121619;stroke-width:0.3985;stroke-linecap:butt;stroke-linejoin:miter;stroke-miterlimit:10;stroke-dasharray:none;stroke-opacity:1" transform="matrix(2,0,0,-2,183.70867,91.672667)" />
    <path id="path7" d="M 39.66449,-18.42542 H 20.042" style="fill:none;stroke:#121619;stroke-width:0.3985;stroke-linecap:butt;stroke-linejoin:miter;stroke-miterlimit:10;stroke-dasharray:none;stroke-opacity:1" transform="matrix(2,0,0,-2,183.70867,91.672667)" />
    <path id="path8" d="M -39.66449,-14.17339 H -20.042" style="fill:none;stroke:#121619;stroke-width:0.3985;stroke-linecap:butt;stroke-linejoin:miter;stroke-miterlimit:10;stroke-dasharray:none;stroke-opacity:1" transform="matrix(2,0,0,-2,183.70867,91.672667)" />
    <path id="path9" d="M 39.66449,-14.17339 H 20.042" style="fill:none;stroke:#121619;stroke-width:0.3985;stroke-linecap:butt;stroke-linejoin:miter;stroke-miterlimit:10;stroke-dasharray:none;stroke-opacity:1" transform="matrix(2,0,0,-2,183.70867,91.672667)" />
    <path id="path10" d="M -39.66449,-9.92137 H -20.042" style="fill:none;stroke:#121619;stroke-width:0.3985;stroke-linecap:butt;stroke-linejoin:miter;stroke-miterlimit:10;stroke-dasharray:none;stroke-opacity:1" transform="matrix(2,0,0,-2,183.70867,91.672667)" />
    <path id="path11" d="M 39.66449,-9.92137 H 20.042" style="fill:none;stroke:#121619;stroke-width:0.3985;stroke-linecap:butt;stroke-linejoin:miter;stroke-miterlimit:10;stroke-dasharray:none;stroke-opacity:1" transform="matrix(2,0,0,-2,183.70867,91.672667)" />
    <path id="path12" d="M -39.66449,-5.66934 H -20.042" style="fill:none;stroke:#121619;stroke-width:0.3985;stroke-linecap:butt;stroke-linejoin:miter;stroke-miterlimit:10;stroke-dasharray:none;stroke-opacity:1" transform="matrix(2,0,0,-2,183.70867,91.672667)" />
    <path id="path13" d="M 39.66449,-5.66934 H 20.042" style="fill:none;stroke:#121619;stroke-width:0.3985;stroke-linecap:butt;stroke-linejoin:miter;stroke-miterlimit:10;stroke-dasharray:none;stroke-opacity:1" transform="matrix(2,0,0,-2,183.70867,91.672667)" />
    <path id="path14" d="M -39.66449,-1.41731 H -20.042" style="fill:none;stroke:#121619;stroke-width:0.3985;stroke-linecap:butt;stroke-linejoin:miter;stroke-miterlimit:10;stroke-dasharray:none;stroke-opacity:1" transform="matrix(2,0,0,-2,183.70867,91.672667)" />
    <path id="path15" d="M 39.66449,-1.41731 H 20.042" style="fill:none;stroke:#121619;stroke-width:0.3985;stroke-linecap:butt;stroke-linejoin:miter;stroke-miterlimit:10;stroke-dasharray:none;stroke-opacity:1" transform="matrix(2,0,0,-2,183.70867,91.672667)" />
    <path id="path16" d="M -39.66449,2.83466 H -20.042" style="fill:none;stroke:#121619;stroke-width:0.3985;stroke-linecap:butt;stroke-linejoin:miter;stroke-miterlimit:10;stroke-dasharray:none;stroke-opacity:1" transform="matrix(2,0,0,-2,183.70867,91.672667)" />
    <path id="path17" d="M 39.66449,2.83466 H 20.042" style="fill:none;stroke:#121619;stroke-width:0.3985;stroke-linecap:butt;stroke-linejoin:miter;stroke-miterlimit:10;stroke-dasharray:none;stroke-opacity:1" transform="matrix(2,0,0,-2,183.70867,91.672667)" />
    <path id="path18" d="M -39.66449,7.08669 H -20.042" style="fill:none;stroke:#121619;stroke-width:0.3985;stroke-linecap:butt;stroke-linejoin:miter;stroke-miterlimit:10;stroke-dasharray:none;stroke-opacity:1" transform="matrix(2,0,0,-2,183.70867,91.672667)" />
    <path id="path19" d="M 39.66449,7.08669 H 20.042" style="fill:none;stroke:#121619;stroke-width:0.3985;stroke-linecap:butt;stroke-linejoin:miter;stroke-miterlimit:10;stroke-dasharray:none;stroke-opacity:1" transform="matrix(2,0,0,-2,183.70867,91.672667)" />
    <path id="path20" d="M -39.66449,11.33871 H -20.042" style="fill:none;stroke:#121619;stroke-width:0.3985;stroke-linecap:butt;stroke-linejoin:miter;stroke-miterlimit:10;stroke-dasharray:none;stroke-opacity:1" transform="matrix(2,0,0,-2,183.70867,91.672667)" />
    <path id="path21" d="M 39.66449,11.33871 H 20.042" style="fill:none;stroke:#121619;stroke-width:0.3985;stroke-linecap:butt;stroke-linejoin:miter;stroke-miterlimit:10;stroke-dasharray:none;stroke-opacity:1" transform="matrix(2,0,0,-2,183.70867,91.672667)" />
    <path id="path22" d="M -39.66449,15.59073 H -20.042" style="fill:none;stroke:#121619;stroke-width:0.3985;stroke-linecap:butt;stroke-linejoin:miter;stroke-miterlimit:10;stroke-dasharray:none;stroke-opacity:1" transform="matrix(2,0,0,-2,183.70867,91.672667)" />
    <path id="path23" d="M 39.66449,15.59073 H 20.042" style="fill:none;stroke:#121619;stroke-width:0.3985;stroke-linecap:butt;stroke-linejoin:miter;stroke-miterlimit:10;stroke-dasharray:none;stroke-opacity:1" transform="matrix(2,0,0,-2,183.70867,91.672667)" />
    <path id="path24" d="M -39.66449,19.84276 H -20.042" style="fill:none;stroke:#121619;stroke-width:0.3985;stroke-linecap:butt;stroke-linejoin:miter;stroke-miterlimit:10;stroke-dasharray:none;stroke-opacity:1" transform="matrix(2,0,0,-2,183.70867,91.672667)" />
    <path id="path25" d="M 39.66449,19.84276 H 20.042" style="fill:none;stroke:#121619;stroke-width:0.3985;stroke-linecap:butt;stroke-linejoin:miter;stroke-miterlimit:10;stroke-dasharray:none;stroke-opacity:1" transform="matrix(2,0,0,-2,183.70867,91.672667)" />
    <path id="path26" d="M -39.66449,42.5202 H 39.66449" style="fill:none;stroke:#121619;stroke-width:0.3985;stroke-linecap:butt;stroke-linejoin:miter;stroke-miterlimit:10;stroke-dasharray:none;stroke-opacity:1" transform="matrix(2,0,0,-2,415.37333,124.93267)" />
    <path id="path27" d="M -19.84276,-28.3468 H 19.84276 V 28.34682 H -19.84276 Z" style="fill:#78a9ff;fill-opacity:1;fill-rule:nonzero;stroke:#78a9ff;stroke-width:0.3985;stroke-linecap:butt;stroke-linejoin:miter;stroke-miterlimit:10;stroke-dasharray:none;stroke-opacity:1" transform="matrix(2,0,0,-2,415.37333,124.93267)" />
    <path id="path28" d="m 5.3132708,-4.5701927 c 0.1015625,-0.390625 0.28125,-0.5859375 0.84375,-0.609375 0.085937,0 0.1484375,-0.046875 0.1484375,-0.1484375 0,-0.054687 -0.039063,-0.1171875 -0.1171875,-0.1171875 -0.046875,0 -0.21875,0.023437 -0.7890625,0.023437 -0.640625,0 -0.7421875,-0.023437 -0.8125,-0.023437 -0.1328125,0 -0.15625,0.09375 -0.15625,0.15625 0,0.1015625 0.1015625,0.109375 0.1796875,0.109375 0.484375,0.015625 0.484375,0.234375 0.484375,0.34375 0,0.046875 -0.00781,0.085937 -0.015625,0.1328125 -0.015625,0.054687 -0.6796875,2.7265625 -0.7109375,2.828125 -0.2890625,1.14843749 -1.2890625,1.78124999 -2.078125,1.78124999 -0.5546875,0 -1.046875,-0.328125 -1.046875,-1.06249999 0,-0.1328125 0.023437,-0.3515625 0.054687,-0.4765625 l 0.796875,-3.1875 c 0.070312,-0.2890625 0.085937,-0.359375 0.671875,-0.359375 0.15625,0 0.2578125,0 0.2578125,-0.1484375 0,-0.00781 -0.00781,-0.1171875 -0.140625,-0.1171875 -0.1484375,0 -0.34375,0.015625 -0.4921875,0.023437 h -0.5 c -0.765625,0 -0.97656247,-0.023437 -1.03124997,-0.023437 -0.03125,0 -0.15625,0 -0.15625,0.15625 0,0.109375 0.1015625,0.109375 0.2265625,0.109375 0.26562497,0 0.49999997,0 0.49999997,0.125 0,0.046875 -0.078125,0.3359375 -0.125,0.5 l -0.171875,0.6953125 -0.41406247,1.6953125 c -0.109375,0.4375 -0.1484375,0.5546875 -0.1484375,0.765625 0,0.93749999 0.73437497,1.56249999 1.68749997,1.56249999 1.078125,0 2.1015625,-0.9140625 2.359375,-1.93749999 z m 0,0" style="fill:#ffffff;fill-opacity:1;fill-rule:nonzero;stroke:none" aria-label="U" transform="matrix(2,0,0,2,408.79533,130.37867)" />
    <path id="path29" d="M -39.66449,-22.67744 H -20.042" style="fill:none;stroke:#121619;stroke-width:0.3985;stroke-linecap:butt;stroke-linejoin:miter;stroke-miterlimit:10;stroke-dasharray:none;stroke-opacity:1" transform="matrix(2,0,0,-2,415.37333,124.93267)" />
    <path id="path30" d="M 39.66449,-22.67744 H 20.042" style="fill:none;stroke:#121619;stroke-width:0.3985;stroke-linecap:butt;stroke-linejoin:miter;stroke-miterlimit:10;stroke-dasharray:none;stroke-opacity:1" transform="matrix(2,0,0,-2,415.37333,124.93267)" />
    <path id="path31" d="M -39.66449,-18.42542 H -20.042" style="fill:none;stroke:#121619;stroke-width:0.3985;stroke-linecap:butt;stroke-linejoin:miter;stroke-miterlimit:10;stroke-dasharray:none;stroke-opacity:1" transform="matrix(2,0,0,-2,415.37333,124.93267)" />
    <path id="path32" d="M 39.66449,-18.42542 H 20.042" style="fill:none;stroke:#121619;stroke-width:0.3985;stroke-linecap:butt;stroke-linejoin:miter;stroke-miterlimit:10;stroke-dasharray:none;stroke-opacity:1" transform="matrix(2,0,0,-2,415.37333,124.93267)" />
    <path id="path33" d="M -39.66449,-14.17339 H -20.042" style="fill:none;stroke:#121619;stroke-width:0.3985;stroke-linecap:butt;stroke-linejoin:miter;stroke-miterlimit:10;stroke-dasharray:none;stroke-opacity:1" transform="matrix(2,0,0,-2,415.37333,124.93267)" />
    <path id="path34" d="M 39.66449,-14.17339 H 20.042" style="fill:none;stroke:#121619;stroke-width:0.3985;stroke-linecap:butt;stroke-linejoin:miter;stroke-miterlimit:10;stroke-dasharray:none;stroke-opacity:1" transform="matrix(2,0,0,-2,415.37333,124.93267)" />
    <path id="path35" d="M -39.66449,-9.92137 H -20.042" style="fill:none;stroke:#121619;stroke-width:0.3985;stroke-linecap:butt;stroke-linejoin:miter;stroke-miterlimit:10;stroke-dasharray:none;stroke-opacity:1" transform="matrix(2,0,0,-2,415.37333,124.93267)" />
    <path id="path36" d="M 39.66449,-9.92137 H 20.042" style="fill:none;stroke:#121619;stroke-width:0.3985;stroke-linecap:butt;stroke-linejoin:miter;stroke-miterlimit:10;stroke-dasharray:none;stroke-opacity:1" transform="matrix(2,0,0,-2,415.37333,124.93267)" />
    <path id="path37" d="M -39.66449,-5.66934 H -20.042" style="fill:none;stroke:#121619;stroke-width:0.3985;stroke-linecap:butt;stroke-linejoin:miter;stroke-miterlimit:10;stroke-dasharray:none;stroke-opacity:1" transform="matrix(2,0,0,-2,415.37333,124.93267)" />
    <path id="path38" d="M 39.66449,-5.66934 H 20.042" style="fill:none;stroke:#121619;stroke-width:0.3985;stroke-linecap:butt;stroke-linejoin:miter;stroke-miterlimit:10;stroke-dasharray:none;stroke-opacity:1" transform="matrix(2,0,0,-2,415.37333,124.93267)" />
    <path id="path39" d="M -39.66449,-1.41731 H -20.042" style="fill:none;stroke:#121619;stroke-width:0.3985;stroke-linecap:butt;stroke-linejoin:miter;stroke-miterlimit:10;stroke-dasharray:none;stroke-opacity:1" transform="matrix(2,0,0,-2,415.37333,124.93267)" />
    <path id="path40" d="M 39.66449,-1.41731 H 20.042" style="fill:none;stroke:#121619;stroke-width:0.3985;stroke-linecap:butt;stroke-linejoin:miter;stroke-miterlimit:10;stroke-dasharray:none;stroke-opacity:1" transform="matrix(2,0,0,-2,415.37333,124.93267)" />
    <path id="path41" d="M -39.66449,2.83466 H -20.042" style="fill:none;stroke:#121619;stroke-width:0.3985;stroke-linecap:butt;stroke-linejoin:miter;stroke-miterlimit:10;stroke-dasharray:none;stroke-opacity:1" transform="matrix(2,0,0,-2,415.37333,124.93267)" />
    <path id="path42" d="M 39.66449,2.83466 H 20.042" style="fill:none;stroke:#121619;stroke-width:0.3985;stroke-linecap:butt;stroke-linejoin:miter;stroke-miterlimit:10;stroke-dasharray:none;stroke-opacity:1" transform="matrix(2,0,0,-2,415.37333,124.93267)" />
    <path id="path43" d="M -39.66449,7.08669 H -20.042" style="fill:none;stroke:#121619;stroke-width:0.3985;stroke-linecap:butt;stroke-linejoin:miter;stroke-miterlimit:10;stroke-dasharray:none;stroke-opacity:1" transform="matrix(2,0,0,-2,415.37333,124.93267)" />
    <path id="path44" d="M 39.66449,7.08669 H 20.042" style="fill:none;stroke:#121619;stroke-width:0.3985;stroke-linecap:butt;stroke-linejoin:miter;stroke-miterlimit:10;stroke-dasharray:none;stroke-opacity:1" transform="matrix(2,0,0,-2,415.37333,124.93267)" />
    <path id="path45" d="M -39.66449,11.33871 H -20.042" style="fill:none;stroke:#121619;stroke-width:0.3985;stroke-linecap:butt;stroke-linejoin:miter;stroke-miterlimit:10;stroke-dasharray:none;stroke-opacity:1" transform="matrix(2,0,0,-2,415.37333,124.93267)" />
    <path id="path46" d="M 39.66449,11.33871 H 20.042" style="fill:none;stroke:#121619;stroke-width:0.3985;stroke-linecap:butt;stroke-linejoin:miter;stroke-miterlimit:10;stroke-dasharray:none;stroke-opacity:1" transform="matrix(2,0,0,-2,415.37333,124.93267)" />
    <path id="path47" d="M -39.66449,15.59073 H -20.042" style="fill:none;stroke:#121619;stroke-width:0.3985;stroke-linecap:butt;stroke-linejoin:miter;stroke-miterlimit:10;stroke-dasharray:none;stroke-opacity:1" transform="matrix(2,0,0,-2,415.37333,124.93267)" />
    <path id="path48" d="M 39.66449,15.59073 H 20.042" style="fill:none;stroke:#121619;stroke-width:0.3985;stroke-linecap:butt;stroke-linejoin:miter;stroke-miterlimit:10;stroke-dasharray:none;stroke-opacity:1" transform="matrix(2,0,0,-2,415.37333,124.93267)" />
    <path id="path49" d="M -39.66449,19.84276 H -20.042" style="fill:none;stroke:#121619;stroke-width:0.3985;stroke-linecap:butt;stroke-linejoin:miter;stroke-miterlimit:10;stroke-dasharray:none;stroke-opacity:1" transform="matrix(2,0,0,-2,415.37333,124.93267)" />
    <path id="path50" d="M 39.66449,19.84276 H 20.042" style="fill:none;stroke:#121619;stroke-width:0.3985;stroke-linecap:butt;stroke-linejoin:miter;stroke-miterlimit:10;stroke-dasharray:none;stroke-opacity:1" transform="matrix(2,0,0,-2,415.37333,124.93267)" />
    <path id="path51" d="m 2.49069,42.5202 c 0,1.37558 -1.11511,2.4907 -2.49069,2.4907 -1.37558,0 -2.49069,-1.11512 -2.49069,-2.4907 0,-1.37558 1.11511,-2.49069 2.49069,-2.49069 1.37558,0 2.49069,1.11511 2.49069,2.49069 z" style="fill:#78a9ff;fill-opacity:1;fill-rule:nonzero;stroke:none" transform="matrix(2,0,0,-2,415.37333,124.93267)" />
    <path id="path52" d="M 0,42.5202 V 28.54605" style="fill:none;stroke:#78a9ff;stroke-width:0.79701;stroke-linecap:butt;stroke-linejoin:miter;stroke-miterlimit:10;stroke-dasharray:none;stroke-opacity:1" transform="matrix(2,0,0,-2,415.37333,124.93267)" />
  </g>
</svg>