<svg width="559" height="309" viewBox="0 0 559 309" fill="none" xmlns="http://www.w3.org/2000/svg">
<g clip-path="url(#clip0_35_3081)">
<rect x="0.5" y="0.5" width="558" height="308" fill="white" fill-opacity="0.8" stroke="#DDE1E6"/>
<rect opacity="0.4" y="264.63" width="559" height="37.7613" fill="#F2F4F8"/>
<rect opacity="0.4" y="189.108" width="559" height="37.7613" fill="#F2F4F8"/>
<rect opacity="0.4" y="113.586" width="559" height="37.7613" fill="#F2F4F8"/>
<rect opacity="0.4" y="38.0627" width="559" height="37.7613" fill="#F2F4F8"/>
<line x1="69" y1="90.5" x2="503" y2="90.5" stroke="black"/>
<line x1="69" y1="121.5" x2="503" y2="121.5" stroke="black"/>
<line x1="69" y1="152.5" x2="503" y2="152.5" stroke="black"/>
<line x1="69" y1="183.5" x2="503" y2="183.5" stroke="black"/>
<line x1="69" y1="214.5" x2="503" y2="214.5" stroke="black"/>
<path fill-rule="evenodd" clip-rule="evenodd" d="M52.3996 95.2H53.5996C54.5937 95.2 55.3996 94.3942 55.3996 93.4V88.6C55.3996 87.6059 54.5937 86.8 53.5996 86.8H52.3996C51.4055 86.8 50.5996 87.6059 50.5996 88.6V93.4C50.5996 94.3942 51.4055 95.2 52.3996 95.2ZM51.7996 88.6C51.7996 88.2687 52.0682 88 52.3996 88H53.5996C53.931 88 54.1996 88.2687 54.1996 88.6V93.4C54.1996 93.7314 53.931 94 53.5996 94H52.3996C52.0682 94 51.7996 93.7314 51.7996 93.4V88.6Z" fill="#161616"/>
<path d="M58.0545 97L57 96.46L59.6804 91L57 85.54L58.0545 85L61 91L59.5272 94L58.0545 97Z" fill="#161616"/>
<rect x="47" y="85" width="1" height="12" fill="#161616"/>
<path d="M58.0545 159L57 158.46L59.6804 153L57 147.54L58.0545 147L61 153L59.5272 156L58.0545 159Z" fill="#161616"/>
<rect x="47" y="147" width="1" height="12" fill="#161616"/>
<path fill-rule="evenodd" clip-rule="evenodd" d="M52.3996 219.2H53.5996C54.5937 219.2 55.3996 218.394 55.3996 217.4V212.6C55.3996 211.606 54.5937 210.8 53.5996 210.8H52.3996C51.4055 210.8 50.5996 211.606 50.5996 212.6V217.4C50.5996 218.394 51.4055 219.2 52.3996 219.2ZM51.7996 212.6C51.7996 212.269 52.0682 212 52.3996 212H53.5996C53.931 212 54.1996 212.269 54.1996 212.6V217.4C54.1996 217.731 53.931 218 53.5996 218H52.3996C52.0682 218 51.7996 217.731 51.7996 217.4V212.6Z" fill="#161616"/>
<path d="M58.0545 221L57 220.46L59.6804 215L57 209.54L58.0545 209L61 215L59.5272 218L58.0545 221Z" fill="#161616"/>
<rect x="47" y="209" width="1" height="12" fill="#161616"/>
<rect width="134" height="185" transform="translate(116 61)" fill="#0043CE"/>
<path d="M184.708 179.156C183.613 183.531 179.982 186.094 177.04 186.094C174.787 186.094 173.253 184.594 173.253 182C173.253 181.875 173.253 180.938 173.598 179.563L176.665 167.281C176.946 166.219 177.009 165.906 179.231 165.906C179.794 165.906 180.107 165.906 180.107 165.344C180.107 165 179.826 165 179.638 165C179.075 165 178.417 165.063 177.823 165.063H174.13C173.535 165.063 172.878 165 172.283 165C172.064 165 171.689 165 171.689 165.594C171.689 165.906 171.908 165.906 172.502 165.906C174.38 165.906 174.38 166.156 174.38 166.5C174.38 166.687 174.161 167.594 174.004 168.125L171.282 179.062C171.188 179.406 171 180.25 171 181.094C171 184.531 173.472 187 176.884 187C180.045 187 183.55 184.5 185.146 180.531C185.365 180 185.647 178.906 185.835 178.062C186.148 176.937 186.805 174.188 187.024 173.375L188.213 168.687C188.62 167.062 188.87 166.031 191.624 165.906C191.875 165.875 192 165.625 192 165.344C192 165 191.718 165 191.593 165C191.155 165 190.592 165.063 190.153 165.063H188.683C186.742 165.063 185.741 165 185.709 165C185.522 165 185.146 165 185.146 165.594C185.146 165.906 185.396 165.906 185.615 165.906C187.493 165.969 187.618 166.687 187.618 167.25C187.618 167.531 187.618 167.625 187.493 168.063L184.708 179.156Z" fill="white"/>
<path d="M151.625 116.8H153.907L156.021 121H157.351L155.111 116.688C156.385 116.394 157.071 115.428 157.071 114C157.071 112.222 156.049 111.228 154.341 111.228H150.449V121H151.625V116.8ZM151.625 115.792V112.264H154.341C155.265 112.264 155.811 112.768 155.811 113.664V114.392C155.811 115.288 155.265 115.792 154.341 115.792H151.625ZM161.963 121.168C163.321 121.168 164.357 120.496 164.819 119.516L164.021 118.942C163.643 119.74 162.943 120.188 162.033 120.188C160.689 120.188 159.891 119.25 159.891 118.004V117.668H165.085V117.136C165.085 115.092 163.895 113.608 161.963 113.608C160.003 113.608 158.715 115.092 158.715 117.388C158.715 119.684 160.003 121.168 161.963 121.168ZM161.963 114.546C163.111 114.546 163.881 115.4 163.881 116.674V116.828H159.891V116.73C159.891 115.47 160.745 114.546 161.963 114.546ZM167.483 121H168.603V114.756H170.157V113.776H168.603V111.62H170.157V110.64H169.065C168.001 110.64 167.483 111.326 167.483 112.32V113.776H166.307V114.756H167.483V121ZM174.451 121.168C175.809 121.168 176.845 120.496 177.307 119.516L176.509 118.942C176.131 119.74 175.431 120.188 174.521 120.188C173.177 120.188 172.379 119.25 172.379 118.004V117.668H177.573V117.136C177.573 115.092 176.383 113.608 174.451 113.608C172.491 113.608 171.203 115.092 171.203 117.388C171.203 119.684 172.491 121.168 174.451 121.168ZM174.451 114.546C175.599 114.546 176.369 115.4 176.369 116.674V116.828H172.379V116.73C172.379 115.47 173.233 114.546 174.451 114.546ZM180.699 121V116.1C180.699 115.414 181.427 114.896 182.631 114.896H183.289V113.776H182.855C181.679 113.776 181.021 114.42 180.769 115.106H180.699V113.776H179.579V121H180.699ZM187.527 121.168C188.885 121.168 189.921 120.496 190.383 119.516L189.585 118.942C189.207 119.74 188.507 120.188 187.597 120.188C186.253 120.188 185.455 119.25 185.455 118.004V117.668H190.649V117.136C190.649 115.092 189.459 113.608 187.527 113.608C185.567 113.608 184.279 115.092 184.279 117.388C184.279 119.684 185.567 121.168 187.527 121.168ZM187.527 114.546C188.675 114.546 189.445 115.4 189.445 116.674V116.828H185.455V116.73C185.455 115.47 186.309 114.546 187.527 114.546ZM193.775 121V115.988C193.775 115.064 194.643 114.616 195.539 114.616C196.617 114.616 197.177 115.274 197.177 116.562V121H198.297V116.366C198.297 114.616 197.359 113.608 195.875 113.608C194.797 113.608 194.181 114.14 193.831 114.952H193.775V113.776H192.655V121H193.775ZM203.46 121.168C204.832 121.168 205.77 120.496 206.232 119.46L205.42 118.914C205.028 119.74 204.37 120.174 203.46 120.174C202.13 120.174 201.444 119.264 201.444 118.004V116.772C201.444 115.512 202.13 114.602 203.46 114.602C204.342 114.602 204.958 115.036 205.224 115.778L206.162 115.302C205.742 114.308 204.888 113.608 203.46 113.608C201.43 113.608 200.24 115.078 200.24 117.388C200.24 119.698 201.43 121.168 203.46 121.168ZM210.607 121.168C211.965 121.168 213.001 120.496 213.463 119.516L212.665 118.942C212.287 119.74 211.587 120.188 210.677 120.188C209.333 120.188 208.535 119.25 208.535 118.004V117.668H213.729V117.136C213.729 115.092 212.539 113.608 210.607 113.608C208.647 113.608 207.359 115.092 207.359 117.388C207.359 119.684 208.647 121.168 210.607 121.168ZM210.607 114.546C211.755 114.546 212.525 115.4 212.525 116.674V116.828H208.535V116.73C208.535 115.47 209.389 114.546 210.607 114.546ZM148.442 141V136.828H151.158C152.908 136.828 153.888 135.75 153.888 134.028C153.888 132.306 152.908 131.228 151.158 131.228H147.266V141H148.442ZM148.442 132.264H151.158C152.082 132.264 152.628 132.768 152.628 133.664V134.392C152.628 135.288 152.082 135.792 151.158 135.792H148.442V132.264ZM156.787 141V136.1C156.787 135.414 157.515 134.896 158.719 134.896H159.377V133.776H158.943C157.767 133.776 157.109 134.42 156.857 135.106H156.787V133.776H155.667V141H156.787ZM163.615 141.168C164.973 141.168 166.009 140.496 166.471 139.516L165.673 138.942C165.295 139.74 164.595 140.188 163.685 140.188C162.341 140.188 161.543 139.25 161.543 138.004V137.668H166.737V137.136C166.737 135.092 165.547 133.608 163.615 133.608C161.655 133.608 160.367 135.092 160.367 137.388C160.367 139.684 161.655 141.168 163.615 141.168ZM163.615 134.546C164.763 134.546 165.533 135.4 165.533 136.674V136.828H161.543V136.73C161.543 135.47 162.397 134.546 163.615 134.546ZM168.743 143.8H169.863V139.824H169.919C170.353 140.72 171.039 141.168 172.033 141.168C173.839 141.168 174.973 139.698 174.973 137.388C174.973 135.078 173.839 133.608 172.033 133.608C171.039 133.608 170.297 134.042 169.919 134.952H169.863V133.776H168.743V143.8ZM171.725 140.16C170.703 140.16 169.863 139.628 169.863 138.69V136.002C169.863 135.204 170.703 134.616 171.725 134.616C172.985 134.616 173.769 135.484 173.769 136.772V138.004C173.769 139.292 172.985 140.16 171.725 140.16ZM182.904 141V140.02H182.078V136.044C182.078 134.518 181.042 133.608 179.306 133.608C178.004 133.608 177.136 134.252 176.744 135.022L177.416 135.652C177.808 134.994 178.382 134.574 179.25 134.574C180.398 134.574 180.958 135.134 180.958 136.156V136.87H179.53C177.43 136.87 176.45 137.626 176.45 138.984C176.45 140.328 177.346 141.168 178.872 141.168C179.88 141.168 180.65 140.706 180.958 139.824H181.028C181.112 140.496 181.448 141 182.274 141H182.904ZM179.054 140.216C178.186 140.216 177.626 139.81 177.626 139.096V138.802C177.626 138.102 178.2 137.71 179.474 137.71H180.958V138.9C180.958 139.642 180.16 140.216 179.054 140.216ZM185.783 141V136.1C185.783 135.414 186.511 134.896 187.715 134.896H188.373V133.776H187.939C186.763 133.776 186.105 134.42 185.853 135.106H185.783V133.776H184.663V141H185.783ZM195.789 141V140.02H194.963V136.044C194.963 134.518 193.927 133.608 192.191 133.608C190.889 133.608 190.021 134.252 189.629 135.022L190.301 135.652C190.693 134.994 191.267 134.574 192.135 134.574C193.283 134.574 193.843 135.134 193.843 136.156V136.87H192.415C190.315 136.87 189.335 137.626 189.335 138.984C189.335 140.328 190.231 141.168 191.757 141.168C192.765 141.168 193.535 140.706 193.843 139.824H193.913C193.997 140.496 194.333 141 195.159 141H195.789ZM191.939 140.216C191.071 140.216 190.511 139.81 190.511 139.096V138.802C190.511 138.102 191.085 137.71 192.359 137.71H193.843V138.9C193.843 139.642 193.045 140.216 191.939 140.216ZM200.543 141V140.02H199.073V134.756H200.655V133.776H199.073V131.774H198.065V133.118C198.065 133.608 197.911 133.776 197.435 133.776H196.763V134.756H197.953V139.81C197.953 140.51 198.373 141 199.143 141H200.543ZM203.175 132.082C203.651 132.082 203.861 131.83 203.861 131.452V131.27C203.861 130.892 203.651 130.64 203.175 130.64C202.699 130.64 202.489 130.892 202.489 131.27V131.452C202.489 131.83 202.699 132.082 203.175 132.082ZM202.615 141H203.735V133.776H202.615V141ZM209.005 141.168C210.937 141.168 212.267 139.684 212.267 137.388C212.267 135.092 210.937 133.608 209.005 133.608C207.073 133.608 205.743 135.092 205.743 137.388C205.743 139.684 207.073 141.168 209.005 141.168ZM209.005 140.174C207.801 140.174 206.947 139.432 206.947 137.906V136.87C206.947 135.344 207.801 134.602 209.005 134.602C210.209 134.602 211.063 135.344 211.063 136.87V137.906C211.063 139.432 210.209 140.174 209.005 140.174ZM215.389 141V135.988C215.389 135.064 216.257 134.616 217.153 134.616C218.231 134.616 218.791 135.274 218.791 136.562V141H219.911V136.366C219.911 134.616 218.973 133.608 217.489 133.608C216.411 133.608 215.795 134.14 215.445 134.952H215.389V133.776H214.269V141H215.389Z" fill="white"/>
<path d="M191.56 180.966C191.687 180.44 191.744 180.412 192.298 180.412H193.321C194.543 180.412 195.452 180.781 195.452 181.889C195.452 182.614 195.082 184.702 192.227 184.702H190.622L191.56 180.966ZM193.534 184.872C195.295 184.489 196.673 183.352 196.673 182.131C196.673 181.023 195.551 180 193.577 180H189.727C189.443 180 189.315 180 189.315 180.27C189.315 180.412 189.415 180.412 189.685 180.412C190.537 180.412 190.537 180.526 190.537 180.682C190.537 180.71 190.537 180.795 190.48 181.009L188.562 188.651C188.435 189.148 188.406 189.29 187.426 189.29C187.099 189.29 187 189.29 187 189.56C187 189.702 187.156 189.702 187.199 189.702C187.455 189.702 187.753 189.673 188.023 189.673H189.699C189.955 189.673 190.253 189.702 190.509 189.702C190.622 189.702 190.778 189.702 190.778 189.432C190.778 189.29 190.651 189.29 190.438 189.29C189.571 189.29 189.571 189.176 189.571 189.034C189.571 189.02 189.571 188.92 189.599 188.807L190.551 184.986H192.256C193.605 184.986 193.861 185.838 193.861 186.307C193.861 186.52 193.719 187.074 193.619 187.443C193.463 188.097 193.42 188.253 193.42 188.523C193.42 189.531 194.244 190 195.196 190C196.347 190 196.844 188.594 196.844 188.395C196.844 188.295 196.773 188.253 196.688 188.253C196.574 188.253 196.545 188.338 196.517 188.452C196.176 189.46 195.594 189.716 195.239 189.716C194.884 189.716 194.656 189.56 194.656 188.92C194.656 188.58 194.827 187.287 194.841 187.216C194.912 186.69 194.912 186.634 194.912 186.52C194.912 185.483 194.074 185.043 193.534 184.872Z" fill="white"/>
<path d="M50 151.695C50.0081 151.646 50.0203 151.581 50.0365 151.5C50.0527 151.419 50.1013 151.265 50.1823 151.039C50.2633 150.812 50.3443 150.621 50.4253 150.468C50.5063 150.314 50.6399 150.164 50.8262 150.018C51.0125 149.872 51.1988 149.803 51.3851 149.811C51.6767 149.811 51.9197 149.884 52.1141 150.03C52.3085 150.176 52.43 150.314 52.4786 150.443C52.5272 150.573 52.5515 150.658 52.5515 150.698C52.5515 150.715 52.5556 150.723 52.5637 150.723L52.6973 150.589C53.1914 150.071 53.7544 149.811 54.3862 149.811C54.8236 149.811 55.176 149.921 55.4433 150.139C55.7106 150.358 55.8483 150.678 55.8564 151.099C55.8645 151.521 55.7106 152.156 55.3947 153.007C55.0788 153.857 54.9249 154.372 54.933 154.55C54.933 154.761 55.0018 154.866 55.1395 154.866C55.1881 154.866 55.2246 154.862 55.2489 154.854C55.4838 154.813 55.6944 154.659 55.8807 154.392C56.067 154.125 56.2087 153.801 56.3059 153.42C56.3221 153.355 56.4031 153.323 56.5489 153.323C56.7109 153.323 56.7919 153.355 56.7919 153.42C56.7919 153.428 56.7757 153.489 56.7433 153.602C56.6785 153.837 56.5894 154.068 56.476 154.295C56.3626 154.522 56.1763 154.748 55.9171 154.975C55.6579 155.202 55.3785 155.311 55.0788 155.303C54.6981 155.303 54.4227 155.194 54.2526 154.975C54.0825 154.757 53.9974 154.53 53.9974 154.295C53.9974 154.141 54.1432 153.655 54.4348 152.837C54.7264 152.019 54.8763 151.403 54.8844 150.99C54.8844 150.512 54.7062 150.273 54.3498 150.273H54.289C53.5924 150.273 53.0051 150.682 52.5272 151.5L52.4422 151.646L52.0412 153.274C51.7739 154.335 51.62 154.906 51.5795 154.987C51.4742 155.206 51.3001 155.315 51.0571 155.315C50.9518 155.315 50.8667 155.291 50.8019 155.243C50.7371 155.194 50.6926 155.145 50.6683 155.097C50.644 155.048 50.6359 155.008 50.644 154.975C50.644 154.87 50.7979 154.21 51.1057 152.995C51.4135 151.78 51.5755 151.12 51.5917 151.014C51.5998 150.974 51.6038 150.881 51.6038 150.735C51.6038 150.419 51.5066 150.261 51.3122 150.261C51.0044 150.261 50.7493 150.666 50.5468 151.476C50.4982 151.638 50.4739 151.723 50.4739 151.731C50.4577 151.78 50.3807 151.804 50.243 151.804H50.0729C50.0243 151.755 50 151.719 50 151.695Z" fill="black"/>
</g>
<defs>
<clipPath id="clip0_35_3081">
<rect width="559" height="309" fill="white"/>
</clipPath>
</defs>
</svg>
