<?xml version="1.0" encoding="UTF-8"?><!DOCTYPE svg  PUBLIC '-//W3C//DTD SVG 1.1//EN'  'http://www.w3.org/Graphics/SVG/1.1/DTD/svg11.dtd'><svg width="402.8pt" height="312.63pt" version="1.1" viewBox="0 0 402.8 312.63" xmlns="http://www.w3.org/2000/svg" xmlns:xlink="http://www.w3.org/1999/xlink"><defs><style type="text/css">*{stroke-linejoin: round; stroke-linecap: butt}</style></defs><path d="m0 312.63h402.8v-312.63h-402.8z" fill="#ffffff"/><path d="m38.483 288.43h357.12v-266.11h-357.12z" fill="#ffffff"/><path d="m54.716 159.66h38.195v-79.531h-38.195z" clip-path="url(#4706270b2d5)" fill="#1f77b4"/><path d="m102.46 159.66h38.195-38.195z" clip-path="url(#4706270b2d5)" fill="#1f77b4"/><path d="m150.2 159.66h38.195v-85.371h-38.195z" clip-path="url(#4706270b2d5)" fill="#1f77b4"/><path d="m197.95 159.66h38.195-38.195z" clip-path="url(#4706270b2d5)" fill="#1f77b4"/><path d="m245.69 159.66h38.195v116.68h-38.195z" clip-path="url(#4706270b2d5)" fill="#1f77b4"/><path d="m293.43 159.66h38.195-38.195z" clip-path="url(#4706270b2d5)" fill="#1f77b4"/><path d="m341.18 159.66h38.195v-125.24h-38.195z" clip-path="url(#4706270b2d5)" fill="#1f77b4"/><defs><path id="b1192642d78" d="m0 0v3.5" stroke="#000000" stroke-width=".8"/></defs><use x="73.812866" y="288.430125" stroke="#000000" stroke-width=".8" xlink:href="#b1192642d78"/><g transform="translate(66.963 303.03) scale(.1 -.1)"><defs><path id="DejaVuSans-3d" transform="scale(.015625)" d="m359 4666h3666v-482l-2950-3653h3022v-531h-3809v481l2950 3653h-2879v532z"/></defs><use xlink:href="#DejaVuSans-3d"/><use transform="translate(68.5)" xlink:href="#DejaVuSans-3d"/></g><use x="121.556181" y="288.430125" stroke="#000000" stroke-width=".8" xlink:href="#b1192642d78"/><g transform="translate(114.71 303.03) scale(.1 -.1)"><defs><path id="DejaVuSans-3b" transform="scale(.015625)" d="m403 4666h678l1160-1735 1165 1735h678l-1500-2241 1600-2425h-678l-1312 1984-1322-1984h-681l1665 2491-1453 2175z"/></defs><use xlink:href="#DejaVuSans-3b"/><use transform="translate(68.5)" xlink:href="#DejaVuSans-3b"/></g><use x="169.299497" y="288.430125" stroke="#000000" stroke-width=".8" xlink:href="#b1192642d78"/><g transform="translate(162.82 303.03) scale(.1 -.1)"><defs><path id="DejaVuSans-3c" transform="scale(.015625)" d="m-13 4666h679l1293-1919 1285 1919h678l-1650-2444v-2222h-634v2222l-1651 2444z"/></defs><use xlink:href="#DejaVuSans-3c"/><use transform="translate(61.078)" xlink:href="#DejaVuSans-3d"/></g><use x="217.042813" y="288.430125" stroke="#000000" stroke-width=".8" xlink:href="#b1192642d78"/><g transform="translate(210.56 303.03) scale(.1 -.1)"><use xlink:href="#DejaVuSans-3d"/><use transform="translate(68.5)" xlink:href="#DejaVuSans-3c"/></g><use x="264.786128" y="288.430125" stroke="#000000" stroke-width=".8" xlink:href="#b1192642d78"/><g transform="translate(258.31 303.03) scale(.1 -.1)"><use xlink:href="#DejaVuSans-3b"/><use transform="translate(68.5)" xlink:href="#DejaVuSans-3c"/></g><use x="312.529444" y="288.430125" stroke="#000000" stroke-width=".8" xlink:href="#b1192642d78"/><g transform="translate(305.68 303.03) scale(.1 -.1)"><use xlink:href="#DejaVuSans-3b"/><use transform="translate(68.5)" xlink:href="#DejaVuSans-3d"/></g><use x="360.272759" y="288.430125" stroke="#000000" stroke-width=".8" xlink:href="#b1192642d78"/><g transform="translate(353.42 303.03) scale(.1 -.1)"><use xlink:href="#DejaVuSans-3d"/><use transform="translate(68.5)" xlink:href="#DejaVuSans-3b"/></g><defs><path id="baa9d94cb83" d="m0 0h-3.5" stroke="#000000" stroke-width=".8"/></defs><use x="38.482813" y="262.359977" stroke="#000000" stroke-width=".8" xlink:href="#baa9d94cb83"/><g transform="translate(7.2 266.16) scale(.1 -.1)"><defs><path id="DejaVuSans-c9c" transform="scale(.015625)" d="m678 2272h4006v-531h-4006v531z"/><path id="DejaVuSans-13" transform="scale(.015625)" d="m2034 4250q-487 0-733-480-245-479-245-1442 0-959 245-1439 246-480 733-480 491 0 736 480 246 480 246 1439 0 963-246 1442-245 480-736 480zm0 500q785 0 1199-621 414-620 414-1801 0-1178-414-1799-414-620-1199-620-784 0-1198 620-414 621-414 1799 0 1181 414 1801 414 621 1198 621z"/><path id="DejaVuSans-11" transform="scale(.015625)" d="m684 794h660v-794h-660v794z"/><path id="DejaVuSans-19" transform="scale(.015625)" d="m2113 2584q-425 0-674-291-248-290-248-796 0-503 248-796 249-292 674-292t673 292q248 293 248 796 0 506-248 796-248 291-673 291zm1253 1979v-575q-238 112-480 171-242 60-480 60-625 0-955-422-329-422-376-1275 184 272 462 417 279 145 613 145 703 0 1111-427 408-426 408-1160 0-719-425-1154-425-434-1131-434-810 0-1238 620-428 621-428 1799 0 1106 525 1764t1409 658q238 0 480-47t505-140z"/></defs><use xlink:href="#DejaVuSans-c9c"/><use transform="translate(83.797)" xlink:href="#DejaVuSans-13"/><use transform="translate(147.42)" xlink:href="#DejaVuSans-11"/><use transform="translate(179.2)" xlink:href="#DejaVuSans-19"/></g><use x="38.482813" y="228.125877" stroke="#000000" stroke-width=".8" xlink:href="#baa9d94cb83"/><g transform="translate(7.2 231.92) scale(.1 -.1)"><defs><path id="DejaVuSans-17" transform="scale(.015625)" d="m2419 4116-1594-2491h1594v2491zm-166 550h794v-3041h666v-525h-666v-1100h-628v1100h-2106v609l1940 2957z"/></defs><use xlink:href="#DejaVuSans-c9c"/><use transform="translate(83.797)" xlink:href="#DejaVuSans-13"/><use transform="translate(147.42)" xlink:href="#DejaVuSans-11"/><use transform="translate(179.2)" xlink:href="#DejaVuSans-17"/></g><use x="38.482813" y="193.891777" stroke="#000000" stroke-width=".8" xlink:href="#baa9d94cb83"/><g transform="translate(7.2 197.69) scale(.1 -.1)"><defs><path id="DejaVuSans-15" transform="scale(.015625)" d="m1228 531h2203v-531h-2962v531q359 372 979 998 621 627 780 809 303 340 423 576 121 236 121 464 0 372-261 606-261 235-680 235-297 0-627-103-329-103-704-313v638q381 153 712 231 332 78 607 78 725 0 1156-363 431-362 431-968 0-288-108-546-107-257-392-607-78-91-497-524-418-433-1181-1211z"/></defs><use xlink:href="#DejaVuSans-c9c"/><use transform="translate(83.797)" xlink:href="#DejaVuSans-13"/><use transform="translate(147.42)" xlink:href="#DejaVuSans-11"/><use transform="translate(179.2)" xlink:href="#DejaVuSans-15"/></g><use x="38.482813" y="159.657676" stroke="#000000" stroke-width=".8" xlink:href="#baa9d94cb83"/><g transform="translate(15.58 163.46) scale(.1 -.1)"><use xlink:href="#DejaVuSans-13"/><use transform="translate(63.625)" xlink:href="#DejaVuSans-11"/><use transform="translate(95.406)" xlink:href="#DejaVuSans-13"/></g><use x="38.482813" y="125.423576" stroke="#000000" stroke-width=".8" xlink:href="#baa9d94cb83"/><g transform="translate(15.58 129.22) scale(.1 -.1)"><use xlink:href="#DejaVuSans-13"/><use transform="translate(63.625)" xlink:href="#DejaVuSans-11"/><use transform="translate(95.406)" xlink:href="#DejaVuSans-15"/></g><use x="38.482813" y="91.189475" stroke="#000000" stroke-width=".8" xlink:href="#baa9d94cb83"/><g transform="translate(15.58 94.988) scale(.1 -.1)"><use xlink:href="#DejaVuSans-13"/><use transform="translate(63.625)" xlink:href="#DejaVuSans-11"/><use transform="translate(95.406)" xlink:href="#DejaVuSans-17"/></g><use x="38.482813" y="56.955375" stroke="#000000" stroke-width=".8" xlink:href="#baa9d94cb83"/><g transform="translate(15.58 60.754) scale(.1 -.1)"><use xlink:href="#DejaVuSans-13"/><use transform="translate(63.625)" xlink:href="#DejaVuSans-11"/><use transform="translate(95.406)" xlink:href="#DejaVuSans-19"/></g><use x="38.482813" y="22.721274" stroke="#000000" stroke-width=".8" xlink:href="#baa9d94cb83"/><g transform="translate(15.58 26.52) scale(.1 -.1)"><defs><path id="DejaVuSans-1b" transform="scale(.015625)" d="m2034 2216q-450 0-708-241-257-241-257-662 0-422 257-663 258-241 708-241t709 242q260 243 260 662 0 421-258 662-257 241-711 241zm-631 268q-406 100-633 378-226 279-226 679 0 559 398 884 399 325 1092 325 697 0 1094-325t397-884q0-400-227-679-226-278-629-378 456-106 710-416 255-309 255-755 0-679-414-1042-414-362-1186-362-771 0-1186 362-414 363-414 1042 0 446 256 755 257 310 713 416zm-231 997q0-362 226-565 227-203 636-203 407 0 636 203 230 203 230 565 0 363-230 566-229 203-636 203-409 0-636-203-226-203-226-566z"/></defs><use xlink:href="#DejaVuSans-13"/><use transform="translate(63.625)" xlink:href="#DejaVuSans-11"/><use transform="translate(95.406)" xlink:href="#DejaVuSans-1b"/></g><g fill="none" stroke="#000000" stroke-width="1.5"><path d="m73.813 80.126" clip-path="url(#4706270b2d5)"/><path d="m121.56 159.66" clip-path="url(#4706270b2d5)"/><path d="m169.3 74.287" clip-path="url(#4706270b2d5)"/><path d="m217.04 159.66" clip-path="url(#4706270b2d5)"/><path d="m264.79 276.33" clip-path="url(#4706270b2d5)"/><path d="m312.53 159.66" clip-path="url(#4706270b2d5)"/><path d="m360.27 34.414" clip-path="url(#4706270b2d5)"/></g><defs><path id="af26f25cea7" d="m2 0h-4" stroke="#000000"/></defs><g clip-path="url(#4706270b2d5)" fill="#1f77b4" stroke="#000000"><use x="73.812866" y="80.126486" xlink:href="#af26f25cea7"/><use x="121.556181" y="159.657676" xlink:href="#af26f25cea7"/><use x="169.299497" y="74.286817" xlink:href="#af26f25cea7"/><use x="217.042813" y="159.657676" xlink:href="#af26f25cea7"/><use x="264.786128" y="276.334125" xlink:href="#af26f25cea7"/><use x="312.529444" y="159.657676" xlink:href="#af26f25cea7"/><use x="360.272759" y="34.414125" xlink:href="#af26f25cea7"/></g><g clip-path="url(#4706270b2d5)" fill="#1f77b4" stroke="#000000"><use x="73.812866" y="80.126486" xlink:href="#af26f25cea7"/><use x="121.556181" y="159.657676" xlink:href="#af26f25cea7"/><use x="169.299497" y="74.286817" xlink:href="#af26f25cea7"/><use x="217.042813" y="159.657676" xlink:href="#af26f25cea7"/><use x="264.786128" y="276.334125" xlink:href="#af26f25cea7"/><use x="312.529444" y="159.657676" xlink:href="#af26f25cea7"/><use x="360.272759" y="34.414125" xlink:href="#af26f25cea7"/></g><path d="m38.483 288.43v-266.11" fill="none" stroke="#000000" stroke-linecap="square" stroke-width=".8"/><path d="m395.6 288.43v-266.11" fill="none" stroke="#000000" stroke-linecap="square" stroke-width=".8"/><path d="m38.483 288.43h357.12" fill="none" stroke="#000000" stroke-linecap="square" stroke-width=".8"/><path d="m38.483 22.318h357.12" fill="none" stroke="#000000" stroke-linecap="square" stroke-width=".8"/><g transform="translate(92.561 16.318) scale(.12 -.12)"><defs><path id="DejaVuSans-28" transform="scale(.015625)" d="m628 4666h2950v-532h-2319v-1381h2222v-531h-2222v-1691h2375v-531h-3006v4666z"/><path id="DejaVuSans-5b" transform="scale(.015625)" d="m3513 3500-1266-1703 1331-1797h-678l-1019 1375-1018-1375h-679l1360 1831-1244 1669h678l928-1247 928 1247h679z"/><path id="DejaVuSans-53" transform="scale(.015625)" d="m1159 525v-1856h-578v4831h578v-531q182 312 458 463 277 152 661 152 638 0 1036-506 399-506 399-1331t-399-1332q-398-506-1036-506-384 0-661 152-276 152-458 464zm1957 1222q0 634-261 995t-717 361q-457 0-718-361t-261-995 261-995 718-361q456 0 717 361t261 995z"/><path id="DejaVuSans-48" transform="scale(.015625)" d="m3597 1894v-281h-2644q38-594 358-905t892-311q331 0 642 81t618 244v-544q-310-131-635-200t-659-69q-838 0-1327 487-489 488-489 1320 0 859 464 1363 464 505 1252 505 706 0 1117-455 411-454 411-1235zm-575 169q-6 471-264 752-258 282-683 282-481 0-770-272t-333-766l2050 4z"/><path id="DejaVuSans-46" transform="scale(.015625)" d="m3122 3366v-538q-244 135-489 202t-495 67q-560 0-870-355-309-354-309-995t309-996q310-354 870-354 250 0 495 67t489 202v-532q-241-112-499-168-257-57-548-57-791 0-1257 497-465 497-465 1341 0 856 470 1346 471 491 1290 491 265 0 518-55 253-54 491-163z"/><path id="DejaVuSans-57" transform="scale(.015625)" d="m1172 4494v-994h1184v-447h-1184v-1900q0-428 117-550t477-122h590v-481h-590q-666 0-919 248-253 249-253 905v1900h-422v447h422v994h578z"/><path id="DejaVuSans-44" transform="scale(.015625)" d="m2194 1759q-697 0-966-159t-269-544q0-306 202-486 202-179 548-179 479 0 768 339t289 901v128h-572zm1147 238v-1997h-575v531q-197-318-491-470t-719-152q-537 0-855 302-317 302-317 808 0 590 395 890 396 300 1180 300h807v57q0 397-261 614t-733 217q-300 0-585-72-284-72-546-216v532q315 122 612 182 297 61 578 61 760 0 1135-394 375-393 375-1193z"/><path id="DejaVuSans-4c" transform="scale(.015625)" d="m603 3500h575v-3500h-575v3500zm0 1363h575v-729h-575v729z"/><path id="DejaVuSans-52" transform="scale(.015625)" d="m1959 3097q-462 0-731-361t-269-989 267-989q268-361 733-361 460 0 728 362 269 363 269 988 0 622-269 986-268 364-728 364zm0 487q750 0 1178-488 429-487 429-1349 0-859-429-1349-428-489-1178-489-753 0-1180 489-426 490-426 1349 0 862 426 1349 427 488 1180 488z"/><path id="DejaVuSans-51" transform="scale(.015625)" d="m3513 2113v-2113h-575v2094q0 497-194 743-194 247-581 247-466 0-735-297-269-296-269-809v-1978h-578v3500h578v-544q207 316 486 472 280 156 646 156 603 0 912-373 310-373 310-1098z"/><path id="DejaVuSans-59" transform="scale(.015625)" d="m191 3500h609l1094-2937 1094 2937h609l-1313-3500h-781l-1312 3500z"/><path id="DejaVuSans-4f" transform="scale(.015625)" d="m603 4863h575v-4863h-575v4863z"/><path id="DejaVuSans-58" transform="scale(.015625)" d="m544 1381v2119h575v-2097q0-497 193-746 194-248 582-248 465 0 735 297 271 297 271 810v1984h575v-3500h-575v538q-209-319-486-474-276-155-642-155-603 0-916 375-312 375-312 1097zm1447 2203z"/><path id="DejaVuSans-56" transform="scale(.015625)" d="m2834 3397v-544q-243 125-506 187-262 63-544 63-428 0-642-131t-214-394q0-200 153-314t616-217l197-44q612-131 870-370t258-667q0-488-386-773-386-284-1061-284-281 0-586 55t-642 164v594q319-166 628-249 309-82 613-82 406 0 624 139 219 139 219 392 0 234-158 359-157 125-692 241l-200 47q-534 112-772 345-237 233-237 639 0 494 350 762 350 269 994 269 318 0 599-47 282-46 519-140z"/><path id="DejaVuSans-b" transform="scale(.015625)" d="m1984 4856q-418-718-622-1422-203-703-203-1425 0-721 205-1429t620-1424h-500q-468 735-701 1444t-233 1409q0 697 231 1403 232 707 703 1444h500z"/><path id="DejaVuSans-5a" transform="scale(.015625)" d="m269 3500h575l719-2731 715 2731h678l719-2731 716 2731h575l-916-3500h-678l-753 2869-756-2869h-679l-915 3500z"/><path id="DejaVuSans-4b" transform="scale(.015625)" d="m3513 2113v-2113h-575v2094q0 497-194 743-194 247-581 247-466 0-735-297-269-296-269-809v-1978h-578v4863h578v-1907q207 316 486 472 280 156 646 156 603 0 912-373 310-373 310-1098z"/><path id="DejaVuSans-47" transform="scale(.015625)" d="m2906 2969v1894h575v-4863h-575v525q-181-312-458-464-276-152-664-152-634 0-1033 506-398 507-398 1332t398 1331q399 506 1033 506 388 0 664-152 277-151 458-463zm-1959-1222q0-634 261-995t717-361 718 361q263 361 263 995t-263 995q-262 361-718 361t-717-361-261-995z"/><path id="DejaVuSans-55" transform="scale(.015625)" d="m2631 2963q-97 56-211 82-114 27-251 27-488 0-749-317t-261-911v-1844h-578v3500h578v-544q182 319 472 473 291 155 707 155 59 0 131-8 72-7 159-23l3-590z"/><path id="DejaVuSans-c" transform="scale(.015625)" d="m513 4856h500q468-737 701-1444 233-706 233-1403 0-700-233-1409t-701-1444h-500q415 716 620 1424t205 1429q0 722-205 1425-205 704-620 1422z"/></defs><use xlink:href="#DejaVuSans-28"/><use transform="translate(63.188)" xlink:href="#DejaVuSans-5b"/><use transform="translate(122.38)" xlink:href="#DejaVuSans-53"/><use transform="translate(185.86)" xlink:href="#DejaVuSans-48"/><use transform="translate(247.39)" xlink:href="#DejaVuSans-46"/><use transform="translate(302.38)" xlink:href="#DejaVuSans-57"/><use transform="translate(341.58)" xlink:href="#DejaVuSans-44"/><use transform="translate(402.86)" xlink:href="#DejaVuSans-57"/><use transform="translate(442.06)" xlink:href="#DejaVuSans-4c"/><use transform="translate(469.84)" xlink:href="#DejaVuSans-52"/><use transform="translate(531.03)" xlink:href="#DejaVuSans-51"/><use transform="translate(594.41)" xlink:href="#DejaVuSans-3"/><use transform="translate(626.19)" xlink:href="#DejaVuSans-59"/><use transform="translate(685.38)" xlink:href="#DejaVuSans-44"/><use transform="translate(746.66)" xlink:href="#DejaVuSans-4f"/><use transform="translate(774.44)" xlink:href="#DejaVuSans-58"/><use transform="translate(837.81)" xlink:href="#DejaVuSans-48"/><use transform="translate(899.34)" xlink:href="#DejaVuSans-56"/><use transform="translate(951.44)" xlink:href="#DejaVuSans-3"/><use transform="translate(983.22)" xlink:href="#DejaVuSans-b"/><use transform="translate(1022.2)" xlink:href="#DejaVuSans-5a"/><use transform="translate(1104)" xlink:href="#DejaVuSans-4c"/><use transform="translate(1131.8)" xlink:href="#DejaVuSans-57"/><use transform="translate(1171)" xlink:href="#DejaVuSans-4b"/><use transform="translate(1234.4)" xlink:href="#DejaVuSans-3"/><use transform="translate(1266.2)" xlink:href="#DejaVuSans-56"/><use transform="translate(1318.2)" xlink:href="#DejaVuSans-57"/><use transform="translate(1357.5)" xlink:href="#DejaVuSans-44"/><use transform="translate(1418.7)" xlink:href="#DejaVuSans-51"/><use transform="translate(1482.1)" xlink:href="#DejaVuSans-47"/><use transform="translate(1545.6)" xlink:href="#DejaVuSans-44"/><use transform="translate(1606.9)" xlink:href="#DejaVuSans-55"/><use transform="translate(1646.2)" xlink:href="#DejaVuSans-47"/><use transform="translate(1709.7)" xlink:href="#DejaVuSans-3"/><use transform="translate(1741.5)" xlink:href="#DejaVuSans-48"/><use transform="translate(1803)" xlink:href="#DejaVuSans-55"/><use transform="translate(1842.4)" xlink:href="#DejaVuSans-55"/><use transform="translate(1881.3)" xlink:href="#DejaVuSans-52"/><use transform="translate(1942.5)" xlink:href="#DejaVuSans-55"/><use transform="translate(1983.6)" xlink:href="#DejaVuSans-56"/><use transform="translate(2035.7)" xlink:href="#DejaVuSans-c"/></g><defs><clipPath id="4706270b2d5"><rect x="38.483" y="22.318" width="357.12" height="266.11"/></clipPath></defs></svg>