<?xml version="1.0" encoding="UTF-8"?><!DOCTYPE svg  PUBLIC '-//W3C//DTD SVG 1.1//EN'  'http://www.w3.org/Graphics/SVG/1.1/DTD/svg11.dtd'><svg width="683.68pt" height="172pt" version="1.1" viewBox="0 0 683.68 172" xmlns="http://www.w3.org/2000/svg" xmlns:xlink="http://www.w3.org/1999/xlink"><defs><style type="text/css">*{stroke-linejoin: round; stroke-linecap: butt}</style></defs><path d="m0 172h683.68v-172h-683.68z" fill="#ffffff"/><path d="m64.609 44.283h607.24" clip-path="url(#38530a8beab)" fill="none" stroke="#000000" stroke-linecap="square" stroke-width="2"/><path d="m64.609 90.637h607.24" clip-path="url(#38530a8beab)" fill="none" stroke="#000000" stroke-linecap="square" stroke-width="2"/><path d="m64.609 136.99h607.24" clip-path="url(#38530a8beab)" fill="none" stroke="#000000" stroke-linecap="square" stroke-width="2"/><path d="m59.974 21.106h-1158.8v185.42h1158.8z" clip-path="url(#38530a8beab)" fill="#ffffff" stroke="#ffffff" stroke-width="1.5"/><path d="m135.99 90.637v-46.354" clip-path="url(#38530a8beab)" fill="none" stroke="#33b1ff" stroke-linecap="square" stroke-width="2"/><path d="m182.35 136.99v-92.708" clip-path="url(#38530a8beab)" fill="none" stroke="#33b1ff" stroke-linecap="square" stroke-width="2"/><path d="m228.7 136.99v-46.354" clip-path="url(#38530a8beab)" fill="none" stroke="#33b1ff" stroke-linecap="square" stroke-width="2"/><path d="m321.41 90.637v-46.354" clip-path="url(#38530a8beab)" fill="none" stroke="#33b1ff" stroke-linecap="square" stroke-width="2"/><path d="m367.76 136.99v-92.708" clip-path="url(#38530a8beab)" fill="none" stroke="#33b1ff" stroke-linecap="square" stroke-width="2"/><path d="m414.12 136.99v-46.354" clip-path="url(#38530a8beab)" fill="none" stroke="#33b1ff" stroke-linecap="square" stroke-width="2"/><path d="m506.83 90.637v-46.354" clip-path="url(#38530a8beab)" fill="none" stroke="#33b1ff" stroke-linecap="square" stroke-width="2"/><path d="m553.18 136.99v-92.708" clip-path="url(#38530a8beab)" fill="none" stroke="#33b1ff" stroke-linecap="square" stroke-width="2"/><path d="m599.53 136.99v-46.354" clip-path="url(#38530a8beab)" fill="none" stroke="#33b1ff" stroke-linecap="square" stroke-width="2"/><path d="m135.99 90.637v-46.354" clip-path="url(#38530a8beab)" fill="none" stroke="#33b1ff" stroke-linecap="square" stroke-width="2"/><path d="m182.35 136.99v-92.708" clip-path="url(#38530a8beab)" fill="none" stroke="#33b1ff" stroke-linecap="square" stroke-width="2"/><path d="m228.7 136.99v-46.354" clip-path="url(#38530a8beab)" fill="none" stroke="#33b1ff" stroke-linecap="square" stroke-width="2"/><path d="m321.41 90.637v-46.354" clip-path="url(#38530a8beab)" fill="none" stroke="#33b1ff" stroke-linecap="square" stroke-width="2"/><path d="m367.76 136.99v-92.708" clip-path="url(#38530a8beab)" fill="none" stroke="#33b1ff" stroke-linecap="square" stroke-width="2"/><path d="m414.12 136.99v-46.354" clip-path="url(#38530a8beab)" fill="none" stroke="#33b1ff" stroke-linecap="square" stroke-width="2"/><path d="m506.83 90.637v-46.354" clip-path="url(#38530a8beab)" fill="none" stroke="#33b1ff" stroke-linecap="square" stroke-width="2"/><path d="m553.18 136.99v-92.708" clip-path="url(#38530a8beab)" fill="none" stroke="#33b1ff" stroke-linecap="square" stroke-width="2"/><path d="m599.53 136.99v-46.354" clip-path="url(#38530a8beab)" fill="none" stroke="#33b1ff" stroke-linecap="square" stroke-width="2"/><path d="m74.575 59.348h30.13v-30.13h-30.13z" clip-path="url(#38530a8beab)" fill="#9f1853" stroke="#9f1853" stroke-width="1.5"/><path d="m74.575 105.7h30.13v-30.13h-30.13z" clip-path="url(#38530a8beab)" fill="#9f1853" stroke="#9f1853" stroke-width="1.5"/><path d="m74.575 152.06h30.13v-30.13h-30.13z" clip-path="url(#38530a8beab)" fill="#9f1853" stroke="#9f1853" stroke-width="1.5"/><path d="m135.99 48.803c1.1986 0 2.3482-0.4762 3.1958-1.3237 0.84753-0.84753 1.3237-1.9972 1.3237-3.1958 0-1.1986-0.4762-2.3482-1.3237-3.1958-0.84753-0.84753-1.9972-1.3237-3.1958-1.3237-1.1986 0-2.3482 0.4762-3.1958 1.3237s-1.3237 1.9972-1.3237 3.1958c0 1.1986 0.4762 2.3482 1.3237 3.1958s1.9972 1.3237 3.1958 1.3237z" clip-path="url(#38530a8beab)" fill="#33b1ff" stroke="#33b1ff" stroke-width="1.5"/><path d="m135.99 95.157c1.1986 0 2.3482-0.4762 3.1958-1.3237 0.84753-0.84753 1.3237-1.9972 1.3237-3.1958s-0.4762-2.3482-1.3237-3.1958c-0.84753-0.84753-1.9972-1.3237-3.1958-1.3237-1.1986 0-2.3482 0.4762-3.1958 1.3237-0.84753 0.84753-1.3237 1.9972-1.3237 3.1958s0.4762 2.3482 1.3237 3.1958c0.84753 0.84753 1.9972 1.3237 3.1958 1.3237z" clip-path="url(#38530a8beab)" fill="#33b1ff" stroke="#33b1ff" stroke-width="1.5"/><path d="m182.35 48.803c1.1986 0 2.3482-0.4762 3.1958-1.3237 0.84753-0.84753 1.3237-1.9972 1.3237-3.1958 0-1.1986-0.4762-2.3482-1.3237-3.1958-0.84753-0.84753-1.9972-1.3237-3.1958-1.3237s-2.3482 0.4762-3.1958 1.3237c-0.84753 0.84753-1.3237 1.9972-1.3237 3.1958 0 1.1986 0.4762 2.3482 1.3237 3.1958 0.84753 0.84753 1.9972 1.3237 3.1958 1.3237z" clip-path="url(#38530a8beab)" fill="#33b1ff" stroke="#33b1ff" stroke-width="1.5"/><path d="m182.35 141.51c1.1986 0 2.3482-0.4762 3.1958-1.3237 0.84753-0.84753 1.3237-1.9972 1.3237-3.1958 0-1.1986-0.4762-2.3482-1.3237-3.1958-0.84753-0.84753-1.9972-1.3237-3.1958-1.3237s-2.3482 0.4762-3.1958 1.3237c-0.84753 0.84753-1.3237 1.9972-1.3237 3.1958 0 1.1986 0.4762 2.3482 1.3237 3.1958 0.84753 0.84753 1.9972 1.3237 3.1958 1.3237z" clip-path="url(#38530a8beab)" fill="#33b1ff" stroke="#33b1ff" stroke-width="1.5"/><path d="m228.7 95.157c1.1986 0 2.3482-0.4762 3.1958-1.3237 0.84753-0.84753 1.3237-1.9972 1.3237-3.1958s-0.4762-2.3482-1.3237-3.1958c-0.84753-0.84753-1.9972-1.3237-3.1958-1.3237-1.1986 0-2.3482 0.4762-3.1958 1.3237-0.84753 0.84753-1.3237 1.9972-1.3237 3.1958s0.4762 2.3482 1.3237 3.1958c0.84753 0.84753 1.9972 1.3237 3.1958 1.3237z" clip-path="url(#38530a8beab)" fill="#33b1ff" stroke="#33b1ff" stroke-width="1.5"/><path d="m228.7 141.51c1.1986 0 2.3482-0.4762 3.1958-1.3237s1.3237-1.9972 1.3237-3.1958c0-1.1986-0.4762-2.3482-1.3237-3.1958-0.84753-0.84753-1.9972-1.3237-3.1958-1.3237-1.1986 0-2.3482 0.4762-3.1958 1.3237-0.84753 0.84753-1.3237 1.9972-1.3237 3.1958 0 1.1986 0.4762 2.3482 1.3237 3.1958 0.84753 0.84753 1.9972 1.3237 3.1958 1.3237z" clip-path="url(#38530a8beab)" fill="#33b1ff" stroke="#33b1ff" stroke-width="1.5"/><path d="m213.64 59.348h30.13v-30.13h-30.13z" clip-path="url(#38530a8beab)" fill="#9f1853" stroke="#9f1853" stroke-width="1.5"/><path d="m259.99 105.7h30.13v-30.13h-30.13z" clip-path="url(#38530a8beab)" fill="#9f1853" stroke="#9f1853" stroke-width="1.5"/><path d="m259.99 152.06h30.13v-30.13h-30.13z" clip-path="url(#38530a8beab)" fill="#9f1853" stroke="#9f1853" stroke-width="1.5"/><path d="m321.41 48.803c1.1986 0 2.3482-0.4762 3.1958-1.3237 0.84753-0.84753 1.3237-1.9972 1.3237-3.1958 0-1.1986-0.4762-2.3482-1.3237-3.1958-0.84753-0.84753-1.9972-1.3237-3.1958-1.3237s-2.3482 0.4762-3.1958 1.3237c-0.84753 0.84753-1.3237 1.9972-1.3237 3.1958 0 1.1986 0.4762 2.3482 1.3237 3.1958 0.84753 0.84753 1.9972 1.3237 3.1958 1.3237z" clip-path="url(#38530a8beab)" fill="#33b1ff" stroke="#33b1ff" stroke-width="1.5"/><path d="m321.41 95.157c1.1986 0 2.3482-0.4762 3.1958-1.3237 0.84753-0.84753 1.3237-1.9972 1.3237-3.1958s-0.4762-2.3482-1.3237-3.1958c-0.84753-0.84753-1.9972-1.3237-3.1958-1.3237s-2.3482 0.4762-3.1958 1.3237c-0.84753 0.84753-1.3237 1.9972-1.3237 3.1958s0.4762 2.3482 1.3237 3.1958c0.84753 0.84753 1.9972 1.3237 3.1958 1.3237z" clip-path="url(#38530a8beab)" fill="#33b1ff" stroke="#33b1ff" stroke-width="1.5"/><path d="m367.76 48.803c1.1986 0 2.3482-0.4762 3.1958-1.3237s1.3237-1.9972 1.3237-3.1958c0-1.1986-0.4762-2.3482-1.3237-3.1958s-1.9972-1.3237-3.1958-1.3237c-1.1986 0-2.3482 0.4762-3.1958 1.3237-0.84753 0.84753-1.3237 1.9972-1.3237 3.1958 0 1.1986 0.4762 2.3482 1.3237 3.1958 0.84753 0.84753 1.9972 1.3237 3.1958 1.3237z" clip-path="url(#38530a8beab)" fill="#33b1ff" stroke="#33b1ff" stroke-width="1.5"/><path d="m367.76 141.51c1.1986 0 2.3482-0.4762 3.1958-1.3237s1.3237-1.9972 1.3237-3.1958c0-1.1986-0.4762-2.3482-1.3237-3.1958-0.84753-0.84753-1.9972-1.3237-3.1958-1.3237-1.1986 0-2.3482 0.4762-3.1958 1.3237-0.84753 0.84753-1.3237 1.9972-1.3237 3.1958 0 1.1986 0.4762 2.3482 1.3237 3.1958 0.84753 0.84753 1.9972 1.3237 3.1958 1.3237z" clip-path="url(#38530a8beab)" fill="#33b1ff" stroke="#33b1ff" stroke-width="1.5"/><path d="m414.12 95.157c1.1986 0 2.3482-0.4762 3.1958-1.3237 0.84753-0.84753 1.3237-1.9972 1.3237-3.1958s-0.4762-2.3482-1.3237-3.1958c-0.84753-0.84753-1.9972-1.3237-3.1958-1.3237-1.1986 0-2.3482 0.4762-3.1958 1.3237-0.84753 0.84753-1.3237 1.9972-1.3237 3.1958s0.4762 2.3482 1.3237 3.1958c0.84753 0.84753 1.9972 1.3237 3.1958 1.3237z" clip-path="url(#38530a8beab)" fill="#33b1ff" stroke="#33b1ff" stroke-width="1.5"/><path d="m414.12 141.51c1.1986 0 2.3482-0.4762 3.1958-1.3237 0.84753-0.84753 1.3237-1.9972 1.3237-3.1958 0-1.1986-0.4762-2.3482-1.3237-3.1958-0.84753-0.84753-1.9972-1.3237-3.1958-1.3237-1.1986 0-2.3482 0.4762-3.1958 1.3237-0.84753 0.84753-1.3237 1.9972-1.3237 3.1958 0 1.1986 0.4762 2.3482 1.3237 3.1958s1.9972 1.3237 3.1958 1.3237z" clip-path="url(#38530a8beab)" fill="#33b1ff" stroke="#33b1ff" stroke-width="1.5"/><path d="m399.05 59.348h30.13v-30.13h-30.13z" clip-path="url(#38530a8beab)" fill="#9f1853" stroke="#9f1853" stroke-width="1.5"/><path d="m445.41 105.7h30.13v-30.13h-30.13z" clip-path="url(#38530a8beab)" fill="#9f1853" stroke="#9f1853" stroke-width="1.5"/><path d="m445.41 152.06h30.13v-30.13h-30.13z" clip-path="url(#38530a8beab)" fill="#9f1853" stroke="#9f1853" stroke-width="1.5"/><path d="m506.83 48.803c1.1986 0 2.3482-0.4762 3.1958-1.3237 0.84753-0.84753 1.3237-1.9972 1.3237-3.1958 0-1.1986-0.4762-2.3482-1.3237-3.1958-0.84753-0.84753-1.9972-1.3237-3.1958-1.3237-1.1986 0-2.3482 0.4762-3.1958 1.3237s-1.3237 1.9972-1.3237 3.1958c0 1.1986 0.4762 2.3482 1.3237 3.1958s1.9972 1.3237 3.1958 1.3237z" clip-path="url(#38530a8beab)" fill="#33b1ff" stroke="#33b1ff" stroke-width="1.5"/><path d="m506.83 95.157c1.1986 0 2.3482-0.4762 3.1958-1.3237 0.84753-0.84753 1.3237-1.9972 1.3237-3.1958s-0.4762-2.3482-1.3237-3.1958c-0.84753-0.84753-1.9972-1.3237-3.1958-1.3237-1.1986 0-2.3482 0.4762-3.1958 1.3237-0.84753 0.84753-1.3237 1.9972-1.3237 3.1958s0.4762 2.3482 1.3237 3.1958c0.84753 0.84753 1.9972 1.3237 3.1958 1.3237z" clip-path="url(#38530a8beab)" fill="#33b1ff" stroke="#33b1ff" stroke-width="1.5"/><path d="m553.18 48.803c1.1986 0 2.3482-0.4762 3.1958-1.3237 0.84753-0.84753 1.3237-1.9972 1.3237-3.1958 0-1.1986-0.4762-2.3482-1.3237-3.1958-0.84753-0.84753-1.9972-1.3237-3.1958-1.3237s-2.3482 0.4762-3.1958 1.3237c-0.84753 0.84753-1.3237 1.9972-1.3237 3.1958 0 1.1986 0.4762 2.3482 1.3237 3.1958 0.84753 0.84753 1.9972 1.3237 3.1958 1.3237z" clip-path="url(#38530a8beab)" fill="#33b1ff" stroke="#33b1ff" stroke-width="1.5"/><path d="m553.18 141.51c1.1986 0 2.3482-0.4762 3.1958-1.3237 0.84753-0.84753 1.3237-1.9972 1.3237-3.1958 0-1.1986-0.4762-2.3482-1.3237-3.1958-0.84753-0.84753-1.9972-1.3237-3.1958-1.3237s-2.3482 0.4762-3.1958 1.3237c-0.84753 0.84753-1.3237 1.9972-1.3237 3.1958 0 1.1986 0.4762 2.3482 1.3237 3.1958 0.84753 0.84753 1.9972 1.3237 3.1958 1.3237z" clip-path="url(#38530a8beab)" fill="#33b1ff" stroke="#33b1ff" stroke-width="1.5"/><path d="m599.53 95.157c1.1986 0 2.3482-0.4762 3.1958-1.3237 0.84753-0.84753 1.3237-1.9972 1.3237-3.1958s-0.4762-2.3482-1.3237-3.1958c-0.84753-0.84753-1.9972-1.3237-3.1958-1.3237-1.1986 0-2.3482 0.4762-3.1958 1.3237-0.84753 0.84753-1.3237 1.9972-1.3237 3.1958s0.4762 2.3482 1.3237 3.1958c0.84753 0.84753 1.9972 1.3237 3.1958 1.3237z" clip-path="url(#38530a8beab)" fill="#33b1ff" stroke="#33b1ff" stroke-width="1.5"/><path d="m599.53 141.51c1.1986 0 2.3482-0.4762 3.1958-1.3237s1.3237-1.9972 1.3237-3.1958c0-1.1986-0.4762-2.3482-1.3237-3.1958-0.84753-0.84753-1.9972-1.3237-3.1958-1.3237-1.1986 0-2.3482 0.4762-3.1958 1.3237-0.84753 0.84753-1.3237 1.9972-1.3237 3.1958 0 1.1986 0.4762 2.3482 1.3237 3.1958 0.84753 0.84753 1.9972 1.3237 3.1958 1.3237z" clip-path="url(#38530a8beab)" fill="#33b1ff" stroke="#33b1ff" stroke-width="1.5"/><path d="m584.47 59.348h30.13v-30.13h-30.13z" clip-path="url(#38530a8beab)" fill="#9f1853" stroke="#9f1853" stroke-width="1.5"/><path d="m630.82 105.7h30.13v-30.13h-30.13z" clip-path="url(#38530a8beab)" fill="#9f1853" stroke="#9f1853" stroke-width="1.5"/><path d="m630.82 152.06h30.13v-30.13h-30.13z" clip-path="url(#38530a8beab)" fill="#9f1853" stroke="#9f1853" stroke-width="1.5"/><g clip-path="url(#38530a8beab)"><g transform="translate(37.301 48.734) scale(.1625 -.1625)"><defs><path id="DejaVuSans-Oblique-71" transform="scale(.015625)" d="m2669 525q-231-303-546-460-314-156-695-156-531 0-833 358-301 358-301 986 0 506 186 978t533 847q225 244 517 375t614 131q387 0 637-153t363-462l100 525h578l-934-4813h-579l360 1844zm-1778 813q0-463 193-705 194-242 560-242 544 0 928 520t384 1264q0 450-199 689-198 239-569 239-272 0-504-127-231-126-403-370-181-256-286-600-104-343-104-668z"/><path id="DejaVuSans-30" transform="scale(.015625)" d="m2034 4250q-487 0-733-480-245-479-245-1442 0-959 245-1439 246-480 733-480 491 0 736 480 246 480 246 1439 0 963-246 1442-245 480-736 480zm0 500q785 0 1199-621 414-620 414-1801 0-1178-414-1799-414-620-1199-620-784 0-1198 620-414 621-414 1799 0 1181 414 1801 414 621 1198 621z"/></defs><use xlink:href="#DejaVuSans-Oblique-71"/><use transform="translate(63.477 -16.406) scale(.7)" xlink:href="#DejaVuSans-30"/></g></g><g clip-path="url(#38530a8beab)"><g transform="translate(37.301 95.088) scale(.1625 -.1625)"><defs><path id="DejaVuSans-31" transform="scale(.015625)" d="m794 531h1031v3560l-1122-225v575l1116 225h631v-4135h1031v-531h-2687v531z"/></defs><use xlink:href="#DejaVuSans-Oblique-71"/><use transform="translate(63.477 -16.406) scale(.7)" xlink:href="#DejaVuSans-31"/></g></g><g clip-path="url(#38530a8beab)"><g transform="translate(37.301 141.44) scale(.1625 -.1625)"><defs><path id="DejaVuSans-32" transform="scale(.015625)" d="m1228 531h2203v-531h-2962v531q359 372 979 998 621 627 780 809 303 340 423 576 121 236 121 464 0 372-261 606-261 235-680 235-297 0-627-103-329-103-704-313v638q381 153 712 231 332 78 607 78 725 0 1156-363 431-362 431-968 0-288-108-546-107-257-392-607-78-91-497-524-418-433-1181-1211z"/></defs><use xlink:href="#DejaVuSans-Oblique-71"/><use transform="translate(63.477 -16.406) scale(.7)" xlink:href="#DejaVuSans-32"/></g></g><g clip-path="url(#38530a8beab)"><g transform="translate(81.527 55.53) scale(.08 -.08)" fill="#ffffff"><defs><path id="DejaVuSans-3b8" transform="scale(.015625)" d="m2953 2219h-1990q46-935 262-1331 269-488 734-488 469 0 729 491 228 431 265 1328zm-9 531q-88 888-256 1200-269 494-729 494-478 0-731-488-200-393-259-1206h1975zm-985 2163q750 0 1179-663 428-659 428-1828 0-1166-428-1828-429-666-1179-666-753 0-1178 666-428 662-428 1828 0 1169 428 1828 425 663 1178 663z"/><path id="DejaVuSans-5b" transform="scale(.015625)" d="m550 4863h1325v-447h-750v-4813h750v-447h-1325v5707z"/><path id="DejaVuSans-5d" transform="scale(.015625)" d="m1947 4863v-5707h-1325v447h747v4813h-747v447h1325z"/></defs><use xlink:href="#DejaVuSans-3b8"/><use transform="translate(61.182)" xlink:href="#DejaVuSans-5b"/><use transform="translate(100.2)" xlink:href="#DejaVuSans-30"/><use transform="translate(163.82)" xlink:href="#DejaVuSans-5d"/></g></g><g clip-path="url(#38530a8beab)"><g transform="translate(81.71 43.351) scale(.13 -.13)" fill="#ffffff"><defs><path id="DejaVuSans-52" transform="scale(.015625)" d="m2841 2188q203-69 395-294t386-619l641-1275h-679l-596 1197q-232 469-449 622t-592 153h-688v-1972h-631v4666h1425q800 0 1194-335 394-334 394-1009 0-441-205-732-205-290-595-402zm-1582 1959v-1656h794q456 0 689 211t233 620-233 617-689 208h-794z"/><path id="DejaVuSans-58" transform="scale(.015625)" d="m403 4666h678l1160-1735 1165 1735h678l-1500-2241 1600-2425h-678l-1312 1984-1322-1984h-681l1665 2491-1453 2175z"/></defs><use transform="translate(0 .09375)" xlink:href="#DejaVuSans-52"/><use transform="translate(70.439 -16.312) scale(.7)" xlink:href="#DejaVuSans-58"/></g></g><g clip-path="url(#38530a8beab)"><g transform="translate(81.527 101.88) scale(.08 -.08)" fill="#ffffff"><use xlink:href="#DejaVuSans-3b8"/><use transform="translate(61.182)" xlink:href="#DejaVuSans-5b"/><use transform="translate(100.2)" xlink:href="#DejaVuSans-31"/><use transform="translate(163.82)" xlink:href="#DejaVuSans-5d"/></g></g><g clip-path="url(#38530a8beab)"><g transform="translate(81.71 89.705) scale(.13 -.13)" fill="#ffffff"><use transform="translate(0 .09375)" xlink:href="#DejaVuSans-52"/><use transform="translate(70.439 -16.312) scale(.7)" xlink:href="#DejaVuSans-58"/></g></g><g clip-path="url(#38530a8beab)"><g transform="translate(81.527 148.24) scale(.08 -.08)" fill="#ffffff"><use xlink:href="#DejaVuSans-3b8"/><use transform="translate(61.182)" xlink:href="#DejaVuSans-5b"/><use transform="translate(100.2)" xlink:href="#DejaVuSans-32"/><use transform="translate(163.82)" xlink:href="#DejaVuSans-5d"/></g></g><g clip-path="url(#38530a8beab)"><g transform="translate(81.71 136.06) scale(.13 -.13)" fill="#ffffff"><use transform="translate(0 .09375)" xlink:href="#DejaVuSans-52"/><use transform="translate(70.439 -16.312) scale(.7)" xlink:href="#DejaVuSans-58"/></g></g><g clip-path="url(#38530a8beab)"><g transform="translate(220.59 55.53) scale(.08 -.08)" fill="#ffffff"><defs><path id="DejaVuSans-33" transform="scale(.015625)" d="m2597 2516q453-97 707-404 255-306 255-756 0-690-475-1069-475-378-1350-378-293 0-604 58t-642 174v609q262-153 574-231 313-78 654-78 593 0 904 234t311 681q0 413-289 645-289 233-804 233h-544v519h569q465 0 712 186t247 536q0 359-255 551-254 193-729 193-260 0-557-57-297-56-653-174v562q360 100 674 150t592 50q719 0 1137-327 419-326 419-882 0-388-222-655t-631-370z"/></defs><use xlink:href="#DejaVuSans-3b8"/><use transform="translate(61.182)" xlink:href="#DejaVuSans-5b"/><use transform="translate(100.2)" xlink:href="#DejaVuSans-33"/><use transform="translate(163.82)" xlink:href="#DejaVuSans-5d"/></g></g><g clip-path="url(#38530a8beab)"><g transform="translate(220.77 43.351) scale(.13 -.13)" fill="#ffffff"><use transform="translate(0 .09375)" xlink:href="#DejaVuSans-52"/><use transform="translate(70.439 -16.312) scale(.7)" xlink:href="#DejaVuSans-58"/></g></g><g clip-path="url(#38530a8beab)"><g transform="translate(266.94 101.88) scale(.08 -.08)" fill="#ffffff"><defs><path id="DejaVuSans-34" transform="scale(.015625)" d="m2419 4116-1594-2491h1594v2491zm-166 550h794v-3041h666v-525h-666v-1100h-628v1100h-2106v609l1940 2957z"/></defs><use xlink:href="#DejaVuSans-3b8"/><use transform="translate(61.182)" xlink:href="#DejaVuSans-5b"/><use transform="translate(100.2)" xlink:href="#DejaVuSans-34"/><use transform="translate(163.82)" xlink:href="#DejaVuSans-5d"/></g></g><g clip-path="url(#38530a8beab)"><g transform="translate(267.13 89.705) scale(.13 -.13)" fill="#ffffff"><use transform="translate(0 .09375)" xlink:href="#DejaVuSans-52"/><use transform="translate(70.439 -16.312) scale(.7)" xlink:href="#DejaVuSans-58"/></g></g><g clip-path="url(#38530a8beab)"><g transform="translate(266.94 148.24) scale(.08 -.08)" fill="#ffffff"><defs><path id="DejaVuSans-35" transform="scale(.015625)" d="m691 4666h2478v-532h-1900v-1143q137 47 274 70 138 23 276 23 781 0 1237-428 457-428 457-1159 0-753-469-1171-469-417-1322-417-294 0-599 50-304 50-629 150v635q281-153 581-228t634-75q541 0 856 284 316 284 316 772 0 487-316 771-315 285-856 285-253 0-505-56-251-56-513-175v2344z"/></defs><use xlink:href="#DejaVuSans-3b8"/><use transform="translate(61.182)" xlink:href="#DejaVuSans-5b"/><use transform="translate(100.2)" xlink:href="#DejaVuSans-35"/><use transform="translate(163.82)" xlink:href="#DejaVuSans-5d"/></g></g><g clip-path="url(#38530a8beab)"><g transform="translate(267.13 136.06) scale(.13 -.13)" fill="#ffffff"><use transform="translate(0 .09375)" xlink:href="#DejaVuSans-52"/><use transform="translate(70.439 -16.312) scale(.7)" xlink:href="#DejaVuSans-58"/></g></g><g clip-path="url(#38530a8beab)"><g transform="translate(406 55.53) scale(.08 -.08)" fill="#ffffff"><defs><path id="DejaVuSans-36" transform="scale(.015625)" d="m2113 2584q-425 0-674-291-248-290-248-796 0-503 248-796 249-292 674-292t673 292q248 293 248 796 0 506-248 796-248 291-673 291zm1253 1979v-575q-238 112-480 171-242 60-480 60-625 0-955-422-329-422-376-1275 184 272 462 417 279 145 613 145 703 0 1111-427 408-426 408-1160 0-719-425-1154-425-434-1131-434-810 0-1238 620-428 621-428 1799 0 1106 525 1764t1409 658q238 0 480-47t505-140z"/></defs><use xlink:href="#DejaVuSans-3b8"/><use transform="translate(61.182)" xlink:href="#DejaVuSans-5b"/><use transform="translate(100.2)" xlink:href="#DejaVuSans-36"/><use transform="translate(163.82)" xlink:href="#DejaVuSans-5d"/></g></g><g clip-path="url(#38530a8beab)"><g transform="translate(406.19 43.351) scale(.13 -.13)" fill="#ffffff"><use transform="translate(0 .09375)" xlink:href="#DejaVuSans-52"/><use transform="translate(70.439 -16.312) scale(.7)" xlink:href="#DejaVuSans-58"/></g></g><g clip-path="url(#38530a8beab)"><g transform="translate(452.36 101.88) scale(.08 -.08)" fill="#ffffff"><defs><path id="DejaVuSans-37" transform="scale(.015625)" d="m525 4666h3e3v-269l-1694-4397h-659l1594 4134h-2241v532z"/></defs><use xlink:href="#DejaVuSans-3b8"/><use transform="translate(61.182)" xlink:href="#DejaVuSans-5b"/><use transform="translate(100.2)" xlink:href="#DejaVuSans-37"/><use transform="translate(163.82)" xlink:href="#DejaVuSans-5d"/></g></g><g clip-path="url(#38530a8beab)"><g transform="translate(452.54 89.705) scale(.13 -.13)" fill="#ffffff"><use transform="translate(0 .09375)" xlink:href="#DejaVuSans-52"/><use transform="translate(70.439 -16.312) scale(.7)" xlink:href="#DejaVuSans-58"/></g></g><g clip-path="url(#38530a8beab)"><g transform="translate(452.36 148.24) scale(.08 -.08)" fill="#ffffff"><defs><path id="DejaVuSans-38" transform="scale(.015625)" d="m2034 2216q-450 0-708-241-257-241-257-662 0-422 257-663 258-241 708-241t709 242q260 243 260 662 0 421-258 662-257 241-711 241zm-631 268q-406 100-633 378-226 279-226 679 0 559 398 884 399 325 1092 325 697 0 1094-325t397-884q0-400-227-679-226-278-629-378 456-106 710-416 255-309 255-755 0-679-414-1042-414-362-1186-362-771 0-1186 362-414 363-414 1042 0 446 256 755 257 310 713 416zm-231 997q0-362 226-565 227-203 636-203 407 0 636 203 230 203 230 565 0 363-230 566-229 203-636 203-409 0-636-203-226-203-226-566z"/></defs><use xlink:href="#DejaVuSans-3b8"/><use transform="translate(61.182)" xlink:href="#DejaVuSans-5b"/><use transform="translate(100.2)" xlink:href="#DejaVuSans-38"/><use transform="translate(163.82)" xlink:href="#DejaVuSans-5d"/></g></g><g clip-path="url(#38530a8beab)"><g transform="translate(452.54 136.06) scale(.13 -.13)" fill="#ffffff"><use transform="translate(0 .09375)" xlink:href="#DejaVuSans-52"/><use transform="translate(70.439 -16.312) scale(.7)" xlink:href="#DejaVuSans-58"/></g></g><g clip-path="url(#38530a8beab)"><g transform="translate(591.42 55.53) scale(.08 -.08)" fill="#ffffff"><defs><path id="DejaVuSans-39" transform="scale(.015625)" d="m703 97v575q238-113 481-172 244-59 479-59 625 0 954 420 330 420 377 1277-181-269-460-413-278-144-615-144-700 0-1108 423-408 424-408 1159 0 718 425 1152 425 435 1131 435 810 0 1236-621 427-620 427-1801 0-1103-524-1761-523-658-1407-658-238 0-482 47-243 47-506 141zm1256 1978q425 0 673 290 249 291 249 798 0 503-249 795-248 292-673 292t-673-292-248-795q0-507 248-798 248-290 673-290z"/></defs><use xlink:href="#DejaVuSans-3b8"/><use transform="translate(61.182)" xlink:href="#DejaVuSans-5b"/><use transform="translate(100.2)" xlink:href="#DejaVuSans-39"/><use transform="translate(163.82)" xlink:href="#DejaVuSans-5d"/></g></g><g clip-path="url(#38530a8beab)"><g transform="translate(591.6 43.351) scale(.13 -.13)" fill="#ffffff"><use transform="translate(0 .09375)" xlink:href="#DejaVuSans-52"/><use transform="translate(70.439 -16.312) scale(.7)" xlink:href="#DejaVuSans-58"/></g></g><g clip-path="url(#38530a8beab)"><g transform="translate(635.23 101.88) scale(.08 -.08)" fill="#ffffff"><use xlink:href="#DejaVuSans-3b8"/><use transform="translate(61.182)" xlink:href="#DejaVuSans-5b"/><use transform="translate(100.2)" xlink:href="#DejaVuSans-31"/><use transform="translate(163.82)" xlink:href="#DejaVuSans-30"/><use transform="translate(227.44)" xlink:href="#DejaVuSans-5d"/></g></g><g clip-path="url(#38530a8beab)"><g transform="translate(637.96 89.705) scale(.13 -.13)" fill="#ffffff"><use transform="translate(0 .09375)" xlink:href="#DejaVuSans-52"/><use transform="translate(70.439 -16.312) scale(.7)" xlink:href="#DejaVuSans-58"/></g></g><g clip-path="url(#38530a8beab)"><g transform="translate(635.23 148.24) scale(.08 -.08)" fill="#ffffff"><use xlink:href="#DejaVuSans-3b8"/><use transform="translate(61.182)" xlink:href="#DejaVuSans-5b"/><use transform="translate(100.2)" xlink:href="#DejaVuSans-31"/><use transform="translate(163.82)" xlink:href="#DejaVuSans-31"/><use transform="translate(227.44)" xlink:href="#DejaVuSans-5d"/></g></g><g clip-path="url(#38530a8beab)"><g transform="translate(637.96 136.06) scale(.13 -.13)" fill="#ffffff"><use transform="translate(0 .09375)" xlink:href="#DejaVuSans-52"/><use transform="translate(70.439 -16.312) scale(.7)" xlink:href="#DejaVuSans-58"/></g></g><defs><clipPath id="38530a8beab"><rect x="7.2" y="7.2" width="669.28" height="157.6"/></clipPath></defs></svg>