<?xml version="1.0" encoding="UTF-8"?><!DOCTYPE svg  PUBLIC '-//W3C//DTD SVG 1.1//EN'  'http://www.w3.org/Graphics/SVG/1.1/DTD/svg11.dtd'><svg width="220.03pt" height="125.65pt" version="1.1" viewBox="0 0 220.03 125.65" xmlns="http://www.w3.org/2000/svg" xmlns:xlink="http://www.w3.org/1999/xlink"><defs><style type="text/css">*{stroke-linejoin: round; stroke-linecap: butt}</style></defs><path d="m0 125.65h220.03v-125.65h-220.03z" fill="#ffffff"/><path d="m64.497 44.283h143.7" clip-path="url(#fd0cd85198f)" fill="none" stroke="#000000" stroke-linecap="square" stroke-width="2"/><path d="m64.497 90.637h143.7" clip-path="url(#fd0cd85198f)" fill="none" stroke="#000000" stroke-linecap="square" stroke-width="2"/><path d="m59.862 21.106h-1158.8v139.06h1158.8z" clip-path="url(#fd0cd85198f)" fill="#ffffff" stroke="#ffffff" stroke-width="1.5"/><path d="m135.88 90.637v-46.354" clip-path="url(#fd0cd85198f)" fill="none" stroke="#002d9c" stroke-linecap="square" stroke-width="2"/><path d="m74.463 59.348h30.13v-30.13h-30.13z" clip-path="url(#fd0cd85198f)" fill="#fa4d56" stroke="#fa4d56" stroke-width="1.5"/><path d="m135.88 48.803c1.1986 0 2.3482-0.4762 3.1958-1.3237 0.84753-0.84753 1.3237-1.9972 1.3237-3.1958 0-1.1986-0.4762-2.3482-1.3237-3.1958-0.84753-0.84753-1.9972-1.3237-3.1958-1.3237-1.1986 0-2.3482 0.4762-3.1958 1.3237s-1.3237 1.9972-1.3237 3.1958c0 1.1986 0.4762 2.3482 1.3237 3.1958s1.9972 1.3237 3.1958 1.3237z" clip-path="url(#fd0cd85198f)" fill="#002d9c" stroke="#002d9c" stroke-width="1.5"/><path d="m135.88 101.18c2.7967 0 5.4792-1.1111 7.4568-3.0887 1.9776-1.9776 3.0887-4.6601 3.0887-7.4568 0-2.7967-1.1111-5.4792-3.0887-7.4568-1.9776-1.9776-4.6601-3.0887-7.4568-3.0887-2.7967 0-5.4792 1.1111-7.4568 3.0887-1.9776 1.9776-3.0887 4.6601-3.0887 7.4568 0 2.7967 1.1111 5.4792 3.0887 7.4568 1.9776 1.9776 4.6601 3.0887 7.4568 3.0887z" clip-path="url(#fd0cd85198f)" fill="#002d9c" stroke="#002d9c" stroke-width="2"/><path d="m167.17 59.348h30.13v-30.13h-30.13z" clip-path="url(#fd0cd85198f)" fill="#9f1853" stroke="#9f1853" stroke-width="1.5"/><path d="m135.88 96.663v-12.052" clip-path="url(#fd0cd85198f)" fill="none" stroke="#ffffff" stroke-linecap="square" stroke-width="2"/><path d="m129.86 90.637h12.052" clip-path="url(#fd0cd85198f)" fill="none" stroke="#ffffff" stroke-linecap="square" stroke-width="2"/><g clip-path="url(#fd0cd85198f)"><g transform="translate(37.189 48.734) scale(.1625 -.1625)"><defs><path id="DejaVuSans-Oblique-71" transform="scale(.015625)" d="m2669 525q-231-303-546-460-314-156-695-156-531 0-833 358-301 358-301 986 0 506 186 978t533 847q225 244 517 375t614 131q387 0 637-153t363-462l100 525h578l-934-4813h-579l360 1844zm-1778 813q0-463 193-705 194-242 560-242 544 0 928 520t384 1264q0 450-199 689-198 239-569 239-272 0-504-127-231-126-403-370-181-256-286-600-104-343-104-668z"/><path id="DejaVuSans-30" transform="scale(.015625)" d="m2034 4250q-487 0-733-480-245-479-245-1442 0-959 245-1439 246-480 733-480 491 0 736 480 246 480 246 1439 0 963-246 1442-245 480-736 480zm0 500q785 0 1199-621 414-620 414-1801 0-1178-414-1799-414-620-1199-620-784 0-1198 620-414 621-414 1799 0 1181 414 1801 414 621 1198 621z"/></defs><use xlink:href="#DejaVuSans-Oblique-71"/><use transform="translate(63.477 -16.406) scale(.7)" xlink:href="#DejaVuSans-30"/></g></g><g clip-path="url(#fd0cd85198f)"><g transform="translate(37.189 95.088) scale(.1625 -.1625)"><defs><path id="DejaVuSans-31" transform="scale(.015625)" d="m794 531h1031v3560l-1122-225v575l1116 225h631v-4135h1031v-531h-2687v531z"/></defs><use xlink:href="#DejaVuSans-Oblique-71"/><use transform="translate(63.477 -16.406) scale(.7)" xlink:href="#DejaVuSans-31"/></g></g><g clip-path="url(#fd0cd85198f)"><g transform="translate(84.64 47.87) scale(.13 -.13)"><defs><path id="DejaVuSans-48" transform="scale(.015625)" d="m628 4666h631v-1913h2294v1913h631v-4666h-631v2222h-2294v-2222h-631v4666z"/></defs><use xlink:href="#DejaVuSans-48"/></g></g><g clip-path="url(#fd0cd85198f)"><g transform="translate(179.76 55.53) scale(.08 -.08)" fill="#ffffff"><defs><path id="DejaVuSans-Oblique-3b8" transform="scale(.015625)" d="m2913 2219h-1988q-134-935 3-1331 172-488 638-488 468 0 825 491 312 431 522 1328zm96 531q85 888-25 1200-171 494-631 494-478 0-828-488-275-393-491-1206h1975zm-565 2163q750 0 1050-663 300-659 72-1828-225-1166-785-1828-556-666-1306-666-753 0-1050 666-297 662-72 1828 228 1169 781 1828 557 663 1310 663z"/></defs><use transform="translate(0 .23438)" xlink:href="#DejaVuSans-Oblique-3b8"/></g></g><g clip-path="url(#fd0cd85198f)"><g transform="translate(174.7 43.351) scale(.13 -.13)" fill="#ffffff"><defs><path id="DejaVuSans-52" transform="scale(.015625)" d="m2841 2188q203-69 395-294t386-619l641-1275h-679l-596 1197q-232 469-449 622t-592 153h-688v-1972h-631v4666h1425q800 0 1194-335 394-334 394-1009 0-441-205-732-205-290-595-402zm-1582 1959v-1656h794q456 0 689 211t233 620-233 617-689 208h-794z"/><path id="DejaVuSans-59" transform="scale(.015625)" d="m-13 4666h679l1293-1919 1285 1919h678l-1650-2444v-2222h-634v2222l-1651 2444z"/></defs><use transform="translate(0 .09375)" xlink:href="#DejaVuSans-52"/><use transform="translate(70.439 -16.312) scale(.7)" xlink:href="#DejaVuSans-59"/></g></g><defs><clipPath id="fd0cd85198f"><rect x="7.2" y="7.2" width="205.63" height="111.25"/></clipPath></defs></svg>