<?xml version='1.0' encoding='utf-8'?>
<svg xmlns="http://www.w3.org/2000/svg" xmlns:ns1="http://sodipodi.sourceforge.net/DTD/sodipodi-0.dtd" xmlns:ns2="http://www.inkscape.org/namespaces/inkscape" version="1.1" id="svg1" width="100%" height="auto" viewBox="-20.0 -20.0 263.23437 233.70305" ns1:docname="svg_fix_XXXXXX.svg">
  <rect id="path1" x="-20.0" y="-20.0" width="263.23437" height="233.70305" fill="white" /><ns1:namedview id="namedview1" pagecolor="#ffffff" bordercolor="#000000" borderopacity="0.25" ns2:showpageshadow="2" ns2:pageopacity="0.0" ns2:pagecheckerboard="0" ns2:deskcolor="#d1d1d1" />
  <defs id="defs1" />
  <g id="g1" transform="translate(-188.625,-35.445312)">
    <path id="path2" d="M 48.18947,0 C 48.18947,26.61464 26.61464,48.18947 0,48.18947 -26.61464,48.18947 -48.18947,26.61464 -48.18947,0 c 0,-26.61464 21.57483,-48.18947 48.18947,-48.18947 26.61464,0 48.18947,21.57483 48.18947,48.18947 z" style="fill:none;stroke:#121619;stroke-width:0.3985;stroke-linecap:round;stroke-linejoin:miter;stroke-miterlimit:10;stroke-dasharray:none;stroke-opacity:1" transform="matrix(1.8,0,0,-1.8,293.46993,142.04867)" />
    <path id="path3" d="M -48.18947,0 H 48.18947" style="fill:none;stroke:#121619;stroke-width:0.3985;stroke-linecap:round;stroke-linejoin:miter;stroke-miterlimit:10;stroke-dasharray:0.3985, 0.99628;stroke-dashoffset:0;stroke-opacity:1" transform="matrix(1.8,0,0,-1.8,293.46993,142.04867)" />
    <path id="path4" d="M 0,-48.18947 V 48.18947" style="fill:none;stroke:#121619;stroke-width:0.3985;stroke-linecap:round;stroke-linejoin:miter;stroke-miterlimit:10;stroke-dasharray:0.3985, 0.99628;stroke-dashoffset:0;stroke-opacity:1" transform="matrix(1.8,0,0,-1.8,293.46993,142.04867)" />
    <g id="g4" aria-label="∣ψ&#10;π" transform="matrix(1.8,0,0,1.8,359.95473,68.461067)">
      <path id="path5" d="m 1.1970231,-6.8750718 v 9.3663195 h 0.5034723 v -9.3663195 z m 0,0" style="fill:#121619;fill-opacity:1;fill-rule:nonzero;stroke:none" />
      <path id="path6" d="m 6.9457211,-5.269169 c 0.034722,-0.1128472 0.034722,-0.1215278 0.034722,-0.15625 0,-0.078125 -0.052083,-0.1041666 -0.1215278,-0.1041666 -0.1041667,0 -0.1128472,0.034722 -0.1388889,0.1649305 l -1.3020833,5.20833334 c -0.5642361,-0.0694444 -0.9548611,-0.3125 -0.9548611,-0.87673614 0,-0.15625 0,-0.3645833 0.4253472,-1.4236111 0.078125,-0.2170139 0.086806,-0.2864583 0.086806,-0.3819444 0,-0.4253472 -0.3559028,-0.6770834 -0.7204862,-0.6770834 -0.7899305,0 -1.1111111,1.1284723 -1.1111111,1.2239584 0,0.069444 0.052083,0.1041666 0.1128473,0.1041666 0.1041666,0 0.1128472,-0.052083 0.1388888,-0.1302083 0.2083334,-0.6944444 0.546875,-0.9722222 0.8333334,-0.9722222 0.1215278,0 0.1909722,0.078125 0.1909722,0.2604167 0,0.1822916 -0.069444,0.3732638 -0.1388889,0.546875 -0.4079861,1.0590277 -0.4079861,1.2239583 -0.4079861,1.3888888 0,0.75520837 0.6510417,1.1024306 1.484375,1.15451393 L 4.9925961,1.5190255 c 0,0.078125 0.060764,0.1041666 0.1215277,0.1041666 0.1041667,0 0.1128473,-0.026042 0.1649306,-0.1996527 0.034722,-0.1736112 0,-0.060764 0.3298611,-1.34548616 0.3298611,0 0.9375,0 1.71875,-0.73784722 0.3211806,-0.29513889 0.5034722,-0.62500002 0.5729167,-0.73784722 0.2604166,-0.5208333 0.3732639,-1.2152778 0.3732639,-1.5017361 0,-0.625 -0.3645834,-0.625 -0.390625,-0.625 -0.1909723,0 -0.4166667,0.2083333 -0.4166667,0.4166667 0,0.1302083 0.069444,0.1909722 0.1128472,0.2256944 0.078125,0.069444 0.3211806,0.2777778 0.3211806,0.6597222 0,0.6597222 -0.9027778,2.0746528 -2.2309028,2.0746528 z m 0,0" style="fill:#121619;fill-opacity:1;fill-rule:nonzero;stroke:none" />
      <path id="path7" d="m 13.145808,-2.9818426 c 0.08681,0 0.138889,0 0.208333,-0.052083 0.02604,-0.026042 0.07813,-0.095486 0.07813,-0.1649306 0,-0.15625 -0.147569,-0.15625 -0.234375,-0.15625 H 11.06248 c -0.112848,0 -0.338542,0 -0.633681,0.2430556 -0.130208,0.1215278 -0.355903,0.3732639 -0.355903,0.4340278 0,0.069444 0.06944,0.069444 0.104167,0.069444 0.06944,0 0.06944,0 0.104167,-0.043403 0.173611,-0.2170139 0.407986,-0.3298611 0.711805,-0.3298611 h 0.355903 c -0.182292,0.625 -0.434028,1.1458333 -0.607639,1.4583333 -0.07813,0.1302084 -0.07813,0.1388889 -0.07813,0.1909723 0,0.1128472 0.09549,0.1736111 0.190972,0.1736111 0.208334,0 0.277778,-0.2256945 0.399306,-0.6336806 0.112847,-0.3819444 0.199653,-0.7465278 0.3125,-1.1892361 h 0.651041 c -0.01736,0.078125 -0.15625,0.6163195 -0.15625,1.015625 0,0.3385417 0.121528,0.8072917 0.347223,0.8072917 0.112847,0 0.260416,-0.1128472 0.260416,-0.2430556 0,-0.052083 -0.02604,-0.078125 -0.06076,-0.1388889 -0.225694,-0.3732639 -0.225694,-0.8072916 -0.225694,-0.9027777 0,-0.1649306 0.02604,-0.3645834 0.05208,-0.5381945 z m 0,0" style="fill:#121619;fill-opacity:1;fill-rule:nonzero;stroke:none" />
    </g>
    <path id="path8" d="m 135.998,-51.261 h 4.319" style="fill:none;stroke:#121619;stroke-width:0.3347;stroke-linecap:butt;stroke-linejoin:miter;stroke-miterlimit:10;stroke-dasharray:none;stroke-opacity:1" transform="matrix(1.8,0,0,-1.8,132.49413,-24.184933)" />
    <g id="g8" aria-label="4&#10;⟩" transform="matrix(1.8,0,0,1.8,378.12753,75.563867)">
      <path id="path9" d="M 3.0736794,-0.81673148 V -1.0337454 h -0.625 v -2.1875 c 0,-0.1215277 0,-0.15625 -0.1302083,-0.15625 -0.1041667,0 -0.1041667,0.00868 -0.15625,0.078125 l -1.84895837,2.265625 v 0.21701392 H 1.9712488 v 0.390625 c 0,0.15625 0,0.20833333 -0.4340277,0.20833333 H 1.36361 V -7.5925926e-4 C 1.597985,-0.00943981 1.9278461,-0.01812037 2.2143044,-0.01812037 c 0.2864583,0 0.6076389,0.00868056 0.8420139,0.0173611107 V -0.21777315 H 2.8827072 c -0.4340278,0 -0.4340278,-0.0520833 -0.4340278,-0.20833333 v -0.390625 z M 2.0146516,-2.8393009 v 1.8055555 H 0.54763773 Z m 0,0" style="fill:#121619;fill-opacity:1;fill-rule:nonzero;stroke:none" />
      <path id="path10" d="m 6.7629155,-1.3679468 1.5277778,-4.765625 -1.5277778,-4.7656252 -0.4861111,0.15625 1.5364583,4.6093752 -1.5364583,4.6006945 z m 0,0" style="fill:#121619;fill-opacity:1;fill-rule:nonzero;stroke:none" />
    </g>
    <g id="g10" aria-label="∣ψ&#10;3π" transform="matrix(1.8,0,0,1.8,186.46713,73.823267)">
      <path id="path11" d="M 1.1988148,-6.8744711 V 2.4918484 H 1.702287 v -9.3663195 z m 0,0" style="fill:#121619;fill-opacity:1;fill-rule:nonzero;stroke:none" />
      <path id="path12" d="m 6.9453426,-5.2685683 c 0.034722,-0.1128472 0.034722,-0.1215278 0.034722,-0.15625 0,-0.078125 -0.052083,-0.1041667 -0.1215278,-0.1041667 -0.1041666,0 -0.1128472,0.034722 -0.1388889,0.1649306 l -1.3020833,5.20833334 c -0.5642361,-0.0694445 -0.9548611,-0.3125 -0.9548611,-0.87673614 0,-0.15625 0,-0.3645833 0.4253472,-1.4236111 0.078125,-0.2170139 0.086806,-0.2864583 0.086806,-0.3819444 0,-0.4253473 -0.3559028,-0.6770834 -0.7204861,-0.6770834 -0.7899306,0 -1.1111111,1.1284723 -1.1111111,1.2239584 0,0.069444 0.052083,0.1041666 0.1128472,0.1041666 0.1041666,0 0.1128472,-0.052083 0.1388889,-0.1302083 0.2083333,-0.6944444 0.546875,-0.9722222 0.8333333,-0.9722222 0.1215278,0 0.1909722,0.078125 0.1909722,0.2604166 0,0.1822917 -0.069444,0.3732639 -0.1388889,0.546875 -0.4079861,1.0590278 -0.4079861,1.2239584 -0.4079861,1.3888889 0,0.75520837 0.6510417,1.10243059 1.484375,1.15451392 L 4.9922176,1.5196262 c 0,0.078125 0.060764,0.1041666 0.1215278,0.1041666 0.1041666,0 0.1128472,-0.026042 0.1649305,-0.1996528 0.034722,-0.1736111 0,-0.060764 0.3298611,-1.34548606 0.3298611,0 0.9375,0 1.71875,-0.73784723 0.3211806,-0.29513889 0.5034723,-0.62500001 0.5729167,-0.73784721 0.2604167,-0.5208333 0.3732639,-1.2152778 0.3732639,-1.5017361 0,-0.625 -0.3645833,-0.625 -0.390625,-0.625 -0.1909722,0 -0.4166667,0.2083333 -0.4166667,0.4166666 0,0.1302084 0.069445,0.1909723 0.1128472,0.2256945 0.078125,0.069444 0.3211806,0.2777778 0.3211806,0.6597222 0,0.6597222 -0.9027778,2.07465279 -2.2309028,2.07465279 z m 0,0" style="fill:#121619;fill-opacity:1;fill-rule:nonzero;stroke:none" />
      <path id="path13" d="m 11.2726,-1.920044 c 0.460069,0 0.763888,0.2864584 0.763888,0.78125 0,0.50347224 -0.3125,0.77256946 -0.755208,0.77256946 -0.05208,0 -0.651042,0 -0.902778,-0.26041666 0.208334,-0.0260417 0.269098,-0.18229167 0.269098,-0.30381945 0,-0.18229165 -0.14757,-0.30381945 -0.30382,-0.30381945 -0.16493,0 -0.3125,0.1041667 -0.3125,0.31250001 0,0.52083333 0.590278,0.76388889 1.267361,0.76388889 0.815972,0 1.319445,-0.49479167 1.319445,-0.9809028 0,-0.4079861 -0.355903,-0.7552083 -0.92882,-0.8854166 0.598959,-0.1909723 0.755209,-0.5729167 0.755209,-0.8506945 0,-0.4079861 -0.503473,-0.7118055 -1.137153,-0.7118055 -0.607639,0 -1.102431,0.2604166 -1.102431,0.703125 0,0.234375 0.190972,0.2951388 0.286459,0.2951388 0.138888,0 0.277777,-0.1041666 0.277777,-0.2864583 0,-0.1128472 -0.05208,-0.2517361 -0.234375,-0.2777778 0.217014,-0.234375 0.659723,-0.2430555 0.763889,-0.2430555 0.364584,0 0.61632,0.1822916 0.61632,0.5208333 0,0.2864583 -0.182292,0.7378472 -0.711806,0.7725695 -0.138889,0 -0.15625,0.00868 -0.286458,0.00868 -0.05208,0.00868 -0.112847,0.017361 -0.112847,0.086806 0,0.086805 0.05208,0.086805 0.147569,0.086805 z m 0,0" style="fill:#121619;fill-opacity:1;fill-rule:nonzero;stroke:none" />
      <path id="path14" d="m 16.537356,-2.0415718 c 0.08681,0 0.138889,0 0.208334,-0.052083 0.02604,-0.026042 0.07813,-0.095486 0.07813,-0.1649305 0,-0.15625 -0.14757,-0.15625 -0.234375,-0.15625 h -2.135417 c -0.112847,0 -0.338542,0 -0.63368,0.2430555 -0.130209,0.1215278 -0.355903,0.3732639 -0.355903,0.4340278 0,0.069444 0.06944,0.069444 0.104166,0.069444 0.06944,0 0.06944,0 0.104167,-0.043403 0.173611,-0.2170139 0.407986,-0.3298612 0.711806,-0.3298612 h 0.355902 c -0.182291,0.625 -0.434027,1.14583337 -0.607638,1.45833337 -0.07813,0.13020834 -0.07813,0.13888889 -0.07813,0.19097223 0,0.11284722 0.09549,0.17361111 0.190972,0.17361111 0.208333,0 0.277778,-0.22569445 0.399305,-0.63368056 0.112848,-0.38194445 0.199653,-0.74652775 0.3125,-1.18923615 h 0.651042 c -0.01736,0.078125 -0.15625,0.6163195 -0.15625,1.015625 0,0.33854171 0.121528,0.80729171 0.347222,0.80729171 0.112847,0 0.260417,-0.11284722 0.260417,-0.24305556 0,-0.0520833 -0.02604,-0.078125 -0.06076,-0.13888889 -0.225694,-0.37326389 -0.225694,-0.80729166 -0.225694,-0.90277776 0,-0.1649306 0.02604,-0.3645833 0.05208,-0.5381945 z m 0,0" style="fill:#121619;fill-opacity:1;fill-rule:nonzero;stroke:none" />
    </g>
    <path id="path15" d="m 135.998,-52.199 h 7.709" style="fill:none;stroke:#121619;stroke-width:0.3347;stroke-linecap:butt;stroke-linejoin:miter;stroke-miterlimit:10;stroke-dasharray:none;stroke-opacity:1" transform="matrix(1.8,0,0,-1.8,-40.993467,-18.822733)" />
    <g id="g15" aria-label="4&#10;⟩" transform="matrix(1.8,0,0,1.8,207.69093,82.614467)">
      <path id="path16" d="M 3.0731794,-0.81663079 V -1.0336447 h -0.625 v -2.1875 c 0,-0.1215278 0,-0.15625 -0.1302083,-0.15625 -0.1041667,0 -0.1041667,0.00868 -0.15625,0.078125 l -1.84895837,2.265625 v 0.21701391 H 1.9707488 v 0.390625 c 0,0.15625 0,0.20833334 -0.4340277,0.20833334 H 1.36311 V -6.5856481e-4 C 1.597485,-0.00933912 1.9273461,-0.01801968 2.2138044,-0.01801968 c 0.2864583,0 0.6076389,0.00868056 0.8420139,0.0173611152 V -0.21767245 H 2.8822072 c -0.4340278,0 -0.4340278,-0.0520833 -0.4340278,-0.20833334 v -0.390625 z M 2.0141516,-2.8392002 v 1.8055555 H 0.54713773 Z m 0,0" style="fill:#121619;fill-opacity:1;fill-rule:nonzero;stroke:none" />
      <path id="path17" d="m 8.457294,-2.3053461 1.5277778,-4.765625 -1.5277778,-4.7656249 -0.4861111,0.15625 1.5364583,4.6093749 -1.5364583,4.6006945 z m 0,0" style="fill:#121619;fill-opacity:1;fill-rule:nonzero;stroke:none" />
    </g>
    <path id="path18" d="M 0,0 34.0807,34.0807" style="fill:none;stroke:#0f62fe;stroke-width:1.49442;stroke-linecap:round;stroke-linejoin:miter;stroke-miterlimit:10;stroke-dasharray:none;stroke-opacity:1" transform="matrix(1.8,0,0,-1.8,293.46993,142.04867)" />
    <path id="path19" d="M 0,0 -34.0807,34.0807" style="fill:none;stroke:#9f1853;stroke-width:1.49442;stroke-linecap:round;stroke-linejoin:miter;stroke-miterlimit:10;stroke-dasharray:none;stroke-opacity:1" transform="matrix(1.8,0,0,-1.8,293.46993,142.04867)" />
    <g id="g19" aria-label="∣ψ&#10;π" transform="matrix(1.8,0,0,1.8,378.76293,111.48647)">
      <path id="path20" d="m 1.1972419,-6.8739919 v 9.3663194 h 0.5034722 v -9.3663194 z m 0,0" style="fill:#121619;fill-opacity:1;fill-rule:nonzero;stroke:none" />
      <path id="path21" d="m 6.9459398,-5.2680891 c 0.034722,-0.1128472 0.034722,-0.1215278 0.034722,-0.15625 0,-0.078125 -0.052083,-0.1041667 -0.1215277,-0.1041667 -0.1041667,0 -0.1128473,0.034722 -0.1388889,0.1649306 L 5.418162,-0.1552419 c -0.5642361,-0.0694444 -0.9548611,-0.3125 -0.9548611,-0.8767361 0,-0.15625 0,-0.3645833 0.4253472,-1.4236111 0.078125,-0.2170139 0.086806,-0.2864584 0.086806,-0.3819445 0,-0.4253472 -0.3559028,-0.6770833 -0.7204861,-0.6770833 -0.7899306,0 -1.1111111,1.1284722 -1.1111111,1.2239583 0,0.069444 0.052083,0.1041667 0.1128472,0.1041667 0.1041667,0 0.1128472,-0.052083 0.1388889,-0.1302083 0.2083333,-0.6944445 0.546875,-0.9722223 0.8333333,-0.9722223 0.1215278,0 0.1909722,0.078125 0.1909722,0.2604167 0,0.1822917 -0.069444,0.3732639 -0.1388888,0.546875 -0.4079862,1.0590278 -0.4079862,1.2239583 -0.4079862,1.3888889 0,0.75520834 0.6510417,1.10243056 1.484375,1.15451389 L 4.9928148,1.5201053 c 0,0.078125 0.060764,0.1041667 0.1215278,0.1041667 0.1041667,0 0.1128472,-0.026042 0.1649305,-0.1996528 0.034722,-0.1736111 0,-0.060764 0.3298612,-1.3454861 0.3298611,0 0.9375,0 1.71875,-0.73784722 0.3211805,-0.29513889 0.5034722,-0.62499998 0.5729166,-0.73784718 0.2604167,-0.5208334 0.3732639,-1.2152778 0.3732639,-1.5017362 0,-0.625 -0.3645833,-0.625 -0.390625,-0.625 -0.1909722,0 -0.4166667,0.2083334 -0.4166667,0.4166667 0,0.1302083 0.069444,0.1909722 0.1128473,0.2256945 0.078125,0.069444 0.3211805,0.2777777 0.3211805,0.6597222 0,0.6597222 -0.9027778,2.07465276 -2.2309028,2.07465276 z m 0,0" style="fill:#121619;fill-opacity:1;fill-rule:nonzero;stroke:none" />
      <path id="path22" d="m 13.146027,-2.9807627 c 0.08681,0 0.138889,0 0.208333,-0.052083 0.02604,-0.026042 0.07813,-0.095486 0.07813,-0.1649305 0,-0.15625 -0.147569,-0.15625 -0.234375,-0.15625 h -2.135417 c -0.112847,0 -0.338541,0 -0.63368,0.2430555 -0.130209,0.1215278 -0.355903,0.3732639 -0.355903,0.4340278 0,0.069444 0.06944,0.069444 0.104167,0.069444 0.06944,0 0.06944,0 0.104166,-0.043403 0.173611,-0.2170139 0.407986,-0.3298611 0.711806,-0.3298611 h 0.355903 c -0.182292,0.625 -0.434028,1.1458333 -0.607639,1.4583333 -0.07813,0.1302083 -0.07813,0.1388889 -0.07813,0.1909722 0,0.1128472 0.09549,0.1736111 0.190972,0.1736111 0.208333,0 0.277778,-0.2256944 0.399306,-0.6336805 0.112847,-0.3819445 0.199652,-0.7465278 0.3125,-1.1892361 h 0.651041 c -0.01736,0.078125 -0.15625,0.6163194 -0.15625,1.015625 0,0.3385416 0.121528,0.8072916 0.347222,0.8072916 0.112848,0 0.260417,-0.1128472 0.260417,-0.2430555 0,-0.052083 -0.02604,-0.078125 -0.06076,-0.1388889 -0.225694,-0.3732639 -0.225694,-0.8072917 -0.225694,-0.9027778 0,-0.1649305 0.02604,-0.3645833 0.05208,-0.5381944 z m 0,0" style="fill:#121619;fill-opacity:1;fill-rule:nonzero;stroke:none" />
    </g>
    <path id="path23" d="m 135.998,-51.261 h 4.319" style="fill:none;stroke:#121619;stroke-width:0.3347;stroke-linecap:butt;stroke-linejoin:miter;stroke-miterlimit:10;stroke-dasharray:none;stroke-opacity:1" transform="matrix(1.8,0,0,-1.8,151.30233,18.840467)" />
    <g id="g23" aria-label="8&#10;⟩" transform="matrix(1.8,0,0,1.8,396.93573,118.58927)">
      <path id="path24" d="m 2.1363981,-1.7965544 c 0.5121528,-0.2170139 0.6770834,-0.4774306 0.6770834,-0.7638889 0,-0.5208333 -0.5729167,-0.7552083 -1.1111111,-0.7552083 -0.6163195,0 -1.12847225,0.3472222 -1.12847225,0.8420139 0,0.4600694 0.390625,0.6684027 0.65104165,0.7986111 -0.52951387,0.2083333 -0.82465276,0.5034722 -0.82465276,0.91145831 0,0.59027778 0.65972226,0.87673611 1.29340276,0.87673611 0.6944445,0 1.2934028,-0.37326388 1.2934028,-0.96354166 0,-0.54687496 -0.5121528,-0.79861116 -0.8506945,-0.94618056 z M 1.1641759,-2.3087072 C 0.94716204,-2.4128738 0.88639815,-2.5430822 0.88639815,-2.66461 c 0,-0.3211805 0.40798615,-0.4600694 0.80729165,-0.4600694 0.3993056,0 0.8159722,0.1909722 0.8159722,0.5729167 0,0.4340277 -0.5729166,0.6423611 -0.5729166,0.6423611 -0.00868,0 -0.00868,0 -0.060764,-0.026042 z m 0.2777778,0.7465278 0.7725694,0.390625 c 0.1822917,0.095486 0.4340278,0.234375 0.4340278,0.50347222 0,0.39930556 -0.5034722,0.57291667 -0.9461805,0.57291667 -0.4513889,0 -0.95486114,-0.22569444 -0.95486114,-0.67708333 0,-0.49479166 0.53819444,-0.72048616 0.69444444,-0.78993056 z m 0,0" style="fill:#121619;fill-opacity:1;fill-rule:nonzero;stroke:none" />
      <path id="path25" d="m 6.7631343,-1.3668669 1.5277777,-4.765625 -1.5277777,-4.7656251 -0.4861112,0.15625 1.5364584,4.6093751 -1.5364584,4.6006944 z m 0,0" style="fill:#121619;fill-opacity:1;fill-rule:nonzero;stroke:none" />
    </g>
    <g id="g25" aria-label="∣ψ&#10;5π" transform="matrix(1.8,0,0,1.8,223.28433,47.962667)">
      <path id="path26" d="m 1.1983738,-6.8759606 v 9.3663194 h 0.5034723 v -9.3663194 z m 0,0" style="fill:#121619;fill-opacity:1;fill-rule:nonzero;stroke:none" />
      <path id="path27" d="m 6.9470718,-5.2700579 c 0.034722,-0.1128472 0.034722,-0.1215277 0.034722,-0.15625 0,-0.078125 -0.052083,-0.1041666 -0.1215278,-0.1041666 -0.1041667,0 -0.1128472,0.034722 -0.1388889,0.1649305 L 5.419294,-0.15721065 c -0.5642361,-0.0694444 -0.9548611,-0.3125 -0.9548611,-0.87673615 0,-0.15625 0,-0.3645833 0.4253472,-1.4236111 0.078125,-0.2170139 0.086805,-0.2864583 0.086805,-0.3819444 0,-0.4253472 -0.3559027,-0.6770833 -0.7204861,-0.6770833 -0.7899305,0 -1.1111111,1.1284722 -1.1111111,1.2239583 0,0.069444 0.052083,0.1041667 0.1128472,0.1041667 0.1041667,0 0.1128473,-0.052083 0.1388889,-0.1302084 0.2083334,-0.6944444 0.546875,-0.9722222 0.8333334,-0.9722222 0.1215277,0 0.1909722,0.078125 0.1909722,0.2604167 0,0.1822916 -0.069445,0.3732639 -0.1388889,0.546875 -0.4079861,1.0590277 -0.4079861,1.2239583 -0.4079861,1.3888889 0,0.75520829 0.6510417,1.10243051 1.484375,1.15451384 L 4.9939468,1.5181366 c 0,0.078125 0.060764,0.1041666 0.1215277,0.1041666 0.1041667,0 0.1128473,-0.026042 0.1649306,-0.1996527 0.034722,-0.1736111 0,-0.060764 0.3298611,-1.34548615 0.3298611,0 0.9375,0 1.71875,-0.73784722 0.3211806,-0.29513889 0.5034722,-0.62500003 0.5729167,-0.73784723 0.2604166,-0.5208333 0.3732639,-1.2152778 0.3732639,-1.5017361 0,-0.625 -0.3645834,-0.625 -0.390625,-0.625 -0.1909723,0 -0.4166667,0.2083333 -0.4166667,0.4166667 0,0.1302083 0.069444,0.1909722 0.1128472,0.2256944 0.078125,0.069444 0.3211806,0.2777778 0.3211806,0.6597222 0,0.6597223 -0.9027778,2.07465281 -2.2309028,2.07465281 z m 0,0" style="fill:#121619;fill-opacity:1;fill-rule:nonzero;stroke:none" />
      <path id="path28" d="m 10.612436,-3.0131134 c 0.260417,0.060764 0.486111,0.060764 0.538195,0.060764 0.338541,0 0.590278,-0.095486 0.720486,-0.1649306 0.121528,-0.060764 0.460069,-0.2777778 0.460069,-0.390625 0,-0.069444 -0.06076,-0.078125 -0.06944,-0.078125 -0.01736,0 -0.02604,0 -0.07813,0.026042 -0.190972,0.060764 -0.503472,0.1302083 -0.824653,0.1302083 -0.286458,0 -0.564236,-0.052083 -0.824653,-0.1388889 -0.05208,-0.017361 -0.06944,-0.017361 -0.07813,-0.017361 -0.06944,0 -0.06944,0.060764 -0.06944,0.1388889 v 1.4930556 c 0,0.086805 0,0.1475694 0.09549,0.1475694 0.05208,0 0.06076,-0.00868 0.104167,-0.060764 0.190972,-0.2256944 0.451389,-0.3298611 0.78993,-0.3298611 0.295139,0 0.451389,0.1649306 0.520834,0.2690972 0.112847,0.1736111 0.138888,0.3993056 0.138888,0.6336806 0,0.2083333 -0.01736,0.49479164 -0.208333,0.68576386 -0.225694,0.22569445 -0.512153,0.24305556 -0.625,0.24305556 -0.32118,0 -0.685764,-0.13888889 -0.842014,-0.43402778 0.208334,-0.0173611 0.286459,-0.16493055 0.286459,-0.27777774 0,-0.15625 -0.121528,-0.2777778 -0.286459,-0.2777778 -0.104166,0 -0.277778,0.060764 -0.277778,0.2951389 0,0.48611109 0.477431,0.90277775 1.137153,0.90277775 0.737847,0 1.345486,-0.50347222 1.345486,-1.11979165 0,-0.5642361 -0.486111,-1.0850695 -1.171875,-1.0850695 -0.32118,0 -0.572916,0.078125 -0.78125,0.2430556 z m 0,0" style="fill:#121619;fill-opacity:1;fill-rule:nonzero;stroke:none" />
      <path id="path29" d="m 16.536916,-2.0408912 c 0.0868,0 0.138888,0 0.208333,-0.052083 0.02604,-0.026042 0.07813,-0.095486 0.07813,-0.1649306 0,-0.15625 -0.14757,-0.15625 -0.234375,-0.15625 h -2.135417 c -0.112847,0 -0.338541,0 -0.63368,0.2430556 -0.130209,0.1215277 -0.355903,0.3732639 -0.355903,0.4340277 0,0.069445 0.06944,0.069445 0.104167,0.069445 0.06944,0 0.06944,0 0.104166,-0.043403 0.173611,-0.2170139 0.407986,-0.3298611 0.711806,-0.3298611 h 0.355903 c -0.182292,0.625 -0.434028,1.14583333 -0.607639,1.45833333 -0.07813,0.13020833 -0.07813,0.13888889 -0.07813,0.19097222 0,0.11284722 0.09549,0.17361111 0.190972,0.17361111 0.208333,0 0.277778,-0.22569444 0.399305,-0.63368055 0.112848,-0.38194441 0.199653,-0.74652781 0.3125,-1.18923611 h 0.651042 c -0.01736,0.078125 -0.15625,0.6163194 -0.15625,1.015625 0,0.33854166 0.121528,0.80729166 0.347222,0.80729166 0.112848,0 0.260417,-0.11284722 0.260417,-0.24305555 0,-0.0520833 -0.02604,-0.078125 -0.06076,-0.13888889 -0.225694,-0.37326389 -0.225694,-0.80729162 -0.225694,-0.90277782 0,-0.1649305 0.02604,-0.3645833 0.05208,-0.5381944 z m 0,0" style="fill:#121619;fill-opacity:1;fill-rule:nonzero;stroke:none" />
    </g>
    <path id="path30" d="m 135.998,-52.199 h 7.709" style="fill:none;stroke:#121619;stroke-width:0.3347;stroke-linecap:butt;stroke-linejoin:miter;stroke-miterlimit:10;stroke-dasharray:none;stroke-opacity:1" transform="matrix(1.8,0,0,-1.8,-4.1762667,-44.683333)" />
    <g id="g30" aria-label="8&#10;⟩" transform="matrix(1.8,0,0,1.8,244.50813,56.753867)">
      <path id="path31" d="m 2.1352384,-1.796853 c 0.5121528,-0.2170139 0.6770834,-0.4774306 0.6770834,-0.7638889 0,-0.5208333 -0.5729167,-0.7552083 -1.1111112,-0.7552083 -0.6163194,0 -1.12847217,0.3472222 -1.12847217,0.8420139 0,0.4600694 0.390625,0.6684027 0.65104167,0.7986111 -0.5295139,0.2083333 -0.82465279,0.5034722 -0.82465279,0.9114583 0,0.59027778 0.65972219,0.87673611 1.29340279,0.87673611 0.6944444,0 1.2934028,-0.37326389 1.2934028,-0.96354166 0,-0.54687505 -0.5121528,-0.79861115 -0.8506945,-0.94618055 z M 1.1630162,-2.3090058 c -0.21701389,-0.1041667 -0.27777777,-0.234375 -0.27777777,-0.3559028 0,-0.3211805 0.40798607,-0.4600694 0.80729167,-0.4600694 0.3993055,0 0.8159722,0.1909722 0.8159722,0.5729167 0,0.4340277 -0.5729167,0.6423611 -0.5729167,0.6423611 -0.00868,0 -0.00868,0 -0.060764,-0.026042 z m 0.2777778,0.7465278 0.7725694,0.390625 c 0.1822917,0.095486 0.4340278,0.23437499 0.4340278,0.50347221 0,0.39930556 -0.5034722,0.57291667 -0.9461806,0.57291667 -0.4513888,0 -0.95486106,-0.22569444 -0.95486106,-0.67708333 0,-0.49479165 0.53819446,-0.72048615 0.69444446,-0.78993055 z m 0,0" style="fill:#121619;fill-opacity:1;fill-rule:nonzero;stroke:none" />
      <path id="path32" d="m 8.4590231,-2.3068356 1.5277778,-4.765625 -1.5277778,-4.7656254 -0.4861111,0.15625 1.5364584,4.6093754 -1.5364584,4.6006944 z m 0,0" style="fill:#121619;fill-opacity:1;fill-rule:nonzero;stroke:none" />
    </g>
    <path id="path33" d="M 0,0 44.52979,18.44537" style="fill:none;stroke:#0f62fe;stroke-width:1.49442;stroke-linecap:round;stroke-linejoin:miter;stroke-miterlimit:10;stroke-dasharray:none;stroke-opacity:1" transform="matrix(1.8,0,0,-1.8,293.46993,142.04867)" />
    <path id="path34" d="M 0,0 -18.44537,44.52979" style="fill:none;stroke:#9f1853;stroke-width:1.49442;stroke-linecap:round;stroke-linejoin:miter;stroke-miterlimit:10;stroke-dasharray:none;stroke-opacity:1" transform="matrix(1.8,0,0,-1.8,293.46993,142.04867)" />
  </g>
</svg>