<?xml version="1.0" encoding="UTF-8"?><!DOCTYPE svg  PUBLIC '-//W3C//DTD SVG 1.1//EN'  'http://www.w3.org/Graphics/SVG/1.1/DTD/svg11.dtd'><svg width="82.22pt" height="275.84pt" version="1.1" viewBox="0 0 82.22 275.84" xmlns="http://www.w3.org/2000/svg" xmlns:xlink="http://www.w3.org/1999/xlink"><defs><style type="text/css">*{stroke-linejoin: round; stroke-linecap: butt}</style></defs><path d="m0 275.84h82.22v-275.84h-82.22z" fill="#ffffff"/><path d="m41.646 29.45h30.594" clip-path="url(#fee3337983a)" fill="none" stroke="#000000" stroke-linecap="square" stroke-width="1.2"/><path d="m41.646 57.262h30.594" clip-path="url(#fee3337983a)" fill="none" stroke="#000000" stroke-linecap="square" stroke-width="1.2"/><path d="m41.646 85.075h30.594" clip-path="url(#fee3337983a)" fill="none" stroke="#000000" stroke-linecap="square" stroke-width="1.2"/><path d="m41.646 112.89h30.594" clip-path="url(#fee3337983a)" fill="none" stroke="#000000" stroke-linecap="square" stroke-width="1.2"/><path d="m41.646 140.7h30.594" clip-path="url(#fee3337983a)" fill="none" stroke="#000000" stroke-linecap="square" stroke-width="1.2"/><path d="m41.646 168.51h30.594" clip-path="url(#fee3337983a)" fill="none" stroke="#000000" stroke-linecap="square" stroke-width="1.2"/><path d="m41.646 196.32h30.594" clip-path="url(#fee3337983a)" fill="none" stroke="#000000" stroke-linecap="square" stroke-width="1.2"/><path d="m41.646 224.14h30.594" clip-path="url(#fee3337983a)" fill="none" stroke="#000000" stroke-linecap="square" stroke-width="1.2"/><path d="m41.646 251.95h30.594" clip-path="url(#fee3337983a)" fill="none" stroke="#000000" stroke-linecap="square" stroke-width="1.2"/><path d="m38.864 15.544h-695.31v278.12h695.31z" clip-path="url(#fee3337983a)" fill="#ffffff" stroke="#ffffff" stroke-width=".9"/><path d="m47.625 38.489h18.078v-18.078h-18.078z" clip-path="url(#fee3337983a)" fill="#9f1853" stroke="#9f1853" stroke-width=".9"/><path d="m47.625 66.301h18.078v-18.078h-18.078z" clip-path="url(#fee3337983a)" fill="#9f1853" stroke="#9f1853" stroke-width=".9"/><path d="m47.625 94.114h18.078v-18.078h-18.078z" clip-path="url(#fee3337983a)" fill="#9f1853" stroke="#9f1853" stroke-width=".9"/><path d="m47.625 121.93h18.078v-18.078h-18.078z" clip-path="url(#fee3337983a)" fill="#9f1853" stroke="#9f1853" stroke-width=".9"/><path d="m47.625 149.74h18.078v-18.078h-18.078z" clip-path="url(#fee3337983a)" fill="#9f1853" stroke="#9f1853" stroke-width=".9"/><path d="m47.625 177.55h18.078v-18.078h-18.078z" clip-path="url(#fee3337983a)" fill="#9f1853" stroke="#9f1853" stroke-width=".9"/><path d="m47.625 205.36h18.078v-18.078h-18.078z" clip-path="url(#fee3337983a)" fill="#9f1853" stroke="#9f1853" stroke-width=".9"/><path d="m47.625 233.18h18.078v-18.078h-18.078z" clip-path="url(#fee3337983a)" fill="#9f1853" stroke="#9f1853" stroke-width=".9"/><path d="m47.625 260.99h18.078v-18.078h-18.078z" clip-path="url(#fee3337983a)" fill="#9f1853" stroke="#9f1853" stroke-width=".9"/><g clip-path="url(#fee3337983a)"><g transform="translate(25.261 32.121) scale(.0975 -.0975)"><defs><path id="DejaVuSans-Oblique-71" transform="scale(.015625)" d="m2669 525q-231-303-546-460-314-156-695-156-531 0-833 358-301 358-301 986 0 506 186 978t533 847q225 244 517 375t614 131q387 0 637-153t363-462l100 525h578l-934-4813h-579l360 1844zm-1778 813q0-463 193-705 194-242 560-242 544 0 928 520t384 1264q0 450-199 689-198 239-569 239-272 0-504-127-231-126-403-370-181-256-286-600-104-343-104-668z"/><path id="DejaVuSans-30" transform="scale(.015625)" d="m2034 4250q-487 0-733-480-245-479-245-1442 0-959 245-1439 246-480 733-480 491 0 736 480 246 480 246 1439 0 963-246 1442-245 480-736 480zm0 500q785 0 1199-621 414-620 414-1801 0-1178-414-1799-414-620-1199-620-784 0-1198 620-414 621-414 1799 0 1181 414 1801 414 621 1198 621z"/></defs><use xlink:href="#DejaVuSans-Oblique-71"/><use transform="translate(63.477 -16.406) scale(.7)" xlink:href="#DejaVuSans-30"/></g></g><g clip-path="url(#fee3337983a)"><g transform="translate(25.261 59.933) scale(.0975 -.0975)"><defs><path id="DejaVuSans-31" transform="scale(.015625)" d="m794 531h1031v3560l-1122-225v575l1116 225h631v-4135h1031v-531h-2687v531z"/></defs><use xlink:href="#DejaVuSans-Oblique-71"/><use transform="translate(63.477 -16.406) scale(.7)" xlink:href="#DejaVuSans-31"/></g></g><g clip-path="url(#fee3337983a)"><g transform="translate(25.261 87.745) scale(.0975 -.0975)"><defs><path id="DejaVuSans-32" transform="scale(.015625)" d="m1228 531h2203v-531h-2962v531q359 372 979 998 621 627 780 809 303 340 423 576 121 236 121 464 0 372-261 606-261 235-680 235-297 0-627-103-329-103-704-313v638q381 153 712 231 332 78 607 78 725 0 1156-363 431-362 431-968 0-288-108-546-107-257-392-607-78-91-497-524-418-433-1181-1211z"/></defs><use xlink:href="#DejaVuSans-Oblique-71"/><use transform="translate(63.477 -16.406) scale(.7)" xlink:href="#DejaVuSans-32"/></g></g><g clip-path="url(#fee3337983a)"><g transform="translate(25.261 115.56) scale(.0975 -.0975)"><defs><path id="DejaVuSans-33" transform="scale(.015625)" d="m2597 2516q453-97 707-404 255-306 255-756 0-690-475-1069-475-378-1350-378-293 0-604 58t-642 174v609q262-153 574-231 313-78 654-78 593 0 904 234t311 681q0 413-289 645-289 233-804 233h-544v519h569q465 0 712 186t247 536q0 359-255 551-254 193-729 193-260 0-557-57-297-56-653-174v562q360 100 674 150t592 50q719 0 1137-327 419-326 419-882 0-388-222-655t-631-370z"/></defs><use xlink:href="#DejaVuSans-Oblique-71"/><use transform="translate(63.477 -16.406) scale(.7)" xlink:href="#DejaVuSans-33"/></g></g><g clip-path="url(#fee3337983a)"><g transform="translate(25.261 143.37) scale(.0975 -.0975)"><defs><path id="DejaVuSans-34" transform="scale(.015625)" d="m2419 4116-1594-2491h1594v2491zm-166 550h794v-3041h666v-525h-666v-1100h-628v1100h-2106v609l1940 2957z"/></defs><use xlink:href="#DejaVuSans-Oblique-71"/><use transform="translate(63.477 -16.406) scale(.7)" xlink:href="#DejaVuSans-34"/></g></g><g clip-path="url(#fee3337983a)"><g transform="translate(25.261 171.18) scale(.0975 -.0975)"><defs><path id="DejaVuSans-35" transform="scale(.015625)" d="m691 4666h2478v-532h-1900v-1143q137 47 274 70 138 23 276 23 781 0 1237-428 457-428 457-1159 0-753-469-1171-469-417-1322-417-294 0-599 50-304 50-629 150v635q281-153 581-228t634-75q541 0 856 284 316 284 316 772 0 487-316 771-315 285-856 285-253 0-505-56-251-56-513-175v2344z"/></defs><use xlink:href="#DejaVuSans-Oblique-71"/><use transform="translate(63.477 -16.406) scale(.7)" xlink:href="#DejaVuSans-35"/></g></g><g clip-path="url(#fee3337983a)"><g transform="translate(25.261 198.99) scale(.0975 -.0975)"><defs><path id="DejaVuSans-36" transform="scale(.015625)" d="m2113 2584q-425 0-674-291-248-290-248-796 0-503 248-796 249-292 674-292t673 292q248 293 248 796 0 506-248 796-248 291-673 291zm1253 1979v-575q-238 112-480 171-242 60-480 60-625 0-955-422-329-422-376-1275 184 272 462 417 279 145 613 145 703 0 1111-427 408-426 408-1160 0-719-425-1154-425-434-1131-434-810 0-1238 620-428 621-428 1799 0 1106 525 1764t1409 658q238 0 480-47t505-140z"/></defs><use xlink:href="#DejaVuSans-Oblique-71"/><use transform="translate(63.477 -16.406) scale(.7)" xlink:href="#DejaVuSans-36"/></g></g><g clip-path="url(#fee3337983a)"><g transform="translate(25.261 226.81) scale(.0975 -.0975)"><defs><path id="DejaVuSans-37" transform="scale(.015625)" d="m525 4666h3e3v-269l-1694-4397h-659l1594 4134h-2241v532z"/></defs><use xlink:href="#DejaVuSans-Oblique-71"/><use transform="translate(63.477 -16.406) scale(.7)" xlink:href="#DejaVuSans-37"/></g></g><g clip-path="url(#fee3337983a)"><g transform="translate(25.261 254.62) scale(.0975 -.0975)"><defs><path id="DejaVuSans-38" transform="scale(.015625)" d="m2034 2216q-450 0-708-241-257-241-257-662 0-422 257-663 258-241 708-241t709 242q260 243 260 662 0 421-258 662-257 241-711 241zm-631 268q-406 100-633 378-226 279-226 679 0 559 398 884 399 325 1092 325 697 0 1094-325t397-884q0-400-227-679-226-278-629-378 456-106 710-416 255-309 255-755 0-679-414-1042-414-362-1186-362-771 0-1186 362-414 363-414 1042 0 446 256 755 257 310 713 416zm-231 997q0-362 226-565 227-203 636-203 407 0 636 203 230 203 230 565 0 363-230 566-229 203-636 203-409 0-636-203-226-203-226-566z"/></defs><use xlink:href="#DejaVuSans-Oblique-71"/><use transform="translate(63.477 -16.406) scale(.7)" xlink:href="#DejaVuSans-38"/></g></g><g clip-path="url(#fee3337983a)"><g transform="translate(52.872 36.198) scale(.048 -.048)" fill="#ffffff"><defs><path id="DejaVuSans-Oblique-3c0" transform="scale(.015625)" d="m584 3500h3354l-113-575h-441l-418-2150q-44-225 15-325 57-97 228-97 47 0 116 10 72 6 94 9l-81-416q-116-40-235-59-122-19-237-19-375 0-478 203-104 207 3 757l406 2087h-1291l-568-2925h-588l569 2925h-447l112 575z"/><path id="DejaVuSans-2f" transform="scale(.015625)" d="m1625 4666h531l-1625-5260h-531l1625 5260z"/></defs><use transform="translate(0 .09375)" xlink:href="#DejaVuSans-Oblique-3c0"/><use transform="translate(60.205 .09375)" xlink:href="#DejaVuSans-2f"/><use transform="translate(93.896 .09375)" xlink:href="#DejaVuSans-34"/></g></g><g clip-path="url(#fee3337983a)"><g transform="translate(52.14 28.891) scale(.078 -.078)" fill="#ffffff"><defs><path id="DejaVuSans-52" transform="scale(.015625)" d="m2841 2188q203-69 395-294t386-619l641-1275h-679l-596 1197q-232 469-449 622t-592 153h-688v-1972h-631v4666h1425q800 0 1194-335 394-334 394-1009 0-441-205-732-205-290-595-402zm-1582 1959v-1656h794q456 0 689 211t233 620-233 617-689 208h-794z"/><path id="DejaVuSans-59" transform="scale(.015625)" d="m-13 4666h679l1293-1919 1285 1919h678l-1650-2444v-2222h-634v2222l-1651 2444z"/></defs><use transform="translate(0 .09375)" xlink:href="#DejaVuSans-52"/><use transform="translate(70.439 -16.312) scale(.7)" xlink:href="#DejaVuSans-59"/></g></g><g clip-path="url(#fee3337983a)"><g transform="translate(52.872 64.01) scale(.048 -.048)" fill="#ffffff"><use transform="translate(0 .09375)" xlink:href="#DejaVuSans-Oblique-3c0"/><use transform="translate(60.205 .09375)" xlink:href="#DejaVuSans-2f"/><use transform="translate(93.896 .09375)" xlink:href="#DejaVuSans-34"/></g></g><g clip-path="url(#fee3337983a)"><g transform="translate(52.14 56.703) scale(.078 -.078)" fill="#ffffff"><use transform="translate(0 .09375)" xlink:href="#DejaVuSans-52"/><use transform="translate(70.439 -16.312) scale(.7)" xlink:href="#DejaVuSans-59"/></g></g><g clip-path="url(#fee3337983a)"><g transform="translate(52.872 91.823) scale(.048 -.048)" fill="#ffffff"><use transform="translate(0 .09375)" xlink:href="#DejaVuSans-Oblique-3c0"/><use transform="translate(60.205 .09375)" xlink:href="#DejaVuSans-2f"/><use transform="translate(93.896 .09375)" xlink:href="#DejaVuSans-34"/></g></g><g clip-path="url(#fee3337983a)"><g transform="translate(52.14 84.515) scale(.078 -.078)" fill="#ffffff"><use transform="translate(0 .09375)" xlink:href="#DejaVuSans-52"/><use transform="translate(70.439 -16.312) scale(.7)" xlink:href="#DejaVuSans-59"/></g></g><g clip-path="url(#fee3337983a)"><g transform="translate(52.872 119.64) scale(.048 -.048)" fill="#ffffff"><use transform="translate(0 .09375)" xlink:href="#DejaVuSans-Oblique-3c0"/><use transform="translate(60.205 .09375)" xlink:href="#DejaVuSans-2f"/><use transform="translate(93.896 .09375)" xlink:href="#DejaVuSans-34"/></g></g><g clip-path="url(#fee3337983a)"><g transform="translate(52.14 112.33) scale(.078 -.078)" fill="#ffffff"><use transform="translate(0 .09375)" xlink:href="#DejaVuSans-52"/><use transform="translate(70.439 -16.312) scale(.7)" xlink:href="#DejaVuSans-59"/></g></g><g clip-path="url(#fee3337983a)"><g transform="translate(52.872 147.45) scale(.048 -.048)" fill="#ffffff"><use transform="translate(0 .09375)" xlink:href="#DejaVuSans-Oblique-3c0"/><use transform="translate(60.205 .09375)" xlink:href="#DejaVuSans-2f"/><use transform="translate(93.896 .09375)" xlink:href="#DejaVuSans-34"/></g></g><g clip-path="url(#fee3337983a)"><g transform="translate(52.14 140.14) scale(.078 -.078)" fill="#ffffff"><use transform="translate(0 .09375)" xlink:href="#DejaVuSans-52"/><use transform="translate(70.439 -16.312) scale(.7)" xlink:href="#DejaVuSans-59"/></g></g><g clip-path="url(#fee3337983a)"><g transform="translate(52.872 175.26) scale(.048 -.048)" fill="#ffffff"><use transform="translate(0 .09375)" xlink:href="#DejaVuSans-Oblique-3c0"/><use transform="translate(60.205 .09375)" xlink:href="#DejaVuSans-2f"/><use transform="translate(93.896 .09375)" xlink:href="#DejaVuSans-34"/></g></g><g clip-path="url(#fee3337983a)"><g transform="translate(52.14 167.95) scale(.078 -.078)" fill="#ffffff"><use transform="translate(0 .09375)" xlink:href="#DejaVuSans-52"/><use transform="translate(70.439 -16.312) scale(.7)" xlink:href="#DejaVuSans-59"/></g></g><g clip-path="url(#fee3337983a)"><g transform="translate(52.872 203.07) scale(.048 -.048)" fill="#ffffff"><use transform="translate(0 .09375)" xlink:href="#DejaVuSans-Oblique-3c0"/><use transform="translate(60.205 .09375)" xlink:href="#DejaVuSans-2f"/><use transform="translate(93.896 .09375)" xlink:href="#DejaVuSans-34"/></g></g><g clip-path="url(#fee3337983a)"><g transform="translate(52.14 195.76) scale(.078 -.078)" fill="#ffffff"><use transform="translate(0 .09375)" xlink:href="#DejaVuSans-52"/><use transform="translate(70.439 -16.312) scale(.7)" xlink:href="#DejaVuSans-59"/></g></g><g clip-path="url(#fee3337983a)"><g transform="translate(52.872 230.88) scale(.048 -.048)" fill="#ffffff"><use transform="translate(0 .09375)" xlink:href="#DejaVuSans-Oblique-3c0"/><use transform="translate(60.205 .09375)" xlink:href="#DejaVuSans-2f"/><use transform="translate(93.896 .09375)" xlink:href="#DejaVuSans-34"/></g></g><g clip-path="url(#fee3337983a)"><g transform="translate(52.14 223.58) scale(.078 -.078)" fill="#ffffff"><use transform="translate(0 .09375)" xlink:href="#DejaVuSans-52"/><use transform="translate(70.439 -16.312) scale(.7)" xlink:href="#DejaVuSans-59"/></g></g><g clip-path="url(#fee3337983a)"><g transform="translate(52.872 258.7) scale(.048 -.048)" fill="#ffffff"><use transform="translate(0 .09375)" xlink:href="#DejaVuSans-Oblique-3c0"/><use transform="translate(60.205 .09375)" xlink:href="#DejaVuSans-2f"/><use transform="translate(93.896 .09375)" xlink:href="#DejaVuSans-34"/></g></g><g clip-path="url(#fee3337983a)"><g transform="translate(52.14 251.39) scale(.078 -.078)" fill="#ffffff"><use transform="translate(0 .09375)" xlink:href="#DejaVuSans-52"/><use transform="translate(70.439 -16.312) scale(.7)" xlink:href="#DejaVuSans-59"/></g></g><defs><clipPath id="fee3337983a"><rect x="7.2" y="7.2" width="67.82" height="261.44"/></clipPath></defs></svg>