<?xml version="1.0" encoding="UTF-8"?><!DOCTYPE svg  PUBLIC '-//W3C//DTD SVG 1.1//EN'  'http://www.w3.org/Graphics/SVG/1.1/DTD/svg11.dtd'><svg width="1563pt" height="635.54pt" version="1.1" viewBox="0 0 1563 635.54" xmlns="http://www.w3.org/2000/svg" xmlns:xlink="http://www.w3.org/1999/xlink"><defs><style type="text/css">*{stroke-linejoin: round; stroke-linecap: butt}</style></defs><path d="m0 635.54h1563v-635.54h-1563z" fill="#ffffff"/><path d="m155.89 44.283h1395.3" clip-path="url(#84d8fa4f45d)" fill="none" stroke="#000000" stroke-linecap="square" stroke-width="2"/><path d="m155.89 90.637h1395.3" clip-path="url(#84d8fa4f45d)" fill="none" stroke="#000000" stroke-linecap="square" stroke-width="2"/><path d="m155.89 136.99h1395.3" clip-path="url(#84d8fa4f45d)" fill="none" stroke="#000000" stroke-linecap="square" stroke-width="2"/><path d="m155.89 183.35h1395.3" clip-path="url(#84d8fa4f45d)" fill="none" stroke="#000000" stroke-linecap="square" stroke-width="2"/><path d="m155.89 229.7h1395.3" clip-path="url(#84d8fa4f45d)" fill="none" stroke="#000000" stroke-linecap="square" stroke-width="2"/><path d="m155.89 276.05h1395.3" clip-path="url(#84d8fa4f45d)" fill="none" stroke="#000000" stroke-linecap="square" stroke-width="2"/><path d="m155.89 322.41h1395.3" clip-path="url(#84d8fa4f45d)" fill="none" stroke="#000000" stroke-linecap="square" stroke-width="2"/><path d="m155.89 368.76h1395.3" clip-path="url(#84d8fa4f45d)" fill="none" stroke="#000000" stroke-linecap="square" stroke-width="2"/><path d="m155.89 415.12h1395.3" clip-path="url(#84d8fa4f45d)" fill="none" stroke="#000000" stroke-linecap="square" stroke-width="2"/><path d="m155.89 461.47h1395.3" clip-path="url(#84d8fa4f45d)" fill="none" stroke="#000000" stroke-linecap="square" stroke-width="2"/><path d="m155.89 507.82h1395.3" clip-path="url(#84d8fa4f45d)" fill="none" stroke="#000000" stroke-linecap="square" stroke-width="2"/><path d="m155.89 554.18h1395.3" clip-path="url(#84d8fa4f45d)" fill="none" stroke="#000000" stroke-linecap="square" stroke-width="2"/><path d="m155.89 600.53h1395.3" clip-path="url(#84d8fa4f45d)" fill="none" stroke="#000000" stroke-linecap="square" stroke-width="2"/><path d="m151.26 21.106h-1158.8v648.96h1158.8z" clip-path="url(#84d8fa4f45d)" fill="#ffffff" stroke="#ffffff" stroke-width="1.5"/><path d="m319.99 507.82v-46.354" clip-path="url(#84d8fa4f45d)" fill="none" stroke="#002d9c" stroke-linecap="square" stroke-width="2"/><path d="m412.69 415.12v46.354" clip-path="url(#84d8fa4f45d)" fill="none" stroke="#002d9c" stroke-linecap="square" stroke-width="2"/><path d="m505.4 415.12v-92.708" clip-path="url(#84d8fa4f45d)" fill="none" stroke="#002d9c" stroke-linecap="square" stroke-width="2"/><path d="m598.11 322.41v-278.12" clip-path="url(#84d8fa4f45d)" fill="none" stroke="#002d9c" stroke-linecap="square" stroke-width="2"/><path d="m690.82 90.637v-46.354" clip-path="url(#84d8fa4f45d)" fill="none" stroke="#002d9c" stroke-linecap="square" stroke-width="2"/><path d="m783.53 136.99v-46.354" clip-path="url(#84d8fa4f45d)" fill="none" stroke="#002d9c" stroke-linecap="square" stroke-width="2"/><path d="m876.23 183.35v-46.354" clip-path="url(#84d8fa4f45d)" fill="none" stroke="#002d9c" stroke-linecap="square" stroke-width="2"/><path d="m922.59 229.7v-46.354" clip-path="url(#84d8fa4f45d)" fill="none" stroke="#002d9c" stroke-linecap="square" stroke-width="2"/><path d="m968.94 276.05v-46.354" clip-path="url(#84d8fa4f45d)" fill="none" stroke="#002d9c" stroke-linecap="square" stroke-width="2"/><path d="m1154.4 276.05v-46.354" clip-path="url(#84d8fa4f45d)" fill="none" stroke="#002d9c" stroke-linecap="square" stroke-width="2"/><path d="m1200.7 368.76v-139.06" clip-path="url(#84d8fa4f45d)" fill="none" stroke="#002d9c" stroke-linecap="square" stroke-width="2"/><path d="m1293.4 600.53v-231.77" clip-path="url(#84d8fa4f45d)" fill="none" stroke="#002d9c" stroke-linecap="square" stroke-width="2"/><path d="m1339.8 600.53v-46.354" clip-path="url(#84d8fa4f45d)" fill="none" stroke="#002d9c" stroke-linecap="square" stroke-width="2"/><path d="m1432.5 554.18v-46.354" clip-path="url(#84d8fa4f45d)" fill="none" stroke="#002d9c" stroke-linecap="square" stroke-width="2"/><path d="m406.67 421.14 12.052-12.052" clip-path="url(#84d8fa4f45d)" fill="none" stroke="#002d9c" stroke-linecap="square" stroke-width="2"/><path d="m406.67 409.09 12.052 12.052" clip-path="url(#84d8fa4f45d)" fill="none" stroke="#002d9c" stroke-linecap="square" stroke-width="2"/><path d="m406.67 467.5 12.052-12.052" clip-path="url(#84d8fa4f45d)" fill="none" stroke="#002d9c" stroke-linecap="square" stroke-width="2"/><path d="m406.67 455.44 12.052 12.052" clip-path="url(#84d8fa4f45d)" fill="none" stroke="#002d9c" stroke-linecap="square" stroke-width="2"/><path d="m1148.3 282.08 12.052-12.052" clip-path="url(#84d8fa4f45d)" fill="none" stroke="#002d9c" stroke-linecap="square" stroke-width="2"/><path d="m1148.3 270.03 12.052 12.052" clip-path="url(#84d8fa4f45d)" fill="none" stroke="#002d9c" stroke-linecap="square" stroke-width="2"/><path d="m1148.3 235.73 12.052-12.052" clip-path="url(#84d8fa4f45d)" fill="none" stroke="#002d9c" stroke-linecap="square" stroke-width="2"/><path d="m1148.3 223.67 12.052 12.052" clip-path="url(#84d8fa4f45d)" fill="none" stroke="#002d9c" stroke-linecap="square" stroke-width="2"/><path d="m165.86 59.348h30.13v-30.13h-30.13z" clip-path="url(#84d8fa4f45d)" fill="#9f1853" stroke="#9f1853" stroke-width="1.5"/><path d="m165.86 105.7h30.13v-30.13h-30.13z" clip-path="url(#84d8fa4f45d)" fill="#9f1853" stroke="#9f1853" stroke-width="1.5"/><path d="m165.86 152.06h30.13v-30.13h-30.13z" clip-path="url(#84d8fa4f45d)" fill="#9f1853" stroke="#9f1853" stroke-width="1.5"/><path d="m165.86 198.41h30.13v-30.13h-30.13z" clip-path="url(#84d8fa4f45d)" fill="#9f1853" stroke="#9f1853" stroke-width="1.5"/><path d="m165.86 244.76h30.13v-30.13h-30.13z" clip-path="url(#84d8fa4f45d)" fill="#9f1853" stroke="#9f1853" stroke-width="1.5"/><path d="m165.86 291.12h30.13v-30.13h-30.13z" clip-path="url(#84d8fa4f45d)" fill="#9f1853" stroke="#9f1853" stroke-width="1.5"/><path d="m165.86 337.47h30.13v-30.13h-30.13z" clip-path="url(#84d8fa4f45d)" fill="#9f1853" stroke="#9f1853" stroke-width="1.5"/><path d="m165.86 383.83h30.13v-30.13h-30.13z" clip-path="url(#84d8fa4f45d)" fill="#9f1853" stroke="#9f1853" stroke-width="1.5"/><path d="m165.86 476.53h30.13v-30.13h-30.13z" clip-path="url(#84d8fa4f45d)" fill="#9f1853" stroke="#9f1853" stroke-width="1.5"/><path d="m165.86 522.89h30.13v-30.13h-30.13z" clip-path="url(#84d8fa4f45d)" fill="#9f1853" stroke="#9f1853" stroke-width="1.5"/><path d="m165.86 569.24h30.13v-30.13h-30.13z" clip-path="url(#84d8fa4f45d)" fill="#9f1853" stroke="#9f1853" stroke-width="1.5"/><path d="m165.86 615.6h30.13v-30.13h-30.13z" clip-path="url(#84d8fa4f45d)" fill="#9f1853" stroke="#9f1853" stroke-width="1.5"/><path d="m212.21 59.348h30.13v-30.13h-30.13z" clip-path="url(#84d8fa4f45d)" fill="#33b1ff" stroke="#33b1ff" stroke-width="1.5"/><path d="m212.21 105.7h30.13v-30.13h-30.13z" clip-path="url(#84d8fa4f45d)" fill="#33b1ff" stroke="#33b1ff" stroke-width="1.5"/><path d="m212.21 152.06h30.13v-30.13h-30.13z" clip-path="url(#84d8fa4f45d)" fill="#33b1ff" stroke="#33b1ff" stroke-width="1.5"/><path d="m212.21 198.41h30.13v-30.13h-30.13z" clip-path="url(#84d8fa4f45d)" fill="#33b1ff" stroke="#33b1ff" stroke-width="1.5"/><path d="m212.21 244.76h30.13v-30.13h-30.13z" clip-path="url(#84d8fa4f45d)" fill="#33b1ff" stroke="#33b1ff" stroke-width="1.5"/><path d="m212.21 291.12h30.13v-30.13h-30.13z" clip-path="url(#84d8fa4f45d)" fill="#33b1ff" stroke="#33b1ff" stroke-width="1.5"/><path d="m212.21 337.47h30.13v-30.13h-30.13z" clip-path="url(#84d8fa4f45d)" fill="#33b1ff" stroke="#33b1ff" stroke-width="1.5"/><path d="m212.21 383.83h30.13v-30.13h-30.13z" clip-path="url(#84d8fa4f45d)" fill="#33b1ff" stroke="#33b1ff" stroke-width="1.5"/><path d="m212.21 476.53h30.13v-30.13h-30.13z" clip-path="url(#84d8fa4f45d)" fill="#33b1ff" stroke="#33b1ff" stroke-width="1.5"/><path d="m212.21 522.89h30.13v-30.13h-30.13z" clip-path="url(#84d8fa4f45d)" fill="#33b1ff" stroke="#33b1ff" stroke-width="1.5"/><path d="m212.21 569.24h30.13v-30.13h-30.13z" clip-path="url(#84d8fa4f45d)" fill="#33b1ff" stroke="#33b1ff" stroke-width="1.5"/><path d="m212.21 615.6h30.13v-30.13h-30.13z" clip-path="url(#84d8fa4f45d)" fill="#33b1ff" stroke="#33b1ff" stroke-width="1.5"/><path d="m258.57 105.7h30.13v-30.13h-30.13z" clip-path="url(#84d8fa4f45d)" fill="#fa4d56" stroke="#fa4d56" stroke-width="1.5"/><path d="m258.57 198.41h30.13v-30.13h-30.13z" clip-path="url(#84d8fa4f45d)" fill="#fa4d56" stroke="#fa4d56" stroke-width="1.5"/><path d="m258.57 244.76h30.13v-30.13h-30.13z" clip-path="url(#84d8fa4f45d)" fill="#fa4d56" stroke="#fa4d56" stroke-width="1.5"/><path d="m258.57 291.12h30.13v-30.13h-30.13z" clip-path="url(#84d8fa4f45d)" fill="#fa4d56" stroke="#fa4d56" stroke-width="1.5"/><path d="m258.57 337.47h30.13v-30.13h-30.13z" clip-path="url(#84d8fa4f45d)" fill="#fa4d56" stroke="#fa4d56" stroke-width="1.5"/><path d="m258.57 476.53h30.13v-30.13h-30.13z" clip-path="url(#84d8fa4f45d)" fill="#fa4d56" stroke="#fa4d56" stroke-width="1.5"/><path d="m258.57 522.89h30.13v-30.13h-30.13z" clip-path="url(#84d8fa4f45d)" fill="#fa4d56" stroke="#fa4d56" stroke-width="1.5"/><path d="m258.57 569.24h30.13v-30.13h-30.13z" clip-path="url(#84d8fa4f45d)" fill="#fa4d56" stroke="#fa4d56" stroke-width="1.5"/><path d="m258.57 615.6h30.13v-30.13h-30.13z" clip-path="url(#84d8fa4f45d)" fill="#fa4d56" stroke="#fa4d56" stroke-width="1.5"/><path d="m319.99 465.99c1.1986 0 2.3482-0.4762 3.1958-1.3237 0.84753-0.84753 1.3237-1.9972 1.3237-3.1958s-0.4762-2.3482-1.3237-3.1958c-0.84753-0.84753-1.9972-1.3237-3.1958-1.3237s-2.3482 0.4762-3.1958 1.3237c-0.84753 0.84753-1.3237 1.9972-1.3237 3.1958s0.4762 2.3482 1.3237 3.1958c0.84753 0.84753 1.9972 1.3237 3.1958 1.3237z" clip-path="url(#84d8fa4f45d)" fill="#002d9c" stroke="#002d9c" stroke-width="1.5"/><path d="m319.99 518.37c2.7967 0 5.4792-1.1111 7.4568-3.0887 1.9776-1.9776 3.0887-4.6601 3.0887-7.4568 0-2.7967-1.1111-5.4792-3.0887-7.4568-1.9776-1.9776-4.6601-3.0887-7.4568-3.0887-2.7967 0-5.4792 1.1111-7.4568 3.0887-1.9776 1.9776-3.0887 4.6601-3.0887 7.4568 0 2.7967 1.1111 5.4792 3.0887 7.4568 1.9776 1.9776 4.6601 3.0887 7.4568 3.0887z" clip-path="url(#84d8fa4f45d)" fill="#002d9c" stroke="#002d9c" stroke-width="2"/><path d="m351.27 476.53h30.13v-30.13h-30.13z" clip-path="url(#84d8fa4f45d)" fill="#fa4d56" stroke="#fa4d56" stroke-width="1.5"/><path d="m351.27 522.89h30.13v-30.13h-30.13z" clip-path="url(#84d8fa4f45d)" fill="#fa4d56" stroke="#fa4d56" stroke-width="1.5"/><path d="m443.98 430.18h30.13v-30.13h-30.13z" clip-path="url(#84d8fa4f45d)" fill="#fa4d56" stroke="#fa4d56" stroke-width="1.5"/><path d="m505.4 326.93c1.1986 0 2.3482-0.4762 3.1958-1.3237 0.84753-0.84753 1.3237-1.9972 1.3237-3.1958 0-1.1986-0.4762-2.3482-1.3237-3.1958-0.84753-0.84753-1.9972-1.3237-3.1958-1.3237-1.1986 0-2.3482 0.4762-3.1958 1.3237s-1.3237 1.9972-1.3237 3.1958c0 1.1986 0.4762 2.3482 1.3237 3.1958 0.84753 0.84753 1.9972 1.3237 3.1958 1.3237z" clip-path="url(#84d8fa4f45d)" fill="#002d9c" stroke="#002d9c" stroke-width="1.5"/><path d="m505.4 425.66c2.7967 0 5.4792-1.1111 7.4568-3.0887 1.9776-1.9776 3.0887-4.6601 3.0887-7.4568 0-2.7967-1.1111-5.4792-3.0887-7.4568-1.9776-1.9776-4.6601-3.0887-7.4568-3.0887-2.7967 0-5.4792 1.1111-7.4568 3.0887-1.9776 1.9776-3.0887 4.6601-3.0887 7.4568 0 2.7967 1.1111 5.4792 3.0887 7.4568 1.9776 1.9776 4.6601 3.0887 7.4568 3.0887z" clip-path="url(#84d8fa4f45d)" fill="#002d9c" stroke="#002d9c" stroke-width="2"/><path d="m536.69 337.47h30.13v-30.13h-30.13z" clip-path="url(#84d8fa4f45d)" fill="#fa4d56" stroke="#fa4d56" stroke-width="1.5"/><path d="m536.69 430.18h30.13v-30.13h-30.13z" clip-path="url(#84d8fa4f45d)" fill="#fa4d56" stroke="#fa4d56" stroke-width="1.5"/><path d="m598.11 326.93c1.1986 0 2.3482-0.4762 3.1958-1.3237 0.84753-0.84753 1.3237-1.9972 1.3237-3.1958 0-1.1986-0.4762-2.3482-1.3237-3.1958s-1.9972-1.3237-3.1958-1.3237c-1.1986 0-2.3482 0.4762-3.1958 1.3237-0.84753 0.84753-1.3237 1.9972-1.3237 3.1958 0 1.1986 0.4762 2.3482 1.3237 3.1958 0.84753 0.84753 1.9972 1.3237 3.1958 1.3237z" clip-path="url(#84d8fa4f45d)" fill="#002d9c" stroke="#002d9c" stroke-width="1.5"/><path d="m598.11 54.829c2.7967 0 5.4792-1.1111 7.4568-3.0887 1.9776-1.9776 3.0887-4.6601 3.0887-7.4568 0-2.7967-1.1111-5.4792-3.0887-7.4568-1.9776-1.9776-4.6601-3.0887-7.4568-3.0887-2.7967 0-5.4792 1.1111-7.4568 3.0887-1.9776 1.9776-3.0887 4.6601-3.0887 7.4568 0 2.7967 1.1111 5.4792 3.0887 7.4568 1.9776 1.9776 4.6601 3.0887 7.4568 3.0887z" clip-path="url(#84d8fa4f45d)" fill="#002d9c" stroke="#002d9c" stroke-width="2"/><path d="m583.04 430.18h30.13v-30.13h-30.13z" clip-path="url(#84d8fa4f45d)" fill="#9f1853" stroke="#9f1853" stroke-width="1.5"/><path d="m629.4 59.348h30.13v-30.13h-30.13z" clip-path="url(#84d8fa4f45d)" fill="#fa4d56" stroke="#fa4d56" stroke-width="1.5"/><path d="m629.4 337.47h30.13v-30.13h-30.13z" clip-path="url(#84d8fa4f45d)" fill="#9f1853" stroke="#9f1853" stroke-width="1.5"/><path d="m629.4 430.18h30.13v-30.13h-30.13z" clip-path="url(#84d8fa4f45d)" fill="#33b1ff" stroke="#33b1ff" stroke-width="1.5"/><path d="m690.82 95.157c1.1986 0 2.3482-0.4762 3.1958-1.3237 0.84753-0.84753 1.3237-1.9972 1.3237-3.1958s-0.4762-2.3482-1.3237-3.1958c-0.84753-0.84753-1.9972-1.3237-3.1958-1.3237-1.1986 0-2.3482 0.4762-3.1958 1.3237-0.84753 0.84753-1.3237 1.9972-1.3237 3.1958s0.4762 2.3482 1.3237 3.1958c0.84753 0.84753 1.9972 1.3237 3.1958 1.3237z" clip-path="url(#84d8fa4f45d)" fill="#002d9c" stroke="#002d9c" stroke-width="1.5"/><path d="m690.82 54.829c2.7967 0 5.4792-1.1111 7.4568-3.0887 1.9776-1.9776 3.0887-4.6601 3.0887-7.4568 0-2.7967-1.1111-5.4792-3.0887-7.4568-1.9776-1.9776-4.6601-3.0887-7.4568-3.0887-2.7967 0-5.4792 1.1111-7.4568 3.0887-1.9776 1.9776-3.0887 4.6601-3.0887 7.4568 0 2.7967 1.1111 5.4792 3.0887 7.4568 1.9776 1.9776 4.6601 3.0887 7.4568 3.0887z" clip-path="url(#84d8fa4f45d)" fill="#002d9c" stroke="#002d9c" stroke-width="2"/><path d="m675.75 337.47h30.13v-30.13h-30.13z" clip-path="url(#84d8fa4f45d)" fill="#33b1ff" stroke="#33b1ff" stroke-width="1.5"/><path d="m722.11 59.348h30.13v-30.13h-30.13z" clip-path="url(#84d8fa4f45d)" fill="#fa4d56" stroke="#fa4d56" stroke-width="1.5"/><path d="m722.11 105.7h30.13v-30.13h-30.13z" clip-path="url(#84d8fa4f45d)" fill="#fa4d56" stroke="#fa4d56" stroke-width="1.5"/><path d="m768.46 59.348h30.13v-30.13h-30.13z" clip-path="url(#84d8fa4f45d)" fill="#9f1853" stroke="#9f1853" stroke-width="1.5"/><path d="m783.53 95.157c1.1986 0 2.3482-0.4762 3.1958-1.3237 0.84753-0.84753 1.3237-1.9972 1.3237-3.1958s-0.4762-2.3482-1.3237-3.1958c-0.84753-0.84753-1.9972-1.3237-3.1958-1.3237s-2.3482 0.4762-3.1958 1.3237c-0.84753 0.84753-1.3237 1.9972-1.3237 3.1958s0.4762 2.3482 1.3237 3.1958c0.84753 0.84753 1.9972 1.3237 3.1958 1.3237z" clip-path="url(#84d8fa4f45d)" fill="#002d9c" stroke="#002d9c" stroke-width="1.5"/><path d="m783.53 147.54c2.7967 0 5.4792-1.1111 7.4568-3.0887 1.9776-1.9776 3.0887-4.6601 3.0887-7.4568 0-2.7967-1.1111-5.4792-3.0887-7.4568-1.9776-1.9776-4.6601-3.0887-7.4568-3.0887-2.7967 0-5.4792 1.1111-7.4568 3.0887-1.9776 1.9776-3.0887 4.6601-3.0887 7.4568 0 2.7967 1.1111 5.4792 3.0887 7.4568 1.9776 1.9776 4.6601 3.0887 7.4568 3.0887z" clip-path="url(#84d8fa4f45d)" fill="#002d9c" stroke="#002d9c" stroke-width="2"/><path d="m814.81 59.348h30.13v-30.13h-30.13z" clip-path="url(#84d8fa4f45d)" fill="#33b1ff" stroke="#33b1ff" stroke-width="1.5"/><path d="m814.81 105.7h30.13v-30.13h-30.13z" clip-path="url(#84d8fa4f45d)" fill="#9f1853" stroke="#9f1853" stroke-width="1.5"/><path d="m814.81 152.06h30.13v-30.13h-30.13z" clip-path="url(#84d8fa4f45d)" fill="#fa4d56" stroke="#fa4d56" stroke-width="1.5"/><path d="m861.17 105.7h30.13v-30.13h-30.13z" clip-path="url(#84d8fa4f45d)" fill="#33b1ff" stroke="#33b1ff" stroke-width="1.5"/><path d="m876.23 187.86c1.1986 0 2.3482-0.4762 3.1958-1.3237 0.84753-0.84753 1.3237-1.9972 1.3237-3.1958 0-1.1986-0.4762-2.3482-1.3237-3.1958-0.84753-0.84753-1.9972-1.3237-3.1958-1.3237-1.1986 0-2.3482 0.4762-3.1958 1.3237s-1.3237 1.9972-1.3237 3.1958c0 1.1986 0.4762 2.3482 1.3237 3.1958 0.84753 0.84753 1.9972 1.3237 3.1958 1.3237z" clip-path="url(#84d8fa4f45d)" fill="#002d9c" stroke="#002d9c" stroke-width="1.5"/><path d="m876.23 147.54c2.7967 0 5.4792-1.1111 7.4568-3.0887 1.9776-1.9776 3.0887-4.6601 3.0887-7.4568 0-2.7967-1.1111-5.4792-3.0887-7.4568s-4.6601-3.0887-7.4568-3.0887c-2.7967 0-5.4792 1.1111-7.4568 3.0887-1.9776 1.9776-3.0887 4.6601-3.0887 7.4568 0 2.7967 1.1111 5.4792 3.0887 7.4568 1.9776 1.9776 4.6601 3.0887 7.4568 3.0887z" clip-path="url(#84d8fa4f45d)" fill="#002d9c" stroke="#002d9c" stroke-width="2"/><path d="m907.52 152.06h30.13v-30.13h-30.13z" clip-path="url(#84d8fa4f45d)" fill="#fa4d56" stroke="#fa4d56" stroke-width="1.5"/><path d="m922.59 234.22c1.1986 0 2.3482-0.4762 3.1958-1.3237 0.84753-0.84753 1.3237-1.9972 1.3237-3.1958s-0.4762-2.3482-1.3237-3.1958c-0.84753-0.84753-1.9972-1.3237-3.1958-1.3237s-2.3482 0.4762-3.1958 1.3237c-0.84753 0.84753-1.3237 1.9972-1.3237 3.1958s0.4762 2.3482 1.3237 3.1958c0.84753 0.84753 1.9972 1.3237 3.1958 1.3237z" clip-path="url(#84d8fa4f45d)" fill="#002d9c" stroke="#002d9c" stroke-width="1.5"/><path d="m922.59 193.89c2.7967 0 5.4792-1.1111 7.4568-3.0887 1.9776-1.9776 3.0887-4.6601 3.0887-7.4568 0-2.7967-1.1111-5.4792-3.0887-7.4568-1.9776-1.9776-4.6601-3.0887-7.4568-3.0887-2.7967 0-5.4792 1.1111-7.4568 3.0887-1.9776 1.9776-3.0887 4.6601-3.0887 7.4568 0 2.7967 1.1111 5.4792 3.0887 7.4568 1.9776 1.9776 4.6601 3.0887 7.4568 3.0887z" clip-path="url(#84d8fa4f45d)" fill="#002d9c" stroke="#002d9c" stroke-width="2"/><path d="m953.88 152.06h30.13v-30.13h-30.13z" clip-path="url(#84d8fa4f45d)" fill="#9f1853" stroke="#9f1853" stroke-width="1.5"/><path d="m953.88 198.41h30.13v-30.13h-30.13z" clip-path="url(#84d8fa4f45d)" fill="#fa4d56" stroke="#fa4d56" stroke-width="1.5"/><path d="m968.94 280.57c1.1986 0 2.3482-0.4762 3.1958-1.3237s1.3237-1.9972 1.3237-3.1958c0-1.1986-0.4762-2.3482-1.3237-3.1958-0.84753-0.84753-1.9972-1.3237-3.1958-1.3237-1.1986 0-2.3482 0.4762-3.1958 1.3237-0.84753 0.84753-1.3237 1.9972-1.3237 3.1958 0 1.1986 0.4762 2.3482 1.3237 3.1958s1.9972 1.3237 3.1958 1.3237z" clip-path="url(#84d8fa4f45d)" fill="#002d9c" stroke="#002d9c" stroke-width="1.5"/><path d="m968.94 240.24c2.7967 0 5.4792-1.1111 7.4568-3.0887 1.9776-1.9776 3.0887-4.6601 3.0887-7.4568 0-2.7967-1.1111-5.4792-3.0887-7.4568-1.9776-1.9776-4.6601-3.0887-7.4568-3.0887-2.7967 0-5.4792 1.1111-7.4568 3.0887-1.9776 1.9776-3.0887 4.6601-3.0887 7.4568 0 2.7967 1.1111 5.4792 3.0887 7.4568 1.9776 1.9776 4.6601 3.0887 7.4568 3.0887z" clip-path="url(#84d8fa4f45d)" fill="#002d9c" stroke="#002d9c" stroke-width="2"/><path d="m1000.2 152.06h30.13v-30.13h-30.13z" clip-path="url(#84d8fa4f45d)" fill="#33b1ff" stroke="#33b1ff" stroke-width="1.5"/><path d="m1000.2 198.41h30.13v-30.13h-30.13z" clip-path="url(#84d8fa4f45d)" fill="#9f1853" stroke="#9f1853" stroke-width="1.5"/><path d="m1000.2 244.76h30.13v-30.13h-30.13z" clip-path="url(#84d8fa4f45d)" fill="#fa4d56" stroke="#fa4d56" stroke-width="1.5"/><path d="m1000.2 291.12h30.13v-30.13h-30.13z" clip-path="url(#84d8fa4f45d)" fill="#fa4d56" stroke="#fa4d56" stroke-width="1.5"/><path d="m1046.6 198.41h30.13v-30.13h-30.13z" clip-path="url(#84d8fa4f45d)" fill="#33b1ff" stroke="#33b1ff" stroke-width="1.5"/><path d="m1046.6 244.76h30.13v-30.13h-30.13z" clip-path="url(#84d8fa4f45d)" fill="#9f1853" stroke="#9f1853" stroke-width="1.5"/><path d="m1092.9 244.76h30.13v-30.13h-30.13z" clip-path="url(#84d8fa4f45d)" fill="#33b1ff" stroke="#33b1ff" stroke-width="1.5"/><path d="m1200.7 234.22c1.1986 0 2.3482-0.4762 3.1958-1.3237 0.84753-0.84753 1.3237-1.9972 1.3237-3.1958s-0.4762-2.3482-1.3237-3.1958c-0.84753-0.84753-1.9972-1.3237-3.1958-1.3237-1.1986 0-2.3482 0.4762-3.1958 1.3237-0.84753 0.84753-1.3237 1.9972-1.3237 3.1958s0.4762 2.3482 1.3237 3.1958c0.84753 0.84753 1.9972 1.3237 3.1958 1.3237z" clip-path="url(#84d8fa4f45d)" fill="#002d9c" stroke="#002d9c" stroke-width="1.5"/><path d="m1200.7 379.31c2.7967 0 5.4792-1.1111 7.4568-3.0887 1.9776-1.9776 3.0887-4.6601 3.0887-7.4568 0-2.7967-1.1111-5.4792-3.0887-7.4568-1.9776-1.9776-4.6601-3.0887-7.4568-3.0887-2.7967 0-5.4792 1.1111-7.4568 3.0887-1.9776 1.9776-3.0887 4.6601-3.0887 7.4568 0 2.7967 1.1111 5.4792 3.0887 7.4568 1.9776 1.9776 4.6601 3.0887 7.4568 3.0887z" clip-path="url(#84d8fa4f45d)" fill="#002d9c" stroke="#002d9c" stroke-width="2"/><path d="m1232 244.76h30.13v-30.13h-30.13z" clip-path="url(#84d8fa4f45d)" fill="#9f1853" stroke="#9f1853" stroke-width="1.5"/><path d="m1232 383.83h30.13v-30.13h-30.13z" clip-path="url(#84d8fa4f45d)" fill="#fa4d56" stroke="#fa4d56" stroke-width="1.5"/><path d="m1278.4 244.76h30.13v-30.13h-30.13z" clip-path="url(#84d8fa4f45d)" fill="#33b1ff" stroke="#33b1ff" stroke-width="1.5"/><path d="m1293.4 605.05c1.1986 0 2.3482-0.4762 3.1958-1.3237 0.84753-0.84753 1.3237-1.9972 1.3237-3.1958s-0.4762-2.3482-1.3237-3.1958c-0.84753-0.84753-1.9972-1.3237-3.1958-1.3237-1.1986 0-2.3482 0.4762-3.1958 1.3237-0.84753 0.84753-1.3237 1.9972-1.3237 3.1958s0.4762 2.3482 1.3237 3.1958c0.84753 0.84753 1.9972 1.3237 3.1958 1.3237z" clip-path="url(#84d8fa4f45d)" fill="#002d9c" stroke="#002d9c" stroke-width="1.5"/><path d="m1293.4 379.31c2.7967 0 5.4792-1.1111 7.4568-3.0887 1.9776-1.9776 3.0887-4.6601 3.0887-7.4568 0-2.7967-1.1111-5.4792-3.0887-7.4568-1.9776-1.9776-4.6601-3.0887-7.4568-3.0887-2.7967 0-5.4792 1.1111-7.4568 3.0887s-3.0887 4.6601-3.0887 7.4568c0 2.7967 1.1111 5.4792 3.0887 7.4568 1.9776 1.9776 4.6601 3.0887 7.4568 3.0887z" clip-path="url(#84d8fa4f45d)" fill="#002d9c" stroke="#002d9c" stroke-width="2"/><path d="m1324.7 383.83h30.13v-30.13h-30.13z" clip-path="url(#84d8fa4f45d)" fill="#fa4d56" stroke="#fa4d56" stroke-width="1.5"/><path d="m1339.8 558.7c1.1986 0 2.3482-0.4762 3.1958-1.3237 0.84753-0.84753 1.3237-1.9972 1.3237-3.1958 0-1.1986-0.4762-2.3482-1.3237-3.1958-0.84753-0.84753-1.9972-1.3237-3.1958-1.3237-1.1986 0-2.3482 0.4762-3.1958 1.3237s-1.3237 1.9972-1.3237 3.1958c0 1.1986 0.4762 2.3482 1.3237 3.1958 0.84753 0.84753 1.9972 1.3237 3.1958 1.3237z" clip-path="url(#84d8fa4f45d)" fill="#002d9c" stroke="#002d9c" stroke-width="1.5"/><path d="m1339.8 611.08c2.7967 0 5.4792-1.1111 7.4568-3.0887 1.9776-1.9776 3.0887-4.6601 3.0887-7.4568 0-2.7967-1.1111-5.4792-3.0887-7.4568-1.9776-1.9776-4.6601-3.0887-7.4568-3.0887-2.7967 0-5.4792 1.1111-7.4568 3.0887-1.9776 1.9776-3.0887 4.6601-3.0887 7.4568 0 2.7967 1.1111 5.4792 3.0887 7.4568 1.9776 1.9776 4.6601 3.0887 7.4568 3.0887z" clip-path="url(#84d8fa4f45d)" fill="#002d9c" stroke="#002d9c" stroke-width="2"/><path d="m1371.1 383.83h30.13v-30.13h-30.13z" clip-path="url(#84d8fa4f45d)" fill="#9f1853" stroke="#9f1853" stroke-width="1.5"/><path d="m1371.1 569.24h30.13v-30.13h-30.13z" clip-path="url(#84d8fa4f45d)" fill="#fa4d56" stroke="#fa4d56" stroke-width="1.5"/><path d="m1371.1 615.6h30.13v-30.13h-30.13z" clip-path="url(#84d8fa4f45d)" fill="#fa4d56" stroke="#fa4d56" stroke-width="1.5"/><path d="m1417.4 383.83h30.13v-30.13h-30.13z" clip-path="url(#84d8fa4f45d)" fill="#33b1ff" stroke="#33b1ff" stroke-width="1.5"/><path d="m1432.5 558.7c1.1986 0 2.3482-0.4762 3.1958-1.3237 0.84753-0.84753 1.3237-1.9972 1.3237-3.1958 0-1.1986-0.4762-2.3482-1.3237-3.1958s-1.9972-1.3237-3.1958-1.3237c-1.1986 0-2.3482 0.4762-3.1958 1.3237-0.84753 0.84753-1.3237 1.9972-1.3237 3.1958 0 1.1986 0.4762 2.3482 1.3237 3.1958 0.84753 0.84753 1.9972 1.3237 3.1958 1.3237z" clip-path="url(#84d8fa4f45d)" fill="#002d9c" stroke="#002d9c" stroke-width="1.5"/><path d="m1432.5 518.37c2.7967 0 5.4792-1.1111 7.4568-3.0887 1.9776-1.9776 3.0887-4.6601 3.0887-7.4568 0-2.7967-1.1111-5.4792-3.0887-7.4568-1.9776-1.9776-4.6601-3.0887-7.4568-3.0887-2.7967 0-5.4792 1.1111-7.4568 3.0887-1.9776 1.9776-3.0887 4.6601-3.0887 7.4568 0 2.7967 1.1111 5.4792 3.0887 7.4568 1.9776 1.9776 4.6601 3.0887 7.4568 3.0887z" clip-path="url(#84d8fa4f45d)" fill="#002d9c" stroke="#002d9c" stroke-width="2"/><path d="m1417.4 615.6h30.13v-30.13h-30.13z" clip-path="url(#84d8fa4f45d)" fill="#9f1853" stroke="#9f1853" stroke-width="1.5"/><path d="m1463.8 522.89h30.13v-30.13h-30.13z" clip-path="url(#84d8fa4f45d)" fill="#9f1853" stroke="#9f1853" stroke-width="1.5"/><path d="m1463.8 569.24h30.13v-30.13h-30.13z" clip-path="url(#84d8fa4f45d)" fill="#9f1853" stroke="#9f1853" stroke-width="1.5"/><path d="m1463.8 615.6h30.13v-30.13h-30.13z" clip-path="url(#84d8fa4f45d)" fill="#33b1ff" stroke="#33b1ff" stroke-width="1.5"/><path d="m1510.1 522.89h30.13v-30.13h-30.13z" clip-path="url(#84d8fa4f45d)" fill="#33b1ff" stroke="#33b1ff" stroke-width="1.5"/><path d="m1510.1 569.24h30.13v-30.13h-30.13z" clip-path="url(#84d8fa4f45d)" fill="#33b1ff" stroke="#33b1ff" stroke-width="1.5"/><path d="m319.99 513.85v-12.052" clip-path="url(#84d8fa4f45d)" fill="none" stroke="#ffffff" stroke-linecap="square" stroke-width="2"/><path d="m313.96 507.82h12.052" clip-path="url(#84d8fa4f45d)" fill="none" stroke="#ffffff" stroke-linecap="square" stroke-width="2"/><path d="m505.4 421.14v-12.052" clip-path="url(#84d8fa4f45d)" fill="none" stroke="#ffffff" stroke-linecap="square" stroke-width="2"/><path d="m499.38 415.12h12.052" clip-path="url(#84d8fa4f45d)" fill="none" stroke="#ffffff" stroke-linecap="square" stroke-width="2"/><path d="m598.11 50.309v-12.052" clip-path="url(#84d8fa4f45d)" fill="none" stroke="#ffffff" stroke-linecap="square" stroke-width="2"/><path d="m592.08 44.283h12.052" clip-path="url(#84d8fa4f45d)" fill="none" stroke="#ffffff" stroke-linecap="square" stroke-width="2"/><path d="m690.82 50.309v-12.052" clip-path="url(#84d8fa4f45d)" fill="none" stroke="#ffffff" stroke-linecap="square" stroke-width="2"/><path d="m684.79 44.283h12.052" clip-path="url(#84d8fa4f45d)" fill="none" stroke="#ffffff" stroke-linecap="square" stroke-width="2"/><path d="m783.53 143.02v-12.052" clip-path="url(#84d8fa4f45d)" fill="none" stroke="#ffffff" stroke-linecap="square" stroke-width="2"/><path d="m777.5 136.99h12.052" clip-path="url(#84d8fa4f45d)" fill="none" stroke="#ffffff" stroke-linecap="square" stroke-width="2"/><path d="m876.23 143.02v-12.052" clip-path="url(#84d8fa4f45d)" fill="none" stroke="#ffffff" stroke-linecap="square" stroke-width="2"/><path d="m870.21 136.99h12.052" clip-path="url(#84d8fa4f45d)" fill="none" stroke="#ffffff" stroke-linecap="square" stroke-width="2"/><path d="m922.59 189.37v-12.052" clip-path="url(#84d8fa4f45d)" fill="none" stroke="#ffffff" stroke-linecap="square" stroke-width="2"/><path d="m916.56 183.35h12.052" clip-path="url(#84d8fa4f45d)" fill="none" stroke="#ffffff" stroke-linecap="square" stroke-width="2"/><path d="m968.94 235.73v-12.052" clip-path="url(#84d8fa4f45d)" fill="none" stroke="#ffffff" stroke-linecap="square" stroke-width="2"/><path d="m962.92 229.7h12.052" clip-path="url(#84d8fa4f45d)" fill="none" stroke="#ffffff" stroke-linecap="square" stroke-width="2"/><path d="m1200.7 374.79v-12.052" clip-path="url(#84d8fa4f45d)" fill="none" stroke="#ffffff" stroke-linecap="square" stroke-width="2"/><path d="m1194.7 368.76h12.052" clip-path="url(#84d8fa4f45d)" fill="none" stroke="#ffffff" stroke-linecap="square" stroke-width="2"/><path d="m1293.4 374.79v-12.052" clip-path="url(#84d8fa4f45d)" fill="none" stroke="#ffffff" stroke-linecap="square" stroke-width="2"/><path d="m1287.4 368.76h12.052" clip-path="url(#84d8fa4f45d)" fill="none" stroke="#ffffff" stroke-linecap="square" stroke-width="2"/><path d="m1339.8 606.56v-12.052" clip-path="url(#84d8fa4f45d)" fill="none" stroke="#ffffff" stroke-linecap="square" stroke-width="2"/><path d="m1333.7 600.53h12.052" clip-path="url(#84d8fa4f45d)" fill="none" stroke="#ffffff" stroke-linecap="square" stroke-width="2"/><path d="m1432.5 513.85v-12.052" clip-path="url(#84d8fa4f45d)" fill="none" stroke="#ffffff" stroke-linecap="square" stroke-width="2"/><path d="m1426.5 507.82h12.052" clip-path="url(#84d8fa4f45d)" fill="none" stroke="#ffffff" stroke-linecap="square" stroke-width="2"/><g clip-path="url(#84d8fa4f45d)"><g transform="translate(89.421 48.504) scale(.1625 -.1625)"><defs><path id="DejaVuSans-Oblique-54" transform="scale(.015625)" d="m2669 525q-231-303-546-460-314-156-695-156-531 0-833 358-301 358-301 986 0 506 186 978t533 847q225 244 517 375t614 131q387 0 637-153t363-462l100 525h578l-934-4813h-579l360 1844zm-1778 813q0-463 193-705 194-242 560-242 544 0 928 520t384 1264q0 450-199 689-198 239-569 239-272 0-504-127-231-126-403-370-181-256-286-600-104-343-104-668z"/><path id="DejaVuSans-15" transform="scale(.015625)" d="m1228 531h2203v-531h-2962v531q359 372 979 998 621 627 780 809 303 340 423 576 121 236 121 464 0 372-261 606-261 235-680 235-297 0-627-103-329-103-704-313v638q381 153 712 231 332 78 607 78 725 0 1156-363 431-362 431-968 0-288-108-546-107-257-392-607-78-91-497-524-418-433-1181-1211z"/><path id="DejaVuSans-c30" transform="scale(.015625)" d="m4175 1741h-3278v-1078h-531v2687h531v-1078h3278l-728 728 375 375 1228-1228v-281l-1228-1228-375 375 728 728z"/><path id="DejaVuSans-13" transform="scale(.015625)" d="m2034 4250q-487 0-733-480-245-479-245-1442 0-959 245-1439 246-480 733-480 491 0 736 480 246 480 246 1439 0 963-246 1442-245 480-736 480zm0 500q785 0 1199-621 414-620 414-1801 0-1178-414-1799-414-620-1199-620-784 0-1198 620-414 621-414 1799 0 1181 414 1801 414 621 1198 621z"/></defs><use transform="translate(0 .78125)" xlink:href="#DejaVuSans-Oblique-54"/><use transform="translate(63.477 -14.219) scale(.7)" xlink:href="#DejaVuSans-15"/><use transform="translate(157.29 .78125)" xlink:href="#DejaVuSans-c30"/><use transform="translate(287.62 .78125)" xlink:href="#DejaVuSans-13"/></g></g><g clip-path="url(#84d8fa4f45d)"><g transform="translate(89.421 94.858) scale(.1625 -.1625)"><defs><path id="DejaVuSans-16" transform="scale(.015625)" d="m2597 2516q453-97 707-404 255-306 255-756 0-690-475-1069-475-378-1350-378-293 0-604 58t-642 174v609q262-153 574-231 313-78 654-78 593 0 904 234t311 681q0 413-289 645-289 233-804 233h-544v519h569q465 0 712 186t247 536q0 359-255 551-254 193-729 193-260 0-557-57-297-56-653-174v562q360 100 674 150t592 50q719 0 1137-327 419-326 419-882 0-388-222-655t-631-370z"/><path id="DejaVuSans-14" transform="scale(.015625)" d="m794 531h1031v3560l-1122-225v575l1116 225h631v-4135h1031v-531h-2687v531z"/></defs><use transform="translate(0 .09375)" xlink:href="#DejaVuSans-Oblique-54"/><use transform="translate(63.477 -14.906) scale(.7)" xlink:href="#DejaVuSans-16"/><use transform="translate(157.29 .09375)" xlink:href="#DejaVuSans-c30"/><use transform="translate(287.62 .09375)" xlink:href="#DejaVuSans-14"/></g></g><g clip-path="url(#84d8fa4f45d)"><g transform="translate(89.421 141.21) scale(.1625 -.1625)"><defs><path id="DejaVuSans-17" transform="scale(.015625)" d="m2419 4116-1594-2491h1594v2491zm-166 550h794v-3041h666v-525h-666v-1100h-628v1100h-2106v609l1940 2957z"/></defs><use transform="translate(0 .78125)" xlink:href="#DejaVuSans-Oblique-54"/><use transform="translate(63.477 -14.219) scale(.7)" xlink:href="#DejaVuSans-17"/><use transform="translate(157.29 .78125)" xlink:href="#DejaVuSans-c30"/><use transform="translate(287.62 .78125)" xlink:href="#DejaVuSans-15"/></g></g><g clip-path="url(#84d8fa4f45d)"><g transform="translate(89.421 187.57) scale(.1625 -.1625)"><defs><path id="DejaVuSans-18" transform="scale(.015625)" d="m691 4666h2478v-532h-1900v-1143q137 47 274 70 138 23 276 23 781 0 1237-428 457-428 457-1159 0-753-469-1171-469-417-1322-417-294 0-599 50-304 50-629 150v635q281-153 581-228t634-75q541 0 856 284 316 284 316 772 0 487-316 771-315 285-856 285-253 0-505-56-251-56-513-175v2344z"/></defs><use transform="translate(0 .78125)" xlink:href="#DejaVuSans-Oblique-54"/><use transform="translate(63.477 -14.219) scale(.7)" xlink:href="#DejaVuSans-18"/><use transform="translate(157.29 .78125)" xlink:href="#DejaVuSans-c30"/><use transform="translate(287.62 .78125)" xlink:href="#DejaVuSans-16"/></g></g><g clip-path="url(#84d8fa4f45d)"><g transform="translate(89.421 233.92) scale(.1625 -.1625)"><defs><path id="DejaVuSans-19" transform="scale(.015625)" d="m2113 2584q-425 0-674-291-248-290-248-796 0-503 248-796 249-292 674-292t673 292q248 293 248 796 0 506-248 796-248 291-673 291zm1253 1979v-575q-238 112-480 171-242 60-480 60-625 0-955-422-329-422-376-1275 184 272 462 417 279 145 613 145 703 0 1111-427 408-426 408-1160 0-719-425-1154-425-434-1131-434-810 0-1238 620-428 621-428 1799 0 1106 525 1764t1409 658q238 0 480-47t505-140z"/></defs><use transform="translate(0 .09375)" xlink:href="#DejaVuSans-Oblique-54"/><use transform="translate(63.477 -14.906) scale(.7)" xlink:href="#DejaVuSans-19"/><use transform="translate(157.29 .09375)" xlink:href="#DejaVuSans-c30"/><use transform="translate(287.62 .09375)" xlink:href="#DejaVuSans-17"/></g></g><g clip-path="url(#84d8fa4f45d)"><g transform="translate(89.421 280.27) scale(.1625 -.1625)"><defs><path id="DejaVuSans-1a" transform="scale(.015625)" d="m525 4666h3e3v-269l-1694-4397h-659l1594 4134h-2241v532z"/></defs><use transform="translate(0 .09375)" xlink:href="#DejaVuSans-Oblique-54"/><use transform="translate(63.477 -14.906) scale(.7)" xlink:href="#DejaVuSans-1a"/><use transform="translate(157.29 .09375)" xlink:href="#DejaVuSans-c30"/><use transform="translate(287.62 .09375)" xlink:href="#DejaVuSans-18"/></g></g><g clip-path="url(#84d8fa4f45d)"><g transform="translate(79.184 326.63) scale(.1625 -.1625)"><use transform="translate(0 .09375)" xlink:href="#DejaVuSans-Oblique-54"/><use transform="translate(63.477 -14.906) scale(.7)" xlink:href="#DejaVuSans-14"/><use transform="translate(157.29 .09375)" xlink:href="#DejaVuSans-c30"/><use transform="translate(287.62 .09375)" xlink:href="#DejaVuSans-14"/><use transform="translate(351.24 .09375)" xlink:href="#DejaVuSans-17"/></g></g><g clip-path="url(#84d8fa4f45d)"><g transform="translate(79.184 372.98) scale(.1625 -.1625)"><defs><path id="DejaVuSans-1b" transform="scale(.015625)" d="m2034 2216q-450 0-708-241-257-241-257-662 0-422 257-663 258-241 708-241t709 242q260 243 260 662 0 421-258 662-257 241-711 241zm-631 268q-406 100-633 378-226 279-226 679 0 559 398 884 399 325 1092 325 697 0 1094-325t397-884q0-400-227-679-226-278-629-378 456-106 710-416 255-309 255-755 0-679-414-1042-414-362-1186-362-771 0-1186 362-414 363-414 1042 0 446 256 755 257 310 713 416zm-231 997q0-362 226-565 227-203 636-203 407 0 636 203 230 203 230 565 0 363-230 566-229 203-636 203-409 0-636-203-226-203-226-566z"/></defs><use transform="translate(0 .09375)" xlink:href="#DejaVuSans-Oblique-54"/><use transform="translate(63.477 -14.906) scale(.7)" xlink:href="#DejaVuSans-1b"/><use transform="translate(157.29 .09375)" xlink:href="#DejaVuSans-c30"/><use transform="translate(287.62 .09375)" xlink:href="#DejaVuSans-14"/><use transform="translate(351.24 .09375)" xlink:href="#DejaVuSans-18"/></g></g><g clip-path="url(#84d8fa4f45d)"><g transform="translate(29.459 419.34) scale(.1625 -.1625)"><defs><path id="DejaVuSans-Oblique-44" transform="scale(.015625)" d="m3438 1997-391-1997h-575l106 531q-253-312-577-467-323-155-720-155-447 0-733 273-285 274-285 702 0 613 489 969t1348 356h800l31 154q7 25 10 54 3 30 3 92 0 279-227 433-226 155-636 155-281 0-577-72-295-72-607-216l100 532q325 122 636 182 311 61 601 61 619 0 942-269 324-268 324-781 0-103-16-242-15-139-46-295zm-622-238h-575q-707 0-1046-189t-339-586q0-275 173-431 174-156 480-156 469 0 819 336t463 898l25 128z"/><path id="DejaVuSans-Oblique-51" transform="scale(.015625)" d="m3566 2113-410-2113h-578l410 2091q28 147 43 259 16 113 16 178 0 263-166 409-165 147-462 147-463 0-797-308-334-307-438-835l-384-1941h-575l678 3500h575l-115-550q240 303 577 468 338 166 710 166 463 0 717-250 255-250 255-703 0-112-14-240t-42-278z"/><path id="DejaVuSans-Oblique-46" transform="scale(.015625)" d="m3431 3366-115-569q-207 150-440 225-232 75-482 75-275 0-524-97-248-97-417-275-269-272-416-638-146-365-146-756 0-472 236-703t717-231q237 0 504 72 268 72 558 215l-109-568q-250-103-514-155t-542-52q-697 0-1072 348-375 349-375 996 0 544 195 1002t580 823q262 250 615 378 354 128 772 128 244 0 484-55 241-54 491-163z"/><path id="DejaVuSans-Oblique-4c" transform="scale(.015625)" d="m1172 4863h575l-141-729h-575l141 729zm-263-1363h575l-684-3500h-575l684 3500z"/><path id="DejaVuSans-Oblique-4f" transform="scale(.015625)" d="m1172 4863h575l-947-4863h-575l947 4863z"/></defs><use transform="translate(0 .015625)" xlink:href="#DejaVuSans-Oblique-44"/><use transform="translate(61.279 .015625)" xlink:href="#DejaVuSans-Oblique-51"/><use transform="translate(124.66 .015625)" xlink:href="#DejaVuSans-Oblique-46"/><use transform="translate(179.64 .015625)" xlink:href="#DejaVuSans-Oblique-4c"/><use transform="translate(207.42 .015625)" xlink:href="#DejaVuSans-Oblique-4f"/><use transform="translate(235.21 .015625)" xlink:href="#DejaVuSans-Oblique-4f"/><use transform="translate(262.99 .015625)" xlink:href="#DejaVuSans-Oblique-44"/><use transform="translate(324.27 -14.984) scale(.7)" xlink:href="#DejaVuSans-14"/><use transform="translate(368.8 -14.984) scale(.7)" xlink:href="#DejaVuSans-13"/><use transform="translate(462.62 .015625)" xlink:href="#DejaVuSans-c30"/><use transform="translate(592.95 .015625)" xlink:href="#DejaVuSans-14"/><use transform="translate(656.57 .015625)" xlink:href="#DejaVuSans-1b"/></g></g><g clip-path="url(#84d8fa4f45d)"><g transform="translate(79.184 465.69) scale(.1625 -.1625)"><defs><path id="DejaVuSans-1c" transform="scale(.015625)" d="m703 97v575q238-113 481-172 244-59 479-59 625 0 954 420 330 420 377 1277-181-269-460-413-278-144-615-144-700 0-1108 423-408 424-408 1159 0 718 425 1152 425 435 1131 435 810 0 1236-621 427-620 427-1801 0-1103-524-1761-523-658-1407-658-238 0-482 47-243 47-506 141zm1256 1978q425 0 673 290 249 291 249 798 0 503-249 795-248 292-673 292t-673-292-248-795q0-507 248-798 248-290 673-290z"/></defs><use transform="translate(0 .78125)" xlink:href="#DejaVuSans-Oblique-54"/><use transform="translate(63.477 -14.219) scale(.7)" xlink:href="#DejaVuSans-13"/><use transform="translate(157.29 .78125)" xlink:href="#DejaVuSans-c30"/><use transform="translate(287.62 .78125)" xlink:href="#DejaVuSans-14"/><use transform="translate(351.24 .78125)" xlink:href="#DejaVuSans-1c"/></g></g><g clip-path="url(#84d8fa4f45d)"><g transform="translate(71.871 512.04) scale(.1625 -.1625)"><use transform="translate(0 .78125)" xlink:href="#DejaVuSans-Oblique-54"/><use transform="translate(63.477 -14.219) scale(.7)" xlink:href="#DejaVuSans-14"/><use transform="translate(108.01 -14.219) scale(.7)" xlink:href="#DejaVuSans-14"/><use transform="translate(201.82 .78125)" xlink:href="#DejaVuSans-c30"/><use transform="translate(332.16 .78125)" xlink:href="#DejaVuSans-15"/><use transform="translate(395.78 .78125)" xlink:href="#DejaVuSans-13"/></g></g><g clip-path="url(#84d8fa4f45d)"><g transform="translate(71.871 558.4) scale(.1625 -.1625)"><use transform="translate(0 .78125)" xlink:href="#DejaVuSans-Oblique-54"/><use transform="translate(63.477 -14.219) scale(.7)" xlink:href="#DejaVuSans-14"/><use transform="translate(108.01 -14.219) scale(.7)" xlink:href="#DejaVuSans-13"/><use transform="translate(201.82 .78125)" xlink:href="#DejaVuSans-c30"/><use transform="translate(332.16 .78125)" xlink:href="#DejaVuSans-15"/><use transform="translate(395.78 .78125)" xlink:href="#DejaVuSans-14"/></g></g><g clip-path="url(#84d8fa4f45d)"><g transform="translate(79.184 604.75) scale(.1625 -.1625)"><use transform="translate(0 .78125)" xlink:href="#DejaVuSans-Oblique-54"/><use transform="translate(63.477 -14.219) scale(.7)" xlink:href="#DejaVuSans-1c"/><use transform="translate(157.29 .78125)" xlink:href="#DejaVuSans-c30"/><use transform="translate(287.62 .78125)" xlink:href="#DejaVuSans-15"/><use transform="translate(351.24 .78125)" xlink:href="#DejaVuSans-15"/></g></g><g clip-path="url(#84d8fa4f45d)"><g transform="translate(172.81 55.432) scale(.08 -.08)" fill="#ffffff"><defs><path id="DejaVuSans-34c" transform="scale(.015625)" d="m2953 2219h-1990q46-935 262-1331 269-488 734-488 469 0 729 491 228 431 265 1328zm-9 531q-88 888-256 1200-269 494-729 494-478 0-731-488-200-393-259-1206h1975zm-985 2163q750 0 1179-663 428-659 428-1828 0-1166-428-1828-429-666-1179-666-753 0-1178 666-428 662-428 1828 0 1169 428 1828 425 663 1178 663z"/><path id="DejaVuSans-3e" transform="scale(.015625)" d="m550 4863h1325v-447h-750v-4813h750v-447h-1325v5707z"/><path id="DejaVuSans-40" transform="scale(.015625)" d="m1947 4863v-5707h-1325v447h747v4813h-747v447h1325z"/></defs><use xlink:href="#DejaVuSans-34c"/><use transform="translate(61.188)" xlink:href="#DejaVuSans-3e"/><use transform="translate(100.2)" xlink:href="#DejaVuSans-15"/><use transform="translate(163.83)" xlink:href="#DejaVuSans-40"/></g></g><g clip-path="url(#84d8fa4f45d)"><g transform="translate(173.38 43.141) scale(.13 -.13)" fill="#ffffff"><defs><path id="DejaVuSans-35" transform="scale(.015625)" d="m2841 2188q203-69 395-294t386-619l641-1275h-679l-596 1197q-232 469-449 622t-592 153h-688v-1972h-631v4666h1425q800 0 1194-335 394-334 394-1009 0-441-205-732-205-290-595-402zm-1582 1959v-1656h794q456 0 689 211t233 620-233 617-689 208h-794z"/><path id="DejaVuSans-3c" transform="scale(.015625)" d="m-13 4666h679l1293-1919 1285 1919h678l-1650-2444v-2222h-634v2222l-1651 2444z"/></defs><use transform="translate(0 .09375)" xlink:href="#DejaVuSans-35"/><use transform="translate(70.439 -14.906) scale(.7)" xlink:href="#DejaVuSans-3c"/></g></g><g clip-path="url(#84d8fa4f45d)"><g transform="translate(172.81 101.79) scale(.08 -.08)" fill="#ffffff"><use xlink:href="#DejaVuSans-34c"/><use transform="translate(61.188)" xlink:href="#DejaVuSans-3e"/><use transform="translate(100.2)" xlink:href="#DejaVuSans-16"/><use transform="translate(163.83)" xlink:href="#DejaVuSans-40"/></g></g><g clip-path="url(#84d8fa4f45d)"><g transform="translate(173.38 89.495) scale(.13 -.13)" fill="#ffffff"><use transform="translate(0 .09375)" xlink:href="#DejaVuSans-35"/><use transform="translate(70.439 -14.906) scale(.7)" xlink:href="#DejaVuSans-3c"/></g></g><g clip-path="url(#84d8fa4f45d)"><g transform="translate(172.81 148.14) scale(.08 -.08)" fill="#ffffff"><use xlink:href="#DejaVuSans-34c"/><use transform="translate(61.188)" xlink:href="#DejaVuSans-3e"/><use transform="translate(100.2)" xlink:href="#DejaVuSans-17"/><use transform="translate(163.83)" xlink:href="#DejaVuSans-40"/></g></g><g clip-path="url(#84d8fa4f45d)"><g transform="translate(173.38 135.85) scale(.13 -.13)" fill="#ffffff"><use transform="translate(0 .09375)" xlink:href="#DejaVuSans-35"/><use transform="translate(70.439 -14.906) scale(.7)" xlink:href="#DejaVuSans-3c"/></g></g><g clip-path="url(#84d8fa4f45d)"><g transform="translate(172.81 194.49) scale(.08 -.08)" fill="#ffffff"><use xlink:href="#DejaVuSans-34c"/><use transform="translate(61.188)" xlink:href="#DejaVuSans-3e"/><use transform="translate(100.2)" xlink:href="#DejaVuSans-18"/><use transform="translate(163.83)" xlink:href="#DejaVuSans-40"/></g></g><g clip-path="url(#84d8fa4f45d)"><g transform="translate(173.38 182.2) scale(.13 -.13)" fill="#ffffff"><use transform="translate(0 .09375)" xlink:href="#DejaVuSans-35"/><use transform="translate(70.439 -14.906) scale(.7)" xlink:href="#DejaVuSans-3c"/></g></g><g clip-path="url(#84d8fa4f45d)"><g transform="translate(172.81 240.85) scale(.08 -.08)" fill="#ffffff"><use xlink:href="#DejaVuSans-34c"/><use transform="translate(61.188)" xlink:href="#DejaVuSans-3e"/><use transform="translate(100.2)" xlink:href="#DejaVuSans-19"/><use transform="translate(163.83)" xlink:href="#DejaVuSans-40"/></g></g><g clip-path="url(#84d8fa4f45d)"><g transform="translate(173.38 228.56) scale(.13 -.13)" fill="#ffffff"><use transform="translate(0 .09375)" xlink:href="#DejaVuSans-35"/><use transform="translate(70.439 -14.906) scale(.7)" xlink:href="#DejaVuSans-3c"/></g></g><g clip-path="url(#84d8fa4f45d)"><g transform="translate(172.81 287.2) scale(.08 -.08)" fill="#ffffff"><use xlink:href="#DejaVuSans-34c"/><use transform="translate(61.188)" xlink:href="#DejaVuSans-3e"/><use transform="translate(100.2)" xlink:href="#DejaVuSans-1a"/><use transform="translate(163.83)" xlink:href="#DejaVuSans-40"/></g></g><g clip-path="url(#84d8fa4f45d)"><g transform="translate(173.38 274.91) scale(.13 -.13)" fill="#ffffff"><use transform="translate(0 .09375)" xlink:href="#DejaVuSans-35"/><use transform="translate(70.439 -14.906) scale(.7)" xlink:href="#DejaVuSans-3c"/></g></g><g clip-path="url(#84d8fa4f45d)"><g transform="translate(172.81 333.56) scale(.08 -.08)" fill="#ffffff"><use xlink:href="#DejaVuSans-34c"/><use transform="translate(61.188)" xlink:href="#DejaVuSans-3e"/><use transform="translate(100.2)" xlink:href="#DejaVuSans-14"/><use transform="translate(163.83)" xlink:href="#DejaVuSans-40"/></g></g><g clip-path="url(#84d8fa4f45d)"><g transform="translate(173.38 321.26) scale(.13 -.13)" fill="#ffffff"><use transform="translate(0 .09375)" xlink:href="#DejaVuSans-35"/><use transform="translate(70.439 -14.906) scale(.7)" xlink:href="#DejaVuSans-3c"/></g></g><g clip-path="url(#84d8fa4f45d)"><g transform="translate(172.81 379.91) scale(.08 -.08)" fill="#ffffff"><use xlink:href="#DejaVuSans-34c"/><use transform="translate(61.188)" xlink:href="#DejaVuSans-3e"/><use transform="translate(100.2)" xlink:href="#DejaVuSans-1b"/><use transform="translate(163.83)" xlink:href="#DejaVuSans-40"/></g></g><g clip-path="url(#84d8fa4f45d)"><g transform="translate(173.38 367.62) scale(.13 -.13)" fill="#ffffff"><use transform="translate(0 .09375)" xlink:href="#DejaVuSans-35"/><use transform="translate(70.439 -14.906) scale(.7)" xlink:href="#DejaVuSans-3c"/></g></g><g clip-path="url(#84d8fa4f45d)"><g transform="translate(172.81 472.62) scale(.08 -.08)" fill="#ffffff"><use xlink:href="#DejaVuSans-34c"/><use transform="translate(61.188)" xlink:href="#DejaVuSans-3e"/><use transform="translate(100.2)" xlink:href="#DejaVuSans-13"/><use transform="translate(163.83)" xlink:href="#DejaVuSans-40"/></g></g><g clip-path="url(#84d8fa4f45d)"><g transform="translate(173.38 460.33) scale(.13 -.13)" fill="#ffffff"><use transform="translate(0 .09375)" xlink:href="#DejaVuSans-35"/><use transform="translate(70.439 -14.906) scale(.7)" xlink:href="#DejaVuSans-3c"/></g></g><g clip-path="url(#84d8fa4f45d)"><g transform="translate(170.26 518.97) scale(.08 -.08)" fill="#ffffff"><use xlink:href="#DejaVuSans-34c"/><use transform="translate(61.188)" xlink:href="#DejaVuSans-3e"/><use transform="translate(100.2)" xlink:href="#DejaVuSans-14"/><use transform="translate(163.83)" xlink:href="#DejaVuSans-14"/><use transform="translate(227.45)" xlink:href="#DejaVuSans-40"/></g></g><g clip-path="url(#84d8fa4f45d)"><g transform="translate(173.38 506.68) scale(.13 -.13)" fill="#ffffff"><use transform="translate(0 .09375)" xlink:href="#DejaVuSans-35"/><use transform="translate(70.439 -14.906) scale(.7)" xlink:href="#DejaVuSans-3c"/></g></g><g clip-path="url(#84d8fa4f45d)"><g transform="translate(170.26 565.33) scale(.08 -.08)" fill="#ffffff"><use xlink:href="#DejaVuSans-34c"/><use transform="translate(61.188)" xlink:href="#DejaVuSans-3e"/><use transform="translate(100.2)" xlink:href="#DejaVuSans-14"/><use transform="translate(163.83)" xlink:href="#DejaVuSans-13"/><use transform="translate(227.45)" xlink:href="#DejaVuSans-40"/></g></g><g clip-path="url(#84d8fa4f45d)"><g transform="translate(173.38 553.03) scale(.13 -.13)" fill="#ffffff"><use transform="translate(0 .09375)" xlink:href="#DejaVuSans-35"/><use transform="translate(70.439 -14.906) scale(.7)" xlink:href="#DejaVuSans-3c"/></g></g><g clip-path="url(#84d8fa4f45d)"><g transform="translate(172.81 611.68) scale(.08 -.08)" fill="#ffffff"><use xlink:href="#DejaVuSans-34c"/><use transform="translate(61.188)" xlink:href="#DejaVuSans-3e"/><use transform="translate(100.2)" xlink:href="#DejaVuSans-1c"/><use transform="translate(163.83)" xlink:href="#DejaVuSans-40"/></g></g><g clip-path="url(#84d8fa4f45d)"><g transform="translate(173.38 599.39) scale(.13 -.13)" fill="#ffffff"><use transform="translate(0 .09375)" xlink:href="#DejaVuSans-35"/><use transform="translate(70.439 -14.906) scale(.7)" xlink:href="#DejaVuSans-3c"/></g></g><g clip-path="url(#84d8fa4f45d)"><g transform="translate(216.62 55.432) scale(.08 -.08)"><use xlink:href="#DejaVuSans-34c"/><use transform="translate(61.188)" xlink:href="#DejaVuSans-3e"/><use transform="translate(100.2)" xlink:href="#DejaVuSans-14"/><use transform="translate(163.83)" xlink:href="#DejaVuSans-17"/><use transform="translate(227.45)" xlink:href="#DejaVuSans-40"/></g></g><g clip-path="url(#84d8fa4f45d)"><g transform="translate(219.35 43.141) scale(.13 -.13)"><defs><path id="DejaVuSans-3d" transform="scale(.015625)" d="m359 4666h3666v-482l-2950-3653h3022v-531h-3809v481l2950 3653h-2879v532z"/></defs><use transform="translate(0 .09375)" xlink:href="#DejaVuSans-35"/><use transform="translate(70.439 -14.906) scale(.7)" xlink:href="#DejaVuSans-3d"/></g></g><g clip-path="url(#84d8fa4f45d)"><g transform="translate(216.62 101.79) scale(.08 -.08)"><use xlink:href="#DejaVuSans-34c"/><use transform="translate(61.188)" xlink:href="#DejaVuSans-3e"/><use transform="translate(100.2)" xlink:href="#DejaVuSans-14"/><use transform="translate(163.83)" xlink:href="#DejaVuSans-18"/><use transform="translate(227.45)" xlink:href="#DejaVuSans-40"/></g></g><g clip-path="url(#84d8fa4f45d)"><g transform="translate(219.35 89.495) scale(.13 -.13)"><use transform="translate(0 .09375)" xlink:href="#DejaVuSans-35"/><use transform="translate(70.439 -14.906) scale(.7)" xlink:href="#DejaVuSans-3d"/></g></g><g clip-path="url(#84d8fa4f45d)"><g transform="translate(216.62 148.14) scale(.08 -.08)"><use xlink:href="#DejaVuSans-34c"/><use transform="translate(61.188)" xlink:href="#DejaVuSans-3e"/><use transform="translate(100.2)" xlink:href="#DejaVuSans-14"/><use transform="translate(163.83)" xlink:href="#DejaVuSans-19"/><use transform="translate(227.45)" xlink:href="#DejaVuSans-40"/></g></g><g clip-path="url(#84d8fa4f45d)"><g transform="translate(219.35 135.85) scale(.13 -.13)"><use transform="translate(0 .09375)" xlink:href="#DejaVuSans-35"/><use transform="translate(70.439 -14.906) scale(.7)" xlink:href="#DejaVuSans-3d"/></g></g><g clip-path="url(#84d8fa4f45d)"><g transform="translate(216.62 194.49) scale(.08 -.08)"><use xlink:href="#DejaVuSans-34c"/><use transform="translate(61.188)" xlink:href="#DejaVuSans-3e"/><use transform="translate(100.2)" xlink:href="#DejaVuSans-14"/><use transform="translate(163.83)" xlink:href="#DejaVuSans-1a"/><use transform="translate(227.45)" xlink:href="#DejaVuSans-40"/></g></g><g clip-path="url(#84d8fa4f45d)"><g transform="translate(219.35 182.2) scale(.13 -.13)"><use transform="translate(0 .09375)" xlink:href="#DejaVuSans-35"/><use transform="translate(70.439 -14.906) scale(.7)" xlink:href="#DejaVuSans-3d"/></g></g><g clip-path="url(#84d8fa4f45d)"><g transform="translate(216.62 240.85) scale(.08 -.08)"><use xlink:href="#DejaVuSans-34c"/><use transform="translate(61.188)" xlink:href="#DejaVuSans-3e"/><use transform="translate(100.2)" xlink:href="#DejaVuSans-14"/><use transform="translate(163.83)" xlink:href="#DejaVuSans-1b"/><use transform="translate(227.45)" xlink:href="#DejaVuSans-40"/></g></g><g clip-path="url(#84d8fa4f45d)"><g transform="translate(219.35 228.56) scale(.13 -.13)"><use transform="translate(0 .09375)" xlink:href="#DejaVuSans-35"/><use transform="translate(70.439 -14.906) scale(.7)" xlink:href="#DejaVuSans-3d"/></g></g><g clip-path="url(#84d8fa4f45d)"><g transform="translate(216.62 287.2) scale(.08 -.08)"><use xlink:href="#DejaVuSans-34c"/><use transform="translate(61.188)" xlink:href="#DejaVuSans-3e"/><use transform="translate(100.2)" xlink:href="#DejaVuSans-14"/><use transform="translate(163.83)" xlink:href="#DejaVuSans-1c"/><use transform="translate(227.45)" xlink:href="#DejaVuSans-40"/></g></g><g clip-path="url(#84d8fa4f45d)"><g transform="translate(219.35 274.91) scale(.13 -.13)"><use transform="translate(0 .09375)" xlink:href="#DejaVuSans-35"/><use transform="translate(70.439 -14.906) scale(.7)" xlink:href="#DejaVuSans-3d"/></g></g><g clip-path="url(#84d8fa4f45d)"><g transform="translate(216.62 333.56) scale(.08 -.08)"><use xlink:href="#DejaVuSans-34c"/><use transform="translate(61.188)" xlink:href="#DejaVuSans-3e"/><use transform="translate(100.2)" xlink:href="#DejaVuSans-14"/><use transform="translate(163.83)" xlink:href="#DejaVuSans-16"/><use transform="translate(227.45)" xlink:href="#DejaVuSans-40"/></g></g><g clip-path="url(#84d8fa4f45d)"><g transform="translate(219.35 321.26) scale(.13 -.13)"><use transform="translate(0 .09375)" xlink:href="#DejaVuSans-35"/><use transform="translate(70.439 -14.906) scale(.7)" xlink:href="#DejaVuSans-3d"/></g></g><g clip-path="url(#84d8fa4f45d)"><g transform="translate(216.62 379.91) scale(.08 -.08)"><use xlink:href="#DejaVuSans-34c"/><use transform="translate(61.188)" xlink:href="#DejaVuSans-3e"/><use transform="translate(100.2)" xlink:href="#DejaVuSans-15"/><use transform="translate(163.83)" xlink:href="#DejaVuSans-13"/><use transform="translate(227.45)" xlink:href="#DejaVuSans-40"/></g></g><g clip-path="url(#84d8fa4f45d)"><g transform="translate(219.35 367.62) scale(.13 -.13)"><use transform="translate(0 .09375)" xlink:href="#DejaVuSans-35"/><use transform="translate(70.439 -14.906) scale(.7)" xlink:href="#DejaVuSans-3d"/></g></g><g clip-path="url(#84d8fa4f45d)"><g transform="translate(216.62 472.62) scale(.08 -.08)"><use xlink:href="#DejaVuSans-34c"/><use transform="translate(61.188)" xlink:href="#DejaVuSans-3e"/><use transform="translate(100.2)" xlink:href="#DejaVuSans-14"/><use transform="translate(163.83)" xlink:href="#DejaVuSans-15"/><use transform="translate(227.45)" xlink:href="#DejaVuSans-40"/></g></g><g clip-path="url(#84d8fa4f45d)"><g transform="translate(219.35 460.33) scale(.13 -.13)"><use transform="translate(0 .09375)" xlink:href="#DejaVuSans-35"/><use transform="translate(70.439 -14.906) scale(.7)" xlink:href="#DejaVuSans-3d"/></g></g><g clip-path="url(#84d8fa4f45d)"><g transform="translate(216.62 518.97) scale(.08 -.08)"><use xlink:href="#DejaVuSans-34c"/><use transform="translate(61.188)" xlink:href="#DejaVuSans-3e"/><use transform="translate(100.2)" xlink:href="#DejaVuSans-15"/><use transform="translate(163.83)" xlink:href="#DejaVuSans-16"/><use transform="translate(227.45)" xlink:href="#DejaVuSans-40"/></g></g><g clip-path="url(#84d8fa4f45d)"><g transform="translate(219.35 506.68) scale(.13 -.13)"><use transform="translate(0 .09375)" xlink:href="#DejaVuSans-35"/><use transform="translate(70.439 -14.906) scale(.7)" xlink:href="#DejaVuSans-3d"/></g></g><g clip-path="url(#84d8fa4f45d)"><g transform="translate(216.62 565.33) scale(.08 -.08)"><use xlink:href="#DejaVuSans-34c"/><use transform="translate(61.188)" xlink:href="#DejaVuSans-3e"/><use transform="translate(100.2)" xlink:href="#DejaVuSans-15"/><use transform="translate(163.83)" xlink:href="#DejaVuSans-15"/><use transform="translate(227.45)" xlink:href="#DejaVuSans-40"/></g></g><g clip-path="url(#84d8fa4f45d)"><g transform="translate(219.35 553.03) scale(.13 -.13)"><use transform="translate(0 .09375)" xlink:href="#DejaVuSans-35"/><use transform="translate(70.439 -14.906) scale(.7)" xlink:href="#DejaVuSans-3d"/></g></g><g clip-path="url(#84d8fa4f45d)"><g transform="translate(216.62 611.68) scale(.08 -.08)"><use xlink:href="#DejaVuSans-34c"/><use transform="translate(61.188)" xlink:href="#DejaVuSans-3e"/><use transform="translate(100.2)" xlink:href="#DejaVuSans-15"/><use transform="translate(163.83)" xlink:href="#DejaVuSans-14"/><use transform="translate(227.45)" xlink:href="#DejaVuSans-40"/></g></g><g clip-path="url(#84d8fa4f45d)"><g transform="translate(219.35 599.39) scale(.13 -.13)"><use transform="translate(0 .09375)" xlink:href="#DejaVuSans-35"/><use transform="translate(70.439 -14.906) scale(.7)" xlink:href="#DejaVuSans-3d"/></g></g><g clip-path="url(#84d8fa4f45d)"><g transform="translate(268.74 94.014) scale(.13 -.13)"><defs><path id="DejaVuSans-2b" transform="scale(.015625)" d="m628 4666h631v-1913h2294v1913h631v-4666h-631v2222h-2294v-2222h-631v4666z"/></defs><use xlink:href="#DejaVuSans-2b"/></g></g><g clip-path="url(#84d8fa4f45d)"><g transform="translate(268.74 186.72) scale(.13 -.13)"><use xlink:href="#DejaVuSans-2b"/></g></g><g clip-path="url(#84d8fa4f45d)"><g transform="translate(268.74 233.08) scale(.13 -.13)"><use xlink:href="#DejaVuSans-2b"/></g></g><g clip-path="url(#84d8fa4f45d)"><g transform="translate(268.74 279.43) scale(.13 -.13)"><use xlink:href="#DejaVuSans-2b"/></g></g><g clip-path="url(#84d8fa4f45d)"><g transform="translate(268.74 325.78) scale(.13 -.13)"><use xlink:href="#DejaVuSans-2b"/></g></g><g clip-path="url(#84d8fa4f45d)"><g transform="translate(268.74 464.85) scale(.13 -.13)"><use xlink:href="#DejaVuSans-2b"/></g></g><g clip-path="url(#84d8fa4f45d)"><g transform="translate(268.74 511.2) scale(.13 -.13)"><use xlink:href="#DejaVuSans-2b"/></g></g><g clip-path="url(#84d8fa4f45d)"><g transform="translate(268.74 557.55) scale(.13 -.13)"><use xlink:href="#DejaVuSans-2b"/></g></g><g clip-path="url(#84d8fa4f45d)"><g transform="translate(268.74 603.91) scale(.13 -.13)"><use xlink:href="#DejaVuSans-2b"/></g></g><g clip-path="url(#84d8fa4f45d)"><g transform="translate(361.45 464.85) scale(.13 -.13)"><use xlink:href="#DejaVuSans-2b"/></g></g><g clip-path="url(#84d8fa4f45d)"><g transform="translate(361.45 511.2) scale(.13 -.13)"><use xlink:href="#DejaVuSans-2b"/></g></g><g clip-path="url(#84d8fa4f45d)"><g transform="translate(454.16 418.49) scale(.13 -.13)"><use xlink:href="#DejaVuSans-2b"/></g></g><g clip-path="url(#84d8fa4f45d)"><g transform="translate(546.87 325.78) scale(.13 -.13)"><use xlink:href="#DejaVuSans-2b"/></g></g><g clip-path="url(#84d8fa4f45d)"><g transform="translate(546.87 418.49) scale(.13 -.13)"><use xlink:href="#DejaVuSans-2b"/></g></g><g clip-path="url(#84d8fa4f45d)"><g transform="translate(587.45 426.26) scale(.08 -.08)" fill="#ffffff"><use xlink:href="#DejaVuSans-34c"/><use transform="translate(61.188)" xlink:href="#DejaVuSans-3e"/><use transform="translate(100.2)" xlink:href="#DejaVuSans-15"/><use transform="translate(163.83)" xlink:href="#DejaVuSans-17"/><use transform="translate(227.45)" xlink:href="#DejaVuSans-40"/></g></g><g clip-path="url(#84d8fa4f45d)"><g transform="translate(590.57 413.97) scale(.13 -.13)" fill="#ffffff"><use transform="translate(0 .09375)" xlink:href="#DejaVuSans-35"/><use transform="translate(70.439 -14.906) scale(.7)" xlink:href="#DejaVuSans-3c"/></g></g><g clip-path="url(#84d8fa4f45d)"><g transform="translate(639.58 47.66) scale(.13 -.13)"><use xlink:href="#DejaVuSans-2b"/></g></g><g clip-path="url(#84d8fa4f45d)"><g transform="translate(633.8 333.56) scale(.08 -.08)" fill="#ffffff"><use xlink:href="#DejaVuSans-34c"/><use transform="translate(61.188)" xlink:href="#DejaVuSans-3e"/><use transform="translate(100.2)" xlink:href="#DejaVuSans-15"/><use transform="translate(163.83)" xlink:href="#DejaVuSans-18"/><use transform="translate(227.45)" xlink:href="#DejaVuSans-40"/></g></g><g clip-path="url(#84d8fa4f45d)"><g transform="translate(636.92 321.26) scale(.13 -.13)" fill="#ffffff"><use transform="translate(0 .09375)" xlink:href="#DejaVuSans-35"/><use transform="translate(70.439 -14.906) scale(.7)" xlink:href="#DejaVuSans-3c"/></g></g><g clip-path="url(#84d8fa4f45d)"><g transform="translate(633.8 426.26) scale(.08 -.08)"><use xlink:href="#DejaVuSans-34c"/><use transform="translate(61.188)" xlink:href="#DejaVuSans-3e"/><use transform="translate(100.2)" xlink:href="#DejaVuSans-16"/><use transform="translate(163.83)" xlink:href="#DejaVuSans-19"/><use transform="translate(227.45)" xlink:href="#DejaVuSans-40"/></g></g><g clip-path="url(#84d8fa4f45d)"><g transform="translate(636.53 413.97) scale(.13 -.13)"><use transform="translate(0 .09375)" xlink:href="#DejaVuSans-35"/><use transform="translate(70.439 -14.906) scale(.7)" xlink:href="#DejaVuSans-3d"/></g></g><g clip-path="url(#84d8fa4f45d)"><g transform="translate(680.16 333.56) scale(.08 -.08)"><use xlink:href="#DejaVuSans-34c"/><use transform="translate(61.188)" xlink:href="#DejaVuSans-3e"/><use transform="translate(100.2)" xlink:href="#DejaVuSans-16"/><use transform="translate(163.83)" xlink:href="#DejaVuSans-1a"/><use transform="translate(227.45)" xlink:href="#DejaVuSans-40"/></g></g><g clip-path="url(#84d8fa4f45d)"><g transform="translate(682.89 321.26) scale(.13 -.13)"><use transform="translate(0 .09375)" xlink:href="#DejaVuSans-35"/><use transform="translate(70.439 -14.906) scale(.7)" xlink:href="#DejaVuSans-3d"/></g></g><g clip-path="url(#84d8fa4f45d)"><g transform="translate(732.28 47.66) scale(.13 -.13)"><use xlink:href="#DejaVuSans-2b"/></g></g><g clip-path="url(#84d8fa4f45d)"><g transform="translate(732.28 94.014) scale(.13 -.13)"><use xlink:href="#DejaVuSans-2b"/></g></g><g clip-path="url(#84d8fa4f45d)"><g transform="translate(772.87 55.432) scale(.08 -.08)" fill="#ffffff"><use xlink:href="#DejaVuSans-34c"/><use transform="translate(61.188)" xlink:href="#DejaVuSans-3e"/><use transform="translate(100.2)" xlink:href="#DejaVuSans-15"/><use transform="translate(163.83)" xlink:href="#DejaVuSans-19"/><use transform="translate(227.45)" xlink:href="#DejaVuSans-40"/></g></g><g clip-path="url(#84d8fa4f45d)"><g transform="translate(775.99 43.141) scale(.13 -.13)" fill="#ffffff"><use transform="translate(0 .09375)" xlink:href="#DejaVuSans-35"/><use transform="translate(70.439 -14.906) scale(.7)" xlink:href="#DejaVuSans-3c"/></g></g><g clip-path="url(#84d8fa4f45d)"><g transform="translate(819.22 55.432) scale(.08 -.08)"><use xlink:href="#DejaVuSans-34c"/><use transform="translate(61.188)" xlink:href="#DejaVuSans-3e"/><use transform="translate(100.2)" xlink:href="#DejaVuSans-16"/><use transform="translate(163.83)" xlink:href="#DejaVuSans-1b"/><use transform="translate(227.45)" xlink:href="#DejaVuSans-40"/></g></g><g clip-path="url(#84d8fa4f45d)"><g transform="translate(821.95 43.141) scale(.13 -.13)"><use transform="translate(0 .09375)" xlink:href="#DejaVuSans-35"/><use transform="translate(70.439 -14.906) scale(.7)" xlink:href="#DejaVuSans-3d"/></g></g><g clip-path="url(#84d8fa4f45d)"><g transform="translate(819.22 101.79) scale(.08 -.08)" fill="#ffffff"><use xlink:href="#DejaVuSans-34c"/><use transform="translate(61.188)" xlink:href="#DejaVuSans-3e"/><use transform="translate(100.2)" xlink:href="#DejaVuSans-15"/><use transform="translate(163.83)" xlink:href="#DejaVuSans-1a"/><use transform="translate(227.45)" xlink:href="#DejaVuSans-40"/></g></g><g clip-path="url(#84d8fa4f45d)"><g transform="translate(822.34 89.495) scale(.13 -.13)" fill="#ffffff"><use transform="translate(0 .09375)" xlink:href="#DejaVuSans-35"/><use transform="translate(70.439 -14.906) scale(.7)" xlink:href="#DejaVuSans-3c"/></g></g><g clip-path="url(#84d8fa4f45d)"><g transform="translate(824.99 140.37) scale(.13 -.13)"><use xlink:href="#DejaVuSans-2b"/></g></g><g clip-path="url(#84d8fa4f45d)"><g transform="translate(865.57 101.79) scale(.08 -.08)"><use xlink:href="#DejaVuSans-34c"/><use transform="translate(61.188)" xlink:href="#DejaVuSans-3e"/><use transform="translate(100.2)" xlink:href="#DejaVuSans-16"/><use transform="translate(163.83)" xlink:href="#DejaVuSans-1c"/><use transform="translate(227.45)" xlink:href="#DejaVuSans-40"/></g></g><g clip-path="url(#84d8fa4f45d)"><g transform="translate(868.3 89.495) scale(.13 -.13)"><use transform="translate(0 .09375)" xlink:href="#DejaVuSans-35"/><use transform="translate(70.439 -14.906) scale(.7)" xlink:href="#DejaVuSans-3d"/></g></g><g clip-path="url(#84d8fa4f45d)"><g transform="translate(917.7 140.37) scale(.13 -.13)"><use xlink:href="#DejaVuSans-2b"/></g></g><g clip-path="url(#84d8fa4f45d)"><g transform="translate(958.28 148.14) scale(.08 -.08)" fill="#ffffff"><use xlink:href="#DejaVuSans-34c"/><use transform="translate(61.188)" xlink:href="#DejaVuSans-3e"/><use transform="translate(100.2)" xlink:href="#DejaVuSans-15"/><use transform="translate(163.83)" xlink:href="#DejaVuSans-1b"/><use transform="translate(227.45)" xlink:href="#DejaVuSans-40"/></g></g><g clip-path="url(#84d8fa4f45d)"><g transform="translate(961.4 135.85) scale(.13 -.13)" fill="#ffffff"><use transform="translate(0 .09375)" xlink:href="#DejaVuSans-35"/><use transform="translate(70.439 -14.906) scale(.7)" xlink:href="#DejaVuSans-3c"/></g></g><g clip-path="url(#84d8fa4f45d)"><g transform="translate(964.05 186.72) scale(.13 -.13)"><use xlink:href="#DejaVuSans-2b"/></g></g><g clip-path="url(#84d8fa4f45d)"><g transform="translate(1004.6 148.14) scale(.08 -.08)"><use xlink:href="#DejaVuSans-34c"/><use transform="translate(61.188)" xlink:href="#DejaVuSans-3e"/><use transform="translate(100.2)" xlink:href="#DejaVuSans-17"/><use transform="translate(163.83)" xlink:href="#DejaVuSans-13"/><use transform="translate(227.45)" xlink:href="#DejaVuSans-40"/></g></g><g clip-path="url(#84d8fa4f45d)"><g transform="translate(1007.4 135.85) scale(.13 -.13)"><use transform="translate(0 .09375)" xlink:href="#DejaVuSans-35"/><use transform="translate(70.439 -14.906) scale(.7)" xlink:href="#DejaVuSans-3d"/></g></g><g clip-path="url(#84d8fa4f45d)"><g transform="translate(1004.6 194.49) scale(.08 -.08)" fill="#ffffff"><use xlink:href="#DejaVuSans-34c"/><use transform="translate(61.188)" xlink:href="#DejaVuSans-3e"/><use transform="translate(100.2)" xlink:href="#DejaVuSans-15"/><use transform="translate(163.83)" xlink:href="#DejaVuSans-1c"/><use transform="translate(227.45)" xlink:href="#DejaVuSans-40"/></g></g><g clip-path="url(#84d8fa4f45d)"><g transform="translate(1007.8 182.2) scale(.13 -.13)" fill="#ffffff"><use transform="translate(0 .09375)" xlink:href="#DejaVuSans-35"/><use transform="translate(70.439 -14.906) scale(.7)" xlink:href="#DejaVuSans-3c"/></g></g><g clip-path="url(#84d8fa4f45d)"><g transform="translate(1010.4 233.08) scale(.13 -.13)"><use xlink:href="#DejaVuSans-2b"/></g></g><g clip-path="url(#84d8fa4f45d)"><g transform="translate(1010.4 279.43) scale(.13 -.13)"><use xlink:href="#DejaVuSans-2b"/></g></g><g clip-path="url(#84d8fa4f45d)"><g transform="translate(1051 194.49) scale(.08 -.08)"><use xlink:href="#DejaVuSans-34c"/><use transform="translate(61.188)" xlink:href="#DejaVuSans-3e"/><use transform="translate(100.2)" xlink:href="#DejaVuSans-17"/><use transform="translate(163.83)" xlink:href="#DejaVuSans-14"/><use transform="translate(227.45)" xlink:href="#DejaVuSans-40"/></g></g><g clip-path="url(#84d8fa4f45d)"><g transform="translate(1053.7 182.2) scale(.13 -.13)"><use transform="translate(0 .09375)" xlink:href="#DejaVuSans-35"/><use transform="translate(70.439 -14.906) scale(.7)" xlink:href="#DejaVuSans-3d"/></g></g><g clip-path="url(#84d8fa4f45d)"><g transform="translate(1051 240.85) scale(.08 -.08)" fill="#ffffff"><use xlink:href="#DejaVuSans-34c"/><use transform="translate(61.188)" xlink:href="#DejaVuSans-3e"/><use transform="translate(100.2)" xlink:href="#DejaVuSans-16"/><use transform="translate(163.83)" xlink:href="#DejaVuSans-13"/><use transform="translate(227.45)" xlink:href="#DejaVuSans-40"/></g></g><g clip-path="url(#84d8fa4f45d)"><g transform="translate(1054.1 228.56) scale(.13 -.13)" fill="#ffffff"><use transform="translate(0 .09375)" xlink:href="#DejaVuSans-35"/><use transform="translate(70.439 -14.906) scale(.7)" xlink:href="#DejaVuSans-3c"/></g></g><g clip-path="url(#84d8fa4f45d)"><g transform="translate(1097.3 240.85) scale(.08 -.08)"><use xlink:href="#DejaVuSans-34c"/><use transform="translate(61.188)" xlink:href="#DejaVuSans-3e"/><use transform="translate(100.2)" xlink:href="#DejaVuSans-17"/><use transform="translate(163.83)" xlink:href="#DejaVuSans-15"/><use transform="translate(227.45)" xlink:href="#DejaVuSans-40"/></g></g><g clip-path="url(#84d8fa4f45d)"><g transform="translate(1100.1 228.56) scale(.13 -.13)"><use transform="translate(0 .09375)" xlink:href="#DejaVuSans-35"/><use transform="translate(70.439 -14.906) scale(.7)" xlink:href="#DejaVuSans-3d"/></g></g><g clip-path="url(#84d8fa4f45d)"><g transform="translate(1236.4 240.85) scale(.08 -.08)" fill="#ffffff"><use xlink:href="#DejaVuSans-34c"/><use transform="translate(61.188)" xlink:href="#DejaVuSans-3e"/><use transform="translate(100.2)" xlink:href="#DejaVuSans-16"/><use transform="translate(163.83)" xlink:href="#DejaVuSans-14"/><use transform="translate(227.45)" xlink:href="#DejaVuSans-40"/></g></g><g clip-path="url(#84d8fa4f45d)"><g transform="translate(1239.5 228.56) scale(.13 -.13)" fill="#ffffff"><use transform="translate(0 .09375)" xlink:href="#DejaVuSans-35"/><use transform="translate(70.439 -14.906) scale(.7)" xlink:href="#DejaVuSans-3c"/></g></g><g clip-path="url(#84d8fa4f45d)"><g transform="translate(1242.2 372.14) scale(.13 -.13)"><use xlink:href="#DejaVuSans-2b"/></g></g><g clip-path="url(#84d8fa4f45d)"><g transform="translate(1282.8 240.85) scale(.08 -.08)"><use xlink:href="#DejaVuSans-34c"/><use transform="translate(61.188)" xlink:href="#DejaVuSans-3e"/><use transform="translate(100.2)" xlink:href="#DejaVuSans-17"/><use transform="translate(163.83)" xlink:href="#DejaVuSans-16"/><use transform="translate(227.45)" xlink:href="#DejaVuSans-40"/></g></g><g clip-path="url(#84d8fa4f45d)"><g transform="translate(1285.5 228.56) scale(.13 -.13)"><use transform="translate(0 .09375)" xlink:href="#DejaVuSans-35"/><use transform="translate(70.439 -14.906) scale(.7)" xlink:href="#DejaVuSans-3d"/></g></g><g clip-path="url(#84d8fa4f45d)"><g transform="translate(1334.9 372.14) scale(.13 -.13)"><use xlink:href="#DejaVuSans-2b"/></g></g><g clip-path="url(#84d8fa4f45d)"><g transform="translate(1375.5 379.91) scale(.08 -.08)" fill="#ffffff"><use xlink:href="#DejaVuSans-34c"/><use transform="translate(61.188)" xlink:href="#DejaVuSans-3e"/><use transform="translate(100.2)" xlink:href="#DejaVuSans-16"/><use transform="translate(163.83)" xlink:href="#DejaVuSans-15"/><use transform="translate(227.45)" xlink:href="#DejaVuSans-40"/></g></g><g clip-path="url(#84d8fa4f45d)"><g transform="translate(1378.6 367.62) scale(.13 -.13)" fill="#ffffff"><use transform="translate(0 .09375)" xlink:href="#DejaVuSans-35"/><use transform="translate(70.439 -14.906) scale(.7)" xlink:href="#DejaVuSans-3c"/></g></g><g clip-path="url(#84d8fa4f45d)"><g transform="translate(1381.2 557.55) scale(.13 -.13)"><use xlink:href="#DejaVuSans-2b"/></g></g><g clip-path="url(#84d8fa4f45d)"><g transform="translate(1381.2 603.91) scale(.13 -.13)"><use xlink:href="#DejaVuSans-2b"/></g></g><g clip-path="url(#84d8fa4f45d)"><g transform="translate(1421.8 379.91) scale(.08 -.08)"><use xlink:href="#DejaVuSans-34c"/><use transform="translate(61.188)" xlink:href="#DejaVuSans-3e"/><use transform="translate(100.2)" xlink:href="#DejaVuSans-17"/><use transform="translate(163.83)" xlink:href="#DejaVuSans-17"/><use transform="translate(227.45)" xlink:href="#DejaVuSans-40"/></g></g><g clip-path="url(#84d8fa4f45d)"><g transform="translate(1424.6 367.62) scale(.13 -.13)"><use transform="translate(0 .09375)" xlink:href="#DejaVuSans-35"/><use transform="translate(70.439 -14.906) scale(.7)" xlink:href="#DejaVuSans-3d"/></g></g><g clip-path="url(#84d8fa4f45d)"><g transform="translate(1421.8 611.68) scale(.08 -.08)" fill="#ffffff"><use xlink:href="#DejaVuSans-34c"/><use transform="translate(61.188)" xlink:href="#DejaVuSans-3e"/><use transform="translate(100.2)" xlink:href="#DejaVuSans-16"/><use transform="translate(163.83)" xlink:href="#DejaVuSans-16"/><use transform="translate(227.45)" xlink:href="#DejaVuSans-40"/></g></g><g clip-path="url(#84d8fa4f45d)"><g transform="translate(1424.9 599.39) scale(.13 -.13)" fill="#ffffff"><use transform="translate(0 .09375)" xlink:href="#DejaVuSans-35"/><use transform="translate(70.439 -14.906) scale(.7)" xlink:href="#DejaVuSans-3c"/></g></g><g clip-path="url(#84d8fa4f45d)"><g transform="translate(1468.2 518.97) scale(.08 -.08)" fill="#ffffff"><use xlink:href="#DejaVuSans-34c"/><use transform="translate(61.188)" xlink:href="#DejaVuSans-3e"/><use transform="translate(100.2)" xlink:href="#DejaVuSans-16"/><use transform="translate(163.83)" xlink:href="#DejaVuSans-18"/><use transform="translate(227.45)" xlink:href="#DejaVuSans-40"/></g></g><g clip-path="url(#84d8fa4f45d)"><g transform="translate(1471.3 506.68) scale(.13 -.13)" fill="#ffffff"><use transform="translate(0 .09375)" xlink:href="#DejaVuSans-35"/><use transform="translate(70.439 -14.906) scale(.7)" xlink:href="#DejaVuSans-3c"/></g></g><g clip-path="url(#84d8fa4f45d)"><g transform="translate(1468.2 565.33) scale(.08 -.08)" fill="#ffffff"><use xlink:href="#DejaVuSans-34c"/><use transform="translate(61.188)" xlink:href="#DejaVuSans-3e"/><use transform="translate(100.2)" xlink:href="#DejaVuSans-16"/><use transform="translate(163.83)" xlink:href="#DejaVuSans-17"/><use transform="translate(227.45)" xlink:href="#DejaVuSans-40"/></g></g><g clip-path="url(#84d8fa4f45d)"><g transform="translate(1471.3 553.03) scale(.13 -.13)" fill="#ffffff"><use transform="translate(0 .09375)" xlink:href="#DejaVuSans-35"/><use transform="translate(70.439 -14.906) scale(.7)" xlink:href="#DejaVuSans-3c"/></g></g><g clip-path="url(#84d8fa4f45d)"><g transform="translate(1468.2 611.68) scale(.08 -.08)"><use xlink:href="#DejaVuSans-34c"/><use transform="translate(61.188)" xlink:href="#DejaVuSans-3e"/><use transform="translate(100.2)" xlink:href="#DejaVuSans-17"/><use transform="translate(163.83)" xlink:href="#DejaVuSans-18"/><use transform="translate(227.45)" xlink:href="#DejaVuSans-40"/></g></g><g clip-path="url(#84d8fa4f45d)"><g transform="translate(1470.9 599.39) scale(.13 -.13)"><use transform="translate(0 .09375)" xlink:href="#DejaVuSans-35"/><use transform="translate(70.439 -14.906) scale(.7)" xlink:href="#DejaVuSans-3d"/></g></g><g clip-path="url(#84d8fa4f45d)"><g transform="translate(1514.5 518.97) scale(.08 -.08)"><use xlink:href="#DejaVuSans-34c"/><use transform="translate(61.188)" xlink:href="#DejaVuSans-3e"/><use transform="translate(100.2)" xlink:href="#DejaVuSans-17"/><use transform="translate(163.83)" xlink:href="#DejaVuSans-1a"/><use transform="translate(227.45)" xlink:href="#DejaVuSans-40"/></g></g><g clip-path="url(#84d8fa4f45d)"><g transform="translate(1517.3 506.68) scale(.13 -.13)"><use transform="translate(0 .09375)" xlink:href="#DejaVuSans-35"/><use transform="translate(70.439 -14.906) scale(.7)" xlink:href="#DejaVuSans-3d"/></g></g><g clip-path="url(#84d8fa4f45d)"><g transform="translate(1514.5 565.33) scale(.08 -.08)"><use xlink:href="#DejaVuSans-34c"/><use transform="translate(61.188)" xlink:href="#DejaVuSans-3e"/><use transform="translate(100.2)" xlink:href="#DejaVuSans-17"/><use transform="translate(163.83)" xlink:href="#DejaVuSans-19"/><use transform="translate(227.45)" xlink:href="#DejaVuSans-40"/></g></g><g clip-path="url(#84d8fa4f45d)"><g transform="translate(1517.3 553.03) scale(.13 -.13)"><use transform="translate(0 .09375)" xlink:href="#DejaVuSans-35"/><use transform="translate(70.439 -14.906) scale(.7)" xlink:href="#DejaVuSans-3d"/></g></g><defs><clipPath id="84d8fa4f45d"><rect x="7.2" y="7.2" width="1548.6" height="621.14"/></clipPath></defs></svg>