<?xml version='1.0' encoding='utf-8'?>
<svg xmlns="http://www.w3.org/2000/svg" xmlns:ns1="http://sodipodi.sourceforge.net/DTD/sodipodi-0.dtd" xmlns:ns2="http://www.inkscape.org/namespaces/inkscape" version="1.1" id="svg1" width="100%" height="auto" viewBox="-20.0 -20.0 414.92145 268.36848" ns1:docname="svg_fix_XXXXXX.svg">
  <rect id="path1" x="-20.0" y="-20.0" width="414.92145" height="268.36848" fill="white" /><ns1:namedview id="namedview1" pagecolor="#ffffff" bordercolor="#000000" borderopacity="0.25" ns2:showpageshadow="2" ns2:pageopacity="0.0" ns2:pagecheckerboard="0" ns2:deskcolor="#d1d1d1" />
  <defs id="defs1" />
  <g id="g1" transform="translate(-103.59375,-30.79812)">
    <path id="path2" d="M 5.609375,-5.5314063 H 4.8125 L 2.9101563,-2.8517188 0.98828125,-5.5314063 H 0.0234375 L 2.4296875,-2.215 v 2.21484375 h 0.78125 V -2.215 Z m 0,0" style="fill:#121619;fill-opacity:1;fill-rule:nonzero;stroke:none" aria-label="Y" transform="matrix(4,0,0,4,103.5,99.36)" />
    <path id="path3" d="m 3.1483516,-2.9184219 2.015625,-2.6132812 H 4.2967891 L 2.7577266,-3.4926406 1.1874141,-5.5317031 H 0.23819531 L 2.3671016,-2.9184219 0.12100781,-4.53125e-4 h 0.8671875 L 2.7577266,-2.3988906 4.5663203,-4.53125e-4 h 0.9492188 z m 0,0" style="fill:#121619;fill-opacity:1;fill-rule:nonzero;stroke:none" aria-label="X" transform="matrix(4,0,0,4,104.348,212.744)" />
    <path id="path4" d="M -56.69362,28.3468 H 28.3468" style="fill:none;stroke:#121619;stroke-width:0.3985;stroke-linecap:butt;stroke-linejoin:miter;stroke-miterlimit:10;stroke-dasharray:none;stroke-opacity:1" transform="matrix(4,0,0,-4,365.128,201.676)" />
    <path id="path5" d="M -56.69362,0 H 28.3468" style="fill:none;stroke:#121619;stroke-width:0.3985;stroke-linecap:butt;stroke-linejoin:miter;stroke-miterlimit:10;stroke-dasharray:none;stroke-opacity:1" transform="matrix(4,0,0,-4,365.128,201.676)" />
    <path id="path6" d="m 2.49069,28.3468 c 0,1.37558 -1.11511,2.4907 -2.49069,2.4907 -1.37558,0 -2.49069,-1.11512 -2.49069,-2.4907 0,-1.37558 1.11511,-2.49069 2.49069,-2.49069 1.37558,0 2.49069,1.11511 2.49069,2.49069 z" style="fill:#78a9ff;fill-opacity:1;fill-rule:nonzero;stroke:none" transform="matrix(4,0,0,-4,365.128,201.676)" />
    <path id="path7" d="M 6.48114,0 C 6.48114,3.57947 3.57947,6.48114 0,6.48114 -3.57947,6.48114 -6.48114,3.57947 -6.48114,0 c 0,-3.57947 2.90167,-6.48114 6.48114,-6.48114 3.57947,0 6.48114,2.90167 6.48114,6.48114 z" style="fill:#78a9ff;fill-opacity:1;fill-rule:nonzero;stroke:#78a9ff;stroke-width:0.3985;stroke-linecap:butt;stroke-linejoin:miter;stroke-miterlimit:10;stroke-dasharray:none;stroke-opacity:1" transform="matrix(4,0,0,-4,365.128,201.676)" />
    <path id="path8" d="m 4.7072187,-7.8202813 v 3.4140625 H 1.2931562 V -3.48825 h 3.4140625 v 3.41796875 H 5.6251875 V -3.48825 H 9.03925 V -4.4062188 H 5.6251875 v -3.4140625 z m 0,0" style="fill:#ffffff;fill-opacity:1;fill-rule:nonzero;stroke:none" aria-label="+" transform="matrix(4,0,0,4,344.468,217.328)" />
    <path id="path9" d="M 0,28.3468 V 6.68039" style="fill:none;stroke:#78a9ff;stroke-width:0.79701;stroke-linecap:butt;stroke-linejoin:miter;stroke-miterlimit:10;stroke-dasharray:none;stroke-opacity:1" transform="matrix(4,0,0,-4,365.128,201.676)" />
    <path id="path10" d="m -36.85083,19.84277 h 17.00806 v 17.00806 h -17.00806 z" style="fill:#78a9ff;fill-opacity:1;fill-rule:nonzero;stroke:#78a9ff;stroke-width:0.3985;stroke-linecap:butt;stroke-linejoin:miter;stroke-miterlimit:10;stroke-dasharray:none;stroke-opacity:1" transform="matrix(4,0,0,-4,365.128,201.676)" />
    <path id="path11" d="m 6.3675781,-4.7969531 c 0.078125,-0.3125 0.09375,-0.3828125 0.6523438,-0.3828125 0.1835937,0 0.28125,0 0.28125,-0.1523438 0,-0.00781 -0.00781,-0.109375 -0.1367188,-0.109375 -0.1523437,0 -0.34375,0.015625 -0.4960937,0.023437 h -0.5 c -0.765625,0 -0.9726563,-0.023437 -1.0273438,-0.023437 -0.03125,0 -0.1601562,0 -0.1601562,0.1484375 0,0.1132813 0.1054687,0.1132813 0.2304687,0.1132813 0.2617188,0 0.4960938,0 0.4960938,0.1289062 0,0.03125 -0.00781,0.039063 -0.035156,0.140625 L 5.1957031,-2.9649219 H 2.6292969 l 0.4648437,-1.8554687 c 0.070312,-0.2890625 0.085937,-0.359375 0.6679688,-0.359375 0.1601562,0 0.2539062,0 0.2539062,-0.1523438 0,-0.00781 -0.00781,-0.109375 -0.1367187,-0.109375 -0.1484375,0 -0.3398438,0.015625 -0.4921875,0.023437 H 2.8832031 c -0.7617187,0 -0.96875,-0.023437 -1.0273437,-0.023437 -0.03125,0 -0.15625,0 -0.15625,0.1484375 0,0.1132813 0.1015625,0.1132813 0.2304687,0.1132813 0.2617188,0 0.4921875,0 0.4921875,0.1289062 0,0.03125 -0.00781,0.039063 -0.03125,0.140625 l -1.0664062,4.28125002 c -0.074219,0.30078125 -0.089844,0.3671875 -0.67968753,0.3671875 -0.15234375,0 -0.24609375,0 -0.24609375,0.1484375 0,0.03515625 0.0234375,0.113281255 0.12890625,0.113281255 0.1484375,0 0.33984375,-0.015625005 0.49218753,-0.023437505 h 0.5117187 c 0.765625,0 0.9726563,0.023437505 1.0273438,0.023437505 0.046875,0 0.1601562,0 0.1601562,-0.152343755 0,-0.109375 -0.1054687,-0.109375 -0.2421875,-0.109375 -0.023437,0 -0.1640625,0 -0.3007812,-0.015625 -0.1679688,-0.015625 -0.1835938,-0.0429687 -0.1835938,-0.11328125 0,-0.0390625 0.015625,-0.0859375 0.023437,-0.12890625 L 2.5589844,-2.7032031 h 2.5664062 c -0.2304687,0.9414062 -0.5429687,2.18359372 -0.5507812,2.18359372 -0.070312,0.25 -0.2148438,0.25 -0.6953125,0.2578125 -0.09375,0 -0.1992188,0 -0.1992188,0.1484375 0,0.03515625 0.027344,0.113281255 0.1289063,0.113281255 0.1523437,0 0.34375,-0.015625005 0.4960937,-0.023437505 h 0.5078125 c 0.765625,0 0.9726563,0.023437505 1.0273438,0.023437505 0.050781,0 0.1601562,0 0.1601562,-0.152343755 0,-0.109375 -0.1015625,-0.109375 -0.2382812,-0.109375 -0.023437,0 -0.1679688,0 -0.3046875,-0.015625 -0.1640625,-0.015625 -0.1835938,-0.0429687 -0.1835938,-0.11328125 0,-0.0390625 0.019531,-0.0859375 0.027344,-0.12890625 z m 0,0" style="fill:#ffffff;fill-opacity:1;fill-rule:nonzero;stroke:none" aria-label="H" transform="matrix(4,0,0,4,236.6,99.18)" />
    <path id="path12" d="m -42.5202,-14.1734 h 28.34679 V 42.52022 H -42.5202 Z" style="fill:none;stroke:#121619;stroke-width:0.3985;stroke-linecap:butt;stroke-linejoin:miter;stroke-miterlimit:10;stroke-dasharray:0.3985, 0.99628;stroke-dashoffset:0;stroke-opacity:1" transform="matrix(4,0,0,-4,365.128,201.676)" />
  </g>
</svg>