<?xml version='1.0' encoding='utf-8'?>
<svg xmlns="http://www.w3.org/2000/svg" xmlns:ns1="http://sodipodi.sourceforge.net/DTD/sodipodi-0.dtd" xmlns:ns2="http://www.inkscape.org/namespaces/inkscape" version="1.1" id="svg1" width="100%" height="auto" viewBox="-20.0 -20.0 505.14911 287.46000000000004" ns1:docname="svg_fix_XXXXXX.svg">
  <rect id="path1" x="-20.0" y="-20.0" width="505.14911" height="287.46000000000004" fill="white" /><ns1:namedview id="namedview1" pagecolor="#ffffff" bordercolor="#000000" borderopacity="0.25" ns2:showpageshadow="2" ns2:pageopacity="0.0" ns2:pagecheckerboard="0" ns2:deskcolor="#d1d1d1" />
  <defs id="defs1" />
  <g id="g1" transform="translate(-69.679687,-45.520459)">
    <path id="path2" d="m 55.50546,-2.12592 v 4.25184 m 55.50547,-4.25184 v 4.25184 m 55.50546,-4.25184 v 4.25184" style="fill:none;stroke:#808080;stroke-width:0.19925;stroke-linecap:butt;stroke-linejoin:miter;stroke-miterlimit:10;stroke-dasharray:none;stroke-opacity:1" transform="matrix(1.3333333,0,0,-1.3333333,121.88133,261.01333)" />
    <path id="path3" d="m -2.12611,43.11281 h 4.25222 m -4.25222,43.11281 h 4.25222 m -4.25222,43.1128 h 4.25222" style="fill:none;stroke:#808080;stroke-width:0.19925;stroke-linecap:butt;stroke-linejoin:miter;stroke-miterlimit:10;stroke-dasharray:none;stroke-opacity:1" transform="matrix(1.3333333,0,0,-1.3333333,121.88133,261.01333)" />
    <path id="path4" d="M 0,0 H 194.26912" style="fill:none;stroke:#121619;stroke-width:0.3985;stroke-linecap:butt;stroke-linejoin:miter;stroke-miterlimit:10;stroke-dasharray:none;stroke-opacity:1" transform="matrix(1.3333333,0,0,-1.3333333,121.88133,261.01333)" />
    <path id="path5" d="M 0,0 V 161.40056" style="fill:none;stroke:#121619;stroke-width:0.3985;stroke-linecap:butt;stroke-linejoin:miter;stroke-miterlimit:10;stroke-dasharray:none;stroke-opacity:1" transform="matrix(1.3333333,0,0,-1.3333333,121.88133,261.01333)" />
    <path id="path6" d="m 3.8892266,-2.5911016 c 0,-0.3867187 0,-1.3125 -0.375,-1.96875 -0.4101563,-0.7148437 -1.0195313,-0.8320312 -1.40625,-0.8320312 -0.3515625,0 -0.9726563,0.1054687 -1.37109379,0.796875 -0.38671875,0.6328125 -0.3984375,1.5 -0.3984375,2.0039062 0,0.5859375 0.0234375,1.3125 0.36328125,1.92187504 0.35156254,0.64453125 0.93750004,0.83203125 1.40625004,0.83203125 0.796875,0 1.2421875,-0.45703125 1.4765625,-0.9609375 0.28125,-0.56249999 0.3046875,-1.30078129 0.3046875,-1.79296879 z M 3.1978203,-2.6965703 c 0,0.5273437 0,1.125 -0.1992187,1.640625 -0.2226563,0.57421874 -0.6210938,0.69140624 -0.890625,0.69140624 -0.328125,0 -0.7148438,-0.1875 -0.9140625,-0.76171874 -0.1640625,-0.4804688 -0.1640625,-0.984375 -0.1640625,-1.5703125 0,-0.7265625 0,-2.1679688 1.078125,-2.1679688 1.0898437,0 1.0898437,1.4414063 1.0898437,2.1679688 z m 2.5693359,2.69531249 V -0.71610156 H 5.0405937 v 0.71484375 z M 10.475164,-2.5911016 c 0,-0.3867187 0,-1.3125 -0.375,-1.96875 -0.4101562,-0.7148437 -1.0195312,-0.8320312 -1.4062499,-0.8320312 -0.3515625,0 -0.9726563,0.1054687 -1.3710938,0.796875 -0.3867187,0.6328125 -0.3984375,1.5 -0.3984375,2.0039062 0,0.5859375 0.023437,1.3125 0.3632813,1.92187504 0.3515625,0.64453125 0.9375,0.83203125 1.40625,0.83203125 0.796875,0 1.2421875,-0.45703125 1.4765629,-0.9609375 0.28125,-0.56249999 0.304687,-1.30078129 0.304687,-1.79296879 z M 9.7837578,-2.6965703 c 0,0.5273437 0,1.125 -0.1992187,1.640625 -0.2226563,0.57421874 -0.6210938,0.69140624 -0.890625,0.69140624 -0.328125,0 -0.7148438,-0.1875 -0.9140625,-0.76171874 -0.1640625,-0.4804688 -0.1640625,-0.984375 -0.1640625,-1.5703125 0,-0.7265625 0,-2.1679688 1.078125,-2.1679688 1.0898437,0 1.0898437,1.4414063 1.0898437,2.1679688 z m 4.6523442,2.69531249 V -0.50516406 H 13.369695 V -5.3918828 h -0.175781 c -0.515625,0.46875 -1.171875,0.5039062 -1.640625,0.5273437 v 0.4921875 c 0.304688,0 0.703125,-0.023437 1.101563,-0.1757812 v 4.04296874 h -1.054688 v 0.50390625 z m 0,0" style="fill:#121619;fill-opacity:1;fill-rule:nonzero;stroke:none" aria-label="0.01" transform="matrix(1.3333333,0,0,1.3333333,185.85733,274.84933)" />
    <path id="path7" d="m 3.8900859,-2.5911016 c 0,-0.3867187 0,-1.3125 -0.375,-1.96875 -0.4101562,-0.7148437 -1.0195312,-0.8320312 -1.40625,-0.8320312 -0.3515625,0 -0.9726562,0.1054687 -1.37109371,0.796875 -0.38671875,0.6328125 -0.3984375,1.5 -0.3984375,2.0039062 0,0.5859375 0.0234375,1.3125 0.36328125,1.92187504 0.35156246,0.64453125 0.93749996,0.83203125 1.40624996,0.83203125 0.796875,0 1.2421875,-0.45703125 1.4765625,-0.9609375 0.28125,-0.56249999 0.3046875,-1.30078129 0.3046875,-1.79296879 z M 3.1986797,-2.6965703 c 0,0.5273437 0,1.125 -0.1992188,1.640625 -0.2226562,0.57421874 -0.6210937,0.69140624 -0.890625,0.69140624 -0.328125,0 -0.7148437,-0.1875 -0.9140625,-0.76171874 -0.1640625,-0.4804688 -0.1640625,-0.984375 -0.1640625,-1.5703125 0,-0.7265625 0,-2.1679688 1.078125,-2.1679688 1.0898438,0 1.0898438,1.4414063 1.0898438,2.1679688 z m 2.5693359,2.69531249 V -0.71610156 H 5.0414531 v 0.71484375 z M 10.473094,-2.5911016 c 0,-0.3867187 0,-1.3125 -0.375,-1.96875 -0.4101565,-0.7148437 -1.0195315,-0.8320312 -1.4062503,-0.8320312 -0.3515625,0 -0.9726562,0.1054687 -1.3710937,0.796875 -0.3867188,0.6328125 -0.3984375,1.5 -0.3984375,2.0039062 0,0.5859375 0.023437,1.3125 0.3632812,1.92187504 0.3515625,0.64453125 0.9375,0.83203125 1.40625,0.83203125 0.796875,0 1.2421875,-0.45703125 1.4765623,-0.9609375 0.28125,-0.56249999 0.304688,-1.30078129 0.304688,-1.79296879 z M 9.7816875,-2.6965703 c 0,0.5273437 0,1.125 -0.1992188,1.640625 -0.2226562,0.57421874 -0.6210937,0.69140624 -0.890625,0.69140624 -0.328125,0 -0.7148437,-0.1875 -0.9140625,-0.76171874 -0.1640625,-0.4804688 -0.1640625,-0.984375 -0.1640625,-1.5703125 0,-0.7265625 0,-2.1679688 1.078125,-2.1679688 1.0898438,0 1.0898438,1.4414063 1.0898438,2.1679688 z m 4.8310545,2.69531249 v -0.609375 h -1.546875 c -0.09375,0 -0.1875,0 -0.28125,0 h -0.914062 l 1.242187,-1.08984379 c 0.140625,-0.1289062 0.527344,-0.421875 0.679688,-0.5507812 0.351562,-0.3164063 0.820312,-0.7265625 0.820312,-1.4179688 0,-0.9023437 -0.667969,-1.7226562 -1.804687,-1.7226562 -0.84375,0 -1.371094,0.4453125 -1.640625,1.265625 l 0.375,0.46875 c 0.1875,-0.6679688 0.457031,-1.1835938 1.148437,-1.1835938 0.679688,0 1.183594,0.46875 1.183594,1.1835938 0,0.65625 -0.386719,1.03125 -0.867188,1.4882812 -0.164062,0.1640625 -0.585937,0.515625 -0.761718,0.6796875 -0.222657,0.2109375 -0.773438,0.73828129 -1.007813,0.93750004 v 0.55078125 z m 0,0" style="fill:#121619;fill-opacity:1;fill-rule:nonzero;stroke:none" aria-label="0.02" transform="matrix(1.3333333,0,0,1.3333333,259.864,274.84933)" />
    <path id="path8" d="m 3.8899453,-2.5911016 c 0,-0.3867187 0,-1.3125 -0.375,-1.96875 -0.4101562,-0.7148437 -1.0195312,-0.8320312 -1.40625,-0.8320312 -0.3515625,0 -0.9726562,0.1054687 -1.37109374,0.796875 -0.38671875,0.6328125 -0.3984375,1.5 -0.3984375,2.0039062 0,0.5859375 0.0234375,1.3125 0.36328125,1.92187504 0.35156249,0.64453125 0.93749999,0.83203125 1.40624999,0.83203125 0.796875,0 1.2421875,-0.45703125 1.4765625,-0.9609375 0.28125,-0.56249999 0.3046875,-1.30078129 0.3046875,-1.79296879 z M 3.1985391,-2.6965703 c 0,0.5273437 0,1.125 -0.1992188,1.640625 -0.2226562,0.57421874 -0.6210937,0.69140624 -0.890625,0.69140624 -0.328125,0 -0.7148437,-0.1875 -0.9140625,-0.76171874 -0.1640625,-0.4804688 -0.1640625,-0.984375 -0.1640625,-1.5703125 0,-0.7265625 0,-2.1679688 1.078125,-2.1679688 1.0898438,0 1.0898438,1.4414063 1.0898438,2.1679688 z M 5.767875,-0.00125781 V -0.71610156 H 5.0413125 v 0.71484375 z m 4.705078,-2.58984379 c 0,-0.3867187 0,-1.3125 -0.375,-1.96875 -0.4101561,-0.7148437 -1.0195311,-0.8320312 -1.4062499,-0.8320312 -0.3515625,0 -0.9726562,0.1054687 -1.3710937,0.796875 -0.3867188,0.6328125 -0.3984375,1.5 -0.3984375,2.0039062 0,0.5859375 0.023437,1.3125 0.3632812,1.92187504 0.3515625,0.64453125 0.9375,0.83203125 1.40625,0.83203125 0.796875,0 1.2421875,-0.45703125 1.4765629,-0.9609375 0.28125,-0.56249999 0.304687,-1.30078129 0.304687,-1.79296879 z M 9.7815469,-2.6965703 c 0,0.5273437 0,1.125 -0.1992188,1.640625 -0.2226562,0.57421874 -0.6210937,0.69140624 -0.890625,0.69140624 -0.328125,0 -0.7148437,-0.1875 -0.9140625,-0.76171874 -0.1640625,-0.4804688 -0.1640625,-0.984375 -0.1640625,-1.5703125 0,-0.7265625 0,-2.1679688 1.078125,-2.1679688 1.0898438,0 1.0898438,1.4414063 1.0898438,2.1679688 z m 4.9013671,1.2421875 c 0,-0.65625 -0.515625,-1.171875 -1.148437,-1.359375 0.609375,-0.3164063 0.914062,-0.84375 0.914062,-1.359375 0,-0.6796875 -0.691406,-1.21875 -1.546875,-1.21875 -0.703125,0 -1.277344,0.3632812 -1.617187,0.84375 l 0.328125,0.4570312 c 0.328125,-0.6328125 0.902343,-0.8085937 1.277343,-0.8085937 0.480469,0 0.832032,0.2695312 0.832032,0.7265625 0,0.421875 -0.292969,0.9375 -0.902344,1.0429687 -0.03516,0 -0.07031,0 -0.597656,0.046875 v 0.5273438 h 0.621093 c 0.761719,0 1.042969,0.5976562 1.042969,1.1015625 0,0.62109374 -0.386719,1.08984374 -1.007812,1.08984374 -0.5625,0 -1.207032,-0.26953125 -1.605469,-0.77343754 l -0.105469,0.51562504 c 0.457031,0.515625 1.101563,0.78515625 1.722656,0.78515625 1.054688,0 1.792969,-0.7734375 1.792969,-1.61718749 z m 0,0" style="fill:#121619;fill-opacity:1;fill-rule:nonzero;stroke:none" aria-label="0.03" transform="matrix(1.3333333,0,0,1.3333333,333.872,274.84933)" />
    <path id="path9" d="m 3.8914609,-2.589125 c 0,-0.3867187 0,-1.3125 -0.375,-1.96875 -0.4101562,-0.7148437 -1.0195312,-0.8320312 -1.40625,-0.8320312 -0.3515625,0 -0.9726562,0.1054687 -1.37109371,0.796875 -0.38671875,0.6328125 -0.3984375,1.5 -0.3984375,2.0039062 0,0.5859375 0.0234375,1.3125 0.36328125,1.921875 0.35156246,0.64453125 0.93749996,0.83203125 1.40624996,0.83203125 0.796875,0 1.2421875,-0.45703125 1.4765625,-0.9609375 C 3.8680234,-1.3586562 3.8914609,-2.0969375 3.8914609,-2.589125 Z M 3.2000547,-2.6945937 c 0,0.5273437 0,1.125 -0.1992188,1.640625 -0.2226562,0.5742187 -0.6210937,0.6914062 -0.890625,0.6914062 -0.328125,0 -0.7148437,-0.1875 -0.9140625,-0.7617187 -0.1640625,-0.4804688 -0.1640625,-0.984375 -0.1640625,-1.5703125 0,-0.7265625 0,-2.1679688 1.078125,-2.1679688 1.0898438,0 1.0898438,1.4414063 1.0898438,2.1679688 z M 5.7664609,7.1875e-4 V -0.714125 H 5.0398984 V 7.1875e-4 Z M 10.474469,-2.589125 c 0,-0.3867187 0,-1.3125 -0.375,-1.96875 -0.4101565,-0.7148437 -1.0195315,-0.8320312 -1.4062503,-0.8320312 -0.3515625,0 -0.9726562,0.1054687 -1.3710937,0.796875 -0.3867188,0.6328125 -0.3984375,1.5 -0.3984375,2.0039062 0,0.5859375 0.023437,1.3125 0.3632812,1.921875 0.3515625,0.64453125 0.9375,0.83203125 1.40625,0.83203125 0.796875,0 1.2421875,-0.45703125 1.4765623,-0.9609375 0.28125,-0.56249995 0.304688,-1.30078125 0.304688,-1.79296875 z M 9.7830625,-2.6945937 c 0,0.5273437 0,1.125 -0.1992188,1.640625 -0.2226562,0.5742187 -0.6210937,0.6914062 -0.890625,0.6914062 -0.328125,0 -0.7148437,-0.1875 -0.9140625,-0.7617187 -0.1640625,-0.4804688 -0.1640625,-0.984375 -0.1640625,-1.5703125 0,-0.7265625 0,-2.1679688 1.078125,-2.1679688 1.0898438,0 1.0898438,1.4414063 1.0898438,2.1679688 z M 14.435406,7.1875e-4 V -0.5031875 H 13.369 v -4.8867187 h -0.175781 c -0.515625,0.46875 -1.171875,0.5039062 -1.640625,0.5273437 v 0.4921875 c 0.304687,0 0.703125,-0.023437 1.101562,-0.1757812 v 4.0429687 H 11.599469 V 7.1875e-4 Z m 0,0" style="fill:#121619;fill-opacity:1;fill-rule:nonzero;stroke:none" aria-label="0.01" transform="matrix(1.3333333,0,0,1.3333333,95.174667,207.01467)" />
    <path id="path10" d="m 3.8914609,-2.5904062 c 0,-0.3867188 0,-1.3125 -0.375,-1.96875 C 3.1063047,-5.274 2.4969297,-5.3911875 2.1102109,-5.3911875 c -0.3515625,0 -0.9726562,0.1054688 -1.37109371,0.796875 -0.38671875,0.6328125 -0.3984375,1.5 -0.3984375,2.0039063 0,0.5859375 0.0234375,1.3125 0.36328125,1.92187495 C 1.0555234,-0.024 1.6414609,0.1635 2.1102109,0.1635 c 0.796875,0 1.2421875,-0.45703125 1.4765625,-0.9609375 0.28125,-0.5625 0.3046875,-1.3007812 0.3046875,-1.7929687 z M 3.2000547,-2.695875 c 0,0.5273438 0,1.125 -0.1992188,1.640625 -0.2226562,0.57421875 -0.6210937,0.69140625 -0.890625,0.69140625 -0.328125,0 -0.7148437,-0.1875 -0.9140625,-0.76171875 -0.1640625,-0.4804687 -0.1640625,-0.984375 -0.1640625,-1.5703125 0,-0.7265625 0,-2.1679687 1.078125,-2.1679687 1.0898438,0 1.0898438,1.4414062 1.0898438,2.1679687 z M 5.7664609,-5.625e-4 V -0.71540625 H 5.0398984 V -5.625e-4 Z m 4.7080081,-2.5898437 c 0,-0.3867188 0,-1.3125 -0.375,-1.96875 C 9.6893125,-5.274 9.0799375,-5.3911875 8.6932187,-5.3911875 c -0.3515625,0 -0.9726562,0.1054688 -1.3710937,0.796875 -0.3867188,0.6328125 -0.3984375,1.5 -0.3984375,2.0039063 0,0.5859375 0.023437,1.3125 0.3632812,1.92187495 C 7.6385312,-0.024 8.2244687,0.1635 8.6932187,0.1635 c 0.796875,0 1.2421875,-0.45703125 1.4765623,-0.9609375 0.28125,-0.5625 0.304688,-1.3007812 0.304688,-1.7929687 z M 9.7830625,-2.695875 c 0,0.5273438 0,1.125 -0.1992188,1.640625 -0.2226562,0.57421875 -0.6210937,0.69140625 -0.890625,0.69140625 -0.328125,0 -0.7148437,-0.1875 -0.9140625,-0.76171875 -0.1640625,-0.4804687 -0.1640625,-0.984375 -0.1640625,-1.5703125 0,-0.7265625 0,-2.1679687 1.078125,-2.1679687 1.0898438,0 1.0898438,1.4414062 1.0898438,2.1679687 z m 4.8281245,2.6953125 v -0.609375 h -1.546875 c -0.09375,0 -0.1875,0 -0.28125,0 H 11.869 l 1.242187,-1.0898437 c 0.140625,-0.1289063 0.527344,-0.421875 0.679688,-0.5507813 0.351562,-0.3164062 0.820312,-0.7265625 0.820312,-1.4179687 0,-0.9023438 -0.667968,-1.7226563 -1.804687,-1.7226563 -0.84375,0 -1.371094,0.4453125 -1.640625,1.265625 l 0.375,0.46875 c 0.1875,-0.6679687 0.457031,-1.1835937 1.148437,-1.1835937 0.679688,0 1.183594,0.46875 1.183594,1.1835937 0,0.65625 -0.386719,1.03125 -0.867187,1.4882813 -0.164063,0.1640625 -0.585938,0.515625 -0.761719,0.6796875 -0.222656,0.2109375 -0.773438,0.7382812 -1.007813,0.93749995 V -5.625e-4 Z m 0,0" style="fill:#121619;fill-opacity:1;fill-rule:nonzero;stroke:none" aria-label="0.02" transform="matrix(1.3333333,0,0,1.3333333,95.174667,149.532)" />
    <path id="path11" d="m 3.8914609,-2.5906875 c 0,-0.3867188 0,-1.3125 -0.375,-1.96875 -0.4101562,-0.7148438 -1.0195312,-0.8320313 -1.40625,-0.8320313 -0.3515625,0 -0.9726562,0.1054688 -1.37109371,0.796875 -0.38671875,0.6328125 -0.3984375,1.5 -0.3984375,2.0039063 0,0.5859375 0.0234375,1.3125 0.36328125,1.921875 0.35156246,0.64453125 0.93749996,0.83203125 1.40624996,0.83203125 0.796875,0 1.2421875,-0.45703125 1.4765625,-0.9609375 C 3.8680234,-1.3602188 3.8914609,-2.0985 3.8914609,-2.5906875 Z M 3.2000547,-2.6961563 c 0,0.5273438 0,1.125 -0.1992188,1.640625 -0.2226562,0.5742188 -0.6210937,0.6914063 -0.890625,0.6914063 -0.328125,0 -0.7148437,-0.1875 -0.9140625,-0.7617188 -0.1640625,-0.4804687 -0.1640625,-0.984375 -0.1640625,-1.5703125 0,-0.7265625 0,-2.1679687 1.078125,-2.1679687 1.0898438,0 1.0898438,1.4414062 1.0898438,2.1679687 z M 5.7664609,-8.4375e-4 V -0.7156875 H 5.0398984 V -8.4375e-4 Z M 10.474469,-2.5906875 c 0,-0.3867188 0,-1.3125 -0.375,-1.96875 -0.4101565,-0.7148438 -1.0195315,-0.8320313 -1.4062503,-0.8320313 -0.3515625,0 -0.9726562,0.1054688 -1.3710937,0.796875 -0.3867188,0.6328125 -0.3984375,1.5 -0.3984375,2.0039063 0,0.5859375 0.023437,1.3125 0.3632812,1.921875 0.3515625,0.64453125 0.9375,0.83203125 1.40625,0.83203125 0.796875,0 1.2421875,-0.45703125 1.4765623,-0.9609375 C 10.451031,-1.3602188 10.474469,-2.0985 10.474469,-2.5906875 Z M 9.7830625,-2.6961563 c 0,0.5273438 0,1.125 -0.1992188,1.640625 -0.2226562,0.5742188 -0.6210937,0.6914063 -0.890625,0.6914063 -0.328125,0 -0.7148437,-0.1875 -0.9140625,-0.7617188 -0.1640625,-0.4804687 -0.1640625,-0.984375 -0.1640625,-1.5703125 0,-0.7265625 0,-2.1679687 1.078125,-2.1679687 1.0898438,0 1.0898438,1.4414062 1.0898438,2.1679687 z M 14.6815,-1.4539688 c 0,-0.65625 -0.515625,-1.171875 -1.148438,-1.359375 0.609375,-0.3164062 0.914063,-0.84375 0.914063,-1.359375 0,-0.6796875 -0.691406,-1.21875 -1.546875,-1.21875 -0.703125,0 -1.277344,0.3632813 -1.617188,0.84375 l 0.328125,0.4570313 c 0.328125,-0.6328125 0.902344,-0.8085938 1.277344,-0.8085938 0.480469,0 0.832031,0.2695313 0.832031,0.7265625 0,0.421875 -0.292968,0.9375 -0.902343,1.0429688 -0.03516,0 -0.07031,0 -0.597657,0.046875 v 0.5273437 h 0.621094 c 0.761719,0 1.042969,0.5976563 1.042969,1.1015625 0,0.6210938 -0.386719,1.0898438 -1.007813,1.0898438 -0.5625,0 -1.207031,-0.26953125 -1.605468,-0.7734375 l -0.105469,0.515625 c 0.457031,0.515625 1.101562,0.78515625 1.722656,0.78515625 1.054688,0 1.792969,-0.7734375 1.792969,-1.61718755 z m 0,0" style="fill:#121619;fill-opacity:1;fill-rule:nonzero;stroke:none" aria-label="0.03" transform="matrix(1.3333333,0,0,1.3333333,95.174667,92.048)" />
    <path id="path12" d="m 0,0 1.96227,0.01465 1.96228,0.05864 1.96229,0.097 1.96228,0.13621 1.9623,0.17246 1.96226,0.2104 1.9623,0.24919 1.96228,0.28585 1.96228,0.32418 1.96229,0.35398 1.96228,0.39706 1.96229,0.43501 1.96229,0.47123 1.96228,0.507 1.96228,0.54279 1.96228,0.57943 1.9623,0.61566 1.96227,0.65101 1.96229,0.67858 1.96229,0.72171 1.96227,0.75707 1.96231,0.79112 1.96226,0.82689 1.96228,0.86011 1.9623,0.89459 1.96228,0.92908 1.96229,0.96358 1.96228,0.99676 1.96228,1.02522 1.96229,1.06403 1.96228,1.09766 1.96229,1.12998 1.96228,1.16318 1.9623,1.19596 1.96228,1.23001 1.96226,1.2606 1.96231,1.29382 1.96227,1.31969 1.96229,1.35805 1.96228,1.38866 1.96228,1.421 1.9623,1.4529 1.96226,1.48437 1.96232,1.51413 1.96226,1.5456 1.9623,1.5775 1.96228,1.60725 1.96228,1.63051 1.96229,1.66847 1.96228,1.69649 1.96228,1.72883 1.96228,1.75641 1.96228,1.78659 1.9623,1.81722 1.96228,1.84565 1.96229,1.87498 1.96228,1.89869 1.96227,1.93274 1.96231,1.96077 1.96227,1.98965 1.96229,2.01769 1.96228,2.04656 1.9623,2.0746 1.96228,2.10175 1.96228,2.13019 1.96228,2.15779 1.96228,2.17894 1.96229,2.21212 1.96228,2.23884 1.96229,2.26471 1.96227,2.29404 1.9623,2.31947 1.96228,2.34619 1.9623,2.37165 1.96226,2.39921 1.96229,2.41864 1.96229,2.44966 1.96229,2.47684 1.96228,2.50142 1.96228,2.52597 1.96228,2.5527 1.96228,2.57727 1.9623,2.60187 1.96228,2.62816 1.96229,2.64584 1.96227,2.676 1.96229,2.70059 1.96229,2.72516 1.96228,2.74887 1.96229,2.77345 1.96228,2.79543 1.9623,2.8226 1.96228,2.84373 1.96228,2.86742 1.96227,2.88556 1.96229,2.91269 1.96229,2.93771 1.96228,2.96013 1.96228,2.98125" style="fill:none;stroke:#0f62fe;stroke-width:0.79701;stroke-linecap:butt;stroke-linejoin:miter;stroke-miterlimit:10;stroke-dasharray:none;stroke-opacity:1" transform="matrix(1.3333333,0,0,-1.3333333,121.88133,261.01333)" />
    <path id="path13" d="m 0,0 1.96227,1.52414 1.96228,1.52418 1.96229,1.52418 1.96228,1.52415 1.9623,1.52417 1.96226,1.52417 1.9623,1.52415 1.96228,1.52417 1.96228,1.52419 1.96229,1.52415 1.96228,1.52416 1.96229,1.52419 1.96229,1.52416 1.96228,1.52416 1.96228,1.52417 1.96228,1.52417 1.9623,1.52417 1.96227,1.52415 1.96229,1.52419 1.96229,1.52415 1.96227,1.52416 1.96231,1.52418 1.96226,1.52417 1.96228,1.52417 1.9623,1.52416 1.96228,1.52417 1.96229,1.52417 1.96228,1.52415 1.96228,1.52419 1.96229,1.52415 1.96228,1.52417 1.96229,1.52417 1.96228,1.52417 1.9623,1.52417 1.96228,1.52416 1.96226,1.52417 1.96231,1.52417 1.96227,1.52416 1.96229,1.52417 1.96228,1.52416 1.96228,1.52417 1.9623,1.52417 1.96226,1.52417 1.96232,1.52417 1.96226,1.52417 1.9623,1.52415 1.96228,1.52417 1.96228,1.52417 1.96229,1.52417 1.96228,1.52416 1.96228,1.52417 1.96228,1.52418 1.96228,1.52416 1.9623,1.52417 1.96228,1.52417 1.96229,1.52415 1.96228,1.52417 1.96227,1.52417 1.96231,1.52419 1.96227,1.52414 1.96229,1.52417 1.96228,1.52418 1.9623,1.52415 1.96228,1.52418 1.96228,1.52417 1.96228,1.52417 1.96228,1.52415 1.96229,1.52417 1.96228,1.52419 1.96229,1.52414 1.96227,1.52417 1.9623,1.52418 1.96228,1.52417 1.9623,1.52416 1.96226,1.52417 1.96229,1.52417 1.96229,1.52415 1.96229,1.52417 1.96228,1.52417 1.96228,1.52417 1.96228,1.52415 1.96228,1.52419 1.9623,1.52417 1.96228,1.52415 1.96229,1.52417 1.96227,1.52417 1.96229,1.52417 1.96229,1.52416 1.96228,1.52417 1.96229,1.52417 1.96228,1.52415 1.9623,1.52419 1.96228,1.52417 1.96228,1.52417 1.96227,1.52415 1.96229,1.52417 1.96229,1.52418 1.96228,1.52415 1.96228,1.52417" style="fill:none;stroke:#8a3ffc;stroke-width:0.79701;stroke-linecap:butt;stroke-linejoin:miter;stroke-miterlimit:10;stroke-dasharray:none;stroke-opacity:1" transform="matrix(1.3333333,0,0,-1.3333333,121.88133,261.01333)" />
    <path id="path14" d="M 179.28264,0 V 139.25436" style="fill:none;stroke:#121619;stroke-width:0.3985;stroke-linecap:butt;stroke-linejoin:miter;stroke-miterlimit:10;stroke-dasharray:0.3985, 0.99628;stroke-dashoffset:0;stroke-opacity:1" transform="matrix(1.3333333,0,0,-1.3333333,121.88133,261.01333)" />
    <path id="path15" d="M 0.40924219,0.96141406 C 0.35064844,1.2192266 0.33892969,1.2778203 0.01080469,1.2778203 c -0.10546875,0 -0.19921875,0 -0.19921875,0.1523438 0,0.082031 0.0703125,0.1171875 0.10546875,0.1171875 0.0820312475,0 0.1171875,-0.023437 0.703125,-0.023437 0.57421871,0 0.73828121,0.023437 0.79687501,0.023437 0.035156,0 0.1523437,0 0.1523437,-0.1523438 0,-0.1171875 -0.1171875,-0.1171875 -0.2109375,-0.1171875 -0.37499996,0 -0.37499996,-0.046875 -0.37499996,-0.1171875 0,-0.046875 0.14062496,-0.62109374 0.37499996,-1.54687499 0.1054688,0.17578125 0.3515625,0.46875 0.7851563,0.46875 0.984375,0 2.0039062,-1.13671871 2.0039062,-2.28515621 0,-0.796875 -0.515625,-1.3125 -1.1484375,-1.3125 -0.4804687,0 -0.8671875,0.328125 -1.0898437,0.5625 -0.1757813,-0.5625 -0.703125,-0.5625 -0.7851563,-0.5625 -0.29296871,0 -0.49218746,0.1875 -0.60937496,0.4335937 -0.1875,0.3515625 -0.28125,0.7617188 -0.28125,0.7851563 0,0.070312 0.0585938,0.1054687 0.12890625,0.1054687 0.09375,0 0.10546875,-0.035156 0.1640625,-0.234375 0.10546875,-0.4101562 0.24609375,-0.8671875 0.57421871,-0.8671875 0.1992188,0 0.2578125,0.1875 0.2578125,0.375 0,0.082031 -0.035156,0.2695313 -0.046875,0.3398438 z M 1.8740859,-2.4487422 c 0.046875,-0.140625 0.046875,-0.1523437 0.1640625,-0.3046875 0.3046875,-0.3515625 0.6445313,-0.5390625 0.9375,-0.5390625 0.3984375,0 0.5507813,0.3867188 0.5507813,0.75 0,0.2929688 -0.1757813,1.1484375 -0.421875,1.61718751 -0.1992188,0.43359375 -0.5859375,0.78515625 -0.9609375,0.78515625 -0.5390625,0 -0.6679688,-0.62109375 -0.6679688,-0.6796875 0,-0.0117188 0.011719,-0.10546875 0.023437,-0.12890625 z m 0,0" style="fill:#121619;fill-opacity:1;fill-rule:nonzero;stroke:none" aria-label="p" transform="matrix(1.3333333,0,0,1.3333333,248.552,290.91733)" />
    <path id="path16" d="m 3.5036719,-1.7450781 c 0,-0.3632813 -0.035156,-0.9023438 -0.3515625,-1.359375 -0.28125,-0.3984375 -0.7617188,-0.5507813 -1.1484375,-0.5507813 -0.9726563,0 -1.72265628,0.8554688 -1.72265628,1.8632813 0,1.01953123 0.79687498,1.87499998 1.85156248,1.87499998 0.4570313,0 0.9375,-0.140625 1.3359375,-0.38671875 l -0.046875,-0.5625 c -0.4453125,0.31640625 -0.9492187,0.421875 -1.2890625,0.421875 -0.6914062,0 -1.21874998,-0.56250003 -1.24218748,-1.30078123 z M 3.0232031,-2.2255469 H 0.94898437 C 1.1364844,-2.8583594 1.6052344,-3.1278906 2.0036719,-3.1278906 c 0.3515625,0 0.8671875,0.1640625 1.0195312,0.9023437 z m 3.5039063,-0.796875 v -0.5976562 c -0.6679688,0.011719 -1.1601563,0.3398437 -1.4765625,0.7617187 V -3.5966406 H 4.4411719 V 0.00101563 H 5.1091406 V -1.6982031 c 0,-0.8554688 0.7148438,-1.3242188 1.4179688,-1.3242188 z m 2.8945312,0 v -0.5976562 c -0.6679687,0.011719 -1.1601562,0.3398437 -1.4765625,0.7617187 V -3.5966406 H 7.3357031 V 0.00101563 H 8.0036719 V -1.6982031 c 0,-0.8554688 0.7148437,-1.3242188 1.4179687,-1.3242188 z m 4.1103514,1.2773438 c 0,-1.0546875 -0.832031,-1.9101563 -1.875,-1.9101563 -1.03125,0 -1.8749998,0.8671875 -1.8749998,1.9101563 0,1.00781248 0.8437498,1.82812498 1.8749998,1.82812498 1.042969,0 1.875,-0.8203125 1.875,-1.82812498 z m -0.691406,-0.082031 c 0,0.90234378 -0.5625,1.35937503 -1.183594,1.35937503 -0.632812,0 -1.171875,-0.46875 -1.171875,-1.35937503 0,-0.9023437 0.585938,-1.3007812 1.171875,-1.3007812 0.597656,0 1.183594,0.4101562 1.183594,1.3007812 z m 3.46582,-1.1953125 v -0.5976562 c -0.667969,0.011719 -1.160156,0.3398437 -1.476562,0.7617187 v -0.7382812 h -0.609375 v 3.59765623 h 0.667968 V -1.6982031 c 0,-0.8554688 0.714844,-1.3242188 1.417969,-1.3242185 z m 7.019531,1.2421875 c 0,-0.9492187 -0.527343,-1.8398437 -1.3125,-1.8398437 -0.363281,0 -0.960937,0.1054687 -1.417968,0.46875 V -3.5380469 H 19.9275 v 5.0859375 h 0.691406 v -1.92187497 c 0.421875,0.38671875 0.878906,0.45703125 1.148438,0.45703125 0.84375,0 1.558593,-0.80859375 1.558593,-1.86328098 z m -0.691406,0 c 0,0.79687503 -0.597656,1.33593753 -1.21875,1.33593753 -0.117187,0 -0.316406,-0.0117188 -0.527344,-0.1875 -0.234375,-0.17578125 -0.269531,-0.3046875 -0.269531,-0.44531253 v -1.5703125 c 0.1875,-0.2226562 0.492188,-0.421875 0.878906,-0.421875 0.632813,0 1.136719,0.5976563 1.136719,1.2890625 z m 3.524414,-1.2421875 v -0.5976562 c -0.667968,0.011719 -1.160156,0.3398437 -1.476562,0.7617187 v -0.7382812 h -0.609375 v 3.59765623 h 0.667969 V -1.6982031 c 0,-0.8554688 0.714843,-1.3242188 1.417968,-1.3242185 z m 4.110352,1.2773438 c 0,-1.0546875 -0.832031,-1.9101563 -1.875,-1.9101563 -1.03125,0 -1.875,0.8671875 -1.875,1.9101563 0,1.00781248 0.84375,1.82812498 1.875,1.82812498 1.042969,0 1.875,-0.8203125 1.875,-1.82812498 z m -0.691406,-0.082031 c 0,0.90234378 -0.5625,1.35937503 -1.183594,1.35937503 -0.632813,0 -1.171875,-0.46875 -1.171875,-1.35937503 0,-0.9023437 0.585937,-1.3007812 1.171875,-1.3007812 0.597656,0 1.183594,0.4101562 1.183594,1.3007812 z m 5.018554,0.046875 c 0,-0.9609375 -0.550781,-1.8398437 -1.347656,-1.8398437 -0.503906,0 -0.984375,0.1640625 -1.382812,0.4570312 v -2.3671875 h -0.667969 v 5.53125003 h 0.691406 v -0.375 c 0.175781,0.15234375 0.5625,0.45703125 1.136719,0.45703125 0.867187,0 1.570312,-0.8203125 1.570312,-1.86328128 z m -0.691406,0 c 0,0.97265628 -0.65625,1.33593753 -1.21875,1.33593753 -0.292969,0 -0.574219,-0.140625 -0.796875,-0.4921875 V -2.5067969 c 0,-0.1289062 0,-0.2226562 0.28125,-0.4101562 0.117188,-0.070312 0.328125,-0.1757813 0.597656,-0.1757813 0.539063,0 1.136719,0.3632813 1.136719,1.3125006 z m 4.456055,1.78125003 V -2.2958594 c 0,-0.8085937 -0.621094,-1.359375 -1.40625,-1.359375 -0.503907,0 -0.878907,0.1054688 -1.324219,0.3398438 l 0.04687,0.5859375 c 0.257812,-0.1757813 0.644531,-0.421875 1.277344,-0.421875 0.351562,0 0.714843,0.2695312 0.714843,0.8671875 v 0.3164062 c -1.171875,0.035156 -2.34375,0.2929688 -2.34375,1.03125003 0,0.3984375 0.28125,1.01953125 0.972657,1.01953125 0.351562,0 0.972656,-0.0703125 1.394531,-0.38671875 v 0.3046875 z M 37.669687,-1.1357031 c 0,0.16406248 0,0.37499998 -0.269531,0.53906248 -0.257812,0.140625 -0.574219,0.15234375 -0.65625,0.15234375 -0.445312,0 -0.773437,-0.19921875 -0.773437,-0.50390625 0,-0.50390628 1.347656,-0.56249998 1.699218,-0.57421878 z m 5.367188,-0.6445313 c 0,-0.9609375 -0.550781,-1.8398437 -1.347656,-1.8398437 -0.503907,0 -0.984375,0.1640625 -1.382813,0.4570312 v -2.3671875 h -0.667969 v 5.53125003 h 0.691407 v -0.375 c 0.175781,0.15234375 0.5625,0.45703125 1.136718,0.45703125 0.867188,0 1.570313,-0.8203125 1.570313,-1.86328128 z m -0.691406,0 c 0,0.97265628 -0.65625,1.33593753 -1.21875,1.33593753 -0.292969,0 -0.574219,-0.140625 -0.796875,-0.4921875 V -2.5067969 c 0,-0.1289062 0,-0.2226562 0.28125,-0.4101562 0.117187,-0.070312 0.328125,-0.1757813 0.597656,-0.1757813 0.539062,0 1.136719,0.3632813 1.136719,1.3125 z m 2.323242,1.78125003 V -3.5380469 h -0.667969 v 3.53906253 z m 0.07031,-4.46484373 v -0.796875 h -0.796875 v 0.796875 z m 1.948243,4.46484373 V -5.5302344 h -0.667969 v 5.53125003 z m 2.015625,0 V -3.5380469 H 48.03492 v 3.53906253 z m 0.07031,-4.46484373 v -0.796875 h -0.796875 v 0.796875 z m 3.433594,4.25390623 -0.140625,-0.515625 c -0.257813,0.1875 -0.539063,0.2578125 -0.761719,0.2578125 -0.339844,0 -0.421875,-0.328125 -0.421875,-0.69140623 v -1.875 h 1.171875 V -3.5380469 H 50.882574 V -4.5458594 H 50.26148 v 1.0078125 h -0.714843 v 0.5039063 h 0.691406 v 2.015625 c 0,0.53906248 0.140625,1.10156248 0.714844,1.10156248 0.574218,0 1.007812,-0.1875 1.253906,-0.29296875 z m 3.770508,-3.32812503 h -0.644532 c -0.644531,1.5234375 -1.089843,2.55468753 -1.125,3.03515628 -0.01172,-0.22265625 -0.152343,-0.62109378 -0.292968,-0.99609378 -0.128907,-0.3164062 -0.257813,-0.6328125 -0.398438,-0.9492187 l -0.503906,-1.0898438 h -0.691406 l 1.652343,3.53906253 -0.304687,0.703125 c -0.164063,0.32812497 -0.28125,0.44531247 -0.492188,0.44531247 -0.03516,0 -0.328125,0 -0.667968,-0.140625 l 0.04687,0.5507813 c 0.07031,0.023437 0.363281,0.070312 0.609375,0.070312 0.316406,0 0.609375,-0.1171875 0.949218,-0.89062502 z m 0,0" style="fill:#121619;fill-opacity:1;fill-rule:nonzero;stroke:none" aria-label="errorprobability" transform="matrix(0,-1.3333333,1.3333333,0,77.053333,190.82)" />
    <path id="path17" d="M 190.58215,64.75847 H 309.7106 V 90.53311 H 190.58215 Z" style="fill:#ffffff;fill-opacity:1;fill-rule:nonzero;stroke:none" transform="matrix(1.3333333,0,0,-1.3333333,121.88133,261.01333)" />
    <path id="path18" d="m 0,0 h 8.50412 8.50414" style="fill:none;stroke:#0f62fe;stroke-width:0.79701;stroke-linecap:butt;stroke-linejoin:miter;stroke-miterlimit:10;stroke-dasharray:none;stroke-opacity:1" transform="matrix(1.3333333,0,0,-1.3333333,380.50667,151.74533)" />
    <g id="g18" aria-label="1−(1−p)&#10;9&#10;−9p(1−p)&#10;8" transform="matrix(1.3333333,0,0,1.3333333,409.324,156.28)">
      <path id="path19" d="m 2.5079766,-5.0732813 c 0,-0.2226562 -0.023437,-0.2226562 -0.234375,-0.2226562 -0.328125,0.3164062 -0.75,0.5039062 -1.51171879,0.5039062 V -4.5225 c 0.22265625,0 0.64453129,0 1.11328129,-0.2226563 v 4.0898438 c 0,0.29296875 -0.023437,0.3984375 -0.7851563,0.3984375 H 0.80875781 V 9.375e-4 C 1.1368828,-0.0225 1.8282891,-0.0225 2.1798516,-0.0225 c 0.3632812,0 1.0546875,0 1.3828125,0.0234375 V -0.256875 h -0.28125 c -0.75,0 -0.7734375,-0.10546875 -0.7734375,-0.3984375 z m 0,0" style="fill:#121619;fill-opacity:1;fill-rule:nonzero;stroke:none" />
      <path id="path20" d="M 11.021648,-2.4482813 H 6.7208672 v 0.515625 h 4.3007808 z m 0,0" style="fill:#121619;fill-opacity:1;fill-rule:nonzero;stroke:none" />
      <path id="path21" d="m 16.257,1.3603125 c -1.054687,-0.84375 -1.488281,-2.19140625 -1.488281,-3.5507813 0,-1.359375 0.433594,-2.7070312 1.488281,-3.5507812 l -0.363281,-0.3515625 c -1.148438,0.9257812 -1.617188,2.4140625 -1.617188,3.9023437 0,1.4882813 0.46875,2.97656255 1.617188,3.9023438 z m 0,0" style="fill:#121619;fill-opacity:1;fill-rule:nonzero;stroke:none" />
      <path id="path22" d="m 19.520672,-5.0732813 c 0,-0.2226562 -0.02344,-0.2226562 -0.234375,-0.2226562 -0.328125,0.3164062 -0.75,0.5039062 -1.511719,0.5039062 V -4.5225 c 0.222656,0 0.644531,0 1.113281,-0.2226563 v 4.0898438 c 0,0.29296875 -0.02344,0.3984375 -0.785156,0.3984375 h -0.28125 V 9.375e-4 C 18.149578,-0.0225 18.840984,-0.0225 19.192547,-0.0225 c 0.363281,0 1.054687,0 1.382812,0.0234375 V -0.256875 h -0.28125 c -0.75,0 -0.773437,-0.10546875 -0.773437,-0.3984375 z m 0,0" style="fill:#121619;fill-opacity:1;fill-rule:nonzero;stroke:none" />
      <path id="path23" d="m 28.034344,-2.4482813 h -4.300781 v 0.515625 h 4.300781 z m 0,0" style="fill:#121619;fill-opacity:1;fill-rule:nonzero;stroke:none" />
      <path id="path24" d="m 30.940594,0.961875 c -0.05859,0.2578125 -0.07031,0.3164062 -0.398438,0.3164062 -0.105468,0 -0.199218,0 -0.199218,0.1523438 0,0.082031 0.07031,0.1171875 0.105468,0.1171875 0.08203,0 0.117188,-0.023437 0.703125,-0.023437 0.574219,0 0.738282,0.023437 0.796875,0.023437 0.03516,0 0.152344,0 0.152344,-0.1523438 0,-0.1171875 -0.117187,-0.1171875 -0.210937,-0.1171875 -0.375,0 -0.375,-0.046875 -0.375,-0.1171875 0,-0.046875 0.140625,-0.6210937 0.375,-1.54687495 0.105468,0.17578125 0.351562,0.46875 0.785156,0.46875 0.984375,0 2.003906,-1.13671875 2.003906,-2.28515625 0,-0.796875 -0.515625,-1.3125 -1.148437,-1.3125 -0.480469,0 -0.867188,0.328125 -1.089844,0.5625 -0.175781,-0.5625 -0.703125,-0.5625 -0.785156,-0.5625 -0.292969,0 -0.492188,0.1875 -0.609375,0.4335937 -0.1875,0.3515625 -0.28125,0.7617188 -0.28125,0.7851563 0,0.070312 0.05859,0.1054687 0.128906,0.1054687 0.09375,0 0.105469,-0.035156 0.164062,-0.234375 C 31.16325,-2.835 31.303875,-3.2920313 31.632,-3.2920313 c 0.199219,0 0.257813,0.1875 0.257813,0.375 0,0.082031 -0.03516,0.2695313 -0.04687,0.3398438 z m 1.464844,-3.4101563 c 0.04687,-0.140625 0.04687,-0.1523437 0.164062,-0.3046875 0.304688,-0.3515625 0.644531,-0.5390625 0.9375,-0.5390625 0.398438,0 0.550781,0.3867188 0.550781,0.75 0,0.2929688 -0.175781,1.1484375 -0.421875,1.61718755 -0.199218,0.43359375 -0.585937,0.78515625 -0.960937,0.78515625 -0.539063,0 -0.667969,-0.62109375 -0.667969,-0.6796875 0,-0.0117188 0.01172,-0.10546875 0.02344,-0.12890625 z m 0,0" style="fill:#121619;fill-opacity:1;fill-rule:nonzero;stroke:none" />
      <path id="path25" d="m 35.903484,1.711875 c 1.160157,-0.92578125 1.628907,-2.4140625 1.628907,-3.9023438 0,-1.4882812 -0.46875,-2.9765625 -1.628907,-3.9023437 L 35.551922,-5.74125 c 1.042969,0.84375 1.464844,2.1914062 1.464844,3.5507812 0,1.35937505 -0.421875,2.7070313 -1.476563,3.5507813 0.117188,0.1171875 0.246094,0.234375 0.363281,0.3515625 z m 0,0" style="fill:#121619;fill-opacity:1;fill-rule:nonzero;stroke:none" />
      <path id="path26" d="m 40.963055,-6.0312891 c 0,0.4570313 -0.04687,0.9023438 -0.257813,1.265625 -0.152344,0.234375 -0.433594,0.5273438 -0.902344,0.5273438 -0.140625,0 -0.457031,-0.011719 -0.632812,-0.1640625 0.199219,-0.046875 0.246094,-0.1757813 0.246094,-0.2929688 0,-0.1523437 -0.105469,-0.28125 -0.28125,-0.28125 -0.175782,0 -0.292969,0.1054688 -0.292969,0.2929688 0,0.4804687 0.445312,0.6679687 0.972656,0.6679687 0.914063,0 1.746094,-0.84375 1.746094,-2.0859375 0,-1.453125 -0.667969,-2.015625 -1.429688,-2.015625 -0.773437,0 -1.464843,0.5507813 -1.464843,1.3359375 0,0.4453125 0.164062,0.703125 0.386718,0.9140625 0.257813,0.2578125 0.550782,0.4101563 0.984375,0.4101563 0.515625,0 0.796875,-0.3398438 0.925782,-0.5742188 z m -0.902344,0.3867188 c -0.363281,0 -0.527344,-0.1875 -0.621094,-0.3164063 -0.164062,-0.2226562 -0.175781,-0.4804687 -0.175781,-0.8203125 0,-0.3515625 0,-0.5859375 0.199219,-0.8320312 0.164062,-0.1992188 0.363281,-0.3046875 0.679687,-0.3046875 0.796875,0 0.796875,1.0195312 0.796875,1.2539062 0,0.5390625 -0.351562,1.0195313 -0.878906,1.0195313 z m 0,0" style="fill:#121619;fill-opacity:1;fill-rule:nonzero;stroke:none" />
      <path id="path27" d="m 49.227703,-2.4482813 h -4.300781 v 0.515625 h 4.300781 z m 0,0" style="fill:#121619;fill-opacity:1;fill-rule:nonzero;stroke:none" />
      <path id="path28" d="m 54.849773,-2.3545313 c 0,1.94531255 -0.925781,2.2851563 -1.394531,2.2851563 -0.164062,0 -0.574219,-0.0234375 -0.796875,-0.26953125 0.351563,-0.0351563 0.375,-0.29296875 0.375,-0.375 0,-0.24609375 -0.175781,-0.37500005 -0.375,-0.37500005 -0.140625,0 -0.375,0.082031 -0.375,0.3867188 0,0.5390625 0.445313,0.8671875 1.183594,0.8671875 1.089844,0 2.121094,-1.078125 2.121094,-2.7890625 0,-2.0742188 -0.914063,-2.671875 -1.734375,-2.671875 -0.9375,0 -1.78125,0.7265625 -1.78125,1.7695312 0,1.03125 0.773437,1.78125 1.675781,1.78125 0.5625,0 0.902344,-0.3632812 1.101562,-0.7617187 z m -1.078125,0.3867188 c -0.363281,0 -0.597656,-0.1640625 -0.773437,-0.4570313 -0.175781,-0.3046875 -0.175781,-0.6796875 -0.175781,-1.0898437 0,-0.46875 0,-0.8085938 0.210937,-1.125 0.199219,-0.2929688 0.457031,-0.4570313 0.832031,-0.4570313 0.527344,0 0.761719,0.5273438 0.785157,0.5742188 0.175781,0.3867187 0.175781,1.0078125 0.175781,1.171875 0,0.6210937 -0.339844,1.3828125 -1.054688,1.3828125 z m 0,0" style="fill:#121619;fill-opacity:1;fill-rule:nonzero;stroke:none" />
      <path id="path29" d="m 56.367352,0.961875 c -0.05859,0.2578125 -0.07031,0.3164062 -0.398438,0.3164062 -0.105469,0 -0.199219,0 -0.199219,0.1523438 0,0.082031 0.07031,0.1171875 0.105469,0.1171875 0.08203,0 0.117188,-0.023437 0.703125,-0.023437 0.574219,0 0.738281,0.023437 0.796875,0.023437 0.03516,0 0.152344,0 0.152344,-0.1523438 0,-0.1171875 -0.117188,-0.1171875 -0.210938,-0.1171875 -0.375,0 -0.375,-0.046875 -0.375,-0.1171875 0,-0.046875 0.140625,-0.6210937 0.375,-1.54687495 0.105469,0.17578125 0.351563,0.46875 0.785157,0.46875 0.984375,0 2.003906,-1.13671875 2.003906,-2.28515625 0,-0.796875 -0.515625,-1.3125 -1.148438,-1.3125 -0.480468,0 -0.867187,0.328125 -1.089843,0.5625 -0.175782,-0.5625 -0.703125,-0.5625 -0.785157,-0.5625 -0.292968,0 -0.492187,0.1875 -0.609375,0.4335937 -0.1875,0.3515625 -0.28125,0.7617188 -0.28125,0.7851563 0,0.070312 0.05859,0.1054687 0.128907,0.1054687 0.09375,0 0.105468,-0.035156 0.164062,-0.234375 0.105469,-0.4101562 0.246094,-0.8671875 0.574219,-0.8671875 0.199219,0 0.257812,0.1875 0.257812,0.375 0,0.082031 -0.03516,0.2695313 -0.04687,0.3398438 z m 1.464843,-3.4101563 c 0.04687,-0.140625 0.04687,-0.1523437 0.164063,-0.3046875 0.304687,-0.3515625 0.644531,-0.5390625 0.9375,-0.5390625 0.398437,0 0.550781,0.3867188 0.550781,0.75 0,0.2929688 -0.175781,1.1484375 -0.421875,1.61718755 -0.199219,0.43359375 -0.585937,0.78515625 -0.960937,0.78515625 -0.539063,0 -0.667969,-0.62109375 -0.667969,-0.6796875 0,-0.0117188 0.01172,-0.10546875 0.02344,-0.12890625 z m 0,0" style="fill:#121619;fill-opacity:1;fill-rule:nonzero;stroke:none" />
      <path id="path30" d="m 62.962078,1.3603125 c -1.054687,-0.84375 -1.488281,-2.19140625 -1.488281,-3.5507813 0,-1.359375 0.433594,-2.7070312 1.488281,-3.5507812 l -0.363281,-0.3515625 c -1.148438,0.9257812 -1.617188,2.4140625 -1.617188,3.9023437 0,1.4882813 0.46875,2.97656255 1.617188,3.9023438 z m 0,0" style="fill:#121619;fill-opacity:1;fill-rule:nonzero;stroke:none" />
      <path id="path31" d="m 66.22575,-5.0732813 c 0,-0.2226562 -0.02344,-0.2226562 -0.234375,-0.2226562 -0.328125,0.3164062 -0.75,0.5039062 -1.511719,0.5039062 V -4.5225 c 0.222657,0 0.644532,0 1.113282,-0.2226563 v 4.0898438 c 0,0.29296875 -0.02344,0.3984375 -0.785157,0.3984375 h -0.28125 V 9.375e-4 C 64.854656,-0.0225 65.546063,-0.0225 65.897625,-0.0225 c 0.363281,0 1.054688,0 1.382813,0.0234375 V -0.256875 h -0.28125 c -0.75,0 -0.773438,-0.10546875 -0.773438,-0.3984375 z m 0,0" style="fill:#121619;fill-opacity:1;fill-rule:nonzero;stroke:none" />
      <path id="path32" d="m 74.739422,-2.4482813 h -4.300781 v 0.515625 h 4.300781 z m 0,0" style="fill:#121619;fill-opacity:1;fill-rule:nonzero;stroke:none" />
      <path id="path33" d="m 77.642742,0.961875 c -0.05859,0.2578125 -0.07031,0.3164062 -0.398437,0.3164062 -0.105469,0 -0.199219,0 -0.199219,0.1523438 0,0.082031 0.07031,0.1171875 0.105469,0.1171875 0.08203,0 0.117187,-0.023437 0.703125,-0.023437 0.574218,0 0.738281,0.023437 0.796875,0.023437 0.03516,0 0.152343,0 0.152343,-0.1523438 0,-0.1171875 -0.117187,-0.1171875 -0.210937,-0.1171875 -0.375,0 -0.375,-0.046875 -0.375,-0.1171875 0,-0.046875 0.140625,-0.6210937 0.375,-1.54687495 0.105469,0.17578125 0.351562,0.46875 0.785156,0.46875 0.984375,0 2.003906,-1.13671875 2.003906,-2.28515625 0,-0.796875 -0.515625,-1.3125 -1.148437,-1.3125 -0.480469,0 -0.867188,0.328125 -1.089844,0.5625 -0.175781,-0.5625 -0.703125,-0.5625 -0.785156,-0.5625 -0.292969,0 -0.492188,0.1875 -0.609375,0.4335937 -0.1875,0.3515625 -0.28125,0.7617188 -0.28125,0.7851563 0,0.070312 0.05859,0.1054687 0.128906,0.1054687 0.09375,0 0.105469,-0.035156 0.164063,-0.234375 0.105468,-0.4101562 0.246093,-0.8671875 0.574218,-0.8671875 0.199219,0 0.257813,0.1875 0.257813,0.375 0,0.082031 -0.03516,0.2695313 -0.04687,0.3398438 z m 1.464844,-3.4101563 c 0.04687,-0.140625 0.04687,-0.1523437 0.164062,-0.3046875 0.304688,-0.3515625 0.644532,-0.5390625 0.9375,-0.5390625 0.398438,0 0.550782,0.3867188 0.550782,0.75 0,0.2929688 -0.175782,1.1484375 -0.421875,1.61718755 -0.199219,0.43359375 -0.585938,0.78515625 -0.960938,0.78515625 -0.539062,0 -0.667969,-0.62109375 -0.667969,-0.6796875 0,-0.0117188 0.01172,-0.10546875 0.02344,-0.12890625 z m 0,0" style="fill:#121619;fill-opacity:1;fill-rule:nonzero;stroke:none" />
      <path id="path34" d="m 82.608563,1.711875 c 1.160156,-0.92578125 1.628906,-2.4140625 1.628906,-3.9023438 0,-1.4882812 -0.46875,-2.9765625 -1.628906,-3.9023437 L 82.257,-5.74125 c 1.042969,0.84375 1.464844,2.1914062 1.464844,3.5507812 0,1.35937505 -0.421875,2.7070313 -1.476563,3.5507813 0.117188,0.1171875 0.246094,0.234375 0.363282,0.3515625 z m 0,0" style="fill:#121619;fill-opacity:1;fill-rule:nonzero;stroke:none" />
      <path id="path35" d="m 87.293133,-6.3008203 c 0.445312,-0.1992188 0.785156,-0.4921875 0.785156,-0.9257813 0,-0.5859375 -0.632812,-0.890625 -1.253906,-0.890625 -0.679688,0 -1.265625,0.4101563 -1.265625,1.0078125 0,0.375 0.246094,0.65625 0.503906,0.8085938 0.05859,0.035156 0.199219,0.1171875 0.257813,0.1523437 -0.386719,0.140625 -0.949219,0.4804688 -0.949219,1.078125 0,0.703125 0.75,1.0546875 1.441406,1.0546875 0.796875,0 1.453125,-0.4804687 1.453125,-1.1484375 0,-0.4101562 -0.246094,-0.65625 -0.339844,-0.7382812 -0.117187,-0.1171875 -0.410156,-0.28125 -0.632812,-0.3984375 z m -1.078125,-0.5976563 c -0.01172,0 -0.316406,-0.1640625 -0.316406,-0.4453125 0,-0.3867187 0.46875,-0.5742187 0.914062,-0.5742187 0.46875,0 0.925781,0.2578125 0.925781,0.703125 0,0.4570312 -0.492187,0.703125 -0.667968,0.7851562 z m 0.351562,0.8671875 c 0.05859,0.035156 0.703125,0.3984375 0.867188,0.4804688 0.117187,0.082031 0.445312,0.2578125 0.445312,0.5976562 0,0.46875 -0.550781,0.7148438 -1.054687,0.7148438 -0.550781,0 -1.066406,-0.3164063 -1.066406,-0.8320313 0,-0.5039062 0.480468,-0.8320312 0.808593,-0.9609375 z m 0,0" style="fill:#121619;fill-opacity:1;fill-rule:nonzero;stroke:none" />
    </g>
    <path id="path36" d="m 0,0 h 8.50412 8.50414" style="fill:none;stroke:#8a3ffc;stroke-width:0.79701;stroke-linecap:butt;stroke-linejoin:miter;stroke-miterlimit:10;stroke-dasharray:none;stroke-opacity:1" transform="matrix(1.3333333,0,0,-1.3333333,380.50667,166.27067)" />
    <path id="path37" d="M 0.41032031,0.96122656 C 0.35172656,1.2190391 0.34000781,1.2776328 0.01188281,1.2776328 c -0.10546875,0 -0.19921875,0 -0.19921875,0.1523438 0,0.082031 0.0703125,0.1171875 0.10546875,0.1171875 0.0820312525,0 0.1171875,-0.023437 0.703125,-0.023437 0.57421879,0 0.73828129,0.023437 0.79687499,0.023437 0.035156,0 0.1523438,0 0.1523438,-0.1523438 0,-0.1171875 -0.1171875,-0.1171875 -0.2109375,-0.1171875 -0.37500004,0 -0.37500004,-0.046875 -0.37500004,-0.1171875 0,-0.046875 0.14062504,-0.62109374 0.37500004,-1.54687499 0.1054687,0.17578125 0.3515625,0.46875 0.7851562,0.46875 0.984375,0 2.0039063,-1.13671871 2.0039063,-2.28515621 0,-0.796875 -0.515625,-1.3125 -1.1484375,-1.3125 -0.4804688,0 -0.8671875,0.328125 -1.0898438,0.5625 -0.1757812,-0.5625 -0.703125,-0.5625 -0.7851562,-0.5625 -0.29296879,0 -0.49218754,0.1875 -0.60937504,0.4335937 -0.1875,0.3515625 -0.28125,0.7617188 -0.28125,0.7851563 0,0.070312 0.0585938,0.1054687 0.12890625,0.1054687 0.09375,0 0.10546875,-0.035156 0.1640625,-0.234375 0.10546875,-0.4101562 0.24609375,-0.8671875 0.57421879,-0.8671875 0.1992187,0 0.2578125,0.1875 0.2578125,0.375 0,0.082031 -0.035156,0.2695313 -0.046875,0.3398438 z M 1.8751641,-2.4489297 c 0.046875,-0.140625 0.046875,-0.1523437 0.1640625,-0.3046875 0.3046875,-0.3515625 0.6445312,-0.5390625 0.9375,-0.5390625 0.3984375,0 0.5507812,0.3867188 0.5507812,0.75 0,0.2929688 -0.1757812,1.1484375 -0.421875,1.61718751 -0.1992187,0.43359375 -0.5859375,0.78515625 -0.9609375,0.78515625 -0.5390625,0 -0.6679687,-0.62109375 -0.6679687,-0.6796875 0,-0.0117188 0.011719,-0.10546875 0.023437,-0.12890625 z m 0,0" style="fill:#121619;fill-opacity:1;fill-rule:nonzero;stroke:none" aria-label="p" transform="matrix(1.3333333,0,0,1.3333333,409.324,167.76133)" />
  </g>
</svg>