<?xml version='1.0' encoding='utf-8'?>
<svg xmlns="http://www.w3.org/2000/svg" xmlns:ns1="http://sodipodi.sourceforge.net/DTD/sodipodi-0.dtd" xmlns:ns2="http://www.inkscape.org/namespaces/inkscape" version="1.1" id="svg1" width="100%" height="auto" viewBox="-20.0 -20.0 477.32812 136.38172" ns1:docname="svg_fix_XXXXXX.svg">
  <rect id="path1" x="-20.0" y="-20.0" width="477.32812" height="136.38172" fill="white" /><ns1:namedview id="namedview1" pagecolor="#ffffff" bordercolor="#000000" borderopacity="0.25" ns2:showpageshadow="2" ns2:pageopacity="0.0" ns2:pagecheckerboard="0" ns2:deskcolor="#d1d1d1" />
  <defs id="defs1" />
  <g id="g1" transform="translate(-80.593749,-35.769532)">
    <path id="path2" d="M -68.0113,19.84267 H 39.66449" style="fill:none;stroke:#121619;stroke-width:0.3985;stroke-linecap:butt;stroke-linejoin:miter;stroke-miterlimit:10;stroke-dasharray:none;stroke-opacity:1" transform="matrix(1.9333333,0,0,-1.9333333,301.54667,81.846733)" />
    <path id="path3" d="M -39.66449,0 H 39.66449" style="fill:none;stroke:#121619;stroke-width:0.3985;stroke-linecap:butt;stroke-linejoin:miter;stroke-miterlimit:10;stroke-dasharray:none;stroke-opacity:1" transform="matrix(1.9333333,0,0,-1.9333333,301.54667,81.846733)" />
    <path id="path4" d="M -39.66449,-19.84267 H 39.66449" style="fill:none;stroke:#121619;stroke-width:0.3985;stroke-linecap:butt;stroke-linejoin:miter;stroke-miterlimit:10;stroke-dasharray:none;stroke-opacity:1" transform="matrix(1.9333333,0,0,-1.9333333,301.54667,81.846733)" />
    <path id="path5" d="m -11.6827,19.84267 c 0,1.37558 -1.1151,2.49069 -2.49069,2.49069 -1.37558,0 -2.49069,-1.11511 -2.49069,-2.49069 0,-1.37558 1.11511,-2.4907 2.49069,-2.4907 1.37559,0 2.49069,1.11512 2.49069,2.4907 z" style="fill:#78a9ff;fill-opacity:1;fill-rule:nonzero;stroke:none" transform="matrix(1.9333333,0,0,-1.9333333,301.54667,81.846733)" />
    <path id="path6" d="m 16.66408,19.84267 c 0,1.37558 -1.11511,2.49069 -2.49069,2.49069 -1.37559,0 -2.49069,-1.11511 -2.49069,-2.49069 0,-1.37558 1.1151,-2.4907 2.49069,-2.4907 1.37558,0 2.49069,1.11512 2.49069,2.4907 z" style="fill:#78a9ff;fill-opacity:1;fill-rule:nonzero;stroke:none" transform="matrix(1.9333333,0,0,-1.9333333,301.54667,81.846733)" />
    <path id="path7" d="m -8.19572,0 c 0,3.3014 -2.67626,5.97766 -5.97767,5.97766 -3.30142,0 -5.97766,-2.67626 -5.97766,-5.97766 0,-3.3014 2.67624,-5.97766 5.97766,-5.97766 3.30141,0 5.97767,2.67626 5.97767,5.97766 z" style="fill:#78a9ff;fill-opacity:1;fill-rule:nonzero;stroke:#78a9ff;stroke-width:0.3985;stroke-linecap:butt;stroke-linejoin:miter;stroke-miterlimit:10;stroke-dasharray:none;stroke-opacity:1" transform="matrix(1.9333333,0,0,-1.9333333,301.54667,81.846733)" />
    <path id="path8" d="m 4.7038136,-7.8160787 v 3.4105604 H 1.2932532 v 0.9213362 h 3.4105604 v 3.41056033 H 5.6251498 V -3.4841821 H 9.0357101 V -4.4055183 H 5.6251498 v -3.4105604 z m 0,0" style="fill:#ffffff;fill-opacity:1;fill-rule:nonzero;stroke:none" aria-label="+" transform="matrix(1.9333333,0,0,1.9333333,264.15987,89.411867)" />
    <path id="path9" d="m 20.15105,-19.84267 c 0,3.30143 -2.67624,5.97767 -5.97766,5.97767 -3.30141,0 -5.97767,-2.67624 -5.97767,-5.97767 0,-3.3014 2.67626,-5.97766 5.97767,-5.97766 3.30142,0 5.97766,2.67626 5.97766,5.97766 z" style="fill:#78a9ff;fill-opacity:1;fill-rule:nonzero;stroke:#78a9ff;stroke-width:0.3985;stroke-linecap:butt;stroke-linejoin:miter;stroke-miterlimit:10;stroke-dasharray:none;stroke-opacity:1" transform="matrix(1.9333333,0,0,-1.9333333,301.54667,81.846733)" />
    <path id="path10" d="m 4.7040657,-7.8160022 v 3.4105604 H 1.2935054 v 0.9213362 h 3.4105603 v 3.41056034 H 5.6254019 V -3.4841056 H 9.0359623 V -4.4054418 H 5.6254019 v -3.4105604 z m 0,0" style="fill:#ffffff;fill-opacity:1;fill-rule:nonzero;stroke:none" aria-label="+" transform="matrix(1.9333333,0,0,1.9333333,318.96407,127.775)" />
    <path id="path11" d="M -14.17339,19.84267 V 6.17691" style="fill:none;stroke:#78a9ff;stroke-width:0.79701;stroke-linecap:butt;stroke-linejoin:miter;stroke-miterlimit:10;stroke-dasharray:none;stroke-opacity:1" transform="matrix(1.9333333,0,0,-1.9333333,301.54667,81.846733)" />
    <path id="path12" d="M 14.17339,19.84267 V -13.66576" style="fill:none;stroke:#78a9ff;stroke-width:0.79701;stroke-linecap:butt;stroke-linejoin:miter;stroke-miterlimit:10;stroke-dasharray:none;stroke-opacity:1" transform="matrix(1.9333333,0,0,-1.9333333,301.54667,81.846733)" />
    <g id="g12" aria-label="α∣0⟩+β∣1⟩" transform="matrix(1.9333333,0,0,1.9333333,79.920933,47.721467)">
      <path id="path13" d="m 4.065681,-1.1146864 c 0.7435345,-0.8162716 1.0021552,-1.8507543 1.0021552,-1.9154095 0,-0.072737 -0.048491,-0.096983 -0.1212284,-0.096983 -0.1050647,0 -0.1131466,0.024246 -0.1535561,0.1939656 -0.2262931,0.8162715 -0.703125,1.4385775 -0.7273707,1.4385775 -0.016164,0 -0.016164,-0.2020474 -0.016164,-0.3313577 -0.016164,-1.3981681 -0.9213362,-1.6891164 -1.4709051,-1.6891164 -1.1233837,0 -2.23060348,1.091056 -2.23060348,2.2144397 0,0.79202582 0.54956897,1.38200427 1.39816808,1.38200427 0.5576509,0 1.1476293,-0.20204742 1.7780173,-0.67079742 0.1778017,0.63038793 0.6384698,0.67079742 0.775862,0.67079742 0.4606681,0 0.7192888,-0.40409483 0.7192888,-0.55765086 0,-0.0969828 -0.096983,-0.0969828 -0.1212284,-0.0969828 -0.080819,0 -0.096983,0.0242457 -0.1212285,0.080819 -0.1293103,0.33135776 -0.4040948,0.34752155 -0.4445043,0.34752155 -0.1050646,0 -0.234375,0 -0.2667024,-0.96982736 z m -0.5980603,0.25862067 c -0.5657328,0.51724138 -1.2365302,0.71120689 -1.6971983,0.71120689 -0.4121767,0 -0.77586206,-0.234375 -0.77586206,-0.87284486 0,-0.2828663 0.12931036,-1.0991379 0.50107756,-1.6325431 0.3232759,-0.4525862 0.7516164,-0.6384698 1.0748923,-0.6384698 0.4445043,0 0.6869612,0.3071121 0.7920258,0.7920259 0.1212285,0.541487 0.056573,1.1799569 0.1050647,1.64062497 z m 0,0" style="fill:#121619;fill-opacity:1;fill-rule:nonzero;stroke:none" />
      <path id="path14" d="m 6.6357241,-6.0931347 v 7.8071121 h 0.5091595 v -7.8071121 z m 0,0" style="fill:#121619;fill-opacity:1;fill-rule:nonzero;stroke:none" />
      <path id="path15" d="m 12.236478,-2.5451821 c 0,-0.8485991 -0.0889,-1.3658405 -0.347521,-1.875 -0.355604,-0.703125 -0.994073,-0.8809267 -1.438578,-0.8809267 -1.0021549,0 -1.3658402,0.7516163 -1.4789868,0.9779094 -0.2909482,0.5818966 -0.307112,1.3658406 -0.307112,1.7780173 0,0.5334052 0.024246,1.3335129 0.4121767,1.97198275 0.3636853,0.58997844 0.9536641,0.74353448 1.3739221,0.74353448 0.387931,0 1.066811,-0.12122845 1.470905,-0.91325431 0.290949,-0.57381462 0.315194,-1.27693962 0.315194,-1.80226292 z m -1.786099,2.48922413 c -0.266702,0 -0.8162712,-0.12931035 -0.9859911,-0.96174573 -0.088901,-0.4525862 -0.088901,-1.2042025 -0.088901,-1.6163793 0,-0.5495689 0,-1.1072198 0.088901,-1.5517241 0.1697199,-0.8081897 0.7920261,-0.8890086 0.9859911,-0.8890086 0.274785,0 0.824354,0.1373922 0.985992,0.856681 0.0889,0.4445043 0.0889,1.0425647 0.0889,1.5840517 0,0.46875 0,1.1880388 -0.0889,1.6325431 -0.16972,0.83243537 -0.719289,0.94558193 -0.985992,0.94558193 z m 0,0" style="fill:#121619;fill-opacity:1;fill-rule:nonzero;stroke:none" />
      <path id="path16" d="m 13.788203,1.8028782 1.430495,-3.9924569 -1.430495,-3.9924569 -0.476832,0.1778018 1.430495,3.8146551 -1.430495,3.8146552 z m 0,0" style="fill:#121619;fill-opacity:1;fill-rule:nonzero;stroke:none" />
      <path id="path17" d="m 20.334539,-4.3393631 v 1.8911637 h -1.891164 v 0.5091595 h 1.891164 v 1.89924572 H 20.85178 V -1.9390399 h 1.891164 V -2.4481994 H 20.85178 v -1.8911637 z m 0,0" style="fill:#121619;fill-opacity:1;fill-rule:nonzero;stroke:none" />
      <path id="path18" d="m 30.018671,-4.5333287 c 0,-0.7273707 -0.589978,-1.0829741 -1.252694,-1.0829741 -1.0264,0 -1.794181,1.1637931 -2.020474,2.0366379 l -1.252694,5.0269397 c -0.01616,0.056573 0.04041,0.096983 0.0889,0.096983 0.06465,0 0.12931,0 0.145474,-0.056573 l 0.541487,-2.13362072 c 0.185884,0.42834051 0.557651,0.71928879 1.131466,0.71928879 1.099138,0 2.30334,-0.78394396 2.30334,-2.05280177 0,-0.5253232 -0.202047,-0.8728448 -0.59806,-1.1961206 0.04849,-0.00808 0.193966,-0.1131466 0.234375,-0.1454742 0.396013,-0.2747845 0.678879,-0.7273707 0.678879,-1.2122845 z M 28.442702,-3.17557 c -0.137393,0.024246 -0.282867,0.040409 -0.436423,0.040409 -0.0889,0 -0.177802,0 -0.258621,-0.032328 0.145475,-0.040409 0.307112,-0.040409 0.460669,-0.040409 0.08082,0 0.153556,0.00808 0.234375,0.032328 z m 1.06681,-1.5113147 c 0,0.4040948 -0.16972,0.8728448 -0.452586,1.1476293 -0.04041,0.040409 -0.202048,0.1939655 -0.250539,0.2020474 -0.226293,-0.040409 -0.404095,-0.096983 -0.630388,-0.096983 -0.210129,0 -0.711207,-0.016164 -0.711207,0.2990301 0,0.234375 0.452586,0.2182112 0.614224,0.2182112 0.250539,0 0.476832,-0.024246 0.711207,-0.1131465 0.234375,0.1939655 0.355604,0.4525862 0.355604,0.8485991 0,0.46875 -0.161638,0.9940733 -0.387932,1.31734917 -0.29903,0.42025862 -0.792025,0.7112069 -1.390086,0.7112069 -0.525323,0 -0.9375,-0.40409483 -0.9375,-0.96174567 0,-0.1050647 0.0081,-0.2101293 0.03233,-0.2909483 l 0.525323,-2.1174569 c 0.177802,-0.703125 0.848599,-1.875 1.74569,-1.875 0.404095,0 0.775862,0.2020474 0.775862,0.7112069 z m 0,0" style="fill:#121619;fill-opacity:1;fill-rule:nonzero;stroke:none" />
      <path id="path19" d="m 31.592621,-6.0931347 v 7.8071121 h 0.509159 v -7.8071121 z m 0,0" style="fill:#121619;fill-opacity:1;fill-rule:nonzero;stroke:none" />
      <path id="path20" d="m 35.803289,-5.0748157 c 0,-0.2182112 -0.01616,-0.2262931 -0.234375,-0.2262931 -0.323276,0.3232758 -0.751617,0.5091594 -1.503233,0.5091594 v 0.2667026 c 0.210129,0 0.646552,0 1.10722,-0.2182112 v 4.08943968 c 0,0.29903017 -0.02425,0.38793104 -0.783944,0.38793104 H 34.114172 V 6.1530172e-4 C 34.437448,-0.02363039 35.124409,-0.02363039 35.480013,-0.02363039 c 0.363685,0 1.050646,0 1.382004,0.0242456917 V -0.26608728 h -0.282866 c -0.751617,0 -0.775862,-0.0889009 -0.775862,-0.38793104 z m 0,0" style="fill:#121619;fill-opacity:1;fill-rule:nonzero;stroke:none" />
      <path id="path21" d="m 38.743079,1.8028782 1.430495,-3.9924569 -1.430495,-3.9924569 -0.476832,0.1778018 1.430495,3.8146551 -1.430495,3.8146552 z m 0,0" style="fill:#121619;fill-opacity:1;fill-rule:nonzero;stroke:none" />
    </g>
    <g id="g21" aria-label="∣0⟩" transform="matrix(1.9333333,0,0,1.9333333,193.49073,86.0846)">
      <path id="path22" d="m 1.1968728,-6.0930582 v 7.8071121 h 0.5091595 v -7.8071121 z m 0,0" style="fill:#121619;fill-opacity:1;fill-rule:nonzero;stroke:none" />
      <path id="path23" d="m 6.7976272,-2.5451056 c 0,-0.8485991 -0.088901,-1.3658405 -0.3475216,-1.875 -0.3556034,-0.703125 -0.9940733,-0.8809267 -1.4385776,-0.8809267 -1.0021552,0 -1.3658405,0.7516164 -1.4789871,0.9779095 -0.2909482,0.5818965 -0.307112,1.3658405 -0.307112,1.7780172 0,0.5334052 0.024246,1.3335129 0.4121767,1.97198276 0.3636853,0.58997844 0.9536638,0.74353448 1.3739224,0.74353448 0.3879311,0 1.0668104,-0.12122845 1.4709052,-0.91325431 0.2909483,-0.57381463 0.315194,-1.27693963 0.315194,-1.80226293 z M 5.011528,-0.05588147 c -0.2667026,0 -0.8162715,-0.12931034 -0.9859914,-0.96174573 -0.088901,-0.4525862 -0.088901,-1.2042025 -0.088901,-1.6163793 0,-0.5495689 0,-1.1072198 0.088901,-1.5517241 0.1697199,-0.8081897 0.7920259,-0.8890086 0.9859914,-0.8890086 0.2747845,0 0.8243535,0.1373922 0.9859914,0.856681 0.088901,0.4445043 0.088901,1.0425647 0.088901,1.5840517 0,0.46875 0,1.1880388 -0.088901,1.6325431 -0.1697198,0.83243538 -0.7192888,0.94558193 -0.9859914,0.94558193 z m 0,0" style="fill:#121619;fill-opacity:1;fill-rule:nonzero;stroke:none" />
      <path id="path24" d="M 8.3473308,1.8029547 9.7778265,-2.1895022 8.3473308,-6.1819591 7.8704989,-6.0041573 9.3009946,-2.1895022 7.8704989,1.625153 Z m 0,0" style="fill:#121619;fill-opacity:1;fill-rule:nonzero;stroke:none" />
    </g>
    <g id="g24" aria-label="∣0⟩" transform="matrix(1.9333333,0,0,1.9333333,193.49073,124.4458)">
      <path id="path25" d="m 1.1968728,-6.0940022 v 7.8071121 h 0.5091595 v -7.8071121 z m 0,0" style="fill:#121619;fill-opacity:1;fill-rule:nonzero;stroke:none" />
      <path id="path26" d="m 6.7976272,-2.5460496 c 0,-0.8485991 -0.088901,-1.3658405 -0.3475216,-1.875 -0.3556034,-0.703125 -0.9940733,-0.8809267 -1.4385776,-0.8809267 -1.0021552,0 -1.3658405,0.7516164 -1.4789871,0.9779095 -0.2909482,0.5818965 -0.307112,1.3658405 -0.307112,1.7780172 0,0.5334052 0.024246,1.333513 0.4121767,1.97198279 0.3636853,0.58997845 0.9536638,0.74353448 1.3739224,0.74353448 0.3879311,0 1.0668104,-0.12122845 1.4709052,-0.91325431 0.2909483,-0.57381466 0.315194,-1.27693966 0.315194,-1.80226296 z M 5.011528,-0.05682543 c -0.2667026,0 -0.8162715,-0.12931035 -0.9859914,-0.96174567 -0.088901,-0.4525862 -0.088901,-1.2042026 -0.088901,-1.6163793 0,-0.549569 0,-1.1072199 0.088901,-1.5517242 0.1697199,-0.8081896 0.7920259,-0.8890086 0.9859914,-0.8890086 0.2747845,0 0.8243535,0.1373923 0.9859914,0.856681 0.088901,0.4445044 0.088901,1.0425647 0.088901,1.5840518 0,0.46875 0,1.1880388 -0.088901,1.6325431 -0.1697198,0.83243532 -0.7192888,0.94558187 -0.9859914,0.94558187 z m 0,0" style="fill:#121619;fill-opacity:1;fill-rule:nonzero;stroke:none" />
      <path id="path27" d="M 8.3473308,1.8020108 9.7778265,-2.1904461 8.3473308,-6.182903 7.8704989,-6.0051013 9.3009946,-2.1904461 7.8704989,1.6242091 Z m 0,0" style="fill:#121619;fill-opacity:1;fill-rule:nonzero;stroke:none" />
    </g>
    <g id="g27" aria-label="⎫&#10;⎪&#10;⎪&#10;⎪&#10;⎪&#10;⎪&#10;⎪&#10;⎪&#10;⎬&#10;⎪&#10;⎪&#10;⎪&#10;⎪&#10;⎪&#10;⎪&#10;⎪&#10;⎭&#10;α∣000⟩+β∣111⟩" transform="matrix(1.9333333,0,0,1.9333333,391.58587,45.532933)">
      <path id="path28" d="m 0.71932543,-4.5348147 v 0.4202587 c 0.71928877,0 1.36584047,0.4849138 1.36584047,1.171875 V 0.40322414 H 2.5943254 V -2.942681 c 0,-0.9375 -0.8890086,-1.5921337 -1.87499997,-1.5921337 z M 2.0851659,-0.18069289 V 2.6722166 h 0.5091595 v -2.85290949 z m 0,2.34172949 V 5.0139461 H 2.5943254 V 2.1610366 Z m 0,2.34375 V 7.3576961 H 2.5943254 V 4.5047866 Z m 0,2.34375 V 9.7014461 H 2.5943254 V 6.8485366 Z m 0,2.34375 V 12.045196 H 2.5943254 V 9.1922866 Z m 0,2.3417294 v 2.85291 h 0.5091595 v -2.85291 z m 0,2.34375 v 2.85291 h 0.5091595 v -2.85291 z m 0,7.538389 h 0.5091595 v -1.260776 c 0,-0.630388 0.6142242,-1.074892 1.2931035,-1.10722 h 0.088901 v -0.460668 c -0.7192888,0 -1.3820043,-0.444504 -1.3820043,-1.115301 V 16.219496 H 2.0851659 v 1.260776 c 0,0.59806 0.3717673,1.06681 0.8970906,1.341594 -0.5253233,0.258621 -0.8970906,0.751617 -0.8970906,1.341595 z m 0,-0.583917 v 2.85291 h 0.5091595 v -2.85291 z m 0,2.34375 v 2.85291 h 0.5091595 v -2.85291 z m 0,2.34173 v 2.852909 h 0.5091595 v -2.852909 z m 0,2.34375 v 2.852909 h 0.5091595 v -2.852909 z m 0,2.34375 v 2.852909 h 0.5091595 v -2.852909 z m 0,2.34375 v 2.852909 h 0.5091595 v -2.852909 z m 0,2.341729 v 2.85291 h 0.5091595 v -2.85291 z m -1.36584047,6.86153 v 0.428341 c 0.98599137,0 1.87499997,-0.662716 1.87499997,-1.600216 V 37.234447 H 2.0851659 v 3.353987 c 0,0.67888 -0.6465517,1.163793 -1.36584047,1.163793 z m 0,0" style="fill:#121619;fill-opacity:1;fill-rule:nonzero;stroke:none" />
      <path id="path29" d="m 12.302704,19.86039 c 0.743534,-0.816271 1.002155,-1.850754 1.002155,-1.915409 0,-0.07274 -0.04849,-0.09698 -0.121229,-0.09698 -0.105064,0 -0.113146,0.02425 -0.153556,0.193965 -0.226293,0.816272 -0.703125,1.438578 -0.72737,1.438578 -0.01616,0 -0.01616,-0.202047 -0.01616,-0.331358 -0.01616,-1.398168 -0.921336,-1.689116 -1.470905,-1.689116 -1.1233839,0 -2.2306038,1.091056 -2.2306038,2.214439 0,0.792026 0.549569,1.382005 1.3981682,1.382005 0.5576506,0 1.1476296,-0.202048 1.7780176,-0.670798 0.177801,0.630388 0.638469,0.670798 0.775862,0.670798 0.460668,0 0.719288,-0.404095 0.719288,-0.557651 0,-0.09698 -0.09698,-0.09698 -0.121228,-0.09698 -0.08082,0 -0.09698,0.02425 -0.121228,0.08082 -0.129311,0.331358 -0.404095,0.347522 -0.444505,0.347522 -0.105064,0 -0.234375,0 -0.266702,-0.969828 z m -0.598061,0.258621 c -0.565732,0.517241 -1.23653,0.711207 -1.697198,0.711207 -0.4121767,0 -0.775862,-0.234375 -0.775862,-0.872845 0,-0.282867 0.1293103,-1.099138 0.5010776,-1.632543 0.3232754,-0.452586 0.7516164,-0.63847 1.0748924,-0.63847 0.444504,0 0.686961,0.307112 0.792026,0.792026 0.121228,0.541487 0.05657,1.179957 0.105064,1.640625 z m 0,0" style="fill:#121619;fill-opacity:1;fill-rule:nonzero;stroke:none" />
      <path id="path30" d="m 14.872747,14.881942 v 7.807112 h 0.509159 v -7.807112 z m 0,0" style="fill:#121619;fill-opacity:1;fill-rule:nonzero;stroke:none" />
      <path id="path31" d="m 20.471481,18.429894 c 0,-0.848599 -0.0889,-1.36584 -0.347522,-1.875 -0.355603,-0.703125 -0.994073,-0.880926 -1.438578,-0.880926 -1.002155,0 -1.36584,0.751616 -1.478987,0.977909 -0.290948,0.581897 -0.307112,1.365841 -0.307112,1.778017 0,0.533406 0.02425,1.333513 0.412177,1.971983 0.363685,0.589979 0.953664,0.743535 1.373922,0.743535 0.387931,0 1.066811,-0.121229 1.470906,-0.913255 0.290948,-0.573814 0.315194,-1.276939 0.315194,-1.802263 z m -1.7861,2.489225 c -0.266702,0 -0.816271,-0.129311 -0.985991,-0.961746 -0.0889,-0.452586 -0.0889,-1.204203 -0.0889,-1.616379 0,-0.549569 0,-1.10722 0.0889,-1.551725 0.16972,-0.808189 0.792026,-0.889008 0.985991,-0.889008 0.274785,0 0.824354,0.137392 0.985992,0.856681 0.0889,0.444504 0.0889,1.042564 0.0889,1.584052 0,0.46875 0,1.188038 -0.0889,1.632543 -0.16972,0.832435 -0.719289,0.945582 -0.985992,0.945582 z m 6.018993,-2.489225 c 0,-0.848599 -0.0889,-1.36584 -0.347522,-1.875 -0.355603,-0.703125 -0.994073,-0.880926 -1.438577,-0.880926 -1.002155,0 -1.365841,0.751616 -1.478987,0.977909 -0.290949,0.581897 -0.307112,1.365841 -0.307112,1.778017 0,0.533406 0.02425,1.333513 0.412176,1.971983 0.363686,0.589979 0.953664,0.743535 1.373923,0.743535 0.387931,0 1.06681,-0.121229 1.470905,-0.913255 0.290948,-0.573814 0.315194,-1.276939 0.315194,-1.802263 z m -1.786099,2.489225 c -0.266703,0 -0.816272,-0.129311 -0.985992,-0.961746 -0.0889,-0.452586 -0.0889,-1.204203 -0.0889,-1.616379 0,-0.549569 0,-1.10722 0.0889,-1.551725 0.16972,-0.808189 0.792026,-0.889008 0.985992,-0.889008 0.274784,0 0.824353,0.137392 0.985991,0.856681 0.0889,0.444504 0.0889,1.042564 0.0889,1.584052 0,0.46875 0,1.188038 -0.0889,1.632543 -0.16972,0.832435 -0.719289,0.945582 -0.985991,0.945582 z m 6.018992,-2.489225 c 0,-0.848599 -0.0889,-1.36584 -0.347521,-1.875 -0.355604,-0.703125 -0.994074,-0.880926 -1.438578,-0.880926 -1.002155,0 -1.36584,0.751616 -1.478987,0.977909 -0.290948,0.581897 -0.307112,1.365841 -0.307112,1.778017 0,0.533406 0.02425,1.333513 0.412177,1.971983 0.363685,0.589979 0.953663,0.743535 1.373922,0.743535 0.387931,0 1.06681,-0.121229 1.470905,-0.913255 0.290949,-0.573814 0.315194,-1.276939 0.315194,-1.802263 z m -1.786099,2.489225 c -0.266702,0 -0.816271,-0.129311 -0.985991,-0.961746 -0.0889,-0.452586 -0.0889,-1.204203 -0.0889,-1.616379 0,-0.549569 0,-1.10722 0.0889,-1.551725 0.16972,-0.808189 0.792026,-0.889008 0.985991,-0.889008 0.274785,0 0.824354,0.137392 0.985991,0.856681 0.0889,0.444504 0.0889,1.042564 0.0889,1.584052 0,0.46875 0,1.188038 -0.0889,1.632543 -0.169719,0.832435 -0.719288,0.945582 -0.985991,0.945582 z m 0,0" style="fill:#121619;fill-opacity:1;fill-rule:nonzero;stroke:none" />
      <path id="path32" d="m 30.491012,22.777955 1.430496,-3.992457 -1.430496,-3.992457 -0.476832,0.177802 1.430496,3.814655 -1.430496,3.814655 z m 0,0" style="fill:#121619;fill-opacity:1;fill-rule:nonzero;stroke:none" />
      <path id="path33" d="m 37.041389,16.635713 v 1.891164 h -1.891164 v 0.50916 h 1.891164 v 1.899245 h 0.517241 v -1.899245 h 1.891164 v -0.50916 H 37.55863 v -1.891164 z m 0,0" style="fill:#121619;fill-opacity:1;fill-rule:nonzero;stroke:none" />
      <path id="path34" d="m 46.723501,16.441748 c 0,-0.727371 -0.589978,-1.082974 -1.252694,-1.082974 -1.026401,0 -1.794181,1.163793 -2.020474,2.036638 l -1.252694,5.026939 c -0.01616,0.05657 0.04041,0.09698 0.0889,0.09698 0.06465,0 0.12931,0 0.145474,-0.05657 L 42.9735,20.32914 c 0.185884,0.428341 0.557651,0.719289 1.131466,0.719289 1.099138,0 2.30334,-0.783944 2.30334,-2.052802 0,-0.525323 -0.202047,-0.872845 -0.59806,-1.196121 0.04849,-0.0081 0.193965,-0.113146 0.234375,-0.145474 0.396013,-0.274784 0.678879,-0.72737 0.67888,-1.212284 z m -1.57597,1.357758 c -0.137392,0.02425 -0.282866,0.04041 -0.436422,0.04041 -0.0889,0 -0.177802,0 -0.258621,-0.03233 0.145474,-0.04041 0.307112,-0.04041 0.460668,-0.04041 0.08082,0 0.153556,0.0081 0.234375,0.03233 z m 1.066811,-1.511314 c 0,0.404095 -0.16972,0.872845 -0.452587,1.147629 -0.04041,0.04041 -0.202047,0.193966 -0.250538,0.202048 -0.226294,-0.04041 -0.404095,-0.09698 -0.630388,-0.09698 -0.21013,0 -0.711207,-0.01616 -0.711207,0.29903 0,0.234375 0.452586,0.218211 0.614224,0.218211 0.250539,0 0.476832,-0.02425 0.711207,-0.113146 0.234375,0.193965 0.355603,0.452586 0.355603,0.848599 0,0.46875 -0.161638,0.994073 -0.387931,1.317349 -0.29903,0.420259 -0.792026,0.711207 -1.390086,0.711207 -0.525323,0 -0.9375,-0.404095 -0.9375,-0.961746 0,-0.105065 0.0081,-0.210129 0.03233,-0.290948 l 0.525323,-2.117457 c 0.177802,-0.703125 0.848599,-1.875 1.74569,-1.875 0.404094,0 0.775862,0.202047 0.775862,0.711207 z m 0,0" style="fill:#121619;fill-opacity:1;fill-rule:nonzero;stroke:none" />
      <path id="path35" d="m 48.29745,14.881942 v 7.807112 h 0.50916 v -7.807112 z m 0,0" style="fill:#121619;fill-opacity:1;fill-rule:nonzero;stroke:none" />
      <path id="path36" d="m 52.508119,15.900261 c 0,-0.218211 -0.01616,-0.226293 -0.234375,-0.226293 -0.323276,0.323276 -0.751617,0.509159 -1.503233,0.509159 v 0.266703 c 0.210129,0 0.646551,0 1.10722,-0.218211 v 4.089439 c 0,0.29903 -0.02425,0.387931 -0.783944,0.387931 h -0.274785 v 0.266703 c 0.323276,-0.02425 1.010237,-0.02425 1.365841,-0.02425 0.363685,0 1.050646,0 1.382004,0.02425 v -0.266703 h -0.282866 c -0.751617,0 -0.775862,-0.0889 -0.775862,-0.387931 z m 4.230872,0 c 0,-0.218211 -0.01616,-0.226293 -0.234375,-0.226293 -0.323275,0.323276 -0.751616,0.509159 -1.503232,0.509159 v 0.266703 c 0.210129,0 0.646551,0 1.107219,-0.218211 v 4.089439 c 0,0.29903 -0.02425,0.387931 -0.783944,0.387931 h -0.274784 v 0.266703 c 0.323276,-0.02425 1.010237,-0.02425 1.365841,-0.02425 0.363685,0 1.050646,0 1.382004,0.02425 v -0.266703 h -0.282867 c -0.751616,0 -0.775862,-0.0889 -0.775862,-0.387931 z m 4.232894,0 c 0,-0.218211 -0.01616,-0.226293 -0.234375,-0.226293 -0.323276,0.323276 -0.751617,0.509159 -1.503233,0.509159 v 0.266703 c 0.210129,0 0.646552,0 1.10722,-0.218211 v 4.089439 c 0,0.29903 -0.02425,0.387931 -0.783944,0.387931 h -0.274785 v 0.266703 c 0.323276,-0.02425 1.010237,-0.02425 1.365841,-0.02425 0.363685,0 1.050646,0 1.382004,0.02425 v -0.266703 h -0.282866 c -0.751617,0 -0.775862,-0.0889 -0.775862,-0.387931 z m 0,0" style="fill:#121619;fill-opacity:1;fill-rule:nonzero;stroke:none" />
      <path id="path37" d="m 63.915716,22.777955 1.430495,-3.992457 -1.430495,-3.992457 -0.476832,0.177802 1.430495,3.814655 -1.430495,3.814655 z m 0,0" style="fill:#121619;fill-opacity:1;fill-rule:nonzero;stroke:none" />
    </g>
  </g>
</svg>