<?xml version='1.0' encoding='utf-8'?>
<svg xmlns="http://www.w3.org/2000/svg" xmlns:ns1="http://sodipodi.sourceforge.net/DTD/sodipodi-0.dtd" xmlns:ns2="http://www.inkscape.org/namespaces/inkscape" version="1.1" id="svg1" width="100%" height="auto" viewBox="-20.0 -20.0 332.08557 301.10672" ns1:docname="svg_fix_XXXXXX.svg">
  <rect id="path1" x="-20.0" y="-20.0" width="332.08557" height="301.10672" fill="white" /><ns1:namedview id="namedview1" pagecolor="#ffffff" bordercolor="#000000" borderopacity="0.25" ns2:showpageshadow="2" ns2:pageopacity="0.0" ns2:pagecheckerboard="0" ns2:deskcolor="#d1d1d1" />
  <defs id="defs1" />
  <g id="g1" transform="translate(-154.06215,-41.336402)">
    <path id="path2" d="M -35.43349,28.3468 H 35.43349" style="fill:none;stroke:#121619;stroke-width:0.3985;stroke-linecap:butt;stroke-linejoin:miter;stroke-miterlimit:10;stroke-dasharray:none;stroke-opacity:1" transform="matrix(1.6,0,0,-1.6,210.75573,100.61653)" />
    <path id="path3" d="M -35.43349,0 H 35.43349" style="fill:none;stroke:#121619;stroke-width:0.3985;stroke-linecap:butt;stroke-linejoin:miter;stroke-miterlimit:10;stroke-dasharray:none;stroke-opacity:1" transform="matrix(1.6,0,0,-1.6,210.75573,100.61653)" />
    <path id="path4" d="m 20.15105,28.3468 c 0,3.30141 -2.67624,5.97766 -5.97766,5.97766 -3.30141,0 -5.97767,-2.67625 -5.97767,-5.97766 0,-3.3014 2.67626,-5.97766 5.97767,-5.97766 3.30142,0 5.97766,2.67626 5.97766,5.97766 z" style="fill:#78a9ff;fill-opacity:1;fill-rule:nonzero;stroke:#78a9ff;stroke-width:0.3985;stroke-linecap:butt;stroke-linejoin:miter;stroke-miterlimit:10;stroke-dasharray:none;stroke-opacity:1" transform="matrix(1.6,0,0,-1.6,210.75573,100.61653)" />
    <path id="path5" d="m 4.7081198,-7.8214505 v 3.4179687 H 1.290151 v 0.9179688 h 3.4179688 v 3.41796873 H 5.6260885 V -3.485513 H 9.0342917 V -4.4034818 H 5.6260885 v -3.4179687 z m 0,0" style="fill:#ffffff;fill-opacity:1;fill-rule:nonzero;stroke:none" aria-label="+" transform="matrix(1.6,0,0,1.6,225.17013,61.522133)" />
    <path id="path6" d="m 16.66408,0 c 0,1.37558 -1.11511,2.49069 -2.49069,2.49069 C 12.7978,2.49069 11.6827,1.37558 11.6827,0 c 0,-1.37558 1.1151,-2.49069 2.49069,-2.49069 1.37558,0 2.49069,1.11511 2.49069,2.49069 z" style="fill:#78a9ff;fill-opacity:1;fill-rule:nonzero;stroke:none" transform="matrix(1.6,0,0,-1.6,210.75573,100.61653)" />
    <path id="path7" d="M 14.17339,0 V 22.16989" style="fill:none;stroke:#78a9ff;stroke-width:0.79701;stroke-linecap:butt;stroke-linejoin:miter;stroke-miterlimit:10;stroke-dasharray:none;stroke-opacity:1" transform="matrix(1.6,0,0,-1.6,210.75573,100.61653)" />
    <path id="path8" d="M -22.67743,19.84277 H -5.66937 V 36.85083 H -22.67743 Z" style="fill:#78a9ff;fill-opacity:1;fill-rule:nonzero;stroke:#78a9ff;stroke-width:0.3985;stroke-linecap:butt;stroke-linejoin:miter;stroke-miterlimit:10;stroke-dasharray:none;stroke-opacity:1" transform="matrix(1.6,0,0,-1.6,210.75573,100.61653)" />
    <path id="path9" d="m 4.1597057,-3.0474661 c 0.3808594,-0.390625 1.5136719,-1.5527344 1.7089844,-1.6992188 0.3320313,-0.2539062 0.5273438,-0.4003906 1.1035156,-0.4296875 0.048828,-0.00977 0.1074219,-0.048828 0.1074219,-0.15625 0,-0.068359 -0.068359,-0.1074219 -0.1074219,-0.1074219 -0.078125,0 -0.1269531,0.019531 -0.7519531,0.019531 -0.5957031,0 -0.8105469,-0.019531 -0.8496094,-0.019531 -0.029297,0 -0.15625,0 -0.15625,0.1464844 0,0.00977 0,0.1074219 0.1171875,0.1171875 0.058594,0 0.2734375,0.019531 0.2734375,0.2050781 0,0.058594 -0.039063,0.1464844 -0.097656,0.2050782 l -0.029297,0.039063 c -0.019531,0.029297 -0.019531,0.039063 -0.097656,0.1171875 L 4.0522842,-3.272075 3.2319717,-4.9615281 c 0.1171875,-0.1855469 0.3515625,-0.2148438 0.4492187,-0.2148438 0.039063,0 0.1464844,-0.00977 0.1464844,-0.1464844 0,-0.068359 -0.048828,-0.1171875 -0.1269531,-0.1171875 -0.078125,0 -0.3808594,0.00977 -0.4589844,0.00977 -0.048828,0.00977 -0.3417969,0.00977 -0.5078125,0.00977 -0.7421875,0 -0.8398438,-0.019531 -0.9082031,-0.019531 -0.029297,0 -0.15625,0 -0.15625,0.1464844 0,0.1171875 0.097656,0.1171875 0.2246093,0.1171875 0.4003907,0 0.46875,0.078125 0.546875,0.2246094 l 1.0546875,2.2363281 -1.6308593,1.6601563 c -0.4785157,0.47851558 -0.8496094,0.7617187 -1.41601567,0.79101558 -0.0976563,0.009766 -0.1953125,0.009766 -0.1953125,0.15625 0,0.0390625 0.0390625,0.10742187417 0.1171875,0.10742187417 0.0585938,0 0.14648437,-0.0195312542 0.75195317,-0.0195312542 0.5761718,0 0.8203125,0.0195312542 0.8496093,0.0195312542 0.039063,0 0.1660157,0 0.1660157,-0.15625000417 0,-0.009766 -0.00977,-0.0976562 -0.1269532,-0.10742187 -0.15625,-0.009766 -0.2636718,-0.0585938 -0.2636718,-0.20507813 0,-0.12695312 0.087891,-0.234375 0.2148437,-0.3515625 0.1367188,-0.15625 0.546875,-0.56640625 0.8300781,-0.84960935 0.1855469,-0.1757813 0.6347657,-0.6445313 0.8203125,-0.8203125 l 0.9082032,1.90429685 c 0.048828,0.0878906 0.048828,0.0878906 0.048828,0.0976563 0,0.078125 -0.1757813,0.20507813 -0.4296875,0.22460938 -0.058594,0 -0.1660156,0.009766 -0.1660156,0.15625 0,0 0.00977,0.10742187417 0.1367187,0.10742187417 0.078125,0 0.3710938,-0.0195312542 0.4589844,-0.0195312542 h 0.5078125 c 0.7324219,0 0.8398437,0.0195312542 0.9179687,0.0195312542 0.029297,0 0.1464844,0 0.1464844,-0.15625000417 0,-0.10742187 -0.097656,-0.10742187 -0.2246094,-0.10742187 -0.4296875,0 -0.4785156,-0.0976563 -0.5273437,-0.21484375 z m 0,0" style="fill:#ffffff;fill-opacity:1;fill-rule:nonzero;stroke:none" aria-label="X" transform="matrix(1.6,0,0,1.6,182.00853,59.618133)" />
    <path id="path10" d="M 0.71444531,-2.7074453 H 4.5464766 V -3.2113516 H 0.71444531 Z m 0,1.5351562 H 4.5464766 V -1.6761953 H 0.71444531 Z m 0,0" style="fill:#121619;fill-opacity:1;fill-rule:nonzero;stroke:none" aria-label="=" transform="matrix(1.3333333,0,0,1.3333333,298.856,80.301333)" />
    <path id="path11" d="M -35.43349,28.3468 H 35.43349" style="fill:none;stroke:#121619;stroke-width:0.3985;stroke-linecap:butt;stroke-linejoin:miter;stroke-miterlimit:10;stroke-dasharray:none;stroke-opacity:1" transform="matrix(1.6,0,0,-1.6,389.45413,100.61653)" />
    <path id="path12" d="M -35.43349,0 H 35.43349" style="fill:none;stroke:#121619;stroke-width:0.3985;stroke-linecap:butt;stroke-linejoin:miter;stroke-miterlimit:10;stroke-dasharray:none;stroke-opacity:1" transform="matrix(1.6,0,0,-1.6,389.45413,100.61653)" />
    <path id="path13" d="m -8.19572,28.3468 c 0,3.30141 -2.67626,5.97766 -5.97767,5.97766 -3.30142,0 -5.97766,-2.67625 -5.97766,-5.97766 0,-3.3014 2.67624,-5.97766 5.97766,-5.97766 3.30141,0 5.97767,2.67626 5.97767,5.97766 z" style="fill:#78a9ff;fill-opacity:1;fill-rule:nonzero;stroke:#78a9ff;stroke-width:0.3985;stroke-linecap:butt;stroke-linejoin:miter;stroke-miterlimit:10;stroke-dasharray:none;stroke-opacity:1" transform="matrix(1.6,0,0,-1.6,389.45413,100.61653)" />
    <path id="path14" d="m 4.7060221,-7.8214505 v 3.4179687 H 1.2880534 v 0.9179688 h 3.4179687 v 3.41796873 H 5.6239909 V -3.485513 H 9.032194 V -4.4034818 H 5.6239909 v -3.4179687 z m 0,0" style="fill:#ffffff;fill-opacity:1;fill-rule:nonzero;stroke:none" aria-label="+" transform="matrix(1.6,0,0,1.6,358.51333,61.522133)" />
    <path id="path15" d="m -11.6827,0 c 0,1.37558 -1.1151,2.49069 -2.49069,2.49069 -1.37558,0 -2.49069,-1.11511 -2.49069,-2.49069 0,-1.37558 1.11511,-2.49069 2.49069,-2.49069 1.37559,0 2.49069,1.11511 2.49069,2.49069 z" style="fill:#78a9ff;fill-opacity:1;fill-rule:nonzero;stroke:none" transform="matrix(1.6,0,0,-1.6,389.45413,100.61653)" />
    <path id="path16" d="M -14.17339,0 V 22.16989" style="fill:none;stroke:#78a9ff;stroke-width:0.79701;stroke-linecap:butt;stroke-linejoin:miter;stroke-miterlimit:10;stroke-dasharray:none;stroke-opacity:1" transform="matrix(1.6,0,0,-1.6,389.45413,100.61653)" />
    <path id="path17" d="M 5.66936,19.84277 H 22.67742 V 36.85083 H 5.66936 Z" style="fill:#78a9ff;fill-opacity:1;fill-rule:nonzero;stroke:#78a9ff;stroke-width:0.3985;stroke-linecap:butt;stroke-linejoin:miter;stroke-miterlimit:10;stroke-dasharray:none;stroke-opacity:1" transform="matrix(1.6,0,0,-1.6,389.45413,100.61653)" />
    <path id="path18" d="m 4.1603854,-3.0474661 c 0.3808594,-0.390625 1.5136719,-1.5527344 1.7089844,-1.6992188 0.3320312,-0.2539062 0.5273437,-0.4003906 1.1035156,-0.4296875 0.048828,-0.00977 0.1074219,-0.048828 0.1074219,-0.15625 0,-0.068359 -0.068359,-0.1074219 -0.1074219,-0.1074219 -0.078125,0 -0.1269531,0.019531 -0.7519531,0.019531 -0.5957031,0 -0.8105469,-0.019531 -0.8496094,-0.019531 -0.029297,0 -0.15625,0 -0.15625,0.1464844 0,0.00977 0,0.1074219 0.1171875,0.1171875 0.058594,0 0.2734375,0.019531 0.2734375,0.2050781 0,0.058594 -0.039063,0.1464844 -0.097656,0.2050782 l -0.029297,0.039063 c -0.019531,0.029297 -0.019531,0.039063 -0.097656,0.1171875 L 4.0529635,-3.2720755 3.232651,-4.9615286 c 0.1171875,-0.1855469 0.3515625,-0.2148438 0.4492188,-0.2148438 0.039063,0 0.1464844,-0.00977 0.1464844,-0.1464844 0,-0.068359 -0.048828,-0.1171875 -0.1269532,-0.1171875 -0.078125,0 -0.3808593,0.00977 -0.4589843,0.00977 -0.048828,0.00977 -0.3417969,0.00977 -0.5078125,0.00977 -0.7421875,0 -0.8398438,-0.019531 -0.9082032,-0.019531 -0.029297,0 -0.15625,0 -0.15625,0.1464844 0,0.1171875 0.097656,0.1171875 0.2246094,0.1171875 0.4003906,0 0.46875,0.078125 0.546875,0.2246094 l 1.0546875,2.2363281 -1.6308594,1.6601563 c -0.4785156,0.47851558 -0.8496093,0.7617187 -1.41601558,0.79101558 -0.0976563,0.009766 -0.1953125,0.009766 -0.1953125,0.15625 0,0.0390625 0.0390625,0.10742187417 0.1171875,0.10742187417 0.0585938,0 0.14648437,-0.0195312542 0.75195308,-0.0195312542 0.5761719,0 0.8203125,0.0195312542 0.8496094,0.0195312542 0.039063,0 0.1660156,0 0.1660156,-0.15625000417 0,-0.009766 -0.00977,-0.0976562 -0.1269531,-0.10742187 -0.15625,-0.009766 -0.2636719,-0.0585938 -0.2636719,-0.20507813 0,-0.12695312 0.087891,-0.234375 0.2148438,-0.3515625 0.1367187,-0.15625 0.546875,-0.56640625 0.8300781,-0.84960935 0.1855469,-0.1757813 0.6347656,-0.6445313 0.8203125,-0.8203125 l 0.9082031,1.90429685 c 0.048828,0.0878906 0.048828,0.0878906 0.048828,0.0976563 0,0.078125 -0.1757813,0.20507813 -0.4296875,0.22460938 -0.058594,0 -0.1660157,0.009766 -0.1660157,0.15625 0,0 0.00977,0.10742187417 0.1367188,0.10742187417 0.078125,0 0.3710937,-0.0195312542 0.4589844,-0.0195312542 H 5.078354 c 0.7324218,0 0.8398437,0.0195312542 0.9179687,0.0195312542 0.029297,0 0.1464844,0 0.1464844,-0.15625000417 0,-0.10742187 -0.097656,-0.10742187 -0.2246094,-0.10742187 -0.4296875,0 -0.4785156,-0.0976563 -0.5273437,-0.21484375 z m 0,0" style="fill:#ffffff;fill-opacity:1;fill-rule:nonzero;stroke:none" aria-label="X" transform="matrix(1.6,0,0,1.6,406.06213,59.618133)" />
    <path id="path19" d="M -35.43349,28.3468 H 35.43349" style="fill:none;stroke:#121619;stroke-width:0.3985;stroke-linecap:butt;stroke-linejoin:miter;stroke-miterlimit:10;stroke-dasharray:none;stroke-opacity:1" transform="matrix(1.6,0,0,-1.6,210.75573,192.37627)" />
    <path id="path20" d="M -35.43349,0 H 35.43349" style="fill:none;stroke:#121619;stroke-width:0.3985;stroke-linecap:butt;stroke-linejoin:miter;stroke-miterlimit:10;stroke-dasharray:none;stroke-opacity:1" transform="matrix(1.6,0,0,-1.6,210.75573,192.37627)" />
    <path id="path21" d="m 20.15105,28.3468 c 0,3.30141 -2.67624,5.97766 -5.97766,5.97766 -3.30141,0 -5.97767,-2.67625 -5.97767,-5.97766 0,-3.3014 2.67626,-5.97766 5.97767,-5.97766 3.30142,0 5.97766,2.67626 5.97766,5.97766 z" style="fill:#78a9ff;fill-opacity:1;fill-rule:nonzero;stroke:#78a9ff;stroke-width:0.3985;stroke-linecap:butt;stroke-linejoin:miter;stroke-miterlimit:10;stroke-dasharray:none;stroke-opacity:1" transform="matrix(1.6,0,0,-1.6,210.75573,192.37627)" />
    <path id="path22" d="m 4.7081198,-7.822651 v 3.4179687 H 1.290151 v 0.9179688 h 3.4179688 v 3.41796871 H 5.6260885 V -3.4867135 H 9.0342917 V -4.4046823 H 5.6260885 V -7.822651 Z m 0,0" style="fill:#ffffff;fill-opacity:1;fill-rule:nonzero;stroke:none" aria-label="+" transform="matrix(1.6,0,0,1.6,225.17013,153.28187)" />
    <path id="path23" d="m 16.66408,0 c 0,1.37558 -1.11511,2.49069 -2.49069,2.49069 C 12.7978,2.49069 11.6827,1.37558 11.6827,0 c 0,-1.37558 1.1151,-2.49069 2.49069,-2.49069 1.37558,0 2.49069,1.11511 2.49069,2.49069 z" style="fill:#78a9ff;fill-opacity:1;fill-rule:nonzero;stroke:none" transform="matrix(1.6,0,0,-1.6,210.75573,192.37627)" />
    <path id="path24" d="M 14.17339,0 V 22.16989" style="fill:none;stroke:#78a9ff;stroke-width:0.79701;stroke-linecap:butt;stroke-linejoin:miter;stroke-miterlimit:10;stroke-dasharray:none;stroke-opacity:1" transform="matrix(1.6,0,0,-1.6,210.75573,192.37627)" />
    <path id="path25" d="M -22.67743,-8.50403 H -5.66937 V 8.50403 h -17.00806 z" style="fill:#78a9ff;fill-opacity:1;fill-rule:nonzero;stroke:#78a9ff;stroke-width:0.3985;stroke-linecap:butt;stroke-linejoin:miter;stroke-miterlimit:10;stroke-dasharray:none;stroke-opacity:1" transform="matrix(1.6,0,0,-1.6,210.75573,192.37627)" />
    <path id="path26" d="m 4.1597057,-3.0460573 c 0.3808594,-0.390625 1.5136719,-1.5527344 1.7089844,-1.6992187 0.3320313,-0.2539063 0.5273438,-0.4003907 1.1035156,-0.4296875 0.048828,-0.00977 0.1074219,-0.048828 0.1074219,-0.15625 0,-0.068359 -0.068359,-0.1074219 -0.1074219,-0.1074219 -0.078125,0 -0.1269531,0.019531 -0.7519531,0.019531 -0.5957031,0 -0.8105469,-0.019531 -0.8496094,-0.019531 -0.029297,0 -0.15625,0 -0.15625,0.1464844 0,0.00977 0,0.1074218 0.1171875,0.1171875 0.058594,0 0.2734375,0.019531 0.2734375,0.2050781 0,0.058594 -0.039063,0.1464844 -0.097656,0.2050781 l -0.029297,0.039063 c -0.019531,0.029297 -0.019531,0.039063 -0.097656,0.1171875 l -1.328125,1.3378906 -0.8203125,-1.6894531 c 0.1171875,-0.1855469 0.3515625,-0.2148437 0.4492187,-0.2148437 0.039063,0 0.1464844,-0.00977 0.1464844,-0.1464844 0,-0.068359 -0.048828,-0.1171875 -0.1269531,-0.1171875 -0.078125,0 -0.3808594,0.00977 -0.4589844,0.00977 -0.048828,0.00977 -0.3417969,0.00977 -0.5078125,0.00977 -0.7421875,0 -0.8398438,-0.019531 -0.9082031,-0.019531 -0.029297,0 -0.15625,0 -0.15625,0.1464844 0,0.1171875 0.097656,0.1171875 0.2246093,0.1171875 0.4003907,0 0.46875,0.078125 0.546875,0.2246093 l 1.0546875,2.2363282 -1.6308593,1.6601562 c -0.4785157,0.47851563 -0.8496094,0.76171876 -1.41601567,0.79101563 -0.0976563,0.009766 -0.1953125,0.009766 -0.1953125,0.15625 0,0.0390625 0.0390625,0.10742187833 0.1171875,0.10742187833 0.0585938,0 0.14648437,-0.0195312483 0.75195317,-0.0195312483 0.5761718,0 0.8203125,0.0195312483 0.8496093,0.0195312483 0.039063,0 0.1660157,0 0.1660157,-0.15624999833 0,-0.009766 -0.00977,-0.0976562 -0.1269532,-0.10742188 -0.15625,-0.009766 -0.2636718,-0.0585938 -0.2636718,-0.20507812 0,-0.12695313 0.087891,-0.234375 0.2148437,-0.3515625 0.1367188,-0.15625 0.546875,-0.56640621 0.8300781,-0.84960941 0.1855469,-0.1757812 0.6347657,-0.6445312 0.8203125,-0.8203125 l 0.9082032,1.90429691 c 0.048828,0.0878906 0.048828,0.0878906 0.048828,0.0976563 0,0.078125 -0.1757813,0.20507812 -0.4296875,0.22460937 -0.058594,0 -0.1660156,0.009766 -0.1660156,0.15625 0,0 0.00977,0.10742187833 0.1367187,0.10742187833 0.078125,0 0.3710938,-0.0195312483 0.4589844,-0.0195312483 h 0.5078125 c 0.7324219,0 0.8398437,0.0195312483 0.9179687,0.0195312483 0.029297,0 0.1464844,0 0.1464844,-0.15624999833 0,-0.10742188 -0.097656,-0.10742188 -0.2246094,-0.10742188 -0.4296875,0 -0.4785156,-0.0976563 -0.5273437,-0.21484375 z m 0,0" style="fill:#ffffff;fill-opacity:1;fill-rule:nonzero;stroke:none" aria-label="X" transform="matrix(1.6,0,0,1.6,182.00853,196.73307)" />
    <path id="path27" d="M 0.71444531,-2.7071641 H 4.5464766 V -3.2110703 H 0.71444531 Z m 0,1.5351563 H 4.5464766 V -1.6759141 H 0.71444531 Z m 0,0" style="fill:#121619;fill-opacity:1;fill-rule:nonzero;stroke:none" aria-label="=" transform="matrix(1.3333333,0,0,1.3333333,298.856,172.28533)" />
    <path id="path28" d="M -35.43349,28.3468 H 35.43349" style="fill:none;stroke:#121619;stroke-width:0.3985;stroke-linecap:butt;stroke-linejoin:miter;stroke-miterlimit:10;stroke-dasharray:none;stroke-opacity:1" transform="matrix(1.6,0,0,-1.6,389.45413,192.37627)" />
    <path id="path29" d="M -35.43349,0 H 35.43349" style="fill:none;stroke:#121619;stroke-width:0.3985;stroke-linecap:butt;stroke-linejoin:miter;stroke-miterlimit:10;stroke-dasharray:none;stroke-opacity:1" transform="matrix(1.6,0,0,-1.6,389.45413,192.37627)" />
    <path id="path30" d="m -8.19572,28.3468 c 0,3.30141 -2.67626,5.97766 -5.97767,5.97766 -3.30142,0 -5.97766,-2.67625 -5.97766,-5.97766 0,-3.3014 2.67624,-5.97766 5.97766,-5.97766 3.30141,0 5.97767,2.67626 5.97767,5.97766 z" style="fill:#78a9ff;fill-opacity:1;fill-rule:nonzero;stroke:#78a9ff;stroke-width:0.3985;stroke-linecap:butt;stroke-linejoin:miter;stroke-miterlimit:10;stroke-dasharray:none;stroke-opacity:1" transform="matrix(1.6,0,0,-1.6,389.45413,192.37627)" />
    <path id="path31" d="m 4.7060221,-7.822651 v 3.4179687 H 1.2880534 v 0.9179688 h 3.4179687 v 3.41796871 H 5.6239909 V -3.4867135 H 9.032194 V -4.4046823 H 5.6239909 V -7.822651 Z m 0,0" style="fill:#ffffff;fill-opacity:1;fill-rule:nonzero;stroke:none" aria-label="+" transform="matrix(1.6,0,0,1.6,358.51333,153.28187)" />
    <path id="path32" d="m -11.6827,0 c 0,1.37558 -1.1151,2.49069 -2.49069,2.49069 -1.37558,0 -2.49069,-1.11511 -2.49069,-2.49069 0,-1.37558 1.11511,-2.49069 2.49069,-2.49069 1.37559,0 2.49069,1.11511 2.49069,2.49069 z" style="fill:#78a9ff;fill-opacity:1;fill-rule:nonzero;stroke:none" transform="matrix(1.6,0,0,-1.6,389.45413,192.37627)" />
    <path id="path33" d="M -14.17339,0 V 22.16989" style="fill:none;stroke:#78a9ff;stroke-width:0.79701;stroke-linecap:butt;stroke-linejoin:miter;stroke-miterlimit:10;stroke-dasharray:none;stroke-opacity:1" transform="matrix(1.6,0,0,-1.6,389.45413,192.37627)" />
    <path id="path34" d="M 5.66936,19.84277 H 22.67742 V 36.85083 H 5.66936 Z" style="fill:#78a9ff;fill-opacity:1;fill-rule:nonzero;stroke:#78a9ff;stroke-width:0.3985;stroke-linecap:butt;stroke-linejoin:miter;stroke-miterlimit:10;stroke-dasharray:none;stroke-opacity:1" transform="matrix(1.6,0,0,-1.6,389.45413,192.37627)" />
    <path id="path35" d="m 4.1603854,-3.0462253 c 0.3808594,-0.390625 1.5136719,-1.5527343 1.7089844,-1.6992187 0.3320312,-0.2539063 0.5273437,-0.4003906 1.1035156,-0.4296875 0.048828,-0.00977 0.1074219,-0.048828 0.1074219,-0.15625 0,-0.068359 -0.068359,-0.1074219 -0.1074219,-0.1074219 -0.078125,0 -0.1269531,0.019531 -0.7519531,0.019531 -0.5957031,0 -0.8105469,-0.019531 -0.8496094,-0.019531 -0.029297,0 -0.15625,0 -0.15625,0.1464844 0,0.00977 0,0.1074219 0.1171875,0.1171875 0.058594,0 0.2734375,0.019531 0.2734375,0.2050781 0,0.058594 -0.039063,0.1464844 -0.097656,0.2050781 l -0.029297,0.039063 c -0.019531,0.029297 -0.019531,0.039063 -0.097656,0.1171875 L 4.0529635,-3.2708346 3.232651,-4.9602878 c 0.1171875,-0.1855468 0.3515625,-0.2148437 0.4492188,-0.2148437 0.039063,0 0.1464844,-0.00977 0.1464844,-0.1464844 0,-0.068359 -0.048828,-0.1171875 -0.1269532,-0.1171875 -0.078125,0 -0.3808593,0.00977 -0.4589843,0.00977 -0.048828,0.00977 -0.3417969,0.00977 -0.5078125,0.00977 -0.7421875,0 -0.8398438,-0.019531 -0.9082032,-0.019531 -0.029297,0 -0.15625,0 -0.15625,0.1464844 0,0.1171875 0.097656,0.1171875 0.2246094,0.1171875 0.4003906,0 0.46875,0.078125 0.546875,0.2246094 l 1.0546875,2.2363281 -1.6308594,1.6601562 c -0.4785156,0.47851566 -0.8496093,0.76171879 -1.41601558,0.79101566 -0.0976563,0.009766 -0.1953125,0.009766 -0.1953125,0.15625 0,0.0390625 0.0390625,0.10742187958 0.1171875,0.10742187958 0.0585938,0 0.14648437,-0.0195312496 0.75195308,-0.0195312496 0.5761719,0 0.8203125,0.0195312496 0.8496094,0.0195312496 0.039063,0 0.1660156,0 0.1660156,-0.15624999958 0,-0.009766 -0.00977,-0.0976563 -0.1269531,-0.10742188 -0.15625,-0.009766 -0.2636719,-0.0585938 -0.2636719,-0.20507812 0,-0.12695313 0.087891,-0.234375 0.2148438,-0.3515625 0.1367187,-0.15625 0.546875,-0.56640624 0.8300781,-0.84960934 0.1855469,-0.1757813 0.6347656,-0.6445313 0.8203125,-0.8203125 l 0.9082031,1.90429684 c 0.048828,0.0878906 0.048828,0.0878906 0.048828,0.0976563 0,0.078125 -0.1757813,0.20507812 -0.4296875,0.22460937 -0.058594,0 -0.1660157,0.009766 -0.1660157,0.15625 0,0 0.00977,0.10742187958 0.1367188,0.10742187958 0.078125,0 0.3710937,-0.0195312496 0.4589844,-0.0195312496 H 5.078354 c 0.7324218,0 0.8398437,0.0195312496 0.9179687,0.0195312496 0.029297,0 0.1464844,0 0.1464844,-0.15624999958 0,-0.10742188 -0.097656,-0.10742188 -0.2246094,-0.10742188 -0.4296875,0 -0.4785156,-0.0976563 -0.5273437,-0.21484375 z m 0,0" style="fill:#ffffff;fill-opacity:1;fill-rule:nonzero;stroke:none" aria-label="X" transform="matrix(1.6,0,0,1.6,406.06213,151.37787)" />
    <path id="path36" d="M 5.66936,-8.50403 H 22.67742 V 8.50403 H 5.66936 Z" style="fill:#78a9ff;fill-opacity:1;fill-rule:nonzero;stroke:#78a9ff;stroke-width:0.3985;stroke-linecap:butt;stroke-linejoin:miter;stroke-miterlimit:10;stroke-dasharray:none;stroke-opacity:1" transform="matrix(1.6,0,0,-1.6,389.45413,192.37627)" />
    <path id="path37" d="m 4.1603854,-3.0460573 c 0.3808594,-0.390625 1.5136719,-1.5527344 1.7089844,-1.6992187 0.3320312,-0.2539063 0.5273437,-0.4003907 1.1035156,-0.4296875 0.048828,-0.00977 0.1074219,-0.048828 0.1074219,-0.15625 0,-0.068359 -0.068359,-0.1074219 -0.1074219,-0.1074219 -0.078125,0 -0.1269531,0.019531 -0.7519531,0.019531 -0.5957031,0 -0.8105469,-0.019531 -0.8496094,-0.019531 -0.029297,0 -0.15625,0 -0.15625,0.1464844 0,0.00977 0,0.1074218 0.1171875,0.1171875 0.058594,0 0.2734375,0.019531 0.2734375,0.2050781 0,0.058594 -0.039063,0.1464844 -0.097656,0.2050781 l -0.029297,0.039063 c -0.019531,0.029297 -0.019531,0.039063 -0.097656,0.1171875 L 4.0529635,-3.2706667 3.232651,-4.9601198 c 0.1171875,-0.1855469 0.3515625,-0.2148437 0.4492188,-0.2148437 0.039063,0 0.1464844,-0.00977 0.1464844,-0.1464844 0,-0.068359 -0.048828,-0.1171875 -0.1269532,-0.1171875 -0.078125,0 -0.3808593,0.00977 -0.4589843,0.00977 -0.048828,0.00977 -0.3417969,0.00977 -0.5078125,0.00977 -0.7421875,0 -0.8398438,-0.019531 -0.9082032,-0.019531 -0.029297,0 -0.15625,0 -0.15625,0.1464844 0,0.1171875 0.097656,0.1171875 0.2246094,0.1171875 0.4003906,0 0.46875,0.078125 0.546875,0.2246093 l 1.0546875,2.2363282 -1.6308594,1.6601562 c -0.4785156,0.47851563 -0.8496093,0.76171876 -1.41601558,0.79101563 -0.0976563,0.009766 -0.1953125,0.009766 -0.1953125,0.15625 0,0.0390625 0.0390625,0.10742187833 0.1171875,0.10742187833 0.0585938,0 0.14648437,-0.0195312483 0.75195308,-0.0195312483 0.5761719,0 0.8203125,0.0195312483 0.8496094,0.0195312483 0.039063,0 0.1660156,0 0.1660156,-0.15624999833 0,-0.009766 -0.00977,-0.0976562 -0.1269531,-0.10742188 -0.15625,-0.009766 -0.2636719,-0.0585938 -0.2636719,-0.20507812 0,-0.12695313 0.087891,-0.234375 0.2148438,-0.3515625 0.1367187,-0.15625 0.546875,-0.56640621 0.8300781,-0.84960941 0.1855469,-0.1757812 0.6347656,-0.6445312 0.8203125,-0.8203125 l 0.9082031,1.90429691 c 0.048828,0.0878906 0.048828,0.0878906 0.048828,0.0976563 0,0.078125 -0.1757813,0.20507812 -0.4296875,0.22460937 -0.058594,0 -0.1660157,0.009766 -0.1660157,0.15625 0,0 0.00977,0.10742187833 0.1367188,0.10742187833 0.078125,0 0.3710937,-0.0195312483 0.4589844,-0.0195312483 H 5.078354 c 0.7324218,0 0.8398437,0.0195312483 0.9179687,0.0195312483 0.029297,0 0.1464844,0 0.1464844,-0.15624999833 0,-0.10742188 -0.097656,-0.10742188 -0.2246094,-0.10742188 -0.4296875,0 -0.4785156,-0.0976563 -0.5273437,-0.21484375 z m 0,0" style="fill:#ffffff;fill-opacity:1;fill-rule:nonzero;stroke:none" aria-label="X" transform="matrix(1.6,0,0,1.6,406.06213,196.73307)" />
    <path id="path38" d="M -35.43349,28.3468 H 35.43349" style="fill:none;stroke:#121619;stroke-width:0.3985;stroke-linecap:butt;stroke-linejoin:miter;stroke-miterlimit:10;stroke-dasharray:none;stroke-opacity:1" transform="matrix(1.6,0,0,-1.6,210.75573,288.51787)" />
    <path id="path39" d="M -35.43349,0 H 35.43349" style="fill:none;stroke:#121619;stroke-width:0.3985;stroke-linecap:butt;stroke-linejoin:miter;stroke-miterlimit:10;stroke-dasharray:none;stroke-opacity:1" transform="matrix(1.6,0,0,-1.6,210.75573,288.51787)" />
    <path id="path40" d="m 20.15105,28.3468 c 0,3.30141 -2.67624,5.97766 -5.97766,5.97766 -3.30141,0 -5.97767,-2.67625 -5.97767,-5.97766 0,-3.3014 2.67626,-5.97766 5.97767,-5.97766 3.30142,0 5.97766,2.67626 5.97766,5.97766 z" style="fill:#78a9ff;fill-opacity:1;fill-rule:nonzero;stroke:#78a9ff;stroke-width:0.3985;stroke-linecap:butt;stroke-linejoin:miter;stroke-miterlimit:10;stroke-dasharray:none;stroke-opacity:1" transform="matrix(1.6,0,0,-1.6,210.75573,288.51787)" />
    <path id="path41" d="m 4.7081198,-7.8232604 v 3.4179687 H 1.290151 v 0.9179688 h 3.4179688 v 3.41796873 H 5.6260885 V -3.4873229 H 9.0342917 V -4.4052917 H 5.6260885 v -3.4179687 z m 0,0" style="fill:#ffffff;fill-opacity:1;fill-rule:nonzero;stroke:none" aria-label="+" transform="matrix(1.6,0,0,1.6,225.17013,249.42347)" />
    <path id="path42" d="m 16.66408,0 c 0,1.37558 -1.11511,2.49069 -2.49069,2.49069 C 12.7978,2.49069 11.6827,1.37558 11.6827,0 c 0,-1.37558 1.1151,-2.49069 2.49069,-2.49069 1.37558,0 2.49069,1.11511 2.49069,2.49069 z" style="fill:#78a9ff;fill-opacity:1;fill-rule:nonzero;stroke:none" transform="matrix(1.6,0,0,-1.6,210.75573,288.51787)" />
    <path id="path43" d="M 14.17339,0 V 22.16989" style="fill:none;stroke:#78a9ff;stroke-width:0.79701;stroke-linecap:butt;stroke-linejoin:miter;stroke-miterlimit:10;stroke-dasharray:none;stroke-opacity:1" transform="matrix(1.6,0,0,-1.6,210.75573,288.51787)" />
    <path id="path44" d="M -22.67743,-8.50403 H -5.66937 V 8.50403 h -17.00806 z" style="fill:#78a9ff;fill-opacity:1;fill-rule:nonzero;stroke:#78a9ff;stroke-width:0.3985;stroke-linecap:butt;stroke-linejoin:miter;stroke-miterlimit:10;stroke-dasharray:none;stroke-opacity:1" transform="matrix(1.6,0,0,-1.6,210.75573,288.51787)" />
    <path id="path45" d="m 4.1597057,-3.0466667 c 0.3808594,-0.390625 1.5136719,-1.5527343 1.7089844,-1.6992187 0.3320313,-0.2539063 0.5273438,-0.4003906 1.1035156,-0.4296875 0.048828,-0.00977 0.1074219,-0.048828 0.1074219,-0.15625 0,-0.068359 -0.068359,-0.1074219 -0.1074219,-0.1074219 -0.078125,0 -0.1269531,0.019531 -0.7519531,0.019531 -0.5957031,0 -0.8105469,-0.019531 -0.8496094,-0.019531 -0.029297,0 -0.15625,0 -0.15625,0.1464844 0,0.00977 0,0.1074219 0.1171875,0.1171875 0.058594,0 0.2734375,0.019531 0.2734375,0.2050781 0,0.058594 -0.039063,0.1464844 -0.097656,0.2050781 l -0.029297,0.039063 c -0.019531,0.029297 -0.019531,0.039063 -0.097656,0.1171875 L 4.0522839,-3.271276 3.2319714,-4.9607292 c 0.1171875,-0.1855468 0.3515625,-0.2148437 0.4492187,-0.2148437 0.039063,0 0.1464844,-0.00977 0.1464844,-0.1464844 0,-0.068359 -0.048828,-0.1171875 -0.1269531,-0.1171875 -0.078125,0 -0.3808594,0.00977 -0.4589844,0.00977 -0.048828,0.00977 -0.3417969,0.00977 -0.5078125,0.00977 -0.7421875,0 -0.8398438,-0.019531 -0.9082031,-0.019531 -0.029297,0 -0.15625,0 -0.15625,0.1464844 0,0.1171875 0.097656,0.1171875 0.2246093,0.1171875 0.4003907,0 0.46875,0.078125 0.546875,0.2246094 l 1.0546875,2.2363281 -1.6308593,1.6601562 c -0.4785157,0.47851566 -0.8496094,0.76171878 -1.41601567,0.79101566 -0.0976563,0.009766 -0.1953125,0.009766 -0.1953125,0.15625 0,0.0390625 0.0390625,0.10742187333 0.1171875,0.10742187333 0.0585938,0 0.14648437,-0.0195312533 0.75195317,-0.0195312533 0.5761718,0 0.8203125,0.0195312533 0.8496093,0.0195312533 0.039063,0 0.1660157,0 0.1660157,-0.15625000333 0,-0.009766 -0.00977,-0.0976563 -0.1269532,-0.10742187 -0.15625,-0.009766 -0.2636718,-0.0585938 -0.2636718,-0.20507813 0,-0.12695312 0.087891,-0.234375 0.2148437,-0.3515625 0.1367188,-0.15625 0.546875,-0.56640623 0.8300781,-0.84960933 0.1855469,-0.1757813 0.6347657,-0.6445313 0.8203125,-0.8203125 l 0.9082032,1.90429683 c 0.048828,0.0878906 0.048828,0.0878906 0.048828,0.0976563 0,0.078125 -0.1757813,0.20507813 -0.4296875,0.22460938 -0.058594,0 -0.1660156,0.009766 -0.1660156,0.15625 0,0 0.00977,0.10742187333 0.1367187,0.10742187333 0.078125,0 0.3710938,-0.0195312533 0.4589844,-0.0195312533 h 0.5078125 c 0.7324219,0 0.8398437,0.0195312533 0.9179687,0.0195312533 0.029297,0 0.1464844,0 0.1464844,-0.15625000333 0,-0.10742187 -0.097656,-0.10742187 -0.2246094,-0.10742187 -0.4296875,0 -0.4785156,-0.0976563 -0.5273437,-0.21484375 z m 0,0" style="fill:#ffffff;fill-opacity:1;fill-rule:nonzero;stroke:none" aria-label="X" transform="matrix(1.6,0,0,1.6,182.00853,292.87467)" />
    <path id="path46" d="M -22.67743,19.84277 H -5.66937 V 36.85083 H -22.67743 Z" style="fill:#78a9ff;fill-opacity:1;fill-rule:nonzero;stroke:#78a9ff;stroke-width:0.3985;stroke-linecap:butt;stroke-linejoin:miter;stroke-miterlimit:10;stroke-dasharray:none;stroke-opacity:1" transform="matrix(1.6,0,0,-1.6,210.75573,288.51787)" />
    <path id="path47" d="m 4.1597057,-3.0468346 c 0.3808594,-0.390625 1.5136719,-1.5527344 1.7089844,-1.6992188 0.3320313,-0.2539062 0.5273438,-0.4003906 1.1035156,-0.4296875 0.048828,-0.00977 0.1074219,-0.048828 0.1074219,-0.15625 0,-0.068359 -0.068359,-0.1074219 -0.1074219,-0.1074219 -0.078125,0 -0.1269531,0.019531 -0.7519531,0.019531 -0.5957031,0 -0.8105469,-0.019531 -0.8496094,-0.019531 -0.029297,0 -0.15625,0 -0.15625,0.1464844 0,0.00977 0,0.1074219 0.1171875,0.1171875 0.058594,0 0.2734375,0.019531 0.2734375,0.2050781 0,0.058594 -0.039063,0.1464844 -0.097656,0.2050782 l -0.029297,0.039063 c -0.019531,0.029297 -0.019531,0.039063 -0.097656,0.1171875 L 4.0522839,-3.271444 3.2319714,-4.9608971 c 0.1171875,-0.1855469 0.3515625,-0.2148438 0.4492187,-0.2148438 0.039063,0 0.1464844,-0.00977 0.1464844,-0.1464844 0,-0.068359 -0.048828,-0.1171875 -0.1269531,-0.1171875 -0.078125,0 -0.3808594,0.00977 -0.4589844,0.00977 -0.048828,0.00977 -0.3417969,0.00977 -0.5078125,0.00977 -0.7421875,0 -0.8398438,-0.019531 -0.9082031,-0.019531 -0.029297,0 -0.15625,0 -0.15625,0.1464844 0,0.1171875 0.097656,0.1171875 0.2246093,0.1171875 0.4003907,0 0.46875,0.078125 0.546875,0.2246094 l 1.0546875,2.2363281 -1.6308593,1.6601563 c -0.4785157,0.47851559 -0.8496094,0.76171871 -1.41601567,0.79101559 -0.0976563,0.009766 -0.1953125,0.009766 -0.1953125,0.15625 0,0.0390625 0.0390625,0.107421874583 0.1171875,0.107421874583 0.0585938,0 0.14648437,-0.01953125458 0.75195317,-0.01953125458 0.5761718,0 0.8203125,0.01953125458 0.8496093,0.01953125458 0.039063,0 0.1660157,0 0.1660157,-0.156250004583 0,-0.009766 -0.00977,-0.0976562 -0.1269532,-0.10742187 -0.15625,-0.009766 -0.2636718,-0.0585938 -0.2636718,-0.20507813 0,-0.12695312 0.087891,-0.234375 0.2148437,-0.3515625 0.1367188,-0.15625 0.546875,-0.56640626 0.8300781,-0.84960936 0.1855469,-0.1757813 0.6347657,-0.6445313 0.8203125,-0.8203125 l 0.9082032,1.90429686 c 0.048828,0.0878906 0.048828,0.0878906 0.048828,0.0976563 0,0.078125 -0.1757813,0.20507813 -0.4296875,0.22460938 -0.058594,0 -0.1660156,0.009766 -0.1660156,0.15625 0,0 0.00977,0.107421874583 0.1367187,0.107421874583 0.078125,0 0.3710938,-0.01953125458 0.4589844,-0.01953125458 h 0.5078125 c 0.7324219,0 0.8398437,0.01953125458 0.9179687,0.01953125458 0.029297,0 0.1464844,0 0.1464844,-0.156250004583 0,-0.10742187 -0.097656,-0.10742187 -0.2246094,-0.10742187 -0.4296875,0 -0.4785156,-0.0976563 -0.5273437,-0.21484375 z m 0,0" style="fill:#ffffff;fill-opacity:1;fill-rule:nonzero;stroke:none" aria-label="X" transform="matrix(1.6,0,0,1.6,182.00853,247.51947)" />
    <path id="path48" d="M 0.71444531,-2.7057656 H 4.5464766 V -3.2096719 H 0.71444531 Z m 0,1.5351562 H 4.5464766 V -1.6745156 H 0.71444531 Z m 0,0" style="fill:#121619;fill-opacity:1;fill-rule:nonzero;stroke:none" aria-label="=" transform="matrix(1.3333333,0,0,1.3333333,298.856,268.428)" />
    <path id="path49" d="M -35.43349,28.3468 H 35.43349" style="fill:none;stroke:#121619;stroke-width:0.3985;stroke-linecap:butt;stroke-linejoin:miter;stroke-miterlimit:10;stroke-dasharray:none;stroke-opacity:1" transform="matrix(1.6,0,0,-1.6,389.45413,288.51787)" />
    <path id="path50" d="M -35.43349,0 H 35.43349" style="fill:none;stroke:#121619;stroke-width:0.3985;stroke-linecap:butt;stroke-linejoin:miter;stroke-miterlimit:10;stroke-dasharray:none;stroke-opacity:1" transform="matrix(1.6,0,0,-1.6,389.45413,288.51787)" />
    <path id="path51" d="m -8.19572,28.3468 c 0,3.30141 -2.67626,5.97766 -5.97767,5.97766 -3.30142,0 -5.97766,-2.67625 -5.97766,-5.97766 0,-3.3014 2.67624,-5.97766 5.97766,-5.97766 3.30141,0 5.97767,2.67626 5.97767,5.97766 z" style="fill:#78a9ff;fill-opacity:1;fill-rule:nonzero;stroke:#78a9ff;stroke-width:0.3985;stroke-linecap:butt;stroke-linejoin:miter;stroke-miterlimit:10;stroke-dasharray:none;stroke-opacity:1" transform="matrix(1.6,0,0,-1.6,389.45413,288.51787)" />
    <path id="path52" d="m 4.7060221,-7.8232604 v 3.4179687 H 1.2880534 v 0.9179688 h 3.4179687 v 3.41796873 H 5.6239909 V -3.4873229 H 9.032194 V -4.4052917 H 5.6239909 v -3.4179687 z m 0,0" style="fill:#ffffff;fill-opacity:1;fill-rule:nonzero;stroke:none" aria-label="+" transform="matrix(1.6,0,0,1.6,358.51333,249.42347)" />
    <path id="path53" d="m -11.6827,0 c 0,1.37558 -1.1151,2.49069 -2.49069,2.49069 -1.37558,0 -2.49069,-1.11511 -2.49069,-2.49069 0,-1.37558 1.11511,-2.49069 2.49069,-2.49069 1.37559,0 2.49069,1.11511 2.49069,2.49069 z" style="fill:#78a9ff;fill-opacity:1;fill-rule:nonzero;stroke:none" transform="matrix(1.6,0,0,-1.6,389.45413,288.51787)" />
    <path id="path54" d="M -14.17339,0 V 22.16989" style="fill:none;stroke:#78a9ff;stroke-width:0.79701;stroke-linecap:butt;stroke-linejoin:miter;stroke-miterlimit:10;stroke-dasharray:none;stroke-opacity:1" transform="matrix(1.6,0,0,-1.6,389.45413,288.51787)" />
    <path id="path55" d="M 5.66936,-8.50403 H 22.67742 V 8.50403 H 5.66936 Z" style="fill:#78a9ff;fill-opacity:1;fill-rule:nonzero;stroke:#78a9ff;stroke-width:0.3985;stroke-linecap:butt;stroke-linejoin:miter;stroke-miterlimit:10;stroke-dasharray:none;stroke-opacity:1" transform="matrix(1.6,0,0,-1.6,389.45413,288.51787)" />
    <path id="path56" d="m 4.1603854,-3.0466667 c 0.3808594,-0.390625 1.5136719,-1.5527343 1.7089844,-1.6992187 0.3320312,-0.2539063 0.5273437,-0.4003906 1.1035156,-0.4296875 0.048828,-0.00977 0.1074219,-0.048828 0.1074219,-0.15625 0,-0.068359 -0.068359,-0.1074219 -0.1074219,-0.1074219 -0.078125,0 -0.1269531,0.019531 -0.7519531,0.019531 -0.5957031,0 -0.8105469,-0.019531 -0.8496094,-0.019531 -0.029297,0 -0.15625,0 -0.15625,0.1464844 0,0.00977 0,0.1074219 0.1171875,0.1171875 0.058594,0 0.2734375,0.019531 0.2734375,0.2050781 0,0.058594 -0.039063,0.1464844 -0.097656,0.2050781 l -0.029297,0.039063 c -0.019531,0.029297 -0.019531,0.039063 -0.097656,0.1171875 L 4.0529635,-3.271276 3.232651,-4.9607292 c 0.1171875,-0.1855468 0.3515625,-0.2148437 0.4492188,-0.2148437 0.039063,0 0.1464844,-0.00977 0.1464844,-0.1464844 0,-0.068359 -0.048828,-0.1171875 -0.1269532,-0.1171875 -0.078125,0 -0.3808593,0.00977 -0.4589843,0.00977 -0.048828,0.00977 -0.3417969,0.00977 -0.5078125,0.00977 -0.7421875,0 -0.8398438,-0.019531 -0.9082032,-0.019531 -0.029297,0 -0.15625,0 -0.15625,0.1464844 0,0.1171875 0.097656,0.1171875 0.2246094,0.1171875 0.4003906,0 0.46875,0.078125 0.546875,0.2246094 l 1.0546875,2.2363281 -1.6308594,1.6601562 c -0.4785156,0.47851566 -0.8496093,0.76171878 -1.41601558,0.79101566 -0.0976563,0.009766 -0.1953125,0.009766 -0.1953125,0.15625 0,0.0390625 0.0390625,0.10742187333 0.1171875,0.10742187333 0.0585938,0 0.14648437,-0.0195312533 0.75195308,-0.0195312533 0.5761719,0 0.8203125,0.0195312533 0.8496094,0.0195312533 0.039063,0 0.1660156,0 0.1660156,-0.15625000333 0,-0.009766 -0.00977,-0.0976563 -0.1269531,-0.10742187 -0.15625,-0.009766 -0.2636719,-0.0585938 -0.2636719,-0.20507813 0,-0.12695312 0.087891,-0.234375 0.2148438,-0.3515625 0.1367187,-0.15625 0.546875,-0.56640623 0.8300781,-0.84960933 0.1855469,-0.1757813 0.6347656,-0.6445313 0.8203125,-0.8203125 l 0.9082031,1.90429683 c 0.048828,0.0878906 0.048828,0.0878906 0.048828,0.0976563 0,0.078125 -0.1757813,0.20507813 -0.4296875,0.22460938 -0.058594,0 -0.1660157,0.009766 -0.1660157,0.15625 0,0 0.00977,0.10742187333 0.1367188,0.10742187333 0.078125,0 0.3710937,-0.0195312533 0.4589844,-0.0195312533 H 5.078354 c 0.7324218,0 0.8398437,0.0195312533 0.9179687,0.0195312533 0.029297,0 0.1464844,0 0.1464844,-0.15625000333 0,-0.10742187 -0.097656,-0.10742187 -0.2246094,-0.10742187 -0.4296875,0 -0.4785156,-0.0976563 -0.5273437,-0.21484375 z m 0,0" style="fill:#ffffff;fill-opacity:1;fill-rule:nonzero;stroke:none" aria-label="X" transform="matrix(1.6,0,0,1.6,406.06213,292.87467)" />
  </g>
</svg>