<svg width="920" height="1012" viewBox="0 0 920 1012" fill="none" xmlns="http://www.w3.org/2000/svg">
<rect width="920" height="1012" fill="#21272A"/>
<rect x="380" y="100" width="160" height="68" rx="8" fill="#4D5358"/>
<rect x="380" y="100" width="160" height="68" rx="8" stroke="#BE95FF"/>
<path d="M410.32 142H401.68V140.66H405.16V129.38H401.68V128.04H410.32V129.38H406.84V140.66H410.32V142ZM415.552 142H413.952V131.68H415.552V133.36H415.632C416.072 132.34 416.872 131.44 418.572 131.44C420.732 131.44 422.152 132.88 422.152 135.38V142H420.552V135.66C420.552 133.78 419.692 132.86 418.112 132.86C416.832 132.86 415.552 133.48 415.552 134.84V142ZM425.884 146V131.68H427.484V133.36H427.564C428.224 132.1 429.304 131.44 430.744 131.44C433.264 131.44 434.784 133.46 434.784 136.84C434.784 140.22 433.264 142.24 430.744 142.24C429.304 142.24 428.224 141.58 427.564 140.32H427.484V146H425.884ZM430.124 140.82C431.984 140.82 433.064 139.58 433.064 137.72V135.96C433.064 134.1 431.984 132.86 430.124 132.86C428.704 132.86 427.484 133.6 427.484 134.98V138.7C427.484 140.08 428.704 140.82 430.124 140.82ZM444.417 142V140.32H444.337C443.897 141.34 443.097 142.24 441.397 142.24C439.237 142.24 437.817 140.8 437.817 138.3V131.68H439.417V138.02C439.417 139.9 440.277 140.82 441.857 140.82C443.137 140.82 444.417 140.2 444.417 138.84V131.68H446.017V142H444.417ZM458.489 142H454.469C452.909 142 452.189 141.02 452.189 139.64V133.04H448.749V131.68H451.309C451.989 131.68 452.249 131.44 452.249 130.74V128.04H453.789V131.68H458.489V133.04H453.789V140.64H458.489V142ZM475.433 142H473.753V128.04H478.833C481.413 128.04 482.813 129.54 482.813 132.06C482.813 134.58 481.413 136.08 478.833 136.08H475.433V142ZM475.433 129.5V134.62H478.793C480.193 134.62 481.033 133.88 481.033 132.58V131.54C481.033 130.24 480.193 129.5 478.793 129.5H475.433ZM485.845 142V128.04H489.745C493.145 128.04 494.825 130.44 494.825 135.02C494.825 139.6 493.145 142 489.745 142H485.845ZM487.525 140.54H489.665C491.885 140.54 493.045 138.9 493.045 136.1V133.94C493.045 131.14 491.885 129.5 489.665 129.5H487.525V140.54ZM506.338 142H497.738V128.04H506.338V129.5H499.418V134.2H506.098V135.66H499.418V140.54H506.338V142ZM514.05 142.24C511.89 142.24 510.35 141.44 509.27 140.22L510.35 139.28C511.33 140.32 512.45 140.9 514.09 140.9C515.69 140.9 516.83 140.34 516.83 139.12C516.83 138.04 515.95 137.76 515.01 137.62L513.39 137.38C511.93 137.16 509.85 136.76 509.85 134.52C509.85 132.46 511.61 131.44 514.01 131.44C515.87 131.44 517.23 132.06 518.21 133.1L517.17 134.08C516.69 133.5 515.77 132.78 513.95 132.78C512.33 132.78 511.43 133.36 511.43 134.42C511.43 135.5 512.33 135.78 513.25 135.92L514.87 136.16C516.35 136.38 518.41 136.78 518.41 139.02C518.41 141.06 516.69 142.24 514.05 142.24Z" fill="#F4F4F4"/>
<path d="M460 200L462.887 195L457.113 195L460 200ZM460 168L459.5 168L459.5 195.5L460 195.5L460.5 195.5L460.5 168L460 168Z" fill="#F2F4F8"/>
<rect x="146" y="253" width="268" height="108" rx="8" fill="#4D5358"/>
<rect x="146" y="253" width="268" height="108" rx="8" stroke="#BE95FF"/>
<path d="M173.14 295H170.86L166.72 281.04H168.5L170.48 288.02L171.98 293.3H172.08L173.58 288.02L175.56 281.04H177.28L173.14 295ZM187.812 296.92V298.28H185.472C183.912 298.28 183.192 297.3 183.192 295.92V295.18C180.352 294.8 179.112 292.2 179.112 288.02C179.112 283.46 180.592 280.8 183.992 280.8C187.392 280.8 188.872 283.46 188.872 288.02C188.872 292.2 187.612 294.8 184.792 295.18V296.92H187.812ZM183.992 293.78C186.212 293.78 187.092 291.96 187.092 289.16V286.88C187.092 284.08 186.212 282.26 183.992 282.26C181.772 282.26 180.892 284.08 180.892 286.88V289.16C180.892 291.96 181.772 293.78 183.992 293.78ZM196.444 295.24C193.044 295.24 191.384 292.66 191.384 288.02C191.384 283.38 193.044 280.8 196.444 280.8C199.004 280.8 200.064 282.34 200.744 283.86L199.304 284.52C198.804 283.28 198.144 282.26 196.444 282.26C194.224 282.26 193.164 284.08 193.164 286.88V289.16C193.164 291.96 194.224 293.78 196.444 293.78C198.144 293.78 198.804 292.76 199.304 291.52L200.744 292.18C200.064 293.7 199.004 295.24 196.444 295.24Z" fill="#F4F4F4"/>
<rect x="146" y="445" width="268" height="96" rx="8" fill="#4D5358"/>
<rect x="146" y="445" width="268" height="96" rx="8" stroke="#BE95FF"/>
<path d="M176.7 487H168.4V473.04H170.08V485.54H176.7V487ZM183.992 487.24C181.092 487.24 179.312 485.12 179.312 481.84C179.312 478.56 181.092 476.44 183.992 476.44C186.892 476.44 188.672 478.56 188.672 481.84C188.672 485.12 186.892 487.24 183.992 487.24ZM183.992 485.86C185.772 485.86 186.972 484.8 186.972 482.58V481.1C186.972 478.88 185.772 477.82 183.992 477.82C182.212 477.82 181.012 478.88 181.012 481.1V482.58C181.012 484.8 182.212 485.86 183.992 485.86ZM196.104 487.24C193.944 487.24 192.404 486.44 191.324 485.22L192.404 484.28C193.384 485.32 194.504 485.9 196.144 485.9C197.744 485.9 198.884 485.34 198.884 484.12C198.884 483.04 198.004 482.76 197.064 482.62L195.444 482.38C193.984 482.16 191.904 481.76 191.904 479.52C191.904 477.46 193.664 476.44 196.064 476.44C197.924 476.44 199.284 477.06 200.264 478.1L199.224 479.08C198.744 478.5 197.824 477.78 196.004 477.78C194.384 477.78 193.484 478.36 193.484 479.42C193.484 480.5 194.384 480.78 195.304 480.92L196.924 481.16C198.404 481.38 200.464 481.78 200.464 484.02C200.464 486.06 198.744 487.24 196.104 487.24ZM208.097 487.24C205.937 487.24 204.397 486.44 203.317 485.22L204.397 484.28C205.377 485.32 206.497 485.9 208.137 485.9C209.737 485.9 210.877 485.34 210.877 484.12C210.877 483.04 209.997 482.76 209.057 482.62L207.437 482.38C205.977 482.16 203.897 481.76 203.897 479.52C203.897 477.46 205.657 476.44 208.057 476.44C209.917 476.44 211.277 477.06 212.257 478.1L211.217 479.08C210.737 478.5 209.817 477.78 207.997 477.78C206.377 477.78 205.477 478.36 205.477 479.42C205.477 480.5 206.377 480.78 207.297 480.92L208.917 481.16C210.397 481.38 212.457 481.78 212.457 484.02C212.457 486.06 210.737 487.24 208.097 487.24ZM227.621 487V485.64H231.101V478.04H227.421V476.68H231.101V474.56C231.101 473.18 231.821 472.2 233.381 472.2H236.841V473.56H232.701V476.68H236.841V478.04H232.701V485.64H236.381V487H227.621ZM246.393 487V485.32H246.313C245.873 486.34 245.073 487.24 243.373 487.24C241.213 487.24 239.793 485.8 239.793 483.3V476.68H241.393V483.02C241.393 484.9 242.253 485.82 243.833 485.82C245.113 485.82 246.393 485.2 246.393 483.84V476.68H247.993V487H246.393ZM253.505 487H251.905V476.68H253.505V478.36H253.585C254.025 477.34 254.825 476.44 256.525 476.44C258.685 476.44 260.105 477.88 260.105 480.38V487H258.505V480.66C258.505 478.78 257.645 477.86 256.065 477.86C254.785 477.86 253.505 478.48 253.505 479.84V487ZM268.298 487.24C265.338 487.24 263.618 485.1 263.618 481.84C263.618 478.56 265.358 476.44 268.278 476.44C270.278 476.44 271.518 477.42 272.098 478.82L270.818 479.5C270.438 478.44 269.558 477.82 268.278 477.82C266.398 477.82 265.338 479.14 265.338 480.96V482.72C265.338 484.54 266.378 485.86 268.318 485.86C269.698 485.86 270.598 485.18 271.118 484.06L272.258 484.84C271.658 486.22 270.358 487.24 268.298 487.24ZM284.45 487H280.43C278.87 487 278.15 486.02 278.15 484.64V478.04H274.71V476.68H277.27C277.95 476.68 278.21 476.44 278.21 475.74V473.04H279.75V476.68H284.45V478.04H279.75V485.64H284.45V487ZM292.562 474.4C291.642 474.4 291.302 473.96 291.302 473.38V473.06C291.302 472.48 291.642 472.04 292.562 472.04C293.482 472.04 293.822 472.48 293.822 473.06V473.38C293.822 473.96 293.482 474.4 292.562 474.4ZM288.042 487V485.64H291.762V478.04H288.042V476.68H293.362V485.64H296.842V487H288.042ZM303.914 487.24C301.014 487.24 299.234 485.12 299.234 481.84C299.234 478.56 301.014 476.44 303.914 476.44C306.814 476.44 308.594 478.56 308.594 481.84C308.594 485.12 306.814 487.24 303.914 487.24ZM303.914 485.86C305.694 485.86 306.894 484.8 306.894 482.58V481.1C306.894 478.88 305.694 477.82 303.914 477.82C302.134 477.82 300.934 478.88 300.934 481.1V482.58C300.934 484.8 302.134 485.86 303.914 485.86ZM313.466 487H311.866V476.68H313.466V478.36H313.546C313.986 477.34 314.786 476.44 316.486 476.44C318.646 476.44 320.066 477.88 320.066 480.38V487H318.466V480.66C318.466 478.78 317.606 477.86 316.026 477.86C314.746 477.86 313.466 478.48 313.466 479.84V487ZM328.018 487.24C325.858 487.24 324.318 486.44 323.238 485.22L324.318 484.28C325.298 485.32 326.418 485.9 328.058 485.9C329.658 485.9 330.798 485.34 330.798 484.12C330.798 483.04 329.918 482.76 328.978 482.62L327.358 482.38C325.898 482.16 323.818 481.76 323.818 479.52C323.818 477.46 325.578 476.44 327.978 476.44C329.838 476.44 331.198 477.06 332.178 478.1L331.138 479.08C330.658 478.5 329.738 477.78 327.918 477.78C326.298 477.78 325.398 478.36 325.398 479.42C325.398 480.5 326.298 480.78 327.218 480.92L328.838 481.16C330.318 481.38 332.378 481.78 332.378 484.02C332.378 486.06 330.658 487.24 328.018 487.24Z" fill="#F4F4F4"/>
<rect x="374" y="613" width="172" height="68" rx="8" fill="#4D5358"/>
<rect x="374" y="613" width="172" height="68" rx="8" stroke="#BE95FF"/>
<path d="M400 655.24C396.6 655.24 395.12 652.58 395.12 648.02C395.12 643.46 396.6 640.8 400 640.8C403.4 640.8 404.88 643.46 404.88 648.02C404.88 652.58 403.4 655.24 400 655.24ZM400 653.78C402.22 653.78 403.1 651.96 403.1 649.16V646.88C403.1 644.08 402.22 642.26 400 642.26C397.78 642.26 396.9 644.08 396.9 646.88V649.16C396.9 651.96 397.78 653.78 400 653.78ZM407.892 659V644.68H409.492V646.36H409.572C410.232 645.1 411.312 644.44 412.752 644.44C415.272 644.44 416.792 646.46 416.792 649.84C416.792 653.22 415.272 655.24 412.752 655.24C411.312 655.24 410.232 654.58 409.572 653.32H409.492V659H407.892ZM412.132 653.82C413.992 653.82 415.072 652.58 415.072 650.72V648.96C415.072 647.1 413.992 645.86 412.132 645.86C410.712 645.86 409.492 646.6 409.492 647.98V651.7C409.492 653.08 410.712 653.82 412.132 653.82ZM428.504 655H424.484C422.924 655 422.204 654.02 422.204 652.64V646.04H418.764V644.68H421.324C422.004 644.68 422.264 644.44 422.264 643.74V641.04H423.804V644.68H428.504V646.04H423.804V653.64H428.504V655ZM436.617 642.4C435.697 642.4 435.357 641.96 435.357 641.38V641.06C435.357 640.48 435.697 640.04 436.617 640.04C437.537 640.04 437.877 640.48 437.877 641.06V641.38C437.877 641.96 437.537 642.4 436.617 642.4ZM432.097 655V653.64H435.817V646.04H432.097V644.68H437.417V653.64H440.897V655H432.097ZM444.529 655H443.049V644.68H444.529V645.88H444.609C444.929 645.08 445.449 644.44 446.589 644.44C447.769 644.44 448.349 645.1 448.469 646.06H448.529C448.909 645.12 449.549 644.44 450.769 644.44C452.449 644.44 452.889 645.66 452.889 647.84V655H451.409V648.1C451.409 646.34 451.109 645.76 450.149 645.76C449.309 645.76 448.709 646.32 448.709 647.42V655H447.229V648.1C447.229 646.34 446.929 645.76 445.989 645.76C445.129 645.76 444.529 646.32 444.529 647.42V655ZM464.961 655H463.861C462.621 655 462.141 654.28 462.021 653.32H461.921C461.481 654.5 460.501 655.24 458.821 655.24C456.661 655.24 455.281 654.04 455.281 652.1C455.281 650.2 456.621 649.1 459.721 649.1H461.921V648.08C461.921 646.58 461.021 645.8 459.461 645.8C458.081 645.8 457.241 646.38 456.701 647.32L455.621 646.52C456.141 645.44 457.461 644.44 459.561 644.44C461.981 644.44 463.521 645.74 463.521 647.92V653.6H464.961V655ZM459.101 653.9C460.741 653.9 461.921 653.06 461.921 652V650.3H459.721C457.821 650.3 456.961 650.86 456.961 651.86V652.28C456.961 653.34 457.781 653.9 459.101 653.9ZM467.553 655V653.64H471.153V641.56H467.553V640.2H472.753V653.64H476.353V655H467.553ZM497.078 655H494.798L490.658 641.04H492.438L494.418 648.02L495.918 653.3H496.018L497.518 648.02L499.498 641.04H501.218L497.078 655ZM511.75 656.92V658.28H509.41C507.85 658.28 507.13 657.3 507.13 655.92V655.18C504.29 654.8 503.05 652.2 503.05 648.02C503.05 643.46 504.53 640.8 507.93 640.8C511.33 640.8 512.81 643.46 512.81 648.02C512.81 652.2 511.55 654.8 508.73 655.18V656.92H511.75ZM507.93 653.78C510.15 653.78 511.03 651.96 511.03 649.16V646.88C511.03 644.08 510.15 642.26 507.93 642.26C505.71 642.26 504.83 644.08 504.83 646.88V649.16C504.83 651.96 505.71 653.78 507.93 653.78ZM520.382 655.24C516.982 655.24 515.322 652.66 515.322 648.02C515.322 643.38 516.982 640.8 520.382 640.8C522.942 640.8 524.002 642.34 524.682 643.86L523.242 644.52C522.742 643.28 522.082 642.26 520.382 642.26C518.162 642.26 517.102 644.08 517.102 646.88V649.16C517.102 651.96 518.162 653.78 520.382 653.78C522.082 653.78 522.742 652.76 523.242 651.52L524.682 652.18C524.002 653.7 522.942 655.24 520.382 655.24Z" fill="#F4F4F4"/>
<rect x="332" y="782" width="256" height="96" rx="8" fill="#4D5358"/>
<rect x="332" y="782" width="256" height="96" rx="8" stroke="#BE95FF"/>
<path d="M358 823.24C354.6 823.24 353.12 820.58 353.12 816.02C353.12 811.46 354.6 808.8 358 808.8C361.4 808.8 362.88 811.46 362.88 816.02C362.88 820.58 361.4 823.24 358 823.24ZM358 821.78C360.22 821.78 361.1 819.96 361.1 817.16V814.88C361.1 812.08 360.22 810.26 358 810.26C355.78 810.26 354.9 812.08 354.9 814.88V817.16C354.9 819.96 355.78 821.78 358 821.78ZM365.592 809.04H367.272V817.42C367.272 820.12 367.372 821.78 369.992 821.78C372.612 821.78 372.712 820.12 372.712 817.42V809.04H374.392V817.02C374.392 821.16 373.792 823.24 369.992 823.24C366.192 823.24 365.592 821.16 365.592 817.02V809.04ZM387.484 810.5H382.824V823H381.144V810.5H376.484V809.04H387.484V810.5ZM391.457 823H389.777V809.04H394.857C397.437 809.04 398.837 810.54 398.837 813.06C398.837 815.58 397.437 817.08 394.857 817.08H391.457V823ZM391.457 810.5V815.62H394.817C396.217 815.62 397.057 814.88 397.057 813.58V812.54C397.057 811.24 396.217 810.5 394.817 810.5H391.457ZM401.569 809.04H403.249V817.42C403.249 820.12 403.349 821.78 405.969 821.78C408.589 821.78 408.689 820.12 408.689 817.42V809.04H410.369V817.02C410.369 821.16 409.769 823.24 405.969 823.24C402.169 823.24 401.569 821.16 401.569 817.02V809.04ZM423.461 810.5H418.801V823H417.121V810.5H412.461V809.04H423.461V810.5ZM429.953 823.18C428.873 823.18 428.473 822.66 428.473 821.98V821.62C428.473 820.94 428.873 820.42 429.953 820.42C431.033 820.42 431.433 820.94 431.433 821.62V821.98C431.433 822.66 431.033 823.18 429.953 823.18ZM429.953 815.26C428.873 815.26 428.473 814.74 428.473 814.06V813.7C428.473 813.02 428.873 812.5 429.953 812.5C431.033 812.5 431.433 813.02 431.433 813.7V814.06C431.433 814.74 431.033 815.26 429.953 815.26ZM357.96 849.24C355.46 849.24 353.94 848.22 352.9 846.78L354.12 845.78C355.2 847.14 356.34 847.8 358.02 847.8C360.04 847.8 361.14 846.82 361.14 845.14C361.14 843.78 360.44 843.06 358.54 842.74L356.98 842.48C354.24 842.02 353.38 840.44 353.38 838.68C353.38 836.12 355.2 834.8 358.04 834.8C360.26 834.8 361.78 835.6 362.72 836.94L361.54 837.96C360.76 836.94 359.76 836.24 358.02 836.24C356.14 836.24 355.08 837.06 355.08 838.64C355.08 839.88 355.72 840.68 357.7 841.02L359.2 841.28C361.94 841.76 362.84 843.28 362.84 845.1C362.84 847.68 361.06 849.24 357.96 849.24ZM369.992 849.24C367.092 849.24 365.312 847.12 365.312 843.84C365.312 840.56 367.092 838.44 369.992 838.44C372.892 838.44 374.672 840.56 374.672 843.84C374.672 847.12 372.892 849.24 369.992 849.24ZM369.992 847.86C371.772 847.86 372.972 846.8 372.972 844.58V843.1C372.972 840.88 371.772 839.82 369.992 839.82C368.212 839.82 367.012 840.88 367.012 843.1V844.58C367.012 846.8 368.212 847.86 369.992 847.86ZM377.584 849V847.64H381.184V835.56H377.584V834.2H382.784V847.64H386.384V849H377.584ZM396.417 849V847.32H396.337C395.897 848.34 395.097 849.24 393.397 849.24C391.237 849.24 389.817 847.8 389.817 845.3V838.68H391.417V845.02C391.417 846.9 392.277 847.82 393.857 847.82C395.137 847.82 396.417 847.2 396.417 845.84V838.68H398.017V849H396.417ZM410.489 849H406.469C404.909 849 404.189 848.02 404.189 846.64V840.04H400.749V838.68H403.309C403.989 838.68 404.249 838.44 404.249 837.74V835.04H405.789V838.68H410.489V840.04H405.789V847.64H410.489V849ZM418.601 836.4C417.681 836.4 417.341 835.96 417.341 835.38V835.06C417.341 834.48 417.681 834.04 418.601 834.04C419.521 834.04 419.861 834.48 419.861 835.06V835.38C419.861 835.96 419.521 836.4 418.601 836.4ZM414.081 849V847.64H417.801V840.04H414.081V838.68H419.401V847.64H422.881V849H414.081ZM429.953 849.24C427.053 849.24 425.273 847.12 425.273 843.84C425.273 840.56 427.053 838.44 429.953 838.44C432.853 838.44 434.633 840.56 434.633 843.84C434.633 847.12 432.853 849.24 429.953 849.24ZM429.953 847.86C431.733 847.86 432.933 846.8 432.933 844.58V843.1C432.933 840.88 431.733 839.82 429.953 839.82C428.173 839.82 426.973 840.88 426.973 843.1V844.58C426.973 846.8 428.173 847.86 429.953 847.86ZM439.505 849H437.905V838.68H439.505V840.36H439.585C440.025 839.34 440.825 838.44 442.525 838.44C444.685 838.44 446.105 839.88 446.105 842.38V849H444.505V842.66C444.505 840.78 443.645 839.86 442.065 839.86C440.785 839.86 439.505 840.48 439.505 841.84V849ZM461.59 849V847.64H465.07V840.04H461.39V838.68H465.07V836.56C465.07 835.18 465.79 834.2 467.35 834.2H470.81V835.56H466.67V838.68H470.81V840.04H466.67V847.64H470.35V849H461.59ZM480.362 849V847.32H480.282C479.842 848.34 479.042 849.24 477.342 849.24C475.182 849.24 473.762 847.8 473.762 845.3V838.68H475.362V845.02C475.362 846.9 476.222 847.82 477.802 847.82C479.082 847.82 480.362 847.2 480.362 845.84V838.68H481.962V849H480.362ZM487.474 849H485.874V838.68H487.474V840.36H487.554C487.994 839.34 488.794 838.44 490.494 838.44C492.654 838.44 494.074 839.88 494.074 842.38V849H492.474V842.66C492.474 840.78 491.614 839.86 490.034 839.86C488.754 839.86 487.474 840.48 487.474 841.84V849ZM502.266 849.24C499.306 849.24 497.586 847.1 497.586 843.84C497.586 840.56 499.326 838.44 502.246 838.44C504.246 838.44 505.486 839.42 506.066 840.82L504.786 841.5C504.406 840.44 503.526 839.82 502.246 839.82C500.366 839.82 499.306 841.14 499.306 842.96V844.72C499.306 846.54 500.346 847.86 502.286 847.86C503.666 847.86 504.566 847.18 505.086 846.06L506.226 846.84C505.626 848.22 504.326 849.24 502.266 849.24ZM518.418 849H514.398C512.838 849 512.118 848.02 512.118 846.64V840.04H508.678V838.68H511.238C511.918 838.68 512.178 838.44 512.178 837.74V835.04H513.718V838.68H518.418V840.04H513.718V847.64H518.418V849ZM526.531 836.4C525.611 836.4 525.271 835.96 525.271 835.38V835.06C525.271 834.48 525.611 834.04 526.531 834.04C527.451 834.04 527.791 834.48 527.791 835.06V835.38C527.791 835.96 527.451 836.4 526.531 836.4ZM522.011 849V847.64H525.731V840.04H522.011V838.68H527.331V847.64H530.811V849H522.011ZM537.883 849.24C534.983 849.24 533.203 847.12 533.203 843.84C533.203 840.56 534.983 838.44 537.883 838.44C540.783 838.44 542.563 840.56 542.563 843.84C542.563 847.12 540.783 849.24 537.883 849.24ZM537.883 847.86C539.663 847.86 540.863 846.8 540.863 844.58V843.1C540.863 840.88 539.663 839.82 537.883 839.82C536.103 839.82 534.903 840.88 534.903 843.1V844.58C534.903 846.8 536.103 847.86 537.883 847.86ZM547.435 849H545.835V838.68H547.435V840.36H547.515C547.955 839.34 548.755 838.44 550.455 838.44C552.615 838.44 554.035 839.88 554.035 842.38V849H552.435V842.66C552.435 840.78 551.575 839.86 549.995 839.86C548.715 839.86 547.435 840.48 547.435 841.84V849ZM561.987 849.24C559.827 849.24 558.287 848.44 557.207 847.22L558.287 846.28C559.267 847.32 560.387 847.9 562.027 847.9C563.627 847.9 564.767 847.34 564.767 846.12C564.767 845.04 563.887 844.76 562.947 844.62L561.327 844.38C559.867 844.16 557.787 843.76 557.787 841.52C557.787 839.46 559.547 838.44 561.947 838.44C563.807 838.44 565.167 839.06 566.147 840.1L565.107 841.08C564.627 840.5 563.707 839.78 561.887 839.78C560.267 839.78 559.367 840.36 559.367 841.42C559.367 842.5 560.267 842.78 561.187 842.92L562.807 843.16C564.287 843.38 566.347 843.78 566.347 846.02C566.347 848.06 564.627 849.24 561.987 849.24Z" fill="#F4F4F4"/>
<rect x="510" y="253" width="268" height="108" rx="8" fill="#4D5358"/>
<rect x="510" y="253" width="268" height="108" rx="8" stroke="#BE95FF"/>
<path d="M540.4 293H531.8V279.04H540.4V280.5H533.48V285.2H540.16V286.66H533.48V291.54H540.4V293ZM545.052 293H543.212L547.052 287.76L543.312 282.68H545.232L546.792 284.86L548.032 286.58H548.112L549.312 284.86L550.852 282.68H552.692L548.912 287.74L552.792 293H550.872L549.132 290.58L547.952 288.94H547.872L546.732 290.58L545.052 293ZM560.164 293.24C557.204 293.24 555.324 291.12 555.324 287.86C555.324 284.56 557.264 282.44 560.064 282.44C562.844 282.44 564.644 284.56 564.644 287.48V288.24H557.004V288.72C557.004 290.54 558.224 291.86 560.164 291.86C561.544 291.86 562.584 291.18 563.124 290.06L564.304 290.86C563.684 292.24 562.204 293.24 560.164 293.24ZM560.064 283.76C558.304 283.76 557.004 285.1 557.004 286.9V287.04H562.924V286.82C562.924 285 561.764 283.76 560.064 283.76ZM572.337 293.24C569.377 293.24 567.657 291.1 567.657 287.84C567.657 284.56 569.397 282.44 572.317 282.44C574.317 282.44 575.557 283.42 576.137 284.82L574.857 285.5C574.477 284.44 573.597 283.82 572.317 283.82C570.437 283.82 569.377 285.14 569.377 286.96V288.72C569.377 290.54 570.417 291.86 572.357 291.86C573.737 291.86 574.637 291.18 575.157 290.06L576.297 290.84C575.697 292.22 574.397 293.24 572.337 293.24ZM586.409 293V291.32H586.329C585.889 292.34 585.089 293.24 583.389 293.24C581.229 293.24 579.809 291.8 579.809 289.3V282.68H581.409V289.02C581.409 290.9 582.269 291.82 583.849 291.82C585.129 291.82 586.409 291.2 586.409 289.84V282.68H588.009V293H586.409ZM600.481 293H596.461C594.901 293 594.181 292.02 594.181 290.64V284.04H590.741V282.68H593.301C593.981 282.68 594.241 282.44 594.241 281.74V279.04H595.781V282.68H600.481V284.04H595.781V291.64H600.481V293ZM608.593 280.4C607.673 280.4 607.333 279.96 607.333 279.38V279.06C607.333 278.48 607.673 278.04 608.593 278.04C609.513 278.04 609.853 278.48 609.853 279.06V279.38C609.853 279.96 609.513 280.4 608.593 280.4ZM604.073 293V291.64H607.793V284.04H604.073V282.68H609.393V291.64H612.873V293H604.073ZM619.945 293.24C617.045 293.24 615.265 291.12 615.265 287.84C615.265 284.56 617.045 282.44 619.945 282.44C622.845 282.44 624.625 284.56 624.625 287.84C624.625 291.12 622.845 293.24 619.945 293.24ZM619.945 291.86C621.725 291.86 622.925 290.8 622.925 288.58V287.1C622.925 284.88 621.725 283.82 619.945 283.82C618.165 283.82 616.965 284.88 616.965 287.1V288.58C616.965 290.8 618.165 291.86 619.945 291.86ZM629.498 293H627.898V282.68H629.498V284.36H629.578C630.018 283.34 630.818 282.44 632.518 282.44C634.678 282.44 636.098 283.88 636.098 286.38V293H634.498V286.66C634.498 284.78 633.638 283.86 632.058 283.86C630.778 283.86 629.498 284.48 629.498 285.84V293ZM655.922 293.24C653.022 293.24 651.242 291.12 651.242 287.84C651.242 284.56 653.022 282.44 655.922 282.44C658.822 282.44 660.602 284.56 660.602 287.84C660.602 291.12 658.822 293.24 655.922 293.24ZM655.922 291.86C657.702 291.86 658.902 290.8 658.902 288.58V287.1C658.902 284.88 657.702 283.82 655.922 283.82C654.142 283.82 652.942 284.88 652.942 287.1V288.58C652.942 290.8 654.142 291.86 655.922 291.86ZM665.474 293H663.874V282.68H665.474V284.36H665.554C665.994 283.34 666.794 282.44 668.494 282.44C670.654 282.44 672.074 283.88 672.074 286.38V293H670.474V286.66C670.474 284.78 669.614 283.86 668.034 283.86C666.754 283.86 665.474 284.48 665.474 285.84V293ZM538.5 321V315.32H538.42C537.76 316.58 536.68 317.24 535.24 317.24C532.72 317.24 531.2 315.22 531.2 311.84C531.2 308.46 532.72 306.44 535.24 306.44C536.68 306.44 537.76 307.1 538.42 308.36H538.5V306.68H540.1V321H538.5ZM535.86 315.82C537.28 315.82 538.5 315.08 538.5 313.7V309.98C538.5 308.6 537.28 307.86 535.86 307.86C534 307.86 532.92 309.1 532.92 310.96V312.72C532.92 314.58 534 315.82 535.86 315.82ZM550.432 317V315.32H550.352C549.912 316.34 549.112 317.24 547.412 317.24C545.252 317.24 543.832 315.8 543.832 313.3V306.68H545.432V313.02C545.432 314.9 546.292 315.82 547.872 315.82C549.152 315.82 550.432 315.2 550.432 313.84V306.68H552.032V317H550.432ZM564.984 317H563.884C562.644 317 562.164 316.28 562.044 315.32H561.944C561.504 316.5 560.524 317.24 558.844 317.24C556.684 317.24 555.304 316.04 555.304 314.1C555.304 312.2 556.644 311.1 559.744 311.1H561.944V310.08C561.944 308.58 561.044 307.8 559.484 307.8C558.104 307.8 557.264 308.38 556.724 309.32L555.644 308.52C556.164 307.44 557.484 306.44 559.584 306.44C562.004 306.44 563.544 307.74 563.544 309.92V315.6H564.984V317ZM559.124 315.9C560.764 315.9 561.944 315.06 561.944 314V312.3H559.744C557.844 312.3 556.984 312.86 556.984 313.86V314.28C556.984 315.34 557.804 315.9 559.124 315.9ZM569.537 317H567.937V306.68H569.537V308.36H569.617C570.057 307.34 570.857 306.44 572.557 306.44C574.717 306.44 576.137 307.88 576.137 310.38V317H574.537V310.66C574.537 308.78 573.677 307.86 572.097 307.86C570.817 307.86 569.537 308.48 569.537 309.84V317ZM588.489 317H584.469C582.909 317 582.189 316.02 582.189 314.64V308.04H578.749V306.68H581.309C581.989 306.68 582.249 306.44 582.249 305.74V303.04H583.789V306.68H588.489V308.04H583.789V315.64H588.489V317ZM598.401 317V315.32H598.321C597.881 316.34 597.081 317.24 595.381 317.24C593.221 317.24 591.801 315.8 591.801 313.3V306.68H593.401V313.02C593.401 314.9 594.261 315.82 595.841 315.82C597.121 315.82 598.401 315.2 598.401 313.84V306.68H600.001V317H598.401ZM604.513 317H603.033V306.68H604.513V307.88H604.593C604.913 307.08 605.433 306.44 606.573 306.44C607.753 306.44 608.333 307.1 608.453 308.06H608.513C608.893 307.12 609.533 306.44 610.753 306.44C612.433 306.44 612.873 307.66 612.873 309.84V317H611.393V310.1C611.393 308.34 611.093 307.76 610.133 307.76C609.293 307.76 608.693 308.32 608.693 309.42V317H607.213V310.1C607.213 308.34 606.913 307.76 605.973 307.76C605.113 307.76 604.513 308.32 604.513 309.42V317ZM627.898 317V302.2H629.498V308.36H629.578C630.018 307.34 630.818 306.44 632.518 306.44C634.678 306.44 636.098 307.88 636.098 310.38V317H634.498V310.66C634.498 308.78 633.638 307.86 632.058 307.86C630.778 307.86 629.498 308.48 629.498 309.84V317H627.898ZM648.93 317H647.83C646.59 317 646.11 316.28 645.99 315.32H645.89C645.45 316.5 644.47 317.24 642.79 317.24C640.63 317.24 639.25 316.04 639.25 314.1C639.25 312.2 640.59 311.1 643.69 311.1H645.89V310.08C645.89 308.58 644.99 307.8 643.43 307.8C642.05 307.8 641.21 308.38 640.67 309.32L639.59 308.52C640.11 307.44 641.43 306.44 643.53 306.44C645.95 306.44 647.49 307.74 647.49 309.92V315.6H648.93V317ZM643.07 315.9C644.71 315.9 645.89 315.06 645.89 314V312.3H643.69C641.79 312.3 640.93 312.86 640.93 313.86V314.28C640.93 315.34 641.75 315.9 643.07 315.9ZM651.462 317V315.64H654.482V308.04H651.462V306.68H656.082V309.28H656.182C656.582 307.92 657.502 306.68 659.662 306.68H661.102V308.28H659.162C657.142 308.28 656.082 309.58 656.082 311.18V315.64H659.302V317H651.462ZM670.414 317V315.32H670.334C669.674 316.58 668.594 317.24 667.154 317.24C664.634 317.24 663.114 315.22 663.114 311.84C663.114 308.46 664.634 306.44 667.154 306.44C668.594 306.44 669.674 307.1 670.334 308.36H670.414V302.2H672.014V317H670.414ZM667.774 315.82C669.194 315.82 670.414 315.08 670.414 313.7V309.98C670.414 308.6 669.194 307.86 667.774 307.86C665.914 307.86 664.834 309.1 664.834 310.96V312.72C664.834 314.58 665.914 315.82 667.774 315.82ZM676.086 317L674.506 306.68H675.926L677.106 315.6H677.286L679.046 306.68H680.806L682.566 315.6H682.746L683.926 306.68H685.306L683.726 317H681.646L680.006 308.36H679.846L678.166 317H676.086ZM696.898 317H695.798C694.558 317 694.078 316.28 693.958 315.32H693.858C693.418 316.5 692.438 317.24 690.758 317.24C688.598 317.24 687.218 316.04 687.218 314.1C687.218 312.2 688.558 311.1 691.658 311.1H693.858V310.08C693.858 308.58 692.958 307.8 691.398 307.8C690.018 307.8 689.178 308.38 688.638 309.32L687.558 308.52C688.078 307.44 689.398 306.44 691.498 306.44C693.918 306.44 695.458 307.74 695.458 309.92V315.6H696.898V317ZM691.038 315.9C692.678 315.9 693.858 315.06 693.858 314V312.3H691.658C689.758 312.3 688.898 312.86 688.898 313.86V314.28C688.898 315.34 689.718 315.9 691.038 315.9ZM699.431 317V315.64H702.451V308.04H699.431V306.68H704.051V309.28H704.151C704.551 307.92 705.471 306.68 707.631 306.68H709.071V308.28H707.131C705.111 308.28 704.051 309.58 704.051 311.18V315.64H707.271V317H699.431ZM716.063 317.24C713.103 317.24 711.223 315.12 711.223 311.86C711.223 308.56 713.163 306.44 715.963 306.44C718.743 306.44 720.543 308.56 720.543 311.48V312.24H712.903V312.72C712.903 314.54 714.123 315.86 716.063 315.86C717.443 315.86 718.483 315.18 719.023 314.06L720.203 314.86C719.583 316.24 718.103 317.24 716.063 317.24ZM715.963 307.76C714.203 307.76 712.903 309.1 712.903 310.9V311.04H718.823V310.82C718.823 309 717.663 307.76 715.963 307.76Z" fill="white"/>
<path d="M532.088 342H531.08V333.624H536.36V334.5H532.088V337.32H536V338.196H532.088V342ZM542.579 342V340.992H542.531C542.267 341.604 541.787 342.144 540.767 342.144C539.471 342.144 538.619 341.28 538.619 339.78V335.808H539.579V339.612C539.579 340.74 540.095 341.292 541.043 341.292C541.811 341.292 542.579 340.92 542.579 340.104V335.808H543.539V342H542.579ZM547.167 342H546.207V335.808H547.167V336.816H547.215C547.479 336.204 547.959 335.664 548.979 335.664C550.275 335.664 551.127 336.528 551.127 338.028V342H550.167V338.196C550.167 337.068 549.651 336.516 548.703 336.516C547.935 336.516 547.167 336.888 547.167 337.704V342ZM556.362 342.144C554.586 342.144 553.554 340.86 553.554 338.904C553.554 336.936 554.598 335.664 556.35 335.664C557.55 335.664 558.294 336.252 558.642 337.092L557.874 337.5C557.646 336.864 557.118 336.492 556.35 336.492C555.222 336.492 554.586 337.284 554.586 338.376V339.432C554.586 340.524 555.21 341.316 556.374 341.316C557.202 341.316 557.742 340.908 558.054 340.236L558.738 340.704C558.378 341.532 557.598 342.144 556.362 342.144ZM566.373 342H563.961C563.025 342 562.593 341.412 562.593 340.584V336.624H560.529V335.808H562.065C562.473 335.808 562.629 335.664 562.629 335.244V333.624H563.553V335.808H566.373V336.624H563.553V341.184H566.373V342ZM571.561 334.44C571.009 334.44 570.805 334.176 570.805 333.828V333.636C570.805 333.288 571.009 333.024 571.561 333.024C572.113 333.024 572.317 333.288 572.317 333.636V333.828C572.317 334.176 572.113 334.44 571.561 334.44ZM568.849 342V341.184H571.081V336.624H568.849V335.808H572.041V341.184H574.129V342H568.849ZM578.692 342.144C576.952 342.144 575.884 340.872 575.884 338.904C575.884 336.936 576.952 335.664 578.692 335.664C580.432 335.664 581.5 336.936 581.5 338.904C581.5 340.872 580.432 342.144 578.692 342.144ZM578.692 341.316C579.76 341.316 580.48 340.68 580.48 339.348V338.46C580.48 337.128 579.76 336.492 578.692 336.492C577.624 336.492 576.904 337.128 576.904 338.46V339.348C576.904 340.68 577.624 341.316 578.692 341.316ZM584.743 342H583.783V335.808H584.743V336.816H584.791C585.055 336.204 585.535 335.664 586.555 335.664C587.851 335.664 588.703 336.528 588.703 338.028V342H587.743V338.196C587.743 337.068 587.227 336.516 586.279 336.516C585.511 336.516 584.743 336.888 584.743 337.704V342ZM601.346 342.144C599.57 342.144 598.442 340.872 598.442 338.916C598.442 336.936 599.606 335.664 601.286 335.664C602.954 335.664 604.034 336.936 604.034 338.688V339.144H599.45V339.432C599.45 340.524 600.182 341.316 601.346 341.316C602.174 341.316 602.798 340.908 603.122 340.236L603.83 340.716C603.458 341.544 602.57 342.144 601.346 342.144ZM601.286 336.456C600.23 336.456 599.45 337.26 599.45 338.34V338.424H603.002V338.292C603.002 337.2 602.306 336.456 601.286 336.456ZM609.365 342H608.141L605.921 335.808H606.893L607.781 338.4L608.741 341.196H608.789L609.749 338.4L610.637 335.808H611.585L609.365 342ZM619.268 342H618.608C617.864 342 617.576 341.568 617.504 340.992H617.444C617.18 341.7 616.592 342.144 615.584 342.144C614.288 342.144 613.46 341.424 613.46 340.26C613.46 339.12 614.264 338.46 616.124 338.46H617.444V337.848C617.444 336.948 616.904 336.48 615.968 336.48C615.14 336.48 614.636 336.828 614.312 337.392L613.664 336.912C613.976 336.264 614.768 335.664 616.028 335.664C617.48 335.664 618.404 336.444 618.404 337.752V341.16H619.268V342ZM615.752 341.34C616.736 341.34 617.444 340.836 617.444 340.2V339.18H616.124C614.984 339.18 614.468 339.516 614.468 340.116V340.368C614.468 341.004 614.96 341.34 615.752 341.34ZM621.144 342V341.184H623.304V333.936H621.144V333.12H624.264V341.184H626.424V342H621.144ZM632.763 342V340.992H632.715C632.451 341.604 631.971 342.144 630.951 342.144C629.655 342.144 628.803 341.28 628.803 339.78V335.808H629.763V339.612C629.763 340.74 630.279 341.292 631.227 341.292C631.995 341.292 632.763 340.92 632.763 340.104V335.808H633.723V342H632.763ZM641.814 342H641.154C640.41 342 640.122 341.568 640.05 340.992H639.99C639.726 341.7 639.138 342.144 638.13 342.144C636.834 342.144 636.006 341.424 636.006 340.26C636.006 339.12 636.81 338.46 638.67 338.46H639.99V337.848C639.99 336.948 639.45 336.48 638.514 336.48C637.686 336.48 637.182 336.828 636.858 337.392L636.21 336.912C636.522 336.264 637.314 335.664 638.574 335.664C640.026 335.664 640.95 336.444 640.95 337.752V341.16H641.814V342ZM638.298 341.34C639.282 341.34 639.99 340.836 639.99 340.2V339.18H638.67C637.53 339.18 637.014 339.516 637.014 340.116V340.368C637.014 341.004 637.506 341.34 638.298 341.34ZM649.042 342H646.63C645.694 342 645.262 341.412 645.262 340.584V336.624H643.198V335.808H644.734C645.142 335.808 645.298 335.664 645.298 335.244V333.624H646.222V335.808H649.042V336.624H646.222V341.184H649.042V342ZM654.229 334.44C653.677 334.44 653.473 334.176 653.473 333.828V333.636C653.473 333.288 653.677 333.024 654.229 333.024C654.781 333.024 654.985 333.288 654.985 333.636V333.828C654.985 334.176 654.781 334.44 654.229 334.44ZM651.517 342V341.184H653.749V336.624H651.517V335.808H654.709V341.184H656.797V342H651.517ZM661.36 342.144C659.62 342.144 658.552 340.872 658.552 338.904C658.552 336.936 659.62 335.664 661.36 335.664C663.1 335.664 664.168 336.936 664.168 338.904C664.168 340.872 663.1 342.144 661.36 342.144ZM661.36 341.316C662.428 341.316 663.148 340.68 663.148 339.348V338.46C663.148 337.128 662.428 336.492 661.36 336.492C660.292 336.492 659.572 337.128 659.572 338.46V339.348C659.572 340.68 660.292 341.316 661.36 341.316ZM667.412 342H666.452V335.808H667.412V336.816H667.46C667.724 336.204 668.204 335.664 669.224 335.664C670.52 335.664 671.372 336.528 671.372 338.028V342H670.412V338.196C670.412 337.068 669.896 336.516 668.948 336.516C668.18 336.516 667.412 336.888 667.412 337.704V342Z" fill="white"/>
<rect x="510" y="445" width="268" height="96" rx="8" fill="#4D5358"/>
<rect x="510" y="445" width="268" height="96" rx="8" stroke="#BE95FF"/>
<path d="M540.4 486H531.8V472.04H540.4V473.5H533.48V478.2H540.16V479.66H533.48V484.54H540.4V486ZM549.012 486H546.972L543.272 475.68H544.892L546.372 480L547.972 484.66H548.052L549.652 480L551.132 475.68H552.712L549.012 486ZM564.984 486H563.884C562.644 486 562.164 485.28 562.044 484.32H561.944C561.504 485.5 560.524 486.24 558.844 486.24C556.684 486.24 555.304 485.04 555.304 483.1C555.304 481.2 556.644 480.1 559.744 480.1H561.944V479.08C561.944 477.58 561.044 476.8 559.484 476.8C558.104 476.8 557.264 477.38 556.724 478.32L555.644 477.52C556.164 476.44 557.484 475.44 559.584 475.44C562.004 475.44 563.544 476.74 563.544 478.92V484.6H564.984V486ZM559.124 484.9C560.764 484.9 561.944 484.06 561.944 483V481.3H559.744C557.844 481.3 556.984 481.86 556.984 482.86V483.28C556.984 484.34 557.804 484.9 559.124 484.9ZM567.577 486V484.64H571.177V472.56H567.577V471.2H572.777V484.64H576.377V486H567.577ZM586.409 486V484.32H586.329C585.889 485.34 585.089 486.24 583.389 486.24C581.229 486.24 579.809 484.8 579.809 482.3V475.68H581.409V482.02C581.409 483.9 582.269 484.82 583.849 484.82C585.129 484.82 586.409 484.2 586.409 482.84V475.68H588.009V486H586.409ZM600.961 486H599.861C598.621 486 598.141 485.28 598.021 484.32H597.921C597.481 485.5 596.501 486.24 594.821 486.24C592.661 486.24 591.281 485.04 591.281 483.1C591.281 481.2 592.621 480.1 595.721 480.1H597.921V479.08C597.921 477.58 597.021 476.8 595.461 476.8C594.081 476.8 593.241 477.38 592.701 478.32L591.621 477.52C592.141 476.44 593.461 475.44 595.561 475.44C597.981 475.44 599.521 476.74 599.521 478.92V484.6H600.961V486ZM595.101 484.9C596.741 484.9 597.921 484.06 597.921 483V481.3H595.721C593.821 481.3 592.961 481.86 592.961 482.86V483.28C592.961 484.34 593.781 484.9 595.101 484.9ZM612.473 486H608.453C606.893 486 606.173 485.02 606.173 483.64V477.04H602.733V475.68H605.293C605.973 475.68 606.233 475.44 606.233 474.74V472.04H607.773V475.68H612.473V477.04H607.773V484.64H612.473V486ZM620.125 486.24C617.165 486.24 615.285 484.12 615.285 480.86C615.285 477.56 617.225 475.44 620.025 475.44C622.805 475.44 624.605 477.56 624.605 480.48V481.24H616.965V481.72C616.965 483.54 618.185 484.86 620.125 484.86C621.505 484.86 622.545 484.18 623.085 483.06L624.265 483.86C623.645 485.24 622.165 486.24 620.125 486.24ZM620.025 476.76C618.265 476.76 616.965 478.1 616.965 479.9V480.04H622.885V479.82C622.885 478 621.725 476.76 620.025 476.76ZM641.41 486H639.73V472.04H644.81C647.39 472.04 648.79 473.54 648.79 476.06C648.79 478.58 647.39 480.08 644.81 480.08H641.41V486ZM641.41 473.5V478.62H644.77C646.17 478.62 647.01 477.88 647.01 476.58V475.54C647.01 474.24 646.17 473.5 644.77 473.5H641.41ZM651.822 486V472.04H655.722C659.122 472.04 660.802 474.44 660.802 479.02C660.802 483.6 659.122 486 655.722 486H651.822ZM653.502 484.54H655.642C657.862 484.54 659.022 482.9 659.022 480.1V477.94C659.022 475.14 657.862 473.5 655.642 473.5H653.502V484.54ZM672.314 486H663.714V472.04H672.314V473.5H665.394V478.2H672.074V479.66H665.394V484.54H672.314V486ZM680.026 486.24C677.866 486.24 676.326 485.44 675.246 484.22L676.326 483.28C677.306 484.32 678.426 484.9 680.066 484.9C681.666 484.9 682.806 484.34 682.806 483.12C682.806 482.04 681.926 481.76 680.986 481.62L679.366 481.38C677.906 481.16 675.826 480.76 675.826 478.52C675.826 476.46 677.586 475.44 679.986 475.44C681.846 475.44 683.206 476.06 684.186 477.1L683.146 478.08C682.666 477.5 681.746 476.78 679.926 476.78C678.306 476.78 677.406 477.36 677.406 478.42C677.406 479.5 678.306 479.78 679.226 479.92L680.846 480.16C682.326 480.38 684.386 480.78 684.386 483.02C684.386 485.06 682.666 486.24 680.026 486.24ZM541 512H539.9C538.66 512 538.18 511.28 538.06 510.32H537.96C537.52 511.5 536.54 512.24 534.86 512.24C532.7 512.24 531.32 511.04 531.32 509.1C531.32 507.2 532.66 506.1 535.76 506.1H537.96V505.08C537.96 503.58 537.06 502.8 535.5 502.8C534.12 502.8 533.28 503.38 532.74 504.32L531.66 503.52C532.18 502.44 533.5 501.44 535.6 501.44C538.02 501.44 539.56 502.74 539.56 504.92V510.6H541V512ZM535.14 510.9C536.78 510.9 537.96 510.06 537.96 509V507.3H535.76C533.86 507.3 533 507.86 533 508.86V509.28C533 510.34 533.82 510.9 535.14 510.9ZM545.552 512H543.952V501.68H545.552V503.36H545.632C546.072 502.34 546.872 501.44 548.572 501.44C550.732 501.44 552.152 502.88 552.152 505.38V512H550.552V505.66C550.552 503.78 549.692 502.86 548.112 502.86C546.832 502.86 545.552 503.48 545.552 504.84V512ZM562.484 512V510.32H562.404C561.744 511.58 560.664 512.24 559.224 512.24C556.704 512.24 555.184 510.22 555.184 506.84C555.184 503.46 556.704 501.44 559.224 501.44C560.664 501.44 561.744 502.1 562.404 503.36H562.484V497.2H564.084V512H562.484ZM559.844 510.82C561.264 510.82 562.484 510.08 562.484 508.7V504.98C562.484 503.6 561.264 502.86 559.844 502.86C557.984 502.86 556.904 504.1 556.904 505.96V507.72C556.904 509.58 557.984 510.82 559.844 510.82ZM579.729 512V498.04H584.469C586.849 498.04 588.309 499.46 588.309 501.64C588.309 503.3 587.409 504.24 586.129 504.64V504.7C587.689 505.06 588.829 506.04 588.829 507.98C588.829 510.24 587.229 512 585.069 512H579.729ZM581.409 510.54H584.569C586.109 510.54 587.049 509.84 587.049 508.42V507.6C587.049 506.2 586.109 505.48 584.569 505.48H581.409V510.54ZM581.409 504.1H584.289C585.689 504.1 586.549 503.48 586.549 502.2V501.42C586.549 500.14 585.689 499.5 584.289 499.5H581.409V504.1ZM596.421 512.24C593.021 512.24 591.361 509.66 591.361 505.02C591.361 500.38 593.021 497.8 596.421 497.8C598.981 497.8 600.041 499.34 600.721 500.86L599.281 501.52C598.781 500.28 598.121 499.26 596.421 499.26C594.201 499.26 593.141 501.08 593.141 503.88V506.16C593.141 508.96 594.201 510.78 596.421 510.78C598.121 510.78 598.781 509.76 599.281 508.52L600.721 509.18C600.041 510.7 598.981 512.24 596.421 512.24ZM608.073 512.24C605.913 512.24 604.373 511.44 603.293 510.22L604.373 509.28C605.353 510.32 606.473 510.9 608.113 510.9C609.713 510.9 610.853 510.34 610.853 509.12C610.853 508.04 609.973 507.76 609.033 507.62L607.413 507.38C605.953 507.16 603.873 506.76 603.873 504.52C603.873 502.46 605.633 501.44 608.033 501.44C609.893 501.44 611.253 502.06 612.233 503.1L611.193 504.08C610.713 503.5 609.793 502.78 607.973 502.78C606.353 502.78 605.453 503.36 605.453 504.42C605.453 505.5 606.353 505.78 607.273 505.92L608.893 506.16C610.373 506.38 612.433 506.78 612.433 509.02C612.433 511.06 610.713 512.24 608.073 512.24Z" fill="#F4F4F4"/>
<path d="M116 221.5H804C805.933 221.5 807.5 223.067 807.5 225V569C807.5 570.933 805.933 572.5 804 572.5H116C114.067 572.5 112.5 570.933 112.5 569V225C112.5 223.067 114.067 221.5 116 221.5Z" stroke="#697077"/>
<path d="M460 774L462.887 769L457.113 769L460 774ZM460 689L459.5 689L459.5 769.5L460 769.5L460.5 769.5L460.5 689L460 689Z" fill="#F2F4F8"/>
<rect x="392" y="713" width="136" height="32" fill="#21272A"/>
<path d="M401.248 738.2V726.68H402.992V728.056H403.072C403.424 727.064 404.304 726.488 405.408 726.488C407.504 726.488 408.72 728.104 408.72 730.84C408.72 733.576 407.504 735.192 405.408 735.192C404.304 735.192 403.424 734.6 403.072 733.624H402.992V738.2H401.248ZM404.88 733.688C406.08 733.688 406.88 732.84 406.88 731.56V730.12C406.88 728.84 406.08 727.992 404.88 727.992C403.824 727.992 402.992 728.568 402.992 729.416V732.264C402.992 733.112 403.824 733.688 404.88 733.688ZM414.141 735.192C411.821 735.192 410.317 733.496 410.317 730.84C410.317 728.184 411.821 726.488 414.141 726.488C416.461 726.488 417.965 728.184 417.965 730.84C417.965 733.496 416.461 735.192 414.141 735.192ZM414.141 733.752C415.325 733.752 416.125 733.016 416.125 731.544V730.136C416.125 728.664 415.325 727.928 414.141 727.928C412.957 727.928 412.157 728.664 412.157 730.136V731.544C412.157 733.016 412.957 733.752 414.141 733.752ZM422.708 735.192C421.14 735.192 420.116 734.6 419.332 733.624L420.452 732.6C421.06 733.336 421.812 733.784 422.804 733.784C423.812 733.784 424.324 733.368 424.324 732.664C424.324 732.136 424.004 731.736 423.14 731.624L422.372 731.528C420.676 731.32 419.636 730.584 419.636 729.048C419.636 727.432 420.9 726.488 422.724 726.488C424.228 726.488 425.076 726.984 425.828 727.816L424.756 728.84C424.324 728.328 423.62 727.896 422.724 727.896C421.764 727.896 421.316 728.312 421.316 728.936C421.316 729.576 421.716 729.864 422.596 730.008L423.364 730.104C425.188 730.376 426.004 731.176 426.004 732.52C426.004 734.12 424.708 735.192 422.708 735.192ZM431.849 735H430.329C429.129 735 428.489 734.328 428.489 733.192V728.104H427.193V726.68H427.897C428.473 726.68 428.665 726.44 428.665 725.864V724.408H430.233V726.68H431.977V728.104H430.233V733.576H431.849V735ZM437.955 731.016H433.523V729.24H437.955V731.016ZM440.36 738.2V726.68H442.104V728.056H442.184C442.536 727.064 443.416 726.488 444.52 726.488C446.616 726.488 447.832 728.104 447.832 730.84C447.832 733.576 446.616 735.192 444.52 735.192C443.416 735.192 442.536 734.6 442.184 733.624H442.104V738.2H440.36ZM443.992 733.688C445.192 733.688 445.992 732.84 445.992 731.56V730.12C445.992 728.84 445.192 727.992 443.992 727.992C442.936 727.992 442.104 728.568 442.104 729.416V732.264C442.104 733.112 442.936 733.688 443.992 733.688ZM451.733 735H449.989V726.68H451.733V728.28H451.813C452.053 727.432 452.773 726.68 454.101 726.68H454.565V728.36H453.877C452.501 728.36 451.733 728.824 451.733 729.688V735ZM459.46 735.192C457.14 735.192 455.636 733.496 455.636 730.84C455.636 728.184 457.14 726.488 459.46 726.488C461.78 726.488 463.284 728.184 463.284 730.84C463.284 733.496 461.78 735.192 459.46 735.192ZM459.46 733.752C460.644 733.752 461.444 733.016 461.444 731.544V730.136C461.444 728.664 460.644 727.928 459.46 727.928C458.276 727.928 457.476 728.664 457.476 730.136V731.544C457.476 733.016 458.276 733.752 459.46 733.752ZM468.603 735.192C466.203 735.192 464.827 733.496 464.827 730.84C464.827 728.184 466.203 726.488 468.603 726.488C470.267 726.488 471.323 727.304 471.819 728.536L470.379 729.208C470.139 728.44 469.547 727.944 468.603 727.944C467.323 727.944 466.667 728.824 466.667 730.104V731.592C466.667 732.872 467.323 733.752 468.603 733.752C469.611 733.752 470.203 733.208 470.555 732.376L471.883 733.08C471.339 734.44 470.203 735.192 468.603 735.192ZM476.874 735.192C474.506 735.192 473.05 733.496 473.05 730.84C473.05 728.184 474.506 726.488 476.874 726.488C479.322 726.488 480.57 728.328 480.57 730.632V731.288H474.858V731.56C474.858 732.84 475.642 733.752 477.05 733.752C478.074 733.752 478.762 733.272 479.242 732.504L480.266 733.512C479.642 734.52 478.426 735.192 476.874 735.192ZM476.874 727.848C475.674 727.848 474.858 728.744 474.858 730.024V730.136H478.73V729.976C478.73 728.696 478.026 727.848 476.874 727.848ZM485.3 735.192C483.732 735.192 482.708 734.6 481.924 733.624L483.044 732.6C483.652 733.336 484.404 733.784 485.396 733.784C486.404 733.784 486.916 733.368 486.916 732.664C486.916 732.136 486.596 731.736 485.732 731.624L484.964 731.528C483.268 731.32 482.228 730.584 482.228 729.048C482.228 727.432 483.492 726.488 485.316 726.488C486.82 726.488 487.668 726.984 488.42 727.816L487.348 728.84C486.916 728.328 486.212 727.896 485.316 727.896C484.356 727.896 483.908 728.312 483.908 728.936C483.908 729.576 484.308 729.864 485.188 730.008L485.956 730.104C487.78 730.376 488.596 731.176 488.596 732.52C488.596 734.12 487.3 735.192 485.3 735.192ZM493.273 735.192C491.705 735.192 490.681 734.6 489.897 733.624L491.017 732.6C491.625 733.336 492.377 733.784 493.369 733.784C494.377 733.784 494.889 733.368 494.889 732.664C494.889 732.136 494.569 731.736 493.705 731.624L492.937 731.528C491.241 731.32 490.201 730.584 490.201 729.048C490.201 727.432 491.465 726.488 493.289 726.488C494.793 726.488 495.641 726.984 496.393 727.816L495.321 728.84C494.889 728.328 494.185 727.896 493.289 727.896C492.329 727.896 491.881 728.312 491.881 728.936C491.881 729.576 492.281 729.864 493.161 730.008L493.929 730.104C495.753 730.376 496.569 731.176 496.569 732.52C496.569 734.12 495.273 735.192 493.273 735.192ZM499.579 725.192C498.859 725.192 498.539 724.808 498.539 724.28V724.008C498.539 723.48 498.859 723.096 499.579 723.096C500.299 723.096 500.603 723.48 500.603 724.008V724.28C500.603 724.808 500.299 725.192 499.579 725.192ZM498.699 735V726.68H500.443V735H498.699ZM504.838 735H503.094V726.68H504.838V728.056H504.918C505.27 727.16 505.974 726.488 507.254 726.488C508.95 726.488 509.958 727.672 509.958 729.72V735H508.214V729.944C508.214 728.648 507.718 727.992 506.646 727.992C505.734 727.992 504.838 728.456 504.838 729.432V735ZM519.831 735.784C519.831 737.512 518.599 738.392 515.607 738.392C512.887 738.392 511.831 737.656 511.831 736.392C511.831 735.48 512.375 734.984 513.255 734.792V734.616C512.647 734.424 512.311 733.96 512.311 733.336C512.311 732.472 512.983 732.056 513.783 731.864V731.8C512.807 731.336 512.263 730.456 512.263 729.336C512.263 727.64 513.463 726.488 515.575 726.488C516.135 726.488 516.647 726.568 517.079 726.744V726.52C517.079 725.784 517.431 725.336 518.167 725.336H519.447V726.744H517.751V727.08C518.503 727.576 518.919 728.376 518.919 729.336C518.919 731.016 517.703 732.152 515.591 732.152C515.191 732.152 514.807 732.104 514.503 732.024C514.087 732.168 513.703 732.44 513.703 732.856C513.703 733.304 514.135 733.48 514.871 733.48H516.919C518.967 733.48 519.831 734.344 519.831 735.784ZM518.199 735.976C518.199 735.4 517.815 735.032 516.679 735.032H513.863C513.479 735.256 513.287 735.592 513.287 735.992C513.287 736.664 513.783 737.128 515.079 737.128H516.167C517.527 737.128 518.199 736.744 518.199 735.976ZM515.591 730.888C516.615 730.888 517.207 730.424 517.207 729.48V729.16C517.207 728.216 516.615 727.752 515.591 727.752C514.567 727.752 513.975 728.216 513.975 729.16V729.48C513.975 730.424 514.567 730.888 515.591 730.888Z" fill="#F2F4F8"/>
<path d="M460 605L462.887 600L457.113 600L460 605ZM460 573L459.5 573L459.5 600.5L460 600.5L460.5 600.5L460.5 573L460 573Z" fill="#F2F4F8"/>
<path d="M502 298L497 295.113L497 300.887L502 298ZM422 298L422 298.5L497.5 298.5L497.5 298L497.5 297.5L422 297.5L422 298Z" fill="#F4F4F4"/>
<path d="M422 493L427 495.887L427 490.113L422 493ZM426.5 493L426.5 493.5L502 493.5L502 493L502 492.5L426.5 492.5L426.5 493Z" fill="#F4F4F4"/>
<path d="M643 437L645.887 432L640.113 432L643 437ZM643 369L642.5 369L642.5 432.5L643 432.5L643.5 432.5L643.5 369L643 369Z" fill="#F4F4F4"/>
<path d="M280 369L277.113 374L282.887 374L280 369ZM280 373.5L279.5 373.5L279.5 437L280 437L280.5 437L280.5 373.5L280 373.5Z" fill="#F4F4F4"/>
<rect x="407" y="205" width="106" height="32" fill="#21272A"/>
<path d="M423.24 227V222.136H418.184V227H416.376V215.832H418.184V220.536H423.24V215.832H425.048V227H423.24ZM431.27 223.576L432.934 218.68H434.614L431.11 228.648C430.71 229.768 430.214 230.2 428.918 230.2H427.91V228.776H429.318L429.798 227.368L426.774 218.68H428.518L430.182 223.576L430.662 225.384H430.742L431.27 223.576ZM436.209 227V215.16H437.953V220.056H438.033C438.385 219.064 439.265 218.488 440.369 218.488C442.465 218.488 443.681 220.104 443.681 222.84C443.681 225.576 442.465 227.192 440.369 227.192C439.265 227.192 438.385 226.6 438.033 225.624H437.953V227H436.209ZM439.841 225.688C441.041 225.688 441.841 224.84 441.841 223.56V222.12C441.841 220.84 441.041 219.992 439.841 219.992C438.785 219.992 437.953 220.568 437.953 221.416V224.264C437.953 225.112 438.785 225.688 439.841 225.688ZM447.581 227H445.837V218.68H447.581V220.28H447.661C447.901 219.432 448.621 218.68 449.949 218.68H450.413V220.36H449.725C448.349 220.36 447.581 220.824 447.581 221.688V227ZM453.002 217.192C452.282 217.192 451.962 216.808 451.962 216.28V216.008C451.962 215.48 452.282 215.096 453.002 215.096C453.722 215.096 454.026 215.48 454.026 216.008V216.28C454.026 216.808 453.722 217.192 453.002 217.192ZM452.122 227V218.68H453.866V227H452.122ZM461.749 227V225.624H461.669C461.317 226.6 460.437 227.192 459.333 227.192C457.237 227.192 456.021 225.576 456.021 222.84C456.021 220.104 457.237 218.488 459.333 218.488C460.437 218.488 461.317 219.064 461.669 220.056H461.749V215.16H463.493V227H461.749ZM459.861 225.688C460.917 225.688 461.749 225.112 461.749 224.264V221.416C461.749 220.568 460.917 219.992 459.861 219.992C458.661 219.992 457.861 220.84 457.861 222.12V223.56C457.861 224.84 458.661 225.688 459.861 225.688ZM476.567 227H470.215V215.832H472.023V225.4H476.567V227ZM481.558 227.192C479.238 227.192 477.734 225.496 477.734 222.84C477.734 220.184 479.238 218.488 481.558 218.488C483.878 218.488 485.382 220.184 485.382 222.84C485.382 225.496 483.878 227.192 481.558 227.192ZM481.558 225.752C482.742 225.752 483.542 225.016 483.542 223.544V222.136C483.542 220.664 482.742 219.928 481.558 219.928C480.374 219.928 479.574 220.664 479.574 222.136V223.544C479.574 225.016 480.374 225.752 481.558 225.752ZM490.749 227.192C488.429 227.192 486.925 225.496 486.925 222.84C486.925 220.184 488.429 218.488 490.749 218.488C493.069 218.488 494.573 220.184 494.573 222.84C494.573 225.496 493.069 227.192 490.749 227.192ZM490.749 225.752C491.933 225.752 492.733 225.016 492.733 223.544V222.136C492.733 220.664 491.933 219.928 490.749 219.928C489.565 219.928 488.765 220.664 488.765 222.136V223.544C488.765 225.016 489.565 225.752 490.749 225.752ZM496.676 230.2V218.68H498.42V220.056H498.5C498.852 219.064 499.732 218.488 500.836 218.488C502.932 218.488 504.148 220.104 504.148 222.84C504.148 225.576 502.932 227.192 500.836 227.192C499.732 227.192 498.852 226.6 498.5 225.624H498.42V230.2H496.676ZM500.308 225.688C501.508 225.688 502.308 224.84 502.308 223.56V222.12C502.308 220.84 501.508 219.992 500.308 219.992C499.252 219.992 498.42 220.568 498.42 221.416V224.264C498.42 225.112 499.252 225.688 500.308 225.688Z" fill="#F2F4F8"/>
<rect x="195" y="387" width="170" height="32" fill="#21272A"/>
<path d="M208.696 409.192C205.784 409.192 203.88 407.176 203.88 403.416C203.88 399.656 205.784 397.64 208.696 397.64C211.608 397.64 213.512 399.656 213.512 403.416C213.512 407.176 211.608 409.192 208.696 409.192ZM208.696 407.576C210.424 407.576 211.576 406.328 211.576 404.296V402.536C211.576 400.504 210.424 399.256 208.696 399.256C206.968 399.256 205.816 400.504 205.816 402.536V404.296C205.816 406.328 206.968 407.576 208.696 407.576ZM215.799 412.2V400.68H217.543V402.056H217.623C217.975 401.064 218.855 400.488 219.959 400.488C222.055 400.488 223.271 402.104 223.271 404.84C223.271 407.576 222.055 409.192 219.959 409.192C218.855 409.192 217.975 408.6 217.623 407.624H217.543V412.2H215.799ZM219.431 407.688C220.631 407.688 221.431 406.84 221.431 405.56V404.12C221.431 402.84 220.631 401.992 219.431 401.992C218.375 401.992 217.543 402.568 217.543 403.416V406.264C217.543 407.112 218.375 407.688 219.431 407.688ZM229.158 409H227.638C226.438 409 225.798 408.328 225.798 407.192V402.104H224.502V400.68H225.206C225.782 400.68 225.974 400.44 225.974 399.864V398.408H227.542V400.68H229.286V402.104H227.542V407.576H229.158V409ZM232.217 399.192C231.497 399.192 231.177 398.808 231.177 398.28V398.008C231.177 397.48 231.497 397.096 232.217 397.096C232.937 397.096 233.241 397.48 233.241 398.008V398.28C233.241 398.808 232.937 399.192 232.217 399.192ZM231.337 409V400.68H233.081V409H231.337ZM237.476 409H235.732V400.68H237.476V402.056H237.556C237.892 401.192 238.516 400.488 239.78 400.488C240.9 400.488 241.844 401.032 242.244 402.184H242.292C242.596 401.256 243.46 400.488 244.804 400.488C246.452 400.488 247.428 401.672 247.428 403.72V409H245.684V403.928C245.684 402.648 245.204 401.992 244.148 401.992C243.268 401.992 242.452 402.456 242.452 403.416V409H240.708V403.928C240.708 402.632 240.212 401.992 239.188 401.992C238.324 401.992 237.476 402.456 237.476 403.416V409ZM250.881 399.192C250.161 399.192 249.841 398.808 249.841 398.28V398.008C249.841 397.48 250.161 397.096 250.881 397.096C251.601 397.096 251.905 397.48 251.905 398.008V398.28C251.905 398.808 251.601 399.192 250.881 399.192ZM250.001 409V400.68H251.745V409H250.001ZM260.363 409H253.723V407.592L258.187 402.104H253.867V400.68H260.251V402.024L255.723 407.576H260.363V409ZM265.444 409.192C263.076 409.192 261.62 407.496 261.62 404.84C261.62 402.184 263.076 400.488 265.444 400.488C267.892 400.488 269.14 402.328 269.14 404.632V405.288H263.428V405.56C263.428 406.84 264.212 407.752 265.62 407.752C266.644 407.752 267.332 407.272 267.812 406.504L268.836 407.512C268.212 408.52 266.996 409.192 265.444 409.192ZM265.444 401.848C264.244 401.848 263.428 402.744 263.428 404.024V404.136H267.3V403.976C267.3 402.696 266.596 401.848 265.444 401.848ZM275.172 412.2V400.68H276.916V402.056H276.996C277.348 401.064 278.228 400.488 279.332 400.488C281.428 400.488 282.644 402.104 282.644 404.84C282.644 407.576 281.428 409.192 279.332 409.192C278.228 409.192 277.348 408.6 276.996 407.624H276.916V412.2H275.172ZM278.804 407.688C280.004 407.688 280.804 406.84 280.804 405.56V404.12C280.804 402.84 280.004 401.992 278.804 401.992C277.748 401.992 276.916 402.568 276.916 403.416V406.264C276.916 407.112 277.748 407.688 278.804 407.688ZM291.873 409H290.897C289.985 409 289.505 408.424 289.393 407.608H289.313C288.993 408.648 288.097 409.192 286.881 409.192C285.169 409.192 284.193 408.216 284.193 406.712C284.193 405.064 285.425 404.216 287.745 404.216H289.249V403.512C289.249 402.504 288.705 401.912 287.537 401.912C286.561 401.912 285.969 402.392 285.553 403.048L284.513 402.104C285.057 401.176 286.033 400.488 287.649 400.488C289.793 400.488 290.993 401.544 290.993 403.4V407.576H291.873V409ZM287.377 407.864C288.449 407.864 289.249 407.352 289.249 406.536V405.336H287.777C286.561 405.336 285.969 405.736 285.969 406.456V406.744C285.969 407.48 286.513 407.864 287.377 407.864ZM295.486 409H293.742V400.68H295.486V402.28H295.566C295.806 401.432 296.526 400.68 297.854 400.68H298.318V402.36H297.63C296.254 402.36 295.486 402.824 295.486 403.688V409ZM306.974 409H305.998C305.086 409 304.606 408.424 304.494 407.608H304.414C304.094 408.648 303.198 409.192 301.982 409.192C300.27 409.192 299.294 408.216 299.294 406.712C299.294 405.064 300.526 404.216 302.846 404.216H304.35V403.512C304.35 402.504 303.806 401.912 302.638 401.912C301.662 401.912 301.07 402.392 300.654 403.048L299.614 402.104C300.158 401.176 301.134 400.488 302.75 400.488C304.894 400.488 306.094 401.544 306.094 403.4V407.576H306.974V409ZM302.478 407.864C303.55 407.864 304.35 407.352 304.35 406.536V405.336H302.878C301.662 405.336 301.07 405.736 301.07 406.456V406.744C301.07 407.48 301.614 407.864 302.478 407.864ZM310.588 409H308.844V400.68H310.588V402.056H310.668C311.004 401.192 311.628 400.488 312.892 400.488C314.012 400.488 314.956 401.032 315.356 402.184H315.404C315.708 401.256 316.572 400.488 317.916 400.488C319.564 400.488 320.54 401.672 320.54 403.72V409H318.796V403.928C318.796 402.648 318.316 401.992 317.26 401.992C316.38 401.992 315.564 402.456 315.564 403.416V409H313.82V403.928C313.82 402.632 313.324 401.992 312.3 401.992C311.436 401.992 310.588 402.456 310.588 403.416V409ZM326.377 409.192C324.009 409.192 322.553 407.496 322.553 404.84C322.553 402.184 324.009 400.488 326.377 400.488C328.825 400.488 330.073 402.328 330.073 404.632V405.288H324.361V405.56C324.361 406.84 325.145 407.752 326.553 407.752C327.577 407.752 328.265 407.272 328.745 406.504L329.769 407.512C329.145 408.52 327.929 409.192 326.377 409.192ZM326.377 401.848C325.177 401.848 324.361 402.744 324.361 404.024V404.136H328.233V403.976C328.233 402.696 327.529 401.848 326.377 401.848ZM335.988 409H334.468C333.268 409 332.628 408.328 332.628 407.192V402.104H331.332V400.68H332.036C332.612 400.68 332.804 400.44 332.804 399.864V398.408H334.372V400.68H336.116V402.104H334.372V407.576H335.988V409ZM341.369 409.192C339.001 409.192 337.545 407.496 337.545 404.84C337.545 402.184 339.001 400.488 341.369 400.488C343.817 400.488 345.065 402.328 345.065 404.632V405.288H339.353V405.56C339.353 406.84 340.137 407.752 341.545 407.752C342.569 407.752 343.257 407.272 343.737 406.504L344.761 407.512C344.137 408.52 342.921 409.192 341.369 409.192ZM341.369 401.848C340.169 401.848 339.353 402.744 339.353 404.024V404.136H343.225V403.976C343.225 402.696 342.521 401.848 341.369 401.848ZM348.9 409H347.156V400.68H348.9V402.28H348.98C349.22 401.432 349.94 400.68 351.268 400.68H351.732V402.36H351.044C349.668 402.36 348.9 402.824 348.9 403.688V409ZM356.081 409.192C354.513 409.192 353.489 408.6 352.705 407.624L353.825 406.6C354.433 407.336 355.185 407.784 356.177 407.784C357.185 407.784 357.697 407.368 357.697 406.664C357.697 406.136 357.377 405.736 356.513 405.624L355.745 405.528C354.049 405.32 353.009 404.584 353.009 403.048C353.009 401.432 354.273 400.488 356.097 400.488C357.601 400.488 358.449 400.984 359.201 401.816L358.129 402.84C357.697 402.328 356.993 401.896 356.097 401.896C355.137 401.896 354.689 402.312 354.689 402.936C354.689 403.576 355.089 403.864 355.969 404.008L356.737 404.104C358.561 404.376 359.377 405.176 359.377 406.52C359.377 408.12 358.081 409.192 356.081 409.192Z" fill="#F2F4F8"/>
</svg>
