<svg width="1238" height="180" viewBox="0 0 1238 180" fill="none" xmlns="http://www.w3.org/2000/svg">
<rect width="1238" height="180" fill="#21272A"/>
<rect x="40" y="40" width="244" height="100" rx="8" stroke="#F2F4F8"/>
<path d="M64.624 77.192C62.832 77.192 61.568 76.456 60.672 75.24L61.664 74.408C62.448 75.448 63.376 76.008 64.672 76.008C66.272 76.008 67.136 75.176 67.136 73.896C67.136 72.84 66.544 72.312 65.072 71.976L64.16 71.768C62.128 71.304 61.008 70.408 61.008 68.696C61.008 66.712 62.512 65.64 64.704 65.64C66.384 65.64 67.568 66.28 68.4 67.464L67.392 68.2C66.784 67.352 65.936 66.824 64.64 66.824C63.216 66.824 62.336 67.448 62.336 68.648C62.336 69.704 63.024 70.184 64.432 70.504L65.344 70.712C67.52 71.208 68.464 72.168 68.464 73.832C68.464 75.88 67.024 77.192 64.624 77.192ZM73.7609 77.192C71.5209 77.192 70.0489 75.496 70.0489 72.872C70.0489 70.248 71.5209 68.552 73.7609 68.552C75.9689 68.552 77.3289 70.248 77.3289 72.584V73.192H71.3929V73.576C71.3929 75 72.3049 76.072 73.8409 76.072C74.8809 76.072 75.6809 75.56 76.1129 74.648L77.0249 75.304C76.4969 76.424 75.3129 77.192 73.7609 77.192ZM73.7609 69.624C72.3689 69.624 71.3929 70.68 71.3929 72.12V72.232H75.9529V72.056C75.9529 70.6 75.0729 69.624 73.7609 69.624ZM82.8621 77H81.2621C80.3821 77 79.9021 76.44 79.9021 75.64V69.864H78.5421V68.744H79.3101C79.8541 68.744 80.0301 68.552 80.0301 67.992V66.456H81.1821V68.744H82.9901V69.864H81.1821V75.88H82.8621V77ZM93.9168 77V75.656H93.8528C93.5328 76.44 92.9088 77.192 91.5328 77.192C89.8368 77.192 88.7488 76.04 88.7488 74.04V68.744H90.0288V73.816C90.0288 75.288 90.6848 76.04 91.9168 76.04C92.9248 76.04 93.9168 75.544 93.9168 74.456V68.744H95.1968V77H93.9168ZM97.9225 80.2V68.744H99.2025V70.088H99.2665C99.6985 69.048 100.547 68.552 101.683 68.552C103.747 68.552 105.043 70.232 105.043 72.872C105.043 75.512 103.747 77.192 101.683 77.192C100.547 77.192 99.7625 76.68 99.2665 75.656H99.2025V80.2H97.9225ZM101.331 76.04C102.771 76.04 103.667 75.048 103.667 73.576V72.168C103.667 70.696 102.771 69.704 101.331 69.704C100.163 69.704 99.2025 70.376 99.2025 71.288V74.36C99.2025 75.432 100.163 76.04 101.331 76.04ZM112.265 77H110.985V68.744H112.265V70.088H112.329C112.697 69.24 113.273 68.552 114.553 68.552C115.641 68.552 116.633 69.048 117.081 70.232H117.113C117.417 69.336 118.217 68.552 119.625 68.552C121.305 68.552 122.313 69.704 122.313 71.704V77H121.033V71.928C121.033 70.472 120.473 69.704 119.225 69.704C118.217 69.704 117.289 70.216 117.289 71.272V77H116.009V71.928C116.009 70.456 115.449 69.704 114.233 69.704C113.225 69.704 112.265 70.216 112.265 71.272V77ZM128.074 77.192C125.866 77.192 124.346 75.496 124.346 72.872C124.346 70.248 125.866 68.552 128.074 68.552C130.282 68.552 131.802 70.248 131.802 72.872C131.802 75.496 130.282 77.192 128.074 77.192ZM128.074 76.056C129.45 76.056 130.426 75.208 130.426 73.464V72.28C130.426 70.536 129.45 69.688 128.074 69.688C126.698 69.688 125.722 70.536 125.722 72.28V73.464C125.722 75.208 126.698 76.056 128.074 76.056ZM136.403 77H135.267C134.387 77 133.907 76.44 133.907 75.672V65.16H135.187V75.88H136.403V77ZM141.37 77.192C139.13 77.192 137.658 75.496 137.658 72.872C137.658 70.248 139.13 68.552 141.37 68.552C143.578 68.552 144.938 70.248 144.938 72.584V73.192H139.002V73.576C139.002 75 139.914 76.072 141.45 76.072C142.49 76.072 143.29 75.56 143.722 74.648L144.634 75.304C144.106 76.424 142.922 77.192 141.37 77.192ZM141.37 69.624C139.978 69.624 139.002 70.68 139.002 72.12V72.232H143.562V72.056C143.562 70.6 142.682 69.624 141.37 69.624ZM150.12 77.192C147.799 77.192 146.44 75.512 146.44 72.872C146.44 70.232 147.799 68.552 150.12 68.552C151.752 68.552 152.728 69.352 153.208 70.488L152.136 71.032C151.832 70.184 151.128 69.688 150.12 69.688C148.6 69.688 147.816 70.728 147.816 72.168V73.576C147.816 75.016 148.6 76.056 150.12 76.056C151.16 76.056 151.912 75.56 152.36 74.616L153.288 75.24C152.76 76.424 151.688 77.192 150.12 77.192ZM160.182 77V75.656H160.118C159.798 76.44 159.174 77.192 157.798 77.192C156.102 77.192 155.014 76.04 155.014 74.04V68.744H156.294V73.816C156.294 75.288 156.95 76.04 158.182 76.04C159.19 76.04 160.182 75.544 160.182 74.456V68.744H161.462V77H160.182ZM166.684 77H165.548C164.668 77 164.188 76.44 164.188 75.672V65.16H165.468V75.88H166.684V77ZM171.652 77.192C169.412 77.192 167.94 75.496 167.94 72.872C167.94 70.248 169.412 68.552 171.652 68.552C173.86 68.552 175.22 70.248 175.22 72.584V73.192H169.284V73.576C169.284 75 170.196 76.072 171.732 76.072C172.772 76.072 173.572 75.56 174.004 74.648L174.916 75.304C174.388 76.424 173.204 77.192 171.652 77.192ZM171.652 69.624C170.26 69.624 169.284 70.68 169.284 72.12V72.232H173.844V72.056C173.844 70.6 172.964 69.624 171.652 69.624Z" fill="#F2F4F8"/>
<path d="M332.354 90.3536C332.549 90.1583 332.549 89.8417 332.354 89.6464L329.172 86.4645C328.976 86.2692 328.66 86.2692 328.464 86.4645C328.269 86.6597 328.269 86.9763 328.464 87.1716L331.293 90L328.464 92.8284C328.269 93.0237 328.269 93.3403 328.464 93.5355C328.66 93.7308 328.976 93.7308 329.172 93.5355L332.354 90.3536ZM284 90.5H332V89.5H284V90.5Z" fill="#F2F4F8"/>
<path d="M636.354 90.3536C636.549 90.1583 636.549 89.8417 636.354 89.6464L633.172 86.4645C632.976 86.2692 632.66 86.2692 632.464 86.4645C632.269 86.6597 632.269 86.9763 632.464 87.1716L635.293 90L632.464 92.8284C632.269 93.0237 632.269 93.3403 632.464 93.5355C632.66 93.7308 632.976 93.7308 633.172 93.5355L636.354 90.3536ZM588 90.5H636V89.5H588V90.5Z" fill="#F2F4F8"/>
<path d="M938.354 90.3536C938.549 90.1583 938.549 89.8417 938.354 89.6464L935.172 86.4645C934.976 86.2692 934.66 86.2692 934.464 86.4645C934.269 86.6597 934.269 86.9763 934.464 87.1716L937.293 90L934.464 92.8284C934.269 93.0237 934.269 93.3403 934.464 93.5355C934.66 93.7308 934.976 93.7308 935.172 93.5355L938.354 90.3536ZM890 90.5H938V89.5H890V90.5Z" fill="#F2F4F8"/>
<rect x="344" y="40" width="244" height="100" rx="8" stroke="#F2F4F8"/>
<path d="M366.832 77H365.488V65.832H369.936C371.936 65.832 373.056 67.064 373.056 69.032C373.056 71 371.936 72.232 369.936 72.232H366.832V77ZM366.832 67.016V71.048H369.936C370.992 71.048 371.616 70.472 371.616 69.448V68.616C371.616 67.592 370.992 67.016 369.936 67.016H366.832ZM375.703 66.808C375.159 66.808 374.919 66.52 374.919 66.088V65.88C374.919 65.448 375.159 65.16 375.703 65.16C376.247 65.16 376.487 65.448 376.487 65.88V66.088C376.487 66.52 376.247 66.808 375.703 66.808ZM375.063 77V68.744H376.343V77H375.063ZM382.135 77.192C379.815 77.192 378.455 75.512 378.455 72.872C378.455 70.232 379.815 68.552 382.135 68.552C383.767 68.552 384.743 69.352 385.223 70.488L384.151 71.032C383.847 70.184 383.143 69.688 382.135 69.688C380.615 69.688 379.831 70.728 379.831 72.168V73.576C379.831 75.016 380.615 76.056 382.135 76.056C383.175 76.056 383.927 75.56 384.375 74.616L385.303 75.24C384.775 76.424 383.703 77.192 382.135 77.192ZM387.11 77V65.16H388.39V72.664H388.454L389.718 71.256L392.054 68.744H393.606L390.55 72.008L393.91 77H392.358L389.622 72.792L388.39 74.056V77H387.11ZM406.049 77H405.329C404.385 77 404.001 76.424 403.905 75.656H403.825C403.473 76.664 402.593 77.192 401.441 77.192C399.697 77.192 398.673 76.232 398.673 74.696C398.673 73.144 399.793 72.28 402.193 72.28H403.825V71.464C403.825 70.296 403.185 69.656 401.873 69.656C400.881 69.656 400.225 70.136 399.777 70.888L399.009 70.168C399.457 69.288 400.449 68.552 401.937 68.552C403.921 68.552 405.105 69.592 405.105 71.336V75.88H406.049V77ZM401.649 76.104C402.913 76.104 403.825 75.448 403.825 74.6V73.24H402.129C400.673 73.24 400.017 73.688 400.017 74.488V74.824C400.017 75.64 400.657 76.104 401.649 76.104ZM409.156 77H407.876V68.744H409.156V70.088H409.22C409.62 69.16 410.324 68.552 411.556 68.552C413.252 68.552 414.324 69.704 414.324 71.704V77H413.044V71.928C413.044 70.456 412.404 69.704 411.172 69.704C410.148 69.704 409.156 70.216 409.156 71.272V77ZM422.249 77V75.656H422.185C421.689 76.68 420.905 77.192 419.769 77.192C417.705 77.192 416.409 75.512 416.409 72.872C416.409 70.232 417.705 68.552 419.769 68.552C420.905 68.552 421.753 69.048 422.185 70.088H422.249V65.16H423.529V77H422.249ZM420.121 76.04C421.289 76.04 422.249 75.432 422.249 74.36V71.288C422.249 70.376 421.289 69.704 420.121 69.704C418.681 69.704 417.785 70.696 417.785 72.168V73.576C417.785 75.048 418.681 76.04 420.121 76.04ZM433.104 77.192C430.784 77.192 429.424 75.512 429.424 72.872C429.424 70.232 430.784 68.552 433.104 68.552C434.736 68.552 435.712 69.352 436.192 70.488L435.12 71.032C434.816 70.184 434.112 69.688 433.104 69.688C431.584 69.688 430.8 70.728 430.8 72.168V73.576C430.8 75.016 431.584 76.056 433.104 76.056C434.144 76.056 434.896 75.56 435.344 74.616L436.272 75.24C435.744 76.424 434.672 77.192 433.104 77.192ZM443.167 77V75.656H443.103C442.783 76.44 442.159 77.192 440.783 77.192C439.087 77.192 437.999 76.04 437.999 74.04V68.744H439.279V73.816C439.279 75.288 439.935 76.04 441.167 76.04C442.175 76.04 443.167 75.544 443.167 74.456V68.744H444.447V77H443.167ZM449.653 77.192C448.133 77.192 447.125 76.552 446.389 75.576L447.301 74.84C447.941 75.64 448.709 76.104 449.749 76.104C450.837 76.104 451.477 75.608 451.477 74.76C451.477 74.12 451.125 73.624 450.036 73.464L449.381 73.368C447.861 73.144 446.725 72.52 446.725 70.984C446.725 69.352 447.989 68.552 449.669 68.552C450.997 68.552 451.877 69.048 452.549 69.88L451.701 70.648C451.333 70.136 450.629 69.64 449.573 69.64C448.517 69.64 447.957 70.136 447.957 70.92C447.957 71.72 448.517 72.04 449.541 72.2L450.181 72.296C452.005 72.568 452.709 73.368 452.709 74.616C452.709 76.216 451.541 77.192 449.653 77.192ZM458.284 77H456.684C455.804 77 455.324 76.44 455.324 75.64V69.864H453.964V68.744H454.732C455.276 68.744 455.452 68.552 455.452 67.992V66.456H456.604V68.744H458.412V69.864H456.604V75.88H458.284V77ZM463.527 77.192C461.319 77.192 459.799 75.496 459.799 72.872C459.799 70.248 461.319 68.552 463.527 68.552C465.735 68.552 467.255 70.248 467.255 72.872C467.255 75.496 465.735 77.192 463.527 77.192ZM463.527 76.056C464.903 76.056 465.879 75.208 465.879 73.464V72.28C465.879 70.536 464.903 69.688 463.527 69.688C462.151 69.688 461.175 70.536 461.175 72.28V73.464C461.175 75.208 462.151 76.056 463.527 76.056ZM470.64 77H469.36V68.744H470.64V70.088H470.704C471.072 69.24 471.648 68.552 472.928 68.552C474.016 68.552 475.008 69.048 475.456 70.232H475.488C475.792 69.336 476.592 68.552 478 68.552C479.68 68.552 480.688 69.704 480.688 71.704V77H479.408V71.928C479.408 70.472 478.848 69.704 477.6 69.704C476.592 69.704 475.664 70.216 475.664 71.272V77H474.384V71.928C474.384 70.456 473.824 69.704 472.608 69.704C471.6 69.704 470.64 70.216 470.64 71.272V77ZM483.969 66.808C483.425 66.808 483.185 66.52 483.185 66.088V65.88C483.185 65.448 483.425 65.16 483.969 65.16C484.513 65.16 484.753 65.448 484.753 65.88V66.088C484.753 66.52 484.513 66.808 483.969 66.808ZM483.329 77V68.744H484.609V77H483.329ZM492.865 77H486.497V75.928L491.185 69.864H486.641V68.744H492.737V69.704L487.953 75.88H492.865V77ZM497.698 77.192C495.458 77.192 493.986 75.496 493.986 72.872C493.986 70.248 495.458 68.552 497.698 68.552C499.906 68.552 501.266 70.248 501.266 72.584V73.192H495.33V73.576C495.33 75 496.242 76.072 497.778 76.072C498.818 76.072 499.618 75.56 500.05 74.648L500.962 75.304C500.434 76.424 499.25 77.192 497.698 77.192ZM497.698 69.624C496.306 69.624 495.33 70.68 495.33 72.12V72.232H499.89V72.056C499.89 70.6 499.01 69.624 497.698 69.624ZM515.685 77H514.277L513.157 73.704H508.645L507.525 77H506.165L510.069 65.832H511.781L515.685 77ZM512.821 72.52L510.933 67.08H510.853L508.965 72.52H512.821ZM518.687 77H517.407V68.744H518.687V70.088H518.751C519.151 69.16 519.855 68.552 521.087 68.552C522.783 68.552 523.855 69.704 523.855 71.704V77H522.575V71.928C522.575 70.456 521.935 69.704 520.703 69.704C519.679 69.704 518.687 70.216 518.687 71.272V77ZM528.981 77.192C527.461 77.192 526.453 76.552 525.717 75.576L526.629 74.84C527.269 75.64 528.037 76.104 529.077 76.104C530.165 76.104 530.805 75.608 530.805 74.76C530.805 74.12 530.453 73.624 529.365 73.464L528.709 73.368C527.189 73.144 526.053 72.52 526.053 70.984C526.053 69.352 527.317 68.552 528.997 68.552C530.325 68.552 531.205 69.048 531.877 69.88L531.029 70.648C530.661 70.136 529.957 69.64 528.901 69.64C527.845 69.64 527.285 70.136 527.285 70.92C527.285 71.72 527.845 72.04 528.869 72.2L529.509 72.296C531.333 72.568 532.037 73.368 532.037 74.616C532.037 76.216 530.869 77.192 528.981 77.192ZM541.017 77H540.298C539.354 77 538.97 76.424 538.874 75.656H538.794C538.442 76.664 537.562 77.192 536.41 77.192C534.666 77.192 533.642 76.232 533.642 74.696C533.642 73.144 534.762 72.28 537.161 72.28H538.794V71.464C538.794 70.296 538.154 69.656 536.842 69.656C535.85 69.656 535.194 70.136 534.746 70.888L533.978 70.168C534.426 69.288 535.418 68.552 536.906 68.552C538.89 68.552 540.074 69.592 540.074 71.336V75.88H541.017V77ZM536.618 76.104C537.882 76.104 538.794 75.448 538.794 74.6V73.24H537.098C535.642 73.24 534.986 73.688 534.986 74.488V74.824C534.986 75.64 535.626 76.104 536.618 76.104ZM546.268 77H544.668C543.788 77 543.308 76.44 543.308 75.64V69.864H541.948V68.744H542.716C543.26 68.744 543.436 68.552 543.436 67.992V66.456H544.588V68.744H546.396V69.864H544.588V75.88H546.268V77ZM553.99 77H547.622V75.928L552.31 69.864H547.766V68.744H553.862V69.704L549.078 75.88H553.99V77Z" fill="#F2F4F8"/>
<rect x="648" y="40" width="244" height="100" rx="8" stroke="#F2F4F8"/>
<path d="M670.832 77H669.488V65.832H673.936C675.936 65.832 677.056 67.064 677.056 69.032C677.056 71 675.936 72.232 673.936 72.232H670.832V77ZM670.832 67.016V71.048H673.936C674.992 71.048 675.616 70.472 675.616 69.448V68.616C675.616 67.592 674.992 67.016 673.936 67.016H670.832ZM679.703 66.808C679.159 66.808 678.919 66.52 678.919 66.088V65.88C678.919 65.448 679.159 65.16 679.703 65.16C680.247 65.16 680.487 65.448 680.487 65.88V66.088C680.487 66.52 680.247 66.808 679.703 66.808ZM679.063 77V68.744H680.343V77H679.063ZM686.135 77.192C683.815 77.192 682.455 75.512 682.455 72.872C682.455 70.232 683.815 68.552 686.135 68.552C687.767 68.552 688.743 69.352 689.223 70.488L688.151 71.032C687.847 70.184 687.143 69.688 686.135 69.688C684.615 69.688 683.831 70.728 683.831 72.168V73.576C683.831 75.016 684.615 76.056 686.135 76.056C687.175 76.056 687.927 75.56 688.375 74.616L689.303 75.24C688.775 76.424 687.703 77.192 686.135 77.192ZM691.11 77V65.16H692.39V72.664H692.454L693.718 71.256L696.054 68.744H697.606L694.55 72.008L697.91 77H696.358L693.622 72.792L692.39 74.056V77H691.11ZM710.097 78.504V79.624H708.449C707.569 79.624 707.105 79.064 707.105 78.312V77.176C704.529 76.936 702.897 74.92 702.897 71.416C702.897 67.672 704.753 65.64 707.633 65.64C710.513 65.64 712.369 67.672 712.369 71.416C712.369 74.824 710.833 76.808 708.385 77.144V78.504H710.097ZM707.633 75.992C709.569 75.992 710.929 74.552 710.929 72.344V70.488C710.929 68.28 709.569 66.84 707.633 66.84C705.697 66.84 704.337 68.28 704.337 70.488V72.344C704.337 74.552 705.697 75.992 707.633 75.992ZM717.921 77.192C716.129 77.192 714.865 76.456 713.969 75.24L714.961 74.408C715.745 75.448 716.673 76.008 717.969 76.008C719.569 76.008 720.433 75.176 720.433 73.896C720.433 72.84 719.841 72.312 718.369 71.976L717.457 71.768C715.425 71.304 714.305 70.408 714.305 68.696C714.305 66.712 715.809 65.64 718.001 65.64C719.681 65.64 720.865 66.28 721.697 67.464L720.689 68.2C720.081 67.352 719.233 66.824 717.937 66.824C716.513 66.824 715.633 67.448 715.633 68.648C715.633 69.704 716.321 70.184 717.729 70.504L718.641 70.712C720.817 71.208 721.761 72.168 721.761 73.832C721.761 75.88 720.321 77.192 717.921 77.192ZM728.018 77.192C725.202 77.192 723.522 75.208 723.522 71.48C723.522 67.752 725.202 65.64 728.018 65.64C729.874 65.64 731.154 66.536 731.858 68.088L730.77 68.744C730.322 67.592 729.394 66.84 728.018 66.84C726.098 66.84 724.962 68.36 724.962 70.648V72.312C724.962 74.6 726.098 75.992 728.018 75.992C729.442 75.992 730.418 75.192 730.866 73.976L731.938 74.648C731.234 76.216 729.874 77.192 728.018 77.192ZM737.971 77H733.491V75.88H735.059V66.952H733.491V65.832H737.971V66.952H736.403V75.88H737.971V77ZM744.079 77V65.16H745.359V70.088H745.423C745.823 69.16 746.527 68.552 747.759 68.552C749.455 68.552 750.527 69.704 750.527 71.704V77H749.247V71.928C749.247 70.456 748.607 69.704 747.375 69.704C746.351 69.704 745.359 70.216 745.359 71.272V77H744.079ZM756.136 74.36L758.136 68.744H759.4L755.704 78.92C755.336 79.912 755 80.2 753.784 80.2H753.128V79.08H754.424L755.048 77.32L751.96 68.744H753.24L755.224 74.36L755.608 75.704H755.688L756.136 74.36ZM761.032 80.2V68.744H762.312V70.088H762.376C762.808 69.048 763.656 68.552 764.792 68.552C766.856 68.552 768.152 70.232 768.152 72.872C768.152 75.512 766.856 77.192 764.792 77.192C763.656 77.192 762.872 76.68 762.376 75.656H762.312V80.2H761.032ZM764.44 76.04C765.88 76.04 766.776 75.048 766.776 73.576V72.168C766.776 70.696 765.88 69.704 764.44 69.704C763.272 69.704 762.312 70.376 762.312 71.288V74.36C762.312 75.432 763.272 76.04 764.44 76.04ZM773.417 77.192C771.177 77.192 769.705 75.496 769.705 72.872C769.705 70.248 771.177 68.552 773.417 68.552C775.625 68.552 776.985 70.248 776.985 72.584V73.192H771.049V73.576C771.049 75 771.961 76.072 773.497 76.072C774.537 76.072 775.337 75.56 775.769 74.648L776.681 75.304C776.153 76.424 774.969 77.192 773.417 77.192ZM773.417 69.624C772.025 69.624 771.049 70.68 771.049 72.12V72.232H775.609V72.056C775.609 70.6 774.729 69.624 773.417 69.624ZM780.374 77H779.094V68.744H780.374V70.264H780.454C780.742 69.48 781.494 68.744 782.838 68.744H783.334V70.024H782.582C781.206 70.024 780.374 70.616 780.374 71.4V77ZM784.969 80.2V68.744H786.249V70.088H786.313C786.745 69.048 787.593 68.552 788.729 68.552C790.793 68.552 792.089 70.232 792.089 72.872C792.089 75.512 790.793 77.192 788.729 77.192C787.593 77.192 786.809 76.68 786.313 75.656H786.249V80.2H784.969ZM788.377 76.04C789.817 76.04 790.713 75.048 790.713 73.576V72.168C790.713 70.696 789.817 69.704 788.377 69.704C787.209 69.704 786.249 70.376 786.249 71.288V74.36C786.249 75.432 787.209 76.04 788.377 76.04ZM800.971 77H800.251C799.307 77 798.923 76.424 798.827 75.656H798.747C798.395 76.664 797.515 77.192 796.363 77.192C794.619 77.192 793.595 76.232 793.595 74.696C793.595 73.144 794.715 72.28 797.115 72.28H798.747V71.464C798.747 70.296 798.107 69.656 796.795 69.656C795.803 69.656 795.147 70.136 794.699 70.888L793.931 70.168C794.379 69.288 795.371 68.552 796.859 68.552C798.843 68.552 800.027 69.592 800.027 71.336V75.88H800.971V77ZM796.571 76.104C797.835 76.104 798.747 75.448 798.747 74.6V73.24H797.051C795.595 73.24 794.939 73.688 794.939 74.488V74.824C794.939 75.64 795.579 76.104 796.571 76.104ZM804.078 77H802.798V68.744H804.078V70.264H804.158C804.446 69.48 805.198 68.744 806.542 68.744H807.038V70.024H806.286C804.91 70.024 804.078 70.616 804.078 71.4V77ZM815.33 77H814.61C813.666 77 813.282 76.424 813.186 75.656H813.106C812.754 76.664 811.874 77.192 810.722 77.192C808.978 77.192 807.954 76.232 807.954 74.696C807.954 73.144 809.074 72.28 811.474 72.28H813.106V71.464C813.106 70.296 812.466 69.656 811.154 69.656C810.162 69.656 809.506 70.136 809.058 70.888L808.29 70.168C808.738 69.288 809.73 68.552 811.218 68.552C813.202 68.552 814.386 69.592 814.386 71.336V75.88H815.33V77ZM810.93 76.104C812.194 76.104 813.106 75.448 813.106 74.6V73.24H811.41C809.954 73.24 809.298 73.688 809.298 74.488V74.824C809.298 75.64 809.938 76.104 810.93 76.104ZM818.437 77H817.157V68.744H818.437V70.088H818.501C818.869 69.24 819.445 68.552 820.725 68.552C821.813 68.552 822.805 69.048 823.253 70.232H823.285C823.589 69.336 824.389 68.552 825.797 68.552C827.477 68.552 828.485 69.704 828.485 71.704V77H827.205V71.928C827.205 70.472 826.645 69.704 825.397 69.704C824.389 69.704 823.461 70.216 823.461 71.272V77H822.181V71.928C822.181 70.456 821.621 69.704 820.405 69.704C819.397 69.704 818.437 70.216 818.437 71.272V77ZM834.23 77.192C831.99 77.192 830.518 75.496 830.518 72.872C830.518 70.248 831.99 68.552 834.23 68.552C836.438 68.552 837.798 70.248 837.798 72.584V73.192H831.862V73.576C831.862 75 832.774 76.072 834.31 76.072C835.35 76.072 836.15 75.56 836.582 74.648L837.494 75.304C836.966 76.424 835.782 77.192 834.23 77.192ZM834.23 69.624C832.838 69.624 831.862 70.68 831.862 72.12V72.232H836.422V72.056C836.422 70.6 835.542 69.624 834.23 69.624ZM843.331 77H841.731C840.851 77 840.371 76.44 840.371 75.64V69.864H839.011V68.744H839.779C840.323 68.744 840.499 68.552 840.499 67.992V66.456H841.651V68.744H843.459V69.864H841.651V75.88H843.331V77ZM848.558 77.192C846.318 77.192 844.846 75.496 844.846 72.872C844.846 70.248 846.318 68.552 848.558 68.552C850.766 68.552 852.126 70.248 852.126 72.584V73.192H846.19V73.576C846.19 75 847.102 76.072 848.638 76.072C849.678 76.072 850.478 75.56 850.91 74.648L851.822 75.304C851.294 76.424 850.11 77.192 848.558 77.192ZM848.558 69.624C847.166 69.624 846.19 70.68 846.19 72.12V72.232H850.75V72.056C850.75 70.6 849.87 69.624 848.558 69.624ZM855.515 77H854.235V68.744H855.515V70.264H855.595C855.883 69.48 856.635 68.744 857.979 68.744H858.475V70.024H857.723C856.347 70.024 855.515 70.616 855.515 71.4V77ZM862.59 77.192C861.07 77.192 860.062 76.552 859.326 75.576L860.238 74.84C860.878 75.64 861.646 76.104 862.686 76.104C863.774 76.104 864.414 75.608 864.414 74.76C864.414 74.12 864.062 73.624 862.974 73.464L862.318 73.368C860.798 73.144 859.662 72.52 859.662 70.984C859.662 69.352 860.926 68.552 862.606 68.552C863.934 68.552 864.814 69.048 865.486 69.88L864.638 70.648C864.27 70.136 863.566 69.64 862.51 69.64C861.454 69.64 860.894 70.136 860.894 70.92C860.894 71.72 861.454 72.04 862.478 72.2L863.118 72.296C864.942 72.568 865.646 73.368 865.646 74.616C865.646 76.216 864.478 77.192 862.59 77.192Z" fill="#F2F4F8"/>
<rect x="950" y="40" width="244" height="100" rx="8" stroke="#F2F4F8"/>
<path d="M975.664 77.192C972.784 77.192 970.928 75.16 970.928 71.416C970.928 67.672 972.784 65.64 975.664 65.64C978.544 65.64 980.4 67.672 980.4 71.416C980.4 75.16 978.544 77.192 975.664 77.192ZM975.664 75.992C977.6 75.992 978.96 74.552 978.96 72.344V70.488C978.96 68.28 977.6 66.84 975.664 66.84C973.728 66.84 972.368 68.28 972.368 70.488V72.344C972.368 74.552 973.728 75.992 975.664 75.992ZM982.688 77V65.16H983.968V70.088H984.032C984.464 69.048 985.312 68.552 986.448 68.552C988.512 68.552 989.808 70.232 989.808 72.872C989.808 75.512 988.512 77.192 986.448 77.192C985.312 77.192 984.528 76.68 984.032 75.656H983.968V77H982.688ZM986.096 76.04C987.536 76.04 988.432 75.048 988.432 73.576V72.168C988.432 70.696 987.536 69.704 986.096 69.704C984.928 69.704 983.968 70.376 983.968 71.288V74.36C983.968 75.432 984.928 76.04 986.096 76.04ZM995.3 77H993.7C992.82 77 992.34 76.44 992.34 75.64V69.864H990.98V68.744H991.748C992.292 68.744 992.468 68.552 992.468 67.992V66.456H993.62V68.744H995.428V69.864H993.62V75.88H995.3V77ZM1004.2 77H1003.49C1002.54 77 1002.16 76.424 1002.06 75.656H1001.98C1001.63 76.664 1000.75 77.192 999.597 77.192C997.853 77.192 996.829 76.232 996.829 74.696C996.829 73.144 997.949 72.28 1000.35 72.28H1001.98V71.464C1001.98 70.296 1001.34 69.656 1000.03 69.656C999.037 69.656 998.381 70.136 997.933 70.888L997.165 70.168C997.613 69.288 998.605 68.552 1000.09 68.552C1002.08 68.552 1003.26 69.592 1003.26 71.336V75.88H1004.2V77ZM999.805 76.104C1001.07 76.104 1001.98 75.448 1001.98 74.6V73.24H1000.29C998.829 73.24 998.173 73.688 998.173 74.488V74.824C998.173 75.64 998.813 76.104 999.805 76.104ZM1006.67 66.808C1006.13 66.808 1005.89 66.52 1005.89 66.088V65.88C1005.89 65.448 1006.13 65.16 1006.67 65.16C1007.22 65.16 1007.46 65.448 1007.46 65.88V66.088C1007.46 66.52 1007.22 66.808 1006.67 66.808ZM1006.03 77V68.744H1007.31V77H1006.03ZM1011.31 77H1010.03V68.744H1011.31V70.088H1011.38C1011.78 69.16 1012.48 68.552 1013.71 68.552C1015.41 68.552 1016.48 69.704 1016.48 71.704V77H1015.2V71.928C1015.2 70.456 1014.56 69.704 1013.33 69.704C1012.3 69.704 1011.31 70.216 1011.31 71.272V77ZM1029.87 77.912C1029.87 79.608 1028.52 80.392 1025.87 80.392C1023.29 80.392 1022.23 79.656 1022.23 78.36C1022.23 77.464 1022.73 76.984 1023.55 76.76V76.584C1023.08 76.36 1022.81 75.992 1022.81 75.432C1022.81 74.6 1023.4 74.2 1024.23 73.992V73.928C1023.26 73.464 1022.68 72.552 1022.68 71.4C1022.68 69.72 1023.91 68.552 1025.79 68.552C1026.38 68.552 1026.91 68.664 1027.35 68.872V68.728C1027.35 68.088 1027.63 67.624 1028.31 67.624H1029.55V68.744H1027.98V69.272C1028.57 69.784 1028.92 70.52 1028.92 71.4C1028.92 73.08 1027.69 74.248 1025.8 74.248C1025.53 74.248 1025.24 74.216 1025 74.168C1024.46 74.312 1023.91 74.584 1023.91 75.096C1023.91 75.592 1024.43 75.72 1025.18 75.72H1026.94C1028.99 75.72 1029.87 76.552 1029.87 77.912ZM1028.67 78.008C1028.67 77.352 1028.23 76.92 1026.95 76.92H1024.2C1023.67 77.16 1023.43 77.528 1023.43 78.04C1023.43 78.76 1023.93 79.352 1025.23 79.352H1026.41C1027.83 79.352 1028.67 78.904 1028.67 78.008ZM1025.8 73.224C1026.89 73.224 1027.58 72.712 1027.58 71.624V71.176C1027.58 70.088 1026.89 69.576 1025.8 69.576C1024.71 69.576 1024.03 70.088 1024.03 71.176V71.624C1024.03 72.712 1024.71 73.224 1025.8 73.224ZM1032.64 77H1031.36V68.744H1032.64V70.264H1032.72C1033.01 69.48 1033.76 68.744 1035.1 68.744H1035.6V70.024H1034.85C1033.47 70.024 1032.64 70.616 1032.64 71.4V77ZM1040.28 77.192C1038.07 77.192 1036.55 75.496 1036.55 72.872C1036.55 70.248 1038.07 68.552 1040.28 68.552C1042.48 68.552 1044 70.248 1044 72.872C1044 75.496 1042.48 77.192 1040.28 77.192ZM1040.28 76.056C1041.65 76.056 1042.63 75.208 1042.63 73.464V72.28C1042.63 70.536 1041.65 69.688 1040.28 69.688C1038.9 69.688 1037.92 70.536 1037.92 72.28V73.464C1037.92 75.208 1038.9 76.056 1040.28 76.056ZM1051.2 77V75.656H1051.13C1050.81 76.44 1050.19 77.192 1048.81 77.192C1047.12 77.192 1046.03 76.04 1046.03 74.04V68.744H1047.31V73.816C1047.31 75.288 1047.97 76.04 1049.2 76.04C1050.21 76.04 1051.2 75.544 1051.2 74.456V68.744H1052.48V77H1051.2ZM1056.48 77H1055.2V68.744H1056.48V70.088H1056.55C1056.95 69.16 1057.65 68.552 1058.88 68.552C1060.58 68.552 1061.65 69.704 1061.65 71.704V77H1060.37V71.928C1060.37 70.456 1059.73 69.704 1058.5 69.704C1057.48 69.704 1056.48 70.216 1056.48 71.272V77ZM1069.58 77V75.656H1069.51C1069.02 76.68 1068.23 77.192 1067.1 77.192C1065.03 77.192 1063.74 75.512 1063.74 72.872C1063.74 70.232 1065.03 68.552 1067.1 68.552C1068.23 68.552 1069.08 69.048 1069.51 70.088H1069.58V65.16H1070.86V77H1069.58ZM1067.45 76.04C1068.62 76.04 1069.58 75.432 1069.58 74.36V71.288C1069.58 70.376 1068.62 69.704 1067.45 69.704C1066.01 69.704 1065.11 70.696 1065.11 72.168V73.576C1065.11 75.048 1066.01 76.04 1067.45 76.04ZM1079.84 77.192C1078.32 77.192 1077.31 76.552 1076.58 75.576L1077.49 74.84C1078.13 75.64 1078.9 76.104 1079.94 76.104C1081.02 76.104 1081.66 75.608 1081.66 74.76C1081.66 74.12 1081.31 73.624 1080.22 73.464L1079.57 73.368C1078.05 73.144 1076.91 72.52 1076.91 70.984C1076.91 69.352 1078.18 68.552 1079.86 68.552C1081.18 68.552 1082.06 69.048 1082.74 69.88L1081.89 70.648C1081.52 70.136 1080.82 69.64 1079.76 69.64C1078.7 69.64 1078.14 70.136 1078.14 70.92C1078.14 71.72 1078.7 72.04 1079.73 72.2L1080.37 72.296C1082.19 72.568 1082.9 73.368 1082.9 74.616C1082.9 76.216 1081.73 77.192 1079.84 77.192ZM1088.47 77H1086.87C1085.99 77 1085.51 76.44 1085.51 75.64V69.864H1084.15V68.744H1084.92C1085.46 68.744 1085.64 68.552 1085.64 67.992V66.456H1086.79V68.744H1088.6V69.864H1086.79V75.88H1088.47V77ZM1097.38 77H1096.66C1095.71 77 1095.33 76.424 1095.23 75.656H1095.15C1094.8 76.664 1093.92 77.192 1092.77 77.192C1091.02 77.192 1090 76.232 1090 74.696C1090 73.144 1091.12 72.28 1093.52 72.28H1095.15V71.464C1095.15 70.296 1094.51 69.656 1093.2 69.656C1092.21 69.656 1091.55 70.136 1091.1 70.888L1090.34 70.168C1090.78 69.288 1091.78 68.552 1093.26 68.552C1095.25 68.552 1096.43 69.592 1096.43 71.336V75.88H1097.38V77ZM1092.98 76.104C1094.24 76.104 1095.15 75.448 1095.15 74.6V73.24H1093.46C1092 73.24 1091.34 73.688 1091.34 74.488V74.824C1091.34 75.64 1091.98 76.104 1092.98 76.104ZM1102.63 77H1101.03C1100.15 77 1099.67 76.44 1099.67 75.64V69.864H1098.31V68.744H1099.08C1099.62 68.744 1099.8 68.552 1099.8 67.992V66.456H1100.95V68.744H1102.76V69.864H1100.95V75.88H1102.63V77ZM1107.85 77.192C1105.61 77.192 1104.14 75.496 1104.14 72.872C1104.14 70.248 1105.61 68.552 1107.85 68.552C1110.06 68.552 1111.42 70.248 1111.42 72.584V73.192H1105.49V73.576C1105.49 75 1106.4 76.072 1107.93 76.072C1108.97 76.072 1109.77 75.56 1110.21 74.648L1111.12 75.304C1110.59 76.424 1109.41 77.192 1107.85 77.192ZM1107.85 69.624C1106.46 69.624 1105.49 70.68 1105.49 72.12V72.232H1110.05V72.056C1110.05 70.6 1109.17 69.624 1107.85 69.624ZM1120.42 77.192C1118.18 77.192 1116.71 75.496 1116.71 72.872C1116.71 70.248 1118.18 68.552 1120.42 68.552C1122.63 68.552 1123.99 70.248 1123.99 72.584V73.192H1118.05V73.576C1118.05 75 1118.96 76.072 1120.5 76.072C1121.54 76.072 1122.34 75.56 1122.77 74.648L1123.68 75.304C1123.15 76.424 1121.97 77.192 1120.42 77.192ZM1120.42 69.624C1119.03 69.624 1118.05 70.68 1118.05 72.12V72.232H1122.61V72.056C1122.61 70.6 1121.73 69.624 1120.42 69.624ZM1127.37 77H1126.09V68.744H1127.37V70.088H1127.44C1127.84 69.16 1128.54 68.552 1129.77 68.552C1131.47 68.552 1132.54 69.704 1132.54 71.704V77H1131.26V71.928C1131.26 70.456 1130.62 69.704 1129.39 69.704C1128.37 69.704 1127.37 70.216 1127.37 71.272V77ZM1138.29 77.192C1136.05 77.192 1134.58 75.496 1134.58 72.872C1134.58 70.248 1136.05 68.552 1138.29 68.552C1140.5 68.552 1141.86 70.248 1141.86 72.584V73.192H1135.92V73.576C1135.92 75 1136.84 76.072 1138.37 76.072C1139.41 76.072 1140.21 75.56 1140.64 74.648L1141.56 75.304C1141.03 76.424 1139.84 77.192 1138.29 77.192ZM1138.29 69.624C1136.9 69.624 1135.92 70.68 1135.92 72.12V72.232H1140.48V72.056C1140.48 70.6 1139.6 69.624 1138.29 69.624ZM1145.25 77H1143.97V68.744H1145.25V70.264H1145.33C1145.62 69.48 1146.37 68.744 1147.71 68.744H1148.21V70.024H1147.46C1146.08 70.024 1145.25 70.616 1145.25 71.4V77ZM1156.43 77.912C1156.43 79.608 1155.09 80.392 1152.43 80.392C1149.85 80.392 1148.8 79.656 1148.8 78.36C1148.8 77.464 1149.29 76.984 1150.11 76.76V76.584C1149.65 76.36 1149.37 75.992 1149.37 75.432C1149.37 74.6 1149.97 74.2 1150.8 73.992V73.928C1149.82 73.464 1149.25 72.552 1149.25 71.4C1149.25 69.72 1150.48 68.552 1152.35 68.552C1152.94 68.552 1153.47 68.664 1153.92 68.872V68.728C1153.92 68.088 1154.19 67.624 1154.88 67.624H1156.11V68.744H1154.54V69.272C1155.13 69.784 1155.49 70.52 1155.49 71.4C1155.49 73.08 1154.25 74.248 1152.37 74.248C1152.09 74.248 1151.81 74.216 1151.57 74.168C1151.02 74.312 1150.48 74.584 1150.48 75.096C1150.48 75.592 1150.99 75.72 1151.74 75.72H1153.5C1155.55 75.72 1156.43 76.552 1156.43 77.912ZM1155.23 78.008C1155.23 77.352 1154.8 76.92 1153.52 76.92H1150.77C1150.24 77.16 1150 77.528 1150 78.04C1150 78.76 1150.49 79.352 1151.79 79.352H1152.97C1154.4 79.352 1155.23 78.904 1155.23 78.008ZM1152.37 73.224C1153.45 73.224 1154.14 72.712 1154.14 71.624V71.176C1154.14 70.088 1153.45 69.576 1152.37 69.576C1151.28 69.576 1150.59 70.088 1150.59 71.176V71.624C1150.59 72.712 1151.28 73.224 1152.37 73.224ZM1161.09 74.36L1163.09 68.744H1164.35L1160.66 78.92C1160.29 79.912 1159.95 80.2 1158.74 80.2H1158.08V79.08H1159.38L1160 77.32L1156.91 68.744H1158.19L1160.18 74.36L1160.56 75.704H1160.64L1161.09 74.36Z" fill="#F2F4F8"/>
</svg>
