<svg width="40" height="40" viewBox="0 0 40 40" fill="none" xmlns="http://www.w3.org/2000/svg">
<path d="M33.687 5.83627L26.0941 3.3211C23.5419 2.05081 23.4398 2 22.0616 2C20.6834 2 19.05 3.3338 19.05 6.26817C19.05 8.99929 19.6753 9.62174 21.7298 11.6669C22.8656 12.7975 22.8656 13.8899 22.8656 15.1475C22.8656 15.338 22.789 15.9605 22.0488 15.9605C21.666 15.9605 21.4491 15.808 21.1173 15.5667C20.5941 15.1983 19.8667 14.6902 18.2205 14.6902C15.4769 14.6902 12.797 17.3578 11.5209 18.6408L7.69259 22.4517C6.33992 23.7982 6.25059 25.2209 7.41185 26.5928C6.59514 27.6217 6.35268 29.0572 7.39909 30.3656L5.14037 32.614C5.05104 32.7029 5.01276 32.868 5 32.9824C5 33.1729 5.11485 33.3126 5.26798 33.3761C5.84223 33.8843 6.55686 34.1764 7.30976 34.1891C7.33528 34.1891 7.36081 34.1891 7.38633 34.1891C8.2158 34.1891 8.99423 33.8589 9.60676 33.2491L14.7112 28.168L14.0604 27.5201L8.95595 32.6013C8.49654 33.0586 7.97334 33.338 7.33528 33.2745C6.91417 33.2745 6.49305 33.1348 6.13574 32.8934L8.33065 30.7085L17.2634 21.8165L16.6126 21.1687L8.02438 29.7177C7.24596 28.6507 7.66707 27.5582 8.33065 26.8977L13.4351 21.8165L12.7843 21.1687L8.02438 25.9068C7.24596 24.9414 7.34804 24.0649 8.33065 23.0868L12.159 19.2759C13.3585 18.0819 15.8469 15.6048 18.2205 15.6048C19.5732 15.6048 20.1092 15.9859 20.5813 16.3162C20.9769 16.5956 21.3725 16.8751 22.0488 16.8751C23.325 16.8751 23.7844 15.8462 23.7844 15.1475C23.7844 13.8645 23.7844 12.4164 22.3679 11.0191C20.3644 9.0247 19.9433 8.61821 19.9433 6.25547C19.9433 3.89273 21.028 2.90191 22.0361 2.90191C22.8188 2.90191 24.0481 3.31687 25.7241 4.14679L30.7009 5.79817H24.6011C23.325 5.79817 22.8656 6.8271 22.8656 7.52576C22.8656 8.98659 24.231 10.3458 25.5582 11.6542C27.97 14.055 26.8725 19.8603 24.282 22.439C20.5686 26.1355 18.0419 27.4185 18.0163 27.4312C17.8632 27.5074 17.7611 27.6725 17.7611 27.8377V38H18.6799V28.1044C19.1266 27.8504 20.1474 27.2279 21.5894 26.072V38H22.5082V25.3098C23.2356 24.6874 24.0396 23.9506 24.9201 23.0741C27.8424 20.1651 28.9909 13.7756 26.1962 10.9936C25.0094 9.81228 23.7844 8.5928 23.7844 7.51306C23.7844 7.32251 23.8609 6.70007 24.6011 6.70007H33.5339C33.7636 6.70007 33.955 6.53493 33.9933 6.31898C34.0315 6.10303 33.9039 5.88709 33.687 5.81087V5.83627Z" fill="#C6C6C6"/>
</svg>
