<?xml version='1.0' encoding='utf-8'?>
<svg xmlns="http://www.w3.org/2000/svg" xmlns:ns1="http://sodipodi.sourceforge.net/DTD/sodipodi-0.dtd" xmlns:ns2="http://www.inkscape.org/namespaces/inkscape" version="1.1" id="svg1" width="100%" height="auto" viewBox="-20.0 -20.0 447.96408 176.73735" ns1:docname="svg_fix_XXXXXX.svg">
  <rect id="path1" x="-20.0" y="-20.0" width="447.96408" height="176.73735" fill="white" /><ns1:namedview id="namedview1" pagecolor="#ffffff" bordercolor="#000000" borderopacity="0.25" ns2:showpageshadow="2" ns2:pageopacity="0.0" ns2:pagecheckerboard="0" ns2:deskcolor="#d1d1d1" />
  <defs id="defs1" />
  <g id="g1" transform="translate(-81.119687,-91.083776)">
    <path id="path2" d="M -36.85808,36.85808 H 36.85808" style="fill:none;stroke:#121619;stroke-width:0.3985;stroke-linecap:butt;stroke-linejoin:miter;stroke-miterlimit:10;stroke-dasharray:none;stroke-opacity:1" transform="matrix(2.2666667,0,0,-2.2666667,164.66467,201.22493)" />
    <path id="path3" d="M -36.85808,0 H 36.85808" style="fill:none;stroke:#121619;stroke-width:0.3985;stroke-linecap:butt;stroke-linejoin:miter;stroke-miterlimit:10;stroke-dasharray:none;stroke-opacity:1" transform="matrix(2.2666667,0,0,-2.2666667,164.66467,201.22493)" />
    <path id="path4" d="M -36.85808,29.48792 H 36.85808" style="fill:none;stroke:#121619;stroke-width:0.3985;stroke-linecap:butt;stroke-linejoin:miter;stroke-miterlimit:10;stroke-dasharray:none;stroke-opacity:1" transform="matrix(2.2666667,0,0,-2.2666667,164.66467,201.22493)" />
    <path id="path5" d="M -36.85808,-7.37015 H 36.85808" style="fill:none;stroke:#121619;stroke-width:0.3985;stroke-linecap:butt;stroke-linejoin:miter;stroke-miterlimit:10;stroke-dasharray:none;stroke-opacity:1" transform="matrix(2.2666667,0,0,-2.2666667,164.66467,201.22493)" />
    <path id="path6" d="M -36.85808,33.173 H 36.85808" style="fill:none;stroke:#121619;stroke-width:0.3985;stroke-linecap:butt;stroke-linejoin:miter;stroke-miterlimit:10;stroke-dasharray:none;stroke-opacity:1" transform="matrix(2.2666667,0,0,-2.2666667,164.66467,201.22493)" />
    <path id="path7" d="M -36.85808,-3.68506 H 36.85808" style="fill:none;stroke:#121619;stroke-width:0.3985;stroke-linecap:butt;stroke-linejoin:miter;stroke-miterlimit:10;stroke-dasharray:none;stroke-opacity:1" transform="matrix(2.2666667,0,0,-2.2666667,164.66467,201.22493)" />
    <path id="path8" d="M -36.85808,40.54315 H 36.85808" style="fill:none;stroke:#121619;stroke-width:0.3985;stroke-linecap:butt;stroke-linejoin:miter;stroke-miterlimit:10;stroke-dasharray:none;stroke-opacity:1" transform="matrix(2.2666667,0,0,-2.2666667,164.66467,201.22493)" />
    <path id="path9" d="M -36.85808,3.68506 H 36.85808" style="fill:none;stroke:#121619;stroke-width:0.3985;stroke-linecap:butt;stroke-linejoin:miter;stroke-miterlimit:10;stroke-dasharray:none;stroke-opacity:1" transform="matrix(2.2666667,0,0,-2.2666667,164.66467,201.22493)" />
    <path id="path10" d="M -36.85808,44.22824 H 36.85808" style="fill:none;stroke:#121619;stroke-width:0.3985;stroke-linecap:butt;stroke-linejoin:miter;stroke-miterlimit:10;stroke-dasharray:none;stroke-opacity:1" transform="matrix(2.2666667,0,0,-2.2666667,164.66467,201.22493)" />
    <path id="path11" d="M -36.85808,7.37015 H 36.85808" style="fill:none;stroke:#121619;stroke-width:0.3985;stroke-linecap:butt;stroke-linejoin:miter;stroke-miterlimit:10;stroke-dasharray:none;stroke-opacity:1" transform="matrix(2.2666667,0,0,-2.2666667,164.66467,201.22493)" />
    <path id="path12" d="M -14.17339,-11.33511 H 14.1734 v 59.52829 h -28.34679 z" style="fill:#ffffff;fill-opacity:1;fill-rule:nonzero;stroke:#8a3ffc;stroke-width:0.79701;stroke-linecap:butt;stroke-linejoin:miter;stroke-miterlimit:10;stroke-dasharray:none;stroke-opacity:1" transform="matrix(2.2666667,0,0,-2.2666667,164.66467,201.22493)" />
    <path id="path13" d="m 2.49069,36.85808 c 0,1.37558 -1.11511,2.49069 -2.49069,2.49069 -1.37558,0 -2.49069,-1.11511 -2.49069,-2.49069 0,-1.3756 1.11511,-2.49069 2.49069,-2.49069 1.37558,0 2.49069,1.11509 2.49069,2.49069 z" style="fill:#78a9ff;fill-opacity:1;fill-rule:nonzero;stroke:none" transform="matrix(2.2666667,0,0,-2.2666667,164.66467,201.22493)" />
    <path id="path14" d="M 5.97766,0 C 5.97766,3.3014 3.3014,5.97766 0,5.97766 -3.3014,5.97766 -5.97766,3.3014 -5.97766,0 c 0,-3.3014 2.67626,-5.97766 5.97766,-5.97766 3.3014,0 5.97766,2.67626 5.97766,5.97766 z" style="fill:#78a9ff;fill-opacity:1;fill-rule:nonzero;stroke:#78a9ff;stroke-width:0.3985;stroke-linecap:butt;stroke-linejoin:miter;stroke-miterlimit:10;stroke-dasharray:none;stroke-opacity:1" transform="matrix(2.2666667,0,0,-2.2666667,164.66467,201.22493)" />
    <path id="path15" d="m 4.7080469,-7.8173824 v 3.4122243 H 1.2889292 v 0.9168199 h 3.4191177 v 3.41911761 H 5.6248667 V -3.4883382 H 9.037091 V -4.4051581 H 5.6248667 v -3.4122243 z m 0,0" style="fill:#ffffff;fill-opacity:1;fill-rule:nonzero;stroke:none" aria-label="+" transform="matrix(2.2666667,0,0,2.2666667,152.95733,210.0944)" />
    <path id="path16" d="M 0,36.85808 V 6.17809" style="fill:none;stroke:#78a9ff;stroke-width:0.79701;stroke-linecap:butt;stroke-linejoin:miter;stroke-miterlimit:10;stroke-dasharray:none;stroke-opacity:1" transform="matrix(2.2666667,0,0,-2.2666667,164.66467,201.22493)" />
    <path id="path17" d="M 0.71708732,-2.7015579 H 4.5429145 V -3.2116682 H 0.71708732 Z m 0,1.5303309 H 4.5429145 V -1.6813373 H 0.71708732 Z m 0,0" style="fill:#121619;fill-opacity:1;fill-rule:nonzero;stroke:none" aria-label="=" transform="matrix(2.2666667,0,0,2.2666667,281.14413,164.854)" />
    <path id="path18" d="M -36.85808,29.48792 H 36.85808" style="fill:none;stroke:#121619;stroke-width:0.3985;stroke-linecap:butt;stroke-linejoin:miter;stroke-miterlimit:10;stroke-dasharray:none;stroke-opacity:1" transform="matrix(2.2666667,0,0,-2.2666667,405.5388,201.7576)" />
    <path id="path19" d="M -36.85808,-7.37015 H 36.85808" style="fill:none;stroke:#121619;stroke-width:0.3985;stroke-linecap:butt;stroke-linejoin:miter;stroke-miterlimit:10;stroke-dasharray:none;stroke-opacity:1" transform="matrix(2.2666667,0,0,-2.2666667,405.5388,201.7576)" />
    <path id="path20" d="M -36.85808,33.173 H 36.85808" style="fill:none;stroke:#121619;stroke-width:0.3985;stroke-linecap:butt;stroke-linejoin:miter;stroke-miterlimit:10;stroke-dasharray:none;stroke-opacity:1" transform="matrix(2.2666667,0,0,-2.2666667,405.5388,201.7576)" />
    <path id="path21" d="M -36.85808,-3.68506 H 36.85808" style="fill:none;stroke:#121619;stroke-width:0.3985;stroke-linecap:butt;stroke-linejoin:miter;stroke-miterlimit:10;stroke-dasharray:none;stroke-opacity:1" transform="matrix(2.2666667,0,0,-2.2666667,405.5388,201.7576)" />
    <path id="path22" d="M -36.85808,36.85808 H 36.85808" style="fill:none;stroke:#121619;stroke-width:0.3985;stroke-linecap:butt;stroke-linejoin:miter;stroke-miterlimit:10;stroke-dasharray:none;stroke-opacity:1" transform="matrix(2.2666667,0,0,-2.2666667,405.5388,201.7576)" />
    <path id="path23" d="M -36.85808,0 H 36.85808" style="fill:none;stroke:#121619;stroke-width:0.3985;stroke-linecap:butt;stroke-linejoin:miter;stroke-miterlimit:10;stroke-dasharray:none;stroke-opacity:1" transform="matrix(2.2666667,0,0,-2.2666667,405.5388,201.7576)" />
    <path id="path24" d="M -36.85808,40.54315 H 36.85808" style="fill:none;stroke:#121619;stroke-width:0.3985;stroke-linecap:butt;stroke-linejoin:miter;stroke-miterlimit:10;stroke-dasharray:none;stroke-opacity:1" transform="matrix(2.2666667,0,0,-2.2666667,405.5388,201.7576)" />
    <path id="path25" d="M -36.85808,3.68506 H 36.85808" style="fill:none;stroke:#121619;stroke-width:0.3985;stroke-linecap:butt;stroke-linejoin:miter;stroke-miterlimit:10;stroke-dasharray:none;stroke-opacity:1" transform="matrix(2.2666667,0,0,-2.2666667,405.5388,201.7576)" />
    <path id="path26" d="M -36.85808,44.22824 H 36.85808" style="fill:none;stroke:#121619;stroke-width:0.3985;stroke-linecap:butt;stroke-linejoin:miter;stroke-miterlimit:10;stroke-dasharray:none;stroke-opacity:1" transform="matrix(2.2666667,0,0,-2.2666667,405.5388,201.7576)" />
    <path id="path27" d="M -36.85808,7.37015 H 36.85808" style="fill:none;stroke:#121619;stroke-width:0.3985;stroke-linecap:butt;stroke-linejoin:miter;stroke-miterlimit:10;stroke-dasharray:none;stroke-opacity:1" transform="matrix(2.2666667,0,0,-2.2666667,405.5388,201.7576)" />
    <path id="path28" d="m 17.23102,-7.37015 c 0,1.37558 -1.1151,2.49069 -2.49069,2.49069 -1.37558,0 -2.4907,-1.11511 -2.4907,-2.49069 0,-1.37559 1.11512,-2.49069 2.4907,-2.49069 1.37559,0 2.49069,1.1151 2.49069,2.49069 z" style="fill:#78a9ff;fill-opacity:1;fill-rule:nonzero;stroke:#78a9ff;stroke-width:0.3985;stroke-linecap:butt;stroke-linejoin:miter;stroke-miterlimit:10;stroke-dasharray:none;stroke-opacity:1" transform="matrix(2.2666667,0,0,-2.2666667,405.5388,201.7576)" />
    <path id="path29" d="m 1.9575993,-3.2597187 v 1.4269301 H 0.5375625 v 0.379136 h 1.4200368 v 1.42693017 H 2.3436287 V -1.4536526 h 1.4200367 v -0.379136 H 2.3436287 v -1.4269301 z m 0,0" style="fill:#ffffff;fill-opacity:1;fill-rule:nonzero;stroke:none" aria-label="+" transform="matrix(2.2666667,0,0,2.2666667,434.0784,222.16213)" />
    <path id="path30" d="m 16.23474,29.48074 c 0,0.82535 -0.66907,1.49442 -1.49441,1.49442 -0.82533,0 -1.49442,-0.66907 -1.49442,-1.49442 0,-0.82534 0.66909,-1.49441 1.49442,-1.49441 0.82534,0 1.49441,0.66907 1.49441,1.49441 z" style="fill:#78a9ff;fill-opacity:1;fill-rule:nonzero;stroke:none" transform="matrix(2.2666667,0,0,-2.2666667,405.5388,201.7576)" />
    <path id="path31" d="M 14.74318,29.48647 V -4.68109" style="fill:none;stroke:#78a9ff;stroke-width:0.59776;stroke-linecap:butt;stroke-linejoin:miter;stroke-miterlimit:10;stroke-dasharray:none;stroke-opacity:1" transform="matrix(2.2666667,0,0,-2.2666667,405.5388,201.7576)" />
    <path id="path32" d="m 9.86082,-3.68506 c 0,1.37558 -1.11509,2.49069 -2.49069,2.49069 -1.37558,0 -2.49069,-1.11511 -2.49069,-2.49069 0,-1.37558 1.11511,-2.49069 2.49069,-2.49069 1.3756,0 2.49069,1.11511 2.49069,2.49069 z" style="fill:#78a9ff;fill-opacity:1;fill-rule:nonzero;stroke:#78a9ff;stroke-width:0.3985;stroke-linecap:butt;stroke-linejoin:miter;stroke-miterlimit:10;stroke-dasharray:none;stroke-opacity:1" transform="matrix(2.2666667,0,0,-2.2666667,405.5388,201.7576)" />
    <path id="path33" d="m 1.9578502,-3.259955 v 1.4269302 H 0.53781342 v 0.379136 H 1.9578502 v 1.42693016 H 2.3438796 V -1.4538888 h 1.4200368 v -0.379136 H 2.3438796 V -3.259955 Z m 0,0" style="fill:#ffffff;fill-opacity:1;fill-rule:nonzero;stroke:none" aria-label="+" transform="matrix(2.2666667,0,0,2.2666667,417.3708,213.8072)" />
    <path id="path34" d="m 8.86455,33.16585 c 0,0.82535 -0.66907,1.49441 -1.49442,1.49441 -0.82533,0 -1.49441,-0.66906 -1.49441,-1.49441 0,-0.82535 0.66908,-1.49442 1.49441,-1.49442 0.82535,0 1.49442,0.66907 1.49442,1.49442 z" style="fill:#78a9ff;fill-opacity:1;fill-rule:nonzero;stroke:none" transform="matrix(2.2666667,0,0,-2.2666667,405.5388,201.7576)" />
    <path id="path35" d="M 7.37155,33.17229 V -0.9953" style="fill:none;stroke:#78a9ff;stroke-width:0.59776;stroke-linecap:butt;stroke-linejoin:miter;stroke-miterlimit:10;stroke-dasharray:none;stroke-opacity:1" transform="matrix(2.2666667,0,0,-2.2666667,405.5388,201.7576)" />
    <path id="path36" d="M 2.49069,0 C 2.49069,1.37558 1.37558,2.49069 0,2.49069 -1.37558,2.49069 -2.49069,1.37558 -2.49069,0 c 0,-1.37558 1.11511,-2.49069 2.49069,-2.49069 1.37558,0 2.49069,1.11511 2.49069,2.49069 z" style="fill:#78a9ff;fill-opacity:1;fill-rule:nonzero;stroke:#78a9ff;stroke-width:0.3985;stroke-linecap:butt;stroke-linejoin:miter;stroke-miterlimit:10;stroke-dasharray:none;stroke-opacity:1" transform="matrix(2.2666667,0,0,-2.2666667,405.5388,201.7576)" />
    <path id="path37" d="M 1.9573778,-3.2601912 V -1.833261 H 0.53734099 v 0.379136 H 1.9573778 v 1.42693015 H 2.3434072 V -1.454125 H 3.7634439 V -1.833261 H 2.3434072 v -1.4269302 z m 0,0" style="fill:#ffffff;fill-opacity:1;fill-rule:nonzero;stroke:none" aria-label="+" transform="matrix(2.2666667,0,0,2.2666667,400.66093,205.45227)" />
    <path id="path38" d="m 1.49442,36.85092 c 0,0.82535 -0.66909,1.49442 -1.49442,1.49442 -0.82533,0 -1.49442,-0.66907 -1.49442,-1.49442 0,-0.82535 0.66909,-1.49442 1.49442,-1.49442 0.82533,0 1.49442,0.66907 1.49442,1.49442 z" style="fill:#78a9ff;fill-opacity:1;fill-rule:nonzero;stroke:none" transform="matrix(2.2666667,0,0,-2.2666667,405.5388,201.7576)" />
    <path id="path39" d="M 0,36.85808 V 2.69046" style="fill:none;stroke:#78a9ff;stroke-width:0.59776;stroke-linecap:butt;stroke-linejoin:miter;stroke-miterlimit:10;stroke-dasharray:none;stroke-opacity:1" transform="matrix(2.2666667,0,0,-2.2666667,405.5388,201.7576)" />
    <path id="path40" d="m -4.87944,3.68506 c 0,1.37558 -1.11511,2.49069 -2.49069,2.49069 -1.3756,0 -2.49069,-1.11511 -2.49069,-2.49069 0,-1.37558 1.11509,-2.49069 2.49069,-2.49069 1.37558,0 2.49069,1.11511 2.49069,2.49069 z" style="fill:#78a9ff;fill-opacity:1;fill-rule:nonzero;stroke:#78a9ff;stroke-width:0.3985;stroke-linecap:butt;stroke-linejoin:miter;stroke-miterlimit:10;stroke-dasharray:none;stroke-opacity:1" transform="matrix(2.2666667,0,0,-2.2666667,405.5388,201.7576)" />
    <path id="path41" d="m 1.9569053,-3.2614274 v 1.4269302 H 0.53686857 v 0.379136 H 1.9569053 v 1.42693013 H 2.3429347 V -1.4553612 h 1.4200368 v -0.379136 H 2.3429347 v -1.4269302 z m 0,0" style="fill:#ffffff;fill-opacity:1;fill-rule:nonzero;stroke:none" aria-label="+" transform="matrix(2.2666667,0,0,2.2666667,383.95107,197.0996)" />
    <path id="path42" d="m -5.87572,40.53601 c 0,0.82535 -0.66908,1.49442 -1.49441,1.49442 -0.82535,0 -1.49442,-0.66907 -1.49442,-1.49442 0,-0.82535 0.66907,-1.49441 1.49442,-1.49441 0.82533,0 1.49441,0.66906 1.49441,1.49441 z" style="fill:#78a9ff;fill-opacity:1;fill-rule:nonzero;stroke:none" transform="matrix(2.2666667,0,0,-2.2666667,405.5388,201.7576)" />
    <path id="path43" d="M -7.37155,40.54388 V 6.37624" style="fill:none;stroke:#78a9ff;stroke-width:0.59776;stroke-linecap:butt;stroke-linejoin:miter;stroke-miterlimit:10;stroke-dasharray:none;stroke-opacity:1" transform="matrix(2.2666667,0,0,-2.2666667,405.5388,201.7576)" />
    <path id="path44" d="m -12.24963,7.37015 c 0,1.37559 -1.11512,2.49069 -2.4907,2.49069 -1.37559,0 -2.49069,-1.1151 -2.49069,-2.49069 0,-1.37558 1.1151,-2.49069 2.49069,-2.49069 1.37558,0 2.4907,1.11511 2.4907,2.49069 z" style="fill:#78a9ff;fill-opacity:1;fill-rule:nonzero;stroke:#78a9ff;stroke-width:0.3985;stroke-linecap:butt;stroke-linejoin:miter;stroke-miterlimit:10;stroke-dasharray:none;stroke-opacity:1" transform="matrix(2.2666667,0,0,-2.2666667,405.5388,201.7576)" />
    <path id="path45" d="m 1.9571562,-3.2599403 v 1.4269302 H 0.53711949 v 0.379136 H 1.9571562 v 1.42693017 H 2.3431857 V -1.4538741 h 1.4200367 v -0.379136 H 2.3431857 v -1.4269302 z m 0,0" style="fill:#ffffff;fill-opacity:1;fill-rule:nonzero;stroke:none" aria-label="+" transform="matrix(2.2666667,0,0,2.2666667,367.24347,188.74467)" />
    <path id="path46" d="m -13.24591,44.2211 c 0,0.82535 -0.66909,1.49442 -1.49442,1.49442 -0.82534,0 -1.49441,-0.66907 -1.49441,-1.49442 0,-0.82535 0.66907,-1.49442 1.49441,-1.49442 0.82533,0 1.49442,0.66907 1.49442,1.49442 z" style="fill:#78a9ff;fill-opacity:1;fill-rule:nonzero;stroke:none" transform="matrix(2.2666667,0,0,-2.2666667,405.5388,201.7576)" />
    <path id="path47" d="M -14.74318,44.22969 V 10.06204" style="fill:none;stroke:#78a9ff;stroke-width:0.59776;stroke-linecap:butt;stroke-linejoin:miter;stroke-miterlimit:10;stroke-dasharray:none;stroke-opacity:1" transform="matrix(2.2666667,0,0,-2.2666667,405.5388,201.7576)" />
  </g>
</svg>