<?xml version='1.0' encoding='utf-8'?>
<svg xmlns="http://www.w3.org/2000/svg" xmlns:ns1="http://sodipodi.sourceforge.net/DTD/sodipodi-0.dtd" xmlns:ns2="http://www.inkscape.org/namespaces/inkscape" version="1.1" id="svg1" width="100%" height="auto" viewBox="-20.0 -20.0 539.70312 251.38374" ns1:docname="svg_fix_XXXXXX.svg">
  <rect id="path1" x="-20.0" y="-20.0" width="539.70312" height="251.38374" fill="white" /><ns1:namedview id="namedview1" pagecolor="#ffffff" bordercolor="#000000" borderopacity="0.25" ns2:showpageshadow="2" ns2:pageopacity="0.0" ns2:pagecheckerboard="0" ns2:deskcolor="#d1d1d1" />
  <defs id="defs1" />
  <g id="g1" transform="translate(-51,-44.680908)">
    <path id="path2" d="M -46.77222,-53.85895 H 32.59886 V 53.85895 H -46.77222 Z" style="fill:#78a9ff;fill-opacity:1;fill-rule:nonzero;stroke:#78a9ff;stroke-width:0.3985;stroke-linecap:butt;stroke-linejoin:miter;stroke-miterlimit:10;stroke-dasharray:none;stroke-opacity:1" transform="matrix(1.4666667,0,0,-1.4666667,182.9436,123.96627)" />
    <path id="path3" d="m 3.7384233,-6.1162628 c 0.053267,-0.2450284 0.085227,-0.3409091 0.2769886,-0.3728693 0.085227,-0.010653 0.4048296,-0.010653 0.6072444,-0.010653 0.703125,0 1.8110795,0 1.8110795,0.990767 0,0.3409091 -0.1598011,1.0227273 -0.5433239,1.4169034 -0.2663352,0.2556819 -0.7883522,0.5752841 -1.6832386,0.5752841 h -1.118608 z m 1.4275568,2.7272727 c 1.0120739,-0.2130681 2.1946023,-0.9161931 2.1946023,-1.9176136 0,-0.8629261 -0.8948864,-1.5021307 -2.2052557,-1.5021307 H 2.3215199 c -0.2024148,0 -0.2876421,0 -0.2876421,0.2024148 0,0.1065341 0.085227,0.1065341 0.2769887,0.1065341 0.021307,0 0.2130682,0 0.3728693,0.021307 0.181108,0.021307 0.2769886,0.03196 0.2769886,0.1598011 0,0.042614 -0.010653,0.074574 -0.042614,0.1917614 l -1.3316761,5.34801137 c -0.1065341,0.39417614 -0.1278409,0.46875 -0.90553981,0.46875 -0.18110796,0 -0.27698864,0 -0.27698864,0.20241477 0,0.10653409 0.12784091,0.10653409 0.13849432,0.10653409 0.28764204,0 0.98011363,-0.03196022 1.25710223,-0.03196022 0.2769887,0 0.9907671,0.03196022 1.2677557,0.03196022 0.074574,0 0.2024148,0 0.2024148,-0.20241477 0,-0.10653409 -0.095881,-0.10653409 -0.287642,-0.10653409 -0.362216,0 -0.6392046,0 -0.6392046,-0.18110795 0,-0.053267 0.021307,-0.10653409 0.03196,-0.17045455 l 0.649858,-2.63139207 h 1.1931818 c 0.9055398,0 1.0759943,0.5539773 1.0759943,0.9055398 0,0.1491477 -0.074574,0.4580966 -0.1384943,0.6818182 -0.06392,0.2769886 -0.1598011,0.6498579 -0.1598011,0.85227271 0,1.07599432 1.2038352,1.07599432 1.3316761,1.07599432 0.8416193,0 1.1931818,-1.01207387 1.1931818,-1.15056819 0,-0.11718754 -0.1065341,-0.11718754 -0.1171875,-0.11718754 -0.095881,0 -0.1171875,0.0639205 -0.1278409,0.13849436 -0.2556818,0.73508523 -0.6818182,0.90553977 -0.9161932,0.90553977 -0.3196022,0 -0.3941761,-0.22372159 -0.3941761,-0.60724431 0,-0.30894887 0.063921,-0.82031252 0.095881,-1.13991482 0.021307,-0.1384943 0.042614,-0.3196022 0.042614,-0.46875 0,-0.7670454 -0.6605113,-1.0759943 -0.9375001,-1.1718752 z m 0,0" style="fill:#ffffff;fill-opacity:1;fill-rule:nonzero;stroke:none" aria-label="R" transform="matrix(1.4666667,0,0,1.4666667,166.94667,128.9588)" />
    <path id="path4" d="m 105.59184,-53.85895 h 79.37108 v 107.7179 h -79.37108 z" style="fill:#78a9ff;fill-opacity:1;fill-rule:nonzero;stroke:#78a9ff;stroke-width:0.3985;stroke-linecap:butt;stroke-linejoin:miter;stroke-miterlimit:10;stroke-dasharray:none;stroke-opacity:1" transform="matrix(1.4666667,0,0,-1.4666667,182.9436,123.96627)" />
    <g id="g4" aria-label="R&#10;†" transform="matrix(1.4666667,0,0,1.4666667,387.63453,131.3656)">
      <path id="path5" d="m 3.7381733,-6.1139744 c 0.053267,-0.2450284 0.085227,-0.3409091 0.2769886,-0.3728693 0.085227,-0.010654 0.4048296,-0.010654 0.6072443,-0.010654 0.703125,0 1.8110796,0 1.8110796,0.9907671 0,0.3409091 -0.1598011,1.0227273 -0.5433239,1.4169034 -0.2663352,0.2556818 -0.7883522,0.5752841 -1.6832386,0.5752841 h -1.118608 z m 1.4275568,2.7272727 c 1.0120739,-0.2130682 2.1946023,-0.9161932 2.1946023,-1.9176136 0,-0.8629262 -0.8948864,-1.5021307 -2.2052557,-1.5021307 H 2.3212699 c -0.2024148,0 -0.2876421,0 -0.2876421,0.2024148 0,0.106534 0.085227,0.106534 0.2769887,0.106534 0.021307,0 0.2130682,0 0.3728693,0.021307 0.1811079,0.021307 0.2769886,0.03196 0.2769886,0.1598011 0,0.042614 -0.010653,0.074574 -0.042614,0.1917614 l -1.3316761,5.34801132 c -0.1065341,0.39417614 -0.127841,0.46875 -0.90553981,0.46875 -0.18110796,0 -0.27698864,0 -0.27698864,0.20241478 0,0.10653409 0.12784091,0.10653409 0.13849432,0.10653409 0.28764204,0 0.98011363,-0.03196023 1.25710223,-0.03196023 0.2769887,0 0.9907671,0.03196023 1.2677557,0.03196023 0.074574,0 0.2024148,0 0.2024148,-0.20241478 0,-0.10653409 -0.095881,-0.10653409 -0.2876421,-0.10653409 -0.3622159,0 -0.6392045,0 -0.6392045,-0.18110795 0,-0.0532671 0.021307,-0.10653409 0.03196,-0.17045455 L 3.0243949,-3.290821 h 1.1931818 c 0.9055398,0 1.0759943,0.5539773 1.0759943,0.9055398 0,0.1491477 -0.074574,0.4580965 -0.1384943,0.6818181 -0.063921,0.2769887 -0.1598011,0.649858 -0.1598011,0.85227276 0,1.07599432 1.2038352,1.07599432 1.3316761,1.07599432 0.8416193,0 1.1931818,-1.01207387 1.1931818,-1.15056818 0,-0.1171875 -0.1065341,-0.1171875 -0.1171875,-0.1171875 -0.095881,0 -0.1171875,0.0639204 -0.1278409,0.13849431 -0.2556818,0.73508523 -0.6818182,0.90553978 -0.9161932,0.90553978 -0.3196022,0 -0.3941761,-0.22372159 -0.3941761,-0.60724432 0,-0.30894887 0.06392,-0.82031247 0.095881,-1.13991477 0.021307,-0.1384943 0.042614,-0.3196023 0.042614,-0.46875 0,-0.7670455 -0.6605114,-1.0759943 -0.9375007,-1.171875 z m 0,0" style="fill:#ffffff;fill-opacity:1;fill-rule:nonzero;stroke:none" />
      <path id="path6" d="m 10.519068,-8.1860625 c 0,-0.053267 -0.03196,-0.2663352 -0.287642,-0.2663352 -0.106534,0 -0.2769885,0.03196 -0.4367896,0.085227 -0.181108,0.053267 -0.3089489,0.085227 -0.4261364,0.095881 0.010653,-0.1171875 0.010653,-0.2769886 0.085227,-0.703125 0.03196,-0.1598011 0.095881,-0.5646307 0.095881,-0.8096591 0,-0.053267 0,-0.3089492 -0.2556819,-0.3089492 -0.2663352,0 -0.2663352,0.2450288 -0.2663352,0.3089492 0,0.234375 0.053267,0.5859375 0.085227,0.7990057 0.074574,0.4580966 0.074574,0.5539773 0.085227,0.7137784 -0.127841,-0.010653 -0.234375,-0.042614 -0.3941762,-0.095881 -0.1598011,-0.042614 -0.3409091,-0.085227 -0.46875,-0.085227 -0.2769886,0 -0.2769886,0.2663352 -0.2769886,0.2663352 0,0.053267 0.021307,0.2663352 0.2769886,0.2663352 0.1065341,0 0.2769887,-0.03196 0.4474432,-0.085227 0.181108,-0.053267 0.3089489,-0.074574 0.415483,-0.095881 -0.010654,0.1171875 -0.010654,0.234375 -0.063921,0.4794034 -0.1065341,0.4900568 -0.1065341,0.5433238 -0.1065341,0.9161932 0,0.8309659 0.053267,1.9708806 0.1384943,2.865767 0.010653,0.1065341 0.021307,0.1598011 0.1171875,0.1598011 0.053267,0 0.095881,-0.010653 0.1065341,-0.095881 0.021307,-0.095881 0.1598012,-1.5553978 0.1598012,-2.9296875 0,-0.3515625 0,-0.4261364 -0.095881,-0.8522728 -0.063921,-0.3196022 -0.063921,-0.3835227 -0.085227,-0.5433238 0.1278409,0.021307 0.234375,0.042614 0.4048295,0.095881 0.1491478,0.042614 0.3302556,0.085227 0.4580966,0.085227 0.287642,0 0.287642,-0.2663352 0.287642,-0.2663352 z m 0,0" style="fill:#ffffff;fill-opacity:1;fill-rule:nonzero;stroke:none" />
    </g>
    <path id="path7" d="m -60.92459,11.33871 h 13.95311" style="fill:none;stroke:#121619;stroke-width:0.3985;stroke-linecap:butt;stroke-linejoin:miter;stroke-miterlimit:10;stroke-dasharray:none;stroke-opacity:1" transform="matrix(1.4666667,0,0,-1.4666667,182.9436,123.96627)" />
    <path id="path8" d="M 199.1153,11.33871 H 185.16217" style="fill:none;stroke:#121619;stroke-width:0.3985;stroke-linecap:butt;stroke-linejoin:miter;stroke-miterlimit:10;stroke-dasharray:none;stroke-opacity:1" transform="matrix(1.4666667,0,0,-1.4666667,182.9436,123.96627)" />
    <path id="path9" d="m -60.92459,14.17339 h 13.95311" style="fill:none;stroke:#121619;stroke-width:0.3985;stroke-linecap:butt;stroke-linejoin:miter;stroke-miterlimit:10;stroke-dasharray:none;stroke-opacity:1" transform="matrix(1.4666667,0,0,-1.4666667,182.9436,123.96627)" />
    <path id="path10" d="M 199.1153,14.17339 H 185.16217" style="fill:none;stroke:#121619;stroke-width:0.3985;stroke-linecap:butt;stroke-linejoin:miter;stroke-miterlimit:10;stroke-dasharray:none;stroke-opacity:1" transform="matrix(1.4666667,0,0,-1.4666667,182.9436,123.96627)" />
    <path id="path11" d="m -60.92459,17.00807 h 13.95311" style="fill:none;stroke:#121619;stroke-width:0.3985;stroke-linecap:butt;stroke-linejoin:miter;stroke-miterlimit:10;stroke-dasharray:none;stroke-opacity:1" transform="matrix(1.4666667,0,0,-1.4666667,182.9436,123.96627)" />
    <path id="path12" d="M 199.1153,17.00807 H 185.16217" style="fill:none;stroke:#121619;stroke-width:0.3985;stroke-linecap:butt;stroke-linejoin:miter;stroke-miterlimit:10;stroke-dasharray:none;stroke-opacity:1" transform="matrix(1.4666667,0,0,-1.4666667,182.9436,123.96627)" />
    <path id="path13" d="m -60.92459,19.84276 h 13.95311" style="fill:none;stroke:#121619;stroke-width:0.3985;stroke-linecap:butt;stroke-linejoin:miter;stroke-miterlimit:10;stroke-dasharray:none;stroke-opacity:1" transform="matrix(1.4666667,0,0,-1.4666667,182.9436,123.96627)" />
    <path id="path14" d="M 199.1153,19.84276 H 185.16217" style="fill:none;stroke:#121619;stroke-width:0.3985;stroke-linecap:butt;stroke-linejoin:miter;stroke-miterlimit:10;stroke-dasharray:none;stroke-opacity:1" transform="matrix(1.4666667,0,0,-1.4666667,182.9436,123.96627)" />
    <path id="path15" d="m -60.92459,22.67744 h 13.95311" style="fill:none;stroke:#121619;stroke-width:0.3985;stroke-linecap:butt;stroke-linejoin:miter;stroke-miterlimit:10;stroke-dasharray:none;stroke-opacity:1" transform="matrix(1.4666667,0,0,-1.4666667,182.9436,123.96627)" />
    <path id="path16" d="M 199.1153,22.67744 H 185.16217" style="fill:none;stroke:#121619;stroke-width:0.3985;stroke-linecap:butt;stroke-linejoin:miter;stroke-miterlimit:10;stroke-dasharray:none;stroke-opacity:1" transform="matrix(1.4666667,0,0,-1.4666667,182.9436,123.96627)" />
    <path id="path17" d="m -60.92459,25.51212 h 13.95311" style="fill:none;stroke:#121619;stroke-width:0.3985;stroke-linecap:butt;stroke-linejoin:miter;stroke-miterlimit:10;stroke-dasharray:none;stroke-opacity:1" transform="matrix(1.4666667,0,0,-1.4666667,182.9436,123.96627)" />
    <path id="path18" d="M 199.1153,25.51212 H 185.16217" style="fill:none;stroke:#121619;stroke-width:0.3985;stroke-linecap:butt;stroke-linejoin:miter;stroke-miterlimit:10;stroke-dasharray:none;stroke-opacity:1" transform="matrix(1.4666667,0,0,-1.4666667,182.9436,123.96627)" />
    <path id="path19" d="m -60.92459,28.3468 h 13.95311" style="fill:none;stroke:#121619;stroke-width:0.3985;stroke-linecap:butt;stroke-linejoin:miter;stroke-miterlimit:10;stroke-dasharray:none;stroke-opacity:1" transform="matrix(1.4666667,0,0,-1.4666667,182.9436,123.96627)" />
    <path id="path20" d="M 199.1153,28.3468 H 185.16217" style="fill:none;stroke:#121619;stroke-width:0.3985;stroke-linecap:butt;stroke-linejoin:miter;stroke-miterlimit:10;stroke-dasharray:none;stroke-opacity:1" transform="matrix(1.4666667,0,0,-1.4666667,182.9436,123.96627)" />
    <path id="path21" d="m -60.92459,31.18149 h 13.95311" style="fill:none;stroke:#121619;stroke-width:0.3985;stroke-linecap:butt;stroke-linejoin:miter;stroke-miterlimit:10;stroke-dasharray:none;stroke-opacity:1" transform="matrix(1.4666667,0,0,-1.4666667,182.9436,123.96627)" />
    <path id="path22" d="M 199.1153,31.18149 H 185.16217" style="fill:none;stroke:#121619;stroke-width:0.3985;stroke-linecap:butt;stroke-linejoin:miter;stroke-miterlimit:10;stroke-dasharray:none;stroke-opacity:1" transform="matrix(1.4666667,0,0,-1.4666667,182.9436,123.96627)" />
    <path id="path23" d="m -60.92459,34.01617 h 13.95311" style="fill:none;stroke:#121619;stroke-width:0.3985;stroke-linecap:butt;stroke-linejoin:miter;stroke-miterlimit:10;stroke-dasharray:none;stroke-opacity:1" transform="matrix(1.4666667,0,0,-1.4666667,182.9436,123.96627)" />
    <path id="path24" d="M 199.1153,34.01617 H 185.16217" style="fill:none;stroke:#121619;stroke-width:0.3985;stroke-linecap:butt;stroke-linejoin:miter;stroke-miterlimit:10;stroke-dasharray:none;stroke-opacity:1" transform="matrix(1.4666667,0,0,-1.4666667,182.9436,123.96627)" />
    <path id="path25" d="m -60.92459,36.85085 h 13.95311" style="fill:none;stroke:#121619;stroke-width:0.3985;stroke-linecap:butt;stroke-linejoin:miter;stroke-miterlimit:10;stroke-dasharray:none;stroke-opacity:1" transform="matrix(1.4666667,0,0,-1.4666667,182.9436,123.96627)" />
    <path id="path26" d="M 199.1153,36.85085 H 185.16217" style="fill:none;stroke:#121619;stroke-width:0.3985;stroke-linecap:butt;stroke-linejoin:miter;stroke-miterlimit:10;stroke-dasharray:none;stroke-opacity:1" transform="matrix(1.4666667,0,0,-1.4666667,182.9436,123.96627)" />
    <path id="path27" d="m -60.92459,39.68553 h 13.95311" style="fill:none;stroke:#121619;stroke-width:0.3985;stroke-linecap:butt;stroke-linejoin:miter;stroke-miterlimit:10;stroke-dasharray:none;stroke-opacity:1" transform="matrix(1.4666667,0,0,-1.4666667,182.9436,123.96627)" />
    <path id="path28" d="M 199.1153,39.68553 H 185.16217" style="fill:none;stroke:#121619;stroke-width:0.3985;stroke-linecap:butt;stroke-linejoin:miter;stroke-miterlimit:10;stroke-dasharray:none;stroke-opacity:1" transform="matrix(1.4666667,0,0,-1.4666667,182.9436,123.96627)" />
    <path id="path29" d="m -60.92459,42.52022 h 13.95311" style="fill:none;stroke:#121619;stroke-width:0.3985;stroke-linecap:butt;stroke-linejoin:miter;stroke-miterlimit:10;stroke-dasharray:none;stroke-opacity:1" transform="matrix(1.4666667,0,0,-1.4666667,182.9436,123.96627)" />
    <path id="path30" d="M 199.1153,42.52022 H 185.16217" style="fill:none;stroke:#121619;stroke-width:0.3985;stroke-linecap:butt;stroke-linejoin:miter;stroke-miterlimit:10;stroke-dasharray:none;stroke-opacity:1" transform="matrix(1.4666667,0,0,-1.4666667,182.9436,123.96627)" />
    <path id="path31" d="m -60.92459,45.3549 h 13.95311" style="fill:none;stroke:#121619;stroke-width:0.3985;stroke-linecap:butt;stroke-linejoin:miter;stroke-miterlimit:10;stroke-dasharray:none;stroke-opacity:1" transform="matrix(1.4666667,0,0,-1.4666667,182.9436,123.96627)" />
    <path id="path32" d="M 199.1153,45.3549 H 185.16217" style="fill:none;stroke:#121619;stroke-width:0.3985;stroke-linecap:butt;stroke-linejoin:miter;stroke-miterlimit:10;stroke-dasharray:none;stroke-opacity:1" transform="matrix(1.4666667,0,0,-1.4666667,182.9436,123.96627)" />
    <path id="path33" d="m -60.92459,-45.3549 h 13.95311" style="fill:none;stroke:#121619;stroke-width:0.3985;stroke-linecap:butt;stroke-linejoin:miter;stroke-miterlimit:10;stroke-dasharray:none;stroke-opacity:1" transform="matrix(1.4666667,0,0,-1.4666667,182.9436,123.96627)" />
    <path id="path34" d="M 199.1153,-45.3549 H 185.16217" style="fill:none;stroke:#121619;stroke-width:0.3985;stroke-linecap:butt;stroke-linejoin:miter;stroke-miterlimit:10;stroke-dasharray:none;stroke-opacity:1" transform="matrix(1.4666667,0,0,-1.4666667,182.9436,123.96627)" />
    <path id="path35" d="m -60.92459,-42.52022 h 13.95311" style="fill:none;stroke:#121619;stroke-width:0.3985;stroke-linecap:butt;stroke-linejoin:miter;stroke-miterlimit:10;stroke-dasharray:none;stroke-opacity:1" transform="matrix(1.4666667,0,0,-1.4666667,182.9436,123.96627)" />
    <path id="path36" d="M 199.1153,-42.52022 H 185.16217" style="fill:none;stroke:#121619;stroke-width:0.3985;stroke-linecap:butt;stroke-linejoin:miter;stroke-miterlimit:10;stroke-dasharray:none;stroke-opacity:1" transform="matrix(1.4666667,0,0,-1.4666667,182.9436,123.96627)" />
    <path id="path37" d="m -60.92459,-39.68553 h 13.95311" style="fill:none;stroke:#121619;stroke-width:0.3985;stroke-linecap:butt;stroke-linejoin:miter;stroke-miterlimit:10;stroke-dasharray:none;stroke-opacity:1" transform="matrix(1.4666667,0,0,-1.4666667,182.9436,123.96627)" />
    <path id="path38" d="M 199.1153,-39.68553 H 185.16217" style="fill:none;stroke:#121619;stroke-width:0.3985;stroke-linecap:butt;stroke-linejoin:miter;stroke-miterlimit:10;stroke-dasharray:none;stroke-opacity:1" transform="matrix(1.4666667,0,0,-1.4666667,182.9436,123.96627)" />
    <path id="path39" d="m -60.92459,-36.85085 h 13.95311" style="fill:none;stroke:#121619;stroke-width:0.3985;stroke-linecap:butt;stroke-linejoin:miter;stroke-miterlimit:10;stroke-dasharray:none;stroke-opacity:1" transform="matrix(1.4666667,0,0,-1.4666667,182.9436,123.96627)" />
    <path id="path40" d="M 199.1153,-36.85085 H 185.16217" style="fill:none;stroke:#121619;stroke-width:0.3985;stroke-linecap:butt;stroke-linejoin:miter;stroke-miterlimit:10;stroke-dasharray:none;stroke-opacity:1" transform="matrix(1.4666667,0,0,-1.4666667,182.9436,123.96627)" />
    <path id="path41" d="m -60.92459,-34.01617 h 13.95311" style="fill:none;stroke:#121619;stroke-width:0.3985;stroke-linecap:butt;stroke-linejoin:miter;stroke-miterlimit:10;stroke-dasharray:none;stroke-opacity:1" transform="matrix(1.4666667,0,0,-1.4666667,182.9436,123.96627)" />
    <path id="path42" d="M 199.1153,-34.01617 H 185.16217" style="fill:none;stroke:#121619;stroke-width:0.3985;stroke-linecap:butt;stroke-linejoin:miter;stroke-miterlimit:10;stroke-dasharray:none;stroke-opacity:1" transform="matrix(1.4666667,0,0,-1.4666667,182.9436,123.96627)" />
    <path id="path43" d="m -60.92459,-31.18149 h 13.95311" style="fill:none;stroke:#121619;stroke-width:0.3985;stroke-linecap:butt;stroke-linejoin:miter;stroke-miterlimit:10;stroke-dasharray:none;stroke-opacity:1" transform="matrix(1.4666667,0,0,-1.4666667,182.9436,123.96627)" />
    <path id="path44" d="M 199.1153,-31.18149 H 185.16217" style="fill:none;stroke:#121619;stroke-width:0.3985;stroke-linecap:butt;stroke-linejoin:miter;stroke-miterlimit:10;stroke-dasharray:none;stroke-opacity:1" transform="matrix(1.4666667,0,0,-1.4666667,182.9436,123.96627)" />
    <path id="path45" d="m -60.92459,-28.3468 h 13.95311" style="fill:none;stroke:#121619;stroke-width:0.3985;stroke-linecap:butt;stroke-linejoin:miter;stroke-miterlimit:10;stroke-dasharray:none;stroke-opacity:1" transform="matrix(1.4666667,0,0,-1.4666667,182.9436,123.96627)" />
    <path id="path46" d="M 199.1153,-28.3468 H 185.16217" style="fill:none;stroke:#121619;stroke-width:0.3985;stroke-linecap:butt;stroke-linejoin:miter;stroke-miterlimit:10;stroke-dasharray:none;stroke-opacity:1" transform="matrix(1.4666667,0,0,-1.4666667,182.9436,123.96627)" />
    <path id="path47" d="m -60.92459,-25.51212 h 13.95311" style="fill:none;stroke:#121619;stroke-width:0.3985;stroke-linecap:butt;stroke-linejoin:miter;stroke-miterlimit:10;stroke-dasharray:none;stroke-opacity:1" transform="matrix(1.4666667,0,0,-1.4666667,182.9436,123.96627)" />
    <path id="path48" d="M 199.1153,-25.51212 H 185.16217" style="fill:none;stroke:#121619;stroke-width:0.3985;stroke-linecap:butt;stroke-linejoin:miter;stroke-miterlimit:10;stroke-dasharray:none;stroke-opacity:1" transform="matrix(1.4666667,0,0,-1.4666667,182.9436,123.96627)" />
    <path id="path49" d="m -60.92459,-22.67744 h 13.95311" style="fill:none;stroke:#121619;stroke-width:0.3985;stroke-linecap:butt;stroke-linejoin:miter;stroke-miterlimit:10;stroke-dasharray:none;stroke-opacity:1" transform="matrix(1.4666667,0,0,-1.4666667,182.9436,123.96627)" />
    <path id="path50" d="M 199.1153,-22.67744 H 185.16217" style="fill:none;stroke:#121619;stroke-width:0.3985;stroke-linecap:butt;stroke-linejoin:miter;stroke-miterlimit:10;stroke-dasharray:none;stroke-opacity:1" transform="matrix(1.4666667,0,0,-1.4666667,182.9436,123.96627)" />
    <path id="path51" d="m -60.92459,-19.84276 h 13.95311" style="fill:none;stroke:#121619;stroke-width:0.3985;stroke-linecap:butt;stroke-linejoin:miter;stroke-miterlimit:10;stroke-dasharray:none;stroke-opacity:1" transform="matrix(1.4666667,0,0,-1.4666667,182.9436,123.96627)" />
    <path id="path52" d="M 199.1153,-19.84276 H 185.16217" style="fill:none;stroke:#121619;stroke-width:0.3985;stroke-linecap:butt;stroke-linejoin:miter;stroke-miterlimit:10;stroke-dasharray:none;stroke-opacity:1" transform="matrix(1.4666667,0,0,-1.4666667,182.9436,123.96627)" />
    <path id="path53" d="m -60.92459,-17.00807 h 13.95311" style="fill:none;stroke:#121619;stroke-width:0.3985;stroke-linecap:butt;stroke-linejoin:miter;stroke-miterlimit:10;stroke-dasharray:none;stroke-opacity:1" transform="matrix(1.4666667,0,0,-1.4666667,182.9436,123.96627)" />
    <path id="path54" d="M 199.1153,-17.00807 H 185.16217" style="fill:none;stroke:#121619;stroke-width:0.3985;stroke-linecap:butt;stroke-linejoin:miter;stroke-miterlimit:10;stroke-dasharray:none;stroke-opacity:1" transform="matrix(1.4666667,0,0,-1.4666667,182.9436,123.96627)" />
    <path id="path55" d="m -60.92459,-14.17339 h 13.95311" style="fill:none;stroke:#121619;stroke-width:0.3985;stroke-linecap:butt;stroke-linejoin:miter;stroke-miterlimit:10;stroke-dasharray:none;stroke-opacity:1" transform="matrix(1.4666667,0,0,-1.4666667,182.9436,123.96627)" />
    <path id="path56" d="M 199.1153,-14.17339 H 185.16217" style="fill:none;stroke:#121619;stroke-width:0.3985;stroke-linecap:butt;stroke-linejoin:miter;stroke-miterlimit:10;stroke-dasharray:none;stroke-opacity:1" transform="matrix(1.4666667,0,0,-1.4666667,182.9436,123.96627)" />
    <path id="path57" d="m -60.92459,-11.33871 h 13.95311" style="fill:none;stroke:#121619;stroke-width:0.3985;stroke-linecap:butt;stroke-linejoin:miter;stroke-miterlimit:10;stroke-dasharray:none;stroke-opacity:1" transform="matrix(1.4666667,0,0,-1.4666667,182.9436,123.96627)" />
    <path id="path58" d="M 199.1153,-11.33871 H 185.16217" style="fill:none;stroke:#121619;stroke-width:0.3985;stroke-linecap:butt;stroke-linejoin:miter;stroke-miterlimit:10;stroke-dasharray:none;stroke-opacity:1" transform="matrix(1.4666667,0,0,-1.4666667,182.9436,123.96627)" />
    <path id="path59" d="m -60.92459,-8.50403 h 13.95311" style="fill:none;stroke:#121619;stroke-width:0.3985;stroke-linecap:butt;stroke-linejoin:miter;stroke-miterlimit:10;stroke-dasharray:none;stroke-opacity:1" transform="matrix(1.4666667,0,0,-1.4666667,182.9436,123.96627)" />
    <path id="path60" d="M 199.1153,-8.50403 H 185.16217" style="fill:none;stroke:#121619;stroke-width:0.3985;stroke-linecap:butt;stroke-linejoin:miter;stroke-miterlimit:10;stroke-dasharray:none;stroke-opacity:1" transform="matrix(1.4666667,0,0,-1.4666667,182.9436,123.96627)" />
    <path id="path61" d="m -60.92459,-5.66934 h 13.95311" style="fill:none;stroke:#121619;stroke-width:0.3985;stroke-linecap:butt;stroke-linejoin:miter;stroke-miterlimit:10;stroke-dasharray:none;stroke-opacity:1" transform="matrix(1.4666667,0,0,-1.4666667,182.9436,123.96627)" />
    <path id="path62" d="M 199.1153,-5.66934 H 185.16217" style="fill:none;stroke:#121619;stroke-width:0.3985;stroke-linecap:butt;stroke-linejoin:miter;stroke-miterlimit:10;stroke-dasharray:none;stroke-opacity:1" transform="matrix(1.4666667,0,0,-1.4666667,182.9436,123.96627)" />
    <path id="path63" d="m -60.92459,-2.83466 h 13.95311" style="fill:none;stroke:#121619;stroke-width:0.3985;stroke-linecap:butt;stroke-linejoin:miter;stroke-miterlimit:10;stroke-dasharray:none;stroke-opacity:1" transform="matrix(1.4666667,0,0,-1.4666667,182.9436,123.96627)" />
    <path id="path64" d="M 199.1153,-2.83466 H 185.16217" style="fill:none;stroke:#121619;stroke-width:0.3985;stroke-linecap:butt;stroke-linejoin:miter;stroke-miterlimit:10;stroke-dasharray:none;stroke-opacity:1" transform="matrix(1.4666667,0,0,-1.4666667,182.9436,123.96627)" />
    <path id="path65" d="M 105.3926,19.84276 H 32.7981" style="fill:none;stroke:#121619;stroke-width:0.3985;stroke-linecap:butt;stroke-linejoin:miter;stroke-miterlimit:10;stroke-dasharray:none;stroke-opacity:1" transform="matrix(1.4666667,0,0,-1.4666667,182.9436,123.96627)" />
    <path id="path66" d="M 105.3926,22.67744 H 32.7981" style="fill:none;stroke:#121619;stroke-width:0.3985;stroke-linecap:butt;stroke-linejoin:miter;stroke-miterlimit:10;stroke-dasharray:none;stroke-opacity:1" transform="matrix(1.4666667,0,0,-1.4666667,182.9436,123.96627)" />
    <path id="path67" d="M 105.3926,25.51212 H 32.7981" style="fill:none;stroke:#121619;stroke-width:0.3985;stroke-linecap:butt;stroke-linejoin:miter;stroke-miterlimit:10;stroke-dasharray:none;stroke-opacity:1" transform="matrix(1.4666667,0,0,-1.4666667,182.9436,123.96627)" />
    <path id="path68" d="M 105.3926,28.3468 H 32.7981" style="fill:none;stroke:#121619;stroke-width:0.3985;stroke-linecap:butt;stroke-linejoin:miter;stroke-miterlimit:10;stroke-dasharray:none;stroke-opacity:1" transform="matrix(1.4666667,0,0,-1.4666667,182.9436,123.96627)" />
    <path id="path69" d="M 105.3926,31.18149 H 32.7981" style="fill:none;stroke:#121619;stroke-width:0.3985;stroke-linecap:butt;stroke-linejoin:miter;stroke-miterlimit:10;stroke-dasharray:none;stroke-opacity:1" transform="matrix(1.4666667,0,0,-1.4666667,182.9436,123.96627)" />
    <path id="path70" d="M 105.3926,34.01617 H 32.7981" style="fill:none;stroke:#121619;stroke-width:0.3985;stroke-linecap:butt;stroke-linejoin:miter;stroke-miterlimit:10;stroke-dasharray:none;stroke-opacity:1" transform="matrix(1.4666667,0,0,-1.4666667,182.9436,123.96627)" />
    <path id="path71" d="M 105.3926,36.85085 H 32.7981" style="fill:none;stroke:#121619;stroke-width:0.3985;stroke-linecap:butt;stroke-linejoin:miter;stroke-miterlimit:10;stroke-dasharray:none;stroke-opacity:1" transform="matrix(1.4666667,0,0,-1.4666667,182.9436,123.96627)" />
    <path id="path72" d="M 105.3926,39.68553 H 32.7981" style="fill:none;stroke:#121619;stroke-width:0.3985;stroke-linecap:butt;stroke-linejoin:miter;stroke-miterlimit:10;stroke-dasharray:none;stroke-opacity:1" transform="matrix(1.4666667,0,0,-1.4666667,182.9436,123.96627)" />
    <path id="path73" d="M 105.3926,42.52022 H 32.7981" style="fill:none;stroke:#121619;stroke-width:0.3985;stroke-linecap:butt;stroke-linejoin:miter;stroke-miterlimit:10;stroke-dasharray:none;stroke-opacity:1" transform="matrix(1.4666667,0,0,-1.4666667,182.9436,123.96627)" />
    <path id="path74" d="M 105.3926,45.3549 H 32.7981" style="fill:none;stroke:#121619;stroke-width:0.3985;stroke-linecap:butt;stroke-linejoin:miter;stroke-miterlimit:10;stroke-dasharray:none;stroke-opacity:1" transform="matrix(1.4666667,0,0,-1.4666667,182.9436,123.96627)" />
    <path id="path75" d="M 105.3926,-45.3549 H 32.7981" style="fill:none;stroke:#121619;stroke-width:0.3985;stroke-linecap:butt;stroke-linejoin:miter;stroke-miterlimit:10;stroke-dasharray:none;stroke-opacity:1" transform="matrix(1.4666667,0,0,-1.4666667,182.9436,123.96627)" />
    <path id="path76" d="M 105.3926,-42.52022 H 32.7981" style="fill:none;stroke:#121619;stroke-width:0.3985;stroke-linecap:butt;stroke-linejoin:miter;stroke-miterlimit:10;stroke-dasharray:none;stroke-opacity:1" transform="matrix(1.4666667,0,0,-1.4666667,182.9436,123.96627)" />
    <path id="path77" d="M 105.3926,-39.68553 H 32.7981" style="fill:none;stroke:#121619;stroke-width:0.3985;stroke-linecap:butt;stroke-linejoin:miter;stroke-miterlimit:10;stroke-dasharray:none;stroke-opacity:1" transform="matrix(1.4666667,0,0,-1.4666667,182.9436,123.96627)" />
    <path id="path78" d="M 105.3926,-36.85085 H 32.7981" style="fill:none;stroke:#121619;stroke-width:0.3985;stroke-linecap:butt;stroke-linejoin:miter;stroke-miterlimit:10;stroke-dasharray:none;stroke-opacity:1" transform="matrix(1.4666667,0,0,-1.4666667,182.9436,123.96627)" />
    <path id="path79" d="M 105.3926,-34.01617 H 32.7981" style="fill:none;stroke:#121619;stroke-width:0.3985;stroke-linecap:butt;stroke-linejoin:miter;stroke-miterlimit:10;stroke-dasharray:none;stroke-opacity:1" transform="matrix(1.4666667,0,0,-1.4666667,182.9436,123.96627)" />
    <path id="path80" d="M 105.3926,-31.18149 H 32.7981" style="fill:none;stroke:#121619;stroke-width:0.3985;stroke-linecap:butt;stroke-linejoin:miter;stroke-miterlimit:10;stroke-dasharray:none;stroke-opacity:1" transform="matrix(1.4666667,0,0,-1.4666667,182.9436,123.96627)" />
    <path id="path81" d="M 105.3926,-28.3468 H 32.7981" style="fill:none;stroke:#121619;stroke-width:0.3985;stroke-linecap:butt;stroke-linejoin:miter;stroke-miterlimit:10;stroke-dasharray:none;stroke-opacity:1" transform="matrix(1.4666667,0,0,-1.4666667,182.9436,123.96627)" />
    <path id="path82" d="M 105.3926,-25.51212 H 32.7981" style="fill:none;stroke:#121619;stroke-width:0.3985;stroke-linecap:butt;stroke-linejoin:miter;stroke-miterlimit:10;stroke-dasharray:none;stroke-opacity:1" transform="matrix(1.4666667,0,0,-1.4666667,182.9436,123.96627)" />
    <path id="path83" d="M 105.3926,-22.67744 H 32.7981" style="fill:none;stroke:#121619;stroke-width:0.3985;stroke-linecap:butt;stroke-linejoin:miter;stroke-miterlimit:10;stroke-dasharray:none;stroke-opacity:1" transform="matrix(1.4666667,0,0,-1.4666667,182.9436,123.96627)" />
    <path id="path84" d="M 105.3926,-19.84276 H 32.7981" style="fill:none;stroke:#121619;stroke-width:0.3985;stroke-linecap:butt;stroke-linejoin:miter;stroke-miterlimit:10;stroke-dasharray:none;stroke-opacity:1" transform="matrix(1.4666667,0,0,-1.4666667,182.9436,123.96627)" />
    <path id="path85" d="M 105.3926,-17.00807 H 32.7981" style="fill:none;stroke:#121619;stroke-width:0.3985;stroke-linecap:butt;stroke-linejoin:miter;stroke-miterlimit:10;stroke-dasharray:none;stroke-opacity:1" transform="matrix(1.4666667,0,0,-1.4666667,182.9436,123.96627)" />
    <path id="path86" d="M 105.3926,-14.17339 H 32.7981" style="fill:none;stroke:#121619;stroke-width:0.3985;stroke-linecap:butt;stroke-linejoin:miter;stroke-miterlimit:10;stroke-dasharray:none;stroke-opacity:1" transform="matrix(1.4666667,0,0,-1.4666667,182.9436,123.96627)" />
    <path id="path87" d="M 105.3926,-11.33871 H 32.7981" style="fill:none;stroke:#121619;stroke-width:0.3985;stroke-linecap:butt;stroke-linejoin:miter;stroke-miterlimit:10;stroke-dasharray:none;stroke-opacity:1" transform="matrix(1.4666667,0,0,-1.4666667,182.9436,123.96627)" />
    <path id="path88" d="M 105.3926,-8.50403 H 32.7981" style="fill:none;stroke:#121619;stroke-width:0.3985;stroke-linecap:butt;stroke-linejoin:miter;stroke-miterlimit:10;stroke-dasharray:none;stroke-opacity:1" transform="matrix(1.4666667,0,0,-1.4666667,182.9436,123.96627)" />
    <path id="path89" d="M 105.3926,-5.66934 H 32.7981" style="fill:none;stroke:#121619;stroke-width:0.3985;stroke-linecap:butt;stroke-linejoin:miter;stroke-miterlimit:10;stroke-dasharray:none;stroke-opacity:1" transform="matrix(1.4666667,0,0,-1.4666667,182.9436,123.96627)" />
    <path id="path90" d="M 105.3926,-2.83466 H 32.7981" style="fill:none;stroke:#121619;stroke-width:0.3985;stroke-linecap:butt;stroke-linejoin:miter;stroke-miterlimit:10;stroke-dasharray:none;stroke-opacity:1" transform="matrix(1.4666667,0,0,-1.4666667,182.9436,123.96627)" />
    <path id="path91" d="M 105.3926,0 H 32.7981" style="fill:none;stroke:#121619;stroke-width:0.3985;stroke-linecap:butt;stroke-linejoin:miter;stroke-miterlimit:10;stroke-dasharray:none;stroke-opacity:1" transform="matrix(1.4666667,0,0,-1.4666667,182.9436,123.96627)" />
    <path id="path92" d="M 105.3926,2.83466 H 32.7981" style="fill:none;stroke:#121619;stroke-width:0.3985;stroke-linecap:butt;stroke-linejoin:miter;stroke-miterlimit:10;stroke-dasharray:none;stroke-opacity:1" transform="matrix(1.4666667,0,0,-1.4666667,182.9436,123.96627)" />
    <path id="path93" d="M 105.3926,5.66934 H 32.7981" style="fill:none;stroke:#121619;stroke-width:0.3985;stroke-linecap:butt;stroke-linejoin:miter;stroke-miterlimit:10;stroke-dasharray:none;stroke-opacity:1" transform="matrix(1.4666667,0,0,-1.4666667,182.9436,123.96627)" />
    <path id="path94" d="M -60.92459,-87.87514 H 199.1153" style="fill:none;stroke:#121619;stroke-width:0.3985;stroke-linecap:butt;stroke-linejoin:miter;stroke-miterlimit:10;stroke-dasharray:none;stroke-opacity:1" transform="matrix(1.4666667,0,0,-1.4666667,182.9436,123.96627)" />
    <path id="path95" d="M -60.92459,-85.04045 H 199.1153" style="fill:none;stroke:#121619;stroke-width:0.3985;stroke-linecap:butt;stroke-linejoin:miter;stroke-miterlimit:10;stroke-dasharray:none;stroke-opacity:1" transform="matrix(1.4666667,0,0,-1.4666667,182.9436,123.96627)" />
    <path id="path96" d="M -60.92459,-82.20576 H 199.1153" style="fill:none;stroke:#121619;stroke-width:0.3985;stroke-linecap:butt;stroke-linejoin:miter;stroke-miterlimit:10;stroke-dasharray:none;stroke-opacity:1" transform="matrix(1.4666667,0,0,-1.4666667,182.9436,123.96627)" />
    <path id="path97" d="M -60.92459,-79.3711 H 199.1153" style="fill:none;stroke:#121619;stroke-width:0.3985;stroke-linecap:butt;stroke-linejoin:miter;stroke-miterlimit:10;stroke-dasharray:none;stroke-opacity:1" transform="matrix(1.4666667,0,0,-1.4666667,182.9436,123.96627)" />
    <path id="path98" d="M -60.92459,-76.5364 H 199.1153" style="fill:none;stroke:#121619;stroke-width:0.3985;stroke-linecap:butt;stroke-linejoin:miter;stroke-miterlimit:10;stroke-dasharray:none;stroke-opacity:1" transform="matrix(1.4666667,0,0,-1.4666667,182.9436,123.96627)" />
    <path id="path99" d="M -60.92459,-73.70172 H 199.1153" style="fill:none;stroke:#121619;stroke-width:0.3985;stroke-linecap:butt;stroke-linejoin:miter;stroke-miterlimit:10;stroke-dasharray:none;stroke-opacity:1" transform="matrix(1.4666667,0,0,-1.4666667,182.9436,123.96627)" />
    <path id="path100" d="M -60.92459,-70.86703 H 199.1153" style="fill:none;stroke:#121619;stroke-width:0.3985;stroke-linecap:butt;stroke-linejoin:miter;stroke-miterlimit:10;stroke-dasharray:none;stroke-opacity:1" transform="matrix(1.4666667,0,0,-1.4666667,182.9436,123.96627)" />
    <path id="path101" d="M -60.92459,-68.03236 H 199.1153" style="fill:none;stroke:#121619;stroke-width:0.3985;stroke-linecap:butt;stroke-linejoin:miter;stroke-miterlimit:10;stroke-dasharray:none;stroke-opacity:1" transform="matrix(1.4666667,0,0,-1.4666667,182.9436,123.96627)" />
    <path id="path102" d="M -60.92459,-65.19768 H 199.1153" style="fill:none;stroke:#121619;stroke-width:0.3985;stroke-linecap:butt;stroke-linejoin:miter;stroke-miterlimit:10;stroke-dasharray:none;stroke-opacity:1" transform="matrix(1.4666667,0,0,-1.4666667,182.9436,123.96627)" />
    <path id="path103" d="M -60.92459,-62.36299 H 199.1153" style="fill:none;stroke:#121619;stroke-width:0.3985;stroke-linecap:butt;stroke-linejoin:miter;stroke-miterlimit:10;stroke-dasharray:none;stroke-opacity:1" transform="matrix(1.4666667,0,0,-1.4666667,182.9436,123.96627)" />
    <g id="g103" aria-label="∣x⟩&#10;⎧&#10;⎪&#10;⎪&#10;⎪&#10;⎪&#10;⎪&#10;⎨&#10;⎪&#10;⎪&#10;⎪&#10;⎪&#10;⎪&#10;⎩" transform="matrix(1.4666667,0,0,1.4666667,55.173467,85.434)">
      <path id="path104" d="M 1.1920966,-6.094027 V 1.7149219 H 1.7034602 V -6.094027 Z m 0,0" style="fill:#121619;fill-opacity:1;fill-rule:nonzero;stroke:none" />
      <path id="path105" d="m 6.8969972,-3.1749929 c -0.3515625,0.085227 -0.3728694,0.3941761 -0.3728694,0.4261364 0,0.1704545 0.1384944,0.2982954 0.3196023,0.2982954 0.1704546,0 0.4367898,-0.1384943 0.4367898,-0.4794034 0,-0.4580966 -0.5007102,-0.5859375 -0.7883523,-0.5859375 -0.3835227,0 -0.6818182,0.2663352 -0.8629261,0.5752841 -0.181108,-0.4261364 -0.5965909,-0.5752841 -0.9161932,-0.5752841 -0.8735795,0 -1.352983,1.0014205 -1.352983,1.2251421 0,0.06392 0.053267,0.095881 0.1171875,0.095881 0.095881,0 0.1065341,-0.03196 0.1384944,-0.1278409 0.1811079,-0.5859375 0.6605113,-0.9694602 1.0759943,-0.9694602 0.3089488,0 0.4580966,0.2237216 0.4580966,0.5113636 0,0.1598012 -0.095881,0.5220171 -0.1598012,0.7776989 -0.053267,0.234375 -0.234375,0.9481534 -0.2663352,1.09730114 -0.1171875,0.42613636 -0.4048295,0.76704545 -0.7670454,0.76704545 -0.03196,0 -0.234375,0 -0.4048296,-0.1171875 0.3728693,-0.0852273 0.3728693,-0.42613636 0.3728693,-0.42613636 0,-0.19176136 -0.1491477,-0.29829545 -0.3196022,-0.29829545 -0.2130682,0 -0.4474432,0.18110795 -0.4474432,0.49005681 0,0.36221591 0.3941761,0.56463069 0.7990057,0.56463069 0.4154829,0 0.7137784,-0.30894887 0.8629261,-0.56463069 0.1704545,0.38352273 0.5326704,0.56463069 0.9161932,0.56463069 0.8735795,0 1.3529829,-0.99076705 1.3529829,-1.21448868 0,-0.074574 -0.06392,-0.1065341 -0.1278409,-0.1065341 -0.085227,0 -0.1065341,0.063921 -0.1278409,0.1384944 -0.1598011,0.53267042 -0.6178977,0.96946019 -1.0759943,0.96946019 -0.2663352,0 -0.4580966,-0.18110795 -0.4580966,-0.51136363 0,-0.15980114 0.053267,-0.35156246 0.1598011,-0.78835226 0.053267,-0.2450284 0.234375,-0.9481534 0.2769887,-1.0973012 0.1065341,-0.4154829 0.3835227,-0.756392 0.7457386,-0.756392 0.042614,0 0.2450284,0 0.415483,0.1171871 z m 0,0" style="fill:#121619;fill-opacity:1;fill-rule:nonzero;stroke:none" />
      <path id="path106" d="M 8.8811946,1.8001491 10.308751,-2.1948793 8.8811946,-6.1792543 8.4017912,-6.0087997 9.829348,-2.1948793 8.4017912,1.6296946 Z M 18.56248,-20.401555 v -0.426137 c -0.980114,0 -1.885653,0.660512 -1.885653,1.608665 v 3.334517 h 0.511363 v -3.34517 c 0,-0.681819 0.649858,-1.171875 1.37429,-1.171875 z m -1.885653,3.928444 v 2.855114 h 0.511363 v -2.855114 z m 0,2.34375 v 2.855114 h 0.511363 v -2.855114 z m 0,2.34375 v 2.8551138 h 0.511363 v -2.8551138 z m 0,2.3437502 v 2.8551136 h 0.511363 v -2.8551136 z m 0,2.34375 v 2.8551136 h 0.511363 v -2.8551136 z m 0.511363,2.3410867 h -0.511363 v 1.2677556 c 0,0.6285512 -0.607245,1.0759944 -1.278409,1.1079546 h -0.09588 v 0.4580966 c 0.724432,0 1.37429,0.4474432 1.37429,1.11860793 v 1.24644886 h 0.511363 v -1.25710227 c 0,-0.59659092 -0.362216,-1.06534092 -0.884233,-1.34232952 0.522017,-0.2556818 0.884233,-0.7457387 0.884233,-1.3423296 z m -0.511363,4.61292609 V 2.7110156 h 0.511363 v -2.85511361 z m 0,2.34108661 V 5.0521023 H 17.18819 V 2.1969886 Z m 0,2.34375 V 7.3958523 H 17.18819 V 4.5407386 Z m 0,2.34375 V 9.7396023 H 17.18819 V 6.8844886 Z m 0,2.34375 V 12.083352 H 17.18819 V 9.2282386 Z m 1.885653,7.2842684 v -0.415483 c -0.724432,0 -1.37429,-0.490057 -1.37429,-1.171875 v -3.355824 h -0.511363 v 3.355824 c 0,0.9375 0.905539,1.587358 1.885653,1.587358 z m 0,0" style="fill:#121619;fill-opacity:1;fill-rule:nonzero;stroke:none" />
    </g>
    <g id="g106" aria-label="∣0&#10;k&#10;⟩&#10;⎧&#10;⎪&#10;⎪&#10;⎪&#10;⎪&#10;⎪&#10;⎪&#10;⎪&#10;⎨&#10;⎪&#10;⎪&#10;⎪&#10;⎪&#10;⎪&#10;⎪&#10;⎪&#10;⎩" transform="matrix(1.4666667,0,0,1.4666667,49.248133,162.25067)">
      <path id="path107" d="m 1.1944545,-6.0942045 v 7.8089488 h 0.5113637 v -7.8089488 z m 0,0" style="fill:#121619;fill-opacity:1;fill-rule:nonzero;stroke:none" />
      <path id="path108" d="m 6.8008111,-2.5466193 c 0,-0.8522727 -0.085227,-1.3636364 -0.3515625,-1.875 -0.3515625,-0.703125 -1.0014205,-0.8735796 -1.4382102,-0.8735796 -1.0014205,0 -1.3636364,0.7457387 -1.4808239,0.9694603 -0.2876421,0.5752841 -0.2982955,1.3636363 -0.2982955,1.7791193 0,0.5326704 0.021307,1.3316761 0.4048296,1.97088066 C 3.9989645,0.01019886 4.5955554,0.17 5.0110384,0.17 5.3945611,0.17 6.0763793,0.04215909 6.4812088,-0.74619318 6.7795043,-1.3108239 6.8008111,-2.0246023 6.8008111,-2.5466193 Z m -1.7897727,2.49289771 c -0.2663353,0 -0.8203125,-0.12784091 -0.9907671,-0.96946021 C 3.935044,-1.470625 3.935044,-2.227017 3.935044,-2.6425 c 0,-0.5433239 0,-1.1079545 0.085227,-1.5447443 0.1704546,-0.8096591 0.7990057,-0.884233 0.9907671,-0.884233 0.2769886,0 0.8203125,0.1278409 0.9801136,0.8522728 0.095881,0.4367897 0.095881,1.044034 0.095881,1.5767045 0,0.4794034 0,1.1931818 -0.095881,1.640625 -0.1598011,0.83096591 -0.7137784,0.94815341 -0.9801133,0.94815341 z m 0,0" style="fill:#121619;fill-opacity:1;fill-rule:nonzero;stroke:none" />
      <path id="path109" d="m 9.1179276,-8.1183523 c 0.010653,-0.021307 0.021307,-0.053267 0.021307,-0.085227 0,-0.095881 -0.1171875,-0.085227 -0.1917614,-0.085227 l -0.6711648,0.053267 c -0.095881,0.010653 -0.1811079,0.010653 -0.1811079,0.1598012 0,0.085227 0.085227,0.085227 0.1811079,0.085227 0.1704546,0 0.2130682,0.021307 0.2876421,0.042614 0,0.074574 0,0.085227 -0.021307,0.1811079 l -0.8416194,3.3451705 c -0.021307,0.095881 -0.021307,0.1171875 -0.021307,0.1384943 0,0.1491477 0.1171875,0.2024148 0.2130682,0.2024148 0.053267,0 0.1598011,-0.03196 0.2450284,-0.1384943 0.042614,-0.085227 0.2769887,-1.0759944 0.3196023,-1.2677557 0.4048295,0.03196 0.8309659,0.1278409 0.8309659,0.4794034 0,0.03196 0,0.06392 -0.021307,0.1278409 -0.010653,0.085227 -0.010653,0.1278409 -0.010653,0.1704545 0,0.3941762 0.3302557,0.6285512 0.6711647,0.6285512 0.5752844,0 0.7883524,-0.8735796 0.7883524,-0.9268466 0,-0.010653 -0.01065,-0.085227 -0.117188,-0.085227 -0.07457,0 -0.09588,0.042614 -0.117187,0.1384943 -0.06392,0.2130682 -0.234375,0.6711648 -0.5326705,0.6711648 -0.234375,0 -0.234375,-0.2556818 -0.234375,-0.3196023 0,-0.095881 0,-0.1065341 0.03196,-0.2237216 0,-0.010653 0.03196,-0.1278409 0.03196,-0.1917613 0,-0.46875 -0.522017,-0.6072443 -0.9801136,-0.649858 0.1384943,-0.085227 0.2663352,-0.1811079 0.5113636,-0.3941761 0.2982955,-0.2663352 0.6072443,-0.5220171 0.9375005,-0.5220171 0.07457,0 0.149148,0.021307 0.202415,0.074574 -0.213068,0.042614 -0.298296,0.2130682 -0.298296,0.3409091 0,0.1917614 0.149148,0.234375 0.234375,0.234375 0.138495,0 0.351563,-0.095881 0.351563,-0.3941761 0,-0.2556819 -0.191762,-0.4474432 -0.490057,-0.4474432 -0.3728698,0 -0.7244323,0.287642 -1.0014209,0.522017 -0.3089489,0.2663352 -0.5007103,0.4261364 -0.7137784,0.5113637 z m 0,0" style="fill:#121619;fill-opacity:1;fill-rule:nonzero;stroke:none" />
      <path id="path110" d="m 12.923858,1.7999716 1.427557,-3.9950284 -1.427557,-3.984375 -0.479403,0.1704545 1.427556,3.8139205 -1.427556,3.8245738 z M 22.60248,-25.089233 v -0.426136 c -0.980114,0 -1.885653,0.660511 -1.885653,1.608664 v 3.334518 h 0.511363 v -3.345171 c 0,-0.681818 0.649858,-1.171875 1.37429,-1.171875 z m -1.885653,3.931108 v 2.855114 h 0.511363 v -2.855114 z m 0,2.34375 v 2.855114 h 0.511363 v -2.855114 z m 0,2.341087 v 2.855113 h 0.511363 v -2.855113 z m 0,2.34375 v 2.855113 h 0.511363 v -2.855113 z m 0,2.34375 v 2.8551133 h 0.511363 v -2.8551133 z m 0,2.3437496 v 2.8551137 h 0.511363 v -2.8551137 z m 0,2.34375 v 2.8551137 h 0.511363 v -2.8551137 z m 0.511363,2.3410867 h -0.511363 v 1.2677557 c 0,0.6285511 -0.607245,1.0759943 -1.278409,1.1079545 h -0.09588 v 0.4580966 c 0.724432,0 1.37429,0.4474432 1.37429,1.11860797 v 1.24644886 h 0.511363 v -1.25710227 c 0,-0.59659086 -0.362216,-1.06534086 -0.884233,-1.34232956 0.522017,-0.2556818 0.884233,-0.7457386 0.884233,-1.3423295 z m -0.511363,4.61292613 V 2.7108381 h 0.511363 v -2.85511367 z m 0,2.34108667 V 5.0519247 H 21.22819 V 2.1968111 Z m 0,2.34375 V 7.3956747 H 21.22819 V 4.5405611 Z m 0,2.34375 V 9.7394247 H 21.22819 V 6.8843111 Z m 0,2.34375 V 12.083175 H 21.22819 V 9.2280611 Z m 0,2.3437499 v 2.855114 h 0.511363 v -2.855114 z m 0,2.341087 v 2.855113 h 0.511363 v -2.855113 z m 1.885653,7.286932 v -0.415483 c -0.724432,0 -1.37429,-0.490057 -1.37429,-1.171875 v -3.355824 h -0.511363 v 3.355824 c 0,0.9375 0.905539,1.587358 1.885653,1.587358 z m 0,0" style="fill:#121619;fill-opacity:1;fill-rule:nonzero;stroke:none" />
    </g>
    <g id="g110" aria-label="∣y⟩&#10;⎧&#10;⎪&#10;⎪&#10;⎪&#10;⎨&#10;⎪&#10;⎪&#10;⎪&#10;⎩" transform="matrix(1.4666667,0,0,1.4666667,55.606133,237.41)">
      <path id="path111" d="m 1.1927287,-6.0936435 v 7.8089489 h 0.5113636 v -7.8089489 z m 0,0" style="fill:#121619;fill-opacity:1;fill-rule:nonzero;stroke:none" />
      <path id="path112" d="m 7.0228068,-3.0041548 c 0.03196,-0.1065341 0.03196,-0.1278409 0.03196,-0.181108 0,-0.2024148 -0.1598011,-0.2450284 -0.2450284,-0.2450284 -0.042614,0 -0.2237216,0 -0.3302556,0.2130682 -0.021307,0.042614 -0.085227,0.3196023 -0.127841,0.4900568 l -0.4794034,1.91761364 c -0.010653,0.0213068 -0.3515625,0.67116478 -0.9375,0.67116478 -0.3835227,0 -0.522017,-0.28764205 -0.522017,-0.64985796 0,-0.45809656 0.2769886,-1.17187496 0.4580966,-1.62997156 0.074574,-0.2024148 0.095881,-0.2769887 0.095881,-0.415483 0,-0.4367898 -0.3409091,-0.6818182 -0.7137784,-0.6818182 -0.7883523,0 -1.118608,1.1292614 -1.118608,1.2251421 0,0.06392 0.063921,0.095881 0.1278409,0.095881 0.095881,0 0.1065341,-0.042614 0.1278409,-0.1278409 0.2130682,-0.6924716 0.5539773,-0.9694603 0.8416193,-0.9694603 0.1171875,0 0.1917614,0.085227 0.1917614,0.2663353 0,0.1598011 -0.063921,0.3515625 -0.1171875,0.4900568 -0.3302557,0.8416193 -0.46875,1.2571022 -0.46875,1.62997156 0,0.77769887 0.5965909,0.98011364 1.0653409,0.98011364 0.3728693,0 0.6392046,-0.15980114 0.8309659,-0.34090909 C 5.6272102,0.17056108 5.541983,0.49016335 5.2436875,0.87368608 4.9773523,1.1932884 4.65775,1.4063565 4.3061875,1.4063565 c -0.1384943,0 -0.4367898,-0.03196 -0.5965909,-0.2663352 0.4154829,-0.03196 0.4474432,-0.39417613 0.4474432,-0.43678977 0,-0.19176136 -0.1384943,-0.29829545 -0.3089489,-0.29829545 -0.1704545,0 -0.4580966,0.13849432 -0.4580966,0.53267045 0,0.37286937 0.3515625,0.69247157 0.9161932,0.69247157 0.8096591,0 1.7258523,-0.66051134 1.9602273,-1.61931816 z m 0,0" style="fill:#121619;fill-opacity:1;fill-rule:nonzero;stroke:none" />
      <path id="path113" d="M 8.5861946,1.8005327 10.013751,-2.1944957 8.5861946,-6.1788707 8.1067912,-6.0084162 9.534348,-2.1944957 8.1067912,1.6300781 Z M 18.26748,-15.716335 v -0.426137 c -0.980114,0 -1.885653,0.660512 -1.885653,1.608665 v 3.334517 h 0.511363 v -3.34517 c 0,-0.681818 0.649858,-1.171875 1.37429,-1.171875 z m -1.885653,3.931108 v 2.8551134 h 0.511363 v -2.8551134 z m 0,2.3437497 v 2.8551137 h 0.511363 v -2.8551137 z m 0,2.3410867 v 2.8551136 h 0.511363 v -2.8551136 z m 0.511363,2.34375 h -0.511363 v 1.2677557 c 0,0.6285511 -0.607245,1.0759943 -1.278409,1.1079545 h -0.09588 v 0.4580966 c 0.724432,0 1.37429,0.4474432 1.37429,1.11860795 v 1.24644886 h 0.511363 v -1.25710227 c 0,-0.59659094 -0.362216,-1.06534094 -0.884233,-1.34232954 0.522017,-0.2556818 0.884233,-0.7457386 0.884233,-1.3423296 z m -0.511363,4.61026276 V 2.7087358 h 0.511363 v -2.85511364 z m 0,2.34375004 V 5.0524858 H 16.89319 V 2.1973722 Z m 0,2.34375 V 7.3962358 H 16.89319 V 4.5411222 Z m 1.885653,7.2869318 v -0.415483 c -0.724432,0 -1.37429,-0.490057 -1.37429,-1.171875 V 6.8848722 h -0.511363 v 3.3558238 c 0,0.9375 0.905539,1.587358 1.885653,1.587358 z m 0,0" style="fill:#121619;fill-opacity:1;fill-rule:nonzero;stroke:none" />
    </g>
    <g id="g113" aria-label="⎫&#10;⎪&#10;⎪&#10;⎪&#10;⎪&#10;⎪&#10;⎬&#10;⎪&#10;⎪&#10;⎪&#10;⎪&#10;⎪&#10;⎭&#10;∣x⟩" transform="matrix(1.4666667,0,0,1.4666667,485.11067,61.543467)">
      <path id="path114" d="m 0.71289773,-4.5386918 v 0.4261364 c 0.72443177,0 1.37428977,0.4900568 1.37428977,1.171875 V 0.40449006 H 2.5985511 V -2.9406804 c 0,-0.9375 -0.8948863,-1.5980114 -1.88565337,-1.5980114 z m 1.37428977,4.354581 v 2.8551136 h 0.5113636 v -2.8551136 z m 0,2.34375 V 5.0147528 H 2.5985511 V 2.1596392 Z m 0,2.34375 V 7.3585028 H 2.5985511 V 4.5033892 Z m 0,2.34375 V 9.7022528 H 2.5985511 V 6.8471392 Z m 0,2.34375 V 12.046003 H 2.5985511 V 9.1908892 Z m 0,7.5399498 h 0.5113636 v -1.257102 c 0,-0.639204 0.6072444,-1.075994 1.2890625,-1.107954 h 0.085227 v -0.458097 c -0.7137784,0 -1.3742898,-0.447443 -1.3742898,-1.118608 V 11.531976 H 2.0871875 v 1.267756 c 0,0.59659 0.3622159,1.06534 0.8948864,1.331676 -0.5326705,0.266335 -0.8948864,0.756392 -0.8948864,1.352983 z m 0,-0.585937 v 2.855114 h 0.5113636 v -2.855114 z m 0,2.341087 v 2.855113 h 0.5113636 v -2.855113 z m 0,2.34375 v 2.855113 h 0.5113636 v -2.855113 z m 0,2.34375 v 2.855113 h 0.5113636 v -2.855113 z m 0,2.34375 v 2.855113 h 0.5113636 v -2.855113 z m -1.37428977,6.868785 v 0.415483 c 0.99076707,0 1.88565337,-0.660511 1.88565337,-1.598011 V 27.858325 H 2.0871875 v 3.355824 c 0,0.681818 -0.649858,1.171875 -1.37428977,1.171875 z M 9.4300497,10.194973 v 7.808949 h 0.5113637 v -7.808949 z m 0,0" style="fill:#121619;fill-opacity:1;fill-rule:nonzero;stroke:none" />
      <path id="path115" d="m 15.132287,13.114007 c -0.351563,0.08523 -0.372869,0.394176 -0.372869,0.426136 0,0.170455 0.138494,0.298296 0.319602,0.298296 0.170454,0 0.43679,-0.138494 0.43679,-0.479403 0,-0.458097 -0.500711,-0.585938 -0.788353,-0.585938 -0.383522,0 -0.681818,0.266335 -0.862926,0.575284 -0.181108,-0.426136 -0.596591,-0.575284 -0.916193,-0.575284 -0.873579,0 -1.352983,1.00142 -1.352983,1.225142 0,0.06392 0.05327,0.09588 0.117188,0.09588 0.09588,0 0.106534,-0.03196 0.138494,-0.127841 0.181108,-0.585938 0.660511,-0.96946 1.075994,-0.96946 0.308949,0 0.458097,0.223721 0.458097,0.511363 0,0.159801 -0.09588,0.522017 -0.159801,0.777699 -0.05327,0.234375 -0.234375,0.948154 -0.266336,1.097301 -0.117187,0.426137 -0.404829,0.767046 -0.767045,0.767046 -0.03196,0 -0.234375,0 -0.40483,-0.117188 0.37287,-0.08523 0.37287,-0.426136 0.37287,-0.426136 0,-0.191762 -0.149148,-0.298296 -0.319602,-0.298296 -0.213069,0 -0.447444,0.181108 -0.447444,0.490057 0,0.362216 0.394176,0.564631 0.799006,0.564631 0.415483,0 0.713778,-0.308949 0.862926,-0.564631 0.170455,0.383523 0.532671,0.564631 0.916193,0.564631 0.87358,0 1.352983,-0.990767 1.352983,-1.214489 0,-0.07457 -0.06392,-0.106534 -0.127841,-0.106534 -0.08523,0 -0.106534,0.06392 -0.127841,0.138494 -0.159801,0.532671 -0.617897,0.969461 -1.075994,0.969461 -0.266335,0 -0.458096,-0.181108 -0.458096,-0.511364 0,-0.159801 0.05327,-0.351562 0.159801,-0.788352 0.05327,-0.245029 0.234375,-0.948154 0.276988,-1.097301 0.106534,-0.415483 0.383523,-0.756392 0.745739,-0.756392 0.04261,0 0.245028,0 0.415483,0.117187 z m 0,0" style="fill:#121619;fill-opacity:1;fill-rule:nonzero;stroke:none" />
      <path id="path116" d="m 17.119148,18.089149 1.427557,-3.995028 -1.427557,-3.984375 -0.479404,0.170454 1.427557,3.813921 -1.427557,3.824574 z m 0,0" style="fill:#121619;fill-opacity:1;fill-rule:nonzero;stroke:none" />
    </g>
    <g id="g116" aria-label="⎫&#10;⎪&#10;⎪&#10;⎪&#10;⎪&#10;⎪&#10;⎪&#10;⎪&#10;⎬&#10;⎪&#10;⎪&#10;⎪&#10;⎪&#10;⎪&#10;⎪&#10;⎪&#10;⎭&#10;∣0&#10;k&#10;⟩" transform="matrix(1.4666667,0,0,1.4666667,485.11067,131.48587)">
      <path id="path117" d="m 0.71289773,-4.5393693 v 0.4261363 c 0.72443177,0 1.37428977,0.4900569 1.37428977,1.171875 V 0.4038125 H 2.5985511 V -2.941358 c 0,-0.9375 -0.8948863,-1.5980113 -1.88565337,-1.5980113 z M 2.0871875,-0.182125 V 2.6729886 H 2.5985511 V -0.182125 Z m 0,2.34375 V 5.0167386 H 2.5985511 V 2.161625 Z m 0,2.3410866 V 7.3578253 H 2.5985511 V 4.5027116 Z m 0,2.34375 V 9.7015753 H 2.5985511 V 6.8464616 Z m 0,2.34375 V 12.045325 H 2.5985511 V 9.1902116 Z m 0,2.3437504 v 2.855113 h 0.5113636 v -2.855113 z m 0,2.34375 v 2.855113 h 0.5113636 v -2.855113 z m 0,7.53995 H 2.5985511 V 20.16056 c 0,-0.639205 0.6072444,-1.075995 1.2890625,-1.107955 h 0.085227 v -0.458096 c -0.7137784,0 -1.3742898,-0.447444 -1.3742898,-1.118608 V 16.218798 H 2.0871875 v 1.267756 c 0,0.596591 0.3622159,1.065341 0.8948864,1.331676 -0.5326705,0.266335 -0.8948864,0.756392 -0.8948864,1.352983 z m 0,-0.585938 v 2.855114 h 0.5113636 v -2.855114 z m 0,2.341087 v 2.855114 h 0.5113636 v -2.855114 z m 0,2.34375 v 2.855114 h 0.5113636 v -2.855114 z m 0,2.34375 v 2.855114 h 0.5113636 v -2.855114 z m 0,2.34375 v 2.855114 h 0.5113636 v -2.855114 z m 0,2.34375 v 2.855114 h 0.5113636 v -2.855114 z m 0,2.341087 v 2.855113 h 0.5113636 v -2.855113 z m -1.37428977,6.871449 v 0.415483 c 0.99076707,0 1.88565337,-0.660512 1.88565337,-1.598012 v -3.34517 H 2.0871875 v 3.355824 c 0,0.681818 -0.649858,1.171875 -1.37428977,1.171875 z M 9.4300497,14.881795 v 7.808949 h 0.5113637 v -7.808949 z m 0,0" style="fill:#121619;fill-opacity:1;fill-rule:nonzero;stroke:none" />
      <path id="path118" d="m 15.036406,18.429381 c 0,-0.852273 -0.08523,-1.363637 -0.351562,-1.875 -0.351563,-0.703125 -1.001421,-0.87358 -1.43821,-0.87358 -1.001421,0 -1.363637,0.745739 -1.480824,0.96946 -0.287642,0.575284 -0.298296,1.363637 -0.298296,1.77912 0,0.53267 0.02131,1.331676 0.40483,1.97088 0.362216,0.585938 0.958807,0.745739 1.37429,0.745739 0.383522,0 1.06534,-0.127841 1.47017,-0.916193 0.298295,-0.564631 0.319602,-1.278409 0.319602,-1.800426 z m -1.789772,2.492897 c -0.266336,0 -0.820313,-0.127841 -0.990768,-0.96946 -0.08523,-0.447443 -0.08523,-1.203835 -0.08523,-1.619318 0,-0.543324 0,-1.107955 0.08523,-1.544744 0.170455,-0.809659 0.799006,-0.884233 0.990768,-0.884233 0.276988,0 0.820312,0.127841 0.980113,0.852272 0.09588,0.43679 0.09588,1.044035 0.09588,1.576705 0,0.479403 0,1.193182 -0.09588,1.640625 -0.159801,0.830966 -0.713778,0.948153 -0.980113,0.948153 z m 0,0" style="fill:#121619;fill-opacity:1;fill-rule:nonzero;stroke:none" />
      <path id="path119" d="m 17.353523,12.857648 c 0.01065,-0.02131 0.02131,-0.05327 0.02131,-0.08523 0,-0.09588 -0.117188,-0.08523 -0.191762,-0.08523 l -0.671165,0.05327 c -0.09588,0.01065 -0.181108,0.01065 -0.181108,0.159801 0,0.08523 0.08523,0.08523 0.181108,0.08523 0.170455,0 0.213069,0.02131 0.287642,0.04261 0,0.07457 0,0.08523 -0.02131,0.181108 l -0.84162,3.345171 c -0.02131,0.09588 -0.02131,0.117187 -0.02131,0.138494 0,0.149148 0.117188,0.202415 0.213069,0.202415 0.05327,0 0.159801,-0.03196 0.245028,-0.138495 0.04261,-0.08523 0.276989,-1.075994 0.319602,-1.267755 0.40483,0.03196 0.830966,0.127841 0.830966,0.479403 0,0.03196 0,0.06392 -0.02131,0.127841 -0.01065,0.08523 -0.01065,0.127841 -0.01065,0.170455 0,0.394176 0.330256,0.628551 0.671165,0.628551 0.575284,0 0.788352,-0.87358 0.788352,-0.926847 0,-0.01065 -0.01065,-0.08523 -0.117187,-0.08523 -0.07457,0 -0.09588,0.04261 -0.117188,0.138494 -0.06392,0.213068 -0.234375,0.671165 -0.53267,0.671165 -0.234375,0 -0.234375,-0.255682 -0.234375,-0.319602 0,-0.09588 0,-0.106534 0.03196,-0.223722 0,-0.01065 0.03196,-0.127841 0.03196,-0.191761 0,-0.46875 -0.522017,-0.607245 -0.980114,-0.649858 0.138495,-0.08523 0.266336,-0.181108 0.511364,-0.394176 0.298296,-0.266336 0.607244,-0.522017 0.9375,-0.522017 0.07457,0 0.149148,0.02131 0.202415,0.07457 -0.213068,0.04261 -0.298296,0.213068 -0.298296,0.340909 0,0.191761 0.149148,0.234375 0.234375,0.234375 0.138495,0 0.351563,-0.09588 0.351563,-0.394177 0,-0.255681 -0.191761,-0.447443 -0.490057,-0.447443 -0.372869,0 -0.724432,0.287642 -1.00142,0.522017 -0.308949,0.266336 -0.500711,0.426137 -0.713779,0.511364 z m 0,0" style="fill:#121619;fill-opacity:1;fill-rule:nonzero;stroke:none" />
      <path id="path120" d="m 21.159453,22.775972 1.427557,-3.995029 -1.427557,-3.984375 -0.479403,0.170455 1.427557,3.81392 -1.427557,3.824574 z m 0,0" style="fill:#121619;fill-opacity:1;fill-rule:nonzero;stroke:none" />
    </g>
    <g id="g120" aria-label="⎫&#10;⎪&#10;⎪&#10;⎪&#10;⎬&#10;⎪&#10;⎪&#10;⎪&#10;⎭&#10;∣y⊕f(x)⟩" transform="matrix(1.4666667,0,0,1.4666667,485.11067,220.39227)">
      <path id="path121" d="m 0.71289773,-4.5394716 v 0.4261364 c 0.72443177,0 1.37428977,0.4900568 1.37428977,1.171875 V 0.40371023 H 2.5985511 V -2.9414602 c 0,-0.9375 -0.8948863,-1.5980114 -1.88565337,-1.5980114 z M 2.0871875,-0.18222727 V 2.6728864 h 0.5113636 v -2.85511367 z m 0,2.34374997 V 5.0166364 H 2.5985511 V 2.1615227 Z m 0,2.3410867 V 7.357723 H 2.5985511 V 4.5026094 Z m 0,7.5426136 h 0.5113636 v -1.257102 c 0,-0.639205 0.6072444,-1.0759946 1.2890625,-1.1079548 h 0.085227 V 9.2220696 c -0.7137784,0 -1.3742898,-0.4474432 -1.3742898,-1.118608 V 6.8463594 H 2.0871875 v 1.2677557 c 0,0.5965909 0.3622159,1.0653409 0.8948864,1.3316761 C 2.4494034,9.7121264 2.0871875,10.202183 2.0871875,10.798774 Z m 0,-0.588601 v 2.855114 h 0.5113636 v -2.855114 z m 0,2.34375 v 2.855114 h 0.5113636 v -2.855114 z m 0,2.34375 v 2.855114 h 0.5113636 v -2.855114 z m -1.37428977,6.871449 v 0.415483 c 0.99076707,0 1.88565337,-0.660511 1.88565337,-1.598011 V 18.487872 H 2.0871875 v 3.355824 c 0,0.681818 -0.649858,1.171875 -1.37428977,1.171875 z M 9.4300497,5.5093565 V 13.318305 H 9.9414134 V 5.5093565 Z m 0,0" style="fill:#121619;fill-opacity:1;fill-rule:nonzero;stroke:none" />
      <path id="path122" d="m 15.260128,8.5988452 c 0.03196,-0.1065341 0.03196,-0.1278409 0.03196,-0.181108 0,-0.2024148 -0.159801,-0.2450284 -0.245028,-0.2450284 -0.04261,0 -0.223722,0 -0.330256,0.2130682 -0.02131,0.042614 -0.08523,0.3196023 -0.127841,0.4900568 L 14.10956,10.793447 c -0.01065,0.02131 -0.351563,0.671165 -0.9375,0.671165 -0.383523,0 -0.522017,-0.287642 -0.522017,-0.649858 0,-0.458096 0.276988,-1.1718747 0.458096,-1.6299713 0.07457,-0.2024148 0.09588,-0.2769887 0.09588,-0.415483 0,-0.4367898 -0.340909,-0.6818182 -0.713779,-0.6818182 -0.788352,0 -1.118607,1.1292614 -1.118607,1.2251421 0,0.06392 0.06392,0.095881 0.12784,0.095881 0.09588,0 0.106535,-0.042614 0.127841,-0.1278409 0.213069,-0.6924716 0.553978,-0.9694603 0.84162,-0.9694603 0.117187,0 0.191761,0.085227 0.191761,0.2663353 0,0.1598011 -0.06392,0.3515625 -0.117187,0.4900568 -0.330256,0.8416193 -0.46875,1.2571015 -0.46875,1.6299715 0,0.777699 0.59659,0.980113 1.06534,0.980113 0.37287,0 0.639205,-0.159801 0.830966,-0.340909 -0.106534,0.43679 -0.191761,0.756392 -0.490056,1.139915 -0.266336,0.319602 -0.585938,0.532671 -0.9375,0.532671 -0.138495,0 -0.43679,-0.03196 -0.596591,-0.266336 0.415483,-0.03196 0.447443,-0.394176 0.447443,-0.436789 0,-0.191762 -0.138495,-0.298296 -0.308949,-0.298296 -0.170455,0 -0.458097,0.138494 -0.458097,0.532671 0,0.372869 0.351563,0.692471 0.916194,0.692471 0.809659,0 1.725852,-0.660511 1.960227,-1.619318 z m 0,0" style="fill:#121619;fill-opacity:1;fill-rule:nonzero;stroke:none" />
      <path id="path123" d="m 20.23527,9.1528224 h -1.608665 c 0.05327,-0.4048295 0.245029,-0.7776988 0.532671,-1.0759943 0.287642,-0.287642 0.671164,-0.46875 1.075994,-0.5326704 z m 0.511364,0 V 7.5441577 c 0.404829,0.06392 0.777698,0.2450284 1.075994,0.5326704 0.287642,0.2982955 0.479403,0.6711648 0.53267,1.0759943 z M 20.23527,9.6641861 V 11.272851 C 19.83044,11.219584 19.446918,11.027822 19.159276,10.74018 18.871634,10.452538 18.679872,10.069016 18.626605,9.6641861 Z m 0.511364,0 h 1.608664 c -0.05327,0.4048299 -0.245028,0.7883519 -0.53267,1.0759939 -0.298296,0.287642 -0.671165,0.479404 -1.075994,0.532671 z m 2.130681,-0.2556818 c 0,-0.6392046 -0.255681,-1.2357955 -0.703125,-1.6938921 -0.447443,-0.4474432 -1.044034,-0.6924716 -1.683238,-0.6924716 -0.639205,0 -1.235796,0.2450284 -1.693892,0.6924716 -0.447444,0.4580966 -0.703125,1.0546875 -0.703125,1.6938921 0,0.6392047 0.255681,1.2464487 0.703125,1.7045457 0.458096,0.447443 1.054687,0.692471 1.693892,0.692471 0.639204,0 1.235795,-0.245028 1.683238,-0.692471 0.447444,-0.458097 0.703125,-1.065341 0.703125,-1.7045457 z m 0,0" style="fill:#121619;fill-opacity:1;fill-rule:nonzero;stroke:none" />
      <path id="path124" d="m 28.414425,8.4283906 h 0.745738 c 0.159801,0 0.255682,0 0.255682,-0.1491477 0,-0.1065341 -0.106534,-0.1065341 -0.234375,-0.1065341 h -0.713778 c 0.127841,-0.7244318 0.202415,-1.171875 0.287642,-1.5340909 0.03196,-0.1384943 0.05327,-0.2237216 0.170454,-0.3196023 0.106534,-0.085227 0.170455,-0.1065341 0.255682,-0.1065341 0.127841,0 0.245029,0.03196 0.351563,0.095881 -0.04261,0.010653 -0.08523,0.03196 -0.127841,0.063921 -0.127841,0.06392 -0.223722,0.2130682 -0.223722,0.3728693 0,0.1811079 0.138494,0.287642 0.308949,0.287642 0.234375,0 0.447443,-0.1917613 0.447443,-0.46875 0,-0.3835227 -0.383523,-0.5752841 -0.756392,-0.5752841 -0.276988,0 -0.777699,0.127841 -1.033381,0.8629262 -0.07457,0.1811079 -0.07457,0.2024148 -0.287642,1.3210227 h -0.59659 c -0.159802,0 -0.255682,0 -0.255682,0.1491477 0,0.1065341 0.106534,0.1065341 0.245028,0.1065341 h 0.564631 L 27.24255,11.528533 c -0.149148,0.799005 -0.276989,1.480824 -0.692472,1.480824 -0.03196,0 -0.191761,0 -0.340909,-0.09588 0.362216,-0.09588 0.362216,-0.426137 0.362216,-0.43679 0,-0.181108 -0.149148,-0.287642 -0.319602,-0.287642 -0.213069,0 -0.447444,0.181108 -0.447444,0.479403 0,0.34091 0.34091,0.564631 0.745739,0.564631 0.479404,0 0.820313,-0.511364 0.916193,-0.713778 0.287642,-0.522017 0.479404,-1.523438 0.490057,-1.598012 z m 0,0" style="fill:#121619;fill-opacity:1;fill-rule:nonzero;stroke:none" />
      <path id="path125" d="M 33.053984,12.956089 C 32.00995,12.11447 31.573161,10.761487 31.573161,9.4085043 c 0,-1.352983 0.436789,-2.7059659 1.480823,-3.5475853 L 32.702422,5.5093565 C 31.5412,6.4362031 31.07245,7.917027 31.07245,9.4085043 c 0,1.4914777 0.46875,2.9829547 1.629972,3.9098007 z m 0,0" style="fill:#121619;fill-opacity:1;fill-rule:nonzero;stroke:none" />
      <path id="path126" d="m 37.808068,8.4283906 c -0.351562,0.085227 -0.372869,0.3941762 -0.372869,0.4261364 0,0.1704545 0.138494,0.2982954 0.319602,0.2982954 0.170455,0 0.43679,-0.1384943 0.43679,-0.4794034 0,-0.4580966 -0.50071,-0.5859375 -0.788352,-0.5859375 -0.383523,0 -0.681819,0.2663353 -0.862927,0.5752841 -0.181107,-0.4261363 -0.59659,-0.5752841 -0.916193,-0.5752841 -0.873579,0 -1.352983,1.0014205 -1.352983,1.2251421 0,0.06392 0.05327,0.095881 0.117188,0.095881 0.09588,0 0.106534,-0.03196 0.138494,-0.1278409 0.181108,-0.5859375 0.660512,-0.9694603 1.075994,-0.9694603 0.308949,0 0.458097,0.2237216 0.458097,0.5113637 0,0.1598011 -0.09588,0.522017 -0.159801,0.7776988 -0.05327,0.234375 -0.234375,0.9481531 -0.266335,1.0973011 -0.117188,0.426136 -0.40483,0.767045 -0.767046,0.767045 -0.03196,0 -0.234375,0 -0.404829,-0.117187 0.372869,-0.08523 0.372869,-0.426137 0.372869,-0.426137 0,-0.191761 -0.149148,-0.298295 -0.319602,-0.298295 -0.213068,0 -0.447443,0.181108 -0.447443,0.490057 0,0.362216 0.394176,0.56463 0.799005,0.56463 0.415483,0 0.713779,-0.308948 0.862926,-0.56463 0.170455,0.383522 0.532671,0.56463 0.916194,0.56463 0.873579,0 1.352983,-0.990767 1.352983,-1.214488 0,-0.07457 -0.06392,-0.106534 -0.127841,-0.106534 -0.08523,0 -0.106534,0.06392 -0.127841,0.138494 -0.159801,0.53267 -0.617898,0.96946 -1.075995,0.96946 -0.266335,0 -0.458096,-0.181108 -0.458096,-0.511363 0,-0.159802 0.05327,-0.351563 0.159801,-0.788353 0.05327,-0.2450278 0.234375,-0.9481528 0.276989,-1.0973005 0.106534,-0.415483 0.383522,-0.7563921 0.745738,-0.7563921 0.04261,0 0.245029,0 0.415483,0.1171872 z m 0,0" style="fill:#121619;fill-opacity:1;fill-rule:nonzero;stroke:none" />
      <path id="path127" d="m 39.699048,13.318305 c 1.150568,-0.926846 1.619318,-2.418323 1.619318,-3.9098007 0,-1.4914773 -0.46875,-2.9723012 -1.619318,-3.8991478 L 39.336832,5.860919 c 1.054688,0.8522728 1.470171,2.1946023 1.470171,3.5475853 0,1.3529827 -0.426137,2.7166197 -1.480824,3.5475847 0.127841,0.117188 0.255682,0.245029 0.372869,0.362216 z m 3.595526,0.08523 1.427557,-3.9950287 -1.427557,-3.984375 -0.479404,0.1704545 1.427557,3.8139205 -1.427557,3.8245737 z m 0,0" style="fill:#121619;fill-opacity:1;fill-rule:nonzero;stroke:none" />
    </g>
    <path id="path128" d="m 51.10132,45.35506 c 0,0.82533 -0.66907,1.49441 -1.49442,1.49441 -0.82534,0 -1.49441,-0.66908 -1.49441,-1.49441 0,-0.82535 0.66907,-1.49442 1.49441,-1.49442 0.82535,0 1.49442,0.66907 1.49442,1.49442 z" style="fill:#78a9ff;fill-opacity:1;fill-rule:nonzero;stroke:none" transform="matrix(1.4666667,0,0,-1.4666667,182.9436,123.96627)" />
    <path id="path129" d="m 51.59946,-62.36288 c 0,1.10046 -0.89208,1.99255 -1.99256,1.99255 -1.10046,0 -1.99255,-0.89209 -1.99255,-1.99255 0,-1.10048 0.89209,-1.99256 1.99255,-1.99256 1.10048,0 1.99256,0.89208 1.99256,1.99256 z" style="fill:#78a9ff;fill-opacity:1;fill-rule:nonzero;stroke:#78a9ff;stroke-width:0.3985;stroke-linecap:butt;stroke-linejoin:miter;stroke-miterlimit:10;stroke-dasharray:none;stroke-opacity:1" transform="matrix(1.4666667,0,0,-1.4666667,182.9436,123.96627)" />
    <path id="path130" d="m 1.6402926,-2.716223 v 1.1825284 H 0.4471108 v 0.3196023 h 1.1931818 v 1.19318179 H 1.9492415 V -1.2140923 H 3.1424233 V -1.5336946 H 1.9492415 V -2.716223 Z m 0,0" style="fill:#ffffff;fill-opacity:1;fill-rule:nonzero;stroke:none" aria-label="+" transform="matrix(1.4666667,0,0,1.4666667,253.0708,217.4252)" />
    <path id="path131" d="m 55.35316,42.5202 c 0,0.82535 -0.66906,1.49442 -1.49441,1.49442 -0.82535,0 -1.49442,-0.66907 -1.49442,-1.49442 0,-0.82535 0.66907,-1.49441 1.49442,-1.49441 0.82535,0 1.49441,0.66906 1.49441,1.49441 z" style="fill:#78a9ff;fill-opacity:1;fill-rule:nonzero;stroke:none" transform="matrix(1.4666667,0,0,-1.4666667,182.9436,123.96627)" />
    <path id="path132" d="m 55.8513,-65.19774 c 0,1.10048 -0.89209,1.99256 -1.99255,1.99256 -1.10048,0 -1.99255,-0.89208 -1.99255,-1.99256 0,-1.10046 0.89207,-1.99255 1.99255,-1.99255 1.10046,0 1.99255,0.89209 1.99255,1.99255 z" style="fill:#78a9ff;fill-opacity:1;fill-rule:nonzero;stroke:#78a9ff;stroke-width:0.3985;stroke-linecap:butt;stroke-linejoin:miter;stroke-miterlimit:10;stroke-dasharray:none;stroke-opacity:1" transform="matrix(1.4666667,0,0,-1.4666667,182.9436,123.96627)" />
    <path id="path133" d="m 1.6400028,-2.7164162 v 1.1825284 H 0.44682102 v 0.3196023 H 1.6400028 v 1.19318181 H 1.9489517 V -1.2142855 H 3.1421335 V -1.5338878 H 1.9489517 v -1.1825284 z m 0,0" style="fill:#ffffff;fill-opacity:1;fill-rule:nonzero;stroke:none" aria-label="+" transform="matrix(1.4666667,0,0,1.4666667,259.3056,221.58173)" />
    <path id="path134" d="m 59.60544,39.68535 c 0,0.82535 -0.66907,1.49441 -1.49442,1.49441 -0.82533,0 -1.49441,-0.66906 -1.49441,-1.49441 0,-0.82535 0.66908,-1.49442 1.49441,-1.49442 0.82535,0 1.49442,0.66907 1.49442,1.49442 z" style="fill:#78a9ff;fill-opacity:1;fill-rule:nonzero;stroke:none" transform="matrix(1.4666667,0,0,-1.4666667,182.9436,123.96627)" />
    <path id="path135" d="m 60.10358,-68.03217 c 0,1.10048 -0.89208,1.99256 -1.99256,1.99256 -1.10046,0 -1.99255,-0.89208 -1.99255,-1.99256 0,-1.10046 0.89209,-1.99255 1.99255,-1.99255 1.10048,0 1.99256,0.89209 1.99256,1.99255 z" style="fill:#78a9ff;fill-opacity:1;fill-rule:nonzero;stroke:#78a9ff;stroke-width:0.3985;stroke-linecap:butt;stroke-linejoin:miter;stroke-miterlimit:10;stroke-dasharray:none;stroke-opacity:1" transform="matrix(1.4666667,0,0,-1.4666667,182.9436,123.96627)" />
    <path id="path136" d="M 1.6403764,-2.7176094 V -1.535081 H 0.4471946 v 0.3196023 h 1.1931818 v 1.19318183 H 1.9493253 V -1.2154787 H 3.1425071 V -1.535081 H 1.9493253 v -1.1825284 z m 0,0" style="fill:#ffffff;fill-opacity:1;fill-rule:nonzero;stroke:none" aria-label="+" transform="matrix(1.4666667,0,0,1.4666667,265.54333,225.73973)" />
    <path id="path137" d="m 63.8573,36.85092 c 0,0.82535 -0.66907,1.49442 -1.49442,1.49442 -0.82534,0 -1.49441,-0.66907 -1.49441,-1.49442 0,-0.82535 0.66907,-1.49442 1.49441,-1.49442 0.82535,0 1.49442,0.66907 1.49442,1.49442 z" style="fill:#78a9ff;fill-opacity:1;fill-rule:nonzero;stroke:none" transform="matrix(1.4666667,0,0,-1.4666667,182.9436,123.96627)" />
    <path id="path138" d="m 64.35544,-70.867 c 0,1.10046 -0.89208,1.99255 -1.99256,1.99255 -1.10046,0 -1.99255,-0.89209 -1.99255,-1.99255 0,-1.10048 0.89209,-1.99256 1.99255,-1.99256 1.10048,0 1.99256,0.89208 1.99256,1.99256 z" style="fill:#78a9ff;fill-opacity:1;fill-rule:nonzero;stroke:#78a9ff;stroke-width:0.3985;stroke-linecap:butt;stroke-linejoin:miter;stroke-miterlimit:10;stroke-dasharray:none;stroke-opacity:1" transform="matrix(1.4666667,0,0,-1.4666667,182.9436,123.96627)" />
    <path id="path139" d="m 1.64175,-2.7161392 v 1.1825284 H 0.44856818 v 0.3196023 H 1.64175 v 1.1931818 H 1.9506989 V -1.2140085 H 3.1438807 V -1.5336108 H 1.9506989 v -1.1825284 z m 0,0" style="fill:#ffffff;fill-opacity:1;fill-rule:nonzero;stroke:none" aria-label="+" transform="matrix(1.4666667,0,0,1.4666667,271.7796,229.89773)" />
    <path id="path140" d="m 68.10959,34.01608 c 0,0.82534 -0.66907,1.49442 -1.49442,1.49442 -0.82534,0 -1.49441,-0.66908 -1.49441,-1.49442 0,-0.82535 0.66907,-1.49441 1.49441,-1.49441 0.82535,0 1.49442,0.66906 1.49442,1.49441 z" style="fill:#78a9ff;fill-opacity:1;fill-rule:nonzero;stroke:none" transform="matrix(1.4666667,0,0,-1.4666667,182.9436,123.96627)" />
    <path id="path141" d="m 68.60773,-73.70186 c 0,1.10046 -0.89209,1.99256 -1.99256,1.99256 -1.10047,0 -1.99255,-0.8921 -1.99255,-1.99256 0,-1.10048 0.89208,-1.99255 1.99255,-1.99255 1.10047,0 1.99256,0.89207 1.99256,1.99255 z" style="fill:#78a9ff;fill-opacity:1;fill-rule:nonzero;stroke:#78a9ff;stroke-width:0.3985;stroke-linecap:butt;stroke-linejoin:miter;stroke-miterlimit:10;stroke-dasharray:none;stroke-opacity:1" transform="matrix(1.4666667,0,0,-1.4666667,182.9436,123.96627)" />
    <path id="path142" d="M 1.6404602,-2.7173324 V -1.534804 H 0.44727841 v 0.3196023 H 1.6404602 v 1.19318181 H 1.9494091 V -1.2152017 H 3.1425909 V -1.534804 H 1.9494091 v -1.1825284 z m 0,0" style="fill:#ffffff;fill-opacity:1;fill-rule:nonzero;stroke:none" aria-label="+" transform="matrix(1.4666667,0,0,1.4666667,278.01587,234.05573)" />
    <path id="path143" d="m 72.36142,31.18166 c 0,0.82534 -0.66907,1.49441 -1.49442,1.49441 -0.82534,0 -1.49441,-0.66907 -1.49441,-1.49441 0,-0.82535 0.66907,-1.49442 1.49441,-1.49442 0.82535,0 1.49442,0.66907 1.49442,1.49442 z" style="fill:#78a9ff;fill-opacity:1;fill-rule:nonzero;stroke:none" transform="matrix(1.4666667,0,0,-1.4666667,182.9436,123.96627)" />
    <path id="path144" d="m 72.85956,-76.53629 c 0,1.10049 -0.89208,1.99256 -1.99256,1.99256 -1.10046,0 -1.99255,-0.89207 -1.99255,-1.99256 0,-1.10046 0.89209,-1.99255 1.99255,-1.99255 1.10048,0 1.99256,0.89209 1.99256,1.99255 z" style="fill:#78a9ff;fill-opacity:1;fill-rule:nonzero;stroke:#78a9ff;stroke-width:0.3985;stroke-linecap:butt;stroke-linejoin:miter;stroke-miterlimit:10;stroke-dasharray:none;stroke-opacity:1" transform="matrix(1.4666667,0,0,-1.4666667,182.9436,123.96627)" />
    <path id="path145" d="m 1.6418338,-2.7175256 v 1.1825284 H 0.44865199 v 0.3196023 H 1.6418338 v 1.19318183 H 1.9507827 V -1.2153949 H 3.1439645 V -1.5349972 H 1.9507827 v -1.1825284 z m 0,0" style="fill:#ffffff;fill-opacity:1;fill-rule:nonzero;stroke:none" aria-label="+" transform="matrix(1.4666667,0,0,1.4666667,284.25213,238.21227)" />
    <path id="path146" d="m 76.61327,28.3468 c 0,0.82535 -0.66907,1.49442 -1.49442,1.49442 -0.82535,0 -1.49441,-0.66907 -1.49441,-1.49442 0,-0.82535 0.66906,-1.49441 1.49441,-1.49441 0.82535,0 1.49442,0.66906 1.49442,1.49441 z" style="fill:#78a9ff;fill-opacity:1;fill-rule:nonzero;stroke:none" transform="matrix(1.4666667,0,0,-1.4666667,182.9436,123.96627)" />
    <path id="path147" d="m 77.1114,-79.37114 c 0,1.10048 -0.89209,1.99255 -1.99255,1.99255 -1.10046,0 -1.99255,-0.89207 -1.99255,-1.99255 0,-1.10046 0.89209,-1.99256 1.99255,-1.99256 1.10046,0 1.99255,0.8921 1.99255,1.99256 z" style="fill:#78a9ff;fill-opacity:1;fill-rule:nonzero;stroke:#78a9ff;stroke-width:0.3985;stroke-linecap:butt;stroke-linejoin:miter;stroke-miterlimit:10;stroke-dasharray:none;stroke-opacity:1" transform="matrix(1.4666667,0,0,-1.4666667,182.9436,123.96627)" />
    <path id="path148" d="M 1.640544,-2.7160554 V -1.533527 H 0.44736222 v 0.3196023 H 1.640544 v 1.1931818 H 1.9494929 V -1.2139247 H 3.1426747 V -1.533527 H 1.9494929 v -1.1825284 z m 0,0" style="fill:#ffffff;fill-opacity:1;fill-rule:nonzero;stroke:none" aria-label="+" transform="matrix(1.4666667,0,0,1.4666667,290.4884,242.37027)" />
    <path id="path149" d="m 80.86555,25.51193 c 0,0.82535 -0.66908,1.49442 -1.49441,1.49442 -0.82535,0 -1.49442,-0.66907 -1.49442,-1.49442 0,-0.82535 0.66907,-1.49441 1.49442,-1.49441 0.82533,0 1.49441,0.66906 1.49441,1.49441 z" style="fill:#78a9ff;fill-opacity:1;fill-rule:nonzero;stroke:none" transform="matrix(1.4666667,0,0,-1.4666667,182.9436,123.96627)" />
    <path id="path150" d="m 81.3637,-82.20555 c 0,1.10046 -0.8921,1.99255 -1.99256,1.99255 -1.10048,0 -1.99255,-0.89209 -1.99255,-1.99255 0,-1.10048 0.89207,-1.99255 1.99255,-1.99255 1.10046,0 1.99256,0.89207 1.99256,1.99255 z" style="fill:#78a9ff;fill-opacity:1;fill-rule:nonzero;stroke:#78a9ff;stroke-width:0.3985;stroke-linecap:butt;stroke-linejoin:miter;stroke-miterlimit:10;stroke-dasharray:none;stroke-opacity:1" transform="matrix(1.4666667,0,0,-1.4666667,182.9436,123.96627)" />
    <path id="path151" d="m 1.6419176,-2.7162486 v 1.1825284 H 0.4487358 v 0.3196023 h 1.1931818 v 1.19318182 H 1.9508665 V -1.2141179 H 3.1440483 V -1.5337202 H 1.9508665 v -1.1825284 z m 0,0" style="fill:#ffffff;fill-opacity:1;fill-rule:nonzero;stroke:none" aria-label="+" transform="matrix(1.4666667,0,0,1.4666667,296.72467,246.5268)" />
    <path id="path152" d="m 85.1174,22.67752 c 0,0.82533 -0.66907,1.49442 -1.49441,1.49442 -0.82535,0 -1.49442,-0.66909 -1.49442,-1.49442 0,-0.82535 0.66907,-1.49442 1.49442,-1.49442 0.82534,0 1.49441,0.66907 1.49441,1.49442 z" style="fill:#78a9ff;fill-opacity:1;fill-rule:nonzero;stroke:none" transform="matrix(1.4666667,0,0,-1.4666667,182.9436,123.96627)" />
    <path id="path153" d="m 85.61554,-85.04042 c 0,1.10046 -0.89208,1.99255 -1.99255,1.99255 -1.10047,0 -1.99256,-0.89209 -1.99256,-1.99255 0,-1.10048 0.89209,-1.99255 1.99256,-1.99255 1.10047,0 1.99255,0.89207 1.99255,1.99255 z" style="fill:#78a9ff;fill-opacity:1;fill-rule:nonzero;stroke:#78a9ff;stroke-width:0.3985;stroke-linecap:butt;stroke-linejoin:miter;stroke-miterlimit:10;stroke-dasharray:none;stroke-opacity:1" transform="matrix(1.4666667,0,0,-1.4666667,182.9436,123.96627)" />
    <path id="path154" d="m 1.6406278,-2.7174418 v 1.1825284 H 0.44744602 v 0.3196023 H 1.6406278 v 1.19318184 H 1.9495767 V -1.2153111 H 3.1427585 V -1.5349134 H 1.9495767 v -1.1825284 z m 0,0" style="fill:#ffffff;fill-opacity:1;fill-rule:nonzero;stroke:none" aria-label="+" transform="matrix(1.4666667,0,0,1.4666667,302.96093,250.6848)" />
    <path id="path155" d="m 89.36969,19.84267 c 0,0.82534 -0.66907,1.49441 -1.49442,1.49441 -0.82534,0 -1.49441,-0.66907 -1.49441,-1.49441 0,-0.82535 0.66907,-1.49442 1.49441,-1.49442 0.82535,0 1.49442,0.66907 1.49442,1.49442 z" style="fill:#78a9ff;fill-opacity:1;fill-rule:nonzero;stroke:none" transform="matrix(1.4666667,0,0,-1.4666667,182.9436,123.96627)" />
    <path id="path156" d="m 89.86783,-87.87527 c 0,1.10047 -0.89209,1.99255 -1.99256,1.99255 -1.10047,0 -1.99255,-0.89208 -1.99255,-1.99255 0,-1.10047 0.89208,-1.99256 1.99255,-1.99256 1.10047,0 1.99256,0.89209 1.99256,1.99256 z" style="fill:#78a9ff;fill-opacity:1;fill-rule:nonzero;stroke:#78a9ff;stroke-width:0.3985;stroke-linecap:butt;stroke-linejoin:miter;stroke-miterlimit:10;stroke-dasharray:none;stroke-opacity:1" transform="matrix(1.4666667,0,0,-1.4666667,182.9436,123.96627)" />
    <path id="path157" d="m 1.6393381,-2.7159716 v 1.1825284 H 0.44615625 v 0.3196023 H 1.6393381 v 1.19318181 H 1.9482869 V -1.2138409 H 3.1414688 V -1.5334432 H 1.9482869 v -1.1825284 z m 0,0" style="fill:#ffffff;fill-opacity:1;fill-rule:nonzero;stroke:none" aria-label="+" transform="matrix(1.4666667,0,0,1.4666667,309.1972,254.8428)" />
    <path id="path158" d="M 49.6069,45.35506 V -61.16736" style="fill:none;stroke:#78a9ff;stroke-width:0.79701;stroke-linecap:butt;stroke-linejoin:miter;stroke-miterlimit:10;stroke-dasharray:none;stroke-opacity:1" transform="matrix(1.4666667,0,0,-1.4666667,182.9436,123.96627)" />
    <path id="path159" d="M 53.85875,42.5202 V -64.00221" style="fill:none;stroke:#78a9ff;stroke-width:0.79701;stroke-linecap:butt;stroke-linejoin:miter;stroke-miterlimit:10;stroke-dasharray:none;stroke-opacity:1" transform="matrix(1.4666667,0,0,-1.4666667,182.9436,123.96627)" />
    <path id="path160" d="M 58.11102,39.68535 V -66.83662" style="fill:none;stroke:#78a9ff;stroke-width:0.79701;stroke-linecap:butt;stroke-linejoin:miter;stroke-miterlimit:10;stroke-dasharray:none;stroke-opacity:1" transform="matrix(1.4666667,0,0,-1.4666667,182.9436,123.96627)" />
    <path id="path161" d="M 62.36288,36.85092 V -69.67148" style="fill:none;stroke:#78a9ff;stroke-width:0.79701;stroke-linecap:butt;stroke-linejoin:miter;stroke-miterlimit:10;stroke-dasharray:none;stroke-opacity:1" transform="matrix(1.4666667,0,0,-1.4666667,182.9436,123.96627)" />
    <path id="path162" d="M 66.61517,34.01608 V -72.50633" style="fill:none;stroke:#78a9ff;stroke-width:0.79701;stroke-linecap:butt;stroke-linejoin:miter;stroke-miterlimit:10;stroke-dasharray:none;stroke-opacity:1" transform="matrix(1.4666667,0,0,-1.4666667,182.9436,123.96627)" />
    <path id="path163" d="M 70.867,31.18166 V -75.34076" style="fill:none;stroke:#78a9ff;stroke-width:0.79701;stroke-linecap:butt;stroke-linejoin:miter;stroke-miterlimit:10;stroke-dasharray:none;stroke-opacity:1" transform="matrix(1.4666667,0,0,-1.4666667,182.9436,123.96627)" />
    <path id="path164" d="M 75.11885,28.3468 V -78.1756" style="fill:none;stroke:#78a9ff;stroke-width:0.79701;stroke-linecap:butt;stroke-linejoin:miter;stroke-miterlimit:10;stroke-dasharray:none;stroke-opacity:1" transform="matrix(1.4666667,0,0,-1.4666667,182.9436,123.96627)" />
    <path id="path165" d="M 79.37114,25.51193 V -81.01003" style="fill:none;stroke:#78a9ff;stroke-width:0.79701;stroke-linecap:butt;stroke-linejoin:miter;stroke-miterlimit:10;stroke-dasharray:none;stroke-opacity:1" transform="matrix(1.4666667,0,0,-1.4666667,182.9436,123.96627)" />
    <path id="path166" d="M 83.62299,22.67752 V -83.8449" style="fill:none;stroke:#78a9ff;stroke-width:0.79701;stroke-linecap:butt;stroke-linejoin:miter;stroke-miterlimit:10;stroke-dasharray:none;stroke-opacity:1" transform="matrix(1.4666667,0,0,-1.4666667,182.9436,123.96627)" />
    <path id="path167" d="M 87.87527,19.84267 V -86.67975" style="fill:none;stroke:#78a9ff;stroke-width:0.79701;stroke-linecap:butt;stroke-linejoin:miter;stroke-miterlimit:10;stroke-dasharray:none;stroke-opacity:1" transform="matrix(1.4666667,0,0,-1.4666667,182.9436,123.96627)" />
  </g>
</svg>