<?xml version='1.0' encoding='utf-8'?>
<svg xmlns="http://www.w3.org/2000/svg" xmlns:ns1="http://sodipodi.sourceforge.net/DTD/sodipodi-0.dtd" xmlns:ns2="http://www.inkscape.org/namespaces/inkscape" version="1.1" id="svg1" width="100%" height="auto" viewBox="-20.0 -20.0 412.62109 143.70762000000002" ns1:docname="svg_fix_XXXXXX.svg">
  <rect id="path1" x="-20.0" y="-20.0" width="412.62109" height="143.70762000000002" fill="white" /><ns1:namedview id="namedview1" pagecolor="#ffffff" bordercolor="#000000" borderopacity="0.25" ns2:showpageshadow="2" ns2:pageopacity="0.0" ns2:pagecheckerboard="0" ns2:deskcolor="#d1d1d1" />
  <defs id="defs1" />
  <g id="g1" transform="translate(-112.59766,-30.800487)">
    <path id="path2" d="M 0,28.3468 V 6.68039" style="fill:none;stroke:#78a9ff;stroke-width:0.79701;stroke-linecap:butt;stroke-linejoin:miter;stroke-miterlimit:10;stroke-dasharray:none;stroke-opacity:1" transform="matrix(2.2666667,0,0,-2.2666667,267.27987,114.78067)" />
    <path id="path3" d="M 19.84277,19.84277 H 36.85083 V 36.85083 H 19.84277 Z" style="fill:#000000;fill-opacity:1;fill-rule:nonzero;stroke:#000000;stroke-width:0.3985;stroke-linecap:butt;stroke-linejoin:miter;stroke-miterlimit:10;stroke-dasharray:none;stroke-opacity:1" transform="matrix(2.2666667,0,0,-2.2666667,267.27987,114.78067)" />
    <path id="path4" d="m 34.01608,25.7957 c 0,3.13112 -2.53824,5.66934 -5.66935,5.66934 -3.13113,0 -5.66935,-2.53822 -5.66935,-5.66934" style="fill:none;stroke:#ffffff;stroke-width:0.79701;stroke-linecap:butt;stroke-linejoin:miter;stroke-miterlimit:10;stroke-dasharray:none;stroke-opacity:1" transform="matrix(2.2666667,0,0,-2.2666667,267.27987,114.78067)" />
    <path id="path5" d="m 28.3468,26.07901 5.66928,4.81891" style="fill:none;stroke:#ffffff;stroke-width:0.79701;stroke-linecap:butt;stroke-linejoin:miter;stroke-miterlimit:10;stroke-dasharray:none;stroke-opacity:1" transform="matrix(2.2666667,0,0,-2.2666667,267.27987,114.78067)" />
    <path id="path6" d="m 28.91373,26.07901 c 0,0.31311 -0.25383,0.56694 -0.56693,0.56694 -0.3131,0 -0.56692,-0.25383 -0.56692,-0.56694 0,-0.3131 0.25382,-0.56693 0.56692,-0.56693 0.3131,0 0.56693,0.25383 0.56693,0.56693 z" style="fill:#ffffff;fill-opacity:1;fill-rule:nonzero;stroke:none" transform="matrix(2.2666667,0,0,-2.2666667,267.27987,114.78067)" />
    <path id="path7" d="M 48.18958,-8.50403 H 65.19764 V 8.50403 H 48.18958 Z" style="fill:#000000;fill-opacity:1;fill-rule:nonzero;stroke:#000000;stroke-width:0.3985;stroke-linecap:butt;stroke-linejoin:miter;stroke-miterlimit:10;stroke-dasharray:none;stroke-opacity:1" transform="matrix(2.2666667,0,0,-2.2666667,267.27987,114.78067)" />
    <path id="path8" d="m 62.36288,-2.5511 c 0,3.1311 -2.53822,5.66934 -5.66934,5.66934 -3.13113,0 -5.66935,-2.53824 -5.66935,-5.66934" style="fill:none;stroke:#ffffff;stroke-width:0.79701;stroke-linecap:butt;stroke-linejoin:miter;stroke-miterlimit:10;stroke-dasharray:none;stroke-opacity:1" transform="matrix(2.2666667,0,0,-2.2666667,267.27987,114.78067)" />
    <path id="path9" d="m 56.69362,-2.26778 5.66926,4.8189" style="fill:none;stroke:#ffffff;stroke-width:0.79701;stroke-linecap:butt;stroke-linejoin:miter;stroke-miterlimit:10;stroke-dasharray:none;stroke-opacity:1" transform="matrix(2.2666667,0,0,-2.2666667,267.27987,114.78067)" />
    <path id="path10" d="m 57.26054,-2.26778 c 0,0.3131 -0.25383,0.56693 -0.56692,0.56693 -0.31311,0 -0.56694,-0.25383 -0.56694,-0.56693 0,-0.31309 0.25383,-0.56692 0.56694,-0.56692 0.31309,0 0.56692,0.25383 0.56692,0.56692 z" style="fill:#ffffff;fill-opacity:1;fill-rule:nonzero;stroke:none" transform="matrix(2.2666667,0,0,-2.2666667,267.27987,114.78067)" />
    <path id="path11" d="M -56.69362,28.3468 H 19.64352" style="fill:none;stroke:#121619;stroke-width:0.3985;stroke-linecap:butt;stroke-linejoin:miter;stroke-miterlimit:10;stroke-dasharray:none;stroke-opacity:1" transform="matrix(2.2666667,0,0,-2.2666667,267.27987,114.78067)" />
    <path id="path12" d="M -56.69362,0 H 47.99033" style="fill:none;stroke:#121619;stroke-width:0.3985;stroke-linecap:butt;stroke-linejoin:miter;stroke-miterlimit:10;stroke-dasharray:none;stroke-opacity:1" transform="matrix(2.2666667,0,0,-2.2666667,267.27987,114.78067)" />
    <path id="path13" d="M 37.05008,29.05545 H 85.04042" style="fill:none;stroke:#121619;stroke-width:0.3985;stroke-linecap:butt;stroke-linejoin:miter;stroke-miterlimit:10;stroke-dasharray:none;stroke-opacity:1" transform="matrix(2.2666667,0,0,-2.2666667,267.27987,114.78067)" />
    <path id="path14" d="M 37.05008,27.63815 H 85.04042" style="fill:none;stroke:#121619;stroke-width:0.3985;stroke-linecap:butt;stroke-linejoin:miter;stroke-miterlimit:10;stroke-dasharray:none;stroke-opacity:1" transform="matrix(2.2666667,0,0,-2.2666667,267.27987,114.78067)" />
    <path id="path15" d="M 65.3969,0.70865 H 85.04042" style="fill:none;stroke:#121619;stroke-width:0.3985;stroke-linecap:butt;stroke-linejoin:miter;stroke-miterlimit:10;stroke-dasharray:none;stroke-opacity:1" transform="matrix(2.2666667,0,0,-2.2666667,267.27987,114.78067)" />
    <path id="path16" d="M 65.3969,-0.70865 H 85.04042" style="fill:none;stroke:#121619;stroke-width:0.3985;stroke-linecap:butt;stroke-linejoin:miter;stroke-miterlimit:10;stroke-dasharray:none;stroke-opacity:1" transform="matrix(2.2666667,0,0,-2.2666667,267.27987,114.78067)" />
    <path id="path17" d="m -36.85083,19.84277 h 17.00806 v 17.00806 h -17.00806 z" style="fill:#78a9ff;fill-opacity:1;fill-rule:nonzero;stroke:#78a9ff;stroke-width:0.3985;stroke-linecap:butt;stroke-linejoin:miter;stroke-miterlimit:10;stroke-dasharray:none;stroke-opacity:1" transform="matrix(2.2666667,0,0,-2.2666667,267.27987,114.78067)" />
    <path id="path18" d="m 6.3703171,-4.7979623 c 0.075827,-0.3102022 0.096507,-0.379136 0.6479779,-0.379136 0.1861214,0 0.2826287,0 0.2826287,-0.1516545 0,-0.013787 -0.00689,-0.1171875 -0.1378676,-0.1171875 -0.1516544,0 -0.3377758,0.02068 -0.4894302,0.027574 H 6.170409 c -0.7651654,0 -0.9719669,-0.027574 -1.027114,-0.027574 -0.034467,0 -0.1585478,0 -0.1585478,0.1516545 0,0.1171875 0.1034008,0.1171875 0.2274817,0.1171875 0.2619485,0 0.4963235,0 0.4963235,0.1240808 0,0.034467 -0.00689,0.04136 -0.034467,0.1447611 L 5.1984421,-2.9643226 H 2.6272105 l 0.46875,-1.8543199 c 0.068934,-0.289522 0.082721,-0.3584558 0.6686581,-0.3584558 0.1585478,0 0.2550551,0 0.2550551,-0.1516545 0,-0.013787 -0.013787,-0.1171875 -0.1378676,-0.1171875 -0.1516544,0 -0.3446692,0.02068 -0.4963236,0.027574 H 2.8822656 c -0.7651654,0 -0.9719669,-0.027574 -1.0271139,-0.027574 -0.027574,0 -0.1585478,0 -0.1585478,0.1516545 0,0.1171875 0.1034007,0.1171875 0.234375,0.1171875 0.2619485,0 0.4894301,0 0.4894301,0.1240808 0,0.034467 -0.00689,0.04136 -0.027573,0.1447611 l -1.0684743,4.28079041 c -0.075827,0.30330882 -0.089614,0.36534926 -0.67555146,0.36534926 -0.15165441,0 -0.24816176,0 -0.24816176,0.15165441 0,0.02757353 0.0206801,0.11029412147 0.12408088,0.11029412147 0.15165441,0 0.34466912,-0.0137867615 0.49632354,-0.0206801515 h 0.5101103 c 0.7651654,0 0.9719669,0.0206801515 1.027114,0.0206801515 0.048254,0 0.1585477,0 0.1585477,-0.15165441147 0,-0.11029412 -0.1034007,-0.11029412 -0.234375,-0.11029412 -0.027573,0 -0.1723345,0 -0.3033088,-0.0137868 -0.1723345,-0.0206802 -0.1861213,-0.0413603 -0.1861213,-0.1171875 0,-0.0344669 0.013787,-0.0827206 0.02068,-0.12408088 L 2.5582767,-2.7023741 h 2.5643382 c -0.2274816,0.9443934 -0.5376838,2.18520223 -0.5445772,2.18520223 -0.075827,0.24816176 -0.2205883,0.24816176 -0.6962316,0.25505514 -0.096507,0 -0.1999081,0 -0.1999081,0.15165441 0,0.02757353 0.027573,0.11029412147 0.1309742,0.11029412147 0.1516545,0 0.3377758,-0.0137867615 0.4894302,-0.0206801515 h 0.5101103 c 0.7651654,0 0.9719669,0.0206801515 1.027114,0.0206801515 0.048254,0 0.1585477,0 0.1585477,-0.15165441147 0,-0.11029412 -0.1034007,-0.11029412 -0.234375,-0.11029412 -0.027573,0 -0.1654411,0 -0.3033088,-0.0137868 -0.1654412,-0.0206802 -0.1861213,-0.0413603 -0.1861213,-0.1171875 0,-0.0344669 0.02068,-0.0827206 0.027573,-0.12408088 z m 0,0" style="fill:#ffffff;fill-opacity:1;fill-rule:nonzero;stroke:none" aria-label="H" transform="matrix(2.2666667,0,0,2.2666667,194.44733,56.6996)" />
    <path id="path19" d="m 2.49069,28.3468 c 0,1.37558 -1.11511,2.4907 -2.49069,2.4907 -1.37558,0 -2.49069,-1.11512 -2.49069,-2.4907 0,-1.37558 1.11511,-2.49069 2.49069,-2.49069 1.37558,0 2.49069,1.11511 2.49069,2.49069 z" style="fill:#78a9ff;fill-opacity:1;fill-rule:nonzero;stroke:none" transform="matrix(2.2666667,0,0,-2.2666667,267.27987,114.78067)" />
    <path id="path20" d="M 6.48114,0 C 6.48114,3.57947 3.57947,6.48114 0,6.48114 -3.57947,6.48114 -6.48114,3.57947 -6.48114,0 c 0,-3.57947 2.90167,-6.48114 6.48114,-6.48114 3.57947,0 6.48114,2.90167 6.48114,6.48114 z" style="fill:#78a9ff;fill-opacity:1;fill-rule:nonzero;stroke:#78a9ff;stroke-width:0.3985;stroke-linecap:butt;stroke-linejoin:miter;stroke-miterlimit:10;stroke-dasharray:none;stroke-opacity:1" transform="matrix(2.2666667,0,0,-2.2666667,267.27987,114.78067)" />
    <path id="path21" d="m 4.7089237,-7.8178437 v 3.4122242 H 1.2898061 v 0.9168199 h 3.4191176 v 3.41911761 H 5.6257436 V -3.4887996 H 9.0379678 V -4.4056195 H 5.6257436 v -3.4122242 z m 0,0" style="fill:#ffffff;fill-opacity:1;fill-rule:nonzero;stroke:none" aria-label="+" transform="matrix(2.2666667,0,0,2.2666667,255.57253,123.65013)" />
    <path id="path22" d="M 5.6103814,-5.5288539 H 4.8107491 L 2.9081756,-2.8542215 0.98492187,-5.5288539 H 0.01984835 l 2.41268385,3.315717 V -3.6121324e-4 H 3.2114844 V -2.2131369 Z m 0,0" style="fill:#121619;fill-opacity:1;fill-rule:nonzero;stroke:none" aria-label="Y" transform="matrix(2.2666667,0,0,2.2666667,112.55267,56.8016)" />
    <path id="path23" d="M 3.1504154,-2.9166737 5.1632831,-5.5292656 H 4.2947169 L 2.7574926,-3.4888244 1.1858015,-5.5292656 H 0.24140809 L 2.3645699,-2.9166737 0.11732721,-7.7297794e-4 H 0.98589338 L 2.7574926,-2.39967 4.5635588,-7.7297794e-4 h 0.9512868 z m 0,0" style="fill:#121619;fill-opacity:1;fill-rule:nonzero;stroke:none" aria-label="X" transform="matrix(2.2666667,0,0,2.2666667,113.03093,121.05253)" />
    <path id="path24" d="M 0.79962132,-5.5288539 V -3.6121324e-4 H 3.0675441 c 1.1787684,0 2.0955883,-0.70312499676 2.0955883,-1.49586398676 0,-0.703125 -0.737592,-1.2683823 -1.6268383,-1.3993566 C 4.3635,-3.0954899 4.921864,-3.5711333 4.921864,-4.143284 c 0,-0.7306985 -0.9168199,-1.3855699 -2.0818015,-1.3855699 z m 0.74448528,2.3920037 v -1.9232537 h 1.0546875 c 0.8892463,0 1.6337316,0.413603 1.6337316,0.9237133 0,0.5307904 -0.7238051,0.9995404 -1.6268382,0.9995404 z m 0,2.66773899 V -2.6129531 h 1.1443015 c 0.9995404,0 1.7509191,0.5101103 1.7509191,1.1098345 0,0.58593753 -0.7444853,1.03400739 -1.6199448,1.03400739 z m 0,0" style="fill:#121619;fill-opacity:1;fill-rule:nonzero;stroke:none" aria-label="B" transform="matrix(2.2666667,0,0,2.2666667,472.9844,56.8016)" />
    <path id="path25" d="M 3.2054118,-5.5292656 H 2.4333529 L 0.24125735,-7.7297794e-4 H 0.88923529 L 1.5165331,-1.5793575 h 2.4195772 l 0.6204044,1.57858452206 h 0.8409927 z m -0.46875,0.6066176 0.9995404,2.8745405 h -2.019761 z m 0,0" style="fill:#121619;fill-opacity:1;fill-rule:nonzero;stroke:none" aria-label="A" transform="matrix(2.2666667,0,0,2.2666667,472.9844,121.05253)" />
  </g>
</svg>