<svg width="1048" height="500" viewBox="0 0 1048 500" fill="none" xmlns="http://www.w3.org/2000/svg">
<g clip-path="url(#clip0_38_6114)">
<rect x="0.5" y="0.5" width="1047" height="499" fill="white" fill-opacity="0.8" stroke="#DDE1E6"/>
<rect opacity="0.4" y="61.5918" width="1048" height="61.1024" fill="#F2F4F8"/>
<rect opacity="0.4" y="428.205" width="1048" height="61.1024" fill="#F2F4F8"/>
<rect opacity="0.4" y="306.002" width="1048" height="61.1024" fill="#F2F4F8"/>
<rect opacity="0.4" y="183.795" width="1048" height="61.1024" fill="#F2F4F8"/>
<path d="M213 152.504C213 150.218 212.285 148 210.454 148C207.328 148 204 154.566 204 159.496C204 160.527 204.223 164 206.568 164C209.605 164 213 157.591 213 152.504ZM206.233 155.664C206.568 154.342 207.037 152.459 207.931 150.868C208.667 149.524 209.449 148.448 210.432 148.448C211.169 148.448 211.66 149.076 211.66 151.227C211.66 152.034 211.593 153.154 210.945 155.664H206.233ZM210.789 156.336C210.231 158.532 209.762 159.944 208.958 161.356C208.31 162.499 207.529 163.552 206.591 163.552C205.898 163.552 205.34 163.014 205.34 160.796C205.34 159.339 205.697 157.815 206.055 156.336H210.789Z" fill="black"/>
<path d="M215.213 159.456C215.213 159.192 215.021 159 214.745 159C214.434 159 214.086 159.288 214.086 159.647C214.086 159.911 214.278 160.103 214.553 160.103C214.865 160.103 215.213 159.815 215.213 159.456ZM213.463 163.855L212.815 165.509C212.755 165.689 212.695 165.833 212.695 166.037C212.695 166.624 213.151 167.056 213.786 167.056C214.949 167.056 215.441 165.378 215.441 165.222C215.441 165.102 215.345 165.066 215.261 165.066C215.117 165.066 215.093 165.15 215.057 165.27C214.781 166.229 214.29 166.72 213.81 166.72C213.666 166.72 213.522 166.66 213.522 166.337C213.522 166.049 213.606 165.833 213.762 165.462C213.882 165.138 214.002 164.814 214.134 164.491L214.505 163.519C214.613 163.244 214.757 162.872 214.757 162.668C214.757 162.069 214.278 161.649 213.666 161.649C212.503 161.649 212 163.328 212 163.484C212 163.591 212.084 163.639 212.18 163.639C212.336 163.639 212.348 163.567 212.384 163.448C212.719 162.309 213.271 161.985 213.63 161.985C213.798 161.985 213.918 162.045 213.918 162.381C213.918 162.501 213.906 162.668 213.786 163.028L213.463 163.855Z" fill="black"/>
<path d="M201 166.832C201 166.769 201 166.727 200.626 166.371C198.423 164.252 197.189 160.79 197.189 156.51C197.189 152.441 198.225 148.937 200.78 146.462C201 146.273 201 146.231 201 146.168C201 146.042 200.89 146 200.802 146C200.515 146 198.709 147.51 197.63 149.566C196.507 151.685 196 153.93 196 156.51C196 158.378 196.308 160.874 197.454 163.119C198.753 165.636 200.559 167 200.802 167C200.89 167 201 166.958 201 166.832Z" fill="black"/>
<path d="M223 156.51C223 154.916 222.78 152.315 221.546 149.881C220.247 147.364 218.441 146 218.198 146C218.11 146 218 146.042 218 146.168C218 146.231 218 146.273 218.374 146.629C220.577 148.748 221.811 152.21 221.811 156.49C221.811 160.559 220.775 164.063 218.22 166.538C218 166.727 218 166.769 218 166.832C218 166.958 218.11 167 218.198 167C218.485 167 220.291 165.49 221.37 163.434C222.493 161.294 223 159.028 223 156.51Z" fill="black"/>
<rect x="101.5" y="180.5" width="356" height="216" rx="4.5" stroke="black" stroke-dasharray="6 6"/>
<rect x="577.5" y="180.5" width="422" height="216" rx="4.5" stroke="black" stroke-dasharray="6 6"/>
<rect x="90.5" y="112.5" width="428" height="295" rx="4.5" stroke="black" stroke-dasharray="6 6"/>
<line x1="69" y1="217.5" x2="505" y2="217.5" stroke="black"/>
<line x1="69" y1="252.5" x2="505" y2="252.5" stroke="black"/>
<line x1="69" y1="287.5" x2="505" y2="287.5" stroke="black"/>
<line x1="69" y1="322.5" x2="505" y2="322.5" stroke="black"/>
<line x1="69" y1="357.5" x2="505" y2="357.5" stroke="black"/>
<path fill-rule="evenodd" clip-rule="evenodd" d="M52.3996 222.201H53.5996C54.5937 222.201 55.3996 221.395 55.3996 220.401V215.601C55.3996 214.607 54.5937 213.801 53.5996 213.801H52.3996C51.4055 213.801 50.5996 214.607 50.5996 215.601V220.401C50.5996 221.395 51.4055 222.201 52.3996 222.201ZM51.7996 215.601C51.7996 215.269 52.0682 215.001 52.3996 215.001H53.5996C53.931 215.001 54.1996 215.269 54.1996 215.601V220.401C54.1996 220.732 53.931 221.001 53.5996 221.001H52.3996C52.0682 221.001 51.7996 220.732 51.7996 220.401V215.601Z" fill="#161616"/>
<path d="M58.0545 224L57 223.46L59.6804 218L57 212.54L58.0545 212L61 218L59.5272 221L58.0545 224Z" fill="#161616"/>
<rect x="47" y="212" width="1" height="12" fill="#161616"/>
<path fill-rule="evenodd" clip-rule="evenodd" d="M52.3996 362.201H53.5996C54.5937 362.201 55.3996 361.395 55.3996 360.401V355.601C55.3996 354.607 54.5937 353.801 53.5996 353.801H52.3996C51.4055 353.801 50.5996 354.607 50.5996 355.601V360.401C50.5996 361.395 51.4055 362.201 52.3996 362.201ZM51.7996 355.601C51.7996 355.269 52.0682 355.001 52.3996 355.001H53.5996C53.931 355.001 54.1996 355.269 54.1996 355.601V360.401C54.1996 360.732 53.931 361.001 53.5996 361.001H52.3996C52.0682 361.001 51.7996 360.732 51.7996 360.401V355.601Z" fill="#161616"/>
<path d="M58.0545 364L57 363.46L59.6804 358L57 352.54L58.0545 352L61 358L59.5272 361L58.0545 364Z" fill="#161616"/>
<rect x="47" y="352" width="1" height="12" fill="#161616"/>
<rect width="134" height="185" transform="translate(116 197)" fill="#0043CE"/>
<path d="M184.708 315.156C183.613 319.531 179.982 322.094 177.04 322.094C174.787 322.094 173.253 320.594 173.253 318C173.253 317.875 173.253 316.938 173.598 315.563L176.665 303.281C176.946 302.219 177.009 301.906 179.231 301.906C179.794 301.906 180.107 301.906 180.107 301.344C180.107 301 179.826 301 179.638 301C179.075 301 178.417 301.063 177.823 301.063H174.13C173.535 301.063 172.878 301 172.283 301C172.064 301 171.689 301 171.689 301.594C171.689 301.906 171.908 301.906 172.502 301.906C174.38 301.906 174.38 302.156 174.38 302.5C174.38 302.687 174.161 303.594 174.004 304.125L171.282 315.062C171.188 315.406 171 316.25 171 317.094C171 320.531 173.472 323 176.884 323C180.045 323 183.55 320.5 185.146 316.531C185.365 316 185.647 314.906 185.835 314.062C186.148 312.937 186.805 310.188 187.024 309.375L188.213 304.687C188.62 303.062 188.87 302.031 191.624 301.906C191.875 301.875 192 301.625 192 301.344C192 301 191.718 301 191.593 301C191.155 301 190.592 301.063 190.153 301.063H188.683C186.742 301.063 185.741 301 185.709 301C185.522 301 185.146 301 185.146 301.594C185.146 301.906 185.396 301.906 185.615 301.906C187.493 301.969 187.618 302.687 187.618 303.25C187.618 303.531 187.618 303.625 187.493 304.063L184.708 315.156Z" fill="white"/>
<path d="M151.625 252.8H153.907L156.021 257H157.351L155.111 252.688C156.385 252.394 157.071 251.428 157.071 250C157.071 248.222 156.049 247.228 154.341 247.228H150.449V257H151.625V252.8ZM151.625 251.792V248.264H154.341C155.265 248.264 155.811 248.768 155.811 249.664V250.392C155.811 251.288 155.265 251.792 154.341 251.792H151.625ZM161.963 257.168C163.321 257.168 164.357 256.496 164.819 255.516L164.021 254.942C163.643 255.74 162.943 256.188 162.033 256.188C160.689 256.188 159.891 255.25 159.891 254.004V253.668H165.085V253.136C165.085 251.092 163.895 249.608 161.963 249.608C160.003 249.608 158.715 251.092 158.715 253.388C158.715 255.684 160.003 257.168 161.963 257.168ZM161.963 250.546C163.111 250.546 163.881 251.4 163.881 252.674V252.828H159.891V252.73C159.891 251.47 160.745 250.546 161.963 250.546ZM167.483 257H168.603V250.756H170.157V249.776H168.603V247.62H170.157V246.64H169.065C168.001 246.64 167.483 247.326 167.483 248.32V249.776H166.307V250.756H167.483V257ZM174.451 257.168C175.809 257.168 176.845 256.496 177.307 255.516L176.509 254.942C176.131 255.74 175.431 256.188 174.521 256.188C173.177 256.188 172.379 255.25 172.379 254.004V253.668H177.573V253.136C177.573 251.092 176.383 249.608 174.451 249.608C172.491 249.608 171.203 251.092 171.203 253.388C171.203 255.684 172.491 257.168 174.451 257.168ZM174.451 250.546C175.599 250.546 176.369 251.4 176.369 252.674V252.828H172.379V252.73C172.379 251.47 173.233 250.546 174.451 250.546ZM180.699 257V252.1C180.699 251.414 181.427 250.896 182.631 250.896H183.289V249.776H182.855C181.679 249.776 181.021 250.42 180.769 251.106H180.699V249.776H179.579V257H180.699ZM187.527 257.168C188.885 257.168 189.921 256.496 190.383 255.516L189.585 254.942C189.207 255.74 188.507 256.188 187.597 256.188C186.253 256.188 185.455 255.25 185.455 254.004V253.668H190.649V253.136C190.649 251.092 189.459 249.608 187.527 249.608C185.567 249.608 184.279 251.092 184.279 253.388C184.279 255.684 185.567 257.168 187.527 257.168ZM187.527 250.546C188.675 250.546 189.445 251.4 189.445 252.674V252.828H185.455V252.73C185.455 251.47 186.309 250.546 187.527 250.546ZM193.775 257V251.988C193.775 251.064 194.643 250.616 195.539 250.616C196.617 250.616 197.177 251.274 197.177 252.562V257H198.297V252.366C198.297 250.616 197.359 249.608 195.875 249.608C194.797 249.608 194.181 250.14 193.831 250.952H193.775V249.776H192.655V257H193.775ZM203.46 257.168C204.832 257.168 205.77 256.496 206.232 255.46L205.42 254.914C205.028 255.74 204.37 256.174 203.46 256.174C202.13 256.174 201.444 255.264 201.444 254.004V252.772C201.444 251.512 202.13 250.602 203.46 250.602C204.342 250.602 204.958 251.036 205.224 251.778L206.162 251.302C205.742 250.308 204.888 249.608 203.46 249.608C201.43 249.608 200.24 251.078 200.24 253.388C200.24 255.698 201.43 257.168 203.46 257.168ZM210.607 257.168C211.965 257.168 213.001 256.496 213.463 255.516L212.665 254.942C212.287 255.74 211.587 256.188 210.677 256.188C209.333 256.188 208.535 255.25 208.535 254.004V253.668H213.729V253.136C213.729 251.092 212.539 249.608 210.607 249.608C208.647 249.608 207.359 251.092 207.359 253.388C207.359 255.684 208.647 257.168 210.607 257.168ZM210.607 250.546C211.755 250.546 212.525 251.4 212.525 252.674V252.828H208.535V252.73C208.535 251.47 209.389 250.546 210.607 250.546ZM148.442 277V272.828H151.158C152.908 272.828 153.888 271.75 153.888 270.028C153.888 268.306 152.908 267.228 151.158 267.228H147.266V277H148.442ZM148.442 268.264H151.158C152.082 268.264 152.628 268.768 152.628 269.664V270.392C152.628 271.288 152.082 271.792 151.158 271.792H148.442V268.264ZM156.787 277V272.1C156.787 271.414 157.515 270.896 158.719 270.896H159.377V269.776H158.943C157.767 269.776 157.109 270.42 156.857 271.106H156.787V269.776H155.667V277H156.787ZM163.615 277.168C164.973 277.168 166.009 276.496 166.471 275.516L165.673 274.942C165.295 275.74 164.595 276.188 163.685 276.188C162.341 276.188 161.543 275.25 161.543 274.004V273.668H166.737V273.136C166.737 271.092 165.547 269.608 163.615 269.608C161.655 269.608 160.367 271.092 160.367 273.388C160.367 275.684 161.655 277.168 163.615 277.168ZM163.615 270.546C164.763 270.546 165.533 271.4 165.533 272.674V272.828H161.543V272.73C161.543 271.47 162.397 270.546 163.615 270.546ZM168.743 279.8H169.863V275.824H169.919C170.353 276.72 171.039 277.168 172.033 277.168C173.839 277.168 174.973 275.698 174.973 273.388C174.973 271.078 173.839 269.608 172.033 269.608C171.039 269.608 170.297 270.042 169.919 270.952H169.863V269.776H168.743V279.8ZM171.725 276.16C170.703 276.16 169.863 275.628 169.863 274.69V272.002C169.863 271.204 170.703 270.616 171.725 270.616C172.985 270.616 173.769 271.484 173.769 272.772V274.004C173.769 275.292 172.985 276.16 171.725 276.16ZM182.904 277V276.02H182.078V272.044C182.078 270.518 181.042 269.608 179.306 269.608C178.004 269.608 177.136 270.252 176.744 271.022L177.416 271.652C177.808 270.994 178.382 270.574 179.25 270.574C180.398 270.574 180.958 271.134 180.958 272.156V272.87H179.53C177.43 272.87 176.45 273.626 176.45 274.984C176.45 276.328 177.346 277.168 178.872 277.168C179.88 277.168 180.65 276.706 180.958 275.824H181.028C181.112 276.496 181.448 277 182.274 277H182.904ZM179.054 276.216C178.186 276.216 177.626 275.81 177.626 275.096V274.802C177.626 274.102 178.2 273.71 179.474 273.71H180.958V274.9C180.958 275.642 180.16 276.216 179.054 276.216ZM185.783 277V272.1C185.783 271.414 186.511 270.896 187.715 270.896H188.373V269.776H187.939C186.763 269.776 186.105 270.42 185.853 271.106H185.783V269.776H184.663V277H185.783ZM195.789 277V276.02H194.963V272.044C194.963 270.518 193.927 269.608 192.191 269.608C190.889 269.608 190.021 270.252 189.629 271.022L190.301 271.652C190.693 270.994 191.267 270.574 192.135 270.574C193.283 270.574 193.843 271.134 193.843 272.156V272.87H192.415C190.315 272.87 189.335 273.626 189.335 274.984C189.335 276.328 190.231 277.168 191.757 277.168C192.765 277.168 193.535 276.706 193.843 275.824H193.913C193.997 276.496 194.333 277 195.159 277H195.789ZM191.939 276.216C191.071 276.216 190.511 275.81 190.511 275.096V274.802C190.511 274.102 191.085 273.71 192.359 273.71H193.843V274.9C193.843 275.642 193.045 276.216 191.939 276.216ZM200.543 277V276.02H199.073V270.756H200.655V269.776H199.073V267.774H198.065V269.118C198.065 269.608 197.911 269.776 197.435 269.776H196.763V270.756H197.953V275.81C197.953 276.51 198.373 277 199.143 277H200.543ZM203.175 268.082C203.651 268.082 203.861 267.83 203.861 267.452V267.27C203.861 266.892 203.651 266.64 203.175 266.64C202.699 266.64 202.489 266.892 202.489 267.27V267.452C202.489 267.83 202.699 268.082 203.175 268.082ZM202.615 277H203.735V269.776H202.615V277ZM209.005 277.168C210.937 277.168 212.267 275.684 212.267 273.388C212.267 271.092 210.937 269.608 209.005 269.608C207.073 269.608 205.743 271.092 205.743 273.388C205.743 275.684 207.073 277.168 209.005 277.168ZM209.005 276.174C207.801 276.174 206.947 275.432 206.947 273.906V272.87C206.947 271.344 207.801 270.602 209.005 270.602C210.209 270.602 211.063 271.344 211.063 272.87V273.906C211.063 275.432 210.209 276.174 209.005 276.174ZM215.389 277V271.988C215.389 271.064 216.257 270.616 217.153 270.616C218.231 270.616 218.791 271.274 218.791 272.562V277H219.911V272.366C219.911 270.616 218.973 269.608 217.489 269.608C216.411 269.608 215.795 270.14 215.445 270.952H215.389V269.776H214.269V277H215.389Z" fill="white"/>
<rect width="134" height="185" transform="translate(310 197)" fill="#0043CE"/>
<rect width="134" height="185" transform="translate(310 197)" fill="#0043CE"/>
<path d="M398 308.504C398 306.218 397.285 304 395.454 304C392.328 304 389 310.566 389 315.496C389 316.527 389.223 320 391.568 320C394.605 320 398 313.591 398 308.504ZM391.233 311.664C391.568 310.342 392.037 308.459 392.931 306.868C393.667 305.524 394.449 304.448 395.432 304.448C396.169 304.448 396.66 305.076 396.66 307.227C396.66 308.034 396.593 309.154 395.945 311.664H391.233ZM395.789 312.336C395.231 314.532 394.762 315.944 393.958 317.356C393.31 318.499 392.529 319.552 391.591 319.552C390.898 319.552 390.34 319.014 390.34 316.796C390.34 315.339 390.697 313.815 391.055 312.336H395.789Z" fill="white"/>
<path d="M347.977 257L351.267 247.228H350.049L348.425 252.156L347.319 255.824H347.249L346.171 252.156L344.561 247.228H343.301L346.549 257H347.977ZM358.359 257V256.02H357.533V252.044C357.533 250.518 356.497 249.608 354.761 249.608C353.459 249.608 352.591 250.252 352.199 251.022L352.871 251.652C353.263 250.994 353.837 250.574 354.705 250.574C355.853 250.574 356.413 251.134 356.413 252.156V252.87H354.985C352.885 252.87 351.905 253.626 351.905 254.984C351.905 256.328 352.801 257.168 354.327 257.168C355.335 257.168 356.105 256.706 356.413 255.824H356.483C356.567 256.496 356.903 257 357.729 257H358.359ZM354.509 256.216C353.641 256.216 353.081 255.81 353.081 255.096V254.802C353.081 254.102 353.655 253.71 354.929 253.71H356.413V254.9C356.413 255.642 355.615 256.216 354.509 256.216ZM361.237 257V252.1C361.237 251.414 361.965 250.896 363.169 250.896H363.827V249.776H363.393C362.217 249.776 361.559 250.42 361.307 251.106H361.237V249.776H360.117V257H361.237ZM365.978 248.082C366.454 248.082 366.664 247.83 366.664 247.452V247.27C366.664 246.892 366.454 246.64 365.978 246.64C365.502 246.64 365.292 246.892 365.292 247.27V247.452C365.292 247.83 365.502 248.082 365.978 248.082ZM365.418 257H366.538V249.776H365.418V257ZM374.958 257V256.02H374.132V252.044C374.132 250.518 373.096 249.608 371.36 249.608C370.058 249.608 369.19 250.252 368.798 251.022L369.47 251.652C369.862 250.994 370.436 250.574 371.304 250.574C372.452 250.574 373.012 251.134 373.012 252.156V252.87H371.584C369.484 252.87 368.504 253.626 368.504 254.984C368.504 256.328 369.4 257.168 370.926 257.168C371.934 257.168 372.704 256.706 373.012 255.824H373.082C373.166 256.496 373.502 257 374.328 257H374.958ZM371.108 256.216C370.24 256.216 369.68 255.81 369.68 255.096V254.802C369.68 254.102 370.254 253.71 371.528 253.71H373.012V254.9C373.012 255.642 372.214 256.216 371.108 256.216ZM379.712 257V256.02H378.242V250.756H379.824V249.776H378.242V247.774H377.234V249.118C377.234 249.608 377.08 249.776 376.604 249.776H375.932V250.756H377.122V255.81C377.122 256.51 377.542 257 378.312 257H379.712ZM382.345 248.082C382.821 248.082 383.031 247.83 383.031 247.452V247.27C383.031 246.892 382.821 246.64 382.345 246.64C381.869 246.64 381.659 246.892 381.659 247.27V247.452C381.659 247.83 381.869 248.082 382.345 248.082ZM381.785 257H382.905V249.776H381.785V257ZM388.175 257.168C390.107 257.168 391.437 255.684 391.437 253.388C391.437 251.092 390.107 249.608 388.175 249.608C386.243 249.608 384.913 251.092 384.913 253.388C384.913 255.684 386.243 257.168 388.175 257.168ZM388.175 256.174C386.971 256.174 386.117 255.432 386.117 253.906V252.87C386.117 251.344 386.971 250.602 388.175 250.602C389.379 250.602 390.233 251.344 390.233 252.87V253.906C390.233 255.432 389.379 256.174 388.175 256.174ZM394.559 257V251.988C394.559 251.064 395.427 250.616 396.323 250.616C397.401 250.616 397.961 251.274 397.961 252.562V257H399.081V252.366C399.081 250.616 398.143 249.608 396.659 249.608C395.581 249.608 394.965 250.14 394.615 250.952H394.559V249.776H393.439V257H394.559ZM407.436 257V256.02H406.61V252.044C406.61 250.518 405.574 249.608 403.838 249.608C402.536 249.608 401.668 250.252 401.276 251.022L401.948 251.652C402.34 250.994 402.914 250.574 403.782 250.574C404.93 250.574 405.49 251.134 405.49 252.156V252.87H404.062C401.962 252.87 400.982 253.626 400.982 254.984C400.982 256.328 401.878 257.168 403.404 257.168C404.412 257.168 405.182 256.706 405.49 255.824H405.56C405.644 256.496 405.98 257 406.806 257H407.436ZM403.586 256.216C402.718 256.216 402.158 255.81 402.158 255.096V254.802C402.158 254.102 402.732 253.71 404.006 253.71H405.49V254.9C405.49 255.642 404.692 256.216 403.586 256.216ZM411.378 257V256.02H410.314V246.64H409.194V255.838C409.194 256.51 409.614 257 410.384 257H411.378ZM363.407 277V272.576H367.649V271.54H363.407V268.264H368.055V267.228H362.231V277H363.407ZM372.474 277.168C374.406 277.168 375.736 275.684 375.736 273.388C375.736 271.092 374.406 269.608 372.474 269.608C370.542 269.608 369.212 271.092 369.212 273.388C369.212 275.684 370.542 277.168 372.474 277.168ZM372.474 276.174C371.27 276.174 370.416 275.432 370.416 273.906V272.87C370.416 271.344 371.27 270.602 372.474 270.602C373.678 270.602 374.532 271.344 374.532 272.87V273.906C374.532 275.432 373.678 276.174 372.474 276.174ZM378.858 277V272.1C378.858 271.414 379.586 270.896 380.79 270.896H381.448V269.776H381.014C379.838 269.776 379.18 270.42 378.928 271.106H378.858V269.776H377.738V277H378.858ZM384.158 277V271.988C384.158 271.064 384.998 270.616 385.88 270.616C386.944 270.616 387.434 271.274 387.434 272.562V277H388.554V271.988C388.554 271.064 389.366 270.616 390.248 270.616C391.34 270.616 391.83 271.288 391.83 272.562V277H392.95V272.366C392.95 270.616 392.068 269.608 390.598 269.608C389.366 269.608 388.666 270.294 388.4 271.078H388.372C387.98 270.042 387.112 269.608 386.16 269.608C385.04 269.608 384.536 270.21 384.214 270.952H384.158V269.776H383.038V277H384.158Z" fill="white"/>
<line x1="53" y1="317" x2="53" y2="330" stroke="black" stroke-width="2" stroke-linecap="round" stroke-dasharray="0.1 6"/>
<line x1="53" y1="246" x2="53" y2="259" stroke="black" stroke-width="2" stroke-linecap="round" stroke-dasharray="0.1 6"/>
<path d="M50 287.696C50.0081 287.647 50.0203 287.582 50.0365 287.501C50.0527 287.42 50.1013 287.266 50.1823 287.04C50.2633 286.813 50.3443 286.622 50.4253 286.468C50.5063 286.315 50.6399 286.165 50.8262 286.019C51.0125 285.873 51.1988 285.804 51.3851 285.812C51.6767 285.812 51.9197 285.885 52.1141 286.031C52.3085 286.177 52.43 286.315 52.4786 286.444C52.5272 286.574 52.5515 286.659 52.5515 286.699C52.5515 286.716 52.5556 286.724 52.5637 286.724L52.6973 286.59C53.1914 286.072 53.7544 285.812 54.3862 285.812C54.8236 285.812 55.176 285.922 55.4433 286.14C55.7106 286.359 55.8483 286.679 55.8564 287.1C55.8645 287.522 55.7106 288.157 55.3947 289.008C55.0788 289.858 54.9249 290.373 54.933 290.551C54.933 290.762 55.0018 290.867 55.1395 290.867C55.1881 290.867 55.2246 290.863 55.2489 290.855C55.4838 290.814 55.6944 290.66 55.8807 290.393C56.067 290.126 56.2087 289.802 56.3059 289.421C56.3221 289.356 56.4031 289.324 56.5489 289.324C56.7109 289.324 56.7919 289.356 56.7919 289.421C56.7919 289.429 56.7757 289.49 56.7433 289.603C56.6785 289.838 56.5894 290.069 56.476 290.296C56.3626 290.523 56.1763 290.749 55.9171 290.976C55.6579 291.203 55.3785 291.312 55.0788 291.304C54.6981 291.304 54.4227 291.195 54.2526 290.976C54.0825 290.757 53.9974 290.531 53.9974 290.296C53.9974 290.142 54.1432 289.656 54.4348 288.838C54.7264 288.02 54.8763 287.404 54.8844 286.991C54.8844 286.513 54.7062 286.274 54.3498 286.274H54.289C53.5924 286.274 53.0051 286.683 52.5272 287.501L52.4422 287.647L52.0412 289.275C51.7739 290.336 51.62 290.907 51.5795 290.988C51.4742 291.207 51.3001 291.316 51.0571 291.316C50.9518 291.316 50.8667 291.292 50.8019 291.244C50.7371 291.195 50.6926 291.146 50.6683 291.098C50.644 291.049 50.6359 291.009 50.644 290.976C50.644 290.871 50.7979 290.211 51.1057 288.996C51.4135 287.781 51.5755 287.121 51.5917 287.015C51.5998 286.975 51.6038 286.882 51.6038 286.736C51.6038 286.42 51.5066 286.262 51.3122 286.262C51.0044 286.262 50.7493 286.667 50.5468 287.477C50.4982 287.639 50.4739 287.724 50.4739 287.732C50.4577 287.781 50.3807 287.805 50.243 287.805H50.0729C50.0243 287.756 50 287.72 50 287.696Z" fill="black"/>
<rect x="473" y="202" width="32" height="32" fill="#121619"/>
<path d="M496 217.89L498.427 213.667L496.408 212.5L493.865 216.898C489.573 215.308 484.774 215.916 481.014 218.527C477.254 221.138 475.008 225.422 475 230H477.333C477.336 226.252 479.14 222.733 482.181 220.543C485.222 218.352 489.131 217.756 492.687 218.94L489 225.333C487.944 225.332 487.018 226.041 486.744 227.061C486.47 228.081 486.915 229.158 487.83 229.687C488.744 230.215 489.9 230.064 490.647 229.317C491.394 228.57 491.546 227.415 491.018 226.5L494.833 219.908C498.439 221.99 500.662 225.836 500.667 230H503C502.995 225.003 500.327 220.388 496 217.89Z" fill="white"/>
<rect x="473" y="237" width="32" height="32" fill="#121619"/>
<path d="M496 252.89L498.427 248.667L496.408 247.5L493.865 251.898C489.573 250.308 484.774 250.916 481.014 253.527C477.254 256.138 475.008 260.422 475 265H477.333C477.336 261.252 479.14 257.733 482.181 255.543C485.222 253.352 489.131 252.756 492.687 253.94L489 260.333C487.944 260.332 487.018 261.041 486.744 262.061C486.47 263.081 486.915 264.158 487.83 264.687C488.744 265.215 489.9 265.064 490.647 264.317C491.394 263.57 491.546 262.415 491.018 261.5L494.833 254.908C498.439 256.99 500.662 260.836 500.667 265H503C502.995 260.003 500.327 255.388 496 252.89Z" fill="white"/>
<rect x="473" y="272" width="32" height="32" fill="#121619"/>
<path d="M496 287.89L498.427 283.667L496.408 282.5L493.865 286.898C489.573 285.308 484.774 285.916 481.014 288.527C477.254 291.138 475.008 295.422 475 300H477.333C477.336 296.252 479.14 292.733 482.181 290.543C485.222 288.352 489.131 287.756 492.687 288.94L489 295.333C487.944 295.332 487.018 296.041 486.744 297.061C486.47 298.081 486.915 299.158 487.83 299.687C488.744 300.215 489.9 300.064 490.647 299.317C491.394 298.57 491.546 297.415 491.018 296.5L494.833 289.908C498.439 291.99 500.662 295.836 500.667 300H503C502.995 295.003 500.327 290.388 496 287.89Z" fill="white"/>
<rect x="473" y="307" width="32" height="32" fill="#121619"/>
<path d="M496 322.89L498.427 318.667L496.408 317.5L493.865 321.898C489.573 320.308 484.774 320.916 481.014 323.527C477.254 326.138 475.008 330.422 475 335H477.333C477.336 331.252 479.14 327.733 482.181 325.543C485.222 323.352 489.131 322.756 492.687 323.94L489 330.333C487.944 330.332 487.018 331.041 486.744 332.061C486.47 333.081 486.915 334.158 487.83 334.687C488.744 335.215 489.9 335.064 490.647 334.317C491.394 333.57 491.546 332.415 491.018 331.5L494.833 324.908C498.439 326.99 500.662 330.836 500.667 335H503C502.995 330.003 500.327 325.388 496 322.89Z" fill="white"/>
<rect x="473" y="342" width="32" height="32" fill="#121619"/>
<path d="M496 357.89L498.427 353.667L496.408 352.5L493.865 356.898C489.573 355.308 484.774 355.916 481.014 358.527C477.254 361.138 475.008 365.422 475 370H477.333C477.336 366.252 479.14 362.733 482.181 360.543C485.222 358.352 489.131 357.756 492.687 358.94L489 365.333C487.944 365.332 487.018 366.041 486.744 367.061C486.47 368.081 486.915 369.158 487.83 369.687C488.744 370.215 489.9 370.064 490.647 369.317C491.394 368.57 491.546 367.415 491.018 366.5L494.833 359.908C498.439 361.99 500.662 365.836 500.667 370H503C502.995 365.003 500.327 360.388 496 357.89Z" fill="white"/>
<path d="M867.5 197V79C867.5 76.2386 865.261 74 862.5 74H382.5C379.739 74 377.5 76.2386 377.5 79V141" stroke="#343A3F"/>
<path d="M379 168L377.5 172L376 168H379Z" fill="#343A3F"/>
<line y1="-0.5" x2="74" y2="-0.5" transform="matrix(-4.72557e-09 -1 -1 4.04332e-07 377 168)" stroke="#343A3F"/>
<path d="M379 168L377.5 172L376 168H379Z" fill="#343A3F"/>
<line y1="-0.5" x2="74" y2="-0.5" transform="matrix(-4.72557e-09 -1 -1 4.04332e-07 377 168)" stroke="#343A3F"/>
<path d="M377 406L378.5 402L380 406H377Z" fill="#343A3F"/>
<line y1="-0.5" x2="38" y2="-0.5" transform="matrix(9.20243e-09 1 1 -2.0763e-07 379 406)" stroke="#343A3F"/>
<path d="M191.56 316.966C191.687 316.44 191.744 316.412 192.298 316.412H193.321C194.543 316.412 195.452 316.781 195.452 317.889C195.452 318.614 195.082 320.702 192.227 320.702H190.622L191.56 316.966ZM193.534 320.872C195.295 320.489 196.673 319.352 196.673 318.131C196.673 317.023 195.551 316 193.577 316H189.727C189.443 316 189.315 316 189.315 316.27C189.315 316.412 189.415 316.412 189.685 316.412C190.537 316.412 190.537 316.526 190.537 316.682C190.537 316.71 190.537 316.795 190.48 317.009L188.562 324.651C188.435 325.148 188.406 325.29 187.426 325.29C187.099 325.29 187 325.29 187 325.56C187 325.702 187.156 325.702 187.199 325.702C187.455 325.702 187.753 325.673 188.023 325.673H189.699C189.955 325.673 190.253 325.702 190.509 325.702C190.622 325.702 190.778 325.702 190.778 325.432C190.778 325.29 190.651 325.29 190.438 325.29C189.571 325.29 189.571 325.176 189.571 325.034C189.571 325.02 189.571 324.92 189.599 324.807L190.551 320.986H192.256C193.605 320.986 193.861 321.838 193.861 322.307C193.861 322.52 193.719 323.074 193.619 323.443C193.463 324.097 193.42 324.253 193.42 324.523C193.42 325.531 194.244 326 195.196 326C196.347 326 196.844 324.594 196.844 324.395C196.844 324.295 196.773 324.253 196.688 324.253C196.574 324.253 196.545 324.338 196.517 324.452C196.176 325.46 195.594 325.716 195.239 325.716C194.884 325.716 194.656 325.56 194.656 324.92C194.656 324.58 194.827 323.287 194.841 323.216C194.912 322.69 194.912 322.634 194.912 322.52C194.912 321.483 194.074 321.043 193.534 320.872Z" fill="white"/>
<path d="M400.213 315.456C400.213 315.192 400.021 315 399.745 315C399.434 315 399.086 315.288 399.086 315.647C399.086 315.911 399.278 316.103 399.553 316.103C399.865 316.103 400.213 315.815 400.213 315.456ZM398.463 319.855L397.815 321.509C397.755 321.689 397.695 321.833 397.695 322.037C397.695 322.624 398.151 323.056 398.786 323.056C399.949 323.056 400.441 321.378 400.441 321.222C400.441 321.102 400.345 321.066 400.261 321.066C400.117 321.066 400.093 321.15 400.057 321.27C399.781 322.229 399.29 322.72 398.81 322.72C398.666 322.72 398.522 322.66 398.522 322.337C398.522 322.049 398.606 321.833 398.762 321.462C398.882 321.138 399.002 320.814 399.134 320.491L399.505 319.519C399.613 319.244 399.757 318.872 399.757 318.668C399.757 318.069 399.278 317.649 398.666 317.649C397.503 317.649 397 319.328 397 319.484C397 319.591 397.084 319.639 397.18 319.639C397.336 319.639 397.348 319.567 397.384 319.448C397.719 318.309 398.271 317.985 398.63 317.985C398.798 317.985 398.918 318.045 398.918 318.381C398.918 318.501 398.906 318.668 398.786 319.028L398.463 319.855Z" fill="white"/>
<path d="M386 322.832C386 322.769 386 322.727 385.626 322.371C383.423 320.252 382.189 316.79 382.189 312.51C382.189 308.441 383.225 304.937 385.78 302.462C386 302.273 386 302.231 386 302.168C386 302.042 385.89 302 385.802 302C385.515 302 383.709 303.51 382.63 305.566C381.507 307.685 381 309.93 381 312.51C381 314.378 381.308 316.874 382.454 319.119C383.753 321.636 385.559 323 385.802 323C385.89 323 386 322.958 386 322.832Z" fill="white"/>
<path d="M408 312.51C408 310.916 407.78 308.315 406.546 305.881C405.247 303.364 403.441 302 403.198 302C403.11 302 403 302.042 403 302.168C403 302.231 403 302.273 403.374 302.629C405.577 304.748 406.811 308.21 406.811 312.49C406.811 316.559 405.775 320.063 403.22 322.538C403 322.727 403 322.769 403 322.832C403 322.958 403.11 323 403.198 323C403.485 323 405.291 321.49 406.37 319.434C407.493 317.294 408 315.028 408 312.51Z" fill="white"/>
<path d="M364.708 315.156C363.613 319.531 359.982 322.094 357.04 322.094C354.787 322.094 353.253 320.594 353.253 318C353.253 317.875 353.253 316.938 353.598 315.563L356.665 303.281C356.946 302.219 357.009 301.906 359.231 301.906C359.794 301.906 360.107 301.906 360.107 301.344C360.107 301 359.826 301 359.638 301C359.075 301 358.417 301.063 357.823 301.063H354.13C353.535 301.063 352.878 301 352.283 301C352.064 301 351.689 301 351.689 301.594C351.689 301.906 351.908 301.906 352.502 301.906C354.38 301.906 354.38 302.156 354.38 302.5C354.38 302.687 354.161 303.594 354.004 304.125L351.282 315.062C351.188 315.406 351 316.25 351 317.094C351 320.531 353.472 323 356.884 323C360.045 323 363.55 320.5 365.146 316.531C365.365 316 365.647 314.906 365.835 314.062C366.148 312.937 366.805 310.188 367.024 309.375L368.213 304.687C368.62 303.062 368.87 302.031 371.624 301.906C371.875 301.875 372 301.625 372 301.344C372 301 371.718 301 371.593 301C371.155 301 370.592 301.063 370.153 301.063H368.683C366.742 301.063 365.741 301 365.709 301C365.522 301 365.146 301 365.146 301.594C365.146 301.906 365.396 301.906 365.615 301.906C367.493 301.969 367.618 302.687 367.618 303.25C367.618 303.531 367.618 303.625 367.493 304.063L364.708 315.156Z" fill="white"/>
<path d="M182.708 160.156C181.613 164.531 177.982 167.094 175.04 167.094C172.787 167.094 171.253 165.594 171.253 163C171.253 162.875 171.253 161.938 171.598 160.563L174.665 148.281C174.946 147.219 175.009 146.906 177.231 146.906C177.794 146.906 178.107 146.906 178.107 146.344C178.107 146 177.826 146 177.638 146C177.075 146 176.417 146.063 175.823 146.063H172.13C171.535 146.063 170.878 146 170.283 146C170.064 146 169.689 146 169.689 146.594C169.689 146.906 169.908 146.906 170.502 146.906C172.38 146.906 172.38 147.156 172.38 147.5C172.38 147.687 172.161 148.594 172.004 149.125L169.282 160.062C169.188 160.406 169 161.25 169 162.094C169 165.531 171.472 168 174.884 168C178.045 168 181.55 165.5 183.146 161.531C183.365 161 183.647 159.906 183.835 159.062C184.148 157.937 184.805 155.188 185.024 154.375L186.213 149.687C186.62 148.062 186.87 147.031 189.624 146.906C189.875 146.875 190 146.625 190 146.344C190 146 189.718 146 189.593 146C189.155 146 188.592 146.063 188.153 146.063H186.683C184.742 146.063 183.741 146 183.709 146C183.522 146 183.146 146 183.146 146.594C183.146 146.906 183.396 146.906 183.615 146.906C185.493 146.969 185.618 147.687 185.618 148.25C185.618 148.531 185.618 148.625 185.493 149.063L182.708 160.156Z" fill="black"/>
<path d="M124.652 167L121.236 157.228H119.738L116.322 167H117.512L118.492 164.116H122.44L123.42 167H124.652ZM122.146 163.08H118.772L120.424 158.32H120.494L122.146 163.08ZM127.439 167V161.988C127.439 161.064 128.307 160.616 129.203 160.616C130.281 160.616 130.841 161.274 130.841 162.562V167H131.961V162.366C131.961 160.616 131.023 159.608 129.539 159.608C128.461 159.608 127.845 160.14 127.495 160.952H127.439V159.776H126.319V167H127.439ZM136.606 167.168C138.258 167.168 139.28 166.314 139.28 164.914C139.28 163.822 138.664 163.122 137.068 162.884L136.508 162.8C135.612 162.66 135.122 162.38 135.122 161.68C135.122 160.994 135.612 160.56 136.536 160.56C137.46 160.56 138.076 160.994 138.398 161.442L139.14 160.77C138.552 160.042 137.782 159.608 136.62 159.608C135.15 159.608 134.044 160.308 134.044 161.736C134.044 163.08 135.038 163.626 136.368 163.822L136.942 163.906C137.894 164.046 138.202 164.48 138.202 165.04C138.202 165.782 137.642 166.216 136.69 166.216C135.78 166.216 135.108 165.81 134.548 165.11L133.75 165.754C134.394 166.608 135.276 167.168 136.606 167.168ZM147.298 167V166.02H146.472V162.044C146.472 160.518 145.436 159.608 143.7 159.608C142.398 159.608 141.53 160.252 141.138 161.022L141.81 161.652C142.202 160.994 142.776 160.574 143.644 160.574C144.792 160.574 145.352 161.134 145.352 162.156V162.87H143.924C141.824 162.87 140.844 163.626 140.844 164.984C140.844 166.328 141.74 167.168 143.266 167.168C144.274 167.168 145.044 166.706 145.352 165.824H145.422C145.506 166.496 145.842 167 146.668 167H147.298ZM143.448 166.216C142.58 166.216 142.02 165.81 142.02 165.096V164.802C142.02 164.102 142.594 163.71 143.868 163.71H145.352V164.9C145.352 165.642 144.554 166.216 143.448 166.216ZM152.053 167V166.02H150.583V160.756H152.165V159.776H150.583V157.774H149.575V159.118C149.575 159.608 149.421 159.776 148.945 159.776H148.273V160.756H149.463V165.81C149.463 166.51 149.883 167 150.653 167H152.053ZM158.969 167V166.02H154.671L158.857 160.616V159.776H153.523V160.756H157.499L153.397 166.062V167H158.969Z" fill="#121619"/>
<path d="M120.112 101.316H118.614V100.126C120.756 99.832 122.1 98.096 122.1 95.114C122.1 91.838 120.476 90.06 117.956 90.06C115.436 90.06 113.812 91.838 113.812 95.114C113.812 98.18 115.24 99.944 117.494 100.154V101.148C117.494 101.806 117.9 102.296 118.67 102.296H120.112V101.316ZM117.956 99.118C116.262 99.118 115.072 97.858 115.072 95.926V94.302C115.072 92.37 116.262 91.11 117.956 91.11C119.65 91.11 120.84 92.37 120.84 94.302V95.926C120.84 97.858 119.65 99.118 117.956 99.118ZM128.714 100H129.834V92.776H128.714V97.774C128.714 98.726 127.846 99.16 126.964 99.16C125.886 99.16 125.312 98.502 125.312 97.214V92.776H124.192V97.41C124.192 99.16 125.144 100.168 126.628 100.168C127.832 100.168 128.378 99.51 128.658 98.824H128.714V100ZM138.259 100V99.02H137.433V95.044C137.433 93.518 136.397 92.608 134.661 92.608C133.359 92.608 132.491 93.252 132.099 94.022L132.771 94.652C133.163 93.994 133.737 93.574 134.605 93.574C135.753 93.574 136.313 94.134 136.313 95.156V95.87H134.885C132.785 95.87 131.805 96.626 131.805 97.984C131.805 99.328 132.701 100.168 134.227 100.168C135.235 100.168 136.005 99.706 136.313 98.824H136.383C136.467 99.496 136.803 100 137.629 100H138.259ZM134.409 99.216C133.541 99.216 132.981 98.81 132.981 98.096V97.802C132.981 97.102 133.555 96.71 134.829 96.71H136.313V97.9C136.313 98.642 135.515 99.216 134.409 99.216ZM141.138 100V94.988C141.138 94.064 142.006 93.616 142.902 93.616C143.98 93.616 144.54 94.274 144.54 95.562V100H145.66V95.366C145.66 93.616 144.722 92.608 143.238 92.608C142.16 92.608 141.544 93.14 141.194 93.952H141.138V92.776H140.018V100H141.138ZM151.131 100V99.02H149.661V93.756H151.243V92.776H149.661V90.774H148.653V92.118C148.653 92.608 148.499 92.776 148.023 92.776H147.351V93.756H148.541V98.81C148.541 99.51 148.961 100 149.731 100H151.131ZM157.655 100H158.775V92.776H157.655V97.774C157.655 98.726 156.787 99.16 155.905 99.16C154.827 99.16 154.253 98.502 154.253 97.214V92.776H153.133V97.41C153.133 99.16 154.085 100.168 155.569 100.168C156.773 100.168 157.319 99.51 157.599 98.824H157.655V100ZM162.44 100V94.988C162.44 94.064 163.28 93.616 164.162 93.616C165.226 93.616 165.716 94.274 165.716 95.562V100H166.836V94.988C166.836 94.064 167.648 93.616 168.53 93.616C169.622 93.616 170.112 94.288 170.112 95.562V100H171.232V95.366C171.232 93.616 170.35 92.608 168.88 92.608C167.648 92.608 166.948 93.294 166.682 94.078H166.654C166.262 93.042 165.394 92.608 164.442 92.608C163.322 92.608 162.818 93.21 162.496 93.952H162.44V92.776H161.32V100H162.44Z" fill="#121619"/>
<path d="M596.746 168.168C598.37 168.168 599.56 167.314 600.176 165.942L599.238 165.354C598.846 166.418 597.992 167.118 596.746 167.118C595.066 167.118 594.072 165.9 594.072 163.898V162.442C594.072 160.44 595.066 159.11 596.746 159.11C597.95 159.11 598.762 159.768 599.154 160.776L600.106 160.202C599.49 158.844 598.37 158.06 596.746 158.06C594.282 158.06 592.812 159.908 592.812 163.17C592.812 166.432 594.282 168.168 596.746 168.168ZM604.229 168V167.02H603.165V157.64H602.045V166.838C602.045 167.51 602.465 168 603.235 168H604.229ZM611.9 168V167.02H611.074V163.044C611.074 161.518 610.038 160.608 608.302 160.608C607 160.608 606.132 161.252 605.74 162.022L606.412 162.652C606.804 161.994 607.378 161.574 608.246 161.574C609.394 161.574 609.954 162.134 609.954 163.156V163.87H608.526C606.426 163.87 605.446 164.626 605.446 165.984C605.446 167.328 606.342 168.168 607.868 168.168C608.876 168.168 609.646 167.706 609.954 166.824H610.024C610.108 167.496 610.444 168 611.27 168H611.9ZM608.05 167.216C607.182 167.216 606.622 166.81 606.622 166.096V165.802C606.622 165.102 607.196 164.71 608.47 164.71H609.954V165.9C609.954 166.642 609.156 167.216 608.05 167.216ZM615.828 168.168C617.48 168.168 618.502 167.314 618.502 165.914C618.502 164.822 617.886 164.122 616.29 163.884L615.73 163.8C614.834 163.66 614.344 163.38 614.344 162.68C614.344 161.994 614.834 161.56 615.758 161.56C616.682 161.56 617.298 161.994 617.62 162.442L618.362 161.77C617.774 161.042 617.004 160.608 615.842 160.608C614.372 160.608 613.266 161.308 613.266 162.736C613.266 164.08 614.26 164.626 615.59 164.822L616.164 164.906C617.116 165.046 617.424 165.48 617.424 166.04C617.424 166.782 616.864 167.216 615.912 167.216C615.002 167.216 614.33 166.81 613.77 166.11L612.972 166.754C613.616 167.608 614.498 168.168 615.828 168.168ZM622.729 168.168C624.381 168.168 625.403 167.314 625.403 165.914C625.403 164.822 624.787 164.122 623.191 163.884L622.631 163.8C621.735 163.66 621.245 163.38 621.245 162.68C621.245 161.994 621.735 161.56 622.659 161.56C623.583 161.56 624.199 161.994 624.521 162.442L625.263 161.77C624.675 161.042 623.905 160.608 622.743 160.608C621.273 160.608 620.167 161.308 620.167 162.736C620.167 164.08 621.161 164.626 622.491 164.822L623.065 164.906C624.017 165.046 624.325 165.48 624.325 166.04C624.325 166.782 623.765 167.216 622.813 167.216C621.903 167.216 621.231 166.81 620.671 166.11L619.873 166.754C620.517 167.608 621.399 168.168 622.729 168.168ZM628.101 159.082C628.577 159.082 628.787 158.83 628.787 158.452V158.27C628.787 157.892 628.577 157.64 628.101 157.64C627.625 157.64 627.415 157.892 627.415 158.27V158.452C627.415 158.83 627.625 159.082 628.101 159.082ZM627.541 168H628.661V160.776H627.541V168ZM633.889 168.168C635.261 168.168 636.199 167.496 636.661 166.46L635.849 165.914C635.457 166.74 634.799 167.174 633.889 167.174C632.559 167.174 631.873 166.264 631.873 165.004V163.772C631.873 162.512 632.559 161.602 633.889 161.602C634.771 161.602 635.387 162.036 635.653 162.778L636.591 162.302C636.171 161.308 635.317 160.608 633.889 160.608C631.859 160.608 630.669 162.078 630.669 164.388C630.669 166.698 631.859 168.168 633.889 168.168ZM644.282 168V167.02H643.456V163.044C643.456 161.518 642.42 160.608 640.684 160.608C639.382 160.608 638.514 161.252 638.122 162.022L638.794 162.652C639.186 161.994 639.76 161.574 640.628 161.574C641.776 161.574 642.336 162.134 642.336 163.156V163.87H640.908C638.808 163.87 637.828 164.626 637.828 165.984C637.828 167.328 638.724 168.168 640.25 168.168C641.258 168.168 642.028 167.706 642.336 166.824H642.406C642.49 167.496 642.826 168 643.652 168H644.282ZM640.432 167.216C639.564 167.216 639.004 166.81 639.004 166.096V165.802C639.004 165.102 639.578 164.71 640.852 164.71H642.336V165.9C642.336 166.642 641.538 167.216 640.432 167.216ZM648.224 168V167.02H647.16V157.64H646.04V166.838C646.04 167.51 646.46 168 647.23 168H648.224Z" fill="#121619"/>
<path d="M343.302 463H347.74C349.182 463 350.26 461.782 350.26 460.172C350.26 458.548 349.042 457.946 348.342 457.904V457.82C348.986 457.722 349.924 457.204 349.924 455.748C349.924 454.222 348.93 453.228 347.32 453.228H343.302V463ZM344.478 458.464H347.376C348.384 458.464 349 458.996 349 459.976V460.452C349 461.432 348.384 461.964 347.376 461.964H344.478V458.464ZM344.478 454.264H347.18C348.104 454.264 348.664 454.754 348.664 455.622V456.098C348.664 456.966 348.104 457.456 347.18 457.456H344.478V454.264ZM355.226 463.168C357.158 463.168 358.488 461.684 358.488 459.388C358.488 457.092 357.158 455.608 355.226 455.608C353.294 455.608 351.964 457.092 351.964 459.388C351.964 461.684 353.294 463.168 355.226 463.168ZM355.226 462.174C354.022 462.174 353.168 461.432 353.168 459.906V458.87C353.168 457.344 354.022 456.602 355.226 456.602C356.43 456.602 357.284 457.344 357.284 458.87V459.906C357.284 461.432 356.43 462.174 355.226 462.174ZM363.22 463.168C365.152 463.168 366.482 461.684 366.482 459.388C366.482 457.092 365.152 455.608 363.22 455.608C361.288 455.608 359.958 457.092 359.958 459.388C359.958 461.684 361.288 463.168 363.22 463.168ZM363.22 462.174C362.016 462.174 361.162 461.432 361.162 459.906V458.87C361.162 457.344 362.016 456.602 363.22 456.602C364.424 456.602 365.278 457.344 365.278 458.87V459.906C365.278 461.432 364.424 462.174 363.22 462.174ZM371.48 463V462.02H370.01V456.756H371.592V455.776H370.01V453.774H369.002V455.118C369.002 455.608 368.848 455.776 368.372 455.776H367.7V456.756H368.89V461.81C368.89 462.51 369.31 463 370.08 463H371.48ZM375.723 463.168C377.375 463.168 378.397 462.314 378.397 460.914C378.397 459.822 377.781 459.122 376.185 458.884L375.625 458.8C374.729 458.66 374.239 458.38 374.239 457.68C374.239 456.994 374.729 456.56 375.653 456.56C376.577 456.56 377.193 456.994 377.515 457.442L378.257 456.77C377.669 456.042 376.899 455.608 375.737 455.608C374.267 455.608 373.161 456.308 373.161 457.736C373.161 459.08 374.155 459.626 375.485 459.822L376.059 459.906C377.011 460.046 377.319 460.48 377.319 461.04C377.319 461.782 376.759 462.216 375.807 462.216C374.897 462.216 374.225 461.81 373.665 461.11L372.867 461.754C373.511 462.608 374.393 463.168 375.723 463.168ZM383.435 463V462.02H381.965V456.756H383.547V455.776H381.965V453.774H380.957V455.118C380.957 455.608 380.803 455.776 380.327 455.776H379.655V456.756H380.845V461.81C380.845 462.51 381.265 463 382.035 463H383.435ZM386.627 463V458.1C386.627 457.414 387.355 456.896 388.559 456.896H389.217V455.776H388.783C387.607 455.776 386.949 456.42 386.697 457.106H386.627V455.776H385.507V463H386.627ZM396.633 463V462.02H395.807V458.044C395.807 456.518 394.771 455.608 393.035 455.608C391.733 455.608 390.865 456.252 390.473 457.022L391.145 457.652C391.537 456.994 392.111 456.574 392.979 456.574C394.127 456.574 394.687 457.134 394.687 458.156V458.87H393.259C391.159 458.87 390.179 459.626 390.179 460.984C390.179 462.328 391.075 463.168 392.601 463.168C393.609 463.168 394.379 462.706 394.687 461.824H394.757C394.841 462.496 395.177 463 396.003 463H396.633ZM392.783 462.216C391.915 462.216 391.355 461.81 391.355 461.096V460.802C391.355 460.102 391.929 459.71 393.203 459.71H394.687V460.9C394.687 461.642 393.889 462.216 392.783 462.216ZM398.392 465.8H399.512V461.824H399.568C400.002 462.72 400.688 463.168 401.682 463.168C403.488 463.168 404.622 461.698 404.622 459.388C404.622 457.078 403.488 455.608 401.682 455.608C400.688 455.608 399.946 456.042 399.568 456.952H399.512V455.776H398.392V465.8ZM401.374 462.16C400.352 462.16 399.512 461.628 399.512 460.69V458.002C399.512 457.204 400.352 456.616 401.374 456.616C402.634 456.616 403.418 457.484 403.418 458.772V460.004C403.418 461.292 402.634 462.16 401.374 462.16ZM407.527 463.168C408.115 463.168 408.381 462.832 408.381 462.356V462.174C408.381 461.698 408.115 461.362 407.527 461.362C406.939 461.362 406.673 461.698 406.673 462.174V462.356C406.673 462.832 406.939 463.168 407.527 463.168ZM407.527 457.414C408.115 457.414 408.381 457.078 408.381 456.602V456.42C408.381 455.944 408.115 455.608 407.527 455.608C406.939 455.608 406.673 455.944 406.673 456.42V456.602C406.673 457.078 406.939 457.414 407.527 457.414Z" fill="#121619"/>
<path d="M375.769 318.526C376.237 317.784 376.663 317.454 377.364 317.399C377.502 317.385 377.612 317.385 377.612 317.138C377.612 317.083 377.585 317 377.461 317C377.213 317 376.622 317.028 376.374 317.028C375.976 317.028 375.563 317 375.178 317C375.068 317 374.931 317 374.931 317.261C374.931 317.385 375.054 317.399 375.109 317.399C375.618 317.44 375.673 317.688 375.673 317.853C375.673 318.059 375.481 318.375 375.467 318.389L371.149 325.237L370.186 317.825C370.186 317.426 370.901 317.399 371.053 317.399C371.259 317.399 371.383 317.399 371.383 317.138C371.383 317 371.232 317 371.19 317C370.956 317 370.681 317.028 370.448 317.028H369.678C368.674 317.028 368.261 317 368.248 317C368.165 317 368 317 368 317.248C368 317.399 368.096 317.399 368.316 317.399C369.018 317.399 369.059 317.523 369.1 317.866L370.2 326.351C370.241 326.64 370.241 326.681 370.434 326.681C370.599 326.681 370.668 326.64 370.805 326.419L375.769 318.526Z" fill="white"/>
<path d="M185.619 165.179C185.202 165.881 184.798 166.119 184.226 166.155C184.095 166.167 184 166.167 184 166.381C184 166.452 184.06 166.5 184.143 166.5C184.357 166.5 184.893 166.476 185.107 166.476C185.452 166.476 185.833 166.5 186.167 166.5C186.238 166.5 186.381 166.5 186.381 166.274C186.381 166.167 186.286 166.155 186.214 166.155C185.94 166.131 185.714 166.036 185.714 165.75C185.714 165.583 185.786 165.452 185.94 165.19L186.845 163.69H189.881C189.893 163.798 189.893 163.893 189.905 164C189.94 164.31 190.083 165.548 190.083 165.774C190.083 166.131 189.476 166.155 189.286 166.155C189.155 166.155 189.024 166.155 189.024 166.369C189.024 166.5 189.131 166.5 189.202 166.5C189.405 166.5 189.643 166.476 189.845 166.476H190.524C191.25 166.476 191.774 166.5 191.786 166.5C191.869 166.5 192 166.5 192 166.274C192 166.155 191.893 166.155 191.714 166.155C191.06 166.155 191.048 166.048 191.012 165.69L190.286 158.262C190.262 158.024 190.214 158 190.083 158C189.964 158 189.893 158.024 189.786 158.202L185.619 165.179ZM187.048 163.345L189.44 159.345L189.845 163.345H187.048Z" fill="black"/>
<line x1="505" y1="215.5" x2="701" y2="215.5" stroke="black"/>
<line x1="505" y1="219.5" x2="701" y2="219.5" stroke="black"/>
<line x1="505" y1="250.5" x2="701" y2="250.5" stroke="black"/>
<line x1="505" y1="254.5" x2="701" y2="254.5" stroke="black"/>
<line x1="505" y1="285.5" x2="701" y2="285.5" stroke="black"/>
<line x1="505" y1="289.5" x2="701" y2="289.5" stroke="black"/>
<line x1="726" y1="285.5" x2="755" y2="285.5" stroke="black"/>
<line x1="726" y1="289.5" x2="755" y2="289.5" stroke="black"/>
<line x1="504" y1="320.5" x2="700" y2="320.5" stroke="black"/>
<line x1="504" y1="324.5" x2="700" y2="324.5" stroke="black"/>
<line x1="504" y1="355.5" x2="700" y2="355.5" stroke="black"/>
<line x1="504" y1="359.5" x2="700" y2="359.5" stroke="black"/>
<rect width="134" height="185" transform="translate(592 197)" fill="#4D5358"/>
<path d="M647.19 257.168C648.814 257.168 650.004 256.314 650.62 254.942L649.682 254.354C649.29 255.418 648.436 256.118 647.19 256.118C645.51 256.118 644.516 254.9 644.516 252.898V251.442C644.516 249.44 645.51 248.11 647.19 248.11C648.394 248.11 649.206 248.768 649.598 249.776L650.55 249.202C649.934 247.844 648.814 247.06 647.19 247.06C644.726 247.06 643.256 248.908 643.256 252.17C643.256 255.432 644.726 257.168 647.19 257.168ZM655.219 257.168C657.151 257.168 658.481 255.684 658.481 253.388C658.481 251.092 657.151 249.608 655.219 249.608C653.287 249.608 651.957 251.092 651.957 253.388C651.957 255.684 653.287 257.168 655.219 257.168ZM655.219 256.174C654.015 256.174 653.161 255.432 653.161 253.906V252.87C653.161 251.344 654.015 250.602 655.219 250.602C656.423 250.602 657.277 251.344 657.277 252.87V253.906C657.277 255.432 656.423 256.174 655.219 256.174ZM662.653 257.168C664.305 257.168 665.327 256.314 665.327 254.914C665.327 253.822 664.711 253.122 663.115 252.884L662.555 252.8C661.659 252.66 661.169 252.38 661.169 251.68C661.169 250.994 661.659 250.56 662.583 250.56C663.507 250.56 664.123 250.994 664.445 251.442L665.187 250.77C664.599 250.042 663.829 249.608 662.667 249.608C661.197 249.608 660.091 250.308 660.091 251.736C660.091 253.08 661.085 253.626 662.415 253.822L662.989 253.906C663.941 254.046 664.249 254.48 664.249 255.04C664.249 255.782 663.689 256.216 662.737 256.216C661.827 256.216 661.155 255.81 660.595 255.11L659.797 255.754C660.441 256.608 661.323 257.168 662.653 257.168ZM670.366 257V256.02H668.896V250.756H670.478V249.776H668.896V247.774H667.888V249.118C667.888 249.608 667.734 249.776 667.258 249.776H666.586V250.756H667.776V255.81C667.776 256.51 668.196 257 668.966 257H670.366ZM633.108 277V272.576H637.35V271.54H633.108V268.264H637.756V267.228H631.932V277H633.108ZM643.897 277H645.017V269.776H643.897V274.774C643.897 275.726 643.029 276.16 642.147 276.16C641.069 276.16 640.495 275.502 640.495 274.214V269.776H639.375V274.41C639.375 276.16 640.327 277.168 641.811 277.168C643.015 277.168 643.561 276.51 643.841 275.824H643.897V277ZM648.682 277V271.988C648.682 271.064 649.55 270.616 650.446 270.616C651.524 270.616 652.084 271.274 652.084 272.562V277H653.204V272.366C653.204 270.616 652.266 269.608 650.782 269.608C649.704 269.608 649.088 270.14 648.738 270.952H648.682V269.776H647.562V277H648.682ZM658.367 277.168C659.739 277.168 660.677 276.496 661.139 275.46L660.327 274.914C659.935 275.74 659.277 276.174 658.367 276.174C657.037 276.174 656.351 275.264 656.351 274.004V272.772C656.351 271.512 657.037 270.602 658.367 270.602C659.249 270.602 659.865 271.036 660.131 271.778L661.069 271.302C660.649 270.308 659.795 269.608 658.367 269.608C656.337 269.608 655.147 271.078 655.147 273.388C655.147 275.698 656.337 277.168 658.367 277.168ZM665.876 277V276.02H664.406V270.756H665.988V269.776H664.406V267.774H663.398V269.118C663.398 269.608 663.244 269.776 662.768 269.776H662.096V270.756H663.286V275.81C663.286 276.51 663.706 277 664.476 277H665.876ZM668.509 268.082C668.985 268.082 669.195 267.83 669.195 267.452V267.27C669.195 266.892 668.985 266.64 668.509 266.64C668.033 266.64 667.823 266.892 667.823 267.27V267.452C667.823 267.83 668.033 268.082 668.509 268.082ZM667.949 277H669.069V269.776H667.949V277ZM674.339 277.168C676.271 277.168 677.601 275.684 677.601 273.388C677.601 271.092 676.271 269.608 674.339 269.608C672.407 269.608 671.077 271.092 671.077 273.388C671.077 275.684 672.407 277.168 674.339 277.168ZM674.339 276.174C673.135 276.174 672.281 275.432 672.281 273.906V272.87C672.281 271.344 673.135 270.602 674.339 270.602C675.543 270.602 676.397 271.344 676.397 272.87V273.906C676.397 275.432 675.543 276.174 674.339 276.174ZM680.723 277V271.988C680.723 271.064 681.591 270.616 682.487 270.616C683.565 270.616 684.125 271.274 684.125 272.562V277H685.245V272.366C685.245 270.616 684.307 269.608 682.823 269.608C681.745 269.608 681.129 270.14 680.779 270.952H680.723V269.776H679.603V277H680.723Z" fill="white"/>
<rect width="231" height="185" transform="translate(755 197)" fill="#4D5358"/>
<path d="M834.449 291.168C836.969 291.168 838.593 289.39 838.593 286.114C838.593 282.838 836.969 281.06 834.449 281.06C831.929 281.06 830.305 282.838 830.305 286.114C830.305 289.39 831.929 291.168 834.449 291.168ZM834.449 290.118C832.755 290.118 831.565 288.858 831.565 286.926V285.302C831.565 283.37 832.755 282.11 834.449 282.11C836.143 282.11 837.333 283.37 837.333 285.302V286.926C837.333 288.858 836.143 290.118 834.449 290.118ZM840.755 293.8H841.875V289.824H841.931C842.365 290.72 843.051 291.168 844.045 291.168C845.851 291.168 846.985 289.698 846.985 287.388C846.985 285.078 845.851 283.608 844.045 283.608C843.051 283.608 842.309 284.042 841.931 284.952H841.875V283.776H840.755V293.8ZM843.737 290.16C842.715 290.16 841.875 289.628 841.875 288.69V286.002C841.875 285.204 842.715 284.616 843.737 284.616C844.997 284.616 845.781 285.484 845.781 286.772V288.004C845.781 289.292 844.997 290.16 843.737 290.16ZM851.95 291V290.02H850.48V284.756H852.062V283.776H850.48V281.774H849.472V283.118C849.472 283.608 849.318 283.776 848.842 283.776H848.17V284.756H849.36V289.81C849.36 290.51 849.78 291 850.55 291H851.95ZM854.582 282.082C855.058 282.082 855.268 281.83 855.268 281.452V281.27C855.268 280.892 855.058 280.64 854.582 280.64C854.106 280.64 853.896 280.892 853.896 281.27V281.452C853.896 281.83 854.106 282.082 854.582 282.082ZM854.022 291H855.142V283.776H854.022V291ZM858.802 291V285.988C858.802 285.064 859.642 284.616 860.524 284.616C861.588 284.616 862.078 285.274 862.078 286.562V291H863.198V285.988C863.198 285.064 864.01 284.616 864.892 284.616C865.984 284.616 866.474 285.288 866.474 286.562V291H867.594V286.366C867.594 284.616 866.712 283.608 865.242 283.608C864.01 283.608 863.31 284.294 863.044 285.078H863.016C862.624 284.042 861.756 283.608 860.804 283.608C859.684 283.608 859.18 284.21 858.858 284.952H858.802V283.776H857.682V291H858.802ZM870.625 282.082C871.101 282.082 871.311 281.83 871.311 281.452V281.27C871.311 280.892 871.101 280.64 870.625 280.64C870.149 280.64 869.939 280.892 869.939 281.27V281.452C869.939 281.83 870.149 282.082 870.625 282.082ZM870.065 291H871.185V283.776H870.065V291ZM878.569 291V290.02H874.271L878.457 284.616V283.776H873.123V284.756H877.099L872.997 290.062V291H878.569ZM886.259 291V290.02H885.433V286.044C885.433 284.518 884.397 283.608 882.661 283.608C881.359 283.608 880.491 284.252 880.099 285.022L880.771 285.652C881.163 284.994 881.737 284.574 882.605 284.574C883.753 284.574 884.313 285.134 884.313 286.156V286.87H882.885C880.785 286.87 879.805 287.626 879.805 288.984C879.805 290.328 880.701 291.168 882.227 291.168C883.235 291.168 884.005 290.706 884.313 289.824H884.383C884.467 290.496 884.803 291 885.629 291H886.259ZM882.409 290.216C881.541 290.216 880.981 289.81 880.981 289.096V288.802C880.981 288.102 881.555 287.71 882.829 287.71H884.313V288.9C884.313 289.642 883.515 290.216 882.409 290.216ZM891.014 291V290.02H889.544V284.756H891.126V283.776H889.544V281.774H888.536V283.118C888.536 283.608 888.382 283.776 887.906 283.776H887.234V284.756H888.424V289.81C888.424 290.51 888.844 291 889.614 291H891.014ZM893.646 282.082C894.122 282.082 894.332 281.83 894.332 281.452V281.27C894.332 280.892 894.122 280.64 893.646 280.64C893.17 280.64 892.96 280.892 892.96 281.27V281.452C892.96 281.83 893.17 282.082 893.646 282.082ZM893.086 291H894.206V283.776H893.086V291ZM899.476 291.168C901.408 291.168 902.738 289.684 902.738 287.388C902.738 285.092 901.408 283.608 899.476 283.608C897.544 283.608 896.214 285.092 896.214 287.388C896.214 289.684 897.544 291.168 899.476 291.168ZM899.476 290.174C898.272 290.174 897.418 289.432 897.418 287.906V286.87C897.418 285.344 898.272 284.602 899.476 284.602C900.68 284.602 901.534 285.344 901.534 286.87V287.906C901.534 289.432 900.68 290.174 899.476 290.174ZM905.86 291V285.988C905.86 285.064 906.728 284.616 907.624 284.616C908.702 284.616 909.262 285.274 909.262 286.562V291H910.382V286.366C910.382 284.616 909.444 283.608 907.96 283.608C906.882 283.608 906.266 284.14 905.916 284.952H905.86V283.776H904.74V291H905.86Z" fill="white"/>
<path d="M676 308.504C676 306.218 675.285 304 673.454 304C670.328 304 667 310.566 667 315.496C667 316.527 667.223 320 669.568 320C672.605 320 676 313.591 676 308.504ZM669.233 311.664C669.568 310.342 670.037 308.459 670.931 306.868C671.667 305.524 672.449 304.448 673.432 304.448C674.169 304.448 674.66 305.076 674.66 307.227C674.66 308.034 674.593 309.154 673.945 311.664H669.233ZM673.789 312.336C673.231 314.532 672.762 315.944 671.958 317.356C671.31 318.499 670.529 319.552 669.591 319.552C668.898 319.552 668.34 319.014 668.34 316.796C668.34 315.339 668.697 313.815 669.055 312.336H673.789Z" fill="white"/>
<path d="M678.213 315.456C678.213 315.192 678.021 315 677.745 315C677.434 315 677.086 315.288 677.086 315.647C677.086 315.911 677.278 316.103 677.553 316.103C677.865 316.103 678.213 315.815 678.213 315.456ZM676.463 319.855L675.815 321.509C675.755 321.689 675.695 321.833 675.695 322.037C675.695 322.624 676.151 323.056 676.786 323.056C677.949 323.056 678.441 321.378 678.441 321.222C678.441 321.102 678.345 321.066 678.261 321.066C678.117 321.066 678.093 321.15 678.057 321.27C677.781 322.229 677.29 322.72 676.81 322.72C676.666 322.72 676.522 322.66 676.522 322.337C676.522 322.049 676.606 321.833 676.762 321.462C676.882 321.138 677.002 320.814 677.134 320.491L677.505 319.519C677.613 319.244 677.757 318.872 677.757 318.668C677.757 318.069 677.278 317.649 676.666 317.649C675.503 317.649 675 319.328 675 319.484C675 319.591 675.084 319.639 675.18 319.639C675.336 319.639 675.348 319.567 675.384 319.448C675.719 318.309 676.271 317.985 676.63 317.985C676.798 317.985 676.918 318.045 676.918 318.381C676.918 318.501 676.906 318.668 676.786 319.028L676.463 319.855Z" fill="white"/>
<path d="M748.213 51.4555C748.213 51.1918 748.021 51 747.745 51C747.434 51 747.086 51.2877 747.086 51.6474C747.086 51.9111 747.278 52.1029 747.553 52.1029C747.865 52.1029 748.213 51.8152 748.213 51.4555ZM746.463 55.8551L745.815 57.5095C745.755 57.6893 745.695 57.8332 745.695 58.037C745.695 58.6244 746.151 59.0559 746.786 59.0559C747.949 59.0559 748.441 57.3776 748.441 57.2218C748.441 57.1019 748.345 57.0659 748.261 57.0659C748.117 57.0659 748.093 57.1498 748.057 57.2697C747.781 58.2288 747.29 58.7203 746.81 58.7203C746.666 58.7203 746.522 58.6603 746.522 58.3367C746.522 58.049 746.606 57.8332 746.762 57.4615C746.882 57.1379 747.002 56.8142 747.134 56.4905L747.505 55.5195C747.613 55.2438 747.757 54.8721 747.757 54.6683C747.757 54.0689 747.278 53.6494 746.666 53.6494C745.503 53.6494 745 55.3277 745 55.4835C745 55.5914 745.084 55.6394 745.18 55.6394C745.336 55.6394 745.348 55.5674 745.384 55.4476C745.719 54.3087 746.271 53.985 746.63 53.985C746.798 53.985 746.918 54.045 746.918 54.3806C746.918 54.5005 746.906 54.6683 746.786 55.028L746.463 55.8551Z" fill="black"/>
<path d="M664 322.832C664 322.769 664 322.727 663.626 322.371C661.423 320.252 660.189 316.79 660.189 312.51C660.189 308.441 661.225 304.937 663.78 302.462C664 302.273 664 302.231 664 302.168C664 302.042 663.89 302 663.802 302C663.515 302 661.709 303.51 660.63 305.566C659.507 307.685 659 309.93 659 312.51C659 314.378 659.308 316.874 660.454 319.119C661.753 321.636 663.559 323 663.802 323C663.89 323 664 322.958 664 322.832Z" fill="white"/>
<path d="M686 312.51C686 310.916 685.78 308.315 684.546 305.881C683.247 303.364 681.441 302 681.198 302C681.11 302 681 302.042 681 302.168C681 302.231 681 302.273 681.374 302.629C683.577 304.748 684.811 308.21 684.811 312.49C684.811 316.559 683.775 320.063 681.22 322.538C681 322.727 681 322.769 681 322.832C681 322.958 681.11 323 681.198 323C681.485 323 683.291 321.49 684.37 319.434C685.493 317.294 686 315.028 686 312.51Z" fill="white"/>
<line x1="734.595" y1="296.707" x2="747.595" y2="278.707" stroke="black"/>
<path d="M423 454.504C423 452.218 422.285 450 420.454 450C417.328 450 414 456.566 414 461.496C414 462.527 414.223 466 416.568 466C419.605 466 423 459.591 423 454.504ZM416.233 457.664C416.568 456.342 417.037 454.459 417.931 452.868C418.667 451.524 419.449 450.448 420.432 450.448C421.169 450.448 421.66 451.076 421.66 453.227C421.66 454.034 421.593 455.154 420.945 457.664H416.233ZM420.789 458.336C420.231 460.532 419.762 461.944 418.958 463.356C418.31 464.499 417.529 465.552 416.591 465.552C415.898 465.552 415.34 465.014 415.34 462.796C415.34 461.339 415.697 459.815 416.055 458.336H420.789Z" fill="black"/>
<path d="M424.4 468.096C425.736 468.096 426.32 467.032 426.32 465.208C426.32 463.384 425.736 462.32 424.4 462.32C423.064 462.32 422.48 463.384 422.48 465.208C422.48 467.032 423.064 468.096 424.4 468.096ZM424.4 467.512C423.528 467.512 423.184 466.744 423.184 465.664V464.752C423.184 463.672 423.528 462.904 424.4 462.904C425.272 462.904 425.616 463.672 425.616 464.752V465.664C425.616 466.744 425.272 467.512 424.4 467.512Z" fill="black"/>
<path d="M463.652 61L460.236 51.228H458.738L455.322 61H456.512L457.492 58.116H461.44L462.42 61H463.652ZM461.146 57.08H457.772L459.424 52.32H459.494L461.146 57.08ZM469.939 61H471.059V50.64H469.939V54.952H469.883C469.505 54.042 468.763 53.608 467.769 53.608C465.963 53.608 464.829 55.078 464.829 57.388C464.829 59.698 465.963 61.168 467.769 61.168C468.763 61.168 469.449 60.72 469.883 59.824H469.939V61ZM468.077 60.16C466.817 60.16 466.033 59.292 466.033 58.004V56.772C466.033 55.484 466.817 54.616 468.077 54.616C469.099 54.616 469.939 55.204 469.939 56.002V58.69C469.939 59.628 469.099 60.16 468.077 60.16ZM473.6 62.82H472.424V63.8H473.152C474.23 63.8 474.72 63.114 474.72 62.12V53.776H473.6V62.82ZM474.16 52.082C474.636 52.082 474.846 51.83 474.846 51.452V51.27C474.846 50.892 474.636 50.64 474.16 50.64C473.684 50.64 473.474 50.892 473.474 51.27V51.452C473.474 51.83 473.684 52.082 474.16 52.082ZM481.712 61H482.832V53.776H481.712V58.774C481.712 59.726 480.844 60.16 479.962 60.16C478.884 60.16 478.31 59.502 478.31 58.214V53.776H477.19V58.41C477.19 60.16 478.142 61.168 479.626 61.168C480.83 61.168 481.376 60.51 481.656 59.824H481.712V61ZM487.547 61.168C489.199 61.168 490.221 60.314 490.221 58.914C490.221 57.822 489.605 57.122 488.009 56.884L487.449 56.8C486.553 56.66 486.063 56.38 486.063 55.68C486.063 54.994 486.553 54.56 487.477 54.56C488.401 54.56 489.017 54.994 489.339 55.442L490.081 54.77C489.493 54.042 488.723 53.608 487.561 53.608C486.091 53.608 484.985 54.308 484.985 55.736C484.985 57.08 485.979 57.626 487.309 57.822L487.883 57.906C488.835 58.046 489.143 58.48 489.143 59.04C489.143 59.782 488.583 60.216 487.631 60.216C486.721 60.216 486.049 59.81 485.489 59.11L484.691 59.754C485.335 60.608 486.217 61.168 487.547 61.168ZM495.259 61V60.02H493.789V54.756H495.371V53.776H493.789V51.774H492.781V53.118C492.781 53.608 492.627 53.776 492.151 53.776H491.479V54.756H492.669V59.81C492.669 60.51 493.089 61 493.859 61H495.259ZM500.8 63.8H501.92V59.824H501.976C502.41 60.72 503.096 61.168 504.09 61.168C505.896 61.168 507.03 59.698 507.03 57.388C507.03 55.078 505.896 53.608 504.09 53.608C503.096 53.608 502.354 54.042 501.976 54.952H501.92V53.776H500.8V63.8ZM503.782 60.16C502.76 60.16 501.92 59.628 501.92 58.69V56.002C501.92 55.204 502.76 54.616 503.782 54.616C505.042 54.616 505.826 55.484 505.826 56.772V58.004C505.826 59.292 505.042 60.16 503.782 60.16ZM514.961 61V60.02H514.135V56.044C514.135 54.518 513.099 53.608 511.363 53.608C510.061 53.608 509.193 54.252 508.801 55.022L509.473 55.652C509.865 54.994 510.439 54.574 511.307 54.574C512.455 54.574 513.015 55.134 513.015 56.156V56.87H511.587C509.487 56.87 508.507 57.626 508.507 58.984C508.507 60.328 509.403 61.168 510.929 61.168C511.937 61.168 512.707 60.706 513.015 59.824H513.085C513.169 60.496 513.505 61 514.331 61H514.961ZM511.111 60.216C510.243 60.216 509.683 59.81 509.683 59.096V58.802C509.683 58.102 510.257 57.71 511.531 57.71H513.015V58.9C513.015 59.642 512.217 60.216 511.111 60.216ZM517.84 61V56.1C517.84 55.414 518.568 54.896 519.772 54.896H520.43V53.776H519.996C518.82 53.776 518.162 54.42 517.91 55.106H517.84V53.776H516.72V61H517.84ZM527.846 61V60.02H527.02V56.044C527.02 54.518 525.984 53.608 524.248 53.608C522.946 53.608 522.078 54.252 521.686 55.022L522.358 55.652C522.75 54.994 523.324 54.574 524.192 54.574C525.34 54.574 525.9 55.134 525.9 56.156V56.87H524.472C522.372 56.87 521.392 57.626 521.392 58.984C521.392 60.328 522.288 61.168 523.814 61.168C524.822 61.168 525.592 60.706 525.9 59.824H525.97C526.054 60.496 526.39 61 527.216 61H527.846ZM523.996 60.216C523.128 60.216 522.568 59.81 522.568 59.096V58.802C522.568 58.102 523.142 57.71 524.416 57.71H525.9V58.9C525.9 59.642 525.102 60.216 523.996 60.216ZM530.724 61V55.988C530.724 55.064 531.564 54.616 532.446 54.616C533.51 54.616 534 55.274 534 56.562V61H535.12V55.988C535.12 55.064 535.932 54.616 536.814 54.616C537.906 54.616 538.396 55.288 538.396 56.562V61H539.516V56.366C539.516 54.616 538.634 53.608 537.164 53.608C535.932 53.608 535.232 54.294 534.966 55.078H534.938C534.546 54.042 533.678 53.608 532.726 53.608C531.606 53.608 531.102 54.21 530.78 54.952H530.724V53.776H529.604V61H530.724ZM544.703 61.168C546.061 61.168 547.097 60.496 547.559 59.516L546.761 58.942C546.383 59.74 545.683 60.188 544.773 60.188C543.429 60.188 542.631 59.25 542.631 58.004V57.668H547.825V57.136C547.825 55.092 546.635 53.608 544.703 53.608C542.743 53.608 541.455 55.092 541.455 57.388C541.455 59.684 542.743 61.168 544.703 61.168ZM544.703 54.546C545.851 54.546 546.621 55.4 546.621 56.674V56.828H542.631V56.73C542.631 55.47 543.485 54.546 544.703 54.546ZM552.827 61V60.02H551.357V54.756H552.939V53.776H551.357V51.774H550.349V53.118C550.349 53.608 550.195 53.776 549.719 53.776H549.047V54.756H550.237V59.81C550.237 60.51 550.657 61 551.427 61H552.827ZM557.56 61.168C558.918 61.168 559.954 60.496 560.416 59.516L559.618 58.942C559.24 59.74 558.54 60.188 557.63 60.188C556.286 60.188 555.488 59.25 555.488 58.004V57.668H560.682V57.136C560.682 55.092 559.492 53.608 557.56 53.608C555.6 53.608 554.312 55.092 554.312 57.388C554.312 59.684 555.6 61.168 557.56 61.168ZM557.56 54.546C558.708 54.546 559.478 55.4 559.478 56.674V56.828H555.488V56.73C555.488 55.47 556.342 54.546 557.56 54.546ZM563.808 61V56.1C563.808 55.414 564.536 54.896 565.74 54.896H566.398V53.776H565.964C564.788 53.776 564.13 54.42 563.878 55.106H563.808V53.776H562.688V61H563.808ZM570.158 61.168C571.81 61.168 572.832 60.314 572.832 58.914C572.832 57.822 572.216 57.122 570.62 56.884L570.06 56.8C569.164 56.66 568.674 56.38 568.674 55.68C568.674 54.994 569.164 54.56 570.088 54.56C571.012 54.56 571.628 54.994 571.95 55.442L572.692 54.77C572.104 54.042 571.334 53.608 570.172 53.608C568.702 53.608 567.596 54.308 567.596 55.736C567.596 57.08 568.59 57.626 569.92 57.822L570.494 57.906C571.446 58.046 571.754 58.48 571.754 59.04C571.754 59.782 571.194 60.216 570.242 60.216C569.332 60.216 568.66 59.81 568.1 59.11L567.302 59.754C567.946 60.608 568.828 61.168 570.158 61.168ZM579.615 61H580.973L581.981 57.528L582.597 55.33H582.625L583.255 57.528L584.263 61H585.649L587.567 53.776H586.517L585.733 56.898L584.991 60.062H584.963L584.067 56.898L583.129 53.776H582.135L581.225 56.898L580.343 60.062H580.315L579.545 56.898L578.775 53.776H577.683L579.615 61ZM589.905 52.082C590.381 52.082 590.591 51.83 590.591 51.452V51.27C590.591 50.892 590.381 50.64 589.905 50.64C589.429 50.64 589.219 50.892 589.219 51.27V51.452C589.219 51.83 589.429 52.082 589.905 52.082ZM589.345 61H590.465V53.776H589.345V61ZM596.001 61V60.02H594.531V54.756H596.113V53.776H594.531V51.774H593.523V53.118C593.523 53.608 593.369 53.776 592.893 53.776H592.221V54.756H593.411V59.81C593.411 60.51 593.831 61 594.601 61H596.001ZM598.073 61H599.193V55.988C599.193 55.064 600.061 54.616 600.957 54.616C602.035 54.616 602.595 55.274 602.595 56.562V61H603.715V56.366C603.715 54.616 602.777 53.608 601.293 53.608C600.215 53.608 599.599 54.14 599.249 54.952H599.193V50.64H598.073V61ZM610.779 61V56.1C610.779 55.414 611.507 54.896 612.711 54.896H613.369V53.776H612.935C611.759 53.776 611.101 54.42 610.849 55.106H610.779V53.776H609.659V61H610.779ZM617.607 61.168C618.965 61.168 620.001 60.496 620.463 59.516L619.665 58.942C619.287 59.74 618.587 60.188 617.677 60.188C616.333 60.188 615.535 59.25 615.535 58.004V57.668H620.729V57.136C620.729 55.092 619.539 53.608 617.607 53.608C615.647 53.608 614.359 55.092 614.359 57.388C614.359 59.684 615.647 61.168 617.607 61.168ZM617.607 54.546C618.755 54.546 619.525 55.4 619.525 56.674V56.828H615.535V56.73C615.535 55.47 616.389 54.546 617.607 54.546ZM624.905 61.168C626.557 61.168 627.579 60.314 627.579 58.914C627.579 57.822 626.963 57.122 625.367 56.884L624.807 56.8C623.911 56.66 623.421 56.38 623.421 55.68C623.421 54.994 623.911 54.56 624.835 54.56C625.759 54.56 626.375 54.994 626.697 55.442L627.439 54.77C626.851 54.042 626.081 53.608 624.919 53.608C623.449 53.608 622.343 54.308 622.343 55.736C622.343 57.08 623.337 57.626 624.667 57.822L625.241 57.906C626.193 58.046 626.501 58.48 626.501 59.04C626.501 59.782 625.941 60.216 624.989 60.216C624.079 60.216 623.407 59.81 622.847 59.11L622.049 59.754C622.693 60.608 623.575 61.168 624.905 61.168ZM634.169 61H635.289V53.776H634.169V58.774C634.169 59.726 633.301 60.16 632.419 60.16C631.341 60.16 630.767 59.502 630.767 58.214V53.776H629.647V58.41C629.647 60.16 630.599 61.168 632.083 61.168C633.287 61.168 633.833 60.51 634.113 59.824H634.169V61ZM640.018 61V60.02H638.954V50.64H637.834V59.838C637.834 60.51 638.254 61 639.024 61H640.018ZM644.736 61V60.02H643.266V54.756H644.848V53.776H643.266V51.774H642.258V53.118C642.258 53.608 642.104 53.776 641.628 53.776H640.956V54.756H642.146V59.81C642.146 60.51 642.566 61 643.336 61H644.736ZM648.979 61.168C650.631 61.168 651.653 60.314 651.653 58.914C651.653 57.822 651.037 57.122 649.441 56.884L648.881 56.8C647.985 56.66 647.495 56.38 647.495 55.68C647.495 54.994 647.985 54.56 648.909 54.56C649.833 54.56 650.449 54.994 650.771 55.442L651.513 54.77C650.925 54.042 650.155 53.608 648.993 53.608C647.523 53.608 646.417 54.308 646.417 55.736C646.417 57.08 647.411 57.626 648.741 57.822L649.315 57.906C650.267 58.046 650.575 58.48 650.575 59.04C650.575 59.782 650.015 60.216 649.063 60.216C648.153 60.216 647.481 59.81 646.921 59.11L646.123 59.754C646.767 60.608 647.649 61.168 648.979 61.168ZM654.436 59.362C653.848 59.362 653.582 59.698 653.582 60.188V60.384C653.582 60.762 653.75 61.042 654.128 61.126C653.974 61.784 653.638 62.274 653.078 62.862H654.016C654.814 62.176 655.29 61.14 655.29 60.384V60.188C655.29 59.698 655.024 59.362 654.436 59.362ZM667.045 61V60.02H666.219V56.044C666.219 54.518 665.183 53.608 663.447 53.608C662.145 53.608 661.277 54.252 660.885 55.022L661.557 55.652C661.949 54.994 662.523 54.574 663.391 54.574C664.539 54.574 665.099 55.134 665.099 56.156V56.87H663.671C661.571 56.87 660.591 57.626 660.591 58.984C660.591 60.328 661.487 61.168 663.013 61.168C664.021 61.168 664.791 60.706 665.099 59.824H665.169C665.253 60.496 665.589 61 666.415 61H667.045ZM663.195 60.216C662.327 60.216 661.767 59.81 661.767 59.096V58.802C661.767 58.102 662.341 57.71 663.615 57.71H665.099V58.9C665.099 59.642 664.301 60.216 663.195 60.216ZM669.924 61V55.988C669.924 55.064 670.792 54.616 671.688 54.616C672.766 54.616 673.326 55.274 673.326 56.562V61H674.446V56.366C674.446 54.616 673.508 53.608 672.024 53.608C670.946 53.608 670.33 54.14 669.98 54.952H669.924V53.776H668.804V61H669.924ZM681.541 61H682.661V50.64H681.541V54.952H681.485C681.107 54.042 680.365 53.608 679.371 53.608C677.565 53.608 676.431 55.078 676.431 57.388C676.431 59.698 677.565 61.168 679.371 61.168C680.365 61.168 681.051 60.72 681.485 59.824H681.541V61ZM679.679 60.16C678.419 60.16 677.635 59.292 677.635 58.004V56.772C677.635 55.484 678.419 54.616 679.679 54.616C680.701 54.616 681.541 55.204 681.541 56.002V58.69C681.541 59.628 680.701 60.16 679.679 60.16ZM689.791 61V56.1C689.791 55.414 690.519 54.896 691.723 54.896H692.381V53.776H691.947C690.771 53.776 690.113 54.42 689.861 55.106H689.791V53.776H688.671V61H689.791ZM696.619 61.168C697.977 61.168 699.013 60.496 699.475 59.516L698.677 58.942C698.299 59.74 697.599 60.188 696.689 60.188C695.345 60.188 694.547 59.25 694.547 58.004V57.668H699.741V57.136C699.741 55.092 698.551 53.608 696.619 53.608C694.659 53.608 693.371 55.092 693.371 57.388C693.371 59.684 694.659 61.168 696.619 61.168ZM696.619 54.546C697.767 54.546 698.537 55.4 698.537 56.674V56.828H694.547V56.73C694.547 55.47 695.401 54.546 696.619 54.546ZM705.313 57.346V56.142H701.659V57.346H705.313ZM708.755 61V56.1C708.755 55.414 709.483 54.896 710.687 54.896H711.345V53.776H710.911C709.735 53.776 709.077 54.42 708.825 55.106H708.755V53.776H707.635V61H708.755ZM717.388 61H718.508V53.776H717.388V58.774C717.388 59.726 716.52 60.16 715.638 60.16C714.56 60.16 713.986 59.502 713.986 58.214V53.776H712.866V58.41C712.866 60.16 713.818 61.168 715.302 61.168C716.506 61.168 717.052 60.51 717.332 59.824H717.388V61ZM722.173 61V55.988C722.173 55.064 723.041 54.616 723.937 54.616C725.015 54.616 725.575 55.274 725.575 56.562V61H726.695V56.366C726.695 54.616 725.757 53.608 724.273 53.608C723.195 53.608 722.579 54.14 722.229 54.952H722.173V53.776H721.053V61H722.173Z" fill="#121619"/>
<path d="M735 57.9573C735 56.6167 735.256 55.2037 735.769 53.7184C736.282 52.2332 736.978 50.9517 737.859 49.8739C738.739 48.7961 739.653 48.1783 740.599 48.0206C740.612 48.0206 740.665 48.0206 740.757 48.0206C740.849 48.0206 740.928 48.014 740.994 48.0009C741.703 48.0534 742.255 48.3755 742.65 48.9669C743.162 49.7556 743.419 50.8137 743.419 52.1412C743.419 53.6527 743.123 55.1906 742.531 56.7547C741.94 58.3188 741.184 59.6003 740.264 60.5993C739.344 61.5982 738.463 62.0977 737.622 62.0977H737.484C737.011 62.0977 736.604 61.9662 736.262 61.7033C735.92 61.4405 735.664 61.0922 735.493 60.6584C735.322 60.2247 735.197 59.7843 735.118 59.3374C735.039 58.8906 735 58.4305 735 57.9573ZM741.861 50.7414C741.861 49.4007 741.513 48.7304 740.816 48.7304C740.343 48.7304 739.883 49.0261 739.436 49.6176C738.989 50.209 738.621 50.8794 738.332 51.6286C738.043 52.3778 737.819 53.035 737.662 53.6002C737.504 54.1653 737.418 54.4939 737.405 54.5859C738.049 54.5991 738.687 54.6057 739.318 54.6057L741.23 54.5859C741.243 54.5728 741.296 54.3559 741.388 53.9353C741.48 53.5147 741.585 52.989 741.703 52.3581C741.822 51.7272 741.874 51.1883 741.861 50.7414ZM736.538 59.298C736.538 60.6913 736.886 61.3879 737.583 61.3879C737.78 61.3879 737.99 61.3222 738.214 61.1907C738.437 61.0593 738.707 60.8096 739.022 60.4415C739.337 60.0735 739.653 59.5017 739.968 58.7263C740.284 57.9508 740.599 56.9913 740.915 55.8478L741.013 55.5126H737.169C737.169 55.552 737.11 55.8017 736.991 56.2618C736.873 56.7218 736.768 57.2344 736.676 57.7996C736.584 58.3648 736.538 58.8643 736.538 59.298Z" fill="black"/>
<path d="M751.7 59.5534C751.7 59.5534 751.7 59.493 751.7 59.3722C751.7 59.2514 751.765 59.1585 751.895 59.0935H756.063V57.0026L756.077 54.9117C756.17 54.7909 756.258 54.7305 756.342 54.7305C756.463 54.7305 756.556 54.8002 756.621 54.9396V59.0935H760.775C760.914 59.1678 760.984 59.2607 760.984 59.3722C760.984 59.4837 760.914 59.5767 760.775 59.651H756.621V63.8049C756.546 63.935 756.463 64 756.37 64H756.342H756.314C756.203 64 756.119 63.935 756.063 63.8049V59.651H751.895C751.765 59.586 751.7 59.493 751.7 59.3722V59.5534Z" fill="black"/>
<path d="M764.733 54.8006L764.552 54.8703C764.422 54.9168 764.236 54.9633 763.994 55.0097C763.753 55.0562 763.483 55.0887 763.186 55.1073H762.921V54.4661H763.186C763.623 54.4475 764.027 54.3778 764.399 54.257C764.77 54.1362 765.031 54.0247 765.179 53.9225C765.328 53.8203 765.458 53.718 765.57 53.6158C765.588 53.5879 765.644 53.574 765.737 53.574C765.82 53.574 765.899 53.6019 765.974 53.6576V57.8254L765.988 62.0071C766.053 62.0722 766.109 62.114 766.155 62.1326C766.201 62.1512 766.313 62.1698 766.49 62.1883C766.666 62.2069 766.954 62.2162 767.354 62.2162H767.716V62.8574H767.563C767.368 62.8295 766.629 62.8156 765.347 62.8156C764.083 62.8156 763.353 62.8295 763.158 62.8574H762.991V62.2162H763.353C763.558 62.2162 763.734 62.2162 763.883 62.2162C764.032 62.2162 764.148 62.2116 764.231 62.2023C764.315 62.193 764.389 62.1791 764.454 62.1605C764.519 62.1419 764.557 62.1326 764.566 62.1326C764.575 62.1326 764.603 62.1094 764.65 62.0629C764.696 62.0164 764.724 61.9978 764.733 62.0071V54.8006Z" fill="black"/>
<path d="M503.389 210V209.16H499.705L503.293 204.528V203.808H498.721V204.648H502.129L498.613 209.196V210H503.389Z" fill="white"/>
<path d="M503.389 245V244.16H499.705L503.293 239.528V238.808H498.721V239.648H502.129L498.613 244.196V245H503.389Z" fill="white"/>
<path d="M503.389 280V279.16H499.705L503.293 274.528V273.808H498.721V274.648H502.129L498.613 279.196V280H503.389Z" fill="white"/>
<path d="M503.389 315V314.16H499.705L503.293 309.528V308.808H498.721V309.648H502.129L498.613 314.196V315H503.389Z" fill="white"/>
<path d="M503.389 351V350.16H499.705L503.293 345.528V344.808H498.721V345.648H502.129L498.613 350.196V351H503.389Z" fill="white"/>
<path d="M656 303.245C656 303 655.809 303 655.755 303C655.7 303 655.591 303 655.373 303.273L653.492 305.562C652.538 303.927 651.039 303 648.994 303C643.106 303 637 308.97 637 315.376C637 319.928 640.189 322.763 644.169 322.763C646.35 322.763 648.258 321.836 649.839 320.501C652.211 318.511 652.92 315.867 652.92 315.648C652.92 315.403 652.702 315.403 652.62 315.403C652.374 315.403 652.347 315.567 652.293 315.676C651.039 319.928 647.359 321.973 644.633 321.973C641.743 321.973 639.235 320.119 639.235 316.248C639.235 315.376 639.508 310.633 642.588 307.062C644.088 305.317 646.65 303.791 649.24 303.791C652.238 303.791 653.574 306.271 653.574 309.052C653.574 309.76 653.492 310.36 653.492 310.469C653.492 310.714 653.765 310.714 653.846 310.714C654.146 310.714 654.174 310.687 654.283 310.197L656 303.245Z" fill="white"/>
</g>
<defs>
<clipPath id="clip0_38_6114">
<rect width="1048" height="500" fill="white"/>
</clipPath>
</defs>
</svg>
