<?xml version='1.0' encoding='utf-8'?>
<svg xmlns="http://www.w3.org/2000/svg" xmlns:ns1="http://sodipodi.sourceforge.net/DTD/sodipodi-0.dtd" xmlns:ns2="http://www.inkscape.org/namespaces/inkscape" version="1.1" id="svg1" width="100%" height="auto" viewBox="-20.0 -20.0 415.58594 310.93039" ns1:docname="svg_fix_XXXXXX.svg">
  <rect id="path1" x="-20.0" y="-20.0" width="415.58594" height="310.93039" fill="white" /><ns1:namedview id="namedview1" pagecolor="#ffffff" bordercolor="#000000" borderopacity="0.25" ns2:showpageshadow="2" ns2:pageopacity="0.0" ns2:pagecheckerboard="0" ns2:deskcolor="#d1d1d1" />
  <defs id="defs1" />
  <g id="g1" transform="translate(-112.52343,-23.239203)">
    <path id="path2" d="M -48.18958,-77.95375 H 48.18959 V 77.95375 H -48.18958 Z" style="fill:#78a9ff;fill-opacity:1;fill-rule:nonzero;stroke:#78a9ff;stroke-width:0.3985;stroke-linecap:butt;stroke-linejoin:miter;stroke-miterlimit:10;stroke-dasharray:none;stroke-opacity:1" transform="matrix(1.7333333,0,0,-1.7333333,280.732,158.7044)" />
    <path id="path3" d="m 4.3630481,-0.0626887 c 1.5414663,-0.5859375 3.0108173,-2.3617788 3.0108173,-4.281851 0,-1.6045673 -1.0546875,-2.6772836 -2.5420673,-2.6772836 -2.1544471,0 -4.34495195,2.2626202 -4.34495195,4.5793269 0,1.65865385 1.11778845,2.65925481 2.55108175,2.65925481 0.2524038,0 0.5859375,-0.0360577 0.9735577,-0.14423077 -0.036058,0.61298077 -0.036058,0.63100962 -0.036058,0.76622597 0,0.31550479 0,1.09074519 0.8293269,1.09074519 1.1808894,0 1.6586539,-1.82091346 1.6586539,-1.92908654038 0,-0.0721153796 -0.072115,-0.0991586496 -0.1081731,-0.0991586496 -0.08113,0 -0.099159,0.04507211 -0.1171875,0.10817307 -0.2433894,0.71213943 -0.8203125,0.95552885 -1.171875,0.95552885 -0.4507212,0 -0.6039664,-0.27043269 -0.7031247,-1.02764423 z M 2.4790337,-0.13480409 C 1.7037933,-0.45030889 1.3612452,-1.2255493 1.3612452,-2.1179772 c 0,-0.6941105 0.2614183,-2.109375 1.0186298,-3.1820913 0.7301683,-1.0186298 1.6676683,-1.469351 2.3888221,-1.469351 1.000601,0 1.7217548,0.7752404 1.7217548,2.109375 0,0.9915866 -0.5048077,3.3263221 -2.1814904,4.26382214 -0.045072,-0.3515625 -0.1442307,-1.08173074 -0.874399,-1.08173074 -0.5228365,0 -1.0096154,0.50480767 -1.0096154,1.01862978 0,0.19831731 0.054087,0.30649039 0.054087,0.32451923 z m 0.6219951,0.10817308 c -0.1442307,0 -0.4597355,0 -0.4597355,-0.43269231 0,-0.39663461 0.3786057,-0.79326918 0.7932692,-0.79326918 0.4236779,0 0.6129808,0.234375 0.6129808,0.84735572 0,0.14423077 -0.00901,0.15324519 -0.1171875,0.19831731 -0.2524039,0.10817308 -0.5498798,0.18028846 -0.829327,0.18028846 z m 0,0" style="fill:#ffffff;fill-opacity:1;fill-rule:nonzero;stroke:none" aria-label="Q" transform="matrix(1.7333333,0,0,1.7333333,273.90613,162.92507)" />
    <path id="path4" d="m -68.0113,32.59883 h 19.62246" style="fill:none;stroke:#121619;stroke-width:0.3985;stroke-linecap:butt;stroke-linejoin:miter;stroke-miterlimit:10;stroke-dasharray:none;stroke-opacity:1" transform="matrix(1.7333333,0,0,-1.7333333,280.732,158.7044)" />
    <path id="path5" d="M 48.38884,32.59883 H 68.0113" style="fill:none;stroke:#121619;stroke-width:0.3985;stroke-linecap:butt;stroke-linejoin:miter;stroke-miterlimit:10;stroke-dasharray:none;stroke-opacity:1" transform="matrix(1.7333333,0,0,-1.7333333,280.732,158.7044)" />
    <path id="path6" d="m -68.0113,35.4335 h 19.62246" style="fill:none;stroke:#121619;stroke-width:0.3985;stroke-linecap:butt;stroke-linejoin:miter;stroke-miterlimit:10;stroke-dasharray:none;stroke-opacity:1" transform="matrix(1.7333333,0,0,-1.7333333,280.732,158.7044)" />
    <path id="path7" d="M 48.38884,35.4335 H 68.0113" style="fill:none;stroke:#121619;stroke-width:0.3985;stroke-linecap:butt;stroke-linejoin:miter;stroke-miterlimit:10;stroke-dasharray:none;stroke-opacity:1" transform="matrix(1.7333333,0,0,-1.7333333,280.732,158.7044)" />
    <path id="path8" d="m -68.0113,38.26819 h 19.62246" style="fill:none;stroke:#121619;stroke-width:0.3985;stroke-linecap:butt;stroke-linejoin:miter;stroke-miterlimit:10;stroke-dasharray:none;stroke-opacity:1" transform="matrix(1.7333333,0,0,-1.7333333,280.732,158.7044)" />
    <path id="path9" d="M 48.38884,38.26819 H 68.0113" style="fill:none;stroke:#121619;stroke-width:0.3985;stroke-linecap:butt;stroke-linejoin:miter;stroke-miterlimit:10;stroke-dasharray:none;stroke-opacity:1" transform="matrix(1.7333333,0,0,-1.7333333,280.732,158.7044)" />
    <path id="path10" d="m -68.0113,41.10287 h 19.62246" style="fill:none;stroke:#121619;stroke-width:0.3985;stroke-linecap:butt;stroke-linejoin:miter;stroke-miterlimit:10;stroke-dasharray:none;stroke-opacity:1" transform="matrix(1.7333333,0,0,-1.7333333,280.732,158.7044)" />
    <path id="path11" d="M 48.38884,41.10287 H 68.0113" style="fill:none;stroke:#121619;stroke-width:0.3985;stroke-linecap:butt;stroke-linejoin:miter;stroke-miterlimit:10;stroke-dasharray:none;stroke-opacity:1" transform="matrix(1.7333333,0,0,-1.7333333,280.732,158.7044)" />
    <path id="path12" d="m -68.0113,43.93756 h 19.62246" style="fill:none;stroke:#121619;stroke-width:0.3985;stroke-linecap:butt;stroke-linejoin:miter;stroke-miterlimit:10;stroke-dasharray:none;stroke-opacity:1" transform="matrix(1.7333333,0,0,-1.7333333,280.732,158.7044)" />
    <path id="path13" d="M 48.38884,43.93756 H 68.0113" style="fill:none;stroke:#121619;stroke-width:0.3985;stroke-linecap:butt;stroke-linejoin:miter;stroke-miterlimit:10;stroke-dasharray:none;stroke-opacity:1" transform="matrix(1.7333333,0,0,-1.7333333,280.732,158.7044)" />
    <path id="path14" d="m -68.0113,46.77223 h 19.62246" style="fill:none;stroke:#121619;stroke-width:0.3985;stroke-linecap:butt;stroke-linejoin:miter;stroke-miterlimit:10;stroke-dasharray:none;stroke-opacity:1" transform="matrix(1.7333333,0,0,-1.7333333,280.732,158.7044)" />
    <path id="path15" d="M 48.38884,46.77223 H 68.0113" style="fill:none;stroke:#121619;stroke-width:0.3985;stroke-linecap:butt;stroke-linejoin:miter;stroke-miterlimit:10;stroke-dasharray:none;stroke-opacity:1" transform="matrix(1.7333333,0,0,-1.7333333,280.732,158.7044)" />
    <path id="path16" d="m -68.0113,49.60692 h 19.62246" style="fill:none;stroke:#121619;stroke-width:0.3985;stroke-linecap:butt;stroke-linejoin:miter;stroke-miterlimit:10;stroke-dasharray:none;stroke-opacity:1" transform="matrix(1.7333333,0,0,-1.7333333,280.732,158.7044)" />
    <path id="path17" d="M 48.38884,49.60692 H 68.0113" style="fill:none;stroke:#121619;stroke-width:0.3985;stroke-linecap:butt;stroke-linejoin:miter;stroke-miterlimit:10;stroke-dasharray:none;stroke-opacity:1" transform="matrix(1.7333333,0,0,-1.7333333,280.732,158.7044)" />
    <path id="path18" d="m -68.0113,52.4416 h 19.62246" style="fill:none;stroke:#121619;stroke-width:0.3985;stroke-linecap:butt;stroke-linejoin:miter;stroke-miterlimit:10;stroke-dasharray:none;stroke-opacity:1" transform="matrix(1.7333333,0,0,-1.7333333,280.732,158.7044)" />
    <path id="path19" d="M 48.38884,52.4416 H 68.0113" style="fill:none;stroke:#121619;stroke-width:0.3985;stroke-linecap:butt;stroke-linejoin:miter;stroke-miterlimit:10;stroke-dasharray:none;stroke-opacity:1" transform="matrix(1.7333333,0,0,-1.7333333,280.732,158.7044)" />
    <path id="path20" d="m -68.0113,55.27629 h 19.62246" style="fill:none;stroke:#121619;stroke-width:0.3985;stroke-linecap:butt;stroke-linejoin:miter;stroke-miterlimit:10;stroke-dasharray:none;stroke-opacity:1" transform="matrix(1.7333333,0,0,-1.7333333,280.732,158.7044)" />
    <path id="path21" d="M 48.38884,55.27629 H 68.0113" style="fill:none;stroke:#121619;stroke-width:0.3985;stroke-linecap:butt;stroke-linejoin:miter;stroke-miterlimit:10;stroke-dasharray:none;stroke-opacity:1" transform="matrix(1.7333333,0,0,-1.7333333,280.732,158.7044)" />
    <path id="path22" d="m -68.0113,58.11096 h 19.62246" style="fill:none;stroke:#121619;stroke-width:0.3985;stroke-linecap:butt;stroke-linejoin:miter;stroke-miterlimit:10;stroke-dasharray:none;stroke-opacity:1" transform="matrix(1.7333333,0,0,-1.7333333,280.732,158.7044)" />
    <path id="path23" d="M 48.38884,58.11096 H 68.0113" style="fill:none;stroke:#121619;stroke-width:0.3985;stroke-linecap:butt;stroke-linejoin:miter;stroke-miterlimit:10;stroke-dasharray:none;stroke-opacity:1" transform="matrix(1.7333333,0,0,-1.7333333,280.732,158.7044)" />
    <path id="path24" d="m -68.0113,60.94565 h 19.62246" style="fill:none;stroke:#121619;stroke-width:0.3985;stroke-linecap:butt;stroke-linejoin:miter;stroke-miterlimit:10;stroke-dasharray:none;stroke-opacity:1" transform="matrix(1.7333333,0,0,-1.7333333,280.732,158.7044)" />
    <path id="path25" d="M 48.38884,60.94565 H 68.0113" style="fill:none;stroke:#121619;stroke-width:0.3985;stroke-linecap:butt;stroke-linejoin:miter;stroke-miterlimit:10;stroke-dasharray:none;stroke-opacity:1" transform="matrix(1.7333333,0,0,-1.7333333,280.732,158.7044)" />
    <path id="path26" d="m -68.0113,63.78033 h 19.62246" style="fill:none;stroke:#121619;stroke-width:0.3985;stroke-linecap:butt;stroke-linejoin:miter;stroke-miterlimit:10;stroke-dasharray:none;stroke-opacity:1" transform="matrix(1.7333333,0,0,-1.7333333,280.732,158.7044)" />
    <path id="path27" d="M 48.38884,63.78033 H 68.0113" style="fill:none;stroke:#121619;stroke-width:0.3985;stroke-linecap:butt;stroke-linejoin:miter;stroke-miterlimit:10;stroke-dasharray:none;stroke-opacity:1" transform="matrix(1.7333333,0,0,-1.7333333,280.732,158.7044)" />
    <path id="path28" d="m -68.0113,66.61502 h 19.62246" style="fill:none;stroke:#121619;stroke-width:0.3985;stroke-linecap:butt;stroke-linejoin:miter;stroke-miterlimit:10;stroke-dasharray:none;stroke-opacity:1" transform="matrix(1.7333333,0,0,-1.7333333,280.732,158.7044)" />
    <path id="path29" d="M 48.38884,66.61502 H 68.0113" style="fill:none;stroke:#121619;stroke-width:0.3985;stroke-linecap:butt;stroke-linejoin:miter;stroke-miterlimit:10;stroke-dasharray:none;stroke-opacity:1" transform="matrix(1.7333333,0,0,-1.7333333,280.732,158.7044)" />
    <path id="path30" d="m -68.0113,-24.09477 h 19.62246" style="fill:none;stroke:#121619;stroke-width:0.3985;stroke-linecap:butt;stroke-linejoin:miter;stroke-miterlimit:10;stroke-dasharray:none;stroke-opacity:1" transform="matrix(1.7333333,0,0,-1.7333333,280.732,158.7044)" />
    <path id="path31" d="M 48.38884,-24.09477 H 68.0113" style="fill:none;stroke:#121619;stroke-width:0.3985;stroke-linecap:butt;stroke-linejoin:miter;stroke-miterlimit:10;stroke-dasharray:none;stroke-opacity:1" transform="matrix(1.7333333,0,0,-1.7333333,280.732,158.7044)" />
    <path id="path32" d="m -68.0113,-21.2601 h 19.62246" style="fill:none;stroke:#121619;stroke-width:0.3985;stroke-linecap:butt;stroke-linejoin:miter;stroke-miterlimit:10;stroke-dasharray:none;stroke-opacity:1" transform="matrix(1.7333333,0,0,-1.7333333,280.732,158.7044)" />
    <path id="path33" d="M 48.38884,-21.2601 H 68.0113" style="fill:none;stroke:#121619;stroke-width:0.3985;stroke-linecap:butt;stroke-linejoin:miter;stroke-miterlimit:10;stroke-dasharray:none;stroke-opacity:1" transform="matrix(1.7333333,0,0,-1.7333333,280.732,158.7044)" />
    <path id="path34" d="m -68.0113,-18.42542 h 19.62246" style="fill:none;stroke:#121619;stroke-width:0.3985;stroke-linecap:butt;stroke-linejoin:miter;stroke-miterlimit:10;stroke-dasharray:none;stroke-opacity:1" transform="matrix(1.7333333,0,0,-1.7333333,280.732,158.7044)" />
    <path id="path35" d="M 48.38884,-18.42542 H 68.0113" style="fill:none;stroke:#121619;stroke-width:0.3985;stroke-linecap:butt;stroke-linejoin:miter;stroke-miterlimit:10;stroke-dasharray:none;stroke-opacity:1" transform="matrix(1.7333333,0,0,-1.7333333,280.732,158.7044)" />
    <path id="path36" d="m -68.0113,-15.59073 h 19.62246" style="fill:none;stroke:#121619;stroke-width:0.3985;stroke-linecap:butt;stroke-linejoin:miter;stroke-miterlimit:10;stroke-dasharray:none;stroke-opacity:1" transform="matrix(1.7333333,0,0,-1.7333333,280.732,158.7044)" />
    <path id="path37" d="M 48.38884,-15.59073 H 68.0113" style="fill:none;stroke:#121619;stroke-width:0.3985;stroke-linecap:butt;stroke-linejoin:miter;stroke-miterlimit:10;stroke-dasharray:none;stroke-opacity:1" transform="matrix(1.7333333,0,0,-1.7333333,280.732,158.7044)" />
    <path id="path38" d="m -68.0113,-12.75604 h 19.62246" style="fill:none;stroke:#121619;stroke-width:0.3985;stroke-linecap:butt;stroke-linejoin:miter;stroke-miterlimit:10;stroke-dasharray:none;stroke-opacity:1" transform="matrix(1.7333333,0,0,-1.7333333,280.732,158.7044)" />
    <path id="path39" d="M 48.38884,-12.75604 H 68.0113" style="fill:none;stroke:#121619;stroke-width:0.3985;stroke-linecap:butt;stroke-linejoin:miter;stroke-miterlimit:10;stroke-dasharray:none;stroke-opacity:1" transform="matrix(1.7333333,0,0,-1.7333333,280.732,158.7044)" />
    <path id="path40" d="m -68.0113,-9.92137 h 19.62246" style="fill:none;stroke:#121619;stroke-width:0.3985;stroke-linecap:butt;stroke-linejoin:miter;stroke-miterlimit:10;stroke-dasharray:none;stroke-opacity:1" transform="matrix(1.7333333,0,0,-1.7333333,280.732,158.7044)" />
    <path id="path41" d="M 48.38884,-9.92137 H 68.0113" style="fill:none;stroke:#121619;stroke-width:0.3985;stroke-linecap:butt;stroke-linejoin:miter;stroke-miterlimit:10;stroke-dasharray:none;stroke-opacity:1" transform="matrix(1.7333333,0,0,-1.7333333,280.732,158.7044)" />
    <path id="path42" d="m -68.0113,-7.08669 h 19.62246" style="fill:none;stroke:#121619;stroke-width:0.3985;stroke-linecap:butt;stroke-linejoin:miter;stroke-miterlimit:10;stroke-dasharray:none;stroke-opacity:1" transform="matrix(1.7333333,0,0,-1.7333333,280.732,158.7044)" />
    <path id="path43" d="M 48.38884,-7.08669 H 68.0113" style="fill:none;stroke:#121619;stroke-width:0.3985;stroke-linecap:butt;stroke-linejoin:miter;stroke-miterlimit:10;stroke-dasharray:none;stroke-opacity:1" transform="matrix(1.7333333,0,0,-1.7333333,280.732,158.7044)" />
    <path id="path44" d="m -68.0113,-4.252 h 19.62246" style="fill:none;stroke:#121619;stroke-width:0.3985;stroke-linecap:butt;stroke-linejoin:miter;stroke-miterlimit:10;stroke-dasharray:none;stroke-opacity:1" transform="matrix(1.7333333,0,0,-1.7333333,280.732,158.7044)" />
    <path id="path45" d="M 48.38884,-4.252 H 68.0113" style="fill:none;stroke:#121619;stroke-width:0.3985;stroke-linecap:butt;stroke-linejoin:miter;stroke-miterlimit:10;stroke-dasharray:none;stroke-opacity:1" transform="matrix(1.7333333,0,0,-1.7333333,280.732,158.7044)" />
    <path id="path46" d="m -68.0113,-1.41731 h 19.62246" style="fill:none;stroke:#121619;stroke-width:0.3985;stroke-linecap:butt;stroke-linejoin:miter;stroke-miterlimit:10;stroke-dasharray:none;stroke-opacity:1" transform="matrix(1.7333333,0,0,-1.7333333,280.732,158.7044)" />
    <path id="path47" d="M 48.38884,-1.41731 H 68.0113" style="fill:none;stroke:#121619;stroke-width:0.3985;stroke-linecap:butt;stroke-linejoin:miter;stroke-miterlimit:10;stroke-dasharray:none;stroke-opacity:1" transform="matrix(1.7333333,0,0,-1.7333333,280.732,158.7044)" />
    <path id="path48" d="m -68.0113,1.41731 h 19.62246" style="fill:none;stroke:#121619;stroke-width:0.3985;stroke-linecap:butt;stroke-linejoin:miter;stroke-miterlimit:10;stroke-dasharray:none;stroke-opacity:1" transform="matrix(1.7333333,0,0,-1.7333333,280.732,158.7044)" />
    <path id="path49" d="M 48.38884,1.41731 H 68.0113" style="fill:none;stroke:#121619;stroke-width:0.3985;stroke-linecap:butt;stroke-linejoin:miter;stroke-miterlimit:10;stroke-dasharray:none;stroke-opacity:1" transform="matrix(1.7333333,0,0,-1.7333333,280.732,158.7044)" />
    <path id="path50" d="m -68.0113,4.252 h 19.62246" style="fill:none;stroke:#121619;stroke-width:0.3985;stroke-linecap:butt;stroke-linejoin:miter;stroke-miterlimit:10;stroke-dasharray:none;stroke-opacity:1" transform="matrix(1.7333333,0,0,-1.7333333,280.732,158.7044)" />
    <path id="path51" d="M 48.38884,4.252 H 68.0113" style="fill:none;stroke:#121619;stroke-width:0.3985;stroke-linecap:butt;stroke-linejoin:miter;stroke-miterlimit:10;stroke-dasharray:none;stroke-opacity:1" transform="matrix(1.7333333,0,0,-1.7333333,280.732,158.7044)" />
    <path id="path52" d="m -68.0113,7.08669 h 19.62246" style="fill:none;stroke:#121619;stroke-width:0.3985;stroke-linecap:butt;stroke-linejoin:miter;stroke-miterlimit:10;stroke-dasharray:none;stroke-opacity:1" transform="matrix(1.7333333,0,0,-1.7333333,280.732,158.7044)" />
    <path id="path53" d="M 48.38884,7.08669 H 68.0113" style="fill:none;stroke:#121619;stroke-width:0.3985;stroke-linecap:butt;stroke-linejoin:miter;stroke-miterlimit:10;stroke-dasharray:none;stroke-opacity:1" transform="matrix(1.7333333,0,0,-1.7333333,280.732,158.7044)" />
    <path id="path54" d="m -68.0113,9.92137 h 19.62246" style="fill:none;stroke:#121619;stroke-width:0.3985;stroke-linecap:butt;stroke-linejoin:miter;stroke-miterlimit:10;stroke-dasharray:none;stroke-opacity:1" transform="matrix(1.7333333,0,0,-1.7333333,280.732,158.7044)" />
    <path id="path55" d="M 48.38884,9.92137 H 68.0113" style="fill:none;stroke:#121619;stroke-width:0.3985;stroke-linecap:butt;stroke-linejoin:miter;stroke-miterlimit:10;stroke-dasharray:none;stroke-opacity:1" transform="matrix(1.7333333,0,0,-1.7333333,280.732,158.7044)" />
    <path id="path56" d="m -68.0113,12.75604 h 19.62246" style="fill:none;stroke:#121619;stroke-width:0.3985;stroke-linecap:butt;stroke-linejoin:miter;stroke-miterlimit:10;stroke-dasharray:none;stroke-opacity:1" transform="matrix(1.7333333,0,0,-1.7333333,280.732,158.7044)" />
    <path id="path57" d="M 48.38884,12.75604 H 68.0113" style="fill:none;stroke:#121619;stroke-width:0.3985;stroke-linecap:butt;stroke-linejoin:miter;stroke-miterlimit:10;stroke-dasharray:none;stroke-opacity:1" transform="matrix(1.7333333,0,0,-1.7333333,280.732,158.7044)" />
    <path id="path58" d="m -68.0113,15.59073 h 19.62246" style="fill:none;stroke:#121619;stroke-width:0.3985;stroke-linecap:butt;stroke-linejoin:miter;stroke-miterlimit:10;stroke-dasharray:none;stroke-opacity:1" transform="matrix(1.7333333,0,0,-1.7333333,280.732,158.7044)" />
    <path id="path59" d="M 48.38884,15.59073 H 68.0113" style="fill:none;stroke:#121619;stroke-width:0.3985;stroke-linecap:butt;stroke-linejoin:miter;stroke-miterlimit:10;stroke-dasharray:none;stroke-opacity:1" transform="matrix(1.7333333,0,0,-1.7333333,280.732,158.7044)" />
    <path id="path60" d="m -68.0113,18.42542 h 19.62246" style="fill:none;stroke:#121619;stroke-width:0.3985;stroke-linecap:butt;stroke-linejoin:miter;stroke-miterlimit:10;stroke-dasharray:none;stroke-opacity:1" transform="matrix(1.7333333,0,0,-1.7333333,280.732,158.7044)" />
    <path id="path61" d="M 48.38884,18.42542 H 68.0113" style="fill:none;stroke:#121619;stroke-width:0.3985;stroke-linecap:butt;stroke-linejoin:miter;stroke-miterlimit:10;stroke-dasharray:none;stroke-opacity:1" transform="matrix(1.7333333,0,0,-1.7333333,280.732,158.7044)" />
    <path id="path62" d="m -68.0113,-66.61502 h 19.62246" style="fill:none;stroke:#121619;stroke-width:0.3985;stroke-linecap:butt;stroke-linejoin:miter;stroke-miterlimit:10;stroke-dasharray:none;stroke-opacity:1" transform="matrix(1.7333333,0,0,-1.7333333,280.732,158.7044)" />
    <path id="path63" d="M 48.38884,-66.61502 H 68.0113" style="fill:none;stroke:#121619;stroke-width:0.3985;stroke-linecap:butt;stroke-linejoin:miter;stroke-miterlimit:10;stroke-dasharray:none;stroke-opacity:1" transform="matrix(1.7333333,0,0,-1.7333333,280.732,158.7044)" />
    <path id="path64" d="m -68.0113,-63.78033 h 19.62246" style="fill:none;stroke:#121619;stroke-width:0.3985;stroke-linecap:butt;stroke-linejoin:miter;stroke-miterlimit:10;stroke-dasharray:none;stroke-opacity:1" transform="matrix(1.7333333,0,0,-1.7333333,280.732,158.7044)" />
    <path id="path65" d="M 48.38884,-63.78033 H 68.0113" style="fill:none;stroke:#121619;stroke-width:0.3985;stroke-linecap:butt;stroke-linejoin:miter;stroke-miterlimit:10;stroke-dasharray:none;stroke-opacity:1" transform="matrix(1.7333333,0,0,-1.7333333,280.732,158.7044)" />
    <path id="path66" d="m -68.0113,-60.94565 h 19.62246" style="fill:none;stroke:#121619;stroke-width:0.3985;stroke-linecap:butt;stroke-linejoin:miter;stroke-miterlimit:10;stroke-dasharray:none;stroke-opacity:1" transform="matrix(1.7333333,0,0,-1.7333333,280.732,158.7044)" />
    <path id="path67" d="M 48.38884,-60.94565 H 68.0113" style="fill:none;stroke:#121619;stroke-width:0.3985;stroke-linecap:butt;stroke-linejoin:miter;stroke-miterlimit:10;stroke-dasharray:none;stroke-opacity:1" transform="matrix(1.7333333,0,0,-1.7333333,280.732,158.7044)" />
    <path id="path68" d="m -68.0113,-58.11096 h 19.62246" style="fill:none;stroke:#121619;stroke-width:0.3985;stroke-linecap:butt;stroke-linejoin:miter;stroke-miterlimit:10;stroke-dasharray:none;stroke-opacity:1" transform="matrix(1.7333333,0,0,-1.7333333,280.732,158.7044)" />
    <path id="path69" d="M 48.38884,-58.11096 H 68.0113" style="fill:none;stroke:#121619;stroke-width:0.3985;stroke-linecap:butt;stroke-linejoin:miter;stroke-miterlimit:10;stroke-dasharray:none;stroke-opacity:1" transform="matrix(1.7333333,0,0,-1.7333333,280.732,158.7044)" />
    <path id="path70" d="m -68.0113,-55.27629 h 19.62246" style="fill:none;stroke:#121619;stroke-width:0.3985;stroke-linecap:butt;stroke-linejoin:miter;stroke-miterlimit:10;stroke-dasharray:none;stroke-opacity:1" transform="matrix(1.7333333,0,0,-1.7333333,280.732,158.7044)" />
    <path id="path71" d="M 48.38884,-55.27629 H 68.0113" style="fill:none;stroke:#121619;stroke-width:0.3985;stroke-linecap:butt;stroke-linejoin:miter;stroke-miterlimit:10;stroke-dasharray:none;stroke-opacity:1" transform="matrix(1.7333333,0,0,-1.7333333,280.732,158.7044)" />
    <path id="path72" d="m -68.0113,-52.4416 h 19.62246" style="fill:none;stroke:#121619;stroke-width:0.3985;stroke-linecap:butt;stroke-linejoin:miter;stroke-miterlimit:10;stroke-dasharray:none;stroke-opacity:1" transform="matrix(1.7333333,0,0,-1.7333333,280.732,158.7044)" />
    <path id="path73" d="M 48.38884,-52.4416 H 68.0113" style="fill:none;stroke:#121619;stroke-width:0.3985;stroke-linecap:butt;stroke-linejoin:miter;stroke-miterlimit:10;stroke-dasharray:none;stroke-opacity:1" transform="matrix(1.7333333,0,0,-1.7333333,280.732,158.7044)" />
    <path id="path74" d="m -68.0113,-49.60692 h 19.62246" style="fill:none;stroke:#121619;stroke-width:0.3985;stroke-linecap:butt;stroke-linejoin:miter;stroke-miterlimit:10;stroke-dasharray:none;stroke-opacity:1" transform="matrix(1.7333333,0,0,-1.7333333,280.732,158.7044)" />
    <path id="path75" d="M 48.38884,-49.60692 H 68.0113" style="fill:none;stroke:#121619;stroke-width:0.3985;stroke-linecap:butt;stroke-linejoin:miter;stroke-miterlimit:10;stroke-dasharray:none;stroke-opacity:1" transform="matrix(1.7333333,0,0,-1.7333333,280.732,158.7044)" />
    <path id="path76" d="m -68.0113,-46.77223 h 19.62246" style="fill:none;stroke:#121619;stroke-width:0.3985;stroke-linecap:butt;stroke-linejoin:miter;stroke-miterlimit:10;stroke-dasharray:none;stroke-opacity:1" transform="matrix(1.7333333,0,0,-1.7333333,280.732,158.7044)" />
    <path id="path77" d="M 48.38884,-46.77223 H 68.0113" style="fill:none;stroke:#121619;stroke-width:0.3985;stroke-linecap:butt;stroke-linejoin:miter;stroke-miterlimit:10;stroke-dasharray:none;stroke-opacity:1" transform="matrix(1.7333333,0,0,-1.7333333,280.732,158.7044)" />
    <path id="path78" d="m -68.0113,-43.93756 h 19.62246" style="fill:none;stroke:#121619;stroke-width:0.3985;stroke-linecap:butt;stroke-linejoin:miter;stroke-miterlimit:10;stroke-dasharray:none;stroke-opacity:1" transform="matrix(1.7333333,0,0,-1.7333333,280.732,158.7044)" />
    <path id="path79" d="M 48.38884,-43.93756 H 68.0113" style="fill:none;stroke:#121619;stroke-width:0.3985;stroke-linecap:butt;stroke-linejoin:miter;stroke-miterlimit:10;stroke-dasharray:none;stroke-opacity:1" transform="matrix(1.7333333,0,0,-1.7333333,280.732,158.7044)" />
    <path id="path80" d="m -68.0113,-41.10287 h 19.62246" style="fill:none;stroke:#121619;stroke-width:0.3985;stroke-linecap:butt;stroke-linejoin:miter;stroke-miterlimit:10;stroke-dasharray:none;stroke-opacity:1" transform="matrix(1.7333333,0,0,-1.7333333,280.732,158.7044)" />
    <path id="path81" d="M 48.38884,-41.10287 H 68.0113" style="fill:none;stroke:#121619;stroke-width:0.3985;stroke-linecap:butt;stroke-linejoin:miter;stroke-miterlimit:10;stroke-dasharray:none;stroke-opacity:1" transform="matrix(1.7333333,0,0,-1.7333333,280.732,158.7044)" />
    <g id="g81" aria-label="∣x⟩&#10;⎧&#10;⎪&#10;⎪&#10;⎪&#10;⎪&#10;⎪&#10;⎨&#10;⎪&#10;⎪&#10;⎪&#10;⎪&#10;⎪&#10;⎩" transform="matrix(1.7333333,0,0,1.7333333,117.4468,78.123467)">
      <path id="path82" d="M 1.1980601,-6.0928654 V 1.713625 h 0.5048077 v -7.8064904 z m 0,0" style="fill:#121619;fill-opacity:1;fill-rule:nonzero;stroke:none" />
      <path id="path83" d="m 6.8951755,-3.1812067 c -0.3515625,0.090144 -0.3695914,0.3966346 -0.3695914,0.4326923 0,0.171274 0.1352164,0.2974759 0.3155048,0.2974759 0.1712741,0 0.4417068,-0.1352163 0.4417068,-0.4777644 0,-0.4597356 -0.4957933,-0.5859375 -0.7932693,-0.5859375 -0.3786057,0 -0.6760817,0.2614183 -0.8653846,0.5769231 -0.171274,-0.4236779 -0.5859375,-0.5769231 -0.9104567,-0.5769231 -0.874399,0 -1.3611779,1.000601 -1.3611779,1.2169471 0,0.072115 0.063101,0.1081731 0.1262019,0.1081731 0.090144,0 0.1081731,-0.045072 0.1352164,-0.1352163 0.1802884,-0.5859375 0.6580529,-0.9645433 1.0727163,-0.9645433 0.3064904,0 0.4597356,0.2253606 0.4597356,0.5048077 0,0.1622596 -0.090144,0.5318509 -0.1532452,0.7842548 -0.063101,0.234375 -0.234375,0.9375 -0.2704327,1.09074518 -0.1171875,0.43269231 -0.405649,0.76622597 -0.7572115,0.76622597 -0.036058,0 -0.2433894,0 -0.4146635,-0.10817308 0.3695914,-0.0901442 0.3695914,-0.42367789 0.3695914,-0.43269231 0,-0.18028846 -0.1442308,-0.29747596 -0.3155048,-0.29747596 -0.2163462,0 -0.4507212,0.18930288 -0.4507212,0.48677885 0,0.36959134 0.3966346,0.57692307 0.8022837,0.57692307 0.4236778,0 0.7121394,-0.32451923 0.8563701,-0.57692307 0.1802885,0.39663461 0.5408654,0.57692307 0.9284856,0.57692307 0.8653846,0 1.3431491,-1.00060096 1.3431491,-1.21694712 0,-0.08113 -0.063101,-0.1081731 -0.1171875,-0.1081731 -0.099159,0 -0.1171875,0.054087 -0.1352164,0.1352164 -0.1622596,0.53185094 -0.6129808,0.96454325 -1.0817308,0.96454325 -0.2614182,0 -0.4507211,-0.17127404 -0.4507211,-0.5048077 0,-0.16225961 0.045072,-0.3515625 0.1622596,-0.79326925 0.054087,-0.2433894 0.2253606,-0.9375 0.2704327,-1.0907452 0.1081731,-0.4146634 0.3876202,-0.7572115 0.7481971,-0.7572115 0.036058,0 0.2433894,0 0.4146635,0.1081731 z m 0,0" style="fill:#121619;fill-opacity:1;fill-rule:nonzero;stroke:none" />
      <path id="path84" d="m 8.876095,1.8037692 1.433293,-3.9933894 -1.433293,-3.9933894 -0.4777645,0.171274 1.4332933,3.8221154 -1.4332933,3.813101 z m 9.688251,-22.2025242 v -0.423678 c -0.982572,0 -1.884014,0.658053 -1.884014,1.604568 v 3.335336 h 0.504807 v -3.344351 c 0,-0.685096 0.658053,-1.171875 1.379207,-1.171875 z m -1.884014,3.934796 v 2.848558 h 0.504807 v -2.848558 z m 0,2.341496 v 2.848558 h 0.504807 v -2.848558 z m 0,2.34375 v 2.848558 h 0.504807 v -2.848558 z m 0,2.3437503 v 2.8485577 h 0.504807 v -2.8485577 z m 0,2.34375 v 2.8485577 h 0.504807 v -2.8485577 z m 0.504807,2.3414964 h -0.504807 v 1.2530048 c 0,0.640024 -0.612981,1.0817307 -1.289063,1.108774 h -0.08113 v 0.46875 c 0.71214,0 1.370193,0.4417067 1.370193,1.10877404 v 1.25300481 h 0.504807 v -1.26201923 c 0,-0.59495192 -0.360577,-1.06370192 -0.883413,-1.33413462 0.522836,-0.2614183 0.883413,-0.7481971 0.883413,-1.343149 z m -0.504807,4.61087736 V 2.7097188 h 0.504807 v -2.84855774 z m 0,2.34375004 v 2.8485577 h 0.504807 V 2.2049111 Z m 0,2.34375 v 2.8485577 h 0.504807 V 4.5486611 Z m 0,2.34375 v 2.8485577 h 0.504807 V 6.8924111 Z m 0,2.34375 v 2.8485579 h 0.504807 V 9.2361611 Z m 1.884014,7.2813999 v -0.423678 c -0.721154,0 -1.379207,-0.486778 -1.379207,-1.171875 v -3.344351 h -0.504807 v 3.344351 c 0,0.9375 0.901442,1.595553 1.884014,1.595553 z m 0,0" style="fill:#121619;fill-opacity:1;fill-rule:nonzero;stroke:none" />
    </g>
    <g id="g84" aria-label="∣0&#10;k&#10;⟩&#10;⎧&#10;⎪&#10;⎪&#10;⎪&#10;⎪&#10;⎪&#10;⎪&#10;⎪&#10;⎨&#10;⎪&#10;⎪&#10;⎪&#10;⎪&#10;⎪&#10;⎪&#10;⎪&#10;⎩" transform="matrix(1.7333333,0,0,1.7333333,110.44413,167.41787)">
      <path id="path85" d="m 1.1995986,-6.0936911 v 7.8064904 h 0.5048077 v -7.8064904 z m 0,0" style="fill:#121619;fill-opacity:1;fill-rule:nonzero;stroke:none" />
      <path id="path86" d="m 6.7953017,-2.5420084 c 0,-0.8563702 -0.08113,-1.3701923 -0.3515625,-1.8840144 -0.3515625,-0.6941106 -0.9915866,-0.8743991 -1.4332933,-0.8743991 -1.0006009,0 -1.3701923,0.7481971 -1.4783654,0.9735577 -0.2884615,0.5859375 -0.3064904,1.3701923 -0.3064904,1.7848558 0,0.5228365 0.027043,1.3341346 0.4056491,1.96514422 0.3695913,0.59495192 0.9555288,0.74819711 1.3792067,0.74819711 0.3876202,0 1.0727164,-0.12620192 1.469351,-0.91045673 0.2974759,-0.5769231 0.3155048,-1.2890625 0.3155048,-1.8028846 z m -1.7848558,2.48798076 c -0.2704327,0 -0.8203125,-0.12620193 -0.9825721,-0.96454326 -0.090144,-0.4597356 -0.090144,-1.2079327 -0.090144,-1.6225962 0,-0.5498798 0,-1.0997596 0.090144,-1.5414663 0.1622596,-0.8112981 0.7842548,-0.8924279 0.9825721,-0.8924279 0.2704327,0 0.8203125,0.1352163 0.9825721,0.8563702 0.099159,0.4417067 0.099159,1.0366586 0.099159,1.577524 0,0.4777645 0,1.1899039 -0.099159,1.640625 -0.171274,0.82932696 -0.7211538,0.94651446 -0.9825721,0.94651446 z m 0,0" style="fill:#121619;fill-opacity:1;fill-rule:nonzero;stroke:none" />
      <path id="path87" d="m 9.1187692,-8.1106683 c 0.00901,-0.027043 0.018029,-0.063101 0.018029,-0.090144 0,-0.099159 -0.1171875,-0.090144 -0.1893029,-0.08113 l -0.6670673,0.054087 c -0.1081731,0 -0.1802885,0.00901 -0.1802885,0.1532452 0,0.090144 0.072115,0.090144 0.1712741,0.090144 0.171274,0 0.2163461,0.018029 0.2884615,0.036058 0,0.072115 0,0.090144 -0.018029,0.1802885 l -0.8383414,3.344351 c -0.027043,0.090144 -0.027043,0.1262019 -0.027043,0.1352163 0,0.1532452 0.126202,0.2073317 0.2163462,0.2073317 0.054087,0 0.1622596,-0.027043 0.2433894,-0.1442307 0.036058,-0.072115 0.2794471,-1.0637019 0.3245192,-1.2620193 0.3966347,0.036058 0.829327,0.126202 0.829327,0.4867789 0,0.027043 0,0.054086 -0.018029,0.1171875 -0.018029,0.090144 -0.018029,0.1262019 -0.018029,0.1802885 0,0.3876201 0.3335336,0.6219951 0.6760817,0.6219951 0.5769228,0 0.7842548,-0.874399 0.7842548,-0.9194711 0,-0.018029 -0.009,-0.090144 -0.108173,-0.090144 -0.09014,0 -0.09916,0.036058 -0.126202,0.1352163 -0.0631,0.2163462 -0.234375,0.6760817 -0.5318509,0.6760817 -0.234375,0 -0.234375,-0.2614182 -0.234375,-0.3245192 0,-0.099159 0,-0.099159 0.036058,-0.2253606 0,0 0.027043,-0.1262019 0.027043,-0.1893029 0,-0.46875 -0.5228365,-0.6039663 -0.9825721,-0.6490384 0.1442308,-0.090144 0.2704327,-0.1893029 0.5138221,-0.3966346 0.297476,-0.2614183 0.6039664,-0.5228366 0.9374999,-0.5228366 0.07212,0 0.144231,0.018029 0.198317,0.08113 -0.207331,0.045072 -0.297476,0.2073318 -0.297476,0.3335337 0,0.1893029 0.153246,0.234375 0.24339,0.234375 0.126202,0 0.342548,-0.099159 0.342548,-0.3966346 0,-0.2524039 -0.189303,-0.4417068 -0.486779,-0.4417068 -0.3695912,0 -0.7211537,0.2794472 -1.0006008,0.5228366 -0.3064904,0.2704327 -0.4957933,0.4236779 -0.7211539,0.5048077 z m 0,0" style="fill:#121619;fill-opacity:1;fill-rule:nonzero;stroke:none" />
      <path id="path88" d="m 12.916095,1.8029435 1.433293,-3.9933894 -1.433293,-3.9933894 -0.477764,0.171274 1.433293,3.8221154 -1.433293,3.8131009 z m 9.688251,-26.8900245 v -0.423677 c -0.982572,0 -1.884014,0.658052 -1.884014,1.604567 v 3.335336 h 0.504807 v -3.344351 c 0,-0.685096 0.658053,-1.171875 1.379207,-1.171875 z m -1.884014,3.93705 v 2.848557 h 0.504807 v -2.848557 z m 0,2.341496 v 2.848558 h 0.504807 v -2.848558 z m 0,2.34375 v 2.848558 h 0.504807 v -2.848558 z m 0,2.34375 v 2.848558 h 0.504807 v -2.848558 z m 0,2.34375 v 2.8485578 h 0.504807 v -2.8485578 z m 0,2.3414965 v 2.8485577 h 0.504807 v -2.8485577 z m 0,2.34375 v 2.8485577 h 0.504807 v -2.8485577 z m 0.504807,2.34375 h -0.504807 v 1.2530048 c 0,0.6400241 -0.612981,1.0817308 -1.289063,1.1087741 h -0.08113 v 0.46875 c 0.71214,0 1.370193,0.4417067 1.370193,1.10877402 v 1.25300481 h 0.504807 V -0.818 c 0,-0.5949519 -0.360576,-1.0637019 -0.883413,-1.3341346 0.522837,-0.2614183 0.883413,-0.7481971 0.883413,-1.3431491 z m -0.504807,4.61087744 V 2.7111466 h 0.504807 v -2.84855766 z m 0,2.34374996 v 2.8485577 h 0.504807 V 2.2063389 Z m 0,2.3414964 V 7.396393 h 0.504807 V 4.5478353 Z m 0,2.34375 V 9.740143 h 0.504807 V 6.8915853 Z m 0,2.34375 v 2.8485577 h 0.504807 V 9.2353353 Z m 0,2.3437497 v 2.848558 h 0.504807 v -2.848558 z m 0,2.341497 v 2.848557 h 0.504807 v -2.848557 z m 1.884014,7.283654 v -0.423678 c -0.721154,0 -1.379207,-0.486779 -1.379207,-1.171875 v -3.344351 h -0.504807 v 3.344351 c 0,0.9375 0.901442,1.595553 1.884014,1.595553 z m 0,0" style="fill:#121619;fill-opacity:1;fill-rule:nonzero;stroke:none" />
    </g>
    <g id="g88" aria-label="∣y⟩&#10;⎧&#10;⎪&#10;⎪&#10;⎪&#10;⎨&#10;⎪&#10;⎪&#10;⎪&#10;⎩" transform="matrix(1.7333333,0,0,1.7333333,117.95987,256.61347)">
      <path id="path89" d="M 1.1995361,-6.093857 V 1.7126334 H 1.7043438 V -6.093857 Z m 0,0" style="fill:#121619;fill-opacity:1;fill-rule:nonzero;stroke:none" />
      <path id="path90" d="m 7.0296142,-3.0019099 c 0.027043,-0.1171875 0.027043,-0.1262019 0.027043,-0.1893028 0,-0.1983173 -0.1532452,-0.2433895 -0.2524039,-0.2433895 -0.036058,0 -0.2253606,0.00901 -0.3245192,0.2163462 -0.018029,0.036058 -0.090144,0.3245192 -0.1262019,0.4957933 L 5.875768,-0.81140505 c -0.00901,0.0180288 -0.3515625,0.66706731 -0.9375,0.66706731 -0.3876202,0 -0.5228365,-0.28846154 -0.5228365,-0.64903846 0,-0.4597356 0.2704327,-1.1628606 0.4507211,-1.6316106 0.08113,-0.1983173 0.1081731,-0.2704327 0.1081731,-0.4146634 0,-0.4326923 -0.3515625,-0.6760818 -0.7211538,-0.6760818 -0.7842548,0 -1.1087741,1.1268029 -1.1087741,1.2169471 0,0.072115 0.054087,0.1081731 0.1171875,0.1081731 0.099159,0 0.1081731,-0.045072 0.1352164,-0.1262019 0.2073317,-0.6941106 0.5498798,-0.9735577 0.8383413,-0.9735577 0.1171875,0 0.1893029,0.08113 0.1893029,0.2614183 0,0.171274 -0.063101,0.3515625 -0.1171875,0.4957932 -0.3335336,0.8473558 -0.46875,1.2530049 -0.46875,1.6225962 0,0.78425481 0.5949519,0.99158654 1.0637019,0.99158654 0.3695914,0 0.6400241,-0.17127404 0.8383414,-0.3515625 C 5.6233642,0.17116707 5.5422344,0.48667188 5.2447584,0.86527764 4.9833401,1.1988113 4.6588209,1.406143 4.3072584,1.406143 4.1720421,1.406143 3.8655517,1.3790998 3.7032921,1.1357103 4.12697,1.1086671 4.1630276,0.74809014 4.1630276,0.70301803 c 0,-0.18930289 -0.1442307,-0.29747596 -0.3155048,-0.29747596 -0.171274,0 -0.4507211,0.13521634 -0.4507211,0.52283654 0,0.37860579 0.3425481,0.69411059 0.9104567,0.69411059 0.8112981,0 1.7217548,-0.64903848 1.9651442,-1.61358175 z m 0,0" style="fill:#121619;fill-opacity:1;fill-rule:nonzero;stroke:none" />
      <path id="path91" d="m 8.580095,1.8027776 1.433293,-3.9933894 -1.433293,-3.9933894 -0.4777645,0.171274 1.4332933,3.8221154 -1.4332933,3.813101 z M 18.2706,-15.7145 v -0.423678 c -0.982572,0 -1.884015,0.658053 -1.884015,1.604567 v 3.335337 h 0.504808 v -3.344351 c 0,-0.685096 0.658053,-1.171875 1.379207,-1.171875 z m -1.884015,3.937049 v 2.848558 h 0.504808 v -2.848558 z m 0,2.3437503 v 2.8485577 h 0.504808 v -2.8485577 z m 0,2.3414964 v 2.8485577 h 0.504808 v -2.8485577 z m 0.504808,2.34375 h -0.504808 v 1.2530048 c 0,0.640024 -0.61298,1.0817308 -1.289062,1.108774 h -0.08113 v 0.46875 c 0.712139,0 1.370192,0.4417068 1.370192,1.10877406 v 1.25300481 h 0.504808 v -1.26201924 c 0,-0.59495193 -0.360577,-1.06370193 -0.883413,-1.33413463 0.522836,-0.2614182 0.883413,-0.7481971 0.883413,-1.343149 z m -0.504808,4.61087738 V 2.7109808 h 0.504808 v -2.84855772 z m 0,2.34375002 v 2.8485577 h 0.504808 V 2.2061731 Z m 0,2.3414964 v 2.8485577 h 0.504808 V 4.5476695 Z M 18.2706,11.831323 v -0.423678 c -0.721154,0 -1.379207,-0.486778 -1.379207,-1.171875 V 6.8914195 H 16.386585 V 10.23577 c 0,0.9375 0.901443,1.595553 1.884015,1.595553 z m 0,0" style="fill:#121619;fill-opacity:1;fill-rule:nonzero;stroke:none" />
    </g>
    <g id="g91" aria-label="⎫&#10;⎪&#10;⎪&#10;⎪&#10;⎪&#10;⎪&#10;⎬&#10;⎪&#10;⎪&#10;⎪&#10;⎪&#10;⎪&#10;⎭&#10;∣x⟩" transform="matrix(1.7333333,0,0,1.7333333,410.5916,49.8892)">
      <path id="path92" d="m 0.72014062,-4.5334327 v 0.4236779 c 0.72115388,0 1.37019228,0.4867788 1.37019228,1.171875 V 0.40647115 H 2.5951406 V -2.9378798 c 0,-0.9465144 -0.8924279,-1.5955529 -1.87499998,-1.5955529 z M 2.0903329,-0.17495913 V 2.6735986 h 0.5048077 v -2.84855773 z m 0,2.34149643 V 5.015095 H 2.5951406 V 2.1665373 Z m 0,2.34375 V 7.358845 H 2.5951406 V 4.5102873 Z m 0,2.34375 V 9.702595 H 2.5951406 V 6.8540373 Z m 0,2.34375 V 12.046345 H 2.5951406 V 9.1977873 Z m 0,7.5338037 h 0.5048077 v -1.262019 c 0,-0.631009 0.6129808,-1.072716 1.2890625,-1.099759 h 0.090144 v -0.46875 c -0.7121395,0 -1.3792068,-0.441707 -1.3792068,-1.108775 V 11.539284 H 2.0903329 v 1.253004 c 0,0.603967 0.360577,1.072717 0.8924279,1.34315 -0.5318509,0.261418 -0.8924279,0.748197 -0.8924279,1.343149 z m 0,-0.58143 v 2.848558 h 0.5048077 v -2.848558 z m 0,2.34375 v 2.848558 h 0.5048077 v -2.848558 z m 0,2.34375 v 2.848558 h 0.5048077 v -2.848558 z m 0,2.34375 v 2.848558 h 0.5048077 v -2.848558 z m 0,2.34375 v 2.848558 h 0.5048077 v -2.848558 z m -1.37019228,6.857722 v 0.423678 c 0.98257208,0 1.87499998,-0.667067 1.87499998,-1.604567 V 27.866657 H 2.0903329 v 3.344351 c 0,0.685097 -0.6490384,1.171875 -1.37019228,1.171875 z M 9.4348341,10.196135 v 7.80649 h 0.5048077 v -7.80649 z m 0,0" style="fill:#121619;fill-opacity:1;fill-rule:nonzero;stroke:none" />
      <path id="path93" d="m 15.13195,13.107793 c -0.351563,0.09015 -0.369592,0.396635 -0.369592,0.432693 0,0.171274 0.135217,0.297476 0.315505,0.297476 0.171274,0 0.441707,-0.135217 0.441707,-0.477765 0,-0.459735 -0.495794,-0.585937 -0.79327,-0.585937 -0.378605,0 -0.676081,0.261418 -0.865384,0.576923 -0.171274,-0.423678 -0.585938,-0.576923 -0.910457,-0.576923 -0.874399,0 -1.361178,1.000601 -1.361178,1.216947 0,0.07212 0.0631,0.108173 0.126202,0.108173 0.09014,0 0.108173,-0.04507 0.135217,-0.135217 0.180288,-0.585937 0.658052,-0.964543 1.072716,-0.964543 0.30649,0 0.459735,0.225361 0.459735,0.504808 0,0.16226 -0.09014,0.531851 -0.153245,0.784255 -0.0631,0.234375 -0.234375,0.9375 -0.270432,1.090745 -0.117188,0.432692 -0.405649,0.766226 -0.757212,0.766226 -0.03606,0 -0.243389,0 -0.414663,-0.108173 0.369591,-0.09014 0.369591,-0.423678 0.369591,-0.432693 0,-0.180288 -0.144231,-0.297475 -0.315505,-0.297475 -0.216346,0 -0.450721,0.189302 -0.450721,0.486778 0,0.369592 0.396635,0.576923 0.802284,0.576923 0.423677,0 0.712139,-0.324519 0.85637,-0.576923 0.180288,0.396635 0.540865,0.576923 0.928485,0.576923 0.865385,0 1.343149,-1.000601 1.343149,-1.216947 0,-0.08113 -0.0631,-0.108173 -0.117187,-0.108173 -0.09916,0 -0.117188,0.05409 -0.135216,0.135217 -0.16226,0.531851 -0.612981,0.964543 -1.081731,0.964543 -0.261418,0 -0.450721,-0.171274 -0.450721,-0.504808 0,-0.162259 0.04507,-0.351562 0.162259,-0.793269 0.05409,-0.243389 0.225361,-0.9375 0.270433,-1.090745 0.108173,-0.414664 0.38762,-0.757212 0.748197,-0.757212 0.03606,0 0.243389,0 0.414664,0.108173 z m 0,0" style="fill:#121619;fill-opacity:1;fill-rule:nonzero;stroke:none" />
      <path id="path94" d="m 17.112869,18.092769 1.433293,-3.993389 -1.433293,-3.99339 -0.477764,0.171274 1.433293,3.822116 -1.433293,3.813101 z m 0,0" style="fill:#121619;fill-opacity:1;fill-rule:nonzero;stroke:none" />
    </g>
    <g id="g94" aria-label="⎫&#10;⎪&#10;⎪&#10;⎪&#10;⎪&#10;⎪&#10;⎪&#10;⎪&#10;⎬&#10;⎪&#10;⎪&#10;⎪&#10;⎪&#10;⎪&#10;⎪&#10;⎪&#10;⎭&#10;∣0&#10;k&#10;⟩" transform="matrix(1.7333333,0,0,1.7333333,410.5916,131.05947)">
      <path id="path95" d="m 0.72014062,-4.5347584 v 0.4236779 c 0.72115388,0 1.37019228,0.4867788 1.37019228,1.171875 V 0.40514543 H 2.5951406 V -2.9392055 c 0,-0.9465145 -0.8924279,-1.5955529 -1.87499998,-1.5955529 z M 2.0903329,-0.17403125 V 2.6745264 h 0.5048077 v -2.84855765 z m 0,2.34149635 V 5.0160228 H 2.5951406 V 2.1674651 Z m 0,2.34375 V 7.3597728 H 2.5951406 V 4.5112151 Z m 0,2.34375 V 9.7035228 H 2.5951406 V 6.8549651 Z m 0,2.34375 V 12.047273 H 2.5951406 V 9.1987151 Z m 0,2.3414969 v 2.848557 h 0.5048077 v -2.848557 z m 0,2.34375 v 2.848557 h 0.5048077 v -2.848557 z m 0,7.536057 H 2.5951406 V 20.158 c 0,-0.63101 0.6129808,-1.072716 1.2890625,-1.09976 h 0.090144 v -0.46875 c -0.7121395,0 -1.3792068,-0.441706 -1.3792068,-1.108774 V 16.227712 H 2.0903329 v 1.253004 c 0,0.603967 0.360577,1.072717 0.8924279,1.343149 -0.5318509,0.261419 -0.8924279,0.748198 -0.8924279,1.343149 z m 0,-0.58143 v 2.848558 h 0.5048077 v -2.848558 z m 0,2.34375 v 2.848558 h 0.5048077 v -2.848558 z m 0,2.341496 v 2.848558 h 0.5048077 v -2.848558 z m 0,2.34375 v 2.848558 h 0.5048077 v -2.848558 z m 0,2.34375 v 2.848558 h 0.5048077 v -2.848558 z m 0,2.34375 v 2.848558 h 0.5048077 v -2.848558 z m 0,2.341497 v 2.848557 h 0.5048077 v -2.848557 z m -1.37019228,6.859976 v 0.423678 c 0.98257208,0 1.87499998,-0.667068 1.87499998,-1.604568 V 37.240332 H 2.0903329 v 3.344351 c 0,0.685096 -0.6490384,1.171875 -1.37019228,1.171875 z M 9.4348341,14.882309 v 7.80649 h 0.5048077 v -7.80649 z m 0,0" style="fill:#121619;fill-opacity:1;fill-rule:nonzero;stroke:none" />
      <path id="path96" d="m 15.032791,18.433992 c 0,-0.856371 -0.08113,-1.370193 -0.351563,-1.884015 -0.351562,-0.69411 -0.991586,-0.874399 -1.433293,-0.874399 -1.000601,0 -1.370192,0.748197 -1.478365,0.973558 -0.288462,0.585937 -0.306491,1.370192 -0.306491,1.784856 0,0.522836 0.02704,1.334134 0.405649,1.965144 0.369592,0.594952 0.955529,0.748197 1.379207,0.748197 0.38762,0 1.072716,-0.126202 1.469351,-0.910457 0.297476,-0.576923 0.315505,-1.289062 0.315505,-1.802884 z m -1.784856,2.48798 c -0.270433,0 -0.820312,-0.126202 -0.982572,-0.964543 -0.09014,-0.459735 -0.09014,-1.207933 -0.09014,-1.622596 0,-0.54988 0,-1.09976 0.09014,-1.541466 0.16226,-0.811298 0.784255,-0.892428 0.982572,-0.892428 0.270433,0 0.820313,0.135216 0.982572,0.85637 0.09916,0.441707 0.09916,1.036659 0.09916,1.577524 0,0.477764 0,1.189904 -0.09916,1.640625 -0.171274,0.829327 -0.721154,0.946514 -0.982572,0.946514 z m 0,0" style="fill:#121619;fill-opacity:1;fill-rule:nonzero;stroke:none" />
      <path id="path97" d="m 17.356258,12.865332 c 0.009,-0.02704 0.01803,-0.0631 0.01803,-0.09014 0,-0.09916 -0.117187,-0.09014 -0.189303,-0.08113 l -0.667067,0.05409 c -0.108173,0 -0.180288,0.009 -0.180288,0.153245 0,0.09014 0.07212,0.09014 0.171274,0.09014 0.171274,0 0.216346,0.01803 0.288461,0.03606 0,0.07212 0,0.09015 -0.01803,0.180289 l -0.838341,3.344351 c -0.02704,0.09014 -0.02704,0.126202 -0.02704,0.135216 0,0.153245 0.126202,0.207332 0.216346,0.207332 0.05409,0 0.162259,-0.02704 0.243389,-0.144231 0.03606,-0.07212 0.279447,-1.063702 0.32452,-1.262019 0.396634,0.03606 0.829326,0.126202 0.829326,0.486779 0,0.02704 0,0.05409 -0.01803,0.117187 -0.01803,0.09014 -0.01803,0.126202 -0.01803,0.180289 0,0.38762 0.333533,0.621995 0.676081,0.621995 0.576924,0 0.784255,-0.874399 0.784255,-0.919471 0,-0.01803 -0.009,-0.09014 -0.108173,-0.09014 -0.09014,0 -0.09916,0.03606 -0.126202,0.135217 -0.0631,0.216346 -0.234375,0.676082 -0.531851,0.676082 -0.234375,0 -0.234375,-0.261419 -0.234375,-0.32452 0,-0.09916 0,-0.09916 0.03606,-0.22536 0,0 0.02704,-0.126202 0.02704,-0.189303 0,-0.46875 -0.522836,-0.603966 -0.982572,-0.649039 0.144231,-0.09014 0.270433,-0.189302 0.513822,-0.396634 0.297476,-0.261418 0.603967,-0.522837 0.9375,-0.522837 0.07212,0 0.144231,0.01803 0.198318,0.08113 -0.207332,0.04507 -0.297476,0.207332 -0.297476,0.333534 0,0.189303 0.153245,0.234375 0.243389,0.234375 0.126202,0 0.342548,-0.09916 0.342548,-0.396635 0,-0.252404 -0.189303,-0.441707 -0.486779,-0.441707 -0.369591,0 -0.721154,0.279447 -1.000601,0.522837 -0.30649,0.270433 -0.495793,0.423678 -0.721154,0.504808 z m 0,0" style="fill:#121619;fill-opacity:1;fill-rule:nonzero;stroke:none" />
      <path id="path98" d="m 21.153584,22.778944 1.433293,-3.99339 -1.433293,-3.993389 -0.477764,0.171274 1.433293,3.822115 -1.433293,3.813101 z m 0,0" style="fill:#121619;fill-opacity:1;fill-rule:nonzero;stroke:none" />
    </g>
    <g id="g98" aria-label="⎫&#10;⎪&#10;⎪&#10;⎪&#10;⎬&#10;⎪&#10;⎪&#10;⎪&#10;⎭&#10;∣y⊕f(x)⟩" transform="matrix(1.7333333,0,0,1.7333333,410.5916,236.5016)">
      <path id="path99" d="M 0.72014062,-4.5351779 V -4.1115 c 0.72115388,0 1.37019228,0.4867788 1.37019228,1.171875 V 0.40472596 H 2.5951406 V -2.939625 c 0,-0.9465144 -0.8924279,-1.5955529 -1.87499998,-1.5955529 z M 2.0903329,-0.17445072 V 2.674107 h 0.5048077 v -2.84855772 z m 0,2.34375002 V 5.017857 H 2.5951406 V 2.1692993 Z m 0,2.3414964 V 7.3593534 H 2.5951406 V 4.5107957 Z m 0,7.5360573 h 0.5048077 v -1.262019 c 0,-0.631009 0.6129808,-1.0727162 1.2890625,-1.0997595 h 0.090144 v -0.46875 c -0.7121395,0 -1.3792068,-0.4417067 -1.3792068,-1.108774 V 6.8545457 H 2.0903329 v 1.2530048 c 0,0.6039663 0.360577,1.0727163 0.8924279,1.343149 C 2.4509099,9.7121178 2.0903329,10.198897 2.0903329,10.793849 Z m 0,-0.58143 v 2.848558 h 0.5048077 v -2.848558 z m 0,2.34375 v 2.848558 h 0.5048077 v -2.848558 z m 0,2.341496 v 2.848558 h 0.5048077 v -2.848558 z m -1.37019228,6.859976 v 0.423678 c 0.98257208,0 1.87499998,-0.667067 1.87499998,-1.604567 V 18.494419 H 2.0903329 v 3.344351 c 0,0.685097 -0.6490384,1.171875 -1.37019228,1.171875 z M 9.4348341,5.509143 v 7.80649 h 0.5048077 v -7.80649 z m 0,0" style="fill:#121619;fill-opacity:1;fill-rule:nonzero;stroke:none" />
      <path id="path100" d="m 15.267166,8.6010901 c 0.02704,-0.1171875 0.02704,-0.1262019 0.02704,-0.1893028 0,-0.1983173 -0.153245,-0.2433895 -0.252404,-0.2433895 -0.03606,0 -0.22536,0.00901 -0.324519,0.2163462 -0.01803,0.036058 -0.09014,0.3245192 -0.126202,0.4957933 L 14.11332,10.791595 c -0.009,0.01803 -0.351563,0.667067 -0.9375,0.667067 -0.38762,0 -0.522837,-0.288461 -0.522837,-0.649038 0,-0.459736 0.270433,-1.1628608 0.450721,-1.6316108 0.08113,-0.1983173 0.108173,-0.2704327 0.108173,-0.4146634 0,-0.4326923 -0.351562,-0.6760818 -0.721153,-0.6760818 -0.784255,0 -1.108774,1.1268029 -1.108774,1.2169471 0,0.072115 0.05409,0.1081731 0.117187,0.1081731 0.09916,0 0.108173,-0.045072 0.135216,-0.1262019 0.207332,-0.6941106 0.54988,-0.9735577 0.838342,-0.9735577 0.117187,0 0.189303,0.08113 0.189303,0.2614183 0,0.171274 -0.0631,0.3515625 -0.117188,0.4957932 -0.333534,0.8473558 -0.46875,1.2530049 -0.46875,1.6225959 0,0.784255 0.594952,0.991587 1.063702,0.991587 0.369591,0 0.640024,-0.171274 0.838341,-0.351563 -0.117187,0.441707 -0.198317,0.757212 -0.495793,1.135818 -0.261418,0.333533 -0.585937,0.540865 -0.9375,0.540865 -0.135216,0 -0.441707,-0.02704 -0.603966,-0.270433 0.423678,-0.02704 0.459735,-0.38762 0.459735,-0.432692 0,-0.189303 -0.14423,-0.297476 -0.315504,-0.297476 -0.171275,0 -0.450722,0.135216 -0.450722,0.522837 0,0.378605 0.342548,0.69411 0.910457,0.69411 0.811298,0 1.721755,-0.649038 1.965144,-1.613582 z m 0,0" style="fill:#121619;fill-opacity:1;fill-rule:nonzero;stroke:none" />
      <path id="path101" d="m 20.229606,9.1599844 h -1.604568 c 0.05409,-0.4056491 0.24339,-0.7842548 0.531851,-1.0817308 0.297476,-0.2884615 0.667068,-0.4777644 1.072717,-0.531851 z m 0.513822,0 V 7.5464026 c 0.405649,0.054087 0.784255,0.2433895 1.072716,0.531851 0.288462,0.297476 0.477765,0.6760817 0.540866,1.0817308 z M 20.229606,9.6647921 V 11.278374 C 19.823957,11.224287 19.454365,11.02597 19.156889,10.746523 18.868428,10.449047 18.679125,10.070441 18.625038,9.6647921 Z m 0.513822,0 h 1.613582 c -0.0631,0.4056489 -0.252404,0.7842549 -0.540866,1.0817309 -0.288461,0.279447 -0.667067,0.477764 -1.072716,0.531851 z m 2.136418,-0.2524039 c 0,-0.640024 -0.252404,-1.2439904 -0.703125,-1.6947115 -0.441707,-0.4507212 -1.054687,-0.6941106 -1.685697,-0.6941106 -0.640024,0 -1.234976,0.2433894 -1.694712,0.6941106 -0.441706,0.4507211 -0.69411,1.0546875 -0.69411,1.6947115 0,0.6400238 0.252404,1.2439908 0.69411,1.6947118 0.459736,0.450721 1.054688,0.69411 1.694712,0.69411 0.63101,0 1.24399,-0.243389 1.685697,-0.69411 0.450721,-0.450721 0.703125,-1.054688 0.703125,-1.6947118 z m 0,0" style="fill:#121619;fill-opacity:1;fill-rule:nonzero;stroke:none" />
      <path id="path102" d="m 28.423716,8.4298161 h 0.739183 c 0.153245,0 0.252404,0 0.252404,-0.1532452 0,-0.1081731 -0.09916,-0.1081731 -0.234375,-0.1081731 h -0.71214 C 28.59499,7.447244 28.67612,6.9965228 28.75725,6.6359459 28.78429,6.5007296 28.81134,6.4195998 28.928524,6.3204411 29.036697,6.2302971 29.099798,6.212268 29.180928,6.212268 c 0.126202,0 0.252404,0.027043 0.351562,0.090144 -0.03606,0.018029 -0.08113,0.045072 -0.126202,0.063101 -0.135216,0.072115 -0.22536,0.2163462 -0.22536,0.3786058 0,0.1802885 0.135216,0.2884615 0.315505,0.2884615 0.234375,0 0.441706,-0.1983173 0.441706,-0.4777644 0,-0.3695913 -0.378605,-0.5588942 -0.757211,-0.5588942 -0.279447,0 -0.775241,0.1262019 -1.027644,0.8563702 -0.07212,0.1802884 -0.07212,0.1983173 -0.288462,1.3161057 h -0.603966 c -0.153245,0 -0.252404,0 -0.252404,0.1532452 0,0.1081731 0.108173,0.1081731 0.243389,0.1081731 h 0.558895 l -0.567909,3.0919471 c -0.153245,0.802284 -0.270433,1.48738 -0.694111,1.48738 -0.02704,0 -0.189303,0 -0.342548,-0.09916 0.360577,-0.09014 0.360577,-0.423678 0.360577,-0.432692 0,-0.180288 -0.135216,-0.288461 -0.315505,-0.288461 -0.216346,0 -0.441706,0.180288 -0.441706,0.477764 0,0.342548 0.342548,0.558894 0.739182,0.558894 0.486779,0 0.820313,-0.504808 0.919471,-0.703125 0.288462,-0.531851 0.477765,-1.523437 0.486779,-1.604567 z m 0,0" style="fill:#121619;fill-opacity:1;fill-rule:nonzero;stroke:none" />
      <path id="path103" d="m 33.054876,12.955056 c -1.054687,-0.838341 -1.478365,-2.190504 -1.478365,-3.5426678 0,-1.3521634 0.423678,-2.7133413 1.478365,-3.5426682 L 32.694299,5.509143 c -1.153846,0.9194712 -1.622596,2.4158654 -1.622596,3.9032452 0,1.4873798 0.46875,2.9837738 1.622596,3.9032448 z m 0,0" style="fill:#121619;fill-opacity:1;fill-rule:nonzero;stroke:none" />
      <path id="path104" d="m 37.807731,8.4208017 c -0.351563,0.090144 -0.369592,0.3966346 -0.369592,0.4326923 0,0.171274 0.135217,0.297476 0.315505,0.297476 0.171274,0 0.441707,-0.1352164 0.441707,-0.4777645 0,-0.4597355 -0.495793,-0.5859375 -0.793269,-0.5859375 -0.378606,0 -0.676082,0.2614183 -0.865385,0.5769231 C 36.365423,8.2405132 35.95076,8.087268 35.62624,8.087268 c -0.874399,0 -1.361178,1.000601 -1.361178,1.2169471 0,0.072115 0.0631,0.1081731 0.126202,0.1081731 0.09014,0 0.108173,-0.045072 0.135217,-0.1352163 0.180288,-0.5859375 0.658053,-0.9645433 1.072716,-0.9645433 0.30649,0 0.459736,0.2253606 0.459736,0.5048077 0,0.1622596 -0.09014,0.531851 -0.153246,0.7842548 -0.0631,0.234375 -0.234375,0.9374999 -0.270432,1.0907449 -0.117188,0.432693 -0.405649,0.766226 -0.757212,0.766226 -0.03606,0 -0.243389,0 -0.414663,-0.108173 0.369591,-0.09014 0.369591,-0.423678 0.369591,-0.432692 0,-0.180289 -0.144231,-0.297476 -0.315505,-0.297476 -0.216346,0 -0.450721,0.189303 -0.450721,0.486779 0,0.369591 0.396635,0.576923 0.802284,0.576923 0.423678,0 0.712139,-0.324519 0.85637,-0.576923 0.180288,0.396634 0.540865,0.576923 0.928486,0.576923 0.865384,0 1.343149,-1.000601 1.343149,-1.216947 0,-0.08113 -0.0631,-0.108173 -0.117188,-0.108173 -0.09916,0 -0.117187,0.05409 -0.135216,0.135216 -0.16226,0.531851 -0.612981,0.964543 -1.081731,0.964543 -0.261418,0 -0.450721,-0.171274 -0.450721,-0.504807 0,-0.16226 0.04507,-0.351563 0.162259,-0.79327 0.05409,-0.2433891 0.225361,-0.9374997 0.270433,-1.0907449 0.108173,-0.4146634 0.38762,-0.7572115 0.748197,-0.7572115 0.03606,0 0.24339,0 0.414664,0.1081731 z m 0,0" style="fill:#121619;fill-opacity:1;fill-rule:nonzero;stroke:none" />
      <path id="path105" d="m 39.698506,13.315633 c 1.153846,-0.919471 1.622596,-2.415865 1.622596,-3.9032448 0,-1.4873798 -0.46875,-2.983774 -1.622596,-3.9032452 L 39.337929,5.86972 c 1.054688,0.8383413 1.478365,2.1905048 1.478365,3.5426682 0,1.3521638 -0.432692,2.7043268 -1.487379,3.5426678 0.117187,0.126202 0.252404,0.24339 0.369591,0.360577 z m 3.589994,0.09014 1.433293,-3.9933898 -1.433293,-3.9933894 -0.477764,0.171274 1.433293,3.8221154 -1.433293,3.8131008 z m 0,0" style="fill:#121619;fill-opacity:1;fill-rule:nonzero;stroke:none" />
    </g>
  </g>
</svg>