<?xml version='1.0' encoding='utf-8'?>
<svg xmlns="http://www.w3.org/2000/svg" xmlns:ns1="http://sodipodi.sourceforge.net/DTD/sodipodi-0.dtd" xmlns:ns2="http://www.inkscape.org/namespaces/inkscape" version="1.1" id="svg1" width="100%" height="auto" viewBox="-20.0 -20.0 440.375 339.98001" ns1:docname="svg_fix_XXXXXX.svg">
  <rect id="path1" x="-20.0" y="-20.0" width="440.375" height="339.98001" fill="white" /><ns1:namedview id="namedview1" pagecolor="#ffffff" bordercolor="#000000" borderopacity="0.25" ns2:showpageshadow="2" ns2:pageopacity="0.0" ns2:pagecheckerboard="0" ns2:deskcolor="#d1d1d1" />
  <defs id="defs1" />
  <g id="g1" transform="translate(-100.17578,-4.342688)">
    <path id="path2" d="M 79.37125,-8.50403 H 96.37931 V 8.50403 H 79.37125 Z" style="fill:#000000;fill-opacity:1;fill-rule:nonzero;stroke:#000000;stroke-width:0.3985;stroke-linecap:butt;stroke-linejoin:miter;stroke-miterlimit:10;stroke-dasharray:none;stroke-opacity:1" transform="matrix(1.6,0,0,-1.6,246.6568,18.268)" />
    <path id="path3" d="m 79.37125,-36.85083 h 17.00806 v 17.00806 H 79.37125 Z" style="fill:#000000;fill-opacity:1;fill-rule:nonzero;stroke:#000000;stroke-width:0.3985;stroke-linecap:butt;stroke-linejoin:miter;stroke-miterlimit:10;stroke-dasharray:none;stroke-opacity:1" transform="matrix(1.6,0,0,-1.6,246.6568,18.268)" />
    <path id="path4" d="m 79.37125,-93.54445 h 17.00806 v 17.00806 H 79.37125 Z" style="fill:#000000;fill-opacity:1;fill-rule:nonzero;stroke:#000000;stroke-width:0.3985;stroke-linecap:butt;stroke-linejoin:miter;stroke-miterlimit:10;stroke-dasharray:none;stroke-opacity:1" transform="matrix(1.6,0,0,-1.6,246.6568,18.268)" />
    <path id="path5" d="m 93.54454,-2.5511 c 0,3.1311 -2.53822,5.66934 -5.66934,5.66934 -3.13112,0 -5.66936,-2.53824 -5.66936,-5.66934" style="fill:none;stroke:#ffffff;stroke-width:0.79701;stroke-linecap:butt;stroke-linejoin:miter;stroke-miterlimit:10;stroke-dasharray:none;stroke-opacity:1" transform="matrix(1.6,0,0,-1.6,246.6568,18.268)" />
    <path id="path6" d="m 87.87527,-2.26778 5.66927,4.8189" style="fill:none;stroke:#ffffff;stroke-width:0.79701;stroke-linecap:butt;stroke-linejoin:miter;stroke-miterlimit:10;stroke-dasharray:none;stroke-opacity:1" transform="matrix(1.6,0,0,-1.6,246.6568,18.268)" />
    <path id="path7" d="m 88.72568,-2.26778 c 0,0.46967 -0.38074,0.85041 -0.85041,0.85041 -0.46966,0 -0.8504,-0.38074 -0.8504,-0.85041 0,-0.46966 0.38074,-0.8504 0.8504,-0.8504 0.46967,0 0.85041,0.38074 0.85041,0.8504 z" style="fill:#ffffff;fill-opacity:1;fill-rule:nonzero;stroke:none" transform="matrix(1.6,0,0,-1.6,246.6568,18.268)" />
    <path id="path8" d="m 93.54454,-30.8979 c 0,3.13112 -2.53822,5.66934 -5.66934,5.66934 -3.13112,0 -5.66936,-2.53822 -5.66936,-5.66934" style="fill:none;stroke:#ffffff;stroke-width:0.79701;stroke-linecap:butt;stroke-linejoin:miter;stroke-miterlimit:10;stroke-dasharray:none;stroke-opacity:1" transform="matrix(1.6,0,0,-1.6,246.6568,18.268)" />
    <path id="path9" d="m 87.87527,-30.6146 5.66927,4.81892" style="fill:none;stroke:#ffffff;stroke-width:0.79701;stroke-linecap:butt;stroke-linejoin:miter;stroke-miterlimit:10;stroke-dasharray:none;stroke-opacity:1" transform="matrix(1.6,0,0,-1.6,246.6568,18.268)" />
    <path id="path10" d="m 88.72568,-30.6146 c 0,0.46967 -0.38074,0.85041 -0.85041,0.85041 -0.46966,0 -0.8504,-0.38074 -0.8504,-0.85041 0,-0.46966 0.38074,-0.85038 0.8504,-0.85038 0.46967,0 0.85041,0.38072 0.85041,0.85038 z" style="fill:#ffffff;fill-opacity:1;fill-rule:nonzero;stroke:none" transform="matrix(1.6,0,0,-1.6,246.6568,18.268)" />
    <path id="path11" d="m 93.54454,-87.59152 c 0,3.13112 -2.53822,5.66934 -5.66934,5.66934 -3.13112,0 -5.66936,-2.53822 -5.66936,-5.66934" style="fill:none;stroke:#ffffff;stroke-width:0.79701;stroke-linecap:butt;stroke-linejoin:miter;stroke-miterlimit:10;stroke-dasharray:none;stroke-opacity:1" transform="matrix(1.6,0,0,-1.6,246.6568,18.268)" />
    <path id="path12" d="m 87.87527,-87.30821 5.66927,4.81891" style="fill:none;stroke:#ffffff;stroke-width:0.79701;stroke-linecap:butt;stroke-linejoin:miter;stroke-miterlimit:10;stroke-dasharray:none;stroke-opacity:1" transform="matrix(1.6,0,0,-1.6,246.6568,18.268)" />
    <path id="path13" d="m 88.72568,-87.30821 c 0,0.46966 -0.38074,0.8504 -0.85041,0.8504 -0.46966,0 -0.8504,-0.38074 -0.8504,-0.8504 0,-0.46967 0.38074,-0.85039 0.8504,-0.85039 0.46967,0 0.85041,0.38072 0.85041,0.85039 z" style="fill:#ffffff;fill-opacity:1;fill-rule:nonzero;stroke:none" transform="matrix(1.6,0,0,-1.6,246.6568,18.268)" />
    <path id="path14" d="M -79.37114,0 H 79.17198" style="fill:none;stroke:#121619;stroke-width:0.3985;stroke-linecap:butt;stroke-linejoin:miter;stroke-miterlimit:10;stroke-dasharray:none;stroke-opacity:1" transform="matrix(1.6,0,0,-1.6,246.6568,18.268)" />
    <path id="path15" d="M -79.37114,-28.3468 H 79.17198" style="fill:none;stroke:#121619;stroke-width:0.3985;stroke-linecap:butt;stroke-linejoin:miter;stroke-miterlimit:10;stroke-dasharray:none;stroke-opacity:1" transform="matrix(1.6,0,0,-1.6,246.6568,18.268)" />
    <path id="path16" d="M -79.37114,-85.04042 H 79.17198" style="fill:none;stroke:#121619;stroke-width:0.3985;stroke-linecap:butt;stroke-linejoin:miter;stroke-miterlimit:10;stroke-dasharray:none;stroke-opacity:1" transform="matrix(1.6,0,0,-1.6,246.6568,18.268)" />
    <path id="path17" d="M -79.37114,-113.38724 H 119.0565" style="fill:none;stroke:#121619;stroke-width:0.3985;stroke-linecap:butt;stroke-linejoin:miter;stroke-miterlimit:10;stroke-dasharray:none;stroke-opacity:1" transform="matrix(1.6,0,0,-1.6,246.6568,18.268)" />
    <path id="path18" d="M -79.37114,-127.56062 H 119.0565" style="fill:none;stroke:#121619;stroke-width:0.3985;stroke-linecap:butt;stroke-linejoin:miter;stroke-miterlimit:10;stroke-dasharray:none;stroke-opacity:1" transform="matrix(1.6,0,0,-1.6,246.6568,18.268)" />
    <path id="path19" d="M -79.37114,-170.08086 H 119.0565" style="fill:none;stroke:#121619;stroke-width:0.3985;stroke-linecap:butt;stroke-linejoin:miter;stroke-miterlimit:10;stroke-dasharray:none;stroke-opacity:1" transform="matrix(1.6,0,0,-1.6,246.6568,18.268)" />
    <path id="path20" d="M 96.57855,-0.56693 H 119.0565" style="fill:none;stroke:#121619;stroke-width:0.3985;stroke-linecap:butt;stroke-linejoin:miter;stroke-miterlimit:10;stroke-dasharray:none;stroke-opacity:1" transform="matrix(1.6,0,0,-1.6,246.6568,18.268)" />
    <path id="path21" d="M 96.57855,-28.91373 H 119.0565" style="fill:none;stroke:#121619;stroke-width:0.3985;stroke-linecap:butt;stroke-linejoin:miter;stroke-miterlimit:10;stroke-dasharray:none;stroke-opacity:1" transform="matrix(1.6,0,0,-1.6,246.6568,18.268)" />
    <path id="path22" d="M 96.57855,-85.60735 H 119.0565" style="fill:none;stroke:#121619;stroke-width:0.3985;stroke-linecap:butt;stroke-linejoin:miter;stroke-miterlimit:10;stroke-dasharray:none;stroke-opacity:1" transform="matrix(1.6,0,0,-1.6,246.6568,18.268)" />
    <path id="path23" d="M 96.57855,0.56693 H 119.0565" style="fill:none;stroke:#121619;stroke-width:0.3985;stroke-linecap:butt;stroke-linejoin:miter;stroke-miterlimit:10;stroke-dasharray:none;stroke-opacity:1" transform="matrix(1.6,0,0,-1.6,246.6568,18.268)" />
    <path id="path24" d="M 96.57855,-27.77988 H 119.0565" style="fill:none;stroke:#121619;stroke-width:0.3985;stroke-linecap:butt;stroke-linejoin:miter;stroke-miterlimit:10;stroke-dasharray:none;stroke-opacity:1" transform="matrix(1.6,0,0,-1.6,246.6568,18.268)" />
    <path id="path25" d="M 96.57855,-84.4735 H 119.0565" style="fill:none;stroke:#121619;stroke-width:0.3985;stroke-linecap:butt;stroke-linejoin:miter;stroke-miterlimit:10;stroke-dasharray:none;stroke-opacity:1" transform="matrix(1.6,0,0,-1.6,246.6568,18.268)" />
    <path id="path26" d="m -65.19765,-8.50403 h 17.00806 V 8.50403 h -17.00806 z" style="fill:#78a9ff;fill-opacity:1;fill-rule:nonzero;stroke:#78a9ff;stroke-width:0.3985;stroke-linecap:butt;stroke-linejoin:miter;stroke-miterlimit:10;stroke-dasharray:none;stroke-opacity:1" transform="matrix(1.6,0,0,-1.6,246.6568,18.268)" />
    <path id="path27" d="m 6.3673281,-4.7947969 c 0.078125,-0.3125 0.097656,-0.3808593 0.6542969,-0.3808593 0.1855469,0 0.2734375,0 0.2734375,-0.15625 0,-0.00977 0,-0.1074219 -0.1269531,-0.1074219 -0.15625,0 -0.3515625,0.00977 -0.4980469,0.019531 H 6.1720156 c -0.7714844,0 -0.9765625,-0.019531 -1.0351562,-0.019531 -0.029297,0 -0.15625,0 -0.15625,0.1464844 0,0.1171875 0.1074218,0.1171875 0.234375,0.1171875 0.2636718,0 0.4882812,0 0.4882812,0.1269531 0,0.029297 -0.00977,0.039063 -0.029297,0.1367187 L 5.1954531,-2.968625 H 2.6270937 l 0.46875,-1.8554687 c 0.068359,-0.2832032 0.087891,-0.3515625 0.6640625,-0.3515625 0.15625,0 0.2539063,0 0.2539063,-0.15625 0,-0.00977 -0.00977,-0.1074219 -0.1367188,-0.1074219 -0.1464843,0 -0.3417968,0.00977 -0.4882812,0.019531 H 2.881 c -0.7617188,0 -0.9667969,-0.019531 -1.0253906,-0.019531 -0.029297,0 -0.15625,0 -0.15625,0.1464844 0,0.1171875 0.097656,0.1171875 0.2246093,0.1171875 0.2636719,0 0.4980469,0 0.4980469,0.1269531 0,0.029297 -0.00977,0.039063 -0.029297,0.1367187 L 1.3185,-0.624875 c -0.068359,0.30273438 -0.087891,0.36132813 -0.67382813,0.36132813 -0.14648437,0 -0.24414062,0 -0.24414062,0.15625 0,0.02929687 0.0195313,0.10742187 0.12695312,0.10742187 0.14648438,0 0.34179688,-0.01953125 0.48828123,-0.01953125 h 0.5175781 c 0.7617188,0 0.9667969,0.01953125 1.0253907,0.01953125 0.048828,0 0.15625,0 0.15625,-0.15625 0,-0.10742187 -0.097656,-0.10742187 -0.234375,-0.10742187 -0.029297,0 -0.1660157,0 -0.3027344,-0.0195313 -0.1660156,-0.009766 -0.1855469,-0.0390625 -0.1855469,-0.10742188 0,-0.0390625 0.019531,-0.0878906 0.019531,-0.12695312 l 0.546875,-2.18750003 h 2.5683593 c -0.234375,0.9472657 -0.546875,2.18750003 -0.5566406,2.18750003 -0.068359,0.24414062 -0.2148437,0.24414062 -0.6933594,0.25390625 -0.087891,0 -0.1953125,0 -0.1953125,0.15625 0,0.02929687 0.019531,0.10742187 0.1269532,0.10742187 0.15625,0 0.3417968,-0.01953125 0.4980468,-0.01953125 h 0.5078125 c 0.7617188,0 0.9667969,0.01953125 1.0253907,0.01953125 0.048828,0 0.15625,0 0.15625,-0.15625 0,-0.10742187 -0.097656,-0.10742187 -0.234375,-0.10742187 -0.019531,0 -0.1660157,0 -0.3027344,-0.0195313 -0.1660156,-0.009766 -0.1855469,-0.0390625 -0.1855469,-0.10742188 0,-0.0390625 0.019531,-0.0878906 0.029297,-0.12695312 z m 0,0" style="fill:#ffffff;fill-opacity:1;fill-rule:nonzero;stroke:none" aria-label="H" transform="matrix(1.6,0,0,1.6,149.8904,22.6248)" />
    <path id="path28" d="m -65.19765,-36.85083 h 17.00806 v 17.00806 h -17.00806 z" style="fill:#78a9ff;fill-opacity:1;fill-rule:nonzero;stroke:#78a9ff;stroke-width:0.3985;stroke-linecap:butt;stroke-linejoin:miter;stroke-miterlimit:10;stroke-dasharray:none;stroke-opacity:1" transform="matrix(1.6,0,0,-1.6,246.6568,18.268)" />
    <path id="path29" d="m 6.3673281,-4.7946289 c 0.078125,-0.3125 0.097656,-0.3808594 0.6542969,-0.3808594 0.1855469,0 0.2734375,0 0.2734375,-0.15625 0,-0.00977 0,-0.1074219 -0.1269531,-0.1074219 -0.15625,0 -0.3515625,0.00977 -0.4980469,0.019531 H 6.1720156 c -0.7714844,0 -0.9765625,-0.019531 -1.0351562,-0.019531 -0.029297,0 -0.15625,0 -0.15625,0.1464844 0,0.1171875 0.1074218,0.1171875 0.234375,0.1171875 0.2636718,0 0.4882812,0 0.4882812,0.1269531 0,0.029297 -0.00977,0.039063 -0.029297,0.1367188 L 5.1954531,-2.968457 H 2.6270937 l 0.46875,-1.8554688 c 0.068359,-0.2832031 0.087891,-0.3515625 0.6640625,-0.3515625 0.15625,0 0.2539063,0 0.2539063,-0.15625 0,-0.00977 -0.00977,-0.1074219 -0.1367188,-0.1074219 -0.1464843,0 -0.3417968,0.00977 -0.4882812,0.019531 H 2.881 c -0.7617188,0 -0.9667969,-0.019531 -1.0253906,-0.019531 -0.029297,0 -0.15625,0 -0.15625,0.1464844 0,0.1171875 0.097656,0.1171875 0.2246093,0.1171875 0.2636719,0 0.4980469,0 0.4980469,0.1269531 0,0.029297 -0.00977,0.039063 -0.029297,0.1367188 L 1.3185,-0.62470703 c -0.068359,0.30273437 -0.087891,0.36132812 -0.67382813,0.36132812 -0.14648437,0 -0.24414062,0 -0.24414062,0.15625 0,0.02929688 0.0195313,0.10742187875 0.12695312,0.10742187875 0.14648438,0 0.34179688,-0.0195312488 0.48828123,-0.0195312488 h 0.5175781 c 0.7617188,0 0.9667969,0.0195312488 1.0253907,0.0195312488 0.048828,0 0.15625,0 0.15625,-0.15624999875 0,-0.10742188 -0.097656,-0.10742188 -0.234375,-0.10742188 -0.029297,0 -0.1660157,0 -0.3027344,-0.0195313 -0.1660156,-0.009766 -0.1855469,-0.0390625 -0.1855469,-0.10742187 0,-0.0390625 0.019531,-0.0878906 0.019531,-0.12695313 l 0.546875,-2.18750009 h 2.5683593 c -0.234375,0.9472657 -0.546875,2.18750009 -0.5566406,2.18750009 -0.068359,0.24414063 -0.2148437,0.24414063 -0.6933594,0.25390625 -0.087891,0 -0.1953125,0 -0.1953125,0.15625 0,0.02929688 0.019531,0.10742187875 0.1269532,0.10742187875 0.15625,0 0.3417968,-0.0195312488 0.4980468,-0.0195312488 h 0.5078125 c 0.7617188,0 0.9667969,0.0195312488 1.0253907,0.0195312488 0.048828,0 0.15625,0 0.15625,-0.15624999875 0,-0.10742188 -0.097656,-0.10742188 -0.234375,-0.10742188 -0.019531,0 -0.1660157,0 -0.3027344,-0.0195313 -0.1660156,-0.009766 -0.1855469,-0.0390625 -0.1855469,-0.10742187 0,-0.0390625 0.019531,-0.0878906 0.029297,-0.12695313 z m 0,0" style="fill:#ffffff;fill-opacity:1;fill-rule:nonzero;stroke:none" aria-label="H" transform="matrix(1.6,0,0,1.6,149.8904,67.98)" />
    <path id="path30" d="m -65.19765,-93.54445 h 17.00806 v 17.00806 h -17.00806 z" style="fill:#78a9ff;fill-opacity:1;fill-rule:nonzero;stroke:#78a9ff;stroke-width:0.3985;stroke-linecap:butt;stroke-linejoin:miter;stroke-miterlimit:10;stroke-dasharray:none;stroke-opacity:1" transform="matrix(1.6,0,0,-1.6,246.6568,18.268)" />
    <path id="path31" d="m 6.3673281,-4.794293 c 0.078125,-0.3125 0.097656,-0.3808593 0.6542969,-0.3808593 0.1855469,0 0.2734375,0 0.2734375,-0.15625 0,-0.00977 0,-0.1074219 -0.1269531,-0.1074219 -0.15625,0 -0.3515625,0.00977 -0.4980469,0.019531 H 6.1720156 c -0.7714844,0 -0.9765625,-0.019531 -1.0351562,-0.019531 -0.029297,0 -0.15625,0 -0.15625,0.1464844 0,0.1171875 0.1074218,0.1171875 0.234375,0.1171875 0.2636718,0 0.4882812,0 0.4882812,0.1269531 0,0.029297 -0.00977,0.039063 -0.029297,0.1367187 L 5.1954531,-2.9681211 H 2.6270937 l 0.46875,-1.8554687 c 0.068359,-0.2832032 0.087891,-0.3515625 0.6640625,-0.3515625 0.15625,0 0.2539063,0 0.2539063,-0.15625 0,-0.00977 -0.00977,-0.1074219 -0.1367188,-0.1074219 -0.1464843,0 -0.3417968,0.00977 -0.4882812,0.019531 H 2.881 c -0.7617188,0 -0.9667969,-0.019531 -1.0253906,-0.019531 -0.029297,0 -0.15625,0 -0.15625,0.1464844 0,0.1171875 0.097656,0.1171875 0.2246093,0.1171875 0.2636719,0 0.4980469,0 0.4980469,0.1269531 0,0.029297 -0.00977,0.039063 -0.029297,0.1367187 L 1.3185,-0.62437109 c -0.068359,0.30273437 -0.087891,0.36132812 -0.67382813,0.36132812 -0.14648437,0 -0.24414062,0 -0.24414062,0.15625 0,0.02929688 0.0195313,0.10742187625 0.12695312,0.10742187625 0.14648438,0 0.34179688,-0.0195312462 0.48828123,-0.0195312462 h 0.5175781 c 0.7617188,0 0.9667969,0.0195312462 1.0253907,0.0195312462 0.048828,0 0.15625,0 0.15625,-0.15624999625 0,-0.10742188 -0.097656,-0.10742188 -0.234375,-0.10742188 -0.029297,0 -0.1660157,0 -0.3027344,-0.0195313 -0.1660156,-0.009766 -0.1855469,-0.0390625 -0.1855469,-0.10742187 0,-0.0390625 0.019531,-0.0878906 0.019531,-0.12695313 l 0.546875,-2.18750003 h 2.5683593 c -0.234375,0.9472657 -0.546875,2.18750003 -0.5566406,2.18750003 -0.068359,0.24414063 -0.2148437,0.24414063 -0.6933594,0.25390625 -0.087891,0 -0.1953125,0 -0.1953125,0.15625 0,0.02929688 0.019531,0.10742187625 0.1269532,0.10742187625 0.15625,0 0.3417968,-0.0195312463 0.4980468,-0.0195312463 h 0.5078125 c 0.7617188,0 0.9667969,0.0195312463 1.0253907,0.0195312463 0.048828,0 0.15625,0 0.15625,-0.15624999625 0,-0.10742188 -0.097656,-0.10742188 -0.234375,-0.10742188 -0.019531,0 -0.1660157,0 -0.3027344,-0.0195313 -0.1660156,-0.009766 -0.1855469,-0.0390625 -0.1855469,-0.10742187 0,-0.0390625 0.019531,-0.0878906 0.029297,-0.12695313 z m 0,0" style="fill:#ffffff;fill-opacity:1;fill-rule:nonzero;stroke:none" aria-label="H" transform="matrix(1.6,0,0,1.6,149.8904,158.6904)" />
    <path id="path32" d="M 48.18958,-8.50403 H 65.19764 V 8.50403 H 48.18958 Z" style="fill:#78a9ff;fill-opacity:1;fill-rule:nonzero;stroke:#78a9ff;stroke-width:0.3985;stroke-linecap:butt;stroke-linejoin:miter;stroke-miterlimit:10;stroke-dasharray:none;stroke-opacity:1" transform="matrix(1.6,0,0,-1.6,246.6568,18.268)" />
    <path id="path33" d="m 6.3665586,-4.7947969 c 0.078125,-0.3125 0.097656,-0.3808593 0.6542969,-0.3808593 0.1855468,0 0.2734375,0 0.2734375,-0.15625 0,-0.00977 0,-0.1074219 -0.1269532,-0.1074219 -0.15625,0 -0.3515625,0.00977 -0.4980468,0.019531 H 6.1712461 c -0.7714844,0 -0.9765625,-0.019531 -1.0351563,-0.019531 -0.029297,0 -0.15625,0 -0.15625,0.1464844 0,0.1171875 0.1074219,0.1171875 0.234375,0.1171875 0.2636719,0 0.4882813,0 0.4882813,0.1269531 0,0.029297 -0.00977,0.039063 -0.029297,0.1367187 L 5.1946836,-2.968625 H 2.6263242 l 0.46875,-1.8554687 c 0.068359,-0.2832032 0.087891,-0.3515625 0.6640625,-0.3515625 0.15625,0 0.2539063,0 0.2539063,-0.15625 0,-0.00977 -0.00977,-0.1074219 -0.1367188,-0.1074219 -0.1464844,0 -0.3417969,0.00977 -0.4882812,0.019531 H 2.8802305 c -0.7617188,0 -0.9667969,-0.019531 -1.0253907,-0.019531 -0.029297,0 -0.15625,0 -0.15625,0.1464844 0,0.1171875 0.097656,0.1171875 0.2246094,0.1171875 0.2636719,0 0.4980469,0 0.4980469,0.1269531 0,0.029297 -0.00977,0.039063 -0.029297,0.1367187 L 1.3177305,-0.624875 c -0.068359,0.30273438 -0.087891,0.36132813 -0.67382816,0.36132813 -0.14648437,0 -0.24414062,0 -0.24414062,0.15625 0,0.02929687 0.0195313,0.10742187 0.12695312,0.10742187 0.14648438,0 0.34179688,-0.01953125 0.48828126,-0.01953125 h 0.5175781 c 0.7617188,0 0.9667969,0.01953125 1.0253906,0.01953125 0.048828,0 0.15625,0 0.15625,-0.15625 0,-0.10742187 -0.097656,-0.10742187 -0.234375,-0.10742187 -0.029297,0 -0.1660156,0 -0.3027343,-0.0195313 -0.1660157,-0.009766 -0.1855469,-0.0390625 -0.1855469,-0.10742188 0,-0.0390625 0.019531,-0.0878906 0.019531,-0.12695312 L 2.5579646,-2.7049532 H 5.126324 c -0.234375,0.9472657 -0.546875,2.18750003 -0.5566406,2.18750003 -0.068359,0.24414062 -0.2148438,0.24414062 -0.6933594,0.25390625 -0.087891,0 -0.1953125,0 -0.1953125,0.15625 0,0.02929687 0.019531,0.10742187 0.1269531,0.10742187 0.15625,0 0.3417969,-0.01953125 0.4980469,-0.01953125 H 4.813824 c 0.7617188,0 0.9667969,0.01953125 1.0253906,0.01953125 0.048828,0 0.15625,0 0.15625,-0.15625 0,-0.10742187 -0.097656,-0.10742187 -0.234375,-0.10742187 -0.019531,0 -0.1660156,0 -0.3027343,-0.0195313 -0.1660157,-0.009766 -0.1855469,-0.0390625 -0.1855469,-0.10742188 0,-0.0390625 0.019531,-0.0878906 0.029297,-0.12695312 z m 0,0" style="fill:#ffffff;fill-opacity:1;fill-rule:nonzero;stroke:none" aria-label="H" transform="matrix(1.6,0,0,1.6,331.3096,22.6248)" />
    <path id="path34" d="m 48.18958,-36.85083 h 17.00806 v 17.00806 H 48.18958 Z" style="fill:#78a9ff;fill-opacity:1;fill-rule:nonzero;stroke:#78a9ff;stroke-width:0.3985;stroke-linecap:butt;stroke-linejoin:miter;stroke-miterlimit:10;stroke-dasharray:none;stroke-opacity:1" transform="matrix(1.6,0,0,-1.6,246.6568,18.268)" />
    <path id="path35" d="m 6.3665586,-4.7946289 c 0.078125,-0.3125 0.097656,-0.3808594 0.6542969,-0.3808594 0.1855468,0 0.2734375,0 0.2734375,-0.15625 0,-0.00977 0,-0.1074219 -0.1269532,-0.1074219 -0.15625,0 -0.3515625,0.00977 -0.4980468,0.019531 H 6.1712461 c -0.7714844,0 -0.9765625,-0.019531 -1.0351563,-0.019531 -0.029297,0 -0.15625,0 -0.15625,0.1464844 0,0.1171875 0.1074219,0.1171875 0.234375,0.1171875 0.2636719,0 0.4882813,0 0.4882813,0.1269531 0,0.029297 -0.00977,0.039063 -0.029297,0.1367188 L 5.1946836,-2.968457 H 2.6263242 l 0.46875,-1.8554688 c 0.068359,-0.2832031 0.087891,-0.3515625 0.6640625,-0.3515625 0.15625,0 0.2539063,0 0.2539063,-0.15625 0,-0.00977 -0.00977,-0.1074219 -0.1367188,-0.1074219 -0.1464844,0 -0.3417969,0.00977 -0.4882812,0.019531 H 2.8802305 c -0.7617188,0 -0.9667969,-0.019531 -1.0253907,-0.019531 -0.029297,0 -0.15625,0 -0.15625,0.1464844 0,0.1171875 0.097656,0.1171875 0.2246094,0.1171875 0.2636719,0 0.4980469,0 0.4980469,0.1269531 0,0.029297 -0.00977,0.039063 -0.029297,0.1367188 l -1.0742187,4.28710937 c -0.068359,0.30273437 -0.087891,0.36132812 -0.67382816,0.36132812 -0.14648437,0 -0.24414062,0 -0.24414062,0.15625 0,0.02929688 0.0195313,0.10742187875 0.12695312,0.10742187875 0.14648438,0 0.34179688,-0.0195312488 0.48828126,-0.0195312488 h 0.5175781 c 0.7617188,0 0.9667969,0.0195312488 1.0253906,0.0195312488 0.048828,0 0.15625,0 0.15625,-0.15624999875 0,-0.10742188 -0.097656,-0.10742188 -0.234375,-0.10742188 -0.029297,0 -0.1660156,0 -0.3027343,-0.0195313 -0.1660157,-0.009766 -0.1855469,-0.0390625 -0.1855469,-0.10742187 0,-0.0390625 0.019531,-0.0878906 0.019531,-0.12695313 l 0.546875,-2.18750009 h 2.5683594 c -0.234375,0.9472657 -0.546875,2.18750009 -0.5566406,2.18750009 -0.068359,0.24414063 -0.2148438,0.24414063 -0.6933594,0.25390625 -0.087891,0 -0.1953125,0 -0.1953125,0.15625 0,0.02929688 0.019531,0.10742187875 0.1269531,0.10742187875 0.15625,0 0.3417969,-0.0195312488 0.4980469,-0.0195312488 h 0.5078125 c 0.7617188,0 0.9667969,0.0195312488 1.0253906,0.0195312488 0.048828,0 0.15625,0 0.15625,-0.15624999875 0,-0.10742188 -0.097656,-0.10742188 -0.234375,-0.10742188 -0.019531,0 -0.1660156,0 -0.3027343,-0.0195313 -0.1660157,-0.009766 -0.1855469,-0.0390625 -0.1855469,-0.10742187 0,-0.0390625 0.019531,-0.0878906 0.029297,-0.12695313 z m 0,0" style="fill:#ffffff;fill-opacity:1;fill-rule:nonzero;stroke:none" aria-label="H" transform="matrix(1.6,0,0,1.6,331.3096,67.98)" />
    <path id="path36" d="m 48.18958,-93.54445 h 17.00806 v 17.00806 H 48.18958 Z" style="fill:#78a9ff;fill-opacity:1;fill-rule:nonzero;stroke:#78a9ff;stroke-width:0.3985;stroke-linecap:butt;stroke-linejoin:miter;stroke-miterlimit:10;stroke-dasharray:none;stroke-opacity:1" transform="matrix(1.6,0,0,-1.6,246.6568,18.268)" />
    <path id="path37" d="m 6.3665586,-4.794293 c 0.078125,-0.3125 0.097656,-0.3808593 0.6542969,-0.3808593 0.1855468,0 0.2734375,0 0.2734375,-0.15625 0,-0.00977 0,-0.1074219 -0.1269532,-0.1074219 -0.15625,0 -0.3515625,0.00977 -0.4980468,0.019531 H 6.1712461 c -0.7714844,0 -0.9765625,-0.019531 -1.0351563,-0.019531 -0.029297,0 -0.15625,0 -0.15625,0.1464844 0,0.1171875 0.1074219,0.1171875 0.234375,0.1171875 0.2636719,0 0.4882813,0 0.4882813,0.1269531 0,0.029297 -0.00977,0.039063 -0.029297,0.1367187 L 5.1946836,-2.9681211 H 2.6263242 l 0.46875,-1.8554687 c 0.068359,-0.2832032 0.087891,-0.3515625 0.6640625,-0.3515625 0.15625,0 0.2539063,0 0.2539063,-0.15625 0,-0.00977 -0.00977,-0.1074219 -0.1367188,-0.1074219 -0.1464844,0 -0.3417969,0.00977 -0.4882812,0.019531 H 2.8802305 c -0.7617188,0 -0.9667969,-0.019531 -1.0253907,-0.019531 -0.029297,0 -0.15625,0 -0.15625,0.1464844 0,0.1171875 0.097656,0.1171875 0.2246094,0.1171875 0.2636719,0 0.4980469,0 0.4980469,0.1269531 0,0.029297 -0.00977,0.039063 -0.029297,0.1367187 l -1.0742187,4.28710941 c -0.068359,0.30273437 -0.087891,0.36132812 -0.67382816,0.36132812 -0.14648437,0 -0.24414062,0 -0.24414062,0.15625 0,0.02929688 0.0195313,0.10742187625 0.12695312,0.10742187625 0.14648438,0 0.34179688,-0.0195312462 0.48828126,-0.0195312462 h 0.5175781 c 0.7617188,0 0.9667969,0.0195312462 1.0253906,0.0195312462 0.048828,0 0.15625,0 0.15625,-0.15624999625 0,-0.10742188 -0.097656,-0.10742188 -0.234375,-0.10742188 -0.029297,0 -0.1660156,0 -0.3027343,-0.0195313 -0.1660157,-0.009766 -0.1855469,-0.0390625 -0.1855469,-0.10742187 0,-0.0390625 0.019531,-0.0878906 0.019531,-0.12695313 l 0.546875,-2.18749993 h 2.5683594 c -0.234375,0.9472656 -0.546875,2.18749993 -0.5566406,2.18749993 -0.068359,0.24414063 -0.2148438,0.24414063 -0.6933594,0.25390625 -0.087891,0 -0.1953125,0 -0.1953125,0.15625 0,0.02929688 0.019531,0.10742187625 0.1269531,0.10742187625 0.15625,0 0.3417969,-0.0195312463 0.4980469,-0.0195312463 h 0.5078125 c 0.7617188,0 0.9667969,0.0195312463 1.0253906,0.0195312463 0.048828,0 0.15625,0 0.15625,-0.15624999625 0,-0.10742188 -0.097656,-0.10742188 -0.234375,-0.10742188 -0.019531,0 -0.1660156,0 -0.3027343,-0.0195313 -0.1660157,-0.009766 -0.1855469,-0.0390625 -0.1855469,-0.10742187 0,-0.0390625 0.019531,-0.0878906 0.029297,-0.12695313 z m 0,0" style="fill:#ffffff;fill-opacity:1;fill-rule:nonzero;stroke:none" aria-label="H" transform="matrix(1.6,0,0,1.6,331.3096,158.6904)" />
    <path id="path38" d="M -31.18149,-178.58493 H 31.18149 V 8.50407 H -31.18149 Z" style="fill:#78a9ff;fill-opacity:1;fill-rule:nonzero;stroke:#78a9ff;stroke-width:0.3985;stroke-linecap:butt;stroke-linejoin:miter;stroke-miterlimit:10;stroke-dasharray:none;stroke-opacity:1" transform="matrix(1.6,0,0,-1.6,246.6568,18.268)" />
    <g id="g38" aria-label="U&#10;f" transform="matrix(1.6,0,0,1.6,238.2552,156.612)">
      <path id="path39" d="m 5.3116914,-4.5695117 c 0.097656,-0.390625 0.2832031,-0.5859375 0.8496094,-0.6054688 0.078125,0 0.1367187,-0.048828 0.1367187,-0.15625 0,-0.048828 -0.039063,-0.1074218 -0.1171875,-0.1074218 -0.039063,0 -0.2148437,0.019531 -0.7910156,0.019531 -0.6347656,0 -0.7324219,-0.019531 -0.8105469,-0.019531 -0.1269531,0 -0.1464843,0.087891 -0.1464843,0.1464843 0,0.1074219 0.097656,0.1171875 0.1757812,0.1171875 0.4785156,0.00977 0.4785156,0.2246094 0.4785156,0.3417969 0,0.048828 0,0.087891 -0.00977,0.1367188 -0.019531,0.048828 -0.6835937,2.7246093 -0.7128906,2.8222656 -0.2832031,1.15234373 -1.2890625,1.77734373 -2.0800781,1.77734373 -0.546875,0 -1.0449219,-0.32226562 -1.0449219,-1.05468753 0,-0.1367187 0.029297,-0.3515625 0.058594,-0.4785156 L 2.0988008,-4.823418 c 0.068359,-0.2832031 0.087891,-0.3515625 0.6640625,-0.3515625 0.15625,0 0.2539062,0 0.2539062,-0.15625 0,-0.00977 -0.00977,-0.1074218 -0.1367187,-0.1074218 -0.1464844,0 -0.3417969,0.00977 -0.4882813,0.019531 H 1.883957 c -0.7617187,0 -0.96679684,-0.019531 -1.02539059,-0.019531 -0.0292969,0 -0.15625,0 -0.15625,0.1464843 0,0.1171875 0.0976563,0.1171875 0.22460937,0.1171875 0.26367192,0 0.49804692,0 0.49804692,0.1269532 0,0.048828 -0.068359,0.3320312 -0.1171875,0.4882812 l -0.1757813,0.703125 -0.41992187,1.6894531 c -0.10742187,0.4394532 -0.13671875,0.5566407 -0.13671875,0.7714844 0,0.93750001 0.73242192,1.56250001 1.67968752,1.56250001 1.0839844,0 2.0996094,-0.91796875 2.3535156,-1.94335941 z m 0,0" style="fill:#ffffff;fill-opacity:1;fill-rule:nonzero;stroke:none" />
      <path id="path40" d="m 8.3072969,-0.90007812 h 0.6054687 c 0.1171875,0 0.2050781,0 0.2050781,-0.15624998 0,-0.087891 -0.078125,-0.087891 -0.1855468,-0.087891 H 8.3463594 c 0.1757812,-0.9765625 0.1757812,-0.9863282 0.2050781,-1.09375 0.029297,-0.1367188 0.039063,-0.1855469 0.1269531,-0.2636719 0.078125,-0.048828 0.1269531,-0.078125 0.2148438,-0.078125 0.097656,0 0.1953125,0.019531 0.2832031,0.058594 -0.1269531,0.048828 -0.234375,0.1757813 -0.234375,0.3222657 0,0.1269531 0.1074219,0.2246093 0.2441406,0.2246093 0.15625,0 0.3417969,-0.1269531 0.3417969,-0.3613281 0,-0.3320312 -0.3710938,-0.4394531 -0.6347656,-0.4394531 -0.2636719,0 -0.6738282,0.1269531 -0.8496094,0.7226562 -0.048828,0.15625 -0.068359,0.2734375 -0.1074219,0.4882813 -0.029297,0.1757813 -0.039063,0.2441407 -0.078125,0.419922 H 7.3697969 c -0.1269532,0 -0.2050782,0 -0.2050782,0.15624995 0,0.0878906 0.078125,0.0878906 0.1855469,0.0878906 h 0.46875 C 7.5846406,0.4378125 7.49675,0.89679688 7.4772187,1.0042188 7.2916719,2.0296094 7.262375,2.0882031 7.2037812,2.195625 7.1256562,2.3323438 7.0182344,2.4592969 6.87175,2.4592969 c -0.039063,0 -0.1660156,-0.019531 -0.2636719,-0.058594 0.1171875,-0.048828 0.2246094,-0.1757812 0.2246094,-0.3222656 0,-0.1269531 -0.097656,-0.2246094 -0.2441406,-0.2246094 -0.15625,0 -0.3417969,0.1269532 -0.3417969,0.3613282 0,0.3320312 0.3808594,0.4394531 0.6152344,0.4394531 0.3320312,0 0.5664062,-0.2734375 0.6738281,-0.4003906 0.2636719,-0.3515625 0.390625,-1.0644532 0.4003906,-1.1230469 z m 0,0" style="fill:#ffffff;fill-opacity:1;fill-rule:nonzero;stroke:none" />
    </g>
    <g id="g40" aria-label="∣0⟩" transform="matrix(1.6,0,0,1.6,98.2696,21.7752)">
      <path id="path41" d="m 1.1913633,-6.0948516 v 7.8027344 h 0.5175781 v -7.8027344 z m 0,0" style="fill:#121619;fill-opacity:1;fill-rule:nonzero;stroke:none" />
      <path id="path42" d="m 6.796832,-2.5401641 c 0,-0.859375 -0.087891,-1.3769531 -0.3515625,-1.8847656 -0.3515625,-0.703125 -0.9960937,-0.8789062 -1.4355468,-0.8789062 -1.0058594,0 -1.3671875,0.7519531 -1.484375,0.9765625 -0.2832032,0.5761718 -0.3027344,1.3671875 -0.3027344,1.7871093 0,0.5273438 0.029297,1.328125 0.4101562,1.96289066 0.3710938,0.59570313 0.9570313,0.7421875 1.3769532,0.7421875 0.3808593,0 1.0742187,-0.1171875 1.4648437,-0.90820312 C 6.7773008,-1.3194609 6.796832,-2.0225859 6.796832,-2.5401641 Z m -1.7871093,2.48046879 c -0.2734375,0 -0.8203125,-0.12695313 -0.9863282,-0.95703129 -0.087891,-0.4589843 -0.087891,-1.2109375 -0.087891,-1.6210937 0,-0.546875 0,-1.1132813 0.087891,-1.5429688 0.1660157,-0.8203125 0.7910157,-0.8984375 0.9863282,-0.8984375 0.2734375,0 0.8203125,0.1367188 0.9863281,0.859375 0.087891,0.4394532 0.087891,1.0351563 0.087891,1.5820313 0,0.46875 0,1.1816406 -0.087891,1.6308594 -0.1757813,0.83984371 -0.7226563,0.94726559 -0.9863281,0.94726559 z m 0,0" style="fill:#121619;fill-opacity:1;fill-rule:nonzero;stroke:none" />
      <path id="path43" d="M 8.347125,1.7957734 9.7826719,-2.1886016 8.347125,-6.1827422 7.8686094,-6.0069609 9.3041562,-2.1886016 7.8686094,1.6199922 Z m 0,0" style="fill:#121619;fill-opacity:1;fill-rule:nonzero;stroke:none" />
    </g>
    <g id="g43" aria-label="∣0⟩" transform="matrix(1.6,0,0,1.6,98.2696,67.1304)">
      <path id="path44" d="m 1.1913633,-6.0946836 v 7.8027344 h 0.5175781 v -7.8027344 z m 0,0" style="fill:#121619;fill-opacity:1;fill-rule:nonzero;stroke:none" />
      <path id="path45" d="m 6.796832,-2.5399961 c 0,-0.859375 -0.087891,-1.3769531 -0.3515625,-1.8847656 C 6.093707,-5.1278867 5.4491758,-5.303668 5.0097227,-5.303668 c -1.0058594,0 -1.3671875,0.7519532 -1.484375,0.9765625 -0.2832032,0.5761719 -0.3027344,1.3671875 -0.3027344,1.7871094 0,0.5273438 0.029297,1.328125 0.4101562,1.96289063 0.3710938,0.59570313 0.9570313,0.7421875 1.3769532,0.7421875 0.3808593,0 1.0742187,-0.1171875 1.4648437,-0.90820312 C 6.7773008,-1.319293 6.796832,-2.022418 6.796832,-2.5399961 Z m -1.7871093,2.48046876 c -0.2734375,0 -0.8203125,-0.12695313 -0.9863282,-0.95703126 -0.087891,-0.4589844 -0.087891,-1.2109375 -0.087891,-1.6210937 0,-0.546875 0,-1.1132813 0.087891,-1.5429688 0.1660157,-0.8203125 0.7910157,-0.8984375 0.9863282,-0.8984375 0.2734375,0 0.8203125,0.1367188 0.9863281,0.859375 0.087891,0.4394531 0.087891,1.0351563 0.087891,1.5820313 0,0.46875 0,1.1816406 -0.087891,1.6308593 -0.1757813,0.83984378 -0.7226563,0.94726566 -0.9863281,0.94726566 z m 0,0" style="fill:#121619;fill-opacity:1;fill-rule:nonzero;stroke:none" />
      <path id="path46" d="M 8.347125,1.7959414 9.7826719,-2.1884336 8.347125,-6.1825742 7.8686094,-6.006793 9.3041562,-2.1884336 7.8686094,1.6201602 Z m 0,0" style="fill:#121619;fill-opacity:1;fill-rule:nonzero;stroke:none" />
    </g>
    <g id="g46" aria-label="∣0⟩" transform="matrix(1.6,0,0,1.6,98.2696,157.8392)">
      <path id="path47" d="m 1.1913633,-6.0933477 v 7.8027344 h 0.5175781 v -7.8027344 z m 0,0" style="fill:#121619;fill-opacity:1;fill-rule:nonzero;stroke:none" />
      <path id="path48" d="m 6.796832,-2.5386602 c 0,-0.859375 -0.087891,-1.3769531 -0.3515625,-1.8847656 C 6.093707,-5.1265508 5.4491758,-5.302332 5.0097227,-5.302332 c -1.0058594,0 -1.3671875,0.7519531 -1.484375,0.9765625 -0.2832032,0.5761718 -0.3027344,1.3671875 -0.3027344,1.7871093 0,0.5273438 0.029297,1.328125 0.4101562,1.96289067 0.3710938,0.59570312 0.9570313,0.7421875 1.3769532,0.7421875 0.3808593,0 1.0742187,-0.1171875 1.4648437,-0.90820313 C 6.7773008,-1.317957 6.796832,-2.021082 6.796832,-2.5386602 Z m -1.7871093,2.48046879 c -0.2734375,0 -0.8203125,-0.12695312 -0.9863282,-0.95703129 -0.087891,-0.4589843 -0.087891,-1.2109375 -0.087891,-1.6210937 0,-0.546875 0,-1.1132813 0.087891,-1.5429688 0.1660157,-0.8203125 0.7910157,-0.8984375 0.9863282,-0.8984375 0.2734375,0 0.8203125,0.1367188 0.9863281,0.859375 0.087891,0.4394532 0.087891,1.0351563 0.087891,1.5820313 0,0.46875 0,1.1816406 -0.087891,1.6308594 -0.1757813,0.83984372 -0.7226563,0.94726559 -0.9863281,0.94726559 z m 0,0" style="fill:#121619;fill-opacity:1;fill-rule:nonzero;stroke:none" />
      <path id="path49" d="M 8.347125,1.7972773 9.7826719,-2.1870977 8.347125,-6.1812383 7.8686094,-6.005457 9.3041562,-2.1870977 7.8686094,1.6214961 Z m 0,0" style="fill:#121619;fill-opacity:1;fill-rule:nonzero;stroke:none" />
    </g>
    <g id="g49" aria-label="∣0⟩" transform="matrix(1.6,0,0,1.6,98.2696,203.1944)">
      <path id="path50" d="m 1.1913633,-6.0931797 v 7.8027344 h 0.5175781 v -7.8027344 z m 0,0" style="fill:#121619;fill-opacity:1;fill-rule:nonzero;stroke:none" />
      <path id="path51" d="m 6.796832,-2.5384922 c 0,-0.859375 -0.087891,-1.3769531 -0.3515625,-1.8847656 -0.3515625,-0.703125 -0.9960937,-0.8789063 -1.4355468,-0.8789063 -1.0058594,0 -1.3671875,0.7519532 -1.484375,0.9765625 -0.2832032,0.5761719 -0.3027344,1.3671875 -0.3027344,1.7871094 0,0.5273438 0.029297,1.328125 0.4101562,1.96289064 0.3710938,0.59570312 0.9570313,0.7421875 1.3769532,0.7421875 0.3808593,0 1.0742187,-0.1171875 1.4648437,-0.90820313 C 6.7773008,-1.3177891 6.796832,-2.0209141 6.796832,-2.5384922 Z m -1.7871093,2.48046876 c -0.2734375,0 -0.8203125,-0.12695312 -0.9863282,-0.95703126 -0.087891,-0.4589844 -0.087891,-1.2109375 -0.087891,-1.6210937 0,-0.546875 0,-1.1132813 0.087891,-1.5429688 0.1660157,-0.8203125 0.7910157,-0.8984375 0.9863282,-0.8984375 0.2734375,0 0.8203125,0.1367188 0.9863281,0.859375 0.087891,0.4394531 0.087891,1.0351563 0.087891,1.5820313 0,0.46875 0,1.1816406 -0.087891,1.6308593 -0.1757813,0.83984379 -0.7226563,0.94726566 -0.9863281,0.94726566 z m 0,0" style="fill:#121619;fill-opacity:1;fill-rule:nonzero;stroke:none" />
      <path id="path52" d="M 8.347125,1.7974453 9.7826719,-2.1869297 8.347125,-6.1810703 7.8686094,-6.0052891 9.3041562,-2.1869297 7.8686094,1.6216641 Z m 0,0" style="fill:#121619;fill-opacity:1;fill-rule:nonzero;stroke:none" />
    </g>
    <g id="g52" aria-label="∣0⟩" transform="matrix(1.6,0,0,1.6,98.2696,225.8712)">
      <path id="path53" d="M 1.1913633,-6.0938164 V 1.708918 h 0.5175781 v -7.8027344 z m 0,0" style="fill:#121619;fill-opacity:1;fill-rule:nonzero;stroke:none" />
      <path id="path54" d="m 6.796832,-2.5391289 c 0,-0.859375 -0.087891,-1.3769531 -0.3515625,-1.8847656 -0.3515625,-0.703125 -0.9960937,-0.8789063 -1.4355468,-0.8789063 -1.0058594,0 -1.3671875,0.7519531 -1.484375,0.9765625 -0.2832032,0.5761719 -0.3027344,1.3671875 -0.3027344,1.7871094 0,0.5273437 0.029297,1.328125 0.4101562,1.96289062 0.3710938,0.59570312 0.9570313,0.7421875 1.3769532,0.7421875 0.3808593,0 1.0742187,-0.1171875 1.4648437,-0.90820313 C 6.7773008,-1.3184258 6.796832,-2.0215508 6.796832,-2.5391289 Z m -1.7871093,2.48046874 c -0.2734375,0 -0.8203125,-0.12695312 -0.9863282,-0.95703124 -0.087891,-0.4589844 -0.087891,-1.2109375 -0.087891,-1.6210938 0,-0.546875 0,-1.1132812 0.087891,-1.5429687 0.1660157,-0.8203125 0.7910157,-0.8984375 0.9863282,-0.8984375 0.2734375,0 0.8203125,0.1367187 0.9863281,0.859375 0.087891,0.4394531 0.087891,1.0351562 0.087891,1.5820312 0,0.46875 0,1.1816407 -0.087891,1.6308594 -0.1757813,0.83984377 -0.7226563,0.94726564 -0.9863281,0.94726564 z m 0,0" style="fill:#121619;fill-opacity:1;fill-rule:nonzero;stroke:none" />
      <path id="path55" d="M 8.347125,1.7968086 9.7826719,-2.1875664 8.347125,-6.181707 7.8686094,-6.0059258 9.3041562,-2.1875664 7.8686094,1.6210273 Z m 0,0" style="fill:#121619;fill-opacity:1;fill-rule:nonzero;stroke:none" />
    </g>
    <g id="g55" aria-label="∣0⟩" transform="matrix(1.6,0,0,1.6,98.2696,293.9048)">
      <path id="path56" d="m 1.1913633,-6.0928437 v 7.8027343 h 0.5175781 v -7.8027343 z m 0,0" style="fill:#121619;fill-opacity:1;fill-rule:nonzero;stroke:none" />
      <path id="path57" d="m 6.796832,-2.5381562 c 0,-0.859375 -0.087891,-1.3769532 -0.3515625,-1.8847657 -0.3515625,-0.703125 -0.9960937,-0.8789062 -1.4355468,-0.8789062 -1.0058594,0 -1.3671875,0.7519531 -1.484375,0.9765625 -0.2832032,0.5761719 -0.3027344,1.3671875 -0.3027344,1.7871094 0,0.5273437 0.029297,1.328125 0.4101562,1.96289058 0.3710938,0.59570312 0.9570313,0.7421875 1.3769532,0.7421875 0.3808593,0 1.0742187,-0.1171875 1.4648437,-0.90820313 C 6.7773008,-1.3174531 6.796832,-2.0205781 6.796832,-2.5381562 Z m -1.7871093,2.4804687 c -0.2734375,0 -0.8203125,-0.12695312 -0.9863282,-0.9570312 -0.087891,-0.4589844 -0.087891,-1.2109375 -0.087891,-1.6210938 0,-0.546875 0,-1.1132812 0.087891,-1.5429687 0.1660157,-0.8203125 0.7910157,-0.8984375 0.9863282,-0.8984375 0.2734375,0 0.8203125,0.1367187 0.9863281,0.859375 0.087891,0.4394531 0.087891,1.0351562 0.087891,1.5820312 0,0.46875 0,1.1816406 -0.087891,1.6308594 -0.1757813,0.83984373 -0.7226563,0.9472656 -0.9863281,0.9472656 z m 0,0" style="fill:#121619;fill-opacity:1;fill-rule:nonzero;stroke:none" />
      <path id="path58" d="M 8.347125,1.7977813 9.7826719,-2.1865937 8.347125,-6.1807344 7.8686094,-6.0049531 9.3041562,-2.1865937 7.8686094,1.622 Z m 0,0" style="fill:#121619;fill-opacity:1;fill-rule:nonzero;stroke:none" />
    </g>
    <g id="g58" aria-label="⎫&#10;⎪&#10;⎪&#10;⎪&#10;⎪&#10;⎪&#10;⎪&#10;⎪&#10;⎪&#10;⎪&#10;⎪&#10;⎪&#10;⎪&#10;⎪&#10;⎪&#10;⎪&#10;⎪&#10;⎪&#10;⎬&#10;⎪&#10;⎪&#10;⎪&#10;⎪&#10;⎪&#10;⎪&#10;⎪&#10;⎪&#10;⎪&#10;⎪&#10;⎪&#10;⎪&#10;⎪&#10;⎪&#10;⎪&#10;⎪&#10;⎪&#10;⎭&#10;y∈Σ&#10;n" transform="matrix(1.6,0,0,1.6,448.164,20.42)">
      <path id="path59" d="m 0.71292969,-4.5300781 v 0.4199219 c 0.73242191,0 1.37695311,0.4882812 1.37695311,1.171875 V 0.41132813 H 2.5976953 V -2.9382812 c 0,-0.9375 -0.8886719,-1.5917969 -1.88476561,-1.5917969 z M 2.0898828,-0.17460937 V 2.6769531 h 0.5078125 v -2.85156247 z m 0,2.34374997 V 5.0207031 H 2.5976953 V 2.1691406 Z m 0,2.34375 V 7.3644531 H 2.5976953 V 4.5128906 Z m 0,2.3413086 V 9.7057617 H 2.5976953 V 6.8541992 Z m 0,2.34375 V 12.049512 H 2.5976953 V 9.1979492 Z m 0,2.3437498 v 2.851563 h 0.5078125 v -2.851563 z m 0,2.34375 v 2.851563 h 0.5078125 v -2.851563 z m 0,2.341309 v 2.851562 h 0.5078125 v -2.851562 z m 0,2.34375 v 2.851562 h 0.5078125 v -2.851562 z m 0,2.34375 v 2.851562 h 0.5078125 v -2.851562 z m 0,2.34375 v 2.851562 h 0.5078125 v -2.851562 z m 0,2.34375 v 2.851562 h 0.5078125 v -2.851562 z m 0,2.341308 v 2.851563 h 0.5078125 v -2.851563 z m 0,2.34375 v 2.851563 h 0.5078125 v -2.851563 z m 0,2.34375 v 2.851563 h 0.5078125 v -2.851563 z m 0,2.34375 v 2.851563 h 0.5078125 v -2.851563 z m 0,2.341309 v 2.851563 h 0.5078125 v -2.851563 z m 0,7.539063 h 0.5078125 v -1.259766 c 0,-0.644531 0.6152344,-1.074219 1.2890625,-1.113281 h 0.087891 v -0.458985 c -0.7128906,0 -1.3769531,-0.449218 -1.3769531,-1.113281 v -1.25 H 2.0898828 v 1.259766 c 0,0.595703 0.3613281,1.064453 0.8886719,1.33789 -0.5273438,0.263672 -0.8886719,0.742188 -0.8886719,1.347657 z m 0,-0.583497 v 2.851563 h 0.5078125 v -2.851563 z m 0,2.34375 v 2.851563 h 0.5078125 v -2.851563 z m 0,2.34375 v 2.851563 h 0.5078125 v -2.851563 z m 0,2.341309 v 2.851563 H 2.5976953 V 51.3 Z m 0,2.34375 v 2.851563 H 2.5976953 V 53.64375 Z m 0,2.34375 v 2.851563 H 2.5976953 V 55.9875 Z m 0,2.34375 v 2.851563 H 2.5976953 V 58.33125 Z m 0,2.341309 v 2.851562 h 0.5078125 v -2.851562 z m 0,2.34375 v 2.851562 h 0.5078125 v -2.851562 z m 0,2.34375 v 2.851562 h 0.5078125 v -2.851562 z m 0,2.34375 v 2.851562 h 0.5078125 v -2.851562 z m 0,2.34375 v 2.851562 h 0.5078125 v -2.851562 z m 0,2.341308 v 2.851563 h 0.5078125 v -2.851563 z m 0,2.34375 v 2.851563 h 0.5078125 v -2.851563 z m 0,2.34375 v 2.851563 h 0.5078125 v -2.851563 z m 0,2.34375 v 2.851563 h 0.5078125 v -2.851563 z m 0,2.34375 v 2.851563 h 0.5078125 v -2.851563 z m -1.37695311,6.853028 v 0.429687 c 0.99609371,0 1.88476561,-0.664062 1.88476561,-1.611328 V 84.105176 H 2.0898828 v 3.339844 c 0,0.683593 -0.6445312,1.171875 -1.37695311,1.171875 z m 0,0" style="fill:#121619;fill-opacity:1;fill-rule:nonzero;stroke:none" />
      <path id="path60" d="m 12.368203,41.400098 c 0.0293,-0.107422 0.0293,-0.126953 0.0293,-0.175782 0,-0.205078 -0.15625,-0.253906 -0.253906,-0.253906 -0.03906,0 -0.22461,0.0098 -0.332031,0.214844 -0.0098,0.03906 -0.08789,0.332031 -0.126954,0.498047 l -0.478515,1.914062 c 0,0.01953 -0.351563,0.664063 -0.927735,0.664063 -0.3906246,0 -0.5273434,-0.283203 -0.5273434,-0.644531 0,-0.458985 0.2734374,-1.171875 0.4589844,-1.63086 0.07813,-0.195312 0.09766,-0.273437 0.09766,-0.410156 0,-0.439453 -0.3515622,-0.683594 -0.7128904,-0.683594 -0.7910156,0 -1.1230468,1.123047 -1.1230468,1.220703 0,0.06836 0.058594,0.107422 0.1269531,0.107422 0.097656,0 0.1074219,-0.04883 0.1367187,-0.126953 0.2050782,-0.693359 0.546875,-0.976562 0.8300782,-0.976562 0.1269531,0 0.1953125,0.07813 0.1953125,0.263671 0,0.166016 -0.068359,0.351563 -0.1171875,0.498047 -0.3320313,0.839844 -0.46875,1.25 -0.46875,1.621094 0,0.78125 0.5957031,0.986328 1.0644532,0.986328 0.371094,0 0.644531,-0.166015 0.830078,-0.351562 -0.107422,0.449218 -0.185547,0.761718 -0.488281,1.142578 -0.263672,0.322265 -0.5859377,0.537109 -0.9375002,0.537109 -0.1367188,0 -0.4394532,-0.0293 -0.6054688,-0.263672 0.4296875,-0.03906 0.4589844,-0.390625 0.4589844,-0.439453 0,-0.195312 -0.1464844,-0.292969 -0.3125,-0.292969 -0.1757813,0 -0.4492188,0.126954 -0.4492188,0.517579 0,0.380859 0.3417969,0.693359 0.9082032,0.693359 0.8105472,0 1.7285152,-0.644531 1.9628902,-1.611328 z m 0,0" style="fill:#121619;fill-opacity:1;fill-rule:nonzero;stroke:none" />
      <path id="path61" d="m 19.46293,40.550488 v -0.507812 h -1.972657 c -1.083984,0 -1.855468,1.02539 -1.855468,2.177734 0,1.142578 0.771484,2.167969 1.855468,2.167969 h 1.972657 v -0.507813 h -1.972657 c -0.732421,0 -1.230468,-0.654296 -1.328125,-1.40625 h 3.300782 v -0.517578 h -3.300782 c 0.09766,-0.751953 0.595704,-1.40625 1.328125,-1.40625 z m 0,0" style="fill:#121619;fill-opacity:1;fill-rule:nonzero;stroke:none" />
      <path id="path62" d="m 25.502969,41.829785 c 0.09766,-0.08789 0.09766,-0.107422 0.09766,-0.146484 0,-0.0293 -0.0293,-0.07813 -0.05859,-0.107422 l -1.708984,-2.34375 h 1.943359 c 1.240235,0 1.845703,0.175781 2.011719,1.542969 h 0.244141 l -0.234375,-1.806641 h -4.697266 c -0.175781,0 -0.234375,0 -0.234375,0.175781 l 2.099609,2.88086 -2.011718,2.138672 c -0.06836,0.07813 -0.08789,0.08789 -0.08789,0.136718 0,0.107422 0.107422,0.107422 0.234375,0.107422 H 27.7979 l 0.234375,-1.904297 h -0.244141 c -0.175781,1.31836 -0.683594,1.542969 -2.041016,1.542969 h -2.333984 z m 0,0" style="fill:#121619;fill-opacity:1;fill-rule:nonzero;stroke:none" />
      <path id="path63" d="m 30.26127,38.19209 c -0.0293,-0.449219 -0.449219,-0.566406 -0.673829,-0.566406 -0.224609,0 -0.380859,0.136718 -0.488281,0.332031 -0.146484,0.24414 -0.224609,0.55664 -0.224609,0.585937 0,0.05859 0.05859,0.08789 0.107422,0.08789 0.09766,0 0.107422,-0.03906 0.136718,-0.136719 0.117188,-0.478515 0.263672,-0.673828 0.449219,-0.673828 0.214844,0 0.214844,0.244141 0.214844,0.3125 0,0.08789 -0.05859,0.332031 -0.09766,0.498047 -0.03906,0.15625 -0.09766,0.410156 -0.136719,0.537109 -0.03906,0.146485 -0.06836,0.302735 -0.117188,0.458985 -0.03906,0.166015 -0.107421,0.458984 -0.107421,0.498047 0,0.126953 0.09766,0.195312 0.205078,0.195312 0.107422,0 0.205078,-0.06836 0.253906,-0.15625 0.01953,-0.03906 0.06836,-0.244141 0.09766,-0.371094 l 0.136719,-0.537109 c 0.03906,-0.15625 0.05859,-0.263672 0.09766,-0.400391 0.05859,-0.205078 0.263672,-0.517578 0.488281,-0.742187 0.117188,-0.107422 0.371094,-0.292969 0.69336,-0.292969 0.380859,0 0.380859,0.3125 0.380859,0.419922 0,0.351562 -0.253906,0.996094 -0.361328,1.259766 -0.03906,0.107421 -0.07813,0.195312 -0.07813,0.302734 0,0.302734 0.273438,0.517578 0.605469,0.517578 0.605469,0 0.898437,-0.791016 0.898437,-0.917969 0,-0.0098 0,-0.08789 -0.107422,-0.08789 -0.08789,0 -0.09766,0.0293 -0.126953,0.146484 -0.09766,0.3125 -0.341797,0.664063 -0.644531,0.664063 -0.117187,0 -0.166016,-0.08789 -0.166016,-0.214844 0,-0.117188 0.03906,-0.22461 0.09766,-0.351563 0.08789,-0.224609 0.361328,-0.908203 0.361328,-1.240234 0,-0.488281 -0.371094,-0.693359 -0.830078,-0.693359 -0.292969,0 -0.683594,0.09766 -1.064453,0.566406 z m 0,0" style="fill:#121619;fill-opacity:1;fill-rule:nonzero;stroke:none" />
    </g>
    <path id="path64" d="m -87.47676,-49.6069 c 0,0.22007 -0.17844,0.3985 -0.39851,0.3985 -0.22008,0 -0.3985,-0.17843 -0.3985,-0.3985 0,-0.22008 0.17842,-0.39852 0.3985,-0.39852 0.22007,0 0.39851,0.17844 0.39851,0.39852 z" style="fill:#121619;fill-opacity:1;fill-rule:nonzero;stroke:#121619;stroke-width:0.3985;stroke-linecap:butt;stroke-linejoin:miter;stroke-miterlimit:10;stroke-dasharray:none;stroke-opacity:1" transform="matrix(1.6,0,0,-1.6,246.6568,18.268)" />
    <path id="path65" d="m -87.47676,-56.69362 c 0,0.22009 -0.17844,0.39852 -0.39851,0.39852 -0.22008,0 -0.3985,-0.17843 -0.3985,-0.39852 0,-0.22008 0.17842,-0.3985 0.3985,-0.3985 0.22007,0 0.39851,0.17842 0.39851,0.3985 z" style="fill:#121619;fill-opacity:1;fill-rule:nonzero;stroke:#121619;stroke-width:0.3985;stroke-linecap:butt;stroke-linejoin:miter;stroke-miterlimit:10;stroke-dasharray:none;stroke-opacity:1" transform="matrix(1.6,0,0,-1.6,246.6568,18.268)" />
    <path id="path66" d="m -87.47676,-63.7803 c 0,0.22007 -0.17844,0.3985 -0.39851,0.3985 -0.22008,0 -0.3985,-0.17843 -0.3985,-0.3985 0,-0.22008 0.17842,-0.3985 0.3985,-0.3985 0.22007,0 0.39851,0.17842 0.39851,0.3985 z" style="fill:#121619;fill-opacity:1;fill-rule:nonzero;stroke:#121619;stroke-width:0.3985;stroke-linecap:butt;stroke-linejoin:miter;stroke-miterlimit:10;stroke-dasharray:none;stroke-opacity:1" transform="matrix(1.6,0,0,-1.6,246.6568,18.268)" />
    <path id="path67" d="m -56.2951,-49.6069 c 0,0.22007 -0.17843,0.3985 -0.39852,0.3985 -0.22008,0 -0.3985,-0.17843 -0.3985,-0.3985 0,-0.22008 0.17842,-0.39852 0.3985,-0.39852 0.22009,0 0.39852,0.17844 0.39852,0.39852 z" style="fill:#121619;fill-opacity:1;fill-rule:nonzero;stroke:#121619;stroke-width:0.3985;stroke-linecap:butt;stroke-linejoin:miter;stroke-miterlimit:10;stroke-dasharray:none;stroke-opacity:1" transform="matrix(1.6,0,0,-1.6,246.6568,18.268)" />
    <path id="path68" d="m -56.2951,-56.69362 c 0,0.22009 -0.17843,0.39852 -0.39852,0.39852 -0.22008,0 -0.3985,-0.17843 -0.3985,-0.39852 0,-0.22008 0.17842,-0.3985 0.3985,-0.3985 0.22009,0 0.39852,0.17842 0.39852,0.3985 z" style="fill:#121619;fill-opacity:1;fill-rule:nonzero;stroke:#121619;stroke-width:0.3985;stroke-linecap:butt;stroke-linejoin:miter;stroke-miterlimit:10;stroke-dasharray:none;stroke-opacity:1" transform="matrix(1.6,0,0,-1.6,246.6568,18.268)" />
    <path id="path69" d="m -56.2951,-63.7803 c 0,0.22007 -0.17843,0.3985 -0.39852,0.3985 -0.22008,0 -0.3985,-0.17843 -0.3985,-0.3985 0,-0.22008 0.17842,-0.3985 0.3985,-0.3985 0.22009,0 0.39852,0.17842 0.39852,0.3985 z" style="fill:#121619;fill-opacity:1;fill-rule:nonzero;stroke:#121619;stroke-width:0.3985;stroke-linecap:butt;stroke-linejoin:miter;stroke-miterlimit:10;stroke-dasharray:none;stroke-opacity:1" transform="matrix(1.6,0,0,-1.6,246.6568,18.268)" />
    <path id="path70" d="m 57.09212,-49.6069 c 0,0.22007 -0.17842,0.3985 -0.3985,0.3985 -0.22009,0 -0.39852,-0.17843 -0.39852,-0.3985 0,-0.22008 0.17843,-0.39852 0.39852,-0.39852 0.22008,0 0.3985,0.17844 0.3985,0.39852 z" style="fill:#121619;fill-opacity:1;fill-rule:nonzero;stroke:#121619;stroke-width:0.3985;stroke-linecap:butt;stroke-linejoin:miter;stroke-miterlimit:10;stroke-dasharray:none;stroke-opacity:1" transform="matrix(1.6,0,0,-1.6,246.6568,18.268)" />
    <path id="path71" d="m 57.09212,-56.69362 c 0,0.22009 -0.17842,0.39852 -0.3985,0.39852 -0.22009,0 -0.39852,-0.17843 -0.39852,-0.39852 0,-0.22008 0.17843,-0.3985 0.39852,-0.3985 0.22008,0 0.3985,0.17842 0.3985,0.3985 z" style="fill:#121619;fill-opacity:1;fill-rule:nonzero;stroke:#121619;stroke-width:0.3985;stroke-linecap:butt;stroke-linejoin:miter;stroke-miterlimit:10;stroke-dasharray:none;stroke-opacity:1" transform="matrix(1.6,0,0,-1.6,246.6568,18.268)" />
    <path id="path72" d="m 57.09212,-63.7803 c 0,0.22007 -0.17842,0.3985 -0.3985,0.3985 -0.22009,0 -0.39852,-0.17843 -0.39852,-0.3985 0,-0.22008 0.17843,-0.3985 0.39852,-0.3985 0.22008,0 0.3985,0.17842 0.3985,0.3985 z" style="fill:#121619;fill-opacity:1;fill-rule:nonzero;stroke:#121619;stroke-width:0.3985;stroke-linecap:butt;stroke-linejoin:miter;stroke-miterlimit:10;stroke-dasharray:none;stroke-opacity:1" transform="matrix(1.6,0,0,-1.6,246.6568,18.268)" />
    <path id="path73" d="m 88.27377,-49.6069 c 0,0.22007 -0.17842,0.3985 -0.3985,0.3985 -0.22007,0 -0.39851,-0.17843 -0.39851,-0.3985 0,-0.22008 0.17844,-0.39852 0.39851,-0.39852 0.22008,0 0.3985,0.17844 0.3985,0.39852 z" style="fill:#121619;fill-opacity:1;fill-rule:nonzero;stroke:#121619;stroke-width:0.3985;stroke-linecap:butt;stroke-linejoin:miter;stroke-miterlimit:10;stroke-dasharray:none;stroke-opacity:1" transform="matrix(1.6,0,0,-1.6,246.6568,18.268)" />
    <path id="path74" d="m 88.27377,-56.69362 c 0,0.22009 -0.17842,0.39852 -0.3985,0.39852 -0.22007,0 -0.39851,-0.17843 -0.39851,-0.39852 0,-0.22008 0.17844,-0.3985 0.39851,-0.3985 0.22008,0 0.3985,0.17842 0.3985,0.3985 z" style="fill:#121619;fill-opacity:1;fill-rule:nonzero;stroke:#121619;stroke-width:0.3985;stroke-linecap:butt;stroke-linejoin:miter;stroke-miterlimit:10;stroke-dasharray:none;stroke-opacity:1" transform="matrix(1.6,0,0,-1.6,246.6568,18.268)" />
    <path id="path75" d="m 88.27377,-63.7803 c 0,0.22007 -0.17842,0.3985 -0.3985,0.3985 -0.22007,0 -0.39851,-0.17843 -0.39851,-0.3985 0,-0.22008 0.17844,-0.3985 0.39851,-0.3985 0.22008,0 0.3985,0.17842 0.3985,0.3985 z" style="fill:#121619;fill-opacity:1;fill-rule:nonzero;stroke:#121619;stroke-width:0.3985;stroke-linecap:butt;stroke-linejoin:miter;stroke-miterlimit:10;stroke-dasharray:none;stroke-opacity:1" transform="matrix(1.6,0,0,-1.6,246.6568,18.268)" />
    <path id="path76" d="m -56.2951,-141.73404 c 0,0.22008 -0.17843,0.3985 -0.39852,0.3985 -0.22008,0 -0.3985,-0.17842 -0.3985,-0.3985 0,-0.22008 0.17842,-0.39851 0.3985,-0.39851 0.22009,0 0.39852,0.17843 0.39852,0.39851 z" style="fill:#121619;fill-opacity:1;fill-rule:nonzero;stroke:#121619;stroke-width:0.3985;stroke-linecap:butt;stroke-linejoin:miter;stroke-miterlimit:10;stroke-dasharray:none;stroke-opacity:1" transform="matrix(1.6,0,0,-1.6,246.6568,18.268)" />
    <path id="path77" d="m -56.2951,-148.82074 c 0,0.22009 -0.17843,0.39851 -0.39852,0.39851 -0.22008,0 -0.3985,-0.17842 -0.3985,-0.39851 0,-0.22008 0.17842,-0.3985 0.3985,-0.3985 0.22009,0 0.39852,0.17842 0.39852,0.3985 z" style="fill:#121619;fill-opacity:1;fill-rule:nonzero;stroke:#121619;stroke-width:0.3985;stroke-linecap:butt;stroke-linejoin:miter;stroke-miterlimit:10;stroke-dasharray:none;stroke-opacity:1" transform="matrix(1.6,0,0,-1.6,246.6568,18.268)" />
    <path id="path78" d="m -56.2951,-155.90744 c 0,0.22008 -0.17843,0.3985 -0.39852,0.3985 -0.22008,0 -0.3985,-0.17842 -0.3985,-0.3985 0,-0.22008 0.17842,-0.3985 0.3985,-0.3985 0.22009,0 0.39852,0.17842 0.39852,0.3985 z" style="fill:#121619;fill-opacity:1;fill-rule:nonzero;stroke:#121619;stroke-width:0.3985;stroke-linecap:butt;stroke-linejoin:miter;stroke-miterlimit:10;stroke-dasharray:none;stroke-opacity:1" transform="matrix(1.6,0,0,-1.6,246.6568,18.268)" />
    <path id="path79" d="m 72.68295,-141.73404 c 0,0.22008 -0.17843,0.3985 -0.39851,0.3985 -0.22008,0 -0.3985,-0.17842 -0.3985,-0.3985 0,-0.22008 0.17842,-0.39851 0.3985,-0.39851 0.22008,0 0.39851,0.17843 0.39851,0.39851 z" style="fill:#121619;fill-opacity:1;fill-rule:nonzero;stroke:#121619;stroke-width:0.3985;stroke-linecap:butt;stroke-linejoin:miter;stroke-miterlimit:10;stroke-dasharray:none;stroke-opacity:1" transform="matrix(1.6,0,0,-1.6,246.6568,18.268)" />
    <path id="path80" d="m 72.68295,-148.82074 c 0,0.22009 -0.17843,0.39851 -0.39851,0.39851 -0.22008,0 -0.3985,-0.17842 -0.3985,-0.39851 0,-0.22008 0.17842,-0.3985 0.3985,-0.3985 0.22008,0 0.39851,0.17842 0.39851,0.3985 z" style="fill:#121619;fill-opacity:1;fill-rule:nonzero;stroke:#121619;stroke-width:0.3985;stroke-linecap:butt;stroke-linejoin:miter;stroke-miterlimit:10;stroke-dasharray:none;stroke-opacity:1" transform="matrix(1.6,0,0,-1.6,246.6568,18.268)" />
    <path id="path81" d="m 72.68295,-155.90744 c 0,0.22008 -0.17843,0.3985 -0.39851,0.3985 -0.22008,0 -0.3985,-0.17842 -0.3985,-0.3985 0,-0.22008 0.17842,-0.3985 0.3985,-0.3985 0.22008,0 0.39851,0.17842 0.39851,0.3985 z" style="fill:#121619;fill-opacity:1;fill-rule:nonzero;stroke:#121619;stroke-width:0.3985;stroke-linecap:butt;stroke-linejoin:miter;stroke-miterlimit:10;stroke-dasharray:none;stroke-opacity:1" transform="matrix(1.6,0,0,-1.6,246.6568,18.268)" />
  </g>
</svg>