<?xml version='1.0' encoding='utf-8'?>
<svg xmlns="http://www.w3.org/2000/svg" xmlns:ns1="http://sodipodi.sourceforge.net/DTD/sodipodi-0.dtd" xmlns:ns2="http://www.inkscape.org/namespaces/inkscape" version="1.1" id="svg1" width="100%" height="auto" viewBox="-20.0 -20.0 441.3728 245.15889" ns1:docname="svg_fix_XXXXXX.svg">
  <rect id="path1" x="-20.0" y="-20.0" width="441.3728" height="245.15889" fill="white" /><ns1:namedview id="namedview1" pagecolor="#ffffff" bordercolor="#000000" borderopacity="0.25" ns2:showpageshadow="2" ns2:pageopacity="0.0" ns2:pagecheckerboard="0" ns2:deskcolor="#d1d1d1" />
  <defs id="defs1" />
  <g id="g1" transform="translate(-99.319198,-63.716982)">
    <path id="path2" d="m 48.18958,-28.3467 h 17.00806 v 17.00806 H 48.18958 Z" style="fill:#000000;fill-opacity:1;fill-rule:nonzero;stroke:#000000;stroke-width:0.3985;stroke-linecap:butt;stroke-linejoin:miter;stroke-miterlimit:10;stroke-dasharray:none;stroke-opacity:1" transform="matrix(2.6666667,0,0,-2.6666667,243.312,192.75333)" />
    <path id="path3" d="m 62.36288,-22.39377 c 0,3.13112 -2.53822,5.66936 -5.66934,5.66936 -3.13113,0 -5.66935,-2.53824 -5.66935,-5.66936" style="fill:none;stroke:#ffffff;stroke-width:0.79701;stroke-linecap:butt;stroke-linejoin:miter;stroke-miterlimit:10;stroke-dasharray:none;stroke-opacity:1" transform="matrix(2.6666667,0,0,-2.6666667,243.312,192.75333)" />
    <path id="path4" d="m 56.69362,-22.11044 5.66926,4.81889" style="fill:none;stroke:#ffffff;stroke-width:0.79701;stroke-linecap:butt;stroke-linejoin:miter;stroke-miterlimit:10;stroke-dasharray:none;stroke-opacity:1" transform="matrix(2.6666667,0,0,-2.6666667,243.312,192.75333)" />
    <path id="path5" d="m 57.544,-22.11044 c 0,0.46966 -0.38072,0.85038 -0.85038,0.85038 -0.46967,0 -0.8504,-0.38072 -0.8504,-0.85038 0,-0.46967 0.38073,-0.85041 0.8504,-0.85041 0.46966,0 0.85038,0.38074 0.85038,0.85041 z" style="fill:#ffffff;fill-opacity:1;fill-rule:nonzero;stroke:none" transform="matrix(2.6666667,0,0,-2.6666667,243.312,192.75333)" />
    <g id="g5" aria-label="∣+⟩" transform="matrix(2.6666667,0,0,2.6666667,109.58133,251.51067)">
      <path id="path6" d="M 1.1955742,-6.0933555 V 1.711332 h 0.5097656 v -7.8046875 z m 0,0" style="fill:#121619;fill-opacity:1;fill-rule:nonzero;stroke:none" />
      <path id="path7" d="m 5.5139336,-4.3414023 v 1.8925781 H 3.6154961 v 0.515625 h 1.8984375 v 1.89257811 H 6.0236992 V -1.9331992 h 1.8984375 v -0.515625 H 6.0236992 v -1.8925781 z m 0,0" style="fill:#121619;fill-opacity:1;fill-rule:nonzero;stroke:none" />
      <path id="path8" d="M 9.8528008,1.7992227 11.288348,-2.1910117 9.8528008,-6.1812461 9.372332,-6.0054648 10.807879,-2.1910117 9.372332,1.6234414 Z m 0,0" style="fill:#121619;fill-opacity:1;fill-rule:nonzero;stroke:none" />
    </g>
    <path id="path9" d="M -53.9973,39.68535 H 96.5175" style="fill:none;stroke:#121619;stroke-width:0.3985;stroke-linecap:butt;stroke-linejoin:miter;stroke-miterlimit:10;stroke-dasharray:none;stroke-opacity:1" transform="matrix(2.6666667,0,0,-2.6666667,243.312,192.75333)" />
    <path id="path10" d="M -53.9973,19.84267 H 96.5175" style="fill:none;stroke:#121619;stroke-width:0.3985;stroke-linecap:butt;stroke-linejoin:miter;stroke-miterlimit:10;stroke-dasharray:none;stroke-opacity:1" transform="matrix(2.6666667,0,0,-2.6666667,243.312,192.75333)" />
    <path id="path11" d="M -32.73718,-19.84267 H 47.99033" style="fill:none;stroke:#121619;stroke-width:0.3985;stroke-linecap:butt;stroke-linejoin:miter;stroke-miterlimit:10;stroke-dasharray:none;stroke-opacity:1" transform="matrix(2.6666667,0,0,-2.6666667,243.312,192.75333)" />
    <path id="path12" d="M 65.3969,-18.99226 H 82.3441" style="fill:none;stroke:#121619;stroke-width:0.3985;stroke-linecap:butt;stroke-linejoin:miter;stroke-miterlimit:10;stroke-dasharray:none;stroke-opacity:1" transform="matrix(2.6666667,0,0,-2.6666667,243.312,192.75333)" />
    <path id="path13" d="M 65.3969,-20.69307 H 82.3441" style="fill:none;stroke:#121619;stroke-width:0.3985;stroke-linecap:butt;stroke-linejoin:miter;stroke-miterlimit:10;stroke-dasharray:none;stroke-opacity:1" transform="matrix(2.6666667,0,0,-2.6666667,243.312,192.75333)" />
    <path id="path14" d="m -11.6827,-19.84267 c 0,1.37558 -1.1151,2.4907 -2.49069,2.4907 -1.37558,0 -2.49069,-1.11512 -2.49069,-2.4907 0,-1.37558 1.11511,-2.49069 2.49069,-2.49069 1.37559,0 2.49069,1.11511 2.49069,2.49069 z" style="fill:#78a9ff;fill-opacity:1;fill-rule:nonzero;stroke:none" transform="matrix(2.6666667,0,0,-2.6666667,243.312,192.75333)" />
    <path id="path15" d="m 9.57738,-19.84267 c 0,1.37558 -1.11511,2.4907 -2.49069,2.4907 -1.37559,0 -2.49069,-1.11512 -2.49069,-2.4907 0,-1.37558 1.1151,-2.49069 2.49069,-2.49069 1.37558,0 2.49069,1.11511 2.49069,2.49069 z" style="fill:#78a9ff;fill-opacity:1;fill-rule:nonzero;stroke:none" transform="matrix(2.6666667,0,0,-2.6666667,243.312,192.75333)" />
    <path id="path16" d="M -22.67743,31.18132 H -5.66937 V 48.18938 H -22.67743 Z" style="fill:#78a9ff;fill-opacity:1;fill-rule:nonzero;stroke:#78a9ff;stroke-width:0.3985;stroke-linecap:butt;stroke-linejoin:miter;stroke-miterlimit:10;stroke-dasharray:none;stroke-opacity:1" transform="matrix(2.6666667,0,0,-2.6666667,243.312,192.75333)" />
    <path id="path17" d="m 5.9115898,-5.1388594 c 0.064453,-0.064453 0.1113282,-0.1230468 0.1113282,-0.2167968 0,-0.087891 -0.064453,-0.087891 -0.2167969,-0.087891 H 2.2611992 c -0.2050781,0 -0.2109375,0.00586 -0.2636719,0.1582032 l -0.4453125,1.417969 c -0.00586,0.035156 -0.023437,0.082031 -0.023437,0.1230469 0,0.017578 0.00586,0.1113281 0.1230469,0.1113281 0.082031,0 0.099609,-0.035156 0.1464844,-0.1933594 C 2.1850278,-4.9103437 2.8061216,-5.179875 3.7787778,-5.179875 H 5.155731 l -4.55273441,4.875 c -0.0644531,0.0761719 -0.11132812,0.12304688 -0.11132812,0.21679688 0,0.08789062 0.0761719,0.08789062 0.21679687,0.08789062 H 4.3881523 c 0.2109375,0 0.2167969,-0.00585937 0.2636719,-0.15820312 L 5.2084648,-1.9044844 c 0.035156,-0.1054687 0.035156,-0.1171875 0.035156,-0.1289062 0,-0.00586 -0.00586,-0.1113281 -0.1230469,-0.1113281 -0.046875,0 -0.070312,0.023437 -0.076172,0.035156 -0.017578,0.011719 -0.035156,0.029297 -0.041016,0.046875 -0.017578,0.046875 -0.017578,0.064453 -0.082031,0.2402344 -0.3574219,1.0722656 -0.8203125,1.53515623 -2.0742188,1.53515623 H 1.3881523 Z m 0,0" style="fill:#ffffff;fill-opacity:1;fill-rule:nonzero;stroke:none" aria-label="Z" transform="matrix(2.6666667,0,0,2.6666667,197.11467,94.188)" />
    <path id="path18" d="M -1.41733,11.33864 H 15.59073 V 28.3467 H -1.41733 Z" style="fill:#78a9ff;fill-opacity:1;fill-rule:nonzero;stroke:#78a9ff;stroke-width:0.3985;stroke-linecap:butt;stroke-linejoin:miter;stroke-miterlimit:10;stroke-dasharray:none;stroke-opacity:1" transform="matrix(2.6666667,0,0,-2.6666667,243.312,192.75333)" />
    <path id="path19" d="m 5.912332,-5.1380859 c 0.064453,-0.064453 0.1113282,-0.1230469 0.1113282,-0.2167969 0,-0.087891 -0.064453,-0.087891 -0.2167969,-0.087891 H 2.2619414 c -0.2050781,0 -0.2109375,0.00586 -0.2636719,0.1582031 L 1.552957,-3.8666016 c -0.00586,0.035156 -0.023437,0.082031 -0.023437,0.1230469 0,0.017578 0.00586,0.1113281 0.1230469,0.1113281 0.082031,0 0.099609,-0.035156 0.1464844,-0.1933593 C 2.18577,-4.9095703 2.8068638,-5.1791016 3.77952,-5.1791016 h 1.3769532 l -4.55273442,4.87500004 c -0.0644531,0.0761719 -0.11132812,0.12304687 -0.11132812,0.21679687 0,0.0878906275 0.0761719,0.0878906275 0.21679687,0.0878906275 H 4.3888945 c 0.2109375,0 0.2167969,-0.005859377 0.2636719,-0.1582031275 L 5.209207,-1.9037109 c 0.035156,-0.1054688 0.035156,-0.1171875 0.035156,-0.1289063 0,-0.00586 -0.00586,-0.1113281 -0.1230469,-0.1113281 -0.046875,0 -0.070312,0.023437 -0.076172,0.035156 -0.017578,0.011719 -0.035156,0.029297 -0.041016,0.046875 -0.017578,0.046875 -0.017578,0.064453 -0.082031,0.2402344 -0.3574219,1.07226564 -0.8203125,1.53515626 -2.0742188,1.53515626 H 1.3888945 Z m 0,0" style="fill:#ffffff;fill-opacity:1;fill-rule:nonzero;stroke:none" aria-label="Z" transform="matrix(2.6666667,0,0,2.6666667,253.808,147.1)" />
    <path id="path20" d="M -14.17339,-19.84267 V 30.98207" style="fill:none;stroke:#78a9ff;stroke-width:0.79701;stroke-linecap:butt;stroke-linejoin:miter;stroke-miterlimit:10;stroke-dasharray:none;stroke-opacity:1" transform="matrix(2.6666667,0,0,-2.6666667,243.312,192.75333)" />
    <path id="path21" d="M 7.08669,-19.84267 V 11.13937" style="fill:none;stroke:#78a9ff;stroke-width:0.79701;stroke-linecap:butt;stroke-linejoin:miter;stroke-miterlimit:10;stroke-dasharray:none;stroke-opacity:1" transform="matrix(2.6666667,0,0,-2.6666667,243.312,192.75333)" />
    <path id="path22" d="m 19.84277,-28.3467 h 17.00806 v 17.00806 H 19.84277 Z" style="fill:#78a9ff;fill-opacity:1;fill-rule:nonzero;stroke:#78a9ff;stroke-width:0.3985;stroke-linecap:butt;stroke-linejoin:miter;stroke-miterlimit:10;stroke-dasharray:none;stroke-opacity:1" transform="matrix(2.6666667,0,0,-2.6666667,243.312,192.75333)" />
    <path id="path23" d="m 6.3698281,-4.7986953 c 0.076172,-0.3105469 0.09375,-0.3808594 0.6503907,-0.3808594 0.1816406,0 0.28125,0 0.28125,-0.1523437 0,-0.00586 -0.011719,-0.1113282 -0.1347657,-0.1113282 -0.1523437,0 -0.3457031,0.017578 -0.4980468,0.023437 H 6.1706094 c -0.7675781,0 -0.9726563,-0.023437 -1.03125,-0.023437 -0.029297,0 -0.1582031,0 -0.1582031,0.1523438 0,0.1113281 0.1054687,0.1113281 0.2285156,0.1113281 0.2636719,0 0.4980469,0 0.4980469,0.1289063 0,0.029297 -0.011719,0.041016 -0.035156,0.140625 L 5.1979531,-2.9647109 H 2.6315469 l 0.4628906,-1.8574219 c 0.070312,-0.2871094 0.087891,-0.3574219 0.6679688,-0.3574219 0.1582031,0 0.2519531,0 0.2519531,-0.1523437 0,-0.00586 -0.00586,-0.1113282 -0.1347656,-0.1113282 -0.1523438,0 -0.3398438,0.017578 -0.4921875,0.023437 H 2.8835 c -0.7617187,0 -0.9726562,-0.023437 -1.0253906,-0.023437 -0.035156,0 -0.1582031,0 -0.1582031,0.1523438 0,0.1113281 0.099609,0.1113281 0.2285156,0.1113281 0.2636719,0 0.4921875,0 0.4921875,0.1289063 0,0.029297 -0.00586,0.041016 -0.029297,0.140625 l -1.0664062,4.28320309 c -0.070312,0.29882812 -0.087891,0.36328125 -0.67968755,0.36328125 -0.15234375,0 -0.24609375,0 -0.24609375,0.15234375 0,0.02929687 0.0234375,0.1113281225 0.12890625,0.1113281225 0.15234375,0 0.33984375,-0.0175781225 0.49218755,-0.0234375025 h 0.5097656 c 0.7675781,0 0.9726562,0.0234375025 1.03125,0.0234375025 0.046875,0 0.1582031,0 0.1582031,-0.1523437525 0,-0.11132812 -0.1054687,-0.11132812 -0.2402344,-0.11132812 -0.023437,0 -0.1699218,0 -0.3046875,-0.0175781 -0.1640625,-0.0117188 -0.1816406,-0.0351563 -0.1816406,-0.11132812 0,-0.0351563 0.017578,-0.0878906 0.023438,-0.12304688 L 2.5612344,-2.7010391 h 2.5605469 c -0.2285157,0.9375 -0.5390625,2.18554691 -0.5449219,2.18554691 -0.076172,0.24609375 -0.2167969,0.24609375 -0.6972656,0.25195313 -0.09375,0 -0.1992188,0 -0.1992188,0.15234375 0,0.02929687 0.023437,0.1113281225 0.1289063,0.1113281225 0.1523437,0 0.3457031,-0.0175781225 0.4921875,-0.0234375025 h 0.5097656 c 0.7675781,0 0.9726562,0.0234375025 1.03125,0.0234375025 0.046875,0 0.1582031,0 0.1582031,-0.1523437525 0,-0.11132812 -0.1054687,-0.11132812 -0.2402344,-0.11132812 -0.023437,0 -0.1640625,0 -0.2988281,-0.0175781 -0.1699219,-0.0117188 -0.1875,-0.0351563 -0.1875,-0.11132812 0,-0.0351563 0.017578,-0.0878906 0.023437,-0.12304688 z m 0,0" style="fill:#ffffff;fill-opacity:1;fill-rule:nonzero;stroke:none" aria-label="H" transform="matrix(2.6666667,0,0,2.6666667,308.81067,252.92933)" />
  </g>
</svg>