<?xml version='1.0' encoding='utf-8'?>
<svg xmlns="http://www.w3.org/2000/svg" xmlns:ns1="http://sodipodi.sourceforge.net/DTD/sodipodi-0.dtd" xmlns:ns2="http://www.inkscape.org/namespaces/inkscape" version="1.1" id="svg1" width="100%" height="auto" viewBox="-20.0 -20.0 479.16858 298.07385" ns1:docname="svg_fix_XXXXXX.svg">
  <rect id="path1" x="-20.0" y="-20.0" width="479.16858" height="298.07385" fill="white" /><ns1:namedview id="namedview1" pagecolor="#ffffff" bordercolor="#000000" borderopacity="0.25" ns2:showpageshadow="2" ns2:pageopacity="0.0" ns2:pagecheckerboard="0" ns2:deskcolor="#d1d1d1" />
  <defs id="defs1" />
  <g id="g1" transform="translate(-80.421868,-42.548691)">
    <path id="path2" d="m 66.61482,-28.3467 h 17.00806 v 17.00806 H 66.61482 Z" style="fill:#000000;fill-opacity:1;fill-rule:nonzero;stroke:#000000;stroke-width:0.3985;stroke-linecap:butt;stroke-linejoin:miter;stroke-miterlimit:10;stroke-dasharray:none;stroke-opacity:1" transform="matrix(2.6666667,0,0,-2.6666667,224.41467,224.5)" />
    <path id="path3" d="m 80.78813,-22.39377 c 0,3.13112 -2.53823,5.66936 -5.66936,5.66936 -3.13111,0 -5.66934,-2.53824 -5.66934,-5.66936" style="fill:none;stroke:#ffffff;stroke-width:0.79701;stroke-linecap:butt;stroke-linejoin:miter;stroke-miterlimit:10;stroke-dasharray:none;stroke-opacity:1" transform="matrix(2.6666667,0,0,-2.6666667,224.41467,224.5)" />
    <path id="path4" d="m 75.11885,-22.11044 5.66928,4.81889" style="fill:none;stroke:#ffffff;stroke-width:0.79701;stroke-linecap:butt;stroke-linejoin:miter;stroke-miterlimit:10;stroke-dasharray:none;stroke-opacity:1" transform="matrix(2.6666667,0,0,-2.6666667,224.41467,224.5)" />
    <path id="path5" d="m 75.96925,-22.11044 c 0,0.46966 -0.38073,0.85038 -0.8504,0.85038 -0.46966,0 -0.8504,-0.38072 -0.8504,-0.85038 0,-0.46967 0.38074,-0.85041 0.8504,-0.85041 0.46967,0 0.8504,0.38074 0.8504,0.85041 z" style="fill:#ffffff;fill-opacity:1;fill-rule:nonzero;stroke:none" transform="matrix(2.6666667,0,0,-2.6666667,224.41467,224.5)" />
    <g id="g5" aria-label="∣+⟩" transform="matrix(2.6666667,0,0,2.6666667,90.684,283.25733)">
      <path id="path6" d="m 1.1951602,-6.0935703 v 7.8046875 h 0.5097656 v -7.8046875 z m 0,0" style="fill:#121619;fill-opacity:1;fill-rule:nonzero;stroke:none" />
      <path id="path7" d="m 5.5149844,-4.3416172 v 1.8925781 H 3.6165469 v 0.515625 h 1.8984375 v 1.89257816 H 6.02475 V -1.9334141 h 1.8984375 v -0.515625 H 6.02475 v -1.8925781 z m 0,0" style="fill:#121619;fill-opacity:1;fill-rule:nonzero;stroke:none" />
      <path id="path8" d="M 9.8523867,1.7990078 11.287934,-2.1912266 9.8523867,-6.1814609 9.371918,-6.0056797 10.807465,-2.1912266 9.371918,1.6232266 Z m 0,0" style="fill:#121619;fill-opacity:1;fill-rule:nonzero;stroke:none" />
    </g>
    <path id="path9" d="M -53.9973,59.52846 H 110.69092" style="fill:none;stroke:#121619;stroke-width:0.3985;stroke-linecap:butt;stroke-linejoin:miter;stroke-miterlimit:10;stroke-dasharray:none;stroke-opacity:1" transform="matrix(2.6666667,0,0,-2.6666667,224.41467,224.5)" />
    <path id="path10" d="M -53.9973,39.68535 H 110.69092" style="fill:none;stroke:#121619;stroke-width:0.3985;stroke-linecap:butt;stroke-linejoin:miter;stroke-miterlimit:10;stroke-dasharray:none;stroke-opacity:1" transform="matrix(2.6666667,0,0,-2.6666667,224.41467,224.5)" />
    <path id="path11" d="M -53.9973,19.84267 H 110.69092" style="fill:none;stroke:#121619;stroke-width:0.3985;stroke-linecap:butt;stroke-linejoin:miter;stroke-miterlimit:10;stroke-dasharray:none;stroke-opacity:1" transform="matrix(2.6666667,0,0,-2.6666667,224.41467,224.5)" />
    <path id="path12" d="M -32.73718,-19.84267 H 66.41557" style="fill:none;stroke:#121619;stroke-width:0.3985;stroke-linecap:butt;stroke-linejoin:miter;stroke-miterlimit:10;stroke-dasharray:none;stroke-opacity:1" transform="matrix(2.6666667,0,0,-2.6666667,224.41467,224.5)" />
    <path id="path13" d="M 83.82213,-18.99226 H 96.5175" style="fill:none;stroke:#121619;stroke-width:0.3985;stroke-linecap:butt;stroke-linejoin:miter;stroke-miterlimit:10;stroke-dasharray:none;stroke-opacity:1" transform="matrix(2.6666667,0,0,-2.6666667,224.41467,224.5)" />
    <path id="path14" d="M 83.82213,-20.69307 H 96.5175" style="fill:none;stroke:#121619;stroke-width:0.3985;stroke-linecap:butt;stroke-linejoin:miter;stroke-miterlimit:10;stroke-dasharray:none;stroke-opacity:1" transform="matrix(2.6666667,0,0,-2.6666667,224.41467,224.5)" />
    <path id="path15" d="m 30.8375,-19.84267 c 0,1.37558 -1.11512,2.4907 -2.4907,2.4907 -1.37558,0 -2.49069,-1.11512 -2.49069,-2.4907 0,-1.37558 1.11511,-2.49069 2.49069,-2.49069 1.37558,0 2.4907,1.11511 2.4907,2.49069 z" style="fill:#78a9ff;fill-opacity:1;fill-rule:nonzero;stroke:none" transform="matrix(2.6666667,0,0,-2.6666667,224.41467,224.5)" />
    <path id="path16" d="m 9.57738,-19.84267 c 0,1.37558 -1.11511,2.4907 -2.49069,2.4907 -1.37559,0 -2.49069,-1.11512 -2.49069,-2.4907 0,-1.37558 1.1151,-2.49069 2.49069,-2.49069 1.37558,0 2.49069,1.11511 2.49069,2.49069 z" style="fill:#78a9ff;fill-opacity:1;fill-rule:nonzero;stroke:none" transform="matrix(2.6666667,0,0,-2.6666667,224.41467,224.5)" />
    <path id="path17" d="m -11.6827,-19.84267 c 0,1.37558 -1.1151,2.4907 -2.49069,2.4907 -1.37558,0 -2.49069,-1.11512 -2.49069,-2.4907 0,-1.37558 1.11511,-2.49069 2.49069,-2.49069 1.37559,0 2.49069,1.11511 2.49069,2.49069 z" style="fill:#78a9ff;fill-opacity:1;fill-rule:nonzero;stroke:none" transform="matrix(2.6666667,0,0,-2.6666667,224.41467,224.5)" />
    <path id="path18" d="M 19.84277,11.33864 H 36.85083 V 28.3467 H 19.84277 Z" style="fill:#78a9ff;fill-opacity:1;fill-rule:nonzero;stroke:#78a9ff;stroke-width:0.3985;stroke-linecap:butt;stroke-linejoin:miter;stroke-miterlimit:10;stroke-dasharray:none;stroke-opacity:1" transform="matrix(2.6666667,0,0,-2.6666667,224.41467,224.5)" />
    <g id="g18" aria-label="P&#10;2" transform="matrix(2.6666667,0,0,2.6666667,287.31333,176.93467)">
      <path id="path19" d="m 2.5075,-2.4847773 h 1.453125 c 1.1484375,0 2.34375,-0.796875 2.34375,-1.7402344 0,-0.6738281 -0.6386719,-1.21875 -1.6640625,-1.21875 H 1.9508594 c -0.140625,0 -0.2460938,0 -0.2460938,0.1523437 0,0.1113282 0.1054688,0.1113282 0.2285156,0.1113282 0.2636719,0 0.4980469,0 0.4980469,0.1289062 0,0.029297 -0.011719,0.041016 -0.035156,0.140625 l -1.0664063,4.28320313 c -0.070312,0.29296875 -0.087891,0.36328125 -0.6503906,0.36328125 -0.1875,0 -0.27539063,0 -0.27539063,0.15234375 0,0.02929688 0.0234375,0.11132812625 0.12890625,0.11132812625 0.15234375,0 0.34570313,-0.0175781262 0.49218748,-0.0234374963 h 0.5097656 c 0.7675782,0 0.9726563,0.0234374963 1.03125,0.0234374963 0.046875,0 0.1582032,0 0.1582032,-0.15234374625 0,-0.11132813 -0.1054688,-0.11132813 -0.2402344,-0.11132813 -0.023437,0 -0.1640625,0 -0.2988281,-0.0175781 -0.1699219,-0.0117188 -0.1875,-0.0351563 -0.1875,-0.11132813 0,-0.0351563 0.017578,-0.0878906 0.023438,-0.12304687 z m 0.5859375,-2.4023438 c 0.070312,-0.2695312 0.076172,-0.2929687 0.4042969,-0.2929687 h 0.8789062 c 0.6503906,0 1.1542969,0.1933593 1.1542969,0.7792968 0,0.1054688 -0.041016,0.8144532 -0.4863281,1.2539063 -0.1230469,0.1171875 -0.5039063,0.421875 -1.2832032,0.421875 H 2.5485156 Z m 0,0" style="fill:#ffffff;fill-opacity:1;fill-rule:nonzero;stroke:none" />
      <path id="path20" d="M 8.5851367,0.31600391 H 8.3624805 C 8.3507617,0.40389453 8.292168,0.79647266 8.198418,0.86092578 8.1574023,0.89608203 7.6769336,0.89608203 7.589043,0.89608203 H 6.4757617 L 7.2374805,0.27498828 C 7.4425586,0.11678516 7.9757617,-0.26993359 8.1574023,-0.44571484 8.339043,-0.62735547 8.5851367,-0.93204297 8.5851367,-1.353918 c 0,-0.75 -0.6738281,-1.1835937 -1.4765625,-1.1835937 -0.7734375,0 -1.3125,0.5039062 -1.3125,1.0664062 0,0.3046875 0.2578125,0.3398438 0.328125,0.3398438 0.1464844,0 0.3222656,-0.1054688 0.3222656,-0.3222656 0,-0.1289063 -0.082031,-0.3222657 -0.3457031,-0.3222657 0.140625,-0.3046875 0.5039063,-0.5332031 0.9199219,-0.5332031 0.6269531,0 0.9609375,0.46875 0.9609375,0.9550781 0,0.42187503 -0.28125,0.86132816 -0.703125,1.24218753 L 5.8663867,1.1831914 c -0.064453,0.058594 -0.070312,0.064453 -0.070312,0.2519531 h 2.6015625 z m 0,0" style="fill:#ffffff;fill-opacity:1;fill-rule:nonzero;stroke:none" />
    </g>
    <path id="path21" d="M -1.41733,31.18132 H 15.59073 V 48.18938 H -1.41733 Z" style="fill:#78a9ff;fill-opacity:1;fill-rule:nonzero;stroke:#78a9ff;stroke-width:0.3985;stroke-linecap:butt;stroke-linejoin:miter;stroke-miterlimit:10;stroke-dasharray:none;stroke-opacity:1" transform="matrix(2.6666667,0,0,-2.6666667,224.41467,224.5)" />
    <g id="g21" aria-label="P&#10;1" transform="matrix(2.6666667,0,0,2.6666667,230.62,124.02)">
      <path id="path22" d="m 2.5082227,-2.4845508 h 1.453125 c 1.1484375,0 2.34375,-0.796875 2.34375,-1.7402344 0,-0.6738281 -0.6386719,-1.21875 -1.6640625,-1.21875 H 1.951582 c -0.140625,0 -0.2460937,0 -0.2460937,0.1523438 0,0.1113281 0.1054687,0.1113281 0.2285156,0.1113281 0.2636719,0 0.4980469,0 0.4980469,0.1289063 0,0.029297 -0.011719,0.041016 -0.035156,0.140625 l -1.0664062,4.28320309 c -0.070312,0.29296875 -0.087891,0.36328125 -0.65039064,0.36328125 -0.1875,0 -0.27539063,0 -0.27539063,0.15234375 0,0.02929688 0.0234375,0.11132812875 0.12890625,0.11132812875 0.15234375,0 0.34570313,-0.0175781288 0.49218752,-0.0234374987 h 0.5097656 c 0.7675781,0 0.9726563,0.0234374987 1.03125,0.0234374987 0.046875,0 0.1582031,0 0.1582031,-0.15234374875 0,-0.11132813 -0.1054687,-0.11132813 -0.2402343,-0.11132813 -0.023437,0 -0.1640625,0 -0.2988282,-0.0175781 -0.1699218,-0.0117188 -0.1875,-0.0351563 -0.1875,-0.11132813 0,-0.0351563 0.017578,-0.0878906 0.023438,-0.12304687 z m 0.5859375,-2.4023437 c 0.070312,-0.2695313 0.076172,-0.2929688 0.4042968,-0.2929688 h 0.8789063 c 0.6503906,0 1.1542969,0.1933594 1.1542969,0.7792969 0,0.1054687 -0.041016,0.8144531 -0.4863282,1.2539062 -0.1230468,0.1171875 -0.5039062,0.421875 -1.2832031,0.421875 H 2.5492383 Z m 0,0" style="fill:#ffffff;fill-opacity:1;fill-rule:nonzero;stroke:none" />
      <path id="path23" d="m 7.5135937,-2.3615039 c 0,-0.1757813 -0.023437,-0.1757813 -0.1992187,-0.1757813 -0.3984375,0.3808594 -1.0078125,0.3808594 -1.2246094,0.3808594 v 0.234375 c 0.1582031,0 0.5507813,0 0.9082031,-0.1699219 v 3.01757817 c 0,0.19921873 0,0.27539063 -0.6152343,0.27539063 H 6.1307812 v 0.234375 c 0.328125,-0.023437 0.7910157,-0.023437 1.125,-0.023437 0.3339844,0 0.8027344,0 1.1308594,0.023437 V 1.2009961 H 8.1288281 c -0.6152344,0 -0.6152344,-0.076172 -0.6152344,-0.27539063 z m 0,0" style="fill:#ffffff;fill-opacity:1;fill-rule:nonzero;stroke:none" />
    </g>
    <path id="path24" d="M -22.67743,51.02443 H -5.66937 V 68.03249 H -22.67743 Z" style="fill:#78a9ff;fill-opacity:1;fill-rule:nonzero;stroke:#78a9ff;stroke-width:0.3985;stroke-linecap:butt;stroke-linejoin:miter;stroke-miterlimit:10;stroke-dasharray:none;stroke-opacity:1" transform="matrix(2.6666667,0,0,-2.6666667,224.41467,224.5)" />
    <g id="g24" aria-label="P&#10;0" transform="matrix(2.6666667,0,0,2.6666667,173.92667,71.105333)">
      <path id="path25" d="m 2.5074805,-2.4843242 h 1.453125 c 1.1484375,0 2.34375,-0.796875 2.34375,-1.7402344 0,-0.6738281 -0.6386719,-1.21875 -1.6640625,-1.21875 H 1.9508398 c -0.140625,0 -0.2460937,0 -0.2460937,0.1523438 0,0.1113281 0.1054687,0.1113281 0.2285156,0.1113281 0.2636719,0 0.4980469,0 0.4980469,0.1289062 0,0.029297 -0.011719,0.041016 -0.035156,0.140625 l -1.0664062,4.28320316 c -0.070312,0.29296875 -0.087891,0.36328125 -0.65039063,0.36328125 -0.1875,0 -0.27539063,0 -0.27539063,0.15234375 0,0.02929687 0.0234375,0.11132812125 0.12890625,0.11132812125 0.15234375,0 0.34570313,-0.01757812125 0.49218751,-0.02343750125 h 0.5097656 c 0.7675781,0 0.9726563,0.02343750125 1.03125,0.02343750125 0.046875,0 0.1582031,0 0.1582031,-0.15234375125 0,-0.11132812 -0.1054687,-0.11132812 -0.2402343,-0.11132812 -0.023437,0 -0.1640625,0 -0.2988282,-0.0175781 -0.1699218,-0.0117188 -0.1875,-0.0351563 -0.1875,-0.11132812 0,-0.0351563 0.017578,-0.0878906 0.023437,-0.12304688 z M 3.093418,-4.886668 C 3.16373,-5.1561992 3.16959,-5.1796367 3.4977148,-5.1796367 h 0.8789063 c 0.6503906,0 1.1542969,0.1933594 1.1542969,0.7792969 0,0.1054687 -0.041016,0.8144531 -0.4863282,1.2539062 -0.1230468,0.1171875 -0.5039062,0.421875 -1.2832031,0.421875 H 2.5484961 Z m 0,0" style="fill:#ffffff;fill-opacity:1;fill-rule:nonzero;stroke:none" />
      <path id="path26" d="m 8.6554297,-0.46869922 c 0,-0.43945312 0,-2.06835938 -1.4648438,-2.06835938 -1.4648437,0 -1.4648437,1.62890626 -1.4648437,2.06835938 0,0.42773438 0,2.02734372 1.4648437,2.02734372 1.4648438,0 1.4648438,-1.59960934 1.4648438,-2.02734372 z M 7.1905859,1.3711445 c -0.2519531,0 -0.65625,-0.1230468 -0.8027343,-0.61523434 -0.09375,-0.34570313 -0.09375,-0.93164063 -0.09375,-1.30664063 0,-0.3984375 0,-0.86132813 0.082031,-1.18359373 0.1523438,-0.5332031 0.6035156,-0.6152344 0.8144531,-0.6152344 0.2753907,0 0.6679688,0.1347656 0.8027344,0.5859375 0.087891,0.3164063 0.09375,0.7558594 0.09375,1.21289063 0,0.38671875 0,0.99023438 -0.099609,1.32421875 C 7.8175391,1.2949727 7.3898047,1.3711445 7.1905859,1.3711445 Z m 0,0" style="fill:#ffffff;fill-opacity:1;fill-rule:nonzero;stroke:none" />
    </g>
    <path id="path27" d="M -14.17339,-19.84267 V 50.82518" style="fill:none;stroke:#78a9ff;stroke-width:0.79701;stroke-linecap:butt;stroke-linejoin:miter;stroke-miterlimit:10;stroke-dasharray:none;stroke-opacity:1" transform="matrix(2.6666667,0,0,-2.6666667,224.41467,224.5)" />
    <path id="path28" d="M 7.08669,-19.84267 V 30.98207" style="fill:none;stroke:#78a9ff;stroke-width:0.79701;stroke-linecap:butt;stroke-linejoin:miter;stroke-miterlimit:10;stroke-dasharray:none;stroke-opacity:1" transform="matrix(2.6666667,0,0,-2.6666667,224.41467,224.5)" />
    <path id="path29" d="M 28.3468,-19.84267 V 11.13937" style="fill:none;stroke:#78a9ff;stroke-width:0.79701;stroke-linecap:butt;stroke-linejoin:miter;stroke-miterlimit:10;stroke-dasharray:none;stroke-opacity:1" transform="matrix(2.6666667,0,0,-2.6666667,224.41467,224.5)" />
    <path id="path30" d="m 41.10287,-28.3467 h 17.00806 v 17.00806 H 41.10287 Z" style="fill:#78a9ff;fill-opacity:1;fill-rule:nonzero;stroke:#78a9ff;stroke-width:0.3985;stroke-linecap:butt;stroke-linejoin:miter;stroke-miterlimit:10;stroke-dasharray:none;stroke-opacity:1" transform="matrix(2.6666667,0,0,-2.6666667,224.41467,224.5)" />
    <path id="path31" d="m 6.3686914,-4.7989102 c 0.076172,-0.3105468 0.09375,-0.3808593 0.6503906,-0.3808593 0.1816407,0 0.28125,0 0.28125,-0.1523438 0,-0.00586 -0.011719,-0.1113281 -0.1347656,-0.1113281 -0.1523437,0 -0.3457031,0.017578 -0.4980469,0.023437 H 6.1694727 c -0.7675782,0 -0.9726563,-0.023437 -1.03125,-0.023437 -0.029297,0 -0.1582032,0 -0.1582032,0.1523437 0,0.1113282 0.1054688,0.1113282 0.2285157,0.1113282 0.2636718,0 0.4980468,0 0.4980468,0.1289062 0,0.029297 -0.011719,0.041016 -0.035156,0.140625 L 5.1968164,-2.9649258 H 2.6304102 l 0.4628906,-1.8574219 c 0.070312,-0.2871093 0.087891,-0.3574218 0.6679687,-0.3574218 0.1582032,0 0.2519532,0 0.2519532,-0.1523438 0,-0.00586 -0.00586,-0.1113281 -0.1347657,-0.1113281 -0.1523437,0 -0.3398437,0.017578 -0.4921875,0.023437 H 2.8823633 c -0.7617188,0 -0.9726563,-0.023437 -1.0253906,-0.023437 -0.035156,0 -0.1582032,0 -0.1582032,0.1523437 0,0.1113282 0.099609,0.1113282 0.2285157,0.1113282 0.2636718,0 0.4921875,0 0.4921875,0.1289062 0,0.029297 -0.00586,0.041016 -0.029297,0.140625 l -1.0664063,4.28320314 c -0.070312,0.29882813 -0.087891,0.36328125 -0.67968747,0.36328125 -0.15234375,0 -0.24609375,0 -0.24609375,0.15234375 0,0.02929688 0.0234375,0.11132812875 0.12890625,0.11132812875 0.15234375,0 0.33984375,-0.01757812875 0.49218747,-0.02343749875 h 0.5097657 c 0.7675781,0 0.9726562,0.02343749875 1.03125,0.02343749875 0.046875,0 0.1582031,0 0.1582031,-0.15234374875 0,-0.11132813 -0.1054688,-0.11132813 -0.2402344,-0.11132813 -0.023437,0 -0.1699219,0 -0.3046875,-0.0175781 -0.1640625,-0.0117188 -0.1816406,-0.0351563 -0.1816406,-0.11132813 0,-0.0351563 0.017578,-0.0878906 0.023438,-0.12304687 L 2.5600977,-2.7012539 h 2.5605468 c -0.2285156,0.9375 -0.5390625,2.18554687 -0.5449218,2.18554687 -0.076172,0.24609375 -0.2167969,0.24609375 -0.6972657,0.25195312 -0.09375,0 -0.1992187,0 -0.1992187,0.15234375 0,0.02929688 0.023437,0.11132812875 0.1289062,0.11132812875 0.1523438,0 0.3457032,-0.01757812875 0.4921875,-0.02343749875 h 0.5097657 c 0.7675781,0 0.9726562,0.02343749875 1.03125,0.02343749875 0.046875,0 0.1582031,0 0.1582031,-0.15234374875 0,-0.11132813 -0.1054688,-0.11132813 -0.2402344,-0.11132813 -0.023437,0 -0.1640625,0 -0.2988281,-0.0175781 -0.1699219,-0.0117188 -0.1875,-0.0351563 -0.1875,-0.11132813 0,-0.0351563 0.017578,-0.0878906 0.023437,-0.12304687 z m 0,0" style="fill:#ffffff;fill-opacity:1;fill-rule:nonzero;stroke:none" aria-label="H" transform="matrix(2.6666667,0,0,2.6666667,346.60667,284.676)" />
  </g>
</svg>