<?xml version="1.0" encoding="UTF-8"?><!DOCTYPE svg  PUBLIC '-//W3C//DTD SVG 1.1//EN'  'http://www.w3.org/Graphics/SVG/1.1/DTD/svg11.dtd'><svg width="920.66pt" height="177.57pt" version="1.1" viewBox="0 0 920.66 177.57" xmlns="http://www.w3.org/2000/svg" xmlns:xlink="http://www.w3.org/1999/xlink"><defs><style type="text/css">*{stroke-linejoin: round; stroke-linecap: butt}</style></defs><path d="m0 177.57h920.66v-177.57h-920.66z" fill="#ffffff"/><path d="m53.127 36.867h856.62" clip-path="url(#3de653a584a)" fill="none" stroke="#000000" stroke-linecap="square" stroke-width="1.6"/><path d="m53.127 73.95h856.62" clip-path="url(#3de653a584a)" fill="none" stroke="#000000" stroke-linecap="square" stroke-width="1.6"/><path d="m53.127 111.03h856.62" clip-path="url(#3de653a584a)" fill="none" stroke="#000000" stroke-linecap="square" stroke-width="1.6"/><path d="m53.127 148.12h856.62" clip-path="url(#3de653a584a)" fill="none" stroke="#000000" stroke-linecap="square" stroke-width="1.6"/><path d="m49.419 18.325h-927.08v185.42h927.08z" clip-path="url(#3de653a584a)" fill="#ffffff" stroke="#ffffff" stroke-width="1.2"/><path d="m221.49 73.95v-37.083" clip-path="url(#3de653a584a)" fill="none" stroke="#002d9c" stroke-linecap="square" stroke-width="1.6"/><path d="m258.57 111.03v-37.083" clip-path="url(#3de653a584a)" fill="none" stroke="#002d9c" stroke-linecap="square" stroke-width="1.6"/><path d="m295.65 148.12v-37.083" clip-path="url(#3de653a584a)" fill="none" stroke="#002d9c" stroke-linecap="square" stroke-width="1.6"/><path d="m481.07 73.95v-37.083" clip-path="url(#3de653a584a)" fill="none" stroke="#002d9c" stroke-linecap="square" stroke-width="1.6"/><path d="m518.15 111.03v-37.083" clip-path="url(#3de653a584a)" fill="none" stroke="#002d9c" stroke-linecap="square" stroke-width="1.6"/><path d="m555.23 148.12v-37.083" clip-path="url(#3de653a584a)" fill="none" stroke="#002d9c" stroke-linecap="square" stroke-width="1.6"/><path d="m740.65 73.95v-37.083" clip-path="url(#3de653a584a)" fill="none" stroke="#002d9c" stroke-linecap="square" stroke-width="1.6"/><path d="m777.73 111.03v-37.083" clip-path="url(#3de653a584a)" fill="none" stroke="#002d9c" stroke-linecap="square" stroke-width="1.6"/><path d="m814.82 148.12v-37.083" clip-path="url(#3de653a584a)" fill="none" stroke="#002d9c" stroke-linecap="square" stroke-width="1.6"/><path d="m61.1 48.919h24.104v-24.104h-24.104z" clip-path="url(#3de653a584a)" fill="#9f1853" stroke="#9f1853" stroke-width="1.2"/><path d="m61.1 86.002h24.104v-24.104h-24.104z" clip-path="url(#3de653a584a)" fill="#9f1853" stroke="#9f1853" stroke-width="1.2"/><path d="m61.1 123.08h24.104v-24.104h-24.104z" clip-path="url(#3de653a584a)" fill="#9f1853" stroke="#9f1853" stroke-width="1.2"/><path d="m61.1 160.17h24.104v-24.104h-24.104z" clip-path="url(#3de653a584a)" fill="#9f1853" stroke="#9f1853" stroke-width="1.2"/><path d="m98.183 48.919h24.104v-24.104h-24.104z" clip-path="url(#3de653a584a)" fill="#33b1ff" stroke="#33b1ff" stroke-width="1.2"/><path d="m98.183 86.002h24.104v-24.104h-24.104z" clip-path="url(#3de653a584a)" fill="#33b1ff" stroke="#33b1ff" stroke-width="1.2"/><path d="m98.183 123.08h24.104v-24.104h-24.104z" clip-path="url(#3de653a584a)" fill="#33b1ff" stroke="#33b1ff" stroke-width="1.2"/><path d="m98.183 160.17h24.104v-24.104h-24.104z" clip-path="url(#3de653a584a)" fill="#33b1ff" stroke="#33b1ff" stroke-width="1.2"/><path d="m144.08 160.17h43.562v-135.35h-43.562z" clip-path="url(#3de653a584a)" fill="#9f1853" stroke="#9f1853" stroke-width="1.2"/><path d="m221.49 40.482c0.95887 0 1.8786-0.38096 2.5566-1.059 0.67802-0.67802 1.059-1.5978 1.059-2.5566 0-0.95887-0.38096-1.8786-1.059-2.5566-0.67802-0.67802-1.5978-1.059-2.5566-1.059-0.95887 0-1.8786 0.38096-2.5566 1.059-0.67802 0.67802-1.059 1.5978-1.059 2.5566 0 0.95887 0.38096 1.8786 1.059 2.5566 0.67802 0.67802 1.5978 1.059 2.5566 1.059z" clip-path="url(#3de653a584a)" fill="#002d9c" stroke="#002d9c" stroke-width="1.2"/><path d="m221.49 82.386c2.2374 0 4.3834-0.88892 5.9655-2.471 1.5821-1.5821 2.471-3.7281 2.471-5.9655s-0.88892-4.3834-2.471-5.9655c-1.5821-1.5821-3.7281-2.471-5.9655-2.471s-4.3834 0.88892-5.9655 2.471c-1.5821 1.5821-2.471 3.7281-2.471 5.9655s0.88892 4.3834 2.471 5.9655c1.5821 1.5821 3.7281 2.471 5.9655 2.471z" clip-path="url(#3de653a584a)" fill="#002d9c" stroke="#002d9c" stroke-width="1.6"/><path d="m258.57 77.565c0.95887 0 1.8786-0.38096 2.5566-1.059 0.67802-0.67802 1.059-1.5978 1.059-2.5566 0-0.95887-0.38096-1.8786-1.059-2.5566-0.67802-0.67802-1.5978-1.059-2.5566-1.059-0.95887 0-1.8786 0.38096-2.5566 1.059-0.67802 0.67802-1.059 1.5978-1.059 2.5566 0 0.95887 0.38096 1.8786 1.059 2.5566 0.67802 0.67802 1.5978 1.059 2.5566 1.059z" clip-path="url(#3de653a584a)" fill="#002d9c" stroke="#002d9c" stroke-width="1.2"/><path d="m258.57 119.47c2.2374 0 4.3834-0.88892 5.9655-2.471s2.471-3.7281 2.471-5.9655c0-2.2374-0.88892-4.3834-2.471-5.9655-1.5821-1.5821-3.7281-2.471-5.9655-2.471-2.2374 0-4.3834 0.88892-5.9655 2.471-1.5821 1.5821-2.471 3.7281-2.471 5.9655 0 2.2374 0.88892 4.3834 2.471 5.9655s3.7281 2.471 5.9655 2.471z" clip-path="url(#3de653a584a)" fill="#002d9c" stroke="#002d9c" stroke-width="1.6"/><path d="m246.52 48.919h24.104v-24.104h-24.104z" clip-path="url(#3de653a584a)" fill="#9f1853" stroke="#9f1853" stroke-width="1.2"/><path d="m295.65 114.65c0.95887 0 1.8786-0.38096 2.5566-1.059 0.67802-0.67802 1.059-1.5978 1.059-2.5566 0-0.95887-0.38096-1.8786-1.059-2.5566-0.67802-0.67802-1.5978-1.059-2.5566-1.059-0.95887 0-1.8786 0.38096-2.5566 1.059-0.67802 0.67802-1.059 1.5978-1.059 2.5566 0 0.95887 0.38096 1.8786 1.059 2.5566 0.67802 0.67802 1.5978 1.059 2.5566 1.059z" clip-path="url(#3de653a584a)" fill="#002d9c" stroke="#002d9c" stroke-width="1.2"/><path d="m295.65 156.55c2.2374 0 4.3834-0.88892 5.9655-2.471 1.5821-1.5821 2.471-3.7281 2.471-5.9655s-0.88892-4.3834-2.471-5.9655c-1.5821-1.5821-3.7281-2.471-5.9655-2.471s-4.3834 0.88892-5.9655 2.471c-1.5821 1.5821-2.471 3.7281-2.471 5.9655s0.88892 4.3834 2.471 5.9655c1.5821 1.5821 3.7281 2.471 5.9655 2.471z" clip-path="url(#3de653a584a)" fill="#002d9c" stroke="#002d9c" stroke-width="1.6"/><path d="m283.6 86.002h24.104v-24.104h-24.104z" clip-path="url(#3de653a584a)" fill="#9f1853" stroke="#9f1853" stroke-width="1.2"/><path d="m283.6 48.919h24.104v-24.104h-24.104z" clip-path="url(#3de653a584a)" fill="#33b1ff" stroke="#33b1ff" stroke-width="1.2"/><path d="m320.68 123.08h24.104v-24.104h-24.104z" clip-path="url(#3de653a584a)" fill="#9f1853" stroke="#9f1853" stroke-width="1.2"/><path d="m320.68 160.17h24.104v-24.104h-24.104z" clip-path="url(#3de653a584a)" fill="#9f1853" stroke="#9f1853" stroke-width="1.2"/><path d="m320.68 86.002h24.104v-24.104h-24.104z" clip-path="url(#3de653a584a)" fill="#33b1ff" stroke="#33b1ff" stroke-width="1.2"/><path d="m357.77 123.08h24.104v-24.104h-24.104z" clip-path="url(#3de653a584a)" fill="#33b1ff" stroke="#33b1ff" stroke-width="1.2"/><path d="m357.77 160.17h24.104v-24.104h-24.104z" clip-path="url(#3de653a584a)" fill="#33b1ff" stroke="#33b1ff" stroke-width="1.2"/><path d="m403.66 160.17h43.562v-135.35h-43.562z" clip-path="url(#3de653a584a)" fill="#9f1853" stroke="#9f1853" stroke-width="1.2"/><path d="m481.07 40.482c0.95887 0 1.8786-0.38096 2.5566-1.059 0.67802-0.67802 1.059-1.5978 1.059-2.5566 0-0.95887-0.38096-1.8786-1.059-2.5566-0.67802-0.67802-1.5978-1.059-2.5566-1.059-0.95887 0-1.8786 0.38096-2.5566 1.059-0.67802 0.67802-1.059 1.5978-1.059 2.5566 0 0.95887 0.38096 1.8786 1.059 2.5566 0.67802 0.67802 1.5978 1.059 2.5566 1.059z" clip-path="url(#3de653a584a)" fill="#002d9c" stroke="#002d9c" stroke-width="1.2"/><path d="m481.07 82.386c2.2374 0 4.3834-0.88892 5.9655-2.471 1.5821-1.5821 2.471-3.7281 2.471-5.9655s-0.88892-4.3834-2.471-5.9655c-1.5821-1.5821-3.7281-2.471-5.9655-2.471-2.2374 0-4.3834 0.88892-5.9655 2.471-1.5821 1.5821-2.471 3.7281-2.471 5.9655s0.88892 4.3834 2.471 5.9655c1.5821 1.5821 3.7281 2.471 5.9655 2.471z" clip-path="url(#3de653a584a)" fill="#002d9c" stroke="#002d9c" stroke-width="1.6"/><path d="m518.15 77.565c0.95887 0 1.8786-0.38096 2.5566-1.059 0.67802-0.67802 1.059-1.5978 1.059-2.5566 0-0.95887-0.38096-1.8786-1.059-2.5566-0.67802-0.67802-1.5978-1.059-2.5566-1.059-0.95887 0-1.8786 0.38096-2.5566 1.059-0.67802 0.67802-1.059 1.5978-1.059 2.5566 0 0.95887 0.38096 1.8786 1.059 2.5566 0.67802 0.67802 1.5978 1.059 2.5566 1.059z" clip-path="url(#3de653a584a)" fill="#002d9c" stroke="#002d9c" stroke-width="1.2"/><path d="m518.15 119.47c2.2374 0 4.3834-0.88892 5.9655-2.471 1.5821-1.5821 2.471-3.7281 2.471-5.9655 0-2.2374-0.88892-4.3834-2.471-5.9655-1.5821-1.5821-3.7281-2.471-5.9655-2.471s-4.3834 0.88892-5.9655 2.471c-1.5821 1.5821-2.471 3.7281-2.471 5.9655 0 2.2374 0.88892 4.3834 2.471 5.9655 1.5821 1.5821 3.7281 2.471 5.9655 2.471z" clip-path="url(#3de653a584a)" fill="#002d9c" stroke="#002d9c" stroke-width="1.6"/><path d="m506.1 48.919h24.104v-24.104h-24.104z" clip-path="url(#3de653a584a)" fill="#9f1853" stroke="#9f1853" stroke-width="1.2"/><path d="m555.23 114.65c0.95887 0 1.8786-0.38096 2.5566-1.059 0.67802-0.67802 1.059-1.5978 1.059-2.5566 0-0.95887-0.38096-1.8786-1.059-2.5566-0.67802-0.67802-1.5978-1.059-2.5566-1.059-0.95887 0-1.8786 0.38096-2.5566 1.059-0.67802 0.67802-1.059 1.5978-1.059 2.5566 0 0.95887 0.38096 1.8786 1.059 2.5566 0.67802 0.67802 1.5978 1.059 2.5566 1.059z" clip-path="url(#3de653a584a)" fill="#002d9c" stroke="#002d9c" stroke-width="1.2"/><path d="m555.23 156.55c2.2374 0 4.3834-0.88892 5.9655-2.471 1.5821-1.5821 2.471-3.7281 2.471-5.9655s-0.88892-4.3834-2.471-5.9655-3.7281-2.471-5.9655-2.471c-2.2374 0-4.3834 0.88892-5.9655 2.471s-2.471 3.7281-2.471 5.9655 0.88892 4.3834 2.471 5.9655c1.5821 1.5821 3.7281 2.471 5.9655 2.471z" clip-path="url(#3de653a584a)" fill="#002d9c" stroke="#002d9c" stroke-width="1.6"/><path d="m543.18 86.002h24.104v-24.104h-24.104z" clip-path="url(#3de653a584a)" fill="#9f1853" stroke="#9f1853" stroke-width="1.2"/><path d="m543.18 48.919h24.104v-24.104h-24.104z" clip-path="url(#3de653a584a)" fill="#33b1ff" stroke="#33b1ff" stroke-width="1.2"/><path d="m580.27 123.08h24.104v-24.104h-24.104z" clip-path="url(#3de653a584a)" fill="#9f1853" stroke="#9f1853" stroke-width="1.2"/><path d="m580.27 160.17h24.104v-24.104h-24.104z" clip-path="url(#3de653a584a)" fill="#9f1853" stroke="#9f1853" stroke-width="1.2"/><path d="m580.27 86.002h24.104v-24.104h-24.104z" clip-path="url(#3de653a584a)" fill="#33b1ff" stroke="#33b1ff" stroke-width="1.2"/><path d="m617.35 123.08h24.104v-24.104h-24.104z" clip-path="url(#3de653a584a)" fill="#33b1ff" stroke="#33b1ff" stroke-width="1.2"/><path d="m617.35 160.17h24.104v-24.104h-24.104z" clip-path="url(#3de653a584a)" fill="#33b1ff" stroke="#33b1ff" stroke-width="1.2"/><path d="m663.24 160.17h43.562v-135.35h-43.562z" clip-path="url(#3de653a584a)" fill="#9f1853" stroke="#9f1853" stroke-width="1.2"/><path d="m740.65 40.482c0.95887 0 1.8786-0.38096 2.5566-1.059 0.67802-0.67802 1.059-1.5978 1.059-2.5566 0-0.95887-0.38096-1.8786-1.059-2.5566-0.67802-0.67802-1.5978-1.059-2.5566-1.059-0.95887 0-1.8786 0.38096-2.5566 1.059-0.67802 0.67802-1.059 1.5978-1.059 2.5566 0 0.95887 0.38096 1.8786 1.059 2.5566 0.67802 0.67802 1.5978 1.059 2.5566 1.059z" clip-path="url(#3de653a584a)" fill="#002d9c" stroke="#002d9c" stroke-width="1.2"/><path d="m740.65 82.386c2.2374 0 4.3834-0.88892 5.9655-2.471 1.5821-1.5821 2.471-3.7281 2.471-5.9655s-0.88892-4.3834-2.471-5.9655c-1.5821-1.5821-3.7281-2.471-5.9655-2.471s-4.3834 0.88892-5.9655 2.471c-1.5821 1.5821-2.471 3.7281-2.471 5.9655s0.88892 4.3834 2.471 5.9655c1.5821 1.5821 3.7281 2.471 5.9655 2.471z" clip-path="url(#3de653a584a)" fill="#002d9c" stroke="#002d9c" stroke-width="1.6"/><path d="m777.73 77.565c0.95887 0 1.8786-0.38096 2.5566-1.059 0.67802-0.67802 1.059-1.5978 1.059-2.5566 0-0.95887-0.38096-1.8786-1.059-2.5566-0.67802-0.67802-1.5978-1.059-2.5566-1.059-0.95887 0-1.8786 0.38096-2.5566 1.059-0.67802 0.67802-1.059 1.5978-1.059 2.5566 0 0.95887 0.38096 1.8786 1.059 2.5566 0.67802 0.67802 1.5978 1.059 2.5566 1.059z" clip-path="url(#3de653a584a)" fill="#002d9c" stroke="#002d9c" stroke-width="1.2"/><path d="m777.73 119.47c2.2374 0 4.3834-0.88892 5.9655-2.471s2.471-3.7281 2.471-5.9655c0-2.2374-0.88892-4.3834-2.471-5.9655-1.5821-1.5821-3.7281-2.471-5.9655-2.471-2.2374 0-4.3834 0.88892-5.9655 2.471-1.5821 1.5821-2.471 3.7281-2.471 5.9655 0 2.2374 0.88892 4.3834 2.471 5.9655s3.7281 2.471 5.9655 2.471z" clip-path="url(#3de653a584a)" fill="#002d9c" stroke="#002d9c" stroke-width="1.6"/><path d="m765.68 48.919h24.104v-24.104h-24.104z" clip-path="url(#3de653a584a)" fill="#9f1853" stroke="#9f1853" stroke-width="1.2"/><path d="m814.82 114.65c0.95887 0 1.8786-0.38096 2.5566-1.059 0.67802-0.67802 1.059-1.5978 1.059-2.5566 0-0.95887-0.38096-1.8786-1.059-2.5566-0.67802-0.67802-1.5978-1.059-2.5566-1.059-0.95887 0-1.8786 0.38096-2.5566 1.059-0.67802 0.67802-1.059 1.5978-1.059 2.5566 0 0.95887 0.38096 1.8786 1.059 2.5566 0.67802 0.67802 1.5978 1.059 2.5566 1.059z" clip-path="url(#3de653a584a)" fill="#002d9c" stroke="#002d9c" stroke-width="1.2"/><path d="m814.82 156.55c2.2374 0 4.3834-0.88892 5.9655-2.471 1.5821-1.5821 2.471-3.7281 2.471-5.9655s-0.88892-4.3834-2.471-5.9655c-1.5821-1.5821-3.7281-2.471-5.9655-2.471s-4.3834 0.88892-5.9655 2.471c-1.5821 1.5821-2.471 3.7281-2.471 5.9655s0.88892 4.3834 2.471 5.9655c1.5821 1.5821 3.7281 2.471 5.9655 2.471z" clip-path="url(#3de653a584a)" fill="#002d9c" stroke="#002d9c" stroke-width="1.6"/><path d="m802.76 86.002h24.104v-24.104h-24.104z" clip-path="url(#3de653a584a)" fill="#9f1853" stroke="#9f1853" stroke-width="1.2"/><path d="m802.76 48.919h24.104v-24.104h-24.104z" clip-path="url(#3de653a584a)" fill="#33b1ff" stroke="#33b1ff" stroke-width="1.2"/><path d="m839.85 123.08h24.104v-24.104h-24.104z" clip-path="url(#3de653a584a)" fill="#9f1853" stroke="#9f1853" stroke-width="1.2"/><path d="m839.85 160.17h24.104v-24.104h-24.104z" clip-path="url(#3de653a584a)" fill="#9f1853" stroke="#9f1853" stroke-width="1.2"/><path d="m839.85 86.002h24.104v-24.104h-24.104z" clip-path="url(#3de653a584a)" fill="#33b1ff" stroke="#33b1ff" stroke-width="1.2"/><path d="m876.93 123.08h24.104v-24.104h-24.104z" clip-path="url(#3de653a584a)" fill="#33b1ff" stroke="#33b1ff" stroke-width="1.2"/><path d="m876.93 160.17h24.104v-24.104h-24.104z" clip-path="url(#3de653a584a)" fill="#33b1ff" stroke="#33b1ff" stroke-width="1.2"/><path d="m221.49 78.771v-9.6416" clip-path="url(#3de653a584a)" fill="none" stroke="#ffffff" stroke-linecap="square" stroke-width="1.6"/><path d="m216.66 73.95h9.6416" clip-path="url(#3de653a584a)" fill="none" stroke="#ffffff" stroke-linecap="square" stroke-width="1.6"/><path d="m258.57 115.85v-9.6416" clip-path="url(#3de653a584a)" fill="none" stroke="#ffffff" stroke-linecap="square" stroke-width="1.6"/><path d="m253.75 111.03h9.6416" clip-path="url(#3de653a584a)" fill="none" stroke="#ffffff" stroke-linecap="square" stroke-width="1.6"/><path d="m295.65 152.94v-9.6416" clip-path="url(#3de653a584a)" fill="none" stroke="#ffffff" stroke-linecap="square" stroke-width="1.6"/><path d="m290.83 148.12h9.6416" clip-path="url(#3de653a584a)" fill="none" stroke="#ffffff" stroke-linecap="square" stroke-width="1.6"/><path d="m481.07 78.771v-9.6416" clip-path="url(#3de653a584a)" fill="none" stroke="#ffffff" stroke-linecap="square" stroke-width="1.6"/><path d="m476.25 73.95h9.6416" clip-path="url(#3de653a584a)" fill="none" stroke="#ffffff" stroke-linecap="square" stroke-width="1.6"/><path d="m518.15 115.85v-9.6416" clip-path="url(#3de653a584a)" fill="none" stroke="#ffffff" stroke-linecap="square" stroke-width="1.6"/><path d="m513.33 111.03h9.6416" clip-path="url(#3de653a584a)" fill="none" stroke="#ffffff" stroke-linecap="square" stroke-width="1.6"/><path d="m555.23 152.94v-9.6416" clip-path="url(#3de653a584a)" fill="none" stroke="#ffffff" stroke-linecap="square" stroke-width="1.6"/><path d="m550.41 148.12h9.6416" clip-path="url(#3de653a584a)" fill="none" stroke="#ffffff" stroke-linecap="square" stroke-width="1.6"/><path d="m740.65 78.771v-9.6416" clip-path="url(#3de653a584a)" fill="none" stroke="#ffffff" stroke-linecap="square" stroke-width="1.6"/><path d="m735.83 73.95h9.6416" clip-path="url(#3de653a584a)" fill="none" stroke="#ffffff" stroke-linecap="square" stroke-width="1.6"/><path d="m777.73 115.85v-9.6416" clip-path="url(#3de653a584a)" fill="none" stroke="#ffffff" stroke-linecap="square" stroke-width="1.6"/><path d="m772.91 111.03h9.6416" clip-path="url(#3de653a584a)" fill="none" stroke="#ffffff" stroke-linecap="square" stroke-width="1.6"/><path d="m814.82 152.94v-9.6416" clip-path="url(#3de653a584a)" fill="none" stroke="#ffffff" stroke-linecap="square" stroke-width="1.6"/><path d="m810 148.12h9.6416" clip-path="url(#3de653a584a)" fill="none" stroke="#ffffff" stroke-linecap="square" stroke-width="1.6"/><g clip-path="url(#3de653a584a)"><g transform="translate(31.281 40.427) scale(.13 -.13)"><defs><path id="DejaVuSans-Oblique-71" transform="scale(.015625)" d="m2669 525q-231-303-546-460-314-156-695-156-531 0-833 358-301 358-301 986 0 506 186 978t533 847q225 244 517 375t614 131q387 0 637-153t363-462l100 525h578l-934-4813h-579l360 1844zm-1778 813q0-463 193-705 194-242 560-242 544 0 928 520t384 1264q0 450-199 689-198 239-569 239-272 0-504-127-231-126-403-370-181-256-286-600-104-343-104-668z"/><path id="DejaVuSans-30" transform="scale(.015625)" d="m2034 4250q-487 0-733-480-245-479-245-1442 0-959 245-1439 246-480 733-480 491 0 736 480 246 480 246 1439 0 963-246 1442-245 480-736 480zm0 500q785 0 1199-621 414-620 414-1801 0-1178-414-1799-414-620-1199-620-784 0-1198 620-414 621-414 1799 0 1181 414 1801 414 621 1198 621z"/></defs><use xlink:href="#DejaVuSans-Oblique-71"/><use transform="translate(63.477 -16.406) scale(.7)" xlink:href="#DejaVuSans-30"/></g></g><g clip-path="url(#3de653a584a)"><g transform="translate(31.281 77.511) scale(.13 -.13)"><defs><path id="DejaVuSans-31" transform="scale(.015625)" d="m794 531h1031v3560l-1122-225v575l1116 225h631v-4135h1031v-531h-2687v531z"/></defs><use xlink:href="#DejaVuSans-Oblique-71"/><use transform="translate(63.477 -16.406) scale(.7)" xlink:href="#DejaVuSans-31"/></g></g><g clip-path="url(#3de653a584a)"><g transform="translate(31.281 114.59) scale(.13 -.13)"><defs><path id="DejaVuSans-32" transform="scale(.015625)" d="m1228 531h2203v-531h-2962v531q359 372 979 998 621 627 780 809 303 340 423 576 121 236 121 464 0 372-261 606-261 235-680 235-297 0-627-103-329-103-704-313v638q381 153 712 231 332 78 607 78 725 0 1156-363 431-362 431-968 0-288-108-546-107-257-392-607-78-91-497-524-418-433-1181-1211z"/></defs><use xlink:href="#DejaVuSans-Oblique-71"/><use transform="translate(63.477 -16.406) scale(.7)" xlink:href="#DejaVuSans-32"/></g></g><g clip-path="url(#3de653a584a)"><g transform="translate(31.281 151.68) scale(.13 -.13)"><defs><path id="DejaVuSans-33" transform="scale(.015625)" d="m2597 2516q453-97 707-404 255-306 255-756 0-690-475-1069-475-378-1350-378-293 0-604 58t-642 174v609q262-153 574-231 313-78 654-78 593 0 904 234t311 681q0 413-289 645-289 233-804 233h-544v519h569q465 0 712 186t247 536q0 359-255 551-254 193-729 193-260 0-557-57-297-56-653-174v562q360 100 674 150t592 50q719 0 1137-327 419-326 419-882 0-388-222-655t-631-370z"/></defs><use xlink:href="#DejaVuSans-Oblique-71"/><use transform="translate(63.477 -16.406) scale(.7)" xlink:href="#DejaVuSans-33"/></g></g><g clip-path="url(#3de653a584a)"><g transform="translate(68.063 45.864) scale(.064 -.064)" fill="#ffffff"><defs><path id="DejaVuSans-2e" transform="scale(.015625)" d="m684 794h660v-794h-660v794z"/><path id="DejaVuSans-34" transform="scale(.015625)" d="m2419 4116-1594-2491h1594v2491zm-166 550h794v-3041h666v-525h-666v-1100h-628v1100h-2106v609l1940 2957z"/></defs><use xlink:href="#DejaVuSans-30"/><use transform="translate(63.623)" xlink:href="#DejaVuSans-2e"/><use transform="translate(95.41)" xlink:href="#DejaVuSans-34"/></g></g><g clip-path="url(#3de653a584a)"><g transform="translate(67.12 36.121) scale(.104 -.104)" fill="#ffffff"><defs><path id="DejaVuSans-52" transform="scale(.015625)" d="m2841 2188q203-69 395-294t386-619l641-1275h-679l-596 1197q-232 469-449 622t-592 153h-688v-1972h-631v4666h1425q800 0 1194-335 394-334 394-1009 0-441-205-732-205-290-595-402zm-1582 1959v-1656h794q456 0 689 211t233 620-233 617-689 208h-794z"/><path id="DejaVuSans-59" transform="scale(.015625)" d="m-13 4666h679l1293-1919 1285 1919h678l-1650-2444v-2222h-634v2222l-1651 2444z"/></defs><use transform="translate(0 .09375)" xlink:href="#DejaVuSans-52"/><use transform="translate(70.439 -16.312) scale(.7)" xlink:href="#DejaVuSans-59"/></g></g><g clip-path="url(#3de653a584a)"><g transform="translate(68.063 82.947) scale(.064 -.064)" fill="#ffffff"><use xlink:href="#DejaVuSans-30"/><use transform="translate(63.623)" xlink:href="#DejaVuSans-2e"/><use transform="translate(95.41)" xlink:href="#DejaVuSans-34"/></g></g><g clip-path="url(#3de653a584a)"><g transform="translate(67.12 73.204) scale(.104 -.104)" fill="#ffffff"><use transform="translate(0 .09375)" xlink:href="#DejaVuSans-52"/><use transform="translate(70.439 -16.312) scale(.7)" xlink:href="#DejaVuSans-59"/></g></g><g clip-path="url(#3de653a584a)"><g transform="translate(68.063 120.03) scale(.064 -.064)" fill="#ffffff"><use xlink:href="#DejaVuSans-30"/><use transform="translate(63.623)" xlink:href="#DejaVuSans-2e"/><use transform="translate(95.41)" xlink:href="#DejaVuSans-34"/></g></g><g clip-path="url(#3de653a584a)"><g transform="translate(67.12 110.29) scale(.104 -.104)" fill="#ffffff"><use transform="translate(0 .09375)" xlink:href="#DejaVuSans-52"/><use transform="translate(70.439 -16.312) scale(.7)" xlink:href="#DejaVuSans-59"/></g></g><g clip-path="url(#3de653a584a)"><g transform="translate(68.063 157.11) scale(.064 -.064)" fill="#ffffff"><use xlink:href="#DejaVuSans-30"/><use transform="translate(63.623)" xlink:href="#DejaVuSans-2e"/><use transform="translate(95.41)" xlink:href="#DejaVuSans-34"/></g></g><g clip-path="url(#3de653a584a)"><g transform="translate(67.12 147.37) scale(.104 -.104)" fill="#ffffff"><use transform="translate(0 .09375)" xlink:href="#DejaVuSans-52"/><use transform="translate(70.439 -16.312) scale(.7)" xlink:href="#DejaVuSans-59"/></g></g><g clip-path="url(#3de653a584a)"><g transform="translate(105.15 45.864) scale(.064 -.064)"><use xlink:href="#DejaVuSans-30"/><use transform="translate(63.623)" xlink:href="#DejaVuSans-2e"/><use transform="translate(95.41)" xlink:href="#DejaVuSans-34"/></g></g><g clip-path="url(#3de653a584a)"><g transform="translate(103.89 36.121) scale(.104 -.104)"><defs><path id="DejaVuSans-5a" transform="scale(.015625)" d="m359 4666h3666v-482l-2950-3653h3022v-531h-3809v481l2950 3653h-2879v532z"/></defs><use transform="translate(0 .09375)" xlink:href="#DejaVuSans-52"/><use transform="translate(70.439 -16.312) scale(.7)" xlink:href="#DejaVuSans-5a"/></g></g><g clip-path="url(#3de653a584a)"><g transform="translate(105.15 82.947) scale(.064 -.064)"><use xlink:href="#DejaVuSans-30"/><use transform="translate(63.623)" xlink:href="#DejaVuSans-2e"/><use transform="translate(95.41)" xlink:href="#DejaVuSans-34"/></g></g><g clip-path="url(#3de653a584a)"><g transform="translate(103.89 73.204) scale(.104 -.104)"><use transform="translate(0 .09375)" xlink:href="#DejaVuSans-52"/><use transform="translate(70.439 -16.312) scale(.7)" xlink:href="#DejaVuSans-5a"/></g></g><g clip-path="url(#3de653a584a)"><g transform="translate(105.15 120.03) scale(.064 -.064)"><use xlink:href="#DejaVuSans-30"/><use transform="translate(63.623)" xlink:href="#DejaVuSans-2e"/><use transform="translate(95.41)" xlink:href="#DejaVuSans-34"/></g></g><g clip-path="url(#3de653a584a)"><g transform="translate(103.89 110.29) scale(.104 -.104)"><use transform="translate(0 .09375)" xlink:href="#DejaVuSans-52"/><use transform="translate(70.439 -16.312) scale(.7)" xlink:href="#DejaVuSans-5a"/></g></g><g clip-path="url(#3de653a584a)"><g transform="translate(105.15 157.11) scale(.064 -.064)"><use xlink:href="#DejaVuSans-30"/><use transform="translate(63.623)" xlink:href="#DejaVuSans-2e"/><use transform="translate(95.41)" xlink:href="#DejaVuSans-34"/></g></g><g clip-path="url(#3de653a584a)"><g transform="translate(103.89 147.37) scale(.104 -.104)"><use transform="translate(0 .09375)" xlink:href="#DejaVuSans-52"/><use transform="translate(70.439 -16.312) scale(.7)" xlink:href="#DejaVuSans-5a"/></g></g><g clip-path="url(#3de653a584a)"><g transform="translate(146.68 150.99) scale(.104 -.104)" fill="#ffffff"><use xlink:href="#DejaVuSans-30"/></g></g><g clip-path="url(#3de653a584a)"><g transform="translate(146.68 39.736) scale(.104 -.104)" fill="#ffffff"><use xlink:href="#DejaVuSans-31"/></g></g><g clip-path="url(#3de653a584a)"><g transform="translate(153.21 95.072) scale(.104 -.104)" fill="#ffffff"><defs><path id="DejaVuSans-63" transform="scale(.015625)" d="m3122 3366v-538q-244 135-489 202t-495 67q-560 0-870-355-309-354-309-995t309-996q310-354 870-354 250 0 495 67t489 202v-532q-241-112-499-168-257-57-548-57-791 0-1257 497-465 497-465 1341 0 856 470 1346 471 491 1290 491 265 0 518-55 253-54 491-163z"/><path id="DejaVuSans-75" transform="scale(.015625)" d="m544 1381v2119h575v-2097q0-497 193-746 194-248 582-248 465 0 735 297 271 297 271 810v1984h575v-3500h-575v538q-209-319-486-474-276-155-642-155-603 0-916 375-312 375-312 1097zm1447 2203z"/><path id="DejaVuSans-74" transform="scale(.015625)" d="m1172 4494v-994h1184v-447h-1184v-1900q0-428 117-550t477-122h590v-481h-590q-666 0-919 248-253 249-253 905v1900h-422v447h422v994h578z"/><path id="DejaVuSans-5f" transform="scale(.015625)" d="m3263-1063v-446h-3326v446h3326z"/><path id="DejaVuSans-78" transform="scale(.015625)" d="m3513 3500-1266-1703 1331-1797h-678l-1019 1375-1018-1375h-679l1360 1831-1244 1669h678l928-1247 928 1247h679z"/></defs><use xlink:href="#DejaVuSans-63"/><use transform="translate(54.98)" xlink:href="#DejaVuSans-75"/><use transform="translate(118.36)" xlink:href="#DejaVuSans-74"/><use transform="translate(157.57)" xlink:href="#DejaVuSans-5f"/><use transform="translate(207.57)" xlink:href="#DejaVuSans-63"/><use transform="translate(262.55)" xlink:href="#DejaVuSans-78"/></g></g><g clip-path="url(#3de653a584a)"><g transform="translate(253.48 45.864) scale(.064 -.064)" fill="#ffffff"><use xlink:href="#DejaVuSans-30"/><use transform="translate(63.623)" xlink:href="#DejaVuSans-2e"/><use transform="translate(95.41)" xlink:href="#DejaVuSans-34"/></g></g><g clip-path="url(#3de653a584a)"><g transform="translate(252.54 36.121) scale(.104 -.104)" fill="#ffffff"><use transform="translate(0 .09375)" xlink:href="#DejaVuSans-52"/><use transform="translate(70.439 -16.312) scale(.7)" xlink:href="#DejaVuSans-59"/></g></g><g clip-path="url(#3de653a584a)"><g transform="translate(290.56 82.947) scale(.064 -.064)" fill="#ffffff"><use xlink:href="#DejaVuSans-30"/><use transform="translate(63.623)" xlink:href="#DejaVuSans-2e"/><use transform="translate(95.41)" xlink:href="#DejaVuSans-34"/></g></g><g clip-path="url(#3de653a584a)"><g transform="translate(289.62 73.204) scale(.104 -.104)" fill="#ffffff"><use transform="translate(0 .09375)" xlink:href="#DejaVuSans-52"/><use transform="translate(70.439 -16.312) scale(.7)" xlink:href="#DejaVuSans-59"/></g></g><g clip-path="url(#3de653a584a)"><g transform="translate(290.56 45.864) scale(.064 -.064)"><use xlink:href="#DejaVuSans-30"/><use transform="translate(63.623)" xlink:href="#DejaVuSans-2e"/><use transform="translate(95.41)" xlink:href="#DejaVuSans-34"/></g></g><g clip-path="url(#3de653a584a)"><g transform="translate(289.31 36.121) scale(.104 -.104)"><use transform="translate(0 .09375)" xlink:href="#DejaVuSans-52"/><use transform="translate(70.439 -16.312) scale(.7)" xlink:href="#DejaVuSans-5a"/></g></g><g clip-path="url(#3de653a584a)"><g transform="translate(327.65 120.03) scale(.064 -.064)" fill="#ffffff"><use xlink:href="#DejaVuSans-30"/><use transform="translate(63.623)" xlink:href="#DejaVuSans-2e"/><use transform="translate(95.41)" xlink:href="#DejaVuSans-34"/></g></g><g clip-path="url(#3de653a584a)"><g transform="translate(326.7 110.29) scale(.104 -.104)" fill="#ffffff"><use transform="translate(0 .09375)" xlink:href="#DejaVuSans-52"/><use transform="translate(70.439 -16.312) scale(.7)" xlink:href="#DejaVuSans-59"/></g></g><g clip-path="url(#3de653a584a)"><g transform="translate(327.65 157.11) scale(.064 -.064)" fill="#ffffff"><use xlink:href="#DejaVuSans-30"/><use transform="translate(63.623)" xlink:href="#DejaVuSans-2e"/><use transform="translate(95.41)" xlink:href="#DejaVuSans-34"/></g></g><g clip-path="url(#3de653a584a)"><g transform="translate(326.7 147.37) scale(.104 -.104)" fill="#ffffff"><use transform="translate(0 .09375)" xlink:href="#DejaVuSans-52"/><use transform="translate(70.439 -16.312) scale(.7)" xlink:href="#DejaVuSans-59"/></g></g><g clip-path="url(#3de653a584a)"><g transform="translate(327.65 82.947) scale(.064 -.064)"><use xlink:href="#DejaVuSans-30"/><use transform="translate(63.623)" xlink:href="#DejaVuSans-2e"/><use transform="translate(95.41)" xlink:href="#DejaVuSans-34"/></g></g><g clip-path="url(#3de653a584a)"><g transform="translate(326.39 73.204) scale(.104 -.104)"><use transform="translate(0 .09375)" xlink:href="#DejaVuSans-52"/><use transform="translate(70.439 -16.312) scale(.7)" xlink:href="#DejaVuSans-5a"/></g></g><g clip-path="url(#3de653a584a)"><g transform="translate(364.73 120.03) scale(.064 -.064)"><use xlink:href="#DejaVuSans-30"/><use transform="translate(63.623)" xlink:href="#DejaVuSans-2e"/><use transform="translate(95.41)" xlink:href="#DejaVuSans-34"/></g></g><g clip-path="url(#3de653a584a)"><g transform="translate(363.47 110.29) scale(.104 -.104)"><use transform="translate(0 .09375)" xlink:href="#DejaVuSans-52"/><use transform="translate(70.439 -16.312) scale(.7)" xlink:href="#DejaVuSans-5a"/></g></g><g clip-path="url(#3de653a584a)"><g transform="translate(364.73 157.11) scale(.064 -.064)"><use xlink:href="#DejaVuSans-30"/><use transform="translate(63.623)" xlink:href="#DejaVuSans-2e"/><use transform="translate(95.41)" xlink:href="#DejaVuSans-34"/></g></g><g clip-path="url(#3de653a584a)"><g transform="translate(363.47 147.37) scale(.104 -.104)"><use transform="translate(0 .09375)" xlink:href="#DejaVuSans-52"/><use transform="translate(70.439 -16.312) scale(.7)" xlink:href="#DejaVuSans-5a"/></g></g><g clip-path="url(#3de653a584a)"><g transform="translate(406.26 150.99) scale(.104 -.104)" fill="#ffffff"><use xlink:href="#DejaVuSans-30"/></g></g><g clip-path="url(#3de653a584a)"><g transform="translate(406.26 39.736) scale(.104 -.104)" fill="#ffffff"><use xlink:href="#DejaVuSans-31"/></g></g><g clip-path="url(#3de653a584a)"><g transform="translate(412.79 95.072) scale(.104 -.104)" fill="#ffffff"><use xlink:href="#DejaVuSans-63"/><use transform="translate(54.98)" xlink:href="#DejaVuSans-75"/><use transform="translate(118.36)" xlink:href="#DejaVuSans-74"/><use transform="translate(157.57)" xlink:href="#DejaVuSans-5f"/><use transform="translate(207.57)" xlink:href="#DejaVuSans-63"/><use transform="translate(262.55)" xlink:href="#DejaVuSans-78"/></g></g><g clip-path="url(#3de653a584a)"><g transform="translate(513.06 45.864) scale(.064 -.064)" fill="#ffffff"><use xlink:href="#DejaVuSans-30"/><use transform="translate(63.623)" xlink:href="#DejaVuSans-2e"/><use transform="translate(95.41)" xlink:href="#DejaVuSans-34"/></g></g><g clip-path="url(#3de653a584a)"><g transform="translate(512.12 36.121) scale(.104 -.104)" fill="#ffffff"><use transform="translate(0 .09375)" xlink:href="#DejaVuSans-52"/><use transform="translate(70.439 -16.312) scale(.7)" xlink:href="#DejaVuSans-59"/></g></g><g clip-path="url(#3de653a584a)"><g transform="translate(550.14 82.947) scale(.064 -.064)" fill="#ffffff"><use xlink:href="#DejaVuSans-30"/><use transform="translate(63.623)" xlink:href="#DejaVuSans-2e"/><use transform="translate(95.41)" xlink:href="#DejaVuSans-34"/></g></g><g clip-path="url(#3de653a584a)"><g transform="translate(549.2 73.204) scale(.104 -.104)" fill="#ffffff"><use transform="translate(0 .09375)" xlink:href="#DejaVuSans-52"/><use transform="translate(70.439 -16.312) scale(.7)" xlink:href="#DejaVuSans-59"/></g></g><g clip-path="url(#3de653a584a)"><g transform="translate(550.14 45.864) scale(.064 -.064)"><use xlink:href="#DejaVuSans-30"/><use transform="translate(63.623)" xlink:href="#DejaVuSans-2e"/><use transform="translate(95.41)" xlink:href="#DejaVuSans-34"/></g></g><g clip-path="url(#3de653a584a)"><g transform="translate(548.89 36.121) scale(.104 -.104)"><use transform="translate(0 .09375)" xlink:href="#DejaVuSans-52"/><use transform="translate(70.439 -16.312) scale(.7)" xlink:href="#DejaVuSans-5a"/></g></g><g clip-path="url(#3de653a584a)"><g transform="translate(587.23 120.03) scale(.064 -.064)" fill="#ffffff"><use xlink:href="#DejaVuSans-30"/><use transform="translate(63.623)" xlink:href="#DejaVuSans-2e"/><use transform="translate(95.41)" xlink:href="#DejaVuSans-34"/></g></g><g clip-path="url(#3de653a584a)"><g transform="translate(586.29 110.29) scale(.104 -.104)" fill="#ffffff"><use transform="translate(0 .09375)" xlink:href="#DejaVuSans-52"/><use transform="translate(70.439 -16.312) scale(.7)" xlink:href="#DejaVuSans-59"/></g></g><g clip-path="url(#3de653a584a)"><g transform="translate(587.23 157.11) scale(.064 -.064)" fill="#ffffff"><use xlink:href="#DejaVuSans-30"/><use transform="translate(63.623)" xlink:href="#DejaVuSans-2e"/><use transform="translate(95.41)" xlink:href="#DejaVuSans-34"/></g></g><g clip-path="url(#3de653a584a)"><g transform="translate(586.29 147.37) scale(.104 -.104)" fill="#ffffff"><use transform="translate(0 .09375)" xlink:href="#DejaVuSans-52"/><use transform="translate(70.439 -16.312) scale(.7)" xlink:href="#DejaVuSans-59"/></g></g><g clip-path="url(#3de653a584a)"><g transform="translate(587.23 82.947) scale(.064 -.064)"><use xlink:href="#DejaVuSans-30"/><use transform="translate(63.623)" xlink:href="#DejaVuSans-2e"/><use transform="translate(95.41)" xlink:href="#DejaVuSans-34"/></g></g><g clip-path="url(#3de653a584a)"><g transform="translate(585.97 73.204) scale(.104 -.104)"><use transform="translate(0 .09375)" xlink:href="#DejaVuSans-52"/><use transform="translate(70.439 -16.312) scale(.7)" xlink:href="#DejaVuSans-5a"/></g></g><g clip-path="url(#3de653a584a)"><g transform="translate(624.31 120.03) scale(.064 -.064)"><use xlink:href="#DejaVuSans-30"/><use transform="translate(63.623)" xlink:href="#DejaVuSans-2e"/><use transform="translate(95.41)" xlink:href="#DejaVuSans-34"/></g></g><g clip-path="url(#3de653a584a)"><g transform="translate(623.06 110.29) scale(.104 -.104)"><use transform="translate(0 .09375)" xlink:href="#DejaVuSans-52"/><use transform="translate(70.439 -16.312) scale(.7)" xlink:href="#DejaVuSans-5a"/></g></g><g clip-path="url(#3de653a584a)"><g transform="translate(624.31 157.11) scale(.064 -.064)"><use xlink:href="#DejaVuSans-30"/><use transform="translate(63.623)" xlink:href="#DejaVuSans-2e"/><use transform="translate(95.41)" xlink:href="#DejaVuSans-34"/></g></g><g clip-path="url(#3de653a584a)"><g transform="translate(623.06 147.37) scale(.104 -.104)"><use transform="translate(0 .09375)" xlink:href="#DejaVuSans-52"/><use transform="translate(70.439 -16.312) scale(.7)" xlink:href="#DejaVuSans-5a"/></g></g><g clip-path="url(#3de653a584a)"><g transform="translate(665.84 150.99) scale(.104 -.104)" fill="#ffffff"><use xlink:href="#DejaVuSans-30"/></g></g><g clip-path="url(#3de653a584a)"><g transform="translate(665.84 39.736) scale(.104 -.104)" fill="#ffffff"><use xlink:href="#DejaVuSans-31"/></g></g><g clip-path="url(#3de653a584a)"><g transform="translate(672.37 95.072) scale(.104 -.104)" fill="#ffffff"><use xlink:href="#DejaVuSans-63"/><use transform="translate(54.98)" xlink:href="#DejaVuSans-75"/><use transform="translate(118.36)" xlink:href="#DejaVuSans-74"/><use transform="translate(157.57)" xlink:href="#DejaVuSans-5f"/><use transform="translate(207.57)" xlink:href="#DejaVuSans-63"/><use transform="translate(262.55)" xlink:href="#DejaVuSans-78"/></g></g><g clip-path="url(#3de653a584a)"><g transform="translate(772.64 45.864) scale(.064 -.064)" fill="#ffffff"><use xlink:href="#DejaVuSans-30"/><use transform="translate(63.623)" xlink:href="#DejaVuSans-2e"/><use transform="translate(95.41)" xlink:href="#DejaVuSans-34"/></g></g><g clip-path="url(#3de653a584a)"><g transform="translate(771.7 36.121) scale(.104 -.104)" fill="#ffffff"><use transform="translate(0 .09375)" xlink:href="#DejaVuSans-52"/><use transform="translate(70.439 -16.312) scale(.7)" xlink:href="#DejaVuSans-59"/></g></g><g clip-path="url(#3de653a584a)"><g transform="translate(809.73 82.947) scale(.064 -.064)" fill="#ffffff"><use xlink:href="#DejaVuSans-30"/><use transform="translate(63.623)" xlink:href="#DejaVuSans-2e"/><use transform="translate(95.41)" xlink:href="#DejaVuSans-34"/></g></g><g clip-path="url(#3de653a584a)"><g transform="translate(808.78 73.204) scale(.104 -.104)" fill="#ffffff"><use transform="translate(0 .09375)" xlink:href="#DejaVuSans-52"/><use transform="translate(70.439 -16.312) scale(.7)" xlink:href="#DejaVuSans-59"/></g></g><g clip-path="url(#3de653a584a)"><g transform="translate(809.73 45.864) scale(.064 -.064)"><use xlink:href="#DejaVuSans-30"/><use transform="translate(63.623)" xlink:href="#DejaVuSans-2e"/><use transform="translate(95.41)" xlink:href="#DejaVuSans-34"/></g></g><g clip-path="url(#3de653a584a)"><g transform="translate(808.47 36.121) scale(.104 -.104)"><use transform="translate(0 .09375)" xlink:href="#DejaVuSans-52"/><use transform="translate(70.439 -16.312) scale(.7)" xlink:href="#DejaVuSans-5a"/></g></g><g clip-path="url(#3de653a584a)"><g transform="translate(846.81 120.03) scale(.064 -.064)" fill="#ffffff"><use xlink:href="#DejaVuSans-30"/><use transform="translate(63.623)" xlink:href="#DejaVuSans-2e"/><use transform="translate(95.41)" xlink:href="#DejaVuSans-34"/></g></g><g clip-path="url(#3de653a584a)"><g transform="translate(845.87 110.29) scale(.104 -.104)" fill="#ffffff"><use transform="translate(0 .09375)" xlink:href="#DejaVuSans-52"/><use transform="translate(70.439 -16.312) scale(.7)" xlink:href="#DejaVuSans-59"/></g></g><g clip-path="url(#3de653a584a)"><g transform="translate(846.81 157.11) scale(.064 -.064)" fill="#ffffff"><use xlink:href="#DejaVuSans-30"/><use transform="translate(63.623)" xlink:href="#DejaVuSans-2e"/><use transform="translate(95.41)" xlink:href="#DejaVuSans-34"/></g></g><g clip-path="url(#3de653a584a)"><g transform="translate(845.87 147.37) scale(.104 -.104)" fill="#ffffff"><use transform="translate(0 .09375)" xlink:href="#DejaVuSans-52"/><use transform="translate(70.439 -16.312) scale(.7)" xlink:href="#DejaVuSans-59"/></g></g><g clip-path="url(#3de653a584a)"><g transform="translate(846.81 82.947) scale(.064 -.064)"><use xlink:href="#DejaVuSans-30"/><use transform="translate(63.623)" xlink:href="#DejaVuSans-2e"/><use transform="translate(95.41)" xlink:href="#DejaVuSans-34"/></g></g><g clip-path="url(#3de653a584a)"><g transform="translate(845.56 73.204) scale(.104 -.104)"><use transform="translate(0 .09375)" xlink:href="#DejaVuSans-52"/><use transform="translate(70.439 -16.312) scale(.7)" xlink:href="#DejaVuSans-5a"/></g></g><g clip-path="url(#3de653a584a)"><g transform="translate(883.89 120.03) scale(.064 -.064)"><use xlink:href="#DejaVuSans-30"/><use transform="translate(63.623)" xlink:href="#DejaVuSans-2e"/><use transform="translate(95.41)" xlink:href="#DejaVuSans-34"/></g></g><g clip-path="url(#3de653a584a)"><g transform="translate(882.64 110.29) scale(.104 -.104)"><use transform="translate(0 .09375)" xlink:href="#DejaVuSans-52"/><use transform="translate(70.439 -16.312) scale(.7)" xlink:href="#DejaVuSans-5a"/></g></g><g clip-path="url(#3de653a584a)"><g transform="translate(883.89 157.11) scale(.064 -.064)"><use xlink:href="#DejaVuSans-30"/><use transform="translate(63.623)" xlink:href="#DejaVuSans-2e"/><use transform="translate(95.41)" xlink:href="#DejaVuSans-34"/></g></g><g clip-path="url(#3de653a584a)"><g transform="translate(882.64 147.37) scale(.104 -.104)"><use transform="translate(0 .09375)" xlink:href="#DejaVuSans-52"/><use transform="translate(70.439 -16.312) scale(.7)" xlink:href="#DejaVuSans-5a"/></g></g><defs><clipPath id="3de653a584a"><rect x="7.2" y="7.2" width="906.26" height="163.17"/></clipPath></defs></svg>