<?xml version="1.0" encoding="UTF-8"?><!DOCTYPE svg  PUBLIC '-//W3C//DTD SVG 1.1//EN'  'http://www.w3.org/Graphics/SVG/1.1/DTD/svg11.dtd'><svg width="800.58pt" height="160.43pt" version="1.1" viewBox="0 0 800.58 160.43" xmlns="http://www.w3.org/2000/svg" xmlns:xlink="http://www.w3.org/1999/xlink"><defs><style type="text/css">*{stroke-linejoin: round; stroke-linecap: butt}</style></defs><path d="m0 160.43h800.58v-160.43h-800.58z" fill="#ffffff"/><path d="m53.664 113.19h725.4v-91.476h-725.4z" fill="#f2f3f4"/><path d="m53.664 87.057h725.4" clip-path="url(#c3c93ea3d31)" fill="none" stroke="#000000" stroke-linecap="square"/><defs><path id="ca4522262a2" d="m0 0v3.5" stroke="#000000" stroke-width=".8"/></defs><use x="86.637102" y="113.193188" stroke="#000000" stroke-width=".8" xlink:href="#ca4522262a2"/><g transform="translate(81.865 131.59) scale(.15 -.15)"><defs><path id="DejaVuSans-30" transform="scale(.015625)" d="m2034 4250q-487 0-733-480-245-479-245-1442 0-959 245-1439 246-480 733-480 491 0 736 480 246 480 246 1439 0 963-246 1442-245 480-736 480zm0 500q785 0 1199-621 414-620 414-1801 0-1178-414-1799-414-620-1199-620-784 0-1198 620-414 621-414 1799 0 1181 414 1801 414 621 1198 621z"/></defs><use xlink:href="#DejaVuSans-30"/></g><use x="225.122557" y="113.193188" stroke="#000000" stroke-width=".8" xlink:href="#ca4522262a2"/><g transform="translate(215.58 131.59) scale(.15 -.15)"><defs><path id="DejaVuSans-33" transform="scale(.015625)" d="m2597 2516q453-97 707-404 255-306 255-756 0-690-475-1069-475-378-1350-378-293 0-604 58t-642 174v609q262-153 574-231 313-78 654-78 593 0 904 234t311 681q0 413-289 645-289 233-804 233h-544v519h569q465 0 712 186t247 536q0 359-255 551-254 193-729 193-260 0-557-57-297-56-653-174v562q360 100 674 150t592 50q719 0 1137-327 419-326 419-882 0-388-222-655t-631-370z"/><path id="DejaVuSans-34" transform="scale(.015625)" d="m2419 4116-1594-2491h1594v2491zm-166 550h794v-3041h666v-525h-666v-1100h-628v1100h-2106v609l1940 2957z"/></defs><use xlink:href="#DejaVuSans-33"/><use transform="translate(63.623)" xlink:href="#DejaVuSans-34"/></g><use x="363.608011" y="113.193188" stroke="#000000" stroke-width=".8" xlink:href="#ca4522262a2"/><g transform="translate(354.06 131.59) scale(.15 -.15)"><defs><path id="DejaVuSans-36" transform="scale(.015625)" d="m2113 2584q-425 0-674-291-248-290-248-796 0-503 248-796 249-292 674-292t673 292q248 293 248 796 0 506-248 796-248 291-673 291zm1253 1979v-575q-238 112-480 171-242 60-480 60-625 0-955-422-329-422-376-1275 184 272 462 417 279 145 613 145 703 0 1111-427 408-426 408-1160 0-719-425-1154-425-434-1131-434-810 0-1238 620-428 621-428 1799 0 1106 525 1764t1409 658q238 0 480-47t505-140z"/><path id="DejaVuSans-37" transform="scale(.015625)" d="m525 4666h3e3v-269l-1694-4397h-659l1594 4134h-2241v532z"/></defs><use xlink:href="#DejaVuSans-36"/><use transform="translate(63.623)" xlink:href="#DejaVuSans-37"/></g><use x="502.093466" y="113.193188" stroke="#000000" stroke-width=".8" xlink:href="#ca4522262a2"/><g transform="translate(487.78 131.59) scale(.15 -.15)"><defs><path id="DejaVuSans-31" transform="scale(.015625)" d="m794 531h1031v3560l-1122-225v575l1116 225h631v-4135h1031v-531h-2687v531z"/></defs><use xlink:href="#DejaVuSans-31"/><use transform="translate(63.623)" xlink:href="#DejaVuSans-30"/><use transform="translate(127.25)" xlink:href="#DejaVuSans-31"/></g><use x="640.57892" y="113.193188" stroke="#000000" stroke-width=".8" xlink:href="#ca4522262a2"/><g transform="translate(626.26 131.59) scale(.15 -.15)"><use xlink:href="#DejaVuSans-31"/><use transform="translate(63.623)" xlink:href="#DejaVuSans-33"/><use transform="translate(127.25)" xlink:href="#DejaVuSans-34"/></g><use x="779.064375" y="113.193188" stroke="#000000" stroke-width=".8" xlink:href="#ca4522262a2"/><g transform="translate(764.75 131.59) scale(.15 -.15)"><defs><path id="DejaVuSans-38" transform="scale(.015625)" d="m2034 2216q-450 0-708-241-257-241-257-662 0-422 257-663 258-241 708-241t709 242q260 243 260 662 0 421-258 662-257 241-711 241zm-631 268q-406 100-633 378-226 279-226 679 0 559 398 884 399 325 1092 325 697 0 1094-325t397-884q0-400-227-679-226-278-629-378 456-106 710-416 255-309 255-755 0-679-414-1042-414-362-1186-362-771 0-1186 362-414 363-414 1042 0 446 256 755 257 310 713 416zm-231 997q0-362 226-565 227-203 636-203 407 0 636 203 230 203 230 565 0 363-230 566-229 203-636 203-409 0-636-203-226-203-226-566z"/></defs><use xlink:href="#DejaVuSans-31"/><use transform="translate(63.623)" xlink:href="#DejaVuSans-36"/><use transform="translate(127.25)" xlink:href="#DejaVuSans-38"/></g><g transform="translate(331.36 150.11) scale(.15 -.15)"><defs><path id="DejaVuSans-53" transform="scale(.015625)" d="m3425 4513v-616q-359 172-678 256-319 85-616 85-515 0-795-200t-280-569q0-310 186-468 186-157 705-254l381-78q706-135 1042-474t336-907q0-679-455-1029-454-350-1332-350-331 0-705 75-373 75-773 222v650q384-215 753-325 369-109 725-109 540 0 834 212 294 213 294 607 0 343-211 537t-692 291l-385 75q-706 140-1022 440-315 300-315 835 0 619 436 975t1201 356q329 0 669-60 341-59 697-177z"/><path id="DejaVuSans-79" transform="scale(.015625)" d="m2059-325q-243-625-475-815-231-191-618-191h-460v481h338q237 0 368 113 132 112 291 531l103 262-1415 3444h609l1094-2737 1094 2737h609l-1538-3825z"/><path id="DejaVuSans-73" transform="scale(.015625)" d="m2834 3397v-544q-243 125-506 187-262 63-544 63-428 0-642-131t-214-394q0-200 153-314t616-217l197-44q612-131 870-370t258-667q0-488-386-773-386-284-1061-284-281 0-586 55t-642 164v594q319-166 628-249 309-82 613-82 406 0 624 139 219 139 219 392 0 234-158 359-157 125-692 241l-200 47q-534 112-772 345-237 233-237 639 0 494 350 762 350 269 994 269 318 0 599-47 282-46 519-140z"/><path id="DejaVuSans-74" transform="scale(.015625)" d="m1172 4494v-994h1184v-447h-1184v-1900q0-428 117-550t477-122h590v-481h-590q-666 0-919 248-253 249-253 905v1900h-422v447h422v994h578z"/><path id="DejaVuSans-65" transform="scale(.015625)" d="m3597 1894v-281h-2644q38-594 358-905t892-311q331 0 642 81t618 244v-544q-310-131-635-200t-659-69q-838 0-1327 487-489 488-489 1320 0 859 464 1363 464 505 1252 505 706 0 1117-455 411-454 411-1235zm-575 169q-6 471-264 752-258 282-683 282-481 0-770-272t-333-766l2050 4z"/><path id="DejaVuSans-6d" transform="scale(.015625)" d="m3328 2828q216 388 516 572t706 184q547 0 844-383 297-382 297-1088v-2113h-578v2094q0 503-179 746-178 244-543 244-447 0-707-297-259-296-259-809v-1978h-578v2094q0 506-178 748t-550 242q-441 0-701-298-259-298-259-808v-1978h-578v3500h578v-544q197 322 472 475t653 153q382 0 649-194 267-193 395-562z"/><path id="DejaVuSans-63" transform="scale(.015625)" d="m3122 3366v-538q-244 135-489 202t-495 67q-560 0-870-355-309-354-309-995t309-996q310-354 870-354 250 0 495 67t489 202v-532q-241-112-499-168-257-57-548-57-791 0-1257 497-465 497-465 1341 0 856 470 1346 471 491 1290 491 265 0 518-55 253-54 491-163z"/><path id="DejaVuSans-6c" transform="scale(.015625)" d="m603 4863h575v-4863h-575v4863z"/><path id="DejaVuSans-69" transform="scale(.015625)" d="m603 3500h575v-3500h-575v3500zm0 1363h575v-729h-575v729z"/><path id="DejaVuSans-28" transform="scale(.015625)" d="m1984 4856q-418-718-622-1422-203-703-203-1425 0-721 205-1429t620-1424h-500q-468 735-701 1444t-233 1409q0 697 231 1403 232 707 703 1444h500z"/><path id="DejaVuSans-64" transform="scale(.015625)" d="m2906 2969v1894h575v-4863h-575v525q-181-312-458-464-276-152-664-152-634 0-1033 506-398 507-398 1332t398 1331q399 506 1033 506 388 0 664-152 277-151 458-463zm-1959-1222q0-634 261-995t717-361 718 361q263 361 263 995t-263 995q-262 361-718 361t-717-361-261-995z"/><path id="DejaVuSans-29" transform="scale(.015625)" d="m513 4856h500q468-737 701-1444 233-706 233-1403 0-700-233-1409t-701-1444h-500q415 716 620 1424t205 1429q0 722-205 1425-205 704-620 1422z"/></defs><use xlink:href="#DejaVuSans-53"/><use transform="translate(63.477)" xlink:href="#DejaVuSans-79"/><use transform="translate(122.66)" xlink:href="#DejaVuSans-73"/><use transform="translate(174.76)" xlink:href="#DejaVuSans-74"/><use transform="translate(213.96)" xlink:href="#DejaVuSans-65"/><use transform="translate(275.49)" xlink:href="#DejaVuSans-6d"/><use transform="translate(372.9)" xlink:href="#DejaVuSans-20"/><use transform="translate(404.69)" xlink:href="#DejaVuSans-63"/><use transform="translate(459.67)" xlink:href="#DejaVuSans-79"/><use transform="translate(518.85)" xlink:href="#DejaVuSans-63"/><use transform="translate(573.83)" xlink:href="#DejaVuSans-6c"/><use transform="translate(601.61)" xlink:href="#DejaVuSans-65"/><use transform="translate(663.13)" xlink:href="#DejaVuSans-20"/><use transform="translate(694.92)" xlink:href="#DejaVuSans-74"/><use transform="translate(734.13)" xlink:href="#DejaVuSans-69"/><use transform="translate(761.91)" xlink:href="#DejaVuSans-6d"/><use transform="translate(859.33)" xlink:href="#DejaVuSans-65"/><use transform="translate(920.85)" xlink:href="#DejaVuSans-20"/><use transform="translate(952.64)" xlink:href="#DejaVuSans-28"/><use transform="translate(991.65)" xlink:href="#DejaVuSans-64"/><use transform="translate(1055.1)" xlink:href="#DejaVuSans-74"/><use transform="translate(1094.3)" xlink:href="#DejaVuSans-29"/></g><defs><path id="427d47b1f1b" d="m86.637-73.37h4.1216v-0.27396h4.1216v-0.27396h4.1216v-0.27396h4.1216v-0.27396h4.1216v-0.27396h4.1216v-0.27396h4.1216v-0.27396h4.1216v-0.27396h4.1216v-0.27396h4.1216v-0.27396h4.1216v-0.27396h4.1216v-0.27396h4.1216v-0.27396h4.1216v-0.27396h4.1216v-0.27396h4.1216v-0.27396h4.1216v-0.27396h4.1216v-0.27396h4.1216v-0.27396h4.1216v-0.27396h4.1216v-0.27396h4.1216v-0.27396h4.1216v-0.27396h4.1216v-0.27396h4.1216v-0.27396h4.1216v-0.27396h4.1216v-0.27396h4.1216v-0.27396h4.1216v-0.27396h4.1216v-0.27396h4.1216v-0.27396h4.1216v-0.27396h4.1216v-0.27396h4.1216v-0.27396h4.1216v-0.27396h4.1216v-0.27396h4.1216v-0.27396h4.1216v-0.27396h4.1216v-0.27396h4.1216v-0.27396h4.1216v-0.27396h4.1216v-0.27396h4.1216v-0.27396h4.1216v-0.27396h4.1216v-0.27396h4.1216v-0.27396h4.1216v-0.27396h4.1216v-0.27396h4.1216v-0.27396h4.1216v-0.27396h4.1216v-0.27396h4.1216v-0.27396h4.1216v-0.27396h4.1216v-0.27396h4.1216v-0.27396h4.1216v-0.27396h4.1216v-0.27396h4.1216v-0.27396h4.1216v-0.27396h4.1216v-0.27396h4.1216v-0.27396h4.1216v-0.27396h4.1216v-0.27396h4.1216v-0.27396h4.1216v-0.27396h4.1216v-0.27396h4.1216v-0.27396h4.1216v-0.27396h4.1216v-0.27396h4.1216v-0.27396h4.1216v-0.27396h4.1216v-0.27396h4.1216v-0.27396h4.1216v-0.27396h4.1216v-0.27396h4.1216v-0.27396h4.1216v-0.27396h4.1216v-0.27396h4.1216v-0.27396h4.1216v-0.27396h4.1216v-0.27396h4.1216v-0.27396h4.1216v-0.27396h4.1216v-0.27396h4.1216v-0.27396h4.1216v-0.27396h4.1216v-0.27396h4.1216v-0.27396h4.1216v-0.27396h4.1216v-0.27396h4.1216v-0.27396h4.1216v-0.27396h4.1216v-0.27396h4.1216v-0.27396h4.1216v-0.27396h4.1216v-0.27396h4.1216v-0.27396h4.1216v-0.27396h4.1216v-0.27396h4.1216v-0.27396h4.1216v-0.27396h4.1216v-0.27396h4.1216v-0.27396h4.1216v-0.27396h4.1216v-0.27396h4.1216v-0.27396h4.1216v-0.27396h4.1216v-0.27396h4.1216v-0.27396h4.1216v-0.27396h4.1216v-0.27396h4.1216v-0.27396h4.1216v-0.27396h4.1216v-0.27396h4.1216v-0.27396h4.1216v-0.27396h4.1216v-0.27396h4.1216v-0.27396h4.1216v-0.27396h4.1216v-0.27396h4.1216v-0.27396h4.1216v-0.27396h4.1216v-0.27396h4.1216v-0.27396h4.1216v-0.27396h4.1216v-0.27396h4.1216v-0.27396h4.1216v-0.27396h4.1216v-0.27396h4.1216v-0.27396h4.1216v-0.27396h4.1216v-0.27396h4.1216v-0.27396h4.1216v-0.27396h4.1216v-0.27396h4.1216v-0.27396h4.1216v-0.27396h4.1216v-0.27396h4.1216v-0.27396h4.1216v-0.27396h4.1216v-0.27396h4.1216v-0.27396h4.1216v-0.27396h4.1216v-0.27396h4.1216v-0.27396h4.1216v-0.27396h4.1216v-0.27396h4.1216v-0.27396h4.1216v-0.27396h4.1216v-0.27396h4.1216v-0.27396h4.1216v-0.27396h4.1216v-0.27396h4.1216v-0.27396h4.1216v-0.27396h4.1216v-0.27396h4.1216v-0.27396h4.1216v-0.27396h4.1216v-0.27396h4.1216v43.56h-4.1216-4.1216-4.1216-4.1216-4.1216-4.1216-4.1216-4.1216-4.1216-4.1216-4.1216-4.1216-4.1216-4.1216-4.1216-4.1216-4.1216-4.1216-4.1216-4.1216-4.1216-4.1216-4.1216-4.1216-4.1216-4.1216-4.1216-4.1216-4.1216-4.1216-4.1216-4.1216-4.1216-4.1216-4.1216-4.1216-4.1216-4.1216-4.1216-4.1216-4.1216-4.1216-4.1216-4.1216-4.1216-4.1216-4.1216-4.1216-4.1216-4.1216-4.1216-4.1216-4.1216-4.1216-4.1216-4.1216-4.1216-4.1216-4.1216-4.1216-4.1216-4.1216-4.1216-4.1216-4.1216-4.1216-4.1216-4.1216-4.1216-4.1216-4.1216-4.1216-4.1216-4.1216-4.1216-4.1216-4.1216-4.1216-4.1216-4.1216-4.1216-4.1216-4.1216-4.1216-4.1216-4.1216-4.1216-4.1216-4.1216-4.1216-4.1216-4.1216-4.1216-4.1216-4.1216-4.1216-4.1216-4.1216-4.1216-4.1216-4.1216-4.1216-4.1216-4.1216-4.1216-4.1216-4.1216-4.1216-4.1216-4.1216-4.1216-4.1216-4.1216-4.1216-4.1216-4.1216-4.1216-4.1216-4.1216-4.1216-4.1216-4.1216-4.1216-4.1216-4.1216-4.1216-4.1216-4.1216-4.1216-4.1216-4.1216-4.1216-4.1216-4.1216-4.1216-4.1216-4.1216-4.1216-4.1216-4.1216-4.1216-4.1216-4.1216-4.1216-4.1216-4.1216-4.1216-4.1216-4.1216-4.1216-4.1216-4.1216-4.1216-4.1216-4.1216-4.1216-4.1216-4.1216-4.1216-4.1216z"/></defs><g clip-path="url(#c3c93ea3d31)"><use y="160.427563" fill="#648fff" fill-opacity=".3" xlink:href="#427d47b1f1b"/></g><path d="m53.664 113.19v-91.476" fill="none" stroke="#000000" stroke-linecap="square" stroke-width=".8"/><path d="m779.06 113.19v-91.476" fill="none" stroke="#000000" stroke-linecap="square" stroke-width=".8"/><path d="m53.664 113.19h725.4" fill="none" stroke="#000000" stroke-linecap="square" stroke-width=".8"/><path d="m53.664 21.717h725.4" fill="none" stroke="#000000" stroke-linecap="square" stroke-width=".8"/><g transform="translate(385.9 103.44) scale(.12 -.12)" fill="#222222"><defs><path id="DejaVuSans-57" transform="scale(.015625)" d="m213 4666h637l981-3944 978 3944h710l981-3944 978 3944h641l-1172-4666h-794l-984 4050-994-4050h-794l-1168 4666z"/><path id="DejaVuSans-61" transform="scale(.015625)" d="m2194 1759q-697 0-966-159t-269-544q0-306 202-486 202-179 548-179 479 0 768 339t289 901v128h-572zm1147 238v-1997h-575v531q-197-318-491-470t-719-152q-537 0-855 302-317 302-317 808 0 590 395 890 396 300 1180 300h807v57q0 397-261 614t-733 217q-300 0-585-72-284-72-546-216v532q315 122 612 182 297 61 578 61 760 0 1135-394 375-393 375-1193z"/><path id="DejaVuSans-76" transform="scale(.015625)" d="m191 3500h609l1094-2937 1094 2937h609l-1313-3500h-781l-1312 3500z"/><path id="DejaVuSans-66" transform="scale(.015625)" d="m2375 4863v-479h-550q-309 0-430-125-120-125-120-450v-309h947v-447h-947v-3053h-578v3053h-550v447h550v244q0 584 272 851 272 268 862 268h544z"/><path id="DejaVuSans-6f" transform="scale(.015625)" d="m1959 3097q-462 0-731-361t-269-989 267-989q268-361 733-361 460 0 728 362 269 363 269 988 0 622-269 986-268 364-728 364zm0 487q750 0 1178-488 429-487 429-1349 0-859-429-1349-428-489-1178-489-753 0-1180 489-426 490-426 1349 0 862 426 1349 427 488 1180 488z"/><path id="DejaVuSans-72" transform="scale(.015625)" d="m2631 2963q-97 56-211 82-114 27-251 27-488 0-749-317t-261-911v-1844h-578v3500h578v-544q182 319 472 473 291 155 707 155 59 0 131-8 72-7 159-23l3-590z"/></defs><use xlink:href="#DejaVuSans-57"/><use transform="translate(92.502)" xlink:href="#DejaVuSans-61"/><use transform="translate(153.78)" xlink:href="#DejaVuSans-76"/><use transform="translate(212.96)" xlink:href="#DejaVuSans-65"/><use transform="translate(274.48)" xlink:href="#DejaVuSans-66"/><use transform="translate(309.69)" xlink:href="#DejaVuSans-6f"/><use transform="translate(370.87)" xlink:href="#DejaVuSans-72"/><use transform="translate(410.23)" xlink:href="#DejaVuSans-6d"/></g><g transform="translate(32.571 91.196) scale(.15 -.15)"><defs><path id="DejaVuSans-44" transform="scale(.015625)" d="m1259 4147v-3628h763q966 0 1414 437 448 438 448 1382 0 937-448 1373t-1414 436h-763zm-631 519h1297q1356 0 1990-564 635-564 635-1764 0-1207-638-1773-637-565-1987-565h-1297v4666z"/></defs><use xlink:href="#DejaVuSans-44"/><use transform="translate(77.002)" xlink:href="#DejaVuSans-30"/></g><g transform="translate(7.2 103.44) scale(.12 -.12)"><defs><path id="DejaVuSans-6e" transform="scale(.015625)" d="m3513 2113v-2113h-575v2094q0 497-194 743-194 247-581 247-466 0-735-297-269-296-269-809v-1978h-578v3500h578v-544q207 316 486 472 280 156 646 156 603 0 912-373 310-373 310-1098z"/><path id="DejaVuSans-71" transform="scale(.015625)" d="m947 1747q0-634 261-995t717-361 718 361q263 361 263 995t-263 995q-262 361-718 361t-717-361-261-995zm1959-1222q-181-312-458-464-276-152-664-152-634 0-1033 506-398 507-398 1332t398 1331q399 506 1033 506 388 0 664-152 277-151 458-463v531h575v-4831h-575v1856z"/><path id="DejaVuSans-2e" transform="scale(.015625)" d="m684 794h660v-794h-660v794z"/></defs><use xlink:href="#DejaVuSans-6e"/><use transform="translate(63.379)" xlink:href="#DejaVuSans-6f"/><use transform="translate(124.56)" xlink:href="#DejaVuSans-20"/><use transform="translate(156.35)" xlink:href="#DejaVuSans-66"/><use transform="translate(191.55)" xlink:href="#DejaVuSans-72"/><use transform="translate(230.42)" xlink:href="#DejaVuSans-65"/><use transform="translate(291.94)" xlink:href="#DejaVuSans-71"/><use transform="translate(355.42)" xlink:href="#DejaVuSans-2e"/></g><g transform="translate(53.664 18.598) scale(.15 -.15)"><defs><path id="DejaVuSans-4e" transform="scale(.015625)" d="m628 4666h850l2069-3903v3903h612v-4666h-850l-2068 3903v-3903h-613v4666z"/><path id="DejaVuSans-3a" transform="scale(.015625)" d="m750 794h659v-794h-659v794zm0 2515h659v-793h-659v793z"/><path id="DejaVuSans-62" transform="scale(.015625)" d="m3116 1747q0 634-261 995t-717 361q-457 0-718-361t-261-995 261-995 718-361q456 0 717 361t261 995zm-1957 1222q182 312 458 463 277 152 661 152 638 0 1036-506 399-506 399-1331t-399-1332q-398-506-1036-506-384 0-661 152-276 152-458 464v-525h-578v4863h578v-1894z"/><path id="DejaVuSans-6b" transform="scale(.015625)" d="m581 4863h578v-2872l1716 1509h734l-1856-1637 1935-1863h-750l-1779 1709v-1709h-578v4863z"/><path id="DejaVuSans-2c" transform="scale(.015625)" d="m750 794h659v-538l-512-1e3h-403l256 1e3v538z"/><path id="DejaVuSans-75" transform="scale(.015625)" d="m544 1381v2119h575v-2097q0-497 193-746 194-248 582-248 465 0 735 297 271 297 271 810v1984h575v-3500h-575v538q-209-319-486-474-276-155-642-155-603 0-916 375-312 375-312 1097zm1447 2203z"/></defs><use xlink:href="#DejaVuSans-4e"/><use transform="translate(74.805)" xlink:href="#DejaVuSans-61"/><use transform="translate(136.08)" xlink:href="#DejaVuSans-6d"/><use transform="translate(233.5)" xlink:href="#DejaVuSans-65"/><use transform="translate(295.02)" xlink:href="#DejaVuSans-3a"/><use transform="translate(328.71)" xlink:href="#DejaVuSans-20"/><use transform="translate(360.5)" xlink:href="#DejaVuSans-62"/><use transform="translate(423.97)" xlink:href="#DejaVuSans-6c"/><use transform="translate(451.76)" xlink:href="#DejaVuSans-6f"/><use transform="translate(512.94)" xlink:href="#DejaVuSans-63"/><use transform="translate(567.92)" xlink:href="#DejaVuSans-6b"/><use transform="translate(625.83)" xlink:href="#DejaVuSans-37"/><use transform="translate(689.45)" xlink:href="#DejaVuSans-2c"/><use transform="translate(721.24)" xlink:href="#DejaVuSans-20"/><use transform="translate(753.03)" xlink:href="#DejaVuSans-44"/><use transform="translate(830.03)" xlink:href="#DejaVuSans-75"/><use transform="translate(893.41)" xlink:href="#DejaVuSans-72"/><use transform="translate(934.52)" xlink:href="#DejaVuSans-61"/><use transform="translate(995.8)" xlink:href="#DejaVuSans-74"/><use transform="translate(1035)" xlink:href="#DejaVuSans-69"/><use transform="translate(1062.8)" xlink:href="#DejaVuSans-6f"/><use transform="translate(1124)" xlink:href="#DejaVuSans-6e"/><use transform="translate(1187.4)" xlink:href="#DejaVuSans-3a"/><use transform="translate(1221)" xlink:href="#DejaVuSans-20"/><use transform="translate(1252.8)" xlink:href="#DejaVuSans-31"/><use transform="translate(1316.5)" xlink:href="#DejaVuSans-36"/><use transform="translate(1380.1)" xlink:href="#DejaVuSans-30"/><use transform="translate(1443.7)" xlink:href="#DejaVuSans-2e"/><use transform="translate(1475.5)" xlink:href="#DejaVuSans-30"/><use transform="translate(1539.1)" xlink:href="#DejaVuSans-20"/><use transform="translate(1570.9)" xlink:href="#DejaVuSans-64"/><use transform="translate(1634.4)" xlink:href="#DejaVuSans-74"/></g><defs><clipPath id="c3c93ea3d31"><rect x="53.664" y="21.717" width="725.4" height="91.476"/></clipPath></defs></svg>