<?xml version='1.0' encoding='utf-8'?>
<svg xmlns="http://www.w3.org/2000/svg" xmlns:ns1="http://sodipodi.sourceforge.net/DTD/sodipodi-0.dtd" xmlns:ns2="http://www.inkscape.org/namespaces/inkscape" version="1.1" id="svg1" width="100%" height="auto" viewBox="-20.0 -20.0 311.43359 163.41183999999998" ns1:docname="svg_fix_XXXXXX.svg">
  <rect id="path1" x="-20.0" y="-20.0" width="311.43359" height="163.41183999999998" fill="white" /><ns1:namedview id="namedview1" pagecolor="#ffffff" bordercolor="#000000" borderopacity="0.25" ns2:showpageshadow="2" ns2:pageopacity="0.0" ns2:pagecheckerboard="0" ns2:deskcolor="#d1d1d1" />
  <defs id="defs1" />
  <g id="g1" transform="translate(-167.56641,-38.42409)">
    <path id="path2" d="M -18.40439,21.2601 H 18.40439" style="fill:none;stroke:#121619;stroke-width:0.3985;stroke-linecap:butt;stroke-linejoin:miter;stroke-miterlimit:10;stroke-dasharray:none;stroke-opacity:1" transform="matrix(4,0,0,-4,302.36267,145.86533)" />
    <path id="path3" d="M -18.40439,0 H 18.40439" style="fill:none;stroke:#121619;stroke-width:0.3985;stroke-linecap:butt;stroke-linejoin:miter;stroke-miterlimit:10;stroke-dasharray:none;stroke-opacity:1" transform="matrix(4,0,0,-4,302.36267,145.86533)" />
    <path id="path4" d="M 2.49069,0 C 2.49069,1.37558 1.37558,2.49069 0,2.49069 -1.37558,2.49069 -2.49069,1.37558 -2.49069,0 c 0,-1.37558 1.11511,-2.49069 2.49069,-2.49069 1.37558,0 2.49069,1.11511 2.49069,2.49069 z" style="fill:#78a9ff;fill-opacity:1;fill-rule:nonzero;stroke:none" transform="matrix(4,0,0,-4,302.36267,145.86533)" />
    <path id="path5" d="m 5.40096,21.2601 c 0,2.9829 -2.41806,5.40096 -5.40096,5.40096 -2.9829,0 -5.40096,-2.41806 -5.40096,-5.40096 0,-2.98291 2.41806,-5.40097 5.40096,-5.40097 2.9829,0 5.40096,2.41806 5.40096,5.40097 z" style="fill:#78a9ff;fill-opacity:1;fill-rule:nonzero;stroke:#78a9ff;stroke-width:0.3985;stroke-linecap:butt;stroke-linejoin:miter;stroke-miterlimit:10;stroke-dasharray:none;stroke-opacity:1" transform="matrix(4,0,0,-4,302.36267,145.86533)" />
    <path id="path6" d="m 3.9223177,-6.5151849 v 2.84375 H 1.0746615 v 0.765625 h 2.8476562 v 2.84765625 h 0.765625 V -2.9058099 h 2.84375 v -0.765625 h -2.84375 v -2.84375 z m 0,0" style="fill:#ffffff;fill-opacity:1;fill-rule:nonzero;stroke:none" aria-label="+" transform="matrix(4,0,0,4,285.14667,73.869333)" />
    <path id="path7" d="M 0,0 V 15.65988" style="fill:none;stroke:#78a9ff;stroke-width:0.79701;stroke-linecap:butt;stroke-linejoin:miter;stroke-miterlimit:10;stroke-dasharray:none;stroke-opacity:1" transform="matrix(4,0,0,-4,302.36267,145.86533)" />
    <g id="g7" aria-label="∣0⟩" transform="matrix(4,0,0,4,163.83867,69.593333)">
      <path id="path8" d="m 1.1956068,-6.0975521 v 7.8125 h 0.5117187 v -7.8125 z m 0,0" style="fill:#121619;fill-opacity:1;fill-rule:nonzero;stroke:none" />
      <path id="path9" d="m 6.7991224,-2.5428646 c 0,-0.8515625 -0.089844,-1.3710937 -0.3515625,-1.8789062 -0.3515625,-0.703125 -0.9960938,-0.8789063 -1.4335938,-0.8789063 -1.0039062,0 -1.3710937,0.75 -1.484375,0.9726563 -0.2851562,0.5820312 -0.3007812,1.3710937 -0.3007812,1.7851562 0,0.5273438 0.023437,1.3320313 0.40625,1.96875002 0.3671875,0.58984375 0.953125,0.7421875 1.3789062,0.7421875 0.3828125,0 1.0664063,-0.12109375 1.4648438,-0.91015625 C 6.7717786,-1.3163021 6.7991224,-2.0233333 6.7991224,-2.5428646 Z m -1.7851563,2.48828127 c -0.2734375,0 -0.8242187,-0.12890625 -0.9882812,-0.96484377 -0.089844,-0.453125 -0.089844,-1.203125 -0.089844,-1.6171875 0,-0.5507812 0,-1.109375 0.089844,-1.546875 0.1640625,-0.8125 0.7890625,-0.890625 0.9882812,-0.890625 0.2695313,0 0.8203125,0.1328125 0.9804688,0.859375 0.09375,0.4375 0.09375,1.0351563 0.09375,1.578125 0,0.46875 0,1.1875 -0.09375,1.6328125 -0.1679688,0.83593752 -0.71875,0.94921877 -0.9804688,0.94921877 z m 0,0" style="fill:#121619;fill-opacity:1;fill-rule:nonzero;stroke:none" />
      <path id="path10" d="M 8.3459974,1.8008854 9.7795911,-2.1913021 8.3459974,-6.1834896 7.8694349,-6.0077083 9.3030286,-2.1913021 7.8694349,1.6251042 Z m 0,0" style="fill:#121619;fill-opacity:1;fill-rule:nonzero;stroke:none" />
    </g>
    <g id="g10" aria-label="∣a⟩" transform="matrix(4,0,0,4,162.78667,154.63333)">
      <path id="path11" d="m 1.1949349,-6.0977865 v 7.8125 h 0.5117187 v -7.8125 z m 0,0" style="fill:#121619;fill-opacity:1;fill-rule:nonzero;stroke:none" />
      <path id="path12" d="m 6.0259896,-3.0352865 c -0.074219,-0.1367187 -0.3046875,-0.4804687 -0.7890625,-0.4804687 -0.9492188,0 -1.9921875,1.109375 -1.9921875,2.2890625 0,0.82812499 0.53125,1.30468749 1.1445312,1.30468749 0.5117188,0 0.9492188,-0.40625 1.09375,-0.5625 0.1445313,0.546875 0.6835938,0.5625 0.78125,0.5625 0.3671875,0 0.5507813,-0.30078125 0.6132813,-0.4375 0.1601562,-0.28515625 0.2695312,-0.74999999 0.2695312,-0.78124999 0,-0.046875 -0.03125,-0.1015625 -0.125,-0.1015625 -0.097656,0 -0.1132812,0.046875 -0.1601562,0.24609374 -0.1132813,0.4375 -0.2617188,0.8515625 -0.5742188,0.8515625 -0.1835937,0 -0.2539062,-0.1484375 -0.2539062,-0.375 0,-0.1328125 0.070312,-0.40625 0.1171875,-0.60546874 0.050781,-0.1992188 0.1679687,-0.6757813 0.1992187,-0.8203125 l 0.1601563,-0.6054688 c 0.039063,-0.1914062 0.1289062,-0.5234375 0.1289062,-0.5664062 0,-0.1835938 -0.1523437,-0.2460938 -0.2578125,-0.2460938 -0.1171875,0 -0.3164062,0.082031 -0.3554687,0.328125 z m -0.5429688,2.17578129 c -0.3984375,0.546875 -0.8125,0.71484375 -1.0664062,0.71484375 -0.3671875,0 -0.5507813,-0.33203125 -0.5507813,-0.74609375 0,-0.37499999 0.2148438,-1.23046879 0.390625,-1.57812499 0.2304688,-0.4882813 0.6210938,-0.8242188 0.9882813,-0.8242188 0.515625,0 0.6679687,0.5820313 0.6679687,0.6796875 0,0.03125 -0.1992187,0.8125 -0.2460937,1.0195313 -0.1054688,0.375 -0.1054688,0.390625 -0.1835938,0.73437499 z m 0,0" style="fill:#121619;fill-opacity:1;fill-rule:nonzero;stroke:none" />
      <path id="path13" d="M 8.609974,1.800651 10.043568,-2.1915365 8.609974,-6.183724 8.1334115,-6.0079427 9.5670052,-2.1915365 8.1334115,1.6248698 Z m 0,0" style="fill:#121619;fill-opacity:1;fill-rule:nonzero;stroke:none" />
    </g>
    <g id="g13" aria-label="∣a⟩" transform="matrix(4,0,0,4,398.82667,69.593333)">
      <path id="path14" d="m 1.1956771,-6.0975521 v 7.8125 h 0.5117187 v -7.8125 z m 0,0" style="fill:#121619;fill-opacity:1;fill-rule:nonzero;stroke:none" />
      <path id="path15" d="m 6.0257552,-3.0350521 c -0.074219,-0.1367187 -0.3046875,-0.4804687 -0.7890625,-0.4804687 -0.9492187,0 -1.9921875,1.109375 -1.9921875,2.2890625 0,0.82812497 0.53125,1.30468747 1.1445313,1.30468747 0.5117187,0 0.9492187,-0.40625 1.09375,-0.5625 0.1445312,0.546875 0.6835937,0.5625 0.78125,0.5625 0.3671875,0 0.5507812,-0.30078125 0.6132812,-0.4375 C 7.037474,-0.64442708 7.146849,-1.1092708 7.146849,-1.1405208 c 0,-0.046875 -0.03125,-0.1015625 -0.125,-0.1015625 -0.097656,0 -0.1132813,0.046875 -0.1601563,0.24609372 -0.1132812,0.4375 -0.2617187,0.8515625 -0.5742187,0.8515625 -0.1835938,0 -0.2539063,-0.1484375 -0.2539063,-0.375 0,-0.1328125 0.070312,-0.40625 0.1171875,-0.60546872 0.050781,-0.1992188 0.1679688,-0.6757813 0.1992188,-0.8203125 l 0.1601562,-0.6054688 c 0.039063,-0.1914062 0.1289063,-0.5234375 0.1289063,-0.5664062 0,-0.1835938 -0.1523438,-0.2460938 -0.2578125,-0.2460938 -0.1171875,0 -0.3164063,0.082031 -0.3554688,0.328125 z m -0.5429687,2.17578127 c -0.3984375,0.546875 -0.8125,0.71484375 -1.0664063,0.71484375 -0.3671875,0 -0.5507812,-0.33203125 -0.5507812,-0.74609375 0,-0.37499997 0.2148437,-1.23046877 0.390625,-1.57812497 0.2304687,-0.4882813 0.6210937,-0.8242188 0.9882812,-0.8242188 0.515625,0 0.6679688,0.5820313 0.6679688,0.6796875 0,0.03125 -0.1992188,0.8125 -0.2460938,1.0195313 -0.1054687,0.375 -0.1054687,0.390625 -0.1835937,0.73437497 z m 0,0" style="fill:#121619;fill-opacity:1;fill-rule:nonzero;stroke:none" />
      <path id="path16" d="M 8.6097396,1.8008854 10.043333,-2.1913021 8.6097396,-6.1834896 8.1331771,-6.0077083 9.5667708,-2.1913021 8.1331771,1.6251042 Z m 0,0" style="fill:#121619;fill-opacity:1;fill-rule:nonzero;stroke:none" />
    </g>
    <g id="g16" aria-label="∣a⟩" transform="matrix(4,0,0,4,398.82667,154.63333)">
      <path id="path17" d="m 1.1956771,-6.0977865 v 7.8125 h 0.5117187 v -7.8125 z m 0,0" style="fill:#121619;fill-opacity:1;fill-rule:nonzero;stroke:none" />
      <path id="path18" d="m 6.0257552,-3.0352865 c -0.074219,-0.1367187 -0.3046875,-0.4804687 -0.7890625,-0.4804687 -0.9492187,0 -1.9921875,1.109375 -1.9921875,2.2890625 0,0.82812499 0.53125,1.30468749 1.1445313,1.30468749 0.5117187,0 0.9492187,-0.40625 1.09375,-0.5625 0.1445312,0.546875 0.6835937,0.5625 0.78125,0.5625 0.3671875,0 0.5507812,-0.30078125 0.6132812,-0.4375 C 7.037474,-0.64466146 7.146849,-1.1095052 7.146849,-1.1407552 c 0,-0.046875 -0.03125,-0.1015625 -0.125,-0.1015625 -0.097656,0 -0.1132813,0.046875 -0.1601563,0.24609374 -0.1132812,0.4375 -0.2617187,0.8515625 -0.5742187,0.8515625 -0.1835938,0 -0.2539063,-0.1484375 -0.2539063,-0.375 0,-0.1328125 0.070312,-0.40625 0.1171875,-0.60546874 0.050781,-0.1992188 0.1679688,-0.6757813 0.1992188,-0.8203125 l 0.1601562,-0.6054688 c 0.039063,-0.1914062 0.1289063,-0.5234375 0.1289063,-0.5664062 0,-0.1835938 -0.1523438,-0.2460938 -0.2578125,-0.2460938 -0.1171875,0 -0.3164063,0.082031 -0.3554688,0.328125 z m -0.5429687,2.17578129 c -0.3984375,0.546875 -0.8125,0.71484375 -1.0664063,0.71484375 -0.3671875,0 -0.5507812,-0.33203125 -0.5507812,-0.74609375 0,-0.37499999 0.2148437,-1.23046879 0.390625,-1.57812499 0.2304687,-0.4882813 0.6210937,-0.8242188 0.9882812,-0.8242188 0.515625,0 0.6679688,0.5820313 0.6679688,0.6796875 0,0.03125 -0.1992188,0.8125 -0.2460938,1.0195313 -0.1054687,0.375 -0.1054687,0.390625 -0.1835937,0.73437499 z m 0,0" style="fill:#121619;fill-opacity:1;fill-rule:nonzero;stroke:none" />
      <path id="path19" d="M 8.6097396,1.800651 10.043333,-2.1915365 8.6097396,-6.183724 8.1331771,-6.0079427 9.5667708,-2.1915365 8.1331771,1.6248698 Z m 0,0" style="fill:#121619;fill-opacity:1;fill-rule:nonzero;stroke:none" />
    </g>
  </g>
</svg>