<svg width="40" height="40" viewBox="0 0 40 40" fill="none" xmlns="http://www.w3.org/2000/svg">
<rect width="40" height="40" fill="white"/>
<path d="M17.0177 17.1398C16.3737 16.5274 15.5166 16.1899 14.6279 16.1986C13.7393 16.2073 12.889 16.5617 12.2572 17.1865C11.6253 17.8114 11.2616 18.6577 11.2429 19.5462C11.2243 20.4346 11.5523 21.2954 12.1575 21.9462" stroke="#8D8D8D" stroke-width="0.72" stroke-linecap="round" stroke-linejoin="round"/>
<path d="M34.8348 34.9998L16.9854 17.1073" stroke="#8D8D8D" stroke-width="0.72" stroke-linejoin="round"/>
<path d="M31.5986 34.989L13.104 16.5696" stroke="#8D8D8D" stroke-width="0.72" stroke-linejoin="round"/>
<path d="M25.1794 35.0001L11.9858 21.7743" stroke="#8D8D8D" stroke-width="0.72" stroke-linejoin="round"/>
<path d="M28.3837 34.9787L11.5234 18.0754" stroke="#8D8D8D" stroke-width="0.72" stroke-linejoin="round"/>
<path d="M16.6844 11.4301C19.222 9.12903 20.9854 11.4946 20.9854 11.4301C20.9854 8.43011 19.308 7.75269 18.7274 7.60215L18.1682 7.51613C17.9262 6.92703 17.5598 6.3972 17.0939 5.96291C16.6281 5.52863 16.0739 5.20016 15.4693 5H12.2435C9.39403 5 7.1037 9.30108 7.1037 9.30108C3.50155 16.2581 4.72736 21.9785 9.15747 26.4839C11.7832 29.002 15.2063 30.5234 18.8349 30.785H21.1145" stroke="#8D8D8D" stroke-width="0.72" stroke-linejoin="round"/>
</svg>
