<?xml version='1.0' encoding='utf-8'?>
<svg xmlns="http://www.w3.org/2000/svg" xmlns:ns1="http://sodipodi.sourceforge.net/DTD/sodipodi-0.dtd" xmlns:ns2="http://www.inkscape.org/namespaces/inkscape" version="1.1" id="svg1" width="100%" height="auto" viewBox="-20.0 -20.0 246.59094 238.61426" ns1:docname="svg_fix_XXXXXX.svg">
  <rect id="path1" x="-20.0" y="-20.0" width="246.59094" height="238.61426" fill="white" /><ns1:namedview id="namedview1" pagecolor="#ffffff" bordercolor="#000000" borderopacity="0.25" ns2:showpageshadow="2" ns2:pageopacity="0.0" ns2:pagecheckerboard="0" ns2:deskcolor="#d1d1d1" />
  <defs id="defs1" />
  <g id="g1" transform="translate(-193.47937,-35.445313)">
    <path id="path2" d="M 48.18947,0 C 48.18947,26.61464 26.61464,48.18947 0,48.18947 -26.61464,48.18947 -48.18947,26.61464 -48.18947,0 c 0,-26.61464 21.57483,-48.18947 48.18947,-48.18947 26.61464,0 48.18947,21.57483 48.18947,48.18947 z" style="fill:none;stroke:#121619;stroke-width:0.3985;stroke-linecap:round;stroke-linejoin:miter;stroke-miterlimit:10;stroke-dasharray:none;stroke-opacity:1" transform="matrix(1.8,0,0,-1.8,280.57907,146.95987)" />
    <path id="path3" d="M -48.18947,0 H 48.18947" style="fill:none;stroke:#121619;stroke-width:0.3985;stroke-linecap:round;stroke-linejoin:miter;stroke-miterlimit:10;stroke-dasharray:0.3985, 0.99628;stroke-dashoffset:0;stroke-opacity:1" transform="matrix(1.8,0,0,-1.8,280.57907,146.95987)" />
    <path id="path4" d="M 0,-48.18947 V 48.18947" style="fill:none;stroke:#121619;stroke-width:0.3985;stroke-linecap:round;stroke-linejoin:miter;stroke-miterlimit:10;stroke-dasharray:0.3985, 0.99628;stroke-dashoffset:0;stroke-opacity:1" transform="matrix(1.8,0,0,-1.8,280.57907,146.95987)" />
    <g id="g4" aria-label="∣ψ&#10;0&#10;⟩" transform="matrix(1.8,0,0,1.8,372.47447,150.90547)">
      <path id="path5" d="m 1.1969109,-6.8745648 v 9.3663194 h 0.5034722 v -9.3663194 z m 0,0" style="fill:#121619;fill-opacity:1;fill-rule:nonzero;stroke:none" />
      <path id="path6" d="m 6.9456088,-5.268662 c 0.034722,-0.1128473 0.034722,-0.1215278 0.034722,-0.15625 0,-0.078125 -0.052083,-0.1041667 -0.1215278,-0.1041667 -0.1041666,0 -0.1128472,0.034722 -0.1388888,0.1649306 L 5.417831,-0.15581481 c -0.5642361,-0.0694444 -0.9548611,-0.3125 -0.9548611,-0.87673609 0,-0.15625 0,-0.3645834 0.4253472,-1.4236111 0.078125,-0.2170139 0.086806,-0.2864584 0.086806,-0.3819445 0,-0.4253472 -0.3559028,-0.6770833 -0.7204861,-0.6770833 -0.7899306,0 -1.1111111,1.1284722 -1.1111111,1.2239583 0,0.069444 0.052083,0.1041667 0.1128472,0.1041667 0.1041667,0 0.1128472,-0.052083 0.1388889,-0.1302083 0.2083333,-0.6944445 0.546875,-0.9722223 0.8333333,-0.9722223 0.1215278,0 0.1909722,0.078125 0.1909722,0.2604167 0,0.1822917 -0.069444,0.3732639 -0.1388889,0.546875 -0.4079861,1.0590278 -0.4079861,1.2239583 -0.4079861,1.3888889 0,0.75520832 0.6510417,1.10243054 1.484375,1.15451387 L 4.9924838,1.5195324 c 0,0.078125 0.060764,0.1041667 0.1215278,0.1041667 0.1041666,0 0.1128472,-0.026042 0.1649305,-0.1996528 0.034722,-0.1736111 0,-0.060764 0.3298611,-1.34548611 0.3298612,0 0.9375,0 1.71875,-0.73784723 0.3211806,-0.29513889 0.5034723,-0.62499996 0.5729167,-0.73784726 0.2604167,-0.5208333 0.3732639,-1.2152777 0.3732639,-1.5017361 0,-0.625 -0.3645833,-0.625 -0.390625,-0.625 -0.1909722,0 -0.4166667,0.2083334 -0.4166667,0.4166667 0,0.1302083 0.069445,0.1909722 0.1128473,0.2256944 0.078125,0.069444 0.3211805,0.2777778 0.3211805,0.6597223 0,0.6597222 -0.9027778,2.07465274 -2.2309028,2.07465274 z m 0,0" style="fill:#121619;fill-opacity:1;fill-rule:nonzero;stroke:none" />
      <path id="path7" d="m 11.726425,-0.47482523 c 0,-0.43402778 0,-2.06597227 -1.467014,-2.06597227 -1.467014,0 -1.467014,1.63194449 -1.467014,2.06597227 0,0.43402778 0,2.03125003 1.467014,2.03125003 1.467014,0 1.467014,-1.59722225 1.467014,-2.03125003 z M 10.259411,1.3654525 c -0.251736,0 -0.6597223,-0.1128472 -0.7986112,-0.6163194 -0.095486,-0.34722222 -0.095486,-0.92881944 -0.095486,-1.30208333 0,-0.39930556 0,-0.85937497 0.078125,-1.18055557 0.15625,-0.5381944 0.6076392,-0.6163194 0.8159722,-0.6163194 0.277778,0 0.668403,0.1302083 0.798611,0.5815972 0.09549,0.3211805 0.09549,0.7552083 0.09549,1.21527777 0,0.38194444 0,0.98958333 -0.09549,1.328125 C 10.884411,1.2873275 10.459064,1.3654525 10.259411,1.3654525 Z m 0,0" style="fill:#121619;fill-opacity:1;fill-rule:nonzero;stroke:none" />
      <path id="path8" d="m 13.803248,2.5785602 1.527777,-4.765625 -1.527777,-4.765625 -0.486111,0.15625 1.536458,4.609375 -1.536458,4.6006944 z m 0,0" style="fill:#121619;fill-opacity:1;fill-rule:nonzero;stroke:none" />
    </g>
    <g id="g8" aria-label="∣ψ&#10;π" transform="matrix(1.8,0,0,1.8,263.37107,47.961667)">
      <path id="path9" d="m 1.1979317,-6.8754051 v 9.3663195 h 0.5034722 v -9.3663195 z m 0,0" style="fill:#121619;fill-opacity:1;fill-rule:nonzero;stroke:none" />
      <path id="path10" d="m 6.9466296,-5.2695023 c 0.034722,-0.1128472 0.034722,-0.1215278 0.034722,-0.15625 0,-0.078125 -0.052083,-0.1041667 -0.1215278,-0.1041667 -0.1041667,0 -0.1128472,0.034722 -0.1388889,0.1649306 l -1.3020833,5.20833331 c -0.5642362,-0.0694444 -0.9548612,-0.3125 -0.9548612,-0.87673611 0,-0.15625 0,-0.3645833 0.4253473,-1.4236111 0.078125,-0.2170139 0.086805,-0.2864583 0.086805,-0.3819445 0,-0.4253472 -0.3559028,-0.6770833 -0.7204861,-0.6770833 -0.7899305,0 -1.1111111,1.1284722 -1.1111111,1.2239583 0,0.069444 0.052083,0.1041667 0.1128472,0.1041667 0.1041667,0 0.1128472,-0.052083 0.1388889,-0.1302083 0.2083333,-0.6944445 0.546875,-0.9722222 0.8333333,-0.9722222 0.1215278,0 0.1909723,0.078125 0.1909723,0.2604166 0,0.1822917 -0.069445,0.3732639 -0.1388889,0.546875 -0.4079861,1.0590278 -0.4079861,1.2239584 -0.4079861,1.3888889 0,0.75520834 0.6510416,1.10243056 1.484375,1.1545139 L 4.9935046,1.5186921 c 0,0.078125 0.060764,0.1041667 0.1215278,0.1041667 0.1041667,0 0.1128472,-0.026042 0.1649306,-0.1996528 0.034722,-0.1736111 0,-0.060764 0.3298611,-1.34548609 0.3298611,0 0.9375,0 1.71875,-0.73784722 0.3211805,-0.29513889 0.5034722,-0.62499999 0.5729166,-0.73784719 0.2604167,-0.5208334 0.3732639,-1.2152778 0.3732639,-1.5017361 0,-0.625 -0.3645833,-0.625 -0.390625,-0.625 -0.1909722,0 -0.4166666,0.2083333 -0.4166666,0.4166666 0,0.1302084 0.069444,0.1909722 0.1128472,0.2256945 0.078125,0.069444 0.3211805,0.2777777 0.3211805,0.6597222 0,0.6597222 -0.9027777,2.07465276 -2.2309027,2.07465276 z m 0,0" style="fill:#121619;fill-opacity:1;fill-rule:nonzero;stroke:none" />
      <path id="path11" d="m 13.146716,-2.9800058 c 0.08681,0 0.138889,0 0.208334,-0.052083 0.02604,-0.026042 0.07813,-0.095486 0.07813,-0.1649306 0,-0.15625 -0.14757,-0.15625 -0.234375,-0.15625 h -2.135417 c -0.112847,0 -0.338542,0 -0.63368,0.2430556 -0.130209,0.1215278 -0.355903,0.3732639 -0.355903,0.4340278 0,0.069444 0.06944,0.069444 0.104166,0.069444 0.06944,0 0.06944,0 0.104167,-0.043403 0.173611,-0.2170139 0.407986,-0.3298611 0.711806,-0.3298611 h 0.355902 c -0.182291,0.625 -0.434027,1.1458333 -0.607638,1.4583333 -0.07813,0.1302084 -0.07813,0.1388889 -0.07813,0.1909723 0,0.1128472 0.09549,0.1736111 0.190972,0.1736111 0.208333,0 0.277778,-0.2256945 0.399305,-0.6336806 0.112848,-0.3819444 0.199653,-0.7465278 0.3125,-1.1892361 h 0.651042 c -0.01736,0.078125 -0.15625,0.6163195 -0.15625,1.015625 0,0.3385417 0.121528,0.8072917 0.347222,0.8072917 0.112847,0 0.260417,-0.1128472 0.260417,-0.2430556 0,-0.052083 -0.02604,-0.078125 -0.06076,-0.1388889 -0.225694,-0.3732639 -0.225694,-0.8072916 -0.225694,-0.9027777 0,-0.1649306 0.02604,-0.3645834 0.05208,-0.5381945 z m 0,0" style="fill:#121619;fill-opacity:1;fill-rule:nonzero;stroke:none" />
    </g>
    <path id="path12" d="m 131.129,-54.945 h 4.319" style="fill:none;stroke:#121619;stroke-width:0.3347;stroke-linecap:butt;stroke-linejoin:miter;stroke-miterlimit:10;stroke-dasharray:none;stroke-opacity:1" transform="matrix(1.8,0,0,-1.8,44.674667,-51.315533)" />
    <g id="g12" aria-label="2&#10;⟩" transform="matrix(1.8,0,0,1.8,281.54387,55.064467)">
      <path id="path13" d="M 2.9335289,-0.96246412 H 2.7251956 c -0.017361,0.0954861 -0.060764,0.40798611 -0.1475694,0.45138889 -0.034722,0.0347222 -0.4513889,0.0347222 -0.5295139,0.0347222 H 1.0672095 c 0.3298611,-0.24305555 0.703125,-0.52083333 0.9982639,-0.72048607 0.4513889,-0.3125 0.8680555,-0.5989584 0.8680555,-1.1284722 0,-0.6423612 -0.5989583,-0.9895834 -1.3107639,-0.9895834 -0.67708329,0 -1.17187495,0.3819445 -1.17187495,0.8767361 0,0.2604167 0.21701389,0.3038195 0.29513889,0.3038195 0.13020833,0 0.28645836,-0.095486 0.28645836,-0.2951389 0,-0.1822917 -0.13020836,-0.2777778 -0.27777781,-0.2951389 0.13888889,-0.2256944 0.42534721,-0.3732639 0.75520831,-0.3732639 0.4861111,0 0.8940972,0.2864583 0.8940972,0.78125 0,0.4166667 -0.2951388,0.7291667 -0.6770833,1.0590278 l -1.21527776,1.03298608 c -0.0520833,0.0434028 -0.0520833,0.0434028 -0.0607639,0.078125 V 0.00107755 H 2.7685984 Z m 0,0" style="fill:#121619;fill-opacity:1;fill-rule:nonzero;stroke:none" />
      <path id="path14" d="M 6.7638241,-1.3682801 8.2916019,-6.1339051 6.7638241,-10.89953 6.277713,-10.74328 7.8141713,-6.1339051 6.277713,-1.5332106 Z m 0,0" style="fill:#121619;fill-opacity:1;fill-rule:nonzero;stroke:none" />
    </g>
    <path id="path15" d="M 0,0 H 48.19737" style="fill:none;stroke:#0f62fe;stroke-width:1.49442;stroke-linecap:round;stroke-linejoin:miter;stroke-miterlimit:10;stroke-dasharray:none;stroke-opacity:1" transform="matrix(1.8,0,0,-1.8,280.57907,146.95987)" />
    <path id="path16" d="M 0,0 V 48.19737" style="fill:none;stroke:#9f1853;stroke-width:1.49442;stroke-linecap:round;stroke-linejoin:miter;stroke-miterlimit:10;stroke-dasharray:none;stroke-opacity:1" transform="matrix(1.8,0,0,-1.8,280.57907,146.95987)" />
    <g id="g16" aria-label="∣ψ&#10;π" transform="matrix(1.8,0,0,1.8,365.87207,116.39767)">
      <path id="path17" d="m 1.1973762,-6.8745718 v 9.3663195 h 0.5034722 v -9.3663195 z m 0,0" style="fill:#121619;fill-opacity:1;fill-rule:nonzero;stroke:none" />
      <path id="path18" d="m 6.9460741,-5.268669 c 0.034722,-0.1128472 0.034722,-0.1215278 0.034722,-0.15625 0,-0.078125 -0.052083,-0.1041666 -0.1215278,-0.1041666 -0.1041666,0 -0.1128472,0.034722 -0.1388889,0.1649305 L 5.4182961,-0.15582176 C 4.85406,-0.22526616 4.463435,-0.46832176 4.463435,-1.0325579 c 0,-0.15625 0,-0.3645833 0.4253472,-1.4236111 0.078125,-0.2170139 0.086806,-0.2864583 0.086806,-0.3819444 0,-0.4253472 -0.3559028,-0.6770834 -0.7204861,-0.6770834 -0.7899306,0 -1.1111112,1.1284723 -1.1111112,1.2239584 0,0.069444 0.052083,0.1041666 0.1128473,0.1041666 0.1041666,0 0.1128472,-0.052083 0.1388889,-0.1302083 0.2083333,-0.6944444 0.546875,-0.9722222 0.8333333,-0.9722222 0.1215278,0 0.1909722,0.078125 0.1909722,0.2604167 0,0.1822916 -0.069444,0.3732638 -0.1388889,0.546875 -0.4079861,1.0590277 -0.4079861,1.2239583 -0.4079861,1.3888888 0,0.75520837 0.6510417,1.1024306 1.484375,1.15451393 L 4.9929491,1.5195255 c 0,0.078125 0.060764,0.1041666 0.1215278,0.1041666 0.1041666,0 0.1128472,-0.026042 0.1649305,-0.1996527 0.034722,-0.1736112 0,-0.060764 0.3298611,-1.34548616 0.3298611,0 0.9375,0 1.71875,-0.73784722 0.3211806,-0.29513889 0.5034722,-0.62500002 0.5729167,-0.73784722 0.2604167,-0.5208333 0.3732639,-1.2152778 0.3732639,-1.5017361 0,-0.625 -0.3645834,-0.625 -0.390625,-0.625 -0.1909722,0 -0.4166667,0.2083333 -0.4166667,0.4166667 0,0.1302083 0.069444,0.1909722 0.1128472,0.2256944 0.078125,0.069444 0.3211806,0.2777778 0.3211806,0.6597222 0,0.6597222 -0.9027778,2.0746528 -2.2309028,2.0746528 z m 0,0" style="fill:#121619;fill-opacity:1;fill-rule:nonzero;stroke:none" />
      <path id="path19" d="m 13.146161,-2.9791725 c 0.08681,0 0.138889,0 0.208333,-0.052083 0.02604,-0.026042 0.07813,-0.095486 0.07813,-0.1649305 0,-0.15625 -0.147569,-0.15625 -0.234375,-0.15625 h -2.135416 c -0.112848,0 -0.338542,0 -0.633681,0.2430555 -0.130208,0.1215278 -0.355903,0.3732639 -0.355903,0.4340278 0,0.069444 0.06944,0.069444 0.104167,0.069444 0.06944,0 0.06944,0 0.104167,-0.043403 0.173611,-0.2170139 0.407986,-0.3298612 0.711805,-0.3298612 h 0.355903 c -0.182292,0.625 -0.434028,1.1458334 -0.607639,1.4583334 -0.07813,0.1302083 -0.07813,0.1388889 -0.07813,0.1909722 0,0.1128472 0.09549,0.1736111 0.190972,0.1736111 0.208334,0 0.277778,-0.2256944 0.399306,-0.6336805 0.112847,-0.3819445 0.199653,-0.7465278 0.3125,-1.1892362 h 0.651041 c -0.01736,0.078125 -0.15625,0.6163195 -0.15625,1.015625 0,0.3385417 0.121528,0.8072917 0.347223,0.8072917 0.112847,0 0.260416,-0.1128472 0.260416,-0.2430555 0,-0.052083 -0.02604,-0.078125 -0.06076,-0.1388889 -0.225694,-0.3732639 -0.225694,-0.8072917 -0.225694,-0.9027778 0,-0.1649306 0.02604,-0.3645833 0.05208,-0.5381945 z m 0,0" style="fill:#121619;fill-opacity:1;fill-rule:nonzero;stroke:none" />
    </g>
    <path id="path20" d="m 131.129,-54.945 h 4.319" style="fill:none;stroke:#121619;stroke-width:0.3347;stroke-linecap:butt;stroke-linejoin:miter;stroke-miterlimit:10;stroke-dasharray:none;stroke-opacity:1" transform="matrix(1.8,0,0,-1.8,147.17567,17.120467)" />
    <g id="g20" aria-label="8&#10;⟩" transform="matrix(1.8,0,0,1.8,384.04487,123.50047)">
      <path id="path21" d="m 2.1343623,-1.7971343 c 0.5121527,-0.2170138 0.6770833,-0.4774305 0.6770833,-0.7638888 0,-0.5208334 -0.5729167,-0.7552084 -1.1111111,-0.7552084 -0.6163195,0 -1.12847223,0.3472222 -1.12847223,0.8420139 0,0.4600695 0.390625,0.6684028 0.65104163,0.7986111 -0.52951385,0.2083334 -0.82465274,0.5034722 -0.82465274,0.91145835 0,0.59027778 0.65972224,0.87673611 1.29340274,0.87673611 0.6944445,0 1.2934028,-0.37326389 1.2934028,-0.96354166 0,-0.546875 -0.5121528,-0.7986111 -0.8506944,-0.9461806 z M 1.16214,-2.309287 C 0.94512616,-2.4134537 0.88436227,-2.543662 0.88436227,-2.6651898 c 0,-0.3211806 0.40798613,-0.4600695 0.80729163,-0.4600695 0.3993056,0 0.8159723,0.1909723 0.8159723,0.5729167 0,0.4340278 -0.5729167,0.6423611 -0.5729167,0.6423611 -0.00868,0 -0.00868,0 -0.060764,-0.026042 z m 0.2777778,0.7465277 0.7725695,0.390625 c 0.1822916,0.095486 0.4340277,0.23437504 0.4340277,0.50347226 0,0.39930556 -0.5034722,0.57291667 -0.9461805,0.57291667 -0.4513889,0 -0.95486112,-0.22569444 -0.95486112,-0.67708333 0,-0.4947917 0.53819442,-0.7204861 0.69444442,-0.7899306 z m 0,0" style="fill:#121619;fill-opacity:1;fill-rule:nonzero;stroke:none" />
      <path id="path22" d="m 6.7632685,-1.3674468 1.5277778,-4.765625 -1.5277778,-4.7656252 -0.4861111,0.15625 1.5364583,4.6093752 -1.5364583,4.6006945 z m 0,0" style="fill:#121619;fill-opacity:1;fill-rule:nonzero;stroke:none" />
    </g>
    <g id="g22" aria-label="∣ψ&#10;5π" transform="matrix(1.8,0,0,1.8,210.39347,52.873867)">
      <path id="path23" d="m 1.1985081,-6.8743704 v 9.3663195 h 0.5034722 v -9.3663195 z m 0,0" style="fill:#121619;fill-opacity:1;fill-rule:nonzero;stroke:none" />
      <path id="path24" d="m 6.947206,-5.2684676 c 0.034722,-0.1128472 0.034722,-0.1215278 0.034722,-0.15625 0,-0.078125 -0.052083,-0.1041667 -0.1215277,-0.1041667 -0.1041667,0 -0.1128473,0.034722 -0.1388889,0.1649306 L 5.419428,-0.15562037 c -0.5642361,-0.0694444 -0.9548611,-0.3125 -0.9548611,-0.87673613 0,-0.15625 0,-0.3645833 0.4253473,-1.4236111 0.078125,-0.2170139 0.086805,-0.2864583 0.086805,-0.3819444 0,-0.4253473 -0.3559028,-0.6770834 -0.7204861,-0.6770834 -0.7899306,0 -1.1111111,1.1284723 -1.1111111,1.2239584 0,0.069444 0.052083,0.1041666 0.1128472,0.1041666 0.1041667,0 0.1128472,-0.052083 0.1388889,-0.1302083 0.2083333,-0.6944444 0.546875,-0.9722222 0.8333333,-0.9722222 0.1215278,0 0.1909723,0.078125 0.1909723,0.2604166 0,0.1822917 -0.069445,0.3732639 -0.1388889,0.546875 -0.4079861,1.0590278 -0.4079861,1.2239584 -0.4079861,1.3888889 0,0.75520836 0.6510416,1.10243059 1.484375,1.15451392 L 4.994081,1.5197269 c 0,0.078125 0.060764,0.1041666 0.1215278,0.1041666 0.1041667,0 0.1128472,-0.026042 0.1649306,-0.1996528 0.034722,-0.1736111 0,-0.060764 0.3298611,-1.34548607 0.3298611,0 0.9375,0 1.71875,-0.73784722 C 7.650331,-0.95423148 7.8326227,-1.2840926 7.9020671,-1.3969398 8.1624838,-1.9177731 8.275331,-2.6122176 8.275331,-2.8986759 c 0,-0.625 -0.3645833,-0.625 -0.390625,-0.625 -0.1909722,0 -0.4166666,0.2083333 -0.4166666,0.4166666 0,0.1302084 0.069444,0.1909723 0.1128472,0.2256945 0.078125,0.069444 0.3211805,0.2777778 0.3211805,0.6597222 0,0.6597222 -0.9027777,2.07465279 -2.2309027,2.07465279 z m 0,0" style="fill:#121619;fill-opacity:1;fill-rule:nonzero;stroke:none" />
      <path id="path25" d="m 10.612571,-3.0136933 c 0.260416,0.060764 0.486111,0.060764 0.538194,0.060764 0.338542,0 0.590278,-0.095486 0.720486,-0.1649306 0.121528,-0.060764 0.46007,-0.2777777 0.46007,-0.390625 0,-0.069444 -0.06076,-0.078125 -0.06944,-0.078125 -0.01736,0 -0.02604,0 -0.07813,0.026042 -0.190972,0.060764 -0.503472,0.1302083 -0.824653,0.1302083 -0.286458,0 -0.564236,-0.052083 -0.824652,-0.1388888 -0.05208,-0.017361 -0.06944,-0.017361 -0.07813,-0.017361 -0.06944,0 -0.06944,0.060764 -0.06944,0.1388889 v 1.4930556 c 0,0.086805 0,0.1475694 0.09549,0.1475694 0.05208,0 0.06076,-0.00868 0.104167,-0.060764 0.190972,-0.2256944 0.451389,-0.3298611 0.78993,-0.3298611 0.295139,0 0.451389,0.1649306 0.520834,0.2690973 0.112847,0.1736111 0.138889,0.3993055 0.138889,0.6336805 0,0.2083333 -0.01736,0.49479168 -0.208334,0.6857639 -0.225694,0.22569445 -0.512152,0.24305556 -0.625,0.24305556 -0.32118,0 -0.685764,-0.13888889 -0.842014,-0.43402778 0.208334,-0.0173611 0.286459,-0.16493056 0.286459,-0.27777778 0,-0.15625 -0.121528,-0.2777778 -0.286459,-0.2777778 -0.104166,0 -0.277777,0.060764 -0.277777,0.2951389 0,0.48611112 0.47743,0.90277779 1.137152,0.90277779 0.737848,0 1.345487,-0.50347222 1.345487,-1.11979169 0,-0.5642361 -0.486112,-1.0850694 -1.171875,-1.0850694 -0.321181,0 -0.572917,0.078125 -0.78125,0.2430555 z m 0,0" style="fill:#121619;fill-opacity:1;fill-rule:nonzero;stroke:none" />
      <path id="path26" d="m 16.53705,-2.0414711 c 0.0868,0 0.138889,0 0.208333,-0.052083 0.02604,-0.026042 0.07813,-0.095486 0.07813,-0.1649306 0,-0.15625 -0.147569,-0.15625 -0.234375,-0.15625 h -2.135417 c -0.112847,0 -0.338541,0 -0.63368,0.2430556 -0.130208,0.1215278 -0.355903,0.3732639 -0.355903,0.4340278 0,0.069444 0.06944,0.069444 0.104167,0.069444 0.06944,0 0.06944,0 0.104166,-0.043403 0.173612,-0.2170138 0.407987,-0.3298611 0.711806,-0.3298611 h 0.355903 c -0.182292,0.625 -0.434028,1.14583337 -0.607639,1.45833337 -0.07813,0.13020833 -0.07813,0.13888889 -0.07813,0.19097222 0,0.11284722 0.09549,0.17361111 0.190972,0.17361111 0.208333,0 0.277778,-0.22569444 0.399306,-0.63368055 0.112847,-0.38194445 0.199652,-0.74652775 0.3125,-1.18923615 h 0.651041 c -0.01736,0.078125 -0.15625,0.6163195 -0.15625,1.015625 0,0.3385417 0.121528,0.8072917 0.347223,0.8072917 0.112847,0 0.260416,-0.11284722 0.260416,-0.24305555 0,-0.0520833 -0.02604,-0.078125 -0.06076,-0.13888889 -0.225694,-0.37326389 -0.225694,-0.80729166 -0.225694,-0.90277776 0,-0.1649306 0.02604,-0.3645834 0.05208,-0.5381945 z m 0,0" style="fill:#121619;fill-opacity:1;fill-rule:nonzero;stroke:none" />
    </g>
    <path id="path27" d="m 131.129,-55.883 h 7.709" style="fill:none;stroke:#121619;stroke-width:0.3347;stroke-linecap:butt;stroke-linejoin:miter;stroke-miterlimit:10;stroke-dasharray:none;stroke-opacity:1" transform="matrix(1.8,0,0,-1.8,-8.3029333,-46.403333)" />
    <g id="g27" aria-label="8&#10;⟩" transform="matrix(1.8,0,0,1.8,231.61727,61.666867)">
      <path id="path28" d="m 2.1353727,-1.7962627 c 0.5121528,-0.2170139 0.6770833,-0.4774306 0.6770833,-0.7638889 0,-0.5208334 -0.5729166,-0.7552084 -1.1111111,-0.7552084 -0.6163194,0 -1.12847221,0.3472223 -1.12847221,0.8420139 0,0.4600695 0.390625,0.6684028 0.65104171,0.7986111 -0.52951394,0.2083334 -0.82465283,0.5034723 -0.82465283,0.91145838 0,0.59027778 0.65972223,0.87673611 1.29340283,0.87673611 0.6944444,0 1.2934027,-0.37326389 1.2934027,-0.96354167 0,-0.54687502 -0.5121527,-0.79861112 -0.8506944,-0.94618052 z M 1.1631505,-2.3084155 c -0.21701393,-0.1041667 -0.27777781,-0.234375 -0.27777781,-0.3559028 0,-0.3211805 0.40798611,-0.4600694 0.80729171,-0.4600694 0.3993055,0 0.8159722,0.1909722 0.8159722,0.5729166 0,0.4340278 -0.5729167,0.6423611 -0.5729167,0.6423611 -0.00868,0 -0.00868,0 -0.060764,-0.026042 z m 0.2777777,0.7465278 0.7725695,0.390625 c 0.1822917,0.095486 0.4340278,0.23437497 0.4340278,0.50347219 0,0.39930556 -0.5034723,0.57291667 -0.9461806,0.57291667 -0.4513889,0 -0.9548611,-0.22569445 -0.9548611,-0.67708334 0,-0.49479162 0.5381944,-0.72048612 0.6944444,-0.78993052 z m 0,0" style="fill:#121619;fill-opacity:1;fill-rule:nonzero;stroke:none" />
      <path id="path29" d="m 8.4591574,-2.3062454 1.5277778,-4.765625 -1.5277778,-4.7656246 -0.4861111,0.15625 1.5364583,4.6093746 -1.5364583,4.6006945 z m 0,0" style="fill:#121619;fill-opacity:1;fill-rule:nonzero;stroke:none" />
    </g>
    <path id="path30" d="M 0,0 44.52979,18.44537" style="fill:none;stroke:#0f62fe;stroke-width:1.49442;stroke-linecap:round;stroke-linejoin:miter;stroke-miterlimit:10;stroke-dasharray:none;stroke-opacity:1" transform="matrix(1.8,0,0,-1.8,280.57907,146.95987)" />
    <path id="path31" d="M 0,0 -18.44537,44.52979" style="fill:none;stroke:#9f1853;stroke-width:1.49442;stroke-linecap:round;stroke-linejoin:miter;stroke-miterlimit:10;stroke-dasharray:none;stroke-opacity:1" transform="matrix(1.8,0,0,-1.8,280.57907,146.95987)" />
  </g>
</svg>