<?xml version='1.0' encoding='utf-8'?>
<svg xmlns="http://www.w3.org/2000/svg" xmlns:ns1="http://sodipodi.sourceforge.net/DTD/sodipodi-0.dtd" xmlns:ns2="http://www.inkscape.org/namespaces/inkscape" version="1.1" id="svg1" width="100%" height="auto" viewBox="-20.0 -20.0 483.3125 212.20334" ns1:docname="svg_fix_XXXXXX.svg">
  <rect id="path1" x="-20.0" y="-20.0" width="483.3125" height="212.20334" fill="white" /><ns1:namedview id="namedview1" pagecolor="#ffffff" bordercolor="#000000" borderopacity="0.25" ns2:showpageshadow="2" ns2:pageopacity="0.0" ns2:pagecheckerboard="0" ns2:deskcolor="#d1d1d1" />
  <defs id="defs1" />
  <g id="g1" transform="translate(-78.742188,-34.953124)">
    <path id="path2" d="M -138.89917,14.17339 H 82.20555" style="fill:none;stroke:#e7e8e8;stroke-width:0.79701;stroke-linecap:butt;stroke-linejoin:miter;stroke-miterlimit:10;stroke-dasharray:none;stroke-opacity:1" transform="matrix(1.6666667,0,0,-1.6666667,356.61667,145.40633)" />
    <path id="path3" d="m -43.93753,48.18958 h 17.00806 v 17.00806 h -17.00806 z" style="fill:#000000;fill-opacity:1;fill-rule:nonzero;stroke:#000000;stroke-width:0.3985;stroke-linecap:butt;stroke-linejoin:miter;stroke-miterlimit:10;stroke-dasharray:none;stroke-opacity:1" transform="matrix(1.6666667,0,0,-1.6666667,356.61667,145.40633)" />
    <path id="path4" d="m -29.76422,54.1425 c 0,3.13114 -2.53822,5.66936 -5.66934,5.66936 -3.13114,0 -5.66936,-2.53822 -5.66936,-5.66936" style="fill:none;stroke:#ffffff;stroke-width:0.79701;stroke-linecap:butt;stroke-linejoin:miter;stroke-miterlimit:10;stroke-dasharray:none;stroke-opacity:1" transform="matrix(1.6666667,0,0,-1.6666667,356.61667,145.40633)" />
    <path id="path5" d="m -35.43349,54.42583 5.66927,4.81891" style="fill:none;stroke:#ffffff;stroke-width:0.79701;stroke-linecap:butt;stroke-linejoin:miter;stroke-miterlimit:10;stroke-dasharray:none;stroke-opacity:1" transform="matrix(1.6666667,0,0,-1.6666667,356.61667,145.40633)" />
    <path id="path6" d="m -34.5831,54.42583 c 0,0.46967 -0.38072,0.8504 -0.85039,0.8504 -0.46966,0 -0.8504,-0.38073 -0.8504,-0.8504 0,-0.46967 0.38074,-0.85041 0.8504,-0.85041 0.46967,0 0.85039,0.38074 0.85039,0.85041 z" style="fill:#ffffff;fill-opacity:1;fill-rule:nonzero;stroke:none" transform="matrix(1.6666667,0,0,-1.6666667,356.61667,145.40633)" />
    <path id="path7" d="m -43.93753,19.84277 h 17.00806 v 17.00806 h -17.00806 z" style="fill:#000000;fill-opacity:1;fill-rule:nonzero;stroke:#000000;stroke-width:0.3985;stroke-linecap:butt;stroke-linejoin:miter;stroke-miterlimit:10;stroke-dasharray:none;stroke-opacity:1" transform="matrix(1.6666667,0,0,-1.6666667,356.61667,145.40633)" />
    <path id="path8" d="m -29.76422,25.7957 c 0,3.13112 -2.53822,5.66934 -5.66934,5.66934 -3.13114,0 -5.66936,-2.53822 -5.66936,-5.66934" style="fill:none;stroke:#ffffff;stroke-width:0.79701;stroke-linecap:butt;stroke-linejoin:miter;stroke-miterlimit:10;stroke-dasharray:none;stroke-opacity:1" transform="matrix(1.6666667,0,0,-1.6666667,356.61667,145.40633)" />
    <path id="path9" d="m -35.43349,26.07901 5.66927,4.81891" style="fill:none;stroke:#ffffff;stroke-width:0.79701;stroke-linecap:butt;stroke-linejoin:miter;stroke-miterlimit:10;stroke-dasharray:none;stroke-opacity:1" transform="matrix(1.6666667,0,0,-1.6666667,356.61667,145.40633)" />
    <path id="path10" d="m -34.5831,26.07901 c 0,0.46967 -0.38072,0.8504 -0.85039,0.8504 -0.46966,0 -0.8504,-0.38073 -0.8504,-0.8504 0,-0.46967 0.38074,-0.85039 0.8504,-0.85039 0.46967,0 0.85039,0.38072 0.85039,0.85039 z" style="fill:#ffffff;fill-opacity:1;fill-rule:nonzero;stroke:none" transform="matrix(1.6666667,0,0,-1.6666667,356.61667,145.40633)" />
    <path id="path11" d="m -117.61821,56.69362 h 73.48143" style="fill:none;stroke:#121619;stroke-width:0.3985;stroke-linecap:butt;stroke-linejoin:miter;stroke-miterlimit:10;stroke-dasharray:none;stroke-opacity:1" transform="matrix(1.6666667,0,0,-1.6666667,356.61667,145.40633)" />
    <path id="path12" d="M -138.87834,-28.3468 H 82.18471" style="fill:none;stroke:#121619;stroke-width:0.3985;stroke-linecap:butt;stroke-linejoin:miter;stroke-miterlimit:10;stroke-dasharray:none;stroke-opacity:1" transform="matrix(1.6666667,0,0,-1.6666667,356.61667,145.40633)" />
    <path id="path13" d="m -138.87834,28.3468 h 94.74156" style="fill:none;stroke:#121619;stroke-width:0.3985;stroke-linecap:butt;stroke-linejoin:miter;stroke-miterlimit:10;stroke-dasharray:none;stroke-opacity:1" transform="matrix(1.6666667,0,0,-1.6666667,356.61667,145.40633)" />
    <path id="path14" d="M -8.50403,-36.85083 H 8.50403 v 17.00806 H -8.50403 Z" style="fill:#78a9ff;fill-opacity:1;fill-rule:nonzero;stroke:#78a9ff;stroke-width:0.3985;stroke-linecap:butt;stroke-linejoin:miter;stroke-miterlimit:10;stroke-dasharray:none;stroke-opacity:1" transform="matrix(1.6666667,0,0,-1.6666667,356.61667,145.40633)" />
    <path id="path15" d="m 4.163625,-3.0458312 c 0.384375,-0.384375 1.509375,-1.546875 1.70625,-1.70625 0.328125,-0.253125 0.534375,-0.39375 1.10625,-0.43125 0.046875,0 0.1125,-0.046875 0.1125,-0.15 0,-0.065625 -0.075,-0.1125 -0.1125,-0.1125 -0.084375,0 -0.13125,0.028125 -0.75,0.028125 -0.6,0 -0.815625,-0.028125 -0.853125,-0.028125 -0.028125,0 -0.159375,0 -0.159375,0.159375 0,0 0,0.103125 0.121875,0.103125 0.05625,0.00937 0.271875,0.028125 0.271875,0.215625 0,0.05625 -0.0375,0.140625 -0.103125,0.20625 l -0.01875,0.0375 c -0.028125,0.01875 -0.028125,0.0375 -0.103125,0.1125 l -1.33125,1.340625 -0.815625,-1.6875 c 0.1125,-0.1875 0.35625,-0.215625 0.45,-0.225 0.0375,0 0.15,0 0.15,-0.140625 0,-0.065625 -0.05625,-0.121875 -0.13125,-0.121875 -0.075,0 -0.384375,0.01875 -0.459375,0.01875 -0.046875,0.00938 -0.346875,0.00938 -0.50625,0.00938 -0.740625,0 -0.84375,-0.028125 -0.909375,-0.028125 -0.0375,0 -0.159375,0 -0.159375,0.159375 0,0.103125 0.103125,0.103125 0.225,0.103125 0.403125,0 0.46875,0.084375 0.54375,0.234375 l 1.059375,2.23125 -1.63125,1.66875 c -0.478125,0.47812495 -0.853125,0.75937495 -1.415625,0.78749995 -0.103125,0.009375 -0.196875,0.009375 -0.196875,0.15 0,0.046875 0.0375,0.1125 0.121875,0.1125 0.05625,0 0.140625,-0.028125 0.75,-0.028125 0.571875,0 0.815625,0.028125 0.853125,0.028125 0.0375,0 0.159375,0 0.159375,-0.15 0,-0.01875 -0.00938,-0.103125 -0.13125,-0.1125 -0.15,-0.009375 -0.2625,-0.065625 -0.2625,-0.20625 0,-0.13125 0.09375,-0.234375 0.215625,-0.35625 0.140625,-0.15 0.553125,-0.56249995 0.834375,-0.84374995 0.1875,-0.178125 0.6375,-0.646875 0.815625,-0.815625 l 0.91875,1.90312495 c 0.0375,0.075 0.0375,0.084375 0.0375,0.09375 0,0.075 -0.16875,0.20625 -0.43125,0.225 -0.05625,0 -0.159375,0.009375 -0.159375,0.15 0,0.009375 0.00937,0.1125 0.140625,0.1125 0.075,0 0.375,-0.01875 0.45,-0.028125 H 5.073 c 0.740625,0 0.853125,0.028125 0.91875,0.028125 0.0375,0 0.15,0 0.15,-0.15 0,-0.1125 -0.103125,-0.1125 -0.215625,-0.1125 -0.43125,0 -0.478125,-0.09375 -0.534375,-0.215625 z m 0,0" style="fill:#ffffff;fill-opacity:1;fill-rule:nonzero;stroke:none" aria-label="X" transform="matrix(1.6666667,0,0,1.6666667,350.295,197.18967)" />
    <path id="path16" d="m 19.84277,-36.85083 h 17.00806 v 17.00806 H 19.84277 Z" style="fill:#78a9ff;fill-opacity:1;fill-rule:nonzero;stroke:#78a9ff;stroke-width:0.3985;stroke-linecap:butt;stroke-linejoin:miter;stroke-miterlimit:10;stroke-dasharray:none;stroke-opacity:1" transform="matrix(1.6666667,0,0,-1.6666667,356.61667,145.40633)" />
    <path id="path17" d="m 5.91525,-5.1364562 c 0.065625,-0.065625 0.1125,-0.121875 0.1125,-0.215625 0,-0.09375 -0.065625,-0.09375 -0.215625,-0.09375 H 2.259 c -0.20625,0 -0.215625,0.00937 -0.2625,0.159375 l -0.440625,1.425 c -0.00937,0.028125 -0.028125,0.075 -0.028125,0.1125 0,0.01875 0.00938,0.1125 0.121875,0.1125 0.084375,0 0.103125,-0.028125 0.15,-0.1875 0.384375,-1.0875 1.003125,-1.359375 1.978125,-1.359375 H 5.155875 L 0.609,-0.29895625 c -0.065625,0.065625 -0.1125,0.1125 -0.1125,0.215625 0,0.084375 0.065625,0.084375 0.215625,0.084375 h 3.675 c 0.20625,0 0.215625,-0.009375 0.2625,-0.159375 l 0.5625,-1.74374995 c 0.028125,-0.103125 0.028125,-0.121875 0.028125,-0.13125 0,-0.00937 -0.00937,-0.1125 -0.1125,-0.1125 -0.05625,0 -0.075,0.028125 -0.084375,0.0375 -0.01875,0.00937 -0.028125,0.028125 -0.0375,0.046875 -0.01875,0.046875 -0.01875,0.065625 -0.084375,0.234375 -0.35625,1.07812495 -0.815625,1.53749995 -2.08125,1.53749995 H 1.387125 Z m 0,0" style="fill:#ffffff;fill-opacity:1;fill-rule:nonzero;stroke:none" aria-label="Z" transform="matrix(1.6666667,0,0,1.6666667,398.61,197.18967)" />
    <g id="g17" aria-label="∣ϕ&#10;+&#10;⟩&#10;⎧&#10;⎪&#10;⎪&#10;⎪&#10;⎪&#10;⎪&#10;⎪&#10;⎪&#10;⎪&#10;⎪&#10;⎪&#10;⎪&#10;⎨&#10;⎪&#10;⎪&#10;⎪&#10;⎪&#10;⎪&#10;⎪&#10;⎪&#10;⎪&#10;⎪&#10;⎪&#10;⎪&#10;⎩" transform="matrix(1.6666667,0,0,1.6666667,76.741667,150.698)">
      <path id="path18" d="m 1.2003125,-6.0930187 v 7.809375 h 0.50625 v -7.809375 z m 0,0" style="fill:#121619;fill-opacity:1;fill-rule:nonzero;stroke:none" />
      <path id="path19" d="m 6.58625,-5.4273937 c 0,-0.09375 -0.09375,-0.103125 -0.13125,-0.103125 -0.103125,0 -0.1125,0.046875 -0.140625,0.178125 L 5.855,-3.5336437 c -1.40625,0.065625 -2.55,1.125 -2.55,2.165625 0,0.79687495 0.69375,1.41562495 1.640625,1.45312495 -0.05625,0.253125 -0.1125,0.50625 -0.178125,0.75 C 4.67375,1.2101063 4.59875,1.5101063 4.59875,1.5288563 c 0,0.00938 0,0.09375 0.121875,0.09375 0.103125,0 0.1125,-0.0375 0.15,-0.1875 l 0.3375,-1.34062505 c 1.40625,-0.065625 2.540625,-1.11562495 2.540625,-2.14687495 0,-0.91875 -0.80625,-1.434375 -1.63125,-1.471875 z m -0.525,2.11875 c 0.590625,0.046875 1.115625,0.365625 1.115625,1.10625 0,0.759375 -0.54375,1.93124995 -1.9125,2.07187495 z M 5.001875,-0.13051875 C 4.74875,-0.13989375 3.88625,-0.27114375 3.88625,-1.2367687 c 0,-0.853125 0.6375,-1.940625 1.9125,-2.0625 z m 0,0" style="fill:#121619;fill-opacity:1;fill-rule:nonzero;stroke:none" />
      <path id="path20" d="m 9.8932813,-7.4055187 v 1.425 H 8.4682812 v 0.384375 h 1.4250001 v 1.425 h 0.3843747 v -1.425 h 1.425 v -0.384375 h -1.425 v -1.425 z m 0,0" style="fill:#121619;fill-opacity:1;fill-rule:nonzero;stroke:none" />
      <path id="path21" d="m 13.945625,1.8007313 1.434375,-3.99375 -1.434375,-3.99375 -0.478125,0.178125 1.434375,3.815625 -1.434375,3.815625 z m 7.474219,-36.2648433 v -0.421875 c -0.984375,0 -1.884375,0.665625 -1.884375,1.603125 v 3.3375 h 0.50625 v -3.346875 c 0,-0.684375 0.65625,-1.171875 1.378125,-1.171875 z m -1.884375,3.9375 v 2.85 h 0.50625 v -2.85 z m 0,2.341406 v 2.85 h 0.50625 v -2.85 z m 0,2.34375 v 2.85 h 0.50625 v -2.85 z m 0,2.34375 v 2.85 h 0.50625 v -2.85 z m 0,2.34375 v 2.85 h 0.50625 v -2.85 z m 0,2.341406 v 2.85 h 0.50625 v -2.85 z m 0,2.34375 v 2.85 h 0.50625 v -2.85 z m 0,2.34375 v 2.85 h 0.50625 v -2.85 z m 0,2.34375 v 2.85 h 0.50625 v -2.85 z m 0,2.3414063 v 2.85 h 0.50625 v -2.85 z m 0,2.34375 v 2.85 h 0.50625 v -2.85 z m 0.50625,2.34375 h -0.50625 v 1.25625 c 0,0.6375 -0.609375,1.078125 -1.284375,1.115625 h -0.08437 v 0.459375 c 0.7125,0 1.36875,0.440625 1.36875,1.11562495 v 1.246875 h 0.50625 v -1.25625 c 0,-0.59999995 -0.35625,-1.06874995 -0.88125,-1.34062495 0.525,-0.2625 0.88125,-0.75 0.88125,-1.340625 z m -0.50625,4.6101562 v 2.85 h 0.50625 v -2.85 z m 0,2.34375 v 2.85 h 0.50625 v -2.85 z m 0,2.34375 v 2.85 h 0.50625 v -2.85 z m 0,2.34375 v 2.85 h 0.50625 v -2.85 z m 0,2.3414063 v 2.8500002 h 0.50625 V 9.2304188 Z m 0,2.3437502 v 2.85 h 0.50625 v -2.85 z m 0,2.34375 v 2.85 h 0.50625 v -2.85 z m 0,2.34375 v 2.85 h 0.50625 v -2.85 z m 0,2.34375 v 2.85 h 0.50625 v -2.85 z m 0,2.341406 v 2.85 h 0.50625 v -2.85 z m 0,2.34375 v 2.85 h 0.50625 v -2.85 z m 1.884375,7.284375 v -0.421875 c -0.721875,0 -1.378125,-0.4875 -1.378125,-1.171875 v -3.346875 h -0.50625 V 28.9812 c 0,0.9375 0.9,1.59375 1.884375,1.59375 z m 0,0" style="fill:#121619;fill-opacity:1;fill-rule:nonzero;stroke:none" />
    </g>
    <g id="g21" aria-label="∣ψ⟩" transform="matrix(1.6666667,0,0,1.6666667,130.89833,54.569667)">
      <path id="path22" d="m 1.2000625,-6.0933625 v 7.809375 h 0.50625 v -7.809375 z m 0,0" style="fill:#121619;fill-opacity:1;fill-rule:nonzero;stroke:none" />
      <path id="path23" d="m 6.951625,-5.2683625 c 0.028125,-0.1125 0.028125,-0.121875 0.028125,-0.159375 0,-0.075 -0.05625,-0.103125 -0.121875,-0.103125 -0.103125,0 -0.103125,0.028125 -0.140625,0.16875 l -1.29375,5.203125 c -0.571875,-0.065625 -0.95625,-0.309375 -0.95625,-0.88125 0,-0.15 0,-0.35625 0.421875,-1.415625 0.075,-0.215625 0.084375,-0.28125 0.084375,-0.384375 0,-0.43125 -0.346875,-0.675 -0.7125,-0.675 -0.796875,0 -1.115625,1.125 -1.115625,1.21875 0,0.075 0.046875,0.103125 0.1125,0.103125 0.103125,0 0.1125,-0.046875 0.140625,-0.121875 0.20625,-0.69375 0.54375,-0.975 0.834375,-0.975 0.121875,0 0.1875,0.075 0.1875,0.2625 0,0.1875 -0.065625,0.375 -0.140625,0.54375 -0.403125,1.059375 -0.403125,1.228125 -0.403125,1.396875 0,0.75 0.646875,1.096875 1.48125,1.153125 l -0.35625,1.453125 c 0,0.075 0.05625,0.103125 0.1125,0.103125 0.103125,0 0.1125,-0.028125 0.159375,-0.196875 0.046875,-0.178125 0.00937,-0.065625 0.3375,-1.340625 0.328125,0 0.9375,0 1.725,-0.75 0.31875,-0.290625 0.496875,-0.61875 0.5625,-0.73125 0.2625,-0.525 0.375,-1.21875 0.375,-1.5 0,-0.628125 -0.35625,-0.628125 -0.39375,-0.628125 -0.1875,0 -0.4125,0.20625 -0.4125,0.4125 0,0.13125 0.075,0.196875 0.1125,0.225 0.075,0.075 0.31875,0.28125 0.31875,0.665625 0,0.65625 -0.9,2.08125 -2.23125,2.08125 z m 0,0" style="fill:#121619;fill-opacity:1;fill-rule:nonzero;stroke:none" />
      <path id="path24" d="m 9.9305313,1.8003875 1.4343747,-3.99375 -1.4343747,-3.99375 -0.4781251,0.178125 1.4343748,3.815625 -1.4343748,3.815625 z m 0,0" style="fill:#121619;fill-opacity:1;fill-rule:nonzero;stroke:none" />
    </g>
    <g id="g24" aria-label="∣ψ⟩" transform="matrix(1.6666667,0,0,1.6666667,503.11,196.30467)">
      <path id="path25" d="m 1.199625,-6.0937375 v 7.809375 h 0.50625 v -7.809375 z m 0,0" style="fill:#121619;fill-opacity:1;fill-rule:nonzero;stroke:none" />
      <path id="path26" d="m 6.9511875,-5.2687375 c 0.028125,-0.1125 0.028125,-0.121875 0.028125,-0.159375 0,-0.075 -0.05625,-0.103125 -0.121875,-0.103125 -0.103125,0 -0.103125,0.028125 -0.140625,0.16875 l -1.29375,5.203125 c -0.571875,-0.065625 -0.95625,-0.309375 -0.95625,-0.88125 0,-0.15 0,-0.35625 0.421875,-1.415625 0.075,-0.215625 0.084375,-0.28125 0.084375,-0.384375 0,-0.43125 -0.346875,-0.675 -0.7125,-0.675 -0.796875,0 -1.115625,1.125 -1.115625,1.21875 0,0.075 0.046875,0.103125 0.1125,0.103125 0.103125,0 0.1125,-0.046875 0.140625,-0.121875 0.20625,-0.69375 0.54375,-0.975 0.834375,-0.975 0.121875,0 0.1875,0.075 0.1875,0.2625 0,0.1875 -0.065625,0.375 -0.140625,0.54375 -0.403125,1.059375 -0.403125,1.228125 -0.403125,1.396875 0,0.75 0.646875,1.096875 1.48125,1.153125 l -0.35625,1.453125 c 0,0.075 0.05625,0.103125 0.1125,0.103125 0.103125,0 0.1125,-0.028125 0.159375,-0.196875 0.046875,-0.178125 0.00938,-0.065625 0.3375,-1.340625 0.328125,0 0.9375,0 1.725,-0.75 0.31875,-0.290625 0.496875,-0.61875 0.5625,-0.73125 0.2625,-0.525 0.375,-1.21875 0.375,-1.5 0,-0.628125 -0.35625,-0.628125 -0.39375,-0.628125 -0.1875,0 -0.4125,0.20625 -0.4125,0.4125 0,0.13125 0.075,0.196875 0.1125,0.225 0.075,0.075 0.31875,0.28125 0.31875,0.665625 0,0.65625 -0.9,2.08125 -2.23125,2.08125 z m 0,0" style="fill:#121619;fill-opacity:1;fill-rule:nonzero;stroke:none" />
      <path id="path27" d="m 9.9324375,1.8000125 1.4343745,-3.99375 -1.4343745,-3.99375 -0.478125,0.178125 1.4343755,3.815625 -1.4343755,3.815625 z m 0,0" style="fill:#121619;fill-opacity:1;fill-rule:nonzero;stroke:none" />
    </g>
    <path id="path28" d="M -26.87193,57.544 28.3468,0.85039" style="fill:none;stroke:#121619;stroke-width:0.3985;stroke-linecap:butt;stroke-linejoin:miter;stroke-miterlimit:10;stroke-dasharray:none;stroke-opacity:1" transform="matrix(1.6666667,0,0,-1.6666667,356.61667,145.40633)" />
    <path id="path29" d="M -26.87193,55.84322 28.3468,-0.85039" style="fill:none;stroke:#121619;stroke-width:0.3985;stroke-linecap:butt;stroke-linejoin:miter;stroke-miterlimit:10;stroke-dasharray:none;stroke-opacity:1" transform="matrix(1.6666667,0,0,-1.6666667,356.61667,145.40633)" />
    <path id="path30" d="M -26.87193,29.1972 0,0.85039" style="fill:none;stroke:#121619;stroke-width:0.3985;stroke-linecap:butt;stroke-linejoin:miter;stroke-miterlimit:10;stroke-dasharray:none;stroke-opacity:1" transform="matrix(1.6666667,0,0,-1.6666667,356.61667,145.40633)" />
    <path id="path31" d="M -26.87193,27.4964 0,-0.85039" style="fill:none;stroke:#121619;stroke-width:0.3985;stroke-linecap:butt;stroke-linejoin:miter;stroke-miterlimit:10;stroke-dasharray:none;stroke-opacity:1" transform="matrix(1.6666667,0,0,-1.6666667,356.61667,145.40633)" />
    <path id="path32" d="m -72.28433,48.18958 h 17.00806 v 17.00806 h -17.00806 z" style="fill:#78a9ff;fill-opacity:1;fill-rule:nonzero;stroke:#78a9ff;stroke-width:0.3985;stroke-linecap:butt;stroke-linejoin:miter;stroke-miterlimit:10;stroke-dasharray:none;stroke-opacity:1" transform="matrix(1.6666667,0,0,-1.6666667,356.61667,145.40633)" />
    <path id="path33" d="m 6.3663125,-4.7995812 c 0.084375,-0.309375 0.09375,-0.384375 0.65625,-0.384375 0.178125,0 0.28125,0 0.28125,-0.15 0,-0.00937 -0.00938,-0.1125 -0.140625,-0.1125 -0.15,0 -0.3375,0.01875 -0.496875,0.028125 h -0.496875 c -0.76875,0 -0.975,-0.028125 -1.03125,-0.028125 -0.028125,0 -0.159375,0 -0.159375,0.159375 0,0.103125 0.103125,0.103125 0.234375,0.103125 0.2625,0 0.496875,0 0.496875,0.13125 0,0.028125 -0.00938,0.0375 -0.0375,0.140625 l -0.478125,1.95 h -2.559375 l 0.459375,-1.85625 c 0.065625,-0.290625 0.084375,-0.365625 0.665625,-0.365625 0.159375,0 0.253125,0 0.253125,-0.15 0,-0.00937 0,-0.1125 -0.13125,-0.1125 -0.15,0 -0.346875,0.01875 -0.496875,0.028125 h -0.496875 c -0.76875,0 -0.975,-0.028125 -1.03125,-0.028125 -0.028125,0 -0.159375,0 -0.159375,0.159375 0,0.103125 0.103125,0.103125 0.234375,0.103125 0.2625,0 0.4875,0 0.4875,0.13125 0,0.028125 0,0.0375 -0.028125,0.140625 l -1.06875,4.28437495 c -0.075,0.3 -0.084375,0.365625 -0.675,0.365625 -0.15,0 -0.24375,0 -0.24375,0.15 0,0.028125 0.01875,0.1125 0.121875,0.1125 0.15,0 0.346875,-0.01875 0.496875,-0.028125 h 0.50625 c 0.76875,0 0.975,0.028125 1.03125,0.028125 0.046875,0 0.159375,0 0.159375,-0.15 0,-0.1125 -0.103125,-0.1125 -0.24375,-0.1125 -0.01875,0 -0.159375,0 -0.3,-0.01875 -0.16875,-0.009375 -0.178125,-0.0375 -0.178125,-0.1125 0,-0.0375 0.00937,-0.084375 0.01875,-0.121875 l 0.54375,-2.18437495 h 2.56875 c -0.234375,0.9375 -0.54375,2.18437495 -0.553125,2.18437495 -0.075,0.24375 -0.215625,0.24375 -0.69375,0.253125 -0.09375,0 -0.196875,0 -0.196875,0.15 0,0.028125 0.01875,0.1125 0.121875,0.1125 0.15,0 0.346875,-0.01875 0.496875,-0.028125 h 0.50625 c 0.76875,0 0.975,0.028125 1.03125,0.028125 0.046875,0 0.159375,0 0.159375,-0.15 0,-0.1125 -0.103125,-0.1125 -0.234375,-0.1125 -0.028125,0 -0.16875,0 -0.309375,-0.01875 -0.16875,-0.009375 -0.178125,-0.0375 -0.178125,-0.1125 0,-0.0375 0.00938,-0.084375 0.01875,-0.121875 z m 0,0" style="fill:#ffffff;fill-opacity:1;fill-rule:nonzero;stroke:none" aria-label="H" transform="matrix(1.6666667,0,0,1.6666667,244.00667,55.456333)" />
    <path id="path34" d="m -89.63641,56.69362 c 0,1.37558 -1.11512,2.49069 -2.49069,2.49069 -1.3756,0 -2.4907,-1.11511 -2.4907,-2.49069 0,-1.3756 1.1151,-2.49069 2.4907,-2.49069 1.37557,0 2.49069,1.11509 2.49069,2.49069 z" style="fill:#78a9ff;fill-opacity:1;fill-rule:nonzero;stroke:none" transform="matrix(1.6666667,0,0,-1.6666667,356.61667,145.40633)" />
    <path id="path35" d="m -86.14944,28.3468 c 0,3.30141 -2.67626,5.97766 -5.97766,5.97766 -3.30143,0 -5.97767,-2.67625 -5.97767,-5.97766 0,-3.3014 2.67624,-5.97766 5.97767,-5.97766 3.3014,0 5.97766,2.67626 5.97766,5.97766 z" style="fill:#78a9ff;fill-opacity:1;fill-rule:nonzero;stroke:#78a9ff;stroke-width:0.3985;stroke-linecap:butt;stroke-linejoin:miter;stroke-miterlimit:10;stroke-dasharray:none;stroke-opacity:1" transform="matrix(1.6666667,0,0,-1.6666667,356.61667,145.40633)" />
    <path id="path36" d="m 4.7071562,-7.8183937 v 3.4125 h -3.4125 v 0.91875 h 3.4125 v 3.41249995 h 0.91875 V -3.4871437 h 3.4125 v -0.91875 h -3.4125 v -3.4125 z m 0,0" style="fill:#ffffff;fill-opacity:1;fill-rule:nonzero;stroke:none" aria-label="+" transform="matrix(1.6666667,0,0,1.6666667,194.46333,104.683)" />
    <path id="path37" d="M -92.1271,56.69362 V 34.52371" style="fill:none;stroke:#78a9ff;stroke-width:0.79701;stroke-linecap:butt;stroke-linejoin:miter;stroke-miterlimit:10;stroke-dasharray:none;stroke-opacity:1" transform="matrix(1.6666667,0,0,-1.6666667,356.61667,145.40633)" />
    <path id="path38" d="m 30.33936,0 c 0,1.10046 -0.89208,1.99255 -1.99256,1.99255 -1.10046,0 -1.99255,-0.89209 -1.99255,-1.99255 0,-1.10046 0.89209,-1.99255 1.99255,-1.99255 1.10048,0 1.99256,0.89209 1.99256,1.99255 z" style="fill:#121619;fill-opacity:1;fill-rule:nonzero;stroke:none" transform="matrix(1.6666667,0,0,-1.6666667,356.61667,145.40633)" />
    <path id="path39" d="M 1.99255,0 C 1.99255,1.10046 1.10046,1.99255 0,1.99255 -1.10046,1.99255 -1.99255,1.10046 -1.99255,0 c 0,-1.10046 0.89209,-1.99255 1.99255,-1.99255 1.10046,0 1.99255,0.89209 1.99255,1.99255 z" style="fill:#121619;fill-opacity:1;fill-rule:nonzero;stroke:none" transform="matrix(1.6666667,0,0,-1.6666667,356.61667,145.40633)" />
    <path id="path40" d="M -0.56693,0 V -19.64352" style="fill:none;stroke:#121619;stroke-width:0.3985;stroke-linecap:butt;stroke-linejoin:miter;stroke-miterlimit:10;stroke-dasharray:none;stroke-opacity:1" transform="matrix(1.6666667,0,0,-1.6666667,356.61667,145.40633)" />
    <path id="path41" d="M 27.77988,0 V -19.64352" style="fill:none;stroke:#121619;stroke-width:0.3985;stroke-linecap:butt;stroke-linejoin:miter;stroke-miterlimit:10;stroke-dasharray:none;stroke-opacity:1" transform="matrix(1.6666667,0,0,-1.6666667,356.61667,145.40633)" />
    <path id="path42" d="M 0.56693,0 V -19.64352" style="fill:none;stroke:#121619;stroke-width:0.3985;stroke-linecap:butt;stroke-linejoin:miter;stroke-miterlimit:10;stroke-dasharray:none;stroke-opacity:1" transform="matrix(1.6666667,0,0,-1.6666667,356.61667,145.40633)" />
    <path id="path43" d="M 28.91373,0 V -19.64352" style="fill:none;stroke:#121619;stroke-width:0.3985;stroke-linecap:butt;stroke-linejoin:miter;stroke-miterlimit:10;stroke-dasharray:none;stroke-opacity:1" transform="matrix(1.6666667,0,0,-1.6666667,356.61667,145.40633)" />
    <path id="path44" d="M 5.3903437,9.8125e-4 3.2059688,-5.5302687 H 2.4278438 L 0.24346875,9.8125e-4 h 0.646875 L 1.5184688,-1.5740187 H 3.9372187 L 4.5559688,9.8125e-4 Z M 3.7403438,-2.0427687 h -2.025 l 1.021875,-2.878125 z M 6.9840937,9.8125e-4 V -5.5302687 H 6.3090938 V 9.8125e-4 Z m 2.0156251,0 V -3.5333937 h -0.675 V 9.8125e-4 Z m 0.065625,-4.46249995 v -0.80625 h -0.796875 v 0.80625 z m 4.1250002,4.17187495 -0.04687,-0.58125 c -0.403125,0.2625 -0.834375,0.403125 -1.321875,0.403125 -0.740625,0 -1.1625,-0.59062495 -1.1625,-1.31249995 0,-0.609375 0.31875,-1.33125 1.18125,-1.33125 0.54375,0 0.796875,0.1125 1.209375,0.375 l 0.103125,-0.58125 c -0.478125,-0.234375 -0.684375,-0.3375 -1.3125,-0.3375 -1.190625,0 -1.8750002,0.965625 -1.8750002,1.884375 0,0.97499995 0.7593752,1.85624995 1.8468752,1.85624995 0.553125,0 1.03125,-0.16875 1.378125,-0.375 z m 3.752344,-1.45312495 c 0,-0.365625 -0.0375,-0.9 -0.346875,-1.359375 -0.290625,-0.403125 -0.76875,-0.553125 -1.1625,-0.553125 -0.965625,0 -1.715625,0.853125 -1.715625,1.865625 0,1.02187495 0.796875,1.87499995 1.846875,1.87499995 0.459375,0 0.9375,-0.140625 1.35,-0.384375 l -0.04687,-0.571875 c -0.450001,0.31875 -0.95625,0.421875 -1.29375,0.421875 -0.69375,0 -1.21875,-0.56249995 -1.246875,-1.29374995 z m -0.4875,-0.478125 h -2.071875 c 0.1875,-0.6375 0.65625,-0.909375 1.05,-0.909375 0.35625,0 0.871875,0.16875 1.021875,0.909375 z m 0,0" style="fill:#121619;fill-opacity:1;fill-rule:nonzero;stroke:none" aria-label="Alice" transform="matrix(1.6666667,0,0,1.6666667,460.395,112.16633)" />
    <path id="path45" d="m 5.1645625,-1.4998312 c 0,-0.703125 -0.740625,-1.265625 -1.63125,-1.396875 0.834375,-0.196875 1.3875,-0.675 1.3875,-1.246875 0,-0.73125 -0.909375,-1.3875 -2.08125,-1.3875 h -2.04375 V 1.6875e-4 h 2.26875 c 1.18125,0 2.1,-0.703125 2.1,-1.49999995 z m -0.9375,-2.634375 c 0,0.534375 -0.721875,0.99375 -1.621875,0.99375 h -1.059375 v -1.921875 h 1.05 c 0.890625,0 1.63125,0.4125 1.63125,0.928125 z m 0.20625,2.625 c 0,0.59062495 -0.740625,1.04062495 -1.6125,1.04062495 h -1.275 V -2.6154562 h 1.134375 c 1.0125,0 1.753125,0.515625 1.753125,1.10625 z m 5.19375,-0.234375 c 0,-1.05 -0.834375,-1.9125 -1.875,-1.9125 -1.03125,0 -1.865625,0.8625 -1.865625,1.9125 0,1.01249995 0.84375,1.82812495 1.865625,1.82812495 1.040625,0 1.875,-0.815625 1.875,-1.82812495 z m -0.69375,-0.09375 c 0,0.90937495 -0.5625,1.36874995 -1.18125,1.36874995 -0.628125,0 -1.18125,-0.459375 -1.18125,-1.36874995 0,-0.9 0.590625,-1.29375 1.18125,-1.29375 0.6,0 1.18125,0.4125 1.18125,1.29375 z m 5.0203125,0.05625 c 0,-0.95625 -0.54375,-1.8375 -1.340625,-1.8375 -0.50625,0 -0.99375,0.159375 -1.3875,0.459375 v -2.371875 h -0.675 V 1.6875e-4 h 0.69375 v -0.375 c 0.178125,0.15 0.5625,0.459375 1.14375,0.459375 0.8625,0 1.565625,-0.815625 1.565625,-1.86562495 z m -0.69375,0 c 0,0.97499995 -0.65625,1.33124995 -1.21875,1.33124995 -0.290625,0 -0.571875,-0.13125 -0.796875,-0.4875 V -2.5123312 c 0,-0.121875 0,-0.225 0.28125,-0.403125 0.121875,-0.075 0.3375,-0.178125 0.609375,-0.178125 0.534375,0 1.125,0.35625 1.125,1.3125 z m 0,0" style="fill:#121619;fill-opacity:1;fill-rule:nonzero;stroke:none" aria-label="Bob" transform="matrix(1.6666667,0,0,1.6666667,462.85333,140.488)" />
    <path id="path46" d="m 4.5271562,-0.261425 c 0.778125,-0.5625 1.246875,-1.453125 1.246875,-2.475 0,-1.65 -1.209375,-2.9625 -2.653125,-2.9625 -1.44375,0 -2.65312495,1.3125 -2.65312495,2.9625 0,1.65 1.22812495,2.90625 2.65312495,2.90625 0.35625,0 0.684375,-0.09375 0.76875,-0.121875 l 0.703125,0.975 h 0.946875 z m -0.99375,-0.178125 c -0.13125,0.0375 -0.309375,0.05625 -0.4125,0.05625 -0.965625,0 -1.875,-0.909375 -1.875,-2.353125 0,-1.471875 0.9,-2.409375 1.875,-2.409375 0.984375,0 1.875,0.9375 1.875,2.409375 0,0.9 -0.346875,1.584375 -0.84375,1.9875 l -0.6375,-0.796875 h -0.778125 z m 0,0" style="fill:#121619;fill-opacity:1;fill-rule:nonzero;stroke:none" aria-label="Q" transform="matrix(1.6666667,0,0,1.6666667,169.51333,44.451333)" />
    <path id="path47" d="M 3.2058125,-5.5306437 H 2.4276875 L 0.2433125,6.0625e-4 h 0.646875 l 0.628125,-1.57499995 h 2.41875 l 0.61875,1.57499995 h 0.834375 z m -0.46875,0.609375 1.003125,2.878125 h -2.025 z m 0,0" style="fill:#121619;fill-opacity:1;fill-rule:nonzero;stroke:none" aria-label="A" transform="matrix(1.6666667,0,0,1.6666667,134.58667,93.401333)" />
    <path id="path48" d="m 0.7964375,-5.531675 v 5.53125 h 2.26875 c 1.18125,0 2.1,-0.703125 2.1,-1.5 0,-0.703125 -0.740625,-1.265625 -1.63125,-1.396875 0.834375,-0.196875 1.3875,-0.675 1.3875,-1.246875 0,-0.73125 -0.909375,-1.3875 -2.08125,-1.3875 z m 0.75,2.390625 v -1.921875 h 1.05 c 0.890625,0 1.63125,0.4125 1.63125,0.928125 0,0.534375 -0.721875,0.99375 -1.621875,0.99375 z m 0,2.671875 V -2.61605 h 1.134375 c 1.0125,0 1.753125,0.515625 1.753125,1.10625 0,0.590625 -0.740625,1.040625 -1.6125,1.040625 z m 0,0" style="fill:#121619;fill-opacity:1;fill-rule:nonzero;stroke:none" aria-label="B" transform="matrix(1.6666667,0,0,1.6666667,134.58667,187.89133)" />
  </g>
</svg>