<?xml version="1.0" encoding="UTF-8"?>
<svg id="Layer_1" xmlns="http://www.w3.org/2000/svg" version="1.1" viewBox="0 0 32 32">
  <!-- Generator: Adobe Illustrator 30.0.0, SVG Export Plug-In . SVG Version: 2.1.1 Build 123)  -->
  <defs>
    <style>
      .st0 {
        fill: none;
      }

      .st1 {
        fill: #fff;
      }
    </style>
  </defs>
  <path id="nighthawk" class="st1" d="M27,27.36s-.08,0-.11-.02l-14.56-4.85c-.17,1.2-1,2.87-3.32,2.87v-.72c2.14,0,2.55-1.72,2.62-2.39l-2.74-.91.23-.68,16.55,5.52-7.82-7.82h-3.85v-.72h3.13l-1.28-1.28h-3.85v-.72h3.13l-.48-.48c-.37-.38-1.8-1.81-2.91-2.91-.87-.86-2.17-1.35-3.58-1.35h-.01c-1.36,0-2.64.48-3.43,1.28-1.05,1.07-1.36,1.93-1.36,3.82h-.72v-7c0-2.4,1.96-4.36,4.36-4.36,1.53,0,2.94.77,3.72,2.02.69.1,1.65.47,1.64,1.34,0,.2-.16.36-.36.36-.9,0-1.64.74-1.64,1.64v.56c.73.27,1.38.67,1.89,1.18.31.31.64.64.97.97l15.94,7.97c.15.08.23.24.19.41-.04.16-.18.28-.35.28h-7.13l5.39,5.39c.12.12.14.3.05.44-.07.11-.18.17-.31.17ZM21.15,20.64h6.32l-4.56-2.28h-2.91v-.72h1.48l-6.65-3.32c.15.15.26.26.34.34l.09.09,5.89,5.89ZM7,5.36c-2.01,0-3.64,1.63-3.64,3.64v3.73c.22-.36.5-.7.85-1.05.93-.95,2.37-1.49,3.94-1.49h.02c.51,0,1,.06,1.47.17v-.35c0-1.12.79-2.07,1.84-2.3-.27-.23-.83-.32-1.01-.34-.12-.01-.23-.08-.28-.18-.63-1.12-1.85-1.82-3.19-1.82Z"/>
  <rect id="_Transparent_Rectangle" class="st0" width="32" height="32"/>
</svg>