<?xml version="1.0" encoding="UTF-8"?><!DOCTYPE svg  PUBLIC '-//W3C//DTD SVG 1.1//EN'  'http://www.w3.org/Graphics/SVG/1.1/DTD/svg11.dtd'><svg width="117.22pt" height="79.296pt" version="1.1" viewBox="0 0 117.22 79.296" xmlns="http://www.w3.org/2000/svg" xmlns:xlink="http://www.w3.org/1999/xlink"><defs><style type="text/css">*{stroke-linejoin: round; stroke-linecap: butt}</style></defs><path d="m0 79.296h117.22v-79.296h-117.22z" fill="#ffffff"/><path d="m54.39 44.283h50.989" clip-path="url(#e70ebf5fc68)" fill="none" stroke="#000000" stroke-linecap="square" stroke-width="2"/><path d="m49.755 21.106h-1158.8v92.708h1158.8z" clip-path="url(#e70ebf5fc68)" fill="#ffffff" stroke="#ffffff" stroke-width="1.5"/><path d="m64.356 59.348h30.13v-30.13h-30.13z" clip-path="url(#e70ebf5fc68)" fill="#9f1853" stroke="#9f1853" stroke-width="1.5"/><g clip-path="url(#e70ebf5fc68)"><g transform="translate(34.719 48.734) scale(.1625 -.1625)"><defs><path id="DejaVuSans-Oblique-71" transform="scale(.015625)" d="m2669 525q-231-303-546-460-314-156-695-156-531 0-833 358-301 358-301 986 0 506 186 978t533 847q225 244 517 375t614 131q387 0 637-153t363-462l100 525h578l-934-4813h-579l360 1844zm-1778 813q0-463 193-705 194-242 560-242 544 0 928 520t384 1264q0 450-199 689-198 239-569 239-272 0-504-127-231-126-403-370-181-256-286-600-104-343-104-668z"/></defs><use xlink:href="#DejaVuSans-Oblique-71"/></g></g><g clip-path="url(#e70ebf5fc68)"><g transform="translate(76.974 55.53) scale(.08 -.08)" fill="#ffffff"><defs><path id="DejaVuSans-3b8" transform="scale(.015625)" d="m2953 2219h-1990q46-935 262-1331 269-488 734-488 469 0 729 491 228 431 265 1328zm-9 531q-88 888-256 1200-269 494-729 494-478 0-731-488-200-393-259-1206h1975zm-985 2163q750 0 1179-663 428-659 428-1828 0-1166-428-1828-429-666-1179-666-753 0-1178 666-428 662-428 1828 0 1169 428 1828 425 663 1178 663z"/></defs><use xlink:href="#DejaVuSans-3b8"/></g></g><g clip-path="url(#e70ebf5fc68)"><g transform="translate(71.491 43.351) scale(.13 -.13)" fill="#ffffff"><defs><path id="DejaVuSans-52" transform="scale(.015625)" d="m2841 2188q203-69 395-294t386-619l641-1275h-679l-596 1197q-232 469-449 622t-592 153h-688v-1972h-631v4666h1425q800 0 1194-335 394-334 394-1009 0-441-205-732-205-290-595-402zm-1582 1959v-1656h794q456 0 689 211t233 620-233 617-689 208h-794z"/><path id="DejaVuSans-58" transform="scale(.015625)" d="m403 4666h678l1160-1735 1165 1735h678l-1500-2241 1600-2425h-678l-1312 1984-1322-1984h-681l1665 2491-1453 2175z"/></defs><use transform="translate(0 .09375)" xlink:href="#DejaVuSans-52"/><use transform="translate(70.439 -16.312) scale(.7)" xlink:href="#DejaVuSans-58"/></g></g><defs><clipPath id="e70ebf5fc68"><rect x="7.2" y="7.2" width="102.82" height="64.896"/></clipPath></defs></svg>