<svg width="1999" height="1277" viewBox="0 0 1999 1277" fill="none" xmlns="http://www.w3.org/2000/svg">
<rect width="1999" height="1276.54" fill="#F4F4F4"/>
<path d="M635.239 200.58V346.387" stroke="#C1C7CD" stroke-width="5.91463"/>
<path d="M489.432 346.387V492.193" stroke="#C1C7CD" stroke-width="5.91463"/>
<path d="M489.432 638V783.807" stroke="#C1C7CD" stroke-width="5.91463"/>
<path d="M489.432 929.613V1075.42" stroke="#C1C7CD" stroke-width="5.91463"/>
<path d="M635.239 783.807V929.613" stroke="#C1C7CD" stroke-width="5.91463"/>
<path d="M635.239 492.193V638" stroke="#C1C7CD" stroke-width="5.91463"/>
<path d="M926.852 200.58V346.387" stroke="#C1C7CD" stroke-width="5.91463"/>
<path d="M781.045 346.387V492.193" stroke="#C1C7CD" stroke-width="5.91463"/>
<path d="M781.045 638V783.807" stroke="#C1C7CD" stroke-width="5.91463"/>
<path d="M781.045 929.613V1075.42" stroke="#C1C7CD" stroke-width="5.91463"/>
<path d="M926.852 783.807V929.613" stroke="#C1C7CD" stroke-width="5.91463"/>
<path d="M926.852 492.193V638" stroke="#C1C7CD" stroke-width="5.91463"/>
<path d="M1218.47 200.58V346.387" stroke="#C1C7CD" stroke-width="5.91463"/>
<path d="M1072.66 346.387V492.193" stroke="#C1C7CD" stroke-width="5.91463"/>
<path d="M1072.66 638V783.807" stroke="#C1C7CD" stroke-width="5.91463"/>
<path d="M1072.66 929.613V1075.42" stroke="#C1C7CD" stroke-width="5.91463"/>
<path d="M1218.47 783.807V929.613" stroke="#C1C7CD" stroke-width="5.91463"/>
<path d="M1218.47 492.193V638" stroke="#C1C7CD" stroke-width="5.91463"/>
<path d="M1510.08 200.58V346.387" stroke="#C1C7CD" stroke-width="5.91463"/>
<path d="M1364.27 346.387V492.193" stroke="#C1C7CD" stroke-width="5.91463"/>
<path d="M1364.27 638V783.807" stroke="#C1C7CD" stroke-width="5.91463"/>
<path d="M1364.27 929.613V1075.42" stroke="#C1C7CD" stroke-width="5.91463"/>
<path d="M1510.08 783.807V929.613" stroke="#C1C7CD" stroke-width="5.91463"/>
<path d="M1510.08 492.193V638" stroke="#C1C7CD" stroke-width="5.91463"/>
<path d="M562.335 200.58H1510.08" stroke="#C1C7CD" stroke-width="5.91463"/>
<path d="M489.432 346.387L1510.08 346.387" stroke="#C1C7CD" stroke-width="5.91463"/>
<path d="M489.432 492.193L1510.08 492.193" stroke="#C1C7CD" stroke-width="5.91463"/>
<path d="M489.432 638L1510.08 638" stroke="#C1C7CD" stroke-width="5.91463"/>
<path d="M489.432 783.807L1510.08 783.807" stroke="#C1C7CD" stroke-width="5.91463"/>
<path d="M489.432 929.613L1510.08 929.613" stroke="#C1C7CD" stroke-width="5.91463"/>
<path d="M489.432 1075.42L1437.18 1075.42" stroke="#C1C7CD" stroke-width="5.91463"/>
<circle cx="562.335" cy="200.58" r="22.4318" fill="#C1C7CD"/>
<circle cx="22.4318" cy="22.4318" r="22.4318" transform="matrix(-1 0 0 1 1532.51 323.955)" fill="#C1C7CD"/>
<circle cx="22.4318" cy="22.4318" r="22.4318" transform="matrix(-1 0 0 1 1532.51 615.568)" fill="#C1C7CD"/>
<circle cx="22.4318" cy="22.4318" r="22.4318" transform="matrix(-1 0 0 1 1532.51 907.182)" fill="#C1C7CD"/>
<circle cx="22.4318" cy="22.4318" r="22.4318" transform="matrix(-1 0 0 1 1532.51 469.762)" fill="#C1C7CD"/>
<circle cx="22.4318" cy="22.4318" r="22.4318" transform="matrix(-1 0 0 1 1532.51 761.375)" fill="#C1C7CD"/>
<circle cx="22.4318" cy="22.4318" r="22.4318" transform="matrix(-1 0 0 1 1459.61 323.955)" fill="#C1C7CD"/>
<circle cx="22.4318" cy="22.4318" r="22.4318" transform="matrix(-1 0 0 1 1459.61 615.568)" fill="#C1C7CD"/>
<circle cx="22.4318" cy="22.4318" r="22.4318" transform="matrix(-1 0 0 1 1459.61 907.182)" fill="#C1C7CD"/>
<circle cx="22.4318" cy="22.4318" r="22.4318" transform="matrix(-1 0 0 1 1459.61 469.762)" fill="#C1C7CD"/>
<circle cx="22.4318" cy="22.4318" r="22.4318" transform="matrix(-1 0 0 1 1459.61 761.375)" fill="#C1C7CD"/>
<circle cx="22.4318" cy="22.4318" r="22.4318" transform="matrix(-1 0 0 1 1459.61 1052.99)" fill="#C1C7CD"/>
<circle cx="635.238" cy="200.58" r="22.4318" fill="#C1C7CD"/>
<circle cx="22.4318" cy="22.4318" r="22.4318" transform="matrix(-1 0 0 1 511.864 323.955)" fill="#C1C7CD"/>
<circle cx="22.4318" cy="22.4318" r="22.4318" transform="matrix(-1 0 0 1 511.864 615.568)" fill="#C1C7CD"/>
<circle cx="22.4318" cy="22.4318" r="22.4318" transform="matrix(-1 0 0 1 511.864 907.182)" fill="#C1C7CD"/>
<circle cx="22.4318" cy="22.4318" r="22.4318" transform="matrix(-1 0 0 1 511.864 469.762)" fill="#C1C7CD"/>
<circle cx="22.4318" cy="22.4318" r="22.4318" transform="matrix(-1 0 0 1 511.864 761.375)" fill="#C1C7CD"/>
<circle cx="22.4318" cy="22.4318" r="22.4318" transform="matrix(-1 0 0 1 511.864 1052.99)" fill="#C1C7CD"/>
<circle cx="635.238" cy="273.483" r="22.4318" fill="#C1C7CD"/>
<circle cx="489.432" cy="419.29" r="22.4318" fill="#C1C7CD"/>
<circle cx="489.432" cy="710.904" r="22.4318" fill="#C1C7CD"/>
<circle cx="489.432" cy="1002.52" r="22.4318" fill="#C1C7CD"/>
<circle cx="781.045" cy="419.29" r="22.4318" fill="#C1C7CD"/>
<circle cx="781.045" cy="710.904" r="22.4318" fill="#C1C7CD"/>
<circle cx="781.045" cy="1002.52" r="22.4318" fill="#C1C7CD"/>
<circle cx="1072.66" cy="419.29" r="22.4318" fill="#C1C7CD"/>
<circle cx="1072.66" cy="710.904" r="22.4318" fill="#C1C7CD"/>
<circle cx="1072.66" cy="1002.52" r="22.4318" fill="#C1C7CD"/>
<circle cx="1364.27" cy="419.29" r="22.4318" fill="#C1C7CD"/>
<circle cx="1364.27" cy="710.904" r="22.4318" fill="#C1C7CD"/>
<circle cx="1364.27" cy="1002.52" r="22.4318" fill="#C1C7CD"/>
<circle cx="22.4318" cy="22.4318" r="22.4318" transform="matrix(-1 0 0 1 1386.7 323.955)" fill="#C1C7CD"/>
<circle cx="22.4318" cy="22.4318" r="22.4318" transform="matrix(-1 0 0 1 1386.7 615.568)" fill="#C1C7CD"/>
<circle cx="22.4318" cy="22.4318" r="22.4318" transform="matrix(-1 0 0 1 1386.7 907.182)" fill="#C1C7CD"/>
<circle cx="22.4318" cy="22.4318" r="22.4318" transform="matrix(-1 0 0 1 1386.7 469.762)" fill="#C1C7CD"/>
<circle cx="22.4318" cy="22.4318" r="22.4318" transform="matrix(-1 0 0 1 1386.7 761.375)" fill="#C1C7CD"/>
<circle cx="22.4318" cy="22.4318" r="22.4318" transform="matrix(-1 0 0 1 1386.7 1052.99)" fill="#C1C7CD"/>
<circle cx="22.4318" cy="22.4318" r="22.4318" transform="matrix(-1 0 0 1 1313.8 323.955)" fill="#C1C7CD"/>
<circle cx="22.4318" cy="22.4318" r="22.4318" transform="matrix(-1 0 0 1 1313.8 615.568)" fill="#C1C7CD"/>
<circle cx="22.4318" cy="22.4318" r="22.4318" transform="matrix(-1 0 0 1 1313.8 907.182)" fill="#C1C7CD"/>
<circle cx="22.4318" cy="22.4318" r="22.4318" transform="matrix(-1 0 0 1 1313.8 469.762)" fill="#C1C7CD"/>
<circle cx="22.4318" cy="22.4318" r="22.4318" transform="matrix(-1 0 0 1 1313.8 761.375)" fill="#C1C7CD"/>
<circle cx="22.4318" cy="22.4318" r="22.4318" transform="matrix(-1 0 0 1 1313.8 1052.99)" fill="#C1C7CD"/>
<circle cx="22.4318" cy="22.4318" r="22.4318" transform="matrix(-1 0 0 1 1240.9 323.955)" fill="#C1C7CD"/>
<circle cx="22.4318" cy="22.4318" r="22.4318" transform="matrix(-1 0 0 1 1240.9 615.568)" fill="#C1C7CD"/>
<circle cx="22.4318" cy="22.4318" r="22.4318" transform="matrix(-1 0 0 1 1240.9 907.182)" fill="#C1C7CD"/>
<circle cx="22.4318" cy="22.4318" r="22.4318" transform="matrix(-1 0 0 1 1240.9 469.762)" fill="#C1C7CD"/>
<circle cx="22.4318" cy="22.4318" r="22.4318" transform="matrix(-1 0 0 1 1240.9 761.375)" fill="#C1C7CD"/>
<circle cx="22.4318" cy="22.4318" r="22.4318" transform="matrix(-1 0 0 1 1240.9 1052.99)" fill="#C1C7CD"/>
<circle cx="926.852" cy="273.483" r="22.4318" fill="#C1C7CD"/>
<circle cx="22.4318" cy="22.4318" r="22.4318" transform="matrix(-1 0 0 1 1167.99 323.955)" fill="#C1C7CD"/>
<circle cx="22.4318" cy="22.4318" r="22.4318" transform="matrix(-1 0 0 1 1167.99 615.568)" fill="#C1C7CD"/>
<circle cx="22.4318" cy="22.4318" r="22.4318" transform="matrix(-1 0 0 1 1167.99 907.182)" fill="#C1C7CD"/>
<circle cx="22.4318" cy="22.4318" r="22.4318" transform="matrix(-1 0 0 1 1167.99 469.762)" fill="#C1C7CD"/>
<circle cx="22.4318" cy="22.4318" r="22.4318" transform="matrix(-1 0 0 1 1167.99 761.375)" fill="#C1C7CD"/>
<circle cx="22.4318" cy="22.4318" r="22.4318" transform="matrix(-1 0 0 1 1167.99 1052.99)" fill="#C1C7CD"/>
<circle cx="22.4318" cy="22.4318" r="22.4318" transform="matrix(-1 0 0 1 1095.09 323.955)" fill="#C1C7CD"/>
<circle cx="22.4318" cy="22.4318" r="22.4318" transform="matrix(-1 0 0 1 1095.09 615.568)" fill="#C1C7CD"/>
<circle cx="22.4318" cy="22.4318" r="22.4318" transform="matrix(-1 0 0 1 1095.09 907.182)" fill="#C1C7CD"/>
<circle cx="22.4318" cy="22.4318" r="22.4318" transform="matrix(-1 0 0 1 1095.09 469.762)" fill="#C1C7CD"/>
<circle cx="22.4318" cy="22.4318" r="22.4318" transform="matrix(-1 0 0 1 1095.09 761.375)" fill="#C1C7CD"/>
<circle cx="22.4318" cy="22.4318" r="22.4318" transform="matrix(-1 0 0 1 1095.09 1052.99)" fill="#C1C7CD"/>
<circle cx="22.4318" cy="22.4318" r="22.4318" transform="matrix(-1 0 0 1 1022.19 323.955)" fill="#C1C7CD"/>
<circle cx="22.4318" cy="22.4318" r="22.4318" transform="matrix(-1 0 0 1 1022.19 615.568)" fill="#C1C7CD"/>
<circle cx="22.4318" cy="22.4318" r="22.4318" transform="matrix(-1 0 0 1 1022.19 907.182)" fill="#C1C7CD"/>
<circle cx="22.4318" cy="22.4318" r="22.4318" transform="matrix(-1 0 0 1 1022.19 469.762)" fill="#C1C7CD"/>
<circle cx="22.4318" cy="22.4318" r="22.4318" transform="matrix(-1 0 0 1 1022.19 761.375)" fill="#C1C7CD"/>
<circle cx="22.4318" cy="22.4318" r="22.4318" transform="matrix(-1 0 0 1 1022.19 1052.99)" fill="#C1C7CD"/>
<circle cx="1218.47" cy="273.483" r="22.4318" fill="#C1C7CD"/>
<circle cx="22.4318" cy="22.4318" r="22.4318" transform="matrix(-1 0 0 1 949.283 323.955)" fill="#C1C7CD"/>
<circle cx="22.4318" cy="22.4318" r="22.4318" transform="matrix(-1 0 0 1 949.283 615.568)" fill="#C1C7CD"/>
<circle cx="22.4318" cy="22.4318" r="22.4318" transform="matrix(-1 0 0 1 949.283 907.182)" fill="#C1C7CD"/>
<circle cx="22.4318" cy="22.4318" r="22.4318" transform="matrix(-1 0 0 1 949.283 469.762)" fill="#C1C7CD"/>
<circle cx="22.4318" cy="22.4318" r="22.4318" transform="matrix(-1 0 0 1 949.283 761.375)" fill="#C1C7CD"/>
<circle cx="22.4318" cy="22.4318" r="22.4318" transform="matrix(-1 0 0 1 949.283 1052.99)" fill="#C1C7CD"/>
<circle cx="22.4318" cy="22.4318" r="22.4318" transform="matrix(-1 0 0 1 876.38 323.955)" fill="#C1C7CD"/>
<circle cx="22.4318" cy="22.4318" r="22.4318" transform="matrix(-1 0 0 1 876.38 615.568)" fill="#C1C7CD"/>
<circle cx="22.4318" cy="22.4318" r="22.4318" transform="matrix(-1 0 0 1 876.38 907.182)" fill="#C1C7CD"/>
<circle cx="22.4318" cy="22.4318" r="22.4318" transform="matrix(-1 0 0 1 876.38 469.762)" fill="#C1C7CD"/>
<circle cx="22.4318" cy="22.4318" r="22.4318" transform="matrix(-1 0 0 1 876.38 761.375)" fill="#C1C7CD"/>
<circle cx="22.4318" cy="22.4318" r="22.4318" transform="matrix(-1 0 0 1 876.38 1052.99)" fill="#C1C7CD"/>
<circle cx="22.4318" cy="22.4318" r="22.4318" transform="matrix(-1 0 0 1 584.767 323.955)" fill="#C1C7CD"/>
<circle cx="22.4318" cy="22.4318" r="22.4318" transform="matrix(-1 0 0 1 584.767 615.568)" fill="#C1C7CD"/>
<circle cx="22.4318" cy="22.4318" r="22.4318" transform="matrix(-1 0 0 1 584.767 907.182)" fill="#C1C7CD"/>
<circle cx="22.4318" cy="22.4318" r="22.4318" transform="matrix(-1 0 0 1 584.767 469.762)" fill="#C1C7CD"/>
<circle cx="22.4318" cy="22.4318" r="22.4318" transform="matrix(-1 0 0 1 584.767 761.375)" fill="#C1C7CD"/>
<circle cx="22.4318" cy="22.4318" r="22.4318" transform="matrix(-1 0 0 1 584.767 1052.99)" fill="#C1C7CD"/>
<circle cx="1510.08" cy="273.483" r="22.4318" fill="#C1C7CD"/>
<circle cx="1510.08" cy="565.097" r="22.4318" fill="#C1C7CD"/>
<circle cx="1510.08" cy="856.71" r="22.4318" fill="#C1C7CD"/>
<circle cx="1218.47" cy="565.097" r="22.4318" fill="#C1C7CD"/>
<circle cx="1218.47" cy="856.71" r="22.4318" fill="#C1C7CD"/>
<circle cx="926.852" cy="565.097" r="22.4318" fill="#C1C7CD"/>
<circle cx="926.852" cy="856.71" r="22.4318" fill="#C1C7CD"/>
<circle cx="635.238" cy="565.097" r="22.4318" fill="#C1C7CD"/>
<circle cx="635.238" cy="856.71" r="22.4318" fill="#C1C7CD"/>
<circle cx="22.4318" cy="22.4318" r="22.4318" transform="matrix(-1 0 0 1 803.477 323.955)" fill="#C1C7CD"/>
<circle cx="22.4318" cy="22.4318" r="22.4318" transform="matrix(-1 0 0 1 803.477 615.568)" fill="#C1C7CD"/>
<circle cx="22.4318" cy="22.4318" r="22.4318" transform="matrix(-1 0 0 1 803.477 907.182)" fill="#C1C7CD"/>
<circle cx="22.4318" cy="22.4318" r="22.4318" transform="matrix(-1 0 0 1 803.477 469.762)" fill="#C1C7CD"/>
<circle cx="22.4318" cy="22.4318" r="22.4318" transform="matrix(-1 0 0 1 803.477 761.375)" fill="#C1C7CD"/>
<circle cx="22.4318" cy="22.4318" r="22.4318" transform="matrix(-1 0 0 1 803.477 1052.99)" fill="#C1C7CD"/>
<circle cx="22.4318" cy="22.4318" r="22.4318" transform="matrix(-1 0 0 1 730.574 323.955)" fill="#C1C7CD"/>
<circle cx="22.4318" cy="22.4318" r="22.4318" transform="matrix(-1 0 0 1 730.574 615.568)" fill="#C1C7CD"/>
<circle cx="22.4318" cy="22.4318" r="22.4318" transform="matrix(-1 0 0 1 730.574 907.182)" fill="#C1C7CD"/>
<circle cx="22.4318" cy="22.4318" r="22.4318" transform="matrix(-1 0 0 1 730.574 469.762)" fill="#C1C7CD"/>
<circle cx="22.4318" cy="22.4318" r="22.4318" transform="matrix(-1 0 0 1 730.574 761.375)" fill="#C1C7CD"/>
<circle cx="22.4318" cy="22.4318" r="22.4318" transform="matrix(-1 0 0 1 730.574 1052.99)" fill="#C1C7CD"/>
<circle cx="22.4318" cy="22.4318" r="22.4318" transform="matrix(-1 0 0 1 657.67 323.955)" fill="#C1C7CD"/>
<circle cx="22.4318" cy="22.4318" r="22.4318" transform="matrix(-1 0 0 1 657.67 615.568)" fill="#C1C7CD"/>
<circle cx="22.4318" cy="22.4318" r="22.4318" transform="matrix(-1 0 0 1 657.67 907.182)" fill="#C1C7CD"/>
<circle cx="22.4318" cy="22.4318" r="22.4318" transform="matrix(-1 0 0 1 657.67 469.762)" fill="#C1C7CD"/>
<circle cx="22.4318" cy="22.4318" r="22.4318" transform="matrix(-1 0 0 1 657.67 761.375)" fill="#C1C7CD"/>
<path fill-rule="evenodd" clip-rule="evenodd" d="M1361.31 368.625C1350.32 367.178 1341.84 357.773 1341.84 346.387C1341.84 333.998 1351.88 323.955 1364.27 323.955C1376.66 323.955 1386.7 333.998 1386.7 346.387C1386.7 357.773 1378.22 367.178 1367.23 368.625V397.051C1378.22 398.499 1386.7 407.904 1386.7 419.29C1386.7 430.676 1378.22 440.081 1367.23 441.529V469.955C1378.22 471.402 1386.7 480.807 1386.7 492.193C1386.7 504.582 1376.66 514.625 1364.27 514.625C1352.89 514.625 1343.48 506.142 1342.03 495.151H1313.61C1312.16 506.142 1302.75 514.625 1291.37 514.625C1279.98 514.625 1270.58 506.142 1269.13 495.151H1240.7C1239.38 505.174 1231.45 513.112 1221.42 514.432V542.858C1232.41 544.306 1240.9 553.71 1240.9 565.097C1240.9 576.483 1232.41 585.888 1221.42 587.335V615.761C1232.41 617.209 1240.9 626.614 1240.9 638C1240.9 650.389 1230.85 660.432 1218.47 660.432C1207.08 660.432 1197.67 651.948 1196.23 640.957H1167.8C1166.35 651.948 1156.95 660.432 1145.56 660.432C1134.18 660.432 1124.77 651.948 1123.32 640.957H1094.9C1093.58 650.981 1085.64 658.919 1075.62 660.239V688.665C1086.61 690.112 1095.09 699.517 1095.09 710.903C1095.09 722.29 1086.61 731.695 1075.62 733.142V761.568C1086.61 763.015 1095.09 772.42 1095.09 783.807C1095.09 796.195 1085.05 806.238 1072.66 806.238C1061.27 806.238 1051.87 797.755 1050.42 786.764H1021.99C1020.55 797.755 1011.14 806.238 999.755 806.238C988.369 806.238 978.964 797.755 977.517 786.764H949.09C947.643 797.755 938.238 806.238 926.852 806.238C915.465 806.238 906.061 797.755 904.613 786.764H876.187C874.74 797.755 865.335 806.238 853.948 806.238C842.562 806.238 833.157 797.755 831.71 786.764H803.284C801.836 797.755 792.431 806.238 781.045 806.238C769.659 806.238 760.254 797.755 758.807 786.764H730.381C728.933 797.755 719.528 806.238 708.142 806.238C696.756 806.238 687.351 797.755 685.903 786.764H657.477C656.157 796.787 648.219 804.725 638.196 806.045V834.471C649.187 835.919 657.67 845.324 657.67 856.71C657.67 868.096 649.187 877.501 638.196 878.949V907.375C649.187 908.822 657.671 918.227 657.671 929.613C657.671 942.002 647.627 952.045 635.239 952.045C622.85 952.045 612.807 942.002 612.807 929.613C612.807 918.227 621.29 908.822 632.281 907.375V878.949C621.29 877.501 612.807 868.096 612.807 856.71C612.807 845.324 621.29 835.919 632.281 834.471V806.045C621.29 804.598 612.807 795.193 612.807 783.807C612.807 771.418 622.85 761.375 635.239 761.375C646.625 761.375 656.03 769.858 657.477 780.849H685.903C687.351 769.858 696.756 761.375 708.142 761.375C719.528 761.375 728.933 769.858 730.381 780.849H758.807C760.254 769.858 769.659 761.375 781.045 761.375C792.431 761.375 801.836 769.858 803.284 780.849H831.71C833.157 769.858 842.562 761.375 853.948 761.375C865.335 761.375 874.74 769.858 876.187 780.849H904.613C906.061 769.858 915.465 761.375 926.852 761.375C938.238 761.375 947.643 769.858 949.09 780.849H977.517C978.964 769.858 988.369 761.375 999.755 761.375C1011.14 761.375 1020.55 769.858 1021.99 780.849H1050.42C1051.74 770.826 1059.68 762.888 1069.7 761.568V733.142C1058.71 731.694 1050.23 722.289 1050.23 710.903C1050.23 699.517 1058.71 690.112 1069.7 688.665V660.238C1058.71 658.791 1050.23 649.386 1050.23 638C1050.23 625.611 1060.27 615.568 1072.66 615.568C1084.04 615.568 1093.45 624.052 1094.9 635.043H1123.32C1124.77 624.052 1134.18 615.568 1145.56 615.568C1156.95 615.568 1166.35 624.052 1167.8 635.043H1196.23C1197.55 625.019 1205.48 617.081 1215.51 615.761V587.335C1204.52 585.888 1196.03 576.483 1196.03 565.097C1196.03 553.71 1204.52 544.305 1215.51 542.858V514.432C1204.52 512.985 1196.03 503.58 1196.03 492.193C1196.03 479.805 1206.08 469.762 1218.47 469.762C1229.85 469.762 1239.26 478.245 1240.7 489.236H1269.13C1270.58 478.245 1279.98 469.762 1291.37 469.762C1302.75 469.762 1312.16 478.245 1313.61 489.236H1342.03C1343.35 479.213 1351.29 471.275 1361.31 469.955V441.529C1350.32 440.081 1341.84 430.676 1341.84 419.29C1341.84 407.904 1350.32 398.499 1361.31 397.051V368.625Z" fill="url(#paint0_linear_1542_1270)"/>
<circle cx="22.4318" cy="22.4318" r="22.4318" transform="matrix(-1 0 0 1 657.67 1052.99)" fill="#C1C7CD"/>
<circle cx="708.142" cy="200.58" r="22.4318" fill="#C1C7CD"/>
<circle cx="781.045" cy="200.58" r="22.4318" fill="#C1C7CD"/>
<circle cx="853.949" cy="200.58" r="22.4318" fill="#C1C7CD"/>
<circle cx="926.852" cy="200.58" r="22.4318" fill="#C1C7CD"/>
<circle cx="999.755" cy="200.58" r="22.4318" fill="#C1C7CD"/>
<circle cx="1072.66" cy="200.58" r="22.4318" fill="#C1C7CD"/>
<circle cx="1145.56" cy="200.58" r="22.4318" fill="#C1C7CD"/>
<circle cx="1218.47" cy="200.58" r="22.4318" fill="#C1C7CD"/>
<circle cx="1510.08" cy="200.58" r="22.4318" fill="#C1C7CD"/>
<circle cx="1291.37" cy="200.58" r="22.4318" fill="#C1C7CD"/>
<circle cx="1364.27" cy="200.58" r="22.4318" fill="#C1C7CD"/>
<circle cx="1437.18" cy="200.58" r="22.4318" fill="#C1C7CD"/>
<defs>
<linearGradient id="paint0_linear_1542_1270" x1="641.197" y1="952.045" x2="1345.7" y2="355.149" gradientUnits="userSpaceOnUse">
<stop stop-color="#0F62FE"/>
<stop offset="1" stop-color="#FF7EB6"/>
</linearGradient>
</defs>
</svg>
