<?xml version='1.0' encoding='utf-8'?>
<svg xmlns="http://www.w3.org/2000/svg" xmlns:ns1="http://sodipodi.sourceforge.net/DTD/sodipodi-0.dtd" xmlns:ns2="http://www.inkscape.org/namespaces/inkscape" version="1.1" id="svg1" width="100%" height="auto" viewBox="-20.0 -20.0 312.71414 279.83256" ns1:docname="svg_fix_XXXXXX.svg">
  <rect id="path1" x="-20.0" y="-20.0" width="312.71414" height="279.83256" fill="white" /><ns1:namedview id="namedview1" pagecolor="#ffffff" bordercolor="#000000" borderopacity="0.25" ns2:showpageshadow="2" ns2:pageopacity="0.0" ns2:pagecheckerboard="0" ns2:deskcolor="#d1d1d1" />
  <defs id="defs1" />
  <g id="g1" transform="translate(-166.00493,-49.84585)">
    <path id="path2" d="m 7.97021,85.04042 c 0,4.40188 -3.56834,7.97022 -7.97021,7.97022 -4.40187,0 -7.97021,-3.56834 -7.97021,-7.97022 0,-4.40189 3.56834,-7.97022 7.97021,-7.97022 4.40187,0 7.97021,3.56833 7.97021,7.97022 z" style="fill:#c9ddff;fill-opacity:1;fill-rule:nonzero;stroke:#121619;stroke-width:0.3985;stroke-linecap:butt;stroke-linejoin:miter;stroke-miterlimit:10;stroke-dasharray:none;stroke-opacity:1" transform="matrix(1.6666667,0,0,-1.6666667,302.362,205.19567)" />
    <g id="g2" aria-label="Q&#10;3" transform="matrix(1.6666667,0,0,1.6666667,293.69033,66.879)">
      <path id="path3" d="m 4.5287687,-0.26255625 c 0.7781251,-0.5625 1.2468751,-1.45312505 1.2468751,-2.47500005 0,-1.65 -1.209375,-2.9625 -2.6531251,-2.9625 -1.44375,0 -2.65312495,1.3125 -2.65312495,2.9625 0,1.65 1.22812505,2.90625005 2.65312495,2.90625005 0.3562501,0 0.6843751,-0.09375 0.76875,-0.121875 l 0.703125,0.97499995 h 0.9468751 z m -0.9937499,-0.178125 c -0.1312501,0.0375 -0.3093751,0.05625 -0.4125001,0.05625 -0.965625,0 -1.875,-0.90937505 -1.875,-2.35312505 0,-1.471875 0.9,-2.409375 1.875,-2.409375 0.984375,0 1.875,0.9375 1.875,2.409375 0,0.9 -0.3468749,1.584375 -0.84375,1.98750005 l -0.6375,-0.79687505 H 2.7381438 Z m 0,0" style="fill:#121619;fill-opacity:1;fill-rule:nonzero;stroke:none" />
      <path id="path4" d="m 8.0186125,-0.55318125 c 0.50625,0 0.84375,0.346875 0.84375,0.95625 0,0.65624995 -0.39375,0.93749995 -0.834375,0.93749995 -0.159375,0 -0.76875,-0.028125 -1.040625,-0.37499995 0.234375,-0.028125 0.328125,-0.1875 0.328125,-0.346875 0,-0.196875 -0.140625,-0.3375 -0.3375,-0.3375 -0.16875,0 -0.346875,0.103125 -0.346875,0.35625 0,0.59062495 0.65625,0.91874995 1.415625,0.91874995 0.890625,0 1.48125,-0.56249995 1.48125,-1.15312495 0,-0.440625 -0.3375,-0.9 -1.05,-1.078125 0.478125,-0.159375 0.8625,-0.54375005 0.8625,-1.03125005 0,-0.478125 -0.5625,-0.834375 -1.284375,-0.834375 -0.703125,0 -1.228125,0.31875 -1.228125,0.80625 0,0.2625 0.196875,0.3375 0.309375,0.3375 0.159375,0 0.31875,-0.1125 0.31875,-0.31875 0,-0.1875 -0.13125,-0.290625 -0.290625,-0.31875 0.28125,-0.309375 0.825,-0.309375 0.88125,-0.309375 0.3,0 0.684375,0.140625 0.684375,0.6375 0,0.328125 -0.1875,0.90000005 -0.778125,0.93750005 -0.1125,0.009375 -0.271875,0.01875 -0.328125,0.01875 -0.05625,0.009375 -0.121875,0.009375 -0.121875,0.103125 0,0.09375 0.065625,0.09375 0.16875,0.09375 z m 0,0" style="fill:#121619;fill-opacity:1;fill-rule:nonzero;stroke:none" />
    </g>
    <path id="path5" d="m -65.67456,-42.52019 c 0,4.40189 -3.56833,7.97022 -7.97022,7.97022 -4.40188,0 -7.97021,-3.56833 -7.97021,-7.97022 0,-4.40188 3.56833,-7.97021 7.97021,-7.97021 4.40189,0 7.97022,3.56833 7.97022,7.97021 z" style="fill:#c9ddff;fill-opacity:1;fill-rule:nonzero;stroke:#121619;stroke-width:0.3985;stroke-linecap:butt;stroke-linejoin:miter;stroke-miterlimit:10;stroke-dasharray:none;stroke-opacity:1" transform="matrix(1.6666667,0,0,-1.6666667,302.362,205.19567)" />
    <g id="g5" aria-label="Q&#10;1" transform="matrix(1.6666667,0,0,1.6666667,170.94867,279.479)">
      <path id="path6" d="m 4.5284562,-0.26161875 c 0.778125,-0.5625 1.246875,-1.45312505 1.246875,-2.47500005 0,-1.65 -1.209375,-2.9625 -2.653125,-2.9625 -1.44375,0 -2.65312495,1.3125 -2.65312495,2.9625 0,1.65 1.22812495,2.90625005 2.65312495,2.90625005 0.35625,0 0.684375,-0.09375 0.76875,-0.121875 l 0.703125,0.97499995 h 0.946875 z m -0.99375,-0.178125 c -0.13125,0.0375 -0.309375,0.05625 -0.4125,0.05625 -0.965625,0 -1.875,-0.90937505 -1.875,-2.35312505 0,-1.471875 0.9,-2.409375 1.875,-2.409375 0.984375,0 1.875,0.9375 1.875,2.409375 0,0.9 -0.346875,1.584375 -0.84375,1.98750005 l -0.6375,-0.79687505 h -0.778125 z m 0,0" style="fill:#121619;fill-opacity:1;fill-rule:nonzero;stroke:none" />
      <path id="path7" d="m 8.402675,-2.3616188 c 0,-0.178125 -0.028125,-0.178125 -0.20625,-0.178125 -0.39375,0.384375 -1.003125,0.384375 -1.21875,0.384375 v 0.225 c 0.159375,0 0.553125,0 0.909375,-0.159375 v 3.01875005 c 0,0.19687495 0,0.27187495 -0.61875,0.27187495 H 7.015175 v 0.234375 C 7.3433,1.4071312 7.81205,1.4071312 8.14955,1.4071312 c 0.328125,0 0.796875,0 1.125,0.028125 V 1.2008812 H 9.021425 c -0.61875,0 -0.61875,-0.075 -0.61875,-0.27187495 z m 0,0" style="fill:#121619;fill-opacity:1;fill-rule:nonzero;stroke:none" />
    </g>
    <path id="path8" d="m 81.61499,-42.52019 c 0,4.40189 -3.56833,7.97022 -7.97021,7.97022 -4.40189,0 -7.97022,-3.56833 -7.97022,-7.97022 0,-4.40188 3.56833,-7.97021 7.97022,-7.97021 4.40188,0 7.97021,3.56833 7.97021,7.97021 z" style="fill:#c9ddff;fill-opacity:1;fill-rule:nonzero;stroke:#121619;stroke-width:0.3985;stroke-linecap:butt;stroke-linejoin:miter;stroke-miterlimit:10;stroke-dasharray:none;stroke-opacity:1" transform="matrix(1.6666667,0,0,-1.6666667,302.362,205.19567)" />
    <g id="g8" aria-label="Q&#10;0" transform="matrix(1.6666667,0,0,1.6666667,416.432,279.479)">
      <path id="path9" d="m 4.5290812,-0.26161875 c 0.7781251,-0.5625 1.2468751,-1.45312505 1.2468751,-2.47500005 0,-1.65 -1.2093751,-2.9625 -2.6531251,-2.9625 -1.44375,0 -2.65312495,1.3125 -2.65312495,2.9625 0,1.65 1.22812505,2.90625005 2.65312495,2.90625005 0.3562501,0 0.6843751,-0.09375 0.7687501,-0.121875 l 0.703125,0.97499995 h 0.946875 z m -0.99375,-0.178125 c -0.13125,0.0375 -0.309375,0.05625 -0.4125,0.05625 -0.9656249,0 -1.875,-0.90937505 -1.875,-2.35312505 0,-1.471875 0.9,-2.409375 1.875,-2.409375 0.984375,0 1.875,0.9375 1.875,2.409375 0,0.9 -0.3468749,1.584375 -0.84375,1.98750005 L 3.5165813,-1.5459938 H 2.7384562 Z m 0,0" style="fill:#121619;fill-opacity:1;fill-rule:nonzero;stroke:none" />
      <path id="path10" d="m 9.5447062,-0.47724375 c 0,-0.43125 0,-2.06250005 -1.4624999,-2.06250005 -1.471875,0 -1.471875,1.63125005 -1.471875,2.06250005 0,0.43125 0,2.03437495 1.471875,2.03437495 1.4624999,0 1.4624999,-1.60312495 1.4624999,-2.03437495 z M 8.0822063,1.3696312 c -0.253125,0 -0.6656251,-0.121875 -0.8062501,-0.61874995 -0.09375,-0.346875 -0.09375,-0.928125 -0.09375,-1.303125 0,-0.403125 0,-0.86250005 0.084375,-1.18125005 0.1499999,-0.54375 0.5999999,-0.61875 0.815625,-0.61875 0.2718749,0 0.6656249,0.13125 0.796875,0.590625 0.09375,0.309375 0.09375,0.75 0.09375,1.20937505 0,0.384375 0,0.984375 -0.1031251,1.321875 C 8.7103312,1.2946312 8.2790812,1.3696312 8.0822063,1.3696312 Z m 0,0" style="fill:#121619;fill-opacity:1;fill-rule:nonzero;stroke:none" />
    </g>
    <path id="path11" d="m -28.8516,21.2598 c 0,4.40188 -3.56832,7.97021 -7.97021,7.97021 -4.40189,0 -7.97021,-3.56833 -7.97021,-7.97021 0,-4.40189 3.56832,-7.97022 7.97021,-7.97022 4.40189,0 7.97021,3.56833 7.97021,7.97022 z" style="fill:#c9ddff;fill-opacity:1;fill-rule:nonzero;stroke:#121619;stroke-width:0.3985;stroke-linecap:butt;stroke-linejoin:miter;stroke-miterlimit:10;stroke-dasharray:none;stroke-opacity:1" transform="matrix(1.6666667,0,0,-1.6666667,302.362,205.19567)" />
    <g id="g11" aria-label="Q&#10;5" transform="matrix(1.6666667,0,0,1.6666667,232.32033,173.179)">
      <path id="path12" d="m 4.5281125,-0.2620875 c 0.778125,-0.5625 1.246875,-1.453125 1.246875,-2.475 0,-1.65 -1.209375,-2.9625 -2.653125,-2.9625 -1.44375,0 -2.653125,1.3125 -2.653125,2.9625 0,1.65 1.228125,2.90625 2.653125,2.90625 0.35625,0 0.684375,-0.09375 0.76875,-0.121875 l 0.703125,0.975 h 0.946875 z m -0.99375,-0.178125 c -0.13125,0.0375 -0.309375,0.05625 -0.4125,0.05625 -0.965625,0 -1.875,-0.909375 -1.875,-2.353125 0,-1.471875 0.9,-2.409375 1.875,-2.409375 0.984375,0 1.875,0.9375 1.875,2.409375 0,0.9 -0.346875,1.584375 -0.84375,1.9875 l -0.6375,-0.796875 h -0.778125 z m 0,0" style="fill:#121619;fill-opacity:1;fill-rule:nonzero;stroke:none" />
      <path id="path13" d="m 7.2679562,-1.8839625 c 0.20625,0.05625 0.4125,0.075 0.6187501,0.075 0.1312499,0 0.4593749,0 0.8343749,-0.20625 0.1031251,-0.065625 0.4781251,-0.309375 0.4781251,-0.43125 0,-0.075 -0.05625,-0.09375 -0.084375,-0.09375 -0.01875,0 -0.028125,0 -0.09375,0.01875 -0.215625,0.084375 -0.515625,0.16875 -0.909375,0.16875 -0.290625,0 -0.609375,-0.05625 -0.8812499,-0.15 -0.05625,-0.028125 -0.084375,-0.0375 -0.1031251,-0.0375 -0.084375,0 -0.084375,0.065625 -0.084375,0.159375 v 1.790625 c 0,0.103125 0,0.178125 0.1031249,0.178125 0.05625,0 0.075,-0.028125 0.1125,-0.075 0.15,-0.1875 0.4125,-0.39375 0.88125,-0.39375 0.7312501,0 0.7312501,0.9 0.7312501,1.0875 0,0.234375 -0.00938,0.571875 -0.2156251,0.815625 -0.178125,0.225 -0.459375,0.31875 -0.7125,0.31875 -0.4125,0 -0.825,-0.225 -0.965625,-0.571875 0.290625,0 0.328125,-0.234375 0.328125,-0.309375 0,-0.159375 -0.13125,-0.309375 -0.31875,-0.309375 -0.046875,0 -0.3,0.0375 -0.3,0.3375 0,0.54375 0.515625,1.06875 1.275,1.06875 0.8156251,0 1.509375,-0.571875 1.509375,-1.321875 0,-0.684375 -0.54375,-1.303125 -1.321875,-1.303125 -0.384375,0 -0.6843749,0.121875 -0.88125,0.28125 z m 0,0" style="fill:#121619;fill-opacity:1;fill-rule:nonzero;stroke:none" />
    </g>
    <path id="path14" d="m 44.79202,21.2598 c 0,4.40188 -3.56832,7.97021 -7.97021,7.97021 -4.40189,0 -7.97021,-3.56833 -7.97021,-7.97021 0,-4.40189 3.56832,-7.97022 7.97021,-7.97022 4.40189,0 7.97021,3.56833 7.97021,7.97022 z" style="fill:#c9ddff;fill-opacity:1;fill-rule:nonzero;stroke:#121619;stroke-width:0.3985;stroke-linecap:butt;stroke-linejoin:miter;stroke-miterlimit:10;stroke-dasharray:none;stroke-opacity:1" transform="matrix(1.6666667,0,0,-1.6666667,302.362,205.19567)" />
    <g id="g14" aria-label="Q&#10;4" transform="matrix(1.6666667,0,0,1.6666667,355.06033,173.179)">
      <path id="path15" d="m 4.5270813,-0.2620875 c 0.7781249,-0.5625 1.2468749,-1.453125 1.2468749,-2.475 0,-1.65 -1.2093749,-2.9625 -2.6531249,-2.9625 -1.4437501,0 -2.65312505,1.3125 -2.65312505,2.9625 0,1.65 1.22812495,2.90625 2.65312505,2.90625 0.3562499,0 0.6843749,-0.09375 0.7687499,-0.121875 l 0.703125,0.975 h 0.946875 z m -0.99375,-0.178125 c -0.13125,0.0375 -0.3093751,0.05625 -0.4125,0.05625 -0.9656251,0 -1.875,-0.909375 -1.875,-2.353125 0,-1.471875 0.8999999,-2.409375 1.875,-2.409375 0.984375,0 1.875,0.9375 1.875,2.409375 0,0.9 -0.3468751,1.584375 -0.84375,1.9875 L 3.5145812,-1.5464625 H 2.7364563 Z m 0,0" style="fill:#121619;fill-opacity:1;fill-rule:nonzero;stroke:none" />
      <path id="path16" d="M 9.629425,0.4504125 V 0.2160375 H 8.9263 v -2.64375 c 0,-0.13125 0,-0.178125 -0.15,-0.178125 -0.103125,0 -0.121875,0.01875 -0.16875,0.09375 L 6.5263,0.2160375 v 0.234375 h 1.865625 v 0.478125 c 0,0.196875 0,0.271875 -0.50625,0.271875 h -0.16875 v 0.234375 c 0.1125,-0.00938 0.675,-0.028125 0.9375,-0.028125 0.271875,0 0.834375,0.01875 0.946875,0.028125 V 1.2004125 H 9.43255 c -0.50625,0 -0.50625,-0.075 -0.50625,-0.271875 v -0.478125 z m -1.2,-2.4 v 2.165625 H 6.7888 Z m 0,0" style="fill:#121619;fill-opacity:1;fill-rule:nonzero;stroke:none" />
    </g>
    <path id="path17" d="m 7.97021,-42.5195 c 0,4.40189 -3.56834,7.97021 -7.97021,7.97021 -4.40187,0 -7.97021,-3.56832 -7.97021,-7.97021 0,-4.40189 3.56834,-7.97022 7.97021,-7.97022 4.40187,0 7.97021,3.56833 7.97021,7.97022 z" style="fill:#c9ddff;fill-opacity:1;fill-rule:nonzero;stroke:#121619;stroke-width:0.3985;stroke-linecap:butt;stroke-linejoin:miter;stroke-miterlimit:10;stroke-dasharray:none;stroke-opacity:1" transform="matrix(1.6666667,0,0,-1.6666667,302.362,205.19567)" />
    <g id="g17" aria-label="Q&#10;2" transform="matrix(1.6666667,0,0,1.6666667,293.69033,279.479)">
      <path id="path18" d="m 4.5287687,-0.26161875 c 0.7781251,-0.5625 1.2468751,-1.45312505 1.2468751,-2.47500005 0,-1.65 -1.209375,-2.9625 -2.6531251,-2.9625 -1.44375,0 -2.65312495,1.3125 -2.65312495,2.9625 0,1.65 1.22812505,2.90625005 2.65312495,2.90625005 0.3562501,0 0.6843751,-0.09375 0.76875,-0.121875 l 0.703125,0.97499995 h 0.9468751 z m -0.9937499,-0.178125 c -0.1312501,0.0375 -0.3093751,0.05625 -0.4125001,0.05625 -0.965625,0 -1.875,-0.90937505 -1.875,-2.35312505 0,-1.471875 0.9,-2.409375 1.875,-2.409375 0.984375,0 1.875,0.9375 1.875,2.409375 0,0.9 -0.3468749,1.584375 -0.84375,1.98750005 l -0.6375,-0.79687505 H 2.7381438 Z m 0,0" style="fill:#121619;fill-opacity:1;fill-rule:nonzero;stroke:none" />
      <path id="path19" d="m 9.4717375,0.31963125 h -0.215625 c -0.01875,0.084375 -0.075,0.478125 -0.16875,0.54375 -0.0375,0.0375 -0.525,0.0375 -0.609375,0.0375 h -1.115625 l 0.76875,-0.628125 c 0.196875,-0.159375 0.73125,-0.54375 0.91875,-0.721875 0.178125,-0.178125 0.421875,-0.4875 0.421875,-0.90937505 0,-0.75 -0.675,-1.18125 -1.471875,-1.18125 -0.778125,0 -1.3125,0.50625 -1.3125,1.06875 0,0.3 0.253125,0.3375 0.31875,0.3375 0.15,0 0.328125,-0.103125 0.328125,-0.31875 0,-0.13125 -0.075,-0.328125 -0.346875,-0.328125 0.140625,-0.3 0.50625,-0.525 0.91875,-0.525 0.628125,0 0.965625,0.459375 0.965625,0.946875 0,0.42187505 -0.28125,0.86250005 -0.703125,1.24687505 L 6.7529875,1.1821312 c -0.05625,0.065625 -0.065625,0.065625 -0.065625,0.253125 h 2.596875 z m 0,0" style="fill:#121619;fill-opacity:1;fill-rule:nonzero;stroke:none" />
    </g>
    <path id="path20" d="M 7.97021,0 C 7.97021,4.40187 4.40187,7.97021 0,7.97021 -4.40187,7.97021 -7.97021,4.40187 -7.97021,0 c 0,-4.40187 3.56834,-7.97021 7.97021,-7.97021 4.40187,0 7.97021,3.56834 7.97021,7.97021 z" style="fill:#c9ddff;fill-opacity:1;fill-rule:nonzero;stroke:#121619;stroke-width:0.3985;stroke-linecap:butt;stroke-linejoin:miter;stroke-miterlimit:10;stroke-dasharray:none;stroke-opacity:1" transform="matrix(1.6666667,0,0,-1.6666667,302.362,205.19567)" />
    <g id="g20" aria-label="Q&#10;6" transform="matrix(1.6666667,0,0,1.6666667,293.69033,208.61233)">
      <path id="path21" d="m 4.5287687,-0.26193125 c 0.7781251,-0.5625 1.2468751,-1.45312505 1.2468751,-2.47500005 0,-1.65 -1.209375,-2.9625 -2.6531251,-2.9625 -1.44375,0 -2.65312495,1.3125 -2.65312495,2.9625 0,1.65 1.22812505,2.90625005 2.65312495,2.90625005 0.3562501,0 0.6843751,-0.09375 0.76875,-0.121875 l 0.703125,0.97499995 h 0.9468751 z m -0.9937499,-0.178125 c -0.1312501,0.0375 -0.3093751,0.05625 -0.4125001,0.05625 -0.965625,0 -1.875,-0.90937505 -1.875,-2.35312505 0,-1.471875 0.9,-2.409375 1.875,-2.409375 0.984375,0 1.875,0.9375 1.875,2.409375 0,0.9 -0.3468749,1.584375 -0.84375,1.98750005 l -0.6375,-0.79687505 H 2.7381438 Z m 0,0" style="fill:#121619;fill-opacity:1;fill-rule:nonzero;stroke:none" />
      <path id="path22" d="m 7.2311125,-0.54318125 c 0.00938,-0.3 0.01875,-0.79687505 0.225,-1.17187505 0.2625,-0.45 0.65625,-0.628125 1.021875,-0.628125 0.13125,0 0.4125,0.01875 0.553125,0.1875 -0.225,0.0375 -0.253125,0.196875 -0.253125,0.290625 0,0.15 0.103125,0.28125 0.28125,0.28125 0.178125,0 0.290625,-0.1125 0.290625,-0.290625 0,-0.365625 -0.271875,-0.665625 -0.88125,-0.665625 -0.928125,0 -1.8375,0.80625 -1.8375,2.08125005 0,1.453125 0.675,2.01562495 1.471875,2.01562495 0.225,0 0.6375,-0.028125 1.003125,-0.384375 0.1875,-0.18749995 0.421875,-0.43124995 0.421875,-0.95624995 0,-0.20625 -0.028125,-0.590625 -0.384375,-0.928125 -0.215625,-0.1875 -0.478125,-0.40312505 -0.984375,-0.40312505 -0.421875,0 -0.721875,0.21562505 -0.928125,0.57187505 z m 0.8625,1.88437495 c -0.84375,0 -0.84375,-1.02187495 -0.84375,-1.25624995 0,-0.515625 0.3375,-1.003125 0.88125,-1.003125 0.309375,0 0.4875,0.121875 0.628125,0.309375 0.16875,0.234375 0.16875,0.50625 0.16875,0.825 0,0.4125 -0.00938,0.61875 -0.215625,0.85312495 -0.140625,0.178125 -0.3375,0.271875 -0.61875,0.271875 z m 0,0" style="fill:#121619;fill-opacity:1;fill-rule:nonzero;stroke:none" />
    </g>
    <path id="path23" d="M -4.08423,77.96411 -32.73671,28.33418" style="fill:none;stroke:#121619;stroke-width:0.3985;stroke-linecap:butt;stroke-linejoin:miter;stroke-miterlimit:10;stroke-dasharray:none;stroke-opacity:1" transform="matrix(1.6666667,0,0,-1.6666667,302.362,205.19567)" />
    <path id="path24" d="M 4.08423,77.96411 32.73671,28.33418" style="fill:none;stroke:#121619;stroke-width:0.3985;stroke-linecap:butt;stroke-linejoin:miter;stroke-miterlimit:10;stroke-dasharray:none;stroke-opacity:1" transform="matrix(1.6666667,0,0,-1.6666667,302.362,205.19567)" />
    <path id="path25" d="M -29.7465,17.17477 -7.0747,4.08464" style="fill:none;stroke:#121619;stroke-width:0.3985;stroke-linecap:butt;stroke-linejoin:miter;stroke-miterlimit:10;stroke-dasharray:none;stroke-opacity:1" transform="matrix(1.6666667,0,0,-1.6666667,302.362,205.19567)" />
    <path id="path26" d="M -40.90578,14.18471 -69.55899,-35.4448" style="fill:none;stroke:#121619;stroke-width:0.3985;stroke-linecap:butt;stroke-linejoin:miter;stroke-miterlimit:10;stroke-dasharray:none;stroke-opacity:1" transform="matrix(1.6666667,0,0,-1.6666667,302.362,205.19567)" />
    <path id="path27" d="M 7.0747,4.08464 29.7465,17.17477" style="fill:none;stroke:#121619;stroke-width:0.3985;stroke-linecap:butt;stroke-linejoin:miter;stroke-miterlimit:10;stroke-dasharray:none;stroke-opacity:1" transform="matrix(1.6666667,0,0,-1.6666667,302.362,205.19567)" />
    <path id="path28" d="M 0,-8.1693 V -34.34947" style="fill:none;stroke:#121619;stroke-width:0.3985;stroke-linecap:butt;stroke-linejoin:miter;stroke-miterlimit:10;stroke-dasharray:none;stroke-opacity:1" transform="matrix(1.6666667,0,0,-1.6666667,302.362,205.19567)" />
    <path id="path29" d="M 40.90578,14.18471 69.55899,-35.4448" style="fill:none;stroke:#121619;stroke-width:0.3985;stroke-linecap:butt;stroke-linejoin:miter;stroke-miterlimit:10;stroke-dasharray:none;stroke-opacity:1" transform="matrix(1.6666667,0,0,-1.6666667,302.362,205.19567)" />
    <path id="path30" d="m -65.47443,-42.51941 57.30513,6e-4" style="fill:none;stroke:#121619;stroke-width:0.3985;stroke-linecap:butt;stroke-linejoin:miter;stroke-miterlimit:10;stroke-dasharray:none;stroke-opacity:1" transform="matrix(1.6666667,0,0,-1.6666667,302.362,205.19567)" />
    <path id="path31" d="m 8.1693,-42.51881 57.30513,-6e-4" style="fill:none;stroke:#121619;stroke-width:0.3985;stroke-linecap:butt;stroke-linejoin:miter;stroke-miterlimit:10;stroke-dasharray:none;stroke-opacity:1" transform="matrix(1.6666667,0,0,-1.6666667,302.362,205.19567)" />
    <path id="path32" d="m 5.4644562,-4.4914625 c 0.05625,-0.05625 0.09375,-0.103125 0.09375,-0.196875 0,-0.075 -0.05625,-0.075 -0.1875,-0.075 h -3.2625 c -0.1781249,0 -0.1875,0.00937 -0.2249999,0.140625 l -0.3937501,1.25625 c -0.028125,0.084375 -0.028125,0.084375 -0.028125,0.1125 0,0.028125 0.028125,0.09375 0.1218749,0.09375 0.09375,0 0.103125,-0.0375 0.121875,-0.1125 0.3375,-0.984375 0.8812501,-1.2375 1.7812501,-1.2375 h 1.25625 l -4.06875005,4.2 c -0.046875,0.046875 -0.1125,0.121875 -0.1125,0.234375 0,0.075 0.05625,0.075 0.1875,0.075 H 4.1238312 c 0.178125,0 0.1875,-0.009375 0.225,-0.140625 l 0.50625,-1.55625 c 0.028125,-0.084375 0.028125,-0.103125 0.028125,-0.1125 0,0 0,-0.09375 -0.1125001,-0.09375 -0.09375,0 -0.103125,0.028125 -0.15,0.178125 -0.328125,0.95625 -0.684375,1.44375 -1.8937499,1.44375 h -1.33125 z m 5.9156248,0 c 0.05625,-0.05625 0.09375,-0.103125 0.09375,-0.196875 0,-0.075 -0.05625,-0.075 -0.1875,-0.075 H 8.0238313 c -0.178125,0 -0.1875,0.00937 -0.225,0.140625 l -0.3937501,1.25625 c -0.028125,0.084375 -0.028125,0.084375 -0.028125,0.1125 0,0.028125 0.028125,0.09375 0.1218749,0.09375 0.09375,0 0.1031251,-0.0375 0.121875,-0.1125 0.3375,-0.984375 0.8812501,-1.2375 1.78125,-1.2375 h 1.2562499 l -4.0687499,4.2 c -0.046875,0.046875 -0.1124999,0.121875 -0.1124999,0.234375 0,0.075 0.05625,0.075 0.1875,0.075 h 3.3749998 c 0.178125,0 0.1875,-0.009375 0.225,-0.140625 l 0.50625,-1.55625 c 0.02812,-0.084375 0.02812,-0.103125 0.02812,-0.1125 0,0 0,-0.09375 -0.1125,-0.09375 -0.09375,0 -0.103125,0.028125 -0.15,0.178125 -0.328125,0.95625 -0.6843748,1.44375 -1.8937498,1.44375 h -1.331245 z m 5.913281,0 c 0.05625,-0.05625 0.09375,-0.103125 0.09375,-0.196875 0,-0.075 -0.05625,-0.075 -0.1875,-0.075 h -3.2625 c -0.178125,0 -0.1875,0.00937 -0.225,0.140625 l -0.393749,1.25625 c -0.02813,0.084375 -0.02813,0.084375 -0.02813,0.1125 0,0.028125 0.02813,0.09375 0.121876,0.09375 0.09375,0 0.103124,-0.0375 0.121874,-0.1125 0.337501,-0.984375 0.88125,-1.2375 1.78125,-1.2375 h 1.25625 l -4.06875,4.2 c -0.04687,0.046875 -0.1125,0.121875 -0.1125,0.234375 0,0.075 0.05625,0.075 0.1875,0.075 h 3.375 c 0.178126,0 0.1875,-0.009375 0.225001,-0.140625 l 0.506249,-1.55625 c 0.02813,-0.084375 0.02813,-0.103125 0.02813,-0.1125 0,0 0,-0.09375 -0.112499,-0.09375 -0.09375,0 -0.103126,0.028125 -0.150001,0.178125 -0.328125,0.95625 -0.684375,1.44375 -1.89375,1.44375 h -1.331249 z m 5.913282,0 c 0.05625,-0.05625 0.09375,-0.103125 0.09375,-0.196875 0,-0.075 -0.05625,-0.075 -0.1875,-0.075 h -3.2625 c -0.178125,0 -0.1875,0.00937 -0.225,0.140625 l -0.39375,1.25625 c -0.02812,0.084375 -0.02812,0.084375 -0.02812,0.1125 0,0.028125 0.02812,0.09375 0.121875,0.09375 0.09375,0 0.103125,-0.0375 0.121875,-0.1125 0.3375,-0.984375 0.88125,-1.2375 1.78125,-1.2375 h 1.25625 l -4.06875,4.2 c -0.04687,0.046875 -0.1125,0.121875 -0.1125,0.234375 0,0.075 0.05625,0.075 0.1875,0.075 h 3.375 c 0.178125,0 0.1875,-0.009375 0.225,-0.140625 l 0.50625,-1.55625 c 0.02812,-0.084375 0.02812,-0.103125 0.02812,-0.1125 0,0 0,-0.09375 -0.1125,-0.09375 -0.09375,0 -0.103125,0.028125 -0.15,0.178125 -0.328125,0.95625 -0.684375,1.44375 -1.89375,1.44375 h -1.33125 z m -21.6421878,10.93125 0.65625,-0.665625 c 0.9,-0.88125 1.1718751,-1.153125 1.8,-1.18125 0.084375,-0.00937 0.1687501,-0.00937 0.1687501,-0.15 0,-0.084375 -0.075,-0.103125 -0.09375,-0.103125 -0.2062501,0 -0.4500001,0.028125 -0.65625,0.028125 -0.1875,0 -0.6281251,-0.028125 -0.8156251,-0.028125 -0.046875,0 -0.1312499,0.01875 -0.1312499,0.15 0,0.00937 0,0.09375 0.1031249,0.103125 0.05625,0 0.234375,0.01875 0.234375,0.16875 0,0.103125 -0.1031249,0.215625 -0.178125,0.290625 -0.046875,0.046875 -0.9375,0.909375 -1.1906249,1.171875 L 0.74883125,4.8647875 c -0.009375,-0.028125 -0.028125,-0.075 -0.028125,-0.103125 0,-0.046875 0.13125,-0.159375 0.36562505,-0.16875 0.046875,0 0.1499999,-0.00937 0.1499999,-0.159375 0,0 -0.00937,-0.09375 -0.121875,-0.09375 -0.14999995,0 -0.31874995,0.01875 -0.46874995,0.01875 -0.140625,0 -0.309375,0.00938 -0.45,0.00938 -0.121875,0 -0.290625,0 -0.4125,-0.00938 -0.121875,-0.00937 -0.2625,-0.01875 -0.375,-0.01875 -0.0375,0 -0.15,0 -0.15,0.15 0,0.103125 0.09375,0.103125 0.20625,0.103125 0.403125,0 0.440625,0.065625 0.50625,0.20625 l 0.975,1.921875 -0.384375,0.39375 c -0.140625,0.121875 -0.46875,0.440625 -0.590625,0.571875 -0.853125,0.84375 -1.13437495,1.134375 -1.76250005,1.1625 -0.103125,0.00938 -0.178125,0.00938 -0.178125,0.159375 0,0.028125 0.01875,0.09375 0.1031251,0.09375 0.1968749,0 0.4312499,-0.028125 0.6468749,-0.028125 0.1125,0 0.29062505,0 0.41250005,0.00938 0.121875,0.00938 0.271875,0.01875 0.39375,0.01875 0.0375,0 0.15,0 0.15,-0.15 0,-0.09375 -0.084375,-0.103125 -0.13125,-0.103125 -0.065625,-0.00938 -0.215625,-0.028125 -0.215625,-0.16875 0,-0.1125 0.09375,-0.20625 0.24375,-0.35625 l 1.41562495,-1.3875 0.84375,1.65 c 0.0375,0.065625 0.046875,0.084375 0.046875,0.09375 0,0.0375 -0.13125,0.15 -0.375,0.16875 -0.05625,0.00938 -0.1499999,0.00938 -0.1499999,0.159375 0,0 0.00937,0.09375 0.1218749,0.09375 0.140625,0 0.31875,-0.01875 0.46875,-0.01875 0.140625,0 0.3000001,-0.00938 0.45,-0.00938 0.121875,0 0.28125,0 0.4125001,0.00938 0.1124999,0.00938 0.2624999,0.01875 0.375,0.01875 0.0375,0 0.15,0 0.15,-0.15 0,-0.103125 -0.09375,-0.103125 -0.2062501,-0.103125 -0.403125,0 -0.440625,-0.075 -0.5062499,-0.196875 z m 7.0640625,0 0.65625,-0.665625 c 0.9000003,-0.88125 1.1718753,-1.153125 1.8000003,-1.18125 0.08437,-0.00937 0.16875,-0.00937 0.16875,-0.15 0,-0.084375 -0.075,-0.103125 -0.09375,-0.103125 -0.20625,0 -0.45,0.028125 -0.65625,0.028125 -0.1875,0 -0.6281252,-0.028125 -0.8156252,-0.028125 -0.046875,0 -0.13125,0.01875 -0.13125,0.15 0,0.00937 0,0.09375 0.1031249,0.103125 0.05625,0 0.234375,0.01875 0.234375,0.16875 0,0.103125 -0.1031249,0.215625 -0.178125,0.290625 -0.046875,0.046875 -0.9375,0.909375 -1.1906249,1.171875 l -0.7125,-1.359375 c -0.00938,-0.028125 -0.028125,-0.075 -0.028125,-0.103125 0,-0.046875 0.1312501,-0.159375 0.3656251,-0.16875 0.046875,0 0.1499999,-0.00937 0.1499999,-0.159375 0,0 -0.00937,-0.09375 -0.121875,-0.09375 -0.15,0 -0.3187499,0.01875 -0.46875,0.01875 -0.140625,0 -0.3093749,0.00938 -0.4499999,0.00938 -0.1218751,0 -0.290625,0 -0.4125001,-0.00938 -0.121875,-0.00937 -0.2625,-0.01875 -0.375,-0.01875 -0.0375,0 -0.1499999,0 -0.1499999,0.15 0,0.103125 0.09375,0.103125 0.2062499,0.103125 0.4031251,0 0.4406251,0.065625 0.50625,0.20625 l 0.9750001,1.921875 -0.384375,0.39375 c -0.140625,0.121875 -0.46875,0.440625 -0.5906251,0.571875 -0.8531249,0.84375 -1.1343749,1.134375 -1.7625,1.1625 -0.103125,0.00938 -0.1781249,0.00938 -0.1781249,0.159375 0,0.028125 0.01875,0.09375 0.103125,0.09375 0.1968749,0 0.4312499,-0.028125 0.646875,-0.028125 0.1124999,0 0.290625,0 0.4124999,0.00938 0.121875,0.00938 0.271875,0.01875 0.3937501,0.01875 0.0375,0 0.1499999,0 0.1499999,-0.15 0,-0.09375 -0.084375,-0.103125 -0.13125,-0.103125 -0.065625,-0.00938 -0.2156249,-0.028125 -0.2156249,-0.16875 0,-0.1125 0.09375,-0.20625 0.24375,-0.35625 l 1.4156249,-1.3875 0.84375,1.65 c 0.0375,0.065625 0.046875,0.084375 0.046875,0.09375 0,0.0375 -0.13125,0.15 -0.375,0.16875 -0.05625,0.00938 -0.1499999,0.00938 -0.1499999,0.159375 0,0 0.00937,0.09375 0.1218749,0.09375 0.140625,0 0.31875,-0.01875 0.46875,-0.01875 0.140625,0 0.3000001,-0.00938 0.45,-0.00938 0.1218751,0 0.28125,0 0.4125001,0.00938 0.1125001,0.00938 0.2625001,0.01875 0.3750001,0.01875 0.0375,0 0.15,0 0.15,-0.15 0,-0.103125 -0.09375,-0.103125 -0.20625,-0.103125 -0.4031252,0 -0.4406252,-0.075 -0.5062501,-0.196875 z m 7.0710943,0 0.656249,-0.665625 c 0.900001,-0.88125 1.171875,-1.153125 1.8,-1.18125 0.08438,-0.00937 0.16875,-0.00937 0.16875,-0.15 0,-0.084375 -0.075,-0.103125 -0.09375,-0.103125 -0.20625,0 -0.45,0.028125 -0.65625,0.028125 -0.1875,0 -0.628125,-0.028125 -0.815625,-0.028125 -0.04687,0 -0.13125,0.01875 -0.13125,0.15 0,0.00937 0,0.09375 0.103125,0.103125 0.05625,0 0.234375,0.01875 0.234375,0.16875 0,0.103125 -0.103125,0.215625 -0.178124,0.290625 -0.04687,0.046875 -0.9375,0.909375 -1.190626,1.171875 l -0.7125,-1.359375 c -0.0094,-0.028125 -0.02812,-0.075 -0.02812,-0.103125 0,-0.046875 0.131249,-0.159375 0.365624,-0.16875 0.04687,0 0.150001,-0.00937 0.150001,-0.159375 0,0 -0.0094,-0.09375 -0.121876,-0.09375 -0.149999,0 -0.31875,0.01875 -0.46875,0.01875 -0.140625,0 -0.309375,0.00938 -0.45,0.00938 -0.121874,0 -0.290625,0 -0.412499,-0.00938 -0.121876,-0.00937 -0.262501,-0.01875 -0.375,-0.01875 -0.0375,0 -0.150001,0 -0.150001,0.15 0,0.103125 0.09375,0.103125 0.206251,0.103125 0.403124,0 0.440624,0.065625 0.50625,0.20625 l 0.974999,1.921875 -0.384375,0.39375 c -0.140625,0.121875 -0.46875,0.440625 -0.590624,0.571875 -0.853126,0.84375 -1.134376,1.134375 -1.762501,1.1625 -0.103124,0.00938 -0.178125,0.00938 -0.178125,0.159375 0,0.028125 0.01875,0.09375 0.103125,0.09375 0.196876,0 0.431251,-0.028125 0.646875,-0.028125 0.112501,0 0.290625,0 0.4125,0.00938 0.121876,0.00938 0.271876,0.01875 0.39375,0.01875 0.0375,0 0.150001,0 0.150001,-0.15 0,-0.09375 -0.08437,-0.103125 -0.13125,-0.103125 -0.06563,-0.00938 -0.215626,-0.028125 -0.215626,-0.16875 0,-0.1125 0.09375,-0.20625 0.24375,-0.35625 l 1.415626,-1.3875 0.843749,1.65 c 0.0375,0.065625 0.04687,0.084375 0.04687,0.09375 0,0.0375 -0.131249,0.15 -0.374999,0.16875 -0.05625,0.00938 -0.150001,0.00938 -0.150001,0.159375 0,0 0.0094,0.09375 0.121875,0.09375 0.140625,0 0.318751,-0.01875 0.46875,-0.01875 0.140625,0 0.3,-0.00938 0.45,-0.00938 0.121875,0 0.28125,0 0.4125,0.00938 0.112501,0.00938 0.2625,0.01875 0.375,0.01875 0.0375,0 0.15,0 0.15,-0.15 0,-0.103125 -0.09375,-0.103125 -0.20625,-0.103125 -0.403125,0 -0.440624,-0.075 -0.50625,-0.196875 z m 7.071093,0 0.65625,-0.665625 c 0.9,-0.88125 1.171875,-1.153125 1.8,-1.18125 0.08437,-0.00937 0.16875,-0.00937 0.16875,-0.15 0,-0.084375 -0.075,-0.103125 -0.09375,-0.103125 -0.20625,0 -0.45,0.028125 -0.65625,0.028125 -0.1875,0 -0.628125,-0.028125 -0.815625,-0.028125 -0.04687,0 -0.13125,0.01875 -0.13125,0.15 0,0.00937 0,0.09375 0.103125,0.103125 0.05625,0 0.234375,0.01875 0.234375,0.16875 0,0.103125 -0.103125,0.215625 -0.178125,0.290625 -0.04687,0.046875 -0.9375,0.909375 -1.190625,1.171875 l -0.7125,-1.359375 c -0.0094,-0.028125 -0.02812,-0.075 -0.02812,-0.103125 0,-0.046875 0.13125,-0.159375 0.365625,-0.16875 0.04687,0 0.15,-0.00937 0.15,-0.159375 0,0 -0.0094,-0.09375 -0.121875,-0.09375 -0.15,0 -0.31875,0.01875 -0.46875,0.01875 -0.140625,0 -0.309375,0.00938 -0.45,0.00938 -0.121875,0 -0.290625,0 -0.4125,-0.00938 -0.121875,-0.00937 -0.2625,-0.01875 -0.375,-0.01875 -0.0375,0 -0.15,0 -0.15,0.15 0,0.103125 0.09375,0.103125 0.20625,0.103125 0.403125,0 0.440625,0.065625 0.50625,0.20625 l 0.975,1.921875 -0.384375,0.39375 c -0.140625,0.121875 -0.46875,0.440625 -0.590625,0.571875 -0.853125,0.84375 -1.134375,1.134375 -1.7625,1.1625 -0.103125,0.00938 -0.178125,0.00938 -0.178125,0.159375 0,0.028125 0.01875,0.09375 0.103125,0.09375 0.196875,0 0.43125,-0.028125 0.646875,-0.028125 0.1125,0 0.290625,0 0.4125,0.00938 0.121875,0.00938 0.271875,0.01875 0.39375,0.01875 0.0375,0 0.15,0 0.15,-0.15 0,-0.09375 -0.08438,-0.103125 -0.13125,-0.103125 -0.06563,-0.00938 -0.215625,-0.028125 -0.215625,-0.16875 0,-0.1125 0.09375,-0.20625 0.24375,-0.35625 l 1.415625,-1.3875 0.84375,1.65 c 0.0375,0.065625 0.04687,0.084375 0.04687,0.09375 0,0.0375 -0.13125,0.15 -0.375,0.16875 -0.05625,0.00938 -0.15,0.00938 -0.15,0.159375 0,0 0.0094,0.09375 0.121875,0.09375 0.140625,0 0.31875,-0.01875 0.46875,-0.01875 0.140625,0 0.3,-0.00938 0.45,-0.00938 0.121875,0 0.28125,0 0.4125,0.00938 0.1125,0.00938 0.2625,0.01875 0.375,0.01875 0.0375,0 0.15,0 0.15,-0.15 0,-0.103125 -0.09375,-0.103125 -0.20625,-0.103125 -0.403125,0 -0.440625,-0.075 -0.50625,-0.196875 z m 0,0" style="fill:#121619;fill-opacity:1;fill-rule:nonzero;stroke:none" aria-label="ZZZZ&#10;XXXX" transform="matrix(1.6666667,0,0,1.6666667,282.63867,137.33733)" />
    <path id="path33" d="m 5.4652688,-4.4905562 c 0.05625,-0.05625 0.09375,-0.1031251 0.09375,-0.1968751 0,-0.075 -0.05625,-0.075 -0.1875,-0.075 H 2.1090187 c -0.178125,0 -0.1875,0.00938 -0.225,0.140625 l -0.3937499,1.25625 c -0.028125,0.084375 -0.028125,0.084375 -0.028125,0.1125 0,0.028125 0.028125,0.09375 0.1218751,0.09375 0.09375,0 0.1031249,-0.0375 0.121875,-0.1125 0.3375,-0.984375 0.8812499,-1.2375001 1.78125,-1.2375001 h 1.2562499 l -4.06874995,4.20000005 c -0.046875,0.046875 -0.1125,0.121875 -0.1125,0.234375 0,0.075 0.05625,0.075 0.1875,0.075 H 4.1246437 c 0.1781251,0 0.1875,-0.009375 0.2250001,-0.140625 l 0.50625,-1.55625005 c 0.028125,-0.084375 0.028125,-0.1031249 0.028125,-0.1124999 0,0 0,-0.09375 -0.1124999,-0.09375 -0.09375,0 -0.103125,0.028125 -0.15,0.178125 -0.328125,0.95624995 -0.6843751,1.44374995 -1.8937501,1.44374995 h -1.33125 z m 5.9132812,0 c 0.05625,-0.05625 0.09375,-0.1031251 0.09375,-0.1968751 0,-0.075 -0.05625,-0.075 -0.1875,-0.075 H 8.0223 c -0.178125,0 -0.1875,0.00938 -0.225,0.140625 l -0.39375,1.25625 c -0.028125,0.084375 -0.028125,0.084375 -0.028125,0.1125 0,0.028125 0.028125,0.09375 0.121875,0.09375 0.09375,0 0.103125,-0.0375 0.121875,-0.1125 0.3375,-0.984375 0.88125,-1.2375001 1.78125,-1.2375001 h 1.25625 l -4.06875,4.20000005 c -0.046875,0.046875 -0.1125,0.121875 -0.1125,0.234375 0,0.075 0.05625,0.075 0.1875,0.075 h 3.375 c 0.178125,0 0.1875,-0.009375 0.225,-0.140625 l 0.50625,-1.55625005 c 0.02812,-0.084375 0.02812,-0.1031249 0.02812,-0.1124999 0,0 0,-0.09375 -0.1125,-0.09375 -0.09375,0 -0.103125,0.028125 -0.15,0.178125 -0.328125,0.95624995 -0.684375,1.44374995 -1.89375,1.44374995 H 7.3098 Z m 5.915625,0 c 0.05625,-0.05625 0.09375,-0.1031251 0.09375,-0.1968751 0,-0.075 -0.05625,-0.075 -0.1875,-0.075 h -3.2625 c -0.178125,0 -0.1875,0.00938 -0.225,0.140625 l -0.39375,1.25625 c -0.02812,0.084375 -0.02812,0.084375 -0.02812,0.1125 0,0.028125 0.02812,0.09375 0.121875,0.09375 0.09375,0 0.103125,-0.0375 0.121875,-0.1125 0.3375,-0.984375 0.88125,-1.2375001 1.78125,-1.2375001 h 1.25625 l -4.06875,4.20000005 c -0.04687,0.046875 -0.1125,0.121875 -0.1125,0.234375 0,0.075 0.05625,0.075 0.1875,0.075 h 3.375 c 0.178125,0 0.1875,-0.009375 0.225,-0.140625 L 16.6848,-1.6968063 c 0.02812,-0.084375 0.02812,-0.1031249 0.02812,-0.1124999 0,0 0,-0.09375 -0.1125,-0.09375 -0.09375,0 -0.103125,0.028125 -0.15,0.178125 -0.328125,0.95624995 -0.684375,1.44374995 -1.89375,1.44374995 h -1.33125 z m 5.913281,0 c 0.05625,-0.05625 0.09375,-0.1031251 0.09375,-0.1968751 0,-0.075 -0.05625,-0.075 -0.1875,-0.075 h -3.2625 c -0.178125,0 -0.1875,0.00938 -0.225,0.140625 l -0.39375,1.25625 c -0.02812,0.084375 -0.02812,0.084375 -0.02812,0.1125 0,0.028125 0.02812,0.09375 0.121875,0.09375 0.09375,0 0.103125,-0.0375 0.121875,-0.1125 0.3375,-0.984375 0.88125,-1.2375001 1.78125,-1.2375001 h 1.25625 l -4.06875,4.20000005 c -0.04687,0.046875 -0.1125,0.121875 -0.1125,0.234375 0,0.075 0.05625,0.075 0.1875,0.075 h 3.375 c 0.178125,0 0.1875,-0.009375 0.225,-0.140625 l 0.50625,-1.55625005 c 0.02812,-0.084375 0.02812,-0.1031249 0.02812,-0.1124999 0,0 0,-0.09375 -0.1125,-0.09375 -0.09375,0 -0.103125,0.028125 -0.15,0.178125 -0.328125,0.95624995 -0.684375,1.44374995 -1.89375,1.44374995 h -1.33125 z m -21.6421872,10.93125 0.65625,-0.665625 c 0.9,-0.88125 1.171875,-1.153125 1.8,-1.1812501 0.084375,-0.00938 0.16875,-0.00938 0.16875,-0.15 0,-0.084375 -0.075,-0.1031249 -0.09375,-0.1031249 -0.2062501,0 -0.45,0.028125 -0.65625,0.028125 -0.1875,0 -0.6281251,-0.028125 -0.8156251,-0.028125 -0.046875,0 -0.13125,0.01875 -0.13125,0.1499999 0,0.00938 0,0.09375 0.1031251,0.103125 0.05625,0 0.234375,0.01875 0.234375,0.1687501 0,0.1031249 -0.1031251,0.215625 -0.178125,0.2906249 -0.046875,0.046875 -0.9375,0.9093751 -1.1906251,1.171875 L 0.74964375,4.8656937 c -0.009375,-0.028125 -0.028125,-0.075 -0.028125,-0.1031249 0,-0.046875 0.13125,-0.159375 0.36562495,-0.1687501 0.046875,0 0.1500001,-0.00938 0.1500001,-0.1593749 0,0 -0.00938,-0.09375 -0.121875,-0.09375 -0.15000005,0 -0.31875005,0.01875 -0.46875005,0.01875 -0.140625,0 -0.309375,0.00938 -0.45,0.00938 -0.121875,0 -0.290625,0 -0.4125,-0.00938 -0.121875,-0.00938 -0.2625,-0.01875 -0.375,-0.01875 -0.0375,0 -0.15,0 -0.15,0.1499999 0,0.103125 0.09375,0.103125 0.20625,0.103125 0.403125,0 0.440625,0.065625 0.50625,0.2062501 l 0.975,1.921875 -0.384375,0.3937499 c -0.140625,0.1218751 -0.46875,0.4406251 -0.590625,0.571875 -0.853125,0.84375 -1.13437505,1.1343751 -1.76249995,1.1625 -0.103125,0.00938 -0.1781251,0.00938 -0.1781251,0.1593751 0,0.028125 0.01875,0.09375 0.103125,0.09375 0.1968751,0 0.4312501,-0.028125 0.646875,-0.028125 0.1125001,0 0.29062505,0 0.41250005,0.00937 0.121875,0.00938 0.271875,0.01875 0.39375,0.01875 0.0375,0 0.15,0 0.15,-0.1500001 0,-0.09375 -0.084375,-0.103125 -0.13125,-0.103125 -0.065625,-0.00937 -0.215625,-0.028125 -0.215625,-0.1687499 0,-0.1125001 0.09375,-0.2062501 0.24375,-0.35625 l 1.41562505,-1.3875001 0.84375,1.6500001 c 0.0375,0.065625 0.046875,0.084375 0.046875,0.09375 0,0.0375 -0.13125,0.15 -0.375,0.1687499 -0.05625,0.00938 -0.1500001,0.00938 -0.1500001,0.1593751 0,0 0.00938,0.09375 0.1218751,0.09375 0.140625,0 0.31875,-0.01875 0.46875,-0.01875 0.140625,0 0.2999999,-0.00937 0.45,-0.00937 0.1218749,0 0.28125,0 0.4124999,0.00937 0.1125001,0.00938 0.2625001,0.01875 0.375,0.01875 0.0375,0 0.1500001,0 0.1500001,-0.1500001 0,-0.103125 -0.09375,-0.103125 -0.2062501,-0.103125 -0.4031249,0 -0.4406249,-0.075 -0.50625,-0.1968749 z m 7.0640625,0 0.65625,-0.665625 c 0.8999997,-0.88125 1.1718747,-1.153125 1.7999997,-1.1812501 0.08438,-0.00938 0.16875,-0.00938 0.16875,-0.15 0,-0.084375 -0.075,-0.1031249 -0.09375,-0.1031249 -0.20625,0 -0.45,0.028125 -0.65625,0.028125 -0.1875,0 -0.6281248,-0.028125 -0.8156248,-0.028125 -0.046875,0 -0.1312499,0.01875 -0.1312499,0.1499999 0,0.00938 0,0.09375 0.103125,0.103125 0.05625,0 0.234375,0.01875 0.234375,0.1687501 0,0.1031249 -0.103125,0.215625 -0.178125,0.2906249 -0.046875,0.046875 -0.9375,0.9093751 -1.190625,1.171875 L 7.8137062,4.8656937 c -0.00938,-0.028125 -0.028125,-0.075 -0.028125,-0.1031249 0,-0.046875 0.13125,-0.159375 0.365625,-0.1687501 0.046875,0 0.15,-0.00938 0.15,-0.1593749 0,0 -0.00938,-0.09375 -0.1218751,-0.09375 -0.1499999,0 -0.31875,0.01875 -0.46875,0.01875 -0.140625,0 -0.3093749,0.00938 -0.4499999,0.00938 -0.121875,0 -0.2906251,0 -0.4125,-0.00938 -0.1218751,-0.00938 -0.2625001,-0.01875 -0.375,-0.01875 -0.0375,0 -0.15,0 -0.15,0.1499999 0,0.103125 0.09375,0.103125 0.20625,0.103125 0.403125,0 0.4406249,0.065625 0.50625,0.2062501 l 0.975,1.921875 -0.3843751,0.3937499 c -0.140625,0.1218751 -0.46875,0.4406251 -0.5906249,0.571875 -0.853125,0.84375 -1.134375,1.1343751 -1.7625001,1.1625 -0.1031249,0.00938 -0.178125,0.00938 -0.178125,0.1593751 0,0.028125 0.01875,0.09375 0.1031251,0.09375 0.196875,0 0.43125,-0.028125 0.6468749,-0.028125 0.1125001,0 0.2906251,0 0.4125,0.00937 0.1218751,0.00938 0.2718751,0.01875 0.3937501,0.01875 0.0375,0 0.15,0 0.15,-0.1500001 0,-0.09375 -0.084375,-0.103125 -0.13125,-0.103125 -0.065625,-0.00937 -0.2156251,-0.028125 -0.2156251,-0.1687499 0,-0.1125001 0.09375,-0.2062501 0.2437501,-0.35625 l 1.415625,-1.3875001 0.84375,1.6500001 c 0.0375,0.065625 0.046875,0.084375 0.046875,0.09375 0,0.0375 -0.13125,0.15 -0.375,0.1687499 -0.05625,0.00938 -0.15,0.00938 -0.15,0.1593751 0,0 0.00938,0.09375 0.1218749,0.09375 0.140625,0 0.3187501,-0.01875 0.46875,-0.01875 0.140625,0 0.3000001,-0.00937 0.4500001,-0.00937 0.1218749,0 0.28125,0 0.4125,0.00937 0.1124998,0.00938 0.2624998,0.01875 0.3749998,0.01875 0.0375,0 0.15,0 0.15,-0.1500001 0,-0.103125 -0.09375,-0.103125 -0.20625,-0.103125 -0.4031248,0 -0.4406248,-0.075 -0.5062498,-0.1968749 z m 7.0710937,0 0.65625,-0.665625 c 0.9,-0.88125 1.171875,-1.153125 1.8,-1.1812501 0.08438,-0.00938 0.16875,-0.00938 0.16875,-0.15 0,-0.084375 -0.075,-0.1031249 -0.09375,-0.1031249 -0.20625,0 -0.45,0.028125 -0.65625,0.028125 -0.1875,0 -0.628125,-0.028125 -0.815625,-0.028125 -0.04687,0 -0.13125,0.01875 -0.13125,0.1499999 0,0.00938 0,0.09375 0.103125,0.103125 0.05625,0 0.234375,0.01875 0.234375,0.1687501 0,0.1031249 -0.103125,0.215625 -0.178125,0.2906249 -0.04687,0.046875 -0.9375,0.9093751 -1.190625,1.171875 l -0.7125,-1.359375 c -0.0094,-0.028125 -0.02813,-0.075 -0.02813,-0.1031249 0,-0.046875 0.13125,-0.159375 0.365625,-0.1687501 0.04687,0 0.15,-0.00938 0.15,-0.1593749 0,0 -0.0094,-0.09375 -0.121875,-0.09375 -0.15,0 -0.31875,0.01875 -0.46875,0.01875 -0.140625,0 -0.309375,0.00938 -0.45,0.00938 -0.121875,0 -0.290625,0 -0.4125,-0.00938 -0.121875,-0.00938 -0.2625,-0.01875 -0.375,-0.01875 -0.0375,0 -0.15,0 -0.15,0.1499999 0,0.103125 0.09375,0.103125 0.20625,0.103125 0.403125,0 0.440625,0.065625 0.50625,0.2062501 l 0.975,1.921875 -0.384375,0.3937499 c -0.140625,0.1218751 -0.46875,0.4406251 -0.590625,0.571875 -0.853125,0.84375 -1.134375,1.1343751 -1.7625,1.1625 -0.103125,0.00938 -0.178125,0.00938 -0.178125,0.1593751 0,0.028125 0.01875,0.09375 0.103125,0.09375 0.196875,0 0.43125,-0.028125 0.646875,-0.028125 0.1125,0 0.290625,0 0.4125,0.00937 0.121875,0.00938 0.271875,0.01875 0.39375,0.01875 0.0375,0 0.15,0 0.15,-0.1500001 0,-0.09375 -0.08437,-0.103125 -0.13125,-0.103125 -0.06562,-0.00937 -0.215625,-0.028125 -0.215625,-0.1687499 0,-0.1125001 0.09375,-0.2062501 0.24375,-0.35625 l 1.41563,-1.3874951 0.84375,1.6500001 c 0.0375,0.065625 0.04687,0.084375 0.04687,0.09375 0,0.0375 -0.13125,0.15 -0.375,0.1687499 -0.05625,0.00938 -0.15,0.00938 -0.15,0.1593751 0,0 0.0094,0.09375 0.121875,0.09375 0.140625,0 0.31875,-0.01875 0.46875,-0.01875 0.140625,0 0.3,-0.00937 0.45,-0.00937 0.121875,0 0.28125,0 0.4125,0.00937 0.1125,0.00938 0.2625,0.01875 0.375,0.01875 0.0375,0 0.15,0 0.15,-0.1500001 0,-0.103125 -0.09375,-0.103125 -0.20625,-0.103125 -0.403125,0 -0.440625,-0.075 -0.50625,-0.1968749 z m 7.071094,0 0.65625,-0.665625 c 0.9,-0.88125 1.171875,-1.153125 1.8,-1.1812501 0.08438,-0.00938 0.16875,-0.00938 0.16875,-0.15 0,-0.084375 -0.075,-0.1031249 -0.09375,-0.1031249 -0.20625,0 -0.45,0.028125 -0.65625,0.028125 -0.1875,0 -0.628125,-0.028125 -0.815625,-0.028125 -0.04687,0 -0.13125,0.01875 -0.13125,0.1499999 0,0.00938 0,0.09375 0.103125,0.103125 0.05625,0 0.234375,0.01875 0.234375,0.1687501 0,0.1031249 -0.103125,0.215625 -0.178125,0.2906249 -0.04687,0.046875 -0.9375,0.9093751 -1.190625,1.171875 l -0.7125,-1.359375 c -0.0094,-0.028125 -0.02812,-0.075 -0.02812,-0.1031249 0,-0.046875 0.13125,-0.159375 0.365625,-0.1687501 0.04687,0 0.15,-0.00938 0.15,-0.1593749 0,0 -0.0094,-0.09375 -0.121875,-0.09375 -0.15,0 -0.31875,0.01875 -0.46875,0.01875 -0.140625,0 -0.309375,0.00938 -0.45,0.00938 -0.121875,0 -0.290625,0 -0.4125,-0.00938 -0.121875,-0.00938 -0.2625,-0.01875 -0.375,-0.01875 -0.0375,0 -0.15,0 -0.15,0.1499999 0,0.103125 0.09375,0.103125 0.20625,0.103125 0.403125,0 0.440625,0.065625 0.50625,0.2062501 l 0.975,1.921875 -0.384375,0.3937499 c -0.140625,0.1218751 -0.46875,0.4406251 -0.590625,0.571875 -0.853125,0.84375 -1.134375,1.1343751 -1.7625,1.1625 -0.103125,0.00938 -0.178125,0.00938 -0.178125,0.1593751 0,0.028125 0.01875,0.09375 0.103125,0.09375 0.196875,0 0.43125,-0.028125 0.646875,-0.028125 0.1125,0 0.290625,0 0.4125,0.00937 0.121875,0.00938 0.271875,0.01875 0.39375,0.01875 0.0375,0 0.15,0 0.15,-0.1500001 0,-0.09375 -0.08438,-0.103125 -0.13125,-0.103125 -0.06563,-0.00937 -0.215625,-0.028125 -0.215625,-0.1687499 0,-0.1125001 0.09375,-0.2062501 0.24375,-0.35625 l 1.415625,-1.3875001 0.84375,1.6500001 c 0.0375,0.065625 0.04687,0.084375 0.04687,0.09375 0,0.0375 -0.13125,0.15 -0.375,0.1687499 -0.05625,0.00938 -0.15,0.00938 -0.15,0.1593751 0,0 0.0094,0.09375 0.121875,0.09375 0.140625,0 0.31875,-0.01875 0.46875,-0.01875 0.140625,0 0.3,-0.00937 0.45,-0.00937 0.121875,0 0.28125,0 0.4125,0.00937 0.1125,0.00938 0.2625,0.01875 0.375,0.01875 0.0375,0 0.15,0 0.15,-0.1500001 0,-0.103125 -0.09375,-0.103125 -0.20625,-0.103125 -0.403125,0 -0.440625,-0.075 -0.50625,-0.1968749 z m 0,0" style="fill:#121619;fill-opacity:1;fill-rule:nonzero;stroke:none" aria-label="ZZZZ&#10;XXXX" transform="matrix(1.6666667,0,0,1.6666667,235.442,236.55067)" />
    <path id="path34" d="m 5.4659875,-4.4905562 c 0.05625,-0.05625 0.09375,-0.1031251 0.09375,-0.1968751 0,-0.075 -0.05625,-0.075 -0.1875,-0.075 h -3.2625 c -0.178125,0 -0.1875,0.00938 -0.225,0.140625 l -0.39375,1.25625 c -0.028125,0.084375 -0.028125,0.084375 -0.028125,0.1125 0,0.028125 0.028125,0.09375 0.121875,0.09375 0.09375,0 0.103125,-0.0375 0.121875,-0.1125 0.3375,-0.984375 0.88125,-1.2375001 1.78125,-1.2375001 h 1.25625 l -4.06875,4.20000005 c -0.046875,0.046875 -0.1125,0.121875 -0.1125,0.234375 0,0.075 0.05625,0.075 0.1875,0.075 h 3.375 c 0.178125,0 0.1875,-0.009375 0.225,-0.140625 l 0.50625,-1.55625005 c 0.028125,-0.084375 0.028125,-0.1031249 0.028125,-0.1124999 0,0 0,-0.09375 -0.1125,-0.09375 -0.09375,0 -0.103125,0.028125 -0.15,0.178125 -0.328125,0.95624995 -0.684375,1.44374995 -1.89375,1.44374995 h -1.33125 z m 5.9132815,0 c 0.05625,-0.05625 0.09375,-0.1031251 0.09375,-0.1968751 0,-0.075 -0.05625,-0.075 -0.1875,-0.075 H 8.0230188 c -0.178125,0 -0.1875,0.00938 -0.225,0.140625 l -0.3937501,1.25625 c -0.028125,0.084375 -0.028125,0.084375 -0.028125,0.1125 0,0.028125 0.028125,0.09375 0.1218749,0.09375 0.09375,0 0.1031251,-0.0375 0.1218751,-0.1125 0.3375,-0.984375 0.88125,-1.2375001 1.78125,-1.2375001 h 1.2562503 l -4.0687503,4.20000005 c -0.046875,0.046875 -0.1125,0.121875 -0.1125,0.234375 0,0.075 0.05625,0.075 0.1875,0.075 h 3.3750003 c 0.178125,0 0.1875,-0.009375 0.225,-0.140625 l 0.50625,-1.55625005 c 0.02812,-0.084375 0.02812,-0.1031249 0.02812,-0.1124999 0,0 0,-0.09375 -0.1125,-0.09375 -0.09375,0 -0.103125,0.028125 -0.15,0.178125 -0.328125,0.95624995 -0.6843753,1.44374995 -1.8937503,1.44374995 h -1.331245 z m 5.913281,0 c 0.05625,-0.05625 0.09375,-0.1031251 0.09375,-0.1968751 0,-0.075 -0.05625,-0.075 -0.1875,-0.075 h -3.2625 c -0.178125,0 -0.1875,0.00938 -0.225,0.140625 l -0.39375,1.25625 c -0.02813,0.084375 -0.02813,0.084375 -0.02813,0.1125 0,0.028125 0.02813,0.09375 0.121875,0.09375 0.09375,0 0.103125,-0.0375 0.121875,-0.1125 0.3375,-0.984375 0.88125,-1.2375001 1.78125,-1.2375001 h 1.25625 l -4.06875,4.20000005 c -0.04687,0.046875 -0.1125,0.121875 -0.1125,0.234375 0,0.075 0.05625,0.075 0.1875,0.075 h 3.375 c 0.178125,0 0.1875,-0.009375 0.225,-0.140625 l 0.50625,-1.55625005 c 0.02813,-0.084375 0.02813,-0.1031249 0.02813,-0.1124999 0,0 0,-0.09375 -0.1125,-0.09375 -0.09375,0 -0.103125,0.028125 -0.15,0.178125 -0.328125,0.95624995 -0.684375,1.44374995 -1.89375,1.44374995 H 13.2238 Z m 5.913281,0 c 0.05625,-0.05625 0.09375,-0.1031251 0.09375,-0.1968751 0,-0.075 -0.05625,-0.075 -0.1875,-0.075 h -3.2625 c -0.178125,0 -0.1875,0.00938 -0.225,0.140625 l -0.39375,1.25625 c -0.02812,0.084375 -0.02812,0.084375 -0.02812,0.1125 0,0.028125 0.02812,0.09375 0.121875,0.09375 0.09375,0 0.103125,-0.0375 0.121875,-0.1125 0.3375,-0.984375 0.88125,-1.2375001 1.78125,-1.2375001 h 1.25625 l -4.06875,4.20000005 c -0.04687,0.046875 -0.1125,0.121875 -0.1125,0.234375 0,0.075 0.05625,0.075 0.1875,0.075 h 3.375 c 0.178125,0 0.1875,-0.009375 0.225,-0.140625 l 0.50625,-1.55625005 c 0.02812,-0.084375 0.02812,-0.1031249 0.02812,-0.1124999 0,0 0,-0.09375 -0.1125,-0.09375 -0.09375,0 -0.103125,0.028125 -0.15,0.178125 -0.328125,0.95624995 -0.684375,1.44374995 -1.89375,1.44374995 h -1.33125 z m -21.6421872,10.93125 0.65625,-0.665625 c 0.9,-0.88125 1.171875,-1.153125 1.8,-1.1812501 0.084375,-0.00938 0.16875,-0.00938 0.16875,-0.15 0,-0.084375 -0.075,-0.1031249 -0.09375,-0.1031249 -0.20625,0 -0.45,0.028125 -0.65625,0.028125 -0.1875,0 -0.628125,-0.028125 -0.815625,-0.028125 -0.046875,0 -0.13125,0.01875 -0.13125,0.1499999 0,0.00938 0,0.09375 0.103125,0.103125 0.05625,0 0.234375,0.01875 0.234375,0.1687501 0,0.1031249 -0.103125,0.215625 -0.178125,0.2906249 -0.046875,0.046875 -0.9375,0.9093751 -1.190625,1.171875 L 0.74801875,4.8656937 c -0.009375,-0.028125 -0.028125,-0.075 -0.028125,-0.1031249 0,-0.046875 0.13125,-0.159375 0.36562505,-0.1687501 0.046875,0 0.15,-0.00938 0.15,-0.1593749 0,0 -0.00937,-0.09375 -0.121875,-0.09375 -0.15000005,0 -0.31875005,0.01875 -0.46875005,0.01875 -0.140625,0 -0.309375,0.00938 -0.45,0.00938 -0.121875,0 -0.290625,0 -0.4125,-0.00938 -0.121875,-0.00938 -0.2625,-0.01875 -0.375,-0.01875 -0.0375,0 -0.15,0 -0.15,0.1499999 0,0.103125 0.09375,0.103125 0.20625,0.103125 0.403125,0 0.440625,0.065625 0.50625,0.2062501 l 0.975,1.921875 -0.384375,0.3937499 c -0.140625,0.1218751 -0.46875,0.4406251 -0.590625,0.571875 -0.853125,0.84375 -1.13437495,1.1343751 -1.76249995,1.1625 -0.103125,0.00938 -0.178125,0.00938 -0.178125,0.1593751 0,0.028125 0.01875,0.09375 0.103125,0.09375 0.196875,0 0.43125,-0.028125 0.646875,-0.028125 0.1125,0 0.29062495,0 0.41249995,0.00937 0.121875,0.00938 0.271875,0.01875 0.39375,0.01875 0.0375,0 0.15,0 0.15,-0.1500001 0,-0.09375 -0.084375,-0.103125 -0.13125,-0.103125 -0.065625,-0.00937 -0.215625,-0.028125 -0.215625,-0.1687499 0,-0.1125001 0.09375,-0.2062501 0.24375,-0.35625 l 1.41562505,-1.3875001 0.84375,1.6500001 c 0.0375,0.065625 0.046875,0.084375 0.046875,0.09375 0,0.0375 -0.13125,0.15 -0.375,0.1687499 -0.05625,0.00938 -0.15,0.00938 -0.15,0.1593751 0,0 0.00937,0.09375 0.121875,0.09375 0.140625,0 0.31875,-0.01875 0.46875,-0.01875 0.140625,0 0.3,-0.00937 0.45,-0.00937 0.121875,0 0.28125,0 0.4125,0.00937 0.1125,0.00938 0.2625,0.01875 0.375,0.01875 0.0375,0 0.15,0 0.15,-0.1500001 0,-0.103125 -0.09375,-0.103125 -0.20625,-0.103125 -0.403125,0 -0.440625,-0.075 -0.50625,-0.1968749 z m 7.0640625,0 0.65625,-0.665625 c 0.8999997,-0.88125 1.1718747,-1.153125 1.7999997,-1.1812501 0.08437,-0.00938 0.16875,-0.00938 0.16875,-0.15 0,-0.084375 -0.075,-0.1031249 -0.09375,-0.1031249 -0.20625,0 -0.45,0.028125 -0.65625,0.028125 -0.1875,0 -0.6281247,-0.028125 -0.8156247,-0.028125 -0.046875,0 -0.13125,0.01875 -0.13125,0.1499999 0,0.00938 0,0.09375 0.103125,0.103125 0.05625,0 0.234375,0.01875 0.234375,0.1687501 0,0.1031249 -0.103125,0.215625 -0.178125,0.2906249 -0.046875,0.046875 -0.9375,0.9093751 -1.190625,1.171875 l -0.7125,-1.359375 c -0.00938,-0.028125 -0.028125,-0.075 -0.028125,-0.1031249 0,-0.046875 0.13125,-0.159375 0.365625,-0.1687501 0.046875,0 0.15,-0.00938 0.15,-0.1593749 0,0 -0.00938,-0.09375 -0.121875,-0.09375 -0.15,0 -0.31875,0.01875 -0.4687501,0.01875 -0.140625,0 -0.3093749,0.00938 -0.4499999,0.00938 -0.121875,0 -0.290625,0 -0.4125,-0.00938 -0.1218751,-0.00938 -0.2625001,-0.01875 -0.375,-0.01875 -0.0375,0 -0.15,0 -0.15,0.1499999 0,0.103125 0.09375,0.103125 0.20625,0.103125 0.403125,0 0.440625,0.065625 0.50625,0.2062501 l 0.975,1.921875 -0.384375,0.3937499 c -0.140625,0.1218751 -0.46875,0.4406251 -0.590625,0.571875 -0.853125,0.84375 -1.134375,1.1343751 -1.7625001,1.1625 -0.1031249,0.00938 -0.1781249,0.00938 -0.1781249,0.1593751 0,0.028125 0.01875,0.09375 0.103125,0.09375 0.196875,0 0.43125,-0.028125 0.646875,-0.028125 0.1125,0 0.290625,0 0.4124999,0.00937 0.1218751,0.00938 0.2718751,0.01875 0.3937501,0.01875 0.0375,0 0.15,0 0.15,-0.1500001 0,-0.09375 -0.084375,-0.103125 -0.13125,-0.103125 -0.065625,-0.00937 -0.215625,-0.028125 -0.215625,-0.1687499 0,-0.1125001 0.09375,-0.2062501 0.24375,-0.35625 l 1.415625,-1.3875001 0.84375,1.6500001 c 0.0375,0.065625 0.046875,0.084375 0.046875,0.09375 0,0.0375 -0.13125,0.15 -0.375,0.1687499 -0.05625,0.00938 -0.15,0.00938 -0.15,0.1593751 0,0 0.00938,0.09375 0.121875,0.09375 0.140625,0 0.31875,-0.01875 0.46875,-0.01875 0.140625,0 0.3,-0.00937 0.45,-0.00937 0.121875,0 0.28125,0 0.4125,0.00937 0.1124997,0.00938 0.2624997,0.01875 0.3749997,0.01875 0.0375,0 0.15,0 0.15,-0.1500001 0,-0.103125 -0.09375,-0.103125 -0.20625,-0.103125 -0.4031247,0 -0.4406247,-0.075 -0.5062497,-0.1968749 z m 7.0734377,0 0.65625,-0.665625 c 0.9,-0.88125 1.171875,-1.153125 1.8,-1.1812501 0.08438,-0.00938 0.16875,-0.00938 0.16875,-0.15 0,-0.084375 -0.075,-0.1031249 -0.09375,-0.1031249 -0.20625,0 -0.45,0.028125 -0.65625,0.028125 -0.1875,0 -0.628125,-0.028125 -0.815625,-0.028125 -0.04687,0 -0.13125,0.01875 -0.13125,0.1499999 0,0.00938 0,0.09375 0.103125,0.103125 0.05625,0 0.234375,0.01875 0.234375,0.1687501 0,0.1031249 -0.103125,0.215625 -0.178125,0.2906249 -0.04687,0.046875 -0.9375,0.9093751 -1.190625,1.171875 l -0.7125,-1.359375 c -0.0094,-0.028125 -0.02813,-0.075 -0.02813,-0.1031249 0,-0.046875 0.13125,-0.159375 0.365625,-0.1687501 0.04687,0 0.15,-0.00938 0.15,-0.1593749 0,0 -0.0094,-0.09375 -0.121875,-0.09375 -0.15,0 -0.31875,0.01875 -0.46875,0.01875 -0.140625,0 -0.309375,0.00938 -0.45,0.00938 -0.121875,0 -0.290625,0 -0.4125,-0.00938 -0.121875,-0.00938 -0.2625,-0.01875 -0.375,-0.01875 -0.0375,0 -0.15,0 -0.15,0.1499999 0,0.103125 0.09375,0.103125 0.20625,0.103125 0.403125,0 0.440625,0.065625 0.50625,0.2062501 l 0.975,1.921875 -0.384375,0.3937499 c -0.140625,0.1218751 -0.46875,0.4406251 -0.590625,0.571875 -0.853125,0.84375 -1.134375,1.1343751 -1.7625,1.1625 -0.103125,0.00938 -0.178125,0.00938 -0.178125,0.1593751 0,0.028125 0.01875,0.09375 0.103125,0.09375 0.196875,0 0.43125,-0.028125 0.646875,-0.028125 0.1125,0 0.290625,0 0.4125,0.00937 0.121875,0.00938 0.271875,0.01875 0.39375,0.01875 0.0375,0 0.15,0 0.15,-0.1500001 0,-0.09375 -0.08437,-0.103125 -0.13125,-0.103125 -0.06562,-0.00937 -0.215625,-0.028125 -0.215625,-0.1687499 0,-0.1125001 0.09375,-0.2062501 0.24375,-0.35625 l 1.415625,-1.3875001 0.84375,1.6500001 c 0.0375,0.065625 0.04687,0.084375 0.04687,0.09375 0,0.0375 -0.13125,0.15 -0.375,0.1687499 -0.05625,0.00938 -0.15,0.00938 -0.15,0.1593751 0,0 0.0094,0.09375 0.121875,0.09375 0.140625,0 0.31875,-0.01875 0.46875,-0.01875 0.140625,0 0.3,-0.00937 0.45,-0.00937 0.121875,0 0.28125,0 0.4125,0.00937 0.1125,0.00938 0.2625,0.01875 0.375,0.01875 0.0375,0 0.15,0 0.15,-0.1500001 0,-0.103125 -0.09375,-0.103125 -0.20625,-0.103125 -0.403125,0 -0.440625,-0.075 -0.50625,-0.1968749 z m 7.071094,0 0.65625,-0.665625 c 0.9,-0.88125 1.171875,-1.153125 1.8,-1.1812501 0.08438,-0.00938 0.16875,-0.00938 0.16875,-0.15 0,-0.084375 -0.075,-0.1031249 -0.09375,-0.1031249 -0.20625,0 -0.45,0.028125 -0.65625,0.028125 -0.1875,0 -0.628125,-0.028125 -0.815625,-0.028125 -0.04687,0 -0.13125,0.01875 -0.13125,0.1499999 0,0.00938 0,0.09375 0.103125,0.103125 0.05625,0 0.234375,0.01875 0.234375,0.1687501 0,0.1031249 -0.103125,0.215625 -0.178125,0.2906249 -0.04687,0.046875 -0.9375,0.9093751 -1.190625,1.171875 l -0.7125,-1.359375 c -0.0094,-0.028125 -0.02812,-0.075 -0.02812,-0.1031249 0,-0.046875 0.13125,-0.159375 0.365625,-0.1687501 0.04687,0 0.15,-0.00938 0.15,-0.1593749 0,0 -0.0094,-0.09375 -0.121875,-0.09375 -0.15,0 -0.31875,0.01875 -0.46875,0.01875 -0.140625,0 -0.309375,0.00938 -0.45,0.00938 -0.121875,0 -0.290625,0 -0.4125,-0.00938 -0.121875,-0.00938 -0.2625,-0.01875 -0.375,-0.01875 -0.0375,0 -0.15,0 -0.15,0.1499999 0,0.103125 0.09375,0.103125 0.20625,0.103125 0.403125,0 0.440625,0.065625 0.50625,0.2062501 l 0.975,1.921875 -0.384375,0.3937499 c -0.140625,0.1218751 -0.46875,0.4406251 -0.590625,0.571875 -0.853125,0.84375 -1.134375,1.1343751 -1.7625,1.1625 -0.103125,0.00938 -0.178125,0.00938 -0.178125,0.1593751 0,0.028125 0.01875,0.09375 0.103125,0.09375 0.196875,0 0.43125,-0.028125 0.646875,-0.028125 0.1125,0 0.290625,0 0.4125,0.00937 0.121875,0.00938 0.271875,0.01875 0.39375,0.01875 0.0375,0 0.15,0 0.15,-0.1500001 0,-0.09375 -0.08438,-0.103125 -0.13125,-0.103125 -0.06563,-0.00937 -0.215625,-0.028125 -0.215625,-0.1687499 0,-0.1125001 0.09375,-0.2062501 0.24375,-0.35625 l 1.415625,-1.3875001 0.84375,1.6500001 c 0.0375,0.065625 0.04687,0.084375 0.04687,0.09375 0,0.0375 -0.13125,0.15 -0.375,0.1687499 -0.05625,0.00938 -0.15,0.00938 -0.15,0.1593751 0,0 0.0094,0.09375 0.121875,0.09375 0.140625,0 0.31875,-0.01875 0.46875,-0.01875 0.140625,0 0.3,-0.00937 0.45,-0.00937 0.121875,0 0.28125,0 0.4125,0.00937 0.1125,0.00938 0.2625,0.01875 0.375,0.01875 0.0375,0 0.15,0 0.15,-0.1500001 0,-0.103125 -0.09375,-0.103125 -0.20625,-0.103125 -0.403125,0 -0.440625,-0.075 -0.50625,-0.1968749 z m 0,0" style="fill:#121619;fill-opacity:1;fill-rule:nonzero;stroke:none" aria-label="ZZZZ&#10;XXXX" transform="matrix(1.6666667,0,0,1.6666667,329.83533,236.55067)" />
  </g>
</svg>