<?xml version="1.0" encoding="UTF-8"?><!DOCTYPE svg  PUBLIC '-//W3C//DTD SVG 1.1//EN'  'http://www.w3.org/Graphics/SVG/1.1/DTD/svg11.dtd'><svg width="730.04pt" height="450.13pt" version="1.1" viewBox="0 0 730.04 450.13" xmlns="http://www.w3.org/2000/svg" xmlns:xlink="http://www.w3.org/1999/xlink"><defs><style type="text/css">*{stroke-linejoin: round; stroke-linecap: butt}</style></defs><path d="m0 450.13h730.04v-450.13h-730.04z" fill="#ffffff"/><path d="m64.609 44.283h653.59" clip-path="url(#c5e0d2581a7)" fill="none" stroke="#000000" stroke-linecap="square" stroke-width="2"/><path d="m64.609 90.637h653.59" clip-path="url(#c5e0d2581a7)" fill="none" stroke="#000000" stroke-linecap="square" stroke-width="2"/><path d="m64.609 136.99h653.59" clip-path="url(#c5e0d2581a7)" fill="none" stroke="#000000" stroke-linecap="square" stroke-width="2"/><path d="m64.609 183.35h653.59" clip-path="url(#c5e0d2581a7)" fill="none" stroke="#000000" stroke-linecap="square" stroke-width="2"/><path d="m64.609 229.7h653.59" clip-path="url(#c5e0d2581a7)" fill="none" stroke="#000000" stroke-linecap="square" stroke-width="2"/><path d="m64.609 276.05h653.59" clip-path="url(#c5e0d2581a7)" fill="none" stroke="#000000" stroke-linecap="square" stroke-width="2"/><path d="m64.609 322.41h653.59" clip-path="url(#c5e0d2581a7)" fill="none" stroke="#000000" stroke-linecap="square" stroke-width="2"/><path d="m64.609 368.76h653.59" clip-path="url(#c5e0d2581a7)" fill="none" stroke="#000000" stroke-linecap="square" stroke-width="2"/><path d="m64.609 415.12h653.59" clip-path="url(#c5e0d2581a7)" fill="none" stroke="#000000" stroke-linecap="square" stroke-width="2"/><path d="m59.974 21.106h-1158.8v463.54h1158.8z" clip-path="url(#c5e0d2581a7)" fill="#ffffff" stroke="#ffffff" stroke-width="1.5"/><path d="m135.99 183.35v-139.06" clip-path="url(#c5e0d2581a7)" fill="none" stroke="#002d9c" stroke-linecap="square" stroke-width="2"/><path d="m182.35 183.35v-92.708" clip-path="url(#c5e0d2581a7)" fill="none" stroke="#002d9c" stroke-linecap="square" stroke-width="2"/><path d="m228.7 183.35v-46.354" clip-path="url(#c5e0d2581a7)" fill="none" stroke="#002d9c" stroke-linecap="square" stroke-width="2"/><path d="m367.76 322.41v-92.708" clip-path="url(#c5e0d2581a7)" fill="none" stroke="#002d9c" stroke-linecap="square" stroke-width="2"/><path d="m414.12 368.76v-139.06" clip-path="url(#c5e0d2581a7)" fill="none" stroke="#002d9c" stroke-linecap="square" stroke-width="2"/><path d="m460.47 415.12v-185.42" clip-path="url(#c5e0d2581a7)" fill="none" stroke="#002d9c" stroke-linecap="square" stroke-width="2"/><path d="m599.53 276.05v-231.77" clip-path="url(#c5e0d2581a7)" fill="none" stroke="#002d9c" stroke-linecap="square" stroke-width="2"/><path d="m645.89 276.05v-185.42" clip-path="url(#c5e0d2581a7)" fill="none" stroke="#002d9c" stroke-linecap="square" stroke-width="2"/><path d="m692.24 276.05v-139.06" clip-path="url(#c5e0d2581a7)" fill="none" stroke="#002d9c" stroke-linecap="square" stroke-width="2"/><path d="m74.575 59.348h30.13v-30.13h-30.13z" clip-path="url(#c5e0d2581a7)" fill="#9f1853" stroke="#9f1853" stroke-width="1.5"/><path d="m74.575 105.7h30.13v-30.13h-30.13z" clip-path="url(#c5e0d2581a7)" fill="#9f1853" stroke="#9f1853" stroke-width="1.5"/><path d="m74.575 152.06h30.13v-30.13h-30.13z" clip-path="url(#c5e0d2581a7)" fill="#9f1853" stroke="#9f1853" stroke-width="1.5"/><path d="m74.575 198.41h30.13v-30.13h-30.13z" clip-path="url(#c5e0d2581a7)" fill="#9f1853" stroke="#9f1853" stroke-width="1.5"/><path d="m74.575 337.47h30.13v-30.13h-30.13z" clip-path="url(#c5e0d2581a7)" fill="#9f1853" stroke="#9f1853" stroke-width="1.5"/><path d="m74.575 383.83h30.13v-30.13h-30.13z" clip-path="url(#c5e0d2581a7)" fill="#9f1853" stroke="#9f1853" stroke-width="1.5"/><path d="m74.575 430.18h30.13v-30.13h-30.13z" clip-path="url(#c5e0d2581a7)" fill="#9f1853" stroke="#9f1853" stroke-width="1.5"/><path d="m135.99 48.803c1.1986 0 2.3482-0.4762 3.1958-1.3237 0.84753-0.84753 1.3237-1.9972 1.3237-3.1958 0-1.1986-0.4762-2.3482-1.3237-3.1958-0.84753-0.84753-1.9972-1.3237-3.1958-1.3237-1.1986 0-2.3482 0.4762-3.1958 1.3237s-1.3237 1.9972-1.3237 3.1958c0 1.1986 0.4762 2.3482 1.3237 3.1958s1.9972 1.3237 3.1958 1.3237z" clip-path="url(#c5e0d2581a7)" fill="#002d9c" stroke="#002d9c" stroke-width="1.5"/><path d="m135.99 193.89c2.7967 0 5.4792-1.1111 7.4568-3.0887 1.9776-1.9776 3.0887-4.6601 3.0887-7.4568 0-2.7967-1.1111-5.4792-3.0887-7.4568-1.9776-1.9776-4.6601-3.0887-7.4568-3.0887-2.7967 0-5.4792 1.1111-7.4568 3.0887-1.9776 1.9776-3.0887 4.6601-3.0887 7.4568 0 2.7967 1.1111 5.4792 3.0887 7.4568 1.9776 1.9776 4.6601 3.0887 7.4568 3.0887z" clip-path="url(#c5e0d2581a7)" fill="#002d9c" stroke="#002d9c" stroke-width="2"/><path d="m182.35 95.157c1.1986 0 2.3482-0.4762 3.1958-1.3237 0.84753-0.84753 1.3237-1.9972 1.3237-3.1958s-0.4762-2.3482-1.3237-3.1958c-0.84753-0.84753-1.9972-1.3237-3.1958-1.3237s-2.3482 0.4762-3.1958 1.3237c-0.84753 0.84753-1.3237 1.9972-1.3237 3.1958s0.4762 2.3482 1.3237 3.1958c0.84753 0.84753 1.9972 1.3237 3.1958 1.3237z" clip-path="url(#c5e0d2581a7)" fill="#002d9c" stroke="#002d9c" stroke-width="1.5"/><path d="m182.35 193.89c2.7967 0 5.4792-1.1111 7.4568-3.0887 1.9776-1.9776 3.0887-4.6601 3.0887-7.4568 0-2.7967-1.1111-5.4792-3.0887-7.4568-1.9776-1.9776-4.6601-3.0887-7.4568-3.0887-2.7967 0-5.4792 1.1111-7.4568 3.0887-1.9776 1.9776-3.0887 4.6601-3.0887 7.4568 0 2.7967 1.1111 5.4792 3.0887 7.4568 1.9776 1.9776 4.6601 3.0887 7.4568 3.0887z" clip-path="url(#c5e0d2581a7)" fill="#002d9c" stroke="#002d9c" stroke-width="2"/><path d="m228.7 141.51c1.1986 0 2.3482-0.4762 3.1958-1.3237s1.3237-1.9972 1.3237-3.1958c0-1.1986-0.4762-2.3482-1.3237-3.1958-0.84753-0.84753-1.9972-1.3237-3.1958-1.3237-1.1986 0-2.3482 0.4762-3.1958 1.3237-0.84753 0.84753-1.3237 1.9972-1.3237 3.1958 0 1.1986 0.4762 2.3482 1.3237 3.1958 0.84753 0.84753 1.9972 1.3237 3.1958 1.3237z" clip-path="url(#c5e0d2581a7)" fill="#002d9c" stroke="#002d9c" stroke-width="1.5"/><path d="m228.7 193.89c2.7967 0 5.4792-1.1111 7.4568-3.0887 1.9776-1.9776 3.0887-4.6601 3.0887-7.4568 0-2.7967-1.1111-5.4792-3.0887-7.4568-1.9776-1.9776-4.6601-3.0887-7.4568-3.0887-2.7967 0-5.4792 1.1111-7.4568 3.0887-1.9776 1.9776-3.0887 4.6601-3.0887 7.4568 0 2.7967 1.1111 5.4792 3.0887 7.4568 1.9776 1.9776 4.6601 3.0887 7.4568 3.0887z" clip-path="url(#c5e0d2581a7)" fill="#002d9c" stroke="#002d9c" stroke-width="2"/><path d="m259.52 244.76h77.434v-76.484h-77.434z" clip-path="url(#c5e0d2581a7)" fill="#9f1853" stroke="#9f1853" stroke-width="1.5"/><path d="m367.76 234.22c1.1986 0 2.3482-0.4762 3.1958-1.3237 0.84753-0.84753 1.3237-1.9972 1.3237-3.1958s-0.4762-2.3482-1.3237-3.1958c-0.84753-0.84753-1.9972-1.3237-3.1958-1.3237-1.1986 0-2.3482 0.4762-3.1958 1.3237-0.84753 0.84753-1.3237 1.9972-1.3237 3.1958s0.4762 2.3482 1.3237 3.1958c0.84753 0.84753 1.9972 1.3237 3.1958 1.3237z" clip-path="url(#c5e0d2581a7)" fill="#002d9c" stroke="#002d9c" stroke-width="1.5"/><path d="m367.76 332.95c2.7967 0 5.4792-1.1111 7.4568-3.0887 1.9776-1.9776 3.0887-4.6601 3.0887-7.4568 0-2.7967-1.1111-5.4792-3.0887-7.4568-1.9776-1.9776-4.6601-3.0887-7.4568-3.0887-2.7967 0-5.4792 1.1111-7.4568 3.0887-1.9776 1.9776-3.0887 4.6601-3.0887 7.4568 0 2.7967 1.1111 5.4792 3.0887 7.4568 1.9776 1.9776 4.6601 3.0887 7.4568 3.0887z" clip-path="url(#c5e0d2581a7)" fill="#002d9c" stroke="#002d9c" stroke-width="2"/><path d="m414.12 234.22c1.1986 0 2.3482-0.4762 3.1958-1.3237 0.84753-0.84753 1.3237-1.9972 1.3237-3.1958s-0.4762-2.3482-1.3237-3.1958c-0.84753-0.84753-1.9972-1.3237-3.1958-1.3237-1.1986 0-2.3482 0.4762-3.1958 1.3237-0.84753 0.84753-1.3237 1.9972-1.3237 3.1958s0.4762 2.3482 1.3237 3.1958c0.84753 0.84753 1.9972 1.3237 3.1958 1.3237z" clip-path="url(#c5e0d2581a7)" fill="#002d9c" stroke="#002d9c" stroke-width="1.5"/><path d="m414.12 379.31c2.7967 0 5.4792-1.1111 7.4568-3.0887 1.9776-1.9776 3.0887-4.6601 3.0887-7.4568 0-2.7967-1.1111-5.4792-3.0887-7.4568s-4.6601-3.0887-7.4568-3.0887c-2.7967 0-5.4792 1.1111-7.4568 3.0887-1.9776 1.9776-3.0887 4.6601-3.0887 7.4568 0 2.7967 1.1111 5.4792 3.0887 7.4568 1.9776 1.9776 4.6601 3.0887 7.4568 3.0887z" clip-path="url(#c5e0d2581a7)" fill="#002d9c" stroke="#002d9c" stroke-width="2"/><path d="m460.47 234.22c1.1986 0 2.3482-0.4762 3.1958-1.3237 0.84753-0.84753 1.3237-1.9972 1.3237-3.1958s-0.4762-2.3482-1.3237-3.1958c-0.84753-0.84753-1.9972-1.3237-3.1958-1.3237-1.1986 0-2.3482 0.4762-3.1958 1.3237-0.84753 0.84753-1.3237 1.9972-1.3237 3.1958s0.4762 2.3482 1.3237 3.1958c0.84753 0.84753 1.9972 1.3237 3.1958 1.3237z" clip-path="url(#c5e0d2581a7)" fill="#002d9c" stroke="#002d9c" stroke-width="1.5"/><path d="m460.47 425.66c2.7967 0 5.4792-1.1111 7.4568-3.0887 1.9776-1.9776 3.0887-4.6601 3.0887-7.4568 0-2.7967-1.1111-5.4792-3.0887-7.4568-1.9776-1.9776-4.6601-3.0887-7.4568-3.0887-2.7967 0-5.4792 1.1111-7.4568 3.0887-1.9776 1.9776-3.0887 4.6601-3.0887 7.4568 0 2.7967 1.1111 5.4792 3.0887 7.4568 1.9776 1.9776 4.6601 3.0887 7.4568 3.0887z" clip-path="url(#c5e0d2581a7)" fill="#002d9c" stroke="#002d9c" stroke-width="2"/><path d="m491.29 291.12h77.434v-76.484h-77.434z" clip-path="url(#c5e0d2581a7)" fill="#9f1853" stroke="#9f1853" stroke-width="1.5"/><path d="m599.53 48.803c1.1986 0 2.3482-0.4762 3.1958-1.3237s1.3237-1.9972 1.3237-3.1958c0-1.1986-0.4762-2.3482-1.3237-3.1958s-1.9972-1.3237-3.1958-1.3237c-1.1986 0-2.3482 0.4762-3.1958 1.3237-0.84753 0.84753-1.3237 1.9972-1.3237 3.1958 0 1.1986 0.4762 2.3482 1.3237 3.1958 0.84753 0.84753 1.9972 1.3237 3.1958 1.3237z" clip-path="url(#c5e0d2581a7)" fill="#002d9c" stroke="#002d9c" stroke-width="1.5"/><path d="m599.53 286.6c2.7967 0 5.4792-1.1111 7.4568-3.0887 1.9776-1.9776 3.0887-4.6601 3.0887-7.4568 0-2.7967-1.1111-5.4792-3.0887-7.4568-1.9776-1.9776-4.6601-3.0887-7.4568-3.0887-2.7967 0-5.4792 1.1111-7.4568 3.0887-1.9776 1.9776-3.0887 4.6601-3.0887 7.4568 0 2.7967 1.1111 5.4792 3.0887 7.4568 1.9776 1.9776 4.6601 3.0887 7.4568 3.0887z" clip-path="url(#c5e0d2581a7)" fill="#002d9c" stroke="#002d9c" stroke-width="2"/><path d="m645.89 95.157c1.1986 0 2.3482-0.4762 3.1958-1.3237 0.84753-0.84753 1.3237-1.9972 1.3237-3.1958s-0.4762-2.3482-1.3237-3.1958c-0.84753-0.84753-1.9972-1.3237-3.1958-1.3237-1.1986 0-2.3482 0.4762-3.1958 1.3237-0.84753 0.84753-1.3237 1.9972-1.3237 3.1958s0.4762 2.3482 1.3237 3.1958c0.84753 0.84753 1.9972 1.3237 3.1958 1.3237z" clip-path="url(#c5e0d2581a7)" fill="#002d9c" stroke="#002d9c" stroke-width="1.5"/><path d="m645.89 286.6c2.7967 0 5.4792-1.1111 7.4568-3.0887 1.9776-1.9776 3.0887-4.6601 3.0887-7.4568 0-2.7967-1.1111-5.4792-3.0887-7.4568-1.9776-1.9776-4.6601-3.0887-7.4568-3.0887-2.7967 0-5.4792 1.1111-7.4568 3.0887-1.9776 1.9776-3.0887 4.6601-3.0887 7.4568 0 2.7967 1.1111 5.4792 3.0887 7.4568 1.9776 1.9776 4.6601 3.0887 7.4568 3.0887z" clip-path="url(#c5e0d2581a7)" fill="#002d9c" stroke="#002d9c" stroke-width="2"/><path d="m692.24 141.51c1.1986 0 2.3482-0.4762 3.1958-1.3237 0.84753-0.84753 1.3237-1.9972 1.3237-3.1958 0-1.1986-0.4762-2.3482-1.3237-3.1958-0.84753-0.84753-1.9972-1.3237-3.1958-1.3237s-2.3482 0.4762-3.1958 1.3237c-0.84753 0.84753-1.3237 1.9972-1.3237 3.1958 0 1.1986 0.4762 2.3482 1.3237 3.1958 0.84753 0.84753 1.9972 1.3237 3.1958 1.3237z" clip-path="url(#c5e0d2581a7)" fill="#002d9c" stroke="#002d9c" stroke-width="1.5"/><path d="m692.24 286.6c2.7967 0 5.4792-1.1111 7.4568-3.0887 1.9776-1.9776 3.0887-4.6601 3.0887-7.4568 0-2.7967-1.1111-5.4792-3.0887-7.4568-1.9776-1.9776-4.6601-3.0887-7.4568-3.0887-2.7967 0-5.4792 1.1111-7.4568 3.0887-1.9776 1.9776-3.0887 4.6601-3.0887 7.4568 0 2.7967 1.1111 5.4792 3.0887 7.4568 1.9776 1.9776 4.6601 3.0887 7.4568 3.0887z" clip-path="url(#c5e0d2581a7)" fill="#002d9c" stroke="#002d9c" stroke-width="2"/><path d="m135.99 189.37v-12.052" clip-path="url(#c5e0d2581a7)" fill="none" stroke="#ffffff" stroke-linecap="square" stroke-width="2"/><path d="m129.97 183.35h12.052" clip-path="url(#c5e0d2581a7)" fill="none" stroke="#ffffff" stroke-linecap="square" stroke-width="2"/><path d="m182.35 189.37v-12.052" clip-path="url(#c5e0d2581a7)" fill="none" stroke="#ffffff" stroke-linecap="square" stroke-width="2"/><path d="m176.32 183.35h12.052" clip-path="url(#c5e0d2581a7)" fill="none" stroke="#ffffff" stroke-linecap="square" stroke-width="2"/><path d="m228.7 189.37v-12.052" clip-path="url(#c5e0d2581a7)" fill="none" stroke="#ffffff" stroke-linecap="square" stroke-width="2"/><path d="m222.68 183.35h12.052" clip-path="url(#c5e0d2581a7)" fill="none" stroke="#ffffff" stroke-linecap="square" stroke-width="2"/><path d="m367.76 328.43v-12.052" clip-path="url(#c5e0d2581a7)" fill="none" stroke="#ffffff" stroke-linecap="square" stroke-width="2"/><path d="m361.74 322.41h12.052" clip-path="url(#c5e0d2581a7)" fill="none" stroke="#ffffff" stroke-linecap="square" stroke-width="2"/><path d="m414.12 374.79v-12.052" clip-path="url(#c5e0d2581a7)" fill="none" stroke="#ffffff" stroke-linecap="square" stroke-width="2"/><path d="m408.09 368.76h12.052" clip-path="url(#c5e0d2581a7)" fill="none" stroke="#ffffff" stroke-linecap="square" stroke-width="2"/><path d="m460.47 421.14v-12.052" clip-path="url(#c5e0d2581a7)" fill="none" stroke="#ffffff" stroke-linecap="square" stroke-width="2"/><path d="m454.45 415.12h12.052" clip-path="url(#c5e0d2581a7)" fill="none" stroke="#ffffff" stroke-linecap="square" stroke-width="2"/><path d="m599.53 282.08v-12.052" clip-path="url(#c5e0d2581a7)" fill="none" stroke="#ffffff" stroke-linecap="square" stroke-width="2"/><path d="m593.51 276.05h12.052" clip-path="url(#c5e0d2581a7)" fill="none" stroke="#ffffff" stroke-linecap="square" stroke-width="2"/><path d="m645.89 282.08v-12.052" clip-path="url(#c5e0d2581a7)" fill="none" stroke="#ffffff" stroke-linecap="square" stroke-width="2"/><path d="m639.86 276.05h12.052" clip-path="url(#c5e0d2581a7)" fill="none" stroke="#ffffff" stroke-linecap="square" stroke-width="2"/><path d="m692.24 282.08v-12.052" clip-path="url(#c5e0d2581a7)" fill="none" stroke="#ffffff" stroke-linecap="square" stroke-width="2"/><path d="m686.22 276.05h12.052" clip-path="url(#c5e0d2581a7)" fill="none" stroke="#ffffff" stroke-linecap="square" stroke-width="2"/><g clip-path="url(#c5e0d2581a7)"><g transform="translate(37.301 48.734) scale(.1625 -.1625)"><defs><path id="DejaVuSans-Oblique-71" transform="scale(.015625)" d="m2669 525q-231-303-546-460-314-156-695-156-531 0-833 358-301 358-301 986 0 506 186 978t533 847q225 244 517 375t614 131q387 0 637-153t363-462l100 525h578l-934-4813h-579l360 1844zm-1778 813q0-463 193-705 194-242 560-242 544 0 928 520t384 1264q0 450-199 689-198 239-569 239-272 0-504-127-231-126-403-370-181-256-286-600-104-343-104-668z"/><path id="DejaVuSans-30" transform="scale(.015625)" d="m2034 4250q-487 0-733-480-245-479-245-1442 0-959 245-1439 246-480 733-480 491 0 736 480 246 480 246 1439 0 963-246 1442-245 480-736 480zm0 500q785 0 1199-621 414-620 414-1801 0-1178-414-1799-414-620-1199-620-784 0-1198 620-414 621-414 1799 0 1181 414 1801 414 621 1198 621z"/></defs><use xlink:href="#DejaVuSans-Oblique-71"/><use transform="translate(63.477 -16.406) scale(.7)" xlink:href="#DejaVuSans-30"/></g></g><g clip-path="url(#c5e0d2581a7)"><g transform="translate(37.301 95.088) scale(.1625 -.1625)"><defs><path id="DejaVuSans-31" transform="scale(.015625)" d="m794 531h1031v3560l-1122-225v575l1116 225h631v-4135h1031v-531h-2687v531z"/></defs><use xlink:href="#DejaVuSans-Oblique-71"/><use transform="translate(63.477 -16.406) scale(.7)" xlink:href="#DejaVuSans-31"/></g></g><g clip-path="url(#c5e0d2581a7)"><g transform="translate(37.301 141.44) scale(.1625 -.1625)"><defs><path id="DejaVuSans-32" transform="scale(.015625)" d="m1228 531h2203v-531h-2962v531q359 372 979 998 621 627 780 809 303 340 423 576 121 236 121 464 0 372-261 606-261 235-680 235-297 0-627-103-329-103-704-313v638q381 153 712 231 332 78 607 78 725 0 1156-363 431-362 431-968 0-288-108-546-107-257-392-607-78-91-497-524-418-433-1181-1211z"/></defs><use xlink:href="#DejaVuSans-Oblique-71"/><use transform="translate(63.477 -16.406) scale(.7)" xlink:href="#DejaVuSans-32"/></g></g><g clip-path="url(#c5e0d2581a7)"><g transform="translate(44.938 187.83) scale(.1625 -.1625)"><defs><path id="DejaVuSans-33" transform="scale(.015625)" d="m2597 2516q453-97 707-404 255-306 255-756 0-690-475-1069-475-378-1350-378-293 0-604 58t-642 174v609q262-153 574-231 313-78 654-78 593 0 904 234t311 681q0 413-289 645-289 233-804 233h-544v519h569q465 0 712 186t247 536q0 359-255 551-254 193-729 193-260 0-557-57-297-56-653-174v562q360 100 674 150t592 50q719 0 1137-327 419-326 419-882 0-388-222-655t-631-370z"/></defs><use transform="translate(0 .78125)" xlink:href="#DejaVuSans-33"/></g></g><g clip-path="url(#c5e0d2581a7)"><g transform="translate(44.938 234.18) scale(.1625 -.1625)"><defs><path id="DejaVuSans-34" transform="scale(.015625)" d="m2419 4116-1594-2491h1594v2491zm-166 550h794v-3041h666v-525h-666v-1100h-628v1100h-2106v609l1940 2957z"/></defs><use transform="translate(0 .09375)" xlink:href="#DejaVuSans-34"/></g></g><g clip-path="url(#c5e0d2581a7)"><g transform="translate(37.301 280.5) scale(.1625 -.1625)"><use xlink:href="#DejaVuSans-Oblique-71"/><use transform="translate(63.477 -16.406) scale(.7)" xlink:href="#DejaVuSans-33"/></g></g><g clip-path="url(#c5e0d2581a7)"><g transform="translate(37.301 326.86) scale(.1625 -.1625)"><use xlink:href="#DejaVuSans-Oblique-71"/><use transform="translate(63.477 -16.406) scale(.7)" xlink:href="#DejaVuSans-34"/></g></g><g clip-path="url(#c5e0d2581a7)"><g transform="translate(37.301 373.21) scale(.1625 -.1625)"><defs><path id="DejaVuSans-35" transform="scale(.015625)" d="m691 4666h2478v-532h-1900v-1143q137 47 274 70 138 23 276 23 781 0 1237-428 457-428 457-1159 0-753-469-1171-469-417-1322-417-294 0-599 50-304 50-629 150v635q281-153 581-228t634-75q541 0 856 284 316 284 316 772 0 487-316 771-315 285-856 285-253 0-505-56-251-56-513-175v2344z"/></defs><use xlink:href="#DejaVuSans-Oblique-71"/><use transform="translate(63.477 -16.406) scale(.7)" xlink:href="#DejaVuSans-35"/></g></g><g clip-path="url(#c5e0d2581a7)"><g transform="translate(37.301 419.57) scale(.1625 -.1625)"><defs><path id="DejaVuSans-36" transform="scale(.015625)" d="m2113 2584q-425 0-674-291-248-290-248-796 0-503 248-796 249-292 674-292t673 292q248 293 248 796 0 506-248 796-248 291-673 291zm1253 1979v-575q-238 112-480 171-242 60-480 60-625 0-955-422-329-422-376-1275 184 272 462 417 279 145 613 145 703 0 1111-427 408-426 408-1160 0-719-425-1154-425-434-1131-434-810 0-1238 620-428 621-428 1799 0 1106 525 1764t1409 658q238 0 480-47t505-140z"/></defs><use xlink:href="#DejaVuSans-Oblique-71"/><use transform="translate(63.477 -16.406) scale(.7)" xlink:href="#DejaVuSans-36"/></g></g><g clip-path="url(#c5e0d2581a7)"><g transform="translate(83.32 55.53) scale(.08 -.08)" fill="#ffffff"><defs><path id="DejaVuSans-Oblique-3c0" transform="scale(.015625)" d="m584 3500h3354l-113-575h-441l-418-2150q-44-225 15-325 57-97 228-97 47 0 116 10 72 6 94 9l-81-416q-116-40-235-59-122-19-237-19-375 0-478 203-104 207 3 757l406 2087h-1291l-568-2925h-588l569 2925h-447l112 575z"/><path id="DejaVuSans-2f" transform="scale(.015625)" d="m1625 4666h531l-1625-5260h-531l1625 5260z"/></defs><use transform="translate(0 .09375)" xlink:href="#DejaVuSans-Oblique-3c0"/><use transform="translate(60.205 .09375)" xlink:href="#DejaVuSans-2f"/><use transform="translate(93.896 .09375)" xlink:href="#DejaVuSans-34"/></g></g><g clip-path="url(#c5e0d2581a7)"><g transform="translate(81.71 43.351) scale(.13 -.13)" fill="#ffffff"><defs><path id="DejaVuSans-52" transform="scale(.015625)" d="m2841 2188q203-69 395-294t386-619l641-1275h-679l-596 1197q-232 469-449 622t-592 153h-688v-1972h-631v4666h1425q800 0 1194-335 394-334 394-1009 0-441-205-732-205-290-595-402zm-1582 1959v-1656h794q456 0 689 211t233 620-233 617-689 208h-794z"/><path id="DejaVuSans-58" transform="scale(.015625)" d="m403 4666h678l1160-1735 1165 1735h678l-1500-2241 1600-2425h-678l-1312 1984-1322-1984h-681l1665 2491-1453 2175z"/></defs><use transform="translate(0 .09375)" xlink:href="#DejaVuSans-52"/><use transform="translate(70.439 -16.312) scale(.7)" xlink:href="#DejaVuSans-58"/></g></g><g clip-path="url(#c5e0d2581a7)"><g transform="translate(83.32 101.88) scale(.08 -.08)" fill="#ffffff"><use transform="translate(0 .09375)" xlink:href="#DejaVuSans-Oblique-3c0"/><use transform="translate(60.205 .09375)" xlink:href="#DejaVuSans-2f"/><use transform="translate(93.896 .09375)" xlink:href="#DejaVuSans-34"/></g></g><g clip-path="url(#c5e0d2581a7)"><g transform="translate(81.71 89.705) scale(.13 -.13)" fill="#ffffff"><use transform="translate(0 .09375)" xlink:href="#DejaVuSans-52"/><use transform="translate(70.439 -16.312) scale(.7)" xlink:href="#DejaVuSans-58"/></g></g><g clip-path="url(#c5e0d2581a7)"><g transform="translate(83.32 148.24) scale(.08 -.08)" fill="#ffffff"><use transform="translate(0 .09375)" xlink:href="#DejaVuSans-Oblique-3c0"/><use transform="translate(60.205 .09375)" xlink:href="#DejaVuSans-2f"/><use transform="translate(93.896 .09375)" xlink:href="#DejaVuSans-34"/></g></g><g clip-path="url(#c5e0d2581a7)"><g transform="translate(81.71 136.06) scale(.13 -.13)" fill="#ffffff"><use transform="translate(0 .09375)" xlink:href="#DejaVuSans-52"/><use transform="translate(70.439 -16.312) scale(.7)" xlink:href="#DejaVuSans-58"/></g></g><g clip-path="url(#c5e0d2581a7)"><g transform="translate(83.32 194.59) scale(.08 -.08)" fill="#ffffff"><use transform="translate(0 .09375)" xlink:href="#DejaVuSans-Oblique-3c0"/><use transform="translate(60.205 .09375)" xlink:href="#DejaVuSans-2f"/><use transform="translate(93.896 .09375)" xlink:href="#DejaVuSans-34"/></g></g><g clip-path="url(#c5e0d2581a7)"><g transform="translate(81.71 182.41) scale(.13 -.13)" fill="#ffffff"><use transform="translate(0 .09375)" xlink:href="#DejaVuSans-52"/><use transform="translate(70.439 -16.312) scale(.7)" xlink:href="#DejaVuSans-58"/></g></g><g clip-path="url(#c5e0d2581a7)"><g transform="translate(83.32 333.65) scale(.08 -.08)" fill="#ffffff"><use transform="translate(0 .09375)" xlink:href="#DejaVuSans-Oblique-3c0"/><use transform="translate(60.205 .09375)" xlink:href="#DejaVuSans-2f"/><use transform="translate(93.896 .09375)" xlink:href="#DejaVuSans-34"/></g></g><g clip-path="url(#c5e0d2581a7)"><g transform="translate(81.71 321.47) scale(.13 -.13)" fill="#ffffff"><use transform="translate(0 .09375)" xlink:href="#DejaVuSans-52"/><use transform="translate(70.439 -16.312) scale(.7)" xlink:href="#DejaVuSans-58"/></g></g><g clip-path="url(#c5e0d2581a7)"><g transform="translate(83.32 380.01) scale(.08 -.08)" fill="#ffffff"><use transform="translate(0 .09375)" xlink:href="#DejaVuSans-Oblique-3c0"/><use transform="translate(60.205 .09375)" xlink:href="#DejaVuSans-2f"/><use transform="translate(93.896 .09375)" xlink:href="#DejaVuSans-34"/></g></g><g clip-path="url(#c5e0d2581a7)"><g transform="translate(81.71 367.83) scale(.13 -.13)" fill="#ffffff"><use transform="translate(0 .09375)" xlink:href="#DejaVuSans-52"/><use transform="translate(70.439 -16.312) scale(.7)" xlink:href="#DejaVuSans-58"/></g></g><g clip-path="url(#c5e0d2581a7)"><g transform="translate(83.32 426.36) scale(.08 -.08)" fill="#ffffff"><use transform="translate(0 .09375)" xlink:href="#DejaVuSans-Oblique-3c0"/><use transform="translate(60.205 .09375)" xlink:href="#DejaVuSans-2f"/><use transform="translate(93.896 .09375)" xlink:href="#DejaVuSans-34"/></g></g><g clip-path="url(#c5e0d2581a7)"><g transform="translate(81.71 414.18) scale(.13 -.13)" fill="#ffffff"><use transform="translate(0 .09375)" xlink:href="#DejaVuSans-52"/><use transform="translate(70.439 -16.312) scale(.7)" xlink:href="#DejaVuSans-58"/></g></g><g clip-path="url(#c5e0d2581a7)"><g transform="translate(262.76 186.93) scale(.13 -.13)" fill="#ffffff"><use xlink:href="#DejaVuSans-30"/></g></g><g clip-path="url(#c5e0d2581a7)"><g transform="translate(262.76 233.29) scale(.13 -.13)" fill="#ffffff"><use xlink:href="#DejaVuSans-31"/></g></g><g clip-path="url(#c5e0d2581a7)"><g transform="translate(271.69 209.75) scale(.13 -.13)" fill="#ffffff"><defs><path id="DejaVuSans-63" transform="scale(.015625)" d="m3122 3366v-538q-244 135-489 202t-495 67q-560 0-870-355-309-354-309-995t309-996q310-354 870-354 250 0 495 67t489 202v-532q-241-112-499-168-257-57-548-57-791 0-1257 497-465 497-465 1341 0 856 470 1346 471 491 1290 491 265 0 518-55 253-54 491-163z"/><path id="DejaVuSans-75" transform="scale(.015625)" d="m544 1381v2119h575v-2097q0-497 193-746 194-248 582-248 465 0 735 297 271 297 271 810v1984h575v-3500h-575v538q-209-319-486-474-276-155-642-155-603 0-916 375-312 375-312 1097zm1447 2203z"/><path id="DejaVuSans-74" transform="scale(.015625)" d="m1172 4494v-994h1184v-447h-1184v-1900q0-428 117-550t477-122h590v-481h-590q-666 0-919 248-253 249-253 905v1900h-422v447h422v994h578z"/><path id="DejaVuSans-5f" transform="scale(.015625)" d="m3263-1063v-446h-3326v446h3326z"/><path id="DejaVuSans-6d" transform="scale(.015625)" d="m3328 2828q216 388 516 572t706 184q547 0 844-383 297-382 297-1088v-2113h-578v2094q0 503-179 746-178 244-543 244-447 0-707-297-259-296-259-809v-1978h-578v2094q0 506-178 748t-550 242q-441 0-701-298-259-298-259-808v-1978h-578v3500h578v-544q197 322 472 475t653 153q382 0 649-194 267-193 395-562z"/><path id="DejaVuSans-6f" transform="scale(.015625)" d="m1959 3097q-462 0-731-361t-269-989 267-989q268-361 733-361 460 0 728 362 269 363 269 988 0 622-269 986-268 364-728 364zm0 487q750 0 1178-488 429-487 429-1349 0-859-429-1349-428-489-1178-489-753 0-1180 489-426 490-426 1349 0 862 426 1349 427 488 1180 488z"/><path id="DejaVuSans-76" transform="scale(.015625)" d="m191 3500h609l1094-2937 1094 2937h609l-1313-3500h-781l-1312 3500z"/><path id="DejaVuSans-65" transform="scale(.015625)" d="m3597 1894v-281h-2644q38-594 358-905t892-311q331 0 642 81t618 244v-544q-310-131-635-200t-659-69q-838 0-1327 487-489 488-489 1320 0 859 464 1363 464 505 1252 505 706 0 1117-455 411-454 411-1235zm-575 169q-6 471-264 752-258 282-683 282-481 0-770-272t-333-766l2050 4z"/></defs><use xlink:href="#DejaVuSans-63"/><use transform="translate(54.98)" xlink:href="#DejaVuSans-75"/><use transform="translate(118.36)" xlink:href="#DejaVuSans-74"/><use transform="translate(157.57)" xlink:href="#DejaVuSans-5f"/><use transform="translate(207.57)" xlink:href="#DejaVuSans-6d"/><use transform="translate(304.98)" xlink:href="#DejaVuSans-6f"/><use transform="translate(366.16)" xlink:href="#DejaVuSans-76"/><use transform="translate(425.34)" xlink:href="#DejaVuSans-65"/></g></g><g clip-path="url(#c5e0d2581a7)"><g transform="translate(494.53 233.29) scale(.13 -.13)" fill="#ffffff"><use xlink:href="#DejaVuSans-30"/></g></g><g clip-path="url(#c5e0d2581a7)"><g transform="translate(494.53 279.64) scale(.13 -.13)" fill="#ffffff"><use xlink:href="#DejaVuSans-31"/></g></g><g clip-path="url(#c5e0d2581a7)"><g transform="translate(503.46 256.1) scale(.13 -.13)" fill="#ffffff"><use xlink:href="#DejaVuSans-63"/><use transform="translate(54.98)" xlink:href="#DejaVuSans-75"/><use transform="translate(118.36)" xlink:href="#DejaVuSans-74"/><use transform="translate(157.57)" xlink:href="#DejaVuSans-5f"/><use transform="translate(207.57)" xlink:href="#DejaVuSans-6d"/><use transform="translate(304.98)" xlink:href="#DejaVuSans-6f"/><use transform="translate(366.16)" xlink:href="#DejaVuSans-76"/><use transform="translate(425.34)" xlink:href="#DejaVuSans-65"/></g></g><defs><clipPath id="c5e0d2581a7"><rect x="7.2" y="7.2" width="715.64" height="435.73"/></clipPath></defs></svg>