<?xml version='1.0' encoding='utf-8'?>
<svg xmlns="http://www.w3.org/2000/svg" xmlns:ns1="http://sodipodi.sourceforge.net/DTD/sodipodi-0.dtd" xmlns:ns2="http://www.inkscape.org/namespaces/inkscape" version="1.1" id="svg1" width="100%" height="auto" viewBox="-20.0 -20.0 518.625 156.61395" ns1:docname="svg_fix_XXXXXX.svg">
  <rect id="path1" x="-20.0" y="-20.0" width="518.625" height="156.61395" fill="white" /><ns1:namedview id="namedview1" pagecolor="#ffffff" bordercolor="#000000" borderopacity="0.25" ns2:showpageshadow="2" ns2:pageopacity="0.0" ns2:pagecheckerboard="0" ns2:deskcolor="#d1d1d1" />
  <defs id="defs1" />
  <g id="g1" transform="translate(-62.80078,-101.08984)">
    <path id="path2" d="M -124.70493,39.68535 H 134.62648" style="fill:none;stroke:#121619;stroke-width:0.3985;stroke-linecap:butt;stroke-linejoin:miter;stroke-miterlimit:10;stroke-dasharray:none;stroke-opacity:1" transform="matrix(1.2666667,0,0,-1.2666667,279.37913,156.41153)" />
    <path id="path3" d="M -104.86223,19.84267 H 134.62648" style="fill:none;stroke:#121619;stroke-width:0.3985;stroke-linecap:butt;stroke-linejoin:miter;stroke-miterlimit:10;stroke-dasharray:none;stroke-opacity:1" transform="matrix(1.2666667,0,0,-1.2666667,279.37913,156.41153)" />
    <path id="path4" d="M -104.86223,0 H 134.62648" style="fill:none;stroke:#121619;stroke-width:0.3985;stroke-linecap:butt;stroke-linejoin:miter;stroke-miterlimit:10;stroke-dasharray:none;stroke-opacity:1" transform="matrix(1.2666667,0,0,-1.2666667,279.37913,156.41153)" />
    <path id="path5" d="m 96.37906,-28.3467 h 17.00806 v 17.00806 H 96.37906 Z" style="fill:#000000;fill-opacity:1;fill-rule:nonzero;stroke:#000000;stroke-width:0.3985;stroke-linecap:butt;stroke-linejoin:miter;stroke-miterlimit:10;stroke-dasharray:none;stroke-opacity:1" transform="matrix(1.2666667,0,0,-1.2666667,279.37913,156.41153)" />
    <path id="path6" d="m 96.37906,-48.18938 h 17.00806 v 17.00806 H 96.37906 Z" style="fill:#000000;fill-opacity:1;fill-rule:nonzero;stroke:#000000;stroke-width:0.3985;stroke-linecap:butt;stroke-linejoin:miter;stroke-miterlimit:10;stroke-dasharray:none;stroke-opacity:1" transform="matrix(1.2666667,0,0,-1.2666667,279.37913,156.41153)" />
    <path id="path7" d="m 110.55237,-22.39377 c 0,3.13112 -2.53823,5.66936 -5.66936,5.66936 -3.13112,0 -5.66934,-2.53824 -5.66934,-5.66936" style="fill:none;stroke:#ffffff;stroke-width:0.79701;stroke-linecap:butt;stroke-linejoin:miter;stroke-miterlimit:10;stroke-dasharray:none;stroke-opacity:1" transform="matrix(1.2666667,0,0,-1.2666667,279.37913,156.41153)" />
    <path id="path8" d="m 104.88309,-22.11044 5.66928,4.81889" style="fill:none;stroke:#ffffff;stroke-width:0.79701;stroke-linecap:butt;stroke-linejoin:miter;stroke-miterlimit:10;stroke-dasharray:none;stroke-opacity:1" transform="matrix(1.2666667,0,0,-1.2666667,279.37913,156.41153)" />
    <path id="path9" d="m 105.73349,-22.11044 c 0,0.46966 -0.38074,0.85038 -0.8504,0.85038 -0.46967,0 -0.85039,-0.38072 -0.85039,-0.85038 0,-0.46967 0.38072,-0.85041 0.85039,-0.85041 0.46966,0 0.8504,0.38074 0.8504,0.85041 z" style="fill:#ffffff;fill-opacity:1;fill-rule:nonzero;stroke:none" transform="matrix(1.2666667,0,0,-1.2666667,279.37913,156.41153)" />
    <path id="path10" d="m 110.55237,-42.23645 c 0,3.13112 -2.53823,5.66934 -5.66936,5.66934 -3.13112,0 -5.66934,-2.53822 -5.66934,-5.66934" style="fill:none;stroke:#ffffff;stroke-width:0.79701;stroke-linecap:butt;stroke-linejoin:miter;stroke-miterlimit:10;stroke-dasharray:none;stroke-opacity:1" transform="matrix(1.2666667,0,0,-1.2666667,279.37913,156.41153)" />
    <path id="path11" d="m 104.88309,-41.95314 5.66928,4.81891" style="fill:none;stroke:#ffffff;stroke-width:0.79701;stroke-linecap:butt;stroke-linejoin:miter;stroke-miterlimit:10;stroke-dasharray:none;stroke-opacity:1" transform="matrix(1.2666667,0,0,-1.2666667,279.37913,156.41153)" />
    <path id="path12" d="m 105.73349,-41.95314 c 0,0.46967 -0.38074,0.8504 -0.8504,0.8504 -0.46967,0 -0.85039,-0.38073 -0.85039,-0.8504 0,-0.46966 0.38072,-0.85039 0.85039,-0.85039 0.46966,0 0.8504,0.38073 0.8504,0.85039 z" style="fill:#ffffff;fill-opacity:1;fill-rule:nonzero;stroke:none" transform="matrix(1.2666667,0,0,-1.2666667,279.37913,156.41153)" />
    <path id="path13" d="M 2.8557,-19.84267 H 96.17981" style="fill:none;stroke:#121619;stroke-width:0.3985;stroke-linecap:butt;stroke-linejoin:miter;stroke-miterlimit:10;stroke-dasharray:none;stroke-opacity:1" transform="matrix(1.2666667,0,0,-1.2666667,279.37913,156.41153)" />
    <path id="path14" d="M 2.8557,-39.68535 H 96.17981" style="fill:none;stroke:#121619;stroke-width:0.3985;stroke-linecap:butt;stroke-linejoin:miter;stroke-miterlimit:10;stroke-dasharray:none;stroke-opacity:1" transform="matrix(1.2666667,0,0,-1.2666667,279.37913,156.41153)" />
    <path id="path15" d="m -82.54973,39.68535 c 0,1.37558 -1.11511,2.49069 -2.49069,2.49069 -1.37558,0 -2.49069,-1.11511 -2.49069,-2.49069 0,-1.37558 1.11511,-2.49069 2.49069,-2.49069 1.37558,0 2.49069,1.11511 2.49069,2.49069 z" style="fill:#78a9ff;fill-opacity:1;fill-rule:nonzero;stroke:none" transform="matrix(1.2666667,0,0,-1.2666667,279.37913,156.41153)" />
    <path id="path16" d="m -62.70705,39.68535 c 0,1.37558 -1.11511,2.49069 -2.49069,2.49069 -1.37558,0 -2.49069,-1.11511 -2.49069,-2.49069 0,-1.37558 1.11511,-2.49069 2.49069,-2.49069 1.37558,0 2.49069,1.11511 2.49069,2.49069 z" style="fill:#78a9ff;fill-opacity:1;fill-rule:nonzero;stroke:none" transform="matrix(1.2666667,0,0,-1.2666667,279.37913,156.41153)" />
    <path id="path17" d="m -79.06276,19.84267 c 0,3.3014 -2.67625,5.97766 -5.97766,5.97766 -3.30142,0 -5.97766,-2.67626 -5.97766,-5.97766 0,-3.30143 2.67624,-5.97767 5.97766,-5.97767 3.30141,0 5.97766,2.67624 5.97766,5.97767 z" style="fill:#78a9ff;fill-opacity:1;fill-rule:nonzero;stroke:#78a9ff;stroke-width:0.3985;stroke-linecap:butt;stroke-linejoin:miter;stroke-miterlimit:10;stroke-dasharray:none;stroke-opacity:1" transform="matrix(1.2666667,0,0,-1.2666667,279.37913,156.41153)" />
    <path id="path18" d="m 4.7011201,-7.8200592 v 3.4169408 H 1.2965148 v 0.9128289 h 3.4046053 v 3.41694082 H 5.6262845 V -3.4902895 H 9.0432253 V -4.4031184 H 5.6262845 v -3.4169408 z m 0,0" style="fill:#ffffff;fill-opacity:1;fill-rule:nonzero;stroke:none" aria-label="+" transform="matrix(1.2666667,0,0,1.2666667,165.11947,136.23353)" />
    <path id="path19" d="m -59.22008,0 c 0,3.3014 -2.67624,5.97766 -5.97766,5.97766 -3.30141,0 -5.97766,-2.67626 -5.97766,-5.97766 0,-3.3014 2.67625,-5.97766 5.97766,-5.97766 3.30142,0 5.97766,2.67626 5.97766,5.97766 z" style="fill:#78a9ff;fill-opacity:1;fill-rule:nonzero;stroke:#78a9ff;stroke-width:0.3985;stroke-linecap:butt;stroke-linejoin:miter;stroke-miterlimit:10;stroke-dasharray:none;stroke-opacity:1" transform="matrix(1.2666667,0,0,-1.2666667,279.37913,156.41153)" />
    <path id="path20" d="m 4.6998141,-7.8213651 v 3.4169408 H 1.2952089 v 0.9128289 h 3.4046052 v 3.41694079 H 5.6249786 V -3.4915954 H 9.0419194 V -4.4044243 H 5.6249786 v -3.4169408 z m 0,0" style="fill:#ffffff;fill-opacity:1;fill-rule:nonzero;stroke:none" aria-label="+" transform="matrix(1.2666667,0,0,1.2666667,190.25393,161.368)" />
    <path id="path21" d="M -85.04042,39.68535 V 26.01958" style="fill:none;stroke:#78a9ff;stroke-width:0.79701;stroke-linecap:butt;stroke-linejoin:miter;stroke-miterlimit:10;stroke-dasharray:none;stroke-opacity:1" transform="matrix(1.2666667,0,0,-1.2666667,279.37913,156.41153)" />
    <path id="path22" d="M -65.19774,39.68535 V 6.17691" style="fill:none;stroke:#78a9ff;stroke-width:0.79701;stroke-linecap:butt;stroke-linejoin:miter;stroke-miterlimit:10;stroke-dasharray:none;stroke-opacity:1" transform="matrix(1.2666667,0,0,-1.2666667,279.37913,156.41153)" />
    <g id="g22" aria-label="α∣0⟩+β∣1⟩" transform="matrix(1.2666667,0,0,1.2666667,62.364933,108.91913)">
      <path id="path23" d="M 4.0570839,-1.1111168 C 4.809551,-1.9252615 5.068597,-2.9614457 5.068597,-3.0231234 c 0,-0.074013 -0.049342,-0.1110197 -0.1233552,-0.1110197 -0.098684,0 -0.1110198,0.037007 -0.1603619,0.1973684 -0.2220394,0.8141448 -0.703125,1.4432566 -0.727796,1.4432566 -0.012336,0 -0.012336,-0.2097039 -0.012336,-0.3330592 -0.012336,-1.40625 -0.9251645,-1.6899671 -1.4679277,-1.6899671 -1.1225329,0 -2.23273024,1.0978618 -2.23273024,2.2203947 0,0.78947371 0.55509868,1.36924345 1.39391444,1.36924345 0.5674342,0 1.147204,-0.19736842 1.7886514,-0.66611842 0.1726973,0.62911184 0.6291118,0.66611842 0.7771381,0.66611842 0.4564145,0 0.7154605,-0.39473684 0.7154605,-0.55509868 0,-0.0986842 -0.098684,-0.0986842 -0.1233552,-0.0986842 -0.086349,0 -0.098684,0.0246711 -0.1233553,0.0863487 -0.1233553,0.33305921 -0.3947368,0.34539474 -0.4440789,0.34539474 -0.1110198,0 -0.234375,0 -0.2713811,-0.96217111 z m -0.5921053,0.25904608 c -0.5674342,0.50575658 -1.2335526,0.703125 -1.7023026,0.703125 -0.4070724,0 -0.76480264,-0.234375 -0.76480264,-0.87582238 0,-0.2713816 0.12335524,-1.0978618 0.49342104,-1.6282895 0.3207237,-0.4440789 0.7524671,-0.6414473 1.0855263,-0.6414473 0.4317434,0 0.678454,0.3083881 0.7894737,0.8018092 0.1110197,0.5427631 0.049342,1.171875 0.098684,1.64062498 z m 0,0" style="fill:#121619;fill-opacity:1;fill-rule:nonzero;stroke:none" />
      <path id="path24" d="m 6.6352089,-6.0946694 v 7.8083882 h 0.5057566 v -7.8083882 z m 0,0" style="fill:#121619;fill-opacity:1;fill-rule:nonzero;stroke:none" />
      <path id="path25" d="m 12.238622,-2.5420378 c 0,-0.8511513 -0.08635,-1.3692434 -0.357731,-1.8873356 -0.345394,-0.6907894 -0.986842,-0.8758223 -1.430921,-0.8758223 -0.9991772,0 -1.369243,0.7524671 -1.4802628,0.9745066 -0.2837171,0.5797697 -0.3083881,1.3692434 -0.3083881,1.7886513 0,0.5304276 0.024671,1.3322368 0.4070723,1.96134866 0.3700658,0.59210526 0.9621716,0.7524671 1.3815786,0.7524671 0.382402,0 1.073191,-0.12335526 1.467928,-0.91282895 0.296053,-0.57976971 0.320724,-1.28289471 0.320724,-1.80098681 z m -1.788652,2.47944076 c -0.271381,0 -0.8141443,-0.12335526 -0.9868417,-0.96217106 -0.086349,-0.4564145 -0.086349,-1.196546 -0.086349,-1.6159539 0,-0.5427632 0,-1.1101974 0.086349,-1.5419408 0.1726974,-0.8141448 0.7894737,-0.8881579 0.9868417,-0.8881579 0.271382,0 0.826481,0.1233552 0.986843,0.8511513 0.08635,0.4440789 0.08635,1.0361842 0.08635,1.5789474 0,0.46875 0,1.1842105 -0.08635,1.640625 -0.172698,0.82648022 -0.715461,0.93749996 -0.986843,0.93749996 z m 0,0" style="fill:#121619;fill-opacity:1;fill-rule:nonzero;stroke:none" />
      <path id="path26" d="m 13.783646,1.8000674 1.430921,-3.9967105 -1.430921,-3.984375 -0.481085,0.1726974 1.443256,3.8116776 -1.443256,3.8240132 z m 0,0" style="fill:#121619;fill-opacity:1;fill-rule:nonzero;stroke:none" />
      <path id="path27" d="m 20.339979,-4.3430247 v 1.8996711 h -1.899671 v 0.5057566 h 1.899671 v 1.89967101 h 0.505756 V -1.937597 h 1.899671 v -0.5057566 h -1.899671 v -1.8996711 z m 0,0" style="fill:#121619;fill-opacity:1;fill-rule:nonzero;stroke:none" />
      <path id="path28" d="m 30.020283,-4.5403931 c 0,-0.7154605 -0.592105,-1.0731908 -1.258224,-1.0731908 -1.023848,0 -1.788651,1.1595395 -2.010691,2.0353619 l -1.258223,5.0328947 c -0.02467,0.049342 0.04934,0.086349 0.08635,0.086349 0.07401,0 0.135691,0 0.148027,-0.049342 l 0.542763,-2.13404608 c 0.185033,0.43174342 0.555099,0.71546053 1.134868,0.71546053 1.097862,0 2.294408,-0.77713816 2.294408,-2.04769735 0,-0.5304276 -0.197368,-0.8758224 -0.592105,-1.2088816 0.04934,0 0.185033,-0.1110197 0.234375,-0.1356908 0.394737,-0.2713816 0.678454,-0.727796 0.678454,-1.2212171 z m -1.578947,1.3569079 c -0.135691,0.024671 -0.283718,0.037007 -0.431744,0.037007 -0.08635,0 -0.172697,0 -0.271381,-0.024671 0.160361,-0.037006 0.320723,-0.037006 0.46875,-0.037006 0.07401,0 0.160361,0 0.234375,0.024671 z m 1.07319,-1.5049342 c 0,0.3947368 -0.172697,0.8758224 -0.456414,1.1472039 -0.03701,0.037007 -0.209704,0.1973685 -0.259046,0.1973685 -0.22204,-0.037007 -0.394737,-0.086349 -0.629112,-0.086349 -0.197368,0 -0.703125,-0.024671 -0.703125,0.2837171 0,0.2467105 0.456414,0.234375 0.616776,0.234375 0.246711,0 0.46875,-0.024671 0.703125,-0.1110198 0.234375,0.1850329 0.357731,0.444079 0.357731,0.8388158 0,0.46875 -0.160362,0.9991777 -0.382402,1.31990135 -0.296052,0.41940789 -0.789473,0.71546053 -1.393914,0.71546053 -0.530428,0 -0.9375,-0.40707237 -0.9375,-0.96217108 0,-0.1110197 0.01234,-0.2097039 0.02467,-0.2960526 l 0.530427,-2.1217105 c 0.172698,-0.6907895 0.851152,-1.8626645 1.751645,-1.8626645 0.407073,0 0.777138,0.1973684 0.777138,0.703125 z m 0,0" style="fill:#121619;fill-opacity:1;fill-rule:nonzero;stroke:none" />
      <path id="path29" d="m 31.593063,-6.0946694 v 7.8083882 h 0.505756 v -7.8083882 z m 0,0" style="fill:#121619;fill-opacity:1;fill-rule:nonzero;stroke:none" />
      <path id="path30" d="m 35.802561,-5.0708207 c 0,-0.2220395 -0.01234,-0.234375 -0.234375,-0.234375 -0.320724,0.3207237 -0.752467,0.5180921 -1.504934,0.5180921 v 0.259046 c 0.209704,0 0.641447,0 1.110197,-0.2097039 v 4.0830592 c 0,0.29605263 -0.02467,0.39473684 -0.777138,0.39473684 H 34.112594 V -9.1940789e-4 C 34.433317,-0.02559046 35.124107,-0.02559046 35.481837,-0.02559046 c 0.35773,0 1.04852,0 1.381579,0.0246710521 V -0.25996546 h -0.283717 c -0.752467,0 -0.777138,-0.0986842 -0.777138,-0.39473684 z m 0,0" style="fill:#121619;fill-opacity:1;fill-rule:nonzero;stroke:none" />
      <path id="path31" d="m 38.738416,1.8000674 1.430921,-3.9967105 -1.430921,-3.984375 -0.481085,0.1726974 1.443256,3.8116776 -1.443256,3.8240132 z m 0,0" style="fill:#121619;fill-opacity:1;fill-rule:nonzero;stroke:none" />
    </g>
    <g id="g31" aria-label="∣0⟩" transform="matrix(1.2666667,0,0,1.2666667,126.001,134.0536)">
      <path id="path32" d="m 1.1957566,-6.0928914 v 7.8083881 h 0.5057566 v -7.8083881 z m 0,0" style="fill:#121619;fill-opacity:1;fill-rule:nonzero;stroke:none" />
      <path id="path33" d="m 6.7991694,-2.5402599 c 0,-0.8511513 -0.086349,-1.3692434 -0.3577303,-1.8873355 -0.3453947,-0.6907895 -0.9868421,-0.8758224 -1.430921,-0.8758224 -0.9991776,0 -1.3692434,0.7524671 -1.4802632,0.9745066 -0.2837171,0.5797698 -0.3083881,1.3692434 -0.3083881,1.7886513 0,0.5304277 0.024671,1.3322369 0.4070723,1.96134872 0.3700658,0.59210526 0.9621711,0.7524671 1.381579,0.7524671 0.3824013,0 1.0731908,-0.12335526 1.4679276,-0.91282895 C 6.7744984,-1.3190428 6.7991694,-2.0221678 6.7991694,-2.5402599 Z m -1.7886513,2.47944082 c -0.2713816,0 -0.8141447,-0.12335526 -0.9868421,-0.96217102 -0.086349,-0.4564145 -0.086349,-1.1965461 -0.086349,-1.615954 0,-0.5427631 0,-1.1101973 0.086349,-1.5419408 0.1726974,-0.8141447 0.7894737,-0.8881579 0.9868421,-0.8881579 0.2713816,0 0.8264803,0.1233553 0.9868421,0.8511514 0.086349,0.4440789 0.086349,1.0361842 0.086349,1.5789473 0,0.46875 0,1.1842105 -0.086349,1.64062502 -0.1726974,0.82648026 -0.7154605,0.9375 -0.9868421,0.9375 z m 0,0" style="fill:#121619;fill-opacity:1;fill-rule:nonzero;stroke:none" />
      <path id="path34" d="m 8.3441941,1.8018454 1.430921,-3.9967105 -1.430921,-3.984375 -0.4810855,0.1726973 1.4432565,3.8116777 -1.4432565,3.8240131 z m 0,0" style="fill:#121619;fill-opacity:1;fill-rule:nonzero;stroke:none" />
    </g>
    <g id="g34" aria-label="∣0⟩" transform="matrix(1.2666667,0,0,1.2666667,126.001,159.18807)">
      <path id="path35" d="m 1.1957566,-6.0941974 v 7.8083882 h 0.5057566 v -7.8083882 z m 0,0" style="fill:#121619;fill-opacity:1;fill-rule:nonzero;stroke:none" />
      <path id="path36" d="m 6.7991694,-2.5415658 c 0,-0.8511513 -0.086349,-1.3692434 -0.3577303,-1.8873355 -0.3453947,-0.6907895 -0.9868421,-0.8758224 -1.430921,-0.8758224 -0.9991776,0 -1.3692434,0.7524671 -1.4802632,0.9745066 -0.2837171,0.5797697 -0.3083881,1.3692434 -0.3083881,1.7886513 0,0.5304276 0.024671,1.3322369 0.4070723,1.96134869 C 3.9990049,0.01188816 4.5911102,0.17225 5.0105181,0.17225 c 0.3824013,0 1.0731908,-0.12335526 1.4679276,-0.91282895 C 6.7744984,-1.3203487 6.7991694,-2.0234737 6.7991694,-2.5415658 Z M 5.0105181,-0.062125 c -0.2713816,0 -0.8141447,-0.12335526 -0.9868421,-0.9621711 -0.086349,-0.4564144 -0.086349,-1.196546 -0.086349,-1.6159539 0,-0.5427632 0,-1.1101974 0.086349,-1.5419408 0.1726974,-0.8141447 0.7894737,-0.8881579 0.9868421,-0.8881579 0.2713816,0 0.8264803,0.1233553 0.9868421,0.8511513 0.086349,0.444079 0.086349,1.0361842 0.086349,1.5789474 0,0.46875 0,1.1842105 -0.086349,1.640625 -0.1726974,0.82648026 -0.7154605,0.9375 -0.9868421,0.9375 z m 0,0" style="fill:#121619;fill-opacity:1;fill-rule:nonzero;stroke:none" />
      <path id="path37" d="m 8.3441941,1.8005395 1.430921,-3.9967106 -1.430921,-3.984375 -0.4810855,0.1726974 1.4432565,3.8116776 -1.4432565,3.8240132 z m 0,0" style="fill:#121619;fill-opacity:1;fill-rule:nonzero;stroke:none" />
    </g>
    <g id="g37" aria-label="∣0⟩" transform="matrix(1.2666667,0,0,1.2666667,262.44253,184.32127)">
      <path id="path38" d="m 1.1956563,-6.0945033 v 7.8083882 h 0.5057565 v -7.8083882 z m 0,0" style="fill:#121619;fill-opacity:1;fill-rule:nonzero;stroke:none" />
      <path id="path39" d="m 6.7990691,-2.5418717 c 0,-0.8511513 -0.086349,-1.3692434 -0.3577303,-1.8873355 -0.3453947,-0.6907895 -0.9868421,-0.8758224 -1.430921,-0.8758224 -0.9991777,0 -1.3692435,0.7524671 -1.4802632,0.9745066 -0.2837171,0.5797697 -0.3083882,1.3692434 -0.3083882,1.7886513 0,0.5304276 0.024671,1.3322368 0.4070724,1.96134867 0.3700658,0.59210527 0.9621711,0.75246711 1.381579,0.75246711 0.3824013,0 1.0731908,-0.12335526 1.4679276,-0.91282895 C 6.774398,-1.3206546 6.7990691,-2.0237796 6.7990691,-2.5418717 Z m -1.7886513,2.47944078 c -0.2713816,0 -0.8141448,-0.12335526 -0.9868421,-0.96217108 -0.086349,-0.4564144 -0.086349,-1.196546 -0.086349,-1.6159539 0,-0.5427632 0,-1.1101974 0.086349,-1.5419408 0.1726973,-0.8141447 0.7894736,-0.8881579 0.9868421,-0.8881579 0.2713815,0 0.8264802,0.1233553 0.9868421,0.8511513 0.086349,0.444079 0.086349,1.0361842 0.086349,1.5789474 0,0.46875 0,1.1842105 -0.086349,1.64062498 -0.1726974,0.82648026 -0.7154606,0.9375 -0.9868421,0.9375 z m 0,0" style="fill:#121619;fill-opacity:1;fill-rule:nonzero;stroke:none" />
      <path id="path40" d="M 8.3440938,1.8002336 9.7750148,-2.196477 8.3440938,-6.180852 7.8630082,-6.0081546 9.3062648,-2.196477 7.8630082,1.6275362 Z m 0,0" style="fill:#121619;fill-opacity:1;fill-rule:nonzero;stroke:none" />
    </g>
    <g id="g40" aria-label="∣0⟩" transform="matrix(1.2666667,0,0,1.2666667,262.44253,209.45573)">
      <path id="path41" d="m 1.1956563,-6.0927253 v 7.8083881 h 0.5057565 v -7.8083881 z m 0,0" style="fill:#121619;fill-opacity:1;fill-rule:nonzero;stroke:none" />
      <path id="path42" d="m 6.7990691,-2.5400937 c 0,-0.8511514 -0.086349,-1.3692435 -0.3577303,-1.8873356 -0.3453947,-0.6907894 -0.9868421,-0.8758223 -1.430921,-0.8758223 -0.9991777,0 -1.3692435,0.7524671 -1.4802632,0.9745065 -0.2837171,0.5797698 -0.3083882,1.3692435 -0.3083882,1.7886514 0,0.5304276 0.024671,1.3322368 0.4070724,1.96134863 0.3700658,0.59210527 0.9621711,0.75246711 1.381579,0.75246711 0.3824013,0 1.0731908,-0.12335526 1.4679276,-0.91282895 C 6.774398,-1.3188766 6.7990691,-2.0220016 6.7990691,-2.5400937 Z m -1.7886513,2.47944074 c -0.2713816,0 -0.8141448,-0.12335526 -0.9868421,-0.96217104 -0.086349,-0.4564145 -0.086349,-1.1965461 -0.086349,-1.615954 0,-0.5427631 0,-1.1101973 0.086349,-1.5419407 0.1726973,-0.8141448 0.7894736,-0.8881579 0.9868421,-0.8881579 0.2713815,0 0.8264802,0.1233552 0.9868421,0.8511513 0.086349,0.4440789 0.086349,1.0361842 0.086349,1.5789473 0,0.46875 0,1.1842106 -0.086349,1.64062504 -0.1726974,0.82648026 -0.7154606,0.9375 -0.9868421,0.9375 z m 0,0" style="fill:#121619;fill-opacity:1;fill-rule:nonzero;stroke:none" />
      <path id="path43" d="M 8.3440938,1.8020115 9.7750148,-2.194699 8.3440938,-6.179074 7.8630082,-6.0063766 9.3062648,-2.194699 7.8630082,1.6293141 Z m 0,0" style="fill:#121619;fill-opacity:1;fill-rule:nonzero;stroke:none" />
    </g>
    <path id="path44" d="m 113.58638,-18.99226 h 11.11855" style="fill:none;stroke:#121619;stroke-width:0.3985;stroke-linecap:butt;stroke-linejoin:miter;stroke-miterlimit:10;stroke-dasharray:none;stroke-opacity:1" transform="matrix(1.2666667,0,0,-1.2666667,279.37913,156.41153)" />
    <path id="path45" d="m 113.58638,-20.69307 h 11.11855" style="fill:none;stroke:#121619;stroke-width:0.3985;stroke-linecap:butt;stroke-linejoin:miter;stroke-miterlimit:10;stroke-dasharray:none;stroke-opacity:1" transform="matrix(1.2666667,0,0,-1.2666667,279.37913,156.41153)" />
    <path id="path46" d="m 113.58638,-38.83495 h 11.11855" style="fill:none;stroke:#121619;stroke-width:0.3985;stroke-linecap:butt;stroke-linejoin:miter;stroke-miterlimit:10;stroke-dasharray:none;stroke-opacity:1" transform="matrix(1.2666667,0,0,-1.2666667,279.37913,156.41153)" />
    <path id="path47" d="m 113.58638,-40.53575 h 11.11855" style="fill:none;stroke:#121619;stroke-width:0.3985;stroke-linecap:butt;stroke-linejoin:miter;stroke-miterlimit:10;stroke-dasharray:none;stroke-opacity:1" transform="matrix(1.2666667,0,0,-1.2666667,279.37913,156.41153)" />
    <path id="path48" d="m 22.33336,39.68535 c 0,1.37558 -1.11511,2.49069 -2.49069,2.49069 -1.37558,0 -2.4907,-1.11511 -2.4907,-2.49069 0,-1.37558 1.11512,-2.49069 2.4907,-2.49069 1.37558,0 2.49069,1.11511 2.49069,2.49069 z" style="fill:#78a9ff;fill-opacity:1;fill-rule:nonzero;stroke:none" transform="matrix(1.2666667,0,0,-1.2666667,279.37913,156.41153)" />
    <path id="path49" d="m 42.17604,19.84267 c 0,1.37558 -1.11511,2.49069 -2.49069,2.49069 -1.37558,0 -2.49069,-1.11511 -2.49069,-2.49069 0,-1.37558 1.11511,-2.4907 2.49069,-2.4907 1.37558,0 2.49069,1.11512 2.49069,2.4907 z" style="fill:#78a9ff;fill-opacity:1;fill-rule:nonzero;stroke:none" transform="matrix(1.2666667,0,0,-1.2666667,279.37913,156.41153)" />
    <path id="path50" d="m 62.01915,19.84267 c 0,1.37558 -1.11511,2.49069 -2.49069,2.49069 -1.37558,0 -2.49069,-1.11511 -2.49069,-2.49069 0,-1.37558 1.11511,-2.4907 2.49069,-2.4907 1.37558,0 2.49069,1.11512 2.49069,2.4907 z" style="fill:#78a9ff;fill-opacity:1;fill-rule:nonzero;stroke:none" transform="matrix(1.2666667,0,0,-1.2666667,279.37913,156.41153)" />
    <path id="path51" d="m 81.86183,0 c 0,1.37558 -1.11511,2.49069 -2.49069,2.49069 -1.3756,0 -2.49069,-1.11511 -2.49069,-2.49069 0,-1.37558 1.11509,-2.49069 2.49069,-2.49069 1.37558,0 2.49069,1.11511 2.49069,2.49069 z" style="fill:#78a9ff;fill-opacity:1;fill-rule:nonzero;stroke:none" transform="matrix(1.2666667,0,0,-1.2666667,279.37913,156.41153)" />
    <path id="path52" d="m 25.82033,-19.84267 c 0,3.30143 -2.67626,5.97767 -5.97766,5.97767 -3.30143,0 -5.97767,-2.67624 -5.97767,-5.97767 0,-3.3014 2.67624,-5.97766 5.97767,-5.97766 3.3014,0 5.97766,2.67626 5.97766,5.97766 z" style="fill:#78a9ff;fill-opacity:1;fill-rule:nonzero;stroke:#78a9ff;stroke-width:0.3985;stroke-linecap:butt;stroke-linejoin:miter;stroke-miterlimit:10;stroke-dasharray:none;stroke-opacity:1" transform="matrix(1.2666667,0,0,-1.2666667,279.37913,156.41153)" />
    <path id="path53" d="m 4.7009326,-7.8195872 v 3.4169408 H 1.2963273 v 0.912829 h 3.4046053 v 3.41694076 H 5.626097 V -3.4898174 h 3.4169408 v -0.912829 H 5.626097 v -3.4169408 z m 0,0" style="fill:#ffffff;fill-opacity:1;fill-rule:nonzero;stroke:none" aria-label="+" transform="matrix(1.2666667,0,0,1.2666667,297.97127,186.50247)" />
    <path id="path54" d="m 45.66301,-19.84267 c 0,3.30143 -2.67624,5.97767 -5.97766,5.97767 -3.30141,0 -5.97766,-2.67624 -5.97766,-5.97767 0,-3.3014 2.67625,-5.97766 5.97766,-5.97766 3.30142,0 5.97766,2.67626 5.97766,5.97766 z" style="fill:#78a9ff;fill-opacity:1;fill-rule:nonzero;stroke:#78a9ff;stroke-width:0.3985;stroke-linecap:butt;stroke-linejoin:miter;stroke-miterlimit:10;stroke-dasharray:none;stroke-opacity:1" transform="matrix(1.2666667,0,0,-1.2666667,279.37913,156.41153)" />
    <path id="path55" d="m 4.6996266,-7.8195872 v 3.4169408 H 1.2950214 v 0.912829 h 3.4046052 v 3.41694076 H 5.6247911 V -3.4898174 h 3.4169408 v -0.912829 H 5.6247911 v -3.4169408 z m 0,0" style="fill:#ffffff;fill-opacity:1;fill-rule:nonzero;stroke:none" aria-label="+" transform="matrix(1.2666667,0,0,1.2666667,323.10573,186.50247)" />
    <path id="path56" d="m 65.50612,-39.68535 c 0,3.30141 -2.67624,5.97766 -5.97766,5.97766 -3.30141,0 -5.97766,-2.67625 -5.97766,-5.97766 0,-3.30142 2.67625,-5.97766 5.97766,-5.97766 3.30142,0 5.97766,2.67624 5.97766,5.97766 z" style="fill:#78a9ff;fill-opacity:1;fill-rule:nonzero;stroke:#78a9ff;stroke-width:0.3985;stroke-linecap:butt;stroke-linejoin:miter;stroke-miterlimit:10;stroke-dasharray:none;stroke-opacity:1" transform="matrix(1.2666667,0,0,-1.2666667,279.37913,156.41153)" />
    <path id="path57" d="m 4.6983207,-7.8198931 v 3.4169408 H 1.2937155 v 0.9128289 h 3.4046052 v 3.41694083 H 5.6234852 V -3.4901234 H 9.040426 V -4.4029523 H 5.6234852 v -3.4169408 z m 0,0" style="fill:#ffffff;fill-opacity:1;fill-rule:nonzero;stroke:none" aria-label="+" transform="matrix(1.2666667,0,0,1.2666667,348.2402,211.63567)" />
    <path id="path58" d="m 85.3488,-39.68535 c 0,3.30141 -2.67625,5.97766 -5.97766,5.97766 -3.30142,0 -5.97766,-2.67625 -5.97766,-5.97766 0,-3.30142 2.67624,-5.97766 5.97766,-5.97766 3.30141,0 5.97766,2.67624 5.97766,5.97766 z" style="fill:#78a9ff;fill-opacity:1;fill-rule:nonzero;stroke:#78a9ff;stroke-width:0.3985;stroke-linecap:butt;stroke-linejoin:miter;stroke-miterlimit:10;stroke-dasharray:none;stroke-opacity:1" transform="matrix(1.2666667,0,0,-1.2666667,279.37913,156.41153)" />
    <path id="path59" d="m 4.7010987,-7.8198931 v 3.4169408 H 1.2964934 v 0.9128289 h 3.4046053 v 3.41694083 H 5.6262632 V -3.4901234 H 9.0432039 V -4.4029523 H 5.6262632 v -3.4169408 z m 0,0" style="fill:#ffffff;fill-opacity:1;fill-rule:nonzero;stroke:none" aria-label="+" transform="matrix(1.2666667,0,0,1.2666667,373.3734,211.63567)" />
    <path id="path60" d="M 19.84267,39.68535 V -13.66576" style="fill:none;stroke:#78a9ff;stroke-width:0.79701;stroke-linecap:butt;stroke-linejoin:miter;stroke-miterlimit:10;stroke-dasharray:none;stroke-opacity:1" transform="matrix(1.2666667,0,0,-1.2666667,279.37913,156.41153)" />
    <path id="path61" d="M 39.68535,19.84267 V -13.66576" style="fill:none;stroke:#78a9ff;stroke-width:0.79701;stroke-linecap:butt;stroke-linejoin:miter;stroke-miterlimit:10;stroke-dasharray:none;stroke-opacity:1" transform="matrix(1.2666667,0,0,-1.2666667,279.37913,156.41153)" />
    <path id="path62" d="M 59.52846,19.84267 V -33.50844" style="fill:none;stroke:#78a9ff;stroke-width:0.79701;stroke-linecap:butt;stroke-linejoin:miter;stroke-miterlimit:10;stroke-dasharray:none;stroke-opacity:1" transform="matrix(1.2666667,0,0,-1.2666667,279.37913,156.41153)" />
    <path id="path63" d="M 79.37114,0 V -33.50844" style="fill:none;stroke:#78a9ff;stroke-width:0.79701;stroke-linecap:butt;stroke-linejoin:miter;stroke-miterlimit:10;stroke-dasharray:none;stroke-opacity:1" transform="matrix(1.2666667,0,0,-1.2666667,279.37913,156.41153)" />
    <g id="g63" aria-label="⎫&#10;⎪&#10;⎪&#10;⎪&#10;⎪&#10;⎪&#10;⎪&#10;⎪&#10;⎬&#10;⎪&#10;⎪&#10;⎪&#10;⎪&#10;⎪&#10;⎪&#10;⎪&#10;⎭&#10;α∣000⟩+β∣111⟩" transform="matrix(1.2666667,0,0,1.2666667,458.65553,107.48527)">
      <path id="path64" d="m 0.71602632,-4.5401776 v 0.4317434 c 0.72779608,0 1.36924338,0.4810855 1.36924338,1.171875 V 0.40636842 H 2.6033618 V -2.9365592 c 0,-0.9498355 -0.9004934,-1.6036184 -1.88733548,-1.6036184 z m 1.36924338,4.3636924 v 2.8495066 h 0.5180921 v -2.8495066 z m 0,2.34375 V 5.0167714 H 2.6033618 V 2.1672648 Z m 0,2.34375 V 7.3605214 H 2.6033618 V 4.5110148 Z m 0,2.34375 V 9.7042714 H 2.6033618 V 6.8547648 Z m 0,2.34375 V 12.048021 H 2.6033618 V 9.1985148 Z m 0,2.3406662 v 2.849507 h 0.5180921 v -2.849507 z m 0,2.346834 v 2.849506 h 0.5180921 v -2.849506 z m 0,7.533923 h 0.5180921 v -1.258224 c 0,-0.641448 0.6044408,-1.073191 1.2828948,-1.110198 h 0.086349 v -0.456414 c -0.7154606,0 -1.3692435,-0.456414 -1.3692435,-1.122533 V 16.226681 H 2.0852697 v 1.258224 c 0,0.592105 0.3700658,1.060855 0.9004935,1.332236 -0.5304277,0.271382 -0.9004935,0.752468 -0.9004935,1.356908 z m 0,-0.57977 v 2.849506 h 0.5180921 v -2.849506 z m 0,2.340666 v 2.849506 h 0.5180921 v -2.849506 z m 0,2.34375 v 2.849506 h 0.5180921 v -2.849506 z m 0,2.34375 v 2.849506 h 0.5180921 v -2.849506 z m 0,2.34375 v 2.849506 h 0.5180921 v -2.849506 z m 0,2.34375 v 2.849506 h 0.5180921 v -2.849506 z m 0,2.340666 v 2.849507 H 2.6033618 V 34.8965 Z m -1.36924338,6.858553 v 0.419408 c 0.98684208,0 1.88733548,-0.653783 1.88733548,-1.603619 V 37.24025 H 2.0852697 v 3.342928 c 0,0.690789 -0.6414473,1.171875 -1.36924338,1.171875 z m 0,0" style="fill:#121619;fill-opacity:1;fill-rule:nonzero;stroke:none" />
      <path id="path65" d="m 12.296002,19.865661 c 0.752467,-0.814145 1.011513,-1.850329 1.011513,-1.912006 0,-0.07401 -0.04934,-0.11102 -0.123355,-0.11102 -0.09868,0 -0.11102,0.03701 -0.160362,0.197368 -0.22204,0.814145 -0.703125,1.443257 -0.727796,1.443257 -0.01234,0 -0.01234,-0.209704 -0.01234,-0.333059 -0.01234,-1.40625 -0.925164,-1.689967 -1.467928,-1.689967 -1.1225324,0 -2.2327298,1.097861 -2.2327298,2.220394 0,0.789474 0.5550987,1.369244 1.3939145,1.369244 0.5674343,0 1.1472043,-0.197369 1.7886513,-0.666119 0.172697,0.629112 0.629112,0.666119 0.777138,0.666119 0.456415,0 0.715461,-0.394737 0.715461,-0.555099 0,-0.09868 -0.09868,-0.09868 -0.123356,-0.09868 -0.08635,0 -0.09868,0.02467 -0.123355,0.08635 -0.123355,0.333059 -0.394737,0.345394 -0.444079,0.345394 -0.11102,0 -0.234375,0 -0.271381,-0.962171 z m -0.592106,0.259046 c -0.567434,0.505757 -1.233552,0.703125 -1.702302,0.703125 -0.4070726,0 -0.7648029,-0.234375 -0.7648029,-0.875822 0,-0.271382 0.1233553,-1.097862 0.4934211,-1.62829 0.3207238,-0.444079 0.7524668,-0.641447 1.0855258,-0.641447 0.431744,0 0.678454,0.308388 0.789474,0.801809 0.11102,0.542763 0.04934,1.171875 0.09868,1.640625 z m 0,0" style="fill:#121619;fill-opacity:1;fill-rule:nonzero;stroke:none" />
      <path id="path66" d="m 14.871043,14.882109 v 7.808388 h 0.505756 v -7.808388 z m 0,0" style="fill:#121619;fill-opacity:1;fill-rule:nonzero;stroke:none" />
      <path id="path67" d="m 20.474456,18.43474 c 0,-0.851151 -0.08635,-1.369243 -0.357731,-1.887335 -0.345394,-0.69079 -0.986842,-0.875823 -1.430921,-0.875823 -0.999177,0 -1.369243,0.752467 -1.480263,0.974507 -0.283717,0.57977 -0.308388,1.369243 -0.308388,1.788651 0,0.530428 0.02467,1.332237 0.407072,1.961349 0.370066,0.592105 0.962171,0.752467 1.381579,0.752467 0.382402,0 1.073191,-0.123355 1.467928,-0.912829 0.296053,-0.57977 0.320724,-1.282895 0.320724,-1.800987 z m -1.788652,2.479441 c -0.271381,0 -0.814144,-0.123355 -0.986842,-0.962171 -0.08635,-0.456415 -0.08635,-1.196546 -0.08635,-1.615954 0,-0.542763 0,-1.110197 0.08635,-1.541941 0.172698,-0.814145 0.789474,-0.888158 0.986842,-0.888158 0.271382,0 0.826481,0.123356 0.986842,0.851152 0.08635,0.444079 0.08635,1.036184 0.08635,1.578947 0,0.46875 0,1.18421 -0.08635,1.640625 -0.172697,0.82648 -0.71546,0.9375 -0.986842,0.9375 z m 6.022821,-2.479441 c 0,-0.851151 -0.08635,-1.369243 -0.35773,-1.887335 -0.345395,-0.69079 -0.986842,-0.875823 -1.430921,-0.875823 -0.999178,0 -1.369244,0.752467 -1.480263,0.974507 -0.283718,0.57977 -0.308389,1.369243 -0.308389,1.788651 0,0.530428 0.02467,1.332237 0.407073,1.961349 0.370066,0.592105 0.962171,0.752467 1.381579,0.752467 0.382401,0 1.07319,-0.123355 1.467927,-0.912829 0.296053,-0.57977 0.320724,-1.282895 0.320724,-1.800987 z m -1.788651,2.479441 c -0.271382,0 -0.814145,-0.123355 -0.986842,-0.962171 -0.08635,-0.456415 -0.08635,-1.196546 -0.08635,-1.615954 0,-0.542763 0,-1.110197 0.08635,-1.541941 0.172697,-0.814145 0.789473,-0.888158 0.986842,-0.888158 0.271381,0 0.82648,0.123356 0.986842,0.851152 0.08635,0.444079 0.08635,1.036184 0.08635,1.578947 0,0.46875 0,1.18421 -0.08635,1.640625 -0.172698,0.82648 -0.715461,0.9375 -0.986842,0.9375 z m 6.019737,-2.479441 c 0,-0.851151 -0.08635,-1.369243 -0.357731,-1.887335 -0.345394,-0.69079 -0.986842,-0.875823 -1.430921,-0.875823 -0.999177,0 -1.369243,0.752467 -1.480263,0.974507 -0.283717,0.57977 -0.308388,1.369243 -0.308388,1.788651 0,0.530428 0.02467,1.332237 0.407072,1.961349 0.370066,0.592105 0.962171,0.752467 1.381579,0.752467 0.382402,0 1.073191,-0.123355 1.467928,-0.912829 0.296052,-0.57977 0.320724,-1.282895 0.320724,-1.800987 z m -1.788652,2.479441 c -0.271381,0 -0.814145,-0.123355 -0.986842,-0.962171 -0.08635,-0.456415 -0.08635,-1.196546 -0.08635,-1.615954 0,-0.542763 0,-1.110197 0.08635,-1.541941 0.172697,-0.814145 0.789474,-0.888158 0.986842,-0.888158 0.271382,0 0.82648,0.123356 0.986842,0.851152 0.08635,0.444079 0.08635,1.036184 0.08635,1.578947 0,0.46875 0,1.18421 -0.08635,1.640625 -0.172697,0.82648 -0.71546,0.9375 -0.986842,0.9375 z m 0,0" style="fill:#121619;fill-opacity:1;fill-rule:nonzero;stroke:none" />
      <path id="path68" d="m 30.487819,22.776845 1.430921,-3.99671 -1.430921,-3.984375 -0.481085,0.172697 1.443256,3.811678 -1.443256,3.824013 z m 0,0" style="fill:#121619;fill-opacity:1;fill-rule:nonzero;stroke:none" />
      <path id="path69" d="m 37.044151,16.633753 v 1.899671 H 35.14448 v 0.505757 h 1.899671 v 1.899671 h 0.505757 v -1.899671 h 1.899671 v -0.505757 h -1.899671 v -1.899671 z m 0,0" style="fill:#121619;fill-opacity:1;fill-rule:nonzero;stroke:none" />
      <path id="path70" d="m 46.724456,16.436385 c 0,-0.715461 -0.592106,-1.073191 -1.258224,-1.073191 -1.023849,0 -1.788651,1.15954 -2.010691,2.035362 l -1.258224,5.032895 c -0.02467,0.04934 0.04934,0.08635 0.08635,0.08635 0.07401,0 0.135691,0 0.148026,-0.04934 l 0.542764,-2.134046 c 0.185032,0.431744 0.555098,0.715461 1.134868,0.715461 1.097862,0 2.294408,-0.777138 2.294408,-2.047698 0,-0.530427 -0.197369,-0.875822 -0.592105,-1.208881 0.04934,0 0.185033,-0.11102 0.234375,-0.135691 0.394736,-0.271382 0.678454,-0.727796 0.678454,-1.221217 z m -1.578948,1.356908 c -0.135691,0.02467 -0.283717,0.03701 -0.431743,0.03701 -0.08635,0 -0.172698,0 -0.271382,-0.02467 0.160362,-0.03701 0.320724,-0.03701 0.46875,-0.03701 0.07401,0 0.160362,0 0.234375,0.02467 z m 1.073191,-1.504934 c 0,0.394736 -0.172697,0.875822 -0.456414,1.147204 -0.03701,0.03701 -0.209704,0.197368 -0.259047,0.197368 -0.222039,-0.03701 -0.394736,-0.08635 -0.629111,-0.08635 -0.197369,0 -0.703125,-0.02467 -0.703125,0.283717 0,0.246711 0.456414,0.234375 0.616776,0.234375 0.24671,0 0.46875,-0.02467 0.703125,-0.111019 0.234375,0.185033 0.35773,0.444079 0.35773,0.838815 0,0.46875 -0.160362,0.999178 -0.382401,1.319902 -0.296053,0.419408 -0.789474,0.71546 -1.393915,0.71546 -0.530427,0 -0.9375,-0.407072 -0.9375,-0.962171 0,-0.11102 0.01234,-0.209704 0.02467,-0.296052 l 0.530428,-2.121711 c 0.172697,-0.690789 0.851151,-1.862664 1.751645,-1.862664 0.407072,0 0.777138,0.197368 0.777138,0.703125 z m 0,0" style="fill:#121619;fill-opacity:1;fill-rule:nonzero;stroke:none" />
      <path id="path71" d="m 48.297235,14.882109 v 7.808388 h 0.505757 v -7.808388 z m 0,0" style="fill:#121619;fill-opacity:1;fill-rule:nonzero;stroke:none" />
      <path id="path72" d="m 52.506734,15.905957 c 0,-0.222039 -0.01234,-0.234375 -0.234375,-0.234375 -0.320724,0.320724 -0.752468,0.518092 -1.504935,0.518092 v 0.259046 c 0.209704,0 0.641448,0 1.110198,-0.209704 v 4.08306 c 0,0.296052 -0.02467,0.394737 -0.777138,0.394737 h -0.283718 v 0.259046 c 0.320724,-0.02467 1.011514,-0.02467 1.369244,-0.02467 0.35773,0 1.04852,0 1.381579,0.02467 v -0.259046 h -0.283717 c -0.752467,0 -0.777138,-0.09868 -0.777138,-0.394737 z m 4.231085,0 c 0,-0.222039 -0.01234,-0.234375 -0.234375,-0.234375 -0.320724,0.320724 -0.752467,0.518092 -1.504934,0.518092 v 0.259046 c 0.209704,0 0.641447,0 1.110197,-0.209704 v 4.08306 c 0,0.296052 -0.02467,0.394737 -0.777138,0.394737 h -0.283717 v 0.259046 c 0.320724,-0.02467 1.011513,-0.02467 1.369243,-0.02467 0.357731,0 1.04852,0 1.381579,0.02467 v -0.259046 h -0.283717 c -0.752467,0 -0.777138,-0.09868 -0.777138,-0.394737 z m 4.231086,0 c 0,-0.222039 -0.01234,-0.234375 -0.234375,-0.234375 -0.320724,0.320724 -0.752468,0.518092 -1.504935,0.518092 v 0.259046 c 0.209704,0 0.641448,0 1.110198,-0.209704 v 4.08306 c 0,0.296052 -0.02467,0.394737 -0.777138,0.394737 h -0.283718 v 0.259046 c 0.320724,-0.02467 1.011514,-0.02467 1.369244,-0.02467 0.35773,0 1.04852,0 1.381579,0.02467 v -0.259046 h -0.283717 c -0.752467,0 -0.777138,-0.09868 -0.777138,-0.394737 z m 0,0" style="fill:#121619;fill-opacity:1;fill-rule:nonzero;stroke:none" />
      <path id="path73" d="m 63.914012,22.776845 1.430921,-3.99671 -1.430921,-3.984375 -0.481086,0.172697 1.443257,3.811678 -1.443257,3.824013 z m 0,0" style="fill:#121619;fill-opacity:1;fill-rule:nonzero;stroke:none" />
    </g>
    <path id="path74" d="m 3.899199,-2.5426382 c 0,-0.8511513 -0.086349,-1.3692434 -0.3577302,-1.8873355 -0.3453948,-0.6907895 -0.9868422,-0.8758224 -1.4309211,-0.8758224 -0.9991776,0 -1.36924342,0.7524672 -1.48026316,0.9745066 -0.28371711,0.5797698 -0.30838816,1.3692434 -0.30838816,1.7886513 0,0.5304277 0.0246711,1.3322369 0.40707237,1.96134873 0.37006575,0.59210526 0.96217105,0.7524671 1.38157895,0.7524671 0.3824013,0 1.0731908,-0.12335526 1.4679276,-0.91282895 C 3.874528,-1.3214211 3.899199,-2.0245461 3.899199,-2.5426382 Z m -1.7886513,2.47944083 c -0.2713816,0 -0.8141447,-0.12335526 -0.9868421,-0.96217103 -0.086349,-0.4564145 -0.086349,-1.1965461 -0.086349,-1.615954 0,-0.5427631 0,-1.1101973 0.086349,-1.5419408 0.1726974,-0.8141447 0.7894737,-0.8881579 0.9868421,-0.8881579 0.2713816,0 0.8264803,0.1233553 0.9868421,0.8511514 0.086349,0.4440789 0.086349,1.0361842 0.086349,1.5789473 0,0.46875 0,1.1842106 -0.086349,1.640625 -0.1726974,0.82648029 -0.7154605,0.93750003 -0.9868421,0.93750003 z m 0,0" style="fill:#121619;fill-opacity:1;fill-rule:nonzero;stroke:none" aria-label="0" transform="matrix(1.2666667,0,0,1.2666667,444.57273,184.7988)" />
    <path id="path75" d="m 3.899199,-2.5408602 c 0,-0.8511513 -0.086349,-1.3692434 -0.3577302,-1.8873355 -0.3453948,-0.6907895 -0.9868422,-0.8758224 -1.4309211,-0.8758224 -0.9991776,0 -1.36924342,0.7524671 -1.48026316,0.9745066 -0.28371711,0.5797697 -0.30838816,1.3692434 -0.30838816,1.7886513 0,0.5304276 0.0246711,1.3322368 0.40707237,1.96134869 0.37006575,0.59210526 0.96217105,0.7524671 1.38157895,0.7524671 0.3824013,0 1.0731908,-0.12335526 1.4679276,-0.91282895 C 3.874528,-1.3196431 3.899199,-2.0227681 3.899199,-2.5408602 Z m -1.7886513,2.47944079 c -0.2713816,0 -0.8141447,-0.12335526 -0.9868421,-0.96217109 -0.086349,-0.4564144 -0.086349,-1.196546 -0.086349,-1.6159539 0,-0.5427632 0,-1.1101974 0.086349,-1.5419408 0.1726974,-0.8141447 0.7894737,-0.8881579 0.9868421,-0.8881579 0.2713816,0 0.8264803,0.1233553 0.9868421,0.8511513 0.086349,0.444079 0.086349,1.0361842 0.086349,1.5789474 0,0.46875 0,1.1842105 -0.086349,1.64062499 -0.1726974,0.82648027 -0.7154605,0.9375 -0.9868421,0.9375 z m 0,0" style="fill:#121619;fill-opacity:1;fill-rule:nonzero;stroke:none" aria-label="0" transform="matrix(1.2666667,0,0,1.2666667,444.57273,209.93327)" />
  </g>
</svg>