<svg width="809" height="1052" viewBox="0 0 809 1052" fill="none" xmlns="http://www.w3.org/2000/svg">
<g clip-path="url(#clip0_9471_66498)">
<rect width="809" height="1052" fill="#F4F4F4"/>
<path d="M-27.904 165.128V165.968H-29.14C-29.8 165.968 -30.148 165.548 -30.148 164.984V164.132C-32.08 163.952 -33.304 162.44 -33.304 159.812C-33.304 157.004 -31.912 155.48 -29.752 155.48C-27.592 155.48 -26.2 157.004 -26.2 159.812C-26.2 162.368 -27.352 163.856 -29.188 164.108V165.128H-27.904ZM-29.752 163.244C-28.3 163.244 -27.28 162.164 -27.28 160.508V159.116C-27.28 157.46 -28.3 156.38 -29.752 156.38C-31.204 156.38 -32.224 157.46 -32.224 159.116V160.508C-32.224 162.164 -31.204 163.244 -29.752 163.244ZM-20.3479 164V162.992H-20.3959C-20.6359 163.58 -21.1039 164.144 -22.1359 164.144C-23.4079 164.144 -24.2239 163.28 -24.2239 161.78V157.808H-23.2639V161.612C-23.2639 162.716 -22.7719 163.28 -21.8479 163.28C-21.0919 163.28 -20.3479 162.908 -20.3479 162.092V157.808H-19.3879V164H-20.3479ZM-11.9836 164H-12.5236C-13.2316 164 -13.5196 163.568 -13.5916 162.992H-13.6516C-13.9156 163.748 -14.5756 164.144 -15.4396 164.144C-16.7476 164.144 -17.5156 163.424 -17.5156 162.272C-17.5156 161.108 -16.6756 160.46 -14.8756 160.46H-13.6516V159.848C-13.6516 158.972 -14.1316 158.492 -15.1156 158.492C-15.8596 158.492 -16.3516 158.852 -16.6876 159.416L-17.2636 158.876C-16.9276 158.216 -16.1836 157.664 -15.0676 157.664C-13.5796 157.664 -12.6916 158.444 -12.6916 159.752V163.16H-11.9836V164ZM-15.2836 163.328C-14.3356 163.328 -13.6516 162.836 -13.6516 162.2V161.18H-14.9236C-16.0156 161.18 -16.5076 161.516 -16.5076 162.116V162.368C-16.5076 162.98 -16.0276 163.328 -15.2836 163.328ZM-9.33344 164H-10.2934V157.808H-9.33344V158.816H-9.28544C-8.98544 158.12 -8.45744 157.664 -7.53344 157.664C-6.26144 157.664 -5.45744 158.528 -5.45744 160.028V164H-6.41744V160.196C-6.41744 159.092 -6.89744 158.528 -7.82144 158.528C-8.58944 158.528 -9.33344 158.912 -9.33344 159.704V164ZM-0.585124 164H-1.78512C-2.44512 164 -2.80512 163.58 -2.80512 162.98V158.648H-3.82512V157.808H-3.24912C-2.84112 157.808 -2.70912 157.664 -2.70912 157.244V156.092H-1.84512V157.808H-0.489124V158.648H-1.84512V163.16H-0.585124V164ZM5.18991 164V162.992H5.1419C4.9019 163.58 4.4339 164.144 3.4019 164.144C2.1299 164.144 1.3139 163.28 1.3139 161.78V157.808H2.2739V161.612C2.2739 162.716 2.7659 163.28 3.68991 163.28C4.4459 163.28 5.18991 162.908 5.18991 162.092V157.808H6.1499V164H5.18991ZM9.47422 164H8.51422V157.808H9.47422V158.816H9.52222C9.79822 158.18 10.2302 157.664 11.1902 157.664C12.0062 157.664 12.7502 158.036 13.0862 158.924H13.1102C13.3382 158.252 13.9382 157.664 14.9942 157.664C16.2542 157.664 17.0102 158.528 17.0102 160.028V164H16.0502V160.196C16.0502 159.104 15.6302 158.528 14.6942 158.528C13.9382 158.528 13.2422 158.912 13.2422 159.704V164H12.2822V160.196C12.2822 159.092 11.8622 158.528 10.9502 158.528C10.1942 158.528 9.47422 158.912 9.47422 159.704V164ZM24.7707 164.144C23.0307 164.144 22.0107 162.884 22.0107 160.904C22.0107 158.924 23.0307 157.664 24.7707 157.664C25.9947 157.664 26.7267 158.264 27.0867 159.116L26.2827 159.524C26.0547 158.888 25.5267 158.516 24.7707 158.516C23.6307 158.516 23.0427 159.296 23.0427 160.376V161.432C23.0427 162.512 23.6307 163.292 24.7707 163.292C25.5507 163.292 26.1147 162.92 26.4507 162.212L27.1467 162.68C26.7507 163.568 25.9467 164.144 24.7707 164.144ZM29.3019 156.356C28.8939 156.356 28.7139 156.14 28.7139 155.816V155.66C28.7139 155.336 28.8939 155.12 29.3019 155.12C29.7099 155.12 29.8899 155.336 29.8899 155.66V155.816C29.8899 156.14 29.7099 156.356 29.3019 156.356ZM28.8219 164V157.808H29.7819V164H28.8219ZM33.1019 164H32.1419V157.808H33.1019V158.948H33.1619C33.3779 158.36 33.9419 157.808 34.9499 157.808H35.3219V158.768H34.7579C33.7259 158.768 33.1019 159.212 33.1019 159.8V164ZM39.1135 164.144C37.3735 164.144 36.3535 162.884 36.3535 160.904C36.3535 158.924 37.3735 157.664 39.1135 157.664C40.3375 157.664 41.0695 158.264 41.4295 159.116L40.6255 159.524C40.3975 158.888 39.8695 158.516 39.1135 158.516C37.9735 158.516 37.3855 159.296 37.3855 160.376V161.432C37.3855 162.512 37.9735 163.292 39.1135 163.292C39.8935 163.292 40.4575 162.92 40.7935 162.212L41.4895 162.68C41.0935 163.568 40.2895 164.144 39.1135 164.144ZM46.9807 164V162.992H46.9327C46.6927 163.58 46.2247 164.144 45.1927 164.144C43.9207 164.144 43.1047 163.28 43.1047 161.78V157.808H44.0647V161.612C44.0647 162.716 44.5567 163.28 45.4807 163.28C46.2367 163.28 46.9807 162.908 46.9807 162.092V157.808H47.9407V164H46.9807ZM50.785 156.356C50.377 156.356 50.197 156.14 50.197 155.816V155.66C50.197 155.336 50.377 155.12 50.785 155.12C51.193 155.12 51.373 155.336 51.373 155.66V155.816C51.373 156.14 51.193 156.356 50.785 156.356ZM50.305 164V157.808H51.265V164H50.305ZM56.193 164H54.993C54.333 164 53.973 163.58 53.973 162.98V158.648H52.953V157.808H53.529C53.937 157.808 54.069 157.664 54.069 157.244V156.092H54.933V157.808H56.289V158.648H54.933V163.16H56.193V164ZM60.012 164.144C58.872 164.144 58.116 163.664 57.564 162.932L58.248 162.38C58.728 162.98 59.304 163.328 60.084 163.328C60.9 163.328 61.38 162.956 61.38 162.32C61.38 161.84 61.116 161.468 60.3 161.348L59.808 161.276C58.668 161.108 57.816 160.64 57.816 159.488C57.816 158.264 58.764 157.664 60.024 157.664C61.02 157.664 61.68 158.036 62.184 158.66L61.548 159.236C61.272 158.852 60.744 158.48 59.952 158.48C59.16 158.48 58.74 158.852 58.74 159.44C58.74 160.04 59.16 160.28 59.928 160.4L60.408 160.472C61.776 160.676 62.304 161.276 62.304 162.212C62.304 163.412 61.428 164.144 60.012 164.144Z" fill="#F4F4F4"/>
<path d="M284 726L279 723.113L279 728.887L284 726ZM104 726L104 726.5L104 726ZM104 726.5L279.5 726.5L279.5 725.5L104 725.5L104 726.5ZM95.5001 427L95.5 718L96.5 718L96.5001 427L95.5001 427ZM104 725.5C99.8579 725.5 96.5 722.142 96.5 718L95.5 718C95.5 722.694 99.3056 726.5 104 726.5L104 725.5Z" fill="black"/>
<path d="M214 102L104 102C99.5818 102 96.0001 105.582 96.0001 110L96 401" stroke="black"/>
<path d="M419 287L342 287C337.582 287 334 290.582 334 295L334 359" stroke="black"/>
<path d="M531 287L608 287C612.418 287 616 290.582 616 295L616 359" stroke="black"/>
<rect x="231" y="68" width="480" height="68" rx="8" fill="#E8DAFF"/>
<rect x="231" y="68" width="480" height="68" rx="8" stroke="#8A3FFC"/>
<path d="M440.4 110H438.62L437.44 106.02H432.54L431.36 110H429.62L433.9 96.04H436.12L440.4 110ZM437.04 104.56L435.08 97.82H434.9L432.94 104.56H437.04ZM447.352 110.24C444.392 110.24 442.672 108.1 442.672 104.84C442.672 101.56 444.412 99.44 447.332 99.44C449.332 99.44 450.572 100.42 451.152 101.82L449.872 102.5C449.492 101.44 448.612 100.82 447.332 100.82C445.452 100.82 444.392 102.14 444.392 103.96V105.72C444.392 107.54 445.432 108.86 447.372 108.86C448.752 108.86 449.652 108.18 450.172 107.06L451.312 107.84C450.712 109.22 449.412 110.24 447.352 110.24ZM459.344 110.24C456.384 110.24 454.664 108.1 454.664 104.84C454.664 101.56 456.404 99.44 459.324 99.44C461.324 99.44 462.564 100.42 463.144 101.82L461.864 102.5C461.484 101.44 460.604 100.82 459.324 100.82C457.444 100.82 456.384 102.14 456.384 103.96V105.72C456.384 107.54 457.424 108.86 459.364 108.86C460.744 108.86 461.644 108.18 462.164 107.06L463.304 107.84C462.704 109.22 461.404 110.24 459.344 110.24ZM470.977 110.24C468.077 110.24 466.297 108.12 466.297 104.84C466.297 101.56 468.077 99.44 470.977 99.44C473.877 99.44 475.657 101.56 475.657 104.84C475.657 108.12 473.877 110.24 470.977 110.24ZM470.977 108.86C472.757 108.86 473.957 107.8 473.957 105.58V104.1C473.957 101.88 472.757 100.82 470.977 100.82C469.197 100.82 467.997 101.88 467.997 104.1V105.58C467.997 107.8 469.197 108.86 470.977 108.86ZM485.409 110V108.32H485.329C484.889 109.34 484.089 110.24 482.389 110.24C480.229 110.24 478.809 108.8 478.809 106.3V99.68H480.409V106.02C480.409 107.9 481.269 108.82 482.849 108.82C484.129 108.82 485.409 108.2 485.409 106.84V99.68H487.009V110H485.409ZM492.521 110H490.921V99.68H492.521V101.36H492.601C493.041 100.34 493.841 99.44 495.541 99.44C497.701 99.44 499.121 100.88 499.121 103.38V110H497.521V103.66C497.521 101.78 496.661 100.86 495.081 100.86C493.801 100.86 492.521 101.48 492.521 102.84V110ZM511.473 110H507.453C505.893 110 505.173 109.02 505.173 107.64V101.04H501.733V99.68H504.293C504.973 99.68 505.233 99.44 505.233 98.74V96.04H506.773V99.68H511.473V101.04H506.773V108.64H511.473V110Z" fill="black"/>
<rect x="246" y="441" width="184" height="68" rx="8" fill="#E8DAFF"/>
<rect x="246" y="441" width="184" height="68" rx="8" stroke="#8A3FFC"/>
<path d="M277.4 483H275.62L274.44 479.02H269.54L268.36 483H266.62L270.9 469.04H273.12L277.4 483ZM274.04 477.56L272.08 470.82H271.9L269.94 477.56H274.04ZM284.352 483.24C281.392 483.24 279.672 481.1 279.672 477.84C279.672 474.56 281.412 472.44 284.332 472.44C286.332 472.44 287.572 473.42 288.152 474.82L286.872 475.5C286.492 474.44 285.612 473.82 284.332 473.82C282.452 473.82 281.392 475.14 281.392 476.96V478.72C281.392 480.54 282.432 481.86 284.372 481.86C285.752 481.86 286.652 481.18 287.172 480.06L288.312 480.84C287.712 482.22 286.412 483.24 284.352 483.24ZM296.344 483.24C293.384 483.24 291.664 481.1 291.664 477.84C291.664 474.56 293.404 472.44 296.324 472.44C298.324 472.44 299.564 473.42 300.144 474.82L298.864 475.5C298.484 474.44 297.604 473.82 296.324 473.82C294.444 473.82 293.384 475.14 293.384 476.96V478.72C293.384 480.54 294.424 481.86 296.364 481.86C297.744 481.86 298.644 481.18 299.164 480.06L300.304 480.84C299.704 482.22 298.404 483.24 296.344 483.24ZM308.157 483.24C305.197 483.24 303.317 481.12 303.317 477.86C303.317 474.56 305.257 472.44 308.057 472.44C310.837 472.44 312.637 474.56 312.637 477.48V478.24H304.997V478.72C304.997 480.54 306.217 481.86 308.157 481.86C309.537 481.86 310.577 481.18 311.117 480.06L312.297 480.86C311.677 482.24 310.197 483.24 308.157 483.24ZM308.057 473.76C306.297 473.76 304.997 475.1 304.997 476.9V477.04H310.917V476.82C310.917 475 309.757 473.76 308.057 473.76ZM320.089 483.24C317.929 483.24 316.389 482.44 315.309 481.22L316.389 480.28C317.369 481.32 318.489 481.9 320.129 481.9C321.729 481.9 322.869 481.34 322.869 480.12C322.869 479.04 321.989 478.76 321.049 478.62L319.429 478.38C317.969 478.16 315.889 477.76 315.889 475.52C315.889 473.46 317.649 472.44 320.049 472.44C321.909 472.44 323.269 473.06 324.249 474.1L323.209 475.08C322.729 474.5 321.809 473.78 319.989 473.78C318.369 473.78 317.469 474.36 317.469 475.42C317.469 476.5 318.369 476.78 319.289 476.92L320.909 477.16C322.389 477.38 324.449 477.78 324.449 480.02C324.449 482.06 322.729 483.24 320.089 483.24ZM332.081 483.24C329.921 483.24 328.381 482.44 327.301 481.22L328.381 480.28C329.361 481.32 330.481 481.9 332.121 481.9C333.721 481.9 334.861 481.34 334.861 480.12C334.861 479.04 333.981 478.76 333.041 478.62L331.421 478.38C329.961 478.16 327.881 477.76 327.881 475.52C327.881 473.46 329.641 472.44 332.041 472.44C333.901 472.44 335.261 473.06 336.241 474.1L335.201 475.08C334.721 474.5 333.801 473.78 331.981 473.78C330.361 473.78 329.461 474.36 329.461 475.42C329.461 476.5 330.361 476.78 331.281 476.92L332.901 477.16C334.381 477.38 336.441 477.78 336.441 480.02C336.441 482.06 334.721 483.24 332.081 483.24ZM358.825 483V481.14H358.725C358.265 482.22 357.485 483.24 355.565 483.24C352.545 483.24 351.065 480.68 351.065 476.12C351.065 471.36 352.685 468.8 356.045 468.8C358.665 468.8 359.785 470.34 360.385 471.86L358.945 472.52C358.445 471.28 357.785 470.26 356.105 470.26C353.865 470.26 352.845 472.08 352.845 474.88V477.04C352.845 479.84 353.665 481.82 355.945 481.82C357.745 481.82 358.825 480.6 358.825 478.88V477.44H355.885V476.1H360.385V483H358.825ZM363.478 483V481.64H366.498V474.04H363.478V472.68H368.098V475.28H368.198C368.598 473.92 369.518 472.68 371.678 472.68H373.118V474.28H371.178C369.158 474.28 368.098 475.58 368.098 477.18V481.64H371.318V483H363.478ZM379.93 483.24C377.03 483.24 375.25 481.12 375.25 477.84C375.25 474.56 377.03 472.44 379.93 472.44C382.83 472.44 384.61 474.56 384.61 477.84C384.61 481.12 382.83 483.24 379.93 483.24ZM379.93 481.86C381.71 481.86 382.91 480.8 382.91 478.58V477.1C382.91 474.88 381.71 473.82 379.93 473.82C378.15 473.82 376.95 474.88 376.95 477.1V478.58C376.95 480.8 378.15 481.86 379.93 481.86ZM394.362 483V481.32H394.282C393.842 482.34 393.042 483.24 391.342 483.24C389.182 483.24 387.762 481.8 387.762 479.3V472.68H389.362V479.02C389.362 480.9 390.222 481.82 391.802 481.82C393.082 481.82 394.362 481.2 394.362 479.84V472.68H395.962V483H394.362ZM399.814 487V472.68H401.414V474.36H401.494C402.154 473.1 403.234 472.44 404.674 472.44C407.194 472.44 408.714 474.46 408.714 477.84C408.714 481.22 407.194 483.24 404.674 483.24C403.234 483.24 402.154 482.58 401.494 481.32H401.414V487H399.814ZM404.054 481.82C405.914 481.82 406.994 480.58 406.994 478.72V476.96C406.994 475.1 405.914 473.86 404.054 473.86C402.634 473.86 401.414 474.6 401.414 475.98V479.7C401.414 481.08 402.634 481.82 404.054 481.82ZM416.026 483.24C413.866 483.24 412.326 482.44 411.246 481.22L412.326 480.28C413.306 481.32 414.426 481.9 416.066 481.9C417.666 481.9 418.806 481.34 418.806 480.12C418.806 479.04 417.926 478.76 416.986 478.62L415.366 478.38C413.906 478.16 411.826 477.76 411.826 475.52C411.826 473.46 413.586 472.44 415.986 472.44C417.846 472.44 419.206 473.06 420.186 474.1L419.146 475.08C418.666 474.5 417.746 473.78 415.926 473.78C414.306 473.78 413.406 474.36 413.406 475.42C413.406 476.5 414.306 476.78 415.226 476.92L416.846 477.16C418.326 477.38 420.386 477.78 420.386 480.02C420.386 482.06 418.666 483.24 416.026 483.24Z" fill="black"/>
<rect x="242" y="437" width="184" height="68" rx="8" fill="#E8DAFF"/>
<rect x="242" y="437" width="184" height="68" rx="8" stroke="#8A3FFC"/>
<path d="M273.4 479H271.62L270.44 475.02H265.54L264.36 479H262.62L266.9 465.04H269.12L273.4 479ZM270.04 473.56L268.08 466.82H267.9L265.94 473.56H270.04ZM280.352 479.24C277.392 479.24 275.672 477.1 275.672 473.84C275.672 470.56 277.412 468.44 280.332 468.44C282.332 468.44 283.572 469.42 284.152 470.82L282.872 471.5C282.492 470.44 281.612 469.82 280.332 469.82C278.452 469.82 277.392 471.14 277.392 472.96V474.72C277.392 476.54 278.432 477.86 280.372 477.86C281.752 477.86 282.652 477.18 283.172 476.06L284.312 476.84C283.712 478.22 282.412 479.24 280.352 479.24ZM292.344 479.24C289.384 479.24 287.664 477.1 287.664 473.84C287.664 470.56 289.404 468.44 292.324 468.44C294.324 468.44 295.564 469.42 296.144 470.82L294.864 471.5C294.484 470.44 293.604 469.82 292.324 469.82C290.444 469.82 289.384 471.14 289.384 472.96V474.72C289.384 476.54 290.424 477.86 292.364 477.86C293.744 477.86 294.644 477.18 295.164 476.06L296.304 476.84C295.704 478.22 294.404 479.24 292.344 479.24ZM304.157 479.24C301.197 479.24 299.317 477.12 299.317 473.86C299.317 470.56 301.257 468.44 304.057 468.44C306.837 468.44 308.637 470.56 308.637 473.48V474.24H300.997V474.72C300.997 476.54 302.217 477.86 304.157 477.86C305.537 477.86 306.577 477.18 307.117 476.06L308.297 476.86C307.677 478.24 306.197 479.24 304.157 479.24ZM304.057 469.76C302.297 469.76 300.997 471.1 300.997 472.9V473.04H306.917V472.82C306.917 471 305.757 469.76 304.057 469.76ZM316.089 479.24C313.929 479.24 312.389 478.44 311.309 477.22L312.389 476.28C313.369 477.32 314.489 477.9 316.129 477.9C317.729 477.9 318.869 477.34 318.869 476.12C318.869 475.04 317.989 474.76 317.049 474.62L315.429 474.38C313.969 474.16 311.889 473.76 311.889 471.52C311.889 469.46 313.649 468.44 316.049 468.44C317.909 468.44 319.269 469.06 320.249 470.1L319.209 471.08C318.729 470.5 317.809 469.78 315.989 469.78C314.369 469.78 313.469 470.36 313.469 471.42C313.469 472.5 314.369 472.78 315.289 472.92L316.909 473.16C318.389 473.38 320.449 473.78 320.449 476.02C320.449 478.06 318.729 479.24 316.089 479.24ZM328.081 479.24C325.921 479.24 324.381 478.44 323.301 477.22L324.381 476.28C325.361 477.32 326.481 477.9 328.121 477.9C329.721 477.9 330.861 477.34 330.861 476.12C330.861 475.04 329.981 474.76 329.041 474.62L327.421 474.38C325.961 474.16 323.881 473.76 323.881 471.52C323.881 469.46 325.641 468.44 328.041 468.44C329.901 468.44 331.261 469.06 332.241 470.1L331.201 471.08C330.721 470.5 329.801 469.78 327.981 469.78C326.361 469.78 325.461 470.36 325.461 471.42C325.461 472.5 326.361 472.78 327.281 472.92L328.901 473.16C330.381 473.38 332.441 473.78 332.441 476.02C332.441 478.06 330.721 479.24 328.081 479.24ZM354.825 479V477.14H354.725C354.265 478.22 353.485 479.24 351.565 479.24C348.545 479.24 347.065 476.68 347.065 472.12C347.065 467.36 348.685 464.8 352.045 464.8C354.665 464.8 355.785 466.34 356.385 467.86L354.945 468.52C354.445 467.28 353.785 466.26 352.105 466.26C349.865 466.26 348.845 468.08 348.845 470.88V473.04C348.845 475.84 349.665 477.82 351.945 477.82C353.745 477.82 354.825 476.6 354.825 474.88V473.44H351.885V472.1H356.385V479H354.825ZM359.478 479V477.64H362.498V470.04H359.478V468.68H364.098V471.28H364.198C364.598 469.92 365.518 468.68 367.678 468.68H369.118V470.28H367.178C365.158 470.28 364.098 471.58 364.098 473.18V477.64H367.318V479H359.478ZM375.93 479.24C373.03 479.24 371.25 477.12 371.25 473.84C371.25 470.56 373.03 468.44 375.93 468.44C378.83 468.44 380.61 470.56 380.61 473.84C380.61 477.12 378.83 479.24 375.93 479.24ZM375.93 477.86C377.71 477.86 378.91 476.8 378.91 474.58V473.1C378.91 470.88 377.71 469.82 375.93 469.82C374.15 469.82 372.95 470.88 372.95 473.1V474.58C372.95 476.8 374.15 477.86 375.93 477.86ZM390.362 479V477.32H390.282C389.842 478.34 389.042 479.24 387.342 479.24C385.182 479.24 383.762 477.8 383.762 475.3V468.68H385.362V475.02C385.362 476.9 386.222 477.82 387.802 477.82C389.082 477.82 390.362 477.2 390.362 475.84V468.68H391.962V479H390.362ZM395.814 483V468.68H397.414V470.36H397.494C398.154 469.1 399.234 468.44 400.674 468.44C403.194 468.44 404.714 470.46 404.714 473.84C404.714 477.22 403.194 479.24 400.674 479.24C399.234 479.24 398.154 478.58 397.494 477.32H397.414V483H395.814ZM400.054 477.82C401.914 477.82 402.994 476.58 402.994 474.72V472.96C402.994 471.1 401.914 469.86 400.054 469.86C398.634 469.86 397.414 470.6 397.414 471.98V475.7C397.414 477.08 398.634 477.82 400.054 477.82ZM412.026 479.24C409.866 479.24 408.326 478.44 407.246 477.22L408.326 476.28C409.306 477.32 410.426 477.9 412.066 477.9C413.666 477.9 414.806 477.34 414.806 476.12C414.806 475.04 413.926 474.76 412.986 474.62L411.366 474.38C409.906 474.16 407.826 473.76 407.826 471.52C407.826 469.46 409.586 468.44 411.986 468.44C413.846 468.44 415.206 469.06 416.186 470.1L415.146 471.08C414.666 470.5 413.746 469.78 411.926 469.78C410.306 469.78 409.406 470.36 409.406 471.42C409.406 472.5 410.306 472.78 411.226 472.92L412.846 473.16C414.326 473.38 416.386 473.78 416.386 476.02C416.386 478.06 414.666 479.24 412.026 479.24Z" fill="black"/>
<rect x="238" y="433" width="184" height="68" rx="8" fill="#E8DAFF"/>
<rect x="238" y="433" width="184" height="68" rx="8" stroke="#8A3FFC"/>
<path d="M269.4 475H267.62L266.44 471.02H261.54L260.36 475H258.62L262.9 461.04H265.12L269.4 475ZM266.04 469.56L264.08 462.82H263.9L261.94 469.56H266.04ZM276.352 475.24C273.392 475.24 271.672 473.1 271.672 469.84C271.672 466.56 273.412 464.44 276.332 464.44C278.332 464.44 279.572 465.42 280.152 466.82L278.872 467.5C278.492 466.44 277.612 465.82 276.332 465.82C274.452 465.82 273.392 467.14 273.392 468.96V470.72C273.392 472.54 274.432 473.86 276.372 473.86C277.752 473.86 278.652 473.18 279.172 472.06L280.312 472.84C279.712 474.22 278.412 475.24 276.352 475.24ZM288.344 475.24C285.384 475.24 283.664 473.1 283.664 469.84C283.664 466.56 285.404 464.44 288.324 464.44C290.324 464.44 291.564 465.42 292.144 466.82L290.864 467.5C290.484 466.44 289.604 465.82 288.324 465.82C286.444 465.82 285.384 467.14 285.384 468.96V470.72C285.384 472.54 286.424 473.86 288.364 473.86C289.744 473.86 290.644 473.18 291.164 472.06L292.304 472.84C291.704 474.22 290.404 475.24 288.344 475.24ZM300.157 475.24C297.197 475.24 295.317 473.12 295.317 469.86C295.317 466.56 297.257 464.44 300.057 464.44C302.837 464.44 304.637 466.56 304.637 469.48V470.24H296.997V470.72C296.997 472.54 298.217 473.86 300.157 473.86C301.537 473.86 302.577 473.18 303.117 472.06L304.297 472.86C303.677 474.24 302.197 475.24 300.157 475.24ZM300.057 465.76C298.297 465.76 296.997 467.1 296.997 468.9V469.04H302.917V468.82C302.917 467 301.757 465.76 300.057 465.76ZM312.089 475.24C309.929 475.24 308.389 474.44 307.309 473.22L308.389 472.28C309.369 473.32 310.489 473.9 312.129 473.9C313.729 473.9 314.869 473.34 314.869 472.12C314.869 471.04 313.989 470.76 313.049 470.62L311.429 470.38C309.969 470.16 307.889 469.76 307.889 467.52C307.889 465.46 309.649 464.44 312.049 464.44C313.909 464.44 315.269 465.06 316.249 466.1L315.209 467.08C314.729 466.5 313.809 465.78 311.989 465.78C310.369 465.78 309.469 466.36 309.469 467.42C309.469 468.5 310.369 468.78 311.289 468.92L312.909 469.16C314.389 469.38 316.449 469.78 316.449 472.02C316.449 474.06 314.729 475.24 312.089 475.24ZM324.081 475.24C321.921 475.24 320.381 474.44 319.301 473.22L320.381 472.28C321.361 473.32 322.481 473.9 324.121 473.9C325.721 473.9 326.861 473.34 326.861 472.12C326.861 471.04 325.981 470.76 325.041 470.62L323.421 470.38C321.961 470.16 319.881 469.76 319.881 467.52C319.881 465.46 321.641 464.44 324.041 464.44C325.901 464.44 327.261 465.06 328.241 466.1L327.201 467.08C326.721 466.5 325.801 465.78 323.981 465.78C322.361 465.78 321.461 466.36 321.461 467.42C321.461 468.5 322.361 468.78 323.281 468.92L324.901 469.16C326.381 469.38 328.441 469.78 328.441 472.02C328.441 474.06 326.721 475.24 324.081 475.24ZM350.825 475V473.14H350.725C350.265 474.22 349.485 475.24 347.565 475.24C344.545 475.24 343.065 472.68 343.065 468.12C343.065 463.36 344.685 460.8 348.045 460.8C350.665 460.8 351.785 462.34 352.385 463.86L350.945 464.52C350.445 463.28 349.785 462.26 348.105 462.26C345.865 462.26 344.845 464.08 344.845 466.88V469.04C344.845 471.84 345.665 473.82 347.945 473.82C349.745 473.82 350.825 472.6 350.825 470.88V469.44H347.885V468.1H352.385V475H350.825ZM355.478 475V473.64H358.498V466.04H355.478V464.68H360.098V467.28H360.198C360.598 465.92 361.518 464.68 363.678 464.68H365.118V466.28H363.178C361.158 466.28 360.098 467.58 360.098 469.18V473.64H363.318V475H355.478ZM371.93 475.24C369.03 475.24 367.25 473.12 367.25 469.84C367.25 466.56 369.03 464.44 371.93 464.44C374.83 464.44 376.61 466.56 376.61 469.84C376.61 473.12 374.83 475.24 371.93 475.24ZM371.93 473.86C373.71 473.86 374.91 472.8 374.91 470.58V469.1C374.91 466.88 373.71 465.82 371.93 465.82C370.15 465.82 368.95 466.88 368.95 469.1V470.58C368.95 472.8 370.15 473.86 371.93 473.86ZM386.362 475V473.32H386.282C385.842 474.34 385.042 475.24 383.342 475.24C381.182 475.24 379.762 473.8 379.762 471.3V464.68H381.362V471.02C381.362 472.9 382.222 473.82 383.802 473.82C385.082 473.82 386.362 473.2 386.362 471.84V464.68H387.962V475H386.362ZM391.814 479V464.68H393.414V466.36H393.494C394.154 465.1 395.234 464.44 396.674 464.44C399.194 464.44 400.714 466.46 400.714 469.84C400.714 473.22 399.194 475.24 396.674 475.24C395.234 475.24 394.154 474.58 393.494 473.32H393.414V479H391.814ZM396.054 473.82C397.914 473.82 398.994 472.58 398.994 470.72V468.96C398.994 467.1 397.914 465.86 396.054 465.86C394.634 465.86 393.414 466.6 393.414 467.98V471.7C393.414 473.08 394.634 473.82 396.054 473.82Z" fill="black"/>
<rect x="522" y="441" width="196" height="68" rx="8" fill="#E8DAFF"/>
<rect x="522" y="441" width="196" height="68" rx="8" stroke="#8A3FFC"/>
<path d="M553.4 483H551.62L550.44 479.02H545.54L544.36 483H542.62L546.9 469.04H549.12L553.4 483ZM550.04 477.56L548.08 470.82H547.9L545.94 477.56H550.04ZM560.352 483.24C557.392 483.24 555.672 481.1 555.672 477.84C555.672 474.56 557.412 472.44 560.332 472.44C562.332 472.44 563.572 473.42 564.152 474.82L562.872 475.5C562.492 474.44 561.612 473.82 560.332 473.82C558.452 473.82 557.392 475.14 557.392 476.96V478.72C557.392 480.54 558.432 481.86 560.372 481.86C561.752 481.86 562.652 481.18 563.172 480.06L564.312 480.84C563.712 482.22 562.412 483.24 560.352 483.24ZM572.344 483.24C569.384 483.24 567.664 481.1 567.664 477.84C567.664 474.56 569.404 472.44 572.324 472.44C574.324 472.44 575.564 473.42 576.144 474.82L574.864 475.5C574.484 474.44 573.604 473.82 572.324 473.82C570.444 473.82 569.384 475.14 569.384 476.96V478.72C569.384 480.54 570.424 481.86 572.364 481.86C573.744 481.86 574.644 481.18 575.164 480.06L576.304 480.84C575.704 482.22 574.404 483.24 572.344 483.24ZM584.157 483.24C581.197 483.24 579.317 481.12 579.317 477.86C579.317 474.56 581.257 472.44 584.057 472.44C586.837 472.44 588.637 474.56 588.637 477.48V478.24H580.997V478.72C580.997 480.54 582.217 481.86 584.157 481.86C585.537 481.86 586.577 481.18 587.117 480.06L588.297 480.86C587.677 482.24 586.197 483.24 584.157 483.24ZM584.057 473.76C582.297 473.76 580.997 475.1 580.997 476.9V477.04H586.917V476.82C586.917 475 585.757 473.76 584.057 473.76ZM596.089 483.24C593.929 483.24 592.389 482.44 591.309 481.22L592.389 480.28C593.369 481.32 594.489 481.9 596.129 481.9C597.729 481.9 598.869 481.34 598.869 480.12C598.869 479.04 597.989 478.76 597.049 478.62L595.429 478.38C593.969 478.16 591.889 477.76 591.889 475.52C591.889 473.46 593.649 472.44 596.049 472.44C597.909 472.44 599.269 473.06 600.249 474.1L599.209 475.08C598.729 474.5 597.809 473.78 595.989 473.78C594.369 473.78 593.469 474.36 593.469 475.42C593.469 476.5 594.369 476.78 595.289 476.92L596.909 477.16C598.389 477.38 600.449 477.78 600.449 480.02C600.449 482.06 598.729 483.24 596.089 483.24ZM608.081 483.24C605.921 483.24 604.381 482.44 603.301 481.22L604.381 480.28C605.361 481.32 606.481 481.9 608.121 481.9C609.721 481.9 610.861 481.34 610.861 480.12C610.861 479.04 609.981 478.76 609.041 478.62L607.421 478.38C605.961 478.16 603.881 477.76 603.881 475.52C603.881 473.46 605.641 472.44 608.041 472.44C609.901 472.44 611.261 473.06 612.241 474.1L611.201 475.08C610.721 474.5 609.801 473.78 607.981 473.78C606.361 473.78 605.461 474.36 605.461 475.42C605.461 476.5 606.361 476.78 607.281 476.92L608.901 477.16C610.381 477.38 612.441 477.78 612.441 480.02C612.441 482.06 610.721 483.24 608.081 483.24ZM629.425 483H627.745V469.04H632.825C635.405 469.04 636.805 470.54 636.805 473.06C636.805 475.58 635.405 477.08 632.825 477.08H629.425V483ZM629.425 470.5V475.62H632.785C634.185 475.62 635.025 474.88 635.025 473.58V472.54C635.025 471.24 634.185 470.5 632.785 470.5H629.425ZM643.938 483.24C641.038 483.24 639.257 481.12 639.257 477.84C639.257 474.56 641.038 472.44 643.938 472.44C646.838 472.44 648.618 474.56 648.618 477.84C648.618 481.12 646.838 483.24 643.938 483.24ZM643.938 481.86C645.718 481.86 646.918 480.8 646.918 478.58V477.1C646.918 474.88 645.718 473.82 643.938 473.82C642.158 473.82 640.958 474.88 640.958 477.1V478.58C640.958 480.8 642.158 481.86 643.938 481.86ZM651.53 483V481.64H655.13V469.56H651.53V468.2H656.73V481.64H660.33V483H651.53ZM668.562 470.4C667.642 470.4 667.302 469.96 667.302 469.38V469.06C667.302 468.48 667.642 468.04 668.562 468.04C669.482 468.04 669.822 468.48 669.822 469.06V469.38C669.822 469.96 669.482 470.4 668.562 470.4ZM664.042 483V481.64H667.762V474.04H664.042V472.68H669.362V481.64H672.842V483H664.042ZM680.274 483.24C677.314 483.24 675.594 481.1 675.594 477.84C675.594 474.56 677.334 472.44 680.254 472.44C682.254 472.44 683.494 473.42 684.074 474.82L682.794 475.5C682.414 474.44 681.534 473.82 680.254 473.82C678.374 473.82 677.314 475.14 677.314 476.96V478.72C677.314 480.54 678.354 481.86 680.294 481.86C681.674 481.86 682.574 481.18 683.094 480.06L684.234 480.84C683.634 482.22 682.334 483.24 680.274 483.24ZM693.506 477L695.246 472.68H696.846L691.726 485.26C691.246 486.44 690.646 487 689.086 487H687.566V485.64H689.966L691.126 482.8L686.966 472.68H688.606L690.346 477L691.886 480.92H691.966L693.506 477Z" fill="black"/>
<rect x="518" y="437" width="196" height="68" rx="8" fill="#E8DAFF"/>
<rect x="518" y="437" width="196" height="68" rx="8" stroke="#8A3FFC"/>
<path d="M549.4 479H547.62L546.44 475.02H541.54L540.36 479H538.62L542.9 465.04H545.12L549.4 479ZM546.04 473.56L544.08 466.82H543.9L541.94 473.56H546.04ZM556.352 479.24C553.392 479.24 551.672 477.1 551.672 473.84C551.672 470.56 553.412 468.44 556.332 468.44C558.332 468.44 559.572 469.42 560.152 470.82L558.872 471.5C558.492 470.44 557.612 469.82 556.332 469.82C554.452 469.82 553.392 471.14 553.392 472.96V474.72C553.392 476.54 554.432 477.86 556.372 477.86C557.752 477.86 558.652 477.18 559.172 476.06L560.312 476.84C559.712 478.22 558.412 479.24 556.352 479.24ZM568.344 479.24C565.384 479.24 563.664 477.1 563.664 473.84C563.664 470.56 565.404 468.44 568.324 468.44C570.324 468.44 571.564 469.42 572.144 470.82L570.864 471.5C570.484 470.44 569.604 469.82 568.324 469.82C566.444 469.82 565.384 471.14 565.384 472.96V474.72C565.384 476.54 566.424 477.86 568.364 477.86C569.744 477.86 570.644 477.18 571.164 476.06L572.304 476.84C571.704 478.22 570.404 479.24 568.344 479.24ZM580.157 479.24C577.197 479.24 575.317 477.12 575.317 473.86C575.317 470.56 577.257 468.44 580.057 468.44C582.837 468.44 584.637 470.56 584.637 473.48V474.24H576.997V474.72C576.997 476.54 578.217 477.86 580.157 477.86C581.537 477.86 582.577 477.18 583.117 476.06L584.297 476.86C583.677 478.24 582.197 479.24 580.157 479.24ZM580.057 469.76C578.297 469.76 576.997 471.1 576.997 472.9V473.04H582.917V472.82C582.917 471 581.757 469.76 580.057 469.76ZM592.089 479.24C589.929 479.24 588.389 478.44 587.309 477.22L588.389 476.28C589.369 477.32 590.489 477.9 592.129 477.9C593.729 477.9 594.869 477.34 594.869 476.12C594.869 475.04 593.989 474.76 593.049 474.62L591.429 474.38C589.969 474.16 587.889 473.76 587.889 471.52C587.889 469.46 589.649 468.44 592.049 468.44C593.909 468.44 595.269 469.06 596.249 470.1L595.209 471.08C594.729 470.5 593.809 469.78 591.989 469.78C590.369 469.78 589.469 470.36 589.469 471.42C589.469 472.5 590.369 472.78 591.289 472.92L592.909 473.16C594.389 473.38 596.449 473.78 596.449 476.02C596.449 478.06 594.729 479.24 592.089 479.24ZM604.081 479.24C601.921 479.24 600.381 478.44 599.301 477.22L600.381 476.28C601.361 477.32 602.481 477.9 604.121 477.9C605.721 477.9 606.861 477.34 606.861 476.12C606.861 475.04 605.981 474.76 605.041 474.62L603.421 474.38C601.961 474.16 599.881 473.76 599.881 471.52C599.881 469.46 601.641 468.44 604.041 468.44C605.901 468.44 607.261 469.06 608.241 470.1L607.201 471.08C606.721 470.5 605.801 469.78 603.981 469.78C602.361 469.78 601.461 470.36 601.461 471.42C601.461 472.5 602.361 472.78 603.281 472.92L604.901 473.16C606.381 473.38 608.441 473.78 608.441 476.02C608.441 478.06 606.721 479.24 604.081 479.24ZM625.425 479H623.745V465.04H628.825C631.405 465.04 632.805 466.54 632.805 469.06C632.805 471.58 631.405 473.08 628.825 473.08H625.425V479ZM625.425 466.5V471.62H628.785C630.185 471.62 631.025 470.88 631.025 469.58V468.54C631.025 467.24 630.185 466.5 628.785 466.5H625.425ZM639.938 479.24C637.038 479.24 635.257 477.12 635.257 473.84C635.257 470.56 637.038 468.44 639.938 468.44C642.838 468.44 644.618 470.56 644.618 473.84C644.618 477.12 642.838 479.24 639.938 479.24ZM639.938 477.86C641.718 477.86 642.918 476.8 642.918 474.58V473.1C642.918 470.88 641.718 469.82 639.938 469.82C638.158 469.82 636.958 470.88 636.958 473.1V474.58C636.958 476.8 638.158 477.86 639.938 477.86ZM647.53 479V477.64H651.13V465.56H647.53V464.2H652.73V477.64H656.33V479H647.53ZM664.562 466.4C663.642 466.4 663.302 465.96 663.302 465.38V465.06C663.302 464.48 663.642 464.04 664.562 464.04C665.482 464.04 665.822 464.48 665.822 465.06V465.38C665.822 465.96 665.482 466.4 664.562 466.4ZM660.042 479V477.64H663.762V470.04H660.042V468.68H665.362V477.64H668.842V479H660.042ZM676.274 479.24C673.314 479.24 671.594 477.1 671.594 473.84C671.594 470.56 673.334 468.44 676.254 468.44C678.254 468.44 679.494 469.42 680.074 470.82L678.794 471.5C678.414 470.44 677.534 469.82 676.254 469.82C674.374 469.82 673.314 471.14 673.314 472.96V474.72C673.314 476.54 674.354 477.86 676.294 477.86C677.674 477.86 678.574 477.18 679.094 476.06L680.234 476.84C679.634 478.22 678.334 479.24 676.274 479.24ZM689.506 473L691.246 468.68H692.846L687.726 481.26C687.246 482.44 686.646 483 685.086 483H683.566V481.64H685.966L687.126 478.8L682.966 468.68H684.606L686.346 473L687.886 476.92H687.966L689.506 473Z" fill="black"/>
<rect x="514" y="433" width="196" height="68" rx="8" fill="#E8DAFF"/>
<rect x="514" y="433" width="196" height="68" rx="8" stroke="#8A3FFC"/>
<path d="M545.4 475H543.62L542.44 471.02H537.54L536.36 475H534.62L538.9 461.04H541.12L545.4 475ZM542.04 469.56L540.08 462.82H539.9L537.94 469.56H542.04ZM552.352 475.24C549.392 475.24 547.672 473.1 547.672 469.84C547.672 466.56 549.412 464.44 552.332 464.44C554.332 464.44 555.572 465.42 556.152 466.82L554.872 467.5C554.492 466.44 553.612 465.82 552.332 465.82C550.452 465.82 549.392 467.14 549.392 468.96V470.72C549.392 472.54 550.432 473.86 552.372 473.86C553.752 473.86 554.652 473.18 555.172 472.06L556.312 472.84C555.712 474.22 554.412 475.24 552.352 475.24ZM564.344 475.24C561.384 475.24 559.664 473.1 559.664 469.84C559.664 466.56 561.404 464.44 564.324 464.44C566.324 464.44 567.564 465.42 568.144 466.82L566.864 467.5C566.484 466.44 565.604 465.82 564.324 465.82C562.444 465.82 561.384 467.14 561.384 468.96V470.72C561.384 472.54 562.424 473.86 564.364 473.86C565.744 473.86 566.644 473.18 567.164 472.06L568.304 472.84C567.704 474.22 566.404 475.24 564.344 475.24ZM576.157 475.24C573.197 475.24 571.317 473.12 571.317 469.86C571.317 466.56 573.257 464.44 576.057 464.44C578.837 464.44 580.637 466.56 580.637 469.48V470.24H572.997V470.72C572.997 472.54 574.217 473.86 576.157 473.86C577.537 473.86 578.577 473.18 579.117 472.06L580.297 472.86C579.677 474.24 578.197 475.24 576.157 475.24ZM576.057 465.76C574.297 465.76 572.997 467.1 572.997 468.9V469.04H578.917V468.82C578.917 467 577.757 465.76 576.057 465.76ZM588.089 475.24C585.929 475.24 584.389 474.44 583.309 473.22L584.389 472.28C585.369 473.32 586.489 473.9 588.129 473.9C589.729 473.9 590.869 473.34 590.869 472.12C590.869 471.04 589.989 470.76 589.049 470.62L587.429 470.38C585.969 470.16 583.889 469.76 583.889 467.52C583.889 465.46 585.649 464.44 588.049 464.44C589.909 464.44 591.269 465.06 592.249 466.1L591.209 467.08C590.729 466.5 589.809 465.78 587.989 465.78C586.369 465.78 585.469 466.36 585.469 467.42C585.469 468.5 586.369 468.78 587.289 468.92L588.909 469.16C590.389 469.38 592.449 469.78 592.449 472.02C592.449 474.06 590.729 475.24 588.089 475.24ZM600.081 475.24C597.921 475.24 596.381 474.44 595.301 473.22L596.381 472.28C597.361 473.32 598.481 473.9 600.121 473.9C601.721 473.9 602.861 473.34 602.861 472.12C602.861 471.04 601.981 470.76 601.041 470.62L599.421 470.38C597.961 470.16 595.881 469.76 595.881 467.52C595.881 465.46 597.641 464.44 600.041 464.44C601.901 464.44 603.261 465.06 604.241 466.1L603.201 467.08C602.721 466.5 601.801 465.78 599.981 465.78C598.361 465.78 597.461 466.36 597.461 467.42C597.461 468.5 598.361 468.78 599.281 468.92L600.901 469.16C602.381 469.38 604.441 469.78 604.441 472.02C604.441 474.06 602.721 475.24 600.081 475.24ZM621.425 475H619.745V461.04H624.825C627.405 461.04 628.805 462.54 628.805 465.06C628.805 467.58 627.405 469.08 624.825 469.08H621.425V475ZM621.425 462.5V467.62H624.785C626.185 467.62 627.025 466.88 627.025 465.58V464.54C627.025 463.24 626.185 462.5 624.785 462.5H621.425ZM635.938 475.24C633.038 475.24 631.257 473.12 631.257 469.84C631.257 466.56 633.038 464.44 635.938 464.44C638.838 464.44 640.618 466.56 640.618 469.84C640.618 473.12 638.838 475.24 635.938 475.24ZM635.938 473.86C637.718 473.86 638.918 472.8 638.918 470.58V469.1C638.918 466.88 637.718 465.82 635.938 465.82C634.158 465.82 632.958 466.88 632.958 469.1V470.58C632.958 472.8 634.158 473.86 635.938 473.86ZM643.53 475V473.64H647.13V461.56H643.53V460.2H648.73V473.64H652.33V475H643.53ZM660.562 462.4C659.642 462.4 659.302 461.96 659.302 461.38V461.06C659.302 460.48 659.642 460.04 660.562 460.04C661.482 460.04 661.822 460.48 661.822 461.06V461.38C661.822 461.96 661.482 462.4 660.562 462.4ZM656.042 475V473.64H659.762V466.04H656.042V464.68H661.362V473.64H664.842V475H656.042ZM672.274 475.24C669.314 475.24 667.594 473.1 667.594 469.84C667.594 466.56 669.334 464.44 672.254 464.44C674.254 464.44 675.494 465.42 676.074 466.82L674.794 467.5C674.414 466.44 673.534 465.82 672.254 465.82C670.374 465.82 669.314 467.14 669.314 468.96V470.72C669.314 472.54 670.354 473.86 672.294 473.86C673.674 473.86 674.574 473.18 675.094 472.06L676.234 472.84C675.634 474.22 674.334 475.24 672.274 475.24ZM685.506 469L687.246 464.68H688.846L683.726 477.26C683.246 478.44 682.646 479 681.086 479H679.566V477.64H681.966L683.126 474.8L678.966 464.68H680.606L682.346 469L683.886 472.92H683.966L685.506 469Z" fill="black"/>
<rect x="320" y="704" width="136" height="68" rx="8" fill="#E8DAFF"/>
<rect x="320" y="704" width="136" height="68" rx="8" stroke="#8A3FFC"/>
<path d="M350.32 746H341.68V744.66H345.16V733.38H341.68V732.04H350.32V733.38H346.84V744.66H350.32V746ZM355.552 746H353.952V735.68H355.552V737.36H355.632C356.072 736.34 356.872 735.44 358.572 735.44C360.732 735.44 362.152 736.88 362.152 739.38V746H360.552V739.66C360.552 737.78 359.692 736.86 358.112 736.86C356.832 736.86 355.552 737.48 355.552 738.84V746ZM370.104 746.24C367.944 746.24 366.404 745.44 365.324 744.22L366.404 743.28C367.384 744.32 368.504 744.9 370.144 744.9C371.744 744.9 372.884 744.34 372.884 743.12C372.884 742.04 372.004 741.76 371.064 741.62L369.444 741.38C367.984 741.16 365.904 740.76 365.904 738.52C365.904 736.46 367.664 735.44 370.064 735.44C371.924 735.44 373.284 736.06 374.264 737.1L373.224 738.08C372.744 737.5 371.824 736.78 370.004 736.78C368.384 736.78 367.484 737.36 367.484 738.42C367.484 739.5 368.384 739.78 369.304 739.92L370.924 740.16C372.404 740.38 374.464 740.78 374.464 743.02C374.464 745.06 372.744 746.24 370.104 746.24ZM386.497 746H382.477C380.917 746 380.197 745.02 380.197 743.64V737.04H376.757V735.68H379.317C379.997 735.68 380.257 735.44 380.257 734.74V732.04H381.797V735.68H386.497V737.04H381.797V744.64H386.497V746ZM398.969 746H397.869C396.629 746 396.149 745.28 396.029 744.32H395.929C395.489 745.5 394.509 746.24 392.829 746.24C390.669 746.24 389.289 745.04 389.289 743.1C389.289 741.2 390.629 740.1 393.729 740.1H395.929V739.08C395.929 737.58 395.029 736.8 393.469 736.8C392.089 736.8 391.249 737.38 390.709 738.32L389.629 737.52C390.149 736.44 391.469 735.44 393.569 735.44C395.989 735.44 397.529 736.74 397.529 738.92V744.6H398.969V746ZM393.109 744.9C394.749 744.9 395.929 744.06 395.929 743V741.3H393.729C391.829 741.3 390.969 741.86 390.969 742.86V743.28C390.969 744.34 391.789 744.9 393.109 744.9ZM403.521 746H401.921V735.68H403.521V737.36H403.601C404.041 736.34 404.841 735.44 406.541 735.44C408.701 735.44 410.121 736.88 410.121 739.38V746H408.521V739.66C408.521 737.78 407.661 736.86 406.081 736.86C404.801 736.86 403.521 737.48 403.521 738.84V746ZM418.313 746.24C415.353 746.24 413.633 744.1 413.633 740.84C413.633 737.56 415.373 735.44 418.293 735.44C420.293 735.44 421.533 736.42 422.113 737.82L420.833 738.5C420.453 737.44 419.573 736.82 418.293 736.82C416.413 736.82 415.353 738.14 415.353 739.96V741.72C415.353 743.54 416.393 744.86 418.333 744.86C419.713 744.86 420.613 744.18 421.133 743.06L422.273 743.84C421.673 745.22 420.373 746.24 418.313 746.24ZM430.125 746.24C427.165 746.24 425.285 744.12 425.285 740.86C425.285 737.56 427.225 735.44 430.025 735.44C432.805 735.44 434.605 737.56 434.605 740.48V741.24H426.965V741.72C426.965 743.54 428.185 744.86 430.125 744.86C431.505 744.86 432.545 744.18 433.085 743.06L434.265 743.86C433.645 745.24 432.165 746.24 430.125 746.24ZM430.025 736.76C428.265 736.76 426.965 738.1 426.965 739.9V740.04H432.885V739.82C432.885 738 431.725 736.76 430.025 736.76Z" fill="black"/>
<rect x="316" y="700" width="136" height="68" rx="8" fill="#E8DAFF"/>
<rect x="316" y="700" width="136" height="68" rx="8" stroke="#8A3FFC"/>
<path d="M346.32 742H337.68V740.66H341.16V729.38H337.68V728.04H346.32V729.38H342.84V740.66H346.32V742ZM351.552 742H349.952V731.68H351.552V733.36H351.632C352.072 732.34 352.872 731.44 354.572 731.44C356.732 731.44 358.152 732.88 358.152 735.38V742H356.552V735.66C356.552 733.78 355.692 732.86 354.112 732.86C352.832 732.86 351.552 733.48 351.552 734.84V742ZM366.104 742.24C363.944 742.24 362.404 741.44 361.324 740.22L362.404 739.28C363.384 740.32 364.504 740.9 366.144 740.9C367.744 740.9 368.884 740.34 368.884 739.12C368.884 738.04 368.004 737.76 367.064 737.62L365.444 737.38C363.984 737.16 361.904 736.76 361.904 734.52C361.904 732.46 363.664 731.44 366.064 731.44C367.924 731.44 369.284 732.06 370.264 733.1L369.224 734.08C368.744 733.5 367.824 732.78 366.004 732.78C364.384 732.78 363.484 733.36 363.484 734.42C363.484 735.5 364.384 735.78 365.304 735.92L366.924 736.16C368.404 736.38 370.464 736.78 370.464 739.02C370.464 741.06 368.744 742.24 366.104 742.24ZM382.497 742H378.477C376.917 742 376.197 741.02 376.197 739.64V733.04H372.757V731.68H375.317C375.997 731.68 376.257 731.44 376.257 730.74V728.04H377.797V731.68H382.497V733.04H377.797V740.64H382.497V742ZM394.969 742H393.869C392.629 742 392.149 741.28 392.029 740.32H391.929C391.489 741.5 390.509 742.24 388.829 742.24C386.669 742.24 385.289 741.04 385.289 739.1C385.289 737.2 386.629 736.1 389.729 736.1H391.929V735.08C391.929 733.58 391.029 732.8 389.469 732.8C388.089 732.8 387.249 733.38 386.709 734.32L385.629 733.52C386.149 732.44 387.469 731.44 389.569 731.44C391.989 731.44 393.529 732.74 393.529 734.92V740.6H394.969V742ZM389.109 740.9C390.749 740.9 391.929 740.06 391.929 739V737.3H389.729C387.829 737.3 386.969 737.86 386.969 738.86V739.28C386.969 740.34 387.789 740.9 389.109 740.9ZM399.521 742H397.921V731.68H399.521V733.36H399.601C400.041 732.34 400.841 731.44 402.541 731.44C404.701 731.44 406.121 732.88 406.121 735.38V742H404.521V735.66C404.521 733.78 403.661 732.86 402.081 732.86C400.801 732.86 399.521 733.48 399.521 734.84V742ZM414.313 742.24C411.353 742.24 409.633 740.1 409.633 736.84C409.633 733.56 411.373 731.44 414.293 731.44C416.293 731.44 417.533 732.42 418.113 733.82L416.833 734.5C416.453 733.44 415.573 732.82 414.293 732.82C412.413 732.82 411.353 734.14 411.353 735.96V737.72C411.353 739.54 412.393 740.86 414.333 740.86C415.713 740.86 416.613 740.18 417.133 739.06L418.273 739.84C417.673 741.22 416.373 742.24 414.313 742.24ZM426.125 742.24C423.165 742.24 421.285 740.12 421.285 736.86C421.285 733.56 423.225 731.44 426.025 731.44C428.805 731.44 430.605 733.56 430.605 736.48V737.24H422.965V737.72C422.965 739.54 424.185 740.86 426.125 740.86C427.505 740.86 428.545 740.18 429.085 739.06L430.265 739.86C429.645 741.24 428.165 742.24 426.125 742.24ZM426.025 732.76C424.265 732.76 422.965 734.1 422.965 735.9V736.04H428.885V735.82C428.885 734 427.725 732.76 426.025 732.76Z" fill="black"/>
<rect x="312" y="696" width="136" height="68" rx="8" fill="#E8DAFF"/>
<rect x="312" y="696" width="136" height="68" rx="8" stroke="#8A3FFC"/>
<path d="M342.32 738H333.68V736.66H337.16V725.38H333.68V724.04H342.32V725.38H338.84V736.66H342.32V738ZM347.552 738H345.952V727.68H347.552V729.36H347.632C348.072 728.34 348.872 727.44 350.572 727.44C352.732 727.44 354.152 728.88 354.152 731.38V738H352.552V731.66C352.552 729.78 351.692 728.86 350.112 728.86C348.832 728.86 347.552 729.48 347.552 730.84V738ZM362.104 738.24C359.944 738.24 358.404 737.44 357.324 736.22L358.404 735.28C359.384 736.32 360.504 736.9 362.144 736.9C363.744 736.9 364.884 736.34 364.884 735.12C364.884 734.04 364.004 733.76 363.064 733.62L361.444 733.38C359.984 733.16 357.904 732.76 357.904 730.52C357.904 728.46 359.664 727.44 362.064 727.44C363.924 727.44 365.284 728.06 366.264 729.1L365.224 730.08C364.744 729.5 363.824 728.78 362.004 728.78C360.384 728.78 359.484 729.36 359.484 730.42C359.484 731.5 360.384 731.78 361.304 731.92L362.924 732.16C364.404 732.38 366.464 732.78 366.464 735.02C366.464 737.06 364.744 738.24 362.104 738.24ZM378.497 738H374.477C372.917 738 372.197 737.02 372.197 735.64V729.04H368.757V727.68H371.317C371.997 727.68 372.257 727.44 372.257 726.74V724.04H373.797V727.68H378.497V729.04H373.797V736.64H378.497V738ZM390.969 738H389.869C388.629 738 388.149 737.28 388.029 736.32H387.929C387.489 737.5 386.509 738.24 384.829 738.24C382.669 738.24 381.289 737.04 381.289 735.1C381.289 733.2 382.629 732.1 385.729 732.1H387.929V731.08C387.929 729.58 387.029 728.8 385.469 728.8C384.089 728.8 383.249 729.38 382.709 730.32L381.629 729.52C382.149 728.44 383.469 727.44 385.569 727.44C387.989 727.44 389.529 728.74 389.529 730.92V736.6H390.969V738ZM385.109 736.9C386.749 736.9 387.929 736.06 387.929 735V733.3H385.729C383.829 733.3 382.969 733.86 382.969 734.86V735.28C382.969 736.34 383.789 736.9 385.109 736.9ZM395.521 738H393.921V727.68H395.521V729.36H395.601C396.041 728.34 396.841 727.44 398.541 727.44C400.701 727.44 402.121 728.88 402.121 731.38V738H400.521V731.66C400.521 729.78 399.661 728.86 398.081 728.86C396.801 728.86 395.521 729.48 395.521 730.84V738ZM410.313 738.24C407.353 738.24 405.633 736.1 405.633 732.84C405.633 729.56 407.373 727.44 410.293 727.44C412.293 727.44 413.533 728.42 414.113 729.82L412.833 730.5C412.453 729.44 411.573 728.82 410.293 728.82C408.413 728.82 407.353 730.14 407.353 731.96V733.72C407.353 735.54 408.393 736.86 410.333 736.86C411.713 736.86 412.613 736.18 413.133 735.06L414.273 735.84C413.673 737.22 412.373 738.24 410.313 738.24ZM422.125 738.24C419.165 738.24 417.285 736.12 417.285 732.86C417.285 729.56 419.225 727.44 422.025 727.44C424.805 727.44 426.605 729.56 426.605 732.48V733.24H418.965V733.72C418.965 735.54 420.185 736.86 422.125 736.86C423.505 736.86 424.545 736.18 425.085 735.06L426.265 735.86C425.645 737.24 424.165 738.24 422.125 738.24ZM422.025 728.76C420.265 728.76 418.965 730.1 418.965 731.9V732.04H424.885V731.82C424.885 730 423.725 728.76 422.025 728.76Z" fill="black"/>
<rect x="498" y="704" width="136" height="68" rx="8" fill="#E8DAFF"/>
<rect x="498" y="704" width="136" height="68" rx="8" stroke="#8A3FFC"/>
<path d="M528.32 746H519.68V744.66H523.16V733.38H519.68V732.04H528.32V733.38H524.84V744.66H528.32V746ZM533.552 746H531.952V735.68H533.552V737.36H533.632C534.072 736.34 534.872 735.44 536.572 735.44C538.732 735.44 540.152 736.88 540.152 739.38V746H538.552V739.66C538.552 737.78 537.692 736.86 536.112 736.86C534.832 736.86 533.552 737.48 533.552 738.84V746ZM548.104 746.24C545.944 746.24 544.404 745.44 543.324 744.22L544.404 743.28C545.384 744.32 546.504 744.9 548.144 744.9C549.744 744.9 550.884 744.34 550.884 743.12C550.884 742.04 550.004 741.76 549.064 741.62L547.444 741.38C545.984 741.16 543.904 740.76 543.904 738.52C543.904 736.46 545.664 735.44 548.064 735.44C549.924 735.44 551.284 736.06 552.264 737.1L551.224 738.08C550.744 737.5 549.824 736.78 548.004 736.78C546.384 736.78 545.484 737.36 545.484 738.42C545.484 739.5 546.384 739.78 547.304 739.92L548.924 740.16C550.404 740.38 552.464 740.78 552.464 743.02C552.464 745.06 550.744 746.24 548.104 746.24ZM564.497 746H560.477C558.917 746 558.197 745.02 558.197 743.64V737.04H554.757V735.68H557.317C557.997 735.68 558.257 735.44 558.257 734.74V732.04H559.797V735.68H564.497V737.04H559.797V744.64H564.497V746ZM576.969 746H575.869C574.629 746 574.149 745.28 574.029 744.32H573.929C573.489 745.5 572.509 746.24 570.829 746.24C568.669 746.24 567.289 745.04 567.289 743.1C567.289 741.2 568.629 740.1 571.729 740.1H573.929V739.08C573.929 737.58 573.029 736.8 571.469 736.8C570.089 736.8 569.249 737.38 568.709 738.32L567.629 737.52C568.149 736.44 569.469 735.44 571.569 735.44C573.989 735.44 575.529 736.74 575.529 738.92V744.6H576.969V746ZM571.109 744.9C572.749 744.9 573.929 744.06 573.929 743V741.3H571.729C569.829 741.3 568.969 741.86 568.969 742.86V743.28C568.969 744.34 569.789 744.9 571.109 744.9ZM581.521 746H579.921V735.68H581.521V737.36H581.601C582.041 736.34 582.841 735.44 584.541 735.44C586.701 735.44 588.121 736.88 588.121 739.38V746H586.521V739.66C586.521 737.78 585.661 736.86 584.081 736.86C582.801 736.86 581.521 737.48 581.521 738.84V746ZM596.313 746.24C593.353 746.24 591.633 744.1 591.633 740.84C591.633 737.56 593.373 735.44 596.293 735.44C598.293 735.44 599.533 736.42 600.113 737.82L598.833 738.5C598.453 737.44 597.573 736.82 596.293 736.82C594.413 736.82 593.353 738.14 593.353 739.96V741.72C593.353 743.54 594.393 744.86 596.333 744.86C597.713 744.86 598.613 744.18 599.133 743.06L600.273 743.84C599.673 745.22 598.373 746.24 596.313 746.24ZM608.125 746.24C605.165 746.24 603.285 744.12 603.285 740.86C603.285 737.56 605.225 735.44 608.025 735.44C610.805 735.44 612.605 737.56 612.605 740.48V741.24H604.965V741.72C604.965 743.54 606.185 744.86 608.125 744.86C609.505 744.86 610.545 744.18 611.085 743.06L612.265 743.86C611.645 745.24 610.165 746.24 608.125 746.24ZM608.025 736.76C606.265 736.76 604.965 738.1 604.965 739.9V740.04H610.885V739.82C610.885 738 609.725 736.76 608.025 736.76Z" fill="black"/>
<rect x="494" y="700" width="136" height="68" rx="8" fill="#E8DAFF"/>
<rect x="494" y="700" width="136" height="68" rx="8" stroke="#8A3FFC"/>
<path d="M524.32 742H515.68V740.66H519.16V729.38H515.68V728.04H524.32V729.38H520.84V740.66H524.32V742ZM529.552 742H527.952V731.68H529.552V733.36H529.632C530.072 732.34 530.872 731.44 532.572 731.44C534.732 731.44 536.152 732.88 536.152 735.38V742H534.552V735.66C534.552 733.78 533.692 732.86 532.112 732.86C530.832 732.86 529.552 733.48 529.552 734.84V742ZM544.104 742.24C541.944 742.24 540.404 741.44 539.324 740.22L540.404 739.28C541.384 740.32 542.504 740.9 544.144 740.9C545.744 740.9 546.884 740.34 546.884 739.12C546.884 738.04 546.004 737.76 545.064 737.62L543.444 737.38C541.984 737.16 539.904 736.76 539.904 734.52C539.904 732.46 541.664 731.44 544.064 731.44C545.924 731.44 547.284 732.06 548.264 733.1L547.224 734.08C546.744 733.5 545.824 732.78 544.004 732.78C542.384 732.78 541.484 733.36 541.484 734.42C541.484 735.5 542.384 735.78 543.304 735.92L544.924 736.16C546.404 736.38 548.464 736.78 548.464 739.02C548.464 741.06 546.744 742.24 544.104 742.24ZM560.497 742H556.477C554.917 742 554.197 741.02 554.197 739.64V733.04H550.757V731.68H553.317C553.997 731.68 554.257 731.44 554.257 730.74V728.04H555.797V731.68H560.497V733.04H555.797V740.64H560.497V742ZM572.969 742H571.869C570.629 742 570.149 741.28 570.029 740.32H569.929C569.489 741.5 568.509 742.24 566.829 742.24C564.669 742.24 563.289 741.04 563.289 739.1C563.289 737.2 564.629 736.1 567.729 736.1H569.929V735.08C569.929 733.58 569.029 732.8 567.469 732.8C566.089 732.8 565.249 733.38 564.709 734.32L563.629 733.52C564.149 732.44 565.469 731.44 567.569 731.44C569.989 731.44 571.529 732.74 571.529 734.92V740.6H572.969V742ZM567.109 740.9C568.749 740.9 569.929 740.06 569.929 739V737.3H567.729C565.829 737.3 564.969 737.86 564.969 738.86V739.28C564.969 740.34 565.789 740.9 567.109 740.9ZM577.521 742H575.921V731.68H577.521V733.36H577.601C578.041 732.34 578.841 731.44 580.541 731.44C582.701 731.44 584.121 732.88 584.121 735.38V742H582.521V735.66C582.521 733.78 581.661 732.86 580.081 732.86C578.801 732.86 577.521 733.48 577.521 734.84V742ZM592.313 742.24C589.353 742.24 587.633 740.1 587.633 736.84C587.633 733.56 589.373 731.44 592.293 731.44C594.293 731.44 595.533 732.42 596.113 733.82L594.833 734.5C594.453 733.44 593.573 732.82 592.293 732.82C590.413 732.82 589.353 734.14 589.353 735.96V737.72C589.353 739.54 590.393 740.86 592.333 740.86C593.713 740.86 594.613 740.18 595.133 739.06L596.273 739.84C595.673 741.22 594.373 742.24 592.313 742.24ZM604.125 742.24C601.165 742.24 599.285 740.12 599.285 736.86C599.285 733.56 601.225 731.44 604.025 731.44C606.805 731.44 608.605 733.56 608.605 736.48V737.24H600.965V737.72C600.965 739.54 602.185 740.86 604.125 740.86C605.505 740.86 606.545 740.18 607.085 739.06L608.265 739.86C607.645 741.24 606.165 742.24 604.125 742.24ZM604.025 732.76C602.265 732.76 600.965 734.1 600.965 735.9V736.04H606.885V735.82C606.885 734 605.725 732.76 604.025 732.76Z" fill="black"/>
<rect x="490" y="696" width="136" height="68" rx="8" fill="#E8DAFF"/>
<rect x="490" y="696" width="136" height="68" rx="8" stroke="#8A3FFC"/>
<path d="M520.32 738H511.68V736.66H515.16V725.38H511.68V724.04H520.32V725.38H516.84V736.66H520.32V738ZM525.552 738H523.952V727.68H525.552V729.36H525.632C526.072 728.34 526.872 727.44 528.572 727.44C530.732 727.44 532.152 728.88 532.152 731.38V738H530.552V731.66C530.552 729.78 529.692 728.86 528.112 728.86C526.832 728.86 525.552 729.48 525.552 730.84V738ZM540.104 738.24C537.944 738.24 536.404 737.44 535.324 736.22L536.404 735.28C537.384 736.32 538.504 736.9 540.144 736.9C541.744 736.9 542.884 736.34 542.884 735.12C542.884 734.04 542.004 733.76 541.064 733.62L539.444 733.38C537.984 733.16 535.904 732.76 535.904 730.52C535.904 728.46 537.664 727.44 540.064 727.44C541.924 727.44 543.284 728.06 544.264 729.1L543.224 730.08C542.744 729.5 541.824 728.78 540.004 728.78C538.384 728.78 537.484 729.36 537.484 730.42C537.484 731.5 538.384 731.78 539.304 731.92L540.924 732.16C542.404 732.38 544.464 732.78 544.464 735.02C544.464 737.06 542.744 738.24 540.104 738.24ZM556.497 738H552.477C550.917 738 550.197 737.02 550.197 735.64V729.04H546.757V727.68H549.317C549.997 727.68 550.257 727.44 550.257 726.74V724.04H551.797V727.68H556.497V729.04H551.797V736.64H556.497V738ZM568.969 738H567.869C566.629 738 566.149 737.28 566.029 736.32H565.929C565.489 737.5 564.509 738.24 562.829 738.24C560.669 738.24 559.289 737.04 559.289 735.1C559.289 733.2 560.629 732.1 563.729 732.1H565.929V731.08C565.929 729.58 565.029 728.8 563.469 728.8C562.089 728.8 561.249 729.38 560.709 730.32L559.629 729.52C560.149 728.44 561.469 727.44 563.569 727.44C565.989 727.44 567.529 728.74 567.529 730.92V736.6H568.969V738ZM563.109 736.9C564.749 736.9 565.929 736.06 565.929 735V733.3H563.729C561.829 733.3 560.969 733.86 560.969 734.86V735.28C560.969 736.34 561.789 736.9 563.109 736.9ZM573.521 738H571.921V727.68H573.521V729.36H573.601C574.041 728.34 574.841 727.44 576.541 727.44C578.701 727.44 580.121 728.88 580.121 731.38V738H578.521V731.66C578.521 729.78 577.661 728.86 576.081 728.86C574.801 728.86 573.521 729.48 573.521 730.84V738ZM588.313 738.24C585.353 738.24 583.633 736.1 583.633 732.84C583.633 729.56 585.373 727.44 588.293 727.44C590.293 727.44 591.533 728.42 592.113 729.82L590.833 730.5C590.453 729.44 589.573 728.82 588.293 728.82C586.413 728.82 585.353 730.14 585.353 731.96V733.72C585.353 735.54 586.393 736.86 588.333 736.86C589.713 736.86 590.613 736.18 591.133 735.06L592.273 735.84C591.673 737.22 590.373 738.24 588.313 738.24ZM600.125 738.24C597.165 738.24 595.285 736.12 595.285 732.86C595.285 729.56 597.225 727.44 600.025 727.44C602.805 727.44 604.605 729.56 604.605 732.48V733.24H596.965V733.72C596.965 735.54 598.185 736.86 600.125 736.86C601.505 736.86 602.545 736.18 603.085 735.06L604.265 735.86C603.645 737.24 602.165 738.24 600.125 738.24ZM600.025 728.76C598.265 728.76 596.965 730.1 596.965 731.9V732.04H602.885V731.82C602.885 730 601.725 728.76 600.025 728.76Z" fill="black"/>
<path d="M73.21 419V414.744H68.786V419H67.204V409.228H68.786V413.344H73.21V409.228H74.792V419H73.21ZM83.4341 419H82.5801C81.7821 419 81.3621 418.496 81.2641 417.782H81.1941C80.9141 418.692 80.1301 419.168 79.0661 419.168C77.5681 419.168 76.7141 418.314 76.7141 416.998C76.7141 415.556 77.7921 414.814 79.8221 414.814H81.1381V414.198C81.1381 413.316 80.6621 412.798 79.6401 412.798C78.7861 412.798 78.2681 413.218 77.9041 413.792L76.9941 412.966C77.4701 412.154 78.3241 411.552 79.7381 411.552C81.6141 411.552 82.6641 412.476 82.6641 414.1V417.754H83.4341V419ZM79.5001 418.006C80.4381 418.006 81.1381 417.558 81.1381 416.844V415.794H79.8501C78.7861 415.794 78.2681 416.144 78.2681 416.774V417.026C78.2681 417.67 78.7441 418.006 79.5001 418.006ZM87.3997 419.168C86.0277 419.168 85.1317 418.65 84.4457 417.796L85.4257 416.9C85.9577 417.544 86.6157 417.936 87.4837 417.936C88.3657 417.936 88.8137 417.572 88.8137 416.956C88.8137 416.494 88.5337 416.144 87.7777 416.046L87.1057 415.962C85.6217 415.78 84.7117 415.136 84.7117 413.792C84.7117 412.378 85.8177 411.552 87.4137 411.552C88.7297 411.552 89.4717 411.986 90.1297 412.714L89.1917 413.61C88.8137 413.162 88.1977 412.784 87.4137 412.784C86.5737 412.784 86.1817 413.148 86.1817 413.694C86.1817 414.254 86.5317 414.506 87.3017 414.632L87.9737 414.716C89.5697 414.954 90.2837 415.654 90.2837 416.83C90.2837 418.23 89.1497 419.168 87.3997 419.168ZM97.1623 419H95.6363V411.72H97.1623V412.924H97.2323C97.5263 412.168 98.0723 411.552 99.1783 411.552C100.158 411.552 100.984 412.028 101.334 413.036H101.376C101.642 412.224 102.398 411.552 103.574 411.552C105.016 411.552 105.87 412.588 105.87 414.38V419H104.344V414.562C104.344 413.442 103.924 412.868 103 412.868C102.23 412.868 101.516 413.274 101.516 414.114V419H99.9903V414.562C99.9903 413.428 99.5563 412.868 98.6603 412.868C97.9043 412.868 97.1623 413.274 97.1623 414.114V419ZM114.33 419H113.476C112.678 419 112.258 418.496 112.16 417.782H112.09C111.81 418.692 111.026 419.168 109.962 419.168C108.464 419.168 107.61 418.314 107.61 416.998C107.61 415.556 108.688 414.814 110.718 414.814H112.034V414.198C112.034 413.316 111.558 412.798 110.536 412.798C109.682 412.798 109.164 413.218 108.8 413.792L107.89 412.966C108.366 412.154 109.22 411.552 110.634 411.552C112.51 411.552 113.56 412.476 113.56 414.1V417.754H114.33V419ZM110.396 418.006C111.334 418.006 112.034 417.558 112.034 416.844V415.794H110.746C109.682 415.794 109.164 416.144 109.164 416.774V417.026C109.164 417.67 109.64 418.006 110.396 418.006ZM117.512 419H115.986V411.72H117.512V412.924H117.582C117.89 412.14 118.506 411.552 119.626 411.552C121.11 411.552 121.992 412.588 121.992 414.38V419H120.466V414.576C120.466 413.442 120.032 412.868 119.094 412.868C118.296 412.868 117.512 413.274 117.512 414.128V419ZM127.167 416.004L128.623 411.72H130.093L127.027 420.442C126.677 421.422 126.243 421.8 125.109 421.8H124.227V420.554H125.459L125.879 419.322L123.233 411.72H124.759L126.215 416.004L126.635 417.586H126.705L127.167 416.004Z" fill="#697077"/>
<path d="M472 242L469.113 237L474.887 237L472 242ZM472.5 202L472.5 237.5L471.5 237.5L471.5 202L472.5 202Z" fill="black"/>
<path d="M472 173.5L469.113 168.5L474.887 168.5L472 173.5ZM472.5 136L472.5 169L471.5 169L471.5 136L472.5 136Z" fill="black"/>
<path d="M473 801L473 841" stroke="black"/>
<path d="M473 908L470.113 903L475.887 903L473 908ZM473.5 868L473.5 903.5L472.5 903.5L472.5 868L473.5 868Z" fill="black"/>
<path d="M334 425L331.113 420L336.887 420L334 425ZM334.5 385L334.5 420.5L333.5 420.5L333.5 385L334.5 385Z" fill="black"/>
<path d="M616 425L613.113 420L618.887 420L616 425ZM616.5 385L616.5 420.5L615.5 420.5L615.5 385L616.5 385Z" fill="black"/>
<path d="M473 642L470.113 637L475.887 637L473 642ZM473.5 602L473.5 637.5L472.5 637.5L472.5 602L473.5 602Z" fill="black"/>
<rect x="435" y="258" width="88" height="68" rx="8" fill="#E8DAFF"/>
<rect x="435" y="258" width="88" height="68" rx="8" stroke="#8A3FFC"/>
<path d="M456.6 286.04H458.28V294.42C458.28 297.12 458.38 298.78 461 298.78C463.62 298.78 463.72 297.12 463.72 294.42V286.04H465.4V294.02C465.4 298.16 464.8 300.24 461 300.24C457.2 300.24 456.6 298.16 456.6 294.02V286.04ZM473.112 300.24C470.952 300.24 469.412 299.44 468.332 298.22L469.412 297.28C470.392 298.32 471.512 298.9 473.152 298.9C474.752 298.9 475.892 298.34 475.892 297.12C475.892 296.04 475.012 295.76 474.072 295.62L472.452 295.38C470.992 295.16 468.912 294.76 468.912 292.52C468.912 290.46 470.672 289.44 473.072 289.44C474.932 289.44 476.292 290.06 477.272 291.1L476.232 292.08C475.752 291.5 474.832 290.78 473.012 290.78C471.392 290.78 470.492 291.36 470.492 292.42C470.492 293.5 471.392 293.78 472.312 293.92L473.932 294.16C475.412 294.38 477.472 294.78 477.472 297.02C477.472 299.06 475.752 300.24 473.112 300.24ZM485.164 300.24C482.204 300.24 480.324 298.12 480.324 294.86C480.324 291.56 482.264 289.44 485.064 289.44C487.844 289.44 489.644 291.56 489.644 294.48V295.24H482.004V295.72C482.004 297.54 483.224 298.86 485.164 298.86C486.544 298.86 487.584 298.18 488.124 297.06L489.304 297.86C488.684 299.24 487.204 300.24 485.164 300.24ZM485.064 290.76C483.304 290.76 482.004 292.1 482.004 293.9V294.04H487.924V293.82C487.924 292 486.764 290.76 485.064 290.76ZM492.517 300V298.64H495.537V291.04H492.517V289.68H497.137V292.28H497.237C497.637 290.92 498.557 289.68 500.717 289.68H502.157V291.28H500.217C498.197 291.28 497.137 292.58 497.137 294.18V298.64H500.357V300H492.517Z" fill="black"/>
<rect x="431" y="254" width="88" height="68" rx="8" fill="#E8DAFF"/>
<rect x="431" y="254" width="88" height="68" rx="8" stroke="#8A3FFC"/>
<path d="M452.6 282.04H454.28V290.42C454.28 293.12 454.38 294.78 457 294.78C459.62 294.78 459.72 293.12 459.72 290.42V282.04H461.4V290.02C461.4 294.16 460.8 296.24 457 296.24C453.2 296.24 452.6 294.16 452.6 290.02V282.04ZM469.112 296.24C466.952 296.24 465.412 295.44 464.332 294.22L465.412 293.28C466.392 294.32 467.512 294.9 469.152 294.9C470.752 294.9 471.892 294.34 471.892 293.12C471.892 292.04 471.012 291.76 470.072 291.62L468.452 291.38C466.992 291.16 464.912 290.76 464.912 288.52C464.912 286.46 466.672 285.44 469.072 285.44C470.932 285.44 472.292 286.06 473.272 287.1L472.232 288.08C471.752 287.5 470.832 286.78 469.012 286.78C467.392 286.78 466.492 287.36 466.492 288.42C466.492 289.5 467.392 289.78 468.312 289.92L469.932 290.16C471.412 290.38 473.472 290.78 473.472 293.02C473.472 295.06 471.752 296.24 469.112 296.24ZM481.164 296.24C478.204 296.24 476.324 294.12 476.324 290.86C476.324 287.56 478.264 285.44 481.064 285.44C483.844 285.44 485.644 287.56 485.644 290.48V291.24H478.004V291.72C478.004 293.54 479.224 294.86 481.164 294.86C482.544 294.86 483.584 294.18 484.124 293.06L485.304 293.86C484.684 295.24 483.204 296.24 481.164 296.24ZM481.064 286.76C479.304 286.76 478.004 288.1 478.004 289.9V290.04H483.924V289.82C483.924 288 482.764 286.76 481.064 286.76ZM488.517 296V294.64H491.537V287.04H488.517V285.68H493.137V288.28H493.237C493.637 286.92 494.557 285.68 496.717 285.68H498.157V287.28H496.217C494.197 287.28 493.137 288.58 493.137 290.18V294.64H496.357V296H488.517Z" fill="black"/>
<rect x="427" y="250" width="88" height="68" rx="8" fill="#E8DAFF"/>
<rect x="427" y="250" width="88" height="68" rx="8" stroke="#8A3FFC"/>
<path d="M448.6 278.04H450.28V286.42C450.28 289.12 450.38 290.78 453 290.78C455.62 290.78 455.72 289.12 455.72 286.42V278.04H457.4V286.02C457.4 290.16 456.8 292.24 453 292.24C449.2 292.24 448.6 290.16 448.6 286.02V278.04ZM465.112 292.24C462.952 292.24 461.412 291.44 460.332 290.22L461.412 289.28C462.392 290.32 463.512 290.9 465.152 290.9C466.752 290.9 467.892 290.34 467.892 289.12C467.892 288.04 467.012 287.76 466.072 287.62L464.452 287.38C462.992 287.16 460.912 286.76 460.912 284.52C460.912 282.46 462.672 281.44 465.072 281.44C466.932 281.44 468.292 282.06 469.272 283.1L468.232 284.08C467.752 283.5 466.832 282.78 465.012 282.78C463.392 282.78 462.492 283.36 462.492 284.42C462.492 285.5 463.392 285.78 464.312 285.92L465.932 286.16C467.412 286.38 469.472 286.78 469.472 289.02C469.472 291.06 467.752 292.24 465.112 292.24ZM477.164 292.24C474.204 292.24 472.324 290.12 472.324 286.86C472.324 283.56 474.264 281.44 477.064 281.44C479.844 281.44 481.644 283.56 481.644 286.48V287.24H474.004V287.72C474.004 289.54 475.224 290.86 477.164 290.86C478.544 290.86 479.584 290.18 480.124 289.06L481.304 289.86C480.684 291.24 479.204 292.24 477.164 292.24ZM477.064 282.76C475.304 282.76 474.004 284.1 474.004 285.9V286.04H479.924V285.82C479.924 284 478.764 282.76 477.064 282.76ZM484.517 292V290.64H487.537V283.04H484.517V281.68H489.137V284.28H489.237C489.637 282.92 490.557 281.68 492.717 281.68H494.157V283.28H492.217C490.197 283.28 489.137 284.58 489.137 286.18V290.64H492.357V292H484.517Z" fill="black"/>
<rect x="429" y="916" width="88" height="68" rx="8" fill="#E8DAFF"/>
<rect x="429" y="916" width="88" height="68" rx="8" stroke="#8A3FFC"/>
<path d="M452.48 958H450.8V944.04H455.88C458.46 944.04 459.86 945.54 459.86 948.06C459.86 950.58 458.46 952.08 455.88 952.08H452.48V958ZM452.48 945.5V950.62H455.84C457.24 950.62 458.08 949.88 458.08 948.58V947.54C458.08 946.24 457.24 945.5 455.84 945.5H452.48ZM462.592 958V956.64H466.192V944.56H462.592V943.2H467.792V956.64H471.392V958H462.592ZM483.984 958H482.884C481.644 958 481.164 957.28 481.044 956.32H480.944C480.504 957.5 479.524 958.24 477.844 958.24C475.684 958.24 474.304 957.04 474.304 955.1C474.304 953.2 475.644 952.1 478.744 952.1H480.944V951.08C480.944 949.58 480.044 948.8 478.484 948.8C477.104 948.8 476.264 949.38 475.724 950.32L474.644 949.52C475.164 948.44 476.484 947.44 478.584 947.44C481.004 947.44 482.544 948.74 482.544 950.92V956.6H483.984V958ZM478.124 956.9C479.764 956.9 480.944 956.06 480.944 955V953.3H478.744C476.844 953.3 475.984 953.86 475.984 954.86V955.28C475.984 956.34 476.804 956.9 478.124 956.9ZM488.537 958H486.937V947.68H488.537V949.36H488.617C489.057 948.34 489.857 947.44 491.557 947.44C493.717 947.44 495.137 948.88 495.137 951.38V958H493.537V951.66C493.537 949.78 492.677 948.86 491.097 948.86C489.817 948.86 488.537 949.48 488.537 950.84V958Z" fill="black"/>
<path d="M448.21 194V189.744H443.786V194H442.204V184.228H443.786V188.344H448.21V184.228H449.792V194H448.21ZM458.434 194H457.58C456.782 194 456.362 193.496 456.264 192.782H456.194C455.914 193.692 455.13 194.168 454.066 194.168C452.568 194.168 451.714 193.314 451.714 191.998C451.714 190.556 452.792 189.814 454.822 189.814H456.138V189.198C456.138 188.316 455.662 187.798 454.64 187.798C453.786 187.798 453.268 188.218 452.904 188.792L451.994 187.966C452.47 187.154 453.324 186.552 454.738 186.552C456.614 186.552 457.664 187.476 457.664 189.1V192.754H458.434V194ZM454.5 193.006C455.438 193.006 456.138 192.558 456.138 191.844V190.794H454.85C453.786 190.794 453.268 191.144 453.268 191.774V192.026C453.268 192.67 453.744 193.006 454.5 193.006ZM462.4 194.168C461.028 194.168 460.132 193.65 459.446 192.796L460.426 191.9C460.958 192.544 461.616 192.936 462.484 192.936C463.366 192.936 463.814 192.572 463.814 191.956C463.814 191.494 463.534 191.144 462.778 191.046L462.106 190.962C460.622 190.78 459.712 190.136 459.712 188.792C459.712 187.378 460.818 186.552 462.414 186.552C463.73 186.552 464.472 186.986 465.13 187.714L464.192 188.61C463.814 188.162 463.198 187.784 462.414 187.784C461.574 187.784 461.182 188.148 461.182 188.694C461.182 189.254 461.532 189.506 462.302 189.632L462.974 189.716C464.57 189.954 465.284 190.654 465.284 191.83C465.284 193.23 464.15 194.168 462.4 194.168ZM472.162 194H470.636V186.72H472.162V187.924H472.232C472.526 187.168 473.072 186.552 474.178 186.552C475.158 186.552 475.984 187.028 476.334 188.036H476.376C476.642 187.224 477.398 186.552 478.574 186.552C480.016 186.552 480.87 187.588 480.87 189.38V194H479.344V189.562C479.344 188.442 478.924 187.868 478 187.868C477.23 187.868 476.516 188.274 476.516 189.114V194H474.99V189.562C474.99 188.428 474.556 187.868 473.66 187.868C472.904 187.868 472.162 188.274 472.162 189.114V194ZM489.33 194H488.476C487.678 194 487.258 193.496 487.16 192.782H487.09C486.81 193.692 486.026 194.168 484.962 194.168C483.464 194.168 482.61 193.314 482.61 191.998C482.61 190.556 483.688 189.814 485.718 189.814H487.034V189.198C487.034 188.316 486.558 187.798 485.536 187.798C484.682 187.798 484.164 188.218 483.8 188.792L482.89 187.966C483.366 187.154 484.22 186.552 485.634 186.552C487.51 186.552 488.56 187.476 488.56 189.1V192.754H489.33V194ZM485.396 193.006C486.334 193.006 487.034 192.558 487.034 191.844V190.794H485.746C484.682 190.794 484.164 191.144 484.164 191.774V192.026C484.164 192.67 484.64 193.006 485.396 193.006ZM492.512 194H490.986V186.72H492.512V187.924H492.582C492.89 187.14 493.506 186.552 494.626 186.552C496.11 186.552 496.992 187.588 496.992 189.38V194H495.466V189.576C495.466 188.442 495.032 187.868 494.094 187.868C493.296 187.868 492.512 188.274 492.512 189.128V194ZM502.167 191.004L503.623 186.72H505.093L502.027 195.442C501.677 196.422 501.243 196.8 500.109 196.8H499.227V195.554H500.459L500.879 194.322L498.233 186.72H499.759L501.215 191.004L501.635 192.586H501.705L502.167 191.004Z" fill="#697077"/>
<path d="M291.872 377.168C289.324 377.168 287.77 375.39 287.77 372.114C287.77 368.838 289.324 367.06 291.872 367.06C293.566 367.06 294.7 367.816 295.358 369.272L294.028 370C293.692 369.076 293.006 368.474 291.872 368.474C290.374 368.474 289.45 369.566 289.45 371.372V372.856C289.45 374.662 290.374 375.754 291.872 375.754C293.034 375.754 293.776 375.082 294.126 374.13L295.4 374.9C294.742 376.314 293.566 377.168 291.872 377.168ZM303.313 377H302.459C301.661 377 301.241 376.496 301.143 375.782H301.073C300.793 376.692 300.009 377.168 298.945 377.168C297.447 377.168 296.593 376.314 296.593 374.998C296.593 373.556 297.671 372.814 299.701 372.814H301.017V372.198C301.017 371.316 300.541 370.798 299.519 370.798C298.665 370.798 298.147 371.218 297.783 371.792L296.873 370.966C297.349 370.154 298.203 369.552 299.617 369.552C301.493 369.552 302.543 370.476 302.543 372.1V375.754H303.313V377ZM299.379 376.006C300.317 376.006 301.017 375.558 301.017 374.844V373.794H299.729C298.665 373.794 298.147 374.144 298.147 374.774V375.026C298.147 375.67 298.623 376.006 299.379 376.006ZM306.495 377H304.969V369.72H306.495V370.924H306.565C306.873 370.14 307.489 369.552 308.609 369.552C310.093 369.552 310.975 370.588 310.975 372.38V377H309.449V372.576C309.449 371.442 309.015 370.868 308.077 370.868C307.279 370.868 306.495 371.274 306.495 372.128V377ZM316.718 377V366.64H318.244V370.924H318.314C318.622 370.056 319.392 369.552 320.358 369.552C322.192 369.552 323.256 370.966 323.256 373.36C323.256 375.754 322.192 377.168 320.358 377.168C319.392 377.168 318.622 376.65 318.314 375.796H318.244V377H316.718ZM319.896 375.852C320.946 375.852 321.646 375.11 321.646 373.99V372.73C321.646 371.61 320.946 370.868 319.896 370.868C318.972 370.868 318.244 371.372 318.244 372.114V374.606C318.244 375.348 318.972 375.852 319.896 375.852ZM328.019 377.168C325.947 377.168 324.673 375.684 324.673 373.36C324.673 371.036 325.947 369.552 328.019 369.552C330.161 369.552 331.253 371.162 331.253 373.178V373.752H326.255V373.99C326.255 375.11 326.941 375.908 328.173 375.908C329.069 375.908 329.671 375.488 330.091 374.816L330.987 375.698C330.441 376.58 329.377 377.168 328.019 377.168ZM328.019 370.742C326.969 370.742 326.255 371.526 326.255 372.646V372.744H329.643V372.604C329.643 371.484 329.027 370.742 328.019 370.742ZM336.571 379.8V369.72H338.097V370.924H338.167C338.475 370.056 339.245 369.552 340.211 369.552C342.045 369.552 343.109 370.966 343.109 373.36C343.109 375.754 342.045 377.168 340.211 377.168C339.245 377.168 338.475 376.65 338.167 375.796H338.097V379.8H336.571ZM339.749 375.852C340.799 375.852 341.499 375.11 341.499 373.99V372.73C341.499 371.61 340.799 370.868 339.749 370.868C338.825 370.868 338.097 371.372 338.097 372.114V374.606C338.097 375.348 338.825 375.852 339.749 375.852ZM351.205 377H350.351C349.553 377 349.133 376.496 349.035 375.782H348.965C348.685 376.692 347.901 377.168 346.837 377.168C345.339 377.168 344.485 376.314 344.485 374.998C344.485 373.556 345.563 372.814 347.593 372.814H348.909V372.198C348.909 371.316 348.433 370.798 347.411 370.798C346.557 370.798 346.039 371.218 345.675 371.792L344.765 370.966C345.241 370.154 346.095 369.552 347.509 369.552C349.385 369.552 350.435 370.476 350.435 372.1V375.754H351.205V377ZM347.271 376.006C348.209 376.006 348.909 375.558 348.909 374.844V373.794H347.621C346.557 373.794 346.039 374.144 346.039 374.774V375.026C346.039 375.67 346.515 376.006 347.271 376.006ZM354.386 377H352.86V369.72H354.386V371.12H354.456C354.666 370.378 355.296 369.72 356.458 369.72H356.864V371.19H356.262C355.058 371.19 354.386 371.596 354.386 372.352V377ZM361.78 377H360.45C359.4 377 358.84 376.412 358.84 375.418V370.966H357.706V369.72H358.322C358.826 369.72 358.994 369.51 358.994 369.006V367.732H360.366V369.72H361.892V370.966H360.366V375.754H361.78V377ZM370.032 377.168C368.002 377.168 366.686 375.684 366.686 373.36C366.686 371.036 368.002 369.552 370.032 369.552C372.062 369.552 373.378 371.036 373.378 373.36C373.378 375.684 372.062 377.168 370.032 377.168ZM370.032 375.908C371.068 375.908 371.768 375.264 371.768 373.976V372.744C371.768 371.456 371.068 370.812 370.032 370.812C368.996 370.812 368.296 371.456 368.296 372.744V373.976C368.296 375.264 368.996 375.908 370.032 375.908ZM375.534 377V370.966H374.428V369.72H375.534V368.516C375.534 367.34 376.164 366.64 377.382 366.64H378.586V367.886H377.06V369.72H378.586V370.966H377.06V377H375.534Z" fill="#697077"/>
<path d="M590.872 377.168C588.324 377.168 586.77 375.39 586.77 372.114C586.77 368.838 588.324 367.06 590.872 367.06C592.566 367.06 593.7 367.816 594.358 369.272L593.028 370C592.692 369.076 592.006 368.474 590.872 368.474C589.374 368.474 588.45 369.566 588.45 371.372V372.856C588.45 374.662 589.374 375.754 590.872 375.754C592.034 375.754 592.776 375.082 593.126 374.13L594.4 374.9C593.742 376.314 592.566 377.168 590.872 377.168ZM602.313 377H601.459C600.661 377 600.241 376.496 600.143 375.782H600.073C599.793 376.692 599.009 377.168 597.945 377.168C596.447 377.168 595.593 376.314 595.593 374.998C595.593 373.556 596.671 372.814 598.701 372.814H600.017V372.198C600.017 371.316 599.541 370.798 598.519 370.798C597.665 370.798 597.147 371.218 596.783 371.792L595.873 370.966C596.349 370.154 597.203 369.552 598.617 369.552C600.493 369.552 601.543 370.476 601.543 372.1V375.754H602.313V377ZM598.379 376.006C599.317 376.006 600.017 375.558 600.017 374.844V373.794H598.729C597.665 373.794 597.147 374.144 597.147 374.774V375.026C597.147 375.67 597.623 376.006 598.379 376.006ZM605.495 377H603.969V369.72H605.495V370.924H605.565C605.873 370.14 606.489 369.552 607.609 369.552C609.093 369.552 609.975 370.588 609.975 372.38V377H608.449V372.576C608.449 371.442 608.015 370.868 607.077 370.868C606.279 370.868 605.495 371.274 605.495 372.128V377ZM615.718 377V366.64H617.244V370.924H617.314C617.622 370.14 618.238 369.552 619.358 369.552C620.842 369.552 621.724 370.588 621.724 372.38V377H620.198V372.562C620.198 371.442 619.764 370.868 618.826 370.868C618.028 370.868 617.244 371.274 617.244 372.114V377H615.718ZM630.187 377H629.333C628.535 377 628.115 376.496 628.017 375.782H627.947C627.667 376.692 626.883 377.168 625.819 377.168C624.321 377.168 623.467 376.314 623.467 374.998C623.467 373.556 624.545 372.814 626.575 372.814H627.891V372.198C627.891 371.316 627.415 370.798 626.393 370.798C625.539 370.798 625.021 371.218 624.657 371.792L623.747 370.966C624.223 370.154 625.077 369.552 626.491 369.552C628.367 369.552 629.417 370.476 629.417 372.1V375.754H630.187V377ZM626.253 376.006C627.191 376.006 627.891 375.558 627.891 374.844V373.794H626.603C625.539 373.794 625.021 374.144 625.021 374.774V375.026C625.021 375.67 625.497 376.006 626.253 376.006ZM635.094 377H633.302L630.824 369.72H632.336L633.442 373.038L634.184 375.586H634.268L635.01 373.038L636.144 369.72H637.6L635.094 377ZM641.791 377.168C639.719 377.168 638.445 375.684 638.445 373.36C638.445 371.036 639.719 369.552 641.791 369.552C643.933 369.552 645.025 371.162 645.025 373.178V373.752H640.027V373.99C640.027 375.11 640.713 375.908 641.945 375.908C642.841 375.908 643.443 375.488 643.863 374.816L644.759 375.698C644.213 376.58 643.149 377.168 641.791 377.168ZM641.791 370.742C640.741 370.742 640.027 371.526 640.027 372.646V372.744H643.415V372.604C643.415 371.484 642.799 370.742 641.791 370.742Z" fill="#697077"/>
<path d="M425.49 594V592.516H425.434C425.238 593.454 424.286 594.168 422.802 594.168C420.478 594.168 418.77 592.39 418.77 589.114C418.77 585.852 420.478 584.06 423.04 584.06C424.79 584.06 426.008 584.886 426.68 586.258L425.392 587.014C425.014 586.104 424.23 585.474 423.04 585.474C421.5 585.474 420.464 586.524 420.464 588.316V589.912C420.464 591.704 421.5 592.754 423.04 592.754C424.272 592.754 425.35 592.124 425.35 590.906V590.15H423.334V588.792H426.876V594H425.49ZM430.649 594H429.123V586.72H430.649V588.12H430.719C430.929 587.378 431.559 586.72 432.721 586.72H433.127V588.19H432.525C431.321 588.19 430.649 588.596 430.649 589.352V594ZM440.721 594H439.867C439.069 594 438.649 593.496 438.551 592.782H438.481C438.201 593.692 437.417 594.168 436.353 594.168C434.855 594.168 434.001 593.314 434.001 591.998C434.001 590.556 435.079 589.814 437.109 589.814H438.425V589.198C438.425 588.316 437.949 587.798 436.927 587.798C436.073 587.798 435.555 588.218 435.191 588.792L434.281 587.966C434.757 587.154 435.611 586.552 437.025 586.552C438.901 586.552 439.951 587.476 439.951 589.1V592.754H440.721V594ZM436.787 593.006C437.725 593.006 438.425 592.558 438.425 591.844V590.794H437.137C436.073 590.794 435.555 591.144 435.555 591.774V592.026C435.555 592.67 436.031 593.006 436.787 593.006ZM443.903 594H442.377V586.72H443.903V587.924H443.973C444.281 587.14 444.897 586.552 446.017 586.552C447.501 586.552 448.383 587.588 448.383 589.38V594H446.857V589.576C446.857 588.442 446.423 587.868 445.485 587.868C444.687 587.868 443.903 588.274 443.903 589.128V594ZM454.004 594H452.674C451.624 594 451.064 593.412 451.064 592.418V587.966H449.93V586.72H450.546C451.05 586.72 451.218 586.51 451.218 586.006V584.732H452.59V586.72H454.116V587.966H452.59V592.754H454.004V594ZM458.241 594.168C456.869 594.168 455.973 593.65 455.287 592.796L456.267 591.9C456.799 592.544 457.457 592.936 458.325 592.936C459.207 592.936 459.655 592.572 459.655 591.956C459.655 591.494 459.375 591.144 458.619 591.046L457.947 590.962C456.463 590.78 455.553 590.136 455.553 588.792C455.553 587.378 456.659 586.552 458.255 586.552C459.571 586.552 460.313 586.986 460.971 587.714L460.033 588.61C459.655 588.162 459.039 587.784 458.255 587.784C457.415 587.784 457.023 588.148 457.023 588.694C457.023 589.254 457.373 589.506 458.143 589.632L458.815 589.716C460.411 589.954 461.125 590.654 461.125 591.83C461.125 593.23 459.991 594.168 458.241 594.168ZM472.666 594H471.812C471.014 594 470.594 593.496 470.496 592.782H470.426C470.146 593.692 469.362 594.168 468.298 594.168C466.8 594.168 465.946 593.314 465.946 591.998C465.946 590.556 467.024 589.814 469.054 589.814H470.37V589.198C470.37 588.316 469.894 587.798 468.872 587.798C468.018 587.798 467.5 588.218 467.136 588.792L466.226 587.966C466.702 587.154 467.556 586.552 468.97 586.552C470.846 586.552 471.896 587.476 471.896 589.1V592.754H472.666V594ZM468.732 593.006C469.67 593.006 470.37 592.558 470.37 591.844V590.794H469.082C468.018 590.794 467.5 591.144 467.5 591.774V592.026C467.5 592.67 467.976 593.006 468.732 593.006ZM477.135 594.168C475.035 594.168 473.831 592.684 473.831 590.36C473.831 588.036 475.035 586.552 477.135 586.552C478.591 586.552 479.515 587.266 479.949 588.344L478.689 588.932C478.479 588.26 477.961 587.826 477.135 587.826C476.015 587.826 475.441 588.596 475.441 589.716V591.018C475.441 592.138 476.015 592.908 477.135 592.908C478.017 592.908 478.535 592.432 478.843 591.704L480.005 592.32C479.529 593.51 478.535 594.168 477.135 594.168ZM484.35 594.168C482.25 594.168 481.046 592.684 481.046 590.36C481.046 588.036 482.25 586.552 484.35 586.552C485.806 586.552 486.73 587.266 487.164 588.344L485.904 588.932C485.694 588.26 485.176 587.826 484.35 587.826C483.23 587.826 482.656 588.596 482.656 589.716V591.018C482.656 592.138 483.23 592.908 484.35 592.908C485.232 592.908 485.75 592.432 486.058 591.704L487.22 592.32C486.744 593.51 485.75 594.168 484.35 594.168ZM491.607 594.168C489.535 594.168 488.261 592.684 488.261 590.36C488.261 588.036 489.535 586.552 491.607 586.552C493.749 586.552 494.841 588.162 494.841 590.178V590.752H489.843V590.99C489.843 592.11 490.529 592.908 491.761 592.908C492.657 592.908 493.259 592.488 493.679 591.816L494.575 592.698C494.029 593.58 492.965 594.168 491.607 594.168ZM491.607 587.742C490.557 587.742 489.843 588.526 489.843 589.646V589.744H493.231V589.604C493.231 588.484 492.615 587.742 491.607 587.742ZM499 594.168C497.628 594.168 496.732 593.65 496.046 592.796L497.026 591.9C497.558 592.544 498.216 592.936 499.084 592.936C499.966 592.936 500.414 592.572 500.414 591.956C500.414 591.494 500.134 591.144 499.378 591.046L498.706 590.962C497.222 590.78 496.312 590.136 496.312 588.792C496.312 587.378 497.418 586.552 499.014 586.552C500.33 586.552 501.072 586.986 501.73 587.714L500.792 588.61C500.414 588.162 499.798 587.784 499.014 587.784C498.174 587.784 497.782 588.148 497.782 588.694C497.782 589.254 498.132 589.506 498.902 589.632L499.574 589.716C501.17 589.954 501.884 590.654 501.884 591.83C501.884 593.23 500.75 594.168 499 594.168ZM505.996 594.168C504.624 594.168 503.728 593.65 503.042 592.796L504.022 591.9C504.554 592.544 505.212 592.936 506.08 592.936C506.962 592.936 507.41 592.572 507.41 591.956C507.41 591.494 507.13 591.144 506.374 591.046L505.702 590.962C504.218 590.78 503.308 590.136 503.308 588.792C503.308 587.378 504.414 586.552 506.01 586.552C507.326 586.552 508.068 586.986 508.726 587.714L507.788 588.61C507.41 588.162 506.794 587.784 506.01 587.784C505.17 587.784 504.778 588.148 504.778 588.694C504.778 589.254 505.128 589.506 505.898 589.632L506.57 589.716C508.166 589.954 508.88 590.654 508.88 591.83C508.88 593.23 507.746 594.168 505.996 594.168ZM517.578 594H516.248C515.198 594 514.638 593.412 514.638 592.418V587.966H513.504V586.72H514.12C514.624 586.72 514.792 586.51 514.792 586.006V584.732H516.164V586.72H517.69V587.966H516.164V592.754H517.578V594ZM522.307 594.168C520.277 594.168 518.961 592.684 518.961 590.36C518.961 588.036 520.277 586.552 522.307 586.552C524.337 586.552 525.653 588.036 525.653 590.36C525.653 592.684 524.337 594.168 522.307 594.168ZM522.307 592.908C523.343 592.908 524.043 592.264 524.043 590.976V589.744C524.043 588.456 523.343 587.812 522.307 587.812C521.271 587.812 520.571 588.456 520.571 589.744V590.976C520.571 592.264 521.271 592.908 522.307 592.908Z" fill="#697077"/>
<path d="M454.21 859V854.744H449.786V859H448.204V849.228H449.786V853.344H454.21V849.228H455.792V859H454.21ZM464.434 859H463.58C462.782 859 462.362 858.496 462.264 857.782H462.194C461.914 858.692 461.13 859.168 460.066 859.168C458.568 859.168 457.714 858.314 457.714 856.998C457.714 855.556 458.792 854.814 460.822 854.814H462.138V854.198C462.138 853.316 461.662 852.798 460.64 852.798C459.786 852.798 459.268 853.218 458.904 853.792L457.994 852.966C458.47 852.154 459.324 851.552 460.738 851.552C462.614 851.552 463.664 852.476 463.664 854.1V857.754H464.434V859ZM460.5 858.006C461.438 858.006 462.138 857.558 462.138 856.844V855.794H460.85C459.786 855.794 459.268 856.144 459.268 856.774V857.026C459.268 857.67 459.744 858.006 460.5 858.006ZM468.4 859.168C467.028 859.168 466.132 858.65 465.446 857.796L466.426 856.9C466.958 857.544 467.616 857.936 468.484 857.936C469.366 857.936 469.814 857.572 469.814 856.956C469.814 856.494 469.534 856.144 468.778 856.046L468.106 855.962C466.622 855.78 465.712 855.136 465.712 853.792C465.712 852.378 466.818 851.552 468.414 851.552C469.73 851.552 470.472 851.986 471.13 852.714L470.192 853.61C469.814 853.162 469.198 852.784 468.414 852.784C467.574 852.784 467.182 853.148 467.182 853.694C467.182 854.254 467.532 854.506 468.302 854.632L468.974 854.716C470.57 854.954 471.284 855.654 471.284 856.83C471.284 858.23 470.15 859.168 468.4 859.168ZM479.492 859.168C477.462 859.168 476.146 857.684 476.146 855.36C476.146 853.036 477.462 851.552 479.492 851.552C481.522 851.552 482.838 853.036 482.838 855.36C482.838 857.684 481.522 859.168 479.492 859.168ZM479.492 857.908C480.528 857.908 481.228 857.264 481.228 855.976V854.744C481.228 853.456 480.528 852.812 479.492 852.812C478.456 852.812 477.756 853.456 477.756 854.744V855.976C477.756 857.264 478.456 857.908 479.492 857.908ZM486.225 859H484.699V851.72H486.225V852.924H486.295C486.603 852.14 487.219 851.552 488.339 851.552C489.823 851.552 490.705 852.588 490.705 854.38V859H489.179V854.576C489.179 853.442 488.745 852.868 487.807 852.868C487.009 852.868 486.225 853.274 486.225 854.128V859ZM495.836 859.168C493.764 859.168 492.49 857.684 492.49 855.36C492.49 853.036 493.764 851.552 495.836 851.552C497.978 851.552 499.07 853.162 499.07 855.178V855.752H494.072V855.99C494.072 857.11 494.758 857.908 495.99 857.908C496.886 857.908 497.488 857.488 497.908 856.816L498.804 857.698C498.258 858.58 497.194 859.168 495.836 859.168ZM495.836 852.742C494.786 852.742 494.072 853.526 494.072 854.646V854.744H497.46V854.604C497.46 853.484 496.844 852.742 495.836 852.742Z" fill="#697077"/>
<path d="M314.786 680.052V684H313.204V674.228H317.418C319.168 674.228 320.246 675.362 320.246 677.168C320.246 678.554 319.588 679.52 318.342 679.884L320.456 684H318.692L316.732 680.052H314.786ZM314.786 678.722H317.306C318.104 678.722 318.58 678.288 318.58 677.504V676.832C318.58 676.048 318.104 675.614 317.306 675.614H314.786V678.722ZM325.077 684.168C323.005 684.168 321.731 682.684 321.731 680.36C321.731 678.036 323.005 676.552 325.077 676.552C327.219 676.552 328.311 678.162 328.311 680.178V680.752H323.313V680.99C323.313 682.11 323.999 682.908 325.231 682.908C326.127 682.908 326.729 682.488 327.149 681.816L328.045 682.698C327.499 683.58 326.435 684.168 325.077 684.168ZM325.077 677.742C324.027 677.742 323.313 678.526 323.313 679.646V679.744H326.701V679.604C326.701 678.484 326.085 677.742 325.077 677.742ZM336.544 684.686C336.544 686.198 335.466 686.968 332.848 686.968C330.468 686.968 329.544 686.324 329.544 685.218C329.544 684.42 330.02 683.986 330.79 683.818V683.664C330.258 683.496 329.964 683.09 329.964 682.544C329.964 681.788 330.552 681.424 331.252 681.256V681.2C330.398 680.794 329.922 680.024 329.922 679.044C329.922 677.56 330.972 676.552 332.82 676.552C333.31 676.552 333.758 676.622 334.136 676.776V676.58C334.136 675.936 334.444 675.544 335.088 675.544H336.208V676.776H334.724V677.07C335.382 677.504 335.746 678.204 335.746 679.044C335.746 680.514 334.682 681.508 332.834 681.508C332.484 681.508 332.148 681.466 331.882 681.396C331.518 681.522 331.182 681.76 331.182 682.124C331.182 682.516 331.56 682.67 332.204 682.67H333.996C335.788 682.67 336.544 683.426 336.544 684.686ZM335.116 684.854C335.116 684.35 334.78 684.028 333.786 684.028H331.322C330.986 684.224 330.818 684.518 330.818 684.868C330.818 685.456 331.252 685.862 332.386 685.862H333.338C334.528 685.862 335.116 685.526 335.116 684.854ZM332.834 680.402C333.73 680.402 334.248 679.996 334.248 679.17V678.89C334.248 678.064 333.73 677.658 332.834 677.658C331.938 677.658 331.42 678.064 331.42 678.89V679.17C331.42 679.996 331.938 680.402 332.834 680.402ZM338.61 675.418C337.98 675.418 337.7 675.082 337.7 674.62V674.382C337.7 673.92 337.98 673.584 338.61 673.584C339.24 673.584 339.506 673.92 339.506 674.382V674.62C339.506 675.082 339.24 675.418 338.61 675.418ZM337.84 684V676.72H339.366V684H337.84ZM344.561 684.168C342.531 684.168 341.215 682.684 341.215 680.36C341.215 678.036 342.531 676.552 344.561 676.552C346.591 676.552 347.907 678.036 347.907 680.36C347.907 682.684 346.591 684.168 344.561 684.168ZM344.561 682.908C345.597 682.908 346.297 682.264 346.297 680.976V679.744C346.297 678.456 345.597 677.812 344.561 677.812C343.525 677.812 342.825 678.456 342.825 679.744V680.976C342.825 682.264 343.525 682.908 344.561 682.908ZM351.293 684H349.767V676.72H351.293V677.924H351.363C351.671 677.14 352.287 676.552 353.407 676.552C354.891 676.552 355.773 677.588 355.773 679.38V684H354.247V679.576C354.247 678.442 353.813 677.868 352.875 677.868C352.077 677.868 351.293 678.274 351.293 679.128V684ZM368.335 684H361.657V682.684H364.401V675.376H364.289L362.021 677.798L361.055 676.93L363.547 674.228H365.955V682.684H368.335V684Z" fill="#697077"/>
<path d="M492.786 680.052V684H491.204V674.228H495.418C497.168 674.228 498.246 675.362 498.246 677.168C498.246 678.554 497.588 679.52 496.342 679.884L498.456 684H496.692L494.732 680.052H492.786ZM492.786 678.722H495.306C496.104 678.722 496.58 678.288 496.58 677.504V676.832C496.58 676.048 496.104 675.614 495.306 675.614H492.786V678.722ZM503.077 684.168C501.005 684.168 499.731 682.684 499.731 680.36C499.731 678.036 501.005 676.552 503.077 676.552C505.219 676.552 506.311 678.162 506.311 680.178V680.752H501.313V680.99C501.313 682.11 501.999 682.908 503.231 682.908C504.127 682.908 504.729 682.488 505.149 681.816L506.045 682.698C505.499 683.58 504.435 684.168 503.077 684.168ZM503.077 677.742C502.027 677.742 501.313 678.526 501.313 679.646V679.744H504.701V679.604C504.701 678.484 504.085 677.742 503.077 677.742ZM514.544 684.686C514.544 686.198 513.466 686.968 510.848 686.968C508.468 686.968 507.544 686.324 507.544 685.218C507.544 684.42 508.02 683.986 508.79 683.818V683.664C508.258 683.496 507.964 683.09 507.964 682.544C507.964 681.788 508.552 681.424 509.252 681.256V681.2C508.398 680.794 507.922 680.024 507.922 679.044C507.922 677.56 508.972 676.552 510.82 676.552C511.31 676.552 511.758 676.622 512.136 676.776V676.58C512.136 675.936 512.444 675.544 513.088 675.544H514.208V676.776H512.724V677.07C513.382 677.504 513.746 678.204 513.746 679.044C513.746 680.514 512.682 681.508 510.834 681.508C510.484 681.508 510.148 681.466 509.882 681.396C509.518 681.522 509.182 681.76 509.182 682.124C509.182 682.516 509.56 682.67 510.204 682.67H511.996C513.788 682.67 514.544 683.426 514.544 684.686ZM513.116 684.854C513.116 684.35 512.78 684.028 511.786 684.028H509.322C508.986 684.224 508.818 684.518 508.818 684.868C508.818 685.456 509.252 685.862 510.386 685.862H511.338C512.528 685.862 513.116 685.526 513.116 684.854ZM510.834 680.402C511.73 680.402 512.248 679.996 512.248 679.17V678.89C512.248 678.064 511.73 677.658 510.834 677.658C509.938 677.658 509.42 678.064 509.42 678.89V679.17C509.42 679.996 509.938 680.402 510.834 680.402ZM516.61 675.418C515.98 675.418 515.7 675.082 515.7 674.62V674.382C515.7 673.92 515.98 673.584 516.61 673.584C517.24 673.584 517.506 673.92 517.506 674.382V674.62C517.506 675.082 517.24 675.418 516.61 675.418ZM515.84 684V676.72H517.366V684H515.84ZM522.561 684.168C520.531 684.168 519.215 682.684 519.215 680.36C519.215 678.036 520.531 676.552 522.561 676.552C524.591 676.552 525.907 678.036 525.907 680.36C525.907 682.684 524.591 684.168 522.561 684.168ZM522.561 682.908C523.597 682.908 524.297 682.264 524.297 680.976V679.744C524.297 678.456 523.597 677.812 522.561 677.812C521.525 677.812 520.825 678.456 520.825 679.744V680.976C520.825 682.264 521.525 682.908 522.561 682.908ZM529.293 684H527.767V676.72H529.293V677.924H529.363C529.671 677.14 530.287 676.552 531.407 676.552C532.891 676.552 533.773 677.588 533.773 679.38V684H532.247V679.576C532.247 678.442 531.813 677.868 530.875 677.868C530.077 677.868 529.293 678.274 529.293 679.128V684ZM545.999 682.656V684H539.363V682.488L542.485 679.702C543.465 678.82 544.025 678.036 544.025 677.14V676.958C544.025 676.02 543.409 675.432 542.443 675.432C541.365 675.432 540.847 676.118 540.609 676.972L539.223 676.44C539.629 675.208 540.609 674.06 542.569 674.06C544.557 674.06 545.705 675.264 545.705 676.958C545.705 678.54 544.655 679.576 543.367 680.682L541.071 682.656H545.999Z" fill="#697077"/>
<path d="M328 517L328 581C328 585.418 331.582 589 336 589L411 589" stroke="black"/>
<path d="M616 517L616 581C616 585.418 612.418 589 608 589L535 589" stroke="black"/>
<rect x="292.5" y="650.5" width="361" height="141" rx="7.5" stroke="#A2A9B0"/>
</g>
<defs>
<clipPath id="clip0_9471_66498">
<rect width="809" height="1052" fill="white"/>
</clipPath>
</defs>
</svg>