<?xml version='1.0' encoding='utf-8'?>
<svg xmlns="http://www.w3.org/2000/svg" xmlns:ns1="http://sodipodi.sourceforge.net/DTD/sodipodi-0.dtd" xmlns:ns2="http://www.inkscape.org/namespaces/inkscape" version="1.1" id="svg1" width="100%" height="auto" viewBox="-20.0 -20.0 187.23512 150.82031" ns1:docname="svg_fix_XXXXXX.svg">
  <rect id="path1" x="-20.0" y="-20.0" width="187.23512" height="150.82031" fill="white" /><ns1:namedview id="namedview1" pagecolor="#ffffff" bordercolor="#000000" borderopacity="0.25" ns2:showpageshadow="2" ns2:pageopacity="0.0" ns2:pagecheckerboard="0" ns2:deskcolor="#d1d1d1" />
  <defs id="defs1" />
  <g id="g1" transform="translate(-223.10111,-34.605469)">
    <path id="path2" d="M -18.40439,21.2601 H 18.40439" style="fill:none;stroke:#121619;stroke-width:0.3985;stroke-linecap:butt;stroke-linejoin:miter;stroke-miterlimit:10;stroke-dasharray:none;stroke-opacity:1" transform="matrix(4,0,0,-4,296.71867,132.66267)" />
    <path id="path3" d="M -18.40439,0 H 18.40439" style="fill:none;stroke:#121619;stroke-width:0.3985;stroke-linecap:butt;stroke-linejoin:miter;stroke-miterlimit:10;stroke-dasharray:none;stroke-opacity:1" transform="matrix(4,0,0,-4,296.71867,132.66267)" />
    <path id="path4" d="m 1.0745286,-5.9801432 2.6914063,2.6914062 -2.6914063,2.69140627 0.5507813,0.52734375 2.6796875,-2.67968752 2.6796875,2.67968752 0.546875,-0.52734375 -2.6875,-2.69140627 2.6875,-2.6914062 -0.546875,-0.5351563 -2.6796875,2.6875 -2.6796875,-2.6757812 z m 0,0" style="fill:#78a9ff;fill-opacity:1;fill-rule:nonzero;stroke:none" aria-label="×" transform="matrix(4,0,0,4,279.50267,60.666667)" />
    <path id="path5" d="m 1.0745286,-5.9803776 2.6914063,2.6914062 -2.6914063,2.6914063 0.5507813,0.52734375 2.6796875,-2.67968755 2.6796875,2.67968755 0.546875,-0.52734375 -2.6875,-2.6914063 2.6875,-2.6914062 -0.546875,-0.5351563 -2.6796875,2.6875 -2.6796875,-2.6757812 z m 0,0" style="fill:#78a9ff;fill-opacity:1;fill-rule:nonzero;stroke:none" aria-label="×" transform="matrix(4,0,0,4,279.50267,145.70667)" />
    <path id="path6" d="M 0,21.2601 V 0" style="fill:none;stroke:#78a9ff;stroke-width:0.79701;stroke-linecap:butt;stroke-linejoin:miter;stroke-miterlimit:10;stroke-dasharray:none;stroke-opacity:1" transform="matrix(4,0,0,-4,296.71867,132.66267)" />
  </g>
</svg>