<?xml version="1.0" encoding="UTF-8"?><!DOCTYPE svg  PUBLIC '-//W3C//DTD SVG 1.1//EN'  'http://www.w3.org/Graphics/SVG/1.1/DTD/svg11.dtd'><svg width="312.85pt" height="218.36pt" version="1.1" viewBox="0 0 312.85 218.36" xmlns="http://www.w3.org/2000/svg" xmlns:xlink="http://www.w3.org/1999/xlink"><defs><style type="text/css">*{stroke-linejoin: round; stroke-linecap: butt}</style></defs><path d="m0 218.36h312.85v-218.36h-312.85z" fill="#ffffff"/><path d="m64.609 44.283h236.41" clip-path="url(#aa7310f1a3a)" fill="none" stroke="#000000" stroke-linecap="square" stroke-width="2"/><path d="m64.609 90.637h236.41" clip-path="url(#aa7310f1a3a)" fill="none" stroke="#000000" stroke-linecap="square" stroke-width="2"/><path d="m64.609 136.99h236.41" clip-path="url(#aa7310f1a3a)" fill="none" stroke="#000000" stroke-linecap="square" stroke-width="2"/><path d="m73.88 187.98 4.6354-9.2708" clip-path="url(#aa7310f1a3a)" fill="none" stroke="#778899" stroke-linecap="square" stroke-width="1.5"/><path d="m64.609 181.84h236.41" clip-path="url(#aa7310f1a3a)" fill="none" stroke="#778899" stroke-linecap="square" stroke-width="2"/><path d="m64.609 184.85h236.41" clip-path="url(#aa7310f1a3a)" fill="none" stroke="#778899" stroke-linecap="square" stroke-width="2"/><path d="m176.32 172.8h12.052l-6.026 8.6914z" clip-path="url(#aa7310f1a3a)" fill="#778899"/><path d="m217.11 110.34h76.484q4.6354 0 4.6354-4.6354v-30.13q0-4.6354-4.6354-4.6354h-76.484q-4.6354 0-4.6354 4.6354v30.13q0 4.6354 4.6354 4.6354z" clip-path="url(#aa7310f1a3a)" fill="none" stroke="#fa4d56" stroke-width="3"/><g clip-path="url(#aa7310f1a3a)"><g transform="translate(213.41 84.954) scale(.13 -.13)"><defs><path id="DejaVuSans-49" transform="scale(.015625)" d="m628 4666h631v-4666h-631v4666z"/><path id="DejaVuSans-66" transform="scale(.015625)" d="m2375 4863v-479h-550q-309 0-430-125-120-125-120-450v-309h947v-447h-947v-3053h-578v3053h-550v447h550v244q0 584 272 851 272 268 862 268h544z"/></defs><use xlink:href="#DejaVuSans-20"/><use transform="translate(31.787)" xlink:href="#DejaVuSans-20"/><use transform="translate(63.574)" xlink:href="#DejaVuSans-49"/><use transform="translate(93.066)" xlink:href="#DejaVuSans-66"/></g></g><path d="m-865.25 342.11q4.6354 0 4.6354-4.6354 0-34.766-4.6354-34.766-81.119 0-81.119 4.6354 0 34.766 4.6354 34.766" clip-path="url(#aa7310f1a3a)" fill="none" stroke="#fa4d56" stroke-width="3"/><g clip-path="url(#aa7310f1a3a)"><g transform="translate(-945.44 316.72) scale(.13 -.13)"><use xlink:href="#DejaVuSans-20"/><use transform="translate(31.787)" xlink:href="#DejaVuSans-20"/><use transform="translate(63.574)" xlink:href="#DejaVuSans-49"/><use transform="translate(93.066)" xlink:href="#DejaVuSans-66"/></g></g><path d="m59.974 21.106h-1158.8v231.77h1158.8z" clip-path="url(#aa7310f1a3a)" fill="#ffffff" stroke="#ffffff" stroke-width="1.5"/><path d="m135.99 90.637v-46.354" clip-path="url(#aa7310f1a3a)" fill="none" stroke="#002d9c" stroke-linecap="square" stroke-width="2"/><path d="m183.85 44.283v128.52" clip-path="url(#aa7310f1a3a)" fill="none" stroke="#778899" stroke-linecap="square" stroke-width="2"/><path d="m180.84 44.283v128.52" clip-path="url(#aa7310f1a3a)" fill="none" stroke="#778899" stroke-linecap="square" stroke-width="2"/><path d="m218.62 112.19v71.153" clip-path="url(#aa7310f1a3a)" fill="none" stroke="#778899" stroke-linecap="square" stroke-width="2"/><path d="m215.61 112.19v71.153" clip-path="url(#aa7310f1a3a)" fill="none" stroke="#778899" stroke-linecap="square" stroke-width="2"/><path d="m74.575 59.348h30.13v-30.13h-30.13z" clip-path="url(#aa7310f1a3a)" fill="#fa4d56" stroke="#fa4d56" stroke-width="1.5"/><path d="m135.99 48.803c1.1986 0 2.3482-0.4762 3.1958-1.3237 0.84753-0.84753 1.3237-1.9972 1.3237-3.1958 0-1.1986-0.4762-2.3482-1.3237-3.1958-0.84753-0.84753-1.9972-1.3237-3.1958-1.3237-1.1986 0-2.3482 0.4762-3.1958 1.3237s-1.3237 1.9972-1.3237 3.1958c0 1.1986 0.4762 2.3482 1.3237 3.1958s1.9972 1.3237 3.1958 1.3237z" clip-path="url(#aa7310f1a3a)" fill="#002d9c" stroke="#002d9c" stroke-width="1.5"/><path d="m135.99 101.18c2.7967 0 5.4792-1.1111 7.4568-3.0887 1.9776-1.9776 3.0887-4.6601 3.0887-7.4568 0-2.7967-1.1111-5.4792-3.0887-7.4568-1.9776-1.9776-4.6601-3.0887-7.4568-3.0887-2.7967 0-5.4792 1.1111-7.4568 3.0887-1.9776 1.9776-3.0887 4.6601-3.0887 7.4568 0 2.7967 1.1111 5.4792 3.0887 7.4568 1.9776 1.9776 4.6601 3.0887 7.4568 3.0887z" clip-path="url(#aa7310f1a3a)" fill="#002d9c" stroke="#002d9c" stroke-width="2"/><path d="m167.28 59.348h30.13v-30.13h-30.13z" clip-path="url(#aa7310f1a3a)" fill="#a8a8a8" stroke="#a8a8a8" stroke-width="1.5"/><path d="m192.89 48.803c0-2.7958-1.1118-5.4799-3.0887-7.4568s-4.661-3.0887-7.4568-3.0887-5.4799 1.1118-7.4568 3.0887-3.0887 4.661-3.0887 7.4568" clip-path="url(#aa7310f1a3a)" fill="none" stroke="#000000" stroke-width="2"/><path d="m182.35 48.803 10.546-10.546" clip-path="url(#aa7310f1a3a)" fill="none" stroke="#000000" stroke-linecap="square" stroke-width="2"/><path d="m217.11 187.86c1.1986 0 2.3482-0.4762 3.1958-1.3237 0.84753-0.84753 1.3237-1.9972 1.3237-3.1958 0-1.1986-0.4762-2.3482-1.3237-3.1958s-1.9972-1.3237-3.1958-1.3237c-1.1986 0-2.3482 0.4762-3.1958 1.3237-0.84753 0.84753-1.3237 1.9972-1.3237 3.1958 0 1.1986 0.4762 2.3482 1.3237 3.1958 0.84753 0.84753 1.9972 1.3237 3.1958 1.3237z" clip-path="url(#aa7310f1a3a)" stroke="#000000" stroke-width="1.5"/><path d="m259.99 105.7h30.13v-30.13h-30.13z" clip-path="url(#aa7310f1a3a)" fill="#33b1ff" stroke="#33b1ff" stroke-width="1.5"/><path d="m135.99 96.663v-12.052" clip-path="url(#aa7310f1a3a)" fill="none" stroke="#ffffff" stroke-linecap="square" stroke-width="2"/><path d="m129.97 90.637h12.052" clip-path="url(#aa7310f1a3a)" fill="none" stroke="#ffffff" stroke-linecap="square" stroke-width="2"/><g clip-path="url(#aa7310f1a3a)"><g transform="translate(37.301 48.734) scale(.1625 -.1625)"><defs><path id="DejaVuSans-Oblique-71" transform="scale(.015625)" d="m2669 525q-231-303-546-460-314-156-695-156-531 0-833 358-301 358-301 986 0 506 186 978t533 847q225 244 517 375t614 131q387 0 637-153t363-462l100 525h578l-934-4813h-579l360 1844zm-1778 813q0-463 193-705 194-242 560-242 544 0 928 520t384 1264q0 450-199 689-198 239-569 239-272 0-504-127-231-126-403-370-181-256-286-600-104-343-104-668z"/><path id="DejaVuSans-30" transform="scale(.015625)" d="m2034 4250q-487 0-733-480-245-479-245-1442 0-959 245-1439 246-480 733-480 491 0 736 480 246 480 246 1439 0 963-246 1442-245 480-736 480zm0 500q785 0 1199-621 414-620 414-1801 0-1178-414-1799-414-620-1199-620-784 0-1198 620-414 621-414 1799 0 1181 414 1801 414 621 1198 621z"/></defs><use xlink:href="#DejaVuSans-Oblique-71"/><use transform="translate(63.477 -16.406) scale(.7)" xlink:href="#DejaVuSans-30"/></g></g><g clip-path="url(#aa7310f1a3a)"><g transform="translate(37.301 95.088) scale(.1625 -.1625)"><defs><path id="DejaVuSans-31" transform="scale(.015625)" d="m794 531h1031v3560l-1122-225v575l1116 225h631v-4135h1031v-531h-2687v531z"/></defs><use xlink:href="#DejaVuSans-Oblique-71"/><use transform="translate(63.477 -16.406) scale(.7)" xlink:href="#DejaVuSans-31"/></g></g><g clip-path="url(#aa7310f1a3a)"><g transform="translate(37.301 141.44) scale(.1625 -.1625)"><defs><path id="DejaVuSans-32" transform="scale(.015625)" d="m1228 531h2203v-531h-2962v531q359 372 979 998 621 627 780 809 303 340 423 576 121 236 121 464 0 372-261 606-261 235-680 235-297 0-627-103-329-103-704-313v638q381 153 712 231 332 78 607 78 725 0 1156-363 431-362 431-968 0-288-108-546-107-257-392-607-78-91-497-524-418-433-1181-1211z"/></defs><use xlink:href="#DejaVuSans-Oblique-71"/><use transform="translate(63.477 -16.406) scale(.7)" xlink:href="#DejaVuSans-32"/></g></g><g clip-path="url(#aa7310f1a3a)"><g transform="translate(69.245 176.55) scale(.104 -.104)"><defs><path id="DejaVuSans-33" transform="scale(.015625)" d="m2597 2516q453-97 707-404 255-306 255-756 0-690-475-1069-475-378-1350-378-293 0-604 58t-642 174v609q262-153 574-231 313-78 654-78 593 0 904 234t311 681q0 413-289 645-289 233-804 233h-544v519h569q465 0 712 186t247 536q0 359-255 551-254 193-729 193-260 0-557-57-297-56-653-174v562q360 100 674 150t592 50q719 0 1137-327 419-326 419-882 0-388-222-655t-631-370z"/></defs><use xlink:href="#DejaVuSans-33"/></g></g><g clip-path="url(#aa7310f1a3a)"><g transform="translate(46.403 187.83) scale(.1625 -.1625)"><defs><path id="DejaVuSans-63" transform="scale(.015625)" d="m3122 3366v-538q-244 135-489 202t-495 67q-560 0-870-355-309-354-309-995t309-996q310-354 870-354 250 0 495 67t489 202v-532q-241-112-499-168-257-57-548-57-791 0-1257 497-465 497-465 1341 0 856 470 1346 471 491 1290 491 265 0 518-55 253-54 491-163z"/></defs><use xlink:href="#DejaVuSans-63"/></g></g><g clip-path="url(#aa7310f1a3a)"><g transform="translate(84.752 47.87) scale(.13 -.13)"><defs><path id="DejaVuSans-48" transform="scale(.015625)" d="m628 4666h631v-1913h2294v1913h631v-4666h-631v2222h-2294v-2222h-631v4666z"/></defs><use xlink:href="#DejaVuSans-48"/></g></g><g clip-path="url(#aa7310f1a3a)"><g transform="translate(193.94 176.55) scale(.104 -.104)"><use xlink:href="#DejaVuSans-30"/></g></g><g clip-path="url(#aa7310f1a3a)"><g transform="translate(209.66 198.46) scale(.08 -.08)"><defs><path id="DejaVuSans-78" transform="scale(.015625)" d="m3513 3500-1266-1703 1331-1797h-678l-1019 1375-1018-1375h-679l1360 1831-1244 1669h678l928-1247 928 1247h679z"/></defs><use xlink:href="#DejaVuSans-30"/><use transform="translate(63.623)" xlink:href="#DejaVuSans-78"/><use transform="translate(122.8)" xlink:href="#DejaVuSans-32"/></g></g><g clip-path="url(#aa7310f1a3a)"><g transform="translate(268.7 101.88) scale(.08 -.08)"><defs><path id="DejaVuSans-2e" transform="scale(.015625)" d="m684 794h660v-794h-660v794z"/><path id="DejaVuSans-35" transform="scale(.015625)" d="m691 4666h2478v-532h-1900v-1143q137 47 274 70 138 23 276 23 781 0 1237-428 457-428 457-1159 0-753-469-1171-469-417-1322-417-294 0-599 50-304 50-629 150v635q281-153 581-228t634-75q541 0 856 284 316 284 316 772 0 487-316 771-315 285-856 285-253 0-505-56-251-56-513-175v2344z"/></defs><use xlink:href="#DejaVuSans-30"/><use transform="translate(63.623)" xlink:href="#DejaVuSans-2e"/><use transform="translate(95.41)" xlink:href="#DejaVuSans-35"/></g></g><g clip-path="url(#aa7310f1a3a)"><g transform="translate(267.13 89.705) scale(.13 -.13)"><defs><path id="DejaVuSans-52" transform="scale(.015625)" d="m2841 2188q203-69 395-294t386-619l641-1275h-679l-596 1197q-232 469-449 622t-592 153h-688v-1972h-631v4666h1425q800 0 1194-335 394-334 394-1009 0-441-205-732-205-290-595-402zm-1582 1959v-1656h794q456 0 689 211t233 620-233 617-689 208h-794z"/><path id="DejaVuSans-5a" transform="scale(.015625)" d="m359 4666h3666v-482l-2950-3653h3022v-531h-3809v481l2950 3653h-2879v532z"/></defs><use transform="translate(0 .09375)" xlink:href="#DejaVuSans-52"/><use transform="translate(70.439 -16.312) scale(.7)" xlink:href="#DejaVuSans-5a"/></g></g><defs><clipPath id="aa7310f1a3a"><rect x="7.2" y="7.2" width="298.45" height="203.96"/></clipPath></defs></svg>