<svg width="2141" height="280" viewBox="0 0 2141 280" fill="none" xmlns="http://www.w3.org/2000/svg">
<rect width="2141" height="280" fill="#21272A"/>
<rect x="40" y="115" width="239" height="80" rx="8" fill="white"/>
<rect x="40" y="115" width="239" height="80" rx="8" stroke="#343A3F"/>
<path d="M117.856 151.536V152.624H115.984C114.736 152.624 114.16 151.84 114.16 150.736V150.144C111.888 149.84 110.896 147.76 110.896 144.416C110.896 140.768 112.08 138.64 114.8 138.64C117.52 138.64 118.704 140.768 118.704 144.416C118.704 147.76 117.696 149.84 115.44 150.144V151.536H117.856ZM114.8 149.024C116.576 149.024 117.28 147.568 117.28 145.328V143.504C117.28 141.264 116.576 139.808 114.8 139.808C113.024 139.808 112.32 141.264 112.32 143.504V145.328C112.32 147.568 113.024 149.024 114.8 149.024ZM126.346 150V148.656H126.282C125.93 149.472 125.29 150.192 123.93 150.192C122.202 150.192 121.066 149.04 121.066 147.04V141.744H122.346V146.816C122.346 148.32 123.034 149.056 124.298 149.056C125.322 149.056 126.346 148.56 126.346 147.472V141.744H127.626V150H126.346ZM137.988 150H137.108C136.116 150 135.732 149.424 135.636 148.656H135.556C135.204 149.6 134.42 150.192 133.076 150.192C131.348 150.192 130.243 149.232 130.243 147.68C130.243 146.16 131.316 145.28 133.796 145.28H135.556V144.464C135.556 143.264 134.836 142.64 133.588 142.64C132.484 142.64 131.812 143.104 131.38 143.856L130.516 143.216C130.932 142.352 131.988 141.552 133.668 141.552C135.604 141.552 136.836 142.592 136.836 144.336V148.88H137.988V150ZM133.299 149.12C134.612 149.12 135.556 148.448 135.556 147.6V146.24H133.796C132.276 146.24 131.588 146.688 131.588 147.488V147.824C131.588 148.672 132.244 149.12 133.299 149.12ZM141.629 150H140.349V141.744H141.629V143.088H141.693C142.045 142.272 142.685 141.552 144.045 141.552C145.773 141.552 146.909 142.704 146.909 144.704V150H145.629V144.928C145.629 143.424 144.941 142.688 143.677 142.688C142.653 142.688 141.629 143.184 141.629 144.272V150ZM156.791 150H153.575C152.327 150 151.751 149.216 151.751 148.112V142.832H148.999V141.744H151.047C151.591 141.744 151.799 141.552 151.799 140.992V138.832H153.031V141.744H156.791V142.832H153.031V148.912H156.791V150ZM164.721 150V148.656H164.657C164.305 149.472 163.665 150.192 162.305 150.192C160.577 150.192 159.441 149.04 159.441 147.04V141.744H160.721V146.816C160.721 148.32 161.409 149.056 162.673 149.056C163.697 149.056 164.721 148.56 164.721 147.472V141.744H166.001V150H164.721ZM169.611 150H168.427V141.744H169.611V142.704H169.674C169.931 142.064 170.347 141.552 171.259 141.552C172.203 141.552 172.667 142.08 172.763 142.848H172.811C173.115 142.096 173.627 141.552 174.603 141.552C175.947 141.552 176.299 142.528 176.299 144.272V150H175.115V144.48C175.115 143.072 174.875 142.608 174.107 142.608C173.435 142.608 172.955 143.056 172.955 143.936V150H171.771V144.48C171.771 143.072 171.531 142.608 170.779 142.608C170.091 142.608 169.611 143.056 169.611 143.936V150ZM191.918 150.192C189.198 150.192 187.87 148.128 187.87 144.416C187.87 140.704 189.198 138.64 191.918 138.64C193.966 138.64 194.814 139.872 195.358 141.088L194.206 141.616C193.806 140.624 193.278 139.808 191.918 139.808C190.142 139.808 189.294 141.264 189.294 143.504V145.328C189.294 147.568 190.142 149.024 191.918 149.024C193.278 149.024 193.806 148.208 194.206 147.216L195.358 147.744C194.814 148.96 193.966 150.192 191.918 150.192ZM201.656 139.92C200.92 139.92 200.648 139.568 200.648 139.104V138.848C200.648 138.384 200.92 138.032 201.656 138.032C202.392 138.032 202.664 138.384 202.664 138.848V139.104C202.664 139.568 202.392 139.92 201.656 139.92ZM198.04 150V148.912H201.016V142.832H198.04V141.744H202.296V148.912H205.08V150H198.04ZM207.17 150V148.912H209.586V142.832H207.17V141.744H210.866V143.824H210.946C211.266 142.736 212.002 141.744 213.73 141.744H214.882V143.024H213.33C211.714 143.024 210.866 144.064 210.866 145.344V148.912H213.442V150H207.17ZM220.619 150.192C218.251 150.192 216.875 148.48 216.875 145.872C216.875 143.248 218.267 141.552 220.603 141.552C222.203 141.552 223.195 142.336 223.659 143.456L222.635 144C222.331 143.152 221.627 142.656 220.603 142.656C219.099 142.656 218.251 143.712 218.251 145.168V146.576C218.251 148.032 219.083 149.088 220.635 149.088C221.739 149.088 222.459 148.544 222.875 147.648L223.787 148.272C223.307 149.376 222.267 150.192 220.619 150.192ZM231.877 150V148.656H231.813C231.461 149.472 230.821 150.192 229.461 150.192C227.733 150.192 226.597 149.04 226.597 147.04V141.744H227.877V146.816C227.877 148.32 228.565 149.056 229.829 149.056C230.853 149.056 231.877 148.56 231.877 147.472V141.744H233.157V150H231.877ZM240.031 139.92C239.295 139.92 239.023 139.568 239.023 139.104V138.848C239.023 138.384 239.295 138.032 240.031 138.032C240.767 138.032 241.039 138.384 241.039 138.848V139.104C241.039 139.568 240.767 139.92 240.031 139.92ZM236.415 150V148.912H239.391V142.832H236.415V141.744H240.671V148.912H243.455V150H236.415ZM252.729 150H249.513C248.265 150 247.689 149.216 247.689 148.112V142.832H244.937V141.744H246.985C247.529 141.744 247.737 141.552 247.737 140.992V138.832H248.969V141.744H252.729V142.832H248.969V148.912H252.729V150ZM113.28 167.024C113.28 163.904 114.8 161.184 116.608 159.84H117.904C116.048 161.232 114.48 163.6 114.48 166.336V167.712C114.48 170.448 116.048 172.816 117.904 174.208H116.608C114.8 172.864 113.28 170.144 113.28 167.024ZM127.45 173.536V174.624H125.578C124.33 174.624 123.754 173.84 123.754 172.736V172.144C121.482 171.84 120.49 169.76 120.49 166.416C120.49 162.768 121.674 160.64 124.394 160.64C127.114 160.64 128.298 162.768 128.298 166.416C128.298 169.76 127.29 171.84 125.034 172.144V173.536H127.45ZM124.394 171.024C126.17 171.024 126.874 169.568 126.874 167.328V165.504C126.874 163.264 126.17 161.808 124.394 161.808C122.618 161.808 121.914 163.264 121.914 165.504V167.328C121.914 169.568 122.618 171.024 124.394 171.024ZM138.308 172H136.884L135.94 168.816H132.02L131.076 172H129.684L133.108 160.832H134.884L138.308 172ZM135.62 167.648L134.052 162.256H133.908L132.34 167.648H135.62ZM143.549 172.192C141.549 172.192 140.333 171.376 139.501 170.224L140.477 169.424C141.341 170.512 142.253 171.04 143.597 171.04C145.213 171.04 146.093 170.256 146.093 168.912C146.093 167.824 145.533 167.248 144.013 166.992L142.765 166.784C140.573 166.416 139.885 165.152 139.885 163.744C139.885 161.696 141.341 160.64 143.613 160.64C145.389 160.64 146.605 161.28 147.357 162.352L146.413 163.168C145.789 162.352 144.989 161.792 143.597 161.792C142.093 161.792 141.245 162.448 141.245 163.712C141.245 164.704 141.757 165.344 143.341 165.616L144.541 165.824C146.733 166.208 147.453 167.424 147.453 168.88C147.453 170.944 146.029 172.192 143.549 172.192ZM155.655 172V166.4V162.864H155.527L153.175 168.608L150.823 162.864H150.695V166.4V172H149.463V160.832H151.191L153.159 165.76H153.255L155.223 160.832H156.887V172H155.655ZM164.289 167.024C164.289 170.144 162.769 172.864 160.961 174.208H159.665C161.521 172.816 163.089 170.448 163.089 167.712V166.336C163.089 163.6 161.521 161.232 159.665 159.84H160.961C162.769 161.184 164.289 163.904 164.289 167.024Z" fill="#161616"/>
<path d="M56.2148 139.102H94.3169" stroke="#161616" stroke-width="1.5" stroke-linecap="round"/>
<path d="M74.8242 136.025V160.624" stroke="#161616" stroke-width="1.5" stroke-linecap="round"/>
<path d="M55.3281 168.824H68.6196" stroke="#161616" stroke-width="1.5" stroke-linecap="round"/>
<path d="M81.0234 168.824H94.3149" stroke="#161616" stroke-width="1.5" stroke-linecap="round"/>
<path d="M80.2733 161.65H69.3743C68.9583 161.65 68.6211 162.04 68.6211 162.522V175.129C68.6211 175.61 68.9583 176 69.3743 176H80.2733C80.6893 176 81.0265 175.61 81.0265 175.129V162.522C81.0265 162.04 80.6893 161.65 80.2733 161.65Z" stroke="#161616" stroke-width="1.5"/>
<path d="M77.8661 139.1C77.8661 141.159 76.4373 142.7 74.8217 142.7C73.2062 142.7 71.7773 141.159 71.7773 139.1C71.7773 137.041 73.2062 135.5 74.8217 135.5C76.4373 135.5 77.8661 137.041 77.8661 139.1Z" fill="white" stroke="#161616"/>
<path d="M72.6641 175.499V174.449H76.9807V175.499H72.6641Z" fill="white" stroke="#161616"/>
<rect x="319" y="115" width="302" height="80" rx="8" fill="#4D5358"/>
<rect x="319" y="115" width="302" height="80" rx="8" stroke="#BE95FF" stroke-dasharray="2.51 2.51"/>
<path d="M397.52 150V138.832H400.64C403.36 138.832 404.704 140.752 404.704 144.416C404.704 148.08 403.36 150 400.64 150H397.52ZM398.864 148.832H400.576C402.352 148.832 403.28 147.52 403.28 145.28V143.552C403.28 141.312 402.352 140 400.576 140H398.864V148.832ZM410.538 150.192C408.17 150.192 406.666 148.496 406.666 145.888C406.666 143.248 408.218 141.552 410.458 141.552C412.682 141.552 414.122 143.248 414.122 145.584V146.192H408.01V146.576C408.01 148.032 408.986 149.088 410.538 149.088C411.642 149.088 412.474 148.544 412.906 147.648L413.85 148.288C413.354 149.392 412.17 150.192 410.538 150.192ZM410.458 142.608C409.05 142.608 408.01 143.68 408.01 145.12V145.232H412.746V145.056C412.746 143.6 411.818 142.608 410.458 142.608ZM416.708 153.2V141.744H417.988V143.088H418.052C418.58 142.08 419.444 141.552 420.596 141.552C422.612 141.552 423.828 143.168 423.828 145.872C423.828 148.576 422.612 150.192 420.596 150.192C419.444 150.192 418.58 149.664 418.052 148.656H417.988V153.2H416.708ZM420.1 149.056C421.588 149.056 422.452 148.064 422.452 146.576V145.168C422.452 143.68 421.588 142.688 420.1 142.688C418.964 142.688 417.988 143.28 417.988 144.384V147.36C417.988 148.464 418.964 149.056 420.1 149.056ZM433.197 150H429.981C428.733 150 428.157 149.216 428.157 148.112V142.832H425.405V141.744H427.453C427.997 141.744 428.205 141.552 428.205 140.992V138.832H429.437V141.744H433.197V142.832H429.437V148.912H433.197V150ZM435.943 150V138.16H437.223V143.088H437.287C437.639 142.272 438.279 141.552 439.639 141.552C441.367 141.552 442.503 142.704 442.503 144.704V150H441.223V144.928C441.223 143.424 440.535 142.688 439.271 142.688C438.247 142.688 437.223 143.184 437.223 144.272V150H435.943ZM454.795 150V148.912H457.211V142.832H454.795V141.744H458.491V143.824H458.571C458.891 142.736 459.627 141.744 461.355 141.744H462.507V143.024H460.955C459.339 143.024 458.491 144.064 458.491 145.344V148.912H461.067V150H454.795ZM468.1 150.192C465.732 150.192 464.228 148.496 464.228 145.888C464.228 143.248 465.78 141.552 468.02 141.552C470.244 141.552 471.684 143.248 471.684 145.584V146.192H465.572V146.576C465.572 148.032 466.548 149.088 468.1 149.088C469.204 149.088 470.036 148.544 470.468 147.648L471.412 148.288C470.916 149.392 469.732 150.192 468.1 150.192ZM468.02 142.608C466.612 142.608 465.572 143.68 465.572 145.12V145.232H470.308V145.056C470.308 143.6 469.38 142.608 468.02 142.608ZM479.55 150V148.656H479.486C478.958 149.664 478.094 150.192 476.942 150.192C474.926 150.192 473.71 148.576 473.71 145.872C473.71 143.168 474.926 141.552 476.942 141.552C478.094 141.552 478.958 142.08 479.486 143.088H479.55V138.16H480.83V150H479.55ZM477.438 149.056C478.574 149.056 479.55 148.464 479.55 147.36V144.384C479.55 143.28 478.574 142.688 477.438 142.688C475.95 142.688 475.086 143.68 475.086 145.168V146.576C475.086 148.064 475.95 149.056 477.438 149.056ZM489.096 150V148.656H489.032C488.68 149.472 488.04 150.192 486.68 150.192C484.952 150.192 483.816 149.04 483.816 147.04V141.744H485.096V146.816C485.096 148.32 485.784 149.056 487.048 149.056C488.072 149.056 489.096 148.56 489.096 147.472V141.744H490.376V150H489.096ZM497.026 150.192C494.658 150.192 493.282 148.48 493.282 145.872C493.282 143.248 494.674 141.552 497.01 141.552C498.61 141.552 499.602 142.336 500.066 143.456L499.042 144C498.738 143.152 498.034 142.656 497.01 142.656C495.506 142.656 494.658 143.712 494.658 145.168V146.576C494.658 148.032 495.49 149.088 497.042 149.088C498.146 149.088 498.866 148.544 499.282 147.648L500.194 148.272C499.714 149.376 498.674 150.192 497.026 150.192ZM509.947 150H506.731C505.483 150 504.907 149.216 504.907 148.112V142.832H502.155V141.744H504.203C504.747 141.744 504.955 141.552 504.955 140.992V138.832H506.187V141.744H509.947V142.832H506.187V148.912H509.947V150ZM516.437 139.92C515.701 139.92 515.429 139.568 515.429 139.104V138.848C515.429 138.384 515.701 138.032 516.437 138.032C517.173 138.032 517.445 138.384 517.445 138.848V139.104C517.445 139.568 517.173 139.92 516.437 139.92ZM512.821 150V148.912H515.797V142.832H512.821V141.744H517.077V148.912H519.861V150H512.821ZM525.519 150.192C523.199 150.192 521.775 148.496 521.775 145.872C521.775 143.248 523.199 141.552 525.519 141.552C527.839 141.552 529.263 143.248 529.263 145.872C529.263 148.496 527.839 150.192 525.519 150.192ZM525.519 149.088C526.943 149.088 527.903 148.24 527.903 146.464V145.28C527.903 143.504 526.943 142.656 525.519 142.656C524.095 142.656 523.135 143.504 523.135 145.28V146.464C523.135 148.24 524.095 149.088 525.519 149.088ZM533.161 150H531.881V141.744H533.161V143.088H533.225C533.577 142.272 534.217 141.552 535.577 141.552C537.305 141.552 538.441 142.704 538.441 144.704V150H537.161V144.928C537.161 143.424 536.473 142.688 535.209 142.688C534.185 142.688 533.161 143.184 533.161 144.272V150ZM542.498 152.208H541.346L546.914 137.84H548.066L542.498 152.208ZM397.28 172V170.912H400.16V161.248H397.28V160.16H401.44V170.912H404.32V172H397.28ZM410.394 172.192C408.074 172.192 406.65 170.496 406.65 167.872C406.65 165.248 408.074 163.552 410.394 163.552C412.714 163.552 414.138 165.248 414.138 167.872C414.138 170.496 412.714 172.192 410.394 172.192ZM410.394 171.088C411.818 171.088 412.778 170.24 412.778 168.464V167.28C412.778 165.504 411.818 164.656 410.394 164.656C408.97 164.656 408.01 165.504 408.01 167.28V168.464C408.01 170.24 408.97 171.088 410.394 171.088ZM424.164 172.944C424.164 174.608 422.756 175.392 420.004 175.392C417.348 175.392 416.26 174.656 416.26 173.344C416.26 172.464 416.756 171.984 417.604 171.76V171.568C417.14 171.344 416.868 170.992 416.868 170.432C416.868 169.584 417.508 169.2 418.356 168.992V168.928C417.348 168.48 416.74 167.568 416.74 166.4C416.74 164.72 418.004 163.552 419.94 163.552C420.564 163.552 421.108 163.664 421.572 163.888V163.744C421.572 163.104 421.844 162.624 422.564 162.624H424.084V163.744H422.228V164.304C422.82 164.816 423.156 165.536 423.156 166.4C423.156 168.08 421.876 169.248 419.94 169.248C419.668 169.248 419.411 169.232 419.156 169.184C418.66 169.28 417.972 169.568 417.972 170.128C417.972 170.624 418.516 170.736 419.299 170.736H421.124C423.252 170.736 424.164 171.6 424.164 172.944ZM422.964 173.008C422.964 172.352 422.5 171.92 421.172 171.92H418.308C417.764 172.144 417.476 172.512 417.476 173.04C417.476 173.76 418.004 174.368 419.348 174.368H420.596C422.084 174.368 422.964 173.904 422.964 173.008ZM419.94 168.256C421.22 168.256 421.812 167.6 421.812 166.624V166.16C421.812 165.184 421.22 164.544 419.94 164.544C418.676 164.544 418.084 165.184 418.084 166.16V166.624C418.084 167.6 418.676 168.256 419.94 168.256ZM430.093 161.92C429.357 161.92 429.085 161.568 429.085 161.104V160.848C429.085 160.384 429.357 160.032 430.093 160.032C430.829 160.032 431.101 160.384 431.101 160.848V161.104C431.101 161.568 430.829 161.92 430.093 161.92ZM426.477 172V170.912H429.453V164.832H426.477V163.744H430.733V170.912H433.517V172H426.477ZM439.463 172.192C437.095 172.192 435.719 170.48 435.719 167.872C435.719 165.248 437.111 163.552 439.447 163.552C441.047 163.552 442.039 164.336 442.503 165.456L441.479 166C441.175 165.152 440.471 164.656 439.447 164.656C437.943 164.656 437.095 165.712 437.095 167.168V168.576C437.095 170.032 437.927 171.088 439.479 171.088C440.583 171.088 441.303 170.544 441.719 169.648L442.631 170.272C442.151 171.376 441.111 172.192 439.463 172.192ZM452.769 172H451.889C450.897 172 450.513 171.424 450.417 170.656H450.337C449.985 171.6 449.201 172.192 447.857 172.192C446.129 172.192 445.025 171.232 445.025 169.68C445.025 168.16 446.097 167.28 448.577 167.28H450.337V166.464C450.337 165.264 449.617 164.64 448.369 164.64C447.265 164.64 446.593 165.104 446.161 165.856L445.297 165.216C445.713 164.352 446.769 163.552 448.449 163.552C450.385 163.552 451.617 164.592 451.617 166.336V170.88H452.769V172ZM448.081 171.12C449.393 171.12 450.337 170.448 450.337 169.6V168.24H448.577C447.057 168.24 446.369 168.688 446.369 169.488V169.824C446.369 170.672 447.025 171.12 448.081 171.12ZM454.843 172V170.912H457.723V161.248H454.843V160.16H459.003V170.912H461.883V172H454.843ZM481.166 172H477.95C476.702 172 476.126 171.216 476.126 170.112V164.832H473.374V163.744H475.422C475.966 163.744 476.174 163.552 476.174 162.992V160.832H477.406V163.744H481.166V164.832H477.406V170.912H481.166V172ZM483.576 172V170.912H485.992V164.832H483.576V163.744H487.272V165.824H487.352C487.672 164.736 488.408 163.744 490.136 163.744H491.288V165.024H489.736C488.12 165.024 487.272 166.064 487.272 167.344V170.912H489.848V172H483.576ZM500.738 172H499.858C498.866 172 498.482 171.424 498.386 170.656H498.306C497.954 171.6 497.17 172.192 495.826 172.192C494.098 172.192 492.993 171.232 492.993 169.68C492.993 168.16 494.066 167.28 496.546 167.28H498.306V166.464C498.306 165.264 497.586 164.64 496.338 164.64C495.234 164.64 494.562 165.104 494.13 165.856L493.266 165.216C493.682 164.352 494.738 163.552 496.418 163.552C498.354 163.552 499.586 164.592 499.586 166.336V170.88H500.738V172ZM496.049 171.12C497.362 171.12 498.306 170.448 498.306 169.6V168.24H496.546C495.026 168.24 494.338 168.688 494.338 169.488V169.824C494.338 170.672 494.994 171.12 496.049 171.12ZM504.379 172H503.099V163.744H504.379V165.088H504.443C504.795 164.272 505.435 163.552 506.795 163.552C508.523 163.552 509.659 164.704 509.659 166.704V172H508.379V166.928C508.379 165.424 507.691 164.688 506.427 164.688C505.403 164.688 504.379 165.184 504.379 166.272V172ZM516.021 172.192C514.293 172.192 513.061 171.552 512.197 170.576L513.061 169.824C513.845 170.656 514.741 171.12 516.053 171.12C517.333 171.12 518.245 170.672 518.245 169.696C518.245 168.832 517.541 168.608 516.789 168.496L515.493 168.304C514.325 168.128 512.661 167.808 512.661 166.016C512.661 164.368 514.069 163.552 515.989 163.552C517.477 163.552 518.565 164.048 519.349 164.88L518.517 165.664C518.133 165.2 517.397 164.624 515.941 164.624C514.645 164.624 513.925 165.088 513.925 165.936C513.925 166.8 514.645 167.024 515.381 167.136L516.677 167.328C517.861 167.504 519.509 167.824 519.509 169.616C519.509 171.248 518.133 172.192 516.021 172.192ZM522.239 175.2V163.744H523.519V165.088H523.583C524.111 164.08 524.975 163.552 526.127 163.552C528.143 163.552 529.359 165.168 529.359 167.872C529.359 170.576 528.143 172.192 526.127 172.192C524.975 172.192 524.111 171.664 523.583 170.656H523.519V175.2H522.239ZM525.631 171.056C527.119 171.056 527.983 170.064 527.983 168.576V167.168C527.983 165.68 527.119 164.688 525.631 164.688C524.495 164.688 523.519 165.28 523.519 166.384V169.36C523.519 170.464 524.495 171.056 525.631 171.056ZM535.625 161.92C534.889 161.92 534.617 161.568 534.617 161.104V160.848C534.617 160.384 534.889 160.032 535.625 160.032C536.361 160.032 536.633 160.384 536.633 160.848V161.104C536.633 161.568 536.361 161.92 535.625 161.92ZM532.009 172V170.912H534.985V164.832H532.009V163.744H536.265V170.912H539.049V172H532.009ZM541.186 172V170.912H544.066V161.248H541.186V160.16H545.346V170.912H548.226V172H541.186ZM558.3 172H557.42C556.428 172 556.044 171.424 555.948 170.656H555.868C555.516 171.6 554.732 172.192 553.388 172.192C551.66 172.192 550.556 171.232 550.556 169.68C550.556 168.16 551.628 167.28 554.108 167.28H555.868V166.464C555.868 165.264 555.148 164.64 553.9 164.64C552.796 164.64 552.124 165.104 551.692 165.856L550.828 165.216C551.244 164.352 552.3 163.552 553.98 163.552C555.916 163.552 557.148 164.592 557.148 166.336V170.88H558.3V172ZM553.612 171.12C554.924 171.12 555.868 170.448 555.868 169.6V168.24H554.108C552.588 168.24 551.9 168.688 551.9 169.488V169.824C551.9 170.672 552.556 171.12 553.612 171.12ZM567.51 172H564.294C563.046 172 562.47 171.216 562.47 170.112V164.832H559.718V163.744H561.766C562.31 163.744 562.518 163.552 562.518 162.992V160.832H563.75V163.744H567.51V164.832H563.75V170.912H567.51V172ZM574 161.92C573.264 161.92 572.992 161.568 572.992 161.104V160.848C572.992 160.384 573.264 160.032 574 160.032C574.736 160.032 575.008 160.384 575.008 160.848V161.104C575.008 161.568 574.736 161.92 574 161.92ZM570.384 172V170.912H573.36V164.832H570.384V163.744H574.64V170.912H577.424V172H570.384ZM583.081 172.192C580.761 172.192 579.337 170.496 579.337 167.872C579.337 165.248 580.761 163.552 583.081 163.552C585.401 163.552 586.825 165.248 586.825 167.872C586.825 170.496 585.401 172.192 583.081 172.192ZM583.081 171.088C584.505 171.088 585.465 170.24 585.465 168.464V167.28C585.465 165.504 584.505 164.656 583.081 164.656C581.657 164.656 580.697 165.504 580.697 167.28V168.464C580.697 170.24 581.657 171.088 583.081 171.088ZM590.723 172H589.443V163.744H590.723V165.088H590.787C591.139 164.272 591.779 163.552 593.139 163.552C594.867 163.552 596.003 164.704 596.003 166.704V172H594.723V166.928C594.723 165.424 594.035 164.688 592.771 164.688C591.747 164.688 590.723 165.184 590.723 166.272V172Z" fill="white"/>
<path d="M342.32 172.329H376.331V155.738H342.32V138.318H376.331" stroke="#BE95FF" stroke-width="1.5" stroke-linecap="round" stroke-dasharray="3 3"/>
<path d="M345.136 172.328C345.136 173.884 343.875 175.146 342.318 175.146C340.762 175.146 339.5 173.884 339.5 172.328C339.5 170.771 340.762 169.51 342.318 169.51C343.875 169.51 345.136 170.771 345.136 172.328Z" fill="#E8DAFF" stroke="#BE95FF"/>
<path d="M379.148 172.328C379.148 173.884 377.886 175.146 376.33 175.146C374.773 175.146 373.512 173.884 373.512 172.328C373.512 170.771 374.773 169.51 376.33 169.51C377.886 169.51 379.148 170.771 379.148 172.328Z" fill="#E8DAFF" stroke="#BE95FF"/>
<path d="M379.148 155.738C379.148 157.294 377.886 158.556 376.33 158.556C374.773 158.556 373.512 157.294 373.512 155.738C373.512 154.182 374.773 152.92 376.33 152.92C377.886 152.92 379.148 154.182 379.148 155.738Z" fill="#E8DAFF" stroke="#BE95FF"/>
<path d="M345.136 155.738C345.136 157.294 343.875 158.556 342.318 158.556C340.762 158.556 339.5 157.294 339.5 155.738C339.5 154.182 340.762 152.92 342.318 152.92C343.875 152.92 345.136 154.182 345.136 155.738Z" fill="#E8DAFF" stroke="#BE95FF"/>
<path d="M345.136 138.318C345.136 139.874 343.875 141.136 342.318 141.136C340.762 141.136 339.5 139.874 339.5 138.318C339.5 136.762 340.762 135.5 342.318 135.5C343.875 135.5 345.136 136.762 345.136 138.318Z" fill="#E8DAFF" stroke="#BE95FF"/>
<path d="M379.148 138.318C379.148 139.874 377.886 141.136 376.33 141.136C374.773 141.136 373.512 139.874 373.512 138.318C373.512 136.762 374.773 135.5 376.33 135.5C377.886 135.5 379.148 136.762 379.148 138.318Z" fill="#E8DAFF" stroke="#BE95FF"/>
<rect x="40" y="221" width="16" height="16" fill="#E8DAFF"/>
<rect x="40" y="221" width="16" height="16" stroke="#8A3FFC"/>
<rect x="40" y="221" width="16" height="16" fill="#4D5358"/>
<rect x="40" y="221" width="16" height="16" stroke="#BE95FF" stroke-dasharray="2.51 2.51"/>
<rect x="661" y="115" width="256" height="80" rx="8" fill="#4D5358"/>
<rect x="661" y="115" width="256" height="80" rx="8" stroke="#BE95FF" stroke-dasharray="2.51 2.51"/>
<path d="M738.32 150H731.44V138.832H738.32V140H732.784V143.76H738.128V144.928H732.784V148.832H738.32V150ZM740.826 150V148.912H743.242V142.832H740.826V141.744H744.522V143.824H744.602C744.922 142.736 745.658 141.744 747.386 141.744H748.538V143.024H746.986C745.37 143.024 744.522 144.064 744.522 145.344V148.912H747.098V150H740.826ZM750.42 150V148.912H752.836V142.832H750.42V141.744H754.116V143.824H754.196C754.516 142.736 755.252 141.744 756.98 141.744H758.132V143.024H756.58C754.964 143.024 754.116 144.064 754.116 145.344V148.912H756.692V150H750.42ZM763.581 150.192C761.261 150.192 759.837 148.496 759.837 145.872C759.837 143.248 761.261 141.552 763.581 141.552C765.901 141.552 767.325 143.248 767.325 145.872C767.325 148.496 765.901 150.192 763.581 150.192ZM763.581 149.088C765.005 149.088 765.965 148.24 765.965 146.464V145.28C765.965 143.504 765.005 142.656 763.581 142.656C762.157 142.656 761.197 143.504 761.197 145.28V146.464C761.197 148.24 762.157 149.088 763.581 149.088ZM769.607 150V148.912H772.023V142.832H769.607V141.744H773.303V143.824H773.383C773.703 142.736 774.439 141.744 776.167 141.744H777.319V143.024H775.767C774.151 143.024 773.303 144.064 773.303 145.344V148.912H775.879V150H769.607ZM785.089 145.808H780.449V144.464H785.089V145.808ZM796.363 150H795.483C794.491 150 794.107 149.424 794.011 148.656H793.931C793.579 149.6 792.795 150.192 791.451 150.192C789.723 150.192 788.618 149.232 788.618 147.68C788.618 146.16 789.691 145.28 792.171 145.28H793.931V144.464C793.931 143.264 793.211 142.64 791.963 142.64C790.859 142.64 790.187 143.104 789.755 143.856L788.891 143.216C789.307 142.352 790.363 141.552 792.043 141.552C793.979 141.552 795.211 142.592 795.211 144.336V148.88H796.363V150ZM791.674 149.12C792.987 149.12 793.931 148.448 793.931 147.6V146.24H792.171C790.651 146.24 789.963 146.688 789.963 147.488V147.824C789.963 148.672 790.619 149.12 791.674 149.12ZM798.9 150L797.636 141.744H798.772L799.716 148.88H799.86L801.268 141.744H802.676L804.084 148.88H804.228L805.172 141.744H806.276L805.012 150H803.348L802.036 143.088H801.908L800.564 150H798.9ZM815.55 150H814.67C813.678 150 813.294 149.424 813.198 148.656H813.118C812.766 149.6 811.982 150.192 810.638 150.192C808.91 150.192 807.806 149.232 807.806 147.68C807.806 146.16 808.878 145.28 811.358 145.28H813.118V144.464C813.118 143.264 812.398 142.64 811.15 142.64C810.046 142.64 809.374 143.104 808.942 143.856L808.078 143.216C808.494 142.352 809.55 141.552 811.23 141.552C813.166 141.552 814.398 142.592 814.398 144.336V148.88H815.55V150ZM810.862 149.12C812.174 149.12 813.118 148.448 813.118 147.6V146.24H811.358C809.838 146.24 809.15 146.688 809.15 147.488V147.824C809.15 148.672 809.806 149.12 810.862 149.12ZM817.576 150V148.912H819.992V142.832H817.576V141.744H821.272V143.824H821.352C821.672 142.736 822.408 141.744 824.136 141.744H825.288V143.024H823.736C822.12 143.024 821.272 144.064 821.272 145.344V148.912H823.848V150H817.576ZM830.882 150.192C828.514 150.192 827.01 148.496 827.01 145.888C827.01 143.248 828.562 141.552 830.802 141.552C833.026 141.552 834.466 143.248 834.466 145.584V146.192H828.354V146.576C828.354 148.032 829.33 149.088 830.882 149.088C831.986 149.088 832.818 148.544 833.25 147.648L834.194 148.288C833.698 149.392 832.514 150.192 830.882 150.192ZM830.802 142.608C829.394 142.608 828.354 143.68 828.354 145.12V145.232H833.09V145.056C833.09 143.6 832.162 142.608 830.802 142.608ZM731.568 172V160.16H732.848V165.088H732.912C733.264 164.272 733.904 163.552 735.264 163.552C736.992 163.552 738.128 164.704 738.128 166.704V172H736.848V166.928C736.848 165.424 736.16 164.688 734.896 164.688C733.872 164.688 732.848 165.184 732.848 166.272V172H731.568ZM748.394 172H747.514C746.522 172 746.138 171.424 746.042 170.656H745.962C745.61 171.6 744.826 172.192 743.482 172.192C741.754 172.192 740.65 171.232 740.65 169.68C740.65 168.16 741.722 167.28 744.202 167.28H745.962V166.464C745.962 165.264 745.242 164.64 743.994 164.64C742.89 164.64 742.218 165.104 741.786 165.856L740.922 165.216C741.338 164.352 742.394 163.552 744.074 163.552C746.01 163.552 747.242 164.592 747.242 166.336V170.88H748.394V172ZM743.706 171.12C745.018 171.12 745.962 170.448 745.962 169.6V168.24H744.202C742.682 168.24 741.994 168.688 741.994 169.488V169.824C741.994 170.672 742.65 171.12 743.706 171.12ZM750.42 172V170.912H752.836V164.832H750.42V163.744H754.116V165.824H754.196C754.516 164.736 755.252 163.744 756.98 163.744H758.132V165.024H756.58C754.964 165.024 754.116 166.064 754.116 167.344V170.912H756.692V172H750.42ZM765.581 172V170.656H765.517C764.989 171.664 764.125 172.192 762.973 172.192C760.957 172.192 759.741 170.576 759.741 167.872C759.741 165.168 760.957 163.552 762.973 163.552C764.125 163.552 764.989 164.08 765.517 165.088H765.581V160.16H766.861V172H765.581ZM763.469 171.056C764.605 171.056 765.581 170.464 765.581 169.36V166.384C765.581 165.28 764.605 164.688 763.469 164.688C761.981 164.688 761.117 165.68 761.117 167.168V168.576C761.117 170.064 761.981 171.056 763.469 171.056ZM770.119 172L768.855 163.744H769.991L770.935 170.88H771.079L772.487 163.744H773.895L775.303 170.88H775.447L776.391 163.744H777.495L776.231 172H774.567L773.255 165.088H773.127L771.783 172H770.119ZM786.769 172H785.889C784.897 172 784.513 171.424 784.417 170.656H784.337C783.985 171.6 783.201 172.192 781.857 172.192C780.129 172.192 779.025 171.232 779.025 169.68C779.025 168.16 780.097 167.28 782.577 167.28H784.337V166.464C784.337 165.264 783.617 164.64 782.369 164.64C781.265 164.64 780.593 165.104 780.161 165.856L779.297 165.216C779.713 164.352 780.769 163.552 782.449 163.552C784.385 163.552 785.617 164.592 785.617 166.336V170.88H786.769V172ZM782.081 171.12C783.393 171.12 784.337 170.448 784.337 169.6V168.24H782.577C781.057 168.24 780.369 168.688 780.369 169.488V169.824C780.369 170.672 781.025 171.12 782.081 171.12ZM788.795 172V170.912H791.211V164.832H788.795V163.744H792.491V165.824H792.571C792.891 164.736 793.627 163.744 795.355 163.744H796.507V165.024H794.955C793.339 165.024 792.491 166.064 792.491 167.344V170.912H795.067V172H788.795ZM802.1 172.192C799.732 172.192 798.228 170.496 798.228 167.888C798.228 165.248 799.78 163.552 802.02 163.552C804.244 163.552 805.684 165.248 805.684 167.584V168.192H799.572V168.576C799.572 170.032 800.548 171.088 802.1 171.088C803.204 171.088 804.036 170.544 804.468 169.648L805.412 170.288C804.916 171.392 803.732 172.192 802.1 172.192ZM802.02 164.608C800.612 164.608 799.572 165.68 799.572 167.12V167.232H804.308V167.056C804.308 165.6 803.38 164.608 802.02 164.608ZM818.392 172H817.208V163.744H818.392V164.704H818.456C818.712 164.064 819.128 163.552 820.04 163.552C820.984 163.552 821.448 164.08 821.544 164.848H821.592C821.896 164.096 822.408 163.552 823.384 163.552C824.728 163.552 825.08 164.528 825.08 166.272V172H823.896V166.48C823.896 165.072 823.656 164.608 822.888 164.608C822.216 164.608 821.736 165.056 821.736 165.936V172H820.552V166.48C820.552 165.072 820.312 164.608 819.56 164.608C818.872 164.608 818.392 165.056 818.392 165.936V172ZM834.738 172H833.858C832.866 172 832.482 171.424 832.386 170.656H832.306C831.954 171.6 831.17 172.192 829.826 172.192C828.098 172.192 826.993 171.232 826.993 169.68C826.993 168.16 828.066 167.28 830.546 167.28H832.306V166.464C832.306 165.264 831.586 164.64 830.338 164.64C829.234 164.64 828.562 165.104 828.13 165.856L827.266 165.216C827.682 164.352 828.738 163.552 830.418 163.552C832.354 163.552 833.586 164.592 833.586 166.336V170.88H834.738V172ZM830.049 171.12C831.362 171.12 832.306 170.448 832.306 169.6V168.24H830.546C829.026 168.24 828.338 168.688 828.338 169.488V169.824C828.338 170.672 828.994 171.12 830.049 171.12ZM837.051 175.2V163.744H838.331V165.088H838.395C838.923 164.08 839.787 163.552 840.939 163.552C842.955 163.552 844.171 165.168 844.171 167.872C844.171 170.576 842.955 172.192 840.939 172.192C839.787 172.192 838.923 171.664 838.395 170.656H838.331V175.2H837.051ZM840.443 171.056C841.931 171.056 842.795 170.064 842.795 168.576V167.168C842.795 165.68 841.931 164.688 840.443 164.688C839.307 164.688 838.331 165.28 838.331 166.384V169.36C838.331 170.464 839.307 171.056 840.443 171.056ZM846.645 175.2V163.744H847.925V165.088H847.989C848.517 164.08 849.381 163.552 850.533 163.552C852.549 163.552 853.765 165.168 853.765 167.872C853.765 170.576 852.549 172.192 850.533 172.192C849.381 172.192 848.517 171.664 847.989 170.656H847.925V175.2H846.645ZM850.037 171.056C851.525 171.056 852.389 170.064 852.389 168.576V167.168C852.389 165.68 851.525 164.688 850.037 164.688C848.901 164.688 847.925 165.28 847.925 166.384V169.36C847.925 170.464 848.901 171.056 850.037 171.056ZM860.031 161.92C859.295 161.92 859.023 161.568 859.023 161.104V160.848C859.023 160.384 859.295 160.032 860.031 160.032C860.767 160.032 861.039 160.384 861.039 160.848V161.104C861.039 161.568 860.767 161.92 860.031 161.92ZM856.415 172V170.912H859.391V164.832H856.415V163.744H860.671V170.912H863.455V172H856.415ZM867.161 172H865.881V163.744H867.161V165.088H867.225C867.577 164.272 868.217 163.552 869.577 163.552C871.305 163.552 872.441 164.704 872.441 166.704V172H871.161V166.928C871.161 165.424 870.473 164.688 869.209 164.688C868.185 164.688 867.161 165.184 867.161 166.272V172ZM882.882 172.944C882.882 174.608 881.474 175.392 878.722 175.392C876.066 175.392 874.978 174.656 874.978 173.344C874.978 172.464 875.474 171.984 876.322 171.76V171.568C875.858 171.344 875.586 170.992 875.586 170.432C875.586 169.584 876.226 169.2 877.074 168.992V168.928C876.066 168.48 875.458 167.568 875.458 166.4C875.458 164.72 876.722 163.552 878.658 163.552C879.282 163.552 879.826 163.664 880.29 163.888V163.744C880.29 163.104 880.562 162.624 881.282 162.624H882.802V163.744H880.946V164.304C881.538 164.816 881.874 165.536 881.874 166.4C881.874 168.08 880.594 169.248 878.658 169.248C878.386 169.248 878.13 169.232 877.874 169.184C877.378 169.28 876.69 169.568 876.69 170.128C876.69 170.624 877.234 170.736 878.018 170.736H879.842C881.97 170.736 882.882 171.6 882.882 172.944ZM881.682 173.008C881.682 172.352 881.218 171.92 879.89 171.92H877.026C876.482 172.144 876.194 172.512 876.194 173.04C876.194 173.76 876.722 174.368 878.066 174.368H879.314C880.802 174.368 881.682 173.904 881.682 173.008ZM878.658 168.256C879.938 168.256 880.53 167.6 880.53 166.624V166.16C880.53 165.184 879.938 164.544 878.658 164.544C877.394 164.544 876.802 165.184 876.802 166.16V166.624C876.802 167.6 877.394 168.256 878.658 168.256Z" fill="white"/>
<path d="M705.169 146.118C705.169 149.366 702.536 151.999 699.288 151.999C696.039 151.999 693.406 149.366 693.406 146.118C693.406 142.869 696.039 140.236 699.288 140.236C702.536 140.236 705.169 142.869 705.169 146.118Z" stroke="#BE95FF" stroke-width="1.51"/>
<path d="M699.287 134H696.46L696.056 136.827L692.42 138.848L689.995 137.636L687.168 142.483L689.188 144.503V146.523" stroke="#BE95FF" stroke-width="1.51" stroke-linecap="round" stroke-linejoin="round"/>
<path d="M699.287 158.644H696.46L696.056 155.816L692.42 153.796L689.995 155.008L687.168 150.16L689.188 148.141V146.121" stroke="#BE95FF" stroke-width="1.51" stroke-linecap="round" stroke-linejoin="round"/>
<path d="M699.289 134H702.117L702.52 136.827L706.156 138.848L708.58 137.636L711.408 142.483L709.388 144.503V146.523" stroke="#BE95FF" stroke-width="1.51" stroke-linecap="round" stroke-linejoin="round"/>
<path d="M699.289 158.644H702.117L702.52 155.816L706.156 153.796L708.58 155.008L711.408 150.16L709.388 148.141V146.121" stroke="#BE95FF" stroke-width="1.51" stroke-linecap="round" stroke-linejoin="round"/>
<path d="M702.085 174.083C702.085 175.51 700.928 176.667 699.501 176.667C698.075 176.667 696.918 175.51 696.918 174.083C696.918 172.657 698.075 171.5 699.501 171.5C700.928 171.5 702.085 172.657 702.085 174.083Z" fill="#BE95FF" stroke="#BE95FF"/>
<path d="M686.667 170.23C686.667 171.657 685.51 172.813 684.083 172.813C682.657 172.813 681.5 171.657 681.5 170.23C681.5 168.803 682.657 167.646 684.083 167.646C685.51 167.646 686.667 168.803 686.667 170.23Z" fill="#BE95FF" stroke="#BE95FF"/>
<path d="M717.499 170.23C717.499 171.657 716.342 172.813 714.915 172.813C713.489 172.813 712.332 171.657 712.332 170.23C712.332 168.803 713.489 167.646 714.915 167.646C716.342 167.646 717.499 168.803 717.499 170.23Z" fill="#BE95FF" stroke="#BE95FF"/>
<path d="M699.5 160.209V172.905" stroke="#BE95FF" stroke-width="1.5" stroke-linecap="round" stroke-dasharray="3 3"/>
<path d="M691.79 157.125V169.458C691.79 169.884 691.445 170.229 691.02 170.229H684.082" stroke="#BE95FF" stroke-width="1.5" stroke-linecap="round" stroke-dasharray="3 3"/>
<path d="M706.438 157.125V169.458C706.438 169.884 706.783 170.229 707.208 170.229H714.146" stroke="#BE95FF" stroke-width="1.5" stroke-linecap="round" stroke-dasharray="3 3"/>
<rect x="957" y="115" width="266" height="80" rx="8" fill="#4D5358"/>
<rect x="957" y="115" width="266" height="80" rx="8" stroke="#BE95FF" stroke-dasharray="2.51 2.51"/>
<path d="M1044.32 150H1037.44V138.832H1044.32V140H1038.78V143.76H1044.13V144.928H1038.78V148.832H1044.32V150ZM1046.87 150V148.912H1049.75V139.248H1046.87V138.16H1051.03V148.912H1053.91V150H1046.87ZM1060.5 139.92C1059.76 139.92 1059.49 139.568 1059.49 139.104V138.848C1059.49 138.384 1059.76 138.032 1060.5 138.032C1061.24 138.032 1061.51 138.384 1061.51 138.848V139.104C1061.51 139.568 1061.24 139.92 1060.5 139.92ZM1056.88 150V148.912H1059.86V142.832H1056.88V141.744H1061.14V148.912H1063.92V150H1056.88ZM1066.83 150H1065.65V141.744H1066.83V142.704H1066.89C1067.15 142.064 1067.57 141.552 1068.48 141.552C1069.42 141.552 1069.89 142.08 1069.98 142.848H1070.03C1070.33 142.096 1070.85 141.552 1071.82 141.552C1073.17 141.552 1073.52 142.528 1073.52 144.272V150H1072.33V144.48C1072.33 143.072 1072.09 142.608 1071.33 142.608C1070.65 142.608 1070.17 143.056 1070.17 143.936V150H1068.99V144.48C1068.99 143.072 1068.75 142.608 1068 142.608C1067.31 142.608 1066.83 143.056 1066.83 143.936V150ZM1079.69 139.92C1078.95 139.92 1078.68 139.568 1078.68 139.104V138.848C1078.68 138.384 1078.95 138.032 1079.69 138.032C1080.42 138.032 1080.7 138.384 1080.7 138.848V139.104C1080.7 139.568 1080.42 139.92 1079.69 139.92ZM1076.07 150V148.912H1079.05V142.832H1076.07V141.744H1080.33V148.912H1083.11V150H1076.07ZM1086.82 150H1085.54V141.744H1086.82V143.088H1086.88C1087.23 142.272 1087.87 141.552 1089.23 141.552C1090.96 141.552 1092.1 142.704 1092.1 144.704V150H1090.82V144.928C1090.82 143.424 1090.13 142.688 1088.86 142.688C1087.84 142.688 1086.82 143.184 1086.82 144.272V150ZM1102.36 150H1101.48C1100.49 150 1100.11 149.424 1100.01 148.656H1099.93C1099.58 149.6 1098.79 150.192 1097.45 150.192C1095.72 150.192 1094.62 149.232 1094.62 147.68C1094.62 146.16 1095.69 145.28 1098.17 145.28H1099.93V144.464C1099.93 143.264 1099.21 142.64 1097.96 142.64C1096.86 142.64 1096.19 143.104 1095.75 143.856L1094.89 143.216C1095.31 142.352 1096.36 141.552 1098.04 141.552C1099.98 141.552 1101.21 142.592 1101.21 144.336V148.88H1102.36V150ZM1097.67 149.12C1098.99 149.12 1099.93 148.448 1099.93 147.6V146.24H1098.17C1096.65 146.24 1095.96 146.688 1095.96 147.488V147.824C1095.96 148.672 1096.62 149.12 1097.67 149.12ZM1111.57 150H1108.36C1107.11 150 1106.53 149.216 1106.53 148.112V142.832H1103.78V141.744H1105.83C1106.37 141.744 1106.58 141.552 1106.58 140.992V138.832H1107.81V141.744H1111.57V142.832H1107.81V148.912H1111.57V150ZM1117.69 150.192C1115.33 150.192 1113.82 148.496 1113.82 145.888C1113.82 143.248 1115.37 141.552 1117.61 141.552C1119.84 141.552 1121.28 143.248 1121.28 145.584V146.192H1115.17V146.576C1115.17 148.032 1116.14 149.088 1117.69 149.088C1118.8 149.088 1119.63 148.544 1120.06 147.648L1121.01 148.288C1120.51 149.392 1119.33 150.192 1117.69 150.192ZM1117.61 142.608C1116.21 142.608 1115.17 143.68 1115.17 145.12V145.232H1119.9V145.056C1119.9 143.6 1118.97 142.608 1117.61 142.608ZM1137.03 150.192C1134.66 150.192 1133.28 148.48 1133.28 145.872C1133.28 143.248 1134.67 141.552 1137.01 141.552C1138.61 141.552 1139.6 142.336 1140.07 143.456L1139.04 144C1138.74 143.152 1138.03 142.656 1137.01 142.656C1135.51 142.656 1134.66 143.712 1134.66 145.168V146.576C1134.66 148.032 1135.49 149.088 1137.04 149.088C1138.15 149.088 1138.87 148.544 1139.28 147.648L1140.19 148.272C1139.71 149.376 1138.67 150.192 1137.03 150.192ZM1146.84 139.92C1146.11 139.92 1145.84 139.568 1145.84 139.104V138.848C1145.84 138.384 1146.11 138.032 1146.84 138.032C1147.58 138.032 1147.85 138.384 1147.85 138.848V139.104C1147.85 139.568 1147.58 139.92 1146.84 139.92ZM1143.23 150V148.912H1146.2V142.832H1143.23V141.744H1147.48V148.912H1150.27V150H1143.23ZM1152.36 150V148.912H1154.77V142.832H1152.36V141.744H1156.05V143.824H1156.13C1156.45 142.736 1157.19 141.744 1158.92 141.744H1160.07V143.024H1158.52C1156.9 143.024 1156.05 144.064 1156.05 145.344V148.912H1158.63V150H1152.36ZM1165.81 150.192C1163.44 150.192 1162.06 148.48 1162.06 145.872C1162.06 143.248 1163.45 141.552 1165.79 141.552C1167.39 141.552 1168.38 142.336 1168.85 143.456L1167.82 144C1167.52 143.152 1166.81 142.656 1165.79 142.656C1164.29 142.656 1163.44 143.712 1163.44 145.168V146.576C1163.44 148.032 1164.27 149.088 1165.82 149.088C1166.93 149.088 1167.65 148.544 1168.06 147.648L1168.97 148.272C1168.49 149.376 1167.45 150.192 1165.81 150.192ZM1177.06 150V148.656H1177C1176.65 149.472 1176.01 150.192 1174.65 150.192C1172.92 150.192 1171.78 149.04 1171.78 147.04V141.744H1173.06V146.816C1173.06 148.32 1173.75 149.056 1175.02 149.056C1176.04 149.056 1177.06 148.56 1177.06 147.472V141.744H1178.34V150H1177.06ZM1185.22 139.92C1184.48 139.92 1184.21 139.568 1184.21 139.104V138.848C1184.21 138.384 1184.48 138.032 1185.22 138.032C1185.95 138.032 1186.23 138.384 1186.23 138.848V139.104C1186.23 139.568 1185.95 139.92 1185.22 139.92ZM1181.6 150V148.912H1184.58V142.832H1181.6V141.744H1185.86V148.912H1188.64V150H1181.6ZM1197.92 150H1194.7C1193.45 150 1192.88 149.216 1192.88 148.112V142.832H1190.12V141.744H1192.17C1192.72 141.744 1192.92 141.552 1192.92 140.992V138.832H1194.16V141.744H1197.92V142.832H1194.16V148.912H1197.92V150ZM1041.09 172.192C1038.72 172.192 1037.34 170.48 1037.34 167.872C1037.34 165.248 1038.74 163.552 1041.07 163.552C1042.67 163.552 1043.66 164.336 1044.13 165.456L1043.1 166C1042.8 165.152 1042.1 164.656 1041.07 164.656C1039.57 164.656 1038.72 165.712 1038.72 167.168V168.576C1038.72 170.032 1039.55 171.088 1041.1 171.088C1042.21 171.088 1042.93 170.544 1043.34 169.648L1044.26 170.272C1043.78 171.376 1042.74 172.192 1041.09 172.192ZM1046.83 172V170.912H1049.24V164.832H1046.83V163.744H1050.52V165.824H1050.6C1050.92 164.736 1051.66 163.744 1053.39 163.744H1054.54V165.024H1052.99C1051.37 165.024 1050.52 166.064 1050.52 167.344V170.912H1053.1V172H1046.83ZM1059.99 172.192C1057.67 172.192 1056.24 170.496 1056.24 167.872C1056.24 165.248 1057.67 163.552 1059.99 163.552C1062.31 163.552 1063.73 165.248 1063.73 167.872C1063.73 170.496 1062.31 172.192 1059.99 172.192ZM1059.99 171.088C1061.41 171.088 1062.37 170.24 1062.37 168.464V167.28C1062.37 165.504 1061.41 164.656 1059.99 164.656C1058.56 164.656 1057.6 165.504 1057.6 167.28V168.464C1057.6 170.24 1058.56 171.088 1059.99 171.088ZM1069.68 172.192C1067.95 172.192 1066.72 171.552 1065.85 170.576L1066.72 169.824C1067.5 170.656 1068.4 171.12 1069.71 171.12C1070.99 171.12 1071.9 170.672 1071.9 169.696C1071.9 168.832 1071.2 168.608 1070.45 168.496L1069.15 168.304C1067.98 168.128 1066.32 167.808 1066.32 166.016C1066.32 164.368 1067.73 163.552 1069.65 163.552C1071.13 163.552 1072.22 164.048 1073.01 164.88L1072.17 165.664C1071.79 165.2 1071.05 164.624 1069.6 164.624C1068.3 164.624 1067.58 165.088 1067.58 165.936C1067.58 166.8 1068.3 167.024 1069.04 167.136L1070.33 167.328C1071.52 167.504 1073.17 167.824 1073.17 169.616C1073.17 171.248 1071.79 172.192 1069.68 172.192ZM1079.27 172.192C1077.54 172.192 1076.31 171.552 1075.45 170.576L1076.31 169.824C1077.1 170.656 1077.99 171.12 1079.3 171.12C1080.58 171.12 1081.5 170.672 1081.5 169.696C1081.5 168.832 1080.79 168.608 1080.04 168.496L1078.74 168.304C1077.58 168.128 1075.91 167.808 1075.91 166.016C1075.91 164.368 1077.32 163.552 1079.24 163.552C1080.73 163.552 1081.82 164.048 1082.6 164.88L1081.77 165.664C1081.38 165.2 1080.65 164.624 1079.19 164.624C1077.9 164.624 1077.18 165.088 1077.18 165.936C1077.18 166.8 1077.9 167.024 1078.63 167.136L1079.93 167.328C1081.11 167.504 1082.76 167.824 1082.76 169.616C1082.76 171.248 1081.38 172.192 1079.27 172.192ZM1092.38 172H1089.17C1087.92 172 1087.34 171.216 1087.34 170.112V164.832H1084.59V163.744H1086.64C1087.18 163.744 1087.39 163.552 1087.39 162.992V160.832H1088.62V163.744H1092.38V164.832H1088.62V170.912H1092.38V172ZM1102.36 172H1101.48C1100.49 172 1100.11 171.424 1100.01 170.656H1099.93C1099.58 171.6 1098.79 172.192 1097.45 172.192C1095.72 172.192 1094.62 171.232 1094.62 169.68C1094.62 168.16 1095.69 167.28 1098.17 167.28H1099.93V166.464C1099.93 165.264 1099.21 164.64 1097.96 164.64C1096.86 164.64 1096.19 165.104 1095.75 165.856L1094.89 165.216C1095.31 164.352 1096.36 163.552 1098.04 163.552C1099.98 163.552 1101.21 164.592 1101.21 166.336V170.88H1102.36V172ZM1097.67 171.12C1098.99 171.12 1099.93 170.448 1099.93 169.6V168.24H1098.17C1096.65 168.24 1095.96 168.688 1095.96 169.488V169.824C1095.96 170.672 1096.62 171.12 1097.67 171.12ZM1104.44 172V170.912H1107.32V161.248H1104.44V160.16H1108.6V170.912H1111.48V172H1104.44ZM1114.43 172V160.16H1115.71V167.632H1115.77L1117.21 166.272L1119.97 163.744H1121.53L1118.11 166.976L1121.93 172H1120.35L1117.13 167.712L1115.71 169.008V172H1114.43Z" fill="white"/>
<path d="M990.463 134H977.87C977.39 134 977 134.39 977 134.87V147.463C977 147.944 977.39 148.333 977.87 148.333H990.463C990.944 148.333 991.333 147.944 991.333 147.463V134.87C991.333 134.39 990.944 134 990.463 134Z" stroke="#BE95FF" stroke-width="1.5"/>
<path d="M981.598 147.833V146.785H986.74V147.833H981.598Z" fill="#BE95FF" stroke="#BE95FF"/>
<path d="M1010.26 175.477V174.43H1015.4V175.477H1010.26Z" fill="#BE95FF" stroke="#BE95FF"/>
<path d="M1019.13 161.643H1006.54C1006.06 161.643 1005.67 162.032 1005.67 162.513V175.106C1005.67 175.586 1006.06 175.976 1006.54 175.976H1019.13C1019.61 175.976 1020 175.586 1020 175.106V162.513C1020 162.032 1019.61 161.643 1019.13 161.643Z" stroke="#BE95FF" stroke-width="1.5"/>
<path d="M984.164 154.477V167.94C984.164 168.42 984.554 168.81 985.034 168.81H998.498" stroke="#BE95FF" stroke-width="1.5" stroke-linecap="round" stroke-dasharray="3 3"/>
<path d="M1012.83 155.5V142.036C1012.83 141.556 1012.44 141.166 1011.96 141.166H998.5" stroke="#BE95FF" stroke-width="1.5" stroke-linecap="round" stroke-dasharray="3 3"/>
<rect x="1263" y="115" width="247" height="80" rx="8" fill="#4D5358"/>
<rect x="1263" y="115" width="247" height="80" rx="8" stroke="#BE95FF" stroke-dasharray="2.51 2.51"/>
<path d="M1344.8 150.192C1342.08 150.192 1340.9 148.064 1340.9 144.416C1340.9 140.768 1342.08 138.64 1344.8 138.64C1347.52 138.64 1348.7 140.768 1348.7 144.416C1348.7 148.064 1347.52 150.192 1344.8 150.192ZM1344.8 149.024C1346.58 149.024 1347.28 147.568 1347.28 145.328V143.504C1347.28 141.264 1346.58 139.808 1344.8 139.808C1343.02 139.808 1342.32 141.264 1342.32 143.504V145.328C1342.32 147.568 1343.02 149.024 1344.8 149.024ZM1351.11 153.2V141.744H1352.39V143.088H1352.46C1352.99 142.08 1353.85 141.552 1355 141.552C1357.02 141.552 1358.23 143.168 1358.23 145.872C1358.23 148.576 1357.02 150.192 1355 150.192C1353.85 150.192 1352.99 149.664 1352.46 148.656H1352.39V153.2H1351.11ZM1354.51 149.056C1355.99 149.056 1356.86 148.064 1356.86 146.576V145.168C1356.86 143.68 1355.99 142.688 1354.51 142.688C1353.37 142.688 1352.39 143.28 1352.39 144.384V147.36C1352.39 148.464 1353.37 149.056 1354.51 149.056ZM1367.6 150H1364.39C1363.14 150 1362.56 149.216 1362.56 148.112V142.832H1359.81V141.744H1361.86C1362.4 141.744 1362.61 141.552 1362.61 140.992V138.832H1363.84V141.744H1367.6V142.832H1363.84V148.912H1367.6V150ZM1374.09 139.92C1373.36 139.92 1373.09 139.568 1373.09 139.104V138.848C1373.09 138.384 1373.36 138.032 1374.09 138.032C1374.83 138.032 1375.1 138.384 1375.1 138.848V139.104C1375.1 139.568 1374.83 139.92 1374.09 139.92ZM1370.48 150V148.912H1373.45V142.832H1370.48V141.744H1374.73V148.912H1377.52V150H1370.48ZM1380.42 150H1379.24V141.744H1380.42V142.704H1380.49C1380.74 142.064 1381.16 141.552 1382.07 141.552C1383.02 141.552 1383.48 142.08 1383.58 142.848H1383.62C1383.93 142.096 1384.44 141.552 1385.42 141.552C1386.76 141.552 1387.11 142.528 1387.11 144.272V150H1385.93V144.48C1385.93 143.072 1385.69 142.608 1384.92 142.608C1384.25 142.608 1383.77 143.056 1383.77 143.936V150H1382.58V144.48C1382.58 143.072 1382.34 142.608 1381.59 142.608C1380.9 142.608 1380.42 143.056 1380.42 143.936V150ZM1393.28 139.92C1392.54 139.92 1392.27 139.568 1392.27 139.104V138.848C1392.27 138.384 1392.54 138.032 1393.28 138.032C1394.02 138.032 1394.29 138.384 1394.29 138.848V139.104C1394.29 139.568 1394.02 139.92 1393.28 139.92ZM1389.66 150V148.912H1392.64V142.832H1389.66V141.744H1393.92V148.912H1396.7V150H1389.66ZM1405.8 150H1398.92V148.768L1404.25 142.832H1399.1V141.744H1405.64V142.976L1400.31 148.912H1405.8V150ZM1412.1 150.192C1409.73 150.192 1408.23 148.496 1408.23 145.888C1408.23 143.248 1409.78 141.552 1412.02 141.552C1414.24 141.552 1415.68 143.248 1415.68 145.584V146.192H1409.57V146.576C1409.57 148.032 1410.55 149.088 1412.1 149.088C1413.2 149.088 1414.04 148.544 1414.47 147.648L1415.41 148.288C1414.92 149.392 1413.73 150.192 1412.1 150.192ZM1412.02 142.608C1410.61 142.608 1409.57 143.68 1409.57 145.12V145.232H1414.31V145.056C1414.31 143.6 1413.38 142.608 1412.02 142.608ZM1423.55 150V148.656H1423.49C1422.96 149.664 1422.09 150.192 1420.94 150.192C1418.93 150.192 1417.71 148.576 1417.71 145.872C1417.71 143.168 1418.93 141.552 1420.94 141.552C1422.09 141.552 1422.96 142.08 1423.49 143.088H1423.55V138.16H1424.83V150H1423.55ZM1421.44 149.056C1422.57 149.056 1423.55 148.464 1423.55 147.36V144.384C1423.55 143.28 1422.57 142.688 1421.44 142.688C1419.95 142.688 1419.09 143.68 1419.09 145.168V146.576C1419.09 148.064 1419.95 149.056 1421.44 149.056ZM1444.91 150.944C1444.91 152.608 1443.51 153.392 1440.75 153.392C1438.1 153.392 1437.01 152.656 1437.01 151.344C1437.01 150.464 1437.51 149.984 1438.35 149.76V149.568C1437.89 149.344 1437.62 148.992 1437.62 148.432C1437.62 147.584 1438.26 147.2 1439.11 146.992V146.928C1438.1 146.48 1437.49 145.568 1437.49 144.4C1437.49 142.72 1438.75 141.552 1440.69 141.552C1441.31 141.552 1441.86 141.664 1442.32 141.888V141.744C1442.32 141.104 1442.59 140.624 1443.31 140.624H1444.83V141.744H1442.98V142.304C1443.57 142.816 1443.91 143.536 1443.91 144.4C1443.91 146.08 1442.63 147.248 1440.69 147.248C1440.42 147.248 1440.16 147.232 1439.91 147.184C1439.41 147.28 1438.72 147.568 1438.72 148.128C1438.72 148.624 1439.27 148.736 1440.05 148.736H1441.87C1444 148.736 1444.91 149.6 1444.91 150.944ZM1443.71 151.008C1443.71 150.352 1443.25 149.92 1441.92 149.92H1439.06C1438.51 150.144 1438.23 150.512 1438.23 151.04C1438.23 151.76 1438.75 152.368 1440.1 152.368H1441.35C1442.83 152.368 1443.71 151.904 1443.71 151.008ZM1440.69 146.256C1441.97 146.256 1442.56 145.6 1442.56 144.624V144.16C1442.56 143.184 1441.97 142.544 1440.69 142.544C1439.43 142.544 1438.83 143.184 1438.83 144.16V144.624C1438.83 145.6 1439.43 146.256 1440.69 146.256ZM1454.33 150H1453.45C1452.46 150 1452.08 149.424 1451.98 148.656H1451.9C1451.55 149.6 1450.76 150.192 1449.42 150.192C1447.69 150.192 1446.59 149.232 1446.59 147.68C1446.59 146.16 1447.66 145.28 1450.14 145.28H1451.9V144.464C1451.9 143.264 1451.18 142.64 1449.93 142.64C1448.83 142.64 1448.16 143.104 1447.72 143.856L1446.86 143.216C1447.28 142.352 1448.33 141.552 1450.01 141.552C1451.95 141.552 1453.18 142.592 1453.18 144.336V148.88H1454.33V150ZM1449.64 149.12C1450.96 149.12 1451.9 148.448 1451.9 147.6V146.24H1450.14C1448.62 146.24 1447.93 146.688 1447.93 147.488V147.824C1447.93 148.672 1448.59 149.12 1449.64 149.12ZM1463.54 150H1460.33C1459.08 150 1458.5 149.216 1458.5 148.112V142.832H1455.75V141.744H1457.8C1458.34 141.744 1458.55 141.552 1458.55 140.992V138.832H1459.78V141.744H1463.54V142.832H1459.78V148.912H1463.54V150ZM1469.66 150.192C1467.29 150.192 1465.79 148.496 1465.79 145.888C1465.79 143.248 1467.34 141.552 1469.58 141.552C1471.81 141.552 1473.25 143.248 1473.25 145.584V146.192H1467.13V146.576C1467.13 148.032 1468.11 149.088 1469.66 149.088C1470.77 149.088 1471.6 148.544 1472.03 147.648L1472.97 148.288C1472.48 149.392 1471.29 150.192 1469.66 150.192ZM1469.58 142.608C1468.17 142.608 1467.13 143.68 1467.13 145.12V145.232H1471.87V145.056C1471.87 143.6 1470.94 142.608 1469.58 142.608ZM1341.23 172V170.912H1343.65V164.832H1341.23V163.744H1344.93V165.824H1345.01C1345.33 164.736 1346.06 163.744 1347.79 163.744H1348.94V165.024H1347.39C1345.78 165.024 1344.93 166.064 1344.93 167.344V170.912H1347.5V172H1341.23ZM1354.54 172.192C1352.17 172.192 1350.67 170.496 1350.67 167.888C1350.67 165.248 1352.22 163.552 1354.46 163.552C1356.68 163.552 1358.12 165.248 1358.12 167.584V168.192H1352.01V168.576C1352.01 170.032 1352.99 171.088 1354.54 171.088C1355.64 171.088 1356.47 170.544 1356.91 169.648L1357.85 170.288C1357.35 171.392 1356.17 172.192 1354.54 172.192ZM1354.46 164.608C1353.05 164.608 1352.01 165.68 1352.01 167.12V167.232H1356.75V167.056C1356.75 165.6 1355.82 164.608 1354.46 164.608ZM1360.71 175.2V163.744H1361.99V165.088H1362.05C1362.58 164.08 1363.44 163.552 1364.6 163.552C1366.61 163.552 1367.83 165.168 1367.83 167.872C1367.83 170.576 1366.61 172.192 1364.6 172.192C1363.44 172.192 1362.58 171.664 1362.05 170.656H1361.99V175.2H1360.71ZM1364.1 171.056C1365.59 171.056 1366.45 170.064 1366.45 168.576V167.168C1366.45 165.68 1365.59 164.688 1364.1 164.688C1362.96 164.688 1361.99 165.28 1361.99 166.384V169.36C1361.99 170.464 1362.96 171.056 1364.1 171.056ZM1370.06 172V170.912H1372.94V161.248H1370.06V160.16H1374.22V170.912H1377.1V172H1370.06ZM1387.18 172H1386.3C1385.3 172 1384.92 171.424 1384.82 170.656H1384.74C1384.39 171.6 1383.61 172.192 1382.26 172.192C1380.54 172.192 1379.43 171.232 1379.43 169.68C1379.43 168.16 1380.5 167.28 1382.98 167.28H1384.74V166.464C1384.74 165.264 1384.02 164.64 1382.78 164.64C1381.67 164.64 1381 165.104 1380.57 165.856L1379.7 165.216C1380.12 164.352 1381.18 163.552 1382.86 163.552C1384.79 163.552 1386.02 164.592 1386.02 166.336V170.88H1387.18V172ZM1382.49 171.12C1383.8 171.12 1384.74 170.448 1384.74 169.6V168.24H1382.98C1381.46 168.24 1380.78 168.688 1380.78 169.488V169.824C1380.78 170.672 1381.43 171.12 1382.49 171.12ZM1393.06 172.192C1390.69 172.192 1389.31 170.48 1389.31 167.872C1389.31 165.248 1390.7 163.552 1393.04 163.552C1394.64 163.552 1395.63 164.336 1396.1 165.456L1395.07 166C1394.77 165.152 1394.06 164.656 1393.04 164.656C1391.54 164.656 1390.69 165.712 1390.69 167.168V168.576C1390.69 170.032 1391.52 171.088 1393.07 171.088C1394.18 171.088 1394.9 170.544 1395.31 169.648L1396.22 170.272C1395.74 171.376 1394.7 172.192 1393.06 172.192ZM1402.51 172.192C1400.14 172.192 1398.63 170.496 1398.63 167.888C1398.63 165.248 1400.19 163.552 1402.43 163.552C1404.65 163.552 1406.09 165.248 1406.09 167.584V168.192H1399.98V168.576C1399.98 170.032 1400.95 171.088 1402.51 171.088C1403.61 171.088 1404.44 170.544 1404.87 169.648L1405.82 170.288C1405.32 171.392 1404.14 172.192 1402.51 172.192ZM1402.43 164.608C1401.02 164.608 1399.98 165.68 1399.98 167.12V167.232H1404.71V167.056C1404.71 165.6 1403.79 164.608 1402.43 164.608ZM1409.2 172H1408.02V163.744H1409.2V164.704H1409.27C1409.52 164.064 1409.94 163.552 1410.85 163.552C1411.8 163.552 1412.26 164.08 1412.36 164.848H1412.4C1412.71 164.096 1413.22 163.552 1414.2 163.552C1415.54 163.552 1415.89 164.528 1415.89 166.272V172H1414.71V166.48C1414.71 165.072 1414.47 164.608 1413.7 164.608C1413.03 164.608 1412.55 165.056 1412.55 165.936V172H1411.36V166.48C1411.36 165.072 1411.12 164.608 1410.37 164.608C1409.68 164.608 1409.2 165.056 1409.2 165.936V172ZM1421.69 172.192C1419.33 172.192 1417.82 170.496 1417.82 167.888C1417.82 165.248 1419.37 163.552 1421.61 163.552C1423.84 163.552 1425.28 165.248 1425.28 167.584V168.192H1419.17V168.576C1419.17 170.032 1420.14 171.088 1421.69 171.088C1422.8 171.088 1423.63 170.544 1424.06 169.648L1425.01 170.288C1424.51 171.392 1423.33 172.192 1421.69 172.192ZM1421.61 164.608C1420.21 164.608 1419.17 165.68 1419.17 167.12V167.232H1423.9V167.056C1423.9 165.6 1422.97 164.608 1421.61 164.608ZM1429.19 172H1427.91V163.744H1429.19V165.088H1429.26C1429.61 164.272 1430.25 163.552 1431.61 163.552C1433.34 163.552 1434.47 164.704 1434.47 166.704V172H1433.19V166.928C1433.19 165.424 1432.5 164.688 1431.24 164.688C1430.22 164.688 1429.19 165.184 1429.19 166.272V172ZM1444.35 172H1441.14C1439.89 172 1439.31 171.216 1439.31 170.112V164.832H1436.56V163.744H1438.61C1439.15 163.744 1439.36 163.552 1439.36 162.992V160.832H1440.59V163.744H1444.35V164.832H1440.59V170.912H1444.35V172Z" fill="white"/>
<path d="M1308.96 155.077C1308.96 158.321 1306.33 160.952 1303.08 160.952C1299.84 160.952 1297.21 158.321 1297.21 155.077C1297.21 151.832 1299.84 149.201 1303.08 149.201C1306.33 149.201 1308.96 151.832 1308.96 155.077Z" stroke="#BE95FF" stroke-width="1.51"/>
<path d="M1303.09 142.971H1300.26L1299.86 145.795L1296.23 147.812L1293.8 146.602L1290.98 151.444L1293 153.461V155.48" stroke="#BE95FF" stroke-width="1.51" stroke-linecap="round" stroke-linejoin="round"/>
<path d="M1303.09 167.585H1300.26L1299.86 164.761L1296.23 162.743L1293.8 163.954L1290.98 159.112L1293 157.094V155.076" stroke="#BE95FF" stroke-width="1.51" stroke-linecap="round" stroke-linejoin="round"/>
<path d="M1303.08 142.971H1305.91L1306.31 145.795L1309.94 147.812L1312.36 146.602L1315.19 151.444L1313.17 153.461V155.48" stroke="#BE95FF" stroke-width="1.51" stroke-linecap="round" stroke-linejoin="round"/>
<path d="M1303.08 167.585H1305.91L1306.31 164.761L1309.94 162.743L1312.36 163.954L1315.19 159.112L1313.17 157.094V155.076" stroke="#BE95FF" stroke-width="1.51" stroke-linecap="round" stroke-linejoin="round"/>
<path d="M1322.5 154.546C1322.29 146.197 1316.82 139.156 1309.27 136.623L1309.29 136.467C1316.91 139.012 1322.45 146.118 1322.66 154.546H1322.5ZM1308.64 133.792L1308.45 135.171L1308.04 135.057L1307.9 135.539L1307.6 136.653L1307.47 137.136L1307.95 137.267C1308.02 137.287 1308.09 137.307 1308.17 137.327L1307.98 138.685L1304.07 135.673L1308.64 133.792Z" fill="#BE95FF" stroke="#BE95FF"/>
<path d="M1283.66 155.544C1283.87 163.894 1289.35 170.934 1296.9 173.468L1296.88 173.624C1289.25 171.078 1283.72 163.972 1283.51 155.544H1283.66ZM1297.53 176.298L1297.71 174.92L1298.13 175.034L1298.26 174.551L1298.56 173.437L1298.7 172.955L1298.21 172.823C1298.14 172.804 1298.07 172.784 1298 172.763L1298.18 171.406L1302.09 174.418L1297.53 176.298Z" fill="#BE95FF" stroke="#BE95FF"/>
<rect x="1551" y="115" width="246" height="80" rx="8" fill="white"/>
<rect x="1551" y="115" width="246" height="80" rx="8" stroke="#343A3F"/>
<path d="M1632.78 145.232V150H1631.44V138.832H1635.5C1637.57 138.832 1638.69 140.032 1638.69 142.048C1638.69 143.84 1637.71 144.992 1635.94 145.168L1638.78 150H1637.28L1634.56 145.232H1632.78ZM1632.78 144.096H1635.47C1636.59 144.096 1637.26 143.504 1637.26 142.464V141.632C1637.26 140.592 1636.59 140 1635.47 140H1632.78V144.096ZM1646.35 150V148.656H1646.28C1645.93 149.472 1645.29 150.192 1643.93 150.192C1642.2 150.192 1641.07 149.04 1641.07 147.04V141.744H1642.35V146.816C1642.35 148.32 1643.03 149.056 1644.3 149.056C1645.32 149.056 1646.35 148.56 1646.35 147.472V141.744H1647.63V150H1646.35ZM1652.04 150H1650.76V141.744H1652.04V143.088H1652.1C1652.45 142.272 1653.09 141.552 1654.45 141.552C1656.18 141.552 1657.32 142.704 1657.32 144.704V150H1656.04V144.928C1656.04 143.424 1655.35 142.688 1654.08 142.688C1653.06 142.688 1652.04 143.184 1652.04 144.272V150ZM1673.32 150.192C1670.95 150.192 1669.45 148.496 1669.45 145.888C1669.45 143.248 1671 141.552 1673.24 141.552C1675.46 141.552 1676.9 143.248 1676.9 145.584V146.192H1670.79V146.576C1670.79 148.032 1671.77 149.088 1673.32 149.088C1674.42 149.088 1675.26 148.544 1675.69 147.648L1676.63 148.288C1676.14 149.392 1674.95 150.192 1673.32 150.192ZM1673.24 142.608C1671.83 142.608 1670.79 143.68 1670.79 145.12V145.232H1675.53V145.056C1675.53 143.6 1674.6 142.608 1673.24 142.608ZM1680.42 150H1678.94L1682.02 145.808L1679.02 141.744H1680.56L1681.81 143.488L1682.8 144.864H1682.86L1683.82 143.488L1685.06 141.744H1686.53L1683.5 145.792L1686.61 150H1685.07L1683.68 148.064L1682.74 146.752H1682.67L1681.76 148.064L1680.42 150ZM1689.08 153.2V141.744H1690.36V143.088H1690.43C1690.95 142.08 1691.82 141.552 1692.97 141.552C1694.99 141.552 1696.2 143.168 1696.2 145.872C1696.2 148.576 1694.99 150.192 1692.97 150.192C1691.82 150.192 1690.95 149.664 1690.43 148.656H1690.36V153.2H1689.08ZM1692.47 149.056C1693.96 149.056 1694.83 148.064 1694.83 146.576V145.168C1694.83 143.68 1693.96 142.688 1692.47 142.688C1691.34 142.688 1690.36 143.28 1690.36 144.384V147.36C1690.36 148.464 1691.34 149.056 1692.47 149.056ZM1702.1 150.192C1699.73 150.192 1698.23 148.496 1698.23 145.888C1698.23 143.248 1699.78 141.552 1702.02 141.552C1704.24 141.552 1705.68 143.248 1705.68 145.584V146.192H1699.57V146.576C1699.57 148.032 1700.55 149.088 1702.1 149.088C1703.2 149.088 1704.04 148.544 1704.47 147.648L1705.41 148.288C1704.92 149.392 1703.73 150.192 1702.1 150.192ZM1702.02 142.608C1700.61 142.608 1699.57 143.68 1699.57 145.12V145.232H1704.31V145.056C1704.31 143.6 1703.38 142.608 1702.02 142.608ZM1707.98 150V148.912H1710.4V142.832H1707.98V141.744H1711.68V143.824H1711.76C1712.08 142.736 1712.81 141.744 1714.54 141.744H1715.69V143.024H1714.14C1712.53 143.024 1711.68 144.064 1711.68 145.344V148.912H1714.25V150H1707.98ZM1721.66 139.92C1720.92 139.92 1720.65 139.568 1720.65 139.104V138.848C1720.65 138.384 1720.92 138.032 1721.66 138.032C1722.39 138.032 1722.66 138.384 1722.66 138.848V139.104C1722.66 139.568 1722.39 139.92 1721.66 139.92ZM1718.04 150V148.912H1721.02V142.832H1718.04V141.744H1722.3V148.912H1725.08V150H1718.04ZM1727.99 150H1726.8V141.744H1727.99V142.704H1728.05C1728.31 142.064 1728.72 141.552 1729.63 141.552C1730.58 141.552 1731.04 142.08 1731.14 142.848H1731.19C1731.49 142.096 1732 141.552 1732.98 141.552C1734.32 141.552 1734.67 142.528 1734.67 144.272V150H1733.49V144.48C1733.49 143.072 1733.25 142.608 1732.48 142.608C1731.81 142.608 1731.33 143.056 1731.33 143.936V150H1730.15V144.48C1730.15 143.072 1729.91 142.608 1729.15 142.608C1728.47 142.608 1727.99 143.056 1727.99 143.936V150ZM1740.48 150.192C1738.11 150.192 1736.6 148.496 1736.6 145.888C1736.6 143.248 1738.16 141.552 1740.4 141.552C1742.62 141.552 1744.06 143.248 1744.06 145.584V146.192H1737.95V146.576C1737.95 148.032 1738.92 149.088 1740.48 149.088C1741.58 149.088 1742.41 148.544 1742.84 147.648L1743.79 148.288C1743.29 149.392 1742.11 150.192 1740.48 150.192ZM1740.4 142.608C1738.99 142.608 1737.95 143.68 1737.95 145.12V145.232H1742.68V145.056C1742.68 143.6 1741.76 142.608 1740.4 142.608ZM1747.97 150H1746.69V141.744H1747.97V143.088H1748.04C1748.39 142.272 1749.03 141.552 1750.39 141.552C1752.12 141.552 1753.25 142.704 1753.25 144.704V150H1751.97V144.928C1751.97 143.424 1751.29 142.688 1750.02 142.688C1749 142.688 1747.97 143.184 1747.97 144.272V150ZM1763.13 150H1759.92C1758.67 150 1758.09 149.216 1758.09 148.112V142.832H1755.34V141.744H1757.39C1757.93 141.744 1758.14 141.552 1758.14 140.992V138.832H1759.37V141.744H1763.13V142.832H1759.37V148.912H1763.13V150Z" fill="#161616"/>
<path d="M1597 156.512C1597 159.912 1596.44 162.966 1595.55 165.15C1595.11 166.243 1594.59 167.092 1594.05 167.659C1593.51 168.226 1592.97 168.477 1592.46 168.477C1591.95 168.477 1591.42 168.226 1590.87 167.659C1590.33 167.092 1589.82 166.243 1589.37 165.15C1588.49 162.966 1587.93 159.912 1587.93 156.512C1587.93 153.111 1588.49 150.057 1589.37 147.874C1589.82 146.781 1590.33 145.931 1590.87 145.364C1591.42 144.798 1591.95 144.547 1592.46 144.547C1592.97 144.547 1593.51 144.798 1594.05 145.364C1594.59 145.931 1595.11 146.781 1595.55 147.874C1596.44 150.057 1597 153.111 1597 156.512Z" stroke="#161616" stroke-width="1.5"/>
<path d="M1594.69 152.584C1597.63 154.284 1599.99 156.296 1601.45 158.156C1602.17 159.086 1602.65 159.957 1602.86 160.711C1603.08 161.465 1603.03 162.054 1602.78 162.495C1602.53 162.935 1602.04 163.274 1601.28 163.46C1600.51 163.649 1599.52 163.67 1598.35 163.507C1596.02 163.183 1593.09 162.141 1590.15 160.441C1587.2 158.741 1584.84 156.728 1583.39 154.869C1582.67 153.938 1582.19 153.068 1581.97 152.313C1581.75 151.56 1581.8 150.97 1582.06 150.53C1582.31 150.089 1582.8 149.751 1583.56 149.564C1584.32 149.376 1585.31 149.355 1586.48 149.517C1588.82 149.842 1591.74 150.883 1594.69 152.584Z" stroke="#161616" stroke-width="1.5"/>
<path d="M1590.15 152.584C1587.2 154.284 1584.84 156.296 1583.39 158.156C1582.67 159.086 1582.19 159.957 1581.97 160.711C1581.75 161.465 1581.8 162.054 1582.06 162.495C1582.31 162.935 1582.8 163.274 1583.56 163.46C1584.32 163.649 1585.31 163.67 1586.48 163.507C1588.82 163.183 1591.74 162.141 1594.69 160.441C1597.63 158.741 1599.99 156.728 1601.45 154.869C1602.17 153.938 1602.65 153.068 1602.86 152.313C1603.08 151.56 1603.03 150.97 1602.78 150.53C1602.53 150.089 1602.04 149.751 1601.28 149.564C1600.51 149.376 1599.52 149.355 1598.35 149.517C1596.02 149.842 1593.1 150.883 1590.15 152.584Z" stroke="#161616" stroke-width="1.5"/>
<path d="M1606.74 139.773H1578.1C1576.82 139.773 1575.77 140.815 1575.77 142.1V170.736C1575.77 172.021 1576.82 173.063 1578.1 173.063H1606.74C1608.02 173.063 1609.06 172.021 1609.06 170.736V142.1C1609.06 140.815 1608.02 139.773 1606.74 139.773Z" stroke="#161616" stroke-width="1.5"/>
<path d="M1582.34 139.653V135" stroke="#161616" stroke-width="1.5" stroke-linecap="round"/>
<path d="M1601.42 139.653V135" stroke="#161616" stroke-width="1.5" stroke-linecap="round"/>
<path d="M1582.34 177.837V173.184" stroke="#161616" stroke-width="1.5" stroke-linecap="round"/>
<path d="M1601.42 177.837V173.184" stroke="#161616" stroke-width="1.5" stroke-linecap="round"/>
<path d="M1571 146.336H1575.65" stroke="#161616" stroke-width="1.5" stroke-linecap="round"/>
<path d="M1571 165.426H1575.65" stroke="#161616" stroke-width="1.5" stroke-linecap="round"/>
<path d="M1609.19 146.336H1613.84" stroke="#161616" stroke-width="1.5" stroke-linecap="round"/>
<path d="M1609.19 165.426H1613.84" stroke="#161616" stroke-width="1.5" stroke-linecap="round"/>
<rect x="1837" y="115" width="264" height="80" rx="8" fill="#4D5358"/>
<rect x="1837" y="115" width="264" height="80" rx="8" stroke="#BE95FF" stroke-dasharray="2.51 2.51"/>
<path d="M1920.28 150V144.4V140.864H1920.15L1917.8 146.608L1915.45 140.864H1915.32V144.4V150H1914.09V138.832H1915.82L1917.78 143.76H1917.88L1919.85 138.832H1921.51V150H1920.28ZM1927.54 150.192C1925.17 150.192 1923.67 148.496 1923.67 145.888C1923.67 143.248 1925.22 141.552 1927.46 141.552C1929.68 141.552 1931.12 143.248 1931.12 145.584V146.192H1925.01V146.576C1925.01 148.032 1925.99 149.088 1927.54 149.088C1928.64 149.088 1929.47 148.544 1929.91 147.648L1930.85 148.288C1930.35 149.392 1929.17 150.192 1927.54 150.192ZM1927.46 142.608C1926.05 142.608 1925.01 143.68 1925.01 145.12V145.232H1929.75V145.056C1929.75 143.6 1928.82 142.608 1927.46 142.608ZM1940.99 150H1940.11C1939.12 150 1938.73 149.424 1938.64 148.656H1938.56C1938.2 149.6 1937.42 150.192 1936.08 150.192C1934.35 150.192 1933.24 149.232 1933.24 147.68C1933.24 146.16 1934.32 145.28 1936.8 145.28H1938.56V144.464C1938.56 143.264 1937.84 142.64 1936.59 142.64C1935.48 142.64 1934.81 143.104 1934.38 143.856L1933.52 143.216C1933.93 142.352 1934.99 141.552 1936.67 141.552C1938.6 141.552 1939.84 142.592 1939.84 144.336V148.88H1940.99V150ZM1936.3 149.12C1937.61 149.12 1938.56 148.448 1938.56 147.6V146.24H1936.8C1935.28 146.24 1934.59 146.688 1934.59 147.488V147.824C1934.59 148.672 1935.24 149.12 1936.3 149.12ZM1946.68 150.192C1944.95 150.192 1943.72 149.552 1942.85 148.576L1943.72 147.824C1944.5 148.656 1945.4 149.12 1946.71 149.12C1947.99 149.12 1948.9 148.672 1948.9 147.696C1948.9 146.832 1948.2 146.608 1947.45 146.496L1946.15 146.304C1944.98 146.128 1943.32 145.808 1943.32 144.016C1943.32 142.368 1944.73 141.552 1946.65 141.552C1948.13 141.552 1949.22 142.048 1950.01 142.88L1949.17 143.664C1948.79 143.2 1948.05 142.624 1946.6 142.624C1945.3 142.624 1944.58 143.088 1944.58 143.936C1944.58 144.8 1945.3 145.024 1946.04 145.136L1947.33 145.328C1948.52 145.504 1950.17 145.824 1950.17 147.616C1950.17 149.248 1948.79 150.192 1946.68 150.192ZM1958.13 150V148.656H1958.06C1957.71 149.472 1957.07 150.192 1955.71 150.192C1953.98 150.192 1952.85 149.04 1952.85 147.04V141.744H1954.13V146.816C1954.13 148.32 1954.82 149.056 1956.08 149.056C1957.1 149.056 1958.13 148.56 1958.13 147.472V141.744H1959.41V150H1958.13ZM1962.2 150V148.912H1964.62V142.832H1962.2V141.744H1965.9V143.824H1965.98C1966.3 142.736 1967.03 141.744 1968.76 141.744H1969.91V143.024H1968.36C1966.74 143.024 1965.9 144.064 1965.9 145.344V148.912H1968.47V150H1962.2ZM1975.51 150.192C1973.14 150.192 1971.63 148.496 1971.63 145.888C1971.63 143.248 1973.19 141.552 1975.43 141.552C1977.65 141.552 1979.09 143.248 1979.09 145.584V146.192H1972.98V146.576C1972.98 148.032 1973.95 149.088 1975.51 149.088C1976.61 149.088 1977.44 148.544 1977.87 147.648L1978.82 148.288C1978.32 149.392 1977.14 150.192 1975.51 150.192ZM1975.43 142.608C1974.02 142.608 1972.98 143.68 1972.98 145.12V145.232H1977.71V145.056C1977.71 143.6 1976.79 142.608 1975.43 142.608ZM1982.2 150H1981.02V141.744H1982.2V142.704H1982.27C1982.52 142.064 1982.94 141.552 1983.85 141.552C1984.8 141.552 1985.26 142.08 1985.36 142.848H1985.4C1985.71 142.096 1986.22 141.552 1987.2 141.552C1988.54 141.552 1988.89 142.528 1988.89 144.272V150H1987.71V144.48C1987.71 143.072 1987.47 142.608 1986.7 142.608C1986.03 142.608 1985.55 143.056 1985.55 143.936V150H1984.36V144.48C1984.36 143.072 1984.12 142.608 1983.37 142.608C1982.68 142.608 1982.2 143.056 1982.2 143.936V150ZM1994.69 150.192C1992.33 150.192 1990.82 148.496 1990.82 145.888C1990.82 143.248 1992.37 141.552 1994.61 141.552C1996.84 141.552 1998.28 143.248 1998.28 145.584V146.192H1992.17V146.576C1992.17 148.032 1993.14 149.088 1994.69 149.088C1995.8 149.088 1996.63 148.544 1997.06 147.648L1998.01 148.288C1997.51 149.392 1996.33 150.192 1994.69 150.192ZM1994.61 142.608C1993.21 142.608 1992.17 143.68 1992.17 145.12V145.232H1996.9V145.056C1996.9 143.6 1995.97 142.608 1994.61 142.608ZM2002.19 150H2000.91V141.744H2002.19V143.088H2002.26C2002.61 142.272 2003.25 141.552 2004.61 141.552C2006.34 141.552 2007.47 142.704 2007.47 144.704V150H2006.19V144.928C2006.19 143.424 2005.5 142.688 2004.24 142.688C2003.22 142.688 2002.19 143.184 2002.19 144.272V150ZM2017.35 150H2014.14C2012.89 150 2012.31 149.216 2012.31 148.112V142.832H2009.56V141.744H2011.61C2012.15 141.744 2012.36 141.552 2012.36 140.992V138.832H2013.59V141.744H2017.35V142.832H2013.59V148.912H2017.35V150ZM2033.07 150.192C2030.7 150.192 2029.2 148.496 2029.2 145.888C2029.2 143.248 2030.75 141.552 2032.99 141.552C2035.21 141.552 2036.65 143.248 2036.65 145.584V146.192H2030.54V146.576C2030.54 148.032 2031.52 149.088 2033.07 149.088C2034.17 149.088 2035.01 148.544 2035.44 147.648L2036.38 148.288C2035.89 149.392 2034.7 150.192 2033.07 150.192ZM2032.99 142.608C2031.58 142.608 2030.54 143.68 2030.54 145.12V145.232H2035.28V145.056C2035.28 143.6 2034.35 142.608 2032.99 142.608ZM2038.95 150V148.912H2041.37V142.832H2038.95V141.744H2042.65V143.824H2042.73C2043.05 142.736 2043.78 141.744 2045.51 141.744H2046.66V143.024H2045.11C2043.49 143.024 2042.65 144.064 2042.65 145.344V148.912H2045.22V150H2038.95ZM2048.54 150V148.912H2050.96V142.832H2048.54V141.744H2052.24V143.824H2052.32C2052.64 142.736 2053.38 141.744 2055.1 141.744H2056.26V143.024H2054.7C2053.09 143.024 2052.24 144.064 2052.24 145.344V148.912H2054.82V150H2048.54ZM2061.71 150.192C2059.39 150.192 2057.96 148.496 2057.96 145.872C2057.96 143.248 2059.39 141.552 2061.71 141.552C2064.03 141.552 2065.45 143.248 2065.45 145.872C2065.45 148.496 2064.03 150.192 2061.71 150.192ZM2061.71 149.088C2063.13 149.088 2064.09 148.24 2064.09 146.464V145.28C2064.09 143.504 2063.13 142.656 2061.71 142.656C2060.28 142.656 2059.32 143.504 2059.32 145.28V146.464C2059.32 148.24 2060.28 149.088 2061.71 149.088ZM2067.73 150V148.912H2070.15V142.832H2067.73V141.744H2071.43V143.824H2071.51C2071.83 142.736 2072.56 141.744 2074.29 141.744H2075.44V143.024H2073.89C2072.28 143.024 2071.43 144.064 2071.43 145.344V148.912H2074V150H2067.73ZM1915.05 172H1913.86V163.744H1915.05V164.704H1915.11C1915.37 164.064 1915.78 163.552 1916.7 163.552C1917.64 163.552 1918.1 164.08 1918.2 164.848H1918.25C1918.55 164.096 1919.06 163.552 1920.04 163.552C1921.38 163.552 1921.74 164.528 1921.74 166.272V172H1920.55V166.48C1920.55 165.072 1920.31 164.608 1919.54 164.608C1918.87 164.608 1918.39 165.056 1918.39 165.936V172H1917.21V166.48C1917.21 165.072 1916.97 164.608 1916.22 164.608C1915.53 164.608 1915.05 165.056 1915.05 165.936V172ZM1927.91 161.92C1927.17 161.92 1926.9 161.568 1926.9 161.104V160.848C1926.9 160.384 1927.17 160.032 1927.91 160.032C1928.64 160.032 1928.91 160.384 1928.91 160.848V161.104C1928.91 161.568 1928.64 161.92 1927.91 161.92ZM1924.29 172V170.912H1927.27V164.832H1924.29V163.744H1928.55V170.912H1931.33V172H1924.29ZM1940.6 172H1937.39C1936.14 172 1935.56 171.216 1935.56 170.112V164.832H1932.81V163.744H1934.86C1935.4 163.744 1935.61 163.552 1935.61 162.992V160.832H1936.84V163.744H1940.6V164.832H1936.84V170.912H1940.6V172ZM1947.09 161.92C1946.36 161.92 1946.09 161.568 1946.09 161.104V160.848C1946.09 160.384 1946.36 160.032 1947.09 160.032C1947.83 160.032 1948.1 160.384 1948.1 160.848V161.104C1948.1 161.568 1947.83 161.92 1947.09 161.92ZM1943.48 172V170.912H1946.45V164.832H1943.48V163.744H1947.73V170.912H1950.52V172H1943.48ZM1960.35 172.944C1960.35 174.608 1958.94 175.392 1956.19 175.392C1953.54 175.392 1952.45 174.656 1952.45 173.344C1952.45 172.464 1952.94 171.984 1953.79 171.76V171.568C1953.33 171.344 1953.06 170.992 1953.06 170.432C1953.06 169.584 1953.7 169.2 1954.54 168.992V168.928C1953.54 168.48 1952.93 167.568 1952.93 166.4C1952.93 164.72 1954.19 163.552 1956.13 163.552C1956.75 163.552 1957.3 163.664 1957.76 163.888V163.744C1957.76 163.104 1958.03 162.624 1958.75 162.624H1960.27V163.744H1958.42V164.304C1959.01 164.816 1959.34 165.536 1959.34 166.4C1959.34 168.08 1958.06 169.248 1956.13 169.248C1955.86 169.248 1955.6 169.232 1955.34 169.184C1954.85 169.28 1954.16 169.568 1954.16 170.128C1954.16 170.624 1954.7 170.736 1955.49 170.736H1957.31C1959.44 170.736 1960.35 171.6 1960.35 172.944ZM1959.15 173.008C1959.15 172.352 1958.69 171.92 1957.36 171.92H1954.5C1953.95 172.144 1953.66 172.512 1953.66 173.04C1953.66 173.76 1954.19 174.368 1955.54 174.368H1956.78C1958.27 174.368 1959.15 173.904 1959.15 173.008ZM1956.13 168.256C1957.41 168.256 1958 167.6 1958 166.624V166.16C1958 165.184 1957.41 164.544 1956.13 164.544C1954.86 164.544 1954.27 165.184 1954.27 166.16V166.624C1954.27 167.6 1954.86 168.256 1956.13 168.256ZM1969.77 172H1968.89C1967.9 172 1967.51 171.424 1967.42 170.656H1967.34C1966.98 171.6 1966.2 172.192 1964.86 172.192C1963.13 172.192 1962.02 171.232 1962.02 169.68C1962.02 168.16 1963.1 167.28 1965.58 167.28H1967.34V166.464C1967.34 165.264 1966.62 164.64 1965.37 164.64C1964.26 164.64 1963.59 165.104 1963.16 165.856L1962.3 165.216C1962.71 164.352 1963.77 163.552 1965.45 163.552C1967.38 163.552 1968.62 164.592 1968.62 166.336V170.88H1969.77V172ZM1965.08 171.12C1966.39 171.12 1967.34 170.448 1967.34 169.6V168.24H1965.58C1964.06 168.24 1963.37 168.688 1963.37 169.488V169.824C1963.37 170.672 1964.02 171.12 1965.08 171.12ZM1978.98 172H1975.76C1974.51 172 1973.94 171.216 1973.94 170.112V164.832H1971.19V163.744H1973.23C1973.78 163.744 1973.99 163.552 1973.99 162.992V160.832H1975.22V163.744H1978.98V164.832H1975.22V170.912H1978.98V172ZM1985.47 161.92C1984.73 161.92 1984.46 161.568 1984.46 161.104V160.848C1984.46 160.384 1984.73 160.032 1985.47 160.032C1986.2 160.032 1986.48 160.384 1986.48 160.848V161.104C1986.48 161.568 1986.2 161.92 1985.47 161.92ZM1981.85 172V170.912H1984.83V164.832H1981.85V163.744H1986.11V170.912H1988.89V172H1981.85ZM1994.55 172.192C1992.23 172.192 1990.81 170.496 1990.81 167.872C1990.81 165.248 1992.23 163.552 1994.55 163.552C1996.87 163.552 1998.29 165.248 1998.29 167.872C1998.29 170.496 1996.87 172.192 1994.55 172.192ZM1994.55 171.088C1995.97 171.088 1996.93 170.24 1996.93 168.464V167.28C1996.93 165.504 1995.97 164.656 1994.55 164.656C1993.13 164.656 1992.17 165.504 1992.17 167.28V168.464C1992.17 170.24 1993.13 171.088 1994.55 171.088ZM2002.19 172H2000.91V163.744H2002.19V165.088H2002.26C2002.61 164.272 2003.25 163.552 2004.61 163.552C2006.34 163.552 2007.47 164.704 2007.47 166.704V172H2006.19V166.928C2006.19 165.424 2005.5 164.688 2004.24 164.688C2003.22 164.688 2002.19 165.184 2002.19 166.272V172Z" fill="white"/>
<path d="M1894.27 137H1859.73C1859.01 137 1858.31 137.298 1857.8 137.829C1857.29 138.36 1857 139.08 1857 139.831V174.162C1857 174.913 1857.29 175.633 1857.8 176.164C1858.31 176.695 1859.01 176.994 1859.73 176.994H1894.27C1894.99 176.994 1895.69 176.695 1896.2 176.164C1896.71 175.633 1897 174.913 1897 174.162V139.831C1897 139.08 1896.71 138.36 1896.2 137.829C1895.69 137.298 1894.99 137 1894.27 137ZM1859.73 138.887H1894.27C1894.51 138.887 1894.74 138.987 1894.91 139.163C1895.08 139.341 1895.18 139.581 1895.18 139.831V144.55H1858.82L1858.96 139.831C1858.96 139.31 1859.23 138.887 1859.73 138.887ZM1894.27 175.106H1859.73C1859.23 175.106 1858.82 174.684 1858.82 174.162V146.437H1895.18V174.162C1895.18 174.412 1895.08 174.653 1894.91 174.829C1894.74 175.007 1894.51 175.106 1894.27 175.106Z" fill="#BE95FF"/>
<path d="M1885.57 141.763C1885.57 142.288 1885.14 142.715 1884.61 142.715C1884.09 142.715 1883.67 142.288 1883.67 141.763C1883.67 141.237 1884.09 140.811 1884.61 140.811C1885.14 140.811 1885.57 141.237 1885.57 141.763Z" fill="#BE95FF"/>
<path d="M1889.38 141.763C1889.38 142.288 1888.96 142.715 1888.43 142.715C1887.91 142.715 1887.48 142.288 1887.48 141.763C1887.48 141.237 1887.91 140.811 1888.43 140.811C1888.96 140.811 1889.38 141.237 1889.38 141.763Z" fill="#BE95FF"/>
<path d="M1893.19 141.763C1893.19 142.288 1892.76 142.715 1892.23 142.715C1891.71 142.715 1891.29 142.288 1891.29 141.763C1891.29 141.237 1891.71 140.811 1892.23 140.811C1892.76 140.811 1893.19 141.237 1893.19 141.763Z" fill="#BE95FF"/>
<path d="M1877 156.998C1876.48 156.998 1876.05 157.424 1876.05 157.95V161.759C1876.05 162.285 1876.48 162.712 1877 162.712C1877.53 162.712 1877.96 162.285 1877.96 161.759V157.95C1877.96 157.697 1877.85 157.455 1877.67 157.276C1877.5 157.098 1877.25 156.998 1877 156.998Z" fill="#BE95FF"/>
<path d="M1877.96 165.567C1877.96 166.093 1877.53 166.52 1877 166.52C1876.48 166.52 1876.05 166.093 1876.05 165.567C1876.05 165.042 1876.48 164.615 1877 164.615C1877.53 164.615 1877.96 165.042 1877.96 165.567Z" fill="#BE95FF"/>
<path d="M1879.33 151.585C1878.81 150.802 1877.94 150.332 1877 150.332C1876.06 150.332 1875.19 150.802 1874.67 151.585L1865.09 165.97C1864.71 166.536 1864.56 167.22 1864.65 167.894C1864.74 168.568 1865.07 169.188 1865.58 169.635C1866.09 170.083 1866.75 170.33 1867.43 170.329H1886.58C1887.26 170.33 1887.91 170.083 1888.42 169.635C1888.93 169.188 1889.26 168.568 1889.35 167.894C1889.44 167.22 1889.29 166.536 1888.91 165.97L1879.33 151.585ZM1887.4 167.965C1887.24 168.271 1886.92 168.461 1886.58 168.46H1867.42C1867.08 168.459 1866.76 168.269 1866.6 167.965C1866.44 167.662 1866.45 167.294 1866.65 167.007L1876.22 152.623C1876.39 152.364 1876.69 152.209 1877 152.209C1877.31 152.209 1877.6 152.364 1877.77 152.623L1887.35 167.007C1887.54 167.294 1887.56 167.661 1887.39 167.965H1887.4Z" fill="#BE95FF"/>
<path d="M977.062 57H970.246V45.832H977.062V47.016H971.59V50.76H976.742V51.944H971.59V55.816H977.062V57ZM980.726 57H979.446V48.744H980.726V50.264H980.806C981.094 49.48 981.846 48.744 983.19 48.744H983.686V50.024H982.934C981.558 50.024 980.726 50.616 980.726 51.4V57ZM986.601 57H985.321V48.744H986.601V50.264H986.681C986.969 49.48 987.721 48.744 989.065 48.744H989.561V50.024H988.809C987.433 50.024 986.601 50.616 986.601 51.4V57ZM994.238 57.192C992.03 57.192 990.51 55.496 990.51 52.872C990.51 50.248 992.03 48.552 994.238 48.552C996.446 48.552 997.966 50.248 997.966 52.872C997.966 55.496 996.446 57.192 994.238 57.192ZM994.238 56.056C995.614 56.056 996.59 55.208 996.59 53.464V52.28C996.59 50.536 995.614 49.688 994.238 49.688C992.862 49.688 991.886 50.536 991.886 52.28V53.464C991.886 55.208 992.862 56.056 994.238 56.056ZM1001.35 57H1000.07V48.744H1001.35V50.264H1001.43C1001.72 49.48 1002.47 48.744 1003.81 48.744H1004.31V50.024H1003.56C1002.18 50.024 1001.35 50.616 1001.35 51.4V57ZM1009.55 52.824H1005.38V51.448H1009.55V52.824ZM1013.3 57H1012.02V48.744H1013.3V50.264H1013.38C1013.67 49.48 1014.42 48.744 1015.77 48.744H1016.26V50.024H1015.51C1014.14 50.024 1013.3 50.616 1013.3 51.4V57ZM1020.92 57.192C1018.68 57.192 1017.21 55.496 1017.21 52.872C1017.21 50.248 1018.68 48.552 1020.92 48.552C1023.13 48.552 1024.49 50.248 1024.49 52.584V53.192H1018.56V53.576C1018.56 55 1019.47 56.072 1021 56.072C1022.04 56.072 1022.84 55.56 1023.28 54.648L1024.19 55.304C1023.66 56.424 1022.48 57.192 1020.92 57.192ZM1020.92 49.624C1019.53 49.624 1018.56 50.68 1018.56 52.12V52.232H1023.12V52.056C1023.12 50.6 1022.24 49.624 1020.92 49.624ZM1031.88 57V55.656H1031.82C1031.32 56.68 1030.54 57.192 1029.4 57.192C1027.34 57.192 1026.04 55.512 1026.04 52.872C1026.04 50.232 1027.34 48.552 1029.4 48.552C1030.54 48.552 1031.39 49.048 1031.82 50.088H1031.88V45.16H1033.16V57H1031.88ZM1029.75 56.04C1030.92 56.04 1031.88 55.432 1031.88 54.36V51.288C1031.88 50.376 1030.92 49.704 1029.75 49.704C1028.31 49.704 1027.42 50.696 1027.42 52.168V53.576C1027.42 55.048 1028.31 56.04 1029.75 56.04ZM1040.97 57V55.656H1040.91C1040.59 56.44 1039.96 57.192 1038.59 57.192C1036.89 57.192 1035.8 56.04 1035.8 54.04V48.744H1037.08V53.816C1037.08 55.288 1037.74 56.04 1038.97 56.04C1039.98 56.04 1040.97 55.544 1040.97 54.456V48.744H1042.25V57H1040.97ZM1048.05 57.192C1045.73 57.192 1044.37 55.512 1044.37 52.872C1044.37 50.232 1045.73 48.552 1048.05 48.552C1049.68 48.552 1050.66 49.352 1051.14 50.488L1050.07 51.032C1049.76 50.184 1049.06 49.688 1048.05 49.688C1046.53 49.688 1045.75 50.728 1045.75 52.168V53.576C1045.75 55.016 1046.53 56.056 1048.05 56.056C1049.09 56.056 1049.84 55.56 1050.29 54.616L1051.22 55.24C1050.69 56.424 1049.62 57.192 1048.05 57.192ZM1053.66 46.808C1053.12 46.808 1052.88 46.52 1052.88 46.088V45.88C1052.88 45.448 1053.12 45.16 1053.66 45.16C1054.21 45.16 1054.45 45.448 1054.45 45.88V46.088C1054.45 46.52 1054.21 46.808 1053.66 46.808ZM1053.02 57V48.744H1054.3V57H1053.02ZM1058.3 57H1057.02V48.744H1058.3V50.088H1058.37C1058.77 49.16 1059.47 48.552 1060.7 48.552C1062.4 48.552 1063.47 49.704 1063.47 51.704V57H1062.19V51.928C1062.19 50.456 1061.55 49.704 1060.32 49.704C1059.3 49.704 1058.3 50.216 1058.3 51.272V57ZM1073.08 57.912C1073.08 59.608 1071.73 60.392 1069.08 60.392C1066.5 60.392 1065.45 59.656 1065.45 58.36C1065.45 57.464 1065.94 56.984 1066.76 56.76V56.584C1066.29 56.36 1066.02 55.992 1066.02 55.432C1066.02 54.6 1066.61 54.2 1067.45 53.992V53.928C1066.47 53.464 1065.89 52.552 1065.89 51.4C1065.89 49.72 1067.13 48.552 1069 48.552C1069.59 48.552 1070.12 48.664 1070.57 48.872V48.728C1070.57 48.088 1070.84 47.624 1071.53 47.624H1072.76V48.744H1071.19V49.272C1071.78 49.784 1072.13 50.52 1072.13 51.4C1072.13 53.08 1070.9 54.248 1069.01 54.248C1068.74 54.248 1068.45 54.216 1068.21 54.168C1067.67 54.312 1067.13 54.584 1067.13 55.096C1067.13 55.592 1067.64 55.72 1068.39 55.72H1070.15C1072.2 55.72 1073.08 56.552 1073.08 57.912ZM1071.88 58.008C1071.88 57.352 1071.45 56.92 1070.17 56.92H1067.41C1066.89 57.16 1066.65 57.528 1066.65 58.04C1066.65 58.76 1067.14 59.352 1068.44 59.352H1069.62C1071.05 59.352 1071.88 58.904 1071.88 58.008ZM1069.01 53.224C1070.1 53.224 1070.79 52.712 1070.79 51.624V51.176C1070.79 50.088 1070.1 49.576 1069.01 49.576C1067.93 49.576 1067.24 50.088 1067.24 51.176V51.624C1067.24 52.712 1067.93 53.224 1069.01 53.224ZM1078.35 57V45.16H1079.63V50.088H1079.7C1080.13 49.048 1080.98 48.552 1082.11 48.552C1084.18 48.552 1085.47 50.232 1085.47 52.872C1085.47 55.512 1084.18 57.192 1082.11 57.192C1080.98 57.192 1080.19 56.68 1079.7 55.656H1079.63V57H1078.35ZM1081.76 56.04C1083.2 56.04 1084.1 55.048 1084.1 53.576V52.168C1084.1 50.696 1083.2 49.704 1081.76 49.704C1080.59 49.704 1079.63 50.376 1079.63 51.288V54.36C1079.63 55.432 1080.59 56.04 1081.76 56.04ZM1094.35 57H1093.63C1092.69 57 1092.31 56.424 1092.21 55.656H1092.13C1091.78 56.664 1090.9 57.192 1089.75 57.192C1088 57.192 1086.98 56.232 1086.98 54.696C1086.98 53.144 1088.1 52.28 1090.5 52.28H1092.13V51.464C1092.13 50.296 1091.49 49.656 1090.18 49.656C1089.19 49.656 1088.53 50.136 1088.08 50.888L1087.31 50.168C1087.76 49.288 1088.75 48.552 1090.24 48.552C1092.23 48.552 1093.41 49.592 1093.41 51.336V55.88H1094.35V57ZM1089.95 56.104C1091.22 56.104 1092.13 55.448 1092.13 54.6V53.24H1090.43C1088.98 53.24 1088.32 53.688 1088.32 54.488V54.824C1088.32 55.64 1088.96 56.104 1089.95 56.104ZM1099.25 57.192C1096.93 57.192 1095.57 55.512 1095.57 52.872C1095.57 50.232 1096.93 48.552 1099.25 48.552C1100.88 48.552 1101.86 49.352 1102.34 50.488L1101.27 51.032C1100.96 50.184 1100.26 49.688 1099.25 49.688C1097.73 49.688 1096.95 50.728 1096.95 52.168V53.576C1096.95 55.016 1097.73 56.056 1099.25 56.056C1100.29 56.056 1101.04 55.56 1101.49 54.616L1102.42 55.24C1101.89 56.424 1100.82 57.192 1099.25 57.192ZM1104.23 57V45.16H1105.51V52.664H1105.57L1106.84 51.256L1109.17 48.744H1110.72L1107.67 52.008L1111.03 57H1109.48L1106.74 52.792L1105.51 54.056V57H1104.23ZM1115.87 52.824H1111.69V51.448H1115.87V52.824ZM1121.6 57.192C1119.36 57.192 1117.88 55.496 1117.88 52.872C1117.88 50.248 1119.36 48.552 1121.6 48.552C1123.8 48.552 1125.16 50.248 1125.16 52.584V53.192H1119.23V53.576C1119.23 55 1120.14 56.072 1121.68 56.072C1122.72 56.072 1123.52 55.56 1123.95 54.648L1124.86 55.304C1124.33 56.424 1123.15 57.192 1121.6 57.192ZM1121.6 49.624C1120.2 49.624 1119.23 50.68 1119.23 52.12V52.232H1123.79V52.056C1123.79 50.6 1122.91 49.624 1121.6 49.624ZM1128.55 57H1127.27V48.744H1128.55V50.088H1128.62C1129.02 49.16 1129.72 48.552 1130.95 48.552C1132.65 48.552 1133.72 49.704 1133.72 51.704V57H1132.44V51.928C1132.44 50.456 1131.8 49.704 1130.57 49.704C1129.55 49.704 1128.55 50.216 1128.55 51.272V57ZM1141.65 57V55.656H1141.58C1141.09 56.68 1140.3 57.192 1139.17 57.192C1137.1 57.192 1135.81 55.512 1135.81 52.872C1135.81 50.232 1137.1 48.552 1139.17 48.552C1140.3 48.552 1141.15 49.048 1141.58 50.088H1141.65V45.16H1142.93V57H1141.65ZM1139.52 56.04C1140.69 56.04 1141.65 55.432 1141.65 54.36V51.288C1141.65 50.376 1140.69 49.704 1139.52 49.704C1138.08 49.704 1137.18 50.696 1137.18 52.168V53.576C1137.18 55.048 1138.08 56.04 1139.52 56.04ZM1152.5 57.192C1150.18 57.192 1148.82 55.512 1148.82 52.872C1148.82 50.232 1150.18 48.552 1152.5 48.552C1154.13 48.552 1155.11 49.352 1155.59 50.488L1154.52 51.032C1154.21 50.184 1153.51 49.688 1152.5 49.688C1150.98 49.688 1150.2 50.728 1150.2 52.168V53.576C1150.2 55.016 1150.98 56.056 1152.5 56.056C1153.54 56.056 1154.29 55.56 1154.74 54.616L1155.67 55.24C1155.14 56.424 1154.07 57.192 1152.5 57.192ZM1160.5 57.192C1158.3 57.192 1156.78 55.496 1156.78 52.872C1156.78 50.248 1158.3 48.552 1160.5 48.552C1162.71 48.552 1164.23 50.248 1164.23 52.872C1164.23 55.496 1162.71 57.192 1160.5 57.192ZM1160.5 56.056C1161.88 56.056 1162.86 55.208 1162.86 53.464V52.28C1162.86 50.536 1161.88 49.688 1160.5 49.688C1159.13 49.688 1158.15 50.536 1158.15 52.28V53.464C1158.15 55.208 1159.13 56.056 1160.5 56.056ZM1167.62 57H1166.34V48.744H1167.62V50.088H1167.68C1168.05 49.24 1168.62 48.552 1169.9 48.552C1170.99 48.552 1171.98 49.048 1172.43 50.232H1172.46C1172.77 49.336 1173.57 48.552 1174.98 48.552C1176.66 48.552 1177.66 49.704 1177.66 51.704V57H1176.38V51.928C1176.38 50.472 1175.82 49.704 1174.58 49.704C1173.57 49.704 1172.64 50.216 1172.64 51.272V57H1171.36V51.928C1171.36 50.456 1170.8 49.704 1169.58 49.704C1168.58 49.704 1167.62 50.216 1167.62 51.272V57ZM1180.31 60.2V48.744H1181.59V50.088H1181.65C1182.08 49.048 1182.93 48.552 1184.07 48.552C1186.13 48.552 1187.43 50.232 1187.43 52.872C1187.43 55.512 1186.13 57.192 1184.07 57.192C1182.93 57.192 1182.15 56.68 1181.65 55.656H1181.59V60.2H1180.31ZM1183.71 56.04C1185.15 56.04 1186.05 55.048 1186.05 53.576V52.168C1186.05 50.696 1185.15 49.704 1183.71 49.704C1182.55 49.704 1181.59 50.376 1181.59 51.288V54.36C1181.59 55.432 1182.55 56.04 1183.71 56.04ZM1190.23 46.808C1189.68 46.808 1189.44 46.52 1189.44 46.088V45.88C1189.44 45.448 1189.68 45.16 1190.23 45.16C1190.77 45.16 1191.01 45.448 1191.01 45.88V46.088C1191.01 46.52 1190.77 46.808 1190.23 46.808ZM1189.59 57V48.744H1190.87V57H1189.59ZM1196.08 57H1194.95C1194.07 57 1193.59 56.44 1193.59 55.672V45.16H1194.87V55.88H1196.08V57ZM1201.05 57.192C1198.81 57.192 1197.34 55.496 1197.34 52.872C1197.34 50.248 1198.81 48.552 1201.05 48.552C1203.26 48.552 1204.62 50.248 1204.62 52.584V53.192H1198.68V53.576C1198.68 55 1199.59 56.072 1201.13 56.072C1202.17 56.072 1202.97 55.56 1203.4 54.648L1204.31 55.304C1203.79 56.424 1202.6 57.192 1201.05 57.192ZM1201.05 49.624C1199.66 49.624 1198.68 50.68 1198.68 52.12V52.232H1203.24V52.056C1203.24 50.6 1202.36 49.624 1201.05 49.624ZM1208.01 57H1206.73V48.744H1208.01V50.264H1208.09C1208.38 49.48 1209.13 48.744 1210.47 48.744H1210.97V50.024H1210.22C1208.84 50.024 1208.01 50.616 1208.01 51.4V57Z" fill="#F2F4F8"/>
<path d="M378.447 57.192C375.631 57.192 373.951 55.208 373.951 51.48C373.951 47.752 375.631 45.64 378.447 45.64C380.303 45.64 381.583 46.536 382.287 48.088L381.199 48.744C380.751 47.592 379.823 46.84 378.447 46.84C376.527 46.84 375.391 48.36 375.391 50.648V52.312C375.391 54.6 376.527 55.992 378.447 55.992C379.871 55.992 380.847 55.192 381.295 53.976L382.367 54.648C381.663 56.216 380.303 57.192 378.447 57.192ZM389.409 57V55.656H389.345C389.025 56.44 388.401 57.192 387.025 57.192C385.329 57.192 384.241 56.04 384.241 54.04V48.744H385.521V53.816C385.521 55.288 386.177 56.04 387.409 56.04C388.417 56.04 389.409 55.544 389.409 54.456V48.744H390.689V57H389.409ZM395.895 57.192C394.375 57.192 393.367 56.552 392.631 55.576L393.543 54.84C394.183 55.64 394.951 56.104 395.991 56.104C397.079 56.104 397.719 55.608 397.719 54.76C397.719 54.12 397.367 53.624 396.279 53.464L395.623 53.368C394.103 53.144 392.967 52.52 392.967 50.984C392.967 49.352 394.231 48.552 395.911 48.552C397.239 48.552 398.119 49.048 398.791 49.88L397.943 50.648C397.575 50.136 396.871 49.64 395.815 49.64C394.759 49.64 394.199 50.136 394.199 50.92C394.199 51.72 394.759 52.04 395.783 52.2L396.423 52.296C398.247 52.568 398.951 53.368 398.951 54.616C398.951 56.216 397.783 57.192 395.895 57.192ZM404.526 57H402.926C402.046 57 401.566 56.44 401.566 55.64V49.864H400.206V48.744H400.974C401.518 48.744 401.694 48.552 401.694 47.992V46.456H402.846V48.744H404.654V49.864H402.846V55.88H404.526V57ZM409.769 57.192C407.561 57.192 406.041 55.496 406.041 52.872C406.041 50.248 407.561 48.552 409.769 48.552C411.977 48.552 413.497 50.248 413.497 52.872C413.497 55.496 411.977 57.192 409.769 57.192ZM409.769 56.056C411.145 56.056 412.121 55.208 412.121 53.464V52.28C412.121 50.536 411.145 49.688 409.769 49.688C408.393 49.688 407.417 50.536 407.417 52.28V53.464C407.417 55.208 408.393 56.056 409.769 56.056ZM416.882 57H415.602V48.744H416.882V50.088H416.946C417.314 49.24 417.89 48.552 419.17 48.552C420.258 48.552 421.25 49.048 421.698 50.232H421.73C422.034 49.336 422.834 48.552 424.242 48.552C425.922 48.552 426.93 49.704 426.93 51.704V57H425.65V51.928C425.65 50.472 425.09 49.704 423.842 49.704C422.834 49.704 421.906 50.216 421.906 51.272V57H420.626V51.928C420.626 50.456 420.066 49.704 418.85 49.704C417.842 49.704 416.882 50.216 416.882 51.272V57ZM433.8 57V49.864H432.456V48.744H433.8V47.08C433.8 45.944 434.392 45.16 435.608 45.16H436.856V46.28H435.08V48.744H436.856V49.864H435.08V57H433.8ZM439.82 57H438.54V48.744H439.82V50.264H439.9C440.188 49.48 440.94 48.744 442.284 48.744H442.78V50.024H442.028C440.652 50.024 439.82 50.616 439.82 51.4V57ZM447.457 57.192C445.249 57.192 443.729 55.496 443.729 52.872C443.729 50.248 445.249 48.552 447.457 48.552C449.665 48.552 451.185 50.248 451.185 52.872C451.185 55.496 449.665 57.192 447.457 57.192ZM447.457 56.056C448.833 56.056 449.809 55.208 449.809 53.464V52.28C449.809 50.536 448.833 49.688 447.457 49.688C446.081 49.688 445.105 50.536 445.105 52.28V53.464C445.105 55.208 446.081 56.056 447.457 56.056ZM454.57 57H453.29V48.744H454.57V50.088H454.634C455.034 49.16 455.738 48.552 456.97 48.552C458.666 48.552 459.738 49.704 459.738 51.704V57H458.458V51.928C458.458 50.456 457.818 49.704 456.586 49.704C455.562 49.704 454.57 50.216 454.57 51.272V57ZM465.807 57H464.207C463.327 57 462.847 56.44 462.847 55.64V49.864H461.487V48.744H462.255C462.799 48.744 462.975 48.552 462.975 47.992V46.456H464.127V48.744H465.935V49.864H464.127V55.88H465.807V57ZM471.6 52.824H467.424V51.448H471.6V52.824ZM477.331 57.192C475.091 57.192 473.619 55.496 473.619 52.872C473.619 50.248 475.091 48.552 477.331 48.552C479.539 48.552 480.899 50.248 480.899 52.584V53.192H474.963V53.576C474.963 55 475.875 56.072 477.411 56.072C478.451 56.072 479.251 55.56 479.683 54.648L480.595 55.304C480.067 56.424 478.883 57.192 477.331 57.192ZM477.331 49.624C475.939 49.624 474.963 50.68 474.963 52.12V52.232H479.523V52.056C479.523 50.6 478.643 49.624 477.331 49.624ZM484.288 57H483.008V48.744H484.288V50.088H484.352C484.752 49.16 485.456 48.552 486.688 48.552C488.384 48.552 489.456 49.704 489.456 51.704V57H488.176V51.928C488.176 50.456 487.536 49.704 486.304 49.704C485.28 49.704 484.288 50.216 484.288 51.272V57ZM497.382 57V55.656H497.318C496.822 56.68 496.038 57.192 494.902 57.192C492.838 57.192 491.542 55.512 491.542 52.872C491.542 50.232 492.838 48.552 494.902 48.552C496.038 48.552 496.886 49.048 497.318 50.088H497.382V45.16H498.662V57H497.382ZM495.254 56.04C496.422 56.04 497.382 55.432 497.382 54.36V51.288C497.382 50.376 496.422 49.704 495.254 49.704C493.814 49.704 492.918 50.696 492.918 52.168V53.576C492.918 55.048 493.814 56.04 495.254 56.04ZM508.237 57.192C505.917 57.192 504.557 55.512 504.557 52.872C504.557 50.232 505.917 48.552 508.237 48.552C509.869 48.552 510.845 49.352 511.325 50.488L510.253 51.032C509.949 50.184 509.245 49.688 508.237 49.688C506.717 49.688 505.933 50.728 505.933 52.168V53.576C505.933 55.016 506.717 56.056 508.237 56.056C509.277 56.056 510.029 55.56 510.477 54.616L511.405 55.24C510.877 56.424 509.805 57.192 508.237 57.192ZM516.238 57.192C514.03 57.192 512.51 55.496 512.51 52.872C512.51 50.248 514.03 48.552 516.238 48.552C518.446 48.552 519.966 50.248 519.966 52.872C519.966 55.496 518.446 57.192 516.238 57.192ZM516.238 56.056C517.614 56.056 518.59 55.208 518.59 53.464V52.28C518.59 50.536 517.614 49.688 516.238 49.688C514.862 49.688 513.886 50.536 513.886 52.28V53.464C513.886 55.208 514.862 56.056 516.238 56.056ZM523.351 57H522.071V48.744H523.351V50.088H523.415C523.783 49.24 524.359 48.552 525.639 48.552C526.727 48.552 527.719 49.048 528.167 50.232H528.199C528.503 49.336 529.303 48.552 530.711 48.552C532.391 48.552 533.399 49.704 533.399 51.704V57H532.119V51.928C532.119 50.472 531.559 49.704 530.311 49.704C529.303 49.704 528.375 50.216 528.375 51.272V57H527.095V51.928C527.095 50.456 526.535 49.704 525.319 49.704C524.311 49.704 523.351 50.216 523.351 51.272V57ZM536.04 60.2V48.744H537.32V50.088H537.384C537.816 49.048 538.664 48.552 539.8 48.552C541.864 48.552 543.16 50.232 543.16 52.872C543.16 55.512 541.864 57.192 539.8 57.192C538.664 57.192 537.88 56.68 537.384 55.656H537.32V60.2H536.04ZM539.448 56.04C540.888 56.04 541.784 55.048 541.784 53.576V52.168C541.784 50.696 540.888 49.704 539.448 49.704C538.28 49.704 537.32 50.376 537.32 51.288V54.36C537.32 55.432 538.28 56.04 539.448 56.04ZM545.961 46.808C545.417 46.808 545.177 46.52 545.177 46.088V45.88C545.177 45.448 545.417 45.16 545.961 45.16C546.505 45.16 546.745 45.448 546.745 45.88V46.088C546.745 46.52 546.505 46.808 545.961 46.808ZM545.321 57V48.744H546.601V57H545.321ZM551.817 57H550.681C549.801 57 549.321 56.44 549.321 55.672V45.16H550.601V55.88H551.817V57ZM556.784 57.192C554.544 57.192 553.072 55.496 553.072 52.872C553.072 50.248 554.544 48.552 556.784 48.552C558.992 48.552 560.352 50.248 560.352 52.584V53.192H554.416V53.576C554.416 55 555.328 56.072 556.864 56.072C557.904 56.072 558.704 55.56 559.136 54.648L560.048 55.304C559.52 56.424 558.336 57.192 556.784 57.192ZM556.784 49.624C555.392 49.624 554.416 50.68 554.416 52.12V52.232H558.976V52.056C558.976 50.6 558.096 49.624 556.784 49.624ZM563.742 57H562.462V48.744H563.742V50.264H563.822C564.11 49.48 564.862 48.744 566.206 48.744H566.702V50.024H565.95C564.574 50.024 563.742 50.616 563.742 51.4V57Z" fill="#F2F4F8"/>
<path d="M1510.8 74.5L1510.8 53L1215.5 53" stroke="#F2F4F8"/>
<path d="M661 74.5L661 53L963.5 53" stroke="#F2F4F8"/>
<path d="M78.128 236.504V237.624H76.48C75.6 237.624 75.136 237.064 75.136 236.312V235.176C72.56 234.936 70.928 232.92 70.928 229.416C70.928 225.672 72.784 223.64 75.664 223.64C78.544 223.64 80.4 225.672 80.4 229.416C80.4 232.824 78.864 234.808 76.416 235.144V236.504H78.128ZM75.664 233.992C77.6 233.992 78.96 232.552 78.96 230.344V228.488C78.96 226.28 77.6 224.84 75.664 224.84C73.728 224.84 72.368 226.28 72.368 228.488V230.344C72.368 232.552 73.728 233.992 75.664 233.992ZM86.8425 230.824H82.6665V229.448H86.8425V230.824ZM93.6115 235.192C90.7955 235.192 89.1155 233.208 89.1155 229.48C89.1155 225.752 90.7955 223.64 93.6115 223.64C95.4675 223.64 96.7475 224.536 97.4515 226.088L96.3635 226.744C95.9155 225.592 94.9875 224.84 93.6115 224.84C91.6915 224.84 90.5555 226.36 90.5555 228.648V230.312C90.5555 232.6 91.6915 233.992 93.6115 233.992C95.0355 233.992 96.0115 233.192 96.4595 231.976L97.5315 232.648C96.8275 234.216 95.4675 235.192 93.6115 235.192ZM106.925 225.016H103.373V235H102.029V225.016H98.477V223.832H106.925V225.016ZM110.113 230.2V235H108.769V223.832H113.217C115.169 223.832 116.337 224.968 116.337 227C116.337 228.632 115.553 229.736 114.097 230.072L116.657 235H115.137L112.721 230.2H110.113ZM110.113 229.048H113.217C114.273 229.048 114.897 228.472 114.897 227.448V226.616C114.897 225.592 114.273 225.016 113.217 225.016H110.113V229.048ZM125.1 235H119.004V223.832H120.348V233.816H125.1V235Z" fill="#F2F4F8"/>
<path d="M311.354 156.354C311.549 156.158 311.549 155.842 311.354 155.646L308.172 152.464C307.976 152.269 307.66 152.269 307.464 152.464C307.269 152.66 307.269 152.976 307.464 153.172L310.293 156L307.464 158.828C307.269 159.024 307.269 159.34 307.464 159.536C307.66 159.731 307.976 159.731 308.172 159.536L311.354 156.354ZM279 156.5H311V155.5H279V156.5Z" fill="#F2F4F8"/>
<path d="M653.354 156.354C653.549 156.158 653.549 155.842 653.354 155.646L650.172 152.464C649.976 152.269 649.66 152.269 649.464 152.464C649.269 152.66 649.269 152.976 649.464 153.172L652.293 156L649.464 158.828C649.269 159.024 649.269 159.34 649.464 159.536C649.66 159.731 649.976 159.731 650.172 159.536L653.354 156.354ZM621 156.5H653V155.5H621V156.5Z" fill="#F2F4F8"/>
<path d="M949.354 156.354C949.549 156.158 949.549 155.842 949.354 155.646L946.172 152.464C945.976 152.269 945.66 152.269 945.464 152.464C945.269 152.66 945.269 152.976 945.464 153.172L948.293 156L945.464 158.828C945.269 159.024 945.269 159.34 945.464 159.536C945.66 159.731 945.976 159.731 946.172 159.536L949.354 156.354ZM917 156.5H949V155.5H917V156.5Z" fill="#F2F4F8"/>
<path d="M1255.35 156.354C1255.55 156.158 1255.55 155.842 1255.35 155.646L1252.17 152.464C1251.98 152.269 1251.66 152.269 1251.46 152.464C1251.27 152.66 1251.27 152.976 1251.46 153.172L1254.29 156L1251.46 158.828C1251.27 159.024 1251.27 159.34 1251.46 159.536C1251.66 159.731 1251.98 159.731 1252.17 159.536L1255.35 156.354ZM1223 156.5H1255V155.5H1223V156.5Z" fill="#F2F4F8"/>
<path d="M1543.35 156.354C1543.55 156.158 1543.55 155.842 1543.35 155.646L1540.17 152.464C1539.98 152.269 1539.66 152.269 1539.46 152.464C1539.27 152.66 1539.27 152.976 1539.46 153.172L1542.29 156L1539.46 158.828C1539.27 159.024 1539.27 159.34 1539.46 159.536C1539.66 159.731 1539.98 159.731 1540.17 159.536L1543.35 156.354ZM1511 156.5H1543V155.5H1511V156.5Z" fill="#F2F4F8"/>
<path d="M1829.35 156.354C1829.55 156.158 1829.55 155.842 1829.35 155.646L1826.17 152.464C1825.98 152.269 1825.66 152.269 1825.46 152.464C1825.27 152.66 1825.27 152.976 1825.46 153.172L1828.29 156L1825.46 158.828C1825.27 159.024 1825.27 159.34 1825.46 159.536C1825.66 159.731 1825.98 159.731 1826.17 159.536L1829.35 156.354ZM1797 156.5H1829V155.5H1797V156.5Z" fill="#F2F4F8"/>
</svg>
