<?xml version='1.0' encoding='utf-8'?>
<svg xmlns="http://www.w3.org/2000/svg" xmlns:ns1="http://sodipodi.sourceforge.net/DTD/sodipodi-0.dtd" xmlns:ns2="http://www.inkscape.org/namespaces/inkscape" version="1.1" id="svg1" width="100%" height="auto" viewBox="-20.0 -20.0 465.80643 210.86908" ns1:docname="svg_fix_XXXXXX.svg">
  <rect id="path1" x="-20.0" y="-20.0" width="465.80643" height="210.86908" fill="white" /><ns1:namedview id="namedview1" pagecolor="#ffffff" bordercolor="#000000" borderopacity="0.25" ns2:showpageshadow="2" ns2:pageopacity="0.0" ns2:pagecheckerboard="0" ns2:deskcolor="#d1d1d1" />
  <defs id="defs1" />
  <g id="g1" transform="translate(-87.402343,-42.642638)">
    <path id="path2" d="M -28.3468,28.3468 V -28.3468" style="fill:none;stroke:#121619;stroke-width:0.3985;stroke-linecap:butt;stroke-linejoin:miter;stroke-miterlimit:10;stroke-dasharray:0.3985, 0.99628;stroke-dashoffset:0;stroke-opacity:1" transform="matrix(2.5333333,0,0,-2.5333333,279.82013,114.45453)" />
    <g id="g2" aria-label="∣π&#10;1&#10;⟩" transform="matrix(2.5333333,0,0,2.5333333,190.42893,208.94787)">
      <path id="path3" d="m 1.1968437,-6.0932163 v 7.8083882 h 0.5057566 v -7.8083882 z m 0,0" style="fill:#121619;fill-opacity:1;fill-rule:nonzero;stroke:none" />
      <path id="path4" d="m 5.1642574,-2.9106505 h 0.9189967 c -0.1726974,0.7277961 -0.3145559,1.3199013 -0.3145559,1.9058388 0,0.0555099 0,0.40090463 0.086349,0.68462173 0.1048519,0.33922698 0.1850329,0.40090461 0.3268914,0.40090461 0.1788652,0 0.3577303,-0.15419408 0.3577303,-0.34539474 0,-0.0555099 -0.00617,-0.0678454 -0.037007,-0.14185855 C 6.3361324,-0.77043668 6.2127771,-1.152838 6.2127771,-1.8066209 c 0,-0.1850329 0,-0.5180921 0.1233553,-1.1040296 h 0.9621711 c 0.129523,0 0.2158717,0 0.2960526,-0.061678 0.092516,-0.086349 0.1171875,-0.1912007 0.1171875,-0.2405428 0,-0.2220395 -0.1973684,-0.2220395 -0.3330592,-0.2220395 H 4.5043067 c -0.1665296,0 -0.4749177,0 -0.8634868,0.3824014 -0.2837171,0.2898848 -0.5119243,0.6537828 -0.5119243,0.7092927 0,0.074013 0.061678,0.098684 0.1233552,0.098684 0.080181,0 0.092516,-0.024671 0.1418586,-0.092516 0.3885691,-0.573602 0.8634868,-0.573602 1.0423519,-0.573602 h 0.4625823 c -0.2282073,0.8449836 -0.6537829,1.8133224 -0.9436678,2.39309211 -0.05551,0.1171875 -0.1356908,0.27754934 -0.1356908,0.3515625 0,0.16652960711 0.1356908,0.24671053 0.2590461,0.24671053 0.3022204,0 0.3824013,-0.3022204 0.5489309,-0.95600329 z m 0,0" style="fill:#121619;fill-opacity:1;fill-rule:nonzero;stroke:none" />
      <path id="path5" d="m 9.9103512,-2.3586357 c 0,-0.1788651 -0.024671,-0.1788651 -0.2035362,-0.1788651 -0.3947369,0.3824013 -1.0053454,0.3824013 -1.2212171,0.3824013 v 0.2282072 c 0.154194,0 0.5489309,0 0.9128289,-0.1665296 v 3.02220397 c 0,0.19736843 0,0.27138163 -0.6167763,0.27138163 H 8.5226044 v 0.234375 c 0.3268915,-0.024671 0.7956415,-0.024671 1.1287007,-0.024671 0.3330592,0 0.8018089,0 1.1287009,0.024671 v -0.234375 h -0.252879 c -0.6167758,0 -0.6167758,-0.074013 -0.6167758,-0.27138163 z m 0,0" style="fill:#121619;fill-opacity:1;fill-rule:nonzero;stroke:none" />
      <path id="path6" d="m 13.123756,1.8015206 1.437089,-3.9905428 -1.437089,-3.9967105 -0.474918,0.1788651 1.430921,3.8178454 -1.430921,3.8178454 z m 0,0" style="fill:#121619;fill-opacity:1;fill-rule:nonzero;stroke:none" />
    </g>
    <path id="path7" d="M 28.3468,28.3468 V -28.3468" style="fill:none;stroke:#121619;stroke-width:0.3985;stroke-linecap:butt;stroke-linejoin:miter;stroke-miterlimit:10;stroke-dasharray:0.3985, 0.99628;stroke-dashoffset:0;stroke-opacity:1" transform="matrix(2.5333333,0,0,-2.5333333,279.82013,114.45453)" />
    <g id="g7" aria-label="∣π&#10;2&#10;⟩" transform="matrix(2.5333333,0,0,2.5333333,330.464,208.94787)">
      <path id="path8" d="m 1.1968791,-6.0932163 v 7.8083882 h 0.5057566 v -7.8083882 z m 0,0" style="fill:#121619;fill-opacity:1;fill-rule:nonzero;stroke:none" />
      <path id="path9" d="m 5.1642928,-2.9106505 h 0.9189967 c -0.1726974,0.7277961 -0.3145559,1.3199013 -0.3145559,1.9058388 0,0.0555099 0,0.40090463 0.086349,0.68462173 0.104852,0.33922698 0.1850329,0.40090461 0.3268915,0.40090461 0.1788651,0 0.3577302,-0.15419408 0.3577302,-0.34539474 0,-0.0555099 -0.00617,-0.0678454 -0.037007,-0.14185855 C 6.3361678,-0.77043668 6.2128125,-1.152838 6.2128125,-1.8066209 c 0,-0.1850329 0,-0.5180921 0.1233553,-1.1040296 h 0.962171 c 0.129523,0 0.2158717,0 0.2960526,-0.061678 0.092516,-0.086349 0.1171875,-0.1912007 0.1171875,-0.2405428 0,-0.2220395 -0.1973684,-0.2220395 -0.3330592,-0.2220395 H 4.5043421 c -0.1665296,0 -0.4749178,0 -0.8634868,0.3824014 -0.2837171,0.2898848 -0.5119244,0.6537828 -0.5119244,0.7092927 0,0.074013 0.061678,0.098684 0.1233553,0.098684 0.080181,0 0.092516,-0.024671 0.1418585,-0.092516 0.3885691,-0.573602 0.8634869,-0.573602 1.042352,-0.573602 h 0.4625822 c -0.2282072,0.8449836 -0.6537828,1.8133224 -0.9436677,2.39309211 -0.05551,0.1171875 -0.1356908,0.27754934 -0.1356908,0.3515625 0,0.16652960711 0.1356908,0.24671053 0.259046,0.24671053 0.3022204,0 0.3824014,-0.3022204 0.548931,-0.95600329 z m 0,0" style="fill:#121619;fill-opacity:1;fill-rule:nonzero;stroke:none" />
      <path id="path10" d="m 10.97741,0.31817352 h -0.22204 c -0.0062,0.0801809 -0.06784,0.47491776 -0.160362,0.54276316 -0.03701,0.0370066 -0.52426,0.0370066 -0.6106083,0.0370066 H 8.8680345 l 0.7648027,-0.6229441 c 0.2035362,-0.16036184 0.7339638,-0.54276316 0.9251648,-0.72162829 0.178865,-0.17886513 0.419408,-0.48725329 0.419408,-0.91282899 0,-0.7462993 -0.672287,-1.1780427 -1.4740959,-1.1780427 -0.7709703,0 -1.3075657,0.5057566 -1.3075657,1.067023 0,0.3022204 0.2528782,0.339227 0.3207236,0.339227 0.1480264,0 0.3207237,-0.104852 0.3207237,-0.3207237 0,-0.129523 -0.074013,-0.3207237 -0.3392269,-0.3207237 0.1356907,-0.3083881 0.5057565,-0.5365954 0.9128289,-0.5365954 0.6291123,0 0.9621713,0.46875 0.9621713,0.9498355 0,0.4255757 -0.27755,0.86348688 -0.6969575,1.2458882 L 8.257426,1.1816604 c -0.05551,0.061678 -0.061678,0.067845 -0.061678,0.2528783 h 2.596629 z m 0,0" style="fill:#121619;fill-opacity:1;fill-rule:nonzero;stroke:none" />
      <path id="path11" d="m 13.123791,1.8015206 1.437089,-3.9905428 -1.437089,-3.9967105 -0.474918,0.1788651 1.430921,3.8178454 -1.430921,3.8178454 z m 0,0" style="fill:#121619;fill-opacity:1;fill-rule:nonzero;stroke:none" />
    </g>
    <path id="path12" d="M 56.69362,28.3468 V -28.3468" style="fill:none;stroke:#121619;stroke-width:0.3985;stroke-linecap:butt;stroke-linejoin:miter;stroke-miterlimit:10;stroke-dasharray:0.3985, 0.99628;stroke-dashoffset:0;stroke-opacity:1" transform="matrix(2.5333333,0,0,-2.5333333,279.82013,114.45453)" />
    <g id="g12" aria-label="∣π&#10;3&#10;⟩" transform="matrix(2.5333333,0,0,2.5333333,404.07,208.94787)">
      <path id="path13" d="M 1.1966694,-6.0932163 V 1.7151719 H 1.702426 v -7.8083882 z m 0,0" style="fill:#121619;fill-opacity:1;fill-rule:nonzero;stroke:none" />
      <path id="path14" d="m 5.1640831,-2.9106505 h 0.9189967 c -0.1726974,0.7277961 -0.314556,1.3199013 -0.314556,1.9058388 0,0.0555099 0,0.40090463 0.086349,0.68462173 0.104852,0.33922698 0.1850329,0.40090461 0.3268915,0.40090461 0.1788651,0 0.3577302,-0.15419408 0.3577302,-0.34539474 0,-0.0555099 -0.00617,-0.0678454 -0.037007,-0.14185855 C 6.3359581,-0.77043668 6.2126028,-1.152838 6.2126028,-1.8066209 c 0,-0.1850329 0,-0.5180921 0.1233553,-1.1040296 h 0.962171 c 0.129523,0 0.2158717,0 0.2960526,-0.061678 0.092517,-0.086349 0.1171875,-0.1912007 0.1171875,-0.2405428 0,-0.2220395 -0.1973684,-0.2220395 -0.3330592,-0.2220395 H 4.5041324 c -0.1665296,0 -0.4749178,0 -0.8634868,0.3824014 -0.2837171,0.2898848 -0.5119244,0.6537828 -0.5119244,0.7092927 0,0.074013 0.061678,0.098684 0.1233553,0.098684 0.080181,0 0.092516,-0.024671 0.1418585,-0.092516 0.3885691,-0.573602 0.8634869,-0.573602 1.042352,-0.573602 h 0.4625822 c -0.2282072,0.8449836 -0.6537829,1.8133224 -0.9436677,2.39309211 -0.05551,0.1171875 -0.1356908,0.27754934 -0.1356908,0.3515625 0,0.16652960711 0.1356908,0.24671053 0.259046,0.24671053 0.3022204,0 0.3824014,-0.3022204 0.548931,-0.95600329 z m 0,0" style="fill:#121619;fill-opacity:1;fill-rule:nonzero;stroke:none" />
      <path id="path15" d="m 9.5216077,-0.55148109 c 0.5057563,0 0.8449833,0.34539474 0.8449833,0.94983553 0,0.65995066 -0.3885688,0.94366776 -0.82648,0.94366776 -0.1603618,0 -0.7771381,-0.030839 -1.0485197,-0.38240131 0.234375,-0.0185033 0.3330592,-0.17886513 0.3330592,-0.33922698 0,-0.20353618 -0.1480263,-0.33922697 -0.3453947,-0.33922697 -0.1603619,0 -0.339227,0.0986842 -0.339227,0.3515625 0,0.59210526 0.6599506,0.92516446 1.4185855,0.92516446 0.8819897,0 1.4740957,-0.5674342 1.4740957,-1.15953946 0,-0.43174342 -0.33306,-0.89432566 -1.04852,-1.07319079 0.474918,-0.15419408 0.857319,-0.53659535 0.857319,-1.03001645 0,-0.4749178 -0.561266,-0.832648 -1.2767269,-0.832648 -0.703125,0 -1.2335527,0.3207237 -1.2335527,0.807977 0,0.259046 0.1973685,0.3330592 0.314556,0.3330592 0.1603618,0 0.3207236,-0.1110198 0.3207236,-0.3207237 0,-0.1850329 -0.1356907,-0.2898849 -0.2960526,-0.3145559 0.2837171,-0.3083882 0.8264803,-0.3083882 0.8819901,-0.3083882 0.3022204,0 0.6846215,0.1418586 0.6846215,0.6352796 0,0.3330592 -0.185033,0.90666119 -0.7833057,0.9375 -0.1048519,0.006168 -0.2652138,0.0185033 -0.3207236,0.0185033 -0.061678,0.006168 -0.1233553,0.0123355 -0.1233553,0.10485198 0,0.0925164 0.061678,0.0925164 0.1665296,0.0925164 z m 0,0" style="fill:#121619;fill-opacity:1;fill-rule:nonzero;stroke:none" />
      <path id="path16" d="m 13.123581,1.8015206 1.437089,-3.9905428 -1.437089,-3.9967105 -0.474917,0.1788651 1.430921,3.8178454 -1.430921,3.8178454 z m 0,0" style="fill:#121619;fill-opacity:1;fill-rule:nonzero;stroke:none" />
    </g>
    <path id="path17" d="M 62.36298,5.66936 H 79.37104 V 22.67742 H 62.36298 Z" style="fill:#000000;fill-opacity:1;fill-rule:nonzero;stroke:#000000;stroke-width:0.3985;stroke-linecap:butt;stroke-linejoin:miter;stroke-miterlimit:10;stroke-dasharray:none;stroke-opacity:1" transform="matrix(2.5333333,0,0,-2.5333333,279.82013,114.45453)" />
    <path id="path18" d="m 76.53629,11.62228 c 0,3.13112 -2.53824,5.66936 -5.66936,5.66936 -3.13112,0 -5.66934,-2.53824 -5.66934,-5.66936" style="fill:none;stroke:#ffffff;stroke-width:0.79701;stroke-linecap:butt;stroke-linejoin:miter;stroke-miterlimit:10;stroke-dasharray:none;stroke-opacity:1" transform="matrix(2.5333333,0,0,-2.5333333,279.82013,114.45453)" />
    <path id="path19" d="m 70.867,11.90561 5.66929,4.81889" style="fill:none;stroke:#ffffff;stroke-width:0.79701;stroke-linecap:butt;stroke-linejoin:miter;stroke-miterlimit:10;stroke-dasharray:none;stroke-opacity:1" transform="matrix(2.5333333,0,0,-2.5333333,279.82013,114.45453)" />
    <path id="path20" d="m 71.7174,11.90561 c 0,0.46966 -0.38073,0.85039 -0.8504,0.85039 -0.46966,0 -0.85038,-0.38073 -0.85038,-0.85039 0,-0.46967 0.38072,-0.85041 0.85038,-0.85041 0.46967,0 0.8504,0.38074 0.8504,0.85041 z" style="fill:#ffffff;fill-opacity:1;fill-rule:nonzero;stroke:none" transform="matrix(2.5333333,0,0,-2.5333333,279.82013,114.45453)" />
    <path id="path21" d="M -60.92459,14.17339 H 62.16373" style="fill:none;stroke:#121619;stroke-width:0.3985;stroke-linecap:butt;stroke-linejoin:miter;stroke-miterlimit:10;stroke-dasharray:none;stroke-opacity:1" transform="matrix(2.5333333,0,0,-2.5333333,279.82013,114.45453)" />
    <path id="path22" d="M -60.92459,-14.17339 H 92.1271" style="fill:none;stroke:#121619;stroke-width:0.3985;stroke-linecap:butt;stroke-linejoin:miter;stroke-miterlimit:10;stroke-dasharray:none;stroke-opacity:1" transform="matrix(2.5333333,0,0,-2.5333333,279.82013,114.45453)" />
    <g id="g22" aria-label="∣0⟩" transform="matrix(2.5333333,0,0,2.5333333,84.370933,84.100133)">
      <path id="path23" d="M 1.1966094,-6.0931859 V 1.7152023 H 1.702366 v -7.8083882 z m 0,0" style="fill:#121619;fill-opacity:1;fill-rule:nonzero;stroke:none" />
      <path id="path24" d="m 6.7984803,-2.5405543 c 0,-0.8511513 -0.086349,-1.3692434 -0.3515625,-1.8811677 -0.3515625,-0.703125 -0.9991777,-0.8758224 -1.4370889,-0.8758224 -0.9991776,0 -1.3692434,0.7462993 -1.4802631,0.9683388 -0.2837171,0.5859375 -0.3022204,1.3754112 -0.3022204,1.7886513 0,0.5242599 0.024671,1.3322369 0.4070724,1.96751647 0.363898,0.59210526 0.9560033,0.74013158 1.3754111,0.74013158 0.3824014,0 1.0731908,-0.1171875 1.4679277,-0.90666118 C 6.7738092,-1.3131694 6.7984803,-2.0224622 6.7984803,-2.5405543 Z m -1.7886514,2.48560858 c -0.2713815,0 -0.8203125,-0.12952303 -0.9868421,-0.96217108 -0.086349,-0.4564144 -0.086349,-1.2027138 -0.086349,-1.6221217 0,-0.5489309 0,-1.1040296 0.086349,-1.5419408 0.1665296,-0.8141447 0.7894737,-0.8943256 0.9868421,-0.8943256 0.2713816,0 0.8203125,0.1356908 0.9806744,0.8634868 0.098684,0.4379112 0.098684,1.0300165 0.098684,1.5727796 0,0.4749178 0,1.1903783 -0.098684,1.6344573 -0.1665296,0.83881574 -0.7154605,0.94983548 -0.9806744,0.94983548 z m 0,0" style="fill:#121619;fill-opacity:1;fill-rule:nonzero;stroke:none" />
      <path id="path25" d="m 8.3435049,1.801551 1.4370888,-3.9905428 -1.4370888,-3.9967105 -0.4749177,0.1788651 1.430921,3.8178454 -1.430921,3.8178454 z m 0,0" style="fill:#121619;fill-opacity:1;fill-rule:nonzero;stroke:none" />
    </g>
    <g id="g25" aria-label="∣1⟩" transform="matrix(2.5333333,0,0,2.5333333,84.370933,155.91253)">
      <path id="path26" d="M 1.1966094,-6.0931464 V 1.7152418 H 1.702366 v -7.8083882 z m 0,0" style="fill:#121619;fill-opacity:1;fill-rule:nonzero;stroke:none" />
      <path id="path27" d="m 5.4045658,-5.0754655 c 0,-0.2158717 -0.018503,-0.2220394 -0.234375,-0.2220394 -0.3268915,0.3145559 -0.7462994,0.5119243 -1.5049342,0.5119243 v 0.2590461 c 0.2158717,0 0.6476151,0 1.1101973,-0.2158717 v 4.08922692 c 0,0.29605264 -0.024671,0.38856908 -0.7833059,0.38856908 H 3.7145987 V 6.0361842e-4 C 4.0414901,-0.02406743 4.7261118,-0.02406743 5.0838421,-0.02406743 c 0.3577303,0 1.0546875,0 1.381579,0.0246710484 V -0.2646102 H 6.1817039 c -0.7524671,0 -0.7771381,-0.0925164 -0.7771381,-0.38856908 z m 0,0" style="fill:#121619;fill-opacity:1;fill-rule:nonzero;stroke:none" />
      <path id="path28" d="m 8.3435049,1.8015905 1.4370888,-3.9905428 -1.4370888,-3.9967105 -0.4749177,0.1788651 1.430921,3.8178454 -1.430921,3.8178454 z m 0,0" style="fill:#121619;fill-opacity:1;fill-rule:nonzero;stroke:none" />
    </g>
    <path id="path29" d="m -51.02423,5.66936 h 17.00806 v 17.00806 h -17.00806 z" style="fill:#78a9ff;fill-opacity:1;fill-rule:nonzero;stroke:#78a9ff;stroke-width:0.3985;stroke-linecap:butt;stroke-linejoin:miter;stroke-miterlimit:10;stroke-dasharray:none;stroke-opacity:1" transform="matrix(2.5333333,0,0,-2.5333333,279.82013,114.45453)" />
    <path id="path30" d="m 6.3657204,-4.797986 c 0.080181,-0.3083882 0.098684,-0.3824013 0.6537829,-0.3824013 0.1850329,0 0.2775493,0 0.2775493,-0.1480264 0,-0.012336 -0.00617,-0.1110197 -0.129523,-0.1110197 -0.1541941,0 -0.3453947,0.012336 -0.4995888,0.018503 H 6.168352 c -0.7648027,0 -0.9745066,-0.018503 -1.0300165,-0.018503 -0.030839,0 -0.1541941,0 -0.1541941,0.1480263 0,0.1110198 0.098684,0.1110198 0.2282073,0.1110198 0.2652138,0 0.493421,0 0.493421,0.129523 0,0.030839 -0.00617,0.037007 -0.030839,0.1418585 L 5.1938454,-2.9661604 H 2.6280559 l 0.4625823,-1.8564967 c 0.074013,-0.2837171 0.092516,-0.3577302 0.6722861,-0.3577302 0.1603619,0 0.2528783,0 0.2528783,-0.1480264 0,-0.012336 -0.00617,-0.1110197 -0.1356908,-0.1110197 -0.1480263,0 -0.3392269,0.012336 -0.493421,0.018503 H 2.887102 c -0.7648027,0 -0.9745066,-0.018503 -1.0300165,-0.018503 -0.030839,0 -0.1603618,0 -0.1603618,0.1480263 0,0.1110198 0.104852,0.1110198 0.234375,0.1110198 0.259046,0 0.493421,0 0.493421,0.129523 0,0.030839 -0.012335,0.037007 -0.030839,0.1418585 l -1.0731908,4.28042768 c -0.067845,0.30222039 -0.086349,0.36389802 -0.67228615,0.36389802 -0.15419408,0 -0.24671053,0 -0.24671053,0.15419408 0,0.03083882 0.0185033,0.11101973711 0.12335526,0.11101973711 0.15419408,0 0.34539474,-0.0185032871 0.49342102,-0.0246710571 h 0.5119244 c 0.7648026,0 0.9745066,0.0246710571 1.0300164,0.0246710571 0.043174,0 0.1603619,0 0.1603619,-0.15419407711 0,-0.11101974 -0.104852,-0.11101974 -0.2405428,-0.11101974 -0.024671,0 -0.1665296,0 -0.3022204,-0.0123355 -0.1665296,-0.0185033 -0.1850329,-0.0431743 -0.1850329,-0.11101974 0,-0.0431743 0.018503,-0.0925165 0.024671,-0.12952303 L 2.5602105,-2.7009465 H 5.126 c -0.234375,0.9375 -0.5427632,2.18338811 -0.5489309,2.18338811 -0.074013,0.24671053 -0.2158717,0.24671053 -0.6969573,0.25287829 -0.092516,0 -0.1973684,0 -0.1973684,0.15419408 0,0.03083882 0.024671,0.11101973711 0.129523,0.11101973711 0.1480264,0 0.339227,-0.0185032871 0.4934211,-0.0246710571 h 0.5057566 c 0.7648026,0 0.9745066,0.0246710571 1.0300164,0.0246710571 0.049342,0 0.1603619,0 0.1603619,-0.15419407711 0,-0.11101974 -0.104852,-0.11101974 -0.2405428,-0.11101974 -0.024671,0 -0.1665296,0 -0.3022204,-0.0123355 -0.1665296,-0.0185033 -0.1850329,-0.0431743 -0.1850329,-0.11101974 0,-0.0431743 0.018503,-0.0925165 0.024671,-0.12952303 z m 0,0" style="fill:#ffffff;fill-opacity:1;fill-rule:nonzero;stroke:none" aria-label="H" transform="matrix(2.5333333,0,0,2.5333333,162.51413,85.447867)" />
    <path id="path31" d="m -51.02423,-22.67743 h 17.00806 v 17.00806 h -17.00806 z" style="fill:#78a9ff;fill-opacity:1;fill-rule:nonzero;stroke:#78a9ff;stroke-width:0.3985;stroke-linecap:butt;stroke-linejoin:miter;stroke-miterlimit:10;stroke-dasharray:none;stroke-opacity:1" transform="matrix(2.5333333,0,0,-2.5333333,279.82013,114.45453)" />
    <path id="path32" d="m 6.3657204,-4.7979465 c 0.080181,-0.3083882 0.098684,-0.3824014 0.6537829,-0.3824014 0.1850329,0 0.2775493,0 0.2775493,-0.1480263 0,-0.012335 -0.00617,-0.1110197 -0.129523,-0.1110197 -0.1541941,0 -0.3453947,0.012335 -0.4995888,0.018503 H 6.168352 c -0.7648027,0 -0.9745066,-0.018503 -1.0300165,-0.018503 -0.030839,0 -0.1541941,0 -0.1541941,0.1480263 0,0.1110197 0.098684,0.1110197 0.2282073,0.1110197 0.2652138,0 0.493421,0 0.493421,0.1295231 0,0.030839 -0.00617,0.037007 -0.030839,0.1418585 L 5.1938454,-2.9661209 H 2.6280559 l 0.4625823,-1.8564967 c 0.074013,-0.2837171 0.092516,-0.3577303 0.6722861,-0.3577303 0.1603619,0 0.2528783,0 0.2528783,-0.1480263 0,-0.012335 -0.00617,-0.1110197 -0.1356908,-0.1110197 -0.1480263,0 -0.3392269,0.012335 -0.493421,0.018503 H 2.887102 c -0.7648027,0 -0.9745066,-0.018503 -1.0300165,-0.018503 -0.030839,0 -0.1603618,0 -0.1603618,0.1480263 0,0.1110197 0.104852,0.1110197 0.234375,0.1110197 0.259046,0 0.493421,0 0.493421,0.1295231 0,0.030839 -0.012335,0.037007 -0.030839,0.1418585 l -1.0731908,4.28042765 c -0.067845,0.30222039 -0.086349,0.36389803 -0.67228615,0.36389803 -0.15419408,0 -0.24671053,0 -0.24671053,0.15419407 0,0.03083882 0.0185033,0.11101974079 0.12335526,0.11101974079 0.15419408,0 0.34539474,-0.0185032908 0.49342102,-0.0246710508 h 0.5119244 c 0.7648026,0 0.9745066,0.0246710508 1.0300164,0.0246710508 0.043174,0 0.1603619,0 0.1603619,-0.15419408079 0,-0.11101973 -0.104852,-0.11101973 -0.2405428,-0.11101973 -0.024671,0 -0.1665296,0 -0.3022204,-0.0123355 -0.1665296,-0.0185033 -0.1850329,-0.0431743 -0.1850329,-0.11101974 0,-0.0431743 0.018503,-0.0925164 0.024671,-0.12952302 L 2.5602105,-2.7009071 H 5.126 c -0.234375,0.9375 -0.5427632,2.18338819 -0.5489309,2.18338819 -0.074013,0.24671052 -0.2158717,0.24671052 -0.6969573,0.25287829 -0.092516,0 -0.1973684,0 -0.1973684,0.15419407 0,0.03083882 0.024671,0.11101974079 0.129523,0.11101974079 0.1480264,0 0.339227,-0.0185032908 0.4934211,-0.0246710508 h 0.5057566 c 0.7648026,0 0.9745066,0.0246710508 1.0300164,0.0246710508 0.049342,0 0.1603619,0 0.1603619,-0.15419408079 0,-0.11101973 -0.104852,-0.11101973 -0.2405428,-0.11101973 -0.024671,0 -0.1665296,0 -0.3022204,-0.0123355 -0.1665296,-0.0185033 -0.1850329,-0.0431743 -0.1850329,-0.11101974 0,-0.0431743 0.018503,-0.0925164 0.024671,-0.12952302 z m 0,0" style="fill:#ffffff;fill-opacity:1;fill-rule:nonzero;stroke:none" aria-label="H" transform="matrix(2.5333333,0,0,2.5333333,162.51413,157.26027)" />
    <path id="path33" d="M -22.67744,-22.67744 H 22.67745 V 22.67745 H -22.67744 Z" style="fill:#78a9ff;fill-opacity:1;fill-rule:nonzero;stroke:#78a9ff;stroke-width:0.3985;stroke-linecap:butt;stroke-linejoin:miter;stroke-miterlimit:10;stroke-dasharray:none;stroke-opacity:1" transform="matrix(2.5333333,0,0,-2.5333333,279.82013,114.45453)" />
    <g id="g33" aria-label="U&#10;f" transform="matrix(2.5333333,0,0,2.5333333,266.5176,118.06453)">
      <path id="path34" d="m 5.3173742,-4.575741 c 0.092516,-0.388569 0.2775493,-0.5797697 0.8449835,-0.6044407 0.080181,0 0.1418586,-0.049342 0.1418586,-0.1480264 0,-0.049342 -0.037007,-0.1110197 -0.1171875,-0.1110197 -0.043174,0 -0.2158717,0.018503 -0.7894737,0.018503 -0.6414474,0 -0.7401316,-0.018503 -0.8141447,-0.018503 -0.1295231,0 -0.1541941,0.086349 -0.1541941,0.1480263 0,0.104852 0.104852,0.1110198 0.1788651,0.1110198 0.4872533,0.018503 0.4872533,0.234375 0.4872533,0.3453947 0,0.049342 -0.012336,0.086349 -0.018503,0.1356908 -0.018503,0.05551 -0.6784539,2.7261513 -0.7092927,2.8248355 -0.2837172,1.14720396 -1.2890625,1.7763158 -2.0785362,1.7763158 -0.548931,0 -1.042352,-0.32072369 -1.042352,-1.0546875 0,-0.1356908 0.018503,-0.3515625 0.05551,-0.4810855 l 0.7956414,-3.1887336 c 0.067845,-0.2837171 0.086349,-0.3577302 0.6661184,-0.3577302 0.1603619,0 0.2590461,0 0.2590461,-0.1480264 0,-0.012335 -0.012336,-0.1110197 -0.1356908,-0.1110197 -0.1541941,0 -0.3453947,0.012336 -0.4934211,0.018503 H 1.8880979 c -0.7648027,0 -0.96833885,-0.018503 -1.02384872,-0.018503 -0.0370066,0 -0.16036184,0 -0.16036184,0.1480263 0,0.1110198 0.0986842,0.1110198 0.22820723,0.1110198 0.26521383,0 0.49342103,0 0.49342103,0.129523 0,0.049342 -0.067845,0.3330592 -0.1171875,0.493421 l -0.1788651,0.703125 -0.41324014,1.6899671 c -0.11101974,0.4379112 -0.14185855,0.5550987 -0.14185855,0.7709704 0,0.93133227 0.73396379,1.56044411 1.68379939,1.56044411 1.0793585,0 2.1032072,-0.91282894 2.3560855,-1.94284541 z m 0,0" style="fill:#ffffff;fill-opacity:1;fill-rule:nonzero;stroke:none" />
      <path id="path35" d="m 8.3071974,-0.90283799 h 0.6044408 c 0.1233552,0 0.2035361,0 0.2035361,-0.14802631 0,-0.092517 -0.074013,-0.092517 -0.1850329,-0.092517 H 8.3442039 c 0.1788652,-0.9806743 0.1788652,-0.9868421 0.2035362,-1.0978618 0.030839,-0.129523 0.043174,-0.1850329 0.1356908,-0.2590461 0.067845,-0.049342 0.1233553,-0.074013 0.2158717,-0.074013 0.092517,0 0.1912007,0.012336 0.2713816,0.05551 -0.1171875,0.043174 -0.2282072,0.1788651 -0.2282072,0.3207236 0,0.1233553 0.1048519,0.2282073 0.2467105,0.2282073 0.1541941,0 0.339227,-0.1356908 0.339227,-0.363898 0,-0.3330593 -0.3700658,-0.4379112 -0.6291119,-0.4379112 -0.2713815,0 -0.6784539,0.1233552 -0.857319,0.7216283 -0.049342,0.1480263 -0.067845,0.2713815 -0.104852,0.4872532 -0.030839,0.1726974 -0.043174,0.2467106 -0.080181,0.4194079 H 7.3696974 c -0.1233553,0 -0.2035362,0 -0.2035362,0.15419412 0,0.0863487 0.074013,0.0863487 0.1850329,0.0863487 H 7.8137763 C 7.5794013,0.43556661 7.4992204,0.89814885 7.4745493,1.0030008 7.2895164,2.0330173 7.2586776,2.0946949 7.2031678,2.1933791 7.1229868,2.3352377 7.0181349,2.4585929 6.8701086,2.4585929 c -0.037007,0 -0.1665297,-0.012336 -0.2652139,-0.05551 C 6.72825,2.353741 6.833102,2.2242179 6.833102,2.0823594 c 0,-0.1295231 -0.098684,-0.2282073 -0.2405428,-0.2282073 -0.1603618,0 -0.3453947,0.1295231 -0.3453947,0.3638981 0,0.3330592 0.3762335,0.4379111 0.6167763,0.4379111 0.3268914,0 0.5612664,-0.2713815 0.6722862,-0.4009046 0.259046,-0.3515625 0.3885691,-1.067023 0.4009046,-1.1163651 z m 0,0" style="fill:#ffffff;fill-opacity:1;fill-rule:nonzero;stroke:none" />
    </g>
    <path id="path36" d="M 34.01617,5.66936 H 51.02423 V 22.67742 H 34.01617 Z" style="fill:#78a9ff;fill-opacity:1;fill-rule:nonzero;stroke:#78a9ff;stroke-width:0.3985;stroke-linecap:butt;stroke-linejoin:miter;stroke-miterlimit:10;stroke-dasharray:none;stroke-opacity:1" transform="matrix(2.5333333,0,0,-2.5333333,279.82013,114.45453)" />
    <path id="path37" d="m 6.3652969,-4.797986 c 0.080181,-0.3083882 0.098684,-0.3824013 0.6537829,-0.3824013 0.1850329,0 0.2775493,0 0.2775493,-0.1480264 0,-0.012336 -0.00617,-0.1110197 -0.129523,-0.1110197 -0.1541941,0 -0.3453948,0.012336 -0.4995888,0.018503 H 6.1679285 c -0.7648027,0 -0.9745066,-0.018503 -1.0300165,-0.018503 -0.030839,0 -0.1541941,0 -0.1541941,0.1480263 0,0.1110198 0.098684,0.1110198 0.2282073,0.1110198 0.2652138,0 0.493421,0 0.493421,0.129523 0,0.030839 -0.00617,0.037007 -0.030839,0.1418585 L 5.1934219,-2.9661604 H 2.6276324 l 0.4625822,-1.8564967 c 0.074013,-0.2837171 0.092516,-0.3577302 0.6722862,-0.3577302 0.1603619,0 0.2528783,0 0.2528783,-0.1480264 0,-0.012336 -0.00617,-0.1110197 -0.1356908,-0.1110197 -0.1480263,0 -0.339227,0.012336 -0.493421,0.018503 H 2.8866785 c -0.7648027,0 -0.9745066,-0.018503 -1.0300165,-0.018503 -0.030839,0 -0.1603618,0 -0.1603618,0.1480263 0,0.1110198 0.1048519,0.1110198 0.234375,0.1110198 0.259046,0 0.493421,0 0.493421,0.129523 0,0.030839 -0.012336,0.037007 -0.030839,0.1418585 l -1.0731908,4.28042768 c -0.067845,0.30222039 -0.086349,0.36389802 -0.67228617,0.36389802 -0.15419408,0 -0.24671053,0 -0.24671053,0.15419408 0,0.03083882 0.0185033,0.11101973711 0.12335526,0.11101973711 0.15419408,0 0.34539474,-0.0185032871 0.49342104,-0.0246710571 h 0.5119244 c 0.7648026,0 0.9745065,0.0246710571 1.0300164,0.0246710571 0.043174,0 0.1603618,0 0.1603618,-0.15419407711 0,-0.11101974 -0.1048519,-0.11101974 -0.2405427,-0.11101974 -0.024671,0 -0.1665296,0 -0.3022204,-0.0123355 -0.1665296,-0.0185033 -0.1850329,-0.0431743 -0.1850329,-0.11101974 0,-0.0431743 0.018503,-0.0925165 0.024671,-0.12952303 L 2.559787,-2.7009465 h 2.5657895 c -0.234375,0.9375 -0.5427632,2.18338811 -0.5489309,2.18338811 -0.074013,0.24671053 -0.2158718,0.24671053 -0.6969573,0.25287829 -0.092516,0 -0.1973684,0 -0.1973684,0.15419408 0,0.03083882 0.024671,0.11101973711 0.129523,0.11101973711 0.1480263,0 0.339227,-0.0185032871 0.4934211,-0.0246710571 h 0.5057566 c 0.7648026,0 0.9745065,0.0246710571 1.0300164,0.0246710571 0.049342,0 0.1603618,0 0.1603618,-0.15419407711 0,-0.11101974 -0.1048519,-0.11101974 -0.2405427,-0.11101974 -0.024671,0 -0.1665296,0 -0.3022204,-0.0123355 -0.1665296,-0.0185033 -0.1850329,-0.0431743 -0.1850329,-0.11101974 0,-0.0431743 0.018503,-0.0925165 0.024671,-0.12952303 z m 0,0" style="fill:#ffffff;fill-opacity:1;fill-rule:nonzero;stroke:none" aria-label="H" transform="matrix(2.5333333,0,0,2.5333333,377.9488,85.447867)" />
    <path id="path38" d="M 79.5703,13.60646 H 92.1271" style="fill:none;stroke:#121619;stroke-width:0.3985;stroke-linecap:butt;stroke-linejoin:miter;stroke-miterlimit:10;stroke-dasharray:none;stroke-opacity:1" transform="matrix(2.5333333,0,0,-2.5333333,279.82013,114.45453)" />
    <path id="path39" d="M 79.5703,14.74031 H 92.1271" style="fill:none;stroke:#121619;stroke-width:0.3985;stroke-linecap:butt;stroke-linejoin:miter;stroke-miterlimit:10;stroke-dasharray:none;stroke-opacity:1" transform="matrix(2.5333333,0,0,-2.5333333,279.82013,114.45453)" />
  </g>
</svg>