<?xml version="1.0" encoding="UTF-8"?><!DOCTYPE svg  PUBLIC '-//W3C//DTD SVG 1.1//EN'  'http://www.w3.org/Graphics/SVG/1.1/DTD/svg11.dtd'><svg width="274.4pt" height="46.848pt" version="1.1" viewBox="0 0 274.4 46.848" xmlns="http://www.w3.org/2000/svg" xmlns:xlink="http://www.w3.org/1999/xlink"><defs><style type="text/css">*{stroke-linejoin: round; stroke-linecap: butt}</style></defs><path d="m0 46.848h274.4v-46.848h-274.4z" fill="#ffffff"/><path d="m30.795 25.742h234.09" clip-path="url(#e27dce8b666)" fill="none" stroke="#000000" stroke-linecap="square"/><path d="m28.477 14.153h-579.42v46.354h579.42z" clip-path="url(#e27dce8b666)" fill="#ffffff" stroke="#ffffff" stroke-width=".75"/><path d="m35.778 33.274h15.065v-15.065h-15.065z" clip-path="url(#e27dce8b666)" fill="#fa4d56" stroke="#fa4d56" stroke-width=".75"/><path d="m58.955 33.274h15.065v-15.065h-15.065z" clip-path="url(#e27dce8b666)" fill="#fa4d56" stroke="#fa4d56" stroke-width=".75"/><path d="m82.132 33.274h15.065v-15.065h-15.065z" clip-path="url(#e27dce8b666)" fill="#fa4d56" stroke="#fa4d56" stroke-width=".75"/><path d="m105.31 33.274h15.065v-15.065h-15.065z" clip-path="url(#e27dce8b666)" fill="#fa4d56" stroke="#fa4d56" stroke-width=".75"/><path d="m128.49 33.274h15.065v-15.065h-15.065z" clip-path="url(#e27dce8b666)" fill="#fa4d56" stroke="#fa4d56" stroke-width=".75"/><path d="m151.66 33.274h15.065v-15.065h-15.065z" clip-path="url(#e27dce8b666)" fill="#fa4d56" stroke="#fa4d56" stroke-width=".75"/><path d="m174.84 33.274h15.065v-15.065h-15.065z" clip-path="url(#e27dce8b666)" fill="#fa4d56" stroke="#fa4d56" stroke-width=".75"/><path d="m198.02 33.274h15.065v-15.065h-15.065z" clip-path="url(#e27dce8b666)" fill="#fa4d56" stroke="#fa4d56" stroke-width=".75"/><path d="m221.19 33.274h15.065v-15.065h-15.065z" clip-path="url(#e27dce8b666)" fill="#fa4d56" stroke="#fa4d56" stroke-width=".75"/><path d="m244.37 33.274h15.065v-15.065h-15.065z" clip-path="url(#e27dce8b666)" fill="#fa4d56" stroke="#fa4d56" stroke-width=".75"/><g clip-path="url(#e27dce8b666)"><g transform="translate(20.96 27.967) scale(.08125 -.08125)"><defs><path id="DejaVuSans-Oblique-71" transform="scale(.015625)" d="m2669 525q-231-303-546-460-314-156-695-156-531 0-833 358-301 358-301 986 0 506 186 978t533 847q225 244 517 375t614 131q387 0 637-153t363-462l100 525h578l-934-4813h-579l360 1844zm-1778 813q0-463 193-705 194-242 560-242 544 0 928 520t384 1264q0 450-199 689-198 239-569 239-272 0-504-127-231-126-403-370-181-256-286-600-104-343-104-668z"/></defs><use xlink:href="#DejaVuSans-Oblique-71"/></g></g><g clip-path="url(#e27dce8b666)"><g transform="translate(40.867 27.535) scale(.065 -.065)"><defs><path id="DejaVuSans-48" transform="scale(.015625)" d="m628 4666h631v-1913h2294v1913h631v-4666h-631v2222h-2294v-2222h-631v4666z"/></defs><use xlink:href="#DejaVuSans-48"/></g></g><g clip-path="url(#e27dce8b666)"><g transform="translate(64.044 27.535) scale(.065 -.065)"><use xlink:href="#DejaVuSans-48"/></g></g><g clip-path="url(#e27dce8b666)"><g transform="translate(87.221 27.535) scale(.065 -.065)"><use xlink:href="#DejaVuSans-48"/></g></g><g clip-path="url(#e27dce8b666)"><g transform="translate(110.4 27.535) scale(.065 -.065)"><use xlink:href="#DejaVuSans-48"/></g></g><g clip-path="url(#e27dce8b666)"><g transform="translate(133.57 27.535) scale(.065 -.065)"><use xlink:href="#DejaVuSans-48"/></g></g><g clip-path="url(#e27dce8b666)"><g transform="translate(156.75 27.535) scale(.065 -.065)"><use xlink:href="#DejaVuSans-48"/></g></g><g clip-path="url(#e27dce8b666)"><g transform="translate(179.93 27.535) scale(.065 -.065)"><use xlink:href="#DejaVuSans-48"/></g></g><g clip-path="url(#e27dce8b666)"><g transform="translate(203.11 27.535) scale(.065 -.065)"><use xlink:href="#DejaVuSans-48"/></g></g><g clip-path="url(#e27dce8b666)"><g transform="translate(226.28 27.535) scale(.065 -.065)"><use xlink:href="#DejaVuSans-48"/></g></g><g clip-path="url(#e27dce8b666)"><g transform="translate(249.46 27.535) scale(.065 -.065)"><use xlink:href="#DejaVuSans-48"/></g></g><defs><clipPath id="e27dce8b666"><rect x="7.2" y="7.2" width="260" height="32.448"/></clipPath></defs></svg>