<?xml version="1.0" encoding="UTF-8"?><!DOCTYPE svg  PUBLIC '-//W3C//DTD SVG 1.1//EN'  'http://www.w3.org/Graphics/SVG/1.1/DTD/svg11.dtd'><svg width="569.34pt" height="303.38pt" version="1.1" viewBox="0 0 569.34 303.38" xmlns="http://www.w3.org/2000/svg" xmlns:xlink="http://www.w3.org/1999/xlink"><defs><style type="text/css">*{stroke-linejoin: round; stroke-linecap: butt}</style></defs><path d="m0 303.38h569.34v-303.38h-569.34z" fill="#ffffff"/><path d="m32.015 271.36h247.52v-247.52h-247.52z" fill="#808080"/><path d="m32.015 85.72h61.88v-61.88h-61.88z" clip-path="url(#2ead3345175)" fill="#ffffff" stroke="#ffffff"/><path d="m98.818 80.797h52.035v-52.035h-52.035z" clip-path="url(#2ead3345175)" fill="#ffffff" stroke="#ffffff"/><path d="m186.72 54.78z" clip-path="url(#2ead3345175)" stroke="#000000"/><path d="m248.6 54.78z" clip-path="url(#2ead3345175)" stroke="#000000"/><path d="m36.938 142.68h52.035v-52.035h-52.035z" clip-path="url(#2ead3345175)" fill="#ffffff" stroke="#ffffff"/><path d="m102.96 138.54h43.756v-43.756h-43.756z" clip-path="url(#2ead3345175)" fill="#ffffff" stroke="#ffffff"/><path d="m186.72 116.66z" clip-path="url(#2ead3345175)" stroke="#000000"/><path d="m248.6 116.66z" clip-path="url(#2ead3345175)" stroke="#000000"/><path d="m62.955 178.54z" clip-path="url(#2ead3345175)" stroke="#000000"/><path d="m124.84 178.54z" clip-path="url(#2ead3345175)" stroke="#000000"/><path d="m186.72 178.54z" clip-path="url(#2ead3345175)" stroke="#000000"/><path d="m248.6 178.54z" clip-path="url(#2ead3345175)" stroke="#000000"/><path d="m62.955 240.42z" clip-path="url(#2ead3345175)" stroke="#000000"/><path d="m124.84 240.42z" clip-path="url(#2ead3345175)" stroke="#000000"/><path d="m186.72 240.42z" clip-path="url(#2ead3345175)" stroke="#000000"/><path d="m226.72 262.3h43.756v-43.756h-43.756z" clip-path="url(#2ead3345175)" fill="#ffffff" stroke="#ffffff"/><defs><path id="8b47e9f17b7" d="m0 0v3.5" stroke="#000000" stroke-width=".8"/></defs><use x="62.955" y="271.36" stroke="#000000" stroke-width=".8" xlink:href="#8b47e9f17b7"/><g transform="translate(66.592 296.18) rotate(-90) scale(.14 -.14)"><defs><path id="DejaVuSans-13" transform="scale(.015625)" d="m2034 4250q-487 0-733-480-245-479-245-1442 0-959 245-1439 246-480 733-480 491 0 736 480 246 480 246 1439 0 963-246 1442-245 480-736 480zm0 500q785 0 1199-621 414-620 414-1801 0-1178-414-1799-414-620-1199-620-784 0-1198 620-414 621-414 1799 0 1181 414 1801 414 621 1198 621z"/></defs><use xlink:href="#DejaVuSans-13"/><use transform="translate(63.625)" xlink:href="#DejaVuSans-13"/></g><use x="124.835" y="271.36" stroke="#000000" stroke-width=".8" xlink:href="#8b47e9f17b7"/><g transform="translate(128.47 296.18) rotate(-90) scale(.14 -.14)"><defs><path id="DejaVuSans-14" transform="scale(.015625)" d="m794 531h1031v3560l-1122-225v575l1116 225h631v-4135h1031v-531h-2687v531z"/></defs><use xlink:href="#DejaVuSans-13"/><use transform="translate(63.625)" xlink:href="#DejaVuSans-14"/></g><use x="186.715" y="271.36" stroke="#000000" stroke-width=".8" xlink:href="#8b47e9f17b7"/><g transform="translate(190.35 296.18) rotate(-90) scale(.14 -.14)"><use xlink:href="#DejaVuSans-14"/><use transform="translate(63.625)" xlink:href="#DejaVuSans-13"/></g><use x="248.595" y="271.36" stroke="#000000" stroke-width=".8" xlink:href="#8b47e9f17b7"/><g transform="translate(252.23 296.18) rotate(-90) scale(.14 -.14)"><use xlink:href="#DejaVuSans-14"/><use transform="translate(63.625)" xlink:href="#DejaVuSans-14"/></g><defs><path id="eccb1493ffd" d="m0 0h-3.5" stroke="#000000" stroke-width=".8"/></defs><use x="32.015" y="240.42" stroke="#000000" stroke-width=".8" xlink:href="#eccb1493ffd"/><g transform="translate(7.2 245.74) scale(.14 -.14)"><use xlink:href="#DejaVuSans-14"/><use transform="translate(63.625)" xlink:href="#DejaVuSans-14"/></g><use x="32.015" y="178.54" stroke="#000000" stroke-width=".8" xlink:href="#eccb1493ffd"/><g transform="translate(7.2 183.86) scale(.14 -.14)"><use xlink:href="#DejaVuSans-14"/><use transform="translate(63.625)" xlink:href="#DejaVuSans-13"/></g><use x="32.015" y="116.66" stroke="#000000" stroke-width=".8" xlink:href="#eccb1493ffd"/><g transform="translate(7.2 121.98) scale(.14 -.14)"><use xlink:href="#DejaVuSans-13"/><use transform="translate(63.625)" xlink:href="#DejaVuSans-14"/></g><use x="32.015" y="54.78" stroke="#000000" stroke-width=".8" xlink:href="#eccb1493ffd"/><g transform="translate(7.2 60.098) scale(.14 -.14)"><use xlink:href="#DejaVuSans-13"/><use transform="translate(63.625)" xlink:href="#DejaVuSans-13"/></g><path d="m32.015 271.36v-247.52" fill="none" stroke="#000000" stroke-linecap="square" stroke-width=".8"/><path d="m279.54 271.36v-247.52" fill="none" stroke="#000000" stroke-linecap="square" stroke-width=".8"/><path d="m32.015 271.36h247.52" fill="none" stroke="#000000" stroke-linecap="square" stroke-width=".8"/><path d="m32.015 23.84h247.52" fill="none" stroke="#000000" stroke-linecap="square" stroke-width=".8"/><g transform="translate(136.94 17.84) scale(.14 -.14)"><defs><path id="DejaVuSans-35" transform="scale(.015625)" d="m2841 2188q203-69 395-294t386-619l641-1275h-679l-596 1197q-232 469-449 622t-592 153h-688v-1972h-631v4666h1425q800 0 1194-335 394-334 394-1009 0-441-205-732-205-290-595-402zm-1582 1959v-1656h794q456 0 689 211t233 620-233 617-689 208h-794z"/><path id="DejaVuSans-48" transform="scale(.015625)" d="m3597 1894v-281h-2644q38-594 358-905t892-311q331 0 642 81t618 244v-544q-310-131-635-200t-659-69q-838 0-1327 487-489 488-489 1320 0 859 464 1363 464 505 1252 505 706 0 1117-455 411-454 411-1235zm-575 169q-6 471-264 752-258 282-683 282-481 0-770-272t-333-766l2050 4z"/><path id="DejaVuSans-3e" transform="scale(.015625)" d="m550 4863h1325v-447h-750v-4813h750v-447h-1325v5707z"/><path id="DejaVuSans-Oblique-355" transform="scale(.015625)" d="m1203 2875q250 319 778 600 207 109 775 109 638 0 938-506t140-1331q-162-825-659-1332-497-506-1134-506-385 0-632 154-246 150-365 462l-363-1856h-578l594 3047q141 722 506 1159zm2035-1128q121 634-69 997-191 359-647 359t-788-359q-331-363-453-997-125-634 66-997 191-359 647-359t787 359q332 363 457 997z"/><path id="DejaVuSans-40" transform="scale(.015625)" d="m1947 4863v-5707h-1325v447h747v4813h-747v447h1325z"/></defs><use transform="translate(0 .015625)" xlink:href="#DejaVuSans-35"/><use transform="translate(65.482 .015625)" xlink:href="#DejaVuSans-48"/><use transform="translate(127.01 .015625)" xlink:href="#DejaVuSans-3e"/><use transform="translate(166.02 .015625)" xlink:href="#DejaVuSans-Oblique-355"/><use transform="translate(229.5 .015625)" xlink:href="#DejaVuSans-40"/></g><path d="m314.62 271.36h247.52v-247.52h-247.52z" fill="#808080"/><path d="m345.56 54.78z" clip-path="url(#9fd96233ac3)" stroke="#000000"/><path d="m407.44 54.78z" clip-path="url(#9fd96233ac3)" stroke="#000000"/><path d="m469.32 54.78z" clip-path="url(#9fd96233ac3)" stroke="#000000"/><path d="m505.18 80.797h52.035v-52.035h-52.035z" clip-path="url(#9fd96233ac3)" fill="#ffffff" stroke="#ffffff"/><path d="m345.56 116.66z" clip-path="url(#9fd96233ac3)" stroke="#000000"/><path d="m407.44 116.66z" clip-path="url(#9fd96233ac3)" stroke="#000000"/><path d="m469.32 116.66z" clip-path="url(#9fd96233ac3)" stroke="#000000"/><path d="m509.32 138.54h43.756v-43.756h-43.756z" clip-path="url(#9fd96233ac3)" fill="#ffffff" stroke="#ffffff"/><path d="m345.56 178.54z" clip-path="url(#9fd96233ac3)" stroke="#000000"/><path d="m407.44 178.54z" clip-path="url(#9fd96233ac3)" stroke="#000000"/><path d="m469.32 178.54z" clip-path="url(#9fd96233ac3)" stroke="#000000"/><path d="m531.2 178.54z" clip-path="url(#9fd96233ac3)" stroke="#000000"/><path d="m319.54 266.44h52.035v-52.035h-52.035z" clip-path="url(#9fd96233ac3)" stroke="#000000"/><path d="m385.56 262.3h43.756v-43.756h-43.756z" clip-path="url(#9fd96233ac3)" stroke="#000000"/><path d="m469.32 240.42z" clip-path="url(#9fd96233ac3)" stroke="#000000"/><path d="m531.2 240.42z" clip-path="url(#9fd96233ac3)" stroke="#000000"/><use x="345.555" y="271.36" stroke="#000000" stroke-width=".8" xlink:href="#8b47e9f17b7"/><g transform="translate(349.19 296.18) rotate(-90) scale(.14 -.14)"><use xlink:href="#DejaVuSans-13"/><use transform="translate(63.625)" xlink:href="#DejaVuSans-13"/></g><use x="407.435" y="271.36" stroke="#000000" stroke-width=".8" xlink:href="#8b47e9f17b7"/><g transform="translate(411.07 296.18) rotate(-90) scale(.14 -.14)"><use xlink:href="#DejaVuSans-13"/><use transform="translate(63.625)" xlink:href="#DejaVuSans-14"/></g><use x="469.315" y="271.36" stroke="#000000" stroke-width=".8" xlink:href="#8b47e9f17b7"/><g transform="translate(472.95 296.18) rotate(-90) scale(.14 -.14)"><use xlink:href="#DejaVuSans-14"/><use transform="translate(63.625)" xlink:href="#DejaVuSans-13"/></g><use x="531.195" y="271.36" stroke="#000000" stroke-width=".8" xlink:href="#8b47e9f17b7"/><g transform="translate(534.83 296.18) rotate(-90) scale(.14 -.14)"><use xlink:href="#DejaVuSans-14"/><use transform="translate(63.625)" xlink:href="#DejaVuSans-14"/></g><use x="314.615" y="240.42" stroke="#000000" stroke-width=".8" xlink:href="#eccb1493ffd"/><g transform="translate(289.8 245.74) scale(.14 -.14)"><use xlink:href="#DejaVuSans-14"/><use transform="translate(63.625)" xlink:href="#DejaVuSans-14"/></g><use x="314.615" y="178.54" stroke="#000000" stroke-width=".8" xlink:href="#eccb1493ffd"/><g transform="translate(289.8 183.86) scale(.14 -.14)"><use xlink:href="#DejaVuSans-14"/><use transform="translate(63.625)" xlink:href="#DejaVuSans-13"/></g><use x="314.615" y="116.66" stroke="#000000" stroke-width=".8" xlink:href="#eccb1493ffd"/><g transform="translate(289.8 121.98) scale(.14 -.14)"><use xlink:href="#DejaVuSans-13"/><use transform="translate(63.625)" xlink:href="#DejaVuSans-14"/></g><use x="314.615" y="54.78" stroke="#000000" stroke-width=".8" xlink:href="#eccb1493ffd"/><g transform="translate(289.8 60.098) scale(.14 -.14)"><use xlink:href="#DejaVuSans-13"/><use transform="translate(63.625)" xlink:href="#DejaVuSans-13"/></g><path d="m314.62 271.36v-247.52" fill="none" stroke="#000000" stroke-linecap="square" stroke-width=".8"/><path d="m562.14 271.36v-247.52" fill="none" stroke="#000000" stroke-linecap="square" stroke-width=".8"/><path d="m314.62 271.36h247.52" fill="none" stroke="#000000" stroke-linecap="square" stroke-width=".8"/><path d="m314.62 23.84h247.52" fill="none" stroke="#000000" stroke-linecap="square" stroke-width=".8"/><g transform="translate(419.54 17.84) scale(.14 -.14)"><defs><path id="DejaVuSans-2c" transform="scale(.015625)" d="m628 4666h631v-4666h-631v4666z"/><path id="DejaVuSans-50" transform="scale(.015625)" d="m3328 2828q216 388 516 572t706 184q547 0 844-383 297-382 297-1088v-2113h-578v2094q0 503-179 746-178 244-543 244-447 0-707-297-259-296-259-809v-1978h-578v2094q0 506-178 748t-550 242q-441 0-701-298-259-298-259-808v-1978h-578v3500h578v-544q197 322 472 475t653 153q382 0 649-194 267-193 395-562z"/></defs><use transform="translate(0 .015625)" xlink:href="#DejaVuSans-2c"/><use transform="translate(29.492 .015625)" xlink:href="#DejaVuSans-50"/><use transform="translate(126.9 .015625)" xlink:href="#DejaVuSans-3e"/><use transform="translate(165.92 .015625)" xlink:href="#DejaVuSans-Oblique-355"/><use transform="translate(229.39 .015625)" xlink:href="#DejaVuSans-40"/></g><defs><clipPath id="2ead3345175"><rect x="32.015" y="23.84" width="247.52" height="247.52"/></clipPath><clipPath id="9fd96233ac3"><rect x="314.62" y="23.84" width="247.52" height="247.52"/></clipPath></defs></svg>