<?xml version="1.0" encoding="UTF-8"?><!DOCTYPE svg  PUBLIC '-//W3C//DTD SVG 1.1//EN'  'http://www.w3.org/Graphics/SVG/1.1/DTD/svg11.dtd'><svg width="403.37pt" height="402.48pt" version="1.1" viewBox="0 0 403.37 402.48" xmlns="http://www.w3.org/2000/svg" xmlns:xlink="http://www.w3.org/1999/xlink"><defs><style type="text/css">*{stroke-linejoin: round; stroke-linecap: butt}</style></defs><path d="m0 402.48h403.37v-402.48h-403.37z" fill="#ffffff"/><path d="m7.2 395.28h388.08v-388.08h-388.08z" fill="#ffffff"/><path d="m75.57 325.95 32.335-32.165-0.89639-217.14-32.767 7.4129" opacity="0"/><path d="m107.91 293.79 217.13 2.5482 1.0878-219.1-219.11-0.58671" opacity="0"/><path d="m75.57 325.95 241.87 3.1675 7.5858-32.785-217.13-2.5482" opacity="0"/><path d="m75.57 325.95 241.87 3.1675" fill="none" stroke-opacity="0"/><path d="m325.03 296.34-7.5858 32.785" fill="none" stroke-opacity="0"/><path d="m325.03 296.34 1.0878-219.1" fill="none" stroke-opacity="0"/><path d="m206.48 80.479" clip-path="url(#0f2f6f3f14d)" fill="none" stroke="#1f77b4" stroke-linecap="square" stroke-width="1.5"/><defs><path id="c5db1a98f87" d="m0 10.607c2.8129 0 5.511-1.1176 7.5-3.1066s3.1066-4.6871 3.1066-7.5-1.1176-5.511-3.1066-7.5-4.6871-3.1066-7.5-3.1066-5.511 1.1176-7.5 3.1066-3.1066 4.6871-3.1066 7.5 1.1176 5.511 3.1066 7.5 4.6871 3.1066 7.5 3.1066z" stroke="#4060bf"/></defs><g clip-path="url(#0f2f6f3f14d)"><use x="206.484324" y="80.479423" fill="#4060bf" stroke="#4060bf" xlink:href="#c5db1a98f87"/></g><path d="m92.068 195.12" clip-path="url(#0f2f6f3f14d)" fill="none" stroke="#ff7f0e" stroke-linecap="square" stroke-width="1.5"/><defs><path id="d191c4066e7" d="m0 7.5c1.989 0 3.8968-0.79025 5.3033-2.1967s2.1967-3.3143 2.1967-5.3033-0.79025-3.8968-2.1967-5.3033-3.3143-2.1967-5.3033-2.1967-3.8968 0.79025-5.3033 2.1967-2.1967 3.3143-2.1967 5.3033 0.79025 3.8968 2.1967 5.3033 3.3143 2.1967 5.3033 2.1967z" stroke="#4060bf"/></defs><g clip-path="url(#0f2f6f3f14d)"><use x="92.068431" y="195.123239" fill="#4060bf" stroke="#4060bf" xlink:href="#d191c4066e7"/></g><path d="m322 196.88" clip-path="url(#0f2f6f3f14d)" fill="none" stroke="#2ca02c" stroke-linecap="square" stroke-width="1.5"/><path d="m206.48 310.41" clip-path="url(#0f2f6f3f14d)" fill="none" stroke="#d62728" stroke-linecap="square" stroke-width="1.5"/><defs><path id="072b1382419" d="m0 7.5c1.989 0 3.8968-0.79025 5.3033-2.1967s2.1967-3.3143 2.1967-5.3033-0.79025-3.8968-2.1967-5.3033-3.3143-2.1967-5.3033-2.1967-3.8968 0.79025-5.3033 2.1967-2.1967 3.3143-2.1967 5.3033 0.79025 3.8968 2.1967 5.3033 3.3143 2.1967 5.3033 2.1967z" stroke="#40bf60"/></defs><g clip-path="url(#0f2f6f3f14d)"><use x="206.484324" y="310.409491" fill="#40bf60" stroke="#40bf60" xlink:href="#072b1382419"/></g><path d="m206.48 80.479" clip-path="url(#0f2f6f3f14d)" fill="none" stroke="#808080" stroke-dasharray="1,1.65" stroke-opacity=".5"/><path d="m322 196.88-0.45344-1.2788-2.2819-1.2549-4.0375-1.2118-5.6965-1.151-7.2383-1.074-8.646-0.98249-9.9052-0.87824-11.004-0.76299-11.935-0.63847-12.689-0.50641-13.261-0.36852-13.649-0.22645-13.849-0.081843-13.861 0.06367-13.684 0.20848-13.32 0.35095-12.77 0.48946-12.039 0.62234-11.13 0.74789-10.052 0.8644-8.8118 0.97012-7.422 1.0633-5.896 1.1422-4.2506 1.2051-2.5059 1.2505-0.68509 1.2769 1.185 1.2831 3.0746 1.268 4.9508 1.2312 6.7786 1.1723 8.5214 1.0918 10.142 0.99029 11.604 0.86929 12.873 0.73068 13.918 0.57695 14.712 0.41106 15.234 0.23638 15.471 0.056613 15.416-0.12438 15.071-0.30268 14.445-0.47448 13.554-0.63619 12.422-0.78458 11.077-0.91684 9.551-1.0307 7.8801-1.1245 6.1011-1.197 4.2509-1.2476 2.3657-1.2762 0.47977-1.2832-1.3752-1.2693-3.1704-1.2357-4.8804-1.1835-6.4832-1.1144-7.9599-1.0299-9.2949-0.93185-10.475-0.82188-11.491-0.70178-12.334-0.57328-12.998-0.43809-13.479-0.2979-13.773-0.15436-13.879-0.009099-13.796 0.13626-13.526 0.28011-13.068 0.42081-12.427 0.55671-11.606 0.68614-10.612 0.80739-9.4512 0.91872-8.1348 1.0184-6.675 1.1046-5.087 1.1758-3.3893 1.2301-1.6034 1.2662 0.24559 1.2826 2.1293 1.2782 4.0165 1.2523 5.873 1.2045 7.6629 1.1347 9.3493 1.0436 10.895 0.93212 12.265 0.80204 13.425 0.65553 14.348 0.49532 15.008 0.32459 15.389 0.14689 15.48-0.033975 15.28-0.21411 14.792-0.38963 14.031-0.55681 13.017-0.71224 11.774-0.85288 10.334-0.9762 8.7314-1.0802 7.0018-1.1634 5.1826-1.225 3.3105-1.2646 1.4208-1.2824" clip-path="url(#0f2f6f3f14d)" fill="none" stroke="#808080" stroke-dasharray="1,1.65" stroke-opacity=".5"/><path d="m206.48 310.41" clip-path="url(#0f2f6f3f14d)" fill="none" stroke="#808080" stroke-dasharray="1,1.65" stroke-opacity=".5"/><path d="m206.48 196" clip-path="url(#0f2f6f3f14d)" fill="none" stroke="#9467bd" stroke-linecap="square" stroke-width="1.5"/><defs><path id="28a3a40c413" d="m0 1.5c0.3978 0 0.77937-0.15805 1.0607-0.43934 0.28129-0.28129 0.43934-0.66286 0.43934-1.0607s-0.15805-0.77937-0.43934-1.0607c-0.28129-0.28129-0.66286-0.43934-1.0607-0.43934s-0.77937 0.15805-1.0607 0.43934c-0.28129 0.28129-0.43934 0.66286-0.43934 1.0607s0.15805 0.77937 0.43934 1.0607c0.28129 0.28129 0.66286 0.43934 1.0607 0.43934z" stroke="#808080"/></defs><g clip-path="url(#0f2f6f3f14d)"><use x="206.484324" y="195.995676" fill="#808080" stroke="#808080" xlink:href="#28a3a40c413"/></g><g fill-opacity=".2"><path d="m216.02 186.49-0.083015 14.309-28.302 0.11054-0.1656-14.317z" clip-path="url(#0f2f6f3f14d)" fill="#4e4e4e"/><path d="m215.94 200.8-0.23654 14.24-27.593 0.11592-0.47184-14.245z" clip-path="url(#0f2f6f3f14d)" fill="#4c4c4c"/><path d="m215.95 172.32 0.071783 14.172-28.55 0.10304 0.14319-14.181z" clip-path="url(#0f2f6f3f14d)" fill="#505050"/><path d="m244.02 187.01-0.32769 14.347-27.755-0.54978 0.083015-14.309z" clip-path="url(#0f2f6f3f14d)" fill="#434343"/><path d="m243.69 201.35-0.93362 14.266-27.058-0.57651 0.23654-14.24z" clip-path="url(#0f2f6f3f14d)" fill="#414141"/><path d="m215.7 215.04-0.38698 13.964-26.434 0.11871-0.77189-13.966z" clip-path="url(#0f2f6f3f14d)" fill="#4a4a4a"/><path d="m243.74 172.79 0.28335 14.217-27.999-0.51248-0.071783-14.172z" clip-path="url(#0f2f6f3f14d)" fill="#464646"/><path d="m215.72 158.49 0.22602 13.829-28.335 0.093935 0.45084-13.839z" clip-path="url(#0f2f6f3f14d)" fill="#545454"/><path d="m187.47 186.6 0.1656 14.317-27.209 0.76559-0.40631-14.369z" clip-path="url(#0f2f6f3f14d)" fill="#5b5b5b"/><path d="m242.76 215.62-1.5271 13.977-25.918-0.5903 0.38698-13.964z" clip-path="url(#0f2f6f3f14d)" fill="#404040"/><path d="m187.64 200.91 0.47184 14.245-26.523 0.80277-1.1576-14.282z" clip-path="url(#0f2f6f3f14d)" fill="#595959"/><path d="m187.61 172.42-0.14319 14.181-27.45 0.71367 0.35134-14.244z" clip-path="url(#0f2f6f3f14d)" fill="#5e5e5e"/><path d="m242.85 158.91 0.89209 13.879-27.788-0.46719-0.22602-13.829z" clip-path="url(#0f2f6f3f14d)" fill="#494949"/><path d="m215.32 229.01-0.53251 13.483-24.84 0.11849-1.0621-13.482z" clip-path="url(#0f2f6f3f14d)" fill="#4a4a4a"/><path d="m188.11 215.16 0.77189 13.966-25.402 0.8219-1.8932-13.985z" clip-path="url(#0f2f6f3f14d)" fill="#575757"/><path d="m188.07 158.58-0.45084 13.839-27.242 0.65059 1.1061-13.909z" clip-path="url(#0f2f6f3f14d)" fill="#616161"/><path d="m215.35 145.21 0.37784 13.281-27.659 0.083759 0.75364-13.292z" clip-path="url(#0f2f6f3f14d)" fill="#575757"/><path d="m241.23 229.6-2.1008 13.481-24.349-0.58915 0.53251-13.483z" clip-path="url(#0f2f6f3f14d)" fill="#404040"/><path d="m241.35 145.58 1.491 13.335-27.122-0.41656-0.37784-13.281z" clip-path="url(#0f2f6f3f14d)" fill="#4d4d4d"/><path d="m188.88 229.13 1.0621 13.482-23.86 0.82018-2.604-13.481z" clip-path="url(#0f2f6f3f14d)" fill="#555555"/><path d="m269.83 188.11-0.55648 14.427-25.582-1.1837 0.32769-14.347z" clip-path="url(#0f2f6f3f14d)" fill="#3c3c3c"/><path d="m269.28 202.54-1.5851 14.324-24.931-1.2409 0.93362-14.266z" clip-path="url(#0f2f6f3f14d)" fill="#3a3a3a"/><path d="m214.78 242.49-0.6713 12.8-22.83 0.11496-1.3388-12.797z" clip-path="url(#0f2f6f3f14d)" fill="#4a4a4a"/><path d="m269.35 173.8 0.48119 14.315-25.811-1.1035-0.28335-14.217z" clip-path="url(#0f2f6f3f14d)" fill="#3e3e3e"/><path d="m188.82 145.29-0.75364 13.292-26.587 0.58004 1.8485-13.366z" clip-path="url(#0f2f6f3f14d)" fill="#646464"/><path d="m267.69 216.86-2.5917 14.007-23.866-1.2702 1.5271-13.977z" clip-path="url(#0f2f6f3f14d)" fill="#393939"/><path d="m239.13 243.08-2.6473 12.782-22.373-0.5715 0.6713-12.8z" clip-path="url(#0f2f6f3f14d)" fill="#414141"/><path d="m214.82 132.68 0.52534 12.534-26.527 0.073026 1.0478-12.545z" clip-path="url(#0f2f6f3f14d)" fill="#5c5c5c"/><path d="m267.84 159.81 1.5147 13.988-25.613-1.0059-0.89209-13.879z" clip-path="url(#0f2f6f3f14d)" fill="#424242"/><path d="m160.02 187.31 0.40631 14.369-24.506 1.3836-0.6271-14.462z" clip-path="url(#0f2f6f3f14d)" fill="#6a6a6a"/><path d="m160.43 201.68 1.1576 14.282-23.878 1.4503-1.7861-14.349z" clip-path="url(#0f2f6f3f14d)" fill="#676767"/><path d="m189.94 242.61 1.3388 12.797-21.918 0.79549-3.2807-12.772z" clip-path="url(#0f2f6f3f14d)" fill="#555555"/><path d="m239.28 132.99 2.0725 12.588-26.009-0.36314-0.52534-12.534z" clip-path="url(#0f2f6f3f14d)" fill="#525252"/><path d="m160.37 173.07-0.35134 14.244-24.727 1.2898 0.54226-14.358z" clip-path="url(#0f2f6f3f14d)" fill="#6c6c6c"/><path d="m265.1 230.87-3.5631 13.478-22.404-1.267 2.1008-13.481z" clip-path="url(#0f2f6f3f14d)" fill="#393939"/><path d="m161.59 215.96 1.8932 13.985-22.851 1.4842-2.9198-14.019z" clip-path="url(#0f2f6f3f14d)" fill="#656565"/><path d="m189.87 132.74-1.0478 12.545-25.492 0.50562 2.569-12.62z" clip-path="url(#0f2f6f3f14d)" fill="#676767"/><path d="m265.31 146.36 2.5306 13.45-24.991-0.89667-1.491-13.335z" clip-path="url(#0f2f6f3f14d)" fill="#464646"/><path d="m161.48 159.16-1.1061 13.909-24.536 1.1757 1.7067-14.037z" clip-path="url(#0f2f6f3f14d)" fill="#6f6f6f"/><path d="m214.11 255.29-0.80149 11.921-20.43 0.10792-1.5983-11.914z" clip-path="url(#0f2f6f3f14d)" fill="#4a4a4a"/><path d="m163.48 229.95 2.604 13.481-21.442 1.4802-4.0131-13.477z" clip-path="url(#0f2f6f3f14d)" fill="#636363"/><path d="m236.48 255.86-3.1593 11.886-20.015-0.53642 0.80149-11.921z" clip-path="url(#0f2f6f3f14d)" fill="#424242"/><path d="m261.54 244.35-4.4865 12.744-20.565-1.2283 2.6473-12.782z" clip-path="url(#0f2f6f3f14d)" fill="#3a3a3a"/><path d="m214.15 121.09 0.66658 11.591-24.954 0.062208 1.3294-11.602z" clip-path="url(#0f2f6f3f14d)" fill="#606060"/><path d="m191.28 255.4 1.5983 11.914-19.603 0.74651-3.9141-11.865z" clip-path="url(#0f2f6f3f14d)" fill="#545454"/><path d="m163.33 145.79-1.8485 13.366-23.935 1.048 2.851-13.501z" clip-path="url(#0f2f6f3f14d)" fill="#727272"/><path d="m236.65 121.34 2.6288 11.644-24.461-0.30931-0.66658-11.591z" clip-path="url(#0f2f6f3f14d)" fill="#575757"/><path d="m261.79 133.65 3.5154 12.704-23.951-0.7814-2.0725-12.588z" clip-path="url(#0f2f6f3f14d)" fill="#4b4b4b"/><path d="m166.08 243.43 3.2807 12.772-19.671 1.4344-5.0513-12.726z" clip-path="url(#0f2f6f3f14d)" fill="#616161"/><path d="m191.2 121.14-1.3294 11.602-23.971 0.43061 3.2577-11.675z" clip-path="url(#0f2f6f3f14d)" fill="#6b6b6b"/><path d="m291.88 189.75-0.75709 14.546-21.846-1.7588 0.55648-14.427z" clip-path="url(#0f2f6f3f14d)" fill="#383838"/><path d="m291.12 204.3-2.1559 14.408-21.275-1.8432 1.5851-14.324z" clip-path="url(#0f2f6f3f14d)" fill="#363636"/><path d="m291.22 175.29 0.65466 14.46-22.047-1.6399-0.48119-14.315z" clip-path="url(#0f2f6f3f14d)" fill="#3a3a3a"/><path d="m288.97 218.7-3.5227 14.049-20.344-1.8854 2.5917-14.007z" clip-path="url(#0f2f6f3f14d)" fill="#353535"/><path d="m213.31 267.21-0.9212 10.851-17.672 0.097329-1.8368-10.841z" clip-path="url(#0f2f6f3f14d)" fill="#4c4c4c"/><path d="m257.05 257.09-5.3489 11.809-18.375-1.152 3.1593-11.886z" clip-path="url(#0f2f6f3f14d)" fill="#3c3c3c"/><path d="m165.9 133.17-2.569 12.62-22.933 0.91309 3.9594-12.756z" clip-path="url(#0f2f6f3f14d)" fill="#757575"/><path d="m233.33 267.75-3.6292 10.799-17.307-0.48365 0.9212-10.851z" clip-path="url(#0f2f6f3f14d)" fill="#444444"/><path d="m289.16 161.14 2.0601 14.151-21.873-1.4947-1.5147-13.988z" clip-path="url(#0f2f6f3f14d)" fill="#3e3e3e"/><path d="m285.44 232.75-4.8387 13.472-19.069-1.8791 3.5631-13.478z" clip-path="url(#0f2f6f3f14d)" fill="#363636"/><path d="m192.88 267.32 1.8368 10.841-16.945 0.67292-4.4949-10.767z" clip-path="url(#0f2f6f3f14d)" fill="#545454"/><path d="m213.35 110.63 0.79957 10.462-22.958 0.051712 1.5945-10.471z" clip-path="url(#0f2f6f3f14d)" fill="#656565"/><path d="m169.36 256.2 3.9141 11.865-17.566 1.3448-6.0197-11.775z" clip-path="url(#0f2f6f3f14d)" fill="#5f5f5f"/><path d="m257.34 121.9 4.4553 11.756-22.508-0.66523-2.6288-11.644z" clip-path="url(#0f2f6f3f14d)" fill="#515151"/><path d="m135.29 188.6 0.6271 14.462-20.272 1.9318-0.81551-14.593z" clip-path="url(#0f2f6f3f14d)" fill="#797979"/><path d="m135.92 203.06 1.7861 14.349-19.736 2.0241-2.322-14.441z" clip-path="url(#0f2f6f3f14d)" fill="#767676"/><path d="m233.5 110.83 3.1518 10.511-22.499-0.25708-0.79957-10.462z" clip-path="url(#0f2f6f3f14d)" fill="#5d5d5d"/><path d="m285.72 147.52 3.4398 13.622-21.328-1.3319-2.5306-13.45z" clip-path="url(#0f2f6f3f14d)" fill="#424242"/><path d="m135.84 174.24-0.54226 14.358-20.46 1.8012 0.70519-14.518z" clip-path="url(#0f2f6f3f14d)" fill="#7b7b7b"/><path d="m137.71 217.41 2.9198 14.019-18.863 2.0699-3.7932-14.065z" clip-path="url(#0f2f6f3f14d)" fill="#737373"/><path d="m280.6 246.23-6.0855 12.684-17.47-1.8196 4.4865-12.744z" clip-path="url(#0f2f6f3f14d)" fill="#373737"/><path d="m192.79 110.67-1.5945 10.471-22.042 0.35784 3.9049-10.54z" clip-path="url(#0f2f6f3f14d)" fill="#6f6f6f"/><path d="m169.15 121.5-3.2577 11.675-21.542 0.77714 5.0163-11.806z" clip-path="url(#0f2f6f3f14d)" fill="#777777"/><path d="m251.7 268.9-6.1376 10.684-15.867-1.0377 3.6292-10.799z" clip-path="url(#0f2f6f3f14d)" fill="#3f3f3f"/><path d="m137.54 160.21-1.7067 14.037-20.298 1.6416 2.2188-14.216z" clip-path="url(#0f2f6f3f14d)" fill="#7e7e7e"/><path d="m140.63 231.43 4.0131 13.477-17.668 2.0622-5.2083-13.469z" clip-path="url(#0f2f6f3f14d)" fill="#707070"/><path d="m212.39 278.06-1.0286 9.6011-14.593 0.083274-2.0507-9.587z" clip-path="url(#0f2f6f3f14d)" fill="#4e4e4e"/><path d="m173.28 268.07 4.4949 10.767-15.157 1.2109-6.9038-10.633z" clip-path="url(#0f2f6f3f14d)" fill="#5e5e5e"/><path d="m280.95 134.64 4.7742 12.877-20.419-1.16-3.5154-12.704z" clip-path="url(#0f2f6f3f14d)" fill="#484848"/><path d="m229.7 278.55-4.0498 9.5311-14.286-0.4137 1.0286-9.6011z" clip-path="url(#0f2f6f3f14d)" fill="#484848"/><path d="m274.52 258.91-7.2448 11.694-15.574-1.7043 5.3489-11.809z" clip-path="url(#0f2f6f3f14d)" fill="#393939"/><path d="m140.39 146.7-2.851 13.501-19.785 1.4626 3.704-13.69z" clip-path="url(#0f2f6f3f14d)" fill="#808080"/><path d="m144.64 244.91 5.0513 12.726-16.172 1.996-6.5472-12.66z" clip-path="url(#0f2f6f3f14d)" fill="#6d6d6d"/><path d="m252 111.28 5.3366 10.616-20.682-0.55255-3.1518-10.511z" clip-path="url(#0f2f6f3f14d)" fill="#575757"/><path d="m194.72 278.16 2.0507 9.587-13.981 0.57545-5.0139-9.4895z" clip-path="url(#0f2f6f3f14d)" fill="#555555"/><path d="m212.43 101.47 0.92228 9.154-20.564 0.041858 1.839-9.163z" clip-path="url(#0f2f6f3f14d)" fill="#6a6a6a"/><path d="m229.87 101.64 3.6336 9.1988-20.147-0.20805-0.92228-9.154z" clip-path="url(#0f2f6f3f14d)" fill="#636363"/><path d="m173.06 110.96-3.9049 10.54-19.784 0.6453 6.006-10.663z" clip-path="url(#0f2f6f3f14d)" fill="#7a7a7a"/><path d="m144.35 133.95-3.9594 12.756-18.932 1.2735 5.139-12.946z" clip-path="url(#0f2f6f3f14d)" fill="#828282"/><path d="m245.56 279.58-6.84 9.3801-13.076-0.88675 4.0498-9.5311z" clip-path="url(#0f2f6f3f14d)" fill="#434343"/><path d="m149.69 257.63 6.0197 11.775-14.401 1.8685-7.79-11.648z" clip-path="url(#0f2f6f3f14d)" fill="#6b6b6b"/><path d="m274.91 122.72 6.0437 11.924-19.16-0.98664-4.4553-11.756z" clip-path="url(#0f2f6f3f14d)" fill="#4e4e4e"/><path d="m194.63 101.51-1.839 9.163-19.732 0.28954 4.5003-9.2253z" clip-path="url(#0f2f6f3f14d)" fill="#737373"/><path d="m267.27 270.6-8.299 10.513-13.413-1.533 6.1376-10.684z" clip-path="url(#0f2f6f3f14d)" fill="#3d3d3d"/><path d="m307.79 206.54-2.6098 14.514-16.214-2.3482 2.1559-14.408z" clip-path="url(#0f2f6f3f14d)" fill="#363636"/><path d="m177.77 278.83 5.0139 9.4895-12.481 1.0342-7.6894-9.3129z" clip-path="url(#0f2f6f3f14d)" fill="#5d5d5d"/><path d="m308.71 191.84-0.91687 14.697-16.667-2.2419 0.75709-14.546z" clip-path="url(#0f2f6f3f14d)" fill="#383838"/><path d="m305.18 221.05-4.2611 14.1-15.475-2.3999 3.5227-14.049z" clip-path="url(#0f2f6f3f14d)" fill="#353535"/><path d="m307.91 177.2 0.79284 14.646-16.827-2.0907-0.65466-14.46z" clip-path="url(#0f2f6f3f14d)" fill="#3a3a3a"/><path d="m211.36 287.66-1.1217 8.181-11.235 0.066017-2.236-8.1638z" clip-path="url(#0f2f6f3f14d)" fill="#505050"/><path d="m300.92 235.15-5.8462 13.461-14.468-2.389 4.8387-13.472z" clip-path="url(#0f2f6f3f14d)" fill="#363636"/><path d="m245.85 101.99 6.1453 9.2952-18.497-0.44682-3.6336-9.1988z" clip-path="url(#0f2f6f3f14d)" fill="#5e5e5e"/><path d="m149.37 122.14-5.0163 11.806-17.753 1.0828 6.5025-11.991z" clip-path="url(#0f2f6f3f14d)" fill="#848484"/><path d="m155.71 269.41 6.9038 10.633-12.387 1.6796-8.9176-10.444z" clip-path="url(#0f2f6f3f14d)" fill="#686868"/><path d="m225.65 288.08-4.4135 8.0952-10.994-0.32788 1.1217-8.181z" clip-path="url(#0f2f6f3f14d)" fill="#4b4b4b"/><path d="m305.42 162.84 2.494 14.36-16.689-1.9052-2.0601-14.151z" clip-path="url(#0f2f6f3f14d)" fill="#3e3e3e"/><path d="m196.77 287.75 2.236 8.1638-10.755 0.45595-5.4621-8.0443z" clip-path="url(#0f2f6f3f14d)" fill="#565656"/><path d="m267.68 111.94 7.2287 10.774-17.571-0.81862-5.3366-10.616z" clip-path="url(#0f2f6f3f14d)" fill="#545454"/><path d="m295.07 248.61-7.3415 12.605-13.212-2.3099 6.0855-12.684z" clip-path="url(#0f2f6f3f14d)" fill="#373737"/><path d="m177.56 101.73-4.5003 9.2253-17.683 0.52162 6.9126-9.3381z" clip-path="url(#0f2f6f3f14d)" fill="#7d7d7d"/><path d="m258.98 281.12-9.2311 9.1549-11.021-1.3077 6.84-9.3801z" clip-path="url(#0f2f6f3f14d)" fill="#414141"/><path d="m211.4 93.791 1.0326 7.6812-17.803 0.032857 2.0588-7.6893z" clip-path="url(#0f2f6f3f14d)" fill="#707070"/><path d="m301.26 148.99 4.1611 13.842-16.255-1.6969-3.4398-13.622z" clip-path="url(#0f2f6f3f14d)" fill="#424242"/><path d="m238.72 288.96-7.4437 7.9105-10.046-0.70204 4.4135-8.0952z" clip-path="url(#0f2f6f3f14d)" fill="#484848"/><path d="m115.65 205 2.322 14.441-14.246 2.4888-2.729-14.554z" clip-path="url(#0f2f6f3f14d)" fill="#848484"/><path d="m225.8 93.914 4.0658 7.7212-17.436-0.16328-1.0326-7.6812z" clip-path="url(#0f2f6f3f14d)" fill="#6a6a6a"/><path d="m114.83 190.4 0.81551 14.593-14.653 2.3766-0.95886-14.753z" clip-path="url(#0f2f6f3f14d)" fill="#878787"/><path d="m117.97 219.44 3.7932 14.065-13.585 2.5427-4.4543-14.119z" clip-path="url(#0f2f6f3f14d)" fill="#818181"/><path d="m287.73 261.22-8.724 11.544-11.732-2.1597 7.2448-11.694z" clip-path="url(#0f2f6f3f14d)" fill="#393939"/><path d="m196.69 93.816-2.0588 7.6893-17.07 0.22718 5.0339-7.745z" clip-path="url(#0f2f6f3f14d)" fill="#777777"/><path d="m115.54 175.88-0.70519 14.518-14.796 2.2164 0.82916-14.715z" clip-path="url(#0f2f6f3f14d)" fill="#8a8a8a"/><path d="m121.76 233.5 5.2083 13.469-12.684 2.53-6.1087-13.456z" clip-path="url(#0f2f6f3f14d)" fill="#7d7d7d"/><path d="m182.79 288.32 5.4621 8.0443-9.5805 0.81836-8.3628-7.8284z" clip-path="url(#0f2f6f3f14d)" fill="#5d5d5d"/><path d="m155.38 111.48-6.006 10.663-16.267 0.898 7.773-10.837z" clip-path="url(#0f2f6f3f14d)" fill="#868686"/><path d="m162.62 280.04 7.6894 9.3129-10.165 1.4318-9.9117-9.0651z" clip-path="url(#0f2f6f3f14d)" fill="#666666"/><path d="m295.49 135.89 5.7687 13.099-15.534-1.4766-4.7742-12.877z" clip-path="url(#0f2f6f3f14d)" fill="#484848"/><path d="m117.76 161.67-2.2188 14.216-14.672 2.0198 2.6079-14.437z" clip-path="url(#0f2f6f3f14d)" fill="#8c8c8c"/><path d="m126.97 246.97 6.5472 12.66-11.565 2.4449-7.6668-12.575z" clip-path="url(#0f2f6f3f14d)" fill="#7a7a7a"/><path d="m279.01 272.76-9.9721 10.292-10.059-1.9386 8.299-10.513z" clip-path="url(#0f2f6f3f14d)" fill="#3d3d3d"/><path d="m259.37 102.5 8.3101 9.4387-15.679-0.6611-6.1453-9.2952z" clip-path="url(#0f2f6f3f14d)" fill="#5c5c5c"/><path d="m238.99 94.178 6.8675 7.8074-15.985-0.35034-4.0658-7.7212z" clip-path="url(#0f2f6f3f14d)" fill="#656565"/><path d="m121.46 147.98-3.704 13.69-14.283 1.7985 4.3499-13.924z" clip-path="url(#0f2f6f3f14d)" fill="#8e8e8e"/><path d="m249.74 290.27-10.025 7.6362-8.4404-1.0334 7.4437-7.9105z" clip-path="url(#0f2f6f3f14d)" fill="#464646"/><path d="m133.52 259.63 7.79 11.648-10.25 2.2843-9.1044-11.487z" clip-path="url(#0f2f6f3f14d)" fill="#767676"/><path d="m210.24 295.84-1.1987 6.606-7.6471 0.045981-2.3892-6.5859z" clip-path="url(#0f2f6f3f14d)" fill="#545454"/><path d="m288.2 123.76 7.2918 12.139-14.539-1.2545-6.0437-11.924z" clip-path="url(#0f2f6f3f14d)" fill="#4e4e4e"/><path d="m221.23 296.17-4.7131 6.5064-7.48-0.2283 1.1987-6.606z" clip-path="url(#0f2f6f3f14d)" fill="#505050"/><path d="m182.59 93.987-5.0339 7.745-15.271 0.40882 7.7206-7.8457z" clip-path="url(#0f2f6f3f14d)" fill="#7f7f7f"/><path d="m199 295.91 2.3892 6.5859-7.314 0.31738-5.8305-6.4474z" clip-path="url(#0f2f6f3f14d)" fill="#585858"/><path d="m162.29 102.14-6.9126 9.3381-14.5 0.72482 8.9299-9.4958z" clip-path="url(#0f2f6f3f14d)" fill="#878787"/><path d="m170.3 289.36 8.3628 7.8284-7.773 1.1306-10.755-7.5272z" clip-path="url(#0f2f6f3f14d)" fill="#636363"/><path d="m126.6 135.03-5.139 12.946-13.637 1.5645 6.0279-13.182z" clip-path="url(#0f2f6f3f14d)" fill="#8f8f8f"/><path d="m269.03 283.06-11.065 8.8663-8.2249-1.65 9.2311-9.1549z" clip-path="url(#0f2f6f3f14d)" fill="#414141"/><path d="m141.31 271.28 8.9176 10.444-8.7694 2.0489-10.399-10.209z" clip-path="url(#0f2f6f3f14d)" fill="#727272"/><path d="m231.28 296.87-7.9369 6.2926-6.8224-0.48826 4.7131-6.5064z" clip-path="url(#0f2f6f3f14d)" fill="#4e4e4e"/><path d="m210.27 87.732 1.1285 6.0588-14.711 0.024808 2.2497-6.0659z" clip-path="url(#0f2f6f3f14d)" fill="#757575"/><path d="m188.25 296.37 5.8305 6.4474-6.5 0.56883-8.911-6.1978z" clip-path="url(#0f2f6f3f14d)" fill="#5d5d5d"/><path d="m221.36 87.82 4.4405 6.0942-14.402-0.12325-1.1285-6.0588z" clip-path="url(#0f2f6f3f14d)" fill="#707070"/><path d="m279.49 112.78 8.7057 10.975-13.291-1.0393-7.2287-10.774z" clip-path="url(#0f2f6f3f14d)" fill="#545454"/><path d="m198.94 87.75-2.2497 6.0659-14.095 0.17144 5.4957-6.1152z" clip-path="url(#0f2f6f3f14d)" fill="#7b7b7b"/><path d="m250.1 94.568 9.269 7.9354-13.514-0.51758-6.8675-7.8074z" clip-path="url(#0f2f6f3f14d)" fill="#636363"/><path d="m133.1 123.04-6.5025 11.991-12.748 1.3286 7.6152-12.22z" clip-path="url(#0f2f6f3f14d)" fill="#909090"/><path d="m150.23 281.72 9.9117 9.0651-7.1526 1.7424-11.528-8.7586z" clip-path="url(#0f2f6f3f14d)" fill="#6e6e6e"/><path d="m239.72 297.91-10.665 5.9765-5.7123-0.71734 7.9369-6.2926z" clip-path="url(#0f2f6f3f14d)" fill="#4c4c4c"/><path d="m257.97 291.92-11.985 7.2869-6.2645-1.3007 10.025-7.6362z" clip-path="url(#0f2f6f3f14d)" fill="#464646"/><path d="m231.5 88.008 7.4897 6.1703-13.184-0.26418-4.4405-6.0942z" clip-path="url(#0f2f6f3f14d)" fill="#6d6d6d"/><path d="m315.13 223.77-4.7491 14.157-9.4593-2.7776 4.2611-14.1z" clip-path="url(#0f2f6f3f14d)" fill="#393939"/><path d="m318.04 209.14-2.9113 14.636-9.9473-2.7206 2.6098-14.514z" clip-path="url(#0f2f6f3f14d)" fill="#3a3a3a"/><path d="m310.38 237.93-6.507 13.445-8.7985-2.761 5.8462-13.461z" clip-path="url(#0f2f6f3f14d)" fill="#393939"/><path d="m319.06 194.27-1.0233 14.872-10.249-2.5992 0.91687-14.697z" clip-path="url(#0f2f6f3f14d)" fill="#3c3c3c"/><path d="m170.01 94.295-7.7206 7.8457-12.482 0.56711 9.9528-7.9862z" clip-path="url(#0f2f6f3f14d)" fill="#888888"/><path d="m178.67 297.18 8.911 6.1978-5.2522 0.78418-11.432-5.8514z" clip-path="url(#0f2f6f3f14d)" fill="#616161"/><path d="m303.87 251.38-8.1571 12.509-7.9829-2.6648 7.3415-12.605z" clip-path="url(#0f2f6f3f14d)" fill="#3a3a3a"/><path d="m188.09 87.872-5.4957 6.1152-12.584 0.30813 8.4147-6.2041z" clip-path="url(#0f2f6f3f14d)" fill="#818181"/><path d="m318.18 179.4 0.88486 14.861-10.355-2.4244-0.79284-14.646z" clip-path="url(#0f2f6f3f14d)" fill="#3e3e3e"/><path d="m140.88 112.2-7.773 10.837-11.636 1.1001 9.0856-11.05z" clip-path="url(#0f2f6f3f14d)" fill="#919191"/><path d="m269.51 103.16 9.9866 9.622-11.814-0.83783-8.3101-9.4387z" clip-path="url(#0f2f6f3f14d)" fill="#5c5c5c"/><path d="m295.71 263.88-9.6727 11.365-7.0342-2.4862 8.724-11.544z" clip-path="url(#0f2f6f3f14d)" fill="#3c3c3c"/><path d="m160.14 290.79 10.755 7.5272-5.4331 1.3722-12.475-7.1571z" clip-path="url(#0f2f6f3f14d)" fill="#6a6a6a"/><path d="m209.04 302.45-1.2578 4.8936-3.8826 0.023739-2.5067-4.8714z" clip-path="url(#0f2f6f3f14d)" fill="#575757"/><path d="m315.39 164.8 2.7822 14.602-10.263-2.2089-2.494-14.36z" clip-path="url(#0f2f6f3f14d)" fill="#424242"/><path d="m216.52 302.68-4.9419 4.7832-3.796-0.11783 1.2578-4.8936z" clip-path="url(#0f2f6f3f14d)" fill="#555555"/><path d="m201.39 302.5 2.5067 4.8714-3.71 0.16376-6.1107-4.7178z" clip-path="url(#0f2f6f3f14d)" fill="#5a5a5a"/><path d="m286.04 275.25-11.029 10.032-5.977-2.2262 9.9721-10.292z" clip-path="url(#0f2f6f3f14d)" fill="#3f3f3f"/><path d="m223.34 303.17-8.3087 4.5466-3.4556-0.25169 4.9419-4.7832z" clip-path="url(#0f2f6f3f14d)" fill="#545454"/><path d="m245.98 299.21-12.714 5.5763-4.2151-0.9005 10.665-5.9765z" clip-path="url(#0f2f6f3f14d)" fill="#4c4c4c"/><path d="m310.76 150.7 4.638 14.099-9.9749-1.9661-4.1611-13.842z" clip-path="url(#0f2f6f3f14d)" fill="#464646"/><path d="m194.08 302.81 6.1107 4.7178-3.2891 0.29305-9.3217-4.442z" clip-path="url(#0f2f6f3f14d)" fill="#5d5d5d"/><path d="m240.01 88.285 10.087 6.283-11.113-0.38964-7.4897-6.1703z" clip-path="url(#0f2f6f3f14d)" fill="#6b6b6b"/><path d="m275.01 285.28-12.205 8.5298-4.8376-1.8896 11.065-8.8663z" clip-path="url(#0f2f6f3f14d)" fill="#434343"/><path d="m149.81 102.71-8.9299 9.4958-10.323 0.88621 10.414-9.6902z" clip-path="url(#0f2f6f3f14d)" fill="#919191"/><path d="m209.06 83.427 1.208 4.3057-11.333 0.017687 2.4077-4.312z" clip-path="url(#0f2f6f3f14d)" fill="#7a7a7a"/><path d="m103.73 221.93 4.4543 14.119-7.2474 2.8672-4.8469-14.177z" clip-path="url(#0f2f6f3f14d)" fill="#8d8d8d"/><path d="m108.18 236.04 6.1087 13.456-6.7182 2.8486-6.6379-13.438z" clip-path="url(#0f2f6f3f14d)" fill="#898989"/><path d="m170.89 298.32 11.432 5.8514-3.6451 0.94906-13.22-5.4282z" clip-path="url(#0f2f6f3f14d)" fill="#666666"/><path d="m229.05 303.88-11.138 4.1983-2.883-0.36902 8.3087-4.5466z" clip-path="url(#0f2f6f3f14d)" fill="#535353"/><path d="m216.61 83.483 4.7497 4.3372-11.09-0.087844-1.208-4.3057z" clip-path="url(#0f2f6f3f14d)" fill="#777777"/><path d="m304.33 137.34 6.4214 13.358-9.4981-1.7091-5.7687-13.099z" clip-path="url(#0f2f6f3f14d)" fill="#4b4b4b"/><path d="m101 207.37 2.729 14.554-7.6399 2.8094-2.9722-14.678z" clip-path="url(#0f2f6f3f14d)" fill="#919191"/><path d="m114.29 249.5 7.6668 12.575-6.069 2.7475-8.316-12.474z" clip-path="url(#0f2f6f3f14d)" fill="#858585"/><path d="m258.39 95.06 11.112 8.0983-10.138-0.6546-9.269-7.9354z" clip-path="url(#0f2f6f3f14d)" fill="#636363"/><path d="m201.35 83.438-2.4077 4.312-10.849 0.12216 5.8758-4.3558z" clip-path="url(#0f2f6f3f14d)" fill="#7f7f7f"/><path d="m100.04 192.62 0.95886 14.753-7.8832 2.6846-1.0448-14.934z" clip-path="url(#0f2f6f3f14d)" fill="#949494"/><path d="m121.96 262.08 9.1044 11.487-5.3196 2.5614-9.8538-11.301z" clip-path="url(#0f2f6f3f14d)" fill="#808080"/><path d="m178.42 88.091-8.4147 6.2041-10.25 0.42662 10.823-6.3277z" clip-path="url(#0f2f6f3f14d)" fill="#888888"/><path d="m187.58 303.38 9.3217 4.442-2.6463 0.40307-11.928-4.0609z" clip-path="url(#0f2f6f3f14d)" fill="#606060"/><path d="m262.81 293.81-13.179 6.8825-3.6436-1.4852 11.985-7.2869z" clip-path="url(#0f2f6f3f14d)" fill="#484848"/><path d="m100.87 177.9-0.82916 14.715-7.9691 2.5043 0.90353-14.937z" clip-path="url(#0f2f6f3f14d)" fill="#979797"/><path d="m131.06 273.56 10.399 10.209-4.4921 2.2915-11.226-9.9391z" clip-path="url(#0f2f6f3f14d)" fill="#7a7a7a"/><path d="m223.5 83.603 7.9988 4.4047-10.134-0.18809-4.7497-4.3372z" clip-path="url(#0f2f6f3f14d)" fill="#747474"/><path d="m296.23 124.95 8.1028 12.39-8.8454-1.45-7.2918-12.139z" clip-path="url(#0f2f6f3f14d)" fill="#515151"/><path d="m103.47 163.47-2.6079 14.437-7.8948 2.2816 2.8405-14.689z" clip-path="url(#0f2f6f3f14d)" fill="#999999"/><path d="m141.46 283.77 11.528 8.7586-3.6102 1.9432-12.41-8.4103z" clip-path="url(#0f2f6f3f14d)" fill="#757575"/><path d="m233.27 304.78-13.239 3.7598-2.1143-0.46198 11.138-4.1983z" clip-path="url(#0f2f6f3f14d)" fill="#535353"/><path d="m193.96 83.516-5.8758 4.3558-9.6648 0.21926 8.9805-4.4346z" clip-path="url(#0f2f6f3f14d)" fill="#838383"/><path d="m159.76 94.722-9.9528 7.9862-8.8388 0.69186 11.577-8.1589z" clip-path="url(#0f2f6f3f14d)" fill="#909090"/><path d="m249.63 300.69-13.936 5.1161-2.4221-1.025 12.714-5.5763z" clip-path="url(#0f2f6f3f14d)" fill="#4e4e4e"/><path d="m182.33 304.17 11.928 4.0609-1.8228 0.48639-13.75-3.5982z" clip-path="url(#0f2f6f3f14d)" fill="#636363"/><path d="m107.82 149.54-4.3499 13.924-7.6622 2.0303 4.7336-14.191z" clip-path="url(#0f2f6f3f14d)" fill="#9a9a9a"/><path d="m152.99 292.53 12.475 7.1571-2.6976 1.5257-13.387-6.7396z" clip-path="url(#0f2f6f3f14d)" fill="#707070"/><path d="m286.58 113.74 9.6536 11.21-8.0343-1.1991-8.7057-10.975z" clip-path="url(#0f2f6f3f14d)" fill="#575757"/><path d="m246.33 88.634 12.061 6.4261-8.2948-0.49166-10.087-6.283z" clip-path="url(#0f2f6f3f14d)" fill="#6b6b6b"/><path d="m113.85 136.36-6.0279 13.182-7.2784 1.7643 6.5508-13.45z" clip-path="url(#0f2f6f3f14d)" fill="#9b9b9b"/><path d="m229.26 83.781 10.749 4.5044-8.5153-0.2769-7.9988-4.4047z" clip-path="url(#0f2f6f3f14d)" fill="#737373"/><path d="m207.78 307.34-1.2974 3.0656-2.5851-3.0418z" clip-path="url(#0f2f6f3f14d)" fill="#5c5c5c"/><path d="m165.46 299.69 13.22 5.4282-1.7777 1.0518-14.14-4.9543z" clip-path="url(#0f2f6f3f14d)" fill="#6a6a6a"/><path d="m211.58 307.46-5.0934 2.9477 1.2974-3.0656z" clip-path="url(#0f2f6f3f14d)" fill="#5b5b5b"/><path d="m203.9 307.37 2.5851 3.0418-6.2951-2.8781z" clip-path="url(#0f2f6f3f14d)" fill="#5c5c5c"/><path d="m215.03 307.71-8.549 2.696 5.0934-2.9477z" clip-path="url(#0f2f6f3f14d)" fill="#5a5a5a"/><path d="m235.69 305.81-14.461 3.2589-1.1994-0.52415 13.239-3.7598z" clip-path="url(#0f2f6f3f14d)" fill="#545454"/><path d="m200.19 307.53 6.2951 2.8781-9.5842-2.585z" clip-path="url(#0f2f6f3f14d)" fill="#5d5d5d"/><path d="m217.92 308.08-11.432 2.327 8.549-2.696z" clip-path="url(#0f2f6f3f14d)" fill="#5a5a5a"/><path d="m187.4 83.657-8.9805 4.4346-7.8423 0.30295 11.522-4.5439z" clip-path="url(#0f2f6f3f14d)" fill="#888888"/><path d="m196.9 307.82 9.5842 2.585-12.231-2.1819z" clip-path="url(#0f2f6f3f14d)" fill="#5e5e5e"/><path d="m275.53 103.91 11.047 9.8348-7.0864-0.96459-9.9866-9.622z" clip-path="url(#0f2f6f3f14d)" fill="#5e5e5e"/><path d="m121.47 124.14-7.6152 12.22-6.7556 1.496 8.261-12.479z" clip-path="url(#0f2f6f3f14d)" fill="#9b9b9b"/><path d="m178.68 305.12 13.75 3.5982-0.87202 0.5372-14.656-3.0836z" clip-path="url(#0f2f6f3f14d)" fill="#656565"/><path d="m170.58 88.394-10.823 6.3277-7.2141 0.51919 12.554-6.4792z" clip-path="url(#0f2f6f3f14d)" fill="#8f8f8f"/><path d="m220.03 308.54-13.546 1.865 11.432-2.327z" clip-path="url(#0f2f6f3f14d)" fill="#5a5a5a"/><path d="m194.25 308.23 12.231 2.1819-14.053-1.6955z" clip-path="url(#0f2f6f3f14d)" fill="#5f5f5f"/><path d="m207.79 80.982 1.269 2.4447-7.7172 0.011354 2.5289-2.4505z" clip-path="url(#0f2f6f3f14d)" fill="#808080"/><path d="m221.23 309.07-14.746 1.3409 13.546-1.865z" clip-path="url(#0f2f6f3f14d)" fill="#5a5a5a"/><path d="m130.55 113.09-9.0856 11.05-6.1098 1.2364 9.8347-11.293z" clip-path="url(#0f2f6f3f14d)" fill="#9b9b9b"/><path d="m211.63 81.009 4.9857 2.4734-7.5487-0.056378-1.269-2.4447z" clip-path="url(#0f2f6f3f14d)" fill="#7d7d7d"/><path d="m192.43 308.71 14.053 1.6955-14.925-1.1583z" clip-path="url(#0f2f6f3f14d)" fill="#606060"/><path d="m203.87 80.987-2.5289 2.4505-7.3813 0.078377 6.165-2.4905z" clip-path="url(#0f2f6f3f14d)" fill="#828282"/><path d="m263.86 295.82-13.5 6.4478-0.73693-1.5724 13.179-6.8825z" clip-path="url(#0f2f6f3f14d)" fill="#4b4b4b"/><path d="m250.36 302.27-14.226 4.6252-0.44664-1.0815 13.936-5.1161z" clip-path="url(#0f2f6f3f14d)" fill="#505050"/><path d="m276.41 287.65-12.542 8.1653-1.0577-2.0071 12.205-8.5298z" clip-path="url(#0f2f6f3f14d)" fill="#484848"/><path d="m236.14 306.89-14.71 2.7285-0.19821-0.55106 14.461-3.2589z" clip-path="url(#0f2f6f3f14d)" fill="#555555"/><path d="m287.77 277.91-11.368 9.7478-1.395-2.3716 11.029-10.032z" clip-path="url(#0f2f6f3f14d)" fill="#444444"/><path d="m263.27 95.623 12.258 8.287-6.0263-0.75179-11.112-8.0983z" clip-path="url(#0f2f6f3f14d)" fill="#656565"/><path d="m221.43 309.62-14.944 0.78981 14.746-1.3409z" clip-path="url(#0f2f6f3f14d)" fill="#5b5b5b"/><path d="m297.77 266.74-9.9956 11.168-1.7332-2.6558 9.6727-11.365z" clip-path="url(#0f2f6f3f14d)" fill="#424242"/><path d="m233.52 84.003 12.815 4.6306-6.3211-0.34854-10.749-4.5044z" clip-path="url(#0f2f6f3f14d)" fill="#737373"/><path d="m215.11 81.069 8.3826 2.535-6.8854-0.12058-4.9857-2.4734z" clip-path="url(#0f2f6f3f14d)" fill="#7c7c7c"/><path d="m191.56 309.25 14.925 1.1583-14.782-0.60661z" clip-path="url(#0f2f6f3f14d)" fill="#616161"/><path d="m306.22 254.34-8.4485 12.4-2.0561-2.8534 8.1571-12.509z" clip-path="url(#0f2f6f3f14d)" fill="#414141"/><path d="m176.9 306.17 14.656 3.0836 0.14317 0.55174-14.569-2.5513z" clip-path="url(#0f2f6f3f14d)" fill="#676767"/><path d="m200.13 81.026-6.165 2.4905-6.5601 0.14048 9.4047-2.5622z" clip-path="url(#0f2f6f3f14d)" fill="#858585"/><path d="m312.97 240.92-6.7521 13.422-2.3476-2.9623 6.507-13.445z" clip-path="url(#0f2f6f3f14d)" fill="#404040"/><path d="m140.97 103.4-10.414 9.6902-5.3606 0.9938 11.244-9.9101z" clip-path="url(#0f2f6f3f14d)" fill="#999999"/><path d="m220.61 310.16-14.122 0.24932 14.944-0.78981z" clip-path="url(#0f2f6f3f14d)" fill="#5c5c5c"/><path d="m162.76 301.21 14.14 4.9543 0.23018 1.0841-14.106-4.4603z" clip-path="url(#0f2f6f3f14d)" fill="#6e6e6e"/><path d="m317.91 226.7-4.935 14.215-2.5926-2.9849 4.7491-14.157z" clip-path="url(#0f2f6f3f14d)" fill="#404040"/><path d="m191.7 309.8 14.782 0.60661-13.628-0.077985z" clip-path="url(#0f2f6f3f14d)" fill="#616161"/><path d="m182.1 83.85-11.522 4.5439-5.4827 0.36771 13.325-4.6772z" clip-path="url(#0f2f6f3f14d)" fill="#8d8d8d"/><path d="m149.38 294.47 13.387 6.7396 0.26353 1.5781-13.402-6.3011z" clip-path="url(#0f2f6f3f14d)" fill="#757575"/><path d="m320.93 211.94-3.0283 14.765-2.7786-2.9271 2.9113-14.636z" clip-path="url(#0f2f6f3f14d)" fill="#414141"/><path d="m218.82 310.65-12.331-0.24345 14.122-0.24932z" clip-path="url(#0f2f6f3f14d)" fill="#5c5c5c"/><path d="m218.02 81.155 11.237 2.6256-5.7654-0.17716-8.3826-2.535z" clip-path="url(#0f2f6f3f14d)" fill="#7b7b7b"/><path d="m250.01 89.032 13.264 6.5912-4.8807-0.56311-12.061-6.4261z" clip-path="url(#0f2f6f3f14d)" fill="#6d6d6d"/><path d="m192.86 310.33 13.628 0.077985-11.537 0.39106z" clip-path="url(#0f2f6f3f14d)" fill="#626262"/><path d="m136.97 286.06 12.41 8.4103 0.24907 2.0166-12.464-8.0416z" clip-path="url(#0f2f6f3f14d)" fill="#7b7b7b"/><path d="m322 196.88-1.0649 15.059-2.8955-2.7984 1.0233-14.872z" clip-path="url(#0f2f6f3f14d)" fill="#434343"/><path d="m152.54 95.241-11.577 8.1589-4.5305 0.77387 12.465-8.3536z" clip-path="url(#0f2f6f3f14d)" fill="#979797"/><path d="m196.81 81.095-9.4047 2.5622-5.3012 0.19366 12.034-2.6613z" clip-path="url(#0f2f6f3f14d)" fill="#888888"/><path d="m234.56 307.96-13.951 2.2044 0.82194-0.54049 14.71-2.7285z" clip-path="url(#0f2f6f3f14d)" fill="#575757"/><path d="m216.17 311.06-9.6893-0.65428 12.331 0.24345z" clip-path="url(#0f2f6f3f14d)" fill="#5d5d5d"/><path d="m194.95 310.8 11.537-0.39106-8.6493 0.76784z" clip-path="url(#0f2f6f3f14d)" fill="#626262"/><path d="m125.74 276.12 11.226 9.9391 0.19547 2.3853-11.308-9.6508z" clip-path="url(#0f2f6f3f14d)" fill="#828282"/><path d="m321.08 181.78 0.92088 15.094-2.9372-2.6109-0.88486-14.861z" clip-path="url(#0f2f6f3f14d)" fill="#464646"/><path d="m212.86 311.36-6.3769-0.9544 9.6893 0.65428z" clip-path="url(#0f2f6f3f14d)" fill="#5e5e5e"/><path d="m197.84 311.18 8.6493-0.76784-5.162 1.0259z" clip-path="url(#0f2f6f3f14d)" fill="#616161"/><path d="m177.13 307.25 14.569 2.5513 1.1541 0.52862-13.479-2.0375z" clip-path="url(#0f2f6f3f14d)" fill="#696969"/><path d="m209.11 311.53-2.6217-1.1226 6.3769 0.9544z" clip-path="url(#0f2f6f3f14d)" fill="#5f5f5f"/><path d="m115.89 264.82 9.8538 11.301 0.11352 2.6736-9.9521-11.1z" clip-path="url(#0f2f6f3f14d)" fill="#888888"/><path d="m318.18 166.92 2.8942 14.865-2.9011-2.3783-2.7822-14.602z" clip-path="url(#0f2f6f3f14d)" fill="#494949"/><path d="m201.32 311.44 5.162-1.0259-1.3159 1.147z" clip-path="url(#0f2f6f3f14d)" fill="#616161"/><path d="m205.17 311.56 1.3159-1.147 2.6217 1.1226z" clip-path="url(#0f2f6f3f14d)" fill="#606060"/><path d="m220.16 81.263 13.358 2.7396-4.2547-0.2224-11.237-2.6256z" clip-path="url(#0f2f6f3f14d)" fill="#7b7b7b"/><path d="m165.1 88.762-12.554 6.4792-3.6433 0.57908 13.474-6.6494z" clip-path="url(#0f2f6f3f14d)" fill="#959595"/><path d="m248.1 303.82-13.54 4.1365 1.5808-1.0646 14.226-4.6252z" clip-path="url(#0f2f6f3f14d)" fill="#545454"/><path d="m235.96 84.256 14.047 4.7754-3.6777-0.39801-12.815-4.6306z" clip-path="url(#0f2f6f3f14d)" fill="#747474"/><path d="m107.57 252.35 8.316 12.474 0.015273 2.8748-8.4181-12.362z" clip-path="url(#0f2f6f3f14d)" fill="#8d8d8d"/><path d="m313.36 152.54 4.82 14.378-2.7892-2.1155-4.638-14.099z" clip-path="url(#0f2f6f3f14d)" fill="#4d4d4d"/><path d="m194.14 81.189-12.034 2.6613-3.6796 0.2344 13.873-2.7816z" clip-path="url(#0f2f6f3f14d)" fill="#8b8b8b"/><path d="m306.7 138.9 6.664 13.639-2.6072-1.8369-6.4214-13.358z" clip-path="url(#0f2f6f3f14d)" fill="#525252"/><path d="m100.93 238.91 6.6379 13.438-0.086849 2.9867-6.7321-13.413z" clip-path="url(#0f2f6f3f14d)" fill="#939393"/><path d="m231.04 308.93-12.222 1.7232 1.7911-0.49277 13.951-2.2044z" clip-path="url(#0f2f6f3f14d)" fill="#5a5a5a"/><path d="m163.03 302.79 14.106 4.4603 2.2441 1.0424-13.096-3.9801z" clip-path="url(#0f2f6f3f14d)" fill="#707070"/><path d="m298.31 126.24 8.3934 12.662-2.3647-1.5559-8.1028-12.39z" clip-path="url(#0f2f6f3f14d)" fill="#575757"/><path d="m96.086 224.74 4.8469 14.177-0.18102 3.0111-4.9227-14.234z" clip-path="url(#0f2f6f3f14d)" fill="#989898"/><path d="m178.42 84.085-13.325 4.6772-2.7236 0.40886 14.253-4.8263z" clip-path="url(#0f2f6f3f14d)" fill="#919191"/><path d="m260.99 297.81-12.892 6.0118 2.2669-1.5533 13.5-6.4478z" clip-path="url(#0f2f6f3f14d)" fill="#505050"/><path d="m179.38 308.29 13.479 2.0375 2.091 0.46904-11.446-1.5785z" clip-path="url(#0f2f6f3f14d)" fill="#6a6a6a"/><path d="m206.48 80.479 1.3097 0.50241-3.9194 0.005568 2.6097-0.50798z" clip-path="url(#0f2f6f3f14d)" fill="#858585"/><path d="m206.48 80.479 5.1417 0.53005-3.832-0.027638-1.3097-0.50241z" clip-path="url(#0f2f6f3f14d)" fill="#848484"/><path d="m206.48 80.479-2.6097 0.50798-3.7452 0.03841 6.3549-0.54639z" clip-path="url(#0f2f6f3f14d)" fill="#858585"/><path d="m288.33 114.78 9.9772 11.463-2.0741-1.2841-9.6536-11.21z" clip-path="url(#0f2f6f3f14d)" fill="#5d5d5d"/><path d="m93.113 210.06 2.9722 14.678-0.2569 2.954-3.0218-14.808z" clip-path="url(#0f2f6f3f14d)" fill="#9c9c9c"/><path d="m221.37 81.386 14.592 2.8698-2.4454-0.25317-13.358-2.7396z" clip-path="url(#0f2f6f3f14d)" fill="#7c7c7c"/><path d="m206.48 80.479 8.6302 0.58909-3.4885-0.059035-5.1417-0.53005z" clip-path="url(#0f2f6f3f14d)" fill="#838383"/><path d="m206.48 80.479-6.3549 0.54639-3.3204 0.068736 9.6752-0.61513z" clip-path="url(#0f2f6f3f14d)" fill="#868686"/><path d="m276.94 104.71 11.387 10.064-1.7505-1.0305-11.047-9.8348z" clip-path="url(#0f2f6f3f14d)" fill="#636363"/><path d="m92.068 195.12 1.0448 14.934-0.30641 2.8248-1.0628-15.123z" clip-path="url(#0f2f6f3f14d)" fill="#9f9f9f"/><path d="m206.48 80.479 11.541 0.67564-2.9105-0.086558-8.6302-0.58909z" clip-path="url(#0f2f6f3f14d)" fill="#838383"/><path d="m206.48 80.479-9.6752 0.61513-2.6716 0.094545 12.347-0.70967z" clip-path="url(#0f2f6f3f14d)" fill="#878787"/><path d="m192.3 81.303-13.873 2.7816-1.7951 0.25978 14.788-2.9154z" clip-path="url(#0f2f6f3f14d)" fill="#8d8d8d"/><path d="m225.8 309.74-9.63 1.3197 2.6415-0.41083 12.222-1.7232z" clip-path="url(#0f2f6f3f14d)" fill="#5d5d5d"/><path d="m273.01 290.01-12.016 7.7967 2.8745-1.9892 12.542-8.1653z" clip-path="url(#0f2f6f3f14d)" fill="#4e4e4e"/><path d="m264.34 96.221 12.598 8.4898-1.4102-0.80101-12.258-8.287z" clip-path="url(#0f2f6f3f14d)" fill="#6a6a6a"/><path d="m92.972 180.19-0.90353 14.937-0.32435 2.6358 0.91906-15.172z" clip-path="url(#0f2f6f3f14d)" fill="#a2a2a2"/><path d="m206.48 80.479 13.675 0.78401-2.1346-0.10836-11.541-0.67564z" clip-path="url(#0f2f6f3f14d)" fill="#838383"/><path d="m149.63 296.49 13.402 6.3011 3.2543 1.5227-12.483-5.8716z" clip-path="url(#0f2f6f3f14d)" fill="#787878"/><path d="m183.5 309.22 11.446 1.5785 2.8878 0.37679-8.6029-1.2077z" clip-path="url(#0f2f6f3f14d)" fill="#6a6a6a"/><path d="m206.48 80.479-12.347 0.70967-1.8404 0.11409 14.187-0.82376z" clip-path="url(#0f2f6f3f14d)" fill="#888888"/><path d="m250.76 89.453 13.588 6.768-1.0699-0.59817-13.264-6.5912z" clip-path="url(#0f2f6f3f14d)" fill="#707070"/><path d="m95.812 165.5-2.8405 14.689-0.30882 2.4008 2.888-14.954z" clip-path="url(#0f2f6f3f14d)" fill="#a4a4a4"/><path d="m242.94 305.25-11.9 3.6847 3.5205-0.97392 13.54-4.1365z" clip-path="url(#0f2f6f3f14d)" fill="#585858"/><path d="m206.48 80.479 14.886 0.90696-1.211-0.12295-13.675-0.78401z" clip-path="url(#0f2f6f3f14d)" fill="#838383"/><path d="m236.41 84.523 14.341 4.9297-0.74561-0.42141-14.047-4.7754z" clip-path="url(#0f2f6f3f14d)" fill="#777777"/><path d="m100.55 151.31-4.7336 14.191-0.26135 2.135 4.8081-14.472z" clip-path="url(#0f2f6f3f14d)" fill="#a5a5a5"/><path d="m206.48 80.479-14.187 0.82376-0.88059 0.12602 15.068-0.94978z" clip-path="url(#0f2f6f3f14d)" fill="#898989"/><path d="m283.93 280.55-10.923 9.4579 3.4007-2.3578 11.368-9.7478z" clip-path="url(#0f2f6f3f14d)" fill="#4c4c4c"/><path d="m221.57 81.516 14.843 3.0077-0.45181-0.26713-14.592-2.8698z" clip-path="url(#0f2f6f3f14d)" fill="#7d7d7d"/><path d="m219.21 310.34-6.3506 1.0234 3.3124-0.30011 9.63-1.3197z" clip-path="url(#0f2f6f3f14d)" fill="#606060"/><path d="m107.1 137.86-6.5508 13.45-0.18685 1.853 6.6444-13.735z" clip-path="url(#0f2f6f3f14d)" fill="#a5a5a5"/><path d="m206.48 80.479 15.087 1.0362-0.20037-0.12927-14.886-0.90696z" clip-path="url(#0f2f6f3f14d)" fill="#848484"/><path d="m115.36 125.38-8.261 12.479-0.093193 1.5687 8.3635-12.754z" clip-path="url(#0f2f6f3f14d)" fill="#a4a4a4"/><path d="m189.23 309.97 8.6029 1.2077 3.4873 0.25807-5.1431-0.95266z" clip-path="url(#0f2f6f3f14d)" fill="#696969"/><path d="m166.28 304.31 13.096 3.9801 4.1232 0.928-11.156-3.5482z" clip-path="url(#0f2f6f3f14d)" fill="#727272"/><path d="m206.48 80.479-15.068 0.94978 0.14428 0.12943 14.924-1.0792z" clip-path="url(#0f2f6f3f14d)" fill="#8a8a8a"/><path d="m125.19 114.08-9.8347 11.293 0.009308 1.2939 9.9341-11.549z" clip-path="url(#0f2f6f3f14d)" fill="#a3a3a3"/><path d="m137.16 288.45 12.464 8.0416 4.1726 1.9522-11.646-7.6775z" clip-path="url(#0f2f6f3f14d)" fill="#7f7f7f"/><path d="m191.42 81.429-14.788 2.9154 0.2313 0.26779 14.701-3.0537z" clip-path="url(#0f2f6f3f14d)" fill="#909090"/><path d="m136.44 104.17-11.244 9.9101 0.1087 1.0375 11.328-10.142z" clip-path="url(#0f2f6f3f14d)" fill="#a0a0a0"/><path d="m176.63 84.345-14.253 4.8263 0.26374 0.42295 14.221-4.9814z" clip-path="url(#0f2f6f3f14d)" fill="#959595"/><path d="m148.9 95.82-12.465 8.3536 0.19232 0.80566 12.52-8.5583z" clip-path="url(#0f2f6f3f14d)" fill="#9d9d9d"/><path d="m162.38 89.171-13.474 6.6494 0.24773 0.60103 13.49-6.8275z" clip-path="url(#0f2f6f3f14d)" fill="#999999"/><path d="m211.72 310.68-2.6138 0.85686 3.7552-0.16822 6.3506-1.0234z" clip-path="url(#0f2f6f3f14d)" fill="#636363"/><path d="m206.48 80.479 14.257 1.163 0.82955-0.12679-15.087-1.0362z" clip-path="url(#0f2f6f3f14d)" fill="#858585"/><path d="m196.18 310.48 5.1431 0.95266 3.846 0.12112-1.3122-0.83265z" clip-path="url(#0f2f6f3f14d)" fill="#676767"/><path d="m293.56 269.59-9.6295 10.964 3.8457-2.6477 9.9956-11.168z" clip-path="url(#0f2f6f3f14d)" fill="#4a4a4a"/><path d="m206.48 80.479-14.924 1.0792 1.1649 0.12401 13.759-1.2032z" clip-path="url(#0f2f6f3f14d)" fill="#8a8a8a"/><path d="m203.86 310.72 1.3122 0.83265 3.9376-0.024418 2.6138-0.85686z" clip-path="url(#0f2f6f3f14d)" fill="#656565"/><path d="m206.48 80.479 12.449 1.2786 1.8081-0.1156-14.257-1.163z" clip-path="url(#0f2f6f3f14d)" fill="#858585"/><path d="m206.48 80.479-13.759 1.2032 2.1108 0.11004 11.648-1.3133z" clip-path="url(#0f2f6f3f14d)" fill="#8b8b8b"/><path d="m254.3 299.64-11.366 5.6059 5.1605-1.4257 12.892-6.0118z" clip-path="url(#0f2f6f3f14d)" fill="#565656"/><path d="m220.74 81.642 14.078 3.1439 1.5945-0.26298-14.843-3.0077z" clip-path="url(#0f2f6f3f14d)" fill="#808080"/><path d="m301.72 257.3-8.1576 12.285 4.2118-2.8517 8.4485-12.4z" clip-path="url(#0f2f6f3f14d)" fill="#4a4a4a"/><path d="m125.85 278.8 11.308 9.6508 4.9904 2.3162-10.597-9.3636z" clip-path="url(#0f2f6f3f14d)" fill="#878787"/><path d="m206.48 80.479 9.7824 1.375 2.6667-0.096383-12.449-1.2786z" clip-path="url(#0f2f6f3f14d)" fill="#868686"/><path d="m235.21 306.44-9.4019 3.3034 5.2333-0.81441 11.9-3.6847z" clip-path="url(#0f2f6f3f14d)" fill="#5d5d5d"/><path d="m206.48 80.479-11.648 1.3133 2.9154 0.088396 8.7324-1.4017z" clip-path="url(#0f2f6f3f14d)" fill="#8b8b8b"/><path d="m206.48 80.479 6.4382 1.4454 3.3442-0.070409-9.7824-1.375z" clip-path="url(#0f2f6f3f14d)" fill="#878787"/><path d="m191.56 81.559-14.701 3.0537 2.2641 0.25751 13.602-3.1872z" clip-path="url(#0f2f6f3f14d)" fill="#919191"/><path d="m206.48 80.479-8.7324 1.4017 3.5208 0.060547 5.2116-1.4622z" clip-path="url(#0f2f6f3f14d)" fill="#8a8a8a"/><path d="m206.48 80.479 2.6469 1.4849 3.7913-0.039468-6.4382-1.4454z" clip-path="url(#0f2f6f3f14d)" fill="#888888"/><path d="m206.48 80.479-5.2116 1.4622 3.883 0.028417 1.3286-1.4906z" clip-path="url(#0f2f6f3f14d)" fill="#8a8a8a"/><path d="m234.82 84.786 13.651 5.083 2.2851-0.41632-14.341-4.9297z" clip-path="url(#0f2f6f3f14d)" fill="#7a7a7a"/><path d="m172.35 305.67 11.156 3.5482 5.7312 0.74758-8.4054-3.1973z" clip-path="url(#0f2f6f3f14d)" fill="#727272"/><path d="m206.48 80.479-1.3286 1.4906 3.9755-0.005729-2.6469-1.4849z" clip-path="url(#0f2f6f3f14d)" fill="#898989"/><path d="m308.25 243.91-6.5318 13.394 4.5028-2.9667 6.7521-13.422z" clip-path="url(#0f2f6f3f14d)" fill="#4a4a4a"/><path d="m153.8 298.44 12.483 5.8716 6.0636 1.3599-10.665-5.4827z" clip-path="url(#0f2f6f3f14d)" fill="#7a7a7a"/><path d="m115.9 267.7 9.9521 11.1 5.7018 2.6034-9.35-10.897z" clip-path="url(#0f2f6f3f14d)" fill="#8d8d8d"/><path d="m248.47 89.869 12.978 6.9446 2.8953-0.59292-13.588-6.768z" clip-path="url(#0f2f6f3f14d)" fill="#757575"/><path d="m218.93 81.758 12.334 3.2689 3.5526-0.2406-14.078-3.1439z" clip-path="url(#0f2f6f3f14d)" fill="#828282"/><path d="m313.03 229.64-4.7808 14.27 4.7231-2.9943 4.935-14.215z" clip-path="url(#0f2f6f3f14d)" fill="#4a4a4a"/><path d="m176.86 84.612-14.221 4.9814 3.2814 0.40814 13.203-5.1321z" clip-path="url(#0f2f6f3f14d)" fill="#979797"/><path d="m264.93 292.19-10.624 7.4509 6.6868-1.8317 12.016-7.7967z" clip-path="url(#0f2f6f3f14d)" fill="#555555"/><path d="m225.42 307.32-6.2124 3.0222 6.5918-0.59634 9.4019-3.3034z" clip-path="url(#0f2f6f3f14d)" fill="#616161"/><path d="m192.73 81.683-13.602 3.1872 4.1612 0.22926 11.551-3.3065z" clip-path="url(#0f2f6f3f14d)" fill="#929292"/><path d="m261.45 96.814 12.071 8.6933 3.4224-0.79644-12.598-8.4898z" clip-path="url(#0f2f6f3f14d)" fill="#707070"/><path d="m315.96 214.75-2.9366 14.892 4.8773-2.9399 3.0283-14.765z" clip-path="url(#0f2f6f3f14d)" fill="#4c4c4c"/><path d="m107.48 255.34 8.4181 12.362 6.3039 2.8062-7.9265-12.247z" clip-path="url(#0f2f6f3f14d)" fill="#949494"/><path d="m180.83 306.77 8.4054 3.1973 6.9471 0.51312-5.0336-2.9548z" clip-path="url(#0f2f6f3f14d)" fill="#707070"/><path d="m273.52 105.51 10.943 10.295 3.8667-1.0275-11.387-10.064z" clip-path="url(#0f2f6f3f14d)" fill="#6a6a6a"/><path d="m317 199.5-1.0332 15.247 4.969-2.8127 1.0649-15.059z" clip-path="url(#0f2f6f3f14d)" fill="#4e4e4e"/><path d="m162.64 89.594-13.49 6.8275 4.2045 0.5819 12.567-7.0013z" clip-path="url(#0f2f6f3f14d)" fill="#9d9d9d"/><path d="m216.27 81.854 9.7187 3.3737 5.2819-0.2012-12.334-3.2689z" clip-path="url(#0f2f6f3f14d)" fill="#858585"/><path d="m244.21 301.18-9.0034 5.2611 7.7315-1.1957 11.366-5.6059z" clip-path="url(#0f2f6f3f14d)" fill="#5d5d5d"/><path d="m284.46 115.8 9.613 11.719 4.2308-1.2835-9.9772-11.463z" clip-path="url(#0f2f6f3f14d)" fill="#656565"/><path d="m316.1 184.17 0.89346 15.328 5.0007-2.6249-0.92088-15.094z" clip-path="url(#0f2f6f3f14d)" fill="#505050"/><path d="m214.28 307.81-2.5597 2.8636 7.4921-0.33479 6.2124-3.0222z" clip-path="url(#0f2f6f3f14d)" fill="#666666"/><path d="m142.15 290.76 11.646 7.6775 7.8815 1.7488-9.9781-7.3455z" clip-path="url(#0f2f6f3f14d)" fill="#828282"/><path d="m294.08 127.52 8.1053 12.937 4.5188-1.5584-8.3934-12.662z" clip-path="url(#0f2f6f3f14d)" fill="#606060"/><path d="m313.3 169.04 2.8066 15.131 4.9733-2.3906-2.8942-14.865z" clip-path="url(#0f2f6f3f14d)" fill="#545454"/><path d="m191.15 307.53 5.0336 2.9548 7.677 0.24113-1.2853-2.8405z" clip-path="url(#0f2f6f3f14d)" fill="#6e6e6e"/><path d="m194.84 81.793-11.551 3.3065 5.7846 0.18469 8.6822-3.4028z" clip-path="url(#0f2f6f3f14d)" fill="#929292"/><path d="m100.75 241.92 6.7321 13.413 6.7955 2.9214-6.3506-13.384z" clip-path="url(#0f2f6f3f14d)" fill="#9a9a9a"/><path d="m231.27 85.027 11.998 5.2246 5.2051-0.38217-13.651-5.083z" clip-path="url(#0f2f6f3f14d)" fill="#7f7f7f"/><path d="m302.18 140.46 6.4472 13.924 4.7356-1.8428-6.664-13.639z" clip-path="url(#0f2f6f3f14d)" fill="#5c5c5c"/><path d="m308.63 154.38 4.6698 14.66 4.8858-2.1249-4.82-14.378z" clip-path="url(#0f2f6f3f14d)" fill="#575757"/><path d="m202.57 307.88 1.2853 2.8405 7.8636-0.048626 2.5597-2.8636z" clip-path="url(#0f2f6f3f14d)" fill="#6a6a6a"/><path d="m274.61 283-9.684 9.1836 8.0782-2.1775 10.923-9.4579z" clip-path="url(#0f2f6f3f14d)" fill="#545454"/><path d="m149.15 96.421-12.52 8.5583 5.0245 0.78242 11.7-8.7588z" clip-path="url(#0f2f6f3f14d)" fill="#a1a1a1"/><path d="m161.68 300.19 10.665 5.4827 8.4817 1.0985-8.055-5.1648z" clip-path="url(#0f2f6f3f14d)" fill="#7a7a7a"/><path d="m212.92 81.925 6.4093 3.4506 6.6536-0.14733-9.7187-3.3737z" clip-path="url(#0f2f6f3f14d)" fill="#888888"/><path d="m179.12 84.87-13.203 5.1321 6.1166 0.36454 11.248-5.2674z" clip-path="url(#0f2f6f3f14d)" fill="#989898"/><path d="m95.829 227.69 4.9227 14.234 7.177 2.9502-4.6504-14.286z" clip-path="url(#0f2f6f3f14d)" fill="#9f9f9f"/><path d="m197.75 81.881-8.6822 3.4028 7.0123 0.12678 5.1907-3.469z" clip-path="url(#0f2f6f3f14d)" fill="#919191"/><path d="m136.63 104.98-11.328 10.142 5.7358 1.0104 10.617-10.37z" clip-path="url(#0f2f6f3f14d)" fill="#a5a5a5"/><path d="m209.13 81.964 2.638 3.4939 7.5626-0.082718-6.4093-3.4506z" clip-path="url(#0f2f6f3f14d)" fill="#8b8b8b"/><path d="m201.27 81.942-5.1907 3.469 7.7494 0.059576 1.3243-3.5001z" clip-path="url(#0f2f6f3f14d)" fill="#909090"/><path d="m92.807 212.88 3.0218 14.808 7.4494 2.8977-2.8573-14.932z" clip-path="url(#0f2f6f3f14d)" fill="#a3a3a3"/><path d="m205.16 81.97-1.3243 3.5001 7.9378-0.012014-2.638-3.4939z" clip-path="url(#0f2f6f3f14d)" fill="#8d8d8d"/><path d="m243.27 90.252 11.443 7.1085 6.7405-0.54602-12.978-6.9446z" clip-path="url(#0f2f6f3f14d)" fill="#7b7b7b"/><path d="m125.3 115.12-9.9341 11.549 6.3356 1.2631 9.3344-11.802z" clip-path="url(#0f2f6f3f14d)" fill="#a8a8a8"/><path d="m131.56 281.4 10.597 9.3636 9.5497 2.0809-9.1023-9.0995z" clip-path="url(#0f2f6f3f14d)" fill="#898989"/><path d="m283.17 272.24-8.5583 10.769 9.3168-2.4518 9.6295-10.964z" clip-path="url(#0f2f6f3f14d)" fill="#545454"/><path d="m231.38 302.31-5.9605 5.0056 9.7813-0.87756 9.0034-5.2611z" clip-path="url(#0f2f6f3f14d)" fill="#636363"/><path d="m91.744 197.76 1.0628 15.123 7.6138 2.7731-1.0055-15.308z" clip-path="url(#0f2f6f3f14d)" fill="#a7a7a7"/><path d="m115.37 126.67-8.3635 12.754 6.8231 1.5346 7.8761-13.026z" clip-path="url(#0f2f6f3f14d)" fill="#aaaaaa"/><path d="m225.99 85.228 9.4799 5.344 7.8-0.32054-11.998-5.2246z" clip-path="url(#0f2f6f3f14d)" fill="#838383"/><path d="m252.65 294.02-8.4367 7.1553 10.094-1.5405 10.624-7.4509z" clip-path="url(#0f2f6f3f14d)" fill="#5d5d5d"/><path d="m92.663 182.59-0.91906 15.172 7.6711 2.5881 0.8695-15.403z" clip-path="url(#0f2f6f3f14d)" fill="#a9a9a9"/><path d="m107 139.43-6.6444 13.735 7.1989 1.8157 6.2686-14.016z" clip-path="url(#0f2f6f3f14d)" fill="#acacac"/><path d="m95.551 167.63-2.888 14.954 7.6216 2.3569 2.7309-15.217z" clip-path="url(#0f2f6f3f14d)" fill="#ababab"/><path d="m172.77 301.61 8.055 5.1648 10.319 0.75555-4.8317-4.9443z" clip-path="url(#0f2f6f3f14d)" fill="#787878"/><path d="m100.36 153.16-4.8081 14.472 7.4646 2.0944 4.5424-14.751z" clip-path="url(#0f2f6f3f14d)" fill="#acacac"/><path d="m165.92 90.002-12.567 7.0013 7.9457 0.52135 10.738-7.1581z" clip-path="url(#0f2f6f3f14d)" fill="#9e9e9e"/><path d="m183.29 85.099-11.248 5.2674 8.5573 0.29449 8.4752-5.3772z" clip-path="url(#0f2f6f3f14d)" fill="#989898"/><path d="m254.71 97.36 10.674 8.8829 8.137-0.73562-12.071-8.6933z" clip-path="url(#0f2f6f3f14d)" fill="#777777"/><path d="m290.44 260.06-7.2653 12.172 10.388-2.6469 8.1576-12.285z" clip-path="url(#0f2f6f3f14d)" fill="#555555"/><path d="m151.7 292.85 9.9781 7.3455 11.092 1.4164-7.5531-7.0724z" clip-path="url(#0f2f6f3f14d)" fill="#828282"/><path d="m216.74 302.95-2.4586 4.861 11.145-0.49342 5.9605-5.0056z" clip-path="url(#0f2f6f3f14d)" fill="#6a6a6a"/><path d="m122.21 270.5 9.35 10.897 11.044 2.345-8.0501-10.708z" clip-path="url(#0f2f6f3f14d)" fill="#909090"/><path d="m186.31 302.58 4.8317 4.9443 11.425 0.35549-1.2347-4.8399z" clip-path="url(#0f2f6f3f14d)" fill="#757575"/><path d="m219.33 85.375 6.2642 5.4319 9.8692-0.23527-9.4799-5.344z" clip-path="url(#0f2f6f3f14d)" fill="#888888"/><path d="m201.34 303.04 1.2347 4.8399 11.709-0.071711 2.4586-4.861z" clip-path="url(#0f2f6f3f14d)" fill="#707070"/><path d="m189.07 85.284-8.4752 5.3772 10.412 0.20256 5.0757-5.4529z" clip-path="url(#0f2f6f3f14d)" fill="#979797"/><path d="m265.38 106.24 9.703 10.511 9.3768-0.95162-10.943-10.295z" clip-path="url(#0f2f6f3f14d)" fill="#737373"/><path d="m153.35 97.003-11.7 8.7588 9.6205 0.70302 10.025-8.9405z" clip-path="url(#0f2f6f3f14d)" fill="#a4a4a4"/><path d="m296.26 246.7-5.8275 13.364 11.28-2.7592 6.5318-13.394z" clip-path="url(#0f2f6f3f14d)" fill="#555555"/><path d="m235.47 90.572 9.065 7.2472 10.178-0.45926-11.443-7.1085z" clip-path="url(#0f2f6f3f14d)" fill="#818181"/><path d="m260.35 285.08-7.7075 8.9474 12.282-1.8361 9.684-9.1836z" clip-path="url(#0f2f6f3f14d)" fill="#5e5e5e"/><path d="m211.77 85.458 2.5812 5.4815 11.246-0.13229-6.2642-5.4319z" clip-path="url(#0f2f6f3f14d)" fill="#8d8d8d"/><path d="m236.98 295.38-5.5955 6.9351 12.824-1.1331 8.4367-7.1553z" clip-path="url(#0f2f6f3f14d)" fill="#666666"/><path d="m196.08 85.411-5.0757 5.4529 11.529 0.09531 1.296-5.4887z" clip-path="url(#0f2f6f3f14d)" fill="#959595"/><path d="m114.28 258.26 7.9265 12.247 12.344 2.5335-6.8383-12.137z" clip-path="url(#0f2f6f3f14d)" fill="#979797"/><path d="m203.83 85.47-1.296 5.4887 11.815-0.019227-2.5812-5.4815z" clip-path="url(#0f2f6f3f14d)" fill="#919191"/><path d="m172.04 90.366-10.738 7.1581 11.185 0.42228 8.1103-7.2859z" clip-path="url(#0f2f6f3f14d)" fill="#9e9e9e"/><path d="m275.09 116.75 8.5447 11.959 10.445-1.1915-9.613-11.719z" clip-path="url(#0f2f6f3f14d)" fill="#6f6f6f"/><path d="m300.53 232.38-4.2711 14.317 11.985-2.7893 4.7808-14.27z" clip-path="url(#0f2f6f3f14d)" fill="#575757"/><path d="m165.22 294.54 7.5531 7.0724 13.542 0.97611-4.5378-6.882z" clip-path="url(#0f2f6f3f14d)" fill="#7f7f7f"/><path d="m142.6 283.75 9.1023 9.0995 13.517 1.6895-6.9047-8.8809z" clip-path="url(#0f2f6f3f14d)" fill="#898989"/><path d="m141.65 105.76-10.617 10.37 11.117 0.91021 9.1205-10.577z" clip-path="url(#0f2f6f3f14d)" fill="#a8a8a8"/><path d="m283.63 128.71 7.2196 13.195 11.331-1.4495-8.1053-12.937z" clip-path="url(#0f2f6f3f14d)" fill="#6b6b6b"/><path d="m303.16 217.37-2.6258 15.008 12.494-2.7419 2.9366-14.892z" clip-path="url(#0f2f6f3f14d)" fill="#595959"/><path d="m107.93 244.87 6.3506 13.384 13.432 2.6427-5.4878-13.354z" clip-path="url(#0f2f6f3f14d)" fill="#9d9d9d"/><path d="m244.53 97.819 8.4771 9.044 12.375-0.62036-10.674-8.8829z" clip-path="url(#0f2f6f3f14d)" fill="#7f7f7f"/><path d="m267.18 274.48-6.8255 10.599 14.258-2.0723 8.5583-10.769z" clip-path="url(#0f2f6f3f14d)" fill="#5f5f5f"/><path d="m225.6 90.807 6.0017 7.3498 12.933-0.33784-9.065-7.2472z" clip-path="url(#0f2f6f3f14d)" fill="#888888"/><path d="m290.85 141.91 5.7526 14.191 12.025-1.7168-6.4472-13.924z" clip-path="url(#0f2f6f3f14d)" fill="#676767"/><path d="m304.08 201.95-0.92428 15.422 12.805-2.6252 1.0332-15.247z" clip-path="url(#0f2f6f3f14d)" fill="#5b5b5b"/><path d="m219.05 296.14-2.3104 6.81 14.647-0.63803 5.5955-6.9351z" clip-path="url(#0f2f6f3f14d)" fill="#6e6e6e"/><path d="m131.04 116.13-9.3344 11.802 12.413 1.1405 8.0376-12.032z" clip-path="url(#0f2f6f3f14d)" fill="#ababab"/><path d="m296.6 156.1 4.1721 14.925 12.523-1.9819-4.6698-14.66z" clip-path="url(#0f2f6f3f14d)" fill="#646464"/><path d="m303.28 186.4 0.79931 15.547 12.914-2.4505-0.89346-15.328z" clip-path="url(#0f2f6f3f14d)" fill="#5e5e5e"/><path d="m181.78 295.7 4.5378 6.882 15.022 0.45981-1.1604-6.7918z" clip-path="url(#0f2f6f3f14d)" fill="#7b7b7b"/><path d="m300.77 171.02 2.5098 15.38 12.82-2.2312-2.8066-15.131z" clip-path="url(#0f2f6f3f14d)" fill="#616161"/><path d="m180.59 90.661-8.1103 7.2859 13.657 0.29104 4.8651-7.3743z" clip-path="url(#0f2f6f3f14d)" fill="#9d9d9d"/><path d="m103.28 230.59 4.6504 14.286 14.295 2.6728-4.0238-14.331z" clip-path="url(#0f2f6f3f14d)" fill="#a2a2a2"/><path d="m200.18 296.25 1.1604 6.7918 15.402-0.092784 2.3104-6.81z" clip-path="url(#0f2f6f3f14d)" fill="#757575"/><path d="m161.3 97.525-10.025 8.9405 13.62 0.57084 7.5895-9.089z" clip-path="url(#0f2f6f3f14d)" fill="#a4a4a4"/><path d="m242.1 286.61-5.1204 8.7704 15.665-1.3533 7.7075-8.9474z" clip-path="url(#0f2f6f3f14d)" fill="#686868"/><path d="m121.7 127.93-7.8761 13.026 13.494 1.3884 6.7955-13.274z" clip-path="url(#0f2f6f3f14d)" fill="#aeaeae"/><path d="m134.55 273.04 8.0501 10.708 15.715 1.9081-6.1181-10.551z" clip-path="url(#0f2f6f3f14d)" fill="#909090"/><path d="m214.35 90.94 2.4756 7.4077 14.772-0.19024-6.0017-7.3498z" clip-path="url(#0f2f6f3f14d)" fill="#8f8f8f"/><path d="m100.42 215.65 2.8573 14.932 14.921 2.6283-2.4745-15.044z" clip-path="url(#0f2f6f3f14d)" fill="#a7a7a7"/><path d="m191.01 90.864-4.8651 7.3743 15.151 0.1371 1.2433-7.4161z" clip-path="url(#0f2f6f3f14d)" fill="#999999"/><path d="m253.01 106.86 7.7234 10.695 14.355-0.80442-9.703-10.511z" clip-path="url(#0f2f6f3f14d)" fill="#7d7d7d"/><path d="m272.98 262.4-5.8047 12.073 15.991-2.2419 7.2653-12.172z" clip-path="url(#0f2f6f3f14d)" fill="#616161"/><path d="m158.31 285.65 6.9047 8.8809 16.557 1.1665-4.1542-8.7276z" clip-path="url(#0f2f6f3f14d)" fill="#878787"/><path d="m202.54 90.959-1.2433 7.4161 15.534-0.027666-2.4756-7.4077z" clip-path="url(#0f2f6f3f14d)" fill="#959595"/><path d="m113.83 140.96-6.2686 14.016 14.345 1.6452 5.4175-14.273z" clip-path="url(#0f2f6f3f14d)" fill="#afafaf"/><path d="m99.415 200.35 1.0055 15.308 15.304 2.517-0.87114-15.475z" clip-path="url(#0f2f6f3f14d)" fill="#ababab"/><path d="m107.56 154.98-4.5424 14.751 14.957 1.8998 3.9307-15.006z" clip-path="url(#0f2f6f3f14d)" fill="#b0b0b0"/><path d="m231.6 98.157 5.6227 9.1635 15.787-0.45729-8.4771-9.044z" clip-path="url(#0f2f6f3f14d)" fill="#888888"/><path d="m100.28 184.94-0.8695 15.403 15.439 2.3497 0.75335-15.614z" clip-path="url(#0f2f6f3f14d)" fill="#adadad"/><path d="m103.02 169.73-2.7309 15.217 15.322 2.1393 2.3652-15.456z" clip-path="url(#0f2f6f3f14d)" fill="#afafaf"/><path d="m151.27 106.47-9.1205 10.577 15.822 0.74073 6.9192-10.747z" clip-path="url(#0f2f6f3f14d)" fill="#a8a8a8"/><path d="m221.16 287.47-2.1162 8.6695 17.932-0.76309 5.1204-8.7704z" clip-path="url(#0f2f6f3f14d)" fill="#727272"/><path d="m127.71 260.9 6.8383 12.137 17.647 2.0656-5.2056-12.045z" clip-path="url(#0f2f6f3f14d)" fill="#979797"/><path d="m172.48 97.947-7.5895 9.089 16.687 0.39416 4.5599-9.1922z" clip-path="url(#0f2f6f3f14d)" fill="#a1a1a1"/><path d="m260.73 117.56 6.8154 12.164 16.084-1.0093-8.5447-11.959z" clip-path="url(#0f2f6f3f14d)" fill="#7a7a7a"/><path d="m277.65 249.07-4.6628 13.335 17.452-2.3412 5.8275-13.364z" clip-path="url(#0f2f6f3f14d)" fill="#636363"/><path d="m246.64 276.14-4.5414 10.471 18.252-1.5303 6.8255-10.599z" clip-path="url(#0f2f6f3f14d)" fill="#6b6b6b"/><path d="m177.62 286.97 4.1542 8.7276 18.4 0.55009-1.0631-8.6547z" clip-path="url(#0f2f6f3f14d)" fill="#828282"/><path d="m199.11 287.6 1.0631 8.6547 18.873-0.11103 2.1162-8.6695z" clip-path="url(#0f2f6f3f14d)" fill="#7a7a7a"/><path d="m216.83 98.347 2.3217 9.2311 18.073-0.25786-5.6227-9.1635z" clip-path="url(#0f2f6f3f14d)" fill="#909090"/><path d="m152.2 275.1 6.1181 10.551 19.308 1.3197-3.6858-10.44z" clip-path="url(#0f2f6f3f14d)" fill="#8d8d8d"/><path d="m267.55 129.72 5.7687 13.416 17.535-1.2301-7.2196-13.195z" clip-path="url(#0f2f6f3f14d)" fill="#777777"/><path d="m281.07 234.71-3.4213 14.355 18.616-2.3702 4.2711-14.317z" clip-path="url(#0f2f6f3f14d)" fill="#656565"/><path d="m142.15 117.04-8.0376 12.032 17.75 0.92998 6.1092-12.222z" clip-path="url(#0f2f6f3f14d)" fill="#ababab"/><path d="m186.14 98.238-4.5599 9.1922 18.545 0.18589 1.1661-9.2409z" clip-path="url(#0f2f6f3f14d)" fill="#9d9d9d"/><path d="m122.22 247.55 5.4878 13.354 19.279 2.1582-4.1833-13.327z" clip-path="url(#0f2f6f3f14d)" fill="#9d9d9d"/><path d="m237.22 107.32 5.1314 10.832 18.379-0.59409-7.7234-10.695z" clip-path="url(#0f2f6f3f14d)" fill="#878787"/><path d="m201.29 98.375-1.1661 9.2409 19.022-0.037521-2.3217-9.2311z" clip-path="url(#0f2f6f3f14d)" fill="#979797"/><path d="m273.31 143.14 4.6033 14.42 18.684-1.4589-5.7526-14.191z" clip-path="url(#0f2f6f3f14d)" fill="#757575"/><path d="m283.17 219.61-2.105 15.106 19.466-2.3323 2.6258-15.008z" clip-path="url(#0f2f6f3f14d)" fill="#676767"/><path d="m164.89 107.04-6.9192 10.747 19.443 0.51234 4.1632-10.865z" clip-path="url(#0f2f6f3f14d)" fill="#a5a5a5"/><path d="m250.51 264.14-3.8672 11.997 20.537-1.6584 5.8047-12.073z" clip-path="url(#0f2f6f3f14d)" fill="#6d6d6d"/><path d="m223.04 277.07-1.8785 10.398 20.936-0.86398 4.5414-10.471z" clip-path="url(#0f2f6f3f14d)" fill="#767676"/><path d="m134.12 129.07-6.7955 13.274 19.372 1.134 5.1735-13.478z" clip-path="url(#0f2f6f3f14d)" fill="#aeaeae"/><path d="m277.92 157.56 3.3423 15.152 19.514-1.6859-4.1721-14.925z" clip-path="url(#0f2f6f3f14d)" fill="#727272"/><path d="m283.91 204.04-0.74126 15.57 19.987-2.2344 0.92428-15.422z" clip-path="url(#0f2f6f3f14d)" fill="#6a6a6a"/><path d="m118.2 233.22 4.0238 14.331 20.584 2.1858-3.0705-14.365z" clip-path="url(#0f2f6f3f14d)" fill="#a2a2a2"/><path d="m173.94 276.53 3.6858 10.44 21.491 0.62298-0.94377-10.387z" clip-path="url(#0f2f6f3f14d)" fill="#888888"/><path d="m281.26 172.71 2.0121 15.594 20.012-1.8992-2.5098-15.38z" clip-path="url(#0f2f6f3f14d)" fill="#6f6f6f"/><path d="m283.27 188.3 0.64104 15.734 20.17-2.0862-0.79931-15.547z" clip-path="url(#0f2f6f3f14d)" fill="#6c6c6c"/><path d="m146.99 263.06 5.2056 12.045 21.74 1.4307-3.1396-11.979z" clip-path="url(#0f2f6f3f14d)" fill="#949494"/><path d="m242.35 118.15 4.535 12.317 20.659-0.74667-6.8154-12.164z" clip-path="url(#0f2f6f3f14d)" fill="#868686"/><path d="m198.17 277.21 0.94377 10.387 22.052-0.12578 1.8785-10.398z" clip-path="url(#0f2f6f3f14d)" fill="#808080"/><path d="m219.15 107.58 2.1209 10.91 21.083-0.33543-5.1314-10.832z" clip-path="url(#0f2f6f3f14d)" fill="#919191"/><path d="m127.32 142.35-5.4175 14.273 20.66 1.3455 4.13-14.484z" clip-path="url(#0f2f6f3f14d)" fill="#afafaf"/><path d="m115.72 218.17 2.4745 15.044 21.537 2.1515-1.8896-15.133z" clip-path="url(#0f2f6f3f14d)" fill="#a7a7a7"/><path d="m181.58 107.43-4.1632 10.865 21.642 0.24187 1.0654-10.921z" clip-path="url(#0f2f6f3f14d)" fill="#a0a0a0"/><path d="m253.62 250.83-3.1099 13.312 22.474-1.7343 4.6628-13.335z" clip-path="url(#0f2f6f3f14d)" fill="#707070"/><path d="m200.13 107.62-1.0654 10.921 22.208-0.048834-2.1209-10.91z" clip-path="url(#0f2f6f3f14d)" fill="#999999"/><path d="m157.98 117.78-6.1092 12.222 21.871 0.6442 3.6806-12.353z" clip-path="url(#0f2f6f3f14d)" fill="#a8a8a8"/><path d="m121.9 156.62-3.9307 15.006 21.591 1.5553 2.9996-15.216z" clip-path="url(#0f2f6f3f14d)" fill="#b0b0b0"/><path d="m114.85 202.7 0.87114 15.475 22.122 2.0617-0.66547-15.611z" clip-path="url(#0f2f6f3f14d)" fill="#ababab"/><path d="m117.97 171.63-2.3652 15.456 22.15 1.7524 1.8062-15.654z" clip-path="url(#0f2f6f3f14d)" fill="#afafaf"/><path d="m115.61 187.08-0.75335 15.614 22.328 1.925 0.5755-15.787z" clip-path="url(#0f2f6f3f14d)" fill="#adadad"/><path d="m224.64 265.12-1.6009 11.953 23.599-0.93731 3.8672-11.997z" clip-path="url(#0f2f6f3f14d)" fill="#7a7a7a"/><path d="m246.89 130.47 3.8436 13.58 22.585-0.91126-5.7687-13.416z" clip-path="url(#0f2f6f3f14d)" fill="#848484"/><path d="m142.81 249.73 4.1833 13.327 23.806 1.4968-2.5254-13.306z" clip-path="url(#0f2f6f3f14d)" fill="#9a9a9a"/><path d="m170.8 264.56 3.1396 11.979 24.233 0.67602-0.80436-11.947z" clip-path="url(#0f2f6f3f14d)" fill="#8d8d8d"/><path d="m255.9 236.45-2.2838 14.382 24.027-1.7577 3.4213-14.355z" clip-path="url(#0f2f6f3f14d)" fill="#737373"/><path d="m221.27 118.49 1.876 12.403 23.742-0.42205-4.535-12.317z" clip-path="url(#0f2f6f3f14d)" fill="#919191"/><path d="m197.36 265.26 0.80436 11.947 24.874-0.13652 1.6009-11.953z" clip-path="url(#0f2f6f3f14d)" fill="#858585"/><path d="m151.87 130-5.1735 13.478 23.924 0.78649 3.1205-13.62z" clip-path="url(#0f2f6f3f14d)" fill="#aaaaaa"/><path d="m177.42 118.3-3.6806 12.353 24.381 0.3044 0.94249-12.416z" clip-path="url(#0f2f6f3f14d)" fill="#a3a3a3"/><path d="m250.73 144.05 3.0704 14.591 24.117-1.082-4.6033-14.42z" clip-path="url(#0f2f6f3f14d)" fill="#828282"/><path d="m199.06 118.54-0.94249 12.416 25.026-0.061472-1.876-12.403z" clip-path="url(#0f2f6f3f14d)" fill="#9b9b9b"/><path d="m257.31 221.27-1.406 15.178 25.164-1.7311 2.105-15.106z" clip-path="url(#0f2f6f3f14d)" fill="#767676"/><path d="m139.74 235.37 3.0705 14.365 25.464 1.5175-1.855-14.388z" clip-path="url(#0f2f6f3f14d)" fill="#9f9f9f"/><path d="m225.93 251.82-1.2881 13.298 25.865-0.98115 3.1099-13.312z" clip-path="url(#0f2f6f3f14d)" fill="#7d7d7d"/><path d="m253.8 158.64 2.2312 15.321 25.229-1.2514-3.3423-15.152z" clip-path="url(#0f2f6f3f14d)" fill="#808080"/><path d="m146.69 143.48-4.13 14.484 25.561 0.93416 2.4934-14.632z" clip-path="url(#0f2f6f3f14d)" fill="#acacac"/><path d="m257.8 205.59-0.49524 15.68 25.863-1.6593 0.74126-15.57z" clip-path="url(#0f2f6f3f14d)" fill="#797979"/><path d="m168.27 251.25 2.5254 13.306 26.568 0.70778-0.64729-13.296z" clip-path="url(#0f2f6f3f14d)" fill="#939393"/><path d="m223.14 130.89 1.5911 13.674 25.995-0.51556-3.8436-13.58z" clip-path="url(#0f2f6f3f14d)" fill="#909090"/><path d="m256.03 173.96 1.3439 15.753 25.897-1.4104-2.0121-15.594z" clip-path="url(#0f2f6f3f14d)" fill="#7e7e7e"/><path d="m257.38 189.71 0.42829 15.873 26.11-1.5495-0.64104-15.734z" clip-path="url(#0f2f6f3f14d)" fill="#7b7b7b"/><path d="m137.85 220.23 1.8896 15.133 26.68 1.4948-1.1421-15.195z" clip-path="url(#0f2f6f3f14d)" fill="#a3a3a3"/><path d="m196.72 251.97 0.64729 13.296 27.279-0.14296 1.2881-13.298z" clip-path="url(#0f2f6f3f14d)" fill="#898989"/><path d="m173.74 130.65-3.1205 13.62 26.702 0.37192 0.79948-13.687z" clip-path="url(#0f2f6f3f14d)" fill="#a4a4a4"/><path d="m142.56 157.97-2.9996 15.216 26.748 1.0806 1.8122-15.362z" clip-path="url(#0f2f6f3f14d)" fill="#acacac"/><path d="m226.88 237.43-0.94642 14.396 27.687-0.99517 2.2838-14.382z" clip-path="url(#0f2f6f3f14d)" fill="#818181"/><path d="m137.18 204.62 0.66547 15.611 27.427 1.433-0.40233-15.706z" clip-path="url(#0f2f6f3f14d)" fill="#a7a7a7"/><path d="m198.12 130.95-0.79948 13.687 27.417-0.075122-1.5911-13.674z" clip-path="url(#0f2f6f3f14d)" fill="#9b9b9b"/><path d="m139.56 173.18-1.8062 15.654 27.463 1.2181 1.0917-15.791z" clip-path="url(#0f2f6f3f14d)" fill="#ababab"/><path d="m137.76 188.84-0.5755 15.787 27.69 1.3383 0.34794-15.907z" clip-path="url(#0f2f6f3f14d)" fill="#a9a9a9"/><path d="m224.74 144.57 1.2718 14.688 27.793-0.61264-3.0704-14.591z" clip-path="url(#0f2f6f3f14d)" fill="#8f8f8f"/><path d="m166.42 236.86 1.855 14.388 28.446 0.718-0.47561-14.398z" clip-path="url(#0f2f6f3f14d)" fill="#989898"/><path d="m170.62 144.27-2.4934 14.632 28.556 0.44202 0.63909-14.702z" clip-path="url(#0f2f6f3f14d)" fill="#a5a5a5"/><path d="m196.24 237.57 0.47561 14.398 29.215-0.14505 0.94642-14.396z" clip-path="url(#0f2f6f3f14d)" fill="#8d8d8d"/><path d="m227.46 222.21-0.58284 15.218 29.024-0.98064 1.406-15.178z" clip-path="url(#0f2f6f3f14d)" fill="#848484"/><path d="m226.01 159.25 0.92464 15.418 29.1-0.70892-2.2312-15.321z" clip-path="url(#0f2f6f3f14d)" fill="#8e8e8e"/><path d="m197.32 144.64-0.63909 14.702 29.328-0.089295-1.2718-14.688z" clip-path="url(#0f2f6f3f14d)" fill="#9b9b9b"/><path d="m165.27 221.67 1.1421 15.195 29.826 0.70759-0.29291-15.224z" clip-path="url(#0f2f6f3f14d)" fill="#9c9c9c"/><path d="m227.67 206.47-0.20534 15.742 29.847-0.94031 0.49524-15.68z" clip-path="url(#0f2f6f3f14d)" fill="#878787"/><path d="m226.93 174.67 0.55713 15.843 29.887-0.79927-1.3439-15.753z" clip-path="url(#0f2f6f3f14d)" fill="#8c8c8c"/><path d="m168.12 158.9-1.8122 15.362 29.903 0.51154 0.46466-15.432z" clip-path="url(#0f2f6f3f14d)" fill="#a5a5a5"/><path d="m227.49 190.51 0.17758 15.952 30.137-0.87821-0.42829-15.873z" clip-path="url(#0f2f6f3f14d)" fill="#8a8a8a"/><path d="m195.95 222.34 0.29291 15.224 30.637-0.14296 0.58284-15.218z" clip-path="url(#0f2f6f3f14d)" fill="#919191"/><path d="m164.87 205.96 0.40233 15.706 30.675 0.67854-0.1032-15.751z" clip-path="url(#0f2f6f3f14d)" fill="#9f9f9f"/><path d="m196.68 159.34-0.46466 15.432 30.717-0.10335-0.92464-15.418z" clip-path="url(#0f2f6f3f14d)" fill="#9a9a9a"/><path d="m166.31 174.26-1.0917 15.791 30.715 0.57677 0.27999-15.856z" clip-path="url(#0f2f6f3f14d)" fill="#a4a4a4"/><path d="m165.22 190.05-0.34794 15.907 30.974 0.63375 0.089245-15.964z" clip-path="url(#0f2f6f3f14d)" fill="#a2a2a2"/><path d="m195.85 206.59 0.1032 15.751 31.513-0.1371 0.20534-15.742z" clip-path="url(#0f2f6f3f14d)" fill="#949494"/><path d="m196.21 174.77-0.27999 15.856 31.554-0.11654-0.55713-15.843z" clip-path="url(#0f2f6f3f14d)" fill="#999999"/><path d="m195.93 190.63-0.089245 15.964 31.821-0.12805-0.17758-15.952z" clip-path="url(#0f2f6f3f14d)" fill="#979797"/></g><path d="m204.48 195.98q-55.208-0.42096-110.42-0.84193" clip-path="url(#0f2f6f3f14d)" fill="none" opacity=".25" stroke="#4060bf" stroke-linecap="round" stroke-width="2"/><g transform="translate(194.48 48.787) scale(.12 -.12)"><defs><path id="DejaVuSans-7c" transform="scale(.015625)" d="m1344 4891v-6400h-531v6400h531z"/><path id="DejaVuSans-30" transform="scale(.015625)" d="m2034 4250q-487 0-733-480-245-479-245-1442 0-959 245-1439 246-480 733-480 491 0 736 480 246 480 246 1439 0 963-246 1442-245 480-736 480zm0 500q785 0 1199-621 414-620 414-1801 0-1178-414-1799-414-620-1199-620-784 0-1198 620-414 621-414 1799 0 1181 414 1801 414 621 1198 621z"/><path id="DejaVuSans-27e9" transform="scale(.015625)" d="m1925 2006-881-2850h-531l881 2850-881 2850h531l881-2850z"/></defs><use transform="translate(0 .57812)" xlink:href="#DejaVuSans-7c"/><use transform="translate(33.691 .57812)" xlink:href="#DejaVuSans-30"/><use transform="translate(97.314 .57812)" xlink:href="#DejaVuSans-30"/><use transform="translate(160.94 .57812)" xlink:href="#DejaVuSans-27e9"/></g><g transform="translate(45.955 198.04) scale(.12 -.12)"><defs><path id="DejaVuSans-31" transform="scale(.015625)" d="m794 531h1031v3560l-1122-225v575l1116 225h631v-4135h1031v-531h-2687v531z"/></defs><use transform="translate(0 .57812)" xlink:href="#DejaVuSans-7c"/><use transform="translate(33.691 .57812)" xlink:href="#DejaVuSans-30"/><use transform="translate(97.314 .57812)" xlink:href="#DejaVuSans-31"/><use transform="translate(160.94 .57812)" xlink:href="#DejaVuSans-27e9"/></g><g transform="translate(194.48 347.7) scale(.12 -.12)"><use transform="translate(0 .57812)" xlink:href="#DejaVuSans-7c"/><use transform="translate(33.691 .57812)" xlink:href="#DejaVuSans-31"/><use transform="translate(97.314 .57812)" xlink:href="#DejaVuSans-31"/><use transform="translate(160.94 .57812)" xlink:href="#DejaVuSans-27e9"/></g><path d="m206.48 198q0 55.207 0 110.41" clip-path="url(#0f2f6f3f14d)" fill="none" opacity=".25" stroke="#40bf60" stroke-linecap="round" stroke-width="2"/><path d="m208.48 196.01q55.758 0.42516 111.52 0.85033" clip-path="url(#0f2f6f3f14d)" opacity="0"/><path d="m206.48 194q0-55.759 0-111.52" clip-path="url(#0f2f6f3f14d)" fill="none" opacity=".5" stroke="#4060bf" stroke-linecap="round" stroke-width="2"/><path d="m373.34 338.21c0-0.56032-0.013752-1.1206-0.041246-1.6802-0.027493-0.55964-0.068719-1.1185-0.12364-1.6761l-34.077 3.3563z" fill="#5770db"/><path d="m373.18 334.85c-0.054921-0.55762-0.12352-1.1138-0.20574-1.6681-0.082216-0.55425-0.17802-1.1064-0.28734-1.656l-33.584 6.6804z" fill="#5763db"/><path d="m372.68 331.53c-0.10931-0.54955-0.2321-1.0963-0.36824-1.6399s-0.28561-1.0836-0.44826-1.6198l-32.768 9.94z" fill="#5757db"/><path d="m371.87 328.27c-0.16265-0.53619-0.33844-1.0683-0.52721-1.5959-0.18876-0.52756-0.39045-1.0504-0.60488-1.5681l-31.636 13.104z" fill="#6357db"/><path d="m370.73 325.11c-0.21442-0.51767-0.44152-1.03-0.68109-1.5365s-0.49153-1.0071-0.75566-1.5012l-30.199 16.142z" fill="#6f57db"/><path d="m369.3 322.07c-0.26413-0.49416-0.54035-0.98175-0.82842-1.4624s-0.58787-0.95406-0.89917-1.4199l-28.471 19.024z" fill="#7c57db"/><path d="m367.57 319.19c-0.3113-0.46589-0.63398-0.92406-0.96776-1.3741-0.33378-0.45005-0.67856-0.89184-1.034-1.325l-26.47 21.723z" fill="#8857db"/><path d="m365.57 316.49c-0.35546-0.43313-0.7215-0.85747-1.0978-1.2726-0.37628-0.41517-0.76271-0.82104-1.1589-1.2172l-24.213 24.213z" fill="#9557db"/><path d="m363.31 314c-0.3962-0.3962-0.80207-0.78262-1.2172-1.1589-0.41517-0.37629-0.83951-0.74232-1.2726-1.0978l-21.723 26.47z" fill="#a157db"/><path d="m360.82 311.74c-0.43313-0.35546-0.87492-0.70024-1.325-1.034-0.45005-0.33378-0.90822-0.65646-1.3741-0.96776l-19.024 28.471z" fill="#ad57db"/><path d="m358.12 309.74c-0.46589-0.3113-0.93934-0.61111-1.4199-0.89917-0.4806-0.28806-0.9682-0.56428-1.4624-0.82841l-16.142 30.199z" fill="#ba57db"/><path d="m355.24 308.01c-0.49416-0.26413-0.99472-0.5161-1.5012-0.75566-0.50652-0.23957-1.0188-0.46667-1.5365-0.68109l-13.104 31.636z" fill="#c657db"/><path d="m352.2 306.57c-0.51766-0.21442-1.0405-0.41611-1.5681-0.60488s-1.0597-0.36455-1.5959-0.52721l-9.94 32.768z" fill="#d357db"/><path d="m349.04 305.44c-0.53619-0.16265-1.0763-0.31212-1.6198-0.44826s-1.0903-0.25893-1.6399-0.36824l-6.6804 33.584z" fill="#db57d7"/><path d="m345.78 304.63c-0.54955-0.10931-1.1017-0.20512-1.656-0.28734-0.55425-0.082216-1.1104-0.15081-1.6681-0.20574l-3.3563 34.077z" fill="#db57cb"/><path d="m342.46 304.13c-0.55762-0.054921-1.1165-0.096145-1.6761-0.12364-0.55964-0.027494-1.1199-0.041246-1.6802-0.041246l2e-6 34.242z" fill="#db57bf"/><path d="m339.1 303.97c-0.56032 0-1.1206 0.013752-1.6802 0.041246-0.55964 0.027495-1.1185 0.068719-1.6761 0.12364l3.3563 34.077z" fill="#db57b2"/><path d="m335.74 304.13c-0.55762 0.054922-1.1138 0.12352-1.6681 0.20574-0.55425 0.082215-1.1064 0.17802-1.656 0.28734l6.6804 33.584z" fill="#db57a6"/><path d="m332.42 304.63c-0.54955 0.10931-1.0963 0.2321-1.6399 0.36824-0.54352 0.13614-1.0836 0.28561-1.6198 0.44826l9.94 32.768z" fill="#db5799"/><path d="m329.16 305.44c-0.53619 0.16265-1.0683 0.33844-1.5959 0.5272s-1.0504 0.39045-1.5681 0.60488l13.104 31.636z" fill="#db578d"/><path d="m325.99 306.57c-0.51767 0.21442-1.03 0.44152-1.5365 0.68109-0.50652 0.23957-1.0071 0.49153-1.5012 0.75566l16.142 30.199z" fill="#db5780"/><path d="m322.96 308.01c-0.49416 0.26413-0.98175 0.54035-1.4624 0.82841-0.4806 0.28806-0.95406 0.58788-1.4199 0.89917l19.024 28.471z" fill="#db5774"/><path d="m320.07 309.74c-0.46589 0.3113-0.92407 0.63398-1.3741 0.96776-0.45005 0.33378-0.89184 0.67856-1.325 1.034l21.723 26.47z" fill="#db5768"/><path d="m317.38 311.74c-0.43313 0.35546-0.85747 0.7215-1.2726 1.0978-0.41517 0.37628-0.82104 0.76271-1.2172 1.1589l24.213 24.213z" fill="#db575b"/><path d="m314.89 314c-0.3962 0.3962-0.78263 0.80208-1.1589 1.2172-0.37629 0.41517-0.74232 0.83951-1.0978 1.2726l26.47 21.723z" fill="#db5f57"/><path d="m312.63 316.49c-0.35546 0.43313-0.70024 0.87492-1.034 1.325-0.33378 0.45005-0.65647 0.90823-0.96776 1.3741l28.471 19.024z" fill="#db6b57"/><path d="m310.63 319.19c-0.3113 0.46589-0.61111 0.93934-0.89917 1.4199s-0.56428 0.9682-0.82841 1.4624l30.199 16.142z" fill="#db7857"/><path d="m308.9 322.07c-0.26413 0.49416-0.5161 0.99472-0.75566 1.5012-0.23957 0.50652-0.46666 1.0188-0.68109 1.5365l31.636 13.104z" fill="#db8457"/><path d="m307.46 325.11c-0.21442 0.51767-0.41611 1.0405-0.60487 1.5681-0.18877 0.52756-0.36456 1.0597-0.52721 1.5959l32.768 9.94z" fill="#db9057"/><path d="m306.33 328.27c-0.16265 0.53619-0.31212 1.0763-0.44826 1.6198-0.13614 0.54352-0.25893 1.0903-0.36824 1.6399l33.584 6.6804z" fill="#db9d57"/><path d="m305.51 331.53c-0.10931 0.54955-0.20512 1.1017-0.28734 1.656-0.082215 0.55425-0.15081 1.1104-0.20574 1.6681l34.077 3.3563z" fill="#dba957"/><path d="m305.02 334.85c-0.054921 0.55762-0.096145 1.1165-0.12364 1.6761-0.027494 0.55964-0.041246 1.1199-0.041246 1.6802l34.242-3e-6z" fill="#dbb657"/><path d="m304.86 338.21c0 0.56032 0.013752 1.1205 0.041246 1.6802 0.027495 0.55964 0.068719 1.1185 0.12364 1.6761l34.077-3.3563z" fill="#dbc257"/><path d="m305.02 341.57c0.054921 0.55762 0.12352 1.1138 0.20574 1.6681 0.082216 0.55425 0.17802 1.1064 0.28734 1.656l33.584-6.6803z" fill="#dbcf57"/><path d="m305.51 344.89c0.10931 0.54955 0.2321 1.0963 0.36824 1.6399s0.28561 1.0836 0.44826 1.6198l32.768-9.94z" fill="#dbdb57"/><path d="m306.33 348.15c0.16265 0.53619 0.33844 1.0683 0.5272 1.5959 0.18876 0.52756 0.39045 1.0504 0.60488 1.5681l31.636-13.104z" fill="#cfdb57"/><path d="m307.46 351.31c0.21442 0.51767 0.44152 1.03 0.68109 1.5365 0.23957 0.50652 0.49153 1.0071 0.75566 1.5012l30.199-16.142z" fill="#c3db57"/><path d="m308.9 354.35c0.26413 0.49416 0.54035 0.98175 0.82841 1.4624s0.58788 0.95406 0.89917 1.4199l28.471-19.024z" fill="#b6db57"/><path d="m310.63 357.23c0.3113 0.46589 0.63398 0.92406 0.96776 1.3741 0.33378 0.45005 0.67856 0.89184 1.034 1.325l26.47-21.723z" fill="#aadb57"/><path d="m312.63 359.93c0.35546 0.43313 0.7215 0.85748 1.0978 1.2726 0.37628 0.41517 0.7627 0.82104 1.1589 1.2172l24.213-24.213z" fill="#9ddb57"/><path d="m314.89 362.42c0.3962 0.3962 0.80207 0.78262 1.2172 1.1589 0.41517 0.37629 0.83951 0.74233 1.2726 1.0978l21.723-26.47z" fill="#91db57"/><path d="m317.38 364.68c0.43313 0.35546 0.87493 0.70024 1.325 1.034 0.45005 0.33378 0.90822 0.65646 1.3741 0.96775l19.024-28.471z" fill="#85db57"/><path d="m320.07 366.68c0.46589 0.3113 0.93935 0.61111 1.4199 0.89917 0.4806 0.28806 0.9682 0.56428 1.4624 0.82842l16.142-30.199z" fill="#78db57"/><path d="m322.96 368.41c0.49415 0.26413 0.99471 0.51609 1.5012 0.75566s1.0189 0.46666 1.5365 0.68109l13.104-31.636z" fill="#6cdb57"/><path d="m325.99 369.85c0.51767 0.21443 1.0405 0.41611 1.5681 0.60488 0.52756 0.18877 1.0597 0.36455 1.5959 0.5272l9.94-32.768z" fill="#5fdb57"/><path d="m329.16 370.98c0.53619 0.16265 1.0763 0.31212 1.6198 0.44827 0.54352 0.13614 1.0903 0.25893 1.6398 0.36824l6.6804-33.584z" fill="#57db5b"/><path d="m332.42 371.79c0.54955 0.10931 1.1017 0.20512 1.6559 0.28734 0.55425 0.082216 1.1104 0.15082 1.6681 0.20574l3.3563-34.077z" fill="#57db67"/><path d="m335.74 372.29c0.55762 0.054922 1.1165 0.096146 1.6762 0.12364 0.55964 0.027494 1.1199 0.041247 1.6802 0.041247v-34.242z" fill="#57db73"/><path d="m339.1 372.45c0.56032 0 1.1206-0.013753 1.6802-0.041247s1.1185-0.068718 1.6761-0.12364l-3.3563-34.077z" fill="#57db80"/><path d="m342.46 372.29c0.55762-0.054921 1.1138-0.12352 1.6681-0.20574s1.1064-0.17802 1.656-0.28734l-6.6804-33.584z" fill="#57db8c"/><path d="m345.78 371.79c0.54955-0.10931 1.0963-0.23209 1.6399-0.36824 0.54352-0.13614 1.0836-0.28561 1.6198-0.44827l-9.94-32.768z" fill="#57db99"/><path d="m349.04 370.98c0.53619-0.16265 1.0683-0.33844 1.5959-0.5272 0.52756-0.18877 1.0504-0.39045 1.5681-0.60488l-13.104-31.636z" fill="#57dba5"/><path d="m352.2 369.85c0.51766-0.21442 1.03-0.44152 1.5365-0.68109s1.0071-0.49153 1.5012-0.75566l-16.142-30.199z" fill="#57dbb2"/><path d="m355.24 368.41c0.49416-0.26413 0.98174-0.54035 1.4623-0.82841s0.95406-0.58788 1.4199-0.89917l-19.024-28.471z" fill="#57dbbe"/><path d="m358.12 366.68c0.46589-0.3113 0.92407-0.63398 1.3741-0.96776 0.45005-0.33378 0.89184-0.67856 1.325-1.034l-21.723-26.47z" fill="#57dbca"/><path d="m360.82 364.68c0.43313-0.35546 0.85748-0.7215 1.2726-1.0978 0.41517-0.37628 0.82103-0.7627 1.2172-1.1589l-24.213-24.213z" fill="#57dbd7"/><path d="m363.31 362.42c0.39621-0.3962 0.78263-0.80208 1.1589-1.2172 0.37629-0.41517 0.74233-0.83951 1.0978-1.2726l-26.47-21.723z" fill="#57d3db"/><path d="m365.57 359.93c0.35546-0.43313 0.70023-0.87491 1.034-1.325 0.33378-0.45005 0.65647-0.90823 0.96776-1.3741l-28.471-19.024z" fill="#57c7db"/><path d="m367.57 357.23c0.3113-0.46588 0.61111-0.93935 0.89917-1.4199s0.56428-0.96819 0.82841-1.4623l-30.199-16.142z" fill="#57badb"/><path d="m369.3 354.35c0.26413-0.49416 0.5161-0.99472 0.75566-1.5012s0.46666-1.0188 0.68109-1.5365l-31.636-13.104z" fill="#57aedb"/><path d="m370.73 351.31c0.21442-0.51766 0.4161-1.0405 0.60487-1.5681 0.18876-0.52756 0.36456-1.0597 0.52721-1.5959l-32.768-9.94z" fill="#57a2db"/><path d="m371.87 348.15c0.16265-0.53619 0.31212-1.0763 0.44826-1.6198 0.13615-0.54353 0.25893-1.0903 0.36824-1.6399l-33.584-6.6803z" fill="#5795db"/><path d="m372.68 344.89c0.10931-0.54955 0.20512-1.1017 0.28734-1.656 0.082216-0.55425 0.15081-1.1104 0.20573-1.668l-34.077-3.3563z" fill="#5789db"/><path d="m373.18 341.57c0.054921-0.55762 0.096145-1.1165 0.12364-1.6762 0.027494-0.55964 0.041246-1.1199 0.041246-1.6802l-34.242 6e-6z" fill="#577cdb"/><path d="m339.1 361.04c6.0541 0 11.861-2.4053 16.142-6.6862 4.2809-4.2809 6.6862-10.088 6.6862-16.142s-2.4053-11.861-6.6862-16.142c-4.2809-4.2809-10.088-6.6862-16.142-6.6862-6.0541 0-11.861 2.4053-16.142 6.6862-4.2809 4.2809-6.6862 10.088-6.6862 16.142s2.4053 11.861 6.6862 16.142c4.2809 4.2809 10.088 6.6862 16.142 6.6862z" clip-path="url(#b1802e3e5d1)" fill="#ffffff" stroke="#ffffff"/><g transform="translate(318.2 342.07) scale(.14 -.14)"><defs><path id="DejaVuSans-50" transform="scale(.015625)" d="m1259 4147v-1753h794q441 0 681 228 241 228 241 650 0 419-241 647-240 228-681 228h-794zm-631 519h1425q785 0 1186-355 402-355 402-1039 0-691-402-1044-401-353-1186-353h-794v-1875h-631v4666z"/><path id="DejaVuSans-68" transform="scale(.015625)" d="m3513 2113v-2113h-575v2094q0 497-194 743-194 247-581 247-466 0-735-297-269-296-269-809v-1978h-578v4863h578v-1907q207 316 486 472 280 156 646 156 603 0 912-373 310-373 310-1098z"/><path id="DejaVuSans-61" transform="scale(.015625)" d="m2194 1759q-697 0-966-159t-269-544q0-306 202-486 202-179 548-179 479 0 768 339t289 901v128h-572zm1147 238v-1997h-575v531q-197-318-491-470t-719-152q-537 0-855 302-317 302-317 808 0 590 395 890 396 300 1180 300h807v57q0 397-261 614t-733 217q-300 0-585-72-284-72-546-216v532q315 122 612 182 297 61 578 61 760 0 1135-394 375-393 375-1193z"/><path id="DejaVuSans-73" transform="scale(.015625)" d="m2834 3397v-544q-243 125-506 187-262 63-544 63-428 0-642-131t-214-394q0-200 153-314t616-217l197-44q612-131 870-370t258-667q0-488-386-773-386-284-1061-284-281 0-586 55t-642 164v594q319-166 628-249 309-82 613-82 406 0 624 139 219 139 219 392 0 234-158 359-157 125-692 241l-200 47q-534 112-772 345-237 233-237 639 0 494 350 762 350 269 994 269 318 0 599-47 282-46 519-140z"/><path id="DejaVuSans-65" transform="scale(.015625)" d="m3597 1894v-281h-2644q38-594 358-905t892-311q331 0 642 81t618 244v-544q-310-131-635-200t-659-69q-838 0-1327 487-489 488-489 1320 0 859 464 1363 464 505 1252 505 706 0 1117-455 411-454 411-1235zm-575 169q-6 471-264 752-258 282-683 282-481 0-770-272t-333-766l2050 4z"/></defs><use xlink:href="#DejaVuSans-50"/><use transform="translate(60.303)" xlink:href="#DejaVuSans-68"/><use transform="translate(123.68)" xlink:href="#DejaVuSans-61"/><use transform="translate(184.96)" xlink:href="#DejaVuSans-73"/><use transform="translate(237.06)" xlink:href="#DejaVuSans-65"/></g><g transform="translate(377.99 342.07) scale(.14 -.14)"><use transform="translate(0 .78125)" xlink:href="#DejaVuSans-30"/></g><g transform="translate(328.32 298.7) scale(.14 -.14)"><defs><path id="DejaVuSans-Oblique-3c0" transform="scale(.015625)" d="m584 3500h3354l-113-575h-441l-418-2150q-44-225 15-325 57-97 228-97 47 0 116 10 72 6 94 9l-81-416q-116-40-235-59-122-19-237-19-375 0-478 203-104 207 3 757l406 2087h-1291l-568-2925h-588l569 2925h-447l112 575z"/><path id="DejaVuSans-2f" transform="scale(.015625)" d="m1625 4666h531l-1625-5260h-531l1625 5260z"/><path id="DejaVuSans-32" transform="scale(.015625)" d="m1228 531h2203v-531h-2962v531q359 372 979 998 621 627 780 809 303 340 423 576 121 236 121 464 0 372-261 606-261 235-680 235-297 0-627-103-329-103-704-313v638q381 153 712 231 332 78 607 78 725 0 1156-363 431-362 431-968 0-288-108-546-107-257-392-607-78-91-497-524-418-433-1181-1211z"/></defs><use transform="translate(0 .78125)" xlink:href="#DejaVuSans-Oblique-3c0"/><use transform="translate(60.205 .78125)" xlink:href="#DejaVuSans-2f"/><use transform="translate(90.271 .78125)" xlink:href="#DejaVuSans-32"/></g><g transform="translate(291.46 342.07) scale(.14 -.14)"><use transform="translate(0 .3125)" xlink:href="#DejaVuSans-Oblique-3c0"/></g><g transform="translate(323.84 385.45) scale(.14 -.14)"><defs><path id="DejaVuSans-33" transform="scale(.015625)" d="m2597 2516q453-97 707-404 255-306 255-756 0-690-475-1069-475-378-1350-378-293 0-604 58t-642 174v609q262-153 574-231 313-78 654-78 593 0 904 234t311 681q0 413-289 645-289 233-804 233h-544v519h569q465 0 712 186t247 536q0 359-255 551-254 193-729 193-260 0-557-57-297-56-653-174v562q360 100 674 150t592 50q719 0 1137-327 419-326 419-882 0-388-222-655t-631-370z"/></defs><use transform="translate(0 .78125)" xlink:href="#DejaVuSans-33"/><use transform="translate(63.623 .78125)" xlink:href="#DejaVuSans-Oblique-3c0"/><use transform="translate(123.83 .78125)" xlink:href="#DejaVuSans-2f"/><use transform="translate(153.89 .78125)" xlink:href="#DejaVuSans-32"/></g><defs><clipPath id="0f2f6f3f14d"><rect x="7.2" y="7.2" width="388.08" height="388.08"/></clipPath><clipPath id="b1802e3e5d1"><rect x="282.03" y="281.14" width="114.14" height="114.14"/></clipPath></defs></svg>