<?xml version="1.0" encoding="UTF-8"?><!DOCTYPE svg  PUBLIC '-//W3C//DTD SVG 1.1//EN'  'http://www.w3.org/Graphics/SVG/1.1/DTD/svg11.dtd'><svg width="496.56pt" height="352.47pt" version="1.1" viewBox="0 0 496.56 352.47" xmlns="http://www.w3.org/2000/svg" xmlns:xlink="http://www.w3.org/1999/xlink"><defs><style type="text/css">*{stroke-linejoin: round; stroke-linecap: butt}</style></defs><path d="m0 352.47h496.56v-352.47h-496.56z" fill="#ffffff"/><path d="m65.745 298.06h423.61v-285.54h-423.61z" fill="#eeeeee"/><path d="m96.327 298.06v-285.54" clip-path="url(#6e68871e1a3)" fill="none" stroke="#b0b0b0" stroke-dasharray="3.7,1.6"/><defs><path id="c0044c49279" d="m0 0v3.5" stroke="#000000" stroke-width=".8"/></defs><use x="96.326783" y="298.061591" stroke="#000000" stroke-width=".8" xlink:href="#c0044c49279"/><g transform="translate(98.544 316.46) rotate(-70) scale(.14 -.14)"><defs><path id="DejaVuSans-49" transform="scale(.015625)" d="m628 4666h631v-4666h-631v4666z"/></defs><use xlink:href="#DejaVuSans-49"/><use transform="translate(29.492)" xlink:href="#DejaVuSans-49"/></g><path d="m141.63 298.06v-285.54" clip-path="url(#6e68871e1a3)" fill="none" stroke="#b0b0b0" stroke-dasharray="3.7,1.6"/><use x="141.632665" y="298.061591" stroke="#000000" stroke-width=".8" xlink:href="#c0044c49279"/><g transform="translate(142.92 321.59) rotate(-70) scale(.14 -.14)"><defs><path id="DejaVuSans-58" transform="scale(.015625)" d="m403 4666h678l1160-1735 1165 1735h678l-1500-2241 1600-2425h-678l-1312 1984-1322-1984h-681l1665 2491-1453 2175z"/></defs><use xlink:href="#DejaVuSans-49"/><use transform="translate(29.492)" xlink:href="#DejaVuSans-58"/></g><path d="m186.94 298.06v-285.54" clip-path="url(#6e68871e1a3)" fill="none" stroke="#b0b0b0" stroke-dasharray="3.7,1.6"/><use x="186.938548" y="298.061591" stroke="#000000" stroke-width=".8" xlink:href="#c0044c49279"/><g transform="translate(187.47 325.75) rotate(-70) scale(.14 -.14)"><defs><path id="DejaVuSans-59" transform="scale(.015625)" d="m-13 4666h679l1293-1919 1285 1919h678l-1650-2444v-2222h-634v2222l-1651 2444z"/></defs><use xlink:href="#DejaVuSans-58"/><use transform="translate(68.506)" xlink:href="#DejaVuSans-59"/></g><path d="m232.24 298.06v-285.54" clip-path="url(#6e68871e1a3)" fill="none" stroke="#b0b0b0" stroke-dasharray="3.7,1.6"/><use x="232.24443" y="298.061591" stroke="#000000" stroke-width=".8" xlink:href="#c0044c49279"/><g transform="translate(233.71 320.62) rotate(-70) scale(.14 -.14)"><use xlink:href="#DejaVuSans-59"/><use transform="translate(61.084)" xlink:href="#DejaVuSans-49"/></g><path d="m277.55 298.06v-285.54" clip-path="url(#6e68871e1a3)" fill="none" stroke="#b0b0b0" stroke-dasharray="3.7,1.6"/><use x="277.550312" y="298.061591" stroke="#000000" stroke-width=".8" xlink:href="#c0044c49279"/><g transform="translate(278.08 325.75) rotate(-70) scale(.14 -.14)"><use xlink:href="#DejaVuSans-59"/><use transform="translate(61.084)" xlink:href="#DejaVuSans-58"/></g><path d="m322.86 298.06v-285.54" clip-path="url(#6e68871e1a3)" fill="none" stroke="#b0b0b0" stroke-dasharray="3.7,1.6"/><use x="322.856195" y="298.061591" stroke="#000000" stroke-width=".8" xlink:href="#c0044c49279"/><g transform="translate(323.38 325.75) rotate(-70) scale(.14 -.14)"><defs><path id="DejaVuSans-5a" transform="scale(.015625)" d="m359 4666h3666v-482l-2950-3653h3022v-531h-3809v481l2950 3653h-2879v532z"/></defs><use xlink:href="#DejaVuSans-59"/><use transform="translate(61.084)" xlink:href="#DejaVuSans-5a"/></g><path d="m368.16 298.06v-285.54" clip-path="url(#6e68871e1a3)" fill="none" stroke="#b0b0b0" stroke-dasharray="3.7,1.6"/><use x="368.162077" y="298.061591" stroke="#000000" stroke-width=".8" xlink:href="#c0044c49279"/><g transform="translate(369.45 321.59) rotate(-70) scale(.14 -.14)"><use xlink:href="#DejaVuSans-5a"/><use transform="translate(68.506)" xlink:href="#DejaVuSans-49"/></g><path d="m413.47 298.06v-285.54" clip-path="url(#6e68871e1a3)" fill="none" stroke="#b0b0b0" stroke-dasharray="3.7,1.6"/><use x="413.46796" y="298.061591" stroke="#000000" stroke-width=".8" xlink:href="#c0044c49279"/><g transform="translate(413.82 326.72) rotate(-70) scale(.14 -.14)"><use xlink:href="#DejaVuSans-5a"/><use transform="translate(68.506)" xlink:href="#DejaVuSans-58"/></g><path d="m458.77 298.06v-285.54" clip-path="url(#6e68871e1a3)" fill="none" stroke="#b0b0b0" stroke-dasharray="3.7,1.6"/><use x="458.773842" y="298.061591" stroke="#000000" stroke-width=".8" xlink:href="#c0044c49279"/><g transform="translate(459.12 326.72) rotate(-70) scale(.14 -.14)"><use xlink:href="#DejaVuSans-5a"/><use transform="translate(68.506)" xlink:href="#DejaVuSans-5a"/></g><g transform="translate(261.03 342.36) scale(.14 -.14)"><defs><path id="DejaVuSans-50" transform="scale(.015625)" d="m1259 4147v-1753h794q441 0 681 228 241 228 241 650 0 419-241 647-240 228-681 228h-794zm-631 519h1425q785 0 1186-355 402-355 402-1039 0-691-402-1044-401-353-1186-353h-794v-1875h-631v4666z"/><path id="DejaVuSans-61" transform="scale(.015625)" d="m2194 1759q-697 0-966-159t-269-544q0-306 202-486 202-179 548-179 479 0 768 339t289 901v128h-572zm1147 238v-1997h-575v531q-197-318-491-470t-719-152q-537 0-855 302-317 302-317 808 0 590 395 890 396 300 1180 300h807v57q0 397-261 614t-733 217q-300 0-585-72-284-72-546-216v532q315 122 612 182 297 61 578 61 760 0 1135-394 375-393 375-1193z"/><path id="DejaVuSans-75" transform="scale(.015625)" d="m544 1381v2119h575v-2097q0-497 193-746 194-248 582-248 465 0 735 297 271 297 271 810v1984h575v-3500h-575v538q-209-319-486-474-276-155-642-155-603 0-916 375-312 375-312 1097zm1447 2203z"/><path id="DejaVuSans-6c" transform="scale(.015625)" d="m603 4863h575v-4863h-575v4863z"/><path id="DejaVuSans-69" transform="scale(.015625)" d="m603 3500h575v-3500h-575v3500zm0 1363h575v-729h-575v729z"/></defs><use xlink:href="#DejaVuSans-50"/><use transform="translate(55.803)" xlink:href="#DejaVuSans-61"/><use transform="translate(117.08)" xlink:href="#DejaVuSans-75"/><use transform="translate(180.46)" xlink:href="#DejaVuSans-6c"/><use transform="translate(208.24)" xlink:href="#DejaVuSans-69"/></g><path d="m65.745 298.06h423.61" clip-path="url(#6e68871e1a3)" fill="none" stroke="#b0b0b0" stroke-dasharray="3.7,1.6"/><defs><path id="e380eaaa9d5" d="m0 0h-3.5" stroke="#000000" stroke-width=".8"/></defs><use x="65.745313" y="298.061591" stroke="#000000" stroke-width=".8" xlink:href="#e380eaaa9d5"/><g transform="translate(24.749 303.38) scale(.14 -.14)"><defs><path id="DejaVuSans-2212" transform="scale(.015625)" d="m678 2272h4006v-531h-4006v531z"/><path id="DejaVuSans-31" transform="scale(.015625)" d="m794 531h1031v3560l-1122-225v575l1116 225h631v-4135h1031v-531h-2687v531z"/><path id="DejaVuSans-2e" transform="scale(.015625)" d="m684 794h660v-794h-660v794z"/><path id="DejaVuSans-30" transform="scale(.015625)" d="m2034 4250q-487 0-733-480-245-479-245-1442 0-959 245-1439 246-480 733-480 491 0 736 480 246 480 246 1439 0 963-246 1442-245 480-736 480zm0 500q785 0 1199-621 414-620 414-1801 0-1178-414-1799-414-620-1199-620-784 0-1198 620-414 621-414 1799 0 1181 414 1801 414 621 1198 621z"/></defs><use xlink:href="#DejaVuSans-2212"/><use transform="translate(83.789)" xlink:href="#DejaVuSans-31"/><use transform="translate(147.41)" xlink:href="#DejaVuSans-2e"/><use transform="translate(179.2)" xlink:href="#DejaVuSans-30"/></g><path d="m65.745 226.68h423.61" clip-path="url(#6e68871e1a3)" fill="none" stroke="#b0b0b0" stroke-dasharray="3.7,1.6"/><use x="65.745313" y="226.67592" stroke="#000000" stroke-width=".8" xlink:href="#e380eaaa9d5"/><g transform="translate(24.749 231.99) scale(.14 -.14)"><defs><path id="DejaVuSans-35" transform="scale(.015625)" d="m691 4666h2478v-532h-1900v-1143q137 47 274 70 138 23 276 23 781 0 1237-428 457-428 457-1159 0-753-469-1171-469-417-1322-417-294 0-599 50-304 50-629 150v635q281-153 581-228t634-75q541 0 856 284 316 284 316 772 0 487-316 771-315 285-856 285-253 0-505-56-251-56-513-175v2344z"/></defs><use xlink:href="#DejaVuSans-2212"/><use transform="translate(83.789)" xlink:href="#DejaVuSans-30"/><use transform="translate(147.41)" xlink:href="#DejaVuSans-2e"/><use transform="translate(179.2)" xlink:href="#DejaVuSans-35"/></g><path d="m65.745 155.29h423.61" clip-path="url(#6e68871e1a3)" fill="none" stroke="#b0b0b0" stroke-dasharray="3.7,1.6"/><use x="65.745313" y="155.290249" stroke="#000000" stroke-width=".8" xlink:href="#e380eaaa9d5"/><g transform="translate(36.481 160.61) scale(.14 -.14)"><use xlink:href="#DejaVuSans-30"/><use transform="translate(63.623)" xlink:href="#DejaVuSans-2e"/><use transform="translate(95.41)" xlink:href="#DejaVuSans-30"/></g><path d="m65.745 83.905h423.61" clip-path="url(#6e68871e1a3)" fill="none" stroke="#b0b0b0" stroke-dasharray="3.7,1.6"/><use x="65.745313" y="83.904577" stroke="#000000" stroke-width=".8" xlink:href="#e380eaaa9d5"/><g transform="translate(36.481 89.223) scale(.14 -.14)"><use xlink:href="#DejaVuSans-30"/><use transform="translate(63.623)" xlink:href="#DejaVuSans-2e"/><use transform="translate(95.41)" xlink:href="#DejaVuSans-35"/></g><path d="m65.745 12.519h423.61" clip-path="url(#6e68871e1a3)" fill="none" stroke="#b0b0b0" stroke-dasharray="3.7,1.6"/><use x="65.745313" y="12.518906" stroke="#000000" stroke-width=".8" xlink:href="#e380eaaa9d5"/><g transform="translate(36.481 17.838) scale(.14 -.14)"><use xlink:href="#DejaVuSans-31"/><use transform="translate(63.623)" xlink:href="#DejaVuSans-2e"/><use transform="translate(95.41)" xlink:href="#DejaVuSans-30"/></g><g transform="translate(17.838 196.57) rotate(-90) scale(.14 -.14)"><defs><path id="DejaVuSans-43" transform="scale(.015625)" d="m4122 4306v-665q-319 297-680 443-361 147-767 147-800 0-1225-489t-425-1414q0-922 425-1411t1225-489q406 0 767 147t680 444v-660q-331-225-702-338-370-112-782-112-1060 0-1670 648-609 649-609 1771 0 1125 609 1773 610 649 1670 649 418 0 788-111 371-111 696-333z"/><path id="DejaVuSans-6f" transform="scale(.015625)" d="m1959 3097q-462 0-731-361t-269-989 267-989q268-361 733-361 460 0 728 362 269 363 269 988 0 622-269 986-268 364-728 364zm0 487q750 0 1178-488 429-487 429-1349 0-859-429-1349-428-489-1178-489-753 0-1180 489-426 490-426 1349 0 862 426 1349 427 488 1180 488z"/><path id="DejaVuSans-65" transform="scale(.015625)" d="m3597 1894v-281h-2644q38-594 358-905t892-311q331 0 642 81t618 244v-544q-310-131-635-200t-659-69q-838 0-1327 487-489 488-489 1320 0 859 464 1363 464 505 1252 505 706 0 1117-455 411-454 411-1235zm-575 169q-6 471-264 752-258 282-683 282-481 0-770-272t-333-766l2050 4z"/><path id="DejaVuSans-66" transform="scale(.015625)" d="m2375 4863v-479h-550q-309 0-430-125-120-125-120-450v-309h947v-447h-947v-3053h-578v3053h-550v447h550v244q0 584 272 851 272 268 862 268h544z"/><path id="DejaVuSans-63" transform="scale(.015625)" d="m3122 3366v-538q-244 135-489 202t-495 67q-560 0-870-355-309-354-309-995t309-996q310-354 870-354 250 0 495 67t489 202v-532q-241-112-499-168-257-57-548-57-791 0-1257 497-465 497-465 1341 0 856 470 1346 471 491 1290 491 265 0 518-55 253-54 491-163z"/><path id="DejaVuSans-6e" transform="scale(.015625)" d="m3513 2113v-2113h-575v2094q0 497-194 743-194 247-581 247-466 0-735-297-269-296-269-809v-1978h-578v3500h578v-544q207 316 486 472 280 156 646 156 603 0 912-373 310-373 310-1098z"/><path id="DejaVuSans-74" transform="scale(.015625)" d="m1172 4494v-994h1184v-447h-1184v-1900q0-428 117-550t477-122h590v-481h-590q-666 0-919 248-253 249-253 905v1900h-422v447h422v994h578z"/><path id="DejaVuSans-73" transform="scale(.015625)" d="m2834 3397v-544q-243 125-506 187-262 63-544 63-428 0-642-131t-214-394q0-200 153-314t616-217l197-44q612-131 870-370t258-667q0-488-386-773-386-284-1061-284-281 0-586 55t-642 164v594q319-166 628-249 309-82 613-82 406 0 624 139 219 139 219 392 0 234-158 359-157 125-692 241l-200 47q-534 112-772 345-237 233-237 639 0 494 350 762 350 269 994 269 318 0 599-47 282-46 519-140z"/></defs><use xlink:href="#DejaVuSans-43"/><use transform="translate(69.824)" xlink:href="#DejaVuSans-6f"/><use transform="translate(131.01)" xlink:href="#DejaVuSans-65"/><use transform="translate(192.53)" xlink:href="#DejaVuSans-66"/><use transform="translate(227.73)" xlink:href="#DejaVuSans-66"/><use transform="translate(262.94)" xlink:href="#DejaVuSans-69"/><use transform="translate(290.72)" xlink:href="#DejaVuSans-63"/><use transform="translate(345.7)" xlink:href="#DejaVuSans-69"/><use transform="translate(373.49)" xlink:href="#DejaVuSans-65"/><use transform="translate(435.01)" xlink:href="#DejaVuSans-6e"/><use transform="translate(498.39)" xlink:href="#DejaVuSans-74"/><use transform="translate(537.6)" xlink:href="#DejaVuSans-73"/></g><path d="m85 155.29h22.653v-142.77h-22.653z" clip-path="url(#6e68871e1a3)" fill="#648fff"/><path d="m130.31 155.29h22.653v-100.95h-22.653z" clip-path="url(#6e68871e1a3)" fill="#648fff"/><path d="m175.61 155.29h22.653v100.95h-22.653z" clip-path="url(#6e68871e1a3)" fill="#648fff"/><path d="m220.92 155.29h22.653v71.386h-22.653z" clip-path="url(#6e68871e1a3)" fill="#648fff"/><path d="m266.22 155.29h22.653v100.95h-22.653z" clip-path="url(#6e68871e1a3)" fill="#648fff"/><path d="m311.53 155.29h22.653v-71.386h-22.653z" clip-path="url(#6e68871e1a3)" fill="#648fff"/><path d="m356.84 155.29h22.653v-71.386h-22.653z" clip-path="url(#6e68871e1a3)" fill="#648fff"/><path d="m402.14 155.29h22.653v-100.95h-22.653z" clip-path="url(#6e68871e1a3)" fill="#648fff"/><path d="m447.45 155.29h22.653v-71.386h-22.653z" clip-path="url(#6e68871e1a3)" fill="#648fff"/><path d="m65.745 155.29h423.61" clip-path="url(#6e68871e1a3)" fill="none" stroke="#000000" stroke-linecap="square"/><path d="m65.745 298.06v-285.54" fill="none" stroke="#000000" stroke-linecap="square" stroke-width=".8"/><path d="m489.36 298.06v-285.54" fill="none" stroke="#000000" stroke-linecap="square" stroke-width=".8"/><path d="m65.745 298.06h423.61" fill="none" stroke="#000000" stroke-linecap="square" stroke-width=".8"/><path d="m65.745 12.519h423.61" fill="none" stroke="#000000" stroke-linecap="square" stroke-width=".8"/><defs><clipPath id="6e68871e1a3"><rect x="65.745" y="12.519" width="423.61" height="285.54"/></clipPath></defs></svg>