<?xml version="1.0" encoding="UTF-8"?><!DOCTYPE svg  PUBLIC '-//W3C//DTD SVG 1.1//EN'  'http://www.w3.org/Graphics/SVG/1.1/DTD/svg11.dtd'><svg width="314.58pt" height="172pt" version="1.1" viewBox="0 0 314.58 172" xmlns="http://www.w3.org/2000/svg" xmlns:xlink="http://www.w3.org/1999/xlink"><defs><style type="text/css">*{stroke-linejoin: round; stroke-linecap: butt}</style></defs><path d="m0 172h314.58v-172h-314.58z" fill="#ffffff"/><path d="m112.69 44.283h190.05" clip-path="url(#4e65c762c5b)" fill="none" stroke="#000000" stroke-linecap="square" stroke-width="2"/><path d="m112.69 90.637h190.05" clip-path="url(#4e65c762c5b)" fill="none" stroke="#000000" stroke-linecap="square" stroke-width="2"/><path d="m112.69 136.99h190.05" clip-path="url(#4e65c762c5b)" fill="none" stroke="#000000" stroke-linecap="square" stroke-width="2"/><path d="m108.06 21.106h-1158.8v185.42h1158.8z" clip-path="url(#4e65c762c5b)" fill="#ffffff" stroke="#ffffff" stroke-width="1.5"/><path d="m184.08 136.99v-92.708" clip-path="url(#4e65c762c5b)" fill="none" stroke="#002d9c" stroke-linecap="square" stroke-width="2"/><path d="m267.75 67.46h18.078v-46.354h-18.078z" clip-path="url(#4e65c762c5b)" fill="#a8a8a8" opacity=".6"/><path d="m267.75 113.81h18.078v-46.354h-18.078z" clip-path="url(#4e65c762c5b)" fill="#a8a8a8" opacity=".6"/><path d="m267.75 160.17h18.078v-46.354h-18.078z" clip-path="url(#4e65c762c5b)" fill="#a8a8a8" opacity=".6"/><path d="m122.66 105.7h30.13v-30.13h-30.13z" clip-path="url(#4e65c762c5b)" fill="#002d9c" stroke="#002d9c" stroke-width="1.5"/><path d="m184.08 48.803c1.1986 0 2.3482-0.4762 3.1958-1.3237 0.84753-0.84753 1.3237-1.9972 1.3237-3.1958 0-1.1986-0.4762-2.3482-1.3237-3.1958-0.84753-0.84753-1.9972-1.3237-3.1958-1.3237s-2.3482 0.4762-3.1958 1.3237c-0.84753 0.84753-1.3237 1.9972-1.3237 3.1958 0 1.1986 0.4762 2.3482 1.3237 3.1958 0.84753 0.84753 1.9972 1.3237 3.1958 1.3237z" clip-path="url(#4e65c762c5b)" fill="#002d9c" stroke="#002d9c" stroke-width="1.5"/><path d="m184.08 95.157c1.1986 0 2.3482-0.4762 3.1958-1.3237 0.84753-0.84753 1.3237-1.9972 1.3237-3.1958s-0.4762-2.3482-1.3237-3.1958c-0.84753-0.84753-1.9972-1.3237-3.1958-1.3237s-2.3482 0.4762-3.1958 1.3237c-0.84753 0.84753-1.3237 1.9972-1.3237 3.1958s0.4762 2.3482 1.3237 3.1958c0.84753 0.84753 1.9972 1.3237 3.1958 1.3237z" clip-path="url(#4e65c762c5b)" fill="#002d9c" stroke="#002d9c" stroke-width="1.5"/><path d="m184.08 147.54c2.7967 0 5.4792-1.1111 7.4568-3.0887 1.9776-1.9776 3.0887-4.6601 3.0887-7.4568 0-2.7967-1.1111-5.4792-3.0887-7.4568-1.9776-1.9776-4.6601-3.0887-7.4568-3.0887-2.7967 0-5.4792 1.1111-7.4568 3.0887-1.9776 1.9776-3.0887 4.6601-3.0887 7.4568 0 2.7967 1.1111 5.4792 3.0887 7.4568 1.9776 1.9776 4.6601 3.0887 7.4568 3.0887z" clip-path="url(#4e65c762c5b)" fill="#002d9c" stroke="#002d9c" stroke-width="2"/><path d="m215.37 105.7h30.13v-30.13h-30.13z" clip-path="url(#4e65c762c5b)" fill="#002d9c" stroke="#002d9c" stroke-width="1.5"/><path d="m184.08 143.02v-12.052" clip-path="url(#4e65c762c5b)" fill="none" stroke="#ffffff" stroke-linecap="square" stroke-width="2"/><path d="m178.05 136.99h12.052" clip-path="url(#4e65c762c5b)" fill="none" stroke="#ffffff" stroke-linecap="square" stroke-width="2"/><g clip-path="url(#4e65c762c5b)"><g transform="translate(85.384 48.734) scale(.1625 -.1625)"><defs><path id="DejaVuSans-Oblique-71" transform="scale(.015625)" d="m2669 525q-231-303-546-460-314-156-695-156-531 0-833 358-301 358-301 986 0 506 186 978t533 847q225 244 517 375t614 131q387 0 637-153t363-462l100 525h578l-934-4813h-579l360 1844zm-1778 813q0-463 193-705 194-242 560-242 544 0 928 520t384 1264q0 450-199 689-198 239-569 239-272 0-504-127-231-126-403-370-181-256-286-600-104-343-104-668z"/><path id="DejaVuSans-30" transform="scale(.015625)" d="m2034 4250q-487 0-733-480-245-479-245-1442 0-959 245-1439 246-480 733-480 491 0 736 480 246 480 246 1439 0 963-246 1442-245 480-736 480zm0 500q785 0 1199-621 414-620 414-1801 0-1178-414-1799-414-620-1199-620-784 0-1198 620-414 621-414 1799 0 1181 414 1801 414 621 1198 621z"/></defs><use xlink:href="#DejaVuSans-Oblique-71"/><use transform="translate(63.477 -16.406) scale(.7)" xlink:href="#DejaVuSans-30"/></g></g><g clip-path="url(#4e65c762c5b)"><g transform="translate(85.384 95.088) scale(.1625 -.1625)"><defs><path id="DejaVuSans-31" transform="scale(.015625)" d="m794 531h1031v3560l-1122-225v575l1116 225h631v-4135h1031v-531h-2687v531z"/></defs><use xlink:href="#DejaVuSans-Oblique-71"/><use transform="translate(63.477 -16.406) scale(.7)" xlink:href="#DejaVuSans-31"/></g></g><g clip-path="url(#4e65c762c5b)"><g transform="translate(34.359 141.46) scale(.1625 -.1625)"><defs><path id="DejaVuSans-Oblique-61" transform="scale(.015625)" d="m3438 1997-391-1997h-575l106 531q-253-312-577-467-323-155-720-155-447 0-733 273-285 274-285 702 0 613 489 969t1348 356h800l31 154q7 25 10 54 3 30 3 92 0 279-227 433-226 155-636 155-281 0-577-72-295-72-607-216l100 532q325 122 636 182 311 61 601 61 619 0 942-269 324-268 324-781 0-103-16-242-15-139-46-295zm-622-238h-575q-707 0-1046-189t-339-586q0-275 173-431 174-156 480-156 469 0 819 336t463 898l25 128z"/><path id="DejaVuSans-Oblique-6e" transform="scale(.015625)" d="m3566 2113-410-2113h-578l410 2091q28 147 43 259 16 113 16 178 0 263-166 409-165 147-462 147-463 0-797-308-334-307-438-835l-384-1941h-575l678 3500h575l-115-550q240 303 577 468 338 166 710 166 463 0 717-250 255-250 255-703 0-112-14-240t-42-278z"/><path id="DejaVuSans-Oblique-63" transform="scale(.015625)" d="m3431 3366-115-569q-207 150-440 225-232 75-482 75-275 0-524-97-248-97-417-275-269-272-416-638-146-365-146-756 0-472 236-703t717-231q237 0 504 72 268 72 558 215l-109-568q-250-103-514-155t-542-52q-697 0-1072 348-375 349-375 996 0 544 195 1002t580 823q262 250 615 378 354 128 772 128 244 0 484-55 241-54 491-163z"/><path id="DejaVuSans-Oblique-69" transform="scale(.015625)" d="m1172 4863h575l-141-729h-575l141 729zm-263-1363h575l-684-3500h-575l684 3500z"/><path id="DejaVuSans-Oblique-6c" transform="scale(.015625)" d="m1172 4863h575l-947-4863h-575l947 4863z"/><path id="DejaVuSans-Oblique-72" transform="scale(.015625)" d="m2853 2969q-87 47-200 72-112 25-240 25-460 0-804-349-343-348-456-933l-353-1784h-575l684 3500h575l-109-544q228 303 545 465 318 163 677 163 94 0 184-11 91-10 182-35l-110-569z"/><path id="DejaVuSans-Oblique-79" transform="scale(.015625)" d="m1588-325q-400-672-652-839t-642-167h-453l96 481h332q240 0 409 131t378 513l178 334-775 3372h610l581-2681 1606 2681h603l-2271-3825z"/></defs><use transform="translate(0 .015625)" xlink:href="#DejaVuSans-Oblique-61"/><use transform="translate(61.279 .015625)" xlink:href="#DejaVuSans-Oblique-6e"/><use transform="translate(124.66 .015625)" xlink:href="#DejaVuSans-Oblique-63"/><use transform="translate(179.64 .015625)" xlink:href="#DejaVuSans-Oblique-69"/><use transform="translate(207.42 .015625)" xlink:href="#DejaVuSans-Oblique-6c"/><use transform="translate(235.21 .015625)" xlink:href="#DejaVuSans-Oblique-6c"/><use transform="translate(262.99 .015625)" xlink:href="#DejaVuSans-Oblique-61"/><use transform="translate(324.27 .015625)" xlink:href="#DejaVuSans-Oblique-72"/><use transform="translate(365.38 .015625)" xlink:href="#DejaVuSans-Oblique-79"/></g></g><g clip-path="url(#4e65c762c5b)"><g transform="translate(133.27 94.224) scale(.13 -.13)" fill="#ffffff"><defs><path id="DejaVuSans-58" transform="scale(.015625)" d="m403 4666h678l1160-1735 1165 1735h678l-1500-2241 1600-2425h-678l-1312 1984-1322-1984h-681l1665 2491-1453 2175z"/></defs><use xlink:href="#DejaVuSans-58"/></g></g><g clip-path="url(#4e65c762c5b)"><g transform="translate(225.98 94.224) scale(.13 -.13)" fill="#ffffff"><use xlink:href="#DejaVuSans-58"/></g></g><path d="m276.79 21.106v46.354" clip-path="url(#4e65c762c5b)" fill="none" stroke="#000000" stroke-dasharray="3.7,1.6"/><path d="m276.79 67.46v46.354" clip-path="url(#4e65c762c5b)" fill="none" stroke="#000000" stroke-dasharray="3.7,1.6"/><path d="m276.79 113.81v46.354" clip-path="url(#4e65c762c5b)" fill="none" stroke="#000000" stroke-dasharray="3.7,1.6"/><defs><clipPath id="4e65c762c5b"><rect x="7.2" y="7.2" width="300.18" height="157.6"/></clipPath></defs></svg>