<?xml version="1.0" encoding="UTF-8"?><!DOCTYPE svg  PUBLIC '-//W3C//DTD SVG 1.1//EN'  'http://www.w3.org/Graphics/SVG/1.1/DTD/svg11.dtd'><svg width="832.74pt" height="589.19pt" version="1.1" viewBox="0 0 832.74 589.19" xmlns="http://www.w3.org/2000/svg" xmlns:xlink="http://www.w3.org/1999/xlink"><defs><style type="text/css">*{stroke-linejoin: round; stroke-linecap: butt}</style></defs><path d="m0 589.19h832.74v-589.19h-832.74z" fill="#ffffff"/><path d="m74.604 44.283h746.3" clip-path="url(#a235056daaf)" fill="none" stroke="#000000" stroke-linecap="square" stroke-width="2"/><path d="m74.604 90.637h746.3" clip-path="url(#a235056daaf)" fill="none" stroke="#000000" stroke-linecap="square" stroke-width="2"/><path d="m74.604 136.99h746.3" clip-path="url(#a235056daaf)" fill="none" stroke="#000000" stroke-linecap="square" stroke-width="2"/><path d="m74.604 183.35h746.3" clip-path="url(#a235056daaf)" fill="none" stroke="#000000" stroke-linecap="square" stroke-width="2"/><path d="m74.604 229.7h746.3" clip-path="url(#a235056daaf)" fill="none" stroke="#000000" stroke-linecap="square" stroke-width="2"/><path d="m74.604 276.05h746.3" clip-path="url(#a235056daaf)" fill="none" stroke="#000000" stroke-linecap="square" stroke-width="2"/><path d="m74.604 322.41h746.3" clip-path="url(#a235056daaf)" fill="none" stroke="#000000" stroke-linecap="square" stroke-width="2"/><path d="m74.604 368.76h746.3" clip-path="url(#a235056daaf)" fill="none" stroke="#000000" stroke-linecap="square" stroke-width="2"/><path d="m74.604 415.12h746.3" clip-path="url(#a235056daaf)" fill="none" stroke="#000000" stroke-linecap="square" stroke-width="2"/><path d="m74.604 461.47h746.3" clip-path="url(#a235056daaf)" fill="none" stroke="#000000" stroke-linecap="square" stroke-width="2"/><path d="m74.604 507.82h746.3" clip-path="url(#a235056daaf)" fill="none" stroke="#000000" stroke-linecap="square" stroke-width="2"/><path d="m74.604 554.18h746.3" clip-path="url(#a235056daaf)" fill="none" stroke="#000000" stroke-linecap="square" stroke-width="2"/><path d="m69.969 21.106h-1158.8v602.6h1158.8z" clip-path="url(#a235056daaf)" fill="#ffffff" stroke="#ffffff" stroke-width="1.5"/><path d="m192.34 554.18v-509.89" clip-path="url(#a235056daaf)" fill="none" stroke="#002d9c" stroke-linecap="square" stroke-width="2"/><path d="m238.7 90.637v-46.354" clip-path="url(#a235056daaf)" fill="none" stroke="#002d9c" stroke-linecap="square" stroke-width="2"/><path d="m285.05 136.99v-46.354" clip-path="url(#a235056daaf)" fill="none" stroke="#002d9c" stroke-linecap="square" stroke-width="2"/><path d="m331.41 183.35v-46.354" clip-path="url(#a235056daaf)" fill="none" stroke="#002d9c" stroke-linecap="square" stroke-width="2"/><path d="m377.76 229.7v-46.354" clip-path="url(#a235056daaf)" fill="none" stroke="#002d9c" stroke-linecap="square" stroke-width="2"/><path d="m424.11 276.05v-46.354" clip-path="url(#a235056daaf)" fill="none" stroke="#002d9c" stroke-linecap="square" stroke-width="2"/><path d="m470.47 322.41v-46.354" clip-path="url(#a235056daaf)" fill="none" stroke="#002d9c" stroke-linecap="square" stroke-width="2"/><path d="m516.82 368.76v-46.354" clip-path="url(#a235056daaf)" fill="none" stroke="#002d9c" stroke-linecap="square" stroke-width="2"/><path d="m563.18 415.12v-46.354" clip-path="url(#a235056daaf)" fill="none" stroke="#002d9c" stroke-linecap="square" stroke-width="2"/><path d="m609.53 461.47v-46.354" clip-path="url(#a235056daaf)" fill="none" stroke="#002d9c" stroke-linecap="square" stroke-width="2"/><path d="m655.88 507.82v-46.354" clip-path="url(#a235056daaf)" fill="none" stroke="#002d9c" stroke-linecap="square" stroke-width="2"/><path d="m702.24 554.18v-46.354" clip-path="url(#a235056daaf)" fill="none" stroke="#002d9c" stroke-linecap="square" stroke-width="2"/><path d="m84.57 59.348h30.13v-30.13h-30.13z" clip-path="url(#a235056daaf)" fill="#9f1853" stroke="#9f1853" stroke-width="1.5"/><path d="m84.57 105.7h30.13v-30.13h-30.13z" clip-path="url(#a235056daaf)" fill="#9f1853" stroke="#9f1853" stroke-width="1.5"/><path d="m84.57 152.06h30.13v-30.13h-30.13z" clip-path="url(#a235056daaf)" fill="#9f1853" stroke="#9f1853" stroke-width="1.5"/><path d="m84.57 198.41h30.13v-30.13h-30.13z" clip-path="url(#a235056daaf)" fill="#9f1853" stroke="#9f1853" stroke-width="1.5"/><path d="m84.57 244.76h30.13v-30.13h-30.13z" clip-path="url(#a235056daaf)" fill="#9f1853" stroke="#9f1853" stroke-width="1.5"/><path d="m84.57 291.12h30.13v-30.13h-30.13z" clip-path="url(#a235056daaf)" fill="#9f1853" stroke="#9f1853" stroke-width="1.5"/><path d="m84.57 337.47h30.13v-30.13h-30.13z" clip-path="url(#a235056daaf)" fill="#9f1853" stroke="#9f1853" stroke-width="1.5"/><path d="m84.57 383.83h30.13v-30.13h-30.13z" clip-path="url(#a235056daaf)" fill="#9f1853" stroke="#9f1853" stroke-width="1.5"/><path d="m84.57 430.18h30.13v-30.13h-30.13z" clip-path="url(#a235056daaf)" fill="#9f1853" stroke="#9f1853" stroke-width="1.5"/><path d="m84.57 476.53h30.13v-30.13h-30.13z" clip-path="url(#a235056daaf)" fill="#9f1853" stroke="#9f1853" stroke-width="1.5"/><path d="m84.57 522.89h30.13v-30.13h-30.13z" clip-path="url(#a235056daaf)" fill="#9f1853" stroke="#9f1853" stroke-width="1.5"/><path d="m84.57 569.24h30.13v-30.13h-30.13z" clip-path="url(#a235056daaf)" fill="#9f1853" stroke="#9f1853" stroke-width="1.5"/><path d="m130.92 59.348h30.13v-30.13h-30.13z" clip-path="url(#a235056daaf)" fill="#33b1ff" stroke="#33b1ff" stroke-width="1.5"/><path d="m130.92 105.7h30.13v-30.13h-30.13z" clip-path="url(#a235056daaf)" fill="#33b1ff" stroke="#33b1ff" stroke-width="1.5"/><path d="m130.92 152.06h30.13v-30.13h-30.13z" clip-path="url(#a235056daaf)" fill="#33b1ff" stroke="#33b1ff" stroke-width="1.5"/><path d="m130.92 198.41h30.13v-30.13h-30.13z" clip-path="url(#a235056daaf)" fill="#33b1ff" stroke="#33b1ff" stroke-width="1.5"/><path d="m130.92 244.76h30.13v-30.13h-30.13z" clip-path="url(#a235056daaf)" fill="#33b1ff" stroke="#33b1ff" stroke-width="1.5"/><path d="m130.92 291.12h30.13v-30.13h-30.13z" clip-path="url(#a235056daaf)" fill="#33b1ff" stroke="#33b1ff" stroke-width="1.5"/><path d="m130.92 337.47h30.13v-30.13h-30.13z" clip-path="url(#a235056daaf)" fill="#33b1ff" stroke="#33b1ff" stroke-width="1.5"/><path d="m130.92 383.83h30.13v-30.13h-30.13z" clip-path="url(#a235056daaf)" fill="#33b1ff" stroke="#33b1ff" stroke-width="1.5"/><path d="m130.92 430.18h30.13v-30.13h-30.13z" clip-path="url(#a235056daaf)" fill="#33b1ff" stroke="#33b1ff" stroke-width="1.5"/><path d="m130.92 476.53h30.13v-30.13h-30.13z" clip-path="url(#a235056daaf)" fill="#33b1ff" stroke="#33b1ff" stroke-width="1.5"/><path d="m130.92 522.89h30.13v-30.13h-30.13z" clip-path="url(#a235056daaf)" fill="#33b1ff" stroke="#33b1ff" stroke-width="1.5"/><path d="m130.92 569.24h30.13v-30.13h-30.13z" clip-path="url(#a235056daaf)" fill="#33b1ff" stroke="#33b1ff" stroke-width="1.5"/><path d="m192.34 558.7c1.1986 0 2.3482-0.4762 3.1958-1.3237 0.84753-0.84753 1.3237-1.9972 1.3237-3.1958 0-1.1986-0.4762-2.3482-1.3237-3.1958-0.84753-0.84753-1.9972-1.3237-3.1958-1.3237s-2.3482 0.4762-3.1958 1.3237c-0.84753 0.84753-1.3237 1.9972-1.3237 3.1958 0 1.1986 0.4762 2.3482 1.3237 3.1958 0.84753 0.84753 1.9972 1.3237 3.1958 1.3237z" clip-path="url(#a235056daaf)" fill="#002d9c" stroke="#002d9c" stroke-width="1.5"/><path d="m192.34 54.829c2.7967 0 5.4792-1.1111 7.4568-3.0887 1.9776-1.9776 3.0887-4.6601 3.0887-7.4568 0-2.7967-1.1111-5.4792-3.0887-7.4568-1.9776-1.9776-4.6601-3.0887-7.4568-3.0887s-5.4792 1.1111-7.4568 3.0887c-1.9776 1.9776-3.0887 4.6601-3.0887 7.4568 0 2.7967 1.1111 5.4792 3.0887 7.4568 1.9776 1.9776 4.6601 3.0887 7.4568 3.0887z" clip-path="url(#a235056daaf)" fill="#002d9c" stroke="#002d9c" stroke-width="2"/><path d="m238.7 48.803c1.1986 0 2.3482-0.4762 3.1958-1.3237s1.3237-1.9972 1.3237-3.1958c0-1.1986-0.4762-2.3482-1.3237-3.1958s-1.9972-1.3237-3.1958-1.3237c-1.1986 0-2.3482 0.4762-3.1958 1.3237-0.84753 0.84753-1.3237 1.9972-1.3237 3.1958 0 1.1986 0.4762 2.3482 1.3237 3.1958 0.84753 0.84753 1.9972 1.3237 3.1958 1.3237z" clip-path="url(#a235056daaf)" fill="#002d9c" stroke="#002d9c" stroke-width="1.5"/><path d="m238.7 101.18c2.7967 0 5.4792-1.1111 7.4568-3.0887 1.9776-1.9776 3.0887-4.6601 3.0887-7.4568 0-2.7967-1.1111-5.4792-3.0887-7.4568-1.9776-1.9776-4.6601-3.0887-7.4568-3.0887-2.7967 0-5.4792 1.1111-7.4568 3.0887-1.9776 1.9776-3.0887 4.6601-3.0887 7.4568 0 2.7967 1.1111 5.4792 3.0887 7.4568 1.9776 1.9776 4.6601 3.0887 7.4568 3.0887z" clip-path="url(#a235056daaf)" fill="#002d9c" stroke="#002d9c" stroke-width="2"/><path d="m285.05 95.157c1.1986 0 2.3482-0.4762 3.1958-1.3237 0.84753-0.84753 1.3237-1.9972 1.3237-3.1958s-0.4762-2.3482-1.3237-3.1958c-0.84753-0.84753-1.9972-1.3237-3.1958-1.3237-1.1986 0-2.3482 0.4762-3.1958 1.3237-0.84753 0.84753-1.3237 1.9972-1.3237 3.1958s0.4762 2.3482 1.3237 3.1958c0.84753 0.84753 1.9972 1.3237 3.1958 1.3237z" clip-path="url(#a235056daaf)" fill="#002d9c" stroke="#002d9c" stroke-width="1.5"/><path d="m285.05 147.54c2.7967 0 5.4792-1.1111 7.4568-3.0887 1.9776-1.9776 3.0887-4.6601 3.0887-7.4568 0-2.7967-1.1111-5.4792-3.0887-7.4568s-4.6601-3.0887-7.4568-3.0887c-2.7967 0-5.4792 1.1111-7.4568 3.0887-1.9776 1.9776-3.0887 4.6601-3.0887 7.4568 0 2.7967 1.1111 5.4792 3.0887 7.4568 1.9776 1.9776 4.6601 3.0887 7.4568 3.0887z" clip-path="url(#a235056daaf)" fill="#002d9c" stroke="#002d9c" stroke-width="2"/><path d="m269.99 59.348h30.13v-30.13h-30.13z" clip-path="url(#a235056daaf)" fill="#9f1853" stroke="#9f1853" stroke-width="1.5"/><path d="m331.41 141.51c1.1986 0 2.3482-0.4762 3.1958-1.3237s1.3237-1.9972 1.3237-3.1958c0-1.1986-0.4762-2.3482-1.3237-3.1958-0.84753-0.84753-1.9972-1.3237-3.1958-1.3237-1.1986 0-2.3482 0.4762-3.1958 1.3237-0.84753 0.84753-1.3237 1.9972-1.3237 3.1958 0 1.1986 0.4762 2.3482 1.3237 3.1958 0.84753 0.84753 1.9972 1.3237 3.1958 1.3237z" clip-path="url(#a235056daaf)" fill="#002d9c" stroke="#002d9c" stroke-width="1.5"/><path d="m331.41 193.89c2.7967 0 5.4792-1.1111 7.4568-3.0887 1.9776-1.9776 3.0887-4.6601 3.0887-7.4568 0-2.7967-1.1111-5.4792-3.0887-7.4568-1.9776-1.9776-4.6601-3.0887-7.4568-3.0887-2.7967 0-5.4792 1.1111-7.4568 3.0887-1.9776 1.9776-3.0887 4.6601-3.0887 7.4568 0 2.7967 1.1111 5.4792 3.0887 7.4568 1.9776 1.9776 4.6601 3.0887 7.4568 3.0887z" clip-path="url(#a235056daaf)" fill="#002d9c" stroke="#002d9c" stroke-width="2"/><path d="m316.34 105.7h30.13v-30.13h-30.13z" clip-path="url(#a235056daaf)" fill="#9f1853" stroke="#9f1853" stroke-width="1.5"/><path d="m316.34 59.348h30.13v-30.13h-30.13z" clip-path="url(#a235056daaf)" fill="#33b1ff" stroke="#33b1ff" stroke-width="1.5"/><path d="m377.76 187.86c1.1986 0 2.3482-0.4762 3.1958-1.3237 0.84753-0.84753 1.3237-1.9972 1.3237-3.1958 0-1.1986-0.4762-2.3482-1.3237-3.1958-0.84753-0.84753-1.9972-1.3237-3.1958-1.3237-1.1986 0-2.3482 0.4762-3.1958 1.3237s-1.3237 1.9972-1.3237 3.1958c0 1.1986 0.4762 2.3482 1.3237 3.1958 0.84753 0.84753 1.9972 1.3237 3.1958 1.3237z" clip-path="url(#a235056daaf)" fill="#002d9c" stroke="#002d9c" stroke-width="1.5"/><path d="m377.76 240.24c2.7967 0 5.4792-1.1111 7.4568-3.0887 1.9776-1.9776 3.0887-4.6601 3.0887-7.4568 0-2.7967-1.1111-5.4792-3.0887-7.4568-1.9776-1.9776-4.6601-3.0887-7.4568-3.0887-2.7967 0-5.4792 1.1111-7.4568 3.0887-1.9776 1.9776-3.0887 4.6601-3.0887 7.4568 0 2.7967 1.1111 5.4792 3.0887 7.4568 1.9776 1.9776 4.6601 3.0887 7.4568 3.0887z" clip-path="url(#a235056daaf)" fill="#002d9c" stroke="#002d9c" stroke-width="2"/><path d="m362.69 152.06h30.13v-30.13h-30.13z" clip-path="url(#a235056daaf)" fill="#9f1853" stroke="#9f1853" stroke-width="1.5"/><path d="m362.69 105.7h30.13v-30.13h-30.13z" clip-path="url(#a235056daaf)" fill="#33b1ff" stroke="#33b1ff" stroke-width="1.5"/><path d="m424.11 234.22c1.1986 0 2.3482-0.4762 3.1958-1.3237 0.84753-0.84753 1.3237-1.9972 1.3237-3.1958s-0.4762-2.3482-1.3237-3.1958c-0.84753-0.84753-1.9972-1.3237-3.1958-1.3237s-2.3482 0.4762-3.1958 1.3237c-0.84753 0.84753-1.3237 1.9972-1.3237 3.1958s0.4762 2.3482 1.3237 3.1958c0.84753 0.84753 1.9972 1.3237 3.1958 1.3237z" clip-path="url(#a235056daaf)" fill="#002d9c" stroke="#002d9c" stroke-width="1.5"/><path d="m424.11 286.6c2.7967 0 5.4792-1.1111 7.4568-3.0887 1.9776-1.9776 3.0887-4.6601 3.0887-7.4568 0-2.7967-1.1111-5.4792-3.0887-7.4568-1.9776-1.9776-4.6601-3.0887-7.4568-3.0887-2.7967 0-5.4792 1.1111-7.4568 3.0887-1.9776 1.9776-3.0887 4.6601-3.0887 7.4568 0 2.7967 1.1111 5.4792 3.0887 7.4568 1.9776 1.9776 4.6601 3.0887 7.4568 3.0887z" clip-path="url(#a235056daaf)" fill="#002d9c" stroke="#002d9c" stroke-width="2"/><path d="m409.05 198.41h30.13v-30.13h-30.13z" clip-path="url(#a235056daaf)" fill="#9f1853" stroke="#9f1853" stroke-width="1.5"/><path d="m409.05 152.06h30.13v-30.13h-30.13z" clip-path="url(#a235056daaf)" fill="#33b1ff" stroke="#33b1ff" stroke-width="1.5"/><path d="m470.47 280.57c1.1986 0 2.3482-0.4762 3.1958-1.3237s1.3237-1.9972 1.3237-3.1958c0-1.1986-0.4762-2.3482-1.3237-3.1958-0.84753-0.84753-1.9972-1.3237-3.1958-1.3237-1.1986 0-2.3482 0.4762-3.1958 1.3237-0.84753 0.84753-1.3237 1.9972-1.3237 3.1958 0 1.1986 0.4762 2.3482 1.3237 3.1958 0.84753 0.84753 1.9972 1.3237 3.1958 1.3237z" clip-path="url(#a235056daaf)" fill="#002d9c" stroke="#002d9c" stroke-width="1.5"/><path d="m470.47 332.95c2.7967 0 5.4792-1.1111 7.4568-3.0887 1.9776-1.9776 3.0887-4.6601 3.0887-7.4568 0-2.7967-1.1111-5.4792-3.0887-7.4568-1.9776-1.9776-4.6601-3.0887-7.4568-3.0887-2.7967 0-5.4792 1.1111-7.4568 3.0887-1.9776 1.9776-3.0887 4.6601-3.0887 7.4568 0 2.7967 1.1111 5.4792 3.0887 7.4568 1.9776 1.9776 4.6601 3.0887 7.4568 3.0887z" clip-path="url(#a235056daaf)" fill="#002d9c" stroke="#002d9c" stroke-width="2"/><path d="m455.4 244.76h30.13v-30.13h-30.13z" clip-path="url(#a235056daaf)" fill="#9f1853" stroke="#9f1853" stroke-width="1.5"/><path d="m455.4 198.41h30.13v-30.13h-30.13z" clip-path="url(#a235056daaf)" fill="#33b1ff" stroke="#33b1ff" stroke-width="1.5"/><path d="m516.82 326.93c1.1986 0 2.3482-0.4762 3.1958-1.3237 0.84753-0.84753 1.3237-1.9972 1.3237-3.1958 0-1.1986-0.4762-2.3482-1.3237-3.1958-0.84753-0.84753-1.9972-1.3237-3.1958-1.3237-1.1986 0-2.3482 0.4762-3.1958 1.3237s-1.3237 1.9972-1.3237 3.1958c0 1.1986 0.4762 2.3482 1.3237 3.1958 0.84753 0.84753 1.9972 1.3237 3.1958 1.3237z" clip-path="url(#a235056daaf)" fill="#002d9c" stroke="#002d9c" stroke-width="1.5"/><path d="m516.82 379.31c2.7967 0 5.4792-1.1111 7.4568-3.0887 1.9776-1.9776 3.0887-4.6601 3.0887-7.4568 0-2.7967-1.1111-5.4792-3.0887-7.4568-1.9776-1.9776-4.6601-3.0887-7.4568-3.0887-2.7967 0-5.4792 1.1111-7.4568 3.0887-1.9776 1.9776-3.0887 4.6601-3.0887 7.4568 0 2.7967 1.1111 5.4792 3.0887 7.4568 1.9776 1.9776 4.6601 3.0887 7.4568 3.0887z" clip-path="url(#a235056daaf)" fill="#002d9c" stroke="#002d9c" stroke-width="2"/><path d="m501.76 291.12h30.13v-30.13h-30.13z" clip-path="url(#a235056daaf)" fill="#9f1853" stroke="#9f1853" stroke-width="1.5"/><path d="m501.76 244.76h30.13v-30.13h-30.13z" clip-path="url(#a235056daaf)" fill="#33b1ff" stroke="#33b1ff" stroke-width="1.5"/><path d="m563.18 373.28c1.1986 0 2.3482-0.4762 3.1958-1.3237 0.84753-0.84753 1.3237-1.9972 1.3237-3.1958 0-1.1986-0.4762-2.3482-1.3237-3.1958-0.84753-0.84753-1.9972-1.3237-3.1958-1.3237s-2.3482 0.4762-3.1958 1.3237c-0.84753 0.84753-1.3237 1.9972-1.3237 3.1958 0 1.1986 0.4762 2.3482 1.3237 3.1958 0.84753 0.84753 1.9972 1.3237 3.1958 1.3237z" clip-path="url(#a235056daaf)" fill="#002d9c" stroke="#002d9c" stroke-width="1.5"/><path d="m563.18 425.66c2.7967 0 5.4792-1.1111 7.4568-3.0887 1.9776-1.9776 3.0887-4.6601 3.0887-7.4568 0-2.7967-1.1111-5.4792-3.0887-7.4568-1.9776-1.9776-4.6601-3.0887-7.4568-3.0887-2.7967 0-5.4792 1.1111-7.4568 3.0887-1.9776 1.9776-3.0887 4.6601-3.0887 7.4568 0 2.7967 1.1111 5.4792 3.0887 7.4568 1.9776 1.9776 4.6601 3.0887 7.4568 3.0887z" clip-path="url(#a235056daaf)" fill="#002d9c" stroke="#002d9c" stroke-width="2"/><path d="m548.11 337.47h30.13v-30.13h-30.13z" clip-path="url(#a235056daaf)" fill="#9f1853" stroke="#9f1853" stroke-width="1.5"/><path d="m548.11 291.12h30.13v-30.13h-30.13z" clip-path="url(#a235056daaf)" fill="#33b1ff" stroke="#33b1ff" stroke-width="1.5"/><path d="m609.53 419.63c1.1986 0 2.3482-0.4762 3.1958-1.3237 0.84753-0.84753 1.3237-1.9972 1.3237-3.1958 0-1.1986-0.4762-2.3482-1.3237-3.1958s-1.9972-1.3237-3.1958-1.3237c-1.1986 0-2.3482 0.4762-3.1958 1.3237-0.84753 0.84753-1.3237 1.9972-1.3237 3.1958 0 1.1986 0.4762 2.3482 1.3237 3.1958 0.84753 0.84753 1.9972 1.3237 3.1958 1.3237z" clip-path="url(#a235056daaf)" fill="#002d9c" stroke="#002d9c" stroke-width="1.5"/><path d="m609.53 472.01c2.7967 0 5.4792-1.1111 7.4568-3.0887 1.9776-1.9776 3.0887-4.6601 3.0887-7.4568 0-2.7967-1.1111-5.4792-3.0887-7.4568-1.9776-1.9776-4.6601-3.0887-7.4568-3.0887-2.7967 0-5.4792 1.1111-7.4568 3.0887-1.9776 1.9776-3.0887 4.6601-3.0887 7.4568 0 2.7967 1.1111 5.4792 3.0887 7.4568 1.9776 1.9776 4.6601 3.0887 7.4568 3.0887z" clip-path="url(#a235056daaf)" fill="#002d9c" stroke="#002d9c" stroke-width="2"/><path d="m594.46 383.83h30.13v-30.13h-30.13z" clip-path="url(#a235056daaf)" fill="#9f1853" stroke="#9f1853" stroke-width="1.5"/><path d="m594.46 337.47h30.13v-30.13h-30.13z" clip-path="url(#a235056daaf)" fill="#33b1ff" stroke="#33b1ff" stroke-width="1.5"/><path d="m655.88 465.99c1.1986 0 2.3482-0.4762 3.1958-1.3237 0.84753-0.84753 1.3237-1.9972 1.3237-3.1958s-0.4762-2.3482-1.3237-3.1958c-0.84753-0.84753-1.9972-1.3237-3.1958-1.3237-1.1986 0-2.3482 0.4762-3.1958 1.3237-0.84753 0.84753-1.3237 1.9972-1.3237 3.1958s0.4762 2.3482 1.3237 3.1958c0.84753 0.84753 1.9972 1.3237 3.1958 1.3237z" clip-path="url(#a235056daaf)" fill="#002d9c" stroke="#002d9c" stroke-width="1.5"/><path d="m655.88 518.37c2.7967 0 5.4792-1.1111 7.4568-3.0887 1.9776-1.9776 3.0887-4.6601 3.0887-7.4568 0-2.7967-1.1111-5.4792-3.0887-7.4568-1.9776-1.9776-4.6601-3.0887-7.4568-3.0887-2.7967 0-5.4792 1.1111-7.4568 3.0887-1.9776 1.9776-3.0887 4.6601-3.0887 7.4568 0 2.7967 1.1111 5.4792 3.0887 7.4568 1.9776 1.9776 4.6601 3.0887 7.4568 3.0887z" clip-path="url(#a235056daaf)" fill="#002d9c" stroke="#002d9c" stroke-width="2"/><path d="m640.82 430.18h30.13v-30.13h-30.13z" clip-path="url(#a235056daaf)" fill="#9f1853" stroke="#9f1853" stroke-width="1.5"/><path d="m640.82 383.83h30.13v-30.13h-30.13z" clip-path="url(#a235056daaf)" fill="#33b1ff" stroke="#33b1ff" stroke-width="1.5"/><path d="m702.24 512.34c1.1986 0 2.3482-0.4762 3.1958-1.3237s1.3237-1.9972 1.3237-3.1958c0-1.1986-0.4762-2.3482-1.3237-3.1958-0.84753-0.84753-1.9972-1.3237-3.1958-1.3237-1.1986 0-2.3482 0.4762-3.1958 1.3237-0.84753 0.84753-1.3237 1.9972-1.3237 3.1958 0 1.1986 0.4762 2.3482 1.3237 3.1958 0.84753 0.84753 1.9972 1.3237 3.1958 1.3237z" clip-path="url(#a235056daaf)" fill="#002d9c" stroke="#002d9c" stroke-width="1.5"/><path d="m702.24 564.72c2.7967 0 5.4792-1.1111 7.4568-3.0887 1.9776-1.9776 3.0887-4.6601 3.0887-7.4568 0-2.7967-1.1111-5.4792-3.0887-7.4568-1.9776-1.9776-4.6601-3.0887-7.4568-3.0887-2.7967 0-5.4792 1.1111-7.4568 3.0887-1.9776 1.9776-3.0887 4.6601-3.0887 7.4568 0 2.7967 1.1111 5.4792 3.0887 7.4568s4.6601 3.0887 7.4568 3.0887z" clip-path="url(#a235056daaf)" fill="#002d9c" stroke="#002d9c" stroke-width="2"/><path d="m687.17 476.53h30.13v-30.13h-30.13z" clip-path="url(#a235056daaf)" fill="#9f1853" stroke="#9f1853" stroke-width="1.5"/><path d="m687.17 430.18h30.13v-30.13h-30.13z" clip-path="url(#a235056daaf)" fill="#33b1ff" stroke="#33b1ff" stroke-width="1.5"/><path d="m733.53 522.89h30.13v-30.13h-30.13z" clip-path="url(#a235056daaf)" fill="#9f1853" stroke="#9f1853" stroke-width="1.5"/><path d="m733.53 569.24h30.13v-30.13h-30.13z" clip-path="url(#a235056daaf)" fill="#9f1853" stroke="#9f1853" stroke-width="1.5"/><path d="m733.53 476.53h30.13v-30.13h-30.13z" clip-path="url(#a235056daaf)" fill="#33b1ff" stroke="#33b1ff" stroke-width="1.5"/><path d="m779.88 522.89h30.13v-30.13h-30.13z" clip-path="url(#a235056daaf)" fill="#33b1ff" stroke="#33b1ff" stroke-width="1.5"/><path d="m779.88 569.24h30.13v-30.13h-30.13z" clip-path="url(#a235056daaf)" fill="#33b1ff" stroke="#33b1ff" stroke-width="1.5"/><path d="m192.34 50.309v-12.052" clip-path="url(#a235056daaf)" fill="none" stroke="#ffffff" stroke-linecap="square" stroke-width="2"/><path d="m186.32 44.283h12.052" clip-path="url(#a235056daaf)" fill="none" stroke="#ffffff" stroke-linecap="square" stroke-width="2"/><path d="m238.7 96.663v-12.052" clip-path="url(#a235056daaf)" fill="none" stroke="#ffffff" stroke-linecap="square" stroke-width="2"/><path d="m232.67 90.637h12.052" clip-path="url(#a235056daaf)" fill="none" stroke="#ffffff" stroke-linecap="square" stroke-width="2"/><path d="m285.05 143.02v-12.052" clip-path="url(#a235056daaf)" fill="none" stroke="#ffffff" stroke-linecap="square" stroke-width="2"/><path d="m279.03 136.99h12.052" clip-path="url(#a235056daaf)" fill="none" stroke="#ffffff" stroke-linecap="square" stroke-width="2"/><path d="m331.41 189.37v-12.052" clip-path="url(#a235056daaf)" fill="none" stroke="#ffffff" stroke-linecap="square" stroke-width="2"/><path d="m325.38 183.35h12.052" clip-path="url(#a235056daaf)" fill="none" stroke="#ffffff" stroke-linecap="square" stroke-width="2"/><path d="m377.76 235.73v-12.052" clip-path="url(#a235056daaf)" fill="none" stroke="#ffffff" stroke-linecap="square" stroke-width="2"/><path d="m371.73 229.7h12.052" clip-path="url(#a235056daaf)" fill="none" stroke="#ffffff" stroke-linecap="square" stroke-width="2"/><path d="m424.11 282.08v-12.052" clip-path="url(#a235056daaf)" fill="none" stroke="#ffffff" stroke-linecap="square" stroke-width="2"/><path d="m418.09 276.05h12.052" clip-path="url(#a235056daaf)" fill="none" stroke="#ffffff" stroke-linecap="square" stroke-width="2"/><path d="m470.47 328.43v-12.052" clip-path="url(#a235056daaf)" fill="none" stroke="#ffffff" stroke-linecap="square" stroke-width="2"/><path d="m464.44 322.41h12.052" clip-path="url(#a235056daaf)" fill="none" stroke="#ffffff" stroke-linecap="square" stroke-width="2"/><path d="m516.82 374.79v-12.052" clip-path="url(#a235056daaf)" fill="none" stroke="#ffffff" stroke-linecap="square" stroke-width="2"/><path d="m510.8 368.76h12.052" clip-path="url(#a235056daaf)" fill="none" stroke="#ffffff" stroke-linecap="square" stroke-width="2"/><path d="m563.18 421.14v-12.052" clip-path="url(#a235056daaf)" fill="none" stroke="#ffffff" stroke-linecap="square" stroke-width="2"/><path d="m557.15 415.12h12.052" clip-path="url(#a235056daaf)" fill="none" stroke="#ffffff" stroke-linecap="square" stroke-width="2"/><path d="m609.53 467.5v-12.052" clip-path="url(#a235056daaf)" fill="none" stroke="#ffffff" stroke-linecap="square" stroke-width="2"/><path d="m603.5 461.47h12.052" clip-path="url(#a235056daaf)" fill="none" stroke="#ffffff" stroke-linecap="square" stroke-width="2"/><path d="m655.88 513.85v-12.052" clip-path="url(#a235056daaf)" fill="none" stroke="#ffffff" stroke-linecap="square" stroke-width="2"/><path d="m649.86 507.82h12.052" clip-path="url(#a235056daaf)" fill="none" stroke="#ffffff" stroke-linecap="square" stroke-width="2"/><path d="m702.24 560.2v-12.052" clip-path="url(#a235056daaf)" fill="none" stroke="#ffffff" stroke-linecap="square" stroke-width="2"/><path d="m696.21 554.18h12.052" clip-path="url(#a235056daaf)" fill="none" stroke="#ffffff" stroke-linecap="square" stroke-width="2"/><g clip-path="url(#a235056daaf)"><g transform="translate(47.296 48.734) scale(.1625 -.1625)"><defs><path id="DejaVuSans-Oblique-71" transform="scale(.015625)" d="m2669 525q-231-303-546-460-314-156-695-156-531 0-833 358-301 358-301 986 0 506 186 978t533 847q225 244 517 375t614 131q387 0 637-153t363-462l100 525h578l-934-4813h-579l360 1844zm-1778 813q0-463 193-705 194-242 560-242 544 0 928 520t384 1264q0 450-199 689-198 239-569 239-272 0-504-127-231-126-403-370-181-256-286-600-104-343-104-668z"/><path id="DejaVuSans-30" transform="scale(.015625)" d="m2034 4250q-487 0-733-480-245-479-245-1442 0-959 245-1439 246-480 733-480 491 0 736 480 246 480 246 1439 0 963-246 1442-245 480-736 480zm0 500q785 0 1199-621 414-620 414-1801 0-1178-414-1799-414-620-1199-620-784 0-1198 620-414 621-414 1799 0 1181 414 1801 414 621 1198 621z"/></defs><use xlink:href="#DejaVuSans-Oblique-71"/><use transform="translate(63.477 -16.406) scale(.7)" xlink:href="#DejaVuSans-30"/></g></g><g clip-path="url(#a235056daaf)"><g transform="translate(47.296 95.088) scale(.1625 -.1625)"><defs><path id="DejaVuSans-31" transform="scale(.015625)" d="m794 531h1031v3560l-1122-225v575l1116 225h631v-4135h1031v-531h-2687v531z"/></defs><use xlink:href="#DejaVuSans-Oblique-71"/><use transform="translate(63.477 -16.406) scale(.7)" xlink:href="#DejaVuSans-31"/></g></g><g clip-path="url(#a235056daaf)"><g transform="translate(47.296 141.44) scale(.1625 -.1625)"><defs><path id="DejaVuSans-32" transform="scale(.015625)" d="m1228 531h2203v-531h-2962v531q359 372 979 998 621 627 780 809 303 340 423 576 121 236 121 464 0 372-261 606-261 235-680 235-297 0-627-103-329-103-704-313v638q381 153 712 231 332 78 607 78 725 0 1156-363 431-362 431-968 0-288-108-546-107-257-392-607-78-91-497-524-418-433-1181-1211z"/></defs><use xlink:href="#DejaVuSans-Oblique-71"/><use transform="translate(63.477 -16.406) scale(.7)" xlink:href="#DejaVuSans-32"/></g></g><g clip-path="url(#a235056daaf)"><g transform="translate(47.296 187.8) scale(.1625 -.1625)"><defs><path id="DejaVuSans-33" transform="scale(.015625)" d="m2597 2516q453-97 707-404 255-306 255-756 0-690-475-1069-475-378-1350-378-293 0-604 58t-642 174v609q262-153 574-231 313-78 654-78 593 0 904 234t311 681q0 413-289 645-289 233-804 233h-544v519h569q465 0 712 186t247 536q0 359-255 551-254 193-729 193-260 0-557-57-297-56-653-174v562q360 100 674 150t592 50q719 0 1137-327 419-326 419-882 0-388-222-655t-631-370z"/></defs><use xlink:href="#DejaVuSans-Oblique-71"/><use transform="translate(63.477 -16.406) scale(.7)" xlink:href="#DejaVuSans-33"/></g></g><g clip-path="url(#a235056daaf)"><g transform="translate(47.296 234.15) scale(.1625 -.1625)"><defs><path id="DejaVuSans-34" transform="scale(.015625)" d="m2419 4116-1594-2491h1594v2491zm-166 550h794v-3041h666v-525h-666v-1100h-628v1100h-2106v609l1940 2957z"/></defs><use xlink:href="#DejaVuSans-Oblique-71"/><use transform="translate(63.477 -16.406) scale(.7)" xlink:href="#DejaVuSans-34"/></g></g><g clip-path="url(#a235056daaf)"><g transform="translate(47.296 280.5) scale(.1625 -.1625)"><defs><path id="DejaVuSans-35" transform="scale(.015625)" d="m691 4666h2478v-532h-1900v-1143q137 47 274 70 138 23 276 23 781 0 1237-428 457-428 457-1159 0-753-469-1171-469-417-1322-417-294 0-599 50-304 50-629 150v635q281-153 581-228t634-75q541 0 856 284 316 284 316 772 0 487-316 771-315 285-856 285-253 0-505-56-251-56-513-175v2344z"/></defs><use xlink:href="#DejaVuSans-Oblique-71"/><use transform="translate(63.477 -16.406) scale(.7)" xlink:href="#DejaVuSans-35"/></g></g><g clip-path="url(#a235056daaf)"><g transform="translate(47.296 326.86) scale(.1625 -.1625)"><defs><path id="DejaVuSans-36" transform="scale(.015625)" d="m2113 2584q-425 0-674-291-248-290-248-796 0-503 248-796 249-292 674-292t673 292q248 293 248 796 0 506-248 796-248 291-673 291zm1253 1979v-575q-238 112-480 171-242 60-480 60-625 0-955-422-329-422-376-1275 184 272 462 417 279 145 613 145 703 0 1111-427 408-426 408-1160 0-719-425-1154-425-434-1131-434-810 0-1238 620-428 621-428 1799 0 1106 525 1764t1409 658q238 0 480-47t505-140z"/></defs><use xlink:href="#DejaVuSans-Oblique-71"/><use transform="translate(63.477 -16.406) scale(.7)" xlink:href="#DejaVuSans-36"/></g></g><g clip-path="url(#a235056daaf)"><g transform="translate(47.296 373.21) scale(.1625 -.1625)"><defs><path id="DejaVuSans-37" transform="scale(.015625)" d="m525 4666h3e3v-269l-1694-4397h-659l1594 4134h-2241v532z"/></defs><use xlink:href="#DejaVuSans-Oblique-71"/><use transform="translate(63.477 -16.406) scale(.7)" xlink:href="#DejaVuSans-37"/></g></g><g clip-path="url(#a235056daaf)"><g transform="translate(47.296 419.57) scale(.1625 -.1625)"><defs><path id="DejaVuSans-38" transform="scale(.015625)" d="m2034 2216q-450 0-708-241-257-241-257-662 0-422 257-663 258-241 708-241t709 242q260 243 260 662 0 421-258 662-257 241-711 241zm-631 268q-406 100-633 378-226 279-226 679 0 559 398 884 399 325 1092 325 697 0 1094-325t397-884q0-400-227-679-226-278-629-378 456-106 710-416 255-309 255-755 0-679-414-1042-414-362-1186-362-771 0-1186 362-414 363-414 1042 0 446 256 755 257 310 713 416zm-231 997q0-362 226-565 227-203 636-203 407 0 636 203 230 203 230 565 0 363-230 566-229 203-636 203-409 0-636-203-226-203-226-566z"/></defs><use xlink:href="#DejaVuSans-Oblique-71"/><use transform="translate(63.477 -16.406) scale(.7)" xlink:href="#DejaVuSans-38"/></g></g><g clip-path="url(#a235056daaf)"><g transform="translate(47.296 465.92) scale(.1625 -.1625)"><defs><path id="DejaVuSans-39" transform="scale(.015625)" d="m703 97v575q238-113 481-172 244-59 479-59 625 0 954 420 330 420 377 1277-181-269-460-413-278-144-615-144-700 0-1108 423-408 424-408 1159 0 718 425 1152 425 435 1131 435 810 0 1236-621 427-620 427-1801 0-1103-524-1761-523-658-1407-658-238 0-482 47-243 47-506 141zm1256 1978q425 0 673 290 249 291 249 798 0 503-249 795-248 292-673 292t-673-292-248-795q0-507 248-798 248-290 673-290z"/></defs><use xlink:href="#DejaVuSans-Oblique-71"/><use transform="translate(63.477 -16.406) scale(.7)" xlink:href="#DejaVuSans-39"/></g></g><g clip-path="url(#a235056daaf)"><g transform="translate(39.983 512.27) scale(.1625 -.1625)"><use xlink:href="#DejaVuSans-Oblique-71"/><use transform="translate(63.477 -16.406) scale(.7)" xlink:href="#DejaVuSans-31"/><use transform="translate(108.01 -16.406) scale(.7)" xlink:href="#DejaVuSans-30"/></g></g><g clip-path="url(#a235056daaf)"><g transform="translate(39.983 558.63) scale(.1625 -.1625)"><use xlink:href="#DejaVuSans-Oblique-71"/><use transform="translate(63.477 -16.406) scale(.7)" xlink:href="#DejaVuSans-31"/><use transform="translate(108.01 -16.406) scale(.7)" xlink:href="#DejaVuSans-31"/></g></g><g clip-path="url(#a235056daaf)"><g transform="translate(91.522 55.53) scale(.08 -.08)" fill="#ffffff"><defs><path id="DejaVuSans-3b8" transform="scale(.015625)" d="m2953 2219h-1990q46-935 262-1331 269-488 734-488 469 0 729 491 228 431 265 1328zm-9 531q-88 888-256 1200-269 494-729 494-478 0-731-488-200-393-259-1206h1975zm-985 2163q750 0 1179-663 428-659 428-1828 0-1166-428-1828-429-666-1179-666-753 0-1178 666-428 662-428 1828 0 1169 428 1828 425 663 1178 663z"/><path id="DejaVuSans-5b" transform="scale(.015625)" d="m550 4863h1325v-447h-750v-4813h750v-447h-1325v5707z"/><path id="DejaVuSans-5d" transform="scale(.015625)" d="m1947 4863v-5707h-1325v447h747v4813h-747v447h1325z"/></defs><use xlink:href="#DejaVuSans-3b8"/><use transform="translate(61.182)" xlink:href="#DejaVuSans-5b"/><use transform="translate(100.2)" xlink:href="#DejaVuSans-30"/><use transform="translate(163.82)" xlink:href="#DejaVuSans-5d"/></g></g><g clip-path="url(#a235056daaf)"><g transform="translate(92.095 43.351) scale(.13 -.13)" fill="#ffffff"><defs><path id="DejaVuSans-52" transform="scale(.015625)" d="m2841 2188q203-69 395-294t386-619l641-1275h-679l-596 1197q-232 469-449 622t-592 153h-688v-1972h-631v4666h1425q800 0 1194-335 394-334 394-1009 0-441-205-732-205-290-595-402zm-1582 1959v-1656h794q456 0 689 211t233 620-233 617-689 208h-794z"/><path id="DejaVuSans-59" transform="scale(.015625)" d="m-13 4666h679l1293-1919 1285 1919h678l-1650-2444v-2222h-634v2222l-1651 2444z"/></defs><use transform="translate(0 .09375)" xlink:href="#DejaVuSans-52"/><use transform="translate(70.439 -16.312) scale(.7)" xlink:href="#DejaVuSans-59"/></g></g><g clip-path="url(#a235056daaf)"><g transform="translate(91.522 101.88) scale(.08 -.08)" fill="#ffffff"><use xlink:href="#DejaVuSans-3b8"/><use transform="translate(61.182)" xlink:href="#DejaVuSans-5b"/><use transform="translate(100.2)" xlink:href="#DejaVuSans-31"/><use transform="translate(163.82)" xlink:href="#DejaVuSans-5d"/></g></g><g clip-path="url(#a235056daaf)"><g transform="translate(92.095 89.705) scale(.13 -.13)" fill="#ffffff"><use transform="translate(0 .09375)" xlink:href="#DejaVuSans-52"/><use transform="translate(70.439 -16.312) scale(.7)" xlink:href="#DejaVuSans-59"/></g></g><g clip-path="url(#a235056daaf)"><g transform="translate(91.522 148.24) scale(.08 -.08)" fill="#ffffff"><use xlink:href="#DejaVuSans-3b8"/><use transform="translate(61.182)" xlink:href="#DejaVuSans-5b"/><use transform="translate(100.2)" xlink:href="#DejaVuSans-32"/><use transform="translate(163.82)" xlink:href="#DejaVuSans-5d"/></g></g><g clip-path="url(#a235056daaf)"><g transform="translate(92.095 136.06) scale(.13 -.13)" fill="#ffffff"><use transform="translate(0 .09375)" xlink:href="#DejaVuSans-52"/><use transform="translate(70.439 -16.312) scale(.7)" xlink:href="#DejaVuSans-59"/></g></g><g clip-path="url(#a235056daaf)"><g transform="translate(91.522 194.59) scale(.08 -.08)" fill="#ffffff"><use xlink:href="#DejaVuSans-3b8"/><use transform="translate(61.182)" xlink:href="#DejaVuSans-5b"/><use transform="translate(100.2)" xlink:href="#DejaVuSans-33"/><use transform="translate(163.82)" xlink:href="#DejaVuSans-5d"/></g></g><g clip-path="url(#a235056daaf)"><g transform="translate(92.095 182.41) scale(.13 -.13)" fill="#ffffff"><use transform="translate(0 .09375)" xlink:href="#DejaVuSans-52"/><use transform="translate(70.439 -16.312) scale(.7)" xlink:href="#DejaVuSans-59"/></g></g><g clip-path="url(#a235056daaf)"><g transform="translate(91.522 240.95) scale(.08 -.08)" fill="#ffffff"><use xlink:href="#DejaVuSans-3b8"/><use transform="translate(61.182)" xlink:href="#DejaVuSans-5b"/><use transform="translate(100.2)" xlink:href="#DejaVuSans-34"/><use transform="translate(163.82)" xlink:href="#DejaVuSans-5d"/></g></g><g clip-path="url(#a235056daaf)"><g transform="translate(92.095 228.77) scale(.13 -.13)" fill="#ffffff"><use transform="translate(0 .09375)" xlink:href="#DejaVuSans-52"/><use transform="translate(70.439 -16.312) scale(.7)" xlink:href="#DejaVuSans-59"/></g></g><g clip-path="url(#a235056daaf)"><g transform="translate(91.522 287.3) scale(.08 -.08)" fill="#ffffff"><use xlink:href="#DejaVuSans-3b8"/><use transform="translate(61.182)" xlink:href="#DejaVuSans-5b"/><use transform="translate(100.2)" xlink:href="#DejaVuSans-35"/><use transform="translate(163.82)" xlink:href="#DejaVuSans-5d"/></g></g><g clip-path="url(#a235056daaf)"><g transform="translate(92.095 275.12) scale(.13 -.13)" fill="#ffffff"><use transform="translate(0 .09375)" xlink:href="#DejaVuSans-52"/><use transform="translate(70.439 -16.312) scale(.7)" xlink:href="#DejaVuSans-59"/></g></g><g clip-path="url(#a235056daaf)"><g transform="translate(91.522 333.65) scale(.08 -.08)" fill="#ffffff"><use xlink:href="#DejaVuSans-3b8"/><use transform="translate(61.182)" xlink:href="#DejaVuSans-5b"/><use transform="translate(100.2)" xlink:href="#DejaVuSans-36"/><use transform="translate(163.82)" xlink:href="#DejaVuSans-5d"/></g></g><g clip-path="url(#a235056daaf)"><g transform="translate(92.095 321.47) scale(.13 -.13)" fill="#ffffff"><use transform="translate(0 .09375)" xlink:href="#DejaVuSans-52"/><use transform="translate(70.439 -16.312) scale(.7)" xlink:href="#DejaVuSans-59"/></g></g><g clip-path="url(#a235056daaf)"><g transform="translate(91.522 380.01) scale(.08 -.08)" fill="#ffffff"><use xlink:href="#DejaVuSans-3b8"/><use transform="translate(61.182)" xlink:href="#DejaVuSans-5b"/><use transform="translate(100.2)" xlink:href="#DejaVuSans-37"/><use transform="translate(163.82)" xlink:href="#DejaVuSans-5d"/></g></g><g clip-path="url(#a235056daaf)"><g transform="translate(92.095 367.83) scale(.13 -.13)" fill="#ffffff"><use transform="translate(0 .09375)" xlink:href="#DejaVuSans-52"/><use transform="translate(70.439 -16.312) scale(.7)" xlink:href="#DejaVuSans-59"/></g></g><g clip-path="url(#a235056daaf)"><g transform="translate(91.522 426.36) scale(.08 -.08)" fill="#ffffff"><use xlink:href="#DejaVuSans-3b8"/><use transform="translate(61.182)" xlink:href="#DejaVuSans-5b"/><use transform="translate(100.2)" xlink:href="#DejaVuSans-38"/><use transform="translate(163.82)" xlink:href="#DejaVuSans-5d"/></g></g><g clip-path="url(#a235056daaf)"><g transform="translate(92.095 414.18) scale(.13 -.13)" fill="#ffffff"><use transform="translate(0 .09375)" xlink:href="#DejaVuSans-52"/><use transform="translate(70.439 -16.312) scale(.7)" xlink:href="#DejaVuSans-59"/></g></g><g clip-path="url(#a235056daaf)"><g transform="translate(91.522 472.72) scale(.08 -.08)" fill="#ffffff"><use xlink:href="#DejaVuSans-3b8"/><use transform="translate(61.182)" xlink:href="#DejaVuSans-5b"/><use transform="translate(100.2)" xlink:href="#DejaVuSans-39"/><use transform="translate(163.82)" xlink:href="#DejaVuSans-5d"/></g></g><g clip-path="url(#a235056daaf)"><g transform="translate(92.095 460.54) scale(.13 -.13)" fill="#ffffff"><use transform="translate(0 .09375)" xlink:href="#DejaVuSans-52"/><use transform="translate(70.439 -16.312) scale(.7)" xlink:href="#DejaVuSans-59"/></g></g><g clip-path="url(#a235056daaf)"><g transform="translate(88.977 519.07) scale(.08 -.08)" fill="#ffffff"><use xlink:href="#DejaVuSans-3b8"/><use transform="translate(61.182)" xlink:href="#DejaVuSans-5b"/><use transform="translate(100.2)" xlink:href="#DejaVuSans-31"/><use transform="translate(163.82)" xlink:href="#DejaVuSans-30"/><use transform="translate(227.44)" xlink:href="#DejaVuSans-5d"/></g></g><g clip-path="url(#a235056daaf)"><g transform="translate(92.095 506.89) scale(.13 -.13)" fill="#ffffff"><use transform="translate(0 .09375)" xlink:href="#DejaVuSans-52"/><use transform="translate(70.439 -16.312) scale(.7)" xlink:href="#DejaVuSans-59"/></g></g><g clip-path="url(#a235056daaf)"><g transform="translate(88.977 565.42) scale(.08 -.08)" fill="#ffffff"><use xlink:href="#DejaVuSans-3b8"/><use transform="translate(61.182)" xlink:href="#DejaVuSans-5b"/><use transform="translate(100.2)" xlink:href="#DejaVuSans-31"/><use transform="translate(163.82)" xlink:href="#DejaVuSans-31"/><use transform="translate(227.44)" xlink:href="#DejaVuSans-5d"/></g></g><g clip-path="url(#a235056daaf)"><g transform="translate(92.095 553.24) scale(.13 -.13)" fill="#ffffff"><use transform="translate(0 .09375)" xlink:href="#DejaVuSans-52"/><use transform="translate(70.439 -16.312) scale(.7)" xlink:href="#DejaVuSans-59"/></g></g><g clip-path="url(#a235056daaf)"><g transform="translate(135.33 55.53) scale(.08 -.08)"><use xlink:href="#DejaVuSans-3b8"/><use transform="translate(61.182)" xlink:href="#DejaVuSans-5b"/><use transform="translate(100.2)" xlink:href="#DejaVuSans-31"/><use transform="translate(163.82)" xlink:href="#DejaVuSans-32"/><use transform="translate(227.44)" xlink:href="#DejaVuSans-5d"/></g></g><g clip-path="url(#a235056daaf)"><g transform="translate(138.06 43.351) scale(.13 -.13)"><defs><path id="DejaVuSans-5a" transform="scale(.015625)" d="m359 4666h3666v-482l-2950-3653h3022v-531h-3809v481l2950 3653h-2879v532z"/></defs><use transform="translate(0 .09375)" xlink:href="#DejaVuSans-52"/><use transform="translate(70.439 -16.312) scale(.7)" xlink:href="#DejaVuSans-5a"/></g></g><g clip-path="url(#a235056daaf)"><g transform="translate(135.33 101.88) scale(.08 -.08)"><use xlink:href="#DejaVuSans-3b8"/><use transform="translate(61.182)" xlink:href="#DejaVuSans-5b"/><use transform="translate(100.2)" xlink:href="#DejaVuSans-31"/><use transform="translate(163.82)" xlink:href="#DejaVuSans-33"/><use transform="translate(227.44)" xlink:href="#DejaVuSans-5d"/></g></g><g clip-path="url(#a235056daaf)"><g transform="translate(138.06 89.705) scale(.13 -.13)"><use transform="translate(0 .09375)" xlink:href="#DejaVuSans-52"/><use transform="translate(70.439 -16.312) scale(.7)" xlink:href="#DejaVuSans-5a"/></g></g><g clip-path="url(#a235056daaf)"><g transform="translate(135.33 148.24) scale(.08 -.08)"><use xlink:href="#DejaVuSans-3b8"/><use transform="translate(61.182)" xlink:href="#DejaVuSans-5b"/><use transform="translate(100.2)" xlink:href="#DejaVuSans-31"/><use transform="translate(163.82)" xlink:href="#DejaVuSans-34"/><use transform="translate(227.44)" xlink:href="#DejaVuSans-5d"/></g></g><g clip-path="url(#a235056daaf)"><g transform="translate(138.06 136.06) scale(.13 -.13)"><use transform="translate(0 .09375)" xlink:href="#DejaVuSans-52"/><use transform="translate(70.439 -16.312) scale(.7)" xlink:href="#DejaVuSans-5a"/></g></g><g clip-path="url(#a235056daaf)"><g transform="translate(135.33 194.59) scale(.08 -.08)"><use xlink:href="#DejaVuSans-3b8"/><use transform="translate(61.182)" xlink:href="#DejaVuSans-5b"/><use transform="translate(100.2)" xlink:href="#DejaVuSans-31"/><use transform="translate(163.82)" xlink:href="#DejaVuSans-35"/><use transform="translate(227.44)" xlink:href="#DejaVuSans-5d"/></g></g><g clip-path="url(#a235056daaf)"><g transform="translate(138.06 182.41) scale(.13 -.13)"><use transform="translate(0 .09375)" xlink:href="#DejaVuSans-52"/><use transform="translate(70.439 -16.312) scale(.7)" xlink:href="#DejaVuSans-5a"/></g></g><g clip-path="url(#a235056daaf)"><g transform="translate(135.33 240.95) scale(.08 -.08)"><use xlink:href="#DejaVuSans-3b8"/><use transform="translate(61.182)" xlink:href="#DejaVuSans-5b"/><use transform="translate(100.2)" xlink:href="#DejaVuSans-31"/><use transform="translate(163.82)" xlink:href="#DejaVuSans-36"/><use transform="translate(227.44)" xlink:href="#DejaVuSans-5d"/></g></g><g clip-path="url(#a235056daaf)"><g transform="translate(138.06 228.77) scale(.13 -.13)"><use transform="translate(0 .09375)" xlink:href="#DejaVuSans-52"/><use transform="translate(70.439 -16.312) scale(.7)" xlink:href="#DejaVuSans-5a"/></g></g><g clip-path="url(#a235056daaf)"><g transform="translate(135.33 287.3) scale(.08 -.08)"><use xlink:href="#DejaVuSans-3b8"/><use transform="translate(61.182)" xlink:href="#DejaVuSans-5b"/><use transform="translate(100.2)" xlink:href="#DejaVuSans-31"/><use transform="translate(163.82)" xlink:href="#DejaVuSans-37"/><use transform="translate(227.44)" xlink:href="#DejaVuSans-5d"/></g></g><g clip-path="url(#a235056daaf)"><g transform="translate(138.06 275.12) scale(.13 -.13)"><use transform="translate(0 .09375)" xlink:href="#DejaVuSans-52"/><use transform="translate(70.439 -16.312) scale(.7)" xlink:href="#DejaVuSans-5a"/></g></g><g clip-path="url(#a235056daaf)"><g transform="translate(135.33 333.65) scale(.08 -.08)"><use xlink:href="#DejaVuSans-3b8"/><use transform="translate(61.182)" xlink:href="#DejaVuSans-5b"/><use transform="translate(100.2)" xlink:href="#DejaVuSans-31"/><use transform="translate(163.82)" xlink:href="#DejaVuSans-38"/><use transform="translate(227.44)" xlink:href="#DejaVuSans-5d"/></g></g><g clip-path="url(#a235056daaf)"><g transform="translate(138.06 321.47) scale(.13 -.13)"><use transform="translate(0 .09375)" xlink:href="#DejaVuSans-52"/><use transform="translate(70.439 -16.312) scale(.7)" xlink:href="#DejaVuSans-5a"/></g></g><g clip-path="url(#a235056daaf)"><g transform="translate(135.33 380.01) scale(.08 -.08)"><use xlink:href="#DejaVuSans-3b8"/><use transform="translate(61.182)" xlink:href="#DejaVuSans-5b"/><use transform="translate(100.2)" xlink:href="#DejaVuSans-31"/><use transform="translate(163.82)" xlink:href="#DejaVuSans-39"/><use transform="translate(227.44)" xlink:href="#DejaVuSans-5d"/></g></g><g clip-path="url(#a235056daaf)"><g transform="translate(138.06 367.83) scale(.13 -.13)"><use transform="translate(0 .09375)" xlink:href="#DejaVuSans-52"/><use transform="translate(70.439 -16.312) scale(.7)" xlink:href="#DejaVuSans-5a"/></g></g><g clip-path="url(#a235056daaf)"><g transform="translate(135.33 426.36) scale(.08 -.08)"><use xlink:href="#DejaVuSans-3b8"/><use transform="translate(61.182)" xlink:href="#DejaVuSans-5b"/><use transform="translate(100.2)" xlink:href="#DejaVuSans-32"/><use transform="translate(163.82)" xlink:href="#DejaVuSans-30"/><use transform="translate(227.44)" xlink:href="#DejaVuSans-5d"/></g></g><g clip-path="url(#a235056daaf)"><g transform="translate(138.06 414.18) scale(.13 -.13)"><use transform="translate(0 .09375)" xlink:href="#DejaVuSans-52"/><use transform="translate(70.439 -16.312) scale(.7)" xlink:href="#DejaVuSans-5a"/></g></g><g clip-path="url(#a235056daaf)"><g transform="translate(135.33 472.72) scale(.08 -.08)"><use xlink:href="#DejaVuSans-3b8"/><use transform="translate(61.182)" xlink:href="#DejaVuSans-5b"/><use transform="translate(100.2)" xlink:href="#DejaVuSans-32"/><use transform="translate(163.82)" xlink:href="#DejaVuSans-31"/><use transform="translate(227.44)" xlink:href="#DejaVuSans-5d"/></g></g><g clip-path="url(#a235056daaf)"><g transform="translate(138.06 460.54) scale(.13 -.13)"><use transform="translate(0 .09375)" xlink:href="#DejaVuSans-52"/><use transform="translate(70.439 -16.312) scale(.7)" xlink:href="#DejaVuSans-5a"/></g></g><g clip-path="url(#a235056daaf)"><g transform="translate(135.33 519.07) scale(.08 -.08)"><use xlink:href="#DejaVuSans-3b8"/><use transform="translate(61.182)" xlink:href="#DejaVuSans-5b"/><use transform="translate(100.2)" xlink:href="#DejaVuSans-32"/><use transform="translate(163.82)" xlink:href="#DejaVuSans-32"/><use transform="translate(227.44)" xlink:href="#DejaVuSans-5d"/></g></g><g clip-path="url(#a235056daaf)"><g transform="translate(138.06 506.89) scale(.13 -.13)"><use transform="translate(0 .09375)" xlink:href="#DejaVuSans-52"/><use transform="translate(70.439 -16.312) scale(.7)" xlink:href="#DejaVuSans-5a"/></g></g><g clip-path="url(#a235056daaf)"><g transform="translate(135.33 565.42) scale(.08 -.08)"><use xlink:href="#DejaVuSans-3b8"/><use transform="translate(61.182)" xlink:href="#DejaVuSans-5b"/><use transform="translate(100.2)" xlink:href="#DejaVuSans-32"/><use transform="translate(163.82)" xlink:href="#DejaVuSans-33"/><use transform="translate(227.44)" xlink:href="#DejaVuSans-5d"/></g></g><g clip-path="url(#a235056daaf)"><g transform="translate(138.06 553.24) scale(.13 -.13)"><use transform="translate(0 .09375)" xlink:href="#DejaVuSans-52"/><use transform="translate(70.439 -16.312) scale(.7)" xlink:href="#DejaVuSans-5a"/></g></g><g clip-path="url(#a235056daaf)"><g transform="translate(274.39 55.53) scale(.08 -.08)" fill="#ffffff"><use xlink:href="#DejaVuSans-3b8"/><use transform="translate(61.182)" xlink:href="#DejaVuSans-5b"/><use transform="translate(100.2)" xlink:href="#DejaVuSans-32"/><use transform="translate(163.82)" xlink:href="#DejaVuSans-34"/><use transform="translate(227.44)" xlink:href="#DejaVuSans-5d"/></g></g><g clip-path="url(#a235056daaf)"><g transform="translate(277.51 43.351) scale(.13 -.13)" fill="#ffffff"><use transform="translate(0 .09375)" xlink:href="#DejaVuSans-52"/><use transform="translate(70.439 -16.312) scale(.7)" xlink:href="#DejaVuSans-59"/></g></g><g clip-path="url(#a235056daaf)"><g transform="translate(320.75 101.88) scale(.08 -.08)" fill="#ffffff"><use xlink:href="#DejaVuSans-3b8"/><use transform="translate(61.182)" xlink:href="#DejaVuSans-5b"/><use transform="translate(100.2)" xlink:href="#DejaVuSans-32"/><use transform="translate(163.82)" xlink:href="#DejaVuSans-35"/><use transform="translate(227.44)" xlink:href="#DejaVuSans-5d"/></g></g><g clip-path="url(#a235056daaf)"><g transform="translate(323.87 89.705) scale(.13 -.13)" fill="#ffffff"><use transform="translate(0 .09375)" xlink:href="#DejaVuSans-52"/><use transform="translate(70.439 -16.312) scale(.7)" xlink:href="#DejaVuSans-59"/></g></g><g clip-path="url(#a235056daaf)"><g transform="translate(320.75 55.53) scale(.08 -.08)"><use xlink:href="#DejaVuSans-3b8"/><use transform="translate(61.182)" xlink:href="#DejaVuSans-5b"/><use transform="translate(100.2)" xlink:href="#DejaVuSans-33"/><use transform="translate(163.82)" xlink:href="#DejaVuSans-36"/><use transform="translate(227.44)" xlink:href="#DejaVuSans-5d"/></g></g><g clip-path="url(#a235056daaf)"><g transform="translate(323.48 43.351) scale(.13 -.13)"><use transform="translate(0 .09375)" xlink:href="#DejaVuSans-52"/><use transform="translate(70.439 -16.312) scale(.7)" xlink:href="#DejaVuSans-5a"/></g></g><g clip-path="url(#a235056daaf)"><g transform="translate(367.1 148.24) scale(.08 -.08)" fill="#ffffff"><use xlink:href="#DejaVuSans-3b8"/><use transform="translate(61.182)" xlink:href="#DejaVuSans-5b"/><use transform="translate(100.2)" xlink:href="#DejaVuSans-32"/><use transform="translate(163.82)" xlink:href="#DejaVuSans-36"/><use transform="translate(227.44)" xlink:href="#DejaVuSans-5d"/></g></g><g clip-path="url(#a235056daaf)"><g transform="translate(370.22 136.06) scale(.13 -.13)" fill="#ffffff"><use transform="translate(0 .09375)" xlink:href="#DejaVuSans-52"/><use transform="translate(70.439 -16.312) scale(.7)" xlink:href="#DejaVuSans-59"/></g></g><g clip-path="url(#a235056daaf)"><g transform="translate(367.1 101.88) scale(.08 -.08)"><use xlink:href="#DejaVuSans-3b8"/><use transform="translate(61.182)" xlink:href="#DejaVuSans-5b"/><use transform="translate(100.2)" xlink:href="#DejaVuSans-33"/><use transform="translate(163.82)" xlink:href="#DejaVuSans-37"/><use transform="translate(227.44)" xlink:href="#DejaVuSans-5d"/></g></g><g clip-path="url(#a235056daaf)"><g transform="translate(369.83 89.705) scale(.13 -.13)"><use transform="translate(0 .09375)" xlink:href="#DejaVuSans-52"/><use transform="translate(70.439 -16.312) scale(.7)" xlink:href="#DejaVuSans-5a"/></g></g><g clip-path="url(#a235056daaf)"><g transform="translate(413.45 194.59) scale(.08 -.08)" fill="#ffffff"><use xlink:href="#DejaVuSans-3b8"/><use transform="translate(61.182)" xlink:href="#DejaVuSans-5b"/><use transform="translate(100.2)" xlink:href="#DejaVuSans-32"/><use transform="translate(163.82)" xlink:href="#DejaVuSans-37"/><use transform="translate(227.44)" xlink:href="#DejaVuSans-5d"/></g></g><g clip-path="url(#a235056daaf)"><g transform="translate(416.57 182.41) scale(.13 -.13)" fill="#ffffff"><use transform="translate(0 .09375)" xlink:href="#DejaVuSans-52"/><use transform="translate(70.439 -16.312) scale(.7)" xlink:href="#DejaVuSans-59"/></g></g><g clip-path="url(#a235056daaf)"><g transform="translate(413.45 148.24) scale(.08 -.08)"><use xlink:href="#DejaVuSans-3b8"/><use transform="translate(61.182)" xlink:href="#DejaVuSans-5b"/><use transform="translate(100.2)" xlink:href="#DejaVuSans-33"/><use transform="translate(163.82)" xlink:href="#DejaVuSans-38"/><use transform="translate(227.44)" xlink:href="#DejaVuSans-5d"/></g></g><g clip-path="url(#a235056daaf)"><g transform="translate(416.18 136.06) scale(.13 -.13)"><use transform="translate(0 .09375)" xlink:href="#DejaVuSans-52"/><use transform="translate(70.439 -16.312) scale(.7)" xlink:href="#DejaVuSans-5a"/></g></g><g clip-path="url(#a235056daaf)"><g transform="translate(459.81 240.95) scale(.08 -.08)" fill="#ffffff"><use xlink:href="#DejaVuSans-3b8"/><use transform="translate(61.182)" xlink:href="#DejaVuSans-5b"/><use transform="translate(100.2)" xlink:href="#DejaVuSans-32"/><use transform="translate(163.82)" xlink:href="#DejaVuSans-38"/><use transform="translate(227.44)" xlink:href="#DejaVuSans-5d"/></g></g><g clip-path="url(#a235056daaf)"><g transform="translate(462.93 228.77) scale(.13 -.13)" fill="#ffffff"><use transform="translate(0 .09375)" xlink:href="#DejaVuSans-52"/><use transform="translate(70.439 -16.312) scale(.7)" xlink:href="#DejaVuSans-59"/></g></g><g clip-path="url(#a235056daaf)"><g transform="translate(459.81 194.59) scale(.08 -.08)"><use xlink:href="#DejaVuSans-3b8"/><use transform="translate(61.182)" xlink:href="#DejaVuSans-5b"/><use transform="translate(100.2)" xlink:href="#DejaVuSans-33"/><use transform="translate(163.82)" xlink:href="#DejaVuSans-39"/><use transform="translate(227.44)" xlink:href="#DejaVuSans-5d"/></g></g><g clip-path="url(#a235056daaf)"><g transform="translate(462.54 182.41) scale(.13 -.13)"><use transform="translate(0 .09375)" xlink:href="#DejaVuSans-52"/><use transform="translate(70.439 -16.312) scale(.7)" xlink:href="#DejaVuSans-5a"/></g></g><g clip-path="url(#a235056daaf)"><g transform="translate(506.16 287.3) scale(.08 -.08)" fill="#ffffff"><use xlink:href="#DejaVuSans-3b8"/><use transform="translate(61.182)" xlink:href="#DejaVuSans-5b"/><use transform="translate(100.2)" xlink:href="#DejaVuSans-32"/><use transform="translate(163.82)" xlink:href="#DejaVuSans-39"/><use transform="translate(227.44)" xlink:href="#DejaVuSans-5d"/></g></g><g clip-path="url(#a235056daaf)"><g transform="translate(509.28 275.12) scale(.13 -.13)" fill="#ffffff"><use transform="translate(0 .09375)" xlink:href="#DejaVuSans-52"/><use transform="translate(70.439 -16.312) scale(.7)" xlink:href="#DejaVuSans-59"/></g></g><g clip-path="url(#a235056daaf)"><g transform="translate(506.16 240.95) scale(.08 -.08)"><use xlink:href="#DejaVuSans-3b8"/><use transform="translate(61.182)" xlink:href="#DejaVuSans-5b"/><use transform="translate(100.2)" xlink:href="#DejaVuSans-34"/><use transform="translate(163.82)" xlink:href="#DejaVuSans-30"/><use transform="translate(227.44)" xlink:href="#DejaVuSans-5d"/></g></g><g clip-path="url(#a235056daaf)"><g transform="translate(508.89 228.77) scale(.13 -.13)"><use transform="translate(0 .09375)" xlink:href="#DejaVuSans-52"/><use transform="translate(70.439 -16.312) scale(.7)" xlink:href="#DejaVuSans-5a"/></g></g><g clip-path="url(#a235056daaf)"><g transform="translate(552.52 333.65) scale(.08 -.08)" fill="#ffffff"><use xlink:href="#DejaVuSans-3b8"/><use transform="translate(61.182)" xlink:href="#DejaVuSans-5b"/><use transform="translate(100.2)" xlink:href="#DejaVuSans-33"/><use transform="translate(163.82)" xlink:href="#DejaVuSans-30"/><use transform="translate(227.44)" xlink:href="#DejaVuSans-5d"/></g></g><g clip-path="url(#a235056daaf)"><g transform="translate(555.64 321.47) scale(.13 -.13)" fill="#ffffff"><use transform="translate(0 .09375)" xlink:href="#DejaVuSans-52"/><use transform="translate(70.439 -16.312) scale(.7)" xlink:href="#DejaVuSans-59"/></g></g><g clip-path="url(#a235056daaf)"><g transform="translate(552.52 287.3) scale(.08 -.08)"><use xlink:href="#DejaVuSans-3b8"/><use transform="translate(61.182)" xlink:href="#DejaVuSans-5b"/><use transform="translate(100.2)" xlink:href="#DejaVuSans-34"/><use transform="translate(163.82)" xlink:href="#DejaVuSans-31"/><use transform="translate(227.44)" xlink:href="#DejaVuSans-5d"/></g></g><g clip-path="url(#a235056daaf)"><g transform="translate(555.25 275.12) scale(.13 -.13)"><use transform="translate(0 .09375)" xlink:href="#DejaVuSans-52"/><use transform="translate(70.439 -16.312) scale(.7)" xlink:href="#DejaVuSans-5a"/></g></g><g clip-path="url(#a235056daaf)"><g transform="translate(598.87 380.01) scale(.08 -.08)" fill="#ffffff"><use xlink:href="#DejaVuSans-3b8"/><use transform="translate(61.182)" xlink:href="#DejaVuSans-5b"/><use transform="translate(100.2)" xlink:href="#DejaVuSans-33"/><use transform="translate(163.82)" xlink:href="#DejaVuSans-31"/><use transform="translate(227.44)" xlink:href="#DejaVuSans-5d"/></g></g><g clip-path="url(#a235056daaf)"><g transform="translate(601.99 367.83) scale(.13 -.13)" fill="#ffffff"><use transform="translate(0 .09375)" xlink:href="#DejaVuSans-52"/><use transform="translate(70.439 -16.312) scale(.7)" xlink:href="#DejaVuSans-59"/></g></g><g clip-path="url(#a235056daaf)"><g transform="translate(598.87 333.65) scale(.08 -.08)"><use xlink:href="#DejaVuSans-3b8"/><use transform="translate(61.182)" xlink:href="#DejaVuSans-5b"/><use transform="translate(100.2)" xlink:href="#DejaVuSans-34"/><use transform="translate(163.82)" xlink:href="#DejaVuSans-32"/><use transform="translate(227.44)" xlink:href="#DejaVuSans-5d"/></g></g><g clip-path="url(#a235056daaf)"><g transform="translate(601.6 321.47) scale(.13 -.13)"><use transform="translate(0 .09375)" xlink:href="#DejaVuSans-52"/><use transform="translate(70.439 -16.312) scale(.7)" xlink:href="#DejaVuSans-5a"/></g></g><g clip-path="url(#a235056daaf)"><g transform="translate(645.22 426.36) scale(.08 -.08)" fill="#ffffff"><use xlink:href="#DejaVuSans-3b8"/><use transform="translate(61.182)" xlink:href="#DejaVuSans-5b"/><use transform="translate(100.2)" xlink:href="#DejaVuSans-33"/><use transform="translate(163.82)" xlink:href="#DejaVuSans-32"/><use transform="translate(227.44)" xlink:href="#DejaVuSans-5d"/></g></g><g clip-path="url(#a235056daaf)"><g transform="translate(648.34 414.18) scale(.13 -.13)" fill="#ffffff"><use transform="translate(0 .09375)" xlink:href="#DejaVuSans-52"/><use transform="translate(70.439 -16.312) scale(.7)" xlink:href="#DejaVuSans-59"/></g></g><g clip-path="url(#a235056daaf)"><g transform="translate(645.22 380.01) scale(.08 -.08)"><use xlink:href="#DejaVuSans-3b8"/><use transform="translate(61.182)" xlink:href="#DejaVuSans-5b"/><use transform="translate(100.2)" xlink:href="#DejaVuSans-34"/><use transform="translate(163.82)" xlink:href="#DejaVuSans-33"/><use transform="translate(227.44)" xlink:href="#DejaVuSans-5d"/></g></g><g clip-path="url(#a235056daaf)"><g transform="translate(647.95 367.83) scale(.13 -.13)"><use transform="translate(0 .09375)" xlink:href="#DejaVuSans-52"/><use transform="translate(70.439 -16.312) scale(.7)" xlink:href="#DejaVuSans-5a"/></g></g><g clip-path="url(#a235056daaf)"><g transform="translate(691.58 472.72) scale(.08 -.08)" fill="#ffffff"><use xlink:href="#DejaVuSans-3b8"/><use transform="translate(61.182)" xlink:href="#DejaVuSans-5b"/><use transform="translate(100.2)" xlink:href="#DejaVuSans-33"/><use transform="translate(163.82)" xlink:href="#DejaVuSans-33"/><use transform="translate(227.44)" xlink:href="#DejaVuSans-5d"/></g></g><g clip-path="url(#a235056daaf)"><g transform="translate(694.7 460.54) scale(.13 -.13)" fill="#ffffff"><use transform="translate(0 .09375)" xlink:href="#DejaVuSans-52"/><use transform="translate(70.439 -16.312) scale(.7)" xlink:href="#DejaVuSans-59"/></g></g><g clip-path="url(#a235056daaf)"><g transform="translate(691.58 426.36) scale(.08 -.08)"><use xlink:href="#DejaVuSans-3b8"/><use transform="translate(61.182)" xlink:href="#DejaVuSans-5b"/><use transform="translate(100.2)" xlink:href="#DejaVuSans-34"/><use transform="translate(163.82)" xlink:href="#DejaVuSans-34"/><use transform="translate(227.44)" xlink:href="#DejaVuSans-5d"/></g></g><g clip-path="url(#a235056daaf)"><g transform="translate(694.31 414.18) scale(.13 -.13)"><use transform="translate(0 .09375)" xlink:href="#DejaVuSans-52"/><use transform="translate(70.439 -16.312) scale(.7)" xlink:href="#DejaVuSans-5a"/></g></g><g clip-path="url(#a235056daaf)"><g transform="translate(737.93 519.07) scale(.08 -.08)" fill="#ffffff"><use xlink:href="#DejaVuSans-3b8"/><use transform="translate(61.182)" xlink:href="#DejaVuSans-5b"/><use transform="translate(100.2)" xlink:href="#DejaVuSans-33"/><use transform="translate(163.82)" xlink:href="#DejaVuSans-34"/><use transform="translate(227.44)" xlink:href="#DejaVuSans-5d"/></g></g><g clip-path="url(#a235056daaf)"><g transform="translate(741.05 506.89) scale(.13 -.13)" fill="#ffffff"><use transform="translate(0 .09375)" xlink:href="#DejaVuSans-52"/><use transform="translate(70.439 -16.312) scale(.7)" xlink:href="#DejaVuSans-59"/></g></g><g clip-path="url(#a235056daaf)"><g transform="translate(737.93 565.42) scale(.08 -.08)" fill="#ffffff"><use xlink:href="#DejaVuSans-3b8"/><use transform="translate(61.182)" xlink:href="#DejaVuSans-5b"/><use transform="translate(100.2)" xlink:href="#DejaVuSans-33"/><use transform="translate(163.82)" xlink:href="#DejaVuSans-35"/><use transform="translate(227.44)" xlink:href="#DejaVuSans-5d"/></g></g><g clip-path="url(#a235056daaf)"><g transform="translate(741.05 553.24) scale(.13 -.13)" fill="#ffffff"><use transform="translate(0 .09375)" xlink:href="#DejaVuSans-52"/><use transform="translate(70.439 -16.312) scale(.7)" xlink:href="#DejaVuSans-59"/></g></g><g clip-path="url(#a235056daaf)"><g transform="translate(737.93 472.72) scale(.08 -.08)"><use xlink:href="#DejaVuSans-3b8"/><use transform="translate(61.182)" xlink:href="#DejaVuSans-5b"/><use transform="translate(100.2)" xlink:href="#DejaVuSans-34"/><use transform="translate(163.82)" xlink:href="#DejaVuSans-35"/><use transform="translate(227.44)" xlink:href="#DejaVuSans-5d"/></g></g><g clip-path="url(#a235056daaf)"><g transform="translate(740.66 460.54) scale(.13 -.13)"><use transform="translate(0 .09375)" xlink:href="#DejaVuSans-52"/><use transform="translate(70.439 -16.312) scale(.7)" xlink:href="#DejaVuSans-5a"/></g></g><g clip-path="url(#a235056daaf)"><g transform="translate(784.29 519.07) scale(.08 -.08)"><use xlink:href="#DejaVuSans-3b8"/><use transform="translate(61.182)" xlink:href="#DejaVuSans-5b"/><use transform="translate(100.2)" xlink:href="#DejaVuSans-34"/><use transform="translate(163.82)" xlink:href="#DejaVuSans-36"/><use transform="translate(227.44)" xlink:href="#DejaVuSans-5d"/></g></g><g clip-path="url(#a235056daaf)"><g transform="translate(787.02 506.89) scale(.13 -.13)"><use transform="translate(0 .09375)" xlink:href="#DejaVuSans-52"/><use transform="translate(70.439 -16.312) scale(.7)" xlink:href="#DejaVuSans-5a"/></g></g><g clip-path="url(#a235056daaf)"><g transform="translate(784.29 565.42) scale(.08 -.08)"><use xlink:href="#DejaVuSans-3b8"/><use transform="translate(61.182)" xlink:href="#DejaVuSans-5b"/><use transform="translate(100.2)" xlink:href="#DejaVuSans-34"/><use transform="translate(163.82)" xlink:href="#DejaVuSans-37"/><use transform="translate(227.44)" xlink:href="#DejaVuSans-5d"/></g></g><g clip-path="url(#a235056daaf)"><g transform="translate(787.02 553.24) scale(.13 -.13)"><use transform="translate(0 .09375)" xlink:href="#DejaVuSans-52"/><use transform="translate(70.439 -16.312) scale(.7)" xlink:href="#DejaVuSans-5a"/></g></g><defs><clipPath id="a235056daaf"><rect x="7.2" y="7.2" width="818.34" height="574.79"/></clipPath></defs></svg>